%
T1C.035F197S55
X0187Y0136
X0187Y0146
X0187Y0156
X0187Y0166
X014Y0187
X014Y0197
X014Y0283
X014Y0293
X0205Y034
X0205Y033
X0205Y032
X0205Y031
X0194Y024786
X0194Y022814
X02125Y017
X0197Y0166
X02125Y0158
X0197Y0156
X02125Y0146
X0197Y0146
X0197Y0136
X02125Y0134
X0225Y0191
X0215Y0191
X0215Y0201
X0225Y0201
X0218Y027
X0228Y027
X0218Y028
X0228Y028
X02285Y0308
X0215Y031
X0215Y032
X02285Y032
X0215Y033
X02285Y0332
X0215Y034
X02285Y0344
X02635Y0344
X02635Y0332
X02635Y032
X02635Y0308
X024014Y028
X025986Y028
X025986Y0268
X024014Y0268
X0261Y0242
X0261Y0232
X024014Y0202
X025986Y0202
X025986Y019
X024014Y019
X02475Y017
X0261Y0166
X02475Y0158
X0261Y0156
X0261Y0146
X02475Y0146
X0261Y0136
X02475Y0134
X0271Y0136
X0271Y0146
X0271Y0156
X0271Y0166
X0283Y0191
X0273Y0191
X0283Y0201
X0273Y0201
X0271Y0232
X0271Y0242
X0274Y027
X0284Y027
X0274Y028
X0284Y028
X0277Y031
X0287Y031
X0287Y032
X0277Y032
X0277Y033
X0287Y033
X0287Y034
X0277Y034
X031Y0287
X031Y0277
X03Y025986
X03Y024014
X0298Y022586
X0298Y020614
X03125Y0201
X030014Y0186
X031Y0168
X032Y0168
X031986Y0186
X03475Y0201
X033Y0277
X032Y0277
X032Y0287
X033Y0287
T2C.04F139S55
X014Y022
X014Y024
X014Y026
X031Y014
X029Y014
T3C.05F107S55
X0326Y0226
X0326Y02395
X0326Y0253
X03415Y02465
X03415Y02325
T4C.05118F107S55
X0194Y018814
X0194Y020786
X0194Y026614
X0194Y028586
X0176Y032214
X0176Y034186
T5C.052F107S55
X0172Y01705
X0172Y02255
X0172Y02485
X0172Y03035
T6C.12598F035S794
X014Y014
X014Y034
X034Y034
X034Y014
M30
