<?xml version="1.0" standalone="no"?>
 <!DOCTYPE svg PUBLIC "-//W3C//DTD SVG 1.1//EN" 
 "http://www.w3.org/Graphics/SVG/1.1/DTD/svg11.dtd"> 
<svg xmlns="http://www.w3.org/2000/svg" version="1.1" 
    width="29.7002cm" height="21.0007cm" viewBox="0 0 116930 82680 ">
<title>SVG Picture created as UNIPOWER04A-MLABb.svg date 2017/01/20 13:42:17 </title>
  <desc>Picture generated by PCBNEW </desc>
<g style="fill:#000000; fill-opacity:1;stroke:#000000; stroke-opacity:1;
stroke-linecap:round; stroke-linejoin:round; "
 transform="translate(0 0) scale(1 1)">
</g>
<g style="fill:#000000; fill-opacity:0.0; 
stroke:#000000; stroke-width:-0.000393701; stroke-opacity:1; 
stroke-linecap:round; stroke-linejoin:round;">
</g>
<g style="fill:#000000; fill-opacity:0.0; 
stroke:#000000; stroke-width:59.0551; stroke-opacity:1; 
stroke-linecap:round; stroke-linejoin:round;">
<path d="M85030 -100
L85030 -15900
" />
<path d="M116830 -100
L116830 -15900
" />
<path d="M116830 -15900
L85030 -15900
" />
<path d="M116830 -100
L85030 -100
" />
<path d="M107336 -10587
L107336 -10509
" />
<path d="M105524 -10587
L107336 -10587
" />
<path d="M105524 -10587
L105524 -10509
" />
<path d="M105522 -9014
L105522 -9092
" />
<path d="M105522 -9014
L107334 -9014
" />
<path d="M107334 -9014
L107334 -9092
" />
<path d="M107198 -10587
L107198 -10509
" />
<path d="M107198 -9013
L107198 -9091
" />
<path d="M107336 -10489
L107336 -10450
" />
<path d="M107198 -10489
L107198 -10450
" />
<path d="M105524 -10489
L105524 -10450
" />
<path d="M107336 -9111
L107336 -9150
" />
<path d="M107198 -9111
L107198 -9150
" />
<path d="M105524 -9111
L105524 -9170
" />
<path d="M116519 -5094
L116460 -5094
" />
<path d="M116519 -6768
L116480 -6768
" />
<path d="M116519 -6906
L116480 -6906
" />
<path d="M115141 -5094
L115180 -5094
" />
<path d="M115141 -6768
L115180 -6768
" />
<path d="M115141 -6906
L115180 -6906
" />
<path d="M116617 -6768
L116539 -6768
" />
<path d="M115043 -6768
L115121 -6768
" />
<path d="M116616 -6904
L116538 -6904
" />
<path d="M116616 -5092
L116616 -6904
" />
<path d="M116616 -5092
L116538 -5092
" />
<path d="M115043 -5094
L115121 -5094
" />
<path d="M115043 -5094
L115043 -6906
" />
<path d="M115043 -6906
L115121 -6906
" />
<path d="M111136 -2187
L111136 -2109
" />
<path d="M109324 -2187
L111136 -2187
" />
<path d="M109324 -2187
L109324 -2109
" />
<path d="M109322 -614
L109322 -692
" />
<path d="M109322 -614
L111134 -614
" />
<path d="M111134 -614
L111134 -692
" />
<path d="M110998 -2187
L110998 -2109
" />
<path d="M110998 -613
L110998 -691
" />
<path d="M111136 -2089
L111136 -2050
" />
<path d="M110998 -2089
L110998 -2050
" />
<path d="M109324 -2089
L109324 -2050
" />
<path d="M111136 -711
L111136 -750
" />
<path d="M110998 -711
L110998 -750
" />
<path d="M109324 -711
L109324 -770
" />
<path d="M98824 -811
L98824 -870
" />
<path d="M100498 -811
L100498 -850
" />
<path d="M100636 -811
L100636 -850
" />
<path d="M98824 -2189
L98824 -2150
" />
<path d="M100498 -2189
L100498 -2150
" />
<path d="M100636 -2189
L100636 -2150
" />
<path d="M100498 -713
L100498 -791
" />
<path d="M100498 -2287
L100498 -2209
" />
<path d="M100634 -714
L100634 -792
" />
<path d="M98822 -714
L100634 -714
" />
<path d="M98822 -714
L98822 -792
" />
<path d="M98824 -2287
L98824 -2209
" />
<path d="M98824 -2287
L100636 -2287
" />
<path d="M100636 -2287
L100636 -2209
" />
<path d="M94124 -14111
L94124 -14170
" />
<path d="M95798 -14111
L95798 -14150
" />
<path d="M95936 -14111
L95936 -14150
" />
<path d="M94124 -15489
L94124 -15450
" />
<path d="M95798 -15489
L95798 -15450
" />
<path d="M95936 -15489
L95936 -15450
" />
<path d="M95798 -14013
L95798 -14091
" />
<path d="M95798 -15587
L95798 -15509
" />
<path d="M95934 -14014
L95934 -14092
" />
<path d="M94122 -14014
L95934 -14014
" />
<path d="M94122 -14014
L94122 -14092
" />
<path d="M94124 -15587
L94124 -15509
" />
<path d="M94124 -15587
L95936 -15587
" />
<path d="M95936 -15587
L95936 -15509
" />
<path d="M99424 -14111
L99424 -14170
" />
<path d="M101098 -14111
L101098 -14150
" />
<path d="M101236 -14111
L101236 -14150
" />
<path d="M99424 -15489
L99424 -15450
" />
<path d="M101098 -15489
L101098 -15450
" />
<path d="M101236 -15489
L101236 -15450
" />
<path d="M101098 -14013
L101098 -14091
" />
<path d="M101098 -15587
L101098 -15509
" />
<path d="M101234 -14014
L101234 -14092
" />
<path d="M99422 -14014
L101234 -14014
" />
<path d="M99422 -14014
L99422 -14092
" />
<path d="M99424 -15587
L99424 -15509
" />
<path d="M99424 -15587
L101236 -15587
" />
<path d="M101236 -15587
L101236 -15509
" />
<path d="M90243 -10006
L90321 -10006
" />
<path d="M90243 -8194
L90243 -10006
" />
<path d="M90243 -8194
L90321 -8194
" />
<path d="M91816 -8192
L91738 -8192
" />
<path d="M91816 -8192
L91816 -10004
" />
<path d="M91816 -10004
L91738 -10004
" />
<path d="M90243 -9868
L90321 -9868
" />
<path d="M91817 -9868
L91739 -9868
" />
<path d="M90341 -10006
L90380 -10006
" />
<path d="M90341 -9868
L90380 -9868
" />
<path d="M90341 -8194
L90380 -8194
" />
<path d="M91719 -10006
L91680 -10006
" />
<path d="M91719 -9868
L91680 -9868
" />
<path d="M91719 -8194
L91660 -8194
" />
<path d="M104024 -711
L104024 -770
" />
<path d="M105698 -711
L105698 -750
" />
<path d="M105836 -711
L105836 -750
" />
<path d="M104024 -2089
L104024 -2050
" />
<path d="M105698 -2089
L105698 -2050
" />
<path d="M105836 -2089
L105836 -2050
" />
<path d="M105698 -613
L105698 -691
" />
<path d="M105698 -2187
L105698 -2109
" />
<path d="M105834 -614
L105834 -692
" />
<path d="M104022 -614
L105834 -614
" />
<path d="M104022 -614
L104022 -692
" />
<path d="M104024 -2187
L104024 -2109
" />
<path d="M104024 -2187
L105836 -2187
" />
<path d="M105836 -2187
L105836 -2109
" />
<path d="M95336 -2287
L95336 -2209
" />
<path d="M93524 -2287
L95336 -2287
" />
<path d="M93524 -2287
L93524 -2209
" />
<path d="M93522 -714
L93522 -792
" />
<path d="M93522 -714
L95334 -714
" />
<path d="M95334 -714
L95334 -792
" />
<path d="M95198 -2287
L95198 -2209
" />
<path d="M95198 -713
L95198 -791
" />
<path d="M95336 -2189
L95336 -2150
" />
<path d="M95198 -2189
L95198 -2150
" />
<path d="M93524 -2189
L93524 -2150
" />
<path d="M95336 -811
L95336 -850
" />
<path d="M95198 -811
L95198 -850
" />
<path d="M93524 -811
L93524 -870
" />
<path d="M90719 -2394
L90660 -2394
" />
<path d="M90719 -4068
L90680 -4068
" />
<path d="M90719 -4206
L90680 -4206
" />
<path d="M89341 -2394
L89380 -2394
" />
<path d="M89341 -4068
L89380 -4068
" />
<path d="M89341 -4206
L89380 -4206
" />
<path d="M90817 -4068
L90739 -4068
" />
<path d="M89243 -4068
L89321 -4068
" />
<path d="M90816 -4204
L90738 -4204
" />
<path d="M90816 -2392
L90816 -4204
" />
<path d="M90816 -2392
L90738 -2392
" />
<path d="M89243 -2394
L89321 -2394
" />
<path d="M89243 -2394
L89243 -4206
" />
<path d="M89243 -4206
L89321 -4206
" />
<path d="M109930 -7750
L109930 -6850
" />
<path d="M111330 -7750
L111330 -6850
" />
<path d="M108230 -6700
L108230 -5800
" />
<path d="M106830 -6700
L106830 -5800
" />
<path d="M99230 -6650
L99230 -5750
" />
<path d="M97830 -6650
L97830 -5750
" />
<path d="M108630 -11250
L108630 -10350
" />
<path d="M110030 -11250
L110030 -10350
" />
<path d="M96580 -10400
L95680 -10400
" />
<path d="M96580 -9000
L95680 -9000
" />
<path d="M101380 -9000
L100480 -9000
" />
<path d="M101380 -10400
L100480 -10400
" />
<path d="M92580 -12200
L91680 -12200
" />
<path d="M92580 -10800
L91680 -10800
" />
<path d="M103630 -6650
L103630 -5750
" />
<path d="M102230 -6650
L102230 -5750
" />
<path d="M93330 -6750
L93330 -5850
" />
<path d="M94730 -6750
L94730 -5850
" />
<path d="M91430 -5950
L91430 -5050
" />
<path d="M92830 -5950
L92830 -5050
" />
<path d="M109330 -8200
L109280 -8200
" />
<path d="M108730 -8200
L109330 -8200
" />
<path d="M108730 -6600
L108730 -8200
" />
<path d="M109330 -6600
L108730 -6600
" />
<path d="M109330 -8200
L109330 -6600
" />
<path d="M106230 -8100
L106230 -6500
" />
<path d="M106230 -6500
L105630 -6500
" />
<path d="M105630 -6500
L105630 -8100
" />
<path d="M105630 -8100
L106230 -8100
" />
<path d="M106230 -8100
L106180 -8100
" />
<path d="M101530 -8100
L101480 -8100
" />
<path d="M100930 -8100
L101530 -8100
" />
<path d="M100930 -6500
L100930 -8100
" />
<path d="M101530 -6500
L100930 -6500
" />
<path d="M101530 -8100
L101530 -6500
" />
<path d="M98130 -8400
L98130 -10000
" />
<path d="M98130 -10000
L98730 -10000
" />
<path d="M98730 -10000
L98730 -8400
" />
<path d="M98730 -8400
L98130 -8400
" />
<path d="M98130 -8400
L98180 -8400
" />
<path d="M102930 -8400
L102930 -10000
" />
<path d="M102930 -10000
L103530 -10000
" />
<path d="M103530 -10000
L103530 -8400
" />
<path d="M103530 -8400
L102930 -8400
" />
<path d="M102930 -8400
L102980 -8400
" />
<path d="M92830 -9000
L92880 -9000
" />
<path d="M93430 -9000
L92830 -9000
" />
<path d="M93430 -10600
L93430 -9000
" />
<path d="M92830 -10600
L93430 -10600
" />
<path d="M92830 -9000
L92830 -10600
" />
<path d="M104830 -8100
L104830 -6500
" />
<path d="M104830 -6500
L104230 -6500
" />
<path d="M104230 -6500
L104230 -8100
" />
<path d="M104230 -8100
L104830 -8100
" />
<path d="M104830 -8100
L104780 -8100
" />
<path d="M96030 -8200
L95980 -8200
" />
<path d="M95430 -8200
L96030 -8200
" />
<path d="M95430 -6600
L95430 -8200
" />
<path d="M96030 -6600
L95430 -6600
" />
<path d="M96030 -8200
L96030 -6600
" />
<path d="M92930 -8800
L92930 -7200
" />
<path d="M92930 -7200
L92330 -7200
" />
<path d="M92330 -7200
L92330 -8800
" />
<path d="M92330 -8800
L92930 -8800
" />
<path d="M92930 -8800
L92880 -8800
" />
<circle cx="116130" cy="-10150" r="50" /> 
<path d="M116130 -10600
L116130 -10200
" />
<path d="M116130 -10200
L115530 -10200
" />
<path d="M115530 -10200
L115530 -10600
" />
<path d="M115530 -11000
L115530 -11400
" />
<path d="M115530 -11400
L116130 -11400
" />
<path d="M116130 -11400
L116130 -11000
" />
<path d="M113280 -3850
L113280 -3450
" />
<path d="M112680 -3850
L113280 -3850
" />
<path d="M112680 -3450
L112680 -3850
" />
<path d="M112680 -2650
L112680 -3050
" />
<path d="M113280 -2650
L112680 -2650
" />
<path d="M113280 -3050
L113280 -2650
" />
<circle cx="113280" cy="-2600" r="50" /> 
<path d="M102630 -1200
L102630 -1600
" />
<path d="M103230 -1200
L102630 -1200
" />
<path d="M103230 -1600
L103230 -1200
" />
<path d="M103230 -2400
L103230 -2000
" />
<path d="M102630 -2400
L103230 -2400
" />
<path d="M102630 -2000
L102630 -2400
" />
<circle cx="102630" cy="-2450" r="50" /> 
<circle cx="112230" cy="-7550" r="50" /> 
<path d="M112230 -8000
L112230 -7600
" />
<path d="M112230 -7600
L111630 -7600
" />
<path d="M111630 -7600
L111630 -8000
" />
<path d="M111630 -8400
L111630 -8800
" />
<path d="M111630 -8800
L112230 -8800
" />
<path d="M112230 -8800
L112230 -8400
" />
<circle cx="111630" cy="-7150" r="50" /> 
<path d="M111630 -6700
L111630 -7100
" />
<path d="M111630 -7100
L112230 -7100
" />
<path d="M112230 -7100
L112230 -6700
" />
<path d="M112230 -6300
L112230 -5900
" />
<path d="M112230 -5900
L111630 -5900
" />
<path d="M111630 -5900
L111630 -6300
" />
<path d="M112030 -5000
L111630 -5000
" />
<path d="M112030 -5600
L112030 -5000
" />
<path d="M111630 -5600
L112030 -5600
" />
<path d="M110830 -5600
L111230 -5600
" />
<path d="M110830 -5000
L110830 -5600
" />
<path d="M111230 -5000
L110830 -5000
" />
<circle cx="110780" cy="-5000" r="50" /> 
<circle cx="110580" cy="-5600" r="50" /> 
<path d="M110130 -5600
L110530 -5600
" />
<path d="M110530 -5600
L110530 -5000
" />
<path d="M110530 -5000
L110130 -5000
" />
<path d="M109730 -5000
L109330 -5000
" />
<path d="M109330 -5000
L109330 -5600
" />
<path d="M109330 -5600
L109730 -5600
" />
<path d="M101930 -5000
L101530 -5000
" />
<path d="M101930 -5600
L101930 -5000
" />
<path d="M101530 -5600
L101930 -5600
" />
<path d="M100730 -5600
L101130 -5600
" />
<path d="M100730 -5000
L100730 -5600
" />
<path d="M101130 -5000
L100730 -5000
" />
<circle cx="100680" cy="-5000" r="50" /> 
<path d="M99330 -5600
L99730 -5600
" />
<path d="M99330 -5000
L99330 -5600
" />
<path d="M99730 -5000
L99330 -5000
" />
<path d="M100530 -5000
L100130 -5000
" />
<path d="M100530 -5600
L100530 -5000
" />
<path d="M100130 -5600
L100530 -5600
" />
<circle cx="100580" cy="-5600" r="50" /> 
<path d="M98130 -14400
L98130 -14800
" />
<path d="M98730 -14400
L98130 -14400
" />
<path d="M98730 -14800
L98730 -14400
" />
<path d="M98730 -15600
L98730 -15200
" />
<path d="M98130 -15600
L98730 -15600
" />
<path d="M98130 -15200
L98130 -15600
" />
<circle cx="98130" cy="-15650" r="50" /> 
<circle cx="103330" cy="-15650" r="50" /> 
<path d="M103330 -15200
L103330 -15600
" />
<path d="M103330 -15600
L103930 -15600
" />
<path d="M103930 -15600
L103930 -15200
" />
<path d="M103930 -14800
L103930 -14400
" />
<path d="M103930 -14400
L103330 -14400
" />
<path d="M103330 -14400
L103330 -14800
" />
<circle cx="86330" cy="-10950" r="50" /> 
<path d="M86330 -11400
L86330 -11000
" />
<path d="M86330 -11000
L85730 -11000
" />
<path d="M85730 -11000
L85730 -11400
" />
<path d="M85730 -11800
L85730 -12200
" />
<path d="M85730 -12200
L86330 -12200
" />
<path d="M86330 -12200
L86330 -11800
" />
<path d="M107930 -1200
L107930 -1600
" />
<path d="M108530 -1200
L107930 -1200
" />
<path d="M108530 -1600
L108530 -1200
" />
<path d="M108530 -2400
L108530 -2000
" />
<path d="M107930 -2400
L108530 -2400
" />
<path d="M107930 -2000
L107930 -2400
" />
<circle cx="107930" cy="-2450" r="50" /> 
<path d="M98430 -10700
L98030 -10700
" />
<path d="M98430 -11300
L98430 -10700
" />
<path d="M98030 -11300
L98430 -11300
" />
<path d="M97230 -11300
L97630 -11300
" />
<path d="M97230 -10700
L97230 -11300
" />
<path d="M97630 -10700
L97230 -10700
" />
<circle cx="97180" cy="-10700" r="50" /> 
<circle cx="96980" cy="-11300" r="50" /> 
<path d="M96530 -11300
L96930 -11300
" />
<path d="M96930 -11300
L96930 -10700
" />
<path d="M96930 -10700
L96530 -10700
" />
<path d="M96130 -10700
L95730 -10700
" />
<path d="M95730 -10700
L95730 -11300
" />
<path d="M95730 -11300
L96130 -11300
" />
<circle cx="102080" cy="-10700" r="50" /> 
<path d="M102530 -10700
L102130 -10700
" />
<path d="M102130 -10700
L102130 -11300
" />
<path d="M102130 -11300
L102530 -11300
" />
<path d="M102930 -11300
L103330 -11300
" />
<path d="M103330 -11300
L103330 -10700
" />
<path d="M103330 -10700
L102930 -10700
" />
<circle cx="101880" cy="-11300" r="50" /> 
<path d="M101430 -11300
L101830 -11300
" />
<path d="M101830 -11300
L101830 -10700
" />
<path d="M101830 -10700
L101430 -10700
" />
<path d="M101030 -10700
L100630 -10700
" />
<path d="M100630 -10700
L100630 -11300
" />
<path d="M100630 -11300
L101030 -11300
" />
<path d="M89830 -12600
L89830 -12200
" />
<path d="M89230 -12600
L89830 -12600
" />
<path d="M89230 -12200
L89230 -12600
" />
<path d="M89230 -11400
L89230 -11800
" />
<path d="M89830 -11400
L89230 -11400
" />
<path d="M89830 -11800
L89830 -11400
" />
<circle cx="89830" cy="-11350" r="50" /> 
<path d="M89230 -9800
L89230 -10200
" />
<path d="M89830 -9800
L89230 -9800
" />
<path d="M89830 -10200
L89830 -9800
" />
<path d="M89830 -11000
L89830 -10600
" />
<path d="M89230 -11000
L89830 -11000
" />
<path d="M89230 -10600
L89230 -11000
" />
<circle cx="89230" cy="-11050" r="50" /> 
<path d="M106530 -5000
L106130 -5000
" />
<path d="M106530 -5600
L106530 -5000
" />
<path d="M106130 -5600
L106530 -5600
" />
<path d="M105330 -5600
L105730 -5600
" />
<path d="M105330 -5000
L105330 -5600
" />
<path d="M105730 -5000
L105330 -5000
" />
<circle cx="105280" cy="-5000" r="50" /> 
<path d="M103830 -5600
L104230 -5600
" />
<path d="M103830 -5000
L103830 -5600
" />
<path d="M104230 -5000
L103830 -5000
" />
<path d="M105030 -5000
L104630 -5000
" />
<path d="M105030 -5600
L105030 -5000
" />
<path d="M104630 -5600
L105030 -5600
" />
<circle cx="105080" cy="-5600" r="50" /> 
<circle cx="97430" cy="-2450" r="50" /> 
<path d="M97430 -2000
L97430 -2400
" />
<path d="M97430 -2400
L98030 -2400
" />
<path d="M98030 -2400
L98030 -2000
" />
<path d="M98030 -1600
L98030 -1200
" />
<path d="M98030 -1200
L97430 -1200
" />
<path d="M97430 -1200
L97430 -1600
" />
<circle cx="86330" cy="-6650" r="50" /> 
<path d="M86330 -7100
L86330 -6700
" />
<path d="M86330 -6700
L85730 -6700
" />
<path d="M85730 -6700
L85730 -7100
" />
<path d="M85730 -7500
L85730 -7900
" />
<path d="M85730 -7900
L86330 -7900
" />
<path d="M86330 -7900
L86330 -7500
" />
<path d="M97530 -5000
L97130 -5000
" />
<path d="M97530 -5600
L97530 -5000
" />
<path d="M97130 -5600
L97530 -5600
" />
<path d="M96330 -5600
L96730 -5600
" />
<path d="M96330 -5000
L96330 -5600
" />
<path d="M96730 -5000
L96330 -5000
" />
<circle cx="96280" cy="-5000" r="50" /> 
<circle cx="96180" cy="-5600" r="50" /> 
<path d="M95730 -5600
L96130 -5600
" />
<path d="M96130 -5600
L96130 -5000
" />
<path d="M96130 -5000
L95730 -5000
" />
<path d="M95330 -5000
L94930 -5000
" />
<path d="M94930 -5000
L94930 -5600
" />
<path d="M94930 -5600
L95330 -5600
" />
<circle cx="89830" cy="-6650" r="50" /> 
<path d="M89830 -7100
L89830 -6700
" />
<path d="M89830 -6700
L89230 -6700
" />
<path d="M89230 -6700
L89230 -7100
" />
<path d="M89230 -7500
L89230 -7900
" />
<path d="M89230 -7900
L89830 -7900
" />
<path d="M89830 -7900
L89830 -7500
" />
<circle cx="89230" cy="-6450" r="50" /> 
<path d="M89230 -6000
L89230 -6400
" />
<path d="M89230 -6400
L89830 -6400
" />
<path d="M89830 -6400
L89830 -6000
" />
<path d="M89830 -5600
L89830 -5200
" />
<path d="M89830 -5200
L89230 -5200
" />
<path d="M89230 -5200
L89230 -5600
" />
</g>
<g style="fill:#000000; fill-opacity:0.0; 
stroke:#000000; stroke-width:120; stroke-opacity:1; 
stroke-linecap:round; stroke-linejoin:round;">
<path d="M115558 -9242
L116158 -9242
L116158 -9100
L116130 -9014
L116072 -8957
L116015 -8928
L115901 -8900
L115815 -8900
L115701 -8928
L115644 -8957
L115587 -9014
L115558 -9100
L115558 -9242
" />
<path d="M115558 -8328
L115558 -8671
" />
<path d="M115558 -8500
L116158 -8500
L116072 -8557
L116015 -8614
L115987 -8671
" />
</g>
<g style="fill:#000000; fill-opacity:0.0; 
stroke:#000000; stroke-width:39; stroke-opacity:1; 
stroke-linecap:round; stroke-linejoin:round;">
<path d="M116350 -9560
L116547 -9560
" />
<path d="M116350 -9448
L116463 -9532
" />
<path d="M116547 -9448
L116435 -9560
" />
<path d="M116407 -8137
L116407 -8044
" />
<path d="M116350 -8156
L116547 -8091
L116350 -8025
" />
</g>
<g style="fill:#000000; fill-opacity:0.0; 
stroke:#000000; stroke-width:120; stroke-opacity:1; 
stroke-linecap:round; stroke-linejoin:round;">
<path d="M112008 -1842
L112608 -1842
L112608 -1700
L112580 -1614
L112522 -1557
L112465 -1528
L112351 -1500
L112265 -1500
L112151 -1528
L112094 -1557
L112037 -1614
L112008 -1700
L112008 -1842
" />
<path d="M112551 -1271
L112580 -1242
L112608 -1185
L112608 -1042
L112580 -985
L112551 -957
L112494 -928
L112437 -928
L112351 -957
L112008 -1300
L112008 -928
" />
</g>
<g style="fill:#000000; fill-opacity:0.0; 
stroke:#000000; stroke-width:39; stroke-opacity:1; 
stroke-linecap:round; stroke-linejoin:round;">
<path d="M112800 -2160
L112997 -2160
" />
<path d="M112800 -2048
L112913 -2132
" />
<path d="M112997 -2048
L112885 -2160
" />
<path d="M112857 -737
L112857 -644
" />
<path d="M112800 -756
L112997 -691
L112800 -625
" />
</g>
<g style="fill:#000000; fill-opacity:0.0; 
stroke:#000000; stroke-width:120; stroke-opacity:1; 
stroke-linecap:round; stroke-linejoin:round;">
<path d="M101558 -1842
L102158 -1842
L102158 -1700
L102130 -1614
L102072 -1557
L102015 -1528
L101901 -1500
L101815 -1500
L101701 -1528
L101644 -1557
L101587 -1614
L101558 -1700
L101558 -1842
" />
<path d="M102158 -1300
L102158 -928
L101930 -1128
L101930 -1042
L101901 -985
L101872 -957
L101815 -928
L101672 -928
L101615 -957
L101587 -985
L101558 -1042
L101558 -1214
L101587 -1271
L101615 -1300
" />
</g>
<g style="fill:#000000; fill-opacity:0.0; 
stroke:#000000; stroke-width:39; stroke-opacity:1; 
stroke-linecap:round; stroke-linejoin:round;">
<path d="M102350 -2160
L102547 -2160
" />
<path d="M102350 -2048
L102463 -2132
" />
<path d="M102547 -2048
L102435 -2160
" />
<path d="M102407 -737
L102407 -644
" />
<path d="M102350 -756
L102547 -691
L102350 -625
" />
</g>
<g style="fill:#000000; fill-opacity:0.0; 
stroke:#000000; stroke-width:120; stroke-opacity:1; 
stroke-linecap:round; stroke-linejoin:round;">
<path d="M105987 -9428
L105987 -10028
L106130 -10028
L106215 -10000
L106272 -9942
L106301 -9885
L106330 -9771
L106330 -9685
L106301 -9571
L106272 -9514
L106215 -9457
L106130 -9428
L105987 -9428
" />
<path d="M106844 -9828
L106844 -9428
" />
<path d="M106701 -10057
L106558 -9628
L106930 -9628
" />
</g>
<g style="fill:#000000; fill-opacity:0.0; 
stroke:#000000; stroke-width:39; stroke-opacity:1; 
stroke-linecap:round; stroke-linejoin:round;">
<path d="M107559 -8942
L107559 -9139
" />
<path d="M107671 -8942
L107587 -9055
" />
<path d="M107671 -9139
L107559 -9027
" />
<path d="M105123 -8999
L105216 -8999
" />
<path d="M105104 -8942
L105170 -9139
L105235 -8942
" />
</g>
<g style="fill:#000000; fill-opacity:0.0; 
stroke:#000000; stroke-width:120; stroke-opacity:1; 
stroke-linecap:round; stroke-linejoin:round;">
<path d="M115558 -6442
L116158 -6442
L116158 -6300
L116130 -6214
L116072 -6157
L116015 -6128
L115901 -6100
L115815 -6100
L115701 -6128
L115644 -6157
L115587 -6214
L115558 -6300
L115558 -6442
" />
<path d="M116158 -5557
L116158 -5842
L115872 -5871
L115901 -5842
L115930 -5785
L115930 -5642
L115901 -5585
L115872 -5557
L115815 -5528
L115672 -5528
L115615 -5557
L115587 -5585
L115558 -5642
L115558 -5785
L115587 -5842
L115615 -5871
" />
</g>
<g style="fill:#000000; fill-opacity:0.0; 
stroke:#000000; stroke-width:39; stroke-opacity:1; 
stroke-linecap:round; stroke-linejoin:round;">
<path d="M116565 -4786
L116565 -4693
" />
<path d="M116508 -4805
L116705 -4740
L116508 -4674
" />
<path d="M116508 -7232
L116705 -7232
" />
<path d="M116508 -7120
L116621 -7204
" />
<path d="M116705 -7120
L116593 -7232
" />
</g>
<g style="fill:#000000; fill-opacity:0.0; 
stroke:#000000; stroke-width:120; stroke-opacity:1; 
stroke-linecap:round; stroke-linejoin:round;">
<path d="M109787 -1128
L109787 -1728
L109930 -1728
L110015 -1700
L110072 -1642
L110101 -1585
L110130 -1471
L110130 -1385
L110101 -1271
L110072 -1214
L110015 -1157
L109930 -1128
L109787 -1128
" />
<path d="M110644 -1728
L110530 -1728
L110472 -1700
L110444 -1671
L110387 -1585
L110358 -1471
L110358 -1242
L110387 -1185
L110415 -1157
L110472 -1128
L110587 -1128
L110644 -1157
L110672 -1185
L110701 -1242
L110701 -1385
L110672 -1442
L110644 -1471
L110587 -1500
L110472 -1500
L110415 -1471
L110387 -1442
L110358 -1385
" />
</g>
<g style="fill:#000000; fill-opacity:0.0; 
stroke:#000000; stroke-width:39; stroke-opacity:1; 
stroke-linecap:round; stroke-linejoin:round;">
<path d="M111359 -542
L111359 -739
" />
<path d="M111471 -542
L111387 -655
" />
<path d="M111471 -739
L111359 -627
" />
<path d="M108923 -599
L109016 -599
" />
<path d="M108904 -542
L108970 -739
L109035 -542
" />
</g>
<g style="fill:#000000; fill-opacity:0.0; 
stroke:#000000; stroke-width:120; stroke-opacity:1; 
stroke-linecap:round; stroke-linejoin:round;">
<path d="M99287 -1228
L99287 -1828
L99430 -1828
L99515 -1800
L99572 -1742
L99601 -1685
L99630 -1571
L99630 -1485
L99601 -1371
L99572 -1314
L99515 -1257
L99430 -1228
L99287 -1228
" />
<path d="M99830 -1828
L100230 -1828
L99972 -1228
" />
</g>
<g style="fill:#000000; fill-opacity:0.0; 
stroke:#000000; stroke-width:39; stroke-opacity:1; 
stroke-linecap:round; stroke-linejoin:round;">
<path d="M98423 -699
L98516 -699
" />
<path d="M98404 -642
L98470 -839
L98535 -642
" />
<path d="M100859 -642
L100859 -839
" />
<path d="M100971 -642
L100887 -755
" />
<path d="M100971 -839
L100859 -727
" />
</g>
<g style="fill:#000000; fill-opacity:0.0; 
stroke:#000000; stroke-width:120; stroke-opacity:1; 
stroke-linecap:round; stroke-linejoin:round;">
<path d="M96958 -15242
L97558 -15242
L97558 -15100
L97530 -15014
L97472 -14957
L97415 -14928
L97301 -14900
L97215 -14900
L97101 -14928
L97044 -14957
L96987 -15014
L96958 -15100
L96958 -15242
" />
<path d="M97301 -14557
L97330 -14614
L97358 -14642
L97415 -14671
L97444 -14671
L97501 -14642
L97530 -14614
L97558 -14557
L97558 -14442
L97530 -14385
L97501 -14357
L97444 -14328
L97415 -14328
L97358 -14357
L97330 -14385
L97301 -14442
L97301 -14557
L97272 -14614
L97244 -14642
L97187 -14671
L97072 -14671
L97015 -14642
L96987 -14614
L96958 -14557
L96958 -14442
L96987 -14385
L97015 -14357
L97072 -14328
L97187 -14328
L97244 -14357
L97272 -14385
L97301 -14442
" />
</g>
<g style="fill:#000000; fill-opacity:0.0; 
stroke:#000000; stroke-width:39; stroke-opacity:1; 
stroke-linecap:round; stroke-linejoin:round;">
<path d="M97807 -14137
L97807 -14044
" />
<path d="M97750 -14156
L97947 -14091
L97750 -14025
" />
<path d="M97750 -15560
L97947 -15560
" />
<path d="M97750 -15448
L97863 -15532
" />
<path d="M97947 -15448
L97835 -15560
" />
</g>
<g style="fill:#000000; fill-opacity:0.0; 
stroke:#000000; stroke-width:120; stroke-opacity:1; 
stroke-linecap:round; stroke-linejoin:round;">
<path d="M102158 -15242
L102758 -15242
L102758 -15100
L102730 -15014
L102672 -14957
L102615 -14928
L102501 -14900
L102415 -14900
L102301 -14928
L102244 -14957
L102187 -15014
L102158 -15100
L102158 -15242
" />
<path d="M102158 -14614
L102158 -14500
L102187 -14442
L102215 -14414
L102301 -14357
L102415 -14328
L102644 -14328
L102701 -14357
L102730 -14385
L102758 -14442
L102758 -14557
L102730 -14614
L102701 -14642
L102644 -14671
L102501 -14671
L102444 -14642
L102415 -14614
L102387 -14557
L102387 -14442
L102415 -14385
L102444 -14357
L102501 -14328
" />
</g>
<g style="fill:#000000; fill-opacity:0.0; 
stroke:#000000; stroke-width:39; stroke-opacity:1; 
stroke-linecap:round; stroke-linejoin:round;">
<path d="M102950 -15560
L103147 -15560
" />
<path d="M102950 -15448
L103063 -15532
" />
<path d="M103147 -15448
L103035 -15560
" />
<path d="M103007 -14137
L103007 -14044
" />
<path d="M102950 -14156
L103147 -14091
L102950 -14025
" />
</g>
<g style="fill:#000000; fill-opacity:0.0; 
stroke:#000000; stroke-width:120; stroke-opacity:1; 
stroke-linecap:round; stroke-linejoin:round;">
<path d="M85758 -10528
L86358 -10528
L86358 -10385
L86330 -10300
L86272 -10242
L86215 -10214
L86101 -10185
L86015 -10185
L85901 -10214
L85844 -10242
L85787 -10300
L85758 -10385
L85758 -10528
" />
<path d="M85758 -9614
L85758 -9957
" />
<path d="M85758 -9785
L86358 -9785
L86272 -9842
L86215 -9900
L86187 -9957
" />
<path d="M86358 -9242
L86358 -9185
L86330 -9128
L86301 -9100
L86244 -9071
L86130 -9042
L85987 -9042
L85872 -9071
L85815 -9100
L85787 -9128
L85758 -9185
L85758 -9242
L85787 -9300
L85815 -9328
L85872 -9357
L85987 -9385
L86130 -9385
L86244 -9357
L86301 -9328
L86330 -9300
L86358 -9242
" />
</g>
<g style="fill:#000000; fill-opacity:0.0; 
stroke:#000000; stroke-width:39; stroke-opacity:1; 
stroke-linecap:round; stroke-linejoin:round;">
<path d="M86607 -9137
L86607 -9044
" />
<path d="M86550 -9156
L86747 -9091
L86550 -9025
" />
<path d="M86550 -10560
L86747 -10560
" />
<path d="M86550 -10448
L86663 -10532
" />
<path d="M86747 -10448
L86635 -10560
" />
</g>
<g style="fill:#000000; fill-opacity:0.0; 
stroke:#000000; stroke-width:120; stroke-opacity:1; 
stroke-linecap:round; stroke-linejoin:round;">
<path d="M106758 -2128
L107358 -2128
L107358 -1985
L107330 -1900
L107272 -1842
L107215 -1814
L107101 -1785
L107015 -1785
L106901 -1814
L106844 -1842
L106787 -1900
L106758 -1985
L106758 -2128
" />
<path d="M106758 -1214
L106758 -1557
" />
<path d="M106758 -1385
L107358 -1385
L107272 -1442
L107215 -1500
L107187 -1557
" />
<path d="M106758 -642
L106758 -985
" />
<path d="M106758 -814
L107358 -814
L107272 -871
L107215 -928
L107187 -985
" />
</g>
<g style="fill:#000000; fill-opacity:0.0; 
stroke:#000000; stroke-width:39; stroke-opacity:1; 
stroke-linecap:round; stroke-linejoin:round;">
<path d="M107550 -2160
L107747 -2160
" />
<path d="M107550 -2048
L107663 -2132
" />
<path d="M107747 -2048
L107635 -2160
" />
<path d="M107607 -737
L107607 -644
" />
<path d="M107550 -756
L107747 -691
L107550 -625
" />
</g>
<g style="fill:#000000; fill-opacity:0.0; 
stroke:#000000; stroke-width:120; stroke-opacity:1; 
stroke-linecap:round; stroke-linejoin:round;">
<path d="M94301 -14528
L94301 -15128
L94444 -15128
L94530 -15100
L94587 -15042
L94615 -14985
L94644 -14871
L94644 -14785
L94615 -14671
L94587 -14614
L94530 -14557
L94444 -14528
L94301 -14528
" />
<path d="M95215 -14528
L94872 -14528
" />
<path d="M95044 -14528
L95044 -15128
L94987 -15042
L94930 -14985
L94872 -14957
" />
<path d="M95444 -15071
L95472 -15100
L95530 -15128
L95672 -15128
L95730 -15100
L95758 -15071
L95787 -15014
L95787 -14957
L95758 -14871
L95415 -14528
L95787 -14528
" />
</g>
<g style="fill:#000000; fill-opacity:0.0; 
stroke:#000000; stroke-width:39; stroke-opacity:1; 
stroke-linecap:round; stroke-linejoin:round;">
<path d="M93723 -13999
L93816 -13999
" />
<path d="M93704 -13942
L93770 -14139
L93835 -13942
" />
<path d="M96159 -13942
L96159 -14139
" />
<path d="M96271 -13942
L96187 -14055
" />
<path d="M96271 -14139
L96159 -14027
" />
</g>
<g style="fill:#000000; fill-opacity:0.0; 
stroke:#000000; stroke-width:120; stroke-opacity:1; 
stroke-linecap:round; stroke-linejoin:round;">
<path d="M99601 -14428
L99601 -15028
L99744 -15028
L99830 -15000
L99887 -14942
L99915 -14885
L99944 -14771
L99944 -14685
L99915 -14571
L99887 -14514
L99830 -14457
L99744 -14428
L99601 -14428
" />
<path d="M100515 -14428
L100172 -14428
" />
<path d="M100344 -14428
L100344 -15028
L100287 -14942
L100230 -14885
L100172 -14857
" />
<path d="M100715 -15028
L101087 -15028
L100887 -14800
L100972 -14800
L101030 -14771
L101058 -14742
L101087 -14685
L101087 -14542
L101058 -14485
L101030 -14457
L100972 -14428
L100801 -14428
L100744 -14457
L100715 -14485
" />
</g>
<g style="fill:#000000; fill-opacity:0.0; 
stroke:#000000; stroke-width:39; stroke-opacity:1; 
stroke-linecap:round; stroke-linejoin:round;">
<path d="M99023 -13999
L99116 -13999
" />
<path d="M99004 -13942
L99070 -14139
L99135 -13942
" />
<path d="M101459 -13942
L101459 -14139
" />
<path d="M101571 -13942
L101487 -14055
" />
<path d="M101571 -14139
L101459 -14027
" />
</g>
<g style="fill:#000000; fill-opacity:0.0; 
stroke:#000000; stroke-width:120; stroke-opacity:1; 
stroke-linecap:round; stroke-linejoin:round;">
<path d="M90758 -9828
L91358 -9828
L91358 -9685
L91330 -9600
L91272 -9542
L91215 -9514
L91101 -9485
L91015 -9485
L90901 -9514
L90844 -9542
L90787 -9600
L90758 -9685
L90758 -9828
" />
<path d="M90758 -8914
L90758 -9257
" />
<path d="M90758 -9085
L91358 -9085
L91272 -9142
L91215 -9200
L91187 -9257
" />
<path d="M91158 -8400
L90758 -8400
" />
<path d="M91387 -8542
L90958 -8685
L90958 -8314
" />
</g>
<g style="fill:#000000; fill-opacity:0.0; 
stroke:#000000; stroke-width:39; stroke-opacity:1; 
stroke-linecap:round; stroke-linejoin:round;">
<path d="M91708 -10332
L91905 -10332
" />
<path d="M91708 -10220
L91821 -10304
" />
<path d="M91905 -10220
L91793 -10332
" />
<path d="M91765 -7886
L91765 -7793
" />
<path d="M91708 -7905
L91905 -7840
L91708 -7774
" />
</g>
<g style="fill:#000000; fill-opacity:0.0; 
stroke:#000000; stroke-width:120; stroke-opacity:1; 
stroke-linecap:round; stroke-linejoin:round;">
<path d="M104201 -1128
L104201 -1728
L104344 -1728
L104430 -1700
L104487 -1642
L104515 -1585
L104544 -1471
L104544 -1385
L104515 -1271
L104487 -1214
L104430 -1157
L104344 -1128
L104201 -1128
" />
<path d="M105115 -1128
L104772 -1128
" />
<path d="M104944 -1128
L104944 -1728
L104887 -1642
L104830 -1585
L104772 -1557
" />
<path d="M105658 -1728
L105372 -1728
L105344 -1442
L105372 -1471
L105430 -1500
L105572 -1500
L105630 -1471
L105658 -1442
L105687 -1385
L105687 -1242
L105658 -1185
L105630 -1157
L105572 -1128
L105430 -1128
L105372 -1157
L105344 -1185
" />
</g>
<g style="fill:#000000; fill-opacity:0.0; 
stroke:#000000; stroke-width:39; stroke-opacity:1; 
stroke-linecap:round; stroke-linejoin:round;">
<path d="M103623 -599
L103716 -599
" />
<path d="M103604 -542
L103670 -739
L103735 -542
" />
<path d="M106059 -542
L106059 -739
" />
<path d="M106171 -542
L106087 -655
" />
<path d="M106171 -739
L106059 -627
" />
</g>
<g style="fill:#000000; fill-opacity:0.0; 
stroke:#000000; stroke-width:120; stroke-opacity:1; 
stroke-linecap:round; stroke-linejoin:round;">
<path d="M96358 -2128
L96958 -2128
L96958 -1985
L96930 -1900
L96872 -1842
L96815 -1814
L96701 -1785
L96615 -1785
L96501 -1814
L96444 -1842
L96387 -1900
L96358 -1985
L96358 -2128
" />
<path d="M96358 -1214
L96358 -1557
" />
<path d="M96358 -1385
L96958 -1385
L96872 -1442
L96815 -1500
L96787 -1557
" />
<path d="M96958 -700
L96958 -814
L96930 -871
L96901 -900
L96815 -957
L96701 -985
L96472 -985
L96415 -957
L96387 -928
L96358 -871
L96358 -757
L96387 -700
L96415 -671
L96472 -642
L96615 -642
L96672 -671
L96701 -700
L96730 -757
L96730 -871
L96701 -928
L96672 -957
L96615 -985
" />
</g>
<g style="fill:#000000; fill-opacity:0.0; 
stroke:#000000; stroke-width:39; stroke-opacity:1; 
stroke-linecap:round; stroke-linejoin:round;">
<path d="M97207 -737
L97207 -644
" />
<path d="M97150 -756
L97347 -691
L97150 -625
" />
<path d="M97150 -2160
L97347 -2160
" />
<path d="M97150 -2048
L97263 -2132
" />
<path d="M97347 -2048
L97235 -2160
" />
</g>
<g style="fill:#000000; fill-opacity:0.0; 
stroke:#000000; stroke-width:120; stroke-opacity:1; 
stroke-linecap:round; stroke-linejoin:round;">
<path d="M85758 -6228
L86358 -6228
L86358 -6085
L86330 -6000
L86272 -5942
L86215 -5914
L86101 -5885
L86015 -5885
L85901 -5914
L85844 -5942
L85787 -6000
L85758 -6085
L85758 -6228
" />
<path d="M85758 -5314
L85758 -5657
" />
<path d="M85758 -5485
L86358 -5485
L86272 -5542
L86215 -5600
L86187 -5657
" />
<path d="M86101 -4971
L86130 -5028
L86158 -5057
L86215 -5085
L86244 -5085
L86301 -5057
L86330 -5028
L86358 -4971
L86358 -4857
L86330 -4800
L86301 -4771
L86244 -4742
L86215 -4742
L86158 -4771
L86130 -4800
L86101 -4857
L86101 -4971
L86072 -5028
L86044 -5057
L85987 -5085
L85872 -5085
L85815 -5057
L85787 -5028
L85758 -4971
L85758 -4857
L85787 -4800
L85815 -4771
L85872 -4742
L85987 -4742
L86044 -4771
L86072 -4800
L86101 -4857
" />
</g>
<g style="fill:#000000; fill-opacity:0.0; 
stroke:#000000; stroke-width:39; stroke-opacity:1; 
stroke-linecap:round; stroke-linejoin:round;">
<path d="M86607 -4837
L86607 -4744
" />
<path d="M86550 -4856
L86747 -4791
L86550 -4725
" />
<path d="M86550 -6260
L86747 -6260
" />
<path d="M86550 -6148
L86663 -6232
" />
<path d="M86747 -6148
L86635 -6260
" />
</g>
<g style="fill:#000000; fill-opacity:0.0; 
stroke:#000000; stroke-width:120; stroke-opacity:1; 
stroke-linecap:round; stroke-linejoin:round;">
<path d="M93701 -1228
L93701 -1828
L93844 -1828
L93930 -1800
L93987 -1742
L94015 -1685
L94044 -1571
L94044 -1485
L94015 -1371
L93987 -1314
L93930 -1257
L93844 -1228
L93701 -1228
" />
<path d="M94615 -1228
L94272 -1228
" />
<path d="M94444 -1228
L94444 -1828
L94387 -1742
L94330 -1685
L94272 -1657
" />
<path d="M94901 -1228
L95015 -1228
L95072 -1257
L95101 -1285
L95158 -1371
L95187 -1485
L95187 -1714
L95158 -1771
L95130 -1800
L95072 -1828
L94958 -1828
L94901 -1800
L94872 -1771
L94844 -1714
L94844 -1571
L94872 -1514
L94901 -1485
L94958 -1457
L95072 -1457
L95130 -1485
L95158 -1514
L95187 -1571
" />
</g>
<g style="fill:#000000; fill-opacity:0.0; 
stroke:#000000; stroke-width:39; stroke-opacity:1; 
stroke-linecap:round; stroke-linejoin:round;">
<path d="M95559 -642
L95559 -839
" />
<path d="M95671 -642
L95587 -755
" />
<path d="M95671 -839
L95559 -727
" />
<path d="M93123 -699
L93216 -699
" />
<path d="M93104 -642
L93170 -839
L93235 -642
" />
</g>
<g style="fill:#000000; fill-opacity:0.0; 
stroke:#000000; stroke-width:120; stroke-opacity:1; 
stroke-linecap:round; stroke-linejoin:round;">
<path d="M89758 -4128
L90358 -4128
L90358 -3985
L90330 -3900
L90272 -3842
L90215 -3814
L90101 -3785
L90015 -3785
L89901 -3814
L89844 -3842
L89787 -3900
L89758 -3985
L89758 -4128
" />
<path d="M90301 -3557
L90330 -3528
L90358 -3471
L90358 -3328
L90330 -3271
L90301 -3242
L90244 -3214
L90187 -3214
L90101 -3242
L89758 -3585
L89758 -3214
" />
<path d="M89758 -2642
L89758 -2985
" />
<path d="M89758 -2814
L90358 -2814
L90272 -2871
L90215 -2928
L90187 -2985
" />
</g>
<g style="fill:#000000; fill-opacity:0.0; 
stroke:#000000; stroke-width:39; stroke-opacity:1; 
stroke-linecap:round; stroke-linejoin:round;">
<path d="M90765 -2086
L90765 -1993
" />
<path d="M90708 -2105
L90905 -2040
L90708 -1974
" />
<path d="M90708 -4532
L90905 -4532
" />
<path d="M90708 -4420
L90821 -4504
" />
<path d="M90905 -4420
L90793 -4532
" />
</g>
<g style="fill:#000000; fill-opacity:0.0; 
stroke:#000000; stroke-width:120; stroke-opacity:1; 
stroke-linecap:round; stroke-linejoin:round;">
<path d="M110672 -7500
L110672 -7700
" />
<path d="M110358 -7700
L110958 -7700
L110958 -7414
" />
<path d="M110358 -6871
L110358 -7214
" />
<path d="M110358 -7042
L110958 -7042
L110872 -7100
L110815 -7157
L110787 -7214
" />
<path d="M107572 -6400
L107572 -6600
" />
<path d="M107258 -6600
L107858 -6600
L107858 -6314
" />
<path d="M107801 -6114
L107830 -6085
L107858 -6028
L107858 -5885
L107830 -5828
L107801 -5800
L107744 -5771
L107687 -5771
L107601 -5800
L107258 -6142
L107258 -5771
" />
<path d="M98572 -6400
L98572 -6600
" />
<path d="M98258 -6600
L98858 -6600
L98858 -6314
" />
<path d="M98858 -6142
L98858 -5771
L98630 -5971
L98630 -5885
L98601 -5828
L98572 -5800
L98515 -5771
L98372 -5771
L98315 -5800
L98287 -5828
L98258 -5885
L98258 -6057
L98287 -6114
L98315 -6142
" />
<path d="M109372 -11000
L109372 -11200
" />
<path d="M109058 -11200
L109658 -11200
L109658 -10914
" />
<path d="M109458 -10428
L109058 -10428
" />
<path d="M109687 -10571
L109258 -10714
L109258 -10342
" />
<path d="M95930 -9742
L95730 -9742
" />
<path d="M95730 -9428
L95730 -10028
L96015 -10028
" />
<path d="M96530 -10028
L96244 -10028
L96215 -9742
L96244 -9771
L96301 -9800
L96444 -9800
L96501 -9771
L96530 -9742
L96558 -9685
L96558 -9542
L96530 -9485
L96501 -9457
L96444 -9428
L96301 -9428
L96244 -9457
L96215 -9485
" />
<path d="M100730 -9742
L100530 -9742
" />
<path d="M100530 -9428
L100530 -10028
L100815 -10028
" />
<path d="M101301 -10028
L101187 -10028
L101130 -10000
L101101 -9971
L101044 -9885
L101015 -9771
L101015 -9542
L101044 -9485
L101072 -9457
L101130 -9428
L101244 -9428
L101301 -9457
L101330 -9485
L101358 -9542
L101358 -9685
L101330 -9742
L101301 -9771
L101244 -9800
L101130 -9800
L101072 -9771
L101044 -9742
L101015 -9685
" />
<path d="M91930 -11542
L91730 -11542
" />
<path d="M91730 -11228
L91730 -11828
L92015 -11828
" />
<path d="M92187 -11828
L92587 -11828
L92330 -11228
" />
<path d="M102972 -6400
L102972 -6600
" />
<path d="M102658 -6600
L103258 -6600
L103258 -6314
" />
<path d="M103001 -6000
L103030 -6057
L103058 -6085
L103115 -6114
L103144 -6114
L103201 -6085
L103230 -6057
L103258 -6000
L103258 -5885
L103230 -5828
L103201 -5800
L103144 -5771
L103115 -5771
L103058 -5800
L103030 -5828
L103001 -5885
L103001 -6000
L102972 -6057
L102944 -6085
L102887 -6114
L102772 -6114
L102715 -6085
L102687 -6057
L102658 -6000
L102658 -5885
L102687 -5828
L102715 -5800
L102772 -5771
L102887 -5771
L102944 -5800
L102972 -5828
L103001 -5885
" />
<path d="M94072 -6500
L94072 -6700
" />
<path d="M93758 -6700
L94358 -6700
L94358 -6414
" />
<path d="M93758 -6157
L93758 -6042
L93787 -5985
L93815 -5957
L93901 -5900
L94015 -5871
L94244 -5871
L94301 -5900
L94330 -5928
L94358 -5985
L94358 -6100
L94330 -6157
L94301 -6185
L94244 -6214
L94101 -6214
L94044 -6185
L94015 -6157
L93987 -6100
L93987 -5985
L94015 -5928
L94044 -5900
L94101 -5871
" />
<path d="M92172 -5985
L92172 -6185
" />
<path d="M91858 -6185
L92458 -6185
L92458 -5900
" />
<path d="M91858 -5357
L91858 -5700
" />
<path d="M91858 -5528
L92458 -5528
L92372 -5585
L92315 -5642
L92287 -5700
" />
<path d="M91858 -4785
L91858 -5128
" />
<path d="M91858 -4957
L92458 -4957
L92372 -5014
L92315 -5071
L92287 -5128
" />
</g>
<g style="fill:#000000; fill-opacity:0.0; 
stroke:#000000; stroke-width:59.0551; stroke-opacity:1; 
stroke-linecap:round; stroke-linejoin:round;">
<path d="M109058 -7624
L109058 -7756
" />
<path d="M108851 -7756
L109245 -7756
L109245 -7568
" />
<path d="M108851 -7418
L109245 -7418
" />
<path d="M108851 -7025
L108851 -7250
" />
<path d="M108851 -7137
L109245 -7137
L109189 -7175
L109151 -7212
L109133 -7250
" />
<path d="M105958 -7424
L105958 -7556
" />
<path d="M105751 -7556
L106145 -7556
L106145 -7368
" />
<path d="M105751 -7218
L106145 -7218
" />
<path d="M106108 -7050
L106126 -7031
L106145 -6993
L106145 -6900
L106126 -6862
L106108 -6843
L106070 -6825
L106033 -6825
L105976 -6843
L105751 -7068
L105751 -6825
" />
<path d="M101258 -7524
L101258 -7656
" />
<path d="M101051 -7656
L101445 -7656
L101445 -7468
" />
<path d="M101051 -7318
L101445 -7318
" />
<path d="M101445 -7168
L101445 -6925
L101295 -7056
L101295 -7000
L101276 -6962
L101258 -6943
L101220 -6925
L101126 -6925
L101089 -6943
L101070 -6962
L101051 -7000
L101051 -7112
L101070 -7150
L101089 -7168
" />
<path d="M98458 -9524
L98458 -9656
" />
<path d="M98251 -9656
L98645 -9656
L98645 -9468
" />
<path d="M98251 -9318
L98645 -9318
" />
<path d="M98514 -8962
L98251 -8962
" />
<path d="M98664 -9056
L98383 -9150
L98383 -8906
" />
<path d="M103258 -9424
L103258 -9556
" />
<path d="M103051 -9556
L103445 -9556
L103445 -9368
" />
<path d="M103051 -9218
L103445 -9218
" />
<path d="M103445 -8843
L103445 -9031
L103258 -9050
L103276 -9031
L103295 -8993
L103295 -8900
L103276 -8862
L103258 -8843
L103220 -8825
L103126 -8825
L103089 -8843
L103070 -8862
L103051 -8900
L103051 -8993
L103070 -9031
L103089 -9050
" />
<path d="M93158 -10024
L93158 -10156
" />
<path d="M92951 -10156
L93345 -10156
L93345 -9968
" />
<path d="M92951 -9818
L93345 -9818
" />
<path d="M93345 -9462
L93345 -9537
L93326 -9575
L93308 -9593
L93251 -9631
L93176 -9650
L93026 -9650
L92989 -9631
L92970 -9612
L92951 -9575
L92951 -9500
L92970 -9462
L92989 -9443
L93026 -9425
L93120 -9425
L93158 -9443
L93176 -9462
L93195 -9500
L93195 -9575
L93176 -9612
L93158 -9631
L93120 -9650
" />
<path d="M104558 -7524
L104558 -7656
" />
<path d="M104351 -7656
L104745 -7656
L104745 -7468
" />
<path d="M104351 -7318
L104745 -7318
" />
<path d="M104745 -7168
L104745 -6906
L104351 -7075
" />
<path d="M95758 -7624
L95758 -7756
" />
<path d="M95551 -7756
L95945 -7756
L95945 -7568
" />
<path d="M95551 -7418
L95945 -7418
" />
<path d="M95776 -7175
L95795 -7212
L95814 -7231
L95851 -7250
L95870 -7250
L95908 -7231
L95926 -7212
L95945 -7175
L95945 -7100
L95926 -7062
L95908 -7043
L95870 -7025
L95851 -7025
L95814 -7043
L95795 -7062
L95776 -7100
L95776 -7175
L95758 -7212
L95739 -7231
L95701 -7250
L95626 -7250
L95589 -7231
L95570 -7212
L95551 -7175
L95551 -7100
L95570 -7062
L95589 -7043
L95626 -7025
L95701 -7025
L95739 -7043
L95758 -7062
L95776 -7100
" />
<path d="M92658 -8312
L92658 -8443
" />
<path d="M92451 -8443
L92845 -8443
L92845 -8256
" />
<path d="M92451 -8106
L92845 -8106
" />
<path d="M92451 -7712
L92451 -7937
" />
<path d="M92451 -7825
L92845 -7825
L92789 -7862
L92751 -7900
L92733 -7937
" />
<path d="M92845 -7468
L92845 -7431
L92826 -7393
L92808 -7375
L92770 -7356
L92695 -7337
L92601 -7337
L92526 -7356
L92489 -7375
L92470 -7393
L92451 -7431
L92451 -7468
L92470 -7506
L92489 -7525
L92526 -7543
L92601 -7562
L92695 -7562
L92770 -7543
L92808 -7525
L92826 -7506
L92845 -7468
" />
</g>
<g style="fill:#000000; fill-opacity:0.0; 
stroke:#000000; stroke-width:43; stroke-opacity:1; 
stroke-linecap:round; stroke-linejoin:round;">
<path d="M115615 -10832
L115709 -10898
" />
<path d="M115615 -10945
L115812 -10945
L115812 -10870
L115803 -10851
L115794 -10842
L115775 -10832
L115747 -10832
L115728 -10842
L115719 -10851
L115709 -10870
L115709 -10945
" />
<path d="M115615 -10645
L115615 -10757
" />
<path d="M115615 -10701
L115812 -10701
L115784 -10720
L115765 -10739
L115756 -10757
" />
<path d="M116069 -11079
L116078 -11070
L116087 -11051
L116087 -11004
L116078 -10986
L116069 -10976
L116050 -10967
L116031 -10967
L116003 -10976
L115890 -11089
L115890 -10967
" />
<path d="M115890 -10882
L116087 -10882
" />
<path d="M115965 -10864
L115890 -10807
" />
<path d="M116022 -10807
L115947 -10882
" />
<path d="M116069 -10732
L116078 -10723
L116087 -10704
L116087 -10657
L116078 -10638
L116069 -10629
L116050 -10620
L116031 -10620
L116003 -10629
L115890 -10742
L115890 -10620
" />
<path d="M112765 -3282
L112859 -3348
" />
<path d="M112765 -3395
L112962 -3395
L112962 -3320
L112953 -3301
L112944 -3292
L112925 -3282
L112897 -3282
L112878 -3292
L112869 -3301
L112859 -3320
L112859 -3395
" />
<path d="M112944 -3207
L112953 -3198
L112962 -3179
L112962 -3132
L112953 -3113
L112944 -3104
L112925 -3095
L112906 -3095
L112878 -3104
L112765 -3217
L112765 -3095
" />
<path d="M113219 -3529
L113228 -3520
L113237 -3501
L113237 -3454
L113228 -3436
L113219 -3426
L113200 -3417
L113181 -3417
L113153 -3426
L113040 -3539
L113040 -3417
" />
<path d="M113040 -3332
L113237 -3332
" />
<path d="M113115 -3314
L113040 -3257
" />
<path d="M113172 -3257
L113097 -3332
" />
<path d="M113219 -3182
L113228 -3173
L113237 -3154
L113237 -3107
L113228 -3088
L113219 -3079
L113200 -3070
L113181 -3070
L113153 -3079
L113040 -3192
L113040 -3070
" />
<path d="M102965 -1832
L103059 -1898
" />
<path d="M102965 -1945
L103162 -1945
L103162 -1870
L103153 -1851
L103144 -1842
L103125 -1832
L103097 -1832
L103078 -1842
L103069 -1851
L103059 -1870
L103059 -1945
" />
<path d="M103162 -1767
L103162 -1645
L103087 -1710
L103087 -1682
L103078 -1663
L103069 -1654
L103050 -1645
L103003 -1645
L102984 -1654
L102975 -1663
L102965 -1682
L102965 -1739
L102975 -1757
L102984 -1767
" />
<path d="M102869 -1979
L102878 -1970
L102887 -1951
L102887 -1904
L102878 -1886
L102869 -1876
L102850 -1867
L102831 -1867
L102803 -1876
L102690 -1989
L102690 -1867
" />
<path d="M102690 -1782
L102887 -1782
" />
<path d="M102765 -1764
L102690 -1707
" />
<path d="M102822 -1707
L102747 -1782
" />
<path d="M102869 -1632
L102878 -1623
L102887 -1604
L102887 -1557
L102878 -1538
L102869 -1529
L102850 -1520
L102831 -1520
L102803 -1529
L102690 -1642
L102690 -1520
" />
<path d="M111715 -8232
L111809 -8298
" />
<path d="M111715 -8345
L111912 -8345
L111912 -8270
L111903 -8251
L111894 -8242
L111875 -8232
L111847 -8232
L111828 -8242
L111819 -8251
L111809 -8270
L111809 -8345
" />
<path d="M111847 -8063
L111715 -8063
" />
<path d="M111922 -8110
L111781 -8157
L111781 -8035
" />
<path d="M112065 -8325
L112065 -8174
" />
<path d="M111965 -6532
L112059 -6598
" />
<path d="M111965 -6645
L112162 -6645
L112162 -6570
L112153 -6551
L112144 -6542
L112125 -6532
L112097 -6532
L112078 -6542
L112069 -6551
L112059 -6570
L112059 -6645
" />
<path d="M112162 -6354
L112162 -6448
L112069 -6457
L112078 -6448
L112087 -6429
L112087 -6382
L112078 -6363
L112069 -6354
L112050 -6345
L112003 -6345
L111984 -6354
L111975 -6363
L111965 -6382
L111965 -6429
L111975 -6448
L111984 -6457
" />
<path d="M111887 -6459
L111887 -6440
L111878 -6421
L111869 -6412
L111850 -6403
L111812 -6393
L111765 -6393
L111728 -6403
L111709 -6412
L111700 -6421
L111690 -6440
L111690 -6459
L111700 -6478
L111709 -6487
L111728 -6496
L111765 -6506
L111812 -6506
L111850 -6496
L111869 -6487
L111878 -6478
L111887 -6459
" />
<path d="M111397 -5335
L111331 -5429
" />
<path d="M111284 -5335
L111284 -5532
L111359 -5532
L111378 -5523
L111387 -5514
L111397 -5495
L111397 -5467
L111387 -5448
L111378 -5439
L111359 -5429
L111284 -5429
" />
<path d="M111566 -5532
L111528 -5532
L111509 -5523
L111500 -5514
L111481 -5485
L111472 -5448
L111472 -5373
L111481 -5354
L111490 -5345
L111509 -5335
L111547 -5335
L111566 -5345
L111575 -5354
L111584 -5373
L111584 -5420
L111575 -5439
L111566 -5448
L111547 -5457
L111509 -5457
L111490 -5448
L111481 -5439
L111472 -5420
" />
<path d="M111404 -5135
L111555 -5135
" />
<path d="M109897 -5085
L109831 -5179
" />
<path d="M109784 -5085
L109784 -5282
L109859 -5282
L109878 -5273
L109887 -5264
L109897 -5245
L109897 -5217
L109887 -5198
L109878 -5189
L109859 -5179
L109784 -5179
" />
<path d="M109962 -5282
L110094 -5282
L110009 -5085
" />
<path d="M109870 -5557
L109889 -5557
L109908 -5548
L109917 -5539
L109926 -5520
L109936 -5482
L109936 -5435
L109926 -5398
L109917 -5379
L109908 -5370
L109889 -5360
L109870 -5360
L109851 -5370
L109842 -5379
L109833 -5398
L109823 -5435
L109823 -5482
L109833 -5520
L109842 -5539
L109851 -5548
L109870 -5557
" />
<path d="M101297 -5335
L101231 -5429
" />
<path d="M101184 -5335
L101184 -5532
L101259 -5532
L101278 -5523
L101287 -5514
L101297 -5495
L101297 -5467
L101287 -5448
L101278 -5439
L101259 -5429
L101184 -5429
" />
<path d="M101409 -5448
L101390 -5457
L101381 -5467
L101372 -5485
L101372 -5495
L101381 -5514
L101390 -5523
L101409 -5532
L101447 -5532
L101466 -5523
L101475 -5514
L101484 -5495
L101484 -5485
L101475 -5467
L101466 -5457
L101447 -5448
L101409 -5448
L101390 -5439
L101381 -5429
L101372 -5410
L101372 -5373
L101381 -5354
L101390 -5345
L101409 -5335
L101447 -5335
L101466 -5345
L101475 -5354
L101484 -5373
L101484 -5410
L101475 -5429
L101466 -5439
L101447 -5448
" />
<path d="M101304 -5135
L101455 -5135
" />
<path d="M99897 -5085
L99831 -5179
" />
<path d="M99784 -5085
L99784 -5282
L99859 -5282
L99878 -5273
L99887 -5264
L99897 -5245
L99897 -5217
L99887 -5198
L99878 -5189
L99859 -5179
L99784 -5179
" />
<path d="M99990 -5085
L100028 -5085
L100047 -5095
L100056 -5104
L100075 -5132
L100084 -5170
L100084 -5245
L100075 -5264
L100066 -5273
L100047 -5282
L100009 -5282
L99990 -5273
L99981 -5264
L99972 -5245
L99972 -5198
L99981 -5179
L99990 -5170
L100009 -5160
L100047 -5160
L100066 -5170
L100075 -5179
L100084 -5198
" />
<path d="M99870 -5557
L99889 -5557
L99908 -5548
L99917 -5539
L99926 -5520
L99936 -5482
L99936 -5435
L99926 -5398
L99917 -5379
L99908 -5370
L99889 -5360
L99870 -5360
L99851 -5370
L99842 -5379
L99833 -5398
L99823 -5435
L99823 -5482
L99833 -5520
L99842 -5539
L99851 -5548
L99870 -5557
" />
<path d="M98465 -15126
L98559 -15192
" />
<path d="M98465 -15239
L98662 -15239
L98662 -15164
L98653 -15145
L98644 -15136
L98625 -15126
L98597 -15126
L98578 -15136
L98569 -15145
L98559 -15164
L98559 -15239
" />
<path d="M98465 -14939
L98465 -15051
" />
<path d="M98465 -14995
L98662 -14995
L98634 -15014
L98615 -15032
L98606 -15051
" />
<path d="M98662 -14817
L98662 -14798
L98653 -14779
L98644 -14770
L98625 -14760
L98587 -14751
L98540 -14751
L98503 -14760
L98484 -14770
L98475 -14779
L98465 -14798
L98465 -14817
L98475 -14835
L98484 -14845
L98503 -14854
L98540 -14863
L98587 -14863
L98625 -14854
L98644 -14845
L98653 -14835
L98662 -14817
" />
<path d="M98369 -15179
L98378 -15170
L98387 -15151
L98387 -15104
L98378 -15086
L98369 -15076
L98350 -15067
L98331 -15067
L98303 -15076
L98190 -15189
L98190 -15067
" />
<path d="M98190 -14982
L98387 -14982
" />
<path d="M98265 -14964
L98190 -14907
" />
<path d="M98322 -14907
L98247 -14982
" />
<path d="M98369 -14832
L98378 -14823
L98387 -14804
L98387 -14757
L98378 -14738
L98369 -14729
L98350 -14720
L98331 -14720
L98303 -14729
L98190 -14842
L98190 -14720
" />
<path d="M103665 -15126
L103759 -15192
" />
<path d="M103665 -15239
L103862 -15239
L103862 -15164
L103853 -15145
L103844 -15136
L103825 -15126
L103797 -15126
L103778 -15136
L103769 -15145
L103759 -15164
L103759 -15239
" />
<path d="M103665 -14939
L103665 -15051
" />
<path d="M103665 -14995
L103862 -14995
L103834 -15014
L103815 -15032
L103806 -15051
" />
<path d="M103665 -14751
L103665 -14863
" />
<path d="M103665 -14807
L103862 -14807
L103834 -14826
L103815 -14845
L103806 -14863
" />
<path d="M103569 -15179
L103578 -15170
L103587 -15151
L103587 -15104
L103578 -15086
L103569 -15076
L103550 -15067
L103531 -15067
L103503 -15076
L103390 -15189
L103390 -15067
" />
<path d="M103390 -14982
L103587 -14982
" />
<path d="M103465 -14964
L103390 -14907
" />
<path d="M103522 -14907
L103447 -14982
" />
<path d="M103569 -14832
L103578 -14823
L103587 -14804
L103587 -14757
L103578 -14738
L103569 -14729
L103550 -14720
L103531 -14720
L103503 -14729
L103390 -14842
L103390 -14720
" />
<path d="M85815 -11726
L85909 -11792
" />
<path d="M85815 -11839
L86012 -11839
L86012 -11764
L86003 -11745
L85994 -11736
L85975 -11726
L85947 -11726
L85928 -11736
L85919 -11745
L85909 -11764
L85909 -11839
" />
<path d="M85815 -11539
L85815 -11651
" />
<path d="M85815 -11595
L86012 -11595
L85984 -11614
L85965 -11632
L85956 -11651
" />
<path d="M85994 -11463
L86003 -11454
L86012 -11435
L86012 -11388
L86003 -11370
L85994 -11360
L85975 -11351
L85956 -11351
L85928 -11360
L85815 -11473
L85815 -11351
" />
<path d="M86269 -11879
L86278 -11870
L86287 -11851
L86287 -11804
L86278 -11786
L86269 -11776
L86250 -11767
L86231 -11767
L86203 -11776
L86090 -11889
L86090 -11767
" />
<path d="M86090 -11682
L86287 -11682
" />
<path d="M86165 -11664
L86090 -11607
" />
<path d="M86222 -11607
L86147 -11682
" />
<path d="M86269 -11532
L86278 -11523
L86287 -11504
L86287 -11457
L86278 -11438
L86269 -11429
L86250 -11420
L86231 -11420
L86203 -11429
L86090 -11542
L86090 -11420
" />
<path d="M108265 -1926
L108359 -1992
" />
<path d="M108265 -2039
L108462 -2039
L108462 -1964
L108453 -1945
L108444 -1936
L108425 -1926
L108397 -1926
L108378 -1936
L108369 -1945
L108359 -1964
L108359 -2039
" />
<path d="M108265 -1739
L108265 -1851
" />
<path d="M108265 -1795
L108462 -1795
L108434 -1814
L108415 -1832
L108406 -1851
" />
<path d="M108462 -1673
L108462 -1551
L108387 -1617
L108387 -1588
L108378 -1570
L108369 -1560
L108350 -1551
L108303 -1551
L108284 -1560
L108275 -1570
L108265 -1588
L108265 -1645
L108275 -1663
L108284 -1673
" />
<path d="M108169 -1979
L108178 -1970
L108187 -1951
L108187 -1904
L108178 -1886
L108169 -1876
L108150 -1867
L108131 -1867
L108103 -1876
L107990 -1989
L107990 -1867
" />
<path d="M107990 -1782
L108187 -1782
" />
<path d="M108065 -1764
L107990 -1707
" />
<path d="M108122 -1707
L108047 -1782
" />
<path d="M108169 -1632
L108178 -1623
L108187 -1604
L108187 -1557
L108178 -1538
L108169 -1529
L108150 -1520
L108131 -1520
L108103 -1529
L107990 -1642
L107990 -1520
" />
<path d="M97703 -11035
L97637 -11129
" />
<path d="M97590 -11035
L97590 -11232
L97665 -11232
L97684 -11223
L97693 -11214
L97703 -11195
L97703 -11167
L97693 -11148
L97684 -11139
L97665 -11129
L97590 -11129
" />
<path d="M97890 -11035
L97778 -11035
" />
<path d="M97834 -11035
L97834 -11232
L97815 -11204
L97797 -11185
L97778 -11176
" />
<path d="M98059 -11167
L98059 -11035
" />
<path d="M98012 -11242
L97966 -11101
L98087 -11101
" />
<path d="M97804 -10835
L97955 -10835
" />
<path d="M96203 -10785
L96137 -10879
" />
<path d="M96090 -10785
L96090 -10982
L96165 -10982
L96184 -10973
L96193 -10964
L96203 -10945
L96203 -10917
L96193 -10898
L96184 -10889
L96165 -10879
L96090 -10879
" />
<path d="M96390 -10785
L96278 -10785
" />
<path d="M96334 -10785
L96334 -10982
L96315 -10954
L96297 -10935
L96278 -10926
" />
<path d="M96569 -10982
L96475 -10982
L96466 -10889
L96475 -10898
L96494 -10907
L96541 -10907
L96559 -10898
L96569 -10889
L96578 -10870
L96578 -10823
L96569 -10804
L96559 -10795
L96541 -10785
L96494 -10785
L96475 -10795
L96466 -10804
" />
<path d="M96270 -11257
L96289 -11257
L96308 -11248
L96317 -11239
L96326 -11220
L96336 -11182
L96336 -11135
L96326 -11098
L96317 -11079
L96308 -11070
L96289 -11060
L96270 -11060
L96251 -11070
L96242 -11079
L96233 -11098
L96223 -11135
L96223 -11182
L96233 -11220
L96242 -11239
L96251 -11248
L96270 -11257
" />
<path d="M102603 -11035
L102537 -11129
" />
<path d="M102490 -11035
L102490 -11232
L102565 -11232
L102584 -11223
L102593 -11214
L102603 -11195
L102603 -11167
L102593 -11148
L102584 -11139
L102565 -11129
L102490 -11129
" />
<path d="M102790 -11035
L102678 -11035
" />
<path d="M102734 -11035
L102734 -11232
L102715 -11204
L102697 -11185
L102678 -11176
" />
<path d="M102959 -11232
L102922 -11232
L102903 -11223
L102894 -11214
L102875 -11185
L102866 -11148
L102866 -11073
L102875 -11054
L102884 -11045
L102903 -11035
L102941 -11035
L102959 -11045
L102969 -11054
L102978 -11073
L102978 -11120
L102969 -11139
L102959 -11148
L102941 -11157
L102903 -11157
L102884 -11148
L102875 -11139
L102866 -11120
" />
<path d="M102704 -10835
L102855 -10835
" />
<path d="M101103 -10785
L101037 -10879
" />
<path d="M100990 -10785
L100990 -10982
L101065 -10982
L101084 -10973
L101093 -10964
L101103 -10945
L101103 -10917
L101093 -10898
L101084 -10889
L101065 -10879
L100990 -10879
" />
<path d="M101290 -10785
L101178 -10785
" />
<path d="M101234 -10785
L101234 -10982
L101215 -10954
L101197 -10935
L101178 -10926
" />
<path d="M101356 -10982
L101487 -10982
L101403 -10785
" />
<path d="M101170 -11257
L101189 -11257
L101208 -11248
L101217 -11239
L101226 -11220
L101236 -11182
L101236 -11135
L101226 -11098
L101217 -11079
L101208 -11070
L101189 -11060
L101170 -11060
L101151 -11070
L101142 -11079
L101133 -11098
L101123 -11135
L101123 -11182
L101133 -11220
L101142 -11239
L101151 -11248
L101170 -11257
" />
<path d="M89315 -12126
L89409 -12192
" />
<path d="M89315 -12239
L89512 -12239
L89512 -12164
L89503 -12145
L89494 -12136
L89475 -12126
L89447 -12126
L89428 -12136
L89419 -12145
L89409 -12164
L89409 -12239
" />
<path d="M89315 -11939
L89315 -12051
" />
<path d="M89315 -11995
L89512 -11995
L89484 -12014
L89465 -12032
L89456 -12051
" />
<path d="M89428 -11826
L89437 -11845
L89447 -11854
L89465 -11863
L89475 -11863
L89494 -11854
L89503 -11845
L89512 -11826
L89512 -11788
L89503 -11770
L89494 -11760
L89475 -11751
L89465 -11751
L89447 -11760
L89437 -11770
L89428 -11788
L89428 -11826
L89419 -11845
L89409 -11854
L89390 -11863
L89353 -11863
L89334 -11854
L89325 -11845
L89315 -11826
L89315 -11788
L89325 -11770
L89334 -11760
L89353 -11751
L89390 -11751
L89409 -11760
L89419 -11770
L89428 -11788
" />
<path d="M89665 -12125
L89665 -11974
" />
<path d="M89565 -10526
L89659 -10592
" />
<path d="M89565 -10639
L89762 -10639
L89762 -10564
L89753 -10545
L89744 -10536
L89725 -10526
L89697 -10526
L89678 -10536
L89669 -10545
L89659 -10564
L89659 -10639
" />
<path d="M89565 -10339
L89565 -10451
" />
<path d="M89565 -10395
L89762 -10395
L89734 -10414
L89715 -10432
L89706 -10451
" />
<path d="M89565 -10245
L89565 -10207
L89575 -10188
L89584 -10179
L89612 -10160
L89650 -10151
L89725 -10151
L89744 -10160
L89753 -10170
L89762 -10188
L89762 -10226
L89753 -10245
L89744 -10254
L89725 -10263
L89678 -10263
L89659 -10254
L89650 -10245
L89640 -10226
L89640 -10188
L89650 -10170
L89659 -10160
L89678 -10151
" />
<path d="M89487 -10359
L89487 -10340
L89478 -10321
L89469 -10312
L89450 -10303
L89412 -10293
L89365 -10293
L89328 -10303
L89309 -10312
L89300 -10321
L89290 -10340
L89290 -10359
L89300 -10378
L89309 -10387
L89328 -10396
L89365 -10406
L89412 -10406
L89450 -10396
L89469 -10387
L89478 -10378
L89487 -10359
" />
<path d="M105803 -5335
L105737 -5429
" />
<path d="M105690 -5335
L105690 -5532
L105765 -5532
L105784 -5523
L105793 -5514
L105803 -5495
L105803 -5467
L105793 -5448
L105784 -5439
L105765 -5429
L105690 -5429
" />
<path d="M105878 -5514
L105887 -5523
L105906 -5532
L105953 -5532
L105972 -5523
L105981 -5514
L105990 -5495
L105990 -5476
L105981 -5448
L105869 -5335
L105990 -5335
" />
<path d="M106112 -5532
L106131 -5532
L106150 -5523
L106159 -5514
L106169 -5495
L106178 -5457
L106178 -5410
L106169 -5373
L106159 -5354
L106150 -5345
L106131 -5335
L106112 -5335
L106094 -5345
L106084 -5354
L106075 -5373
L106066 -5410
L106066 -5457
L106075 -5495
L106084 -5514
L106094 -5523
L106112 -5532
" />
<path d="M105904 -5135
L106055 -5135
" />
<path d="M104303 -5085
L104237 -5179
" />
<path d="M104190 -5085
L104190 -5282
L104265 -5282
L104284 -5273
L104293 -5264
L104303 -5245
L104303 -5217
L104293 -5198
L104284 -5189
L104265 -5179
L104190 -5179
" />
<path d="M104378 -5264
L104387 -5273
L104406 -5282
L104453 -5282
L104472 -5273
L104481 -5264
L104490 -5245
L104490 -5226
L104481 -5198
L104369 -5085
L104490 -5085
" />
<path d="M104678 -5085
L104566 -5085
" />
<path d="M104622 -5085
L104622 -5282
L104603 -5254
L104584 -5235
L104566 -5226
" />
<path d="M104370 -5557
L104389 -5557
L104408 -5548
L104417 -5539
L104426 -5520
L104436 -5482
L104436 -5435
L104426 -5398
L104417 -5379
L104408 -5370
L104389 -5360
L104370 -5360
L104351 -5370
L104342 -5379
L104333 -5398
L104323 -5435
L104323 -5482
L104333 -5520
L104342 -5539
L104351 -5548
L104370 -5557
" />
<path d="M97765 -1926
L97859 -1992
" />
<path d="M97765 -2039
L97962 -2039
L97962 -1964
L97953 -1945
L97944 -1936
L97925 -1926
L97897 -1926
L97878 -1936
L97869 -1945
L97859 -1964
L97859 -2039
" />
<path d="M97944 -1851
L97953 -1842
L97962 -1823
L97962 -1776
L97953 -1757
L97944 -1748
L97925 -1739
L97906 -1739
L97878 -1748
L97765 -1860
L97765 -1739
" />
<path d="M97944 -1663
L97953 -1654
L97962 -1635
L97962 -1588
L97953 -1570
L97944 -1560
L97925 -1551
L97906 -1551
L97878 -1560
L97765 -1673
L97765 -1551
" />
<path d="M97669 -1979
L97678 -1970
L97687 -1951
L97687 -1904
L97678 -1886
L97669 -1876
L97650 -1867
L97631 -1867
L97603 -1876
L97490 -1989
L97490 -1867
" />
<path d="M97490 -1782
L97687 -1782
" />
<path d="M97565 -1764
L97490 -1707
" />
<path d="M97622 -1707
L97547 -1782
" />
<path d="M97669 -1632
L97678 -1623
L97687 -1604
L97687 -1557
L97678 -1538
L97669 -1529
L97650 -1520
L97631 -1520
L97603 -1529
L97490 -1642
L97490 -1520
" />
<path d="M85815 -7426
L85909 -7492
" />
<path d="M85815 -7539
L86012 -7539
L86012 -7464
L86003 -7445
L85994 -7436
L85975 -7426
L85947 -7426
L85928 -7436
L85919 -7445
L85909 -7464
L85909 -7539
" />
<path d="M85994 -7351
L86003 -7342
L86012 -7323
L86012 -7276
L86003 -7257
L85994 -7248
L85975 -7239
L85956 -7239
L85928 -7248
L85815 -7360
L85815 -7239
" />
<path d="M85947 -7070
L85815 -7070
" />
<path d="M86022 -7117
L85881 -7163
L85881 -7042
" />
<path d="M86269 -7579
L86278 -7570
L86287 -7551
L86287 -7504
L86278 -7486
L86269 -7476
L86250 -7467
L86231 -7467
L86203 -7476
L86090 -7589
L86090 -7467
" />
<path d="M86090 -7382
L86287 -7382
" />
<path d="M86165 -7364
L86090 -7307
" />
<path d="M86222 -7307
L86147 -7382
" />
<path d="M86269 -7232
L86278 -7223
L86287 -7204
L86287 -7157
L86278 -7138
L86269 -7129
L86250 -7120
L86231 -7120
L86203 -7129
L86090 -7242
L86090 -7120
" />
<path d="M96803 -5335
L96737 -5429
" />
<path d="M96690 -5335
L96690 -5532
L96765 -5532
L96784 -5523
L96793 -5514
L96803 -5495
L96803 -5467
L96793 -5448
L96784 -5439
L96765 -5429
L96690 -5429
" />
<path d="M96878 -5514
L96887 -5523
L96906 -5532
L96953 -5532
L96972 -5523
L96981 -5514
L96990 -5495
L96990 -5476
L96981 -5448
L96869 -5335
L96990 -5335
" />
<path d="M97169 -5532
L97075 -5532
L97066 -5439
L97075 -5448
L97094 -5457
L97141 -5457
L97159 -5448
L97169 -5439
L97178 -5420
L97178 -5373
L97169 -5354
L97159 -5345
L97141 -5335
L97094 -5335
L97075 -5345
L97066 -5354
" />
<path d="M96904 -5135
L97055 -5135
" />
<path d="M95403 -5085
L95337 -5179
" />
<path d="M95290 -5085
L95290 -5282
L95365 -5282
L95384 -5273
L95393 -5264
L95403 -5245
L95403 -5217
L95393 -5198
L95384 -5189
L95365 -5179
L95290 -5179
" />
<path d="M95478 -5264
L95487 -5273
L95506 -5282
L95553 -5282
L95572 -5273
L95581 -5264
L95590 -5245
L95590 -5226
L95581 -5198
L95469 -5085
L95590 -5085
" />
<path d="M95759 -5282
L95722 -5282
L95703 -5273
L95694 -5264
L95675 -5235
L95666 -5198
L95666 -5123
L95675 -5104
L95684 -5095
L95703 -5085
L95741 -5085
L95759 -5095
L95769 -5104
L95778 -5123
L95778 -5170
L95769 -5189
L95759 -5198
L95741 -5207
L95703 -5207
L95684 -5198
L95675 -5189
L95666 -5170
" />
<path d="M95470 -5557
L95489 -5557
L95508 -5548
L95517 -5539
L95526 -5520
L95536 -5482
L95536 -5435
L95526 -5398
L95517 -5379
L95508 -5370
L95489 -5360
L95470 -5360
L95451 -5370
L95442 -5379
L95433 -5398
L95423 -5435
L95423 -5482
L95433 -5520
L95442 -5539
L95451 -5548
L95470 -5557
" />
<path d="M89315 -7426
L89409 -7492
" />
<path d="M89315 -7539
L89512 -7539
L89512 -7464
L89503 -7445
L89494 -7436
L89475 -7426
L89447 -7426
L89428 -7436
L89419 -7445
L89409 -7464
L89409 -7539
" />
<path d="M89494 -7351
L89503 -7342
L89512 -7323
L89512 -7276
L89503 -7257
L89494 -7248
L89475 -7239
L89456 -7239
L89428 -7248
L89315 -7360
L89315 -7239
" />
<path d="M89315 -7145
L89315 -7107
L89325 -7088
L89334 -7079
L89362 -7060
L89400 -7051
L89475 -7051
L89494 -7060
L89503 -7070
L89512 -7088
L89512 -7126
L89503 -7145
L89494 -7154
L89475 -7163
L89428 -7163
L89409 -7154
L89400 -7145
L89390 -7126
L89390 -7088
L89400 -7070
L89409 -7060
L89428 -7051
" />
<path d="M89665 -7425
L89665 -7274
" />
<path d="M89565 -5926
L89659 -5992
" />
<path d="M89565 -6039
L89762 -6039
L89762 -5964
L89753 -5945
L89744 -5936
L89725 -5926
L89697 -5926
L89678 -5936
L89669 -5945
L89659 -5964
L89659 -6039
" />
<path d="M89762 -5860
L89762 -5739
L89687 -5804
L89687 -5776
L89678 -5757
L89669 -5748
L89650 -5739
L89603 -5739
L89584 -5748
L89575 -5757
L89565 -5776
L89565 -5832
L89575 -5851
L89584 -5860
" />
<path d="M89762 -5617
L89762 -5598
L89753 -5579
L89744 -5570
L89725 -5560
L89687 -5551
L89640 -5551
L89603 -5560
L89584 -5570
L89575 -5579
L89565 -5598
L89565 -5617
L89575 -5635
L89584 -5645
L89603 -5654
L89640 -5663
L89687 -5663
L89725 -5654
L89744 -5645
L89753 -5635
L89762 -5617
" />
<path d="M89487 -5759
L89487 -5740
L89478 -5721
L89469 -5712
L89450 -5703
L89412 -5693
L89365 -5693
L89328 -5703
L89309 -5712
L89300 -5721
L89290 -5740
L89290 -5759
L89300 -5778
L89309 -5787
L89328 -5796
L89365 -5806
L89412 -5806
L89450 -5796
L89469 -5787
L89478 -5778
L89487 -5759
" />
</g> 
</svg>
