*
*
G04 PADS 9.5 Build Number: 522968 generated Gerber (RS-274-X) file*
G04 PC Version=2.1*
*
%IN "ETH01.pcb"*%
*
%MOIN*%
*
%FSLAX35Y35*%
*
*
*
*
G04 PC Standard Apertures*
*
*
G04 Thermal Relief Aperture macro.*
%AMTER*
1,1,$1,0,0*
1,0,$1-$2,0,0*
21,0,$3,$4,0,0,45*
21,0,$3,$4,0,0,135*
%
*
*
G04 Annular Aperture macro.*
%AMANN*
1,1,$1,0,0*
1,0,$2,0,0*
%
*
*
G04 Odd Aperture macro.*
%AMODD*
1,1,$1,0,0*
1,0,$1-0.005,0,0*
%
*
*
G04 PC Custom Aperture Macros*
*
*
*
*
*
*
G04 PC Aperture Table*
*
%ADD024C,0.001*%
%ADD025C,0.01*%
*
*
*
*
G04 PC Circuitry*
G04 Layer Name ETH01.pcb - circuitry*
%LPD*%
*
*
G04 PC Custom Flashes*
G04 Layer Name ETH01.pcb - flashes*
%LPD*%
*
*
G04 PC Circuitry*
G04 Layer Name ETH01.pcb - circuitry*
%LPD*%
*
G54D24*
G01X121000Y359000D02*
X121003D01*
X439000D02*
X439003D01*
X439000Y121000D02*
X439003D01*
X439000Y359000D02*
X439003D01*
G54D25*
X121000Y121000D02*
X439000D01*
Y359000*
X121000*
Y121000*
Y381000D02*
X262341D01*
X121000D02*
X131000Y383500D01*
Y378500*
X121000Y381000*
X439000D02*
X297659D01*
X439000D02*
X429000Y378500D01*
Y383500*
X439000Y381000*
X121000Y364000D02*
Y386000D01*
X439000Y364000D02*
Y386000D01*
X265795Y383813D02*
X268295D01*
X268295D02*
X266932Y381313D01*
X266932D02*
X267614D01*
X267614D02*
X268068Y381000D01*
X268295Y380688*
X268295D02*
X268523Y379750D01*
Y379125*
X268295Y378188*
X268295D02*
X267841Y377563D01*
X267841D02*
X267159Y377250D01*
X266477*
X265795Y377563*
X265795D02*
X265568Y377875D01*
X265341Y378500*
X270568Y382563D02*
X271023Y382875D01*
X271705Y383813*
X271705D02*
Y377250D01*
X274886Y383813D02*
X274205Y383500D01*
X273977Y382875*
Y382250*
X274205Y381625*
X274659Y381313*
X274659D02*
X275568Y381000D01*
X276250Y380688*
X276250D02*
X276705Y380063D01*
X276705D02*
X276932Y379438D01*
X276932D02*
Y378500D01*
X276705Y377875*
X276477Y377563*
X276477D02*
X275795Y377250D01*
X274886*
X274205Y377563*
X274205D02*
X273977Y377875D01*
X273750Y378500*
Y379438*
X273750D02*
X273977Y380063D01*
X273977D02*
X274432Y380688D01*
X274432D02*
X275114Y381000D01*
X276023Y381313*
X276023D02*
X276477Y381625D01*
X276705Y382250*
Y382875*
X276477Y383500*
X275795Y383813*
X275795D02*
X274886D01*
X280341D02*
X279659Y383500D01*
X279205Y382563*
X279205D02*
X278977Y381000D01*
Y380063*
X278977D02*
X279205Y378500D01*
X279659Y377563*
X279659D02*
X280341Y377250D01*
X280795*
X281477Y377563*
X281477D02*
X281932Y378500D01*
X282159Y380063*
X282159D02*
Y381000D01*
X281932Y382563*
X281932D02*
X281477Y383500D01*
X280795Y383813*
X280795D02*
X280341D01*
X284205Y381625D02*
Y377250D01*
Y380375D02*
X284886Y381313D01*
X284886D02*
X285341Y381625D01*
X286023*
X286477Y381313*
X286477D02*
X286705Y380375D01*
Y377250*
Y380375D02*
X287386Y381313D01*
X287386D02*
X287841Y381625D01*
X288523*
X288977Y381313*
X288977D02*
X289205Y380375D01*
Y377250*
X291250Y383813D02*
X291477Y383500D01*
X291705Y383813*
X291705D02*
X291477Y384125D01*
X291250Y383813*
X291477Y381625D02*
Y377250D01*
X293750Y383813D02*
Y377250D01*
X462000Y121000D02*
Y233250D01*
Y121000D02*
X459500Y131000D01*
X464500*
X462000Y121000*
Y359000D02*
Y246750D01*
Y359000D02*
X464500Y349000D01*
X459500*
X462000Y359000*
X444000Y121000D02*
X467000D01*
X444000Y359000D02*
X467000D01*
X446545Y241250D02*
Y241563D01*
X446545D02*
X446773Y242188D01*
X446773D02*
X447000Y242500D01*
X447455Y242813*
X447455D02*
X448364D01*
X448364D02*
X448818Y242500D01*
X449045Y242188*
X449045D02*
X449273Y241563D01*
X449273D02*
Y240938D01*
X449273D02*
X449045Y240313D01*
X449045D02*
X448591Y239375D01*
X446318Y236250*
X449500*
X452000Y242813D02*
X454500D01*
X454500D02*
X453136Y240313D01*
X453136D02*
X453818D01*
X453818D02*
X454273Y240000D01*
X454500Y239688*
X454500D02*
X454727Y238750D01*
Y238125*
X454500Y237188*
X454500D02*
X454045Y236563D01*
X454045D02*
X453364Y236250D01*
X452682*
X452000Y236563*
X452000D02*
X451773Y236875D01*
X451545Y237500*
X457909Y242813D02*
X457227Y242500D01*
X457000Y241875*
Y241250*
X457227Y240625*
X457682Y240313*
X457682D02*
X458591Y240000D01*
X459273Y239688*
X459273D02*
X459727Y239063D01*
X459727D02*
X459955Y238438D01*
X459955D02*
Y237500D01*
X459727Y236875*
X459500Y236563*
X459500D02*
X458818Y236250D01*
X457909*
X457227Y236563*
X457227D02*
X457000Y236875D01*
X456773Y237500*
Y238438*
X456773D02*
X457000Y239063D01*
X457000D02*
X457455Y239688D01*
X457455D02*
X458136Y240000D01*
X459045Y240313*
X459045D02*
X459500Y240625D01*
X459727Y241250*
Y241875*
X459500Y242500*
X458818Y242813*
X458818D02*
X457909D01*
X463364D02*
X462682Y242500D01*
X462227Y241563*
X462227D02*
X462000Y240000D01*
Y239063*
X462000D02*
X462227Y237500D01*
X462682Y236563*
X462682D02*
X463364Y236250D01*
X463818*
X464500Y236563*
X464500D02*
X464955Y237500D01*
X465182Y239063*
X465182D02*
Y240000D01*
X464955Y241563*
X464955D02*
X464500Y242500D01*
X463818Y242813*
X463818D02*
X463364D01*
X467227Y240625D02*
Y236250D01*
Y239375D02*
X467909Y240313D01*
X467909D02*
X468364Y240625D01*
X469045*
X469500Y240313*
X469500D02*
X469727Y239375D01*
Y236250*
Y239375D02*
X470409Y240313D01*
X470409D02*
X470864Y240625D01*
X471545*
X472000Y240313*
X472000D02*
X472227Y239375D01*
Y236250*
X474273Y242813D02*
X474500Y242500D01*
X474727Y242813*
X474727D02*
X474500Y243125D01*
X474273Y242813*
X474500Y240625D02*
Y236250D01*
X476773Y242813D02*
Y236250D01*
X0Y0D02*
M02*
