*
*
G04 PADS 9.5 Build Number: 522968 generated Gerber (RS-274-X) file*
G04 PC Version=2.1*
*
%IN "ETH01.pcb"*%
*
%MOIN*%
*
%FSLAX35Y35*%
*
*
*
*
G04 PC Standard Apertures*
*
*
G04 Thermal Relief Aperture macro.*
%AMTER*
1,1,$1,0,0*
1,0,$1-$2,0,0*
21,0,$3,$4,0,0,45*
21,0,$3,$4,0,0,135*
%
*
*
G04 Annular Aperture macro.*
%AMANN*
1,1,$1,0,0*
1,0,$2,0,0*
%
*
*
G04 Odd Aperture macro.*
%AMODD*
1,1,$1,0,0*
1,0,$1-0.005,0,0*
%
*
*
G04 PC Custom Aperture Macros*
*
*
*
*
*
*
G04 PC Aperture Table*
*
%ADD024C,0.001*%
%ADD077R,0.067X0.055*%
%ADD078R,0.055X0.072*%
%ADD079O,0.03362X0.07535*%
%ADD080O,0.07535X0.03362*%
%ADD081C,0.07591*%
%ADD082R,0.072X0.055*%
%ADD083R,0.081X0.081*%
%ADD084O,0.038X0.085*%
%ADD085R,0.138X0.135*%
%ADD086R,0.09465X0.09858*%
%ADD087R,0.059X0.086*%
%ADD088R,0.055X0.067*%
%ADD089C,0.09543*%
%ADD090R,0.116X0.101*%
%ADD091R,0.086X0.059*%
%ADD092R,0.09858X0.09465*%
%ADD093R,0.101X0.116*%
%ADD094C,0.076*%
%ADD095C,0.086*%
%ADD096C,0.156*%
%ADD097R,0.0474X0.0789*%
%ADD098C,0.0474*%
%ADD099C,0.25213*%
%ADD100R,0.06118X0.11433*%
%ADD101C,0.21*%
*
*
*
*
G04 PC Circuitry*
G04 Layer Name ETH01.pcb - circuitry*
%LPD*%
*
*
G04 PC Custom Flashes*
G04 Layer Name ETH01.pcb - flashes*
%LPD*%
*
*
G04 PC Circuitry*
G04 Layer Name ETH01.pcb - circuitry*
%LPD*%
*
G54D24*
G54D77*
G01X315500Y283300D03*
Y275700D03*
X312500Y181300D03*
Y173700D03*
X226500Y223800D03*
Y216200D03*
X246000Y188700D03*
Y196300D03*
X238000D03*
Y188700D03*
X246000Y215800D03*
Y208200D03*
X238000D03*
Y215800D03*
X280000Y247700D03*
Y255300D03*
X290000Y250200D03*
Y257800D03*
X388000Y311200D03*
Y318800D03*
X404000Y322200D03*
Y329800D03*
X284500Y302300D03*
Y294700D03*
G54D78*
X176200Y327000D03*
X183800D03*
X316200Y345000D03*
X323800D03*
X316200Y352500D03*
X323800D03*
X291300Y195500D03*
X283700D03*
X260800Y175500D03*
X253200D03*
X245800Y180500D03*
X238200D03*
X329200Y200500D03*
X336800D03*
X279800Y216500D03*
X272200D03*
X245800Y224000D03*
X238200D03*
X202200Y260500D03*
X209800D03*
X224300D03*
X216700D03*
X283300Y227500D03*
X275700D03*
G54D79*
X320140Y199477D03*
X318172D03*
X316203D03*
X314235D03*
X312266D03*
X310298D03*
X308329D03*
X306361D03*
X304392D03*
X302424D03*
X300455D03*
X298487D03*
Y235698D03*
X300455D03*
X302424D03*
X304392D03*
X306361D03*
X308329D03*
X310298D03*
X312266D03*
X314235D03*
X316203D03*
X318172D03*
X320140D03*
G54D80*
X291203Y206761D03*
Y208729D03*
Y210698D03*
Y212666D03*
Y214635D03*
Y216603D03*
Y218572D03*
Y220540D03*
Y222509D03*
Y224477D03*
Y226446D03*
Y228414D03*
X327424D03*
Y226446D03*
Y224477D03*
Y222509D03*
Y220540D03*
Y218572D03*
Y216603D03*
Y214635D03*
Y212666D03*
Y210698D03*
Y208729D03*
Y206761D03*
G54D81*
X313455Y251588D03*
X333172D03*
G54D82*
X328000Y256700D03*
Y264300D03*
X320500Y256700D03*
Y264300D03*
X328000Y233700D03*
Y241300D03*
X243000Y312200D03*
Y319800D03*
X135000Y180800D03*
Y173200D03*
X127500Y180800D03*
Y173200D03*
G54D83*
X349500Y269500D03*
X339500D03*
X306500Y277000D03*
Y267000D03*
X296500Y277000D03*
Y267000D03*
X219000Y337000D03*
Y347000D03*
X229000Y337000D03*
Y347000D03*
X239000Y337000D03*
Y347000D03*
X249000Y337000D03*
Y347000D03*
X204000D03*
Y337000D03*
X194000Y347000D03*
Y337000D03*
X184000Y347000D03*
Y337000D03*
X174000Y347000D03*
Y337000D03*
X310500Y135000D03*
X300500D03*
X310500Y145000D03*
X300500D03*
X310500Y155000D03*
X300500D03*
X310500Y165000D03*
X300500D03*
X271000Y135000D03*
X261000D03*
X271000Y145000D03*
X261000D03*
X271000Y155000D03*
X261000D03*
X271000Y165000D03*
X261000D03*
X214500Y151500D03*
Y141500D03*
X204500Y151500D03*
Y141500D03*
X194500Y151500D03*
Y141500D03*
X251000Y268500D03*
X261000D03*
X173000Y263500D03*
Y253500D03*
X163000Y263500D03*
Y253500D03*
X153000Y263500D03*
Y253500D03*
X143000Y263500D03*
Y253500D03*
X303000Y188000D03*
Y178000D03*
X387000Y339500D03*
Y329500D03*
X377000Y339500D03*
Y329500D03*
X415000Y320000D03*
X425000D03*
X415000Y310000D03*
X425000D03*
X415000Y300000D03*
X425000D03*
X415000Y290000D03*
X425000D03*
X415000Y280000D03*
X425000D03*
X415000Y270000D03*
X425000D03*
X415000Y260000D03*
X425000D03*
X415000Y250000D03*
X425000D03*
X415000Y240000D03*
X425000D03*
X415000Y230000D03*
X425000D03*
X415000Y220000D03*
X425000D03*
X415000Y210000D03*
X425000D03*
X415000Y200000D03*
X425000D03*
X415000Y190000D03*
X425000D03*
X415000Y180000D03*
X425000D03*
X415000Y170000D03*
X425000D03*
X415000Y160000D03*
X425000D03*
X263000Y337000D03*
Y347000D03*
X273000D03*
Y337000D03*
X283000Y347000D03*
Y337000D03*
X293000Y347000D03*
Y337000D03*
G54D84*
X276800Y297400D03*
X274200D03*
X271600D03*
X269000D03*
X266400D03*
X263800D03*
X261200D03*
Y320600D03*
X263800D03*
X266400D03*
X269000D03*
X271600D03*
X274200D03*
X276800D03*
G54D85*
X269000Y309000D03*
G54D86*
X205500Y324539D03*
Y304461D03*
X221500Y304961D03*
Y325039D03*
G54D87*
X249700Y297000D03*
X238300D03*
G54D88*
X280800Y286000D03*
X273200D03*
X396700Y160500D03*
X404300D03*
X396700Y170500D03*
X404300D03*
X396200Y219000D03*
X403800D03*
X396700Y309500D03*
X404300D03*
X396700Y300000D03*
X404300D03*
X396700Y289000D03*
X404300D03*
X396700Y279500D03*
X404300D03*
X396700Y269500D03*
X404300D03*
X396700Y260000D03*
X404300D03*
X396700Y249500D03*
X404300D03*
X396700Y239000D03*
X404300D03*
X396700Y208500D03*
X404300D03*
X396700Y199500D03*
X404300D03*
X396700Y190500D03*
X404300D03*
X396700Y180500D03*
X404300D03*
X396700Y229000D03*
X404300D03*
X289800Y145000D03*
X282200D03*
X289300Y135000D03*
X281700D03*
X289300Y165000D03*
X281700D03*
X289300Y155000D03*
X281700D03*
X251200Y279500D03*
X258800D03*
X267300Y234500D03*
X259700D03*
X256200Y219000D03*
X263800D03*
X256200Y226000D03*
X263800D03*
X275700Y235000D03*
X283300D03*
X217800Y224000D03*
X210200D03*
X217800Y232500D03*
X210200D03*
X270300Y246000D03*
X262700D03*
X251200Y287500D03*
X258800D03*
G54D89*
X193815Y260472D03*
Y319528D03*
X233185Y260472D03*
Y319528D03*
G54D90*
X238000Y167000D03*
Y147000D03*
G54D91*
X225500Y153300D03*
Y164700D03*
G54D92*
X206039Y164000D03*
X185961D03*
G54D93*
X290500Y183000D03*
X270500D03*
G54D94*
X173000Y188500D03*
X183000Y193500D03*
X173000Y198500D03*
X183000Y203500D03*
X173000Y208500D03*
X202000Y189500D03*
Y199500D03*
X183000Y223500D03*
X173000Y228500D03*
X183000Y233500D03*
X192000Y228500D03*
X202000Y222500D03*
Y232500D03*
G54D95*
X160000Y237500D03*
Y184500D03*
G54D96*
X148000Y233500D03*
Y188500D03*
G54D97*
X238587Y236500D03*
X224413D03*
G54D98*
X231500D03*
G54D99*
X420000Y340000D03*
Y140000D03*
X140000D03*
Y340000D03*
G54D100*
X165500Y311634D03*
X185500D03*
Y278366D03*
X165500D03*
X131500Y311634D03*
X151500D03*
Y278366D03*
X131500D03*
G54D101*
X336000Y139000D03*
X368000Y138000D03*
X0Y0D02*
M02*
