G04 #@! TF.FileFunction,Soldermask,Bot*
%FSLAX46Y46*%
G04 Gerber Fmt 4.6, Leading zero omitted, Abs format (unit mm)*
G04 Created by KiCad (PCBNEW (2016-09-17 revision 679eef1)-makepkg) date 01/31/17 07:00:59*
%MOMM*%
%LPD*%
G01*
G04 APERTURE LIST*
%ADD10C,1.300000*%
G04 APERTURE END LIST*
D10*
G36*
X5416110Y8277872D02*
X6030848Y8151685D01*
X6609363Y7908500D01*
X7129631Y7557574D01*
X7571824Y7112283D01*
X7919105Y6589582D01*
X8158249Y6009378D01*
X8280004Y5394466D01*
X8280004Y5394449D01*
X8280137Y5393776D01*
X8270128Y4676993D01*
X8269977Y4676330D01*
X8269977Y4676306D01*
X8131099Y4065032D01*
X7875851Y3491739D01*
X7514107Y2978933D01*
X7059653Y2546162D01*
X6529787Y2209900D01*
X5944712Y1982964D01*
X5326688Y1873989D01*
X4699273Y1887132D01*
X4086359Y2021890D01*
X3511293Y2273129D01*
X2995980Y2631282D01*
X2560044Y3082706D01*
X2220093Y3610208D01*
X1989075Y4193693D01*
X1875790Y4810936D01*
X1884551Y5438424D01*
X2015027Y6052266D01*
X2262248Y6629075D01*
X2616795Y7146877D01*
X3065163Y7585952D01*
X3590276Y7929576D01*
X4172132Y8164661D01*
X4788571Y8282254D01*
X5416110Y8277872D01*
X5416110Y8277872D01*
G37*
G36*
X25736110Y8277872D02*
X26350848Y8151685D01*
X26929363Y7908500D01*
X27449631Y7557574D01*
X27891824Y7112283D01*
X28239105Y6589582D01*
X28478249Y6009378D01*
X28600004Y5394466D01*
X28600004Y5394449D01*
X28600137Y5393776D01*
X28590128Y4676993D01*
X28589977Y4676330D01*
X28589977Y4676306D01*
X28451099Y4065032D01*
X28195851Y3491739D01*
X27834107Y2978933D01*
X27379653Y2546162D01*
X26849787Y2209900D01*
X26264712Y1982964D01*
X25646688Y1873989D01*
X25019273Y1887132D01*
X24406359Y2021890D01*
X23831293Y2273129D01*
X23315980Y2631282D01*
X22880044Y3082706D01*
X22540093Y3610208D01*
X22309075Y4193693D01*
X22195790Y4810936D01*
X22204551Y5438424D01*
X22335027Y6052266D01*
X22582248Y6629075D01*
X22936795Y7146877D01*
X23385163Y7585952D01*
X23910276Y7929576D01*
X24492132Y8164661D01*
X25108571Y8282254D01*
X25736110Y8277872D01*
X25736110Y8277872D01*
G37*
G36*
X16329000Y2848000D02*
X14405000Y2848000D01*
X14405000Y4772000D01*
X16329000Y4772000D01*
X16329000Y2848000D01*
X16329000Y2848000D01*
G37*
G36*
X18869000Y2848000D02*
X16945000Y2848000D01*
X16945000Y4772000D01*
X18869000Y4772000D01*
X18869000Y2848000D01*
X18869000Y2848000D01*
G37*
G36*
X13789000Y2848000D02*
X11865000Y2848000D01*
X11865000Y4772000D01*
X13789000Y4772000D01*
X13789000Y2848000D01*
X13789000Y2848000D01*
G37*
G36*
X13789000Y5388000D02*
X11865000Y5388000D01*
X11865000Y7312000D01*
X13789000Y7312000D01*
X13789000Y5388000D01*
X13789000Y5388000D01*
G37*
G36*
X16329000Y5388000D02*
X14405000Y5388000D01*
X14405000Y7312000D01*
X16329000Y7312000D01*
X16329000Y5388000D01*
X16329000Y5388000D01*
G37*
G36*
X18869000Y5388000D02*
X16945000Y5388000D01*
X16945000Y7312000D01*
X18869000Y7312000D01*
X18869000Y5388000D01*
X18869000Y5388000D01*
G37*
G36*
X16964000Y9134500D02*
X15675000Y9134500D01*
X15675000Y10931500D01*
X16964000Y10931500D01*
X16964000Y9134500D01*
X16964000Y9134500D01*
G37*
G36*
X19123000Y9134500D02*
X17834000Y9134500D01*
X17834000Y10931500D01*
X19123000Y10931500D01*
X19123000Y9134500D01*
X19123000Y9134500D01*
G37*
G36*
X15059000Y9134500D02*
X13770000Y9134500D01*
X13770000Y10931500D01*
X15059000Y10931500D01*
X15059000Y9134500D01*
X15059000Y9134500D01*
G37*
G36*
X21028000Y9134500D02*
X19739000Y9134500D01*
X19739000Y10931500D01*
X21028000Y10931500D01*
X21028000Y9134500D01*
X21028000Y9134500D01*
G37*
G36*
X12265000Y11611000D02*
X8055000Y11611000D01*
X8055000Y15821000D01*
X12265000Y15821000D01*
X12265000Y11611000D01*
X12265000Y11611000D01*
G37*
G36*
X7265000Y11611000D02*
X3055000Y11611000D01*
X3055000Y15821000D01*
X7265000Y15821000D01*
X7265000Y11611000D01*
X7265000Y11611000D01*
G37*
G36*
X14868500Y14722500D02*
X13071500Y14722500D01*
X13071500Y16011500D01*
X14868500Y16011500D01*
X14868500Y14722500D01*
X14868500Y14722500D01*
G37*
G36*
X17824000Y21439000D02*
X17825921Y21419491D01*
X17831612Y21400732D01*
X17840853Y21383443D01*
X17853289Y21368289D01*
X17868443Y21355853D01*
X17885732Y21346612D01*
X17904491Y21340921D01*
X17924000Y21339000D01*
X18144000Y21339000D01*
X18163509Y21340921D01*
X18182268Y21346612D01*
X18199557Y21355853D01*
X18214711Y21368289D01*
X18227147Y21383443D01*
X18236388Y21400732D01*
X18242079Y21419491D01*
X18244000Y21439000D01*
X18244000Y24089000D01*
X19094000Y24089000D01*
X19094000Y21439000D01*
X19095921Y21419491D01*
X19101612Y21400732D01*
X19110853Y21383443D01*
X19123289Y21368289D01*
X19138443Y21355853D01*
X19155732Y21346612D01*
X19174491Y21340921D01*
X19194000Y21339000D01*
X19414000Y21339000D01*
X19433509Y21340921D01*
X19452268Y21346612D01*
X19469557Y21355853D01*
X19484711Y21368289D01*
X19497147Y21383443D01*
X19506388Y21400732D01*
X19512079Y21419491D01*
X19514000Y21439000D01*
X19514000Y24089000D01*
X20364000Y24089000D01*
X20364000Y21539000D01*
X19884000Y21539000D01*
X19864491Y21537079D01*
X19845732Y21531388D01*
X19828443Y21522147D01*
X19813289Y21509711D01*
X19800853Y21494557D01*
X19791612Y21477268D01*
X19785921Y21458509D01*
X19784000Y21439000D01*
X19784000Y18439000D01*
X19785921Y18419491D01*
X19791612Y18400732D01*
X19800853Y18383443D01*
X19813289Y18368289D01*
X19828443Y18355853D01*
X19845732Y18346612D01*
X19864491Y18340921D01*
X19884000Y18339000D01*
X20364000Y18339000D01*
X20364000Y15789000D01*
X19514000Y15789000D01*
X19514000Y18439000D01*
X19512079Y18458509D01*
X19506388Y18477268D01*
X19497147Y18494557D01*
X19484711Y18509711D01*
X19469557Y18522147D01*
X19452268Y18531388D01*
X19433509Y18537079D01*
X19414000Y18539000D01*
X19194000Y18539000D01*
X19174491Y18537079D01*
X19155732Y18531388D01*
X19138443Y18522147D01*
X19123289Y18509711D01*
X19110853Y18494557D01*
X19101612Y18477268D01*
X19095921Y18458509D01*
X19094000Y18439000D01*
X19094000Y15789000D01*
X18244000Y15789000D01*
X18244000Y18439000D01*
X18242079Y18458509D01*
X18236388Y18477268D01*
X18227147Y18494557D01*
X18214711Y18509711D01*
X18199557Y18522147D01*
X18182268Y18531388D01*
X18163509Y18537079D01*
X18144000Y18539000D01*
X17924000Y18539000D01*
X17904491Y18537079D01*
X17885732Y18531388D01*
X17868443Y18522147D01*
X17853289Y18509711D01*
X17840853Y18494557D01*
X17831612Y18477268D01*
X17825921Y18458509D01*
X17824000Y18439000D01*
X17824000Y15789000D01*
X16974000Y15789000D01*
X16974000Y18439000D01*
X16972079Y18458509D01*
X16966388Y18477268D01*
X16957147Y18494557D01*
X16944711Y18509711D01*
X16929557Y18522147D01*
X16912268Y18531388D01*
X16893509Y18537079D01*
X16874000Y18539000D01*
X16654000Y18539000D01*
X16634491Y18537079D01*
X16615732Y18531388D01*
X16598443Y18522147D01*
X16583289Y18509711D01*
X16570853Y18494557D01*
X16561612Y18477268D01*
X16555921Y18458509D01*
X16554000Y18439000D01*
X16554000Y15789000D01*
X15704000Y15789000D01*
X15704000Y18339000D01*
X16184000Y18339000D01*
X16203509Y18340921D01*
X16222268Y18346612D01*
X16239557Y18355853D01*
X16254711Y18368289D01*
X16267147Y18383443D01*
X16276388Y18400732D01*
X16282079Y18419491D01*
X16284000Y18439000D01*
X16284000Y21339000D01*
X16874000Y21339000D01*
X16893509Y21340921D01*
X16912268Y21346612D01*
X16929557Y21355853D01*
X16944711Y21368289D01*
X16957147Y21383443D01*
X16966388Y21400732D01*
X16972079Y21419491D01*
X16974000Y21439000D01*
X16974000Y24089000D01*
X17824000Y24089000D01*
X17824000Y21439000D01*
X17824000Y21439000D01*
G37*
G36*
X14868500Y16627500D02*
X13071500Y16627500D01*
X13071500Y17916500D01*
X14868500Y17916500D01*
X14868500Y16627500D01*
X14868500Y16627500D01*
G37*
G36*
X12265000Y16691000D02*
X8055000Y16691000D01*
X8055000Y20901000D01*
X12265000Y20901000D01*
X12265000Y16691000D01*
X12265000Y16691000D01*
G37*
G36*
X7265000Y16691000D02*
X3055000Y16691000D01*
X3055000Y20901000D01*
X7265000Y20901000D01*
X7265000Y16691000D01*
X7265000Y16691000D01*
G37*
G36*
X14868500Y19231000D02*
X13071500Y19231000D01*
X13071500Y20520000D01*
X14868500Y20520000D01*
X14868500Y19231000D01*
X14868500Y19231000D01*
G37*
G36*
X14868500Y21136000D02*
X13071500Y21136000D01*
X13071500Y22425000D01*
X14868500Y22425000D01*
X14868500Y21136000D01*
X14868500Y21136000D01*
G37*
G36*
X16554000Y21539000D02*
X15704000Y21539000D01*
X15704000Y24089000D01*
X16554000Y24089000D01*
X16554000Y21539000D01*
X16554000Y21539000D01*
G37*
G36*
X12254840Y22299320D02*
X9304680Y22299320D01*
X9304680Y25198680D01*
X12254840Y25198680D01*
X12254840Y22299320D01*
X12254840Y22299320D01*
G37*
G36*
X5717285Y26630438D02*
X5880568Y26596921D01*
X6034238Y26532324D01*
X6172437Y26439108D01*
X6289894Y26320828D01*
X6382139Y26181986D01*
X6445662Y26027868D01*
X6477904Y25865035D01*
X6477904Y25865020D01*
X6478037Y25864347D01*
X6475378Y25673951D01*
X6475227Y25673288D01*
X6475227Y25673264D01*
X6438451Y25511396D01*
X6370652Y25359119D01*
X6368680Y25356323D01*
X6359005Y25339273D01*
X6352841Y25320664D01*
X6350427Y25301210D01*
X6351854Y25281659D01*
X6357068Y25262761D01*
X6365869Y25245244D01*
X6377918Y25229781D01*
X6392752Y25216965D01*
X6409802Y25207290D01*
X6428411Y25201126D01*
X6450395Y25198680D01*
X7178000Y25198680D01*
X7197509Y25200601D01*
X7216268Y25206292D01*
X7233557Y25215533D01*
X7248711Y25227969D01*
X7261147Y25243123D01*
X7270388Y25260412D01*
X7276079Y25279171D01*
X7278000Y25298680D01*
X7278000Y26631000D01*
X8978000Y26631000D01*
X8978000Y24931000D01*
X7305320Y24931000D01*
X7285811Y24929079D01*
X7267052Y24923388D01*
X7249763Y24914147D01*
X7234609Y24901711D01*
X7222173Y24886557D01*
X7212932Y24869268D01*
X7207241Y24850509D01*
X7205320Y24831000D01*
X7205320Y22299320D01*
X4255160Y22299320D01*
X4255160Y25198680D01*
X4808595Y25198680D01*
X4828104Y25200601D01*
X4846863Y25206292D01*
X4864152Y25215533D01*
X4879306Y25227969D01*
X4891742Y25243123D01*
X4900983Y25260412D01*
X4906674Y25279171D01*
X4908595Y25298680D01*
X4906674Y25318189D01*
X4900983Y25336948D01*
X4892652Y25352850D01*
X4868333Y25390586D01*
X4806969Y25545572D01*
X4776878Y25709529D01*
X4779205Y25876205D01*
X4813863Y26039258D01*
X4879532Y26192477D01*
X4973709Y26330017D01*
X5092804Y26446644D01*
X5232293Y26537923D01*
X5386845Y26600366D01*
X5550588Y26631602D01*
X5717285Y26630438D01*
X5717285Y26630438D01*
G37*
G36*
X27505000Y24819000D02*
X25581000Y24819000D01*
X25581000Y26743000D01*
X27505000Y26743000D01*
X27505000Y24819000D01*
X27505000Y24819000D01*
G37*
G36*
X24965000Y24819000D02*
X23041000Y24819000D01*
X23041000Y26743000D01*
X24965000Y26743000D01*
X24965000Y24819000D01*
X24965000Y24819000D01*
G37*
G36*
X27505000Y27359000D02*
X25581000Y27359000D01*
X25581000Y29283000D01*
X27505000Y29283000D01*
X27505000Y27359000D01*
X27505000Y27359000D01*
G37*
G36*
X24965000Y27359000D02*
X23041000Y27359000D01*
X23041000Y29283000D01*
X24965000Y29283000D01*
X24965000Y27359000D01*
X24965000Y27359000D01*
G37*
G36*
X5650840Y27859380D02*
X2751480Y27859380D01*
X2751480Y30560620D01*
X5650840Y30560620D01*
X5650840Y27859380D01*
X5650840Y27859380D01*
G37*
G36*
X9948520Y27859380D02*
X7049160Y27859380D01*
X7049160Y30560620D01*
X9948520Y30560620D01*
X9948520Y27859380D01*
X9948520Y27859380D01*
G37*
G36*
X20520000Y28248000D02*
X16310000Y28248000D01*
X16310000Y32458000D01*
X20520000Y32458000D01*
X20520000Y28248000D01*
X20520000Y28248000D01*
G37*
G36*
X15440000Y28248000D02*
X11230000Y28248000D01*
X11230000Y32458000D01*
X15440000Y32458000D01*
X15440000Y28248000D01*
X15440000Y28248000D01*
G37*
G36*
X25736110Y38757872D02*
X26350848Y38631685D01*
X26929363Y38388500D01*
X27449631Y38037574D01*
X27891824Y37592283D01*
X28239105Y37069582D01*
X28478249Y36489378D01*
X28600004Y35874466D01*
X28600004Y35874449D01*
X28600137Y35873776D01*
X28590128Y35156993D01*
X28589977Y35156330D01*
X28589977Y35156306D01*
X28451099Y34545032D01*
X28195851Y33971739D01*
X27834107Y33458933D01*
X27379653Y33026162D01*
X26849787Y32689900D01*
X26264712Y32462964D01*
X25646688Y32353989D01*
X25019273Y32367132D01*
X24406359Y32501890D01*
X23831293Y32753129D01*
X23315980Y33111282D01*
X22880044Y33562706D01*
X22540093Y34090208D01*
X22309075Y34673693D01*
X22195790Y35290936D01*
X22204551Y35918424D01*
X22335027Y36532266D01*
X22582248Y37109075D01*
X22936795Y37626877D01*
X23385163Y38065952D01*
X23910276Y38409576D01*
X24492132Y38644661D01*
X25108571Y38762254D01*
X25736110Y38757872D01*
X25736110Y38757872D01*
G37*
G36*
X5416110Y38757872D02*
X6030848Y38631685D01*
X6609363Y38388500D01*
X7129631Y38037574D01*
X7571824Y37592283D01*
X7919105Y37069582D01*
X8158249Y36489378D01*
X8280004Y35874466D01*
X8280004Y35874449D01*
X8280137Y35873776D01*
X8270128Y35156993D01*
X8269977Y35156330D01*
X8269977Y35156306D01*
X8131099Y34545032D01*
X7875851Y33971739D01*
X7514107Y33458933D01*
X7059653Y33026162D01*
X6529787Y32689900D01*
X5944712Y32462964D01*
X5326688Y32353989D01*
X4699273Y32367132D01*
X4086359Y32501890D01*
X3511293Y32753129D01*
X2995980Y33111282D01*
X2560044Y33562706D01*
X2220093Y34090208D01*
X1989075Y34673693D01*
X1875790Y35290936D01*
X1884551Y35918424D01*
X2015027Y36532266D01*
X2262248Y37109075D01*
X2616795Y37626877D01*
X3065163Y38065952D01*
X3590276Y38409576D01*
X4172132Y38644661D01*
X4788571Y38762254D01*
X5416110Y38757872D01*
X5416110Y38757872D01*
G37*
G36*
X15440000Y33248000D02*
X11230000Y33248000D01*
X11230000Y37458000D01*
X15440000Y37458000D01*
X15440000Y33248000D01*
X15440000Y33248000D01*
G37*
G36*
X20520000Y33248000D02*
X16310000Y33248000D01*
X16310000Y37458000D01*
X20520000Y37458000D01*
X20520000Y33248000D01*
X20520000Y33248000D01*
G37*
M02*
