%
T1C.035F197S55
X0138Y0211
X0168Y0211
X0158Y0211
X0188Y0211
X0191Y0179
X0181Y0179
X0171Y0179
X0191Y0169
X0171Y0169
X0181Y0169
X023Y0155
X023Y0165
X023Y0175
X0208Y0211
X0218Y0211
T2C.037F197S55
X0161Y0155
X0153Y0155
X0161Y0165
X0153Y0165
T3C.09F066S55
X0142Y0136
X0142Y0184
T4C.10433F069S658
X0145Y0114
X0174Y0114
X0203Y0114
T5C.12598F035S794
X012Y012
X012Y02
X024Y02
X024Y012
M30
