*
*
G04 PADS 9.2 Build Number: 414666 generated Gerber (RS-274-X) file*
G04 PC Version=2.1*
*
%IN "XVC_FT220X01A.pcb"*%
*
%MOIN*%
*
%FSLAX35Y35*%
*
*
*
*
G04 PC Standard Apertures*
*
*
G04 Thermal Relief Aperture macro.*
%AMTER*
1,1,$1,0,0*
1,0,$1-$2,0,0*
21,0,$3,$4,0,0,45*
21,0,$3,$4,0,0,135*
%
*
*
G04 Annular Aperture macro.*
%AMANN*
1,1,$1,0,0*
1,0,$2,0,0*
%
*
*
G04 Odd Aperture macro.*
%AMODD*
1,1,$1,0,0*
1,0,$1-0.005,0,0*
%
*
*
G04 PC Custom Aperture Macros*
*
*
*
*
*
*
G04 PC Aperture Table*
*
%ADD020C,0.012*%
%ADD024C,0.001*%
%ADD025C,0.01*%
%ADD029C,0.005*%
%ADD036C,0.008*%
*
*
*
*
G04 PC Circuitry*
G04 Layer Name XVC_FT220X01A.pcb - circuitry*
%LPD*%
*
*
G04 PC Custom Flashes*
G04 Layer Name XVC_FT220X01A.pcb - flashes*
%LPD*%
*
*
G04 PC Circuitry*
G04 Layer Name XVC_FT220X01A.pcb - circuitry*
%LPD*%
*
G54D20*
G01X219875Y167727D02*
X213875D01*
X212750Y167455*
X212375Y167182*
X212000Y166636*
Y166091*
X212375Y165545*
X212750Y165273*
X213875Y165000*
X214625*
X219875Y172091D02*
X212000D01*
X219875Y170182D02*
Y174000D01*
Y178636D02*
X212000Y176455D01*
X219875Y178636D02*
X212000Y180818D01*
X214625Y177273D02*
Y180000D01*
X218000Y187364D02*
X218750Y187091D01*
X219500Y186545*
X219875Y186000*
Y184909*
X219500Y184364*
X218750Y183818*
X218000Y183545*
X216875Y183273*
X215000*
X213875Y183545*
X213125Y183818*
X212375Y184364*
X212000Y184909*
Y186000*
X212375Y186545*
X213125Y187091*
X213875Y187364*
X215000*
Y186000D02*
Y187364D01*
G54D24*
G54D25*
X247000Y147563D02*
X243818Y141000D01*
Y147563D02*
X247000Y141000D01*
X241773Y147563D02*
X241545Y147250D01*
X241318Y147563*
X241318D02*
X241545Y147875D01*
X241773Y147563*
X241545Y145375D02*
Y141000D01*
X239273Y147563D02*
Y141000D01*
X237227Y147563D02*
X237000Y147250D01*
X236773Y147563*
X236773D02*
X237000Y147875D01*
X237227Y147563*
X237000Y145375D02*
Y141000D01*
X234727Y145375D02*
Y141000D01*
Y144125D02*
X234045Y145063D01*
X234045D02*
X233591Y145375D01*
X232909*
X232455Y145063*
X232455D02*
X232227Y144125D01*
Y141000*
X230182Y145375D02*
X227682Y141000D01*
Y145375D02*
X230182Y141000D01*
X220409Y147563D02*
X218591Y141000D01*
X216773Y147563D02*
X218591Y141000D01*
X214727Y147563D02*
X214500Y147250D01*
X214273Y147563*
X214273D02*
X214500Y147875D01*
X214727Y147563*
X214500Y145375D02*
Y141000D01*
X212227Y145375D02*
Y141000D01*
Y143500D02*
X212000Y144438D01*
X212000D02*
X211545Y145063D01*
X211545D02*
X211091Y145375D01*
X210409*
X207682Y147563D02*
Y142250D01*
X207455Y141313*
X207455D02*
X207000Y141000D01*
X206545*
X208364Y145375D02*
X206773D01*
X204500D02*
Y142250D01*
X204273Y141313*
X204273D02*
X203818Y141000D01*
X203136*
X202682Y141313*
X202682D02*
X202000Y142250D01*
Y145375D02*
Y141000D01*
X197227Y145375D02*
Y141000D01*
Y144438D02*
X197682Y145063D01*
X197682D02*
X198136Y145375D01*
X198818*
X199273Y145063*
X199273D02*
X199727Y144438D01*
X199727D02*
X199955Y143500D01*
Y142875*
X199727Y141938*
X199727D02*
X199273Y141313D01*
X199273D02*
X198818Y141000D01*
X198136*
X197682Y141313*
X197682D02*
X197227Y141938D01*
X195182Y147563D02*
Y141000D01*
X184500Y146000D02*
X184727Y146625D01*
X185182Y147250*
X185636Y147563*
X185636D02*
X186545D01*
X186545D02*
X187000Y147250D01*
X187455Y146625*
X187682Y146000*
X187909Y145063*
X187909D02*
Y143500D01*
X187682Y142563*
X187682D02*
X187455Y141938D01*
X187455D02*
X187000Y141313D01*
X187000D02*
X186545Y141000D01*
X185636*
X185182Y141313*
X185182D02*
X184727Y141938D01*
X184727D02*
X184500Y142563D01*
X179727Y145375D02*
Y141000D01*
Y144438D02*
X180182Y145063D01*
X180182D02*
X180636Y145375D01*
X181318*
X181773Y145063*
X181773D02*
X182227Y144438D01*
X182227D02*
X182455Y143500D01*
Y142875*
X182227Y141938*
X182227D02*
X181773Y141313D01*
X181773D02*
X181318Y141000D01*
X180636*
X180182Y141313*
X180182D02*
X179727Y141938D01*
X177682Y147563D02*
Y141000D01*
Y144438D02*
X177227Y145063D01*
X177227D02*
X176773Y145375D01*
X176091*
X175636Y145063*
X175636D02*
X175182Y144438D01*
X175182D02*
X174955Y143500D01*
Y142875*
X175182Y141938*
X175182D02*
X175636Y141313D01*
X175636D02*
X176091Y141000D01*
X176773*
X177227Y141313*
X177227D02*
X177682Y141938D01*
X172909Y147563D02*
Y141000D01*
X170864Y143500D02*
X168136D01*
Y144125*
X168364Y144750*
X168591Y145063*
X168591D02*
X169045Y145375D01*
X169727*
X170182Y145063*
X170182D02*
X170636Y144438D01*
X170636D02*
X170864Y143500D01*
Y142875*
X170636Y141938*
X170636D02*
X170182Y141313D01*
X170182D02*
X169727Y141000D01*
X169045*
X168591Y141313*
X168591D02*
X168136Y141938D01*
X133000Y216000D02*
Y190000D01*
X210000*
Y163000*
X223000*
Y216000*
X133000*
G54D29*
X163594Y131205D02*
X160594D01*
X160031Y131068*
X159844Y130932*
X159656Y130659*
Y130386*
X159844Y130114*
X160031Y129977*
X160594Y129841*
X160969*
X162844Y132432D02*
X163031Y132705D01*
X163594Y133114*
X159656*
X229594Y209591D02*
X226594D01*
X226031Y209455*
X225844Y209318*
X225656Y209045*
Y208773*
X225844Y208500*
X226031Y208364*
X226594Y208227*
X226969*
X228656Y210955D02*
X228844D01*
X229219Y211091*
X229406Y211227*
X229594Y211500*
Y212045*
X229406Y212318*
X229219Y212455*
X228844Y212591*
X228469*
X228094Y212455*
X227531Y212182*
X225656Y210818*
Y212727*
X231594Y183591D02*
X228594D01*
X228031Y183455*
X227844Y183318*
X227656Y183045*
Y182773*
X227844Y182500*
X228031Y182364*
X228594Y182227*
X228969*
X231594Y185091D02*
Y186591D01*
X230094Y185773*
Y186182*
X229906Y186455*
X229719Y186591*
X229156Y186727*
X228781*
X228219Y186591*
X227844Y186318*
X227656Y185909*
Y185500*
X227844Y185091*
X228031Y184955*
X228406Y184818*
X195461Y159773D02*
X192711D01*
X192195Y159636*
X192023Y159500*
X191852Y159227*
Y158955*
X192023Y158682*
X192195Y158545*
X192711Y158409*
X193055*
X195461Y162364D02*
X193055Y161000D01*
Y163045*
X195461Y162364D02*
X191852D01*
G54D36*
X104000Y184000D02*
Y136000D01*
X134000D02*
X101000D01*
Y184000*
X134000*
X150000D02*
X165000D01*
Y136000*
X150000*
X223000Y216000D02*
X133000D01*
Y206000*
X223000*
Y216000*
X235000Y150000D02*
Y180000D01*
X225000*
Y150000*
X235000*
X166000Y164000D02*
X196000D01*
Y184000*
X166000*
Y164000*
X140250Y193273D02*
X135000D01*
X140250Y192000D02*
Y194545D01*
Y196182D02*
X135000D01*
X140250D02*
X135000Y197636D01*
X140250Y199091D02*
X135000Y197636D01*
X140250Y199091D02*
X135000D01*
X139500Y203273D02*
X140000Y202909D01*
X140250Y202364*
Y201636*
X140000Y201091*
X139500Y200727*
X139000*
X138500Y200909*
X138250Y201091*
X138000Y201455*
X137500Y202545*
X137250Y202909*
X137000Y203091*
X136500Y203273*
X135750*
X135250Y202909*
X135000Y202364*
Y201636*
X135250Y201091*
X135750Y200727*
X160250Y195273D02*
X155000D01*
X160250Y194000D02*
Y196545D01*
Y198182D02*
X155000D01*
X160250D02*
Y199455D01*
X160000Y200000*
X159500Y200364*
X159000Y200545*
X158250Y200727*
X157000*
X156250Y200545*
X155750Y200364*
X155250Y200000*
X155000Y199455*
Y198182*
X160250Y202364D02*
X155000D01*
X170250Y193273D02*
X165000D01*
X170250Y192000D02*
Y194545D01*
Y196182D02*
X165000D01*
X170250D02*
Y197455D01*
X170000Y198000*
X169500Y198364*
X169000Y198545*
X168250Y198727*
X167000*
X166250Y198545*
X165750Y198364*
X165250Y198000*
X165000Y197455*
Y196182*
X170250Y201455D02*
X170000Y201091D01*
X169500Y200727*
X169000Y200545*
X168250Y200364*
X167000*
X166250Y200545*
X165750Y200727*
X165250Y201091*
X165000Y201455*
Y202182*
X165250Y202545*
X165750Y202909*
X166250Y203091*
X167000Y203273*
X168250*
X169000Y203091*
X169500Y202909*
X170000Y202545*
X170250Y202182*
Y201455*
X190250Y193273D02*
X185000D01*
X190250Y192000D02*
Y194545D01*
X189000Y198909D02*
X189500Y198727D01*
X190000Y198364*
X190250Y198000*
Y197273*
X190000Y196909*
X189500Y196545*
X189000Y196364*
X188250Y196182*
X187000*
X186250Y196364*
X185750Y196545*
X185250Y196909*
X185000Y197273*
Y198000*
X185250Y198364*
X185750Y198727*
X186250Y198909*
X190250Y200545D02*
X185000D01*
X190250Y203091D02*
X186750Y200545D01*
X188000Y201455D02*
X185000Y203091D01*
X209000Y194727D02*
X209500Y194545D01*
X210000Y194182*
X210250Y193818*
Y193091*
X210000Y192727*
X209500Y192364*
X209000Y192182*
X208250Y192000*
X207000*
X206250Y192182*
X205750Y192364*
X205250Y192727*
X205000Y193091*
Y193818*
X205250Y194182*
X205750Y194545*
X206250Y194727*
X207000*
Y193818D02*
Y194727D01*
X210250Y196364D02*
X205000D01*
X210250D02*
X205000Y198909D01*
X210250D02*
X205000D01*
X210250Y200545D02*
X205000D01*
X210250D02*
Y201818D01*
X210000Y202364*
X209500Y202727*
X209000Y202909*
X208250Y203091*
X207000*
X206250Y202909*
X205750Y202727*
X205250Y202364*
X205000Y201818*
Y200545*
X221250Y191000D02*
X216000Y192455D01*
X221250Y193909D02*
X216000Y192455D01*
X220000Y198273D02*
X220500Y198091D01*
X221000Y197727*
X221250Y197364*
Y196636*
X221000Y196273*
X220500Y195909*
X220000Y195727*
X219250Y195545*
X218000*
X217250Y195727*
X216750Y195909*
X216250Y196273*
X216000Y196636*
Y197364*
X216250Y197727*
X216750Y198091*
X217250Y198273*
X220000Y202636D02*
X220500Y202455D01*
X221000Y202091*
X221250Y201727*
Y201000*
X221000Y200636*
X220500Y200273*
X220000Y200091*
X219250Y199909*
X218000*
X217250Y200091*
X216750Y200273*
X216250Y200636*
X216000Y201000*
Y201727*
X216250Y202091*
X216750Y202455*
X217250Y202636*
X205250Y159000D02*
X201500D01*
X200750Y159182*
X200250Y159545*
X200000Y160091*
Y160455*
X200250Y161000*
X200750Y161364*
X201500Y161545*
X205250*
X204500Y165727D02*
X205000Y165364D01*
X205250Y164818*
Y164091*
X205000Y163545*
X204500Y163182*
X204000*
X203500Y163364*
X203250Y163545*
X203000Y163909*
X202500Y165000*
X202250Y165364*
X202000Y165545*
X201500Y165727*
X200750*
X200250Y165364*
X200000Y164818*
Y164091*
X200250Y163545*
X200750Y163182*
X205250Y167364D02*
X200000D01*
X205250D02*
Y169000D01*
X205000Y169545*
X204750Y169727*
X204250Y169909*
X203750*
X203250Y169727*
X203000Y169545*
X202750Y169000*
Y167364D02*
Y169000D01*
X202500Y169545*
X202250Y169727*
X201750Y169909*
X201000*
X200500Y169727*
X200250Y169545*
X200000Y169000*
Y167364*
X204500Y177364D02*
X200000D01*
X202250Y175727D02*
Y179000D01*
X205250Y183000D02*
Y181182D01*
X203000Y181000*
X203250Y181182*
X203500Y181727*
Y182273*
X203250Y182818*
X202750Y183182*
X202000Y183364*
X201500Y183182*
X200750Y183000*
X200250Y182636*
X200000Y182091*
Y181545*
X200250Y181000*
X200500Y180818*
X201000Y180636*
X205250Y185000D02*
X200000Y186455D01*
X205250Y187909D02*
X200000Y186455D01*
X254250Y152000D02*
X249000Y153455D01*
X254250Y154909D02*
X249000Y153455D01*
X254250Y156545D02*
X249000D01*
X254250Y159273D02*
X254000Y158909D01*
X253500Y158545*
X253000Y158364*
X252250Y158182*
X251000*
X250250Y158364*
X249750Y158545*
X249250Y158909*
X249000Y159273*
Y160000*
X249250Y160364*
X249750Y160727*
X250250Y160909*
X251000Y161091*
X252250*
X253000Y160909*
X253500Y160727*
X254000Y160364*
X254250Y160000*
Y159273*
Y166909D02*
X249000D01*
X254250D02*
Y168545D01*
X254000Y169091*
X253750Y169273*
X253250Y169455*
X252500*
X252000Y169273*
X251750Y169091*
X251500Y168545*
Y166909*
X254250Y171091D02*
X249000Y172000D01*
X254250Y172909D02*
X249000Y172000D01*
X254250Y172909D02*
X249000Y173818D01*
X254250Y174727D02*
X249000Y173818D01*
X254250Y176364D02*
X249000D01*
X254250D02*
Y178000D01*
X254000Y178545*
X253750Y178727*
X253250Y178909*
X252750*
X252250Y178727*
X252000Y178545*
X251750Y178000*
Y176364*
Y177636D02*
X249000Y178909D01*
X246250Y152364D02*
Y154364D01*
X244250Y153273*
Y153818*
X244000Y154182*
X243750Y154364*
X243000Y154545*
X242500*
X241750Y154364*
X241250Y154000*
X241000Y153455*
Y152909*
X241250Y152364*
X241500Y152182*
X242000Y152000*
X241500Y156364D02*
X241250Y156182D01*
X241000Y156364*
X241250Y156545*
X241500Y156364*
X246250Y158545D02*
Y160545D01*
X244250Y159455*
Y160000*
X244000Y160364*
X243750Y160545*
X243000Y160727*
X242500*
X241750Y160545*
X241250Y160182*
X241000Y159636*
Y159091*
X241250Y158545*
X241500Y158364*
X242000Y158182*
X246250Y162364D02*
X241000Y163818D01*
X246250Y165273D02*
X241000Y163818D01*
X246250Y172273D02*
X241000D01*
X246250Y171000D02*
Y173545D01*
X245000Y177909D02*
X245500Y177727D01*
X246000Y177364*
X246250Y177000*
Y176273*
X246000Y175909*
X245500Y175545*
X245000Y175364*
X244250Y175182*
X243000*
X242250Y175364*
X241750Y175545*
X241250Y175909*
X241000Y176273*
Y177000*
X241250Y177364*
X241750Y177727*
X242250Y177909*
X243000*
Y177000D02*
Y177909D01*
X246250Y180818D02*
X241000D01*
X246250Y179545D02*
Y182091D01*
X157250Y109000D02*
X153500D01*
X152750Y109182*
X152250Y109545*
X152000Y110091*
Y110455*
X152250Y111000*
X152750Y111364*
X153500Y111545*
X157250*
X156500Y115727D02*
X157000Y115364D01*
X157250Y114818*
Y114091*
X157000Y113545*
X156500Y113182*
X156000*
X155500Y113364*
X155250Y113545*
X155000Y113909*
X154500Y115000*
X154250Y115364*
X154000Y115545*
X153500Y115727*
X152750*
X152250Y115364*
X152000Y114818*
Y114091*
X152250Y113545*
X152750Y113182*
X157250Y117364D02*
X152000D01*
X157250D02*
Y119000D01*
X157000Y119545*
X156750Y119727*
X156250Y119909*
X155750*
X155250Y119727*
X155000Y119545*
X154750Y119000*
Y117364D02*
Y119000D01*
X154500Y119545*
X154250Y119727*
X153750Y119909*
X153000*
X152500Y119727*
X152250Y119545*
X152000Y119000*
Y117364*
X215250Y110273D02*
X210000D01*
X215250Y109000D02*
Y111545D01*
X214000Y115909D02*
X214500Y115727D01*
X215000Y115364*
X215250Y115000*
Y114273*
X215000Y113909*
X214500Y113545*
X214000Y113364*
X213250Y113182*
X212000*
X211250Y113364*
X210750Y113545*
X210250Y113909*
X210000Y114273*
Y115000*
X210250Y115364*
X210750Y115727*
X211250Y115909*
X212000*
Y115000D02*
Y115909D01*
X215250Y118818D02*
X210000D01*
X215250Y117545D02*
Y120091D01*
X187250Y110455D02*
X182000Y109000D01*
X187250Y110455D02*
X182000Y111909D01*
X183750Y109545D02*
Y111364D01*
X186000Y116273D02*
X186500Y116091D01*
X187000Y115727*
X187250Y115364*
Y114636*
X187000Y114273*
X186500Y113909*
X186000Y113727*
X185250Y113545*
X184000*
X183250Y113727*
X182750Y113909*
X182250Y114273*
X182000Y114636*
Y115364*
X182250Y115727*
X182750Y116091*
X183250Y116273*
X187250Y119182D02*
X182000D01*
X187250Y117909D02*
Y120455D01*
X221000Y156250D02*
X218455Y151000D01*
Y156250D02*
X221000Y151000D01*
X216818Y156250D02*
X215364Y151000D01*
X213909Y156250D02*
X215364Y151000D01*
X209545Y155000D02*
X209727Y155500D01*
X210091Y156000*
X210455Y156250*
X211182*
X211545Y156000*
X211909Y155500*
X212091Y155000*
X212273Y154250*
Y153000*
X212091Y152250*
X211909Y151750*
X211545Y151250*
X211182Y151000*
X210455*
X210091Y151250*
X209727Y151750*
X209545Y152250*
X207909Y150000D02*
X204091D01*
X203000Y156250D02*
Y151000D01*
Y156250D02*
X200636D01*
X203000Y153750D02*
X201545D01*
X197727Y156250D02*
Y151000D01*
X199000Y156250D02*
X196455D01*
X194636Y155000D02*
Y155250D01*
X194455Y155750*
X194273Y156000*
X193909Y156250*
X193182*
X192818Y156000*
X192636Y155750*
X192455Y155250*
Y154750*
X192636Y154250*
X193000Y153500*
X194818Y151000*
X192273*
X190455Y155000D02*
Y155250D01*
X190273Y155750*
X190091Y156000*
X189727Y156250*
X189000*
X188636Y156000*
X188455Y155750*
X188273Y155250*
Y154750*
X188455Y154250*
X188818Y153500*
X190636Y151000*
X188091*
X185364Y156250D02*
X185909Y156000D01*
X186273Y155250*
X186455Y154000*
Y153250*
X186273Y152000*
X185909Y151250*
X185364Y151000*
X185000*
X184455Y151250*
X184091Y152000*
X183909Y153250*
Y154000*
X184091Y155250*
X184455Y156000*
X185000Y156250*
X185364*
X182273D02*
X179727Y151000D01*
Y156250D02*
X182273Y151000D01*
X177000Y156250D02*
X177545Y156000D01*
X177909Y155250*
X178091Y154000*
Y153250*
X177909Y152000*
X177545Y151250*
X177000Y151000*
X176636*
X176091Y151250*
X175727Y152000*
X175545Y153250*
Y154000*
X175727Y155250*
X176091Y156000*
X176636Y156250*
X177000*
X173727Y155000D02*
Y155250D01*
X173545Y155750*
X173364Y156000*
X173000Y156250*
X172273*
X171909Y156000*
X171727Y155750*
X171545Y155250*
Y154750*
X171727Y154250*
X172091Y153500*
X173909Y151000*
X171364*
X168273Y156250D02*
X169727Y151000D01*
X168273Y156250D02*
X166818Y151000D01*
X169182Y152750D02*
X167364D01*
X212000Y137250D02*
X211091Y132000D01*
X210182Y137250D02*
X211091Y132000D01*
X210182Y137250D02*
X209273Y132000D01*
X208364Y137250D02*
X209273Y132000D01*
X206727Y137250D02*
X205818Y132000D01*
X204909Y137250D02*
X205818Y132000D01*
X204909Y137250D02*
X204000Y132000D01*
X203091Y137250D02*
X204000Y132000D01*
X201455Y137250D02*
X200545Y132000D01*
X199636Y137250D02*
X200545Y132000D01*
X199636Y137250D02*
X198727Y132000D01*
X197818Y137250D02*
X198727Y132000D01*
X196000Y132500D02*
X196182Y132250D01*
X196000Y132000*
X195818Y132250*
X196000Y132500*
X194182Y137250D02*
Y132000D01*
Y137250D02*
X192727Y132000D01*
X191273Y137250D02*
X192727Y132000D01*
X191273Y137250D02*
Y132000D01*
X189636Y137250D02*
Y132000D01*
X187455*
X184364Y137250D02*
X185818Y132000D01*
X184364Y137250D02*
X182909Y132000D01*
X185273Y133750D02*
X183455D01*
X181273Y137250D02*
Y132000D01*
Y137250D02*
X179636D01*
X179091Y137000*
X178909Y136750*
X178727Y136250*
Y135750*
X178909Y135250*
X179091Y135000*
X179636Y134750*
X181273D02*
X179636D01*
X179091Y134500*
X178909Y134250*
X178727Y133750*
Y133000*
X178909Y132500*
X179091Y132250*
X179636Y132000*
X181273*
X176909Y132500D02*
X177091Y132250D01*
X176909Y132000*
X176727Y132250*
X176909Y132500*
X172364Y136000D02*
X172545Y136500D01*
X172909Y137000*
X173273Y137250*
X174000*
X174364Y137000*
X174727Y136500*
X174909Y136000*
X175091Y135250*
Y134000*
X174909Y133250*
X174727Y132750*
X174364Y132250*
X174000Y132000*
X173273*
X172909Y132250*
X172545Y132750*
X172364Y133250*
X168182Y137250D02*
X170727Y132000D01*
Y137250D02*
X168182D01*
X170727Y132000D02*
X168182D01*
X253727Y138250D02*
X254091Y137750D01*
X254455Y137000*
X254818Y136000*
X255000Y134750*
Y133750*
X254818Y132500*
X254455Y131500*
X254091Y130750*
X253727Y130250*
X249909Y134750D02*
X250273Y135250D01*
X250636Y135500*
X251182*
X251545Y135250*
X251909Y134750*
X252091Y134000*
Y133500*
X251909Y132750*
X251545Y132250*
X251182Y132000*
X250636*
X250273Y132250*
X249909Y132750*
X248273Y138250D02*
X247909Y137750D01*
X247545Y137000*
X247182Y136000*
X247000Y134750*
Y133750*
X247182Y132500*
X247545Y131500*
X247909Y130750*
X248273Y130250*
X245364Y135500D02*
Y132000D01*
Y134500D02*
X244818Y135250D01*
X244455Y135500*
X243909*
X243545Y135250*
X243364Y134500*
Y132000*
Y134500D02*
X242818Y135250D01*
X242455Y135500*
X241909*
X241545Y135250*
X241364Y134500*
Y132000*
X239727Y137250D02*
X239545Y137000D01*
X239364Y137250*
X239545Y137500*
X239727Y137250*
X239545Y135500D02*
Y132000D01*
X237727Y137250D02*
Y132000D01*
Y134500D02*
X237182Y135250D01*
X236818Y135500*
X236273*
X235909Y135250*
X235727Y134500*
Y132000*
X233182Y135500D02*
X233545Y135250D01*
X233909Y134750*
X234091Y134000*
Y133500*
X233909Y132750*
X233545Y132250*
X233182Y132000*
X232636*
X232273Y132250*
X231909Y132750*
X231727Y133500*
Y134000*
X231909Y134750*
X232273Y135250*
X232636Y135500*
X233182*
X229909Y136000D02*
Y136250D01*
X229727Y136750*
X229545Y137000*
X229182Y137250*
X228455*
X228091Y137000*
X227909Y136750*
X227727Y136250*
Y135750*
X227909Y135250*
X228273Y134500*
X230091Y132000*
X227545*
X224818Y137250D02*
X225364Y137000D01*
X225727Y136250*
X225909Y135000*
Y134250*
X225727Y133000*
X225364Y132250*
X224818Y132000*
X224455*
X223909Y132250*
X223545Y133000*
X223364Y134250*
Y135000*
X223545Y136250*
X223909Y137000*
X224455Y137250*
X224818*
X221727Y136250D02*
X221364Y136500D01*
X220818Y137250*
Y132000*
X218818Y137250D02*
X216818D01*
X217909Y135250*
X217364*
X217000Y135000*
X216818Y134750*
X216636Y134000*
Y133500*
X216818Y132750*
X217182Y132250*
X217727Y132000*
X218273*
X218818Y132250*
X219000Y132500*
X219182Y133000*
X236000Y174000D02*
X238000D01*
Y166000*
X236000*
Y163000D02*
X238000D01*
Y155000*
X236000*
X0Y0D02*
M02*
