G04 #@! TF.FileFunction,Copper,L2,Bot,Signal*
%FSLAX46Y46*%
G04 Gerber Fmt 4.6, Leading zero omitted, Abs format (unit mm)*
G04 Created by KiCad (PCBNEW (2016-09-17 revision 679eef1)-makepkg) date 01/31/17 07:19:42*
%MOMM*%
%LPD*%
G01*
G04 APERTURE LIST*
%ADD10C,0.150000*%
%ADD11C,0.300000*%
%ADD12R,0.889000X1.397000*%
%ADD13R,1.397000X0.889000*%
%ADD14R,2.499360X2.550160*%
%ADD15R,2.301240X2.499360*%
%ADD16C,2.700000*%
%ADD17C,2.500000*%
%ADD18R,3.810000X1.397000*%
%ADD19C,6.000000*%
%ADD20C,0.800000*%
%ADD21C,0.900000*%
%ADD22C,0.400000*%
%ADD23C,0.254000*%
G04 APERTURE END LIST*
D10*
D11*
X27284285Y10219428D02*
X27284285Y9148000D01*
X27355714Y8933714D01*
X27498571Y8790857D01*
X27712857Y8719428D01*
X27855714Y8719428D01*
X26641428Y9148000D02*
X25927142Y9148000D01*
X26784285Y8719428D02*
X26284285Y10219428D01*
X25784285Y8719428D01*
X24427142Y8862285D02*
X24498571Y8790857D01*
X24712857Y8719428D01*
X24855714Y8719428D01*
X25070000Y8790857D01*
X25212857Y8933714D01*
X25284285Y9076571D01*
X25355714Y9362285D01*
X25355714Y9576571D01*
X25284285Y9862285D01*
X25212857Y10005142D01*
X25070000Y10148000D01*
X24855714Y10219428D01*
X24712857Y10219428D01*
X24498571Y10148000D01*
X24427142Y10076571D01*
X23784285Y8719428D02*
X23784285Y10219428D01*
X23784285Y9505142D02*
X22927142Y9505142D01*
X22927142Y8719428D02*
X22927142Y10219428D01*
X21927142Y10219428D02*
X21641428Y10219428D01*
X21498571Y10148000D01*
X21355714Y10005142D01*
X21284285Y9719428D01*
X21284285Y9219428D01*
X21355714Y8933714D01*
X21498571Y8790857D01*
X21641428Y8719428D01*
X21927142Y8719428D01*
X22070000Y8790857D01*
X22212857Y8933714D01*
X22284285Y9219428D01*
X22284285Y9719428D01*
X22212857Y10005142D01*
X22070000Y10148000D01*
X21927142Y10219428D01*
X20570000Y8790857D02*
X20570000Y8719428D01*
X20641428Y8576571D01*
X20712857Y8505142D01*
X19927142Y8719428D02*
X19927142Y10219428D01*
X19070000Y8719428D02*
X19712857Y9576571D01*
X19070000Y10219428D02*
X19927142Y9362285D01*
X18498571Y9148000D02*
X17784285Y9148000D01*
X18641428Y8719428D02*
X18141428Y10219428D01*
X17641428Y8719428D01*
X17141428Y8719428D02*
X17141428Y10219428D01*
X16284285Y8719428D02*
X16927142Y9576571D01*
X16284285Y10219428D02*
X17141428Y9362285D01*
X14927142Y8719428D02*
X15641428Y8719428D01*
X15641428Y10219428D01*
X14427142Y8719428D02*
X14427142Y10219428D01*
X13712857Y8719428D02*
X13712857Y10219428D01*
X12855714Y8719428D02*
X13498571Y9576571D01*
X12855714Y10219428D02*
X13712857Y9362285D01*
X22891428Y7028571D02*
X22820000Y7100000D01*
X22677142Y7171428D01*
X22320000Y7171428D01*
X22177142Y7100000D01*
X22105714Y7028571D01*
X22034285Y6885714D01*
X22034285Y6742857D01*
X22105714Y6528571D01*
X22962857Y5671428D01*
X22034285Y5671428D01*
X21105714Y7171428D02*
X20962857Y7171428D01*
X20820000Y7100000D01*
X20748571Y7028571D01*
X20677142Y6885714D01*
X20605714Y6600000D01*
X20605714Y6242857D01*
X20677142Y5957142D01*
X20748571Y5814285D01*
X20820000Y5742857D01*
X20962857Y5671428D01*
X21105714Y5671428D01*
X21248571Y5742857D01*
X21320000Y5814285D01*
X21391428Y5957142D01*
X21462857Y6242857D01*
X21462857Y6600000D01*
X21391428Y6885714D01*
X21320000Y7028571D01*
X21248571Y7100000D01*
X21105714Y7171428D01*
X19177142Y5671428D02*
X20034285Y5671428D01*
X19605714Y5671428D02*
X19605714Y7171428D01*
X19748571Y6957142D01*
X19891428Y6814285D01*
X20034285Y6742857D01*
X18677142Y7171428D02*
X17677142Y7171428D01*
X18320000Y5671428D01*
X47525428Y6457142D02*
X47311142Y6385714D01*
X47239714Y6314285D01*
X47168285Y6171428D01*
X47168285Y5957142D01*
X47239714Y5814285D01*
X47311142Y5742857D01*
X47454000Y5671428D01*
X48025428Y5671428D01*
X48025428Y7171428D01*
X47525428Y7171428D01*
X47382571Y7100000D01*
X47311142Y7028571D01*
X47239714Y6885714D01*
X47239714Y6742857D01*
X47311142Y6600000D01*
X47382571Y6528571D01*
X47525428Y6457142D01*
X48025428Y6457142D01*
X46525428Y5671428D02*
X46525428Y7171428D01*
X45954000Y7171428D01*
X45811142Y7100000D01*
X45739714Y7028571D01*
X45668285Y6885714D01*
X45668285Y6671428D01*
X45739714Y6528571D01*
X45811142Y6457142D01*
X45954000Y6385714D01*
X46525428Y6385714D01*
X44739714Y7171428D02*
X44596857Y7171428D01*
X44454000Y7100000D01*
X44382571Y7028571D01*
X44311142Y6885714D01*
X44239714Y6600000D01*
X44239714Y6242857D01*
X44311142Y5957142D01*
X44382571Y5814285D01*
X44454000Y5742857D01*
X44596857Y5671428D01*
X44739714Y5671428D01*
X44882571Y5742857D01*
X44954000Y5814285D01*
X45025428Y5957142D01*
X45096857Y6242857D01*
X45096857Y6600000D01*
X45025428Y6885714D01*
X44954000Y7028571D01*
X44882571Y7100000D01*
X44739714Y7171428D01*
X42811142Y5671428D02*
X43668285Y5671428D01*
X43239714Y5671428D02*
X43239714Y7171428D01*
X43382571Y6957142D01*
X43525428Y6814285D01*
X43668285Y6742857D01*
X41668285Y6457142D02*
X41454000Y6385714D01*
X41382571Y6314285D01*
X41311142Y6171428D01*
X41311142Y5957142D01*
X41382571Y5814285D01*
X41454000Y5742857D01*
X41596857Y5671428D01*
X42168285Y5671428D01*
X42168285Y7171428D01*
X41668285Y7171428D01*
X41525428Y7100000D01*
X41454000Y7028571D01*
X41382571Y6885714D01*
X41382571Y6742857D01*
X41454000Y6600000D01*
X41525428Y6528571D01*
X41668285Y6457142D01*
X42168285Y6457142D01*
X49025428Y8719428D02*
X49025428Y10219428D01*
X48525428Y9148000D01*
X48025428Y10219428D01*
X48025428Y8719428D01*
X46596857Y8719428D02*
X47311142Y8719428D01*
X47311142Y10219428D01*
X46168285Y9148000D02*
X45454000Y9148000D01*
X46311142Y8719428D02*
X45811142Y10219428D01*
X45311142Y8719428D01*
X44311142Y9505142D02*
X44096857Y9433714D01*
X44025428Y9362285D01*
X43954000Y9219428D01*
X43954000Y9005142D01*
X44025428Y8862285D01*
X44096857Y8790857D01*
X44239714Y8719428D01*
X44811142Y8719428D01*
X44811142Y10219428D01*
X44311142Y10219428D01*
X44168285Y10148000D01*
X44096857Y10076571D01*
X44025428Y9933714D01*
X44025428Y9790857D01*
X44096857Y9648000D01*
X44168285Y9576571D01*
X44311142Y9505142D01*
X44811142Y9505142D01*
X43311142Y8862285D02*
X43239714Y8790857D01*
X43311142Y8719428D01*
X43382571Y8790857D01*
X43311142Y8862285D01*
X43311142Y8719428D01*
X41739714Y8862285D02*
X41811142Y8790857D01*
X42025428Y8719428D01*
X42168285Y8719428D01*
X42382571Y8790857D01*
X42525428Y8933714D01*
X42596857Y9076571D01*
X42668285Y9362285D01*
X42668285Y9576571D01*
X42596857Y9862285D01*
X42525428Y10005142D01*
X42382571Y10148000D01*
X42168285Y10219428D01*
X42025428Y10219428D01*
X41811142Y10148000D01*
X41739714Y10076571D01*
X41239714Y10219428D02*
X40239714Y10219428D01*
X41239714Y8719428D01*
X40239714Y8719428D01*
D12*
X15049500Y20320000D03*
X16954500Y20320000D03*
D13*
X21590000Y31686500D03*
X21590000Y29781500D03*
X24130000Y20256500D03*
X24130000Y18351500D03*
X24384000Y29781500D03*
X24384000Y31686500D03*
D12*
X27876500Y20320000D03*
X25971500Y20320000D03*
D13*
X31750000Y18351500D03*
X31750000Y20256500D03*
D12*
X35496500Y20320000D03*
X33591500Y20320000D03*
D14*
X34290000Y34274760D03*
X34290000Y29225240D03*
D13*
X39370000Y20256500D03*
X39370000Y18351500D03*
X37592000Y29527500D03*
X37592000Y31432500D03*
X40132000Y31432500D03*
X40132000Y29527500D03*
D12*
X44513500Y20320000D03*
X46418500Y20320000D03*
D15*
X29210000Y29601160D03*
X29210000Y33898840D03*
D16*
X12700000Y22860000D03*
X7620000Y22860000D03*
X7620000Y17780000D03*
X12700000Y17780000D03*
D17*
X10160000Y20320000D03*
X50800000Y20320000D03*
D16*
X53340000Y17780000D03*
X48260000Y17780000D03*
X48260000Y22860000D03*
X53340000Y22860000D03*
D18*
X17526000Y24892000D03*
X17526000Y29464000D03*
D12*
X20256500Y20320000D03*
X18351500Y20320000D03*
D13*
X22098000Y20256500D03*
X22098000Y18351500D03*
D12*
X25971500Y22352000D03*
X27876500Y22352000D03*
D13*
X29718000Y20256500D03*
X29718000Y18351500D03*
D12*
X33591500Y22352000D03*
X35496500Y22352000D03*
D13*
X37338000Y18351500D03*
X37338000Y20256500D03*
D12*
X43116500Y20320000D03*
X41211500Y20320000D03*
D18*
X43688000Y29464000D03*
X43688000Y24892000D03*
D19*
X55880000Y5080000D03*
X5080000Y5080000D03*
X55880000Y35560000D03*
X5080000Y35560000D03*
D20*
X14986000Y17526000D03*
X14986000Y16256000D03*
X13716000Y15748000D03*
X12446000Y15748000D03*
X11176000Y15748000D03*
X9906000Y15748000D03*
X8636000Y15748000D03*
X7366000Y15748000D03*
X6096000Y15748000D03*
X5588000Y16764000D03*
X5588000Y18034000D03*
X5588000Y19304000D03*
X5588000Y20574000D03*
X5588000Y21843994D03*
X5588000Y23114000D03*
X5588000Y24384000D03*
X7112000Y24892000D03*
X8382000Y24892000D03*
X9652000Y24892000D03*
X10922000Y24892000D03*
X12192000Y24892000D03*
X13462000Y24892000D03*
X55372000Y24638000D03*
X55626000Y23622000D03*
X55626000Y22352000D03*
X55626000Y21082000D03*
X55626000Y19812000D03*
X55626000Y18542000D03*
X55626000Y17272000D03*
X55626000Y16002000D03*
X54864000Y15240000D03*
X53594000Y15240000D03*
X52324000Y15240000D03*
X51054000Y15240000D03*
X49784000Y15240000D03*
X48514000Y15240000D03*
X47244000Y15240000D03*
X46228000Y16002000D03*
X46228000Y17272000D03*
X54356000Y25146000D03*
X53086000Y25146000D03*
X51816000Y25146000D03*
X50546000Y25146000D03*
X49276000Y25146000D03*
X48006000Y25146000D03*
X32258000Y33020000D03*
X30988000Y33020000D03*
X27432000Y33020000D03*
X41910000Y27686000D03*
X41148000Y28194000D03*
X40132000Y28194000D03*
X38862000Y28194000D03*
X37592000Y28194000D03*
X36322000Y27178000D03*
X36322000Y28194000D03*
X35306000Y26924000D03*
X34036004Y26924000D03*
X32766000Y26924000D03*
X32258000Y27940000D03*
X31242000Y27940000D03*
X29972000Y27432000D03*
X28702000Y27432000D03*
X27432000Y27432000D03*
X27178000Y28448000D03*
X25908000Y28448000D03*
X24638000Y28448000D03*
X23368000Y28448000D03*
X22098000Y28448000D03*
X20828000Y28448000D03*
X20066000Y27686000D03*
X46482000Y27432000D03*
X46482000Y28448000D03*
X46482000Y29718000D03*
X46482000Y30988000D03*
X44958000Y30988000D03*
X43688000Y30988000D03*
X42418000Y30988000D03*
X41656000Y31750000D03*
X41656000Y32766000D03*
X40386000Y32766000D03*
X39116000Y32766000D03*
X37846000Y32766000D03*
X36576000Y33020000D03*
X36576000Y34290000D03*
X14732000Y27432000D03*
X14732000Y28448000D03*
X14732000Y29718000D03*
X14732000Y30988000D03*
X16256000Y30988000D03*
X17526000Y30988000D03*
X18796000Y30988000D03*
X20066000Y31750000D03*
X20066000Y33020000D03*
X21336000Y33020000D03*
X22606000Y33020000D03*
X23876000Y33020000D03*
X25146000Y33020000D03*
X27432008Y31750000D03*
X32258000Y31750000D03*
X30988000Y31750000D03*
X25908000Y31750000D03*
X46736000Y24384000D03*
X46736000Y25400000D03*
X46228000Y26416000D03*
X44958000Y26670000D03*
X43434000Y26670000D03*
X42164000Y26670000D03*
X40894000Y26416000D03*
X40894000Y24892000D03*
X40894000Y23368000D03*
X42926000Y22098000D03*
X41656000Y22098000D03*
X40386000Y22098000D03*
X39116000Y21590000D03*
X37846000Y21590000D03*
X36830000Y21844000D03*
X36830000Y23114000D03*
X36068000Y23876000D03*
X34798000Y23876000D03*
X33528000Y23876000D03*
X32512000Y23876000D03*
X32258000Y22606000D03*
X31750000Y21590000D03*
X30480000Y21590000D03*
X29209994Y22860000D03*
X29210000Y21590000D03*
X28956000Y24130000D03*
X27686000Y24130000D03*
X26416000Y24130000D03*
X25146000Y24130000D03*
X24384000Y23368000D03*
X24384000Y22098000D03*
X22860000Y22098000D03*
X21590000Y22098000D03*
X20320000Y22098000D03*
X20320000Y23368000D03*
X20320000Y24638000D03*
X20320000Y25908000D03*
X19558000Y26670000D03*
X18288000Y26670000D03*
X17018000Y26670000D03*
X15748000Y26670000D03*
X14732000Y26162000D03*
X14732000Y24892000D03*
X14732000Y23622000D03*
X46228000Y18542000D03*
X44958000Y18542000D03*
X43688000Y18542000D03*
X42418000Y18542000D03*
X41148000Y18542000D03*
X41148000Y17526000D03*
X40132000Y16764000D03*
X38862000Y16764000D03*
X37592000Y16764000D03*
X36322000Y16764000D03*
X35814000Y17780000D03*
X35814000Y18796000D03*
X34798000Y18796000D03*
X33528000Y18796000D03*
X33528000Y17780000D03*
X32766000Y17018000D03*
X31750000Y17018000D03*
X30480000Y17018000D03*
X29464000Y17018000D03*
X28448000Y17272000D03*
X28194000Y18288000D03*
X26924000Y18288000D03*
X25654000Y18288000D03*
X25400000Y17018000D03*
X24130000Y17018000D03*
X22860000Y17018000D03*
X20320000Y17272000D03*
X21590000Y17018000D03*
X20066000Y18542000D03*
X18796000Y18542000D03*
X17526000Y18542000D03*
X16256000Y18542000D03*
X14986000Y18542000D03*
D21*
X18351500Y20320000D02*
X16954500Y20320000D01*
X10160000Y20320000D02*
X15049500Y20320000D01*
X15049500Y20320000D02*
X15049500Y21590000D01*
X17092500Y22860000D02*
X16319500Y22860000D01*
X16319500Y22860000D02*
X15049500Y21590000D01*
X17526000Y24892000D02*
X17526000Y23293500D01*
X17526000Y23293500D02*
X17092500Y22860000D01*
X40132000Y29527500D02*
X43624500Y29527500D01*
X43624500Y29527500D02*
X43688000Y29464000D01*
X40132000Y29527500D02*
X37592000Y29527500D01*
X37592000Y29527500D02*
X34592260Y29527500D01*
X34592260Y29527500D02*
X34290000Y29225240D01*
X29210000Y29601160D02*
X33914080Y29601160D01*
X33914080Y29601160D02*
X34290000Y29225240D01*
X24384000Y29781500D02*
X29029660Y29781500D01*
X29029660Y29781500D02*
X29210000Y29601160D01*
X21590000Y29781500D02*
X24384000Y29781500D01*
X21590000Y29781500D02*
X17843500Y29781500D01*
X17843500Y29781500D02*
X17526000Y29464000D01*
D22*
X13716000Y15748000D02*
X14478000Y15748000D01*
X14478000Y15748000D02*
X14986000Y16256000D01*
X11176000Y15748000D02*
X12446000Y15748000D01*
X8636000Y15748000D02*
X9906000Y15748000D01*
X6096000Y15748000D02*
X7366000Y15748000D01*
X5588000Y18034000D02*
X5588000Y16764000D01*
X5588000Y20574000D02*
X5588000Y19304000D01*
X5588000Y23114000D02*
X5588000Y21843994D01*
X7112000Y24892000D02*
X6096000Y24892000D01*
X6096000Y24892000D02*
X5588000Y24384000D01*
X9652000Y24892000D02*
X8382000Y24892000D01*
X12192000Y24892000D02*
X10922000Y24892000D01*
X14732000Y24892000D02*
X13462000Y24892000D01*
X55626000Y22352000D02*
X55626000Y23622000D01*
X55626000Y19812000D02*
X55626000Y21082000D01*
X55626000Y17272000D02*
X55626000Y18542000D01*
X54864000Y15240000D02*
X55626000Y16002000D01*
X52324000Y15240000D02*
X53594000Y15240000D01*
X49784000Y15240000D02*
X51054000Y15240000D01*
X47244000Y15240000D02*
X48514000Y15240000D01*
X46228000Y17272000D02*
X46228000Y16002000D01*
X53086000Y25146000D02*
X54356000Y25146000D01*
X50546000Y25146000D02*
X51816000Y25146000D01*
X48006000Y25146000D02*
X49276000Y25146000D01*
X30988000Y33020000D02*
X32258000Y33020000D01*
X27432008Y31750000D02*
X27432008Y33019992D01*
X27432008Y33019992D02*
X27432000Y33020000D01*
X40132000Y28194000D02*
X41148000Y28194000D01*
X37592000Y28194000D02*
X38862000Y28194000D01*
X36322000Y28194000D02*
X36322000Y27178000D01*
X34036004Y26924000D02*
X35306000Y26924000D01*
X32258000Y27940000D02*
X32258000Y27432000D01*
X32258000Y27432000D02*
X32766000Y26924000D01*
X29972000Y27432000D02*
X30734000Y27432000D01*
X30734000Y27432000D02*
X31242000Y27940000D01*
X27432000Y27432000D02*
X28702000Y27432000D01*
X25908000Y28448000D02*
X27178000Y28448000D01*
X23368000Y28448000D02*
X24638000Y28448000D01*
X20828000Y28448000D02*
X22098000Y28448000D01*
X14732000Y28448000D02*
X15494000Y27686000D01*
X15494000Y27686000D02*
X20066000Y27686000D01*
X46482000Y29718000D02*
X46482000Y28448000D01*
X44958000Y30988000D02*
X46482000Y30988000D01*
X42418000Y30988000D02*
X43688000Y30988000D01*
X41656000Y32766000D02*
X41656000Y31750000D01*
X39116000Y32766000D02*
X40386000Y32766000D01*
X36576000Y33020000D02*
X37592000Y33020000D01*
X37592000Y33020000D02*
X37846000Y32766000D01*
X34290000Y34274760D02*
X36560760Y34274760D01*
X36560760Y34274760D02*
X36576000Y34290000D01*
X14732000Y28448000D02*
X14732000Y27432000D01*
X14732000Y30988000D02*
X14732000Y29718000D01*
X17526000Y30988000D02*
X16256000Y30988000D01*
X20066000Y31750000D02*
X19558000Y31750000D01*
X19558000Y31750000D02*
X18796000Y30988000D01*
X21336000Y33020000D02*
X20066000Y33020000D01*
X23876000Y33020000D02*
X22606000Y33020000D01*
X25908000Y31750000D02*
X25908000Y32258000D01*
X25908000Y32258000D02*
X25146000Y33020000D01*
X30988000Y31750000D02*
X27432008Y31750000D01*
X30226000Y31750000D02*
X32258000Y31750000D01*
X31438315Y31750000D02*
X32258000Y31750000D01*
X29210000Y32766000D02*
X30226000Y31750000D01*
X30226000Y31750000D02*
X31438315Y31750000D01*
X29210000Y33898840D02*
X29210000Y33799780D01*
X31259780Y31750000D02*
X31438315Y31750000D01*
X29210000Y33799780D02*
X31259780Y31750000D01*
X46736000Y25400000D02*
X46736000Y24384000D01*
X44958000Y26670000D02*
X45974000Y26670000D01*
X45974000Y26670000D02*
X46228000Y26416000D01*
X42164000Y26670000D02*
X43434000Y26670000D01*
X40894000Y24892000D02*
X40894000Y26416000D01*
X40386000Y22098000D02*
X40386000Y22860000D01*
X40386000Y22860000D02*
X40894000Y23368000D01*
X40386000Y22098000D02*
X41656000Y22098000D01*
X37846000Y21590000D02*
X39116000Y21590000D01*
X36830000Y23114000D02*
X36830000Y21844000D01*
X34798000Y23876000D02*
X36068000Y23876000D01*
X32512000Y23876000D02*
X33528000Y23876000D01*
X31750000Y21590000D02*
X31750000Y22098000D01*
X31750000Y22098000D02*
X32258000Y22606000D01*
X29210000Y21590000D02*
X30480000Y21590000D01*
X29210000Y22860000D02*
X29209994Y22860000D01*
X29718000Y23368000D02*
X29210000Y22860000D01*
X28956000Y24130000D02*
X29718000Y23368000D01*
X26416000Y24130000D02*
X27686000Y24130000D01*
X24384000Y23368000D02*
X25146000Y24130000D01*
X22860000Y22098000D02*
X24384000Y22098000D01*
X20320000Y22098000D02*
X21590000Y22098000D01*
X20320000Y24638000D02*
X20320000Y23368000D01*
X19558000Y26670000D02*
X20320000Y25908000D01*
X17018000Y26670000D02*
X18288000Y26670000D01*
X14732000Y26162000D02*
X15240000Y26162000D01*
X15240000Y26162000D02*
X15748000Y26670000D01*
X14732000Y23622000D02*
X14732000Y24892000D01*
X44958000Y18542000D02*
X46228000Y18542000D01*
X42418000Y18542000D02*
X43688000Y18542000D01*
X41148000Y17526000D02*
X41148000Y18542000D01*
X38862000Y16764000D02*
X40132000Y16764000D01*
X36322000Y16764000D02*
X37592000Y16764000D01*
X35814000Y18796000D02*
X35814000Y17780000D01*
X33528000Y18796000D02*
X34798000Y18796000D01*
X32766000Y17018000D02*
X33528000Y17780000D01*
X30480000Y17018000D02*
X31750000Y17018000D01*
X28448000Y17272000D02*
X29210000Y17272000D01*
X29210000Y17272000D02*
X29464000Y17018000D01*
X26924000Y18288000D02*
X28194000Y18288000D01*
X25400000Y17018000D02*
X25400000Y18034000D01*
X25400000Y18034000D02*
X25654000Y18288000D01*
X22860000Y17018000D02*
X24130000Y17018000D01*
X20574000Y17018000D02*
X20320000Y17272000D01*
X21590000Y17018000D02*
X20574000Y17018000D01*
X21336000Y17272000D02*
X20320000Y17272000D01*
X18796000Y18542000D02*
X20066000Y18542000D01*
X16256000Y18542000D02*
X17526000Y18542000D01*
X12700000Y17780000D02*
X14224000Y17780000D01*
X14224000Y17780000D02*
X14986000Y18542000D01*
D21*
X25971500Y22352000D02*
X25971500Y20320000D01*
X24130000Y20256500D02*
X25908000Y20256500D01*
X25908000Y20256500D02*
X25971500Y20320000D01*
X24130000Y20256500D02*
X22098000Y20256500D01*
X22098000Y20256500D02*
X20320000Y20256500D01*
X20320000Y20256500D02*
X20256500Y20320000D01*
X33591500Y20320000D02*
X33591500Y22352000D01*
X31750000Y20256500D02*
X33528000Y20256500D01*
X33528000Y20256500D02*
X33591500Y20320000D01*
X31750000Y20256500D02*
X29718000Y20256500D01*
X29718000Y20256500D02*
X27940000Y20256500D01*
X27940000Y20256500D02*
X27876500Y20320000D01*
X27876500Y22352000D02*
X27876500Y20320000D01*
X35496500Y20320000D02*
X35496500Y22352000D01*
X39370000Y20256500D02*
X41148000Y20256500D01*
X41148000Y20256500D02*
X41211500Y20320000D01*
X39370000Y20256500D02*
X37338000Y20256500D01*
X37338000Y20256500D02*
X35560000Y20256500D01*
X35560000Y20256500D02*
X35496500Y20320000D01*
X43688000Y24892000D02*
X43688000Y23293500D01*
X43688000Y23293500D02*
X44121500Y22860000D01*
X46418500Y21501100D02*
X46418500Y20320000D01*
X44121500Y22860000D02*
X45059600Y22860000D01*
X45059600Y22860000D02*
X46418500Y21501100D01*
X46418500Y20320000D02*
X50800000Y20320000D01*
X43116500Y20320000D02*
X44513500Y20320000D01*
D23*
G36*
X60204000Y756000D02*
X756000Y756000D01*
X756000Y10980000D01*
X11993000Y10980000D01*
X11993000Y7576000D01*
X16885857Y7576000D01*
X16885857Y4528000D01*
X23754143Y4528000D01*
X23754143Y7576000D01*
X28647000Y7576000D01*
X28647000Y10980000D01*
X39448429Y10980000D01*
X39448429Y7576000D01*
X40448429Y7576000D01*
X40448429Y4528000D01*
X48959572Y4528000D01*
X48959572Y7576000D01*
X49959572Y7576000D01*
X49959572Y10980000D01*
X39448429Y10980000D01*
X28647000Y10980000D01*
X11993000Y10980000D01*
X756000Y10980000D01*
X756000Y19987888D01*
X8482710Y19987888D01*
X8737480Y19371297D01*
X9208816Y18899138D01*
X9824961Y18643292D01*
X10492112Y18642710D01*
X11108703Y18897480D01*
X11580862Y19368816D01*
X11611666Y19443000D01*
X14210722Y19443000D01*
X14297150Y19313650D01*
X14438393Y19219275D01*
X14605000Y19186135D01*
X15494000Y19186135D01*
X15660607Y19219275D01*
X15801850Y19313650D01*
X15896225Y19454893D01*
X15929365Y19621500D01*
X15929365Y21018500D01*
X16074635Y21018500D01*
X16074635Y19621500D01*
X16107775Y19454893D01*
X16202150Y19313650D01*
X16343393Y19219275D01*
X16510000Y19186135D01*
X17399000Y19186135D01*
X17565607Y19219275D01*
X17653000Y19277669D01*
X17740393Y19219275D01*
X17907000Y19186135D01*
X18796000Y19186135D01*
X18962607Y19219275D01*
X19103850Y19313650D01*
X19198225Y19454893D01*
X19231365Y19621500D01*
X19231365Y21018500D01*
X19376635Y21018500D01*
X19376635Y19621500D01*
X19409775Y19454893D01*
X19504150Y19313650D01*
X19645393Y19219275D01*
X19812000Y19186135D01*
X20701000Y19186135D01*
X20867607Y19219275D01*
X21008850Y19313650D01*
X21052849Y19379500D01*
X21385097Y19379500D01*
X21399500Y19376635D01*
X22796500Y19376635D01*
X22810903Y19379500D01*
X23417097Y19379500D01*
X23431500Y19376635D01*
X24828500Y19376635D01*
X24842903Y19379500D01*
X25175151Y19379500D01*
X25219150Y19313650D01*
X25360393Y19219275D01*
X25527000Y19186135D01*
X26416000Y19186135D01*
X26582607Y19219275D01*
X26723850Y19313650D01*
X26818225Y19454893D01*
X26851365Y19621500D01*
X26851365Y21018500D01*
X26848500Y21032903D01*
X26848500Y21639097D01*
X26851365Y21653500D01*
X26851365Y23050500D01*
X26996635Y23050500D01*
X26996635Y21653500D01*
X26999500Y21639097D01*
X26999500Y21032903D01*
X26996635Y21018500D01*
X26996635Y19621500D01*
X27029775Y19454893D01*
X27124150Y19313650D01*
X27265393Y19219275D01*
X27432000Y19186135D01*
X28321000Y19186135D01*
X28487607Y19219275D01*
X28628850Y19313650D01*
X28672849Y19379500D01*
X29005097Y19379500D01*
X29019500Y19376635D01*
X30416500Y19376635D01*
X30430903Y19379500D01*
X31037097Y19379500D01*
X31051500Y19376635D01*
X32448500Y19376635D01*
X32462903Y19379500D01*
X32795151Y19379500D01*
X32839150Y19313650D01*
X32980393Y19219275D01*
X33147000Y19186135D01*
X34036000Y19186135D01*
X34202607Y19219275D01*
X34343850Y19313650D01*
X34438225Y19454893D01*
X34471365Y19621500D01*
X34471365Y21018500D01*
X34468500Y21032903D01*
X34468500Y21639097D01*
X34471365Y21653500D01*
X34471365Y23050500D01*
X34616635Y23050500D01*
X34616635Y21653500D01*
X34619500Y21639097D01*
X34619500Y21032903D01*
X34616635Y21018500D01*
X34616635Y19621500D01*
X34649775Y19454893D01*
X34744150Y19313650D01*
X34885393Y19219275D01*
X35052000Y19186135D01*
X35941000Y19186135D01*
X36107607Y19219275D01*
X36248850Y19313650D01*
X36292849Y19379500D01*
X36625097Y19379500D01*
X36639500Y19376635D01*
X38036500Y19376635D01*
X38050903Y19379500D01*
X38657097Y19379500D01*
X38671500Y19376635D01*
X40068500Y19376635D01*
X40082903Y19379500D01*
X40415151Y19379500D01*
X40459150Y19313650D01*
X40600393Y19219275D01*
X40767000Y19186135D01*
X41656000Y19186135D01*
X41822607Y19219275D01*
X41963850Y19313650D01*
X42058225Y19454893D01*
X42091365Y19621500D01*
X42091365Y21018500D01*
X42236635Y21018500D01*
X42236635Y19621500D01*
X42269775Y19454893D01*
X42364150Y19313650D01*
X42505393Y19219275D01*
X42672000Y19186135D01*
X43561000Y19186135D01*
X43727607Y19219275D01*
X43815000Y19277669D01*
X43902393Y19219275D01*
X44069000Y19186135D01*
X44958000Y19186135D01*
X45124607Y19219275D01*
X45265850Y19313650D01*
X45360225Y19454893D01*
X45393365Y19621500D01*
X45393365Y21018500D01*
X45360225Y21185107D01*
X45265850Y21326350D01*
X45124607Y21420725D01*
X44958000Y21453865D01*
X44069000Y21453865D01*
X43902393Y21420725D01*
X43815000Y21362331D01*
X43727607Y21420725D01*
X43561000Y21453865D01*
X42672000Y21453865D01*
X42505393Y21420725D01*
X42364150Y21326350D01*
X42269775Y21185107D01*
X42236635Y21018500D01*
X42091365Y21018500D01*
X42058225Y21185107D01*
X41963850Y21326350D01*
X41822607Y21420725D01*
X41656000Y21453865D01*
X40767000Y21453865D01*
X40600393Y21420725D01*
X40459150Y21326350D01*
X40364775Y21185107D01*
X40354510Y21133500D01*
X40082903Y21133500D01*
X40068500Y21136365D01*
X38671500Y21136365D01*
X38657097Y21133500D01*
X38050903Y21133500D01*
X38036500Y21136365D01*
X36639500Y21136365D01*
X36625097Y21133500D01*
X36373500Y21133500D01*
X36373500Y21639097D01*
X36376365Y21653500D01*
X36376365Y23050500D01*
X36343225Y23217107D01*
X36248850Y23358350D01*
X36107607Y23452725D01*
X35941000Y23485865D01*
X35052000Y23485865D01*
X34885393Y23452725D01*
X34744150Y23358350D01*
X34649775Y23217107D01*
X34616635Y23050500D01*
X34471365Y23050500D01*
X34438225Y23217107D01*
X34343850Y23358350D01*
X34202607Y23452725D01*
X34036000Y23485865D01*
X33147000Y23485865D01*
X32980393Y23452725D01*
X32839150Y23358350D01*
X32744775Y23217107D01*
X32711635Y23050500D01*
X32711635Y21653500D01*
X32714500Y21639097D01*
X32714500Y21133500D01*
X32462903Y21133500D01*
X32448500Y21136365D01*
X31051500Y21136365D01*
X31037097Y21133500D01*
X30430903Y21133500D01*
X30416500Y21136365D01*
X29019500Y21136365D01*
X29005097Y21133500D01*
X28753500Y21133500D01*
X28753500Y21639097D01*
X28756365Y21653500D01*
X28756365Y23050500D01*
X28723225Y23217107D01*
X28628850Y23358350D01*
X28487607Y23452725D01*
X28321000Y23485865D01*
X27432000Y23485865D01*
X27265393Y23452725D01*
X27124150Y23358350D01*
X27029775Y23217107D01*
X26996635Y23050500D01*
X26851365Y23050500D01*
X26818225Y23217107D01*
X26723850Y23358350D01*
X26582607Y23452725D01*
X26416000Y23485865D01*
X25527000Y23485865D01*
X25360393Y23452725D01*
X25219150Y23358350D01*
X25124775Y23217107D01*
X25091635Y23050500D01*
X25091635Y21653500D01*
X25094500Y21639097D01*
X25094500Y21133500D01*
X24842903Y21133500D01*
X24828500Y21136365D01*
X23431500Y21136365D01*
X23417097Y21133500D01*
X22810903Y21133500D01*
X22796500Y21136365D01*
X21399500Y21136365D01*
X21385097Y21133500D01*
X21113490Y21133500D01*
X21103225Y21185107D01*
X21008850Y21326350D01*
X20867607Y21420725D01*
X20701000Y21453865D01*
X19812000Y21453865D01*
X19645393Y21420725D01*
X19504150Y21326350D01*
X19409775Y21185107D01*
X19376635Y21018500D01*
X19231365Y21018500D01*
X19198225Y21185107D01*
X19103850Y21326350D01*
X18962607Y21420725D01*
X18796000Y21453865D01*
X17907000Y21453865D01*
X17740393Y21420725D01*
X17653000Y21362331D01*
X17565607Y21420725D01*
X17399000Y21453865D01*
X16510000Y21453865D01*
X16343393Y21420725D01*
X16202150Y21326350D01*
X16107775Y21185107D01*
X16074635Y21018500D01*
X15929365Y21018500D01*
X15926500Y21032903D01*
X15926500Y21226734D01*
X16682765Y21983000D01*
X17092500Y21983000D01*
X17428113Y22049758D01*
X17712633Y22239867D01*
X18146130Y22673365D01*
X18146133Y22673367D01*
X18336242Y22957887D01*
X18354664Y23050500D01*
X18403001Y23293500D01*
X18403000Y23293505D01*
X18403000Y23758135D01*
X19431000Y23758135D01*
X19597607Y23791275D01*
X19738850Y23885650D01*
X19833225Y24026893D01*
X19866365Y24193500D01*
X19866365Y25590500D01*
X41347635Y25590500D01*
X41347635Y24193500D01*
X41380775Y24026893D01*
X41475150Y23885650D01*
X41616393Y23791275D01*
X41783000Y23758135D01*
X42811000Y23758135D01*
X42811000Y23293500D01*
X42877758Y22957887D01*
X43067867Y22673367D01*
X43501365Y22239870D01*
X43501367Y22239867D01*
X43785887Y22049758D01*
X44121500Y21982999D01*
X44121505Y21983000D01*
X44696334Y21983000D01*
X45541500Y21137834D01*
X45541500Y21032903D01*
X45538635Y21018500D01*
X45538635Y19621500D01*
X45571775Y19454893D01*
X45666150Y19313650D01*
X45807393Y19219275D01*
X45974000Y19186135D01*
X46863000Y19186135D01*
X47029607Y19219275D01*
X47170850Y19313650D01*
X47257278Y19443000D01*
X49347853Y19443000D01*
X49377480Y19371297D01*
X49848816Y18899138D01*
X50464961Y18643292D01*
X51132112Y18642710D01*
X51748703Y18897480D01*
X52220862Y19368816D01*
X52476708Y19984961D01*
X52477290Y20652112D01*
X52222520Y21268703D01*
X51751184Y21740862D01*
X51135039Y21996708D01*
X50467888Y21997290D01*
X49851297Y21742520D01*
X49379138Y21271184D01*
X49348334Y21197000D01*
X47295500Y21197000D01*
X47295500Y21501095D01*
X47295501Y21501100D01*
X47228742Y21836713D01*
X47038633Y22121233D01*
X45679733Y23480133D01*
X45395213Y23670242D01*
X45059600Y23737000D01*
X44565000Y23737000D01*
X44565000Y23758135D01*
X45593000Y23758135D01*
X45759607Y23791275D01*
X45900850Y23885650D01*
X45995225Y24026893D01*
X46028365Y24193500D01*
X46028365Y25590500D01*
X45995225Y25757107D01*
X45900850Y25898350D01*
X45759607Y25992725D01*
X45593000Y26025865D01*
X41783000Y26025865D01*
X41616393Y25992725D01*
X41475150Y25898350D01*
X41380775Y25757107D01*
X41347635Y25590500D01*
X19866365Y25590500D01*
X19833225Y25757107D01*
X19738850Y25898350D01*
X19597607Y25992725D01*
X19431000Y26025865D01*
X15621000Y26025865D01*
X15454393Y25992725D01*
X15313150Y25898350D01*
X15218775Y25757107D01*
X15185635Y25590500D01*
X15185635Y24193500D01*
X15218775Y24026893D01*
X15313150Y23885650D01*
X15454393Y23791275D01*
X15621000Y23758135D01*
X16649000Y23758135D01*
X16649000Y23737000D01*
X16319500Y23737000D01*
X15983886Y23670242D01*
X15869924Y23594095D01*
X15699367Y23480133D01*
X15699365Y23480130D01*
X14429367Y22210133D01*
X14239258Y21925613D01*
X14172500Y21590000D01*
X14172500Y21197000D01*
X11612147Y21197000D01*
X11582520Y21268703D01*
X11111184Y21740862D01*
X10495039Y21996708D01*
X9827888Y21997290D01*
X9211297Y21742520D01*
X8739138Y21271184D01*
X8483292Y20655039D01*
X8482710Y19987888D01*
X756000Y19987888D01*
X756000Y30162500D01*
X15185635Y30162500D01*
X15185635Y28765500D01*
X15218775Y28598893D01*
X15313150Y28457650D01*
X15454393Y28363275D01*
X15621000Y28330135D01*
X19431000Y28330135D01*
X19597607Y28363275D01*
X19738850Y28457650D01*
X19833225Y28598893D01*
X19866365Y28765500D01*
X19866365Y28904500D01*
X20877097Y28904500D01*
X20891500Y28901635D01*
X22288500Y28901635D01*
X22302903Y28904500D01*
X23671097Y28904500D01*
X23685500Y28901635D01*
X25082500Y28901635D01*
X25096903Y28904500D01*
X27624015Y28904500D01*
X27624015Y28351480D01*
X27657155Y28184873D01*
X27751530Y28043630D01*
X27892773Y27949255D01*
X28059380Y27916115D01*
X30360620Y27916115D01*
X30527227Y27949255D01*
X30668470Y28043630D01*
X30762845Y28184873D01*
X30795985Y28351480D01*
X30795985Y28724160D01*
X32604955Y28724160D01*
X32604955Y27950160D01*
X32638095Y27783553D01*
X32732470Y27642310D01*
X32873713Y27547935D01*
X33040320Y27514795D01*
X35539680Y27514795D01*
X35706287Y27547935D01*
X35847530Y27642310D01*
X35941905Y27783553D01*
X35975045Y27950160D01*
X35975045Y28650500D01*
X36879097Y28650500D01*
X36893500Y28647635D01*
X38290500Y28647635D01*
X38304903Y28650500D01*
X39419097Y28650500D01*
X39433500Y28647635D01*
X40830500Y28647635D01*
X40844903Y28650500D01*
X41370510Y28650500D01*
X41380775Y28598893D01*
X41475150Y28457650D01*
X41616393Y28363275D01*
X41783000Y28330135D01*
X45593000Y28330135D01*
X45759607Y28363275D01*
X45900850Y28457650D01*
X45995225Y28598893D01*
X46028365Y28765500D01*
X46028365Y30162500D01*
X45995225Y30329107D01*
X45900850Y30470350D01*
X45759607Y30564725D01*
X45593000Y30597865D01*
X41783000Y30597865D01*
X41616393Y30564725D01*
X41475150Y30470350D01*
X41431151Y30404500D01*
X40844903Y30404500D01*
X40830500Y30407365D01*
X39433500Y30407365D01*
X39419097Y30404500D01*
X38304903Y30404500D01*
X38290500Y30407365D01*
X36893500Y30407365D01*
X36879097Y30404500D01*
X35975045Y30404500D01*
X35975045Y30500320D01*
X35941905Y30666927D01*
X35847530Y30808170D01*
X35706287Y30902545D01*
X35539680Y30935685D01*
X33040320Y30935685D01*
X32873713Y30902545D01*
X32732470Y30808170D01*
X32638095Y30666927D01*
X32604955Y30500320D01*
X32604955Y30478160D01*
X30795985Y30478160D01*
X30795985Y30850840D01*
X30762845Y31017447D01*
X30668470Y31158690D01*
X30527227Y31253065D01*
X30360620Y31286205D01*
X28059380Y31286205D01*
X27892773Y31253065D01*
X27751530Y31158690D01*
X27657155Y31017447D01*
X27624015Y30850840D01*
X27624015Y30658500D01*
X25096903Y30658500D01*
X25082500Y30661365D01*
X23685500Y30661365D01*
X23671097Y30658500D01*
X22302903Y30658500D01*
X22288500Y30661365D01*
X20891500Y30661365D01*
X20877097Y30658500D01*
X17843505Y30658500D01*
X17843500Y30658501D01*
X17538669Y30597865D01*
X15621000Y30597865D01*
X15454393Y30564725D01*
X15313150Y30470350D01*
X15218775Y30329107D01*
X15185635Y30162500D01*
X756000Y30162500D01*
X756000Y39884000D01*
X60204000Y39884000D01*
X60204000Y756000D01*
X60204000Y756000D01*
G37*
X60204000Y756000D02*
X756000Y756000D01*
X756000Y10980000D01*
X11993000Y10980000D01*
X11993000Y7576000D01*
X16885857Y7576000D01*
X16885857Y4528000D01*
X23754143Y4528000D01*
X23754143Y7576000D01*
X28647000Y7576000D01*
X28647000Y10980000D01*
X39448429Y10980000D01*
X39448429Y7576000D01*
X40448429Y7576000D01*
X40448429Y4528000D01*
X48959572Y4528000D01*
X48959572Y7576000D01*
X49959572Y7576000D01*
X49959572Y10980000D01*
X39448429Y10980000D01*
X28647000Y10980000D01*
X11993000Y10980000D01*
X756000Y10980000D01*
X756000Y19987888D01*
X8482710Y19987888D01*
X8737480Y19371297D01*
X9208816Y18899138D01*
X9824961Y18643292D01*
X10492112Y18642710D01*
X11108703Y18897480D01*
X11580862Y19368816D01*
X11611666Y19443000D01*
X14210722Y19443000D01*
X14297150Y19313650D01*
X14438393Y19219275D01*
X14605000Y19186135D01*
X15494000Y19186135D01*
X15660607Y19219275D01*
X15801850Y19313650D01*
X15896225Y19454893D01*
X15929365Y19621500D01*
X15929365Y21018500D01*
X16074635Y21018500D01*
X16074635Y19621500D01*
X16107775Y19454893D01*
X16202150Y19313650D01*
X16343393Y19219275D01*
X16510000Y19186135D01*
X17399000Y19186135D01*
X17565607Y19219275D01*
X17653000Y19277669D01*
X17740393Y19219275D01*
X17907000Y19186135D01*
X18796000Y19186135D01*
X18962607Y19219275D01*
X19103850Y19313650D01*
X19198225Y19454893D01*
X19231365Y19621500D01*
X19231365Y21018500D01*
X19376635Y21018500D01*
X19376635Y19621500D01*
X19409775Y19454893D01*
X19504150Y19313650D01*
X19645393Y19219275D01*
X19812000Y19186135D01*
X20701000Y19186135D01*
X20867607Y19219275D01*
X21008850Y19313650D01*
X21052849Y19379500D01*
X21385097Y19379500D01*
X21399500Y19376635D01*
X22796500Y19376635D01*
X22810903Y19379500D01*
X23417097Y19379500D01*
X23431500Y19376635D01*
X24828500Y19376635D01*
X24842903Y19379500D01*
X25175151Y19379500D01*
X25219150Y19313650D01*
X25360393Y19219275D01*
X25527000Y19186135D01*
X26416000Y19186135D01*
X26582607Y19219275D01*
X26723850Y19313650D01*
X26818225Y19454893D01*
X26851365Y19621500D01*
X26851365Y21018500D01*
X26848500Y21032903D01*
X26848500Y21639097D01*
X26851365Y21653500D01*
X26851365Y23050500D01*
X26996635Y23050500D01*
X26996635Y21653500D01*
X26999500Y21639097D01*
X26999500Y21032903D01*
X26996635Y21018500D01*
X26996635Y19621500D01*
X27029775Y19454893D01*
X27124150Y19313650D01*
X27265393Y19219275D01*
X27432000Y19186135D01*
X28321000Y19186135D01*
X28487607Y19219275D01*
X28628850Y19313650D01*
X28672849Y19379500D01*
X29005097Y19379500D01*
X29019500Y19376635D01*
X30416500Y19376635D01*
X30430903Y19379500D01*
X31037097Y19379500D01*
X31051500Y19376635D01*
X32448500Y19376635D01*
X32462903Y19379500D01*
X32795151Y19379500D01*
X32839150Y19313650D01*
X32980393Y19219275D01*
X33147000Y19186135D01*
X34036000Y19186135D01*
X34202607Y19219275D01*
X34343850Y19313650D01*
X34438225Y19454893D01*
X34471365Y19621500D01*
X34471365Y21018500D01*
X34468500Y21032903D01*
X34468500Y21639097D01*
X34471365Y21653500D01*
X34471365Y23050500D01*
X34616635Y23050500D01*
X34616635Y21653500D01*
X34619500Y21639097D01*
X34619500Y21032903D01*
X34616635Y21018500D01*
X34616635Y19621500D01*
X34649775Y19454893D01*
X34744150Y19313650D01*
X34885393Y19219275D01*
X35052000Y19186135D01*
X35941000Y19186135D01*
X36107607Y19219275D01*
X36248850Y19313650D01*
X36292849Y19379500D01*
X36625097Y19379500D01*
X36639500Y19376635D01*
X38036500Y19376635D01*
X38050903Y19379500D01*
X38657097Y19379500D01*
X38671500Y19376635D01*
X40068500Y19376635D01*
X40082903Y19379500D01*
X40415151Y19379500D01*
X40459150Y19313650D01*
X40600393Y19219275D01*
X40767000Y19186135D01*
X41656000Y19186135D01*
X41822607Y19219275D01*
X41963850Y19313650D01*
X42058225Y19454893D01*
X42091365Y19621500D01*
X42091365Y21018500D01*
X42236635Y21018500D01*
X42236635Y19621500D01*
X42269775Y19454893D01*
X42364150Y19313650D01*
X42505393Y19219275D01*
X42672000Y19186135D01*
X43561000Y19186135D01*
X43727607Y19219275D01*
X43815000Y19277669D01*
X43902393Y19219275D01*
X44069000Y19186135D01*
X44958000Y19186135D01*
X45124607Y19219275D01*
X45265850Y19313650D01*
X45360225Y19454893D01*
X45393365Y19621500D01*
X45393365Y21018500D01*
X45360225Y21185107D01*
X45265850Y21326350D01*
X45124607Y21420725D01*
X44958000Y21453865D01*
X44069000Y21453865D01*
X43902393Y21420725D01*
X43815000Y21362331D01*
X43727607Y21420725D01*
X43561000Y21453865D01*
X42672000Y21453865D01*
X42505393Y21420725D01*
X42364150Y21326350D01*
X42269775Y21185107D01*
X42236635Y21018500D01*
X42091365Y21018500D01*
X42058225Y21185107D01*
X41963850Y21326350D01*
X41822607Y21420725D01*
X41656000Y21453865D01*
X40767000Y21453865D01*
X40600393Y21420725D01*
X40459150Y21326350D01*
X40364775Y21185107D01*
X40354510Y21133500D01*
X40082903Y21133500D01*
X40068500Y21136365D01*
X38671500Y21136365D01*
X38657097Y21133500D01*
X38050903Y21133500D01*
X38036500Y21136365D01*
X36639500Y21136365D01*
X36625097Y21133500D01*
X36373500Y21133500D01*
X36373500Y21639097D01*
X36376365Y21653500D01*
X36376365Y23050500D01*
X36343225Y23217107D01*
X36248850Y23358350D01*
X36107607Y23452725D01*
X35941000Y23485865D01*
X35052000Y23485865D01*
X34885393Y23452725D01*
X34744150Y23358350D01*
X34649775Y23217107D01*
X34616635Y23050500D01*
X34471365Y23050500D01*
X34438225Y23217107D01*
X34343850Y23358350D01*
X34202607Y23452725D01*
X34036000Y23485865D01*
X33147000Y23485865D01*
X32980393Y23452725D01*
X32839150Y23358350D01*
X32744775Y23217107D01*
X32711635Y23050500D01*
X32711635Y21653500D01*
X32714500Y21639097D01*
X32714500Y21133500D01*
X32462903Y21133500D01*
X32448500Y21136365D01*
X31051500Y21136365D01*
X31037097Y21133500D01*
X30430903Y21133500D01*
X30416500Y21136365D01*
X29019500Y21136365D01*
X29005097Y21133500D01*
X28753500Y21133500D01*
X28753500Y21639097D01*
X28756365Y21653500D01*
X28756365Y23050500D01*
X28723225Y23217107D01*
X28628850Y23358350D01*
X28487607Y23452725D01*
X28321000Y23485865D01*
X27432000Y23485865D01*
X27265393Y23452725D01*
X27124150Y23358350D01*
X27029775Y23217107D01*
X26996635Y23050500D01*
X26851365Y23050500D01*
X26818225Y23217107D01*
X26723850Y23358350D01*
X26582607Y23452725D01*
X26416000Y23485865D01*
X25527000Y23485865D01*
X25360393Y23452725D01*
X25219150Y23358350D01*
X25124775Y23217107D01*
X25091635Y23050500D01*
X25091635Y21653500D01*
X25094500Y21639097D01*
X25094500Y21133500D01*
X24842903Y21133500D01*
X24828500Y21136365D01*
X23431500Y21136365D01*
X23417097Y21133500D01*
X22810903Y21133500D01*
X22796500Y21136365D01*
X21399500Y21136365D01*
X21385097Y21133500D01*
X21113490Y21133500D01*
X21103225Y21185107D01*
X21008850Y21326350D01*
X20867607Y21420725D01*
X20701000Y21453865D01*
X19812000Y21453865D01*
X19645393Y21420725D01*
X19504150Y21326350D01*
X19409775Y21185107D01*
X19376635Y21018500D01*
X19231365Y21018500D01*
X19198225Y21185107D01*
X19103850Y21326350D01*
X18962607Y21420725D01*
X18796000Y21453865D01*
X17907000Y21453865D01*
X17740393Y21420725D01*
X17653000Y21362331D01*
X17565607Y21420725D01*
X17399000Y21453865D01*
X16510000Y21453865D01*
X16343393Y21420725D01*
X16202150Y21326350D01*
X16107775Y21185107D01*
X16074635Y21018500D01*
X15929365Y21018500D01*
X15926500Y21032903D01*
X15926500Y21226734D01*
X16682765Y21983000D01*
X17092500Y21983000D01*
X17428113Y22049758D01*
X17712633Y22239867D01*
X18146130Y22673365D01*
X18146133Y22673367D01*
X18336242Y22957887D01*
X18354664Y23050500D01*
X18403001Y23293500D01*
X18403000Y23293505D01*
X18403000Y23758135D01*
X19431000Y23758135D01*
X19597607Y23791275D01*
X19738850Y23885650D01*
X19833225Y24026893D01*
X19866365Y24193500D01*
X19866365Y25590500D01*
X41347635Y25590500D01*
X41347635Y24193500D01*
X41380775Y24026893D01*
X41475150Y23885650D01*
X41616393Y23791275D01*
X41783000Y23758135D01*
X42811000Y23758135D01*
X42811000Y23293500D01*
X42877758Y22957887D01*
X43067867Y22673367D01*
X43501365Y22239870D01*
X43501367Y22239867D01*
X43785887Y22049758D01*
X44121500Y21982999D01*
X44121505Y21983000D01*
X44696334Y21983000D01*
X45541500Y21137834D01*
X45541500Y21032903D01*
X45538635Y21018500D01*
X45538635Y19621500D01*
X45571775Y19454893D01*
X45666150Y19313650D01*
X45807393Y19219275D01*
X45974000Y19186135D01*
X46863000Y19186135D01*
X47029607Y19219275D01*
X47170850Y19313650D01*
X47257278Y19443000D01*
X49347853Y19443000D01*
X49377480Y19371297D01*
X49848816Y18899138D01*
X50464961Y18643292D01*
X51132112Y18642710D01*
X51748703Y18897480D01*
X52220862Y19368816D01*
X52476708Y19984961D01*
X52477290Y20652112D01*
X52222520Y21268703D01*
X51751184Y21740862D01*
X51135039Y21996708D01*
X50467888Y21997290D01*
X49851297Y21742520D01*
X49379138Y21271184D01*
X49348334Y21197000D01*
X47295500Y21197000D01*
X47295500Y21501095D01*
X47295501Y21501100D01*
X47228742Y21836713D01*
X47038633Y22121233D01*
X45679733Y23480133D01*
X45395213Y23670242D01*
X45059600Y23737000D01*
X44565000Y23737000D01*
X44565000Y23758135D01*
X45593000Y23758135D01*
X45759607Y23791275D01*
X45900850Y23885650D01*
X45995225Y24026893D01*
X46028365Y24193500D01*
X46028365Y25590500D01*
X45995225Y25757107D01*
X45900850Y25898350D01*
X45759607Y25992725D01*
X45593000Y26025865D01*
X41783000Y26025865D01*
X41616393Y25992725D01*
X41475150Y25898350D01*
X41380775Y25757107D01*
X41347635Y25590500D01*
X19866365Y25590500D01*
X19833225Y25757107D01*
X19738850Y25898350D01*
X19597607Y25992725D01*
X19431000Y26025865D01*
X15621000Y26025865D01*
X15454393Y25992725D01*
X15313150Y25898350D01*
X15218775Y25757107D01*
X15185635Y25590500D01*
X15185635Y24193500D01*
X15218775Y24026893D01*
X15313150Y23885650D01*
X15454393Y23791275D01*
X15621000Y23758135D01*
X16649000Y23758135D01*
X16649000Y23737000D01*
X16319500Y23737000D01*
X15983886Y23670242D01*
X15869924Y23594095D01*
X15699367Y23480133D01*
X15699365Y23480130D01*
X14429367Y22210133D01*
X14239258Y21925613D01*
X14172500Y21590000D01*
X14172500Y21197000D01*
X11612147Y21197000D01*
X11582520Y21268703D01*
X11111184Y21740862D01*
X10495039Y21996708D01*
X9827888Y21997290D01*
X9211297Y21742520D01*
X8739138Y21271184D01*
X8483292Y20655039D01*
X8482710Y19987888D01*
X756000Y19987888D01*
X756000Y30162500D01*
X15185635Y30162500D01*
X15185635Y28765500D01*
X15218775Y28598893D01*
X15313150Y28457650D01*
X15454393Y28363275D01*
X15621000Y28330135D01*
X19431000Y28330135D01*
X19597607Y28363275D01*
X19738850Y28457650D01*
X19833225Y28598893D01*
X19866365Y28765500D01*
X19866365Y28904500D01*
X20877097Y28904500D01*
X20891500Y28901635D01*
X22288500Y28901635D01*
X22302903Y28904500D01*
X23671097Y28904500D01*
X23685500Y28901635D01*
X25082500Y28901635D01*
X25096903Y28904500D01*
X27624015Y28904500D01*
X27624015Y28351480D01*
X27657155Y28184873D01*
X27751530Y28043630D01*
X27892773Y27949255D01*
X28059380Y27916115D01*
X30360620Y27916115D01*
X30527227Y27949255D01*
X30668470Y28043630D01*
X30762845Y28184873D01*
X30795985Y28351480D01*
X30795985Y28724160D01*
X32604955Y28724160D01*
X32604955Y27950160D01*
X32638095Y27783553D01*
X32732470Y27642310D01*
X32873713Y27547935D01*
X33040320Y27514795D01*
X35539680Y27514795D01*
X35706287Y27547935D01*
X35847530Y27642310D01*
X35941905Y27783553D01*
X35975045Y27950160D01*
X35975045Y28650500D01*
X36879097Y28650500D01*
X36893500Y28647635D01*
X38290500Y28647635D01*
X38304903Y28650500D01*
X39419097Y28650500D01*
X39433500Y28647635D01*
X40830500Y28647635D01*
X40844903Y28650500D01*
X41370510Y28650500D01*
X41380775Y28598893D01*
X41475150Y28457650D01*
X41616393Y28363275D01*
X41783000Y28330135D01*
X45593000Y28330135D01*
X45759607Y28363275D01*
X45900850Y28457650D01*
X45995225Y28598893D01*
X46028365Y28765500D01*
X46028365Y30162500D01*
X45995225Y30329107D01*
X45900850Y30470350D01*
X45759607Y30564725D01*
X45593000Y30597865D01*
X41783000Y30597865D01*
X41616393Y30564725D01*
X41475150Y30470350D01*
X41431151Y30404500D01*
X40844903Y30404500D01*
X40830500Y30407365D01*
X39433500Y30407365D01*
X39419097Y30404500D01*
X38304903Y30404500D01*
X38290500Y30407365D01*
X36893500Y30407365D01*
X36879097Y30404500D01*
X35975045Y30404500D01*
X35975045Y30500320D01*
X35941905Y30666927D01*
X35847530Y30808170D01*
X35706287Y30902545D01*
X35539680Y30935685D01*
X33040320Y30935685D01*
X32873713Y30902545D01*
X32732470Y30808170D01*
X32638095Y30666927D01*
X32604955Y30500320D01*
X32604955Y30478160D01*
X30795985Y30478160D01*
X30795985Y30850840D01*
X30762845Y31017447D01*
X30668470Y31158690D01*
X30527227Y31253065D01*
X30360620Y31286205D01*
X28059380Y31286205D01*
X27892773Y31253065D01*
X27751530Y31158690D01*
X27657155Y31017447D01*
X27624015Y30850840D01*
X27624015Y30658500D01*
X25096903Y30658500D01*
X25082500Y30661365D01*
X23685500Y30661365D01*
X23671097Y30658500D01*
X22302903Y30658500D01*
X22288500Y30661365D01*
X20891500Y30661365D01*
X20877097Y30658500D01*
X17843505Y30658500D01*
X17843500Y30658501D01*
X17538669Y30597865D01*
X15621000Y30597865D01*
X15454393Y30564725D01*
X15313150Y30470350D01*
X15218775Y30329107D01*
X15185635Y30162500D01*
X756000Y30162500D01*
X756000Y39884000D01*
X60204000Y39884000D01*
X60204000Y756000D01*
M02*
