G75*
%MOIN*%
%OFA0B0*%
%FSLAX24Y24*%
%IPPOS*%
%LPD*%
%AMOC8*
5,1,8,0,0,1.08239X$1,22.5*
%
%ADD10C,0.0040*%
%ADD11C,0.0079*%
%ADD12C,0.0060*%
%ADD13C,0.0050*%
D10*
X001287Y003895D02*
X001594Y004202D01*
X001594Y004279D01*
X001517Y004355D01*
X001363Y004355D01*
X001287Y004279D01*
X001287Y003895D02*
X001594Y003895D01*
X001747Y003972D02*
X002054Y004279D01*
X002054Y003972D01*
X001977Y003895D01*
X001824Y003895D01*
X001747Y003972D01*
X001747Y004279D01*
X001824Y004355D01*
X001977Y004355D01*
X002054Y004279D01*
X002207Y004202D02*
X002361Y004355D01*
X002361Y003895D01*
X002514Y003895D02*
X002207Y003895D01*
X002668Y003972D02*
X002745Y003895D01*
X002898Y003895D01*
X002975Y003972D01*
X002975Y004125D01*
X002898Y004202D01*
X002821Y004202D01*
X002668Y004125D01*
X002668Y004355D01*
X002975Y004355D01*
X002955Y004770D02*
X003108Y004770D01*
X003185Y004847D01*
X003185Y005154D01*
X003108Y005230D01*
X002955Y005230D01*
X002878Y005154D01*
X002878Y004847D01*
X002955Y004770D01*
X002725Y004770D02*
X002725Y005230D01*
X002725Y005000D02*
X002418Y005000D01*
X002264Y004847D02*
X002188Y004770D01*
X002034Y004770D01*
X001957Y004847D01*
X001957Y005154D01*
X002034Y005230D01*
X002188Y005230D01*
X002264Y005154D01*
X002418Y005230D02*
X002418Y004770D01*
X001804Y004770D02*
X001804Y005077D01*
X001651Y005230D01*
X001497Y005077D01*
X001497Y004770D01*
X001267Y004847D02*
X001267Y005230D01*
X001190Y005230D02*
X001344Y005230D01*
X001497Y005000D02*
X001804Y005000D01*
X001267Y004847D02*
X001190Y004770D01*
X001113Y004770D01*
X001037Y004847D01*
X003411Y006145D02*
X003565Y006298D01*
X003411Y006452D01*
X003872Y006452D01*
X003872Y006605D02*
X003565Y006605D01*
X003411Y006759D01*
X003565Y006912D01*
X003872Y006912D01*
X003795Y007066D02*
X003872Y007143D01*
X003872Y007296D01*
X003795Y007373D01*
X003718Y007373D01*
X003641Y007296D01*
X003641Y007143D01*
X003565Y007066D01*
X003488Y007066D01*
X003411Y007143D01*
X003411Y007296D01*
X003488Y007373D01*
X003411Y007526D02*
X003411Y007833D01*
X003411Y007680D02*
X003872Y007680D01*
X003872Y007987D02*
X003872Y008293D01*
X003872Y008447D02*
X003411Y008447D01*
X003411Y008677D01*
X003488Y008754D01*
X003641Y008754D01*
X003718Y008677D01*
X003718Y008447D01*
X003718Y008600D02*
X003872Y008754D01*
X003411Y008293D02*
X003411Y007987D01*
X003872Y007987D01*
X003641Y007987D02*
X003641Y008140D01*
X003641Y006912D02*
X003641Y006605D01*
X003872Y006145D02*
X003411Y006145D01*
X004037Y005654D02*
X004344Y005347D01*
X004344Y005500D02*
X004037Y005500D01*
X004037Y005347D02*
X004344Y005654D01*
X004190Y005654D02*
X004190Y005347D01*
X006412Y006722D02*
X006488Y006645D01*
X006642Y006645D01*
X006719Y006722D01*
X006719Y006798D01*
X006642Y006875D01*
X006488Y006875D01*
X006412Y006952D01*
X006412Y007029D01*
X006488Y007105D01*
X006642Y007105D01*
X006719Y007029D01*
X006872Y007029D02*
X006949Y007105D01*
X007102Y007105D01*
X007179Y007029D01*
X007332Y007105D02*
X007332Y006645D01*
X007639Y006645D01*
X007179Y006722D02*
X007102Y006645D01*
X006949Y006645D01*
X006872Y006722D01*
X006872Y007029D01*
X006872Y007645D02*
X007102Y007645D01*
X007179Y007722D01*
X007179Y008029D01*
X007102Y008105D01*
X006872Y008105D01*
X006872Y007645D01*
X006719Y007722D02*
X006642Y007645D01*
X006488Y007645D01*
X006412Y007722D01*
X006488Y007875D02*
X006412Y007952D01*
X006412Y008029D01*
X006488Y008105D01*
X006642Y008105D01*
X006719Y008029D01*
X006642Y007875D02*
X006719Y007798D01*
X006719Y007722D01*
X006642Y007875D02*
X006488Y007875D01*
X007332Y007875D02*
X007639Y007875D01*
X007639Y007952D02*
X007639Y007645D01*
X007332Y007645D02*
X007332Y007952D01*
X007486Y008105D01*
X007639Y007952D01*
X007563Y008645D02*
X007409Y008645D01*
X007332Y008722D01*
X007179Y008645D02*
X006872Y008645D01*
X006872Y009105D01*
X007179Y009105D01*
X007332Y009029D02*
X007332Y008952D01*
X007409Y008875D01*
X007563Y008875D01*
X007639Y008798D01*
X007639Y008722D01*
X007563Y008645D01*
X007793Y008645D02*
X008100Y008645D01*
X007946Y008875D02*
X007793Y008875D01*
X007639Y009029D02*
X007563Y009105D01*
X007409Y009105D01*
X007332Y009029D01*
X007026Y008875D02*
X006872Y008875D01*
X006719Y008875D02*
X006719Y009029D01*
X006642Y009105D01*
X006412Y009105D01*
X006412Y008645D01*
X006412Y008798D02*
X006642Y008798D01*
X006719Y008875D01*
X006565Y008798D02*
X006719Y008645D01*
X007793Y008645D02*
X007793Y009105D01*
X008100Y009105D01*
X008253Y009105D02*
X008560Y009105D01*
X008407Y009105D02*
X008407Y008645D01*
X009911Y008618D02*
X010372Y008618D01*
X010372Y008925D01*
X010372Y009078D02*
X010372Y009385D01*
X010372Y009539D02*
X010372Y009845D01*
X010295Y009999D02*
X010372Y010076D01*
X010372Y010229D01*
X010295Y010306D01*
X009988Y010306D02*
X009911Y010229D01*
X009911Y010076D01*
X009988Y009999D01*
X010295Y009999D01*
X010141Y009692D02*
X010141Y009539D01*
X009911Y009539D02*
X010372Y009539D01*
X009911Y009539D02*
X009911Y009845D01*
X009911Y010459D02*
X009911Y010766D01*
X009911Y010613D02*
X010372Y010613D01*
X011036Y010768D02*
X011113Y010691D01*
X011190Y010691D01*
X011266Y010768D01*
X011266Y010921D01*
X011343Y010998D01*
X011420Y010998D01*
X011497Y010921D01*
X011497Y010768D01*
X011420Y010691D01*
X011497Y010537D02*
X011190Y010537D01*
X011036Y010384D01*
X011190Y010230D01*
X011497Y010230D01*
X011497Y010077D02*
X011036Y010077D01*
X011190Y009923D01*
X011036Y009770D01*
X011497Y009770D01*
X011266Y010230D02*
X011266Y010537D01*
X011036Y010768D02*
X011036Y010921D01*
X011113Y010998D01*
X011036Y011151D02*
X011036Y011458D01*
X011036Y011305D02*
X011497Y011305D01*
X011497Y011612D02*
X011497Y011918D01*
X011497Y012072D02*
X011036Y012072D01*
X011036Y012302D01*
X011113Y012379D01*
X011266Y012379D01*
X011343Y012302D01*
X011343Y012072D01*
X011343Y012225D02*
X011497Y012379D01*
X012036Y012302D02*
X012036Y012149D01*
X012113Y012072D01*
X012190Y012072D01*
X012266Y012149D01*
X012266Y012302D01*
X012343Y012379D01*
X012420Y012379D01*
X012497Y012302D01*
X012497Y012149D01*
X012420Y012072D01*
X012497Y011918D02*
X012497Y011612D01*
X012036Y011612D01*
X012036Y011918D01*
X012266Y011765D02*
X012266Y011612D01*
X012343Y011458D02*
X012036Y011458D01*
X012036Y011151D02*
X012343Y011151D01*
X012497Y011305D01*
X012343Y011458D01*
X012266Y010998D02*
X012266Y010691D01*
X012190Y010691D02*
X012036Y010844D01*
X012190Y010998D01*
X012497Y010998D01*
X012497Y010691D02*
X012190Y010691D01*
X012497Y010537D02*
X012497Y010230D01*
X012036Y010230D01*
X012113Y010077D02*
X012036Y010000D01*
X012036Y009847D01*
X012113Y009770D01*
X012190Y009770D01*
X012266Y009847D01*
X012266Y010000D01*
X012343Y010077D01*
X012420Y010077D01*
X012497Y010000D01*
X012497Y009847D01*
X012420Y009770D01*
X012912Y009230D02*
X013065Y009230D01*
X012988Y009230D02*
X012988Y008770D01*
X012912Y008770D02*
X013065Y008770D01*
X013219Y008770D02*
X013219Y009230D01*
X013526Y008770D01*
X013526Y009230D01*
X015662Y010347D02*
X015969Y010654D01*
X015969Y010500D02*
X015662Y010500D01*
X015662Y010654D02*
X015969Y010347D01*
X015815Y010347D02*
X015815Y010654D01*
X016474Y010748D02*
X016934Y010748D01*
X016781Y010594D01*
X016934Y010441D01*
X016474Y010441D01*
X016551Y010287D02*
X016474Y010211D01*
X016474Y010057D01*
X016551Y009980D01*
X016857Y009980D01*
X016934Y010057D01*
X016934Y010211D01*
X016857Y010287D01*
X016551Y010287D01*
X016551Y009827D02*
X016704Y009827D01*
X016781Y009750D01*
X016781Y009520D01*
X016934Y009520D02*
X016474Y009520D01*
X016474Y009750D01*
X016551Y009827D01*
X017161Y008938D02*
X017468Y008938D01*
X017622Y008785D01*
X017468Y008631D01*
X017161Y008631D01*
X017238Y008478D02*
X017315Y008478D01*
X017391Y008401D01*
X017391Y008248D01*
X017315Y008171D01*
X017238Y008171D01*
X017161Y008248D01*
X017161Y008401D01*
X017238Y008478D01*
X017391Y008401D02*
X017468Y008478D01*
X017545Y008478D01*
X017622Y008401D01*
X017622Y008248D01*
X017545Y008171D01*
X017468Y008171D01*
X017391Y008248D01*
X017545Y008018D02*
X017622Y008018D01*
X017622Y007941D01*
X017545Y007941D01*
X017545Y008018D01*
X017786Y008171D02*
X018016Y008171D01*
X017940Y008324D01*
X017940Y008401D01*
X018016Y008478D01*
X018170Y008478D01*
X018247Y008401D01*
X018247Y008248D01*
X018170Y008171D01*
X018170Y008018D02*
X018247Y008018D01*
X018247Y007941D01*
X018170Y007941D01*
X018170Y008018D01*
X018411Y008248D02*
X018411Y008401D01*
X018488Y008478D01*
X018565Y008478D01*
X018641Y008401D01*
X018718Y008478D01*
X018795Y008478D01*
X018872Y008401D01*
X018872Y008248D01*
X018795Y008171D01*
X018795Y008018D02*
X018872Y008018D01*
X018872Y007941D01*
X018795Y007941D01*
X018795Y008018D01*
X019036Y007941D02*
X019343Y007941D01*
X019497Y008094D01*
X019343Y008248D01*
X019036Y008248D01*
X018641Y008324D02*
X018641Y008401D01*
X018718Y008631D02*
X018411Y008631D01*
X018247Y008785D02*
X018093Y008938D01*
X017786Y008938D01*
X017786Y008631D02*
X018093Y008631D01*
X018247Y008785D01*
X018411Y008938D02*
X018718Y008938D01*
X018872Y008785D01*
X018718Y008631D01*
X018411Y008248D02*
X018488Y008171D01*
X018488Y007787D02*
X018565Y007787D01*
X018641Y007711D01*
X018718Y007787D01*
X018795Y007787D01*
X018872Y007711D01*
X018872Y007557D01*
X018795Y007480D01*
X018641Y007327D02*
X018641Y007020D01*
X018488Y007173D02*
X018795Y007173D01*
X019113Y007173D02*
X019420Y007173D01*
X019266Y007020D02*
X019266Y007327D01*
X019266Y007480D02*
X019036Y007480D01*
X019036Y007787D01*
X019190Y007711D02*
X019190Y007634D01*
X019266Y007480D01*
X019420Y007480D02*
X019497Y007557D01*
X019497Y007711D01*
X019420Y007787D01*
X019266Y007787D01*
X019190Y007711D01*
X018641Y007711D02*
X018641Y007634D01*
X018488Y007787D02*
X018411Y007711D01*
X018411Y007557D01*
X018488Y007480D01*
X018247Y007480D02*
X017940Y007787D01*
X017863Y007787D01*
X017786Y007711D01*
X017786Y007557D01*
X017863Y007480D01*
X018016Y007327D02*
X018016Y007020D01*
X017863Y007173D02*
X018170Y007173D01*
X018247Y007480D02*
X018247Y007787D01*
X017786Y008171D02*
X017786Y008478D01*
X017622Y007787D02*
X017622Y007480D01*
X017622Y007634D02*
X017161Y007634D01*
X017315Y007480D01*
X017391Y007327D02*
X017391Y007020D01*
X017238Y007173D02*
X017545Y007173D01*
X016934Y006481D02*
X016781Y006328D01*
X016781Y006404D02*
X016704Y006481D01*
X016551Y006481D01*
X016474Y006404D01*
X016474Y006174D01*
X016934Y006174D01*
X016781Y006174D02*
X016781Y006404D01*
X016934Y006021D02*
X016934Y005714D01*
X016474Y005714D01*
X016474Y006021D01*
X016704Y005867D02*
X016704Y005714D01*
X016934Y005560D02*
X016474Y005560D01*
X016474Y005253D02*
X016934Y005253D01*
X016781Y005407D01*
X016934Y005560D01*
X016857Y005100D02*
X016551Y005100D01*
X016474Y005023D01*
X016474Y004870D01*
X016551Y004793D01*
X016857Y004793D01*
X016934Y004870D01*
X016934Y005023D01*
X016857Y005100D01*
X016704Y004639D02*
X016781Y004563D01*
X016781Y004333D01*
X016934Y004333D02*
X016474Y004333D01*
X016474Y004563D01*
X016551Y004639D01*
X016704Y004639D01*
X019286Y005020D02*
X019286Y005173D01*
X019286Y005097D02*
X019747Y005097D01*
X019747Y005173D02*
X019747Y005020D01*
X019747Y005327D02*
X019286Y005327D01*
X019747Y005634D01*
X019286Y005634D01*
X015969Y001654D02*
X015662Y001347D01*
X015815Y001347D02*
X015815Y001654D01*
X015662Y001654D02*
X015969Y001347D01*
X015969Y001500D02*
X015662Y001500D01*
X015031Y000855D02*
X014724Y000855D01*
X014724Y000625D01*
X014878Y000702D01*
X014954Y000702D01*
X015031Y000625D01*
X015031Y000472D01*
X014954Y000395D01*
X014801Y000395D01*
X014724Y000472D01*
X014031Y000625D02*
X013724Y000625D01*
X013954Y000855D01*
X013954Y000395D01*
X010981Y001472D02*
X010904Y001395D01*
X010751Y001395D01*
X010674Y001472D01*
X010827Y001625D02*
X010904Y001625D01*
X010981Y001548D01*
X010981Y001472D01*
X010904Y001625D02*
X010981Y001702D01*
X010981Y001779D01*
X010904Y001855D01*
X010751Y001855D01*
X010674Y001779D01*
X010521Y001779D02*
X010214Y001472D01*
X010214Y001395D01*
X010060Y001395D02*
X009753Y001702D01*
X009600Y001779D02*
X009600Y001472D01*
X009523Y001395D01*
X009370Y001395D01*
X009293Y001472D01*
X009600Y001779D01*
X009523Y001855D01*
X009370Y001855D01*
X009293Y001779D01*
X009293Y001472D01*
X009753Y001395D02*
X010060Y001702D01*
X010214Y001855D02*
X010521Y001855D01*
X010521Y001779D01*
X010694Y002145D02*
X011001Y002452D01*
X011001Y002529D01*
X010924Y002605D01*
X010771Y002605D01*
X010694Y002529D01*
X010540Y002529D02*
X010540Y002605D01*
X010233Y002605D01*
X010080Y002452D02*
X009773Y002145D01*
X009620Y002222D02*
X009543Y002145D01*
X009389Y002145D01*
X009313Y002222D01*
X009620Y002529D01*
X009620Y002222D01*
X009313Y002222D02*
X009313Y002529D01*
X009389Y002605D01*
X009543Y002605D01*
X009620Y002529D01*
X009773Y002452D02*
X010080Y002145D01*
X010233Y002145D02*
X010233Y002222D01*
X010540Y002529D01*
X010694Y002145D02*
X011001Y002145D01*
X011001Y002895D02*
X010694Y002895D01*
X010847Y002895D02*
X010847Y003355D01*
X010694Y003202D01*
X010540Y003279D02*
X010233Y002972D01*
X010233Y002895D01*
X010080Y002895D02*
X009773Y003202D01*
X009620Y003279D02*
X009313Y002972D01*
X009389Y002895D01*
X009543Y002895D01*
X009620Y002972D01*
X009620Y003279D01*
X009543Y003355D01*
X009389Y003355D01*
X009313Y003279D01*
X009313Y002972D01*
X009773Y002895D02*
X010080Y003202D01*
X010233Y003355D02*
X010540Y003355D01*
X010540Y003279D01*
X010790Y003645D02*
X010714Y003722D01*
X011021Y004029D01*
X011021Y003722D01*
X010944Y003645D01*
X010790Y003645D01*
X010714Y003722D02*
X010714Y004029D01*
X010790Y004105D01*
X010944Y004105D01*
X011021Y004029D01*
X010560Y004029D02*
X010253Y003722D01*
X010253Y003645D01*
X010100Y003645D02*
X009793Y003952D01*
X009639Y004029D02*
X009639Y003722D01*
X009563Y003645D01*
X009409Y003645D01*
X009332Y003722D01*
X009639Y004029D01*
X009563Y004105D01*
X009409Y004105D01*
X009332Y004029D01*
X009332Y003722D01*
X009793Y003645D02*
X010100Y003952D01*
X010253Y004105D02*
X010560Y004105D01*
X010560Y004029D01*
X010626Y004520D02*
X010396Y004520D01*
X010396Y004980D01*
X010626Y004980D01*
X010702Y004904D01*
X010702Y004597D01*
X010626Y004520D01*
X010856Y004520D02*
X010856Y004980D01*
X011086Y004980D01*
X011163Y004904D01*
X011163Y004750D01*
X011086Y004673D01*
X010856Y004673D01*
X011009Y004673D02*
X011163Y004520D01*
X011316Y004520D02*
X011623Y004520D01*
X011777Y004597D02*
X011853Y004520D01*
X012007Y004520D01*
X012084Y004597D01*
X012084Y004673D01*
X012007Y004750D01*
X011853Y004750D01*
X011777Y004827D01*
X011777Y004904D01*
X011853Y004980D01*
X012007Y004980D01*
X012084Y004904D01*
X012237Y004904D02*
X012237Y004827D01*
X012314Y004750D01*
X012467Y004750D01*
X012544Y004673D01*
X012544Y004597D01*
X012467Y004520D01*
X012314Y004520D01*
X012237Y004597D01*
X012237Y004904D02*
X012314Y004980D01*
X012467Y004980D01*
X012544Y004904D01*
X011623Y004980D02*
X011316Y004980D01*
X011316Y004520D01*
X011316Y004750D02*
X011470Y004750D01*
X010372Y005395D02*
X009911Y005395D01*
X009911Y005625D01*
X009988Y005702D01*
X010141Y005702D01*
X010218Y005625D01*
X010218Y005395D01*
X010165Y004980D02*
X009935Y004980D01*
X009935Y004520D01*
X010165Y004520D01*
X010242Y004597D01*
X010242Y004904D01*
X010165Y004980D01*
X009782Y004827D02*
X009782Y004520D01*
X009782Y004750D02*
X009475Y004750D01*
X009475Y004827D02*
X009475Y004520D01*
X009475Y004827D02*
X009628Y004980D01*
X009782Y004827D01*
X008861Y004904D02*
X008784Y004980D01*
X008631Y004980D01*
X008554Y004904D01*
X008554Y004597D01*
X008631Y004520D01*
X008784Y004520D01*
X008861Y004597D01*
X008401Y004520D02*
X008094Y004520D01*
X008401Y004827D01*
X008401Y004904D01*
X008324Y004980D01*
X008170Y004980D01*
X008094Y004904D01*
X007940Y004980D02*
X007787Y004980D01*
X007863Y004980D02*
X007863Y004520D01*
X007787Y004520D02*
X007940Y004520D01*
X008412Y003952D02*
X008412Y003875D01*
X008488Y003875D01*
X008488Y003952D01*
X008412Y003952D01*
X008642Y003952D02*
X008642Y003875D01*
X008719Y003875D01*
X008719Y003952D01*
X008642Y003952D01*
X008642Y003722D02*
X008642Y003645D01*
X008719Y003645D01*
X008719Y003722D01*
X008642Y003722D01*
X008488Y003722D02*
X008488Y003645D01*
X008412Y003645D01*
X008412Y003722D01*
X008488Y003722D01*
X008469Y003355D02*
X008162Y002895D01*
X008469Y002895D02*
X008162Y003355D01*
X008622Y003202D02*
X008622Y003125D01*
X008699Y003125D01*
X008699Y003202D01*
X008622Y003202D01*
X008622Y002972D02*
X008622Y002895D01*
X008699Y002895D01*
X008699Y002972D01*
X008622Y002972D01*
X008699Y002605D02*
X008699Y002529D01*
X008545Y002375D01*
X008545Y002145D01*
X008545Y002375D02*
X008392Y002529D01*
X008392Y002605D01*
X008238Y002452D02*
X008238Y002375D01*
X008162Y002375D01*
X008162Y002452D01*
X008238Y002452D01*
X008238Y002222D02*
X008238Y002145D01*
X008162Y002145D01*
X008162Y002222D01*
X008238Y002222D01*
X008219Y001855D02*
X007912Y001395D01*
X008219Y001395D02*
X007912Y001855D01*
X008372Y001855D02*
X008372Y001779D01*
X008526Y001625D01*
X008526Y001395D01*
X008526Y001625D02*
X008679Y001779D01*
X008679Y001855D01*
X006281Y000855D02*
X006281Y000779D01*
X005974Y000472D01*
X005974Y000395D01*
X005974Y000855D02*
X006281Y000855D01*
X005281Y000855D02*
X005128Y000779D01*
X004974Y000625D01*
X005204Y000625D01*
X005281Y000548D01*
X005281Y000472D01*
X005204Y000395D01*
X005051Y000395D01*
X004974Y000472D01*
X004974Y000625D01*
X009988Y005855D02*
X010295Y005855D01*
X010372Y005932D01*
X010372Y006086D01*
X010295Y006162D01*
X009988Y006162D01*
X009911Y006086D01*
X009911Y005932D01*
X009988Y005855D01*
X009911Y006316D02*
X010372Y006316D01*
X010218Y006469D01*
X010372Y006623D01*
X009911Y006623D01*
X009911Y006776D02*
X010372Y006776D01*
X010372Y007083D01*
X010372Y007237D02*
X009911Y007237D01*
X009911Y007467D01*
X009988Y007543D01*
X010141Y007543D01*
X010218Y007467D01*
X010218Y007237D01*
X010218Y007390D02*
X010372Y007543D01*
X010295Y008157D02*
X010372Y008234D01*
X010372Y008388D01*
X010295Y008464D01*
X010218Y008464D01*
X010141Y008388D01*
X010141Y008234D01*
X010065Y008157D01*
X009988Y008157D01*
X009911Y008234D01*
X009911Y008388D01*
X009988Y008464D01*
X009911Y008618D02*
X009911Y008925D01*
X009911Y009078D02*
X010372Y009078D01*
X010141Y008771D02*
X010141Y008618D01*
X009911Y007083D02*
X009911Y006776D01*
X010141Y006776D02*
X010141Y006930D01*
X012912Y006847D02*
X012988Y006770D01*
X013142Y006770D01*
X013219Y006847D01*
X013219Y007154D01*
X013142Y007230D01*
X012988Y007230D01*
X012912Y007154D01*
X012912Y006847D01*
X013372Y006847D02*
X013449Y006770D01*
X013602Y006770D01*
X013679Y006847D01*
X013679Y007230D01*
X013832Y007230D02*
X014139Y007230D01*
X013986Y007230D02*
X013986Y006770D01*
X013372Y006847D02*
X013372Y007230D01*
X016474Y010901D02*
X016934Y010901D01*
X016934Y011208D01*
X016934Y011362D02*
X016474Y011362D01*
X016474Y011592D01*
X016551Y011668D01*
X016704Y011668D01*
X016781Y011592D01*
X016781Y011362D01*
X016781Y011515D02*
X016934Y011668D01*
X016474Y011208D02*
X016474Y010901D01*
X016704Y010901D02*
X016704Y011055D01*
X019286Y011066D02*
X019286Y011373D01*
X019286Y011219D02*
X019747Y011219D01*
X019670Y010912D02*
X019286Y010912D01*
X019286Y010605D02*
X019670Y010605D01*
X019747Y010682D01*
X019747Y010836D01*
X019670Y010912D01*
X019670Y010452D02*
X019363Y010452D01*
X019286Y010375D01*
X019286Y010222D01*
X019363Y010145D01*
X019670Y010145D01*
X019747Y010222D01*
X019747Y010375D01*
X019670Y010452D01*
X014954Y015145D02*
X014801Y015145D01*
X014724Y015222D01*
X014878Y015375D02*
X014954Y015375D01*
X015031Y015298D01*
X015031Y015222D01*
X014954Y015145D01*
X014954Y015375D02*
X015031Y015452D01*
X015031Y015529D01*
X014954Y015605D01*
X014801Y015605D01*
X014724Y015529D01*
X014031Y015529D02*
X014031Y015452D01*
X013724Y015145D01*
X014031Y015145D01*
X014031Y015529D02*
X013954Y015605D01*
X013801Y015605D01*
X013724Y015529D01*
X012297Y013855D02*
X012066Y013855D01*
X012066Y013395D01*
X012297Y013395D01*
X012373Y013472D01*
X012373Y013548D01*
X012297Y013625D01*
X012066Y013625D01*
X011913Y013702D02*
X011913Y013779D01*
X011836Y013855D01*
X011683Y013855D01*
X011606Y013779D01*
X011452Y013779D02*
X011146Y013472D01*
X011222Y013395D01*
X011376Y013395D01*
X011452Y013472D01*
X011452Y013779D01*
X011376Y013855D01*
X011222Y013855D01*
X011146Y013779D01*
X011146Y013472D01*
X010992Y013472D02*
X010915Y013395D01*
X010685Y013395D01*
X010685Y013855D01*
X010915Y013855D01*
X010992Y013779D01*
X010992Y013702D01*
X010915Y013625D01*
X010685Y013625D01*
X010532Y013472D02*
X010532Y013855D01*
X010457Y014145D02*
X010457Y014452D01*
X010611Y014605D01*
X010764Y014452D01*
X010764Y014145D01*
X010918Y014145D02*
X011148Y014145D01*
X011225Y014222D01*
X011225Y014298D01*
X011148Y014375D01*
X010918Y014375D01*
X010764Y014375D02*
X010457Y014375D01*
X010304Y014145D02*
X009997Y014145D01*
X009997Y014605D01*
X009844Y014605D02*
X009690Y014452D01*
X009537Y014605D01*
X009537Y014145D01*
X009844Y014145D02*
X009844Y014605D01*
X009764Y013855D02*
X009764Y013395D01*
X009611Y013472D02*
X009534Y013395D01*
X009381Y013395D01*
X009304Y013472D01*
X009304Y013779D01*
X009381Y013855D01*
X009534Y013855D01*
X009611Y013779D01*
X009764Y013625D02*
X010071Y013625D01*
X010225Y013472D02*
X010302Y013395D01*
X010455Y013395D01*
X010532Y013472D01*
X010225Y013472D02*
X010225Y013855D01*
X010071Y013855D02*
X010071Y013395D01*
X010915Y013625D02*
X010992Y013548D01*
X010992Y013472D01*
X011606Y013395D02*
X011913Y013702D01*
X011913Y013395D02*
X011606Y013395D01*
X012297Y013625D02*
X012373Y013702D01*
X012373Y013779D01*
X012297Y013855D01*
X011225Y014452D02*
X011148Y014375D01*
X011225Y014452D02*
X011225Y014529D01*
X011148Y014605D01*
X010918Y014605D01*
X010918Y014145D01*
X009151Y013779D02*
X009151Y013702D01*
X008844Y013395D01*
X009151Y013395D01*
X008690Y013395D02*
X008537Y013395D01*
X008613Y013395D02*
X008613Y013855D01*
X008537Y013855D02*
X008690Y013855D01*
X008844Y013779D02*
X008920Y013855D01*
X009074Y013855D01*
X009151Y013779D01*
X008077Y013270D02*
X007770Y013270D01*
X007770Y013730D01*
X007616Y013654D02*
X007540Y013730D01*
X007386Y013730D01*
X007310Y013654D01*
X007310Y013347D01*
X007386Y013270D01*
X007540Y013270D01*
X007616Y013347D01*
X007156Y013347D02*
X007079Y013270D01*
X006926Y013270D01*
X006849Y013347D01*
X006926Y013500D02*
X007079Y013500D01*
X007156Y013423D01*
X007156Y013347D01*
X006926Y013500D02*
X006849Y013577D01*
X006849Y013654D01*
X006926Y013730D01*
X007079Y013730D01*
X007156Y013654D01*
X007079Y014270D02*
X006926Y014270D01*
X006849Y014347D01*
X006849Y014654D01*
X006926Y014730D01*
X007079Y014730D01*
X007156Y014654D01*
X007156Y014500D02*
X007003Y014500D01*
X007156Y014500D02*
X007156Y014347D01*
X007079Y014270D01*
X007310Y014270D02*
X007310Y014730D01*
X007616Y014270D01*
X007616Y014730D01*
X007770Y014730D02*
X008000Y014730D01*
X008077Y014654D01*
X008077Y014347D01*
X008000Y014270D01*
X007770Y014270D01*
X007770Y014730D01*
X006281Y015145D02*
X005974Y015145D01*
X006128Y015145D02*
X006128Y015605D01*
X005974Y015452D01*
X005281Y015529D02*
X005281Y015222D01*
X005204Y015145D01*
X005051Y015145D01*
X004974Y015222D01*
X005281Y015529D01*
X005204Y015605D01*
X005051Y015605D01*
X004974Y015529D01*
X004974Y015222D01*
X004344Y014654D02*
X004037Y014347D01*
X004190Y014347D02*
X004190Y014654D01*
X004037Y014654D02*
X004344Y014347D01*
X004344Y014500D02*
X004037Y014500D01*
X003606Y012480D02*
X003299Y012480D01*
X003452Y012480D02*
X003452Y012020D01*
X003146Y012097D02*
X003069Y012020D01*
X002915Y012020D01*
X002839Y012097D01*
X002839Y012404D01*
X002915Y012480D01*
X003069Y012480D01*
X003146Y012404D01*
X002685Y012480D02*
X002378Y012480D01*
X002378Y012020D01*
X002685Y012020D01*
X002668Y011855D02*
X002898Y011855D01*
X002975Y011779D01*
X002975Y011625D01*
X002898Y011548D01*
X002668Y011548D01*
X002668Y011395D02*
X002668Y011855D01*
X002514Y011779D02*
X002438Y011855D01*
X002207Y011855D01*
X002207Y011395D01*
X002438Y011395D01*
X002514Y011472D01*
X002514Y011779D01*
X002225Y012020D02*
X001918Y012020D01*
X001918Y012480D01*
X001764Y012480D02*
X001457Y012480D01*
X001457Y012020D01*
X001764Y012020D01*
X001747Y011855D02*
X001977Y011855D01*
X002054Y011779D01*
X002054Y011472D01*
X001977Y011395D01*
X001747Y011395D01*
X001747Y011855D01*
X001594Y011702D02*
X001594Y011395D01*
X001594Y011625D02*
X001287Y011625D01*
X001287Y011702D02*
X001287Y011395D01*
X001287Y011702D02*
X001440Y011855D01*
X001594Y011702D01*
X001227Y012020D02*
X001074Y012020D01*
X000997Y012097D01*
X001074Y012250D02*
X001227Y012250D01*
X001304Y012173D01*
X001304Y012097D01*
X001227Y012020D01*
X001074Y012250D02*
X000997Y012327D01*
X000997Y012404D01*
X001074Y012480D01*
X001227Y012480D01*
X001304Y012404D01*
X001457Y012250D02*
X001611Y012250D01*
X002378Y012250D02*
X002532Y012250D01*
X002821Y011548D02*
X002975Y011395D01*
X003128Y011395D02*
X003205Y011395D01*
X003205Y011472D01*
X003128Y011472D01*
X003128Y011395D01*
X002844Y010980D02*
X002844Y010904D01*
X002690Y010750D01*
X002690Y010520D01*
X002690Y010750D02*
X002537Y010904D01*
X002537Y010980D01*
X001844Y010980D02*
X001537Y010520D01*
X001844Y010520D02*
X001537Y010980D01*
X006849Y010654D02*
X006849Y010347D01*
X006926Y010270D01*
X007079Y010270D01*
X007156Y010347D01*
X007156Y010500D01*
X007003Y010500D01*
X007156Y010654D02*
X007079Y010730D01*
X006926Y010730D01*
X006849Y010654D01*
X007310Y010730D02*
X007310Y010270D01*
X007616Y010270D02*
X007616Y010730D01*
X007770Y010730D02*
X008000Y010730D01*
X008077Y010654D01*
X008077Y010347D01*
X008000Y010270D01*
X007770Y010270D01*
X007770Y010730D01*
X007310Y010730D02*
X007616Y010270D01*
X007540Y011270D02*
X007310Y011270D01*
X007310Y011730D01*
X007540Y011730D01*
X007616Y011654D01*
X007616Y011347D01*
X007540Y011270D01*
X007770Y011270D02*
X007770Y011577D01*
X007923Y011730D01*
X008077Y011577D01*
X008077Y011270D01*
X008077Y011500D02*
X007770Y011500D01*
X007156Y011423D02*
X007156Y011347D01*
X007079Y011270D01*
X006926Y011270D01*
X006849Y011347D01*
X006926Y011500D02*
X007079Y011500D01*
X007156Y011423D01*
X007156Y011654D02*
X007079Y011730D01*
X006926Y011730D01*
X006849Y011654D01*
X006849Y011577D01*
X006926Y011500D01*
X007003Y012270D02*
X007156Y012423D01*
X007156Y012730D01*
X007310Y012654D02*
X007310Y012347D01*
X007386Y012270D01*
X007540Y012270D01*
X007616Y012347D01*
X007770Y012347D02*
X007847Y012270D01*
X008000Y012270D01*
X008077Y012347D01*
X008077Y012654D02*
X008000Y012730D01*
X007847Y012730D01*
X007770Y012654D01*
X007770Y012347D01*
X007616Y012654D02*
X007540Y012730D01*
X007386Y012730D01*
X007310Y012654D01*
X006849Y012730D02*
X006849Y012423D01*
X007003Y012270D01*
X011036Y011918D02*
X011036Y011612D01*
X011497Y011612D01*
X011266Y011612D02*
X011266Y011765D01*
X012036Y012302D02*
X012113Y012379D01*
D11*
X008517Y009250D02*
X006392Y009250D01*
D12*
X004642Y001750D02*
X004642Y001250D01*
X004892Y001000D01*
X005392Y001000D01*
X005642Y001250D01*
X005642Y001750D01*
X005892Y002000D01*
X005642Y002250D01*
X005642Y002750D01*
X005892Y003000D01*
X005642Y003250D01*
X005642Y003750D01*
X005892Y004000D01*
X005642Y004250D01*
X005642Y004750D01*
X005892Y005000D01*
X005642Y005250D01*
X005642Y005750D01*
X005892Y006000D01*
X006392Y006000D01*
X006642Y005750D01*
X006642Y005250D01*
X006392Y005000D01*
X006642Y004750D01*
X006642Y004250D01*
X006392Y004000D01*
X006642Y003750D01*
X006642Y003250D01*
X006392Y003000D01*
X006642Y002750D01*
X006642Y002250D01*
X006392Y002000D01*
X006642Y001750D01*
X006642Y001250D01*
X006392Y001000D01*
X005892Y001000D01*
X005642Y001250D01*
X005642Y001750D01*
X005392Y002000D01*
X005642Y002250D01*
X005642Y002750D01*
X005392Y003000D01*
X005642Y003250D01*
X005642Y003750D01*
X005392Y004000D01*
X005642Y004250D01*
X005642Y004750D01*
X005392Y005000D01*
X005642Y005250D01*
X005642Y005750D01*
X005392Y006000D01*
X004892Y006000D01*
X004642Y005750D01*
X004642Y005250D01*
X004892Y005000D01*
X004642Y004750D01*
X004642Y004250D01*
X004892Y004000D01*
X004642Y003750D01*
X004642Y003250D01*
X004892Y003000D01*
X004642Y002750D01*
X004642Y002250D01*
X004892Y002000D01*
X004642Y001750D01*
X004392Y006375D02*
X005892Y006375D01*
X006142Y006625D01*
X006142Y007125D01*
X005892Y007375D01*
X006142Y007625D01*
X006142Y008125D01*
X005892Y008375D01*
X006142Y008625D01*
X006142Y009125D01*
X005892Y009375D01*
X004392Y009375D01*
X004142Y009125D01*
X004142Y008625D01*
X004392Y008375D01*
X004142Y008125D01*
X004142Y007625D01*
X004392Y007375D01*
X004142Y007125D01*
X004142Y006625D01*
X004392Y006375D01*
X002892Y008375D02*
X002392Y008375D01*
X002142Y008625D01*
X001892Y008375D01*
X001392Y008375D01*
X001142Y008625D01*
X001142Y010125D01*
X001392Y010375D01*
X001892Y010375D01*
X002142Y010125D01*
X002392Y010375D01*
X002892Y010375D01*
X003142Y010125D01*
X003142Y008625D01*
X002892Y008375D01*
X004642Y010250D02*
X004892Y010000D01*
X005392Y010000D01*
X005642Y010250D01*
X005642Y010750D01*
X005892Y011000D01*
X005642Y011250D01*
X005642Y011750D01*
X005892Y012000D01*
X005642Y012250D01*
X005642Y012750D01*
X005892Y013000D01*
X005642Y013250D01*
X005642Y013750D01*
X005892Y014000D01*
X005642Y014250D01*
X005642Y014750D01*
X005892Y015000D01*
X006392Y015000D01*
X006642Y014750D01*
X006642Y014250D01*
X006392Y014000D01*
X006642Y013750D01*
X006642Y013250D01*
X006392Y013000D01*
X006642Y012750D01*
X006642Y012250D01*
X006392Y012000D01*
X006642Y011750D01*
X006642Y011250D01*
X006392Y011000D01*
X006642Y010750D01*
X006642Y010250D01*
X006392Y010000D01*
X005892Y010000D01*
X005642Y010250D01*
X005642Y010750D01*
X005392Y011000D01*
X005642Y011250D01*
X005642Y011750D01*
X005392Y012000D01*
X005642Y012250D01*
X005642Y012750D01*
X005392Y013000D01*
X005642Y013250D01*
X005642Y013750D01*
X005392Y014000D01*
X005642Y014250D01*
X005642Y014750D01*
X005392Y015000D01*
X004892Y015000D01*
X004642Y014750D01*
X004642Y014250D01*
X004892Y014000D01*
X004642Y013750D01*
X004642Y013250D01*
X004892Y013000D01*
X004642Y012750D01*
X004642Y012250D01*
X004892Y012000D01*
X004642Y011750D01*
X004642Y011250D01*
X004892Y011000D01*
X004642Y010750D01*
X004642Y010250D01*
X010704Y009250D02*
X010704Y008750D01*
X010954Y008500D01*
X010704Y008250D01*
X010704Y007750D01*
X010954Y007500D01*
X010704Y007250D01*
X010704Y006750D01*
X010954Y006500D01*
X012454Y006500D01*
X012704Y006750D01*
X012704Y007250D01*
X012454Y007500D01*
X012704Y007750D01*
X012704Y008250D01*
X012454Y008500D01*
X012704Y008750D01*
X012704Y009250D01*
X012454Y009500D01*
X010954Y009500D01*
X010704Y009250D01*
X013392Y010250D02*
X013642Y010000D01*
X014142Y010000D01*
X014392Y010250D01*
X014642Y010000D01*
X015142Y010000D01*
X015392Y010250D01*
X015392Y010750D01*
X015142Y011000D01*
X015392Y011250D01*
X015392Y011750D01*
X015142Y012000D01*
X015392Y012250D01*
X015392Y012750D01*
X015142Y013000D01*
X015392Y013250D01*
X015392Y013750D01*
X015142Y014000D01*
X015392Y014250D01*
X015392Y014750D01*
X015142Y015000D01*
X014642Y015000D01*
X014392Y014750D01*
X014392Y014250D01*
X014642Y014000D01*
X014392Y013750D01*
X014392Y013250D01*
X014642Y013000D01*
X014392Y012750D01*
X014392Y012250D01*
X014642Y012000D01*
X014392Y011750D01*
X014392Y011250D01*
X014642Y011000D01*
X014392Y010750D01*
X014392Y010250D01*
X014392Y010750D01*
X014142Y011000D01*
X014392Y011250D01*
X014392Y011750D01*
X014142Y012000D01*
X014392Y012250D01*
X014392Y012750D01*
X014142Y013000D01*
X014392Y013250D01*
X014392Y013750D01*
X014142Y014000D01*
X014392Y014250D01*
X014392Y014750D01*
X014142Y015000D01*
X013642Y015000D01*
X013392Y014750D01*
X013392Y014250D01*
X013642Y014000D01*
X013392Y013750D01*
X013392Y013250D01*
X013642Y013000D01*
X013392Y012750D01*
X013392Y012250D01*
X013642Y012000D01*
X013392Y011750D01*
X013392Y011250D01*
X013642Y011000D01*
X013392Y010750D01*
X013392Y010250D01*
X017142Y010375D02*
X017142Y010875D01*
X017392Y011125D01*
X017142Y011375D01*
X017142Y011875D01*
X017392Y012125D01*
X018892Y012125D01*
X019142Y011875D01*
X019142Y011375D01*
X018892Y011125D01*
X019142Y010875D01*
X019142Y010375D01*
X018892Y010125D01*
X019142Y009875D01*
X019142Y009375D01*
X018892Y009125D01*
X017392Y009125D01*
X017142Y009375D01*
X017142Y009875D01*
X017392Y010125D01*
X017142Y010375D01*
X017392Y006875D02*
X017142Y006625D01*
X017142Y006125D01*
X017392Y005875D01*
X017142Y005625D01*
X017142Y005125D01*
X017392Y004875D01*
X017142Y004625D01*
X017142Y004125D01*
X017392Y003875D01*
X018892Y003875D01*
X019142Y004125D01*
X019142Y004625D01*
X018892Y004875D01*
X019142Y005125D01*
X019142Y005625D01*
X018892Y005875D01*
X019142Y006125D01*
X019142Y006625D01*
X018892Y006875D01*
X017392Y006875D01*
X015392Y005750D02*
X015392Y005250D01*
X015142Y005000D01*
X015392Y004750D01*
X015392Y004250D01*
X015142Y004000D01*
X015392Y003750D01*
X015392Y003250D01*
X015142Y003000D01*
X015392Y002750D01*
X015392Y002250D01*
X015142Y002000D01*
X015392Y001750D01*
X015392Y001250D01*
X015142Y001000D01*
X014642Y001000D01*
X014392Y001250D01*
X014392Y001750D01*
X014642Y002000D01*
X014392Y002250D01*
X014392Y002750D01*
X014642Y003000D01*
X014392Y003250D01*
X014392Y003750D01*
X014642Y004000D01*
X014392Y004250D01*
X014392Y004750D01*
X014642Y005000D01*
X014392Y005250D01*
X014392Y005750D01*
X014642Y006000D01*
X015142Y006000D01*
X015392Y005750D01*
X014392Y005750D02*
X014392Y005250D01*
X014142Y005000D01*
X014392Y004750D01*
X014392Y004250D01*
X014142Y004000D01*
X014392Y003750D01*
X014392Y003250D01*
X014142Y003000D01*
X014392Y002750D01*
X014392Y002250D01*
X014142Y002000D01*
X014392Y001750D01*
X014392Y001250D01*
X014142Y001000D01*
X013642Y001000D01*
X013392Y001250D01*
X013392Y001750D01*
X013642Y002000D01*
X013392Y002250D01*
X013392Y002750D01*
X013642Y003000D01*
X013392Y003250D01*
X013392Y003750D01*
X013642Y004000D01*
X013392Y004250D01*
X013392Y004750D01*
X013642Y005000D01*
X013392Y005250D01*
X013392Y005750D01*
X013642Y006000D01*
X014142Y006000D01*
X014392Y005750D01*
D13*
X014266Y010000D02*
X014268Y010015D01*
X014273Y010029D01*
X014282Y010042D01*
X014293Y010052D01*
X014307Y010059D01*
X014321Y010063D01*
X014337Y010063D01*
X014351Y010059D01*
X014365Y010052D01*
X014376Y010042D01*
X014385Y010029D01*
X014390Y010015D01*
X014392Y010000D01*
X014390Y009985D01*
X014385Y009971D01*
X014376Y009958D01*
X014365Y009948D01*
X014351Y009941D01*
X014337Y009937D01*
X014321Y009937D01*
X014307Y009941D01*
X014293Y009948D01*
X014282Y009958D01*
X014273Y009971D01*
X014268Y009985D01*
X014266Y010000D01*
X015266Y010000D02*
X015268Y010015D01*
X015273Y010029D01*
X015282Y010042D01*
X015293Y010052D01*
X015307Y010059D01*
X015321Y010063D01*
X015337Y010063D01*
X015351Y010059D01*
X015365Y010052D01*
X015376Y010042D01*
X015385Y010029D01*
X015390Y010015D01*
X015392Y010000D01*
X015390Y009985D01*
X015385Y009971D01*
X015376Y009958D01*
X015365Y009948D01*
X015351Y009941D01*
X015337Y009937D01*
X015321Y009937D01*
X015307Y009941D01*
X015293Y009948D01*
X015282Y009958D01*
X015273Y009971D01*
X015268Y009985D01*
X015266Y010000D01*
X005641Y006000D02*
X005643Y006015D01*
X005648Y006029D01*
X005657Y006042D01*
X005668Y006052D01*
X005682Y006059D01*
X005696Y006063D01*
X005712Y006063D01*
X005726Y006059D01*
X005740Y006052D01*
X005751Y006042D01*
X005760Y006029D01*
X005765Y006015D01*
X005767Y006000D01*
X005765Y005985D01*
X005760Y005971D01*
X005751Y005958D01*
X005740Y005948D01*
X005726Y005941D01*
X005712Y005937D01*
X005696Y005937D01*
X005682Y005941D01*
X005668Y005948D01*
X005657Y005958D01*
X005648Y005971D01*
X005643Y005985D01*
X005641Y006000D01*
X004641Y006000D02*
X004643Y006015D01*
X004648Y006029D01*
X004657Y006042D01*
X004668Y006052D01*
X004682Y006059D01*
X004696Y006063D01*
X004712Y006063D01*
X004726Y006059D01*
X004740Y006052D01*
X004751Y006042D01*
X004760Y006029D01*
X004765Y006015D01*
X004767Y006000D01*
X004765Y005985D01*
X004760Y005971D01*
X004751Y005958D01*
X004740Y005948D01*
X004726Y005941D01*
X004712Y005937D01*
X004696Y005937D01*
X004682Y005941D01*
X004668Y005948D01*
X004657Y005958D01*
X004648Y005971D01*
X004643Y005985D01*
X004641Y006000D01*
X014266Y001000D02*
X014268Y001015D01*
X014273Y001029D01*
X014282Y001042D01*
X014293Y001052D01*
X014307Y001059D01*
X014321Y001063D01*
X014337Y001063D01*
X014351Y001059D01*
X014365Y001052D01*
X014376Y001042D01*
X014385Y001029D01*
X014390Y001015D01*
X014392Y001000D01*
X014390Y000985D01*
X014385Y000971D01*
X014376Y000958D01*
X014365Y000948D01*
X014351Y000941D01*
X014337Y000937D01*
X014321Y000937D01*
X014307Y000941D01*
X014293Y000948D01*
X014282Y000958D01*
X014273Y000971D01*
X014268Y000985D01*
X014266Y001000D01*
X015266Y001000D02*
X015268Y001015D01*
X015273Y001029D01*
X015282Y001042D01*
X015293Y001052D01*
X015307Y001059D01*
X015321Y001063D01*
X015337Y001063D01*
X015351Y001059D01*
X015365Y001052D01*
X015376Y001042D01*
X015385Y001029D01*
X015390Y001015D01*
X015392Y001000D01*
X015390Y000985D01*
X015385Y000971D01*
X015376Y000958D01*
X015365Y000948D01*
X015351Y000941D01*
X015337Y000937D01*
X015321Y000937D01*
X015307Y000941D01*
X015293Y000948D01*
X015282Y000958D01*
X015273Y000971D01*
X015268Y000985D01*
X015266Y001000D01*
X005641Y015000D02*
X005643Y015015D01*
X005648Y015029D01*
X005657Y015042D01*
X005668Y015052D01*
X005682Y015059D01*
X005696Y015063D01*
X005712Y015063D01*
X005726Y015059D01*
X005740Y015052D01*
X005751Y015042D01*
X005760Y015029D01*
X005765Y015015D01*
X005767Y015000D01*
X005765Y014985D01*
X005760Y014971D01*
X005751Y014958D01*
X005740Y014948D01*
X005726Y014941D01*
X005712Y014937D01*
X005696Y014937D01*
X005682Y014941D01*
X005668Y014948D01*
X005657Y014958D01*
X005648Y014971D01*
X005643Y014985D01*
X005641Y015000D01*
X004641Y015000D02*
X004643Y015015D01*
X004648Y015029D01*
X004657Y015042D01*
X004668Y015052D01*
X004682Y015059D01*
X004696Y015063D01*
X004712Y015063D01*
X004726Y015059D01*
X004740Y015052D01*
X004751Y015042D01*
X004760Y015029D01*
X004765Y015015D01*
X004767Y015000D01*
X004765Y014985D01*
X004760Y014971D01*
X004751Y014958D01*
X004740Y014948D01*
X004726Y014941D01*
X004712Y014937D01*
X004696Y014937D01*
X004682Y014941D01*
X004668Y014948D01*
X004657Y014958D01*
X004648Y014971D01*
X004643Y014985D01*
X004641Y015000D01*
M02*
