*
*
G04 PADS 9.5 Build Number: 522968 generated Gerber (RS-274-X) file*
G04 PC Version=2.1*
*
%IN "CLKDIV.pcb"*%
*
%MOIN*%
*
%FSLAX35Y35*%
*
*
*
*
G04 PC Standard Apertures*
*
*
G04 Thermal Relief Aperture macro.*
%AMTER*
1,1,$1,0,0*
1,0,$1-$2,0,0*
21,0,$3,$4,0,0,45*
21,0,$3,$4,0,0,135*
%
*
*
G04 Annular Aperture macro.*
%AMANN*
1,1,$1,0,0*
1,0,$2,0,0*
%
*
*
G04 Odd Aperture macro.*
%AMODD*
1,1,$1,0,0*
1,0,$1-0.005,0,0*
%
*
*
G04 PC Custom Aperture Macros*
*
*
*
*
*
*
G04 PC Aperture Table*
*
%ADD011C,0.06*%
%ADD013C,0.23622*%
%ADD019C,0.03*%
%ADD024C,0.001*%
%ADD025C,0.01*%
%ADD055O,0.04331X0.05118*%
%ADD056C,0.09843*%
%ADD057O,0.05118X0.04331*%
*
*
*
*
G04 PC Circuitry*
G04 Layer Name CLKDIV.pcb - circuitry*
%LPD*%
*
*
G04 PC Custom Flashes*
G04 Layer Name CLKDIV.pcb - flashes*
%LPD*%
*
*
G04 PC Circuitry*
G04 Layer Name CLKDIV.pcb - circuitry*
%LPD*%
*
G54D11*
G01X233000Y140200D03*
Y130200D03*
X223000Y140200D03*
Y130200D03*
X213000Y140200D03*
Y130200D03*
X172000Y239000D03*
Y229000D03*
X167500Y158000D03*
Y168000D03*
X192000Y249000D03*
X182000D03*
X187500Y148000D03*
X177500D03*
Y158000D03*
Y168000D03*
X187500Y158000D03*
Y168000D03*
X182000Y229000D03*
Y239000D03*
X192000Y229000D03*
Y239000D03*
X164500Y207000D03*
G54D13*
X260000Y260000D03*
Y140000D03*
X140000D03*
Y260000D03*
G54D19*
X163000Y137200D03*
X243600Y138000D03*
X209600Y154000D03*
X200800Y162400D03*
X172800Y179400D03*
X179800Y199800D03*
X212000Y217400D03*
X159600Y188200D03*
X201400Y200800D03*
X198000Y182800D03*
X186400Y210000D03*
X222200Y174600D03*
X258800Y216200D03*
X228600Y183600D03*
X157000Y220800D03*
X205400Y258800D03*
X151800Y235000D03*
X163600Y242800D03*
G54D24*
G54D25*
X169500Y207000D02*
G75*
G03X169500I-5000J0D01*
G01X276500Y123500D02*
Y276500D01*
X123500*
Y123500*
X276500*
X187486Y153000D02*
G03X182500Y148014I14J-5000D01*
G01Y157986D02*
G03X187486Y153000I5000J14D01*
G01X177514D02*
G03X182500Y157986I-14J5000D01*
G01Y148014D02*
G03X177514Y153000I-5000J-14D01*
G01X187486Y163000D02*
G03X182500Y158014I14J-5000D01*
G01Y167986D02*
G03X187486Y163000I5000J14D01*
G01X177514D02*
G03X182500Y167986I-14J5000D01*
G01Y158014D02*
G03X177514Y163000I-5000J-14D01*
G01X177486D02*
G03X172500Y158014I14J-5000D01*
G01Y167986D02*
G03X177486Y163000I5000J14D01*
G01X167514D02*
G03X172500Y167986I-14J5000D01*
G01Y158014D02*
G03X167514Y163000I-5000J-14D01*
G01X191986Y234000D02*
G03X187000Y229014I14J-5000D01*
G01Y238986D02*
G03X191986Y234000I5000J14D01*
G01X182014D02*
G03X187000Y238986I-14J5000D01*
G01Y229014D02*
G03X182014Y234000I-5000J-14D01*
G01X191986Y244000D02*
G03X187000Y239014I14J-5000D01*
G01Y248986D02*
G03X191986Y244000I5000J14D01*
G01X182014D02*
G03X187000Y248986I-14J5000D01*
G01Y239014D02*
G03X182014Y244000I-5000J-14D01*
G01X181986Y234000D02*
G03X177000Y229014I14J-5000D01*
G01Y238986D02*
G03X181986Y234000I5000J14D01*
G01X172014D02*
G03X177000Y238986I-14J5000D01*
G01Y229014D02*
G03X172014Y234000I-5000J-14D01*
G01X252165Y167394D02*
Y166606D01*
X245500Y163275D02*
G03X252165Y166606I2500J3331D01*
G01X238835D02*
G03X245500Y163275I4165J0D01*
G01X238835Y166606D02*
Y167394D01*
X245500Y170725D02*
G03X238835Y167394I-2500J-3331D01*
G01X252165D02*
G03X245500Y170725I-4165J-0D01*
G01X252165Y200394D02*
Y199606D01*
X245500Y196275D02*
G03X252165Y199606I2500J3331D01*
G01X238835D02*
G03X245500Y196275I4165J0D01*
G01X238835Y199606D02*
Y200394D01*
X245500Y203725D02*
G03X238835Y200394I-2500J-3331D01*
G01X252165D02*
G03X245500Y203725I-4165J-0D01*
G01X252165Y233394D02*
Y232606D01*
X245500Y229275D02*
G03X252165Y232606I2500J3331D01*
G01X238835D02*
G03X245500Y229275I4165J0D01*
G01X238835Y232606D02*
Y233394D01*
X245500Y236725D02*
G03X238835Y233394I-2500J-3331D01*
G01X252165D02*
G03X245500Y236725I-4165J-0D01*
G01X223014Y135200D02*
G03X222986I-14J5000D01*
X223014I14J-5000*
G01X237165Y167394D02*
Y166606D01*
X230500Y163275D02*
G03X237165Y166606I2500J3331D01*
G01X223835D02*
G03X230500Y163275I4165J0D01*
G01X223835Y166606D02*
Y167394D01*
X230500Y170725D02*
G03X223835Y167394I-2500J-3331D01*
G01X237165D02*
G03X230500Y170725I-4165J-0D01*
G01X237165Y200394D02*
Y199606D01*
X230500Y196275D02*
G03X237165Y199606I2500J3331D01*
G01X223835D02*
G03X230500Y196275I4165J0D01*
G01X223835Y199606D02*
Y200394D01*
X230500Y203725D02*
G03X223835Y200394I-2500J-3331D01*
G01X237165D02*
G03X230500Y203725I-4165J-0D01*
G01X237165Y233394D02*
Y232606D01*
X230500Y229275D02*
G03X237165Y232606I2500J3331D01*
G01X223835D02*
G03X230500Y229275I4165J0D01*
G01X223835Y232606D02*
Y233394D01*
X230500Y236725D02*
G03X223835Y233394I-2500J-3331D01*
G01X237165D02*
G03X230500Y236725I-4165J-0D01*
G01X187514Y163000D02*
G03X182500Y168014I-14J5000D01*
G01X187514Y153000D02*
G03Y163000I-14J5000D01*
G01X182500Y147986D02*
G03X187514Y153000I5000J14D01*
G01X177486D02*
G03X182500Y147986I14J-5000D01*
G01X172500Y157986D02*
G03X177486Y153000I5000J14D01*
G01X167486Y163000D02*
G03X172500Y157986I14J-5000D01*
G01Y168014D02*
G03X167486Y163000I-5000J-14D01*
G01X182500Y168014D02*
G03X172500I-5000J-14D01*
G01X169500Y207000D02*
G03X169500I-5000J0D01*
G01X192014Y244000D02*
G03X187000Y249014I-14J5000D01*
G01X192014Y234000D02*
G03Y244000I-14J5000D01*
G01X187000Y228986D02*
G03X192014Y234000I5000J14D01*
G01X177000Y228986D02*
G03X187000I5000J14D01*
G01X171986Y234000D02*
G03X177000Y228986I14J-5000D01*
G01Y239014D02*
G03X171986Y234000I-5000J-14D01*
G01X181986Y244000D02*
G03X177000Y239014I14J-5000D01*
G01X187000Y249014D02*
G03X181986Y244000I-5000J-14D01*
G01X143725Y192500D02*
G03X140394Y199165I-3331J2500D01*
G01Y185835D02*
G03X143725Y192500I-0J4165D01*
G01X140394Y185835D02*
X139606D01*
X136275Y192500D02*
G03X139606Y185835I3331J-2500D01*
G01Y199165D02*
G03X136275Y192500I0J-4165D01*
G01X139606Y199165D02*
X140394D01*
X143725Y207500D02*
G03X140394Y214165I-3331J2500D01*
G01Y200835D02*
G03X143725Y207500I-0J4165D01*
G01X140394Y200835D02*
X139606D01*
X136275Y207500D02*
G03X139606Y200835I3331J-2500D01*
G01Y214165D02*
G03X136275Y207500I0J-4165D01*
G01X139606Y214165D02*
X140394D01*
X173002Y233899D02*
X180998D01*
X174711Y234799D02*
X179289D01*
X175002Y232999D02*
X178998D01*
X175755Y235699D02*
X178245D01*
X175924Y232099D02*
X178076D01*
X176386Y236599D02*
X177614D01*
X176491Y231199D02*
X177509D01*
X176769Y237499D02*
X177231D01*
X176828Y230299D02*
X177172D01*
X176964Y238399D02*
X177036D01*
X176984Y229399D02*
X177016D01*
X183405Y243799D02*
X190595D01*
X184549Y244699D02*
X189451D01*
X185131Y242899D02*
X188869D01*
X185665Y245599D02*
X188335D01*
X186001Y241999D02*
X187999D01*
X186329Y246499D02*
X187671D01*
X186538Y241099D02*
X187462D01*
X186737Y247399D02*
X187263D01*
X186854Y240199D02*
X187146D01*
X186951Y248299D02*
X187049D01*
X186991Y239299D02*
X187009D01*
X183002Y233899D02*
X190998D01*
X184711Y234799D02*
X189289D01*
X185002Y232999D02*
X188998D01*
X185755Y235699D02*
X188245D01*
X185924Y232099D02*
X188076D01*
X186386Y236599D02*
X187614D01*
X186491Y231199D02*
X187509D01*
X186769Y237499D02*
X187231D01*
X186828Y230299D02*
X187172D01*
X186964Y238399D02*
X187036D01*
X186984Y229399D02*
X187016D01*
X168905Y162799D02*
X176095D01*
X170049Y163699D02*
X174951D01*
X170631Y161899D02*
X174369D01*
X171165Y164599D02*
X173835D01*
X171501Y160999D02*
X173499D01*
X171829Y165499D02*
X173171D01*
X172038Y160099D02*
X172962D01*
X172237Y166399D02*
X172763D01*
X172354Y159199D02*
X172646D01*
X172451Y167299D02*
X172549D01*
X172491Y158299D02*
X172509D01*
X178905Y162799D02*
X186095D01*
X180049Y163699D02*
X184951D01*
X180631Y161899D02*
X184369D01*
X181165Y164599D02*
X183835D01*
X181501Y160999D02*
X183499D01*
X181829Y165499D02*
X183171D01*
X182038Y160099D02*
X182962D01*
X182237Y166399D02*
X182763D01*
X182354Y159199D02*
X182646D01*
X182451Y167299D02*
X182549D01*
X182491Y158299D02*
X182509D01*
X178502Y152899D02*
X186498D01*
X180211Y153799D02*
X184789D01*
X180502Y151999D02*
X184498D01*
X181255Y154699D02*
X183745D01*
X181424Y151099D02*
X183576D01*
X181886Y155599D02*
X183114D01*
X181991Y150199D02*
X183009D01*
X182269Y156499D02*
X182731D01*
X182328Y149299D02*
X182672D01*
X182464Y157399D02*
X182536D01*
X182484Y148399D02*
X182516D01*
X123500Y276199D02*
X276500D01*
X123500Y275299D02*
X276500D01*
X123500Y274399D02*
X276500D01*
X123500Y273499D02*
X276500D01*
X123500Y272599D02*
X276500D01*
X123500Y271699D02*
X276500D01*
X123500Y270799D02*
X276500D01*
X123500Y269899D02*
X276500D01*
X123500Y268999D02*
X276500D01*
X123500Y268099D02*
X276500D01*
X123500Y267199D02*
X276500D01*
X123500Y266299D02*
X276500D01*
X123500Y265399D02*
X276500D01*
X123500Y264499D02*
X276500D01*
X123500Y263599D02*
X276500D01*
X123500Y262699D02*
X276500D01*
X123500Y261799D02*
X276500D01*
X123500Y260899D02*
X276500D01*
X123500Y259999D02*
X276500D01*
X123500Y259099D02*
X276500D01*
X123500Y258199D02*
X276500D01*
X123500Y257299D02*
X276500D01*
X123500Y256399D02*
X276500D01*
X123500Y255499D02*
X276500D01*
X123500Y254599D02*
X276500D01*
X193710Y253699D02*
X276500D01*
X195251Y252799D02*
X276500D01*
X196074Y251899D02*
X276500D01*
X196583Y250999D02*
X276500D01*
X196878Y250099D02*
X276500D01*
X196996Y249199D02*
X276500D01*
X196951Y248299D02*
X276500D01*
X196737Y247399D02*
X276500D01*
X196329Y246499D02*
X276500D01*
X195665Y245599D02*
X276500D01*
X194549Y244699D02*
X276500D01*
X193405Y243799D02*
X276500D01*
X195131Y242899D02*
X276500D01*
X196001Y241999D02*
X276500D01*
X196538Y241099D02*
X276500D01*
X196854Y240199D02*
X276500D01*
X196991Y239299D02*
X276500D01*
X196964Y238399D02*
X276500D01*
X248707Y237499D02*
X276500D01*
X250661Y236599D02*
X276500D01*
X251469Y235699D02*
X276500D01*
X251921Y234799D02*
X276500D01*
X252135Y233899D02*
X276500D01*
X252165Y232999D02*
X276500D01*
X252134Y232099D02*
X276500D01*
X251920Y231199D02*
X276500D01*
X251468Y230299D02*
X276500D01*
X250657Y229399D02*
X276500D01*
X248691Y228499D02*
X276500D01*
X196800Y227599D02*
X276500D01*
X196439Y226699D02*
X276500D01*
X195841Y225799D02*
X276500D01*
X194860Y224899D02*
X276500D01*
X123500Y223999D02*
X276500D01*
X123500Y223099D02*
X276500D01*
X123500Y222199D02*
X276500D01*
X123500Y221299D02*
X276500D01*
X123500Y220399D02*
X276500D01*
X123500Y219499D02*
X276500D01*
X123500Y218599D02*
X276500D01*
X123500Y217699D02*
X276500D01*
X123500Y216799D02*
X276500D01*
X123500Y215899D02*
X276500D01*
X123500Y214999D02*
X276500D01*
X141136Y214099D02*
X276500D01*
X143062Y213199D02*
X276500D01*
X143867Y212299D02*
X276500D01*
X166877Y211399D02*
X276500D01*
X168072Y210499D02*
X276500D01*
X168772Y209599D02*
X276500D01*
X169203Y208699D02*
X276500D01*
X169436Y207799D02*
X276500D01*
X169499Y206899D02*
X276500D01*
X169399Y205999D02*
X276500D01*
X169124Y205099D02*
X276500D01*
X249695Y204199D02*
X276500D01*
X250985Y203299D02*
X276500D01*
X251651Y202399D02*
X276500D01*
X252016Y201499D02*
X276500D01*
X252160Y200599D02*
X276500D01*
X252165Y199699D02*
X276500D01*
X252086Y198799D02*
X276500D01*
X251799Y197899D02*
X276500D01*
X251248Y196999D02*
X276500D01*
X250247Y196099D02*
X276500D01*
X144554Y195199D02*
X276500D01*
X144500Y194299D02*
X276500D01*
X144239Y193399D02*
X276500D01*
X143726Y192499D02*
X276500D01*
X144240Y191599D02*
X276500D01*
X144500Y190699D02*
X276500D01*
X144554Y189799D02*
X276500D01*
X144411Y188899D02*
X276500D01*
X144047Y187999D02*
X276500D01*
X143382Y187099D02*
X276500D01*
X142097Y186199D02*
X276500D01*
X123500Y185299D02*
X276500D01*
X123500Y184399D02*
X276500D01*
X123500Y183499D02*
X276500D01*
X123500Y182599D02*
X276500D01*
X123500Y181699D02*
X276500D01*
X123500Y180799D02*
X276500D01*
X123500Y179899D02*
X276500D01*
X123500Y178999D02*
X276500D01*
X123500Y178099D02*
X276500D01*
X123500Y177199D02*
X276500D01*
X123500Y176299D02*
X276500D01*
X123500Y175399D02*
X276500D01*
X123500Y174499D02*
X276500D01*
X123500Y173599D02*
X276500D01*
X189210Y172699D02*
X276500D01*
X190751Y171799D02*
X276500D01*
X250251Y170899D02*
X276500D01*
X251250Y169999D02*
X276500D01*
X251800Y169099D02*
X276500D01*
X252087Y168199D02*
X276500D01*
X252165Y167299D02*
X276500D01*
X252160Y166399D02*
X276500D01*
X252015Y165499D02*
X276500D01*
X251650Y164599D02*
X276500D01*
X250983Y163699D02*
X276500D01*
X249689Y162799D02*
X276500D01*
X190631Y161899D02*
X276500D01*
X191501Y160999D02*
X276500D01*
X192038Y160099D02*
X276500D01*
X192354Y159199D02*
X276500D01*
X192491Y158299D02*
X276500D01*
X192464Y157399D02*
X276500D01*
X192269Y156499D02*
X276500D01*
X191886Y155599D02*
X276500D01*
X191255Y154699D02*
X276500D01*
X190211Y153799D02*
X276500D01*
X188502Y152899D02*
X276500D01*
X190502Y151999D02*
X276500D01*
X191424Y151099D02*
X276500D01*
X191991Y150199D02*
X276500D01*
X192328Y149299D02*
X276500D01*
X192484Y148399D02*
X276500D01*
X192475Y147499D02*
X276500D01*
X192300Y146599D02*
X276500D01*
X191939Y145699D02*
X276500D01*
X224963Y144799D02*
X276500D01*
X226365Y143899D02*
X276500D01*
X227143Y142999D02*
X276500D01*
X227625Y142099D02*
X276500D01*
X227899Y141199D02*
X276500D01*
X227999Y140299D02*
X276500D01*
X227935Y139399D02*
X276500D01*
X227702Y138499D02*
X276500D01*
X227270Y137599D02*
X276500D01*
X226569Y136699D02*
X276500D01*
X225372Y135799D02*
X276500D01*
X224710Y134899D02*
X276500D01*
X226251Y133999D02*
X276500D01*
X227074Y133099D02*
X276500D01*
X227583Y132199D02*
X276500D01*
X227878Y131299D02*
X276500D01*
X227996Y130399D02*
X276500D01*
X227951Y129499D02*
X276500D01*
X227737Y128599D02*
X276500D01*
X227329Y127699D02*
X276500D01*
X226665Y126799D02*
X276500D01*
X225549Y125899D02*
X276500D01*
X123500Y124999D02*
X276500D01*
X123500Y124099D02*
X276500D01*
X243691Y228499D02*
X247309D01*
X243707Y237499D02*
X247293D01*
X244689Y162799D02*
X246311D01*
X244695Y204199D02*
X246305D01*
X245247Y196099D02*
X245753D01*
X245251Y170899D02*
X245749D01*
X233691Y228499D02*
X242309D01*
X233707Y237499D02*
X242293D01*
X234689Y162799D02*
X241311D01*
X234695Y204199D02*
X241305D01*
X235247Y196099D02*
X240753D01*
X235251Y170899D02*
X240749D01*
X235657Y229399D02*
X240343D01*
X235661Y236599D02*
X240339D01*
X235983Y163699D02*
X240017D01*
X235985Y203299D02*
X240015D01*
X236248Y196999D02*
X239752D01*
X236250Y169999D02*
X239750D01*
X236468Y230299D02*
X239532D01*
X236469Y235699D02*
X239531D01*
X236650Y164599D02*
X239350D01*
X236651Y202399D02*
X239349D01*
X236799Y197899D02*
X239201D01*
X236800Y169099D02*
X239200D01*
X236920Y231199D02*
X239080D01*
X236921Y234799D02*
X239079D01*
X237015Y165499D02*
X238985D01*
X237016Y201499D02*
X238984D01*
X237086Y198799D02*
X238914D01*
X237087Y168199D02*
X238913D01*
X237134Y232099D02*
X238866D01*
X237135Y233899D02*
X238865D01*
X237160Y166399D02*
X238840D01*
X237160Y200599D02*
X238840D01*
X237165Y232999D02*
X238835D01*
X237165Y199699D02*
X238835D01*
X237165Y167299D02*
X238835D01*
X228691Y228499D02*
X232309D01*
X228707Y237499D02*
X232293D01*
X229689Y162799D02*
X231311D01*
X229695Y204199D02*
X231305D01*
X230247Y196099D02*
X230753D01*
X230251Y170899D02*
X230749D01*
X196975Y228499D02*
X227309D01*
X196769Y237499D02*
X227293D01*
X188905Y162799D02*
X226311D01*
X168642Y204199D02*
X226305D01*
X144412Y196099D02*
X225753D01*
X191574Y170899D02*
X225749D01*
X196984Y229399D02*
X225343D01*
X196386Y236599D02*
X225339D01*
X190049Y163699D02*
X225017D01*
X167862Y203299D02*
X225015D01*
X144048Y196999D02*
X224752D01*
X192083Y169999D02*
X224750D01*
X196828Y230299D02*
X224532D01*
X195755Y235699D02*
X224531D01*
X191165Y164599D02*
X224350D01*
X166457Y202399D02*
X224349D01*
X143385Y197899D02*
X224201D01*
X192378Y169099D02*
X224200D01*
X196491Y231199D02*
X224080D01*
X194711Y234799D02*
X224079D01*
X191829Y165499D02*
X223985D01*
X142650Y201499D02*
X223984D01*
X142103Y198799D02*
X223914D01*
X192496Y168199D02*
X223913D01*
X195924Y232099D02*
X223866D01*
X193002Y233899D02*
X223865D01*
X192237Y166399D02*
X223840D01*
X123500Y200599D02*
X223840D01*
X195002Y232999D02*
X223835D01*
X123500Y199699D02*
X223835D01*
X192451Y167299D02*
X223835D01*
X123500Y134899D02*
X221290D01*
X191341Y144799D02*
X221037D01*
X123500Y135799D02*
X220628D01*
X123500Y125899D02*
X220451D01*
X123500Y133999D02*
X219749D01*
X190360Y143899D02*
X219635D01*
X123500Y136699D02*
X219431D01*
X123500Y126799D02*
X219335D01*
X123500Y133099D02*
X218926D01*
X123500Y142999D02*
X218857D01*
X123500Y137599D02*
X218730D01*
X123500Y127699D02*
X218671D01*
X123500Y132199D02*
X218417D01*
X123500Y142099D02*
X218375D01*
X123500Y138499D02*
X218298D01*
X123500Y128599D02*
X218263D01*
X123500Y131299D02*
X218122D01*
X123500Y141199D02*
X218101D01*
X123500Y139399D02*
X218065D01*
X123500Y129499D02*
X218049D01*
X123500Y130399D02*
X218004D01*
X123500Y140299D02*
X218001D01*
X183710Y253699D02*
X190290D01*
X184860Y224899D02*
X189140D01*
X185251Y252799D02*
X188749D01*
X185841Y225799D02*
X188159D01*
X186074Y251899D02*
X187926D01*
X186439Y226699D02*
X187561D01*
X186583Y250999D02*
X187417D01*
X186800Y227599D02*
X187200D01*
X186878Y250099D02*
X187122D01*
X186975Y228499D02*
X187025D01*
X186996Y249199D02*
X187004D01*
X179210Y172699D02*
X185790D01*
X180360Y143899D02*
X184640D01*
X180751Y171799D02*
X184249D01*
X181341Y144799D02*
X183659D01*
X181574Y170899D02*
X183426D01*
X181939Y145699D02*
X183061D01*
X182083Y169999D02*
X182917D01*
X182300Y146599D02*
X182700D01*
X182378Y169099D02*
X182622D01*
X182475Y147499D02*
X182525D01*
X182496Y168199D02*
X182504D01*
X173405Y243799D02*
X180595D01*
X123500Y253699D02*
X180290D01*
X123500Y244699D02*
X179451D01*
X174860Y224899D02*
X179140D01*
X175131Y242899D02*
X178869D01*
X123500Y252799D02*
X178749D01*
X123500Y245599D02*
X178335D01*
X175841Y225799D02*
X178159D01*
X176001Y241999D02*
X177999D01*
X123500Y251899D02*
X177926D01*
X123500Y246499D02*
X177671D01*
X176439Y226699D02*
X177561D01*
X176538Y241099D02*
X177462D01*
X123500Y250999D02*
X177417D01*
X123500Y247399D02*
X177263D01*
X176800Y227599D02*
X177200D01*
X176854Y240199D02*
X177146D01*
X123500Y250099D02*
X177122D01*
X123500Y248299D02*
X177049D01*
X176975Y228499D02*
X177025D01*
X176991Y239299D02*
X177009D01*
X123500Y249199D02*
X177004D01*
X123500Y152899D02*
X176498D01*
X169210Y172699D02*
X175790D01*
X170211Y153799D02*
X174789D01*
X123500Y143899D02*
X174640D01*
X123500Y151999D02*
X174498D01*
X170751Y171799D02*
X174249D01*
X171255Y154699D02*
X173745D01*
X123500Y144799D02*
X173659D01*
X123500Y151099D02*
X173576D01*
X171574Y170899D02*
X173426D01*
X171886Y155599D02*
X173114D01*
X123500Y145699D02*
X173061D01*
X123500Y150199D02*
X173009D01*
X172083Y169999D02*
X172917D01*
X172269Y156499D02*
X172731D01*
X123500Y146599D02*
X172700D01*
X123500Y149299D02*
X172672D01*
X172378Y169099D02*
X172622D01*
X172464Y157399D02*
X172536D01*
X123500Y147499D02*
X172525D01*
X123500Y148399D02*
X172516D01*
X172496Y168199D02*
X172504D01*
X123500Y233899D02*
X170998D01*
X123500Y243799D02*
X170595D01*
X123500Y234799D02*
X169289D01*
X123500Y224899D02*
X169140D01*
X123500Y232999D02*
X168998D01*
X123500Y242899D02*
X168869D01*
X123500Y235699D02*
X168245D01*
X123500Y225799D02*
X168159D01*
X123500Y232099D02*
X168076D01*
X123500Y241999D02*
X167999D01*
X123500Y236599D02*
X167614D01*
X123500Y226699D02*
X167561D01*
X123500Y231199D02*
X167509D01*
X123500Y241099D02*
X167462D01*
X123500Y237499D02*
X167231D01*
X123500Y227599D02*
X167200D01*
X123500Y230299D02*
X167172D01*
X123500Y240199D02*
X167146D01*
X123500Y238399D02*
X167036D01*
X123500Y228499D02*
X167025D01*
X123500Y229399D02*
X167016D01*
X123500Y239299D02*
X167009D01*
X123500Y162799D02*
X166095D01*
X123500Y172699D02*
X165790D01*
X123500Y163699D02*
X164951D01*
X123500Y153799D02*
X164789D01*
X123500Y161899D02*
X164369D01*
X123500Y171799D02*
X164249D01*
X123500Y164599D02*
X163835D01*
X123500Y154699D02*
X163745D01*
X123500Y160999D02*
X163499D01*
X123500Y170899D02*
X163426D01*
X123500Y165499D02*
X163171D01*
X123500Y155599D02*
X163114D01*
X123500Y160099D02*
X162962D01*
X123500Y169999D02*
X162917D01*
X123500Y166399D02*
X162763D01*
X123500Y156499D02*
X162731D01*
X123500Y159199D02*
X162646D01*
X123500Y169099D02*
X162622D01*
X123500Y167299D02*
X162549D01*
X143647Y202399D02*
X162543D01*
X123500Y157399D02*
X162536D01*
X123500Y158299D02*
X162509D01*
X123500Y168199D02*
X162504D01*
X144317Y211399D02*
X162123D01*
X144196Y203299D02*
X161138D01*
X144529Y210499D02*
X160928D01*
X144481Y204199D02*
X160358D01*
X144540Y209599D02*
X160228D01*
X144558Y205099D02*
X159876D01*
X144351Y208699D02*
X159797D01*
X144438Y205999D02*
X159601D01*
X143930Y207799D02*
X159564D01*
X144101Y206899D02*
X159501D01*
X123500Y214099D02*
X138864D01*
X123500Y186199D02*
X137903D01*
X123500Y198799D02*
X137897D01*
X123500Y201499D02*
X137350D01*
X123500Y213199D02*
X136938D01*
X123500Y187099D02*
X136618D01*
X123500Y197899D02*
X136615D01*
X123500Y202399D02*
X136353D01*
X123500Y192499D02*
X136274D01*
X123500Y212299D02*
X136133D01*
X123500Y207799D02*
X136070D01*
X123500Y187999D02*
X135953D01*
X123500Y196999D02*
X135952D01*
X123500Y206899D02*
X135899D01*
X123500Y203299D02*
X135804D01*
X123500Y193399D02*
X135761D01*
X123500Y191599D02*
X135760D01*
X123500Y211399D02*
X135683D01*
X123500Y208699D02*
X135649D01*
X123500Y188899D02*
X135589D01*
X123500Y196099D02*
X135588D01*
X123500Y205999D02*
X135562D01*
X123500Y204199D02*
X135519D01*
X123500Y194299D02*
X135500D01*
X123500Y190699D02*
X135500D01*
X123500Y210499D02*
X135471D01*
X123500Y209599D02*
X135460D01*
X123500Y189799D02*
X135446D01*
X123500Y195199D02*
X135446D01*
X123500Y205099D02*
X135442D01*
G54D55*
X223000Y238906D03*
X228000Y233000D03*
X233000D03*
X238000Y238906D03*
X243000Y233000D03*
X248000D03*
X253000Y238906D03*
X223000Y205906D03*
X228000Y200000D03*
X233000D03*
X238000Y205906D03*
X243000Y200000D03*
X248000D03*
X253000Y205906D03*
Y161094D03*
X248000Y167000D03*
X243000D03*
X238000Y161094D03*
X233000Y167000D03*
X228000D03*
X223000Y161094D03*
G54D56*
X263827Y229063D03*
X213315Y233000D03*
X263827Y196063D03*
X213315Y200000D03*
X212173Y170937D03*
X262685Y167000D03*
X143937Y225827D03*
X140000Y175315D03*
G54D57*
X134094Y185000D03*
X140000Y190000D03*
Y195000D03*
X134094Y200000D03*
X140000Y205000D03*
Y210000D03*
X134094Y215000D03*
G74*
X0Y0D02*
M02*
