*
*
G04 PowerPCB (Build Number 500.281.2.20) generated Gerber (RS-274-X) file*
G04 PC Version=2.1*
*
%IN "Untitled"*%
*
%MOIN*%
*
%FSLAX35Y35*%
*
*
*
*
G04 PC Standard Apertures*
*
*
G04 Thermal Relief Aperture macro.*
%AMTER*
1,1,$1,0,0*
1,0,$1-$2,0,0*
21,0,$3,$4,0,0,45*
21,0,$3,$4,0,0,135*
%
*
*
G04 Annular Aperture macro.*
%AMANN*
1,1,$1,0,0*
1,0,$2,0,0*
%
*
*
G04 Odd Aperture macro.*
%AMODD*
1,1,$1,0,0*
1,0,$1-0.005,0,0*
%
*
*
G04 PC Custom Aperture Macros*
*
*
*
*
*
*
G04 PC Aperture Table*
*
%ADD010R,0.039X0.039*%
%ADD012R,0.07X0.07*%
%ADD013C,0.23622*%
%ADD017C,0.02*%
%ADD018C,0.015*%
%ADD019C,0.03*%
%ADD020C,0.012*%
%ADD025C,0.01*%
%ADD036C,0.008*%
%ADD043R,0.05X0.05*%
%ADD044C,0.07874*%
%ADD045C,0.025*%
%ADD046R,0.065X0.065*%
%ADD047C,0.016*%
%ADD048C,0.024*%
*
*
*
*
G04 PC Custom Flashes*
G04 Layer Name Untitled - flashes*
%LPD*%
*
*
G04 PC Circuitry*
G04 Layer Name Untitled - circuitry*
%LPD*%
*
G54D10*
G01X00226850Y00164800D02*
X00225150D01*
X00226850Y00157200D02*
X00225150D01*
X00169850Y00150800D02*
X00168150D01*
X00169850Y00143200D02*
X00168150D01*
X00189800Y00118400D02*
Y00119600D01*
X00182200Y00118400D02*
Y00119600D01*
X00219200Y00124600D02*
Y00123400D01*
X00226800Y00124600D02*
Y00123400D01*
X00151600Y00156800D02*
X00150400D01*
X00151600Y00149200D02*
X00150400D01*
X00173900Y00127200D02*
X00175100D01*
X00173900Y00134800D02*
X00175100D01*
G54D12*
X00151063Y00140000D03*
X00160937D03*
X00168000Y00119000D03*
X00158000D03*
X00148000D03*
X00158000Y00160000D03*
X00192000Y00130000D03*
X00182000D03*
X00192000Y00140000D03*
X00182000D03*
X00192000Y00150000D03*
X00182000D03*
X00235000Y00130000D03*
Y00140000D03*
Y00150000D03*
G54D13*
X00130000Y00140000D03*
G54D17*
X00173700Y00113000D02*
X00231000D01*
X00235000Y00117000*
X00173700Y00113000D02*
Y00113300D01*
X00168000Y00119000*
X00182200Y00124200D02*
X00182000Y00124400D01*
Y00130000*
X00182200Y00124200D02*
X00198500D01*
Y00126000*
X00195800Y00116100D02*
X00226000D01*
X00228700Y00118800*
X00195800Y00116100D02*
X00192900Y00119000D01*
X00189800*
X00174500Y00127200D02*
X00179200D01*
X00182000Y00130000*
X00151000Y00156800D02*
X00151700D01*
X00153200Y00158300*
X00156300*
X00158000Y00160000*
X00182200Y00119000D02*
Y00124200D01*
X00158000Y00160000D02*
X00179300D01*
X00180800Y00161500*
X00198500*
X00160937Y00140000D02*
Y00146000D01*
X00157737Y00149200*
X00151000*
X00233200Y00123300D02*
X00238200D01*
X00240500Y00125600*
Y00144500*
X00235000Y00150000*
X00203500Y00156000D02*
Y00158250D01*
X00200250Y00161500*
X00198500*
G54D18*
X00228700Y00118800D02*
X00233200Y00123300D01*
G54D19*
X00150200Y00140863D02*
X00145900Y00145163D01*
Y00152900*
Y00159800*
X00152100Y00166000*
X00209100*
X00174500Y00127200D02*
X00167600D01*
X00165800Y00129000*
X00182000Y00150000D02*
X00175500D01*
X00174700Y00150800*
X00169000*
X00148000Y00119000D02*
Y00127200D01*
X00146200Y00129000*
X00158000Y00119000D02*
Y00126200D01*
X00160800Y00129000*
X00165800*
X00146200D02*
Y00131750D01*
X00150200Y00135750*
Y00140863*
X00165800Y00129000D02*
Y00131900D01*
X00169000Y00135100*
Y00143200*
X00223000Y00144937D02*
Y00150100D01*
X00222600Y00150500*
X00216750*
X00213500Y00153750*
Y00156000*
X00235000Y00150000D02*
X00230000Y00155000D01*
X00230100Y00155100*
X00230750*
X00230900Y00155250*
Y00157199*
X00230900D02*
X00230899Y00157200D01*
X00230899D02*
X00226000D01*
X00209100Y00166000D02*
X00213500Y00161600D01*
X00216700Y00164800*
X00226000*
X00213500Y00156000D02*
Y00161600D01*
X00226800Y00124000D02*
Y00132763D01*
X00224500Y00135063*
X00223000*
X00235000Y00117000D02*
X00241099D01*
X00241099D02*
X00244000Y00119900D01*
Y00154000*
X00235000Y00163000*
X00227800*
X00226000Y00164800*
G54D20*
X00187500Y00135000D02*
X00187000D01*
X00182000Y00140000*
X00186600Y00145000D02*
X00187000D01*
X00192000Y00150000*
X00174500Y00134800D02*
Y00142100D01*
X00177400Y00145000*
X00192000Y00150000D02*
X00198000Y00156000D01*
X00198500*
X00192000Y00130000D02*
X00193100Y00131100D01*
X00203500*
X00235000Y00130000D02*
X00229500Y00135500D01*
Y00139000*
X00228500Y00140000*
X00217500*
X00213500Y00144000*
Y00148750*
X00208500Y00153750*
Y00156000*
X00213500Y00118700D02*
X00208550D01*
X00203500Y00123750*
Y00126000*
X00213500Y00118700D02*
X00220700D01*
X00222800Y00120800*
Y00127200*
X00221000Y00129000*
X00218300*
X00207300Y00140000*
X00192000*
X00213500Y00120900D02*
X00211350D01*
X00208500Y00123750*
Y00126000*
X00213500Y00120900D02*
X00216100D01*
X00219200Y00124000*
X00208500Y00126000D02*
Y00128250D01*
X00205650Y00131100*
X00203500*
X00213500Y00126000D02*
Y00128250D01*
X00206750Y00135000*
X00196300*
G54D25*
X00182000Y00145000D02*
X00186600D01*
X00192000Y00135000D02*
X00187500D01*
X00177400Y00145000D02*
X00182000D01*
X00196300Y00135000D02*
X00192000D01*
X00200500Y00148500D02*
G75*
G03X00200500I-00001000D01*
G03X00200500I-00001000*
G01X00198505Y00148398D02*
X00200494D01*
X00198898Y00149298D02*
X00200101D01*
X00144111Y00140000D02*
G03X00144111I-00014111D01*
G01X00247500Y00113000D02*
Y00167000D01*
G03X00247000Y00167500I-00000500J00000000*
G01X00142900*
G03X00142400Y00167000I00000000J-00000500*
G01Y00158850*
X00140900Y00157349D02*
G03X00142400Y00158850I00000000J00001501D01*
G01X00140900Y00157349D02*
X00113000D01*
X00113000D02*
G03X00112500Y00156849I00000000J-00000499D01*
G01X00112500D02*
Y00122150D01*
G03X00113000Y00121650I00000500J00000000*
G01X00129400*
X00130900Y00120150D02*
G03X00129400Y00121650I-00001500J00000000D01*
G01X00130900Y00120150D02*
Y00113000D01*
G03X00131400Y00112500I00000500J00000000*
G01X00153239*
G03X00153464Y00113446I00000000J00000500*
G01X00152199Y00115500D02*
G03X00153464Y00113446I00002301J00000000D01*
G01X00152199Y00115500D02*
Y00122500D01*
X00153842Y00124704D02*
G03X00152199Y00122500I00000658J-00002204D01*
G01X00153842Y00124704D02*
G03X00154199Y00125183I-00000142J00000479D01*
G01X00154199D02*
Y00126200D01*
X00155312Y00128887D02*
G03X00154199Y00126200I00002688J-00002687D01*
G01X00155312Y00128887D02*
X00158112Y00131687D01*
X00160534Y00132790D02*
G03X00158112Y00131687I00000266J-00003790D01*
G01X00160534Y00132790D02*
G03X00160999Y00133289I-00000034J00000499D01*
G01X00160999D02*
Y00133699D01*
X00160999D02*
G03X00160499Y00134199I-00000499J00000000D01*
G01X00160499D02*
X00157437D01*
X00155136Y00136500D02*
G03X00157437Y00134199I00002301J00000000D01*
G01X00155136Y00136500D02*
Y00143500D01*
X00155418Y00144602D02*
G03X00155136Y00143500I00002019J-00001102D01*
G01X00155418Y00144602D02*
G03X00154724Y00145272I-00000438J00000240D01*
G01X00153550Y00144949D02*
G03X00154724Y00145272I00000000J00002301D01*
G01X00153550Y00144949D02*
X00148450D01*
X00146149Y00147250D02*
G03X00148450Y00144949I00002301J00000000D01*
G01X00146149Y00147250D02*
Y00151150D01*
X00146723Y00152669D02*
G03X00146149Y00151150I00001727J-00001519D01*
G01X00146723Y00152669D02*
G03Y00153330I-00000374J00000331D01*
G01X00146149Y00154850D02*
G03X00146723Y00153330I00002301J00000000D01*
G01X00146149Y00154850D02*
Y00158750D01*
X00148450Y00161050D02*
G03X00146149Y00158750I00000000J-00002300D01*
G01X00148450Y00161050D02*
X00151230D01*
X00151230D02*
G03X00151489Y00161122I00000000J00000500D01*
G01X00151897Y00161332D02*
G03X00151489Y00161122I00001303J-00003032D01*
G01X00151897Y00161332D02*
G03X00152199Y00161791I-00000197J00000459D01*
G01X00152199D02*
Y00163500D01*
X00154500Y00165800D02*
G03X00152199Y00163500I00000000J-00002300D01*
G01X00154500Y00165800D02*
X00161500D01*
X00163786Y00163746D02*
G03X00161500Y00165800I-00002286J-00000246D01*
G01X00163786Y00163746D02*
G03X00164283Y00163300I00000497J00000054D01*
G01X00164283D02*
X00177725D01*
X00177725D02*
G03X00178079Y00163446I00000000J00000500D01*
G01X00178079D02*
X00178466Y00163833D01*
X00180800Y00164800D02*
G03X00178466Y00163833I00000000J-00003300D01*
G01X00180800Y00164800D02*
X00198500D01*
X00200250*
X00202583Y00163833D02*
G03X00200250Y00164800I-00002333J-00002333D01*
G01X00202583Y00163833D02*
X00204842Y00161574D01*
X00204842D02*
G03X00204987Y00161473I00000354J00000353D01*
G01X00205691Y00161042D02*
G03X00204987Y00161473I-00002191J-00002792D01*
G01X00205691Y00161042D02*
G03X00206308I00000309J00000394D01*
G01X00212050Y00158250D02*
G03X00206308Y00161042I-00003550J00000000D01*
G01X00212050Y00158250D02*
Y00154508D01*
G03X00212196Y00154154I00000500J00000000*
G01X00212196D02*
X00215550Y00150800D01*
X00216400Y00148750D02*
G03X00215550Y00150800I-00002900J00000000D01*
G01X00216400Y00148750D02*
Y00145408D01*
G03X00216546Y00145054I00000500J00000000*
G01X00216546D02*
X00218554Y00143046D01*
X00218554D02*
G03X00218908Y00142900I00000354J00000354D01*
G01X00228500*
X00230550Y00142050D02*
G03X00228500Y00142900I-00002050J-00002050D01*
G01X00230550Y00142050D02*
X00231550Y00141050D01*
X00232400Y00139000D02*
G03X00231550Y00141050I-00002900J00000000D01*
G01X00232400Y00139000D02*
Y00136908D01*
G03X00232546Y00136554I00000500J00000000*
G01X00232546D02*
X00233154Y00135946D01*
X00233154D02*
G03X00233508Y00135800I00000354J00000354D01*
G01X00236699*
X00236699D02*
G03X00237199Y00136300I00000000J00000500D01*
G01X00237199D02*
Y00142925D01*
X00237199D02*
G03X00237053Y00143279I-00000499J00000000D01*
G01X00237053D02*
X00236279Y00144053D01*
X00236279D02*
G03X00235925Y00144199I-00000353J-00000353D01*
G01X00235925D02*
X00231500D01*
X00229199Y00146500D02*
G03X00231500Y00144199I00002301J00000000D01*
G01X00229199Y00146500D02*
Y00150218D01*
X00229199D02*
G03X00229053Y00150572I-00000499J00000000D01*
G01X00229053D02*
X00227312Y00152312D01*
X00226940Y00152746D02*
G03X00227312Y00152312I00003060J00002254D01*
G01X00226940Y00152746D02*
G03X00226537Y00152949I-00000402J-00000296D01*
G01X00226537D02*
X00223200D01*
X00220899Y00155250D02*
G03X00223200Y00152949I00002301J00000000D01*
G01X00220899Y00155250D02*
Y00159150D01*
X00223200Y00161450D02*
G03X00220899Y00159150I00000000J-00002300D01*
G01X00223200Y00161450D02*
X00228800D01*
X00230050Y00161080D02*
G03X00228800Y00161450I-00001250J-00001930D01*
G01X00230050Y00161080D02*
G03X00230322Y00161000I00000272J00000420D01*
G01X00230900*
X00234700Y00157199D02*
G03X00230900Y00161000I-00003800J00000000D01*
G01X00234700Y00157199D02*
Y00156300D01*
G03X00235200Y00155800I00000500J00000000*
G01X00238500*
X00240800Y00153500D02*
G03X00238500Y00155800I-00002300J00000000D01*
G01X00240800Y00153500D02*
Y00149074D01*
G03X00240946Y00148720I00000500J00000000*
G01X00242833Y00146833*
X00243800Y00144500D02*
G03X00242833Y00146833I-00003300J00000000D01*
G01X00243800Y00144500D02*
Y00125600D01*
X00242833Y00123266D02*
G03X00243800Y00125600I-00002333J00002334D01*
G01X00242833Y00123266D02*
X00240533Y00120966D01*
X00238200Y00119999D02*
G03X00240533Y00120966I00000000J00003301D01*
G01X00238200Y00119999D02*
X00234420D01*
X00234420D02*
G03X00234066Y00119853I00000000J-00000499D01*
G01X00234066D02*
X00231815Y00117601D01*
X00231815D02*
G03X00231712Y00117452I00000353J-00000352D01*
G01X00231033Y00116466D02*
G03X00231712Y00117452I-00002333J00002334D01*
G01X00231033Y00116466D02*
X00228333Y00113766D01*
X00227908Y00113407D02*
G03X00228333Y00113766I-00001908J00002693D01*
G01X00227908Y00113407D02*
G03X00228197Y00112500I00000289J-00000407D01*
G01X00228197D02*
X00247000D01*
G03X00247500Y00113000I00000000J00000500*
G01X00193602Y00112500D02*
G03X00193891Y00113407I00000000J00000500D01*
G01X00193466Y00113766D02*
G03X00193891Y00113407I00002334J00002334D01*
G01X00193466Y00113766D02*
X00193060Y00114172D01*
X00193060D02*
G03X00192536Y00114288I-00000352J-00000353D01*
G01X00191750Y00114149D02*
G03X00192536Y00114288I00000000J00002301D01*
G01X00191750Y00114149D02*
X00187850D01*
X00186330Y00114723D02*
G03X00187850Y00114149I00001520J00001727D01*
G01X00186330Y00114723D02*
G03X00185669I-00000330J-00000374D01*
G01X00184150Y00114149D02*
G03X00185669Y00114723I00000000J00002301D01*
G01X00184150Y00114149D02*
X00180250D01*
X00177949Y00116450D02*
G03X00180250Y00114149I00002301J00000000D01*
G01X00177949Y00116450D02*
Y00121550D01*
X00178088Y00122337D02*
G03X00177949Y00121550I00002162J-00000787D01*
G01X00178088Y00122337D02*
G03X00177517Y00122997I-00000468J00000171D01*
G01X00177050Y00122949D02*
G03X00177517Y00122997I00000000J00002301D01*
G01X00177050Y00122949D02*
X00171950D01*
X00171071Y00123124D02*
G03X00171950Y00122949I00000879J00002126D01*
G01X00171071Y00123124D02*
G03X00170419Y00122856I-00000190J-00000461D01*
G01X00168300Y00121449D02*
G03X00170419Y00122856I00000000J00002301D01*
G01X00168300Y00121449D02*
X00164300D01*
X00164300D02*
G03X00163800Y00120949I00000000J-00000499D01*
G01X00163800D02*
Y00115500D01*
X00162535Y00113446D02*
G03X00163800Y00115500I-00001035J00002054D01*
G01X00162535Y00113446D02*
G03X00162760Y00112500I00000225J-00000446D01*
G01X00162760D02*
X00193602D01*
X00194949Y00157258D02*
Y00157699D01*
X00194949D02*
G03X00194449Y00158199I-00000499J00000000D01*
G01X00194449D02*
X00182374D01*
X00182374D02*
G03X00182020Y00158053I00000000J-00000499D01*
G01X00182020D02*
X00181633Y00157666D01*
X00179300Y00156699D02*
G03X00181633Y00157666I00000000J00003301D01*
G01X00179300Y00156699D02*
X00164283D01*
X00164283D02*
G03X00163786Y00156253I00000000J-00000499D01*
G01X00161500Y00154199D02*
G03X00163786Y00156253I00000000J00002301D01*
G01X00161500Y00154199D02*
X00156102D01*
X00156102D02*
G03X00155647Y00153905I00000000J-00000499D01*
G01X00155276Y00153330D02*
G03X00155647Y00153905I-00001726J00001520D01*
G01X00155276Y00153330D02*
G03X00155651Y00152500I00000375J-00000329D01*
G01X00155651D02*
X00157737D01*
X00160070Y00151533D02*
G03X00157737Y00152500I-00002333J-00002333D01*
G01X00160070Y00151533D02*
X00163270Y00148333D01*
X00164017Y00147183D02*
G03X00163270Y00148333I-00003080J-00001183D01*
G01X00164017Y00147183D02*
G03X00164790Y00146967I00000467J00000179D01*
G01X00166200Y00147450D02*
G03X00164790Y00146967I00000000J-00002300D01*
G01X00166200Y00147450D02*
X00171800D01*
X00173766Y00146342D02*
G03X00171800Y00147450I-00001966J-00001192D01*
G01X00173766Y00146342D02*
G03X00174547Y00146248I00000427J00000260D01*
G01X00174547D02*
X00175349Y00147050D01*
X00178098Y00147814D02*
G03X00175349Y00147050I-00000698J-00002814D01*
G01X00178098Y00147814D02*
G03X00178218Y00147800I00000120J00000486D01*
G01X00178218D02*
X00185491D01*
X00185491D02*
G03X00185845Y00147946I00000000J00000500D01*
G01X00186053Y00148154*
X00186053D02*
G03X00186199Y00148508I-00000353J00000354D01*
G01X00186199D02*
Y00153500D01*
X00188500Y00155800D02*
G03X00186199Y00153500I00000000J-00002300D01*
G01X00188500Y00155800D02*
X00193491D01*
X00193491D02*
G03X00193845Y00155946I00000000J00000500D01*
G01X00194803Y00156904*
X00194803D02*
G03X00194949Y00157258I-00000353J00000354D01*
G01X00144111Y00140000D02*
G03X00144111I-00014111D01*
G01X00181452Y00157498D02*
X00194949D01*
X00163982Y00156598D02*
X00194497D01*
X00163655Y00155698D02*
X00187824D01*
X00163047Y00154798D02*
X00186601D01*
X00155644Y00153898D02*
X00186234D01*
X00155151Y00152998D02*
X00186199D01*
X00159314Y00152098D02*
X00186199D01*
X00160405Y00151198D02*
X00186199D01*
X00161305Y00150298D02*
X00186199D01*
X00162205Y00149398D02*
X00186199D01*
X00163105Y00148498D02*
X00186199D01*
X00163823Y00147598D02*
X00176112D01*
X00173500Y00146698D02*
X00174997D01*
X00162459Y00113398D02*
X00193903D01*
X00192567Y00114298D02*
X00192847D01*
X00184963D02*
X00187036D01*
X00163461D02*
X00179436D01*
X00163780Y00115198D02*
X00178320D01*
X00170161Y00122398D02*
X00178106D01*
X00163800Y00116098D02*
X00177976D01*
X00168770Y00121498D02*
X00177949D01*
X00163800Y00120598D02*
X00177949D01*
X00163800Y00119698D02*
X00177949D01*
X00163800Y00118798D02*
X00177949D01*
X00163800Y00117898D02*
X00177949D01*
X00163800Y00116998D02*
X00177949D01*
X00142400Y00166498D02*
X00247500D01*
X00162441Y00165598D02*
X00247500D01*
X00201061Y00164698D02*
X00247500D01*
X00202618Y00163798D02*
X00247500D01*
X00203518Y00162898D02*
X00247500D01*
X00204418Y00161998D02*
X00247500D01*
X00230021Y00161098D02*
X00247500D01*
X00233234Y00160198D02*
X00247500D01*
X00234067Y00159298D02*
X00247500D01*
X00234506Y00158398D02*
X00247500D01*
X00234688Y00157498D02*
X00247500D01*
X00234700Y00156598D02*
X00247500D01*
X00239175Y00155698D02*
X00247500D01*
X00240398Y00154798D02*
X00247500D01*
X00240765Y00153898D02*
X00247500D01*
X00240800Y00152998D02*
X00247500D01*
X00240800Y00152098D02*
X00247500D01*
X00240800Y00151198D02*
X00247500D01*
X00240800Y00150298D02*
X00247500D01*
X00240800Y00149398D02*
X00247500D01*
X00241168Y00148498D02*
X00247500D01*
X00242068Y00147598D02*
X00247500D01*
X00242960Y00146698D02*
X00247500D01*
X00243533Y00145798D02*
X00247500D01*
X00243775Y00144898D02*
X00247500D01*
X00243800Y00143998D02*
X00247500D01*
X00243800Y00143098D02*
X00247500D01*
X00243800Y00142198D02*
X00247500D01*
X00243800Y00141298D02*
X00247500D01*
X00243800Y00140398D02*
X00247500D01*
X00243800Y00139498D02*
X00247500D01*
X00243800Y00138598D02*
X00247500D01*
X00243800Y00137698D02*
X00247500D01*
X00243800Y00136798D02*
X00247500D01*
X00243800Y00135898D02*
X00247500D01*
X00243800Y00134998D02*
X00247500D01*
X00243800Y00134098D02*
X00247500D01*
X00243800Y00133198D02*
X00247500D01*
X00243800Y00132298D02*
X00247500D01*
X00243800Y00131398D02*
X00247500D01*
X00243800Y00130498D02*
X00247500D01*
X00243800Y00129598D02*
X00247500D01*
X00243800Y00128698D02*
X00247500D01*
X00243800Y00127798D02*
X00247500D01*
X00243800Y00126898D02*
X00247500D01*
X00243800Y00125998D02*
X00247500D01*
X00243761Y00125098D02*
X00247500D01*
X00243487Y00124198D02*
X00247500D01*
X00242865Y00123298D02*
X00247500D01*
X00241965Y00122398D02*
X00247500D01*
X00241065Y00121498D02*
X00247500D01*
X00240095Y00120598D02*
X00247500D01*
X00233912Y00119698D02*
X00247500D01*
X00233012Y00118798D02*
X00247500D01*
X00232112Y00117898D02*
X00247500D01*
X00231465Y00116998D02*
X00247500D01*
X00230665Y00116098D02*
X00247500D01*
X00229765Y00115198D02*
X00247500D01*
X00228865Y00114298D02*
X00247500D01*
X00227896Y00113398D02*
X00247500D01*
X00142598Y00167398D02*
X00247301D01*
X00230391Y00142198D02*
X00237199D01*
X00231302Y00141298D02*
X00237199D01*
X00232040Y00140398D02*
X00237199D01*
X00232356Y00139498D02*
X00237199D01*
X00232400Y00138598D02*
X00237199D01*
X00232400Y00137698D02*
X00237199D01*
X00232412Y00136798D02*
X00237199D01*
X00218502Y00143098D02*
X00237169D01*
X00233210Y00135898D02*
X00236998D01*
X00217602Y00143998D02*
X00236334D01*
X00216702Y00144898D02*
X00229848D01*
X00216400Y00145798D02*
X00229309D01*
X00216326Y00149398D02*
X00229199D01*
X00216400Y00148498D02*
X00229199D01*
X00216400Y00147598D02*
X00229199D01*
X00216400Y00146698D02*
X00229199D01*
X00215951Y00150298D02*
X00229193D01*
X00215152Y00151198D02*
X00228427D01*
X00214252Y00152098D02*
X00227527D01*
X00213352Y00152998D02*
X00222729D01*
X00210618Y00161098D02*
X00221978D01*
X00212452Y00153898D02*
X00221338D01*
X00211467Y00160198D02*
X00221152D01*
X00212050Y00154798D02*
X00220944D01*
X00211891Y00159298D02*
X00220904D01*
X00212046Y00158398D02*
X00220899D01*
X00212050Y00157498D02*
X00220899D01*
X00212050Y00156598D02*
X00220899D01*
X00212050Y00155698D02*
X00220899D01*
X00205618Y00161098D02*
X00206381D01*
X00163462Y00164698D02*
X00179988D01*
X00163780Y00163798D02*
X00178431D01*
X00142363Y00133198D02*
X00160991D01*
X00142817Y00134098D02*
X00160801D01*
X00141824Y00132298D02*
X00158913D01*
X00141186Y00131398D02*
X00157824D01*
X00140432Y00130498D02*
X00156924D01*
X00139535Y00129598D02*
X00156024D01*
X00143195Y00134998D02*
X00155694D01*
X00143233Y00144898D02*
X00155476D01*
X00143501Y00135898D02*
X00155216D01*
X00143532Y00143998D02*
X00155191D01*
X00138449Y00128698D02*
X00155137D01*
X00143766Y00143098D02*
X00155136D01*
X00143938Y00142198D02*
X00155136D01*
X00144051Y00141298D02*
X00155136D01*
X00144105Y00140398D02*
X00155136D01*
X00144102Y00139498D02*
X00155136D01*
X00144041Y00138598D02*
X00155136D01*
X00143922Y00137698D02*
X00155136D01*
X00143743Y00136798D02*
X00155136D01*
X00137088Y00127798D02*
X00154552D01*
X00135241Y00126898D02*
X00154264D01*
X00131756Y00125998D02*
X00154199D01*
X00112500Y00125098D02*
X00154192D01*
X00142400Y00165598D02*
X00153558D01*
X00130900Y00113398D02*
X00153540D01*
X00112500Y00124198D02*
X00152949D01*
X00130900Y00114298D02*
X00152538D01*
X00142400Y00164698D02*
X00152537D01*
X00112500Y00123298D02*
X00152343D01*
X00130900Y00115198D02*
X00152219D01*
X00142400Y00163798D02*
X00152219D01*
X00142400Y00162898D02*
X00152199D01*
X00142400Y00161998D02*
X00152199D01*
X00112500Y00122398D02*
X00152199D01*
X00130056Y00121498D02*
X00152199D01*
X00130831Y00120598D02*
X00152199D01*
X00130900Y00119698D02*
X00152199D01*
X00130900Y00118798D02*
X00152199D01*
X00130900Y00117898D02*
X00152199D01*
X00130900Y00116998D02*
X00152199D01*
X00130900Y00116098D02*
X00152199D01*
X00142400Y00161098D02*
X00151446D01*
X00135491Y00152998D02*
X00146848D01*
X00142864Y00145798D02*
X00146665D01*
X00142400Y00160198D02*
X00146663D01*
X00132438Y00153898D02*
X00146355D01*
X00137262Y00152098D02*
X00146354D01*
X00142419Y00146698D02*
X00146217D01*
X00142400Y00159298D02*
X00146216D01*
X00112500Y00154798D02*
X00146150D01*
X00138585Y00151198D02*
X00146150D01*
X00142330Y00158398D02*
X00146149D01*
X00141551Y00157498D02*
X00146149D01*
X00112500Y00156598D02*
X00146149D01*
X00112500Y00155698D02*
X00146149D01*
X00139646Y00150298D02*
X00146149D01*
X00140525Y00149398D02*
X00146149D01*
X00141264Y00148498D02*
X00146149D01*
X00141890Y00147598D02*
X00146149D01*
X00112500Y00125998D02*
X00128243D01*
X00112500Y00153898D02*
X00127561D01*
X00112500Y00126898D02*
X00124758D01*
X00112500Y00152998D02*
X00124508D01*
X00112500Y00127798D02*
X00122911D01*
X00112500Y00152098D02*
X00122737D01*
X00112500Y00128698D02*
X00121550D01*
X00112500Y00151198D02*
X00121414D01*
X00112500Y00129598D02*
X00120464D01*
X00112500Y00150298D02*
X00120353D01*
X00112500Y00130498D02*
X00119567D01*
X00112500Y00149398D02*
X00119474D01*
X00112500Y00131398D02*
X00118813D01*
X00112500Y00148498D02*
X00118735D01*
X00112500Y00132298D02*
X00118175D01*
X00112500Y00147598D02*
X00118109D01*
X00112500Y00133198D02*
X00117636D01*
X00112500Y00146698D02*
X00117580D01*
X00112500Y00134098D02*
X00117182D01*
X00112500Y00145798D02*
X00117135D01*
X00112500Y00134998D02*
X00116804D01*
X00112500Y00144898D02*
X00116766D01*
X00112500Y00135898D02*
X00116498D01*
X00112500Y00143998D02*
X00116467D01*
X00112500Y00136798D02*
X00116256D01*
X00112500Y00143098D02*
X00116233D01*
X00112500Y00137698D02*
X00116077D01*
X00112500Y00142198D02*
X00116061D01*
X00112500Y00138598D02*
X00115958D01*
X00112500Y00141298D02*
X00115948D01*
X00112500Y00139498D02*
X00115897D01*
X00112500Y00140398D02*
X00115894D01*
G54D36*
X00140500Y00166250D02*
Y00161000D01*
X00138863Y00166250D02*
Y00161000D01*
Y00166250D02*
X00137227D01*
X00136681Y00166000*
X00136681D02*
X00136500Y00165750D01*
X00136318Y00165250*
Y00164750*
X00136500Y00164250*
X00136681Y00164000*
X00136681D02*
X00137227Y00163750D01*
X00138863*
X00137590D02*
X00136318Y00161000D01*
X00134681Y00166250D02*
Y00161000D01*
Y00166250D02*
X00132318D01*
X00134681Y00163750D02*
X00133227D01*
X00130681Y00166250D02*
Y00161000D01*
Y00166250D02*
X00128318D01*
X00130681Y00163750D02*
X00129227D01*
X00130681Y00161000D02*
X00128318D01*
X00126681Y00166250D02*
Y00161000D01*
Y00166250D02*
X00124318D01*
X00126681Y00163750D02*
X00125227D01*
X00126681Y00161000D02*
X00124318D01*
X00121590Y00166250D02*
X00122136Y00166000D01*
X00122500Y00165250*
X00122681Y00164000*
X00122681D02*
Y00163250D01*
X00122681D02*
X00122500Y00162000D01*
X00122136Y00161250*
X00121590Y00161000*
X00121590D02*
X00121227D01*
X00120681Y00161250*
X00120681D02*
X00120318Y00162000D01*
X00120136Y00163250*
Y00164000*
X00120318Y00165250*
X00120681Y00166000*
X00120681D02*
X00121227Y00166250D01*
X00121590*
X00118500Y00165250D02*
X00118136Y00165500D01*
X00117590Y00166250*
X00117590D02*
Y00161000D01*
X00114500Y00166250D02*
X00115954Y00161000D01*
X00114500Y00166250D02*
X00113045Y00161000D01*
X00115409Y00162750D02*
X00113590D01*
X00129000Y00118750D02*
Y00113500D01*
Y00118750D02*
X00127545Y00113500D01*
X00126090Y00118750D02*
X00127545Y00113500D01*
X00126090Y00118750D02*
Y00113500D01*
X00124454Y00118750D02*
Y00113500D01*
X00124454D02*
X00122272D01*
X00119181Y00118750D02*
X00120636Y00113500D01*
X00119181Y00118750D02*
X00117727Y00113500D01*
X00120090Y00115250D02*
X00118272D01*
X00116090Y00118750D02*
Y00113500D01*
Y00118750D02*
X00114454D01*
X00114454D02*
X00113909Y00118500D01*
X00113727Y00118250*
X00113545Y00117750*
Y00117250*
X00113727Y00116750*
X00113909Y00116500*
X00114454Y00116250*
X00116090D02*
X00114454D01*
X00114454D02*
X00113909Y00116000D01*
X00113727Y00115750*
X00113545Y00115250*
Y00114500*
X00113727Y00114000*
X00113909Y00113750*
X00114454Y00113500*
X00114454D02*
X00116090D01*
G54D43*
X00165800Y00126250D02*
Y00131750D01*
X00146200Y00126250D02*
Y00131750D01*
G54D44*
X00235000Y00163000D03*
Y00117000D03*
G54D45*
X00198500Y00158250D02*
Y00153750D01*
X00203500Y00158250D02*
Y00153750D01*
X00208500Y00158250D02*
Y00153750D01*
X00213500Y00158250D02*
Y00153750D01*
Y00128250D02*
Y00123750D01*
X00208500Y00128250D02*
Y00123750D01*
X00203500Y00128250D02*
Y00123750D01*
X00198500Y00128250D02*
Y00123750D01*
G54D46*
X00224500Y00144937D02*
X00221500D01*
X00224500Y00135063D02*
X00221500D01*
G54D47*
X00145900Y00152900D02*
X00146000Y00153000D01*
X00151000*
X00151063Y00140000D02*
X00150200Y00140863D01*
X00169000Y00150800D02*
X00162100D01*
X00159900Y00153000*
X00151000*
G54D48*
X00158000Y00113300D02*
X00167600D01*
X00168000Y00113700*
Y00119000*
X00158000Y00113300D02*
X00148100D01*
X00148000Y00113400*
Y00119000*
G74*
X00000000Y00000000D02*
M02*
