G75*
G70*
%OFA0B0*%
%FSLAX24Y24*%
%IPPOS*%
%LPD*%
%AMOC8*
5,1,8,0,0,1.08239X$1,22.5*
%
%ADD10C,0.0000*%
%ADD11C,0.0051*%
%ADD12C,0.0110*%
%ADD13C,0.0060*%
%ADD14C,0.0050*%
%ADD15R,0.0200X0.0200*%
D10*
X000126Y000126D02*
X008047Y000126D01*
X008047Y024047D01*
X000126Y024047D01*
X000126Y000126D01*
D11*
X008133Y000212D02*
X012495Y000212D01*
X012495Y024133D02*
X008133Y024133D01*
X011708Y024133D02*
X011708Y000212D01*
X011582Y001235D01*
X011834Y001235D01*
X011708Y000212D01*
X011657Y001235D01*
X011759Y001235D02*
X011708Y000212D01*
X011606Y001235D01*
X011810Y001235D02*
X011708Y000212D01*
X011708Y024133D02*
X011582Y023109D01*
X011834Y023109D01*
X011708Y024133D01*
X011657Y023109D01*
X011759Y023109D02*
X011708Y024133D01*
X011606Y023109D01*
X011810Y023109D02*
X011708Y024133D01*
X008133Y024133D02*
X008133Y026157D01*
X000212Y026157D02*
X000212Y024133D01*
X000212Y025369D02*
X008133Y025369D01*
X007109Y025495D01*
X007109Y025244D01*
X008133Y025369D01*
X007109Y025420D01*
X007109Y025318D02*
X008133Y025369D01*
X007109Y025472D01*
X007109Y025267D02*
X008133Y025369D01*
X000212Y025369D02*
X001235Y025495D01*
X001235Y025244D01*
X000212Y025369D01*
X001235Y025420D01*
X001235Y025318D02*
X000212Y025369D01*
X001235Y025472D01*
X001235Y025267D02*
X000212Y025369D01*
D12*
X009990Y010607D02*
X010202Y010184D01*
X010625Y009761D01*
X011048Y009761D01*
X011259Y009972D01*
X011259Y010395D01*
X011048Y010607D01*
X010836Y010607D01*
X010625Y010395D01*
X010625Y009761D01*
X011048Y011029D02*
X010202Y011029D01*
X009990Y011241D01*
X009990Y011664D01*
X010202Y011875D01*
X011048Y011875D01*
X011259Y011664D01*
X011259Y011241D01*
X011048Y011029D01*
X010202Y011875D01*
X011259Y012298D02*
X011048Y012298D01*
X011048Y012510D01*
X011259Y012510D01*
X011259Y012298D01*
X009990Y012933D02*
X009990Y013779D01*
X010202Y013779D01*
X011048Y012933D01*
X011259Y012933D01*
X009990Y015047D02*
X010202Y014624D01*
X010625Y014201D01*
X011048Y014201D01*
X011259Y014413D01*
X011259Y014836D01*
X011048Y015047D01*
X010836Y015047D01*
X010625Y014836D01*
X010625Y014201D01*
X002607Y025818D02*
X001761Y025818D01*
X002607Y026664D01*
X002607Y026876D01*
X002395Y027087D01*
X001972Y027087D01*
X001761Y026876D01*
X003029Y026029D02*
X003029Y026876D01*
X003241Y027087D01*
X003664Y027087D01*
X003875Y026876D01*
X003875Y026029D01*
X003664Y025818D01*
X003241Y025818D01*
X003029Y026029D01*
X003875Y026876D01*
X004298Y025818D02*
X004298Y026029D01*
X004510Y026029D01*
X004510Y025818D01*
X004298Y025818D01*
X004933Y026664D02*
X005356Y027087D01*
X005356Y025818D01*
X004933Y025818D02*
X005779Y025818D01*
X007047Y025818D02*
X006201Y025818D01*
X007047Y026664D01*
X007047Y026876D01*
X006836Y027087D01*
X006413Y027087D01*
X006201Y026876D01*
D13*
X005086Y003836D02*
X005086Y004336D01*
X005336Y004586D01*
X005086Y004836D01*
X005086Y005336D01*
X005336Y005586D01*
X005086Y003836D02*
X005336Y003586D01*
X005336Y005586D02*
X005086Y005836D01*
X005086Y006336D01*
X005336Y006586D01*
X005086Y006836D02*
X005086Y007336D01*
X005336Y007586D01*
X005086Y007836D01*
X005086Y008336D01*
X005336Y008586D01*
X005086Y006836D02*
X005336Y006586D01*
X005336Y008586D02*
X005086Y008836D01*
X005086Y009336D01*
X005336Y009586D01*
X006836Y004586D02*
X007086Y004336D01*
X006836Y005586D02*
X007086Y005336D01*
X007086Y004836D01*
X006836Y004586D01*
X005336Y003586D02*
X006836Y003586D01*
X007086Y003836D01*
X007086Y004336D01*
X006836Y006586D02*
X007086Y006336D01*
X007086Y005836D01*
X006836Y005586D01*
X007086Y007336D02*
X006836Y007586D01*
X006836Y008586D02*
X007086Y008336D01*
X007086Y007836D01*
X006836Y007586D01*
X006836Y006586D02*
X007086Y006836D01*
X007086Y007336D01*
X006836Y009586D02*
X007086Y009336D01*
X007086Y008836D01*
X006836Y008586D01*
X005336Y010586D02*
X005086Y010336D01*
X005086Y009836D01*
X005336Y009586D01*
X006836Y009586D02*
X007086Y009836D01*
X007086Y010336D01*
X006836Y010586D01*
X005086Y010836D02*
X005086Y011336D01*
X005336Y011586D01*
X005086Y011836D01*
X005086Y012336D01*
X005336Y012586D01*
X005086Y010836D02*
X005336Y010586D01*
X005336Y012586D02*
X005086Y012836D01*
X005086Y013336D01*
X005336Y013586D01*
X005086Y013836D02*
X005086Y014336D01*
X005336Y014586D01*
X005086Y014836D01*
X005086Y015336D01*
X005336Y015586D01*
X005086Y013836D02*
X005336Y013586D01*
X005336Y015586D02*
X005086Y015836D01*
X005086Y016336D01*
X005336Y016586D01*
X006836Y011586D02*
X007086Y011336D01*
X006836Y012586D02*
X007086Y012336D01*
X007086Y011836D01*
X006836Y011586D01*
X006836Y010586D02*
X007086Y010836D01*
X007086Y011336D01*
X006836Y013586D02*
X007086Y013336D01*
X007086Y012836D01*
X006836Y012586D01*
X007086Y014336D02*
X006836Y014586D01*
X006836Y015586D02*
X007086Y015336D01*
X007086Y014836D01*
X006836Y014586D01*
X006836Y013586D02*
X007086Y013836D01*
X007086Y014336D01*
X006836Y016586D02*
X007086Y016336D01*
X007086Y015836D01*
X006836Y015586D01*
X005336Y017586D02*
X005086Y017336D01*
X005086Y016836D01*
X005336Y016586D01*
X006836Y016586D02*
X007086Y016836D01*
X007086Y017336D01*
X006836Y017586D01*
X005086Y017836D02*
X005086Y018336D01*
X005336Y018586D01*
X005086Y018836D01*
X005086Y019336D01*
X005336Y019586D01*
X005086Y017836D02*
X005336Y017586D01*
X005336Y019586D02*
X005086Y019836D01*
X005086Y020336D01*
X006836Y018586D02*
X007086Y018336D01*
X006836Y019586D02*
X007086Y019336D01*
X007086Y018836D01*
X006836Y018586D01*
X006836Y017586D02*
X007086Y017836D01*
X007086Y018336D01*
X007086Y020336D02*
X007086Y019836D01*
X006836Y019586D01*
X006836Y020586D02*
X005336Y020586D01*
X005086Y020336D01*
X006836Y020586D02*
X007086Y020336D01*
D14*
X007411Y003911D02*
X007261Y004061D01*
X007711Y004061D01*
X007711Y003911D02*
X007711Y004211D01*
X004536Y003911D02*
X004461Y003836D01*
X004461Y003686D01*
X004536Y003611D01*
X004611Y003611D01*
X004686Y003686D01*
X004686Y003836D01*
X004761Y003911D01*
X004836Y003911D01*
X004911Y003836D01*
X004911Y003686D01*
X004836Y003611D01*
X004461Y004072D02*
X004761Y004072D01*
X004911Y004222D01*
X004761Y004372D01*
X004461Y004372D01*
X004611Y004532D02*
X004461Y004682D01*
X004911Y004682D01*
X004911Y004532D02*
X004911Y004832D01*
X004536Y019711D02*
X004461Y019786D01*
X004461Y019936D01*
X004536Y020011D01*
X004611Y020011D01*
X004686Y019936D01*
X004686Y019861D01*
X004686Y019936D02*
X004761Y020011D01*
X004836Y020011D01*
X004911Y019936D01*
X004911Y019786D01*
X004836Y019711D01*
X004911Y020397D02*
X004461Y020397D01*
X004686Y020172D01*
X004686Y020472D01*
D15*
X006586Y005086D03*
X006586Y004086D03*
X006586Y006086D03*
X006586Y008086D03*
X006586Y007086D03*
X006586Y009086D03*
X005586Y004086D03*
X005586Y005086D03*
X005586Y006086D03*
X005586Y007086D03*
X005586Y008086D03*
X005586Y009086D03*
X005586Y010086D03*
X006586Y010086D03*
X006586Y012086D03*
X006586Y011086D03*
X006586Y013086D03*
X006586Y015086D03*
X006586Y014086D03*
X006586Y016086D03*
X005586Y011086D03*
X005586Y012086D03*
X005586Y013086D03*
X005586Y014086D03*
X005586Y015086D03*
X005586Y016086D03*
X005586Y017086D03*
X006586Y017086D03*
X006586Y019086D03*
X006586Y018086D03*
X006586Y020086D03*
X005586Y018086D03*
X005586Y019086D03*
X005586Y020086D03*
M02*
