*
*
G04 PowerPCB (Build Number 500.281.2.20) generated Gerber (RS-274-X) file*
G04 PC Version=2.1*
*
%IN "Untitled"*%
*
%MOIN*%
*
%FSLAX35Y35*%
*
*
*
*
G04 PC Standard Apertures*
*
*
G04 Thermal Relief Aperture macro.*
%AMTER*
1,1,$1,0,0*
1,0,$1-$2,0,0*
21,0,$3,$4,0,0,45*
21,0,$3,$4,0,0,135*
%
*
*
G04 Annular Aperture macro.*
%AMANN*
1,1,$1,0,0*
1,0,$2,0,0*
%
*
*
G04 Odd Aperture macro.*
%AMODD*
1,1,$1,0,0*
1,0,$1-0.005,0,0*
%
*
*
G04 PC Custom Aperture Macros*
*
*
*
*
*
*
G04 PC Aperture Table*
*
%ADD011C,0.06*%
%ADD022C,0.055*%
%ADD023C,0.007*%
%ADD030R,0.049X0.049*%
%ADD031C,0.07*%
%ADD032R,0.08X0.08*%
%ADD033C,0.24622*%
%ADD042C,0.045*%
%ADD045R,0.065X0.065*%
%ADD046C,0.075*%
%ADD048R,0.075X0.075*%
*
*
*
*
G04 PC Custom Flashes*
G04 Layer Name Untitled - flashes*
%LPD*%
*
*
G04 PC Circuitry*
G04 Layer Name Untitled - circuitry*
%LPD*%
*
G54D11*
G01X00300000Y00165000D03*
X00140000Y00235000D03*
G54D22*
X00136600Y00195000D03*
X00143400D03*
G54D23*
X00110000Y00110000D02*
Y00110500D01*
Y00110000D02*
X00110500D01*
X00110000D02*
Y00109500D01*
Y00110000D02*
X00109500D01*
X00111500D02*
X00116500D01*
X00110000Y00108500D02*
Y00105100D01*
Y00111500D02*
Y00116000D01*
X00104000Y00110000D02*
X00108500D01*
X00113000D02*
G75*
G03X00113000I-00003000D01*
G01X00112000D02*
G03X00112000I-00002000D01*
G01X00330000D02*
Y00110500D01*
Y00110000D02*
X00330500D01*
X00330000D02*
Y00109500D01*
Y00110000D02*
X00329500D01*
X00331500D02*
X00336500D01*
X00330000Y00108500D02*
Y00105100D01*
Y00111500D02*
Y00116000D01*
X00324000Y00110000D02*
X00328500D01*
X00333000D02*
G03X00333000I-00003000D01*
G01X00332000D02*
G03X00332000I-00002000D01*
G01X00330000Y00370000D02*
Y00370500D01*
Y00370000D02*
X00330500D01*
X00330000D02*
Y00369500D01*
Y00370000D02*
X00329500D01*
X00331500D02*
X00336500D01*
X00330000Y00368500D02*
Y00365100D01*
Y00371500D02*
Y00376000D01*
X00324000Y00370000D02*
X00328500D01*
X00333000D02*
G03X00333000I-00003000D01*
G01X00332000D02*
G03X00332000I-00002000D01*
G54D30*
G01X00221650Y00233200D02*
X00223350D01*
X00221650Y00240800D02*
X00223350D01*
X00199150Y00146200D02*
X00200850D01*
X00199150Y00153800D02*
X00200850D01*
X00189150Y00146200D02*
X00190850D01*
X00189150Y00153800D02*
X00190850D01*
X00142800Y00253150D02*
Y00254850D01*
X00135200Y00253150D02*
Y00254850D01*
X00142800Y00305150D02*
Y00306850D01*
X00135200Y00305150D02*
Y00306850D01*
X00239800Y00156650D02*
Y00158350D01*
X00232200Y00156650D02*
Y00158350D01*
X00239800Y00136650D02*
Y00138350D01*
X00232200Y00136650D02*
Y00138350D01*
X00134150Y00178700D02*
X00135850D01*
X00134150Y00186300D02*
X00135850D01*
X00144150Y00178700D02*
X00145850D01*
X00144150Y00186300D02*
X00145850D01*
X00209150Y00146200D02*
X00210850D01*
X00209150Y00153800D02*
X00210850D01*
X00218700Y00329100D02*
Y00327900D01*
X00226300Y00329100D02*
Y00327900D01*
X00218700Y00320600D02*
Y00319400D01*
X00226300Y00320600D02*
Y00319400D01*
X00304400Y00206200D02*
X00305600D01*
X00304400Y00213800D02*
X00305600D01*
X00294400Y00206200D02*
X00295600D01*
X00294400Y00213800D02*
X00295600D01*
X00179400Y00146200D02*
X00180600D01*
X00179400Y00153800D02*
X00180600D01*
X00169400Y00146200D02*
X00170600D01*
X00169400Y00153800D02*
X00170600D01*
X00159400Y00146200D02*
X00160600D01*
X00159400Y00153800D02*
X00160600D01*
G54D31*
X00240000Y00340500D03*
X00205000D03*
X00225000Y00137641D03*
Y00157358D03*
X00287000Y00147500D03*
G54D32*
X00165000Y00315000D03*
X00175000D03*
X00165000Y00225000D03*
X00175000D03*
X00165000Y00215000D03*
X00175000D03*
X00165000Y00205000D03*
X00175000D03*
X00165000Y00195000D03*
X00175000D03*
X00165000Y00185000D03*
X00175000D03*
X00265000D03*
X00275000D03*
X00265000Y00195000D03*
X00275000D03*
X00265000Y00205000D03*
X00275000D03*
X00265000Y00215000D03*
X00275000D03*
X00265000Y00225000D03*
X00275000D03*
X00165000Y00305000D03*
X00175000D03*
X00265000Y00235000D03*
X00275000D03*
X00265000Y00245000D03*
X00275000D03*
X00265000Y00255000D03*
X00275000D03*
X00265000Y00265000D03*
X00275000D03*
X00265000Y00275000D03*
X00275000D03*
X00265000Y00285000D03*
X00275000D03*
X00265000Y00295000D03*
X00275000D03*
X00265000Y00305000D03*
X00275000D03*
X00265000Y00315000D03*
X00275000D03*
X00165000Y00295000D03*
X00175000D03*
X00145000Y00275000D03*
X00135000D03*
X00145000Y00265000D03*
X00135000D03*
X00145000Y00285000D03*
X00135000D03*
X00145000Y00295000D03*
X00135000D03*
X00145000Y00215000D03*
X00135000D03*
X00145000Y00205000D03*
X00135000D03*
X00305000Y00195000D03*
Y00185000D03*
X00295000Y00195000D03*
Y00185000D03*
X00300000Y00235000D03*
Y00225000D03*
X00210000Y00135000D03*
X00165000Y00285000D03*
X00175000D03*
X00210000Y00165000D03*
X00200000Y00135000D03*
Y00165000D03*
X00190000Y00135000D03*
Y00165000D03*
X00180000Y00135000D03*
Y00165000D03*
X00170000Y00135000D03*
Y00165000D03*
X00160000Y00135000D03*
X00165000Y00275000D03*
X00175000D03*
X00160000Y00165000D03*
X00255000Y00345000D03*
X00265000D03*
X00275000D03*
X00255000Y00335000D03*
X00265000D03*
X00275000D03*
X00165000Y00265000D03*
X00175000D03*
X00165000Y00255000D03*
X00175000D03*
X00165000Y00245000D03*
X00175000D03*
X00165000Y00235000D03*
X00175000D03*
G54D33*
X00140000Y00140000D03*
X00300000D03*
X00140000Y00340000D03*
X00300000D03*
G54D42*
X00140000Y00157500D03*
G54D45*
X00229000Y00338250D02*
Y00342750D01*
X00216000Y00338250D02*
Y00342750D01*
G54D46*
X00171500Y00327400D03*
X00188500D03*
Y00352600D03*
X00171500D03*
G54D48*
X00300000Y00260000D03*
Y00270000D03*
Y00280000D03*
Y00300000D03*
Y00310000D03*
X00205000Y00315000D03*
Y00305000D03*
Y00295000D03*
Y00285000D03*
Y00275000D03*
Y00265000D03*
Y00255000D03*
Y00245000D03*
Y00235000D03*
Y00225000D03*
Y00215000D03*
Y00205000D03*
Y00195000D03*
Y00185000D03*
X00235000D03*
Y00195000D03*
Y00205000D03*
Y00215000D03*
Y00225000D03*
Y00235000D03*
Y00245000D03*
Y00255000D03*
Y00265000D03*
Y00275000D03*
Y00285000D03*
Y00295000D03*
Y00305000D03*
Y00315000D03*
G74*
X00000000Y00000000D02*
M02*
