%
T1C.01969F095S3
X030806Y02
X0312Y019606
X0312Y020394
T2C.022F197S55
X01279Y01278
X01594Y01318
X01642Y01411
X01707Y01307
X01762Y01408
X01837Y01297
X01944Y01332
X02013Y01272
X02137Y01264
X02308Y01279
X02322Y01469
X02427Y0142
X025Y01278
X02541Y01458
X02806Y01447
X02857Y01294
X02953Y013
X03063Y01271
X03182Y013
X0322Y01512
X03514Y01291
X03522Y01576
X03458Y0171
X03378Y01575
X03334Y01663
X03209Y01616
X03068Y0155
X02954Y0153
X02824Y0173
X02604Y01744
X02561Y01528
X02494Y01735
X02335Y01753
X0199Y01754
X01894Y01655
X01802Y01748
X01669Y01572
X01621Y01749
X01524Y01559
X01267Y01568
X01288Y01972
X01314Y01854
X01432Y01798
X01447Y01933
X02161Y01769
X02333Y01851
X02496Y01831
X02583Y01824
X0276Y01806
X03535Y01983
X03523Y02359
X03421Y02278
X03415Y02434
X03389Y02356
X03327Y02416
X03177Y02449
X03031Y02392
X02944Y02449
X02827Y02288
X02821Y02482
X02786Y02402
X02737Y02156
X0272Y02471
X02674Y02107
X02656Y02426
X02259Y02128
X02258Y02072
X02202Y02072
X022Y02127
X02177Y02419
X01438Y02452
X01294Y02458
X01276Y02719
X01519Y02715
X01573Y02626
X01708Y0268
X01819Y02731
X01939Y02683
X02074Y0271
X02171Y02696
X0226Y02734
X02334Y02676
X02531Y02688
X02565Y02539
X02621Y02726
X02691Y02685
X02728Y02599
X02782Y02704
X02917Y02647
X03061Y02689
X03229Y02695
X0352Y02704
T3C.035F197S55
X0198Y0155
X0198Y0165
X0208Y0165
X0208Y0155
X0218Y0165
X0218Y0155
X0228Y0155
X0228Y0165
X0238Y0155
X0238Y0165
X0248Y0165
X0248Y0155
X0263Y0145
X0263Y0165
X0263Y0155
X0263Y0135
X0273Y0145
X0273Y0155
X0273Y0165
X0273Y0135
X0269Y0193
X0269Y0203
X0259Y0193
X0259Y0213
X0259Y0203
X0259Y0223
X0249Y0213
X0249Y0193
X0249Y0203
X0249Y0223
X0185Y0214
X0185Y0184
X0185Y0194
X0185Y0204
X0185Y0224
X0175Y0194
X0175Y0204
X0175Y0214
X0175Y0184
X0175Y0224
X0142Y0222
X0142Y0212
X0132Y0222
X0132Y0212
X0132Y0232
X0142Y0232
X0175Y0244
X0175Y0234
X0185Y0234
X0185Y0244
X0225Y0245
X0235Y0245
X0245Y0245
X0249Y0233
X0259Y0233
X0309Y0254
X0299Y0254
X0289Y0254
X0245Y0255
X0235Y0255
X0225Y0255
X0205Y0263
X0205Y0253
T4C.12598F035S794
X014Y014
X034Y014
X034Y026
X014Y026
M30
