*
*
G04 PADS Layout (Build Number 2006.45.1) generated Gerber (RS-274-X) file*
G04 PC Version=2.1*
*
%IN "ATMEGA801B.pcb"*%
*
%MOIN*%
*
%FSLAX35Y35*%
*
*
*
*
G04 PC Standard Apertures*
*
*
G04 Thermal Relief Aperture macro.*
%AMTER*
1,1,$1,0,0*
1,0,$1-$2,0,0*
21,0,$3,$4,0,0,45*
21,0,$3,$4,0,0,135*
%
*
*
G04 Annular Aperture macro.*
%AMANN*
1,1,$1,0,0*
1,0,$2,0,0*
%
*
*
G04 Odd Aperture macro.*
%AMODD*
1,1,$1,0,0*
1,0,$1-0.005,0,0*
%
*
*
G04 PC Custom Aperture Macros*
*
*
*
*
*
*
G04 PC Aperture Table*
*
%ADD011C,0.06*%
%ADD012R,0.07X0.07*%
%ADD023C,0.007*%
%ADD030R,0.049X0.049*%
%ADD031C,0.07*%
%ADD032R,0.08X0.08*%
%ADD033C,0.24622*%
%ADD040R,0.06X0.06*%
%ADD052R,0.095X0.095*%
%ADD053R,0.075X0.075*%
%ADD054R,0.066X0.066*%
%ADD055C,0.085*%
%ADD056C,0.02811*%
%ADD057C,0.09*%
%ADD058C,0.066*%
*
*
*
*
G04 PC Copper Outlines (0)*
G04 Layer Name ATMEGA801B.pcb - dark (0)*
%LPD*%
*
*
G04 PC Area=Custom_Thermal*
*
G04 PC Custom Flashes*
G04 Layer Name ATMEGA801B.pcb - flashes*
%LPD*%
*
*
G04 PC Circuitry*
G04 Layer Name ATMEGA801B.pcb - circuitry*
%LPD*%
*
G54D11*
G01X169000Y136300D03*
G54D12*
X267800Y300200D03*
G54D23*
X110000Y110000D02*
Y110500D01*
Y110000D02*
X110500D01*
X110000D02*
Y109500D01*
Y110000D02*
X109500D01*
X111500D02*
X116500D01*
X110000Y108500D02*
Y105100D01*
Y111500D02*
Y116000D01*
X104000Y110000D02*
X108500D01*
X113000D02*
G75*
G03X113000I-3000J0D01*
G01X112000D02*
G03X112000I-2000J0D01*
G01X330000D02*
Y110500D01*
Y110000D02*
X330500D01*
X330000D02*
Y109500D01*
Y110000D02*
X329500D01*
X331500D02*
X336500D01*
X330000Y108500D02*
Y105100D01*
Y111500D02*
Y116000D01*
X324000Y110000D02*
X328500D01*
X333000D02*
G03X333000I-3000J0D01*
G01X332000D02*
G03X332000I-2000J0D01*
G01X330000Y330000D02*
Y330500D01*
Y330000D02*
X330500D01*
X330000D02*
Y329500D01*
Y330000D02*
X329500D01*
X331500D02*
X336500D01*
X330000Y328500D02*
Y325100D01*
Y331500D02*
Y336000D01*
X324000Y330000D02*
X328500D01*
X333000D02*
G03X333000I-3000J0D01*
G01X332000D02*
G03X332000I-2000J0D01*
G54D30*
G01X266300Y149150D02*
Y150850D01*
X258700Y149150D02*
Y150850D01*
X266300Y139150D02*
Y140850D01*
X258700Y139150D02*
Y140850D01*
X266300Y129150D02*
Y130850D01*
X258700Y129150D02*
Y130850D01*
X247050Y227500D02*
X245350D01*
X247050Y219900D02*
X245350D01*
X126798Y182395D02*
Y180695D01*
X134398Y182395D02*
Y180695D01*
X281650Y173700D02*
X283350D01*
X281650Y181300D02*
X283350D01*
X304150Y173700D02*
X305850D01*
X304150Y181300D02*
X305850D01*
X168500Y226888D02*
X166800D01*
X168500Y219288D02*
X166800D01*
X144360Y281904D02*
X142660D01*
X144360Y274304D02*
X142660D01*
X248675Y299834D02*
Y301034D01*
X241075Y299834D02*
Y301034D01*
X216300Y149400D02*
Y150600D01*
X208700Y149400D02*
Y150600D01*
X216300Y139400D02*
Y140600D01*
X208700Y139400D02*
Y140600D01*
X216300Y129400D02*
Y130600D01*
X208700Y129400D02*
Y130600D01*
X241075Y280181D02*
Y278981D01*
X248675Y280181D02*
Y278981D01*
X234698Y211990D02*
X235898D01*
X234698Y219590D02*
X235898D01*
G54D31*
X255000Y180000D03*
G54D32*
X309500Y279600D03*
Y269600D03*
X299500Y279600D03*
Y269600D03*
X289500Y279600D03*
Y269600D03*
X155673Y171377D03*
Y161377D03*
X145673Y171377D03*
Y161377D03*
X135673Y171377D03*
Y161377D03*
G54D33*
X140000Y140000D03*
X300000D03*
Y300000D03*
X140000D03*
G54D40*
X288698Y222154D02*
Y216654D01*
X308298Y222154D02*
Y216654D01*
G54D52*
X288498Y235943D02*
Y234443D01*
X308498Y235943D02*
Y234443D01*
G54D53*
X255000Y267250D02*
Y267750D01*
X265000Y267250D02*
Y267750D01*
X232750Y162500D02*
X232250D01*
X232750Y172500D02*
X232250D01*
X227500Y149750D02*
Y150250D01*
X197500Y149750D02*
Y150250D01*
X227500Y139750D02*
Y140250D01*
X197500Y139750D02*
Y140250D01*
X227500Y129750D02*
Y130250D01*
X197500Y129750D02*
Y130250D01*
X277500Y149750D02*
Y150250D01*
X247500Y149750D02*
Y150250D01*
X277500Y139750D02*
Y140250D01*
X222750Y162500D02*
X222250D01*
X222750Y172500D02*
X222250D01*
X247500Y139750D02*
Y140250D01*
X277500Y129750D02*
Y130250D01*
X247500Y129750D02*
Y130250D01*
X212750Y162500D02*
X212250D01*
X212750Y172500D02*
X212250D01*
X202750Y162500D02*
X202250D01*
X202750Y172500D02*
X202250D01*
X192750Y162500D02*
X192250D01*
X192750Y172500D02*
X192250D01*
X182750Y162500D02*
X182250D01*
X182750Y172500D02*
X182250D01*
X172750Y162500D02*
X172250D01*
X172750Y172500D02*
X172250D01*
X138290Y193237D02*
Y193737D01*
X148290Y193237D02*
Y193737D01*
X138290Y203237D02*
Y203737D01*
X148290Y203237D02*
Y203737D01*
X138290Y213237D02*
Y213737D01*
X148290Y213237D02*
Y213737D01*
X255000Y257250D02*
Y257750D01*
X265000Y257250D02*
Y257750D01*
X138290Y223237D02*
Y223737D01*
X148290Y223237D02*
Y223737D01*
X138290Y233237D02*
Y233737D01*
X148290Y233237D02*
Y233737D01*
X138290Y243237D02*
Y243737D01*
X148290Y243237D02*
Y243737D01*
X138290Y253237D02*
Y253737D01*
X148290Y253237D02*
Y253737D01*
X138290Y263237D02*
Y263737D01*
X148290Y263237D02*
Y263737D01*
X160250Y290000D02*
X159750D01*
X160250Y300000D02*
X159750D01*
X170250Y290000D02*
X169750D01*
X170250Y300000D02*
X169750D01*
X180250Y290000D02*
X179750D01*
X180250Y300000D02*
X179750D01*
X190250Y290000D02*
X189750D01*
X190250Y300000D02*
X189750D01*
X200250Y290000D02*
X199750D01*
X200250Y300000D02*
X199750D01*
X255000Y247250D02*
Y247750D01*
X265000Y247250D02*
Y247750D01*
X210250Y290000D02*
X209750D01*
X210250Y300000D02*
X209750D01*
X220250Y290000D02*
X219750D01*
X220250Y300000D02*
X219750D01*
X230250Y290000D02*
X229750D01*
X230250Y300000D02*
X229750D01*
X255000Y237250D02*
Y237750D01*
X265000Y237250D02*
Y237750D01*
X255000Y227250D02*
Y227750D01*
X265000Y227250D02*
Y227750D01*
X255000Y217250D02*
Y217750D01*
X265000Y217250D02*
Y217750D01*
X255000Y207250D02*
Y207750D01*
X265000Y207250D02*
Y207750D01*
X255000Y197250D02*
Y197750D01*
X265000Y197250D02*
Y197750D01*
X242750Y162500D02*
X242250D01*
X242750Y172500D02*
X242250D01*
G54D54*
X165764Y198317D02*
X170864D01*
X165764Y208317D02*
X170864D01*
G54D55*
X254900Y308500D03*
Y291500D03*
X280100D03*
Y308500D03*
G54D56*
X222432Y234003D02*
X218338D01*
X222432Y230853D02*
X218338D01*
X222432Y227703D02*
X218338D01*
X222432Y224554D02*
X218338D01*
X222432Y221404D02*
X218338D01*
X222432Y218255D02*
X218338D01*
X222432Y215105D02*
X218338D01*
X222432Y211955D02*
X218338D01*
X213298Y202822D02*
Y206916D01*
X210149Y202822D02*
Y206916D01*
X206999Y202822D02*
Y206916D01*
X203850Y202822D02*
Y206916D01*
X200700Y202822D02*
Y206916D01*
X197550Y202822D02*
Y206916D01*
X194401Y202822D02*
Y206916D01*
X191251Y202822D02*
Y206916D01*
X186212Y211955D02*
X182117D01*
X186212Y215105D02*
X182117D01*
X186212Y218255D02*
X182117D01*
X186212Y221404D02*
X182117D01*
X186212Y224554D02*
X182117D01*
X186212Y227703D02*
X182117D01*
X186212Y230853D02*
X182117D01*
X186212Y234003D02*
X182117D01*
X191251Y239042D02*
Y243137D01*
X194401Y239042D02*
Y243137D01*
X197550Y239042D02*
Y243137D01*
X200700Y239042D02*
Y243137D01*
X203850Y239042D02*
Y243137D01*
X206999Y239042D02*
Y243137D01*
X210149Y239042D02*
Y243137D01*
X213298Y239042D02*
Y243137D01*
G54D57*
X304858Y192500D03*
X285142D03*
X295000Y254500D03*
G54D58*
X292500Y183400D03*
Y176600D03*
G74*
X0Y0D02*
M02*
