M48
;DRILL file {kicad 0.201412101631+5319~19~ubuntu14.04.1-product} date St 10. prosinec 2014, 23:03:29 CET
;FORMAT={-:-/ absolute / metric / decimal}
FMAT,2
METRIC,TZ
T1C0.635
T2C0.900
T3C1.300
T4C3.000
%
G90
G05
M71
T1
X9.398Y17.399
X9.754Y8.611
X10.922Y20.066
X11.049Y8.153
X11.151Y2.972
X11.176Y18.288
X12.852Y4.521
X13.716Y25.146
X13.716Y23.368
X13.97Y20.828
X14.173Y8.077
X14.859Y4.623
X14.91Y2.032
X15.748Y20.32
X16.256Y22.606
X16.51Y24.892
X18.085Y10.389
X18.415Y2.007
X18.796Y28.448
X19.152Y16.789
X19.202Y15.265
X19.253Y13.665
X20.65Y13.564
X20.701Y16.789
X20.701Y15.316
X21.057Y2.032
X21.844Y28.702
X23.693Y2.338
X24.219Y9.766
X25.451Y10.211
X25.476Y11.608
X25.835Y3.922
X28.042Y3.861
X28.245Y10.49
X32.512Y10.668
T2
X10.795Y36.957
X10.795Y34.417
X13.335Y36.957
X13.335Y34.417
X15.875Y36.957
X15.875Y34.417
X17.209Y8.572
X17.209Y6.032
X18.415Y36.957
X18.415Y34.417
X19.748Y8.572
X19.748Y6.032
X22.225Y36.957
X22.225Y34.417
X22.288Y8.572
X22.288Y6.032
X24.765Y36.957
X24.765Y34.417
X27.305Y36.957
X27.305Y34.417
X29.845Y36.957
X29.845Y34.417
T3
X5.35Y28.003
X5.35Y22.987
X10.351Y28.003
X10.351Y22.987
X30.226Y29.591
X30.226Y24.575
X35.226Y29.591
X35.226Y24.575
T4
X5.08Y35.56
X5.08Y5.08
X35.56Y35.56
X35.56Y5.08
T0
M30
