G04 #@! TF.FileFunction,Legend,Top*
%FSLAX46Y46*%
G04 Gerber Fmt 4.6, Leading zero omitted, Abs format (unit mm)*
G04 Created by KiCad (PCBNEW 0.201503110816+5502~22~ubuntu14.10.1-product) date St 11. březen 2015, 19:54:32 CET*
%MOMM*%
G01*
G04 APERTURE LIST*
%ADD10C,0.100000*%
%ADD11C,0.300000*%
%ADD12C,0.200000*%
%ADD13C,0.254000*%
%ADD14C,0.150000*%
%ADD15C,0.304800*%
G04 APERTURE END LIST*
D10*
D11*
X39045343Y32626372D02*
X39045343Y33769229D01*
X1681943Y18503972D02*
X1681943Y19646829D01*
D12*
X26289214Y5214881D02*
X26336833Y5262500D01*
X26432071Y5310119D01*
X26670167Y5310119D01*
X26765405Y5262500D01*
X26813024Y5214881D01*
X26860643Y5119643D01*
X26860643Y5024405D01*
X26813024Y4881548D01*
X26241595Y4310119D01*
X26860643Y4310119D01*
X27479690Y5310119D02*
X27574929Y5310119D01*
X27670167Y5262500D01*
X27717786Y5214881D01*
X27765405Y5119643D01*
X27813024Y4929167D01*
X27813024Y4691071D01*
X27765405Y4500595D01*
X27717786Y4405357D01*
X27670167Y4357738D01*
X27574929Y4310119D01*
X27479690Y4310119D01*
X27384452Y4357738D01*
X27336833Y4405357D01*
X27289214Y4500595D01*
X27241595Y4691071D01*
X27241595Y4929167D01*
X27289214Y5119643D01*
X27336833Y5214881D01*
X27384452Y5262500D01*
X27479690Y5310119D01*
X28765405Y4310119D02*
X28193976Y4310119D01*
X28479690Y4310119D02*
X28479690Y5310119D01*
X28384452Y5167262D01*
X28289214Y5072024D01*
X28193976Y5024405D01*
X29670167Y5310119D02*
X29193976Y5310119D01*
X29146357Y4833929D01*
X29193976Y4881548D01*
X29289214Y4929167D01*
X29527310Y4929167D01*
X29622548Y4881548D01*
X29670167Y4833929D01*
X29717786Y4738690D01*
X29717786Y4500595D01*
X29670167Y4405357D01*
X29622548Y4357738D01*
X29527310Y4310119D01*
X29289214Y4310119D01*
X29193976Y4357738D01*
X29146357Y4405357D01*
X26106667Y7215119D02*
X26106667Y6500833D01*
X26059047Y6357976D01*
X25963809Y6262738D01*
X25820952Y6215119D01*
X25725714Y6215119D01*
X26535238Y6500833D02*
X27011429Y6500833D01*
X26440000Y6215119D02*
X26773333Y7215119D01*
X27106667Y6215119D01*
X28011429Y6310357D02*
X27963810Y6262738D01*
X27820953Y6215119D01*
X27725715Y6215119D01*
X27582857Y6262738D01*
X27487619Y6357976D01*
X27440000Y6453214D01*
X27392381Y6643690D01*
X27392381Y6786548D01*
X27440000Y6977024D01*
X27487619Y7072262D01*
X27582857Y7167500D01*
X27725715Y7215119D01*
X27820953Y7215119D01*
X27963810Y7167500D01*
X28011429Y7119881D01*
X28440000Y6215119D02*
X28440000Y7215119D01*
X28440000Y6738929D02*
X29011429Y6738929D01*
X29011429Y6215119D02*
X29011429Y7215119D01*
X29678095Y7215119D02*
X29868572Y7215119D01*
X29963810Y7167500D01*
X30059048Y7072262D01*
X30106667Y6881786D01*
X30106667Y6548452D01*
X30059048Y6357976D01*
X29963810Y6262738D01*
X29868572Y6215119D01*
X29678095Y6215119D01*
X29582857Y6262738D01*
X29487619Y6357976D01*
X29440000Y6548452D01*
X29440000Y6881786D01*
X29487619Y7072262D01*
X29582857Y7167500D01*
X29678095Y7215119D01*
X3059705Y11755429D02*
X3202562Y11707810D01*
X3250181Y11660190D01*
X3297800Y11564952D01*
X3297800Y11422095D01*
X3250181Y11326857D01*
X3202562Y11279238D01*
X3107324Y11231619D01*
X2726371Y11231619D01*
X2726371Y12231619D01*
X3059705Y12231619D01*
X3154943Y12184000D01*
X3202562Y12136381D01*
X3250181Y12041143D01*
X3250181Y11945905D01*
X3202562Y11850667D01*
X3154943Y11803048D01*
X3059705Y11755429D01*
X2726371Y11755429D01*
X3678752Y11517333D02*
X4154943Y11517333D01*
X3583514Y11231619D02*
X3916847Y12231619D01*
X4250181Y11231619D01*
X4440657Y12231619D02*
X5012086Y12231619D01*
X4726371Y11231619D02*
X4726371Y12231619D01*
X5345419Y11231619D02*
X5345419Y12231619D01*
X5726372Y12231619D01*
X5821610Y12184000D01*
X5869229Y12136381D01*
X5916848Y12041143D01*
X5916848Y11898286D01*
X5869229Y11803048D01*
X5821610Y11755429D01*
X5726372Y11707810D01*
X5345419Y11707810D01*
X6535895Y12231619D02*
X6726372Y12231619D01*
X6821610Y12184000D01*
X6916848Y12088762D01*
X6964467Y11898286D01*
X6964467Y11564952D01*
X6916848Y11374476D01*
X6821610Y11279238D01*
X6726372Y11231619D01*
X6535895Y11231619D01*
X6440657Y11279238D01*
X6345419Y11374476D01*
X6297800Y11564952D01*
X6297800Y11898286D01*
X6345419Y12088762D01*
X6440657Y12184000D01*
X6535895Y12231619D01*
X7297800Y12231619D02*
X7535895Y11231619D01*
X7726372Y11945905D01*
X7916848Y11231619D01*
X8154943Y12231619D01*
X8535895Y11755429D02*
X8869229Y11755429D01*
X9012086Y11231619D02*
X8535895Y11231619D01*
X8535895Y12231619D01*
X9012086Y12231619D01*
X10012086Y11231619D02*
X9678752Y11707810D01*
X9440657Y11231619D02*
X9440657Y12231619D01*
X9821610Y12231619D01*
X9916848Y12184000D01*
X9964467Y12136381D01*
X10012086Y12041143D01*
X10012086Y11898286D01*
X9964467Y11803048D01*
X9916848Y11755429D01*
X9821610Y11707810D01*
X9440657Y11707810D01*
X10631133Y12231619D02*
X10726372Y12231619D01*
X10821610Y12184000D01*
X10869229Y12136381D01*
X10916848Y12041143D01*
X10964467Y11850667D01*
X10964467Y11612571D01*
X10916848Y11422095D01*
X10869229Y11326857D01*
X10821610Y11279238D01*
X10726372Y11231619D01*
X10631133Y11231619D01*
X10535895Y11279238D01*
X10488276Y11326857D01*
X10440657Y11422095D01*
X10393038Y11612571D01*
X10393038Y11850667D01*
X10440657Y12041143D01*
X10488276Y12136381D01*
X10535895Y12184000D01*
X10631133Y12231619D01*
X11821610Y11898286D02*
X11821610Y11231619D01*
X11583514Y12279238D02*
X11345419Y11564952D01*
X11964467Y11564952D01*
X12916848Y11326857D02*
X12869229Y11279238D01*
X12726372Y11231619D01*
X12631134Y11231619D01*
X12488276Y11279238D01*
X12393038Y11374476D01*
X12345419Y11469714D01*
X12297800Y11660190D01*
X12297800Y11803048D01*
X12345419Y11993524D01*
X12393038Y12088762D01*
X12488276Y12184000D01*
X12631134Y12231619D01*
X12726372Y12231619D01*
X12869229Y12184000D01*
X12916848Y12136381D01*
D11*
X3589057Y13189829D02*
X3589057Y14689829D01*
X4089057Y13618400D01*
X4589057Y14689829D01*
X4589057Y13189829D01*
X6017629Y13189829D02*
X5303343Y13189829D01*
X5303343Y14689829D01*
X6446200Y13618400D02*
X7160486Y13618400D01*
X6303343Y13189829D02*
X6803343Y14689829D01*
X7303343Y13189829D01*
X8303343Y13975543D02*
X8517629Y13904114D01*
X8589057Y13832686D01*
X8660486Y13689829D01*
X8660486Y13475543D01*
X8589057Y13332686D01*
X8517629Y13261257D01*
X8374771Y13189829D01*
X7803343Y13189829D01*
X7803343Y14689829D01*
X8303343Y14689829D01*
X8446200Y14618400D01*
X8517629Y14546971D01*
X8589057Y14404114D01*
X8589057Y14261257D01*
X8517629Y14118400D01*
X8446200Y14046971D01*
X8303343Y13975543D01*
X7803343Y13975543D01*
X9303343Y13332686D02*
X9374771Y13261257D01*
X9303343Y13189829D01*
X9231914Y13261257D01*
X9303343Y13332686D01*
X9303343Y13189829D01*
X10660486Y13261257D02*
X10517629Y13189829D01*
X10231915Y13189829D01*
X10089057Y13261257D01*
X10017629Y13332686D01*
X9946200Y13475543D01*
X9946200Y13904114D01*
X10017629Y14046971D01*
X10089057Y14118400D01*
X10231915Y14189829D01*
X10517629Y14189829D01*
X10660486Y14118400D01*
X11160486Y14189829D02*
X11946200Y14189829D01*
X11160486Y13189829D01*
X11946200Y13189829D01*
D12*
X9493524Y32297619D02*
X9017333Y32297619D01*
X8969714Y31821429D01*
X9017333Y31869048D01*
X9112571Y31916667D01*
X9350667Y31916667D01*
X9445905Y31869048D01*
X9493524Y31821429D01*
X9541143Y31726190D01*
X9541143Y31488095D01*
X9493524Y31392857D01*
X9445905Y31345238D01*
X9350667Y31297619D01*
X9112571Y31297619D01*
X9017333Y31345238D01*
X8969714Y31392857D01*
X9826857Y32297619D02*
X10160190Y31297619D01*
X10493524Y32297619D01*
X10826857Y31678571D02*
X11588762Y31678571D01*
X12588762Y31297619D02*
X12017333Y31297619D01*
X12303047Y31297619D02*
X12303047Y32297619D01*
X12207809Y32154762D01*
X12112571Y32059524D01*
X12017333Y32011905D01*
X13445905Y32297619D02*
X13255428Y32297619D01*
X13160190Y32250000D01*
X13112571Y32202381D01*
X13017333Y32059524D01*
X12969714Y31869048D01*
X12969714Y31488095D01*
X13017333Y31392857D01*
X13064952Y31345238D01*
X13160190Y31297619D01*
X13350667Y31297619D01*
X13445905Y31345238D01*
X13493524Y31392857D01*
X13541143Y31488095D01*
X13541143Y31726190D01*
X13493524Y31821429D01*
X13445905Y31869048D01*
X13350667Y31916667D01*
X13160190Y31916667D01*
X13064952Y31869048D01*
X13017333Y31821429D01*
X12969714Y31726190D01*
X13826857Y32297619D02*
X14160190Y31297619D01*
X14493524Y32297619D01*
X21677381Y1825952D02*
X22677381Y2159285D01*
X21677381Y2492619D01*
X22391667Y2778333D02*
X22391667Y3254524D01*
X22677381Y2683095D02*
X21677381Y3016428D01*
X22677381Y3349762D01*
X22677381Y4254524D02*
X22201190Y3921190D01*
X22677381Y3683095D02*
X21677381Y3683095D01*
X21677381Y4064048D01*
X21725000Y4159286D01*
X21772619Y4206905D01*
X21867857Y4254524D01*
X22010714Y4254524D01*
X22105952Y4206905D01*
X22153571Y4159286D01*
X22201190Y4064048D01*
X22201190Y3683095D01*
X19137381Y1349762D02*
X19137381Y1968810D01*
X19518333Y1635476D01*
X19518333Y1778334D01*
X19565952Y1873572D01*
X19613571Y1921191D01*
X19708810Y1968810D01*
X19946905Y1968810D01*
X20042143Y1921191D01*
X20089762Y1873572D01*
X20137381Y1778334D01*
X20137381Y1492619D01*
X20089762Y1397381D01*
X20042143Y1349762D01*
X20042143Y2397381D02*
X20089762Y2445000D01*
X20137381Y2397381D01*
X20089762Y2349762D01*
X20042143Y2397381D01*
X20137381Y2397381D01*
X19137381Y2778333D02*
X19137381Y3397381D01*
X19518333Y3064047D01*
X19518333Y3206905D01*
X19565952Y3302143D01*
X19613571Y3349762D01*
X19708810Y3397381D01*
X19946905Y3397381D01*
X20042143Y3349762D01*
X20089762Y3302143D01*
X20137381Y3206905D01*
X20137381Y2921190D01*
X20089762Y2825952D01*
X20042143Y2778333D01*
X19137381Y3683095D02*
X20137381Y4016428D01*
X19137381Y4349762D01*
X16597381Y3222762D02*
X16597381Y2746571D01*
X17073571Y2698952D01*
X17025952Y2746571D01*
X16978333Y2841809D01*
X16978333Y3079905D01*
X17025952Y3175143D01*
X17073571Y3222762D01*
X17168810Y3270381D01*
X17406905Y3270381D01*
X17502143Y3222762D01*
X17549762Y3175143D01*
X17597381Y3079905D01*
X17597381Y2841809D01*
X17549762Y2746571D01*
X17502143Y2698952D01*
X16597381Y3556095D02*
X17597381Y3889428D01*
X16597381Y4222762D01*
X15415166Y10517238D02*
X15558023Y10469619D01*
X15796119Y10469619D01*
X15891357Y10517238D01*
X15938976Y10564857D01*
X15986595Y10660095D01*
X15986595Y10755333D01*
X15938976Y10850571D01*
X15891357Y10898190D01*
X15796119Y10945810D01*
X15605642Y10993429D01*
X15510404Y11041048D01*
X15462785Y11088667D01*
X15415166Y11183905D01*
X15415166Y11279143D01*
X15462785Y11374381D01*
X15510404Y11422000D01*
X15605642Y11469619D01*
X15843738Y11469619D01*
X15986595Y11422000D01*
X16415166Y10993429D02*
X16748500Y10993429D01*
X16891357Y10469619D02*
X16415166Y10469619D01*
X16415166Y11469619D01*
X16891357Y11469619D01*
X17177071Y11469619D02*
X17748500Y11469619D01*
X17462785Y10469619D02*
X17462785Y11469619D01*
X19034214Y11469619D02*
X19224691Y11469619D01*
X19319929Y11422000D01*
X19415167Y11326762D01*
X19462786Y11136286D01*
X19462786Y10802952D01*
X19415167Y10612476D01*
X19319929Y10517238D01*
X19224691Y10469619D01*
X19034214Y10469619D01*
X18938976Y10517238D01*
X18843738Y10612476D01*
X18796119Y10802952D01*
X18796119Y11136286D01*
X18843738Y11326762D01*
X18938976Y11422000D01*
X19034214Y11469619D01*
X19891357Y11469619D02*
X19891357Y10660095D01*
X19938976Y10564857D01*
X19986595Y10517238D01*
X20081833Y10469619D01*
X20272310Y10469619D01*
X20367548Y10517238D01*
X20415167Y10564857D01*
X20462786Y10660095D01*
X20462786Y11469619D01*
X20796119Y11469619D02*
X21367548Y11469619D01*
X21081833Y10469619D02*
X21081833Y11469619D01*
X21700881Y10469619D02*
X21700881Y11469619D01*
X22081834Y11469619D01*
X22177072Y11422000D01*
X22224691Y11374381D01*
X22272310Y11279143D01*
X22272310Y11136286D01*
X22224691Y11041048D01*
X22177072Y10993429D01*
X22081834Y10945810D01*
X21700881Y10945810D01*
X22700881Y11469619D02*
X22700881Y10660095D01*
X22748500Y10564857D01*
X22796119Y10517238D01*
X22891357Y10469619D01*
X23081834Y10469619D01*
X23177072Y10517238D01*
X23224691Y10564857D01*
X23272310Y10660095D01*
X23272310Y11469619D01*
X23605643Y11469619D02*
X24177072Y11469619D01*
X23891357Y10469619D02*
X23891357Y11469619D01*
D11*
X38239772Y20898657D02*
X39382629Y20898657D01*
X38811200Y20327229D02*
X38811200Y21470086D01*
X1130372Y31566657D02*
X2273229Y31566657D01*
X1701800Y30995229D02*
X1701800Y32138086D01*
D12*
X21814352Y39070019D02*
X21814352Y40070019D01*
X22195305Y40070019D01*
X22290543Y40022400D01*
X22338162Y39974781D01*
X22385781Y39879543D01*
X22385781Y39736686D01*
X22338162Y39641448D01*
X22290543Y39593829D01*
X22195305Y39546210D01*
X21814352Y39546210D01*
X23004828Y40070019D02*
X23195305Y40070019D01*
X23290543Y40022400D01*
X23385781Y39927162D01*
X23433400Y39736686D01*
X23433400Y39403352D01*
X23385781Y39212876D01*
X23290543Y39117638D01*
X23195305Y39070019D01*
X23004828Y39070019D01*
X22909590Y39117638D01*
X22814352Y39212876D01*
X22766733Y39403352D01*
X22766733Y39736686D01*
X22814352Y39927162D01*
X22909590Y40022400D01*
X23004828Y40070019D01*
X23766733Y40070019D02*
X24004828Y39070019D01*
X24195305Y39784305D01*
X24385781Y39070019D01*
X24623876Y40070019D01*
X25004828Y39593829D02*
X25338162Y39593829D01*
X25481019Y39070019D02*
X25004828Y39070019D01*
X25004828Y40070019D01*
X25481019Y40070019D01*
X26481019Y39070019D02*
X26147685Y39546210D01*
X25909590Y39070019D02*
X25909590Y40070019D01*
X26290543Y40070019D01*
X26385781Y40022400D01*
X26433400Y39974781D01*
X26481019Y39879543D01*
X26481019Y39736686D01*
X26433400Y39641448D01*
X26385781Y39593829D01*
X26290543Y39546210D01*
X25909590Y39546210D01*
X27861971Y40070019D02*
X28052448Y40070019D01*
X28147686Y40022400D01*
X28242924Y39927162D01*
X28290543Y39736686D01*
X28290543Y39403352D01*
X28242924Y39212876D01*
X28147686Y39117638D01*
X28052448Y39070019D01*
X27861971Y39070019D01*
X27766733Y39117638D01*
X27671495Y39212876D01*
X27623876Y39403352D01*
X27623876Y39736686D01*
X27671495Y39927162D01*
X27766733Y40022400D01*
X27861971Y40070019D01*
X28719114Y40070019D02*
X28719114Y39260495D01*
X28766733Y39165257D01*
X28814352Y39117638D01*
X28909590Y39070019D01*
X29100067Y39070019D01*
X29195305Y39117638D01*
X29242924Y39165257D01*
X29290543Y39260495D01*
X29290543Y40070019D01*
X29623876Y40070019D02*
X30195305Y40070019D01*
X29909590Y39070019D02*
X29909590Y40070019D01*
X11216119Y38727119D02*
X11216119Y39727119D01*
X11597072Y39727119D01*
X11692310Y39679500D01*
X11739929Y39631881D01*
X11787548Y39536643D01*
X11787548Y39393786D01*
X11739929Y39298548D01*
X11692310Y39250929D01*
X11597072Y39203310D01*
X11216119Y39203310D01*
X12406595Y39727119D02*
X12597072Y39727119D01*
X12692310Y39679500D01*
X12787548Y39584262D01*
X12835167Y39393786D01*
X12835167Y39060452D01*
X12787548Y38869976D01*
X12692310Y38774738D01*
X12597072Y38727119D01*
X12406595Y38727119D01*
X12311357Y38774738D01*
X12216119Y38869976D01*
X12168500Y39060452D01*
X12168500Y39393786D01*
X12216119Y39584262D01*
X12311357Y39679500D01*
X12406595Y39727119D01*
X13168500Y39727119D02*
X13406595Y38727119D01*
X13597072Y39441405D01*
X13787548Y38727119D01*
X14025643Y39727119D01*
X14406595Y39250929D02*
X14739929Y39250929D01*
X14882786Y38727119D02*
X14406595Y38727119D01*
X14406595Y39727119D01*
X14882786Y39727119D01*
X15882786Y38727119D02*
X15549452Y39203310D01*
X15311357Y38727119D02*
X15311357Y39727119D01*
X15692310Y39727119D01*
X15787548Y39679500D01*
X15835167Y39631881D01*
X15882786Y39536643D01*
X15882786Y39393786D01*
X15835167Y39298548D01*
X15787548Y39250929D01*
X15692310Y39203310D01*
X15311357Y39203310D01*
X17073262Y38727119D02*
X17073262Y39727119D01*
X17549452Y38727119D02*
X17549452Y39727119D01*
X18120881Y38727119D01*
X18120881Y39727119D01*
D13*
X14605000Y38227000D02*
X17145000Y38227000D01*
X14605000Y33147000D02*
X17145000Y33147000D01*
X14605000Y33147000D02*
X17145000Y33147000D01*
X14605000Y38227000D02*
X17145000Y38227000D01*
X19685000Y33147000D02*
X19685000Y38227000D01*
X17145000Y38227000D02*
X19685000Y38227000D01*
X17145000Y33147000D02*
X19685000Y33147000D01*
X17145000Y33147000D02*
X19685000Y33147000D01*
X17145000Y38227000D02*
X19685000Y38227000D01*
X9525000Y33147000D02*
X17145000Y33147000D01*
X19685000Y33147000D02*
X19685000Y38227000D01*
X17145000Y38227000D02*
X12065000Y38227000D01*
X9525000Y33147000D02*
X9525000Y35687000D01*
X9525000Y38227000D02*
X9525000Y35687000D01*
X12065000Y38227000D02*
X9525000Y38227000D01*
X21018500Y4762500D02*
X21018500Y7302500D01*
X23558500Y7302500D02*
X23558500Y9842500D01*
X23558500Y9842500D02*
X21018500Y9842500D01*
X21018500Y7302500D02*
X21018500Y9842500D01*
X21018500Y4762500D02*
X23558500Y4762500D01*
X23558500Y4762500D02*
X23558500Y7302500D01*
X18478500Y4762500D02*
X18478500Y7302500D01*
X21018500Y7302500D02*
X21018500Y9842500D01*
X21018500Y9842500D02*
X18478500Y9842500D01*
X18478500Y7302500D02*
X18478500Y9842500D01*
X18478500Y4762500D02*
X21018500Y4762500D01*
X21018500Y4762500D02*
X21018500Y7302500D01*
X15938500Y4762500D02*
X15938500Y7302500D01*
X18478500Y7302500D02*
X18478500Y9842500D01*
X18478500Y9842500D02*
X15938500Y9842500D01*
X15938500Y7302500D02*
X15938500Y9842500D01*
X15938500Y4762500D02*
X18478500Y4762500D01*
X18478500Y4762500D02*
X18478500Y7302500D01*
X26035000Y33647000D02*
X23495000Y33647000D01*
X26035000Y38727000D02*
X23495000Y38727000D01*
X26035000Y38727000D02*
X23495000Y38727000D01*
X26035000Y33647000D02*
X23495000Y33647000D01*
X20955000Y38727000D02*
X20955000Y33647000D01*
X23495000Y33647000D02*
X20955000Y33647000D01*
X23495000Y38727000D02*
X20955000Y38727000D01*
X23495000Y38727000D02*
X20955000Y38727000D01*
X23495000Y33647000D02*
X20955000Y33647000D01*
X31115000Y38727000D02*
X23495000Y38727000D01*
X20955000Y38727000D02*
X20955000Y33647000D01*
X23495000Y33647000D02*
X28575000Y33647000D01*
X31115000Y38727000D02*
X31115000Y36187000D01*
X31115000Y33647000D02*
X31115000Y36187000D01*
X28575000Y33647000D02*
X31115000Y33647000D01*
D14*
X25226000Y32091000D02*
X25226000Y31591000D01*
X25226000Y27591000D02*
X25226000Y27091000D01*
X31226000Y32091100D02*
X31226000Y27090900D01*
X40226000Y32091100D02*
X40226000Y27090900D01*
X23226000Y31092000D02*
X23226000Y28090000D01*
X25725900Y31092000D02*
X25725900Y28090000D01*
X22725900Y27591000D02*
X22725900Y31591000D01*
X26226000Y27591000D02*
X26226000Y31591000D01*
X29226000Y31091100D02*
X29226000Y28090900D01*
X31726100Y27591000D02*
X31726100Y31591000D01*
X39726100Y31591000D02*
X39726100Y27591000D01*
X31726100Y30591000D02*
X31226000Y30591000D01*
X25725900Y31091000D02*
X23226000Y31091000D01*
X26226000Y31591000D02*
X22725900Y31591000D01*
X31726100Y28591000D02*
X31226000Y28591000D01*
X25725900Y28091000D02*
X23226000Y28091000D01*
X26226000Y27591000D02*
X22725000Y27591000D01*
X29226000Y31091000D02*
X26226000Y31091000D01*
X39726100Y31591000D02*
X31726100Y31591000D01*
X31226000Y32091000D02*
X25226000Y32091000D01*
X29226000Y28091000D02*
X26226000Y28091000D01*
X39726100Y27591000D02*
X31726100Y27591000D01*
X31226000Y27091000D02*
X25226000Y27091000D01*
X31226000Y32091000D02*
X40226000Y32091000D01*
X40226000Y27091000D02*
X31226000Y27091000D01*
X25226000Y27074500D02*
X25226000Y26574500D01*
X25226000Y22574500D02*
X25226000Y22074500D01*
X31226000Y27074600D02*
X31226000Y22074400D01*
X40226000Y27074600D02*
X40226000Y22074400D01*
X23226000Y26075500D02*
X23226000Y23073500D01*
X25725900Y26075500D02*
X25725900Y23073500D01*
X22725900Y22574500D02*
X22725900Y26574500D01*
X26226000Y22574500D02*
X26226000Y26574500D01*
X29226000Y26074600D02*
X29226000Y23074400D01*
X31726100Y22574500D02*
X31726100Y26574500D01*
X39726100Y26574500D02*
X39726100Y22574500D01*
X31726100Y25574500D02*
X31226000Y25574500D01*
X25725900Y26074500D02*
X23226000Y26074500D01*
X26226000Y26574500D02*
X22725900Y26574500D01*
X31726100Y23574500D02*
X31226000Y23574500D01*
X25725900Y23074500D02*
X23226000Y23074500D01*
X26226000Y22574500D02*
X22725000Y22574500D01*
X29226000Y26074500D02*
X26226000Y26074500D01*
X39726100Y26574500D02*
X31726100Y26574500D01*
X31226000Y27074500D02*
X25226000Y27074500D01*
X29226000Y23074500D02*
X26226000Y23074500D01*
X39726100Y22574500D02*
X31726100Y22574500D01*
X31226000Y22074500D02*
X25226000Y22074500D01*
X31226000Y27074500D02*
X40226000Y27074500D01*
X40226000Y22074500D02*
X31226000Y22074500D01*
X15350500Y25503500D02*
X15350500Y26003500D01*
X15350500Y30003500D02*
X15350500Y30503500D01*
X9350500Y25503400D02*
X9350500Y30503600D01*
X350500Y25503400D02*
X350500Y30503600D01*
X17350500Y26502500D02*
X17350500Y29504500D01*
X14850600Y26502500D02*
X14850600Y29504500D01*
X17850600Y30003500D02*
X17850600Y26003500D01*
X14350500Y30003500D02*
X14350500Y26003500D01*
X11350500Y26503400D02*
X11350500Y29503600D01*
X8850400Y30003500D02*
X8850400Y26003500D01*
X850400Y26003500D02*
X850400Y30003500D01*
X8850400Y27003500D02*
X9350500Y27003500D01*
X14850600Y26503500D02*
X17350500Y26503500D01*
X14350500Y26003500D02*
X17850600Y26003500D01*
X8850400Y29003500D02*
X9350500Y29003500D01*
X14850600Y29503500D02*
X17350500Y29503500D01*
X14350500Y30003500D02*
X17851500Y30003500D01*
X11350500Y26503500D02*
X14350500Y26503500D01*
X850400Y26003500D02*
X8850400Y26003500D01*
X9350500Y25503500D02*
X15350500Y25503500D01*
X11350500Y29503500D02*
X14350500Y29503500D01*
X850400Y30003500D02*
X8850400Y30003500D01*
X9350500Y30503500D02*
X15350500Y30503500D01*
X9350500Y25503500D02*
X350500Y25503500D01*
X350500Y30503500D02*
X9350500Y30503500D01*
X15350500Y20487000D02*
X15350500Y20987000D01*
X15350500Y24987000D02*
X15350500Y25487000D01*
X9350500Y20486900D02*
X9350500Y25487100D01*
X350500Y20486900D02*
X350500Y25487100D01*
X17350500Y21486000D02*
X17350500Y24488000D01*
X14850600Y21486000D02*
X14850600Y24488000D01*
X17850600Y24987000D02*
X17850600Y20987000D01*
X14350500Y24987000D02*
X14350500Y20987000D01*
X11350500Y21486900D02*
X11350500Y24487100D01*
X8850400Y24987000D02*
X8850400Y20987000D01*
X850400Y20987000D02*
X850400Y24987000D01*
X8850400Y21987000D02*
X9350500Y21987000D01*
X14850600Y21487000D02*
X17350500Y21487000D01*
X14350500Y20987000D02*
X17850600Y20987000D01*
X8850400Y23987000D02*
X9350500Y23987000D01*
X14850600Y24487000D02*
X17350500Y24487000D01*
X14350500Y24987000D02*
X17851500Y24987000D01*
X11350500Y21487000D02*
X14350500Y21487000D01*
X850400Y20987000D02*
X8850400Y20987000D01*
X9350500Y20487000D02*
X15350500Y20487000D01*
X11350500Y24487000D02*
X14350500Y24487000D01*
X850400Y24987000D02*
X8850400Y24987000D01*
X9350500Y25487000D02*
X15350500Y25487000D01*
X9350500Y20487000D02*
X350500Y20487000D01*
X350500Y25487000D02*
X9350500Y25487000D01*
D10*
G36*
X36516734Y13097934D02*
X36516734Y12780434D01*
X36199234Y12780434D01*
X35405484Y12780434D01*
X34611734Y12780434D01*
X34611734Y11986684D01*
X34611734Y11192934D01*
X35405484Y11192934D01*
X36199234Y11192934D01*
X36199234Y11986684D01*
X36199234Y12780434D01*
X36516734Y12780434D01*
X36516734Y11986684D01*
X36516734Y10875434D01*
X35405484Y10875434D01*
X34294234Y10875434D01*
X34294234Y11986684D01*
X34294234Y13097934D01*
X35405484Y13097934D01*
X36516734Y13097934D01*
X36516734Y13097934D01*
X36516734Y13097934D01*
G37*
X36516734Y13097934D02*
X36516734Y12780434D01*
X36199234Y12780434D01*
X35405484Y12780434D01*
X34611734Y12780434D01*
X34611734Y11986684D01*
X34611734Y11192934D01*
X35405484Y11192934D01*
X36199234Y11192934D01*
X36199234Y11986684D01*
X36199234Y12780434D01*
X36516734Y12780434D01*
X36516734Y11986684D01*
X36516734Y10875434D01*
X35405484Y10875434D01*
X34294234Y10875434D01*
X34294234Y11986684D01*
X34294234Y13097934D01*
X35405484Y13097934D01*
X36516734Y13097934D01*
X36516734Y13097934D01*
G36*
X36516734Y13732934D02*
X36516734Y13574184D01*
X36516734Y13415434D01*
X36040484Y13415434D01*
X35564234Y13415434D01*
X35564234Y13574184D01*
X35564234Y13732934D01*
X36040484Y13732934D01*
X36516734Y13732934D01*
X36516734Y13732934D01*
X36516734Y13732934D01*
G37*
X36516734Y13732934D02*
X36516734Y13574184D01*
X36516734Y13415434D01*
X36040484Y13415434D01*
X35564234Y13415434D01*
X35564234Y13574184D01*
X35564234Y13732934D01*
X36040484Y13732934D01*
X36516734Y13732934D01*
X36516734Y13732934D01*
G36*
X33341734Y11192934D02*
X33341734Y11034184D01*
X33341734Y10875434D01*
X33182984Y10875434D01*
X33024234Y10875434D01*
X33024234Y11034184D01*
X33024234Y11192934D01*
X33182984Y11192934D01*
X33341734Y11192934D01*
X33341734Y11192934D01*
X33341734Y11192934D01*
G37*
X33341734Y11192934D02*
X33341734Y11034184D01*
X33341734Y10875434D01*
X33182984Y10875434D01*
X33024234Y10875434D01*
X33024234Y11034184D01*
X33024234Y11192934D01*
X33182984Y11192934D01*
X33341734Y11192934D01*
X33341734Y11192934D01*
G36*
X33976734Y11192934D02*
X33976734Y11034184D01*
X33976734Y10875434D01*
X33817984Y10875434D01*
X33659234Y10875434D01*
X33659234Y11034184D01*
X33659234Y11192934D01*
X33817984Y11192934D01*
X33976734Y11192934D01*
X33976734Y11192934D01*
X33976734Y11192934D01*
G37*
X33976734Y11192934D02*
X33976734Y11034184D01*
X33976734Y10875434D01*
X33817984Y10875434D01*
X33659234Y10875434D01*
X33659234Y11034184D01*
X33659234Y11192934D01*
X33817984Y11192934D01*
X33976734Y11192934D01*
X33976734Y11192934D01*
G36*
X32071734Y11510434D02*
X32071734Y11192934D01*
X32071734Y10875434D01*
X31912984Y10875434D01*
X31754234Y10875434D01*
X31754234Y11192934D01*
X31754234Y11510434D01*
X31912984Y11510434D01*
X32071734Y11510434D01*
X32071734Y11510434D01*
X32071734Y11510434D01*
G37*
X32071734Y11510434D02*
X32071734Y11192934D01*
X32071734Y10875434D01*
X31912984Y10875434D01*
X31754234Y10875434D01*
X31754234Y11192934D01*
X31754234Y11510434D01*
X31912984Y11510434D01*
X32071734Y11510434D01*
X32071734Y11510434D01*
G36*
X33659234Y11510434D02*
X33659234Y11351684D01*
X33659234Y11192934D01*
X33500484Y11192934D01*
X33341734Y11192934D01*
X33341734Y11351684D01*
X33341734Y11510434D01*
X33500484Y11510434D01*
X33659234Y11510434D01*
X33659234Y11510434D01*
X33659234Y11510434D01*
G37*
X33659234Y11510434D02*
X33659234Y11351684D01*
X33659234Y11192934D01*
X33500484Y11192934D01*
X33341734Y11192934D01*
X33341734Y11351684D01*
X33341734Y11510434D01*
X33500484Y11510434D01*
X33659234Y11510434D01*
X33659234Y11510434D01*
G36*
X32389234Y12145434D02*
X32389234Y11986684D01*
X32389234Y11827934D01*
X32865484Y11827934D01*
X33341734Y11827934D01*
X33341734Y11669184D01*
X33341734Y11510434D01*
X33182984Y11510434D01*
X33024234Y11510434D01*
X33024234Y11351684D01*
X33024234Y11192934D01*
X32706734Y11192934D01*
X32389234Y11192934D01*
X32389234Y11351684D01*
X32389234Y11510434D01*
X32230484Y11510434D01*
X32071734Y11510434D01*
X32071734Y11827934D01*
X32071734Y12145434D01*
X32230484Y12145434D01*
X32389234Y12145434D01*
X32389234Y12145434D01*
X32389234Y12145434D01*
G37*
X32389234Y12145434D02*
X32389234Y11986684D01*
X32389234Y11827934D01*
X32865484Y11827934D01*
X33341734Y11827934D01*
X33341734Y11669184D01*
X33341734Y11510434D01*
X33182984Y11510434D01*
X33024234Y11510434D01*
X33024234Y11351684D01*
X33024234Y11192934D01*
X32706734Y11192934D01*
X32389234Y11192934D01*
X32389234Y11351684D01*
X32389234Y11510434D01*
X32230484Y11510434D01*
X32071734Y11510434D01*
X32071734Y11827934D01*
X32071734Y12145434D01*
X32230484Y12145434D01*
X32389234Y12145434D01*
X32389234Y12145434D01*
G36*
X32389234Y12780434D02*
X32389234Y12621684D01*
X32389234Y12462934D01*
X32230484Y12462934D01*
X32071734Y12462934D01*
X32071734Y12621684D01*
X32071734Y12780434D01*
X32230484Y12780434D01*
X32389234Y12780434D01*
X32389234Y12780434D01*
X32389234Y12780434D01*
G37*
X32389234Y12780434D02*
X32389234Y12621684D01*
X32389234Y12462934D01*
X32230484Y12462934D01*
X32071734Y12462934D01*
X32071734Y12621684D01*
X32071734Y12780434D01*
X32230484Y12780434D01*
X32389234Y12780434D01*
X32389234Y12780434D01*
G36*
X33341734Y13415434D02*
X33341734Y13097934D01*
X33341734Y12780434D01*
X33500484Y12780434D01*
X33659234Y12780434D01*
X33659234Y12939184D01*
X33659234Y13097934D01*
X33817984Y13097934D01*
X33976734Y13097934D01*
X33976734Y12780434D01*
X33976734Y12462934D01*
X33659234Y12462934D01*
X33341734Y12462934D01*
X33341734Y12304184D01*
X33341734Y12145434D01*
X33024234Y12145434D01*
X32706734Y12145434D01*
X32706734Y12462934D01*
X32706734Y12780434D01*
X32865484Y12780434D01*
X33024234Y12780434D01*
X33024234Y13097934D01*
X33024234Y13415434D01*
X33182984Y13415434D01*
X33341734Y13415434D01*
X33341734Y13415434D01*
X33341734Y13415434D01*
G37*
X33341734Y13415434D02*
X33341734Y13097934D01*
X33341734Y12780434D01*
X33500484Y12780434D01*
X33659234Y12780434D01*
X33659234Y12939184D01*
X33659234Y13097934D01*
X33817984Y13097934D01*
X33976734Y13097934D01*
X33976734Y12780434D01*
X33976734Y12462934D01*
X33659234Y12462934D01*
X33341734Y12462934D01*
X33341734Y12304184D01*
X33341734Y12145434D01*
X33024234Y12145434D01*
X32706734Y12145434D01*
X32706734Y12462934D01*
X32706734Y12780434D01*
X32865484Y12780434D01*
X33024234Y12780434D01*
X33024234Y13097934D01*
X33024234Y13415434D01*
X33182984Y13415434D01*
X33341734Y13415434D01*
X33341734Y13415434D01*
G36*
X27626734Y14050434D02*
X27626734Y13891684D01*
X27626734Y13732934D01*
X27467984Y13732934D01*
X27309234Y13732934D01*
X27309234Y13891684D01*
X27309234Y14050434D01*
X27467984Y14050434D01*
X27626734Y14050434D01*
X27626734Y14050434D01*
X27626734Y14050434D01*
G37*
X27626734Y14050434D02*
X27626734Y13891684D01*
X27626734Y13732934D01*
X27467984Y13732934D01*
X27309234Y13732934D01*
X27309234Y13891684D01*
X27309234Y14050434D01*
X27467984Y14050434D01*
X27626734Y14050434D01*
X27626734Y14050434D01*
G36*
X29214234Y14050434D02*
X29214234Y13891684D01*
X29214234Y13732934D01*
X29055484Y13732934D01*
X28896734Y13732934D01*
X28896734Y13891684D01*
X28896734Y14050434D01*
X29055484Y14050434D01*
X29214234Y14050434D01*
X29214234Y14050434D01*
X29214234Y14050434D01*
G37*
X29214234Y14050434D02*
X29214234Y13891684D01*
X29214234Y13732934D01*
X29055484Y13732934D01*
X28896734Y13732934D01*
X28896734Y13891684D01*
X28896734Y14050434D01*
X29055484Y14050434D01*
X29214234Y14050434D01*
X29214234Y14050434D01*
G36*
X32389234Y14367934D02*
X32389234Y14209184D01*
X32389234Y14050434D01*
X32547984Y14050434D01*
X32706734Y14050434D01*
X32706734Y13891684D01*
X32706734Y13732934D01*
X32865484Y13732934D01*
X33024234Y13732934D01*
X33024234Y13574184D01*
X33024234Y13415434D01*
X32865484Y13415434D01*
X32706734Y13415434D01*
X32706734Y13097934D01*
X32706734Y12780434D01*
X32547984Y12780434D01*
X32389234Y12780434D01*
X32389234Y13256684D01*
X32389234Y13732934D01*
X32071734Y13732934D01*
X31754234Y13732934D01*
X31754234Y13891684D01*
X31754234Y14050434D01*
X31912984Y14050434D01*
X32071734Y14050434D01*
X32071734Y14209184D01*
X32071734Y14367934D01*
X32230484Y14367934D01*
X32389234Y14367934D01*
X32389234Y14367934D01*
X32389234Y14367934D01*
G37*
X32389234Y14367934D02*
X32389234Y14209184D01*
X32389234Y14050434D01*
X32547984Y14050434D01*
X32706734Y14050434D01*
X32706734Y13891684D01*
X32706734Y13732934D01*
X32865484Y13732934D01*
X33024234Y13732934D01*
X33024234Y13574184D01*
X33024234Y13415434D01*
X32865484Y13415434D01*
X32706734Y13415434D01*
X32706734Y13097934D01*
X32706734Y12780434D01*
X32547984Y12780434D01*
X32389234Y12780434D01*
X32389234Y13256684D01*
X32389234Y13732934D01*
X32071734Y13732934D01*
X31754234Y13732934D01*
X31754234Y13891684D01*
X31754234Y14050434D01*
X31912984Y14050434D01*
X32071734Y14050434D01*
X32071734Y14209184D01*
X32071734Y14367934D01*
X32230484Y14367934D01*
X32389234Y14367934D01*
X32389234Y14367934D01*
G36*
X30484234Y14685434D02*
X30484234Y14367934D01*
X30484234Y14050434D01*
X30166734Y14050434D01*
X29849234Y14050434D01*
X29849234Y13891684D01*
X29849234Y13732934D01*
X30007984Y13732934D01*
X30166734Y13732934D01*
X30166734Y13256684D01*
X30166734Y12780434D01*
X30325484Y12780434D01*
X30484234Y12780434D01*
X30484234Y12939184D01*
X30484234Y13097934D01*
X30642984Y13097934D01*
X30801734Y13097934D01*
X30801734Y12780434D01*
X30801734Y12462934D01*
X30642984Y12462934D01*
X30484234Y12462934D01*
X30484234Y12145434D01*
X30484234Y11827934D01*
X30801734Y11827934D01*
X31119234Y11827934D01*
X31119234Y11986684D01*
X31119234Y12145434D01*
X30960484Y12145434D01*
X30801734Y12145434D01*
X30801734Y12304184D01*
X30801734Y12462934D01*
X30960484Y12462934D01*
X31119234Y12462934D01*
X31119234Y12780434D01*
X31119234Y13097934D01*
X30960484Y13097934D01*
X30801734Y13097934D01*
X30801734Y13415434D01*
X30801734Y13732934D01*
X30960484Y13732934D01*
X31119234Y13732934D01*
X31119234Y13574184D01*
X31119234Y13415434D01*
X31436734Y13415434D01*
X31754234Y13415434D01*
X31754234Y13256684D01*
X31754234Y13097934D01*
X31595484Y13097934D01*
X31436734Y13097934D01*
X31436734Y12780434D01*
X31436734Y12462934D01*
X31754234Y12462934D01*
X32071734Y12462934D01*
X32071734Y12304184D01*
X32071734Y12145434D01*
X31754234Y12145434D01*
X31436734Y12145434D01*
X31436734Y11986684D01*
X31436734Y11827934D01*
X31595484Y11827934D01*
X31754234Y11827934D01*
X31754234Y11669184D01*
X31754234Y11510434D01*
X31277984Y11510434D01*
X30801734Y11510434D01*
X30484234Y11510434D01*
X30325484Y11510434D01*
X30166734Y11510434D01*
X30166734Y11351684D01*
X30166734Y11192934D01*
X30325484Y11192934D01*
X30484234Y11192934D01*
X30484234Y11351684D01*
X30484234Y11510434D01*
X30801734Y11510434D01*
X30801734Y11351684D01*
X30801734Y11192934D01*
X31119234Y11192934D01*
X31436734Y11192934D01*
X31436734Y11034184D01*
X31436734Y10875434D01*
X30642984Y10875434D01*
X29849234Y10875434D01*
X29849234Y11351684D01*
X29849234Y11827934D01*
X30007984Y11827934D01*
X30166734Y11827934D01*
X30166734Y11986684D01*
X30166734Y12145434D01*
X30007984Y12145434D01*
X29849234Y12145434D01*
X29849234Y12780434D01*
X29849234Y13415434D01*
X29531734Y13415434D01*
X29214234Y13415434D01*
X29214234Y13574184D01*
X29214234Y13732934D01*
X29372984Y13732934D01*
X29531734Y13732934D01*
X29531734Y13891684D01*
X29531734Y14050434D01*
X29372984Y14050434D01*
X29214234Y14050434D01*
X29214234Y14209184D01*
X29214234Y14367934D01*
X29531734Y14367934D01*
X29849234Y14367934D01*
X29849234Y14526684D01*
X29849234Y14685434D01*
X30166734Y14685434D01*
X30484234Y14685434D01*
X30484234Y14685434D01*
X30484234Y14685434D01*
G37*
X30484234Y14685434D02*
X30484234Y14367934D01*
X30484234Y14050434D01*
X30166734Y14050434D01*
X29849234Y14050434D01*
X29849234Y13891684D01*
X29849234Y13732934D01*
X30007984Y13732934D01*
X30166734Y13732934D01*
X30166734Y13256684D01*
X30166734Y12780434D01*
X30325484Y12780434D01*
X30484234Y12780434D01*
X30484234Y12939184D01*
X30484234Y13097934D01*
X30642984Y13097934D01*
X30801734Y13097934D01*
X30801734Y12780434D01*
X30801734Y12462934D01*
X30642984Y12462934D01*
X30484234Y12462934D01*
X30484234Y12145434D01*
X30484234Y11827934D01*
X30801734Y11827934D01*
X31119234Y11827934D01*
X31119234Y11986684D01*
X31119234Y12145434D01*
X30960484Y12145434D01*
X30801734Y12145434D01*
X30801734Y12304184D01*
X30801734Y12462934D01*
X30960484Y12462934D01*
X31119234Y12462934D01*
X31119234Y12780434D01*
X31119234Y13097934D01*
X30960484Y13097934D01*
X30801734Y13097934D01*
X30801734Y13415434D01*
X30801734Y13732934D01*
X30960484Y13732934D01*
X31119234Y13732934D01*
X31119234Y13574184D01*
X31119234Y13415434D01*
X31436734Y13415434D01*
X31754234Y13415434D01*
X31754234Y13256684D01*
X31754234Y13097934D01*
X31595484Y13097934D01*
X31436734Y13097934D01*
X31436734Y12780434D01*
X31436734Y12462934D01*
X31754234Y12462934D01*
X32071734Y12462934D01*
X32071734Y12304184D01*
X32071734Y12145434D01*
X31754234Y12145434D01*
X31436734Y12145434D01*
X31436734Y11986684D01*
X31436734Y11827934D01*
X31595484Y11827934D01*
X31754234Y11827934D01*
X31754234Y11669184D01*
X31754234Y11510434D01*
X31277984Y11510434D01*
X30801734Y11510434D01*
X30484234Y11510434D01*
X30325484Y11510434D01*
X30166734Y11510434D01*
X30166734Y11351684D01*
X30166734Y11192934D01*
X30325484Y11192934D01*
X30484234Y11192934D01*
X30484234Y11351684D01*
X30484234Y11510434D01*
X30801734Y11510434D01*
X30801734Y11351684D01*
X30801734Y11192934D01*
X31119234Y11192934D01*
X31436734Y11192934D01*
X31436734Y11034184D01*
X31436734Y10875434D01*
X30642984Y10875434D01*
X29849234Y10875434D01*
X29849234Y11351684D01*
X29849234Y11827934D01*
X30007984Y11827934D01*
X30166734Y11827934D01*
X30166734Y11986684D01*
X30166734Y12145434D01*
X30007984Y12145434D01*
X29849234Y12145434D01*
X29849234Y12780434D01*
X29849234Y13415434D01*
X29531734Y13415434D01*
X29214234Y13415434D01*
X29214234Y13574184D01*
X29214234Y13732934D01*
X29372984Y13732934D01*
X29531734Y13732934D01*
X29531734Y13891684D01*
X29531734Y14050434D01*
X29372984Y14050434D01*
X29214234Y14050434D01*
X29214234Y14209184D01*
X29214234Y14367934D01*
X29531734Y14367934D01*
X29849234Y14367934D01*
X29849234Y14526684D01*
X29849234Y14685434D01*
X30166734Y14685434D01*
X30484234Y14685434D01*
X30484234Y14685434D01*
G36*
X36199234Y14685434D02*
X36199234Y14367934D01*
X36199234Y14050434D01*
X35564234Y14050434D01*
X34929234Y14050434D01*
X34929234Y14367934D01*
X34929234Y14685434D01*
X35246734Y14685434D01*
X35564234Y14685434D01*
X35564234Y14526684D01*
X35564234Y14367934D01*
X35722984Y14367934D01*
X35881734Y14367934D01*
X35881734Y14526684D01*
X35881734Y14685434D01*
X36040484Y14685434D01*
X36199234Y14685434D01*
X36199234Y14685434D01*
X36199234Y14685434D01*
G37*
X36199234Y14685434D02*
X36199234Y14367934D01*
X36199234Y14050434D01*
X35564234Y14050434D01*
X34929234Y14050434D01*
X34929234Y14367934D01*
X34929234Y14685434D01*
X35246734Y14685434D01*
X35564234Y14685434D01*
X35564234Y14526684D01*
X35564234Y14367934D01*
X35722984Y14367934D01*
X35881734Y14367934D01*
X35881734Y14526684D01*
X35881734Y14685434D01*
X36040484Y14685434D01*
X36199234Y14685434D01*
X36199234Y14685434D01*
G36*
X36516734Y15002934D02*
X36516734Y14844184D01*
X36516734Y14685434D01*
X36357984Y14685434D01*
X36199234Y14685434D01*
X36199234Y14844184D01*
X36199234Y15002934D01*
X36357984Y15002934D01*
X36516734Y15002934D01*
X36516734Y15002934D01*
X36516734Y15002934D01*
G37*
X36516734Y15002934D02*
X36516734Y14844184D01*
X36516734Y14685434D01*
X36357984Y14685434D01*
X36199234Y14685434D01*
X36199234Y14844184D01*
X36199234Y15002934D01*
X36357984Y15002934D01*
X36516734Y15002934D01*
X36516734Y15002934D01*
G36*
X28579234Y15320434D02*
X28579234Y15161684D01*
X28579234Y15002934D01*
X28420484Y15002934D01*
X28261734Y15002934D01*
X28261734Y14844184D01*
X28261734Y14685434D01*
X28102984Y14685434D01*
X27944234Y14685434D01*
X27944234Y14526684D01*
X27944234Y14367934D01*
X28102984Y14367934D01*
X28261734Y14367934D01*
X28261734Y14526684D01*
X28261734Y14685434D01*
X28420484Y14685434D01*
X28579234Y14685434D01*
X28579234Y14526684D01*
X28579234Y14367934D01*
X28737984Y14367934D01*
X28896734Y14367934D01*
X28896734Y14209184D01*
X28896734Y14050434D01*
X28737984Y14050434D01*
X28579234Y14050434D01*
X28579234Y13891684D01*
X28579234Y13732934D01*
X28420484Y13732934D01*
X28261734Y13732934D01*
X28261734Y13574184D01*
X28261734Y13415434D01*
X28102984Y13415434D01*
X27944234Y13415434D01*
X27944234Y13732934D01*
X27944234Y14050434D01*
X27785484Y14050434D01*
X27626734Y14050434D01*
X27626734Y14367934D01*
X27626734Y14685434D01*
X27467984Y14685434D01*
X27309234Y14685434D01*
X27309234Y14844184D01*
X27309234Y15002934D01*
X27467984Y15002934D01*
X27626734Y15002934D01*
X27626734Y15161684D01*
X27626734Y15320434D01*
X28102984Y15320434D01*
X28579234Y15320434D01*
X28579234Y15320434D01*
X28579234Y15320434D01*
G37*
X28579234Y15320434D02*
X28579234Y15161684D01*
X28579234Y15002934D01*
X28420484Y15002934D01*
X28261734Y15002934D01*
X28261734Y14844184D01*
X28261734Y14685434D01*
X28102984Y14685434D01*
X27944234Y14685434D01*
X27944234Y14526684D01*
X27944234Y14367934D01*
X28102984Y14367934D01*
X28261734Y14367934D01*
X28261734Y14526684D01*
X28261734Y14685434D01*
X28420484Y14685434D01*
X28579234Y14685434D01*
X28579234Y14526684D01*
X28579234Y14367934D01*
X28737984Y14367934D01*
X28896734Y14367934D01*
X28896734Y14209184D01*
X28896734Y14050434D01*
X28737984Y14050434D01*
X28579234Y14050434D01*
X28579234Y13891684D01*
X28579234Y13732934D01*
X28420484Y13732934D01*
X28261734Y13732934D01*
X28261734Y13574184D01*
X28261734Y13415434D01*
X28102984Y13415434D01*
X27944234Y13415434D01*
X27944234Y13732934D01*
X27944234Y14050434D01*
X27785484Y14050434D01*
X27626734Y14050434D01*
X27626734Y14367934D01*
X27626734Y14685434D01*
X27467984Y14685434D01*
X27309234Y14685434D01*
X27309234Y14844184D01*
X27309234Y15002934D01*
X27467984Y15002934D01*
X27626734Y15002934D01*
X27626734Y15161684D01*
X27626734Y15320434D01*
X28102984Y15320434D01*
X28579234Y15320434D01*
X28579234Y15320434D01*
G36*
X35881734Y15320434D02*
X35881734Y15161684D01*
X35881734Y15002934D01*
X35722984Y15002934D01*
X35564234Y15002934D01*
X35564234Y15161684D01*
X35564234Y15320434D01*
X35722984Y15320434D01*
X35881734Y15320434D01*
X35881734Y15320434D01*
X35881734Y15320434D01*
G37*
X35881734Y15320434D02*
X35881734Y15161684D01*
X35881734Y15002934D01*
X35722984Y15002934D01*
X35564234Y15002934D01*
X35564234Y15161684D01*
X35564234Y15320434D01*
X35722984Y15320434D01*
X35881734Y15320434D01*
X35881734Y15320434D01*
G36*
X28896734Y15637934D02*
X28896734Y15479184D01*
X28896734Y15320434D01*
X28737984Y15320434D01*
X28579234Y15320434D01*
X28579234Y15479184D01*
X28579234Y15637934D01*
X28737984Y15637934D01*
X28896734Y15637934D01*
X28896734Y15637934D01*
X28896734Y15637934D01*
G37*
X28896734Y15637934D02*
X28896734Y15479184D01*
X28896734Y15320434D01*
X28737984Y15320434D01*
X28579234Y15320434D01*
X28579234Y15479184D01*
X28579234Y15637934D01*
X28737984Y15637934D01*
X28896734Y15637934D01*
X28896734Y15637934D01*
G36*
X27626734Y15955434D02*
X27626734Y15796684D01*
X27626734Y15637934D01*
X27467984Y15637934D01*
X27309234Y15637934D01*
X27309234Y15796684D01*
X27309234Y15955434D01*
X27467984Y15955434D01*
X27626734Y15955434D01*
X27626734Y15955434D01*
X27626734Y15955434D01*
G37*
X27626734Y15955434D02*
X27626734Y15796684D01*
X27626734Y15637934D01*
X27467984Y15637934D01*
X27309234Y15637934D01*
X27309234Y15796684D01*
X27309234Y15955434D01*
X27467984Y15955434D01*
X27626734Y15955434D01*
X27626734Y15955434D01*
G36*
X35881734Y15955434D02*
X35881734Y15796684D01*
X35881734Y15637934D01*
X35722984Y15637934D01*
X35564234Y15637934D01*
X35564234Y15479184D01*
X35564234Y15320434D01*
X35246734Y15320434D01*
X34929234Y15320434D01*
X34929234Y15002934D01*
X34929234Y14685434D01*
X34770484Y14685434D01*
X34611734Y14685434D01*
X34611734Y14209184D01*
X34611734Y13732934D01*
X34929234Y13732934D01*
X35246734Y13732934D01*
X35246734Y13574184D01*
X35246734Y13415434D01*
X34294234Y13415434D01*
X33341734Y13415434D01*
X33341734Y13732934D01*
X33341734Y14050434D01*
X33024234Y14050434D01*
X32706734Y14050434D01*
X32706734Y14209184D01*
X32706734Y14367934D01*
X32547984Y14367934D01*
X32389234Y14367934D01*
X32389234Y14526684D01*
X32389234Y14685434D01*
X32706734Y14685434D01*
X33024234Y14685434D01*
X33024234Y14526684D01*
X33024234Y14367934D01*
X33182984Y14367934D01*
X33341734Y14367934D01*
X33341734Y14526684D01*
X33341734Y14685434D01*
X33500484Y14685434D01*
X33659234Y14685434D01*
X33659234Y14526684D01*
X33659234Y14367934D01*
X33817984Y14367934D01*
X33976734Y14367934D01*
X33976734Y14050434D01*
X33976734Y13732934D01*
X34135484Y13732934D01*
X34294234Y13732934D01*
X34294234Y14050434D01*
X34294234Y14367934D01*
X34135484Y14367934D01*
X33976734Y14367934D01*
X33976734Y14526684D01*
X33976734Y14685434D01*
X33817984Y14685434D01*
X33659234Y14685434D01*
X33659234Y14844184D01*
X33659234Y15002934D01*
X33817984Y15002934D01*
X33976734Y15002934D01*
X33976734Y15161684D01*
X33976734Y15320434D01*
X34135484Y15320434D01*
X34294234Y15320434D01*
X34294234Y15161684D01*
X34294234Y15002934D01*
X34452984Y15002934D01*
X34611734Y15002934D01*
X34611734Y15161684D01*
X34611734Y15320434D01*
X34452984Y15320434D01*
X34294234Y15320434D01*
X34294234Y15479184D01*
X34294234Y15637934D01*
X34611734Y15637934D01*
X34929234Y15637934D01*
X34929234Y15796684D01*
X34929234Y15955434D01*
X35405484Y15955434D01*
X35881734Y15955434D01*
X35881734Y15955434D01*
X35881734Y15955434D01*
G37*
X35881734Y15955434D02*
X35881734Y15796684D01*
X35881734Y15637934D01*
X35722984Y15637934D01*
X35564234Y15637934D01*
X35564234Y15479184D01*
X35564234Y15320434D01*
X35246734Y15320434D01*
X34929234Y15320434D01*
X34929234Y15002934D01*
X34929234Y14685434D01*
X34770484Y14685434D01*
X34611734Y14685434D01*
X34611734Y14209184D01*
X34611734Y13732934D01*
X34929234Y13732934D01*
X35246734Y13732934D01*
X35246734Y13574184D01*
X35246734Y13415434D01*
X34294234Y13415434D01*
X33341734Y13415434D01*
X33341734Y13732934D01*
X33341734Y14050434D01*
X33024234Y14050434D01*
X32706734Y14050434D01*
X32706734Y14209184D01*
X32706734Y14367934D01*
X32547984Y14367934D01*
X32389234Y14367934D01*
X32389234Y14526684D01*
X32389234Y14685434D01*
X32706734Y14685434D01*
X33024234Y14685434D01*
X33024234Y14526684D01*
X33024234Y14367934D01*
X33182984Y14367934D01*
X33341734Y14367934D01*
X33341734Y14526684D01*
X33341734Y14685434D01*
X33500484Y14685434D01*
X33659234Y14685434D01*
X33659234Y14526684D01*
X33659234Y14367934D01*
X33817984Y14367934D01*
X33976734Y14367934D01*
X33976734Y14050434D01*
X33976734Y13732934D01*
X34135484Y13732934D01*
X34294234Y13732934D01*
X34294234Y14050434D01*
X34294234Y14367934D01*
X34135484Y14367934D01*
X33976734Y14367934D01*
X33976734Y14526684D01*
X33976734Y14685434D01*
X33817984Y14685434D01*
X33659234Y14685434D01*
X33659234Y14844184D01*
X33659234Y15002934D01*
X33817984Y15002934D01*
X33976734Y15002934D01*
X33976734Y15161684D01*
X33976734Y15320434D01*
X34135484Y15320434D01*
X34294234Y15320434D01*
X34294234Y15161684D01*
X34294234Y15002934D01*
X34452984Y15002934D01*
X34611734Y15002934D01*
X34611734Y15161684D01*
X34611734Y15320434D01*
X34452984Y15320434D01*
X34294234Y15320434D01*
X34294234Y15479184D01*
X34294234Y15637934D01*
X34611734Y15637934D01*
X34929234Y15637934D01*
X34929234Y15796684D01*
X34929234Y15955434D01*
X35405484Y15955434D01*
X35881734Y15955434D01*
X35881734Y15955434D01*
G36*
X36516734Y16590434D02*
X36516734Y16272934D01*
X36516734Y15955434D01*
X36199234Y15955434D01*
X35881734Y15955434D01*
X35881734Y16272934D01*
X35881734Y16590434D01*
X36199234Y16590434D01*
X36516734Y16590434D01*
X36516734Y16590434D01*
X36516734Y16590434D01*
G37*
X36516734Y16590434D02*
X36516734Y16272934D01*
X36516734Y15955434D01*
X36199234Y15955434D01*
X35881734Y15955434D01*
X35881734Y16272934D01*
X35881734Y16590434D01*
X36199234Y16590434D01*
X36516734Y16590434D01*
X36516734Y16590434D01*
G36*
X35881734Y16907934D02*
X35881734Y16749184D01*
X35881734Y16590434D01*
X35722984Y16590434D01*
X35564234Y16590434D01*
X35564234Y16749184D01*
X35564234Y16907934D01*
X35722984Y16907934D01*
X35881734Y16907934D01*
X35881734Y16907934D01*
X35881734Y16907934D01*
G37*
X35881734Y16907934D02*
X35881734Y16749184D01*
X35881734Y16590434D01*
X35722984Y16590434D01*
X35564234Y16590434D01*
X35564234Y16749184D01*
X35564234Y16907934D01*
X35722984Y16907934D01*
X35881734Y16907934D01*
X35881734Y16907934D01*
G36*
X32071734Y18177934D02*
X32071734Y18019184D01*
X32071734Y17860434D01*
X31912984Y17860434D01*
X31754234Y17860434D01*
X31754234Y17384184D01*
X31754234Y16907934D01*
X31595484Y16907934D01*
X31436734Y16907934D01*
X31436734Y17225434D01*
X31436734Y17542934D01*
X31119234Y17542934D01*
X30801734Y17542934D01*
X30801734Y17384184D01*
X30801734Y17225434D01*
X30325484Y17225434D01*
X29849234Y17225434D01*
X29849234Y16590434D01*
X29849234Y15955434D01*
X29531734Y15955434D01*
X29214234Y15955434D01*
X29214234Y15796684D01*
X29214234Y15637934D01*
X29055484Y15637934D01*
X28896734Y15637934D01*
X28896734Y16114184D01*
X28896734Y16590434D01*
X29055484Y16590434D01*
X29214234Y16590434D01*
X29214234Y16431684D01*
X29214234Y16272934D01*
X29372984Y16272934D01*
X29531734Y16272934D01*
X29531734Y16431684D01*
X29531734Y16590434D01*
X29372984Y16590434D01*
X29214234Y16590434D01*
X29214234Y16749184D01*
X29214234Y16907934D01*
X29372984Y16907934D01*
X29531734Y16907934D01*
X29531734Y17066684D01*
X29531734Y17225434D01*
X29372984Y17225434D01*
X29214234Y17225434D01*
X29214234Y17066684D01*
X29214234Y16907934D01*
X29055484Y16907934D01*
X28896734Y16907934D01*
X28896734Y16749184D01*
X28896734Y16590434D01*
X28579234Y16590434D01*
X28261734Y16590434D01*
X28261734Y16749184D01*
X28261734Y16907934D01*
X28102984Y16907934D01*
X27944234Y16907934D01*
X27944234Y16590434D01*
X27944234Y16272934D01*
X28102984Y16272934D01*
X28261734Y16272934D01*
X28261734Y15955434D01*
X28261734Y15637934D01*
X28102984Y15637934D01*
X27944234Y15637934D01*
X27944234Y15796684D01*
X27944234Y15955434D01*
X27785484Y15955434D01*
X27626734Y15955434D01*
X27626734Y16114184D01*
X27626734Y16272934D01*
X27467984Y16272934D01*
X27309234Y16272934D01*
X27309234Y16749184D01*
X27309234Y17225434D01*
X27626734Y17225434D01*
X27944234Y17225434D01*
X27944234Y17384184D01*
X27944234Y17542934D01*
X28261734Y17542934D01*
X28579234Y17542934D01*
X28579234Y17384184D01*
X28579234Y17225434D01*
X28737984Y17225434D01*
X28896734Y17225434D01*
X28896734Y17384184D01*
X28896734Y17542934D01*
X29372984Y17542934D01*
X29849234Y17542934D01*
X29849234Y17860434D01*
X29849234Y18177934D01*
X30166734Y18177934D01*
X30484234Y18177934D01*
X30484234Y18019184D01*
X30484234Y17860434D01*
X30801734Y17860434D01*
X31119234Y17860434D01*
X31119234Y18019184D01*
X31119234Y18177934D01*
X31595484Y18177934D01*
X32071734Y18177934D01*
X32071734Y18177934D01*
X32071734Y18177934D01*
G37*
X32071734Y18177934D02*
X32071734Y18019184D01*
X32071734Y17860434D01*
X31912984Y17860434D01*
X31754234Y17860434D01*
X31754234Y17384184D01*
X31754234Y16907934D01*
X31595484Y16907934D01*
X31436734Y16907934D01*
X31436734Y17225434D01*
X31436734Y17542934D01*
X31119234Y17542934D01*
X30801734Y17542934D01*
X30801734Y17384184D01*
X30801734Y17225434D01*
X30325484Y17225434D01*
X29849234Y17225434D01*
X29849234Y16590434D01*
X29849234Y15955434D01*
X29531734Y15955434D01*
X29214234Y15955434D01*
X29214234Y15796684D01*
X29214234Y15637934D01*
X29055484Y15637934D01*
X28896734Y15637934D01*
X28896734Y16114184D01*
X28896734Y16590434D01*
X29055484Y16590434D01*
X29214234Y16590434D01*
X29214234Y16431684D01*
X29214234Y16272934D01*
X29372984Y16272934D01*
X29531734Y16272934D01*
X29531734Y16431684D01*
X29531734Y16590434D01*
X29372984Y16590434D01*
X29214234Y16590434D01*
X29214234Y16749184D01*
X29214234Y16907934D01*
X29372984Y16907934D01*
X29531734Y16907934D01*
X29531734Y17066684D01*
X29531734Y17225434D01*
X29372984Y17225434D01*
X29214234Y17225434D01*
X29214234Y17066684D01*
X29214234Y16907934D01*
X29055484Y16907934D01*
X28896734Y16907934D01*
X28896734Y16749184D01*
X28896734Y16590434D01*
X28579234Y16590434D01*
X28261734Y16590434D01*
X28261734Y16749184D01*
X28261734Y16907934D01*
X28102984Y16907934D01*
X27944234Y16907934D01*
X27944234Y16590434D01*
X27944234Y16272934D01*
X28102984Y16272934D01*
X28261734Y16272934D01*
X28261734Y15955434D01*
X28261734Y15637934D01*
X28102984Y15637934D01*
X27944234Y15637934D01*
X27944234Y15796684D01*
X27944234Y15955434D01*
X27785484Y15955434D01*
X27626734Y15955434D01*
X27626734Y16114184D01*
X27626734Y16272934D01*
X27467984Y16272934D01*
X27309234Y16272934D01*
X27309234Y16749184D01*
X27309234Y17225434D01*
X27626734Y17225434D01*
X27944234Y17225434D01*
X27944234Y17384184D01*
X27944234Y17542934D01*
X28261734Y17542934D01*
X28579234Y17542934D01*
X28579234Y17384184D01*
X28579234Y17225434D01*
X28737984Y17225434D01*
X28896734Y17225434D01*
X28896734Y17384184D01*
X28896734Y17542934D01*
X29372984Y17542934D01*
X29849234Y17542934D01*
X29849234Y17860434D01*
X29849234Y18177934D01*
X30166734Y18177934D01*
X30484234Y18177934D01*
X30484234Y18019184D01*
X30484234Y17860434D01*
X30801734Y17860434D01*
X31119234Y17860434D01*
X31119234Y18019184D01*
X31119234Y18177934D01*
X31595484Y18177934D01*
X32071734Y18177934D01*
X32071734Y18177934D01*
G36*
X36199234Y18177934D02*
X36199234Y18019184D01*
X36199234Y17860434D01*
X36040484Y17860434D01*
X35881734Y17860434D01*
X35881734Y18019184D01*
X35881734Y18177934D01*
X36040484Y18177934D01*
X36199234Y18177934D01*
X36199234Y18177934D01*
X36199234Y18177934D01*
G37*
X36199234Y18177934D02*
X36199234Y18019184D01*
X36199234Y17860434D01*
X36040484Y17860434D01*
X35881734Y17860434D01*
X35881734Y18019184D01*
X35881734Y18177934D01*
X36040484Y18177934D01*
X36199234Y18177934D01*
X36199234Y18177934D01*
G36*
X30484234Y19130434D02*
X30484234Y18971684D01*
X30484234Y18812934D01*
X30325484Y18812934D01*
X30166734Y18812934D01*
X30166734Y18971684D01*
X30166734Y19130434D01*
X30325484Y19130434D01*
X30484234Y19130434D01*
X30484234Y19130434D01*
X30484234Y19130434D01*
G37*
X30484234Y19130434D02*
X30484234Y18971684D01*
X30484234Y18812934D01*
X30325484Y18812934D01*
X30166734Y18812934D01*
X30166734Y18971684D01*
X30166734Y19130434D01*
X30325484Y19130434D01*
X30484234Y19130434D01*
X30484234Y19130434D01*
G36*
X33659234Y19130434D02*
X33659234Y18971684D01*
X33659234Y18812934D01*
X33341734Y18812934D01*
X33024234Y18812934D01*
X33024234Y18971684D01*
X33024234Y19130434D01*
X33341734Y19130434D01*
X33659234Y19130434D01*
X33659234Y19130434D01*
X33659234Y19130434D01*
G37*
X33659234Y19130434D02*
X33659234Y18971684D01*
X33659234Y18812934D01*
X33341734Y18812934D01*
X33024234Y18812934D01*
X33024234Y18971684D01*
X33024234Y19130434D01*
X33341734Y19130434D01*
X33659234Y19130434D01*
X33659234Y19130434D01*
G36*
X36516734Y19130434D02*
X36516734Y18654184D01*
X36516734Y18177934D01*
X36357984Y18177934D01*
X36199234Y18177934D01*
X36199234Y18336684D01*
X36199234Y18495434D01*
X36040484Y18495434D01*
X35881734Y18495434D01*
X35881734Y18336684D01*
X35881734Y18177934D01*
X35722984Y18177934D01*
X35564234Y18177934D01*
X35564234Y18336684D01*
X35564234Y18495434D01*
X35405484Y18495434D01*
X35246734Y18495434D01*
X34929234Y18495434D01*
X34452984Y18495434D01*
X33976734Y18495434D01*
X33976734Y18019184D01*
X33976734Y17542934D01*
X34452984Y17542934D01*
X34929234Y17542934D01*
X34929234Y18019184D01*
X34929234Y18495434D01*
X35246734Y18495434D01*
X35246734Y18177934D01*
X35246734Y17860434D01*
X35405484Y17860434D01*
X35564234Y17860434D01*
X35564234Y17701684D01*
X35564234Y17542934D01*
X36040484Y17542934D01*
X36516734Y17542934D01*
X36516734Y17225434D01*
X36516734Y16907934D01*
X36199234Y16907934D01*
X35881734Y16907934D01*
X35881734Y17066684D01*
X35881734Y17225434D01*
X35246734Y17225434D01*
X34611734Y17225434D01*
X34611734Y17066684D01*
X34611734Y16907934D01*
X34929234Y16907934D01*
X35246734Y16907934D01*
X35246734Y16749184D01*
X35246734Y16590434D01*
X35405484Y16590434D01*
X35564234Y16590434D01*
X35564234Y16431684D01*
X35564234Y16272934D01*
X35087984Y16272934D01*
X34611734Y16272934D01*
X34611734Y16114184D01*
X34611734Y15955434D01*
X34452984Y15955434D01*
X34294234Y15955434D01*
X34294234Y16590434D01*
X34294234Y17225434D01*
X34135484Y17225434D01*
X33976734Y17225434D01*
X33976734Y17066684D01*
X33976734Y16907934D01*
X33817984Y16907934D01*
X33659234Y16907934D01*
X33659234Y17225434D01*
X33659234Y17542934D01*
X33500484Y17542934D01*
X33341734Y17542934D01*
X33341734Y17701684D01*
X33341734Y17860434D01*
X33182984Y17860434D01*
X33024234Y17860434D01*
X33024234Y17701684D01*
X33024234Y17542934D01*
X32865484Y17542934D01*
X32706734Y17542934D01*
X32706734Y17225434D01*
X32706734Y16907934D01*
X32547984Y16907934D01*
X32389234Y16907934D01*
X32389234Y17066684D01*
X32389234Y17225434D01*
X32230484Y17225434D01*
X32071734Y17225434D01*
X32071734Y17384184D01*
X32071734Y17542934D01*
X32230484Y17542934D01*
X32389234Y17542934D01*
X32389234Y17860434D01*
X32389234Y18177934D01*
X32547984Y18177934D01*
X32706734Y18177934D01*
X32706734Y18336684D01*
X32706734Y18495434D01*
X33024234Y18495434D01*
X33341734Y18495434D01*
X33341734Y18336684D01*
X33341734Y18177934D01*
X33500484Y18177934D01*
X33659234Y18177934D01*
X33659234Y18495434D01*
X33659234Y18812934D01*
X33976734Y18812934D01*
X34294234Y18812934D01*
X34294234Y18971684D01*
X34294234Y19130434D01*
X34452984Y19130434D01*
X34611734Y19130434D01*
X34611734Y18971684D01*
X34611734Y18812934D01*
X34770484Y18812934D01*
X34929234Y18812934D01*
X34929234Y18971684D01*
X34929234Y19130434D01*
X35087984Y19130434D01*
X35246734Y19130434D01*
X35246734Y18971684D01*
X35246734Y18812934D01*
X35405484Y18812934D01*
X35564234Y18812934D01*
X35564234Y18971684D01*
X35564234Y19130434D01*
X35722984Y19130434D01*
X35881734Y19130434D01*
X35881734Y18971684D01*
X35881734Y18812934D01*
X36040484Y18812934D01*
X36199234Y18812934D01*
X36199234Y18971684D01*
X36199234Y19130434D01*
X36357984Y19130434D01*
X36516734Y19130434D01*
X36516734Y19130434D01*
X36516734Y19130434D01*
G37*
X36516734Y19130434D02*
X36516734Y18654184D01*
X36516734Y18177934D01*
X36357984Y18177934D01*
X36199234Y18177934D01*
X36199234Y18336684D01*
X36199234Y18495434D01*
X36040484Y18495434D01*
X35881734Y18495434D01*
X35881734Y18336684D01*
X35881734Y18177934D01*
X35722984Y18177934D01*
X35564234Y18177934D01*
X35564234Y18336684D01*
X35564234Y18495434D01*
X35405484Y18495434D01*
X35246734Y18495434D01*
X34929234Y18495434D01*
X34452984Y18495434D01*
X33976734Y18495434D01*
X33976734Y18019184D01*
X33976734Y17542934D01*
X34452984Y17542934D01*
X34929234Y17542934D01*
X34929234Y18019184D01*
X34929234Y18495434D01*
X35246734Y18495434D01*
X35246734Y18177934D01*
X35246734Y17860434D01*
X35405484Y17860434D01*
X35564234Y17860434D01*
X35564234Y17701684D01*
X35564234Y17542934D01*
X36040484Y17542934D01*
X36516734Y17542934D01*
X36516734Y17225434D01*
X36516734Y16907934D01*
X36199234Y16907934D01*
X35881734Y16907934D01*
X35881734Y17066684D01*
X35881734Y17225434D01*
X35246734Y17225434D01*
X34611734Y17225434D01*
X34611734Y17066684D01*
X34611734Y16907934D01*
X34929234Y16907934D01*
X35246734Y16907934D01*
X35246734Y16749184D01*
X35246734Y16590434D01*
X35405484Y16590434D01*
X35564234Y16590434D01*
X35564234Y16431684D01*
X35564234Y16272934D01*
X35087984Y16272934D01*
X34611734Y16272934D01*
X34611734Y16114184D01*
X34611734Y15955434D01*
X34452984Y15955434D01*
X34294234Y15955434D01*
X34294234Y16590434D01*
X34294234Y17225434D01*
X34135484Y17225434D01*
X33976734Y17225434D01*
X33976734Y17066684D01*
X33976734Y16907934D01*
X33817984Y16907934D01*
X33659234Y16907934D01*
X33659234Y17225434D01*
X33659234Y17542934D01*
X33500484Y17542934D01*
X33341734Y17542934D01*
X33341734Y17701684D01*
X33341734Y17860434D01*
X33182984Y17860434D01*
X33024234Y17860434D01*
X33024234Y17701684D01*
X33024234Y17542934D01*
X32865484Y17542934D01*
X32706734Y17542934D01*
X32706734Y17225434D01*
X32706734Y16907934D01*
X32547984Y16907934D01*
X32389234Y16907934D01*
X32389234Y17066684D01*
X32389234Y17225434D01*
X32230484Y17225434D01*
X32071734Y17225434D01*
X32071734Y17384184D01*
X32071734Y17542934D01*
X32230484Y17542934D01*
X32389234Y17542934D01*
X32389234Y17860434D01*
X32389234Y18177934D01*
X32547984Y18177934D01*
X32706734Y18177934D01*
X32706734Y18336684D01*
X32706734Y18495434D01*
X33024234Y18495434D01*
X33341734Y18495434D01*
X33341734Y18336684D01*
X33341734Y18177934D01*
X33500484Y18177934D01*
X33659234Y18177934D01*
X33659234Y18495434D01*
X33659234Y18812934D01*
X33976734Y18812934D01*
X34294234Y18812934D01*
X34294234Y18971684D01*
X34294234Y19130434D01*
X34452984Y19130434D01*
X34611734Y19130434D01*
X34611734Y18971684D01*
X34611734Y18812934D01*
X34770484Y18812934D01*
X34929234Y18812934D01*
X34929234Y18971684D01*
X34929234Y19130434D01*
X35087984Y19130434D01*
X35246734Y19130434D01*
X35246734Y18971684D01*
X35246734Y18812934D01*
X35405484Y18812934D01*
X35564234Y18812934D01*
X35564234Y18971684D01*
X35564234Y19130434D01*
X35722984Y19130434D01*
X35881734Y19130434D01*
X35881734Y18971684D01*
X35881734Y18812934D01*
X36040484Y18812934D01*
X36199234Y18812934D01*
X36199234Y18971684D01*
X36199234Y19130434D01*
X36357984Y19130434D01*
X36516734Y19130434D01*
X36516734Y19130434D01*
G36*
X30166734Y19447934D02*
X30166734Y19289184D01*
X30166734Y19130434D01*
X30007984Y19130434D01*
X29849234Y19130434D01*
X29849234Y19289184D01*
X29849234Y19447934D01*
X30007984Y19447934D01*
X30166734Y19447934D01*
X30166734Y19447934D01*
X30166734Y19447934D01*
G37*
X30166734Y19447934D02*
X30166734Y19289184D01*
X30166734Y19130434D01*
X30007984Y19130434D01*
X29849234Y19130434D01*
X29849234Y19289184D01*
X29849234Y19447934D01*
X30007984Y19447934D01*
X30166734Y19447934D01*
X30166734Y19447934D01*
G36*
X31754234Y19447934D02*
X31754234Y19130434D01*
X31754234Y18812934D01*
X31436734Y18812934D01*
X31119234Y18812934D01*
X31119234Y18654184D01*
X31119234Y18495434D01*
X30960484Y18495434D01*
X30801734Y18495434D01*
X30801734Y18336684D01*
X30801734Y18177934D01*
X30642984Y18177934D01*
X30484234Y18177934D01*
X30484234Y18495434D01*
X30484234Y18812934D01*
X30642984Y18812934D01*
X30801734Y18812934D01*
X30801734Y18971684D01*
X30801734Y19130434D01*
X31119234Y19130434D01*
X31436734Y19130434D01*
X31436734Y19289184D01*
X31436734Y19447934D01*
X31595484Y19447934D01*
X31754234Y19447934D01*
X31754234Y19447934D01*
X31754234Y19447934D01*
G37*
X31754234Y19447934D02*
X31754234Y19130434D01*
X31754234Y18812934D01*
X31436734Y18812934D01*
X31119234Y18812934D01*
X31119234Y18654184D01*
X31119234Y18495434D01*
X30960484Y18495434D01*
X30801734Y18495434D01*
X30801734Y18336684D01*
X30801734Y18177934D01*
X30642984Y18177934D01*
X30484234Y18177934D01*
X30484234Y18495434D01*
X30484234Y18812934D01*
X30642984Y18812934D01*
X30801734Y18812934D01*
X30801734Y18971684D01*
X30801734Y19130434D01*
X31119234Y19130434D01*
X31436734Y19130434D01*
X31436734Y19289184D01*
X31436734Y19447934D01*
X31595484Y19447934D01*
X31754234Y19447934D01*
X31754234Y19447934D01*
G36*
X33024234Y19447934D02*
X33024234Y19289184D01*
X33024234Y19130434D01*
X32865484Y19130434D01*
X32706734Y19130434D01*
X32706734Y19289184D01*
X32706734Y19447934D01*
X32865484Y19447934D01*
X33024234Y19447934D01*
X33024234Y19447934D01*
X33024234Y19447934D01*
G37*
X33024234Y19447934D02*
X33024234Y19289184D01*
X33024234Y19130434D01*
X32865484Y19130434D01*
X32706734Y19130434D01*
X32706734Y19289184D01*
X32706734Y19447934D01*
X32865484Y19447934D01*
X33024234Y19447934D01*
X33024234Y19447934D01*
G36*
X33341734Y20082934D02*
X33341734Y19924184D01*
X33341734Y19765434D01*
X33500484Y19765434D01*
X33659234Y19765434D01*
X33659234Y19606684D01*
X33659234Y19447934D01*
X33341734Y19447934D01*
X33024234Y19447934D01*
X33024234Y19606684D01*
X33024234Y19765434D01*
X32865484Y19765434D01*
X32706734Y19765434D01*
X32706734Y19606684D01*
X32706734Y19447934D01*
X32230484Y19447934D01*
X31754234Y19447934D01*
X31754234Y19606684D01*
X31754234Y19765434D01*
X31595484Y19765434D01*
X31436734Y19765434D01*
X31436734Y19606684D01*
X31436734Y19447934D01*
X31119234Y19447934D01*
X30801734Y19447934D01*
X30801734Y19289184D01*
X30801734Y19130434D01*
X30642984Y19130434D01*
X30484234Y19130434D01*
X30484234Y19447934D01*
X30484234Y19765434D01*
X30325484Y19765434D01*
X30166734Y19765434D01*
X30166734Y19924184D01*
X30166734Y20082934D01*
X30484234Y20082934D01*
X30801734Y20082934D01*
X30801734Y19924184D01*
X30801734Y19765434D01*
X30960484Y19765434D01*
X31119234Y19765434D01*
X31119234Y19924184D01*
X31119234Y20082934D01*
X31595484Y20082934D01*
X32071734Y20082934D01*
X32071734Y19924184D01*
X32071734Y19765434D01*
X32230484Y19765434D01*
X32389234Y19765434D01*
X32389234Y19924184D01*
X32389234Y20082934D01*
X32865484Y20082934D01*
X33341734Y20082934D01*
X33341734Y20082934D01*
X33341734Y20082934D01*
G37*
X33341734Y20082934D02*
X33341734Y19924184D01*
X33341734Y19765434D01*
X33500484Y19765434D01*
X33659234Y19765434D01*
X33659234Y19606684D01*
X33659234Y19447934D01*
X33341734Y19447934D01*
X33024234Y19447934D01*
X33024234Y19606684D01*
X33024234Y19765434D01*
X32865484Y19765434D01*
X32706734Y19765434D01*
X32706734Y19606684D01*
X32706734Y19447934D01*
X32230484Y19447934D01*
X31754234Y19447934D01*
X31754234Y19606684D01*
X31754234Y19765434D01*
X31595484Y19765434D01*
X31436734Y19765434D01*
X31436734Y19606684D01*
X31436734Y19447934D01*
X31119234Y19447934D01*
X30801734Y19447934D01*
X30801734Y19289184D01*
X30801734Y19130434D01*
X30642984Y19130434D01*
X30484234Y19130434D01*
X30484234Y19447934D01*
X30484234Y19765434D01*
X30325484Y19765434D01*
X30166734Y19765434D01*
X30166734Y19924184D01*
X30166734Y20082934D01*
X30484234Y20082934D01*
X30801734Y20082934D01*
X30801734Y19924184D01*
X30801734Y19765434D01*
X30960484Y19765434D01*
X31119234Y19765434D01*
X31119234Y19924184D01*
X31119234Y20082934D01*
X31595484Y20082934D01*
X32071734Y20082934D01*
X32071734Y19924184D01*
X32071734Y19765434D01*
X32230484Y19765434D01*
X32389234Y19765434D01*
X32389234Y19924184D01*
X32389234Y20082934D01*
X32865484Y20082934D01*
X33341734Y20082934D01*
X33341734Y20082934D01*
G36*
X34611734Y20082934D02*
X34611734Y19924184D01*
X34611734Y19765434D01*
X34929234Y19765434D01*
X35246734Y19765434D01*
X35246734Y19606684D01*
X35246734Y19447934D01*
X34770484Y19447934D01*
X34294234Y19447934D01*
X34294234Y19289184D01*
X34294234Y19130434D01*
X34135484Y19130434D01*
X33976734Y19130434D01*
X33976734Y19606684D01*
X33976734Y20082934D01*
X34294234Y20082934D01*
X34611734Y20082934D01*
X34611734Y20082934D01*
X34611734Y20082934D01*
G37*
X34611734Y20082934D02*
X34611734Y19924184D01*
X34611734Y19765434D01*
X34929234Y19765434D01*
X35246734Y19765434D01*
X35246734Y19606684D01*
X35246734Y19447934D01*
X34770484Y19447934D01*
X34294234Y19447934D01*
X34294234Y19289184D01*
X34294234Y19130434D01*
X34135484Y19130434D01*
X33976734Y19130434D01*
X33976734Y19606684D01*
X33976734Y20082934D01*
X34294234Y20082934D01*
X34611734Y20082934D01*
X34611734Y20082934D01*
G36*
X35881734Y20082934D02*
X35881734Y19924184D01*
X35881734Y19765434D01*
X35722984Y19765434D01*
X35564234Y19765434D01*
X35564234Y19924184D01*
X35564234Y20082934D01*
X35722984Y20082934D01*
X35881734Y20082934D01*
X35881734Y20082934D01*
X35881734Y20082934D01*
G37*
X35881734Y20082934D02*
X35881734Y19924184D01*
X35881734Y19765434D01*
X35722984Y19765434D01*
X35564234Y19765434D01*
X35564234Y19924184D01*
X35564234Y20082934D01*
X35722984Y20082934D01*
X35881734Y20082934D01*
X35881734Y20082934D01*
G36*
X36516734Y20082934D02*
X36516734Y19765434D01*
X36516734Y19447934D01*
X36199234Y19447934D01*
X35881734Y19447934D01*
X35881734Y19606684D01*
X35881734Y19765434D01*
X36040484Y19765434D01*
X36199234Y19765434D01*
X36199234Y19924184D01*
X36199234Y20082934D01*
X36357984Y20082934D01*
X36516734Y20082934D01*
X36516734Y20082934D01*
X36516734Y20082934D01*
G37*
X36516734Y20082934D02*
X36516734Y19765434D01*
X36516734Y19447934D01*
X36199234Y19447934D01*
X35881734Y19447934D01*
X35881734Y19606684D01*
X35881734Y19765434D01*
X36040484Y19765434D01*
X36199234Y19765434D01*
X36199234Y19924184D01*
X36199234Y20082934D01*
X36357984Y20082934D01*
X36516734Y20082934D01*
X36516734Y20082934D01*
G36*
X33976734Y12145434D02*
X33976734Y11986684D01*
X33976734Y11827934D01*
X33817984Y11827934D01*
X33659234Y11827934D01*
X33659234Y11986684D01*
X33659234Y12145434D01*
X33817984Y12145434D01*
X33976734Y12145434D01*
X33976734Y12145434D01*
X33976734Y12145434D01*
G37*
X33976734Y12145434D02*
X33976734Y11986684D01*
X33976734Y11827934D01*
X33817984Y11827934D01*
X33659234Y11827934D01*
X33659234Y11986684D01*
X33659234Y12145434D01*
X33817984Y12145434D01*
X33976734Y12145434D01*
X33976734Y12145434D01*
G36*
X29531734Y13097934D02*
X29531734Y12780434D01*
X29214234Y12780434D01*
X28420484Y12780434D01*
X27626734Y12780434D01*
X27626734Y11986684D01*
X27626734Y11192934D01*
X28420484Y11192934D01*
X29214234Y11192934D01*
X29214234Y11986684D01*
X29214234Y12780434D01*
X29531734Y12780434D01*
X29531734Y11986684D01*
X29531734Y10875434D01*
X28420484Y10875434D01*
X27309234Y10875434D01*
X27309234Y11986684D01*
X27309234Y13097934D01*
X28420484Y13097934D01*
X29531734Y13097934D01*
X29531734Y13097934D01*
X29531734Y13097934D01*
G37*
X29531734Y13097934D02*
X29531734Y12780434D01*
X29214234Y12780434D01*
X28420484Y12780434D01*
X27626734Y12780434D01*
X27626734Y11986684D01*
X27626734Y11192934D01*
X28420484Y11192934D01*
X29214234Y11192934D01*
X29214234Y11986684D01*
X29214234Y12780434D01*
X29531734Y12780434D01*
X29531734Y11986684D01*
X29531734Y10875434D01*
X28420484Y10875434D01*
X27309234Y10875434D01*
X27309234Y11986684D01*
X27309234Y13097934D01*
X28420484Y13097934D01*
X29531734Y13097934D01*
X29531734Y13097934D01*
G36*
X29531734Y20082934D02*
X29531734Y19765434D01*
X29214234Y19765434D01*
X28420484Y19765434D01*
X27626734Y19765434D01*
X27626734Y18971684D01*
X27626734Y18177934D01*
X28420484Y18177934D01*
X29214234Y18177934D01*
X29214234Y18971684D01*
X29214234Y19765434D01*
X29531734Y19765434D01*
X29531734Y18971684D01*
X29531734Y17860434D01*
X28420484Y17860434D01*
X27309234Y17860434D01*
X27309234Y18971684D01*
X27309234Y20082934D01*
X28420484Y20082934D01*
X29531734Y20082934D01*
X29531734Y20082934D01*
X29531734Y20082934D01*
G37*
X29531734Y20082934D02*
X29531734Y19765434D01*
X29214234Y19765434D01*
X28420484Y19765434D01*
X27626734Y19765434D01*
X27626734Y18971684D01*
X27626734Y18177934D01*
X28420484Y18177934D01*
X29214234Y18177934D01*
X29214234Y18971684D01*
X29214234Y19765434D01*
X29531734Y19765434D01*
X29531734Y18971684D01*
X29531734Y17860434D01*
X28420484Y17860434D01*
X27309234Y17860434D01*
X27309234Y18971684D01*
X27309234Y20082934D01*
X28420484Y20082934D01*
X29531734Y20082934D01*
X29531734Y20082934D01*
G36*
X35881734Y12462934D02*
X35881734Y11986684D01*
X35881734Y11510434D01*
X35405484Y11510434D01*
X34929234Y11510434D01*
X34929234Y11986684D01*
X34929234Y12462934D01*
X35405484Y12462934D01*
X35881734Y12462934D01*
X35881734Y12462934D01*
X35881734Y12462934D01*
G37*
X35881734Y12462934D02*
X35881734Y11986684D01*
X35881734Y11510434D01*
X35405484Y11510434D01*
X34929234Y11510434D01*
X34929234Y11986684D01*
X34929234Y12462934D01*
X35405484Y12462934D01*
X35881734Y12462934D01*
X35881734Y12462934D01*
G36*
X33976734Y15955434D02*
X33976734Y15796684D01*
X33976734Y15637934D01*
X33817984Y15637934D01*
X33659234Y15637934D01*
X33659234Y15796684D01*
X33659234Y15955434D01*
X33817984Y15955434D01*
X33976734Y15955434D01*
X33976734Y15955434D01*
X33976734Y15955434D01*
G37*
X33976734Y15955434D02*
X33976734Y15796684D01*
X33976734Y15637934D01*
X33817984Y15637934D01*
X33659234Y15637934D01*
X33659234Y15796684D01*
X33659234Y15955434D01*
X33817984Y15955434D01*
X33976734Y15955434D01*
X33976734Y15955434D01*
G36*
X31119234Y14685434D02*
X31119234Y14526684D01*
X31119234Y14367934D01*
X30960484Y14367934D01*
X30801734Y14367934D01*
X30801734Y14526684D01*
X30801734Y14685434D01*
X30960484Y14685434D01*
X31119234Y14685434D01*
X31119234Y14685434D01*
X31119234Y14685434D01*
G37*
X31119234Y14685434D02*
X31119234Y14526684D01*
X31119234Y14367934D01*
X30960484Y14367934D01*
X30801734Y14367934D01*
X30801734Y14526684D01*
X30801734Y14685434D01*
X30960484Y14685434D01*
X31119234Y14685434D01*
X31119234Y14685434D01*
G36*
X29214234Y15320434D02*
X29214234Y15161684D01*
X29214234Y15002934D01*
X29055484Y15002934D01*
X28896734Y15002934D01*
X28896734Y15161684D01*
X28896734Y15320434D01*
X29055484Y15320434D01*
X29214234Y15320434D01*
X29214234Y15320434D01*
X29214234Y15320434D01*
G37*
X29214234Y15320434D02*
X29214234Y15161684D01*
X29214234Y15002934D01*
X29055484Y15002934D01*
X28896734Y15002934D01*
X28896734Y15161684D01*
X28896734Y15320434D01*
X29055484Y15320434D01*
X29214234Y15320434D01*
X29214234Y15320434D01*
G36*
X29849234Y15320434D02*
X29849234Y15002934D01*
X29849234Y14685434D01*
X29531734Y14685434D01*
X29214234Y14685434D01*
X29214234Y14844184D01*
X29214234Y15002934D01*
X29372984Y15002934D01*
X29531734Y15002934D01*
X29531734Y15161684D01*
X29531734Y15320434D01*
X29690484Y15320434D01*
X29849234Y15320434D01*
X29849234Y15320434D01*
X29849234Y15320434D01*
G37*
X29849234Y15320434D02*
X29849234Y15002934D01*
X29849234Y14685434D01*
X29531734Y14685434D01*
X29214234Y14685434D01*
X29214234Y14844184D01*
X29214234Y15002934D01*
X29372984Y15002934D01*
X29531734Y15002934D01*
X29531734Y15161684D01*
X29531734Y15320434D01*
X29690484Y15320434D01*
X29849234Y15320434D01*
X29849234Y15320434D01*
G36*
X33341734Y15320434D02*
X33341734Y15161684D01*
X33341734Y15002934D01*
X33182984Y15002934D01*
X33024234Y15002934D01*
X33024234Y15161684D01*
X33024234Y15320434D01*
X33182984Y15320434D01*
X33341734Y15320434D01*
X33341734Y15320434D01*
X33341734Y15320434D01*
G37*
X33341734Y15320434D02*
X33341734Y15161684D01*
X33341734Y15002934D01*
X33182984Y15002934D01*
X33024234Y15002934D01*
X33024234Y15161684D01*
X33024234Y15320434D01*
X33182984Y15320434D01*
X33341734Y15320434D01*
X33341734Y15320434D01*
G36*
X29531734Y15637934D02*
X29531734Y15479184D01*
X29531734Y15320434D01*
X29372984Y15320434D01*
X29214234Y15320434D01*
X29214234Y15479184D01*
X29214234Y15637934D01*
X29372984Y15637934D01*
X29531734Y15637934D01*
X29531734Y15637934D01*
X29531734Y15637934D01*
G37*
X29531734Y15637934D02*
X29531734Y15479184D01*
X29531734Y15320434D01*
X29372984Y15320434D01*
X29214234Y15320434D01*
X29214234Y15479184D01*
X29214234Y15637934D01*
X29372984Y15637934D01*
X29531734Y15637934D01*
X29531734Y15637934D01*
G36*
X30166734Y15637934D02*
X30166734Y15479184D01*
X30166734Y15320434D01*
X30007984Y15320434D01*
X29849234Y15320434D01*
X29849234Y15479184D01*
X29849234Y15637934D01*
X30007984Y15637934D01*
X30166734Y15637934D01*
X30166734Y15637934D01*
X30166734Y15637934D01*
G37*
X30166734Y15637934D02*
X30166734Y15479184D01*
X30166734Y15320434D01*
X30007984Y15320434D01*
X29849234Y15320434D01*
X29849234Y15479184D01*
X29849234Y15637934D01*
X30007984Y15637934D01*
X30166734Y15637934D01*
X30166734Y15637934D01*
G36*
X32389234Y15955434D02*
X32389234Y15796684D01*
X32389234Y15637934D01*
X32706734Y15637934D01*
X33024234Y15637934D01*
X33024234Y15479184D01*
X33024234Y15320434D01*
X32706734Y15320434D01*
X32389234Y15320434D01*
X32389234Y15002934D01*
X32389234Y14685434D01*
X32230484Y14685434D01*
X32071734Y14685434D01*
X32071734Y14526684D01*
X32071734Y14367934D01*
X31754234Y14367934D01*
X31436734Y14367934D01*
X31436734Y14526684D01*
X31436734Y14685434D01*
X31277984Y14685434D01*
X31119234Y14685434D01*
X31119234Y14844184D01*
X31119234Y15002934D01*
X31277984Y15002934D01*
X31436734Y15002934D01*
X31436734Y15161684D01*
X31436734Y15320434D01*
X31595484Y15320434D01*
X31754234Y15320434D01*
X31754234Y15161684D01*
X31754234Y15002934D01*
X31912984Y15002934D01*
X32071734Y15002934D01*
X32071734Y15161684D01*
X32071734Y15320434D01*
X31912984Y15320434D01*
X31754234Y15320434D01*
X31754234Y15637934D01*
X31754234Y15955434D01*
X32071734Y15955434D01*
X32389234Y15955434D01*
X32389234Y15955434D01*
X32389234Y15955434D01*
G37*
X32389234Y15955434D02*
X32389234Y15796684D01*
X32389234Y15637934D01*
X32706734Y15637934D01*
X33024234Y15637934D01*
X33024234Y15479184D01*
X33024234Y15320434D01*
X32706734Y15320434D01*
X32389234Y15320434D01*
X32389234Y15002934D01*
X32389234Y14685434D01*
X32230484Y14685434D01*
X32071734Y14685434D01*
X32071734Y14526684D01*
X32071734Y14367934D01*
X31754234Y14367934D01*
X31436734Y14367934D01*
X31436734Y14526684D01*
X31436734Y14685434D01*
X31277984Y14685434D01*
X31119234Y14685434D01*
X31119234Y14844184D01*
X31119234Y15002934D01*
X31277984Y15002934D01*
X31436734Y15002934D01*
X31436734Y15161684D01*
X31436734Y15320434D01*
X31595484Y15320434D01*
X31754234Y15320434D01*
X31754234Y15161684D01*
X31754234Y15002934D01*
X31912984Y15002934D01*
X32071734Y15002934D01*
X32071734Y15161684D01*
X32071734Y15320434D01*
X31912984Y15320434D01*
X31754234Y15320434D01*
X31754234Y15637934D01*
X31754234Y15955434D01*
X32071734Y15955434D01*
X32389234Y15955434D01*
X32389234Y15955434D01*
G36*
X33341734Y15955434D02*
X33341734Y15796684D01*
X33341734Y15637934D01*
X33182984Y15637934D01*
X33024234Y15637934D01*
X33024234Y15796684D01*
X33024234Y15955434D01*
X33182984Y15955434D01*
X33341734Y15955434D01*
X33341734Y15955434D01*
X33341734Y15955434D01*
G37*
X33341734Y15955434D02*
X33341734Y15796684D01*
X33341734Y15637934D01*
X33182984Y15637934D01*
X33024234Y15637934D01*
X33024234Y15796684D01*
X33024234Y15955434D01*
X33182984Y15955434D01*
X33341734Y15955434D01*
X33341734Y15955434D01*
G36*
X31754234Y16272934D02*
X31754234Y16114184D01*
X31754234Y15955434D01*
X31595484Y15955434D01*
X31436734Y15955434D01*
X31436734Y16114184D01*
X31436734Y16272934D01*
X31595484Y16272934D01*
X31754234Y16272934D01*
X31754234Y16272934D01*
X31754234Y16272934D01*
G37*
X31754234Y16272934D02*
X31754234Y16114184D01*
X31754234Y15955434D01*
X31595484Y15955434D01*
X31436734Y15955434D01*
X31436734Y16114184D01*
X31436734Y16272934D01*
X31595484Y16272934D01*
X31754234Y16272934D01*
X31754234Y16272934D01*
G36*
X33024234Y16272934D02*
X33024234Y16114184D01*
X33024234Y15955434D01*
X32865484Y15955434D01*
X32706734Y15955434D01*
X32706734Y16114184D01*
X32706734Y16272934D01*
X32865484Y16272934D01*
X33024234Y16272934D01*
X33024234Y16272934D01*
X33024234Y16272934D01*
G37*
X33024234Y16272934D02*
X33024234Y16114184D01*
X33024234Y15955434D01*
X32865484Y15955434D01*
X32706734Y15955434D01*
X32706734Y16114184D01*
X32706734Y16272934D01*
X32865484Y16272934D01*
X33024234Y16272934D01*
X33024234Y16272934D01*
G36*
X31436734Y16590434D02*
X31436734Y16431684D01*
X31436734Y16272934D01*
X31277984Y16272934D01*
X31119234Y16272934D01*
X31119234Y16114184D01*
X31119234Y15955434D01*
X30960484Y15955434D01*
X30801734Y15955434D01*
X30801734Y15796684D01*
X30801734Y15637934D01*
X30484234Y15637934D01*
X30166734Y15637934D01*
X30166734Y15955434D01*
X30166734Y16272934D01*
X30484234Y16272934D01*
X30801734Y16272934D01*
X30801734Y16431684D01*
X30801734Y16590434D01*
X31119234Y16590434D01*
X31436734Y16590434D01*
X31436734Y16590434D01*
X31436734Y16590434D01*
G37*
X31436734Y16590434D02*
X31436734Y16431684D01*
X31436734Y16272934D01*
X31277984Y16272934D01*
X31119234Y16272934D01*
X31119234Y16114184D01*
X31119234Y15955434D01*
X30960484Y15955434D01*
X30801734Y15955434D01*
X30801734Y15796684D01*
X30801734Y15637934D01*
X30484234Y15637934D01*
X30166734Y15637934D01*
X30166734Y15955434D01*
X30166734Y16272934D01*
X30484234Y16272934D01*
X30801734Y16272934D01*
X30801734Y16431684D01*
X30801734Y16590434D01*
X31119234Y16590434D01*
X31436734Y16590434D01*
X31436734Y16590434D01*
G36*
X33976734Y16590434D02*
X33976734Y16431684D01*
X33976734Y16272934D01*
X33500484Y16272934D01*
X33024234Y16272934D01*
X33024234Y16431684D01*
X33024234Y16590434D01*
X33500484Y16590434D01*
X33976734Y16590434D01*
X33976734Y16590434D01*
X33976734Y16590434D01*
G37*
X33976734Y16590434D02*
X33976734Y16431684D01*
X33976734Y16272934D01*
X33500484Y16272934D01*
X33024234Y16272934D01*
X33024234Y16431684D01*
X33024234Y16590434D01*
X33500484Y16590434D01*
X33976734Y16590434D01*
X33976734Y16590434D01*
G36*
X32389234Y16907934D02*
X32389234Y16749184D01*
X32389234Y16590434D01*
X32547984Y16590434D01*
X32706734Y16590434D01*
X32706734Y16431684D01*
X32706734Y16272934D01*
X32389234Y16272934D01*
X32071734Y16272934D01*
X32071734Y16431684D01*
X32071734Y16590434D01*
X31912984Y16590434D01*
X31754234Y16590434D01*
X31754234Y16749184D01*
X31754234Y16907934D01*
X32071734Y16907934D01*
X32389234Y16907934D01*
X32389234Y16907934D01*
X32389234Y16907934D01*
G37*
X32389234Y16907934D02*
X32389234Y16749184D01*
X32389234Y16590434D01*
X32547984Y16590434D01*
X32706734Y16590434D01*
X32706734Y16431684D01*
X32706734Y16272934D01*
X32389234Y16272934D01*
X32071734Y16272934D01*
X32071734Y16431684D01*
X32071734Y16590434D01*
X31912984Y16590434D01*
X31754234Y16590434D01*
X31754234Y16749184D01*
X31754234Y16907934D01*
X32071734Y16907934D01*
X32389234Y16907934D01*
X32389234Y16907934D01*
G36*
X33341734Y17542934D02*
X33341734Y17384184D01*
X33341734Y17225434D01*
X33182984Y17225434D01*
X33024234Y17225434D01*
X33024234Y17384184D01*
X33024234Y17542934D01*
X33182984Y17542934D01*
X33341734Y17542934D01*
X33341734Y17542934D01*
X33341734Y17542934D01*
G37*
X33341734Y17542934D02*
X33341734Y17384184D01*
X33341734Y17225434D01*
X33182984Y17225434D01*
X33024234Y17225434D01*
X33024234Y17384184D01*
X33024234Y17542934D01*
X33182984Y17542934D01*
X33341734Y17542934D01*
X33341734Y17542934D01*
G36*
X32389234Y19130434D02*
X32389234Y18812934D01*
X32389234Y18495434D01*
X32230484Y18495434D01*
X32071734Y18495434D01*
X32071734Y18812934D01*
X32071734Y19130434D01*
X32230484Y19130434D01*
X32389234Y19130434D01*
X32389234Y19130434D01*
X32389234Y19130434D01*
G37*
X32389234Y19130434D02*
X32389234Y18812934D01*
X32389234Y18495434D01*
X32230484Y18495434D01*
X32071734Y18495434D01*
X32071734Y18812934D01*
X32071734Y19130434D01*
X32230484Y19130434D01*
X32389234Y19130434D01*
X32389234Y19130434D01*
G36*
X32071734Y13097934D02*
X32071734Y12939184D01*
X32071734Y12780434D01*
X31912984Y12780434D01*
X31754234Y12780434D01*
X31754234Y12939184D01*
X31754234Y13097934D01*
X31912984Y13097934D01*
X32071734Y13097934D01*
X32071734Y13097934D01*
X32071734Y13097934D01*
G37*
X32071734Y13097934D02*
X32071734Y12939184D01*
X32071734Y12780434D01*
X31912984Y12780434D01*
X31754234Y12780434D01*
X31754234Y12939184D01*
X31754234Y13097934D01*
X31912984Y13097934D01*
X32071734Y13097934D01*
X32071734Y13097934D01*
G36*
X31119234Y17225434D02*
X31119234Y17066684D01*
X31119234Y16907934D01*
X30960484Y16907934D01*
X30801734Y16907934D01*
X30801734Y17066684D01*
X30801734Y17225434D01*
X30960484Y17225434D01*
X31119234Y17225434D01*
X31119234Y17225434D01*
X31119234Y17225434D01*
G37*
X31119234Y17225434D02*
X31119234Y17066684D01*
X31119234Y16907934D01*
X30960484Y16907934D01*
X30801734Y16907934D01*
X30801734Y17066684D01*
X30801734Y17225434D01*
X30960484Y17225434D01*
X31119234Y17225434D01*
X31119234Y17225434D01*
G36*
X30801734Y14050434D02*
X30801734Y13891684D01*
X30801734Y13732934D01*
X30642984Y13732934D01*
X30484234Y13732934D01*
X30484234Y13891684D01*
X30484234Y14050434D01*
X30642984Y14050434D01*
X30801734Y14050434D01*
X30801734Y14050434D01*
X30801734Y14050434D01*
G37*
X30801734Y14050434D02*
X30801734Y13891684D01*
X30801734Y13732934D01*
X30642984Y13732934D01*
X30484234Y13732934D01*
X30484234Y13891684D01*
X30484234Y14050434D01*
X30642984Y14050434D01*
X30801734Y14050434D01*
X30801734Y14050434D01*
G36*
X30801734Y15320434D02*
X30801734Y15161684D01*
X30801734Y15002934D01*
X30642984Y15002934D01*
X30484234Y15002934D01*
X30484234Y15161684D01*
X30484234Y15320434D01*
X30642984Y15320434D01*
X30801734Y15320434D01*
X30801734Y15320434D01*
X30801734Y15320434D01*
G37*
X30801734Y15320434D02*
X30801734Y15161684D01*
X30801734Y15002934D01*
X30642984Y15002934D01*
X30484234Y15002934D01*
X30484234Y15161684D01*
X30484234Y15320434D01*
X30642984Y15320434D01*
X30801734Y15320434D01*
X30801734Y15320434D01*
G36*
X34611734Y18177934D02*
X34611734Y18019184D01*
X34611734Y17860434D01*
X34452984Y17860434D01*
X34294234Y17860434D01*
X34294234Y18019184D01*
X34294234Y18177934D01*
X34452984Y18177934D01*
X34611734Y18177934D01*
X34611734Y18177934D01*
X34611734Y18177934D01*
G37*
X34611734Y18177934D02*
X34611734Y18019184D01*
X34611734Y17860434D01*
X34452984Y17860434D01*
X34294234Y17860434D01*
X34294234Y18019184D01*
X34294234Y18177934D01*
X34452984Y18177934D01*
X34611734Y18177934D01*
X34611734Y18177934D01*
G36*
X28896734Y12462934D02*
X28896734Y11986684D01*
X28896734Y11510434D01*
X28420484Y11510434D01*
X27944234Y11510434D01*
X27944234Y11986684D01*
X27944234Y12462934D01*
X28420484Y12462934D01*
X28896734Y12462934D01*
X28896734Y12462934D01*
X28896734Y12462934D01*
G37*
X28896734Y12462934D02*
X28896734Y11986684D01*
X28896734Y11510434D01*
X28420484Y11510434D01*
X27944234Y11510434D01*
X27944234Y11986684D01*
X27944234Y12462934D01*
X28420484Y12462934D01*
X28896734Y12462934D01*
X28896734Y12462934D01*
G36*
X28896734Y19447934D02*
X28896734Y18971684D01*
X28896734Y18495434D01*
X28420484Y18495434D01*
X27944234Y18495434D01*
X27944234Y18971684D01*
X27944234Y19447934D01*
X28420484Y19447934D01*
X28896734Y19447934D01*
X28896734Y19447934D01*
X28896734Y19447934D01*
G37*
X28896734Y19447934D02*
X28896734Y18971684D01*
X28896734Y18495434D01*
X28420484Y18495434D01*
X27944234Y18495434D01*
X27944234Y18971684D01*
X27944234Y19447934D01*
X28420484Y19447934D01*
X28896734Y19447934D01*
X28896734Y19447934D01*
D15*
X34612943Y4466771D02*
X34612943Y5990771D01*
X35193515Y5990771D01*
X35338657Y5918200D01*
X35411229Y5845629D01*
X35483800Y5700486D01*
X35483800Y5482771D01*
X35411229Y5337629D01*
X35338657Y5265057D01*
X35193515Y5192486D01*
X34612943Y5192486D01*
X36935229Y4466771D02*
X36064372Y4466771D01*
X36499800Y4466771D02*
X36499800Y5990771D01*
X36354657Y5773057D01*
X36209515Y5627914D01*
X36064372Y5555343D01*
X4132943Y34946771D02*
X4132943Y36470771D01*
X4713515Y36470771D01*
X4858657Y36398200D01*
X4931229Y36325629D01*
X5003800Y36180486D01*
X5003800Y35962771D01*
X4931229Y35817629D01*
X4858657Y35745057D01*
X4713515Y35672486D01*
X4132943Y35672486D01*
X5584372Y36325629D02*
X5656943Y36398200D01*
X5802086Y36470771D01*
X6164943Y36470771D01*
X6310086Y36398200D01*
X6382657Y36325629D01*
X6455229Y36180486D01*
X6455229Y36035343D01*
X6382657Y35817629D01*
X5511800Y34946771D01*
X6455229Y34946771D01*
X4132943Y4466771D02*
X4132943Y5990771D01*
X4713515Y5990771D01*
X4858657Y5918200D01*
X4931229Y5845629D01*
X5003800Y5700486D01*
X5003800Y5482771D01*
X4931229Y5337629D01*
X4858657Y5265057D01*
X4713515Y5192486D01*
X4132943Y5192486D01*
X5511800Y5990771D02*
X6455229Y5990771D01*
X5947229Y5410200D01*
X6164943Y5410200D01*
X6310086Y5337629D01*
X6382657Y5265057D01*
X6455229Y5119914D01*
X6455229Y4757057D01*
X6382657Y4611914D01*
X6310086Y4539343D01*
X6164943Y4466771D01*
X5729515Y4466771D01*
X5584372Y4539343D01*
X5511800Y4611914D01*
X34612943Y34946771D02*
X34612943Y36470771D01*
X35193515Y36470771D01*
X35338657Y36398200D01*
X35411229Y36325629D01*
X35483800Y36180486D01*
X35483800Y35962771D01*
X35411229Y35817629D01*
X35338657Y35745057D01*
X35193515Y35672486D01*
X34612943Y35672486D01*
X36790086Y35962771D02*
X36790086Y34946771D01*
X36427229Y36543343D02*
X36064372Y35454771D01*
X37007800Y35454771D01*
M02*
