%
T1C.035F197S55
X0163Y015
X0173Y015
X01645Y0264
X0168Y0292
X0228Y0292
X02195Y0264
X020344Y024238
X020344Y022858
X0234Y01905
X0234Y02255
X026213Y022575
X027213Y022575
X028213Y022575
X0292Y0204
X0292Y0184
X029427Y014526
X031427Y014526
X03449Y0182
X03311Y0182
T2C.04F139S55
X014094Y022607
X014094Y024607
X033906Y025757
X033906Y023757
T3C.051F107S55
X020877Y014089
X022877Y014089
X021877Y018089
T4C.05118F107S55
X013138Y020718
X01511Y020718
X013108Y026525
X01508Y026525
X03292Y027646
X03289Y021867
X034862Y021867
X034892Y027646
T5C.052F107S55
X0174Y01925
X0174Y02475
X025238Y0199
X025238Y0144
T6C.12598F035S794
X014Y014
X014Y03
X034Y03
X034Y014
T7C.1378F035S794
X027308Y029209
M30
