G75*
%MOIN*%
%OFA0B0*%
%FSLAX24Y24*%
%IPPOS*%
%LPD*%
%AMOC8*
5,1,8,0,0,1.08239X$1,22.5*
%
%ADD10C,0.0000*%
D10*
X000105Y000105D02*
X000105Y015905D01*
X023905Y015905D01*
X023905Y000105D01*
X000105Y000105D01*
X017674Y003380D02*
X017676Y003426D01*
X017682Y003471D01*
X017692Y003516D01*
X017705Y003559D01*
X017722Y003602D01*
X017743Y003642D01*
X017767Y003681D01*
X017795Y003717D01*
X017826Y003751D01*
X017859Y003783D01*
X017895Y003811D01*
X017933Y003836D01*
X017973Y003858D01*
X018015Y003876D01*
X018058Y003890D01*
X018103Y003901D01*
X018148Y003908D01*
X018194Y003911D01*
X018239Y003910D01*
X018285Y003905D01*
X018330Y003896D01*
X018373Y003884D01*
X018416Y003867D01*
X018457Y003847D01*
X018496Y003824D01*
X018534Y003797D01*
X018568Y003767D01*
X018600Y003735D01*
X018629Y003699D01*
X018655Y003662D01*
X018678Y003622D01*
X018697Y003581D01*
X018712Y003538D01*
X018724Y003493D01*
X018732Y003448D01*
X018736Y003403D01*
X018736Y003357D01*
X018732Y003312D01*
X018724Y003267D01*
X018712Y003222D01*
X018697Y003179D01*
X018678Y003138D01*
X018655Y003098D01*
X018629Y003061D01*
X018600Y003025D01*
X018568Y002993D01*
X018534Y002963D01*
X018496Y002936D01*
X018457Y002913D01*
X018416Y002893D01*
X018373Y002876D01*
X018330Y002864D01*
X018285Y002855D01*
X018239Y002850D01*
X018194Y002849D01*
X018148Y002852D01*
X018103Y002859D01*
X018058Y002870D01*
X018015Y002884D01*
X017973Y002902D01*
X017933Y002924D01*
X017895Y002949D01*
X017859Y002977D01*
X017826Y003009D01*
X017795Y003043D01*
X017767Y003079D01*
X017743Y003118D01*
X017722Y003158D01*
X017705Y003201D01*
X017692Y003244D01*
X017682Y003289D01*
X017676Y003334D01*
X017674Y003380D01*
X019099Y003380D02*
X019101Y003426D01*
X019107Y003471D01*
X019117Y003516D01*
X019130Y003559D01*
X019147Y003602D01*
X019168Y003642D01*
X019192Y003681D01*
X019220Y003717D01*
X019251Y003751D01*
X019284Y003783D01*
X019320Y003811D01*
X019358Y003836D01*
X019398Y003858D01*
X019440Y003876D01*
X019483Y003890D01*
X019528Y003901D01*
X019573Y003908D01*
X019619Y003911D01*
X019664Y003910D01*
X019710Y003905D01*
X019755Y003896D01*
X019798Y003884D01*
X019841Y003867D01*
X019882Y003847D01*
X019921Y003824D01*
X019959Y003797D01*
X019993Y003767D01*
X020025Y003735D01*
X020054Y003699D01*
X020080Y003662D01*
X020103Y003622D01*
X020122Y003581D01*
X020137Y003538D01*
X020149Y003493D01*
X020157Y003448D01*
X020161Y003403D01*
X020161Y003357D01*
X020157Y003312D01*
X020149Y003267D01*
X020137Y003222D01*
X020122Y003179D01*
X020103Y003138D01*
X020080Y003098D01*
X020054Y003061D01*
X020025Y003025D01*
X019993Y002993D01*
X019959Y002963D01*
X019921Y002936D01*
X019882Y002913D01*
X019841Y002893D01*
X019798Y002876D01*
X019755Y002864D01*
X019710Y002855D01*
X019664Y002850D01*
X019619Y002849D01*
X019573Y002852D01*
X019528Y002859D01*
X019483Y002870D01*
X019440Y002884D01*
X019398Y002902D01*
X019358Y002924D01*
X019320Y002949D01*
X019284Y002977D01*
X019251Y003009D01*
X019220Y003043D01*
X019192Y003079D01*
X019168Y003118D01*
X019147Y003158D01*
X019130Y003201D01*
X019117Y003244D01*
X019107Y003289D01*
X019101Y003334D01*
X019099Y003380D01*
M02*
