G04 #@! TF.FileFunction,Copper,L2,Bot,Signal*
%FSLAX46Y46*%
G04 Gerber Fmt 4.6, Leading zero omitted, Abs format (unit mm)*
G04 Created by KiCad (PCBNEW (2016-09-17 revision 679eef1)-makepkg) date 09/26/16 15:43:46*
%MOMM*%
%LPD*%
G01*
G04 APERTURE LIST*
%ADD10C,0.500000*%
%ADD11C,0.300000*%
%ADD12R,3.300000X2.410000*%
%ADD13R,0.600000X1.550000*%
%ADD14R,1.397000X0.889000*%
%ADD15R,0.889000X1.397000*%
%ADD16R,3.810000X3.810000*%
%ADD17C,6.000000*%
%ADD18R,3.000000X5.500000*%
%ADD19R,1.524000X1.524000*%
%ADD20R,2.499360X2.301240*%
%ADD21R,1.800860X2.499360*%
%ADD22R,2.700020X2.550160*%
%ADD23R,2.550160X2.700020*%
%ADD24R,4.000000X4.000000*%
%ADD25C,4.000000*%
%ADD26C,0.800000*%
%ADD27C,0.600000*%
%ADD28C,0.800000*%
%ADD29C,1.500000*%
%ADD30C,0.254000*%
G04 APERTURE END LIST*
D10*
D11*
X20760914Y8143942D02*
X20760914Y9343942D01*
X20360914Y8486800D01*
X19960914Y9343942D01*
X19960914Y8143942D01*
X18818057Y8143942D02*
X19389485Y8143942D01*
X19389485Y9343942D01*
X18475200Y8486800D02*
X17903771Y8486800D01*
X18589485Y8143942D02*
X18189485Y9343942D01*
X17789485Y8143942D01*
X16989485Y8772514D02*
X16818057Y8715371D01*
X16760914Y8658228D01*
X16703771Y8543942D01*
X16703771Y8372514D01*
X16760914Y8258228D01*
X16818057Y8201085D01*
X16932342Y8143942D01*
X17389485Y8143942D01*
X17389485Y9343942D01*
X16989485Y9343942D01*
X16875200Y9286800D01*
X16818057Y9229657D01*
X16760914Y9115371D01*
X16760914Y9001085D01*
X16818057Y8886800D01*
X16875200Y8829657D01*
X16989485Y8772514D01*
X17389485Y8772514D01*
X16189485Y8258228D02*
X16132342Y8201085D01*
X16189485Y8143942D01*
X16246628Y8201085D01*
X16189485Y8258228D01*
X16189485Y8143942D01*
X15103771Y8201085D02*
X15218057Y8143942D01*
X15446628Y8143942D01*
X15560914Y8201085D01*
X15618057Y8258228D01*
X15675200Y8372514D01*
X15675200Y8715371D01*
X15618057Y8829657D01*
X15560914Y8886800D01*
X15446628Y8943942D01*
X15218057Y8943942D01*
X15103771Y8886800D01*
X14703771Y8943942D02*
X14075200Y8943942D01*
X14703771Y8143942D01*
X14075200Y8143942D01*
D12*
X30988000Y18288000D03*
D13*
X32893000Y15588000D03*
X31623000Y15588000D03*
X30353000Y15588000D03*
X29083000Y15588000D03*
X29083000Y20988000D03*
X30353000Y20988000D03*
X31623000Y20988000D03*
X32893000Y20988000D03*
D14*
X25400000Y15684500D03*
X25400000Y13779500D03*
X20320000Y15684500D03*
X20320000Y13779500D03*
X22860000Y15684500D03*
X22860000Y13779500D03*
D15*
X25336500Y23368000D03*
X23431500Y23368000D03*
X30416500Y11176000D03*
X28511500Y11176000D03*
X25336500Y10160000D03*
X23431500Y10160000D03*
D16*
X45640000Y12700000D03*
X40640000Y12700000D03*
X45640000Y17780000D03*
X40640000Y17780000D03*
X5160000Y12700000D03*
X10160000Y12700000D03*
X5160000Y17780000D03*
X10160000Y17780000D03*
D17*
X5080000Y5080000D03*
X45720000Y35560000D03*
X5080000Y35560000D03*
X45720000Y5080000D03*
D18*
X16336000Y33020000D03*
X26336000Y33020000D03*
D19*
X6350000Y23876000D03*
X3810000Y23876000D03*
X6350000Y26416000D03*
X3810000Y26416000D03*
X14732000Y2794000D03*
X14732000Y5334000D03*
X32512000Y5334000D03*
X32512000Y2794000D03*
X35052000Y5334000D03*
X35052000Y2794000D03*
X37592000Y5334000D03*
X37592000Y2794000D03*
X25400000Y20574000D03*
X25400000Y18034000D03*
X20320000Y20574000D03*
X20320000Y18034000D03*
X22860000Y20574000D03*
X22860000Y18034000D03*
X6350000Y28956000D03*
X3810000Y28956000D03*
X17272000Y2794000D03*
X17272000Y5334000D03*
X29972000Y5334000D03*
X29972000Y2794000D03*
D20*
X30871160Y27940000D03*
X35168840Y27940000D03*
X30871160Y34544000D03*
X35168840Y34544000D03*
D21*
X11176000Y28922980D03*
X11176000Y24925020D03*
D14*
X19304000Y23431500D03*
X19304000Y25336500D03*
D15*
X38100000Y21844000D03*
X36195000Y21844000D03*
D14*
X21844000Y25336500D03*
X21844000Y23431500D03*
D15*
X28892500Y24384000D03*
X26987500Y24384000D03*
D14*
X25908000Y8064500D03*
X25908000Y6159500D03*
X23368000Y8064500D03*
X23368000Y6159500D03*
D15*
X32067500Y11176000D03*
X33972500Y11176000D03*
X13144500Y32004000D03*
X11239500Y32004000D03*
X13144500Y34544000D03*
X11239500Y34544000D03*
D22*
X15748000Y15621000D03*
X15748000Y21971000D03*
D23*
X48387000Y28956000D03*
X42037000Y28956000D03*
X48387000Y23368000D03*
X42037000Y23368000D03*
D15*
X36131500Y8636000D03*
X38036500Y8636000D03*
D14*
X36068000Y12636500D03*
X36068000Y10731500D03*
D24*
X40466000Y26162000D03*
D25*
X45466000Y26162000D03*
D15*
X23431500Y25400000D03*
X25336500Y25400000D03*
D26*
X23114000Y29972000D03*
X21844000Y29463984D03*
X21082000Y28702000D03*
X19812000Y28448000D03*
X19812000Y26924000D03*
X20827996Y26924000D03*
X21590000Y27685999D03*
X22606000Y28448000D03*
X23876000Y28955984D03*
X26907343Y25665197D03*
X26924000Y24434800D03*
X46024800Y23672800D03*
X48869600Y31496000D03*
X46177200Y30480000D03*
X48387000Y28956000D03*
X45720000Y28498800D03*
X47498000Y26619200D03*
X48920400Y26263600D03*
X48387000Y23368000D03*
X48818800Y21082000D03*
X49072800Y18389600D03*
X11379200Y8128000D03*
X12700000Y8178800D03*
X12801600Y9550402D03*
X11684000Y9702798D03*
X20828000Y5969000D03*
X19812000Y4699000D03*
X22098000Y4572000D03*
X24003000Y4699000D03*
X21209000Y1397000D03*
X27559000Y2159000D03*
X26289006Y1778000D03*
X24765000Y1397000D03*
X23241000Y1397000D03*
X19558000Y1397000D03*
X28702000Y4445000D03*
X32512000Y7112000D03*
X10160000Y8128000D03*
X8636000Y8128000D03*
X9652000Y6096000D03*
X9652000Y3556000D03*
X9144000Y1524000D03*
X18288000Y21844000D03*
X18288000Y20828000D03*
X18288000Y19304000D03*
X17272000Y18288000D03*
X18288000Y17272000D03*
X18288000Y28448000D03*
X18796000Y26924000D03*
X38100000Y1524000D03*
X39116000Y2540000D03*
X39116000Y4064000D03*
X39116000Y5588000D03*
X27940000Y3556000D03*
X39116000Y36576000D03*
X37592000Y37592000D03*
X36068000Y37592000D03*
X34036000Y37592000D03*
X32512000Y37592000D03*
X30988000Y37592000D03*
X29464000Y37592000D03*
X27940000Y37592000D03*
X26416000Y37592000D03*
X24892000Y37592000D03*
X23368000Y37592000D03*
X21844000Y37592000D03*
X20320000Y37592000D03*
X18288000Y37592000D03*
X16256000Y37592000D03*
X14224000Y37592000D03*
X11176000Y37592000D03*
X9652000Y34544000D03*
X9144000Y32512000D03*
X7620000Y30988000D03*
X5588000Y30988000D03*
X3556000Y30988000D03*
X1524000Y30988000D03*
X1524000Y28956000D03*
X1524000Y27432000D03*
X1524000Y25908000D03*
X6096000Y22352000D03*
X4572000Y22352000D03*
X3048000Y22352000D03*
X1524000Y24384000D03*
X1524000Y22860000D03*
X1524000Y20828000D03*
X1524000Y19304000D03*
X1524000Y17780000D03*
X1524000Y16256000D03*
X31496000Y7112000D03*
X32004000Y9144000D03*
X29972000Y9144000D03*
X29972000Y7112000D03*
X38100000Y14732000D03*
X38100000Y13716000D03*
X38100000Y12192000D03*
X38100000Y11176000D03*
X38100000Y10160000D03*
X39116000Y10160000D03*
X40640000Y9652000D03*
X41656000Y9652000D03*
X43180000Y9652000D03*
X44704000Y9652000D03*
X46228000Y9652000D03*
X47752000Y9652000D03*
X48768000Y10160000D03*
X48768000Y11684000D03*
X48768000Y13208000D03*
X48768000Y14732000D03*
X23876000Y11684000D03*
X21844000Y11684000D03*
X20320000Y11684000D03*
X18796000Y11684000D03*
X17780000Y12700000D03*
X16256000Y12700000D03*
X14732000Y12700000D03*
X13208000Y14224000D03*
X13208000Y12700000D03*
X13208000Y11684000D03*
X13208000Y10668000D03*
X10668000Y9652000D03*
X9144000Y9652000D03*
X7620000Y9652000D03*
X6096000Y9652000D03*
X4572000Y9652000D03*
X3048000Y9652000D03*
X2032000Y10668000D03*
X2032000Y11684000D03*
X2032000Y12700000D03*
X2032000Y13716000D03*
X27432000Y16002000D03*
X27432000Y17272000D03*
X27432000Y18796000D03*
X27432000Y20320000D03*
X33020000Y13208000D03*
X34036000Y12700000D03*
X34036000Y13716000D03*
X34036000Y14732000D03*
X34036000Y15748000D03*
X34036000Y16764000D03*
X33528000Y18288000D03*
X35052000Y17780000D03*
X35560000Y18796000D03*
X36068000Y20320000D03*
X36576000Y23876000D03*
X35560000Y23876000D03*
X34544000Y23368000D03*
X34544000Y22352000D03*
X34544000Y21336000D03*
X34544000Y20320000D03*
X34544000Y19304000D03*
X32512000Y17272000D03*
X32512000Y19304000D03*
X29464000Y17272000D03*
X29464000Y19304000D03*
X30988000Y18288000D03*
X15240000Y19558000D03*
X31623000Y13208000D03*
X29464000Y22860000D03*
X22606000Y26331987D03*
X34290000Y25654000D03*
D27*
X22714001Y29572001D02*
X23114000Y29972000D01*
X22606000Y29464000D02*
X22714001Y29572001D01*
X22606000Y28448000D02*
X22606000Y29464000D01*
X21843984Y29463984D02*
X21844000Y29463984D01*
X21082000Y28702000D02*
X21843984Y29463984D01*
X19304000Y28448000D02*
X19812000Y28448000D01*
X18288000Y28448000D02*
X19304000Y28448000D01*
X19812000Y27489685D02*
X19812000Y26924000D01*
X20154314Y27831999D02*
X19812000Y27489685D01*
X20174001Y27831999D02*
X20154314Y27831999D01*
X20174001Y27577995D02*
X20427997Y27323999D01*
X20174001Y27831999D02*
X20174001Y27577995D01*
X19304000Y28448000D02*
X19558000Y28448000D01*
X19558000Y28448000D02*
X20174001Y27831999D01*
X20427997Y27323999D02*
X20827996Y26924000D01*
X21843999Y27685999D02*
X21590000Y27685999D01*
X22606000Y28448000D02*
X21843999Y27685999D01*
X23005999Y28847999D02*
X22606000Y28448000D01*
X23113984Y28955984D02*
X23005999Y28847999D01*
X23876000Y28955984D02*
X23113984Y28955984D01*
X26974800Y24384000D02*
X26924000Y24434800D01*
X26987500Y24384000D02*
X26974800Y24384000D01*
D11*
X46329600Y23672800D02*
X46024800Y23672800D01*
X48920400Y26263600D02*
X46329600Y23672800D01*
X46177200Y30480000D02*
X47853600Y30480000D01*
X47853600Y30480000D02*
X48869600Y31496000D01*
X47498000Y26619200D02*
X47498000Y26720800D01*
X47498000Y26720800D02*
X45720000Y28498800D01*
X48818800Y21082000D02*
X48818800Y22936200D01*
X48818800Y22936200D02*
X48387000Y23368000D01*
X48768000Y14732000D02*
X48768000Y18084800D01*
X48768000Y18084800D02*
X49072800Y18389600D01*
D27*
X11379200Y7562315D02*
X11379200Y8128000D01*
X11379200Y3759200D02*
X11379200Y7562315D01*
X9144000Y1524000D02*
X11379200Y3759200D01*
X12801600Y10116087D02*
X12801600Y9550402D01*
X12801600Y10261600D02*
X12801600Y10116087D01*
X13208000Y10668000D02*
X12801600Y10261600D01*
X11633202Y9652000D02*
X11684000Y9702798D01*
X10668000Y9652000D02*
X11633202Y9652000D01*
D10*
X20828000Y5969000D02*
X20701000Y5842000D01*
X20701000Y5842000D02*
X20320000Y5842000D01*
X22098000Y4572000D02*
X19939000Y4572000D01*
X19939000Y4572000D02*
X19812000Y4699000D01*
X25908000Y6159500D02*
X25463500Y6159500D01*
X25463500Y6159500D02*
X24003000Y4699000D01*
D27*
X23241000Y1397000D02*
X21209000Y1397000D01*
X27831999Y2431999D02*
X27559000Y2159000D01*
X28194002Y2794000D02*
X27832001Y2431999D01*
X29972000Y2794000D02*
X28194002Y2794000D01*
X27940000Y2539998D02*
X27832001Y2431999D01*
X27832001Y2431999D02*
X27831999Y2431999D01*
X27940000Y3556000D02*
X27940000Y2539998D01*
X25908006Y1397000D02*
X26289006Y1778000D01*
X24765000Y1397000D02*
X25908006Y1397000D01*
X32258000Y8001000D02*
X29101999Y4844999D01*
X29101999Y4844999D02*
X28702000Y4445000D01*
X32512000Y7112000D02*
X32258000Y8001000D01*
X8636000Y8128000D02*
X10160000Y8128000D01*
X9652000Y3556000D02*
X9652000Y6096000D01*
X18288000Y20828000D02*
X18288000Y21844000D01*
X17272000Y18288000D02*
X18288000Y19304000D01*
X17780000Y12700000D02*
X17780000Y16764000D01*
X17780000Y16764000D02*
X18288000Y17272000D01*
X19304000Y25336500D02*
X19304000Y26416000D01*
X19304000Y26416000D02*
X18796000Y26924000D01*
X39116000Y2540000D02*
X38100000Y1524000D01*
X39116000Y5588000D02*
X39116000Y4064000D01*
X37592000Y37592000D02*
X38100000Y37592000D01*
X38100000Y37592000D02*
X39116000Y36576000D01*
X34036000Y37592000D02*
X36068000Y37592000D01*
X30988000Y37592000D02*
X32512000Y37592000D01*
X27940000Y37592000D02*
X29464000Y37592000D01*
X24892000Y37592000D02*
X26416000Y37592000D01*
X21844000Y37592000D02*
X23368000Y37592000D01*
X18288000Y37592000D02*
X20320000Y37592000D01*
X14224000Y37592000D02*
X16256000Y37592000D01*
X9652000Y34544000D02*
X9652000Y36068000D01*
X9652000Y36068000D02*
X11176000Y37592000D01*
X11239500Y34544000D02*
X11176000Y34544000D01*
X11176000Y34544000D02*
X9144000Y32512000D01*
X3556000Y30988000D02*
X5588000Y30988000D01*
X1524000Y28956000D02*
X1524000Y30988000D01*
X1524000Y25908000D02*
X1524000Y27432000D01*
X4572000Y22352000D02*
X6096000Y22352000D01*
X1524000Y24384000D02*
X1524000Y23876000D01*
X1524000Y23876000D02*
X3048000Y22352000D01*
X1524000Y20828000D02*
X1524000Y22860000D01*
X1524000Y17780000D02*
X1524000Y19304000D01*
X2032000Y13716000D02*
X2032000Y15748000D01*
X2032000Y15748000D02*
X1524000Y16256000D01*
X29972000Y9144000D02*
X32004000Y9144000D01*
X29972000Y5334000D02*
X29972000Y7112000D01*
X38100000Y13716000D02*
X38100000Y14732000D01*
X38100000Y11176000D02*
X38100000Y12192000D01*
X39116000Y10160000D02*
X38100000Y10160000D01*
X41656000Y9652000D02*
X40640000Y9652000D01*
X44704000Y9652000D02*
X43180000Y9652000D01*
X47752000Y9652000D02*
X46228000Y9652000D01*
X48768000Y11684000D02*
X48768000Y10160000D01*
X48768000Y14732000D02*
X48768000Y13208000D01*
X21844000Y11684000D02*
X23876000Y11684000D01*
X18796000Y11684000D02*
X20320000Y11684000D01*
X16256000Y12700000D02*
X17780000Y12700000D01*
X13208000Y14224000D02*
X14732000Y12700000D01*
X13208000Y11684000D02*
X13208000Y12700000D01*
X7620000Y9652000D02*
X9144000Y9652000D01*
X4572000Y9652000D02*
X6096000Y9652000D01*
X2032000Y10668000D02*
X3048000Y9652000D01*
X2032000Y12700000D02*
X2032000Y11684000D01*
X5160000Y12700000D02*
X3048000Y12700000D01*
X3048000Y12700000D02*
X2032000Y13716000D01*
X27432000Y18796000D02*
X27432000Y17272000D01*
X29464000Y19304000D02*
X28448000Y19304000D01*
X28448000Y19304000D02*
X27432000Y20320000D01*
X34036000Y13716000D02*
X34036000Y12700000D01*
X34036000Y15748000D02*
X34036000Y14732000D01*
X33528000Y18288000D02*
X33528000Y17272000D01*
X33528000Y17272000D02*
X34036000Y16764000D01*
X35560000Y18796000D02*
X35560000Y18288000D01*
X35560000Y18288000D02*
X35052000Y17780000D01*
X36576000Y23876000D02*
X36576000Y20828000D01*
X36576000Y20828000D02*
X36068000Y20320000D01*
X34544000Y23368000D02*
X35052000Y23368000D01*
X35052000Y23368000D02*
X35560000Y23876000D01*
X34544000Y21336000D02*
X34544000Y22352000D01*
X34544000Y19304000D02*
X34544000Y20320000D01*
D28*
X33020000Y19304000D02*
X32512000Y19304000D01*
D27*
X30988000Y18288000D02*
X31496000Y18288000D01*
X31496000Y18288000D02*
X32512000Y19304000D01*
X30988000Y18288000D02*
X30480000Y18288000D01*
X30480000Y18288000D02*
X29464000Y19304000D01*
D28*
X32893000Y15588000D02*
X32893000Y17145000D01*
X32893000Y17145000D02*
X33020000Y17272000D01*
X15410080Y19558000D02*
X15240000Y19558000D01*
X15748000Y19895920D02*
X15410080Y19558000D01*
X15748000Y21971000D02*
X15748000Y19895920D01*
D27*
X31623000Y15588000D02*
X31623000Y13208000D01*
X31623000Y13208000D02*
X31623000Y11620500D01*
X31623000Y11620500D02*
X32067500Y11176000D01*
X30416500Y11176000D02*
X32067500Y11176000D01*
X23431500Y10160000D02*
X23431500Y8128000D01*
X23431500Y8128000D02*
X23368000Y8064500D01*
X25908000Y8064500D02*
X25908000Y9588500D01*
X25908000Y9588500D02*
X25336500Y10160000D01*
X27432000Y12509500D02*
X25336500Y10414000D01*
X29083000Y15588000D02*
X29083000Y15113000D01*
X29083000Y15113000D02*
X27432000Y13462000D01*
X27432000Y13462000D02*
X27432000Y12509500D01*
X25336500Y10414000D02*
X25336500Y10160000D01*
X29602000Y24384000D02*
X28892500Y24384000D01*
X31623000Y20988000D02*
X31623000Y22363000D01*
X31623000Y22363000D02*
X29602000Y24384000D01*
D28*
X21844000Y23431500D02*
X23368000Y23431500D01*
X23368000Y23431500D02*
X23431500Y23368000D01*
D27*
X30353000Y20988000D02*
X30353000Y21971000D01*
X30353000Y21971000D02*
X29464000Y22860000D01*
X20320000Y20574000D02*
X21844000Y20574000D01*
X21844000Y20574000D02*
X22860000Y20574000D01*
X21844000Y23431500D02*
X21844000Y20574000D01*
X22860000Y20574000D02*
X25400000Y20574000D01*
X19304000Y23431500D02*
X21844000Y23431500D01*
X28511500Y11176000D02*
X28511500Y6750502D01*
X18872001Y3032001D02*
X18634000Y2794000D01*
X28511500Y6750502D02*
X24792999Y3032001D01*
X24792999Y3032001D02*
X18872001Y3032001D01*
X18634000Y2794000D02*
X17272000Y2794000D01*
X17272000Y2794000D02*
X17272000Y5334000D01*
X29072000Y13324000D02*
X28511500Y12763500D01*
X28511500Y12763500D02*
X28511500Y11176000D01*
X29464000Y13324000D02*
X29072000Y13324000D01*
X30353000Y15588000D02*
X30353000Y14213000D01*
X30353000Y14213000D02*
X29464000Y13324000D01*
D10*
X22860000Y18034000D02*
X22860000Y15684500D01*
X20320000Y18034000D02*
X20320000Y15684500D01*
X25400000Y18034000D02*
X25400000Y15684500D01*
D28*
X22606000Y25336500D02*
X22606000Y26331987D01*
X21844000Y25336500D02*
X22606000Y25336500D01*
X22606000Y25336500D02*
X23368000Y25336500D01*
X35168840Y27940000D02*
X35168840Y26532840D01*
X35168840Y26532840D02*
X34290000Y25654000D01*
X23368000Y25336500D02*
X23431500Y25400000D01*
X22098000Y25590500D02*
X21844000Y25336500D01*
D29*
X40640000Y17780000D02*
X37235000Y17780000D01*
X37235000Y17780000D02*
X36068000Y16613000D01*
X36068000Y16613000D02*
X36068000Y14581000D01*
X36068000Y14581000D02*
X36068000Y12636500D01*
D28*
X38100000Y21844000D02*
X38100000Y20320000D01*
X38100000Y20320000D02*
X40640000Y17780000D01*
D29*
X36131500Y8636000D02*
X35052000Y7556500D01*
X35052000Y7556500D02*
X35052000Y5334000D01*
X36068000Y10731500D02*
X36068000Y8699500D01*
X36068000Y8699500D02*
X36131500Y8636000D01*
X32512000Y2794000D02*
X32512000Y5334000D01*
X32512000Y2794000D02*
X35052000Y2794000D01*
X35052000Y5334000D02*
X32512000Y5334000D01*
X35052000Y5334000D02*
X35052000Y2794000D01*
D28*
X25336500Y25400000D02*
X25336500Y23368000D01*
D30*
G36*
X17653000Y30024606D02*
X17182197Y29553803D01*
X17154667Y29512601D01*
X17145000Y29464000D01*
X17145000Y19939000D01*
X16256000Y19939000D01*
X16207399Y19929333D01*
X16166197Y19901803D01*
X12139394Y15875000D01*
X3175000Y15875000D01*
X3175000Y20701000D01*
X8128000Y20701000D01*
X8176601Y20710667D01*
X8217803Y20738197D01*
X8245333Y20779399D01*
X8255000Y20828000D01*
X8255000Y25400000D01*
X8245333Y25448601D01*
X8217803Y25489803D01*
X8176601Y25517333D01*
X8128000Y25527000D01*
X3175000Y25527000D01*
X3175000Y27305000D01*
X8075394Y27305000D01*
X9054197Y26326197D01*
X9095399Y26298667D01*
X9144000Y26289000D01*
X12192000Y26289000D01*
X12240601Y26298667D01*
X12281803Y26326197D01*
X12789803Y26834197D01*
X12817333Y26875399D01*
X12827000Y26924000D01*
X12827000Y35941000D01*
X17653000Y35941000D01*
X17653000Y30024606D01*
X17653000Y30024606D01*
G37*
X17653000Y30024606D02*
X17182197Y29553803D01*
X17154667Y29512601D01*
X17145000Y29464000D01*
X17145000Y19939000D01*
X16256000Y19939000D01*
X16207399Y19929333D01*
X16166197Y19901803D01*
X12139394Y15875000D01*
X3175000Y15875000D01*
X3175000Y20701000D01*
X8128000Y20701000D01*
X8176601Y20710667D01*
X8217803Y20738197D01*
X8245333Y20779399D01*
X8255000Y20828000D01*
X8255000Y25400000D01*
X8245333Y25448601D01*
X8217803Y25489803D01*
X8176601Y25517333D01*
X8128000Y25527000D01*
X3175000Y25527000D01*
X3175000Y27305000D01*
X8075394Y27305000D01*
X9054197Y26326197D01*
X9095399Y26298667D01*
X9144000Y26289000D01*
X12192000Y26289000D01*
X12240601Y26298667D01*
X12281803Y26326197D01*
X12789803Y26834197D01*
X12817333Y26875399D01*
X12827000Y26924000D01*
X12827000Y35941000D01*
X17653000Y35941000D01*
X17653000Y30024606D01*
G36*
X43561000Y30424132D02*
X43561000Y27983528D01*
X43233458Y27656557D01*
X42831458Y26688433D01*
X42830543Y25640166D01*
X43230853Y24671342D01*
X43561000Y24340618D01*
X43561000Y22352000D01*
X43570667Y22303399D01*
X43598197Y22262197D01*
X43631204Y22238408D01*
X47625000Y20241510D01*
X47625000Y15875000D01*
X38227000Y15875000D01*
X38227000Y24892000D01*
X38217333Y24940601D01*
X38189803Y24981803D01*
X38148601Y25009333D01*
X38100000Y25019000D01*
X33655000Y25019000D01*
X33655000Y35941000D01*
X37542599Y35941000D01*
X43561000Y30424132D01*
X43561000Y30424132D01*
G37*
X43561000Y30424132D02*
X43561000Y27983528D01*
X43233458Y27656557D01*
X42831458Y26688433D01*
X42830543Y25640166D01*
X43230853Y24671342D01*
X43561000Y24340618D01*
X43561000Y22352000D01*
X43570667Y22303399D01*
X43598197Y22262197D01*
X43631204Y22238408D01*
X47625000Y20241510D01*
X47625000Y15875000D01*
X38227000Y15875000D01*
X38227000Y24892000D01*
X38217333Y24940601D01*
X38189803Y24981803D01*
X38148601Y25009333D01*
X38100000Y25019000D01*
X33655000Y25019000D01*
X33655000Y35941000D01*
X37542599Y35941000D01*
X43561000Y30424132D01*
G36*
X32385000Y24384000D02*
X32394667Y24335399D01*
X32422197Y24294197D01*
X33401000Y23315394D01*
X33401000Y20263214D01*
X33020000Y20339000D01*
X32639000Y20339000D01*
X32639000Y22860000D01*
X32629333Y22908601D01*
X32601803Y22949803D01*
X29045803Y26505803D01*
X29004601Y26533333D01*
X28956000Y26543000D01*
X27492260Y26543000D01*
X27489392Y26544191D01*
X24511000Y30018981D01*
X24511000Y35941000D01*
X32385000Y35941000D01*
X32385000Y24384000D01*
X32385000Y24384000D01*
G37*
X32385000Y24384000D02*
X32394667Y24335399D01*
X32422197Y24294197D01*
X33401000Y23315394D01*
X33401000Y20263214D01*
X33020000Y20339000D01*
X32639000Y20339000D01*
X32639000Y22860000D01*
X32629333Y22908601D01*
X32601803Y22949803D01*
X29045803Y26505803D01*
X29004601Y26533333D01*
X28956000Y26543000D01*
X27492260Y26543000D01*
X27489392Y26544191D01*
X24511000Y30018981D01*
X24511000Y35941000D01*
X32385000Y35941000D01*
X32385000Y24384000D01*
G36*
X43385296Y39060741D02*
X42223340Y37900810D01*
X41593718Y36384513D01*
X41592285Y34742690D01*
X42219259Y33225296D01*
X43379190Y32063340D01*
X44895487Y31433718D01*
X46537310Y31432285D01*
X48054704Y32059259D01*
X49216660Y33219190D01*
X49836000Y34710725D01*
X49836000Y5925662D01*
X49220741Y7414704D01*
X48060810Y8576660D01*
X46544513Y9206282D01*
X44902690Y9207715D01*
X43385296Y8580741D01*
X42223340Y7420810D01*
X41593718Y5904513D01*
X41592285Y4262690D01*
X42219259Y2745296D01*
X43379190Y1583340D01*
X44870725Y964000D01*
X5925662Y964000D01*
X7414704Y1579259D01*
X8576660Y2739190D01*
X9206282Y4255487D01*
X9207715Y5897310D01*
X9125619Y6096000D01*
X15862560Y6096000D01*
X15862560Y4572000D01*
X15911843Y4324235D01*
X16052191Y4114191D01*
X16127307Y4064000D01*
X16052191Y4013809D01*
X15911843Y3803765D01*
X15862560Y3556000D01*
X15862560Y2032000D01*
X15911843Y1784235D01*
X16052191Y1574191D01*
X16262235Y1433843D01*
X16510000Y1384560D01*
X18034000Y1384560D01*
X18281765Y1433843D01*
X18491809Y1574191D01*
X18632157Y1784235D01*
X18647565Y1861698D01*
X18991809Y1930173D01*
X19241486Y2097001D01*
X24792999Y2097001D01*
X25150808Y2168174D01*
X25454144Y2370856D01*
X29172645Y6089357D01*
X29292678Y6269000D01*
X29375327Y6392693D01*
X29407375Y6553809D01*
X29446501Y6750502D01*
X29446500Y6750507D01*
X29446500Y10068616D01*
X29464000Y10094807D01*
X29514191Y10019691D01*
X29724235Y9879343D01*
X29972000Y9830060D01*
X30861000Y9830060D01*
X31108765Y9879343D01*
X31242000Y9968368D01*
X31375235Y9879343D01*
X31623000Y9830060D01*
X32512000Y9830060D01*
X32759765Y9879343D01*
X32969809Y10019691D01*
X33110157Y10229735D01*
X33159440Y10477500D01*
X33159440Y11874500D01*
X33110157Y12122265D01*
X32969809Y12332309D01*
X32759765Y12472657D01*
X32558000Y12512790D01*
X32558000Y12760829D01*
X32657820Y13001223D01*
X32658179Y13412971D01*
X32558000Y13655424D01*
X32558000Y14750459D01*
X32570440Y14813000D01*
X32570440Y16363000D01*
X32521157Y16610765D01*
X32380809Y16820809D01*
X32170765Y16961157D01*
X31923000Y17010440D01*
X31323000Y17010440D01*
X31075235Y16961157D01*
X30988000Y16902868D01*
X30900765Y16961157D01*
X30653000Y17010440D01*
X30053000Y17010440D01*
X29805235Y16961157D01*
X29718000Y16902868D01*
X29630765Y16961157D01*
X29383000Y17010440D01*
X28783000Y17010440D01*
X28535235Y16961157D01*
X28325191Y16820809D01*
X28184843Y16610765D01*
X28135560Y16363000D01*
X28135560Y15487850D01*
X26770855Y14123145D01*
X26568173Y13819809D01*
X26497000Y13462000D01*
X26497000Y12896790D01*
X25106150Y11505940D01*
X24892000Y11505940D01*
X24644235Y11456657D01*
X24434191Y11316309D01*
X24384000Y11241193D01*
X24333809Y11316309D01*
X24123765Y11456657D01*
X23876000Y11505940D01*
X22987000Y11505940D01*
X22739235Y11456657D01*
X22529191Y11316309D01*
X22388843Y11106265D01*
X22339560Y10858500D01*
X22339560Y9461500D01*
X22388843Y9213735D01*
X22455561Y9113885D01*
X22421735Y9107157D01*
X22211691Y8966809D01*
X22071343Y8756765D01*
X22022060Y8509000D01*
X22022060Y7620000D01*
X22071343Y7372235D01*
X22211691Y7162191D01*
X22421735Y7021843D01*
X22669500Y6972560D01*
X24066500Y6972560D01*
X24314265Y7021843D01*
X24524309Y7162191D01*
X24638000Y7332340D01*
X24751691Y7162191D01*
X24961735Y7021843D01*
X25209500Y6972560D01*
X26606500Y6972560D01*
X26854265Y7021843D01*
X27064309Y7162191D01*
X27204657Y7372235D01*
X27253940Y7620000D01*
X27253940Y8509000D01*
X27204657Y8756765D01*
X27064309Y8966809D01*
X26854265Y9107157D01*
X26843000Y9109398D01*
X26843000Y9588500D01*
X26771827Y9946309D01*
X26569145Y10249645D01*
X26531790Y10287000D01*
X27419560Y11174770D01*
X27419560Y10477500D01*
X27468843Y10229735D01*
X27576500Y10068616D01*
X27576500Y7137792D01*
X24405709Y3967001D01*
X18872001Y3967001D01*
X18564019Y3905739D01*
X18491809Y4013809D01*
X18416693Y4064000D01*
X18491809Y4114191D01*
X18632157Y4324235D01*
X18681440Y4572000D01*
X18681440Y6096000D01*
X18632157Y6343765D01*
X18491809Y6553809D01*
X18281765Y6694157D01*
X18034000Y6743440D01*
X16510000Y6743440D01*
X16262235Y6694157D01*
X16052191Y6553809D01*
X15911843Y6343765D01*
X15862560Y6096000D01*
X9125619Y6096000D01*
X8580741Y7414704D01*
X7420810Y8576660D01*
X5904513Y9206282D01*
X4262690Y9207715D01*
X2745296Y8580741D01*
X1583340Y7420810D01*
X964000Y5929275D01*
X964000Y10260800D01*
X13118772Y10260800D01*
X13118772Y6890800D01*
X21831629Y6890800D01*
X21831629Y10260800D01*
X13118772Y10260800D01*
X964000Y10260800D01*
X964000Y27178000D01*
X2400560Y27178000D01*
X2400560Y25654000D01*
X2413000Y25591459D01*
X2413000Y25400000D01*
X2461336Y25156996D01*
X2598987Y24950987D01*
X2804996Y24813336D01*
X3048000Y24765000D01*
X7493000Y24765000D01*
X7493000Y21463000D01*
X3048000Y21463000D01*
X2804996Y21414664D01*
X2598987Y21277013D01*
X2461336Y21071004D01*
X2413000Y20828000D01*
X2413000Y15748000D01*
X2461336Y15504996D01*
X2598987Y15298987D01*
X2804996Y15161336D01*
X3048000Y15113000D01*
X12192000Y15113000D01*
X12435004Y15161336D01*
X12641013Y15298987D01*
X16519026Y19177000D01*
X17272000Y19177000D01*
X17515004Y19225336D01*
X17721013Y19362987D01*
X17858664Y19568996D01*
X17907000Y19812000D01*
X17907000Y23876000D01*
X17958060Y23876000D01*
X17958060Y22987000D01*
X18007343Y22739235D01*
X18147691Y22529191D01*
X18357735Y22388843D01*
X18605500Y22339560D01*
X20002500Y22339560D01*
X20250265Y22388843D01*
X20411384Y22496500D01*
X20736616Y22496500D01*
X20897735Y22388843D01*
X20909000Y22386602D01*
X20909000Y21983440D01*
X19558000Y21983440D01*
X19310235Y21934157D01*
X19100191Y21793809D01*
X18959843Y21583765D01*
X18910560Y21336000D01*
X18910560Y19812000D01*
X18959843Y19564235D01*
X19100191Y19354191D01*
X19175307Y19304000D01*
X19100191Y19253809D01*
X18959843Y19043765D01*
X18910560Y18796000D01*
X18910560Y17272000D01*
X18959843Y17024235D01*
X19100191Y16814191D01*
X19302090Y16679285D01*
X19163691Y16586809D01*
X19023343Y16376765D01*
X18974060Y16129000D01*
X18974060Y15240000D01*
X19023343Y14992235D01*
X19163691Y14782191D01*
X19373735Y14641843D01*
X19621500Y14592560D01*
X21018500Y14592560D01*
X21266265Y14641843D01*
X21476309Y14782191D01*
X21590000Y14952340D01*
X21703691Y14782191D01*
X21913735Y14641843D01*
X22161500Y14592560D01*
X23558500Y14592560D01*
X23806265Y14641843D01*
X24016309Y14782191D01*
X24130000Y14952340D01*
X24243691Y14782191D01*
X24453735Y14641843D01*
X24701500Y14592560D01*
X26098500Y14592560D01*
X26346265Y14641843D01*
X26556309Y14782191D01*
X26696657Y14992235D01*
X26745940Y15240000D01*
X26745940Y16129000D01*
X26696657Y16376765D01*
X26556309Y16586809D01*
X26417910Y16679285D01*
X26619809Y16814191D01*
X26760157Y17024235D01*
X26809440Y17272000D01*
X26809440Y18796000D01*
X26760157Y19043765D01*
X26619809Y19253809D01*
X26544693Y19304000D01*
X26619809Y19354191D01*
X26760157Y19564235D01*
X26809440Y19812000D01*
X26809440Y21336000D01*
X26760157Y21583765D01*
X26619809Y21793809D01*
X26409765Y21934157D01*
X26162000Y21983440D01*
X24638000Y21983440D01*
X24390235Y21934157D01*
X24180191Y21793809D01*
X24130000Y21718693D01*
X24079809Y21793809D01*
X23869765Y21934157D01*
X23622000Y21983440D01*
X22779000Y21983440D01*
X22779000Y22063433D01*
X22987000Y22022060D01*
X23876000Y22022060D01*
X24123765Y22071343D01*
X24333809Y22211691D01*
X24384000Y22286807D01*
X24434191Y22211691D01*
X24644235Y22071343D01*
X24892000Y22022060D01*
X25781000Y22022060D01*
X26028765Y22071343D01*
X26238809Y22211691D01*
X26379157Y22421735D01*
X26428440Y22669500D01*
X26428440Y24066500D01*
X26379157Y24314265D01*
X26371500Y24325724D01*
X26371500Y24442276D01*
X26379157Y24453735D01*
X26428440Y24701500D01*
X26428440Y26098500D01*
X26379157Y26346265D01*
X26238809Y26556309D01*
X26028765Y26696657D01*
X25781000Y26745940D01*
X24892000Y26745940D01*
X24644235Y26696657D01*
X24434191Y26556309D01*
X24384000Y26481193D01*
X24333809Y26556309D01*
X24123765Y26696657D01*
X23876000Y26745940D01*
X23554830Y26745940D01*
X23483942Y26917502D01*
X23193046Y27208906D01*
X22812777Y27366807D01*
X22401029Y27367166D01*
X22020485Y27209929D01*
X21729081Y26919033D01*
X21571180Y26538764D01*
X21571111Y26459310D01*
X21524911Y26428440D01*
X21145500Y26428440D01*
X20897735Y26379157D01*
X20687691Y26238809D01*
X20547343Y26028765D01*
X20498060Y25781000D01*
X20498060Y24892000D01*
X20547343Y24644235D01*
X20687691Y24434191D01*
X20762807Y24384000D01*
X20736616Y24366500D01*
X20411384Y24366500D01*
X20250265Y24474157D01*
X20002500Y24523440D01*
X18605500Y24523440D01*
X18357735Y24474157D01*
X18147691Y24333809D01*
X18007343Y24123765D01*
X17958060Y23876000D01*
X17907000Y23876000D01*
X17907000Y29200974D01*
X18229013Y29522987D01*
X18366664Y29728996D01*
X18415000Y29972000D01*
X18415000Y29993565D01*
X18434157Y30022235D01*
X18483440Y30270000D01*
X18483440Y35770000D01*
X18434157Y36017765D01*
X18415000Y36046435D01*
X18415000Y36068000D01*
X23749000Y36068000D01*
X23749000Y29972000D01*
X23780427Y29774707D01*
X23901872Y29558747D01*
X26949872Y26002747D01*
X27188996Y25829336D01*
X27432000Y25781000D01*
X28692974Y25781000D01*
X28744034Y25729940D01*
X28448000Y25729940D01*
X28200235Y25680657D01*
X27990191Y25540309D01*
X27849843Y25330265D01*
X27800560Y25082500D01*
X27800560Y23685500D01*
X27849843Y23437735D01*
X27990191Y23227691D01*
X28200235Y23087343D01*
X28429158Y23041808D01*
X28428821Y22655029D01*
X28586058Y22274485D01*
X28876954Y21983081D01*
X29119231Y21882479D01*
X29405560Y21596150D01*
X29405560Y20213000D01*
X29454843Y19965235D01*
X29595191Y19755191D01*
X29805235Y19614843D01*
X30053000Y19565560D01*
X30653000Y19565560D01*
X30900765Y19614843D01*
X30988000Y19673132D01*
X31075235Y19614843D01*
X31323000Y19565560D01*
X31923000Y19565560D01*
X31927088Y19566373D01*
X32062987Y19362987D01*
X32268996Y19225336D01*
X32512000Y19177000D01*
X33528000Y19177000D01*
X33771004Y19225336D01*
X33977013Y19362987D01*
X34114664Y19568996D01*
X34163000Y19812000D01*
X34163000Y23368000D01*
X34114664Y23611004D01*
X33977013Y23817013D01*
X33537026Y24257000D01*
X37465000Y24257000D01*
X37465000Y23152048D01*
X37407735Y23140657D01*
X37197691Y23000309D01*
X37057343Y22790265D01*
X37008060Y22542500D01*
X37008060Y21145500D01*
X37057343Y20897735D01*
X37065000Y20886276D01*
X37065000Y20320005D01*
X37064999Y20320000D01*
X37143785Y19923923D01*
X37368144Y19588144D01*
X37465000Y19491288D01*
X37465000Y19165000D01*
X37235000Y19165000D01*
X36704983Y19059573D01*
X36525588Y18939705D01*
X36255657Y18759343D01*
X35088657Y17592343D01*
X34788427Y17143017D01*
X34683000Y16613000D01*
X34683000Y12636500D01*
X34722060Y12440132D01*
X34722060Y12192000D01*
X34771343Y11944235D01*
X34911691Y11734191D01*
X34986807Y11684000D01*
X34911691Y11633809D01*
X34771343Y11423765D01*
X34722060Y11176000D01*
X34722060Y10927868D01*
X34683000Y10731500D01*
X34683000Y9146186D01*
X34072657Y8535843D01*
X33772427Y8086517D01*
X33667000Y7556500D01*
X33667000Y6719000D01*
X33396869Y6719000D01*
X33274000Y6743440D01*
X31750000Y6743440D01*
X31502235Y6694157D01*
X31292191Y6553809D01*
X31151843Y6343765D01*
X31102560Y6096000D01*
X31102560Y4572000D01*
X31127000Y4449131D01*
X31127000Y3678869D01*
X31102560Y3556000D01*
X31102560Y2032000D01*
X31151843Y1784235D01*
X31292191Y1574191D01*
X31502235Y1433843D01*
X31750000Y1384560D01*
X33274000Y1384560D01*
X33396869Y1409000D01*
X34167131Y1409000D01*
X34290000Y1384560D01*
X35814000Y1384560D01*
X36061765Y1433843D01*
X36271809Y1574191D01*
X36412157Y1784235D01*
X36461440Y2032000D01*
X36461440Y3556000D01*
X36437000Y3678869D01*
X36437000Y4449131D01*
X36461440Y4572000D01*
X36461440Y6096000D01*
X36437000Y6218869D01*
X36437000Y6982814D01*
X36786021Y7331835D01*
X36823765Y7339343D01*
X37033809Y7479691D01*
X37174157Y7689735D01*
X37191626Y7777557D01*
X37411074Y8105984D01*
X37516500Y8636000D01*
X37453000Y8955238D01*
X37453000Y10731500D01*
X37413940Y10927868D01*
X37413940Y11176000D01*
X37364657Y11423765D01*
X37224309Y11633809D01*
X37149193Y11684000D01*
X37224309Y11734191D01*
X37364657Y11944235D01*
X37413940Y12192000D01*
X37413940Y12440132D01*
X37453000Y12636500D01*
X37453000Y16039314D01*
X37465000Y16051314D01*
X37465000Y15748000D01*
X37513336Y15504996D01*
X37650987Y15298987D01*
X37856996Y15161336D01*
X38100000Y15113000D01*
X47752000Y15113000D01*
X47995004Y15161336D01*
X48201013Y15298987D01*
X48338664Y15504996D01*
X48387000Y15748000D01*
X48387000Y20320000D01*
X48354414Y20520805D01*
X48231713Y20736053D01*
X48035981Y20887961D01*
X44323000Y22744452D01*
X44323000Y30480000D01*
X44263554Y30748258D01*
X44117085Y30948093D01*
X38021085Y36536093D01*
X37835004Y36654664D01*
X37592000Y36703000D01*
X33528000Y36703000D01*
X33284996Y36654664D01*
X33078987Y36517013D01*
X33020000Y36428733D01*
X32961013Y36517013D01*
X32755004Y36654664D01*
X32512000Y36703000D01*
X24384000Y36703000D01*
X24140996Y36654664D01*
X23934987Y36517013D01*
X23797336Y36311004D01*
X23749000Y36068000D01*
X18415000Y36068000D01*
X18366664Y36311004D01*
X18229013Y36517013D01*
X18023004Y36654664D01*
X17780000Y36703000D01*
X12700000Y36703000D01*
X12456996Y36654664D01*
X12250987Y36517013D01*
X12113336Y36311004D01*
X12065000Y36068000D01*
X12065000Y35305041D01*
X12052560Y35242500D01*
X12052560Y33845500D01*
X12065000Y33782959D01*
X12065000Y32765041D01*
X12052560Y32702500D01*
X12052560Y31305500D01*
X12065000Y31242959D01*
X12065000Y27187026D01*
X11928974Y27051000D01*
X9407026Y27051000D01*
X8577013Y27881013D01*
X8371004Y28018664D01*
X8128000Y28067000D01*
X3048000Y28067000D01*
X2804996Y28018664D01*
X2598987Y27881013D01*
X2461336Y27675004D01*
X2413000Y27432000D01*
X2413000Y27240541D01*
X2400560Y27178000D01*
X964000Y27178000D01*
X964000Y34714338D01*
X1579259Y33225296D01*
X2739190Y32063340D01*
X4255487Y31433718D01*
X5897310Y31432285D01*
X7414704Y32059259D01*
X8576660Y33219190D01*
X9206282Y34735487D01*
X9207715Y36377310D01*
X8580741Y37894704D01*
X7420810Y39056660D01*
X5929275Y39676000D01*
X44874338Y39676000D01*
X43385296Y39060741D01*
X43385296Y39060741D01*
G37*
X43385296Y39060741D02*
X42223340Y37900810D01*
X41593718Y36384513D01*
X41592285Y34742690D01*
X42219259Y33225296D01*
X43379190Y32063340D01*
X44895487Y31433718D01*
X46537310Y31432285D01*
X48054704Y32059259D01*
X49216660Y33219190D01*
X49836000Y34710725D01*
X49836000Y5925662D01*
X49220741Y7414704D01*
X48060810Y8576660D01*
X46544513Y9206282D01*
X44902690Y9207715D01*
X43385296Y8580741D01*
X42223340Y7420810D01*
X41593718Y5904513D01*
X41592285Y4262690D01*
X42219259Y2745296D01*
X43379190Y1583340D01*
X44870725Y964000D01*
X5925662Y964000D01*
X7414704Y1579259D01*
X8576660Y2739190D01*
X9206282Y4255487D01*
X9207715Y5897310D01*
X9125619Y6096000D01*
X15862560Y6096000D01*
X15862560Y4572000D01*
X15911843Y4324235D01*
X16052191Y4114191D01*
X16127307Y4064000D01*
X16052191Y4013809D01*
X15911843Y3803765D01*
X15862560Y3556000D01*
X15862560Y2032000D01*
X15911843Y1784235D01*
X16052191Y1574191D01*
X16262235Y1433843D01*
X16510000Y1384560D01*
X18034000Y1384560D01*
X18281765Y1433843D01*
X18491809Y1574191D01*
X18632157Y1784235D01*
X18647565Y1861698D01*
X18991809Y1930173D01*
X19241486Y2097001D01*
X24792999Y2097001D01*
X25150808Y2168174D01*
X25454144Y2370856D01*
X29172645Y6089357D01*
X29292678Y6269000D01*
X29375327Y6392693D01*
X29407375Y6553809D01*
X29446501Y6750502D01*
X29446500Y6750507D01*
X29446500Y10068616D01*
X29464000Y10094807D01*
X29514191Y10019691D01*
X29724235Y9879343D01*
X29972000Y9830060D01*
X30861000Y9830060D01*
X31108765Y9879343D01*
X31242000Y9968368D01*
X31375235Y9879343D01*
X31623000Y9830060D01*
X32512000Y9830060D01*
X32759765Y9879343D01*
X32969809Y10019691D01*
X33110157Y10229735D01*
X33159440Y10477500D01*
X33159440Y11874500D01*
X33110157Y12122265D01*
X32969809Y12332309D01*
X32759765Y12472657D01*
X32558000Y12512790D01*
X32558000Y12760829D01*
X32657820Y13001223D01*
X32658179Y13412971D01*
X32558000Y13655424D01*
X32558000Y14750459D01*
X32570440Y14813000D01*
X32570440Y16363000D01*
X32521157Y16610765D01*
X32380809Y16820809D01*
X32170765Y16961157D01*
X31923000Y17010440D01*
X31323000Y17010440D01*
X31075235Y16961157D01*
X30988000Y16902868D01*
X30900765Y16961157D01*
X30653000Y17010440D01*
X30053000Y17010440D01*
X29805235Y16961157D01*
X29718000Y16902868D01*
X29630765Y16961157D01*
X29383000Y17010440D01*
X28783000Y17010440D01*
X28535235Y16961157D01*
X28325191Y16820809D01*
X28184843Y16610765D01*
X28135560Y16363000D01*
X28135560Y15487850D01*
X26770855Y14123145D01*
X26568173Y13819809D01*
X26497000Y13462000D01*
X26497000Y12896790D01*
X25106150Y11505940D01*
X24892000Y11505940D01*
X24644235Y11456657D01*
X24434191Y11316309D01*
X24384000Y11241193D01*
X24333809Y11316309D01*
X24123765Y11456657D01*
X23876000Y11505940D01*
X22987000Y11505940D01*
X22739235Y11456657D01*
X22529191Y11316309D01*
X22388843Y11106265D01*
X22339560Y10858500D01*
X22339560Y9461500D01*
X22388843Y9213735D01*
X22455561Y9113885D01*
X22421735Y9107157D01*
X22211691Y8966809D01*
X22071343Y8756765D01*
X22022060Y8509000D01*
X22022060Y7620000D01*
X22071343Y7372235D01*
X22211691Y7162191D01*
X22421735Y7021843D01*
X22669500Y6972560D01*
X24066500Y6972560D01*
X24314265Y7021843D01*
X24524309Y7162191D01*
X24638000Y7332340D01*
X24751691Y7162191D01*
X24961735Y7021843D01*
X25209500Y6972560D01*
X26606500Y6972560D01*
X26854265Y7021843D01*
X27064309Y7162191D01*
X27204657Y7372235D01*
X27253940Y7620000D01*
X27253940Y8509000D01*
X27204657Y8756765D01*
X27064309Y8966809D01*
X26854265Y9107157D01*
X26843000Y9109398D01*
X26843000Y9588500D01*
X26771827Y9946309D01*
X26569145Y10249645D01*
X26531790Y10287000D01*
X27419560Y11174770D01*
X27419560Y10477500D01*
X27468843Y10229735D01*
X27576500Y10068616D01*
X27576500Y7137792D01*
X24405709Y3967001D01*
X18872001Y3967001D01*
X18564019Y3905739D01*
X18491809Y4013809D01*
X18416693Y4064000D01*
X18491809Y4114191D01*
X18632157Y4324235D01*
X18681440Y4572000D01*
X18681440Y6096000D01*
X18632157Y6343765D01*
X18491809Y6553809D01*
X18281765Y6694157D01*
X18034000Y6743440D01*
X16510000Y6743440D01*
X16262235Y6694157D01*
X16052191Y6553809D01*
X15911843Y6343765D01*
X15862560Y6096000D01*
X9125619Y6096000D01*
X8580741Y7414704D01*
X7420810Y8576660D01*
X5904513Y9206282D01*
X4262690Y9207715D01*
X2745296Y8580741D01*
X1583340Y7420810D01*
X964000Y5929275D01*
X964000Y10260800D01*
X13118772Y10260800D01*
X13118772Y6890800D01*
X21831629Y6890800D01*
X21831629Y10260800D01*
X13118772Y10260800D01*
X964000Y10260800D01*
X964000Y27178000D01*
X2400560Y27178000D01*
X2400560Y25654000D01*
X2413000Y25591459D01*
X2413000Y25400000D01*
X2461336Y25156996D01*
X2598987Y24950987D01*
X2804996Y24813336D01*
X3048000Y24765000D01*
X7493000Y24765000D01*
X7493000Y21463000D01*
X3048000Y21463000D01*
X2804996Y21414664D01*
X2598987Y21277013D01*
X2461336Y21071004D01*
X2413000Y20828000D01*
X2413000Y15748000D01*
X2461336Y15504996D01*
X2598987Y15298987D01*
X2804996Y15161336D01*
X3048000Y15113000D01*
X12192000Y15113000D01*
X12435004Y15161336D01*
X12641013Y15298987D01*
X16519026Y19177000D01*
X17272000Y19177000D01*
X17515004Y19225336D01*
X17721013Y19362987D01*
X17858664Y19568996D01*
X17907000Y19812000D01*
X17907000Y23876000D01*
X17958060Y23876000D01*
X17958060Y22987000D01*
X18007343Y22739235D01*
X18147691Y22529191D01*
X18357735Y22388843D01*
X18605500Y22339560D01*
X20002500Y22339560D01*
X20250265Y22388843D01*
X20411384Y22496500D01*
X20736616Y22496500D01*
X20897735Y22388843D01*
X20909000Y22386602D01*
X20909000Y21983440D01*
X19558000Y21983440D01*
X19310235Y21934157D01*
X19100191Y21793809D01*
X18959843Y21583765D01*
X18910560Y21336000D01*
X18910560Y19812000D01*
X18959843Y19564235D01*
X19100191Y19354191D01*
X19175307Y19304000D01*
X19100191Y19253809D01*
X18959843Y19043765D01*
X18910560Y18796000D01*
X18910560Y17272000D01*
X18959843Y17024235D01*
X19100191Y16814191D01*
X19302090Y16679285D01*
X19163691Y16586809D01*
X19023343Y16376765D01*
X18974060Y16129000D01*
X18974060Y15240000D01*
X19023343Y14992235D01*
X19163691Y14782191D01*
X19373735Y14641843D01*
X19621500Y14592560D01*
X21018500Y14592560D01*
X21266265Y14641843D01*
X21476309Y14782191D01*
X21590000Y14952340D01*
X21703691Y14782191D01*
X21913735Y14641843D01*
X22161500Y14592560D01*
X23558500Y14592560D01*
X23806265Y14641843D01*
X24016309Y14782191D01*
X24130000Y14952340D01*
X24243691Y14782191D01*
X24453735Y14641843D01*
X24701500Y14592560D01*
X26098500Y14592560D01*
X26346265Y14641843D01*
X26556309Y14782191D01*
X26696657Y14992235D01*
X26745940Y15240000D01*
X26745940Y16129000D01*
X26696657Y16376765D01*
X26556309Y16586809D01*
X26417910Y16679285D01*
X26619809Y16814191D01*
X26760157Y17024235D01*
X26809440Y17272000D01*
X26809440Y18796000D01*
X26760157Y19043765D01*
X26619809Y19253809D01*
X26544693Y19304000D01*
X26619809Y19354191D01*
X26760157Y19564235D01*
X26809440Y19812000D01*
X26809440Y21336000D01*
X26760157Y21583765D01*
X26619809Y21793809D01*
X26409765Y21934157D01*
X26162000Y21983440D01*
X24638000Y21983440D01*
X24390235Y21934157D01*
X24180191Y21793809D01*
X24130000Y21718693D01*
X24079809Y21793809D01*
X23869765Y21934157D01*
X23622000Y21983440D01*
X22779000Y21983440D01*
X22779000Y22063433D01*
X22987000Y22022060D01*
X23876000Y22022060D01*
X24123765Y22071343D01*
X24333809Y22211691D01*
X24384000Y22286807D01*
X24434191Y22211691D01*
X24644235Y22071343D01*
X24892000Y22022060D01*
X25781000Y22022060D01*
X26028765Y22071343D01*
X26238809Y22211691D01*
X26379157Y22421735D01*
X26428440Y22669500D01*
X26428440Y24066500D01*
X26379157Y24314265D01*
X26371500Y24325724D01*
X26371500Y24442276D01*
X26379157Y24453735D01*
X26428440Y24701500D01*
X26428440Y26098500D01*
X26379157Y26346265D01*
X26238809Y26556309D01*
X26028765Y26696657D01*
X25781000Y26745940D01*
X24892000Y26745940D01*
X24644235Y26696657D01*
X24434191Y26556309D01*
X24384000Y26481193D01*
X24333809Y26556309D01*
X24123765Y26696657D01*
X23876000Y26745940D01*
X23554830Y26745940D01*
X23483942Y26917502D01*
X23193046Y27208906D01*
X22812777Y27366807D01*
X22401029Y27367166D01*
X22020485Y27209929D01*
X21729081Y26919033D01*
X21571180Y26538764D01*
X21571111Y26459310D01*
X21524911Y26428440D01*
X21145500Y26428440D01*
X20897735Y26379157D01*
X20687691Y26238809D01*
X20547343Y26028765D01*
X20498060Y25781000D01*
X20498060Y24892000D01*
X20547343Y24644235D01*
X20687691Y24434191D01*
X20762807Y24384000D01*
X20736616Y24366500D01*
X20411384Y24366500D01*
X20250265Y24474157D01*
X20002500Y24523440D01*
X18605500Y24523440D01*
X18357735Y24474157D01*
X18147691Y24333809D01*
X18007343Y24123765D01*
X17958060Y23876000D01*
X17907000Y23876000D01*
X17907000Y29200974D01*
X18229013Y29522987D01*
X18366664Y29728996D01*
X18415000Y29972000D01*
X18415000Y29993565D01*
X18434157Y30022235D01*
X18483440Y30270000D01*
X18483440Y35770000D01*
X18434157Y36017765D01*
X18415000Y36046435D01*
X18415000Y36068000D01*
X23749000Y36068000D01*
X23749000Y29972000D01*
X23780427Y29774707D01*
X23901872Y29558747D01*
X26949872Y26002747D01*
X27188996Y25829336D01*
X27432000Y25781000D01*
X28692974Y25781000D01*
X28744034Y25729940D01*
X28448000Y25729940D01*
X28200235Y25680657D01*
X27990191Y25540309D01*
X27849843Y25330265D01*
X27800560Y25082500D01*
X27800560Y23685500D01*
X27849843Y23437735D01*
X27990191Y23227691D01*
X28200235Y23087343D01*
X28429158Y23041808D01*
X28428821Y22655029D01*
X28586058Y22274485D01*
X28876954Y21983081D01*
X29119231Y21882479D01*
X29405560Y21596150D01*
X29405560Y20213000D01*
X29454843Y19965235D01*
X29595191Y19755191D01*
X29805235Y19614843D01*
X30053000Y19565560D01*
X30653000Y19565560D01*
X30900765Y19614843D01*
X30988000Y19673132D01*
X31075235Y19614843D01*
X31323000Y19565560D01*
X31923000Y19565560D01*
X31927088Y19566373D01*
X32062987Y19362987D01*
X32268996Y19225336D01*
X32512000Y19177000D01*
X33528000Y19177000D01*
X33771004Y19225336D01*
X33977013Y19362987D01*
X34114664Y19568996D01*
X34163000Y19812000D01*
X34163000Y23368000D01*
X34114664Y23611004D01*
X33977013Y23817013D01*
X33537026Y24257000D01*
X37465000Y24257000D01*
X37465000Y23152048D01*
X37407735Y23140657D01*
X37197691Y23000309D01*
X37057343Y22790265D01*
X37008060Y22542500D01*
X37008060Y21145500D01*
X37057343Y20897735D01*
X37065000Y20886276D01*
X37065000Y20320005D01*
X37064999Y20320000D01*
X37143785Y19923923D01*
X37368144Y19588144D01*
X37465000Y19491288D01*
X37465000Y19165000D01*
X37235000Y19165000D01*
X36704983Y19059573D01*
X36525588Y18939705D01*
X36255657Y18759343D01*
X35088657Y17592343D01*
X34788427Y17143017D01*
X34683000Y16613000D01*
X34683000Y12636500D01*
X34722060Y12440132D01*
X34722060Y12192000D01*
X34771343Y11944235D01*
X34911691Y11734191D01*
X34986807Y11684000D01*
X34911691Y11633809D01*
X34771343Y11423765D01*
X34722060Y11176000D01*
X34722060Y10927868D01*
X34683000Y10731500D01*
X34683000Y9146186D01*
X34072657Y8535843D01*
X33772427Y8086517D01*
X33667000Y7556500D01*
X33667000Y6719000D01*
X33396869Y6719000D01*
X33274000Y6743440D01*
X31750000Y6743440D01*
X31502235Y6694157D01*
X31292191Y6553809D01*
X31151843Y6343765D01*
X31102560Y6096000D01*
X31102560Y4572000D01*
X31127000Y4449131D01*
X31127000Y3678869D01*
X31102560Y3556000D01*
X31102560Y2032000D01*
X31151843Y1784235D01*
X31292191Y1574191D01*
X31502235Y1433843D01*
X31750000Y1384560D01*
X33274000Y1384560D01*
X33396869Y1409000D01*
X34167131Y1409000D01*
X34290000Y1384560D01*
X35814000Y1384560D01*
X36061765Y1433843D01*
X36271809Y1574191D01*
X36412157Y1784235D01*
X36461440Y2032000D01*
X36461440Y3556000D01*
X36437000Y3678869D01*
X36437000Y4449131D01*
X36461440Y4572000D01*
X36461440Y6096000D01*
X36437000Y6218869D01*
X36437000Y6982814D01*
X36786021Y7331835D01*
X36823765Y7339343D01*
X37033809Y7479691D01*
X37174157Y7689735D01*
X37191626Y7777557D01*
X37411074Y8105984D01*
X37516500Y8636000D01*
X37453000Y8955238D01*
X37453000Y10731500D01*
X37413940Y10927868D01*
X37413940Y11176000D01*
X37364657Y11423765D01*
X37224309Y11633809D01*
X37149193Y11684000D01*
X37224309Y11734191D01*
X37364657Y11944235D01*
X37413940Y12192000D01*
X37413940Y12440132D01*
X37453000Y12636500D01*
X37453000Y16039314D01*
X37465000Y16051314D01*
X37465000Y15748000D01*
X37513336Y15504996D01*
X37650987Y15298987D01*
X37856996Y15161336D01*
X38100000Y15113000D01*
X47752000Y15113000D01*
X47995004Y15161336D01*
X48201013Y15298987D01*
X48338664Y15504996D01*
X48387000Y15748000D01*
X48387000Y20320000D01*
X48354414Y20520805D01*
X48231713Y20736053D01*
X48035981Y20887961D01*
X44323000Y22744452D01*
X44323000Y30480000D01*
X44263554Y30748258D01*
X44117085Y30948093D01*
X38021085Y36536093D01*
X37835004Y36654664D01*
X37592000Y36703000D01*
X33528000Y36703000D01*
X33284996Y36654664D01*
X33078987Y36517013D01*
X33020000Y36428733D01*
X32961013Y36517013D01*
X32755004Y36654664D01*
X32512000Y36703000D01*
X24384000Y36703000D01*
X24140996Y36654664D01*
X23934987Y36517013D01*
X23797336Y36311004D01*
X23749000Y36068000D01*
X18415000Y36068000D01*
X18366664Y36311004D01*
X18229013Y36517013D01*
X18023004Y36654664D01*
X17780000Y36703000D01*
X12700000Y36703000D01*
X12456996Y36654664D01*
X12250987Y36517013D01*
X12113336Y36311004D01*
X12065000Y36068000D01*
X12065000Y35305041D01*
X12052560Y35242500D01*
X12052560Y33845500D01*
X12065000Y33782959D01*
X12065000Y32765041D01*
X12052560Y32702500D01*
X12052560Y31305500D01*
X12065000Y31242959D01*
X12065000Y27187026D01*
X11928974Y27051000D01*
X9407026Y27051000D01*
X8577013Y27881013D01*
X8371004Y28018664D01*
X8128000Y28067000D01*
X3048000Y28067000D01*
X2804996Y28018664D01*
X2598987Y27881013D01*
X2461336Y27675004D01*
X2413000Y27432000D01*
X2413000Y27240541D01*
X2400560Y27178000D01*
X964000Y27178000D01*
X964000Y34714338D01*
X1579259Y33225296D01*
X2739190Y32063340D01*
X4255487Y31433718D01*
X5897310Y31432285D01*
X7414704Y32059259D01*
X8576660Y33219190D01*
X9206282Y34735487D01*
X9207715Y36377310D01*
X8580741Y37894704D01*
X7420810Y39056660D01*
X5929275Y39676000D01*
X44874338Y39676000D01*
X43385296Y39060741D01*
M02*
