*
*
G04 PADS9.0.2 Build Number: 372616 generated Gerber (RS-274-X) file*
G04 PC Version=2.1*
*
%IN "ADCmonoPPI.pcb"*%
*
%MOIN*%
*
%FSLAX35Y35*%
*
*
*
*
G04 PC Standard Apertures*
*
*
G04 Thermal Relief Aperture macro.*
%AMTER*
1,1,$1,0,0*
1,0,$1-$2,0,0*
21,0,$3,$4,0,0,45*
21,0,$3,$4,0,0,135*
%
*
*
G04 Annular Aperture macro.*
%AMANN*
1,1,$1,0,0*
1,0,$2,0,0*
%
*
*
G04 Odd Aperture macro.*
%AMODD*
1,1,$1,0,0*
1,0,$1-0.005,0,0*
%
*
*
G04 PC Custom Aperture Macros*
*
*
*
*
*
*
G04 PC Aperture Table*
*
%ADD024C,0.001*%
%ADD035C,0.065*%
%ADD037R,0.045X0.045*%
%ADD065C,0.0226*%
%ADD066R,0.061X0.061*%
%ADD067R,0.071X0.071*%
%ADD068R,0.062X0.062*%
%ADD069C,0.24213*%
%ADD070C,0.031*%
%ADD071C,0.2*%
%ADD072R,0.08465X0.08465*%
%ADD073C,0.04528*%
%ADD074C,0.10079*%
%ADD075R,0.041X0.041*%
%ADD076R,0.026X0.026*%
%ADD077C,0.10472*%
*
*
*
*
G04 PC Circuitry*
G04 Layer Name ADCmonoPPI.pcb - circuitry*
%LPD*%
*
*
G04 PC Custom Flashes*
G04 Layer Name ADCmonoPPI.pcb - flashes*
%LPD*%
*
*
G04 PC Circuitry*
G04 Layer Name ADCmonoPPI.pcb - circuitry*
%LPD*%
*
G54D24*
G54D35*
G01X169000Y176000D03*
X249000Y133000D03*
X263000Y140000D03*
X164000Y211000D03*
X171000Y247000D03*
X164000D03*
X246000Y233000D03*
X245000Y215000D03*
X212000Y229000D03*
X211000Y207000D03*
X251000Y192000D03*
X246000Y196000D03*
X208000Y243000D03*
X209000Y183000D03*
X206000Y226000D03*
X213000Y239000D03*
X206000Y219000D03*
X183385Y246518D03*
X261000Y200000D03*
X260000Y217000D03*
X261000Y233000D03*
Y243000D03*
X170000Y260000D03*
X232000Y266000D03*
X266000Y272000D03*
G54D37*
X217009Y205708D02*
Y204008D01*
X224609Y205708D02*
Y204008D01*
X170303Y241148D02*
X168603D01*
X170303Y233548D02*
X168603D01*
X198633Y223825D02*
X200333D01*
X198633Y231425D02*
X200333D01*
X254361Y186897D02*
Y185197D01*
X261961Y186897D02*
Y185197D01*
X261422Y248519D02*
Y250219D01*
X253822Y248519D02*
Y250219D01*
X246274Y185197D02*
Y186897D01*
X238674Y185197D02*
Y186897D01*
X201237Y182915D02*
X202937D01*
X201237Y190515D02*
X202937D01*
X161291Y241148D02*
X159591D01*
X161291Y233548D02*
X159591D01*
X177507Y221502D02*
X175807D01*
X177507Y213902D02*
X175807D01*
X134378Y213874D02*
X136078D01*
X134378Y221474D02*
X136078D01*
X229390Y238373D02*
X227690D01*
X229390Y230773D02*
X227690D01*
X220227Y238373D02*
X218527D01*
X220227Y230773D02*
X218527D01*
X194371Y212946D02*
Y211746D01*
X201971Y212946D02*
Y211746D01*
X163800Y179400D02*
Y180600D01*
X156200Y179400D02*
Y180600D01*
X188607Y203002D02*
Y201802D01*
X196207Y203002D02*
Y201802D01*
X184128Y213874D02*
X185328D01*
X184128Y221474D02*
X185328D01*
X144039Y221502D02*
X142839D01*
X144039Y213902D02*
X142839D01*
X145400Y243800D02*
X144200D01*
X145400Y236200D02*
X144200D01*
X163800Y259400D02*
Y260600D01*
X156200Y259400D02*
Y260600D01*
X144200Y196200D02*
X145400D01*
X144200Y203800D02*
X145400D01*
X211968Y214937D02*
Y213237D01*
X219568Y214937D02*
Y213237D01*
X211968Y223286D02*
Y221586D01*
X219568Y223286D02*
Y221586D01*
X264309Y277346D02*
Y278546D01*
X256709Y277346D02*
Y278546D01*
X251799Y270458D02*
Y269258D01*
X259399Y270458D02*
Y269258D01*
X248044Y262660D02*
Y261460D01*
X255644Y262660D02*
Y261460D01*
X237068Y270458D02*
Y269258D01*
X244668Y270458D02*
Y269258D01*
G54D65*
X237376Y195159D02*
X240053D01*
X237376Y197127D02*
X240053D01*
X237376Y199096D02*
X240053D01*
X237376Y201064D02*
X240053D01*
X237376Y203033D02*
X240053D01*
X237376Y205001D02*
X240053D01*
X237376Y206970D02*
X240053D01*
X237376Y208938D02*
X240053D01*
X237376Y210907D02*
X240053D01*
X237376Y212875D02*
X240053D01*
X237376Y214844D02*
X240053D01*
X237376Y216812D02*
X240053D01*
X237376Y218781D02*
X240053D01*
X237376Y220749D02*
X240053D01*
X237376Y222718D02*
X240053D01*
X237376Y224686D02*
X240053D01*
X237376Y226655D02*
X240053D01*
X237376Y228624D02*
X240053D01*
X237376Y230592D02*
X240053D01*
X237376Y232561D02*
X240053D01*
X237376Y234529D02*
X240053D01*
X237376Y236498D02*
X240053D01*
X237376Y238466D02*
X240053D01*
X237376Y240435D02*
X240053D01*
X265329D02*
X268006D01*
X265329Y238466D02*
X268006D01*
X265329Y236498D02*
X268006D01*
X265329Y234529D02*
X268006D01*
X265329Y232561D02*
X268006D01*
X265329Y230592D02*
X268006D01*
X265329Y228624D02*
X268006D01*
X265329Y226655D02*
X268006D01*
X265329Y224686D02*
X268006D01*
X265329Y222718D02*
X268006D01*
X265329Y220749D02*
X268006D01*
X265329Y218781D02*
X268006D01*
X265329Y216812D02*
X268006D01*
X265329Y214844D02*
X268006D01*
X265329Y212875D02*
X268006D01*
X265329Y210907D02*
X268006D01*
X265329Y208938D02*
X268006D01*
X265329Y206970D02*
X268006D01*
X265329Y205001D02*
X268006D01*
X265329Y203033D02*
X268006D01*
X265329Y201064D02*
X268006D01*
X265329Y199096D02*
X268006D01*
X265329Y197127D02*
X268006D01*
X265329Y195159D02*
X268006D01*
G54D66*
X178885Y233518D02*
X183385D01*
X178885Y246518D02*
X183385D01*
X265714Y153983D02*
X261214D01*
X265714Y140983D02*
X261214D01*
X205857Y264324D02*
Y268824D01*
X192857Y264324D02*
Y268824D01*
G54D67*
X309000Y134000D03*
X319000D03*
X309000Y234000D03*
X319000D03*
X309000Y244000D03*
X319000D03*
X309000Y254000D03*
X319000D03*
X309000Y264000D03*
X319000D03*
X309000Y274000D03*
X319000D03*
X309000Y284000D03*
X319000D03*
X309000Y294000D03*
X319000D03*
X309000Y304000D03*
X319000D03*
X191000Y298000D03*
Y288000D03*
X181000Y298000D03*
Y288000D03*
X171000Y298000D03*
Y288000D03*
X235000Y135000D03*
X225000D03*
X235000Y145000D03*
X225000D03*
X235000Y155000D03*
X225000D03*
X319000Y144000D03*
X309000D03*
X235008Y251459D03*
X225008D03*
X215008D03*
X309000Y154000D03*
X319000D03*
X309000Y164000D03*
X319000D03*
X309000Y174000D03*
X319000D03*
X309000Y184000D03*
X319000D03*
X309000Y194000D03*
X319000D03*
X309000Y204000D03*
X319000D03*
X309000Y224000D03*
X319000D03*
X244463Y174699D03*
X234463D03*
X224463D03*
X309000Y214000D03*
X319000D03*
G54D68*
X199465Y252386D02*
X194365D01*
X199465Y242386D02*
X194365D01*
G54D69*
X140000Y300000D03*
Y140000D03*
X340000D03*
Y300000D03*
G54D70*
X152526Y227521D02*
Y223021D01*
X157526Y227521D02*
Y223021D01*
X162526Y227521D02*
Y223021D01*
X167526Y227521D02*
Y223021D01*
Y206121D02*
Y201621D01*
X162526Y206121D02*
Y201621D01*
X157526Y206121D02*
Y201621D01*
X152526Y206121D02*
Y201621D01*
G54D71*
X342000Y180000D03*
X341000Y265500D03*
G54D72*
X249580Y153456D02*
Y153063D01*
Y133378D02*
Y132984D01*
X180867Y277159D02*
Y276765D01*
Y257080D02*
Y256687D01*
G54D73*
X264100Y285656D02*
Y286444D01*
X259100Y291562D02*
Y292349D01*
X254100Y291562D02*
Y292349D01*
X249100Y285656D02*
Y286444D01*
X244100Y291562D02*
Y292349D01*
X239100Y291562D02*
Y292349D01*
X234100Y285656D02*
Y286444D01*
G54D74*
X223273Y295892D03*
X273785Y291955D03*
G54D75*
X226226Y214795D02*
X226726D01*
X226226Y220795D02*
X226726D01*
G54D76*
X231923Y219679D03*
Y223679D03*
X231872Y211342D03*
Y215342D03*
G54D77*
X144800Y260000D03*
X134800Y250000D03*
X154800D03*
Y270000D03*
X134800D03*
X144800Y180000D03*
X134800Y170000D03*
X154800D03*
Y190000D03*
X134800D03*
X0Y0D02*
M02*
