%
T1C.035F197S55
X0135Y0165
X0145Y0165
X0135Y0175
X0145Y0175
X0135Y0185
X0145Y0185
X0135Y0195
X0145Y0195
X0135Y0205
X0145Y0205
X0135Y0215
X0145Y0215
X0135Y0225
X0145Y0225
X0135Y0235
X0145Y0235
X0184Y0265
X0174Y0265
X0164Y0265
X0174Y0255
X0184Y0255
X0164Y0255
X0165Y0235
X0165Y0225
X0165Y0215
X0165Y0205
X0165Y0195
X0165Y0185
X0165Y0175
X0165Y0165
X01625Y015
X01975Y015
X0195Y0165
X0195Y0175
X0195Y0185
X0195Y0195
X0195Y0205
X0195Y0215
X0195Y0225
X0195Y0235
X0198Y024614
X0198Y026586
X0225Y0235
X0215Y0235
X0225Y0225
X0215Y0225
X0215Y0215
X0225Y0215
X0225Y0205
X0215Y0205
X0215Y0195
X0225Y0195
X0225Y0185
X0215Y0185
X0215Y0175
X0225Y0175
X0215Y0165
X0225Y0165
T2C.12598F035S794
X014Y014
X014Y026
X022Y026
X022Y014
M30
