%
M48
M72
T01C0.0350
T02C0.0360
T03C0.1260
%
T01
X2110Y9385
X2110Y10385
X2110Y11385
X2110Y12385
X3110Y12385
X3110Y11385
X3110Y10385
X3110Y9385
X5610Y14585
X5610Y15585
X6610Y15585
X6610Y14585
X7610Y14585
X7610Y15585
X11110Y10260
X11110Y9260
X11110Y8260
X11110Y7260
X11110Y6260
X10110Y6260
X10110Y7260
X10110Y8260
X10110Y9260
T02
X10110Y10260
T03
X2610Y3085
X10610Y3085
X10610Y15085
X2610Y15085
M30
