G75*
G70*
%OFA0B0*%
%FSLAX24Y24*%
%IPPOS*%
%LPD*%
%AMOC8*
5,1,8,0,0,1.08239X$1,22.5*
%
%ADD10C,0.0357*%
%ADD11R,0.1500X0.1500*%
%ADD12R,0.0650X0.0650*%
%ADD13C,0.2540*%
%ADD14C,0.0120*%
%ADD15C,0.0317*%
%ADD16C,0.0100*%
D10*
X005973Y008509D03*
X005973Y008785D03*
X005973Y009061D03*
D11*
X003754Y009546D03*
X003754Y007577D03*
X001785Y007577D03*
X001785Y009546D03*
X008386Y009609D03*
X008386Y011577D03*
X010355Y011577D03*
X010355Y009609D03*
X010355Y007640D03*
X010355Y005672D03*
X008386Y005672D03*
X008386Y007640D03*
D12*
X005292Y003660D03*
X005292Y002660D03*
X005292Y001660D03*
X006292Y001660D03*
X006292Y002660D03*
X007410Y002660D03*
X007410Y001660D03*
X008410Y001660D03*
X008410Y002660D03*
X004292Y002660D03*
X004292Y001660D03*
X004410Y013660D03*
X004410Y014660D03*
X005410Y014660D03*
X005410Y013660D03*
X006410Y013660D03*
X006410Y014660D03*
X007410Y014660D03*
X007410Y013660D03*
X008410Y013660D03*
X008410Y014660D03*
D13*
X010410Y014160D03*
X002410Y014160D03*
X002410Y002160D03*
X010410Y002160D03*
D14*
X000770Y000520D02*
X000770Y015800D01*
X012050Y015800D01*
X012050Y000520D01*
X000770Y000520D01*
X000770Y000634D02*
X012050Y000634D01*
X012050Y000753D02*
X000770Y000753D01*
X000770Y000871D02*
X002078Y000871D01*
X002086Y000868D02*
X002215Y000843D01*
X002345Y000830D01*
X002350Y000830D01*
X002350Y002100D01*
X002470Y002100D01*
X002470Y002220D01*
X003740Y002220D01*
X003740Y002225D01*
X003727Y002355D01*
X003702Y002484D01*
X003664Y002609D01*
X003614Y002729D01*
X003552Y002845D01*
X003480Y002953D01*
X003397Y003054D01*
X003304Y003147D01*
X003203Y003230D01*
X003095Y003302D01*
X002979Y003364D01*
X002859Y003414D01*
X002734Y003452D01*
X002605Y003477D01*
X002475Y003490D01*
X002470Y003490D01*
X002470Y002220D01*
X002350Y002220D01*
X002350Y003490D01*
X002345Y003490D01*
X002215Y003477D01*
X002086Y003452D01*
X001961Y003414D01*
X001841Y003364D01*
X001725Y003302D01*
X001617Y003230D01*
X001516Y003147D01*
X001423Y003054D01*
X001340Y002953D01*
X001268Y002845D01*
X001206Y002729D01*
X001156Y002609D01*
X001118Y002484D01*
X001093Y002355D01*
X001080Y002225D01*
X001080Y002220D01*
X002350Y002220D01*
X002350Y002100D01*
X001080Y002100D01*
X001080Y002095D01*
X001093Y001965D01*
X001118Y001836D01*
X001156Y001711D01*
X001206Y001591D01*
X001268Y001475D01*
X001340Y001367D01*
X001423Y001266D01*
X001516Y001173D01*
X001617Y001090D01*
X001725Y001018D01*
X001841Y000956D01*
X001961Y000906D01*
X002086Y000868D01*
X002350Y000871D02*
X002470Y000871D01*
X002470Y000830D02*
X002475Y000830D01*
X002605Y000843D01*
X002734Y000868D01*
X002859Y000906D01*
X002979Y000956D01*
X003095Y001018D01*
X003203Y001090D01*
X003304Y001173D01*
X003397Y001266D01*
X003480Y001367D01*
X003552Y001475D01*
X003614Y001591D01*
X003664Y001711D01*
X003702Y001836D01*
X003727Y001965D01*
X003740Y002095D01*
X003740Y002100D01*
X002470Y002100D01*
X002470Y000830D01*
X002470Y000990D02*
X002350Y000990D01*
X002350Y001108D02*
X002470Y001108D01*
X002470Y001227D02*
X002350Y001227D01*
X002350Y001345D02*
X002470Y001345D01*
X002470Y001464D02*
X002350Y001464D01*
X002350Y001582D02*
X002470Y001582D01*
X002470Y001701D02*
X002350Y001701D01*
X002350Y001819D02*
X002470Y001819D01*
X002470Y001938D02*
X002350Y001938D01*
X002350Y002056D02*
X002470Y002056D01*
X002470Y002175D02*
X010350Y002175D01*
X010350Y002220D02*
X010350Y002100D01*
X010470Y002100D01*
X010470Y002220D01*
X011740Y002220D01*
X011740Y002225D01*
X011727Y002355D01*
X011702Y002484D01*
X011664Y002609D01*
X011614Y002729D01*
X011552Y002845D01*
X011480Y002953D01*
X011397Y003054D01*
X011304Y003147D01*
X011203Y003230D01*
X011095Y003302D01*
X010979Y003364D01*
X010859Y003414D01*
X010734Y003452D01*
X010605Y003477D01*
X010475Y003490D01*
X010470Y003490D01*
X010470Y002220D01*
X010350Y002220D01*
X010350Y003490D01*
X010345Y003490D01*
X010215Y003477D01*
X010086Y003452D01*
X009961Y003414D01*
X009841Y003364D01*
X009725Y003302D01*
X009617Y003230D01*
X009516Y003147D01*
X009423Y003054D01*
X009340Y002953D01*
X009268Y002845D01*
X009206Y002729D01*
X009156Y002609D01*
X009118Y002484D01*
X009093Y002355D01*
X009080Y002225D01*
X009080Y002220D01*
X010350Y002220D01*
X010350Y002293D02*
X010470Y002293D01*
X010470Y002175D02*
X012050Y002175D01*
X012050Y002293D02*
X011733Y002293D01*
X011716Y002412D02*
X012050Y002412D01*
X012050Y002530D02*
X011688Y002530D01*
X011647Y002649D02*
X012050Y002649D01*
X012050Y002767D02*
X011594Y002767D01*
X011525Y002886D02*
X012050Y002886D01*
X012050Y003004D02*
X011438Y003004D01*
X011328Y003123D02*
X012050Y003123D01*
X012050Y003241D02*
X011186Y003241D01*
X010987Y003360D02*
X012050Y003360D01*
X012050Y003478D02*
X010597Y003478D01*
X010470Y003478D02*
X010350Y003478D01*
X010350Y003360D02*
X010470Y003360D01*
X010470Y003241D02*
X010350Y003241D01*
X010350Y003123D02*
X010470Y003123D01*
X010470Y003004D02*
X010350Y003004D01*
X010350Y002886D02*
X010470Y002886D01*
X010470Y002767D02*
X010350Y002767D01*
X010350Y002649D02*
X010470Y002649D01*
X010470Y002530D02*
X010350Y002530D01*
X010350Y002412D02*
X010470Y002412D01*
X010470Y002100D02*
X011740Y002100D01*
X011740Y002095D01*
X011727Y001965D01*
X011702Y001836D01*
X011664Y001711D01*
X011614Y001591D01*
X011552Y001475D01*
X011480Y001367D01*
X011397Y001266D01*
X011304Y001173D01*
X011203Y001090D01*
X011095Y001018D01*
X010979Y000956D01*
X010859Y000906D01*
X010734Y000868D01*
X010605Y000843D01*
X010475Y000830D01*
X010470Y000830D01*
X010470Y002100D01*
X010470Y002056D02*
X010350Y002056D01*
X010350Y002100D02*
X010350Y000830D01*
X010345Y000830D01*
X010215Y000843D01*
X010086Y000868D01*
X009961Y000906D01*
X009841Y000956D01*
X009725Y001018D01*
X009617Y001090D01*
X009516Y001173D01*
X009423Y001266D01*
X009340Y001367D01*
X009268Y001475D01*
X009206Y001591D01*
X009156Y001711D01*
X009118Y001836D01*
X009093Y001965D01*
X009080Y002095D01*
X009080Y002100D01*
X010350Y002100D01*
X010350Y001938D02*
X010470Y001938D01*
X010470Y001819D02*
X010350Y001819D01*
X010350Y001701D02*
X010470Y001701D01*
X010470Y001582D02*
X010350Y001582D01*
X010350Y001464D02*
X010470Y001464D01*
X010470Y001345D02*
X010350Y001345D01*
X010350Y001227D02*
X010470Y001227D01*
X010470Y001108D02*
X010350Y001108D01*
X010350Y000990D02*
X010470Y000990D01*
X010470Y000871D02*
X010350Y000871D01*
X010078Y000871D02*
X002742Y000871D01*
X003042Y000990D02*
X009778Y000990D01*
X009595Y001108D02*
X003225Y001108D01*
X003357Y001227D02*
X004906Y001227D01*
X004917Y001215D02*
X005667Y001215D01*
X005737Y001285D01*
X005737Y002035D01*
X005667Y002105D01*
X004917Y002105D01*
X004847Y002035D01*
X004847Y001285D01*
X004917Y001215D01*
X004847Y001345D02*
X004677Y001345D01*
X004677Y001323D02*
X004677Y001632D01*
X004319Y001632D01*
X004319Y001275D01*
X004629Y001275D01*
X004651Y001284D01*
X004668Y001301D01*
X004677Y001323D01*
X004677Y001464D02*
X004847Y001464D01*
X004847Y001582D02*
X004677Y001582D01*
X004677Y001688D02*
X004677Y001997D01*
X004668Y002019D01*
X004651Y002036D01*
X004629Y002045D01*
X004319Y002045D01*
X004319Y001688D01*
X004264Y001688D01*
X004264Y002045D01*
X003955Y002045D01*
X003933Y002036D01*
X003916Y002019D01*
X003907Y001997D01*
X003907Y001688D01*
X004264Y001688D01*
X004264Y001632D01*
X004319Y001632D01*
X004319Y001688D01*
X004677Y001688D01*
X004677Y001701D02*
X004847Y001701D01*
X004847Y001819D02*
X004677Y001819D01*
X004677Y001938D02*
X004847Y001938D01*
X004868Y002056D02*
X003736Y002056D01*
X003722Y001938D02*
X003907Y001938D01*
X003907Y001819D02*
X003696Y001819D01*
X003659Y001701D02*
X003907Y001701D01*
X003907Y001632D02*
X003907Y001323D01*
X003916Y001301D01*
X003933Y001284D01*
X003955Y001275D01*
X004264Y001275D01*
X004264Y001632D01*
X003907Y001632D01*
X003907Y001582D02*
X003609Y001582D01*
X003544Y001464D02*
X003907Y001464D01*
X003907Y001345D02*
X003462Y001345D01*
X003733Y002293D02*
X003924Y002293D01*
X003916Y002301D02*
X003933Y002284D01*
X003955Y002275D01*
X004264Y002275D01*
X004264Y002632D01*
X004319Y002632D01*
X004319Y002275D01*
X004629Y002275D01*
X004651Y002284D01*
X004668Y002301D01*
X004677Y002323D01*
X004677Y002632D01*
X004319Y002632D01*
X004319Y002688D01*
X004264Y002688D01*
X004264Y003045D01*
X003955Y003045D01*
X003933Y003036D01*
X003916Y003019D01*
X003907Y002997D01*
X003907Y002688D01*
X004264Y002688D01*
X004264Y002632D01*
X003907Y002632D01*
X003907Y002323D01*
X003916Y002301D01*
X003907Y002412D02*
X003716Y002412D01*
X003688Y002530D02*
X003907Y002530D01*
X003907Y002767D02*
X003594Y002767D01*
X003647Y002649D02*
X004264Y002649D01*
X004319Y002649D02*
X004847Y002649D01*
X004847Y002767D02*
X004677Y002767D01*
X004677Y002688D02*
X004677Y002997D01*
X004668Y003019D01*
X004651Y003036D01*
X004629Y003045D01*
X004319Y003045D01*
X004319Y002688D01*
X004677Y002688D01*
X004677Y002530D02*
X004847Y002530D01*
X004847Y002412D02*
X004677Y002412D01*
X004660Y002293D02*
X004847Y002293D01*
X004847Y002285D02*
X004917Y002215D01*
X005667Y002215D01*
X005737Y002285D01*
X005737Y003035D01*
X005667Y003105D01*
X004917Y003105D01*
X004847Y003035D01*
X004847Y002285D01*
X004847Y002886D02*
X004677Y002886D01*
X004674Y003004D02*
X004847Y003004D01*
X004917Y003215D02*
X005667Y003215D01*
X005737Y003285D01*
X005737Y004035D01*
X005667Y004105D01*
X004917Y004105D01*
X004847Y004035D01*
X004847Y003285D01*
X004917Y003215D01*
X004891Y003241D02*
X003186Y003241D01*
X003328Y003123D02*
X007178Y003123D01*
X007178Y003105D02*
X007035Y003105D01*
X006965Y003035D01*
X006965Y002285D01*
X007035Y002215D01*
X007785Y002215D01*
X007855Y002285D01*
X007855Y003035D01*
X007785Y003105D01*
X007517Y003105D01*
X007517Y003730D01*
X007418Y003830D01*
X007168Y004080D01*
X006605Y004080D01*
X006570Y004115D01*
X008090Y004115D01*
X008240Y003965D01*
X008240Y003105D01*
X008035Y003105D01*
X007965Y003035D01*
X007965Y002285D01*
X008035Y002215D01*
X008785Y002215D01*
X008855Y002285D01*
X008855Y003035D01*
X008785Y003105D01*
X008580Y003105D01*
X008580Y004105D01*
X008480Y004205D01*
X008230Y004455D01*
X006605Y004455D01*
X006230Y004830D01*
X005355Y004830D01*
X005142Y005043D01*
X005142Y007811D01*
X005209Y007877D01*
X005251Y007980D01*
X005251Y008090D01*
X005209Y008193D01*
X005130Y008271D01*
X005028Y008314D01*
X004997Y008314D01*
X004929Y008381D01*
X005028Y008381D01*
X005130Y008424D01*
X005187Y008480D01*
X005297Y008480D01*
X005402Y008585D01*
X005485Y008668D01*
X005590Y008773D01*
X005590Y011335D01*
X005610Y011355D01*
X006235Y011355D01*
X006340Y011460D01*
X006340Y011460D01*
X007735Y012855D01*
X008235Y012855D01*
X008485Y013105D01*
X008590Y013210D01*
X008590Y013215D01*
X008785Y013215D01*
X008855Y013285D01*
X008855Y014035D01*
X008785Y014105D01*
X008580Y014105D01*
X008580Y014215D01*
X008785Y014215D01*
X008855Y014285D01*
X008855Y015035D01*
X008785Y015105D01*
X008035Y015105D01*
X007965Y015035D01*
X007965Y014285D01*
X008035Y014215D01*
X008240Y014215D01*
X008240Y014105D01*
X008035Y014105D01*
X007965Y014035D01*
X007965Y013285D01*
X008035Y013215D01*
X008085Y013215D01*
X007590Y013215D01*
X007785Y013215D01*
X007855Y013285D01*
X007855Y014035D01*
X007785Y014105D01*
X007590Y014105D01*
X007590Y014215D01*
X007785Y014215D01*
X007855Y014285D01*
X007855Y015035D01*
X007785Y015105D01*
X007035Y015105D01*
X006965Y015035D01*
X006965Y014285D01*
X007035Y014215D01*
X007230Y014215D01*
X007230Y014105D01*
X007035Y014105D01*
X006965Y014035D01*
X006965Y013285D01*
X007035Y013215D01*
X007085Y013215D01*
X006590Y012720D01*
X006590Y013215D01*
X006785Y013215D01*
X006855Y013285D01*
X006855Y014035D01*
X006785Y014105D01*
X006590Y014105D01*
X006590Y014215D01*
X006785Y014215D01*
X006855Y014285D01*
X006855Y015035D01*
X006785Y015105D01*
X006035Y015105D01*
X005965Y015035D01*
X005965Y014285D01*
X006035Y014215D01*
X006230Y014215D01*
X006230Y014105D01*
X006035Y014105D01*
X005965Y014035D01*
X005965Y013285D01*
X006035Y013215D01*
X006230Y013215D01*
X006230Y012735D01*
X005835Y012340D01*
X005124Y012340D01*
X005068Y012396D01*
X004965Y012439D01*
X004855Y012439D01*
X004752Y012396D01*
X004674Y012318D01*
X004631Y012215D01*
X004631Y012105D01*
X004667Y012019D01*
X004580Y012105D01*
X004580Y013215D01*
X004785Y013215D01*
X004855Y013285D01*
X004855Y014035D01*
X004785Y014105D01*
X004035Y014105D01*
X003965Y014035D01*
X003965Y013285D01*
X004035Y013215D01*
X004240Y013215D01*
X004240Y011965D01*
X004490Y011715D01*
X004490Y010356D01*
X003814Y010356D01*
X003814Y009606D01*
X003694Y009606D01*
X003694Y010356D01*
X002992Y010356D01*
X002970Y010347D01*
X002953Y010330D01*
X002944Y010308D01*
X002944Y009606D01*
X003693Y009606D01*
X003693Y009486D01*
X002944Y009486D01*
X002944Y008784D01*
X002953Y008762D01*
X002970Y008745D01*
X002992Y008736D01*
X003694Y008736D01*
X003694Y009486D01*
X003814Y009486D01*
X003814Y008736D01*
X004490Y008736D01*
X004490Y008387D01*
X003814Y008387D01*
X003814Y007637D01*
X004564Y007637D01*
X004564Y008266D01*
X004707Y008123D01*
X004694Y008090D01*
X004694Y007980D01*
X004736Y007877D01*
X004803Y007811D01*
X004803Y006618D01*
X004771Y006693D01*
X004693Y006771D01*
X004590Y006814D01*
X004563Y006814D01*
X004564Y006815D01*
X004564Y007517D01*
X003814Y007517D01*
X003814Y007637D01*
X003694Y007637D01*
X003694Y008387D01*
X002992Y008387D01*
X002970Y008378D01*
X002953Y008361D01*
X002944Y008339D01*
X002944Y007637D01*
X003693Y007637D01*
X003693Y007517D01*
X002944Y007517D01*
X002944Y006815D01*
X002953Y006793D01*
X002970Y006776D01*
X002992Y006767D01*
X003694Y006767D01*
X003694Y007517D01*
X003814Y007517D01*
X003814Y006767D01*
X004373Y006767D01*
X004299Y006693D01*
X004256Y006590D01*
X004256Y006480D01*
X004299Y006377D01*
X004365Y006311D01*
X004365Y004402D01*
X004490Y004277D01*
X004590Y004178D01*
X006027Y004178D01*
X006365Y003840D01*
X006465Y003740D01*
X007027Y003740D01*
X007178Y003590D01*
X007178Y003105D01*
X007178Y003241D02*
X005693Y003241D01*
X005737Y003360D02*
X007178Y003360D01*
X007178Y003478D02*
X005737Y003478D01*
X005737Y003597D02*
X007171Y003597D01*
X007052Y003715D02*
X005737Y003715D01*
X005737Y003834D02*
X006371Y003834D01*
X006253Y003952D02*
X005737Y003952D01*
X005701Y004071D02*
X006134Y004071D01*
X006516Y004545D02*
X012050Y004545D01*
X012050Y004663D02*
X006397Y004663D01*
X006279Y004782D02*
X012050Y004782D01*
X012050Y004900D02*
X011225Y004900D01*
X011225Y004872D02*
X011225Y006472D01*
X011155Y006542D01*
X009555Y006542D01*
X009485Y006472D01*
X009485Y004872D01*
X009555Y004802D01*
X011155Y004802D01*
X011225Y004872D01*
X011225Y005019D02*
X012050Y005019D01*
X012050Y005137D02*
X011225Y005137D01*
X011225Y005256D02*
X012050Y005256D01*
X012050Y005374D02*
X011225Y005374D01*
X011225Y005493D02*
X012050Y005493D01*
X012050Y005611D02*
X011225Y005611D01*
X011225Y005730D02*
X012050Y005730D01*
X012050Y005848D02*
X011225Y005848D01*
X011225Y005967D02*
X012050Y005967D01*
X012050Y006085D02*
X011225Y006085D01*
X011225Y006204D02*
X012050Y006204D01*
X012050Y006322D02*
X011225Y006322D01*
X011225Y006441D02*
X012050Y006441D01*
X012050Y006559D02*
X005142Y006559D01*
X005142Y006441D02*
X007516Y006441D01*
X007516Y006472D02*
X007587Y006542D01*
X009186Y006542D01*
X009256Y006472D01*
X009256Y004872D01*
X009186Y004802D01*
X007587Y004802D01*
X007516Y004872D01*
X007516Y006472D01*
X007516Y006322D02*
X005142Y006322D01*
X005142Y006204D02*
X007516Y006204D01*
X007516Y006085D02*
X005142Y006085D01*
X005142Y005967D02*
X007516Y005967D01*
X007516Y005848D02*
X005142Y005848D01*
X005142Y005730D02*
X007516Y005730D01*
X007516Y005611D02*
X005142Y005611D01*
X005142Y005493D02*
X007516Y005493D01*
X007516Y005374D02*
X005142Y005374D01*
X005142Y005256D02*
X007516Y005256D01*
X007516Y005137D02*
X005142Y005137D01*
X005167Y005019D02*
X007516Y005019D01*
X007516Y004900D02*
X005285Y004900D01*
X004883Y004071D02*
X000770Y004071D01*
X000770Y004189D02*
X004578Y004189D01*
X004460Y004308D02*
X000770Y004308D01*
X000770Y004426D02*
X004365Y004426D01*
X004365Y004545D02*
X000770Y004545D01*
X000770Y004663D02*
X004365Y004663D01*
X004365Y004782D02*
X000770Y004782D01*
X000770Y004900D02*
X004365Y004900D01*
X004365Y005019D02*
X000770Y005019D01*
X000770Y005137D02*
X004365Y005137D01*
X004365Y005256D02*
X000770Y005256D01*
X000770Y005374D02*
X004365Y005374D01*
X004365Y005493D02*
X000770Y005493D01*
X000770Y005611D02*
X004365Y005611D01*
X004365Y005730D02*
X000770Y005730D01*
X000770Y005848D02*
X004365Y005848D01*
X004365Y005967D02*
X000770Y005967D01*
X000770Y006085D02*
X004365Y006085D01*
X004365Y006204D02*
X000770Y006204D01*
X000770Y006322D02*
X004354Y006322D01*
X004272Y006441D02*
X000770Y006441D01*
X000770Y006559D02*
X004256Y006559D01*
X004292Y006678D02*
X000770Y006678D01*
X000770Y006796D02*
X000915Y006796D01*
X000915Y006778D02*
X000985Y006707D01*
X002585Y006707D01*
X002655Y006778D01*
X002655Y008377D01*
X002585Y008447D01*
X000985Y008447D01*
X000915Y008377D01*
X000915Y006778D01*
X000915Y006915D02*
X000770Y006915D01*
X000770Y007033D02*
X000915Y007033D01*
X000915Y007152D02*
X000770Y007152D01*
X000770Y007270D02*
X000915Y007270D01*
X000915Y007389D02*
X000770Y007389D01*
X000770Y007507D02*
X000915Y007507D01*
X000915Y007626D02*
X000770Y007626D01*
X000770Y007744D02*
X000915Y007744D01*
X000915Y007863D02*
X000770Y007863D01*
X000770Y007981D02*
X000915Y007981D01*
X000915Y008100D02*
X000770Y008100D01*
X000770Y008218D02*
X000915Y008218D01*
X000915Y008337D02*
X000770Y008337D01*
X000770Y008455D02*
X004490Y008455D01*
X004490Y008574D02*
X000770Y008574D01*
X000770Y008692D02*
X000969Y008692D01*
X000985Y008676D02*
X000915Y008746D01*
X000915Y010346D01*
X000985Y010416D01*
X002585Y010416D01*
X002655Y010346D01*
X002655Y008746D01*
X002585Y008676D01*
X000985Y008676D01*
X000915Y008811D02*
X000770Y008811D01*
X000770Y008929D02*
X000915Y008929D01*
X000915Y009048D02*
X000770Y009048D01*
X000770Y009166D02*
X000915Y009166D01*
X000915Y009285D02*
X000770Y009285D01*
X000770Y009403D02*
X000915Y009403D01*
X000915Y009522D02*
X000770Y009522D01*
X000770Y009640D02*
X000915Y009640D01*
X000915Y009759D02*
X000770Y009759D01*
X000770Y009877D02*
X000915Y009877D01*
X000915Y009996D02*
X000770Y009996D01*
X000770Y010114D02*
X000915Y010114D01*
X000915Y010233D02*
X000770Y010233D01*
X000770Y010351D02*
X000920Y010351D01*
X000770Y010470D02*
X004490Y010470D01*
X004490Y010588D02*
X000770Y010588D01*
X000770Y010707D02*
X004490Y010707D01*
X004490Y010825D02*
X000770Y010825D01*
X000770Y010944D02*
X004490Y010944D01*
X004490Y011062D02*
X000770Y011062D01*
X000770Y011181D02*
X004490Y011181D01*
X004490Y011299D02*
X000770Y011299D01*
X000770Y011418D02*
X004490Y011418D01*
X004490Y011536D02*
X000770Y011536D01*
X000770Y011655D02*
X004490Y011655D01*
X004432Y011773D02*
X000770Y011773D01*
X000770Y011892D02*
X004313Y011892D01*
X004240Y012010D02*
X000770Y012010D01*
X000770Y012129D02*
X004240Y012129D01*
X004240Y012247D02*
X000770Y012247D01*
X000770Y012366D02*
X004240Y012366D01*
X004240Y012484D02*
X000770Y012484D01*
X000770Y012603D02*
X004240Y012603D01*
X004240Y012721D02*
X000770Y012721D01*
X000770Y012840D02*
X002248Y012840D01*
X002215Y012843D02*
X002345Y012830D01*
X002350Y012830D01*
X002350Y014100D01*
X002470Y014100D01*
X002470Y014220D01*
X003740Y014220D01*
X003740Y014225D01*
X003727Y014355D01*
X003702Y014484D01*
X003664Y014609D01*
X003614Y014729D01*
X003552Y014845D01*
X003480Y014953D01*
X003397Y015054D01*
X003304Y015147D01*
X003203Y015230D01*
X003095Y015302D01*
X002979Y015364D01*
X002859Y015414D01*
X002734Y015452D01*
X002605Y015477D01*
X002475Y015490D01*
X002470Y015490D01*
X002470Y014220D01*
X002350Y014220D01*
X002350Y015490D01*
X002345Y015490D01*
X002215Y015477D01*
X002086Y015452D01*
X001961Y015414D01*
X001841Y015364D01*
X001725Y015302D01*
X001617Y015230D01*
X001516Y015147D01*
X001423Y015054D01*
X001340Y014953D01*
X001268Y014845D01*
X001206Y014729D01*
X001156Y014609D01*
X001118Y014484D01*
X001093Y014355D01*
X001080Y014225D01*
X001080Y014220D01*
X002350Y014220D01*
X002350Y014100D01*
X001080Y014100D01*
X001080Y014095D01*
X001093Y013965D01*
X001118Y013836D01*
X001156Y013711D01*
X001206Y013591D01*
X001268Y013475D01*
X001340Y013367D01*
X001423Y013266D01*
X001516Y013173D01*
X001617Y013090D01*
X001725Y013018D01*
X001841Y012956D01*
X001961Y012906D01*
X002086Y012868D01*
X002215Y012843D01*
X002350Y012840D02*
X002470Y012840D01*
X002470Y012830D02*
X002475Y012830D01*
X002605Y012843D01*
X002734Y012868D01*
X002859Y012906D01*
X002979Y012956D01*
X003095Y013018D01*
X003203Y013090D01*
X003304Y013173D01*
X003397Y013266D01*
X003480Y013367D01*
X003552Y013475D01*
X003614Y013591D01*
X003664Y013711D01*
X003702Y013836D01*
X003727Y013965D01*
X003740Y014095D01*
X003740Y014100D01*
X002470Y014100D01*
X002470Y012830D01*
X002572Y012840D02*
X004240Y012840D01*
X004240Y012958D02*
X002983Y012958D01*
X003182Y013077D02*
X004240Y013077D01*
X004240Y013195D02*
X003326Y013195D01*
X003436Y013314D02*
X003965Y013314D01*
X003965Y013432D02*
X003523Y013432D01*
X003592Y013551D02*
X003965Y013551D01*
X003965Y013669D02*
X003646Y013669D01*
X003687Y013788D02*
X003965Y013788D01*
X003965Y013906D02*
X003716Y013906D01*
X003733Y014025D02*
X003965Y014025D01*
X004035Y014215D02*
X003965Y014285D01*
X003965Y015035D01*
X004035Y015105D01*
X004785Y015105D01*
X004855Y015035D01*
X004855Y014285D01*
X004785Y014215D01*
X004035Y014215D01*
X003989Y014262D02*
X003736Y014262D01*
X003722Y014380D02*
X003965Y014380D01*
X003965Y014499D02*
X003697Y014499D01*
X003660Y014617D02*
X003965Y014617D01*
X003965Y014736D02*
X003610Y014736D01*
X003546Y014854D02*
X003965Y014854D01*
X003965Y014973D02*
X003464Y014973D01*
X003360Y015091D02*
X004021Y015091D01*
X004799Y015091D02*
X005021Y015091D01*
X005035Y015105D02*
X004965Y015035D01*
X004965Y014285D01*
X005035Y014215D01*
X005785Y014215D01*
X005855Y014285D01*
X005855Y015035D01*
X005785Y015105D01*
X005035Y015105D01*
X004965Y014973D02*
X004855Y014973D01*
X004855Y014854D02*
X004965Y014854D01*
X004965Y014736D02*
X004855Y014736D01*
X004855Y014617D02*
X004965Y014617D01*
X004965Y014499D02*
X004855Y014499D01*
X004855Y014380D02*
X004965Y014380D01*
X004989Y014262D02*
X004831Y014262D01*
X004855Y014025D02*
X004965Y014025D01*
X004965Y014035D02*
X004965Y013285D01*
X005035Y013215D01*
X005785Y013215D01*
X005855Y013285D01*
X005855Y014035D01*
X005785Y014105D01*
X005035Y014105D01*
X004965Y014035D01*
X004965Y013906D02*
X004855Y013906D01*
X004855Y013788D02*
X004965Y013788D01*
X004965Y013669D02*
X004855Y013669D01*
X004855Y013551D02*
X004965Y013551D01*
X004965Y013432D02*
X004855Y013432D01*
X004855Y013314D02*
X004965Y013314D01*
X004580Y013195D02*
X006230Y013195D01*
X006230Y013077D02*
X004580Y013077D01*
X004580Y012958D02*
X006230Y012958D01*
X006230Y012840D02*
X004580Y012840D01*
X004580Y012721D02*
X006216Y012721D01*
X006098Y012603D02*
X004580Y012603D01*
X004580Y012484D02*
X005979Y012484D01*
X005861Y012366D02*
X005099Y012366D01*
X004910Y012160D02*
X005910Y012160D01*
X006410Y012660D01*
X006410Y013660D01*
X006410Y014660D01*
X006831Y014262D02*
X006989Y014262D01*
X006965Y014380D02*
X006855Y014380D01*
X006855Y014499D02*
X006965Y014499D01*
X006965Y014617D02*
X006855Y014617D01*
X006855Y014736D02*
X006965Y014736D01*
X006965Y014854D02*
X006855Y014854D01*
X006855Y014973D02*
X006965Y014973D01*
X007021Y015091D02*
X006799Y015091D01*
X007410Y014660D02*
X007410Y013660D01*
X007410Y013285D01*
X005910Y011785D01*
X005160Y011785D01*
X004973Y011598D01*
X004973Y009098D01*
X004973Y008660D02*
X005035Y008660D01*
X005098Y008660D01*
X005223Y008660D01*
X005410Y008848D01*
X005410Y011410D01*
X005535Y011535D01*
X006160Y011535D01*
X007660Y013035D01*
X008160Y013035D01*
X008410Y013285D01*
X008410Y013660D01*
X008575Y013195D02*
X009494Y013195D01*
X009516Y013173D02*
X009617Y013090D01*
X009725Y013018D01*
X009841Y012956D01*
X009961Y012906D01*
X010086Y012868D01*
X010215Y012843D01*
X010345Y012830D01*
X010350Y012830D01*
X010350Y014100D01*
X010470Y014100D01*
X010470Y014220D01*
X011740Y014220D01*
X011740Y014225D01*
X011727Y014355D01*
X011702Y014484D01*
X011664Y014609D01*
X011614Y014729D01*
X011552Y014845D01*
X011480Y014953D01*
X011397Y015054D01*
X011304Y015147D01*
X011203Y015230D01*
X011095Y015302D01*
X010979Y015364D01*
X010859Y015414D01*
X010734Y015452D01*
X010605Y015477D01*
X010475Y015490D01*
X010470Y015490D01*
X010470Y014220D01*
X010350Y014220D01*
X010350Y015490D01*
X010345Y015490D01*
X010215Y015477D01*
X010086Y015452D01*
X009961Y015414D01*
X009841Y015364D01*
X009725Y015302D01*
X009617Y015230D01*
X009516Y015147D01*
X009423Y015054D01*
X009340Y014953D01*
X009268Y014845D01*
X009206Y014729D01*
X009156Y014609D01*
X009118Y014484D01*
X009093Y014355D01*
X009080Y014225D01*
X009080Y014220D01*
X010350Y014220D01*
X010350Y014100D01*
X009080Y014100D01*
X009080Y014095D01*
X009093Y013965D01*
X009118Y013836D01*
X009156Y013711D01*
X009206Y013591D01*
X009268Y013475D01*
X009340Y013367D01*
X009423Y013266D01*
X009516Y013173D01*
X009638Y013077D02*
X008456Y013077D01*
X008338Y012958D02*
X009837Y012958D01*
X009384Y013314D02*
X008855Y013314D01*
X008855Y013432D02*
X009297Y013432D01*
X009228Y013551D02*
X008855Y013551D01*
X008855Y013669D02*
X009174Y013669D01*
X009133Y013788D02*
X008855Y013788D01*
X008855Y013906D02*
X009104Y013906D01*
X009087Y014025D02*
X008855Y014025D01*
X008831Y014262D02*
X009084Y014262D01*
X009098Y014380D02*
X008855Y014380D01*
X008855Y014499D02*
X009123Y014499D01*
X009160Y014617D02*
X008855Y014617D01*
X008855Y014736D02*
X009210Y014736D01*
X009274Y014854D02*
X008855Y014854D01*
X008855Y014973D02*
X009356Y014973D01*
X009460Y015091D02*
X008799Y015091D01*
X008021Y015091D02*
X007799Y015091D01*
X007855Y014973D02*
X007965Y014973D01*
X007965Y014854D02*
X007855Y014854D01*
X007855Y014736D02*
X007965Y014736D01*
X007965Y014617D02*
X007855Y014617D01*
X007855Y014499D02*
X007965Y014499D01*
X007965Y014380D02*
X007855Y014380D01*
X007831Y014262D02*
X007989Y014262D01*
X007965Y014025D02*
X007855Y014025D01*
X007855Y013906D02*
X007965Y013906D01*
X007965Y013788D02*
X007855Y013788D01*
X007855Y013669D02*
X007965Y013669D01*
X007965Y013551D02*
X007855Y013551D01*
X007855Y013432D02*
X007965Y013432D01*
X007965Y013314D02*
X007855Y013314D01*
X008085Y013215D02*
X008085Y013215D01*
X007719Y012840D02*
X010248Y012840D01*
X010350Y012840D02*
X010470Y012840D01*
X010470Y012830D02*
X010475Y012830D01*
X010605Y012843D01*
X010734Y012868D01*
X010859Y012906D01*
X010979Y012956D01*
X011095Y013018D01*
X011203Y013090D01*
X011304Y013173D01*
X011397Y013266D01*
X011480Y013367D01*
X011552Y013475D01*
X011614Y013591D01*
X011664Y013711D01*
X011702Y013836D01*
X011727Y013965D01*
X011740Y014095D01*
X011740Y014100D01*
X010470Y014100D01*
X010470Y012830D01*
X010572Y012840D02*
X012050Y012840D01*
X012050Y012958D02*
X010983Y012958D01*
X011182Y013077D02*
X012050Y013077D01*
X012050Y013195D02*
X011326Y013195D01*
X011436Y013314D02*
X012050Y013314D01*
X012050Y013432D02*
X011523Y013432D01*
X011592Y013551D02*
X012050Y013551D01*
X012050Y013669D02*
X011646Y013669D01*
X011687Y013788D02*
X012050Y013788D01*
X012050Y013906D02*
X011716Y013906D01*
X011733Y014025D02*
X012050Y014025D01*
X012050Y014143D02*
X010470Y014143D01*
X010470Y014025D02*
X010350Y014025D01*
X010350Y014143D02*
X008580Y014143D01*
X008240Y014143D02*
X007590Y014143D01*
X007230Y014143D02*
X006590Y014143D01*
X006855Y014025D02*
X006965Y014025D01*
X006965Y013906D02*
X006855Y013906D01*
X006855Y013788D02*
X006965Y013788D01*
X006965Y013669D02*
X006855Y013669D01*
X006855Y013551D02*
X006965Y013551D01*
X006965Y013432D02*
X006855Y013432D01*
X006855Y013314D02*
X006965Y013314D01*
X007065Y013195D02*
X006590Y013195D01*
X006590Y013077D02*
X006947Y013077D01*
X006828Y012958D02*
X006590Y012958D01*
X006590Y012840D02*
X006710Y012840D01*
X006591Y012721D02*
X006590Y012721D01*
X007127Y012247D02*
X007516Y012247D01*
X007516Y012129D02*
X007008Y012129D01*
X006890Y012010D02*
X007516Y012010D01*
X007516Y011892D02*
X006771Y011892D01*
X006653Y011773D02*
X007516Y011773D01*
X007516Y011655D02*
X006534Y011655D01*
X006416Y011536D02*
X007516Y011536D01*
X007516Y011418D02*
X006297Y011418D01*
X005590Y011299D02*
X007516Y011299D01*
X007516Y011181D02*
X005590Y011181D01*
X005590Y011062D02*
X007516Y011062D01*
X007516Y010944D02*
X005590Y010944D01*
X005590Y010825D02*
X007516Y010825D01*
X007516Y010778D02*
X007587Y010707D01*
X009186Y010707D01*
X009256Y010778D01*
X009256Y012377D01*
X009186Y012447D01*
X007587Y012447D01*
X007516Y012377D01*
X007516Y010778D01*
X007587Y010479D02*
X007516Y010409D01*
X007516Y008809D01*
X007587Y008739D01*
X009186Y008739D01*
X009256Y008809D01*
X009256Y010409D01*
X009186Y010479D01*
X007587Y010479D01*
X007577Y010470D02*
X005590Y010470D01*
X005590Y010588D02*
X012050Y010588D01*
X012050Y010470D02*
X011164Y010470D01*
X011155Y010479D02*
X009555Y010479D01*
X009485Y010409D01*
X009485Y008809D01*
X009555Y008739D01*
X011155Y008739D01*
X011225Y008809D01*
X011225Y010409D01*
X011155Y010479D01*
X011225Y010351D02*
X012050Y010351D01*
X012050Y010233D02*
X011225Y010233D01*
X011225Y010114D02*
X012050Y010114D01*
X012050Y009996D02*
X011225Y009996D01*
X011225Y009877D02*
X012050Y009877D01*
X012050Y009759D02*
X011225Y009759D01*
X011225Y009640D02*
X012050Y009640D01*
X012050Y009522D02*
X011225Y009522D01*
X011225Y009403D02*
X012050Y009403D01*
X012050Y009285D02*
X011225Y009285D01*
X011225Y009166D02*
X012050Y009166D01*
X012050Y009048D02*
X011225Y009048D01*
X011225Y008929D02*
X012050Y008929D01*
X012050Y008811D02*
X011225Y008811D01*
X011155Y008510D02*
X009555Y008510D01*
X009485Y008440D01*
X009485Y006841D01*
X009555Y006770D01*
X011155Y006770D01*
X011225Y006841D01*
X011225Y008440D01*
X011155Y008510D01*
X011210Y008455D02*
X012050Y008455D01*
X012050Y008337D02*
X011225Y008337D01*
X011225Y008218D02*
X012050Y008218D01*
X012050Y008100D02*
X011225Y008100D01*
X011225Y007981D02*
X012050Y007981D01*
X012050Y007863D02*
X011225Y007863D01*
X011225Y007744D02*
X012050Y007744D01*
X012050Y007626D02*
X011225Y007626D01*
X011225Y007507D02*
X012050Y007507D01*
X012050Y007389D02*
X011225Y007389D01*
X011225Y007270D02*
X012050Y007270D01*
X012050Y007152D02*
X011225Y007152D01*
X011225Y007033D02*
X012050Y007033D01*
X012050Y006915D02*
X011225Y006915D01*
X011180Y006796D02*
X012050Y006796D01*
X012050Y006678D02*
X005142Y006678D01*
X005142Y006796D02*
X007561Y006796D01*
X007587Y006770D02*
X007516Y006841D01*
X007516Y008440D01*
X007587Y008510D01*
X009186Y008510D01*
X009256Y008440D01*
X009256Y006841D01*
X009186Y006770D01*
X007587Y006770D01*
X007516Y006915D02*
X005142Y006915D01*
X005142Y007033D02*
X007516Y007033D01*
X007516Y007152D02*
X005142Y007152D01*
X005142Y007270D02*
X007516Y007270D01*
X007516Y007389D02*
X005142Y007389D01*
X005142Y007507D02*
X007516Y007507D01*
X007516Y007626D02*
X005142Y007626D01*
X005142Y007744D02*
X007516Y007744D01*
X007516Y007863D02*
X005194Y007863D01*
X005251Y007981D02*
X007516Y007981D01*
X007516Y008100D02*
X005247Y008100D01*
X005184Y008218D02*
X007516Y008218D01*
X007516Y008337D02*
X006137Y008337D01*
X006125Y008324D02*
X006158Y008357D01*
X006184Y008396D01*
X006202Y008440D01*
X006211Y008486D01*
X006211Y008509D01*
X005973Y008509D01*
X005973Y008509D01*
X005973Y008271D01*
X005996Y008271D01*
X006042Y008280D01*
X006086Y008298D01*
X006125Y008324D01*
X005973Y008337D02*
X005972Y008337D01*
X005972Y008271D02*
X005972Y008509D01*
X005734Y008509D01*
X005734Y008486D01*
X005743Y008440D01*
X005761Y008396D01*
X005787Y008357D01*
X005820Y008324D01*
X005859Y008298D01*
X005903Y008280D01*
X005949Y008271D01*
X005972Y008271D01*
X005808Y008337D02*
X004974Y008337D01*
X005162Y008455D02*
X005740Y008455D01*
X005734Y008509D02*
X005972Y008509D01*
X005972Y008509D01*
X005973Y008509D01*
X006211Y008509D01*
X006211Y008533D01*
X006202Y008579D01*
X006184Y008622D01*
X006168Y008647D01*
X006184Y008672D01*
X006202Y008715D01*
X006211Y008761D01*
X006211Y008785D01*
X005973Y008785D01*
X006211Y008785D01*
X006211Y008809D01*
X006202Y008855D01*
X006184Y008898D01*
X006168Y008923D01*
X006184Y008948D01*
X006202Y008991D01*
X006211Y009037D01*
X006211Y009061D01*
X006211Y009084D01*
X006202Y009130D01*
X006184Y009174D01*
X006158Y009213D01*
X006125Y009246D01*
X006086Y009272D01*
X006042Y009290D01*
X005996Y009299D01*
X005973Y009299D01*
X005973Y009061D01*
X006211Y009061D01*
X005973Y009061D01*
X005973Y009061D01*
X005972Y009061D01*
X005972Y009061D01*
X005734Y009061D01*
X005734Y009084D01*
X005743Y009130D01*
X005761Y009174D01*
X005787Y009213D01*
X005820Y009246D01*
X005859Y009272D01*
X005903Y009290D01*
X005949Y009299D01*
X005972Y009299D01*
X005972Y009061D01*
X005734Y009061D01*
X005734Y009037D01*
X005743Y008991D01*
X005761Y008948D01*
X005777Y008923D01*
X005761Y008898D01*
X005743Y008855D01*
X005734Y008809D01*
X005734Y008785D01*
X005734Y008761D01*
X005743Y008715D01*
X005761Y008672D01*
X005777Y008647D01*
X005761Y008622D01*
X005743Y008579D01*
X005734Y008533D01*
X005734Y008509D01*
X005742Y008574D02*
X005391Y008574D01*
X005485Y008668D02*
X005485Y008668D01*
X005509Y008692D02*
X005753Y008692D01*
X005734Y008785D02*
X005972Y008785D01*
X005972Y008785D01*
X005734Y008785D01*
X005734Y008811D02*
X005590Y008811D01*
X005590Y008929D02*
X005773Y008929D01*
X005734Y009048D02*
X005590Y009048D01*
X005590Y009166D02*
X005758Y009166D01*
X005889Y009285D02*
X005590Y009285D01*
X005590Y009403D02*
X007516Y009403D01*
X007516Y009285D02*
X006056Y009285D01*
X005973Y009285D02*
X005972Y009285D01*
X005972Y009166D02*
X005973Y009166D01*
X005973Y009061D02*
X005973Y008822D01*
X005973Y008785D01*
X005973Y008785D01*
X005972Y008785D01*
X005972Y009061D01*
X005973Y009061D01*
X005972Y009048D02*
X005973Y009048D01*
X005972Y008929D02*
X005973Y008929D01*
X005972Y008811D02*
X005973Y008811D01*
X005973Y008785D02*
X005973Y008509D01*
X005972Y008509D01*
X005972Y008748D01*
X005972Y008785D01*
X005973Y008785D01*
X005972Y008692D02*
X005973Y008692D01*
X005972Y008574D02*
X005973Y008574D01*
X005972Y008455D02*
X005973Y008455D01*
X006205Y008455D02*
X007531Y008455D01*
X007516Y008811D02*
X006211Y008811D01*
X006192Y008692D02*
X012050Y008692D01*
X012050Y008574D02*
X006203Y008574D01*
X006172Y008929D02*
X007516Y008929D01*
X007516Y009048D02*
X006211Y009048D01*
X006187Y009166D02*
X007516Y009166D01*
X007516Y009522D02*
X005590Y009522D01*
X005590Y009640D02*
X007516Y009640D01*
X007516Y009759D02*
X005590Y009759D01*
X005590Y009877D02*
X007516Y009877D01*
X007516Y009996D02*
X005590Y009996D01*
X005590Y010114D02*
X007516Y010114D01*
X007516Y010233D02*
X005590Y010233D01*
X005590Y010351D02*
X007516Y010351D01*
X009195Y010470D02*
X009546Y010470D01*
X009485Y010351D02*
X009256Y010351D01*
X009256Y010233D02*
X009485Y010233D01*
X009485Y010114D02*
X009256Y010114D01*
X009256Y009996D02*
X009485Y009996D01*
X009485Y009877D02*
X009256Y009877D01*
X009256Y009759D02*
X009485Y009759D01*
X009485Y009640D02*
X009256Y009640D01*
X009256Y009522D02*
X009485Y009522D01*
X009485Y009403D02*
X009256Y009403D01*
X009256Y009285D02*
X009485Y009285D01*
X009485Y009166D02*
X009256Y009166D01*
X009256Y009048D02*
X009485Y009048D01*
X009485Y008929D02*
X009256Y008929D01*
X009256Y008811D02*
X009485Y008811D01*
X009500Y008455D02*
X009241Y008455D01*
X009256Y008337D02*
X009485Y008337D01*
X009485Y008218D02*
X009256Y008218D01*
X009256Y008100D02*
X009485Y008100D01*
X009485Y007981D02*
X009256Y007981D01*
X009256Y007863D02*
X009485Y007863D01*
X009485Y007744D02*
X009256Y007744D01*
X009256Y007626D02*
X009485Y007626D01*
X009485Y007507D02*
X009256Y007507D01*
X009256Y007389D02*
X009485Y007389D01*
X009485Y007270D02*
X009256Y007270D01*
X009256Y007152D02*
X009485Y007152D01*
X009485Y007033D02*
X009256Y007033D01*
X009256Y006915D02*
X009485Y006915D01*
X009529Y006796D02*
X009212Y006796D01*
X009256Y006441D02*
X009485Y006441D01*
X009485Y006322D02*
X009256Y006322D01*
X009256Y006204D02*
X009485Y006204D01*
X009485Y006085D02*
X009256Y006085D01*
X009256Y005967D02*
X009485Y005967D01*
X009485Y005848D02*
X009256Y005848D01*
X009256Y005730D02*
X009485Y005730D01*
X009485Y005611D02*
X009256Y005611D01*
X009256Y005493D02*
X009485Y005493D01*
X009485Y005374D02*
X009256Y005374D01*
X009256Y005256D02*
X009485Y005256D01*
X009485Y005137D02*
X009256Y005137D01*
X009256Y005019D02*
X009485Y005019D01*
X009485Y004900D02*
X009256Y004900D01*
X008580Y004071D02*
X012050Y004071D01*
X012050Y004189D02*
X008496Y004189D01*
X008378Y004308D02*
X012050Y004308D01*
X012050Y004426D02*
X008259Y004426D01*
X008134Y004071D02*
X007177Y004071D01*
X007296Y003952D02*
X008240Y003952D01*
X008240Y003834D02*
X007414Y003834D01*
X007517Y003715D02*
X008240Y003715D01*
X008240Y003597D02*
X007517Y003597D01*
X007517Y003478D02*
X008240Y003478D01*
X008240Y003360D02*
X007517Y003360D01*
X007517Y003241D02*
X008240Y003241D01*
X008240Y003123D02*
X007517Y003123D01*
X007855Y003004D02*
X007965Y003004D01*
X007965Y002886D02*
X007855Y002886D01*
X007855Y002767D02*
X007965Y002767D01*
X007965Y002649D02*
X007855Y002649D01*
X007855Y002530D02*
X007965Y002530D01*
X007965Y002412D02*
X007855Y002412D01*
X007855Y002293D02*
X007965Y002293D01*
X008035Y002105D02*
X007965Y002035D01*
X007965Y001285D01*
X008035Y001215D01*
X008785Y001215D01*
X008855Y001285D01*
X008855Y002035D01*
X008785Y002105D01*
X008035Y002105D01*
X007986Y002056D02*
X007834Y002056D01*
X007855Y002035D02*
X007785Y002105D01*
X007035Y002105D01*
X006965Y002035D01*
X006965Y001285D01*
X007035Y001215D01*
X007785Y001215D01*
X007855Y001285D01*
X007855Y002035D01*
X007855Y001938D02*
X007965Y001938D01*
X007965Y001819D02*
X007855Y001819D01*
X007855Y001701D02*
X007965Y001701D01*
X007965Y001582D02*
X007855Y001582D01*
X007855Y001464D02*
X007965Y001464D01*
X007965Y001345D02*
X007855Y001345D01*
X007796Y001227D02*
X008024Y001227D01*
X008796Y001227D02*
X009463Y001227D01*
X009358Y001345D02*
X008855Y001345D01*
X008855Y001464D02*
X009276Y001464D01*
X009211Y001582D02*
X008855Y001582D01*
X008855Y001701D02*
X009161Y001701D01*
X009124Y001819D02*
X008855Y001819D01*
X008855Y001938D02*
X009098Y001938D01*
X009084Y002056D02*
X008834Y002056D01*
X008855Y002293D02*
X009087Y002293D01*
X009104Y002412D02*
X008855Y002412D01*
X008855Y002530D02*
X009132Y002530D01*
X009173Y002649D02*
X008855Y002649D01*
X008855Y002767D02*
X009226Y002767D01*
X009295Y002886D02*
X008855Y002886D01*
X008855Y003004D02*
X009382Y003004D01*
X009492Y003123D02*
X008580Y003123D01*
X008580Y003241D02*
X009634Y003241D01*
X009833Y003360D02*
X008580Y003360D01*
X008580Y003478D02*
X010223Y003478D01*
X011659Y001701D02*
X012050Y001701D01*
X012050Y001819D02*
X011696Y001819D01*
X011722Y001938D02*
X012050Y001938D01*
X012050Y002056D02*
X011736Y002056D01*
X011609Y001582D02*
X012050Y001582D01*
X012050Y001464D02*
X011544Y001464D01*
X011462Y001345D02*
X012050Y001345D01*
X012050Y001227D02*
X011357Y001227D01*
X011225Y001108D02*
X012050Y001108D01*
X012050Y000990D02*
X011042Y000990D01*
X010742Y000871D02*
X012050Y000871D01*
X012050Y003597D02*
X008580Y003597D01*
X008580Y003715D02*
X012050Y003715D01*
X012050Y003834D02*
X008580Y003834D01*
X008580Y003952D02*
X012050Y003952D01*
X007024Y001227D02*
X005678Y001227D01*
X005737Y001345D02*
X005907Y001345D01*
X005907Y001323D02*
X005916Y001301D01*
X005933Y001284D01*
X005955Y001275D01*
X006264Y001275D01*
X006264Y001632D01*
X006319Y001632D01*
X006319Y001275D01*
X006629Y001275D01*
X006651Y001284D01*
X006668Y001301D01*
X006677Y001323D01*
X006677Y001632D01*
X006319Y001632D01*
X006319Y001688D01*
X006264Y001688D01*
X006264Y002045D01*
X005955Y002045D01*
X005933Y002036D01*
X005916Y002019D01*
X005907Y001997D01*
X005907Y001688D01*
X006264Y001688D01*
X006264Y001632D01*
X005907Y001632D01*
X005907Y001323D01*
X005907Y001464D02*
X005737Y001464D01*
X005737Y001582D02*
X005907Y001582D01*
X005907Y001701D02*
X005737Y001701D01*
X005737Y001819D02*
X005907Y001819D01*
X005907Y001938D02*
X005737Y001938D01*
X005716Y002056D02*
X006986Y002056D01*
X006965Y001938D02*
X006677Y001938D01*
X006677Y001997D02*
X006668Y002019D01*
X006651Y002036D01*
X006629Y002045D01*
X006319Y002045D01*
X006319Y001688D01*
X006677Y001688D01*
X006677Y001997D01*
X006677Y001819D02*
X006965Y001819D01*
X006965Y001701D02*
X006677Y001701D01*
X006677Y001582D02*
X006965Y001582D01*
X006965Y001464D02*
X006677Y001464D01*
X006677Y001345D02*
X006965Y001345D01*
X006319Y001345D02*
X006264Y001345D01*
X006264Y001464D02*
X006319Y001464D01*
X006319Y001582D02*
X006264Y001582D01*
X006264Y001701D02*
X006319Y001701D01*
X006319Y001819D02*
X006264Y001819D01*
X006264Y001938D02*
X006319Y001938D01*
X006319Y002275D02*
X006629Y002275D01*
X006651Y002284D01*
X006668Y002301D01*
X006677Y002323D01*
X006677Y002632D01*
X006319Y002632D01*
X006319Y002275D01*
X006319Y002293D02*
X006264Y002293D01*
X006264Y002275D02*
X006264Y002632D01*
X006319Y002632D01*
X006319Y002688D01*
X006264Y002688D01*
X006264Y003045D01*
X005955Y003045D01*
X005933Y003036D01*
X005916Y003019D01*
X005907Y002997D01*
X005907Y002688D01*
X006264Y002688D01*
X006264Y002632D01*
X005907Y002632D01*
X005907Y002323D01*
X005916Y002301D01*
X005933Y002284D01*
X005955Y002275D01*
X006264Y002275D01*
X006264Y002412D02*
X006319Y002412D01*
X006319Y002530D02*
X006264Y002530D01*
X006264Y002649D02*
X005737Y002649D01*
X005737Y002767D02*
X005907Y002767D01*
X005907Y002886D02*
X005737Y002886D01*
X005737Y003004D02*
X005910Y003004D01*
X006264Y003004D02*
X006319Y003004D01*
X006319Y003045D02*
X006629Y003045D01*
X006651Y003036D01*
X006668Y003019D01*
X006677Y002997D01*
X006677Y002688D01*
X006319Y002688D01*
X006319Y003045D01*
X006319Y002886D02*
X006264Y002886D01*
X006264Y002767D02*
X006319Y002767D01*
X006319Y002649D02*
X006965Y002649D01*
X006965Y002767D02*
X006677Y002767D01*
X006677Y002886D02*
X006965Y002886D01*
X006965Y003004D02*
X006674Y003004D01*
X006677Y002530D02*
X006965Y002530D01*
X006965Y002412D02*
X006677Y002412D01*
X006660Y002293D02*
X006965Y002293D01*
X005924Y002293D02*
X005737Y002293D01*
X005737Y002412D02*
X005907Y002412D01*
X005907Y002530D02*
X005737Y002530D01*
X004847Y003360D02*
X002987Y003360D01*
X002597Y003478D02*
X004847Y003478D01*
X004847Y003597D02*
X000770Y003597D01*
X000770Y003715D02*
X004847Y003715D01*
X004847Y003834D02*
X000770Y003834D01*
X000770Y003952D02*
X004847Y003952D01*
X004319Y003004D02*
X004264Y003004D01*
X004264Y002886D02*
X004319Y002886D01*
X004319Y002767D02*
X004264Y002767D01*
X004264Y002530D02*
X004319Y002530D01*
X004319Y002412D02*
X004264Y002412D01*
X004264Y002293D02*
X004319Y002293D01*
X004319Y001938D02*
X004264Y001938D01*
X004264Y001819D02*
X004319Y001819D01*
X004319Y001701D02*
X004264Y001701D01*
X004264Y001582D02*
X004319Y001582D01*
X004319Y001464D02*
X004264Y001464D01*
X004264Y001345D02*
X004319Y001345D01*
X003907Y002886D02*
X003525Y002886D01*
X003438Y003004D02*
X003910Y003004D01*
X002470Y003004D02*
X002350Y003004D01*
X002350Y002886D02*
X002470Y002886D01*
X002470Y002767D02*
X002350Y002767D01*
X002350Y002649D02*
X002470Y002649D01*
X002470Y002530D02*
X002350Y002530D01*
X002350Y002412D02*
X002470Y002412D01*
X002470Y002293D02*
X002350Y002293D01*
X002350Y002175D02*
X000770Y002175D01*
X000770Y002293D02*
X001087Y002293D01*
X001104Y002412D02*
X000770Y002412D01*
X000770Y002530D02*
X001132Y002530D01*
X001173Y002649D02*
X000770Y002649D01*
X000770Y002767D02*
X001226Y002767D01*
X001295Y002886D02*
X000770Y002886D01*
X000770Y003004D02*
X001382Y003004D01*
X001492Y003123D02*
X000770Y003123D01*
X000770Y003241D02*
X001634Y003241D01*
X001833Y003360D02*
X000770Y003360D01*
X000770Y003478D02*
X002223Y003478D01*
X002350Y003478D02*
X002470Y003478D01*
X002470Y003360D02*
X002350Y003360D01*
X002350Y003241D02*
X002470Y003241D01*
X002470Y003123D02*
X002350Y003123D01*
X001211Y001582D02*
X000770Y001582D01*
X000770Y001464D02*
X001276Y001464D01*
X001358Y001345D02*
X000770Y001345D01*
X000770Y001227D02*
X001463Y001227D01*
X001595Y001108D02*
X000770Y001108D01*
X000770Y000990D02*
X001778Y000990D01*
X001161Y001701D02*
X000770Y001701D01*
X000770Y001819D02*
X001124Y001819D01*
X001098Y001938D02*
X000770Y001938D01*
X000770Y002056D02*
X001084Y002056D01*
X004778Y006678D02*
X004803Y006678D01*
X004803Y006796D02*
X004633Y006796D01*
X004564Y006915D02*
X004803Y006915D01*
X004803Y007033D02*
X004564Y007033D01*
X004564Y007152D02*
X004803Y007152D01*
X004803Y007270D02*
X004564Y007270D01*
X004564Y007389D02*
X004803Y007389D01*
X004803Y007507D02*
X004564Y007507D01*
X004564Y007744D02*
X004803Y007744D01*
X004803Y007626D02*
X003814Y007626D01*
X003814Y007744D02*
X003694Y007744D01*
X003693Y007626D02*
X002655Y007626D01*
X002655Y007744D02*
X002944Y007744D01*
X002944Y007863D02*
X002655Y007863D01*
X002655Y007981D02*
X002944Y007981D01*
X002944Y008100D02*
X002655Y008100D01*
X002655Y008218D02*
X002944Y008218D01*
X002944Y008337D02*
X002655Y008337D01*
X002601Y008692D02*
X004490Y008692D01*
X004564Y008218D02*
X004612Y008218D01*
X004564Y008100D02*
X004698Y008100D01*
X004694Y007981D02*
X004564Y007981D01*
X004564Y007863D02*
X004751Y007863D01*
X003814Y007863D02*
X003694Y007863D01*
X003694Y007981D02*
X003814Y007981D01*
X003814Y008100D02*
X003694Y008100D01*
X003694Y008218D02*
X003814Y008218D01*
X003814Y008337D02*
X003694Y008337D01*
X003694Y008811D02*
X003814Y008811D01*
X003814Y008929D02*
X003694Y008929D01*
X003694Y009048D02*
X003814Y009048D01*
X003814Y009166D02*
X003694Y009166D01*
X003694Y009285D02*
X003814Y009285D01*
X003814Y009403D02*
X003694Y009403D01*
X003693Y009522D02*
X002655Y009522D01*
X002655Y009640D02*
X002944Y009640D01*
X002944Y009759D02*
X002655Y009759D01*
X002655Y009877D02*
X002944Y009877D01*
X002944Y009996D02*
X002655Y009996D01*
X002655Y010114D02*
X002944Y010114D01*
X002944Y010233D02*
X002655Y010233D01*
X002650Y010351D02*
X002980Y010351D01*
X002944Y009403D02*
X002655Y009403D01*
X002655Y009285D02*
X002944Y009285D01*
X002944Y009166D02*
X002655Y009166D01*
X002655Y009048D02*
X002944Y009048D01*
X002944Y008929D02*
X002655Y008929D01*
X002655Y008811D02*
X002944Y008811D01*
X003694Y009640D02*
X003814Y009640D01*
X003814Y009759D02*
X003694Y009759D01*
X003694Y009877D02*
X003814Y009877D01*
X003814Y009996D02*
X003694Y009996D01*
X003694Y010114D02*
X003814Y010114D01*
X003814Y010233D02*
X003694Y010233D01*
X003694Y010351D02*
X003814Y010351D01*
X004580Y012129D02*
X004631Y012129D01*
X004644Y012247D02*
X004580Y012247D01*
X004580Y012366D02*
X004721Y012366D01*
X005855Y013314D02*
X005965Y013314D01*
X005965Y013432D02*
X005855Y013432D01*
X005855Y013551D02*
X005965Y013551D01*
X005965Y013669D02*
X005855Y013669D01*
X005855Y013788D02*
X005965Y013788D01*
X005965Y013906D02*
X005855Y013906D01*
X005855Y014025D02*
X005965Y014025D01*
X005989Y014262D02*
X005831Y014262D01*
X005855Y014380D02*
X005965Y014380D01*
X005965Y014499D02*
X005855Y014499D01*
X005855Y014617D02*
X005965Y014617D01*
X005965Y014736D02*
X005855Y014736D01*
X005855Y014854D02*
X005965Y014854D01*
X005965Y014973D02*
X005855Y014973D01*
X005799Y015091D02*
X006021Y015091D01*
X006230Y014143D02*
X002470Y014143D01*
X002470Y014025D02*
X002350Y014025D01*
X002350Y014143D02*
X000770Y014143D01*
X000770Y014025D02*
X001087Y014025D01*
X001104Y013906D02*
X000770Y013906D01*
X000770Y013788D02*
X001133Y013788D01*
X001174Y013669D02*
X000770Y013669D01*
X000770Y013551D02*
X001228Y013551D01*
X001297Y013432D02*
X000770Y013432D01*
X000770Y013314D02*
X001384Y013314D01*
X001494Y013195D02*
X000770Y013195D01*
X000770Y013077D02*
X001638Y013077D01*
X001837Y012958D02*
X000770Y012958D01*
X000770Y014262D02*
X001084Y014262D01*
X001098Y014380D02*
X000770Y014380D01*
X000770Y014499D02*
X001123Y014499D01*
X001160Y014617D02*
X000770Y014617D01*
X000770Y014736D02*
X001210Y014736D01*
X001274Y014854D02*
X000770Y014854D01*
X000770Y014973D02*
X001356Y014973D01*
X001460Y015091D02*
X000770Y015091D01*
X000770Y015210D02*
X001592Y015210D01*
X001774Y015328D02*
X000770Y015328D01*
X000770Y015447D02*
X002069Y015447D01*
X002350Y015447D02*
X002470Y015447D01*
X002470Y015328D02*
X002350Y015328D01*
X002350Y015210D02*
X002470Y015210D01*
X002470Y015091D02*
X002350Y015091D01*
X002350Y014973D02*
X002470Y014973D01*
X002470Y014854D02*
X002350Y014854D01*
X002350Y014736D02*
X002470Y014736D01*
X002470Y014617D02*
X002350Y014617D01*
X002350Y014499D02*
X002470Y014499D01*
X002470Y014380D02*
X002350Y014380D01*
X002350Y014262D02*
X002470Y014262D01*
X002470Y013906D02*
X002350Y013906D01*
X002350Y013788D02*
X002470Y013788D01*
X002470Y013669D02*
X002350Y013669D01*
X002350Y013551D02*
X002470Y013551D01*
X002470Y013432D02*
X002350Y013432D01*
X002350Y013314D02*
X002470Y013314D01*
X002470Y013195D02*
X002350Y013195D01*
X002350Y013077D02*
X002470Y013077D01*
X002470Y012958D02*
X002350Y012958D01*
X003228Y015210D02*
X009592Y015210D01*
X009774Y015328D02*
X003046Y015328D01*
X002751Y015447D02*
X010069Y015447D01*
X010350Y015447D02*
X010470Y015447D01*
X010470Y015328D02*
X010350Y015328D01*
X010350Y015210D02*
X010470Y015210D01*
X010470Y015091D02*
X010350Y015091D01*
X010350Y014973D02*
X010470Y014973D01*
X010470Y014854D02*
X010350Y014854D01*
X010350Y014736D02*
X010470Y014736D01*
X010470Y014617D02*
X010350Y014617D01*
X010350Y014499D02*
X010470Y014499D01*
X010470Y014380D02*
X010350Y014380D01*
X010350Y014262D02*
X010470Y014262D01*
X010470Y013906D02*
X010350Y013906D01*
X010350Y013788D02*
X010470Y013788D01*
X010470Y013669D02*
X010350Y013669D01*
X010350Y013551D02*
X010470Y013551D01*
X010470Y013432D02*
X010350Y013432D01*
X010350Y013314D02*
X010470Y013314D01*
X010470Y013195D02*
X010350Y013195D01*
X010350Y013077D02*
X010470Y013077D01*
X010470Y012958D02*
X010350Y012958D01*
X009555Y012447D02*
X009485Y012377D01*
X009485Y010778D01*
X009555Y010707D01*
X011155Y010707D01*
X011225Y010778D01*
X011225Y012377D01*
X011155Y012447D01*
X009555Y012447D01*
X009485Y012366D02*
X009256Y012366D01*
X009256Y012247D02*
X009485Y012247D01*
X009485Y012129D02*
X009256Y012129D01*
X009256Y012010D02*
X009485Y012010D01*
X009485Y011892D02*
X009256Y011892D01*
X009256Y011773D02*
X009485Y011773D01*
X009485Y011655D02*
X009256Y011655D01*
X009256Y011536D02*
X009485Y011536D01*
X009485Y011418D02*
X009256Y011418D01*
X009256Y011299D02*
X009485Y011299D01*
X009485Y011181D02*
X009256Y011181D01*
X009256Y011062D02*
X009485Y011062D01*
X009485Y010944D02*
X009256Y010944D01*
X009256Y010825D02*
X009485Y010825D01*
X011225Y010825D02*
X012050Y010825D01*
X012050Y010707D02*
X005590Y010707D01*
X007245Y012366D02*
X007516Y012366D01*
X007364Y012484D02*
X012050Y012484D01*
X012050Y012366D02*
X011225Y012366D01*
X011225Y012247D02*
X012050Y012247D01*
X012050Y012129D02*
X011225Y012129D01*
X011225Y012010D02*
X012050Y012010D01*
X012050Y011892D02*
X011225Y011892D01*
X011225Y011773D02*
X012050Y011773D01*
X012050Y011655D02*
X011225Y011655D01*
X011225Y011536D02*
X012050Y011536D01*
X012050Y011418D02*
X011225Y011418D01*
X011225Y011299D02*
X012050Y011299D01*
X012050Y011181D02*
X011225Y011181D01*
X011225Y011062D02*
X012050Y011062D01*
X012050Y010944D02*
X011225Y010944D01*
X012050Y012603D02*
X007482Y012603D01*
X007601Y012721D02*
X012050Y012721D01*
X012050Y014262D02*
X011736Y014262D01*
X011722Y014380D02*
X012050Y014380D01*
X012050Y014499D02*
X011697Y014499D01*
X011660Y014617D02*
X012050Y014617D01*
X012050Y014736D02*
X011610Y014736D01*
X011546Y014854D02*
X012050Y014854D01*
X012050Y014973D02*
X011464Y014973D01*
X011360Y015091D02*
X012050Y015091D01*
X012050Y015210D02*
X011228Y015210D01*
X011046Y015328D02*
X012050Y015328D01*
X012050Y015447D02*
X010751Y015447D01*
X012050Y015565D02*
X000770Y015565D01*
X000770Y015684D02*
X012050Y015684D01*
X007590Y013215D02*
X007590Y013215D01*
X003814Y007507D02*
X003694Y007507D01*
X003694Y007389D02*
X003814Y007389D01*
X003814Y007270D02*
X003694Y007270D01*
X003694Y007152D02*
X003814Y007152D01*
X003814Y007033D02*
X003694Y007033D01*
X003694Y006915D02*
X003814Y006915D01*
X003814Y006796D02*
X003694Y006796D01*
X002952Y006796D02*
X002655Y006796D01*
X002655Y006915D02*
X002944Y006915D01*
X002944Y007033D02*
X002655Y007033D01*
X002655Y007152D02*
X002944Y007152D01*
X002944Y007270D02*
X002655Y007270D01*
X002655Y007389D02*
X002944Y007389D01*
X002944Y007507D02*
X002655Y007507D01*
D15*
X003285Y006535D03*
X003660Y006535D03*
X004035Y006535D03*
X004535Y006535D03*
X004973Y008035D03*
X004973Y008660D03*
X004973Y009098D03*
X005723Y009660D03*
X006098Y009660D03*
X006098Y010035D03*
X006473Y010035D03*
X006473Y010410D03*
X006473Y010785D03*
X006473Y011160D03*
X006098Y011160D03*
X006098Y010785D03*
X006098Y010410D03*
X005723Y010410D03*
X005723Y010785D03*
X005723Y011160D03*
X005723Y010035D03*
X006035Y007910D03*
X005848Y007598D03*
X006973Y005848D03*
X006723Y005598D03*
X006473Y005348D03*
X006223Y005098D03*
X005848Y005098D03*
X007348Y005848D03*
X003598Y010535D03*
X003223Y010535D03*
X002848Y010535D03*
X002848Y012223D03*
X002473Y012223D03*
X002098Y012223D03*
X001723Y012223D03*
X001348Y012223D03*
X000973Y012223D03*
X004535Y015410D03*
X005035Y015410D03*
X005535Y015410D03*
X006035Y015410D03*
X006535Y015410D03*
X007035Y015410D03*
X007535Y015410D03*
X007973Y015410D03*
X008410Y015410D03*
X008848Y015410D03*
X009285Y015410D03*
X011723Y012785D03*
X011723Y012348D03*
X011723Y011973D03*
X011723Y011598D03*
X011723Y011223D03*
X011723Y010848D03*
X011723Y010473D03*
X011723Y010098D03*
X011723Y009723D03*
X011723Y009348D03*
X011723Y008973D03*
X011723Y008598D03*
X011723Y008223D03*
X011723Y007848D03*
X011723Y007473D03*
X011723Y007098D03*
X011723Y006723D03*
X011723Y006348D03*
X011723Y005973D03*
X011723Y005598D03*
X011723Y005223D03*
X004910Y012160D03*
X001160Y006410D03*
X001160Y006035D03*
X001160Y005660D03*
D16*
X004535Y006535D02*
X004535Y004473D01*
X004660Y004348D01*
X006098Y004348D01*
X006535Y003910D01*
X007098Y003910D01*
X007348Y003660D01*
X007348Y002723D01*
X007410Y002660D01*
X008410Y002660D02*
X008410Y004035D01*
X008160Y004285D01*
X006535Y004285D01*
X006160Y004660D01*
X005285Y004660D01*
X004973Y004973D01*
X004973Y008035D01*
X004973Y008098D01*
X004660Y008410D01*
X004660Y011785D01*
X004410Y012035D01*
X004410Y013660D01*
X008410Y013660D02*
X008410Y014660D01*
M02*
