*
*
G04 PowerPCB (Build Number 500.281.2.20) generated Gerber (RS-274-X) file*
G04 PC Version=2.1*
*
%IN "Untitled"*%
*
%MOIN*%
*
%FSLAX35Y35*%
*
*
*
*
G04 PC Standard Apertures*
*
*
G04 Thermal Relief Aperture macro.*
%AMTER*
1,1,$1,0,0*
1,0,$1-$2,0,0*
21,0,$3,$4,0,0,45*
21,0,$3,$4,0,0,135*
%
*
*
G04 Annular Aperture macro.*
%AMANN*
1,1,$1,0,0*
1,0,$2,0,0*
%
*
*
G04 Odd Aperture macro.*
%AMODD*
1,1,$1,0,0*
1,0,$1-0.005,0,0*
%
*
*
G04 PC Custom Aperture Macros*
*
*
*
*
*
*
G04 PC Aperture Table*
*
%ADD012R,0.07X0.07*%
%ADD016C,0.04*%
%ADD031C,0.07*%
%ADD032R,0.08X0.08*%
%ADD033C,0.24622*%
%ADD041C,0.08*%
%ADD046C,0.08874*%
%ADD048R,0.12811X0.12811*%
%ADD049C,0.20685*%
%ADD051C,0.12811*%
*
*
*
*
G04 PC Custom Flashes*
G04 Layer Name Untitled - flashes*
%LPD*%
*
*
G04 PC Circuitry*
G04 Layer Name Untitled - circuitry*
%LPD*%
*
G54D12*
G01X00210000Y00287500D03*
G54D16*
X00124000Y00124000D02*
X00276000D01*
G54D31*
X00230000Y00287500D03*
G54D32*
X00145000Y00185000D03*
X00227500Y00180000D03*
X00240000Y00252500D03*
X00165000Y00282500D03*
X00267500Y00165000D03*
Y00175000D03*
Y00185000D03*
Y00257500D03*
Y00267500D03*
Y00277500D03*
X00160000Y00307500D03*
X00170000D03*
X00180000D03*
X00190000D03*
G54D33*
X00140000Y00140000D03*
X00260000D03*
Y00300000D03*
X00140000D03*
G54D41*
X00145000Y00165000D03*
X00227500Y00170000D03*
X00250000Y00252500D03*
X00165000Y00292500D03*
G54D46*
X00250000Y00182342D03*
Y00162657D03*
X00145141Y00250000D03*
X00164858D03*
X00132500Y00222358D03*
Y00202641D03*
X00255000Y00197641D03*
Y00217358D03*
X00185000Y00272641D03*
Y00292358D03*
X00207500Y00170000D03*
X00172500D03*
X00145000Y00267500D03*
X00180000D03*
X00132500Y00232500D03*
Y00267500D03*
X00175314Y00254448D03*
X00185157Y00244606D03*
X00175314Y00234763D03*
X00185157Y00205236D03*
X00175314Y00195393D03*
X00185157Y00185551D03*
X00204842D03*
X00214685Y00195393D03*
X00204842Y00205236D03*
X00214685Y00234763D03*
X00204842Y00244606D03*
X00214685Y00254448D03*
X00175314D03*
X00185157Y00244606D03*
X00175314Y00234763D03*
X00185157Y00205236D03*
X00175314Y00195393D03*
X00185157Y00185551D03*
X00204842D03*
X00214685Y00195393D03*
X00204842Y00205236D03*
X00214685Y00234763D03*
X00204842Y00244606D03*
X00214685Y00254448D03*
G54D48*
X00161141Y00210157D02*
Y00229842D01*
X00228858Y00210157D02*
Y00229842D01*
G54D49*
X00162519Y00220000D03*
X00227480D03*
G54D51*
X00180314Y00136000D03*
X00219685D03*
X00200000D03*
X00180000Y00146500D03*
X00200000D03*
X00219500D03*
X00000000Y00000000D02*
M02*
