M48
;DRILL file {KiCad (6.0.0-rc1-dev-205-gc0615c5ef)} date 03/06/19 10:36:36
;FORMAT={3:3/ absolute / metric / suppress leading zeros}
FMAT,2
METRIC,TZ
T1C0.200
T2C0.400
T3C0.889
T4C1.500
T5C1.700
T6C3.000
%
G90
G05
M71
T1
X25505Y22505
X25505Y20955
X25505Y19405
X26705Y22505
X26705Y20955
X26705Y19405
X27905Y22505
X27905Y20955
X27905Y19405
X29105Y22505
X29105Y20955
X29105Y19405
T2
X2540Y21336
X2540Y19304
X7874Y12192
X8128Y31242
X9652Y12192
X9652Y10414
X9652Y8636
X9906Y17272
X9906Y6604
X10414Y4572
X11176Y28702
X11430Y30226
X11799Y15863
X11938Y14478
X11938Y4318
X12446Y21844
X12954Y29210
X13462Y18796
X13970Y30480
X14224Y24638
X14237Y25921
X14478Y4318
X14986Y17018
X15240Y29972
X15240Y2286
X16510Y30480
X17272Y17018
X17780Y22098
X18288Y28194
X19050Y29972
X19304Y17018
X20574Y28702
X20828Y17018
X20828Y2032
X21692Y30099
X22098Y24130
X22098Y23130
X22098Y3556
X22860Y28702
X22860Y13716
X23114Y20066
X23114Y19050
X23876Y3556
X24130Y14986
X24181Y30023
X25801Y25477
X25908Y3556
X26695Y32293
X26990Y25291
X27686Y3556
X27989Y25235
X28575Y30480
X29402Y15604
X29718Y14732
X29755Y17272
X29845Y24765
X30480Y30480
X31750Y24384
X32004Y19505
X32004Y18542
X32243Y22113
X33020Y30226
X33274Y21336
X33528Y19050
X33782Y13716
X34290Y32512
X34290Y31496
X34544Y38862
X34544Y33782
X34798Y4064
X34798Y2286
X35164Y25034
X35560Y19558
X35560Y18542
X36068Y14224
X36498Y10766
X36576Y38862
X36576Y37084
X36576Y35306
X36703Y25019
X36830Y8382
X36830Y6604
X36830Y4318
X38100Y25019
X38354Y35306
X38608Y33782
X38608Y32512
X39624Y24892
X40132Y32512
X41148Y24892
X41402Y16002
X41656Y32512
X41734Y10844
X41821Y18961
X41910Y20574
X42926Y24892
X43434Y32512
X43434Y2286
X44196Y16510
X44704Y24892
X45212Y32512
X45720Y16510
X46482Y24892
X46990Y32512
X47244Y16510
X48006Y24892
X48768Y16510
X49022Y32512
X49022Y30988
X49022Y29464
X49022Y28448
X49530Y24892
X50546Y24892
X50546Y19812
X50546Y18542
X50546Y16764
X50546Y15240
X50546Y12954
X50800Y30480
X50800Y10922
X51054Y28448
X51308Y8890
X52070Y32004
X52832Y10414
X55118Y10414
X57404Y21336
X57404Y10414
X59182Y10414
X59436Y21336
T3
X21590Y38100
X21590Y35560
X19685Y8890
X19685Y6350
X2540Y29210
X2540Y26670
X2540Y24130
X5080Y29210
X5080Y26670
X5080Y24130
X29845Y8890
X29845Y6350
X11430Y38100
X11430Y35560
X27305Y8890
X27305Y6350
X34925Y8890
X34925Y6350
X12065Y8890
X12065Y6350
X32385Y8890
X32385Y6350
X17145Y8890
X17145Y6350
X22225Y8890
X22225Y6350
X16510Y38100
X16510Y35560
X26670Y38100
X26670Y35560
X41148Y6604
X41148Y4064
X31750Y38100
X31750Y35560
X13970Y38100
X13970Y35560
X24130Y38100
X24130Y35560
X19050Y38100
X19050Y35560
X14605Y8890
X14605Y6350
X2540Y16129
X2540Y13589
X2540Y11049
X5080Y16129
X5080Y13589
X5080Y11049
X24765Y8890
X24765Y6350
X38608Y6604
X38608Y4064
X29210Y38100
X29210Y35560
T4
X55880Y26670
X55880Y15875
T5
X53340Y29210
X53340Y24130
X58420Y29210
X58420Y24130
X53340Y18415
X53340Y13335
X58420Y18415
X58420Y13335
T6
X55880Y35560
X55880Y5080
X5080Y5080
X5080Y35560
T0
M30
