solid OpenSCAD_Model
  facet normal 0 1 -0
    outer loop
      vertex -21.92 48.12 0
      vertex -24.4 48.12 2
      vertex -21.92 48.12 2
    endloop
  endfacet
  facet normal 0 1 0
    outer loop
      vertex -24.4 48.12 2
      vertex -21.92 48.12 0
      vertex -24.4 48.12 0
    endloop
  endfacet
  facet normal 0 1 -0
    outer loop
      vertex 24.8 48.12 0
      vertex 22.32 48.12 2
      vertex 24.8 48.12 2
    endloop
  endfacet
  facet normal 0 1 0
    outer loop
      vertex 22.32 48.12 2
      vertex 24.8 48.12 0
      vertex 22.32 48.12 0
    endloop
  endfacet
  facet normal 0 -1 0
    outer loop
      vertex -24.4 -7.08 0
      vertex -21.92 -7.08 2
      vertex -24.4 -7.08 2
    endloop
  endfacet
  facet normal 0 -1 -0
    outer loop
      vertex -21.92 -7.08 2
      vertex -24.4 -7.08 0
      vertex -21.92 -7.08 0
    endloop
  endfacet
  facet normal 0 -1 0
    outer loop
      vertex 22.32 -7.08 0
      vertex 24.8 -7.08 2
      vertex 22.32 -7.08 2
    endloop
  endfacet
  facet normal 0 -1 -0
    outer loop
      vertex 24.8 -7.08 2
      vertex 22.32 -7.08 0
      vertex 24.8 -7.08 0
    endloop
  endfacet
  facet normal -1 0 0
    outer loop
      vertex -27.4 -4.08 0
      vertex -27.4 -1.6 2
      vertex -27.4 -1.6 0
    endloop
  endfacet
  facet normal -1 -0 0
    outer loop
      vertex -27.4 -1.6 2
      vertex -27.4 -4.08 0
      vertex -27.4 -4.08 2
    endloop
  endfacet
  facet normal -1 0 0
    outer loop
      vertex -27.4 42.64 0
      vertex -27.4 45.12 2
      vertex -27.4 45.12 0
    endloop
  endfacet
  facet normal -1 -0 0
    outer loop
      vertex -27.4 45.12 2
      vertex -27.4 42.64 0
      vertex -27.4 42.64 2
    endloop
  endfacet
  facet normal 1 -0 0
    outer loop
      vertex 27.8 -4.08 2
      vertex 27.8 -1.6 0
      vertex 27.8 -1.6 2
    endloop
  endfacet
  facet normal 1 0 0
    outer loop
      vertex 27.8 -1.6 0
      vertex 27.8 -4.08 2
      vertex 27.8 -4.08 0
    endloop
  endfacet
  facet normal 1 -0 0
    outer loop
      vertex 27.8 42.64 2
      vertex 27.8 45.12 0
      vertex 27.8 45.12 2
    endloop
  endfacet
  facet normal 1 0 0
    outer loop
      vertex 27.8 45.12 0
      vertex 27.8 42.64 2
      vertex 27.8 42.64 0
    endloop
  endfacet
  facet normal 0 1 -0
    outer loop
      vertex 22.32 46.12 0
      vertex -21.92 46.12 2
      vertex 22.32 46.12 2
    endloop
  endfacet
  facet normal 0 1 0
    outer loop
      vertex -21.92 46.12 2
      vertex 22.32 46.12 0
      vertex -21.92 46.12 0
    endloop
  endfacet
  facet normal 0 -1 0
    outer loop
      vertex -21.92 -5.08 0
      vertex 22.32 -5.08 2
      vertex -21.92 -5.08 2
    endloop
  endfacet
  facet normal 0 -1 -0
    outer loop
      vertex 22.32 -5.08 2
      vertex -21.92 -5.08 0
      vertex 22.32 -5.08 0
    endloop
  endfacet
  facet normal -1 0 0
    outer loop
      vertex -25.4 -1.6 0
      vertex -25.4 42.64 2
      vertex -25.4 42.64 0
    endloop
  endfacet
  facet normal -1 -0 0
    outer loop
      vertex -25.4 42.64 2
      vertex -25.4 -1.6 0
      vertex -25.4 -1.6 2
    endloop
  endfacet
  facet normal 1 -0 0
    outer loop
      vertex 25.8 -1.6 2
      vertex 25.8 42.64 0
      vertex 25.8 42.64 2
    endloop
  endfacet
  facet normal 1 0 0
    outer loop
      vertex 25.8 42.64 0
      vertex 25.8 -1.6 2
      vertex 25.8 -1.6 0
    endloop
  endfacet
  facet normal 0 1 -0
    outer loop
      vertex -25.4 -1.6 0
      vertex -27.4 -1.6 2
      vertex -25.4 -1.6 2
    endloop
  endfacet
  facet normal 0 1 0
    outer loop
      vertex -27.4 -1.6 2
      vertex -25.4 -1.6 0
      vertex -27.4 -1.6 0
    endloop
  endfacet
  facet normal 1 -0 0
    outer loop
      vertex -21.92 -7.08 2
      vertex -21.92 -5.08 0
      vertex -21.92 -5.08 2
    endloop
  endfacet
  facet normal 1 0 0
    outer loop
      vertex -21.92 -5.08 0
      vertex -21.92 -7.08 2
      vertex -21.92 -7.08 0
    endloop
  endfacet
  facet normal 0 -1 0
    outer loop
      vertex -27.4 42.64 0
      vertex -25.4 42.64 2
      vertex -27.4 42.64 2
    endloop
  endfacet
  facet normal 0 -1 -0
    outer loop
      vertex -25.4 42.64 2
      vertex -27.4 42.64 0
      vertex -25.4 42.64 0
    endloop
  endfacet
  facet normal 1 -0 0
    outer loop
      vertex -21.92 46.12 2
      vertex -21.92 48.12 0
      vertex -21.92 48.12 2
    endloop
  endfacet
  facet normal 1 0 0
    outer loop
      vertex -21.92 48.12 0
      vertex -21.92 46.12 2
      vertex -21.92 46.12 0
    endloop
  endfacet
  facet normal 0 -1 0
    outer loop
      vertex 25.8 42.64 0
      vertex 27.8 42.64 2
      vertex 25.8 42.64 2
    endloop
  endfacet
  facet normal 0 -1 -0
    outer loop
      vertex 27.8 42.64 2
      vertex 25.8 42.64 0
      vertex 27.8 42.64 0
    endloop
  endfacet
  facet normal -1 0 0
    outer loop
      vertex 22.32 46.12 0
      vertex 22.32 48.12 2
      vertex 22.32 48.12 0
    endloop
  endfacet
  facet normal -1 -0 0
    outer loop
      vertex 22.32 48.12 2
      vertex 22.32 46.12 0
      vertex 22.32 46.12 2
    endloop
  endfacet
  facet normal 0 1 -0
    outer loop
      vertex 27.8 -1.6 0
      vertex 25.8 -1.6 2
      vertex 27.8 -1.6 2
    endloop
  endfacet
  facet normal 0 1 0
    outer loop
      vertex 25.8 -1.6 2
      vertex 27.8 -1.6 0
      vertex 25.8 -1.6 0
    endloop
  endfacet
  facet normal -1 0 0
    outer loop
      vertex 22.32 -7.08 0
      vertex 22.32 -5.08 2
      vertex 22.32 -5.08 0
    endloop
  endfacet
  facet normal -1 -0 0
    outer loop
      vertex 22.32 -5.08 2
      vertex 22.32 -7.08 0
      vertex 22.32 -7.08 2
    endloop
  endfacet
  facet normal -0.156434 -0.987688 0
    outer loop
      vertex -25.3271 -6.93317 0
      vertex -24.4 -7.08 2
      vertex -25.3271 -6.93317 2
    endloop
  endfacet
  facet normal -0.156434 -0.987688 -0
    outer loop
      vertex -24.4 -7.08 2
      vertex -25.3271 -6.93317 0
      vertex -24.4 -7.08 0
    endloop
  endfacet
  facet normal 0.891006 -0.453991 0
    outer loop
      vertex 27.2271 -5.84336 2
      vertex 27.6532 -5.00705 0
      vertex 27.6532 -5.00705 2
    endloop
  endfacet
  facet normal 0.891006 -0.453991 0
    outer loop
      vertex 27.6532 -5.00705 0
      vertex 27.2271 -5.84336 2
      vertex 27.2271 -5.84336 0
    endloop
  endfacet
  facet normal 0.156434 -0.987688 0
    outer loop
      vertex 24.8 -7.08 0
      vertex 25.7271 -6.93317 2
      vertex 24.8 -7.08 2
    endloop
  endfacet
  facet normal 0.156434 -0.987688 0
    outer loop
      vertex 25.7271 -6.93317 2
      vertex 24.8 -7.08 0
      vertex 25.7271 -6.93317 0
    endloop
  endfacet
  facet normal 0.156435 0.987688 -0
    outer loop
      vertex 25.7271 47.9732 0
      vertex 24.8 48.12 2
      vertex 25.7271 47.9732 2
    endloop
  endfacet
  facet normal 0.156435 0.987688 0
    outer loop
      vertex 24.8 48.12 2
      vertex 25.7271 47.9732 0
      vertex 24.8 48.12 0
    endloop
  endfacet
  facet normal -0.156435 0.987688 0
    outer loop
      vertex -24.4 48.12 0
      vertex -25.3271 47.9732 2
      vertex -24.4 48.12 2
    endloop
  endfacet
  facet normal -0.156435 0.987688 0
    outer loop
      vertex -25.3271 47.9732 2
      vertex -24.4 48.12 0
      vertex -25.3271 47.9732 0
    endloop
  endfacet
  facet normal -0.987688 0.156433 0
    outer loop
      vertex -27.4 45.12 0
      vertex -27.2532 46.0471 2
      vertex -27.2532 46.0471 0
    endloop
  endfacet
  facet normal -0.987688 0.156433 0
    outer loop
      vertex -27.2532 46.0471 2
      vertex -27.4 45.12 0
      vertex -27.4 45.12 2
    endloop
  endfacet
  facet normal -0.987688 -0.156434 0
    outer loop
      vertex -27.2532 -5.00705 0
      vertex -27.4 -4.08 2
      vertex -27.4 -4.08 0
    endloop
  endfacet
  facet normal -0.987688 -0.156434 0
    outer loop
      vertex -27.4 -4.08 2
      vertex -27.2532 -5.00705 0
      vertex -27.2532 -5.00705 2
    endloop
  endfacet
  facet normal 0.453991 -0.891006 0
    outer loop
      vertex 25.7271 -6.93317 0
      vertex 26.5634 -6.50705 2
      vertex 25.7271 -6.93317 2
    endloop
  endfacet
  facet normal 0.453991 -0.891006 0
    outer loop
      vertex 26.5634 -6.50705 2
      vertex 25.7271 -6.93317 0
      vertex 26.5634 -6.50705 0
    endloop
  endfacet
  facet normal 0.707106 -0.707107 0
    outer loop
      vertex 26.5634 -6.50705 0
      vertex 27.2271 -5.84336 2
      vertex 26.5634 -6.50705 2
    endloop
  endfacet
  facet normal 0.707106 -0.707107 0
    outer loop
      vertex 27.2271 -5.84336 2
      vertex 26.5634 -6.50705 0
      vertex 27.2271 -5.84336 0
    endloop
  endfacet
  facet normal 0.707107 0.707107 0
    outer loop
      vertex 27.2271 46.8834 2
      vertex 26.5634 47.5471 0
      vertex 26.5634 47.5471 2
    endloop
  endfacet
  facet normal 0.707107 0.707107 0
    outer loop
      vertex 26.5634 47.5471 0
      vertex 27.2271 46.8834 2
      vertex 27.2271 46.8834 0
    endloop
  endfacet
  facet normal 0.987688 -0.156434 0
    outer loop
      vertex 27.6532 -5.00705 2
      vertex 27.8 -4.08 0
      vertex 27.8 -4.08 2
    endloop
  endfacet
  facet normal 0.987688 -0.156434 0
    outer loop
      vertex 27.8 -4.08 0
      vertex 27.6532 -5.00705 2
      vertex 27.6532 -5.00705 0
    endloop
  endfacet
  facet normal -0.891006 0.453991 0
    outer loop
      vertex -27.2532 46.0471 0
      vertex -26.8271 46.8834 2
      vertex -26.8271 46.8834 0
    endloop
  endfacet
  facet normal -0.891006 0.453991 0
    outer loop
      vertex -26.8271 46.8834 2
      vertex -27.2532 46.0471 0
      vertex -27.2532 46.0471 2
    endloop
  endfacet
  facet normal 0.45399 0.891007 -0
    outer loop
      vertex 26.5634 47.5471 0
      vertex 25.7271 47.9732 2
      vertex 26.5634 47.5471 2
    endloop
  endfacet
  facet normal 0.45399 0.891007 0
    outer loop
      vertex 25.7271 47.9732 2
      vertex 26.5634 47.5471 0
      vertex 25.7271 47.9732 0
    endloop
  endfacet
  facet normal 0.987688 0.156433 0
    outer loop
      vertex 27.8 45.12 2
      vertex 27.6532 46.0471 0
      vertex 27.6532 46.0471 2
    endloop
  endfacet
  facet normal 0.987688 0.156433 0
    outer loop
      vertex 27.6532 46.0471 0
      vertex 27.8 45.12 2
      vertex 27.8 45.12 0
    endloop
  endfacet
  facet normal 0.891006 0.453991 0
    outer loop
      vertex 27.6532 46.0471 2
      vertex 27.2271 46.8834 0
      vertex 27.2271 46.8834 2
    endloop
  endfacet
  facet normal 0.891006 0.453991 0
    outer loop
      vertex 27.2271 46.8834 0
      vertex 27.6532 46.0471 2
      vertex 27.6532 46.0471 0
    endloop
  endfacet
  facet normal -0.45399 0.891007 0
    outer loop
      vertex -25.3271 47.9732 0
      vertex -26.1634 47.5471 2
      vertex -25.3271 47.9732 2
    endloop
  endfacet
  facet normal -0.45399 0.891007 0
    outer loop
      vertex -26.1634 47.5471 2
      vertex -25.3271 47.9732 0
      vertex -26.1634 47.5471 0
    endloop
  endfacet
  facet normal -0.707107 0.707107 0
    outer loop
      vertex -26.8271 46.8834 0
      vertex -26.1634 47.5471 2
      vertex -26.1634 47.5471 0
    endloop
  endfacet
  facet normal -0.707107 0.707107 0
    outer loop
      vertex -26.1634 47.5471 2
      vertex -26.8271 46.8834 0
      vertex -26.8271 46.8834 2
    endloop
  endfacet
  facet normal -0.891006 -0.453991 0
    outer loop
      vertex -26.8271 -5.84336 0
      vertex -27.2532 -5.00705 2
      vertex -27.2532 -5.00705 0
    endloop
  endfacet
  facet normal -0.891006 -0.453991 0
    outer loop
      vertex -27.2532 -5.00705 2
      vertex -26.8271 -5.84336 0
      vertex -26.8271 -5.84336 2
    endloop
  endfacet
  facet normal -0.707106 -0.707107 0
    outer loop
      vertex -26.8271 -5.84336 0
      vertex -26.1634 -6.50705 2
      vertex -26.8271 -5.84336 2
    endloop
  endfacet
  facet normal -0.707106 -0.707107 -0
    outer loop
      vertex -26.1634 -6.50705 2
      vertex -26.8271 -5.84336 0
      vertex -26.1634 -6.50705 0
    endloop
  endfacet
  facet normal -0.453991 -0.891006 0
    outer loop
      vertex -26.1634 -6.50705 0
      vertex -25.3271 -6.93317 2
      vertex -26.1634 -6.50705 2
    endloop
  endfacet
  facet normal -0.453991 -0.891006 -0
    outer loop
      vertex -25.3271 -6.93317 2
      vertex -26.1634 -6.50705 0
      vertex -25.3271 -6.93317 0
    endloop
  endfacet
  facet normal 0 0 1
    outer loop
      vertex 23.8549 43.8098 2
      vertex 27.8 45.12 2
      vertex 27.6532 46.0471 2
    endloop
  endfacet
  facet normal 0 0 1
    outer loop
      vertex 23.8549 43.8098 2
      vertex 27.6532 46.0471 2
      vertex 27.2271 46.8834 2
    endloop
  endfacet
  facet normal 0 0 1
    outer loop
      vertex 23.8549 43.8098 2
      vertex 27.2271 46.8834 2
      vertex 26.5634 47.5471 2
    endloop
  endfacet
  facet normal 0 0 1
    outer loop
      vertex 27.8 45.12 2
      vertex 25.8 42.64 2
      vertex 27.8 42.64 2
    endloop
  endfacet
  facet normal 0 0 1
    outer loop
      vertex 27.8 45.12 2
      vertex 23.8549 43.8098 2
      vertex 25.8 42.64 2
    endloop
  endfacet
  facet normal 0 0 1
    outer loop
      vertex 23.8549 43.8098 2
      vertex 26.5634 47.5471 2
      vertex 25.7271 47.9732 2
    endloop
  endfacet
  facet normal -0 0 1
    outer loop
      vertex 25.8 -1.6 2
      vertex 27.8 -4.08 2
      vertex 27.8 -1.6 2
    endloop
  endfacet
  facet normal -0 0 1
    outer loop
      vertex 23.8549 -2.76985 2
      vertex 27.8 -4.08 2
      vertex 25.8 -1.6 2
    endloop
  endfacet
  facet normal 0 0 1
    outer loop
      vertex 27.8 -4.08 2
      vertex 23.8549 -2.76985 2
      vertex 27.6532 -5.00705 2
    endloop
  endfacet
  facet normal 0 0 1
    outer loop
      vertex 27.6532 -5.00705 2
      vertex 23.8549 -2.76985 2
      vertex 27.2271 -5.84336 2
    endloop
  endfacet
  facet normal 0 0 1
    outer loop
      vertex 27.2271 -5.84336 2
      vertex 23.8549 -2.76985 2
      vertex 26.5634 -6.50705 2
    endloop
  endfacet
  facet normal 0 0 1
    outer loop
      vertex 23.8549 41.8702 2
      vertex 25.8 42.64 2
      vertex 24.0892 42.3301 2
    endloop
  endfacet
  facet normal 0 0 1
    outer loop
      vertex 23.4898 44.1749 2
      vertex 25.7271 47.9732 2
      vertex 24.8 48.12 2
    endloop
  endfacet
  facet normal 0 0 1
    outer loop
      vertex 25.8 42.64 2
      vertex 24.17 42.84 2
      vertex 24.0892 42.3301 2
    endloop
  endfacet
  facet normal 0 0 1
    outer loop
      vertex 23.4898 41.5051 2
      vertex 25.8 42.64 2
      vertex 23.8549 41.8702 2
    endloop
  endfacet
  facet normal 0 0 1
    outer loop
      vertex 25.8 42.64 2
      vertex 24.0892 43.3499 2
      vertex 24.17 42.84 2
    endloop
  endfacet
  facet normal 0 0 1
    outer loop
      vertex 25.8 42.64 2
      vertex 23.8549 43.8098 2
      vertex 24.0892 43.3499 2
    endloop
  endfacet
  facet normal 0 0 1
    outer loop
      vertex 25.7271 47.9732 2
      vertex 23.4898 44.1749 2
      vertex 23.8549 43.8098 2
    endloop
  endfacet
  facet normal -0 0 1
    outer loop
      vertex 22.32 46.12 2
      vertex 23.4898 44.1749 2
      vertex 24.8 48.12 2
    endloop
  endfacet
  facet normal 0 0 1
    outer loop
      vertex 23.4898 44.1749 2
      vertex 22.32 46.12 2
      vertex 23.0299 44.4092 2
    endloop
  endfacet
  facet normal 0 0 1
    outer loop
      vertex 22.32 46.12 2
      vertex 24.8 48.12 2
      vertex 22.32 48.12 2
    endloop
  endfacet
  facet normal 0 0 1
    outer loop
      vertex 23.0299 44.4092 2
      vertex 22.32 46.12 2
      vertex 22.52 44.49 2
    endloop
  endfacet
  facet normal 0 0 1
    outer loop
      vertex 22.32 46.12 2
      vertex 22.0101 44.4092 2
      vertex 22.52 44.49 2
    endloop
  endfacet
  facet normal 0 0 1
    outer loop
      vertex 22.32 46.12 2
      vertex 21.5502 44.1749 2
      vertex 22.0101 44.4092 2
    endloop
  endfacet
  facet normal 0 0 1
    outer loop
      vertex 22.32 46.12 2
      vertex 21.1851 43.8098 2
      vertex 21.5502 44.1749 2
    endloop
  endfacet
  facet normal 0 0 1
    outer loop
      vertex -20.7851 43.8098 2
      vertex 21.1851 43.8098 2
      vertex 22.32 46.12 2
    endloop
  endfacet
  facet normal 0 0 1
    outer loop
      vertex 21.1851 41.8702 2
      vertex -20.7851 41.8702 2
      vertex 21.1851 -0.830153 2
    endloop
  endfacet
  facet normal 0 0 1
    outer loop
      vertex 20.9508 43.3499 2
      vertex -20.47 42.84 2
      vertex 20.87 42.84 2
    endloop
  endfacet
  facet normal 0 0 1
    outer loop
      vertex 21.1851 43.8098 2
      vertex -20.7851 43.8098 2
      vertex 20.9508 43.3499 2
    endloop
  endfacet
  facet normal 0 0 1
    outer loop
      vertex 20.9508 43.3499 2
      vertex -20.5508 43.3499 2
      vertex -20.47 42.84 2
    endloop
  endfacet
  facet normal 0 0 1
    outer loop
      vertex 20.9508 43.3499 2
      vertex -20.7851 43.8098 2
      vertex -20.5508 43.3499 2
    endloop
  endfacet
  facet normal -0 0 1
    outer loop
      vertex -21.92 46.12 2
      vertex -20.7851 43.8098 2
      vertex 22.32 46.12 2
    endloop
  endfacet
  facet normal 0 0 1
    outer loop
      vertex -20.7851 43.8098 2
      vertex -21.92 46.12 2
      vertex -21.1502 44.1749 2
    endloop
  endfacet
  facet normal 0 0 1
    outer loop
      vertex -21.1502 44.1749 2
      vertex -21.92 46.12 2
      vertex -21.6101 44.4092 2
    endloop
  endfacet
  facet normal 0 0 1
    outer loop
      vertex -21.6101 44.4092 2
      vertex -21.92 46.12 2
      vertex -22.12 44.49 2
    endloop
  endfacet
  facet normal 0 0 1
    outer loop
      vertex -27.4 -4.08 2
      vertex -23.4549 -2.76985 2
      vertex -25.4 -1.6 2
    endloop
  endfacet
  facet normal 0 0 1
    outer loop
      vertex -23.4549 -2.76985 2
      vertex -26.1634 -6.50705 2
      vertex -25.3271 -6.93317 2
    endloop
  endfacet
  facet normal 0 0 1
    outer loop
      vertex -23.4549 -2.76985 2
      vertex -26.8271 -5.84336 2
      vertex -26.1634 -6.50705 2
    endloop
  endfacet
  facet normal 0 0 1
    outer loop
      vertex -23.4549 -2.76985 2
      vertex -27.2532 -5.00705 2
      vertex -26.8271 -5.84336 2
    endloop
  endfacet
  facet normal 0 0 1
    outer loop
      vertex -27.4 -4.08 2
      vertex -25.4 -1.6 2
      vertex -27.4 -1.6 2
    endloop
  endfacet
  facet normal 0 0 1
    outer loop
      vertex -23.4549 -2.76985 2
      vertex -27.4 -4.08 2
      vertex -27.2532 -5.00705 2
    endloop
  endfacet
  facet normal -0 0 1
    outer loop
      vertex -24.4 48.12 2
      vertex -21.92 46.12 2
      vertex -21.92 48.12 2
    endloop
  endfacet
  facet normal 0 0 1
    outer loop
      vertex -21.92 46.12 2
      vertex -22.6299 44.4092 2
      vertex -22.12 44.49 2
    endloop
  endfacet
  facet normal 0 -0 1
    outer loop
      vertex -23.0898 44.1749 2
      vertex -21.92 46.12 2
      vertex -24.4 48.12 2
    endloop
  endfacet
  facet normal 0 0 1
    outer loop
      vertex -21.92 46.12 2
      vertex -23.0898 44.1749 2
      vertex -22.6299 44.4092 2
    endloop
  endfacet
  facet normal -0 0 1
    outer loop
      vertex -25.3271 47.9732 2
      vertex -23.0898 44.1749 2
      vertex -24.4 48.12 2
    endloop
  endfacet
  facet normal -0 0 1
    outer loop
      vertex -26.8271 46.8834 2
      vertex -23.4549 43.8098 2
      vertex -26.1634 47.5471 2
    endloop
  endfacet
  facet normal 0 0 1
    outer loop
      vertex -23.0898 44.1749 2
      vertex -26.1634 47.5471 2
      vertex -23.4549 43.8098 2
    endloop
  endfacet
  facet normal -0 0 1
    outer loop
      vertex -26.1634 47.5471 2
      vertex -23.0898 44.1749 2
      vertex -25.3271 47.9732 2
    endloop
  endfacet
  facet normal 0 0 1
    outer loop
      vertex 21.1851 -0.830153 2
      vertex -20.7851 -0.830153 2
      vertex 20.9508 -1.29012 2
    endloop
  endfacet
  facet normal 0 0 1
    outer loop
      vertex 20.87 -1.8 2
      vertex -20.5508 -1.29012 2
      vertex -20.47 -1.8 2
    endloop
  endfacet
  facet normal 0 -0 1
    outer loop
      vertex -20.5508 -1.29012 2
      vertex 20.9508 -1.29012 2
      vertex -20.7851 -0.830153 2
    endloop
  endfacet
  facet normal 0 0 1
    outer loop
      vertex 20.9508 -1.29012 2
      vertex -20.5508 -1.29012 2
      vertex 20.87 -1.8 2
    endloop
  endfacet
  facet normal -0 0 1
    outer loop
      vertex -21.1502 41.5051 2
      vertex -20.7851 -0.830153 2
      vertex -20.7851 41.8702 2
    endloop
  endfacet
  facet normal 0 0 1
    outer loop
      vertex -21.1502 41.5051 2
      vertex -21.1502 -0.465121 2
      vertex -20.7851 -0.830153 2
    endloop
  endfacet
  facet normal -0 0 1
    outer loop
      vertex -21.6101 41.2708 2
      vertex -21.1502 -0.465121 2
      vertex -21.1502 41.5051 2
    endloop
  endfacet
  facet normal 0 0 1
    outer loop
      vertex -21.6101 41.2708 2
      vertex -21.6101 -0.230756 2
      vertex -21.1502 -0.465121 2
    endloop
  endfacet
  facet normal -0 0 1
    outer loop
      vertex -22.12 41.19 2
      vertex -21.6101 -0.230756 2
      vertex -21.6101 41.2708 2
    endloop
  endfacet
  facet normal 0 0 1
    outer loop
      vertex -22.12 41.19 2
      vertex -22.12 -0.15 2
      vertex -21.6101 -0.230756 2
    endloop
  endfacet
  facet normal 0 0 1
    outer loop
      vertex -22.6299 41.2708 2
      vertex -22.12 -0.15 2
      vertex -22.12 41.19 2
    endloop
  endfacet
  facet normal 0 0 1
    outer loop
      vertex -22.6299 41.2708 2
      vertex -22.6299 -0.230756 2
      vertex -22.12 -0.15 2
    endloop
  endfacet
  facet normal 0 0 1
    outer loop
      vertex -23.0898 41.5051 2
      vertex -22.6299 -0.230756 2
      vertex -22.6299 41.2708 2
    endloop
  endfacet
  facet normal 0 0 1
    outer loop
      vertex -23.0898 41.5051 2
      vertex -23.0898 -0.465121 2
      vertex -22.6299 -0.230756 2
    endloop
  endfacet
  facet normal 0 0 1
    outer loop
      vertex -23.4549 41.8702 2
      vertex -23.0898 -0.465121 2
      vertex -23.0898 41.5051 2
    endloop
  endfacet
  facet normal 0 0 1
    outer loop
      vertex -23.4549 41.8702 2
      vertex -23.4549 -0.830153 2
      vertex -23.0898 -0.465121 2
    endloop
  endfacet
  facet normal 0 0 1
    outer loop
      vertex -23.6892 42.3301 2
      vertex -23.4549 -0.830153 2
      vertex -23.4549 41.8702 2
    endloop
  endfacet
  facet normal 0 0 1
    outer loop
      vertex -23.6892 42.3301 2
      vertex -23.6892 -1.29012 2
      vertex -23.4549 -0.830153 2
    endloop
  endfacet
  facet normal 0 0 1
    outer loop
      vertex -23.77 42.84 2
      vertex -23.6892 -1.29012 2
      vertex -23.6892 42.3301 2
    endloop
  endfacet
  facet normal 0 0 1
    outer loop
      vertex -23.6892 -1.29012 2
      vertex -23.77 42.84 2
      vertex -23.77 -1.8 2
    endloop
  endfacet
  facet normal 0 0 1
    outer loop
      vertex 22.0101 -3.36924 2
      vertex 22.32 -5.08 2
      vertex 22.52 -3.45 2
    endloop
  endfacet
  facet normal 0 0 1
    outer loop
      vertex 21.5502 -3.13488 2
      vertex 22.32 -5.08 2
      vertex 22.0101 -3.36924 2
    endloop
  endfacet
  facet normal 0 0 1
    outer loop
      vertex 21.1851 -2.76985 2
      vertex 22.32 -5.08 2
      vertex 21.5502 -3.13488 2
    endloop
  endfacet
  facet normal 0 0 1
    outer loop
      vertex -20.7851 -2.76985 2
      vertex 21.1851 -2.76985 2
      vertex 20.9508 -2.30988 2
    endloop
  endfacet
  facet normal 0 0 1
    outer loop
      vertex -20.7851 -0.830153 2
      vertex 21.1851 -0.830153 2
      vertex -20.7851 41.8702 2
    endloop
  endfacet
  facet normal 0 0 1
    outer loop
      vertex 20.87 -1.8 2
      vertex -20.47 -1.8 2
      vertex 20.9508 -2.30988 2
    endloop
  endfacet
  facet normal 0 0 1
    outer loop
      vertex -20.5508 -2.30988 2
      vertex 20.9508 -2.30988 2
      vertex -20.47 -1.8 2
    endloop
  endfacet
  facet normal 0 0 1
    outer loop
      vertex -20.7851 -2.76985 2
      vertex 20.9508 -2.30988 2
      vertex -20.5508 -2.30988 2
    endloop
  endfacet
  facet normal 0 0 1
    outer loop
      vertex 21.1851 -2.76985 2
      vertex -20.7851 -2.76985 2
      vertex 22.32 -5.08 2
    endloop
  endfacet
  facet normal 0 0 1
    outer loop
      vertex -21.92 -5.08 2
      vertex -20.7851 -2.76985 2
      vertex -21.1502 -3.13488 2
    endloop
  endfacet
  facet normal 0 0 1
    outer loop
      vertex -21.92 -5.08 2
      vertex -21.1502 -3.13488 2
      vertex -21.6101 -3.36924 2
    endloop
  endfacet
  facet normal 0 0 1
    outer loop
      vertex -20.7851 -2.76985 2
      vertex -21.92 -5.08 2
      vertex 22.32 -5.08 2
    endloop
  endfacet
  facet normal -0 0 1
    outer loop
      vertex -22.12 -3.45 2
      vertex -21.92 -5.08 2
      vertex -21.6101 -3.36924 2
    endloop
  endfacet
  facet normal 0 0 1
    outer loop
      vertex -22.6299 -3.36924 2
      vertex -21.92 -5.08 2
      vertex -22.12 -3.45 2
    endloop
  endfacet
  facet normal 0 0 1
    outer loop
      vertex -23.0898 -3.13488 2
      vertex -21.92 -5.08 2
      vertex -22.6299 -3.36924 2
    endloop
  endfacet
  facet normal 0 0 1
    outer loop
      vertex -21.92 -5.08 2
      vertex -23.0898 -3.13488 2
      vertex -24.4 -7.08 2
    endloop
  endfacet
  facet normal 0 0 1
    outer loop
      vertex -25.3271 -6.93317 2
      vertex -23.0898 -3.13488 2
      vertex -23.4549 -2.76985 2
    endloop
  endfacet
  facet normal 0 0 1
    outer loop
      vertex -25.4 -1.6 2
      vertex -23.4549 -2.76985 2
      vertex -23.6892 -2.30988 2
    endloop
  endfacet
  facet normal 0 0 1
    outer loop
      vertex -21.92 -5.08 2
      vertex -24.4 -7.08 2
      vertex -21.92 -7.08 2
    endloop
  endfacet
  facet normal 0 0 1
    outer loop
      vertex -25.4 -1.6 2
      vertex -23.6892 -2.30988 2
      vertex -23.77 -1.8 2
    endloop
  endfacet
  facet normal 0 0 1
    outer loop
      vertex -23.77 42.84 2
      vertex -25.4 42.64 2
      vertex -23.77 -1.8 2
    endloop
  endfacet
  facet normal -0 0 1
    outer loop
      vertex -27.2532 46.0471 2
      vertex -23.4549 43.8098 2
      vertex -26.8271 46.8834 2
    endloop
  endfacet
  facet normal -0 0 1
    outer loop
      vertex -25.4 -1.6 2
      vertex -23.77 -1.8 2
      vertex -25.4 42.64 2
    endloop
  endfacet
  facet normal 0 0 1
    outer loop
      vertex -23.0898 -3.13488 2
      vertex -25.3271 -6.93317 2
      vertex -24.4 -7.08 2
    endloop
  endfacet
  facet normal -0 0 1
    outer loop
      vertex -27.4 45.12 2
      vertex -23.4549 43.8098 2
      vertex -27.2532 46.0471 2
    endloop
  endfacet
  facet normal 0 -0 1
    outer loop
      vertex -25.4 42.64 2
      vertex -23.4549 43.8098 2
      vertex -27.4 45.12 2
    endloop
  endfacet
  facet normal 0 0 1
    outer loop
      vertex -23.4549 43.8098 2
      vertex -25.4 42.64 2
      vertex -23.6892 43.3499 2
    endloop
  endfacet
  facet normal 0 0 1
    outer loop
      vertex -23.6892 43.3499 2
      vertex -25.4 42.64 2
      vertex -23.77 42.84 2
    endloop
  endfacet
  facet normal 0 0 1
    outer loop
      vertex -25.4 42.64 2
      vertex -27.4 45.12 2
      vertex -27.4 42.64 2
    endloop
  endfacet
  facet normal 0 -0 1
    outer loop
      vertex 24.17 -1.8 2
      vertex 25.8 -1.6 2
      vertex 24.0892 -1.29012 2
    endloop
  endfacet
  facet normal 0 0 1
    outer loop
      vertex 24.0892 -2.30988 2
      vertex 25.8 -1.6 2
      vertex 24.17 -1.8 2
    endloop
  endfacet
  facet normal 0 0 1
    outer loop
      vertex 25.8 42.64 2
      vertex 23.4898 41.5051 2
      vertex 25.8 -1.6 2
    endloop
  endfacet
  facet normal 0 0 1
    outer loop
      vertex 25.8 -1.6 2
      vertex 23.8549 -0.830153 2
      vertex 24.0892 -1.29012 2
    endloop
  endfacet
  facet normal -0 0 1
    outer loop
      vertex 23.4898 -0.465121 2
      vertex 25.8 -1.6 2
      vertex 23.4898 41.5051 2
    endloop
  endfacet
  facet normal 0 0 1
    outer loop
      vertex 25.8 -1.6 2
      vertex 23.4898 -0.465121 2
      vertex 23.8549 -0.830153 2
    endloop
  endfacet
  facet normal -0 0 1
    outer loop
      vertex 23.0299 41.2708 2
      vertex 23.4898 -0.465121 2
      vertex 23.4898 41.5051 2
    endloop
  endfacet
  facet normal 0 0 1
    outer loop
      vertex 23.0299 41.2708 2
      vertex 23.0299 -0.230756 2
      vertex 23.4898 -0.465121 2
    endloop
  endfacet
  facet normal -0 0 1
    outer loop
      vertex 22.52 41.19 2
      vertex 23.0299 -0.230756 2
      vertex 23.0299 41.2708 2
    endloop
  endfacet
  facet normal 0 0 1
    outer loop
      vertex 22.52 41.19 2
      vertex 22.52 -0.15 2
      vertex 23.0299 -0.230756 2
    endloop
  endfacet
  facet normal 0 0 1
    outer loop
      vertex 22.0101 41.2708 2
      vertex 22.52 -0.15 2
      vertex 22.52 41.19 2
    endloop
  endfacet
  facet normal 0 0 1
    outer loop
      vertex 22.0101 41.2708 2
      vertex 22.0101 -0.230756 2
      vertex 22.52 -0.15 2
    endloop
  endfacet
  facet normal 0 0 1
    outer loop
      vertex 21.5502 41.5051 2
      vertex 22.0101 -0.230756 2
      vertex 22.0101 41.2708 2
    endloop
  endfacet
  facet normal 0 0 1
    outer loop
      vertex 21.5502 41.5051 2
      vertex 21.5502 -0.465121 2
      vertex 22.0101 -0.230756 2
    endloop
  endfacet
  facet normal 0 0 1
    outer loop
      vertex 21.1851 41.8702 2
      vertex 21.5502 -0.465121 2
      vertex 21.5502 41.5051 2
    endloop
  endfacet
  facet normal 0 0 1
    outer loop
      vertex 21.1851 41.8702 2
      vertex 21.1851 -0.830153 2
      vertex 21.5502 -0.465121 2
    endloop
  endfacet
  facet normal 0 0 1
    outer loop
      vertex -20.5508 42.3301 2
      vertex 20.9508 42.3301 2
      vertex -20.47 42.84 2
    endloop
  endfacet
  facet normal 0 0 1
    outer loop
      vertex 20.9508 42.3301 2
      vertex -20.5508 42.3301 2
      vertex 21.1851 41.8702 2
    endloop
  endfacet
  facet normal -0 0 1
    outer loop
      vertex -20.47 42.84 2
      vertex 20.9508 42.3301 2
      vertex 20.87 42.84 2
    endloop
  endfacet
  facet normal 0 0 1
    outer loop
      vertex -20.7851 41.8702 2
      vertex 21.1851 41.8702 2
      vertex -20.5508 42.3301 2
    endloop
  endfacet
  facet normal 0 0 1
    outer loop
      vertex 23.8549 -2.76985 2
      vertex 25.8 -1.6 2
      vertex 24.0892 -2.30988 2
    endloop
  endfacet
  facet normal -0 0 1
    outer loop
      vertex 23.4898 -3.13488 2
      vertex 26.5634 -6.50705 2
      vertex 23.8549 -2.76985 2
    endloop
  endfacet
  facet normal 0 0 1
    outer loop
      vertex 26.5634 -6.50705 2
      vertex 23.4898 -3.13488 2
      vertex 25.7271 -6.93317 2
    endloop
  endfacet
  facet normal 0 0 1
    outer loop
      vertex 25.7271 -6.93317 2
      vertex 23.4898 -3.13488 2
      vertex 24.8 -7.08 2
    endloop
  endfacet
  facet normal 0 0 1
    outer loop
      vertex 22.32 -5.08 2
      vertex 23.4898 -3.13488 2
      vertex 23.0299 -3.36924 2
    endloop
  endfacet
  facet normal 0 0 1
    outer loop
      vertex 22.32 -5.08 2
      vertex 23.0299 -3.36924 2
      vertex 22.52 -3.45 2
    endloop
  endfacet
  facet normal 0 0 1
    outer loop
      vertex 23.4898 -3.13488 2
      vertex 22.32 -5.08 2
      vertex 24.8 -7.08 2
    endloop
  endfacet
  facet normal 0 0 1
    outer loop
      vertex 24.8 -7.08 2
      vertex 22.32 -5.08 2
      vertex 22.32 -7.08 2
    endloop
  endfacet
  facet normal 0 0 -1
    outer loop
      vertex 23.8549 -2.76985 0
      vertex 27.8 -4.08 0
      vertex 27.6532 -5.00705 0
    endloop
  endfacet
  facet normal 0 0 -1
    outer loop
      vertex 23.8549 -2.76985 0
      vertex 27.6532 -5.00705 0
      vertex 27.2271 -5.84336 0
    endloop
  endfacet
  facet normal 0 0 -1
    outer loop
      vertex 23.8549 -2.76985 0
      vertex 27.2271 -5.84336 0
      vertex 26.5634 -6.50705 0
    endloop
  endfacet
  facet normal 0 0 -1
    outer loop
      vertex 27.8 -4.08 0
      vertex 25.8 -1.6 0
      vertex 27.8 -1.6 0
    endloop
  endfacet
  facet normal 0 0 -1
    outer loop
      vertex 27.8 -4.08 0
      vertex 23.8549 -2.76985 0
      vertex 25.8 -1.6 0
    endloop
  endfacet
  facet normal 0 0 -1
    outer loop
      vertex 23.8549 -2.76985 0
      vertex 26.5634 -6.50705 0
      vertex 25.7271 -6.93317 0
    endloop
  endfacet
  facet normal 0 0 -1
    outer loop
      vertex 25.8 42.64 0
      vertex 27.8 45.12 0
      vertex 27.8 42.64 0
    endloop
  endfacet
  facet normal 0 0 -1
    outer loop
      vertex 23.8549 43.8098 0
      vertex 27.8 45.12 0
      vertex 25.8 42.64 0
    endloop
  endfacet
  facet normal -0 0 -1
    outer loop
      vertex 27.8 45.12 0
      vertex 23.8549 43.8098 0
      vertex 27.6532 46.0471 0
    endloop
  endfacet
  facet normal -0 0 -1
    outer loop
      vertex 27.6532 46.0471 0
      vertex 23.8549 43.8098 0
      vertex 27.2271 46.8834 0
    endloop
  endfacet
  facet normal -0 0 -1
    outer loop
      vertex 27.2271 46.8834 0
      vertex 23.8549 43.8098 0
      vertex 26.5634 47.5471 0
    endloop
  endfacet
  facet normal 0 0 -1
    outer loop
      vertex 23.8549 -0.830153 0
      vertex 25.8 -1.6 0
      vertex 24.0892 -1.29012 0
    endloop
  endfacet
  facet normal 0 0 -1
    outer loop
      vertex 23.4898 -3.13488 0
      vertex 25.7271 -6.93317 0
      vertex 24.8 -7.08 0
    endloop
  endfacet
  facet normal -0 0 -1
    outer loop
      vertex 25.8 -1.6 0
      vertex 24.17 -1.8 0
      vertex 24.0892 -1.29012 0
    endloop
  endfacet
  facet normal 0 0 -1
    outer loop
      vertex 23.4898 -0.465121 0
      vertex 25.8 -1.6 0
      vertex 23.8549 -0.830153 0
    endloop
  endfacet
  facet normal 0 0 -1
    outer loop
      vertex 25.8 -1.6 0
      vertex 24.0892 -2.30988 0
      vertex 24.17 -1.8 0
    endloop
  endfacet
  facet normal 0 0 -1
    outer loop
      vertex 25.8 -1.6 0
      vertex 23.8549 -2.76985 0
      vertex 24.0892 -2.30988 0
    endloop
  endfacet
  facet normal 0 0 -1
    outer loop
      vertex 25.7271 -6.93317 0
      vertex 23.4898 -3.13488 0
      vertex 23.8549 -2.76985 0
    endloop
  endfacet
  facet normal 0 0 -1
    outer loop
      vertex 22.32 -5.08 0
      vertex 23.4898 -3.13488 0
      vertex 24.8 -7.08 0
    endloop
  endfacet
  facet normal 0 0 -1
    outer loop
      vertex 23.4898 -3.13488 0
      vertex 22.32 -5.08 0
      vertex 23.0299 -3.36924 0
    endloop
  endfacet
  facet normal 0 0 -1
    outer loop
      vertex 22.32 -5.08 0
      vertex 24.8 -7.08 0
      vertex 22.32 -7.08 0
    endloop
  endfacet
  facet normal 0 0 -1
    outer loop
      vertex 23.0299 -3.36924 0
      vertex 22.32 -5.08 0
      vertex 22.52 -3.45 0
    endloop
  endfacet
  facet normal 0 0 -1
    outer loop
      vertex 22.32 -5.08 0
      vertex 22.0101 -3.36924 0
      vertex 22.52 -3.45 0
    endloop
  endfacet
  facet normal 0 0 -1
    outer loop
      vertex 22.32 -5.08 0
      vertex 21.5502 -3.13488 0
      vertex 22.0101 -3.36924 0
    endloop
  endfacet
  facet normal 0 0 -1
    outer loop
      vertex 22.32 -5.08 0
      vertex 21.1851 -2.76985 0
      vertex 21.5502 -3.13488 0
    endloop
  endfacet
  facet normal 0 0 -1
    outer loop
      vertex -20.7851 -2.76985 0
      vertex 21.1851 -2.76985 0
      vertex 22.32 -5.08 0
    endloop
  endfacet
  facet normal 0 0 -1
    outer loop
      vertex 21.1851 -0.830153 0
      vertex -20.7851 -0.830153 0
      vertex 21.1851 41.8702 0
    endloop
  endfacet
  facet normal 0 0 -1
    outer loop
      vertex 20.9508 -2.30988 0
      vertex -20.47 -1.8 0
      vertex 20.87 -1.8 0
    endloop
  endfacet
  facet normal 0 0 -1
    outer loop
      vertex 21.1851 -2.76985 0
      vertex -20.7851 -2.76985 0
      vertex 20.9508 -2.30988 0
    endloop
  endfacet
  facet normal 0 0 -1
    outer loop
      vertex 20.9508 -2.30988 0
      vertex -20.5508 -2.30988 0
      vertex -20.47 -1.8 0
    endloop
  endfacet
  facet normal -0 0 -1
    outer loop
      vertex 20.9508 -2.30988 0
      vertex -20.7851 -2.76985 0
      vertex -20.5508 -2.30988 0
    endloop
  endfacet
  facet normal 0 0 -1
    outer loop
      vertex -21.92 -5.08 0
      vertex -20.7851 -2.76985 0
      vertex 22.32 -5.08 0
    endloop
  endfacet
  facet normal 0 0 -1
    outer loop
      vertex -20.7851 -2.76985 0
      vertex -21.92 -5.08 0
      vertex -21.1502 -3.13488 0
    endloop
  endfacet
  facet normal 0 0 -1
    outer loop
      vertex -21.1502 -3.13488 0
      vertex -21.92 -5.08 0
      vertex -21.6101 -3.36924 0
    endloop
  endfacet
  facet normal 0 0 -1
    outer loop
      vertex -21.6101 -3.36924 0
      vertex -21.92 -5.08 0
      vertex -22.12 -3.45 0
    endloop
  endfacet
  facet normal 0 0 -1
    outer loop
      vertex -27.4 45.12 0
      vertex -23.4549 43.8098 0
      vertex -25.4 42.64 0
    endloop
  endfacet
  facet normal 0 0 -1
    outer loop
      vertex -23.4549 43.8098 0
      vertex -26.1634 47.5471 0
      vertex -25.3271 47.9732 0
    endloop
  endfacet
  facet normal 0 0 -1
    outer loop
      vertex -23.4549 43.8098 0
      vertex -26.8271 46.8834 0
      vertex -26.1634 47.5471 0
    endloop
  endfacet
  facet normal 0 0 -1
    outer loop
      vertex -23.4549 43.8098 0
      vertex -27.2532 46.0471 0
      vertex -26.8271 46.8834 0
    endloop
  endfacet
  facet normal 0 0 -1
    outer loop
      vertex -27.4 45.12 0
      vertex -25.4 42.64 0
      vertex -27.4 42.64 0
    endloop
  endfacet
  facet normal 0 0 -1
    outer loop
      vertex -23.4549 43.8098 0
      vertex -27.4 45.12 0
      vertex -27.2532 46.0471 0
    endloop
  endfacet
  facet normal 0 0 -1
    outer loop
      vertex -24.4 -7.08 0
      vertex -21.92 -5.08 0
      vertex -21.92 -7.08 0
    endloop
  endfacet
  facet normal 0 0 -1
    outer loop
      vertex -21.92 -5.08 0
      vertex -22.6299 -3.36924 0
      vertex -22.12 -3.45 0
    endloop
  endfacet
  facet normal 0 -0 -1
    outer loop
      vertex -23.0898 -3.13488 0
      vertex -21.92 -5.08 0
      vertex -24.4 -7.08 0
    endloop
  endfacet
  facet normal 0 0 -1
    outer loop
      vertex -21.92 -5.08 0
      vertex -23.0898 -3.13488 0
      vertex -22.6299 -3.36924 0
    endloop
  endfacet
  facet normal 0 0 -1
    outer loop
      vertex -25.3271 -6.93317 0
      vertex -23.0898 -3.13488 0
      vertex -24.4 -7.08 0
    endloop
  endfacet
  facet normal 0 0 -1
    outer loop
      vertex -26.8271 -5.84336 0
      vertex -23.4549 -2.76985 0
      vertex -26.1634 -6.50705 0
    endloop
  endfacet
  facet normal -0 0 -1
    outer loop
      vertex -23.0898 -3.13488 0
      vertex -26.1634 -6.50705 0
      vertex -23.4549 -2.76985 0
    endloop
  endfacet
  facet normal 0 0 -1
    outer loop
      vertex -26.1634 -6.50705 0
      vertex -23.0898 -3.13488 0
      vertex -25.3271 -6.93317 0
    endloop
  endfacet
  facet normal 0 0 -1
    outer loop
      vertex 21.1851 41.8702 0
      vertex -20.7851 41.8702 0
      vertex 20.9508 42.3301 0
    endloop
  endfacet
  facet normal -0 0 -1
    outer loop
      vertex 20.87 42.84 0
      vertex -20.5508 42.3301 0
      vertex -20.47 42.84 0
    endloop
  endfacet
  facet normal 0 -0 -1
    outer loop
      vertex -20.5508 42.3301 0
      vertex 20.9508 42.3301 0
      vertex -20.7851 41.8702 0
    endloop
  endfacet
  facet normal 0 0 -1
    outer loop
      vertex 20.9508 42.3301 0
      vertex -20.5508 42.3301 0
      vertex 20.87 42.84 0
    endloop
  endfacet
  facet normal 0 0 -1
    outer loop
      vertex -21.1502 -0.465121 0
      vertex -20.7851 41.8702 0
      vertex -20.7851 -0.830153 0
    endloop
  endfacet
  facet normal 0 0 -1
    outer loop
      vertex -21.1502 -0.465121 0
      vertex -21.1502 41.5051 0
      vertex -20.7851 41.8702 0
    endloop
  endfacet
  facet normal 0 0 -1
    outer loop
      vertex -21.6101 -0.230756 0
      vertex -21.1502 41.5051 0
      vertex -21.1502 -0.465121 0
    endloop
  endfacet
  facet normal 0 0 -1
    outer loop
      vertex -21.6101 -0.230756 0
      vertex -21.6101 41.2708 0
      vertex -21.1502 41.5051 0
    endloop
  endfacet
  facet normal 0 0 -1
    outer loop
      vertex -22.12 -0.15 0
      vertex -21.6101 41.2708 0
      vertex -21.6101 -0.230756 0
    endloop
  endfacet
  facet normal 0 0 -1
    outer loop
      vertex -22.12 -0.15 0
      vertex -22.12 41.19 0
      vertex -21.6101 41.2708 0
    endloop
  endfacet
  facet normal 0 0 -1
    outer loop
      vertex -22.6299 -0.230756 0
      vertex -22.12 41.19 0
      vertex -22.12 -0.15 0
    endloop
  endfacet
  facet normal 0 0 -1
    outer loop
      vertex -22.6299 -0.230756 0
      vertex -22.6299 41.2708 0
      vertex -22.12 41.19 0
    endloop
  endfacet
  facet normal 0 0 -1
    outer loop
      vertex -23.0898 -0.465121 0
      vertex -22.6299 41.2708 0
      vertex -22.6299 -0.230756 0
    endloop
  endfacet
  facet normal 0 0 -1
    outer loop
      vertex -23.0898 -0.465121 0
      vertex -23.0898 41.5051 0
      vertex -22.6299 41.2708 0
    endloop
  endfacet
  facet normal 0 0 -1
    outer loop
      vertex -23.4549 -0.830153 0
      vertex -23.0898 41.5051 0
      vertex -23.0898 -0.465121 0
    endloop
  endfacet
  facet normal 0 0 -1
    outer loop
      vertex -23.4549 -0.830153 0
      vertex -23.4549 41.8702 0
      vertex -23.0898 41.5051 0
    endloop
  endfacet
  facet normal 0 0 -1
    outer loop
      vertex -23.6892 -1.29012 0
      vertex -23.4549 41.8702 0
      vertex -23.4549 -0.830153 0
    endloop
  endfacet
  facet normal 0 0 -1
    outer loop
      vertex -23.6892 -1.29012 0
      vertex -23.6892 42.3301 0
      vertex -23.4549 41.8702 0
    endloop
  endfacet
  facet normal 0 0 -1
    outer loop
      vertex -23.77 -1.8 0
      vertex -23.6892 42.3301 0
      vertex -23.6892 -1.29012 0
    endloop
  endfacet
  facet normal -0 0 -1
    outer loop
      vertex -23.6892 42.3301 0
      vertex -23.77 -1.8 0
      vertex -23.77 42.84 0
    endloop
  endfacet
  facet normal 0 0 -1
    outer loop
      vertex 22.0101 44.4092 0
      vertex 22.32 46.12 0
      vertex 22.52 44.49 0
    endloop
  endfacet
  facet normal 0 0 -1
    outer loop
      vertex 21.5502 44.1749 0
      vertex 22.32 46.12 0
      vertex 22.0101 44.4092 0
    endloop
  endfacet
  facet normal 0 0 -1
    outer loop
      vertex 21.1851 43.8098 0
      vertex 22.32 46.12 0
      vertex 21.5502 44.1749 0
    endloop
  endfacet
  facet normal 0 0 -1
    outer loop
      vertex -20.7851 43.8098 0
      vertex 21.1851 43.8098 0
      vertex 20.9508 43.3499 0
    endloop
  endfacet
  facet normal 0 0 -1
    outer loop
      vertex -20.7851 41.8702 0
      vertex 21.1851 41.8702 0
      vertex -20.7851 -0.830153 0
    endloop
  endfacet
  facet normal 0 0 -1
    outer loop
      vertex 20.87 42.84 0
      vertex -20.47 42.84 0
      vertex 20.9508 43.3499 0
    endloop
  endfacet
  facet normal 0 0 -1
    outer loop
      vertex -20.5508 43.3499 0
      vertex 20.9508 43.3499 0
      vertex -20.47 42.84 0
    endloop
  endfacet
  facet normal 0 0 -1
    outer loop
      vertex -20.7851 43.8098 0
      vertex 20.9508 43.3499 0
      vertex -20.5508 43.3499 0
    endloop
  endfacet
  facet normal 0 0 -1
    outer loop
      vertex 21.1851 43.8098 0
      vertex -20.7851 43.8098 0
      vertex 22.32 46.12 0
    endloop
  endfacet
  facet normal 0 0 -1
    outer loop
      vertex -21.92 46.12 0
      vertex -20.7851 43.8098 0
      vertex -21.1502 44.1749 0
    endloop
  endfacet
  facet normal 0 0 -1
    outer loop
      vertex -21.92 46.12 0
      vertex -21.1502 44.1749 0
      vertex -21.6101 44.4092 0
    endloop
  endfacet
  facet normal 0 0 -1
    outer loop
      vertex -20.7851 43.8098 0
      vertex -21.92 46.12 0
      vertex 22.32 46.12 0
    endloop
  endfacet
  facet normal 0 0 -1
    outer loop
      vertex -22.12 44.49 0
      vertex -21.92 46.12 0
      vertex -21.6101 44.4092 0
    endloop
  endfacet
  facet normal 0 0 -1
    outer loop
      vertex -22.6299 44.4092 0
      vertex -21.92 46.12 0
      vertex -22.12 44.49 0
    endloop
  endfacet
  facet normal 0 0 -1
    outer loop
      vertex -23.0898 44.1749 0
      vertex -21.92 46.12 0
      vertex -22.6299 44.4092 0
    endloop
  endfacet
  facet normal -0 0 -1
    outer loop
      vertex -21.92 46.12 0
      vertex -23.0898 44.1749 0
      vertex -24.4 48.12 0
    endloop
  endfacet
  facet normal 0 0 -1
    outer loop
      vertex -25.3271 47.9732 0
      vertex -23.0898 44.1749 0
      vertex -23.4549 43.8098 0
    endloop
  endfacet
  facet normal 0 0 -1
    outer loop
      vertex -25.4 42.64 0
      vertex -23.4549 43.8098 0
      vertex -23.6892 43.3499 0
    endloop
  endfacet
  facet normal 0 0 -1
    outer loop
      vertex -21.92 46.12 0
      vertex -24.4 48.12 0
      vertex -21.92 48.12 0
    endloop
  endfacet
  facet normal 0 0 -1
    outer loop
      vertex -25.4 42.64 0
      vertex -23.6892 43.3499 0
      vertex -23.77 42.84 0
    endloop
  endfacet
  facet normal 0 0 -1
    outer loop
      vertex -23.77 -1.8 0
      vertex -25.4 -1.6 0
      vertex -23.77 42.84 0
    endloop
  endfacet
  facet normal 0 0 -1
    outer loop
      vertex -27.2532 -5.00705 0
      vertex -23.4549 -2.76985 0
      vertex -26.8271 -5.84336 0
    endloop
  endfacet
  facet normal 0 0 -1
    outer loop
      vertex -25.4 42.64 0
      vertex -23.77 42.84 0
      vertex -25.4 -1.6 0
    endloop
  endfacet
  facet normal 0 0 -1
    outer loop
      vertex -23.0898 44.1749 0
      vertex -25.3271 47.9732 0
      vertex -24.4 48.12 0
    endloop
  endfacet
  facet normal 0 0 -1
    outer loop
      vertex -27.4 -4.08 0
      vertex -23.4549 -2.76985 0
      vertex -27.2532 -5.00705 0
    endloop
  endfacet
  facet normal 0 -0 -1
    outer loop
      vertex -25.4 -1.6 0
      vertex -23.4549 -2.76985 0
      vertex -27.4 -4.08 0
    endloop
  endfacet
  facet normal 0 0 -1
    outer loop
      vertex -23.4549 -2.76985 0
      vertex -25.4 -1.6 0
      vertex -23.6892 -2.30988 0
    endloop
  endfacet
  facet normal 0 0 -1
    outer loop
      vertex -23.6892 -2.30988 0
      vertex -25.4 -1.6 0
      vertex -23.77 -1.8 0
    endloop
  endfacet
  facet normal -0 0 -1
    outer loop
      vertex -25.4 -1.6 0
      vertex -27.4 -4.08 0
      vertex -27.4 -1.6 0
    endloop
  endfacet
  facet normal 0 -0 -1
    outer loop
      vertex 24.17 42.84 0
      vertex 25.8 42.64 0
      vertex 24.0892 42.3301 0
    endloop
  endfacet
  facet normal 0 0 -1
    outer loop
      vertex 24.0892 43.3499 0
      vertex 25.8 42.64 0
      vertex 24.17 42.84 0
    endloop
  endfacet
  facet normal 0 0 -1
    outer loop
      vertex 25.8 -1.6 0
      vertex 23.4898 -0.465121 0
      vertex 25.8 42.64 0
    endloop
  endfacet
  facet normal 0 0 -1
    outer loop
      vertex 25.8 42.64 0
      vertex 23.8549 41.8702 0
      vertex 24.0892 42.3301 0
    endloop
  endfacet
  facet normal 0 0 -1
    outer loop
      vertex 23.4898 41.5051 0
      vertex 25.8 42.64 0
      vertex 23.4898 -0.465121 0
    endloop
  endfacet
  facet normal 0 0 -1
    outer loop
      vertex 25.8 42.64 0
      vertex 23.4898 41.5051 0
      vertex 23.8549 41.8702 0
    endloop
  endfacet
  facet normal 0 0 -1
    outer loop
      vertex 23.0299 -0.230756 0
      vertex 23.4898 41.5051 0
      vertex 23.4898 -0.465121 0
    endloop
  endfacet
  facet normal 0 0 -1
    outer loop
      vertex 23.0299 -0.230756 0
      vertex 23.0299 41.2708 0
      vertex 23.4898 41.5051 0
    endloop
  endfacet
  facet normal 0 0 -1
    outer loop
      vertex 22.52 -0.15 0
      vertex 23.0299 41.2708 0
      vertex 23.0299 -0.230756 0
    endloop
  endfacet
  facet normal 0 0 -1
    outer loop
      vertex 22.52 -0.15 0
      vertex 22.52 41.19 0
      vertex 23.0299 41.2708 0
    endloop
  endfacet
  facet normal 0 0 -1
    outer loop
      vertex 22.0101 -0.230756 0
      vertex 22.52 41.19 0
      vertex 22.52 -0.15 0
    endloop
  endfacet
  facet normal 0 0 -1
    outer loop
      vertex 22.0101 -0.230756 0
      vertex 22.0101 41.2708 0
      vertex 22.52 41.19 0
    endloop
  endfacet
  facet normal 0 0 -1
    outer loop
      vertex 21.5502 -0.465121 0
      vertex 22.0101 41.2708 0
      vertex 22.0101 -0.230756 0
    endloop
  endfacet
  facet normal 0 0 -1
    outer loop
      vertex 21.5502 -0.465121 0
      vertex 21.5502 41.5051 0
      vertex 22.0101 41.2708 0
    endloop
  endfacet
  facet normal 0 0 -1
    outer loop
      vertex 21.1851 -0.830153 0
      vertex 21.5502 41.5051 0
      vertex 21.5502 -0.465121 0
    endloop
  endfacet
  facet normal 0 0 -1
    outer loop
      vertex 21.1851 -0.830153 0
      vertex 21.1851 41.8702 0
      vertex 21.5502 41.5051 0
    endloop
  endfacet
  facet normal 0 0 -1
    outer loop
      vertex -20.5508 -1.29012 0
      vertex 20.9508 -1.29012 0
      vertex -20.47 -1.8 0
    endloop
  endfacet
  facet normal 0 0 -1
    outer loop
      vertex 20.9508 -1.29012 0
      vertex -20.5508 -1.29012 0
      vertex 21.1851 -0.830153 0
    endloop
  endfacet
  facet normal 0 0 -1
    outer loop
      vertex -20.47 -1.8 0
      vertex 20.9508 -1.29012 0
      vertex 20.87 -1.8 0
    endloop
  endfacet
  facet normal 0 0 -1
    outer loop
      vertex -20.7851 -0.830153 0
      vertex 21.1851 -0.830153 0
      vertex -20.5508 -1.29012 0
    endloop
  endfacet
  facet normal 0 0 -1
    outer loop
      vertex 23.8549 43.8098 0
      vertex 25.8 42.64 0
      vertex 24.0892 43.3499 0
    endloop
  endfacet
  facet normal 0 0 -1
    outer loop
      vertex 23.4898 44.1749 0
      vertex 26.5634 47.5471 0
      vertex 23.8549 43.8098 0
    endloop
  endfacet
  facet normal -0 0 -1
    outer loop
      vertex 26.5634 47.5471 0
      vertex 23.4898 44.1749 0
      vertex 25.7271 47.9732 0
    endloop
  endfacet
  facet normal -0 0 -1
    outer loop
      vertex 25.7271 47.9732 0
      vertex 23.4898 44.1749 0
      vertex 24.8 48.12 0
    endloop
  endfacet
  facet normal 0 0 -1
    outer loop
      vertex 22.32 46.12 0
      vertex 23.4898 44.1749 0
      vertex 23.0299 44.4092 0
    endloop
  endfacet
  facet normal 0 0 -1
    outer loop
      vertex 22.32 46.12 0
      vertex 23.0299 44.4092 0
      vertex 22.52 44.49 0
    endloop
  endfacet
  facet normal 0 0 -1
    outer loop
      vertex 23.4898 44.1749 0
      vertex 22.32 46.12 0
      vertex 24.8 48.12 0
    endloop
  endfacet
  facet normal -0 0 -1
    outer loop
      vertex 24.8 48.12 0
      vertex 22.32 46.12 0
      vertex 22.32 48.12 0
    endloop
  endfacet
  facet normal -0.987688 -0.156435 0
    outer loop
      vertex -20.47 -1.8 0
      vertex -20.5508 -1.29012 2
      vertex -20.5508 -1.29012 0
    endloop
  endfacet
  facet normal -0.987688 -0.156435 0
    outer loop
      vertex -20.5508 -1.29012 2
      vertex -20.47 -1.8 0
      vertex -20.47 -1.8 2
    endloop
  endfacet
  facet normal 0.987688 -0.156435 0
    outer loop
      vertex -23.77 -1.8 2
      vertex -23.6892 -1.29012 0
      vertex -23.6892 -1.29012 2
    endloop
  endfacet
  facet normal 0.987688 -0.156435 0
    outer loop
      vertex -23.6892 -1.29012 0
      vertex -23.77 -1.8 2
      vertex -23.77 -1.8 0
    endloop
  endfacet
  facet normal 0.156433 -0.987689 0
    outer loop
      vertex -22.6299 -0.230756 0
      vertex -22.12 -0.15 2
      vertex -22.6299 -0.230756 2
    endloop
  endfacet
  facet normal 0.156433 -0.987689 0
    outer loop
      vertex -22.12 -0.15 2
      vertex -22.6299 -0.230756 0
      vertex -22.12 -0.15 0
    endloop
  endfacet
  facet normal -0.156436 0.987688 0
    outer loop
      vertex -21.6101 -3.36924 0
      vertex -22.12 -3.45 2
      vertex -21.6101 -3.36924 2
    endloop
  endfacet
  facet normal -0.156436 0.987688 0
    outer loop
      vertex -22.12 -3.45 2
      vertex -21.6101 -3.36924 0
      vertex -22.12 -3.45 0
    endloop
  endfacet
  facet normal -0.45399 -0.891007 0
    outer loop
      vertex -21.6101 -0.230756 0
      vertex -21.1502 -0.465121 2
      vertex -21.6101 -0.230756 2
    endloop
  endfacet
  facet normal -0.45399 -0.891007 -0
    outer loop
      vertex -21.1502 -0.465121 2
      vertex -21.6101 -0.230756 0
      vertex -21.1502 -0.465121 0
    endloop
  endfacet
  facet normal -0.891006 -0.453991 0
    outer loop
      vertex -20.5508 -1.29012 0
      vertex -20.7851 -0.830153 2
      vertex -20.7851 -0.830153 0
    endloop
  endfacet
  facet normal -0.891006 -0.453991 0
    outer loop
      vertex -20.7851 -0.830153 2
      vertex -20.5508 -1.29012 0
      vertex -20.5508 -1.29012 2
    endloop
  endfacet
  facet normal -0.156434 -0.987688 0
    outer loop
      vertex -22.12 -0.15 0
      vertex -21.6101 -0.230756 2
      vertex -22.12 -0.15 2
    endloop
  endfacet
  facet normal -0.156434 -0.987688 -0
    outer loop
      vertex -21.6101 -0.230756 2
      vertex -22.12 -0.15 0
      vertex -21.6101 -0.230756 0
    endloop
  endfacet
  facet normal 0.707107 -0.707107 0
    outer loop
      vertex -23.4549 -0.830153 2
      vertex -23.0898 -0.465121 0
      vertex -23.0898 -0.465121 2
    endloop
  endfacet
  facet normal 0.707107 -0.707107 0
    outer loop
      vertex -23.0898 -0.465121 0
      vertex -23.4549 -0.830153 2
      vertex -23.4549 -0.830153 0
    endloop
  endfacet
  facet normal 0.891006 -0.453991 0
    outer loop
      vertex -23.6892 -1.29012 2
      vertex -23.4549 -0.830153 0
      vertex -23.4549 -0.830153 2
    endloop
  endfacet
  facet normal 0.891006 -0.453991 0
    outer loop
      vertex -23.4549 -0.830153 0
      vertex -23.6892 -1.29012 2
      vertex -23.6892 -1.29012 0
    endloop
  endfacet
  facet normal 0.45399 -0.891007 0
    outer loop
      vertex -23.0898 -0.465121 0
      vertex -22.6299 -0.230756 2
      vertex -23.0898 -0.465121 2
    endloop
  endfacet
  facet normal 0.45399 -0.891007 0
    outer loop
      vertex -22.6299 -0.230756 2
      vertex -23.0898 -0.465121 0
      vertex -22.6299 -0.230756 0
    endloop
  endfacet
  facet normal 0.707107 0.707107 0
    outer loop
      vertex -23.0898 -3.13488 2
      vertex -23.4549 -2.76985 0
      vertex -23.4549 -2.76985 2
    endloop
  endfacet
  facet normal 0.707107 0.707107 0
    outer loop
      vertex -23.4549 -2.76985 0
      vertex -23.0898 -3.13488 2
      vertex -23.0898 -3.13488 0
    endloop
  endfacet
  facet normal 0.987688 0.156435 0
    outer loop
      vertex -23.6892 -2.30988 2
      vertex -23.77 -1.8 0
      vertex -23.77 -1.8 2
    endloop
  endfacet
  facet normal 0.987688 0.156435 0
    outer loop
      vertex -23.77 -1.8 0
      vertex -23.6892 -2.30988 2
      vertex -23.6892 -2.30988 0
    endloop
  endfacet
  facet normal -0.707107 -0.707107 0
    outer loop
      vertex -20.7851 -0.830153 0
      vertex -21.1502 -0.465121 2
      vertex -21.1502 -0.465121 0
    endloop
  endfacet
  facet normal -0.707107 -0.707107 0
    outer loop
      vertex -21.1502 -0.465121 2
      vertex -20.7851 -0.830153 0
      vertex -20.7851 -0.830153 2
    endloop
  endfacet
  facet normal -0.987688 0.156435 0
    outer loop
      vertex -20.5508 -2.30988 0
      vertex -20.47 -1.8 2
      vertex -20.47 -1.8 0
    endloop
  endfacet
  facet normal -0.987688 0.156435 0
    outer loop
      vertex -20.47 -1.8 2
      vertex -20.5508 -2.30988 0
      vertex -20.5508 -2.30988 2
    endloop
  endfacet
  facet normal -0.891006 0.453991 0
    outer loop
      vertex -20.7851 -2.76985 0
      vertex -20.5508 -2.30988 2
      vertex -20.5508 -2.30988 0
    endloop
  endfacet
  facet normal -0.891006 0.453991 0
    outer loop
      vertex -20.5508 -2.30988 2
      vertex -20.7851 -2.76985 0
      vertex -20.7851 -2.76985 2
    endloop
  endfacet
  facet normal 0.45399 0.891007 -0
    outer loop
      vertex -22.6299 -3.36924 0
      vertex -23.0898 -3.13488 2
      vertex -22.6299 -3.36924 2
    endloop
  endfacet
  facet normal 0.45399 0.891007 0
    outer loop
      vertex -23.0898 -3.13488 2
      vertex -22.6299 -3.36924 0
      vertex -23.0898 -3.13488 0
    endloop
  endfacet
  facet normal 0.891006 0.453991 0
    outer loop
      vertex -23.4549 -2.76985 2
      vertex -23.6892 -2.30988 0
      vertex -23.6892 -2.30988 2
    endloop
  endfacet
  facet normal 0.891006 0.453991 0
    outer loop
      vertex -23.6892 -2.30988 0
      vertex -23.4549 -2.76985 2
      vertex -23.4549 -2.76985 0
    endloop
  endfacet
  facet normal -0.45399 0.891007 0
    outer loop
      vertex -21.1502 -3.13488 0
      vertex -21.6101 -3.36924 2
      vertex -21.1502 -3.13488 2
    endloop
  endfacet
  facet normal -0.45399 0.891007 0
    outer loop
      vertex -21.6101 -3.36924 2
      vertex -21.1502 -3.13488 0
      vertex -21.6101 -3.36924 0
    endloop
  endfacet
  facet normal 0.156435 0.987688 -0
    outer loop
      vertex -22.12 -3.45 0
      vertex -22.6299 -3.36924 2
      vertex -22.12 -3.45 2
    endloop
  endfacet
  facet normal 0.156435 0.987688 0
    outer loop
      vertex -22.6299 -3.36924 2
      vertex -22.12 -3.45 0
      vertex -22.6299 -3.36924 0
    endloop
  endfacet
  facet normal -0.707107 0.707107 0
    outer loop
      vertex -21.1502 -3.13488 0
      vertex -20.7851 -2.76985 2
      vertex -20.7851 -2.76985 0
    endloop
  endfacet
  facet normal -0.707107 0.707107 0
    outer loop
      vertex -20.7851 -2.76985 2
      vertex -21.1502 -3.13488 0
      vertex -21.1502 -3.13488 2
    endloop
  endfacet
  facet normal 0.156433 -0.987689 0
    outer loop
      vertex 22.0101 -0.230756 0
      vertex 22.52 -0.15 2
      vertex 22.0101 -0.230756 2
    endloop
  endfacet
  facet normal 0.156433 -0.987689 0
    outer loop
      vertex 22.52 -0.15 2
      vertex 22.0101 -0.230756 0
      vertex 22.52 -0.15 0
    endloop
  endfacet
  facet normal -0.987689 -0.156432 0
    outer loop
      vertex 24.17 -1.8 0
      vertex 24.0892 -1.29012 2
      vertex 24.0892 -1.29012 0
    endloop
  endfacet
  facet normal -0.987689 -0.156432 0
    outer loop
      vertex 24.0892 -1.29012 2
      vertex 24.17 -1.8 0
      vertex 24.17 -1.8 2
    endloop
  endfacet
  facet normal 0.891006 -0.453991 0
    outer loop
      vertex 20.9508 -1.29012 2
      vertex 21.1851 -0.830153 0
      vertex 21.1851 -0.830153 2
    endloop
  endfacet
  facet normal 0.891006 -0.453991 0
    outer loop
      vertex 21.1851 -0.830153 0
      vertex 20.9508 -1.29012 2
      vertex 20.9508 -1.29012 0
    endloop
  endfacet
  facet normal 0.453992 -0.891006 0
    outer loop
      vertex 21.5502 -0.465121 0
      vertex 22.0101 -0.230756 2
      vertex 21.5502 -0.465121 2
    endloop
  endfacet
  facet normal 0.453992 -0.891006 0
    outer loop
      vertex 22.0101 -0.230756 2
      vertex 21.5502 -0.465121 0
      vertex 22.0101 -0.230756 0
    endloop
  endfacet
  facet normal 0.987688 -0.156435 0
    outer loop
      vertex 20.87 -1.8 2
      vertex 20.9508 -1.29012 0
      vertex 20.9508 -1.29012 2
    endloop
  endfacet
  facet normal 0.987688 -0.156435 0
    outer loop
      vertex 20.9508 -1.29012 0
      vertex 20.87 -1.8 2
      vertex 20.87 -1.8 0
    endloop
  endfacet
  facet normal 0.453992 0.891006 -0
    outer loop
      vertex 22.0101 -3.36924 0
      vertex 21.5502 -3.13488 2
      vertex 22.0101 -3.36924 2
    endloop
  endfacet
  facet normal 0.453992 0.891006 0
    outer loop
      vertex 21.5502 -3.13488 2
      vertex 22.0101 -3.36924 0
      vertex 21.5502 -3.13488 0
    endloop
  endfacet
  facet normal 0.891006 0.453991 0
    outer loop
      vertex 21.1851 -2.76985 2
      vertex 20.9508 -2.30988 0
      vertex 20.9508 -2.30988 2
    endloop
  endfacet
  facet normal 0.891006 0.453991 0
    outer loop
      vertex 20.9508 -2.30988 0
      vertex 21.1851 -2.76985 2
      vertex 21.1851 -2.76985 0
    endloop
  endfacet
  facet normal -0.156434 -0.987688 0
    outer loop
      vertex 22.52 -0.15 0
      vertex 23.0299 -0.230756 2
      vertex 22.52 -0.15 2
    endloop
  endfacet
  facet normal -0.156434 -0.987688 -0
    outer loop
      vertex 23.0299 -0.230756 2
      vertex 22.52 -0.15 0
      vertex 23.0299 -0.230756 0
    endloop
  endfacet
  facet normal 0.707107 -0.707107 0
    outer loop
      vertex 21.1851 -0.830153 2
      vertex 21.5502 -0.465121 0
      vertex 21.5502 -0.465121 2
    endloop
  endfacet
  facet normal 0.707107 -0.707107 0
    outer loop
      vertex 21.5502 -0.465121 0
      vertex 21.1851 -0.830153 2
      vertex 21.1851 -0.830153 0
    endloop
  endfacet
  facet normal 0.987688 0.156435 0
    outer loop
      vertex 20.9508 -2.30988 2
      vertex 20.87 -1.8 0
      vertex 20.87 -1.8 2
    endloop
  endfacet
  facet normal 0.987688 0.156435 0
    outer loop
      vertex 20.87 -1.8 0
      vertex 20.9508 -2.30988 2
      vertex 20.9508 -2.30988 0
    endloop
  endfacet
  facet normal 0.156435 0.987688 -0
    outer loop
      vertex 22.52 -3.45 0
      vertex 22.0101 -3.36924 2
      vertex 22.52 -3.45 2
    endloop
  endfacet
  facet normal 0.156435 0.987688 0
    outer loop
      vertex 22.0101 -3.36924 2
      vertex 22.52 -3.45 0
      vertex 22.0101 -3.36924 0
    endloop
  endfacet
  facet normal 0.707107 0.707107 0
    outer loop
      vertex 21.5502 -3.13488 2
      vertex 21.1851 -2.76985 0
      vertex 21.1851 -2.76985 2
    endloop
  endfacet
  facet normal 0.707107 0.707107 0
    outer loop
      vertex 21.1851 -2.76985 0
      vertex 21.5502 -3.13488 2
      vertex 21.5502 -3.13488 0
    endloop
  endfacet
  facet normal -0.45399 -0.891007 0
    outer loop
      vertex 23.0299 -0.230756 0
      vertex 23.4898 -0.465121 2
      vertex 23.0299 -0.230756 2
    endloop
  endfacet
  facet normal -0.45399 -0.891007 -0
    outer loop
      vertex 23.4898 -0.465121 2
      vertex 23.0299 -0.230756 0
      vertex 23.4898 -0.465121 0
    endloop
  endfacet
  facet normal -0.891006 -0.453991 0
    outer loop
      vertex 24.0892 -1.29012 0
      vertex 23.8549 -0.830153 2
      vertex 23.8549 -0.830153 0
    endloop
  endfacet
  facet normal -0.891006 -0.453991 0
    outer loop
      vertex 23.8549 -0.830153 2
      vertex 24.0892 -1.29012 0
      vertex 24.0892 -1.29012 2
    endloop
  endfacet
  facet normal -0.707107 -0.707107 0
    outer loop
      vertex 23.8549 -0.830153 0
      vertex 23.4898 -0.465121 2
      vertex 23.4898 -0.465121 0
    endloop
  endfacet
  facet normal -0.707107 -0.707107 0
    outer loop
      vertex 23.4898 -0.465121 2
      vertex 23.8549 -0.830153 0
      vertex 23.8549 -0.830153 2
    endloop
  endfacet
  facet normal -0.891006 0.453991 0
    outer loop
      vertex 23.8549 -2.76985 0
      vertex 24.0892 -2.30988 2
      vertex 24.0892 -2.30988 0
    endloop
  endfacet
  facet normal -0.891006 0.453991 0
    outer loop
      vertex 24.0892 -2.30988 2
      vertex 23.8549 -2.76985 0
      vertex 23.8549 -2.76985 2
    endloop
  endfacet
  facet normal -0.45399 0.891007 0
    outer loop
      vertex 23.4898 -3.13488 0
      vertex 23.0299 -3.36924 2
      vertex 23.4898 -3.13488 2
    endloop
  endfacet
  facet normal -0.45399 0.891007 0
    outer loop
      vertex 23.0299 -3.36924 2
      vertex 23.4898 -3.13488 0
      vertex 23.0299 -3.36924 0
    endloop
  endfacet
  facet normal -0.156436 0.987688 0
    outer loop
      vertex 23.0299 -3.36924 0
      vertex 22.52 -3.45 2
      vertex 23.0299 -3.36924 2
    endloop
  endfacet
  facet normal -0.156436 0.987688 0
    outer loop
      vertex 22.52 -3.45 2
      vertex 23.0299 -3.36924 0
      vertex 22.52 -3.45 0
    endloop
  endfacet
  facet normal -0.707107 0.707107 0
    outer loop
      vertex 23.4898 -3.13488 0
      vertex 23.8549 -2.76985 2
      vertex 23.8549 -2.76985 0
    endloop
  endfacet
  facet normal -0.707107 0.707107 0
    outer loop
      vertex 23.8549 -2.76985 2
      vertex 23.4898 -3.13488 0
      vertex 23.4898 -3.13488 2
    endloop
  endfacet
  facet normal -0.987689 0.156432 0
    outer loop
      vertex 24.0892 -2.30988 0
      vertex 24.17 -1.8 2
      vertex 24.17 -1.8 0
    endloop
  endfacet
  facet normal -0.987689 0.156432 0
    outer loop
      vertex 24.17 -1.8 2
      vertex 24.0892 -2.30988 0
      vertex 24.0892 -2.30988 2
    endloop
  endfacet
  facet normal 0.987688 0.156435 0
    outer loop
      vertex 20.9508 42.3301 2
      vertex 20.87 42.84 0
      vertex 20.87 42.84 2
    endloop
  endfacet
  facet normal 0.987688 0.156435 0
    outer loop
      vertex 20.87 42.84 0
      vertex 20.9508 42.3301 2
      vertex 20.9508 42.3301 0
    endloop
  endfacet
  facet normal -0.156436 -0.987688 0
    outer loop
      vertex 22.52 44.49 0
      vertex 23.0299 44.4092 2
      vertex 22.52 44.49 2
    endloop
  endfacet
  facet normal -0.156436 -0.987688 -0
    outer loop
      vertex 23.0299 44.4092 2
      vertex 22.52 44.49 0
      vertex 23.0299 44.4092 0
    endloop
  endfacet
  facet normal -0.891007 -0.45399 0
    outer loop
      vertex 24.0892 43.3499 0
      vertex 23.8549 43.8098 2
      vertex 23.8549 43.8098 0
    endloop
  endfacet
  facet normal -0.891007 -0.45399 0
    outer loop
      vertex 23.8549 43.8098 2
      vertex 24.0892 43.3499 0
      vertex 24.0892 43.3499 2
    endloop
  endfacet
  facet normal 0.891005 0.453993 0
    outer loop
      vertex 21.1851 41.8702 2
      vertex 20.9508 42.3301 0
      vertex 20.9508 42.3301 2
    endloop
  endfacet
  facet normal 0.891005 0.453993 0
    outer loop
      vertex 20.9508 42.3301 0
      vertex 21.1851 41.8702 2
      vertex 21.1851 41.8702 0
    endloop
  endfacet
  facet normal 0.453989 0.891007 -0
    outer loop
      vertex 22.0101 41.2708 0
      vertex 21.5502 41.5051 2
      vertex 22.0101 41.2708 2
    endloop
  endfacet
  facet normal 0.453989 0.891007 0
    outer loop
      vertex 21.5502 41.5051 2
      vertex 22.0101 41.2708 0
      vertex 21.5502 41.5051 0
    endloop
  endfacet
  facet normal -0.156436 0.987688 0
    outer loop
      vertex 23.0299 41.2708 0
      vertex 22.52 41.19 2
      vertex 23.0299 41.2708 2
    endloop
  endfacet
  facet normal -0.156436 0.987688 0
    outer loop
      vertex 22.52 41.19 2
      vertex 23.0299 41.2708 0
      vertex 22.52 41.19 0
    endloop
  endfacet
  facet normal 0.707107 -0.707107 0
    outer loop
      vertex 21.1851 43.8098 2
      vertex 21.5502 44.1749 0
      vertex 21.5502 44.1749 2
    endloop
  endfacet
  facet normal 0.707107 -0.707107 0
    outer loop
      vertex 21.5502 44.1749 0
      vertex 21.1851 43.8098 2
      vertex 21.1851 43.8098 0
    endloop
  endfacet
  facet normal 0.156435 -0.987688 0
    outer loop
      vertex 22.0101 44.4092 0
      vertex 22.52 44.49 2
      vertex 22.0101 44.4092 2
    endloop
  endfacet
  facet normal 0.156435 -0.987688 0
    outer loop
      vertex 22.52 44.49 2
      vertex 22.0101 44.4092 0
      vertex 22.52 44.49 0
    endloop
  endfacet
  facet normal 0.891007 -0.45399 0
    outer loop
      vertex 20.9508 43.3499 2
      vertex 21.1851 43.8098 0
      vertex 21.1851 43.8098 2
    endloop
  endfacet
  facet normal 0.891007 -0.45399 0
    outer loop
      vertex 21.1851 43.8098 0
      vertex 20.9508 43.3499 2
      vertex 20.9508 43.3499 0
    endloop
  endfacet
  facet normal -0.987689 -0.156432 0
    outer loop
      vertex 24.17 42.84 0
      vertex 24.0892 43.3499 2
      vertex 24.0892 43.3499 0
    endloop
  endfacet
  facet normal -0.987689 -0.156432 0
    outer loop
      vertex 24.0892 43.3499 2
      vertex 24.17 42.84 0
      vertex 24.17 42.84 2
    endloop
  endfacet
  facet normal 0.70711 0.707103 0
    outer loop
      vertex 21.5502 41.5051 2
      vertex 21.1851 41.8702 0
      vertex 21.1851 41.8702 2
    endloop
  endfacet
  facet normal 0.70711 0.707103 0
    outer loop
      vertex 21.1851 41.8702 0
      vertex 21.5502 41.5051 2
      vertex 21.5502 41.5051 0
    endloop
  endfacet
  facet normal 0.156435 0.987688 -0
    outer loop
      vertex 22.52 41.19 0
      vertex 22.0101 41.2708 2
      vertex 22.52 41.19 2
    endloop
  endfacet
  facet normal 0.156435 0.987688 0
    outer loop
      vertex 22.0101 41.2708 2
      vertex 22.52 41.19 0
      vertex 22.0101 41.2708 0
    endloop
  endfacet
  facet normal -0.70711 0.707103 0
    outer loop
      vertex 23.4898 41.5051 0
      vertex 23.8549 41.8702 2
      vertex 23.8549 41.8702 0
    endloop
  endfacet
  facet normal -0.70711 0.707103 0
    outer loop
      vertex 23.8549 41.8702 2
      vertex 23.4898 41.5051 0
      vertex 23.4898 41.5051 2
    endloop
  endfacet
  facet normal -0.987689 0.156431 0
    outer loop
      vertex 24.0892 42.3301 0
      vertex 24.17 42.84 2
      vertex 24.17 42.84 0
    endloop
  endfacet
  facet normal -0.987689 0.156431 0
    outer loop
      vertex 24.17 42.84 2
      vertex 24.0892 42.3301 0
      vertex 24.0892 42.3301 2
    endloop
  endfacet
  facet normal -0.453987 0.891008 0
    outer loop
      vertex 23.4898 41.5051 0
      vertex 23.0299 41.2708 2
      vertex 23.4898 41.5051 2
    endloop
  endfacet
  facet normal -0.453987 0.891008 0
    outer loop
      vertex 23.0299 41.2708 2
      vertex 23.4898 41.5051 0
      vertex 23.0299 41.2708 0
    endloop
  endfacet
  facet normal 0.987688 -0.156436 0
    outer loop
      vertex 20.87 42.84 2
      vertex 20.9508 43.3499 0
      vertex 20.9508 43.3499 2
    endloop
  endfacet
  facet normal 0.987688 -0.156436 0
    outer loop
      vertex 20.9508 43.3499 0
      vertex 20.87 42.84 2
      vertex 20.87 42.84 0
    endloop
  endfacet
  facet normal 0.453989 -0.891007 0
    outer loop
      vertex 21.5502 44.1749 0
      vertex 22.0101 44.4092 2
      vertex 21.5502 44.1749 2
    endloop
  endfacet
  facet normal 0.453989 -0.891007 0
    outer loop
      vertex 22.0101 44.4092 2
      vertex 21.5502 44.1749 0
      vertex 22.0101 44.4092 0
    endloop
  endfacet
  facet normal -0.707107 -0.707107 0
    outer loop
      vertex 23.8549 43.8098 0
      vertex 23.4898 44.1749 2
      vertex 23.4898 44.1749 0
    endloop
  endfacet
  facet normal -0.707107 -0.707107 0
    outer loop
      vertex 23.4898 44.1749 2
      vertex 23.8549 43.8098 0
      vertex 23.8549 43.8098 2
    endloop
  endfacet
  facet normal -0.453987 -0.891008 0
    outer loop
      vertex 23.0299 44.4092 0
      vertex 23.4898 44.1749 2
      vertex 23.0299 44.4092 2
    endloop
  endfacet
  facet normal -0.453987 -0.891008 -0
    outer loop
      vertex 23.4898 44.1749 2
      vertex 23.0299 44.4092 0
      vertex 23.4898 44.1749 0
    endloop
  endfacet
  facet normal -0.891005 0.453993 0
    outer loop
      vertex 23.8549 41.8702 0
      vertex 24.0892 42.3301 2
      vertex 24.0892 42.3301 0
    endloop
  endfacet
  facet normal -0.891005 0.453993 0
    outer loop
      vertex 24.0892 42.3301 2
      vertex 23.8549 41.8702 0
      vertex 23.8549 41.8702 2
    endloop
  endfacet
  facet normal -0.156436 0.987688 0
    outer loop
      vertex -21.6101 41.2708 0
      vertex -22.12 41.19 2
      vertex -21.6101 41.2708 2
    endloop
  endfacet
  facet normal -0.156436 0.987688 0
    outer loop
      vertex -22.12 41.19 2
      vertex -21.6101 41.2708 0
      vertex -22.12 41.19 0
    endloop
  endfacet
  facet normal -0.156436 -0.987688 0
    outer loop
      vertex -22.12 44.49 0
      vertex -21.6101 44.4092 2
      vertex -22.12 44.49 2
    endloop
  endfacet
  facet normal -0.156436 -0.987688 -0
    outer loop
      vertex -21.6101 44.4092 2
      vertex -22.12 44.49 0
      vertex -21.6101 44.4092 0
    endloop
  endfacet
  facet normal 0.987688 -0.156436 0
    outer loop
      vertex -23.77 42.84 2
      vertex -23.6892 43.3499 0
      vertex -23.6892 43.3499 2
    endloop
  endfacet
  facet normal 0.987688 -0.156436 0
    outer loop
      vertex -23.6892 43.3499 0
      vertex -23.77 42.84 2
      vertex -23.77 42.84 0
    endloop
  endfacet
  facet normal 0.707107 -0.707107 0
    outer loop
      vertex -23.4549 43.8098 2
      vertex -23.0898 44.1749 0
      vertex -23.0898 44.1749 2
    endloop
  endfacet
  facet normal 0.707107 -0.707107 0
    outer loop
      vertex -23.0898 44.1749 0
      vertex -23.4549 43.8098 2
      vertex -23.4549 43.8098 0
    endloop
  endfacet
  facet normal -0.453987 0.891008 0
    outer loop
      vertex -21.1502 41.5051 0
      vertex -21.6101 41.2708 2
      vertex -21.1502 41.5051 2
    endloop
  endfacet
  facet normal -0.453987 0.891008 0
    outer loop
      vertex -21.6101 41.2708 2
      vertex -21.1502 41.5051 0
      vertex -21.6101 41.2708 0
    endloop
  endfacet
  facet normal -0.891005 0.453993 0
    outer loop
      vertex -20.7851 41.8702 0
      vertex -20.5508 42.3301 2
      vertex -20.5508 42.3301 0
    endloop
  endfacet
  facet normal -0.891005 0.453993 0
    outer loop
      vertex -20.5508 42.3301 2
      vertex -20.7851 41.8702 0
      vertex -20.7851 41.8702 2
    endloop
  endfacet
  facet normal -0.891007 -0.45399 0
    outer loop
      vertex -20.5508 43.3499 0
      vertex -20.7851 43.8098 2
      vertex -20.7851 43.8098 0
    endloop
  endfacet
  facet normal -0.891007 -0.45399 0
    outer loop
      vertex -20.7851 43.8098 2
      vertex -20.5508 43.3499 0
      vertex -20.5508 43.3499 2
    endloop
  endfacet
  facet normal -0.987688 -0.156436 0
    outer loop
      vertex -20.47 42.84 0
      vertex -20.5508 43.3499 2
      vertex -20.5508 43.3499 0
    endloop
  endfacet
  facet normal -0.987688 -0.156436 0
    outer loop
      vertex -20.5508 43.3499 2
      vertex -20.47 42.84 0
      vertex -20.47 42.84 2
    endloop
  endfacet
  facet normal 0.453987 0.891008 -0
    outer loop
      vertex -22.6299 41.2708 0
      vertex -23.0898 41.5051 2
      vertex -22.6299 41.2708 2
    endloop
  endfacet
  facet normal 0.453987 0.891008 0
    outer loop
      vertex -23.0898 41.5051 2
      vertex -22.6299 41.2708 0
      vertex -23.0898 41.5051 0
    endloop
  endfacet
  facet normal 0.891007 -0.45399 0
    outer loop
      vertex -23.6892 43.3499 2
      vertex -23.4549 43.8098 0
      vertex -23.4549 43.8098 2
    endloop
  endfacet
  facet normal 0.891007 -0.45399 0
    outer loop
      vertex -23.4549 43.8098 0
      vertex -23.6892 43.3499 2
      vertex -23.6892 43.3499 0
    endloop
  endfacet
  facet normal 0.453987 -0.891008 0
    outer loop
      vertex -23.0898 44.1749 0
      vertex -22.6299 44.4092 2
      vertex -23.0898 44.1749 2
    endloop
  endfacet
  facet normal 0.453987 -0.891008 0
    outer loop
      vertex -22.6299 44.4092 2
      vertex -23.0898 44.1749 0
      vertex -22.6299 44.4092 0
    endloop
  endfacet
  facet normal -0.70711 0.707103 0
    outer loop
      vertex -21.1502 41.5051 0
      vertex -20.7851 41.8702 2
      vertex -20.7851 41.8702 0
    endloop
  endfacet
  facet normal -0.70711 0.707103 0
    outer loop
      vertex -20.7851 41.8702 2
      vertex -21.1502 41.5051 0
      vertex -21.1502 41.5051 2
    endloop
  endfacet
  facet normal -0.987688 0.156435 0
    outer loop
      vertex -20.5508 42.3301 0
      vertex -20.47 42.84 2
      vertex -20.47 42.84 0
    endloop
  endfacet
  facet normal -0.987688 0.156435 0
    outer loop
      vertex -20.47 42.84 2
      vertex -20.5508 42.3301 0
      vertex -20.5508 42.3301 2
    endloop
  endfacet
  facet normal -0.707107 -0.707107 0
    outer loop
      vertex -20.7851 43.8098 0
      vertex -21.1502 44.1749 2
      vertex -21.1502 44.1749 0
    endloop
  endfacet
  facet normal -0.707107 -0.707107 0
    outer loop
      vertex -21.1502 44.1749 2
      vertex -20.7851 43.8098 0
      vertex -20.7851 43.8098 2
    endloop
  endfacet
  facet normal -0.453987 -0.891008 0
    outer loop
      vertex -21.6101 44.4092 0
      vertex -21.1502 44.1749 2
      vertex -21.6101 44.4092 2
    endloop
  endfacet
  facet normal -0.453987 -0.891008 -0
    outer loop
      vertex -21.1502 44.1749 2
      vertex -21.6101 44.4092 0
      vertex -21.1502 44.1749 0
    endloop
  endfacet
  facet normal 0.156435 0.987688 -0
    outer loop
      vertex -22.12 41.19 0
      vertex -22.6299 41.2708 2
      vertex -22.12 41.19 2
    endloop
  endfacet
  facet normal 0.156435 0.987688 0
    outer loop
      vertex -22.6299 41.2708 2
      vertex -22.12 41.19 0
      vertex -22.6299 41.2708 0
    endloop
  endfacet
  facet normal 0.987688 0.156435 0
    outer loop
      vertex -23.6892 42.3301 2
      vertex -23.77 42.84 0
      vertex -23.77 42.84 2
    endloop
  endfacet
  facet normal 0.987688 0.156435 0
    outer loop
      vertex -23.77 42.84 0
      vertex -23.6892 42.3301 2
      vertex -23.6892 42.3301 0
    endloop
  endfacet
  facet normal 0.70711 0.707103 0
    outer loop
      vertex -23.0898 41.5051 2
      vertex -23.4549 41.8702 0
      vertex -23.4549 41.8702 2
    endloop
  endfacet
  facet normal 0.70711 0.707103 0
    outer loop
      vertex -23.4549 41.8702 0
      vertex -23.0898 41.5051 2
      vertex -23.0898 41.5051 0
    endloop
  endfacet
  facet normal 0.156435 -0.987688 0
    outer loop
      vertex -22.6299 44.4092 0
      vertex -22.12 44.49 2
      vertex -22.6299 44.4092 2
    endloop
  endfacet
  facet normal 0.156435 -0.987688 0
    outer loop
      vertex -22.12 44.49 2
      vertex -22.6299 44.4092 0
      vertex -22.12 44.49 0
    endloop
  endfacet
  facet normal 0.891005 0.453993 0
    outer loop
      vertex -23.4549 41.8702 2
      vertex -23.6892 42.3301 0
      vertex -23.6892 42.3301 2
    endloop
  endfacet
  facet normal 0.891005 0.453993 0
    outer loop
      vertex -23.6892 42.3301 0
      vertex -23.4549 41.8702 2
      vertex -23.4549 41.8702 0
    endloop
  endfacet
endsolid OpenSCAD_Model
