G04 #@! TF.FileFunction,Legend,Top*
%FSLAX46Y46*%
G04 Gerber Fmt 4.6, Leading zero omitted, Abs format (unit mm)*
G04 Created by KiCad (PCBNEW 4.0.2-4+6225~38~ubuntu15.10.1-stable) date Čt 18. únor 2016, 19:33:56 CET*
%MOMM*%
G01*
G04 APERTURE LIST*
%ADD10C,0.300000*%
%ADD11C,0.375000*%
%ADD12C,0.200000*%
%ADD13C,0.150000*%
%ADD14C,0.127000*%
%ADD15C,0.050000*%
%ADD16C,0.109220*%
%ADD17C,0.203200*%
G04 APERTURE END LIST*
D10*
X44208667Y52836667D02*
X43942001Y52836667D01*
X43808667Y52770000D01*
X43742001Y52703333D01*
X43608667Y52503333D01*
X43542001Y52236667D01*
X43542001Y51703333D01*
X43608667Y51570000D01*
X43675334Y51503333D01*
X43808667Y51436667D01*
X44075334Y51436667D01*
X44208667Y51503333D01*
X44275334Y51570000D01*
X44342001Y51703333D01*
X44342001Y52036667D01*
X44275334Y52170000D01*
X44208667Y52236667D01*
X44075334Y52303333D01*
X43808667Y52303333D01*
X43675334Y52236667D01*
X43608667Y52170000D01*
X43542001Y52036667D01*
X49355334Y60075667D02*
X48688667Y60075667D01*
X48622001Y59409000D01*
X48688667Y59475667D01*
X48822001Y59542333D01*
X49155334Y59542333D01*
X49288667Y59475667D01*
X49355334Y59409000D01*
X49422001Y59275667D01*
X49422001Y58942333D01*
X49355334Y58809000D01*
X49288667Y58742333D01*
X49155334Y58675667D01*
X48822001Y58675667D01*
X48688667Y58742333D01*
X48622001Y58809000D01*
X46748667Y59609000D02*
X46748667Y58675667D01*
X46415334Y60142333D02*
X46082001Y59142333D01*
X46948667Y59142333D01*
X41002001Y59942333D02*
X41068667Y60009000D01*
X41202001Y60075667D01*
X41535334Y60075667D01*
X41668667Y60009000D01*
X41735334Y59942333D01*
X41802001Y59809000D01*
X41802001Y59675667D01*
X41735334Y59475667D01*
X40935334Y58675667D01*
X41802001Y58675667D01*
X39262001Y58675667D02*
X38462001Y58675667D01*
X38862001Y58675667D02*
X38862001Y60075667D01*
X38728667Y59875667D01*
X38595334Y59742333D01*
X38462001Y59675667D01*
X43475334Y60075667D02*
X44342001Y60075667D01*
X43875334Y59542333D01*
X44075334Y59542333D01*
X44208667Y59475667D01*
X44275334Y59409000D01*
X44342001Y59275667D01*
X44342001Y58942333D01*
X44275334Y58809000D01*
X44208667Y58742333D01*
X44075334Y58675667D01*
X43675334Y58675667D01*
X43542001Y58742333D01*
X43475334Y58809000D01*
D11*
X67710929Y40147929D02*
X67639500Y40219358D01*
X67568071Y40362215D01*
X67568071Y40719358D01*
X67639500Y40862215D01*
X67710929Y40933644D01*
X67853786Y41005072D01*
X67996643Y41005072D01*
X68210929Y40933644D01*
X69068071Y40076501D01*
X69068071Y41005072D01*
X13378571Y21637572D02*
X13378571Y20780429D01*
X13378571Y21209001D02*
X11878571Y21209001D01*
X12092857Y21066144D01*
X12235714Y20923286D01*
X12307143Y20780429D01*
D10*
X34878095Y31988238D02*
X34878095Y33988238D01*
X35544762Y32559667D01*
X36211429Y33988238D01*
X36211429Y31988238D01*
X38116190Y31988238D02*
X37163809Y31988238D01*
X37163809Y33988238D01*
X38687619Y32559667D02*
X39640000Y32559667D01*
X38497143Y31988238D02*
X39163810Y33988238D01*
X39830477Y31988238D01*
X41163810Y33035857D02*
X41449524Y32940619D01*
X41544763Y32845381D01*
X41640001Y32654905D01*
X41640001Y32369190D01*
X41544763Y32178714D01*
X41449524Y32083476D01*
X41259048Y31988238D01*
X40497143Y31988238D01*
X40497143Y33988238D01*
X41163810Y33988238D01*
X41354286Y33893000D01*
X41449524Y33797762D01*
X41544763Y33607286D01*
X41544763Y33416810D01*
X41449524Y33226333D01*
X41354286Y33131095D01*
X41163810Y33035857D01*
X40497143Y33035857D01*
X42497143Y32178714D02*
X42592382Y32083476D01*
X42497143Y31988238D01*
X42401905Y32083476D01*
X42497143Y32178714D01*
X42497143Y31988238D01*
X44592382Y32178714D02*
X44497144Y32083476D01*
X44211429Y31988238D01*
X44020953Y31988238D01*
X43735239Y32083476D01*
X43544763Y32273952D01*
X43449524Y32464429D01*
X43354286Y32845381D01*
X43354286Y33131095D01*
X43449524Y33512048D01*
X43544763Y33702524D01*
X43735239Y33893000D01*
X44020953Y33988238D01*
X44211429Y33988238D01*
X44497144Y33893000D01*
X44592382Y33797762D01*
X45259048Y33988238D02*
X46592382Y33988238D01*
X45259048Y31988238D01*
X46592382Y31988238D01*
X4159572Y13759571D02*
X4231001Y13831000D01*
X4373858Y13902429D01*
X4731001Y13902429D01*
X4873858Y13831000D01*
X4945287Y13759571D01*
X5016715Y13616714D01*
X5016715Y13473857D01*
X4945287Y13259571D01*
X4088144Y12402429D01*
X5016715Y12402429D01*
X5945286Y13902429D02*
X6088143Y13902429D01*
X6231000Y13831000D01*
X6302429Y13759571D01*
X6373858Y13616714D01*
X6445286Y13331000D01*
X6445286Y12973857D01*
X6373858Y12688143D01*
X6302429Y12545286D01*
X6231000Y12473857D01*
X6088143Y12402429D01*
X5945286Y12402429D01*
X5802429Y12473857D01*
X5731000Y12545286D01*
X5659572Y12688143D01*
X5588143Y12973857D01*
X5588143Y13331000D01*
X5659572Y13616714D01*
X5731000Y13759571D01*
X5802429Y13831000D01*
X5945286Y13902429D01*
X7873857Y12402429D02*
X7016714Y12402429D01*
X7445286Y12402429D02*
X7445286Y13902429D01*
X7302429Y13688143D01*
X7159571Y13545286D01*
X7016714Y13473857D01*
X9159571Y13902429D02*
X8873857Y13902429D01*
X8731000Y13831000D01*
X8659571Y13759571D01*
X8516714Y13545286D01*
X8445285Y13259571D01*
X8445285Y12688143D01*
X8516714Y12545286D01*
X8588142Y12473857D01*
X8731000Y12402429D01*
X9016714Y12402429D01*
X9159571Y12473857D01*
X9231000Y12545286D01*
X9302428Y12688143D01*
X9302428Y13045286D01*
X9231000Y13188143D01*
X9159571Y13259571D01*
X9016714Y13331000D01*
X8731000Y13331000D01*
X8588142Y13259571D01*
X8516714Y13188143D01*
X8445285Y13045286D01*
X3981000Y16188429D02*
X3981000Y15117000D01*
X3909572Y14902714D01*
X3766715Y14759857D01*
X3552429Y14688429D01*
X3409572Y14688429D01*
X4623857Y15117000D02*
X5338143Y15117000D01*
X4481000Y14688429D02*
X4981000Y16188429D01*
X5481000Y14688429D01*
X6838143Y14831286D02*
X6766714Y14759857D01*
X6552428Y14688429D01*
X6409571Y14688429D01*
X6195286Y14759857D01*
X6052428Y14902714D01*
X5981000Y15045571D01*
X5909571Y15331286D01*
X5909571Y15545571D01*
X5981000Y15831286D01*
X6052428Y15974143D01*
X6195286Y16117000D01*
X6409571Y16188429D01*
X6552428Y16188429D01*
X6766714Y16117000D01*
X6838143Y16045571D01*
X7481000Y14688429D02*
X7481000Y16188429D01*
X7481000Y15474143D02*
X8338143Y15474143D01*
X8338143Y14688429D02*
X8338143Y16188429D01*
X9338143Y16188429D02*
X9623857Y16188429D01*
X9766715Y16117000D01*
X9909572Y15974143D01*
X9981000Y15688429D01*
X9981000Y15188429D01*
X9909572Y14902714D01*
X9766715Y14759857D01*
X9623857Y14688429D01*
X9338143Y14688429D01*
X9195286Y14759857D01*
X9052429Y14902714D01*
X8981000Y15188429D01*
X8981000Y15688429D01*
X9052429Y15974143D01*
X9195286Y16117000D01*
X9338143Y16188429D01*
X31306666Y27797238D02*
X30354285Y27797238D01*
X30354285Y29797238D01*
X31973333Y27797238D02*
X31973333Y29797238D01*
X33306667Y29797238D02*
X33687619Y29797238D01*
X33878095Y29702000D01*
X34068572Y29511524D01*
X34163810Y29130571D01*
X34163810Y28463905D01*
X34068572Y28082952D01*
X33878095Y27892476D01*
X33687619Y27797238D01*
X33306667Y27797238D01*
X33116191Y27892476D01*
X32925714Y28082952D01*
X32830476Y28463905D01*
X32830476Y29130571D01*
X32925714Y29511524D01*
X33116191Y29702000D01*
X33306667Y29797238D01*
X35020952Y27797238D02*
X35020952Y29797238D01*
X36163810Y27797238D01*
X36163810Y29797238D01*
X37020952Y29606762D02*
X37116190Y29702000D01*
X37306667Y29797238D01*
X37782857Y29797238D01*
X37973333Y29702000D01*
X38068571Y29606762D01*
X38163810Y29416286D01*
X38163810Y29225810D01*
X38068571Y28940095D01*
X36925714Y27797238D01*
X38163810Y27797238D01*
X40163810Y27987714D02*
X40068572Y27892476D01*
X39782857Y27797238D01*
X39592381Y27797238D01*
X39306667Y27892476D01*
X39116191Y28082952D01*
X39020952Y28273429D01*
X38925714Y28654381D01*
X38925714Y28940095D01*
X39020952Y29321048D01*
X39116191Y29511524D01*
X39306667Y29702000D01*
X39592381Y29797238D01*
X39782857Y29797238D01*
X40068572Y29702000D01*
X40163810Y29606762D01*
X41020952Y28844857D02*
X41687619Y28844857D01*
X41973333Y27797238D02*
X41020952Y27797238D01*
X41020952Y29797238D01*
X41973333Y29797238D01*
X43782857Y27797238D02*
X42830476Y27797238D01*
X42830476Y29797238D01*
X45401905Y27797238D02*
X44449524Y27797238D01*
X44449524Y29797238D01*
X46449525Y29797238D02*
X46640001Y29797238D01*
X46830477Y29702000D01*
X46925715Y29606762D01*
X47020953Y29416286D01*
X47116192Y29035333D01*
X47116192Y28559143D01*
X47020953Y28178190D01*
X46925715Y27987714D01*
X46830477Y27892476D01*
X46640001Y27797238D01*
X46449525Y27797238D01*
X46259049Y27892476D01*
X46163811Y27987714D01*
X46068572Y28178190D01*
X45973334Y28559143D01*
X45973334Y29035333D01*
X46068572Y29416286D01*
X46163811Y29606762D01*
X46259049Y29702000D01*
X46449525Y29797238D01*
X49020954Y27797238D02*
X47878096Y27797238D01*
X48449525Y27797238D02*
X48449525Y29797238D01*
X48259049Y29511524D01*
X48068573Y29321048D01*
X47878096Y29225810D01*
X49878096Y27797238D02*
X49878096Y29797238D01*
X50354287Y29797238D01*
X50640001Y29702000D01*
X50830477Y29511524D01*
X50925716Y29321048D01*
X51020954Y28940095D01*
X51020954Y28654381D01*
X50925716Y28273429D01*
X50830477Y28082952D01*
X50640001Y27892476D01*
X50354287Y27797238D01*
X49878096Y27797238D01*
X50580000Y51376333D02*
X50780000Y51309667D01*
X51113333Y51309667D01*
X51246666Y51376333D01*
X51313333Y51443000D01*
X51380000Y51576333D01*
X51380000Y51709667D01*
X51313333Y51843000D01*
X51246666Y51909667D01*
X51113333Y51976333D01*
X50846666Y52043000D01*
X50713333Y52109667D01*
X50646666Y52176333D01*
X50580000Y52309667D01*
X50580000Y52443000D01*
X50646666Y52576333D01*
X50713333Y52643000D01*
X50846666Y52709667D01*
X51180000Y52709667D01*
X51380000Y52643000D01*
X51846666Y52709667D02*
X52179999Y51309667D01*
X52446666Y52309667D01*
X52713333Y51309667D01*
X53046666Y52709667D01*
X54646666Y51309667D02*
X54646666Y52709667D01*
X55180000Y52709667D01*
X55313333Y52643000D01*
X55380000Y52576333D01*
X55446666Y52443000D01*
X55446666Y52243000D01*
X55380000Y52109667D01*
X55313333Y52043000D01*
X55180000Y51976333D01*
X54646666Y51976333D01*
X56313333Y52709667D02*
X56580000Y52709667D01*
X56713333Y52643000D01*
X56846666Y52509667D01*
X56913333Y52243000D01*
X56913333Y51776333D01*
X56846666Y51509667D01*
X56713333Y51376333D01*
X56580000Y51309667D01*
X56313333Y51309667D01*
X56180000Y51376333D01*
X56046666Y51509667D01*
X55980000Y51776333D01*
X55980000Y52243000D01*
X56046666Y52509667D01*
X56180000Y52643000D01*
X56313333Y52709667D01*
X57380000Y52709667D02*
X57713333Y51309667D01*
X57980000Y52309667D01*
X58246667Y51309667D01*
X58580000Y52709667D01*
X59113333Y52043000D02*
X59580000Y52043000D01*
X59780000Y51309667D02*
X59113333Y51309667D01*
X59113333Y52709667D01*
X59780000Y52709667D01*
X61180000Y51309667D02*
X60713334Y51976333D01*
X60380000Y51309667D02*
X60380000Y52709667D01*
X60913334Y52709667D01*
X61046667Y52643000D01*
X61113334Y52576333D01*
X61180000Y52443000D01*
X61180000Y52243000D01*
X61113334Y52109667D01*
X61046667Y52043000D01*
X60913334Y51976333D01*
X60380000Y51976333D01*
X63431667Y56654667D02*
X63498333Y56854667D01*
X63498333Y57188000D01*
X63431667Y57321333D01*
X63365000Y57388000D01*
X63231667Y57454667D01*
X63098333Y57454667D01*
X62965000Y57388000D01*
X62898333Y57321333D01*
X62831667Y57188000D01*
X62765000Y56921333D01*
X62698333Y56788000D01*
X62631667Y56721333D01*
X62498333Y56654667D01*
X62365000Y56654667D01*
X62231667Y56721333D01*
X62165000Y56788000D01*
X62098333Y56921333D01*
X62098333Y57254667D01*
X62165000Y57454667D01*
X63498333Y58054666D02*
X62098333Y58054666D01*
X62098333Y58388000D01*
X62165000Y58588000D01*
X62298333Y58721333D01*
X62431667Y58788000D01*
X62698333Y58854666D01*
X62898333Y58854666D01*
X63165000Y58788000D01*
X63298333Y58721333D01*
X63431667Y58588000D01*
X63498333Y58388000D01*
X63498333Y58054666D01*
X63098333Y59388000D02*
X63098333Y60054666D01*
X63498333Y59254666D02*
X62098333Y59721333D01*
X63498333Y60188000D01*
X69785000Y57327667D02*
X69718333Y57194333D01*
X69718333Y56994333D01*
X69785000Y56794333D01*
X69918333Y56661000D01*
X70051667Y56594333D01*
X70318333Y56527667D01*
X70518333Y56527667D01*
X70785000Y56594333D01*
X70918333Y56661000D01*
X71051667Y56794333D01*
X71118333Y56994333D01*
X71118333Y57127667D01*
X71051667Y57327667D01*
X70985000Y57394333D01*
X70518333Y57394333D01*
X70518333Y57127667D01*
X71118333Y57994333D02*
X69718333Y57994333D01*
X71118333Y58794333D01*
X69718333Y58794333D01*
X71118333Y59461000D02*
X69718333Y59461000D01*
X69718333Y59794334D01*
X69785000Y59994334D01*
X69918333Y60127667D01*
X70051667Y60194334D01*
X70318333Y60261000D01*
X70518333Y60261000D01*
X70785000Y60194334D01*
X70918333Y60127667D01*
X71051667Y59994334D01*
X71118333Y59794334D01*
X71118333Y59461000D01*
X68578333Y56594333D02*
X67178333Y56594333D01*
X67845000Y56594333D02*
X67845000Y57394333D01*
X68578333Y57394333D02*
X67178333Y57394333D01*
X68578333Y58061000D02*
X67178333Y58061000D01*
X67178333Y58394334D01*
X67245000Y58594334D01*
X67378333Y58727667D01*
X67511667Y58794334D01*
X67778333Y58861000D01*
X67978333Y58861000D01*
X68245000Y58794334D01*
X68378333Y58727667D01*
X68511667Y58594334D01*
X68578333Y58394334D01*
X68578333Y58061000D01*
X68711667Y60394334D02*
X68645000Y60261000D01*
X68511667Y60127667D01*
X68311667Y59927667D01*
X68245000Y59794334D01*
X68245000Y59661000D01*
X68578333Y59727667D02*
X68511667Y59594334D01*
X68378333Y59461000D01*
X68111667Y59394334D01*
X67645000Y59394334D01*
X67378333Y59461000D01*
X67245000Y59594334D01*
X67178333Y59727667D01*
X67178333Y59994334D01*
X67245000Y60127667D01*
X67378333Y60261000D01*
X67645000Y60327667D01*
X68111667Y60327667D01*
X68378333Y60261000D01*
X68511667Y60127667D01*
X68578333Y59994334D01*
X68578333Y59727667D01*
X65971667Y56654667D02*
X66038333Y56854667D01*
X66038333Y57188000D01*
X65971667Y57321333D01*
X65905000Y57388000D01*
X65771667Y57454667D01*
X65638333Y57454667D01*
X65505000Y57388000D01*
X65438333Y57321333D01*
X65371667Y57188000D01*
X65305000Y56921333D01*
X65238333Y56788000D01*
X65171667Y56721333D01*
X65038333Y56654667D01*
X64905000Y56654667D01*
X64771667Y56721333D01*
X64705000Y56788000D01*
X64638333Y56921333D01*
X64638333Y57254667D01*
X64705000Y57454667D01*
X65905000Y58854666D02*
X65971667Y58788000D01*
X66038333Y58588000D01*
X66038333Y58454666D01*
X65971667Y58254666D01*
X65838333Y58121333D01*
X65705000Y58054666D01*
X65438333Y57988000D01*
X65238333Y57988000D01*
X64971667Y58054666D01*
X64838333Y58121333D01*
X64705000Y58254666D01*
X64638333Y58454666D01*
X64638333Y58588000D01*
X64705000Y58788000D01*
X64771667Y58854666D01*
X66038333Y60121333D02*
X66038333Y59454666D01*
X64638333Y59454666D01*
X10569428Y58757429D02*
X10569428Y60257429D01*
X11140856Y60257429D01*
X11283714Y60186000D01*
X11355142Y60114571D01*
X11426571Y59971714D01*
X11426571Y59757429D01*
X11355142Y59614571D01*
X11283714Y59543143D01*
X11140856Y59471714D01*
X10569428Y59471714D01*
X12355142Y60257429D02*
X12640856Y60257429D01*
X12783714Y60186000D01*
X12926571Y60043143D01*
X12997999Y59757429D01*
X12997999Y59257429D01*
X12926571Y58971714D01*
X12783714Y58828857D01*
X12640856Y58757429D01*
X12355142Y58757429D01*
X12212285Y58828857D01*
X12069428Y58971714D01*
X11997999Y59257429D01*
X11997999Y59757429D01*
X12069428Y60043143D01*
X12212285Y60186000D01*
X12355142Y60257429D01*
X13498000Y60257429D02*
X13855143Y58757429D01*
X14140857Y59828857D01*
X14426571Y58757429D01*
X14783714Y60257429D01*
X15355143Y59543143D02*
X15855143Y59543143D01*
X16069429Y58757429D02*
X15355143Y58757429D01*
X15355143Y60257429D01*
X16069429Y60257429D01*
X17569429Y58757429D02*
X17069429Y59471714D01*
X16712286Y58757429D02*
X16712286Y60257429D01*
X17283714Y60257429D01*
X17426572Y60186000D01*
X17498000Y60114571D01*
X17569429Y59971714D01*
X17569429Y59757429D01*
X17498000Y59614571D01*
X17426572Y59543143D01*
X17283714Y59471714D01*
X16712286Y59471714D01*
X19355143Y58757429D02*
X19355143Y60257429D01*
X20069429Y58757429D02*
X20069429Y60257429D01*
X20926572Y58757429D01*
X20926572Y60257429D01*
X29381428Y8211429D02*
X29381428Y9711429D01*
X29952856Y9711429D01*
X30095714Y9640000D01*
X30167142Y9568571D01*
X30238571Y9425714D01*
X30238571Y9211429D01*
X30167142Y9068571D01*
X30095714Y8997143D01*
X29952856Y8925714D01*
X29381428Y8925714D01*
X31167142Y9711429D02*
X31452856Y9711429D01*
X31595714Y9640000D01*
X31738571Y9497143D01*
X31809999Y9211429D01*
X31809999Y8711429D01*
X31738571Y8425714D01*
X31595714Y8282857D01*
X31452856Y8211429D01*
X31167142Y8211429D01*
X31024285Y8282857D01*
X30881428Y8425714D01*
X30809999Y8711429D01*
X30809999Y9211429D01*
X30881428Y9497143D01*
X31024285Y9640000D01*
X31167142Y9711429D01*
X32310000Y9711429D02*
X32667143Y8211429D01*
X32952857Y9282857D01*
X33238571Y8211429D01*
X33595714Y9711429D01*
X34167143Y8997143D02*
X34667143Y8997143D01*
X34881429Y8211429D02*
X34167143Y8211429D01*
X34167143Y9711429D01*
X34881429Y9711429D01*
X36381429Y8211429D02*
X35881429Y8925714D01*
X35524286Y8211429D02*
X35524286Y9711429D01*
X36095714Y9711429D01*
X36238572Y9640000D01*
X36310000Y9568571D01*
X36381429Y9425714D01*
X36381429Y9211429D01*
X36310000Y9068571D01*
X36238572Y8997143D01*
X36095714Y8925714D01*
X35524286Y8925714D01*
X38452857Y9711429D02*
X38738571Y9711429D01*
X38881429Y9640000D01*
X39024286Y9497143D01*
X39095714Y9211429D01*
X39095714Y8711429D01*
X39024286Y8425714D01*
X38881429Y8282857D01*
X38738571Y8211429D01*
X38452857Y8211429D01*
X38310000Y8282857D01*
X38167143Y8425714D01*
X38095714Y8711429D01*
X38095714Y9211429D01*
X38167143Y9497143D01*
X38310000Y9640000D01*
X38452857Y9711429D01*
X39738572Y9711429D02*
X39738572Y8497143D01*
X39810000Y8354286D01*
X39881429Y8282857D01*
X40024286Y8211429D01*
X40310000Y8211429D01*
X40452858Y8282857D01*
X40524286Y8354286D01*
X40595715Y8497143D01*
X40595715Y9711429D01*
X41095715Y9711429D02*
X41952858Y9711429D01*
X41524287Y8211429D02*
X41524287Y9711429D01*
X25082572Y7893857D02*
X26225429Y7893857D01*
X25654000Y7322429D02*
X25654000Y8465286D01*
X43601715Y8949429D02*
X43744572Y8949429D01*
X43887429Y8878000D01*
X43958858Y8806571D01*
X44030287Y8663714D01*
X44101715Y8378000D01*
X44101715Y8020857D01*
X44030287Y7735143D01*
X43958858Y7592286D01*
X43887429Y7520857D01*
X43744572Y7449429D01*
X43601715Y7449429D01*
X43458858Y7520857D01*
X43387429Y7592286D01*
X43316001Y7735143D01*
X43244572Y8020857D01*
X43244572Y8378000D01*
X43316001Y8663714D01*
X43387429Y8806571D01*
X43458858Y8878000D01*
X43601715Y8949429D01*
X44673143Y7449429D02*
X45816000Y8949429D01*
X44887429Y8949429D02*
X45030286Y8878000D01*
X45101715Y8735143D01*
X45030286Y8592286D01*
X44887429Y8520857D01*
X44744572Y8592286D01*
X44673143Y8735143D01*
X44744572Y8878000D01*
X44887429Y8949429D01*
X45744572Y7520857D02*
X45816000Y7663714D01*
X45744572Y7806571D01*
X45601715Y7878000D01*
X45458858Y7806571D01*
X45387429Y7663714D01*
X45458858Y7520857D01*
X45601715Y7449429D01*
X45744572Y7520857D01*
X47601715Y8020857D02*
X48744572Y8020857D01*
X49458858Y8020857D02*
X50601715Y8020857D01*
X51316001Y8020857D02*
X52458858Y8020857D01*
X53173144Y8020857D02*
X54316001Y8020857D01*
X55816001Y7449429D02*
X54958858Y7449429D01*
X55387430Y7449429D02*
X55387430Y8949429D01*
X55244573Y8735143D01*
X55101715Y8592286D01*
X54958858Y8520857D01*
X56744572Y8949429D02*
X56887429Y8949429D01*
X57030286Y8878000D01*
X57101715Y8806571D01*
X57173144Y8663714D01*
X57244572Y8378000D01*
X57244572Y8020857D01*
X57173144Y7735143D01*
X57101715Y7592286D01*
X57030286Y7520857D01*
X56887429Y7449429D01*
X56744572Y7449429D01*
X56601715Y7520857D01*
X56530286Y7592286D01*
X56458858Y7735143D01*
X56387429Y8020857D01*
X56387429Y8378000D01*
X56458858Y8663714D01*
X56530286Y8806571D01*
X56601715Y8878000D01*
X56744572Y8949429D01*
X58173143Y8949429D02*
X58316000Y8949429D01*
X58458857Y8878000D01*
X58530286Y8806571D01*
X58601715Y8663714D01*
X58673143Y8378000D01*
X58673143Y8020857D01*
X58601715Y7735143D01*
X58530286Y7592286D01*
X58458857Y7520857D01*
X58316000Y7449429D01*
X58173143Y7449429D01*
X58030286Y7520857D01*
X57958857Y7592286D01*
X57887429Y7735143D01*
X57816000Y8020857D01*
X57816000Y8378000D01*
X57887429Y8663714D01*
X57958857Y8806571D01*
X58030286Y8878000D01*
X58173143Y8949429D01*
X59244571Y7449429D02*
X60387428Y8949429D01*
X59458857Y8949429D02*
X59601714Y8878000D01*
X59673143Y8735143D01*
X59601714Y8592286D01*
X59458857Y8520857D01*
X59316000Y8592286D01*
X59244571Y8735143D01*
X59316000Y8878000D01*
X59458857Y8949429D01*
X60316000Y7520857D02*
X60387428Y7663714D01*
X60316000Y7806571D01*
X60173143Y7878000D01*
X60030286Y7806571D01*
X59958857Y7663714D01*
X60030286Y7520857D01*
X60173143Y7449429D01*
X60316000Y7520857D01*
X32920714Y52737143D02*
X32992143Y52665714D01*
X33063571Y52451428D01*
X33063571Y52308571D01*
X32992143Y52094286D01*
X32849286Y51951428D01*
X32706429Y51880000D01*
X32420714Y51808571D01*
X32206429Y51808571D01*
X31920714Y51880000D01*
X31777857Y51951428D01*
X31635000Y52094286D01*
X31563571Y52308571D01*
X31563571Y52451428D01*
X31635000Y52665714D01*
X31706429Y52737143D01*
X33063571Y53380000D02*
X31563571Y53380000D01*
X32277857Y53380000D02*
X32277857Y54237143D01*
X33063571Y54237143D02*
X31563571Y54237143D01*
X32635000Y54880000D02*
X32635000Y55594286D01*
X33063571Y54737143D02*
X31563571Y55237143D01*
X33063571Y55737143D01*
X33063571Y57094286D02*
X32349286Y56594286D01*
X33063571Y56237143D02*
X31563571Y56237143D01*
X31563571Y56808571D01*
X31635000Y56951429D01*
X31706429Y57022857D01*
X31849286Y57094286D01*
X32063571Y57094286D01*
X32206429Y57022857D01*
X32277857Y56951429D01*
X32349286Y56808571D01*
X32349286Y56237143D01*
X31635000Y58522857D02*
X31563571Y58380000D01*
X31563571Y58165714D01*
X31635000Y57951429D01*
X31777857Y57808571D01*
X31920714Y57737143D01*
X32206429Y57665714D01*
X32420714Y57665714D01*
X32706429Y57737143D01*
X32849286Y57808571D01*
X32992143Y57951429D01*
X33063571Y58165714D01*
X33063571Y58308571D01*
X32992143Y58522857D01*
X32920714Y58594286D01*
X32420714Y58594286D01*
X32420714Y58308571D01*
X32277857Y59237143D02*
X32277857Y59737143D01*
X33063571Y59951429D02*
X33063571Y59237143D01*
X31563571Y59237143D01*
X31563571Y59951429D01*
X28110571Y53364143D02*
X26610571Y53364143D01*
X26610571Y53721286D01*
X26682000Y53935571D01*
X26824857Y54078429D01*
X26967714Y54149857D01*
X27253429Y54221286D01*
X27467714Y54221286D01*
X27753429Y54149857D01*
X27896286Y54078429D01*
X28039143Y53935571D01*
X28110571Y53721286D01*
X28110571Y53364143D01*
X26610571Y55149857D02*
X26610571Y55435571D01*
X26682000Y55578429D01*
X26824857Y55721286D01*
X27110571Y55792714D01*
X27610571Y55792714D01*
X27896286Y55721286D01*
X28039143Y55578429D01*
X28110571Y55435571D01*
X28110571Y55149857D01*
X28039143Y55007000D01*
X27896286Y54864143D01*
X27610571Y54792714D01*
X27110571Y54792714D01*
X26824857Y54864143D01*
X26682000Y55007000D01*
X26610571Y55149857D01*
X28110571Y56435572D02*
X26610571Y56435572D01*
X28110571Y57292715D01*
X26610571Y57292715D01*
X27324857Y58007001D02*
X27324857Y58507001D01*
X28110571Y58721287D02*
X28110571Y58007001D01*
X26610571Y58007001D01*
X26610571Y58721287D01*
X21784571Y54951428D02*
X21784571Y55237142D01*
X21856000Y55380000D01*
X21998857Y55522857D01*
X22284571Y55594285D01*
X22784571Y55594285D01*
X23070286Y55522857D01*
X23213143Y55380000D01*
X23284571Y55237142D01*
X23284571Y54951428D01*
X23213143Y54808571D01*
X23070286Y54665714D01*
X22784571Y54594285D01*
X22284571Y54594285D01*
X21998857Y54665714D01*
X21856000Y54808571D01*
X21784571Y54951428D01*
X23284571Y56237143D02*
X21784571Y56237143D01*
X23284571Y57094286D01*
X21784571Y57094286D01*
D12*
X1726500Y50966000D02*
X1726500Y10756000D01*
X1726500Y10756000D02*
X79426500Y10756000D01*
X79426500Y10756000D02*
X79426500Y50966000D01*
X79426500Y50966000D02*
X1726500Y50966000D01*
D13*
X69986500Y40511000D02*
G75*
G03X69986500Y40511000I-1600000J0D01*
G01*
X69986500Y21211000D02*
G75*
G03X69986500Y21211000I-1600000J0D01*
G01*
X14366500Y21211000D02*
G75*
G03X14366500Y21211000I-1600000J0D01*
G01*
X14366500Y40511000D02*
G75*
G03X14366500Y40511000I-1600000J0D01*
G01*
X20828000Y58420000D02*
X20828000Y53340000D01*
X20828000Y53340000D02*
X10668000Y53340000D01*
X10668000Y53340000D02*
X10668000Y58420000D01*
X10668000Y58420000D02*
X20828000Y58420000D01*
X47752000Y58166000D02*
X50292000Y58166000D01*
X50292000Y58166000D02*
X50292000Y53086000D01*
X50292000Y53086000D02*
X47752000Y53086000D01*
X47752000Y53086000D02*
X47752000Y58166000D01*
X40132000Y53086000D02*
X37592000Y53086000D01*
X37592000Y53086000D02*
X37592000Y58166000D01*
X37592000Y58166000D02*
X40132000Y58166000D01*
X40132000Y58166000D02*
X40132000Y53086000D01*
X45212000Y53086000D02*
X42672000Y53086000D01*
X42672000Y53086000D02*
X42672000Y58166000D01*
X42672000Y58166000D02*
X45212000Y58166000D01*
X45212000Y58166000D02*
X45212000Y53086000D01*
X45212000Y58166000D02*
X47752000Y58166000D01*
X47752000Y58166000D02*
X47752000Y53086000D01*
X47752000Y53086000D02*
X45212000Y53086000D01*
X45212000Y53086000D02*
X45212000Y58166000D01*
X40132000Y58166000D02*
X42672000Y58166000D01*
X42672000Y58166000D02*
X42672000Y53086000D01*
X42672000Y53086000D02*
X40132000Y53086000D01*
X40132000Y53086000D02*
X40132000Y58166000D01*
X30480000Y2540000D02*
X30480000Y7620000D01*
X30480000Y7620000D02*
X40640000Y7620000D01*
X40640000Y7620000D02*
X40640000Y2540000D01*
X40640000Y2540000D02*
X30480000Y2540000D01*
X24939000Y5374000D02*
X24939000Y5874000D01*
X24939000Y9874000D02*
X24939000Y10374000D01*
X18939000Y5373900D02*
X18939000Y10374100D01*
X9939000Y5373900D02*
X9939000Y10374100D01*
X26939000Y6373000D02*
X26939000Y9375000D01*
X24439100Y6373000D02*
X24439100Y9375000D01*
X27439100Y9874000D02*
X27439100Y5874000D01*
X23939000Y9874000D02*
X23939000Y5874000D01*
X20939000Y6373900D02*
X20939000Y9374100D01*
X18438900Y9874000D02*
X18438900Y5874000D01*
X10438900Y5874000D02*
X10438900Y9874000D01*
X18438900Y6874000D02*
X18939000Y6874000D01*
X24439100Y6374000D02*
X26939000Y6374000D01*
X23939000Y5874000D02*
X27439100Y5874000D01*
X18438900Y8874000D02*
X18939000Y8874000D01*
X24439100Y9374000D02*
X26939000Y9374000D01*
X23939000Y9874000D02*
X27440000Y9874000D01*
X20939000Y6374000D02*
X23939000Y6374000D01*
X10438900Y5874000D02*
X18438900Y5874000D01*
X18939000Y5374000D02*
X24939000Y5374000D01*
X20939000Y9374000D02*
X23939000Y9374000D01*
X10438900Y9874000D02*
X18438900Y9874000D01*
X18939000Y10374000D02*
X24939000Y10374000D01*
X18939000Y5374000D02*
X9939000Y5374000D01*
X9939000Y10374000D02*
X18939000Y10374000D01*
X24939000Y421000D02*
X24939000Y921000D01*
X24939000Y4921000D02*
X24939000Y5421000D01*
X18939000Y420900D02*
X18939000Y5421100D01*
X9939000Y420900D02*
X9939000Y5421100D01*
X26939000Y1420000D02*
X26939000Y4422000D01*
X24439100Y1420000D02*
X24439100Y4422000D01*
X27439100Y4921000D02*
X27439100Y921000D01*
X23939000Y4921000D02*
X23939000Y921000D01*
X20939000Y1420900D02*
X20939000Y4421100D01*
X18438900Y4921000D02*
X18438900Y921000D01*
X10438900Y921000D02*
X10438900Y4921000D01*
X18438900Y1921000D02*
X18939000Y1921000D01*
X24439100Y1421000D02*
X26939000Y1421000D01*
X23939000Y921000D02*
X27439100Y921000D01*
X18438900Y3921000D02*
X18939000Y3921000D01*
X24439100Y4421000D02*
X26939000Y4421000D01*
X23939000Y4921000D02*
X27440000Y4921000D01*
X20939000Y1421000D02*
X23939000Y1421000D01*
X10438900Y921000D02*
X18438900Y921000D01*
X18939000Y421000D02*
X24939000Y421000D01*
X20939000Y4421000D02*
X23939000Y4421000D01*
X10438900Y4921000D02*
X18438900Y4921000D01*
X18939000Y5421000D02*
X24939000Y5421000D01*
X18939000Y421000D02*
X9939000Y421000D01*
X9939000Y5421000D02*
X18939000Y5421000D01*
X61595000Y56261000D02*
X64135000Y56261000D01*
X64135000Y56261000D02*
X64135000Y51181000D01*
X64135000Y51181000D02*
X61595000Y51181000D01*
X61595000Y51181000D02*
X61595000Y56261000D01*
X64135000Y56261000D02*
X66675000Y56261000D01*
X66675000Y56261000D02*
X66675000Y51181000D01*
X66675000Y51181000D02*
X64135000Y51181000D01*
X64135000Y51181000D02*
X64135000Y56261000D01*
X66675000Y56261000D02*
X69215000Y56261000D01*
X69215000Y56261000D02*
X69215000Y51181000D01*
X69215000Y51181000D02*
X66675000Y51181000D01*
X66675000Y51181000D02*
X66675000Y56261000D01*
X60960000Y58166000D02*
X60960000Y53086000D01*
X60960000Y53086000D02*
X50800000Y53086000D01*
X50800000Y53086000D02*
X50800000Y58166000D01*
X50800000Y58166000D02*
X60960000Y58166000D01*
X11303000Y39624000D02*
G75*
G03X11303000Y39624000I-127000J0D01*
G01*
X12319000Y39624000D02*
X11303000Y39624000D01*
X11303000Y39624000D02*
X11303000Y41148000D01*
X11303000Y41148000D02*
X12319000Y41148000D01*
X13335000Y41148000D02*
X14351000Y41148000D01*
X14351000Y41148000D02*
X14351000Y39624000D01*
X14351000Y39624000D02*
X13335000Y39624000D01*
X70231000Y21844000D02*
G75*
G03X70231000Y21844000I-127000J0D01*
G01*
X68961000Y21844000D02*
X69977000Y21844000D01*
X69977000Y21844000D02*
X69977000Y20320000D01*
X69977000Y20320000D02*
X68961000Y20320000D01*
X67945000Y20320000D02*
X66929000Y20320000D01*
X66929000Y20320000D02*
X66929000Y21844000D01*
X66929000Y21844000D02*
X67945000Y21844000D01*
D14*
X69723000Y5588000D02*
G75*
G03X69723000Y5588000I-2540000J0D01*
G01*
X63373000Y9398000D02*
X70993000Y9398000D01*
X70993000Y9398000D02*
X70993000Y1778000D01*
X70993000Y1778000D02*
X63373000Y1778000D01*
X63373000Y9398000D02*
X63373000Y1778000D01*
D13*
X69215000Y56261000D02*
X71755000Y56261000D01*
X71755000Y56261000D02*
X71755000Y51181000D01*
X71755000Y51181000D02*
X69215000Y51181000D01*
X69215000Y51181000D02*
X69215000Y56261000D01*
X26761429Y33825643D02*
X26975715Y33754214D01*
X27047143Y33682786D01*
X27118572Y33539929D01*
X27118572Y33325643D01*
X27047143Y33182786D01*
X26975715Y33111357D01*
X26832857Y33039929D01*
X26261429Y33039929D01*
X26261429Y34539929D01*
X26761429Y34539929D01*
X26904286Y34468500D01*
X26975715Y34397071D01*
X27047143Y34254214D01*
X27047143Y34111357D01*
X26975715Y33968500D01*
X26904286Y33897071D01*
X26761429Y33825643D01*
X26261429Y33825643D01*
X27547143Y34539929D02*
X28404286Y34539929D01*
X27975715Y33039929D02*
X27975715Y34539929D01*
X29690000Y33039929D02*
X28832857Y33039929D01*
X29261429Y33039929D02*
X29261429Y34539929D01*
X29118572Y34325643D01*
X28975714Y34182786D01*
X28832857Y34111357D01*
D12*
X62674595Y21828143D02*
X64198405Y21828143D01*
X62674595Y40878143D02*
X64198405Y40878143D01*
X16954595Y21828143D02*
X18478405Y21828143D01*
X17716500Y21066238D02*
X17716500Y22590048D01*
X16954595Y40878143D02*
X18478405Y40878143D01*
X17716500Y40116238D02*
X17716500Y41640048D01*
D15*
X19784190Y58943857D02*
X19784190Y58658143D01*
X19784190Y58801000D02*
X19284190Y58801000D01*
X19355619Y58753381D01*
X19403238Y58705762D01*
X19427048Y58658143D01*
X31976190Y2301857D02*
X31976190Y2016143D01*
X31976190Y2159000D02*
X31476190Y2159000D01*
X31547619Y2111381D01*
X31595238Y2063762D01*
X31619048Y2016143D01*
X59916190Y58689857D02*
X59916190Y58404143D01*
X59916190Y58547000D02*
X59416190Y58547000D01*
X59487619Y58499381D01*
X59535238Y58451762D01*
X59559048Y58404143D01*
D16*
X12505328Y42445638D02*
X12338534Y42683914D01*
X12219396Y42445638D02*
X12219396Y42946018D01*
X12410017Y42946018D01*
X12457672Y42922190D01*
X12481500Y42898362D01*
X12505328Y42850707D01*
X12505328Y42779224D01*
X12481500Y42731569D01*
X12457672Y42707741D01*
X12410017Y42683914D01*
X12219396Y42683914D01*
X12981880Y42445638D02*
X12695948Y42445638D01*
X12838914Y42445638D02*
X12838914Y42946018D01*
X12791259Y42874535D01*
X12743604Y42826880D01*
X12695948Y42803052D01*
X13434604Y42946018D02*
X13196328Y42946018D01*
X13172500Y42707741D01*
X13196328Y42731569D01*
X13243983Y42755397D01*
X13363121Y42755397D01*
X13410777Y42731569D01*
X13434604Y42707741D01*
X13458432Y42660086D01*
X13458432Y42540948D01*
X13434604Y42493293D01*
X13410777Y42469465D01*
X13363121Y42445638D01*
X13243983Y42445638D01*
X13196328Y42469465D01*
X13172500Y42493293D01*
X68131328Y23141638D02*
X67964534Y23379914D01*
X67845396Y23141638D02*
X67845396Y23642018D01*
X68036017Y23642018D01*
X68083672Y23618190D01*
X68107500Y23594362D01*
X68131328Y23546707D01*
X68131328Y23475224D01*
X68107500Y23427569D01*
X68083672Y23403741D01*
X68036017Y23379914D01*
X67845396Y23379914D01*
X68607880Y23141638D02*
X68321948Y23141638D01*
X68464914Y23141638D02*
X68464914Y23642018D01*
X68417259Y23570535D01*
X68369604Y23522880D01*
X68321948Y23499052D01*
X68774673Y23642018D02*
X69108260Y23642018D01*
X68893811Y23141638D01*
D17*
X65828334Y5049762D02*
X65973477Y5001381D01*
X66215381Y5001381D01*
X66312143Y5049762D01*
X66360524Y5098143D01*
X66408905Y5194905D01*
X66408905Y5291667D01*
X66360524Y5388429D01*
X66312143Y5436810D01*
X66215381Y5485190D01*
X66021858Y5533571D01*
X65925096Y5581952D01*
X65876715Y5630333D01*
X65828334Y5727095D01*
X65828334Y5823857D01*
X65876715Y5920619D01*
X65925096Y5969000D01*
X66021858Y6017381D01*
X66263762Y6017381D01*
X66408905Y5969000D01*
X66747572Y6017381D02*
X66989477Y5001381D01*
X67183000Y5727095D01*
X67376524Y5001381D01*
X67618429Y6017381D01*
X68537667Y5001381D02*
X67957096Y5001381D01*
X68247382Y5001381D02*
X68247382Y6017381D01*
X68150620Y5872238D01*
X68053858Y5775476D01*
X67957096Y5727095D01*
M02*
