G75*
G70*
%OFA0B0*%
%FSLAX24Y24*%
%IPPOS*%
%LPD*%
%AMOC8*
5,1,8,0,0,1.08239X$1,22.5*
%
%ADD10C,0.0000*%
D10*
X000260Y005013D02*
X000260Y024813D01*
X032060Y024813D01*
X032060Y005013D01*
X000260Y005013D01*
X004379Y006913D02*
X004381Y006959D01*
X004387Y007004D01*
X004397Y007049D01*
X004410Y007092D01*
X004427Y007135D01*
X004448Y007175D01*
X004472Y007214D01*
X004500Y007250D01*
X004531Y007284D01*
X004564Y007316D01*
X004600Y007344D01*
X004638Y007369D01*
X004678Y007391D01*
X004720Y007409D01*
X004763Y007423D01*
X004808Y007434D01*
X004853Y007441D01*
X004899Y007444D01*
X004944Y007443D01*
X004990Y007438D01*
X005035Y007429D01*
X005078Y007417D01*
X005121Y007400D01*
X005162Y007380D01*
X005201Y007357D01*
X005239Y007330D01*
X005273Y007300D01*
X005305Y007268D01*
X005334Y007232D01*
X005360Y007195D01*
X005383Y007155D01*
X005402Y007114D01*
X005417Y007071D01*
X005429Y007026D01*
X005437Y006981D01*
X005441Y006936D01*
X005441Y006890D01*
X005437Y006845D01*
X005429Y006800D01*
X005417Y006755D01*
X005402Y006712D01*
X005383Y006671D01*
X005360Y006631D01*
X005334Y006594D01*
X005305Y006558D01*
X005273Y006526D01*
X005239Y006496D01*
X005201Y006469D01*
X005162Y006446D01*
X005121Y006426D01*
X005078Y006409D01*
X005035Y006397D01*
X004990Y006388D01*
X004944Y006383D01*
X004899Y006382D01*
X004853Y006385D01*
X004808Y006392D01*
X004763Y006403D01*
X004720Y006417D01*
X004678Y006435D01*
X004638Y006457D01*
X004600Y006482D01*
X004564Y006510D01*
X004531Y006542D01*
X004500Y006576D01*
X004472Y006612D01*
X004448Y006651D01*
X004427Y006691D01*
X004410Y006734D01*
X004397Y006777D01*
X004387Y006822D01*
X004381Y006867D01*
X004379Y006913D01*
X006379Y006913D02*
X006381Y006959D01*
X006387Y007004D01*
X006397Y007049D01*
X006410Y007092D01*
X006427Y007135D01*
X006448Y007175D01*
X006472Y007214D01*
X006500Y007250D01*
X006531Y007284D01*
X006564Y007316D01*
X006600Y007344D01*
X006638Y007369D01*
X006678Y007391D01*
X006720Y007409D01*
X006763Y007423D01*
X006808Y007434D01*
X006853Y007441D01*
X006899Y007444D01*
X006944Y007443D01*
X006990Y007438D01*
X007035Y007429D01*
X007078Y007417D01*
X007121Y007400D01*
X007162Y007380D01*
X007201Y007357D01*
X007239Y007330D01*
X007273Y007300D01*
X007305Y007268D01*
X007334Y007232D01*
X007360Y007195D01*
X007383Y007155D01*
X007402Y007114D01*
X007417Y007071D01*
X007429Y007026D01*
X007437Y006981D01*
X007441Y006936D01*
X007441Y006890D01*
X007437Y006845D01*
X007429Y006800D01*
X007417Y006755D01*
X007402Y006712D01*
X007383Y006671D01*
X007360Y006631D01*
X007334Y006594D01*
X007305Y006558D01*
X007273Y006526D01*
X007239Y006496D01*
X007201Y006469D01*
X007162Y006446D01*
X007121Y006426D01*
X007078Y006409D01*
X007035Y006397D01*
X006990Y006388D01*
X006944Y006383D01*
X006899Y006382D01*
X006853Y006385D01*
X006808Y006392D01*
X006763Y006403D01*
X006720Y006417D01*
X006678Y006435D01*
X006638Y006457D01*
X006600Y006482D01*
X006564Y006510D01*
X006531Y006542D01*
X006500Y006576D01*
X006472Y006612D01*
X006448Y006651D01*
X006427Y006691D01*
X006410Y006734D01*
X006397Y006777D01*
X006387Y006822D01*
X006381Y006867D01*
X006379Y006913D01*
X008379Y006913D02*
X008381Y006959D01*
X008387Y007004D01*
X008397Y007049D01*
X008410Y007092D01*
X008427Y007135D01*
X008448Y007175D01*
X008472Y007214D01*
X008500Y007250D01*
X008531Y007284D01*
X008564Y007316D01*
X008600Y007344D01*
X008638Y007369D01*
X008678Y007391D01*
X008720Y007409D01*
X008763Y007423D01*
X008808Y007434D01*
X008853Y007441D01*
X008899Y007444D01*
X008944Y007443D01*
X008990Y007438D01*
X009035Y007429D01*
X009078Y007417D01*
X009121Y007400D01*
X009162Y007380D01*
X009201Y007357D01*
X009239Y007330D01*
X009273Y007300D01*
X009305Y007268D01*
X009334Y007232D01*
X009360Y007195D01*
X009383Y007155D01*
X009402Y007114D01*
X009417Y007071D01*
X009429Y007026D01*
X009437Y006981D01*
X009441Y006936D01*
X009441Y006890D01*
X009437Y006845D01*
X009429Y006800D01*
X009417Y006755D01*
X009402Y006712D01*
X009383Y006671D01*
X009360Y006631D01*
X009334Y006594D01*
X009305Y006558D01*
X009273Y006526D01*
X009239Y006496D01*
X009201Y006469D01*
X009162Y006446D01*
X009121Y006426D01*
X009078Y006409D01*
X009035Y006397D01*
X008990Y006388D01*
X008944Y006383D01*
X008899Y006382D01*
X008853Y006385D01*
X008808Y006392D01*
X008763Y006403D01*
X008720Y006417D01*
X008678Y006435D01*
X008638Y006457D01*
X008600Y006482D01*
X008564Y006510D01*
X008531Y006542D01*
X008500Y006576D01*
X008472Y006612D01*
X008448Y006651D01*
X008427Y006691D01*
X008410Y006734D01*
X008397Y006777D01*
X008387Y006822D01*
X008381Y006867D01*
X008379Y006913D01*
X015379Y006913D02*
X015381Y006959D01*
X015387Y007004D01*
X015397Y007049D01*
X015410Y007092D01*
X015427Y007135D01*
X015448Y007175D01*
X015472Y007214D01*
X015500Y007250D01*
X015531Y007284D01*
X015564Y007316D01*
X015600Y007344D01*
X015638Y007369D01*
X015678Y007391D01*
X015720Y007409D01*
X015763Y007423D01*
X015808Y007434D01*
X015853Y007441D01*
X015899Y007444D01*
X015944Y007443D01*
X015990Y007438D01*
X016035Y007429D01*
X016078Y007417D01*
X016121Y007400D01*
X016162Y007380D01*
X016201Y007357D01*
X016239Y007330D01*
X016273Y007300D01*
X016305Y007268D01*
X016334Y007232D01*
X016360Y007195D01*
X016383Y007155D01*
X016402Y007114D01*
X016417Y007071D01*
X016429Y007026D01*
X016437Y006981D01*
X016441Y006936D01*
X016441Y006890D01*
X016437Y006845D01*
X016429Y006800D01*
X016417Y006755D01*
X016402Y006712D01*
X016383Y006671D01*
X016360Y006631D01*
X016334Y006594D01*
X016305Y006558D01*
X016273Y006526D01*
X016239Y006496D01*
X016201Y006469D01*
X016162Y006446D01*
X016121Y006426D01*
X016078Y006409D01*
X016035Y006397D01*
X015990Y006388D01*
X015944Y006383D01*
X015899Y006382D01*
X015853Y006385D01*
X015808Y006392D01*
X015763Y006403D01*
X015720Y006417D01*
X015678Y006435D01*
X015638Y006457D01*
X015600Y006482D01*
X015564Y006510D01*
X015531Y006542D01*
X015500Y006576D01*
X015472Y006612D01*
X015448Y006651D01*
X015427Y006691D01*
X015410Y006734D01*
X015397Y006777D01*
X015387Y006822D01*
X015381Y006867D01*
X015379Y006913D01*
X016879Y006913D02*
X016881Y006959D01*
X016887Y007004D01*
X016897Y007049D01*
X016910Y007092D01*
X016927Y007135D01*
X016948Y007175D01*
X016972Y007214D01*
X017000Y007250D01*
X017031Y007284D01*
X017064Y007316D01*
X017100Y007344D01*
X017138Y007369D01*
X017178Y007391D01*
X017220Y007409D01*
X017263Y007423D01*
X017308Y007434D01*
X017353Y007441D01*
X017399Y007444D01*
X017444Y007443D01*
X017490Y007438D01*
X017535Y007429D01*
X017578Y007417D01*
X017621Y007400D01*
X017662Y007380D01*
X017701Y007357D01*
X017739Y007330D01*
X017773Y007300D01*
X017805Y007268D01*
X017834Y007232D01*
X017860Y007195D01*
X017883Y007155D01*
X017902Y007114D01*
X017917Y007071D01*
X017929Y007026D01*
X017937Y006981D01*
X017941Y006936D01*
X017941Y006890D01*
X017937Y006845D01*
X017929Y006800D01*
X017917Y006755D01*
X017902Y006712D01*
X017883Y006671D01*
X017860Y006631D01*
X017834Y006594D01*
X017805Y006558D01*
X017773Y006526D01*
X017739Y006496D01*
X017701Y006469D01*
X017662Y006446D01*
X017621Y006426D01*
X017578Y006409D01*
X017535Y006397D01*
X017490Y006388D01*
X017444Y006383D01*
X017399Y006382D01*
X017353Y006385D01*
X017308Y006392D01*
X017263Y006403D01*
X017220Y006417D01*
X017178Y006435D01*
X017138Y006457D01*
X017100Y006482D01*
X017064Y006510D01*
X017031Y006542D01*
X017000Y006576D01*
X016972Y006612D01*
X016948Y006651D01*
X016927Y006691D01*
X016910Y006734D01*
X016897Y006777D01*
X016887Y006822D01*
X016881Y006867D01*
X016879Y006913D01*
X018379Y006913D02*
X018381Y006959D01*
X018387Y007004D01*
X018397Y007049D01*
X018410Y007092D01*
X018427Y007135D01*
X018448Y007175D01*
X018472Y007214D01*
X018500Y007250D01*
X018531Y007284D01*
X018564Y007316D01*
X018600Y007344D01*
X018638Y007369D01*
X018678Y007391D01*
X018720Y007409D01*
X018763Y007423D01*
X018808Y007434D01*
X018853Y007441D01*
X018899Y007444D01*
X018944Y007443D01*
X018990Y007438D01*
X019035Y007429D01*
X019078Y007417D01*
X019121Y007400D01*
X019162Y007380D01*
X019201Y007357D01*
X019239Y007330D01*
X019273Y007300D01*
X019305Y007268D01*
X019334Y007232D01*
X019360Y007195D01*
X019383Y007155D01*
X019402Y007114D01*
X019417Y007071D01*
X019429Y007026D01*
X019437Y006981D01*
X019441Y006936D01*
X019441Y006890D01*
X019437Y006845D01*
X019429Y006800D01*
X019417Y006755D01*
X019402Y006712D01*
X019383Y006671D01*
X019360Y006631D01*
X019334Y006594D01*
X019305Y006558D01*
X019273Y006526D01*
X019239Y006496D01*
X019201Y006469D01*
X019162Y006446D01*
X019121Y006426D01*
X019078Y006409D01*
X019035Y006397D01*
X018990Y006388D01*
X018944Y006383D01*
X018899Y006382D01*
X018853Y006385D01*
X018808Y006392D01*
X018763Y006403D01*
X018720Y006417D01*
X018678Y006435D01*
X018638Y006457D01*
X018600Y006482D01*
X018564Y006510D01*
X018531Y006542D01*
X018500Y006576D01*
X018472Y006612D01*
X018448Y006651D01*
X018427Y006691D01*
X018410Y006734D01*
X018397Y006777D01*
X018387Y006822D01*
X018381Y006867D01*
X018379Y006913D01*
X019879Y006913D02*
X019881Y006959D01*
X019887Y007004D01*
X019897Y007049D01*
X019910Y007092D01*
X019927Y007135D01*
X019948Y007175D01*
X019972Y007214D01*
X020000Y007250D01*
X020031Y007284D01*
X020064Y007316D01*
X020100Y007344D01*
X020138Y007369D01*
X020178Y007391D01*
X020220Y007409D01*
X020263Y007423D01*
X020308Y007434D01*
X020353Y007441D01*
X020399Y007444D01*
X020444Y007443D01*
X020490Y007438D01*
X020535Y007429D01*
X020578Y007417D01*
X020621Y007400D01*
X020662Y007380D01*
X020701Y007357D01*
X020739Y007330D01*
X020773Y007300D01*
X020805Y007268D01*
X020834Y007232D01*
X020860Y007195D01*
X020883Y007155D01*
X020902Y007114D01*
X020917Y007071D01*
X020929Y007026D01*
X020937Y006981D01*
X020941Y006936D01*
X020941Y006890D01*
X020937Y006845D01*
X020929Y006800D01*
X020917Y006755D01*
X020902Y006712D01*
X020883Y006671D01*
X020860Y006631D01*
X020834Y006594D01*
X020805Y006558D01*
X020773Y006526D01*
X020739Y006496D01*
X020701Y006469D01*
X020662Y006446D01*
X020621Y006426D01*
X020578Y006409D01*
X020535Y006397D01*
X020490Y006388D01*
X020444Y006383D01*
X020399Y006382D01*
X020353Y006385D01*
X020308Y006392D01*
X020263Y006403D01*
X020220Y006417D01*
X020178Y006435D01*
X020138Y006457D01*
X020100Y006482D01*
X020064Y006510D01*
X020031Y006542D01*
X020000Y006576D01*
X019972Y006612D01*
X019948Y006651D01*
X019927Y006691D01*
X019910Y006734D01*
X019897Y006777D01*
X019887Y006822D01*
X019881Y006867D01*
X019879Y006913D01*
X021379Y006913D02*
X021381Y006959D01*
X021387Y007004D01*
X021397Y007049D01*
X021410Y007092D01*
X021427Y007135D01*
X021448Y007175D01*
X021472Y007214D01*
X021500Y007250D01*
X021531Y007284D01*
X021564Y007316D01*
X021600Y007344D01*
X021638Y007369D01*
X021678Y007391D01*
X021720Y007409D01*
X021763Y007423D01*
X021808Y007434D01*
X021853Y007441D01*
X021899Y007444D01*
X021944Y007443D01*
X021990Y007438D01*
X022035Y007429D01*
X022078Y007417D01*
X022121Y007400D01*
X022162Y007380D01*
X022201Y007357D01*
X022239Y007330D01*
X022273Y007300D01*
X022305Y007268D01*
X022334Y007232D01*
X022360Y007195D01*
X022383Y007155D01*
X022402Y007114D01*
X022417Y007071D01*
X022429Y007026D01*
X022437Y006981D01*
X022441Y006936D01*
X022441Y006890D01*
X022437Y006845D01*
X022429Y006800D01*
X022417Y006755D01*
X022402Y006712D01*
X022383Y006671D01*
X022360Y006631D01*
X022334Y006594D01*
X022305Y006558D01*
X022273Y006526D01*
X022239Y006496D01*
X022201Y006469D01*
X022162Y006446D01*
X022121Y006426D01*
X022078Y006409D01*
X022035Y006397D01*
X021990Y006388D01*
X021944Y006383D01*
X021899Y006382D01*
X021853Y006385D01*
X021808Y006392D01*
X021763Y006403D01*
X021720Y006417D01*
X021678Y006435D01*
X021638Y006457D01*
X021600Y006482D01*
X021564Y006510D01*
X021531Y006542D01*
X021500Y006576D01*
X021472Y006612D01*
X021448Y006651D01*
X021427Y006691D01*
X021410Y006734D01*
X021397Y006777D01*
X021387Y006822D01*
X021381Y006867D01*
X021379Y006913D01*
X022879Y006913D02*
X022881Y006959D01*
X022887Y007004D01*
X022897Y007049D01*
X022910Y007092D01*
X022927Y007135D01*
X022948Y007175D01*
X022972Y007214D01*
X023000Y007250D01*
X023031Y007284D01*
X023064Y007316D01*
X023100Y007344D01*
X023138Y007369D01*
X023178Y007391D01*
X023220Y007409D01*
X023263Y007423D01*
X023308Y007434D01*
X023353Y007441D01*
X023399Y007444D01*
X023444Y007443D01*
X023490Y007438D01*
X023535Y007429D01*
X023578Y007417D01*
X023621Y007400D01*
X023662Y007380D01*
X023701Y007357D01*
X023739Y007330D01*
X023773Y007300D01*
X023805Y007268D01*
X023834Y007232D01*
X023860Y007195D01*
X023883Y007155D01*
X023902Y007114D01*
X023917Y007071D01*
X023929Y007026D01*
X023937Y006981D01*
X023941Y006936D01*
X023941Y006890D01*
X023937Y006845D01*
X023929Y006800D01*
X023917Y006755D01*
X023902Y006712D01*
X023883Y006671D01*
X023860Y006631D01*
X023834Y006594D01*
X023805Y006558D01*
X023773Y006526D01*
X023739Y006496D01*
X023701Y006469D01*
X023662Y006446D01*
X023621Y006426D01*
X023578Y006409D01*
X023535Y006397D01*
X023490Y006388D01*
X023444Y006383D01*
X023399Y006382D01*
X023353Y006385D01*
X023308Y006392D01*
X023263Y006403D01*
X023220Y006417D01*
X023178Y006435D01*
X023138Y006457D01*
X023100Y006482D01*
X023064Y006510D01*
X023031Y006542D01*
X023000Y006576D01*
X022972Y006612D01*
X022948Y006651D01*
X022927Y006691D01*
X022910Y006734D01*
X022897Y006777D01*
X022887Y006822D01*
X022881Y006867D01*
X022879Y006913D01*
X024379Y006913D02*
X024381Y006959D01*
X024387Y007004D01*
X024397Y007049D01*
X024410Y007092D01*
X024427Y007135D01*
X024448Y007175D01*
X024472Y007214D01*
X024500Y007250D01*
X024531Y007284D01*
X024564Y007316D01*
X024600Y007344D01*
X024638Y007369D01*
X024678Y007391D01*
X024720Y007409D01*
X024763Y007423D01*
X024808Y007434D01*
X024853Y007441D01*
X024899Y007444D01*
X024944Y007443D01*
X024990Y007438D01*
X025035Y007429D01*
X025078Y007417D01*
X025121Y007400D01*
X025162Y007380D01*
X025201Y007357D01*
X025239Y007330D01*
X025273Y007300D01*
X025305Y007268D01*
X025334Y007232D01*
X025360Y007195D01*
X025383Y007155D01*
X025402Y007114D01*
X025417Y007071D01*
X025429Y007026D01*
X025437Y006981D01*
X025441Y006936D01*
X025441Y006890D01*
X025437Y006845D01*
X025429Y006800D01*
X025417Y006755D01*
X025402Y006712D01*
X025383Y006671D01*
X025360Y006631D01*
X025334Y006594D01*
X025305Y006558D01*
X025273Y006526D01*
X025239Y006496D01*
X025201Y006469D01*
X025162Y006446D01*
X025121Y006426D01*
X025078Y006409D01*
X025035Y006397D01*
X024990Y006388D01*
X024944Y006383D01*
X024899Y006382D01*
X024853Y006385D01*
X024808Y006392D01*
X024763Y006403D01*
X024720Y006417D01*
X024678Y006435D01*
X024638Y006457D01*
X024600Y006482D01*
X024564Y006510D01*
X024531Y006542D01*
X024500Y006576D01*
X024472Y006612D01*
X024448Y006651D01*
X024427Y006691D01*
X024410Y006734D01*
X024397Y006777D01*
X024387Y006822D01*
X024381Y006867D01*
X024379Y006913D01*
M02*
