G04 #@! TF.GenerationSoftware,KiCad,Pcbnew,(5.1.0-rc1-108-gb4c0af021)*
G04 #@! TF.CreationDate,2019-02-21T20:09:24+01:00
G04 #@! TF.ProjectId,TTLLVDS01A,54544c4c-5644-4533-9031-412e6b696361,REV*
G04 #@! TF.SameCoordinates,Original*
G04 #@! TF.FileFunction,Copper,L2,Bot*
G04 #@! TF.FilePolarity,Positive*
%FSLAX46Y46*%
G04 Gerber Fmt 4.6, Leading zero omitted, Abs format (unit mm)*
G04 Created by KiCad (PCBNEW (5.1.0-rc1-108-gb4c0af021)) date 2019-02-21 20:09:24*
%MOMM*%
%LPD*%
G04 APERTURE LIST*
%ADD10C,0.200000*%
%ADD11R,1.397000X0.889000*%
%ADD12R,1.300000X1.700000*%
%ADD13R,1.524000X1.524000*%
%ADD14O,1.300000X1.100000*%
%ADD15C,2.500000*%
%ADD16C,6.000000*%
%ADD17R,1.550000X0.600000*%
%ADD18C,0.800000*%
%ADD19C,0.500000*%
%ADD20C,1.000000*%
%ADD21C,0.300000*%
%ADD22C,0.400000*%
%ADD23C,0.254000*%
G04 APERTURE END LIST*
D10*
X8190238Y9698904D02*
X8190238Y10998904D01*
X7756904Y10070333D01*
X7323571Y10998904D01*
X7323571Y9698904D01*
X6085476Y9698904D02*
X6704523Y9698904D01*
X6704523Y10998904D01*
X5714047Y10070333D02*
X5095000Y10070333D01*
X5837857Y9698904D02*
X5404523Y10998904D01*
X4971190Y9698904D01*
X4104523Y10379857D02*
X3918809Y10317952D01*
X3856904Y10256047D01*
X3795000Y10132238D01*
X3795000Y9946523D01*
X3856904Y9822714D01*
X3918809Y9760809D01*
X4042619Y9698904D01*
X4537857Y9698904D01*
X4537857Y10998904D01*
X4104523Y10998904D01*
X3980714Y10937000D01*
X3918809Y10875095D01*
X3856904Y10751285D01*
X3856904Y10627476D01*
X3918809Y10503666D01*
X3980714Y10441761D01*
X4104523Y10379857D01*
X4537857Y10379857D01*
X3237857Y9822714D02*
X3175952Y9760809D01*
X3237857Y9698904D01*
X3299761Y9760809D01*
X3237857Y9822714D01*
X3237857Y9698904D01*
X1875952Y9822714D02*
X1937857Y9760809D01*
X2123571Y9698904D01*
X2247380Y9698904D01*
X2433095Y9760809D01*
X2556904Y9884619D01*
X2618809Y10008428D01*
X2680714Y10256047D01*
X2680714Y10441761D01*
X2618809Y10689380D01*
X2556904Y10813190D01*
X2433095Y10937000D01*
X2247380Y10998904D01*
X2123571Y10998904D01*
X1937857Y10937000D01*
X1875952Y10875095D01*
X1442619Y10998904D02*
X575952Y10998904D01*
X1442619Y9698904D01*
X575952Y9698904D01*
D11*
X16764000Y3429000D03*
X16764000Y1524000D03*
D12*
X9708000Y11684000D03*
X13208000Y11684000D03*
D13*
X10922000Y8128000D03*
X13462000Y8128000D03*
X10922000Y5588000D03*
X13462000Y5588000D03*
X10922000Y3048000D03*
X13462000Y3048000D03*
X19812000Y18034000D03*
X19812000Y15494000D03*
X14732000Y18034000D03*
X14732000Y15494000D03*
X17272000Y15494000D03*
X17272000Y18034000D03*
X22352000Y18034000D03*
X22352000Y15494000D03*
D14*
X26644600Y5562600D03*
X26644600Y9372600D03*
X26644600Y13182600D03*
X28144600Y11912600D03*
X28144600Y10642600D03*
X28144600Y8102600D03*
D15*
X29144600Y15932600D03*
D14*
X28144600Y6832600D03*
D15*
X28144600Y3102600D03*
D16*
X35560000Y15240000D03*
X5080000Y5080000D03*
X5080000Y15240000D03*
X35560000Y5080000D03*
D11*
X20066000Y10795000D03*
X20066000Y12700000D03*
X17780000Y12700000D03*
X17780000Y10795000D03*
X24066500Y6794500D03*
X24066500Y4889500D03*
X24066500Y8445500D03*
X24066500Y10350500D03*
D17*
X16096000Y5207000D03*
X16096000Y6477000D03*
X16096000Y7747000D03*
X16096000Y9017000D03*
X21496000Y9017000D03*
X21496000Y7747000D03*
X21496000Y6477000D03*
X21496000Y5207000D03*
D18*
X15621000Y13081000D03*
X15621000Y12065000D03*
X15621000Y11049000D03*
X22225000Y13208000D03*
X22225000Y12192000D03*
X22225000Y11176000D03*
X20320000Y3556000D03*
X21463000Y3556000D03*
X22479000Y3556000D03*
D19*
X13843000Y5207000D02*
X13462000Y5588000D01*
X16096000Y5207000D02*
X13843000Y5207000D01*
X16096000Y4097000D02*
X16764000Y3429000D01*
X16096000Y5207000D02*
X16096000Y4097000D01*
D20*
X13462000Y5588000D02*
X10922000Y5588000D01*
X10160000Y5588000D02*
X9459999Y6288001D01*
X10922000Y5588000D02*
X10160000Y5588000D01*
X9459999Y9342000D02*
X9459999Y6288001D01*
X9708000Y9590001D02*
X9459999Y9342000D01*
X9708000Y11684000D02*
X9708000Y9590001D01*
D19*
X19812000Y12954000D02*
X20066000Y12700000D01*
X19812000Y15494000D02*
X19812000Y12954000D01*
D21*
X19812000Y18034000D02*
X19812000Y15494000D01*
D19*
X17272000Y13208000D02*
X17780000Y12700000D01*
X17272000Y15494000D02*
X17272000Y13208000D01*
D21*
X17272000Y18034000D02*
X17272000Y15494000D01*
D19*
X19812000Y9850500D02*
X19812000Y10795000D01*
X19812000Y8918000D02*
X19812000Y9850500D01*
X17371000Y6477000D02*
X19812000Y8918000D01*
X16096000Y6477000D02*
X17371000Y6477000D01*
X17780000Y9850500D02*
X17780000Y10795000D01*
X17780000Y8156000D02*
X17780000Y9850500D01*
X17371000Y7747000D02*
X17780000Y8156000D01*
X16096000Y7747000D02*
X17371000Y7747000D01*
D22*
X23018749Y6794500D02*
X24066500Y6794500D01*
X22391249Y6167000D02*
X23018749Y6794500D01*
X22281000Y6167000D02*
X22391249Y6167000D01*
X21971000Y6477000D02*
X22281000Y6167000D01*
X21496000Y6477000D02*
X21971000Y6477000D01*
X27494600Y8102600D02*
X28144600Y8102600D01*
X27184600Y7792600D02*
X27494600Y8102600D01*
X26050361Y7792600D02*
X27184600Y7792600D01*
X24066500Y6794500D02*
X25052261Y6794500D01*
X25052261Y6794500D02*
X26050361Y7792600D01*
X21971000Y5207000D02*
X22281000Y5517000D01*
X22281000Y5517000D02*
X22391249Y5517000D01*
X22391249Y5517000D02*
X23018749Y4889500D01*
X21496000Y5207000D02*
X21971000Y5207000D01*
X23018749Y4889500D02*
X24066500Y4889500D01*
X27494600Y6832600D02*
X28144600Y6832600D01*
X27184600Y7142600D02*
X27494600Y6832600D01*
X26319600Y7142600D02*
X27184600Y7142600D01*
X24066500Y4889500D02*
X26319600Y7142600D01*
X22621119Y8905119D02*
X24066500Y10350500D01*
X22423000Y8707000D02*
X22621119Y8905119D01*
X22281000Y8707000D02*
X22423000Y8707000D01*
X21971000Y9017000D02*
X22281000Y8707000D01*
X21496000Y9017000D02*
X21971000Y9017000D01*
X27524600Y11912600D02*
X28144600Y11912600D01*
X26614361Y11912600D02*
X27524600Y11912600D01*
X25052261Y10350500D02*
X26614361Y11912600D01*
X24066500Y10350500D02*
X25052261Y10350500D01*
X21971000Y7747000D02*
X22281000Y8057000D01*
X21496000Y7747000D02*
X21971000Y7747000D01*
X22281000Y8057000D02*
X22692239Y8057000D01*
X22692239Y8057000D02*
X23080739Y8445500D01*
X23080739Y8445500D02*
X24066500Y8445500D01*
X27824610Y10962590D02*
X28144600Y10642600D01*
X27351083Y11262600D02*
X27651093Y10962590D01*
X26883600Y11262600D02*
X27351083Y11262600D01*
X24066500Y8445500D02*
X26883600Y11262600D01*
X27651093Y10962590D02*
X27824610Y10962590D01*
D23*
G36*
X39884000Y756000D02*
G01*
X756000Y756000D01*
X756000Y2762250D01*
X9525000Y2762250D01*
X9525000Y2223458D01*
X9549403Y2100777D01*
X9597270Y1985215D01*
X9666763Y1881211D01*
X9755211Y1792763D01*
X9859215Y1723270D01*
X9974777Y1675403D01*
X10097458Y1651000D01*
X10636250Y1651000D01*
X10795000Y1809750D01*
X10795000Y2921000D01*
X11049000Y2921000D01*
X11049000Y1809750D01*
X11207750Y1651000D01*
X11746542Y1651000D01*
X11869223Y1675403D01*
X11984785Y1723270D01*
X12088789Y1792763D01*
X12177237Y1881211D01*
X12192000Y1903305D01*
X12206763Y1881211D01*
X12295211Y1792763D01*
X12399215Y1723270D01*
X12514777Y1675403D01*
X12637458Y1651000D01*
X13176250Y1651000D01*
X13335000Y1809750D01*
X13335000Y2921000D01*
X13589000Y2921000D01*
X13589000Y1809750D01*
X13747750Y1651000D01*
X14286542Y1651000D01*
X14409223Y1675403D01*
X14524785Y1723270D01*
X14628789Y1792763D01*
X14717237Y1881211D01*
X14786730Y1985215D01*
X14834597Y2100777D01*
X14859000Y2223458D01*
X14859000Y2762250D01*
X14700250Y2921000D01*
X13589000Y2921000D01*
X13335000Y2921000D01*
X12223750Y2921000D01*
X12192000Y2889250D01*
X12160250Y2921000D01*
X11049000Y2921000D01*
X10795000Y2921000D01*
X9683750Y2921000D01*
X9525000Y2762250D01*
X756000Y2762250D01*
X756000Y8696000D01*
X8532999Y8696000D01*
X8533000Y6333538D01*
X8528515Y6288001D01*
X8533000Y6242464D01*
X8533000Y6242463D01*
X8546413Y6106277D01*
X8548603Y6099059D01*
X8599419Y5931538D01*
X8685498Y5770496D01*
X8772311Y5664714D01*
X8772316Y5664709D01*
X8801341Y5629342D01*
X8836707Y5600318D01*
X9472316Y4964708D01*
X9501341Y4929341D01*
X9536708Y4900316D01*
X9536712Y4900312D01*
X9642494Y4813499D01*
X9737148Y4762905D01*
X9739178Y4742293D01*
X9763595Y4661804D01*
X9803245Y4587624D01*
X9856605Y4522605D01*
X9921624Y4469245D01*
X9995804Y4429595D01*
X10005391Y4426687D01*
X9974777Y4420597D01*
X9859215Y4372730D01*
X9755211Y4303237D01*
X9666763Y4214789D01*
X9597270Y4110785D01*
X9549403Y3995223D01*
X9525000Y3872542D01*
X9525000Y3333750D01*
X9683750Y3175000D01*
X10795000Y3175000D01*
X10795000Y3195000D01*
X11049000Y3195000D01*
X11049000Y3175000D01*
X12160250Y3175000D01*
X12192000Y3206750D01*
X12223750Y3175000D01*
X13335000Y3175000D01*
X13335000Y3195000D01*
X13589000Y3195000D01*
X13589000Y3175000D01*
X14700250Y3175000D01*
X14859000Y3333750D01*
X14859000Y3872542D01*
X14834597Y3995223D01*
X14786730Y4110785D01*
X14717237Y4214789D01*
X14628789Y4303237D01*
X14524785Y4372730D01*
X14409223Y4420597D01*
X14378609Y4426687D01*
X14388196Y4429595D01*
X14462376Y4469245D01*
X14527395Y4522605D01*
X14533464Y4530000D01*
X15120500Y4530000D01*
X15156804Y4510595D01*
X15237293Y4486178D01*
X15321000Y4477934D01*
X15419001Y4477934D01*
X15419001Y4130254D01*
X15415726Y4097000D01*
X15428796Y3964286D01*
X15467508Y3836671D01*
X15530372Y3719060D01*
X15593776Y3641802D01*
X15593779Y3641799D01*
X15614974Y3615973D01*
X15636434Y3598361D01*
X15636434Y2984500D01*
X15644678Y2900793D01*
X15669095Y2820304D01*
X15708745Y2746124D01*
X15762105Y2681105D01*
X15827124Y2627745D01*
X15901304Y2588095D01*
X15981793Y2563678D01*
X16065500Y2555434D01*
X17462500Y2555434D01*
X17546207Y2563678D01*
X17626696Y2588095D01*
X17700876Y2627745D01*
X17765895Y2681105D01*
X17819255Y2746124D01*
X17858905Y2820304D01*
X17883322Y2900793D01*
X17891566Y2984500D01*
X17891566Y3267770D01*
X26467600Y3267770D01*
X26467600Y2937430D01*
X26532046Y2613437D01*
X26658462Y2308243D01*
X26841989Y2033575D01*
X27075575Y1799989D01*
X27350243Y1616462D01*
X27655437Y1490046D01*
X27979430Y1425600D01*
X28309770Y1425600D01*
X28633763Y1490046D01*
X28938957Y1616462D01*
X29213625Y1799989D01*
X29447211Y2033575D01*
X29630738Y2308243D01*
X29757154Y2613437D01*
X29821600Y2937430D01*
X29821600Y3267770D01*
X29757154Y3591763D01*
X29630738Y3896957D01*
X29447211Y4171625D01*
X29213625Y4405211D01*
X28938957Y4588738D01*
X28633763Y4715154D01*
X28309770Y4779600D01*
X27979430Y4779600D01*
X27655437Y4715154D01*
X27480937Y4642873D01*
X27567823Y4711817D01*
X27717985Y4888767D01*
X27830740Y5091613D01*
X27888403Y5252856D01*
X27762961Y5435600D01*
X26771600Y5435600D01*
X26771600Y4537796D01*
X26956416Y4397841D01*
X27145196Y4451730D01*
X27075575Y4405211D01*
X26841989Y4171625D01*
X26658462Y3896957D01*
X26532046Y3591763D01*
X26467600Y3267770D01*
X17891566Y3267770D01*
X17891566Y3873500D01*
X17883322Y3957207D01*
X17858905Y4037696D01*
X17819255Y4111876D01*
X17765895Y4176895D01*
X17700876Y4230255D01*
X17626696Y4269905D01*
X17546207Y4294322D01*
X17462500Y4302566D01*
X16847856Y4302566D01*
X16773000Y4377422D01*
X16773000Y4477934D01*
X16871000Y4477934D01*
X16954707Y4486178D01*
X17035196Y4510595D01*
X17109376Y4550245D01*
X17174395Y4603605D01*
X17227755Y4668624D01*
X17267405Y4742804D01*
X17291822Y4823293D01*
X17300066Y4907000D01*
X17300066Y5507000D01*
X17291822Y5590707D01*
X17267405Y5671196D01*
X17227755Y5745376D01*
X17182926Y5800000D01*
X17337755Y5800000D01*
X17371000Y5796726D01*
X17404245Y5800000D01*
X17404252Y5800000D01*
X17503715Y5809796D01*
X17631330Y5848508D01*
X17748941Y5911372D01*
X17852027Y5995973D01*
X17873226Y6021804D01*
X20267200Y8415778D01*
X20293026Y8436973D01*
X20349637Y8505953D01*
X20364245Y8478624D01*
X20417605Y8413605D01*
X20456116Y8382000D01*
X20417605Y8350395D01*
X20364245Y8285376D01*
X20324595Y8211196D01*
X20300178Y8130707D01*
X20291934Y8047000D01*
X20291934Y7447000D01*
X20300178Y7363293D01*
X20324595Y7282804D01*
X20364245Y7208624D01*
X20417605Y7143605D01*
X20456116Y7112000D01*
X20417605Y7080395D01*
X20364245Y7015376D01*
X20324595Y6941196D01*
X20300178Y6860707D01*
X20291934Y6777000D01*
X20291934Y6177000D01*
X20300178Y6093293D01*
X20324595Y6012804D01*
X20364245Y5938624D01*
X20417605Y5873605D01*
X20456116Y5842000D01*
X20417605Y5810395D01*
X20364245Y5745376D01*
X20324595Y5671196D01*
X20300178Y5590707D01*
X20291934Y5507000D01*
X20291934Y4907000D01*
X20300178Y4823293D01*
X20324595Y4742804D01*
X20364245Y4668624D01*
X20417605Y4603605D01*
X20482624Y4550245D01*
X20556804Y4510595D01*
X20637293Y4486178D01*
X20721000Y4477934D01*
X22271000Y4477934D01*
X22354707Y4486178D01*
X22435196Y4510595D01*
X22484558Y4536979D01*
X22553615Y4467922D01*
X22573248Y4443999D01*
X22668721Y4365647D01*
X22777646Y4307425D01*
X22895836Y4271573D01*
X22981013Y4263184D01*
X23011245Y4206624D01*
X23064605Y4141605D01*
X23129624Y4088245D01*
X23203804Y4048595D01*
X23284293Y4024178D01*
X23368000Y4015934D01*
X24765000Y4015934D01*
X24848707Y4024178D01*
X24929196Y4048595D01*
X25003376Y4088245D01*
X25068395Y4141605D01*
X25121755Y4206624D01*
X25161405Y4280804D01*
X25185822Y4361293D01*
X25194066Y4445000D01*
X25194066Y5130355D01*
X25499310Y5435598D01*
X25526238Y5435598D01*
X25400797Y5252856D01*
X25458460Y5091613D01*
X25571215Y4888767D01*
X25721377Y4711817D01*
X25903174Y4567562D01*
X26109621Y4461545D01*
X26332784Y4397841D01*
X26517600Y4537796D01*
X26517600Y5435600D01*
X26497600Y5435600D01*
X26497600Y5689600D01*
X26517600Y5689600D01*
X26517600Y5709600D01*
X26771600Y5709600D01*
X26771600Y5689600D01*
X27762961Y5689600D01*
X27884490Y5866643D01*
X27996607Y5855600D01*
X28292593Y5855600D01*
X28436125Y5869737D01*
X28620291Y5925603D01*
X28790018Y6016324D01*
X28938786Y6138414D01*
X29060876Y6287182D01*
X29151597Y6456909D01*
X29207463Y6641075D01*
X29226327Y6832600D01*
X29207463Y7024125D01*
X29151597Y7208291D01*
X29060876Y7378018D01*
X28987358Y7467600D01*
X29060876Y7557182D01*
X29151597Y7726909D01*
X29207463Y7911075D01*
X29226327Y8102600D01*
X29207463Y8294125D01*
X29151597Y8478291D01*
X29060876Y8648018D01*
X28938786Y8796786D01*
X28790018Y8918876D01*
X28620291Y9009597D01*
X28436125Y9065463D01*
X28292593Y9079600D01*
X27996607Y9079600D01*
X27884490Y9068557D01*
X27762961Y9245600D01*
X26771600Y9245600D01*
X26771600Y9225600D01*
X26517600Y9225600D01*
X26517600Y9245600D01*
X26497600Y9245600D01*
X26497600Y9499600D01*
X26517600Y9499600D01*
X26517600Y9519600D01*
X26771600Y9519600D01*
X26771600Y9499600D01*
X27762961Y9499600D01*
X27884490Y9676643D01*
X27996607Y9665600D01*
X28292593Y9665600D01*
X28436125Y9679737D01*
X28620291Y9735603D01*
X28790018Y9826324D01*
X28938786Y9948414D01*
X29060876Y10097182D01*
X29151597Y10266909D01*
X29207463Y10451075D01*
X29226327Y10642600D01*
X29207463Y10834125D01*
X29151597Y11018291D01*
X29060876Y11188018D01*
X28987358Y11277600D01*
X29060876Y11367182D01*
X29151597Y11536909D01*
X29207463Y11721075D01*
X29226327Y11912600D01*
X29207463Y12104125D01*
X29151597Y12288291D01*
X29060876Y12458018D01*
X28938786Y12606786D01*
X28790018Y12728876D01*
X28620291Y12819597D01*
X28436125Y12875463D01*
X28292593Y12889600D01*
X27996607Y12889600D01*
X27884490Y12878557D01*
X27762961Y13055600D01*
X26771600Y13055600D01*
X26771600Y13035600D01*
X26517600Y13035600D01*
X26517600Y13055600D01*
X25526239Y13055600D01*
X25400797Y12872856D01*
X25458460Y12711613D01*
X25571215Y12508767D01*
X25721377Y12331817D01*
X25903174Y12187562D01*
X25968873Y12153824D01*
X24979543Y11164494D01*
X24929196Y11191405D01*
X24848707Y11215822D01*
X24765000Y11224066D01*
X23368000Y11224066D01*
X23284293Y11215822D01*
X23203804Y11191405D01*
X23129624Y11151755D01*
X23064605Y11098395D01*
X23011245Y11033376D01*
X22971595Y10959196D01*
X22947178Y10878707D01*
X22938934Y10795000D01*
X22938934Y10109646D01*
X22505249Y9675961D01*
X22435196Y9713405D01*
X22354707Y9737822D01*
X22271000Y9746066D01*
X20721000Y9746066D01*
X20637293Y9737822D01*
X20556804Y9713405D01*
X20489000Y9677163D01*
X20489000Y9921434D01*
X20764500Y9921434D01*
X20848207Y9929678D01*
X20928696Y9954095D01*
X21002876Y9993745D01*
X21067895Y10047105D01*
X21121255Y10112124D01*
X21160905Y10186304D01*
X21185322Y10266793D01*
X21193566Y10350500D01*
X21193566Y11239500D01*
X21185322Y11323207D01*
X21160905Y11403696D01*
X21121255Y11477876D01*
X21067895Y11542895D01*
X21002876Y11596255D01*
X20928696Y11635905D01*
X20848207Y11660322D01*
X20764500Y11668566D01*
X19367500Y11668566D01*
X19283793Y11660322D01*
X19203304Y11635905D01*
X19129124Y11596255D01*
X19064105Y11542895D01*
X19010745Y11477876D01*
X18971095Y11403696D01*
X18946678Y11323207D01*
X18938434Y11239500D01*
X18938434Y10350500D01*
X18946678Y10266793D01*
X18971095Y10186304D01*
X19010745Y10112124D01*
X19064105Y10047105D01*
X19129124Y9993745D01*
X19135000Y9990604D01*
X19135000Y9817249D01*
X19135001Y9817240D01*
X19135000Y9198422D01*
X18457000Y8520422D01*
X18457000Y9921434D01*
X18478500Y9921434D01*
X18562207Y9929678D01*
X18642696Y9954095D01*
X18716876Y9993745D01*
X18781895Y10047105D01*
X18835255Y10112124D01*
X18874905Y10186304D01*
X18899322Y10266793D01*
X18907566Y10350500D01*
X18907566Y11239500D01*
X18899322Y11323207D01*
X18874905Y11403696D01*
X18835255Y11477876D01*
X18781895Y11542895D01*
X18716876Y11596255D01*
X18642696Y11635905D01*
X18562207Y11660322D01*
X18478500Y11668566D01*
X17081500Y11668566D01*
X16997793Y11660322D01*
X16917304Y11635905D01*
X16843124Y11596255D01*
X16778105Y11542895D01*
X16724745Y11477876D01*
X16685095Y11403696D01*
X16660678Y11323207D01*
X16652434Y11239500D01*
X16652434Y10350500D01*
X16660678Y10266793D01*
X16685095Y10186304D01*
X16724745Y10112124D01*
X16778105Y10047105D01*
X16843124Y9993745D01*
X16917304Y9954095D01*
X16997793Y9929678D01*
X17081500Y9921434D01*
X17103000Y9921434D01*
X17103000Y9817249D01*
X17103001Y9817239D01*
X17103000Y8436422D01*
X17090578Y8424000D01*
X17071500Y8424000D01*
X17035196Y8443405D01*
X16954707Y8467822D01*
X16871000Y8476066D01*
X15321000Y8476066D01*
X15237293Y8467822D01*
X15156804Y8443405D01*
X15082624Y8403755D01*
X15017605Y8350395D01*
X14964245Y8285376D01*
X14924595Y8211196D01*
X14900178Y8130707D01*
X14891934Y8047000D01*
X14891934Y7447000D01*
X14900178Y7363293D01*
X14924595Y7282804D01*
X14964245Y7208624D01*
X15017605Y7143605D01*
X15056116Y7112000D01*
X15017605Y7080395D01*
X14964245Y7015376D01*
X14924595Y6941196D01*
X14900178Y6860707D01*
X14891934Y6777000D01*
X14891934Y6177000D01*
X14900178Y6093293D01*
X14924595Y6012804D01*
X14964245Y5938624D01*
X15009074Y5884000D01*
X14653066Y5884000D01*
X14653066Y6350000D01*
X14644822Y6433707D01*
X14620405Y6514196D01*
X14580755Y6588376D01*
X14527395Y6653395D01*
X14462376Y6706755D01*
X14388196Y6746405D01*
X14378609Y6749313D01*
X14409223Y6755403D01*
X14524785Y6803270D01*
X14628789Y6872763D01*
X14717237Y6961211D01*
X14786730Y7065215D01*
X14834597Y7180777D01*
X14859000Y7303458D01*
X14859000Y7842250D01*
X14700250Y8001000D01*
X13589000Y8001000D01*
X13589000Y7981000D01*
X13335000Y7981000D01*
X13335000Y8001000D01*
X12223750Y8001000D01*
X12192000Y7969250D01*
X12160250Y8001000D01*
X11049000Y8001000D01*
X11049000Y7981000D01*
X10795000Y7981000D01*
X10795000Y8001000D01*
X10775000Y8001000D01*
X10775000Y8255000D01*
X10795000Y8255000D01*
X10795000Y9366250D01*
X11049000Y9366250D01*
X11049000Y8255000D01*
X12160250Y8255000D01*
X12192000Y8286750D01*
X12223750Y8255000D01*
X13335000Y8255000D01*
X13335000Y9366250D01*
X13589000Y9366250D01*
X13589000Y8255000D01*
X14700250Y8255000D01*
X14859000Y8413750D01*
X14859000Y8952542D01*
X14834597Y9075223D01*
X14786730Y9190785D01*
X14717237Y9294789D01*
X14628789Y9383237D01*
X14524785Y9452730D01*
X14409223Y9500597D01*
X14286542Y9525000D01*
X13747750Y9525000D01*
X13589000Y9366250D01*
X13335000Y9366250D01*
X13176250Y9525000D01*
X12637458Y9525000D01*
X12514777Y9500597D01*
X12399215Y9452730D01*
X12295211Y9383237D01*
X12206763Y9294789D01*
X12192000Y9272695D01*
X12177237Y9294789D01*
X12088789Y9383237D01*
X11984785Y9452730D01*
X11869223Y9500597D01*
X11746542Y9525000D01*
X11207750Y9525000D01*
X11049000Y9366250D01*
X10795000Y9366250D01*
X10636250Y9525000D01*
X10633083Y9525000D01*
X10635000Y9544463D01*
X10635000Y9544475D01*
X10639484Y9590000D01*
X10635000Y9635525D01*
X10635000Y10508943D01*
X10661395Y10530605D01*
X10714755Y10595624D01*
X10754405Y10669804D01*
X10778822Y10750293D01*
X10787066Y10834000D01*
X10787066Y12534000D01*
X10778822Y12617707D01*
X10754405Y12698196D01*
X10714755Y12772376D01*
X10661395Y12837395D01*
X10596376Y12890755D01*
X10522196Y12930405D01*
X10441707Y12954822D01*
X10358000Y12963066D01*
X9058000Y12963066D01*
X8974293Y12954822D01*
X8893804Y12930405D01*
X8819624Y12890755D01*
X8754605Y12837395D01*
X8701245Y12772376D01*
X8661595Y12698196D01*
X8637178Y12617707D01*
X8628934Y12534000D01*
X8628934Y11700000D01*
X756000Y11700000D01*
X756000Y15208250D01*
X13335000Y15208250D01*
X13335000Y14669458D01*
X13359403Y14546777D01*
X13407270Y14431215D01*
X13476763Y14327211D01*
X13565211Y14238763D01*
X13669215Y14169270D01*
X13784777Y14121403D01*
X13907458Y14097000D01*
X14446250Y14097000D01*
X14605000Y14255750D01*
X14605000Y15367000D01*
X13493750Y15367000D01*
X13335000Y15208250D01*
X756000Y15208250D01*
X756000Y17748250D01*
X13335000Y17748250D01*
X13335000Y17209458D01*
X13359403Y17086777D01*
X13407270Y16971215D01*
X13476763Y16867211D01*
X13565211Y16778763D01*
X13587305Y16764000D01*
X13565211Y16749237D01*
X13476763Y16660789D01*
X13407270Y16556785D01*
X13359403Y16441223D01*
X13335000Y16318542D01*
X13335000Y15779750D01*
X13493750Y15621000D01*
X14605000Y15621000D01*
X14605000Y16732250D01*
X14573250Y16764000D01*
X14605000Y16795750D01*
X14605000Y17907000D01*
X13493750Y17907000D01*
X13335000Y17748250D01*
X756000Y17748250D01*
X756000Y18858542D01*
X13335000Y18858542D01*
X13335000Y18319750D01*
X13493750Y18161000D01*
X14605000Y18161000D01*
X14605000Y19272250D01*
X14859000Y19272250D01*
X14859000Y18161000D01*
X14879000Y18161000D01*
X14879000Y17907000D01*
X14859000Y17907000D01*
X14859000Y16795750D01*
X14890750Y16764000D01*
X14859000Y16732250D01*
X14859000Y15621000D01*
X14879000Y15621000D01*
X14879000Y15367000D01*
X14859000Y15367000D01*
X14859000Y14255750D01*
X15017750Y14097000D01*
X15556542Y14097000D01*
X15679223Y14121403D01*
X15794785Y14169270D01*
X15898789Y14238763D01*
X15987237Y14327211D01*
X16056730Y14431215D01*
X16104597Y14546777D01*
X16110687Y14577391D01*
X16113595Y14567804D01*
X16153245Y14493624D01*
X16206605Y14428605D01*
X16271624Y14375245D01*
X16345804Y14335595D01*
X16426293Y14311178D01*
X16510000Y14302934D01*
X16595001Y14302934D01*
X16595001Y13241254D01*
X16591726Y13208000D01*
X16604796Y13075286D01*
X16643508Y12947671D01*
X16652434Y12930972D01*
X16652434Y12255500D01*
X16660678Y12171793D01*
X16685095Y12091304D01*
X16724745Y12017124D01*
X16778105Y11952105D01*
X16843124Y11898745D01*
X16917304Y11859095D01*
X16997793Y11834678D01*
X17081500Y11826434D01*
X18478500Y11826434D01*
X18562207Y11834678D01*
X18642696Y11859095D01*
X18716876Y11898745D01*
X18781895Y11952105D01*
X18835255Y12017124D01*
X18874905Y12091304D01*
X18899322Y12171793D01*
X18907566Y12255500D01*
X18907566Y13144500D01*
X18899322Y13228207D01*
X18874905Y13308696D01*
X18835255Y13382876D01*
X18781895Y13447895D01*
X18716876Y13501255D01*
X18642696Y13540905D01*
X18562207Y13565322D01*
X18478500Y13573566D01*
X17949000Y13573566D01*
X17949000Y14302934D01*
X18034000Y14302934D01*
X18117707Y14311178D01*
X18198196Y14335595D01*
X18272376Y14375245D01*
X18337395Y14428605D01*
X18390755Y14493624D01*
X18430405Y14567804D01*
X18454822Y14648293D01*
X18463066Y14732000D01*
X18463066Y16256000D01*
X18454822Y16339707D01*
X18430405Y16420196D01*
X18390755Y16494376D01*
X18337395Y16559395D01*
X18272376Y16612755D01*
X18198196Y16652405D01*
X18117707Y16676822D01*
X18034000Y16685066D01*
X17849000Y16685066D01*
X17849000Y16842934D01*
X18034000Y16842934D01*
X18117707Y16851178D01*
X18198196Y16875595D01*
X18272376Y16915245D01*
X18337395Y16968605D01*
X18390755Y17033624D01*
X18430405Y17107804D01*
X18454822Y17188293D01*
X18463066Y17272000D01*
X18463066Y18796000D01*
X18620934Y18796000D01*
X18620934Y17272000D01*
X18629178Y17188293D01*
X18653595Y17107804D01*
X18693245Y17033624D01*
X18746605Y16968605D01*
X18811624Y16915245D01*
X18885804Y16875595D01*
X18966293Y16851178D01*
X19050000Y16842934D01*
X19235000Y16842934D01*
X19235001Y16685066D01*
X19050000Y16685066D01*
X18966293Y16676822D01*
X18885804Y16652405D01*
X18811624Y16612755D01*
X18746605Y16559395D01*
X18693245Y16494376D01*
X18653595Y16420196D01*
X18629178Y16339707D01*
X18620934Y16256000D01*
X18620934Y14732000D01*
X18629178Y14648293D01*
X18653595Y14567804D01*
X18693245Y14493624D01*
X18746605Y14428605D01*
X18811624Y14375245D01*
X18885804Y14335595D01*
X18966293Y14311178D01*
X19050000Y14302934D01*
X19135000Y14302934D01*
X19135001Y13504396D01*
X19129124Y13501255D01*
X19064105Y13447895D01*
X19010745Y13382876D01*
X18971095Y13308696D01*
X18946678Y13228207D01*
X18938434Y13144500D01*
X18938434Y12255500D01*
X18946678Y12171793D01*
X18971095Y12091304D01*
X19010745Y12017124D01*
X19064105Y11952105D01*
X19129124Y11898745D01*
X19203304Y11859095D01*
X19283793Y11834678D01*
X19367500Y11826434D01*
X20764500Y11826434D01*
X20848207Y11834678D01*
X20928696Y11859095D01*
X21002876Y11898745D01*
X21067895Y11952105D01*
X21121255Y12017124D01*
X21160905Y12091304D01*
X21185322Y12171793D01*
X21193566Y12255500D01*
X21193566Y13144500D01*
X21185322Y13228207D01*
X21160905Y13308696D01*
X21121255Y13382876D01*
X21067895Y13447895D01*
X21013735Y13492344D01*
X25400797Y13492344D01*
X25526239Y13309600D01*
X26517600Y13309600D01*
X26517600Y14207404D01*
X26771600Y14207404D01*
X26771600Y13309600D01*
X27762961Y13309600D01*
X27888403Y13492344D01*
X27830740Y13653587D01*
X27717985Y13856433D01*
X27567823Y14033383D01*
X27386026Y14177638D01*
X27179579Y14283655D01*
X26956416Y14347359D01*
X26771600Y14207404D01*
X26517600Y14207404D01*
X26332784Y14347359D01*
X26109621Y14283655D01*
X25903174Y14177638D01*
X25721377Y14033383D01*
X25571215Y13856433D01*
X25458460Y13653587D01*
X25400797Y13492344D01*
X21013735Y13492344D01*
X21002876Y13501255D01*
X20928696Y13540905D01*
X20848207Y13565322D01*
X20764500Y13573566D01*
X20489000Y13573566D01*
X20489000Y14302934D01*
X20574000Y14302934D01*
X20657707Y14311178D01*
X20738196Y14335595D01*
X20812376Y14375245D01*
X20877395Y14428605D01*
X20930755Y14493624D01*
X20970405Y14567804D01*
X20973313Y14577391D01*
X20979403Y14546777D01*
X21027270Y14431215D01*
X21096763Y14327211D01*
X21185211Y14238763D01*
X21289215Y14169270D01*
X21404777Y14121403D01*
X21527458Y14097000D01*
X22066250Y14097000D01*
X22225000Y14255750D01*
X22225000Y15367000D01*
X22479000Y15367000D01*
X22479000Y14255750D01*
X22637750Y14097000D01*
X23176542Y14097000D01*
X23299223Y14121403D01*
X23414785Y14169270D01*
X23518789Y14238763D01*
X23607237Y14327211D01*
X23676730Y14431215D01*
X23724597Y14546777D01*
X23749000Y14669458D01*
X23749000Y15208250D01*
X23590250Y15367000D01*
X22479000Y15367000D01*
X22225000Y15367000D01*
X22205000Y15367000D01*
X22205000Y15621000D01*
X22225000Y15621000D01*
X22225000Y16732250D01*
X22193250Y16764000D01*
X22225000Y16795750D01*
X22225000Y17907000D01*
X22479000Y17907000D01*
X22479000Y16795750D01*
X22510750Y16764000D01*
X22479000Y16732250D01*
X22479000Y15621000D01*
X23590250Y15621000D01*
X23749000Y15779750D01*
X23749000Y16097770D01*
X27467600Y16097770D01*
X27467600Y15767430D01*
X27532046Y15443437D01*
X27658462Y15138243D01*
X27841989Y14863575D01*
X28075575Y14629989D01*
X28350243Y14446462D01*
X28655437Y14320046D01*
X28979430Y14255600D01*
X29309770Y14255600D01*
X29633763Y14320046D01*
X29938957Y14446462D01*
X30213625Y14629989D01*
X30447211Y14863575D01*
X30630738Y15138243D01*
X30757154Y15443437D01*
X30821600Y15767430D01*
X30821600Y16097770D01*
X30757154Y16421763D01*
X30630738Y16726957D01*
X30447211Y17001625D01*
X30213625Y17235211D01*
X29938957Y17418738D01*
X29633763Y17545154D01*
X29309770Y17609600D01*
X28979430Y17609600D01*
X28655437Y17545154D01*
X28350243Y17418738D01*
X28075575Y17235211D01*
X27841989Y17001625D01*
X27658462Y16726957D01*
X27532046Y16421763D01*
X27467600Y16097770D01*
X23749000Y16097770D01*
X23749000Y16318542D01*
X23724597Y16441223D01*
X23676730Y16556785D01*
X23607237Y16660789D01*
X23518789Y16749237D01*
X23496695Y16764000D01*
X23518789Y16778763D01*
X23607237Y16867211D01*
X23676730Y16971215D01*
X23724597Y17086777D01*
X23749000Y17209458D01*
X23749000Y17748250D01*
X23590250Y17907000D01*
X22479000Y17907000D01*
X22225000Y17907000D01*
X22205000Y17907000D01*
X22205000Y18161000D01*
X22225000Y18161000D01*
X22225000Y19272250D01*
X22479000Y19272250D01*
X22479000Y18161000D01*
X23590250Y18161000D01*
X23749000Y18319750D01*
X23749000Y18858542D01*
X23724597Y18981223D01*
X23676730Y19096785D01*
X23607237Y19200789D01*
X23518789Y19289237D01*
X23414785Y19358730D01*
X23299223Y19406597D01*
X23176542Y19431000D01*
X22637750Y19431000D01*
X22479000Y19272250D01*
X22225000Y19272250D01*
X22066250Y19431000D01*
X21527458Y19431000D01*
X21404777Y19406597D01*
X21289215Y19358730D01*
X21185211Y19289237D01*
X21096763Y19200789D01*
X21027270Y19096785D01*
X20979403Y18981223D01*
X20973313Y18950609D01*
X20970405Y18960196D01*
X20930755Y19034376D01*
X20877395Y19099395D01*
X20812376Y19152755D01*
X20738196Y19192405D01*
X20657707Y19216822D01*
X20574000Y19225066D01*
X19050000Y19225066D01*
X18966293Y19216822D01*
X18885804Y19192405D01*
X18811624Y19152755D01*
X18746605Y19099395D01*
X18693245Y19034376D01*
X18653595Y18960196D01*
X18629178Y18879707D01*
X18620934Y18796000D01*
X18463066Y18796000D01*
X18454822Y18879707D01*
X18430405Y18960196D01*
X18390755Y19034376D01*
X18337395Y19099395D01*
X18272376Y19152755D01*
X18198196Y19192405D01*
X18117707Y19216822D01*
X18034000Y19225066D01*
X16510000Y19225066D01*
X16426293Y19216822D01*
X16345804Y19192405D01*
X16271624Y19152755D01*
X16206605Y19099395D01*
X16153245Y19034376D01*
X16113595Y18960196D01*
X16110687Y18950609D01*
X16104597Y18981223D01*
X16056730Y19096785D01*
X15987237Y19200789D01*
X15898789Y19289237D01*
X15794785Y19358730D01*
X15679223Y19406597D01*
X15556542Y19431000D01*
X15017750Y19431000D01*
X14859000Y19272250D01*
X14605000Y19272250D01*
X14446250Y19431000D01*
X13907458Y19431000D01*
X13784777Y19406597D01*
X13669215Y19358730D01*
X13565211Y19289237D01*
X13476763Y19200789D01*
X13407270Y19096785D01*
X13359403Y18981223D01*
X13335000Y18858542D01*
X756000Y18858542D01*
X756000Y19564000D01*
X39884001Y19564000D01*
X39884000Y756000D01*
X39884000Y756000D01*
G37*
X39884000Y756000D02*
X756000Y756000D01*
X756000Y2762250D01*
X9525000Y2762250D01*
X9525000Y2223458D01*
X9549403Y2100777D01*
X9597270Y1985215D01*
X9666763Y1881211D01*
X9755211Y1792763D01*
X9859215Y1723270D01*
X9974777Y1675403D01*
X10097458Y1651000D01*
X10636250Y1651000D01*
X10795000Y1809750D01*
X10795000Y2921000D01*
X11049000Y2921000D01*
X11049000Y1809750D01*
X11207750Y1651000D01*
X11746542Y1651000D01*
X11869223Y1675403D01*
X11984785Y1723270D01*
X12088789Y1792763D01*
X12177237Y1881211D01*
X12192000Y1903305D01*
X12206763Y1881211D01*
X12295211Y1792763D01*
X12399215Y1723270D01*
X12514777Y1675403D01*
X12637458Y1651000D01*
X13176250Y1651000D01*
X13335000Y1809750D01*
X13335000Y2921000D01*
X13589000Y2921000D01*
X13589000Y1809750D01*
X13747750Y1651000D01*
X14286542Y1651000D01*
X14409223Y1675403D01*
X14524785Y1723270D01*
X14628789Y1792763D01*
X14717237Y1881211D01*
X14786730Y1985215D01*
X14834597Y2100777D01*
X14859000Y2223458D01*
X14859000Y2762250D01*
X14700250Y2921000D01*
X13589000Y2921000D01*
X13335000Y2921000D01*
X12223750Y2921000D01*
X12192000Y2889250D01*
X12160250Y2921000D01*
X11049000Y2921000D01*
X10795000Y2921000D01*
X9683750Y2921000D01*
X9525000Y2762250D01*
X756000Y2762250D01*
X756000Y8696000D01*
X8532999Y8696000D01*
X8533000Y6333538D01*
X8528515Y6288001D01*
X8533000Y6242464D01*
X8533000Y6242463D01*
X8546413Y6106277D01*
X8548603Y6099059D01*
X8599419Y5931538D01*
X8685498Y5770496D01*
X8772311Y5664714D01*
X8772316Y5664709D01*
X8801341Y5629342D01*
X8836707Y5600318D01*
X9472316Y4964708D01*
X9501341Y4929341D01*
X9536708Y4900316D01*
X9536712Y4900312D01*
X9642494Y4813499D01*
X9737148Y4762905D01*
X9739178Y4742293D01*
X9763595Y4661804D01*
X9803245Y4587624D01*
X9856605Y4522605D01*
X9921624Y4469245D01*
X9995804Y4429595D01*
X10005391Y4426687D01*
X9974777Y4420597D01*
X9859215Y4372730D01*
X9755211Y4303237D01*
X9666763Y4214789D01*
X9597270Y4110785D01*
X9549403Y3995223D01*
X9525000Y3872542D01*
X9525000Y3333750D01*
X9683750Y3175000D01*
X10795000Y3175000D01*
X10795000Y3195000D01*
X11049000Y3195000D01*
X11049000Y3175000D01*
X12160250Y3175000D01*
X12192000Y3206750D01*
X12223750Y3175000D01*
X13335000Y3175000D01*
X13335000Y3195000D01*
X13589000Y3195000D01*
X13589000Y3175000D01*
X14700250Y3175000D01*
X14859000Y3333750D01*
X14859000Y3872542D01*
X14834597Y3995223D01*
X14786730Y4110785D01*
X14717237Y4214789D01*
X14628789Y4303237D01*
X14524785Y4372730D01*
X14409223Y4420597D01*
X14378609Y4426687D01*
X14388196Y4429595D01*
X14462376Y4469245D01*
X14527395Y4522605D01*
X14533464Y4530000D01*
X15120500Y4530000D01*
X15156804Y4510595D01*
X15237293Y4486178D01*
X15321000Y4477934D01*
X15419001Y4477934D01*
X15419001Y4130254D01*
X15415726Y4097000D01*
X15428796Y3964286D01*
X15467508Y3836671D01*
X15530372Y3719060D01*
X15593776Y3641802D01*
X15593779Y3641799D01*
X15614974Y3615973D01*
X15636434Y3598361D01*
X15636434Y2984500D01*
X15644678Y2900793D01*
X15669095Y2820304D01*
X15708745Y2746124D01*
X15762105Y2681105D01*
X15827124Y2627745D01*
X15901304Y2588095D01*
X15981793Y2563678D01*
X16065500Y2555434D01*
X17462500Y2555434D01*
X17546207Y2563678D01*
X17626696Y2588095D01*
X17700876Y2627745D01*
X17765895Y2681105D01*
X17819255Y2746124D01*
X17858905Y2820304D01*
X17883322Y2900793D01*
X17891566Y2984500D01*
X17891566Y3267770D01*
X26467600Y3267770D01*
X26467600Y2937430D01*
X26532046Y2613437D01*
X26658462Y2308243D01*
X26841989Y2033575D01*
X27075575Y1799989D01*
X27350243Y1616462D01*
X27655437Y1490046D01*
X27979430Y1425600D01*
X28309770Y1425600D01*
X28633763Y1490046D01*
X28938957Y1616462D01*
X29213625Y1799989D01*
X29447211Y2033575D01*
X29630738Y2308243D01*
X29757154Y2613437D01*
X29821600Y2937430D01*
X29821600Y3267770D01*
X29757154Y3591763D01*
X29630738Y3896957D01*
X29447211Y4171625D01*
X29213625Y4405211D01*
X28938957Y4588738D01*
X28633763Y4715154D01*
X28309770Y4779600D01*
X27979430Y4779600D01*
X27655437Y4715154D01*
X27480937Y4642873D01*
X27567823Y4711817D01*
X27717985Y4888767D01*
X27830740Y5091613D01*
X27888403Y5252856D01*
X27762961Y5435600D01*
X26771600Y5435600D01*
X26771600Y4537796D01*
X26956416Y4397841D01*
X27145196Y4451730D01*
X27075575Y4405211D01*
X26841989Y4171625D01*
X26658462Y3896957D01*
X26532046Y3591763D01*
X26467600Y3267770D01*
X17891566Y3267770D01*
X17891566Y3873500D01*
X17883322Y3957207D01*
X17858905Y4037696D01*
X17819255Y4111876D01*
X17765895Y4176895D01*
X17700876Y4230255D01*
X17626696Y4269905D01*
X17546207Y4294322D01*
X17462500Y4302566D01*
X16847856Y4302566D01*
X16773000Y4377422D01*
X16773000Y4477934D01*
X16871000Y4477934D01*
X16954707Y4486178D01*
X17035196Y4510595D01*
X17109376Y4550245D01*
X17174395Y4603605D01*
X17227755Y4668624D01*
X17267405Y4742804D01*
X17291822Y4823293D01*
X17300066Y4907000D01*
X17300066Y5507000D01*
X17291822Y5590707D01*
X17267405Y5671196D01*
X17227755Y5745376D01*
X17182926Y5800000D01*
X17337755Y5800000D01*
X17371000Y5796726D01*
X17404245Y5800000D01*
X17404252Y5800000D01*
X17503715Y5809796D01*
X17631330Y5848508D01*
X17748941Y5911372D01*
X17852027Y5995973D01*
X17873226Y6021804D01*
X20267200Y8415778D01*
X20293026Y8436973D01*
X20349637Y8505953D01*
X20364245Y8478624D01*
X20417605Y8413605D01*
X20456116Y8382000D01*
X20417605Y8350395D01*
X20364245Y8285376D01*
X20324595Y8211196D01*
X20300178Y8130707D01*
X20291934Y8047000D01*
X20291934Y7447000D01*
X20300178Y7363293D01*
X20324595Y7282804D01*
X20364245Y7208624D01*
X20417605Y7143605D01*
X20456116Y7112000D01*
X20417605Y7080395D01*
X20364245Y7015376D01*
X20324595Y6941196D01*
X20300178Y6860707D01*
X20291934Y6777000D01*
X20291934Y6177000D01*
X20300178Y6093293D01*
X20324595Y6012804D01*
X20364245Y5938624D01*
X20417605Y5873605D01*
X20456116Y5842000D01*
X20417605Y5810395D01*
X20364245Y5745376D01*
X20324595Y5671196D01*
X20300178Y5590707D01*
X20291934Y5507000D01*
X20291934Y4907000D01*
X20300178Y4823293D01*
X20324595Y4742804D01*
X20364245Y4668624D01*
X20417605Y4603605D01*
X20482624Y4550245D01*
X20556804Y4510595D01*
X20637293Y4486178D01*
X20721000Y4477934D01*
X22271000Y4477934D01*
X22354707Y4486178D01*
X22435196Y4510595D01*
X22484558Y4536979D01*
X22553615Y4467922D01*
X22573248Y4443999D01*
X22668721Y4365647D01*
X22777646Y4307425D01*
X22895836Y4271573D01*
X22981013Y4263184D01*
X23011245Y4206624D01*
X23064605Y4141605D01*
X23129624Y4088245D01*
X23203804Y4048595D01*
X23284293Y4024178D01*
X23368000Y4015934D01*
X24765000Y4015934D01*
X24848707Y4024178D01*
X24929196Y4048595D01*
X25003376Y4088245D01*
X25068395Y4141605D01*
X25121755Y4206624D01*
X25161405Y4280804D01*
X25185822Y4361293D01*
X25194066Y4445000D01*
X25194066Y5130355D01*
X25499310Y5435598D01*
X25526238Y5435598D01*
X25400797Y5252856D01*
X25458460Y5091613D01*
X25571215Y4888767D01*
X25721377Y4711817D01*
X25903174Y4567562D01*
X26109621Y4461545D01*
X26332784Y4397841D01*
X26517600Y4537796D01*
X26517600Y5435600D01*
X26497600Y5435600D01*
X26497600Y5689600D01*
X26517600Y5689600D01*
X26517600Y5709600D01*
X26771600Y5709600D01*
X26771600Y5689600D01*
X27762961Y5689600D01*
X27884490Y5866643D01*
X27996607Y5855600D01*
X28292593Y5855600D01*
X28436125Y5869737D01*
X28620291Y5925603D01*
X28790018Y6016324D01*
X28938786Y6138414D01*
X29060876Y6287182D01*
X29151597Y6456909D01*
X29207463Y6641075D01*
X29226327Y6832600D01*
X29207463Y7024125D01*
X29151597Y7208291D01*
X29060876Y7378018D01*
X28987358Y7467600D01*
X29060876Y7557182D01*
X29151597Y7726909D01*
X29207463Y7911075D01*
X29226327Y8102600D01*
X29207463Y8294125D01*
X29151597Y8478291D01*
X29060876Y8648018D01*
X28938786Y8796786D01*
X28790018Y8918876D01*
X28620291Y9009597D01*
X28436125Y9065463D01*
X28292593Y9079600D01*
X27996607Y9079600D01*
X27884490Y9068557D01*
X27762961Y9245600D01*
X26771600Y9245600D01*
X26771600Y9225600D01*
X26517600Y9225600D01*
X26517600Y9245600D01*
X26497600Y9245600D01*
X26497600Y9499600D01*
X26517600Y9499600D01*
X26517600Y9519600D01*
X26771600Y9519600D01*
X26771600Y9499600D01*
X27762961Y9499600D01*
X27884490Y9676643D01*
X27996607Y9665600D01*
X28292593Y9665600D01*
X28436125Y9679737D01*
X28620291Y9735603D01*
X28790018Y9826324D01*
X28938786Y9948414D01*
X29060876Y10097182D01*
X29151597Y10266909D01*
X29207463Y10451075D01*
X29226327Y10642600D01*
X29207463Y10834125D01*
X29151597Y11018291D01*
X29060876Y11188018D01*
X28987358Y11277600D01*
X29060876Y11367182D01*
X29151597Y11536909D01*
X29207463Y11721075D01*
X29226327Y11912600D01*
X29207463Y12104125D01*
X29151597Y12288291D01*
X29060876Y12458018D01*
X28938786Y12606786D01*
X28790018Y12728876D01*
X28620291Y12819597D01*
X28436125Y12875463D01*
X28292593Y12889600D01*
X27996607Y12889600D01*
X27884490Y12878557D01*
X27762961Y13055600D01*
X26771600Y13055600D01*
X26771600Y13035600D01*
X26517600Y13035600D01*
X26517600Y13055600D01*
X25526239Y13055600D01*
X25400797Y12872856D01*
X25458460Y12711613D01*
X25571215Y12508767D01*
X25721377Y12331817D01*
X25903174Y12187562D01*
X25968873Y12153824D01*
X24979543Y11164494D01*
X24929196Y11191405D01*
X24848707Y11215822D01*
X24765000Y11224066D01*
X23368000Y11224066D01*
X23284293Y11215822D01*
X23203804Y11191405D01*
X23129624Y11151755D01*
X23064605Y11098395D01*
X23011245Y11033376D01*
X22971595Y10959196D01*
X22947178Y10878707D01*
X22938934Y10795000D01*
X22938934Y10109646D01*
X22505249Y9675961D01*
X22435196Y9713405D01*
X22354707Y9737822D01*
X22271000Y9746066D01*
X20721000Y9746066D01*
X20637293Y9737822D01*
X20556804Y9713405D01*
X20489000Y9677163D01*
X20489000Y9921434D01*
X20764500Y9921434D01*
X20848207Y9929678D01*
X20928696Y9954095D01*
X21002876Y9993745D01*
X21067895Y10047105D01*
X21121255Y10112124D01*
X21160905Y10186304D01*
X21185322Y10266793D01*
X21193566Y10350500D01*
X21193566Y11239500D01*
X21185322Y11323207D01*
X21160905Y11403696D01*
X21121255Y11477876D01*
X21067895Y11542895D01*
X21002876Y11596255D01*
X20928696Y11635905D01*
X20848207Y11660322D01*
X20764500Y11668566D01*
X19367500Y11668566D01*
X19283793Y11660322D01*
X19203304Y11635905D01*
X19129124Y11596255D01*
X19064105Y11542895D01*
X19010745Y11477876D01*
X18971095Y11403696D01*
X18946678Y11323207D01*
X18938434Y11239500D01*
X18938434Y10350500D01*
X18946678Y10266793D01*
X18971095Y10186304D01*
X19010745Y10112124D01*
X19064105Y10047105D01*
X19129124Y9993745D01*
X19135000Y9990604D01*
X19135000Y9817249D01*
X19135001Y9817240D01*
X19135000Y9198422D01*
X18457000Y8520422D01*
X18457000Y9921434D01*
X18478500Y9921434D01*
X18562207Y9929678D01*
X18642696Y9954095D01*
X18716876Y9993745D01*
X18781895Y10047105D01*
X18835255Y10112124D01*
X18874905Y10186304D01*
X18899322Y10266793D01*
X18907566Y10350500D01*
X18907566Y11239500D01*
X18899322Y11323207D01*
X18874905Y11403696D01*
X18835255Y11477876D01*
X18781895Y11542895D01*
X18716876Y11596255D01*
X18642696Y11635905D01*
X18562207Y11660322D01*
X18478500Y11668566D01*
X17081500Y11668566D01*
X16997793Y11660322D01*
X16917304Y11635905D01*
X16843124Y11596255D01*
X16778105Y11542895D01*
X16724745Y11477876D01*
X16685095Y11403696D01*
X16660678Y11323207D01*
X16652434Y11239500D01*
X16652434Y10350500D01*
X16660678Y10266793D01*
X16685095Y10186304D01*
X16724745Y10112124D01*
X16778105Y10047105D01*
X16843124Y9993745D01*
X16917304Y9954095D01*
X16997793Y9929678D01*
X17081500Y9921434D01*
X17103000Y9921434D01*
X17103000Y9817249D01*
X17103001Y9817239D01*
X17103000Y8436422D01*
X17090578Y8424000D01*
X17071500Y8424000D01*
X17035196Y8443405D01*
X16954707Y8467822D01*
X16871000Y8476066D01*
X15321000Y8476066D01*
X15237293Y8467822D01*
X15156804Y8443405D01*
X15082624Y8403755D01*
X15017605Y8350395D01*
X14964245Y8285376D01*
X14924595Y8211196D01*
X14900178Y8130707D01*
X14891934Y8047000D01*
X14891934Y7447000D01*
X14900178Y7363293D01*
X14924595Y7282804D01*
X14964245Y7208624D01*
X15017605Y7143605D01*
X15056116Y7112000D01*
X15017605Y7080395D01*
X14964245Y7015376D01*
X14924595Y6941196D01*
X14900178Y6860707D01*
X14891934Y6777000D01*
X14891934Y6177000D01*
X14900178Y6093293D01*
X14924595Y6012804D01*
X14964245Y5938624D01*
X15009074Y5884000D01*
X14653066Y5884000D01*
X14653066Y6350000D01*
X14644822Y6433707D01*
X14620405Y6514196D01*
X14580755Y6588376D01*
X14527395Y6653395D01*
X14462376Y6706755D01*
X14388196Y6746405D01*
X14378609Y6749313D01*
X14409223Y6755403D01*
X14524785Y6803270D01*
X14628789Y6872763D01*
X14717237Y6961211D01*
X14786730Y7065215D01*
X14834597Y7180777D01*
X14859000Y7303458D01*
X14859000Y7842250D01*
X14700250Y8001000D01*
X13589000Y8001000D01*
X13589000Y7981000D01*
X13335000Y7981000D01*
X13335000Y8001000D01*
X12223750Y8001000D01*
X12192000Y7969250D01*
X12160250Y8001000D01*
X11049000Y8001000D01*
X11049000Y7981000D01*
X10795000Y7981000D01*
X10795000Y8001000D01*
X10775000Y8001000D01*
X10775000Y8255000D01*
X10795000Y8255000D01*
X10795000Y9366250D01*
X11049000Y9366250D01*
X11049000Y8255000D01*
X12160250Y8255000D01*
X12192000Y8286750D01*
X12223750Y8255000D01*
X13335000Y8255000D01*
X13335000Y9366250D01*
X13589000Y9366250D01*
X13589000Y8255000D01*
X14700250Y8255000D01*
X14859000Y8413750D01*
X14859000Y8952542D01*
X14834597Y9075223D01*
X14786730Y9190785D01*
X14717237Y9294789D01*
X14628789Y9383237D01*
X14524785Y9452730D01*
X14409223Y9500597D01*
X14286542Y9525000D01*
X13747750Y9525000D01*
X13589000Y9366250D01*
X13335000Y9366250D01*
X13176250Y9525000D01*
X12637458Y9525000D01*
X12514777Y9500597D01*
X12399215Y9452730D01*
X12295211Y9383237D01*
X12206763Y9294789D01*
X12192000Y9272695D01*
X12177237Y9294789D01*
X12088789Y9383237D01*
X11984785Y9452730D01*
X11869223Y9500597D01*
X11746542Y9525000D01*
X11207750Y9525000D01*
X11049000Y9366250D01*
X10795000Y9366250D01*
X10636250Y9525000D01*
X10633083Y9525000D01*
X10635000Y9544463D01*
X10635000Y9544475D01*
X10639484Y9590000D01*
X10635000Y9635525D01*
X10635000Y10508943D01*
X10661395Y10530605D01*
X10714755Y10595624D01*
X10754405Y10669804D01*
X10778822Y10750293D01*
X10787066Y10834000D01*
X10787066Y12534000D01*
X10778822Y12617707D01*
X10754405Y12698196D01*
X10714755Y12772376D01*
X10661395Y12837395D01*
X10596376Y12890755D01*
X10522196Y12930405D01*
X10441707Y12954822D01*
X10358000Y12963066D01*
X9058000Y12963066D01*
X8974293Y12954822D01*
X8893804Y12930405D01*
X8819624Y12890755D01*
X8754605Y12837395D01*
X8701245Y12772376D01*
X8661595Y12698196D01*
X8637178Y12617707D01*
X8628934Y12534000D01*
X8628934Y11700000D01*
X756000Y11700000D01*
X756000Y15208250D01*
X13335000Y15208250D01*
X13335000Y14669458D01*
X13359403Y14546777D01*
X13407270Y14431215D01*
X13476763Y14327211D01*
X13565211Y14238763D01*
X13669215Y14169270D01*
X13784777Y14121403D01*
X13907458Y14097000D01*
X14446250Y14097000D01*
X14605000Y14255750D01*
X14605000Y15367000D01*
X13493750Y15367000D01*
X13335000Y15208250D01*
X756000Y15208250D01*
X756000Y17748250D01*
X13335000Y17748250D01*
X13335000Y17209458D01*
X13359403Y17086777D01*
X13407270Y16971215D01*
X13476763Y16867211D01*
X13565211Y16778763D01*
X13587305Y16764000D01*
X13565211Y16749237D01*
X13476763Y16660789D01*
X13407270Y16556785D01*
X13359403Y16441223D01*
X13335000Y16318542D01*
X13335000Y15779750D01*
X13493750Y15621000D01*
X14605000Y15621000D01*
X14605000Y16732250D01*
X14573250Y16764000D01*
X14605000Y16795750D01*
X14605000Y17907000D01*
X13493750Y17907000D01*
X13335000Y17748250D01*
X756000Y17748250D01*
X756000Y18858542D01*
X13335000Y18858542D01*
X13335000Y18319750D01*
X13493750Y18161000D01*
X14605000Y18161000D01*
X14605000Y19272250D01*
X14859000Y19272250D01*
X14859000Y18161000D01*
X14879000Y18161000D01*
X14879000Y17907000D01*
X14859000Y17907000D01*
X14859000Y16795750D01*
X14890750Y16764000D01*
X14859000Y16732250D01*
X14859000Y15621000D01*
X14879000Y15621000D01*
X14879000Y15367000D01*
X14859000Y15367000D01*
X14859000Y14255750D01*
X15017750Y14097000D01*
X15556542Y14097000D01*
X15679223Y14121403D01*
X15794785Y14169270D01*
X15898789Y14238763D01*
X15987237Y14327211D01*
X16056730Y14431215D01*
X16104597Y14546777D01*
X16110687Y14577391D01*
X16113595Y14567804D01*
X16153245Y14493624D01*
X16206605Y14428605D01*
X16271624Y14375245D01*
X16345804Y14335595D01*
X16426293Y14311178D01*
X16510000Y14302934D01*
X16595001Y14302934D01*
X16595001Y13241254D01*
X16591726Y13208000D01*
X16604796Y13075286D01*
X16643508Y12947671D01*
X16652434Y12930972D01*
X16652434Y12255500D01*
X16660678Y12171793D01*
X16685095Y12091304D01*
X16724745Y12017124D01*
X16778105Y11952105D01*
X16843124Y11898745D01*
X16917304Y11859095D01*
X16997793Y11834678D01*
X17081500Y11826434D01*
X18478500Y11826434D01*
X18562207Y11834678D01*
X18642696Y11859095D01*
X18716876Y11898745D01*
X18781895Y11952105D01*
X18835255Y12017124D01*
X18874905Y12091304D01*
X18899322Y12171793D01*
X18907566Y12255500D01*
X18907566Y13144500D01*
X18899322Y13228207D01*
X18874905Y13308696D01*
X18835255Y13382876D01*
X18781895Y13447895D01*
X18716876Y13501255D01*
X18642696Y13540905D01*
X18562207Y13565322D01*
X18478500Y13573566D01*
X17949000Y13573566D01*
X17949000Y14302934D01*
X18034000Y14302934D01*
X18117707Y14311178D01*
X18198196Y14335595D01*
X18272376Y14375245D01*
X18337395Y14428605D01*
X18390755Y14493624D01*
X18430405Y14567804D01*
X18454822Y14648293D01*
X18463066Y14732000D01*
X18463066Y16256000D01*
X18454822Y16339707D01*
X18430405Y16420196D01*
X18390755Y16494376D01*
X18337395Y16559395D01*
X18272376Y16612755D01*
X18198196Y16652405D01*
X18117707Y16676822D01*
X18034000Y16685066D01*
X17849000Y16685066D01*
X17849000Y16842934D01*
X18034000Y16842934D01*
X18117707Y16851178D01*
X18198196Y16875595D01*
X18272376Y16915245D01*
X18337395Y16968605D01*
X18390755Y17033624D01*
X18430405Y17107804D01*
X18454822Y17188293D01*
X18463066Y17272000D01*
X18463066Y18796000D01*
X18620934Y18796000D01*
X18620934Y17272000D01*
X18629178Y17188293D01*
X18653595Y17107804D01*
X18693245Y17033624D01*
X18746605Y16968605D01*
X18811624Y16915245D01*
X18885804Y16875595D01*
X18966293Y16851178D01*
X19050000Y16842934D01*
X19235000Y16842934D01*
X19235001Y16685066D01*
X19050000Y16685066D01*
X18966293Y16676822D01*
X18885804Y16652405D01*
X18811624Y16612755D01*
X18746605Y16559395D01*
X18693245Y16494376D01*
X18653595Y16420196D01*
X18629178Y16339707D01*
X18620934Y16256000D01*
X18620934Y14732000D01*
X18629178Y14648293D01*
X18653595Y14567804D01*
X18693245Y14493624D01*
X18746605Y14428605D01*
X18811624Y14375245D01*
X18885804Y14335595D01*
X18966293Y14311178D01*
X19050000Y14302934D01*
X19135000Y14302934D01*
X19135001Y13504396D01*
X19129124Y13501255D01*
X19064105Y13447895D01*
X19010745Y13382876D01*
X18971095Y13308696D01*
X18946678Y13228207D01*
X18938434Y13144500D01*
X18938434Y12255500D01*
X18946678Y12171793D01*
X18971095Y12091304D01*
X19010745Y12017124D01*
X19064105Y11952105D01*
X19129124Y11898745D01*
X19203304Y11859095D01*
X19283793Y11834678D01*
X19367500Y11826434D01*
X20764500Y11826434D01*
X20848207Y11834678D01*
X20928696Y11859095D01*
X21002876Y11898745D01*
X21067895Y11952105D01*
X21121255Y12017124D01*
X21160905Y12091304D01*
X21185322Y12171793D01*
X21193566Y12255500D01*
X21193566Y13144500D01*
X21185322Y13228207D01*
X21160905Y13308696D01*
X21121255Y13382876D01*
X21067895Y13447895D01*
X21013735Y13492344D01*
X25400797Y13492344D01*
X25526239Y13309600D01*
X26517600Y13309600D01*
X26517600Y14207404D01*
X26771600Y14207404D01*
X26771600Y13309600D01*
X27762961Y13309600D01*
X27888403Y13492344D01*
X27830740Y13653587D01*
X27717985Y13856433D01*
X27567823Y14033383D01*
X27386026Y14177638D01*
X27179579Y14283655D01*
X26956416Y14347359D01*
X26771600Y14207404D01*
X26517600Y14207404D01*
X26332784Y14347359D01*
X26109621Y14283655D01*
X25903174Y14177638D01*
X25721377Y14033383D01*
X25571215Y13856433D01*
X25458460Y13653587D01*
X25400797Y13492344D01*
X21013735Y13492344D01*
X21002876Y13501255D01*
X20928696Y13540905D01*
X20848207Y13565322D01*
X20764500Y13573566D01*
X20489000Y13573566D01*
X20489000Y14302934D01*
X20574000Y14302934D01*
X20657707Y14311178D01*
X20738196Y14335595D01*
X20812376Y14375245D01*
X20877395Y14428605D01*
X20930755Y14493624D01*
X20970405Y14567804D01*
X20973313Y14577391D01*
X20979403Y14546777D01*
X21027270Y14431215D01*
X21096763Y14327211D01*
X21185211Y14238763D01*
X21289215Y14169270D01*
X21404777Y14121403D01*
X21527458Y14097000D01*
X22066250Y14097000D01*
X22225000Y14255750D01*
X22225000Y15367000D01*
X22479000Y15367000D01*
X22479000Y14255750D01*
X22637750Y14097000D01*
X23176542Y14097000D01*
X23299223Y14121403D01*
X23414785Y14169270D01*
X23518789Y14238763D01*
X23607237Y14327211D01*
X23676730Y14431215D01*
X23724597Y14546777D01*
X23749000Y14669458D01*
X23749000Y15208250D01*
X23590250Y15367000D01*
X22479000Y15367000D01*
X22225000Y15367000D01*
X22205000Y15367000D01*
X22205000Y15621000D01*
X22225000Y15621000D01*
X22225000Y16732250D01*
X22193250Y16764000D01*
X22225000Y16795750D01*
X22225000Y17907000D01*
X22479000Y17907000D01*
X22479000Y16795750D01*
X22510750Y16764000D01*
X22479000Y16732250D01*
X22479000Y15621000D01*
X23590250Y15621000D01*
X23749000Y15779750D01*
X23749000Y16097770D01*
X27467600Y16097770D01*
X27467600Y15767430D01*
X27532046Y15443437D01*
X27658462Y15138243D01*
X27841989Y14863575D01*
X28075575Y14629989D01*
X28350243Y14446462D01*
X28655437Y14320046D01*
X28979430Y14255600D01*
X29309770Y14255600D01*
X29633763Y14320046D01*
X29938957Y14446462D01*
X30213625Y14629989D01*
X30447211Y14863575D01*
X30630738Y15138243D01*
X30757154Y15443437D01*
X30821600Y15767430D01*
X30821600Y16097770D01*
X30757154Y16421763D01*
X30630738Y16726957D01*
X30447211Y17001625D01*
X30213625Y17235211D01*
X29938957Y17418738D01*
X29633763Y17545154D01*
X29309770Y17609600D01*
X28979430Y17609600D01*
X28655437Y17545154D01*
X28350243Y17418738D01*
X28075575Y17235211D01*
X27841989Y17001625D01*
X27658462Y16726957D01*
X27532046Y16421763D01*
X27467600Y16097770D01*
X23749000Y16097770D01*
X23749000Y16318542D01*
X23724597Y16441223D01*
X23676730Y16556785D01*
X23607237Y16660789D01*
X23518789Y16749237D01*
X23496695Y16764000D01*
X23518789Y16778763D01*
X23607237Y16867211D01*
X23676730Y16971215D01*
X23724597Y17086777D01*
X23749000Y17209458D01*
X23749000Y17748250D01*
X23590250Y17907000D01*
X22479000Y17907000D01*
X22225000Y17907000D01*
X22205000Y17907000D01*
X22205000Y18161000D01*
X22225000Y18161000D01*
X22225000Y19272250D01*
X22479000Y19272250D01*
X22479000Y18161000D01*
X23590250Y18161000D01*
X23749000Y18319750D01*
X23749000Y18858542D01*
X23724597Y18981223D01*
X23676730Y19096785D01*
X23607237Y19200789D01*
X23518789Y19289237D01*
X23414785Y19358730D01*
X23299223Y19406597D01*
X23176542Y19431000D01*
X22637750Y19431000D01*
X22479000Y19272250D01*
X22225000Y19272250D01*
X22066250Y19431000D01*
X21527458Y19431000D01*
X21404777Y19406597D01*
X21289215Y19358730D01*
X21185211Y19289237D01*
X21096763Y19200789D01*
X21027270Y19096785D01*
X20979403Y18981223D01*
X20973313Y18950609D01*
X20970405Y18960196D01*
X20930755Y19034376D01*
X20877395Y19099395D01*
X20812376Y19152755D01*
X20738196Y19192405D01*
X20657707Y19216822D01*
X20574000Y19225066D01*
X19050000Y19225066D01*
X18966293Y19216822D01*
X18885804Y19192405D01*
X18811624Y19152755D01*
X18746605Y19099395D01*
X18693245Y19034376D01*
X18653595Y18960196D01*
X18629178Y18879707D01*
X18620934Y18796000D01*
X18463066Y18796000D01*
X18454822Y18879707D01*
X18430405Y18960196D01*
X18390755Y19034376D01*
X18337395Y19099395D01*
X18272376Y19152755D01*
X18198196Y19192405D01*
X18117707Y19216822D01*
X18034000Y19225066D01*
X16510000Y19225066D01*
X16426293Y19216822D01*
X16345804Y19192405D01*
X16271624Y19152755D01*
X16206605Y19099395D01*
X16153245Y19034376D01*
X16113595Y18960196D01*
X16110687Y18950609D01*
X16104597Y18981223D01*
X16056730Y19096785D01*
X15987237Y19200789D01*
X15898789Y19289237D01*
X15794785Y19358730D01*
X15679223Y19406597D01*
X15556542Y19431000D01*
X15017750Y19431000D01*
X14859000Y19272250D01*
X14605000Y19272250D01*
X14446250Y19431000D01*
X13907458Y19431000D01*
X13784777Y19406597D01*
X13669215Y19358730D01*
X13565211Y19289237D01*
X13476763Y19200789D01*
X13407270Y19096785D01*
X13359403Y18981223D01*
X13335000Y18858542D01*
X756000Y18858542D01*
X756000Y19564000D01*
X39884001Y19564000D01*
X39884000Y756000D01*
M02*
