G04 #@! TF.GenerationSoftware,KiCad,Pcbnew,(5.1.0-rc1-108-gb4c0af021)*
G04 #@! TF.CreationDate,2019-02-21T20:09:24+01:00
G04 #@! TF.ProjectId,TTLLVDS01A,54544c4c-5644-4533-9031-412e6b696361,REV*
G04 #@! TF.SameCoordinates,Original*
G04 #@! TF.FileFunction,Copper,L1,Top*
G04 #@! TF.FilePolarity,Positive*
%FSLAX46Y46*%
G04 Gerber Fmt 4.6, Leading zero omitted, Abs format (unit mm)*
G04 Created by KiCad (PCBNEW (5.1.0-rc1-108-gb4c0af021)) date 2019-02-21 20:09:24*
%MOMM*%
%LPD*%
G04 APERTURE LIST*
%ADD10R,1.524000X1.524000*%
%ADD11O,1.300000X1.100000*%
%ADD12C,2.500000*%
%ADD13C,6.000000*%
%ADD14C,0.800000*%
%ADD15C,0.254000*%
G04 APERTURE END LIST*
D10*
X10922000Y8128000D03*
X13462000Y8128000D03*
X10922000Y5588000D03*
X13462000Y5588000D03*
X10922000Y3048000D03*
X13462000Y3048000D03*
X19812000Y18034000D03*
X19812000Y15494000D03*
X14732000Y18034000D03*
X14732000Y15494000D03*
X17272000Y15494000D03*
X17272000Y18034000D03*
X22352000Y18034000D03*
X22352000Y15494000D03*
D11*
X26644600Y5562600D03*
X26644600Y9372600D03*
X26644600Y13182600D03*
X28144600Y11912600D03*
X28144600Y10642600D03*
X28144600Y8102600D03*
D12*
X29144600Y15932600D03*
D11*
X28144600Y6832600D03*
D12*
X28144600Y3102600D03*
D13*
X35560000Y15240000D03*
X5080000Y5080000D03*
X5080000Y15240000D03*
X35560000Y5080000D03*
D14*
X15621000Y13081000D03*
X15621000Y12065000D03*
X15621000Y11049000D03*
X22225000Y13208000D03*
X22225000Y12192000D03*
X22225000Y11176000D03*
X20320000Y3556000D03*
X21463000Y3556000D03*
X22479000Y3556000D03*
D15*
G36*
X39884000Y756000D02*
G01*
X756000Y756000D01*
X756000Y2762250D01*
X9525000Y2762250D01*
X9525000Y2223458D01*
X9549403Y2100777D01*
X9597270Y1985215D01*
X9666763Y1881211D01*
X9755211Y1792763D01*
X9859215Y1723270D01*
X9974777Y1675403D01*
X10097458Y1651000D01*
X10636250Y1651000D01*
X10795000Y1809750D01*
X10795000Y2921000D01*
X11049000Y2921000D01*
X11049000Y1809750D01*
X11207750Y1651000D01*
X11746542Y1651000D01*
X11869223Y1675403D01*
X11984785Y1723270D01*
X12088789Y1792763D01*
X12177237Y1881211D01*
X12192000Y1903305D01*
X12206763Y1881211D01*
X12295211Y1792763D01*
X12399215Y1723270D01*
X12514777Y1675403D01*
X12637458Y1651000D01*
X13176250Y1651000D01*
X13335000Y1809750D01*
X13335000Y2921000D01*
X13589000Y2921000D01*
X13589000Y1809750D01*
X13747750Y1651000D01*
X14286542Y1651000D01*
X14409223Y1675403D01*
X14524785Y1723270D01*
X14628789Y1792763D01*
X14717237Y1881211D01*
X14786730Y1985215D01*
X14834597Y2100777D01*
X14859000Y2223458D01*
X14859000Y2762250D01*
X14700250Y2921000D01*
X13589000Y2921000D01*
X13335000Y2921000D01*
X12223750Y2921000D01*
X12192000Y2889250D01*
X12160250Y2921000D01*
X11049000Y2921000D01*
X10795000Y2921000D01*
X9683750Y2921000D01*
X9525000Y2762250D01*
X756000Y2762250D01*
X756000Y7842250D01*
X9525000Y7842250D01*
X9525000Y7303458D01*
X9549403Y7180777D01*
X9597270Y7065215D01*
X9666763Y6961211D01*
X9755211Y6872763D01*
X9859215Y6803270D01*
X9974777Y6755403D01*
X10005391Y6749313D01*
X9995804Y6746405D01*
X9921624Y6706755D01*
X9856605Y6653395D01*
X9803245Y6588376D01*
X9763595Y6514196D01*
X9739178Y6433707D01*
X9730934Y6350000D01*
X9730934Y4826000D01*
X9739178Y4742293D01*
X9763595Y4661804D01*
X9803245Y4587624D01*
X9856605Y4522605D01*
X9921624Y4469245D01*
X9995804Y4429595D01*
X10005391Y4426687D01*
X9974777Y4420597D01*
X9859215Y4372730D01*
X9755211Y4303237D01*
X9666763Y4214789D01*
X9597270Y4110785D01*
X9549403Y3995223D01*
X9525000Y3872542D01*
X9525000Y3333750D01*
X9683750Y3175000D01*
X10795000Y3175000D01*
X10795000Y3195000D01*
X11049000Y3195000D01*
X11049000Y3175000D01*
X12160250Y3175000D01*
X12192000Y3206750D01*
X12223750Y3175000D01*
X13335000Y3175000D01*
X13335000Y3195000D01*
X13589000Y3195000D01*
X13589000Y3175000D01*
X14700250Y3175000D01*
X14793020Y3267770D01*
X26467600Y3267770D01*
X26467600Y2937430D01*
X26532046Y2613437D01*
X26658462Y2308243D01*
X26841989Y2033575D01*
X27075575Y1799989D01*
X27350243Y1616462D01*
X27655437Y1490046D01*
X27979430Y1425600D01*
X28309770Y1425600D01*
X28633763Y1490046D01*
X28938957Y1616462D01*
X29213625Y1799989D01*
X29447211Y2033575D01*
X29630738Y2308243D01*
X29757154Y2613437D01*
X29821600Y2937430D01*
X29821600Y3267770D01*
X29757154Y3591763D01*
X29630738Y3896957D01*
X29447211Y4171625D01*
X29213625Y4405211D01*
X28938957Y4588738D01*
X28633763Y4715154D01*
X28309770Y4779600D01*
X27979430Y4779600D01*
X27655437Y4715154D01*
X27480937Y4642873D01*
X27567823Y4711817D01*
X27717985Y4888767D01*
X27830740Y5091613D01*
X27888403Y5252856D01*
X27762961Y5435600D01*
X26771600Y5435600D01*
X26771600Y4537796D01*
X26956416Y4397841D01*
X27145196Y4451730D01*
X27075575Y4405211D01*
X26841989Y4171625D01*
X26658462Y3896957D01*
X26532046Y3591763D01*
X26467600Y3267770D01*
X14793020Y3267770D01*
X14859000Y3333750D01*
X14859000Y3872542D01*
X14834597Y3995223D01*
X14786730Y4110785D01*
X14717237Y4214789D01*
X14628789Y4303237D01*
X14524785Y4372730D01*
X14409223Y4420597D01*
X14378609Y4426687D01*
X14388196Y4429595D01*
X14462376Y4469245D01*
X14527395Y4522605D01*
X14580755Y4587624D01*
X14620405Y4661804D01*
X14644822Y4742293D01*
X14653066Y4826000D01*
X14653066Y5252856D01*
X25400797Y5252856D01*
X25458460Y5091613D01*
X25571215Y4888767D01*
X25721377Y4711817D01*
X25903174Y4567562D01*
X26109621Y4461545D01*
X26332784Y4397841D01*
X26517600Y4537796D01*
X26517600Y5435600D01*
X25526239Y5435600D01*
X25400797Y5252856D01*
X14653066Y5252856D01*
X14653066Y5872344D01*
X25400797Y5872344D01*
X25526239Y5689600D01*
X26517600Y5689600D01*
X26517600Y6587404D01*
X26332784Y6727359D01*
X26109621Y6663655D01*
X25903174Y6557638D01*
X25721377Y6413383D01*
X25571215Y6236433D01*
X25458460Y6033587D01*
X25400797Y5872344D01*
X14653066Y5872344D01*
X14653066Y6350000D01*
X14644822Y6433707D01*
X14620405Y6514196D01*
X14580755Y6588376D01*
X14527395Y6653395D01*
X14462376Y6706755D01*
X14388196Y6746405D01*
X14378609Y6749313D01*
X14409223Y6755403D01*
X14524785Y6803270D01*
X14628789Y6872763D01*
X14717237Y6961211D01*
X14786730Y7065215D01*
X14834597Y7180777D01*
X14859000Y7303458D01*
X14859000Y7842250D01*
X14700250Y8001000D01*
X13589000Y8001000D01*
X13589000Y7981000D01*
X13335000Y7981000D01*
X13335000Y8001000D01*
X12223750Y8001000D01*
X12192000Y7969250D01*
X12160250Y8001000D01*
X11049000Y8001000D01*
X11049000Y7981000D01*
X10795000Y7981000D01*
X10795000Y8001000D01*
X9683750Y8001000D01*
X9525000Y7842250D01*
X756000Y7842250D01*
X756000Y8952542D01*
X9525000Y8952542D01*
X9525000Y8413750D01*
X9683750Y8255000D01*
X10795000Y8255000D01*
X10795000Y9366250D01*
X11049000Y9366250D01*
X11049000Y8255000D01*
X12160250Y8255000D01*
X12192000Y8286750D01*
X12223750Y8255000D01*
X13335000Y8255000D01*
X13335000Y9366250D01*
X13589000Y9366250D01*
X13589000Y8255000D01*
X14700250Y8255000D01*
X14859000Y8413750D01*
X14859000Y8952542D01*
X14837057Y9062856D01*
X25400797Y9062856D01*
X25458460Y8901613D01*
X25571215Y8698767D01*
X25721377Y8521817D01*
X25903174Y8377562D01*
X26109621Y8271545D01*
X26332784Y8207841D01*
X26517600Y8347796D01*
X26517600Y9245600D01*
X26771600Y9245600D01*
X26771600Y8347796D01*
X26956416Y8207841D01*
X27076618Y8242154D01*
X27062873Y8102600D01*
X27081737Y7911075D01*
X27137603Y7726909D01*
X27228324Y7557182D01*
X27301842Y7467600D01*
X27228324Y7378018D01*
X27137603Y7208291D01*
X27081737Y7024125D01*
X27062873Y6832600D01*
X27076618Y6693046D01*
X26956416Y6727359D01*
X26771600Y6587404D01*
X26771600Y5689600D01*
X27762961Y5689600D01*
X27884490Y5866643D01*
X27996607Y5855600D01*
X28292593Y5855600D01*
X28436125Y5869737D01*
X28620291Y5925603D01*
X28790018Y6016324D01*
X28938786Y6138414D01*
X29060876Y6287182D01*
X29151597Y6456909D01*
X29207463Y6641075D01*
X29226327Y6832600D01*
X29207463Y7024125D01*
X29151597Y7208291D01*
X29060876Y7378018D01*
X28987358Y7467600D01*
X29060876Y7557182D01*
X29151597Y7726909D01*
X29207463Y7911075D01*
X29226327Y8102600D01*
X29207463Y8294125D01*
X29151597Y8478291D01*
X29060876Y8648018D01*
X28938786Y8796786D01*
X28790018Y8918876D01*
X28620291Y9009597D01*
X28436125Y9065463D01*
X28292593Y9079600D01*
X27996607Y9079600D01*
X27884490Y9068557D01*
X27762961Y9245600D01*
X26771600Y9245600D01*
X26517600Y9245600D01*
X25526239Y9245600D01*
X25400797Y9062856D01*
X14837057Y9062856D01*
X14834597Y9075223D01*
X14786730Y9190785D01*
X14717237Y9294789D01*
X14628789Y9383237D01*
X14524785Y9452730D01*
X14409223Y9500597D01*
X14286542Y9525000D01*
X13747750Y9525000D01*
X13589000Y9366250D01*
X13335000Y9366250D01*
X13176250Y9525000D01*
X12637458Y9525000D01*
X12514777Y9500597D01*
X12399215Y9452730D01*
X12295211Y9383237D01*
X12206763Y9294789D01*
X12192000Y9272695D01*
X12177237Y9294789D01*
X12088789Y9383237D01*
X11984785Y9452730D01*
X11869223Y9500597D01*
X11746542Y9525000D01*
X11207750Y9525000D01*
X11049000Y9366250D01*
X10795000Y9366250D01*
X10636250Y9525000D01*
X10097458Y9525000D01*
X9974777Y9500597D01*
X9859215Y9452730D01*
X9755211Y9383237D01*
X9666763Y9294789D01*
X9597270Y9190785D01*
X9549403Y9075223D01*
X9525000Y8952542D01*
X756000Y8952542D01*
X756000Y9682344D01*
X25400797Y9682344D01*
X25526239Y9499600D01*
X26517600Y9499600D01*
X26517600Y10397404D01*
X26332784Y10537359D01*
X26109621Y10473655D01*
X25903174Y10367638D01*
X25721377Y10223383D01*
X25571215Y10046433D01*
X25458460Y9843587D01*
X25400797Y9682344D01*
X756000Y9682344D01*
X756000Y12872856D01*
X25400797Y12872856D01*
X25458460Y12711613D01*
X25571215Y12508767D01*
X25721377Y12331817D01*
X25903174Y12187562D01*
X26109621Y12081545D01*
X26332784Y12017841D01*
X26517600Y12157796D01*
X26517600Y13055600D01*
X26771600Y13055600D01*
X26771600Y12157796D01*
X26956416Y12017841D01*
X27076618Y12052154D01*
X27062873Y11912600D01*
X27081737Y11721075D01*
X27137603Y11536909D01*
X27228324Y11367182D01*
X27301842Y11277600D01*
X27228324Y11188018D01*
X27137603Y11018291D01*
X27081737Y10834125D01*
X27062873Y10642600D01*
X27076618Y10503046D01*
X26956416Y10537359D01*
X26771600Y10397404D01*
X26771600Y9499600D01*
X27762961Y9499600D01*
X27884490Y9676643D01*
X27996607Y9665600D01*
X28292593Y9665600D01*
X28436125Y9679737D01*
X28620291Y9735603D01*
X28790018Y9826324D01*
X28938786Y9948414D01*
X29060876Y10097182D01*
X29151597Y10266909D01*
X29207463Y10451075D01*
X29226327Y10642600D01*
X29207463Y10834125D01*
X29151597Y11018291D01*
X29060876Y11188018D01*
X28987358Y11277600D01*
X29060876Y11367182D01*
X29151597Y11536909D01*
X29207463Y11721075D01*
X29226327Y11912600D01*
X29207463Y12104125D01*
X29151597Y12288291D01*
X29060876Y12458018D01*
X28938786Y12606786D01*
X28790018Y12728876D01*
X28620291Y12819597D01*
X28436125Y12875463D01*
X28292593Y12889600D01*
X27996607Y12889600D01*
X27884490Y12878557D01*
X27762961Y13055600D01*
X26771600Y13055600D01*
X26517600Y13055600D01*
X25526239Y13055600D01*
X25400797Y12872856D01*
X756000Y12872856D01*
X756000Y13492344D01*
X25400797Y13492344D01*
X25526239Y13309600D01*
X26517600Y13309600D01*
X26517600Y14207404D01*
X26771600Y14207404D01*
X26771600Y13309600D01*
X27762961Y13309600D01*
X27888403Y13492344D01*
X27830740Y13653587D01*
X27717985Y13856433D01*
X27567823Y14033383D01*
X27386026Y14177638D01*
X27179579Y14283655D01*
X26956416Y14347359D01*
X26771600Y14207404D01*
X26517600Y14207404D01*
X26332784Y14347359D01*
X26109621Y14283655D01*
X25903174Y14177638D01*
X25721377Y14033383D01*
X25571215Y13856433D01*
X25458460Y13653587D01*
X25400797Y13492344D01*
X756000Y13492344D01*
X756000Y15208250D01*
X13335000Y15208250D01*
X13335000Y14669458D01*
X13359403Y14546777D01*
X13407270Y14431215D01*
X13476763Y14327211D01*
X13565211Y14238763D01*
X13669215Y14169270D01*
X13784777Y14121403D01*
X13907458Y14097000D01*
X14446250Y14097000D01*
X14605000Y14255750D01*
X14605000Y15367000D01*
X13493750Y15367000D01*
X13335000Y15208250D01*
X756000Y15208250D01*
X756000Y17748250D01*
X13335000Y17748250D01*
X13335000Y17209458D01*
X13359403Y17086777D01*
X13407270Y16971215D01*
X13476763Y16867211D01*
X13565211Y16778763D01*
X13587305Y16764000D01*
X13565211Y16749237D01*
X13476763Y16660789D01*
X13407270Y16556785D01*
X13359403Y16441223D01*
X13335000Y16318542D01*
X13335000Y15779750D01*
X13493750Y15621000D01*
X14605000Y15621000D01*
X14605000Y16732250D01*
X14573250Y16764000D01*
X14605000Y16795750D01*
X14605000Y17907000D01*
X13493750Y17907000D01*
X13335000Y17748250D01*
X756000Y17748250D01*
X756000Y18858542D01*
X13335000Y18858542D01*
X13335000Y18319750D01*
X13493750Y18161000D01*
X14605000Y18161000D01*
X14605000Y19272250D01*
X14859000Y19272250D01*
X14859000Y18161000D01*
X14879000Y18161000D01*
X14879000Y17907000D01*
X14859000Y17907000D01*
X14859000Y16795750D01*
X14890750Y16764000D01*
X14859000Y16732250D01*
X14859000Y15621000D01*
X14879000Y15621000D01*
X14879000Y15367000D01*
X14859000Y15367000D01*
X14859000Y14255750D01*
X15017750Y14097000D01*
X15556542Y14097000D01*
X15679223Y14121403D01*
X15794785Y14169270D01*
X15898789Y14238763D01*
X15987237Y14327211D01*
X16056730Y14431215D01*
X16104597Y14546777D01*
X16110687Y14577391D01*
X16113595Y14567804D01*
X16153245Y14493624D01*
X16206605Y14428605D01*
X16271624Y14375245D01*
X16345804Y14335595D01*
X16426293Y14311178D01*
X16510000Y14302934D01*
X18034000Y14302934D01*
X18117707Y14311178D01*
X18198196Y14335595D01*
X18272376Y14375245D01*
X18337395Y14428605D01*
X18390755Y14493624D01*
X18430405Y14567804D01*
X18454822Y14648293D01*
X18463066Y14732000D01*
X18463066Y16256000D01*
X18454822Y16339707D01*
X18430405Y16420196D01*
X18390755Y16494376D01*
X18337395Y16559395D01*
X18272376Y16612755D01*
X18198196Y16652405D01*
X18117707Y16676822D01*
X18034000Y16685066D01*
X16510000Y16685066D01*
X16426293Y16676822D01*
X16345804Y16652405D01*
X16271624Y16612755D01*
X16206605Y16559395D01*
X16153245Y16494376D01*
X16113595Y16420196D01*
X16110687Y16410609D01*
X16104597Y16441223D01*
X16056730Y16556785D01*
X15987237Y16660789D01*
X15898789Y16749237D01*
X15876695Y16764000D01*
X15898789Y16778763D01*
X15987237Y16867211D01*
X16056730Y16971215D01*
X16104597Y17086777D01*
X16110687Y17117391D01*
X16113595Y17107804D01*
X16153245Y17033624D01*
X16206605Y16968605D01*
X16271624Y16915245D01*
X16345804Y16875595D01*
X16426293Y16851178D01*
X16510000Y16842934D01*
X18034000Y16842934D01*
X18117707Y16851178D01*
X18198196Y16875595D01*
X18272376Y16915245D01*
X18337395Y16968605D01*
X18390755Y17033624D01*
X18430405Y17107804D01*
X18454822Y17188293D01*
X18463066Y17272000D01*
X18463066Y18796000D01*
X18620934Y18796000D01*
X18620934Y17272000D01*
X18629178Y17188293D01*
X18653595Y17107804D01*
X18693245Y17033624D01*
X18746605Y16968605D01*
X18811624Y16915245D01*
X18885804Y16875595D01*
X18966293Y16851178D01*
X19050000Y16842934D01*
X20574000Y16842934D01*
X20657707Y16851178D01*
X20738196Y16875595D01*
X20812376Y16915245D01*
X20877395Y16968605D01*
X20930755Y17033624D01*
X20970405Y17107804D01*
X20973313Y17117391D01*
X20979403Y17086777D01*
X21027270Y16971215D01*
X21096763Y16867211D01*
X21185211Y16778763D01*
X21207305Y16764000D01*
X21185211Y16749237D01*
X21096763Y16660789D01*
X21027270Y16556785D01*
X20979403Y16441223D01*
X20973313Y16410609D01*
X20970405Y16420196D01*
X20930755Y16494376D01*
X20877395Y16559395D01*
X20812376Y16612755D01*
X20738196Y16652405D01*
X20657707Y16676822D01*
X20574000Y16685066D01*
X19050000Y16685066D01*
X18966293Y16676822D01*
X18885804Y16652405D01*
X18811624Y16612755D01*
X18746605Y16559395D01*
X18693245Y16494376D01*
X18653595Y16420196D01*
X18629178Y16339707D01*
X18620934Y16256000D01*
X18620934Y14732000D01*
X18629178Y14648293D01*
X18653595Y14567804D01*
X18693245Y14493624D01*
X18746605Y14428605D01*
X18811624Y14375245D01*
X18885804Y14335595D01*
X18966293Y14311178D01*
X19050000Y14302934D01*
X20574000Y14302934D01*
X20657707Y14311178D01*
X20738196Y14335595D01*
X20812376Y14375245D01*
X20877395Y14428605D01*
X20930755Y14493624D01*
X20970405Y14567804D01*
X20973313Y14577391D01*
X20979403Y14546777D01*
X21027270Y14431215D01*
X21096763Y14327211D01*
X21185211Y14238763D01*
X21289215Y14169270D01*
X21404777Y14121403D01*
X21527458Y14097000D01*
X22066250Y14097000D01*
X22225000Y14255750D01*
X22225000Y15367000D01*
X22479000Y15367000D01*
X22479000Y14255750D01*
X22637750Y14097000D01*
X23176542Y14097000D01*
X23299223Y14121403D01*
X23414785Y14169270D01*
X23518789Y14238763D01*
X23607237Y14327211D01*
X23676730Y14431215D01*
X23724597Y14546777D01*
X23749000Y14669458D01*
X23749000Y15208250D01*
X23590250Y15367000D01*
X22479000Y15367000D01*
X22225000Y15367000D01*
X22205000Y15367000D01*
X22205000Y15621000D01*
X22225000Y15621000D01*
X22225000Y16732250D01*
X22193250Y16764000D01*
X22225000Y16795750D01*
X22225000Y17907000D01*
X22479000Y17907000D01*
X22479000Y16795750D01*
X22510750Y16764000D01*
X22479000Y16732250D01*
X22479000Y15621000D01*
X23590250Y15621000D01*
X23749000Y15779750D01*
X23749000Y16097770D01*
X27467600Y16097770D01*
X27467600Y15767430D01*
X27532046Y15443437D01*
X27658462Y15138243D01*
X27841989Y14863575D01*
X28075575Y14629989D01*
X28350243Y14446462D01*
X28655437Y14320046D01*
X28979430Y14255600D01*
X29309770Y14255600D01*
X29633763Y14320046D01*
X29938957Y14446462D01*
X30213625Y14629989D01*
X30447211Y14863575D01*
X30630738Y15138243D01*
X30757154Y15443437D01*
X30821600Y15767430D01*
X30821600Y16097770D01*
X30757154Y16421763D01*
X30630738Y16726957D01*
X30447211Y17001625D01*
X30213625Y17235211D01*
X29938957Y17418738D01*
X29633763Y17545154D01*
X29309770Y17609600D01*
X28979430Y17609600D01*
X28655437Y17545154D01*
X28350243Y17418738D01*
X28075575Y17235211D01*
X27841989Y17001625D01*
X27658462Y16726957D01*
X27532046Y16421763D01*
X27467600Y16097770D01*
X23749000Y16097770D01*
X23749000Y16318542D01*
X23724597Y16441223D01*
X23676730Y16556785D01*
X23607237Y16660789D01*
X23518789Y16749237D01*
X23496695Y16764000D01*
X23518789Y16778763D01*
X23607237Y16867211D01*
X23676730Y16971215D01*
X23724597Y17086777D01*
X23749000Y17209458D01*
X23749000Y17748250D01*
X23590250Y17907000D01*
X22479000Y17907000D01*
X22225000Y17907000D01*
X22205000Y17907000D01*
X22205000Y18161000D01*
X22225000Y18161000D01*
X22225000Y19272250D01*
X22479000Y19272250D01*
X22479000Y18161000D01*
X23590250Y18161000D01*
X23749000Y18319750D01*
X23749000Y18858542D01*
X23724597Y18981223D01*
X23676730Y19096785D01*
X23607237Y19200789D01*
X23518789Y19289237D01*
X23414785Y19358730D01*
X23299223Y19406597D01*
X23176542Y19431000D01*
X22637750Y19431000D01*
X22479000Y19272250D01*
X22225000Y19272250D01*
X22066250Y19431000D01*
X21527458Y19431000D01*
X21404777Y19406597D01*
X21289215Y19358730D01*
X21185211Y19289237D01*
X21096763Y19200789D01*
X21027270Y19096785D01*
X20979403Y18981223D01*
X20973313Y18950609D01*
X20970405Y18960196D01*
X20930755Y19034376D01*
X20877395Y19099395D01*
X20812376Y19152755D01*
X20738196Y19192405D01*
X20657707Y19216822D01*
X20574000Y19225066D01*
X19050000Y19225066D01*
X18966293Y19216822D01*
X18885804Y19192405D01*
X18811624Y19152755D01*
X18746605Y19099395D01*
X18693245Y19034376D01*
X18653595Y18960196D01*
X18629178Y18879707D01*
X18620934Y18796000D01*
X18463066Y18796000D01*
X18454822Y18879707D01*
X18430405Y18960196D01*
X18390755Y19034376D01*
X18337395Y19099395D01*
X18272376Y19152755D01*
X18198196Y19192405D01*
X18117707Y19216822D01*
X18034000Y19225066D01*
X16510000Y19225066D01*
X16426293Y19216822D01*
X16345804Y19192405D01*
X16271624Y19152755D01*
X16206605Y19099395D01*
X16153245Y19034376D01*
X16113595Y18960196D01*
X16110687Y18950609D01*
X16104597Y18981223D01*
X16056730Y19096785D01*
X15987237Y19200789D01*
X15898789Y19289237D01*
X15794785Y19358730D01*
X15679223Y19406597D01*
X15556542Y19431000D01*
X15017750Y19431000D01*
X14859000Y19272250D01*
X14605000Y19272250D01*
X14446250Y19431000D01*
X13907458Y19431000D01*
X13784777Y19406597D01*
X13669215Y19358730D01*
X13565211Y19289237D01*
X13476763Y19200789D01*
X13407270Y19096785D01*
X13359403Y18981223D01*
X13335000Y18858542D01*
X756000Y18858542D01*
X756000Y19564000D01*
X39884001Y19564000D01*
X39884000Y756000D01*
X39884000Y756000D01*
G37*
X39884000Y756000D02*
X756000Y756000D01*
X756000Y2762250D01*
X9525000Y2762250D01*
X9525000Y2223458D01*
X9549403Y2100777D01*
X9597270Y1985215D01*
X9666763Y1881211D01*
X9755211Y1792763D01*
X9859215Y1723270D01*
X9974777Y1675403D01*
X10097458Y1651000D01*
X10636250Y1651000D01*
X10795000Y1809750D01*
X10795000Y2921000D01*
X11049000Y2921000D01*
X11049000Y1809750D01*
X11207750Y1651000D01*
X11746542Y1651000D01*
X11869223Y1675403D01*
X11984785Y1723270D01*
X12088789Y1792763D01*
X12177237Y1881211D01*
X12192000Y1903305D01*
X12206763Y1881211D01*
X12295211Y1792763D01*
X12399215Y1723270D01*
X12514777Y1675403D01*
X12637458Y1651000D01*
X13176250Y1651000D01*
X13335000Y1809750D01*
X13335000Y2921000D01*
X13589000Y2921000D01*
X13589000Y1809750D01*
X13747750Y1651000D01*
X14286542Y1651000D01*
X14409223Y1675403D01*
X14524785Y1723270D01*
X14628789Y1792763D01*
X14717237Y1881211D01*
X14786730Y1985215D01*
X14834597Y2100777D01*
X14859000Y2223458D01*
X14859000Y2762250D01*
X14700250Y2921000D01*
X13589000Y2921000D01*
X13335000Y2921000D01*
X12223750Y2921000D01*
X12192000Y2889250D01*
X12160250Y2921000D01*
X11049000Y2921000D01*
X10795000Y2921000D01*
X9683750Y2921000D01*
X9525000Y2762250D01*
X756000Y2762250D01*
X756000Y7842250D01*
X9525000Y7842250D01*
X9525000Y7303458D01*
X9549403Y7180777D01*
X9597270Y7065215D01*
X9666763Y6961211D01*
X9755211Y6872763D01*
X9859215Y6803270D01*
X9974777Y6755403D01*
X10005391Y6749313D01*
X9995804Y6746405D01*
X9921624Y6706755D01*
X9856605Y6653395D01*
X9803245Y6588376D01*
X9763595Y6514196D01*
X9739178Y6433707D01*
X9730934Y6350000D01*
X9730934Y4826000D01*
X9739178Y4742293D01*
X9763595Y4661804D01*
X9803245Y4587624D01*
X9856605Y4522605D01*
X9921624Y4469245D01*
X9995804Y4429595D01*
X10005391Y4426687D01*
X9974777Y4420597D01*
X9859215Y4372730D01*
X9755211Y4303237D01*
X9666763Y4214789D01*
X9597270Y4110785D01*
X9549403Y3995223D01*
X9525000Y3872542D01*
X9525000Y3333750D01*
X9683750Y3175000D01*
X10795000Y3175000D01*
X10795000Y3195000D01*
X11049000Y3195000D01*
X11049000Y3175000D01*
X12160250Y3175000D01*
X12192000Y3206750D01*
X12223750Y3175000D01*
X13335000Y3175000D01*
X13335000Y3195000D01*
X13589000Y3195000D01*
X13589000Y3175000D01*
X14700250Y3175000D01*
X14793020Y3267770D01*
X26467600Y3267770D01*
X26467600Y2937430D01*
X26532046Y2613437D01*
X26658462Y2308243D01*
X26841989Y2033575D01*
X27075575Y1799989D01*
X27350243Y1616462D01*
X27655437Y1490046D01*
X27979430Y1425600D01*
X28309770Y1425600D01*
X28633763Y1490046D01*
X28938957Y1616462D01*
X29213625Y1799989D01*
X29447211Y2033575D01*
X29630738Y2308243D01*
X29757154Y2613437D01*
X29821600Y2937430D01*
X29821600Y3267770D01*
X29757154Y3591763D01*
X29630738Y3896957D01*
X29447211Y4171625D01*
X29213625Y4405211D01*
X28938957Y4588738D01*
X28633763Y4715154D01*
X28309770Y4779600D01*
X27979430Y4779600D01*
X27655437Y4715154D01*
X27480937Y4642873D01*
X27567823Y4711817D01*
X27717985Y4888767D01*
X27830740Y5091613D01*
X27888403Y5252856D01*
X27762961Y5435600D01*
X26771600Y5435600D01*
X26771600Y4537796D01*
X26956416Y4397841D01*
X27145196Y4451730D01*
X27075575Y4405211D01*
X26841989Y4171625D01*
X26658462Y3896957D01*
X26532046Y3591763D01*
X26467600Y3267770D01*
X14793020Y3267770D01*
X14859000Y3333750D01*
X14859000Y3872542D01*
X14834597Y3995223D01*
X14786730Y4110785D01*
X14717237Y4214789D01*
X14628789Y4303237D01*
X14524785Y4372730D01*
X14409223Y4420597D01*
X14378609Y4426687D01*
X14388196Y4429595D01*
X14462376Y4469245D01*
X14527395Y4522605D01*
X14580755Y4587624D01*
X14620405Y4661804D01*
X14644822Y4742293D01*
X14653066Y4826000D01*
X14653066Y5252856D01*
X25400797Y5252856D01*
X25458460Y5091613D01*
X25571215Y4888767D01*
X25721377Y4711817D01*
X25903174Y4567562D01*
X26109621Y4461545D01*
X26332784Y4397841D01*
X26517600Y4537796D01*
X26517600Y5435600D01*
X25526239Y5435600D01*
X25400797Y5252856D01*
X14653066Y5252856D01*
X14653066Y5872344D01*
X25400797Y5872344D01*
X25526239Y5689600D01*
X26517600Y5689600D01*
X26517600Y6587404D01*
X26332784Y6727359D01*
X26109621Y6663655D01*
X25903174Y6557638D01*
X25721377Y6413383D01*
X25571215Y6236433D01*
X25458460Y6033587D01*
X25400797Y5872344D01*
X14653066Y5872344D01*
X14653066Y6350000D01*
X14644822Y6433707D01*
X14620405Y6514196D01*
X14580755Y6588376D01*
X14527395Y6653395D01*
X14462376Y6706755D01*
X14388196Y6746405D01*
X14378609Y6749313D01*
X14409223Y6755403D01*
X14524785Y6803270D01*
X14628789Y6872763D01*
X14717237Y6961211D01*
X14786730Y7065215D01*
X14834597Y7180777D01*
X14859000Y7303458D01*
X14859000Y7842250D01*
X14700250Y8001000D01*
X13589000Y8001000D01*
X13589000Y7981000D01*
X13335000Y7981000D01*
X13335000Y8001000D01*
X12223750Y8001000D01*
X12192000Y7969250D01*
X12160250Y8001000D01*
X11049000Y8001000D01*
X11049000Y7981000D01*
X10795000Y7981000D01*
X10795000Y8001000D01*
X9683750Y8001000D01*
X9525000Y7842250D01*
X756000Y7842250D01*
X756000Y8952542D01*
X9525000Y8952542D01*
X9525000Y8413750D01*
X9683750Y8255000D01*
X10795000Y8255000D01*
X10795000Y9366250D01*
X11049000Y9366250D01*
X11049000Y8255000D01*
X12160250Y8255000D01*
X12192000Y8286750D01*
X12223750Y8255000D01*
X13335000Y8255000D01*
X13335000Y9366250D01*
X13589000Y9366250D01*
X13589000Y8255000D01*
X14700250Y8255000D01*
X14859000Y8413750D01*
X14859000Y8952542D01*
X14837057Y9062856D01*
X25400797Y9062856D01*
X25458460Y8901613D01*
X25571215Y8698767D01*
X25721377Y8521817D01*
X25903174Y8377562D01*
X26109621Y8271545D01*
X26332784Y8207841D01*
X26517600Y8347796D01*
X26517600Y9245600D01*
X26771600Y9245600D01*
X26771600Y8347796D01*
X26956416Y8207841D01*
X27076618Y8242154D01*
X27062873Y8102600D01*
X27081737Y7911075D01*
X27137603Y7726909D01*
X27228324Y7557182D01*
X27301842Y7467600D01*
X27228324Y7378018D01*
X27137603Y7208291D01*
X27081737Y7024125D01*
X27062873Y6832600D01*
X27076618Y6693046D01*
X26956416Y6727359D01*
X26771600Y6587404D01*
X26771600Y5689600D01*
X27762961Y5689600D01*
X27884490Y5866643D01*
X27996607Y5855600D01*
X28292593Y5855600D01*
X28436125Y5869737D01*
X28620291Y5925603D01*
X28790018Y6016324D01*
X28938786Y6138414D01*
X29060876Y6287182D01*
X29151597Y6456909D01*
X29207463Y6641075D01*
X29226327Y6832600D01*
X29207463Y7024125D01*
X29151597Y7208291D01*
X29060876Y7378018D01*
X28987358Y7467600D01*
X29060876Y7557182D01*
X29151597Y7726909D01*
X29207463Y7911075D01*
X29226327Y8102600D01*
X29207463Y8294125D01*
X29151597Y8478291D01*
X29060876Y8648018D01*
X28938786Y8796786D01*
X28790018Y8918876D01*
X28620291Y9009597D01*
X28436125Y9065463D01*
X28292593Y9079600D01*
X27996607Y9079600D01*
X27884490Y9068557D01*
X27762961Y9245600D01*
X26771600Y9245600D01*
X26517600Y9245600D01*
X25526239Y9245600D01*
X25400797Y9062856D01*
X14837057Y9062856D01*
X14834597Y9075223D01*
X14786730Y9190785D01*
X14717237Y9294789D01*
X14628789Y9383237D01*
X14524785Y9452730D01*
X14409223Y9500597D01*
X14286542Y9525000D01*
X13747750Y9525000D01*
X13589000Y9366250D01*
X13335000Y9366250D01*
X13176250Y9525000D01*
X12637458Y9525000D01*
X12514777Y9500597D01*
X12399215Y9452730D01*
X12295211Y9383237D01*
X12206763Y9294789D01*
X12192000Y9272695D01*
X12177237Y9294789D01*
X12088789Y9383237D01*
X11984785Y9452730D01*
X11869223Y9500597D01*
X11746542Y9525000D01*
X11207750Y9525000D01*
X11049000Y9366250D01*
X10795000Y9366250D01*
X10636250Y9525000D01*
X10097458Y9525000D01*
X9974777Y9500597D01*
X9859215Y9452730D01*
X9755211Y9383237D01*
X9666763Y9294789D01*
X9597270Y9190785D01*
X9549403Y9075223D01*
X9525000Y8952542D01*
X756000Y8952542D01*
X756000Y9682344D01*
X25400797Y9682344D01*
X25526239Y9499600D01*
X26517600Y9499600D01*
X26517600Y10397404D01*
X26332784Y10537359D01*
X26109621Y10473655D01*
X25903174Y10367638D01*
X25721377Y10223383D01*
X25571215Y10046433D01*
X25458460Y9843587D01*
X25400797Y9682344D01*
X756000Y9682344D01*
X756000Y12872856D01*
X25400797Y12872856D01*
X25458460Y12711613D01*
X25571215Y12508767D01*
X25721377Y12331817D01*
X25903174Y12187562D01*
X26109621Y12081545D01*
X26332784Y12017841D01*
X26517600Y12157796D01*
X26517600Y13055600D01*
X26771600Y13055600D01*
X26771600Y12157796D01*
X26956416Y12017841D01*
X27076618Y12052154D01*
X27062873Y11912600D01*
X27081737Y11721075D01*
X27137603Y11536909D01*
X27228324Y11367182D01*
X27301842Y11277600D01*
X27228324Y11188018D01*
X27137603Y11018291D01*
X27081737Y10834125D01*
X27062873Y10642600D01*
X27076618Y10503046D01*
X26956416Y10537359D01*
X26771600Y10397404D01*
X26771600Y9499600D01*
X27762961Y9499600D01*
X27884490Y9676643D01*
X27996607Y9665600D01*
X28292593Y9665600D01*
X28436125Y9679737D01*
X28620291Y9735603D01*
X28790018Y9826324D01*
X28938786Y9948414D01*
X29060876Y10097182D01*
X29151597Y10266909D01*
X29207463Y10451075D01*
X29226327Y10642600D01*
X29207463Y10834125D01*
X29151597Y11018291D01*
X29060876Y11188018D01*
X28987358Y11277600D01*
X29060876Y11367182D01*
X29151597Y11536909D01*
X29207463Y11721075D01*
X29226327Y11912600D01*
X29207463Y12104125D01*
X29151597Y12288291D01*
X29060876Y12458018D01*
X28938786Y12606786D01*
X28790018Y12728876D01*
X28620291Y12819597D01*
X28436125Y12875463D01*
X28292593Y12889600D01*
X27996607Y12889600D01*
X27884490Y12878557D01*
X27762961Y13055600D01*
X26771600Y13055600D01*
X26517600Y13055600D01*
X25526239Y13055600D01*
X25400797Y12872856D01*
X756000Y12872856D01*
X756000Y13492344D01*
X25400797Y13492344D01*
X25526239Y13309600D01*
X26517600Y13309600D01*
X26517600Y14207404D01*
X26771600Y14207404D01*
X26771600Y13309600D01*
X27762961Y13309600D01*
X27888403Y13492344D01*
X27830740Y13653587D01*
X27717985Y13856433D01*
X27567823Y14033383D01*
X27386026Y14177638D01*
X27179579Y14283655D01*
X26956416Y14347359D01*
X26771600Y14207404D01*
X26517600Y14207404D01*
X26332784Y14347359D01*
X26109621Y14283655D01*
X25903174Y14177638D01*
X25721377Y14033383D01*
X25571215Y13856433D01*
X25458460Y13653587D01*
X25400797Y13492344D01*
X756000Y13492344D01*
X756000Y15208250D01*
X13335000Y15208250D01*
X13335000Y14669458D01*
X13359403Y14546777D01*
X13407270Y14431215D01*
X13476763Y14327211D01*
X13565211Y14238763D01*
X13669215Y14169270D01*
X13784777Y14121403D01*
X13907458Y14097000D01*
X14446250Y14097000D01*
X14605000Y14255750D01*
X14605000Y15367000D01*
X13493750Y15367000D01*
X13335000Y15208250D01*
X756000Y15208250D01*
X756000Y17748250D01*
X13335000Y17748250D01*
X13335000Y17209458D01*
X13359403Y17086777D01*
X13407270Y16971215D01*
X13476763Y16867211D01*
X13565211Y16778763D01*
X13587305Y16764000D01*
X13565211Y16749237D01*
X13476763Y16660789D01*
X13407270Y16556785D01*
X13359403Y16441223D01*
X13335000Y16318542D01*
X13335000Y15779750D01*
X13493750Y15621000D01*
X14605000Y15621000D01*
X14605000Y16732250D01*
X14573250Y16764000D01*
X14605000Y16795750D01*
X14605000Y17907000D01*
X13493750Y17907000D01*
X13335000Y17748250D01*
X756000Y17748250D01*
X756000Y18858542D01*
X13335000Y18858542D01*
X13335000Y18319750D01*
X13493750Y18161000D01*
X14605000Y18161000D01*
X14605000Y19272250D01*
X14859000Y19272250D01*
X14859000Y18161000D01*
X14879000Y18161000D01*
X14879000Y17907000D01*
X14859000Y17907000D01*
X14859000Y16795750D01*
X14890750Y16764000D01*
X14859000Y16732250D01*
X14859000Y15621000D01*
X14879000Y15621000D01*
X14879000Y15367000D01*
X14859000Y15367000D01*
X14859000Y14255750D01*
X15017750Y14097000D01*
X15556542Y14097000D01*
X15679223Y14121403D01*
X15794785Y14169270D01*
X15898789Y14238763D01*
X15987237Y14327211D01*
X16056730Y14431215D01*
X16104597Y14546777D01*
X16110687Y14577391D01*
X16113595Y14567804D01*
X16153245Y14493624D01*
X16206605Y14428605D01*
X16271624Y14375245D01*
X16345804Y14335595D01*
X16426293Y14311178D01*
X16510000Y14302934D01*
X18034000Y14302934D01*
X18117707Y14311178D01*
X18198196Y14335595D01*
X18272376Y14375245D01*
X18337395Y14428605D01*
X18390755Y14493624D01*
X18430405Y14567804D01*
X18454822Y14648293D01*
X18463066Y14732000D01*
X18463066Y16256000D01*
X18454822Y16339707D01*
X18430405Y16420196D01*
X18390755Y16494376D01*
X18337395Y16559395D01*
X18272376Y16612755D01*
X18198196Y16652405D01*
X18117707Y16676822D01*
X18034000Y16685066D01*
X16510000Y16685066D01*
X16426293Y16676822D01*
X16345804Y16652405D01*
X16271624Y16612755D01*
X16206605Y16559395D01*
X16153245Y16494376D01*
X16113595Y16420196D01*
X16110687Y16410609D01*
X16104597Y16441223D01*
X16056730Y16556785D01*
X15987237Y16660789D01*
X15898789Y16749237D01*
X15876695Y16764000D01*
X15898789Y16778763D01*
X15987237Y16867211D01*
X16056730Y16971215D01*
X16104597Y17086777D01*
X16110687Y17117391D01*
X16113595Y17107804D01*
X16153245Y17033624D01*
X16206605Y16968605D01*
X16271624Y16915245D01*
X16345804Y16875595D01*
X16426293Y16851178D01*
X16510000Y16842934D01*
X18034000Y16842934D01*
X18117707Y16851178D01*
X18198196Y16875595D01*
X18272376Y16915245D01*
X18337395Y16968605D01*
X18390755Y17033624D01*
X18430405Y17107804D01*
X18454822Y17188293D01*
X18463066Y17272000D01*
X18463066Y18796000D01*
X18620934Y18796000D01*
X18620934Y17272000D01*
X18629178Y17188293D01*
X18653595Y17107804D01*
X18693245Y17033624D01*
X18746605Y16968605D01*
X18811624Y16915245D01*
X18885804Y16875595D01*
X18966293Y16851178D01*
X19050000Y16842934D01*
X20574000Y16842934D01*
X20657707Y16851178D01*
X20738196Y16875595D01*
X20812376Y16915245D01*
X20877395Y16968605D01*
X20930755Y17033624D01*
X20970405Y17107804D01*
X20973313Y17117391D01*
X20979403Y17086777D01*
X21027270Y16971215D01*
X21096763Y16867211D01*
X21185211Y16778763D01*
X21207305Y16764000D01*
X21185211Y16749237D01*
X21096763Y16660789D01*
X21027270Y16556785D01*
X20979403Y16441223D01*
X20973313Y16410609D01*
X20970405Y16420196D01*
X20930755Y16494376D01*
X20877395Y16559395D01*
X20812376Y16612755D01*
X20738196Y16652405D01*
X20657707Y16676822D01*
X20574000Y16685066D01*
X19050000Y16685066D01*
X18966293Y16676822D01*
X18885804Y16652405D01*
X18811624Y16612755D01*
X18746605Y16559395D01*
X18693245Y16494376D01*
X18653595Y16420196D01*
X18629178Y16339707D01*
X18620934Y16256000D01*
X18620934Y14732000D01*
X18629178Y14648293D01*
X18653595Y14567804D01*
X18693245Y14493624D01*
X18746605Y14428605D01*
X18811624Y14375245D01*
X18885804Y14335595D01*
X18966293Y14311178D01*
X19050000Y14302934D01*
X20574000Y14302934D01*
X20657707Y14311178D01*
X20738196Y14335595D01*
X20812376Y14375245D01*
X20877395Y14428605D01*
X20930755Y14493624D01*
X20970405Y14567804D01*
X20973313Y14577391D01*
X20979403Y14546777D01*
X21027270Y14431215D01*
X21096763Y14327211D01*
X21185211Y14238763D01*
X21289215Y14169270D01*
X21404777Y14121403D01*
X21527458Y14097000D01*
X22066250Y14097000D01*
X22225000Y14255750D01*
X22225000Y15367000D01*
X22479000Y15367000D01*
X22479000Y14255750D01*
X22637750Y14097000D01*
X23176542Y14097000D01*
X23299223Y14121403D01*
X23414785Y14169270D01*
X23518789Y14238763D01*
X23607237Y14327211D01*
X23676730Y14431215D01*
X23724597Y14546777D01*
X23749000Y14669458D01*
X23749000Y15208250D01*
X23590250Y15367000D01*
X22479000Y15367000D01*
X22225000Y15367000D01*
X22205000Y15367000D01*
X22205000Y15621000D01*
X22225000Y15621000D01*
X22225000Y16732250D01*
X22193250Y16764000D01*
X22225000Y16795750D01*
X22225000Y17907000D01*
X22479000Y17907000D01*
X22479000Y16795750D01*
X22510750Y16764000D01*
X22479000Y16732250D01*
X22479000Y15621000D01*
X23590250Y15621000D01*
X23749000Y15779750D01*
X23749000Y16097770D01*
X27467600Y16097770D01*
X27467600Y15767430D01*
X27532046Y15443437D01*
X27658462Y15138243D01*
X27841989Y14863575D01*
X28075575Y14629989D01*
X28350243Y14446462D01*
X28655437Y14320046D01*
X28979430Y14255600D01*
X29309770Y14255600D01*
X29633763Y14320046D01*
X29938957Y14446462D01*
X30213625Y14629989D01*
X30447211Y14863575D01*
X30630738Y15138243D01*
X30757154Y15443437D01*
X30821600Y15767430D01*
X30821600Y16097770D01*
X30757154Y16421763D01*
X30630738Y16726957D01*
X30447211Y17001625D01*
X30213625Y17235211D01*
X29938957Y17418738D01*
X29633763Y17545154D01*
X29309770Y17609600D01*
X28979430Y17609600D01*
X28655437Y17545154D01*
X28350243Y17418738D01*
X28075575Y17235211D01*
X27841989Y17001625D01*
X27658462Y16726957D01*
X27532046Y16421763D01*
X27467600Y16097770D01*
X23749000Y16097770D01*
X23749000Y16318542D01*
X23724597Y16441223D01*
X23676730Y16556785D01*
X23607237Y16660789D01*
X23518789Y16749237D01*
X23496695Y16764000D01*
X23518789Y16778763D01*
X23607237Y16867211D01*
X23676730Y16971215D01*
X23724597Y17086777D01*
X23749000Y17209458D01*
X23749000Y17748250D01*
X23590250Y17907000D01*
X22479000Y17907000D01*
X22225000Y17907000D01*
X22205000Y17907000D01*
X22205000Y18161000D01*
X22225000Y18161000D01*
X22225000Y19272250D01*
X22479000Y19272250D01*
X22479000Y18161000D01*
X23590250Y18161000D01*
X23749000Y18319750D01*
X23749000Y18858542D01*
X23724597Y18981223D01*
X23676730Y19096785D01*
X23607237Y19200789D01*
X23518789Y19289237D01*
X23414785Y19358730D01*
X23299223Y19406597D01*
X23176542Y19431000D01*
X22637750Y19431000D01*
X22479000Y19272250D01*
X22225000Y19272250D01*
X22066250Y19431000D01*
X21527458Y19431000D01*
X21404777Y19406597D01*
X21289215Y19358730D01*
X21185211Y19289237D01*
X21096763Y19200789D01*
X21027270Y19096785D01*
X20979403Y18981223D01*
X20973313Y18950609D01*
X20970405Y18960196D01*
X20930755Y19034376D01*
X20877395Y19099395D01*
X20812376Y19152755D01*
X20738196Y19192405D01*
X20657707Y19216822D01*
X20574000Y19225066D01*
X19050000Y19225066D01*
X18966293Y19216822D01*
X18885804Y19192405D01*
X18811624Y19152755D01*
X18746605Y19099395D01*
X18693245Y19034376D01*
X18653595Y18960196D01*
X18629178Y18879707D01*
X18620934Y18796000D01*
X18463066Y18796000D01*
X18454822Y18879707D01*
X18430405Y18960196D01*
X18390755Y19034376D01*
X18337395Y19099395D01*
X18272376Y19152755D01*
X18198196Y19192405D01*
X18117707Y19216822D01*
X18034000Y19225066D01*
X16510000Y19225066D01*
X16426293Y19216822D01*
X16345804Y19192405D01*
X16271624Y19152755D01*
X16206605Y19099395D01*
X16153245Y19034376D01*
X16113595Y18960196D01*
X16110687Y18950609D01*
X16104597Y18981223D01*
X16056730Y19096785D01*
X15987237Y19200789D01*
X15898789Y19289237D01*
X15794785Y19358730D01*
X15679223Y19406597D01*
X15556542Y19431000D01*
X15017750Y19431000D01*
X14859000Y19272250D01*
X14605000Y19272250D01*
X14446250Y19431000D01*
X13907458Y19431000D01*
X13784777Y19406597D01*
X13669215Y19358730D01*
X13565211Y19289237D01*
X13476763Y19200789D01*
X13407270Y19096785D01*
X13359403Y18981223D01*
X13335000Y18858542D01*
X756000Y18858542D01*
X756000Y19564000D01*
X39884001Y19564000D01*
X39884000Y756000D01*
M02*
