M48
; DRILL file {KiCad (5.1.0-rc1-108-gb4c0af021)} date 21.02.2019 20:09:26
; FORMAT={3:3/ absolute / metric / suppress leading zeros}
; #@! TF.CreationDate,2019-02-21T20:09:26+01:00
; #@! TF.GenerationSoftware,Kicad,Pcbnew,(5.1.0-rc1-108-gb4c0af021)
FMAT,2
METRIC,TZ
T1C0.400
T2C0.740
T3C0.889
T4C1.350
T5C3.000
%
G90
G05
T1
X15621Y13081
X15621Y12065
X15621Y11049
X20320Y3556
X21463Y3556
X22225Y13208
X22225Y12192
X22225Y11176
X22479Y3556
T2
X26645Y13183
X26645Y9373
X26645Y5563
X28145Y11913
X28145Y10643
X28145Y8103
X28145Y6833
T3
X17272Y18034
X17272Y15494
X14732Y18034
X14732Y15494
X22352Y18034
X22352Y15494
X10922Y8128
X10922Y5588
X10922Y3048
X13462Y8128
X13462Y5588
X13462Y3048
X19812Y18034
X19812Y15494
T4
X28145Y3103
X29145Y15933
T5
X5080Y5080
X35560Y15240
X5080Y15240
X35560Y5080
T0
M30
