G04 #@! TF.FileFunction,Copper,L1,Top,Signal*
%FSLAX46Y46*%
G04 Gerber Fmt 4.6, Leading zero omitted, Abs format (unit mm)*
G04 Created by KiCad (PCBNEW 4.0.3-stable) date 09/22/16 07:48:20*
%MOMM*%
%LPD*%
G01*
G04 APERTURE LIST*
%ADD10C,0.500000*%
%ADD11R,3.810000X3.810000*%
%ADD12C,6.000000*%
%ADD13R,1.524000X1.524000*%
%ADD14R,4.000000X4.000000*%
%ADD15C,4.000000*%
%ADD16C,0.800000*%
%ADD17C,0.600000*%
%ADD18C,0.300000*%
%ADD19C,0.800000*%
%ADD20C,0.900000*%
%ADD21C,0.254000*%
G04 APERTURE END LIST*
D10*
D11*
X45640000Y12700000D03*
X40640000Y12700000D03*
X45640000Y17780000D03*
X40640000Y17780000D03*
X5160000Y12700000D03*
X10160000Y12700000D03*
X5160000Y17780000D03*
X10160000Y17780000D03*
D12*
X5080000Y5080000D03*
X45720000Y35560000D03*
X5080000Y35560000D03*
X45720000Y5080000D03*
D13*
X6350000Y23876000D03*
X3810000Y23876000D03*
X6350000Y26416000D03*
X3810000Y26416000D03*
X14732000Y2794000D03*
X14732000Y5334000D03*
X32512000Y5334000D03*
X32512000Y2794000D03*
X35052000Y5334000D03*
X35052000Y2794000D03*
X37592000Y5334000D03*
X37592000Y2794000D03*
X25400000Y20574000D03*
X25400000Y18034000D03*
X20320000Y20574000D03*
X20320000Y18034000D03*
X22860000Y20574000D03*
X22860000Y18034000D03*
X6350000Y28956000D03*
X3810000Y28956000D03*
X17272000Y2794000D03*
X17272000Y5334000D03*
X29972000Y5334000D03*
X29972000Y2794000D03*
D14*
X40466000Y26162000D03*
D15*
X45466000Y26162000D03*
D16*
X26924000Y24434800D03*
X46024800Y23672800D03*
X48869600Y31496000D03*
X46177200Y30480000D03*
X48387000Y28956000D03*
X45720000Y28498800D03*
X47498000Y26619200D03*
X48920400Y26263600D03*
X48387000Y23368000D03*
X48818800Y21082000D03*
X49072800Y18389600D03*
X11379200Y8128000D03*
X12700000Y8178800D03*
X12801600Y9550402D03*
X11684000Y9702798D03*
X20828000Y5969000D03*
X19812000Y4699000D03*
X22098000Y4572000D03*
X24003000Y4699000D03*
X21209000Y1397000D03*
X27559000Y2159000D03*
X26289006Y1778000D03*
X24765000Y1397000D03*
X23241000Y1397000D03*
X19558000Y1397000D03*
X28702000Y4445000D03*
X32512000Y7112000D03*
X26416000Y25781000D03*
X10160000Y8128000D03*
X8636000Y8128000D03*
X9652000Y6096000D03*
X9652000Y3556000D03*
X9144000Y1524000D03*
X18288000Y21844000D03*
X18288000Y20828000D03*
X18288000Y19304000D03*
X17272000Y18288000D03*
X18288000Y17272000D03*
X23368000Y29464000D03*
X22352000Y30480000D03*
X20828000Y30480000D03*
X19304000Y30480000D03*
X18796000Y29464000D03*
X18288000Y28448000D03*
X22352000Y26924000D03*
X23368000Y27940000D03*
X21336000Y26924000D03*
X20320000Y26924000D03*
X18796000Y26924000D03*
X38100000Y1524000D03*
X39116000Y2540000D03*
X39116000Y4064000D03*
X39116000Y5588000D03*
X27940000Y3556000D03*
X39116000Y36576000D03*
X37592000Y37592000D03*
X36068000Y37592000D03*
X34036000Y37592000D03*
X32512000Y37592000D03*
X30988000Y37592000D03*
X29464000Y37592000D03*
X27940000Y37592000D03*
X26416000Y37592000D03*
X24892000Y37592000D03*
X23368000Y37592000D03*
X21844000Y37592000D03*
X20320000Y37592000D03*
X18288000Y37592000D03*
X16256000Y37592000D03*
X14224000Y37592000D03*
X11176000Y37592000D03*
X9652000Y34544000D03*
X9144000Y32512000D03*
X7620000Y30988000D03*
X5588000Y30988000D03*
X3556000Y30988000D03*
X1524000Y30988000D03*
X1524000Y28956000D03*
X1524000Y27432000D03*
X1524000Y25908000D03*
X6096000Y22352000D03*
X4572000Y22352000D03*
X3048000Y22352000D03*
X1524000Y24384000D03*
X1524000Y22860000D03*
X1524000Y20828000D03*
X1524000Y19304000D03*
X1524000Y17780000D03*
X1524000Y16256000D03*
X31496000Y7112000D03*
X32004000Y9144000D03*
X29972000Y9144000D03*
X29972000Y7112000D03*
X38100000Y14732000D03*
X38100000Y13716000D03*
X38100000Y12192000D03*
X38100000Y11176000D03*
X38100000Y10160000D03*
X39116000Y10160000D03*
X40640000Y9652000D03*
X41656000Y9652000D03*
X43180000Y9652000D03*
X44704000Y9652000D03*
X46228000Y9652000D03*
X47752000Y9652000D03*
X48768000Y10160000D03*
X48768000Y11684000D03*
X48768000Y13208000D03*
X48768000Y14732000D03*
X23876000Y11684000D03*
X21844000Y11684000D03*
X20320000Y11684000D03*
X18796000Y11684000D03*
X17780000Y12700000D03*
X16256000Y12700000D03*
X14732000Y12700000D03*
X13208000Y14224000D03*
X13208000Y12700000D03*
X13208000Y11684000D03*
X13208000Y10668000D03*
X10668000Y9652000D03*
X9144000Y9652000D03*
X7620000Y9652000D03*
X6096000Y9652000D03*
X4572000Y9652000D03*
X3048000Y9652000D03*
X2032000Y10668000D03*
X2032000Y11684000D03*
X2032000Y12700000D03*
X2032000Y13716000D03*
X27432000Y16002000D03*
X27432000Y17272000D03*
X27432000Y18796000D03*
X27432000Y20320000D03*
X33020000Y13208000D03*
X34036000Y12700000D03*
X34036000Y13716000D03*
X34036000Y14732000D03*
X34036000Y15748000D03*
X34036000Y16764000D03*
X33528000Y18288000D03*
X35052000Y17780000D03*
X35560000Y18796000D03*
X36068000Y20320000D03*
X36576000Y23876000D03*
X35560000Y23876000D03*
X34544000Y23368000D03*
X34544000Y22352000D03*
X34544000Y21336000D03*
X34544000Y20320000D03*
X34544000Y19304000D03*
X32512000Y17272000D03*
X32512000Y19304000D03*
X29464000Y17272000D03*
X29464000Y19304000D03*
X30988000Y18288000D03*
X15240000Y19558000D03*
X31623000Y13208000D03*
X29464000Y22860000D03*
X23114002Y25273000D03*
X34290000Y25527000D03*
D17*
X26524001Y24834799D02*
X26924000Y24434800D01*
X26416000Y24942800D02*
X26524001Y24834799D01*
X26416000Y25781000D02*
X26416000Y24942800D01*
D18*
X46329600Y23368000D02*
X46024800Y23672800D01*
X48387000Y23368000D02*
X46329600Y23368000D01*
X48387000Y28956000D02*
X46811920Y28956000D01*
X46811920Y28956000D02*
X46177200Y29590720D01*
X46177200Y29590720D02*
X46177200Y30480000D01*
X45720000Y28498800D02*
X47929800Y28498800D01*
X47929800Y28498800D02*
X48387000Y28956000D01*
X48920400Y26263600D02*
X47853600Y26263600D01*
X47853600Y26263600D02*
X47498000Y26619200D01*
X49072800Y18389600D02*
X49072800Y20828000D01*
X49072800Y20828000D02*
X48818800Y21082000D01*
D17*
X12700000Y8178800D02*
X11430000Y8178800D01*
X11430000Y8178800D02*
X11379200Y8128000D01*
X12700000Y8686798D02*
X12700000Y8178800D01*
X11684000Y9702798D02*
X12700000Y8686798D01*
X11684000Y9702798D02*
X12649204Y9702798D01*
X12649204Y9702798D02*
X12801600Y9550402D01*
D10*
X19812000Y4699000D02*
X19812000Y4953000D01*
X19812000Y4953000D02*
X20828000Y5969000D01*
X24003000Y4699000D02*
X22225000Y4699000D01*
X22225000Y4699000D02*
X22098000Y4572000D01*
D17*
X19558000Y1397000D02*
X21209000Y1397000D01*
X27178000Y1778000D02*
X27559000Y2159000D01*
X26289006Y1778000D02*
X27178000Y1778000D01*
X23241000Y1397000D02*
X24765000Y1397000D01*
X28702000Y4318000D02*
X28702000Y4445000D01*
X27940000Y3556000D02*
X28702000Y4318000D01*
X9652000Y6096000D02*
X9652000Y7112000D01*
X9652000Y7112000D02*
X8636000Y8128000D01*
X9144000Y1524000D02*
X9144000Y3048000D01*
X9144000Y3048000D02*
X9652000Y3556000D01*
X18288000Y19304000D02*
X18288000Y20828000D01*
X18288000Y17272000D02*
X17272000Y18288000D01*
X20828000Y30480000D02*
X22352000Y30480000D01*
X18796000Y29464000D02*
X18796000Y29972000D01*
X18796000Y29972000D02*
X19304000Y30480000D01*
X18796000Y26924000D02*
X18796000Y27940000D01*
X18796000Y27940000D02*
X18288000Y28448000D01*
X22352000Y26924000D02*
X23368000Y27940000D01*
X21336000Y26924000D02*
X22352000Y26924000D01*
X18796000Y26924000D02*
X20320000Y26924000D01*
X39116000Y4064000D02*
X39116000Y2540000D01*
X37592000Y5334000D02*
X38862000Y5334000D01*
X38862000Y5334000D02*
X39116000Y5588000D01*
X36068000Y37592000D02*
X37592000Y37592000D01*
X32512000Y37592000D02*
X34036000Y37592000D01*
X29464000Y37592000D02*
X30988000Y37592000D01*
X26416000Y37592000D02*
X27940000Y37592000D01*
X23368000Y37592000D02*
X24892000Y37592000D01*
X20320000Y37592000D02*
X21844000Y37592000D01*
X16256000Y37592000D02*
X18288000Y37592000D01*
X11176000Y37592000D02*
X14224000Y37592000D01*
X9144000Y32512000D02*
X9144000Y34036000D01*
X9144000Y34036000D02*
X9652000Y34544000D01*
X5588000Y30988000D02*
X7620000Y30988000D01*
X1524000Y30988000D02*
X3556000Y30988000D01*
X1524000Y27432000D02*
X1524000Y28956000D01*
X1524000Y24384000D02*
X1524000Y25908000D01*
X3048000Y22352000D02*
X4572000Y22352000D01*
X1524000Y22860000D02*
X1524000Y24384000D01*
X1524000Y19304000D02*
X1524000Y20828000D01*
X1524000Y16256000D02*
X1524000Y17780000D01*
X32004000Y9144000D02*
X31496000Y7112000D01*
X29972000Y7112000D02*
X29972000Y9144000D01*
X38100000Y12192000D02*
X38100000Y13716000D01*
X38100000Y10160000D02*
X38100000Y11176000D01*
X40640000Y9652000D02*
X39624000Y9652000D01*
X39624000Y9652000D02*
X39116000Y10160000D01*
X43180000Y9652000D02*
X41656000Y9652000D01*
X46228000Y9652000D02*
X44704000Y9652000D01*
X48768000Y10160000D02*
X48260000Y10160000D01*
X48260000Y10160000D02*
X47752000Y9652000D01*
X48768000Y13208000D02*
X48768000Y11684000D01*
X45640000Y12700000D02*
X46736000Y12700000D01*
X46736000Y12700000D02*
X48768000Y14732000D01*
X20320000Y11684000D02*
X21844000Y11684000D01*
X17780000Y12700000D02*
X18796000Y11684000D01*
X14732000Y12700000D02*
X16256000Y12700000D01*
X13208000Y12700000D02*
X13208000Y14224000D01*
X13208000Y10668000D02*
X13208000Y11684000D01*
X9144000Y9652000D02*
X10668000Y9652000D01*
X6096000Y9652000D02*
X7620000Y9652000D01*
X3048000Y9652000D02*
X4572000Y9652000D01*
X2032000Y11684000D02*
X2032000Y10668000D01*
X2032000Y13716000D02*
X2032000Y12700000D01*
X27432000Y17272000D02*
X27432000Y16256000D01*
X27432000Y20320000D02*
X27432000Y18796000D01*
X34036000Y12700000D02*
X33528000Y12700000D01*
X33528000Y12700000D02*
X33020000Y13208000D01*
X34036000Y14732000D02*
X34036000Y13716000D01*
X34036000Y16764000D02*
X34036000Y15748000D01*
X32512000Y17272000D02*
X33528000Y18288000D01*
X33528000Y18288000D02*
X34544000Y19304000D01*
X35052000Y17780000D02*
X34036000Y17780000D01*
X34036000Y17780000D02*
X33528000Y18288000D01*
X36068000Y20320000D02*
X36068000Y19304000D01*
X36068000Y19304000D02*
X35560000Y18796000D01*
X35560000Y23876000D02*
X36576000Y23876000D01*
X34544000Y22352000D02*
X34544000Y23368000D01*
X34544000Y20320000D02*
X34544000Y21336000D01*
X29464000Y19304000D02*
X29464000Y17272000D01*
D19*
X15240000Y18992315D02*
X15240000Y19558000D01*
X15240000Y18288000D02*
X15240000Y18992315D01*
X20320000Y13208000D02*
X15240000Y18288000D01*
X31623000Y13208000D02*
X20320000Y13208000D01*
D17*
X29464000Y22860000D02*
X27686000Y22860000D01*
X27686000Y22860000D02*
X25400000Y20574000D01*
D20*
X23514001Y25672999D02*
X23114002Y25273000D01*
X24784001Y26942999D02*
X23514001Y25672999D01*
X34290000Y25527000D02*
X32874001Y26942999D01*
X32874001Y26942999D02*
X24784001Y26942999D01*
D21*
G36*
X43385296Y39060741D02*
X42223340Y37900810D01*
X41593718Y36384513D01*
X41592285Y34742690D01*
X42219259Y33225296D01*
X43379190Y32063340D01*
X44895487Y31433718D01*
X46537310Y31432285D01*
X48054704Y32059259D01*
X49216660Y33219190D01*
X49836000Y34710725D01*
X49836000Y5925662D01*
X49220741Y7414704D01*
X48060810Y8576660D01*
X46544513Y9206282D01*
X44902690Y9207715D01*
X43385296Y8580741D01*
X42223340Y7420810D01*
X41593718Y5904513D01*
X41592285Y4262690D01*
X42219259Y2745296D01*
X43379190Y1583340D01*
X44870725Y964000D01*
X5925662Y964000D01*
X7414704Y1579259D01*
X8576660Y2739190D01*
X9206282Y4255487D01*
X9207715Y5897310D01*
X9125619Y6096000D01*
X15862560Y6096000D01*
X15862560Y4572000D01*
X15906838Y4336683D01*
X16045910Y4120559D01*
X16127770Y4064626D01*
X16058559Y4020090D01*
X15913569Y3807890D01*
X15862560Y3556000D01*
X15862560Y2032000D01*
X15906838Y1796683D01*
X16045910Y1580559D01*
X16258110Y1435569D01*
X16510000Y1384560D01*
X18034000Y1384560D01*
X18269317Y1428838D01*
X18485441Y1567910D01*
X18630431Y1780110D01*
X18681440Y2032000D01*
X18681440Y3556000D01*
X18637162Y3791317D01*
X18498090Y4007441D01*
X18416230Y4063374D01*
X18485441Y4107910D01*
X18630431Y4320110D01*
X18681440Y4572000D01*
X18681440Y6096000D01*
X31102560Y6096000D01*
X31102560Y4572000D01*
X31146838Y4336683D01*
X31285910Y4120559D01*
X31367770Y4064626D01*
X31298559Y4020090D01*
X31153569Y3807890D01*
X31102560Y3556000D01*
X31102560Y2032000D01*
X31146838Y1796683D01*
X31285910Y1580559D01*
X31498110Y1435569D01*
X31750000Y1384560D01*
X33274000Y1384560D01*
X33509317Y1428838D01*
X33725441Y1567910D01*
X33781374Y1649770D01*
X33825910Y1580559D01*
X34038110Y1435569D01*
X34290000Y1384560D01*
X35814000Y1384560D01*
X36049317Y1428838D01*
X36265441Y1567910D01*
X36410431Y1780110D01*
X36461440Y2032000D01*
X36461440Y3556000D01*
X36417162Y3791317D01*
X36278090Y4007441D01*
X36196230Y4063374D01*
X36265441Y4107910D01*
X36410431Y4320110D01*
X36461440Y4572000D01*
X36461440Y6096000D01*
X36417162Y6331317D01*
X36278090Y6547441D01*
X36065890Y6692431D01*
X35814000Y6743440D01*
X34290000Y6743440D01*
X34054683Y6699162D01*
X33838559Y6560090D01*
X33782626Y6478230D01*
X33738090Y6547441D01*
X33525890Y6692431D01*
X33274000Y6743440D01*
X31750000Y6743440D01*
X31514683Y6699162D01*
X31298559Y6560090D01*
X31153569Y6347890D01*
X31102560Y6096000D01*
X18681440Y6096000D01*
X18637162Y6331317D01*
X18498090Y6547441D01*
X18285890Y6692431D01*
X18034000Y6743440D01*
X16510000Y6743440D01*
X16274683Y6699162D01*
X16058559Y6560090D01*
X15913569Y6347890D01*
X15862560Y6096000D01*
X9125619Y6096000D01*
X8580741Y7414704D01*
X7420810Y8576660D01*
X5904513Y9206282D01*
X4262690Y9207715D01*
X2745296Y8580741D01*
X1583340Y7420810D01*
X964000Y5929275D01*
X964000Y19685000D01*
X2607560Y19685000D01*
X2607560Y15875000D01*
X2651838Y15639683D01*
X2790910Y15423559D01*
X3003110Y15278569D01*
X3255000Y15227560D01*
X7065000Y15227560D01*
X7300317Y15271838D01*
X7516441Y15410910D01*
X7661431Y15623110D01*
X7661687Y15624376D01*
X7790910Y15423559D01*
X8003110Y15278569D01*
X8255000Y15227560D01*
X12065000Y15227560D01*
X12300317Y15271838D01*
X12516441Y15410910D01*
X12661431Y15623110D01*
X12712440Y15875000D01*
X12712440Y19353029D01*
X14204821Y19353029D01*
X14205000Y19352596D01*
X14205000Y18288005D01*
X14204999Y18288000D01*
X14283785Y17891923D01*
X14508144Y17556144D01*
X19588142Y12476147D01*
X19588144Y12476144D01*
X19923923Y12251785D01*
X20320000Y12172999D01*
X20320005Y12173000D01*
X31622670Y12173000D01*
X31827971Y12172821D01*
X32208515Y12330058D01*
X32499919Y12620954D01*
X32657820Y13001223D01*
X32658179Y13412971D01*
X32500942Y13793515D01*
X32210046Y14084919D01*
X31829777Y14242820D01*
X31418029Y14243179D01*
X31417596Y14243000D01*
X20748711Y14243000D01*
X16275000Y18716712D01*
X16275000Y19558000D01*
X16275179Y19762971D01*
X16117942Y20143515D01*
X15827046Y20434919D01*
X15446777Y20592820D01*
X15035029Y20593179D01*
X14654485Y20435942D01*
X14363081Y20145046D01*
X14205180Y19764777D01*
X14204821Y19353029D01*
X12712440Y19353029D01*
X12712440Y19685000D01*
X12668162Y19920317D01*
X12529090Y20136441D01*
X12316890Y20281431D01*
X12065000Y20332440D01*
X8255000Y20332440D01*
X8019683Y20288162D01*
X7803559Y20149090D01*
X7658569Y19936890D01*
X7658313Y19935624D01*
X7529090Y20136441D01*
X7316890Y20281431D01*
X7065000Y20332440D01*
X3255000Y20332440D01*
X3019683Y20288162D01*
X2803559Y20149090D01*
X2658569Y19936890D01*
X2607560Y19685000D01*
X964000Y19685000D01*
X964000Y21336000D01*
X18910560Y21336000D01*
X18910560Y19812000D01*
X18954838Y19576683D01*
X19093910Y19360559D01*
X19175770Y19304626D01*
X19106559Y19260090D01*
X18961569Y19047890D01*
X18910560Y18796000D01*
X18910560Y17272000D01*
X18954838Y17036683D01*
X19093910Y16820559D01*
X19306110Y16675569D01*
X19558000Y16624560D01*
X21082000Y16624560D01*
X21317317Y16668838D01*
X21533441Y16807910D01*
X21589374Y16889770D01*
X21633910Y16820559D01*
X21846110Y16675569D01*
X22098000Y16624560D01*
X23622000Y16624560D01*
X23857317Y16668838D01*
X24073441Y16807910D01*
X24129374Y16889770D01*
X24173910Y16820559D01*
X24386110Y16675569D01*
X24638000Y16624560D01*
X26162000Y16624560D01*
X26397317Y16668838D01*
X26613441Y16807910D01*
X26758431Y17020110D01*
X26809440Y17272000D01*
X26809440Y18796000D01*
X26765162Y19031317D01*
X26626090Y19247441D01*
X26544230Y19303374D01*
X26613441Y19347910D01*
X26758431Y19560110D01*
X26783721Y19685000D01*
X38087560Y19685000D01*
X38087560Y15875000D01*
X38131838Y15639683D01*
X38270910Y15423559D01*
X38483110Y15278569D01*
X38735000Y15227560D01*
X42545000Y15227560D01*
X42780317Y15271838D01*
X42996441Y15410910D01*
X43141431Y15623110D01*
X43141687Y15624376D01*
X43270910Y15423559D01*
X43483110Y15278569D01*
X43735000Y15227560D01*
X47545000Y15227560D01*
X47780317Y15271838D01*
X47996441Y15410910D01*
X48141431Y15623110D01*
X48192440Y15875000D01*
X48192440Y19685000D01*
X48148162Y19920317D01*
X48009090Y20136441D01*
X47796890Y20281431D01*
X47545000Y20332440D01*
X43735000Y20332440D01*
X43499683Y20288162D01*
X43283559Y20149090D01*
X43138569Y19936890D01*
X43138313Y19935624D01*
X43009090Y20136441D01*
X42796890Y20281431D01*
X42545000Y20332440D01*
X38735000Y20332440D01*
X38499683Y20288162D01*
X38283559Y20149090D01*
X38138569Y19936890D01*
X38087560Y19685000D01*
X26783721Y19685000D01*
X26809440Y19812000D01*
X26809440Y20661150D01*
X28073290Y21925000D01*
X29016829Y21925000D01*
X29257223Y21825180D01*
X29668971Y21824821D01*
X30049515Y21982058D01*
X30340919Y22272954D01*
X30498820Y22653223D01*
X30499179Y23064971D01*
X30341942Y23445515D01*
X30051046Y23736919D01*
X29670777Y23894820D01*
X29259029Y23895179D01*
X29016576Y23795000D01*
X27686000Y23795000D01*
X27328191Y23723827D01*
X27024855Y23521145D01*
X25487150Y21983440D01*
X24638000Y21983440D01*
X24402683Y21939162D01*
X24186559Y21800090D01*
X24130626Y21718230D01*
X24086090Y21787441D01*
X23873890Y21932431D01*
X23622000Y21983440D01*
X22098000Y21983440D01*
X21862683Y21939162D01*
X21646559Y21800090D01*
X21590626Y21718230D01*
X21546090Y21787441D01*
X21333890Y21932431D01*
X21082000Y21983440D01*
X19558000Y21983440D01*
X19322683Y21939162D01*
X19106559Y21800090D01*
X18961569Y21587890D01*
X18910560Y21336000D01*
X964000Y21336000D01*
X964000Y27178000D01*
X2400560Y27178000D01*
X2400560Y25654000D01*
X2444838Y25418683D01*
X2583910Y25202559D01*
X2796110Y25057569D01*
X3048000Y25006560D01*
X4572000Y25006560D01*
X4807317Y25050838D01*
X5023441Y25189910D01*
X5079374Y25271770D01*
X5123910Y25202559D01*
X5336110Y25057569D01*
X5588000Y25006560D01*
X7112000Y25006560D01*
X7347317Y25050838D01*
X7563441Y25189910D01*
X7620213Y25273000D01*
X22029002Y25273000D01*
X22111593Y24857789D01*
X22346791Y24505789D01*
X22698791Y24270591D01*
X23114002Y24188000D01*
X23529213Y24270591D01*
X23881213Y24505789D01*
X25233423Y25857999D01*
X32424579Y25857999D01*
X33522789Y24759789D01*
X33874789Y24524591D01*
X34290000Y24442000D01*
X34705211Y24524591D01*
X35057211Y24759789D01*
X35292409Y25111789D01*
X35375000Y25527000D01*
X35292409Y25942211D01*
X35057211Y26294211D01*
X33641212Y27710210D01*
X33545098Y27774431D01*
X33289213Y27945408D01*
X32874001Y28027999D01*
X24784001Y28027999D01*
X24368789Y27945408D01*
X24112904Y27774431D01*
X24016790Y27710210D01*
X22346791Y26040211D01*
X22111593Y25688211D01*
X22029002Y25273000D01*
X7620213Y25273000D01*
X7708431Y25402110D01*
X7759440Y25654000D01*
X7759440Y27178000D01*
X7715162Y27413317D01*
X7576090Y27629441D01*
X7363890Y27774431D01*
X7112000Y27825440D01*
X5588000Y27825440D01*
X5352683Y27781162D01*
X5136559Y27642090D01*
X5080626Y27560230D01*
X5036090Y27629441D01*
X4823890Y27774431D01*
X4572000Y27825440D01*
X3048000Y27825440D01*
X2812683Y27781162D01*
X2596559Y27642090D01*
X2451569Y27429890D01*
X2400560Y27178000D01*
X964000Y27178000D01*
X964000Y28162000D01*
X37818560Y28162000D01*
X37818560Y24162000D01*
X37862838Y23926683D01*
X38001910Y23710559D01*
X38214110Y23565569D01*
X38466000Y23514560D01*
X42466000Y23514560D01*
X42701317Y23558838D01*
X42917441Y23697910D01*
X43062431Y23910110D01*
X43113440Y24162000D01*
X43113440Y28162000D01*
X43069162Y28397317D01*
X42930090Y28613441D01*
X42717890Y28758431D01*
X42466000Y28809440D01*
X38466000Y28809440D01*
X38230683Y28765162D01*
X38014559Y28626090D01*
X37869569Y28413890D01*
X37818560Y28162000D01*
X964000Y28162000D01*
X964000Y34714338D01*
X1579259Y33225296D01*
X2739190Y32063340D01*
X4255487Y31433718D01*
X5897310Y31432285D01*
X7414704Y32059259D01*
X8576660Y33219190D01*
X9206282Y34735487D01*
X9207715Y36377310D01*
X8580741Y37894704D01*
X7420810Y39056660D01*
X5929275Y39676000D01*
X44874338Y39676000D01*
X43385296Y39060741D01*
X43385296Y39060741D01*
G37*
X43385296Y39060741D02*
X42223340Y37900810D01*
X41593718Y36384513D01*
X41592285Y34742690D01*
X42219259Y33225296D01*
X43379190Y32063340D01*
X44895487Y31433718D01*
X46537310Y31432285D01*
X48054704Y32059259D01*
X49216660Y33219190D01*
X49836000Y34710725D01*
X49836000Y5925662D01*
X49220741Y7414704D01*
X48060810Y8576660D01*
X46544513Y9206282D01*
X44902690Y9207715D01*
X43385296Y8580741D01*
X42223340Y7420810D01*
X41593718Y5904513D01*
X41592285Y4262690D01*
X42219259Y2745296D01*
X43379190Y1583340D01*
X44870725Y964000D01*
X5925662Y964000D01*
X7414704Y1579259D01*
X8576660Y2739190D01*
X9206282Y4255487D01*
X9207715Y5897310D01*
X9125619Y6096000D01*
X15862560Y6096000D01*
X15862560Y4572000D01*
X15906838Y4336683D01*
X16045910Y4120559D01*
X16127770Y4064626D01*
X16058559Y4020090D01*
X15913569Y3807890D01*
X15862560Y3556000D01*
X15862560Y2032000D01*
X15906838Y1796683D01*
X16045910Y1580559D01*
X16258110Y1435569D01*
X16510000Y1384560D01*
X18034000Y1384560D01*
X18269317Y1428838D01*
X18485441Y1567910D01*
X18630431Y1780110D01*
X18681440Y2032000D01*
X18681440Y3556000D01*
X18637162Y3791317D01*
X18498090Y4007441D01*
X18416230Y4063374D01*
X18485441Y4107910D01*
X18630431Y4320110D01*
X18681440Y4572000D01*
X18681440Y6096000D01*
X31102560Y6096000D01*
X31102560Y4572000D01*
X31146838Y4336683D01*
X31285910Y4120559D01*
X31367770Y4064626D01*
X31298559Y4020090D01*
X31153569Y3807890D01*
X31102560Y3556000D01*
X31102560Y2032000D01*
X31146838Y1796683D01*
X31285910Y1580559D01*
X31498110Y1435569D01*
X31750000Y1384560D01*
X33274000Y1384560D01*
X33509317Y1428838D01*
X33725441Y1567910D01*
X33781374Y1649770D01*
X33825910Y1580559D01*
X34038110Y1435569D01*
X34290000Y1384560D01*
X35814000Y1384560D01*
X36049317Y1428838D01*
X36265441Y1567910D01*
X36410431Y1780110D01*
X36461440Y2032000D01*
X36461440Y3556000D01*
X36417162Y3791317D01*
X36278090Y4007441D01*
X36196230Y4063374D01*
X36265441Y4107910D01*
X36410431Y4320110D01*
X36461440Y4572000D01*
X36461440Y6096000D01*
X36417162Y6331317D01*
X36278090Y6547441D01*
X36065890Y6692431D01*
X35814000Y6743440D01*
X34290000Y6743440D01*
X34054683Y6699162D01*
X33838559Y6560090D01*
X33782626Y6478230D01*
X33738090Y6547441D01*
X33525890Y6692431D01*
X33274000Y6743440D01*
X31750000Y6743440D01*
X31514683Y6699162D01*
X31298559Y6560090D01*
X31153569Y6347890D01*
X31102560Y6096000D01*
X18681440Y6096000D01*
X18637162Y6331317D01*
X18498090Y6547441D01*
X18285890Y6692431D01*
X18034000Y6743440D01*
X16510000Y6743440D01*
X16274683Y6699162D01*
X16058559Y6560090D01*
X15913569Y6347890D01*
X15862560Y6096000D01*
X9125619Y6096000D01*
X8580741Y7414704D01*
X7420810Y8576660D01*
X5904513Y9206282D01*
X4262690Y9207715D01*
X2745296Y8580741D01*
X1583340Y7420810D01*
X964000Y5929275D01*
X964000Y19685000D01*
X2607560Y19685000D01*
X2607560Y15875000D01*
X2651838Y15639683D01*
X2790910Y15423559D01*
X3003110Y15278569D01*
X3255000Y15227560D01*
X7065000Y15227560D01*
X7300317Y15271838D01*
X7516441Y15410910D01*
X7661431Y15623110D01*
X7661687Y15624376D01*
X7790910Y15423559D01*
X8003110Y15278569D01*
X8255000Y15227560D01*
X12065000Y15227560D01*
X12300317Y15271838D01*
X12516441Y15410910D01*
X12661431Y15623110D01*
X12712440Y15875000D01*
X12712440Y19353029D01*
X14204821Y19353029D01*
X14205000Y19352596D01*
X14205000Y18288005D01*
X14204999Y18288000D01*
X14283785Y17891923D01*
X14508144Y17556144D01*
X19588142Y12476147D01*
X19588144Y12476144D01*
X19923923Y12251785D01*
X20320000Y12172999D01*
X20320005Y12173000D01*
X31622670Y12173000D01*
X31827971Y12172821D01*
X32208515Y12330058D01*
X32499919Y12620954D01*
X32657820Y13001223D01*
X32658179Y13412971D01*
X32500942Y13793515D01*
X32210046Y14084919D01*
X31829777Y14242820D01*
X31418029Y14243179D01*
X31417596Y14243000D01*
X20748711Y14243000D01*
X16275000Y18716712D01*
X16275000Y19558000D01*
X16275179Y19762971D01*
X16117942Y20143515D01*
X15827046Y20434919D01*
X15446777Y20592820D01*
X15035029Y20593179D01*
X14654485Y20435942D01*
X14363081Y20145046D01*
X14205180Y19764777D01*
X14204821Y19353029D01*
X12712440Y19353029D01*
X12712440Y19685000D01*
X12668162Y19920317D01*
X12529090Y20136441D01*
X12316890Y20281431D01*
X12065000Y20332440D01*
X8255000Y20332440D01*
X8019683Y20288162D01*
X7803559Y20149090D01*
X7658569Y19936890D01*
X7658313Y19935624D01*
X7529090Y20136441D01*
X7316890Y20281431D01*
X7065000Y20332440D01*
X3255000Y20332440D01*
X3019683Y20288162D01*
X2803559Y20149090D01*
X2658569Y19936890D01*
X2607560Y19685000D01*
X964000Y19685000D01*
X964000Y21336000D01*
X18910560Y21336000D01*
X18910560Y19812000D01*
X18954838Y19576683D01*
X19093910Y19360559D01*
X19175770Y19304626D01*
X19106559Y19260090D01*
X18961569Y19047890D01*
X18910560Y18796000D01*
X18910560Y17272000D01*
X18954838Y17036683D01*
X19093910Y16820559D01*
X19306110Y16675569D01*
X19558000Y16624560D01*
X21082000Y16624560D01*
X21317317Y16668838D01*
X21533441Y16807910D01*
X21589374Y16889770D01*
X21633910Y16820559D01*
X21846110Y16675569D01*
X22098000Y16624560D01*
X23622000Y16624560D01*
X23857317Y16668838D01*
X24073441Y16807910D01*
X24129374Y16889770D01*
X24173910Y16820559D01*
X24386110Y16675569D01*
X24638000Y16624560D01*
X26162000Y16624560D01*
X26397317Y16668838D01*
X26613441Y16807910D01*
X26758431Y17020110D01*
X26809440Y17272000D01*
X26809440Y18796000D01*
X26765162Y19031317D01*
X26626090Y19247441D01*
X26544230Y19303374D01*
X26613441Y19347910D01*
X26758431Y19560110D01*
X26783721Y19685000D01*
X38087560Y19685000D01*
X38087560Y15875000D01*
X38131838Y15639683D01*
X38270910Y15423559D01*
X38483110Y15278569D01*
X38735000Y15227560D01*
X42545000Y15227560D01*
X42780317Y15271838D01*
X42996441Y15410910D01*
X43141431Y15623110D01*
X43141687Y15624376D01*
X43270910Y15423559D01*
X43483110Y15278569D01*
X43735000Y15227560D01*
X47545000Y15227560D01*
X47780317Y15271838D01*
X47996441Y15410910D01*
X48141431Y15623110D01*
X48192440Y15875000D01*
X48192440Y19685000D01*
X48148162Y19920317D01*
X48009090Y20136441D01*
X47796890Y20281431D01*
X47545000Y20332440D01*
X43735000Y20332440D01*
X43499683Y20288162D01*
X43283559Y20149090D01*
X43138569Y19936890D01*
X43138313Y19935624D01*
X43009090Y20136441D01*
X42796890Y20281431D01*
X42545000Y20332440D01*
X38735000Y20332440D01*
X38499683Y20288162D01*
X38283559Y20149090D01*
X38138569Y19936890D01*
X38087560Y19685000D01*
X26783721Y19685000D01*
X26809440Y19812000D01*
X26809440Y20661150D01*
X28073290Y21925000D01*
X29016829Y21925000D01*
X29257223Y21825180D01*
X29668971Y21824821D01*
X30049515Y21982058D01*
X30340919Y22272954D01*
X30498820Y22653223D01*
X30499179Y23064971D01*
X30341942Y23445515D01*
X30051046Y23736919D01*
X29670777Y23894820D01*
X29259029Y23895179D01*
X29016576Y23795000D01*
X27686000Y23795000D01*
X27328191Y23723827D01*
X27024855Y23521145D01*
X25487150Y21983440D01*
X24638000Y21983440D01*
X24402683Y21939162D01*
X24186559Y21800090D01*
X24130626Y21718230D01*
X24086090Y21787441D01*
X23873890Y21932431D01*
X23622000Y21983440D01*
X22098000Y21983440D01*
X21862683Y21939162D01*
X21646559Y21800090D01*
X21590626Y21718230D01*
X21546090Y21787441D01*
X21333890Y21932431D01*
X21082000Y21983440D01*
X19558000Y21983440D01*
X19322683Y21939162D01*
X19106559Y21800090D01*
X18961569Y21587890D01*
X18910560Y21336000D01*
X964000Y21336000D01*
X964000Y27178000D01*
X2400560Y27178000D01*
X2400560Y25654000D01*
X2444838Y25418683D01*
X2583910Y25202559D01*
X2796110Y25057569D01*
X3048000Y25006560D01*
X4572000Y25006560D01*
X4807317Y25050838D01*
X5023441Y25189910D01*
X5079374Y25271770D01*
X5123910Y25202559D01*
X5336110Y25057569D01*
X5588000Y25006560D01*
X7112000Y25006560D01*
X7347317Y25050838D01*
X7563441Y25189910D01*
X7620213Y25273000D01*
X22029002Y25273000D01*
X22111593Y24857789D01*
X22346791Y24505789D01*
X22698791Y24270591D01*
X23114002Y24188000D01*
X23529213Y24270591D01*
X23881213Y24505789D01*
X25233423Y25857999D01*
X32424579Y25857999D01*
X33522789Y24759789D01*
X33874789Y24524591D01*
X34290000Y24442000D01*
X34705211Y24524591D01*
X35057211Y24759789D01*
X35292409Y25111789D01*
X35375000Y25527000D01*
X35292409Y25942211D01*
X35057211Y26294211D01*
X33641212Y27710210D01*
X33545098Y27774431D01*
X33289213Y27945408D01*
X32874001Y28027999D01*
X24784001Y28027999D01*
X24368789Y27945408D01*
X24112904Y27774431D01*
X24016790Y27710210D01*
X22346791Y26040211D01*
X22111593Y25688211D01*
X22029002Y25273000D01*
X7620213Y25273000D01*
X7708431Y25402110D01*
X7759440Y25654000D01*
X7759440Y27178000D01*
X7715162Y27413317D01*
X7576090Y27629441D01*
X7363890Y27774431D01*
X7112000Y27825440D01*
X5588000Y27825440D01*
X5352683Y27781162D01*
X5136559Y27642090D01*
X5080626Y27560230D01*
X5036090Y27629441D01*
X4823890Y27774431D01*
X4572000Y27825440D01*
X3048000Y27825440D01*
X2812683Y27781162D01*
X2596559Y27642090D01*
X2451569Y27429890D01*
X2400560Y27178000D01*
X964000Y27178000D01*
X964000Y28162000D01*
X37818560Y28162000D01*
X37818560Y24162000D01*
X37862838Y23926683D01*
X38001910Y23710559D01*
X38214110Y23565569D01*
X38466000Y23514560D01*
X42466000Y23514560D01*
X42701317Y23558838D01*
X42917441Y23697910D01*
X43062431Y23910110D01*
X43113440Y24162000D01*
X43113440Y28162000D01*
X43069162Y28397317D01*
X42930090Y28613441D01*
X42717890Y28758431D01*
X42466000Y28809440D01*
X38466000Y28809440D01*
X38230683Y28765162D01*
X38014559Y28626090D01*
X37869569Y28413890D01*
X37818560Y28162000D01*
X964000Y28162000D01*
X964000Y34714338D01*
X1579259Y33225296D01*
X2739190Y32063340D01*
X4255487Y31433718D01*
X5897310Y31432285D01*
X7414704Y32059259D01*
X8576660Y33219190D01*
X9206282Y34735487D01*
X9207715Y36377310D01*
X8580741Y37894704D01*
X7420810Y39056660D01*
X5929275Y39676000D01*
X44874338Y39676000D01*
X43385296Y39060741D01*
M02*
