*
*
G04 PADS 9.2 Build Number: 414666 generated Gerber (RS-274-X) file*
G04 PC Version=2.1*
*
%IN "BP.pcb"*%
*
%MOIN*%
*
%FSLAX35Y35*%
*
*
*
*
G04 PC Standard Apertures*
*
*
G04 Thermal Relief Aperture macro.*
%AMTER*
1,1,$1,0,0*
1,0,$1-$2,0,0*
21,0,$3,$4,0,0,45*
21,0,$3,$4,0,0,135*
%
*
*
G04 Annular Aperture macro.*
%AMANN*
1,1,$1,0,0*
1,0,$2,0,0*
%
*
*
G04 Odd Aperture macro.*
%AMODD*
1,1,$1,0,0*
1,0,$1-0.005,0,0*
%
*
*
G04 PC Custom Aperture Macros*
*
*
*
*
*
*
G04 PC Aperture Table*
*
%ADD013C,0.23622*%
%ADD024C,0.001*%
%ADD025C,0.01*%
%ADD055C,0.09843*%
*
*
*
*
G04 PC Circuitry*
G04 Layer Name BP.pcb - circuitry*
%LPD*%
*
*
G04 PC Custom Flashes*
G04 Layer Name BP.pcb - flashes*
%LPD*%
*
*
G04 PC Circuitry*
G04 Layer Name BP.pcb - circuitry*
%LPD*%
*
G54D13*
G01X140000Y140000D03*
X300000D03*
Y220000D03*
X140000D03*
G54D24*
G54D25*
X292921Y180000D02*
G75*
G03X292921I-9421J0D01*
G01X165921D02*
G03X165921I-9421J0D01*
G01X317500Y122500D02*
Y237500D01*
X122500*
Y122500*
X317500*
X292921Y180000D02*
G03X292921I-9421J0D01*
G01X165921D02*
G03X165921I-9421J0D01*
G01X122500Y236699D02*
X317500D01*
X122500Y235799D02*
X317500D01*
X122500Y234899D02*
X317500D01*
X122500Y233999D02*
X317500D01*
X122500Y233099D02*
X317500D01*
X122500Y232199D02*
X317500D01*
X122500Y231299D02*
X317500D01*
X122500Y230399D02*
X317500D01*
X122500Y229499D02*
X317500D01*
X122500Y228599D02*
X317500D01*
X122500Y227699D02*
X317500D01*
X122500Y226799D02*
X317500D01*
X122500Y225899D02*
X317500D01*
X122500Y224999D02*
X317500D01*
X122500Y224099D02*
X317500D01*
X122500Y223199D02*
X317500D01*
X122500Y222299D02*
X317500D01*
X122500Y221399D02*
X317500D01*
X122500Y220499D02*
X317500D01*
X122500Y219599D02*
X317500D01*
X122500Y218699D02*
X317500D01*
X122500Y217799D02*
X317500D01*
X122500Y216899D02*
X317500D01*
X122500Y215999D02*
X317500D01*
X122500Y215099D02*
X317500D01*
X122500Y214199D02*
X317500D01*
X122500Y213299D02*
X317500D01*
X122500Y212399D02*
X317500D01*
X122500Y211499D02*
X317500D01*
X122500Y210599D02*
X317500D01*
X122500Y209699D02*
X317500D01*
X122500Y208799D02*
X317500D01*
X122500Y207899D02*
X317500D01*
X122500Y206999D02*
X317500D01*
X122500Y206099D02*
X317500D01*
X122500Y205199D02*
X317500D01*
X122500Y204299D02*
X317500D01*
X122500Y203399D02*
X317500D01*
X122500Y202499D02*
X317500D01*
X122500Y201599D02*
X317500D01*
X122500Y200699D02*
X317500D01*
X122500Y199799D02*
X317500D01*
X122500Y198899D02*
X317500D01*
X122500Y197999D02*
X317500D01*
X122500Y197099D02*
X317500D01*
X122500Y196199D02*
X317500D01*
X122500Y195299D02*
X317500D01*
X122500Y194399D02*
X317500D01*
X122500Y193499D02*
X317500D01*
X122500Y192599D02*
X317500D01*
X122500Y191699D02*
X317500D01*
X122500Y190799D02*
X317500D01*
X122500Y189899D02*
X317500D01*
X286290Y188999D02*
X317500D01*
X288314Y188099D02*
X317500D01*
X289578Y187199D02*
X317500D01*
X290506Y186299D02*
X317500D01*
X291221Y185399D02*
X317500D01*
X291778Y184499D02*
X317500D01*
X292207Y183599D02*
X317500D01*
X292526Y182699D02*
X317500D01*
X292748Y181799D02*
X317500D01*
X292878Y180899D02*
X317500D01*
X292921Y179999D02*
X317500D01*
X292878Y179099D02*
X317500D01*
X292747Y178199D02*
X317500D01*
X292526Y177299D02*
X317500D01*
X292206Y176399D02*
X317500D01*
X291776Y175499D02*
X317500D01*
X291219Y174599D02*
X317500D01*
X290504Y173699D02*
X317500D01*
X289575Y172799D02*
X317500D01*
X288309Y171899D02*
X317500D01*
X286282Y170999D02*
X317500D01*
X122500Y170099D02*
X317500D01*
X122500Y169199D02*
X317500D01*
X122500Y168299D02*
X317500D01*
X122500Y167399D02*
X317500D01*
X122500Y166499D02*
X317500D01*
X122500Y165599D02*
X317500D01*
X122500Y164699D02*
X317500D01*
X122500Y163799D02*
X317500D01*
X122500Y162899D02*
X317500D01*
X122500Y161999D02*
X317500D01*
X122500Y161099D02*
X317500D01*
X122500Y160199D02*
X317500D01*
X122500Y159299D02*
X317500D01*
X122500Y158399D02*
X317500D01*
X122500Y157499D02*
X317500D01*
X122500Y156599D02*
X317500D01*
X122500Y155699D02*
X317500D01*
X122500Y154799D02*
X317500D01*
X122500Y153899D02*
X317500D01*
X122500Y152999D02*
X317500D01*
X122500Y152099D02*
X317500D01*
X122500Y151199D02*
X317500D01*
X122500Y150299D02*
X317500D01*
X122500Y149399D02*
X317500D01*
X122500Y148499D02*
X317500D01*
X122500Y147599D02*
X317500D01*
X122500Y146699D02*
X317500D01*
X122500Y145799D02*
X317500D01*
X122500Y144899D02*
X317500D01*
X122500Y143999D02*
X317500D01*
X122500Y143099D02*
X317500D01*
X122500Y142199D02*
X317500D01*
X122500Y141299D02*
X317500D01*
X122500Y140399D02*
X317500D01*
X122500Y139499D02*
X317500D01*
X122500Y138599D02*
X317500D01*
X122500Y137699D02*
X317500D01*
X122500Y136799D02*
X317500D01*
X122500Y135899D02*
X317500D01*
X122500Y134999D02*
X317500D01*
X122500Y134099D02*
X317500D01*
X122500Y133199D02*
X317500D01*
X122500Y132299D02*
X317500D01*
X122500Y131399D02*
X317500D01*
X122500Y130499D02*
X317500D01*
X122500Y129599D02*
X317500D01*
X122500Y128699D02*
X317500D01*
X122500Y127799D02*
X317500D01*
X122500Y126899D02*
X317500D01*
X122500Y125999D02*
X317500D01*
X122500Y125099D02*
X317500D01*
X122500Y124199D02*
X317500D01*
X122500Y123299D02*
X317500D01*
X159282Y170999D02*
X280718D01*
X159290Y188999D02*
X280710D01*
X161309Y171899D02*
X278691D01*
X161314Y188099D02*
X278686D01*
X162575Y172799D02*
X277425D01*
X162578Y187199D02*
X277422D01*
X163504Y173699D02*
X276496D01*
X163506Y186299D02*
X276494D01*
X164219Y174599D02*
X275781D01*
X164221Y185399D02*
X275779D01*
X164776Y175499D02*
X275224D01*
X164778Y184499D02*
X275222D01*
X165206Y176399D02*
X274794D01*
X165207Y183599D02*
X274793D01*
X165526Y177299D02*
X274474D01*
X165526Y182699D02*
X274474D01*
X165747Y178199D02*
X274253D01*
X165748Y181799D02*
X274252D01*
X165878Y179099D02*
X274122D01*
X165878Y180899D02*
X274122D01*
X165921Y179999D02*
X274079D01*
X122500Y170999D02*
X153718D01*
X122500Y188999D02*
X153710D01*
X122500Y171899D02*
X151691D01*
X122500Y188099D02*
X151686D01*
X122500Y172799D02*
X150425D01*
X122500Y187199D02*
X150422D01*
X122500Y173699D02*
X149496D01*
X122500Y186299D02*
X149494D01*
X122500Y174599D02*
X148781D01*
X122500Y185399D02*
X148779D01*
X122500Y175499D02*
X148224D01*
X122500Y184499D02*
X148222D01*
X122500Y176399D02*
X147794D01*
X122500Y183599D02*
X147793D01*
X122500Y177299D02*
X147474D01*
X122500Y182699D02*
X147474D01*
X122500Y178199D02*
X147253D01*
X122500Y181799D02*
X147252D01*
X122500Y179099D02*
X147122D01*
X122500Y180899D02*
X147122D01*
X122500Y179999D02*
X147079D01*
G54D55*
X156500Y180000D03*
X146500Y170000D03*
X166500D03*
Y190000D03*
X146500D03*
X283500Y180000D03*
X273500Y170000D03*
X293500D03*
Y190000D03*
X273500D03*
G74*
X0Y0D02*
M02*
