*
*
G04 PADS 9.2 Build Number: 414666 generated Gerber (RS-274-X) file*
G04 PC Version=2.1*
*
%IN "ANT01.pcb"*%
*
%MOIN*%
*
%FSLAX35Y35*%
*
*
*
*
G04 PC Standard Apertures*
*
*
G04 Thermal Relief Aperture macro.*
%AMTER*
1,1,$1,0,0*
1,0,$1-$2,0,0*
21,0,$3,$4,0,0,45*
21,0,$3,$4,0,0,135*
%
*
*
G04 Annular Aperture macro.*
%AMANN*
1,1,$1,0,0*
1,0,$2,0,0*
%
*
*
G04 Odd Aperture macro.*
%AMODD*
1,1,$1,0,0*
1,0,$1-0.005,0,0*
%
*
*
G04 PC Custom Aperture Macros*
*
*
*
*
*
*
G04 PC Aperture Table*
*
%ADD011C,0.06*%
%ADD012R,0.07X0.07*%
%ADD024C,0.001*%
%ADD032R,0.08X0.08*%
%ADD033C,0.24622*%
%ADD060R,0.035X0.03*%
%ADD061R,0.03X0.035*%
%ADD062R,0.05331X0.05724*%
%ADD063O,0.04346X0.02181*%
%ADD064O,0.02181X0.04346*%
%ADD065R,0.15567X0.15567*%
%ADD066R,0.03362X0.05724*%
%ADD067R,0.066X0.049*%
%ADD068C,0.10843*%
%ADD069C,0.11236*%
%ADD070R,0.11X0.065*%
%ADD071R,0.115X0.06*%
*
*
*
*
G04 PC Circuitry*
G04 Layer Name ANT01.pcb - circuitry*
%LPD*%
*
*
G04 PC Custom Flashes*
G04 Layer Name ANT01.pcb - flashes*
%LPD*%
*
*
G04 PC Circuitry*
G04 Layer Name ANT01.pcb - circuitry*
%LPD*%
*
G54D11*
G01X246000Y144000D03*
G54D12*
Y171500D03*
G54D24*
G54D32*
X226000Y165000D03*
X216000D03*
X226000Y175000D03*
X216000D03*
X226000Y185000D03*
X216000D03*
X226000Y135000D03*
X216000D03*
X226000Y145000D03*
X216000D03*
X226000Y155000D03*
X216000D03*
X172000Y126000D03*
Y116000D03*
X182000Y126000D03*
Y116000D03*
X192000Y126000D03*
Y116000D03*
G54D33*
X120000Y120000D03*
X240000Y200000D03*
Y120000D03*
X120000Y200000D03*
G54D60*
X170000Y151000D03*
X175000D03*
X192500Y167500D03*
X187500D03*
X192500Y163000D03*
X187500D03*
X185000Y180000D03*
X180000D03*
X185000Y184000D03*
X180000D03*
X185000Y176000D03*
X180000D03*
X140500Y204000D03*
X145500D03*
X185200D03*
X180200D03*
X190000Y193000D03*
X185000D03*
X185200Y200300D03*
X190200D03*
X140500Y208000D03*
X145500D03*
G54D61*
X161500Y159500D03*
Y164500D03*
X179500Y188000D03*
Y193000D03*
X152600Y163500D03*
Y168500D03*
X145000Y199500D03*
Y194500D03*
X141500Y199500D03*
Y194500D03*
X147200Y162000D03*
Y167000D03*
Y158000D03*
Y153000D03*
Y185000D03*
Y180000D03*
X143700Y185500D03*
Y190500D03*
X147200Y176000D03*
Y171000D03*
X156200Y168500D03*
Y163500D03*
X150000Y204500D03*
Y209500D03*
X176500Y203000D03*
Y208000D03*
X169500D03*
Y203000D03*
X153500Y209500D03*
Y204500D03*
X173000Y203000D03*
Y208000D03*
G54D62*
X173500Y156000D03*
Y165402D03*
X166500D03*
X166488Y156000D03*
G54D63*
X171846Y177610D03*
Y179579D03*
Y181547D03*
Y183516D03*
Y185484D03*
Y187453D03*
Y189421D03*
Y191390D03*
X152554D03*
Y189421D03*
Y187453D03*
Y185484D03*
Y183516D03*
Y181547D03*
Y179579D03*
Y177610D03*
G54D64*
X169090Y194146D03*
X167121D03*
X165153D03*
X163184D03*
X161216D03*
X159247D03*
X157279D03*
X155310D03*
Y174854D03*
X157279D03*
X159247D03*
X161216D03*
X163184D03*
X165153D03*
X167121D03*
X169090D03*
G54D65*
X162200Y184500D03*
G54D66*
X182772Y167902D03*
Y143098D03*
X179228Y167902D03*
Y143098D03*
G54D67*
X158000Y144800D03*
Y137200D03*
G54D68*
X120000Y160000D03*
G54D69*
X130000Y150000D03*
X110000D03*
Y170000D03*
X130000D03*
G54D70*
X158000Y129500D03*
Y116500D03*
G54D71*
X144000Y135800D03*
Y116200D03*
X0Y0D02*
M02*
