G04 #@! TF.GenerationSoftware,KiCad,Pcbnew,(2017-02-05 revision 431abcf)-makepkg*
G04 #@! TF.CreationDate,2017-06-05T07:30:28+02:00*
G04 #@! TF.ProjectId,DIG4SW01A,4449473453573031412E6B696361645F,rev?*
G04 #@! TF.FileFunction,Legend,Top*
G04 #@! TF.FilePolarity,Positive*
%FSLAX46Y46*%
G04 Gerber Fmt 4.6, Leading zero omitted, Abs format (unit mm)*
G04 Created by KiCad (PCBNEW (2017-02-05 revision 431abcf)-makepkg) date 06/05/17 07:30:28*
%MOMM*%
%LPD*%
G01*
G04 APERTURE LIST*
%ADD10C,1.300000*%
%ADD11C,0.300000*%
%ADD12C,0.150000*%
%ADD13C,0.050000*%
G04 APERTURE END LIST*
D10*
D11*
X2112095Y11908000D02*
X812095Y11908000D01*
X2112095Y12527047D02*
X812095Y12527047D01*
X2112095Y13269904D01*
X812095Y13269904D01*
X2112095Y14569904D02*
X2112095Y13827047D01*
X2112095Y14198476D02*
X812095Y14198476D01*
X997809Y14074666D01*
X1121619Y13950857D01*
X1183523Y13827047D01*
X22157428Y14446000D02*
X20657428Y13946000D01*
X22157428Y13446000D01*
X20800285Y12088857D02*
X20728857Y12160285D01*
X20657428Y12374571D01*
X20657428Y12517428D01*
X20728857Y12731714D01*
X20871714Y12874571D01*
X21014571Y12946000D01*
X21300285Y13017428D01*
X21514571Y13017428D01*
X21800285Y12946000D01*
X21943142Y12874571D01*
X22086000Y12731714D01*
X22157428Y12517428D01*
X22157428Y12374571D01*
X22086000Y12160285D01*
X22014571Y12088857D01*
X20800285Y10588857D02*
X20728857Y10660285D01*
X20657428Y10874571D01*
X20657428Y11017428D01*
X20728857Y11231714D01*
X20871714Y11374571D01*
X21014571Y11446000D01*
X21300285Y11517428D01*
X21514571Y11517428D01*
X21800285Y11446000D01*
X21943142Y11374571D01*
X22086000Y11231714D01*
X22157428Y11017428D01*
X22157428Y10874571D01*
X22086000Y10660285D01*
X22014571Y10588857D01*
X10981428Y38818000D02*
X9910000Y38818000D01*
X9695714Y38889428D01*
X9552857Y39032285D01*
X9481428Y39246571D01*
X9481428Y39389428D01*
X9910000Y38175142D02*
X9910000Y37460857D01*
X9481428Y38318000D02*
X10981428Y37818000D01*
X9481428Y37318000D01*
X9624285Y35960857D02*
X9552857Y36032285D01*
X9481428Y36246571D01*
X9481428Y36389428D01*
X9552857Y36603714D01*
X9695714Y36746571D01*
X9838571Y36818000D01*
X10124285Y36889428D01*
X10338571Y36889428D01*
X10624285Y36818000D01*
X10767142Y36746571D01*
X10910000Y36603714D01*
X10981428Y36389428D01*
X10981428Y36246571D01*
X10910000Y36032285D01*
X10838571Y35960857D01*
X9481428Y35318000D02*
X10981428Y35318000D01*
X10267142Y35318000D02*
X10267142Y34460857D01*
X9481428Y34460857D02*
X10981428Y34460857D01*
X10981428Y33460857D02*
X10981428Y33175142D01*
X10910000Y33032285D01*
X10767142Y32889428D01*
X10481428Y32818000D01*
X9981428Y32818000D01*
X9695714Y32889428D01*
X9552857Y33032285D01*
X9481428Y33175142D01*
X9481428Y33460857D01*
X9552857Y33603714D01*
X9695714Y33746571D01*
X9981428Y33818000D01*
X10481428Y33818000D01*
X10767142Y33746571D01*
X10910000Y33603714D01*
X10981428Y33460857D01*
X25316571Y17811428D02*
X25388000Y17740000D01*
X25459428Y17597142D01*
X25459428Y17240000D01*
X25388000Y17097142D01*
X25316571Y17025714D01*
X25173714Y16954285D01*
X25030857Y16954285D01*
X24816571Y17025714D01*
X23959428Y17882857D01*
X23959428Y16954285D01*
X25459428Y16025714D02*
X25459428Y15882857D01*
X25388000Y15740000D01*
X25316571Y15668571D01*
X25173714Y15597142D01*
X24888000Y15525714D01*
X24530857Y15525714D01*
X24245142Y15597142D01*
X24102285Y15668571D01*
X24030857Y15740000D01*
X23959428Y15882857D01*
X23959428Y16025714D01*
X24030857Y16168571D01*
X24102285Y16240000D01*
X24245142Y16311428D01*
X24530857Y16382857D01*
X24888000Y16382857D01*
X25173714Y16311428D01*
X25316571Y16240000D01*
X25388000Y16168571D01*
X25459428Y16025714D01*
X23959428Y14097142D02*
X23959428Y14954285D01*
X23959428Y14525714D02*
X25459428Y14525714D01*
X25245142Y14668571D01*
X25102285Y14811428D01*
X25030857Y14954285D01*
X25459428Y13597142D02*
X25459428Y12597142D01*
X23959428Y13240000D01*
X27007428Y19561428D02*
X28507428Y19561428D01*
X27436000Y19061428D01*
X28507428Y18561428D01*
X27007428Y18561428D01*
X27007428Y17132857D02*
X27007428Y17847142D01*
X28507428Y17847142D01*
X27436000Y16704285D02*
X27436000Y15990000D01*
X27007428Y16847142D02*
X28507428Y16347142D01*
X27007428Y15847142D01*
X27793142Y14847142D02*
X27721714Y14632857D01*
X27650285Y14561428D01*
X27507428Y14490000D01*
X27293142Y14490000D01*
X27150285Y14561428D01*
X27078857Y14632857D01*
X27007428Y14775714D01*
X27007428Y15347142D01*
X28507428Y15347142D01*
X28507428Y14847142D01*
X28436000Y14704285D01*
X28364571Y14632857D01*
X28221714Y14561428D01*
X28078857Y14561428D01*
X27936000Y14632857D01*
X27864571Y14704285D01*
X27793142Y14847142D01*
X27793142Y15347142D01*
X27150285Y13847142D02*
X27078857Y13775714D01*
X27007428Y13847142D01*
X27078857Y13918571D01*
X27150285Y13847142D01*
X27007428Y13847142D01*
X27150285Y12275714D02*
X27078857Y12347142D01*
X27007428Y12561428D01*
X27007428Y12704285D01*
X27078857Y12918571D01*
X27221714Y13061428D01*
X27364571Y13132857D01*
X27650285Y13204285D01*
X27864571Y13204285D01*
X28150285Y13132857D01*
X28293142Y13061428D01*
X28436000Y12918571D01*
X28507428Y12704285D01*
X28507428Y12561428D01*
X28436000Y12347142D01*
X28364571Y12275714D01*
X28507428Y11775714D02*
X28507428Y10775714D01*
X27007428Y11775714D01*
X27007428Y10775714D01*
X21074952Y30260095D02*
X22774952Y30260095D01*
X22774952Y29855333D01*
X22694000Y29612476D01*
X22532095Y29450571D01*
X22370190Y29369619D01*
X22046380Y29288666D01*
X21803523Y29288666D01*
X21479714Y29369619D01*
X21317809Y29450571D01*
X21155904Y29612476D01*
X21074952Y29855333D01*
X21074952Y30260095D01*
X21074952Y28560095D02*
X22774952Y28560095D01*
X22694000Y26860095D02*
X22774952Y27022000D01*
X22774952Y27264857D01*
X22694000Y27507714D01*
X22532095Y27669619D01*
X22370190Y27750571D01*
X22046380Y27831523D01*
X21803523Y27831523D01*
X21479714Y27750571D01*
X21317809Y27669619D01*
X21155904Y27507714D01*
X21074952Y27264857D01*
X21074952Y27102952D01*
X21155904Y26860095D01*
X21236857Y26779142D01*
X21803523Y26779142D01*
X21803523Y27102952D01*
X22208285Y25322000D02*
X21074952Y25322000D01*
X22855904Y25726761D02*
X21641619Y26131523D01*
X21641619Y25079142D01*
X21155904Y24512476D02*
X21074952Y24269619D01*
X21074952Y23864857D01*
X21155904Y23702952D01*
X21236857Y23622000D01*
X21398761Y23541047D01*
X21560666Y23541047D01*
X21722571Y23622000D01*
X21803523Y23702952D01*
X21884476Y23864857D01*
X21965428Y24188666D01*
X22046380Y24350571D01*
X22127333Y24431523D01*
X22289238Y24512476D01*
X22451142Y24512476D01*
X22613047Y24431523D01*
X22694000Y24350571D01*
X22774952Y24188666D01*
X22774952Y23783904D01*
X22694000Y23541047D01*
X22774952Y22974380D02*
X21074952Y22569619D01*
X22289238Y22245809D01*
X21074952Y21922000D01*
X22774952Y21517238D01*
X22774952Y20545809D02*
X22774952Y20383904D01*
X22694000Y20222000D01*
X22613047Y20141047D01*
X22451142Y20060095D01*
X22127333Y19979142D01*
X21722571Y19979142D01*
X21398761Y20060095D01*
X21236857Y20141047D01*
X21155904Y20222000D01*
X21074952Y20383904D01*
X21074952Y20545809D01*
X21155904Y20707714D01*
X21236857Y20788666D01*
X21398761Y20869619D01*
X21722571Y20950571D01*
X22127333Y20950571D01*
X22451142Y20869619D01*
X22613047Y20788666D01*
X22694000Y20707714D01*
X22774952Y20545809D01*
X21074952Y18360095D02*
X21074952Y19331523D01*
X21074952Y18845809D02*
X22774952Y18845809D01*
X22532095Y19007714D01*
X22370190Y19169619D01*
X22289238Y19331523D01*
X21560666Y17712476D02*
X21560666Y16902952D01*
X21074952Y17874380D02*
X22774952Y17307714D01*
X21074952Y16741047D01*
X18395142Y32975857D02*
X18395142Y32475857D01*
X17609428Y32261571D02*
X17609428Y32975857D01*
X19109428Y32975857D01*
X19109428Y32261571D01*
X17609428Y31618714D02*
X19109428Y31618714D01*
X17609428Y30761571D01*
X19109428Y30761571D01*
X16569428Y33190142D02*
X16569428Y32333000D01*
X15069428Y32761571D02*
X16569428Y32761571D01*
X15069428Y31833000D02*
X16569428Y31833000D01*
X15855142Y31833000D02*
X15855142Y30975857D01*
X15069428Y30975857D02*
X16569428Y30975857D01*
X15855142Y30261571D02*
X15855142Y29761571D01*
X15069428Y29547285D02*
X15069428Y30261571D01*
X16569428Y30261571D01*
X16569428Y29547285D01*
X15069428Y28047285D02*
X15783714Y28547285D01*
X15069428Y28904428D02*
X16569428Y28904428D01*
X16569428Y28333000D01*
X16498000Y28190142D01*
X16426571Y28118714D01*
X16283714Y28047285D01*
X16069428Y28047285D01*
X15926571Y28118714D01*
X15855142Y28190142D01*
X15783714Y28333000D01*
X15783714Y28904428D01*
X12672285Y32118714D02*
X12600857Y32190142D01*
X12529428Y32404428D01*
X12529428Y32547285D01*
X12600857Y32761571D01*
X12743714Y32904428D01*
X12886571Y32975857D01*
X13172285Y33047285D01*
X13386571Y33047285D01*
X13672285Y32975857D01*
X13815142Y32904428D01*
X13958000Y32761571D01*
X14029428Y32547285D01*
X14029428Y32404428D01*
X13958000Y32190142D01*
X13886571Y32118714D01*
X12600857Y31547285D02*
X12529428Y31333000D01*
X12529428Y30975857D01*
X12600857Y30833000D01*
X12672285Y30761571D01*
X12815142Y30690142D01*
X12958000Y30690142D01*
X13100857Y30761571D01*
X13172285Y30833000D01*
X13243714Y30975857D01*
X13315142Y31261571D01*
X13386571Y31404428D01*
X13458000Y31475857D01*
X13600857Y31547285D01*
X13743714Y31547285D01*
X13886571Y31475857D01*
X13958000Y31404428D01*
X14029428Y31261571D01*
X14029428Y30904428D01*
X13958000Y30690142D01*
X2112095Y15464000D02*
X812095Y15464000D01*
X2112095Y16083047D02*
X812095Y16083047D01*
X2112095Y16825904D01*
X812095Y16825904D01*
X935904Y17383047D02*
X874000Y17444952D01*
X812095Y17568761D01*
X812095Y17878285D01*
X874000Y18002095D01*
X935904Y18064000D01*
X1059714Y18125904D01*
X1183523Y18125904D01*
X1369238Y18064000D01*
X2112095Y17321142D01*
X2112095Y18125904D01*
X2057523Y9540000D02*
X1933714Y9601904D01*
X1748000Y9601904D01*
X1562285Y9540000D01*
X1438476Y9416190D01*
X1376571Y9292380D01*
X1314666Y9044761D01*
X1314666Y8859047D01*
X1376571Y8611428D01*
X1438476Y8487619D01*
X1562285Y8363809D01*
X1748000Y8301904D01*
X1871809Y8301904D01*
X2057523Y8363809D01*
X2119428Y8425714D01*
X2119428Y8859047D01*
X1871809Y8859047D01*
X2676571Y8301904D02*
X2676571Y9601904D01*
X3419428Y8301904D01*
X3419428Y9601904D01*
X4038476Y8301904D02*
X4038476Y9601904D01*
X4348000Y9601904D01*
X4533714Y9540000D01*
X4657523Y9416190D01*
X4719428Y9292380D01*
X4781333Y9044761D01*
X4781333Y8859047D01*
X4719428Y8611428D01*
X4657523Y8487619D01*
X4533714Y8363809D01*
X4348000Y8301904D01*
X4038476Y8301904D01*
X8680142Y18371428D02*
X8680142Y19871428D01*
X9394428Y18371428D02*
X9394428Y19871428D01*
X10251571Y18371428D01*
X10251571Y19871428D01*
X10823000Y19871428D02*
X11751571Y19871428D01*
X11251571Y19300000D01*
X11465857Y19300000D01*
X11608714Y19228571D01*
X11680142Y19157142D01*
X11751571Y19014285D01*
X11751571Y18657142D01*
X11680142Y18514285D01*
X11608714Y18442857D01*
X11465857Y18371428D01*
X11037285Y18371428D01*
X10894428Y18442857D01*
X10823000Y18514285D01*
X8680142Y20911428D02*
X8680142Y22411428D01*
X9394428Y20911428D02*
X9394428Y22411428D01*
X10251571Y20911428D01*
X10251571Y22411428D01*
X11608714Y21911428D02*
X11608714Y20911428D01*
X11251571Y22482857D02*
X10894428Y21411428D01*
X11823000Y21411428D01*
X8608714Y23268857D02*
X8823000Y23197428D01*
X9180142Y23197428D01*
X9323000Y23268857D01*
X9394428Y23340285D01*
X9465857Y23483142D01*
X9465857Y23626000D01*
X9394428Y23768857D01*
X9323000Y23840285D01*
X9180142Y23911714D01*
X8894428Y23983142D01*
X8751571Y24054571D01*
X8680142Y24126000D01*
X8608714Y24268857D01*
X8608714Y24411714D01*
X8680142Y24554571D01*
X8751571Y24626000D01*
X8894428Y24697428D01*
X9251571Y24697428D01*
X9465857Y24626000D01*
X10108714Y23983142D02*
X10608714Y23983142D01*
X10823000Y23197428D02*
X10108714Y23197428D01*
X10108714Y24697428D01*
X10823000Y24697428D01*
X11465857Y23197428D02*
X11465857Y24697428D01*
X11465857Y23983142D02*
X12323000Y23983142D01*
X12323000Y23197428D02*
X12323000Y24697428D01*
X8608714Y25808857D02*
X8823000Y25737428D01*
X9180142Y25737428D01*
X9323000Y25808857D01*
X9394428Y25880285D01*
X9465857Y26023142D01*
X9465857Y26166000D01*
X9394428Y26308857D01*
X9323000Y26380285D01*
X9180142Y26451714D01*
X8894428Y26523142D01*
X8751571Y26594571D01*
X8680142Y26666000D01*
X8608714Y26808857D01*
X8608714Y26951714D01*
X8680142Y27094571D01*
X8751571Y27166000D01*
X8894428Y27237428D01*
X9251571Y27237428D01*
X9465857Y27166000D01*
X10108714Y26523142D02*
X10608714Y26523142D01*
X10823000Y25737428D02*
X10108714Y25737428D01*
X10108714Y27237428D01*
X10823000Y27237428D01*
X12180142Y25737428D02*
X11465857Y25737428D01*
X11465857Y27237428D01*
X8608714Y29277428D02*
X9680142Y29277428D01*
X9037285Y29920285D02*
X8608714Y27991714D01*
X9537285Y28634571D02*
X8465857Y28634571D01*
X9108714Y27991714D02*
X9537285Y29920285D01*
X10680142Y29063142D02*
X10180142Y29063142D01*
X10180142Y28277428D02*
X10180142Y29777428D01*
X10894428Y29777428D01*
X11394428Y28706000D02*
X12108714Y28706000D01*
X11251571Y28277428D02*
X11751571Y29777428D01*
X12251571Y28277428D01*
X12751571Y29777428D02*
X12751571Y28563142D01*
X12823000Y28420285D01*
X12894428Y28348857D01*
X13037285Y28277428D01*
X13323000Y28277428D01*
X13465857Y28348857D01*
X13537285Y28420285D01*
X13608714Y28563142D01*
X13608714Y29777428D01*
X31738000Y27245571D02*
X31809428Y27388428D01*
X31809428Y27602714D01*
X31738000Y27817000D01*
X31595142Y27959857D01*
X31452285Y28031285D01*
X31166571Y28102714D01*
X30952285Y28102714D01*
X30666571Y28031285D01*
X30523714Y27959857D01*
X30380857Y27817000D01*
X30309428Y27602714D01*
X30309428Y27459857D01*
X30380857Y27245571D01*
X30452285Y27174142D01*
X30952285Y27174142D01*
X30952285Y27459857D01*
X30309428Y26531285D02*
X31809428Y26531285D01*
X30309428Y25674142D01*
X31809428Y25674142D01*
X30309428Y24959857D02*
X31809428Y24959857D01*
X31809428Y24602714D01*
X31738000Y24388428D01*
X31595142Y24245571D01*
X31452285Y24174142D01*
X31166571Y24102714D01*
X30952285Y24102714D01*
X30666571Y24174142D01*
X30523714Y24245571D01*
X30380857Y24388428D01*
X30309428Y24602714D01*
X30309428Y24959857D01*
X29269428Y27959857D02*
X27769428Y27459857D01*
X29269428Y26959857D01*
X27912285Y25602714D02*
X27840857Y25674142D01*
X27769428Y25888428D01*
X27769428Y26031285D01*
X27840857Y26245571D01*
X27983714Y26388428D01*
X28126571Y26459857D01*
X28412285Y26531285D01*
X28626571Y26531285D01*
X28912285Y26459857D01*
X29055142Y26388428D01*
X29198000Y26245571D01*
X29269428Y26031285D01*
X29269428Y25888428D01*
X29198000Y25674142D01*
X29126571Y25602714D01*
X27912285Y24102714D02*
X27840857Y24174142D01*
X27769428Y24388428D01*
X27769428Y24531285D01*
X27840857Y24745571D01*
X27983714Y24888428D01*
X28126571Y24959857D01*
X28412285Y25031285D01*
X28626571Y25031285D01*
X28912285Y24959857D01*
X29055142Y24888428D01*
X29198000Y24745571D01*
X29269428Y24531285D01*
X29269428Y24388428D01*
X29198000Y24174142D01*
X29126571Y24102714D01*
X23185714Y9711428D02*
X23471428Y9711428D01*
X23614285Y9640000D01*
X23757142Y9497142D01*
X23828571Y9211428D01*
X23828571Y8711428D01*
X23757142Y8425714D01*
X23614285Y8282857D01*
X23471428Y8211428D01*
X23185714Y8211428D01*
X23042857Y8282857D01*
X22900000Y8425714D01*
X22828571Y8711428D01*
X22828571Y9211428D01*
X22900000Y9497142D01*
X23042857Y9640000D01*
X23185714Y9711428D01*
X24471428Y9711428D02*
X24471428Y8497142D01*
X24542857Y8354285D01*
X24614285Y8282857D01*
X24757142Y8211428D01*
X25042857Y8211428D01*
X25185714Y8282857D01*
X25257142Y8354285D01*
X25328571Y8497142D01*
X25328571Y9711428D01*
X25828571Y9711428D02*
X26685714Y9711428D01*
X26257142Y8211428D02*
X26257142Y9711428D01*
X27971428Y8211428D02*
X27114285Y8211428D01*
X27542857Y8211428D02*
X27542857Y9711428D01*
X27400000Y9497142D01*
X27257142Y9354285D01*
X27114285Y9282857D01*
X31809428Y16946285D02*
X31809428Y16660571D01*
X31738000Y16517714D01*
X31595142Y16374857D01*
X31309428Y16303428D01*
X30809428Y16303428D01*
X30523714Y16374857D01*
X30380857Y16517714D01*
X30309428Y16660571D01*
X30309428Y16946285D01*
X30380857Y17089142D01*
X30523714Y17232000D01*
X30809428Y17303428D01*
X31309428Y17303428D01*
X31595142Y17232000D01*
X31738000Y17089142D01*
X31809428Y16946285D01*
X31809428Y15660571D02*
X30595142Y15660571D01*
X30452285Y15589142D01*
X30380857Y15517714D01*
X30309428Y15374857D01*
X30309428Y15089142D01*
X30380857Y14946285D01*
X30452285Y14874857D01*
X30595142Y14803428D01*
X31809428Y14803428D01*
X31809428Y14303428D02*
X31809428Y13446285D01*
X30309428Y13874857D02*
X31809428Y13874857D01*
X31666571Y13017714D02*
X31738000Y12946285D01*
X31809428Y12803428D01*
X31809428Y12446285D01*
X31738000Y12303428D01*
X31666571Y12232000D01*
X31523714Y12160571D01*
X31380857Y12160571D01*
X31166571Y12232000D01*
X30309428Y13089142D01*
X30309428Y12160571D01*
X39937428Y28122285D02*
X39937428Y27836571D01*
X39866000Y27693714D01*
X39723142Y27550857D01*
X39437428Y27479428D01*
X38937428Y27479428D01*
X38651714Y27550857D01*
X38508857Y27693714D01*
X38437428Y27836571D01*
X38437428Y28122285D01*
X38508857Y28265142D01*
X38651714Y28408000D01*
X38937428Y28479428D01*
X39437428Y28479428D01*
X39723142Y28408000D01*
X39866000Y28265142D01*
X39937428Y28122285D01*
X39937428Y26836571D02*
X38723142Y26836571D01*
X38580285Y26765142D01*
X38508857Y26693714D01*
X38437428Y26550857D01*
X38437428Y26265142D01*
X38508857Y26122285D01*
X38580285Y26050857D01*
X38723142Y25979428D01*
X39937428Y25979428D01*
X39937428Y25479428D02*
X39937428Y24622285D01*
X38437428Y25050857D02*
X39937428Y25050857D01*
X39937428Y24265142D02*
X39937428Y23336571D01*
X39366000Y23836571D01*
X39366000Y23622285D01*
X39294571Y23479428D01*
X39223142Y23408000D01*
X39080285Y23336571D01*
X38723142Y23336571D01*
X38580285Y23408000D01*
X38508857Y23479428D01*
X38437428Y23622285D01*
X38437428Y24050857D01*
X38508857Y24193714D01*
X38580285Y24265142D01*
X23185714Y32317428D02*
X23471428Y32317428D01*
X23614285Y32246000D01*
X23757142Y32103142D01*
X23828571Y31817428D01*
X23828571Y31317428D01*
X23757142Y31031714D01*
X23614285Y30888857D01*
X23471428Y30817428D01*
X23185714Y30817428D01*
X23042857Y30888857D01*
X22900000Y31031714D01*
X22828571Y31317428D01*
X22828571Y31817428D01*
X22900000Y32103142D01*
X23042857Y32246000D01*
X23185714Y32317428D01*
X24471428Y32317428D02*
X24471428Y31103142D01*
X24542857Y30960285D01*
X24614285Y30888857D01*
X24757142Y30817428D01*
X25042857Y30817428D01*
X25185714Y30888857D01*
X25257142Y30960285D01*
X25328571Y31103142D01*
X25328571Y32317428D01*
X25828571Y32317428D02*
X26685714Y32317428D01*
X26257142Y30817428D02*
X26257142Y32317428D01*
X27828571Y31817428D02*
X27828571Y30817428D01*
X27471428Y32388857D02*
X27114285Y31317428D01*
X28042857Y31317428D01*
X12509428Y16148857D02*
X11366571Y16148857D01*
X18097428Y16148857D02*
X16954571Y16148857D01*
X17526000Y15577428D02*
X17526000Y16720285D01*
D12*
X14518000Y414000D02*
X14518000Y9414000D01*
X19518000Y9414000D02*
X19518000Y414000D01*
X14518000Y9414000D02*
X14518000Y15414000D01*
X15018000Y913900D02*
X15018000Y8913900D01*
X15518000Y11414000D02*
X15518000Y14414000D01*
X19518000Y9414000D02*
X19518000Y15414000D01*
X19018000Y913900D02*
X19018000Y8913900D01*
X18518000Y11414000D02*
X18518000Y14414000D01*
X15018000Y14414000D02*
X15018000Y17915000D01*
X15518000Y14914100D02*
X15518000Y17414000D01*
X16018000Y8913900D02*
X16018000Y9414000D01*
X19018000Y14414000D02*
X19018000Y17914100D01*
X18518000Y14914100D02*
X18518000Y17414000D01*
X18018000Y8913900D02*
X18018000Y9414000D01*
X19018000Y913900D02*
X15018000Y913900D01*
X15018000Y8913900D02*
X19018000Y8913900D01*
X18518100Y11414000D02*
X15517900Y11414000D01*
X15018000Y14414000D02*
X19018000Y14414000D01*
X15018000Y17914100D02*
X19018000Y17914100D01*
X18519000Y14914100D02*
X15517000Y14914100D01*
X18519000Y17414000D02*
X15517000Y17414000D01*
X19518100Y414000D02*
X14517900Y414000D01*
X19518100Y9414000D02*
X14517900Y9414000D01*
X15018000Y15414000D02*
X14518000Y15414000D01*
X19518000Y15414000D02*
X19018000Y15414000D01*
X14438000Y15414000D02*
X13938000Y15414000D01*
X9938000Y15414000D02*
X9438000Y15414000D01*
X14438100Y9414000D02*
X9437900Y9414000D01*
X14438100Y414000D02*
X9437900Y414000D01*
X13439000Y17414000D02*
X10437000Y17414000D01*
X13439000Y14914100D02*
X10437000Y14914100D01*
X9938000Y17914100D02*
X13938000Y17914100D01*
X9938000Y14414000D02*
X13938000Y14414000D01*
X13438100Y11414000D02*
X10437900Y11414000D01*
X9938000Y8913900D02*
X13938000Y8913900D01*
X13938000Y913900D02*
X9938000Y913900D01*
X12938000Y8913900D02*
X12938000Y9414000D01*
X13438000Y14914100D02*
X13438000Y17414000D01*
X13938000Y14414000D02*
X13938000Y17914100D01*
X10938000Y8913900D02*
X10938000Y9414000D01*
X10438000Y14914100D02*
X10438000Y17414000D01*
X9938000Y14414000D02*
X9938000Y17915000D01*
X13438000Y11414000D02*
X13438000Y14414000D01*
X13938000Y913900D02*
X13938000Y8913900D01*
X14438000Y9414000D02*
X14438000Y15414000D01*
X10438000Y11414000D02*
X10438000Y14414000D01*
X9938000Y913900D02*
X9938000Y8913900D01*
X9438000Y9414000D02*
X9438000Y15414000D01*
X14438000Y9414000D02*
X14438000Y414000D01*
X9438000Y414000D02*
X9438000Y9414000D01*
X2540000Y27686000D02*
X2540000Y30226000D01*
X7620000Y27686000D02*
X2540000Y27686000D01*
X7620000Y30226000D02*
X7620000Y27686000D01*
X2540000Y30226000D02*
X7620000Y30226000D01*
X11938000Y33528000D02*
X11938000Y38608000D01*
X11938000Y38608000D02*
X14478000Y38608000D01*
X14478000Y38608000D02*
X14478000Y33528000D01*
X14478000Y33528000D02*
X11938000Y33528000D01*
X2540000Y14986000D02*
X7620000Y14986000D01*
X7620000Y14986000D02*
X7620000Y12446000D01*
X7620000Y12446000D02*
X2540000Y12446000D01*
X2540000Y12446000D02*
X2540000Y14986000D01*
X2540000Y17526000D02*
X7620000Y17526000D01*
X7620000Y17526000D02*
X7620000Y14986000D01*
X7620000Y14986000D02*
X2540000Y14986000D01*
X2540000Y14986000D02*
X2540000Y17526000D01*
X2540000Y17526000D02*
X2540000Y20066000D01*
X7620000Y17526000D02*
X2540000Y17526000D01*
X7620000Y20066000D02*
X7620000Y17526000D01*
X2540000Y20066000D02*
X7620000Y20066000D01*
X2540000Y22606000D02*
X7620000Y22606000D01*
X7620000Y22606000D02*
X7620000Y20066000D01*
X7620000Y20066000D02*
X2540000Y20066000D01*
X2540000Y20066000D02*
X2540000Y22606000D01*
X2540000Y22606000D02*
X2540000Y25146000D01*
X7620000Y22606000D02*
X2540000Y22606000D01*
X7620000Y25146000D02*
X7620000Y22606000D01*
X2540000Y25146000D02*
X7620000Y25146000D01*
X2540000Y25146000D02*
X2540000Y27686000D01*
X7620000Y25146000D02*
X2540000Y25146000D01*
X7620000Y27686000D02*
X7620000Y25146000D01*
X2540000Y27686000D02*
X7620000Y27686000D01*
X17018000Y33528000D02*
X17018000Y38608000D01*
X17018000Y38608000D02*
X19558000Y38608000D01*
X19558000Y38608000D02*
X19558000Y33528000D01*
X19558000Y33528000D02*
X17018000Y33528000D01*
X17018000Y33528000D02*
X14478000Y33528000D01*
X17018000Y38608000D02*
X17018000Y33528000D01*
X14478000Y38608000D02*
X17018000Y38608000D01*
X14478000Y33528000D02*
X14478000Y38608000D01*
X30480000Y2286000D02*
X20320000Y2286000D01*
X30480000Y7366000D02*
X30480000Y2286000D01*
X20320000Y7366000D02*
X30480000Y7366000D01*
X20320000Y2286000D02*
X20320000Y7366000D01*
X33020000Y19812000D02*
X38100000Y19812000D01*
X38100000Y19812000D02*
X38100000Y9652000D01*
X38100000Y9652000D02*
X33020000Y9652000D01*
X33020000Y9652000D02*
X33020000Y19812000D01*
X33020000Y20828000D02*
X33020000Y30988000D01*
X38100000Y20828000D02*
X33020000Y20828000D01*
X38100000Y30988000D02*
X38100000Y20828000D01*
X33020000Y30988000D02*
X38100000Y30988000D01*
X20320000Y33020000D02*
X20320000Y38100000D01*
X20320000Y38100000D02*
X30480000Y38100000D01*
X30480000Y38100000D02*
X30480000Y33020000D01*
X30480000Y33020000D02*
X20320000Y33020000D01*
X27178000Y20320000D02*
X27178000Y22860000D01*
X27178000Y22860000D02*
X32258000Y22860000D01*
X32258000Y22860000D02*
X32258000Y20320000D01*
X32258000Y20320000D02*
X27178000Y20320000D01*
X2540000Y12446000D02*
X7620000Y12446000D01*
X7620000Y12446000D02*
X7620000Y9906000D01*
X7620000Y9906000D02*
X2540000Y9906000D01*
X2540000Y9906000D02*
X2540000Y12446000D01*
D13*
X21816190Y2047857D02*
X21816190Y1762142D01*
X21816190Y1905000D02*
X21316190Y1905000D01*
X21387619Y1857380D01*
X21435238Y1809761D01*
X21459047Y1762142D01*
X32781857Y18315809D02*
X32496142Y18315809D01*
X32639000Y18315809D02*
X32639000Y18815809D01*
X32591380Y18744380D01*
X32543761Y18696761D01*
X32496142Y18672952D01*
X32781857Y29491809D02*
X32496142Y29491809D01*
X32639000Y29491809D02*
X32639000Y29991809D01*
X32591380Y29920380D01*
X32543761Y29872761D01*
X32496142Y29848952D01*
X21816190Y32781857D02*
X21816190Y32496142D01*
X21816190Y32639000D02*
X21316190Y32639000D01*
X21387619Y32591380D01*
X21435238Y32543761D01*
X21459047Y32496142D01*
M02*
