%
T1C.035F197S55
X013325Y016509
X013325Y017509
X013325Y018509
X014325Y016509
X014325Y017509
X014325Y018509
X01894Y01832
X01994Y01832
X021893Y017036
X021893Y018036
X021893Y016036
X022893Y016036
X022893Y018036
X022893Y017036
X022893Y019036
X022893Y020036
X021893Y020036
X021893Y019036
X014325Y019509
X013325Y019509
X0164Y0219
X0164Y0229
X0174Y0219
X0174Y0229
X0184Y0219
X0184Y0229
T2C.12598F035S794
X014Y014
X022Y014
X022Y022
X014Y022
M30
