%
T1C.02F197S55
X034924Y017996
T2C.028F197S55
X031174Y017656
X031174Y018336
T3C.035F197S55
X021226Y018057
X022226Y018057
X021226Y019057
X022226Y019057
X021226Y020057
X022226Y020057
X021226Y021043
X022226Y021043
X021226Y022043
X022226Y022043
X021227Y023043
X022227Y023043
X024691Y030982
X024691Y029982
X024691Y028982
X026835Y026832
X027835Y026832
X025666Y025106
X027637Y025106
X02695Y01655
X02595Y01655
X02595Y01555
X02695Y01555
X028455Y014193
X028455Y013193
X029455Y013193
X030455Y013193
X029455Y014193
X030455Y014193
X030177Y01839
X029177Y01839
X030177Y01939
X029177Y01939
X03085Y0251
X03085Y0261
X030654Y028583
X030654Y029583
X030654Y030583
X031654Y030583
X031654Y029583
X031654Y028583
X03285Y0261
X03185Y0261
X03385Y0261
X03185Y0251
X03285Y0251
X03385Y0251
X03385Y0239
X03485Y0239
X03485Y0229
X03385Y0229
X03385Y0219
X03485Y0219
X03385Y0209
X03485Y0209
X03385Y0199
X03485Y0199
T4C.037F197S55
X024624Y013368
X02334Y0175
X0261Y01754
X0247Y02032
X02376Y02436
X02262Y0276
X025642Y027756
X02895Y031135
X027271Y031016
X02984Y02512
X02808Y0236
X031Y0201
X02712Y0189
X02942Y0164
X0301Y0163
X02772Y01576
X031758Y014014
T5C.12598F035S794
X022Y014
X022Y03
X034Y03
X034Y014
M30
