G04 #@! TF.FileFunction,Copper,L1,Top,Signal*
%FSLAX46Y46*%
G04 Gerber Fmt 4.6, Leading zero omitted, Abs format (unit mm)*
G04 Created by KiCad (PCBNEW (2015-05-13 BZR 5653)-product) date 7. 1. 2016 10:12:27*
%MOMM*%
G01*
G04 APERTURE LIST*
%ADD10C,0.300000*%
%ADD11R,3.810000X3.810000*%
%ADD12C,6.000000*%
%ADD13R,1.524000X1.524000*%
%ADD14C,1.480820*%
%ADD15C,0.889000*%
%ADD16C,0.400000*%
%ADD17C,0.254000*%
%ADD18C,0.500000*%
%ADD19C,0.200000*%
G04 APERTURE END LIST*
D10*
D11*
X13716000Y35226000D03*
X13716000Y30226000D03*
X18796000Y35226000D03*
X18796000Y30226000D03*
D12*
X45720000Y35560000D03*
X45720000Y5080000D03*
X5080000Y35560000D03*
X5080000Y5080000D03*
D13*
X27686000Y5334000D03*
X27686000Y7874000D03*
X25146000Y7874000D03*
X25146000Y5334000D03*
X11938000Y3810000D03*
X11938000Y6350000D03*
X14478000Y3810000D03*
X14478000Y6350000D03*
X34290000Y31242000D03*
X36830000Y31242000D03*
X34290000Y33782000D03*
X36830000Y33782000D03*
X34290000Y28702000D03*
X36830000Y28702000D03*
X30226000Y5334000D03*
X30226000Y7874000D03*
X44450000Y27178000D03*
X46990000Y27178000D03*
X44450000Y29718000D03*
X46990000Y29718000D03*
X34290000Y26162000D03*
X36830000Y26162000D03*
X2540000Y29972000D03*
X5080000Y29972000D03*
X2540000Y27432000D03*
X5080000Y27432000D03*
X2540000Y24892000D03*
X5080000Y24892000D03*
D14*
X26670000Y31384240D03*
X26670000Y33385760D03*
D13*
X34290000Y36322000D03*
X36830000Y36322000D03*
D11*
X10334000Y18288000D03*
X5334000Y18288000D03*
X10334000Y13288000D03*
X5334000Y13288000D03*
X40466000Y20066000D03*
X45466000Y20066000D03*
X40466000Y15066000D03*
X45466000Y15066000D03*
D13*
X32766000Y5334000D03*
X32766000Y7874000D03*
D15*
X20066000Y13208000D03*
X31114996Y12065000D03*
X26924000Y13208000D03*
X29083000Y18288000D03*
X30325060Y18288000D03*
X28067000Y17145000D03*
X28067000Y19685000D03*
X26289000Y19939000D03*
X26162000Y18034000D03*
X26924000Y16256000D03*
X23876000Y16256000D03*
X22225000Y16129000D03*
X22225000Y17780000D03*
X22225000Y19431000D03*
X22225000Y20701000D03*
X23495000Y20701000D03*
X23495000Y19304000D03*
X23368000Y17780000D03*
X24765000Y17780000D03*
X24892000Y19050000D03*
X25019000Y20447000D03*
X19433975Y4068390D03*
X19431000Y2032000D03*
X31882487Y3815487D03*
X32893000Y3937000D03*
X25527000Y34925000D03*
X25527000Y36322000D03*
X26797000Y37465000D03*
X13716000Y27432000D03*
X13716000Y24511000D03*
X33274000Y2540000D03*
X22098000Y28702000D03*
X10922000Y23622000D03*
X39116000Y31369000D03*
X26162000Y23368000D03*
X25894365Y26556636D03*
X27184332Y22856834D03*
X25019000Y23368000D03*
X23523488Y26641515D03*
X22352000Y26670000D03*
X22860000Y23368000D03*
X23685511Y8890000D03*
X22606000Y9906000D03*
X38862000Y11176000D03*
X28941915Y9129915D03*
X34544000Y11176000D03*
D16*
X26924000Y13208000D02*
X28067000Y12065000D01*
X30486379Y12065000D02*
X31114996Y12065000D01*
X28067000Y12065000D02*
X30486379Y12065000D01*
D17*
X30325060Y18288000D02*
X29083000Y18288000D01*
X29083000Y18161000D02*
X28067000Y17145000D01*
X29083000Y18288000D02*
X29083000Y18161000D01*
X28067000Y17145000D02*
X28067000Y19685000D01*
X26543000Y19685000D02*
X26289000Y19939000D01*
X28067000Y19685000D02*
X26543000Y19685000D01*
X26289000Y18161000D02*
X26162000Y18034000D01*
X26289000Y19939000D02*
X26289000Y18161000D01*
X27051000Y16383000D02*
X26924000Y16256000D01*
X26162000Y18034000D02*
X27051000Y16383000D01*
X24003000Y16383000D02*
X23876000Y16256000D01*
X26924000Y16256000D02*
X24003000Y16383000D01*
X22352000Y16256000D02*
X22225000Y16129000D01*
X23876000Y16256000D02*
X22352000Y16256000D01*
X22225000Y17907000D02*
X22225000Y17780000D01*
X22225000Y16129000D02*
X22225000Y17907000D01*
X22225000Y17780000D02*
X22225000Y19431000D01*
X22225000Y19431000D02*
X22225000Y20701000D01*
X22225000Y20701000D02*
X23495000Y20701000D01*
X23495000Y20701000D02*
X23495000Y19304000D01*
X23495000Y17907000D02*
X23368000Y17780000D01*
X23495000Y19304000D02*
X23495000Y17907000D01*
X23368000Y17780000D02*
X24765000Y17780000D01*
X24765000Y18923000D02*
X24892000Y19050000D01*
X24765000Y17780000D02*
X24765000Y18923000D01*
X24892000Y20320000D02*
X25019000Y20447000D01*
X24892000Y19050000D02*
X24892000Y20320000D01*
D10*
X19433975Y2034975D02*
X19431000Y2032000D01*
X19433975Y4068390D02*
X19433975Y2034975D01*
X32771487Y3815487D02*
X32893000Y3937000D01*
X31882487Y3815487D02*
X32771487Y3815487D01*
X25527000Y34925000D02*
X25527000Y36322000D01*
X13716000Y30226000D02*
X13716000Y27432000D01*
D18*
X26678000Y2540000D02*
X25146000Y4072000D01*
X25146000Y4072000D02*
X25146000Y5334000D01*
X6342000Y27432000D02*
X9398000Y30488000D01*
X5080000Y27432000D02*
X6342000Y27432000D01*
X9398000Y30488000D02*
X9398000Y35625202D01*
X9398000Y35625202D02*
X9398000Y36576000D01*
X9398000Y36576000D02*
X11684000Y38862000D01*
X11684000Y38862000D02*
X20902628Y38862000D01*
X21564103Y29235897D02*
X22098000Y28702000D01*
X21564103Y38862000D02*
X21564103Y29235897D01*
X20902628Y38862000D02*
X21564103Y38862000D01*
X26412001Y9039201D02*
X23767202Y11684000D01*
X26412001Y6708799D02*
X26412001Y9039201D01*
X25037202Y5334000D02*
X26412001Y6708799D01*
X25146000Y5334000D02*
X25037202Y5334000D01*
X23767202Y11684000D02*
X14986000Y11684000D01*
X14986000Y11684000D02*
X13462000Y13208000D01*
X13462000Y21082000D02*
X10922000Y23622000D01*
X13462000Y13208000D02*
X13462000Y21082000D01*
X21564103Y38862000D02*
X36721202Y38862000D01*
X39116000Y36467202D02*
X38874077Y36709125D01*
X39116000Y31369000D02*
X39116000Y36467202D01*
X36721202Y38862000D02*
X38874077Y36709125D01*
X30220920Y2540000D02*
X26678000Y2540000D01*
X33274000Y2540000D02*
X30220920Y2540000D01*
D10*
X30226000Y7874000D02*
X30226000Y5334000D01*
X26162000Y23368000D02*
X28956000Y26162000D01*
X28956000Y26162000D02*
X34290000Y26162000D01*
D17*
X29811346Y29845000D02*
X43306999Y29845001D01*
X43306999Y29845001D02*
X43434000Y29718000D01*
X43434000Y29718000D02*
X44450000Y29718000D01*
X25894365Y26556636D02*
X26522982Y26556636D01*
X26522982Y26556636D02*
X29811346Y29845000D01*
X44323000Y29845000D02*
X44450000Y29718000D01*
X27184332Y22856834D02*
X41144834Y22856834D01*
X41144834Y22856834D02*
X44450000Y26162000D01*
X44450000Y26162000D02*
X44450000Y27178000D01*
X25019000Y23368000D02*
X25019000Y23996617D01*
X25019000Y23996617D02*
X29724383Y28702000D01*
X29724383Y28702000D02*
X33274000Y28702000D01*
X33274000Y28702000D02*
X34290000Y28702000D01*
D10*
X23523488Y26641515D02*
X24841119Y27959146D01*
X24841119Y27959146D02*
X26391044Y27959146D01*
X26391044Y27959146D02*
X32213898Y33782000D01*
X32213898Y33782000D02*
X33228000Y33782000D01*
X33228000Y33782000D02*
X34290000Y33782000D01*
X22352000Y26670000D02*
X22352000Y27298617D01*
X22352000Y27298617D02*
X24644383Y29591000D01*
X24644383Y29591000D02*
X26497000Y29591000D01*
X26497000Y29591000D02*
X33228000Y36322000D01*
X33228000Y36322000D02*
X34290000Y36322000D01*
X34290000Y31242000D02*
X33228000Y31242000D01*
X33228000Y31242000D02*
X32258000Y31242000D01*
X24838167Y26700412D02*
X24963519Y26825764D01*
X22860000Y24722245D02*
X24838167Y26700412D01*
X26620523Y27405137D02*
X29672386Y30457000D01*
X24838167Y26700412D02*
X24838167Y26756220D01*
X24838167Y26756220D02*
X25487084Y27405137D01*
X25487084Y27405137D02*
X26620523Y27405137D01*
X29672386Y30457000D02*
X31473000Y30457000D01*
X31473000Y30457000D02*
X32258000Y31242000D01*
D17*
X31496000Y30480000D02*
X29727912Y30480000D01*
X29727912Y30480000D02*
X26630049Y27382137D01*
X26630049Y27382137D02*
X25519892Y27382137D01*
X25519892Y27382137D02*
X24963519Y26825764D01*
X31496000Y30480000D02*
X32258000Y31242000D01*
D10*
X22860000Y23368000D02*
X22860000Y24722245D01*
X14478000Y7412000D02*
X14478000Y6350000D01*
X15956000Y8890000D02*
X14478000Y7412000D01*
X23685511Y8890000D02*
X15956000Y8890000D01*
X11938000Y7412000D02*
X11938000Y6350000D01*
X14432000Y9906000D02*
X11938000Y7412000D01*
X22606000Y9906000D02*
X14432000Y9906000D01*
X36068000Y11176000D02*
X32766000Y7874000D01*
X38862000Y11176000D02*
X36068000Y11176000D01*
X29386414Y9574414D02*
X30656414Y9574414D01*
X28941915Y9129915D02*
X29386414Y9574414D01*
X32258000Y11176000D02*
X34544000Y11176000D01*
X30656414Y9574414D02*
X32258000Y11176000D01*
D19*
G36*
X27586000Y12800000D02*
X19304000Y12800000D01*
X16610000Y12800000D01*
X16610000Y37492000D01*
X20960103Y37492000D01*
X20960103Y29235897D01*
X20982000Y29125813D01*
X20982000Y14732000D01*
X20982000Y13870000D01*
X27586000Y13870000D01*
X27586000Y12800000D01*
X27586000Y12800000D01*
G37*
X27586000Y12800000D02*
X19304000Y12800000D01*
X16610000Y12800000D01*
X16610000Y37492000D01*
X20960103Y37492000D01*
X20960103Y29235897D01*
X20982000Y29125813D01*
X20982000Y14732000D01*
X20982000Y13870000D01*
X27586000Y13870000D01*
X27586000Y12800000D01*
G36*
X50196000Y604000D02*
X48112935Y604000D01*
X48112935Y26416000D01*
X48112935Y27940000D01*
X48112935Y28956000D01*
X48112935Y30480000D01*
X48086746Y30614979D01*
X48008816Y30733613D01*
X47891170Y30813026D01*
X47752000Y30840935D01*
X46228000Y30840935D01*
X46093021Y30814746D01*
X45974387Y30736816D01*
X45894974Y30619170D01*
X45867065Y30480000D01*
X45867065Y28956000D01*
X45893254Y28821021D01*
X45971184Y28702387D01*
X46088830Y28622974D01*
X46228000Y28595065D01*
X47752000Y28595065D01*
X47886979Y28621254D01*
X48005613Y28699184D01*
X48085026Y28816830D01*
X48112935Y28956000D01*
X48112935Y27940000D01*
X48086746Y28074979D01*
X48008816Y28193613D01*
X47891170Y28273026D01*
X47752000Y28300935D01*
X46228000Y28300935D01*
X46093021Y28274746D01*
X45974387Y28196816D01*
X45894974Y28079170D01*
X45867065Y27940000D01*
X45867065Y26416000D01*
X45893254Y26281021D01*
X45971184Y26162387D01*
X46088830Y26082974D01*
X46228000Y26055065D01*
X47752000Y26055065D01*
X47886979Y26081254D01*
X48005613Y26159184D01*
X48085026Y26276830D01*
X48112935Y26416000D01*
X48112935Y604000D01*
X47731935Y604000D01*
X47731935Y13161000D01*
X47731935Y16971000D01*
X47731935Y18161000D01*
X47731935Y21971000D01*
X47705746Y22105979D01*
X47627816Y22224613D01*
X47510170Y22304026D01*
X47371000Y22331935D01*
X45572935Y22331935D01*
X45572935Y26416000D01*
X45572935Y27940000D01*
X45546746Y28074979D01*
X45468816Y28193613D01*
X45351170Y28273026D01*
X45212000Y28300935D01*
X43688000Y28300935D01*
X43553021Y28274746D01*
X43434387Y28196816D01*
X43354974Y28079170D01*
X43327065Y27940000D01*
X43327065Y26416000D01*
X43353254Y26281021D01*
X43431184Y26162387D01*
X43548830Y26082974D01*
X43667032Y26059270D01*
X40945597Y23337834D01*
X37952935Y23337834D01*
X37952935Y25400000D01*
X37952935Y26924000D01*
X37926746Y27058979D01*
X37848816Y27177613D01*
X37731170Y27257026D01*
X37592000Y27284935D01*
X36068000Y27284935D01*
X35933021Y27258746D01*
X35814387Y27180816D01*
X35734974Y27063170D01*
X35707065Y26924000D01*
X35707065Y25400000D01*
X35733254Y25265021D01*
X35811184Y25146387D01*
X35928830Y25066974D01*
X36068000Y25039065D01*
X37592000Y25039065D01*
X37726979Y25065254D01*
X37845613Y25143184D01*
X37925026Y25260830D01*
X37952935Y25400000D01*
X37952935Y23337834D01*
X27832436Y23337834D01*
X27637237Y23533375D01*
X27343860Y23655196D01*
X27162118Y23655355D01*
X29164764Y25658000D01*
X33167065Y25658000D01*
X33167065Y25400000D01*
X33193254Y25265021D01*
X33271184Y25146387D01*
X33388830Y25066974D01*
X33528000Y25039065D01*
X35052000Y25039065D01*
X35186979Y25065254D01*
X35305613Y25143184D01*
X35385026Y25260830D01*
X35412935Y25400000D01*
X35412935Y26924000D01*
X35386746Y27058979D01*
X35308816Y27177613D01*
X35191170Y27257026D01*
X35052000Y27284935D01*
X33528000Y27284935D01*
X33393021Y27258746D01*
X33274387Y27180816D01*
X33194974Y27063170D01*
X33167065Y26924000D01*
X33167065Y26666000D01*
X28956000Y26666000D01*
X28763128Y26627635D01*
X28599618Y26518382D01*
X26247662Y24166427D01*
X26003865Y24166639D01*
X25774475Y24071857D01*
X29923619Y28221000D01*
X33167065Y28221000D01*
X33167065Y27940000D01*
X33193254Y27805021D01*
X33271184Y27686387D01*
X33388830Y27606974D01*
X33528000Y27579065D01*
X35052000Y27579065D01*
X35186979Y27605254D01*
X35305613Y27683184D01*
X35385026Y27800830D01*
X35412935Y27940000D01*
X35412935Y29364001D01*
X35707065Y29364001D01*
X35707065Y27940000D01*
X35733254Y27805021D01*
X35811184Y27686387D01*
X35928830Y27606974D01*
X36068000Y27579065D01*
X37592000Y27579065D01*
X37726979Y27605254D01*
X37845613Y27683184D01*
X37925026Y27800830D01*
X37952935Y27940000D01*
X37952935Y29364001D01*
X43114654Y29364001D01*
X43114656Y29364001D01*
X43249929Y29273614D01*
X43249930Y29273613D01*
X43327065Y29258271D01*
X43327065Y28956000D01*
X43353254Y28821021D01*
X43431184Y28702387D01*
X43548830Y28622974D01*
X43688000Y28595065D01*
X45212000Y28595065D01*
X45346979Y28621254D01*
X45465613Y28699184D01*
X45545026Y28816830D01*
X45572935Y28956000D01*
X45572935Y30480000D01*
X45546746Y30614979D01*
X45468816Y30733613D01*
X45351170Y30813026D01*
X45212000Y30840935D01*
X43688000Y30840935D01*
X43553021Y30814746D01*
X43434387Y30736816D01*
X43354974Y30619170D01*
X43327065Y30480000D01*
X43327065Y30322010D01*
X43306999Y30326001D01*
X37915015Y30326001D01*
X37925026Y30340830D01*
X37952935Y30480000D01*
X37952935Y32004000D01*
X37952935Y33020000D01*
X37952935Y34544000D01*
X37926746Y34678979D01*
X37848816Y34797613D01*
X37731170Y34877026D01*
X37592000Y34904935D01*
X36068000Y34904935D01*
X35933021Y34878746D01*
X35814387Y34800816D01*
X35734974Y34683170D01*
X35707065Y34544000D01*
X35707065Y33020000D01*
X35733254Y32885021D01*
X35811184Y32766387D01*
X35928830Y32686974D01*
X36068000Y32659065D01*
X37592000Y32659065D01*
X37726979Y32685254D01*
X37845613Y32763184D01*
X37925026Y32880830D01*
X37952935Y33020000D01*
X37952935Y32004000D01*
X37926746Y32138979D01*
X37848816Y32257613D01*
X37731170Y32337026D01*
X37592000Y32364935D01*
X36068000Y32364935D01*
X35933021Y32338746D01*
X35814387Y32260816D01*
X35734974Y32143170D01*
X35707065Y32004000D01*
X35707065Y30480000D01*
X35733254Y30345021D01*
X35745748Y30326001D01*
X35375015Y30326001D01*
X35385026Y30340830D01*
X35412935Y30480000D01*
X35412935Y32004000D01*
X35386746Y32138979D01*
X35308816Y32257613D01*
X35191170Y32337026D01*
X35052000Y32364935D01*
X33528000Y32364935D01*
X33393021Y32338746D01*
X33274387Y32260816D01*
X33194974Y32143170D01*
X33167065Y32004000D01*
X33167065Y31746000D01*
X32258005Y31746000D01*
X32258000Y31746001D01*
X32065128Y31707635D01*
X31901618Y31598382D01*
X31264236Y30961000D01*
X30105662Y30961000D01*
X32422661Y33278000D01*
X33167065Y33278000D01*
X33167065Y33020000D01*
X33193254Y32885021D01*
X33271184Y32766387D01*
X33388830Y32686974D01*
X33528000Y32659065D01*
X35052000Y32659065D01*
X35186979Y32685254D01*
X35305613Y32763184D01*
X35385026Y32880830D01*
X35412935Y33020000D01*
X35412935Y34544000D01*
X35386746Y34678979D01*
X35308816Y34797613D01*
X35191170Y34877026D01*
X35052000Y34904935D01*
X33528000Y34904935D01*
X33393021Y34878746D01*
X33274387Y34800816D01*
X33194974Y34683170D01*
X33167065Y34544000D01*
X33167065Y34286000D01*
X32213898Y34286000D01*
X32021025Y34247635D01*
X31857516Y34138382D01*
X26182280Y28463146D01*
X24841124Y28463146D01*
X24841119Y28463147D01*
X24648247Y28424781D01*
X24484737Y28315528D01*
X23609150Y27439942D01*
X23365353Y27440154D01*
X23094305Y27328159D01*
X24853147Y29087000D01*
X26497000Y29087000D01*
X26689872Y29125365D01*
X26689873Y29125365D01*
X26853382Y29234618D01*
X33168965Y35550203D01*
X33193254Y35425021D01*
X33271184Y35306387D01*
X33388830Y35226974D01*
X33528000Y35199065D01*
X35052000Y35199065D01*
X35186979Y35225254D01*
X35305613Y35303184D01*
X35385026Y35420830D01*
X35412935Y35560000D01*
X35412935Y37084000D01*
X35386746Y37218979D01*
X35308816Y37337613D01*
X35191170Y37417026D01*
X35052000Y37444935D01*
X33528000Y37444935D01*
X33393021Y37418746D01*
X33274387Y37340816D01*
X33194974Y37223170D01*
X33167065Y37084000D01*
X33167065Y36813880D01*
X33035128Y36787635D01*
X32871618Y36678382D01*
X32871615Y36678379D01*
X27764574Y31571338D01*
X27764600Y31600977D01*
X27598337Y32003364D01*
X27290743Y32311495D01*
X26888647Y32478460D01*
X26453263Y32478840D01*
X26050876Y32312577D01*
X25742745Y32004983D01*
X25575780Y31602887D01*
X25575400Y31167503D01*
X25741663Y30765116D01*
X26049257Y30456985D01*
X26451353Y30290020D01*
X26483228Y30289993D01*
X26288236Y30095000D01*
X24644383Y30095000D01*
X24451510Y30056635D01*
X24288001Y29947382D01*
X22896373Y28555755D01*
X22896639Y28860135D01*
X22775330Y29153723D01*
X22550905Y29378541D01*
X22257528Y29500362D01*
X22168103Y29500440D01*
X22168103Y38258000D01*
X36471017Y38258000D01*
X37284082Y37444935D01*
X36068000Y37444935D01*
X35933021Y37418746D01*
X35814387Y37340816D01*
X35734974Y37223170D01*
X35707065Y37084000D01*
X35707065Y35560000D01*
X35733254Y35425021D01*
X35811184Y35306387D01*
X35928830Y35226974D01*
X36068000Y35199065D01*
X37592000Y35199065D01*
X37726979Y35225254D01*
X37845613Y35303184D01*
X37925026Y35420830D01*
X37952935Y35560000D01*
X37952935Y36776082D01*
X38446984Y36282033D01*
X38446985Y36282033D01*
X38446987Y36282031D01*
X38512000Y36217017D01*
X38512000Y31894320D01*
X38439459Y31821905D01*
X38317638Y31528528D01*
X38317361Y31210865D01*
X38438670Y30917277D01*
X38663095Y30692459D01*
X38956472Y30570638D01*
X39274135Y30570361D01*
X39567723Y30691670D01*
X39792541Y30916095D01*
X39914362Y31209472D01*
X39914639Y31527135D01*
X39793330Y31820723D01*
X39720000Y31894181D01*
X39720000Y36467202D01*
X39674023Y36698342D01*
X39674023Y36698343D01*
X39621579Y36776830D01*
X39543093Y36894294D01*
X39301171Y37136215D01*
X39301169Y37136217D01*
X39301169Y37136218D01*
X37148294Y39289092D01*
X36952343Y39420023D01*
X36721202Y39466000D01*
X21564103Y39466000D01*
X20902628Y39466000D01*
X11684000Y39466000D01*
X11452859Y39420023D01*
X11256907Y39289092D01*
X8970908Y37003092D01*
X8839977Y36807141D01*
X8794000Y36576000D01*
X8794000Y35625202D01*
X8794000Y30738185D01*
X6202935Y28147120D01*
X6202935Y28194000D01*
X6176746Y28328979D01*
X6098816Y28447613D01*
X5981170Y28527026D01*
X5842000Y28554935D01*
X4318000Y28554935D01*
X4183021Y28528746D01*
X4064387Y28450816D01*
X3984974Y28333170D01*
X3957065Y28194000D01*
X3957065Y26670000D01*
X3983254Y26535021D01*
X4061184Y26416387D01*
X4178830Y26336974D01*
X4318000Y26309065D01*
X5842000Y26309065D01*
X5976979Y26335254D01*
X6095613Y26413184D01*
X6175026Y26530830D01*
X6202935Y26670000D01*
X6202935Y26828000D01*
X6342000Y26828000D01*
X6342000Y26828001D01*
X6573140Y26873977D01*
X6573141Y26873977D01*
X6769092Y27004908D01*
X9825092Y30060908D01*
X9825093Y30060908D01*
X9903579Y30178373D01*
X9956023Y30256859D01*
X9956023Y30256860D01*
X10002000Y30488000D01*
X10002000Y35625202D01*
X10002000Y36325816D01*
X11934184Y38258000D01*
X20902628Y38258000D01*
X20960103Y38258000D01*
X20960103Y37892000D01*
X16210000Y37892000D01*
X16210000Y12400000D01*
X19304000Y12400000D01*
X26948526Y12400000D01*
X27675263Y11673263D01*
X27854993Y11553171D01*
X27854994Y11553171D01*
X28067000Y11511000D01*
X30486379Y11511000D01*
X30539764Y11511000D01*
X30662091Y11388459D01*
X30955468Y11266638D01*
X31273131Y11266361D01*
X31566719Y11387670D01*
X31791537Y11612095D01*
X31913358Y11905472D01*
X31913635Y12223135D01*
X31792326Y12516723D01*
X31567901Y12741541D01*
X31274524Y12863362D01*
X30956861Y12863639D01*
X30663273Y12742330D01*
X30539727Y12619000D01*
X30486379Y12619000D01*
X28296474Y12619000D01*
X27986000Y12929474D01*
X27986000Y14270000D01*
X21382000Y14270000D01*
X21382000Y14732000D01*
X21382000Y28343864D01*
X21420670Y28250277D01*
X21645095Y28025459D01*
X21938472Y27903638D01*
X22243990Y27903372D01*
X21995618Y27654999D01*
X21886365Y27491490D01*
X21848000Y27298617D01*
X21848000Y27295145D01*
X21675459Y27122905D01*
X21553638Y26829528D01*
X21553361Y26511865D01*
X21674670Y26218277D01*
X21899095Y25993459D01*
X22192472Y25871638D01*
X22510135Y25871361D01*
X22803723Y25992670D01*
X22923538Y26112277D01*
X23070583Y25964974D01*
X23296256Y25871266D01*
X22503618Y25078627D01*
X22394365Y24915118D01*
X22356000Y24722245D01*
X22356000Y23993145D01*
X22183459Y23820905D01*
X22061638Y23527528D01*
X22061361Y23209865D01*
X22182670Y22916277D01*
X22407095Y22691459D01*
X22700472Y22569638D01*
X23018135Y22569361D01*
X23311723Y22690670D01*
X23536541Y22915095D01*
X23658362Y23208472D01*
X23658639Y23526135D01*
X23537330Y23819723D01*
X23364000Y23993356D01*
X23364000Y24513481D01*
X25140546Y26290028D01*
X25217035Y26104913D01*
X25441460Y25880095D01*
X25734837Y25758274D01*
X26052500Y25757997D01*
X26133691Y25791545D01*
X24678882Y24336735D01*
X24574614Y24180688D01*
X24542836Y24020933D01*
X24342459Y23820905D01*
X24220638Y23527528D01*
X24220361Y23209865D01*
X24341670Y22916277D01*
X24566095Y22691459D01*
X24859472Y22569638D01*
X25177135Y22569361D01*
X25470723Y22690670D01*
X25590512Y22810250D01*
X25709095Y22691459D01*
X26002472Y22569638D01*
X26320135Y22569361D01*
X26421780Y22611361D01*
X26507002Y22405111D01*
X26731427Y22180293D01*
X27024804Y22058472D01*
X27342467Y22058195D01*
X27636055Y22179504D01*
X27832728Y22375834D01*
X41144834Y22375834D01*
X41144834Y22375835D01*
X41328905Y22412448D01*
X41484952Y22516716D01*
X44790118Y25821882D01*
X44790119Y25821882D01*
X44894386Y25977929D01*
X44894387Y25977930D01*
X44909729Y26055065D01*
X45212000Y26055065D01*
X45346979Y26081254D01*
X45465613Y26159184D01*
X45545026Y26276830D01*
X45572935Y26416000D01*
X45572935Y22331935D01*
X43561000Y22331935D01*
X43426021Y22305746D01*
X43307387Y22227816D01*
X43227974Y22110170D01*
X43200065Y21971000D01*
X43200065Y18161000D01*
X43226254Y18026021D01*
X43304184Y17907387D01*
X43421830Y17827974D01*
X43561000Y17800065D01*
X47371000Y17800065D01*
X47505979Y17826254D01*
X47624613Y17904184D01*
X47704026Y18021830D01*
X47731935Y18161000D01*
X47731935Y16971000D01*
X47705746Y17105979D01*
X47627816Y17224613D01*
X47510170Y17304026D01*
X47371000Y17331935D01*
X43561000Y17331935D01*
X43426021Y17305746D01*
X43307387Y17227816D01*
X43227974Y17110170D01*
X43200065Y16971000D01*
X43200065Y13161000D01*
X43226254Y13026021D01*
X43304184Y12907387D01*
X43421830Y12827974D01*
X43561000Y12800065D01*
X47371000Y12800065D01*
X47505979Y12826254D01*
X47624613Y12904184D01*
X47704026Y13021830D01*
X47731935Y13161000D01*
X47731935Y604000D01*
X42731935Y604000D01*
X42731935Y13161000D01*
X42731935Y16971000D01*
X42731935Y18161000D01*
X42731935Y21971000D01*
X42705746Y22105979D01*
X42627816Y22224613D01*
X42510170Y22304026D01*
X42371000Y22331935D01*
X38561000Y22331935D01*
X38426021Y22305746D01*
X38307387Y22227816D01*
X38227974Y22110170D01*
X38200065Y21971000D01*
X38200065Y18161000D01*
X38226254Y18026021D01*
X38304184Y17907387D01*
X38421830Y17827974D01*
X38561000Y17800065D01*
X42371000Y17800065D01*
X42505979Y17826254D01*
X42624613Y17904184D01*
X42704026Y18021830D01*
X42731935Y18161000D01*
X42731935Y16971000D01*
X42705746Y17105979D01*
X42627816Y17224613D01*
X42510170Y17304026D01*
X42371000Y17331935D01*
X38561000Y17331935D01*
X38426021Y17305746D01*
X38307387Y17227816D01*
X38227974Y17110170D01*
X38200065Y16971000D01*
X38200065Y13161000D01*
X38226254Y13026021D01*
X38304184Y12907387D01*
X38421830Y12827974D01*
X38561000Y12800065D01*
X42371000Y12800065D01*
X42505979Y12826254D01*
X42624613Y12904184D01*
X42704026Y13021830D01*
X42731935Y13161000D01*
X42731935Y604000D01*
X39660639Y604000D01*
X39660639Y11334135D01*
X39539330Y11627723D01*
X39314905Y11852541D01*
X39021528Y11974362D01*
X38703865Y11974639D01*
X38410277Y11853330D01*
X38236643Y11680000D01*
X36068000Y11680000D01*
X35875127Y11641635D01*
X35711618Y11532382D01*
X35342489Y11163254D01*
X35342639Y11334135D01*
X35221330Y11627723D01*
X34996905Y11852541D01*
X34703528Y11974362D01*
X34385865Y11974639D01*
X34092277Y11853330D01*
X33918643Y11680000D01*
X32258005Y11680000D01*
X32258000Y11680001D01*
X32065128Y11641635D01*
X31901618Y11532382D01*
X30447650Y10078414D01*
X29386419Y10078414D01*
X29386414Y10078415D01*
X29193542Y10040049D01*
X29030032Y9930796D01*
X29030029Y9930793D01*
X29027578Y9928342D01*
X28783780Y9928554D01*
X28490192Y9807245D01*
X28265374Y9582820D01*
X28143553Y9289443D01*
X28143297Y8996935D01*
X27016001Y8996935D01*
X27016001Y9039201D01*
X26970024Y9270341D01*
X26970024Y9270342D01*
X26917580Y9348829D01*
X26839094Y9466293D01*
X24194294Y12111092D01*
X23998343Y12242023D01*
X23767202Y12288000D01*
X15236184Y12288000D01*
X14066000Y13458184D01*
X14066000Y21082000D01*
X14020023Y21313141D01*
X13889092Y21509092D01*
X13889092Y21509093D01*
X11720549Y23677635D01*
X11720639Y23780135D01*
X11599330Y24073723D01*
X11374905Y24298541D01*
X11081528Y24420362D01*
X10763865Y24420639D01*
X10470277Y24299330D01*
X10245459Y24074905D01*
X10123638Y23781528D01*
X10123361Y23463865D01*
X10244670Y23170277D01*
X10469095Y22945459D01*
X10762472Y22823638D01*
X10866268Y22823548D01*
X12858000Y20831815D01*
X12858000Y13208000D01*
X12903977Y12976859D01*
X13034908Y12780908D01*
X14558907Y11256908D01*
X14558908Y11256908D01*
X14754859Y11125977D01*
X14986000Y11080000D01*
X23517017Y11080000D01*
X25600082Y8996935D01*
X24484105Y8996935D01*
X24484150Y9048135D01*
X24362841Y9341723D01*
X24138416Y9566541D01*
X23845039Y9688362D01*
X23527376Y9688639D01*
X23349896Y9615306D01*
X23404362Y9746472D01*
X23404639Y10064135D01*
X23283330Y10357723D01*
X23058905Y10582541D01*
X22765528Y10704362D01*
X22447865Y10704639D01*
X22154277Y10583330D01*
X21980643Y10410000D01*
X14432005Y10410000D01*
X14432000Y10410001D01*
X14239128Y10371635D01*
X14075618Y10262382D01*
X12599935Y8786699D01*
X12599935Y11383000D01*
X12599935Y15193000D01*
X12599935Y16383000D01*
X12599935Y20193000D01*
X12573746Y20327979D01*
X12495816Y20446613D01*
X12378170Y20526026D01*
X12239000Y20553935D01*
X8429000Y20553935D01*
X8294021Y20527746D01*
X8175387Y20449816D01*
X8095974Y20332170D01*
X8068065Y20193000D01*
X8068065Y16383000D01*
X8094254Y16248021D01*
X8172184Y16129387D01*
X8289830Y16049974D01*
X8429000Y16022065D01*
X12239000Y16022065D01*
X12373979Y16048254D01*
X12492613Y16126184D01*
X12572026Y16243830D01*
X12599935Y16383000D01*
X12599935Y15193000D01*
X12573746Y15327979D01*
X12495816Y15446613D01*
X12378170Y15526026D01*
X12239000Y15553935D01*
X8429000Y15553935D01*
X8294021Y15527746D01*
X8175387Y15449816D01*
X8095974Y15332170D01*
X8068065Y15193000D01*
X8068065Y11383000D01*
X8094254Y11248021D01*
X8172184Y11129387D01*
X8289830Y11049974D01*
X8429000Y11022065D01*
X12239000Y11022065D01*
X12373979Y11048254D01*
X12492613Y11126184D01*
X12572026Y11243830D01*
X12599935Y11383000D01*
X12599935Y8786699D01*
X11581618Y7768382D01*
X11472365Y7604873D01*
X11446120Y7472935D01*
X11176000Y7472935D01*
X11041021Y7446746D01*
X10922387Y7368816D01*
X10842974Y7251170D01*
X10815065Y7112000D01*
X10815065Y5588000D01*
X10841254Y5453021D01*
X10919184Y5334387D01*
X11036830Y5254974D01*
X11176000Y5227065D01*
X12700000Y5227065D01*
X12834979Y5253254D01*
X12953613Y5331184D01*
X13033026Y5448830D01*
X13060935Y5588000D01*
X13060935Y7112000D01*
X13034746Y7246979D01*
X12956816Y7365613D01*
X12839170Y7445026D01*
X12709744Y7470981D01*
X14640764Y9402000D01*
X21980855Y9402000D01*
X21988841Y9394000D01*
X15956005Y9394000D01*
X15956000Y9394001D01*
X15763128Y9355635D01*
X15599618Y9246382D01*
X14121618Y7768382D01*
X14012365Y7604873D01*
X13986120Y7472935D01*
X13716000Y7472935D01*
X13581021Y7446746D01*
X13462387Y7368816D01*
X13382974Y7251170D01*
X13355065Y7112000D01*
X13355065Y5588000D01*
X13381254Y5453021D01*
X13459184Y5334387D01*
X13576830Y5254974D01*
X13716000Y5227065D01*
X15240000Y5227065D01*
X15374979Y5253254D01*
X15493613Y5331184D01*
X15573026Y5448830D01*
X15600935Y5588000D01*
X15600935Y7112000D01*
X15574746Y7246979D01*
X15496816Y7365613D01*
X15379170Y7445026D01*
X15249744Y7470981D01*
X16164764Y8386000D01*
X23060366Y8386000D01*
X23232606Y8213459D01*
X23525983Y8091638D01*
X23843646Y8091361D01*
X24023065Y8165496D01*
X24023065Y7112000D01*
X24049254Y6977021D01*
X24127184Y6858387D01*
X24244830Y6778974D01*
X24384000Y6751065D01*
X25600082Y6751065D01*
X25305952Y6456935D01*
X24384000Y6456935D01*
X24249021Y6430746D01*
X24130387Y6352816D01*
X24050974Y6235170D01*
X24023065Y6096000D01*
X24023065Y4572000D01*
X24049254Y4437021D01*
X24127184Y4318387D01*
X24244830Y4238974D01*
X24384000Y4211065D01*
X24542000Y4211065D01*
X24542000Y4072000D01*
X24587977Y3840859D01*
X24718908Y3644908D01*
X26250907Y2112908D01*
X26250908Y2112908D01*
X26446859Y1981977D01*
X26678000Y1936000D01*
X30220920Y1936000D01*
X32748680Y1936000D01*
X32821095Y1863459D01*
X33114472Y1741638D01*
X33432135Y1741361D01*
X33725723Y1862670D01*
X33950541Y2087095D01*
X34072362Y2380472D01*
X34072639Y2698135D01*
X33951330Y2991723D01*
X33726905Y3216541D01*
X33433528Y3338362D01*
X33115865Y3338639D01*
X32822277Y3217330D01*
X32748818Y3144000D01*
X30220920Y3144000D01*
X26928184Y3144000D01*
X25861119Y4211065D01*
X25908000Y4211065D01*
X26042979Y4237254D01*
X26161613Y4315184D01*
X26241026Y4432830D01*
X26268935Y4572000D01*
X26268935Y5711549D01*
X26563065Y6005679D01*
X26563065Y4572000D01*
X26589254Y4437021D01*
X26667184Y4318387D01*
X26784830Y4238974D01*
X26924000Y4211065D01*
X28448000Y4211065D01*
X28582979Y4237254D01*
X28701613Y4315184D01*
X28781026Y4432830D01*
X28808935Y4572000D01*
X28808935Y6096000D01*
X28782746Y6230979D01*
X28704816Y6349613D01*
X28587170Y6429026D01*
X28448000Y6456935D01*
X26956177Y6456935D01*
X26970024Y6477658D01*
X27016000Y6708799D01*
X27016001Y6708799D01*
X27016001Y6751065D01*
X28448000Y6751065D01*
X28582979Y6777254D01*
X28701613Y6855184D01*
X28781026Y6972830D01*
X28808935Y7112000D01*
X28808935Y8331530D01*
X29100050Y8331276D01*
X29103065Y8332522D01*
X29103065Y7112000D01*
X29129254Y6977021D01*
X29207184Y6858387D01*
X29324830Y6778974D01*
X29464000Y6751065D01*
X29722000Y6751065D01*
X29722000Y6456935D01*
X29464000Y6456935D01*
X29329021Y6430746D01*
X29210387Y6352816D01*
X29130974Y6235170D01*
X29103065Y6096000D01*
X29103065Y4572000D01*
X29129254Y4437021D01*
X29207184Y4318387D01*
X29324830Y4238974D01*
X29464000Y4211065D01*
X30988000Y4211065D01*
X31122979Y4237254D01*
X31241613Y4315184D01*
X31321026Y4432830D01*
X31348935Y4572000D01*
X31348935Y6096000D01*
X31322746Y6230979D01*
X31244816Y6349613D01*
X31127170Y6429026D01*
X30988000Y6456935D01*
X30730000Y6456935D01*
X30730000Y6751065D01*
X30988000Y6751065D01*
X31122979Y6777254D01*
X31241613Y6855184D01*
X31321026Y6972830D01*
X31348935Y7112000D01*
X31348935Y8636000D01*
X31322746Y8770979D01*
X31244816Y8889613D01*
X31127170Y8969026D01*
X30988000Y8996935D01*
X29740300Y8996935D01*
X29740364Y9070414D01*
X30656414Y9070414D01*
X30849286Y9108779D01*
X30849287Y9108779D01*
X31012796Y9218032D01*
X32466764Y10672000D01*
X33918855Y10672000D01*
X34091095Y10499459D01*
X34384472Y10377638D01*
X34556723Y10377488D01*
X33176171Y8996935D01*
X32004000Y8996935D01*
X31869021Y8970746D01*
X31750387Y8892816D01*
X31670974Y8775170D01*
X31643065Y8636000D01*
X31643065Y7112000D01*
X31669254Y6977021D01*
X31747184Y6858387D01*
X31864830Y6778974D01*
X32004000Y6751065D01*
X33528000Y6751065D01*
X33662979Y6777254D01*
X33781613Y6855184D01*
X33861026Y6972830D01*
X33888935Y7112000D01*
X33888935Y8284171D01*
X36276764Y10672000D01*
X38236855Y10672000D01*
X38409095Y10499459D01*
X38702472Y10377638D01*
X39020135Y10377361D01*
X39313723Y10498670D01*
X39538541Y10723095D01*
X39660362Y11016472D01*
X39660639Y11334135D01*
X39660639Y604000D01*
X15600935Y604000D01*
X15600935Y3048000D01*
X15600935Y4572000D01*
X15574746Y4706979D01*
X15496816Y4825613D01*
X15379170Y4905026D01*
X15240000Y4932935D01*
X13716000Y4932935D01*
X13581021Y4906746D01*
X13462387Y4828816D01*
X13382974Y4711170D01*
X13355065Y4572000D01*
X13355065Y3048000D01*
X13381254Y2913021D01*
X13459184Y2794387D01*
X13576830Y2714974D01*
X13716000Y2687065D01*
X15240000Y2687065D01*
X15374979Y2713254D01*
X15493613Y2791184D01*
X15573026Y2908830D01*
X15600935Y3048000D01*
X15600935Y604000D01*
X13060935Y604000D01*
X13060935Y3048000D01*
X13060935Y4572000D01*
X13034746Y4706979D01*
X12956816Y4825613D01*
X12839170Y4905026D01*
X12700000Y4932935D01*
X11176000Y4932935D01*
X11041021Y4906746D01*
X10922387Y4828816D01*
X10842974Y4711170D01*
X10815065Y4572000D01*
X10815065Y3048000D01*
X10841254Y2913021D01*
X10919184Y2794387D01*
X11036830Y2714974D01*
X11176000Y2687065D01*
X12700000Y2687065D01*
X12834979Y2713254D01*
X12953613Y2791184D01*
X13033026Y2908830D01*
X13060935Y3048000D01*
X13060935Y604000D01*
X7599935Y604000D01*
X7599935Y11383000D01*
X7599935Y15193000D01*
X7599935Y16383000D01*
X7599935Y20193000D01*
X7573746Y20327979D01*
X7495816Y20446613D01*
X7378170Y20526026D01*
X7239000Y20553935D01*
X3662935Y20553935D01*
X3662935Y26670000D01*
X3662935Y28194000D01*
X3636746Y28328979D01*
X3558816Y28447613D01*
X3441170Y28527026D01*
X3302000Y28554935D01*
X1778000Y28554935D01*
X1643021Y28528746D01*
X1524387Y28450816D01*
X1444974Y28333170D01*
X1417065Y28194000D01*
X1417065Y26670000D01*
X1443254Y26535021D01*
X1521184Y26416387D01*
X1638830Y26336974D01*
X1778000Y26309065D01*
X3302000Y26309065D01*
X3436979Y26335254D01*
X3555613Y26413184D01*
X3635026Y26530830D01*
X3662935Y26670000D01*
X3662935Y20553935D01*
X3429000Y20553935D01*
X3294021Y20527746D01*
X3175387Y20449816D01*
X3095974Y20332170D01*
X3068065Y20193000D01*
X3068065Y16383000D01*
X3094254Y16248021D01*
X3172184Y16129387D01*
X3289830Y16049974D01*
X3429000Y16022065D01*
X7239000Y16022065D01*
X7373979Y16048254D01*
X7492613Y16126184D01*
X7572026Y16243830D01*
X7599935Y16383000D01*
X7599935Y15193000D01*
X7573746Y15327979D01*
X7495816Y15446613D01*
X7378170Y15526026D01*
X7239000Y15553935D01*
X3429000Y15553935D01*
X3294021Y15527746D01*
X3175387Y15449816D01*
X3095974Y15332170D01*
X3068065Y15193000D01*
X3068065Y11383000D01*
X3094254Y11248021D01*
X3172184Y11129387D01*
X3289830Y11049974D01*
X3429000Y11022065D01*
X7239000Y11022065D01*
X7373979Y11048254D01*
X7492613Y11126184D01*
X7572026Y11243830D01*
X7599935Y11383000D01*
X7599935Y604000D01*
X604000Y604000D01*
X604000Y40036000D01*
X50196000Y40036000D01*
X50196000Y604000D01*
X50196000Y604000D01*
G37*
X50196000Y604000D02*
X48112935Y604000D01*
X48112935Y26416000D01*
X48112935Y27940000D01*
X48112935Y28956000D01*
X48112935Y30480000D01*
X48086746Y30614979D01*
X48008816Y30733613D01*
X47891170Y30813026D01*
X47752000Y30840935D01*
X46228000Y30840935D01*
X46093021Y30814746D01*
X45974387Y30736816D01*
X45894974Y30619170D01*
X45867065Y30480000D01*
X45867065Y28956000D01*
X45893254Y28821021D01*
X45971184Y28702387D01*
X46088830Y28622974D01*
X46228000Y28595065D01*
X47752000Y28595065D01*
X47886979Y28621254D01*
X48005613Y28699184D01*
X48085026Y28816830D01*
X48112935Y28956000D01*
X48112935Y27940000D01*
X48086746Y28074979D01*
X48008816Y28193613D01*
X47891170Y28273026D01*
X47752000Y28300935D01*
X46228000Y28300935D01*
X46093021Y28274746D01*
X45974387Y28196816D01*
X45894974Y28079170D01*
X45867065Y27940000D01*
X45867065Y26416000D01*
X45893254Y26281021D01*
X45971184Y26162387D01*
X46088830Y26082974D01*
X46228000Y26055065D01*
X47752000Y26055065D01*
X47886979Y26081254D01*
X48005613Y26159184D01*
X48085026Y26276830D01*
X48112935Y26416000D01*
X48112935Y604000D01*
X47731935Y604000D01*
X47731935Y13161000D01*
X47731935Y16971000D01*
X47731935Y18161000D01*
X47731935Y21971000D01*
X47705746Y22105979D01*
X47627816Y22224613D01*
X47510170Y22304026D01*
X47371000Y22331935D01*
X45572935Y22331935D01*
X45572935Y26416000D01*
X45572935Y27940000D01*
X45546746Y28074979D01*
X45468816Y28193613D01*
X45351170Y28273026D01*
X45212000Y28300935D01*
X43688000Y28300935D01*
X43553021Y28274746D01*
X43434387Y28196816D01*
X43354974Y28079170D01*
X43327065Y27940000D01*
X43327065Y26416000D01*
X43353254Y26281021D01*
X43431184Y26162387D01*
X43548830Y26082974D01*
X43667032Y26059270D01*
X40945597Y23337834D01*
X37952935Y23337834D01*
X37952935Y25400000D01*
X37952935Y26924000D01*
X37926746Y27058979D01*
X37848816Y27177613D01*
X37731170Y27257026D01*
X37592000Y27284935D01*
X36068000Y27284935D01*
X35933021Y27258746D01*
X35814387Y27180816D01*
X35734974Y27063170D01*
X35707065Y26924000D01*
X35707065Y25400000D01*
X35733254Y25265021D01*
X35811184Y25146387D01*
X35928830Y25066974D01*
X36068000Y25039065D01*
X37592000Y25039065D01*
X37726979Y25065254D01*
X37845613Y25143184D01*
X37925026Y25260830D01*
X37952935Y25400000D01*
X37952935Y23337834D01*
X27832436Y23337834D01*
X27637237Y23533375D01*
X27343860Y23655196D01*
X27162118Y23655355D01*
X29164764Y25658000D01*
X33167065Y25658000D01*
X33167065Y25400000D01*
X33193254Y25265021D01*
X33271184Y25146387D01*
X33388830Y25066974D01*
X33528000Y25039065D01*
X35052000Y25039065D01*
X35186979Y25065254D01*
X35305613Y25143184D01*
X35385026Y25260830D01*
X35412935Y25400000D01*
X35412935Y26924000D01*
X35386746Y27058979D01*
X35308816Y27177613D01*
X35191170Y27257026D01*
X35052000Y27284935D01*
X33528000Y27284935D01*
X33393021Y27258746D01*
X33274387Y27180816D01*
X33194974Y27063170D01*
X33167065Y26924000D01*
X33167065Y26666000D01*
X28956000Y26666000D01*
X28763128Y26627635D01*
X28599618Y26518382D01*
X26247662Y24166427D01*
X26003865Y24166639D01*
X25774475Y24071857D01*
X29923619Y28221000D01*
X33167065Y28221000D01*
X33167065Y27940000D01*
X33193254Y27805021D01*
X33271184Y27686387D01*
X33388830Y27606974D01*
X33528000Y27579065D01*
X35052000Y27579065D01*
X35186979Y27605254D01*
X35305613Y27683184D01*
X35385026Y27800830D01*
X35412935Y27940000D01*
X35412935Y29364001D01*
X35707065Y29364001D01*
X35707065Y27940000D01*
X35733254Y27805021D01*
X35811184Y27686387D01*
X35928830Y27606974D01*
X36068000Y27579065D01*
X37592000Y27579065D01*
X37726979Y27605254D01*
X37845613Y27683184D01*
X37925026Y27800830D01*
X37952935Y27940000D01*
X37952935Y29364001D01*
X43114654Y29364001D01*
X43114656Y29364001D01*
X43249929Y29273614D01*
X43249930Y29273613D01*
X43327065Y29258271D01*
X43327065Y28956000D01*
X43353254Y28821021D01*
X43431184Y28702387D01*
X43548830Y28622974D01*
X43688000Y28595065D01*
X45212000Y28595065D01*
X45346979Y28621254D01*
X45465613Y28699184D01*
X45545026Y28816830D01*
X45572935Y28956000D01*
X45572935Y30480000D01*
X45546746Y30614979D01*
X45468816Y30733613D01*
X45351170Y30813026D01*
X45212000Y30840935D01*
X43688000Y30840935D01*
X43553021Y30814746D01*
X43434387Y30736816D01*
X43354974Y30619170D01*
X43327065Y30480000D01*
X43327065Y30322010D01*
X43306999Y30326001D01*
X37915015Y30326001D01*
X37925026Y30340830D01*
X37952935Y30480000D01*
X37952935Y32004000D01*
X37952935Y33020000D01*
X37952935Y34544000D01*
X37926746Y34678979D01*
X37848816Y34797613D01*
X37731170Y34877026D01*
X37592000Y34904935D01*
X36068000Y34904935D01*
X35933021Y34878746D01*
X35814387Y34800816D01*
X35734974Y34683170D01*
X35707065Y34544000D01*
X35707065Y33020000D01*
X35733254Y32885021D01*
X35811184Y32766387D01*
X35928830Y32686974D01*
X36068000Y32659065D01*
X37592000Y32659065D01*
X37726979Y32685254D01*
X37845613Y32763184D01*
X37925026Y32880830D01*
X37952935Y33020000D01*
X37952935Y32004000D01*
X37926746Y32138979D01*
X37848816Y32257613D01*
X37731170Y32337026D01*
X37592000Y32364935D01*
X36068000Y32364935D01*
X35933021Y32338746D01*
X35814387Y32260816D01*
X35734974Y32143170D01*
X35707065Y32004000D01*
X35707065Y30480000D01*
X35733254Y30345021D01*
X35745748Y30326001D01*
X35375015Y30326001D01*
X35385026Y30340830D01*
X35412935Y30480000D01*
X35412935Y32004000D01*
X35386746Y32138979D01*
X35308816Y32257613D01*
X35191170Y32337026D01*
X35052000Y32364935D01*
X33528000Y32364935D01*
X33393021Y32338746D01*
X33274387Y32260816D01*
X33194974Y32143170D01*
X33167065Y32004000D01*
X33167065Y31746000D01*
X32258005Y31746000D01*
X32258000Y31746001D01*
X32065128Y31707635D01*
X31901618Y31598382D01*
X31264236Y30961000D01*
X30105662Y30961000D01*
X32422661Y33278000D01*
X33167065Y33278000D01*
X33167065Y33020000D01*
X33193254Y32885021D01*
X33271184Y32766387D01*
X33388830Y32686974D01*
X33528000Y32659065D01*
X35052000Y32659065D01*
X35186979Y32685254D01*
X35305613Y32763184D01*
X35385026Y32880830D01*
X35412935Y33020000D01*
X35412935Y34544000D01*
X35386746Y34678979D01*
X35308816Y34797613D01*
X35191170Y34877026D01*
X35052000Y34904935D01*
X33528000Y34904935D01*
X33393021Y34878746D01*
X33274387Y34800816D01*
X33194974Y34683170D01*
X33167065Y34544000D01*
X33167065Y34286000D01*
X32213898Y34286000D01*
X32021025Y34247635D01*
X31857516Y34138382D01*
X26182280Y28463146D01*
X24841124Y28463146D01*
X24841119Y28463147D01*
X24648247Y28424781D01*
X24484737Y28315528D01*
X23609150Y27439942D01*
X23365353Y27440154D01*
X23094305Y27328159D01*
X24853147Y29087000D01*
X26497000Y29087000D01*
X26689872Y29125365D01*
X26689873Y29125365D01*
X26853382Y29234618D01*
X33168965Y35550203D01*
X33193254Y35425021D01*
X33271184Y35306387D01*
X33388830Y35226974D01*
X33528000Y35199065D01*
X35052000Y35199065D01*
X35186979Y35225254D01*
X35305613Y35303184D01*
X35385026Y35420830D01*
X35412935Y35560000D01*
X35412935Y37084000D01*
X35386746Y37218979D01*
X35308816Y37337613D01*
X35191170Y37417026D01*
X35052000Y37444935D01*
X33528000Y37444935D01*
X33393021Y37418746D01*
X33274387Y37340816D01*
X33194974Y37223170D01*
X33167065Y37084000D01*
X33167065Y36813880D01*
X33035128Y36787635D01*
X32871618Y36678382D01*
X32871615Y36678379D01*
X27764574Y31571338D01*
X27764600Y31600977D01*
X27598337Y32003364D01*
X27290743Y32311495D01*
X26888647Y32478460D01*
X26453263Y32478840D01*
X26050876Y32312577D01*
X25742745Y32004983D01*
X25575780Y31602887D01*
X25575400Y31167503D01*
X25741663Y30765116D01*
X26049257Y30456985D01*
X26451353Y30290020D01*
X26483228Y30289993D01*
X26288236Y30095000D01*
X24644383Y30095000D01*
X24451510Y30056635D01*
X24288001Y29947382D01*
X22896373Y28555755D01*
X22896639Y28860135D01*
X22775330Y29153723D01*
X22550905Y29378541D01*
X22257528Y29500362D01*
X22168103Y29500440D01*
X22168103Y38258000D01*
X36471017Y38258000D01*
X37284082Y37444935D01*
X36068000Y37444935D01*
X35933021Y37418746D01*
X35814387Y37340816D01*
X35734974Y37223170D01*
X35707065Y37084000D01*
X35707065Y35560000D01*
X35733254Y35425021D01*
X35811184Y35306387D01*
X35928830Y35226974D01*
X36068000Y35199065D01*
X37592000Y35199065D01*
X37726979Y35225254D01*
X37845613Y35303184D01*
X37925026Y35420830D01*
X37952935Y35560000D01*
X37952935Y36776082D01*
X38446984Y36282033D01*
X38446985Y36282033D01*
X38446987Y36282031D01*
X38512000Y36217017D01*
X38512000Y31894320D01*
X38439459Y31821905D01*
X38317638Y31528528D01*
X38317361Y31210865D01*
X38438670Y30917277D01*
X38663095Y30692459D01*
X38956472Y30570638D01*
X39274135Y30570361D01*
X39567723Y30691670D01*
X39792541Y30916095D01*
X39914362Y31209472D01*
X39914639Y31527135D01*
X39793330Y31820723D01*
X39720000Y31894181D01*
X39720000Y36467202D01*
X39674023Y36698342D01*
X39674023Y36698343D01*
X39621579Y36776830D01*
X39543093Y36894294D01*
X39301171Y37136215D01*
X39301169Y37136217D01*
X39301169Y37136218D01*
X37148294Y39289092D01*
X36952343Y39420023D01*
X36721202Y39466000D01*
X21564103Y39466000D01*
X20902628Y39466000D01*
X11684000Y39466000D01*
X11452859Y39420023D01*
X11256907Y39289092D01*
X8970908Y37003092D01*
X8839977Y36807141D01*
X8794000Y36576000D01*
X8794000Y35625202D01*
X8794000Y30738185D01*
X6202935Y28147120D01*
X6202935Y28194000D01*
X6176746Y28328979D01*
X6098816Y28447613D01*
X5981170Y28527026D01*
X5842000Y28554935D01*
X4318000Y28554935D01*
X4183021Y28528746D01*
X4064387Y28450816D01*
X3984974Y28333170D01*
X3957065Y28194000D01*
X3957065Y26670000D01*
X3983254Y26535021D01*
X4061184Y26416387D01*
X4178830Y26336974D01*
X4318000Y26309065D01*
X5842000Y26309065D01*
X5976979Y26335254D01*
X6095613Y26413184D01*
X6175026Y26530830D01*
X6202935Y26670000D01*
X6202935Y26828000D01*
X6342000Y26828000D01*
X6342000Y26828001D01*
X6573140Y26873977D01*
X6573141Y26873977D01*
X6769092Y27004908D01*
X9825092Y30060908D01*
X9825093Y30060908D01*
X9903579Y30178373D01*
X9956023Y30256859D01*
X9956023Y30256860D01*
X10002000Y30488000D01*
X10002000Y35625202D01*
X10002000Y36325816D01*
X11934184Y38258000D01*
X20902628Y38258000D01*
X20960103Y38258000D01*
X20960103Y37892000D01*
X16210000Y37892000D01*
X16210000Y12400000D01*
X19304000Y12400000D01*
X26948526Y12400000D01*
X27675263Y11673263D01*
X27854993Y11553171D01*
X27854994Y11553171D01*
X28067000Y11511000D01*
X30486379Y11511000D01*
X30539764Y11511000D01*
X30662091Y11388459D01*
X30955468Y11266638D01*
X31273131Y11266361D01*
X31566719Y11387670D01*
X31791537Y11612095D01*
X31913358Y11905472D01*
X31913635Y12223135D01*
X31792326Y12516723D01*
X31567901Y12741541D01*
X31274524Y12863362D01*
X30956861Y12863639D01*
X30663273Y12742330D01*
X30539727Y12619000D01*
X30486379Y12619000D01*
X28296474Y12619000D01*
X27986000Y12929474D01*
X27986000Y14270000D01*
X21382000Y14270000D01*
X21382000Y14732000D01*
X21382000Y28343864D01*
X21420670Y28250277D01*
X21645095Y28025459D01*
X21938472Y27903638D01*
X22243990Y27903372D01*
X21995618Y27654999D01*
X21886365Y27491490D01*
X21848000Y27298617D01*
X21848000Y27295145D01*
X21675459Y27122905D01*
X21553638Y26829528D01*
X21553361Y26511865D01*
X21674670Y26218277D01*
X21899095Y25993459D01*
X22192472Y25871638D01*
X22510135Y25871361D01*
X22803723Y25992670D01*
X22923538Y26112277D01*
X23070583Y25964974D01*
X23296256Y25871266D01*
X22503618Y25078627D01*
X22394365Y24915118D01*
X22356000Y24722245D01*
X22356000Y23993145D01*
X22183459Y23820905D01*
X22061638Y23527528D01*
X22061361Y23209865D01*
X22182670Y22916277D01*
X22407095Y22691459D01*
X22700472Y22569638D01*
X23018135Y22569361D01*
X23311723Y22690670D01*
X23536541Y22915095D01*
X23658362Y23208472D01*
X23658639Y23526135D01*
X23537330Y23819723D01*
X23364000Y23993356D01*
X23364000Y24513481D01*
X25140546Y26290028D01*
X25217035Y26104913D01*
X25441460Y25880095D01*
X25734837Y25758274D01*
X26052500Y25757997D01*
X26133691Y25791545D01*
X24678882Y24336735D01*
X24574614Y24180688D01*
X24542836Y24020933D01*
X24342459Y23820905D01*
X24220638Y23527528D01*
X24220361Y23209865D01*
X24341670Y22916277D01*
X24566095Y22691459D01*
X24859472Y22569638D01*
X25177135Y22569361D01*
X25470723Y22690670D01*
X25590512Y22810250D01*
X25709095Y22691459D01*
X26002472Y22569638D01*
X26320135Y22569361D01*
X26421780Y22611361D01*
X26507002Y22405111D01*
X26731427Y22180293D01*
X27024804Y22058472D01*
X27342467Y22058195D01*
X27636055Y22179504D01*
X27832728Y22375834D01*
X41144834Y22375834D01*
X41144834Y22375835D01*
X41328905Y22412448D01*
X41484952Y22516716D01*
X44790118Y25821882D01*
X44790119Y25821882D01*
X44894386Y25977929D01*
X44894387Y25977930D01*
X44909729Y26055065D01*
X45212000Y26055065D01*
X45346979Y26081254D01*
X45465613Y26159184D01*
X45545026Y26276830D01*
X45572935Y26416000D01*
X45572935Y22331935D01*
X43561000Y22331935D01*
X43426021Y22305746D01*
X43307387Y22227816D01*
X43227974Y22110170D01*
X43200065Y21971000D01*
X43200065Y18161000D01*
X43226254Y18026021D01*
X43304184Y17907387D01*
X43421830Y17827974D01*
X43561000Y17800065D01*
X47371000Y17800065D01*
X47505979Y17826254D01*
X47624613Y17904184D01*
X47704026Y18021830D01*
X47731935Y18161000D01*
X47731935Y16971000D01*
X47705746Y17105979D01*
X47627816Y17224613D01*
X47510170Y17304026D01*
X47371000Y17331935D01*
X43561000Y17331935D01*
X43426021Y17305746D01*
X43307387Y17227816D01*
X43227974Y17110170D01*
X43200065Y16971000D01*
X43200065Y13161000D01*
X43226254Y13026021D01*
X43304184Y12907387D01*
X43421830Y12827974D01*
X43561000Y12800065D01*
X47371000Y12800065D01*
X47505979Y12826254D01*
X47624613Y12904184D01*
X47704026Y13021830D01*
X47731935Y13161000D01*
X47731935Y604000D01*
X42731935Y604000D01*
X42731935Y13161000D01*
X42731935Y16971000D01*
X42731935Y18161000D01*
X42731935Y21971000D01*
X42705746Y22105979D01*
X42627816Y22224613D01*
X42510170Y22304026D01*
X42371000Y22331935D01*
X38561000Y22331935D01*
X38426021Y22305746D01*
X38307387Y22227816D01*
X38227974Y22110170D01*
X38200065Y21971000D01*
X38200065Y18161000D01*
X38226254Y18026021D01*
X38304184Y17907387D01*
X38421830Y17827974D01*
X38561000Y17800065D01*
X42371000Y17800065D01*
X42505979Y17826254D01*
X42624613Y17904184D01*
X42704026Y18021830D01*
X42731935Y18161000D01*
X42731935Y16971000D01*
X42705746Y17105979D01*
X42627816Y17224613D01*
X42510170Y17304026D01*
X42371000Y17331935D01*
X38561000Y17331935D01*
X38426021Y17305746D01*
X38307387Y17227816D01*
X38227974Y17110170D01*
X38200065Y16971000D01*
X38200065Y13161000D01*
X38226254Y13026021D01*
X38304184Y12907387D01*
X38421830Y12827974D01*
X38561000Y12800065D01*
X42371000Y12800065D01*
X42505979Y12826254D01*
X42624613Y12904184D01*
X42704026Y13021830D01*
X42731935Y13161000D01*
X42731935Y604000D01*
X39660639Y604000D01*
X39660639Y11334135D01*
X39539330Y11627723D01*
X39314905Y11852541D01*
X39021528Y11974362D01*
X38703865Y11974639D01*
X38410277Y11853330D01*
X38236643Y11680000D01*
X36068000Y11680000D01*
X35875127Y11641635D01*
X35711618Y11532382D01*
X35342489Y11163254D01*
X35342639Y11334135D01*
X35221330Y11627723D01*
X34996905Y11852541D01*
X34703528Y11974362D01*
X34385865Y11974639D01*
X34092277Y11853330D01*
X33918643Y11680000D01*
X32258005Y11680000D01*
X32258000Y11680001D01*
X32065128Y11641635D01*
X31901618Y11532382D01*
X30447650Y10078414D01*
X29386419Y10078414D01*
X29386414Y10078415D01*
X29193542Y10040049D01*
X29030032Y9930796D01*
X29030029Y9930793D01*
X29027578Y9928342D01*
X28783780Y9928554D01*
X28490192Y9807245D01*
X28265374Y9582820D01*
X28143553Y9289443D01*
X28143297Y8996935D01*
X27016001Y8996935D01*
X27016001Y9039201D01*
X26970024Y9270341D01*
X26970024Y9270342D01*
X26917580Y9348829D01*
X26839094Y9466293D01*
X24194294Y12111092D01*
X23998343Y12242023D01*
X23767202Y12288000D01*
X15236184Y12288000D01*
X14066000Y13458184D01*
X14066000Y21082000D01*
X14020023Y21313141D01*
X13889092Y21509092D01*
X13889092Y21509093D01*
X11720549Y23677635D01*
X11720639Y23780135D01*
X11599330Y24073723D01*
X11374905Y24298541D01*
X11081528Y24420362D01*
X10763865Y24420639D01*
X10470277Y24299330D01*
X10245459Y24074905D01*
X10123638Y23781528D01*
X10123361Y23463865D01*
X10244670Y23170277D01*
X10469095Y22945459D01*
X10762472Y22823638D01*
X10866268Y22823548D01*
X12858000Y20831815D01*
X12858000Y13208000D01*
X12903977Y12976859D01*
X13034908Y12780908D01*
X14558907Y11256908D01*
X14558908Y11256908D01*
X14754859Y11125977D01*
X14986000Y11080000D01*
X23517017Y11080000D01*
X25600082Y8996935D01*
X24484105Y8996935D01*
X24484150Y9048135D01*
X24362841Y9341723D01*
X24138416Y9566541D01*
X23845039Y9688362D01*
X23527376Y9688639D01*
X23349896Y9615306D01*
X23404362Y9746472D01*
X23404639Y10064135D01*
X23283330Y10357723D01*
X23058905Y10582541D01*
X22765528Y10704362D01*
X22447865Y10704639D01*
X22154277Y10583330D01*
X21980643Y10410000D01*
X14432005Y10410000D01*
X14432000Y10410001D01*
X14239128Y10371635D01*
X14075618Y10262382D01*
X12599935Y8786699D01*
X12599935Y11383000D01*
X12599935Y15193000D01*
X12599935Y16383000D01*
X12599935Y20193000D01*
X12573746Y20327979D01*
X12495816Y20446613D01*
X12378170Y20526026D01*
X12239000Y20553935D01*
X8429000Y20553935D01*
X8294021Y20527746D01*
X8175387Y20449816D01*
X8095974Y20332170D01*
X8068065Y20193000D01*
X8068065Y16383000D01*
X8094254Y16248021D01*
X8172184Y16129387D01*
X8289830Y16049974D01*
X8429000Y16022065D01*
X12239000Y16022065D01*
X12373979Y16048254D01*
X12492613Y16126184D01*
X12572026Y16243830D01*
X12599935Y16383000D01*
X12599935Y15193000D01*
X12573746Y15327979D01*
X12495816Y15446613D01*
X12378170Y15526026D01*
X12239000Y15553935D01*
X8429000Y15553935D01*
X8294021Y15527746D01*
X8175387Y15449816D01*
X8095974Y15332170D01*
X8068065Y15193000D01*
X8068065Y11383000D01*
X8094254Y11248021D01*
X8172184Y11129387D01*
X8289830Y11049974D01*
X8429000Y11022065D01*
X12239000Y11022065D01*
X12373979Y11048254D01*
X12492613Y11126184D01*
X12572026Y11243830D01*
X12599935Y11383000D01*
X12599935Y8786699D01*
X11581618Y7768382D01*
X11472365Y7604873D01*
X11446120Y7472935D01*
X11176000Y7472935D01*
X11041021Y7446746D01*
X10922387Y7368816D01*
X10842974Y7251170D01*
X10815065Y7112000D01*
X10815065Y5588000D01*
X10841254Y5453021D01*
X10919184Y5334387D01*
X11036830Y5254974D01*
X11176000Y5227065D01*
X12700000Y5227065D01*
X12834979Y5253254D01*
X12953613Y5331184D01*
X13033026Y5448830D01*
X13060935Y5588000D01*
X13060935Y7112000D01*
X13034746Y7246979D01*
X12956816Y7365613D01*
X12839170Y7445026D01*
X12709744Y7470981D01*
X14640764Y9402000D01*
X21980855Y9402000D01*
X21988841Y9394000D01*
X15956005Y9394000D01*
X15956000Y9394001D01*
X15763128Y9355635D01*
X15599618Y9246382D01*
X14121618Y7768382D01*
X14012365Y7604873D01*
X13986120Y7472935D01*
X13716000Y7472935D01*
X13581021Y7446746D01*
X13462387Y7368816D01*
X13382974Y7251170D01*
X13355065Y7112000D01*
X13355065Y5588000D01*
X13381254Y5453021D01*
X13459184Y5334387D01*
X13576830Y5254974D01*
X13716000Y5227065D01*
X15240000Y5227065D01*
X15374979Y5253254D01*
X15493613Y5331184D01*
X15573026Y5448830D01*
X15600935Y5588000D01*
X15600935Y7112000D01*
X15574746Y7246979D01*
X15496816Y7365613D01*
X15379170Y7445026D01*
X15249744Y7470981D01*
X16164764Y8386000D01*
X23060366Y8386000D01*
X23232606Y8213459D01*
X23525983Y8091638D01*
X23843646Y8091361D01*
X24023065Y8165496D01*
X24023065Y7112000D01*
X24049254Y6977021D01*
X24127184Y6858387D01*
X24244830Y6778974D01*
X24384000Y6751065D01*
X25600082Y6751065D01*
X25305952Y6456935D01*
X24384000Y6456935D01*
X24249021Y6430746D01*
X24130387Y6352816D01*
X24050974Y6235170D01*
X24023065Y6096000D01*
X24023065Y4572000D01*
X24049254Y4437021D01*
X24127184Y4318387D01*
X24244830Y4238974D01*
X24384000Y4211065D01*
X24542000Y4211065D01*
X24542000Y4072000D01*
X24587977Y3840859D01*
X24718908Y3644908D01*
X26250907Y2112908D01*
X26250908Y2112908D01*
X26446859Y1981977D01*
X26678000Y1936000D01*
X30220920Y1936000D01*
X32748680Y1936000D01*
X32821095Y1863459D01*
X33114472Y1741638D01*
X33432135Y1741361D01*
X33725723Y1862670D01*
X33950541Y2087095D01*
X34072362Y2380472D01*
X34072639Y2698135D01*
X33951330Y2991723D01*
X33726905Y3216541D01*
X33433528Y3338362D01*
X33115865Y3338639D01*
X32822277Y3217330D01*
X32748818Y3144000D01*
X30220920Y3144000D01*
X26928184Y3144000D01*
X25861119Y4211065D01*
X25908000Y4211065D01*
X26042979Y4237254D01*
X26161613Y4315184D01*
X26241026Y4432830D01*
X26268935Y4572000D01*
X26268935Y5711549D01*
X26563065Y6005679D01*
X26563065Y4572000D01*
X26589254Y4437021D01*
X26667184Y4318387D01*
X26784830Y4238974D01*
X26924000Y4211065D01*
X28448000Y4211065D01*
X28582979Y4237254D01*
X28701613Y4315184D01*
X28781026Y4432830D01*
X28808935Y4572000D01*
X28808935Y6096000D01*
X28782746Y6230979D01*
X28704816Y6349613D01*
X28587170Y6429026D01*
X28448000Y6456935D01*
X26956177Y6456935D01*
X26970024Y6477658D01*
X27016000Y6708799D01*
X27016001Y6708799D01*
X27016001Y6751065D01*
X28448000Y6751065D01*
X28582979Y6777254D01*
X28701613Y6855184D01*
X28781026Y6972830D01*
X28808935Y7112000D01*
X28808935Y8331530D01*
X29100050Y8331276D01*
X29103065Y8332522D01*
X29103065Y7112000D01*
X29129254Y6977021D01*
X29207184Y6858387D01*
X29324830Y6778974D01*
X29464000Y6751065D01*
X29722000Y6751065D01*
X29722000Y6456935D01*
X29464000Y6456935D01*
X29329021Y6430746D01*
X29210387Y6352816D01*
X29130974Y6235170D01*
X29103065Y6096000D01*
X29103065Y4572000D01*
X29129254Y4437021D01*
X29207184Y4318387D01*
X29324830Y4238974D01*
X29464000Y4211065D01*
X30988000Y4211065D01*
X31122979Y4237254D01*
X31241613Y4315184D01*
X31321026Y4432830D01*
X31348935Y4572000D01*
X31348935Y6096000D01*
X31322746Y6230979D01*
X31244816Y6349613D01*
X31127170Y6429026D01*
X30988000Y6456935D01*
X30730000Y6456935D01*
X30730000Y6751065D01*
X30988000Y6751065D01*
X31122979Y6777254D01*
X31241613Y6855184D01*
X31321026Y6972830D01*
X31348935Y7112000D01*
X31348935Y8636000D01*
X31322746Y8770979D01*
X31244816Y8889613D01*
X31127170Y8969026D01*
X30988000Y8996935D01*
X29740300Y8996935D01*
X29740364Y9070414D01*
X30656414Y9070414D01*
X30849286Y9108779D01*
X30849287Y9108779D01*
X31012796Y9218032D01*
X32466764Y10672000D01*
X33918855Y10672000D01*
X34091095Y10499459D01*
X34384472Y10377638D01*
X34556723Y10377488D01*
X33176171Y8996935D01*
X32004000Y8996935D01*
X31869021Y8970746D01*
X31750387Y8892816D01*
X31670974Y8775170D01*
X31643065Y8636000D01*
X31643065Y7112000D01*
X31669254Y6977021D01*
X31747184Y6858387D01*
X31864830Y6778974D01*
X32004000Y6751065D01*
X33528000Y6751065D01*
X33662979Y6777254D01*
X33781613Y6855184D01*
X33861026Y6972830D01*
X33888935Y7112000D01*
X33888935Y8284171D01*
X36276764Y10672000D01*
X38236855Y10672000D01*
X38409095Y10499459D01*
X38702472Y10377638D01*
X39020135Y10377361D01*
X39313723Y10498670D01*
X39538541Y10723095D01*
X39660362Y11016472D01*
X39660639Y11334135D01*
X39660639Y604000D01*
X15600935Y604000D01*
X15600935Y3048000D01*
X15600935Y4572000D01*
X15574746Y4706979D01*
X15496816Y4825613D01*
X15379170Y4905026D01*
X15240000Y4932935D01*
X13716000Y4932935D01*
X13581021Y4906746D01*
X13462387Y4828816D01*
X13382974Y4711170D01*
X13355065Y4572000D01*
X13355065Y3048000D01*
X13381254Y2913021D01*
X13459184Y2794387D01*
X13576830Y2714974D01*
X13716000Y2687065D01*
X15240000Y2687065D01*
X15374979Y2713254D01*
X15493613Y2791184D01*
X15573026Y2908830D01*
X15600935Y3048000D01*
X15600935Y604000D01*
X13060935Y604000D01*
X13060935Y3048000D01*
X13060935Y4572000D01*
X13034746Y4706979D01*
X12956816Y4825613D01*
X12839170Y4905026D01*
X12700000Y4932935D01*
X11176000Y4932935D01*
X11041021Y4906746D01*
X10922387Y4828816D01*
X10842974Y4711170D01*
X10815065Y4572000D01*
X10815065Y3048000D01*
X10841254Y2913021D01*
X10919184Y2794387D01*
X11036830Y2714974D01*
X11176000Y2687065D01*
X12700000Y2687065D01*
X12834979Y2713254D01*
X12953613Y2791184D01*
X13033026Y2908830D01*
X13060935Y3048000D01*
X13060935Y604000D01*
X7599935Y604000D01*
X7599935Y11383000D01*
X7599935Y15193000D01*
X7599935Y16383000D01*
X7599935Y20193000D01*
X7573746Y20327979D01*
X7495816Y20446613D01*
X7378170Y20526026D01*
X7239000Y20553935D01*
X3662935Y20553935D01*
X3662935Y26670000D01*
X3662935Y28194000D01*
X3636746Y28328979D01*
X3558816Y28447613D01*
X3441170Y28527026D01*
X3302000Y28554935D01*
X1778000Y28554935D01*
X1643021Y28528746D01*
X1524387Y28450816D01*
X1444974Y28333170D01*
X1417065Y28194000D01*
X1417065Y26670000D01*
X1443254Y26535021D01*
X1521184Y26416387D01*
X1638830Y26336974D01*
X1778000Y26309065D01*
X3302000Y26309065D01*
X3436979Y26335254D01*
X3555613Y26413184D01*
X3635026Y26530830D01*
X3662935Y26670000D01*
X3662935Y20553935D01*
X3429000Y20553935D01*
X3294021Y20527746D01*
X3175387Y20449816D01*
X3095974Y20332170D01*
X3068065Y20193000D01*
X3068065Y16383000D01*
X3094254Y16248021D01*
X3172184Y16129387D01*
X3289830Y16049974D01*
X3429000Y16022065D01*
X7239000Y16022065D01*
X7373979Y16048254D01*
X7492613Y16126184D01*
X7572026Y16243830D01*
X7599935Y16383000D01*
X7599935Y15193000D01*
X7573746Y15327979D01*
X7495816Y15446613D01*
X7378170Y15526026D01*
X7239000Y15553935D01*
X3429000Y15553935D01*
X3294021Y15527746D01*
X3175387Y15449816D01*
X3095974Y15332170D01*
X3068065Y15193000D01*
X3068065Y11383000D01*
X3094254Y11248021D01*
X3172184Y11129387D01*
X3289830Y11049974D01*
X3429000Y11022065D01*
X7239000Y11022065D01*
X7373979Y11048254D01*
X7492613Y11126184D01*
X7572026Y11243830D01*
X7599935Y11383000D01*
X7599935Y604000D01*
X604000Y604000D01*
X604000Y40036000D01*
X50196000Y40036000D01*
X50196000Y604000D01*
M02*
