G04 #@! TF.GenerationSoftware,KiCad,Pcbnew,(2017-02-05 revision 431abcf)-makepkg*
G04 #@! TF.CreationDate,2017-03-30T09:03:45+02:00*
G04 #@! TF.ProjectId,UNIPOWER06A,554E49504F5745523036412E6B696361,rev?*
G04 #@! TF.FileFunction,Copper,L2,Bot,Signal*
G04 #@! TF.FilePolarity,Positive*
%FSLAX46Y46*%
G04 Gerber Fmt 4.6, Leading zero omitted, Abs format (unit mm)*
G04 Created by KiCad (PCBNEW (2017-02-05 revision 431abcf)-makepkg) date 03/30/17 09:03:45*
%MOMM*%
%LPD*%
G01*
G04 APERTURE LIST*
%ADD10C,0.300000*%
%ADD11C,0.150000*%
%ADD12C,6.000000*%
%ADD13R,1.500000X1.300000*%
%ADD14R,3.000000X0.700000*%
%ADD15R,2.301240X2.499360*%
%ADD16R,3.810000X3.810000*%
%ADD17R,1.397000X0.889000*%
%ADD18R,1.500000X1.050000*%
%ADD19R,3.400000X1.900000*%
%ADD20R,1.524000X1.524000*%
%ADD21C,0.800000*%
%ADD22C,0.200000*%
%ADD23C,0.700000*%
%ADD24C,1.300000*%
%ADD25C,0.254000*%
G04 APERTURE END LIST*
D10*
D11*
X37066220Y11247120D02*
X37371020Y10927080D01*
X37081460Y11209020D02*
X36809680Y10934700D01*
X36809680Y11239500D02*
X37378640Y11244580D01*
D12*
X35560000Y35560000D03*
X35560000Y5080000D03*
X5080000Y35560000D03*
X5080000Y5080000D03*
D13*
X30226000Y20621000D03*
D14*
X30226000Y21971000D03*
D13*
X30226000Y23321000D03*
D15*
X5334000Y23759160D03*
X5334000Y28056840D03*
D16*
X13843000Y10414000D03*
X13843000Y5414000D03*
X18923000Y5414000D03*
X18923000Y10414000D03*
X24003000Y10414000D03*
X24003000Y5414000D03*
X29083000Y5414000D03*
X29083000Y10414000D03*
X17907000Y30480000D03*
X17907000Y35480000D03*
X12827000Y35480000D03*
X12827000Y30480000D03*
X22987000Y30480000D03*
X22987000Y35480000D03*
D17*
X31496000Y16954500D03*
X31496000Y15049500D03*
D18*
X35560000Y15462000D03*
X35560000Y11462000D03*
D19*
X25654000Y21418000D03*
X25654000Y25318000D03*
D16*
X28067000Y35480000D03*
X28067000Y30480000D03*
D20*
X36703000Y22352000D03*
X34163000Y22352000D03*
X36703000Y24892000D03*
X34163000Y24892000D03*
X36703000Y27432000D03*
X34163000Y27432000D03*
X36703000Y29972000D03*
X34163000Y29972000D03*
D21*
X31750000Y29210000D03*
X33020000Y31750000D03*
X32258000Y27686000D03*
X31242002Y27685998D03*
X38608000Y28448000D03*
X38608000Y29972000D03*
X38608000Y31242000D03*
X38608000Y22352000D03*
X38608000Y21082000D03*
X37846000Y20320000D03*
X36576000Y20320000D03*
X35306000Y20320000D03*
X27686000Y14732000D03*
X28702000Y14732000D03*
X29718000Y14732000D03*
X29718000Y13462000D03*
X28702000Y13462000D03*
X27686000Y13462000D03*
X14732000Y38608000D03*
X13716000Y38608000D03*
X12700000Y38608000D03*
X10668000Y38608000D03*
X24384000Y38608010D03*
X23368000Y38608000D03*
X22352000Y38608000D03*
X21336000Y33020000D03*
X22352000Y33020000D03*
X23368000Y33020000D03*
X24384000Y33020000D03*
X21336000Y38608000D03*
X8890012Y32004000D03*
X9906000Y32004006D03*
X8890000Y28194000D03*
X8890000Y29464000D03*
X8890000Y30734000D03*
X9906000Y30734000D03*
X9906000Y29464000D03*
X9906000Y28194000D03*
X14224000Y33020000D03*
X11176000Y33020000D03*
X12192000Y33020000D03*
X13208000Y32994000D03*
X11684000Y38608000D03*
X27432000Y2540000D03*
X28702000Y2540000D03*
X29972000Y2540000D03*
X30988000Y2540000D03*
X27432000Y7874000D03*
X28447994Y7874000D03*
X29718000Y7874000D03*
X30988000Y7874000D03*
X18288000Y2540000D03*
X19558000Y2540000D03*
X20574000Y2540000D03*
X20320000Y13208000D03*
X19304000Y13208000D03*
X18288000Y13208000D03*
X17272000Y13208000D03*
X17272000Y7874002D03*
X18288000Y7874000D03*
X19558000Y7874000D03*
X20574000Y7874000D03*
X17018000Y2540006D03*
X5334000Y20574000D03*
X4318000Y20574000D03*
X3302000Y20574000D03*
X2286000Y20574000D03*
X5334000Y19558000D03*
X4318000Y19558000D03*
X3302000Y19558000D03*
X2286000Y19558000D03*
X5334000Y16510000D03*
X5334000Y17526000D03*
X5334000Y18542000D03*
X4318000Y18542000D03*
X3302000Y18542000D03*
X2286000Y18542000D03*
X2286000Y17526000D03*
X3302000Y17526000D03*
X4318000Y17526000D03*
X4318000Y16510000D03*
X3302000Y16510000D03*
X2286000Y16510000D03*
X13208000Y13208000D03*
X12191980Y13208000D03*
X11176000Y12192000D03*
X11176000Y13208000D03*
X12192000Y15240000D03*
X12192000Y14224000D03*
X11176000Y14224000D03*
X14732000Y12954000D03*
X13970000Y13716000D03*
X13208000Y14478000D03*
X11176000Y15240000D03*
D22*
X31750000Y29718000D02*
X31750000Y29210000D01*
X32258000Y30226000D02*
X31750000Y29718000D01*
X32258000Y27686000D02*
X32258000Y30226000D01*
X33347000Y31750000D02*
X33020000Y31750000D01*
X34163000Y30934000D02*
X33347000Y31750000D01*
X34163000Y29972000D02*
X34163000Y30934000D01*
X38608000Y29972000D02*
X38608000Y28448000D01*
X36703000Y29972000D02*
X36703000Y30934000D01*
X36703000Y30934000D02*
X37011000Y31242000D01*
X37011000Y31242000D02*
X38608000Y31242000D01*
X37846000Y20320000D02*
X38608000Y21082000D01*
X35306000Y20320000D02*
X36576000Y20320000D01*
X28702000Y14732000D02*
X27686000Y14732000D01*
X29718000Y13462000D02*
X29718000Y14732000D01*
X27686000Y13462000D02*
X28702000Y13462000D01*
X12700000Y38608000D02*
X13716000Y38608000D01*
X11684000Y38608000D02*
X10668000Y38608000D01*
X24383990Y38608000D02*
X24384000Y38608010D01*
X23368000Y38608000D02*
X24383990Y38608000D01*
X21336000Y38608000D02*
X22352000Y38608000D01*
X22352000Y33020000D02*
X21336000Y33020000D01*
X24384000Y33020000D02*
X23368000Y33020000D01*
X8890000Y32003988D02*
X8890012Y32004000D01*
X8890000Y30734000D02*
X8890000Y32003988D01*
X9906000Y30734000D02*
X9906000Y32004006D01*
X8890000Y29464000D02*
X8890000Y28194000D01*
X9906000Y28194000D02*
X9906000Y29464000D01*
X14198000Y32994000D02*
X14224000Y33020000D01*
X13208000Y32994000D02*
X14198000Y32994000D01*
X13208000Y32994000D02*
X12218000Y32994000D01*
X12218000Y32994000D02*
X12192000Y33020000D01*
X12827000Y33375000D02*
X13208000Y32994000D01*
X12827000Y35480000D02*
X12827000Y33375000D01*
X30306000Y5414000D02*
X27831999Y2939999D01*
X30353000Y5414000D02*
X30306000Y5414000D01*
X27831999Y2939999D02*
X27432000Y2540000D01*
X29972000Y2540000D02*
X28702000Y2540000D01*
X30988000Y2540000D02*
X29972000Y2540000D01*
X28447994Y7874000D02*
X27432000Y7874000D01*
X30988000Y7874000D02*
X29718000Y7874000D01*
X19558000Y2540000D02*
X18288000Y2540000D01*
X19304000Y13208000D02*
X20320000Y13208000D01*
X17272000Y13208000D02*
X18288000Y13208000D01*
X17272002Y7874000D02*
X17272000Y7874002D01*
X18288000Y7874000D02*
X17272002Y7874000D01*
X17018000Y6604000D02*
X17888001Y7474001D01*
X17888001Y7474001D02*
X18288000Y7874000D01*
X17018000Y2540006D02*
X17018000Y6604000D01*
X19558000Y7874000D02*
X18288000Y7874000D01*
D10*
X4318000Y20574000D02*
X5334000Y20574000D01*
X2286000Y20574000D02*
X3302000Y20574000D01*
X4318000Y19558000D02*
X5334000Y19558000D01*
X2286000Y19558000D02*
X3302000Y19558000D01*
X5334000Y17526000D02*
X5334000Y16510000D01*
X4318000Y18542000D02*
X5334000Y18542000D01*
X2286000Y18542000D02*
X3302000Y18542000D01*
X3302000Y17526000D02*
X2286000Y17526000D01*
X4318000Y16510000D02*
X4318000Y17526000D01*
X2286000Y16510000D02*
X3302000Y16510000D01*
D23*
X33496000Y11462000D02*
X31496000Y13462000D01*
X31496000Y13462000D02*
X31496000Y15049500D01*
X35560000Y11462000D02*
X33496000Y11462000D01*
D24*
X30226000Y20621000D02*
X32276000Y20621000D01*
X32276000Y20621000D02*
X35560000Y17337000D01*
X35560000Y17337000D02*
X35560000Y15662001D01*
X25654000Y21418000D02*
X26451000Y20621000D01*
X26451000Y20621000D02*
X30226000Y20621000D01*
X36703000Y27432000D02*
X36703000Y24892000D01*
X34163000Y27432000D02*
X36703000Y27432000D01*
X34163000Y24892000D02*
X34163000Y27432000D01*
X34163000Y24892000D02*
X36703000Y24892000D01*
X30226000Y23321000D02*
X31797000Y24892000D01*
X31797000Y24892000D02*
X34163000Y24892000D01*
D10*
X12445980Y12954000D02*
X12191980Y13208000D01*
X14732000Y12954000D02*
X12445980Y12954000D01*
X11176000Y12757685D02*
X11176000Y12192000D01*
X10979685Y12954000D02*
X11176000Y12757685D01*
X11176000Y13208000D02*
X11176000Y12192000D01*
X10922000Y12954000D02*
X10979685Y12954000D01*
X11176000Y15240000D02*
X12192000Y15240000D01*
X11176000Y14224000D02*
X12192000Y14224000D01*
X13208000Y14478000D02*
X13970000Y13716000D01*
D25*
G36*
X39884000Y756000D02*
X756000Y756000D01*
X756000Y4262690D01*
X952285Y4262690D01*
X1579259Y2745296D01*
X2739190Y1583340D01*
X4255487Y953718D01*
X5897310Y952285D01*
X7414704Y1579259D01*
X8576660Y2739190D01*
X9206282Y4255487D01*
X9207715Y5897310D01*
X8580741Y7414704D01*
X7420810Y8576660D01*
X5904513Y9206282D01*
X4262690Y9207715D01*
X2745296Y8580741D01*
X1583340Y7420810D01*
X953718Y5904513D01*
X952285Y4262690D01*
X756000Y4262690D01*
X756000Y24638000D01*
X1143000Y24638000D01*
X1143000Y11938000D01*
X1191336Y11694996D01*
X1328987Y11488987D01*
X1534996Y11351336D01*
X1778000Y11303000D01*
X4826000Y11303000D01*
X5069004Y11351336D01*
X5275013Y11488987D01*
X5412664Y11694996D01*
X5461000Y11938000D01*
X5461000Y14722974D01*
X6291013Y15552987D01*
X6428664Y15758996D01*
X6477000Y16002000D01*
X6477000Y16129000D01*
X7112000Y16129000D01*
X7112000Y12192000D01*
X7160336Y11948996D01*
X7297987Y11742987D01*
X11049000Y7991974D01*
X11049000Y3302000D01*
X11097336Y3058996D01*
X11234987Y2852987D01*
X11440996Y2715336D01*
X11684000Y2667000D01*
X16002000Y2667000D01*
X16245004Y2715336D01*
X16451013Y2852987D01*
X16588664Y3058996D01*
X16637000Y3302000D01*
X16637000Y12985254D01*
X17323197Y13843000D01*
X20468469Y13843000D01*
X20955000Y13032115D01*
X20955000Y3048000D01*
X21003336Y2804996D01*
X21140987Y2598987D01*
X21346996Y2461336D01*
X21590000Y2413000D01*
X26416000Y2413000D01*
X26659004Y2461336D01*
X26865013Y2598987D01*
X27002664Y2804996D01*
X27051000Y3048000D01*
X27051000Y4262690D01*
X31432285Y4262690D01*
X32059259Y2745296D01*
X33219190Y1583340D01*
X34735487Y953718D01*
X36377310Y952285D01*
X37894704Y1579259D01*
X39056660Y2739190D01*
X39686282Y4255487D01*
X39687715Y5897310D01*
X39060741Y7414704D01*
X37900810Y8576660D01*
X36384513Y9206282D01*
X34742690Y9207715D01*
X33225296Y8580741D01*
X32063340Y7420810D01*
X31433718Y5904513D01*
X31432285Y4262690D01*
X27051000Y4262690D01*
X27051000Y16002000D01*
X27002664Y16245004D01*
X26865013Y16451013D01*
X24579013Y18737013D01*
X24373004Y18874664D01*
X24130000Y18923000D01*
X9906000Y18923000D01*
X9662996Y18874664D01*
X9456987Y18737013D01*
X7297987Y16578013D01*
X7160336Y16372004D01*
X7112000Y16129000D01*
X6477000Y16129000D01*
X6477000Y20056974D01*
X8788026Y22368000D01*
X23518635Y22368000D01*
X23518635Y20468000D01*
X23551775Y20301393D01*
X23646150Y20160150D01*
X23787393Y20065775D01*
X23954000Y20032635D01*
X25516257Y20032635D01*
X25689446Y19859446D01*
X26038850Y19625982D01*
X26451000Y19544000D01*
X29433946Y19544000D01*
X29476000Y19535635D01*
X30976000Y19535635D01*
X31018054Y19544000D01*
X31829892Y19544000D01*
X34483000Y16890892D01*
X34483000Y16266190D01*
X34407775Y16153607D01*
X34374635Y15987000D01*
X34374635Y14937000D01*
X34399102Y14813993D01*
X34054412Y14469904D01*
X33783310Y13817018D01*
X33782693Y13110084D01*
X34052655Y12456726D01*
X34270001Y12239000D01*
X33817844Y12239000D01*
X32273000Y13783844D01*
X32273000Y14185250D01*
X32361107Y14202775D01*
X32502350Y14297150D01*
X32596725Y14438393D01*
X32629865Y14605000D01*
X32629865Y15494000D01*
X32596725Y15660607D01*
X32502350Y15801850D01*
X32361107Y15896225D01*
X32194500Y15929365D01*
X30797500Y15929365D01*
X30630893Y15896225D01*
X30489650Y15801850D01*
X30395275Y15660607D01*
X30362135Y15494000D01*
X30362135Y14605000D01*
X30395275Y14438393D01*
X30489650Y14297150D01*
X30630893Y14202775D01*
X30719000Y14185250D01*
X30719000Y13462000D01*
X30778146Y13164655D01*
X30946578Y12912578D01*
X32946578Y10912578D01*
X33198655Y10744146D01*
X33496000Y10685000D01*
X34464832Y10685000D01*
X34502150Y10629150D01*
X34643393Y10534775D01*
X34810000Y10501635D01*
X36310000Y10501635D01*
X36476607Y10534775D01*
X36499111Y10549811D01*
X36619732Y10470024D01*
X36812015Y10432705D01*
X37003943Y10471811D01*
X37084850Y10526417D01*
X37167661Y10468114D01*
X37358780Y10425229D01*
X37551762Y10458746D01*
X37717227Y10563563D01*
X37829986Y10723721D01*
X37872871Y10914840D01*
X37846276Y11067965D01*
X37880620Y11249062D01*
X37840695Y11440820D01*
X37730425Y11602703D01*
X37566599Y11710065D01*
X37374158Y11746560D01*
X37100109Y11744113D01*
X37078460Y11748971D01*
X37047801Y11743646D01*
X36805198Y11741480D01*
X36745365Y11729022D01*
X36745365Y11987000D01*
X36720898Y12110007D01*
X37065588Y12454096D01*
X37336690Y13106982D01*
X37337307Y13813916D01*
X37067345Y14467274D01*
X36720953Y14814272D01*
X36745365Y14937000D01*
X36745365Y15987000D01*
X36712225Y16153607D01*
X36637000Y16266190D01*
X36637000Y17337000D01*
X36555018Y17749150D01*
X36321554Y18098554D01*
X33037554Y21382554D01*
X32688150Y21616018D01*
X32276000Y21698000D01*
X31018054Y21698000D01*
X30976000Y21706365D01*
X29476000Y21706365D01*
X29433946Y21698000D01*
X27789365Y21698000D01*
X27789365Y22368000D01*
X27756225Y22534607D01*
X27661850Y22675850D01*
X27520607Y22770225D01*
X27354000Y22803365D01*
X23954000Y22803365D01*
X23787393Y22770225D01*
X23646150Y22675850D01*
X23551775Y22534607D01*
X23518635Y22368000D01*
X8788026Y22368000D01*
X8899026Y22479000D01*
X22606000Y22479000D01*
X22849004Y22527336D01*
X23055013Y22664987D01*
X23885026Y23495000D01*
X27686000Y23495000D01*
X27929004Y23543336D01*
X28135013Y23680987D01*
X28272664Y23886996D01*
X28289373Y23971000D01*
X29040635Y23971000D01*
X29040635Y22671000D01*
X29073775Y22504393D01*
X29168150Y22363150D01*
X29309393Y22268775D01*
X29476000Y22235635D01*
X30976000Y22235635D01*
X31142607Y22268775D01*
X31283850Y22363150D01*
X31378225Y22504393D01*
X31411365Y22671000D01*
X31411365Y22983257D01*
X32243108Y23815000D01*
X33103851Y23815000D01*
X33234393Y23727775D01*
X33401000Y23694635D01*
X34925000Y23694635D01*
X35091607Y23727775D01*
X35222149Y23815000D01*
X35643851Y23815000D01*
X35774393Y23727775D01*
X35941000Y23694635D01*
X37465000Y23694635D01*
X37631607Y23727775D01*
X37772850Y23822150D01*
X37867225Y23963393D01*
X37900365Y24130000D01*
X37900365Y25654000D01*
X37867225Y25820607D01*
X37780000Y25951149D01*
X37780000Y26372851D01*
X37867225Y26503393D01*
X37900365Y26670000D01*
X37900365Y28194000D01*
X37867225Y28360607D01*
X37772850Y28501850D01*
X37631607Y28596225D01*
X37465000Y28629365D01*
X35941000Y28629365D01*
X35774393Y28596225D01*
X35643851Y28509000D01*
X35222149Y28509000D01*
X35091607Y28596225D01*
X34925000Y28629365D01*
X33401000Y28629365D01*
X33234393Y28596225D01*
X33093150Y28501850D01*
X32998775Y28360607D01*
X32965635Y28194000D01*
X32965635Y26670000D01*
X32998775Y26503393D01*
X33086000Y26372851D01*
X33086000Y25969000D01*
X31797000Y25969000D01*
X31384850Y25887018D01*
X31035446Y25653554D01*
X29788257Y24406365D01*
X29476000Y24406365D01*
X29309393Y24373225D01*
X29168150Y24278850D01*
X29073775Y24137607D01*
X29040635Y23971000D01*
X28289373Y23971000D01*
X28321000Y24130000D01*
X28321000Y25371194D01*
X30650793Y27468008D01*
X30812664Y27696996D01*
X30861000Y27940000D01*
X30861000Y34742690D01*
X31432285Y34742690D01*
X32059259Y33225296D01*
X33219190Y32063340D01*
X34735487Y31433718D01*
X36377310Y31432285D01*
X37894704Y32059259D01*
X39056660Y33219190D01*
X39686282Y34735487D01*
X39687715Y36377310D01*
X39060741Y37894704D01*
X37900810Y39056660D01*
X36384513Y39686282D01*
X34742690Y39687715D01*
X33225296Y39060741D01*
X32063340Y37900810D01*
X31433718Y36384513D01*
X31432285Y34742690D01*
X30861000Y34742690D01*
X30861000Y37846000D01*
X30812664Y38089004D01*
X30675013Y38295013D01*
X30469004Y38432664D01*
X30226000Y38481000D01*
X25654000Y38481000D01*
X25410996Y38432664D01*
X25204987Y38295013D01*
X25067336Y38089004D01*
X25019000Y37846000D01*
X25019000Y28457026D01*
X24628974Y28067000D01*
X21293667Y28067000D01*
X20701000Y28511500D01*
X20701000Y37592000D01*
X20652664Y37835004D01*
X20515013Y38041013D01*
X20309004Y38178664D01*
X20066000Y38227000D01*
X15748000Y38227000D01*
X15504996Y38178664D01*
X15298987Y38041013D01*
X15161336Y37835004D01*
X15113000Y37592000D01*
X15113000Y28457026D01*
X14214974Y27559000D01*
X8382000Y27559000D01*
X8138996Y27510664D01*
X7932987Y27373013D01*
X7102974Y26543000D01*
X2794000Y26543000D01*
X2487696Y26464240D01*
X2298148Y26304681D01*
X1282148Y25034681D01*
X1191336Y24881004D01*
X1143000Y24638000D01*
X756000Y24638000D01*
X756000Y34742690D01*
X952285Y34742690D01*
X1579259Y33225296D01*
X2739190Y32063340D01*
X4255487Y31433718D01*
X5897310Y31432285D01*
X7414704Y32059259D01*
X8576660Y33219190D01*
X9206282Y34735487D01*
X9207715Y36377310D01*
X8580741Y37894704D01*
X7420810Y39056660D01*
X5904513Y39686282D01*
X4262690Y39687715D01*
X2745296Y39060741D01*
X1583340Y37900810D01*
X953718Y36384513D01*
X952285Y34742690D01*
X756000Y34742690D01*
X756000Y39884000D01*
X39884000Y39884000D01*
X39884000Y756000D01*
X39884000Y756000D01*
G37*
X39884000Y756000D02*
X756000Y756000D01*
X756000Y4262690D01*
X952285Y4262690D01*
X1579259Y2745296D01*
X2739190Y1583340D01*
X4255487Y953718D01*
X5897310Y952285D01*
X7414704Y1579259D01*
X8576660Y2739190D01*
X9206282Y4255487D01*
X9207715Y5897310D01*
X8580741Y7414704D01*
X7420810Y8576660D01*
X5904513Y9206282D01*
X4262690Y9207715D01*
X2745296Y8580741D01*
X1583340Y7420810D01*
X953718Y5904513D01*
X952285Y4262690D01*
X756000Y4262690D01*
X756000Y24638000D01*
X1143000Y24638000D01*
X1143000Y11938000D01*
X1191336Y11694996D01*
X1328987Y11488987D01*
X1534996Y11351336D01*
X1778000Y11303000D01*
X4826000Y11303000D01*
X5069004Y11351336D01*
X5275013Y11488987D01*
X5412664Y11694996D01*
X5461000Y11938000D01*
X5461000Y14722974D01*
X6291013Y15552987D01*
X6428664Y15758996D01*
X6477000Y16002000D01*
X6477000Y16129000D01*
X7112000Y16129000D01*
X7112000Y12192000D01*
X7160336Y11948996D01*
X7297987Y11742987D01*
X11049000Y7991974D01*
X11049000Y3302000D01*
X11097336Y3058996D01*
X11234987Y2852987D01*
X11440996Y2715336D01*
X11684000Y2667000D01*
X16002000Y2667000D01*
X16245004Y2715336D01*
X16451013Y2852987D01*
X16588664Y3058996D01*
X16637000Y3302000D01*
X16637000Y12985254D01*
X17323197Y13843000D01*
X20468469Y13843000D01*
X20955000Y13032115D01*
X20955000Y3048000D01*
X21003336Y2804996D01*
X21140987Y2598987D01*
X21346996Y2461336D01*
X21590000Y2413000D01*
X26416000Y2413000D01*
X26659004Y2461336D01*
X26865013Y2598987D01*
X27002664Y2804996D01*
X27051000Y3048000D01*
X27051000Y4262690D01*
X31432285Y4262690D01*
X32059259Y2745296D01*
X33219190Y1583340D01*
X34735487Y953718D01*
X36377310Y952285D01*
X37894704Y1579259D01*
X39056660Y2739190D01*
X39686282Y4255487D01*
X39687715Y5897310D01*
X39060741Y7414704D01*
X37900810Y8576660D01*
X36384513Y9206282D01*
X34742690Y9207715D01*
X33225296Y8580741D01*
X32063340Y7420810D01*
X31433718Y5904513D01*
X31432285Y4262690D01*
X27051000Y4262690D01*
X27051000Y16002000D01*
X27002664Y16245004D01*
X26865013Y16451013D01*
X24579013Y18737013D01*
X24373004Y18874664D01*
X24130000Y18923000D01*
X9906000Y18923000D01*
X9662996Y18874664D01*
X9456987Y18737013D01*
X7297987Y16578013D01*
X7160336Y16372004D01*
X7112000Y16129000D01*
X6477000Y16129000D01*
X6477000Y20056974D01*
X8788026Y22368000D01*
X23518635Y22368000D01*
X23518635Y20468000D01*
X23551775Y20301393D01*
X23646150Y20160150D01*
X23787393Y20065775D01*
X23954000Y20032635D01*
X25516257Y20032635D01*
X25689446Y19859446D01*
X26038850Y19625982D01*
X26451000Y19544000D01*
X29433946Y19544000D01*
X29476000Y19535635D01*
X30976000Y19535635D01*
X31018054Y19544000D01*
X31829892Y19544000D01*
X34483000Y16890892D01*
X34483000Y16266190D01*
X34407775Y16153607D01*
X34374635Y15987000D01*
X34374635Y14937000D01*
X34399102Y14813993D01*
X34054412Y14469904D01*
X33783310Y13817018D01*
X33782693Y13110084D01*
X34052655Y12456726D01*
X34270001Y12239000D01*
X33817844Y12239000D01*
X32273000Y13783844D01*
X32273000Y14185250D01*
X32361107Y14202775D01*
X32502350Y14297150D01*
X32596725Y14438393D01*
X32629865Y14605000D01*
X32629865Y15494000D01*
X32596725Y15660607D01*
X32502350Y15801850D01*
X32361107Y15896225D01*
X32194500Y15929365D01*
X30797500Y15929365D01*
X30630893Y15896225D01*
X30489650Y15801850D01*
X30395275Y15660607D01*
X30362135Y15494000D01*
X30362135Y14605000D01*
X30395275Y14438393D01*
X30489650Y14297150D01*
X30630893Y14202775D01*
X30719000Y14185250D01*
X30719000Y13462000D01*
X30778146Y13164655D01*
X30946578Y12912578D01*
X32946578Y10912578D01*
X33198655Y10744146D01*
X33496000Y10685000D01*
X34464832Y10685000D01*
X34502150Y10629150D01*
X34643393Y10534775D01*
X34810000Y10501635D01*
X36310000Y10501635D01*
X36476607Y10534775D01*
X36499111Y10549811D01*
X36619732Y10470024D01*
X36812015Y10432705D01*
X37003943Y10471811D01*
X37084850Y10526417D01*
X37167661Y10468114D01*
X37358780Y10425229D01*
X37551762Y10458746D01*
X37717227Y10563563D01*
X37829986Y10723721D01*
X37872871Y10914840D01*
X37846276Y11067965D01*
X37880620Y11249062D01*
X37840695Y11440820D01*
X37730425Y11602703D01*
X37566599Y11710065D01*
X37374158Y11746560D01*
X37100109Y11744113D01*
X37078460Y11748971D01*
X37047801Y11743646D01*
X36805198Y11741480D01*
X36745365Y11729022D01*
X36745365Y11987000D01*
X36720898Y12110007D01*
X37065588Y12454096D01*
X37336690Y13106982D01*
X37337307Y13813916D01*
X37067345Y14467274D01*
X36720953Y14814272D01*
X36745365Y14937000D01*
X36745365Y15987000D01*
X36712225Y16153607D01*
X36637000Y16266190D01*
X36637000Y17337000D01*
X36555018Y17749150D01*
X36321554Y18098554D01*
X33037554Y21382554D01*
X32688150Y21616018D01*
X32276000Y21698000D01*
X31018054Y21698000D01*
X30976000Y21706365D01*
X29476000Y21706365D01*
X29433946Y21698000D01*
X27789365Y21698000D01*
X27789365Y22368000D01*
X27756225Y22534607D01*
X27661850Y22675850D01*
X27520607Y22770225D01*
X27354000Y22803365D01*
X23954000Y22803365D01*
X23787393Y22770225D01*
X23646150Y22675850D01*
X23551775Y22534607D01*
X23518635Y22368000D01*
X8788026Y22368000D01*
X8899026Y22479000D01*
X22606000Y22479000D01*
X22849004Y22527336D01*
X23055013Y22664987D01*
X23885026Y23495000D01*
X27686000Y23495000D01*
X27929004Y23543336D01*
X28135013Y23680987D01*
X28272664Y23886996D01*
X28289373Y23971000D01*
X29040635Y23971000D01*
X29040635Y22671000D01*
X29073775Y22504393D01*
X29168150Y22363150D01*
X29309393Y22268775D01*
X29476000Y22235635D01*
X30976000Y22235635D01*
X31142607Y22268775D01*
X31283850Y22363150D01*
X31378225Y22504393D01*
X31411365Y22671000D01*
X31411365Y22983257D01*
X32243108Y23815000D01*
X33103851Y23815000D01*
X33234393Y23727775D01*
X33401000Y23694635D01*
X34925000Y23694635D01*
X35091607Y23727775D01*
X35222149Y23815000D01*
X35643851Y23815000D01*
X35774393Y23727775D01*
X35941000Y23694635D01*
X37465000Y23694635D01*
X37631607Y23727775D01*
X37772850Y23822150D01*
X37867225Y23963393D01*
X37900365Y24130000D01*
X37900365Y25654000D01*
X37867225Y25820607D01*
X37780000Y25951149D01*
X37780000Y26372851D01*
X37867225Y26503393D01*
X37900365Y26670000D01*
X37900365Y28194000D01*
X37867225Y28360607D01*
X37772850Y28501850D01*
X37631607Y28596225D01*
X37465000Y28629365D01*
X35941000Y28629365D01*
X35774393Y28596225D01*
X35643851Y28509000D01*
X35222149Y28509000D01*
X35091607Y28596225D01*
X34925000Y28629365D01*
X33401000Y28629365D01*
X33234393Y28596225D01*
X33093150Y28501850D01*
X32998775Y28360607D01*
X32965635Y28194000D01*
X32965635Y26670000D01*
X32998775Y26503393D01*
X33086000Y26372851D01*
X33086000Y25969000D01*
X31797000Y25969000D01*
X31384850Y25887018D01*
X31035446Y25653554D01*
X29788257Y24406365D01*
X29476000Y24406365D01*
X29309393Y24373225D01*
X29168150Y24278850D01*
X29073775Y24137607D01*
X29040635Y23971000D01*
X28289373Y23971000D01*
X28321000Y24130000D01*
X28321000Y25371194D01*
X30650793Y27468008D01*
X30812664Y27696996D01*
X30861000Y27940000D01*
X30861000Y34742690D01*
X31432285Y34742690D01*
X32059259Y33225296D01*
X33219190Y32063340D01*
X34735487Y31433718D01*
X36377310Y31432285D01*
X37894704Y32059259D01*
X39056660Y33219190D01*
X39686282Y34735487D01*
X39687715Y36377310D01*
X39060741Y37894704D01*
X37900810Y39056660D01*
X36384513Y39686282D01*
X34742690Y39687715D01*
X33225296Y39060741D01*
X32063340Y37900810D01*
X31433718Y36384513D01*
X31432285Y34742690D01*
X30861000Y34742690D01*
X30861000Y37846000D01*
X30812664Y38089004D01*
X30675013Y38295013D01*
X30469004Y38432664D01*
X30226000Y38481000D01*
X25654000Y38481000D01*
X25410996Y38432664D01*
X25204987Y38295013D01*
X25067336Y38089004D01*
X25019000Y37846000D01*
X25019000Y28457026D01*
X24628974Y28067000D01*
X21293667Y28067000D01*
X20701000Y28511500D01*
X20701000Y37592000D01*
X20652664Y37835004D01*
X20515013Y38041013D01*
X20309004Y38178664D01*
X20066000Y38227000D01*
X15748000Y38227000D01*
X15504996Y38178664D01*
X15298987Y38041013D01*
X15161336Y37835004D01*
X15113000Y37592000D01*
X15113000Y28457026D01*
X14214974Y27559000D01*
X8382000Y27559000D01*
X8138996Y27510664D01*
X7932987Y27373013D01*
X7102974Y26543000D01*
X2794000Y26543000D01*
X2487696Y26464240D01*
X2298148Y26304681D01*
X1282148Y25034681D01*
X1191336Y24881004D01*
X1143000Y24638000D01*
X756000Y24638000D01*
X756000Y34742690D01*
X952285Y34742690D01*
X1579259Y33225296D01*
X2739190Y32063340D01*
X4255487Y31433718D01*
X5897310Y31432285D01*
X7414704Y32059259D01*
X8576660Y33219190D01*
X9206282Y34735487D01*
X9207715Y36377310D01*
X8580741Y37894704D01*
X7420810Y39056660D01*
X5904513Y39686282D01*
X4262690Y39687715D01*
X2745296Y39060741D01*
X1583340Y37900810D01*
X953718Y36384513D01*
X952285Y34742690D01*
X756000Y34742690D01*
X756000Y39884000D01*
X39884000Y39884000D01*
X39884000Y756000D01*
G36*
X26289000Y15949394D02*
X26289000Y3175000D01*
X21717000Y3175000D01*
X21717000Y13208000D01*
X21698902Y13273341D01*
X20936902Y14543341D01*
X20903607Y14580042D01*
X20858802Y14601208D01*
X20828000Y14605000D01*
X17018000Y14605000D01*
X16969399Y14595333D01*
X16918830Y14557336D01*
X15902830Y13287336D01*
X15880018Y13243346D01*
X15875000Y13208000D01*
X15875000Y3429000D01*
X11811000Y3429000D01*
X11811000Y8255000D01*
X11801333Y8303601D01*
X11773803Y8344803D01*
X7874000Y12244606D01*
X7874000Y16076394D01*
X9958606Y18161000D01*
X24077394Y18161000D01*
X26289000Y15949394D01*
X26289000Y15949394D01*
G37*
X26289000Y15949394D02*
X26289000Y3175000D01*
X21717000Y3175000D01*
X21717000Y13208000D01*
X21698902Y13273341D01*
X20936902Y14543341D01*
X20903607Y14580042D01*
X20858802Y14601208D01*
X20828000Y14605000D01*
X17018000Y14605000D01*
X16969399Y14595333D01*
X16918830Y14557336D01*
X15902830Y13287336D01*
X15880018Y13243346D01*
X15875000Y13208000D01*
X15875000Y3429000D01*
X11811000Y3429000D01*
X11811000Y8255000D01*
X11801333Y8303601D01*
X11773803Y8344803D01*
X7874000Y12244606D01*
X7874000Y16076394D01*
X9958606Y18161000D01*
X24077394Y18161000D01*
X26289000Y15949394D01*
G36*
X30099000Y27996561D02*
X27601041Y25748398D01*
X27571384Y25708700D01*
X27559000Y25654000D01*
X27559000Y24257000D01*
X23622000Y24257000D01*
X23573399Y24247333D01*
X23532197Y24219803D01*
X22553394Y23241000D01*
X8636000Y23241000D01*
X8587399Y23231333D01*
X8546197Y23203803D01*
X5752197Y20409803D01*
X5724667Y20368601D01*
X5715000Y20320000D01*
X5715000Y16054606D01*
X4736197Y15075803D01*
X4708667Y15034601D01*
X4699000Y14986000D01*
X4699000Y12065000D01*
X1905000Y12065000D01*
X1905000Y24593452D01*
X2855039Y25781000D01*
X7366000Y25781000D01*
X7414601Y25790667D01*
X7455803Y25818197D01*
X8434606Y26797000D01*
X14478000Y26797000D01*
X14526601Y26806667D01*
X14567803Y26834197D01*
X15837803Y28104197D01*
X15865333Y28145399D01*
X15875000Y28194000D01*
X15875000Y37465000D01*
X19939000Y37465000D01*
X19939000Y28194000D01*
X19948667Y28145399D01*
X19989800Y28092400D01*
X21005800Y27330400D01*
X21050481Y27308973D01*
X21082000Y27305000D01*
X24892000Y27305000D01*
X24940601Y27314667D01*
X24981803Y27342197D01*
X25743803Y28104197D01*
X25771333Y28145399D01*
X25781000Y28194000D01*
X25781000Y37719000D01*
X30099000Y37719000D01*
X30099000Y27996561D01*
X30099000Y27996561D01*
G37*
X30099000Y27996561D02*
X27601041Y25748398D01*
X27571384Y25708700D01*
X27559000Y25654000D01*
X27559000Y24257000D01*
X23622000Y24257000D01*
X23573399Y24247333D01*
X23532197Y24219803D01*
X22553394Y23241000D01*
X8636000Y23241000D01*
X8587399Y23231333D01*
X8546197Y23203803D01*
X5752197Y20409803D01*
X5724667Y20368601D01*
X5715000Y20320000D01*
X5715000Y16054606D01*
X4736197Y15075803D01*
X4708667Y15034601D01*
X4699000Y14986000D01*
X4699000Y12065000D01*
X1905000Y12065000D01*
X1905000Y24593452D01*
X2855039Y25781000D01*
X7366000Y25781000D01*
X7414601Y25790667D01*
X7455803Y25818197D01*
X8434606Y26797000D01*
X14478000Y26797000D01*
X14526601Y26806667D01*
X14567803Y26834197D01*
X15837803Y28104197D01*
X15865333Y28145399D01*
X15875000Y28194000D01*
X15875000Y37465000D01*
X19939000Y37465000D01*
X19939000Y28194000D01*
X19948667Y28145399D01*
X19989800Y28092400D01*
X21005800Y27330400D01*
X21050481Y27308973D01*
X21082000Y27305000D01*
X24892000Y27305000D01*
X24940601Y27314667D01*
X24981803Y27342197D01*
X25743803Y28104197D01*
X25771333Y28145399D01*
X25781000Y28194000D01*
X25781000Y37719000D01*
X30099000Y37719000D01*
X30099000Y27996561D01*
M02*
