G04 #@! TF.FileFunction,Legend,Top*
%FSLAX46Y46*%
G04 Gerber Fmt 4.6, Leading zero omitted, Abs format (unit mm)*
G04 Created by KiCad (PCBNEW (2016-09-17 revision 679eef1)-makepkg) date 09/29/16 07:02:03*
%MOMM*%
%LPD*%
G01*
G04 APERTURE LIST*
%ADD10C,0.500000*%
%ADD11C,0.200000*%
%ADD12C,0.300000*%
%ADD13C,0.150000*%
%ADD14C,0.304800*%
%ADD15C,0.050000*%
G04 APERTURE END LIST*
D10*
D11*
X25146000Y9271000D02*
X26543000Y9271000D01*
D12*
X11887904Y2799428D02*
X10587904Y2366095D01*
X11887904Y1932761D01*
X11454571Y1499428D02*
X10154571Y1499428D01*
X11392666Y1499428D02*
X11454571Y1375619D01*
X11454571Y1128000D01*
X11392666Y1004190D01*
X11330761Y942285D01*
X11206952Y880380D01*
X10835523Y880380D01*
X10711714Y942285D01*
X10649809Y1004190D01*
X10587904Y1128000D01*
X10587904Y1375619D01*
X10649809Y1499428D01*
X25584428Y36592595D02*
X25646333Y36654500D01*
X25770142Y36716404D01*
X26079666Y36716404D01*
X26203476Y36654500D01*
X26265380Y36592595D01*
X26327285Y36468785D01*
X26327285Y36344976D01*
X26265380Y36159261D01*
X25522523Y35416404D01*
X26327285Y35416404D01*
X27132047Y36716404D02*
X27255857Y36716404D01*
X27379666Y36654500D01*
X27441571Y36592595D01*
X27503476Y36468785D01*
X27565380Y36221166D01*
X27565380Y35911642D01*
X27503476Y35664023D01*
X27441571Y35540214D01*
X27379666Y35478309D01*
X27255857Y35416404D01*
X27132047Y35416404D01*
X27008238Y35478309D01*
X26946333Y35540214D01*
X26884428Y35664023D01*
X26822523Y35911642D01*
X26822523Y36221166D01*
X26884428Y36468785D01*
X26946333Y36592595D01*
X27008238Y36654500D01*
X27132047Y36716404D01*
X28803476Y35416404D02*
X28060619Y35416404D01*
X28432047Y35416404D02*
X28432047Y36716404D01*
X28308238Y36530690D01*
X28184428Y36406880D01*
X28060619Y36344976D01*
X29917761Y36716404D02*
X29670142Y36716404D01*
X29546333Y36654500D01*
X29484428Y36592595D01*
X29360619Y36406880D01*
X29298714Y36159261D01*
X29298714Y35664023D01*
X29360619Y35540214D01*
X29422523Y35478309D01*
X29546333Y35416404D01*
X29793952Y35416404D01*
X29917761Y35478309D01*
X29979666Y35540214D01*
X30041571Y35664023D01*
X30041571Y35973547D01*
X29979666Y36097357D01*
X29917761Y36159261D01*
X29793952Y36221166D01*
X29546333Y36221166D01*
X29422523Y36159261D01*
X29360619Y36097357D01*
X29298714Y35973547D01*
X25366166Y39129404D02*
X25366166Y38200833D01*
X25304261Y38015119D01*
X25180452Y37891309D01*
X24994738Y37829404D01*
X24870928Y37829404D01*
X25923309Y38200833D02*
X26542357Y38200833D01*
X25799500Y37829404D02*
X26232833Y39129404D01*
X26666166Y37829404D01*
X27842357Y37953214D02*
X27780452Y37891309D01*
X27594738Y37829404D01*
X27470928Y37829404D01*
X27285214Y37891309D01*
X27161404Y38015119D01*
X27099500Y38138928D01*
X27037595Y38386547D01*
X27037595Y38572261D01*
X27099500Y38819880D01*
X27161404Y38943690D01*
X27285214Y39067500D01*
X27470928Y39129404D01*
X27594738Y39129404D01*
X27780452Y39067500D01*
X27842357Y39005595D01*
X28399500Y37829404D02*
X28399500Y39129404D01*
X28399500Y38510357D02*
X29142357Y38510357D01*
X29142357Y37829404D02*
X29142357Y39129404D01*
X30009023Y39129404D02*
X30256642Y39129404D01*
X30380452Y39067500D01*
X30504261Y38943690D01*
X30566166Y38696071D01*
X30566166Y38262738D01*
X30504261Y38015119D01*
X30380452Y37891309D01*
X30256642Y37829404D01*
X30009023Y37829404D01*
X29885214Y37891309D01*
X29761404Y38015119D01*
X29699500Y38262738D01*
X29699500Y38696071D01*
X29761404Y38943690D01*
X29885214Y39067500D01*
X30009023Y39129404D01*
X23384595Y14860261D02*
X22084595Y14860261D01*
X23013166Y15293595D01*
X22084595Y15726928D01*
X23384595Y15726928D01*
X23384595Y16965023D02*
X23384595Y16345976D01*
X22084595Y16345976D01*
X23013166Y17336452D02*
X23013166Y17955500D01*
X23384595Y17212642D02*
X22084595Y17645976D01*
X23384595Y18079309D01*
X22703642Y18945976D02*
X22765547Y19131690D01*
X22827452Y19193595D01*
X22951261Y19255500D01*
X23136976Y19255500D01*
X23260785Y19193595D01*
X23322690Y19131690D01*
X23384595Y19007880D01*
X23384595Y18512642D01*
X22084595Y18512642D01*
X22084595Y18945976D01*
X22146500Y19069785D01*
X22208404Y19131690D01*
X22332214Y19193595D01*
X22456023Y19193595D01*
X22579833Y19131690D01*
X22641738Y19069785D01*
X22703642Y18945976D01*
X22703642Y18512642D01*
X23260785Y19812642D02*
X23322690Y19874547D01*
X23384595Y19812642D01*
X23322690Y19750738D01*
X23260785Y19812642D01*
X23384595Y19812642D01*
X23260785Y21174547D02*
X23322690Y21112642D01*
X23384595Y20926928D01*
X23384595Y20803119D01*
X23322690Y20617404D01*
X23198880Y20493595D01*
X23075071Y20431690D01*
X22827452Y20369785D01*
X22641738Y20369785D01*
X22394119Y20431690D01*
X22270309Y20493595D01*
X22146500Y20617404D01*
X22084595Y20803119D01*
X22084595Y20926928D01*
X22146500Y21112642D01*
X22208404Y21174547D01*
X22084595Y21607880D02*
X22084595Y22474547D01*
X23384595Y21607880D01*
X23384595Y22474547D01*
X21059714Y11164071D02*
X21116857Y11335500D01*
X21116857Y11621214D01*
X21059714Y11735500D01*
X21002571Y11792642D01*
X20888285Y11849785D01*
X20774000Y11849785D01*
X20659714Y11792642D01*
X20602571Y11735500D01*
X20545428Y11621214D01*
X20488285Y11392642D01*
X20431142Y11278357D01*
X20374000Y11221214D01*
X20259714Y11164071D01*
X20145428Y11164071D01*
X20031142Y11221214D01*
X19974000Y11278357D01*
X19916857Y11392642D01*
X19916857Y11678357D01*
X19974000Y11849785D01*
X19916857Y12364071D02*
X20888285Y12364071D01*
X21002571Y12421214D01*
X21059714Y12478357D01*
X21116857Y12592642D01*
X21116857Y12821214D01*
X21059714Y12935500D01*
X21002571Y12992642D01*
X20888285Y13049785D01*
X19916857Y13049785D01*
X21116857Y13621214D02*
X19916857Y13621214D01*
X19916857Y14078357D01*
X19974000Y14192642D01*
X20031142Y14249785D01*
X20145428Y14306928D01*
X20316857Y14306928D01*
X20431142Y14249785D01*
X20488285Y14192642D01*
X20545428Y14078357D01*
X20545428Y13621214D01*
X20488285Y14821214D02*
X20488285Y15221214D01*
X21116857Y15392642D02*
X21116857Y14821214D01*
X19916857Y14821214D01*
X19916857Y15392642D01*
X21116857Y16592642D02*
X20545428Y16192642D01*
X21116857Y15906928D02*
X19916857Y15906928D01*
X19916857Y16364071D01*
X19974000Y16478357D01*
X20031142Y16535500D01*
X20145428Y16592642D01*
X20316857Y16592642D01*
X20431142Y16535500D01*
X20488285Y16478357D01*
X20545428Y16364071D01*
X20545428Y15906928D01*
X21002571Y17792642D02*
X21059714Y17735500D01*
X21116857Y17564071D01*
X21116857Y17449785D01*
X21059714Y17278357D01*
X20945428Y17164071D01*
X20831142Y17106928D01*
X20602571Y17049785D01*
X20431142Y17049785D01*
X20202571Y17106928D01*
X20088285Y17164071D01*
X19974000Y17278357D01*
X19916857Y17449785D01*
X19916857Y17564071D01*
X19974000Y17735500D01*
X20031142Y17792642D01*
X20774000Y18249785D02*
X20774000Y18821214D01*
X21116857Y18135500D02*
X19916857Y18535500D01*
X21116857Y18935500D01*
X21116857Y19335500D02*
X19916857Y19335500D01*
X19916857Y19792642D01*
X19974000Y19906928D01*
X20031142Y19964071D01*
X20145428Y20021214D01*
X20316857Y20021214D01*
X20431142Y19964071D01*
X20488285Y19906928D01*
X20545428Y19792642D01*
X20545428Y19335500D01*
X19916857Y20764071D02*
X19916857Y20878357D01*
X19974000Y20992642D01*
X20031142Y21049785D01*
X20145428Y21106928D01*
X20374000Y21164071D01*
X20659714Y21164071D01*
X20888285Y21106928D01*
X21002571Y21049785D01*
X21059714Y20992642D01*
X21116857Y20878357D01*
X21116857Y20764071D01*
X21059714Y20649785D01*
X21002571Y20592642D01*
X20888285Y20535500D01*
X20659714Y20478357D01*
X20374000Y20478357D01*
X20145428Y20535500D01*
X20031142Y20592642D01*
X19974000Y20649785D01*
X19916857Y20764071D01*
X21116857Y22306928D02*
X21116857Y21621214D01*
X21116857Y21964071D02*
X19916857Y21964071D01*
X20088285Y21849785D01*
X20202571Y21735500D01*
X20259714Y21621214D01*
X20488285Y23221214D02*
X20545428Y23392642D01*
X20602571Y23449785D01*
X20716857Y23506928D01*
X20888285Y23506928D01*
X21002571Y23449785D01*
X21059714Y23392642D01*
X21116857Y23278357D01*
X21116857Y22821214D01*
X19916857Y22821214D01*
X19916857Y23221214D01*
X19974000Y23335499D01*
X20031142Y23392642D01*
X20145428Y23449785D01*
X20259714Y23449785D01*
X20374000Y23392642D01*
X20431142Y23335499D01*
X20488285Y23221214D01*
X20488285Y22821214D01*
X22047904Y2729190D02*
X20747904Y2295857D01*
X22047904Y1862523D01*
X20809809Y1491095D02*
X20747904Y1305380D01*
X20747904Y995857D01*
X20809809Y872047D01*
X20871714Y810142D01*
X20995523Y748238D01*
X21119333Y748238D01*
X21243142Y810142D01*
X21305047Y872047D01*
X21366952Y995857D01*
X21428857Y1243476D01*
X21490761Y1367285D01*
X21552666Y1429190D01*
X21676476Y1491095D01*
X21800285Y1491095D01*
X21924095Y1429190D01*
X21986000Y1367285D01*
X22047904Y1243476D01*
X22047904Y933952D01*
X21986000Y748238D01*
X18888857Y2797476D02*
X18888857Y2364142D01*
X18207904Y2178428D02*
X18207904Y2797476D01*
X19507904Y2797476D01*
X19507904Y2178428D01*
X18207904Y1621285D02*
X19507904Y1621285D01*
X18207904Y878428D01*
X19507904Y878428D01*
X35514047Y10333904D02*
X35514047Y11633904D01*
X36133095Y10333904D02*
X36133095Y11633904D01*
X36875952Y10333904D01*
X36875952Y11633904D01*
X33065619Y12238904D02*
X33065619Y13538904D01*
X33560857Y13538904D01*
X33684666Y13477000D01*
X33746571Y13415095D01*
X33808476Y13291285D01*
X33808476Y13105571D01*
X33746571Y12981761D01*
X33684666Y12919857D01*
X33560857Y12857952D01*
X33065619Y12857952D01*
X34613238Y13538904D02*
X34860857Y13538904D01*
X34984666Y13477000D01*
X35108476Y13353190D01*
X35170380Y13105571D01*
X35170380Y12672238D01*
X35108476Y12424619D01*
X34984666Y12300809D01*
X34860857Y12238904D01*
X34613238Y12238904D01*
X34489428Y12300809D01*
X34365619Y12424619D01*
X34303714Y12672238D01*
X34303714Y13105571D01*
X34365619Y13353190D01*
X34489428Y13477000D01*
X34613238Y13538904D01*
X35603714Y13538904D02*
X35913238Y12238904D01*
X36160857Y13167476D01*
X36408476Y12238904D01*
X36718000Y13538904D01*
X37213238Y12919857D02*
X37646571Y12919857D01*
X37832285Y12238904D02*
X37213238Y12238904D01*
X37213238Y13538904D01*
X37832285Y13538904D01*
X39132285Y12238904D02*
X38698952Y12857952D01*
X38389428Y12238904D02*
X38389428Y13538904D01*
X38884666Y13538904D01*
X39008476Y13477000D01*
X39070380Y13415095D01*
X39132285Y13291285D01*
X39132285Y13105571D01*
X39070380Y12981761D01*
X39008476Y12919857D01*
X38884666Y12857952D01*
X38389428Y12857952D01*
X20610690Y10744904D02*
X21044023Y9444904D01*
X21477357Y10744904D01*
X21910690Y9444904D02*
X21910690Y10744904D01*
X22529738Y9444904D02*
X22529738Y10744904D01*
X23272595Y9444904D01*
X23272595Y10744904D01*
D11*
X24320500Y9271000D02*
X25209500Y9271000D01*
X23812500Y8763000D02*
X24320500Y9271000D01*
X17970500Y8763000D02*
X23812500Y8763000D01*
D12*
X12886023Y9740071D02*
X13814595Y9740071D01*
X13257452Y10297214D02*
X12886023Y8625785D01*
X13690785Y9182928D02*
X12762214Y9182928D01*
X13319357Y8625785D02*
X13690785Y10297214D01*
X14247928Y8873404D02*
X14247928Y10173404D01*
X14743166Y10173404D01*
X14866976Y10111500D01*
X14928880Y10049595D01*
X14990785Y9925785D01*
X14990785Y9740071D01*
X14928880Y9616261D01*
X14866976Y9554357D01*
X14743166Y9492452D01*
X14247928Y9492452D01*
X15981261Y9554357D02*
X15547928Y9554357D01*
X15547928Y8873404D02*
X15547928Y10173404D01*
X16166976Y10173404D01*
X16909833Y10173404D02*
X17157452Y10173404D01*
X17281261Y10111500D01*
X17405071Y9987690D01*
X17466976Y9740071D01*
X17466976Y9306738D01*
X17405071Y9059119D01*
X17281261Y8935309D01*
X17157452Y8873404D01*
X16909833Y8873404D01*
X16786023Y8935309D01*
X16662214Y9059119D01*
X16600309Y9306738D01*
X16600309Y9740071D01*
X16662214Y9987690D01*
X16786023Y10111500D01*
X16909833Y10173404D01*
X13127904Y2768476D02*
X14427904Y2768476D01*
X14427904Y2273238D01*
X14366000Y2149428D01*
X14304095Y2087523D01*
X14180285Y2025619D01*
X13994571Y2025619D01*
X13870761Y2087523D01*
X13808857Y2149428D01*
X13746952Y2273238D01*
X13746952Y2768476D01*
X14366000Y787523D02*
X14427904Y911333D01*
X14427904Y1097047D01*
X14366000Y1282761D01*
X14242190Y1406571D01*
X14118380Y1468476D01*
X13870761Y1530380D01*
X13685047Y1530380D01*
X13437428Y1468476D01*
X13313619Y1406571D01*
X13189809Y1282761D01*
X13127904Y1097047D01*
X13127904Y973238D01*
X13189809Y787523D01*
X13251714Y725619D01*
X13685047Y725619D01*
X13685047Y973238D01*
X1918404Y25620500D02*
X1918404Y25372880D01*
X1856500Y25249071D01*
X1732690Y25125261D01*
X1485071Y25063357D01*
X1051738Y25063357D01*
X804119Y25125261D01*
X680309Y25249071D01*
X618404Y25372880D01*
X618404Y25620500D01*
X680309Y25744309D01*
X804119Y25868119D01*
X1051738Y25930023D01*
X1485071Y25930023D01*
X1732690Y25868119D01*
X1856500Y25744309D01*
X1918404Y25620500D01*
X1918404Y24506214D02*
X866023Y24506214D01*
X742214Y24444309D01*
X680309Y24382404D01*
X618404Y24258595D01*
X618404Y24010976D01*
X680309Y23887166D01*
X742214Y23825261D01*
X866023Y23763357D01*
X1918404Y23763357D01*
X1918404Y23330023D02*
X1918404Y22587166D01*
X618404Y22958595D02*
X1918404Y22958595D01*
X7920904Y27386380D02*
X9220904Y27386380D01*
X9220904Y26891142D01*
X9159000Y26767333D01*
X9097095Y26705428D01*
X8973285Y26643523D01*
X8787571Y26643523D01*
X8663761Y26705428D01*
X8601857Y26767333D01*
X8539952Y26891142D01*
X8539952Y27386380D01*
X9220904Y25838761D02*
X9220904Y25591142D01*
X9159000Y25467333D01*
X9035190Y25343523D01*
X8787571Y25281619D01*
X8354238Y25281619D01*
X8106619Y25343523D01*
X7982809Y25467333D01*
X7920904Y25591142D01*
X7920904Y25838761D01*
X7982809Y25962571D01*
X8106619Y26086380D01*
X8354238Y26148285D01*
X8787571Y26148285D01*
X9035190Y26086380D01*
X9159000Y25962571D01*
X9220904Y25838761D01*
X9220904Y24848285D02*
X7920904Y24538761D01*
X8849476Y24291142D01*
X7920904Y24043523D01*
X9220904Y23734000D01*
X8601857Y23238761D02*
X8601857Y22805428D01*
X7920904Y22619714D02*
X7920904Y23238761D01*
X9220904Y23238761D01*
X9220904Y22619714D01*
X7920904Y21319714D02*
X8539952Y21753047D01*
X7920904Y22062571D02*
X9220904Y22062571D01*
X9220904Y21567333D01*
X9159000Y21443523D01*
X9097095Y21381619D01*
X8973285Y21319714D01*
X8787571Y21319714D01*
X8663761Y21381619D01*
X8601857Y21443523D01*
X8539952Y21567333D01*
X8539952Y22062571D01*
X16446428Y18307857D02*
X15303571Y18307857D01*
X15875000Y17736428D02*
X15875000Y18879285D01*
D13*
X25186000Y31178500D02*
G75*
G03X25186000Y31178500I-8037500J0D01*
G01*
X21898500Y31178500D02*
G75*
G03X21898500Y31178500I-1000000J0D01*
G01*
X25063500Y32341500D02*
X25063500Y30015500D01*
X24923500Y33062500D02*
X24923500Y29294500D01*
X24783500Y33567500D02*
X24783500Y28789500D01*
X24643500Y33975500D02*
X24643500Y28381500D01*
X24503500Y34325500D02*
X24503500Y28031500D01*
X24363500Y34634500D02*
X24363500Y27722500D01*
X24223500Y34912500D02*
X24223500Y27444500D01*
X24083500Y35166500D02*
X24083500Y27190500D01*
X23943500Y35400500D02*
X23943500Y26956500D01*
X23803500Y35618500D02*
X23803500Y26738500D01*
X23663500Y35821500D02*
X23663500Y26535500D01*
X23523500Y36011500D02*
X23523500Y26345500D01*
X23383500Y36190500D02*
X23383500Y26166500D01*
X23243500Y36360500D02*
X23243500Y25996500D01*
X23103500Y36520500D02*
X23103500Y25836500D01*
X22963500Y36672500D02*
X22963500Y25684500D01*
X22823500Y36817500D02*
X22823500Y25539500D01*
X22683500Y36954500D02*
X22683500Y25402500D01*
X22543500Y37085500D02*
X22543500Y25271500D01*
X22403500Y37210500D02*
X22403500Y25146500D01*
X22263500Y37329500D02*
X22263500Y25027500D01*
X22123500Y37443500D02*
X22123500Y24913500D01*
X21983500Y37552500D02*
X21983500Y24804500D01*
X21843500Y30851500D02*
X21843500Y24701500D01*
X21843500Y37655500D02*
X21843500Y31505500D01*
X21703500Y30585500D02*
X21703500Y24601500D01*
X21703500Y37755500D02*
X21703500Y31771500D01*
X21563500Y30431500D02*
X21563500Y24507500D01*
X21563500Y37849500D02*
X21563500Y31925500D01*
X21423500Y30327500D02*
X21423500Y24416500D01*
X21423500Y37940500D02*
X21423500Y32029500D01*
X21283500Y30255500D02*
X21283500Y24330500D01*
X21283500Y38026500D02*
X21283500Y32101500D01*
X21143500Y30208500D02*
X21143500Y24247500D01*
X21143500Y38109500D02*
X21143500Y32148500D01*
X21003500Y30184500D02*
X21003500Y24168500D01*
X21003500Y38188500D02*
X21003500Y32172500D01*
X20863500Y30179500D02*
X20863500Y24093500D01*
X20863500Y38263500D02*
X20863500Y32177500D01*
X20723500Y30193500D02*
X20723500Y24021500D01*
X20723500Y38335500D02*
X20723500Y32163500D01*
X20583500Y30229500D02*
X20583500Y23953500D01*
X20583500Y38403500D02*
X20583500Y32127500D01*
X20443500Y30288500D02*
X20443500Y23888500D01*
X20443500Y38468500D02*
X20443500Y32068500D01*
X20303500Y30374500D02*
X20303500Y23826500D01*
X20303500Y38530500D02*
X20303500Y31982500D01*
X20163500Y30500500D02*
X20163500Y23768500D01*
X20163500Y38588500D02*
X20163500Y31856500D01*
X20023500Y30694500D02*
X20023500Y23712500D01*
X20023500Y38644500D02*
X20023500Y31662500D01*
X19883500Y38696500D02*
X19883500Y23660500D01*
X19743500Y38745500D02*
X19743500Y23611500D01*
X19603500Y38792500D02*
X19603500Y23564500D01*
X19463500Y38836500D02*
X19463500Y23520500D01*
X19323500Y38877500D02*
X19323500Y23479500D01*
X19183500Y38915500D02*
X19183500Y23441500D01*
X19043500Y38950500D02*
X19043500Y23406500D01*
X18903500Y38983500D02*
X18903500Y23373500D01*
X18763500Y39013500D02*
X18763500Y23343500D01*
X18623500Y39041500D02*
X18623500Y23315500D01*
X18483500Y39066500D02*
X18483500Y23290500D01*
X18343500Y39088500D02*
X18343500Y23268500D01*
X18203500Y39108500D02*
X18203500Y23248500D01*
X18063500Y39126500D02*
X18063500Y23230500D01*
X17923500Y39140500D02*
X17923500Y23216500D01*
X17783500Y39153500D02*
X17783500Y23203500D01*
X17643500Y39163500D02*
X17643500Y23193500D01*
X17503500Y39170500D02*
X17503500Y23186500D01*
X17363500Y39175500D02*
X17363500Y23181500D01*
X17223500Y39178500D02*
X17223500Y23178500D01*
X12446000Y3302000D02*
X9906000Y3302000D01*
X12446000Y8382000D02*
X12446000Y3302000D01*
X9906000Y8382000D02*
X12446000Y8382000D01*
X9906000Y3302000D02*
X9906000Y8382000D01*
X39981500Y22669500D02*
G75*
G03X39981500Y22669500I-8037500J0D01*
G01*
X36694000Y22669500D02*
G75*
G03X36694000Y22669500I-1000000J0D01*
G01*
X39859000Y23832500D02*
X39859000Y21506500D01*
X39719000Y24553500D02*
X39719000Y20785500D01*
X39579000Y25058500D02*
X39579000Y20280500D01*
X39439000Y25466500D02*
X39439000Y19872500D01*
X39299000Y25816500D02*
X39299000Y19522500D01*
X39159000Y26125500D02*
X39159000Y19213500D01*
X39019000Y26403500D02*
X39019000Y18935500D01*
X38879000Y26657500D02*
X38879000Y18681500D01*
X38739000Y26891500D02*
X38739000Y18447500D01*
X38599000Y27109500D02*
X38599000Y18229500D01*
X38459000Y27312500D02*
X38459000Y18026500D01*
X38319000Y27502500D02*
X38319000Y17836500D01*
X38179000Y27681500D02*
X38179000Y17657500D01*
X38039000Y27851500D02*
X38039000Y17487500D01*
X37899000Y28011500D02*
X37899000Y17327500D01*
X37759000Y28163500D02*
X37759000Y17175500D01*
X37619000Y28308500D02*
X37619000Y17030500D01*
X37479000Y28445500D02*
X37479000Y16893500D01*
X37339000Y28576500D02*
X37339000Y16762500D01*
X37199000Y28701500D02*
X37199000Y16637500D01*
X37059000Y28820500D02*
X37059000Y16518500D01*
X36919000Y28934500D02*
X36919000Y16404500D01*
X36779000Y29043500D02*
X36779000Y16295500D01*
X36639000Y22342500D02*
X36639000Y16192500D01*
X36639000Y29146500D02*
X36639000Y22996500D01*
X36499000Y22076500D02*
X36499000Y16092500D01*
X36499000Y29246500D02*
X36499000Y23262500D01*
X36359000Y21922500D02*
X36359000Y15998500D01*
X36359000Y29340500D02*
X36359000Y23416500D01*
X36219000Y21818500D02*
X36219000Y15907500D01*
X36219000Y29431500D02*
X36219000Y23520500D01*
X36079000Y21746500D02*
X36079000Y15821500D01*
X36079000Y29517500D02*
X36079000Y23592500D01*
X35939000Y21699500D02*
X35939000Y15738500D01*
X35939000Y29600500D02*
X35939000Y23639500D01*
X35799000Y21675500D02*
X35799000Y15659500D01*
X35799000Y29679500D02*
X35799000Y23663500D01*
X35659000Y21670500D02*
X35659000Y15584500D01*
X35659000Y29754500D02*
X35659000Y23668500D01*
X35519000Y21684500D02*
X35519000Y15512500D01*
X35519000Y29826500D02*
X35519000Y23654500D01*
X35379000Y21720500D02*
X35379000Y15444500D01*
X35379000Y29894500D02*
X35379000Y23618500D01*
X35239000Y21779500D02*
X35239000Y15379500D01*
X35239000Y29959500D02*
X35239000Y23559500D01*
X35099000Y21865500D02*
X35099000Y15317500D01*
X35099000Y30021500D02*
X35099000Y23473500D01*
X34959000Y21991500D02*
X34959000Y15259500D01*
X34959000Y30079500D02*
X34959000Y23347500D01*
X34819000Y22185500D02*
X34819000Y15203500D01*
X34819000Y30135500D02*
X34819000Y23153500D01*
X34679000Y30187500D02*
X34679000Y15151500D01*
X34539000Y30236500D02*
X34539000Y15102500D01*
X34399000Y30283500D02*
X34399000Y15055500D01*
X34259000Y30327500D02*
X34259000Y15011500D01*
X34119000Y30368500D02*
X34119000Y14970500D01*
X33979000Y30406500D02*
X33979000Y14932500D01*
X33839000Y30441500D02*
X33839000Y14897500D01*
X33699000Y30474500D02*
X33699000Y14864500D01*
X33559000Y30504500D02*
X33559000Y14834500D01*
X33419000Y30532500D02*
X33419000Y14806500D01*
X33279000Y30557500D02*
X33279000Y14781500D01*
X33139000Y30579500D02*
X33139000Y14759500D01*
X32999000Y30599500D02*
X32999000Y14739500D01*
X32859000Y30617500D02*
X32859000Y14721500D01*
X32719000Y30631500D02*
X32719000Y14707500D01*
X32579000Y30644500D02*
X32579000Y14694500D01*
X32439000Y30654500D02*
X32439000Y14684500D01*
X32299000Y30661500D02*
X32299000Y14677500D01*
X32159000Y30666500D02*
X32159000Y14672500D01*
X32019000Y30669500D02*
X32019000Y14669500D01*
X160000Y15581000D02*
X9160000Y15581000D01*
X9160000Y10581000D02*
X160000Y10581000D01*
X9160000Y15581000D02*
X15160000Y15581000D01*
X659900Y15081000D02*
X8659900Y15081000D01*
X11160000Y14581000D02*
X14160000Y14581000D01*
X9160000Y10581000D02*
X15160000Y10581000D01*
X659900Y11081000D02*
X8659900Y11081000D01*
X11160000Y11581000D02*
X14160000Y11581000D01*
X14160000Y15081000D02*
X17661000Y15081000D01*
X14660100Y14581000D02*
X17160000Y14581000D01*
X8659900Y14081000D02*
X9160000Y14081000D01*
X14160000Y11081000D02*
X17660100Y11081000D01*
X14660100Y11581000D02*
X17160000Y11581000D01*
X8659900Y12081000D02*
X9160000Y12081000D01*
X659900Y11081000D02*
X659900Y15081000D01*
X8659900Y15081000D02*
X8659900Y11081000D01*
X11160000Y11580900D02*
X11160000Y14581100D01*
X14160000Y15081000D02*
X14160000Y11081000D01*
X17660100Y15081000D02*
X17660100Y11081000D01*
X14660100Y11580000D02*
X14660100Y14582000D01*
X17160000Y11580000D02*
X17160000Y14582000D01*
X160000Y10580900D02*
X160000Y15581100D01*
X9160000Y10580900D02*
X9160000Y15581100D01*
X15160000Y15081000D02*
X15160000Y15581000D01*
X15160000Y10581000D02*
X15160000Y11081000D01*
X17526000Y3302000D02*
X14986000Y3302000D01*
X17526000Y8382000D02*
X17526000Y3302000D01*
X14986000Y8382000D02*
X17526000Y8382000D01*
X14986000Y3302000D02*
X14986000Y8382000D01*
X14986000Y3302000D02*
X12446000Y3302000D01*
X14986000Y8382000D02*
X14986000Y3302000D01*
X12446000Y8382000D02*
X14986000Y8382000D01*
X12446000Y3302000D02*
X12446000Y8382000D01*
X160000Y20534000D02*
X9160000Y20534000D01*
X9160000Y15534000D02*
X160000Y15534000D01*
X9160000Y20534000D02*
X15160000Y20534000D01*
X659900Y20034000D02*
X8659900Y20034000D01*
X11160000Y19534000D02*
X14160000Y19534000D01*
X9160000Y15534000D02*
X15160000Y15534000D01*
X659900Y16034000D02*
X8659900Y16034000D01*
X11160000Y16534000D02*
X14160000Y16534000D01*
X14160000Y20034000D02*
X17661000Y20034000D01*
X14660100Y19534000D02*
X17160000Y19534000D01*
X8659900Y19034000D02*
X9160000Y19034000D01*
X14160000Y16034000D02*
X17660100Y16034000D01*
X14660100Y16534000D02*
X17160000Y16534000D01*
X8659900Y17034000D02*
X9160000Y17034000D01*
X659900Y16034000D02*
X659900Y20034000D01*
X8659900Y20034000D02*
X8659900Y16034000D01*
X11160000Y16533900D02*
X11160000Y19534100D01*
X14160000Y20034000D02*
X14160000Y16034000D01*
X17660100Y20034000D02*
X17660100Y16034000D01*
X14660100Y16533000D02*
X14660100Y19535000D01*
X17160000Y16533000D02*
X17160000Y19535000D01*
X160000Y15533900D02*
X160000Y20534100D01*
X9160000Y15533900D02*
X9160000Y20534100D01*
X15160000Y20034000D02*
X15160000Y20534000D01*
X15160000Y15534000D02*
X15160000Y16034000D01*
X17526000Y3302000D02*
X17526000Y5842000D01*
X20066000Y3302000D02*
X17526000Y3302000D01*
X20066000Y5842000D02*
X20066000Y3302000D01*
X17526000Y5842000D02*
X20066000Y5842000D01*
X17526000Y5842000D02*
X17526000Y8382000D01*
X20066000Y5842000D02*
X17526000Y5842000D01*
X20066000Y8382000D02*
X20066000Y5842000D01*
X17526000Y8382000D02*
X20066000Y8382000D01*
X20066000Y5842000D02*
X20066000Y8382000D01*
X22606000Y5842000D02*
X20066000Y5842000D01*
X22606000Y8382000D02*
X22606000Y5842000D01*
X20066000Y8382000D02*
X22606000Y8382000D01*
X20066000Y3302000D02*
X20066000Y5842000D01*
X22606000Y3302000D02*
X20066000Y3302000D01*
X22606000Y5842000D02*
X22606000Y3302000D01*
X20066000Y5842000D02*
X22606000Y5842000D01*
X31750000Y12954000D02*
X31750000Y5334000D01*
X26670000Y12954000D02*
X31750000Y12954000D01*
X26670000Y5334000D02*
X26670000Y12954000D01*
X31750000Y5334000D02*
X26670000Y5334000D01*
X7493000Y30480000D02*
X7493000Y22860000D01*
X2413000Y30480000D02*
X7493000Y30480000D01*
X2413000Y22860000D02*
X2413000Y30480000D01*
X7493000Y22860000D02*
X2413000Y22860000D01*
X13549333Y34694857D02*
X13501714Y34647238D01*
X13358857Y34599619D01*
X13263619Y34599619D01*
X13120761Y34647238D01*
X13025523Y34742476D01*
X12977904Y34837714D01*
X12930285Y35028190D01*
X12930285Y35171047D01*
X12977904Y35361523D01*
X13025523Y35456761D01*
X13120761Y35552000D01*
X13263619Y35599619D01*
X13358857Y35599619D01*
X13501714Y35552000D01*
X13549333Y35504380D01*
X13930285Y35504380D02*
X13977904Y35552000D01*
X14073142Y35599619D01*
X14311238Y35599619D01*
X14406476Y35552000D01*
X14454095Y35504380D01*
X14501714Y35409142D01*
X14501714Y35313904D01*
X14454095Y35171047D01*
X13882666Y34599619D01*
X14501714Y34599619D01*
X12788971Y33382757D02*
X13931828Y33382757D01*
X13360400Y32811328D02*
X13360400Y33954185D01*
X28281333Y27328857D02*
X28233714Y27281238D01*
X28090857Y27233619D01*
X27995619Y27233619D01*
X27852761Y27281238D01*
X27757523Y27376476D01*
X27709904Y27471714D01*
X27662285Y27662190D01*
X27662285Y27805047D01*
X27709904Y27995523D01*
X27757523Y28090761D01*
X27852761Y28186000D01*
X27995619Y28233619D01*
X28090857Y28233619D01*
X28233714Y28186000D01*
X28281333Y28138380D01*
X28614666Y28233619D02*
X29233714Y28233619D01*
X28900380Y27852666D01*
X29043238Y27852666D01*
X29138476Y27805047D01*
X29186095Y27757428D01*
X29233714Y27662190D01*
X29233714Y27424095D01*
X29186095Y27328857D01*
X29138476Y27281238D01*
X29043238Y27233619D01*
X28757523Y27233619D01*
X28662285Y27281238D01*
X28614666Y27328857D01*
X27584471Y24873757D02*
X28727328Y24873757D01*
X28155900Y24302328D02*
X28155900Y25445185D01*
D14*
X943428Y11847285D02*
X2032000Y11847285D01*
X2249714Y11774714D01*
X2394857Y11629571D01*
X2467428Y11411857D01*
X2467428Y11266714D01*
X2467428Y13371285D02*
X2467428Y12500428D01*
X2467428Y12935857D02*
X943428Y12935857D01*
X1161142Y12790714D01*
X1306285Y12645571D01*
X1378857Y12500428D01*
X943428Y13879285D02*
X943428Y14822714D01*
X1524000Y14314714D01*
X1524000Y14532428D01*
X1596571Y14677571D01*
X1669142Y14750142D01*
X1814285Y14822714D01*
X2177142Y14822714D01*
X2322285Y14750142D01*
X2394857Y14677571D01*
X2467428Y14532428D01*
X2467428Y14097000D01*
X2394857Y13951857D01*
X2322285Y13879285D01*
X943428Y16800285D02*
X2032000Y16800285D01*
X2249714Y16727714D01*
X2394857Y16582571D01*
X2467428Y16364857D01*
X2467428Y16219714D01*
X2467428Y18324285D02*
X2467428Y17453428D01*
X2467428Y17888857D02*
X943428Y17888857D01*
X1161142Y17743714D01*
X1306285Y17598571D01*
X1378857Y17453428D01*
X1088571Y18904857D02*
X1016000Y18977428D01*
X943428Y19122571D01*
X943428Y19485428D01*
X1016000Y19630571D01*
X1088571Y19703142D01*
X1233714Y19775714D01*
X1378857Y19775714D01*
X1596571Y19703142D01*
X2467428Y18832285D01*
X2467428Y19775714D01*
D15*
X32273857Y6377809D02*
X31988142Y6377809D01*
X32131000Y6377809D02*
X32131000Y6877809D01*
X32083380Y6806380D01*
X32035761Y6758761D01*
X31988142Y6734952D01*
X8016857Y23903809D02*
X7731142Y23903809D01*
X7874000Y23903809D02*
X7874000Y24403809D01*
X7826380Y24332380D01*
X7778761Y24284761D01*
X7731142Y24260952D01*
M02*
