*
*
G04 PADS 9.5 Build Number: 522968 generated Gerber (RS-274-X) file*
G04 PC Version=2.1*
*
%IN "CLKDIV.pcb"*%
*
%MOIN*%
*
%FSLAX35Y35*%
*
*
*
*
G04 PC Standard Apertures*
*
*
G04 Thermal Relief Aperture macro.*
%AMTER*
1,1,$1,0,0*
1,0,$1-$2,0,0*
21,0,$3,$4,0,0,45*
21,0,$3,$4,0,0,135*
%
*
*
G04 Annular Aperture macro.*
%AMANN*
1,1,$1,0,0*
1,0,$2,0,0*
%
*
*
G04 Odd Aperture macro.*
%AMODD*
1,1,$1,0,0*
1,0,$1-0.005,0,0*
%
*
*
G04 PC Custom Aperture Macros*
*
*
*
*
*
*
G04 PC Aperture Table*
*
%ADD024C,0.001*%
%ADD031C,0.07*%
%ADD033C,0.24622*%
%ADD067O,0.05331X0.06118*%
%ADD068C,0.10843*%
%ADD069O,0.06118X0.05331*%
*
*
*
*
G04 PC Circuitry*
G04 Layer Name CLKDIV.pcb - circuitry*
%LPD*%
*
*
G04 PC Custom Flashes*
G04 Layer Name CLKDIV.pcb - flashes*
%LPD*%
*
*
G04 PC Circuitry*
G04 Layer Name CLKDIV.pcb - circuitry*
%LPD*%
*
G54D24*
G54D31*
G01X233000Y140200D03*
Y130200D03*
X223000Y140200D03*
Y130200D03*
X213000Y140200D03*
Y130200D03*
X172000Y239000D03*
Y229000D03*
X167500Y158000D03*
Y168000D03*
X192000Y249000D03*
X182000D03*
X187500Y148000D03*
X177500D03*
Y158000D03*
Y168000D03*
X187500Y158000D03*
Y168000D03*
X182000Y229000D03*
Y239000D03*
X192000Y229000D03*
Y239000D03*
X164500Y207000D03*
G54D33*
X260000Y260000D03*
Y140000D03*
X140000D03*
Y260000D03*
G54D67*
X223000Y238906D03*
X228000Y233000D03*
X233000D03*
X238000Y238906D03*
X243000Y233000D03*
X248000D03*
X253000Y238906D03*
X223000Y205906D03*
X228000Y200000D03*
X233000D03*
X238000Y205906D03*
X243000Y200000D03*
X248000D03*
X253000Y205906D03*
Y161094D03*
X248000Y167000D03*
X243000D03*
X238000Y161094D03*
X233000Y167000D03*
X228000D03*
X223000Y161094D03*
G54D68*
X263827Y229063D03*
X213315Y233000D03*
X263827Y196063D03*
X213315Y200000D03*
X212173Y170937D03*
X262685Y167000D03*
X143937Y225827D03*
X140000Y175315D03*
G54D69*
X134094Y185000D03*
X140000Y190000D03*
Y195000D03*
X134094Y200000D03*
X140000Y205000D03*
Y210000D03*
X134094Y215000D03*
X0Y0D02*
M02*
