G04 #@! TF.FileFunction,Copper,L1,Top,Signal*
%FSLAX46Y46*%
G04 Gerber Fmt 4.6, Leading zero omitted, Abs format (unit mm)*
G04 Created by KiCad (PCBNEW 4.0.1-3.201512221401+6198~38~ubuntu15.10.1-stable) date Út 19. leden 2016, 20:09:19 CET*
%MOMM*%
G01*
G04 APERTURE LIST*
%ADD10C,0.300000*%
%ADD11C,5.000000*%
%ADD12C,2.300000*%
%ADD13C,1.300000*%
%ADD14C,1.500000*%
%ADD15R,1.524000X1.524000*%
%ADD16C,6.000000*%
%ADD17C,0.600000*%
%ADD18C,0.900000*%
%ADD19C,0.500000*%
%ADD20C,0.400000*%
%ADD21C,0.254000*%
G04 APERTURE END LIST*
D10*
D11*
X13970000Y5842000D03*
X26670000Y5842000D03*
D12*
X28450000Y9272000D03*
X12190000Y9272000D03*
D13*
X17780000Y8382000D03*
X19810000Y8382000D03*
X21840000Y8382000D03*
X23870000Y8382000D03*
X16760000Y10162000D03*
X18790000Y10162000D03*
X20820000Y10162000D03*
X22850000Y10162000D03*
D14*
X27180000Y14982000D03*
X24890000Y14982000D03*
X15750000Y14982000D03*
X13460000Y14982000D03*
D15*
X35560000Y17526000D03*
X38100000Y17526000D03*
X35560000Y14986000D03*
X38100000Y14986000D03*
X35560000Y12446000D03*
X38100000Y12446000D03*
X35560000Y9906000D03*
X38100000Y9906000D03*
X14224000Y18034000D03*
X14224000Y20574000D03*
X16764000Y18034000D03*
X16764000Y20574000D03*
X19304000Y18034000D03*
X19304000Y20574000D03*
X21844000Y18034000D03*
X21844000Y20574000D03*
X24384000Y18034000D03*
X24384000Y20574000D03*
X26924000Y18034000D03*
X26924000Y20574000D03*
X35179000Y40259000D03*
X37719000Y40259000D03*
X35179000Y37719000D03*
X37719000Y37719000D03*
X35179000Y35179000D03*
X37719000Y35179000D03*
X28702000Y38989000D03*
X28702000Y36449000D03*
X14986000Y37084000D03*
X14986000Y39624000D03*
X14986000Y42164000D03*
X20828000Y45593000D03*
X20828000Y48133000D03*
X23368000Y45593000D03*
X23368000Y48133000D03*
X25908000Y45593000D03*
X25908000Y48133000D03*
X3746500Y35877500D03*
X6286500Y35877500D03*
X6286500Y38417500D03*
X3746500Y38417500D03*
X6223000Y21209000D03*
X3683000Y21209000D03*
X6223000Y13589000D03*
X3683000Y13589000D03*
X6223000Y16129000D03*
X3683000Y16129000D03*
X6223000Y18669000D03*
X3683000Y18669000D03*
X6223000Y11049000D03*
X3683000Y11049000D03*
D16*
X5080000Y45720000D03*
X35560000Y5080000D03*
X5080000Y5080000D03*
X35560000Y45720000D03*
D15*
X12446000Y37084000D03*
X12446000Y39624000D03*
X12446000Y42164000D03*
X33210500Y23177500D03*
X35750500Y23177500D03*
D17*
X13157200Y22275800D03*
X12390120Y20990560D03*
X23368000Y22034500D03*
X21844000Y22034500D03*
X16764000Y22034500D03*
X18478500Y22034500D03*
X12636500Y18478500D03*
X25273000Y12573000D03*
X15875000Y12827000D03*
X11303000Y13081000D03*
X15013002Y34417000D03*
X11303000Y24257000D03*
X10410237Y34613753D03*
X4826000Y24130000D03*
X5207000Y28575000D03*
X16540751Y29343754D03*
X11835683Y29967272D03*
X16581013Y28529385D03*
X12436723Y29366232D03*
X12265260Y28458937D03*
X20320000Y27730000D03*
X12161520Y27665680D03*
X20320000Y26880000D03*
X25797980Y27796020D03*
X12302020Y26335520D03*
X11700980Y25734480D03*
X26399020Y27194980D03*
X2286000Y26416000D03*
D18*
X33898000Y12446000D02*
X35560000Y12446000D01*
X32914001Y11462001D02*
X33898000Y12446000D01*
X22120001Y11462001D02*
X32914001Y11462001D01*
X20820000Y10162000D02*
X22120001Y11462001D01*
X35560000Y12446000D02*
X38100000Y12446000D01*
X35560000Y12446000D02*
X35560000Y14986000D01*
X35560000Y14986000D02*
X38100000Y14986000D01*
X35750500Y21515500D02*
X35750500Y23177500D01*
X33845500Y19610500D02*
X35750500Y21515500D01*
X33845500Y15494000D02*
X33845500Y19610500D01*
X34353500Y14986000D02*
X33845500Y15494000D01*
X35560000Y14986000D02*
X34353500Y14986000D01*
D10*
X12636500Y18478500D02*
X12636500Y21755100D01*
X12857201Y21975801D02*
X13157200Y22275800D01*
X12636500Y21755100D02*
X12857201Y21975801D01*
X21844000Y22034500D02*
X23368000Y22034500D01*
X18478500Y22034500D02*
X16764000Y22034500D01*
D19*
X25273000Y12573000D02*
X16129000Y12573000D01*
X16129000Y12573000D02*
X15875000Y12827000D01*
X11303000Y24257000D02*
X11303000Y13081000D01*
D18*
X11557000Y34417000D02*
X10505399Y33365399D01*
X10505399Y33365399D02*
X10505399Y25054601D01*
X10505399Y25054601D02*
X11303000Y24257000D01*
X15013002Y34417000D02*
X11557000Y34417000D01*
X17018000Y37746002D02*
X17018000Y36421998D01*
X17018000Y36421998D02*
X15013002Y34417000D01*
X14986000Y39624000D02*
X15140002Y39624000D01*
X15140002Y39624000D02*
X17018000Y37746002D01*
X9398000Y36730002D02*
X9398000Y34639640D01*
X9398000Y34639640D02*
X9398000Y24180691D01*
D19*
X10410237Y34613753D02*
X9423887Y34613753D01*
X9423887Y34613753D02*
X9398000Y34639640D01*
D18*
X9398000Y24180691D02*
X9398000Y17642000D01*
X4826000Y24130000D02*
X9347309Y24130000D01*
X9347309Y24130000D02*
X9398000Y24180691D01*
X9398000Y17642000D02*
X7885000Y16129000D01*
X7885000Y16129000D02*
X6223000Y16129000D01*
X12446000Y39624000D02*
X12291998Y39624000D01*
X12291998Y39624000D02*
X9398000Y36730002D01*
D20*
X5207000Y28575000D02*
X2413000Y28575000D01*
X2413000Y28575000D02*
X1585999Y27747999D01*
X1585999Y27747999D02*
X1585999Y10901999D01*
X1585999Y10901999D02*
X2835998Y9652000D01*
X2835998Y9652000D02*
X9398000Y9652000D01*
X9398000Y9652000D02*
X13577999Y13831999D01*
X13577999Y13831999D02*
X26029999Y13831999D01*
X26029999Y13831999D02*
X26430001Y14232001D01*
X26430001Y14232001D02*
X27180000Y14982000D01*
D10*
X11835683Y29967272D02*
X12135682Y30267271D01*
X16240752Y29643753D02*
X16540751Y29343754D01*
X12135682Y30267271D02*
X15617234Y30267271D01*
X15617234Y30267271D02*
X16240752Y29643753D01*
X12436723Y29366232D02*
X12818971Y29748480D01*
X12818971Y29748480D02*
X15209520Y29748480D01*
X15209520Y29748480D02*
X16428615Y28529385D01*
X16428615Y28529385D02*
X16581013Y28529385D01*
X20320000Y27730000D02*
X19895736Y27730000D01*
X13675360Y27086560D02*
X12302983Y28458937D01*
X19895736Y27730000D02*
X19252296Y27086560D01*
X12302983Y28458937D02*
X12265260Y28458937D01*
X19252296Y27086560D02*
X13675360Y27086560D01*
X12461519Y27365681D02*
X12161520Y27665680D01*
X20320000Y26880000D02*
X20020001Y26580001D01*
X20020001Y26580001D02*
X13247199Y26580001D01*
X13247199Y26580001D02*
X12461519Y27365681D01*
X25849021Y27847061D02*
X25797980Y27796020D01*
X12877408Y25548000D02*
X23762092Y25548000D01*
X23762092Y25548000D02*
X25797980Y27583888D01*
X25797980Y27583888D02*
X25797980Y27796020D01*
X12302020Y26335520D02*
X12302020Y26123388D01*
X12302020Y26123388D02*
X12877408Y25548000D01*
X26447981Y27484019D02*
X26399020Y27435058D01*
X26399020Y27435058D02*
X26399020Y27194980D01*
X12649592Y24998000D02*
X23989908Y24998000D01*
X11913112Y25734480D02*
X12649592Y24998000D01*
X11700980Y25734480D02*
X11913112Y25734480D01*
X23989908Y24998000D02*
X26186888Y27194980D01*
X26186888Y27194980D02*
X26399020Y27194980D01*
D20*
X2286000Y26416000D02*
X2286000Y13824000D01*
X2286000Y13824000D02*
X2521000Y13589000D01*
X2521000Y13589000D02*
X3683000Y13589000D01*
D21*
G36*
X40009000Y631000D02*
X631000Y631000D01*
X631000Y8188515D01*
X16802830Y8188515D01*
X16951256Y7829297D01*
X17225851Y7554222D01*
X17584810Y7405170D01*
X17973485Y7404830D01*
X18332703Y7553256D01*
X18607778Y7827851D01*
X18756830Y8186810D01*
X18756831Y8188515D01*
X20862830Y8188515D01*
X21011256Y7829297D01*
X21285851Y7554222D01*
X21644810Y7405170D01*
X22033485Y7404830D01*
X22392703Y7553256D01*
X22667778Y7827851D01*
X22816830Y8186810D01*
X22816831Y8188515D01*
X22892830Y8188515D01*
X23041256Y7829297D01*
X23315851Y7554222D01*
X23674810Y7405170D01*
X24063485Y7404830D01*
X24422703Y7553256D01*
X24697778Y7827851D01*
X24846830Y8186810D01*
X24847170Y8575485D01*
X24698744Y8934703D01*
X24424149Y9209778D01*
X24065190Y9358830D01*
X23676515Y9359170D01*
X23317297Y9210744D01*
X23042222Y8936149D01*
X22893170Y8577190D01*
X22892830Y8188515D01*
X22816831Y8188515D01*
X22817170Y8575485D01*
X22668744Y8934703D01*
X22394149Y9209778D01*
X22035190Y9358830D01*
X21646515Y9359170D01*
X21287297Y9210744D01*
X21012222Y8936149D01*
X20863170Y8577190D01*
X20862830Y8188515D01*
X18756831Y8188515D01*
X18757170Y8575485D01*
X18608744Y8934703D01*
X18334149Y9209778D01*
X17975190Y9358830D01*
X17586515Y9359170D01*
X17227297Y9210744D01*
X16952222Y8936149D01*
X16803170Y8577190D01*
X16802830Y8188515D01*
X631000Y8188515D01*
X631000Y27747999D01*
X1058999Y27747999D01*
X1058999Y10901999D01*
X1099114Y10700324D01*
X1213354Y10529354D01*
X2463353Y9279354D01*
X2634324Y9165115D01*
X2835998Y9125000D01*
X9398000Y9125000D01*
X9599675Y9165115D01*
X9770645Y9279355D01*
X10459805Y9968515D01*
X15782830Y9968515D01*
X15931256Y9609297D01*
X16205851Y9334222D01*
X16564810Y9185170D01*
X16953485Y9184830D01*
X17312703Y9333256D01*
X17587778Y9607851D01*
X17736830Y9966810D01*
X17736831Y9968515D01*
X17812830Y9968515D01*
X17961256Y9609297D01*
X18235851Y9334222D01*
X18594810Y9185170D01*
X18983485Y9184830D01*
X19342703Y9333256D01*
X19617778Y9607851D01*
X19766830Y9966810D01*
X19767170Y10355485D01*
X19618744Y10714703D01*
X19344149Y10989778D01*
X18985190Y11138830D01*
X18596515Y11139170D01*
X18237297Y10990744D01*
X17962222Y10716149D01*
X17813170Y10357190D01*
X17812830Y9968515D01*
X17736831Y9968515D01*
X17737170Y10355485D01*
X17588744Y10714703D01*
X17314149Y10989778D01*
X16955190Y11138830D01*
X16566515Y11139170D01*
X16207297Y10990744D01*
X15932222Y10716149D01*
X15783170Y10357190D01*
X15782830Y9968515D01*
X10459805Y9968515D01*
X13796289Y13304999D01*
X15466347Y13304999D01*
X15343765Y13182631D01*
X15248109Y12952265D01*
X15247891Y12702829D01*
X15343145Y12472297D01*
X15519369Y12295765D01*
X15640554Y12245445D01*
X15720997Y12165002D01*
X15720999Y12164999D01*
X15905434Y12041765D01*
X15908192Y12039922D01*
X16129000Y11996000D01*
X21555156Y11996000D01*
X20698263Y11139107D01*
X20626515Y11139170D01*
X20267297Y10990744D01*
X19992222Y10716149D01*
X19843170Y10357190D01*
X19842830Y9968515D01*
X19991256Y9609297D01*
X20265851Y9334222D01*
X20624810Y9185170D01*
X21013485Y9184830D01*
X21372703Y9333256D01*
X21647778Y9607851D01*
X21796830Y9966810D01*
X21796894Y10040050D01*
X21872959Y10116115D01*
X21872830Y9968515D01*
X22021256Y9609297D01*
X22295851Y9334222D01*
X22654810Y9185170D01*
X23043485Y9184830D01*
X23402703Y9333256D01*
X23677778Y9607851D01*
X23826830Y9966810D01*
X23827170Y10355485D01*
X23691017Y10685001D01*
X32914001Y10685001D01*
X33211346Y10744147D01*
X33463423Y10912579D01*
X34219844Y11669000D01*
X34467416Y11669000D01*
X34487395Y11562821D01*
X34559012Y11451526D01*
X34668286Y11376862D01*
X34798000Y11350594D01*
X36322000Y11350594D01*
X36443179Y11373395D01*
X36554474Y11445012D01*
X36629138Y11554286D01*
X36652368Y11669000D01*
X37007416Y11669000D01*
X37027395Y11562821D01*
X37099012Y11451526D01*
X37208286Y11376862D01*
X37338000Y11350594D01*
X38862000Y11350594D01*
X38983179Y11373395D01*
X39094474Y11445012D01*
X39169138Y11554286D01*
X39195406Y11684000D01*
X39195406Y13208000D01*
X39172605Y13329179D01*
X39100988Y13440474D01*
X38991714Y13515138D01*
X38862000Y13541406D01*
X37338000Y13541406D01*
X37216821Y13518605D01*
X37105526Y13446988D01*
X37030862Y13337714D01*
X37007632Y13223000D01*
X36652584Y13223000D01*
X36632605Y13329179D01*
X36560988Y13440474D01*
X36451714Y13515138D01*
X36337000Y13538368D01*
X36337000Y13893416D01*
X36443179Y13913395D01*
X36554474Y13985012D01*
X36629138Y14094286D01*
X36652368Y14209000D01*
X37007416Y14209000D01*
X37027395Y14102821D01*
X37099012Y13991526D01*
X37208286Y13916862D01*
X37338000Y13890594D01*
X38862000Y13890594D01*
X38983179Y13913395D01*
X39094474Y13985012D01*
X39169138Y14094286D01*
X39195406Y14224000D01*
X39195406Y15748000D01*
X39172605Y15869179D01*
X39100988Y15980474D01*
X38991714Y16055138D01*
X38862000Y16081406D01*
X37338000Y16081406D01*
X37216821Y16058605D01*
X37105526Y15986988D01*
X37030862Y15877714D01*
X37007632Y15763000D01*
X36652584Y15763000D01*
X36632605Y15869179D01*
X36560988Y15980474D01*
X36451714Y16055138D01*
X36322000Y16081406D01*
X34798000Y16081406D01*
X34676821Y16058605D01*
X34622500Y16023650D01*
X34622500Y19288656D01*
X36299922Y20966078D01*
X36468354Y21218155D01*
X36527500Y21515500D01*
X36527500Y22084916D01*
X36633679Y22104895D01*
X36744974Y22176512D01*
X36819638Y22285786D01*
X36845906Y22415500D01*
X36845906Y23939500D01*
X36823105Y24060679D01*
X36751488Y24171974D01*
X36642214Y24246638D01*
X36512500Y24272906D01*
X34988500Y24272906D01*
X34867321Y24250105D01*
X34756026Y24178488D01*
X34681362Y24069214D01*
X34655094Y23939500D01*
X34655094Y22415500D01*
X34677895Y22294321D01*
X34749512Y22183026D01*
X34858786Y22108362D01*
X34973500Y22085132D01*
X34973500Y21837344D01*
X33296078Y20159922D01*
X33127646Y19907845D01*
X33068500Y19610500D01*
X33068500Y15494000D01*
X33127646Y15196655D01*
X33296078Y14944578D01*
X33804078Y14436578D01*
X34056155Y14268146D01*
X34353500Y14209000D01*
X34467416Y14209000D01*
X34487395Y14102821D01*
X34559012Y13991526D01*
X34668286Y13916862D01*
X34783000Y13893632D01*
X34783000Y13538584D01*
X34676821Y13518605D01*
X34565526Y13446988D01*
X34490862Y13337714D01*
X34467632Y13223000D01*
X33898000Y13223000D01*
X33600655Y13163854D01*
X33348578Y12995422D01*
X32592157Y12239001D01*
X25813217Y12239001D01*
X25899891Y12447735D01*
X25900109Y12697171D01*
X25804855Y12927703D01*
X25628631Y13104235D01*
X25398265Y13199891D01*
X25148829Y13200109D01*
X25027556Y13150000D01*
X16419954Y13150000D01*
X16406855Y13181703D01*
X16283774Y13304999D01*
X26029999Y13304999D01*
X26231674Y13345114D01*
X26402644Y13459354D01*
X26882616Y13939326D01*
X26964832Y13905187D01*
X27393289Y13904813D01*
X27789275Y14068431D01*
X28092504Y14371132D01*
X28256813Y14766832D01*
X28257187Y15195289D01*
X28093569Y15591275D01*
X27790868Y15894504D01*
X27395168Y16058813D01*
X26966711Y16059187D01*
X26570725Y15895569D01*
X26267496Y15592868D01*
X26103187Y15197168D01*
X26102813Y14768711D01*
X26137492Y14684782D01*
X25811709Y14358999D01*
X25790350Y14358999D01*
X25802504Y14371132D01*
X25966813Y14766832D01*
X25967187Y15195289D01*
X25803569Y15591275D01*
X25500868Y15894504D01*
X25105168Y16058813D01*
X24676711Y16059187D01*
X24280725Y15895569D01*
X23977496Y15592868D01*
X23813187Y15197168D01*
X23812813Y14768711D01*
X23976431Y14372725D01*
X23990133Y14358999D01*
X16650350Y14358999D01*
X16662504Y14371132D01*
X16826813Y14766832D01*
X16827187Y15195289D01*
X16663569Y15591275D01*
X16360868Y15894504D01*
X15965168Y16058813D01*
X15536711Y16059187D01*
X15140725Y15895569D01*
X14837496Y15592868D01*
X14673187Y15197168D01*
X14672813Y14768711D01*
X14836431Y14372725D01*
X14850133Y14358999D01*
X14360350Y14358999D01*
X14372504Y14371132D01*
X14536813Y14766832D01*
X14537187Y15195289D01*
X14373569Y15591275D01*
X14070868Y15894504D01*
X13675168Y16058813D01*
X13246711Y16059187D01*
X12850725Y15895569D01*
X12547496Y15592868D01*
X12383187Y15197168D01*
X12382813Y14768711D01*
X12546431Y14372725D01*
X12849132Y14069496D01*
X13005342Y14004632D01*
X11911035Y12910325D01*
X11929891Y12955735D01*
X11930109Y13205171D01*
X11880000Y13326444D01*
X11880000Y18796000D01*
X13128594Y18796000D01*
X13128594Y17272000D01*
X13151395Y17150821D01*
X13223012Y17039526D01*
X13332286Y16964862D01*
X13462000Y16938594D01*
X14986000Y16938594D01*
X15107179Y16961395D01*
X15218474Y17033012D01*
X15293138Y17142286D01*
X15319406Y17272000D01*
X15319406Y18796000D01*
X15668594Y18796000D01*
X15668594Y17272000D01*
X15691395Y17150821D01*
X15763012Y17039526D01*
X15872286Y16964862D01*
X16002000Y16938594D01*
X17526000Y16938594D01*
X17647179Y16961395D01*
X17758474Y17033012D01*
X17833138Y17142286D01*
X17859406Y17272000D01*
X17859406Y18796000D01*
X18208594Y18796000D01*
X18208594Y17272000D01*
X18231395Y17150821D01*
X18303012Y17039526D01*
X18412286Y16964862D01*
X18542000Y16938594D01*
X20066000Y16938594D01*
X20187179Y16961395D01*
X20298474Y17033012D01*
X20373138Y17142286D01*
X20399406Y17272000D01*
X20399406Y18796000D01*
X20748594Y18796000D01*
X20748594Y17272000D01*
X20771395Y17150821D01*
X20843012Y17039526D01*
X20952286Y16964862D01*
X21082000Y16938594D01*
X22606000Y16938594D01*
X22727179Y16961395D01*
X22838474Y17033012D01*
X22913138Y17142286D01*
X22939406Y17272000D01*
X22939406Y18796000D01*
X23288594Y18796000D01*
X23288594Y17272000D01*
X23311395Y17150821D01*
X23383012Y17039526D01*
X23492286Y16964862D01*
X23622000Y16938594D01*
X25146000Y16938594D01*
X25267179Y16961395D01*
X25378474Y17033012D01*
X25453138Y17142286D01*
X25479406Y17272000D01*
X25479406Y18796000D01*
X25828594Y18796000D01*
X25828594Y17272000D01*
X25851395Y17150821D01*
X25923012Y17039526D01*
X26032286Y16964862D01*
X26162000Y16938594D01*
X27686000Y16938594D01*
X27807179Y16961395D01*
X27918474Y17033012D01*
X27993138Y17142286D01*
X28019406Y17272000D01*
X28019406Y18796000D01*
X27996605Y18917179D01*
X27924988Y19028474D01*
X27815714Y19103138D01*
X27686000Y19129406D01*
X26162000Y19129406D01*
X26040821Y19106605D01*
X25929526Y19034988D01*
X25854862Y18925714D01*
X25828594Y18796000D01*
X25479406Y18796000D01*
X25456605Y18917179D01*
X25384988Y19028474D01*
X25275714Y19103138D01*
X25146000Y19129406D01*
X23622000Y19129406D01*
X23500821Y19106605D01*
X23389526Y19034988D01*
X23314862Y18925714D01*
X23288594Y18796000D01*
X22939406Y18796000D01*
X22916605Y18917179D01*
X22844988Y19028474D01*
X22735714Y19103138D01*
X22606000Y19129406D01*
X21082000Y19129406D01*
X20960821Y19106605D01*
X20849526Y19034988D01*
X20774862Y18925714D01*
X20748594Y18796000D01*
X20399406Y18796000D01*
X20376605Y18917179D01*
X20304988Y19028474D01*
X20195714Y19103138D01*
X20066000Y19129406D01*
X18542000Y19129406D01*
X18420821Y19106605D01*
X18309526Y19034988D01*
X18234862Y18925714D01*
X18208594Y18796000D01*
X17859406Y18796000D01*
X17836605Y18917179D01*
X17764988Y19028474D01*
X17655714Y19103138D01*
X17526000Y19129406D01*
X16002000Y19129406D01*
X15880821Y19106605D01*
X15769526Y19034988D01*
X15694862Y18925714D01*
X15668594Y18796000D01*
X15319406Y18796000D01*
X15296605Y18917179D01*
X15224988Y19028474D01*
X15115714Y19103138D01*
X14986000Y19129406D01*
X13462000Y19129406D01*
X13340821Y19106605D01*
X13229526Y19034988D01*
X13154862Y18925714D01*
X13128594Y18796000D01*
X11880000Y18796000D01*
X11880000Y21336000D01*
X13128594Y21336000D01*
X13128594Y19812000D01*
X13151395Y19690821D01*
X13223012Y19579526D01*
X13332286Y19504862D01*
X13462000Y19478594D01*
X14986000Y19478594D01*
X15107179Y19501395D01*
X15218474Y19573012D01*
X15293138Y19682286D01*
X15319406Y19812000D01*
X15319406Y21336000D01*
X15668594Y21336000D01*
X15668594Y19812000D01*
X15691395Y19690821D01*
X15763012Y19579526D01*
X15872286Y19504862D01*
X16002000Y19478594D01*
X17526000Y19478594D01*
X17647179Y19501395D01*
X17758474Y19573012D01*
X17833138Y19682286D01*
X17859406Y19812000D01*
X17859406Y21336000D01*
X18208594Y21336000D01*
X18208594Y19812000D01*
X18231395Y19690821D01*
X18303012Y19579526D01*
X18412286Y19504862D01*
X18542000Y19478594D01*
X20066000Y19478594D01*
X20187179Y19501395D01*
X20298474Y19573012D01*
X20373138Y19682286D01*
X20399406Y19812000D01*
X20399406Y21336000D01*
X20748594Y21336000D01*
X20748594Y19812000D01*
X20771395Y19690821D01*
X20843012Y19579526D01*
X20952286Y19504862D01*
X21082000Y19478594D01*
X22606000Y19478594D01*
X22727179Y19501395D01*
X22838474Y19573012D01*
X22913138Y19682286D01*
X22939406Y19812000D01*
X22939406Y21336000D01*
X23288594Y21336000D01*
X23288594Y19812000D01*
X23311395Y19690821D01*
X23383012Y19579526D01*
X23492286Y19504862D01*
X23622000Y19478594D01*
X25146000Y19478594D01*
X25267179Y19501395D01*
X25378474Y19573012D01*
X25453138Y19682286D01*
X25479406Y19812000D01*
X25479406Y21336000D01*
X25828594Y21336000D01*
X25828594Y19812000D01*
X25851395Y19690821D01*
X25923012Y19579526D01*
X26032286Y19504862D01*
X26162000Y19478594D01*
X27686000Y19478594D01*
X27807179Y19501395D01*
X27918474Y19573012D01*
X27993138Y19682286D01*
X28019406Y19812000D01*
X28019406Y21336000D01*
X27996605Y21457179D01*
X27924988Y21568474D01*
X27815714Y21643138D01*
X27686000Y21669406D01*
X26162000Y21669406D01*
X26040821Y21646605D01*
X25929526Y21574988D01*
X25854862Y21465714D01*
X25828594Y21336000D01*
X25479406Y21336000D01*
X25456605Y21457179D01*
X25384988Y21568474D01*
X25275714Y21643138D01*
X25146000Y21669406D01*
X23622000Y21669406D01*
X23500821Y21646605D01*
X23389526Y21574988D01*
X23314862Y21465714D01*
X23288594Y21336000D01*
X22939406Y21336000D01*
X22916605Y21457179D01*
X22844988Y21568474D01*
X22735714Y21643138D01*
X22606000Y21669406D01*
X21082000Y21669406D01*
X20960821Y21646605D01*
X20849526Y21574988D01*
X20774862Y21465714D01*
X20748594Y21336000D01*
X20399406Y21336000D01*
X20376605Y21457179D01*
X20304988Y21568474D01*
X20195714Y21643138D01*
X20066000Y21669406D01*
X18542000Y21669406D01*
X18420821Y21646605D01*
X18309526Y21574988D01*
X18234862Y21465714D01*
X18208594Y21336000D01*
X17859406Y21336000D01*
X17836605Y21457179D01*
X17764988Y21568474D01*
X17655714Y21643138D01*
X17526000Y21669406D01*
X16002000Y21669406D01*
X15880821Y21646605D01*
X15769526Y21574988D01*
X15694862Y21465714D01*
X15668594Y21336000D01*
X15319406Y21336000D01*
X15296605Y21457179D01*
X15224988Y21568474D01*
X15115714Y21643138D01*
X14986000Y21669406D01*
X13462000Y21669406D01*
X13340821Y21646605D01*
X13229526Y21574988D01*
X13154862Y21465714D01*
X13128594Y21336000D01*
X11880000Y21336000D01*
X11880000Y23748852D01*
X12007386Y23939500D01*
X32115094Y23939500D01*
X32115094Y22415500D01*
X32137895Y22294321D01*
X32209512Y22183026D01*
X32318786Y22108362D01*
X32448500Y22082094D01*
X33972500Y22082094D01*
X34093679Y22104895D01*
X34204974Y22176512D01*
X34279638Y22285786D01*
X34305906Y22415500D01*
X34305906Y23939500D01*
X34283105Y24060679D01*
X34211488Y24171974D01*
X34102214Y24246638D01*
X33972500Y24272906D01*
X32448500Y24272906D01*
X32327321Y24250105D01*
X32216026Y24178488D01*
X32141362Y24069214D01*
X32115094Y23939500D01*
X12007386Y23939500D01*
X12020854Y23959655D01*
X12080000Y24257000D01*
X12020854Y24554345D01*
X11852422Y24806422D01*
X11533886Y25124958D01*
X11575715Y25107589D01*
X11825151Y25107371D01*
X11853802Y25119210D01*
X12312302Y24660710D01*
X12467052Y24557309D01*
X12649592Y24521000D01*
X23989908Y24521000D01*
X24172448Y24557309D01*
X24327198Y24660710D01*
X26246072Y26579584D01*
X26273755Y26568089D01*
X26523191Y26567871D01*
X26753723Y26663125D01*
X26930255Y26839349D01*
X27025911Y27069715D01*
X27026129Y27319151D01*
X26930875Y27549683D01*
X26907203Y27573396D01*
X26888672Y27666559D01*
X26785271Y27821309D01*
X26630521Y27924710D01*
X26447981Y27961019D01*
X26411239Y27953711D01*
X26329835Y28150723D01*
X26153611Y28327255D01*
X25923245Y28422911D01*
X25673809Y28423129D01*
X25443277Y28327875D01*
X25266745Y28151651D01*
X25171089Y27921285D01*
X25170871Y27671849D01*
X25182710Y27643198D01*
X23564512Y26025000D01*
X13074988Y26025000D01*
X12917416Y26182572D01*
X12928911Y26210255D01*
X12928928Y26230003D01*
X13064658Y26139310D01*
X13247199Y26103001D01*
X20020001Y26103001D01*
X20202541Y26139310D01*
X20357291Y26242711D01*
X20367538Y26252958D01*
X20444171Y26252891D01*
X20674703Y26348145D01*
X20851235Y26524369D01*
X20946891Y26754735D01*
X20947109Y27004171D01*
X20851855Y27234703D01*
X20781713Y27304968D01*
X20851235Y27374369D01*
X20946891Y27604735D01*
X20947109Y27854171D01*
X20851855Y28084703D01*
X20675631Y28261235D01*
X20445265Y28356891D01*
X20195829Y28357109D01*
X19965297Y28261855D01*
X19910346Y28207000D01*
X19895736Y28207000D01*
X19713196Y28170691D01*
X19558446Y28067290D01*
X19054716Y27563560D01*
X13872940Y27563560D01*
X12892335Y28544165D01*
X12892369Y28583108D01*
X12797115Y28813640D01*
X12780798Y28829986D01*
X12791426Y28834377D01*
X12967958Y29010601D01*
X13063614Y29240967D01*
X13063641Y29271480D01*
X15011940Y29271480D01*
X16007206Y28276214D01*
X16049158Y28174682D01*
X16225382Y27998150D01*
X16455748Y27902494D01*
X16705184Y27902276D01*
X16935716Y27997530D01*
X17112248Y28173754D01*
X17207904Y28404120D01*
X17208122Y28653556D01*
X17112868Y28884088D01*
X17040445Y28956637D01*
X17071986Y28988123D01*
X17167642Y29218489D01*
X17167860Y29467925D01*
X17072606Y29698457D01*
X16896382Y29874989D01*
X16666016Y29970645D01*
X16588372Y29970713D01*
X15954524Y30604561D01*
X15799774Y30707962D01*
X15617234Y30744271D01*
X12135682Y30744271D01*
X11953142Y30707962D01*
X11798392Y30604561D01*
X11788145Y30594314D01*
X11711512Y30594381D01*
X11480980Y30499127D01*
X11304448Y30322903D01*
X11282399Y30269803D01*
X11282399Y33043555D01*
X11878844Y33640000D01*
X15013002Y33640000D01*
X15310347Y33699146D01*
X15562424Y33867578D01*
X17567422Y35872576D01*
X17735854Y36124653D01*
X17795000Y36421998D01*
X17795000Y37211000D01*
X27606594Y37211000D01*
X27606594Y35687000D01*
X27629395Y35565821D01*
X27701012Y35454526D01*
X27810286Y35379862D01*
X27940000Y35353594D01*
X29464000Y35353594D01*
X29585179Y35376395D01*
X29696474Y35448012D01*
X29771138Y35557286D01*
X29797406Y35687000D01*
X29797406Y37211000D01*
X29774605Y37332179D01*
X29702988Y37443474D01*
X29593714Y37518138D01*
X29464000Y37544406D01*
X27940000Y37544406D01*
X27818821Y37521605D01*
X27707526Y37449988D01*
X27632862Y37340714D01*
X27606594Y37211000D01*
X17795000Y37211000D01*
X17795000Y37746002D01*
X17735854Y38043347D01*
X17567422Y38295424D01*
X16111846Y39751000D01*
X27606594Y39751000D01*
X27606594Y38227000D01*
X27629395Y38105821D01*
X27701012Y37994526D01*
X27810286Y37919862D01*
X27940000Y37893594D01*
X29464000Y37893594D01*
X29585179Y37916395D01*
X29696474Y37988012D01*
X29771138Y38097286D01*
X29797406Y38227000D01*
X29797406Y38481000D01*
X34083594Y38481000D01*
X34083594Y36957000D01*
X34106395Y36835821D01*
X34178012Y36724526D01*
X34287286Y36649862D01*
X34417000Y36623594D01*
X35941000Y36623594D01*
X36062179Y36646395D01*
X36173474Y36718012D01*
X36248138Y36827286D01*
X36274406Y36957000D01*
X36274406Y38481000D01*
X36623594Y38481000D01*
X36623594Y36957000D01*
X36646395Y36835821D01*
X36718012Y36724526D01*
X36827286Y36649862D01*
X36957000Y36623594D01*
X38481000Y36623594D01*
X38602179Y36646395D01*
X38713474Y36718012D01*
X38788138Y36827286D01*
X38814406Y36957000D01*
X38814406Y38481000D01*
X38791605Y38602179D01*
X38719988Y38713474D01*
X38610714Y38788138D01*
X38481000Y38814406D01*
X36957000Y38814406D01*
X36835821Y38791605D01*
X36724526Y38719988D01*
X36649862Y38610714D01*
X36623594Y38481000D01*
X36274406Y38481000D01*
X36251605Y38602179D01*
X36179988Y38713474D01*
X36070714Y38788138D01*
X35941000Y38814406D01*
X34417000Y38814406D01*
X34295821Y38791605D01*
X34184526Y38719988D01*
X34109862Y38610714D01*
X34083594Y38481000D01*
X29797406Y38481000D01*
X29797406Y39751000D01*
X29774605Y39872179D01*
X29702988Y39983474D01*
X29593714Y40058138D01*
X29464000Y40084406D01*
X27940000Y40084406D01*
X27818821Y40061605D01*
X27707526Y39989988D01*
X27632862Y39880714D01*
X27606594Y39751000D01*
X16111846Y39751000D01*
X16081406Y39781440D01*
X16081406Y40386000D01*
X16058605Y40507179D01*
X15986988Y40618474D01*
X15877714Y40693138D01*
X15748000Y40719406D01*
X14224000Y40719406D01*
X14102821Y40696605D01*
X13991526Y40624988D01*
X13916862Y40515714D01*
X13890594Y40386000D01*
X13890594Y38862000D01*
X13913395Y38740821D01*
X13985012Y38629526D01*
X14094286Y38554862D01*
X14224000Y38528594D01*
X15136564Y38528594D01*
X15485752Y38179406D01*
X14224000Y38179406D01*
X14102821Y38156605D01*
X13991526Y38084988D01*
X13916862Y37975714D01*
X13890594Y37846000D01*
X13890594Y36322000D01*
X13913395Y36200821D01*
X13985012Y36089526D01*
X14094286Y36014862D01*
X14224000Y35988594D01*
X15485752Y35988594D01*
X14691158Y35194000D01*
X11557000Y35194000D01*
X11259655Y35134854D01*
X11007578Y34966422D01*
X10961834Y34920678D01*
X10942092Y34968456D01*
X10765868Y35144988D01*
X10535502Y35240644D01*
X10286066Y35240862D01*
X10175000Y35194970D01*
X10175000Y36408158D01*
X11350594Y37583752D01*
X11350594Y36322000D01*
X11373395Y36200821D01*
X11445012Y36089526D01*
X11554286Y36014862D01*
X11684000Y35988594D01*
X13208000Y35988594D01*
X13329179Y36011395D01*
X13440474Y36083012D01*
X13515138Y36192286D01*
X13541406Y36322000D01*
X13541406Y37846000D01*
X13518605Y37967179D01*
X13446988Y38078474D01*
X13337714Y38153138D01*
X13208000Y38179406D01*
X11946248Y38179406D01*
X12295436Y38528594D01*
X13208000Y38528594D01*
X13329179Y38551395D01*
X13440474Y38623012D01*
X13515138Y38732286D01*
X13541406Y38862000D01*
X13541406Y40386000D01*
X13518605Y40507179D01*
X13446988Y40618474D01*
X13337714Y40693138D01*
X13208000Y40719406D01*
X11684000Y40719406D01*
X11562821Y40696605D01*
X11451526Y40624988D01*
X11376862Y40515714D01*
X11350594Y40386000D01*
X11350594Y39781440D01*
X8848578Y37279424D01*
X8680146Y37027347D01*
X8621000Y36730002D01*
X8621000Y24907000D01*
X4826000Y24907000D01*
X4528655Y24847854D01*
X4276578Y24679422D01*
X4108146Y24427345D01*
X4049000Y24130000D01*
X4108146Y23832655D01*
X4276578Y23580578D01*
X4528655Y23412146D01*
X4826000Y23353000D01*
X8621000Y23353000D01*
X8621000Y17963844D01*
X7563156Y16906000D01*
X7315584Y16906000D01*
X7295605Y17012179D01*
X7223988Y17123474D01*
X7114714Y17198138D01*
X6985000Y17224406D01*
X5461000Y17224406D01*
X5339821Y17201605D01*
X5228526Y17129988D01*
X5153862Y17020714D01*
X5127594Y16891000D01*
X5127594Y15367000D01*
X5150395Y15245821D01*
X5222012Y15134526D01*
X5331286Y15059862D01*
X5461000Y15033594D01*
X6985000Y15033594D01*
X7106179Y15056395D01*
X7217474Y15128012D01*
X7292138Y15237286D01*
X7315368Y15352000D01*
X7885000Y15352000D01*
X8182345Y15411146D01*
X8434422Y15579578D01*
X9947422Y17092578D01*
X10115854Y17344655D01*
X10175000Y17642000D01*
X10175000Y24286156D01*
X10726000Y23735156D01*
X10726000Y13326416D01*
X10676109Y13206265D01*
X10675891Y12956829D01*
X10771145Y12726297D01*
X10947369Y12549765D01*
X11177735Y12454109D01*
X11427171Y12453891D01*
X11473915Y12473205D01*
X9179710Y10179000D01*
X3054289Y10179000D01*
X2112999Y11120289D01*
X2112999Y13251711D01*
X2148355Y13216355D01*
X2319325Y13102115D01*
X2352785Y13095460D01*
X2521000Y13062000D01*
X2587594Y13062000D01*
X2587594Y12827000D01*
X2610395Y12705821D01*
X2682012Y12594526D01*
X2791286Y12519862D01*
X2921000Y12493594D01*
X4445000Y12493594D01*
X4566179Y12516395D01*
X4677474Y12588012D01*
X4752138Y12697286D01*
X4778406Y12827000D01*
X4778406Y14351000D01*
X5127594Y14351000D01*
X5127594Y12827000D01*
X5150395Y12705821D01*
X5222012Y12594526D01*
X5331286Y12519862D01*
X5461000Y12493594D01*
X6985000Y12493594D01*
X7106179Y12516395D01*
X7217474Y12588012D01*
X7292138Y12697286D01*
X7318406Y12827000D01*
X7318406Y14351000D01*
X7295605Y14472179D01*
X7223988Y14583474D01*
X7114714Y14658138D01*
X6985000Y14684406D01*
X5461000Y14684406D01*
X5339821Y14661605D01*
X5228526Y14589988D01*
X5153862Y14480714D01*
X5127594Y14351000D01*
X4778406Y14351000D01*
X4755605Y14472179D01*
X4683988Y14583474D01*
X4574714Y14658138D01*
X4445000Y14684406D01*
X2921000Y14684406D01*
X2813000Y14664085D01*
X2813000Y15055465D01*
X2921000Y15033594D01*
X4445000Y15033594D01*
X4566179Y15056395D01*
X4677474Y15128012D01*
X4752138Y15237286D01*
X4778406Y15367000D01*
X4778406Y16891000D01*
X4755605Y17012179D01*
X4683988Y17123474D01*
X4574714Y17198138D01*
X4445000Y17224406D01*
X2921000Y17224406D01*
X2813000Y17204085D01*
X2813000Y17595465D01*
X2921000Y17573594D01*
X4445000Y17573594D01*
X4566179Y17596395D01*
X4677474Y17668012D01*
X4752138Y17777286D01*
X4778406Y17907000D01*
X4778406Y19431000D01*
X5127594Y19431000D01*
X5127594Y17907000D01*
X5150395Y17785821D01*
X5222012Y17674526D01*
X5331286Y17599862D01*
X5461000Y17573594D01*
X6985000Y17573594D01*
X7106179Y17596395D01*
X7217474Y17668012D01*
X7292138Y17777286D01*
X7318406Y17907000D01*
X7318406Y19431000D01*
X7295605Y19552179D01*
X7223988Y19663474D01*
X7114714Y19738138D01*
X6985000Y19764406D01*
X5461000Y19764406D01*
X5339821Y19741605D01*
X5228526Y19669988D01*
X5153862Y19560714D01*
X5127594Y19431000D01*
X4778406Y19431000D01*
X4755605Y19552179D01*
X4683988Y19663474D01*
X4574714Y19738138D01*
X4445000Y19764406D01*
X2921000Y19764406D01*
X2813000Y19744085D01*
X2813000Y26056141D01*
X2817235Y26060369D01*
X2912891Y26290735D01*
X2913109Y26540171D01*
X2817855Y26770703D01*
X2641631Y26947235D01*
X2411265Y27042891D01*
X2161829Y27043109D01*
X2112999Y27022933D01*
X2112999Y27529709D01*
X2631290Y28048000D01*
X4847141Y28048000D01*
X4851369Y28043765D01*
X5081735Y27948109D01*
X5331171Y27947891D01*
X5561703Y28043145D01*
X5738235Y28219369D01*
X5833891Y28449735D01*
X5834109Y28699171D01*
X5738855Y28929703D01*
X5562631Y29106235D01*
X5332265Y29201891D01*
X5082829Y29202109D01*
X4852297Y29106855D01*
X4847434Y29102000D01*
X2413000Y29102000D01*
X2211325Y29061885D01*
X2040355Y28947645D01*
X1213354Y28120644D01*
X1099114Y27949674D01*
X1089686Y27902276D01*
X1058999Y27747999D01*
X631000Y27747999D01*
X631000Y36639500D01*
X5191094Y36639500D01*
X5191094Y35115500D01*
X5213895Y34994321D01*
X5285512Y34883026D01*
X5394786Y34808362D01*
X5524500Y34782094D01*
X7048500Y34782094D01*
X7169679Y34804895D01*
X7280974Y34876512D01*
X7355638Y34985786D01*
X7381906Y35115500D01*
X7381906Y36639500D01*
X7359105Y36760679D01*
X7287488Y36871974D01*
X7178214Y36946638D01*
X7048500Y36972906D01*
X5524500Y36972906D01*
X5403321Y36950105D01*
X5292026Y36878488D01*
X5217362Y36769214D01*
X5191094Y36639500D01*
X631000Y36639500D01*
X631000Y39179500D01*
X2651094Y39179500D01*
X2651094Y37655500D01*
X2673895Y37534321D01*
X2745512Y37423026D01*
X2854786Y37348362D01*
X2984500Y37322094D01*
X4508500Y37322094D01*
X4629679Y37344895D01*
X4740974Y37416512D01*
X4815638Y37525786D01*
X4841906Y37655500D01*
X4841906Y39179500D01*
X5191094Y39179500D01*
X5191094Y37655500D01*
X5213895Y37534321D01*
X5285512Y37423026D01*
X5394786Y37348362D01*
X5524500Y37322094D01*
X7048500Y37322094D01*
X7169679Y37344895D01*
X7280974Y37416512D01*
X7355638Y37525786D01*
X7381906Y37655500D01*
X7381906Y39179500D01*
X7359105Y39300679D01*
X7287488Y39411974D01*
X7178214Y39486638D01*
X7048500Y39512906D01*
X5524500Y39512906D01*
X5403321Y39490105D01*
X5292026Y39418488D01*
X5217362Y39309214D01*
X5191094Y39179500D01*
X4841906Y39179500D01*
X4819105Y39300679D01*
X4747488Y39411974D01*
X4638214Y39486638D01*
X4508500Y39512906D01*
X2984500Y39512906D01*
X2863321Y39490105D01*
X2752026Y39418488D01*
X2677362Y39309214D01*
X2651094Y39179500D01*
X631000Y39179500D01*
X631000Y42926000D01*
X11350594Y42926000D01*
X11350594Y41402000D01*
X11373395Y41280821D01*
X11445012Y41169526D01*
X11554286Y41094862D01*
X11684000Y41068594D01*
X13208000Y41068594D01*
X13329179Y41091395D01*
X13440474Y41163012D01*
X13515138Y41272286D01*
X13541406Y41402000D01*
X13541406Y42926000D01*
X13890594Y42926000D01*
X13890594Y41402000D01*
X13913395Y41280821D01*
X13985012Y41169526D01*
X14094286Y41094862D01*
X14224000Y41068594D01*
X15748000Y41068594D01*
X15869179Y41091395D01*
X15980474Y41163012D01*
X16055138Y41272286D01*
X16081406Y41402000D01*
X16081406Y42926000D01*
X16058605Y43047179D01*
X15986988Y43158474D01*
X15877714Y43233138D01*
X15748000Y43259406D01*
X14224000Y43259406D01*
X14102821Y43236605D01*
X13991526Y43164988D01*
X13916862Y43055714D01*
X13890594Y42926000D01*
X13541406Y42926000D01*
X13518605Y43047179D01*
X13446988Y43158474D01*
X13337714Y43233138D01*
X13208000Y43259406D01*
X11684000Y43259406D01*
X11562821Y43236605D01*
X11451526Y43164988D01*
X11376862Y43055714D01*
X11350594Y42926000D01*
X631000Y42926000D01*
X631000Y46355000D01*
X22272594Y46355000D01*
X22272594Y44831000D01*
X22295395Y44709821D01*
X22367012Y44598526D01*
X22476286Y44523862D01*
X22606000Y44497594D01*
X24130000Y44497594D01*
X24251179Y44520395D01*
X24362474Y44592012D01*
X24437138Y44701286D01*
X24463406Y44831000D01*
X24463406Y46355000D01*
X24440605Y46476179D01*
X24368988Y46587474D01*
X24259714Y46662138D01*
X24130000Y46688406D01*
X22606000Y46688406D01*
X22484821Y46665605D01*
X22373526Y46593988D01*
X22298862Y46484714D01*
X22272594Y46355000D01*
X631000Y46355000D01*
X631000Y48895000D01*
X22272594Y48895000D01*
X22272594Y47371000D01*
X22295395Y47249821D01*
X22367012Y47138526D01*
X22476286Y47063862D01*
X22606000Y47037594D01*
X24130000Y47037594D01*
X24251179Y47060395D01*
X24362474Y47132012D01*
X24437138Y47241286D01*
X24463406Y47371000D01*
X24463406Y48895000D01*
X24440605Y49016179D01*
X24368988Y49127474D01*
X24259714Y49202138D01*
X24130000Y49228406D01*
X22606000Y49228406D01*
X22484821Y49205605D01*
X22373526Y49133988D01*
X22298862Y49024714D01*
X22272594Y48895000D01*
X631000Y48895000D01*
X631000Y50169000D01*
X40009000Y50169000D01*
X40009000Y631000D01*
X40009000Y631000D01*
G37*
X40009000Y631000D02*
X631000Y631000D01*
X631000Y8188515D01*
X16802830Y8188515D01*
X16951256Y7829297D01*
X17225851Y7554222D01*
X17584810Y7405170D01*
X17973485Y7404830D01*
X18332703Y7553256D01*
X18607778Y7827851D01*
X18756830Y8186810D01*
X18756831Y8188515D01*
X20862830Y8188515D01*
X21011256Y7829297D01*
X21285851Y7554222D01*
X21644810Y7405170D01*
X22033485Y7404830D01*
X22392703Y7553256D01*
X22667778Y7827851D01*
X22816830Y8186810D01*
X22816831Y8188515D01*
X22892830Y8188515D01*
X23041256Y7829297D01*
X23315851Y7554222D01*
X23674810Y7405170D01*
X24063485Y7404830D01*
X24422703Y7553256D01*
X24697778Y7827851D01*
X24846830Y8186810D01*
X24847170Y8575485D01*
X24698744Y8934703D01*
X24424149Y9209778D01*
X24065190Y9358830D01*
X23676515Y9359170D01*
X23317297Y9210744D01*
X23042222Y8936149D01*
X22893170Y8577190D01*
X22892830Y8188515D01*
X22816831Y8188515D01*
X22817170Y8575485D01*
X22668744Y8934703D01*
X22394149Y9209778D01*
X22035190Y9358830D01*
X21646515Y9359170D01*
X21287297Y9210744D01*
X21012222Y8936149D01*
X20863170Y8577190D01*
X20862830Y8188515D01*
X18756831Y8188515D01*
X18757170Y8575485D01*
X18608744Y8934703D01*
X18334149Y9209778D01*
X17975190Y9358830D01*
X17586515Y9359170D01*
X17227297Y9210744D01*
X16952222Y8936149D01*
X16803170Y8577190D01*
X16802830Y8188515D01*
X631000Y8188515D01*
X631000Y27747999D01*
X1058999Y27747999D01*
X1058999Y10901999D01*
X1099114Y10700324D01*
X1213354Y10529354D01*
X2463353Y9279354D01*
X2634324Y9165115D01*
X2835998Y9125000D01*
X9398000Y9125000D01*
X9599675Y9165115D01*
X9770645Y9279355D01*
X10459805Y9968515D01*
X15782830Y9968515D01*
X15931256Y9609297D01*
X16205851Y9334222D01*
X16564810Y9185170D01*
X16953485Y9184830D01*
X17312703Y9333256D01*
X17587778Y9607851D01*
X17736830Y9966810D01*
X17736831Y9968515D01*
X17812830Y9968515D01*
X17961256Y9609297D01*
X18235851Y9334222D01*
X18594810Y9185170D01*
X18983485Y9184830D01*
X19342703Y9333256D01*
X19617778Y9607851D01*
X19766830Y9966810D01*
X19767170Y10355485D01*
X19618744Y10714703D01*
X19344149Y10989778D01*
X18985190Y11138830D01*
X18596515Y11139170D01*
X18237297Y10990744D01*
X17962222Y10716149D01*
X17813170Y10357190D01*
X17812830Y9968515D01*
X17736831Y9968515D01*
X17737170Y10355485D01*
X17588744Y10714703D01*
X17314149Y10989778D01*
X16955190Y11138830D01*
X16566515Y11139170D01*
X16207297Y10990744D01*
X15932222Y10716149D01*
X15783170Y10357190D01*
X15782830Y9968515D01*
X10459805Y9968515D01*
X13796289Y13304999D01*
X15466347Y13304999D01*
X15343765Y13182631D01*
X15248109Y12952265D01*
X15247891Y12702829D01*
X15343145Y12472297D01*
X15519369Y12295765D01*
X15640554Y12245445D01*
X15720997Y12165002D01*
X15720999Y12164999D01*
X15905434Y12041765D01*
X15908192Y12039922D01*
X16129000Y11996000D01*
X21555156Y11996000D01*
X20698263Y11139107D01*
X20626515Y11139170D01*
X20267297Y10990744D01*
X19992222Y10716149D01*
X19843170Y10357190D01*
X19842830Y9968515D01*
X19991256Y9609297D01*
X20265851Y9334222D01*
X20624810Y9185170D01*
X21013485Y9184830D01*
X21372703Y9333256D01*
X21647778Y9607851D01*
X21796830Y9966810D01*
X21796894Y10040050D01*
X21872959Y10116115D01*
X21872830Y9968515D01*
X22021256Y9609297D01*
X22295851Y9334222D01*
X22654810Y9185170D01*
X23043485Y9184830D01*
X23402703Y9333256D01*
X23677778Y9607851D01*
X23826830Y9966810D01*
X23827170Y10355485D01*
X23691017Y10685001D01*
X32914001Y10685001D01*
X33211346Y10744147D01*
X33463423Y10912579D01*
X34219844Y11669000D01*
X34467416Y11669000D01*
X34487395Y11562821D01*
X34559012Y11451526D01*
X34668286Y11376862D01*
X34798000Y11350594D01*
X36322000Y11350594D01*
X36443179Y11373395D01*
X36554474Y11445012D01*
X36629138Y11554286D01*
X36652368Y11669000D01*
X37007416Y11669000D01*
X37027395Y11562821D01*
X37099012Y11451526D01*
X37208286Y11376862D01*
X37338000Y11350594D01*
X38862000Y11350594D01*
X38983179Y11373395D01*
X39094474Y11445012D01*
X39169138Y11554286D01*
X39195406Y11684000D01*
X39195406Y13208000D01*
X39172605Y13329179D01*
X39100988Y13440474D01*
X38991714Y13515138D01*
X38862000Y13541406D01*
X37338000Y13541406D01*
X37216821Y13518605D01*
X37105526Y13446988D01*
X37030862Y13337714D01*
X37007632Y13223000D01*
X36652584Y13223000D01*
X36632605Y13329179D01*
X36560988Y13440474D01*
X36451714Y13515138D01*
X36337000Y13538368D01*
X36337000Y13893416D01*
X36443179Y13913395D01*
X36554474Y13985012D01*
X36629138Y14094286D01*
X36652368Y14209000D01*
X37007416Y14209000D01*
X37027395Y14102821D01*
X37099012Y13991526D01*
X37208286Y13916862D01*
X37338000Y13890594D01*
X38862000Y13890594D01*
X38983179Y13913395D01*
X39094474Y13985012D01*
X39169138Y14094286D01*
X39195406Y14224000D01*
X39195406Y15748000D01*
X39172605Y15869179D01*
X39100988Y15980474D01*
X38991714Y16055138D01*
X38862000Y16081406D01*
X37338000Y16081406D01*
X37216821Y16058605D01*
X37105526Y15986988D01*
X37030862Y15877714D01*
X37007632Y15763000D01*
X36652584Y15763000D01*
X36632605Y15869179D01*
X36560988Y15980474D01*
X36451714Y16055138D01*
X36322000Y16081406D01*
X34798000Y16081406D01*
X34676821Y16058605D01*
X34622500Y16023650D01*
X34622500Y19288656D01*
X36299922Y20966078D01*
X36468354Y21218155D01*
X36527500Y21515500D01*
X36527500Y22084916D01*
X36633679Y22104895D01*
X36744974Y22176512D01*
X36819638Y22285786D01*
X36845906Y22415500D01*
X36845906Y23939500D01*
X36823105Y24060679D01*
X36751488Y24171974D01*
X36642214Y24246638D01*
X36512500Y24272906D01*
X34988500Y24272906D01*
X34867321Y24250105D01*
X34756026Y24178488D01*
X34681362Y24069214D01*
X34655094Y23939500D01*
X34655094Y22415500D01*
X34677895Y22294321D01*
X34749512Y22183026D01*
X34858786Y22108362D01*
X34973500Y22085132D01*
X34973500Y21837344D01*
X33296078Y20159922D01*
X33127646Y19907845D01*
X33068500Y19610500D01*
X33068500Y15494000D01*
X33127646Y15196655D01*
X33296078Y14944578D01*
X33804078Y14436578D01*
X34056155Y14268146D01*
X34353500Y14209000D01*
X34467416Y14209000D01*
X34487395Y14102821D01*
X34559012Y13991526D01*
X34668286Y13916862D01*
X34783000Y13893632D01*
X34783000Y13538584D01*
X34676821Y13518605D01*
X34565526Y13446988D01*
X34490862Y13337714D01*
X34467632Y13223000D01*
X33898000Y13223000D01*
X33600655Y13163854D01*
X33348578Y12995422D01*
X32592157Y12239001D01*
X25813217Y12239001D01*
X25899891Y12447735D01*
X25900109Y12697171D01*
X25804855Y12927703D01*
X25628631Y13104235D01*
X25398265Y13199891D01*
X25148829Y13200109D01*
X25027556Y13150000D01*
X16419954Y13150000D01*
X16406855Y13181703D01*
X16283774Y13304999D01*
X26029999Y13304999D01*
X26231674Y13345114D01*
X26402644Y13459354D01*
X26882616Y13939326D01*
X26964832Y13905187D01*
X27393289Y13904813D01*
X27789275Y14068431D01*
X28092504Y14371132D01*
X28256813Y14766832D01*
X28257187Y15195289D01*
X28093569Y15591275D01*
X27790868Y15894504D01*
X27395168Y16058813D01*
X26966711Y16059187D01*
X26570725Y15895569D01*
X26267496Y15592868D01*
X26103187Y15197168D01*
X26102813Y14768711D01*
X26137492Y14684782D01*
X25811709Y14358999D01*
X25790350Y14358999D01*
X25802504Y14371132D01*
X25966813Y14766832D01*
X25967187Y15195289D01*
X25803569Y15591275D01*
X25500868Y15894504D01*
X25105168Y16058813D01*
X24676711Y16059187D01*
X24280725Y15895569D01*
X23977496Y15592868D01*
X23813187Y15197168D01*
X23812813Y14768711D01*
X23976431Y14372725D01*
X23990133Y14358999D01*
X16650350Y14358999D01*
X16662504Y14371132D01*
X16826813Y14766832D01*
X16827187Y15195289D01*
X16663569Y15591275D01*
X16360868Y15894504D01*
X15965168Y16058813D01*
X15536711Y16059187D01*
X15140725Y15895569D01*
X14837496Y15592868D01*
X14673187Y15197168D01*
X14672813Y14768711D01*
X14836431Y14372725D01*
X14850133Y14358999D01*
X14360350Y14358999D01*
X14372504Y14371132D01*
X14536813Y14766832D01*
X14537187Y15195289D01*
X14373569Y15591275D01*
X14070868Y15894504D01*
X13675168Y16058813D01*
X13246711Y16059187D01*
X12850725Y15895569D01*
X12547496Y15592868D01*
X12383187Y15197168D01*
X12382813Y14768711D01*
X12546431Y14372725D01*
X12849132Y14069496D01*
X13005342Y14004632D01*
X11911035Y12910325D01*
X11929891Y12955735D01*
X11930109Y13205171D01*
X11880000Y13326444D01*
X11880000Y18796000D01*
X13128594Y18796000D01*
X13128594Y17272000D01*
X13151395Y17150821D01*
X13223012Y17039526D01*
X13332286Y16964862D01*
X13462000Y16938594D01*
X14986000Y16938594D01*
X15107179Y16961395D01*
X15218474Y17033012D01*
X15293138Y17142286D01*
X15319406Y17272000D01*
X15319406Y18796000D01*
X15668594Y18796000D01*
X15668594Y17272000D01*
X15691395Y17150821D01*
X15763012Y17039526D01*
X15872286Y16964862D01*
X16002000Y16938594D01*
X17526000Y16938594D01*
X17647179Y16961395D01*
X17758474Y17033012D01*
X17833138Y17142286D01*
X17859406Y17272000D01*
X17859406Y18796000D01*
X18208594Y18796000D01*
X18208594Y17272000D01*
X18231395Y17150821D01*
X18303012Y17039526D01*
X18412286Y16964862D01*
X18542000Y16938594D01*
X20066000Y16938594D01*
X20187179Y16961395D01*
X20298474Y17033012D01*
X20373138Y17142286D01*
X20399406Y17272000D01*
X20399406Y18796000D01*
X20748594Y18796000D01*
X20748594Y17272000D01*
X20771395Y17150821D01*
X20843012Y17039526D01*
X20952286Y16964862D01*
X21082000Y16938594D01*
X22606000Y16938594D01*
X22727179Y16961395D01*
X22838474Y17033012D01*
X22913138Y17142286D01*
X22939406Y17272000D01*
X22939406Y18796000D01*
X23288594Y18796000D01*
X23288594Y17272000D01*
X23311395Y17150821D01*
X23383012Y17039526D01*
X23492286Y16964862D01*
X23622000Y16938594D01*
X25146000Y16938594D01*
X25267179Y16961395D01*
X25378474Y17033012D01*
X25453138Y17142286D01*
X25479406Y17272000D01*
X25479406Y18796000D01*
X25828594Y18796000D01*
X25828594Y17272000D01*
X25851395Y17150821D01*
X25923012Y17039526D01*
X26032286Y16964862D01*
X26162000Y16938594D01*
X27686000Y16938594D01*
X27807179Y16961395D01*
X27918474Y17033012D01*
X27993138Y17142286D01*
X28019406Y17272000D01*
X28019406Y18796000D01*
X27996605Y18917179D01*
X27924988Y19028474D01*
X27815714Y19103138D01*
X27686000Y19129406D01*
X26162000Y19129406D01*
X26040821Y19106605D01*
X25929526Y19034988D01*
X25854862Y18925714D01*
X25828594Y18796000D01*
X25479406Y18796000D01*
X25456605Y18917179D01*
X25384988Y19028474D01*
X25275714Y19103138D01*
X25146000Y19129406D01*
X23622000Y19129406D01*
X23500821Y19106605D01*
X23389526Y19034988D01*
X23314862Y18925714D01*
X23288594Y18796000D01*
X22939406Y18796000D01*
X22916605Y18917179D01*
X22844988Y19028474D01*
X22735714Y19103138D01*
X22606000Y19129406D01*
X21082000Y19129406D01*
X20960821Y19106605D01*
X20849526Y19034988D01*
X20774862Y18925714D01*
X20748594Y18796000D01*
X20399406Y18796000D01*
X20376605Y18917179D01*
X20304988Y19028474D01*
X20195714Y19103138D01*
X20066000Y19129406D01*
X18542000Y19129406D01*
X18420821Y19106605D01*
X18309526Y19034988D01*
X18234862Y18925714D01*
X18208594Y18796000D01*
X17859406Y18796000D01*
X17836605Y18917179D01*
X17764988Y19028474D01*
X17655714Y19103138D01*
X17526000Y19129406D01*
X16002000Y19129406D01*
X15880821Y19106605D01*
X15769526Y19034988D01*
X15694862Y18925714D01*
X15668594Y18796000D01*
X15319406Y18796000D01*
X15296605Y18917179D01*
X15224988Y19028474D01*
X15115714Y19103138D01*
X14986000Y19129406D01*
X13462000Y19129406D01*
X13340821Y19106605D01*
X13229526Y19034988D01*
X13154862Y18925714D01*
X13128594Y18796000D01*
X11880000Y18796000D01*
X11880000Y21336000D01*
X13128594Y21336000D01*
X13128594Y19812000D01*
X13151395Y19690821D01*
X13223012Y19579526D01*
X13332286Y19504862D01*
X13462000Y19478594D01*
X14986000Y19478594D01*
X15107179Y19501395D01*
X15218474Y19573012D01*
X15293138Y19682286D01*
X15319406Y19812000D01*
X15319406Y21336000D01*
X15668594Y21336000D01*
X15668594Y19812000D01*
X15691395Y19690821D01*
X15763012Y19579526D01*
X15872286Y19504862D01*
X16002000Y19478594D01*
X17526000Y19478594D01*
X17647179Y19501395D01*
X17758474Y19573012D01*
X17833138Y19682286D01*
X17859406Y19812000D01*
X17859406Y21336000D01*
X18208594Y21336000D01*
X18208594Y19812000D01*
X18231395Y19690821D01*
X18303012Y19579526D01*
X18412286Y19504862D01*
X18542000Y19478594D01*
X20066000Y19478594D01*
X20187179Y19501395D01*
X20298474Y19573012D01*
X20373138Y19682286D01*
X20399406Y19812000D01*
X20399406Y21336000D01*
X20748594Y21336000D01*
X20748594Y19812000D01*
X20771395Y19690821D01*
X20843012Y19579526D01*
X20952286Y19504862D01*
X21082000Y19478594D01*
X22606000Y19478594D01*
X22727179Y19501395D01*
X22838474Y19573012D01*
X22913138Y19682286D01*
X22939406Y19812000D01*
X22939406Y21336000D01*
X23288594Y21336000D01*
X23288594Y19812000D01*
X23311395Y19690821D01*
X23383012Y19579526D01*
X23492286Y19504862D01*
X23622000Y19478594D01*
X25146000Y19478594D01*
X25267179Y19501395D01*
X25378474Y19573012D01*
X25453138Y19682286D01*
X25479406Y19812000D01*
X25479406Y21336000D01*
X25828594Y21336000D01*
X25828594Y19812000D01*
X25851395Y19690821D01*
X25923012Y19579526D01*
X26032286Y19504862D01*
X26162000Y19478594D01*
X27686000Y19478594D01*
X27807179Y19501395D01*
X27918474Y19573012D01*
X27993138Y19682286D01*
X28019406Y19812000D01*
X28019406Y21336000D01*
X27996605Y21457179D01*
X27924988Y21568474D01*
X27815714Y21643138D01*
X27686000Y21669406D01*
X26162000Y21669406D01*
X26040821Y21646605D01*
X25929526Y21574988D01*
X25854862Y21465714D01*
X25828594Y21336000D01*
X25479406Y21336000D01*
X25456605Y21457179D01*
X25384988Y21568474D01*
X25275714Y21643138D01*
X25146000Y21669406D01*
X23622000Y21669406D01*
X23500821Y21646605D01*
X23389526Y21574988D01*
X23314862Y21465714D01*
X23288594Y21336000D01*
X22939406Y21336000D01*
X22916605Y21457179D01*
X22844988Y21568474D01*
X22735714Y21643138D01*
X22606000Y21669406D01*
X21082000Y21669406D01*
X20960821Y21646605D01*
X20849526Y21574988D01*
X20774862Y21465714D01*
X20748594Y21336000D01*
X20399406Y21336000D01*
X20376605Y21457179D01*
X20304988Y21568474D01*
X20195714Y21643138D01*
X20066000Y21669406D01*
X18542000Y21669406D01*
X18420821Y21646605D01*
X18309526Y21574988D01*
X18234862Y21465714D01*
X18208594Y21336000D01*
X17859406Y21336000D01*
X17836605Y21457179D01*
X17764988Y21568474D01*
X17655714Y21643138D01*
X17526000Y21669406D01*
X16002000Y21669406D01*
X15880821Y21646605D01*
X15769526Y21574988D01*
X15694862Y21465714D01*
X15668594Y21336000D01*
X15319406Y21336000D01*
X15296605Y21457179D01*
X15224988Y21568474D01*
X15115714Y21643138D01*
X14986000Y21669406D01*
X13462000Y21669406D01*
X13340821Y21646605D01*
X13229526Y21574988D01*
X13154862Y21465714D01*
X13128594Y21336000D01*
X11880000Y21336000D01*
X11880000Y23748852D01*
X12007386Y23939500D01*
X32115094Y23939500D01*
X32115094Y22415500D01*
X32137895Y22294321D01*
X32209512Y22183026D01*
X32318786Y22108362D01*
X32448500Y22082094D01*
X33972500Y22082094D01*
X34093679Y22104895D01*
X34204974Y22176512D01*
X34279638Y22285786D01*
X34305906Y22415500D01*
X34305906Y23939500D01*
X34283105Y24060679D01*
X34211488Y24171974D01*
X34102214Y24246638D01*
X33972500Y24272906D01*
X32448500Y24272906D01*
X32327321Y24250105D01*
X32216026Y24178488D01*
X32141362Y24069214D01*
X32115094Y23939500D01*
X12007386Y23939500D01*
X12020854Y23959655D01*
X12080000Y24257000D01*
X12020854Y24554345D01*
X11852422Y24806422D01*
X11533886Y25124958D01*
X11575715Y25107589D01*
X11825151Y25107371D01*
X11853802Y25119210D01*
X12312302Y24660710D01*
X12467052Y24557309D01*
X12649592Y24521000D01*
X23989908Y24521000D01*
X24172448Y24557309D01*
X24327198Y24660710D01*
X26246072Y26579584D01*
X26273755Y26568089D01*
X26523191Y26567871D01*
X26753723Y26663125D01*
X26930255Y26839349D01*
X27025911Y27069715D01*
X27026129Y27319151D01*
X26930875Y27549683D01*
X26907203Y27573396D01*
X26888672Y27666559D01*
X26785271Y27821309D01*
X26630521Y27924710D01*
X26447981Y27961019D01*
X26411239Y27953711D01*
X26329835Y28150723D01*
X26153611Y28327255D01*
X25923245Y28422911D01*
X25673809Y28423129D01*
X25443277Y28327875D01*
X25266745Y28151651D01*
X25171089Y27921285D01*
X25170871Y27671849D01*
X25182710Y27643198D01*
X23564512Y26025000D01*
X13074988Y26025000D01*
X12917416Y26182572D01*
X12928911Y26210255D01*
X12928928Y26230003D01*
X13064658Y26139310D01*
X13247199Y26103001D01*
X20020001Y26103001D01*
X20202541Y26139310D01*
X20357291Y26242711D01*
X20367538Y26252958D01*
X20444171Y26252891D01*
X20674703Y26348145D01*
X20851235Y26524369D01*
X20946891Y26754735D01*
X20947109Y27004171D01*
X20851855Y27234703D01*
X20781713Y27304968D01*
X20851235Y27374369D01*
X20946891Y27604735D01*
X20947109Y27854171D01*
X20851855Y28084703D01*
X20675631Y28261235D01*
X20445265Y28356891D01*
X20195829Y28357109D01*
X19965297Y28261855D01*
X19910346Y28207000D01*
X19895736Y28207000D01*
X19713196Y28170691D01*
X19558446Y28067290D01*
X19054716Y27563560D01*
X13872940Y27563560D01*
X12892335Y28544165D01*
X12892369Y28583108D01*
X12797115Y28813640D01*
X12780798Y28829986D01*
X12791426Y28834377D01*
X12967958Y29010601D01*
X13063614Y29240967D01*
X13063641Y29271480D01*
X15011940Y29271480D01*
X16007206Y28276214D01*
X16049158Y28174682D01*
X16225382Y27998150D01*
X16455748Y27902494D01*
X16705184Y27902276D01*
X16935716Y27997530D01*
X17112248Y28173754D01*
X17207904Y28404120D01*
X17208122Y28653556D01*
X17112868Y28884088D01*
X17040445Y28956637D01*
X17071986Y28988123D01*
X17167642Y29218489D01*
X17167860Y29467925D01*
X17072606Y29698457D01*
X16896382Y29874989D01*
X16666016Y29970645D01*
X16588372Y29970713D01*
X15954524Y30604561D01*
X15799774Y30707962D01*
X15617234Y30744271D01*
X12135682Y30744271D01*
X11953142Y30707962D01*
X11798392Y30604561D01*
X11788145Y30594314D01*
X11711512Y30594381D01*
X11480980Y30499127D01*
X11304448Y30322903D01*
X11282399Y30269803D01*
X11282399Y33043555D01*
X11878844Y33640000D01*
X15013002Y33640000D01*
X15310347Y33699146D01*
X15562424Y33867578D01*
X17567422Y35872576D01*
X17735854Y36124653D01*
X17795000Y36421998D01*
X17795000Y37211000D01*
X27606594Y37211000D01*
X27606594Y35687000D01*
X27629395Y35565821D01*
X27701012Y35454526D01*
X27810286Y35379862D01*
X27940000Y35353594D01*
X29464000Y35353594D01*
X29585179Y35376395D01*
X29696474Y35448012D01*
X29771138Y35557286D01*
X29797406Y35687000D01*
X29797406Y37211000D01*
X29774605Y37332179D01*
X29702988Y37443474D01*
X29593714Y37518138D01*
X29464000Y37544406D01*
X27940000Y37544406D01*
X27818821Y37521605D01*
X27707526Y37449988D01*
X27632862Y37340714D01*
X27606594Y37211000D01*
X17795000Y37211000D01*
X17795000Y37746002D01*
X17735854Y38043347D01*
X17567422Y38295424D01*
X16111846Y39751000D01*
X27606594Y39751000D01*
X27606594Y38227000D01*
X27629395Y38105821D01*
X27701012Y37994526D01*
X27810286Y37919862D01*
X27940000Y37893594D01*
X29464000Y37893594D01*
X29585179Y37916395D01*
X29696474Y37988012D01*
X29771138Y38097286D01*
X29797406Y38227000D01*
X29797406Y38481000D01*
X34083594Y38481000D01*
X34083594Y36957000D01*
X34106395Y36835821D01*
X34178012Y36724526D01*
X34287286Y36649862D01*
X34417000Y36623594D01*
X35941000Y36623594D01*
X36062179Y36646395D01*
X36173474Y36718012D01*
X36248138Y36827286D01*
X36274406Y36957000D01*
X36274406Y38481000D01*
X36623594Y38481000D01*
X36623594Y36957000D01*
X36646395Y36835821D01*
X36718012Y36724526D01*
X36827286Y36649862D01*
X36957000Y36623594D01*
X38481000Y36623594D01*
X38602179Y36646395D01*
X38713474Y36718012D01*
X38788138Y36827286D01*
X38814406Y36957000D01*
X38814406Y38481000D01*
X38791605Y38602179D01*
X38719988Y38713474D01*
X38610714Y38788138D01*
X38481000Y38814406D01*
X36957000Y38814406D01*
X36835821Y38791605D01*
X36724526Y38719988D01*
X36649862Y38610714D01*
X36623594Y38481000D01*
X36274406Y38481000D01*
X36251605Y38602179D01*
X36179988Y38713474D01*
X36070714Y38788138D01*
X35941000Y38814406D01*
X34417000Y38814406D01*
X34295821Y38791605D01*
X34184526Y38719988D01*
X34109862Y38610714D01*
X34083594Y38481000D01*
X29797406Y38481000D01*
X29797406Y39751000D01*
X29774605Y39872179D01*
X29702988Y39983474D01*
X29593714Y40058138D01*
X29464000Y40084406D01*
X27940000Y40084406D01*
X27818821Y40061605D01*
X27707526Y39989988D01*
X27632862Y39880714D01*
X27606594Y39751000D01*
X16111846Y39751000D01*
X16081406Y39781440D01*
X16081406Y40386000D01*
X16058605Y40507179D01*
X15986988Y40618474D01*
X15877714Y40693138D01*
X15748000Y40719406D01*
X14224000Y40719406D01*
X14102821Y40696605D01*
X13991526Y40624988D01*
X13916862Y40515714D01*
X13890594Y40386000D01*
X13890594Y38862000D01*
X13913395Y38740821D01*
X13985012Y38629526D01*
X14094286Y38554862D01*
X14224000Y38528594D01*
X15136564Y38528594D01*
X15485752Y38179406D01*
X14224000Y38179406D01*
X14102821Y38156605D01*
X13991526Y38084988D01*
X13916862Y37975714D01*
X13890594Y37846000D01*
X13890594Y36322000D01*
X13913395Y36200821D01*
X13985012Y36089526D01*
X14094286Y36014862D01*
X14224000Y35988594D01*
X15485752Y35988594D01*
X14691158Y35194000D01*
X11557000Y35194000D01*
X11259655Y35134854D01*
X11007578Y34966422D01*
X10961834Y34920678D01*
X10942092Y34968456D01*
X10765868Y35144988D01*
X10535502Y35240644D01*
X10286066Y35240862D01*
X10175000Y35194970D01*
X10175000Y36408158D01*
X11350594Y37583752D01*
X11350594Y36322000D01*
X11373395Y36200821D01*
X11445012Y36089526D01*
X11554286Y36014862D01*
X11684000Y35988594D01*
X13208000Y35988594D01*
X13329179Y36011395D01*
X13440474Y36083012D01*
X13515138Y36192286D01*
X13541406Y36322000D01*
X13541406Y37846000D01*
X13518605Y37967179D01*
X13446988Y38078474D01*
X13337714Y38153138D01*
X13208000Y38179406D01*
X11946248Y38179406D01*
X12295436Y38528594D01*
X13208000Y38528594D01*
X13329179Y38551395D01*
X13440474Y38623012D01*
X13515138Y38732286D01*
X13541406Y38862000D01*
X13541406Y40386000D01*
X13518605Y40507179D01*
X13446988Y40618474D01*
X13337714Y40693138D01*
X13208000Y40719406D01*
X11684000Y40719406D01*
X11562821Y40696605D01*
X11451526Y40624988D01*
X11376862Y40515714D01*
X11350594Y40386000D01*
X11350594Y39781440D01*
X8848578Y37279424D01*
X8680146Y37027347D01*
X8621000Y36730002D01*
X8621000Y24907000D01*
X4826000Y24907000D01*
X4528655Y24847854D01*
X4276578Y24679422D01*
X4108146Y24427345D01*
X4049000Y24130000D01*
X4108146Y23832655D01*
X4276578Y23580578D01*
X4528655Y23412146D01*
X4826000Y23353000D01*
X8621000Y23353000D01*
X8621000Y17963844D01*
X7563156Y16906000D01*
X7315584Y16906000D01*
X7295605Y17012179D01*
X7223988Y17123474D01*
X7114714Y17198138D01*
X6985000Y17224406D01*
X5461000Y17224406D01*
X5339821Y17201605D01*
X5228526Y17129988D01*
X5153862Y17020714D01*
X5127594Y16891000D01*
X5127594Y15367000D01*
X5150395Y15245821D01*
X5222012Y15134526D01*
X5331286Y15059862D01*
X5461000Y15033594D01*
X6985000Y15033594D01*
X7106179Y15056395D01*
X7217474Y15128012D01*
X7292138Y15237286D01*
X7315368Y15352000D01*
X7885000Y15352000D01*
X8182345Y15411146D01*
X8434422Y15579578D01*
X9947422Y17092578D01*
X10115854Y17344655D01*
X10175000Y17642000D01*
X10175000Y24286156D01*
X10726000Y23735156D01*
X10726000Y13326416D01*
X10676109Y13206265D01*
X10675891Y12956829D01*
X10771145Y12726297D01*
X10947369Y12549765D01*
X11177735Y12454109D01*
X11427171Y12453891D01*
X11473915Y12473205D01*
X9179710Y10179000D01*
X3054289Y10179000D01*
X2112999Y11120289D01*
X2112999Y13251711D01*
X2148355Y13216355D01*
X2319325Y13102115D01*
X2352785Y13095460D01*
X2521000Y13062000D01*
X2587594Y13062000D01*
X2587594Y12827000D01*
X2610395Y12705821D01*
X2682012Y12594526D01*
X2791286Y12519862D01*
X2921000Y12493594D01*
X4445000Y12493594D01*
X4566179Y12516395D01*
X4677474Y12588012D01*
X4752138Y12697286D01*
X4778406Y12827000D01*
X4778406Y14351000D01*
X5127594Y14351000D01*
X5127594Y12827000D01*
X5150395Y12705821D01*
X5222012Y12594526D01*
X5331286Y12519862D01*
X5461000Y12493594D01*
X6985000Y12493594D01*
X7106179Y12516395D01*
X7217474Y12588012D01*
X7292138Y12697286D01*
X7318406Y12827000D01*
X7318406Y14351000D01*
X7295605Y14472179D01*
X7223988Y14583474D01*
X7114714Y14658138D01*
X6985000Y14684406D01*
X5461000Y14684406D01*
X5339821Y14661605D01*
X5228526Y14589988D01*
X5153862Y14480714D01*
X5127594Y14351000D01*
X4778406Y14351000D01*
X4755605Y14472179D01*
X4683988Y14583474D01*
X4574714Y14658138D01*
X4445000Y14684406D01*
X2921000Y14684406D01*
X2813000Y14664085D01*
X2813000Y15055465D01*
X2921000Y15033594D01*
X4445000Y15033594D01*
X4566179Y15056395D01*
X4677474Y15128012D01*
X4752138Y15237286D01*
X4778406Y15367000D01*
X4778406Y16891000D01*
X4755605Y17012179D01*
X4683988Y17123474D01*
X4574714Y17198138D01*
X4445000Y17224406D01*
X2921000Y17224406D01*
X2813000Y17204085D01*
X2813000Y17595465D01*
X2921000Y17573594D01*
X4445000Y17573594D01*
X4566179Y17596395D01*
X4677474Y17668012D01*
X4752138Y17777286D01*
X4778406Y17907000D01*
X4778406Y19431000D01*
X5127594Y19431000D01*
X5127594Y17907000D01*
X5150395Y17785821D01*
X5222012Y17674526D01*
X5331286Y17599862D01*
X5461000Y17573594D01*
X6985000Y17573594D01*
X7106179Y17596395D01*
X7217474Y17668012D01*
X7292138Y17777286D01*
X7318406Y17907000D01*
X7318406Y19431000D01*
X7295605Y19552179D01*
X7223988Y19663474D01*
X7114714Y19738138D01*
X6985000Y19764406D01*
X5461000Y19764406D01*
X5339821Y19741605D01*
X5228526Y19669988D01*
X5153862Y19560714D01*
X5127594Y19431000D01*
X4778406Y19431000D01*
X4755605Y19552179D01*
X4683988Y19663474D01*
X4574714Y19738138D01*
X4445000Y19764406D01*
X2921000Y19764406D01*
X2813000Y19744085D01*
X2813000Y26056141D01*
X2817235Y26060369D01*
X2912891Y26290735D01*
X2913109Y26540171D01*
X2817855Y26770703D01*
X2641631Y26947235D01*
X2411265Y27042891D01*
X2161829Y27043109D01*
X2112999Y27022933D01*
X2112999Y27529709D01*
X2631290Y28048000D01*
X4847141Y28048000D01*
X4851369Y28043765D01*
X5081735Y27948109D01*
X5331171Y27947891D01*
X5561703Y28043145D01*
X5738235Y28219369D01*
X5833891Y28449735D01*
X5834109Y28699171D01*
X5738855Y28929703D01*
X5562631Y29106235D01*
X5332265Y29201891D01*
X5082829Y29202109D01*
X4852297Y29106855D01*
X4847434Y29102000D01*
X2413000Y29102000D01*
X2211325Y29061885D01*
X2040355Y28947645D01*
X1213354Y28120644D01*
X1099114Y27949674D01*
X1089686Y27902276D01*
X1058999Y27747999D01*
X631000Y27747999D01*
X631000Y36639500D01*
X5191094Y36639500D01*
X5191094Y35115500D01*
X5213895Y34994321D01*
X5285512Y34883026D01*
X5394786Y34808362D01*
X5524500Y34782094D01*
X7048500Y34782094D01*
X7169679Y34804895D01*
X7280974Y34876512D01*
X7355638Y34985786D01*
X7381906Y35115500D01*
X7381906Y36639500D01*
X7359105Y36760679D01*
X7287488Y36871974D01*
X7178214Y36946638D01*
X7048500Y36972906D01*
X5524500Y36972906D01*
X5403321Y36950105D01*
X5292026Y36878488D01*
X5217362Y36769214D01*
X5191094Y36639500D01*
X631000Y36639500D01*
X631000Y39179500D01*
X2651094Y39179500D01*
X2651094Y37655500D01*
X2673895Y37534321D01*
X2745512Y37423026D01*
X2854786Y37348362D01*
X2984500Y37322094D01*
X4508500Y37322094D01*
X4629679Y37344895D01*
X4740974Y37416512D01*
X4815638Y37525786D01*
X4841906Y37655500D01*
X4841906Y39179500D01*
X5191094Y39179500D01*
X5191094Y37655500D01*
X5213895Y37534321D01*
X5285512Y37423026D01*
X5394786Y37348362D01*
X5524500Y37322094D01*
X7048500Y37322094D01*
X7169679Y37344895D01*
X7280974Y37416512D01*
X7355638Y37525786D01*
X7381906Y37655500D01*
X7381906Y39179500D01*
X7359105Y39300679D01*
X7287488Y39411974D01*
X7178214Y39486638D01*
X7048500Y39512906D01*
X5524500Y39512906D01*
X5403321Y39490105D01*
X5292026Y39418488D01*
X5217362Y39309214D01*
X5191094Y39179500D01*
X4841906Y39179500D01*
X4819105Y39300679D01*
X4747488Y39411974D01*
X4638214Y39486638D01*
X4508500Y39512906D01*
X2984500Y39512906D01*
X2863321Y39490105D01*
X2752026Y39418488D01*
X2677362Y39309214D01*
X2651094Y39179500D01*
X631000Y39179500D01*
X631000Y42926000D01*
X11350594Y42926000D01*
X11350594Y41402000D01*
X11373395Y41280821D01*
X11445012Y41169526D01*
X11554286Y41094862D01*
X11684000Y41068594D01*
X13208000Y41068594D01*
X13329179Y41091395D01*
X13440474Y41163012D01*
X13515138Y41272286D01*
X13541406Y41402000D01*
X13541406Y42926000D01*
X13890594Y42926000D01*
X13890594Y41402000D01*
X13913395Y41280821D01*
X13985012Y41169526D01*
X14094286Y41094862D01*
X14224000Y41068594D01*
X15748000Y41068594D01*
X15869179Y41091395D01*
X15980474Y41163012D01*
X16055138Y41272286D01*
X16081406Y41402000D01*
X16081406Y42926000D01*
X16058605Y43047179D01*
X15986988Y43158474D01*
X15877714Y43233138D01*
X15748000Y43259406D01*
X14224000Y43259406D01*
X14102821Y43236605D01*
X13991526Y43164988D01*
X13916862Y43055714D01*
X13890594Y42926000D01*
X13541406Y42926000D01*
X13518605Y43047179D01*
X13446988Y43158474D01*
X13337714Y43233138D01*
X13208000Y43259406D01*
X11684000Y43259406D01*
X11562821Y43236605D01*
X11451526Y43164988D01*
X11376862Y43055714D01*
X11350594Y42926000D01*
X631000Y42926000D01*
X631000Y46355000D01*
X22272594Y46355000D01*
X22272594Y44831000D01*
X22295395Y44709821D01*
X22367012Y44598526D01*
X22476286Y44523862D01*
X22606000Y44497594D01*
X24130000Y44497594D01*
X24251179Y44520395D01*
X24362474Y44592012D01*
X24437138Y44701286D01*
X24463406Y44831000D01*
X24463406Y46355000D01*
X24440605Y46476179D01*
X24368988Y46587474D01*
X24259714Y46662138D01*
X24130000Y46688406D01*
X22606000Y46688406D01*
X22484821Y46665605D01*
X22373526Y46593988D01*
X22298862Y46484714D01*
X22272594Y46355000D01*
X631000Y46355000D01*
X631000Y48895000D01*
X22272594Y48895000D01*
X22272594Y47371000D01*
X22295395Y47249821D01*
X22367012Y47138526D01*
X22476286Y47063862D01*
X22606000Y47037594D01*
X24130000Y47037594D01*
X24251179Y47060395D01*
X24362474Y47132012D01*
X24437138Y47241286D01*
X24463406Y47371000D01*
X24463406Y48895000D01*
X24440605Y49016179D01*
X24368988Y49127474D01*
X24259714Y49202138D01*
X24130000Y49228406D01*
X22606000Y49228406D01*
X22484821Y49205605D01*
X22373526Y49133988D01*
X22298862Y49024714D01*
X22272594Y48895000D01*
X631000Y48895000D01*
X631000Y50169000D01*
X40009000Y50169000D01*
X40009000Y631000D01*
M02*
