%
T1C.025F197S55
X01978Y01509
X01965Y02251
X0155Y0258
X0128Y0258
X0155Y0265
X0128Y0265
X01359Y04991
X01539Y04993
X01719Y04994
X01404Y0557
X02259Y03822
X02375Y03375
X02017Y02
X02168Y02
X02442Y02
X02292Y02
X02293Y0176
X02018Y0176
X02168Y0176
X02442Y0176
X02513Y01545
X02483Y02251
X02922Y02881
X02794Y02915
X02608Y03128
X02598Y03285
X02714Y03422
X02796Y0345
X02608Y03544
X02604Y03696
X02796Y03872
X02714Y03893
X0305Y0518
X0305Y0489
X03152Y04644
X03441Y04575
X0305Y0454
X03441Y04175
X0305Y0413
X03145Y04123
X03389Y04104
X03151Y03727
X03308Y03727
X03383Y03727
X03383Y03632
X02995Y03601
X02989Y0341
X03095Y0331
X0299Y0331
X02993Y03192
X03291Y03141
X03291Y03033
X03033Y03031
X0315Y03031
X03368Y03031
X03083Y0272
X03259Y0271
X03473Y02655
X03169Y02644
X03567Y01509
X03607Y0176
X03882Y0176
X03758Y0176
X03607Y02
X03882Y02
X03758Y02
X03556Y02238
X03502Y03034
X03686Y03199
X03686Y03297
X03591Y03297
X03686Y03369
X03586Y03434
X03686Y03434
X03633Y03727
X03486Y03727
X0378Y0402
X03481Y04123
X04159Y05376
X04009Y0371
X04147Y03692
X04147Y03434
X04077Y03434
X04105Y03122
X03989Y03049
X04072Y02251
X04033Y02
X04033Y0176
X04074Y01508
X0476Y0145
X0493Y0186
X047Y02544
X0464Y0278
X04714Y0278
X0455Y02787
X0455Y02977
X04714Y0306
X0464Y0306
X04482Y03124
X0503Y0519
X0515Y0519
X0503Y0511
X0515Y0511
X05018Y033
X05142Y0306
X05142Y0278
X04991Y02002
X051Y0185
T2C.02913F197S55
X024603Y03226
X024997Y03276
X024997Y03326
X024603Y03376
X024997Y03426
X024997Y03476
X024603Y03526
X049327Y0345
X048933Y034
X048933Y0335
X049327Y033
X048933Y0325
X048933Y032
X049327Y0315
T3C.03F197S55
X0204Y045
X0214Y045
X0224Y045
X0234Y045
X0244Y045
X0204Y051
X0214Y051
X0244Y051
X0234Y051
X0224Y051
X0254Y051
X0415Y051
X0405Y051
X0415Y045
X0254Y045
X0405Y045
X0445Y045
X0425Y045
X0435Y045
X0455Y045
X0445Y051
X0435Y051
X0425Y051
X0455Y051
T4C.035F197S55
X0165Y012
X0155Y012
X0165Y013
X0155Y013
X0165Y014
X0155Y014
X0133Y0173
X0143Y0173
X0123Y0173
X0153Y0173
X0166Y0175
X0166Y0199
X01397Y02374
X01697Y02374
X01597Y02374
X01497Y02374
X0146Y0251
X0136Y0251
X0166Y0251
X01318Y02741
X01578Y02741
X01488Y02741
X01578Y02993
X01488Y02993
X01318Y02993
X0158Y034
X0148Y034
X0138Y034
X0168Y034
X0138Y035
X0148Y035
X0168Y035
X0158Y035
X0138Y0371
X0148Y0371
X0158Y0371
X0168Y0371
X0138Y0401
X0168Y0401
X0158Y0401
X0148Y0401
X0188Y0401
X0178Y0401
X0178Y0371
X0188Y0371
X0188Y035
X0178Y035
X0188Y034
X0178Y034
X01838Y02993
X01748Y02993
X01838Y02741
X01748Y02741
X0186Y0251
X0196Y0251
X01797Y02374
X01897Y02374
X0176Y0199
X0176Y0175
X0175Y014
X0185Y014
X0195Y014
X0175Y013
X0185Y013
X0195Y013
X0195Y012
X0185Y012
X0175Y012
X0215Y012
X0205Y012
X0215Y013
X0205Y013
X0215Y014
X0205Y014
X01997Y02374
X02197Y02374
X02097Y02374
X0216Y0251
X02098Y02741
X02008Y02741
X02008Y02993
X02098Y02993
X0208Y034
X0198Y034
X0208Y035
X0198Y035
X0198Y0371
X0208Y0371
X0208Y0401
X0198Y0401
X02427Y03881
X02527Y03881
X02268Y02993
X02456Y02762
X02656Y02762
X02556Y02762
X02268Y02741
X02456Y02662
X02656Y02662
X02556Y02662
X02726Y02447
X02626Y02447
X02526Y02447
X02426Y02447
X02297Y02374
X02726Y02347
X02626Y02347
X02526Y02347
X02426Y02347
X027Y0199
X027Y0175
X0235Y014
X0225Y014
X0245Y014
X0265Y014
X0255Y014
X0245Y013
X0235Y013
X0265Y013
X0255Y013
X0225Y013
X0265Y012
X0235Y012
X0225Y012
X0245Y012
X0255Y012
X0275Y012
X0285Y012
X0295Y012
X0305Y012
X0315Y012
X0295Y013
X0285Y013
X0275Y013
X0315Y013
X0305Y013
X0295Y014
X0285Y014
X0275Y014
X0315Y014
X0305Y014
X028Y0175
X028Y0199
X03226Y02347
X03126Y02347
X03026Y02347
X02926Y02347
X02826Y02347
X03126Y02447
X02826Y02447
X03226Y02447
X03026Y02447
X02926Y02447
X02756Y02662
X02756Y02762
X03513Y02711
X03326Y02447
X03426Y02447
X03726Y02447
X03626Y02447
X03526Y02447
X03326Y02347
X03426Y02347
X03726Y02347
X03626Y02347
X03526Y02347
X0336Y0199
X0326Y0199
X0336Y0175
X0326Y0175
X0365Y014
X0355Y014
X0335Y014
X0325Y014
X0345Y014
X0355Y013
X0335Y013
X0365Y013
X0325Y013
X0345Y013
X0335Y012
X0345Y012
X0325Y012
X0355Y012
X0365Y012
X0375Y012
X0385Y012
X0395Y012
X0395Y013
X0385Y013
X0375Y013
X0385Y014
X0375Y014
X0395Y014
X03926Y02347
X03826Y02347
X03826Y02447
X03926Y02447
X03811Y02621
X03911Y02621
X03911Y02721
X03811Y02721
X03942Y03865
X03942Y03965
X0408Y041774
X04257Y041774
X04433Y041774
X0408Y040786
X04257Y040786
X04433Y040786
X04042Y03965
X04142Y03965
X04456Y0396
X04356Y0396
X04256Y0396
X04142Y03865
X04042Y03865
X04256Y0386
X04456Y0386
X04356Y0386
X042836Y02717
X043824Y02717
X04226Y02447
X04426Y02447
X04326Y02447
X04026Y02447
X04126Y02447
X04126Y02347
X04026Y02347
X04426Y02347
X04326Y02347
X04226Y02347
X0428Y0199
X0438Y0199
X0438Y0175
X0428Y0175
X0425Y014
X0445Y014
X0415Y014
X0405Y014
X0435Y014
X0425Y013
X0415Y013
X0405Y013
X0445Y013
X0435Y013
X0445Y012
X0405Y012
X0435Y012
X0425Y012
X0415Y012
X0455Y012
X0465Y012
X0465Y013
X0455Y013
X0495Y0135
X0485Y0135
X0465Y014
X0455Y014
X0495Y0145
X0485Y0145
X04526Y02347
X04526Y02447
X0448Y0265
X0488Y0265
X0478Y0265
X0477Y03728
X0497Y03728
X0457Y03728
X0487Y03728
X0467Y03728
X0487Y03828
X0457Y03828
X0467Y03828
X0477Y03828
X0497Y03828
X0496Y040786
X04785Y040786
X04608Y040786
X04785Y041774
X0496Y041774
X04608Y041774
X0494Y0529
X0494Y0539
X0494Y0549
X0494Y0561
X0494Y0571
X0494Y0581
X0504Y0581
X0504Y0571
X0504Y0561
X0504Y0549
X0535Y054894
X0535Y053906
X0504Y0539
X0504Y0529
X05135Y041774
X05311Y041774
X05135Y040786
X05311Y040786
X0507Y03828
X0527Y03828
X0517Y03828
X0527Y03728
X0517Y03728
X0507Y03728
X0508Y0265
X0498Y0265
X0528Y0265
X0537Y0251
X0537Y0241
X0537Y0231
X0537Y0221
X0537Y0211
X0537Y0201
X0537Y0191
X0537Y0181
X0537Y0171
X0537Y0161
X0505Y0145
X0505Y0135
T5C.037F197S55
X019097Y0534
X019998Y0534
X0209Y0534
X021802Y0534
X018646Y0544
X019548Y0544
X020449Y0544
X021351Y0544
X022252Y0544
X019097Y0554
X019998Y0554
X0209Y0554
X021802Y0554
X022703Y0554
X022703Y0534
T6C.04F139S55
X029261Y054535
X031939Y054535
X030088Y055519
X031939Y055519
X031112Y055519
X029261Y055519
X036788Y055519
X035961Y055519
X038639Y055519
X037812Y055519
X035961Y054535
X038639Y054535
T7C.052F107S55
X04269Y05783
X04819Y05783
T8C.05315F107S55
X0248Y031209
X0248Y036311
X04913Y035551
X04913Y030449
T9C.09F066S55
X027943Y0567
X033257Y0567
X034643Y0567
X039957Y0567
T10C.098F066S55
X0306Y057015
X0373Y057015
T11C.12F035S794
X015979Y0544
X025821Y0544
T12C.12598F035S794
X013Y013
X013Y057
X053Y057
X053Y013
M30
