M48
;DRILL file {KiCad (6.0.0-rc1-dev-205-gc0615c5ef)} date 05/29/19 12:15:14
;FORMAT={3:3/ absolute / metric / suppress leading zeros}
FMAT,2
METRIC,TZ
T1C0.400
T2C0.889
T3C1.300
T4C3.000
%
G90
G05
M71
T1
X1016Y24384
X6096Y15748
X7112Y15748
X8128Y15240
X9144Y31496
X9144Y15240
X10668Y33020
X10668Y31496
X11684Y33020
X11684Y14732
X12192Y8636
X13208Y8636
X13716Y24384
X13716Y23368
X13716Y22352
X13716Y21336
X14224Y8636
X14732Y24384
X14732Y23368
X14732Y22352
X14732Y21336
X15748Y24384
X15748Y23368
X15748Y22352
X15748Y21336
X15748Y13716
X16256Y25400
X16764Y24384
X16764Y23368
X16764Y22352
X16764Y21336
X16764Y13716
X17272Y26416
X17272Y18796
X17780Y25400
X17780Y24384
X17780Y23368
X17780Y22352
X17780Y21336
X18288Y33020
X18288Y26416
X18796Y25400
X18796Y24384
X18796Y23368
X18796Y22352
X18796Y21336
X19304Y33020
X20320Y33020
X20828Y38100
X20828Y34036
X21336Y33020
X21336Y12700
X21844Y38100
X21844Y34036
X22352Y33020
X22860Y38100
X22860Y34036
X23876Y2032
X24892Y2032
X25908Y38100
X25908Y2032
X26924Y2032
X27940Y2032
X28956Y2032
X29464Y24892
X29972Y13208
X29972Y2032
X30480Y14224
X30988Y11684
X30988Y2032
X31496Y14224
X32004Y2032
X32512Y14224
X33020Y2032
X33528Y25400
X33528Y24384
X33528Y23368
X33528Y14224
X34036Y26416
X34036Y13208
X34036Y12192
X34036Y11176
X34036Y2032
X34544Y37084
X34544Y25400
X34544Y24384
X34544Y23368
X34544Y14224
X34544Y9581
X35052Y26924
X35052Y2032
X35560Y25400
X35560Y24384
X35560Y14224
X36068Y26924
X36068Y22352
X36576Y13716
X37084Y26924
X37592Y13716
X38100Y26924
X38608Y13716
X39116Y26924
X39624Y13716
X40132Y38100
X40132Y37084
X40132Y36068
X40132Y26924
X40132Y12700
X40132Y11684
X40132Y10668
X40132Y9652
X40640Y13716
X41148Y38100
X41148Y37084
X41148Y36068
X41148Y27940
X41148Y26924
X41148Y22352
X41148Y15748
X41148Y14732
X41148Y12700
X41148Y11684
X41148Y10668
X41148Y9652
X41656Y28956
X41656Y25908
X41656Y24892
X41656Y23876
X41656Y13716
X42164Y38100
X42164Y37084
X42164Y27940
X42164Y26924
X42164Y16764
X42164Y15748
X42164Y14732
X42164Y12192
X42164Y11176
X42164Y3556
X42164Y2540
X42164Y1524
X42672Y25908
X42672Y24892
X42672Y23876
X43180Y38100
X43180Y37084
X43180Y16764
X43180Y15748
X43180Y14732
X43180Y13716
X43180Y12192
X43180Y11176
X43180Y3556
X43180Y2540
X43180Y1524
X43688Y25908
X43688Y24892
X43688Y23876
X44196Y38100
X44196Y37084
X44196Y16764
X44196Y15748
X44196Y14732
X44196Y13716
X44196Y12192
X44196Y11176
X44196Y3556
X44196Y2540
X44196Y1524
X44704Y25908
X44704Y24892
X44704Y23876
X45212Y38100
X45212Y37084
X45212Y3556
X45212Y2540
X45212Y1524
X46228Y38100
X46228Y37084
X46228Y36068
X46228Y20320
X46228Y7112
X46228Y3556
X46228Y2540
X46228Y1524
X47244Y38100
X47244Y37084
X47244Y36068
X52070Y36322
X57912Y15748
X57912Y14732
X57912Y13716
X57912Y12700
X57912Y11684
X58420Y2540
X58420Y1524
X58928Y28956
X58928Y27940
X58928Y26924
X58928Y25908
X58928Y24892
X58928Y15748
X58928Y14732
X58928Y13716
X58928Y12700
X58928Y11684
X59436Y2540
X59436Y1524
X59944Y28956
X59944Y27940
X59944Y26924
X59944Y25908
X59944Y24892
X59944Y15748
X59944Y14732
X59944Y13716
X59944Y12700
X59944Y11684
X60452Y2540
X60452Y1524
X60960Y28956
X60960Y27940
X60960Y26924
X60960Y25908
X60960Y24892
X60960Y15748
X60960Y14732
X60960Y13716
X60960Y12700
X60960Y11684
X61468Y2540
X61468Y1524
X61976Y28956
X61976Y27940
X61976Y26924
X61976Y25908
X61976Y24892
X61976Y15748
X61976Y14732
X61976Y13716
X61976Y12700
X61976Y11684
X62484Y2540
X62484Y1524
X62992Y28956
X62992Y27940
X62992Y26924
X62992Y25908
X62992Y24892
X63500Y2540
X63500Y1524
X64516Y3556
X64516Y2540
X64516Y1524
X65532Y3556
X65532Y2540
X65532Y1524
X70104Y4572
X71120Y4572
X72136Y4572
X73152Y4572
X74168Y4572
X75184Y4572
X76200Y4572
X77216Y4572
X78232Y4572
X79248Y4572
X80264Y9144
X80264Y8128
X80264Y6604
X80264Y5588
X80264Y4572
T2
X59690Y9652
X59690Y7112
X59690Y4572
X62230Y9652
X62230Y7112
X62230Y4572
X18796Y7620
X59690Y22860
X59690Y20320
X59690Y17780
X62230Y22860
X62230Y20320
X62230Y17780
X16256Y7620
X16256Y2540
X21336Y2540
X16256Y5080
X18796Y5080
X11430Y37084
X11430Y34544
X13970Y37084
X13970Y34544
X16510Y37084
X16510Y34544
X19050Y37084
X19050Y34544
X18796Y2540
X21336Y5080
X59690Y36068
X59690Y33528
X59690Y30988
X62230Y36068
X62230Y33528
X62230Y30988
X21336Y7620
T3
X71628Y12700
X76628Y12700
X71628Y22860
X76628Y22860
X71628Y17780
X76628Y17780
X71628Y33020
X76628Y33020
X71628Y7620
X76628Y7620
X5668Y27940
X10668Y27940
X5668Y22860
X10668Y22860
X71628Y27940
X76628Y27940
T4
X86360Y35560
X5080Y5080
X86360Y5080
X5080Y35560
T0
M30
