G04 #@! TF.FileFunction,Copper,L1,Top,Signal*
%FSLAX46Y46*%
G04 Gerber Fmt 4.6, Leading zero omitted, Abs format (unit mm)*
G04 Created by KiCad (PCBNEW no-vcs-found-undefined) date Sun Nov 13 20:57:18 2016*
%MOMM*%
%LPD*%
G01*
G04 APERTURE LIST*
%ADD10C,0.150000*%
%ADD11C,2.700020*%
%ADD12C,1.524000*%
%ADD13C,6.000000*%
%ADD14R,1.524000X1.524000*%
%ADD15C,1.501140*%
%ADD16C,0.800000*%
%ADD17C,0.400000*%
%ADD18C,0.300000*%
%ADD19C,0.200000*%
%ADD20C,0.600000*%
%ADD21C,0.800000*%
%ADD22C,0.254000*%
G04 APERTURE END LIST*
D10*
D11*
X10541000Y14701520D03*
X10541000Y26700480D03*
D12*
X13241020Y21971000D03*
X13241020Y19431000D03*
X15240000Y19431000D03*
X15240000Y21971000D03*
D13*
X66040000Y35560000D03*
X5080000Y35560000D03*
X5080000Y5080000D03*
X66040000Y5080000D03*
D14*
X59182000Y34163000D03*
X59182000Y36703000D03*
X60325000Y29083000D03*
X57785000Y29083000D03*
X57785000Y26543000D03*
X60325000Y26543000D03*
X60325000Y24003000D03*
X57785000Y24003000D03*
X57785000Y21463000D03*
X60325000Y21463000D03*
X57785000Y18923000D03*
X60325000Y18923000D03*
X60325000Y16383000D03*
X57785000Y16383000D03*
X60325000Y13843000D03*
X57785000Y13843000D03*
X57785000Y11303000D03*
X60325000Y11303000D03*
X67564000Y29083000D03*
X65024000Y29083000D03*
X67564000Y26543000D03*
X65024000Y26543000D03*
X65024000Y24003000D03*
X67564000Y24003000D03*
X67564000Y21463000D03*
X65024000Y21463000D03*
X65024000Y18923000D03*
X67564000Y18923000D03*
X67564000Y16383000D03*
X65024000Y16383000D03*
X65024000Y13843000D03*
X67564000Y13843000D03*
X65024000Y11303000D03*
X67564000Y11303000D03*
X49847500Y10096500D03*
X49847500Y12636500D03*
X47307500Y12636500D03*
X47307500Y10096500D03*
X44767500Y10096500D03*
X44767500Y12636500D03*
X42227500Y12636500D03*
X42227500Y10096500D03*
X39687500Y10096500D03*
X39687500Y12636500D03*
X37147500Y12636500D03*
X37147500Y10096500D03*
X34607500Y10096500D03*
X34607500Y12636500D03*
X32067500Y12636500D03*
X32067500Y10096500D03*
X49847500Y2984500D03*
X49847500Y5524500D03*
X47307500Y5524500D03*
X47307500Y2984500D03*
X44767500Y2984500D03*
X44767500Y5524500D03*
X42227500Y2984500D03*
X42227500Y5524500D03*
X39687500Y2984500D03*
X39687500Y5524500D03*
X37147500Y5524500D03*
X37147500Y2984500D03*
X34607500Y5524500D03*
X34607500Y2984500D03*
X32067500Y5524500D03*
X32067500Y2984500D03*
X54229000Y5461000D03*
X54229000Y2921000D03*
X14732000Y3683000D03*
X12192000Y3683000D03*
X14732000Y6223000D03*
X12192000Y6223000D03*
X14732000Y8763000D03*
X12192000Y8763000D03*
X22987000Y17272000D03*
X22987000Y19812000D03*
X25527000Y17272000D03*
X25527000Y19812000D03*
X28067000Y17272000D03*
X28067000Y19812000D03*
D15*
X37691060Y34417000D03*
X42572940Y34417000D03*
D16*
X31546800Y31242000D03*
X27983907Y27743693D03*
X17272000Y18745200D03*
X50901600Y18237196D03*
X55312652Y13605860D03*
X50292000Y14986000D03*
X51308000Y14732000D03*
X43561000Y23748996D03*
X43434000Y25527000D03*
X43561000Y26543000D03*
X41783000Y26670000D03*
X42799000Y24511000D03*
X48107600Y28752800D03*
X49580800Y31038800D03*
X42418000Y28194000D03*
X46652261Y28683612D03*
X45084997Y29336997D03*
X44831000Y28480998D03*
X38862000Y30480000D03*
X7620000Y39116000D03*
X8763000Y38100000D03*
X38608000Y39243000D03*
X37338000Y39243000D03*
X36068000Y39116000D03*
X34798000Y39116000D03*
X20701000Y3048000D03*
X22098000Y3429000D03*
X26416000Y3556000D03*
X26543000Y4953000D03*
X33020000Y19304000D03*
X31242000Y18288000D03*
X30099000Y17145000D03*
X30099000Y15748000D03*
X51689000Y36576000D03*
X45720000Y36703000D03*
X38100000Y32766000D03*
X36322000Y33147000D03*
X35052000Y33147000D03*
X51943000Y4445000D03*
X52070000Y5842000D03*
X51943000Y7493000D03*
X51689000Y10922000D03*
X51054000Y11430000D03*
X51435000Y13716000D03*
X45339000Y25400000D03*
X45339000Y26543000D03*
X46355000Y27305000D03*
X33912391Y27066642D03*
X33051780Y20597533D03*
X52933600Y27279602D03*
X34289998Y30584967D03*
X36449002Y24765000D03*
X49911000Y37719000D03*
X54813200Y29667200D03*
X47764043Y25922389D03*
X47735779Y24922776D03*
X47759488Y23923045D03*
X47681352Y22926090D03*
X48310800Y22148800D03*
X50393600Y20015200D03*
X47614228Y20864358D03*
X46685200Y21234400D03*
X44196000Y21082000D03*
X42802615Y22974551D03*
X41991331Y23559223D03*
X41263903Y24309233D03*
X40285763Y24643155D03*
X39445885Y25185952D03*
X40045640Y26060401D03*
X39869006Y27044690D03*
X52197000Y12699994D03*
X32715202Y26466800D03*
X36957000Y27178002D03*
X32408816Y21982416D03*
X29819600Y22961600D03*
X43942000Y36322000D03*
X44196000Y32766000D03*
X40060880Y28041600D03*
X22987000Y24003000D03*
X44069000Y29210000D03*
X43524451Y28371257D03*
D17*
X31546800Y31242000D02*
X33451800Y33147000D01*
X33451800Y33147000D02*
X35052000Y33147000D01*
X23882893Y27743693D02*
X27983907Y27743693D01*
X17272000Y21132800D02*
X23882893Y27743693D01*
X17272000Y18745200D02*
X17272000Y21132800D01*
D18*
X55312652Y13605860D02*
X50901600Y18016912D01*
D19*
X50949068Y18284664D02*
X50901600Y18237196D01*
X50949068Y18399070D02*
X50949068Y18284664D01*
D18*
X50901600Y18016912D02*
X50901600Y18237196D01*
X42799000Y24511000D02*
X43561000Y23749000D01*
X43561000Y23749000D02*
X43561000Y23748996D01*
X41783000Y26670000D02*
X43434000Y26670000D01*
X43434000Y26670000D02*
X43561000Y26543000D01*
X44831000Y29083000D02*
X45084997Y29336997D01*
X44831000Y28480998D02*
X44831000Y29083000D01*
X46355000Y27305000D02*
X46355000Y28386351D01*
X46355000Y28386351D02*
X46652261Y28683612D01*
D19*
X8763000Y38100000D02*
X8636000Y38100000D01*
X8636000Y38100000D02*
X7620000Y39116000D01*
X37338000Y39243000D02*
X38608000Y39243000D01*
X34798000Y39116000D02*
X36068000Y39116000D01*
X22098000Y3429000D02*
X21082000Y3429000D01*
X21082000Y3429000D02*
X20701000Y3048000D01*
X26543000Y4953000D02*
X26543000Y3683000D01*
X26543000Y3683000D02*
X26416000Y3556000D01*
X30099000Y17145000D02*
X31242000Y18288000D01*
X28067000Y17272000D02*
X28067000Y16310000D01*
X28067000Y16310000D02*
X28629000Y15748000D01*
X28629000Y15748000D02*
X30099000Y15748000D01*
X35052000Y33147000D02*
X36322000Y33147000D01*
D18*
X52070000Y5842000D02*
X52070000Y4572000D01*
X52070000Y4572000D02*
X51943000Y4445000D01*
X51689000Y10922000D02*
X51689000Y7747000D01*
X51689000Y7747000D02*
X51943000Y7493000D01*
X51435000Y13716000D02*
X51435000Y11811000D01*
X51435000Y11811000D02*
X51054000Y11430000D01*
X46355000Y27305000D02*
X46101000Y27305000D01*
X46101000Y27305000D02*
X45339000Y26543000D01*
D20*
X33912391Y24895391D02*
X33912391Y27066642D01*
X33909000Y24892000D02*
X33912391Y24895391D01*
X33909000Y21454753D02*
X33051780Y20597533D01*
X33909000Y24892000D02*
X33909000Y21454753D01*
X49911000Y33147000D02*
X52933600Y30124400D01*
X52933600Y30124400D02*
X52933600Y27279602D01*
X35328031Y31623000D02*
X34289998Y30584967D01*
X48387000Y31623000D02*
X35328031Y31623000D01*
X36449002Y24765000D02*
X34036000Y24765000D01*
X34036000Y24765000D02*
X33909000Y24892000D01*
X49911000Y33147000D02*
X49911000Y37719000D01*
X48387000Y31623000D02*
X49911000Y33147000D01*
D21*
X25527000Y19812000D02*
X25527000Y19876002D01*
D18*
X55748200Y29667200D02*
X54813200Y29667200D01*
X59182000Y34163000D02*
X59182000Y33101000D01*
X59182000Y33101000D02*
X55748200Y29667200D01*
X54624389Y25922389D02*
X47764043Y25922389D01*
X63962000Y29083000D02*
X62849999Y27970999D01*
X56672999Y27970999D02*
X54624389Y25922389D01*
X62849999Y27970999D02*
X56672999Y27970999D01*
X65024000Y29083000D02*
X63962000Y29083000D01*
X62819000Y25400000D02*
X55372000Y25400000D01*
X55372000Y25400000D02*
X54894776Y24922776D01*
X54894776Y24922776D02*
X47735779Y24922776D01*
X65024000Y26543000D02*
X63962000Y26543000D01*
X63962000Y26543000D02*
X62819000Y25400000D01*
X62799951Y22840951D02*
X56134000Y22840951D01*
X55051906Y23923045D02*
X47759488Y23923045D01*
X56134000Y22840951D02*
X55051906Y23923045D01*
X63962000Y24003000D02*
X62799951Y22840951D01*
X65024000Y24003000D02*
X63962000Y24003000D01*
X56134000Y20350999D02*
X53558909Y22926090D01*
X63962000Y21463000D02*
X62849999Y20350999D01*
X62849999Y20350999D02*
X56134000Y20350999D01*
X65024000Y21463000D02*
X63962000Y21463000D01*
X53558909Y22926090D02*
X47681352Y22926090D01*
X62819000Y17780000D02*
X53789604Y17780000D01*
X49420804Y22148800D02*
X48310800Y22148800D01*
X53789604Y17780000D02*
X49420804Y22148800D01*
X63962000Y18923000D02*
X62819000Y17780000D01*
X65024000Y18923000D02*
X63962000Y18923000D01*
X55137801Y15270999D02*
X50393600Y20015200D01*
X62849999Y15270999D02*
X55137801Y15270999D01*
X63962000Y16383000D02*
X62849999Y15270999D01*
X65024000Y16383000D02*
X63962000Y16383000D01*
X47614228Y20243609D02*
X47614228Y20864358D01*
X63962000Y13843000D02*
X62849999Y12730999D01*
X62849999Y12730999D02*
X55126838Y12730999D01*
X55126838Y12730999D02*
X47614228Y20243609D01*
X65024000Y13843000D02*
X63962000Y13843000D01*
X63962000Y11303000D02*
X62849999Y10190999D01*
X65024000Y11303000D02*
X63962000Y11303000D01*
X62849999Y10190999D02*
X56742999Y10190999D01*
X56742999Y10190999D02*
X56672999Y10260999D01*
X56672999Y10260999D02*
X56672999Y10477716D01*
X56672999Y10477716D02*
X46685200Y20465515D01*
X46685200Y20465515D02*
X46685200Y21234400D01*
X44196000Y21082000D02*
X44196000Y20066000D01*
X44196000Y20066000D02*
X48735499Y15526501D01*
X48735499Y15526501D02*
X48735499Y7698501D01*
X48735499Y7698501D02*
X49847500Y6586500D01*
X49847500Y6586500D02*
X49847500Y5524500D01*
X46195499Y7698501D02*
X46195499Y14129501D01*
X46195499Y14129501D02*
X42802615Y17522385D01*
X42802615Y17522385D02*
X42802615Y22974551D01*
X47307500Y5524500D02*
X47307500Y6586500D01*
X47307500Y6586500D02*
X46195499Y7698501D01*
X43655499Y7698501D02*
X43655499Y15557500D01*
X43655499Y15557500D02*
X41991331Y17221668D01*
X44767500Y5524500D02*
X44767500Y6586500D01*
X41991331Y17221668D02*
X41991331Y23559223D01*
X44767500Y6586500D02*
X43655499Y7698501D01*
X42227500Y5524500D02*
X42227500Y6586500D01*
X40995600Y24040930D02*
X41263903Y24309233D01*
X42227500Y6586500D02*
X40995600Y7818400D01*
X40995600Y7818400D02*
X40995600Y24040930D01*
X39687500Y6586500D02*
X38575499Y7698501D01*
X39687500Y5524500D02*
X39687500Y6586500D01*
X40285763Y15388765D02*
X40285763Y24643155D01*
X38575499Y7698501D02*
X38575499Y13678501D01*
X38575499Y13678501D02*
X40285763Y15388765D01*
X39445885Y18926765D02*
X39445885Y25185952D01*
X38212611Y17693491D02*
X39445885Y18926765D01*
X36035499Y15548880D02*
X38180110Y17693491D01*
X37147500Y6586500D02*
X36035499Y7698501D01*
X36035499Y7698501D02*
X36035499Y15548880D01*
X37147500Y5524500D02*
X37147500Y6586500D01*
X38180110Y17693491D02*
X38212611Y17693491D01*
X34607500Y5524500D02*
X34607500Y6586500D01*
X33495499Y14953499D02*
X38481000Y19939000D01*
X38481000Y19939000D02*
X38481000Y25517985D01*
X38481000Y25517985D02*
X39023416Y26060401D01*
X33495499Y7698501D02*
X33495499Y14953499D01*
X39023416Y26060401D02*
X40045640Y26060401D01*
X34607500Y6586500D02*
X33495499Y7698501D01*
X37667915Y20428416D02*
X37667915Y25536002D01*
X30955499Y13716000D02*
X37667915Y20428416D01*
X32067500Y6586500D02*
X30955499Y7698501D01*
X37667915Y25536002D02*
X39176603Y27044690D01*
X32067500Y5524500D02*
X32067500Y6586500D01*
X39176603Y27044690D02*
X39869006Y27044690D01*
X30955499Y7698501D02*
X30955499Y13716000D01*
D17*
X54229000Y10667994D02*
X52197000Y12699994D01*
X54229000Y5461000D02*
X54229000Y10667994D01*
D18*
X36318359Y27816643D02*
X33499360Y27816643D01*
X36957000Y27178002D02*
X36318359Y27816643D01*
X33499360Y27816643D02*
X32715202Y27032485D01*
X32715202Y27032485D02*
X32715202Y26466800D01*
X31429632Y22961600D02*
X32408816Y21982416D01*
X29819600Y22961600D02*
X31429632Y22961600D01*
X44196000Y32766000D02*
X44196000Y36068000D01*
X44196000Y36068000D02*
X43942000Y36322000D01*
X39572504Y28529976D02*
X40060880Y28041600D01*
X33388938Y28529976D02*
X39572504Y28529976D01*
X28861962Y24003000D02*
X33388938Y28529976D01*
X22987000Y24003000D02*
X28861962Y24003000D01*
X44069000Y29210000D02*
X43669001Y29609999D01*
X19787190Y29609999D02*
X14020800Y23843609D01*
X43669001Y29609999D02*
X19787190Y29609999D01*
X14020800Y23843609D02*
X14020800Y22750780D01*
X14020800Y22750780D02*
X13241020Y21971000D01*
X15240000Y21971000D02*
X14630400Y22580600D01*
X14630400Y22580600D02*
X14630400Y23622000D01*
X14630400Y23622000D02*
X20116800Y29108400D01*
X20116800Y29108400D02*
X42787308Y29108400D01*
X42787308Y29108400D02*
X43524451Y28371257D01*
D22*
G36*
X70464000Y656000D02*
X656000Y656000D01*
X656000Y3746500D01*
X30972094Y3746500D01*
X30972094Y2222500D01*
X30997473Y2094911D01*
X31069746Y1986746D01*
X31177911Y1914473D01*
X31305500Y1889094D01*
X32829500Y1889094D01*
X32957089Y1914473D01*
X33065254Y1986746D01*
X33137527Y2094911D01*
X33162906Y2222500D01*
X33162906Y3746500D01*
X33512094Y3746500D01*
X33512094Y2222500D01*
X33537473Y2094911D01*
X33609746Y1986746D01*
X33717911Y1914473D01*
X33845500Y1889094D01*
X35369500Y1889094D01*
X35497089Y1914473D01*
X35605254Y1986746D01*
X35677527Y2094911D01*
X35702906Y2222500D01*
X35702906Y3746500D01*
X36052094Y3746500D01*
X36052094Y2222500D01*
X36077473Y2094911D01*
X36149746Y1986746D01*
X36257911Y1914473D01*
X36385500Y1889094D01*
X37909500Y1889094D01*
X38037089Y1914473D01*
X38145254Y1986746D01*
X38217527Y2094911D01*
X38242906Y2222500D01*
X38242906Y3746500D01*
X38592094Y3746500D01*
X38592094Y2222500D01*
X38617473Y2094911D01*
X38689746Y1986746D01*
X38797911Y1914473D01*
X38925500Y1889094D01*
X40449500Y1889094D01*
X40577089Y1914473D01*
X40685254Y1986746D01*
X40757527Y2094911D01*
X40782906Y2222500D01*
X40782906Y3746500D01*
X41132094Y3746500D01*
X41132094Y2222500D01*
X41157473Y2094911D01*
X41229746Y1986746D01*
X41337911Y1914473D01*
X41465500Y1889094D01*
X42989500Y1889094D01*
X43117089Y1914473D01*
X43225254Y1986746D01*
X43297527Y2094911D01*
X43322906Y2222500D01*
X43322906Y3746500D01*
X43672094Y3746500D01*
X43672094Y2222500D01*
X43697473Y2094911D01*
X43769746Y1986746D01*
X43877911Y1914473D01*
X44005500Y1889094D01*
X45529500Y1889094D01*
X45657089Y1914473D01*
X45765254Y1986746D01*
X45837527Y2094911D01*
X45862906Y2222500D01*
X45862906Y3746500D01*
X46212094Y3746500D01*
X46212094Y2222500D01*
X46237473Y2094911D01*
X46309746Y1986746D01*
X46417911Y1914473D01*
X46545500Y1889094D01*
X48069500Y1889094D01*
X48197089Y1914473D01*
X48305254Y1986746D01*
X48377527Y2094911D01*
X48402906Y2222500D01*
X48402906Y3746500D01*
X48752094Y3746500D01*
X48752094Y2222500D01*
X48777473Y2094911D01*
X48849746Y1986746D01*
X48957911Y1914473D01*
X49085500Y1889094D01*
X50609500Y1889094D01*
X50737089Y1914473D01*
X50845254Y1986746D01*
X50917527Y2094911D01*
X50942906Y2222500D01*
X50942906Y3683000D01*
X53133594Y3683000D01*
X53133594Y2159000D01*
X53158973Y2031411D01*
X53231246Y1923246D01*
X53339411Y1850973D01*
X53467000Y1825594D01*
X54991000Y1825594D01*
X55118589Y1850973D01*
X55226754Y1923246D01*
X55299027Y2031411D01*
X55324406Y2159000D01*
X55324406Y3683000D01*
X55299027Y3810589D01*
X55226754Y3918754D01*
X55118589Y3991027D01*
X54991000Y4016406D01*
X53467000Y4016406D01*
X53339411Y3991027D01*
X53231246Y3918754D01*
X53158973Y3810589D01*
X53133594Y3683000D01*
X50942906Y3683000D01*
X50942906Y3746500D01*
X50917527Y3874089D01*
X50845254Y3982254D01*
X50737089Y4054527D01*
X50609500Y4079906D01*
X49085500Y4079906D01*
X48957911Y4054527D01*
X48849746Y3982254D01*
X48777473Y3874089D01*
X48752094Y3746500D01*
X48402906Y3746500D01*
X48377527Y3874089D01*
X48305254Y3982254D01*
X48197089Y4054527D01*
X48069500Y4079906D01*
X46545500Y4079906D01*
X46417911Y4054527D01*
X46309746Y3982254D01*
X46237473Y3874089D01*
X46212094Y3746500D01*
X45862906Y3746500D01*
X45837527Y3874089D01*
X45765254Y3982254D01*
X45657089Y4054527D01*
X45529500Y4079906D01*
X44005500Y4079906D01*
X43877911Y4054527D01*
X43769746Y3982254D01*
X43697473Y3874089D01*
X43672094Y3746500D01*
X43322906Y3746500D01*
X43297527Y3874089D01*
X43225254Y3982254D01*
X43117089Y4054527D01*
X42989500Y4079906D01*
X41465500Y4079906D01*
X41337911Y4054527D01*
X41229746Y3982254D01*
X41157473Y3874089D01*
X41132094Y3746500D01*
X40782906Y3746500D01*
X40757527Y3874089D01*
X40685254Y3982254D01*
X40577089Y4054527D01*
X40449500Y4079906D01*
X38925500Y4079906D01*
X38797911Y4054527D01*
X38689746Y3982254D01*
X38617473Y3874089D01*
X38592094Y3746500D01*
X38242906Y3746500D01*
X38217527Y3874089D01*
X38145254Y3982254D01*
X38037089Y4054527D01*
X37909500Y4079906D01*
X36385500Y4079906D01*
X36257911Y4054527D01*
X36149746Y3982254D01*
X36077473Y3874089D01*
X36052094Y3746500D01*
X35702906Y3746500D01*
X35677527Y3874089D01*
X35605254Y3982254D01*
X35497089Y4054527D01*
X35369500Y4079906D01*
X33845500Y4079906D01*
X33717911Y4054527D01*
X33609746Y3982254D01*
X33537473Y3874089D01*
X33512094Y3746500D01*
X33162906Y3746500D01*
X33137527Y3874089D01*
X33065254Y3982254D01*
X32957089Y4054527D01*
X32829500Y4079906D01*
X31305500Y4079906D01*
X31177911Y4054527D01*
X31069746Y3982254D01*
X30997473Y3874089D01*
X30972094Y3746500D01*
X656000Y3746500D01*
X656000Y6985000D01*
X11096594Y6985000D01*
X11096594Y5461000D01*
X11121973Y5333411D01*
X11194246Y5225246D01*
X11302411Y5152973D01*
X11430000Y5127594D01*
X12954000Y5127594D01*
X13081589Y5152973D01*
X13189754Y5225246D01*
X13262027Y5333411D01*
X13287406Y5461000D01*
X13287406Y6985000D01*
X13636594Y6985000D01*
X13636594Y5461000D01*
X13661973Y5333411D01*
X13734246Y5225246D01*
X13842411Y5152973D01*
X13970000Y5127594D01*
X15494000Y5127594D01*
X15621589Y5152973D01*
X15729754Y5225246D01*
X15802027Y5333411D01*
X15827406Y5461000D01*
X15827406Y6985000D01*
X15802027Y7112589D01*
X15729754Y7220754D01*
X15621589Y7293027D01*
X15494000Y7318406D01*
X13970000Y7318406D01*
X13842411Y7293027D01*
X13734246Y7220754D01*
X13661973Y7112589D01*
X13636594Y6985000D01*
X13287406Y6985000D01*
X13262027Y7112589D01*
X13189754Y7220754D01*
X13081589Y7293027D01*
X12954000Y7318406D01*
X11430000Y7318406D01*
X11302411Y7293027D01*
X11194246Y7220754D01*
X11121973Y7112589D01*
X11096594Y6985000D01*
X656000Y6985000D01*
X656000Y18034000D01*
X24431594Y18034000D01*
X24431594Y16510000D01*
X24456973Y16382411D01*
X24529246Y16274246D01*
X24637411Y16201973D01*
X24765000Y16176594D01*
X26289000Y16176594D01*
X26416589Y16201973D01*
X26524754Y16274246D01*
X26597027Y16382411D01*
X26622406Y16510000D01*
X26622406Y18034000D01*
X26597027Y18161589D01*
X26524754Y18269754D01*
X26416589Y18342027D01*
X26289000Y18367406D01*
X24765000Y18367406D01*
X24637411Y18342027D01*
X24529246Y18269754D01*
X24456973Y18161589D01*
X24431594Y18034000D01*
X656000Y18034000D01*
X656000Y19215335D01*
X14150811Y19215335D01*
X14316252Y18814937D01*
X14622326Y18508329D01*
X15022434Y18342189D01*
X15455665Y18341811D01*
X15856063Y18507252D01*
X16162671Y18813326D01*
X16328811Y19213434D01*
X16329189Y19646665D01*
X16163748Y20047063D01*
X15857674Y20353671D01*
X15457566Y20519811D01*
X15024335Y20520189D01*
X14623937Y20354748D01*
X14317329Y20048674D01*
X14151189Y19648566D01*
X14150811Y19215335D01*
X656000Y19215335D01*
X656000Y20574000D01*
X24431594Y20574000D01*
X24431594Y19050000D01*
X24456973Y18922411D01*
X24529246Y18814246D01*
X24637411Y18741973D01*
X24765000Y18716594D01*
X26289000Y18716594D01*
X26416589Y18741973D01*
X26524754Y18814246D01*
X26597027Y18922411D01*
X26622406Y19050000D01*
X26622406Y20574000D01*
X26597027Y20701589D01*
X26524754Y20809754D01*
X26416589Y20882027D01*
X26289000Y20907406D01*
X24765000Y20907406D01*
X24637411Y20882027D01*
X24529246Y20809754D01*
X24456973Y20701589D01*
X24431594Y20574000D01*
X656000Y20574000D01*
X656000Y21755335D01*
X12151831Y21755335D01*
X12317272Y21354937D01*
X12623346Y21048329D01*
X13023454Y20882189D01*
X13456685Y20881811D01*
X13857083Y21047252D01*
X14163691Y21353326D01*
X14240494Y21538286D01*
X14316252Y21354937D01*
X14622326Y21048329D01*
X15022434Y20882189D01*
X15455665Y20881811D01*
X15856063Y21047252D01*
X16162671Y21353326D01*
X16328811Y21753434D01*
X16329189Y22186665D01*
X16163748Y22587063D01*
X15933588Y22817625D01*
X29092474Y22817625D01*
X29202920Y22550325D01*
X29407250Y22345639D01*
X29674356Y22234726D01*
X29963575Y22234474D01*
X30230875Y22344920D01*
X30370798Y22484600D01*
X31232052Y22484600D01*
X31681861Y22034791D01*
X31681690Y21838441D01*
X31792136Y21571141D01*
X31996466Y21366455D01*
X32263572Y21255542D01*
X32552791Y21255290D01*
X32820091Y21365736D01*
X33024777Y21570066D01*
X33135690Y21837172D01*
X33135942Y22126391D01*
X33025496Y22393691D01*
X32821166Y22598377D01*
X32554060Y22709290D01*
X32356350Y22709462D01*
X31766922Y23298890D01*
X31612172Y23402291D01*
X31429632Y23438600D01*
X30370669Y23438600D01*
X30231950Y23577561D01*
X29964844Y23688474D01*
X29675625Y23688726D01*
X29408325Y23578280D01*
X29203639Y23373950D01*
X29092726Y23106844D01*
X29092474Y22817625D01*
X15933588Y22817625D01*
X15857674Y22893671D01*
X15457566Y23059811D01*
X15107400Y23060117D01*
X15107400Y23424420D01*
X20314380Y28631400D01*
X32815782Y28631400D01*
X28664382Y24480000D01*
X23538069Y24480000D01*
X23399350Y24618961D01*
X23132244Y24729874D01*
X22843025Y24730126D01*
X22575725Y24619680D01*
X22371039Y24415350D01*
X22260126Y24148244D01*
X22259874Y23859025D01*
X22370320Y23591725D01*
X22574650Y23387039D01*
X22841756Y23276126D01*
X23130975Y23275874D01*
X23398275Y23386320D01*
X23538198Y23526000D01*
X28861962Y23526000D01*
X29044502Y23562309D01*
X29199252Y23665710D01*
X31988191Y26454649D01*
X31988076Y26322825D01*
X32098522Y26055525D01*
X32302852Y25850839D01*
X32569958Y25739926D01*
X32859177Y25739674D01*
X33126477Y25850120D01*
X33285391Y26008758D01*
X33285391Y24909048D01*
X33282000Y24892000D01*
X33282000Y21714465D01*
X32881202Y21313667D01*
X32640505Y21214213D01*
X32435819Y21009883D01*
X32324906Y20742777D01*
X32324654Y20453558D01*
X32435100Y20186258D01*
X32639430Y19981572D01*
X32906536Y19870659D01*
X33195755Y19870407D01*
X33463055Y19980853D01*
X33667741Y20185183D01*
X33768291Y20427332D01*
X34352356Y21011397D01*
X34376077Y21046898D01*
X34488272Y21214810D01*
X34536000Y21454753D01*
X34536000Y24138000D01*
X36063237Y24138000D01*
X36303758Y24038126D01*
X36592977Y24037874D01*
X36860277Y24148320D01*
X37064963Y24352650D01*
X37175876Y24619756D01*
X37176128Y24908975D01*
X37065682Y25176275D01*
X36861352Y25380961D01*
X36594246Y25491874D01*
X36305027Y25492126D01*
X36062703Y25392000D01*
X34539391Y25392000D01*
X34539391Y26680877D01*
X34639265Y26921398D01*
X34639517Y27210617D01*
X34586205Y27339643D01*
X36120779Y27339643D01*
X36230045Y27230377D01*
X36229874Y27034027D01*
X36340320Y26766727D01*
X36544650Y26562041D01*
X36811756Y26451128D01*
X37100975Y26450876D01*
X37368275Y26561322D01*
X37572961Y26765652D01*
X37683874Y27032758D01*
X37684126Y27321977D01*
X37573680Y27589277D01*
X37369350Y27793963D01*
X37102244Y27904876D01*
X36904534Y27905048D01*
X36756606Y28052976D01*
X39333889Y28052976D01*
X39333754Y27897625D01*
X39439070Y27642741D01*
X39317808Y27521690D01*
X39176603Y27521690D01*
X38994063Y27485381D01*
X38839313Y27381980D01*
X37330625Y25873292D01*
X37227224Y25718542D01*
X37190915Y25536002D01*
X37190915Y20625996D01*
X30618209Y14053290D01*
X30514808Y13898540D01*
X30478499Y13716000D01*
X30478499Y7698501D01*
X30514808Y7515961D01*
X30618209Y7361211D01*
X31359514Y6619906D01*
X31305500Y6619906D01*
X31177911Y6594527D01*
X31069746Y6522254D01*
X30997473Y6414089D01*
X30972094Y6286500D01*
X30972094Y4762500D01*
X30997473Y4634911D01*
X31069746Y4526746D01*
X31177911Y4454473D01*
X31305500Y4429094D01*
X32829500Y4429094D01*
X32957089Y4454473D01*
X33065254Y4526746D01*
X33137527Y4634911D01*
X33162906Y4762500D01*
X33162906Y6286500D01*
X33137527Y6414089D01*
X33065254Y6522254D01*
X32957089Y6594527D01*
X32829500Y6619906D01*
X32537855Y6619906D01*
X32508191Y6769040D01*
X32404790Y6923790D01*
X31432499Y7896081D01*
X31432499Y9001094D01*
X32829500Y9001094D01*
X32957089Y9026473D01*
X33018499Y9067506D01*
X33018499Y7698501D01*
X33054808Y7515961D01*
X33158209Y7361211D01*
X33899514Y6619906D01*
X33845500Y6619906D01*
X33717911Y6594527D01*
X33609746Y6522254D01*
X33537473Y6414089D01*
X33512094Y6286500D01*
X33512094Y4762500D01*
X33537473Y4634911D01*
X33609746Y4526746D01*
X33717911Y4454473D01*
X33845500Y4429094D01*
X35369500Y4429094D01*
X35497089Y4454473D01*
X35605254Y4526746D01*
X35677527Y4634911D01*
X35702906Y4762500D01*
X35702906Y6286500D01*
X35677527Y6414089D01*
X35605254Y6522254D01*
X35497089Y6594527D01*
X35369500Y6619906D01*
X35077855Y6619906D01*
X35048191Y6769040D01*
X34944790Y6923790D01*
X33972499Y7896081D01*
X33972499Y9001094D01*
X35369500Y9001094D01*
X35497089Y9026473D01*
X35558499Y9067506D01*
X35558499Y7698501D01*
X35594808Y7515961D01*
X35698209Y7361211D01*
X36439514Y6619906D01*
X36385500Y6619906D01*
X36257911Y6594527D01*
X36149746Y6522254D01*
X36077473Y6414089D01*
X36052094Y6286500D01*
X36052094Y4762500D01*
X36077473Y4634911D01*
X36149746Y4526746D01*
X36257911Y4454473D01*
X36385500Y4429094D01*
X37909500Y4429094D01*
X38037089Y4454473D01*
X38145254Y4526746D01*
X38217527Y4634911D01*
X38242906Y4762500D01*
X38242906Y6286500D01*
X38217527Y6414089D01*
X38145254Y6522254D01*
X38037089Y6594527D01*
X37909500Y6619906D01*
X37617855Y6619906D01*
X37588191Y6769040D01*
X37484790Y6923790D01*
X36512499Y7896081D01*
X36512499Y9001094D01*
X37909500Y9001094D01*
X38037089Y9026473D01*
X38098499Y9067506D01*
X38098499Y7698501D01*
X38134808Y7515961D01*
X38238209Y7361211D01*
X38979514Y6619906D01*
X38925500Y6619906D01*
X38797911Y6594527D01*
X38689746Y6522254D01*
X38617473Y6414089D01*
X38592094Y6286500D01*
X38592094Y4762500D01*
X38617473Y4634911D01*
X38689746Y4526746D01*
X38797911Y4454473D01*
X38925500Y4429094D01*
X40449500Y4429094D01*
X40577089Y4454473D01*
X40685254Y4526746D01*
X40757527Y4634911D01*
X40782906Y4762500D01*
X40782906Y6286500D01*
X40757527Y6414089D01*
X40685254Y6522254D01*
X40577089Y6594527D01*
X40449500Y6619906D01*
X40157855Y6619906D01*
X40128191Y6769040D01*
X40024790Y6923790D01*
X39052499Y7896081D01*
X39052499Y9001094D01*
X40449500Y9001094D01*
X40518600Y9014839D01*
X40518600Y7818400D01*
X40554909Y7635860D01*
X40658310Y7481110D01*
X41519514Y6619906D01*
X41465500Y6619906D01*
X41337911Y6594527D01*
X41229746Y6522254D01*
X41157473Y6414089D01*
X41132094Y6286500D01*
X41132094Y4762500D01*
X41157473Y4634911D01*
X41229746Y4526746D01*
X41337911Y4454473D01*
X41465500Y4429094D01*
X42989500Y4429094D01*
X43117089Y4454473D01*
X43225254Y4526746D01*
X43297527Y4634911D01*
X43322906Y4762500D01*
X43322906Y6286500D01*
X43297527Y6414089D01*
X43225254Y6522254D01*
X43117089Y6594527D01*
X42989500Y6619906D01*
X42697855Y6619906D01*
X42668191Y6769040D01*
X42564790Y6923790D01*
X41472600Y8015980D01*
X41472600Y9001094D01*
X42989500Y9001094D01*
X43117089Y9026473D01*
X43178499Y9067506D01*
X43178499Y7698501D01*
X43214808Y7515961D01*
X43318209Y7361211D01*
X44059514Y6619906D01*
X44005500Y6619906D01*
X43877911Y6594527D01*
X43769746Y6522254D01*
X43697473Y6414089D01*
X43672094Y6286500D01*
X43672094Y4762500D01*
X43697473Y4634911D01*
X43769746Y4526746D01*
X43877911Y4454473D01*
X44005500Y4429094D01*
X45529500Y4429094D01*
X45657089Y4454473D01*
X45765254Y4526746D01*
X45837527Y4634911D01*
X45862906Y4762500D01*
X45862906Y6286500D01*
X45837527Y6414089D01*
X45765254Y6522254D01*
X45657089Y6594527D01*
X45529500Y6619906D01*
X45237855Y6619906D01*
X45208191Y6769040D01*
X45104790Y6923790D01*
X44132499Y7896081D01*
X44132499Y9001094D01*
X45529500Y9001094D01*
X45657089Y9026473D01*
X45718499Y9067506D01*
X45718499Y7698501D01*
X45754808Y7515961D01*
X45858209Y7361211D01*
X46599514Y6619906D01*
X46545500Y6619906D01*
X46417911Y6594527D01*
X46309746Y6522254D01*
X46237473Y6414089D01*
X46212094Y6286500D01*
X46212094Y4762500D01*
X46237473Y4634911D01*
X46309746Y4526746D01*
X46417911Y4454473D01*
X46545500Y4429094D01*
X48069500Y4429094D01*
X48197089Y4454473D01*
X48305254Y4526746D01*
X48377527Y4634911D01*
X48402906Y4762500D01*
X48402906Y6286500D01*
X48377527Y6414089D01*
X48305254Y6522254D01*
X48197089Y6594527D01*
X48069500Y6619906D01*
X47777855Y6619906D01*
X47748191Y6769040D01*
X47644790Y6923790D01*
X46672499Y7896081D01*
X46672499Y9001094D01*
X48069500Y9001094D01*
X48197089Y9026473D01*
X48258499Y9067506D01*
X48258499Y7698501D01*
X48294808Y7515961D01*
X48398209Y7361211D01*
X49139514Y6619906D01*
X49085500Y6619906D01*
X48957911Y6594527D01*
X48849746Y6522254D01*
X48777473Y6414089D01*
X48752094Y6286500D01*
X48752094Y4762500D01*
X48777473Y4634911D01*
X48849746Y4526746D01*
X48957911Y4454473D01*
X49085500Y4429094D01*
X50609500Y4429094D01*
X50737089Y4454473D01*
X50845254Y4526746D01*
X50917527Y4634911D01*
X50942906Y4762500D01*
X50942906Y6286500D01*
X50917527Y6414089D01*
X50845254Y6522254D01*
X50737089Y6594527D01*
X50609500Y6619906D01*
X50317855Y6619906D01*
X50288191Y6769040D01*
X50184790Y6923790D01*
X49212499Y7896081D01*
X49212499Y9001094D01*
X50609500Y9001094D01*
X50737089Y9026473D01*
X50845254Y9098746D01*
X50917527Y9206911D01*
X50942906Y9334500D01*
X50942906Y10858500D01*
X50917527Y10986089D01*
X50845254Y11094254D01*
X50737089Y11166527D01*
X50609500Y11191906D01*
X49212499Y11191906D01*
X49212499Y11541094D01*
X50609500Y11541094D01*
X50737089Y11566473D01*
X50845254Y11638746D01*
X50917527Y11746911D01*
X50942906Y11874500D01*
X50942906Y12556019D01*
X51469874Y12556019D01*
X51580320Y12288719D01*
X51784650Y12084033D01*
X52051756Y11973120D01*
X52178695Y11973009D01*
X53702000Y10449704D01*
X53702000Y6556406D01*
X53467000Y6556406D01*
X53339411Y6531027D01*
X53231246Y6458754D01*
X53158973Y6350589D01*
X53133594Y6223000D01*
X53133594Y4699000D01*
X53158973Y4571411D01*
X53231246Y4463246D01*
X53339411Y4390973D01*
X53467000Y4365594D01*
X54991000Y4365594D01*
X55118589Y4390973D01*
X55226754Y4463246D01*
X55299027Y4571411D01*
X55324406Y4699000D01*
X55324406Y6223000D01*
X55299027Y6350589D01*
X55226754Y6458754D01*
X55118589Y6531027D01*
X54991000Y6556406D01*
X54756000Y6556406D01*
X54756000Y10667994D01*
X54724571Y10826000D01*
X54715885Y10869669D01*
X54601645Y11040639D01*
X52924016Y12718268D01*
X52924126Y12843969D01*
X52813680Y13111269D01*
X52609350Y13315955D01*
X52342244Y13426868D01*
X52053025Y13427120D01*
X51785725Y13316674D01*
X51581039Y13112344D01*
X51470126Y12845238D01*
X51469874Y12556019D01*
X50942906Y12556019D01*
X50942906Y13398500D01*
X50917527Y13526089D01*
X50845254Y13634254D01*
X50737089Y13706527D01*
X50609500Y13731906D01*
X49212499Y13731906D01*
X49212499Y15526501D01*
X49176190Y15709041D01*
X49072789Y15863791D01*
X44673000Y20263580D01*
X44673000Y20530931D01*
X44811961Y20669650D01*
X44922874Y20936756D01*
X44923007Y21090425D01*
X45958074Y21090425D01*
X46068520Y20823125D01*
X46208200Y20683202D01*
X46208200Y20465515D01*
X46244509Y20282975D01*
X46347910Y20128225D01*
X56195999Y10280136D01*
X56195999Y10260999D01*
X56232308Y10078459D01*
X56335709Y9923709D01*
X56405709Y9853709D01*
X56560459Y9750308D01*
X56742999Y9713999D01*
X62849999Y9713999D01*
X63032539Y9750308D01*
X63187289Y9853709D01*
X63928594Y10595014D01*
X63928594Y10541000D01*
X63953973Y10413411D01*
X64026246Y10305246D01*
X64134411Y10232973D01*
X64262000Y10207594D01*
X65786000Y10207594D01*
X65913589Y10232973D01*
X66021754Y10305246D01*
X66094027Y10413411D01*
X66119406Y10541000D01*
X66119406Y12065000D01*
X66468594Y12065000D01*
X66468594Y10541000D01*
X66493973Y10413411D01*
X66566246Y10305246D01*
X66674411Y10232973D01*
X66802000Y10207594D01*
X68326000Y10207594D01*
X68453589Y10232973D01*
X68561754Y10305246D01*
X68634027Y10413411D01*
X68659406Y10541000D01*
X68659406Y12065000D01*
X68634027Y12192589D01*
X68561754Y12300754D01*
X68453589Y12373027D01*
X68326000Y12398406D01*
X66802000Y12398406D01*
X66674411Y12373027D01*
X66566246Y12300754D01*
X66493973Y12192589D01*
X66468594Y12065000D01*
X66119406Y12065000D01*
X66094027Y12192589D01*
X66021754Y12300754D01*
X65913589Y12373027D01*
X65786000Y12398406D01*
X64262000Y12398406D01*
X64134411Y12373027D01*
X64026246Y12300754D01*
X63953973Y12192589D01*
X63928594Y12065000D01*
X63928594Y11773355D01*
X63779460Y11743691D01*
X63624710Y11640290D01*
X62652419Y10667999D01*
X61420406Y10667999D01*
X61420406Y12065000D01*
X61395027Y12192589D01*
X61353994Y12253999D01*
X62849999Y12253999D01*
X63032539Y12290308D01*
X63187289Y12393709D01*
X63928594Y13135014D01*
X63928594Y13081000D01*
X63953973Y12953411D01*
X64026246Y12845246D01*
X64134411Y12772973D01*
X64262000Y12747594D01*
X65786000Y12747594D01*
X65913589Y12772973D01*
X66021754Y12845246D01*
X66094027Y12953411D01*
X66119406Y13081000D01*
X66119406Y14605000D01*
X66468594Y14605000D01*
X66468594Y13081000D01*
X66493973Y12953411D01*
X66566246Y12845246D01*
X66674411Y12772973D01*
X66802000Y12747594D01*
X68326000Y12747594D01*
X68453589Y12772973D01*
X68561754Y12845246D01*
X68634027Y12953411D01*
X68659406Y13081000D01*
X68659406Y14605000D01*
X68634027Y14732589D01*
X68561754Y14840754D01*
X68453589Y14913027D01*
X68326000Y14938406D01*
X66802000Y14938406D01*
X66674411Y14913027D01*
X66566246Y14840754D01*
X66493973Y14732589D01*
X66468594Y14605000D01*
X66119406Y14605000D01*
X66094027Y14732589D01*
X66021754Y14840754D01*
X65913589Y14913027D01*
X65786000Y14938406D01*
X64262000Y14938406D01*
X64134411Y14913027D01*
X64026246Y14840754D01*
X63953973Y14732589D01*
X63928594Y14605000D01*
X63928594Y14313355D01*
X63779460Y14283691D01*
X63624710Y14180290D01*
X62652419Y13207999D01*
X61420406Y13207999D01*
X61420406Y14605000D01*
X61395027Y14732589D01*
X61353994Y14793999D01*
X62849999Y14793999D01*
X63032539Y14830308D01*
X63187289Y14933709D01*
X63928594Y15675014D01*
X63928594Y15621000D01*
X63953973Y15493411D01*
X64026246Y15385246D01*
X64134411Y15312973D01*
X64262000Y15287594D01*
X65786000Y15287594D01*
X65913589Y15312973D01*
X66021754Y15385246D01*
X66094027Y15493411D01*
X66119406Y15621000D01*
X66119406Y17145000D01*
X66468594Y17145000D01*
X66468594Y15621000D01*
X66493973Y15493411D01*
X66566246Y15385246D01*
X66674411Y15312973D01*
X66802000Y15287594D01*
X68326000Y15287594D01*
X68453589Y15312973D01*
X68561754Y15385246D01*
X68634027Y15493411D01*
X68659406Y15621000D01*
X68659406Y17145000D01*
X68634027Y17272589D01*
X68561754Y17380754D01*
X68453589Y17453027D01*
X68326000Y17478406D01*
X66802000Y17478406D01*
X66674411Y17453027D01*
X66566246Y17380754D01*
X66493973Y17272589D01*
X66468594Y17145000D01*
X66119406Y17145000D01*
X66094027Y17272589D01*
X66021754Y17380754D01*
X65913589Y17453027D01*
X65786000Y17478406D01*
X64262000Y17478406D01*
X64134411Y17453027D01*
X64026246Y17380754D01*
X63953973Y17272589D01*
X63928594Y17145000D01*
X63928594Y16853355D01*
X63779460Y16823691D01*
X63624710Y16720290D01*
X62652419Y15747999D01*
X61420406Y15747999D01*
X61420406Y17145000D01*
X61395027Y17272589D01*
X61374707Y17303000D01*
X62819000Y17303000D01*
X63001540Y17339309D01*
X63156290Y17442710D01*
X63928594Y18215014D01*
X63928594Y18161000D01*
X63953973Y18033411D01*
X64026246Y17925246D01*
X64134411Y17852973D01*
X64262000Y17827594D01*
X65786000Y17827594D01*
X65913589Y17852973D01*
X66021754Y17925246D01*
X66094027Y18033411D01*
X66119406Y18161000D01*
X66119406Y19685000D01*
X66468594Y19685000D01*
X66468594Y18161000D01*
X66493973Y18033411D01*
X66566246Y17925246D01*
X66674411Y17852973D01*
X66802000Y17827594D01*
X68326000Y17827594D01*
X68453589Y17852973D01*
X68561754Y17925246D01*
X68634027Y18033411D01*
X68659406Y18161000D01*
X68659406Y19685000D01*
X68634027Y19812589D01*
X68561754Y19920754D01*
X68453589Y19993027D01*
X68326000Y20018406D01*
X66802000Y20018406D01*
X66674411Y19993027D01*
X66566246Y19920754D01*
X66493973Y19812589D01*
X66468594Y19685000D01*
X66119406Y19685000D01*
X66094027Y19812589D01*
X66021754Y19920754D01*
X65913589Y19993027D01*
X65786000Y20018406D01*
X64262000Y20018406D01*
X64134411Y19993027D01*
X64026246Y19920754D01*
X63953973Y19812589D01*
X63928594Y19685000D01*
X63928594Y19393355D01*
X63779460Y19363691D01*
X63624710Y19260290D01*
X62621420Y18257000D01*
X61420406Y18257000D01*
X61420406Y19685000D01*
X61395027Y19812589D01*
X61353994Y19873999D01*
X62849999Y19873999D01*
X63032539Y19910308D01*
X63187289Y20013709D01*
X63928594Y20755014D01*
X63928594Y20701000D01*
X63953973Y20573411D01*
X64026246Y20465246D01*
X64134411Y20392973D01*
X64262000Y20367594D01*
X65786000Y20367594D01*
X65913589Y20392973D01*
X66021754Y20465246D01*
X66094027Y20573411D01*
X66119406Y20701000D01*
X66119406Y22225000D01*
X66468594Y22225000D01*
X66468594Y20701000D01*
X66493973Y20573411D01*
X66566246Y20465246D01*
X66674411Y20392973D01*
X66802000Y20367594D01*
X68326000Y20367594D01*
X68453589Y20392973D01*
X68561754Y20465246D01*
X68634027Y20573411D01*
X68659406Y20701000D01*
X68659406Y22225000D01*
X68634027Y22352589D01*
X68561754Y22460754D01*
X68453589Y22533027D01*
X68326000Y22558406D01*
X66802000Y22558406D01*
X66674411Y22533027D01*
X66566246Y22460754D01*
X66493973Y22352589D01*
X66468594Y22225000D01*
X66119406Y22225000D01*
X66094027Y22352589D01*
X66021754Y22460754D01*
X65913589Y22533027D01*
X65786000Y22558406D01*
X64262000Y22558406D01*
X64134411Y22533027D01*
X64026246Y22460754D01*
X63953973Y22352589D01*
X63928594Y22225000D01*
X63928594Y21933355D01*
X63779460Y21903691D01*
X63624710Y21800290D01*
X62652419Y20827999D01*
X61420406Y20827999D01*
X61420406Y22225000D01*
X61395027Y22352589D01*
X61387435Y22363951D01*
X62799951Y22363951D01*
X62982491Y22400260D01*
X63137241Y22503661D01*
X63928594Y23295014D01*
X63928594Y23241000D01*
X63953973Y23113411D01*
X64026246Y23005246D01*
X64134411Y22932973D01*
X64262000Y22907594D01*
X65786000Y22907594D01*
X65913589Y22932973D01*
X66021754Y23005246D01*
X66094027Y23113411D01*
X66119406Y23241000D01*
X66119406Y24765000D01*
X66468594Y24765000D01*
X66468594Y23241000D01*
X66493973Y23113411D01*
X66566246Y23005246D01*
X66674411Y22932973D01*
X66802000Y22907594D01*
X68326000Y22907594D01*
X68453589Y22932973D01*
X68561754Y23005246D01*
X68634027Y23113411D01*
X68659406Y23241000D01*
X68659406Y24765000D01*
X68634027Y24892589D01*
X68561754Y25000754D01*
X68453589Y25073027D01*
X68326000Y25098406D01*
X66802000Y25098406D01*
X66674411Y25073027D01*
X66566246Y25000754D01*
X66493973Y24892589D01*
X66468594Y24765000D01*
X66119406Y24765000D01*
X66094027Y24892589D01*
X66021754Y25000754D01*
X65913589Y25073027D01*
X65786000Y25098406D01*
X64262000Y25098406D01*
X64134411Y25073027D01*
X64026246Y25000754D01*
X63953973Y24892589D01*
X63928594Y24765000D01*
X63928594Y24473355D01*
X63779459Y24443691D01*
X63624710Y24340290D01*
X62602371Y23317951D01*
X61420406Y23317951D01*
X61420406Y24765000D01*
X61395027Y24892589D01*
X61374707Y24923000D01*
X62819000Y24923000D01*
X63001540Y24959309D01*
X63156290Y25062710D01*
X63928594Y25835014D01*
X63928594Y25781000D01*
X63953973Y25653411D01*
X64026246Y25545246D01*
X64134411Y25472973D01*
X64262000Y25447594D01*
X65786000Y25447594D01*
X65913589Y25472973D01*
X66021754Y25545246D01*
X66094027Y25653411D01*
X66119406Y25781000D01*
X66119406Y27305000D01*
X66468594Y27305000D01*
X66468594Y25781000D01*
X66493973Y25653411D01*
X66566246Y25545246D01*
X66674411Y25472973D01*
X66802000Y25447594D01*
X68326000Y25447594D01*
X68453589Y25472973D01*
X68561754Y25545246D01*
X68634027Y25653411D01*
X68659406Y25781000D01*
X68659406Y27305000D01*
X68634027Y27432589D01*
X68561754Y27540754D01*
X68453589Y27613027D01*
X68326000Y27638406D01*
X66802000Y27638406D01*
X66674411Y27613027D01*
X66566246Y27540754D01*
X66493973Y27432589D01*
X66468594Y27305000D01*
X66119406Y27305000D01*
X66094027Y27432589D01*
X66021754Y27540754D01*
X65913589Y27613027D01*
X65786000Y27638406D01*
X64262000Y27638406D01*
X64134411Y27613027D01*
X64026246Y27540754D01*
X63953973Y27432589D01*
X63928594Y27305000D01*
X63928594Y27013355D01*
X63779460Y26983691D01*
X63624710Y26880290D01*
X62621420Y25877000D01*
X61420406Y25877000D01*
X61420406Y27305000D01*
X61395027Y27432589D01*
X61353994Y27493999D01*
X62849999Y27493999D01*
X63032539Y27530308D01*
X63187289Y27633709D01*
X63928594Y28375014D01*
X63928594Y28321000D01*
X63953973Y28193411D01*
X64026246Y28085246D01*
X64134411Y28012973D01*
X64262000Y27987594D01*
X65786000Y27987594D01*
X65913589Y28012973D01*
X66021754Y28085246D01*
X66094027Y28193411D01*
X66119406Y28321000D01*
X66119406Y29845000D01*
X66468594Y29845000D01*
X66468594Y28321000D01*
X66493973Y28193411D01*
X66566246Y28085246D01*
X66674411Y28012973D01*
X66802000Y27987594D01*
X68326000Y27987594D01*
X68453589Y28012973D01*
X68561754Y28085246D01*
X68634027Y28193411D01*
X68659406Y28321000D01*
X68659406Y29845000D01*
X68634027Y29972589D01*
X68561754Y30080754D01*
X68453589Y30153027D01*
X68326000Y30178406D01*
X66802000Y30178406D01*
X66674411Y30153027D01*
X66566246Y30080754D01*
X66493973Y29972589D01*
X66468594Y29845000D01*
X66119406Y29845000D01*
X66094027Y29972589D01*
X66021754Y30080754D01*
X65913589Y30153027D01*
X65786000Y30178406D01*
X64262000Y30178406D01*
X64134411Y30153027D01*
X64026246Y30080754D01*
X63953973Y29972589D01*
X63928594Y29845000D01*
X63928594Y29553355D01*
X63779460Y29523691D01*
X63624710Y29420290D01*
X62652419Y28447999D01*
X61420406Y28447999D01*
X61420406Y29845000D01*
X61395027Y29972589D01*
X61322754Y30080754D01*
X61214589Y30153027D01*
X61087000Y30178406D01*
X59563000Y30178406D01*
X59435411Y30153027D01*
X59327246Y30080754D01*
X59254973Y29972589D01*
X59229594Y29845000D01*
X59229594Y28447999D01*
X58880406Y28447999D01*
X58880406Y29845000D01*
X58855027Y29972589D01*
X58782754Y30080754D01*
X58674589Y30153027D01*
X58547000Y30178406D01*
X57023000Y30178406D01*
X56911884Y30156304D01*
X59519290Y32763710D01*
X59622691Y32918460D01*
X59652355Y33067594D01*
X59944000Y33067594D01*
X60071589Y33092973D01*
X60179754Y33165246D01*
X60252027Y33273411D01*
X60277406Y33401000D01*
X60277406Y34925000D01*
X60252027Y35052589D01*
X60179754Y35160754D01*
X60071589Y35233027D01*
X59944000Y35258406D01*
X58420000Y35258406D01*
X58292411Y35233027D01*
X58184246Y35160754D01*
X58111973Y35052589D01*
X58086594Y34925000D01*
X58086594Y33401000D01*
X58111973Y33273411D01*
X58184246Y33165246D01*
X58292411Y33092973D01*
X58420000Y33067594D01*
X58474014Y33067594D01*
X55550620Y30144200D01*
X55364269Y30144200D01*
X55225550Y30283161D01*
X54958444Y30394074D01*
X54669225Y30394326D01*
X54401925Y30283880D01*
X54197239Y30079550D01*
X54086326Y29812444D01*
X54086074Y29523225D01*
X54196520Y29255925D01*
X54400850Y29051239D01*
X54667956Y28940326D01*
X54957175Y28940074D01*
X55224475Y29050520D01*
X55364398Y29190200D01*
X55748200Y29190200D01*
X55930740Y29226509D01*
X56085490Y29329910D01*
X56711696Y29956116D01*
X56689594Y29845000D01*
X56689594Y28447999D01*
X56672999Y28447999D01*
X56490459Y28411690D01*
X56335709Y28308289D01*
X54426809Y26399389D01*
X48315112Y26399389D01*
X48176393Y26538350D01*
X47909287Y26649263D01*
X47620068Y26649515D01*
X47352768Y26539069D01*
X47148082Y26334739D01*
X47037169Y26067633D01*
X47036917Y25778414D01*
X47147363Y25511114D01*
X47221608Y25436739D01*
X47119818Y25335126D01*
X47008905Y25068020D01*
X47008653Y24778801D01*
X47119099Y24511501D01*
X47219345Y24411081D01*
X47143527Y24335395D01*
X47032614Y24068289D01*
X47032362Y23779070D01*
X47142808Y23511770D01*
X47190832Y23463663D01*
X47065391Y23338440D01*
X46954478Y23071334D01*
X46954226Y22782115D01*
X47064672Y22514815D01*
X47269002Y22310129D01*
X47536108Y22199216D01*
X47583843Y22199174D01*
X47583674Y22004825D01*
X47694120Y21737525D01*
X47897284Y21534007D01*
X47759472Y21591232D01*
X47470253Y21591484D01*
X47345560Y21539962D01*
X47301880Y21645675D01*
X47097550Y21850361D01*
X46830444Y21961274D01*
X46541225Y21961526D01*
X46273925Y21851080D01*
X46069239Y21646750D01*
X45958326Y21379644D01*
X45958074Y21090425D01*
X44923007Y21090425D01*
X44923126Y21225975D01*
X44812680Y21493275D01*
X44608350Y21697961D01*
X44341244Y21808874D01*
X44052025Y21809126D01*
X43784725Y21698680D01*
X43580039Y21494350D01*
X43469126Y21227244D01*
X43468874Y20938025D01*
X43579320Y20670725D01*
X43719000Y20530802D01*
X43719000Y20066000D01*
X43755309Y19883460D01*
X43858710Y19728710D01*
X48258499Y15328921D01*
X48258499Y13665494D01*
X48197089Y13706527D01*
X48069500Y13731906D01*
X46672499Y13731906D01*
X46672499Y14129501D01*
X46636190Y14312041D01*
X46532789Y14466791D01*
X43279615Y17719965D01*
X43279615Y22423482D01*
X43418576Y22562201D01*
X43529489Y22829307D01*
X43529741Y23118526D01*
X43419295Y23385826D01*
X43214965Y23590512D01*
X42947859Y23701425D01*
X42718456Y23701625D01*
X42718457Y23703198D01*
X42608011Y23970498D01*
X42403681Y24175184D01*
X42136575Y24286097D01*
X41990884Y24286224D01*
X41991029Y24453208D01*
X41880583Y24720508D01*
X41676253Y24925194D01*
X41409147Y25036107D01*
X41119928Y25036359D01*
X40940537Y24962236D01*
X40902443Y25054430D01*
X40698113Y25259116D01*
X40431007Y25370029D01*
X40278887Y25370162D01*
X40456915Y25443721D01*
X40661601Y25648051D01*
X40772514Y25915157D01*
X40772766Y26204376D01*
X40662320Y26471676D01*
X40489952Y26644345D01*
X40595880Y26899446D01*
X40596132Y27188665D01*
X40490816Y27443549D01*
X40676841Y27629250D01*
X40787754Y27896356D01*
X40788006Y28185575D01*
X40677560Y28452875D01*
X40499345Y28631400D01*
X42589728Y28631400D01*
X42797496Y28423632D01*
X42797325Y28227282D01*
X42907771Y27959982D01*
X43112101Y27755296D01*
X43379207Y27644383D01*
X43668426Y27644131D01*
X43935726Y27754577D01*
X44140412Y27958907D01*
X44251325Y28226013D01*
X44251563Y28498818D01*
X44480275Y28593320D01*
X44684961Y28797650D01*
X44795874Y29064756D01*
X44796126Y29353975D01*
X44685680Y29621275D01*
X44481350Y29825961D01*
X44214244Y29936874D01*
X44016534Y29937046D01*
X44006291Y29947289D01*
X43851541Y30050690D01*
X43669001Y30086999D01*
X34820192Y30086999D01*
X34905959Y30172617D01*
X35006509Y30414766D01*
X35587743Y30996000D01*
X48387000Y30996000D01*
X48626943Y31043728D01*
X48830356Y31179644D01*
X49911000Y32260288D01*
X52306600Y29864688D01*
X52306600Y27665367D01*
X52206726Y27424846D01*
X52206474Y27135627D01*
X52316920Y26868327D01*
X52521250Y26663641D01*
X52788356Y26552728D01*
X53077575Y26552476D01*
X53344875Y26662922D01*
X53549561Y26867252D01*
X53660474Y27134358D01*
X53660726Y27423577D01*
X53560600Y27665901D01*
X53560600Y30124400D01*
X53512873Y30364342D01*
X53376956Y30567756D01*
X50538000Y33406712D01*
X50538000Y37333235D01*
X50592714Y37465000D01*
X58086594Y37465000D01*
X58086594Y35941000D01*
X58111973Y35813411D01*
X58184246Y35705246D01*
X58292411Y35632973D01*
X58420000Y35607594D01*
X59944000Y35607594D01*
X60071589Y35632973D01*
X60179754Y35705246D01*
X60252027Y35813411D01*
X60277406Y35941000D01*
X60277406Y37465000D01*
X60252027Y37592589D01*
X60179754Y37700754D01*
X60071589Y37773027D01*
X59944000Y37798406D01*
X58420000Y37798406D01*
X58292411Y37773027D01*
X58184246Y37700754D01*
X58111973Y37592589D01*
X58086594Y37465000D01*
X50592714Y37465000D01*
X50637874Y37573756D01*
X50638126Y37862975D01*
X50527680Y38130275D01*
X50323350Y38334961D01*
X50056244Y38445874D01*
X49767025Y38446126D01*
X49499725Y38335680D01*
X49295039Y38131350D01*
X49184126Y37864244D01*
X49183874Y37575025D01*
X49284000Y37332701D01*
X49284000Y33406712D01*
X48127288Y32250000D01*
X44708130Y32250000D01*
X44811961Y32353650D01*
X44922874Y32620756D01*
X44923126Y32909975D01*
X44812680Y33177275D01*
X44673000Y33317198D01*
X44673000Y36068000D01*
X44657037Y36148251D01*
X44668874Y36176756D01*
X44669126Y36465975D01*
X44558680Y36733275D01*
X44354350Y36937961D01*
X44087244Y37048874D01*
X43798025Y37049126D01*
X43530725Y36938680D01*
X43326039Y36734350D01*
X43215126Y36467244D01*
X43214874Y36178025D01*
X43325320Y35910725D01*
X43529650Y35706039D01*
X43719000Y35627413D01*
X43719000Y33317069D01*
X43580039Y33178350D01*
X43469126Y32911244D01*
X43468874Y32622025D01*
X43579320Y32354725D01*
X43683863Y32250000D01*
X35328031Y32250000D01*
X35088088Y32202272D01*
X35009916Y32150039D01*
X34884675Y32066356D01*
X34119420Y31301101D01*
X33878723Y31201647D01*
X33674037Y30997317D01*
X33563124Y30730211D01*
X33562872Y30440992D01*
X33673318Y30173692D01*
X33759860Y30086999D01*
X19787190Y30086999D01*
X19604650Y30050690D01*
X19449900Y29947289D01*
X13683510Y24180899D01*
X13580109Y24026149D01*
X13543800Y23843609D01*
X13543800Y23024427D01*
X13458586Y23059811D01*
X13025355Y23060189D01*
X12624957Y22894748D01*
X12318349Y22588674D01*
X12152209Y22188566D01*
X12151831Y21755335D01*
X656000Y21755335D01*
X656000Y34203598D01*
X36613303Y34203598D01*
X36777008Y33807403D01*
X37079869Y33504013D01*
X37475778Y33339617D01*
X37904462Y33339243D01*
X38300657Y33502948D01*
X38604047Y33805809D01*
X38768443Y34201718D01*
X38768444Y34203598D01*
X41495183Y34203598D01*
X41658888Y33807403D01*
X41961749Y33504013D01*
X42357658Y33339617D01*
X42786342Y33339243D01*
X43182537Y33502948D01*
X43485927Y33805809D01*
X43650323Y34201718D01*
X43650697Y34630402D01*
X43486992Y35026597D01*
X43184131Y35329987D01*
X42788222Y35494383D01*
X42359538Y35494757D01*
X41963343Y35331052D01*
X41659953Y35028191D01*
X41495557Y34632282D01*
X41495183Y34203598D01*
X38768444Y34203598D01*
X38768817Y34630402D01*
X38605112Y35026597D01*
X38302251Y35329987D01*
X37906342Y35494383D01*
X37477658Y35494757D01*
X37081463Y35331052D01*
X36778073Y35028191D01*
X36613677Y34632282D01*
X36613303Y34203598D01*
X656000Y34203598D01*
X656000Y36561388D01*
X9308210Y36561388D01*
X9562980Y35944797D01*
X10034316Y35472638D01*
X10650461Y35216792D01*
X11317612Y35216210D01*
X11934203Y35470980D01*
X12406362Y35942316D01*
X12573094Y36343851D01*
X12737980Y35944797D01*
X13209316Y35472638D01*
X13825461Y35216792D01*
X14492612Y35216210D01*
X15109203Y35470980D01*
X15581362Y35942316D01*
X15729417Y36298872D01*
X15849480Y36008297D01*
X16320816Y35536138D01*
X16936961Y35280292D01*
X17604112Y35279710D01*
X18220703Y35534480D01*
X18692862Y36005816D01*
X18859594Y36407351D01*
X19024480Y36008297D01*
X19495816Y35536138D01*
X20111961Y35280292D01*
X20779112Y35279710D01*
X21395703Y35534480D01*
X21867862Y36005816D01*
X22034594Y36407351D01*
X22199480Y36008297D01*
X22670816Y35536138D01*
X23286961Y35280292D01*
X23954112Y35279710D01*
X24570703Y35534480D01*
X25042862Y36005816D01*
X25209594Y36407351D01*
X25374480Y36008297D01*
X25845816Y35536138D01*
X26461961Y35280292D01*
X27129112Y35279710D01*
X27745703Y35534480D01*
X28217862Y36005816D01*
X28384594Y36407351D01*
X28549480Y36008297D01*
X29020816Y35536138D01*
X29636961Y35280292D01*
X30304112Y35279710D01*
X30920703Y35534480D01*
X31392862Y36005816D01*
X31559594Y36407351D01*
X31724480Y36008297D01*
X32195816Y35536138D01*
X32811961Y35280292D01*
X33479112Y35279710D01*
X34095703Y35534480D01*
X34567862Y36005816D01*
X34823708Y36621961D01*
X34824290Y37289112D01*
X34569520Y37905703D01*
X34098184Y38377862D01*
X33482039Y38633708D01*
X32814888Y38634290D01*
X32198297Y38379520D01*
X31726138Y37908184D01*
X31559406Y37506649D01*
X31394520Y37905703D01*
X30923184Y38377862D01*
X30307039Y38633708D01*
X29639888Y38634290D01*
X29023297Y38379520D01*
X28551138Y37908184D01*
X28384406Y37506649D01*
X28219520Y37905703D01*
X27748184Y38377862D01*
X27132039Y38633708D01*
X26464888Y38634290D01*
X25848297Y38379520D01*
X25376138Y37908184D01*
X25209406Y37506649D01*
X25044520Y37905703D01*
X24573184Y38377862D01*
X23957039Y38633708D01*
X23289888Y38634290D01*
X22673297Y38379520D01*
X22201138Y37908184D01*
X22034406Y37506649D01*
X21869520Y37905703D01*
X21398184Y38377862D01*
X20782039Y38633708D01*
X20114888Y38634290D01*
X19498297Y38379520D01*
X19026138Y37908184D01*
X18859406Y37506649D01*
X18694520Y37905703D01*
X18223184Y38377862D01*
X17607039Y38633708D01*
X16939888Y38634290D01*
X16323297Y38379520D01*
X15851138Y37908184D01*
X15703083Y37551628D01*
X15583020Y37842203D01*
X15111684Y38314362D01*
X14495539Y38570208D01*
X13828388Y38570790D01*
X13211797Y38316020D01*
X12739638Y37844684D01*
X12572906Y37443149D01*
X12408020Y37842203D01*
X11936684Y38314362D01*
X11320539Y38570208D01*
X10653388Y38570790D01*
X10036797Y38316020D01*
X9564638Y37844684D01*
X9308792Y37228539D01*
X9308210Y36561388D01*
X656000Y36561388D01*
X656000Y39984000D01*
X70464000Y39984000D01*
X70464000Y656000D01*
X70464000Y656000D01*
G37*
X70464000Y656000D02*
X656000Y656000D01*
X656000Y3746500D01*
X30972094Y3746500D01*
X30972094Y2222500D01*
X30997473Y2094911D01*
X31069746Y1986746D01*
X31177911Y1914473D01*
X31305500Y1889094D01*
X32829500Y1889094D01*
X32957089Y1914473D01*
X33065254Y1986746D01*
X33137527Y2094911D01*
X33162906Y2222500D01*
X33162906Y3746500D01*
X33512094Y3746500D01*
X33512094Y2222500D01*
X33537473Y2094911D01*
X33609746Y1986746D01*
X33717911Y1914473D01*
X33845500Y1889094D01*
X35369500Y1889094D01*
X35497089Y1914473D01*
X35605254Y1986746D01*
X35677527Y2094911D01*
X35702906Y2222500D01*
X35702906Y3746500D01*
X36052094Y3746500D01*
X36052094Y2222500D01*
X36077473Y2094911D01*
X36149746Y1986746D01*
X36257911Y1914473D01*
X36385500Y1889094D01*
X37909500Y1889094D01*
X38037089Y1914473D01*
X38145254Y1986746D01*
X38217527Y2094911D01*
X38242906Y2222500D01*
X38242906Y3746500D01*
X38592094Y3746500D01*
X38592094Y2222500D01*
X38617473Y2094911D01*
X38689746Y1986746D01*
X38797911Y1914473D01*
X38925500Y1889094D01*
X40449500Y1889094D01*
X40577089Y1914473D01*
X40685254Y1986746D01*
X40757527Y2094911D01*
X40782906Y2222500D01*
X40782906Y3746500D01*
X41132094Y3746500D01*
X41132094Y2222500D01*
X41157473Y2094911D01*
X41229746Y1986746D01*
X41337911Y1914473D01*
X41465500Y1889094D01*
X42989500Y1889094D01*
X43117089Y1914473D01*
X43225254Y1986746D01*
X43297527Y2094911D01*
X43322906Y2222500D01*
X43322906Y3746500D01*
X43672094Y3746500D01*
X43672094Y2222500D01*
X43697473Y2094911D01*
X43769746Y1986746D01*
X43877911Y1914473D01*
X44005500Y1889094D01*
X45529500Y1889094D01*
X45657089Y1914473D01*
X45765254Y1986746D01*
X45837527Y2094911D01*
X45862906Y2222500D01*
X45862906Y3746500D01*
X46212094Y3746500D01*
X46212094Y2222500D01*
X46237473Y2094911D01*
X46309746Y1986746D01*
X46417911Y1914473D01*
X46545500Y1889094D01*
X48069500Y1889094D01*
X48197089Y1914473D01*
X48305254Y1986746D01*
X48377527Y2094911D01*
X48402906Y2222500D01*
X48402906Y3746500D01*
X48752094Y3746500D01*
X48752094Y2222500D01*
X48777473Y2094911D01*
X48849746Y1986746D01*
X48957911Y1914473D01*
X49085500Y1889094D01*
X50609500Y1889094D01*
X50737089Y1914473D01*
X50845254Y1986746D01*
X50917527Y2094911D01*
X50942906Y2222500D01*
X50942906Y3683000D01*
X53133594Y3683000D01*
X53133594Y2159000D01*
X53158973Y2031411D01*
X53231246Y1923246D01*
X53339411Y1850973D01*
X53467000Y1825594D01*
X54991000Y1825594D01*
X55118589Y1850973D01*
X55226754Y1923246D01*
X55299027Y2031411D01*
X55324406Y2159000D01*
X55324406Y3683000D01*
X55299027Y3810589D01*
X55226754Y3918754D01*
X55118589Y3991027D01*
X54991000Y4016406D01*
X53467000Y4016406D01*
X53339411Y3991027D01*
X53231246Y3918754D01*
X53158973Y3810589D01*
X53133594Y3683000D01*
X50942906Y3683000D01*
X50942906Y3746500D01*
X50917527Y3874089D01*
X50845254Y3982254D01*
X50737089Y4054527D01*
X50609500Y4079906D01*
X49085500Y4079906D01*
X48957911Y4054527D01*
X48849746Y3982254D01*
X48777473Y3874089D01*
X48752094Y3746500D01*
X48402906Y3746500D01*
X48377527Y3874089D01*
X48305254Y3982254D01*
X48197089Y4054527D01*
X48069500Y4079906D01*
X46545500Y4079906D01*
X46417911Y4054527D01*
X46309746Y3982254D01*
X46237473Y3874089D01*
X46212094Y3746500D01*
X45862906Y3746500D01*
X45837527Y3874089D01*
X45765254Y3982254D01*
X45657089Y4054527D01*
X45529500Y4079906D01*
X44005500Y4079906D01*
X43877911Y4054527D01*
X43769746Y3982254D01*
X43697473Y3874089D01*
X43672094Y3746500D01*
X43322906Y3746500D01*
X43297527Y3874089D01*
X43225254Y3982254D01*
X43117089Y4054527D01*
X42989500Y4079906D01*
X41465500Y4079906D01*
X41337911Y4054527D01*
X41229746Y3982254D01*
X41157473Y3874089D01*
X41132094Y3746500D01*
X40782906Y3746500D01*
X40757527Y3874089D01*
X40685254Y3982254D01*
X40577089Y4054527D01*
X40449500Y4079906D01*
X38925500Y4079906D01*
X38797911Y4054527D01*
X38689746Y3982254D01*
X38617473Y3874089D01*
X38592094Y3746500D01*
X38242906Y3746500D01*
X38217527Y3874089D01*
X38145254Y3982254D01*
X38037089Y4054527D01*
X37909500Y4079906D01*
X36385500Y4079906D01*
X36257911Y4054527D01*
X36149746Y3982254D01*
X36077473Y3874089D01*
X36052094Y3746500D01*
X35702906Y3746500D01*
X35677527Y3874089D01*
X35605254Y3982254D01*
X35497089Y4054527D01*
X35369500Y4079906D01*
X33845500Y4079906D01*
X33717911Y4054527D01*
X33609746Y3982254D01*
X33537473Y3874089D01*
X33512094Y3746500D01*
X33162906Y3746500D01*
X33137527Y3874089D01*
X33065254Y3982254D01*
X32957089Y4054527D01*
X32829500Y4079906D01*
X31305500Y4079906D01*
X31177911Y4054527D01*
X31069746Y3982254D01*
X30997473Y3874089D01*
X30972094Y3746500D01*
X656000Y3746500D01*
X656000Y6985000D01*
X11096594Y6985000D01*
X11096594Y5461000D01*
X11121973Y5333411D01*
X11194246Y5225246D01*
X11302411Y5152973D01*
X11430000Y5127594D01*
X12954000Y5127594D01*
X13081589Y5152973D01*
X13189754Y5225246D01*
X13262027Y5333411D01*
X13287406Y5461000D01*
X13287406Y6985000D01*
X13636594Y6985000D01*
X13636594Y5461000D01*
X13661973Y5333411D01*
X13734246Y5225246D01*
X13842411Y5152973D01*
X13970000Y5127594D01*
X15494000Y5127594D01*
X15621589Y5152973D01*
X15729754Y5225246D01*
X15802027Y5333411D01*
X15827406Y5461000D01*
X15827406Y6985000D01*
X15802027Y7112589D01*
X15729754Y7220754D01*
X15621589Y7293027D01*
X15494000Y7318406D01*
X13970000Y7318406D01*
X13842411Y7293027D01*
X13734246Y7220754D01*
X13661973Y7112589D01*
X13636594Y6985000D01*
X13287406Y6985000D01*
X13262027Y7112589D01*
X13189754Y7220754D01*
X13081589Y7293027D01*
X12954000Y7318406D01*
X11430000Y7318406D01*
X11302411Y7293027D01*
X11194246Y7220754D01*
X11121973Y7112589D01*
X11096594Y6985000D01*
X656000Y6985000D01*
X656000Y18034000D01*
X24431594Y18034000D01*
X24431594Y16510000D01*
X24456973Y16382411D01*
X24529246Y16274246D01*
X24637411Y16201973D01*
X24765000Y16176594D01*
X26289000Y16176594D01*
X26416589Y16201973D01*
X26524754Y16274246D01*
X26597027Y16382411D01*
X26622406Y16510000D01*
X26622406Y18034000D01*
X26597027Y18161589D01*
X26524754Y18269754D01*
X26416589Y18342027D01*
X26289000Y18367406D01*
X24765000Y18367406D01*
X24637411Y18342027D01*
X24529246Y18269754D01*
X24456973Y18161589D01*
X24431594Y18034000D01*
X656000Y18034000D01*
X656000Y19215335D01*
X14150811Y19215335D01*
X14316252Y18814937D01*
X14622326Y18508329D01*
X15022434Y18342189D01*
X15455665Y18341811D01*
X15856063Y18507252D01*
X16162671Y18813326D01*
X16328811Y19213434D01*
X16329189Y19646665D01*
X16163748Y20047063D01*
X15857674Y20353671D01*
X15457566Y20519811D01*
X15024335Y20520189D01*
X14623937Y20354748D01*
X14317329Y20048674D01*
X14151189Y19648566D01*
X14150811Y19215335D01*
X656000Y19215335D01*
X656000Y20574000D01*
X24431594Y20574000D01*
X24431594Y19050000D01*
X24456973Y18922411D01*
X24529246Y18814246D01*
X24637411Y18741973D01*
X24765000Y18716594D01*
X26289000Y18716594D01*
X26416589Y18741973D01*
X26524754Y18814246D01*
X26597027Y18922411D01*
X26622406Y19050000D01*
X26622406Y20574000D01*
X26597027Y20701589D01*
X26524754Y20809754D01*
X26416589Y20882027D01*
X26289000Y20907406D01*
X24765000Y20907406D01*
X24637411Y20882027D01*
X24529246Y20809754D01*
X24456973Y20701589D01*
X24431594Y20574000D01*
X656000Y20574000D01*
X656000Y21755335D01*
X12151831Y21755335D01*
X12317272Y21354937D01*
X12623346Y21048329D01*
X13023454Y20882189D01*
X13456685Y20881811D01*
X13857083Y21047252D01*
X14163691Y21353326D01*
X14240494Y21538286D01*
X14316252Y21354937D01*
X14622326Y21048329D01*
X15022434Y20882189D01*
X15455665Y20881811D01*
X15856063Y21047252D01*
X16162671Y21353326D01*
X16328811Y21753434D01*
X16329189Y22186665D01*
X16163748Y22587063D01*
X15933588Y22817625D01*
X29092474Y22817625D01*
X29202920Y22550325D01*
X29407250Y22345639D01*
X29674356Y22234726D01*
X29963575Y22234474D01*
X30230875Y22344920D01*
X30370798Y22484600D01*
X31232052Y22484600D01*
X31681861Y22034791D01*
X31681690Y21838441D01*
X31792136Y21571141D01*
X31996466Y21366455D01*
X32263572Y21255542D01*
X32552791Y21255290D01*
X32820091Y21365736D01*
X33024777Y21570066D01*
X33135690Y21837172D01*
X33135942Y22126391D01*
X33025496Y22393691D01*
X32821166Y22598377D01*
X32554060Y22709290D01*
X32356350Y22709462D01*
X31766922Y23298890D01*
X31612172Y23402291D01*
X31429632Y23438600D01*
X30370669Y23438600D01*
X30231950Y23577561D01*
X29964844Y23688474D01*
X29675625Y23688726D01*
X29408325Y23578280D01*
X29203639Y23373950D01*
X29092726Y23106844D01*
X29092474Y22817625D01*
X15933588Y22817625D01*
X15857674Y22893671D01*
X15457566Y23059811D01*
X15107400Y23060117D01*
X15107400Y23424420D01*
X20314380Y28631400D01*
X32815782Y28631400D01*
X28664382Y24480000D01*
X23538069Y24480000D01*
X23399350Y24618961D01*
X23132244Y24729874D01*
X22843025Y24730126D01*
X22575725Y24619680D01*
X22371039Y24415350D01*
X22260126Y24148244D01*
X22259874Y23859025D01*
X22370320Y23591725D01*
X22574650Y23387039D01*
X22841756Y23276126D01*
X23130975Y23275874D01*
X23398275Y23386320D01*
X23538198Y23526000D01*
X28861962Y23526000D01*
X29044502Y23562309D01*
X29199252Y23665710D01*
X31988191Y26454649D01*
X31988076Y26322825D01*
X32098522Y26055525D01*
X32302852Y25850839D01*
X32569958Y25739926D01*
X32859177Y25739674D01*
X33126477Y25850120D01*
X33285391Y26008758D01*
X33285391Y24909048D01*
X33282000Y24892000D01*
X33282000Y21714465D01*
X32881202Y21313667D01*
X32640505Y21214213D01*
X32435819Y21009883D01*
X32324906Y20742777D01*
X32324654Y20453558D01*
X32435100Y20186258D01*
X32639430Y19981572D01*
X32906536Y19870659D01*
X33195755Y19870407D01*
X33463055Y19980853D01*
X33667741Y20185183D01*
X33768291Y20427332D01*
X34352356Y21011397D01*
X34376077Y21046898D01*
X34488272Y21214810D01*
X34536000Y21454753D01*
X34536000Y24138000D01*
X36063237Y24138000D01*
X36303758Y24038126D01*
X36592977Y24037874D01*
X36860277Y24148320D01*
X37064963Y24352650D01*
X37175876Y24619756D01*
X37176128Y24908975D01*
X37065682Y25176275D01*
X36861352Y25380961D01*
X36594246Y25491874D01*
X36305027Y25492126D01*
X36062703Y25392000D01*
X34539391Y25392000D01*
X34539391Y26680877D01*
X34639265Y26921398D01*
X34639517Y27210617D01*
X34586205Y27339643D01*
X36120779Y27339643D01*
X36230045Y27230377D01*
X36229874Y27034027D01*
X36340320Y26766727D01*
X36544650Y26562041D01*
X36811756Y26451128D01*
X37100975Y26450876D01*
X37368275Y26561322D01*
X37572961Y26765652D01*
X37683874Y27032758D01*
X37684126Y27321977D01*
X37573680Y27589277D01*
X37369350Y27793963D01*
X37102244Y27904876D01*
X36904534Y27905048D01*
X36756606Y28052976D01*
X39333889Y28052976D01*
X39333754Y27897625D01*
X39439070Y27642741D01*
X39317808Y27521690D01*
X39176603Y27521690D01*
X38994063Y27485381D01*
X38839313Y27381980D01*
X37330625Y25873292D01*
X37227224Y25718542D01*
X37190915Y25536002D01*
X37190915Y20625996D01*
X30618209Y14053290D01*
X30514808Y13898540D01*
X30478499Y13716000D01*
X30478499Y7698501D01*
X30514808Y7515961D01*
X30618209Y7361211D01*
X31359514Y6619906D01*
X31305500Y6619906D01*
X31177911Y6594527D01*
X31069746Y6522254D01*
X30997473Y6414089D01*
X30972094Y6286500D01*
X30972094Y4762500D01*
X30997473Y4634911D01*
X31069746Y4526746D01*
X31177911Y4454473D01*
X31305500Y4429094D01*
X32829500Y4429094D01*
X32957089Y4454473D01*
X33065254Y4526746D01*
X33137527Y4634911D01*
X33162906Y4762500D01*
X33162906Y6286500D01*
X33137527Y6414089D01*
X33065254Y6522254D01*
X32957089Y6594527D01*
X32829500Y6619906D01*
X32537855Y6619906D01*
X32508191Y6769040D01*
X32404790Y6923790D01*
X31432499Y7896081D01*
X31432499Y9001094D01*
X32829500Y9001094D01*
X32957089Y9026473D01*
X33018499Y9067506D01*
X33018499Y7698501D01*
X33054808Y7515961D01*
X33158209Y7361211D01*
X33899514Y6619906D01*
X33845500Y6619906D01*
X33717911Y6594527D01*
X33609746Y6522254D01*
X33537473Y6414089D01*
X33512094Y6286500D01*
X33512094Y4762500D01*
X33537473Y4634911D01*
X33609746Y4526746D01*
X33717911Y4454473D01*
X33845500Y4429094D01*
X35369500Y4429094D01*
X35497089Y4454473D01*
X35605254Y4526746D01*
X35677527Y4634911D01*
X35702906Y4762500D01*
X35702906Y6286500D01*
X35677527Y6414089D01*
X35605254Y6522254D01*
X35497089Y6594527D01*
X35369500Y6619906D01*
X35077855Y6619906D01*
X35048191Y6769040D01*
X34944790Y6923790D01*
X33972499Y7896081D01*
X33972499Y9001094D01*
X35369500Y9001094D01*
X35497089Y9026473D01*
X35558499Y9067506D01*
X35558499Y7698501D01*
X35594808Y7515961D01*
X35698209Y7361211D01*
X36439514Y6619906D01*
X36385500Y6619906D01*
X36257911Y6594527D01*
X36149746Y6522254D01*
X36077473Y6414089D01*
X36052094Y6286500D01*
X36052094Y4762500D01*
X36077473Y4634911D01*
X36149746Y4526746D01*
X36257911Y4454473D01*
X36385500Y4429094D01*
X37909500Y4429094D01*
X38037089Y4454473D01*
X38145254Y4526746D01*
X38217527Y4634911D01*
X38242906Y4762500D01*
X38242906Y6286500D01*
X38217527Y6414089D01*
X38145254Y6522254D01*
X38037089Y6594527D01*
X37909500Y6619906D01*
X37617855Y6619906D01*
X37588191Y6769040D01*
X37484790Y6923790D01*
X36512499Y7896081D01*
X36512499Y9001094D01*
X37909500Y9001094D01*
X38037089Y9026473D01*
X38098499Y9067506D01*
X38098499Y7698501D01*
X38134808Y7515961D01*
X38238209Y7361211D01*
X38979514Y6619906D01*
X38925500Y6619906D01*
X38797911Y6594527D01*
X38689746Y6522254D01*
X38617473Y6414089D01*
X38592094Y6286500D01*
X38592094Y4762500D01*
X38617473Y4634911D01*
X38689746Y4526746D01*
X38797911Y4454473D01*
X38925500Y4429094D01*
X40449500Y4429094D01*
X40577089Y4454473D01*
X40685254Y4526746D01*
X40757527Y4634911D01*
X40782906Y4762500D01*
X40782906Y6286500D01*
X40757527Y6414089D01*
X40685254Y6522254D01*
X40577089Y6594527D01*
X40449500Y6619906D01*
X40157855Y6619906D01*
X40128191Y6769040D01*
X40024790Y6923790D01*
X39052499Y7896081D01*
X39052499Y9001094D01*
X40449500Y9001094D01*
X40518600Y9014839D01*
X40518600Y7818400D01*
X40554909Y7635860D01*
X40658310Y7481110D01*
X41519514Y6619906D01*
X41465500Y6619906D01*
X41337911Y6594527D01*
X41229746Y6522254D01*
X41157473Y6414089D01*
X41132094Y6286500D01*
X41132094Y4762500D01*
X41157473Y4634911D01*
X41229746Y4526746D01*
X41337911Y4454473D01*
X41465500Y4429094D01*
X42989500Y4429094D01*
X43117089Y4454473D01*
X43225254Y4526746D01*
X43297527Y4634911D01*
X43322906Y4762500D01*
X43322906Y6286500D01*
X43297527Y6414089D01*
X43225254Y6522254D01*
X43117089Y6594527D01*
X42989500Y6619906D01*
X42697855Y6619906D01*
X42668191Y6769040D01*
X42564790Y6923790D01*
X41472600Y8015980D01*
X41472600Y9001094D01*
X42989500Y9001094D01*
X43117089Y9026473D01*
X43178499Y9067506D01*
X43178499Y7698501D01*
X43214808Y7515961D01*
X43318209Y7361211D01*
X44059514Y6619906D01*
X44005500Y6619906D01*
X43877911Y6594527D01*
X43769746Y6522254D01*
X43697473Y6414089D01*
X43672094Y6286500D01*
X43672094Y4762500D01*
X43697473Y4634911D01*
X43769746Y4526746D01*
X43877911Y4454473D01*
X44005500Y4429094D01*
X45529500Y4429094D01*
X45657089Y4454473D01*
X45765254Y4526746D01*
X45837527Y4634911D01*
X45862906Y4762500D01*
X45862906Y6286500D01*
X45837527Y6414089D01*
X45765254Y6522254D01*
X45657089Y6594527D01*
X45529500Y6619906D01*
X45237855Y6619906D01*
X45208191Y6769040D01*
X45104790Y6923790D01*
X44132499Y7896081D01*
X44132499Y9001094D01*
X45529500Y9001094D01*
X45657089Y9026473D01*
X45718499Y9067506D01*
X45718499Y7698501D01*
X45754808Y7515961D01*
X45858209Y7361211D01*
X46599514Y6619906D01*
X46545500Y6619906D01*
X46417911Y6594527D01*
X46309746Y6522254D01*
X46237473Y6414089D01*
X46212094Y6286500D01*
X46212094Y4762500D01*
X46237473Y4634911D01*
X46309746Y4526746D01*
X46417911Y4454473D01*
X46545500Y4429094D01*
X48069500Y4429094D01*
X48197089Y4454473D01*
X48305254Y4526746D01*
X48377527Y4634911D01*
X48402906Y4762500D01*
X48402906Y6286500D01*
X48377527Y6414089D01*
X48305254Y6522254D01*
X48197089Y6594527D01*
X48069500Y6619906D01*
X47777855Y6619906D01*
X47748191Y6769040D01*
X47644790Y6923790D01*
X46672499Y7896081D01*
X46672499Y9001094D01*
X48069500Y9001094D01*
X48197089Y9026473D01*
X48258499Y9067506D01*
X48258499Y7698501D01*
X48294808Y7515961D01*
X48398209Y7361211D01*
X49139514Y6619906D01*
X49085500Y6619906D01*
X48957911Y6594527D01*
X48849746Y6522254D01*
X48777473Y6414089D01*
X48752094Y6286500D01*
X48752094Y4762500D01*
X48777473Y4634911D01*
X48849746Y4526746D01*
X48957911Y4454473D01*
X49085500Y4429094D01*
X50609500Y4429094D01*
X50737089Y4454473D01*
X50845254Y4526746D01*
X50917527Y4634911D01*
X50942906Y4762500D01*
X50942906Y6286500D01*
X50917527Y6414089D01*
X50845254Y6522254D01*
X50737089Y6594527D01*
X50609500Y6619906D01*
X50317855Y6619906D01*
X50288191Y6769040D01*
X50184790Y6923790D01*
X49212499Y7896081D01*
X49212499Y9001094D01*
X50609500Y9001094D01*
X50737089Y9026473D01*
X50845254Y9098746D01*
X50917527Y9206911D01*
X50942906Y9334500D01*
X50942906Y10858500D01*
X50917527Y10986089D01*
X50845254Y11094254D01*
X50737089Y11166527D01*
X50609500Y11191906D01*
X49212499Y11191906D01*
X49212499Y11541094D01*
X50609500Y11541094D01*
X50737089Y11566473D01*
X50845254Y11638746D01*
X50917527Y11746911D01*
X50942906Y11874500D01*
X50942906Y12556019D01*
X51469874Y12556019D01*
X51580320Y12288719D01*
X51784650Y12084033D01*
X52051756Y11973120D01*
X52178695Y11973009D01*
X53702000Y10449704D01*
X53702000Y6556406D01*
X53467000Y6556406D01*
X53339411Y6531027D01*
X53231246Y6458754D01*
X53158973Y6350589D01*
X53133594Y6223000D01*
X53133594Y4699000D01*
X53158973Y4571411D01*
X53231246Y4463246D01*
X53339411Y4390973D01*
X53467000Y4365594D01*
X54991000Y4365594D01*
X55118589Y4390973D01*
X55226754Y4463246D01*
X55299027Y4571411D01*
X55324406Y4699000D01*
X55324406Y6223000D01*
X55299027Y6350589D01*
X55226754Y6458754D01*
X55118589Y6531027D01*
X54991000Y6556406D01*
X54756000Y6556406D01*
X54756000Y10667994D01*
X54724571Y10826000D01*
X54715885Y10869669D01*
X54601645Y11040639D01*
X52924016Y12718268D01*
X52924126Y12843969D01*
X52813680Y13111269D01*
X52609350Y13315955D01*
X52342244Y13426868D01*
X52053025Y13427120D01*
X51785725Y13316674D01*
X51581039Y13112344D01*
X51470126Y12845238D01*
X51469874Y12556019D01*
X50942906Y12556019D01*
X50942906Y13398500D01*
X50917527Y13526089D01*
X50845254Y13634254D01*
X50737089Y13706527D01*
X50609500Y13731906D01*
X49212499Y13731906D01*
X49212499Y15526501D01*
X49176190Y15709041D01*
X49072789Y15863791D01*
X44673000Y20263580D01*
X44673000Y20530931D01*
X44811961Y20669650D01*
X44922874Y20936756D01*
X44923007Y21090425D01*
X45958074Y21090425D01*
X46068520Y20823125D01*
X46208200Y20683202D01*
X46208200Y20465515D01*
X46244509Y20282975D01*
X46347910Y20128225D01*
X56195999Y10280136D01*
X56195999Y10260999D01*
X56232308Y10078459D01*
X56335709Y9923709D01*
X56405709Y9853709D01*
X56560459Y9750308D01*
X56742999Y9713999D01*
X62849999Y9713999D01*
X63032539Y9750308D01*
X63187289Y9853709D01*
X63928594Y10595014D01*
X63928594Y10541000D01*
X63953973Y10413411D01*
X64026246Y10305246D01*
X64134411Y10232973D01*
X64262000Y10207594D01*
X65786000Y10207594D01*
X65913589Y10232973D01*
X66021754Y10305246D01*
X66094027Y10413411D01*
X66119406Y10541000D01*
X66119406Y12065000D01*
X66468594Y12065000D01*
X66468594Y10541000D01*
X66493973Y10413411D01*
X66566246Y10305246D01*
X66674411Y10232973D01*
X66802000Y10207594D01*
X68326000Y10207594D01*
X68453589Y10232973D01*
X68561754Y10305246D01*
X68634027Y10413411D01*
X68659406Y10541000D01*
X68659406Y12065000D01*
X68634027Y12192589D01*
X68561754Y12300754D01*
X68453589Y12373027D01*
X68326000Y12398406D01*
X66802000Y12398406D01*
X66674411Y12373027D01*
X66566246Y12300754D01*
X66493973Y12192589D01*
X66468594Y12065000D01*
X66119406Y12065000D01*
X66094027Y12192589D01*
X66021754Y12300754D01*
X65913589Y12373027D01*
X65786000Y12398406D01*
X64262000Y12398406D01*
X64134411Y12373027D01*
X64026246Y12300754D01*
X63953973Y12192589D01*
X63928594Y12065000D01*
X63928594Y11773355D01*
X63779460Y11743691D01*
X63624710Y11640290D01*
X62652419Y10667999D01*
X61420406Y10667999D01*
X61420406Y12065000D01*
X61395027Y12192589D01*
X61353994Y12253999D01*
X62849999Y12253999D01*
X63032539Y12290308D01*
X63187289Y12393709D01*
X63928594Y13135014D01*
X63928594Y13081000D01*
X63953973Y12953411D01*
X64026246Y12845246D01*
X64134411Y12772973D01*
X64262000Y12747594D01*
X65786000Y12747594D01*
X65913589Y12772973D01*
X66021754Y12845246D01*
X66094027Y12953411D01*
X66119406Y13081000D01*
X66119406Y14605000D01*
X66468594Y14605000D01*
X66468594Y13081000D01*
X66493973Y12953411D01*
X66566246Y12845246D01*
X66674411Y12772973D01*
X66802000Y12747594D01*
X68326000Y12747594D01*
X68453589Y12772973D01*
X68561754Y12845246D01*
X68634027Y12953411D01*
X68659406Y13081000D01*
X68659406Y14605000D01*
X68634027Y14732589D01*
X68561754Y14840754D01*
X68453589Y14913027D01*
X68326000Y14938406D01*
X66802000Y14938406D01*
X66674411Y14913027D01*
X66566246Y14840754D01*
X66493973Y14732589D01*
X66468594Y14605000D01*
X66119406Y14605000D01*
X66094027Y14732589D01*
X66021754Y14840754D01*
X65913589Y14913027D01*
X65786000Y14938406D01*
X64262000Y14938406D01*
X64134411Y14913027D01*
X64026246Y14840754D01*
X63953973Y14732589D01*
X63928594Y14605000D01*
X63928594Y14313355D01*
X63779460Y14283691D01*
X63624710Y14180290D01*
X62652419Y13207999D01*
X61420406Y13207999D01*
X61420406Y14605000D01*
X61395027Y14732589D01*
X61353994Y14793999D01*
X62849999Y14793999D01*
X63032539Y14830308D01*
X63187289Y14933709D01*
X63928594Y15675014D01*
X63928594Y15621000D01*
X63953973Y15493411D01*
X64026246Y15385246D01*
X64134411Y15312973D01*
X64262000Y15287594D01*
X65786000Y15287594D01*
X65913589Y15312973D01*
X66021754Y15385246D01*
X66094027Y15493411D01*
X66119406Y15621000D01*
X66119406Y17145000D01*
X66468594Y17145000D01*
X66468594Y15621000D01*
X66493973Y15493411D01*
X66566246Y15385246D01*
X66674411Y15312973D01*
X66802000Y15287594D01*
X68326000Y15287594D01*
X68453589Y15312973D01*
X68561754Y15385246D01*
X68634027Y15493411D01*
X68659406Y15621000D01*
X68659406Y17145000D01*
X68634027Y17272589D01*
X68561754Y17380754D01*
X68453589Y17453027D01*
X68326000Y17478406D01*
X66802000Y17478406D01*
X66674411Y17453027D01*
X66566246Y17380754D01*
X66493973Y17272589D01*
X66468594Y17145000D01*
X66119406Y17145000D01*
X66094027Y17272589D01*
X66021754Y17380754D01*
X65913589Y17453027D01*
X65786000Y17478406D01*
X64262000Y17478406D01*
X64134411Y17453027D01*
X64026246Y17380754D01*
X63953973Y17272589D01*
X63928594Y17145000D01*
X63928594Y16853355D01*
X63779460Y16823691D01*
X63624710Y16720290D01*
X62652419Y15747999D01*
X61420406Y15747999D01*
X61420406Y17145000D01*
X61395027Y17272589D01*
X61374707Y17303000D01*
X62819000Y17303000D01*
X63001540Y17339309D01*
X63156290Y17442710D01*
X63928594Y18215014D01*
X63928594Y18161000D01*
X63953973Y18033411D01*
X64026246Y17925246D01*
X64134411Y17852973D01*
X64262000Y17827594D01*
X65786000Y17827594D01*
X65913589Y17852973D01*
X66021754Y17925246D01*
X66094027Y18033411D01*
X66119406Y18161000D01*
X66119406Y19685000D01*
X66468594Y19685000D01*
X66468594Y18161000D01*
X66493973Y18033411D01*
X66566246Y17925246D01*
X66674411Y17852973D01*
X66802000Y17827594D01*
X68326000Y17827594D01*
X68453589Y17852973D01*
X68561754Y17925246D01*
X68634027Y18033411D01*
X68659406Y18161000D01*
X68659406Y19685000D01*
X68634027Y19812589D01*
X68561754Y19920754D01*
X68453589Y19993027D01*
X68326000Y20018406D01*
X66802000Y20018406D01*
X66674411Y19993027D01*
X66566246Y19920754D01*
X66493973Y19812589D01*
X66468594Y19685000D01*
X66119406Y19685000D01*
X66094027Y19812589D01*
X66021754Y19920754D01*
X65913589Y19993027D01*
X65786000Y20018406D01*
X64262000Y20018406D01*
X64134411Y19993027D01*
X64026246Y19920754D01*
X63953973Y19812589D01*
X63928594Y19685000D01*
X63928594Y19393355D01*
X63779460Y19363691D01*
X63624710Y19260290D01*
X62621420Y18257000D01*
X61420406Y18257000D01*
X61420406Y19685000D01*
X61395027Y19812589D01*
X61353994Y19873999D01*
X62849999Y19873999D01*
X63032539Y19910308D01*
X63187289Y20013709D01*
X63928594Y20755014D01*
X63928594Y20701000D01*
X63953973Y20573411D01*
X64026246Y20465246D01*
X64134411Y20392973D01*
X64262000Y20367594D01*
X65786000Y20367594D01*
X65913589Y20392973D01*
X66021754Y20465246D01*
X66094027Y20573411D01*
X66119406Y20701000D01*
X66119406Y22225000D01*
X66468594Y22225000D01*
X66468594Y20701000D01*
X66493973Y20573411D01*
X66566246Y20465246D01*
X66674411Y20392973D01*
X66802000Y20367594D01*
X68326000Y20367594D01*
X68453589Y20392973D01*
X68561754Y20465246D01*
X68634027Y20573411D01*
X68659406Y20701000D01*
X68659406Y22225000D01*
X68634027Y22352589D01*
X68561754Y22460754D01*
X68453589Y22533027D01*
X68326000Y22558406D01*
X66802000Y22558406D01*
X66674411Y22533027D01*
X66566246Y22460754D01*
X66493973Y22352589D01*
X66468594Y22225000D01*
X66119406Y22225000D01*
X66094027Y22352589D01*
X66021754Y22460754D01*
X65913589Y22533027D01*
X65786000Y22558406D01*
X64262000Y22558406D01*
X64134411Y22533027D01*
X64026246Y22460754D01*
X63953973Y22352589D01*
X63928594Y22225000D01*
X63928594Y21933355D01*
X63779460Y21903691D01*
X63624710Y21800290D01*
X62652419Y20827999D01*
X61420406Y20827999D01*
X61420406Y22225000D01*
X61395027Y22352589D01*
X61387435Y22363951D01*
X62799951Y22363951D01*
X62982491Y22400260D01*
X63137241Y22503661D01*
X63928594Y23295014D01*
X63928594Y23241000D01*
X63953973Y23113411D01*
X64026246Y23005246D01*
X64134411Y22932973D01*
X64262000Y22907594D01*
X65786000Y22907594D01*
X65913589Y22932973D01*
X66021754Y23005246D01*
X66094027Y23113411D01*
X66119406Y23241000D01*
X66119406Y24765000D01*
X66468594Y24765000D01*
X66468594Y23241000D01*
X66493973Y23113411D01*
X66566246Y23005246D01*
X66674411Y22932973D01*
X66802000Y22907594D01*
X68326000Y22907594D01*
X68453589Y22932973D01*
X68561754Y23005246D01*
X68634027Y23113411D01*
X68659406Y23241000D01*
X68659406Y24765000D01*
X68634027Y24892589D01*
X68561754Y25000754D01*
X68453589Y25073027D01*
X68326000Y25098406D01*
X66802000Y25098406D01*
X66674411Y25073027D01*
X66566246Y25000754D01*
X66493973Y24892589D01*
X66468594Y24765000D01*
X66119406Y24765000D01*
X66094027Y24892589D01*
X66021754Y25000754D01*
X65913589Y25073027D01*
X65786000Y25098406D01*
X64262000Y25098406D01*
X64134411Y25073027D01*
X64026246Y25000754D01*
X63953973Y24892589D01*
X63928594Y24765000D01*
X63928594Y24473355D01*
X63779459Y24443691D01*
X63624710Y24340290D01*
X62602371Y23317951D01*
X61420406Y23317951D01*
X61420406Y24765000D01*
X61395027Y24892589D01*
X61374707Y24923000D01*
X62819000Y24923000D01*
X63001540Y24959309D01*
X63156290Y25062710D01*
X63928594Y25835014D01*
X63928594Y25781000D01*
X63953973Y25653411D01*
X64026246Y25545246D01*
X64134411Y25472973D01*
X64262000Y25447594D01*
X65786000Y25447594D01*
X65913589Y25472973D01*
X66021754Y25545246D01*
X66094027Y25653411D01*
X66119406Y25781000D01*
X66119406Y27305000D01*
X66468594Y27305000D01*
X66468594Y25781000D01*
X66493973Y25653411D01*
X66566246Y25545246D01*
X66674411Y25472973D01*
X66802000Y25447594D01*
X68326000Y25447594D01*
X68453589Y25472973D01*
X68561754Y25545246D01*
X68634027Y25653411D01*
X68659406Y25781000D01*
X68659406Y27305000D01*
X68634027Y27432589D01*
X68561754Y27540754D01*
X68453589Y27613027D01*
X68326000Y27638406D01*
X66802000Y27638406D01*
X66674411Y27613027D01*
X66566246Y27540754D01*
X66493973Y27432589D01*
X66468594Y27305000D01*
X66119406Y27305000D01*
X66094027Y27432589D01*
X66021754Y27540754D01*
X65913589Y27613027D01*
X65786000Y27638406D01*
X64262000Y27638406D01*
X64134411Y27613027D01*
X64026246Y27540754D01*
X63953973Y27432589D01*
X63928594Y27305000D01*
X63928594Y27013355D01*
X63779460Y26983691D01*
X63624710Y26880290D01*
X62621420Y25877000D01*
X61420406Y25877000D01*
X61420406Y27305000D01*
X61395027Y27432589D01*
X61353994Y27493999D01*
X62849999Y27493999D01*
X63032539Y27530308D01*
X63187289Y27633709D01*
X63928594Y28375014D01*
X63928594Y28321000D01*
X63953973Y28193411D01*
X64026246Y28085246D01*
X64134411Y28012973D01*
X64262000Y27987594D01*
X65786000Y27987594D01*
X65913589Y28012973D01*
X66021754Y28085246D01*
X66094027Y28193411D01*
X66119406Y28321000D01*
X66119406Y29845000D01*
X66468594Y29845000D01*
X66468594Y28321000D01*
X66493973Y28193411D01*
X66566246Y28085246D01*
X66674411Y28012973D01*
X66802000Y27987594D01*
X68326000Y27987594D01*
X68453589Y28012973D01*
X68561754Y28085246D01*
X68634027Y28193411D01*
X68659406Y28321000D01*
X68659406Y29845000D01*
X68634027Y29972589D01*
X68561754Y30080754D01*
X68453589Y30153027D01*
X68326000Y30178406D01*
X66802000Y30178406D01*
X66674411Y30153027D01*
X66566246Y30080754D01*
X66493973Y29972589D01*
X66468594Y29845000D01*
X66119406Y29845000D01*
X66094027Y29972589D01*
X66021754Y30080754D01*
X65913589Y30153027D01*
X65786000Y30178406D01*
X64262000Y30178406D01*
X64134411Y30153027D01*
X64026246Y30080754D01*
X63953973Y29972589D01*
X63928594Y29845000D01*
X63928594Y29553355D01*
X63779460Y29523691D01*
X63624710Y29420290D01*
X62652419Y28447999D01*
X61420406Y28447999D01*
X61420406Y29845000D01*
X61395027Y29972589D01*
X61322754Y30080754D01*
X61214589Y30153027D01*
X61087000Y30178406D01*
X59563000Y30178406D01*
X59435411Y30153027D01*
X59327246Y30080754D01*
X59254973Y29972589D01*
X59229594Y29845000D01*
X59229594Y28447999D01*
X58880406Y28447999D01*
X58880406Y29845000D01*
X58855027Y29972589D01*
X58782754Y30080754D01*
X58674589Y30153027D01*
X58547000Y30178406D01*
X57023000Y30178406D01*
X56911884Y30156304D01*
X59519290Y32763710D01*
X59622691Y32918460D01*
X59652355Y33067594D01*
X59944000Y33067594D01*
X60071589Y33092973D01*
X60179754Y33165246D01*
X60252027Y33273411D01*
X60277406Y33401000D01*
X60277406Y34925000D01*
X60252027Y35052589D01*
X60179754Y35160754D01*
X60071589Y35233027D01*
X59944000Y35258406D01*
X58420000Y35258406D01*
X58292411Y35233027D01*
X58184246Y35160754D01*
X58111973Y35052589D01*
X58086594Y34925000D01*
X58086594Y33401000D01*
X58111973Y33273411D01*
X58184246Y33165246D01*
X58292411Y33092973D01*
X58420000Y33067594D01*
X58474014Y33067594D01*
X55550620Y30144200D01*
X55364269Y30144200D01*
X55225550Y30283161D01*
X54958444Y30394074D01*
X54669225Y30394326D01*
X54401925Y30283880D01*
X54197239Y30079550D01*
X54086326Y29812444D01*
X54086074Y29523225D01*
X54196520Y29255925D01*
X54400850Y29051239D01*
X54667956Y28940326D01*
X54957175Y28940074D01*
X55224475Y29050520D01*
X55364398Y29190200D01*
X55748200Y29190200D01*
X55930740Y29226509D01*
X56085490Y29329910D01*
X56711696Y29956116D01*
X56689594Y29845000D01*
X56689594Y28447999D01*
X56672999Y28447999D01*
X56490459Y28411690D01*
X56335709Y28308289D01*
X54426809Y26399389D01*
X48315112Y26399389D01*
X48176393Y26538350D01*
X47909287Y26649263D01*
X47620068Y26649515D01*
X47352768Y26539069D01*
X47148082Y26334739D01*
X47037169Y26067633D01*
X47036917Y25778414D01*
X47147363Y25511114D01*
X47221608Y25436739D01*
X47119818Y25335126D01*
X47008905Y25068020D01*
X47008653Y24778801D01*
X47119099Y24511501D01*
X47219345Y24411081D01*
X47143527Y24335395D01*
X47032614Y24068289D01*
X47032362Y23779070D01*
X47142808Y23511770D01*
X47190832Y23463663D01*
X47065391Y23338440D01*
X46954478Y23071334D01*
X46954226Y22782115D01*
X47064672Y22514815D01*
X47269002Y22310129D01*
X47536108Y22199216D01*
X47583843Y22199174D01*
X47583674Y22004825D01*
X47694120Y21737525D01*
X47897284Y21534007D01*
X47759472Y21591232D01*
X47470253Y21591484D01*
X47345560Y21539962D01*
X47301880Y21645675D01*
X47097550Y21850361D01*
X46830444Y21961274D01*
X46541225Y21961526D01*
X46273925Y21851080D01*
X46069239Y21646750D01*
X45958326Y21379644D01*
X45958074Y21090425D01*
X44923007Y21090425D01*
X44923126Y21225975D01*
X44812680Y21493275D01*
X44608350Y21697961D01*
X44341244Y21808874D01*
X44052025Y21809126D01*
X43784725Y21698680D01*
X43580039Y21494350D01*
X43469126Y21227244D01*
X43468874Y20938025D01*
X43579320Y20670725D01*
X43719000Y20530802D01*
X43719000Y20066000D01*
X43755309Y19883460D01*
X43858710Y19728710D01*
X48258499Y15328921D01*
X48258499Y13665494D01*
X48197089Y13706527D01*
X48069500Y13731906D01*
X46672499Y13731906D01*
X46672499Y14129501D01*
X46636190Y14312041D01*
X46532789Y14466791D01*
X43279615Y17719965D01*
X43279615Y22423482D01*
X43418576Y22562201D01*
X43529489Y22829307D01*
X43529741Y23118526D01*
X43419295Y23385826D01*
X43214965Y23590512D01*
X42947859Y23701425D01*
X42718456Y23701625D01*
X42718457Y23703198D01*
X42608011Y23970498D01*
X42403681Y24175184D01*
X42136575Y24286097D01*
X41990884Y24286224D01*
X41991029Y24453208D01*
X41880583Y24720508D01*
X41676253Y24925194D01*
X41409147Y25036107D01*
X41119928Y25036359D01*
X40940537Y24962236D01*
X40902443Y25054430D01*
X40698113Y25259116D01*
X40431007Y25370029D01*
X40278887Y25370162D01*
X40456915Y25443721D01*
X40661601Y25648051D01*
X40772514Y25915157D01*
X40772766Y26204376D01*
X40662320Y26471676D01*
X40489952Y26644345D01*
X40595880Y26899446D01*
X40596132Y27188665D01*
X40490816Y27443549D01*
X40676841Y27629250D01*
X40787754Y27896356D01*
X40788006Y28185575D01*
X40677560Y28452875D01*
X40499345Y28631400D01*
X42589728Y28631400D01*
X42797496Y28423632D01*
X42797325Y28227282D01*
X42907771Y27959982D01*
X43112101Y27755296D01*
X43379207Y27644383D01*
X43668426Y27644131D01*
X43935726Y27754577D01*
X44140412Y27958907D01*
X44251325Y28226013D01*
X44251563Y28498818D01*
X44480275Y28593320D01*
X44684961Y28797650D01*
X44795874Y29064756D01*
X44796126Y29353975D01*
X44685680Y29621275D01*
X44481350Y29825961D01*
X44214244Y29936874D01*
X44016534Y29937046D01*
X44006291Y29947289D01*
X43851541Y30050690D01*
X43669001Y30086999D01*
X34820192Y30086999D01*
X34905959Y30172617D01*
X35006509Y30414766D01*
X35587743Y30996000D01*
X48387000Y30996000D01*
X48626943Y31043728D01*
X48830356Y31179644D01*
X49911000Y32260288D01*
X52306600Y29864688D01*
X52306600Y27665367D01*
X52206726Y27424846D01*
X52206474Y27135627D01*
X52316920Y26868327D01*
X52521250Y26663641D01*
X52788356Y26552728D01*
X53077575Y26552476D01*
X53344875Y26662922D01*
X53549561Y26867252D01*
X53660474Y27134358D01*
X53660726Y27423577D01*
X53560600Y27665901D01*
X53560600Y30124400D01*
X53512873Y30364342D01*
X53376956Y30567756D01*
X50538000Y33406712D01*
X50538000Y37333235D01*
X50592714Y37465000D01*
X58086594Y37465000D01*
X58086594Y35941000D01*
X58111973Y35813411D01*
X58184246Y35705246D01*
X58292411Y35632973D01*
X58420000Y35607594D01*
X59944000Y35607594D01*
X60071589Y35632973D01*
X60179754Y35705246D01*
X60252027Y35813411D01*
X60277406Y35941000D01*
X60277406Y37465000D01*
X60252027Y37592589D01*
X60179754Y37700754D01*
X60071589Y37773027D01*
X59944000Y37798406D01*
X58420000Y37798406D01*
X58292411Y37773027D01*
X58184246Y37700754D01*
X58111973Y37592589D01*
X58086594Y37465000D01*
X50592714Y37465000D01*
X50637874Y37573756D01*
X50638126Y37862975D01*
X50527680Y38130275D01*
X50323350Y38334961D01*
X50056244Y38445874D01*
X49767025Y38446126D01*
X49499725Y38335680D01*
X49295039Y38131350D01*
X49184126Y37864244D01*
X49183874Y37575025D01*
X49284000Y37332701D01*
X49284000Y33406712D01*
X48127288Y32250000D01*
X44708130Y32250000D01*
X44811961Y32353650D01*
X44922874Y32620756D01*
X44923126Y32909975D01*
X44812680Y33177275D01*
X44673000Y33317198D01*
X44673000Y36068000D01*
X44657037Y36148251D01*
X44668874Y36176756D01*
X44669126Y36465975D01*
X44558680Y36733275D01*
X44354350Y36937961D01*
X44087244Y37048874D01*
X43798025Y37049126D01*
X43530725Y36938680D01*
X43326039Y36734350D01*
X43215126Y36467244D01*
X43214874Y36178025D01*
X43325320Y35910725D01*
X43529650Y35706039D01*
X43719000Y35627413D01*
X43719000Y33317069D01*
X43580039Y33178350D01*
X43469126Y32911244D01*
X43468874Y32622025D01*
X43579320Y32354725D01*
X43683863Y32250000D01*
X35328031Y32250000D01*
X35088088Y32202272D01*
X35009916Y32150039D01*
X34884675Y32066356D01*
X34119420Y31301101D01*
X33878723Y31201647D01*
X33674037Y30997317D01*
X33563124Y30730211D01*
X33562872Y30440992D01*
X33673318Y30173692D01*
X33759860Y30086999D01*
X19787190Y30086999D01*
X19604650Y30050690D01*
X19449900Y29947289D01*
X13683510Y24180899D01*
X13580109Y24026149D01*
X13543800Y23843609D01*
X13543800Y23024427D01*
X13458586Y23059811D01*
X13025355Y23060189D01*
X12624957Y22894748D01*
X12318349Y22588674D01*
X12152209Y22188566D01*
X12151831Y21755335D01*
X656000Y21755335D01*
X656000Y34203598D01*
X36613303Y34203598D01*
X36777008Y33807403D01*
X37079869Y33504013D01*
X37475778Y33339617D01*
X37904462Y33339243D01*
X38300657Y33502948D01*
X38604047Y33805809D01*
X38768443Y34201718D01*
X38768444Y34203598D01*
X41495183Y34203598D01*
X41658888Y33807403D01*
X41961749Y33504013D01*
X42357658Y33339617D01*
X42786342Y33339243D01*
X43182537Y33502948D01*
X43485927Y33805809D01*
X43650323Y34201718D01*
X43650697Y34630402D01*
X43486992Y35026597D01*
X43184131Y35329987D01*
X42788222Y35494383D01*
X42359538Y35494757D01*
X41963343Y35331052D01*
X41659953Y35028191D01*
X41495557Y34632282D01*
X41495183Y34203598D01*
X38768444Y34203598D01*
X38768817Y34630402D01*
X38605112Y35026597D01*
X38302251Y35329987D01*
X37906342Y35494383D01*
X37477658Y35494757D01*
X37081463Y35331052D01*
X36778073Y35028191D01*
X36613677Y34632282D01*
X36613303Y34203598D01*
X656000Y34203598D01*
X656000Y36561388D01*
X9308210Y36561388D01*
X9562980Y35944797D01*
X10034316Y35472638D01*
X10650461Y35216792D01*
X11317612Y35216210D01*
X11934203Y35470980D01*
X12406362Y35942316D01*
X12573094Y36343851D01*
X12737980Y35944797D01*
X13209316Y35472638D01*
X13825461Y35216792D01*
X14492612Y35216210D01*
X15109203Y35470980D01*
X15581362Y35942316D01*
X15729417Y36298872D01*
X15849480Y36008297D01*
X16320816Y35536138D01*
X16936961Y35280292D01*
X17604112Y35279710D01*
X18220703Y35534480D01*
X18692862Y36005816D01*
X18859594Y36407351D01*
X19024480Y36008297D01*
X19495816Y35536138D01*
X20111961Y35280292D01*
X20779112Y35279710D01*
X21395703Y35534480D01*
X21867862Y36005816D01*
X22034594Y36407351D01*
X22199480Y36008297D01*
X22670816Y35536138D01*
X23286961Y35280292D01*
X23954112Y35279710D01*
X24570703Y35534480D01*
X25042862Y36005816D01*
X25209594Y36407351D01*
X25374480Y36008297D01*
X25845816Y35536138D01*
X26461961Y35280292D01*
X27129112Y35279710D01*
X27745703Y35534480D01*
X28217862Y36005816D01*
X28384594Y36407351D01*
X28549480Y36008297D01*
X29020816Y35536138D01*
X29636961Y35280292D01*
X30304112Y35279710D01*
X30920703Y35534480D01*
X31392862Y36005816D01*
X31559594Y36407351D01*
X31724480Y36008297D01*
X32195816Y35536138D01*
X32811961Y35280292D01*
X33479112Y35279710D01*
X34095703Y35534480D01*
X34567862Y36005816D01*
X34823708Y36621961D01*
X34824290Y37289112D01*
X34569520Y37905703D01*
X34098184Y38377862D01*
X33482039Y38633708D01*
X32814888Y38634290D01*
X32198297Y38379520D01*
X31726138Y37908184D01*
X31559406Y37506649D01*
X31394520Y37905703D01*
X30923184Y38377862D01*
X30307039Y38633708D01*
X29639888Y38634290D01*
X29023297Y38379520D01*
X28551138Y37908184D01*
X28384406Y37506649D01*
X28219520Y37905703D01*
X27748184Y38377862D01*
X27132039Y38633708D01*
X26464888Y38634290D01*
X25848297Y38379520D01*
X25376138Y37908184D01*
X25209406Y37506649D01*
X25044520Y37905703D01*
X24573184Y38377862D01*
X23957039Y38633708D01*
X23289888Y38634290D01*
X22673297Y38379520D01*
X22201138Y37908184D01*
X22034406Y37506649D01*
X21869520Y37905703D01*
X21398184Y38377862D01*
X20782039Y38633708D01*
X20114888Y38634290D01*
X19498297Y38379520D01*
X19026138Y37908184D01*
X18859406Y37506649D01*
X18694520Y37905703D01*
X18223184Y38377862D01*
X17607039Y38633708D01*
X16939888Y38634290D01*
X16323297Y38379520D01*
X15851138Y37908184D01*
X15703083Y37551628D01*
X15583020Y37842203D01*
X15111684Y38314362D01*
X14495539Y38570208D01*
X13828388Y38570790D01*
X13211797Y38316020D01*
X12739638Y37844684D01*
X12572906Y37443149D01*
X12408020Y37842203D01*
X11936684Y38314362D01*
X11320539Y38570208D01*
X10653388Y38570790D01*
X10036797Y38316020D01*
X9564638Y37844684D01*
X9308792Y37228539D01*
X9308210Y36561388D01*
X656000Y36561388D01*
X656000Y39984000D01*
X70464000Y39984000D01*
X70464000Y656000D01*
G36*
X50181038Y20713986D02*
X49982325Y20631880D01*
X49777639Y20427550D01*
X49666726Y20160444D01*
X49666474Y19871225D01*
X49776920Y19603925D01*
X49981250Y19399239D01*
X50248356Y19288326D01*
X50446066Y19288154D01*
X54800511Y14933709D01*
X54955260Y14830308D01*
X55137801Y14793999D01*
X56756006Y14793999D01*
X56714973Y14732589D01*
X56689594Y14605000D01*
X56689594Y13207999D01*
X55324418Y13207999D01*
X48155234Y20377183D01*
X48230189Y20452008D01*
X48341102Y20719114D01*
X48341354Y21008333D01*
X48230908Y21275633D01*
X48027744Y21479151D01*
X48165556Y21421926D01*
X48454775Y21421674D01*
X48722075Y21532120D01*
X48861998Y21671800D01*
X49223224Y21671800D01*
X50181038Y20713986D01*
X50181038Y20713986D01*
G37*
X50181038Y20713986D02*
X49982325Y20631880D01*
X49777639Y20427550D01*
X49666726Y20160444D01*
X49666474Y19871225D01*
X49776920Y19603925D01*
X49981250Y19399239D01*
X50248356Y19288326D01*
X50446066Y19288154D01*
X54800511Y14933709D01*
X54955260Y14830308D01*
X55137801Y14793999D01*
X56756006Y14793999D01*
X56714973Y14732589D01*
X56689594Y14605000D01*
X56689594Y13207999D01*
X55324418Y13207999D01*
X48155234Y20377183D01*
X48230189Y20452008D01*
X48341102Y20719114D01*
X48341354Y21008333D01*
X48230908Y21275633D01*
X48027744Y21479151D01*
X48165556Y21421926D01*
X48454775Y21421674D01*
X48722075Y21532120D01*
X48861998Y21671800D01*
X49223224Y21671800D01*
X50181038Y20713986D01*
M02*
