*
*
G04 PowerPCB (Build Number 500.281.2.20) generated Gerber (RS-274-X) file*
G04 PC Version=2.1*
*
%IN "Untitled"*%
*
%MOIN*%
*
%FSLAX35Y35*%
*
*
*
*
G04 PC Standard Apertures*
*
*
G04 Thermal Relief Aperture macro.*
%AMTER*
1,1,$1,0,0*
1,0,$1-$2,0,0*
21,0,$3,$4,0,0,45*
21,0,$3,$4,0,0,135*
%
*
*
G04 Annular Aperture macro.*
%AMANN*
1,1,$1,0,0*
1,0,$2,0,0*
%
*
*
G04 Odd Aperture macro.*
%AMODD*
1,1,$1,0,0*
1,0,$1-0.005,0,0*
%
*
*
G04 PC Custom Aperture Macros*
*
*
*
*
*
*
G04 PC Aperture Table*
*
%ADD026C,0.00787*%
%ADD036C,0.008*%
*
*
*
*
G04 PC Custom Flashes*
G04 Layer Name Untitled - flashes*
%LPD*%
*
*
G04 PC Circuitry*
G04 Layer Name Untitled - circuitry*
%LPD*%
*
G54D26*
G01X128000Y131937D02*
Y128000D01*
Y131937D02*
X129090Y128000D01*
X130181Y131937D02*
X129090Y128000D01*
X130181Y131937D02*
Y128000D01*
X131409Y131187D02*
X131681Y131375D01*
X131681D02*
X132090Y131937D01*
X132090D02*
Y128000D01*
G54D36*
X155000Y145000D02*
Y115000D01*
X145000*
Y145000*
X155000*
X170000Y135000D02*
Y115000D01*
X160000*
Y135000*
X170000*
X171200Y125900D02*
G75*
G03X181200Y115900I10000J0D01*
G01X171200Y125900D02*
Y134100D01*
X181200Y144100D02*
G03X171200Y134100I0J-10000D01*
G01X181200Y144100D02*
X198600D01*
Y115900*
X181200*
X190720Y130000D02*
G03X190720I-5720D01*
G01X182000Y134800D02*
X189850Y126950D01*
X180150Y132750D02*
X187750Y125150D01*
X220500Y145000D02*
X244500D01*
Y115000*
X220500*
Y145000*
X158363Y145937D02*
Y142937D01*
X158363D02*
X158227Y142375D01*
X158090Y142187*
X158090D02*
X157818Y142000D01*
X157545*
X157272Y142187*
X157272D02*
X157136Y142375D01*
X156999Y142937*
X156999D02*
Y143312D01*
X159590Y145187D02*
X159863Y145375D01*
X159863D02*
X160272Y145937D01*
X160272D02*
Y142000D01*
X163363Y140937D02*
Y137937D01*
X163363D02*
X163227Y137375D01*
X163090Y137187*
X163090D02*
X162818Y137000D01*
X162545*
X162272Y137187*
X162272D02*
X162136Y137375D01*
X162000Y137937*
X162000D02*
Y138312D01*
X164727Y140000D02*
Y140187D01*
X164727D02*
X164863Y140562D01*
X164863D02*
X165000Y140750D01*
X165272Y140937*
X165272D02*
X165818D01*
X165818D02*
X166090Y140750D01*
X166090D02*
X166227Y140562D01*
X166227D02*
X166363Y140187D01*
X166363D02*
Y139812D01*
X166363D02*
X166227Y139437D01*
X166227D02*
X165954Y138875D01*
X165954D02*
X164590Y137000D01*
X164590D02*
X166500D01*
X183000Y121937D02*
Y118000D01*
Y121937D02*
X184227D01*
X184227D02*
X184636Y121750D01*
X184772Y121562*
X184772D02*
X184909Y121187D01*
X184909D02*
Y120625D01*
X184772Y120250*
X184772D02*
X184636Y120062D01*
X184636D02*
X184227Y119875D01*
X183000*
X186136Y121187D02*
X186409Y121375D01*
X186818Y121937*
X186818D02*
Y118000D01*
X222818Y131937D02*
X222545Y131750D01*
X222272Y131375*
X222272D02*
X222136Y131000D01*
X222000Y130437*
X222000D02*
Y129500D01*
X222136Y128937*
X222136D02*
X222272Y128562D01*
X222272D02*
X222545Y128187D01*
X222545D02*
X222818Y128000D01*
X223363*
X223363D02*
X223636Y128187D01*
X223636D02*
X223909Y128562D01*
X223909D02*
X224045Y128937D01*
X224045D02*
X224181Y129500D01*
X224181D02*
Y130437D01*
X224181D02*
X224045Y131000D01*
X223909Y131375*
X223636Y131750*
X223363Y131937*
X223363D02*
X222818D01*
X223227Y128750D02*
X224045Y127625D01*
X225409Y131187D02*
X225681Y131375D01*
X225681D02*
X226090Y131937D01*
X226090D02*
Y128000D01*
X120000Y147593D02*
Y143000D01*
Y147593D02*
X121431D01*
X121431D02*
X121909Y147375D01*
X122068Y147156*
X122227Y146718*
X122227D02*
Y146281D01*
X122068Y145843*
X122068D02*
X121909Y145625D01*
X121431Y145406*
X121431D02*
X120000D01*
X121113D02*
X122227Y143000D01*
X123659Y146718D02*
X123977Y146937D01*
X123977D02*
X124454Y147593D01*
X124454D02*
Y143000D01*
X128113Y146937D02*
X127795Y147375D01*
X127318Y147593*
X127318D02*
X126681D01*
X126681D02*
X126204Y147375D01*
X126204D02*
X125886Y146937D01*
X125886D02*
Y146500D01*
X126045Y146062*
X126045D02*
X126204Y145843D01*
X126204D02*
X126522Y145625D01*
X126522D02*
X127477Y145187D01*
X127477D02*
X127795Y144968D01*
X127795D02*
X127954Y144750D01*
X127954D02*
X128113Y144312D01*
X128113D02*
Y143656D01*
X128113D02*
X127795Y143218D01*
X127795D02*
X127318Y143000D01*
X126681*
X126681D02*
X126204Y143218D01*
X126204D02*
X125886Y143656D01*
X130500Y147593D02*
X130022Y147375D01*
X130022D02*
X129704Y146718D01*
X129704D02*
X129545Y145625D01*
Y144968*
X129545D02*
X129704Y143875D01*
X129704D02*
X130022Y143218D01*
X130022D02*
X130500Y143000D01*
X130818*
X131295Y143218*
X131295D02*
X131613Y143875D01*
X131613D02*
X131772Y144968D01*
X131772D02*
Y145625D01*
X131772D02*
X131613Y146718D01*
X131613D02*
X131295Y147375D01*
X130818Y147593*
X130818D02*
X130500D01*
X133204Y146718D02*
X133522Y146937D01*
X133522D02*
X134000Y147593D01*
X134000D02*
Y143000D01*
X136704Y147593D02*
X135431Y143000D01*
X136704Y147593D02*
X137977Y143000D01*
X135909Y144531D02*
X137500D01*
X214000Y146250D02*
Y141000D01*
Y146250D02*
X216363D01*
X214000Y143750D02*
X215454D01*
X214000Y141000D02*
X216363D01*
X216727Y118000D02*
X216545Y118500D01*
X216181Y119000*
X216181D02*
X215818Y119250D01*
X215090*
X215090D02*
X214727Y119000D01*
X214363Y118500*
X214363D02*
X214181Y118000D01*
X214181D02*
X214000Y117250D01*
Y116000*
X214181Y115250*
X214181D02*
X214363Y114750D01*
X214363D02*
X214727Y114250D01*
X215090Y114000*
X215090D02*
X215818D01*
X216181Y114250*
X216181D02*
X216545Y114750D01*
X216727Y115250*
X201000Y146250D02*
Y141000D01*
X203181*
X206272Y146250D02*
X204818Y141000D01*
X206272Y146250D02*
X207727Y141000D01*
X205363Y142750D02*
X207181D01*
X201000Y119250D02*
Y114000D01*
X203181*
X207545Y118000D02*
X207363Y118500D01*
X207363D02*
X207000Y119000D01*
X206636Y119250*
X205909*
X205545Y119000*
X205181Y118500*
X205181D02*
X205000Y118000D01*
X204818Y117250*
Y116000*
X205000Y115250*
X205181Y114750*
X205181D02*
X205545Y114250D01*
X205909Y114000*
X206636*
X207000Y114250*
X207363Y114750*
X207363D02*
X207545Y115250D01*
X111531Y113113D02*
X111968Y112795D01*
X111968D02*
X112625Y112477D01*
X113500Y112159*
X114593Y112000*
X114593D02*
X115468D01*
X115468D02*
X116562Y112159D01*
X116562D02*
X117437Y112477D01*
X117437D02*
X118093Y112795D01*
X118093D02*
X118531Y113113D01*
X113500Y116931D02*
X113062Y116772D01*
X113062D02*
X112625Y116454D01*
X112625D02*
X112406Y116136D01*
Y115500*
X112625Y115181*
X112625D02*
X113062Y114863D01*
X113062D02*
X113500Y114704D01*
X113500D02*
X114156Y114545D01*
X115250*
X115906Y114704*
X115906D02*
X116343Y114863D01*
X116343D02*
X116781Y115181D01*
X116781D02*
X117000Y115500D01*
Y116136*
X116781Y116454*
X116781D02*
X116343Y116772D01*
X116343D02*
X115906Y116931D01*
X111531Y118363D02*
X111968Y118681D01*
X111968D02*
X112625Y119000D01*
X113500Y119318*
X114593Y119477*
X114593D02*
X115468D01*
X115468D02*
X116562Y119318D01*
X116562D02*
X117437Y119000D01*
X117437D02*
X118093Y118681D01*
X118093D02*
X118531Y118363D01*
X112406Y120909D02*
X117000D01*
X112406D02*
X117000Y122181D01*
X112406Y123454D02*
X117000Y122181D01*
X112406Y123454D02*
X117000D01*
X112406Y124886D02*
X117000D01*
X112406Y126318D02*
X117000D01*
X112406Y128545D02*
X117000D01*
X114593Y126318D02*
Y128545D01*
X112406Y130931D02*
X112625Y130613D01*
X112625D02*
X113062Y130295D01*
X113062D02*
X113500Y130136D01*
X114156Y129977*
X115250*
X115906Y130136*
X116343Y130295*
X116343D02*
X116781Y130613D01*
X116781D02*
X117000Y130931D01*
X117000D02*
Y131568D01*
X116781Y131886*
X116343Y132204*
X116343D02*
X115906Y132363D01*
X115906D02*
X115250Y132522D01*
X115250D02*
X114156D01*
X114156D02*
X113500Y132363D01*
X113500D02*
X113062Y132204D01*
X113062D02*
X112625Y131886D01*
X112406Y131568*
Y130931*
X113500Y134113D02*
X113281D01*
X113281D02*
X112843Y134272D01*
X112843D02*
X112625Y134431D01*
X112625D02*
X112406Y134750D01*
Y135386*
X112625Y135704*
X112625D02*
X112843Y135863D01*
X112843D02*
X113281Y136022D01*
X113281D02*
X113718D01*
X113718D02*
X114156Y135863D01*
X114156D02*
X114812Y135545D01*
X114812D02*
X117000Y133954D01*
X117000D02*
Y136181D01*
X112406Y138568D02*
X112625Y138090D01*
X112625D02*
X113281Y137772D01*
X113281D02*
X114375Y137613D01*
X114375D02*
X115031D01*
X115031D02*
X116125Y137772D01*
X116125D02*
X116781Y138090D01*
X116781D02*
X117000Y138568D01*
Y138886*
X116781Y139363*
X116781D02*
X116125Y139681D01*
X116125D02*
X115031Y139840D01*
X115031D02*
X114375D01*
X114375D02*
X113281Y139681D01*
X113281D02*
X112625Y139363D01*
X112625D02*
X112406Y138886D01*
Y138568*
Y142227D02*
X112625Y141750D01*
X113281Y141431*
X113281D02*
X114375Y141272D01*
X114375D02*
X115031D01*
X115031D02*
X116125Y141431D01*
X116125D02*
X116781Y141750D01*
X117000Y142227*
Y142545*
X116781Y143022*
X116781D02*
X116125Y143340D01*
X116125D02*
X115031Y143500D01*
X114375*
X113281Y143340*
X113281D02*
X112625Y143022D01*
X112625D02*
X112406Y142545D01*
Y142227*
Y147159D02*
X117000Y145568D01*
X112406Y144931D02*
Y147159D01*
G74*
X0Y0D02*
M02*
