*
*
G04 PADS 9.2 Build Number: 414666 generated Gerber (RS-274-X) file*
G04 PC Version=2.1*
*
%IN "ETH02.pcb"*%
*
%MOIN*%
*
%FSLAX35Y35*%
*
*
*
*
G04 PC Standard Apertures*
*
*
G04 Thermal Relief Aperture macro.*
%AMTER*
1,1,$1,0,0*
1,0,$1-$2,0,0*
21,0,$3,$4,0,0,45*
21,0,$3,$4,0,0,135*
%
*
*
G04 Annular Aperture macro.*
%AMANN*
1,1,$1,0,0*
1,0,$2,0,0*
%
*
*
G04 Odd Aperture macro.*
%AMODD*
1,1,$1,0,0*
1,0,$1-0.005,0,0*
%
*
*
G04 PC Custom Aperture Macros*
*
*
*
*
*
*
G04 PC Aperture Table*
*
%ADD011C,0.06*%
%ADD013C,0.23622*%
%ADD017C,0.02*%
%ADD020C,0.012*%
%ADD024C,0.001*%
%ADD045R,0.065X0.065*%
%ADD047C,0.025*%
%ADD055R,0.056X0.039*%
%ADD056R,0.1X0.085*%
%ADD057C,0.12598*%
%ADD058C,0.09843*%
%ADD059R,0.056X0.107*%
%ADD060R,0.039X0.051*%
%ADD061R,0.051X0.039*%
*
*
*
*
G04 PC Circuitry*
G04 Layer Name ETH02.pcb - circuitry*
%LPD*%
*
*
G04 PC Custom Flashes*
G04 Layer Name ETH02.pcb - flashes*
%LPD*%
*
*
G04 PC Circuitry*
G04 Layer Name ETH02.pcb - circuitry*
%LPD*%
*
G54D11*
G01X182500Y177000D03*
X187500Y187000D03*
X192500Y177000D03*
X197500Y187000D03*
X202500Y177000D03*
X207500Y187000D03*
X212500Y177000D03*
X217500Y187000D03*
X173898Y136016D03*
X183898D03*
X216102D03*
X226102D03*
G54D13*
X140000Y260000D03*
X260000Y140000D03*
Y260000D03*
X140000Y140000D03*
G54D17*
X183898Y136016D02*
X177882Y130000D01*
X172559*
X153000Y149559*
Y170000*
X146000Y177000*
X125989Y134196D02*
Y146989D01*
X146000Y167000*
X173898Y136016D02*
X157000Y152913D01*
Y177200*
X226102Y136016D02*
X215087Y125000D01*
X135185*
X125989Y134196*
X216102Y136016D02*
X212118Y140000D01*
X204800*
X157000Y184800D02*
X152850D01*
X150850Y186800*
X146000*
Y187000*
X172000Y212000D02*
Y221300D01*
X175000Y224300*
Y230200*
X202500Y177000D02*
X196500Y171000D01*
X181146*
X172000Y180146*
Y212000*
X212252Y189112D02*
Y203207D01*
X215800Y206755*
Y225000*
X197200Y140000D02*
X190459D01*
X188459Y142000*
X175480*
X162000Y155480*
Y187411*
X152411Y197000*
X146000*
X202500Y177000D02*
X198474Y181026D01*
X195974*
X194026Y182974*
X191526*
X187500Y187000*
X175000Y230200D02*
Y231150D01*
X176800*
X182250Y232450*
X183200Y232677*
Y234000*
X212719Y229319D02*
X215800Y232400D01*
Y233000*
X184150Y234000D02*
X183200D01*
X204000Y239781D02*
X205000Y240781D01*
Y249000*
X208200Y233000D02*
Y242200D01*
X215000Y249000*
X208200Y225000D02*
Y225363D01*
X204000Y229563*
Y239781*
X215800Y225000D02*
Y225600D01*
X212719Y228681*
Y229319*
X183200Y226000D02*
X184150D01*
Y234000*
X224000Y229200D02*
Y230150D01*
X222200*
X216750Y231450*
X215800Y231677*
Y233000*
G54D20*
X180300Y183400D02*
Y212247D01*
X187050Y218997*
Y231400*
X189450Y232050*
X190800Y232416*
Y234000*
X182700Y185012D02*
Y211253D01*
X190800Y219353*
Y226000*
X212300Y185012D02*
Y188700D01*
X212252Y188748*
Y189112*
X202500Y177000D02*
X206585Y181085D01*
X208373*
X212300Y185012*
X192500Y177000D02*
X189530Y179970D01*
X187742*
X182700Y185012*
X182500Y177000D02*
Y181200D01*
X180300Y183400*
X198774Y238321D02*
Y238529D01*
X197428Y239875*
X194125*
X185000Y249000*
X201174Y236974D02*
Y239524D01*
X199125Y241572*
Y244875*
X195000Y249000*
X190800Y226000D02*
Y226600D01*
X201174Y236974*
X190800Y234000D02*
X194453D01*
X198774Y238321*
G54D24*
G54D45*
X136000Y235000D03*
X146000D03*
X136000Y225000D03*
X146000D03*
X136000Y215000D03*
X146000D03*
X185000Y249000D03*
Y259000D03*
X195000Y249000D03*
Y259000D03*
X205000Y249000D03*
Y259000D03*
X215000Y249000D03*
Y259000D03*
X146000Y187000D03*
X136000D03*
X146000Y197000D03*
X136000D03*
Y177000D03*
X146000D03*
X136000Y167000D03*
X146000D03*
G54D47*
X134000Y197000D02*
X136000D01*
X162000Y212000D02*
Y226000D01*
X161000*
X169488Y164008D02*
X230512D01*
X136000Y197000D02*
X143000Y204000D01*
X156550*
X162000Y209450*
Y212000*
X136000Y187000D02*
X134000D01*
Y197000*
X230512Y164008D02*
Y173988D01*
X217500Y187000*
X260000Y140000D02*
X245560Y154440D01*
X240080*
X230512Y164008*
X146000Y225000D02*
Y223000D01*
X136000*
Y225000*
X146000D02*
Y226000D01*
X161000*
G54D55*
X175000Y237800D03*
Y230200D03*
X224000Y236800D03*
Y229200D03*
G54D56*
X161000Y226000D03*
Y246000D03*
G54D57*
X177500Y152000D03*
X222500D03*
G54D58*
X230512Y164008D03*
X169488D03*
G54D59*
X172000Y212000D03*
X162000D03*
G54D60*
X183200Y234000D03*
X190800D03*
Y226000D03*
X183200D03*
X215800Y225000D03*
X208200D03*
Y233000D03*
X215800D03*
X204800Y140000D03*
X197200D03*
G54D61*
X157000Y177200D03*
Y184800D03*
X0Y0D02*
M02*
