999
DXF created by Inkscape
  0
SECTION
  2
HEADER
  9
$ACADVER
  1
AC1014
  9
$HANDSEED
  5
FFFF
  9
$MEASUREMENT
 70
     1
  0
ENDSEC
  0
SECTION
  2
TABLES
  0
TABLE
  2
VPORT
  5
8
330
0
100
AcDbSymbolTable
 70
     4
  0
VPORT
  5
2E
330
8
100
AcDbSymbolTableRecord
100
AcDbViewportTableRecord
  2
*ACTIVE
 70
     0
 10
0.0
 20
0.0
 11
1.0
 21
1.0
 12
210.0
 22
148.5
 13
0.0
 23
0.0
 14
10.0
 24
10.0
 15
10.0
 25
10.0
 16
0.0
 26
0.0
 36
1.0
 17
0.0
 27
0.0
 37
0.0
 40
341.0
 41
1.24
 42
50.0
 43
0.0
 44
0.0
 50
0.0
 51
0.0
 71
     0
 72
   100
 73
     1
 74
     3
 75
     0
 76
     0
 77
     0
 78
     0
  0
ENDTAB
  0
TABLE
  2
LTYPE
  5
5
330
0
100
AcDbSymbolTable
 70
     1
  0
LTYPE
  5
14
330
5
100
AcDbSymbolTableRecord
100
AcDbLinetypeTableRecord
  2
BYBLOCK
 70
     0
  3

 72
    65
 73
     0
 40
0.0
  0
LTYPE
  5
15
330
5
100
AcDbSymbolTableRecord
100
AcDbLinetypeTableRecord
  2
BYLAYER
 70
     0
  3

 72
    65
 73
     0
 40
0.0
  0
LTYPE
  5
16
330
5
100
AcDbSymbolTableRecord
100
AcDbLinetypeTableRecord
  2
CONTINUOUS
 70
     0
  3
Solid line
 72
    65
 73
     0
 40
0.0
  0
ENDTAB
  0
TABLE
  2
LAYER
  5
2
100
AcDbSymbolTable
 70
2
  0
LAYER
  5
50
100
AcDbSymbolTableRecord
100
AcDbLayerTableRecord
  2
0
 70
0
  6
CONTINUOUS
  0
LAYER
  5
51
100
AcDbSymbolTableRecord
100
AcDbLayerTableRecord
  2
Vrstva_1
 70
0
  6
CONTINUOUS
  0
ENDTAB
  0
TABLE
  2
STYLE
  5
3
330
0
100
AcDbSymbolTable
 70
     1
  0
STYLE
  5
11
330
3
100
AcDbSymbolTableRecord
100
AcDbTextStyleTableRecord
  2
STANDARD
 70
     0
 40
0.0
 41
1.0
 50
0.0
 71
     0
 42
2.5
  3
txt
  4

  0
ENDTAB
  0
TABLE
  2
VIEW
  5
6
330
0
100
AcDbSymbolTable
 70
     0
  0
ENDTAB
  0
TABLE
  2
UCS
  5
7
330
0
100
AcDbSymbolTable
 70
     0
  0
ENDTAB
  0
TABLE
  2
APPID
  5
9
330
0
100
AcDbSymbolTable
 70
     2
  0
APPID
  5
12
330
9
100
AcDbSymbolTableRecord
100
AcDbRegAppTableRecord
  2
ACAD
 70
     0
  0
ENDTAB
  0
TABLE
  2
DIMSTYLE
  5
A
330
0
100
AcDbSymbolTable
 70
     1
  0
DIMSTYLE
105
27
330
A
100
AcDbSymbolTableRecord
100
AcDbDimStyleTableRecord
  2
ISO-25
 70
     0
  3

  4

  5

  6

  7

 40
1.0
 41
2.5
 42
0.625
 43
3.75
 44
1.25
 45
0.0
 46
0.0
 47
0.0
 48
0.0
140
2.5
141
2.5
142
0.0
143
0.03937007874016
144
1.0
145
0.0
146
1.0
147
0.625
 71
     0
 72
     0
 73
     0
 74
     0
 75
     0
 76
     0
 77
     1
 78
     8
170
     0
171
     3
172
     1
173
     0
174
     0
175
     0
176
     0
177
     0
178
     0
270
     2
271
     2
272
     2
273
     2
274
     3
340
11
275
     0
280
     0
281
     0
282
     0
283
     0
284
     8
285
     0
286
     0
287
     3
288
     0
  0
ENDTAB
  0
TABLE
  2
BLOCK_RECORD
  5
1
330
0
100
AcDbSymbolTable
 70
     1
  0
BLOCK_RECORD
  5
1F
330
1
100
AcDbSymbolTableRecord
100
AcDbBlockTableRecord
  2
*MODEL_SPACE
  0
BLOCK_RECORD
  5
1B
330
1
100
AcDbSymbolTableRecord
100
AcDbBlockTableRecord
  2
*PAPER_SPACE
  0
ENDTAB
  0
ENDSEC
  0
SECTION
  2
BLOCKS
  0
BLOCK
  5
20
330
1F
100
AcDbEntity
  8
0
100
AcDbBlockBegin
  2
*MODEL_SPACE
 70
     0
 10
0.0
 20
0.0
 30
0.0
  3
*MODEL_SPACE
  1

  0
ENDBLK
  5
21
330
1F
100
AcDbEntity
  8
0
100
AcDbBlockEnd
  0
BLOCK
  5
1C
330
1B
100
AcDbEntity
 67
     1
  8
0
100
AcDbBlockBegin
  2
*PAPER_SPACE
  1

  0
ENDBLK
  5
1D
330
1B
100
AcDbEntity
 67
     1
  8
0
100
AcDbBlockEnd
  0
ENDSEC
  0
SECTION
  2
ENTITIES
  0
LWPOLYLINE
  5
100
100
AcDbEntity
  8
Vrstva_1
 62
7
100
AcDbPolyline
 90
10
 70
0
 10
88.271332
 20
124.802138
 30
0.0
 10
82.771332
 20
124.802138
 30
0.0
 10
82.771332
 20
130.302138
 30
0.0
 10
82.771332
 20
135.802138
 30
0.0
 10
88.271332
 20
135.802138
 30
0.0
 10
93.771332
 20
135.802138
 30
0.0
 10
93.771332
 20
130.302138
 30
0.0
 10
93.771332
 20
124.802138
 30
0.0
 10
88.271332
 20
124.802138
 30
0.0
 10
88.271332
 20
124.802138
 30
0.0
  0
LWPOLYLINE
  5
101
100
AcDbEntity
  8
Vrstva_1
 62
7
100
AcDbPolyline
 90
10
 70
0
 10
85.001062
 20
125.991327
 30
0.0
 10
86.041602
 20
125.991327
 30
0.0
 10
86.041602
 20
127.031867
 30
0.0
 10
86.041602
 20
128.072408
 30
0.0
 10
85.001062
 20
128.072408
 30
0.0
 10
83.960521
 20
128.072408
 30
0.0
 10
83.960521
 20
127.031867
 30
0.0
 10
83.960521
 20
125.991327
 30
0.0
 10
85.001062
 20
125.991327
 30
0.0
 10
85.001062
 20
125.991327
 30
0.0
  0
LWPOLYLINE
  5
102
100
AcDbEntity
  8
Vrstva_1
 62
7
100
AcDbPolyline
 90
10
 70
0
 10
85.001062
 20
126.288624
 30
0.0
 10
84.257819
 20
126.288624
 30
0.0
 10
84.257819
 20
127.031867
 30
0.0
 10
84.257819
 20
127.775111
 30
0.0
 10
85.001062
 20
127.775111
 30
0.0
 10
85.744305
 20
127.775111
 30
0.0
 10
85.744305
 20
127.031867
 30
0.0
 10
85.744305
 20
126.288624
 30
0.0
 10
85.001062
 20
126.288624
 30
0.0
 10
85.001062
 20
126.288624
 30
0.0
  0
LWPOLYLINE
  5
103
100
AcDbEntity
  8
Vrstva_1
 62
7
100
AcDbPolyline
 90
10
 70
0
 10
85.001062
 20
126.585921
 30
0.0
 10
85.447008
 20
126.585921
 30
0.0
 10
85.447008
 20
127.031867
 30
0.0
 10
85.447008
 20
127.477813
 30
0.0
 10
85.001062
 20
127.477813
 30
0.0
 10
84.555116
 20
127.477813
 30
0.0
 10
84.555116
 20
127.031867
 30
0.0
 10
84.555116
 20
126.585921
 30
0.0
 10
85.001062
 20
126.585921
 30
0.0
 10
85.001062
 20
126.585921
 30
0.0
  0
LWPOLYLINE
  5
104
100
AcDbEntity
  8
Vrstva_1
 62
7
100
AcDbPolyline
 90
322
 70
0
 10
86.487548
 20
125.991327
 30
0.0
 10
86.636197
 20
125.991327
 30
0.0
 10
86.636197
 20
126.139975
 30
0.0
 10
86.636197
 20
126.288624
 30
0.0
 10
86.784846
 20
126.288624
 30
0.0
 10
86.933494
 20
126.288624
 30
0.0
 10
86.933494
 20
126.139975
 30
0.0
 10
86.933494
 20
125.991327
 30
0.0
 10
87.379440
 20
125.991327
 30
0.0
 10
87.825386
 20
125.991327
 30
0.0
 10
87.825386
 20
126.139975
 30
0.0
 10
87.825386
 20
126.288624
 30
0.0
 10
87.974035
 20
126.288624
 30
0.0
 10
88.122684
 20
126.288624
 30
0.0
 10
88.122684
 20
126.139975
 30
0.0
 10
88.122684
 20
125.991327
 30
0.0
 10
89.163224
 20
125.991327
 30
0.0
 10
90.203765
 20
125.991327
 30
0.0
 10
90.203765
 20
126.288624
 30
0.0
 10
90.203765
 20
126.585921
 30
0.0
 10
90.055116
 20
126.585921
 30
0.0
 10
89.906467
 20
126.585921
 30
0.0
 10
89.906467
 20
126.883219
 30
0.0
 10
89.906467
 20
127.180516
 30
0.0
 10
90.501062
 20
127.180516
 30
0.0
 10
91.095656
 20
127.180516
 30
0.0
 10
91.095656
 20
127.031867
 30
0.0
 10
91.095656
 20
126.883219
 30
0.0
 10
91.392954
 20
126.883219
 30
0.0
 10
91.690251
 20
126.883219
 30
0.0
 10
91.690251
 20
126.734570
 30
0.0
 10
91.690251
 20
126.585921
 30
0.0
 10
91.838900
 20
126.585921
 30
0.0
 10
91.987548
 20
126.585921
 30
0.0
 10
91.987548
 20
126.734570
 30
0.0
 10
91.987548
 20
126.883219
 30
0.0
 10
92.136197
 20
126.883219
 30
0.0
 10
92.284846
 20
126.883219
 30
0.0
 10
92.284846
 20
126.734570
 30
0.0
 10
92.284846
 20
126.585921
 30
0.0
 10
92.136197
 20
126.585921
 30
0.0
 10
91.987548
 20
126.585921
 30
0.0
 10
91.987548
 20
126.288624
 30
0.0
 10
91.987548
 20
125.991327
 30
0.0
 10
92.136197
 20
125.991327
 30
0.0
 10
92.284846
 20
125.991327
 30
0.0
 10
92.284846
 20
126.288624
 30
0.0
 10
92.284846
 20
126.585921
 30
0.0
 10
92.433494
 20
126.585921
 30
0.0
 10
92.582143
 20
126.585921
 30
0.0
 10
92.582143
 20
126.734570
 30
0.0
 10
92.582143
 20
126.883219
 30
0.0
 10
92.433494
 20
126.883219
 30
0.0
 10
92.284846
 20
126.883219
 30
0.0
 10
92.284846
 20
127.031867
 30
0.0
 10
92.284846
 20
127.180516
 30
0.0
 10
92.433494
 20
127.180516
 30
0.0
 10
92.582143
 20
127.180516
 30
0.0
 10
92.582143
 20
127.477813
 30
0.0
 10
92.582143
 20
127.775111
 30
0.0
 10
92.433494
 20
127.775111
 30
0.0
 10
92.284846
 20
127.775111
 30
0.0
 10
92.284846
 20
127.923759
 30
0.0
 10
92.284846
 20
128.072408
 30
0.0
 10
92.433494
 20
128.072408
 30
0.0
 10
92.582143
 20
128.072408
 30
0.0
 10
92.582143
 20
128.221057
 30
0.0
 10
92.582143
 20
128.369705
 30
0.0
 10
92.284846
 20
128.369705
 30
0.0
 10
91.987548
 20
128.369705
 30
0.0
 10
91.987548
 20
128.815651
 30
0.0
 10
91.987548
 20
129.261597
 30
0.0
 10
92.136197
 20
129.261597
 30
0.0
 10
92.284846
 20
129.261597
 30
0.0
 10
92.284846
 20
129.707543
 30
0.0
 10
92.284846
 20
130.153489
 30
0.0
 10
92.433494
 20
130.153489
 30
0.0
 10
92.582143
 20
130.153489
 30
0.0
 10
92.582143
 20
130.450786
 30
0.0
 10
92.582143
 20
130.748084
 30
0.0
 10
92.284846
 20
130.748084
 30
0.0
 10
91.987548
 20
130.748084
 30
0.0
 10
91.987548
 20
130.599435
 30
0.0
 10
91.987548
 20
130.450786
 30
0.0
 10
91.541602
 20
130.450786
 30
0.0
 10
91.095656
 20
130.450786
 30
0.0
 10
91.095656
 20
130.302138
 30
0.0
 10
91.095656
 20
130.153489
 30
0.0
 10
90.947008
 20
130.153489
 30
0.0
 10
90.798359
 20
130.153489
 30
0.0
 10
90.798359
 20
130.450786
 30
0.0
 10
90.798359
 20
130.748084
 30
0.0
 10
90.649711
 20
130.748084
 30
0.0
 10
90.501062
 20
130.748084
 30
0.0
 10
90.501062
 20
130.450786
 30
0.0
 10
90.501062
 20
130.153489
 30
0.0
 10
90.649711
 20
130.153489
 30
0.0
 10
90.798359
 20
130.153489
 30
0.0
 10
90.798359
 20
129.856192
 30
0.0
 10
90.798359
 20
129.558894
 30
0.0
 10
91.095656
 20
129.558894
 30
0.0
 10
91.392954
 20
129.558894
 30
0.0
 10
91.392954
 20
129.707543
 30
0.0
 10
91.392954
 20
129.856192
 30
0.0
 10
91.244305
 20
129.856192
 30
0.0
 10
91.095656
 20
129.856192
 30
0.0
 10
91.095656
 20
130.004840
 30
0.0
 10
91.095656
 20
130.153489
 30
0.0
 10
91.541602
 20
130.153489
 30
0.0
 10
91.987548
 20
130.153489
 30
0.0
 10
91.987548
 20
129.856192
 30
0.0
 10
91.987548
 20
129.558894
 30
0.0
 10
91.838900
 20
129.558894
 30
0.0
 10
91.690251
 20
129.558894
 30
0.0
 10
91.690251
 20
129.410246
 30
0.0
 10
91.690251
 20
129.261597
 30
0.0
 10
91.541602
 20
129.261597
 30
0.0
 10
91.392954
 20
129.261597
 30
0.0
 10
91.392954
 20
129.112948
 30
0.0
 10
91.392954
 20
128.964300
 30
0.0
 10
91.541602
 20
128.964300
 30
0.0
 10
91.690251
 20
128.964300
 30
0.0
 10
91.690251
 20
128.815651
 30
0.0
 10
91.690251
 20
128.667002
 30
0.0
 10
91.244305
 20
128.667002
 30
0.0
 10
90.798359
 20
128.667002
 30
0.0
 10
90.798359
 20
128.815651
 30
0.0
 10
90.798359
 20
128.964300
 30
0.0
 10
90.947008
 20
128.964300
 30
0.0
 10
91.095656
 20
128.964300
 30
0.0
 10
91.095656
 20
129.112948
 30
0.0
 10
91.095656
 20
129.261597
 30
0.0
 10
90.947008
 20
129.261597
 30
0.0
 10
90.798359
 20
129.261597
 30
0.0
 10
90.798359
 20
129.112948
 30
0.0
 10
90.798359
 20
128.964300
 30
0.0
 10
90.649711
 20
128.964300
 30
0.0
 10
90.501062
 20
128.964300
 30
0.0
 10
90.501062
 20
129.112948
 30
0.0
 10
90.501062
 20
129.261597
 30
0.0
 10
90.352413
 20
129.261597
 30
0.0
 10
90.203765
 20
129.261597
 30
0.0
 10
90.203765
 20
129.112948
 30
0.0
 10
90.203765
 20
128.964300
 30
0.0
 10
89.906467
 20
128.964300
 30
0.0
 10
89.609170
 20
128.964300
 30
0.0
 10
89.609170
 20
128.815651
 30
0.0
 10
89.609170
 20
128.667002
 30
0.0
 10
89.757819
 20
128.667002
 30
0.0
 10
89.906467
 20
128.667002
 30
0.0
 10
89.906467
 20
128.518354
 30
0.0
 10
89.906467
 20
128.369705
 30
0.0
 10
89.757819
 20
128.369705
 30
0.0
 10
89.609170
 20
128.369705
 30
0.0
 10
89.609170
 20
128.518354
 30
0.0
 10
89.609170
 20
128.667002
 30
0.0
 10
89.460521
 20
128.667002
 30
0.0
 10
89.311873
 20
128.667002
 30
0.0
 10
89.311873
 20
129.112948
 30
0.0
 10
89.311873
 20
129.558894
 30
0.0
 10
89.906467
 20
129.558894
 30
0.0
 10
90.501062
 20
129.558894
 30
0.0
 10
90.501062
 20
129.707543
 30
0.0
 10
90.501062
 20
129.856192
 30
0.0
 10
90.352413
 20
129.856192
 30
0.0
 10
90.203765
 20
129.856192
 30
0.0
 10
90.203765
 20
130.153489
 30
0.0
 10
90.203765
 20
130.450786
 30
0.0
 10
89.906467
 20
130.450786
 30
0.0
 10
89.609170
 20
130.450786
 30
0.0
 10
89.609170
 20
130.153489
 30
0.0
 10
89.609170
 20
129.856192
 30
0.0
 10
89.460521
 20
129.856192
 30
0.0
 10
89.311873
 20
129.856192
 30
0.0
 10
89.311873
 20
129.707543
 30
0.0
 10
89.311873
 20
129.558894
 30
0.0
 10
89.163224
 20
129.558894
 30
0.0
 10
89.014575
 20
129.558894
 30
0.0
 10
89.014575
 20
129.707543
 30
0.0
 10
89.014575
 20
129.856192
 30
0.0
 10
88.865927
 20
129.856192
 30
0.0
 10
88.717278
 20
129.856192
 30
0.0
 10
88.717278
 20
130.153489
 30
0.0
 10
88.717278
 20
130.450786
 30
0.0
 10
88.865927
 20
130.450786
 30
0.0
 10
89.014575
 20
130.450786
 30
0.0
 10
89.014575
 20
130.599435
 30
0.0
 10
89.014575
 20
130.748084
 30
0.0
 10
89.163224
 20
130.748084
 30
0.0
 10
89.311873
 20
130.748084
 30
0.0
 10
89.311873
 20
130.896732
 30
0.0
 10
89.311873
 20
131.045381
 30
0.0
 10
89.163224
 20
131.045381
 30
0.0
 10
89.014575
 20
131.045381
 30
0.0
 10
89.014575
 20
130.896732
 30
0.0
 10
89.014575
 20
130.748084
 30
0.0
 10
88.865927
 20
130.748084
 30
0.0
 10
88.717278
 20
130.748084
 30
0.0
 10
88.717278
 20
130.599435
 30
0.0
 10
88.717278
 20
130.450786
 30
0.0
 10
88.568629
 20
130.450786
 30
0.0
 10
88.419981
 20
130.450786
 30
0.0
 10
88.419981
 20
130.302138
 30
0.0
 10
88.419981
 20
130.153489
 30
0.0
 10
88.271332
 20
130.153489
 30
0.0
 10
88.122684
 20
130.153489
 30
0.0
 10
88.122684
 20
129.707543
 30
0.0
 10
88.122684
 20
129.261597
 30
0.0
 10
87.974035
 20
129.261597
 30
0.0
 10
87.825386
 20
129.261597
 30
0.0
 10
87.825386
 20
129.707543
 30
0.0
 10
87.825386
 20
130.153489
 30
0.0
 10
87.974035
 20
130.153489
 30
0.0
 10
88.122684
 20
130.153489
 30
0.0
 10
88.122684
 20
130.302138
 30
0.0
 10
88.122684
 20
130.450786
 30
0.0
 10
87.825386
 20
130.450786
 30
0.0
 10
87.528089
 20
130.450786
 30
0.0
 10
87.528089
 20
130.302138
 30
0.0
 10
87.528089
 20
130.153489
 30
0.0
 10
87.379440
 20
130.153489
 30
0.0
 10
87.230792
 20
130.153489
 30
0.0
 10
87.230792
 20
130.004840
 30
0.0
 10
87.230792
 20
129.856192
 30
0.0
 10
87.379440
 20
129.856192
 30
0.0
 10
87.528089
 20
129.856192
 30
0.0
 10
87.528089
 20
129.410246
 30
0.0
 10
87.528089
 20
128.964300
 30
0.0
 10
87.676738
 20
128.964300
 30
0.0
 10
87.825386
 20
128.964300
 30
0.0
 10
87.825386
 20
128.815651
 30
0.0
 10
87.825386
 20
128.667002
 30
0.0
 10
87.379440
 20
128.667002
 30
0.0
 10
86.933494
 20
128.667002
 30
0.0
 10
86.933494
 20
129.410246
 30
0.0
 10
86.933494
 20
130.153489
 30
0.0
 10
87.082143
 20
130.153489
 30
0.0
 10
87.230792
 20
130.153489
 30
0.0
 10
87.230792
 20
130.302138
 30
0.0
 10
87.230792
 20
130.450786
 30
0.0
 10
87.379440
 20
130.450786
 30
0.0
 10
87.528089
 20
130.450786
 30
0.0
 10
87.528089
 20
130.599435
 30
0.0
 10
87.528089
 20
130.748084
 30
0.0
 10
87.676738
 20
130.748084
 30
0.0
 10
87.825386
 20
130.748084
 30
0.0
 10
87.825386
 20
130.896732
 30
0.0
 10
87.825386
 20
131.045381
 30
0.0
 10
87.230792
 20
131.045381
 30
0.0
 10
86.636197
 20
131.045381
 30
0.0
 10
86.636197
 20
130.896732
 30
0.0
 10
86.636197
 20
130.748084
 30
0.0
 10
86.784846
 20
130.748084
 30
0.0
 10
86.933494
 20
130.748084
 30
0.0
 10
86.933494
 20
130.599435
 30
0.0
 10
86.933494
 20
130.450786
 30
0.0
 10
86.784846
 20
130.450786
 30
0.0
 10
86.636197
 20
130.450786
 30
0.0
 10
86.636197
 20
130.153489
 30
0.0
 10
86.636197
 20
129.856192
 30
0.0
 10
86.190251
 20
129.856192
 30
0.0
 10
85.744305
 20
129.856192
 30
0.0
 10
85.744305
 20
129.707543
 30
0.0
 10
85.744305
 20
129.558894
 30
0.0
 10
85.892954
 20
129.558894
 30
0.0
 10
86.041602
 20
129.558894
 30
0.0
 10
86.041602
 20
129.410246
 30
0.0
 10
86.041602
 20
129.261597
 30
0.0
 10
85.892954
 20
129.261597
 30
0.0
 10
85.744305
 20
129.261597
 30
0.0
 10
85.744305
 20
129.112948
 30
0.0
 10
85.744305
 20
128.964300
 30
0.0
 10
85.892954
 20
128.964300
 30
0.0
 10
86.041602
 20
128.964300
 30
0.0
 10
86.041602
 20
128.815651
 30
0.0
 10
86.041602
 20
128.667002
 30
0.0
 10
85.595656
 20
128.667002
 30
0.0
 10
85.149711
 20
128.667002
 30
0.0
 10
85.149711
 20
128.815651
 30
0.0
 10
85.149711
 20
128.964300
 30
0.0
 10
85.001062
 20
128.964300
 30
0.0
 10
84.852413
 20
128.964300
 30
0.0
 10
84.852413
 20
129.112948
 30
0.0
 10
84.852413
 20
129.261597
 30
0.0
 10
84.703765
 20
129.261597
 30
0.0
 10
84.555116
 20
129.261597
 30
0.0
 10
84.555116
 20
128.964300
 30
0.0
 10
84.555116
 20
128.667002
 30
0.0
 10
84.406467
 20
128.667002
 30
0.0
 10
84.257819
 20
128.667002
 30
0.0
 10
84.257819
 20
128.518354
 30
0.0
 10
84.257819
 20
128.369705
 30
0.0
 10
84.555116
 20
128.369705
 30
0.0
 10
84.852413
 20
128.369705
 30
0.0
 10
84.852413
 20
128.518354
 30
0.0
 10
84.852413
 20
128.667002
 30
0.0
 10
85.001062
 20
128.667002
 30
0.0
 10
85.149711
 20
128.667002
 30
0.0
 10
85.149711
 20
128.518354
 30
0.0
 10
85.149711
 20
128.369705
 30
0.0
 10
85.744305
 20
128.369705
 30
0.0
 10
86.338900
 20
128.369705
 30
0.0
 10
86.338900
 20
127.923759
 30
0.0
 10
86.338900
 20
127.477813
 30
0.0
 10
86.487548
 20
127.477813
 30
0.0
 10
86.636197
 20
127.477813
 30
0.0
 10
86.636197
 20
127.329165
 30
0.0
 10
86.636197
 20
127.180516
 30
0.0
 10
86.487548
 20
127.180516
 30
0.0
 10
86.338900
 20
127.180516
 30
0.0
 10
86.338900
 20
126.883219
 30
0.0
 10
86.338900
 20
126.585921
 30
0.0
 10
86.487548
 20
126.585921
 30
0.0
 10
86.636197
 20
126.585921
 30
0.0
 10
86.636197
 20
126.437273
 30
0.0
 10
86.636197
 20
126.288624
 30
0.0
 10
86.487548
 20
126.288624
 30
0.0
 10
86.338900
 20
126.288624
 30
0.0
 10
86.338900
 20
126.139975
 30
0.0
 10
86.338900
 20
125.991327
 30
0.0
 10
86.487548
 20
125.991327
 30
0.0
 10
86.487548
 20
125.991327
 30
0.0
  0
LWPOLYLINE
  5
105
100
AcDbEntity
  8
Vrstva_1
 62
7
100
AcDbPolyline
 90
122
 70
0
 10
87.082143
 20
126.288624
 30
0.0
 10
86.933494
 20
126.288624
 30
0.0
 10
86.933494
 20
126.585921
 30
0.0
 10
86.933494
 20
126.883219
 30
0.0
 10
86.784846
 20
126.883219
 30
0.0
 10
86.636197
 20
126.883219
 30
0.0
 10
86.636197
 20
127.031867
 30
0.0
 10
86.636197
 20
127.180516
 30
0.0
 10
86.784846
 20
127.180516
 30
0.0
 10
86.933494
 20
127.180516
 30
0.0
 10
86.933494
 20
127.329165
 30
0.0
 10
86.933494
 20
127.477813
 30
0.0
 10
86.784846
 20
127.477813
 30
0.0
 10
86.636197
 20
127.477813
 30
0.0
 10
86.636197
 20
127.626462
 30
0.0
 10
86.636197
 20
127.775111
 30
0.0
 10
86.784846
 20
127.775111
 30
0.0
 10
86.933494
 20
127.775111
 30
0.0
 10
86.933494
 20
127.923759
 30
0.0
 10
86.933494
 20
128.072408
 30
0.0
 10
86.784846
 20
128.072408
 30
0.0
 10
86.636197
 20
128.072408
 30
0.0
 10
86.636197
 20
128.221057
 30
0.0
 10
86.636197
 20
128.369705
 30
0.0
 10
86.784846
 20
128.369705
 30
0.0
 10
86.933494
 20
128.369705
 30
0.0
 10
86.933494
 20
128.221057
 30
0.0
 10
86.933494
 20
128.072408
 30
0.0
 10
87.082143
 20
128.072408
 30
0.0
 10
87.230792
 20
128.072408
 30
0.0
 10
87.230792
 20
128.221057
 30
0.0
 10
87.230792
 20
128.369705
 30
0.0
 10
87.379440
 20
128.369705
 30
0.0
 10
87.528089
 20
128.369705
 30
0.0
 10
87.528089
 20
128.221057
 30
0.0
 10
87.528089
 20
128.072408
 30
0.0
 10
87.379440
 20
128.072408
 30
0.0
 10
87.230792
 20
128.072408
 30
0.0
 10
87.230792
 20
127.775111
 30
0.0
 10
87.230792
 20
127.477813
 30
0.0
 10
87.379440
 20
127.477813
 30
0.0
 10
87.528089
 20
127.477813
 30
0.0
 10
87.528089
 20
127.626462
 30
0.0
 10
87.528089
 20
127.775111
 30
0.0
 10
87.676738
 20
127.775111
 30
0.0
 10
87.825386
 20
127.775111
 30
0.0
 10
87.825386
 20
128.072408
 30
0.0
 10
87.825386
 20
128.369705
 30
0.0
 10
88.122684
 20
128.369705
 30
0.0
 10
88.419981
 20
128.369705
 30
0.0
 10
88.419981
 20
129.112948
 30
0.0
 10
88.419981
 20
129.856192
 30
0.0
 10
88.568629
 20
129.856192
 30
0.0
 10
88.717278
 20
129.856192
 30
0.0
 10
88.717278
 20
129.707543
 30
0.0
 10
88.717278
 20
129.558894
 30
0.0
 10
88.865927
 20
129.558894
 30
0.0
 10
89.014575
 20
129.558894
 30
0.0
 10
89.014575
 20
129.410246
 30
0.0
 10
89.014575
 20
129.261597
 30
0.0
 10
88.865927
 20
129.261597
 30
0.0
 10
88.717278
 20
129.261597
 30
0.0
 10
88.717278
 20
128.815651
 30
0.0
 10
88.717278
 20
128.369705
 30
0.0
 10
88.865927
 20
128.369705
 30
0.0
 10
89.014575
 20
128.369705
 30
0.0
 10
89.014575
 20
128.221057
 30
0.0
 10
89.014575
 20
128.072408
 30
0.0
 10
89.311873
 20
128.072408
 30
0.0
 10
89.609170
 20
128.072408
 30
0.0
 10
89.609170
 20
127.923759
 30
0.0
 10
89.609170
 20
127.775111
 30
0.0
 10
89.757819
 20
127.775111
 30
0.0
 10
89.906467
 20
127.775111
 30
0.0
 10
89.906467
 20
127.477813
 30
0.0
 10
89.906467
 20
127.180516
 30
0.0
 10
89.757819
 20
127.180516
 30
0.0
 10
89.609170
 20
127.180516
 30
0.0
 10
89.609170
 20
126.883219
 30
0.0
 10
89.609170
 20
126.585921
 30
0.0
 10
89.757819
 20
126.585921
 30
0.0
 10
89.906467
 20
126.585921
 30
0.0
 10
89.906467
 20
126.437273
 30
0.0
 10
89.906467
 20
126.288624
 30
0.0
 10
89.757819
 20
126.288624
 30
0.0
 10
89.609170
 20
126.288624
 30
0.0
 10
89.609170
 20
126.437273
 30
0.0
 10
89.609170
 20
126.585921
 30
0.0
 10
89.460521
 20
126.585921
 30
0.0
 10
89.311873
 20
126.585921
 30
0.0
 10
89.311873
 20
126.437273
 30
0.0
 10
89.311873
 20
126.288624
 30
0.0
 10
89.163224
 20
126.288624
 30
0.0
 10
89.014575
 20
126.288624
 30
0.0
 10
89.014575
 20
126.437273
 30
0.0
 10
89.014575
 20
126.585921
 30
0.0
 10
88.865927
 20
126.585921
 30
0.0
 10
88.717278
 20
126.585921
 30
0.0
 10
88.717278
 20
126.437273
 30
0.0
 10
88.717278
 20
126.288624
 30
0.0
 10
88.568629
 20
126.288624
 30
0.0
 10
88.419981
 20
126.288624
 30
0.0
 10
88.419981
 20
126.437273
 30
0.0
 10
88.419981
 20
126.585921
 30
0.0
 10
88.122684
 20
126.585921
 30
0.0
 10
87.825386
 20
126.585921
 30
0.0
 10
87.825386
 20
126.883219
 30
0.0
 10
87.825386
 20
127.180516
 30
0.0
 10
87.379440
 20
127.180516
 30
0.0
 10
86.933494
 20
127.180516
 30
0.0
 10
86.933494
 20
127.031867
 30
0.0
 10
86.933494
 20
126.883219
 30
0.0
 10
87.230792
 20
126.883219
 30
0.0
 10
87.528089
 20
126.883219
 30
0.0
 10
87.528089
 20
126.734570
 30
0.0
 10
87.528089
 20
126.585921
 30
0.0
 10
87.379440
 20
126.585921
 30
0.0
 10
87.230792
 20
126.585921
 30
0.0
 10
87.230792
 20
126.437273
 30
0.0
 10
87.230792
 20
126.288624
 30
0.0
 10
87.082143
 20
126.288624
 30
0.0
 10
87.082143
 20
126.288624
 30
0.0
  0
LWPOLYLINE
  5
106
100
AcDbEntity
  8
Vrstva_1
 62
7
100
AcDbPolyline
 90
10
 70
0
 10
88.568629
 20
126.585921
 30
0.0
 10
88.717278
 20
126.585921
 30
0.0
 10
88.717278
 20
126.883219
 30
0.0
 10
88.717278
 20
127.180516
 30
0.0
 10
88.568629
 20
127.180516
 30
0.0
 10
88.419981
 20
127.180516
 30
0.0
 10
88.419981
 20
126.883219
 30
0.0
 10
88.419981
 20
126.585921
 30
0.0
 10
88.568629
 20
126.585921
 30
0.0
 10
88.568629
 20
126.585921
 30
0.0
  0
LWPOLYLINE
  5
107
100
AcDbEntity
  8
Vrstva_1
 62
7
100
AcDbPolyline
 90
18
 70
0
 10
89.163224
 20
126.883219
 30
0.0
 10
89.311873
 20
126.883219
 30
0.0
 10
89.311873
 20
127.031867
 30
0.0
 10
89.311873
 20
127.180516
 30
0.0
 10
89.460521
 20
127.180516
 30
0.0
 10
89.609170
 20
127.180516
 30
0.0
 10
89.609170
 20
127.477813
 30
0.0
 10
89.609170
 20
127.775111
 30
0.0
 10
89.460521
 20
127.775111
 30
0.0
 10
89.311873
 20
127.775111
 30
0.0
 10
89.311873
 20
127.626462
 30
0.0
 10
89.311873
 20
127.477813
 30
0.0
 10
89.163224
 20
127.477813
 30
0.0
 10
89.014575
 20
127.477813
 30
0.0
 10
89.014575
 20
127.180516
 30
0.0
 10
89.014575
 20
126.883219
 30
0.0
 10
89.163224
 20
126.883219
 30
0.0
 10
89.163224
 20
126.883219
 30
0.0
  0
LWPOLYLINE
  5
108
100
AcDbEntity
  8
Vrstva_1
 62
7
100
AcDbPolyline
 90
18
 70
0
 10
88.122684
 20
127.477813
 30
0.0
 10
88.419981
 20
127.477813
 30
0.0
 10
88.419981
 20
127.626462
 30
0.0
 10
88.419981
 20
127.775111
 30
0.0
 10
88.568629
 20
127.775111
 30
0.0
 10
88.717278
 20
127.775111
 30
0.0
 10
88.717278
 20
127.923759
 30
0.0
 10
88.717278
 20
128.072408
 30
0.0
 10
88.419981
 20
128.072408
 30
0.0
 10
88.122684
 20
128.072408
 30
0.0
 10
88.122684
 20
127.923759
 30
0.0
 10
88.122684
 20
127.775111
 30
0.0
 10
87.974035
 20
127.775111
 30
0.0
 10
87.825386
 20
127.775111
 30
0.0
 10
87.825386
 20
127.626462
 30
0.0
 10
87.825386
 20
127.477813
 30
0.0
 10
88.122684
 20
127.477813
 30
0.0
 10
88.122684
 20
127.477813
 30
0.0
  0
LWPOLYLINE
  5
109
100
AcDbEntity
  8
Vrstva_1
 62
7
100
AcDbPolyline
 90
22
 70
0
 10
92.136197
 20
127.180516
 30
0.0
 10
91.987548
 20
127.180516
 30
0.0
 10
91.987548
 20
127.329165
 30
0.0
 10
91.987548
 20
127.477813
 30
0.0
 10
91.690251
 20
127.477813
 30
0.0
 10
91.392954
 20
127.477813
 30
0.0
 10
91.392954
 20
127.626462
 30
0.0
 10
91.392954
 20
127.775111
 30
0.0
 10
91.541602
 20
127.775111
 30
0.0
 10
91.690251
 20
127.775111
 30
0.0
 10
91.690251
 20
127.923759
 30
0.0
 10
91.690251
 20
128.072408
 30
0.0
 10
91.838900
 20
128.072408
 30
0.0
 10
91.987548
 20
128.072408
 30
0.0
 10
91.987548
 20
127.923759
 30
0.0
 10
91.987548
 20
127.775111
 30
0.0
 10
92.136197
 20
127.775111
 30
0.0
 10
92.284846
 20
127.775111
 30
0.0
 10
92.284846
 20
127.477813
 30
0.0
 10
92.284846
 20
127.180516
 30
0.0
 10
92.136197
 20
127.180516
 30
0.0
 10
92.136197
 20
127.180516
 30
0.0
  0
LWPOLYLINE
  5
10a
100
AcDbEntity
  8
Vrstva_1
 62
7
100
AcDbPolyline
 90
10
 70
0
 10
90.649711
 20
127.477813
 30
0.0
 10
90.203765
 20
127.477813
 30
0.0
 10
90.203765
 20
127.923759
 30
0.0
 10
90.203765
 20
128.369705
 30
0.0
 10
90.649711
 20
128.369705
 30
0.0
 10
91.095656
 20
128.369705
 30
0.0
 10
91.095656
 20
127.923759
 30
0.0
 10
91.095656
 20
127.477813
 30
0.0
 10
90.649711
 20
127.477813
 30
0.0
 10
90.649711
 20
127.477813
 30
0.0
  0
LWPOLYLINE
  5
10b
100
AcDbEntity
  8
Vrstva_1
 62
7
100
AcDbPolyline
 90
10
 70
0
 10
90.649711
 20
127.775111
 30
0.0
 10
90.798359
 20
127.775111
 30
0.0
 10
90.798359
 20
127.923759
 30
0.0
 10
90.798359
 20
128.072408
 30
0.0
 10
90.649711
 20
128.072408
 30
0.0
 10
90.501062
 20
128.072408
 30
0.0
 10
90.501062
 20
127.923759
 30
0.0
 10
90.501062
 20
127.775111
 30
0.0
 10
90.649711
 20
127.775111
 30
0.0
 10
90.649711
 20
127.775111
 30
0.0
  0
LWPOLYLINE
  5
10c
100
AcDbEntity
  8
Vrstva_1
 62
7
100
AcDbPolyline
 90
10
 70
0
 10
86.487548
 20
128.667002
 30
0.0
 10
86.338900
 20
128.667002
 30
0.0
 10
86.338900
 20
128.815651
 30
0.0
 10
86.338900
 20
128.964300
 30
0.0
 10
86.487548
 20
128.964300
 30
0.0
 10
86.636197
 20
128.964300
 30
0.0
 10
86.636197
 20
128.815651
 30
0.0
 10
86.636197
 20
128.667002
 30
0.0
 10
86.487548
 20
128.667002
 30
0.0
 10
86.487548
 20
128.667002
 30
0.0
  0
LWPOLYLINE
  5
10d
100
AcDbEntity
  8
Vrstva_1
 62
7
100
AcDbPolyline
 90
10
 70
0
 10
90.352413
 20
128.667002
 30
0.0
 10
90.203765
 20
128.667002
 30
0.0
 10
90.203765
 20
128.815651
 30
0.0
 10
90.203765
 20
128.964300
 30
0.0
 10
90.352413
 20
128.964300
 30
0.0
 10
90.501062
 20
128.964300
 30
0.0
 10
90.501062
 20
128.815651
 30
0.0
 10
90.501062
 20
128.667002
 30
0.0
 10
90.352413
 20
128.667002
 30
0.0
 10
90.352413
 20
128.667002
 30
0.0
  0
LWPOLYLINE
  5
10e
100
AcDbEntity
  8
Vrstva_1
 62
7
100
AcDbPolyline
 90
18
 70
0
 10
90.649711
 20
125.991327
 30
0.0
 10
90.798359
 20
125.991327
 30
0.0
 10
90.798359
 20
126.139975
 30
0.0
 10
90.798359
 20
126.288624
 30
0.0
 10
90.947008
 20
126.288624
 30
0.0
 10
91.095656
 20
126.288624
 30
0.0
 10
91.095656
 20
126.585921
 30
0.0
 10
91.095656
 20
126.883219
 30
0.0
 10
90.947008
 20
126.883219
 30
0.0
 10
90.798359
 20
126.883219
 30
0.0
 10
90.798359
 20
126.734570
 30
0.0
 10
90.798359
 20
126.585921
 30
0.0
 10
90.649711
 20
126.585921
 30
0.0
 10
90.501062
 20
126.585921
 30
0.0
 10
90.501062
 20
126.288624
 30
0.0
 10
90.501062
 20
125.991327
 30
0.0
 10
90.649711
 20
125.991327
 30
0.0
 10
90.649711
 20
125.991327
 30
0.0
  0
LWPOLYLINE
  5
10f
100
AcDbEntity
  8
Vrstva_1
 62
7
100
AcDbPolyline
 90
10
 70
0
 10
91.541602
 20
125.991327
 30
0.0
 10
91.690251
 20
125.991327
 30
0.0
 10
91.690251
 20
126.288624
 30
0.0
 10
91.690251
 20
126.585921
 30
0.0
 10
91.541602
 20
126.585921
 30
0.0
 10
91.392954
 20
126.585921
 30
0.0
 10
91.392954
 20
126.288624
 30
0.0
 10
91.392954
 20
125.991327
 30
0.0
 10
91.541602
 20
125.991327
 30
0.0
 10
91.541602
 20
125.991327
 30
0.0
  0
LWPOLYLINE
  5
110
100
AcDbEntity
  8
Vrstva_1
 62
7
100
AcDbPolyline
 90
10
 70
0
 10
84.109170
 20
128.964300
 30
0.0
 10
84.257819
 20
128.964300
 30
0.0
 10
84.257819
 20
129.112948
 30
0.0
 10
84.257819
 20
129.261597
 30
0.0
 10
84.109170
 20
129.261597
 30
0.0
 10
83.960521
 20
129.261597
 30
0.0
 10
83.960521
 20
129.112948
 30
0.0
 10
83.960521
 20
128.964300
 30
0.0
 10
84.109170
 20
128.964300
 30
0.0
 10
84.109170
 20
128.964300
 30
0.0
  0
LWPOLYLINE
  5
111
100
AcDbEntity
  8
Vrstva_1
 62
7
100
AcDbPolyline
 90
74
 70
0
 10
85.149711
 20
129.261597
 30
0.0
 10
85.447008
 20
129.261597
 30
0.0
 10
85.447008
 20
129.558894
 30
0.0
 10
85.447008
 20
129.856192
 30
0.0
 10
85.298359
 20
129.856192
 30
0.0
 10
85.149711
 20
129.856192
 30
0.0
 10
85.149711
 20
130.004840
 30
0.0
 10
85.149711
 20
130.153489
 30
0.0
 10
85.001062
 20
130.153489
 30
0.0
 10
84.852413
 20
130.153489
 30
0.0
 10
84.852413
 20
130.302138
 30
0.0
 10
84.852413
 20
130.450786
 30
0.0
 10
85.001062
 20
130.450786
 30
0.0
 10
85.149711
 20
130.450786
 30
0.0
 10
85.149711
 20
130.599435
 30
0.0
 10
85.149711
 20
130.748084
 30
0.0
 10
85.001062
 20
130.748084
 30
0.0
 10
84.852413
 20
130.748084
 30
0.0
 10
84.852413
 20
131.045381
 30
0.0
 10
84.852413
 20
131.342678
 30
0.0
 10
85.001062
 20
131.342678
 30
0.0
 10
85.149711
 20
131.342678
 30
0.0
 10
85.149711
 20
131.491327
 30
0.0
 10
85.149711
 20
131.639975
 30
0.0
 10
84.852413
 20
131.639975
 30
0.0
 10
84.555116
 20
131.639975
 30
0.0
 10
84.555116
 20
131.788624
 30
0.0
 10
84.555116
 20
131.937273
 30
0.0
 10
84.406467
 20
131.937273
 30
0.0
 10
84.257819
 20
131.937273
 30
0.0
 10
84.257819
 20
132.085921
 30
0.0
 10
84.257819
 20
132.234570
 30
0.0
 10
84.109170
 20
132.234570
 30
0.0
 10
83.960521
 20
132.234570
 30
0.0
 10
83.960521
 20
131.937273
 30
0.0
 10
83.960521
 20
131.639975
 30
0.0
 10
84.109170
 20
131.639975
 30
0.0
 10
84.257819
 20
131.639975
 30
0.0
 10
84.257819
 20
131.342678
 30
0.0
 10
84.257819
 20
131.045381
 30
0.0
 10
84.406467
 20
131.045381
 30
0.0
 10
84.555116
 20
131.045381
 30
0.0
 10
84.555116
 20
130.896732
 30
0.0
 10
84.555116
 20
130.748084
 30
0.0
 10
84.406467
 20
130.748084
 30
0.0
 10
84.257819
 20
130.748084
 30
0.0
 10
84.257819
 20
130.896732
 30
0.0
 10
84.257819
 20
131.045381
 30
0.0
 10
84.109170
 20
131.045381
 30
0.0
 10
83.960521
 20
131.045381
 30
0.0
 10
83.960521
 20
130.748084
 30
0.0
 10
83.960521
 20
130.450786
 30
0.0
 10
84.257819
 20
130.450786
 30
0.0
 10
84.555116
 20
130.450786
 30
0.0
 10
84.555116
 20
130.302138
 30
0.0
 10
84.555116
 20
130.153489
 30
0.0
 10
84.257819
 20
130.153489
 30
0.0
 10
83.960521
 20
130.153489
 30
0.0
 10
83.960521
 20
129.856192
 30
0.0
 10
83.960521
 20
129.558894
 30
0.0
 10
84.109170
 20
129.558894
 30
0.0
 10
84.257819
 20
129.558894
 30
0.0
 10
84.257819
 20
129.707543
 30
0.0
 10
84.257819
 20
129.856192
 30
0.0
 10
84.406467
 20
129.856192
 30
0.0
 10
84.555116
 20
129.856192
 30
0.0
 10
84.555116
 20
129.707543
 30
0.0
 10
84.555116
 20
129.558894
 30
0.0
 10
84.703765
 20
129.558894
 30
0.0
 10
84.852413
 20
129.558894
 30
0.0
 10
84.852413
 20
129.410246
 30
0.0
 10
84.852413
 20
129.261597
 30
0.0
 10
85.149711
 20
129.261597
 30
0.0
 10
85.149711
 20
129.261597
 30
0.0
  0
LWPOLYLINE
  5
112
100
AcDbEntity
  8
Vrstva_1
 62
7
100
AcDbPolyline
 90
18
 70
0
 10
85.595656
 20
129.856192
 30
0.0
 10
85.744305
 20
129.856192
 30
0.0
 10
85.744305
 20
130.004840
 30
0.0
 10
85.744305
 20
130.153489
 30
0.0
 10
86.041602
 20
130.153489
 30
0.0
 10
86.338900
 20
130.153489
 30
0.0
 10
86.338900
 20
130.302138
 30
0.0
 10
86.338900
 20
130.450786
 30
0.0
 10
85.744305
 20
130.450786
 30
0.0
 10
85.149711
 20
130.450786
 30
0.0
 10
85.149711
 20
130.302138
 30
0.0
 10
85.149711
 20
130.153489
 30
0.0
 10
85.298359
 20
130.153489
 30
0.0
 10
85.447008
 20
130.153489
 30
0.0
 10
85.447008
 20
130.004840
 30
0.0
 10
85.447008
 20
129.856192
 30
0.0
 10
85.595656
 20
129.856192
 30
0.0
 10
85.595656
 20
129.856192
 30
0.0
  0
LWPOLYLINE
  5
113
100
AcDbEntity
  8
Vrstva_1
 62
7
100
AcDbPolyline
 90
10
 70
0
 10
88.271332
 20
130.450786
 30
0.0
 10
88.419981
 20
130.450786
 30
0.0
 10
88.419981
 20
130.748084
 30
0.0
 10
88.419981
 20
131.045381
 30
0.0
 10
88.271332
 20
131.045381
 30
0.0
 10
88.122684
 20
131.045381
 30
0.0
 10
88.122684
 20
130.748084
 30
0.0
 10
88.122684
 20
130.450786
 30
0.0
 10
88.271332
 20
130.450786
 30
0.0
 10
88.271332
 20
130.450786
 30
0.0
  0
LWPOLYLINE
  5
114
100
AcDbEntity
  8
Vrstva_1
 62
7
100
AcDbPolyline
 90
274
 70
0
 10
85.744305
 20
130.748084
 30
0.0
 10
86.338900
 20
130.748084
 30
0.0
 10
86.338900
 20
130.896732
 30
0.0
 10
86.338900
 20
131.045381
 30
0.0
 10
86.487548
 20
131.045381
 30
0.0
 10
86.636197
 20
131.045381
 30
0.0
 10
86.636197
 20
131.194030
 30
0.0
 10
86.636197
 20
131.342678
 30
0.0
 10
87.379440
 20
131.342678
 30
0.0
 10
88.122684
 20
131.342678
 30
0.0
 10
88.122684
 20
131.788624
 30
0.0
 10
88.122684
 20
132.234570
 30
0.0
 10
88.271332
 20
132.234570
 30
0.0
 10
88.419981
 20
132.234570
 30
0.0
 10
88.419981
 20
131.937273
 30
0.0
 10
88.419981
 20
131.639975
 30
0.0
 10
88.568629
 20
131.639975
 30
0.0
 10
88.717278
 20
131.639975
 30
0.0
 10
88.717278
 20
131.491327
 30
0.0
 10
88.717278
 20
131.342678
 30
0.0
 10
89.163224
 20
131.342678
 30
0.0
 10
89.609170
 20
131.342678
 30
0.0
 10
89.609170
 20
131.491327
 30
0.0
 10
89.609170
 20
131.639975
 30
0.0
 10
89.757819
 20
131.639975
 30
0.0
 10
89.906467
 20
131.639975
 30
0.0
 10
89.906467
 20
131.491327
 30
0.0
 10
89.906467
 20
131.342678
 30
0.0
 10
90.203765
 20
131.342678
 30
0.0
 10
90.501062
 20
131.342678
 30
0.0
 10
90.501062
 20
131.194030
 30
0.0
 10
90.501062
 20
131.045381
 30
0.0
 10
90.947008
 20
131.045381
 30
0.0
 10
91.392954
 20
131.045381
 30
0.0
 10
91.392954
 20
130.896732
 30
0.0
 10
91.392954
 20
130.748084
 30
0.0
 10
91.690251
 20
130.748084
 30
0.0
 10
91.987548
 20
130.748084
 30
0.0
 10
91.987548
 20
130.896732
 30
0.0
 10
91.987548
 20
131.045381
 30
0.0
 10
91.838900
 20
131.045381
 30
0.0
 10
91.690251
 20
131.045381
 30
0.0
 10
91.690251
 20
131.194030
 30
0.0
 10
91.690251
 20
131.342678
 30
0.0
 10
91.987548
 20
131.342678
 30
0.0
 10
92.284846
 20
131.342678
 30
0.0
 10
92.284846
 20
131.194030
 30
0.0
 10
92.284846
 20
131.045381
 30
0.0
 10
92.433494
 20
131.045381
 30
0.0
 10
92.582143
 20
131.045381
 30
0.0
 10
92.582143
 20
131.194030
 30
0.0
 10
92.582143
 20
131.342678
 30
0.0
 10
92.433494
 20
131.342678
 30
0.0
 10
92.284846
 20
131.342678
 30
0.0
 10
92.284846
 20
131.491327
 30
0.0
 10
92.284846
 20
131.639975
 30
0.0
 10
92.433494
 20
131.639975
 30
0.0
 10
92.582143
 20
131.639975
 30
0.0
 10
92.582143
 20
131.937273
 30
0.0
 10
92.582143
 20
132.234570
 30
0.0
 10
92.284846
 20
132.234570
 30
0.0
 10
91.987548
 20
132.234570
 30
0.0
 10
91.987548
 20
132.085921
 30
0.0
 10
91.987548
 20
131.937273
 30
0.0
 10
92.136197
 20
131.937273
 30
0.0
 10
92.284846
 20
131.937273
 30
0.0
 10
92.284846
 20
131.788624
 30
0.0
 10
92.284846
 20
131.639975
 30
0.0
 10
91.987548
 20
131.639975
 30
0.0
 10
91.690251
 20
131.639975
 30
0.0
 10
91.690251
 20
131.491327
 30
0.0
 10
91.690251
 20
131.342678
 30
0.0
 10
91.244305
 20
131.342678
 30
0.0
 10
90.798359
 20
131.342678
 30
0.0
 10
90.798359
 20
131.491327
 30
0.0
 10
90.798359
 20
131.639975
 30
0.0
 10
91.095656
 20
131.639975
 30
0.0
 10
91.392954
 20
131.639975
 30
0.0
 10
91.392954
 20
131.788624
 30
0.0
 10
91.392954
 20
131.937273
 30
0.0
 10
91.541602
 20
131.937273
 30
0.0
 10
91.690251
 20
131.937273
 30
0.0
 10
91.690251
 20
132.085921
 30
0.0
 10
91.690251
 20
132.234570
 30
0.0
 10
91.541602
 20
132.234570
 30
0.0
 10
91.392954
 20
132.234570
 30
0.0
 10
91.392954
 20
132.085921
 30
0.0
 10
91.392954
 20
131.937273
 30
0.0
 10
91.095656
 20
131.937273
 30
0.0
 10
90.798359
 20
131.937273
 30
0.0
 10
90.798359
 20
132.085921
 30
0.0
 10
90.798359
 20
132.234570
 30
0.0
 10
90.649711
 20
132.234570
 30
0.0
 10
90.501062
 20
132.234570
 30
0.0
 10
90.501062
 20
132.085921
 30
0.0
 10
90.501062
 20
131.937273
 30
0.0
 10
90.203765
 20
131.937273
 30
0.0
 10
89.906467
 20
131.937273
 30
0.0
 10
89.906467
 20
132.085921
 30
0.0
 10
89.906467
 20
132.234570
 30
0.0
 10
89.757819
 20
132.234570
 30
0.0
 10
89.609170
 20
132.234570
 30
0.0
 10
89.609170
 20
132.531867
 30
0.0
 10
89.609170
 20
132.829165
 30
0.0
 10
89.757819
 20
132.829165
 30
0.0
 10
89.906467
 20
132.829165
 30
0.0
 10
89.906467
 20
132.680516
 30
0.0
 10
89.906467
 20
132.531867
 30
0.0
 10
90.055116
 20
132.531867
 30
0.0
 10
90.203765
 20
132.531867
 30
0.0
 10
90.203765
 20
132.829165
 30
0.0
 10
90.203765
 20
133.126462
 30
0.0
 10
90.055116
 20
133.126462
 30
0.0
 10
89.906467
 20
133.126462
 30
0.0
 10
89.906467
 20
133.275111
 30
0.0
 10
89.906467
 20
133.423759
 30
0.0
 10
90.055116
 20
133.423759
 30
0.0
 10
90.203765
 20
133.423759
 30
0.0
 10
90.203765
 20
133.572408
 30
0.0
 10
90.203765
 20
133.721057
 30
0.0
 10
90.055116
 20
133.721057
 30
0.0
 10
89.906467
 20
133.721057
 30
0.0
 10
89.906467
 20
133.572408
 30
0.0
 10
89.906467
 20
133.423759
 30
0.0
 10
89.757819
 20
133.423759
 30
0.0
 10
89.609170
 20
133.423759
 30
0.0
 10
89.609170
 20
133.126462
 30
0.0
 10
89.609170
 20
132.829165
 30
0.0
 10
89.460521
 20
132.829165
 30
0.0
 10
89.311873
 20
132.829165
 30
0.0
 10
89.311873
 20
132.680516
 30
0.0
 10
89.311873
 20
132.531867
 30
0.0
 10
89.163224
 20
132.531867
 30
0.0
 10
89.014575
 20
132.531867
 30
0.0
 10
89.014575
 20
132.829165
 30
0.0
 10
89.014575
 20
133.126462
 30
0.0
 10
89.163224
 20
133.126462
 30
0.0
 10
89.311873
 20
133.126462
 30
0.0
 10
89.311873
 20
133.423759
 30
0.0
 10
89.311873
 20
133.721057
 30
0.0
 10
89.460521
 20
133.721057
 30
0.0
 10
89.609170
 20
133.721057
 30
0.0
 10
89.609170
 20
134.018354
 30
0.0
 10
89.609170
 20
134.315651
 30
0.0
 10
89.757819
 20
134.315651
 30
0.0
 10
89.906467
 20
134.315651
 30
0.0
 10
89.906467
 20
134.167002
 30
0.0
 10
89.906467
 20
134.018354
 30
0.0
 10
90.055116
 20
134.018354
 30
0.0
 10
90.203765
 20
134.018354
 30
0.0
 10
90.203765
 20
134.315651
 30
0.0
 10
90.203765
 20
134.612948
 30
0.0
 10
89.609170
 20
134.612948
 30
0.0
 10
89.014575
 20
134.612948
 30
0.0
 10
89.014575
 20
134.315651
 30
0.0
 10
89.014575
 20
134.018354
 30
0.0
 10
89.163224
 20
134.018354
 30
0.0
 10
89.311873
 20
134.018354
 30
0.0
 10
89.311873
 20
133.869705
 30
0.0
 10
89.311873
 20
133.721057
 30
0.0
 10
89.163224
 20
133.721057
 30
0.0
 10
89.014575
 20
133.721057
 30
0.0
 10
89.014575
 20
133.869705
 30
0.0
 10
89.014575
 20
134.018354
 30
0.0
 10
88.865927
 20
134.018354
 30
0.0
 10
88.717278
 20
134.018354
 30
0.0
 10
88.717278
 20
133.869705
 30
0.0
 10
88.717278
 20
133.721057
 30
0.0
 10
88.568629
 20
133.721057
 30
0.0
 10
88.419981
 20
133.721057
 30
0.0
 10
88.419981
 20
133.572408
 30
0.0
 10
88.419981
 20
133.423759
 30
0.0
 10
88.271332
 20
133.423759
 30
0.0
 10
88.122684
 20
133.423759
 30
0.0
 10
88.122684
 20
133.275111
 30
0.0
 10
88.122684
 20
133.126462
 30
0.0
 10
87.974035
 20
133.126462
 30
0.0
 10
87.825386
 20
133.126462
 30
0.0
 10
87.825386
 20
133.275111
 30
0.0
 10
87.825386
 20
133.423759
 30
0.0
 10
87.230792
 20
133.423759
 30
0.0
 10
86.636197
 20
133.423759
 30
0.0
 10
86.636197
 20
133.572408
 30
0.0
 10
86.636197
 20
133.721057
 30
0.0
 10
86.933494
 20
133.721057
 30
0.0
 10
87.230792
 20
133.721057
 30
0.0
 10
87.230792
 20
133.869705
 30
0.0
 10
87.230792
 20
134.018354
 30
0.0
 10
87.379440
 20
134.018354
 30
0.0
 10
87.528089
 20
134.018354
 30
0.0
 10
87.528089
 20
133.869705
 30
0.0
 10
87.528089
 20
133.721057
 30
0.0
 10
87.676738
 20
133.721057
 30
0.0
 10
87.825386
 20
133.721057
 30
0.0
 10
87.825386
 20
133.869705
 30
0.0
 10
87.825386
 20
134.018354
 30
0.0
 10
88.122684
 20
134.018354
 30
0.0
 10
88.419981
 20
134.018354
 30
0.0
 10
88.419981
 20
134.167002
 30
0.0
 10
88.419981
 20
134.315651
 30
0.0
 10
88.568629
 20
134.315651
 30
0.0
 10
88.717278
 20
134.315651
 30
0.0
 10
88.717278
 20
134.464300
 30
0.0
 10
88.717278
 20
134.612948
 30
0.0
 10
88.419981
 20
134.612948
 30
0.0
 10
88.122684
 20
134.612948
 30
0.0
 10
88.122684
 20
134.464300
 30
0.0
 10
88.122684
 20
134.315651
 30
0.0
 10
87.974035
 20
134.315651
 30
0.0
 10
87.825386
 20
134.315651
 30
0.0
 10
87.825386
 20
134.464300
 30
0.0
 10
87.825386
 20
134.612948
 30
0.0
 10
87.676738
 20
134.612948
 30
0.0
 10
87.528089
 20
134.612948
 30
0.0
 10
87.528089
 20
134.464300
 30
0.0
 10
87.528089
 20
134.315651
 30
0.0
 10
87.379440
 20
134.315651
 30
0.0
 10
87.230792
 20
134.315651
 30
0.0
 10
87.230792
 20
134.167002
 30
0.0
 10
87.230792
 20
134.018354
 30
0.0
 10
86.933494
 20
134.018354
 30
0.0
 10
86.636197
 20
134.018354
 30
0.0
 10
86.636197
 20
134.167002
 30
0.0
 10
86.636197
 20
134.315651
 30
0.0
 10
86.784846
 20
134.315651
 30
0.0
 10
86.933494
 20
134.315651
 30
0.0
 10
86.933494
 20
134.464300
 30
0.0
 10
86.933494
 20
134.612948
 30
0.0
 10
86.636197
 20
134.612948
 30
0.0
 10
86.338900
 20
134.612948
 30
0.0
 10
86.338900
 20
134.315651
 30
0.0
 10
86.338900
 20
134.018354
 30
0.0
 10
86.487548
 20
134.018354
 30
0.0
 10
86.636197
 20
134.018354
 30
0.0
 10
86.636197
 20
133.869705
 30
0.0
 10
86.636197
 20
133.721057
 30
0.0
 10
86.487548
 20
133.721057
 30
0.0
 10
86.338900
 20
133.721057
 30
0.0
 10
86.338900
 20
133.572408
 30
0.0
 10
86.338900
 20
133.423759
 30
0.0
 10
86.487548
 20
133.423759
 30
0.0
 10
86.636197
 20
133.423759
 30
0.0
 10
86.636197
 20
133.126462
 30
0.0
 10
86.636197
 20
132.829165
 30
0.0
 10
86.487548
 20
132.829165
 30
0.0
 10
86.338900
 20
132.829165
 30
0.0
 10
86.338900
 20
132.531867
 30
0.0
 10
86.338900
 20
132.234570
 30
0.0
 10
85.892954
 20
132.234570
 30
0.0
 10
85.447008
 20
132.234570
 30
0.0
 10
85.447008
 20
132.085921
 30
0.0
 10
85.447008
 20
131.937273
 30
0.0
 10
85.298359
 20
131.937273
 30
0.0
 10
85.149711
 20
131.937273
 30
0.0
 10
85.149711
 20
132.085921
 30
0.0
 10
85.149711
 20
132.234570
 30
0.0
 10
84.852413
 20
132.234570
 30
0.0
 10
84.555116
 20
132.234570
 30
0.0
 10
84.555116
 20
132.085921
 30
0.0
 10
84.555116
 20
131.937273
 30
0.0
 10
84.852413
 20
131.937273
 30
0.0
 10
85.149711
 20
131.937273
 30
0.0
 10
85.149711
 20
131.788624
 30
0.0
 10
85.149711
 20
131.639975
 30
0.0
 10
85.298359
 20
131.639975
 30
0.0
 10
85.447008
 20
131.639975
 30
0.0
 10
85.447008
 20
131.491327
 30
0.0
 10
85.447008
 20
131.342678
 30
0.0
 10
85.298359
 20
131.342678
 30
0.0
 10
85.149711
 20
131.342678
 30
0.0
 10
85.149711
 20
131.045381
 30
0.0
 10
85.149711
 20
130.748084
 30
0.0
 10
85.744305
 20
130.748084
 30
0.0
 10
85.744305
 20
130.748084
 30
0.0
  0
LWPOLYLINE
  5
115
100
AcDbEntity
  8
Vrstva_1
 62
7
100
AcDbPolyline
 90
10
 70
0
 10
86.041602
 20
131.045381
 30
0.0
 10
85.744305
 20
131.045381
 30
0.0
 10
85.744305
 20
131.194030
 30
0.0
 10
85.744305
 20
131.342678
 30
0.0
 10
86.041602
 20
131.342678
 30
0.0
 10
86.338900
 20
131.342678
 30
0.0
 10
86.338900
 20
131.194030
 30
0.0
 10
86.338900
 20
131.045381
 30
0.0
 10
86.041602
 20
131.045381
 30
0.0
 10
86.041602
 20
131.045381
 30
0.0
  0
LWPOLYLINE
  5
116
100
AcDbEntity
  8
Vrstva_1
 62
7
100
AcDbPolyline
 90
98
 70
0
 10
86.041602
 20
131.639975
 30
0.0
 10
85.744305
 20
131.639975
 30
0.0
 10
85.744305
 20
131.788624
 30
0.0
 10
85.744305
 20
131.937273
 30
0.0
 10
86.041602
 20
131.937273
 30
0.0
 10
86.338900
 20
131.937273
 30
0.0
 10
86.338900
 20
132.085921
 30
0.0
 10
86.338900
 20
132.234570
 30
0.0
 10
86.487548
 20
132.234570
 30
0.0
 10
86.636197
 20
132.234570
 30
0.0
 10
86.636197
 20
132.531867
 30
0.0
 10
86.636197
 20
132.829165
 30
0.0
 10
86.784846
 20
132.829165
 30
0.0
 10
86.933494
 20
132.829165
 30
0.0
 10
86.933494
 20
132.680516
 30
0.0
 10
86.933494
 20
132.531867
 30
0.0
 10
87.082143
 20
132.531867
 30
0.0
 10
87.230792
 20
132.531867
 30
0.0
 10
87.230792
 20
132.680516
 30
0.0
 10
87.230792
 20
132.829165
 30
0.0
 10
87.379440
 20
132.829165
 30
0.0
 10
87.528089
 20
132.829165
 30
0.0
 10
87.528089
 20
132.977813
 30
0.0
 10
87.528089
 20
133.126462
 30
0.0
 10
87.676738
 20
133.126462
 30
0.0
 10
87.825386
 20
133.126462
 30
0.0
 10
87.825386
 20
132.977813
 30
0.0
 10
87.825386
 20
132.829165
 30
0.0
 10
87.974035
 20
132.829165
 30
0.0
 10
88.122684
 20
132.829165
 30
0.0
 10
88.122684
 20
132.977813
 30
0.0
 10
88.122684
 20
133.126462
 30
0.0
 10
88.271332
 20
133.126462
 30
0.0
 10
88.419981
 20
133.126462
 30
0.0
 10
88.419981
 20
133.275111
 30
0.0
 10
88.419981
 20
133.423759
 30
0.0
 10
88.568629
 20
133.423759
 30
0.0
 10
88.717278
 20
133.423759
 30
0.0
 10
88.717278
 20
133.572408
 30
0.0
 10
88.717278
 20
133.721057
 30
0.0
 10
88.865927
 20
133.721057
 30
0.0
 10
89.014575
 20
133.721057
 30
0.0
 10
89.014575
 20
133.423759
 30
0.0
 10
89.014575
 20
133.126462
 30
0.0
 10
88.717278
 20
133.126462
 30
0.0
 10
88.419981
 20
133.126462
 30
0.0
 10
88.419981
 20
132.977813
 30
0.0
 10
88.419981
 20
132.829165
 30
0.0
 10
88.568629
 20
132.829165
 30
0.0
 10
88.717278
 20
132.829165
 30
0.0
 10
88.717278
 20
132.680516
 30
0.0
 10
88.717278
 20
132.531867
 30
0.0
 10
88.865927
 20
132.531867
 30
0.0
 10
89.014575
 20
132.531867
 30
0.0
 10
89.014575
 20
132.383219
 30
0.0
 10
89.014575
 20
132.234570
 30
0.0
 10
89.163224
 20
132.234570
 30
0.0
 10
89.311873
 20
132.234570
 30
0.0
 10
89.311873
 20
132.085921
 30
0.0
 10
89.311873
 20
131.937273
 30
0.0
 10
89.163224
 20
131.937273
 30
0.0
 10
89.014575
 20
131.937273
 30
0.0
 10
89.014575
 20
131.788624
 30
0.0
 10
89.014575
 20
131.639975
 30
0.0
 10
88.865927
 20
131.639975
 30
0.0
 10
88.717278
 20
131.639975
 30
0.0
 10
88.717278
 20
131.937273
 30
0.0
 10
88.717278
 20
132.234570
 30
0.0
 10
88.568629
 20
132.234570
 30
0.0
 10
88.419981
 20
132.234570
 30
0.0
 10
88.419981
 20
132.531867
 30
0.0
 10
88.419981
 20
132.829165
 30
0.0
 10
88.271332
 20
132.829165
 30
0.0
 10
88.122684
 20
132.829165
 30
0.0
 10
88.122684
 20
132.531867
 30
0.0
 10
88.122684
 20
132.234570
 30
0.0
 10
87.974035
 20
132.234570
 30
0.0
 10
87.825386
 20
132.234570
 30
0.0
 10
87.825386
 20
131.937273
 30
0.0
 10
87.825386
 20
131.639975
 30
0.0
 10
87.676738
 20
131.639975
 30
0.0
 10
87.528089
 20
131.639975
 30
0.0
 10
87.528089
 20
131.788624
 30
0.0
 10
87.528089
 20
131.937273
 30
0.0
 10
87.379440
 20
131.937273
 30
0.0
 10
87.230792
 20
131.937273
 30
0.0
 10
87.230792
 20
132.085921
 30
0.0
 10
87.230792
 20
132.234570
 30
0.0
 10
87.082143
 20
132.234570
 30
0.0
 10
86.933494
 20
132.234570
 30
0.0
 10
86.933494
 20
132.085921
 30
0.0
 10
86.933494
 20
131.937273
 30
0.0
 10
86.636197
 20
131.937273
 30
0.0
 10
86.338900
 20
131.937273
 30
0.0
 10
86.338900
 20
131.788624
 30
0.0
 10
86.338900
 20
131.639975
 30
0.0
 10
86.041602
 20
131.639975
 30
0.0
 10
86.041602
 20
131.639975
 30
0.0
  0
LWPOLYLINE
  5
117
100
AcDbEntity
  8
Vrstva_1
 62
7
100
AcDbPolyline
 90
10
 70
0
 10
87.676738
 20
132.234570
 30
0.0
 10
87.825386
 20
132.234570
 30
0.0
 10
87.825386
 20
132.531867
 30
0.0
 10
87.825386
 20
132.829165
 30
0.0
 10
87.676738
 20
132.829165
 30
0.0
 10
87.528089
 20
132.829165
 30
0.0
 10
87.528089
 20
132.531867
 30
0.0
 10
87.528089
 20
132.234570
 30
0.0
 10
87.676738
 20
132.234570
 30
0.0
 10
87.676738
 20
132.234570
 30
0.0
  0
LWPOLYLINE
  5
118
100
AcDbEntity
  8
Vrstva_1
 62
7
100
AcDbPolyline
 90
10
 70
0
 10
87.676738
 20
134.018354
 30
0.0
 10
87.528089
 20
134.018354
 30
0.0
 10
87.528089
 20
134.167002
 30
0.0
 10
87.528089
 20
134.315651
 30
0.0
 10
87.676738
 20
134.315651
 30
0.0
 10
87.825386
 20
134.315651
 30
0.0
 10
87.825386
 20
134.167002
 30
0.0
 10
87.825386
 20
134.018354
 30
0.0
 10
87.676738
 20
134.018354
 30
0.0
 10
87.676738
 20
134.018354
 30
0.0
  0
LWPOLYLINE
  5
119
100
AcDbEntity
  8
Vrstva_1
 62
7
100
AcDbPolyline
 90
18
 70
0
 10
90.055116
 20
130.748084
 30
0.0
 10
90.203765
 20
130.748084
 30
0.0
 10
90.203765
 20
130.896732
 30
0.0
 10
90.203765
 20
131.045381
 30
0.0
 10
90.055116
 20
131.045381
 30
0.0
 10
89.906467
 20
131.045381
 30
0.0
 10
89.906467
 20
131.194030
 30
0.0
 10
89.906467
 20
131.342678
 30
0.0
 10
89.757819
 20
131.342678
 30
0.0
 10
89.609170
 20
131.342678
 30
0.0
 10
89.609170
 20
131.194030
 30
0.0
 10
89.609170
 20
131.045381
 30
0.0
 10
89.757819
 20
131.045381
 30
0.0
 10
89.906467
 20
131.045381
 30
0.0
 10
89.906467
 20
130.896732
 30
0.0
 10
89.906467
 20
130.748084
 30
0.0
 10
90.055116
 20
130.748084
 30
0.0
 10
90.055116
 20
130.748084
 30
0.0
  0
LWPOLYLINE
  5
11a
100
AcDbEntity
  8
Vrstva_1
 62
7
100
AcDbPolyline
 90
10
 70
0
 10
85.001062
 20
132.531867
 30
0.0
 10
86.041602
 20
132.531867
 30
0.0
 10
86.041602
 20
133.572408
 30
0.0
 10
86.041602
 20
134.612948
 30
0.0
 10
85.001062
 20
134.612948
 30
0.0
 10
83.960521
 20
134.612948
 30
0.0
 10
83.960521
 20
133.572408
 30
0.0
 10
83.960521
 20
132.531867
 30
0.0
 10
85.001062
 20
132.531867
 30
0.0
 10
85.001062
 20
132.531867
 30
0.0
  0
LWPOLYLINE
  5
11b
100
AcDbEntity
  8
Vrstva_1
 62
7
100
AcDbPolyline
 90
10
 70
0
 10
85.001062
 20
132.829165
 30
0.0
 10
84.257819
 20
132.829165
 30
0.0
 10
84.257819
 20
133.572408
 30
0.0
 10
84.257819
 20
134.315651
 30
0.0
 10
85.001062
 20
134.315651
 30
0.0
 10
85.744305
 20
134.315651
 30
0.0
 10
85.744305
 20
133.572408
 30
0.0
 10
85.744305
 20
132.829165
 30
0.0
 10
85.001062
 20
132.829165
 30
0.0
 10
85.001062
 20
132.829165
 30
0.0
  0
LWPOLYLINE
  5
11c
100
AcDbEntity
  8
Vrstva_1
 62
7
100
AcDbPolyline
 90
10
 70
0
 10
85.001062
 20
133.126462
 30
0.0
 10
85.447008
 20
133.126462
 30
0.0
 10
85.447008
 20
133.572408
 30
0.0
 10
85.447008
 20
134.018354
 30
0.0
 10
85.001062
 20
134.018354
 30
0.0
 10
84.555116
 20
134.018354
 30
0.0
 10
84.555116
 20
133.572408
 30
0.0
 10
84.555116
 20
133.126462
 30
0.0
 10
85.001062
 20
133.126462
 30
0.0
 10
85.001062
 20
133.126462
 30
0.0
  0
LWPOLYLINE
  5
11d
100
AcDbEntity
  8
Vrstva_1
 62
7
100
AcDbPolyline
 90
10
 70
0
 10
91.541602
 20
132.531867
 30
0.0
 10
92.582143
 20
132.531867
 30
0.0
 10
92.582143
 20
133.572408
 30
0.0
 10
92.582143
 20
134.612948
 30
0.0
 10
91.541602
 20
134.612948
 30
0.0
 10
90.501062
 20
134.612948
 30
0.0
 10
90.501062
 20
133.572408
 30
0.0
 10
90.501062
 20
132.531867
 30
0.0
 10
91.541602
 20
132.531867
 30
0.0
 10
91.541602
 20
132.531867
 30
0.0
  0
LWPOLYLINE
  5
11e
100
AcDbEntity
  8
Vrstva_1
 62
7
100
AcDbPolyline
 90
10
 70
0
 10
91.541602
 20
132.829165
 30
0.0
 10
90.798359
 20
132.829165
 30
0.0
 10
90.798359
 20
133.572408
 30
0.0
 10
90.798359
 20
134.315651
 30
0.0
 10
91.541602
 20
134.315651
 30
0.0
 10
92.284846
 20
134.315651
 30
0.0
 10
92.284846
 20
133.572408
 30
0.0
 10
92.284846
 20
132.829165
 30
0.0
 10
91.541602
 20
132.829165
 30
0.0
 10
91.541602
 20
132.829165
 30
0.0
  0
LWPOLYLINE
  5
11f
100
AcDbEntity
  8
Vrstva_1
 62
7
100
AcDbPolyline
 90
10
 70
0
 10
91.541602
 20
133.126462
 30
0.0
 10
91.987548
 20
133.126462
 30
0.0
 10
91.987548
 20
133.572408
 30
0.0
 10
91.987548
 20
134.018354
 30
0.0
 10
91.541602
 20
134.018354
 30
0.0
 10
91.095656
 20
134.018354
 30
0.0
 10
91.095656
 20
133.572408
 30
0.0
 10
91.095656
 20
133.126462
 30
0.0
 10
91.541602
 20
133.126462
 30
0.0
 10
91.541602
 20
133.126462
 30
0.0
  0
LWPOLYLINE
  5
120
100
AcDbEntity
  8
Vrstva_1
 62
7
100
AcDbPolyline
 90
10
 70
0
 10
85.001062
 20
125.991327
 30
0.0
 10
83.960521
 20
125.991327
 30
0.0
 10
83.960521
 20
127.031867
 30
0.0
 10
83.960521
 20
128.072408
 30
0.0
 10
85.001062
 20
128.072408
 30
0.0
 10
86.041602
 20
128.072408
 30
0.0
 10
86.041602
 20
127.031867
 30
0.0
 10
86.041602
 20
125.991327
 30
0.0
 10
85.001062
 20
125.991327
 30
0.0
 10
85.001062
 20
125.991327
 30
0.0
  0
LWPOLYLINE
  5
121
100
AcDbEntity
  8
Vrstva_1
 62
7
100
AcDbPolyline
 90
10
 70
0
 10
85.001062
 20
126.288624
 30
0.0
 10
85.744305
 20
126.288624
 30
0.0
 10
85.744305
 20
127.031867
 30
0.0
 10
85.744305
 20
127.775111
 30
0.0
 10
85.001062
 20
127.775111
 30
0.0
 10
84.257819
 20
127.775111
 30
0.0
 10
84.257819
 20
127.031867
 30
0.0
 10
84.257819
 20
126.288624
 30
0.0
 10
85.001062
 20
126.288624
 30
0.0
 10
85.001062
 20
126.288624
 30
0.0
  0
LWPOLYLINE
  5
122
100
AcDbEntity
  8
Vrstva_1
 62
7
100
AcDbPolyline
 90
10
 70
0
 10
85.001062
 20
126.585921
 30
0.0
 10
84.555116
 20
126.585921
 30
0.0
 10
84.555116
 20
127.031867
 30
0.0
 10
84.555116
 20
127.477813
 30
0.0
 10
85.001062
 20
127.477813
 30
0.0
 10
85.447008
 20
127.477813
 30
0.0
 10
85.447008
 20
127.031867
 30
0.0
 10
85.447008
 20
126.585921
 30
0.0
 10
85.001062
 20
126.585921
 30
0.0
 10
85.001062
 20
126.585921
 30
0.0
  0
LWPOLYLINE
  5
123
100
AcDbEntity
  8
Vrstva_1
 62
7
100
AcDbPolyline
 90
322
 70
0
 10
86.487548
 20
125.991327
 30
0.0
 10
86.338900
 20
125.991327
 30
0.0
 10
86.338900
 20
126.139975
 30
0.0
 10
86.338900
 20
126.288624
 30
0.0
 10
86.487548
 20
126.288624
 30
0.0
 10
86.636197
 20
126.288624
 30
0.0
 10
86.636197
 20
126.437273
 30
0.0
 10
86.636197
 20
126.585921
 30
0.0
 10
86.487548
 20
126.585921
 30
0.0
 10
86.338900
 20
126.585921
 30
0.0
 10
86.338900
 20
126.883219
 30
0.0
 10
86.338900
 20
127.180516
 30
0.0
 10
86.487548
 20
127.180516
 30
0.0
 10
86.636197
 20
127.180516
 30
0.0
 10
86.636197
 20
127.329165
 30
0.0
 10
86.636197
 20
127.477813
 30
0.0
 10
86.487548
 20
127.477813
 30
0.0
 10
86.338900
 20
127.477813
 30
0.0
 10
86.338900
 20
127.923759
 30
0.0
 10
86.338900
 20
128.369705
 30
0.0
 10
85.744305
 20
128.369705
 30
0.0
 10
85.149711
 20
128.369705
 30
0.0
 10
85.149711
 20
128.518354
 30
0.0
 10
85.149711
 20
128.667002
 30
0.0
 10
85.001062
 20
128.667002
 30
0.0
 10
84.852413
 20
128.667002
 30
0.0
 10
84.852413
 20
128.518354
 30
0.0
 10
84.852413
 20
128.369705
 30
0.0
 10
84.555116
 20
128.369705
 30
0.0
 10
84.257819
 20
128.369705
 30
0.0
 10
84.257819
 20
128.518354
 30
0.0
 10
84.257819
 20
128.667002
 30
0.0
 10
84.406467
 20
128.667002
 30
0.0
 10
84.555116
 20
128.667002
 30
0.0
 10
84.555116
 20
128.964300
 30
0.0
 10
84.555116
 20
129.261597
 30
0.0
 10
84.703765
 20
129.261597
 30
0.0
 10
84.852413
 20
129.261597
 30
0.0
 10
84.852413
 20
129.112948
 30
0.0
 10
84.852413
 20
128.964300
 30
0.0
 10
85.001062
 20
128.964300
 30
0.0
 10
85.149711
 20
128.964300
 30
0.0
 10
85.149711
 20
128.815651
 30
0.0
 10
85.149711
 20
128.667002
 30
0.0
 10
85.595656
 20
128.667002
 30
0.0
 10
86.041602
 20
128.667002
 30
0.0
 10
86.041602
 20
128.815651
 30
0.0
 10
86.041602
 20
128.964300
 30
0.0
 10
85.892954
 20
128.964300
 30
0.0
 10
85.744305
 20
128.964300
 30
0.0
 10
85.744305
 20
129.112948
 30
0.0
 10
85.744305
 20
129.261597
 30
0.0
 10
85.892954
 20
129.261597
 30
0.0
 10
86.041602
 20
129.261597
 30
0.0
 10
86.041602
 20
129.410246
 30
0.0
 10
86.041602
 20
129.558894
 30
0.0
 10
85.892954
 20
129.558894
 30
0.0
 10
85.744305
 20
129.558894
 30
0.0
 10
85.744305
 20
129.707543
 30
0.0
 10
85.744305
 20
129.856192
 30
0.0
 10
86.190251
 20
129.856192
 30
0.0
 10
86.636197
 20
129.856192
 30
0.0
 10
86.636197
 20
130.153489
 30
0.0
 10
86.636197
 20
130.450786
 30
0.0
 10
86.784846
 20
130.450786
 30
0.0
 10
86.933494
 20
130.450786
 30
0.0
 10
86.933494
 20
130.599435
 30
0.0
 10
86.933494
 20
130.748084
 30
0.0
 10
86.784846
 20
130.748084
 30
0.0
 10
86.636197
 20
130.748084
 30
0.0
 10
86.636197
 20
130.896732
 30
0.0
 10
86.636197
 20
131.045381
 30
0.0
 10
87.230792
 20
131.045381
 30
0.0
 10
87.825386
 20
131.045381
 30
0.0
 10
87.825386
 20
130.896732
 30
0.0
 10
87.825386
 20
130.748084
 30
0.0
 10
87.676738
 20
130.748084
 30
0.0
 10
87.528089
 20
130.748084
 30
0.0
 10
87.528089
 20
130.599435
 30
0.0
 10
87.528089
 20
130.450786
 30
0.0
 10
87.379440
 20
130.450786
 30
0.0
 10
87.230792
 20
130.450786
 30
0.0
 10
87.230792
 20
130.302138
 30
0.0
 10
87.230792
 20
130.153489
 30
0.0
 10
87.082143
 20
130.153489
 30
0.0
 10
86.933494
 20
130.153489
 30
0.0
 10
86.933494
 20
129.410246
 30
0.0
 10
86.933494
 20
128.667002
 30
0.0
 10
87.379440
 20
128.667002
 30
0.0
 10
87.825386
 20
128.667002
 30
0.0
 10
87.825386
 20
128.815651
 30
0.0
 10
87.825386
 20
128.964300
 30
0.0
 10
87.676738
 20
128.964300
 30
0.0
 10
87.528089
 20
128.964300
 30
0.0
 10
87.528089
 20
129.410246
 30
0.0
 10
87.528089
 20
129.856192
 30
0.0
 10
87.379440
 20
129.856192
 30
0.0
 10
87.230792
 20
129.856192
 30
0.0
 10
87.230792
 20
130.004840
 30
0.0
 10
87.230792
 20
130.153489
 30
0.0
 10
87.379440
 20
130.153489
 30
0.0
 10
87.528089
 20
130.153489
 30
0.0
 10
87.528089
 20
130.302138
 30
0.0
 10
87.528089
 20
130.450786
 30
0.0
 10
87.825386
 20
130.450786
 30
0.0
 10
88.122684
 20
130.450786
 30
0.0
 10
88.122684
 20
130.302138
 30
0.0
 10
88.122684
 20
130.153489
 30
0.0
 10
87.974035
 20
130.153489
 30
0.0
 10
87.825386
 20
130.153489
 30
0.0
 10
87.825386
 20
129.707543
 30
0.0
 10
87.825386
 20
129.261597
 30
0.0
 10
87.974035
 20
129.261597
 30
0.0
 10
88.122684
 20
129.261597
 30
0.0
 10
88.122684
 20
129.707543
 30
0.0
 10
88.122684
 20
130.153489
 30
0.0
 10
88.271332
 20
130.153489
 30
0.0
 10
88.419981
 20
130.153489
 30
0.0
 10
88.419981
 20
130.302138
 30
0.0
 10
88.419981
 20
130.450786
 30
0.0
 10
88.568629
 20
130.450786
 30
0.0
 10
88.717278
 20
130.450786
 30
0.0
 10
88.717278
 20
130.599435
 30
0.0
 10
88.717278
 20
130.748084
 30
0.0
 10
88.865927
 20
130.748084
 30
0.0
 10
89.014575
 20
130.748084
 30
0.0
 10
89.014575
 20
130.896732
 30
0.0
 10
89.014575
 20
131.045381
 30
0.0
 10
89.163224
 20
131.045381
 30
0.0
 10
89.311873
 20
131.045381
 30
0.0
 10
89.311873
 20
130.896732
 30
0.0
 10
89.311873
 20
130.748084
 30
0.0
 10
89.163224
 20
130.748084
 30
0.0
 10
89.014575
 20
130.748084
 30
0.0
 10
89.014575
 20
130.599435
 30
0.0
 10
89.014575
 20
130.450786
 30
0.0
 10
88.865927
 20
130.450786
 30
0.0
 10
88.717278
 20
130.450786
 30
0.0
 10
88.717278
 20
130.153489
 30
0.0
 10
88.717278
 20
129.856192
 30
0.0
 10
88.865927
 20
129.856192
 30
0.0
 10
89.014575
 20
129.856192
 30
0.0
 10
89.014575
 20
129.707543
 30
0.0
 10
89.014575
 20
129.558894
 30
0.0
 10
89.163224
 20
129.558894
 30
0.0
 10
89.311873
 20
129.558894
 30
0.0
 10
89.311873
 20
129.707543
 30
0.0
 10
89.311873
 20
129.856192
 30
0.0
 10
89.460521
 20
129.856192
 30
0.0
 10
89.609170
 20
129.856192
 30
0.0
 10
89.609170
 20
130.153489
 30
0.0
 10
89.609170
 20
130.450786
 30
0.0
 10
89.906467
 20
130.450786
 30
0.0
 10
90.203765
 20
130.450786
 30
0.0
 10
90.203765
 20
130.153489
 30
0.0
 10
90.203765
 20
129.856192
 30
0.0
 10
90.352413
 20
129.856192
 30
0.0
 10
90.501062
 20
129.856192
 30
0.0
 10
90.501062
 20
129.707543
 30
0.0
 10
90.501062
 20
129.558894
 30
0.0
 10
89.906467
 20
129.558894
 30
0.0
 10
89.311873
 20
129.558894
 30
0.0
 10
89.311873
 20
129.112948
 30
0.0
 10
89.311873
 20
128.667002
 30
0.0
 10
89.460521
 20
128.667002
 30
0.0
 10
89.609170
 20
128.667002
 30
0.0
 10
89.609170
 20
128.518354
 30
0.0
 10
89.609170
 20
128.369705
 30
0.0
 10
89.757819
 20
128.369705
 30
0.0
 10
89.906467
 20
128.369705
 30
0.0
 10
89.906467
 20
128.518354
 30
0.0
 10
89.906467
 20
128.667002
 30
0.0
 10
89.757819
 20
128.667002
 30
0.0
 10
89.609170
 20
128.667002
 30
0.0
 10
89.609170
 20
128.815651
 30
0.0
 10
89.609170
 20
128.964300
 30
0.0
 10
89.906467
 20
128.964300
 30
0.0
 10
90.203765
 20
128.964300
 30
0.0
 10
90.203765
 20
129.112948
 30
0.0
 10
90.203765
 20
129.261597
 30
0.0
 10
90.352413
 20
129.261597
 30
0.0
 10
90.501062
 20
129.261597
 30
0.0
 10
90.501062
 20
129.112948
 30
0.0
 10
90.501062
 20
128.964300
 30
0.0
 10
90.649711
 20
128.964300
 30
0.0
 10
90.798359
 20
128.964300
 30
0.0
 10
90.798359
 20
129.112948
 30
0.0
 10
90.798359
 20
129.261597
 30
0.0
 10
90.947008
 20
129.261597
 30
0.0
 10
91.095656
 20
129.261597
 30
0.0
 10
91.095656
 20
129.112948
 30
0.0
 10
91.095656
 20
128.964300
 30
0.0
 10
90.947008
 20
128.964300
 30
0.0
 10
90.798359
 20
128.964300
 30
0.0
 10
90.798359
 20
128.815651
 30
0.0
 10
90.798359
 20
128.667002
 30
0.0
 10
91.244305
 20
128.667002
 30
0.0
 10
91.690251
 20
128.667002
 30
0.0
 10
91.690251
 20
128.815651
 30
0.0
 10
91.690251
 20
128.964300
 30
0.0
 10
91.541602
 20
128.964300
 30
0.0
 10
91.392954
 20
128.964300
 30
0.0
 10
91.392954
 20
129.112948
 30
0.0
 10
91.392954
 20
129.261597
 30
0.0
 10
91.541602
 20
129.261597
 30
0.0
 10
91.690251
 20
129.261597
 30
0.0
 10
91.690251
 20
129.410246
 30
0.0
 10
91.690251
 20
129.558894
 30
0.0
 10
91.838900
 20
129.558894
 30
0.0
 10
91.987548
 20
129.558894
 30
0.0
 10
91.987548
 20
129.856192
 30
0.0
 10
91.987548
 20
130.153489
 30
0.0
 10
91.541602
 20
130.153489
 30
0.0
 10
91.095656
 20
130.153489
 30
0.0
 10
91.095656
 20
130.004840
 30
0.0
 10
91.095656
 20
129.856192
 30
0.0
 10
91.244305
 20
129.856192
 30
0.0
 10
91.392954
 20
129.856192
 30
0.0
 10
91.392954
 20
129.707543
 30
0.0
 10
91.392954
 20
129.558894
 30
0.0
 10
91.095656
 20
129.558894
 30
0.0
 10
90.798359
 20
129.558894
 30
0.0
 10
90.798359
 20
129.856192
 30
0.0
 10
90.798359
 20
130.153489
 30
0.0
 10
90.649711
 20
130.153489
 30
0.0
 10
90.501062
 20
130.153489
 30
0.0
 10
90.501062
 20
130.450786
 30
0.0
 10
90.501062
 20
130.748084
 30
0.0
 10
90.649711
 20
130.748084
 30
0.0
 10
90.798359
 20
130.748084
 30
0.0
 10
90.798359
 20
130.450786
 30
0.0
 10
90.798359
 20
130.153489
 30
0.0
 10
90.947008
 20
130.153489
 30
0.0
 10
91.095656
 20
130.153489
 30
0.0
 10
91.095656
 20
130.302138
 30
0.0
 10
91.095656
 20
130.450786
 30
0.0
 10
91.541602
 20
130.450786
 30
0.0
 10
91.987548
 20
130.450786
 30
0.0
 10
91.987548
 20
130.599435
 30
0.0
 10
91.987548
 20
130.748084
 30
0.0
 10
92.284846
 20
130.748084
 30
0.0
 10
92.582143
 20
130.748084
 30
0.0
 10
92.582143
 20
130.450786
 30
0.0
 10
92.582143
 20
130.153489
 30
0.0
 10
92.433494
 20
130.153489
 30
0.0
 10
92.284846
 20
130.153489
 30
0.0
 10
92.284846
 20
129.707543
 30
0.0
 10
92.284846
 20
129.261597
 30
0.0
 10
92.136197
 20
129.261597
 30
0.0
 10
91.987548
 20
129.261597
 30
0.0
 10
91.987548
 20
128.815651
 30
0.0
 10
91.987548
 20
128.369705
 30
0.0
 10
92.284846
 20
128.369705
 30
0.0
 10
92.582143
 20
128.369705
 30
0.0
 10
92.582143
 20
128.221057
 30
0.0
 10
92.582143
 20
128.072408
 30
0.0
 10
92.433494
 20
128.072408
 30
0.0
 10
92.284846
 20
128.072408
 30
0.0
 10
92.284846
 20
127.923759
 30
0.0
 10
92.284846
 20
127.775111
 30
0.0
 10
92.433494
 20
127.775111
 30
0.0
 10
92.582143
 20
127.775111
 30
0.0
 10
92.582143
 20
127.477813
 30
0.0
 10
92.582143
 20
127.180516
 30
0.0
 10
92.433494
 20
127.180516
 30
0.0
 10
92.284846
 20
127.180516
 30
0.0
 10
92.284846
 20
127.031867
 30
0.0
 10
92.284846
 20
126.883219
 30
0.0
 10
92.433494
 20
126.883219
 30
0.0
 10
92.582143
 20
126.883219
 30
0.0
 10
92.582143
 20
126.734570
 30
0.0
 10
92.582143
 20
126.585921
 30
0.0
 10
92.433494
 20
126.585921
 30
0.0
 10
92.284846
 20
126.585921
 30
0.0
 10
92.284846
 20
126.288624
 30
0.0
 10
92.284846
 20
125.991327
 30
0.0
 10
92.136197
 20
125.991327
 30
0.0
 10
91.987548
 20
125.991327
 30
0.0
 10
91.987548
 20
126.288624
 30
0.0
 10
91.987548
 20
126.585921
 30
0.0
 10
92.136197
 20
126.585921
 30
0.0
 10
92.284846
 20
126.585921
 30
0.0
 10
92.284846
 20
126.734570
 30
0.0
 10
92.284846
 20
126.883219
 30
0.0
 10
92.136197
 20
126.883219
 30
0.0
 10
91.987548
 20
126.883219
 30
0.0
 10
91.987548
 20
126.734570
 30
0.0
 10
91.987548
 20
126.585921
 30
0.0
 10
91.838900
 20
126.585921
 30
0.0
 10
91.690251
 20
126.585921
 30
0.0
 10
91.690251
 20
126.734570
 30
0.0
 10
91.690251
 20
126.883219
 30
0.0
 10
91.392954
 20
126.883219
 30
0.0
 10
91.095656
 20
126.883219
 30
0.0
 10
91.095656
 20
127.031867
 30
0.0
 10
91.095656
 20
127.180516
 30
0.0
 10
90.501062
 20
127.180516
 30
0.0
 10
89.906467
 20
127.180516
 30
0.0
 10
89.906467
 20
126.883219
 30
0.0
 10
89.906467
 20
126.585921
 30
0.0
 10
90.055116
 20
126.585921
 30
0.0
 10
90.203765
 20
126.585921
 30
0.0
 10
90.203765
 20
126.288624
 30
0.0
 10
90.203765
 20
125.991327
 30
0.0
 10
89.163224
 20
125.991327
 30
0.0
 10
88.122684
 20
125.991327
 30
0.0
 10
88.122684
 20
126.139975
 30
0.0
 10
88.122684
 20
126.288624
 30
0.0
 10
87.974035
 20
126.288624
 30
0.0
 10
87.825386
 20
126.288624
 30
0.0
 10
87.825386
 20
126.139975
 30
0.0
 10
87.825386
 20
125.991327
 30
0.0
 10
87.379440
 20
125.991327
 30
0.0
 10
86.933494
 20
125.991327
 30
0.0
 10
86.933494
 20
126.139975
 30
0.0
 10
86.933494
 20
126.288624
 30
0.0
 10
86.784846
 20
126.288624
 30
0.0
 10
86.636197
 20
126.288624
 30
0.0
 10
86.636197
 20
126.139975
 30
0.0
 10
86.636197
 20
125.991327
 30
0.0
 10
86.487548
 20
125.991327
 30
0.0
 10
86.487548
 20
125.991327
 30
0.0
  0
LWPOLYLINE
  5
124
100
AcDbEntity
  8
Vrstva_1
 62
7
100
AcDbPolyline
 90
122
 70
0
 10
87.082143
 20
126.288624
 30
0.0
 10
87.230792
 20
126.288624
 30
0.0
 10
87.230792
 20
126.437273
 30
0.0
 10
87.230792
 20
126.585921
 30
0.0
 10
87.379440
 20
126.585921
 30
0.0
 10
87.528089
 20
126.585921
 30
0.0
 10
87.528089
 20
126.734570
 30
0.0
 10
87.528089
 20
126.883219
 30
0.0
 10
87.230792
 20
126.883219
 30
0.0
 10
86.933494
 20
126.883219
 30
0.0
 10
86.933494
 20
127.031867
 30
0.0
 10
86.933494
 20
127.180516
 30
0.0
 10
87.379440
 20
127.180516
 30
0.0
 10
87.825386
 20
127.180516
 30
0.0
 10
87.825386
 20
126.883219
 30
0.0
 10
87.825386
 20
126.585921
 30
0.0
 10
88.122684
 20
126.585921
 30
0.0
 10
88.419981
 20
126.585921
 30
0.0
 10
88.419981
 20
126.437273
 30
0.0
 10
88.419981
 20
126.288624
 30
0.0
 10
88.568629
 20
126.288624
 30
0.0
 10
88.717278
 20
126.288624
 30
0.0
 10
88.717278
 20
126.437273
 30
0.0
 10
88.717278
 20
126.585921
 30
0.0
 10
88.865927
 20
126.585921
 30
0.0
 10
89.014575
 20
126.585921
 30
0.0
 10
89.014575
 20
126.437273
 30
0.0
 10
89.014575
 20
126.288624
 30
0.0
 10
89.163224
 20
126.288624
 30
0.0
 10
89.311873
 20
126.288624
 30
0.0
 10
89.311873
 20
126.437273
 30
0.0
 10
89.311873
 20
126.585921
 30
0.0
 10
89.460521
 20
126.585921
 30
0.0
 10
89.609170
 20
126.585921
 30
0.0
 10
89.609170
 20
126.437273
 30
0.0
 10
89.609170
 20
126.288624
 30
0.0
 10
89.757819
 20
126.288624
 30
0.0
 10
89.906467
 20
126.288624
 30
0.0
 10
89.906467
 20
126.437273
 30
0.0
 10
89.906467
 20
126.585921
 30
0.0
 10
89.757819
 20
126.585921
 30
0.0
 10
89.609170
 20
126.585921
 30
0.0
 10
89.609170
 20
126.883219
 30
0.0
 10
89.609170
 20
127.180516
 30
0.0
 10
89.757819
 20
127.180516
 30
0.0
 10
89.906467
 20
127.180516
 30
0.0
 10
89.906467
 20
127.477813
 30
0.0
 10
89.906467
 20
127.775111
 30
0.0
 10
89.757819
 20
127.775111
 30
0.0
 10
89.609170
 20
127.775111
 30
0.0
 10
89.609170
 20
127.923759
 30
0.0
 10
89.609170
 20
128.072408
 30
0.0
 10
89.311873
 20
128.072408
 30
0.0
 10
89.014575
 20
128.072408
 30
0.0
 10
89.014575
 20
128.221057
 30
0.0
 10
89.014575
 20
128.369705
 30
0.0
 10
88.865927
 20
128.369705
 30
0.0
 10
88.717278
 20
128.369705
 30
0.0
 10
88.717278
 20
128.815651
 30
0.0
 10
88.717278
 20
129.261597
 30
0.0
 10
88.865927
 20
129.261597
 30
0.0
 10
89.014575
 20
129.261597
 30
0.0
 10
89.014575
 20
129.410246
 30
0.0
 10
89.014575
 20
129.558894
 30
0.0
 10
88.865927
 20
129.558894
 30
0.0
 10
88.717278
 20
129.558894
 30
0.0
 10
88.717278
 20
129.707543
 30
0.0
 10
88.717278
 20
129.856192
 30
0.0
 10
88.568629
 20
129.856192
 30
0.0
 10
88.419981
 20
129.856192
 30
0.0
 10
88.419981
 20
129.112948
 30
0.0
 10
88.419981
 20
128.369705
 30
0.0
 10
88.122684
 20
128.369705
 30
0.0
 10
87.825386
 20
128.369705
 30
0.0
 10
87.825386
 20
128.072408
 30
0.0
 10
87.825386
 20
127.775111
 30
0.0
 10
87.676738
 20
127.775111
 30
0.0
 10
87.528089
 20
127.775111
 30
0.0
 10
87.528089
 20
127.626462
 30
0.0
 10
87.528089
 20
127.477813
 30
0.0
 10
87.379440
 20
127.477813
 30
0.0
 10
87.230792
 20
127.477813
 30
0.0
 10
87.230792
 20
127.775111
 30
0.0
 10
87.230792
 20
128.072408
 30
0.0
 10
87.379440
 20
128.072408
 30
0.0
 10
87.528089
 20
128.072408
 30
0.0
 10
87.528089
 20
128.221057
 30
0.0
 10
87.528089
 20
128.369705
 30
0.0
 10
87.379440
 20
128.369705
 30
0.0
 10
87.230792
 20
128.369705
 30
0.0
 10
87.230792
 20
128.221057
 30
0.0
 10
87.230792
 20
128.072408
 30
0.0
 10
87.082143
 20
128.072408
 30
0.0
 10
86.933494
 20
128.072408
 30
0.0
 10
86.933494
 20
128.221057
 30
0.0
 10
86.933494
 20
128.369705
 30
0.0
 10
86.784846
 20
128.369705
 30
0.0
 10
86.636197
 20
128.369705
 30
0.0
 10
86.636197
 20
128.221057
 30
0.0
 10
86.636197
 20
128.072408
 30
0.0
 10
86.784846
 20
128.072408
 30
0.0
 10
86.933494
 20
128.072408
 30
0.0
 10
86.933494
 20
127.923759
 30
0.0
 10
86.933494
 20
127.775111
 30
0.0
 10
86.784846
 20
127.775111
 30
0.0
 10
86.636197
 20
127.775111
 30
0.0
 10
86.636197
 20
127.626462
 30
0.0
 10
86.636197
 20
127.477813
 30
0.0
 10
86.784846
 20
127.477813
 30
0.0
 10
86.933494
 20
127.477813
 30
0.0
 10
86.933494
 20
127.329165
 30
0.0
 10
86.933494
 20
127.180516
 30
0.0
 10
86.784846
 20
127.180516
 30
0.0
 10
86.636197
 20
127.180516
 30
0.0
 10
86.636197
 20
127.031867
 30
0.0
 10
86.636197
 20
126.883219
 30
0.0
 10
86.784846
 20
126.883219
 30
0.0
 10
86.933494
 20
126.883219
 30
0.0
 10
86.933494
 20
126.585921
 30
0.0
 10
86.933494
 20
126.288624
 30
0.0
 10
87.082143
 20
126.288624
 30
0.0
 10
87.082143
 20
126.288624
 30
0.0
  0
LWPOLYLINE
  5
125
100
AcDbEntity
  8
Vrstva_1
 62
7
100
AcDbPolyline
 90
10
 70
0
 10
88.568629
 20
126.585921
 30
0.0
 10
88.419981
 20
126.585921
 30
0.0
 10
88.419981
 20
126.883219
 30
0.0
 10
88.419981
 20
127.180516
 30
0.0
 10
88.568629
 20
127.180516
 30
0.0
 10
88.717278
 20
127.180516
 30
0.0
 10
88.717278
 20
126.883219
 30
0.0
 10
88.717278
 20
126.585921
 30
0.0
 10
88.568629
 20
126.585921
 30
0.0
 10
88.568629
 20
126.585921
 30
0.0
  0
LWPOLYLINE
  5
126
100
AcDbEntity
  8
Vrstva_1
 62
7
100
AcDbPolyline
 90
18
 70
0
 10
89.163224
 20
126.883219
 30
0.0
 10
89.014575
 20
126.883219
 30
0.0
 10
89.014575
 20
127.180516
 30
0.0
 10
89.014575
 20
127.477813
 30
0.0
 10
89.163224
 20
127.477813
 30
0.0
 10
89.311873
 20
127.477813
 30
0.0
 10
89.311873
 20
127.626462
 30
0.0
 10
89.311873
 20
127.775111
 30
0.0
 10
89.460521
 20
127.775111
 30
0.0
 10
89.609170
 20
127.775111
 30
0.0
 10
89.609170
 20
127.477813
 30
0.0
 10
89.609170
 20
127.180516
 30
0.0
 10
89.460521
 20
127.180516
 30
0.0
 10
89.311873
 20
127.180516
 30
0.0
 10
89.311873
 20
127.031867
 30
0.0
 10
89.311873
 20
126.883219
 30
0.0
 10
89.163224
 20
126.883219
 30
0.0
 10
89.163224
 20
126.883219
 30
0.0
  0
LWPOLYLINE
  5
127
100
AcDbEntity
  8
Vrstva_1
 62
7
100
AcDbPolyline
 90
18
 70
0
 10
88.122684
 20
127.477813
 30
0.0
 10
87.825386
 20
127.477813
 30
0.0
 10
87.825386
 20
127.626462
 30
0.0
 10
87.825386
 20
127.775111
 30
0.0
 10
87.974035
 20
127.775111
 30
0.0
 10
88.122684
 20
127.775111
 30
0.0
 10
88.122684
 20
127.923759
 30
0.0
 10
88.122684
 20
128.072408
 30
0.0
 10
88.419981
 20
128.072408
 30
0.0
 10
88.717278
 20
128.072408
 30
0.0
 10
88.717278
 20
127.923759
 30
0.0
 10
88.717278
 20
127.775111
 30
0.0
 10
88.568629
 20
127.775111
 30
0.0
 10
88.419981
 20
127.775111
 30
0.0
 10
88.419981
 20
127.626462
 30
0.0
 10
88.419981
 20
127.477813
 30
0.0
 10
88.122684
 20
127.477813
 30
0.0
 10
88.122684
 20
127.477813
 30
0.0
  0
LWPOLYLINE
  5
128
100
AcDbEntity
  8
Vrstva_1
 62
7
100
AcDbPolyline
 90
22
 70
0
 10
92.136197
 20
127.180516
 30
0.0
 10
92.284846
 20
127.180516
 30
0.0
 10
92.284846
 20
127.477813
 30
0.0
 10
92.284846
 20
127.775111
 30
0.0
 10
92.136197
 20
127.775111
 30
0.0
 10
91.987548
 20
127.775111
 30
0.0
 10
91.987548
 20
127.923759
 30
0.0
 10
91.987548
 20
128.072408
 30
0.0
 10
91.838900
 20
128.072408
 30
0.0
 10
91.690251
 20
128.072408
 30
0.0
 10
91.690251
 20
127.923759
 30
0.0
 10
91.690251
 20
127.775111
 30
0.0
 10
91.541602
 20
127.775111
 30
0.0
 10
91.392954
 20
127.775111
 30
0.0
 10
91.392954
 20
127.626462
 30
0.0
 10
91.392954
 20
127.477813
 30
0.0
 10
91.690251
 20
127.477813
 30
0.0
 10
91.987548
 20
127.477813
 30
0.0
 10
91.987548
 20
127.329165
 30
0.0
 10
91.987548
 20
127.180516
 30
0.0
 10
92.136197
 20
127.180516
 30
0.0
 10
92.136197
 20
127.180516
 30
0.0
  0
LWPOLYLINE
  5
129
100
AcDbEntity
  8
Vrstva_1
 62
7
100
AcDbPolyline
 90
10
 70
0
 10
90.649711
 20
127.477813
 30
0.0
 10
91.095656
 20
127.477813
 30
0.0
 10
91.095656
 20
127.923759
 30
0.0
 10
91.095656
 20
128.369705
 30
0.0
 10
90.649711
 20
128.369705
 30
0.0
 10
90.203765
 20
128.369705
 30
0.0
 10
90.203765
 20
127.923759
 30
0.0
 10
90.203765
 20
127.477813
 30
0.0
 10
90.649711
 20
127.477813
 30
0.0
 10
90.649711
 20
127.477813
 30
0.0
  0
LWPOLYLINE
  5
12a
100
AcDbEntity
  8
Vrstva_1
 62
7
100
AcDbPolyline
 90
10
 70
0
 10
90.649711
 20
127.775111
 30
0.0
 10
90.501062
 20
127.775111
 30
0.0
 10
90.501062
 20
127.923759
 30
0.0
 10
90.501062
 20
128.072408
 30
0.0
 10
90.649711
 20
128.072408
 30
0.0
 10
90.798359
 20
128.072408
 30
0.0
 10
90.798359
 20
127.923759
 30
0.0
 10
90.798359
 20
127.775111
 30
0.0
 10
90.649711
 20
127.775111
 30
0.0
 10
90.649711
 20
127.775111
 30
0.0
  0
LWPOLYLINE
  5
12b
100
AcDbEntity
  8
Vrstva_1
 62
7
100
AcDbPolyline
 90
10
 70
0
 10
86.487548
 20
128.667002
 30
0.0
 10
86.636197
 20
128.667002
 30
0.0
 10
86.636197
 20
128.815651
 30
0.0
 10
86.636197
 20
128.964300
 30
0.0
 10
86.487548
 20
128.964300
 30
0.0
 10
86.338900
 20
128.964300
 30
0.0
 10
86.338900
 20
128.815651
 30
0.0
 10
86.338900
 20
128.667002
 30
0.0
 10
86.487548
 20
128.667002
 30
0.0
 10
86.487548
 20
128.667002
 30
0.0
  0
LWPOLYLINE
  5
12c
100
AcDbEntity
  8
Vrstva_1
 62
7
100
AcDbPolyline
 90
10
 70
0
 10
90.352413
 20
128.667002
 30
0.0
 10
90.501062
 20
128.667002
 30
0.0
 10
90.501062
 20
128.815651
 30
0.0
 10
90.501062
 20
128.964300
 30
0.0
 10
90.352413
 20
128.964300
 30
0.0
 10
90.203765
 20
128.964300
 30
0.0
 10
90.203765
 20
128.815651
 30
0.0
 10
90.203765
 20
128.667002
 30
0.0
 10
90.352413
 20
128.667002
 30
0.0
 10
90.352413
 20
128.667002
 30
0.0
  0
LWPOLYLINE
  5
12d
100
AcDbEntity
  8
Vrstva_1
 62
7
100
AcDbPolyline
 90
18
 70
0
 10
90.649711
 20
125.991327
 30
0.0
 10
90.501062
 20
125.991327
 30
0.0
 10
90.501062
 20
126.288624
 30
0.0
 10
90.501062
 20
126.585921
 30
0.0
 10
90.649711
 20
126.585921
 30
0.0
 10
90.798359
 20
126.585921
 30
0.0
 10
90.798359
 20
126.734570
 30
0.0
 10
90.798359
 20
126.883219
 30
0.0
 10
90.947008
 20
126.883219
 30
0.0
 10
91.095656
 20
126.883219
 30
0.0
 10
91.095656
 20
126.585921
 30
0.0
 10
91.095656
 20
126.288624
 30
0.0
 10
90.947008
 20
126.288624
 30
0.0
 10
90.798359
 20
126.288624
 30
0.0
 10
90.798359
 20
126.139975
 30
0.0
 10
90.798359
 20
125.991327
 30
0.0
 10
90.649711
 20
125.991327
 30
0.0
 10
90.649711
 20
125.991327
 30
0.0
  0
LWPOLYLINE
  5
12e
100
AcDbEntity
  8
Vrstva_1
 62
7
100
AcDbPolyline
 90
10
 70
0
 10
91.541602
 20
125.991327
 30
0.0
 10
91.392954
 20
125.991327
 30
0.0
 10
91.392954
 20
126.288624
 30
0.0
 10
91.392954
 20
126.585921
 30
0.0
 10
91.541602
 20
126.585921
 30
0.0
 10
91.690251
 20
126.585921
 30
0.0
 10
91.690251
 20
126.288624
 30
0.0
 10
91.690251
 20
125.991327
 30
0.0
 10
91.541602
 20
125.991327
 30
0.0
 10
91.541602
 20
125.991327
 30
0.0
  0
LWPOLYLINE
  5
12f
100
AcDbEntity
  8
Vrstva_1
 62
7
100
AcDbPolyline
 90
10
 70
0
 10
84.109170
 20
128.964300
 30
0.0
 10
83.960521
 20
128.964300
 30
0.0
 10
83.960521
 20
129.112948
 30
0.0
 10
83.960521
 20
129.261597
 30
0.0
 10
84.109170
 20
129.261597
 30
0.0
 10
84.257819
 20
129.261597
 30
0.0
 10
84.257819
 20
129.112948
 30
0.0
 10
84.257819
 20
128.964300
 30
0.0
 10
84.109170
 20
128.964300
 30
0.0
 10
84.109170
 20
128.964300
 30
0.0
  0
LWPOLYLINE
  5
130
100
AcDbEntity
  8
Vrstva_1
 62
7
100
AcDbPolyline
 90
74
 70
0
 10
85.149711
 20
129.261597
 30
0.0
 10
84.852413
 20
129.261597
 30
0.0
 10
84.852413
 20
129.410246
 30
0.0
 10
84.852413
 20
129.558894
 30
0.0
 10
84.703765
 20
129.558894
 30
0.0
 10
84.555116
 20
129.558894
 30
0.0
 10
84.555116
 20
129.707543
 30
0.0
 10
84.555116
 20
129.856192
 30
0.0
 10
84.406467
 20
129.856192
 30
0.0
 10
84.257819
 20
129.856192
 30
0.0
 10
84.257819
 20
129.707543
 30
0.0
 10
84.257819
 20
129.558894
 30
0.0
 10
84.109170
 20
129.558894
 30
0.0
 10
83.960521
 20
129.558894
 30
0.0
 10
83.960521
 20
129.856192
 30
0.0
 10
83.960521
 20
130.153489
 30
0.0
 10
84.257819
 20
130.153489
 30
0.0
 10
84.555116
 20
130.153489
 30
0.0
 10
84.555116
 20
130.302138
 30
0.0
 10
84.555116
 20
130.450786
 30
0.0
 10
84.257819
 20
130.450786
 30
0.0
 10
83.960521
 20
130.450786
 30
0.0
 10
83.960521
 20
130.748084
 30
0.0
 10
83.960521
 20
131.045381
 30
0.0
 10
84.109170
 20
131.045381
 30
0.0
 10
84.257819
 20
131.045381
 30
0.0
 10
84.257819
 20
130.896732
 30
0.0
 10
84.257819
 20
130.748084
 30
0.0
 10
84.406467
 20
130.748084
 30
0.0
 10
84.555116
 20
130.748084
 30
0.0
 10
84.555116
 20
130.896732
 30
0.0
 10
84.555116
 20
131.045381
 30
0.0
 10
84.406467
 20
131.045381
 30
0.0
 10
84.257819
 20
131.045381
 30
0.0
 10
84.257819
 20
131.342678
 30
0.0
 10
84.257819
 20
131.639975
 30
0.0
 10
84.109170
 20
131.639975
 30
0.0
 10
83.960521
 20
131.639975
 30
0.0
 10
83.960521
 20
131.937273
 30
0.0
 10
83.960521
 20
132.234570
 30
0.0
 10
84.109170
 20
132.234570
 30
0.0
 10
84.257819
 20
132.234570
 30
0.0
 10
84.257819
 20
132.085921
 30
0.0
 10
84.257819
 20
131.937273
 30
0.0
 10
84.406467
 20
131.937273
 30
0.0
 10
84.555116
 20
131.937273
 30
0.0
 10
84.555116
 20
131.788624
 30
0.0
 10
84.555116
 20
131.639975
 30
0.0
 10
84.852413
 20
131.639975
 30
0.0
 10
85.149711
 20
131.639975
 30
0.0
 10
85.149711
 20
131.491327
 30
0.0
 10
85.149711
 20
131.342678
 30
0.0
 10
85.001062
 20
131.342678
 30
0.0
 10
84.852413
 20
131.342678
 30
0.0
 10
84.852413
 20
131.045381
 30
0.0
 10
84.852413
 20
130.748084
 30
0.0
 10
85.001062
 20
130.748084
 30
0.0
 10
85.149711
 20
130.748084
 30
0.0
 10
85.149711
 20
130.599435
 30
0.0
 10
85.149711
 20
130.450786
 30
0.0
 10
85.001062
 20
130.450786
 30
0.0
 10
84.852413
 20
130.450786
 30
0.0
 10
84.852413
 20
130.302138
 30
0.0
 10
84.852413
 20
130.153489
 30
0.0
 10
85.001062
 20
130.153489
 30
0.0
 10
85.149711
 20
130.153489
 30
0.0
 10
85.149711
 20
130.004840
 30
0.0
 10
85.149711
 20
129.856192
 30
0.0
 10
85.298359
 20
129.856192
 30
0.0
 10
85.447008
 20
129.856192
 30
0.0
 10
85.447008
 20
129.558894
 30
0.0
 10
85.447008
 20
129.261597
 30
0.0
 10
85.149711
 20
129.261597
 30
0.0
 10
85.149711
 20
129.261597
 30
0.0
  0
LWPOLYLINE
  5
131
100
AcDbEntity
  8
Vrstva_1
 62
7
100
AcDbPolyline
 90
18
 70
0
 10
85.595656
 20
129.856192
 30
0.0
 10
85.447008
 20
129.856192
 30
0.0
 10
85.447008
 20
130.004840
 30
0.0
 10
85.447008
 20
130.153489
 30
0.0
 10
85.298359
 20
130.153489
 30
0.0
 10
85.149711
 20
130.153489
 30
0.0
 10
85.149711
 20
130.302138
 30
0.0
 10
85.149711
 20
130.450786
 30
0.0
 10
85.744305
 20
130.450786
 30
0.0
 10
86.338900
 20
130.450786
 30
0.0
 10
86.338900
 20
130.302138
 30
0.0
 10
86.338900
 20
130.153489
 30
0.0
 10
86.041602
 20
130.153489
 30
0.0
 10
85.744305
 20
130.153489
 30
0.0
 10
85.744305
 20
130.004840
 30
0.0
 10
85.744305
 20
129.856192
 30
0.0
 10
85.595656
 20
129.856192
 30
0.0
 10
85.595656
 20
129.856192
 30
0.0
  0
LWPOLYLINE
  5
132
100
AcDbEntity
  8
Vrstva_1
 62
7
100
AcDbPolyline
 90
10
 70
0
 10
88.271332
 20
130.450786
 30
0.0
 10
88.122684
 20
130.450786
 30
0.0
 10
88.122684
 20
130.748084
 30
0.0
 10
88.122684
 20
131.045381
 30
0.0
 10
88.271332
 20
131.045381
 30
0.0
 10
88.419981
 20
131.045381
 30
0.0
 10
88.419981
 20
130.748084
 30
0.0
 10
88.419981
 20
130.450786
 30
0.0
 10
88.271332
 20
130.450786
 30
0.0
 10
88.271332
 20
130.450786
 30
0.0
  0
LWPOLYLINE
  5
133
100
AcDbEntity
  8
Vrstva_1
 62
7
100
AcDbPolyline
 90
274
 70
0
 10
85.744305
 20
130.748084
 30
0.0
 10
85.149711
 20
130.748084
 30
0.0
 10
85.149711
 20
131.045381
 30
0.0
 10
85.149711
 20
131.342678
 30
0.0
 10
85.298359
 20
131.342678
 30
0.0
 10
85.447008
 20
131.342678
 30
0.0
 10
85.447008
 20
131.491327
 30
0.0
 10
85.447008
 20
131.639975
 30
0.0
 10
85.298359
 20
131.639975
 30
0.0
 10
85.149711
 20
131.639975
 30
0.0
 10
85.149711
 20
131.788624
 30
0.0
 10
85.149711
 20
131.937273
 30
0.0
 10
84.852413
 20
131.937273
 30
0.0
 10
84.555116
 20
131.937273
 30
0.0
 10
84.555116
 20
132.085921
 30
0.0
 10
84.555116
 20
132.234570
 30
0.0
 10
84.852413
 20
132.234570
 30
0.0
 10
85.149711
 20
132.234570
 30
0.0
 10
85.149711
 20
132.085921
 30
0.0
 10
85.149711
 20
131.937273
 30
0.0
 10
85.298359
 20
131.937273
 30
0.0
 10
85.447008
 20
131.937273
 30
0.0
 10
85.447008
 20
132.085921
 30
0.0
 10
85.447008
 20
132.234570
 30
0.0
 10
85.892954
 20
132.234570
 30
0.0
 10
86.338900
 20
132.234570
 30
0.0
 10
86.338900
 20
132.531867
 30
0.0
 10
86.338900
 20
132.829165
 30
0.0
 10
86.487548
 20
132.829165
 30
0.0
 10
86.636197
 20
132.829165
 30
0.0
 10
86.636197
 20
133.126462
 30
0.0
 10
86.636197
 20
133.423759
 30
0.0
 10
86.487548
 20
133.423759
 30
0.0
 10
86.338900
 20
133.423759
 30
0.0
 10
86.338900
 20
133.572408
 30
0.0
 10
86.338900
 20
133.721057
 30
0.0
 10
86.487548
 20
133.721057
 30
0.0
 10
86.636197
 20
133.721057
 30
0.0
 10
86.636197
 20
133.869705
 30
0.0
 10
86.636197
 20
134.018354
 30
0.0
 10
86.487548
 20
134.018354
 30
0.0
 10
86.338900
 20
134.018354
 30
0.0
 10
86.338900
 20
134.315651
 30
0.0
 10
86.338900
 20
134.612948
 30
0.0
 10
86.636197
 20
134.612948
 30
0.0
 10
86.933494
 20
134.612948
 30
0.0
 10
86.933494
 20
134.464300
 30
0.0
 10
86.933494
 20
134.315651
 30
0.0
 10
86.784846
 20
134.315651
 30
0.0
 10
86.636197
 20
134.315651
 30
0.0
 10
86.636197
 20
134.167002
 30
0.0
 10
86.636197
 20
134.018354
 30
0.0
 10
86.933494
 20
134.018354
 30
0.0
 10
87.230792
 20
134.018354
 30
0.0
 10
87.230792
 20
134.167002
 30
0.0
 10
87.230792
 20
134.315651
 30
0.0
 10
87.379440
 20
134.315651
 30
0.0
 10
87.528089
 20
134.315651
 30
0.0
 10
87.528089
 20
134.464300
 30
0.0
 10
87.528089
 20
134.612948
 30
0.0
 10
87.676738
 20
134.612948
 30
0.0
 10
87.825386
 20
134.612948
 30
0.0
 10
87.825386
 20
134.464300
 30
0.0
 10
87.825386
 20
134.315651
 30
0.0
 10
87.974035
 20
134.315651
 30
0.0
 10
88.122684
 20
134.315651
 30
0.0
 10
88.122684
 20
134.464300
 30
0.0
 10
88.122684
 20
134.612948
 30
0.0
 10
88.419981
 20
134.612948
 30
0.0
 10
88.717278
 20
134.612948
 30
0.0
 10
88.717278
 20
134.464300
 30
0.0
 10
88.717278
 20
134.315651
 30
0.0
 10
88.568629
 20
134.315651
 30
0.0
 10
88.419981
 20
134.315651
 30
0.0
 10
88.419981
 20
134.167002
 30
0.0
 10
88.419981
 20
134.018354
 30
0.0
 10
88.122684
 20
134.018354
 30
0.0
 10
87.825386
 20
134.018354
 30
0.0
 10
87.825386
 20
133.869705
 30
0.0
 10
87.825386
 20
133.721057
 30
0.0
 10
87.676738
 20
133.721057
 30
0.0
 10
87.528089
 20
133.721057
 30
0.0
 10
87.528089
 20
133.869705
 30
0.0
 10
87.528089
 20
134.018354
 30
0.0
 10
87.379440
 20
134.018354
 30
0.0
 10
87.230792
 20
134.018354
 30
0.0
 10
87.230792
 20
133.869705
 30
0.0
 10
87.230792
 20
133.721057
 30
0.0
 10
86.933494
 20
133.721057
 30
0.0
 10
86.636197
 20
133.721057
 30
0.0
 10
86.636197
 20
133.572408
 30
0.0
 10
86.636197
 20
133.423759
 30
0.0
 10
87.230792
 20
133.423759
 30
0.0
 10
87.825386
 20
133.423759
 30
0.0
 10
87.825386
 20
133.275111
 30
0.0
 10
87.825386
 20
133.126462
 30
0.0
 10
87.974035
 20
133.126462
 30
0.0
 10
88.122684
 20
133.126462
 30
0.0
 10
88.122684
 20
133.275111
 30
0.0
 10
88.122684
 20
133.423759
 30
0.0
 10
88.271332
 20
133.423759
 30
0.0
 10
88.419981
 20
133.423759
 30
0.0
 10
88.419981
 20
133.572408
 30
0.0
 10
88.419981
 20
133.721057
 30
0.0
 10
88.568629
 20
133.721057
 30
0.0
 10
88.717278
 20
133.721057
 30
0.0
 10
88.717278
 20
133.869705
 30
0.0
 10
88.717278
 20
134.018354
 30
0.0
 10
88.865927
 20
134.018354
 30
0.0
 10
89.014575
 20
134.018354
 30
0.0
 10
89.014575
 20
133.869705
 30
0.0
 10
89.014575
 20
133.721057
 30
0.0
 10
89.163224
 20
133.721057
 30
0.0
 10
89.311873
 20
133.721057
 30
0.0
 10
89.311873
 20
133.869705
 30
0.0
 10
89.311873
 20
134.018354
 30
0.0
 10
89.163224
 20
134.018354
 30
0.0
 10
89.014575
 20
134.018354
 30
0.0
 10
89.014575
 20
134.315651
 30
0.0
 10
89.014575
 20
134.612948
 30
0.0
 10
89.609170
 20
134.612948
 30
0.0
 10
90.203765
 20
134.612948
 30
0.0
 10
90.203765
 20
134.315651
 30
0.0
 10
90.203765
 20
134.018354
 30
0.0
 10
90.055116
 20
134.018354
 30
0.0
 10
89.906467
 20
134.018354
 30
0.0
 10
89.906467
 20
134.167002
 30
0.0
 10
89.906467
 20
134.315651
 30
0.0
 10
89.757819
 20
134.315651
 30
0.0
 10
89.609170
 20
134.315651
 30
0.0
 10
89.609170
 20
134.018354
 30
0.0
 10
89.609170
 20
133.721057
 30
0.0
 10
89.460521
 20
133.721057
 30
0.0
 10
89.311873
 20
133.721057
 30
0.0
 10
89.311873
 20
133.423759
 30
0.0
 10
89.311873
 20
133.126462
 30
0.0
 10
89.163224
 20
133.126462
 30
0.0
 10
89.014575
 20
133.126462
 30
0.0
 10
89.014575
 20
132.829165
 30
0.0
 10
89.014575
 20
132.531867
 30
0.0
 10
89.163224
 20
132.531867
 30
0.0
 10
89.311873
 20
132.531867
 30
0.0
 10
89.311873
 20
132.680516
 30
0.0
 10
89.311873
 20
132.829165
 30
0.0
 10
89.460521
 20
132.829165
 30
0.0
 10
89.609170
 20
132.829165
 30
0.0
 10
89.609170
 20
133.126462
 30
0.0
 10
89.609170
 20
133.423759
 30
0.0
 10
89.757819
 20
133.423759
 30
0.0
 10
89.906467
 20
133.423759
 30
0.0
 10
89.906467
 20
133.572408
 30
0.0
 10
89.906467
 20
133.721057
 30
0.0
 10
90.055116
 20
133.721057
 30
0.0
 10
90.203765
 20
133.721057
 30
0.0
 10
90.203765
 20
133.572408
 30
0.0
 10
90.203765
 20
133.423759
 30
0.0
 10
90.055116
 20
133.423759
 30
0.0
 10
89.906467
 20
133.423759
 30
0.0
 10
89.906467
 20
133.275111
 30
0.0
 10
89.906467
 20
133.126462
 30
0.0
 10
90.055116
 20
133.126462
 30
0.0
 10
90.203765
 20
133.126462
 30
0.0
 10
90.203765
 20
132.829165
 30
0.0
 10
90.203765
 20
132.531867
 30
0.0
 10
90.055116
 20
132.531867
 30
0.0
 10
89.906467
 20
132.531867
 30
0.0
 10
89.906467
 20
132.680516
 30
0.0
 10
89.906467
 20
132.829165
 30
0.0
 10
89.757819
 20
132.829165
 30
0.0
 10
89.609170
 20
132.829165
 30
0.0
 10
89.609170
 20
132.531867
 30
0.0
 10
89.609170
 20
132.234570
 30
0.0
 10
89.757819
 20
132.234570
 30
0.0
 10
89.906467
 20
132.234570
 30
0.0
 10
89.906467
 20
132.085921
 30
0.0
 10
89.906467
 20
131.937273
 30
0.0
 10
90.203765
 20
131.937273
 30
0.0
 10
90.501062
 20
131.937273
 30
0.0
 10
90.501062
 20
132.085921
 30
0.0
 10
90.501062
 20
132.234570
 30
0.0
 10
90.649711
 20
132.234570
 30
0.0
 10
90.798359
 20
132.234570
 30
0.0
 10
90.798359
 20
132.085921
 30
0.0
 10
90.798359
 20
131.937273
 30
0.0
 10
91.095656
 20
131.937273
 30
0.0
 10
91.392954
 20
131.937273
 30
0.0
 10
91.392954
 20
132.085921
 30
0.0
 10
91.392954
 20
132.234570
 30
0.0
 10
91.541602
 20
132.234570
 30
0.0
 10
91.690251
 20
132.234570
 30
0.0
 10
91.690251
 20
132.085921
 30
0.0
 10
91.690251
 20
131.937273
 30
0.0
 10
91.541602
 20
131.937273
 30
0.0
 10
91.392954
 20
131.937273
 30
0.0
 10
91.392954
 20
131.788624
 30
0.0
 10
91.392954
 20
131.639975
 30
0.0
 10
91.095656
 20
131.639975
 30
0.0
 10
90.798359
 20
131.639975
 30
0.0
 10
90.798359
 20
131.491327
 30
0.0
 10
90.798359
 20
131.342678
 30
0.0
 10
91.244305
 20
131.342678
 30
0.0
 10
91.690251
 20
131.342678
 30
0.0
 10
91.690251
 20
131.491327
 30
0.0
 10
91.690251
 20
131.639975
 30
0.0
 10
91.987548
 20
131.639975
 30
0.0
 10
92.284846
 20
131.639975
 30
0.0
 10
92.284846
 20
131.788624
 30
0.0
 10
92.284846
 20
131.937273
 30
0.0
 10
92.136197
 20
131.937273
 30
0.0
 10
91.987548
 20
131.937273
 30
0.0
 10
91.987548
 20
132.085921
 30
0.0
 10
91.987548
 20
132.234570
 30
0.0
 10
92.284846
 20
132.234570
 30
0.0
 10
92.582143
 20
132.234570
 30
0.0
 10
92.582143
 20
131.937273
 30
0.0
 10
92.582143
 20
131.639975
 30
0.0
 10
92.433494
 20
131.639975
 30
0.0
 10
92.284846
 20
131.639975
 30
0.0
 10
92.284846
 20
131.491327
 30
0.0
 10
92.284846
 20
131.342678
 30
0.0
 10
92.433494
 20
131.342678
 30
0.0
 10
92.582143
 20
131.342678
 30
0.0
 10
92.582143
 20
131.194030
 30
0.0
 10
92.582143
 20
131.045381
 30
0.0
 10
92.433494
 20
131.045381
 30
0.0
 10
92.284846
 20
131.045381
 30
0.0
 10
92.284846
 20
131.194030
 30
0.0
 10
92.284846
 20
131.342678
 30
0.0
 10
91.987548
 20
131.342678
 30
0.0
 10
91.690251
 20
131.342678
 30
0.0
 10
91.690251
 20
131.194030
 30
0.0
 10
91.690251
 20
131.045381
 30
0.0
 10
91.838900
 20
131.045381
 30
0.0
 10
91.987548
 20
131.045381
 30
0.0
 10
91.987548
 20
130.896732
 30
0.0
 10
91.987548
 20
130.748084
 30
0.0
 10
91.690251
 20
130.748084
 30
0.0
 10
91.392954
 20
130.748084
 30
0.0
 10
91.392954
 20
130.896732
 30
0.0
 10
91.392954
 20
131.045381
 30
0.0
 10
90.947008
 20
131.045381
 30
0.0
 10
90.501062
 20
131.045381
 30
0.0
 10
90.501062
 20
131.194030
 30
0.0
 10
90.501062
 20
131.342678
 30
0.0
 10
90.203765
 20
131.342678
 30
0.0
 10
89.906467
 20
131.342678
 30
0.0
 10
89.906467
 20
131.491327
 30
0.0
 10
89.906467
 20
131.639975
 30
0.0
 10
89.757819
 20
131.639975
 30
0.0
 10
89.609170
 20
131.639975
 30
0.0
 10
89.609170
 20
131.491327
 30
0.0
 10
89.609170
 20
131.342678
 30
0.0
 10
89.163224
 20
131.342678
 30
0.0
 10
88.717278
 20
131.342678
 30
0.0
 10
88.717278
 20
131.491327
 30
0.0
 10
88.717278
 20
131.639975
 30
0.0
 10
88.568629
 20
131.639975
 30
0.0
 10
88.419981
 20
131.639975
 30
0.0
 10
88.419981
 20
131.937273
 30
0.0
 10
88.419981
 20
132.234570
 30
0.0
 10
88.271332
 20
132.234570
 30
0.0
 10
88.122684
 20
132.234570
 30
0.0
 10
88.122684
 20
131.788624
 30
0.0
 10
88.122684
 20
131.342678
 30
0.0
 10
87.379440
 20
131.342678
 30
0.0
 10
86.636197
 20
131.342678
 30
0.0
 10
86.636197
 20
131.194030
 30
0.0
 10
86.636197
 20
131.045381
 30
0.0
 10
86.487548
 20
131.045381
 30
0.0
 10
86.338900
 20
131.045381
 30
0.0
 10
86.338900
 20
130.896732
 30
0.0
 10
86.338900
 20
130.748084
 30
0.0
 10
85.744305
 20
130.748084
 30
0.0
 10
85.744305
 20
130.748084
 30
0.0
  0
LWPOLYLINE
  5
134
100
AcDbEntity
  8
Vrstva_1
 62
7
100
AcDbPolyline
 90
10
 70
0
 10
86.041602
 20
131.045381
 30
0.0
 10
86.338900
 20
131.045381
 30
0.0
 10
86.338900
 20
131.194030
 30
0.0
 10
86.338900
 20
131.342678
 30
0.0
 10
86.041602
 20
131.342678
 30
0.0
 10
85.744305
 20
131.342678
 30
0.0
 10
85.744305
 20
131.194030
 30
0.0
 10
85.744305
 20
131.045381
 30
0.0
 10
86.041602
 20
131.045381
 30
0.0
 10
86.041602
 20
131.045381
 30
0.0
  0
LWPOLYLINE
  5
135
100
AcDbEntity
  8
Vrstva_1
 62
7
100
AcDbPolyline
 90
98
 70
0
 10
86.041602
 20
131.639975
 30
0.0
 10
86.338900
 20
131.639975
 30
0.0
 10
86.338900
 20
131.788624
 30
0.0
 10
86.338900
 20
131.937273
 30
0.0
 10
86.636197
 20
131.937273
 30
0.0
 10
86.933494
 20
131.937273
 30
0.0
 10
86.933494
 20
132.085921
 30
0.0
 10
86.933494
 20
132.234570
 30
0.0
 10
87.082143
 20
132.234570
 30
0.0
 10
87.230792
 20
132.234570
 30
0.0
 10
87.230792
 20
132.085921
 30
0.0
 10
87.230792
 20
131.937273
 30
0.0
 10
87.379440
 20
131.937273
 30
0.0
 10
87.528089
 20
131.937273
 30
0.0
 10
87.528089
 20
131.788624
 30
0.0
 10
87.528089
 20
131.639975
 30
0.0
 10
87.676738
 20
131.639975
 30
0.0
 10
87.825386
 20
131.639975
 30
0.0
 10
87.825386
 20
131.937273
 30
0.0
 10
87.825386
 20
132.234570
 30
0.0
 10
87.974035
 20
132.234570
 30
0.0
 10
88.122684
 20
132.234570
 30
0.0
 10
88.122684
 20
132.531867
 30
0.0
 10
88.122684
 20
132.829165
 30
0.0
 10
88.271332
 20
132.829165
 30
0.0
 10
88.419981
 20
132.829165
 30
0.0
 10
88.419981
 20
132.531867
 30
0.0
 10
88.419981
 20
132.234570
 30
0.0
 10
88.568629
 20
132.234570
 30
0.0
 10
88.717278
 20
132.234570
 30
0.0
 10
88.717278
 20
131.937273
 30
0.0
 10
88.717278
 20
131.639975
 30
0.0
 10
88.865927
 20
131.639975
 30
0.0
 10
89.014575
 20
131.639975
 30
0.0
 10
89.014575
 20
131.788624
 30
0.0
 10
89.014575
 20
131.937273
 30
0.0
 10
89.163224
 20
131.937273
 30
0.0
 10
89.311873
 20
131.937273
 30
0.0
 10
89.311873
 20
132.085921
 30
0.0
 10
89.311873
 20
132.234570
 30
0.0
 10
89.163224
 20
132.234570
 30
0.0
 10
89.014575
 20
132.234570
 30
0.0
 10
89.014575
 20
132.383219
 30
0.0
 10
89.014575
 20
132.531867
 30
0.0
 10
88.865927
 20
132.531867
 30
0.0
 10
88.717278
 20
132.531867
 30
0.0
 10
88.717278
 20
132.680516
 30
0.0
 10
88.717278
 20
132.829165
 30
0.0
 10
88.568629
 20
132.829165
 30
0.0
 10
88.419981
 20
132.829165
 30
0.0
 10
88.419981
 20
132.977813
 30
0.0
 10
88.419981
 20
133.126462
 30
0.0
 10
88.717278
 20
133.126462
 30
0.0
 10
89.014575
 20
133.126462
 30
0.0
 10
89.014575
 20
133.423759
 30
0.0
 10
89.014575
 20
133.721057
 30
0.0
 10
88.865927
 20
133.721057
 30
0.0
 10
88.717278
 20
133.721057
 30
0.0
 10
88.717278
 20
133.572408
 30
0.0
 10
88.717278
 20
133.423759
 30
0.0
 10
88.568629
 20
133.423759
 30
0.0
 10
88.419981
 20
133.423759
 30
0.0
 10
88.419981
 20
133.275111
 30
0.0
 10
88.419981
 20
133.126462
 30
0.0
 10
88.271332
 20
133.126462
 30
0.0
 10
88.122684
 20
133.126462
 30
0.0
 10
88.122684
 20
132.977813
 30
0.0
 10
88.122684
 20
132.829165
 30
0.0
 10
87.974035
 20
132.829165
 30
0.0
 10
87.825386
 20
132.829165
 30
0.0
 10
87.825386
 20
132.977813
 30
0.0
 10
87.825386
 20
133.126462
 30
0.0
 10
87.676738
 20
133.126462
 30
0.0
 10
87.528089
 20
133.126462
 30
0.0
 10
87.528089
 20
132.977813
 30
0.0
 10
87.528089
 20
132.829165
 30
0.0
 10
87.379440
 20
132.829165
 30
0.0
 10
87.230792
 20
132.829165
 30
0.0
 10
87.230792
 20
132.680516
 30
0.0
 10
87.230792
 20
132.531867
 30
0.0
 10
87.082143
 20
132.531867
 30
0.0
 10
86.933494
 20
132.531867
 30
0.0
 10
86.933494
 20
132.680516
 30
0.0
 10
86.933494
 20
132.829165
 30
0.0
 10
86.784846
 20
132.829165
 30
0.0
 10
86.636197
 20
132.829165
 30
0.0
 10
86.636197
 20
132.531867
 30
0.0
 10
86.636197
 20
132.234570
 30
0.0
 10
86.487548
 20
132.234570
 30
0.0
 10
86.338900
 20
132.234570
 30
0.0
 10
86.338900
 20
132.085921
 30
0.0
 10
86.338900
 20
131.937273
 30
0.0
 10
86.041602
 20
131.937273
 30
0.0
 10
85.744305
 20
131.937273
 30
0.0
 10
85.744305
 20
131.788624
 30
0.0
 10
85.744305
 20
131.639975
 30
0.0
 10
86.041602
 20
131.639975
 30
0.0
 10
86.041602
 20
131.639975
 30
0.0
  0
LWPOLYLINE
  5
136
100
AcDbEntity
  8
Vrstva_1
 62
7
100
AcDbPolyline
 90
10
 70
0
 10
87.676738
 20
132.234570
 30
0.0
 10
87.528089
 20
132.234570
 30
0.0
 10
87.528089
 20
132.531867
 30
0.0
 10
87.528089
 20
132.829165
 30
0.0
 10
87.676738
 20
132.829165
 30
0.0
 10
87.825386
 20
132.829165
 30
0.0
 10
87.825386
 20
132.531867
 30
0.0
 10
87.825386
 20
132.234570
 30
0.0
 10
87.676738
 20
132.234570
 30
0.0
 10
87.676738
 20
132.234570
 30
0.0
  0
LWPOLYLINE
  5
137
100
AcDbEntity
  8
Vrstva_1
 62
7
100
AcDbPolyline
 90
10
 70
0
 10
87.676738
 20
134.018354
 30
0.0
 10
87.825386
 20
134.018354
 30
0.0
 10
87.825386
 20
134.167002
 30
0.0
 10
87.825386
 20
134.315651
 30
0.0
 10
87.676738
 20
134.315651
 30
0.0
 10
87.528089
 20
134.315651
 30
0.0
 10
87.528089
 20
134.167002
 30
0.0
 10
87.528089
 20
134.018354
 30
0.0
 10
87.676738
 20
134.018354
 30
0.0
 10
87.676738
 20
134.018354
 30
0.0
  0
LWPOLYLINE
  5
138
100
AcDbEntity
  8
Vrstva_1
 62
7
100
AcDbPolyline
 90
18
 70
0
 10
90.055116
 20
130.748084
 30
0.0
 10
89.906467
 20
130.748084
 30
0.0
 10
89.906467
 20
130.896732
 30
0.0
 10
89.906467
 20
131.045381
 30
0.0
 10
89.757819
 20
131.045381
 30
0.0
 10
89.609170
 20
131.045381
 30
0.0
 10
89.609170
 20
131.194030
 30
0.0
 10
89.609170
 20
131.342678
 30
0.0
 10
89.757819
 20
131.342678
 30
0.0
 10
89.906467
 20
131.342678
 30
0.0
 10
89.906467
 20
131.194030
 30
0.0
 10
89.906467
 20
131.045381
 30
0.0
 10
90.055116
 20
131.045381
 30
0.0
 10
90.203765
 20
131.045381
 30
0.0
 10
90.203765
 20
130.896732
 30
0.0
 10
90.203765
 20
130.748084
 30
0.0
 10
90.055116
 20
130.748084
 30
0.0
 10
90.055116
 20
130.748084
 30
0.0
  0
LWPOLYLINE
  5
139
100
AcDbEntity
  8
Vrstva_1
 62
7
100
AcDbPolyline
 90
10
 70
0
 10
85.001062
 20
132.531867
 30
0.0
 10
83.960521
 20
132.531867
 30
0.0
 10
83.960521
 20
133.572408
 30
0.0
 10
83.960521
 20
134.612948
 30
0.0
 10
85.001062
 20
134.612948
 30
0.0
 10
86.041602
 20
134.612948
 30
0.0
 10
86.041602
 20
133.572408
 30
0.0
 10
86.041602
 20
132.531867
 30
0.0
 10
85.001062
 20
132.531867
 30
0.0
 10
85.001062
 20
132.531867
 30
0.0
  0
LWPOLYLINE
  5
13a
100
AcDbEntity
  8
Vrstva_1
 62
7
100
AcDbPolyline
 90
10
 70
0
 10
85.001062
 20
132.829165
 30
0.0
 10
85.744305
 20
132.829165
 30
0.0
 10
85.744305
 20
133.572408
 30
0.0
 10
85.744305
 20
134.315651
 30
0.0
 10
85.001062
 20
134.315651
 30
0.0
 10
84.257819
 20
134.315651
 30
0.0
 10
84.257819
 20
133.572408
 30
0.0
 10
84.257819
 20
132.829165
 30
0.0
 10
85.001062
 20
132.829165
 30
0.0
 10
85.001062
 20
132.829165
 30
0.0
  0
LWPOLYLINE
  5
13b
100
AcDbEntity
  8
Vrstva_1
 62
7
100
AcDbPolyline
 90
10
 70
0
 10
85.001062
 20
133.126462
 30
0.0
 10
84.555116
 20
133.126462
 30
0.0
 10
84.555116
 20
133.572408
 30
0.0
 10
84.555116
 20
134.018354
 30
0.0
 10
85.001062
 20
134.018354
 30
0.0
 10
85.447008
 20
134.018354
 30
0.0
 10
85.447008
 20
133.572408
 30
0.0
 10
85.447008
 20
133.126462
 30
0.0
 10
85.001062
 20
133.126462
 30
0.0
 10
85.001062
 20
133.126462
 30
0.0
  0
LWPOLYLINE
  5
13c
100
AcDbEntity
  8
Vrstva_1
 62
7
100
AcDbPolyline
 90
10
 70
0
 10
91.541602
 20
132.531867
 30
0.0
 10
90.501062
 20
132.531867
 30
0.0
 10
90.501062
 20
133.572408
 30
0.0
 10
90.501062
 20
134.612948
 30
0.0
 10
91.541602
 20
134.612948
 30
0.0
 10
92.582143
 20
134.612948
 30
0.0
 10
92.582143
 20
133.572408
 30
0.0
 10
92.582143
 20
132.531867
 30
0.0
 10
91.541602
 20
132.531867
 30
0.0
 10
91.541602
 20
132.531867
 30
0.0
  0
LWPOLYLINE
  5
13d
100
AcDbEntity
  8
Vrstva_1
 62
7
100
AcDbPolyline
 90
10
 70
0
 10
91.541602
 20
132.829165
 30
0.0
 10
92.284846
 20
132.829165
 30
0.0
 10
92.284846
 20
133.572408
 30
0.0
 10
92.284846
 20
134.315651
 30
0.0
 10
91.541602
 20
134.315651
 30
0.0
 10
90.798359
 20
134.315651
 30
0.0
 10
90.798359
 20
133.572408
 30
0.0
 10
90.798359
 20
132.829165
 30
0.0
 10
91.541602
 20
132.829165
 30
0.0
 10
91.541602
 20
132.829165
 30
0.0
  0
LWPOLYLINE
  5
13e
100
AcDbEntity
  8
Vrstva_1
 62
7
100
AcDbPolyline
 90
10
 70
0
 10
91.541602
 20
133.126462
 30
0.0
 10
91.095656
 20
133.126462
 30
0.0
 10
91.095656
 20
133.572408
 30
0.0
 10
91.095656
 20
134.018354
 30
0.0
 10
91.541602
 20
134.018354
 30
0.0
 10
91.987548
 20
134.018354
 30
0.0
 10
91.987548
 20
133.572408
 30
0.0
 10
91.987548
 20
133.126462
 30
0.0
 10
91.541602
 20
133.126462
 30
0.0
 10
91.541602
 20
133.126462
 30
0.0
  0
ENDSEC
  0
SECTION
  2
OBJECTS
  0
DICTIONARY
  5
C
330
0
100
AcDbDictionary
  3
ACAD_GROUP
350
D
  3
ACAD_MLINESTYLE
350
17
  0
DICTIONARY
  5
D
330
C
100
AcDbDictionary
  0
DICTIONARY
  5
1A
330
C
100
AcDbDictionary
  0
DICTIONARY
  5
17
330
C
100
AcDbDictionary
  3
STANDARD
350
18
  0
DICTIONARY
  5
19
330
C
100
AcDbDictionary
  0
ENDSEC
  0
EOF
