<?xml version="1.0" encoding="UTF-8" standalone="no"?>
<!-- Created with Inkscape (http://www.inkscape.org/) -->

<svg
   xmlns:osb="http://www.openswatchbook.org/uri/2009/osb"
   xmlns:dc="http://purl.org/dc/elements/1.1/"
   xmlns:cc="http://creativecommons.org/ns#"
   xmlns:rdf="http://www.w3.org/1999/02/22-rdf-syntax-ns#"
   xmlns:svg="http://www.w3.org/2000/svg"
   xmlns="http://www.w3.org/2000/svg"
   xmlns:sodipodi="http://sodipodi.sourceforge.net/DTD/sodipodi-0.dtd"
   xmlns:inkscape="http://www.inkscape.org/namespaces/inkscape"
   width="744.09448819"
   height="1052.3622047"
   id="svg2"
   inkscape:label="Pozadí"
   version="1.1"
   inkscape:version="0.48.2 r9819"
   sodipodi:docname="TTLPECL01A_QRcode_ROBO.dxf">
  <defs
     id="defs3">
    <linearGradient
       id="linearGradient5302"
       osb:paint="solid">
      <stop
         style="stop-color:#000000;stop-opacity:1;"
         offset="0"
         id="stop5304" />
    </linearGradient>
  </defs>
  <sodipodi:namedview
     id="base"
     pagecolor="#ffffff"
     bordercolor="#666666"
     borderopacity="1.0"
     inkscape:pageopacity="0.0"
     inkscape:pageshadow="2"
     inkscape:zoom="15.839192"
     inkscape:cx="317.32893"
     inkscape:cy="454.32659"
     inkscape:document-units="px"
     inkscape:current-layer="g3049"
     showgrid="false"
     inkscape:window-width="1280"
     inkscape:window-height="1000"
     inkscape:window-x="0"
     inkscape:window-y="24"
     inkscape:window-maximized="1" />
  <metadata
     id="metadata6">
    <rdf:RDF>
      <cc:Work
         rdf:about="">
        <dc:format>image/svg+xml</dc:format>
        <dc:type
           rdf:resource="http://purl.org/dc/dcmitype/StillImage" />
        <dc:title></dc:title>
      </cc:Work>
    </rdf:RDF>
  </metadata>
  <g
     inkscape:label="Vrstva 1"
     inkscape:groupmode="layer"
     id="layer1">
    <g
       id="g3049"
       transform="matrix(0.35113854,0,0,0.35113854,165.29425,399.71582)">
      <path
         style="fill:#000000;stroke:#000000;stroke-opacity:1;fill-opacity:1;stroke-width:0;stroke-miterlimit:4;stroke-dasharray:none;stroke-linecap:square"
         d="m 385.63401,587.29077 -9.13401,0 0,-9.13401 0,-9.13402 9.13401,0 9.13402,0 0,9.13402 0,9.13401 -9.13402,0 z m 0,-2.60972 6.5243,0 0,-6.52429 0,-6.5243 -6.5243,0 -6.52429,0 0,6.5243 0,6.52429 6.52429,0 z m 0,-2.60972 -3.91457,0 0,-3.91457 0,-3.91458 3.91457,0 3.91458,0 0,3.91458 0,3.91457 -3.91458,0 z m 13.04859,5.21944 -1.30486,0 0,-1.30486 0,-1.30486 1.30486,0 1.30486,0 0,-1.30486 0,-1.30486 -1.30486,0 -1.30486,0 0,-2.60971 0,-2.60972 1.30486,0 1.30486,0 0,-1.30486 0,-1.30486 -1.30486,0 -1.30486,0 0,-3.91458 0,-3.91457 -5.21943,0 -5.21944,0 0,-1.30486 0,-1.30486 -1.30486,0 -1.30486,0 0,1.30486 0,1.30486 -2.60971,0 -2.60972,0 0,-1.30486 0,-1.30486 1.30486,0 1.30486,0 0,-2.60972 0,-2.60972 1.30485,0 1.30486,0 0,1.30486 0,1.30486 1.30486,0 1.30486,0 0,1.30486 0,1.30486 3.91458,0 3.91458,0 0,-1.30486 0,-1.30486 -1.30486,0 -1.30486,0 0,-1.30486 0,-1.30486 1.30486,0 1.30486,0 0,-1.30486 0,-1.30485 -1.30486,0 -1.30486,0 0,-1.30486 0,-1.30486 3.91457,0 3.91458,0 0,-2.60972 0,-2.60972 1.30486,0 1.30486,0 0,-1.30486 0,-1.30486 -1.30486,0 -1.30486,0 0,-1.30485 0,-1.30486 5.21944,0 5.21943,0 0,1.30486 0,1.30485 -1.30486,0 -1.30486,0 0,1.30486 0,1.30486 -1.30485,0 -1.30486,0 0,1.30486 0,1.30486 -1.30486,0 -1.30486,0 0,6.52429 0,6.5243 3.91458,0 3.91457,0 0,-1.30486 0,-1.30486 -1.30486,0 -1.30486,0 0,-3.91458 0,-3.91457 -1.30485,0 -1.30486,0 0,-1.30486 0,-1.30486 1.30486,0 1.30485,0 0,-1.30486 0,-1.30486 2.60972,0 2.60972,0 0,1.30486 0,1.30486 -1.30486,0 -1.30486,0 0,3.91458 0,3.91457 1.30486,0 1.30486,0 0,-3.91457 0,-3.91458 1.30486,0 1.30486,0 0,-1.30486 0,-1.30486 1.30486,0 1.30486,0 0,-1.30486 0,-1.30486 1.30485,0 1.30486,0 0,-1.30485 0,-1.30486 1.30486,0 1.30486,0 0,1.30486 0,1.30485 -1.30486,0 -1.30486,0 0,1.30486 0,1.30486 -1.30486,0 -1.30485,0 0,2.60972 0,2.60972 1.30485,0 1.30486,0 0,1.30486 0,1.30486 1.30486,0 1.30486,0 0,-1.30486 0,-1.30486 1.30486,0 1.30486,0 0,-2.60972 0,-2.60972 2.60972,0 2.60972,0 0,2.60972 0,2.60972 1.30485,0 1.30486,0 0,1.30486 0,1.30486 -5.21943,0 -5.21944,0 0,3.91457 0,3.91458 1.30486,0 1.30486,0 0,1.30486 0,1.30486 1.30486,0 1.30486,0 0,-1.30486 0,-1.30486 -1.30486,0 -1.30486,0 0,-1.30486 0,-1.30486 2.60972,0 2.60972,0 0,-1.30486 0,-1.30486 1.30485,0 1.30486,0 0,1.30486 0,1.30486 1.30486,0 1.30486,0 0,-1.30486 0,-1.30486 1.30486,0 1.30486,0 0,1.30486 0,1.30486 -1.30486,0 -1.30486,0 0,1.30486 0,1.30486 3.91458,0 3.91457,0 0,-1.30486 0,-1.30486 -1.30485,0 -1.30486,0 0,-1.30486 0,-1.30486 1.30486,0 1.30485,0 0,-1.30486 0,-1.30485 1.30486,0 1.30486,0 0,-2.60972 0,-2.60972 -3.91457,0 -3.91458,0 0,1.30486 0,1.30486 1.30486,0 1.30486,0 0,1.30486 0,1.30486 -2.60972,0 -2.60972,0 0,-2.60972 0,-2.60972 -1.30486,0 -1.30486,0 0,-2.60972 0,-2.60972 1.30486,0 1.30486,0 0,2.60972 0,2.60972 1.30486,0 1.30486,0 0,-1.30486 0,-1.30486 3.91458,0 3.91457,0 0,-1.30486 0,-1.30486 2.60972,0 2.60972,0 0,2.60972 0,2.60972 -1.30486,0 -1.30486,0 0,3.91458 0,3.91457 -1.30486,0 -1.30486,0 0,3.91458 0,3.91458 2.60972,0 2.60972,0 0,1.30486 0,1.30485 -1.30486,0 -1.30486,0 0,1.30486 0,1.30486 1.30486,0 1.30486,0 0,2.60972 0,2.60972 -1.30486,0 -1.30486,0 0,1.30486 0,1.30486 1.30486,0 1.30486,0 0,1.30486 0,1.30485 -1.30486,0 -1.30486,0 0,2.60972 0,2.60972 -1.30486,0 -1.30486,0 0,-2.60972 0,-2.60972 1.30486,0 1.30486,0 0,-1.30485 0,-1.30486 -1.30486,0 -1.30486,0 0,1.30486 0,1.30485 -1.30486,0 -1.30486,0 0,-1.30485 0,-1.30486 -2.60971,0 -2.60972,0 0,-1.30486 0,-1.30486 -5.21944,0 -5.21943,0 0,2.60972 0,2.60971 1.30486,0 1.30486,0 0,2.60972 0,2.60972 -9.13402,0 -9.13401,0 0,-1.30486 0,-1.30486 -1.30486,0 -1.30486,0 0,1.30486 0,1.30486 -3.91457,0 -3.91458,0 0,-1.30486 0,-1.30486 -1.30486,0 -1.30486,0 0,1.30486 0,1.30486 -1.30486,0 z m 5.21944,-2.60972 1.30486,0 0,-1.30486 0,-1.30486 1.30486,0 1.30485,0 0,-1.30485 0,-1.30486 -2.60971,0 -2.60972,0 0,-1.30486 0,-1.30486 3.91458,0 3.91457,0 0,2.60972 0,2.60971 2.60972,0 2.60972,0 0,1.30486 0,1.30486 1.30486,0 1.30486,0 0,-1.30486 0,-1.30486 1.30485,0 1.30486,0 0,1.30486 0,1.30486 1.30486,0 1.30486,0 0,-1.30486 0,-1.30486 1.30486,0 1.30486,0 0,1.30486 0,1.30486 1.30486,0 1.30486,0 0,-1.30486 0,-1.30486 -1.30486,0 -1.30486,0 0,-2.60971 0,-2.60972 1.30486,0 1.30486,0 0,-2.60972 0,-2.60972 -1.30486,0 -1.30486,0 0,-1.30486 0,-1.30486 -2.60972,0 -2.60972,0 0,-1.30485 0,-1.30486 -1.30486,0 -1.30485,0 0,-3.91458 0,-3.91458 1.30485,0 1.30486,0 0,-1.30486 0,-1.30485 -1.30486,0 -1.30485,0 0,-1.30486 0,-1.30486 -1.30486,0 -1.30486,0 0,6.52429 0,6.5243 -2.60972,0 -2.60972,0 0,2.60971 0,2.60972 -1.30486,0 -1.30486,0 0,1.30486 0,1.30486 -1.30485,0 -1.30486,0 0,-2.60972 0,-2.60972 1.30486,0 1.30485,0 0,-1.30485 0,-1.30486 -1.30485,0 -1.30486,0 0,1.30486 0,1.30485 -1.30486,0 -1.30486,0 0,-1.30485 0,-1.30486 -1.30486,0 -1.30486,0 0,1.30486 0,1.30485 1.30486,0 1.30486,0 0,1.30486 0,1.30486 -1.30486,0 -1.30486,0 0,1.30486 0,1.30486 1.30486,0 1.30486,0 0,1.30486 0,1.30486 -1.30486,0 -1.30486,0 0,1.30486 0,1.30486 1.30486,0 1.30486,0 0,2.60971 0,2.60972 1.30486,0 z m 13.04859,-2.60972 -1.30486,0 0,-2.60971 0,-2.60972 1.30486,0 1.30486,0 0,2.60972 0,2.60971 -1.30486,0 z m 5.21943,-2.60971 -1.30486,0 0,-2.60972 0,-2.60972 1.30486,0 1.30486,0 0,-1.30486 0,-1.30486 1.30486,0 1.30486,0 0,2.60972 0,2.60972 -1.30486,0 -1.30486,0 0,1.30486 0,1.30486 -1.30486,0 z m -9.13401,-5.21944 -2.60972,0 0,-1.30486 0,-1.30486 1.30486,0 1.30486,0 0,-1.30486 0,-1.30486 2.60972,0 2.60972,0 0,1.30486 0,1.30486 -1.30486,0 -1.30486,0 0,1.30486 0,1.30486 -2.60972,0 z m 35.23119,2.60972 1.30486,0 0,-2.60972 0,-2.60972 -1.30486,0 -1.30486,0 0,-1.30486 0,-1.30486 -1.30486,0 -1.30486,0 0,1.30486 0,1.30486 -1.30485,0 -1.30486,0 0,1.30486 0,1.30486 2.60971,0 2.60972,0 0,1.30486 0,1.30486 1.30486,0 z m -13.04859,-2.60972 3.91458,0 0,-3.91458 0,-3.91457 -3.91458,0 -3.91457,0 0,3.91457 0,3.91458 3.91457,0 z m 0,-2.60972 -1.30486,0 0,-1.30486 0,-1.30486 1.30486,0 1.30486,0 0,1.30486 0,1.30486 -1.30486,0 z m -36.53605,-7.82915 1.30486,0 0,-1.30486 0,-1.30486 -1.30486,0 -1.30486,0 0,1.30486 0,1.30486 1.30486,0 z m 33.92633,0 1.30486,0 0,-1.30486 0,-1.30486 -1.30486,0 -1.30485,0 0,1.30486 0,1.30486 1.30485,0 z m 2.60972,23.48746 -1.30486,0 0,-2.60972 0,-2.60972 1.30486,0 1.30486,0 0,-1.30485 0,-1.30486 1.30486,0 1.30486,0 0,2.60971 0,2.60972 -1.30486,0 -1.30486,0 0,1.30486 0,1.30486 -1.30486,0 z m 7.82916,0 -1.30486,0 0,-2.60972 0,-2.60972 1.30486,0 1.30485,0 0,2.60972 0,2.60972 -1.30485,0 z m -65.24295,-26.09718 -1.30486,0 0,-1.30486 0,-1.30486 1.30486,0 1.30486,0 0,1.30486 0,1.30486 -1.30486,0 z m 9.13401,-2.60972 -2.60972,0 0,-1.30486 0,-1.30485 -1.30486,0 -1.30485,0 0,-1.30486 0,-1.30486 -1.30486,0 -1.30486,0 0,1.30486 0,1.30486 -1.30486,0 -1.30486,0 0,-2.60972 0,-2.60972 2.60972,0 2.60972,0 0,-1.30486 0,-1.30486 -2.60972,0 -2.60972,0 0,-2.60972 0,-2.60971 1.30486,0 1.30486,0 0,1.30486 0,1.30485 1.30486,0 1.30486,0 0,-1.30485 0,-1.30486 -1.30486,0 -1.30486,0 0,-2.60972 0,-2.60972 -1.30486,0 -1.30486,0 0,-2.60972 0,-2.60972 1.30486,0 1.30486,0 0,1.30486 0,1.30486 1.30486,0 1.30486,0 0,1.30486 0,1.30486 2.60971,0 2.60972,0 0,1.30486 0,1.30486 -1.30486,0 -1.30486,0 0,2.60972 0,2.60971 1.30486,0 1.30486,0 0,1.30486 0,1.30486 -1.30486,0 -1.30486,0 0,1.30486 0,1.30486 1.30486,0 1.30486,0 0,1.30486 0,1.30486 1.30486,0 1.30486,0 0,2.60972 0,2.60971 -2.60972,0 z m 3.91458,-5.21943 -1.30486,0 0,-1.30486 0,-1.30486 -1.30486,0 -1.30486,0 0,-1.30486 0,-1.30486 5.21944,0 5.21943,0 0,1.30486 0,1.30486 -2.60971,0 -2.60972,0 0,1.30486 0,1.30486 -1.30486,0 z m 23.48746,-5.21944 -1.30486,0 0,-2.60972 0,-2.60971 1.30486,0 1.30486,0 0,2.60971 0,2.60972 -1.30486,0 z m -22.1826,-2.60972 -5.21944,0 0,-2.60971 0,-2.60972 1.30486,0 1.30486,0 0,-1.30486 0,-1.30486 -1.30486,0 -1.30486,0 0,-1.30486 0,-1.30486 -2.60972,0 -2.60971,0 0,-1.30486 0,-1.30486 2.60971,0 2.60972,0 0,1.30486 0,1.30486 1.30486,0 1.30486,0 0,-1.30486 0,-1.30486 3.91458,0 3.91457,0 0,-2.60971 0,-2.60972 1.30486,0 1.30486,0 0,-2.60972 0,-2.60972 -1.30486,0 -1.30486,0 0,-1.30486 0,-1.30485 1.30486,0 1.30486,0 0,-1.30486 0,-1.30486 -1.30486,0 -1.30486,0 0,-2.60972 0,-2.60972 2.60972,0 2.60972,0 0,1.30486 0,1.30486 -1.30486,0 -1.30486,0 0,1.30486 0,1.30486 2.60972,0 2.60972,0 0,-1.30486 0,-1.30486 1.30486,0 1.30485,0 0,-1.30486 0,-1.30486 1.30486,0 1.30486,0 0,1.30486 0,1.30486 1.30486,0 1.30486,0 0,-1.30486 0,-1.30486 2.60972,0 2.60972,0 0,1.30486 0,1.30486 -1.30486,0 -1.30486,0 0,1.30486 0,1.30486 -2.60972,0 -2.60972,0 0,1.30486 0,1.30486 -1.30486,0 -1.30486,0 0,-1.30486 0,-1.30486 -1.30485,0 -1.30486,0 0,1.30486 0,1.30486 -2.60972,0 -2.60972,0 0,1.30485 0,1.30486 5.21944,0 5.21943,0 0,1.30486 0,1.30486 1.30486,0 1.30486,0 0,-1.30486 0,-1.30486 1.30486,0 1.30486,0 0,-1.30486 0,-1.30485 1.30486,0 1.30486,0 0,-1.30486 0,-1.30486 1.30485,0 1.30486,0 0,1.30486 0,1.30486 1.30486,0 1.30486,0 0,-1.30486 0,-1.30486 -1.30486,0 -1.30486,0 0,-2.60972 0,-2.60972 5.21944,0 5.21944,0 0,2.60972 0,2.60972 -1.30486,0 -1.30486,0 0,-1.30486 0,-1.30486 -1.30486,0 -1.30486,0 0,2.60972 0,2.60972 -1.30486,0 -1.30486,0 0,2.60971 0,2.60972 -1.30486,0 -1.30486,0 0,2.60972 0,2.60972 1.30486,0 1.30486,0 0,-1.30486 0,-1.30486 1.30486,0 1.30486,0 0,-2.60972 0,-2.60972 1.30486,0 1.30486,0 0,-1.30486 0,-1.30485 1.30486,0 1.30486,0 0,1.30485 0,1.30486 -1.30486,0 -1.30486,0 0,1.30486 0,1.30486 1.30486,0 1.30486,0 0,2.60972 0,2.60972 -1.30486,0 -1.30486,0 0,-1.30486 0,-1.30486 -1.30486,0 -1.30486,0 0,2.60972 0,2.60971 1.30486,0 1.30486,0 0,1.30486 0,1.30486 2.60972,0 2.60971,0 0,-1.30486 0,-1.30486 1.30486,0 1.30486,0 0,1.30486 0,1.30486 2.60972,0 2.60972,0 0,-1.30486 0,-1.30486 1.30486,0 1.30485,0 0,1.30486 0,1.30486 -1.30485,0 -1.30486,0 0,1.30486 0,1.30486 -2.60972,0 -2.60972,0 0,1.30486 0,1.30486 3.91458,0 3.91457,0 0,-1.30486 0,-1.30486 2.60972,0 2.60972,0 0,-1.30486 0,-1.30486 -1.30486,0 -1.30486,0 0,-1.30486 0,-1.30486 2.60972,0 2.60972,0 0,2.60972 0,2.60972 -1.30486,0 -1.30486,0 0,1.30486 0,1.30486 1.30486,0 1.30486,0 0,1.30486 0,1.30486 -1.30486,0 -1.30486,0 0,-1.30486 0,-1.30486 -2.60972,0 -2.60972,0 0,1.30486 0,1.30486 1.30486,0 1.30486,0 0,1.30486 0,1.30485 -2.60972,0 -2.60971,0 0,-1.30485 0,-1.30486 -3.91458,0 -3.91458,0 0,-1.30486 0,-1.30486 -2.60971,0 -2.60972,0 0,-1.30486 0,-1.30486 -1.30486,0 -1.30486,0 0,1.30486 0,1.30486 -3.91458,0 -3.91457,0 0,-1.30486 0,-1.30486 -1.30486,0 -1.30486,0 0,-2.60972 0,-2.60972 -1.30486,0 -1.30486,0 0,3.91458 0,3.91458 -6.52429,0 -6.5243,0 0,1.30486 0,1.30486 -1.30486,0 -1.30486,0 0,1.30486 0,1.30485 -5.21943,0 z m 2.60972,-2.60971 2.60971,0 0,-1.30486 0,-1.30486 -2.60971,0 -2.60972,0 0,1.30486 0,1.30486 2.60972,0 z m 0,-5.21944 2.60971,0 0,-1.30486 0,-1.30486 2.60972,0 2.60972,0 0,-1.30486 0,-1.30486 1.30486,0 1.30486,0 0,1.30486 0,1.30486 1.30486,0 1.30485,0 0,1.30486 0,1.30486 1.30486,0 1.30486,0 0,-2.60972 0,-2.60972 1.30486,0 1.30486,0 0,-2.60971 0,-2.60972 1.30486,0 1.30486,0 0,2.60972 0,2.60971 1.30486,0 1.30486,0 0,2.60972 0,2.60972 1.30485,0 1.30486,0 0,-1.30486 0,-1.30486 1.30486,0 1.30486,0 0,-1.30486 0,-1.30486 -1.30486,0 -1.30486,0 0,-1.30485 0,-1.30486 -1.30486,0 -1.30485,0 0,-1.30486 0,-1.30486 -1.30486,0 -1.30486,0 0,-1.30486 0,-1.30486 2.60972,0 2.60971,0 0,-2.60972 0,-2.60971 -1.30486,0 -1.30485,0 0,1.30485 0,1.30486 -1.30486,0 -1.30486,0 0,1.30486 0,1.30486 -1.30486,0 -1.30486,0 0,1.30486 0,1.30486 -1.30486,0 -1.30486,0 0,-1.30486 0,-1.30486 -1.30486,0 -1.30486,0 0,1.30486 0,1.30486 -1.30485,0 -1.30486,0 0,1.30486 0,1.30486 -1.30486,0 -1.30486,0 0,-1.30486 0,-1.30486 -1.30486,0 -1.30486,0 0,2.60972 0,2.60971 -1.30486,0 -1.30486,0 0,1.30486 0,1.30486 -2.60971,0 -2.60972,0 0,1.30486 0,1.30486 2.60972,0 z m 14.35344,-5.21944 -1.30486,0 0,-2.60971 0,-2.60972 1.30486,0 1.30486,0 0,2.60972 0,2.60971 -1.30486,0 z m 0,-15.6583 1.30486,0 0,-1.30486 0,-1.30486 -1.30486,0 -1.30486,0 0,1.30486 0,1.30486 1.30486,0 z m 20.87775,28.70689 -1.30486,0 0,-1.30485 0,-1.30486 -1.30486,0 -1.30486,0 0,-1.30486 0,-1.30486 1.30486,0 1.30486,0 0,1.30486 0,1.30486 1.30486,0 1.30486,0 0,1.30486 0,1.30485 -1.30486,0 z m -44.36521,-15.6583 -9.13401,0 0,-9.13402 0,-9.13401 9.13401,0 9.13402,0 0,9.13401 0,9.13402 -9.13402,0 z m 0,-2.60972 6.5243,0 0,-6.5243 0,-6.52429 -6.5243,0 -6.52429,0 0,6.52429 0,6.5243 6.52429,0 z m 0,-2.60972 -3.91457,0 0,-3.91458 0,-3.91457 3.91457,0 3.91458,0 0,3.91457 0,3.91458 -3.91458,0 z m 57.4138,5.21944 -9.13402,0 0,-9.13402 0,-9.13401 9.13402,0 9.13401,0 0,9.13401 0,9.13402 -9.13401,0 z m 0,-2.60972 6.52429,0 0,-6.5243 0,-6.52429 -6.52429,0 -6.5243,0 0,6.52429 0,6.5243 6.5243,0 z m 0,-2.60972 -3.91458,0 0,-3.91458 0,-3.91457 3.91458,0 3.91457,0 0,3.91457 0,3.91458 -3.91457,0 z"
         id="path3051"
         inkscape:connector-curvature="0" />
    </g>
  </g>
</svg>
