<?xml version="1.0" encoding="UTF-8" standalone="no"?>
<!-- Created with Inkscape (http://www.inkscape.org/) -->

<svg
   xmlns:dc="http://purl.org/dc/elements/1.1/"
   xmlns:cc="http://creativecommons.org/ns#"
   xmlns:rdf="http://www.w3.org/1999/02/22-rdf-syntax-ns#"
   xmlns:svg="http://www.w3.org/2000/svg"
   xmlns="http://www.w3.org/2000/svg"
   xmlns:sodipodi="http://sodipodi.sourceforge.net/DTD/sodipodi-0.dtd"
   xmlns:inkscape="http://www.inkscape.org/namespaces/inkscape"
   width="744.09448819"
   height="1052.3622047"
   id="svg2"
   inkscape:label="Pozadí"
   version="1.1"
   inkscape:version="0.48.2 r9819"
   sodipodi:docname="Nový dokument 1">
  <defs
     id="defs3" />
  <sodipodi:namedview
     id="base"
     pagecolor="#ffffff"
     bordercolor="#666666"
     borderopacity="1.0"
     inkscape:pageopacity="0.0"
     inkscape:pageshadow="2"
     inkscape:zoom="3.959798"
     inkscape:cx="384.60638"
     inkscape:cy="489.10942"
     inkscape:document-units="px"
     inkscape:current-layer="layer1"
     showgrid="false"
     inkscape:window-width="1280"
     inkscape:window-height="1000"
     inkscape:window-x="0"
     inkscape:window-y="24"
     inkscape:window-maximized="1" />
  <metadata
     id="metadata6">
    <rdf:RDF>
      <cc:Work
         rdf:about="">
        <dc:format>image/svg+xml</dc:format>
        <dc:type
           rdf:resource="http://purl.org/dc/dcmitype/StillImage" />
        <dc:title></dc:title>
      </cc:Work>
    </rdf:RDF>
  </metadata>
  <g
     inkscape:label="Vrstva 1"
     inkscape:groupmode="layer"
     id="layer1">
    <g
       id="g3049"
       transform="translate(-71.215751,10.85914)">
      <path
         style="fill:#fefefe"
         d="m 420,599.29077 -55.5,0 0,-55.5 0,-55.5 55.5,0 55.5,0 0,55.5 0,55.5 -55.5,0 z m -33,-12 10.5,0 0,-10.5 0,-10.5 -10.5,0 -10.5,0 0,10.5 0,10.5 10.5,0 z m 0,-3 -7.5,0 0,-7.5 0,-7.5 7.5,0 7.5,0 0,7.5 0,7.5 -7.5,0 z m 0,-3 4.5,0 0,-4.5 0,-4.5 -4.5,0 -4.5,0 0,4.5 0,4.5 4.5,0 z m 15,6 1.5,0 0,-1.5 0,-1.5 1.5,0 1.5,0 0,1.5 0,1.5 4.5,0 4.5,0 0,-1.5 0,-1.5 1.5,0 1.5,0 0,1.5 0,1.5 10.5,0 10.5,0 0,-3 0,-3 -1.5,0 -1.5,0 0,-3 0,-3 6,0 6,0 0,1.5 0,1.5 3,0 3,0 0,1.5 0,1.5 1.5,0 1.5,0 0,-1.5 0,-1.5 1.5,0 1.5,0 0,1.5 0,1.5 -1.5,0 -1.5,0 0,3 0,3 1.5,0 1.5,0 0,-3 0,-3 1.5,0 1.5,0 0,-1.5 0,-1.5 -1.5,0 -1.5,0 0,-1.5 0,-1.5 1.5,0 1.5,0 0,-3 0,-3 -1.5,0 -1.5,0 0,-1.5 0,-1.5 1.5,0 1.5,0 0,-1.5 0,-1.5 -3,0 -3,0 0,-4.5 0,-4.5 1.5,0 1.5,0 0,-4.5 0,-4.5 1.5,0 1.5,0 0,-3 0,-3 -3,0 -3,0 0,1.5 0,1.5 -4.5,0 -4.5,0 0,1.5 0,1.5 -1.5,0 -1.5,0 0,-3 0,-3 -1.5,0 -1.5,0 0,3 0,3 1.5,0 1.5,0 0,3 0,3 3,0 3,0 0,-1.5 0,-1.5 -1.5,0 -1.5,0 0,-1.5 0,-1.5 4.5,0 4.5,0 0,3 0,3 -1.5,0 -1.5,0 0,1.5 0,1.5 -1.5,0 -1.5,0 0,1.5 0,1.5 1.5,0 1.5,0 0,1.5 0,1.5 -4.5,0 -4.5,0 0,-1.5 0,-1.5 1.5,0 1.5,0 0,-1.5 0,-1.5 -1.5,0 -1.5,0 0,1.5 0,1.5 -1.5,0 -1.5,0 0,-1.5 0,-1.5 -1.5,0 -1.5,0 0,1.5 0,1.5 -3,0 -3,0 0,1.5 0,1.5 1.5,0 1.5,0 0,1.5 0,1.5 -1.5,0 -1.5,0 0,-1.5 0,-1.5 -1.5,0 -1.5,0 0,-4.5 0,-4.5 6,0 6,0 0,-1.5 0,-1.5 -1.5,0 -1.5,0 0,-3 0,-3 -3,0 -3,0 0,3 0,3 -1.5,0 -1.5,0 0,1.5 0,1.5 -1.5,0 -1.5,0 0,-1.5 0,-1.5 -1.5,0 -1.5,0 0,-3 0,-3 1.5,0 1.5,0 0,-1.5 0,-1.5 1.5,0 1.5,0 0,-1.5 0,-1.5 -1.5,0 -1.5,0 0,1.5 0,1.5 -1.5,0 -1.5,0 0,1.5 0,1.5 -1.5,0 -1.5,0 0,1.5 0,1.5 -1.5,0 -1.5,0 0,4.5 0,4.5 -1.5,0 -1.5,0 0,-4.5 0,-4.5 1.5,0 1.5,0 0,-1.5 0,-1.5 -3,0 -3,0 0,1.5 0,1.5 -1.5,0 -1.5,0 0,1.5 0,1.5 1.5,0 1.5,0 0,4.5 0,4.5 1.5,0 1.5,0 0,1.5 0,1.5 -4.5,0 -4.5,0 0,-7.5 0,-7.5 1.5,0 1.5,0 0,-1.5 0,-1.5 1.5,0 1.5,0 0,-1.5 0,-1.5 1.5,0 1.5,0 0,-1.5 0,-1.5 -6,0 -6,0 0,1.5 0,1.5 1.5,0 1.5,0 0,1.5 0,1.5 -1.5,0 -1.5,0 0,3 0,3 -4.5,0 -4.5,0 0,1.5 0,1.5 1.5,0 1.5,0 0,1.5 0,1.5 -1.5,0 -1.5,0 0,1.5 0,1.5 1.5,0 1.5,0 0,1.5 0,1.5 -4.5,0 -4.5,0 0,-1.5 0,-1.5 -1.5,0 -1.5,0 0,-1.5 0,-1.5 -1.5,0 -1.5,0 0,3 0,3 -1.5,0 -1.5,0 0,1.5 0,1.5 3,0 3,0 0,-1.5 0,-1.5 1.5,0 1.5,0 0,1.5 0,1.5 6,0 6,0 0,4.5 0,4.5 1.5,0 1.5,0 0,1.5 0,1.5 -1.5,0 -1.5,0 0,3 0,3 1.5,0 1.5,0 0,1.5 0,1.5 -1.5,0 -1.5,0 0,1.5 0,1.5 1.5,0 z m 6,-3 -1.5,0 0,-3 0,-3 -1.5,0 -1.5,0 0,-1.5 0,-1.5 1.5,0 1.5,0 0,-1.5 0,-1.5 -1.5,0 -1.5,0 0,-1.5 0,-1.5 1.5,0 1.5,0 0,-1.5 0,-1.5 -1.5,0 -1.5,0 0,-1.5 0,-1.5 1.5,0 1.5,0 0,1.5 0,1.5 1.5,0 1.5,0 0,-1.5 0,-1.5 1.5,0 1.5,0 0,1.5 0,1.5 -1.5,0 -1.5,0 0,3 0,3 1.5,0 1.5,0 0,-1.5 0,-1.5 1.5,0 1.5,0 0,-3 0,-3 3,0 3,0 0,-7.5 0,-7.5 1.5,0 1.5,0 0,1.5 0,1.5 1.5,0 1.5,0 0,1.5 0,1.5 -1.5,0 -1.5,0 0,4.5 0,4.5 1.5,0 1.5,0 0,1.5 0,1.5 3,0 3,0 0,1.5 0,1.5 1.5,0 1.5,0 0,3 0,3 -1.5,0 -1.5,0 0,3 0,3 1.5,0 1.5,0 0,1.5 0,1.5 -1.5,0 -1.5,0 0,-1.5 0,-1.5 -1.5,0 -1.5,0 0,1.5 0,1.5 -1.5,0 -1.5,0 0,-1.5 0,-1.5 -1.5,0 -1.5,0 0,1.5 0,1.5 -1.5,0 -1.5,0 0,-1.5 0,-1.5 -3,0 -3,0 0,-3 0,-3 -4.5,0 -4.5,0 0,1.5 0,1.5 3,0 3,0 0,1.5 0,1.5 -1.5,0 -1.5,0 0,1.5 0,1.5 -1.5,0 z m 15,-3 1.5,0 0,-3 0,-3 -1.5,0 -1.5,0 0,3 0,3 1.5,0 z m 6,-3 1.5,0 0,-1.5 0,-1.5 1.5,0 1.5,0 0,-3 0,-3 -1.5,0 -1.5,0 0,1.5 0,1.5 -1.5,0 -1.5,0 0,3 0,3 1.5,0 z m -10.5,-6 3,0 0,-1.5 0,-1.5 1.5,0 1.5,0 0,-1.5 0,-1.5 -3,0 -3,0 0,1.5 0,1.5 -1.5,0 -1.5,0 0,1.5 0,1.5 3,0 z m 40.5,3 -1.5,0 0,-1.5 0,-1.5 -3,0 -3,0 0,-1.5 0,-1.5 1.5,0 1.5,0 0,-1.5 0,-1.5 1.5,0 1.5,0 0,1.5 0,1.5 1.5,0 1.5,0 0,3 0,3 -1.5,0 z m -15,-3 -4.5,0 0,-4.5 0,-4.5 4.5,0 4.5,0 0,4.5 0,4.5 -4.5,0 z m 0,-3 1.5,0 0,-1.5 0,-1.5 -1.5,0 -1.5,0 0,1.5 0,1.5 1.5,0 z m -42,-9 -1.5,0 0,-1.5 0,-1.5 1.5,0 1.5,0 0,1.5 0,1.5 -1.5,0 z m 39,0 -1.5,0 0,-1.5 0,-1.5 1.5,0 1.5,0 0,1.5 0,1.5 -1.5,0 z m 3,27 1.5,0 0,-1.5 0,-1.5 1.5,0 1.5,0 0,-3 0,-3 -1.5,0 -1.5,0 0,1.5 0,1.5 -1.5,0 -1.5,0 0,3 0,3 1.5,0 z m 9,0 1.5,0 0,-3 0,-3 -1.5,0 -1.5,0 0,3 0,3 1.5,0 z m -75,-30 1.5,0 0,-1.5 0,-1.5 -1.5,0 -1.5,0 0,1.5 0,1.5 1.5,0 z m 10.5,-3 3,0 0,-3 0,-3 -1.5,0 -1.5,0 0,-1.5 0,-1.5 -1.5,0 -1.5,0 0,-1.5 0,-1.5 1.5,0 1.5,0 0,-1.5 0,-1.5 -1.5,0 -1.5,0 0,-3 0,-3 1.5,0 1.5,0 0,-1.5 0,-1.5 -3,0 -3,0 0,-1.5 0,-1.5 -1.5,0 -1.5,0 0,-1.5 0,-1.5 -1.5,0 -1.5,0 0,3 0,3 1.5,0 1.5,0 0,3 0,3 1.5,0 1.5,0 0,1.5 0,1.5 -1.5,0 -1.5,0 0,-1.5 0,-1.5 -1.5,0 -1.5,0 0,3 0,3 3,0 3,0 0,1.5 0,1.5 -3,0 -3,0 0,3 0,3 1.5,0 1.5,0 0,-1.5 0,-1.5 1.5,0 1.5,0 0,1.5 0,1.5 1.5,0 1.5,0 0,1.5 0,1.5 3,0 z m 4.5,-6 1.5,0 0,-1.5 0,-1.5 3,0 3,0 0,-1.5 0,-1.5 -6,0 -6,0 0,1.5 0,1.5 1.5,0 1.5,0 0,1.5 0,1.5 1.5,0 z m 27,-6 1.5,0 0,-3 0,-3 -1.5,0 -1.5,0 0,3 0,3 1.5,0 z m -25.5,-3 6,0 0,-1.5 0,-1.5 1.5,0 1.5,0 0,-1.5 0,-1.5 7.5,0 7.5,0 0,-4.5 0,-4.5 1.5,0 1.5,0 0,3 0,3 1.5,0 1.5,0 0,1.5 0,1.5 4.5,0 4.5,0 0,-1.5 0,-1.5 1.5,0 1.5,0 0,1.5 0,1.5 3,0 3,0 0,1.5 0,1.5 4.5,0 4.5,0 0,1.5 0,1.5 3,0 3,0 0,-1.5 0,-1.5 -1.5,0 -1.5,0 0,-1.5 0,-1.5 3,0 3,0 0,1.5 0,1.5 1.5,0 1.5,0 0,-1.5 0,-1.5 -1.5,0 -1.5,0 0,-1.5 0,-1.5 1.5,0 1.5,0 0,-3 0,-3 -3,0 -3,0 0,1.5 0,1.5 1.5,0 1.5,0 0,1.5 0,1.5 -3,0 -3,0 0,1.5 0,1.5 -4.5,0 -4.5,0 0,-1.5 0,-1.5 3,0 3,0 0,-1.5 0,-1.5 1.5,0 1.5,0 0,-1.5 0,-1.5 -1.5,0 -1.5,0 0,1.5 0,1.5 -3,0 -3,0 0,-1.5 0,-1.5 -1.5,0 -1.5,0 0,1.5 0,1.5 -3,0 -3,0 0,-1.5 0,-1.5 -1.5,0 -1.5,0 0,-3 0,-3 1.5,0 1.5,0 0,1.5 0,1.5 1.5,0 1.5,0 0,-3 0,-3 -1.5,0 -1.5,0 0,-1.5 0,-1.5 1.5,0 1.5,0 0,-1.5 0,-1.5 -1.5,0 -1.5,0 0,1.5 0,1.5 -1.5,0 -1.5,0 0,3 0,3 -1.5,0 -1.5,0 0,1.5 0,1.5 -1.5,0 -1.5,0 0,-3 0,-3 1.5,0 1.5,0 0,-3 0,-3 1.5,0 1.5,0 0,-3 0,-3 1.5,0 1.5,0 0,1.5 0,1.5 1.5,0 1.5,0 0,-3 0,-3 -6,0 -6,0 0,3 0,3 1.5,0 1.5,0 0,1.5 0,1.5 -1.5,0 -1.5,0 0,-1.5 0,-1.5 -1.5,0 -1.5,0 0,1.5 0,1.5 -1.5,0 -1.5,0 0,1.5 0,1.5 -1.5,0 -1.5,0 0,1.5 0,1.5 -1.5,0 -1.5,0 0,-1.5 0,-1.5 -6,0 -6,0 0,-1.5 0,-1.5 3,0 3,0 0,-1.5 0,-1.5 1.5,0 1.5,0 0,1.5 0,1.5 1.5,0 1.5,0 0,-1.5 0,-1.5 3,0 3,0 0,-1.5 0,-1.5 1.5,0 1.5,0 0,-1.5 0,-1.5 -3,0 -3,0 0,1.5 0,1.5 -1.5,0 -1.5,0 0,-1.5 0,-1.5 -1.5,0 -1.5,0 0,1.5 0,1.5 -1.5,0 -1.5,0 0,1.5 0,1.5 -3,0 -3,0 0,-1.5 0,-1.5 1.5,0 1.5,0 0,-1.5 0,-1.5 -3,0 -3,0 0,3 0,3 1.5,0 1.5,0 0,1.5 0,1.5 -1.5,0 -1.5,0 0,1.5 0,1.5 1.5,0 1.5,0 0,3 0,3 -1.5,0 -1.5,0 0,3 0,3 -4.5,0 -4.5,0 0,1.5 0,1.5 -1.5,0 -1.5,0 0,-1.5 0,-1.5 -3,0 -3,0 0,1.5 0,1.5 3,0 3,0 0,1.5 0,1.5 1.5,0 1.5,0 0,1.5 0,1.5 -1.5,0 -1.5,0 0,3 0,3 6,0 z m 3,-3 -3,0 0,-1.5 0,-1.5 3,0 3,0 0,1.5 0,1.5 -3,0 z m 0,-6 -3,0 0,-1.5 0,-1.5 3,0 3,0 0,-1.5 0,-1.5 1.5,0 1.5,0 0,-3 0,-3 1.5,0 1.5,0 0,1.5 0,1.5 1.5,0 1.5,0 0,-1.5 0,-1.5 1.5,0 1.5,0 0,-1.5 0,-1.5 1.5,0 1.5,0 0,1.5 0,1.5 1.5,0 1.5,0 0,-1.5 0,-1.5 1.5,0 1.5,0 0,-1.5 0,-1.5 1.5,0 1.5,0 0,-1.5 0,-1.5 1.5,0 1.5,0 0,3 0,3 -3,0 -3,0 0,1.5 0,1.5 1.5,0 1.5,0 0,1.5 0,1.5 1.5,0 1.5,0 0,1.5 0,1.5 1.5,0 1.5,0 0,1.5 0,1.5 -1.5,0 -1.5,0 0,1.5 0,1.5 -1.5,0 -1.5,0 0,-3 0,-3 -1.5,0 -1.5,0 0,-3 0,-3 -1.5,0 -1.5,0 0,3 0,3 -1.5,0 -1.5,0 0,3 0,3 -1.5,0 -1.5,0 0,-1.5 0,-1.5 -1.5,0 -1.5,0 0,-1.5 0,-1.5 -1.5,0 -1.5,0 0,1.5 0,1.5 -3,0 -3,0 0,1.5 0,1.5 -3,0 z m 16.5,-6 1.5,0 0,-3 0,-3 -1.5,0 -1.5,0 0,3 0,3 1.5,0 z m 0,-18 -1.5,0 0,-1.5 0,-1.5 1.5,0 1.5,0 0,1.5 0,1.5 -1.5,0 z m 24,33 1.5,0 0,-1.5 0,-1.5 -1.5,0 -1.5,0 0,-1.5 0,-1.5 -1.5,0 -1.5,0 0,1.5 0,1.5 1.5,0 1.5,0 0,1.5 0,1.5 1.5,0 z m -51,-18 10.5,0 0,-10.5 0,-10.5 -10.5,0 -10.5,0 0,10.5 0,10.5 10.5,0 z m 0,-3 -7.5,0 0,-7.5 0,-7.5 7.5,0 7.5,0 0,7.5 0,7.5 -7.5,0 z m 0,-3 4.5,0 0,-4.5 0,-4.5 -4.5,0 -4.5,0 0,4.5 0,4.5 4.5,0 z m 66,6 10.5,0 0,-10.5 0,-10.5 -10.5,0 -10.5,0 0,10.5 0,10.5 10.5,0 z m 0,-3 -7.5,0 0,-7.5 0,-7.5 7.5,0 7.5,0 0,7.5 0,7.5 -7.5,0 z m 0,-3 4.5,0 0,-4.5 0,-4.5 -4.5,0 -4.5,0 0,4.5 0,4.5 4.5,0 z"
         id="path3053"
         inkscape:connector-curvature="0" />
      <path
         style="fill:#000000"
         d="m 387,587.29077 -10.5,0 0,-10.5 0,-10.5 10.5,0 10.5,0 0,10.5 0,10.5 -10.5,0 z m 0,-3 7.5,0 0,-7.5 0,-7.5 -7.5,0 -7.5,0 0,7.5 0,7.5 7.5,0 z m 0,-3 -4.5,0 0,-4.5 0,-4.5 4.5,0 4.5,0 0,4.5 0,4.5 -4.5,0 z m 15,6 -1.5,0 0,-1.5 0,-1.5 1.5,0 1.5,0 0,-1.5 0,-1.5 -1.5,0 -1.5,0 0,-3 0,-3 1.5,0 1.5,0 0,-1.5 0,-1.5 -1.5,0 -1.5,0 0,-4.5 0,-4.5 -6,0 -6,0 0,-1.5 0,-1.5 -1.5,0 -1.5,0 0,1.5 0,1.5 -3,0 -3,0 0,-1.5 0,-1.5 1.5,0 1.5,0 0,-3 0,-3 1.5,0 1.5,0 0,1.5 0,1.5 1.5,0 1.5,0 0,1.5 0,1.5 4.5,0 4.5,0 0,-1.5 0,-1.5 -1.5,0 -1.5,0 0,-1.5 0,-1.5 1.5,0 1.5,0 0,-1.5 0,-1.5 -1.5,0 -1.5,0 0,-1.5 0,-1.5 4.5,0 4.5,0 0,-3 0,-3 1.5,0 1.5,0 0,-1.5 0,-1.5 -1.5,0 -1.5,0 0,-1.5 0,-1.5 6,0 6,0 0,1.5 0,1.5 -1.5,0 -1.5,0 0,1.5 0,1.5 -1.5,0 -1.5,0 0,1.5 0,1.5 -1.5,0 -1.5,0 0,7.5 0,7.5 4.5,0 4.5,0 0,-1.5 0,-1.5 -1.5,0 -1.5,0 0,-4.5 0,-4.5 -1.5,0 -1.5,0 0,-1.5 0,-1.5 1.5,0 1.5,0 0,-1.5 0,-1.5 3,0 3,0 0,1.5 0,1.5 -1.5,0 -1.5,0 0,4.5 0,4.5 1.5,0 1.5,0 0,-4.5 0,-4.5 1.5,0 1.5,0 0,-1.5 0,-1.5 1.5,0 1.5,0 0,-1.5 0,-1.5 1.5,0 1.5,0 0,-1.5 0,-1.5 1.5,0 1.5,0 0,1.5 0,1.5 -1.5,0 -1.5,0 0,1.5 0,1.5 -1.5,0 -1.5,0 0,3 0,3 1.5,0 1.5,0 0,1.5 0,1.5 1.5,0 1.5,0 0,-1.5 0,-1.5 1.5,0 1.5,0 0,-3 0,-3 3,0 3,0 0,3 0,3 1.5,0 1.5,0 0,1.5 0,1.5 -6,0 -6,0 0,4.5 0,4.5 1.5,0 1.5,0 0,1.5 0,1.5 1.5,0 1.5,0 0,-1.5 0,-1.5 -1.5,0 -1.5,0 0,-1.5 0,-1.5 3,0 3,0 0,-1.5 0,-1.5 1.5,0 1.5,0 0,1.5 0,1.5 1.5,0 1.5,0 0,-1.5 0,-1.5 1.5,0 1.5,0 0,1.5 0,1.5 -1.5,0 -1.5,0 0,1.5 0,1.5 4.5,0 4.5,0 0,-1.5 0,-1.5 -1.5,0 -1.5,0 0,-1.5 0,-1.5 1.5,0 1.5,0 0,-1.5 0,-1.5 1.5,0 1.5,0 0,-3 0,-3 -4.5,0 -4.5,0 0,1.5 0,1.5 1.5,0 1.5,0 0,1.5 0,1.5 -3,0 -3,0 0,-3 0,-3 -1.5,0 -1.5,0 0,-3 0,-3 1.5,0 1.5,0 0,3 0,3 1.5,0 1.5,0 0,-1.5 0,-1.5 4.5,0 4.5,0 0,-1.5 0,-1.5 3,0 3,0 0,3 0,3 -1.5,0 -1.5,0 0,4.5 0,4.5 -1.5,0 -1.5,0 0,4.5 0,4.5 3,0 3,0 0,1.5 0,1.5 -1.5,0 -1.5,0 0,1.5 0,1.5 1.5,0 1.5,0 0,3 0,3 -1.5,0 -1.5,0 0,1.5 0,1.5 1.5,0 1.5,0 0,1.5 0,1.5 -1.5,0 -1.5,0 0,3 0,3 -1.5,0 -1.5,0 0,-3 0,-3 1.5,0 1.5,0 0,-1.5 0,-1.5 -1.5,0 -1.5,0 0,1.5 0,1.5 -1.5,0 -1.5,0 0,-1.5 0,-1.5 -3,0 -3,0 0,-1.5 0,-1.5 -6,0 -6,0 0,3 0,3 1.5,0 1.5,0 0,3 0,3 -10.5,0 -10.5,0 0,-1.5 0,-1.5 -1.5,0 -1.5,0 0,1.5 0,1.5 -4.5,0 -4.5,0 0,-1.5 0,-1.5 -1.5,0 -1.5,0 0,1.5 0,1.5 -1.5,0 z m 6,-3 1.5,0 0,-1.5 0,-1.5 1.5,0 1.5,0 0,-1.5 0,-1.5 -3,0 -3,0 0,-1.5 0,-1.5 4.5,0 4.5,0 0,3 0,3 3,0 3,0 0,1.5 0,1.5 1.5,0 1.5,0 0,-1.5 0,-1.5 1.5,0 1.5,0 0,1.5 0,1.5 1.5,0 1.5,0 0,-1.5 0,-1.5 1.5,0 1.5,0 0,1.5 0,1.5 1.5,0 1.5,0 0,-1.5 0,-1.5 -1.5,0 -1.5,0 0,-3 0,-3 1.5,0 1.5,0 0,-3 0,-3 -1.5,0 -1.5,0 0,-1.5 0,-1.5 -3,0 -3,0 0,-1.5 0,-1.5 -1.5,0 -1.5,0 0,-4.5 0,-4.5 1.5,0 1.5,0 0,-1.5 0,-1.5 -1.5,0 -1.5,0 0,-1.5 0,-1.5 -1.5,0 -1.5,0 0,7.5 0,7.5 -3,0 -3,0 0,3 0,3 -1.5,0 -1.5,0 0,1.5 0,1.5 -1.5,0 -1.5,0 0,-3 0,-3 1.5,0 1.5,0 0,-1.5 0,-1.5 -1.5,0 -1.5,0 0,1.5 0,1.5 -1.5,0 -1.5,0 0,-1.5 0,-1.5 -1.5,0 -1.5,0 0,1.5 0,1.5 1.5,0 1.5,0 0,1.5 0,1.5 -1.5,0 -1.5,0 0,1.5 0,1.5 1.5,0 1.5,0 0,1.5 0,1.5 -1.5,0 -1.5,0 0,1.5 0,1.5 1.5,0 1.5,0 0,3 0,3 1.5,0 z m 15,-3 -1.5,0 0,-3 0,-3 1.5,0 1.5,0 0,3 0,3 -1.5,0 z m 6,-3 -1.5,0 0,-3 0,-3 1.5,0 1.5,0 0,-1.5 0,-1.5 1.5,0 1.5,0 0,3 0,3 -1.5,0 -1.5,0 0,1.5 0,1.5 -1.5,0 z m -10.5,-6 -3,0 0,-1.5 0,-1.5 1.5,0 1.5,0 0,-1.5 0,-1.5 3,0 3,0 0,1.5 0,1.5 -1.5,0 -1.5,0 0,1.5 0,1.5 -3,0 z m 40.5,3 1.5,0 0,-3 0,-3 -1.5,0 -1.5,0 0,-1.5 0,-1.5 -1.5,0 -1.5,0 0,1.5 0,1.5 -1.5,0 -1.5,0 0,1.5 0,1.5 3,0 3,0 0,1.5 0,1.5 1.5,0 z m -15,-3 4.5,0 0,-4.5 0,-4.5 -4.5,0 -4.5,0 0,4.5 0,4.5 4.5,0 z m 0,-3 -1.5,0 0,-1.5 0,-1.5 1.5,0 1.5,0 0,1.5 0,1.5 -1.5,0 z m -42,-9 1.5,0 0,-1.5 0,-1.5 -1.5,0 -1.5,0 0,1.5 0,1.5 1.5,0 z m 39,0 1.5,0 0,-1.5 0,-1.5 -1.5,0 -1.5,0 0,1.5 0,1.5 1.5,0 z m 3,27 -1.5,0 0,-3 0,-3 1.5,0 1.5,0 0,-1.5 0,-1.5 1.5,0 1.5,0 0,3 0,3 -1.5,0 -1.5,0 0,1.5 0,1.5 -1.5,0 z m 9,0 -1.5,0 0,-3 0,-3 1.5,0 1.5,0 0,3 0,3 -1.5,0 z m -75,-30 -1.5,0 0,-1.5 0,-1.5 1.5,0 1.5,0 0,1.5 0,1.5 -1.5,0 z m 10.5,-3 -3,0 0,-1.5 0,-1.5 -1.5,0 -1.5,0 0,-1.5 0,-1.5 -1.5,0 -1.5,0 0,1.5 0,1.5 -1.5,0 -1.5,0 0,-3 0,-3 3,0 3,0 0,-1.5 0,-1.5 -3,0 -3,0 0,-3 0,-3 1.5,0 1.5,0 0,1.5 0,1.5 1.5,0 1.5,0 0,-1.5 0,-1.5 -1.5,0 -1.5,0 0,-3 0,-3 -1.5,0 -1.5,0 0,-3 0,-3 1.5,0 1.5,0 0,1.5 0,1.5 1.5,0 1.5,0 0,1.5 0,1.5 3,0 3,0 0,1.5 0,1.5 -1.5,0 -1.5,0 0,3 0,3 1.5,0 1.5,0 0,1.5 0,1.5 -1.5,0 -1.5,0 0,1.5 0,1.5 1.5,0 1.5,0 0,1.5 0,1.5 1.5,0 1.5,0 0,3 0,3 -3,0 z m 4.5,-6 -1.5,0 0,-1.5 0,-1.5 -1.5,0 -1.5,0 0,-1.5 0,-1.5 6,0 6,0 0,1.5 0,1.5 -3,0 -3,0 0,1.5 0,1.5 -1.5,0 z m 27,-6 -1.5,0 0,-3 0,-3 1.5,0 1.5,0 0,3 0,3 -1.5,0 z m -25.5,-3 -6,0 0,-3 0,-3 1.5,0 1.5,0 0,-1.5 0,-1.5 -1.5,0 -1.5,0 0,-1.5 0,-1.5 -3,0 -3,0 0,-1.5 0,-1.5 3,0 3,0 0,1.5 0,1.5 1.5,0 1.5,0 0,-1.5 0,-1.5 4.5,0 4.5,0 0,-3 0,-3 1.5,0 1.5,0 0,-3 0,-3 -1.5,0 -1.5,0 0,-1.5 0,-1.5 1.5,0 1.5,0 0,-1.5 0,-1.5 -1.5,0 -1.5,0 0,-3 0,-3 3,0 3,0 0,1.5 0,1.5 -1.5,0 -1.5,0 0,1.5 0,1.5 3,0 3,0 0,-1.5 0,-1.5 1.5,0 1.5,0 0,-1.5 0,-1.5 1.5,0 1.5,0 0,1.5 0,1.5 1.5,0 1.5,0 0,-1.5 0,-1.5 3,0 3,0 0,1.5 0,1.5 -1.5,0 -1.5,0 0,1.5 0,1.5 -3,0 -3,0 0,1.5 0,1.5 -1.5,0 -1.5,0 0,-1.5 0,-1.5 -1.5,0 -1.5,0 0,1.5 0,1.5 -3,0 -3,0 0,1.5 0,1.5 6,0 6,0 0,1.5 0,1.5 1.5,0 1.5,0 0,-1.5 0,-1.5 1.5,0 1.5,0 0,-1.5 0,-1.5 1.5,0 1.5,0 0,-1.5 0,-1.5 1.5,0 1.5,0 0,1.5 0,1.5 1.5,0 1.5,0 0,-1.5 0,-1.5 -1.5,0 -1.5,0 0,-3 0,-3 6,0 6,0 0,3 0,3 -1.5,0 -1.5,0 0,-1.5 0,-1.5 -1.5,0 -1.5,0 0,3 0,3 -1.5,0 -1.5,0 0,3 0,3 -1.5,0 -1.5,0 0,3 0,3 1.5,0 1.5,0 0,-1.5 0,-1.5 1.5,0 1.5,0 0,-3 0,-3 1.5,0 1.5,0 0,-1.5 0,-1.5 1.5,0 1.5,0 0,1.5 0,1.5 -1.5,0 -1.5,0 0,1.5 0,1.5 1.5,0 1.5,0 0,3 0,3 -1.5,0 -1.5,0 0,-1.5 0,-1.5 -1.5,0 -1.5,0 0,3 0,3 1.5,0 1.5,0 0,1.5 0,1.5 3,0 3,0 0,-1.5 0,-1.5 1.5,0 1.5,0 0,1.5 0,1.5 3,0 3,0 0,-1.5 0,-1.5 1.5,0 1.5,0 0,1.5 0,1.5 -1.5,0 -1.5,0 0,1.5 0,1.5 -3,0 -3,0 0,1.5 0,1.5 4.5,0 4.5,0 0,-1.5 0,-1.5 3,0 3,0 0,-1.5 0,-1.5 -1.5,0 -1.5,0 0,-1.5 0,-1.5 3,0 3,0 0,3 0,3 -1.5,0 -1.5,0 0,1.5 0,1.5 1.5,0 1.5,0 0,1.5 0,1.5 -1.5,0 -1.5,0 0,-1.5 0,-1.5 -3,0 -3,0 0,1.5 0,1.5 1.5,0 1.5,0 0,1.5 0,1.5 -3,0 -3,0 0,-1.5 0,-1.5 -4.5,0 -4.5,0 0,-1.5 0,-1.5 -3,0 -3,0 0,-1.5 0,-1.5 -1.5,0 -1.5,0 0,1.5 0,1.5 -4.5,0 -4.5,0 0,-1.5 0,-1.5 -1.5,0 -1.5,0 0,-3 0,-3 -1.5,0 -1.5,0 0,4.5 0,4.5 -7.5,0 -7.5,0 0,1.5 0,1.5 -1.5,0 -1.5,0 0,1.5 0,1.5 -6,0 z m 3,-3 3,0 0,-1.5 0,-1.5 -3,0 -3,0 0,1.5 0,1.5 3,0 z m 0,-6 3,0 0,-1.5 0,-1.5 3,0 3,0 0,-1.5 0,-1.5 1.5,0 1.5,0 0,1.5 0,1.5 1.5,0 1.5,0 0,1.5 0,1.5 1.5,0 1.5,0 0,-3 0,-3 1.5,0 1.5,0 0,-3 0,-3 1.5,0 1.5,0 0,3 0,3 1.5,0 1.5,0 0,3 0,3 1.5,0 1.5,0 0,-1.5 0,-1.5 1.5,0 1.5,0 0,-1.5 0,-1.5 -1.5,0 -1.5,0 0,-1.5 0,-1.5 -1.5,0 -1.5,0 0,-1.5 0,-1.5 -1.5,0 -1.5,0 0,-1.5 0,-1.5 3,0 3,0 0,-3 0,-3 -1.5,0 -1.5,0 0,1.5 0,1.5 -1.5,0 -1.5,0 0,1.5 0,1.5 -1.5,0 -1.5,0 0,1.5 0,1.5 -1.5,0 -1.5,0 0,-1.5 0,-1.5 -1.5,0 -1.5,0 0,1.5 0,1.5 -1.5,0 -1.5,0 0,1.5 0,1.5 -1.5,0 -1.5,0 0,-1.5 0,-1.5 -1.5,0 -1.5,0 0,3 0,3 -1.5,0 -1.5,0 0,1.5 0,1.5 -3,0 -3,0 0,1.5 0,1.5 3,0 z m 16.5,-6 -1.5,0 0,-3 0,-3 1.5,0 1.5,0 0,3 0,3 -1.5,0 z m 0,-18 1.5,0 0,-1.5 0,-1.5 -1.5,0 -1.5,0 0,1.5 0,1.5 1.5,0 z m 24,33 -1.5,0 0,-1.5 0,-1.5 -1.5,0 -1.5,0 0,-1.5 0,-1.5 1.5,0 1.5,0 0,1.5 0,1.5 1.5,0 1.5,0 0,1.5 0,1.5 -1.5,0 z m -51,-18 -10.5,0 0,-10.5 0,-10.5 10.5,0 10.5,0 0,10.5 0,10.5 -10.5,0 z m 0,-3 7.5,0 0,-7.5 0,-7.5 -7.5,0 -7.5,0 0,7.5 0,7.5 7.5,0 z m 0,-3 -4.5,0 0,-4.5 0,-4.5 4.5,0 4.5,0 0,4.5 0,4.5 -4.5,0 z m 66,6 -10.5,0 0,-10.5 0,-10.5 10.5,0 10.5,0 0,10.5 0,10.5 -10.5,0 z m 0,-3 7.5,0 0,-7.5 0,-7.5 -7.5,0 -7.5,0 0,7.5 0,7.5 7.5,0 z m 0,-3 -4.5,0 0,-4.5 0,-4.5 4.5,0 4.5,0 0,4.5 0,4.5 -4.5,0 z"
         id="path3051"
         inkscape:connector-curvature="0" />
    </g>
  </g>
</svg>
