999
DXF created by Inkscape
  0
SECTION
  2
HEADER
  9
$ACADVER
  1
AC1014
  9
$HANDSEED
  5
FFFF
  9
$MEASUREMENT
 70
     1
  0
ENDSEC
  0
SECTION
  2
TABLES
  0
TABLE
  2
VPORT
  5
8
330
0
100
AcDbSymbolTable
 70
     4
  0
VPORT
  5
2E
330
8
100
AcDbSymbolTableRecord
100
AcDbViewportTableRecord
  2
*ACTIVE
 70
     0
 10
0.0
 20
0.0
 11
1.0
 21
1.0
 12
210.0
 22
148.5
 13
0.0
 23
0.0
 14
10.0
 24
10.0
 15
10.0
 25
10.0
 16
0.0
 26
0.0
 36
1.0
 17
0.0
 27
0.0
 37
0.0
 40
341.0
 41
1.24
 42
50.0
 43
0.0
 44
0.0
 50
0.0
 51
0.0
 71
     0
 72
   100
 73
     1
 74
     3
 75
     0
 76
     0
 77
     0
 78
     0
  0
ENDTAB
  0
TABLE
  2
LTYPE
  5
5
330
0
100
AcDbSymbolTable
 70
     1
  0
LTYPE
  5
14
330
5
100
AcDbSymbolTableRecord
100
AcDbLinetypeTableRecord
  2
BYBLOCK
 70
     0
  3

 72
    65
 73
     0
 40
0.0
  0
LTYPE
  5
15
330
5
100
AcDbSymbolTableRecord
100
AcDbLinetypeTableRecord
  2
BYLAYER
 70
     0
  3

 72
    65
 73
     0
 40
0.0
  0
LTYPE
  5
16
330
5
100
AcDbSymbolTableRecord
100
AcDbLinetypeTableRecord
  2
CONTINUOUS
 70
     0
  3
Solid line
 72
    65
 73
     0
 40
0.0
  0
ENDTAB
  0
TABLE
  2
LAYER
  5
2
100
AcDbSymbolTable
 70
2
  0
LAYER
  5
50
100
AcDbSymbolTableRecord
100
AcDbLayerTableRecord
  2
0
 70
0
  6
CONTINUOUS
  0
LAYER
  5
51
100
AcDbSymbolTableRecord
100
AcDbLayerTableRecord
  2
Vrstva_1
 70
0
  6
CONTINUOUS
  0
ENDTAB
  0
TABLE
  2
STYLE
  5
3
330
0
100
AcDbSymbolTable
 70
     1
  0
STYLE
  5
11
330
3
100
AcDbSymbolTableRecord
100
AcDbTextStyleTableRecord
  2
STANDARD
 70
     0
 40
0.0
 41
1.0
 50
0.0
 71
     0
 42
2.5
  3
txt
  4

  0
ENDTAB
  0
TABLE
  2
VIEW
  5
6
330
0
100
AcDbSymbolTable
 70
     0
  0
ENDTAB
  0
TABLE
  2
UCS
  5
7
330
0
100
AcDbSymbolTable
 70
     0
  0
ENDTAB
  0
TABLE
  2
APPID
  5
9
330
0
100
AcDbSymbolTable
 70
     2
  0
APPID
  5
12
330
9
100
AcDbSymbolTableRecord
100
AcDbRegAppTableRecord
  2
ACAD
 70
     0
  0
ENDTAB
  0
TABLE
  2
DIMSTYLE
  5
A
330
0
100
AcDbSymbolTable
 70
     1
  0
DIMSTYLE
105
27
330
A
100
AcDbSymbolTableRecord
100
AcDbDimStyleTableRecord
  2
ISO-25
 70
     0
  3

  4

  5

  6

  7

 40
1.0
 41
2.5
 42
0.625
 43
3.75
 44
1.25
 45
0.0
 46
0.0
 47
0.0
 48
0.0
140
2.5
141
2.5
142
0.0
143
0.03937007874016
144
1.0
145
0.0
146
1.0
147
0.625
 71
     0
 72
     0
 73
     0
 74
     0
 75
     0
 76
     0
 77
     1
 78
     8
170
     0
171
     3
172
     1
173
     0
174
     0
175
     0
176
     0
177
     0
178
     0
270
     2
271
     2
272
     2
273
     2
274
     3
340
11
275
     0
280
     0
281
     0
282
     0
283
     0
284
     8
285
     0
286
     0
287
     3
288
     0
  0
ENDTAB
  0
TABLE
  2
BLOCK_RECORD
  5
1
330
0
100
AcDbSymbolTable
 70
     1
  0
BLOCK_RECORD
  5
1F
330
1
100
AcDbSymbolTableRecord
100
AcDbBlockTableRecord
  2
*MODEL_SPACE
  0
BLOCK_RECORD
  5
1B
330
1
100
AcDbSymbolTableRecord
100
AcDbBlockTableRecord
  2
*PAPER_SPACE
  0
ENDTAB
  0
ENDSEC
  0
SECTION
  2
BLOCKS
  0
BLOCK
  5
20
330
1F
100
AcDbEntity
  8
0
100
AcDbBlockBegin
  2
*MODEL_SPACE
 70
     0
 10
0.0
 20
0.0
 30
0.0
  3
*MODEL_SPACE
  1

  0
ENDBLK
  5
21
330
1F
100
AcDbEntity
  8
0
100
AcDbBlockEnd
  0
BLOCK
  5
1C
330
1B
100
AcDbEntity
 67
     1
  8
0
100
AcDbBlockBegin
  2
*PAPER_SPACE
  1

  0
ENDBLK
  5
1D
330
1B
100
AcDbEntity
 67
     1
  8
0
100
AcDbBlockEnd
  0
ENDSEC
  0
SECTION
  2
ENTITIES
  0
LINE
  5
100
100
AcDbEntity
  8
Vrstva_1
 62
7
100
AcDbLine
 10
122.820351
 20
113.220335
 30
0.0
 11
119.857018
 21
113.220335
 31
0.0
  0
LINE
  5
101
100
AcDbEntity
  8
Vrstva_1
 62
7
100
AcDbLine
 10
119.857018
 20
113.220335
 30
0.0
 11
119.857018
 21
116.183668
 31
0.0
  0
LINE
  5
102
100
AcDbEntity
  8
Vrstva_1
 62
7
100
AcDbLine
 10
119.857018
 20
116.183668
 30
0.0
 11
119.857018
 21
119.147001
 31
0.0
  0
LINE
  5
103
100
AcDbEntity
  8
Vrstva_1
 62
7
100
AcDbLine
 10
119.857018
 20
119.147001
 30
0.0
 11
122.820351
 21
119.147001
 31
0.0
  0
LINE
  5
104
100
AcDbEntity
  8
Vrstva_1
 62
7
100
AcDbLine
 10
122.820351
 20
119.147001
 30
0.0
 11
125.783684
 21
119.147001
 31
0.0
  0
LINE
  5
105
100
AcDbEntity
  8
Vrstva_1
 62
7
100
AcDbLine
 10
125.783684
 20
119.147001
 30
0.0
 11
125.783684
 21
116.183668
 31
0.0
  0
LINE
  5
106
100
AcDbEntity
  8
Vrstva_1
 62
7
100
AcDbLine
 10
125.783684
 20
116.183668
 30
0.0
 11
125.783684
 21
113.220335
 31
0.0
  0
LINE
  5
107
100
AcDbEntity
  8
Vrstva_1
 62
7
100
AcDbLine
 10
125.783684
 20
113.220335
 30
0.0
 11
122.820351
 21
113.220335
 31
0.0
  0
LINE
  5
108
100
AcDbEntity
  8
Vrstva_1
 62
7
100
AcDbLine
 10
122.820351
 20
113.220335
 30
0.0
 11
122.820351
 21
113.220335
 31
0.0
  0
LINE
  5
109
100
AcDbEntity
  8
Vrstva_1
 62
7
100
AcDbLine
 10
122.820351
 20
114.067001
 30
0.0
 11
124.937018
 21
114.067001
 31
0.0
  0
LINE
  5
10a
100
AcDbEntity
  8
Vrstva_1
 62
7
100
AcDbLine
 10
124.937018
 20
114.067001
 30
0.0
 11
124.937018
 21
116.183668
 31
0.0
  0
LINE
  5
10b
100
AcDbEntity
  8
Vrstva_1
 62
7
100
AcDbLine
 10
124.937018
 20
116.183668
 30
0.0
 11
124.937018
 21
118.300335
 31
0.0
  0
LINE
  5
10c
100
AcDbEntity
  8
Vrstva_1
 62
7
100
AcDbLine
 10
124.937018
 20
118.300335
 30
0.0
 11
122.820351
 21
118.300335
 31
0.0
  0
LINE
  5
10d
100
AcDbEntity
  8
Vrstva_1
 62
7
100
AcDbLine
 10
122.820351
 20
118.300335
 30
0.0
 11
120.703684
 21
118.300335
 31
0.0
  0
LINE
  5
10e
100
AcDbEntity
  8
Vrstva_1
 62
7
100
AcDbLine
 10
120.703684
 20
118.300335
 30
0.0
 11
120.703684
 21
116.183668
 31
0.0
  0
LINE
  5
10f
100
AcDbEntity
  8
Vrstva_1
 62
7
100
AcDbLine
 10
120.703684
 20
116.183668
 30
0.0
 11
120.703684
 21
114.067001
 31
0.0
  0
LINE
  5
110
100
AcDbEntity
  8
Vrstva_1
 62
7
100
AcDbLine
 10
120.703684
 20
114.067001
 30
0.0
 11
122.820351
 21
114.067001
 31
0.0
  0
LINE
  5
111
100
AcDbEntity
  8
Vrstva_1
 62
7
100
AcDbLine
 10
122.820351
 20
114.067001
 30
0.0
 11
122.820351
 21
114.067001
 31
0.0
  0
LINE
  5
112
100
AcDbEntity
  8
Vrstva_1
 62
7
100
AcDbLine
 10
122.820351
 20
114.913668
 30
0.0
 11
121.550351
 21
114.913668
 31
0.0
  0
LINE
  5
113
100
AcDbEntity
  8
Vrstva_1
 62
7
100
AcDbLine
 10
121.550351
 20
114.913668
 30
0.0
 11
121.550351
 21
116.183668
 31
0.0
  0
LINE
  5
114
100
AcDbEntity
  8
Vrstva_1
 62
7
100
AcDbLine
 10
121.550351
 20
116.183668
 30
0.0
 11
121.550351
 21
117.453668
 31
0.0
  0
LINE
  5
115
100
AcDbEntity
  8
Vrstva_1
 62
7
100
AcDbLine
 10
121.550351
 20
117.453668
 30
0.0
 11
122.820351
 21
117.453668
 31
0.0
  0
LINE
  5
116
100
AcDbEntity
  8
Vrstva_1
 62
7
100
AcDbLine
 10
122.820351
 20
117.453668
 30
0.0
 11
124.090351
 21
117.453668
 31
0.0
  0
LINE
  5
117
100
AcDbEntity
  8
Vrstva_1
 62
7
100
AcDbLine
 10
124.090351
 20
117.453668
 30
0.0
 11
124.090351
 21
116.183668
 31
0.0
  0
LINE
  5
118
100
AcDbEntity
  8
Vrstva_1
 62
7
100
AcDbLine
 10
124.090351
 20
116.183668
 30
0.0
 11
124.090351
 21
114.913668
 31
0.0
  0
LINE
  5
119
100
AcDbEntity
  8
Vrstva_1
 62
7
100
AcDbLine
 10
124.090351
 20
114.913668
 30
0.0
 11
122.820351
 21
114.913668
 31
0.0
  0
LINE
  5
11a
100
AcDbEntity
  8
Vrstva_1
 62
7
100
AcDbLine
 10
122.820351
 20
114.913668
 30
0.0
 11
122.820351
 21
114.913668
 31
0.0
  0
LINE
  5
11b
100
AcDbEntity
  8
Vrstva_1
 62
7
100
AcDbLine
 10
127.053684
 20
113.220335
 30
0.0
 11
126.630351
 21
113.220335
 31
0.0
  0
LINE
  5
11c
100
AcDbEntity
  8
Vrstva_1
 62
7
100
AcDbLine
 10
126.630351
 20
113.220335
 30
0.0
 11
126.630351
 21
113.643668
 31
0.0
  0
LINE
  5
11d
100
AcDbEntity
  8
Vrstva_1
 62
7
100
AcDbLine
 10
126.630351
 20
113.643668
 30
0.0
 11
126.630351
 21
114.067001
 31
0.0
  0
LINE
  5
11e
100
AcDbEntity
  8
Vrstva_1
 62
7
100
AcDbLine
 10
126.630351
 20
114.067001
 30
0.0
 11
127.053684
 21
114.067001
 31
0.0
  0
LINE
  5
11f
100
AcDbEntity
  8
Vrstva_1
 62
7
100
AcDbLine
 10
127.053684
 20
114.067001
 30
0.0
 11
127.477018
 21
114.067001
 31
0.0
  0
LINE
  5
120
100
AcDbEntity
  8
Vrstva_1
 62
7
100
AcDbLine
 10
127.477018
 20
114.067001
 30
0.0
 11
127.477018
 21
114.490335
 31
0.0
  0
LINE
  5
121
100
AcDbEntity
  8
Vrstva_1
 62
7
100
AcDbLine
 10
127.477018
 20
114.490335
 30
0.0
 11
127.477018
 21
114.913668
 31
0.0
  0
LINE
  5
122
100
AcDbEntity
  8
Vrstva_1
 62
7
100
AcDbLine
 10
127.477018
 20
114.913668
 30
0.0
 11
127.053684
 21
114.913668
 31
0.0
  0
LINE
  5
123
100
AcDbEntity
  8
Vrstva_1
 62
7
100
AcDbLine
 10
127.053684
 20
114.913668
 30
0.0
 11
126.630351
 21
114.913668
 31
0.0
  0
LINE
  5
124
100
AcDbEntity
  8
Vrstva_1
 62
7
100
AcDbLine
 10
126.630351
 20
114.913668
 30
0.0
 11
126.630351
 21
115.760335
 31
0.0
  0
LINE
  5
125
100
AcDbEntity
  8
Vrstva_1
 62
7
100
AcDbLine
 10
126.630351
 20
115.760335
 30
0.0
 11
126.630351
 21
116.607001
 31
0.0
  0
LINE
  5
126
100
AcDbEntity
  8
Vrstva_1
 62
7
100
AcDbLine
 10
126.630351
 20
116.607001
 30
0.0
 11
127.053684
 21
116.607001
 31
0.0
  0
LINE
  5
127
100
AcDbEntity
  8
Vrstva_1
 62
7
100
AcDbLine
 10
127.053684
 20
116.607001
 30
0.0
 11
127.477018
 21
116.607001
 31
0.0
  0
LINE
  5
128
100
AcDbEntity
  8
Vrstva_1
 62
7
100
AcDbLine
 10
127.477018
 20
116.607001
 30
0.0
 11
127.477018
 21
117.030335
 31
0.0
  0
LINE
  5
129
100
AcDbEntity
  8
Vrstva_1
 62
7
100
AcDbLine
 10
127.477018
 20
117.030335
 30
0.0
 11
127.477018
 21
117.453668
 31
0.0
  0
LINE
  5
12a
100
AcDbEntity
  8
Vrstva_1
 62
7
100
AcDbLine
 10
127.477018
 20
117.453668
 30
0.0
 11
127.053684
 21
117.453668
 31
0.0
  0
LINE
  5
12b
100
AcDbEntity
  8
Vrstva_1
 62
7
100
AcDbLine
 10
127.053684
 20
117.453668
 30
0.0
 11
126.630351
 21
117.453668
 31
0.0
  0
LINE
  5
12c
100
AcDbEntity
  8
Vrstva_1
 62
7
100
AcDbLine
 10
126.630351
 20
117.453668
 30
0.0
 11
126.630351
 21
118.723668
 31
0.0
  0
LINE
  5
12d
100
AcDbEntity
  8
Vrstva_1
 62
7
100
AcDbLine
 10
126.630351
 20
118.723668
 30
0.0
 11
126.630351
 21
119.993668
 31
0.0
  0
LINE
  5
12e
100
AcDbEntity
  8
Vrstva_1
 62
7
100
AcDbLine
 10
126.630351
 20
119.993668
 30
0.0
 11
124.937018
 21
119.993668
 31
0.0
  0
LINE
  5
12f
100
AcDbEntity
  8
Vrstva_1
 62
7
100
AcDbLine
 10
124.937018
 20
119.993668
 30
0.0
 11
123.243684
 21
119.993668
 31
0.0
  0
LINE
  5
130
100
AcDbEntity
  8
Vrstva_1
 62
7
100
AcDbLine
 10
123.243684
 20
119.993668
 30
0.0
 11
123.243684
 21
120.417001
 31
0.0
  0
LINE
  5
131
100
AcDbEntity
  8
Vrstva_1
 62
7
100
AcDbLine
 10
123.243684
 20
120.417001
 30
0.0
 11
123.243684
 21
120.840335
 31
0.0
  0
LINE
  5
132
100
AcDbEntity
  8
Vrstva_1
 62
7
100
AcDbLine
 10
123.243684
 20
120.840335
 30
0.0
 11
122.820351
 21
120.840335
 31
0.0
  0
LINE
  5
133
100
AcDbEntity
  8
Vrstva_1
 62
7
100
AcDbLine
 10
122.820351
 20
120.840335
 30
0.0
 11
122.397018
 21
120.840335
 31
0.0
  0
LINE
  5
134
100
AcDbEntity
  8
Vrstva_1
 62
7
100
AcDbLine
 10
122.397018
 20
120.840335
 30
0.0
 11
122.397018
 21
120.417001
 31
0.0
  0
LINE
  5
135
100
AcDbEntity
  8
Vrstva_1
 62
7
100
AcDbLine
 10
122.397018
 20
120.417001
 30
0.0
 11
122.397018
 21
119.993668
 31
0.0
  0
LINE
  5
136
100
AcDbEntity
  8
Vrstva_1
 62
7
100
AcDbLine
 10
122.397018
 20
119.993668
 30
0.0
 11
121.550351
 21
119.993668
 31
0.0
  0
LINE
  5
137
100
AcDbEntity
  8
Vrstva_1
 62
7
100
AcDbLine
 10
121.550351
 20
119.993668
 30
0.0
 11
120.703684
 21
119.993668
 31
0.0
  0
LINE
  5
138
100
AcDbEntity
  8
Vrstva_1
 62
7
100
AcDbLine
 10
120.703684
 20
119.993668
 30
0.0
 11
120.703684
 21
120.417001
 31
0.0
  0
LINE
  5
139
100
AcDbEntity
  8
Vrstva_1
 62
7
100
AcDbLine
 10
120.703684
 20
120.417001
 30
0.0
 11
120.703684
 21
120.840335
 31
0.0
  0
LINE
  5
13a
100
AcDbEntity
  8
Vrstva_1
 62
7
100
AcDbLine
 10
120.703684
 20
120.840335
 30
0.0
 11
121.127018
 21
120.840335
 31
0.0
  0
LINE
  5
13b
100
AcDbEntity
  8
Vrstva_1
 62
7
100
AcDbLine
 10
121.127018
 20
120.840335
 30
0.0
 11
121.550351
 21
120.840335
 31
0.0
  0
LINE
  5
13c
100
AcDbEntity
  8
Vrstva_1
 62
7
100
AcDbLine
 10
121.550351
 20
120.840335
 30
0.0
 11
121.550351
 21
121.687001
 31
0.0
  0
LINE
  5
13d
100
AcDbEntity
  8
Vrstva_1
 62
7
100
AcDbLine
 10
121.550351
 20
121.687001
 30
0.0
 11
121.550351
 21
122.533668
 31
0.0
  0
LINE
  5
13e
100
AcDbEntity
  8
Vrstva_1
 62
7
100
AcDbLine
 10
121.550351
 20
122.533668
 30
0.0
 11
121.973684
 21
122.533668
 31
0.0
  0
LINE
  5
13f
100
AcDbEntity
  8
Vrstva_1
 62
7
100
AcDbLine
 10
121.973684
 20
122.533668
 30
0.0
 11
122.397018
 21
122.533668
 31
0.0
  0
LINE
  5
140
100
AcDbEntity
  8
Vrstva_1
 62
7
100
AcDbLine
 10
122.397018
 20
122.533668
 30
0.0
 11
122.397018
 21
122.110335
 31
0.0
  0
LINE
  5
141
100
AcDbEntity
  8
Vrstva_1
 62
7
100
AcDbLine
 10
122.397018
 20
122.110335
 30
0.0
 11
122.397018
 21
121.687001
 31
0.0
  0
LINE
  5
142
100
AcDbEntity
  8
Vrstva_1
 62
7
100
AcDbLine
 10
122.397018
 20
121.687001
 30
0.0
 11
122.820351
 21
121.687001
 31
0.0
  0
LINE
  5
143
100
AcDbEntity
  8
Vrstva_1
 62
7
100
AcDbLine
 10
122.820351
 20
121.687001
 30
0.0
 11
123.243684
 21
121.687001
 31
0.0
  0
LINE
  5
144
100
AcDbEntity
  8
Vrstva_1
 62
7
100
AcDbLine
 10
123.243684
 20
121.687001
 30
0.0
 11
123.243684
 21
121.263668
 31
0.0
  0
LINE
  5
145
100
AcDbEntity
  8
Vrstva_1
 62
7
100
AcDbLine
 10
123.243684
 20
121.263668
 30
0.0
 11
123.243684
 21
120.840335
 31
0.0
  0
LINE
  5
146
100
AcDbEntity
  8
Vrstva_1
 62
7
100
AcDbLine
 10
123.243684
 20
120.840335
 30
0.0
 11
124.513684
 21
120.840335
 31
0.0
  0
LINE
  5
147
100
AcDbEntity
  8
Vrstva_1
 62
7
100
AcDbLine
 10
124.513684
 20
120.840335
 30
0.0
 11
125.783684
 21
120.840335
 31
0.0
  0
LINE
  5
148
100
AcDbEntity
  8
Vrstva_1
 62
7
100
AcDbLine
 10
125.783684
 20
120.840335
 30
0.0
 11
125.783684
 21
121.263668
 31
0.0
  0
LINE
  5
149
100
AcDbEntity
  8
Vrstva_1
 62
7
100
AcDbLine
 10
125.783684
 20
121.263668
 30
0.0
 11
125.783684
 21
121.687001
 31
0.0
  0
LINE
  5
14a
100
AcDbEntity
  8
Vrstva_1
 62
7
100
AcDbLine
 10
125.783684
 20
121.687001
 30
0.0
 11
125.360351
 21
121.687001
 31
0.0
  0
LINE
  5
14b
100
AcDbEntity
  8
Vrstva_1
 62
7
100
AcDbLine
 10
125.360351
 20
121.687001
 30
0.0
 11
124.937018
 21
121.687001
 31
0.0
  0
LINE
  5
14c
100
AcDbEntity
  8
Vrstva_1
 62
7
100
AcDbLine
 10
124.937018
 20
121.687001
 30
0.0
 11
124.937018
 21
122.110335
 31
0.0
  0
LINE
  5
14d
100
AcDbEntity
  8
Vrstva_1
 62
7
100
AcDbLine
 10
124.937018
 20
122.110335
 30
0.0
 11
124.937018
 21
122.533668
 31
0.0
  0
LINE
  5
14e
100
AcDbEntity
  8
Vrstva_1
 62
7
100
AcDbLine
 10
124.937018
 20
122.533668
 30
0.0
 11
125.360351
 21
122.533668
 31
0.0
  0
LINE
  5
14f
100
AcDbEntity
  8
Vrstva_1
 62
7
100
AcDbLine
 10
125.360351
 20
122.533668
 30
0.0
 11
125.783684
 21
122.533668
 31
0.0
  0
LINE
  5
150
100
AcDbEntity
  8
Vrstva_1
 62
7
100
AcDbLine
 10
125.783684
 20
122.533668
 30
0.0
 11
125.783684
 21
122.957001
 31
0.0
  0
LINE
  5
151
100
AcDbEntity
  8
Vrstva_1
 62
7
100
AcDbLine
 10
125.783684
 20
122.957001
 30
0.0
 11
125.783684
 21
123.380335
 31
0.0
  0
LINE
  5
152
100
AcDbEntity
  8
Vrstva_1
 62
7
100
AcDbLine
 10
125.783684
 20
123.380335
 30
0.0
 11
125.360351
 21
123.380335
 31
0.0
  0
LINE
  5
153
100
AcDbEntity
  8
Vrstva_1
 62
7
100
AcDbLine
 10
125.360351
 20
123.380335
 30
0.0
 11
124.937018
 21
123.380335
 31
0.0
  0
LINE
  5
154
100
AcDbEntity
  8
Vrstva_1
 62
7
100
AcDbLine
 10
124.937018
 20
123.380335
 30
0.0
 11
124.937018
 21
123.803668
 31
0.0
  0
LINE
  5
155
100
AcDbEntity
  8
Vrstva_1
 62
7
100
AcDbLine
 10
124.937018
 20
123.803668
 30
0.0
 11
124.937018
 21
124.227001
 31
0.0
  0
LINE
  5
156
100
AcDbEntity
  8
Vrstva_1
 62
7
100
AcDbLine
 10
124.937018
 20
124.227001
 30
0.0
 11
126.207018
 21
124.227001
 31
0.0
  0
LINE
  5
157
100
AcDbEntity
  8
Vrstva_1
 62
7
100
AcDbLine
 10
126.207018
 20
124.227001
 30
0.0
 11
127.477018
 21
124.227001
 31
0.0
  0
LINE
  5
158
100
AcDbEntity
  8
Vrstva_1
 62
7
100
AcDbLine
 10
127.477018
 20
124.227001
 30
0.0
 11
127.477018
 21
125.073668
 31
0.0
  0
LINE
  5
159
100
AcDbEntity
  8
Vrstva_1
 62
7
100
AcDbLine
 10
127.477018
 20
125.073668
 30
0.0
 11
127.477018
 21
125.920335
 31
0.0
  0
LINE
  5
15a
100
AcDbEntity
  8
Vrstva_1
 62
7
100
AcDbLine
 10
127.477018
 20
125.920335
 30
0.0
 11
127.900351
 21
125.920335
 31
0.0
  0
LINE
  5
15b
100
AcDbEntity
  8
Vrstva_1
 62
7
100
AcDbLine
 10
127.900351
 20
125.920335
 30
0.0
 11
128.323684
 21
125.920335
 31
0.0
  0
LINE
  5
15c
100
AcDbEntity
  8
Vrstva_1
 62
7
100
AcDbLine
 10
128.323684
 20
125.920335
 30
0.0
 11
128.323684
 21
126.343668
 31
0.0
  0
LINE
  5
15d
100
AcDbEntity
  8
Vrstva_1
 62
7
100
AcDbLine
 10
128.323684
 20
126.343668
 30
0.0
 11
128.323684
 21
126.767001
 31
0.0
  0
LINE
  5
15e
100
AcDbEntity
  8
Vrstva_1
 62
7
100
AcDbLine
 10
128.323684
 20
126.767001
 30
0.0
 11
127.900351
 21
126.767001
 31
0.0
  0
LINE
  5
15f
100
AcDbEntity
  8
Vrstva_1
 62
7
100
AcDbLine
 10
127.900351
 20
126.767001
 30
0.0
 11
127.477018
 21
126.767001
 31
0.0
  0
LINE
  5
160
100
AcDbEntity
  8
Vrstva_1
 62
7
100
AcDbLine
 10
127.477018
 20
126.767001
 30
0.0
 11
127.477018
 21
127.190335
 31
0.0
  0
LINE
  5
161
100
AcDbEntity
  8
Vrstva_1
 62
7
100
AcDbLine
 10
127.477018
 20
127.190335
 30
0.0
 11
127.477018
 21
127.613668
 31
0.0
  0
LINE
  5
162
100
AcDbEntity
  8
Vrstva_1
 62
7
100
AcDbLine
 10
127.477018
 20
127.613668
 30
0.0
 11
129.170351
 21
127.613668
 31
0.0
  0
LINE
  5
163
100
AcDbEntity
  8
Vrstva_1
 62
7
100
AcDbLine
 10
129.170351
 20
127.613668
 30
0.0
 11
130.863684
 21
127.613668
 31
0.0
  0
LINE
  5
164
100
AcDbEntity
  8
Vrstva_1
 62
7
100
AcDbLine
 10
130.863684
 20
127.613668
 30
0.0
 11
130.863684
 21
127.190335
 31
0.0
  0
LINE
  5
165
100
AcDbEntity
  8
Vrstva_1
 62
7
100
AcDbLine
 10
130.863684
 20
127.190335
 30
0.0
 11
130.863684
 21
126.767001
 31
0.0
  0
LINE
  5
166
100
AcDbEntity
  8
Vrstva_1
 62
7
100
AcDbLine
 10
130.863684
 20
126.767001
 30
0.0
 11
130.440351
 21
126.767001
 31
0.0
  0
LINE
  5
167
100
AcDbEntity
  8
Vrstva_1
 62
7
100
AcDbLine
 10
130.440351
 20
126.767001
 30
0.0
 11
130.017018
 21
126.767001
 31
0.0
  0
LINE
  5
168
100
AcDbEntity
  8
Vrstva_1
 62
7
100
AcDbLine
 10
130.017018
 20
126.767001
 30
0.0
 11
130.017018
 21
126.343668
 31
0.0
  0
LINE
  5
169
100
AcDbEntity
  8
Vrstva_1
 62
7
100
AcDbLine
 10
130.017018
 20
126.343668
 30
0.0
 11
130.017018
 21
125.920335
 31
0.0
  0
LINE
  5
16a
100
AcDbEntity
  8
Vrstva_1
 62
7
100
AcDbLine
 10
130.017018
 20
125.920335
 30
0.0
 11
129.593684
 21
125.920335
 31
0.0
  0
LINE
  5
16b
100
AcDbEntity
  8
Vrstva_1
 62
7
100
AcDbLine
 10
129.593684
 20
125.920335
 30
0.0
 11
129.170351
 21
125.920335
 31
0.0
  0
LINE
  5
16c
100
AcDbEntity
  8
Vrstva_1
 62
7
100
AcDbLine
 10
129.170351
 20
125.920335
 30
0.0
 11
129.170351
 21
125.497001
 31
0.0
  0
LINE
  5
16d
100
AcDbEntity
  8
Vrstva_1
 62
7
100
AcDbLine
 10
129.170351
 20
125.497001
 30
0.0
 11
129.170351
 21
125.073668
 31
0.0
  0
LINE
  5
16e
100
AcDbEntity
  8
Vrstva_1
 62
7
100
AcDbLine
 10
129.170351
 20
125.073668
 30
0.0
 11
128.747018
 21
125.073668
 31
0.0
  0
LINE
  5
16f
100
AcDbEntity
  8
Vrstva_1
 62
7
100
AcDbLine
 10
128.747018
 20
125.073668
 30
0.0
 11
128.323684
 21
125.073668
 31
0.0
  0
LINE
  5
170
100
AcDbEntity
  8
Vrstva_1
 62
7
100
AcDbLine
 10
128.323684
 20
125.073668
 30
0.0
 11
128.323684
 21
122.957001
 31
0.0
  0
LINE
  5
171
100
AcDbEntity
  8
Vrstva_1
 62
7
100
AcDbLine
 10
128.323684
 20
122.957001
 30
0.0
 11
128.323684
 21
120.840335
 31
0.0
  0
LINE
  5
172
100
AcDbEntity
  8
Vrstva_1
 62
7
100
AcDbLine
 10
128.323684
 20
120.840335
 30
0.0
 11
129.593684
 21
120.840335
 31
0.0
  0
LINE
  5
173
100
AcDbEntity
  8
Vrstva_1
 62
7
100
AcDbLine
 10
129.593684
 20
120.840335
 30
0.0
 11
130.863684
 21
120.840335
 31
0.0
  0
LINE
  5
174
100
AcDbEntity
  8
Vrstva_1
 62
7
100
AcDbLine
 10
130.863684
 20
120.840335
 30
0.0
 11
130.863684
 21
121.263668
 31
0.0
  0
LINE
  5
175
100
AcDbEntity
  8
Vrstva_1
 62
7
100
AcDbLine
 10
130.863684
 20
121.263668
 30
0.0
 11
130.863684
 21
121.687001
 31
0.0
  0
LINE
  5
176
100
AcDbEntity
  8
Vrstva_1
 62
7
100
AcDbLine
 10
130.863684
 20
121.687001
 30
0.0
 11
130.440351
 21
121.687001
 31
0.0
  0
LINE
  5
177
100
AcDbEntity
  8
Vrstva_1
 62
7
100
AcDbLine
 10
130.440351
 20
121.687001
 30
0.0
 11
130.017018
 21
121.687001
 31
0.0
  0
LINE
  5
178
100
AcDbEntity
  8
Vrstva_1
 62
7
100
AcDbLine
 10
130.017018
 20
121.687001
 30
0.0
 11
130.017018
 21
122.957001
 31
0.0
  0
LINE
  5
179
100
AcDbEntity
  8
Vrstva_1
 62
7
100
AcDbLine
 10
130.017018
 20
122.957001
 30
0.0
 11
130.017018
 21
124.227001
 31
0.0
  0
LINE
  5
17a
100
AcDbEntity
  8
Vrstva_1
 62
7
100
AcDbLine
 10
130.017018
 20
124.227001
 30
0.0
 11
129.593684
 21
124.227001
 31
0.0
  0
LINE
  5
17b
100
AcDbEntity
  8
Vrstva_1
 62
7
100
AcDbLine
 10
129.593684
 20
124.227001
 30
0.0
 11
129.170351
 21
124.227001
 31
0.0
  0
LINE
  5
17c
100
AcDbEntity
  8
Vrstva_1
 62
7
100
AcDbLine
 10
129.170351
 20
124.227001
 30
0.0
 11
129.170351
 21
124.650335
 31
0.0
  0
LINE
  5
17d
100
AcDbEntity
  8
Vrstva_1
 62
7
100
AcDbLine
 10
129.170351
 20
124.650335
 30
0.0
 11
129.170351
 21
125.073668
 31
0.0
  0
LINE
  5
17e
100
AcDbEntity
  8
Vrstva_1
 62
7
100
AcDbLine
 10
129.170351
 20
125.073668
 30
0.0
 11
129.593684
 21
125.073668
 31
0.0
  0
LINE
  5
17f
100
AcDbEntity
  8
Vrstva_1
 62
7
100
AcDbLine
 10
129.593684
 20
125.073668
 30
0.0
 11
130.017018
 21
125.073668
 31
0.0
  0
LINE
  5
180
100
AcDbEntity
  8
Vrstva_1
 62
7
100
AcDbLine
 10
130.017018
 20
125.073668
 30
0.0
 11
130.017018
 21
125.497001
 31
0.0
  0
LINE
  5
181
100
AcDbEntity
  8
Vrstva_1
 62
7
100
AcDbLine
 10
130.017018
 20
125.497001
 30
0.0
 11
130.017018
 21
125.920335
 31
0.0
  0
LINE
  5
182
100
AcDbEntity
  8
Vrstva_1
 62
7
100
AcDbLine
 10
130.017018
 20
125.920335
 30
0.0
 11
130.863684
 21
125.920335
 31
0.0
  0
LINE
  5
183
100
AcDbEntity
  8
Vrstva_1
 62
7
100
AcDbLine
 10
130.863684
 20
125.920335
 30
0.0
 11
131.710351
 21
125.920335
 31
0.0
  0
LINE
  5
184
100
AcDbEntity
  8
Vrstva_1
 62
7
100
AcDbLine
 10
131.710351
 20
125.920335
 30
0.0
 11
131.710351
 21
125.497001
 31
0.0
  0
LINE
  5
185
100
AcDbEntity
  8
Vrstva_1
 62
7
100
AcDbLine
 10
131.710351
 20
125.497001
 30
0.0
 11
131.710351
 21
125.073668
 31
0.0
  0
LINE
  5
186
100
AcDbEntity
  8
Vrstva_1
 62
7
100
AcDbLine
 10
131.710351
 20
125.073668
 30
0.0
 11
131.287018
 21
125.073668
 31
0.0
  0
LINE
  5
187
100
AcDbEntity
  8
Vrstva_1
 62
7
100
AcDbLine
 10
131.287018
 20
125.073668
 30
0.0
 11
130.863684
 21
125.073668
 31
0.0
  0
LINE
  5
188
100
AcDbEntity
  8
Vrstva_1
 62
7
100
AcDbLine
 10
130.863684
 20
125.073668
 30
0.0
 11
130.863684
 21
123.803668
 31
0.0
  0
LINE
  5
189
100
AcDbEntity
  8
Vrstva_1
 62
7
100
AcDbLine
 10
130.863684
 20
123.803668
 30
0.0
 11
130.863684
 21
122.533668
 31
0.0
  0
LINE
  5
18a
100
AcDbEntity
  8
Vrstva_1
 62
7
100
AcDbLine
 10
130.863684
 20
122.533668
 30
0.0
 11
131.287018
 21
122.533668
 31
0.0
  0
LINE
  5
18b
100
AcDbEntity
  8
Vrstva_1
 62
7
100
AcDbLine
 10
131.287018
 20
122.533668
 30
0.0
 11
131.710351
 21
122.533668
 31
0.0
  0
LINE
  5
18c
100
AcDbEntity
  8
Vrstva_1
 62
7
100
AcDbLine
 10
131.710351
 20
122.533668
 30
0.0
 11
131.710351
 21
123.803668
 31
0.0
  0
LINE
  5
18d
100
AcDbEntity
  8
Vrstva_1
 62
7
100
AcDbLine
 10
131.710351
 20
123.803668
 30
0.0
 11
131.710351
 21
125.073668
 31
0.0
  0
LINE
  5
18e
100
AcDbEntity
  8
Vrstva_1
 62
7
100
AcDbLine
 10
131.710351
 20
125.073668
 30
0.0
 11
132.133684
 21
125.073668
 31
0.0
  0
LINE
  5
18f
100
AcDbEntity
  8
Vrstva_1
 62
7
100
AcDbLine
 10
132.133684
 20
125.073668
 30
0.0
 11
132.557018
 21
125.073668
 31
0.0
  0
LINE
  5
190
100
AcDbEntity
  8
Vrstva_1
 62
7
100
AcDbLine
 10
132.557018
 20
125.073668
 30
0.0
 11
132.557018
 21
125.497001
 31
0.0
  0
LINE
  5
191
100
AcDbEntity
  8
Vrstva_1
 62
7
100
AcDbLine
 10
132.557018
 20
125.497001
 30
0.0
 11
132.557018
 21
125.920335
 31
0.0
  0
LINE
  5
192
100
AcDbEntity
  8
Vrstva_1
 62
7
100
AcDbLine
 10
132.557018
 20
125.920335
 30
0.0
 11
132.980351
 21
125.920335
 31
0.0
  0
LINE
  5
193
100
AcDbEntity
  8
Vrstva_1
 62
7
100
AcDbLine
 10
132.980351
 20
125.920335
 30
0.0
 11
133.403684
 21
125.920335
 31
0.0
  0
LINE
  5
194
100
AcDbEntity
  8
Vrstva_1
 62
7
100
AcDbLine
 10
133.403684
 20
125.920335
 30
0.0
 11
133.403684
 21
126.343668
 31
0.0
  0
LINE
  5
195
100
AcDbEntity
  8
Vrstva_1
 62
7
100
AcDbLine
 10
133.403684
 20
126.343668
 30
0.0
 11
133.403684
 21
126.767001
 31
0.0
  0
LINE
  5
196
100
AcDbEntity
  8
Vrstva_1
 62
7
100
AcDbLine
 10
133.403684
 20
126.767001
 30
0.0
 11
133.827018
 21
126.767001
 31
0.0
  0
LINE
  5
197
100
AcDbEntity
  8
Vrstva_1
 62
7
100
AcDbLine
 10
133.827018
 20
126.767001
 30
0.0
 11
134.250351
 21
126.767001
 31
0.0
  0
LINE
  5
198
100
AcDbEntity
  8
Vrstva_1
 62
7
100
AcDbLine
 10
134.250351
 20
126.767001
 30
0.0
 11
134.250351
 21
127.190335
 31
0.0
  0
LINE
  5
199
100
AcDbEntity
  8
Vrstva_1
 62
7
100
AcDbLine
 10
134.250351
 20
127.190335
 30
0.0
 11
134.250351
 21
127.613668
 31
0.0
  0
LINE
  5
19a
100
AcDbEntity
  8
Vrstva_1
 62
7
100
AcDbLine
 10
134.250351
 20
127.613668
 30
0.0
 11
134.673684
 21
127.613668
 31
0.0
  0
LINE
  5
19b
100
AcDbEntity
  8
Vrstva_1
 62
7
100
AcDbLine
 10
134.673684
 20
127.613668
 30
0.0
 11
135.097018
 21
127.613668
 31
0.0
  0
LINE
  5
19c
100
AcDbEntity
  8
Vrstva_1
 62
7
100
AcDbLine
 10
135.097018
 20
127.613668
 30
0.0
 11
135.097018
 21
127.190335
 31
0.0
  0
LINE
  5
19d
100
AcDbEntity
  8
Vrstva_1
 62
7
100
AcDbLine
 10
135.097018
 20
127.190335
 30
0.0
 11
135.097018
 21
126.767001
 31
0.0
  0
LINE
  5
19e
100
AcDbEntity
  8
Vrstva_1
 62
7
100
AcDbLine
 10
135.097018
 20
126.767001
 30
0.0
 11
134.673684
 21
126.767001
 31
0.0
  0
LINE
  5
19f
100
AcDbEntity
  8
Vrstva_1
 62
7
100
AcDbLine
 10
134.673684
 20
126.767001
 30
0.0
 11
134.250351
 21
126.767001
 31
0.0
  0
LINE
  5
1a0
100
AcDbEntity
  8
Vrstva_1
 62
7
100
AcDbLine
 10
134.250351
 20
126.767001
 30
0.0
 11
134.250351
 21
126.343668
 31
0.0
  0
LINE
  5
1a1
100
AcDbEntity
  8
Vrstva_1
 62
7
100
AcDbLine
 10
134.250351
 20
126.343668
 30
0.0
 11
134.250351
 21
125.920335
 31
0.0
  0
LINE
  5
1a2
100
AcDbEntity
  8
Vrstva_1
 62
7
100
AcDbLine
 10
134.250351
 20
125.920335
 30
0.0
 11
133.827018
 21
125.920335
 31
0.0
  0
LINE
  5
1a3
100
AcDbEntity
  8
Vrstva_1
 62
7
100
AcDbLine
 10
133.827018
 20
125.920335
 30
0.0
 11
133.403684
 21
125.920335
 31
0.0
  0
LINE
  5
1a4
100
AcDbEntity
  8
Vrstva_1
 62
7
100
AcDbLine
 10
133.403684
 20
125.920335
 30
0.0
 11
133.403684
 21
125.073668
 31
0.0
  0
LINE
  5
1a5
100
AcDbEntity
  8
Vrstva_1
 62
7
100
AcDbLine
 10
133.403684
 20
125.073668
 30
0.0
 11
133.403684
 21
124.227001
 31
0.0
  0
LINE
  5
1a6
100
AcDbEntity
  8
Vrstva_1
 62
7
100
AcDbLine
 10
133.403684
 20
124.227001
 30
0.0
 11
133.827018
 21
124.227001
 31
0.0
  0
LINE
  5
1a7
100
AcDbEntity
  8
Vrstva_1
 62
7
100
AcDbLine
 10
133.827018
 20
124.227001
 30
0.0
 11
134.250351
 21
124.227001
 31
0.0
  0
LINE
  5
1a8
100
AcDbEntity
  8
Vrstva_1
 62
7
100
AcDbLine
 10
134.250351
 20
124.227001
 30
0.0
 11
134.250351
 21
123.803668
 31
0.0
  0
LINE
  5
1a9
100
AcDbEntity
  8
Vrstva_1
 62
7
100
AcDbLine
 10
134.250351
 20
123.803668
 30
0.0
 11
134.250351
 21
123.380335
 31
0.0
  0
LINE
  5
1aa
100
AcDbEntity
  8
Vrstva_1
 62
7
100
AcDbLine
 10
134.250351
 20
123.380335
 30
0.0
 11
134.673684
 21
123.380335
 31
0.0
  0
LINE
  5
1ab
100
AcDbEntity
  8
Vrstva_1
 62
7
100
AcDbLine
 10
134.673684
 20
123.380335
 30
0.0
 11
135.097018
 21
123.380335
 31
0.0
  0
LINE
  5
1ac
100
AcDbEntity
  8
Vrstva_1
 62
7
100
AcDbLine
 10
135.097018
 20
123.380335
 30
0.0
 11
135.097018
 21
123.803668
 31
0.0
  0
LINE
  5
1ad
100
AcDbEntity
  8
Vrstva_1
 62
7
100
AcDbLine
 10
135.097018
 20
123.803668
 30
0.0
 11
135.097018
 21
124.227001
 31
0.0
  0
LINE
  5
1ae
100
AcDbEntity
  8
Vrstva_1
 62
7
100
AcDbLine
 10
135.097018
 20
124.227001
 30
0.0
 11
135.520351
 21
124.227001
 31
0.0
  0
LINE
  5
1af
100
AcDbEntity
  8
Vrstva_1
 62
7
100
AcDbLine
 10
135.520351
 20
124.227001
 30
0.0
 11
135.943684
 21
124.227001
 31
0.0
  0
LINE
  5
1b0
100
AcDbEntity
  8
Vrstva_1
 62
7
100
AcDbLine
 10
135.943684
 20
124.227001
 30
0.0
 11
135.943684
 21
125.073668
 31
0.0
  0
LINE
  5
1b1
100
AcDbEntity
  8
Vrstva_1
 62
7
100
AcDbLine
 10
135.943684
 20
125.073668
 30
0.0
 11
135.943684
 21
125.920335
 31
0.0
  0
LINE
  5
1b2
100
AcDbEntity
  8
Vrstva_1
 62
7
100
AcDbLine
 10
135.943684
 20
125.920335
 30
0.0
 11
136.790351
 21
125.920335
 31
0.0
  0
LINE
  5
1b3
100
AcDbEntity
  8
Vrstva_1
 62
7
100
AcDbLine
 10
136.790351
 20
125.920335
 30
0.0
 11
137.637018
 21
125.920335
 31
0.0
  0
LINE
  5
1b4
100
AcDbEntity
  8
Vrstva_1
 62
7
100
AcDbLine
 10
137.637018
 20
125.920335
 30
0.0
 11
137.637018
 21
125.073668
 31
0.0
  0
LINE
  5
1b5
100
AcDbEntity
  8
Vrstva_1
 62
7
100
AcDbLine
 10
137.637018
 20
125.073668
 30
0.0
 11
137.637018
 21
124.227001
 31
0.0
  0
LINE
  5
1b6
100
AcDbEntity
  8
Vrstva_1
 62
7
100
AcDbLine
 10
137.637018
 20
124.227001
 30
0.0
 11
138.060351
 21
124.227001
 31
0.0
  0
LINE
  5
1b7
100
AcDbEntity
  8
Vrstva_1
 62
7
100
AcDbLine
 10
138.060351
 20
124.227001
 30
0.0
 11
138.483684
 21
124.227001
 31
0.0
  0
LINE
  5
1b8
100
AcDbEntity
  8
Vrstva_1
 62
7
100
AcDbLine
 10
138.483684
 20
124.227001
 30
0.0
 11
138.483684
 21
123.803668
 31
0.0
  0
LINE
  5
1b9
100
AcDbEntity
  8
Vrstva_1
 62
7
100
AcDbLine
 10
138.483684
 20
123.803668
 30
0.0
 11
138.483684
 21
123.380335
 31
0.0
  0
LINE
  5
1ba
100
AcDbEntity
  8
Vrstva_1
 62
7
100
AcDbLine
 10
138.483684
 20
123.380335
 30
0.0
 11
136.790351
 21
123.380335
 31
0.0
  0
LINE
  5
1bb
100
AcDbEntity
  8
Vrstva_1
 62
7
100
AcDbLine
 10
136.790351
 20
123.380335
 30
0.0
 11
135.097018
 21
123.380335
 31
0.0
  0
LINE
  5
1bc
100
AcDbEntity
  8
Vrstva_1
 62
7
100
AcDbLine
 10
135.097018
 20
123.380335
 30
0.0
 11
135.097018
 21
122.110335
 31
0.0
  0
LINE
  5
1bd
100
AcDbEntity
  8
Vrstva_1
 62
7
100
AcDbLine
 10
135.097018
 20
122.110335
 30
0.0
 11
135.097018
 21
120.840335
 31
0.0
  0
LINE
  5
1be
100
AcDbEntity
  8
Vrstva_1
 62
7
100
AcDbLine
 10
135.097018
 20
120.840335
 30
0.0
 11
135.520351
 21
120.840335
 31
0.0
  0
LINE
  5
1bf
100
AcDbEntity
  8
Vrstva_1
 62
7
100
AcDbLine
 10
135.520351
 20
120.840335
 30
0.0
 11
135.943684
 21
120.840335
 31
0.0
  0
LINE
  5
1c0
100
AcDbEntity
  8
Vrstva_1
 62
7
100
AcDbLine
 10
135.943684
 20
120.840335
 30
0.0
 11
135.943684
 21
120.417001
 31
0.0
  0
LINE
  5
1c1
100
AcDbEntity
  8
Vrstva_1
 62
7
100
AcDbLine
 10
135.943684
 20
120.417001
 30
0.0
 11
135.943684
 21
119.993668
 31
0.0
  0
LINE
  5
1c2
100
AcDbEntity
  8
Vrstva_1
 62
7
100
AcDbLine
 10
135.943684
 20
119.993668
 30
0.0
 11
136.367018
 21
119.993668
 31
0.0
  0
LINE
  5
1c3
100
AcDbEntity
  8
Vrstva_1
 62
7
100
AcDbLine
 10
136.367018
 20
119.993668
 30
0.0
 11
136.790351
 21
119.993668
 31
0.0
  0
LINE
  5
1c4
100
AcDbEntity
  8
Vrstva_1
 62
7
100
AcDbLine
 10
136.790351
 20
119.993668
 30
0.0
 11
136.790351
 21
120.417001
 31
0.0
  0
LINE
  5
1c5
100
AcDbEntity
  8
Vrstva_1
 62
7
100
AcDbLine
 10
136.790351
 20
120.417001
 30
0.0
 11
136.790351
 21
120.840335
 31
0.0
  0
LINE
  5
1c6
100
AcDbEntity
  8
Vrstva_1
 62
7
100
AcDbLine
 10
136.790351
 20
120.840335
 30
0.0
 11
136.367018
 21
120.840335
 31
0.0
  0
LINE
  5
1c7
100
AcDbEntity
  8
Vrstva_1
 62
7
100
AcDbLine
 10
136.367018
 20
120.840335
 30
0.0
 11
135.943684
 21
120.840335
 31
0.0
  0
LINE
  5
1c8
100
AcDbEntity
  8
Vrstva_1
 62
7
100
AcDbLine
 10
135.943684
 20
120.840335
 30
0.0
 11
135.943684
 21
121.263668
 31
0.0
  0
LINE
  5
1c9
100
AcDbEntity
  8
Vrstva_1
 62
7
100
AcDbLine
 10
135.943684
 20
121.263668
 30
0.0
 11
135.943684
 21
121.687001
 31
0.0
  0
LINE
  5
1ca
100
AcDbEntity
  8
Vrstva_1
 62
7
100
AcDbLine
 10
135.943684
 20
121.687001
 30
0.0
 11
136.790351
 21
121.687001
 31
0.0
  0
LINE
  5
1cb
100
AcDbEntity
  8
Vrstva_1
 62
7
100
AcDbLine
 10
136.790351
 20
121.687001
 30
0.0
 11
137.637018
 21
121.687001
 31
0.0
  0
LINE
  5
1cc
100
AcDbEntity
  8
Vrstva_1
 62
7
100
AcDbLine
 10
137.637018
 20
121.687001
 30
0.0
 11
137.637018
 21
122.110335
 31
0.0
  0
LINE
  5
1cd
100
AcDbEntity
  8
Vrstva_1
 62
7
100
AcDbLine
 10
137.637018
 20
122.110335
 30
0.0
 11
137.637018
 21
122.533668
 31
0.0
  0
LINE
  5
1ce
100
AcDbEntity
  8
Vrstva_1
 62
7
100
AcDbLine
 10
137.637018
 20
122.533668
 30
0.0
 11
138.060351
 21
122.533668
 31
0.0
  0
LINE
  5
1cf
100
AcDbEntity
  8
Vrstva_1
 62
7
100
AcDbLine
 10
138.060351
 20
122.533668
 30
0.0
 11
138.483684
 21
122.533668
 31
0.0
  0
LINE
  5
1d0
100
AcDbEntity
  8
Vrstva_1
 62
7
100
AcDbLine
 10
138.483684
 20
122.533668
 30
0.0
 11
138.483684
 21
122.110335
 31
0.0
  0
LINE
  5
1d1
100
AcDbEntity
  8
Vrstva_1
 62
7
100
AcDbLine
 10
138.483684
 20
122.110335
 30
0.0
 11
138.483684
 21
121.687001
 31
0.0
  0
LINE
  5
1d2
100
AcDbEntity
  8
Vrstva_1
 62
7
100
AcDbLine
 10
138.483684
 20
121.687001
 30
0.0
 11
138.907018
 21
121.687001
 31
0.0
  0
LINE
  5
1d3
100
AcDbEntity
  8
Vrstva_1
 62
7
100
AcDbLine
 10
138.907018
 20
121.687001
 30
0.0
 11
139.330351
 21
121.687001
 31
0.0
  0
LINE
  5
1d4
100
AcDbEntity
  8
Vrstva_1
 62
7
100
AcDbLine
 10
139.330351
 20
121.687001
 30
0.0
 11
139.330351
 21
122.110335
 31
0.0
  0
LINE
  5
1d5
100
AcDbEntity
  8
Vrstva_1
 62
7
100
AcDbLine
 10
139.330351
 20
122.110335
 30
0.0
 11
139.330351
 21
122.533668
 31
0.0
  0
LINE
  5
1d6
100
AcDbEntity
  8
Vrstva_1
 62
7
100
AcDbLine
 10
139.330351
 20
122.533668
 30
0.0
 11
139.753684
 21
122.533668
 31
0.0
  0
LINE
  5
1d7
100
AcDbEntity
  8
Vrstva_1
 62
7
100
AcDbLine
 10
139.753684
 20
122.533668
 30
0.0
 11
140.177018
 21
122.533668
 31
0.0
  0
LINE
  5
1d8
100
AcDbEntity
  8
Vrstva_1
 62
7
100
AcDbLine
 10
140.177018
 20
122.533668
 30
0.0
 11
140.177018
 21
122.110335
 31
0.0
  0
LINE
  5
1d9
100
AcDbEntity
  8
Vrstva_1
 62
7
100
AcDbLine
 10
140.177018
 20
122.110335
 30
0.0
 11
140.177018
 21
121.687001
 31
0.0
  0
LINE
  5
1da
100
AcDbEntity
  8
Vrstva_1
 62
7
100
AcDbLine
 10
140.177018
 20
121.687001
 30
0.0
 11
139.753684
 21
121.687001
 31
0.0
  0
LINE
  5
1db
100
AcDbEntity
  8
Vrstva_1
 62
7
100
AcDbLine
 10
139.753684
 20
121.687001
 30
0.0
 11
139.330351
 21
121.687001
 31
0.0
  0
LINE
  5
1dc
100
AcDbEntity
  8
Vrstva_1
 62
7
100
AcDbLine
 10
139.330351
 20
121.687001
 30
0.0
 11
139.330351
 21
121.263668
 31
0.0
  0
LINE
  5
1dd
100
AcDbEntity
  8
Vrstva_1
 62
7
100
AcDbLine
 10
139.330351
 20
121.263668
 30
0.0
 11
139.330351
 21
120.840335
 31
0.0
  0
LINE
  5
1de
100
AcDbEntity
  8
Vrstva_1
 62
7
100
AcDbLine
 10
139.330351
 20
120.840335
 30
0.0
 11
140.600351
 21
120.840335
 31
0.0
  0
LINE
  5
1df
100
AcDbEntity
  8
Vrstva_1
 62
7
100
AcDbLine
 10
140.600351
 20
120.840335
 30
0.0
 11
141.870351
 21
120.840335
 31
0.0
  0
LINE
  5
1e0
100
AcDbEntity
  8
Vrstva_1
 62
7
100
AcDbLine
 10
141.870351
 20
120.840335
 30
0.0
 11
141.870351
 21
121.263668
 31
0.0
  0
LINE
  5
1e1
100
AcDbEntity
  8
Vrstva_1
 62
7
100
AcDbLine
 10
141.870351
 20
121.263668
 30
0.0
 11
141.870351
 21
121.687001
 31
0.0
  0
LINE
  5
1e2
100
AcDbEntity
  8
Vrstva_1
 62
7
100
AcDbLine
 10
141.870351
 20
121.687001
 30
0.0
 11
141.447018
 21
121.687001
 31
0.0
  0
LINE
  5
1e3
100
AcDbEntity
  8
Vrstva_1
 62
7
100
AcDbLine
 10
141.447018
 20
121.687001
 30
0.0
 11
141.023684
 21
121.687001
 31
0.0
  0
LINE
  5
1e4
100
AcDbEntity
  8
Vrstva_1
 62
7
100
AcDbLine
 10
141.023684
 20
121.687001
 30
0.0
 11
141.023684
 21
122.110335
 31
0.0
  0
LINE
  5
1e5
100
AcDbEntity
  8
Vrstva_1
 62
7
100
AcDbLine
 10
141.023684
 20
122.110335
 30
0.0
 11
141.023684
 21
122.533668
 31
0.0
  0
LINE
  5
1e6
100
AcDbEntity
  8
Vrstva_1
 62
7
100
AcDbLine
 10
141.023684
 20
122.533668
 30
0.0
 11
141.447018
 21
122.533668
 31
0.0
  0
LINE
  5
1e7
100
AcDbEntity
  8
Vrstva_1
 62
7
100
AcDbLine
 10
141.447018
 20
122.533668
 30
0.0
 11
141.870351
 21
122.533668
 31
0.0
  0
LINE
  5
1e8
100
AcDbEntity
  8
Vrstva_1
 62
7
100
AcDbLine
 10
141.870351
 20
122.533668
 30
0.0
 11
141.870351
 21
122.957001
 31
0.0
  0
LINE
  5
1e9
100
AcDbEntity
  8
Vrstva_1
 62
7
100
AcDbLine
 10
141.870351
 20
122.957001
 30
0.0
 11
141.870351
 21
123.380335
 31
0.0
  0
LINE
  5
1ea
100
AcDbEntity
  8
Vrstva_1
 62
7
100
AcDbLine
 10
141.870351
 20
123.380335
 30
0.0
 11
142.293684
 21
123.380335
 31
0.0
  0
LINE
  5
1eb
100
AcDbEntity
  8
Vrstva_1
 62
7
100
AcDbLine
 10
142.293684
 20
123.380335
 30
0.0
 11
142.717018
 21
123.380335
 31
0.0
  0
LINE
  5
1ec
100
AcDbEntity
  8
Vrstva_1
 62
7
100
AcDbLine
 10
142.717018
 20
123.380335
 30
0.0
 11
142.717018
 21
124.227001
 31
0.0
  0
LINE
  5
1ed
100
AcDbEntity
  8
Vrstva_1
 62
7
100
AcDbLine
 10
142.717018
 20
124.227001
 30
0.0
 11
142.717018
 21
125.073668
 31
0.0
  0
LINE
  5
1ee
100
AcDbEntity
  8
Vrstva_1
 62
7
100
AcDbLine
 10
142.717018
 20
125.073668
 30
0.0
 11
141.447018
 21
125.073668
 31
0.0
  0
LINE
  5
1ef
100
AcDbEntity
  8
Vrstva_1
 62
7
100
AcDbLine
 10
141.447018
 20
125.073668
 30
0.0
 11
140.177018
 21
125.073668
 31
0.0
  0
LINE
  5
1f0
100
AcDbEntity
  8
Vrstva_1
 62
7
100
AcDbLine
 10
140.177018
 20
125.073668
 30
0.0
 11
140.177018
 21
124.650335
 31
0.0
  0
LINE
  5
1f1
100
AcDbEntity
  8
Vrstva_1
 62
7
100
AcDbLine
 10
140.177018
 20
124.650335
 30
0.0
 11
140.177018
 21
124.227001
 31
0.0
  0
LINE
  5
1f2
100
AcDbEntity
  8
Vrstva_1
 62
7
100
AcDbLine
 10
140.177018
 20
124.227001
 30
0.0
 11
140.600351
 21
124.227001
 31
0.0
  0
LINE
  5
1f3
100
AcDbEntity
  8
Vrstva_1
 62
7
100
AcDbLine
 10
140.600351
 20
124.227001
 30
0.0
 11
141.023684
 21
124.227001
 31
0.0
  0
LINE
  5
1f4
100
AcDbEntity
  8
Vrstva_1
 62
7
100
AcDbLine
 10
141.023684
 20
124.227001
 30
0.0
 11
141.023684
 21
123.803668
 31
0.0
  0
LINE
  5
1f5
100
AcDbEntity
  8
Vrstva_1
 62
7
100
AcDbLine
 10
141.023684
 20
123.803668
 30
0.0
 11
141.023684
 21
123.380335
 31
0.0
  0
LINE
  5
1f6
100
AcDbEntity
  8
Vrstva_1
 62
7
100
AcDbLine
 10
141.023684
 20
123.380335
 30
0.0
 11
140.177018
 21
123.380335
 31
0.0
  0
LINE
  5
1f7
100
AcDbEntity
  8
Vrstva_1
 62
7
100
AcDbLine
 10
140.177018
 20
123.380335
 30
0.0
 11
139.330351
 21
123.380335
 31
0.0
  0
LINE
  5
1f8
100
AcDbEntity
  8
Vrstva_1
 62
7
100
AcDbLine
 10
139.330351
 20
123.380335
 30
0.0
 11
139.330351
 21
124.227001
 31
0.0
  0
LINE
  5
1f9
100
AcDbEntity
  8
Vrstva_1
 62
7
100
AcDbLine
 10
139.330351
 20
124.227001
 30
0.0
 11
139.330351
 21
125.073668
 31
0.0
  0
LINE
  5
1fa
100
AcDbEntity
  8
Vrstva_1
 62
7
100
AcDbLine
 10
139.330351
 20
125.073668
 30
0.0
 11
138.907018
 21
125.073668
 31
0.0
  0
LINE
  5
1fb
100
AcDbEntity
  8
Vrstva_1
 62
7
100
AcDbLine
 10
138.907018
 20
125.073668
 30
0.0
 11
138.483684
 21
125.073668
 31
0.0
  0
LINE
  5
1fc
100
AcDbEntity
  8
Vrstva_1
 62
7
100
AcDbLine
 10
138.483684
 20
125.073668
 30
0.0
 11
138.483684
 21
125.920335
 31
0.0
  0
LINE
  5
1fd
100
AcDbEntity
  8
Vrstva_1
 62
7
100
AcDbLine
 10
138.483684
 20
125.920335
 30
0.0
 11
138.483684
 21
126.767001
 31
0.0
  0
LINE
  5
1fe
100
AcDbEntity
  8
Vrstva_1
 62
7
100
AcDbLine
 10
138.483684
 20
126.767001
 30
0.0
 11
138.907018
 21
126.767001
 31
0.0
  0
LINE
  5
1ff
100
AcDbEntity
  8
Vrstva_1
 62
7
100
AcDbLine
 10
138.907018
 20
126.767001
 30
0.0
 11
139.330351
 21
126.767001
 31
0.0
  0
LINE
  5
200
100
AcDbEntity
  8
Vrstva_1
 62
7
100
AcDbLine
 10
139.330351
 20
126.767001
 30
0.0
 11
139.330351
 21
125.920335
 31
0.0
  0
LINE
  5
201
100
AcDbEntity
  8
Vrstva_1
 62
7
100
AcDbLine
 10
139.330351
 20
125.920335
 30
0.0
 11
139.330351
 21
125.073668
 31
0.0
  0
LINE
  5
202
100
AcDbEntity
  8
Vrstva_1
 62
7
100
AcDbLine
 10
139.330351
 20
125.073668
 30
0.0
 11
139.753684
 21
125.073668
 31
0.0
  0
LINE
  5
203
100
AcDbEntity
  8
Vrstva_1
 62
7
100
AcDbLine
 10
139.753684
 20
125.073668
 30
0.0
 11
140.177018
 21
125.073668
 31
0.0
  0
LINE
  5
204
100
AcDbEntity
  8
Vrstva_1
 62
7
100
AcDbLine
 10
140.177018
 20
125.073668
 30
0.0
 11
140.177018
 21
125.497001
 31
0.0
  0
LINE
  5
205
100
AcDbEntity
  8
Vrstva_1
 62
7
100
AcDbLine
 10
140.177018
 20
125.497001
 30
0.0
 11
140.177018
 21
125.920335
 31
0.0
  0
LINE
  5
206
100
AcDbEntity
  8
Vrstva_1
 62
7
100
AcDbLine
 10
140.177018
 20
125.920335
 30
0.0
 11
141.447018
 21
125.920335
 31
0.0
  0
LINE
  5
207
100
AcDbEntity
  8
Vrstva_1
 62
7
100
AcDbLine
 10
141.447018
 20
125.920335
 30
0.0
 11
142.717018
 21
125.920335
 31
0.0
  0
LINE
  5
208
100
AcDbEntity
  8
Vrstva_1
 62
7
100
AcDbLine
 10
142.717018
 20
125.920335
 30
0.0
 11
142.717018
 21
126.343668
 31
0.0
  0
LINE
  5
209
100
AcDbEntity
  8
Vrstva_1
 62
7
100
AcDbLine
 10
142.717018
 20
126.343668
 30
0.0
 11
142.717018
 21
126.767001
 31
0.0
  0
LINE
  5
20a
100
AcDbEntity
  8
Vrstva_1
 62
7
100
AcDbLine
 10
142.717018
 20
126.767001
 30
0.0
 11
143.563684
 21
126.767001
 31
0.0
  0
LINE
  5
20b
100
AcDbEntity
  8
Vrstva_1
 62
7
100
AcDbLine
 10
143.563684
 20
126.767001
 30
0.0
 11
144.410351
 21
126.767001
 31
0.0
  0
LINE
  5
20c
100
AcDbEntity
  8
Vrstva_1
 62
7
100
AcDbLine
 10
144.410351
 20
126.767001
 30
0.0
 11
144.410351
 21
125.920335
 31
0.0
  0
LINE
  5
20d
100
AcDbEntity
  8
Vrstva_1
 62
7
100
AcDbLine
 10
144.410351
 20
125.920335
 30
0.0
 11
144.410351
 21
125.073668
 31
0.0
  0
LINE
  5
20e
100
AcDbEntity
  8
Vrstva_1
 62
7
100
AcDbLine
 10
144.410351
 20
125.073668
 30
0.0
 11
143.987018
 21
125.073668
 31
0.0
  0
LINE
  5
20f
100
AcDbEntity
  8
Vrstva_1
 62
7
100
AcDbLine
 10
143.987018
 20
125.073668
 30
0.0
 11
143.563684
 21
125.073668
 31
0.0
  0
LINE
  5
210
100
AcDbEntity
  8
Vrstva_1
 62
7
100
AcDbLine
 10
143.563684
 20
125.073668
 30
0.0
 11
143.563684
 21
123.803668
 31
0.0
  0
LINE
  5
211
100
AcDbEntity
  8
Vrstva_1
 62
7
100
AcDbLine
 10
143.563684
 20
123.803668
 30
0.0
 11
143.563684
 21
122.533668
 31
0.0
  0
LINE
  5
212
100
AcDbEntity
  8
Vrstva_1
 62
7
100
AcDbLine
 10
143.563684
 20
122.533668
 30
0.0
 11
143.140351
 21
122.533668
 31
0.0
  0
LINE
  5
213
100
AcDbEntity
  8
Vrstva_1
 62
7
100
AcDbLine
 10
143.140351
 20
122.533668
 30
0.0
 11
142.717018
 21
122.533668
 31
0.0
  0
LINE
  5
214
100
AcDbEntity
  8
Vrstva_1
 62
7
100
AcDbLine
 10
142.717018
 20
122.533668
 30
0.0
 11
142.717018
 21
121.263668
 31
0.0
  0
LINE
  5
215
100
AcDbEntity
  8
Vrstva_1
 62
7
100
AcDbLine
 10
142.717018
 20
121.263668
 30
0.0
 11
142.717018
 21
119.993668
 31
0.0
  0
LINE
  5
216
100
AcDbEntity
  8
Vrstva_1
 62
7
100
AcDbLine
 10
142.717018
 20
119.993668
 30
0.0
 11
143.563684
 21
119.993668
 31
0.0
  0
LINE
  5
217
100
AcDbEntity
  8
Vrstva_1
 62
7
100
AcDbLine
 10
143.563684
 20
119.993668
 30
0.0
 11
144.410351
 21
119.993668
 31
0.0
  0
LINE
  5
218
100
AcDbEntity
  8
Vrstva_1
 62
7
100
AcDbLine
 10
144.410351
 20
119.993668
 30
0.0
 11
144.410351
 21
119.570335
 31
0.0
  0
LINE
  5
219
100
AcDbEntity
  8
Vrstva_1
 62
7
100
AcDbLine
 10
144.410351
 20
119.570335
 30
0.0
 11
144.410351
 21
119.147001
 31
0.0
  0
LINE
  5
21a
100
AcDbEntity
  8
Vrstva_1
 62
7
100
AcDbLine
 10
144.410351
 20
119.147001
 30
0.0
 11
143.987018
 21
119.147001
 31
0.0
  0
LINE
  5
21b
100
AcDbEntity
  8
Vrstva_1
 62
7
100
AcDbLine
 10
143.987018
 20
119.147001
 30
0.0
 11
143.563684
 21
119.147001
 31
0.0
  0
LINE
  5
21c
100
AcDbEntity
  8
Vrstva_1
 62
7
100
AcDbLine
 10
143.563684
 20
119.147001
 30
0.0
 11
143.563684
 21
118.723668
 31
0.0
  0
LINE
  5
21d
100
AcDbEntity
  8
Vrstva_1
 62
7
100
AcDbLine
 10
143.563684
 20
118.723668
 30
0.0
 11
143.563684
 21
118.300335
 31
0.0
  0
LINE
  5
21e
100
AcDbEntity
  8
Vrstva_1
 62
7
100
AcDbLine
 10
143.563684
 20
118.300335
 30
0.0
 11
143.987018
 21
118.300335
 31
0.0
  0
LINE
  5
21f
100
AcDbEntity
  8
Vrstva_1
 62
7
100
AcDbLine
 10
143.987018
 20
118.300335
 30
0.0
 11
144.410351
 21
118.300335
 31
0.0
  0
LINE
  5
220
100
AcDbEntity
  8
Vrstva_1
 62
7
100
AcDbLine
 10
144.410351
 20
118.300335
 30
0.0
 11
144.410351
 21
117.453668
 31
0.0
  0
LINE
  5
221
100
AcDbEntity
  8
Vrstva_1
 62
7
100
AcDbLine
 10
144.410351
 20
117.453668
 30
0.0
 11
144.410351
 21
116.607001
 31
0.0
  0
LINE
  5
222
100
AcDbEntity
  8
Vrstva_1
 62
7
100
AcDbLine
 10
144.410351
 20
116.607001
 30
0.0
 11
143.987018
 21
116.607001
 31
0.0
  0
LINE
  5
223
100
AcDbEntity
  8
Vrstva_1
 62
7
100
AcDbLine
 10
143.987018
 20
116.607001
 30
0.0
 11
143.563684
 21
116.607001
 31
0.0
  0
LINE
  5
224
100
AcDbEntity
  8
Vrstva_1
 62
7
100
AcDbLine
 10
143.563684
 20
116.607001
 30
0.0
 11
143.563684
 21
116.183668
 31
0.0
  0
LINE
  5
225
100
AcDbEntity
  8
Vrstva_1
 62
7
100
AcDbLine
 10
143.563684
 20
116.183668
 30
0.0
 11
143.563684
 21
115.760335
 31
0.0
  0
LINE
  5
226
100
AcDbEntity
  8
Vrstva_1
 62
7
100
AcDbLine
 10
143.563684
 20
115.760335
 30
0.0
 11
143.987018
 21
115.760335
 31
0.0
  0
LINE
  5
227
100
AcDbEntity
  8
Vrstva_1
 62
7
100
AcDbLine
 10
143.987018
 20
115.760335
 30
0.0
 11
144.410351
 21
115.760335
 31
0.0
  0
LINE
  5
228
100
AcDbEntity
  8
Vrstva_1
 62
7
100
AcDbLine
 10
144.410351
 20
115.760335
 30
0.0
 11
144.410351
 21
115.337001
 31
0.0
  0
LINE
  5
229
100
AcDbEntity
  8
Vrstva_1
 62
7
100
AcDbLine
 10
144.410351
 20
115.337001
 30
0.0
 11
144.410351
 21
114.913668
 31
0.0
  0
LINE
  5
22a
100
AcDbEntity
  8
Vrstva_1
 62
7
100
AcDbLine
 10
144.410351
 20
114.913668
 30
0.0
 11
143.987018
 21
114.913668
 31
0.0
  0
LINE
  5
22b
100
AcDbEntity
  8
Vrstva_1
 62
7
100
AcDbLine
 10
143.987018
 20
114.913668
 30
0.0
 11
143.563684
 21
114.913668
 31
0.0
  0
LINE
  5
22c
100
AcDbEntity
  8
Vrstva_1
 62
7
100
AcDbLine
 10
143.563684
 20
114.913668
 30
0.0
 11
143.563684
 21
114.067001
 31
0.0
  0
LINE
  5
22d
100
AcDbEntity
  8
Vrstva_1
 62
7
100
AcDbLine
 10
143.563684
 20
114.067001
 30
0.0
 11
143.563684
 21
113.220335
 31
0.0
  0
LINE
  5
22e
100
AcDbEntity
  8
Vrstva_1
 62
7
100
AcDbLine
 10
143.563684
 20
113.220335
 30
0.0
 11
143.140351
 21
113.220335
 31
0.0
  0
LINE
  5
22f
100
AcDbEntity
  8
Vrstva_1
 62
7
100
AcDbLine
 10
143.140351
 20
113.220335
 30
0.0
 11
142.717018
 21
113.220335
 31
0.0
  0
LINE
  5
230
100
AcDbEntity
  8
Vrstva_1
 62
7
100
AcDbLine
 10
142.717018
 20
113.220335
 30
0.0
 11
142.717018
 21
114.067001
 31
0.0
  0
LINE
  5
231
100
AcDbEntity
  8
Vrstva_1
 62
7
100
AcDbLine
 10
142.717018
 20
114.067001
 30
0.0
 11
142.717018
 21
114.913668
 31
0.0
  0
LINE
  5
232
100
AcDbEntity
  8
Vrstva_1
 62
7
100
AcDbLine
 10
142.717018
 20
114.913668
 30
0.0
 11
143.140351
 21
114.913668
 31
0.0
  0
LINE
  5
233
100
AcDbEntity
  8
Vrstva_1
 62
7
100
AcDbLine
 10
143.140351
 20
114.913668
 30
0.0
 11
143.563684
 21
114.913668
 31
0.0
  0
LINE
  5
234
100
AcDbEntity
  8
Vrstva_1
 62
7
100
AcDbLine
 10
143.563684
 20
114.913668
 30
0.0
 11
143.563684
 21
115.337001
 31
0.0
  0
LINE
  5
235
100
AcDbEntity
  8
Vrstva_1
 62
7
100
AcDbLine
 10
143.563684
 20
115.337001
 30
0.0
 11
143.563684
 21
115.760335
 31
0.0
  0
LINE
  5
236
100
AcDbEntity
  8
Vrstva_1
 62
7
100
AcDbLine
 10
143.563684
 20
115.760335
 30
0.0
 11
143.140351
 21
115.760335
 31
0.0
  0
LINE
  5
237
100
AcDbEntity
  8
Vrstva_1
 62
7
100
AcDbLine
 10
143.140351
 20
115.760335
 30
0.0
 11
142.717018
 21
115.760335
 31
0.0
  0
LINE
  5
238
100
AcDbEntity
  8
Vrstva_1
 62
7
100
AcDbLine
 10
142.717018
 20
115.760335
 30
0.0
 11
142.717018
 21
115.337001
 31
0.0
  0
LINE
  5
239
100
AcDbEntity
  8
Vrstva_1
 62
7
100
AcDbLine
 10
142.717018
 20
115.337001
 30
0.0
 11
142.717018
 21
114.913668
 31
0.0
  0
LINE
  5
23a
100
AcDbEntity
  8
Vrstva_1
 62
7
100
AcDbLine
 10
142.717018
 20
114.913668
 30
0.0
 11
142.293684
 21
114.913668
 31
0.0
  0
LINE
  5
23b
100
AcDbEntity
  8
Vrstva_1
 62
7
100
AcDbLine
 10
142.293684
 20
114.913668
 30
0.0
 11
141.870351
 21
114.913668
 31
0.0
  0
LINE
  5
23c
100
AcDbEntity
  8
Vrstva_1
 62
7
100
AcDbLine
 10
141.870351
 20
114.913668
 30
0.0
 11
141.870351
 21
115.337001
 31
0.0
  0
LINE
  5
23d
100
AcDbEntity
  8
Vrstva_1
 62
7
100
AcDbLine
 10
141.870351
 20
115.337001
 30
0.0
 11
141.870351
 21
115.760335
 31
0.0
  0
LINE
  5
23e
100
AcDbEntity
  8
Vrstva_1
 62
7
100
AcDbLine
 10
141.870351
 20
115.760335
 30
0.0
 11
141.023684
 21
115.760335
 31
0.0
  0
LINE
  5
23f
100
AcDbEntity
  8
Vrstva_1
 62
7
100
AcDbLine
 10
141.023684
 20
115.760335
 30
0.0
 11
140.177018
 21
115.760335
 31
0.0
  0
LINE
  5
240
100
AcDbEntity
  8
Vrstva_1
 62
7
100
AcDbLine
 10
140.177018
 20
115.760335
 30
0.0
 11
140.177018
 21
116.183668
 31
0.0
  0
LINE
  5
241
100
AcDbEntity
  8
Vrstva_1
 62
7
100
AcDbLine
 10
140.177018
 20
116.183668
 30
0.0
 11
140.177018
 21
116.607001
 31
0.0
  0
LINE
  5
242
100
AcDbEntity
  8
Vrstva_1
 62
7
100
AcDbLine
 10
140.177018
 20
116.607001
 30
0.0
 11
138.483684
 21
116.607001
 31
0.0
  0
LINE
  5
243
100
AcDbEntity
  8
Vrstva_1
 62
7
100
AcDbLine
 10
138.483684
 20
116.607001
 30
0.0
 11
136.790351
 21
116.607001
 31
0.0
  0
LINE
  5
244
100
AcDbEntity
  8
Vrstva_1
 62
7
100
AcDbLine
 10
136.790351
 20
116.607001
 30
0.0
 11
136.790351
 21
115.760335
 31
0.0
  0
LINE
  5
245
100
AcDbEntity
  8
Vrstva_1
 62
7
100
AcDbLine
 10
136.790351
 20
115.760335
 30
0.0
 11
136.790351
 21
114.913668
 31
0.0
  0
LINE
  5
246
100
AcDbEntity
  8
Vrstva_1
 62
7
100
AcDbLine
 10
136.790351
 20
114.913668
 30
0.0
 11
137.213684
 21
114.913668
 31
0.0
  0
LINE
  5
247
100
AcDbEntity
  8
Vrstva_1
 62
7
100
AcDbLine
 10
137.213684
 20
114.913668
 30
0.0
 11
137.637018
 21
114.913668
 31
0.0
  0
LINE
  5
248
100
AcDbEntity
  8
Vrstva_1
 62
7
100
AcDbLine
 10
137.637018
 20
114.913668
 30
0.0
 11
137.637018
 21
114.067001
 31
0.0
  0
LINE
  5
249
100
AcDbEntity
  8
Vrstva_1
 62
7
100
AcDbLine
 10
137.637018
 20
114.067001
 30
0.0
 11
137.637018
 21
113.220335
 31
0.0
  0
LINE
  5
24a
100
AcDbEntity
  8
Vrstva_1
 62
7
100
AcDbLine
 10
137.637018
 20
113.220335
 30
0.0
 11
134.673684
 21
113.220335
 31
0.0
  0
LINE
  5
24b
100
AcDbEntity
  8
Vrstva_1
 62
7
100
AcDbLine
 10
134.673684
 20
113.220335
 30
0.0
 11
131.710351
 21
113.220335
 31
0.0
  0
LINE
  5
24c
100
AcDbEntity
  8
Vrstva_1
 62
7
100
AcDbLine
 10
131.710351
 20
113.220335
 30
0.0
 11
131.710351
 21
113.643668
 31
0.0
  0
LINE
  5
24d
100
AcDbEntity
  8
Vrstva_1
 62
7
100
AcDbLine
 10
131.710351
 20
113.643668
 30
0.0
 11
131.710351
 21
114.067001
 31
0.0
  0
LINE
  5
24e
100
AcDbEntity
  8
Vrstva_1
 62
7
100
AcDbLine
 10
131.710351
 20
114.067001
 30
0.0
 11
131.287018
 21
114.067001
 31
0.0
  0
LINE
  5
24f
100
AcDbEntity
  8
Vrstva_1
 62
7
100
AcDbLine
 10
131.287018
 20
114.067001
 30
0.0
 11
130.863684
 21
114.067001
 31
0.0
  0
LINE
  5
250
100
AcDbEntity
  8
Vrstva_1
 62
7
100
AcDbLine
 10
130.863684
 20
114.067001
 30
0.0
 11
130.863684
 21
113.643668
 31
0.0
  0
LINE
  5
251
100
AcDbEntity
  8
Vrstva_1
 62
7
100
AcDbLine
 10
130.863684
 20
113.643668
 30
0.0
 11
130.863684
 21
113.220335
 31
0.0
  0
LINE
  5
252
100
AcDbEntity
  8
Vrstva_1
 62
7
100
AcDbLine
 10
130.863684
 20
113.220335
 30
0.0
 11
129.593684
 21
113.220335
 31
0.0
  0
LINE
  5
253
100
AcDbEntity
  8
Vrstva_1
 62
7
100
AcDbLine
 10
129.593684
 20
113.220335
 30
0.0
 11
128.323684
 21
113.220335
 31
0.0
  0
LINE
  5
254
100
AcDbEntity
  8
Vrstva_1
 62
7
100
AcDbLine
 10
128.323684
 20
113.220335
 30
0.0
 11
128.323684
 21
113.643668
 31
0.0
  0
LINE
  5
255
100
AcDbEntity
  8
Vrstva_1
 62
7
100
AcDbLine
 10
128.323684
 20
113.643668
 30
0.0
 11
128.323684
 21
114.067001
 31
0.0
  0
LINE
  5
256
100
AcDbEntity
  8
Vrstva_1
 62
7
100
AcDbLine
 10
128.323684
 20
114.067001
 30
0.0
 11
127.900351
 21
114.067001
 31
0.0
  0
LINE
  5
257
100
AcDbEntity
  8
Vrstva_1
 62
7
100
AcDbLine
 10
127.900351
 20
114.067001
 30
0.0
 11
127.477018
 21
114.067001
 31
0.0
  0
LINE
  5
258
100
AcDbEntity
  8
Vrstva_1
 62
7
100
AcDbLine
 10
127.477018
 20
114.067001
 30
0.0
 11
127.477018
 21
113.643668
 31
0.0
  0
LINE
  5
259
100
AcDbEntity
  8
Vrstva_1
 62
7
100
AcDbLine
 10
127.477018
 20
113.643668
 30
0.0
 11
127.477018
 21
113.220335
 31
0.0
  0
LINE
  5
25a
100
AcDbEntity
  8
Vrstva_1
 62
7
100
AcDbLine
 10
127.477018
 20
113.220335
 30
0.0
 11
127.053684
 21
113.220335
 31
0.0
  0
LINE
  5
25b
100
AcDbEntity
  8
Vrstva_1
 62
7
100
AcDbLine
 10
127.053684
 20
113.220335
 30
0.0
 11
127.053684
 21
113.220335
 31
0.0
  0
LINE
  5
25c
100
AcDbEntity
  8
Vrstva_1
 62
7
100
AcDbLine
 10
128.747018
 20
114.067001
 30
0.0
 11
129.170351
 21
114.067001
 31
0.0
  0
LINE
  5
25d
100
AcDbEntity
  8
Vrstva_1
 62
7
100
AcDbLine
 10
129.170351
 20
114.067001
 30
0.0
 11
129.170351
 21
114.490335
 31
0.0
  0
LINE
  5
25e
100
AcDbEntity
  8
Vrstva_1
 62
7
100
AcDbLine
 10
129.170351
 20
114.490335
 30
0.0
 11
129.170351
 21
114.913668
 31
0.0
  0
LINE
  5
25f
100
AcDbEntity
  8
Vrstva_1
 62
7
100
AcDbLine
 10
129.170351
 20
114.913668
 30
0.0
 11
129.593684
 21
114.913668
 31
0.0
  0
LINE
  5
260
100
AcDbEntity
  8
Vrstva_1
 62
7
100
AcDbLine
 10
129.593684
 20
114.913668
 30
0.0
 11
130.017018
 21
114.913668
 31
0.0
  0
LINE
  5
261
100
AcDbEntity
  8
Vrstva_1
 62
7
100
AcDbLine
 10
130.017018
 20
114.913668
 30
0.0
 11
130.017018
 21
115.337001
 31
0.0
  0
LINE
  5
262
100
AcDbEntity
  8
Vrstva_1
 62
7
100
AcDbLine
 10
130.017018
 20
115.337001
 30
0.0
 11
130.017018
 21
115.760335
 31
0.0
  0
LINE
  5
263
100
AcDbEntity
  8
Vrstva_1
 62
7
100
AcDbLine
 10
130.017018
 20
115.760335
 30
0.0
 11
129.170351
 21
115.760335
 31
0.0
  0
LINE
  5
264
100
AcDbEntity
  8
Vrstva_1
 62
7
100
AcDbLine
 10
129.170351
 20
115.760335
 30
0.0
 11
128.323684
 21
115.760335
 31
0.0
  0
LINE
  5
265
100
AcDbEntity
  8
Vrstva_1
 62
7
100
AcDbLine
 10
128.323684
 20
115.760335
 30
0.0
 11
128.323684
 21
116.183668
 31
0.0
  0
LINE
  5
266
100
AcDbEntity
  8
Vrstva_1
 62
7
100
AcDbLine
 10
128.323684
 20
116.183668
 30
0.0
 11
128.323684
 21
116.607001
 31
0.0
  0
LINE
  5
267
100
AcDbEntity
  8
Vrstva_1
 62
7
100
AcDbLine
 10
128.323684
 20
116.607001
 30
0.0
 11
129.593684
 21
116.607001
 31
0.0
  0
LINE
  5
268
100
AcDbEntity
  8
Vrstva_1
 62
7
100
AcDbLine
 10
129.593684
 20
116.607001
 30
0.0
 11
130.863684
 21
116.607001
 31
0.0
  0
LINE
  5
269
100
AcDbEntity
  8
Vrstva_1
 62
7
100
AcDbLine
 10
130.863684
 20
116.607001
 30
0.0
 11
130.863684
 21
115.760335
 31
0.0
  0
LINE
  5
26a
100
AcDbEntity
  8
Vrstva_1
 62
7
100
AcDbLine
 10
130.863684
 20
115.760335
 30
0.0
 11
130.863684
 21
114.913668
 31
0.0
  0
LINE
  5
26b
100
AcDbEntity
  8
Vrstva_1
 62
7
100
AcDbLine
 10
130.863684
 20
114.913668
 30
0.0
 11
131.710351
 21
114.913668
 31
0.0
  0
LINE
  5
26c
100
AcDbEntity
  8
Vrstva_1
 62
7
100
AcDbLine
 10
131.710351
 20
114.913668
 30
0.0
 11
132.557018
 21
114.913668
 31
0.0
  0
LINE
  5
26d
100
AcDbEntity
  8
Vrstva_1
 62
7
100
AcDbLine
 10
132.557018
 20
114.913668
 30
0.0
 11
132.557018
 21
114.490335
 31
0.0
  0
LINE
  5
26e
100
AcDbEntity
  8
Vrstva_1
 62
7
100
AcDbLine
 10
132.557018
 20
114.490335
 30
0.0
 11
132.557018
 21
114.067001
 31
0.0
  0
LINE
  5
26f
100
AcDbEntity
  8
Vrstva_1
 62
7
100
AcDbLine
 10
132.557018
 20
114.067001
 30
0.0
 11
132.980351
 21
114.067001
 31
0.0
  0
LINE
  5
270
100
AcDbEntity
  8
Vrstva_1
 62
7
100
AcDbLine
 10
132.980351
 20
114.067001
 30
0.0
 11
133.403684
 21
114.067001
 31
0.0
  0
LINE
  5
271
100
AcDbEntity
  8
Vrstva_1
 62
7
100
AcDbLine
 10
133.403684
 20
114.067001
 30
0.0
 11
133.403684
 21
114.490335
 31
0.0
  0
LINE
  5
272
100
AcDbEntity
  8
Vrstva_1
 62
7
100
AcDbLine
 10
133.403684
 20
114.490335
 30
0.0
 11
133.403684
 21
114.913668
 31
0.0
  0
LINE
  5
273
100
AcDbEntity
  8
Vrstva_1
 62
7
100
AcDbLine
 10
133.403684
 20
114.913668
 30
0.0
 11
133.827018
 21
114.913668
 31
0.0
  0
LINE
  5
274
100
AcDbEntity
  8
Vrstva_1
 62
7
100
AcDbLine
 10
133.827018
 20
114.913668
 30
0.0
 11
134.250351
 21
114.913668
 31
0.0
  0
LINE
  5
275
100
AcDbEntity
  8
Vrstva_1
 62
7
100
AcDbLine
 10
134.250351
 20
114.913668
 30
0.0
 11
134.250351
 21
114.490335
 31
0.0
  0
LINE
  5
276
100
AcDbEntity
  8
Vrstva_1
 62
7
100
AcDbLine
 10
134.250351
 20
114.490335
 30
0.0
 11
134.250351
 21
114.067001
 31
0.0
  0
LINE
  5
277
100
AcDbEntity
  8
Vrstva_1
 62
7
100
AcDbLine
 10
134.250351
 20
114.067001
 30
0.0
 11
134.673684
 21
114.067001
 31
0.0
  0
LINE
  5
278
100
AcDbEntity
  8
Vrstva_1
 62
7
100
AcDbLine
 10
134.673684
 20
114.067001
 30
0.0
 11
135.097018
 21
114.067001
 31
0.0
  0
LINE
  5
279
100
AcDbEntity
  8
Vrstva_1
 62
7
100
AcDbLine
 10
135.097018
 20
114.067001
 30
0.0
 11
135.097018
 21
114.490335
 31
0.0
  0
LINE
  5
27a
100
AcDbEntity
  8
Vrstva_1
 62
7
100
AcDbLine
 10
135.097018
 20
114.490335
 30
0.0
 11
135.097018
 21
114.913668
 31
0.0
  0
LINE
  5
27b
100
AcDbEntity
  8
Vrstva_1
 62
7
100
AcDbLine
 10
135.097018
 20
114.913668
 30
0.0
 11
135.520351
 21
114.913668
 31
0.0
  0
LINE
  5
27c
100
AcDbEntity
  8
Vrstva_1
 62
7
100
AcDbLine
 10
135.520351
 20
114.913668
 30
0.0
 11
135.943684
 21
114.913668
 31
0.0
  0
LINE
  5
27d
100
AcDbEntity
  8
Vrstva_1
 62
7
100
AcDbLine
 10
135.943684
 20
114.913668
 30
0.0
 11
135.943684
 21
114.490335
 31
0.0
  0
LINE
  5
27e
100
AcDbEntity
  8
Vrstva_1
 62
7
100
AcDbLine
 10
135.943684
 20
114.490335
 30
0.0
 11
135.943684
 21
114.067001
 31
0.0
  0
LINE
  5
27f
100
AcDbEntity
  8
Vrstva_1
 62
7
100
AcDbLine
 10
135.943684
 20
114.067001
 30
0.0
 11
136.367018
 21
114.067001
 31
0.0
  0
LINE
  5
280
100
AcDbEntity
  8
Vrstva_1
 62
7
100
AcDbLine
 10
136.367018
 20
114.067001
 30
0.0
 11
136.790351
 21
114.067001
 31
0.0
  0
LINE
  5
281
100
AcDbEntity
  8
Vrstva_1
 62
7
100
AcDbLine
 10
136.790351
 20
114.067001
 30
0.0
 11
136.790351
 21
114.490335
 31
0.0
  0
LINE
  5
282
100
AcDbEntity
  8
Vrstva_1
 62
7
100
AcDbLine
 10
136.790351
 20
114.490335
 30
0.0
 11
136.790351
 21
114.913668
 31
0.0
  0
LINE
  5
283
100
AcDbEntity
  8
Vrstva_1
 62
7
100
AcDbLine
 10
136.790351
 20
114.913668
 30
0.0
 11
136.367018
 21
114.913668
 31
0.0
  0
LINE
  5
284
100
AcDbEntity
  8
Vrstva_1
 62
7
100
AcDbLine
 10
136.367018
 20
114.913668
 30
0.0
 11
135.943684
 21
114.913668
 31
0.0
  0
LINE
  5
285
100
AcDbEntity
  8
Vrstva_1
 62
7
100
AcDbLine
 10
135.943684
 20
114.913668
 30
0.0
 11
135.943684
 21
115.760335
 31
0.0
  0
LINE
  5
286
100
AcDbEntity
  8
Vrstva_1
 62
7
100
AcDbLine
 10
135.943684
 20
115.760335
 30
0.0
 11
135.943684
 21
116.607001
 31
0.0
  0
LINE
  5
287
100
AcDbEntity
  8
Vrstva_1
 62
7
100
AcDbLine
 10
135.943684
 20
116.607001
 30
0.0
 11
136.367018
 21
116.607001
 31
0.0
  0
LINE
  5
288
100
AcDbEntity
  8
Vrstva_1
 62
7
100
AcDbLine
 10
136.367018
 20
116.607001
 30
0.0
 11
136.790351
 21
116.607001
 31
0.0
  0
LINE
  5
289
100
AcDbEntity
  8
Vrstva_1
 62
7
100
AcDbLine
 10
136.790351
 20
116.607001
 30
0.0
 11
136.790351
 21
117.453668
 31
0.0
  0
LINE
  5
28a
100
AcDbEntity
  8
Vrstva_1
 62
7
100
AcDbLine
 10
136.790351
 20
117.453668
 30
0.0
 11
136.790351
 21
118.300335
 31
0.0
  0
LINE
  5
28b
100
AcDbEntity
  8
Vrstva_1
 62
7
100
AcDbLine
 10
136.790351
 20
118.300335
 30
0.0
 11
136.367018
 21
118.300335
 31
0.0
  0
LINE
  5
28c
100
AcDbEntity
  8
Vrstva_1
 62
7
100
AcDbLine
 10
136.367018
 20
118.300335
 30
0.0
 11
135.943684
 21
118.300335
 31
0.0
  0
LINE
  5
28d
100
AcDbEntity
  8
Vrstva_1
 62
7
100
AcDbLine
 10
135.943684
 20
118.300335
 30
0.0
 11
135.943684
 21
118.723668
 31
0.0
  0
LINE
  5
28e
100
AcDbEntity
  8
Vrstva_1
 62
7
100
AcDbLine
 10
135.943684
 20
118.723668
 30
0.0
 11
135.943684
 21
119.147001
 31
0.0
  0
LINE
  5
28f
100
AcDbEntity
  8
Vrstva_1
 62
7
100
AcDbLine
 10
135.943684
 20
119.147001
 30
0.0
 11
135.097018
 21
119.147001
 31
0.0
  0
LINE
  5
290
100
AcDbEntity
  8
Vrstva_1
 62
7
100
AcDbLine
 10
135.097018
 20
119.147001
 30
0.0
 11
134.250351
 21
119.147001
 31
0.0
  0
LINE
  5
291
100
AcDbEntity
  8
Vrstva_1
 62
7
100
AcDbLine
 10
134.250351
 20
119.147001
 30
0.0
 11
134.250351
 21
119.570335
 31
0.0
  0
LINE
  5
292
100
AcDbEntity
  8
Vrstva_1
 62
7
100
AcDbLine
 10
134.250351
 20
119.570335
 30
0.0
 11
134.250351
 21
119.993668
 31
0.0
  0
LINE
  5
293
100
AcDbEntity
  8
Vrstva_1
 62
7
100
AcDbLine
 10
134.250351
 20
119.993668
 30
0.0
 11
133.827018
 21
119.993668
 31
0.0
  0
LINE
  5
294
100
AcDbEntity
  8
Vrstva_1
 62
7
100
AcDbLine
 10
133.827018
 20
119.993668
 30
0.0
 11
133.403684
 21
119.993668
 31
0.0
  0
LINE
  5
295
100
AcDbEntity
  8
Vrstva_1
 62
7
100
AcDbLine
 10
133.403684
 20
119.993668
 30
0.0
 11
133.403684
 21
121.263668
 31
0.0
  0
LINE
  5
296
100
AcDbEntity
  8
Vrstva_1
 62
7
100
AcDbLine
 10
133.403684
 20
121.263668
 30
0.0
 11
133.403684
 21
122.533668
 31
0.0
  0
LINE
  5
297
100
AcDbEntity
  8
Vrstva_1
 62
7
100
AcDbLine
 10
133.403684
 20
122.533668
 30
0.0
 11
133.827018
 21
122.533668
 31
0.0
  0
LINE
  5
298
100
AcDbEntity
  8
Vrstva_1
 62
7
100
AcDbLine
 10
133.827018
 20
122.533668
 30
0.0
 11
134.250351
 21
122.533668
 31
0.0
  0
LINE
  5
299
100
AcDbEntity
  8
Vrstva_1
 62
7
100
AcDbLine
 10
134.250351
 20
122.533668
 30
0.0
 11
134.250351
 21
122.957001
 31
0.0
  0
LINE
  5
29a
100
AcDbEntity
  8
Vrstva_1
 62
7
100
AcDbLine
 10
134.250351
 20
122.957001
 30
0.0
 11
134.250351
 21
123.380335
 31
0.0
  0
LINE
  5
29b
100
AcDbEntity
  8
Vrstva_1
 62
7
100
AcDbLine
 10
134.250351
 20
123.380335
 30
0.0
 11
133.827018
 21
123.380335
 31
0.0
  0
LINE
  5
29c
100
AcDbEntity
  8
Vrstva_1
 62
7
100
AcDbLine
 10
133.827018
 20
123.380335
 30
0.0
 11
133.403684
 21
123.380335
 31
0.0
  0
LINE
  5
29d
100
AcDbEntity
  8
Vrstva_1
 62
7
100
AcDbLine
 10
133.403684
 20
123.380335
 30
0.0
 11
133.403684
 21
123.803668
 31
0.0
  0
LINE
  5
29e
100
AcDbEntity
  8
Vrstva_1
 62
7
100
AcDbLine
 10
133.403684
 20
123.803668
 30
0.0
 11
133.403684
 21
124.227001
 31
0.0
  0
LINE
  5
29f
100
AcDbEntity
  8
Vrstva_1
 62
7
100
AcDbLine
 10
133.403684
 20
124.227001
 30
0.0
 11
132.980351
 21
124.227001
 31
0.0
  0
LINE
  5
2a0
100
AcDbEntity
  8
Vrstva_1
 62
7
100
AcDbLine
 10
132.980351
 20
124.227001
 30
0.0
 11
132.557018
 21
124.227001
 31
0.0
  0
LINE
  5
2a1
100
AcDbEntity
  8
Vrstva_1
 62
7
100
AcDbLine
 10
132.557018
 20
124.227001
 30
0.0
 11
132.557018
 21
122.110335
 31
0.0
  0
LINE
  5
2a2
100
AcDbEntity
  8
Vrstva_1
 62
7
100
AcDbLine
 10
132.557018
 20
122.110335
 30
0.0
 11
132.557018
 21
119.993668
 31
0.0
  0
LINE
  5
2a3
100
AcDbEntity
  8
Vrstva_1
 62
7
100
AcDbLine
 10
132.557018
 20
119.993668
 30
0.0
 11
131.710351
 21
119.993668
 31
0.0
  0
LINE
  5
2a4
100
AcDbEntity
  8
Vrstva_1
 62
7
100
AcDbLine
 10
131.710351
 20
119.993668
 30
0.0
 11
130.863684
 21
119.993668
 31
0.0
  0
LINE
  5
2a5
100
AcDbEntity
  8
Vrstva_1
 62
7
100
AcDbLine
 10
130.863684
 20
119.993668
 30
0.0
 11
130.863684
 21
119.147001
 31
0.0
  0
LINE
  5
2a6
100
AcDbEntity
  8
Vrstva_1
 62
7
100
AcDbLine
 10
130.863684
 20
119.147001
 30
0.0
 11
130.863684
 21
118.300335
 31
0.0
  0
LINE
  5
2a7
100
AcDbEntity
  8
Vrstva_1
 62
7
100
AcDbLine
 10
130.863684
 20
118.300335
 30
0.0
 11
130.440351
 21
118.300335
 31
0.0
  0
LINE
  5
2a8
100
AcDbEntity
  8
Vrstva_1
 62
7
100
AcDbLine
 10
130.440351
 20
118.300335
 30
0.0
 11
130.017018
 21
118.300335
 31
0.0
  0
LINE
  5
2a9
100
AcDbEntity
  8
Vrstva_1
 62
7
100
AcDbLine
 10
130.017018
 20
118.300335
 30
0.0
 11
130.017018
 21
117.877001
 31
0.0
  0
LINE
  5
2aa
100
AcDbEntity
  8
Vrstva_1
 62
7
100
AcDbLine
 10
130.017018
 20
117.877001
 30
0.0
 11
130.017018
 21
117.453668
 31
0.0
  0
LINE
  5
2ab
100
AcDbEntity
  8
Vrstva_1
 62
7
100
AcDbLine
 10
130.017018
 20
117.453668
 30
0.0
 11
129.593684
 21
117.453668
 31
0.0
  0
LINE
  5
2ac
100
AcDbEntity
  8
Vrstva_1
 62
7
100
AcDbLine
 10
129.593684
 20
117.453668
 30
0.0
 11
129.170351
 21
117.453668
 31
0.0
  0
LINE
  5
2ad
100
AcDbEntity
  8
Vrstva_1
 62
7
100
AcDbLine
 10
129.170351
 20
117.453668
 30
0.0
 11
129.170351
 21
118.300335
 31
0.0
  0
LINE
  5
2ae
100
AcDbEntity
  8
Vrstva_1
 62
7
100
AcDbLine
 10
129.170351
 20
118.300335
 30
0.0
 11
129.170351
 21
119.147001
 31
0.0
  0
LINE
  5
2af
100
AcDbEntity
  8
Vrstva_1
 62
7
100
AcDbLine
 10
129.170351
 20
119.147001
 30
0.0
 11
129.593684
 21
119.147001
 31
0.0
  0
LINE
  5
2b0
100
AcDbEntity
  8
Vrstva_1
 62
7
100
AcDbLine
 10
129.593684
 20
119.147001
 30
0.0
 11
130.017018
 21
119.147001
 31
0.0
  0
LINE
  5
2b1
100
AcDbEntity
  8
Vrstva_1
 62
7
100
AcDbLine
 10
130.017018
 20
119.147001
 30
0.0
 11
130.017018
 21
119.570335
 31
0.0
  0
LINE
  5
2b2
100
AcDbEntity
  8
Vrstva_1
 62
7
100
AcDbLine
 10
130.017018
 20
119.570335
 30
0.0
 11
130.017018
 21
119.993668
 31
0.0
  0
LINE
  5
2b3
100
AcDbEntity
  8
Vrstva_1
 62
7
100
AcDbLine
 10
130.017018
 20
119.993668
 30
0.0
 11
129.593684
 21
119.993668
 31
0.0
  0
LINE
  5
2b4
100
AcDbEntity
  8
Vrstva_1
 62
7
100
AcDbLine
 10
129.593684
 20
119.993668
 30
0.0
 11
129.170351
 21
119.993668
 31
0.0
  0
LINE
  5
2b5
100
AcDbEntity
  8
Vrstva_1
 62
7
100
AcDbLine
 10
129.170351
 20
119.993668
 30
0.0
 11
129.170351
 21
119.570335
 31
0.0
  0
LINE
  5
2b6
100
AcDbEntity
  8
Vrstva_1
 62
7
100
AcDbLine
 10
129.170351
 20
119.570335
 30
0.0
 11
129.170351
 21
119.147001
 31
0.0
  0
LINE
  5
2b7
100
AcDbEntity
  8
Vrstva_1
 62
7
100
AcDbLine
 10
129.170351
 20
119.147001
 30
0.0
 11
128.747018
 21
119.147001
 31
0.0
  0
LINE
  5
2b8
100
AcDbEntity
  8
Vrstva_1
 62
7
100
AcDbLine
 10
128.747018
 20
119.147001
 30
0.0
 11
128.323684
 21
119.147001
 31
0.0
  0
LINE
  5
2b9
100
AcDbEntity
  8
Vrstva_1
 62
7
100
AcDbLine
 10
128.323684
 20
119.147001
 30
0.0
 11
128.323684
 21
119.570335
 31
0.0
  0
LINE
  5
2ba
100
AcDbEntity
  8
Vrstva_1
 62
7
100
AcDbLine
 10
128.323684
 20
119.570335
 30
0.0
 11
128.323684
 21
119.993668
 31
0.0
  0
LINE
  5
2bb
100
AcDbEntity
  8
Vrstva_1
 62
7
100
AcDbLine
 10
128.323684
 20
119.993668
 30
0.0
 11
127.900351
 21
119.993668
 31
0.0
  0
LINE
  5
2bc
100
AcDbEntity
  8
Vrstva_1
 62
7
100
AcDbLine
 10
127.900351
 20
119.993668
 30
0.0
 11
127.477018
 21
119.993668
 31
0.0
  0
LINE
  5
2bd
100
AcDbEntity
  8
Vrstva_1
 62
7
100
AcDbLine
 10
127.477018
 20
119.993668
 30
0.0
 11
127.477018
 21
119.570335
 31
0.0
  0
LINE
  5
2be
100
AcDbEntity
  8
Vrstva_1
 62
7
100
AcDbLine
 10
127.477018
 20
119.570335
 30
0.0
 11
127.477018
 21
119.147001
 31
0.0
  0
LINE
  5
2bf
100
AcDbEntity
  8
Vrstva_1
 62
7
100
AcDbLine
 10
127.477018
 20
119.147001
 30
0.0
 11
127.900351
 21
119.147001
 31
0.0
  0
LINE
  5
2c0
100
AcDbEntity
  8
Vrstva_1
 62
7
100
AcDbLine
 10
127.900351
 20
119.147001
 30
0.0
 11
128.323684
 21
119.147001
 31
0.0
  0
LINE
  5
2c1
100
AcDbEntity
  8
Vrstva_1
 62
7
100
AcDbLine
 10
128.323684
 20
119.147001
 30
0.0
 11
128.323684
 21
118.723668
 31
0.0
  0
LINE
  5
2c2
100
AcDbEntity
  8
Vrstva_1
 62
7
100
AcDbLine
 10
128.323684
 20
118.723668
 30
0.0
 11
128.323684
 21
118.300335
 31
0.0
  0
LINE
  5
2c3
100
AcDbEntity
  8
Vrstva_1
 62
7
100
AcDbLine
 10
128.323684
 20
118.300335
 30
0.0
 11
127.900351
 21
118.300335
 31
0.0
  0
LINE
  5
2c4
100
AcDbEntity
  8
Vrstva_1
 62
7
100
AcDbLine
 10
127.900351
 20
118.300335
 30
0.0
 11
127.477018
 21
118.300335
 31
0.0
  0
LINE
  5
2c5
100
AcDbEntity
  8
Vrstva_1
 62
7
100
AcDbLine
 10
127.477018
 20
118.300335
 30
0.0
 11
127.477018
 21
117.877001
 31
0.0
  0
LINE
  5
2c6
100
AcDbEntity
  8
Vrstva_1
 62
7
100
AcDbLine
 10
127.477018
 20
117.877001
 30
0.0
 11
127.477018
 21
117.453668
 31
0.0
  0
LINE
  5
2c7
100
AcDbEntity
  8
Vrstva_1
 62
7
100
AcDbLine
 10
127.477018
 20
117.453668
 30
0.0
 11
127.900351
 21
117.453668
 31
0.0
  0
LINE
  5
2c8
100
AcDbEntity
  8
Vrstva_1
 62
7
100
AcDbLine
 10
127.900351
 20
117.453668
 30
0.0
 11
128.323684
 21
117.453668
 31
0.0
  0
LINE
  5
2c9
100
AcDbEntity
  8
Vrstva_1
 62
7
100
AcDbLine
 10
128.323684
 20
117.453668
 30
0.0
 11
128.323684
 21
117.030335
 31
0.0
  0
LINE
  5
2ca
100
AcDbEntity
  8
Vrstva_1
 62
7
100
AcDbLine
 10
128.323684
 20
117.030335
 30
0.0
 11
128.323684
 21
116.607001
 31
0.0
  0
LINE
  5
2cb
100
AcDbEntity
  8
Vrstva_1
 62
7
100
AcDbLine
 10
128.323684
 20
116.607001
 30
0.0
 11
127.900351
 21
116.607001
 31
0.0
  0
LINE
  5
2cc
100
AcDbEntity
  8
Vrstva_1
 62
7
100
AcDbLine
 10
127.900351
 20
116.607001
 30
0.0
 11
127.477018
 21
116.607001
 31
0.0
  0
LINE
  5
2cd
100
AcDbEntity
  8
Vrstva_1
 62
7
100
AcDbLine
 10
127.477018
 20
116.607001
 30
0.0
 11
127.477018
 21
116.183668
 31
0.0
  0
LINE
  5
2ce
100
AcDbEntity
  8
Vrstva_1
 62
7
100
AcDbLine
 10
127.477018
 20
116.183668
 30
0.0
 11
127.477018
 21
115.760335
 31
0.0
  0
LINE
  5
2cf
100
AcDbEntity
  8
Vrstva_1
 62
7
100
AcDbLine
 10
127.477018
 20
115.760335
 30
0.0
 11
127.900351
 21
115.760335
 31
0.0
  0
LINE
  5
2d0
100
AcDbEntity
  8
Vrstva_1
 62
7
100
AcDbLine
 10
127.900351
 20
115.760335
 30
0.0
 11
128.323684
 21
115.760335
 31
0.0
  0
LINE
  5
2d1
100
AcDbEntity
  8
Vrstva_1
 62
7
100
AcDbLine
 10
128.323684
 20
115.760335
 30
0.0
 11
128.323684
 21
114.913668
 31
0.0
  0
LINE
  5
2d2
100
AcDbEntity
  8
Vrstva_1
 62
7
100
AcDbLine
 10
128.323684
 20
114.913668
 30
0.0
 11
128.323684
 21
114.067001
 31
0.0
  0
LINE
  5
2d3
100
AcDbEntity
  8
Vrstva_1
 62
7
100
AcDbLine
 10
128.323684
 20
114.067001
 30
0.0
 11
128.747018
 21
114.067001
 31
0.0
  0
LINE
  5
2d4
100
AcDbEntity
  8
Vrstva_1
 62
7
100
AcDbLine
 10
128.747018
 20
114.067001
 30
0.0
 11
128.747018
 21
114.067001
 31
0.0
  0
LINE
  5
2d5
100
AcDbEntity
  8
Vrstva_1
 62
7
100
AcDbLine
 10
132.980351
 20
114.913668
 30
0.0
 11
132.557018
 21
114.913668
 31
0.0
  0
LINE
  5
2d6
100
AcDbEntity
  8
Vrstva_1
 62
7
100
AcDbLine
 10
132.557018
 20
114.913668
 30
0.0
 11
132.557018
 21
115.760335
 31
0.0
  0
LINE
  5
2d7
100
AcDbEntity
  8
Vrstva_1
 62
7
100
AcDbLine
 10
132.557018
 20
115.760335
 30
0.0
 11
132.557018
 21
116.607001
 31
0.0
  0
LINE
  5
2d8
100
AcDbEntity
  8
Vrstva_1
 62
7
100
AcDbLine
 10
132.557018
 20
116.607001
 30
0.0
 11
132.980351
 21
116.607001
 31
0.0
  0
LINE
  5
2d9
100
AcDbEntity
  8
Vrstva_1
 62
7
100
AcDbLine
 10
132.980351
 20
116.607001
 30
0.0
 11
133.403684
 21
116.607001
 31
0.0
  0
LINE
  5
2da
100
AcDbEntity
  8
Vrstva_1
 62
7
100
AcDbLine
 10
133.403684
 20
116.607001
 30
0.0
 11
133.403684
 21
115.760335
 31
0.0
  0
LINE
  5
2db
100
AcDbEntity
  8
Vrstva_1
 62
7
100
AcDbLine
 10
133.403684
 20
115.760335
 30
0.0
 11
133.403684
 21
114.913668
 31
0.0
  0
LINE
  5
2dc
100
AcDbEntity
  8
Vrstva_1
 62
7
100
AcDbLine
 10
133.403684
 20
114.913668
 30
0.0
 11
132.980351
 21
114.913668
 31
0.0
  0
LINE
  5
2dd
100
AcDbEntity
  8
Vrstva_1
 62
7
100
AcDbLine
 10
132.980351
 20
114.913668
 30
0.0
 11
132.980351
 21
114.913668
 31
0.0
  0
LINE
  5
2de
100
AcDbEntity
  8
Vrstva_1
 62
7
100
AcDbLine
 10
134.673684
 20
115.760335
 30
0.0
 11
134.250351
 21
115.760335
 31
0.0
  0
LINE
  5
2df
100
AcDbEntity
  8
Vrstva_1
 62
7
100
AcDbLine
 10
134.250351
 20
115.760335
 30
0.0
 11
134.250351
 21
116.607001
 31
0.0
  0
LINE
  5
2e0
100
AcDbEntity
  8
Vrstva_1
 62
7
100
AcDbLine
 10
134.250351
 20
116.607001
 30
0.0
 11
134.250351
 21
117.453668
 31
0.0
  0
LINE
  5
2e1
100
AcDbEntity
  8
Vrstva_1
 62
7
100
AcDbLine
 10
134.250351
 20
117.453668
 30
0.0
 11
134.673684
 21
117.453668
 31
0.0
  0
LINE
  5
2e2
100
AcDbEntity
  8
Vrstva_1
 62
7
100
AcDbLine
 10
134.673684
 20
117.453668
 30
0.0
 11
135.097018
 21
117.453668
 31
0.0
  0
LINE
  5
2e3
100
AcDbEntity
  8
Vrstva_1
 62
7
100
AcDbLine
 10
135.097018
 20
117.453668
 30
0.0
 11
135.097018
 21
117.877001
 31
0.0
  0
LINE
  5
2e4
100
AcDbEntity
  8
Vrstva_1
 62
7
100
AcDbLine
 10
135.097018
 20
117.877001
 30
0.0
 11
135.097018
 21
118.300335
 31
0.0
  0
LINE
  5
2e5
100
AcDbEntity
  8
Vrstva_1
 62
7
100
AcDbLine
 10
135.097018
 20
118.300335
 30
0.0
 11
135.520351
 21
118.300335
 31
0.0
  0
LINE
  5
2e6
100
AcDbEntity
  8
Vrstva_1
 62
7
100
AcDbLine
 10
135.520351
 20
118.300335
 30
0.0
 11
135.943684
 21
118.300335
 31
0.0
  0
LINE
  5
2e7
100
AcDbEntity
  8
Vrstva_1
 62
7
100
AcDbLine
 10
135.943684
 20
118.300335
 30
0.0
 11
135.943684
 21
117.453668
 31
0.0
  0
LINE
  5
2e8
100
AcDbEntity
  8
Vrstva_1
 62
7
100
AcDbLine
 10
135.943684
 20
117.453668
 30
0.0
 11
135.943684
 21
116.607001
 31
0.0
  0
LINE
  5
2e9
100
AcDbEntity
  8
Vrstva_1
 62
7
100
AcDbLine
 10
135.943684
 20
116.607001
 30
0.0
 11
135.520351
 21
116.607001
 31
0.0
  0
LINE
  5
2ea
100
AcDbEntity
  8
Vrstva_1
 62
7
100
AcDbLine
 10
135.520351
 20
116.607001
 30
0.0
 11
135.097018
 21
116.607001
 31
0.0
  0
LINE
  5
2eb
100
AcDbEntity
  8
Vrstva_1
 62
7
100
AcDbLine
 10
135.097018
 20
116.607001
 30
0.0
 11
135.097018
 21
116.183668
 31
0.0
  0
LINE
  5
2ec
100
AcDbEntity
  8
Vrstva_1
 62
7
100
AcDbLine
 10
135.097018
 20
116.183668
 30
0.0
 11
135.097018
 21
115.760335
 31
0.0
  0
LINE
  5
2ed
100
AcDbEntity
  8
Vrstva_1
 62
7
100
AcDbLine
 10
135.097018
 20
115.760335
 30
0.0
 11
134.673684
 21
115.760335
 31
0.0
  0
LINE
  5
2ee
100
AcDbEntity
  8
Vrstva_1
 62
7
100
AcDbLine
 10
134.673684
 20
115.760335
 30
0.0
 11
134.673684
 21
115.760335
 31
0.0
  0
LINE
  5
2ef
100
AcDbEntity
  8
Vrstva_1
 62
7
100
AcDbLine
 10
131.710351
 20
117.453668
 30
0.0
 11
130.863684
 21
117.453668
 31
0.0
  0
LINE
  5
2f0
100
AcDbEntity
  8
Vrstva_1
 62
7
100
AcDbLine
 10
130.863684
 20
117.453668
 30
0.0
 11
130.863684
 21
117.877001
 31
0.0
  0
LINE
  5
2f1
100
AcDbEntity
  8
Vrstva_1
 62
7
100
AcDbLine
 10
130.863684
 20
117.877001
 30
0.0
 11
130.863684
 21
118.300335
 31
0.0
  0
LINE
  5
2f2
100
AcDbEntity
  8
Vrstva_1
 62
7
100
AcDbLine
 10
130.863684
 20
118.300335
 30
0.0
 11
131.287018
 21
118.300335
 31
0.0
  0
LINE
  5
2f3
100
AcDbEntity
  8
Vrstva_1
 62
7
100
AcDbLine
 10
131.287018
 20
118.300335
 30
0.0
 11
131.710351
 21
118.300335
 31
0.0
  0
LINE
  5
2f4
100
AcDbEntity
  8
Vrstva_1
 62
7
100
AcDbLine
 10
131.710351
 20
118.300335
 30
0.0
 11
131.710351
 21
118.723668
 31
0.0
  0
LINE
  5
2f5
100
AcDbEntity
  8
Vrstva_1
 62
7
100
AcDbLine
 10
131.710351
 20
118.723668
 30
0.0
 11
131.710351
 21
119.147001
 31
0.0
  0
LINE
  5
2f6
100
AcDbEntity
  8
Vrstva_1
 62
7
100
AcDbLine
 10
131.710351
 20
119.147001
 30
0.0
 11
132.557018
 21
119.147001
 31
0.0
  0
LINE
  5
2f7
100
AcDbEntity
  8
Vrstva_1
 62
7
100
AcDbLine
 10
132.557018
 20
119.147001
 30
0.0
 11
133.403684
 21
119.147001
 31
0.0
  0
LINE
  5
2f8
100
AcDbEntity
  8
Vrstva_1
 62
7
100
AcDbLine
 10
133.403684
 20
119.147001
 30
0.0
 11
133.403684
 21
118.723668
 31
0.0
  0
LINE
  5
2f9
100
AcDbEntity
  8
Vrstva_1
 62
7
100
AcDbLine
 10
133.403684
 20
118.723668
 30
0.0
 11
133.403684
 21
118.300335
 31
0.0
  0
LINE
  5
2fa
100
AcDbEntity
  8
Vrstva_1
 62
7
100
AcDbLine
 10
133.403684
 20
118.300335
 30
0.0
 11
132.980351
 21
118.300335
 31
0.0
  0
LINE
  5
2fb
100
AcDbEntity
  8
Vrstva_1
 62
7
100
AcDbLine
 10
132.980351
 20
118.300335
 30
0.0
 11
132.557018
 21
118.300335
 31
0.0
  0
LINE
  5
2fc
100
AcDbEntity
  8
Vrstva_1
 62
7
100
AcDbLine
 10
132.557018
 20
118.300335
 30
0.0
 11
132.557018
 21
117.877001
 31
0.0
  0
LINE
  5
2fd
100
AcDbEntity
  8
Vrstva_1
 62
7
100
AcDbLine
 10
132.557018
 20
117.877001
 30
0.0
 11
132.557018
 21
117.453668
 31
0.0
  0
LINE
  5
2fe
100
AcDbEntity
  8
Vrstva_1
 62
7
100
AcDbLine
 10
132.557018
 20
117.453668
 30
0.0
 11
131.710351
 21
117.453668
 31
0.0
  0
LINE
  5
2ff
100
AcDbEntity
  8
Vrstva_1
 62
7
100
AcDbLine
 10
131.710351
 20
117.453668
 30
0.0
 11
131.710351
 21
117.453668
 31
0.0
  0
LINE
  5
300
100
AcDbEntity
  8
Vrstva_1
 62
7
100
AcDbLine
 10
143.140351
 20
116.607001
 30
0.0
 11
143.563684
 21
116.607001
 31
0.0
  0
LINE
  5
301
100
AcDbEntity
  8
Vrstva_1
 62
7
100
AcDbLine
 10
143.563684
 20
116.607001
 30
0.0
 11
143.563684
 21
117.453668
 31
0.0
  0
LINE
  5
302
100
AcDbEntity
  8
Vrstva_1
 62
7
100
AcDbLine
 10
143.563684
 20
117.453668
 30
0.0
 11
143.563684
 21
118.300335
 31
0.0
  0
LINE
  5
303
100
AcDbEntity
  8
Vrstva_1
 62
7
100
AcDbLine
 10
143.563684
 20
118.300335
 30
0.0
 11
143.140351
 21
118.300335
 31
0.0
  0
LINE
  5
304
100
AcDbEntity
  8
Vrstva_1
 62
7
100
AcDbLine
 10
143.140351
 20
118.300335
 30
0.0
 11
142.717018
 21
118.300335
 31
0.0
  0
LINE
  5
305
100
AcDbEntity
  8
Vrstva_1
 62
7
100
AcDbLine
 10
142.717018
 20
118.300335
 30
0.0
 11
142.717018
 21
118.723668
 31
0.0
  0
LINE
  5
306
100
AcDbEntity
  8
Vrstva_1
 62
7
100
AcDbLine
 10
142.717018
 20
118.723668
 30
0.0
 11
142.717018
 21
119.147001
 31
0.0
  0
LINE
  5
307
100
AcDbEntity
  8
Vrstva_1
 62
7
100
AcDbLine
 10
142.717018
 20
119.147001
 30
0.0
 11
142.293684
 21
119.147001
 31
0.0
  0
LINE
  5
308
100
AcDbEntity
  8
Vrstva_1
 62
7
100
AcDbLine
 10
142.293684
 20
119.147001
 30
0.0
 11
141.870351
 21
119.147001
 31
0.0
  0
LINE
  5
309
100
AcDbEntity
  8
Vrstva_1
 62
7
100
AcDbLine
 10
141.870351
 20
119.147001
 30
0.0
 11
141.870351
 21
118.723668
 31
0.0
  0
LINE
  5
30a
100
AcDbEntity
  8
Vrstva_1
 62
7
100
AcDbLine
 10
141.870351
 20
118.723668
 30
0.0
 11
141.870351
 21
118.300335
 31
0.0
  0
LINE
  5
30b
100
AcDbEntity
  8
Vrstva_1
 62
7
100
AcDbLine
 10
141.870351
 20
118.300335
 30
0.0
 11
141.447018
 21
118.300335
 31
0.0
  0
LINE
  5
30c
100
AcDbEntity
  8
Vrstva_1
 62
7
100
AcDbLine
 10
141.447018
 20
118.300335
 30
0.0
 11
141.023684
 21
118.300335
 31
0.0
  0
LINE
  5
30d
100
AcDbEntity
  8
Vrstva_1
 62
7
100
AcDbLine
 10
141.023684
 20
118.300335
 30
0.0
 11
141.023684
 21
117.877001
 31
0.0
  0
LINE
  5
30e
100
AcDbEntity
  8
Vrstva_1
 62
7
100
AcDbLine
 10
141.023684
 20
117.877001
 30
0.0
 11
141.023684
 21
117.453668
 31
0.0
  0
LINE
  5
30f
100
AcDbEntity
  8
Vrstva_1
 62
7
100
AcDbLine
 10
141.023684
 20
117.453668
 30
0.0
 11
141.870351
 21
117.453668
 31
0.0
  0
LINE
  5
310
100
AcDbEntity
  8
Vrstva_1
 62
7
100
AcDbLine
 10
141.870351
 20
117.453668
 30
0.0
 11
142.717018
 21
117.453668
 31
0.0
  0
LINE
  5
311
100
AcDbEntity
  8
Vrstva_1
 62
7
100
AcDbLine
 10
142.717018
 20
117.453668
 30
0.0
 11
142.717018
 21
117.030335
 31
0.0
  0
LINE
  5
312
100
AcDbEntity
  8
Vrstva_1
 62
7
100
AcDbLine
 10
142.717018
 20
117.030335
 30
0.0
 11
142.717018
 21
116.607001
 31
0.0
  0
LINE
  5
313
100
AcDbEntity
  8
Vrstva_1
 62
7
100
AcDbLine
 10
142.717018
 20
116.607001
 30
0.0
 11
143.140351
 21
116.607001
 31
0.0
  0
LINE
  5
314
100
AcDbEntity
  8
Vrstva_1
 62
7
100
AcDbLine
 10
143.140351
 20
116.607001
 30
0.0
 11
143.140351
 21
116.607001
 31
0.0
  0
LINE
  5
315
100
AcDbEntity
  8
Vrstva_1
 62
7
100
AcDbLine
 10
138.907018
 20
117.453668
 30
0.0
 11
140.177018
 21
117.453668
 31
0.0
  0
LINE
  5
316
100
AcDbEntity
  8
Vrstva_1
 62
7
100
AcDbLine
 10
140.177018
 20
117.453668
 30
0.0
 11
140.177018
 21
118.723668
 31
0.0
  0
LINE
  5
317
100
AcDbEntity
  8
Vrstva_1
 62
7
100
AcDbLine
 10
140.177018
 20
118.723668
 30
0.0
 11
140.177018
 21
119.993668
 31
0.0
  0
LINE
  5
318
100
AcDbEntity
  8
Vrstva_1
 62
7
100
AcDbLine
 10
140.177018
 20
119.993668
 30
0.0
 11
138.907018
 21
119.993668
 31
0.0
  0
LINE
  5
319
100
AcDbEntity
  8
Vrstva_1
 62
7
100
AcDbLine
 10
138.907018
 20
119.993668
 30
0.0
 11
137.637018
 21
119.993668
 31
0.0
  0
LINE
  5
31a
100
AcDbEntity
  8
Vrstva_1
 62
7
100
AcDbLine
 10
137.637018
 20
119.993668
 30
0.0
 11
137.637018
 21
118.723668
 31
0.0
  0
LINE
  5
31b
100
AcDbEntity
  8
Vrstva_1
 62
7
100
AcDbLine
 10
137.637018
 20
118.723668
 30
0.0
 11
137.637018
 21
117.453668
 31
0.0
  0
LINE
  5
31c
100
AcDbEntity
  8
Vrstva_1
 62
7
100
AcDbLine
 10
137.637018
 20
117.453668
 30
0.0
 11
138.907018
 21
117.453668
 31
0.0
  0
LINE
  5
31d
100
AcDbEntity
  8
Vrstva_1
 62
7
100
AcDbLine
 10
138.907018
 20
117.453668
 30
0.0
 11
138.907018
 21
117.453668
 31
0.0
  0
LINE
  5
31e
100
AcDbEntity
  8
Vrstva_1
 62
7
100
AcDbLine
 10
138.907018
 20
118.300335
 30
0.0
 11
138.483684
 21
118.300335
 31
0.0
  0
LINE
  5
31f
100
AcDbEntity
  8
Vrstva_1
 62
7
100
AcDbLine
 10
138.483684
 20
118.300335
 30
0.0
 11
138.483684
 21
118.723668
 31
0.0
  0
LINE
  5
320
100
AcDbEntity
  8
Vrstva_1
 62
7
100
AcDbLine
 10
138.483684
 20
118.723668
 30
0.0
 11
138.483684
 21
119.147001
 31
0.0
  0
LINE
  5
321
100
AcDbEntity
  8
Vrstva_1
 62
7
100
AcDbLine
 10
138.483684
 20
119.147001
 30
0.0
 11
138.907018
 21
119.147001
 31
0.0
  0
LINE
  5
322
100
AcDbEntity
  8
Vrstva_1
 62
7
100
AcDbLine
 10
138.907018
 20
119.147001
 30
0.0
 11
139.330351
 21
119.147001
 31
0.0
  0
LINE
  5
323
100
AcDbEntity
  8
Vrstva_1
 62
7
100
AcDbLine
 10
139.330351
 20
119.147001
 30
0.0
 11
139.330351
 21
118.723668
 31
0.0
  0
LINE
  5
324
100
AcDbEntity
  8
Vrstva_1
 62
7
100
AcDbLine
 10
139.330351
 20
118.723668
 30
0.0
 11
139.330351
 21
118.300335
 31
0.0
  0
LINE
  5
325
100
AcDbEntity
  8
Vrstva_1
 62
7
100
AcDbLine
 10
139.330351
 20
118.300335
 30
0.0
 11
138.907018
 21
118.300335
 31
0.0
  0
LINE
  5
326
100
AcDbEntity
  8
Vrstva_1
 62
7
100
AcDbLine
 10
138.907018
 20
118.300335
 30
0.0
 11
138.907018
 21
118.300335
 31
0.0
  0
LINE
  5
327
100
AcDbEntity
  8
Vrstva_1
 62
7
100
AcDbLine
 10
127.053684
 20
120.840335
 30
0.0
 11
127.477018
 21
120.840335
 31
0.0
  0
LINE
  5
328
100
AcDbEntity
  8
Vrstva_1
 62
7
100
AcDbLine
 10
127.477018
 20
120.840335
 30
0.0
 11
127.477018
 21
121.263668
 31
0.0
  0
LINE
  5
329
100
AcDbEntity
  8
Vrstva_1
 62
7
100
AcDbLine
 10
127.477018
 20
121.263668
 30
0.0
 11
127.477018
 21
121.687001
 31
0.0
  0
LINE
  5
32a
100
AcDbEntity
  8
Vrstva_1
 62
7
100
AcDbLine
 10
127.477018
 20
121.687001
 30
0.0
 11
127.053684
 21
121.687001
 31
0.0
  0
LINE
  5
32b
100
AcDbEntity
  8
Vrstva_1
 62
7
100
AcDbLine
 10
127.053684
 20
121.687001
 30
0.0
 11
126.630351
 21
121.687001
 31
0.0
  0
LINE
  5
32c
100
AcDbEntity
  8
Vrstva_1
 62
7
100
AcDbLine
 10
126.630351
 20
121.687001
 30
0.0
 11
126.630351
 21
121.263668
 31
0.0
  0
LINE
  5
32d
100
AcDbEntity
  8
Vrstva_1
 62
7
100
AcDbLine
 10
126.630351
 20
121.263668
 30
0.0
 11
126.630351
 21
120.840335
 31
0.0
  0
LINE
  5
32e
100
AcDbEntity
  8
Vrstva_1
 62
7
100
AcDbLine
 10
126.630351
 20
120.840335
 30
0.0
 11
127.053684
 21
120.840335
 31
0.0
  0
LINE
  5
32f
100
AcDbEntity
  8
Vrstva_1
 62
7
100
AcDbLine
 10
127.053684
 20
120.840335
 30
0.0
 11
127.053684
 21
120.840335
 31
0.0
  0
LINE
  5
330
100
AcDbEntity
  8
Vrstva_1
 62
7
100
AcDbLine
 10
138.060351
 20
120.840335
 30
0.0
 11
138.483684
 21
120.840335
 31
0.0
  0
LINE
  5
331
100
AcDbEntity
  8
Vrstva_1
 62
7
100
AcDbLine
 10
138.483684
 20
120.840335
 30
0.0
 11
138.483684
 21
121.263668
 31
0.0
  0
LINE
  5
332
100
AcDbEntity
  8
Vrstva_1
 62
7
100
AcDbLine
 10
138.483684
 20
121.263668
 30
0.0
 11
138.483684
 21
121.687001
 31
0.0
  0
LINE
  5
333
100
AcDbEntity
  8
Vrstva_1
 62
7
100
AcDbLine
 10
138.483684
 20
121.687001
 30
0.0
 11
138.060351
 21
121.687001
 31
0.0
  0
LINE
  5
334
100
AcDbEntity
  8
Vrstva_1
 62
7
100
AcDbLine
 10
138.060351
 20
121.687001
 30
0.0
 11
137.637018
 21
121.687001
 31
0.0
  0
LINE
  5
335
100
AcDbEntity
  8
Vrstva_1
 62
7
100
AcDbLine
 10
137.637018
 20
121.687001
 30
0.0
 11
137.637018
 21
121.263668
 31
0.0
  0
LINE
  5
336
100
AcDbEntity
  8
Vrstva_1
 62
7
100
AcDbLine
 10
137.637018
 20
121.263668
 30
0.0
 11
137.637018
 21
120.840335
 31
0.0
  0
LINE
  5
337
100
AcDbEntity
  8
Vrstva_1
 62
7
100
AcDbLine
 10
137.637018
 20
120.840335
 30
0.0
 11
138.060351
 21
120.840335
 31
0.0
  0
LINE
  5
338
100
AcDbEntity
  8
Vrstva_1
 62
7
100
AcDbLine
 10
138.060351
 20
120.840335
 30
0.0
 11
138.060351
 21
120.840335
 31
0.0
  0
LINE
  5
339
100
AcDbEntity
  8
Vrstva_1
 62
7
100
AcDbLine
 10
138.907018
 20
113.220335
 30
0.0
 11
138.483684
 21
113.220335
 31
0.0
  0
LINE
  5
33a
100
AcDbEntity
  8
Vrstva_1
 62
7
100
AcDbLine
 10
138.483684
 20
113.220335
 30
0.0
 11
138.483684
 21
114.067001
 31
0.0
  0
LINE
  5
33b
100
AcDbEntity
  8
Vrstva_1
 62
7
100
AcDbLine
 10
138.483684
 20
114.067001
 30
0.0
 11
138.483684
 21
114.913668
 31
0.0
  0
LINE
  5
33c
100
AcDbEntity
  8
Vrstva_1
 62
7
100
AcDbLine
 10
138.483684
 20
114.913668
 30
0.0
 11
138.907018
 21
114.913668
 31
0.0
  0
LINE
  5
33d
100
AcDbEntity
  8
Vrstva_1
 62
7
100
AcDbLine
 10
138.907018
 20
114.913668
 30
0.0
 11
139.330351
 21
114.913668
 31
0.0
  0
LINE
  5
33e
100
AcDbEntity
  8
Vrstva_1
 62
7
100
AcDbLine
 10
139.330351
 20
114.913668
 30
0.0
 11
139.330351
 21
115.337001
 31
0.0
  0
LINE
  5
33f
100
AcDbEntity
  8
Vrstva_1
 62
7
100
AcDbLine
 10
139.330351
 20
115.337001
 30
0.0
 11
139.330351
 21
115.760335
 31
0.0
  0
LINE
  5
340
100
AcDbEntity
  8
Vrstva_1
 62
7
100
AcDbLine
 10
139.330351
 20
115.760335
 30
0.0
 11
139.753684
 21
115.760335
 31
0.0
  0
LINE
  5
341
100
AcDbEntity
  8
Vrstva_1
 62
7
100
AcDbLine
 10
139.753684
 20
115.760335
 30
0.0
 11
140.177018
 21
115.760335
 31
0.0
  0
LINE
  5
342
100
AcDbEntity
  8
Vrstva_1
 62
7
100
AcDbLine
 10
140.177018
 20
115.760335
 30
0.0
 11
140.177018
 21
114.913668
 31
0.0
  0
LINE
  5
343
100
AcDbEntity
  8
Vrstva_1
 62
7
100
AcDbLine
 10
140.177018
 20
114.913668
 30
0.0
 11
140.177018
 21
114.067001
 31
0.0
  0
LINE
  5
344
100
AcDbEntity
  8
Vrstva_1
 62
7
100
AcDbLine
 10
140.177018
 20
114.067001
 30
0.0
 11
139.753684
 21
114.067001
 31
0.0
  0
LINE
  5
345
100
AcDbEntity
  8
Vrstva_1
 62
7
100
AcDbLine
 10
139.753684
 20
114.067001
 30
0.0
 11
139.330351
 21
114.067001
 31
0.0
  0
LINE
  5
346
100
AcDbEntity
  8
Vrstva_1
 62
7
100
AcDbLine
 10
139.330351
 20
114.067001
 30
0.0
 11
139.330351
 21
113.643668
 31
0.0
  0
LINE
  5
347
100
AcDbEntity
  8
Vrstva_1
 62
7
100
AcDbLine
 10
139.330351
 20
113.643668
 30
0.0
 11
139.330351
 21
113.220335
 31
0.0
  0
LINE
  5
348
100
AcDbEntity
  8
Vrstva_1
 62
7
100
AcDbLine
 10
139.330351
 20
113.220335
 30
0.0
 11
138.907018
 21
113.220335
 31
0.0
  0
LINE
  5
349
100
AcDbEntity
  8
Vrstva_1
 62
7
100
AcDbLine
 10
138.907018
 20
113.220335
 30
0.0
 11
138.907018
 21
113.220335
 31
0.0
  0
LINE
  5
34a
100
AcDbEntity
  8
Vrstva_1
 62
7
100
AcDbLine
 10
141.447018
 20
113.220335
 30
0.0
 11
141.023684
 21
113.220335
 31
0.0
  0
LINE
  5
34b
100
AcDbEntity
  8
Vrstva_1
 62
7
100
AcDbLine
 10
141.023684
 20
113.220335
 30
0.0
 11
141.023684
 21
114.067001
 31
0.0
  0
LINE
  5
34c
100
AcDbEntity
  8
Vrstva_1
 62
7
100
AcDbLine
 10
141.023684
 20
114.067001
 30
0.0
 11
141.023684
 21
114.913668
 31
0.0
  0
LINE
  5
34d
100
AcDbEntity
  8
Vrstva_1
 62
7
100
AcDbLine
 10
141.023684
 20
114.913668
 30
0.0
 11
141.447018
 21
114.913668
 31
0.0
  0
LINE
  5
34e
100
AcDbEntity
  8
Vrstva_1
 62
7
100
AcDbLine
 10
141.447018
 20
114.913668
 30
0.0
 11
141.870351
 21
114.913668
 31
0.0
  0
LINE
  5
34f
100
AcDbEntity
  8
Vrstva_1
 62
7
100
AcDbLine
 10
141.870351
 20
114.913668
 30
0.0
 11
141.870351
 21
114.067001
 31
0.0
  0
LINE
  5
350
100
AcDbEntity
  8
Vrstva_1
 62
7
100
AcDbLine
 10
141.870351
 20
114.067001
 30
0.0
 11
141.870351
 21
113.220335
 31
0.0
  0
LINE
  5
351
100
AcDbEntity
  8
Vrstva_1
 62
7
100
AcDbLine
 10
141.870351
 20
113.220335
 30
0.0
 11
141.447018
 21
113.220335
 31
0.0
  0
LINE
  5
352
100
AcDbEntity
  8
Vrstva_1
 62
7
100
AcDbLine
 10
141.447018
 20
113.220335
 30
0.0
 11
141.447018
 21
113.220335
 31
0.0
  0
LINE
  5
353
100
AcDbEntity
  8
Vrstva_1
 62
7
100
AcDbLine
 10
120.280351
 20
121.687001
 30
0.0
 11
119.857018
 21
121.687001
 31
0.0
  0
LINE
  5
354
100
AcDbEntity
  8
Vrstva_1
 62
7
100
AcDbLine
 10
119.857018
 20
121.687001
 30
0.0
 11
119.857018
 21
122.110335
 31
0.0
  0
LINE
  5
355
100
AcDbEntity
  8
Vrstva_1
 62
7
100
AcDbLine
 10
119.857018
 20
122.110335
 30
0.0
 11
119.857018
 21
122.533668
 31
0.0
  0
LINE
  5
356
100
AcDbEntity
  8
Vrstva_1
 62
7
100
AcDbLine
 10
119.857018
 20
122.533668
 30
0.0
 11
120.280351
 21
122.533668
 31
0.0
  0
LINE
  5
357
100
AcDbEntity
  8
Vrstva_1
 62
7
100
AcDbLine
 10
120.280351
 20
122.533668
 30
0.0
 11
120.703684
 21
122.533668
 31
0.0
  0
LINE
  5
358
100
AcDbEntity
  8
Vrstva_1
 62
7
100
AcDbLine
 10
120.703684
 20
122.533668
 30
0.0
 11
120.703684
 21
122.110335
 31
0.0
  0
LINE
  5
359
100
AcDbEntity
  8
Vrstva_1
 62
7
100
AcDbLine
 10
120.703684
 20
122.110335
 30
0.0
 11
120.703684
 21
121.687001
 31
0.0
  0
LINE
  5
35a
100
AcDbEntity
  8
Vrstva_1
 62
7
100
AcDbLine
 10
120.703684
 20
121.687001
 30
0.0
 11
120.280351
 21
121.687001
 31
0.0
  0
LINE
  5
35b
100
AcDbEntity
  8
Vrstva_1
 62
7
100
AcDbLine
 10
120.280351
 20
121.687001
 30
0.0
 11
120.280351
 21
121.687001
 31
0.0
  0
LINE
  5
35c
100
AcDbEntity
  8
Vrstva_1
 62
7
100
AcDbLine
 10
123.243684
 20
122.533668
 30
0.0
 11
122.397018
 21
122.533668
 31
0.0
  0
LINE
  5
35d
100
AcDbEntity
  8
Vrstva_1
 62
7
100
AcDbLine
 10
122.397018
 20
122.533668
 30
0.0
 11
122.397018
 21
122.957001
 31
0.0
  0
LINE
  5
35e
100
AcDbEntity
  8
Vrstva_1
 62
7
100
AcDbLine
 10
122.397018
 20
122.957001
 30
0.0
 11
122.397018
 21
123.380335
 31
0.0
  0
LINE
  5
35f
100
AcDbEntity
  8
Vrstva_1
 62
7
100
AcDbLine
 10
122.397018
 20
123.380335
 30
0.0
 11
121.973684
 21
123.380335
 31
0.0
  0
LINE
  5
360
100
AcDbEntity
  8
Vrstva_1
 62
7
100
AcDbLine
 10
121.973684
 20
123.380335
 30
0.0
 11
121.550351
 21
123.380335
 31
0.0
  0
LINE
  5
361
100
AcDbEntity
  8
Vrstva_1
 62
7
100
AcDbLine
 10
121.550351
 20
123.380335
 30
0.0
 11
121.550351
 21
123.803668
 31
0.0
  0
LINE
  5
362
100
AcDbEntity
  8
Vrstva_1
 62
7
100
AcDbLine
 10
121.550351
 20
123.803668
 30
0.0
 11
121.550351
 21
124.227001
 31
0.0
  0
LINE
  5
363
100
AcDbEntity
  8
Vrstva_1
 62
7
100
AcDbLine
 10
121.550351
 20
124.227001
 30
0.0
 11
121.127018
 21
124.227001
 31
0.0
  0
LINE
  5
364
100
AcDbEntity
  8
Vrstva_1
 62
7
100
AcDbLine
 10
121.127018
 20
124.227001
 30
0.0
 11
120.703684
 21
124.227001
 31
0.0
  0
LINE
  5
365
100
AcDbEntity
  8
Vrstva_1
 62
7
100
AcDbLine
 10
120.703684
 20
124.227001
 30
0.0
 11
120.703684
 21
123.803668
 31
0.0
  0
LINE
  5
366
100
AcDbEntity
  8
Vrstva_1
 62
7
100
AcDbLine
 10
120.703684
 20
123.803668
 30
0.0
 11
120.703684
 21
123.380335
 31
0.0
  0
LINE
  5
367
100
AcDbEntity
  8
Vrstva_1
 62
7
100
AcDbLine
 10
120.703684
 20
123.380335
 30
0.0
 11
120.280351
 21
123.380335
 31
0.0
  0
LINE
  5
368
100
AcDbEntity
  8
Vrstva_1
 62
7
100
AcDbLine
 10
120.280351
 20
123.380335
 30
0.0
 11
119.857018
 21
123.380335
 31
0.0
  0
LINE
  5
369
100
AcDbEntity
  8
Vrstva_1
 62
7
100
AcDbLine
 10
119.857018
 20
123.380335
 30
0.0
 11
119.857018
 21
124.227001
 31
0.0
  0
LINE
  5
36a
100
AcDbEntity
  8
Vrstva_1
 62
7
100
AcDbLine
 10
119.857018
 20
124.227001
 30
0.0
 11
119.857018
 21
125.073668
 31
0.0
  0
LINE
  5
36b
100
AcDbEntity
  8
Vrstva_1
 62
7
100
AcDbLine
 10
119.857018
 20
125.073668
 30
0.0
 11
120.703684
 21
125.073668
 31
0.0
  0
LINE
  5
36c
100
AcDbEntity
  8
Vrstva_1
 62
7
100
AcDbLine
 10
120.703684
 20
125.073668
 30
0.0
 11
121.550351
 21
125.073668
 31
0.0
  0
LINE
  5
36d
100
AcDbEntity
  8
Vrstva_1
 62
7
100
AcDbLine
 10
121.550351
 20
125.073668
 30
0.0
 11
121.550351
 21
125.497001
 31
0.0
  0
LINE
  5
36e
100
AcDbEntity
  8
Vrstva_1
 62
7
100
AcDbLine
 10
121.550351
 20
125.497001
 30
0.0
 11
121.550351
 21
125.920335
 31
0.0
  0
LINE
  5
36f
100
AcDbEntity
  8
Vrstva_1
 62
7
100
AcDbLine
 10
121.550351
 20
125.920335
 30
0.0
 11
120.703684
 21
125.920335
 31
0.0
  0
LINE
  5
370
100
AcDbEntity
  8
Vrstva_1
 62
7
100
AcDbLine
 10
120.703684
 20
125.920335
 30
0.0
 11
119.857018
 21
125.920335
 31
0.0
  0
LINE
  5
371
100
AcDbEntity
  8
Vrstva_1
 62
7
100
AcDbLine
 10
119.857018
 20
125.920335
 30
0.0
 11
119.857018
 21
126.767001
 31
0.0
  0
LINE
  5
372
100
AcDbEntity
  8
Vrstva_1
 62
7
100
AcDbLine
 10
119.857018
 20
126.767001
 30
0.0
 11
119.857018
 21
127.613668
 31
0.0
  0
LINE
  5
373
100
AcDbEntity
  8
Vrstva_1
 62
7
100
AcDbLine
 10
119.857018
 20
127.613668
 30
0.0
 11
120.280351
 21
127.613668
 31
0.0
  0
LINE
  5
374
100
AcDbEntity
  8
Vrstva_1
 62
7
100
AcDbLine
 10
120.280351
 20
127.613668
 30
0.0
 11
120.703684
 21
127.613668
 31
0.0
  0
LINE
  5
375
100
AcDbEntity
  8
Vrstva_1
 62
7
100
AcDbLine
 10
120.703684
 20
127.613668
 30
0.0
 11
120.703684
 21
127.190335
 31
0.0
  0
LINE
  5
376
100
AcDbEntity
  8
Vrstva_1
 62
7
100
AcDbLine
 10
120.703684
 20
127.190335
 30
0.0
 11
120.703684
 21
126.767001
 31
0.0
  0
LINE
  5
377
100
AcDbEntity
  8
Vrstva_1
 62
7
100
AcDbLine
 10
120.703684
 20
126.767001
 30
0.0
 11
121.127018
 21
126.767001
 31
0.0
  0
LINE
  5
378
100
AcDbEntity
  8
Vrstva_1
 62
7
100
AcDbLine
 10
121.127018
 20
126.767001
 30
0.0
 11
121.550351
 21
126.767001
 31
0.0
  0
LINE
  5
379
100
AcDbEntity
  8
Vrstva_1
 62
7
100
AcDbLine
 10
121.550351
 20
126.767001
 30
0.0
 11
121.550351
 21
127.190335
 31
0.0
  0
LINE
  5
37a
100
AcDbEntity
  8
Vrstva_1
 62
7
100
AcDbLine
 10
121.550351
 20
127.190335
 30
0.0
 11
121.550351
 21
127.613668
 31
0.0
  0
LINE
  5
37b
100
AcDbEntity
  8
Vrstva_1
 62
7
100
AcDbLine
 10
121.550351
 20
127.613668
 30
0.0
 11
121.127018
 21
127.613668
 31
0.0
  0
LINE
  5
37c
100
AcDbEntity
  8
Vrstva_1
 62
7
100
AcDbLine
 10
121.127018
 20
127.613668
 30
0.0
 11
120.703684
 21
127.613668
 31
0.0
  0
LINE
  5
37d
100
AcDbEntity
  8
Vrstva_1
 62
7
100
AcDbLine
 10
120.703684
 20
127.613668
 30
0.0
 11
120.703684
 21
128.460335
 31
0.0
  0
LINE
  5
37e
100
AcDbEntity
  8
Vrstva_1
 62
7
100
AcDbLine
 10
120.703684
 20
128.460335
 30
0.0
 11
120.703684
 21
129.307001
 31
0.0
  0
LINE
  5
37f
100
AcDbEntity
  8
Vrstva_1
 62
7
100
AcDbLine
 10
120.703684
 20
129.307001
 30
0.0
 11
120.280351
 21
129.307001
 31
0.0
  0
LINE
  5
380
100
AcDbEntity
  8
Vrstva_1
 62
7
100
AcDbLine
 10
120.280351
 20
129.307001
 30
0.0
 11
119.857018
 21
129.307001
 31
0.0
  0
LINE
  5
381
100
AcDbEntity
  8
Vrstva_1
 62
7
100
AcDbLine
 10
119.857018
 20
129.307001
 30
0.0
 11
119.857018
 21
130.153668
 31
0.0
  0
LINE
  5
382
100
AcDbEntity
  8
Vrstva_1
 62
7
100
AcDbLine
 10
119.857018
 20
130.153668
 30
0.0
 11
119.857018
 21
131.000335
 31
0.0
  0
LINE
  5
383
100
AcDbEntity
  8
Vrstva_1
 62
7
100
AcDbLine
 10
119.857018
 20
131.000335
 30
0.0
 11
120.280351
 21
131.000335
 31
0.0
  0
LINE
  5
384
100
AcDbEntity
  8
Vrstva_1
 62
7
100
AcDbLine
 10
120.280351
 20
131.000335
 30
0.0
 11
120.703684
 21
131.000335
 31
0.0
  0
LINE
  5
385
100
AcDbEntity
  8
Vrstva_1
 62
7
100
AcDbLine
 10
120.703684
 20
131.000335
 30
0.0
 11
120.703684
 21
130.577001
 31
0.0
  0
LINE
  5
386
100
AcDbEntity
  8
Vrstva_1
 62
7
100
AcDbLine
 10
120.703684
 20
130.577001
 30
0.0
 11
120.703684
 21
130.153668
 31
0.0
  0
LINE
  5
387
100
AcDbEntity
  8
Vrstva_1
 62
7
100
AcDbLine
 10
120.703684
 20
130.153668
 30
0.0
 11
121.127018
 21
130.153668
 31
0.0
  0
LINE
  5
388
100
AcDbEntity
  8
Vrstva_1
 62
7
100
AcDbLine
 10
121.127018
 20
130.153668
 30
0.0
 11
121.550351
 21
130.153668
 31
0.0
  0
LINE
  5
389
100
AcDbEntity
  8
Vrstva_1
 62
7
100
AcDbLine
 10
121.550351
 20
130.153668
 30
0.0
 11
121.550351
 21
129.730335
 31
0.0
  0
LINE
  5
38a
100
AcDbEntity
  8
Vrstva_1
 62
7
100
AcDbLine
 10
121.550351
 20
129.730335
 30
0.0
 11
121.550351
 21
129.307001
 31
0.0
  0
LINE
  5
38b
100
AcDbEntity
  8
Vrstva_1
 62
7
100
AcDbLine
 10
121.550351
 20
129.307001
 30
0.0
 11
122.397018
 21
129.307001
 31
0.0
  0
LINE
  5
38c
100
AcDbEntity
  8
Vrstva_1
 62
7
100
AcDbLine
 10
122.397018
 20
129.307001
 30
0.0
 11
123.243684
 21
129.307001
 31
0.0
  0
LINE
  5
38d
100
AcDbEntity
  8
Vrstva_1
 62
7
100
AcDbLine
 10
123.243684
 20
129.307001
 30
0.0
 11
123.243684
 21
128.883668
 31
0.0
  0
LINE
  5
38e
100
AcDbEntity
  8
Vrstva_1
 62
7
100
AcDbLine
 10
123.243684
 20
128.883668
 30
0.0
 11
123.243684
 21
128.460335
 31
0.0
  0
LINE
  5
38f
100
AcDbEntity
  8
Vrstva_1
 62
7
100
AcDbLine
 10
123.243684
 20
128.460335
 30
0.0
 11
122.820351
 21
128.460335
 31
0.0
  0
LINE
  5
390
100
AcDbEntity
  8
Vrstva_1
 62
7
100
AcDbLine
 10
122.820351
 20
128.460335
 30
0.0
 11
122.397018
 21
128.460335
 31
0.0
  0
LINE
  5
391
100
AcDbEntity
  8
Vrstva_1
 62
7
100
AcDbLine
 10
122.397018
 20
128.460335
 30
0.0
 11
122.397018
 21
127.613668
 31
0.0
  0
LINE
  5
392
100
AcDbEntity
  8
Vrstva_1
 62
7
100
AcDbLine
 10
122.397018
 20
127.613668
 30
0.0
 11
122.397018
 21
126.767001
 31
0.0
  0
LINE
  5
393
100
AcDbEntity
  8
Vrstva_1
 62
7
100
AcDbLine
 10
122.397018
 20
126.767001
 30
0.0
 11
122.820351
 21
126.767001
 31
0.0
  0
LINE
  5
394
100
AcDbEntity
  8
Vrstva_1
 62
7
100
AcDbLine
 10
122.820351
 20
126.767001
 30
0.0
 11
123.243684
 21
126.767001
 31
0.0
  0
LINE
  5
395
100
AcDbEntity
  8
Vrstva_1
 62
7
100
AcDbLine
 10
123.243684
 20
126.767001
 30
0.0
 11
123.243684
 21
126.343668
 31
0.0
  0
LINE
  5
396
100
AcDbEntity
  8
Vrstva_1
 62
7
100
AcDbLine
 10
123.243684
 20
126.343668
 30
0.0
 11
123.243684
 21
125.920335
 31
0.0
  0
LINE
  5
397
100
AcDbEntity
  8
Vrstva_1
 62
7
100
AcDbLine
 10
123.243684
 20
125.920335
 30
0.0
 11
122.820351
 21
125.920335
 31
0.0
  0
LINE
  5
398
100
AcDbEntity
  8
Vrstva_1
 62
7
100
AcDbLine
 10
122.820351
 20
125.920335
 30
0.0
 11
122.397018
 21
125.920335
 31
0.0
  0
LINE
  5
399
100
AcDbEntity
  8
Vrstva_1
 62
7
100
AcDbLine
 10
122.397018
 20
125.920335
 30
0.0
 11
122.397018
 21
125.497001
 31
0.0
  0
LINE
  5
39a
100
AcDbEntity
  8
Vrstva_1
 62
7
100
AcDbLine
 10
122.397018
 20
125.497001
 30
0.0
 11
122.397018
 21
125.073668
 31
0.0
  0
LINE
  5
39b
100
AcDbEntity
  8
Vrstva_1
 62
7
100
AcDbLine
 10
122.397018
 20
125.073668
 30
0.0
 11
122.820351
 21
125.073668
 31
0.0
  0
LINE
  5
39c
100
AcDbEntity
  8
Vrstva_1
 62
7
100
AcDbLine
 10
122.820351
 20
125.073668
 30
0.0
 11
123.243684
 21
125.073668
 31
0.0
  0
LINE
  5
39d
100
AcDbEntity
  8
Vrstva_1
 62
7
100
AcDbLine
 10
123.243684
 20
125.073668
 30
0.0
 11
123.243684
 21
124.650335
 31
0.0
  0
LINE
  5
39e
100
AcDbEntity
  8
Vrstva_1
 62
7
100
AcDbLine
 10
123.243684
 20
124.650335
 30
0.0
 11
123.243684
 21
124.227001
 31
0.0
  0
LINE
  5
39f
100
AcDbEntity
  8
Vrstva_1
 62
7
100
AcDbLine
 10
123.243684
 20
124.227001
 30
0.0
 11
123.667018
 21
124.227001
 31
0.0
  0
LINE
  5
3a0
100
AcDbEntity
  8
Vrstva_1
 62
7
100
AcDbLine
 10
123.667018
 20
124.227001
 30
0.0
 11
124.090351
 21
124.227001
 31
0.0
  0
LINE
  5
3a1
100
AcDbEntity
  8
Vrstva_1
 62
7
100
AcDbLine
 10
124.090351
 20
124.227001
 30
0.0
 11
124.090351
 21
123.380335
 31
0.0
  0
LINE
  5
3a2
100
AcDbEntity
  8
Vrstva_1
 62
7
100
AcDbLine
 10
124.090351
 20
123.380335
 30
0.0
 11
124.090351
 21
122.533668
 31
0.0
  0
LINE
  5
3a3
100
AcDbEntity
  8
Vrstva_1
 62
7
100
AcDbLine
 10
124.090351
 20
122.533668
 30
0.0
 11
123.243684
 21
122.533668
 31
0.0
  0
LINE
  5
3a4
100
AcDbEntity
  8
Vrstva_1
 62
7
100
AcDbLine
 10
123.243684
 20
122.533668
 30
0.0
 11
123.243684
 21
122.533668
 31
0.0
  0
LINE
  5
3a5
100
AcDbEntity
  8
Vrstva_1
 62
7
100
AcDbLine
 10
124.513684
 20
124.227001
 30
0.0
 11
124.090351
 21
124.227001
 31
0.0
  0
LINE
  5
3a6
100
AcDbEntity
  8
Vrstva_1
 62
7
100
AcDbLine
 10
124.090351
 20
124.227001
 30
0.0
 11
124.090351
 21
124.650335
 31
0.0
  0
LINE
  5
3a7
100
AcDbEntity
  8
Vrstva_1
 62
7
100
AcDbLine
 10
124.090351
 20
124.650335
 30
0.0
 11
124.090351
 21
125.073668
 31
0.0
  0
LINE
  5
3a8
100
AcDbEntity
  8
Vrstva_1
 62
7
100
AcDbLine
 10
124.090351
 20
125.073668
 30
0.0
 11
123.667018
 21
125.073668
 31
0.0
  0
LINE
  5
3a9
100
AcDbEntity
  8
Vrstva_1
 62
7
100
AcDbLine
 10
123.667018
 20
125.073668
 30
0.0
 11
123.243684
 21
125.073668
 31
0.0
  0
LINE
  5
3aa
100
AcDbEntity
  8
Vrstva_1
 62
7
100
AcDbLine
 10
123.243684
 20
125.073668
 30
0.0
 11
123.243684
 21
125.497001
 31
0.0
  0
LINE
  5
3ab
100
AcDbEntity
  8
Vrstva_1
 62
7
100
AcDbLine
 10
123.243684
 20
125.497001
 30
0.0
 11
123.243684
 21
125.920335
 31
0.0
  0
LINE
  5
3ac
100
AcDbEntity
  8
Vrstva_1
 62
7
100
AcDbLine
 10
123.243684
 20
125.920335
 30
0.0
 11
124.937018
 21
125.920335
 31
0.0
  0
LINE
  5
3ad
100
AcDbEntity
  8
Vrstva_1
 62
7
100
AcDbLine
 10
124.937018
 20
125.920335
 30
0.0
 11
126.630351
 21
125.920335
 31
0.0
  0
LINE
  5
3ae
100
AcDbEntity
  8
Vrstva_1
 62
7
100
AcDbLine
 10
126.630351
 20
125.920335
 30
0.0
 11
126.630351
 21
125.497001
 31
0.0
  0
LINE
  5
3af
100
AcDbEntity
  8
Vrstva_1
 62
7
100
AcDbLine
 10
126.630351
 20
125.497001
 30
0.0
 11
126.630351
 21
125.073668
 31
0.0
  0
LINE
  5
3b0
100
AcDbEntity
  8
Vrstva_1
 62
7
100
AcDbLine
 10
126.630351
 20
125.073668
 30
0.0
 11
125.783684
 21
125.073668
 31
0.0
  0
LINE
  5
3b1
100
AcDbEntity
  8
Vrstva_1
 62
7
100
AcDbLine
 10
125.783684
 20
125.073668
 30
0.0
 11
124.937018
 21
125.073668
 31
0.0
  0
LINE
  5
3b2
100
AcDbEntity
  8
Vrstva_1
 62
7
100
AcDbLine
 10
124.937018
 20
125.073668
 30
0.0
 11
124.937018
 21
124.650335
 31
0.0
  0
LINE
  5
3b3
100
AcDbEntity
  8
Vrstva_1
 62
7
100
AcDbLine
 10
124.937018
 20
124.650335
 30
0.0
 11
124.937018
 21
124.227001
 31
0.0
  0
LINE
  5
3b4
100
AcDbEntity
  8
Vrstva_1
 62
7
100
AcDbLine
 10
124.937018
 20
124.227001
 30
0.0
 11
124.513684
 21
124.227001
 31
0.0
  0
LINE
  5
3b5
100
AcDbEntity
  8
Vrstva_1
 62
7
100
AcDbLine
 10
124.513684
 20
124.227001
 30
0.0
 11
124.513684
 21
124.227001
 31
0.0
  0
LINE
  5
3b6
100
AcDbEntity
  8
Vrstva_1
 62
7
100
AcDbLine
 10
132.133684
 20
125.920335
 30
0.0
 11
131.710351
 21
125.920335
 31
0.0
  0
LINE
  5
3b7
100
AcDbEntity
  8
Vrstva_1
 62
7
100
AcDbLine
 10
131.710351
 20
125.920335
 30
0.0
 11
131.710351
 21
126.767001
 31
0.0
  0
LINE
  5
3b8
100
AcDbEntity
  8
Vrstva_1
 62
7
100
AcDbLine
 10
131.710351
 20
126.767001
 30
0.0
 11
131.710351
 21
127.613668
 31
0.0
  0
LINE
  5
3b9
100
AcDbEntity
  8
Vrstva_1
 62
7
100
AcDbLine
 10
131.710351
 20
127.613668
 30
0.0
 11
132.133684
 21
127.613668
 31
0.0
  0
LINE
  5
3ba
100
AcDbEntity
  8
Vrstva_1
 62
7
100
AcDbLine
 10
132.133684
 20
127.613668
 30
0.0
 11
132.557018
 21
127.613668
 31
0.0
  0
LINE
  5
3bb
100
AcDbEntity
  8
Vrstva_1
 62
7
100
AcDbLine
 10
132.557018
 20
127.613668
 30
0.0
 11
132.557018
 21
126.767001
 31
0.0
  0
LINE
  5
3bc
100
AcDbEntity
  8
Vrstva_1
 62
7
100
AcDbLine
 10
132.557018
 20
126.767001
 30
0.0
 11
132.557018
 21
125.920335
 31
0.0
  0
LINE
  5
3bd
100
AcDbEntity
  8
Vrstva_1
 62
7
100
AcDbLine
 10
132.557018
 20
125.920335
 30
0.0
 11
132.133684
 21
125.920335
 31
0.0
  0
LINE
  5
3be
100
AcDbEntity
  8
Vrstva_1
 62
7
100
AcDbLine
 10
132.133684
 20
125.920335
 30
0.0
 11
132.133684
 21
125.920335
 31
0.0
  0
LINE
  5
3bf
100
AcDbEntity
  8
Vrstva_1
 62
7
100
AcDbLine
 10
124.937018
 20
126.767001
 30
0.0
 11
123.243684
 21
126.767001
 31
0.0
  0
LINE
  5
3c0
100
AcDbEntity
  8
Vrstva_1
 62
7
100
AcDbLine
 10
123.243684
 20
126.767001
 30
0.0
 11
123.243684
 21
127.613668
 31
0.0
  0
LINE
  5
3c1
100
AcDbEntity
  8
Vrstva_1
 62
7
100
AcDbLine
 10
123.243684
 20
127.613668
 30
0.0
 11
123.243684
 21
128.460335
 31
0.0
  0
LINE
  5
3c2
100
AcDbEntity
  8
Vrstva_1
 62
7
100
AcDbLine
 10
123.243684
 20
128.460335
 30
0.0
 11
123.667018
 21
128.460335
 31
0.0
  0
LINE
  5
3c3
100
AcDbEntity
  8
Vrstva_1
 62
7
100
AcDbLine
 10
123.667018
 20
128.460335
 30
0.0
 11
124.090351
 21
128.460335
 31
0.0
  0
LINE
  5
3c4
100
AcDbEntity
  8
Vrstva_1
 62
7
100
AcDbLine
 10
124.090351
 20
128.460335
 30
0.0
 11
124.090351
 21
128.883668
 31
0.0
  0
LINE
  5
3c5
100
AcDbEntity
  8
Vrstva_1
 62
7
100
AcDbLine
 10
124.090351
 20
128.883668
 30
0.0
 11
124.090351
 21
129.307001
 31
0.0
  0
LINE
  5
3c6
100
AcDbEntity
  8
Vrstva_1
 62
7
100
AcDbLine
 10
124.090351
 20
129.307001
 30
0.0
 11
123.667018
 21
129.307001
 31
0.0
  0
LINE
  5
3c7
100
AcDbEntity
  8
Vrstva_1
 62
7
100
AcDbLine
 10
123.667018
 20
129.307001
 30
0.0
 11
123.243684
 21
129.307001
 31
0.0
  0
LINE
  5
3c8
100
AcDbEntity
  8
Vrstva_1
 62
7
100
AcDbLine
 10
123.243684
 20
129.307001
 30
0.0
 11
123.243684
 21
129.730335
 31
0.0
  0
LINE
  5
3c9
100
AcDbEntity
  8
Vrstva_1
 62
7
100
AcDbLine
 10
123.243684
 20
129.730335
 30
0.0
 11
123.243684
 21
130.153668
 31
0.0
  0
LINE
  5
3ca
100
AcDbEntity
  8
Vrstva_1
 62
7
100
AcDbLine
 10
123.243684
 20
130.153668
 30
0.0
 11
122.397018
 21
130.153668
 31
0.0
  0
LINE
  5
3cb
100
AcDbEntity
  8
Vrstva_1
 62
7
100
AcDbLine
 10
122.397018
 20
130.153668
 30
0.0
 11
121.550351
 21
130.153668
 31
0.0
  0
LINE
  5
3cc
100
AcDbEntity
  8
Vrstva_1
 62
7
100
AcDbLine
 10
121.550351
 20
130.153668
 30
0.0
 11
121.550351
 21
130.577001
 31
0.0
  0
LINE
  5
3cd
100
AcDbEntity
  8
Vrstva_1
 62
7
100
AcDbLine
 10
121.550351
 20
130.577001
 30
0.0
 11
121.550351
 21
131.000335
 31
0.0
  0
LINE
  5
3ce
100
AcDbEntity
  8
Vrstva_1
 62
7
100
AcDbLine
 10
121.550351
 20
131.000335
 30
0.0
 11
122.397018
 21
131.000335
 31
0.0
  0
LINE
  5
3cf
100
AcDbEntity
  8
Vrstva_1
 62
7
100
AcDbLine
 10
122.397018
 20
131.000335
 30
0.0
 11
123.243684
 21
131.000335
 31
0.0
  0
LINE
  5
3d0
100
AcDbEntity
  8
Vrstva_1
 62
7
100
AcDbLine
 10
123.243684
 20
131.000335
 30
0.0
 11
123.243684
 21
130.577001
 31
0.0
  0
LINE
  5
3d1
100
AcDbEntity
  8
Vrstva_1
 62
7
100
AcDbLine
 10
123.243684
 20
130.577001
 30
0.0
 11
123.243684
 21
130.153668
 31
0.0
  0
LINE
  5
3d2
100
AcDbEntity
  8
Vrstva_1
 62
7
100
AcDbLine
 10
123.243684
 20
130.153668
 30
0.0
 11
123.667018
 21
130.153668
 31
0.0
  0
LINE
  5
3d3
100
AcDbEntity
  8
Vrstva_1
 62
7
100
AcDbLine
 10
123.667018
 20
130.153668
 30
0.0
 11
124.090351
 21
130.153668
 31
0.0
  0
LINE
  5
3d4
100
AcDbEntity
  8
Vrstva_1
 62
7
100
AcDbLine
 10
124.090351
 20
130.153668
 30
0.0
 11
124.090351
 21
130.577001
 31
0.0
  0
LINE
  5
3d5
100
AcDbEntity
  8
Vrstva_1
 62
7
100
AcDbLine
 10
124.090351
 20
130.577001
 30
0.0
 11
124.090351
 21
131.000335
 31
0.0
  0
LINE
  5
3d6
100
AcDbEntity
  8
Vrstva_1
 62
7
100
AcDbLine
 10
124.090351
 20
131.000335
 30
0.0
 11
125.360351
 21
131.000335
 31
0.0
  0
LINE
  5
3d7
100
AcDbEntity
  8
Vrstva_1
 62
7
100
AcDbLine
 10
125.360351
 20
131.000335
 30
0.0
 11
126.630351
 21
131.000335
 31
0.0
  0
LINE
  5
3d8
100
AcDbEntity
  8
Vrstva_1
 62
7
100
AcDbLine
 10
126.630351
 20
131.000335
 30
0.0
 11
126.630351
 21
131.847001
 31
0.0
  0
LINE
  5
3d9
100
AcDbEntity
  8
Vrstva_1
 62
7
100
AcDbLine
 10
126.630351
 20
131.847001
 30
0.0
 11
126.630351
 21
132.693668
 31
0.0
  0
LINE
  5
3da
100
AcDbEntity
  8
Vrstva_1
 62
7
100
AcDbLine
 10
126.630351
 20
132.693668
 30
0.0
 11
127.053684
 21
132.693668
 31
0.0
  0
LINE
  5
3db
100
AcDbEntity
  8
Vrstva_1
 62
7
100
AcDbLine
 10
127.053684
 20
132.693668
 30
0.0
 11
127.477018
 21
132.693668
 31
0.0
  0
LINE
  5
3dc
100
AcDbEntity
  8
Vrstva_1
 62
7
100
AcDbLine
 10
127.477018
 20
132.693668
 30
0.0
 11
127.477018
 21
133.540335
 31
0.0
  0
LINE
  5
3dd
100
AcDbEntity
  8
Vrstva_1
 62
7
100
AcDbLine
 10
127.477018
 20
133.540335
 30
0.0
 11
127.477018
 21
134.387001
 31
0.0
  0
LINE
  5
3de
100
AcDbEntity
  8
Vrstva_1
 62
7
100
AcDbLine
 10
127.477018
 20
134.387001
 30
0.0
 11
127.053684
 21
134.387001
 31
0.0
  0
LINE
  5
3df
100
AcDbEntity
  8
Vrstva_1
 62
7
100
AcDbLine
 10
127.053684
 20
134.387001
 30
0.0
 11
126.630351
 21
134.387001
 31
0.0
  0
LINE
  5
3e0
100
AcDbEntity
  8
Vrstva_1
 62
7
100
AcDbLine
 10
126.630351
 20
134.387001
 30
0.0
 11
126.630351
 21
134.810335
 31
0.0
  0
LINE
  5
3e1
100
AcDbEntity
  8
Vrstva_1
 62
7
100
AcDbLine
 10
126.630351
 20
134.810335
 30
0.0
 11
126.630351
 21
135.233668
 31
0.0
  0
LINE
  5
3e2
100
AcDbEntity
  8
Vrstva_1
 62
7
100
AcDbLine
 10
126.630351
 20
135.233668
 30
0.0
 11
127.053684
 21
135.233668
 31
0.0
  0
LINE
  5
3e3
100
AcDbEntity
  8
Vrstva_1
 62
7
100
AcDbLine
 10
127.053684
 20
135.233668
 30
0.0
 11
127.477018
 21
135.233668
 31
0.0
  0
LINE
  5
3e4
100
AcDbEntity
  8
Vrstva_1
 62
7
100
AcDbLine
 10
127.477018
 20
135.233668
 30
0.0
 11
127.477018
 21
135.657001
 31
0.0
  0
LINE
  5
3e5
100
AcDbEntity
  8
Vrstva_1
 62
7
100
AcDbLine
 10
127.477018
 20
135.657001
 30
0.0
 11
127.477018
 21
136.080335
 31
0.0
  0
LINE
  5
3e6
100
AcDbEntity
  8
Vrstva_1
 62
7
100
AcDbLine
 10
127.477018
 20
136.080335
 30
0.0
 11
127.053684
 21
136.080335
 31
0.0
  0
LINE
  5
3e7
100
AcDbEntity
  8
Vrstva_1
 62
7
100
AcDbLine
 10
127.053684
 20
136.080335
 30
0.0
 11
126.630351
 21
136.080335
 31
0.0
  0
LINE
  5
3e8
100
AcDbEntity
  8
Vrstva_1
 62
7
100
AcDbLine
 10
126.630351
 20
136.080335
 30
0.0
 11
126.630351
 21
136.927001
 31
0.0
  0
LINE
  5
3e9
100
AcDbEntity
  8
Vrstva_1
 62
7
100
AcDbLine
 10
126.630351
 20
136.927001
 30
0.0
 11
126.630351
 21
137.773668
 31
0.0
  0
LINE
  5
3ea
100
AcDbEntity
  8
Vrstva_1
 62
7
100
AcDbLine
 10
126.630351
 20
137.773668
 30
0.0
 11
127.477018
 21
137.773668
 31
0.0
  0
LINE
  5
3eb
100
AcDbEntity
  8
Vrstva_1
 62
7
100
AcDbLine
 10
127.477018
 20
137.773668
 30
0.0
 11
128.323684
 21
137.773668
 31
0.0
  0
LINE
  5
3ec
100
AcDbEntity
  8
Vrstva_1
 62
7
100
AcDbLine
 10
128.323684
 20
137.773668
 30
0.0
 11
128.323684
 21
137.350335
 31
0.0
  0
LINE
  5
3ed
100
AcDbEntity
  8
Vrstva_1
 62
7
100
AcDbLine
 10
128.323684
 20
137.350335
 30
0.0
 11
128.323684
 21
136.927001
 31
0.0
  0
LINE
  5
3ee
100
AcDbEntity
  8
Vrstva_1
 62
7
100
AcDbLine
 10
128.323684
 20
136.927001
 30
0.0
 11
127.900351
 21
136.927001
 31
0.0
  0
LINE
  5
3ef
100
AcDbEntity
  8
Vrstva_1
 62
7
100
AcDbLine
 10
127.900351
 20
136.927001
 30
0.0
 11
127.477018
 21
136.927001
 31
0.0
  0
LINE
  5
3f0
100
AcDbEntity
  8
Vrstva_1
 62
7
100
AcDbLine
 10
127.477018
 20
136.927001
 30
0.0
 11
127.477018
 21
136.503668
 31
0.0
  0
LINE
  5
3f1
100
AcDbEntity
  8
Vrstva_1
 62
7
100
AcDbLine
 10
127.477018
 20
136.503668
 30
0.0
 11
127.477018
 21
136.080335
 31
0.0
  0
LINE
  5
3f2
100
AcDbEntity
  8
Vrstva_1
 62
7
100
AcDbLine
 10
127.477018
 20
136.080335
 30
0.0
 11
128.323684
 21
136.080335
 31
0.0
  0
LINE
  5
3f3
100
AcDbEntity
  8
Vrstva_1
 62
7
100
AcDbLine
 10
128.323684
 20
136.080335
 30
0.0
 11
129.170351
 21
136.080335
 31
0.0
  0
LINE
  5
3f4
100
AcDbEntity
  8
Vrstva_1
 62
7
100
AcDbLine
 10
129.170351
 20
136.080335
 30
0.0
 11
129.170351
 21
136.503668
 31
0.0
  0
LINE
  5
3f5
100
AcDbEntity
  8
Vrstva_1
 62
7
100
AcDbLine
 10
129.170351
 20
136.503668
 30
0.0
 11
129.170351
 21
136.927001
 31
0.0
  0
LINE
  5
3f6
100
AcDbEntity
  8
Vrstva_1
 62
7
100
AcDbLine
 10
129.170351
 20
136.927001
 30
0.0
 11
129.593684
 21
136.927001
 31
0.0
  0
LINE
  5
3f7
100
AcDbEntity
  8
Vrstva_1
 62
7
100
AcDbLine
 10
129.593684
 20
136.927001
 30
0.0
 11
130.017018
 21
136.927001
 31
0.0
  0
LINE
  5
3f8
100
AcDbEntity
  8
Vrstva_1
 62
7
100
AcDbLine
 10
130.017018
 20
136.927001
 30
0.0
 11
130.017018
 21
137.350335
 31
0.0
  0
LINE
  5
3f9
100
AcDbEntity
  8
Vrstva_1
 62
7
100
AcDbLine
 10
130.017018
 20
137.350335
 30
0.0
 11
130.017018
 21
137.773668
 31
0.0
  0
LINE
  5
3fa
100
AcDbEntity
  8
Vrstva_1
 62
7
100
AcDbLine
 10
130.017018
 20
137.773668
 30
0.0
 11
130.440351
 21
137.773668
 31
0.0
  0
LINE
  5
3fb
100
AcDbEntity
  8
Vrstva_1
 62
7
100
AcDbLine
 10
130.440351
 20
137.773668
 30
0.0
 11
130.863684
 21
137.773668
 31
0.0
  0
LINE
  5
3fc
100
AcDbEntity
  8
Vrstva_1
 62
7
100
AcDbLine
 10
130.863684
 20
137.773668
 30
0.0
 11
130.863684
 21
137.350335
 31
0.0
  0
LINE
  5
3fd
100
AcDbEntity
  8
Vrstva_1
 62
7
100
AcDbLine
 10
130.863684
 20
137.350335
 30
0.0
 11
130.863684
 21
136.927001
 31
0.0
  0
LINE
  5
3fe
100
AcDbEntity
  8
Vrstva_1
 62
7
100
AcDbLine
 10
130.863684
 20
136.927001
 30
0.0
 11
131.287018
 21
136.927001
 31
0.0
  0
LINE
  5
3ff
100
AcDbEntity
  8
Vrstva_1
 62
7
100
AcDbLine
 10
131.287018
 20
136.927001
 30
0.0
 11
131.710351
 21
136.927001
 31
0.0
  0
LINE
  5
400
100
AcDbEntity
  8
Vrstva_1
 62
7
100
AcDbLine
 10
131.710351
 20
136.927001
 30
0.0
 11
131.710351
 21
137.350335
 31
0.0
  0
LINE
  5
401
100
AcDbEntity
  8
Vrstva_1
 62
7
100
AcDbLine
 10
131.710351
 20
137.350335
 30
0.0
 11
131.710351
 21
137.773668
 31
0.0
  0
LINE
  5
402
100
AcDbEntity
  8
Vrstva_1
 62
7
100
AcDbLine
 10
131.710351
 20
137.773668
 30
0.0
 11
132.557018
 21
137.773668
 31
0.0
  0
LINE
  5
403
100
AcDbEntity
  8
Vrstva_1
 62
7
100
AcDbLine
 10
132.557018
 20
137.773668
 30
0.0
 11
133.403684
 21
137.773668
 31
0.0
  0
LINE
  5
404
100
AcDbEntity
  8
Vrstva_1
 62
7
100
AcDbLine
 10
133.403684
 20
137.773668
 30
0.0
 11
133.403684
 21
137.350335
 31
0.0
  0
LINE
  5
405
100
AcDbEntity
  8
Vrstva_1
 62
7
100
AcDbLine
 10
133.403684
 20
137.350335
 30
0.0
 11
133.403684
 21
136.927001
 31
0.0
  0
LINE
  5
406
100
AcDbEntity
  8
Vrstva_1
 62
7
100
AcDbLine
 10
133.403684
 20
136.927001
 30
0.0
 11
132.980351
 21
136.927001
 31
0.0
  0
LINE
  5
407
100
AcDbEntity
  8
Vrstva_1
 62
7
100
AcDbLine
 10
132.980351
 20
136.927001
 30
0.0
 11
132.557018
 21
136.927001
 31
0.0
  0
LINE
  5
408
100
AcDbEntity
  8
Vrstva_1
 62
7
100
AcDbLine
 10
132.557018
 20
136.927001
 30
0.0
 11
132.557018
 21
136.503668
 31
0.0
  0
LINE
  5
409
100
AcDbEntity
  8
Vrstva_1
 62
7
100
AcDbLine
 10
132.557018
 20
136.503668
 30
0.0
 11
132.557018
 21
136.080335
 31
0.0
  0
LINE
  5
40a
100
AcDbEntity
  8
Vrstva_1
 62
7
100
AcDbLine
 10
132.557018
 20
136.080335
 30
0.0
 11
131.710351
 21
136.080335
 31
0.0
  0
LINE
  5
40b
100
AcDbEntity
  8
Vrstva_1
 62
7
100
AcDbLine
 10
131.710351
 20
136.080335
 30
0.0
 11
130.863684
 21
136.080335
 31
0.0
  0
LINE
  5
40c
100
AcDbEntity
  8
Vrstva_1
 62
7
100
AcDbLine
 10
130.863684
 20
136.080335
 30
0.0
 11
130.863684
 21
135.657001
 31
0.0
  0
LINE
  5
40d
100
AcDbEntity
  8
Vrstva_1
 62
7
100
AcDbLine
 10
130.863684
 20
135.657001
 30
0.0
 11
130.863684
 21
135.233668
 31
0.0
  0
LINE
  5
40e
100
AcDbEntity
  8
Vrstva_1
 62
7
100
AcDbLine
 10
130.863684
 20
135.233668
 30
0.0
 11
130.440351
 21
135.233668
 31
0.0
  0
LINE
  5
40f
100
AcDbEntity
  8
Vrstva_1
 62
7
100
AcDbLine
 10
130.440351
 20
135.233668
 30
0.0
 11
130.017018
 21
135.233668
 31
0.0
  0
LINE
  5
410
100
AcDbEntity
  8
Vrstva_1
 62
7
100
AcDbLine
 10
130.017018
 20
135.233668
 30
0.0
 11
130.017018
 21
135.657001
 31
0.0
  0
LINE
  5
411
100
AcDbEntity
  8
Vrstva_1
 62
7
100
AcDbLine
 10
130.017018
 20
135.657001
 30
0.0
 11
130.017018
 21
136.080335
 31
0.0
  0
LINE
  5
412
100
AcDbEntity
  8
Vrstva_1
 62
7
100
AcDbLine
 10
130.017018
 20
136.080335
 30
0.0
 11
129.593684
 21
136.080335
 31
0.0
  0
LINE
  5
413
100
AcDbEntity
  8
Vrstva_1
 62
7
100
AcDbLine
 10
129.593684
 20
136.080335
 30
0.0
 11
129.170351
 21
136.080335
 31
0.0
  0
LINE
  5
414
100
AcDbEntity
  8
Vrstva_1
 62
7
100
AcDbLine
 10
129.170351
 20
136.080335
 30
0.0
 11
129.170351
 21
135.657001
 31
0.0
  0
LINE
  5
415
100
AcDbEntity
  8
Vrstva_1
 62
7
100
AcDbLine
 10
129.170351
 20
135.657001
 30
0.0
 11
129.170351
 21
135.233668
 31
0.0
  0
LINE
  5
416
100
AcDbEntity
  8
Vrstva_1
 62
7
100
AcDbLine
 10
129.170351
 20
135.233668
 30
0.0
 11
128.323684
 21
135.233668
 31
0.0
  0
LINE
  5
417
100
AcDbEntity
  8
Vrstva_1
 62
7
100
AcDbLine
 10
128.323684
 20
135.233668
 30
0.0
 11
127.477018
 21
135.233668
 31
0.0
  0
LINE
  5
418
100
AcDbEntity
  8
Vrstva_1
 62
7
100
AcDbLine
 10
127.477018
 20
135.233668
 30
0.0
 11
127.477018
 21
134.810335
 31
0.0
  0
LINE
  5
419
100
AcDbEntity
  8
Vrstva_1
 62
7
100
AcDbLine
 10
127.477018
 20
134.810335
 30
0.0
 11
127.477018
 21
134.387001
 31
0.0
  0
LINE
  5
41a
100
AcDbEntity
  8
Vrstva_1
 62
7
100
AcDbLine
 10
127.477018
 20
134.387001
 30
0.0
 11
129.170351
 21
134.387001
 31
0.0
  0
LINE
  5
41b
100
AcDbEntity
  8
Vrstva_1
 62
7
100
AcDbLine
 10
129.170351
 20
134.387001
 30
0.0
 11
130.863684
 21
134.387001
 31
0.0
  0
LINE
  5
41c
100
AcDbEntity
  8
Vrstva_1
 62
7
100
AcDbLine
 10
130.863684
 20
134.387001
 30
0.0
 11
130.863684
 21
133.963668
 31
0.0
  0
LINE
  5
41d
100
AcDbEntity
  8
Vrstva_1
 62
7
100
AcDbLine
 10
130.863684
 20
133.963668
 30
0.0
 11
130.863684
 21
133.540335
 31
0.0
  0
LINE
  5
41e
100
AcDbEntity
  8
Vrstva_1
 62
7
100
AcDbLine
 10
130.863684
 20
133.540335
 30
0.0
 11
131.287018
 21
133.540335
 31
0.0
  0
LINE
  5
41f
100
AcDbEntity
  8
Vrstva_1
 62
7
100
AcDbLine
 10
131.287018
 20
133.540335
 30
0.0
 11
131.710351
 21
133.540335
 31
0.0
  0
LINE
  5
420
100
AcDbEntity
  8
Vrstva_1
 62
7
100
AcDbLine
 10
131.710351
 20
133.540335
 30
0.0
 11
131.710351
 21
133.963668
 31
0.0
  0
LINE
  5
421
100
AcDbEntity
  8
Vrstva_1
 62
7
100
AcDbLine
 10
131.710351
 20
133.963668
 30
0.0
 11
131.710351
 21
134.387001
 31
0.0
  0
LINE
  5
422
100
AcDbEntity
  8
Vrstva_1
 62
7
100
AcDbLine
 10
131.710351
 20
134.387001
 30
0.0
 11
132.133684
 21
134.387001
 31
0.0
  0
LINE
  5
423
100
AcDbEntity
  8
Vrstva_1
 62
7
100
AcDbLine
 10
132.133684
 20
134.387001
 30
0.0
 11
132.557018
 21
134.387001
 31
0.0
  0
LINE
  5
424
100
AcDbEntity
  8
Vrstva_1
 62
7
100
AcDbLine
 10
132.557018
 20
134.387001
 30
0.0
 11
132.557018
 21
134.810335
 31
0.0
  0
LINE
  5
425
100
AcDbEntity
  8
Vrstva_1
 62
7
100
AcDbLine
 10
132.557018
 20
134.810335
 30
0.0
 11
132.557018
 21
135.233668
 31
0.0
  0
LINE
  5
426
100
AcDbEntity
  8
Vrstva_1
 62
7
100
AcDbLine
 10
132.557018
 20
135.233668
 30
0.0
 11
132.980351
 21
135.233668
 31
0.0
  0
LINE
  5
427
100
AcDbEntity
  8
Vrstva_1
 62
7
100
AcDbLine
 10
132.980351
 20
135.233668
 30
0.0
 11
133.403684
 21
135.233668
 31
0.0
  0
LINE
  5
428
100
AcDbEntity
  8
Vrstva_1
 62
7
100
AcDbLine
 10
133.403684
 20
135.233668
 30
0.0
 11
133.403684
 21
135.657001
 31
0.0
  0
LINE
  5
429
100
AcDbEntity
  8
Vrstva_1
 62
7
100
AcDbLine
 10
133.403684
 20
135.657001
 30
0.0
 11
133.403684
 21
136.080335
 31
0.0
  0
LINE
  5
42a
100
AcDbEntity
  8
Vrstva_1
 62
7
100
AcDbLine
 10
133.403684
 20
136.080335
 30
0.0
 11
133.827018
 21
136.080335
 31
0.0
  0
LINE
  5
42b
100
AcDbEntity
  8
Vrstva_1
 62
7
100
AcDbLine
 10
133.827018
 20
136.080335
 30
0.0
 11
134.250351
 21
136.080335
 31
0.0
  0
LINE
  5
42c
100
AcDbEntity
  8
Vrstva_1
 62
7
100
AcDbLine
 10
134.250351
 20
136.080335
 30
0.0
 11
134.250351
 21
135.657001
 31
0.0
  0
LINE
  5
42d
100
AcDbEntity
  8
Vrstva_1
 62
7
100
AcDbLine
 10
134.250351
 20
135.657001
 30
0.0
 11
134.250351
 21
135.233668
 31
0.0
  0
LINE
  5
42e
100
AcDbEntity
  8
Vrstva_1
 62
7
100
AcDbLine
 10
134.250351
 20
135.233668
 30
0.0
 11
134.673684
 21
135.233668
 31
0.0
  0
LINE
  5
42f
100
AcDbEntity
  8
Vrstva_1
 62
7
100
AcDbLine
 10
134.673684
 20
135.233668
 30
0.0
 11
135.097018
 21
135.233668
 31
0.0
  0
LINE
  5
430
100
AcDbEntity
  8
Vrstva_1
 62
7
100
AcDbLine
 10
135.097018
 20
135.233668
 30
0.0
 11
135.097018
 21
135.657001
 31
0.0
  0
LINE
  5
431
100
AcDbEntity
  8
Vrstva_1
 62
7
100
AcDbLine
 10
135.097018
 20
135.657001
 30
0.0
 11
135.097018
 21
136.080335
 31
0.0
  0
LINE
  5
432
100
AcDbEntity
  8
Vrstva_1
 62
7
100
AcDbLine
 10
135.097018
 20
136.080335
 30
0.0
 11
134.673684
 21
136.080335
 31
0.0
  0
LINE
  5
433
100
AcDbEntity
  8
Vrstva_1
 62
7
100
AcDbLine
 10
134.673684
 20
136.080335
 30
0.0
 11
134.250351
 21
136.080335
 31
0.0
  0
LINE
  5
434
100
AcDbEntity
  8
Vrstva_1
 62
7
100
AcDbLine
 10
134.250351
 20
136.080335
 30
0.0
 11
134.250351
 21
136.927001
 31
0.0
  0
LINE
  5
435
100
AcDbEntity
  8
Vrstva_1
 62
7
100
AcDbLine
 10
134.250351
 20
136.927001
 30
0.0
 11
134.250351
 21
137.773668
 31
0.0
  0
LINE
  5
436
100
AcDbEntity
  8
Vrstva_1
 62
7
100
AcDbLine
 10
134.250351
 20
137.773668
 30
0.0
 11
135.943684
 21
137.773668
 31
0.0
  0
LINE
  5
437
100
AcDbEntity
  8
Vrstva_1
 62
7
100
AcDbLine
 10
135.943684
 20
137.773668
 30
0.0
 11
137.637018
 21
137.773668
 31
0.0
  0
LINE
  5
438
100
AcDbEntity
  8
Vrstva_1
 62
7
100
AcDbLine
 10
137.637018
 20
137.773668
 30
0.0
 11
137.637018
 21
136.927001
 31
0.0
  0
LINE
  5
439
100
AcDbEntity
  8
Vrstva_1
 62
7
100
AcDbLine
 10
137.637018
 20
136.927001
 30
0.0
 11
137.637018
 21
136.080335
 31
0.0
  0
LINE
  5
43a
100
AcDbEntity
  8
Vrstva_1
 62
7
100
AcDbLine
 10
137.637018
 20
136.080335
 30
0.0
 11
137.213684
 21
136.080335
 31
0.0
  0
LINE
  5
43b
100
AcDbEntity
  8
Vrstva_1
 62
7
100
AcDbLine
 10
137.213684
 20
136.080335
 30
0.0
 11
136.790351
 21
136.080335
 31
0.0
  0
LINE
  5
43c
100
AcDbEntity
  8
Vrstva_1
 62
7
100
AcDbLine
 10
136.790351
 20
136.080335
 30
0.0
 11
136.790351
 21
136.503668
 31
0.0
  0
LINE
  5
43d
100
AcDbEntity
  8
Vrstva_1
 62
7
100
AcDbLine
 10
136.790351
 20
136.503668
 30
0.0
 11
136.790351
 21
136.927001
 31
0.0
  0
LINE
  5
43e
100
AcDbEntity
  8
Vrstva_1
 62
7
100
AcDbLine
 10
136.790351
 20
136.927001
 30
0.0
 11
136.367018
 21
136.927001
 31
0.0
  0
LINE
  5
43f
100
AcDbEntity
  8
Vrstva_1
 62
7
100
AcDbLine
 10
136.367018
 20
136.927001
 30
0.0
 11
135.943684
 21
136.927001
 31
0.0
  0
LINE
  5
440
100
AcDbEntity
  8
Vrstva_1
 62
7
100
AcDbLine
 10
135.943684
 20
136.927001
 30
0.0
 11
135.943684
 21
136.080335
 31
0.0
  0
LINE
  5
441
100
AcDbEntity
  8
Vrstva_1
 62
7
100
AcDbLine
 10
135.943684
 20
136.080335
 30
0.0
 11
135.943684
 21
135.233668
 31
0.0
  0
LINE
  5
442
100
AcDbEntity
  8
Vrstva_1
 62
7
100
AcDbLine
 10
135.943684
 20
135.233668
 30
0.0
 11
135.520351
 21
135.233668
 31
0.0
  0
LINE
  5
443
100
AcDbEntity
  8
Vrstva_1
 62
7
100
AcDbLine
 10
135.520351
 20
135.233668
 30
0.0
 11
135.097018
 21
135.233668
 31
0.0
  0
LINE
  5
444
100
AcDbEntity
  8
Vrstva_1
 62
7
100
AcDbLine
 10
135.097018
 20
135.233668
 30
0.0
 11
135.097018
 21
134.387001
 31
0.0
  0
LINE
  5
445
100
AcDbEntity
  8
Vrstva_1
 62
7
100
AcDbLine
 10
135.097018
 20
134.387001
 30
0.0
 11
135.097018
 21
133.540335
 31
0.0
  0
LINE
  5
446
100
AcDbEntity
  8
Vrstva_1
 62
7
100
AcDbLine
 10
135.097018
 20
133.540335
 30
0.0
 11
134.673684
 21
133.540335
 31
0.0
  0
LINE
  5
447
100
AcDbEntity
  8
Vrstva_1
 62
7
100
AcDbLine
 10
134.673684
 20
133.540335
 30
0.0
 11
134.250351
 21
133.540335
 31
0.0
  0
LINE
  5
448
100
AcDbEntity
  8
Vrstva_1
 62
7
100
AcDbLine
 10
134.250351
 20
133.540335
 30
0.0
 11
134.250351
 21
132.693668
 31
0.0
  0
LINE
  5
449
100
AcDbEntity
  8
Vrstva_1
 62
7
100
AcDbLine
 10
134.250351
 20
132.693668
 30
0.0
 11
134.250351
 21
131.847001
 31
0.0
  0
LINE
  5
44a
100
AcDbEntity
  8
Vrstva_1
 62
7
100
AcDbLine
 10
134.250351
 20
131.847001
 30
0.0
 11
134.673684
 21
131.847001
 31
0.0
  0
LINE
  5
44b
100
AcDbEntity
  8
Vrstva_1
 62
7
100
AcDbLine
 10
134.673684
 20
131.847001
 30
0.0
 11
135.097018
 21
131.847001
 31
0.0
  0
LINE
  5
44c
100
AcDbEntity
  8
Vrstva_1
 62
7
100
AcDbLine
 10
135.097018
 20
131.847001
 30
0.0
 11
135.097018
 21
132.270335
 31
0.0
  0
LINE
  5
44d
100
AcDbEntity
  8
Vrstva_1
 62
7
100
AcDbLine
 10
135.097018
 20
132.270335
 30
0.0
 11
135.097018
 21
132.693668
 31
0.0
  0
LINE
  5
44e
100
AcDbEntity
  8
Vrstva_1
 62
7
100
AcDbLine
 10
135.097018
 20
132.693668
 30
0.0
 11
135.520351
 21
132.693668
 31
0.0
  0
LINE
  5
44f
100
AcDbEntity
  8
Vrstva_1
 62
7
100
AcDbLine
 10
135.520351
 20
132.693668
 30
0.0
 11
135.943684
 21
132.693668
 31
0.0
  0
LINE
  5
450
100
AcDbEntity
  8
Vrstva_1
 62
7
100
AcDbLine
 10
135.943684
 20
132.693668
 30
0.0
 11
135.943684
 21
133.540335
 31
0.0
  0
LINE
  5
451
100
AcDbEntity
  8
Vrstva_1
 62
7
100
AcDbLine
 10
135.943684
 20
133.540335
 30
0.0
 11
135.943684
 21
134.387001
 31
0.0
  0
LINE
  5
452
100
AcDbEntity
  8
Vrstva_1
 62
7
100
AcDbLine
 10
135.943684
 20
134.387001
 30
0.0
 11
136.367018
 21
134.387001
 31
0.0
  0
LINE
  5
453
100
AcDbEntity
  8
Vrstva_1
 62
7
100
AcDbLine
 10
136.367018
 20
134.387001
 30
0.0
 11
136.790351
 21
134.387001
 31
0.0
  0
LINE
  5
454
100
AcDbEntity
  8
Vrstva_1
 62
7
100
AcDbLine
 10
136.790351
 20
134.387001
 30
0.0
 11
136.790351
 21
134.810335
 31
0.0
  0
LINE
  5
455
100
AcDbEntity
  8
Vrstva_1
 62
7
100
AcDbLine
 10
136.790351
 20
134.810335
 30
0.0
 11
136.790351
 21
135.233668
 31
0.0
  0
LINE
  5
456
100
AcDbEntity
  8
Vrstva_1
 62
7
100
AcDbLine
 10
136.790351
 20
135.233668
 30
0.0
 11
137.213684
 21
135.233668
 31
0.0
  0
LINE
  5
457
100
AcDbEntity
  8
Vrstva_1
 62
7
100
AcDbLine
 10
137.213684
 20
135.233668
 30
0.0
 11
137.637018
 21
135.233668
 31
0.0
  0
LINE
  5
458
100
AcDbEntity
  8
Vrstva_1
 62
7
100
AcDbLine
 10
137.637018
 20
135.233668
 30
0.0
 11
137.637018
 21
134.810335
 31
0.0
  0
LINE
  5
459
100
AcDbEntity
  8
Vrstva_1
 62
7
100
AcDbLine
 10
137.637018
 20
134.810335
 30
0.0
 11
137.637018
 21
134.387001
 31
0.0
  0
LINE
  5
45a
100
AcDbEntity
  8
Vrstva_1
 62
7
100
AcDbLine
 10
137.637018
 20
134.387001
 30
0.0
 11
137.213684
 21
134.387001
 31
0.0
  0
LINE
  5
45b
100
AcDbEntity
  8
Vrstva_1
 62
7
100
AcDbLine
 10
137.213684
 20
134.387001
 30
0.0
 11
136.790351
 21
134.387001
 31
0.0
  0
LINE
  5
45c
100
AcDbEntity
  8
Vrstva_1
 62
7
100
AcDbLine
 10
136.790351
 20
134.387001
 30
0.0
 11
136.790351
 21
133.963668
 31
0.0
  0
LINE
  5
45d
100
AcDbEntity
  8
Vrstva_1
 62
7
100
AcDbLine
 10
136.790351
 20
133.963668
 30
0.0
 11
136.790351
 21
133.540335
 31
0.0
  0
LINE
  5
45e
100
AcDbEntity
  8
Vrstva_1
 62
7
100
AcDbLine
 10
136.790351
 20
133.540335
 30
0.0
 11
137.213684
 21
133.540335
 31
0.0
  0
LINE
  5
45f
100
AcDbEntity
  8
Vrstva_1
 62
7
100
AcDbLine
 10
137.213684
 20
133.540335
 30
0.0
 11
137.637018
 21
133.540335
 31
0.0
  0
LINE
  5
460
100
AcDbEntity
  8
Vrstva_1
 62
7
100
AcDbLine
 10
137.637018
 20
133.540335
 30
0.0
 11
137.637018
 21
132.693668
 31
0.0
  0
LINE
  5
461
100
AcDbEntity
  8
Vrstva_1
 62
7
100
AcDbLine
 10
137.637018
 20
132.693668
 30
0.0
 11
137.637018
 21
131.847001
 31
0.0
  0
LINE
  5
462
100
AcDbEntity
  8
Vrstva_1
 62
7
100
AcDbLine
 10
137.637018
 20
131.847001
 30
0.0
 11
137.213684
 21
131.847001
 31
0.0
  0
LINE
  5
463
100
AcDbEntity
  8
Vrstva_1
 62
7
100
AcDbLine
 10
137.213684
 20
131.847001
 30
0.0
 11
136.790351
 21
131.847001
 31
0.0
  0
LINE
  5
464
100
AcDbEntity
  8
Vrstva_1
 62
7
100
AcDbLine
 10
136.790351
 20
131.847001
 30
0.0
 11
136.790351
 21
132.270335
 31
0.0
  0
LINE
  5
465
100
AcDbEntity
  8
Vrstva_1
 62
7
100
AcDbLine
 10
136.790351
 20
132.270335
 30
0.0
 11
136.790351
 21
132.693668
 31
0.0
  0
LINE
  5
466
100
AcDbEntity
  8
Vrstva_1
 62
7
100
AcDbLine
 10
136.790351
 20
132.693668
 30
0.0
 11
136.367018
 21
132.693668
 31
0.0
  0
LINE
  5
467
100
AcDbEntity
  8
Vrstva_1
 62
7
100
AcDbLine
 10
136.367018
 20
132.693668
 30
0.0
 11
135.943684
 21
132.693668
 31
0.0
  0
LINE
  5
468
100
AcDbEntity
  8
Vrstva_1
 62
7
100
AcDbLine
 10
135.943684
 20
132.693668
 30
0.0
 11
135.943684
 21
131.847001
 31
0.0
  0
LINE
  5
469
100
AcDbEntity
  8
Vrstva_1
 62
7
100
AcDbLine
 10
135.943684
 20
131.847001
 30
0.0
 11
135.943684
 21
131.000335
 31
0.0
  0
LINE
  5
46a
100
AcDbEntity
  8
Vrstva_1
 62
7
100
AcDbLine
 10
135.943684
 20
131.000335
 30
0.0
 11
136.367018
 21
131.000335
 31
0.0
  0
LINE
  5
46b
100
AcDbEntity
  8
Vrstva_1
 62
7
100
AcDbLine
 10
136.367018
 20
131.000335
 30
0.0
 11
136.790351
 21
131.000335
 31
0.0
  0
LINE
  5
46c
100
AcDbEntity
  8
Vrstva_1
 62
7
100
AcDbLine
 10
136.790351
 20
131.000335
 30
0.0
 11
136.790351
 21
130.577001
 31
0.0
  0
LINE
  5
46d
100
AcDbEntity
  8
Vrstva_1
 62
7
100
AcDbLine
 10
136.790351
 20
130.577001
 30
0.0
 11
136.790351
 21
130.153668
 31
0.0
  0
LINE
  5
46e
100
AcDbEntity
  8
Vrstva_1
 62
7
100
AcDbLine
 10
136.790351
 20
130.153668
 30
0.0
 11
137.637018
 21
130.153668
 31
0.0
  0
LINE
  5
46f
100
AcDbEntity
  8
Vrstva_1
 62
7
100
AcDbLine
 10
137.637018
 20
130.153668
 30
0.0
 11
138.483684
 21
130.153668
 31
0.0
  0
LINE
  5
470
100
AcDbEntity
  8
Vrstva_1
 62
7
100
AcDbLine
 10
138.483684
 20
130.153668
 30
0.0
 11
138.483684
 21
130.577001
 31
0.0
  0
LINE
  5
471
100
AcDbEntity
  8
Vrstva_1
 62
7
100
AcDbLine
 10
138.483684
 20
130.577001
 30
0.0
 11
138.483684
 21
131.000335
 31
0.0
  0
LINE
  5
472
100
AcDbEntity
  8
Vrstva_1
 62
7
100
AcDbLine
 10
138.483684
 20
131.000335
 30
0.0
 11
138.907018
 21
131.000335
 31
0.0
  0
LINE
  5
473
100
AcDbEntity
  8
Vrstva_1
 62
7
100
AcDbLine
 10
138.907018
 20
131.000335
 30
0.0
 11
139.330351
 21
131.000335
 31
0.0
  0
LINE
  5
474
100
AcDbEntity
  8
Vrstva_1
 62
7
100
AcDbLine
 10
139.330351
 20
131.000335
 30
0.0
 11
139.330351
 21
130.577001
 31
0.0
  0
LINE
  5
475
100
AcDbEntity
  8
Vrstva_1
 62
7
100
AcDbLine
 10
139.330351
 20
130.577001
 30
0.0
 11
139.330351
 21
130.153668
 31
0.0
  0
LINE
  5
476
100
AcDbEntity
  8
Vrstva_1
 62
7
100
AcDbLine
 10
139.330351
 20
130.153668
 30
0.0
 11
140.177018
 21
130.153668
 31
0.0
  0
LINE
  5
477
100
AcDbEntity
  8
Vrstva_1
 62
7
100
AcDbLine
 10
140.177018
 20
130.153668
 30
0.0
 11
141.023684
 21
130.153668
 31
0.0
  0
LINE
  5
478
100
AcDbEntity
  8
Vrstva_1
 62
7
100
AcDbLine
 10
141.023684
 20
130.153668
 30
0.0
 11
141.023684
 21
130.577001
 31
0.0
  0
LINE
  5
479
100
AcDbEntity
  8
Vrstva_1
 62
7
100
AcDbLine
 10
141.023684
 20
130.577001
 30
0.0
 11
141.023684
 21
131.000335
 31
0.0
  0
LINE
  5
47a
100
AcDbEntity
  8
Vrstva_1
 62
7
100
AcDbLine
 10
141.023684
 20
131.000335
 30
0.0
 11
141.447018
 21
131.000335
 31
0.0
  0
LINE
  5
47b
100
AcDbEntity
  8
Vrstva_1
 62
7
100
AcDbLine
 10
141.447018
 20
131.000335
 30
0.0
 11
141.870351
 21
131.000335
 31
0.0
  0
LINE
  5
47c
100
AcDbEntity
  8
Vrstva_1
 62
7
100
AcDbLine
 10
141.870351
 20
131.000335
 30
0.0
 11
141.870351
 21
130.577001
 31
0.0
  0
LINE
  5
47d
100
AcDbEntity
  8
Vrstva_1
 62
7
100
AcDbLine
 10
141.870351
 20
130.577001
 30
0.0
 11
141.870351
 21
130.153668
 31
0.0
  0
LINE
  5
47e
100
AcDbEntity
  8
Vrstva_1
 62
7
100
AcDbLine
 10
141.870351
 20
130.153668
 30
0.0
 11
141.447018
 21
130.153668
 31
0.0
  0
LINE
  5
47f
100
AcDbEntity
  8
Vrstva_1
 62
7
100
AcDbLine
 10
141.447018
 20
130.153668
 30
0.0
 11
141.023684
 21
130.153668
 31
0.0
  0
LINE
  5
480
100
AcDbEntity
  8
Vrstva_1
 62
7
100
AcDbLine
 10
141.023684
 20
130.153668
 30
0.0
 11
141.023684
 21
129.730335
 31
0.0
  0
LINE
  5
481
100
AcDbEntity
  8
Vrstva_1
 62
7
100
AcDbLine
 10
141.023684
 20
129.730335
 30
0.0
 11
141.023684
 21
129.307001
 31
0.0
  0
LINE
  5
482
100
AcDbEntity
  8
Vrstva_1
 62
7
100
AcDbLine
 10
141.023684
 20
129.307001
 30
0.0
 11
140.177018
 21
129.307001
 31
0.0
  0
LINE
  5
483
100
AcDbEntity
  8
Vrstva_1
 62
7
100
AcDbLine
 10
140.177018
 20
129.307001
 30
0.0
 11
139.330351
 21
129.307001
 31
0.0
  0
LINE
  5
484
100
AcDbEntity
  8
Vrstva_1
 62
7
100
AcDbLine
 10
139.330351
 20
129.307001
 30
0.0
 11
139.330351
 21
128.883668
 31
0.0
  0
LINE
  5
485
100
AcDbEntity
  8
Vrstva_1
 62
7
100
AcDbLine
 10
139.330351
 20
128.883668
 30
0.0
 11
139.330351
 21
128.460335
 31
0.0
  0
LINE
  5
486
100
AcDbEntity
  8
Vrstva_1
 62
7
100
AcDbLine
 10
139.330351
 20
128.460335
 30
0.0
 11
140.600351
 21
128.460335
 31
0.0
  0
LINE
  5
487
100
AcDbEntity
  8
Vrstva_1
 62
7
100
AcDbLine
 10
140.600351
 20
128.460335
 30
0.0
 11
141.870351
 21
128.460335
 31
0.0
  0
LINE
  5
488
100
AcDbEntity
  8
Vrstva_1
 62
7
100
AcDbLine
 10
141.870351
 20
128.460335
 30
0.0
 11
141.870351
 21
128.883668
 31
0.0
  0
LINE
  5
489
100
AcDbEntity
  8
Vrstva_1
 62
7
100
AcDbLine
 10
141.870351
 20
128.883668
 30
0.0
 11
141.870351
 21
129.307001
 31
0.0
  0
LINE
  5
48a
100
AcDbEntity
  8
Vrstva_1
 62
7
100
AcDbLine
 10
141.870351
 20
129.307001
 30
0.0
 11
142.717018
 21
129.307001
 31
0.0
  0
LINE
  5
48b
100
AcDbEntity
  8
Vrstva_1
 62
7
100
AcDbLine
 10
142.717018
 20
129.307001
 30
0.0
 11
143.563684
 21
129.307001
 31
0.0
  0
LINE
  5
48c
100
AcDbEntity
  8
Vrstva_1
 62
7
100
AcDbLine
 10
143.563684
 20
129.307001
 30
0.0
 11
143.563684
 21
129.730335
 31
0.0
  0
LINE
  5
48d
100
AcDbEntity
  8
Vrstva_1
 62
7
100
AcDbLine
 10
143.563684
 20
129.730335
 30
0.0
 11
143.563684
 21
130.153668
 31
0.0
  0
LINE
  5
48e
100
AcDbEntity
  8
Vrstva_1
 62
7
100
AcDbLine
 10
143.563684
 20
130.153668
 30
0.0
 11
143.140351
 21
130.153668
 31
0.0
  0
LINE
  5
48f
100
AcDbEntity
  8
Vrstva_1
 62
7
100
AcDbLine
 10
143.140351
 20
130.153668
 30
0.0
 11
142.717018
 21
130.153668
 31
0.0
  0
LINE
  5
490
100
AcDbEntity
  8
Vrstva_1
 62
7
100
AcDbLine
 10
142.717018
 20
130.153668
 30
0.0
 11
142.717018
 21
130.577001
 31
0.0
  0
LINE
  5
491
100
AcDbEntity
  8
Vrstva_1
 62
7
100
AcDbLine
 10
142.717018
 20
130.577001
 30
0.0
 11
142.717018
 21
131.000335
 31
0.0
  0
LINE
  5
492
100
AcDbEntity
  8
Vrstva_1
 62
7
100
AcDbLine
 10
142.717018
 20
131.000335
 30
0.0
 11
143.563684
 21
131.000335
 31
0.0
  0
LINE
  5
493
100
AcDbEntity
  8
Vrstva_1
 62
7
100
AcDbLine
 10
143.563684
 20
131.000335
 30
0.0
 11
144.410351
 21
131.000335
 31
0.0
  0
LINE
  5
494
100
AcDbEntity
  8
Vrstva_1
 62
7
100
AcDbLine
 10
144.410351
 20
131.000335
 30
0.0
 11
144.410351
 21
130.153668
 31
0.0
  0
LINE
  5
495
100
AcDbEntity
  8
Vrstva_1
 62
7
100
AcDbLine
 10
144.410351
 20
130.153668
 30
0.0
 11
144.410351
 21
129.307001
 31
0.0
  0
LINE
  5
496
100
AcDbEntity
  8
Vrstva_1
 62
7
100
AcDbLine
 10
144.410351
 20
129.307001
 30
0.0
 11
143.987018
 21
129.307001
 31
0.0
  0
LINE
  5
497
100
AcDbEntity
  8
Vrstva_1
 62
7
100
AcDbLine
 10
143.987018
 20
129.307001
 30
0.0
 11
143.563684
 21
129.307001
 31
0.0
  0
LINE
  5
498
100
AcDbEntity
  8
Vrstva_1
 62
7
100
AcDbLine
 10
143.563684
 20
129.307001
 30
0.0
 11
143.563684
 21
128.883668
 31
0.0
  0
LINE
  5
499
100
AcDbEntity
  8
Vrstva_1
 62
7
100
AcDbLine
 10
143.563684
 20
128.883668
 30
0.0
 11
143.563684
 21
128.460335
 31
0.0
  0
LINE
  5
49a
100
AcDbEntity
  8
Vrstva_1
 62
7
100
AcDbLine
 10
143.563684
 20
128.460335
 30
0.0
 11
143.987018
 21
128.460335
 31
0.0
  0
LINE
  5
49b
100
AcDbEntity
  8
Vrstva_1
 62
7
100
AcDbLine
 10
143.987018
 20
128.460335
 30
0.0
 11
144.410351
 21
128.460335
 31
0.0
  0
LINE
  5
49c
100
AcDbEntity
  8
Vrstva_1
 62
7
100
AcDbLine
 10
144.410351
 20
128.460335
 30
0.0
 11
144.410351
 21
128.037001
 31
0.0
  0
LINE
  5
49d
100
AcDbEntity
  8
Vrstva_1
 62
7
100
AcDbLine
 10
144.410351
 20
128.037001
 30
0.0
 11
144.410351
 21
127.613668
 31
0.0
  0
LINE
  5
49e
100
AcDbEntity
  8
Vrstva_1
 62
7
100
AcDbLine
 10
144.410351
 20
127.613668
 30
0.0
 11
143.987018
 21
127.613668
 31
0.0
  0
LINE
  5
49f
100
AcDbEntity
  8
Vrstva_1
 62
7
100
AcDbLine
 10
143.987018
 20
127.613668
 30
0.0
 11
143.563684
 21
127.613668
 31
0.0
  0
LINE
  5
4a0
100
AcDbEntity
  8
Vrstva_1
 62
7
100
AcDbLine
 10
143.563684
 20
127.613668
 30
0.0
 11
143.563684
 21
128.037001
 31
0.0
  0
LINE
  5
4a1
100
AcDbEntity
  8
Vrstva_1
 62
7
100
AcDbLine
 10
143.563684
 20
128.037001
 30
0.0
 11
143.563684
 21
128.460335
 31
0.0
  0
LINE
  5
4a2
100
AcDbEntity
  8
Vrstva_1
 62
7
100
AcDbLine
 10
143.563684
 20
128.460335
 30
0.0
 11
142.717018
 21
128.460335
 31
0.0
  0
LINE
  5
4a3
100
AcDbEntity
  8
Vrstva_1
 62
7
100
AcDbLine
 10
142.717018
 20
128.460335
 30
0.0
 11
141.870351
 21
128.460335
 31
0.0
  0
LINE
  5
4a4
100
AcDbEntity
  8
Vrstva_1
 62
7
100
AcDbLine
 10
141.870351
 20
128.460335
 30
0.0
 11
141.870351
 21
128.037001
 31
0.0
  0
LINE
  5
4a5
100
AcDbEntity
  8
Vrstva_1
 62
7
100
AcDbLine
 10
141.870351
 20
128.037001
 30
0.0
 11
141.870351
 21
127.613668
 31
0.0
  0
LINE
  5
4a6
100
AcDbEntity
  8
Vrstva_1
 62
7
100
AcDbLine
 10
141.870351
 20
127.613668
 30
0.0
 11
142.293684
 21
127.613668
 31
0.0
  0
LINE
  5
4a7
100
AcDbEntity
  8
Vrstva_1
 62
7
100
AcDbLine
 10
142.293684
 20
127.613668
 30
0.0
 11
142.717018
 21
127.613668
 31
0.0
  0
LINE
  5
4a8
100
AcDbEntity
  8
Vrstva_1
 62
7
100
AcDbLine
 10
142.717018
 20
127.613668
 30
0.0
 11
142.717018
 21
127.190335
 31
0.0
  0
LINE
  5
4a9
100
AcDbEntity
  8
Vrstva_1
 62
7
100
AcDbLine
 10
142.717018
 20
127.190335
 30
0.0
 11
142.717018
 21
126.767001
 31
0.0
  0
LINE
  5
4aa
100
AcDbEntity
  8
Vrstva_1
 62
7
100
AcDbLine
 10
142.717018
 20
126.767001
 30
0.0
 11
141.870351
 21
126.767001
 31
0.0
  0
LINE
  5
4ab
100
AcDbEntity
  8
Vrstva_1
 62
7
100
AcDbLine
 10
141.870351
 20
126.767001
 30
0.0
 11
141.023684
 21
126.767001
 31
0.0
  0
LINE
  5
4ac
100
AcDbEntity
  8
Vrstva_1
 62
7
100
AcDbLine
 10
141.023684
 20
126.767001
 30
0.0
 11
141.023684
 21
127.190335
 31
0.0
  0
LINE
  5
4ad
100
AcDbEntity
  8
Vrstva_1
 62
7
100
AcDbLine
 10
141.023684
 20
127.190335
 30
0.0
 11
141.023684
 21
127.613668
 31
0.0
  0
LINE
  5
4ae
100
AcDbEntity
  8
Vrstva_1
 62
7
100
AcDbLine
 10
141.023684
 20
127.613668
 30
0.0
 11
139.753684
 21
127.613668
 31
0.0
  0
LINE
  5
4af
100
AcDbEntity
  8
Vrstva_1
 62
7
100
AcDbLine
 10
139.753684
 20
127.613668
 30
0.0
 11
138.483684
 21
127.613668
 31
0.0
  0
LINE
  5
4b0
100
AcDbEntity
  8
Vrstva_1
 62
7
100
AcDbLine
 10
138.483684
 20
127.613668
 30
0.0
 11
138.483684
 21
128.037001
 31
0.0
  0
LINE
  5
4b1
100
AcDbEntity
  8
Vrstva_1
 62
7
100
AcDbLine
 10
138.483684
 20
128.037001
 30
0.0
 11
138.483684
 21
128.460335
 31
0.0
  0
LINE
  5
4b2
100
AcDbEntity
  8
Vrstva_1
 62
7
100
AcDbLine
 10
138.483684
 20
128.460335
 30
0.0
 11
137.637018
 21
128.460335
 31
0.0
  0
LINE
  5
4b3
100
AcDbEntity
  8
Vrstva_1
 62
7
100
AcDbLine
 10
137.637018
 20
128.460335
 30
0.0
 11
136.790351
 21
128.460335
 31
0.0
  0
LINE
  5
4b4
100
AcDbEntity
  8
Vrstva_1
 62
7
100
AcDbLine
 10
136.790351
 20
128.460335
 30
0.0
 11
136.790351
 21
128.883668
 31
0.0
  0
LINE
  5
4b5
100
AcDbEntity
  8
Vrstva_1
 62
7
100
AcDbLine
 10
136.790351
 20
128.883668
 30
0.0
 11
136.790351
 21
129.307001
 31
0.0
  0
LINE
  5
4b6
100
AcDbEntity
  8
Vrstva_1
 62
7
100
AcDbLine
 10
136.790351
 20
129.307001
 30
0.0
 11
136.367018
 21
129.307001
 31
0.0
  0
LINE
  5
4b7
100
AcDbEntity
  8
Vrstva_1
 62
7
100
AcDbLine
 10
136.367018
 20
129.307001
 30
0.0
 11
135.943684
 21
129.307001
 31
0.0
  0
LINE
  5
4b8
100
AcDbEntity
  8
Vrstva_1
 62
7
100
AcDbLine
 10
135.943684
 20
129.307001
 30
0.0
 11
135.943684
 21
128.883668
 31
0.0
  0
LINE
  5
4b9
100
AcDbEntity
  8
Vrstva_1
 62
7
100
AcDbLine
 10
135.943684
 20
128.883668
 30
0.0
 11
135.943684
 21
128.460335
 31
0.0
  0
LINE
  5
4ba
100
AcDbEntity
  8
Vrstva_1
 62
7
100
AcDbLine
 10
135.943684
 20
128.460335
 30
0.0
 11
134.673684
 21
128.460335
 31
0.0
  0
LINE
  5
4bb
100
AcDbEntity
  8
Vrstva_1
 62
7
100
AcDbLine
 10
134.673684
 20
128.460335
 30
0.0
 11
133.403684
 21
128.460335
 31
0.0
  0
LINE
  5
4bc
100
AcDbEntity
  8
Vrstva_1
 62
7
100
AcDbLine
 10
133.403684
 20
128.460335
 30
0.0
 11
133.403684
 21
128.883668
 31
0.0
  0
LINE
  5
4bd
100
AcDbEntity
  8
Vrstva_1
 62
7
100
AcDbLine
 10
133.403684
 20
128.883668
 30
0.0
 11
133.403684
 21
129.307001
 31
0.0
  0
LINE
  5
4be
100
AcDbEntity
  8
Vrstva_1
 62
7
100
AcDbLine
 10
133.403684
 20
129.307001
 30
0.0
 11
132.980351
 21
129.307001
 31
0.0
  0
LINE
  5
4bf
100
AcDbEntity
  8
Vrstva_1
 62
7
100
AcDbLine
 10
132.980351
 20
129.307001
 30
0.0
 11
132.557018
 21
129.307001
 31
0.0
  0
LINE
  5
4c0
100
AcDbEntity
  8
Vrstva_1
 62
7
100
AcDbLine
 10
132.557018
 20
129.307001
 30
0.0
 11
132.557018
 21
130.153668
 31
0.0
  0
LINE
  5
4c1
100
AcDbEntity
  8
Vrstva_1
 62
7
100
AcDbLine
 10
132.557018
 20
130.153668
 30
0.0
 11
132.557018
 21
131.000335
 31
0.0
  0
LINE
  5
4c2
100
AcDbEntity
  8
Vrstva_1
 62
7
100
AcDbLine
 10
132.557018
 20
131.000335
 30
0.0
 11
132.133684
 21
131.000335
 31
0.0
  0
LINE
  5
4c3
100
AcDbEntity
  8
Vrstva_1
 62
7
100
AcDbLine
 10
132.133684
 20
131.000335
 30
0.0
 11
131.710351
 21
131.000335
 31
0.0
  0
LINE
  5
4c4
100
AcDbEntity
  8
Vrstva_1
 62
7
100
AcDbLine
 10
131.710351
 20
131.000335
 30
0.0
 11
131.710351
 21
129.730335
 31
0.0
  0
LINE
  5
4c5
100
AcDbEntity
  8
Vrstva_1
 62
7
100
AcDbLine
 10
131.710351
 20
129.730335
 30
0.0
 11
131.710351
 21
128.460335
 31
0.0
  0
LINE
  5
4c6
100
AcDbEntity
  8
Vrstva_1
 62
7
100
AcDbLine
 10
131.710351
 20
128.460335
 30
0.0
 11
129.593684
 21
128.460335
 31
0.0
  0
LINE
  5
4c7
100
AcDbEntity
  8
Vrstva_1
 62
7
100
AcDbLine
 10
129.593684
 20
128.460335
 30
0.0
 11
127.477018
 21
128.460335
 31
0.0
  0
LINE
  5
4c8
100
AcDbEntity
  8
Vrstva_1
 62
7
100
AcDbLine
 10
127.477018
 20
128.460335
 30
0.0
 11
127.477018
 21
128.037001
 31
0.0
  0
LINE
  5
4c9
100
AcDbEntity
  8
Vrstva_1
 62
7
100
AcDbLine
 10
127.477018
 20
128.037001
 30
0.0
 11
127.477018
 21
127.613668
 31
0.0
  0
LINE
  5
4ca
100
AcDbEntity
  8
Vrstva_1
 62
7
100
AcDbLine
 10
127.477018
 20
127.613668
 30
0.0
 11
127.053684
 21
127.613668
 31
0.0
  0
LINE
  5
4cb
100
AcDbEntity
  8
Vrstva_1
 62
7
100
AcDbLine
 10
127.053684
 20
127.613668
 30
0.0
 11
126.630351
 21
127.613668
 31
0.0
  0
LINE
  5
4cc
100
AcDbEntity
  8
Vrstva_1
 62
7
100
AcDbLine
 10
126.630351
 20
127.613668
 30
0.0
 11
126.630351
 21
127.190335
 31
0.0
  0
LINE
  5
4cd
100
AcDbEntity
  8
Vrstva_1
 62
7
100
AcDbLine
 10
126.630351
 20
127.190335
 30
0.0
 11
126.630351
 21
126.767001
 31
0.0
  0
LINE
  5
4ce
100
AcDbEntity
  8
Vrstva_1
 62
7
100
AcDbLine
 10
126.630351
 20
126.767001
 30
0.0
 11
124.937018
 21
126.767001
 31
0.0
  0
LINE
  5
4cf
100
AcDbEntity
  8
Vrstva_1
 62
7
100
AcDbLine
 10
124.937018
 20
126.767001
 30
0.0
 11
124.937018
 21
126.767001
 31
0.0
  0
LINE
  5
4d0
100
AcDbEntity
  8
Vrstva_1
 62
7
100
AcDbLine
 10
125.783684
 20
127.613668
 30
0.0
 11
126.630351
 21
127.613668
 31
0.0
  0
LINE
  5
4d1
100
AcDbEntity
  8
Vrstva_1
 62
7
100
AcDbLine
 10
126.630351
 20
127.613668
 30
0.0
 11
126.630351
 21
128.037001
 31
0.0
  0
LINE
  5
4d2
100
AcDbEntity
  8
Vrstva_1
 62
7
100
AcDbLine
 10
126.630351
 20
128.037001
 30
0.0
 11
126.630351
 21
128.460335
 31
0.0
  0
LINE
  5
4d3
100
AcDbEntity
  8
Vrstva_1
 62
7
100
AcDbLine
 10
126.630351
 20
128.460335
 30
0.0
 11
125.783684
 21
128.460335
 31
0.0
  0
LINE
  5
4d4
100
AcDbEntity
  8
Vrstva_1
 62
7
100
AcDbLine
 10
125.783684
 20
128.460335
 30
0.0
 11
124.937018
 21
128.460335
 31
0.0
  0
LINE
  5
4d5
100
AcDbEntity
  8
Vrstva_1
 62
7
100
AcDbLine
 10
124.937018
 20
128.460335
 30
0.0
 11
124.937018
 21
128.037001
 31
0.0
  0
LINE
  5
4d6
100
AcDbEntity
  8
Vrstva_1
 62
7
100
AcDbLine
 10
124.937018
 20
128.037001
 30
0.0
 11
124.937018
 21
127.613668
 31
0.0
  0
LINE
  5
4d7
100
AcDbEntity
  8
Vrstva_1
 62
7
100
AcDbLine
 10
124.937018
 20
127.613668
 30
0.0
 11
125.783684
 21
127.613668
 31
0.0
  0
LINE
  5
4d8
100
AcDbEntity
  8
Vrstva_1
 62
7
100
AcDbLine
 10
125.783684
 20
127.613668
 30
0.0
 11
125.783684
 21
127.613668
 31
0.0
  0
LINE
  5
4d9
100
AcDbEntity
  8
Vrstva_1
 62
7
100
AcDbLine
 10
125.783684
 20
129.307001
 30
0.0
 11
126.630351
 21
129.307001
 31
0.0
  0
LINE
  5
4da
100
AcDbEntity
  8
Vrstva_1
 62
7
100
AcDbLine
 10
126.630351
 20
129.307001
 30
0.0
 11
126.630351
 21
129.730335
 31
0.0
  0
LINE
  5
4db
100
AcDbEntity
  8
Vrstva_1
 62
7
100
AcDbLine
 10
126.630351
 20
129.730335
 30
0.0
 11
126.630351
 21
130.153668
 31
0.0
  0
LINE
  5
4dc
100
AcDbEntity
  8
Vrstva_1
 62
7
100
AcDbLine
 10
126.630351
 20
130.153668
 30
0.0
 11
127.477018
 21
130.153668
 31
0.0
  0
LINE
  5
4dd
100
AcDbEntity
  8
Vrstva_1
 62
7
100
AcDbLine
 10
127.477018
 20
130.153668
 30
0.0
 11
128.323684
 21
130.153668
 31
0.0
  0
LINE
  5
4de
100
AcDbEntity
  8
Vrstva_1
 62
7
100
AcDbLine
 10
128.323684
 20
130.153668
 30
0.0
 11
128.323684
 21
130.577001
 31
0.0
  0
LINE
  5
4df
100
AcDbEntity
  8
Vrstva_1
 62
7
100
AcDbLine
 10
128.323684
 20
130.577001
 30
0.0
 11
128.323684
 21
131.000335
 31
0.0
  0
LINE
  5
4e0
100
AcDbEntity
  8
Vrstva_1
 62
7
100
AcDbLine
 10
128.323684
 20
131.000335
 30
0.0
 11
128.747018
 21
131.000335
 31
0.0
  0
LINE
  5
4e1
100
AcDbEntity
  8
Vrstva_1
 62
7
100
AcDbLine
 10
128.747018
 20
131.000335
 30
0.0
 11
129.170351
 21
131.000335
 31
0.0
  0
LINE
  5
4e2
100
AcDbEntity
  8
Vrstva_1
 62
7
100
AcDbLine
 10
129.170351
 20
131.000335
 30
0.0
 11
129.170351
 21
130.577001
 31
0.0
  0
LINE
  5
4e3
100
AcDbEntity
  8
Vrstva_1
 62
7
100
AcDbLine
 10
129.170351
 20
130.577001
 30
0.0
 11
129.170351
 21
130.153668
 31
0.0
  0
LINE
  5
4e4
100
AcDbEntity
  8
Vrstva_1
 62
7
100
AcDbLine
 10
129.170351
 20
130.153668
 30
0.0
 11
129.593684
 21
130.153668
 31
0.0
  0
LINE
  5
4e5
100
AcDbEntity
  8
Vrstva_1
 62
7
100
AcDbLine
 10
129.593684
 20
130.153668
 30
0.0
 11
130.017018
 21
130.153668
 31
0.0
  0
LINE
  5
4e6
100
AcDbEntity
  8
Vrstva_1
 62
7
100
AcDbLine
 10
130.017018
 20
130.153668
 30
0.0
 11
130.017018
 21
129.730335
 31
0.0
  0
LINE
  5
4e7
100
AcDbEntity
  8
Vrstva_1
 62
7
100
AcDbLine
 10
130.017018
 20
129.730335
 30
0.0
 11
130.017018
 21
129.307001
 31
0.0
  0
LINE
  5
4e8
100
AcDbEntity
  8
Vrstva_1
 62
7
100
AcDbLine
 10
130.017018
 20
129.307001
 30
0.0
 11
130.440351
 21
129.307001
 31
0.0
  0
LINE
  5
4e9
100
AcDbEntity
  8
Vrstva_1
 62
7
100
AcDbLine
 10
130.440351
 20
129.307001
 30
0.0
 11
130.863684
 21
129.307001
 31
0.0
  0
LINE
  5
4ea
100
AcDbEntity
  8
Vrstva_1
 62
7
100
AcDbLine
 10
130.863684
 20
129.307001
 30
0.0
 11
130.863684
 21
130.153668
 31
0.0
  0
LINE
  5
4eb
100
AcDbEntity
  8
Vrstva_1
 62
7
100
AcDbLine
 10
130.863684
 20
130.153668
 30
0.0
 11
130.863684
 21
131.000335
 31
0.0
  0
LINE
  5
4ec
100
AcDbEntity
  8
Vrstva_1
 62
7
100
AcDbLine
 10
130.863684
 20
131.000335
 30
0.0
 11
131.287018
 21
131.000335
 31
0.0
  0
LINE
  5
4ed
100
AcDbEntity
  8
Vrstva_1
 62
7
100
AcDbLine
 10
131.287018
 20
131.000335
 30
0.0
 11
131.710351
 21
131.000335
 31
0.0
  0
LINE
  5
4ee
100
AcDbEntity
  8
Vrstva_1
 62
7
100
AcDbLine
 10
131.710351
 20
131.000335
 30
0.0
 11
131.710351
 21
131.847001
 31
0.0
  0
LINE
  5
4ef
100
AcDbEntity
  8
Vrstva_1
 62
7
100
AcDbLine
 10
131.710351
 20
131.847001
 30
0.0
 11
131.710351
 21
132.693668
 31
0.0
  0
LINE
  5
4f0
100
AcDbEntity
  8
Vrstva_1
 62
7
100
AcDbLine
 10
131.710351
 20
132.693668
 30
0.0
 11
132.133684
 21
132.693668
 31
0.0
  0
LINE
  5
4f1
100
AcDbEntity
  8
Vrstva_1
 62
7
100
AcDbLine
 10
132.133684
 20
132.693668
 30
0.0
 11
132.557018
 21
132.693668
 31
0.0
  0
LINE
  5
4f2
100
AcDbEntity
  8
Vrstva_1
 62
7
100
AcDbLine
 10
132.557018
 20
132.693668
 30
0.0
 11
132.557018
 21
131.847001
 31
0.0
  0
LINE
  5
4f3
100
AcDbEntity
  8
Vrstva_1
 62
7
100
AcDbLine
 10
132.557018
 20
131.847001
 30
0.0
 11
132.557018
 21
131.000335
 31
0.0
  0
LINE
  5
4f4
100
AcDbEntity
  8
Vrstva_1
 62
7
100
AcDbLine
 10
132.557018
 20
131.000335
 30
0.0
 11
132.980351
 21
131.000335
 31
0.0
  0
LINE
  5
4f5
100
AcDbEntity
  8
Vrstva_1
 62
7
100
AcDbLine
 10
132.980351
 20
131.000335
 30
0.0
 11
133.403684
 21
131.000335
 31
0.0
  0
LINE
  5
4f6
100
AcDbEntity
  8
Vrstva_1
 62
7
100
AcDbLine
 10
133.403684
 20
131.000335
 30
0.0
 11
133.403684
 21
130.153668
 31
0.0
  0
LINE
  5
4f7
100
AcDbEntity
  8
Vrstva_1
 62
7
100
AcDbLine
 10
133.403684
 20
130.153668
 30
0.0
 11
133.403684
 21
129.307001
 31
0.0
  0
LINE
  5
4f8
100
AcDbEntity
  8
Vrstva_1
 62
7
100
AcDbLine
 10
133.403684
 20
129.307001
 30
0.0
 11
133.827018
 21
129.307001
 31
0.0
  0
LINE
  5
4f9
100
AcDbEntity
  8
Vrstva_1
 62
7
100
AcDbLine
 10
133.827018
 20
129.307001
 30
0.0
 11
134.250351
 21
129.307001
 31
0.0
  0
LINE
  5
4fa
100
AcDbEntity
  8
Vrstva_1
 62
7
100
AcDbLine
 10
134.250351
 20
129.307001
 30
0.0
 11
134.250351
 21
129.730335
 31
0.0
  0
LINE
  5
4fb
100
AcDbEntity
  8
Vrstva_1
 62
7
100
AcDbLine
 10
134.250351
 20
129.730335
 30
0.0
 11
134.250351
 21
130.153668
 31
0.0
  0
LINE
  5
4fc
100
AcDbEntity
  8
Vrstva_1
 62
7
100
AcDbLine
 10
134.250351
 20
130.153668
 30
0.0
 11
134.673684
 21
130.153668
 31
0.0
  0
LINE
  5
4fd
100
AcDbEntity
  8
Vrstva_1
 62
7
100
AcDbLine
 10
134.673684
 20
130.153668
 30
0.0
 11
135.097018
 21
130.153668
 31
0.0
  0
LINE
  5
4fe
100
AcDbEntity
  8
Vrstva_1
 62
7
100
AcDbLine
 10
135.097018
 20
130.153668
 30
0.0
 11
135.097018
 21
130.577001
 31
0.0
  0
LINE
  5
4ff
100
AcDbEntity
  8
Vrstva_1
 62
7
100
AcDbLine
 10
135.097018
 20
130.577001
 30
0.0
 11
135.097018
 21
131.000335
 31
0.0
  0
LINE
  5
500
100
AcDbEntity
  8
Vrstva_1
 62
7
100
AcDbLine
 10
135.097018
 20
131.000335
 30
0.0
 11
134.673684
 21
131.000335
 31
0.0
  0
LINE
  5
501
100
AcDbEntity
  8
Vrstva_1
 62
7
100
AcDbLine
 10
134.673684
 20
131.000335
 30
0.0
 11
134.250351
 21
131.000335
 31
0.0
  0
LINE
  5
502
100
AcDbEntity
  8
Vrstva_1
 62
7
100
AcDbLine
 10
134.250351
 20
131.000335
 30
0.0
 11
134.250351
 21
131.423668
 31
0.0
  0
LINE
  5
503
100
AcDbEntity
  8
Vrstva_1
 62
7
100
AcDbLine
 10
134.250351
 20
131.423668
 30
0.0
 11
134.250351
 21
131.847001
 31
0.0
  0
LINE
  5
504
100
AcDbEntity
  8
Vrstva_1
 62
7
100
AcDbLine
 10
134.250351
 20
131.847001
 30
0.0
 11
133.827018
 21
131.847001
 31
0.0
  0
LINE
  5
505
100
AcDbEntity
  8
Vrstva_1
 62
7
100
AcDbLine
 10
133.827018
 20
131.847001
 30
0.0
 11
133.403684
 21
131.847001
 31
0.0
  0
LINE
  5
506
100
AcDbEntity
  8
Vrstva_1
 62
7
100
AcDbLine
 10
133.403684
 20
131.847001
 30
0.0
 11
133.403684
 21
132.270335
 31
0.0
  0
LINE
  5
507
100
AcDbEntity
  8
Vrstva_1
 62
7
100
AcDbLine
 10
133.403684
 20
132.270335
 30
0.0
 11
133.403684
 21
132.693668
 31
0.0
  0
LINE
  5
508
100
AcDbEntity
  8
Vrstva_1
 62
7
100
AcDbLine
 10
133.403684
 20
132.693668
 30
0.0
 11
132.980351
 21
132.693668
 31
0.0
  0
LINE
  5
509
100
AcDbEntity
  8
Vrstva_1
 62
7
100
AcDbLine
 10
132.980351
 20
132.693668
 30
0.0
 11
132.557018
 21
132.693668
 31
0.0
  0
LINE
  5
50a
100
AcDbEntity
  8
Vrstva_1
 62
7
100
AcDbLine
 10
132.557018
 20
132.693668
 30
0.0
 11
132.557018
 21
133.117001
 31
0.0
  0
LINE
  5
50b
100
AcDbEntity
  8
Vrstva_1
 62
7
100
AcDbLine
 10
132.557018
 20
133.117001
 30
0.0
 11
132.557018
 21
133.540335
 31
0.0
  0
LINE
  5
50c
100
AcDbEntity
  8
Vrstva_1
 62
7
100
AcDbLine
 10
132.557018
 20
133.540335
 30
0.0
 11
133.403684
 21
133.540335
 31
0.0
  0
LINE
  5
50d
100
AcDbEntity
  8
Vrstva_1
 62
7
100
AcDbLine
 10
133.403684
 20
133.540335
 30
0.0
 11
134.250351
 21
133.540335
 31
0.0
  0
LINE
  5
50e
100
AcDbEntity
  8
Vrstva_1
 62
7
100
AcDbLine
 10
134.250351
 20
133.540335
 30
0.0
 11
134.250351
 21
134.387001
 31
0.0
  0
LINE
  5
50f
100
AcDbEntity
  8
Vrstva_1
 62
7
100
AcDbLine
 10
134.250351
 20
134.387001
 30
0.0
 11
134.250351
 21
135.233668
 31
0.0
  0
LINE
  5
510
100
AcDbEntity
  8
Vrstva_1
 62
7
100
AcDbLine
 10
134.250351
 20
135.233668
 30
0.0
 11
133.827018
 21
135.233668
 31
0.0
  0
LINE
  5
511
100
AcDbEntity
  8
Vrstva_1
 62
7
100
AcDbLine
 10
133.827018
 20
135.233668
 30
0.0
 11
133.403684
 21
135.233668
 31
0.0
  0
LINE
  5
512
100
AcDbEntity
  8
Vrstva_1
 62
7
100
AcDbLine
 10
133.403684
 20
135.233668
 30
0.0
 11
133.403684
 21
134.810335
 31
0.0
  0
LINE
  5
513
100
AcDbEntity
  8
Vrstva_1
 62
7
100
AcDbLine
 10
133.403684
 20
134.810335
 30
0.0
 11
133.403684
 21
134.387001
 31
0.0
  0
LINE
  5
514
100
AcDbEntity
  8
Vrstva_1
 62
7
100
AcDbLine
 10
133.403684
 20
134.387001
 30
0.0
 11
132.980351
 21
134.387001
 31
0.0
  0
LINE
  5
515
100
AcDbEntity
  8
Vrstva_1
 62
7
100
AcDbLine
 10
132.980351
 20
134.387001
 30
0.0
 11
132.557018
 21
134.387001
 31
0.0
  0
LINE
  5
516
100
AcDbEntity
  8
Vrstva_1
 62
7
100
AcDbLine
 10
132.557018
 20
134.387001
 30
0.0
 11
132.557018
 21
133.963668
 31
0.0
  0
LINE
  5
517
100
AcDbEntity
  8
Vrstva_1
 62
7
100
AcDbLine
 10
132.557018
 20
133.963668
 30
0.0
 11
132.557018
 21
133.540335
 31
0.0
  0
LINE
  5
518
100
AcDbEntity
  8
Vrstva_1
 62
7
100
AcDbLine
 10
132.557018
 20
133.540335
 30
0.0
 11
132.133684
 21
133.540335
 31
0.0
  0
LINE
  5
519
100
AcDbEntity
  8
Vrstva_1
 62
7
100
AcDbLine
 10
132.133684
 20
133.540335
 30
0.0
 11
131.710351
 21
133.540335
 31
0.0
  0
LINE
  5
51a
100
AcDbEntity
  8
Vrstva_1
 62
7
100
AcDbLine
 10
131.710351
 20
133.540335
 30
0.0
 11
131.710351
 21
133.117001
 31
0.0
  0
LINE
  5
51b
100
AcDbEntity
  8
Vrstva_1
 62
7
100
AcDbLine
 10
131.710351
 20
133.117001
 30
0.0
 11
131.710351
 21
132.693668
 31
0.0
  0
LINE
  5
51c
100
AcDbEntity
  8
Vrstva_1
 62
7
100
AcDbLine
 10
131.710351
 20
132.693668
 30
0.0
 11
131.287018
 21
132.693668
 31
0.0
  0
LINE
  5
51d
100
AcDbEntity
  8
Vrstva_1
 62
7
100
AcDbLine
 10
131.287018
 20
132.693668
 30
0.0
 11
130.863684
 21
132.693668
 31
0.0
  0
LINE
  5
51e
100
AcDbEntity
  8
Vrstva_1
 62
7
100
AcDbLine
 10
130.863684
 20
132.693668
 30
0.0
 11
130.863684
 21
133.117001
 31
0.0
  0
LINE
  5
51f
100
AcDbEntity
  8
Vrstva_1
 62
7
100
AcDbLine
 10
130.863684
 20
133.117001
 30
0.0
 11
130.863684
 21
133.540335
 31
0.0
  0
LINE
  5
520
100
AcDbEntity
  8
Vrstva_1
 62
7
100
AcDbLine
 10
130.863684
 20
133.540335
 30
0.0
 11
130.440351
 21
133.540335
 31
0.0
  0
LINE
  5
521
100
AcDbEntity
  8
Vrstva_1
 62
7
100
AcDbLine
 10
130.440351
 20
133.540335
 30
0.0
 11
130.017018
 21
133.540335
 31
0.0
  0
LINE
  5
522
100
AcDbEntity
  8
Vrstva_1
 62
7
100
AcDbLine
 10
130.017018
 20
133.540335
 30
0.0
 11
130.017018
 21
133.117001
 31
0.0
  0
LINE
  5
523
100
AcDbEntity
  8
Vrstva_1
 62
7
100
AcDbLine
 10
130.017018
 20
133.117001
 30
0.0
 11
130.017018
 21
132.693668
 31
0.0
  0
LINE
  5
524
100
AcDbEntity
  8
Vrstva_1
 62
7
100
AcDbLine
 10
130.017018
 20
132.693668
 30
0.0
 11
129.593684
 21
132.693668
 31
0.0
  0
LINE
  5
525
100
AcDbEntity
  8
Vrstva_1
 62
7
100
AcDbLine
 10
129.593684
 20
132.693668
 30
0.0
 11
129.170351
 21
132.693668
 31
0.0
  0
LINE
  5
526
100
AcDbEntity
  8
Vrstva_1
 62
7
100
AcDbLine
 10
129.170351
 20
132.693668
 30
0.0
 11
129.170351
 21
132.270335
 31
0.0
  0
LINE
  5
527
100
AcDbEntity
  8
Vrstva_1
 62
7
100
AcDbLine
 10
129.170351
 20
132.270335
 30
0.0
 11
129.170351
 21
131.847001
 31
0.0
  0
LINE
  5
528
100
AcDbEntity
  8
Vrstva_1
 62
7
100
AcDbLine
 10
129.170351
 20
131.847001
 30
0.0
 11
128.747018
 21
131.847001
 31
0.0
  0
LINE
  5
529
100
AcDbEntity
  8
Vrstva_1
 62
7
100
AcDbLine
 10
128.747018
 20
131.847001
 30
0.0
 11
128.323684
 21
131.847001
 31
0.0
  0
LINE
  5
52a
100
AcDbEntity
  8
Vrstva_1
 62
7
100
AcDbLine
 10
128.323684
 20
131.847001
 30
0.0
 11
128.323684
 21
132.270335
 31
0.0
  0
LINE
  5
52b
100
AcDbEntity
  8
Vrstva_1
 62
7
100
AcDbLine
 10
128.323684
 20
132.270335
 30
0.0
 11
128.323684
 21
132.693668
 31
0.0
  0
LINE
  5
52c
100
AcDbEntity
  8
Vrstva_1
 62
7
100
AcDbLine
 10
128.323684
 20
132.693668
 30
0.0
 11
127.900351
 21
132.693668
 31
0.0
  0
LINE
  5
52d
100
AcDbEntity
  8
Vrstva_1
 62
7
100
AcDbLine
 10
127.900351
 20
132.693668
 30
0.0
 11
127.477018
 21
132.693668
 31
0.0
  0
LINE
  5
52e
100
AcDbEntity
  8
Vrstva_1
 62
7
100
AcDbLine
 10
127.477018
 20
132.693668
 30
0.0
 11
127.477018
 21
131.847001
 31
0.0
  0
LINE
  5
52f
100
AcDbEntity
  8
Vrstva_1
 62
7
100
AcDbLine
 10
127.477018
 20
131.847001
 30
0.0
 11
127.477018
 21
131.000335
 31
0.0
  0
LINE
  5
530
100
AcDbEntity
  8
Vrstva_1
 62
7
100
AcDbLine
 10
127.477018
 20
131.000335
 30
0.0
 11
127.053684
 21
131.000335
 31
0.0
  0
LINE
  5
531
100
AcDbEntity
  8
Vrstva_1
 62
7
100
AcDbLine
 10
127.053684
 20
131.000335
 30
0.0
 11
126.630351
 21
131.000335
 31
0.0
  0
LINE
  5
532
100
AcDbEntity
  8
Vrstva_1
 62
7
100
AcDbLine
 10
126.630351
 20
131.000335
 30
0.0
 11
126.630351
 21
130.577001
 31
0.0
  0
LINE
  5
533
100
AcDbEntity
  8
Vrstva_1
 62
7
100
AcDbLine
 10
126.630351
 20
130.577001
 30
0.0
 11
126.630351
 21
130.153668
 31
0.0
  0
LINE
  5
534
100
AcDbEntity
  8
Vrstva_1
 62
7
100
AcDbLine
 10
126.630351
 20
130.153668
 30
0.0
 11
125.783684
 21
130.153668
 31
0.0
  0
LINE
  5
535
100
AcDbEntity
  8
Vrstva_1
 62
7
100
AcDbLine
 10
125.783684
 20
130.153668
 30
0.0
 11
124.937018
 21
130.153668
 31
0.0
  0
LINE
  5
536
100
AcDbEntity
  8
Vrstva_1
 62
7
100
AcDbLine
 10
124.937018
 20
130.153668
 30
0.0
 11
124.937018
 21
129.730335
 31
0.0
  0
LINE
  5
537
100
AcDbEntity
  8
Vrstva_1
 62
7
100
AcDbLine
 10
124.937018
 20
129.730335
 30
0.0
 11
124.937018
 21
129.307001
 31
0.0
  0
LINE
  5
538
100
AcDbEntity
  8
Vrstva_1
 62
7
100
AcDbLine
 10
124.937018
 20
129.307001
 30
0.0
 11
125.783684
 21
129.307001
 31
0.0
  0
LINE
  5
539
100
AcDbEntity
  8
Vrstva_1
 62
7
100
AcDbLine
 10
125.783684
 20
129.307001
 30
0.0
 11
125.783684
 21
129.307001
 31
0.0
  0
LINE
  5
53a
100
AcDbEntity
  8
Vrstva_1
 62
7
100
AcDbLine
 10
130.440351
 20
131.000335
 30
0.0
 11
130.017018
 21
131.000335
 31
0.0
  0
LINE
  5
53b
100
AcDbEntity
  8
Vrstva_1
 62
7
100
AcDbLine
 10
130.017018
 20
131.000335
 30
0.0
 11
130.017018
 21
131.847001
 31
0.0
  0
LINE
  5
53c
100
AcDbEntity
  8
Vrstva_1
 62
7
100
AcDbLine
 10
130.017018
 20
131.847001
 30
0.0
 11
130.017018
 21
132.693668
 31
0.0
  0
LINE
  5
53d
100
AcDbEntity
  8
Vrstva_1
 62
7
100
AcDbLine
 10
130.017018
 20
132.693668
 30
0.0
 11
130.440351
 21
132.693668
 31
0.0
  0
LINE
  5
53e
100
AcDbEntity
  8
Vrstva_1
 62
7
100
AcDbLine
 10
130.440351
 20
132.693668
 30
0.0
 11
130.863684
 21
132.693668
 31
0.0
  0
LINE
  5
53f
100
AcDbEntity
  8
Vrstva_1
 62
7
100
AcDbLine
 10
130.863684
 20
132.693668
 30
0.0
 11
130.863684
 21
131.847001
 31
0.0
  0
LINE
  5
540
100
AcDbEntity
  8
Vrstva_1
 62
7
100
AcDbLine
 10
130.863684
 20
131.847001
 30
0.0
 11
130.863684
 21
131.000335
 31
0.0
  0
LINE
  5
541
100
AcDbEntity
  8
Vrstva_1
 62
7
100
AcDbLine
 10
130.863684
 20
131.000335
 30
0.0
 11
130.440351
 21
131.000335
 31
0.0
  0
LINE
  5
542
100
AcDbEntity
  8
Vrstva_1
 62
7
100
AcDbLine
 10
130.440351
 20
131.000335
 30
0.0
 11
130.440351
 21
131.000335
 31
0.0
  0
LINE
  5
543
100
AcDbEntity
  8
Vrstva_1
 62
7
100
AcDbLine
 10
130.440351
 20
136.080335
 30
0.0
 11
130.863684
 21
136.080335
 31
0.0
  0
LINE
  5
544
100
AcDbEntity
  8
Vrstva_1
 62
7
100
AcDbLine
 10
130.863684
 20
136.080335
 30
0.0
 11
130.863684
 21
136.503668
 31
0.0
  0
LINE
  5
545
100
AcDbEntity
  8
Vrstva_1
 62
7
100
AcDbLine
 10
130.863684
 20
136.503668
 30
0.0
 11
130.863684
 21
136.927001
 31
0.0
  0
LINE
  5
546
100
AcDbEntity
  8
Vrstva_1
 62
7
100
AcDbLine
 10
130.863684
 20
136.927001
 30
0.0
 11
130.440351
 21
136.927001
 31
0.0
  0
LINE
  5
547
100
AcDbEntity
  8
Vrstva_1
 62
7
100
AcDbLine
 10
130.440351
 20
136.927001
 30
0.0
 11
130.017018
 21
136.927001
 31
0.0
  0
LINE
  5
548
100
AcDbEntity
  8
Vrstva_1
 62
7
100
AcDbLine
 10
130.017018
 20
136.927001
 30
0.0
 11
130.017018
 21
136.503668
 31
0.0
  0
LINE
  5
549
100
AcDbEntity
  8
Vrstva_1
 62
7
100
AcDbLine
 10
130.017018
 20
136.503668
 30
0.0
 11
130.017018
 21
136.080335
 31
0.0
  0
LINE
  5
54a
100
AcDbEntity
  8
Vrstva_1
 62
7
100
AcDbLine
 10
130.017018
 20
136.080335
 30
0.0
 11
130.440351
 21
136.080335
 31
0.0
  0
LINE
  5
54b
100
AcDbEntity
  8
Vrstva_1
 62
7
100
AcDbLine
 10
130.440351
 20
136.080335
 30
0.0
 11
130.440351
 21
136.080335
 31
0.0
  0
LINE
  5
54c
100
AcDbEntity
  8
Vrstva_1
 62
7
100
AcDbLine
 10
137.213684
 20
126.767001
 30
0.0
 11
136.790351
 21
126.767001
 31
0.0
  0
LINE
  5
54d
100
AcDbEntity
  8
Vrstva_1
 62
7
100
AcDbLine
 10
136.790351
 20
126.767001
 30
0.0
 11
136.790351
 21
127.190335
 31
0.0
  0
LINE
  5
54e
100
AcDbEntity
  8
Vrstva_1
 62
7
100
AcDbLine
 10
136.790351
 20
127.190335
 30
0.0
 11
136.790351
 21
127.613668
 31
0.0
  0
LINE
  5
54f
100
AcDbEntity
  8
Vrstva_1
 62
7
100
AcDbLine
 10
136.790351
 20
127.613668
 30
0.0
 11
136.367018
 21
127.613668
 31
0.0
  0
LINE
  5
550
100
AcDbEntity
  8
Vrstva_1
 62
7
100
AcDbLine
 10
136.367018
 20
127.613668
 30
0.0
 11
135.943684
 21
127.613668
 31
0.0
  0
LINE
  5
551
100
AcDbEntity
  8
Vrstva_1
 62
7
100
AcDbLine
 10
135.943684
 20
127.613668
 30
0.0
 11
135.943684
 21
128.037001
 31
0.0
  0
LINE
  5
552
100
AcDbEntity
  8
Vrstva_1
 62
7
100
AcDbLine
 10
135.943684
 20
128.037001
 30
0.0
 11
135.943684
 21
128.460335
 31
0.0
  0
LINE
  5
553
100
AcDbEntity
  8
Vrstva_1
 62
7
100
AcDbLine
 10
135.943684
 20
128.460335
 30
0.0
 11
136.367018
 21
128.460335
 31
0.0
  0
LINE
  5
554
100
AcDbEntity
  8
Vrstva_1
 62
7
100
AcDbLine
 10
136.367018
 20
128.460335
 30
0.0
 11
136.790351
 21
128.460335
 31
0.0
  0
LINE
  5
555
100
AcDbEntity
  8
Vrstva_1
 62
7
100
AcDbLine
 10
136.790351
 20
128.460335
 30
0.0
 11
136.790351
 21
128.037001
 31
0.0
  0
LINE
  5
556
100
AcDbEntity
  8
Vrstva_1
 62
7
100
AcDbLine
 10
136.790351
 20
128.037001
 30
0.0
 11
136.790351
 21
127.613668
 31
0.0
  0
LINE
  5
557
100
AcDbEntity
  8
Vrstva_1
 62
7
100
AcDbLine
 10
136.790351
 20
127.613668
 30
0.0
 11
137.213684
 21
127.613668
 31
0.0
  0
LINE
  5
558
100
AcDbEntity
  8
Vrstva_1
 62
7
100
AcDbLine
 10
137.213684
 20
127.613668
 30
0.0
 11
137.637018
 21
127.613668
 31
0.0
  0
LINE
  5
559
100
AcDbEntity
  8
Vrstva_1
 62
7
100
AcDbLine
 10
137.637018
 20
127.613668
 30
0.0
 11
137.637018
 21
127.190335
 31
0.0
  0
LINE
  5
55a
100
AcDbEntity
  8
Vrstva_1
 62
7
100
AcDbLine
 10
137.637018
 20
127.190335
 30
0.0
 11
137.637018
 21
126.767001
 31
0.0
  0
LINE
  5
55b
100
AcDbEntity
  8
Vrstva_1
 62
7
100
AcDbLine
 10
137.637018
 20
126.767001
 30
0.0
 11
137.213684
 21
126.767001
 31
0.0
  0
LINE
  5
55c
100
AcDbEntity
  8
Vrstva_1
 62
7
100
AcDbLine
 10
137.213684
 20
126.767001
 30
0.0
 11
137.213684
 21
126.767001
 31
0.0
  0
LINE
  5
55d
100
AcDbEntity
  8
Vrstva_1
 62
7
100
AcDbLine
 10
122.820351
 20
131.847001
 30
0.0
 11
119.857018
 21
131.847001
 31
0.0
  0
LINE
  5
55e
100
AcDbEntity
  8
Vrstva_1
 62
7
100
AcDbLine
 10
119.857018
 20
131.847001
 30
0.0
 11
119.857018
 21
134.810335
 31
0.0
  0
LINE
  5
55f
100
AcDbEntity
  8
Vrstva_1
 62
7
100
AcDbLine
 10
119.857018
 20
134.810335
 30
0.0
 11
119.857018
 21
137.773668
 31
0.0
  0
LINE
  5
560
100
AcDbEntity
  8
Vrstva_1
 62
7
100
AcDbLine
 10
119.857018
 20
137.773668
 30
0.0
 11
122.820351
 21
137.773668
 31
0.0
  0
LINE
  5
561
100
AcDbEntity
  8
Vrstva_1
 62
7
100
AcDbLine
 10
122.820351
 20
137.773668
 30
0.0
 11
125.783684
 21
137.773668
 31
0.0
  0
LINE
  5
562
100
AcDbEntity
  8
Vrstva_1
 62
7
100
AcDbLine
 10
125.783684
 20
137.773668
 30
0.0
 11
125.783684
 21
134.810335
 31
0.0
  0
LINE
  5
563
100
AcDbEntity
  8
Vrstva_1
 62
7
100
AcDbLine
 10
125.783684
 20
134.810335
 30
0.0
 11
125.783684
 21
131.847001
 31
0.0
  0
LINE
  5
564
100
AcDbEntity
  8
Vrstva_1
 62
7
100
AcDbLine
 10
125.783684
 20
131.847001
 30
0.0
 11
122.820351
 21
131.847001
 31
0.0
  0
LINE
  5
565
100
AcDbEntity
  8
Vrstva_1
 62
7
100
AcDbLine
 10
122.820351
 20
131.847001
 30
0.0
 11
122.820351
 21
131.847001
 31
0.0
  0
LINE
  5
566
100
AcDbEntity
  8
Vrstva_1
 62
7
100
AcDbLine
 10
122.820351
 20
132.693668
 30
0.0
 11
124.937018
 21
132.693668
 31
0.0
  0
LINE
  5
567
100
AcDbEntity
  8
Vrstva_1
 62
7
100
AcDbLine
 10
124.937018
 20
132.693668
 30
0.0
 11
124.937018
 21
134.810335
 31
0.0
  0
LINE
  5
568
100
AcDbEntity
  8
Vrstva_1
 62
7
100
AcDbLine
 10
124.937018
 20
134.810335
 30
0.0
 11
124.937018
 21
136.927001
 31
0.0
  0
LINE
  5
569
100
AcDbEntity
  8
Vrstva_1
 62
7
100
AcDbLine
 10
124.937018
 20
136.927001
 30
0.0
 11
122.820351
 21
136.927001
 31
0.0
  0
LINE
  5
56a
100
AcDbEntity
  8
Vrstva_1
 62
7
100
AcDbLine
 10
122.820351
 20
136.927001
 30
0.0
 11
120.703684
 21
136.927001
 31
0.0
  0
LINE
  5
56b
100
AcDbEntity
  8
Vrstva_1
 62
7
100
AcDbLine
 10
120.703684
 20
136.927001
 30
0.0
 11
120.703684
 21
134.810335
 31
0.0
  0
LINE
  5
56c
100
AcDbEntity
  8
Vrstva_1
 62
7
100
AcDbLine
 10
120.703684
 20
134.810335
 30
0.0
 11
120.703684
 21
132.693668
 31
0.0
  0
LINE
  5
56d
100
AcDbEntity
  8
Vrstva_1
 62
7
100
AcDbLine
 10
120.703684
 20
132.693668
 30
0.0
 11
122.820351
 21
132.693668
 31
0.0
  0
LINE
  5
56e
100
AcDbEntity
  8
Vrstva_1
 62
7
100
AcDbLine
 10
122.820351
 20
132.693668
 30
0.0
 11
122.820351
 21
132.693668
 31
0.0
  0
LINE
  5
56f
100
AcDbEntity
  8
Vrstva_1
 62
7
100
AcDbLine
 10
122.820351
 20
133.540335
 30
0.0
 11
121.550351
 21
133.540335
 31
0.0
  0
LINE
  5
570
100
AcDbEntity
  8
Vrstva_1
 62
7
100
AcDbLine
 10
121.550351
 20
133.540335
 30
0.0
 11
121.550351
 21
134.810335
 31
0.0
  0
LINE
  5
571
100
AcDbEntity
  8
Vrstva_1
 62
7
100
AcDbLine
 10
121.550351
 20
134.810335
 30
0.0
 11
121.550351
 21
136.080335
 31
0.0
  0
LINE
  5
572
100
AcDbEntity
  8
Vrstva_1
 62
7
100
AcDbLine
 10
121.550351
 20
136.080335
 30
0.0
 11
122.820351
 21
136.080335
 31
0.0
  0
LINE
  5
573
100
AcDbEntity
  8
Vrstva_1
 62
7
100
AcDbLine
 10
122.820351
 20
136.080335
 30
0.0
 11
124.090351
 21
136.080335
 31
0.0
  0
LINE
  5
574
100
AcDbEntity
  8
Vrstva_1
 62
7
100
AcDbLine
 10
124.090351
 20
136.080335
 30
0.0
 11
124.090351
 21
134.810335
 31
0.0
  0
LINE
  5
575
100
AcDbEntity
  8
Vrstva_1
 62
7
100
AcDbLine
 10
124.090351
 20
134.810335
 30
0.0
 11
124.090351
 21
133.540335
 31
0.0
  0
LINE
  5
576
100
AcDbEntity
  8
Vrstva_1
 62
7
100
AcDbLine
 10
124.090351
 20
133.540335
 30
0.0
 11
122.820351
 21
133.540335
 31
0.0
  0
LINE
  5
577
100
AcDbEntity
  8
Vrstva_1
 62
7
100
AcDbLine
 10
122.820351
 20
133.540335
 30
0.0
 11
122.820351
 21
133.540335
 31
0.0
  0
LINE
  5
578
100
AcDbEntity
  8
Vrstva_1
 62
7
100
AcDbLine
 10
141.447018
 20
131.847001
 30
0.0
 11
138.483684
 21
131.847001
 31
0.0
  0
LINE
  5
579
100
AcDbEntity
  8
Vrstva_1
 62
7
100
AcDbLine
 10
138.483684
 20
131.847001
 30
0.0
 11
138.483684
 21
134.810335
 31
0.0
  0
LINE
  5
57a
100
AcDbEntity
  8
Vrstva_1
 62
7
100
AcDbLine
 10
138.483684
 20
134.810335
 30
0.0
 11
138.483684
 21
137.773668
 31
0.0
  0
LINE
  5
57b
100
AcDbEntity
  8
Vrstva_1
 62
7
100
AcDbLine
 10
138.483684
 20
137.773668
 30
0.0
 11
141.447018
 21
137.773668
 31
0.0
  0
LINE
  5
57c
100
AcDbEntity
  8
Vrstva_1
 62
7
100
AcDbLine
 10
141.447018
 20
137.773668
 30
0.0
 11
144.410351
 21
137.773668
 31
0.0
  0
LINE
  5
57d
100
AcDbEntity
  8
Vrstva_1
 62
7
100
AcDbLine
 10
144.410351
 20
137.773668
 30
0.0
 11
144.410351
 21
134.810335
 31
0.0
  0
LINE
  5
57e
100
AcDbEntity
  8
Vrstva_1
 62
7
100
AcDbLine
 10
144.410351
 20
134.810335
 30
0.0
 11
144.410351
 21
131.847001
 31
0.0
  0
LINE
  5
57f
100
AcDbEntity
  8
Vrstva_1
 62
7
100
AcDbLine
 10
144.410351
 20
131.847001
 30
0.0
 11
141.447018
 21
131.847001
 31
0.0
  0
LINE
  5
580
100
AcDbEntity
  8
Vrstva_1
 62
7
100
AcDbLine
 10
141.447018
 20
131.847001
 30
0.0
 11
141.447018
 21
131.847001
 31
0.0
  0
LINE
  5
581
100
AcDbEntity
  8
Vrstva_1
 62
7
100
AcDbLine
 10
141.447018
 20
132.693668
 30
0.0
 11
143.563684
 21
132.693668
 31
0.0
  0
LINE
  5
582
100
AcDbEntity
  8
Vrstva_1
 62
7
100
AcDbLine
 10
143.563684
 20
132.693668
 30
0.0
 11
143.563684
 21
134.810335
 31
0.0
  0
LINE
  5
583
100
AcDbEntity
  8
Vrstva_1
 62
7
100
AcDbLine
 10
143.563684
 20
134.810335
 30
0.0
 11
143.563684
 21
136.927001
 31
0.0
  0
LINE
  5
584
100
AcDbEntity
  8
Vrstva_1
 62
7
100
AcDbLine
 10
143.563684
 20
136.927001
 30
0.0
 11
141.447018
 21
136.927001
 31
0.0
  0
LINE
  5
585
100
AcDbEntity
  8
Vrstva_1
 62
7
100
AcDbLine
 10
141.447018
 20
136.927001
 30
0.0
 11
139.330351
 21
136.927001
 31
0.0
  0
LINE
  5
586
100
AcDbEntity
  8
Vrstva_1
 62
7
100
AcDbLine
 10
139.330351
 20
136.927001
 30
0.0
 11
139.330351
 21
134.810335
 31
0.0
  0
LINE
  5
587
100
AcDbEntity
  8
Vrstva_1
 62
7
100
AcDbLine
 10
139.330351
 20
134.810335
 30
0.0
 11
139.330351
 21
132.693668
 31
0.0
  0
LINE
  5
588
100
AcDbEntity
  8
Vrstva_1
 62
7
100
AcDbLine
 10
139.330351
 20
132.693668
 30
0.0
 11
141.447018
 21
132.693668
 31
0.0
  0
LINE
  5
589
100
AcDbEntity
  8
Vrstva_1
 62
7
100
AcDbLine
 10
141.447018
 20
132.693668
 30
0.0
 11
141.447018
 21
132.693668
 31
0.0
  0
LINE
  5
58a
100
AcDbEntity
  8
Vrstva_1
 62
7
100
AcDbLine
 10
141.447018
 20
133.540335
 30
0.0
 11
140.177018
 21
133.540335
 31
0.0
  0
LINE
  5
58b
100
AcDbEntity
  8
Vrstva_1
 62
7
100
AcDbLine
 10
140.177018
 20
133.540335
 30
0.0
 11
140.177018
 21
134.810335
 31
0.0
  0
LINE
  5
58c
100
AcDbEntity
  8
Vrstva_1
 62
7
100
AcDbLine
 10
140.177018
 20
134.810335
 30
0.0
 11
140.177018
 21
136.080335
 31
0.0
  0
LINE
  5
58d
100
AcDbEntity
  8
Vrstva_1
 62
7
100
AcDbLine
 10
140.177018
 20
136.080335
 30
0.0
 11
141.447018
 21
136.080335
 31
0.0
  0
LINE
  5
58e
100
AcDbEntity
  8
Vrstva_1
 62
7
100
AcDbLine
 10
141.447018
 20
136.080335
 30
0.0
 11
142.717018
 21
136.080335
 31
0.0
  0
LINE
  5
58f
100
AcDbEntity
  8
Vrstva_1
 62
7
100
AcDbLine
 10
142.717018
 20
136.080335
 30
0.0
 11
142.717018
 21
134.810335
 31
0.0
  0
LINE
  5
590
100
AcDbEntity
  8
Vrstva_1
 62
7
100
AcDbLine
 10
142.717018
 20
134.810335
 30
0.0
 11
142.717018
 21
133.540335
 31
0.0
  0
LINE
  5
591
100
AcDbEntity
  8
Vrstva_1
 62
7
100
AcDbLine
 10
142.717018
 20
133.540335
 30
0.0
 11
141.447018
 21
133.540335
 31
0.0
  0
LINE
  5
592
100
AcDbEntity
  8
Vrstva_1
 62
7
100
AcDbLine
 10
141.447018
 20
133.540335
 30
0.0
 11
141.447018
 21
133.540335
 31
0.0
  0
ENDSEC
  0
SECTION
  2
OBJECTS
  0
DICTIONARY
  5
C
330
0
100
AcDbDictionary
  3
ACAD_GROUP
350
D
  3
ACAD_MLINESTYLE
350
17
  0
DICTIONARY
  5
D
330
C
100
AcDbDictionary
  0
DICTIONARY
  5
1A
330
C
100
AcDbDictionary
  0
DICTIONARY
  5
17
330
C
100
AcDbDictionary
  3
STANDARD
350
18
  0
DICTIONARY
  5
19
330
C
100
AcDbDictionary
  0
ENDSEC
  0
EOF
