solid OpenSCAD_Model
  facet normal 0.996917 0.0784591 0
    outer loop
      vertex 21 0 20
      vertex 20.7415 3.28512 0
      vertex 20.7415 3.28512 20
    endloop
  endfacet
  facet normal 0.996917 0.0784591 0
    outer loop
      vertex 20.7415 3.28512 0
      vertex 21 0 20
      vertex 21 0 0
    endloop
  endfacet
  facet normal 0.760406 0.649448 0
    outer loop
      vertex 16.9894 12.3435 20
      vertex 14.8492 14.8492 0
      vertex 14.8492 14.8492 20
    endloop
  endfacet
  facet normal 0.760406 0.649448 0
    outer loop
      vertex 14.8492 14.8492 0
      vertex 16.9894 12.3435 20
      vertex 16.9894 12.3435 0
    endloop
  endfacet
  facet normal 0 0 -1
    outer loop
      vertex 1.5 -21 0
      vertex 6.5 -19.9678 0
      vertex 6.5 -30 0
    endloop
  endfacet
  facet normal 0 -0 -1
    outer loop
      vertex 2.50295 -15.803 0
      vertex 6.5 -19.9678 0
      vertex 1.5 -21 0
    endloop
  endfacet
  facet normal 0 0 -1
    outer loop
      vertex 1.5 -21 0
      vertex 6.5 -30 0
      vertex 1.5 -30 0
    endloop
  endfacet
  facet normal 0 0 -1
    outer loop
      vertex 6.5 -19.9678 0
      vertex 2.50295 -15.803 0
      vertex 4.94427 -15.2169 0
    endloop
  endfacet
  facet normal 0 0 -1
    outer loop
      vertex 2.50295 -15.803 0
      vertex 1.5 -21 0
      vertex 1.5 -15.8819 0
    endloop
  endfacet
  facet normal 0 0 -1
    outer loop
      vertex 16 0 0
      vertex 21 0 0
      vertex 20.7415 -3.28512 0
    endloop
  endfacet
  facet normal 0 0 -1
    outer loop
      vertex 15.803 -2.50295 0
      vertex 20.7415 -3.28512 0
      vertex 19.9722 -6.48936 0
    endloop
  endfacet
  facet normal 0 0 -1
    outer loop
      vertex 21 0 0
      vertex 16 0 0
      vertex 20.7415 3.28512 0
    endloop
  endfacet
  facet normal 0 0 -1
    outer loop
      vertex 15.2169 -4.94427 0
      vertex 19.9722 -6.48936 0
      vertex 18.7111 -9.5338 0
    endloop
  endfacet
  facet normal 0 0 -1
    outer loop
      vertex 15.803 2.50295 0
      vertex 20.7415 3.28512 0
      vertex 16 0 0
    endloop
  endfacet
  facet normal 0 0 -1
    outer loop
      vertex 14.2561 -7.26385 0
      vertex 18.7111 -9.5338 0
      vertex 16.9894 -12.3435 0
    endloop
  endfacet
  facet normal -0 0 -1
    outer loop
      vertex 20.7415 3.28512 0
      vertex 15.803 2.50295 0
      vertex 19.9722 6.48936 0
    endloop
  endfacet
  facet normal 0 0 -1
    outer loop
      vertex 15.2169 4.94427 0
      vertex 19.9722 6.48936 0
      vertex 15.803 2.50295 0
    endloop
  endfacet
  facet normal 0 0 -1
    outer loop
      vertex 20.7415 -3.28512 0
      vertex 15.803 -2.50295 0
      vertex 16 0 0
    endloop
  endfacet
  facet normal 0 0 -1
    outer loop
      vertex 19.9722 -6.48936 0
      vertex 15.2169 -4.94427 0
      vertex 15.803 -2.50295 0
    endloop
  endfacet
  facet normal 0 0 -1
    outer loop
      vertex 12.9443 -9.40456 0
      vertex 16.9894 -12.3435 0
      vertex 14.8492 -14.8492 0
    endloop
  endfacet
  facet normal 0 0 -1
    outer loop
      vertex 18.7111 -9.5338 0
      vertex 14.2561 -7.26385 0
      vertex 15.2169 -4.94427 0
    endloop
  endfacet
  facet normal 0 0 -1
    outer loop
      vertex 16.9894 -12.3435 0
      vertex 12.9443 -9.40456 0
      vertex 14.2561 -7.26385 0
    endloop
  endfacet
  facet normal 0 0 -1
    outer loop
      vertex 11.3137 -11.3137 0
      vertex 14.8492 -14.8492 0
      vertex 12.3435 -16.9894 0
    endloop
  endfacet
  facet normal 0 0 -1
    outer loop
      vertex 14.8492 -14.8492 0
      vertex 11.3137 -11.3137 0
      vertex 12.9443 -9.40456 0
    endloop
  endfacet
  facet normal 0 0 -1
    outer loop
      vertex 9.40456 -12.9443 0
      vertex 12.3435 -16.9894 0
      vertex 9.5338 -18.7111 0
    endloop
  endfacet
  facet normal 0 0 -1
    outer loop
      vertex 12.3435 -16.9894 0
      vertex 9.40456 -12.9443 0
      vertex 11.3137 -11.3137 0
    endloop
  endfacet
  facet normal 0 0 -1
    outer loop
      vertex 9.5338 -18.7111 0
      vertex 7.26385 -14.2561 0
      vertex 9.40456 -12.9443 0
    endloop
  endfacet
  facet normal 0 0 -1
    outer loop
      vertex 6.5 -19.9678 0
      vertex 7.26385 -14.2561 0
      vertex 9.5338 -18.7111 0
    endloop
  endfacet
  facet normal 0 0 -1
    outer loop
      vertex 7.26385 -14.2561 0
      vertex 6.5 -19.9678 0
      vertex 4.94427 -15.2169 0
    endloop
  endfacet
  facet normal -0 0 -1
    outer loop
      vertex 19.9722 6.48936 0
      vertex 15.2169 4.94427 0
      vertex 18.7111 9.5338 0
    endloop
  endfacet
  facet normal 0 0 -1
    outer loop
      vertex 14.2561 7.26385 0
      vertex 18.7111 9.5338 0
      vertex 15.2169 4.94427 0
    endloop
  endfacet
  facet normal -0 0 -1
    outer loop
      vertex 18.7111 9.5338 0
      vertex 14.2561 7.26385 0
      vertex 16.9894 12.3435 0
    endloop
  endfacet
  facet normal 0 0 -1
    outer loop
      vertex 12.9443 9.40456 0
      vertex 16.9894 12.3435 0
      vertex 14.2561 7.26385 0
    endloop
  endfacet
  facet normal -0 0 -1
    outer loop
      vertex 16.9894 12.3435 0
      vertex 12.9443 9.40456 0
      vertex 14.8492 14.8492 0
    endloop
  endfacet
  facet normal 0 0 -1
    outer loop
      vertex 11.3137 11.3137 0
      vertex 14.8492 14.8492 0
      vertex 12.9443 9.40456 0
    endloop
  endfacet
  facet normal -0 0 -1
    outer loop
      vertex 14.8492 14.8492 0
      vertex 11.3137 11.3137 0
      vertex 12.3435 16.9894 0
    endloop
  endfacet
  facet normal 0 0 -1
    outer loop
      vertex 9.40456 12.9443 0
      vertex 12.3435 16.9894 0
      vertex 11.3137 11.3137 0
    endloop
  endfacet
  facet normal -0 0 -1
    outer loop
      vertex 12.3435 16.9894 0
      vertex 9.40456 12.9443 0
      vertex 9.5338 18.7111 0
    endloop
  endfacet
  facet normal 0 0 -1
    outer loop
      vertex 7.26385 14.2561 0
      vertex 9.5338 18.7111 0
      vertex 9.40456 12.9443 0
    endloop
  endfacet
  facet normal 0 0 -1
    outer loop
      vertex 7.26385 14.2561 0
      vertex 6.5 19.9678 0
      vertex 9.5338 18.7111 0
    endloop
  endfacet
  facet normal 0 0 -1
    outer loop
      vertex 4.94427 15.2169 0
      vertex 6.5 19.9678 0
      vertex 7.26385 14.2561 0
    endloop
  endfacet
  facet normal 0 0 -1
    outer loop
      vertex 2.50295 15.803 0
      vertex 6.5 19.9678 0
      vertex 4.94427 15.2169 0
    endloop
  endfacet
  facet normal -0 0 -1
    outer loop
      vertex 6.5 19.9678 0
      vertex 2.50295 15.803 0
      vertex 1.5 21 0
    endloop
  endfacet
  facet normal 0 0 -1
    outer loop
      vertex 1.5 21 0
      vertex 2.50295 15.803 0
      vertex 1.5 15.8819 0
    endloop
  endfacet
  facet normal 0 0 -1
    outer loop
      vertex 6.5 19.9678 0
      vertex 1.5 21 0
      vertex 6.5 30 0
    endloop
  endfacet
  facet normal -0 0 -1
    outer loop
      vertex 6.5 30 0
      vertex 1.5 21 0
      vertex 1.5 30 0
    endloop
  endfacet
  facet normal 0.923879 0.382684 0
    outer loop
      vertex 19.9722 6.48936 20
      vertex 18.7111 9.5338 0
      vertex 18.7111 9.5338 20
    endloop
  endfacet
  facet normal 0.923879 0.382684 0
    outer loop
      vertex 18.7111 9.5338 0
      vertex 19.9722 6.48936 20
      vertex 19.9722 6.48936 0
    endloop
  endfacet
  facet normal 0.97237 0.233445 0
    outer loop
      vertex 20.7415 3.28512 20
      vertex 19.9722 6.48936 0
      vertex 19.9722 6.48936 20
    endloop
  endfacet
  facet normal 0.97237 0.233445 0
    outer loop
      vertex 19.9722 6.48936 0
      vertex 20.7415 3.28512 20
      vertex 20.7415 3.28512 0
    endloop
  endfacet
  facet normal 0.85264 0.522498 0
    outer loop
      vertex 18.7111 9.5338 20
      vertex 16.9894 12.3435 0
      vertex 16.9894 12.3435 20
    endloop
  endfacet
  facet normal 0.85264 0.522498 0
    outer loop
      vertex 16.9894 12.3435 0
      vertex 18.7111 9.5338 20
      vertex 18.7111 9.5338 0
    endloop
  endfacet
  facet normal 0.522498 0.85264 -0
    outer loop
      vertex 12.3435 16.9894 0
      vertex 9.5338 18.7111 20
      vertex 12.3435 16.9894 20
    endloop
  endfacet
  facet normal 0.522498 0.85264 0
    outer loop
      vertex 9.5338 18.7111 20
      vertex 12.3435 16.9894 0
      vertex 9.5338 18.7111 0
    endloop
  endfacet
  facet normal 0.649448 0.760406 -0
    outer loop
      vertex 14.8492 14.8492 0
      vertex 12.3435 16.9894 20
      vertex 14.8492 14.8492 20
    endloop
  endfacet
  facet normal 0.649448 0.760406 0
    outer loop
      vertex 12.3435 16.9894 20
      vertex 14.8492 14.8492 0
      vertex 12.3435 16.9894 0
    endloop
  endfacet
  facet normal -0 0 1
    outer loop
      vertex 1.5 21 20
      vertex 6.5 19.9678 20
      vertex 6.5 30 20
    endloop
  endfacet
  facet normal 0 -0 1
    outer loop
      vertex 2.50295 15.803 20
      vertex 6.5 19.9678 20
      vertex 1.5 21 20
    endloop
  endfacet
  facet normal 0 0 1
    outer loop
      vertex 1.5 21 20
      vertex 6.5 30 20
      vertex 1.5 30 20
    endloop
  endfacet
  facet normal 0 0 1
    outer loop
      vertex 6.5 19.9678 20
      vertex 2.50295 15.803 20
      vertex 4.94427 15.2169 20
    endloop
  endfacet
  facet normal 0 0 1
    outer loop
      vertex 2.50295 15.803 20
      vertex 1.5 21 20
      vertex 1.5 15.8819 20
    endloop
  endfacet
  facet normal 0 0 1
    outer loop
      vertex 16 0 20
      vertex 21 0 20
      vertex 20.7415 3.28512 20
    endloop
  endfacet
  facet normal 0 0 1
    outer loop
      vertex 15.803 2.50295 20
      vertex 20.7415 3.28512 20
      vertex 19.9722 6.48936 20
    endloop
  endfacet
  facet normal 0 0 1
    outer loop
      vertex 21 0 20
      vertex 16 0 20
      vertex 20.7415 -3.28512 20
    endloop
  endfacet
  facet normal 0 0 1
    outer loop
      vertex 15.2169 4.94427 20
      vertex 19.9722 6.48936 20
      vertex 18.7111 9.5338 20
    endloop
  endfacet
  facet normal -0 0 1
    outer loop
      vertex 15.803 -2.50295 20
      vertex 20.7415 -3.28512 20
      vertex 16 0 20
    endloop
  endfacet
  facet normal 0 0 1
    outer loop
      vertex 14.2561 7.26385 20
      vertex 18.7111 9.5338 20
      vertex 16.9894 12.3435 20
    endloop
  endfacet
  facet normal 0 0 1
    outer loop
      vertex 20.7415 -3.28512 20
      vertex 15.803 -2.50295 20
      vertex 19.9722 -6.48936 20
    endloop
  endfacet
  facet normal -0 0 1
    outer loop
      vertex 15.2169 -4.94427 20
      vertex 19.9722 -6.48936 20
      vertex 15.803 -2.50295 20
    endloop
  endfacet
  facet normal 0 0 1
    outer loop
      vertex 20.7415 3.28512 20
      vertex 15.803 2.50295 20
      vertex 16 0 20
    endloop
  endfacet
  facet normal 0 0 1
    outer loop
      vertex 19.9722 6.48936 20
      vertex 15.2169 4.94427 20
      vertex 15.803 2.50295 20
    endloop
  endfacet
  facet normal 0 0 1
    outer loop
      vertex 12.9443 9.40456 20
      vertex 16.9894 12.3435 20
      vertex 14.8492 14.8492 20
    endloop
  endfacet
  facet normal 0 0 1
    outer loop
      vertex 18.7111 9.5338 20
      vertex 14.2561 7.26385 20
      vertex 15.2169 4.94427 20
    endloop
  endfacet
  facet normal 0 0 1
    outer loop
      vertex 16.9894 12.3435 20
      vertex 12.9443 9.40456 20
      vertex 14.2561 7.26385 20
    endloop
  endfacet
  facet normal 0 0 1
    outer loop
      vertex 11.3137 11.3137 20
      vertex 14.8492 14.8492 20
      vertex 12.3435 16.9894 20
    endloop
  endfacet
  facet normal 0 0 1
    outer loop
      vertex 14.8492 14.8492 20
      vertex 11.3137 11.3137 20
      vertex 12.9443 9.40456 20
    endloop
  endfacet
  facet normal 0 0 1
    outer loop
      vertex 9.40456 12.9443 20
      vertex 12.3435 16.9894 20
      vertex 9.5338 18.7111 20
    endloop
  endfacet
  facet normal 0 0 1
    outer loop
      vertex 12.3435 16.9894 20
      vertex 9.40456 12.9443 20
      vertex 11.3137 11.3137 20
    endloop
  endfacet
  facet normal 0 0 1
    outer loop
      vertex 9.5338 18.7111 20
      vertex 7.26385 14.2561 20
      vertex 9.40456 12.9443 20
    endloop
  endfacet
  facet normal 0 0 1
    outer loop
      vertex 6.5 19.9678 20
      vertex 7.26385 14.2561 20
      vertex 9.5338 18.7111 20
    endloop
  endfacet
  facet normal 0 0 1
    outer loop
      vertex 7.26385 14.2561 20
      vertex 6.5 19.9678 20
      vertex 4.94427 15.2169 20
    endloop
  endfacet
  facet normal 0 0 1
    outer loop
      vertex 19.9722 -6.48936 20
      vertex 15.2169 -4.94427 20
      vertex 18.7111 -9.5338 20
    endloop
  endfacet
  facet normal -0 0 1
    outer loop
      vertex 14.2561 -7.26385 20
      vertex 18.7111 -9.5338 20
      vertex 15.2169 -4.94427 20
    endloop
  endfacet
  facet normal 0 0 1
    outer loop
      vertex 18.7111 -9.5338 20
      vertex 14.2561 -7.26385 20
      vertex 16.9894 -12.3435 20
    endloop
  endfacet
  facet normal -0 0 1
    outer loop
      vertex 12.9443 -9.40456 20
      vertex 16.9894 -12.3435 20
      vertex 14.2561 -7.26385 20
    endloop
  endfacet
  facet normal 0 0 1
    outer loop
      vertex 16.9894 -12.3435 20
      vertex 12.9443 -9.40456 20
      vertex 14.8492 -14.8492 20
    endloop
  endfacet
  facet normal -0 0 1
    outer loop
      vertex 11.3137 -11.3137 20
      vertex 14.8492 -14.8492 20
      vertex 12.9443 -9.40456 20
    endloop
  endfacet
  facet normal 0 0 1
    outer loop
      vertex 14.8492 -14.8492 20
      vertex 11.3137 -11.3137 20
      vertex 12.3435 -16.9894 20
    endloop
  endfacet
  facet normal -0 0 1
    outer loop
      vertex 9.40456 -12.9443 20
      vertex 12.3435 -16.9894 20
      vertex 11.3137 -11.3137 20
    endloop
  endfacet
  facet normal 0 0 1
    outer loop
      vertex 12.3435 -16.9894 20
      vertex 9.40456 -12.9443 20
      vertex 9.5338 -18.7111 20
    endloop
  endfacet
  facet normal -0 0 1
    outer loop
      vertex 7.26385 -14.2561 20
      vertex 9.5338 -18.7111 20
      vertex 9.40456 -12.9443 20
    endloop
  endfacet
  facet normal 0 0 1
    outer loop
      vertex 7.26385 -14.2561 20
      vertex 6.5 -19.9678 20
      vertex 9.5338 -18.7111 20
    endloop
  endfacet
  facet normal -0 0 1
    outer loop
      vertex 4.94427 -15.2169 20
      vertex 6.5 -19.9678 20
      vertex 7.26385 -14.2561 20
    endloop
  endfacet
  facet normal -0 0 1
    outer loop
      vertex 2.50295 -15.803 20
      vertex 6.5 -19.9678 20
      vertex 4.94427 -15.2169 20
    endloop
  endfacet
  facet normal 0 0 1
    outer loop
      vertex 6.5 -19.9678 20
      vertex 2.50295 -15.803 20
      vertex 1.5 -21 20
    endloop
  endfacet
  facet normal 0 0 1
    outer loop
      vertex 1.5 -21 20
      vertex 2.50295 -15.803 20
      vertex 1.5 -15.8819 20
    endloop
  endfacet
  facet normal 0 0 1
    outer loop
      vertex 6.5 -19.9678 20
      vertex 1.5 -21 20
      vertex 6.5 -30 20
    endloop
  endfacet
  facet normal 0 0 1
    outer loop
      vertex 6.5 -30 20
      vertex 1.5 -21 20
      vertex 1.5 -30 20
    endloop
  endfacet
  facet normal 0.382683 -0.92388 0
    outer loop
      vertex 6.5 -19.9678 0
      vertex 9.5338 -18.7111 20
      vertex 6.5 -19.9678 20
    endloop
  endfacet
  facet normal 0.382683 -0.92388 0
    outer loop
      vertex 9.5338 -18.7111 20
      vertex 6.5 -19.9678 0
      vertex 9.5338 -18.7111 0
    endloop
  endfacet
  facet normal 0.522498 -0.85264 0
    outer loop
      vertex 9.5338 -18.7111 0
      vertex 12.3435 -16.9894 20
      vertex 9.5338 -18.7111 20
    endloop
  endfacet
  facet normal 0.522498 -0.85264 0
    outer loop
      vertex 12.3435 -16.9894 20
      vertex 9.5338 -18.7111 0
      vertex 12.3435 -16.9894 0
    endloop
  endfacet
  facet normal 0.97237 -0.233445 0
    outer loop
      vertex 19.9722 -6.48936 20
      vertex 20.7415 -3.28512 0
      vertex 20.7415 -3.28512 20
    endloop
  endfacet
  facet normal 0.97237 -0.233445 0
    outer loop
      vertex 20.7415 -3.28512 0
      vertex 19.9722 -6.48936 20
      vertex 19.9722 -6.48936 0
    endloop
  endfacet
  facet normal 0.382683 0.92388 -0
    outer loop
      vertex 9.5338 18.7111 0
      vertex 6.5 19.9678 20
      vertex 9.5338 18.7111 20
    endloop
  endfacet
  facet normal 0.382683 0.92388 0
    outer loop
      vertex 6.5 19.9678 20
      vertex 9.5338 18.7111 0
      vertex 6.5 19.9678 0
    endloop
  endfacet
  facet normal 0.996917 -0.0784591 0
    outer loop
      vertex 20.7415 -3.28512 20
      vertex 21 0 0
      vertex 21 0 20
    endloop
  endfacet
  facet normal 0.996917 -0.0784591 0
    outer loop
      vertex 21 0 0
      vertex 20.7415 -3.28512 20
      vertex 20.7415 -3.28512 0
    endloop
  endfacet
  facet normal 0.649448 -0.760406 0
    outer loop
      vertex 12.3435 -16.9894 0
      vertex 14.8492 -14.8492 20
      vertex 12.3435 -16.9894 20
    endloop
  endfacet
  facet normal 0.649448 -0.760406 0
    outer loop
      vertex 14.8492 -14.8492 20
      vertex 12.3435 -16.9894 0
      vertex 14.8492 -14.8492 0
    endloop
  endfacet
  facet normal 0.760406 -0.649448 0
    outer loop
      vertex 14.8492 -14.8492 20
      vertex 16.9894 -12.3435 0
      vertex 16.9894 -12.3435 20
    endloop
  endfacet
  facet normal 0.760406 -0.649448 0
    outer loop
      vertex 16.9894 -12.3435 0
      vertex 14.8492 -14.8492 20
      vertex 14.8492 -14.8492 0
    endloop
  endfacet
  facet normal 0.923879 -0.382684 0
    outer loop
      vertex 18.7111 -9.5338 20
      vertex 19.9722 -6.48936 0
      vertex 19.9722 -6.48936 20
    endloop
  endfacet
  facet normal 0.923879 -0.382684 0
    outer loop
      vertex 19.9722 -6.48936 0
      vertex 18.7111 -9.5338 20
      vertex 18.7111 -9.5338 0
    endloop
  endfacet
  facet normal 0.85264 -0.522498 0
    outer loop
      vertex 16.9894 -12.3435 20
      vertex 18.7111 -9.5338 0
      vertex 18.7111 -9.5338 20
    endloop
  endfacet
  facet normal 0.85264 -0.522498 0
    outer loop
      vertex 18.7111 -9.5338 0
      vertex 16.9894 -12.3435 20
      vertex 16.9894 -12.3435 0
    endloop
  endfacet
  facet normal -1 0 0
    outer loop
      vertex 1.5 -21 0
      vertex 1.5 -23.4 10
      vertex 1.5 -21 20
    endloop
  endfacet
  facet normal -1 0 0
    outer loop
      vertex 1.5 -21 0
      vertex 1.5 -23.4259 9.67149
      vertex 1.5 -23.4 10
    endloop
  endfacet
  facet normal -1 0 0
    outer loop
      vertex 1.5 -21 0
      vertex 1.5 -23.5028 9.35106
      vertex 1.5 -23.4259 9.67149
    endloop
  endfacet
  facet normal -1 0 0
    outer loop
      vertex 1.5 -21 0
      vertex 1.5 -23.6289 9.04662
      vertex 1.5 -23.5028 9.35106
    endloop
  endfacet
  facet normal -1 0 0
    outer loop
      vertex 1.5 -21 0
      vertex 1.5 -23.8011 8.76565
      vertex 1.5 -23.6289 9.04662
    endloop
  endfacet
  facet normal -1 0 0
    outer loop
      vertex 1.5 -21 0
      vertex 1.5 -24.0151 8.51508
      vertex 1.5 -23.8011 8.76565
    endloop
  endfacet
  facet normal -1 0 0
    outer loop
      vertex 1.5 -21 0
      vertex 1.5 -24.2657 8.30106
      vertex 1.5 -24.0151 8.51508
    endloop
  endfacet
  facet normal -1 0 0
    outer loop
      vertex 1.5 -21 0
      vertex 1.5 -24.5466 8.12889
      vertex 1.5 -24.2657 8.30106
    endloop
  endfacet
  facet normal -1 0 0
    outer loop
      vertex 1.5 -21 0
      vertex 1.5 -24.8511 8.00278
      vertex 1.5 -24.5466 8.12889
    endloop
  endfacet
  facet normal -1 0 0
    outer loop
      vertex 1.5 -21 0
      vertex 1.5 -25.1715 7.92585
      vertex 1.5 -24.8511 8.00278
    endloop
  endfacet
  facet normal -1 0 0
    outer loop
      vertex 1.5 -21 0
      vertex 1.5 -25.5 7.9
      vertex 1.5 -25.1715 7.92585
    endloop
  endfacet
  facet normal -1 0 0
    outer loop
      vertex 1.5 -30 0
      vertex 1.5 -25.5 7.9
      vertex 1.5 -21 0
    endloop
  endfacet
  facet normal -1 -0 0
    outer loop
      vertex 1.5 -25.5 7.9
      vertex 1.5 -30 0
      vertex 1.5 -25.8285 7.92585
    endloop
  endfacet
  facet normal -1 -0 0
    outer loop
      vertex 1.5 -25.8285 7.92585
      vertex 1.5 -30 0
      vertex 1.5 -26.1489 8.00278
    endloop
  endfacet
  facet normal -1 -0 0
    outer loop
      vertex 1.5 -26.1489 8.00278
      vertex 1.5 -30 0
      vertex 1.5 -26.4534 8.12889
    endloop
  endfacet
  facet normal -1 -0 0
    outer loop
      vertex 1.5 -26.4534 8.12889
      vertex 1.5 -30 0
      vertex 1.5 -26.7343 8.30106
    endloop
  endfacet
  facet normal -1 -0 0
    outer loop
      vertex 1.5 -26.7343 8.30106
      vertex 1.5 -30 0
      vertex 1.5 -26.9849 8.51508
    endloop
  endfacet
  facet normal -1 -0 0
    outer loop
      vertex 1.5 -27.5741 9.67149
      vertex 1.5 -30 0
      vertex 1.5 -27.6 10
    endloop
  endfacet
  facet normal -1 -0 0
    outer loop
      vertex 1.5 -27.4972 9.35106
      vertex 1.5 -30 0
      vertex 1.5 -27.5741 9.67149
    endloop
  endfacet
  facet normal -1 -0 0
    outer loop
      vertex 1.5 -27.3711 9.04662
      vertex 1.5 -30 0
      vertex 1.5 -27.4972 9.35106
    endloop
  endfacet
  facet normal -1 -0 0
    outer loop
      vertex 1.5 -27.1989 8.76565
      vertex 1.5 -30 0
      vertex 1.5 -27.3711 9.04662
    endloop
  endfacet
  facet normal -1 -0 0
    outer loop
      vertex 1.5 -26.9849 8.51508
      vertex 1.5 -30 0
      vertex 1.5 -27.1989 8.76565
    endloop
  endfacet
  facet normal -1 0 0
    outer loop
      vertex 1.5 -23.4259 10.3285
      vertex 1.5 -21 20
      vertex 1.5 -23.4 10
    endloop
  endfacet
  facet normal -1 0 0
    outer loop
      vertex 1.5 -23.5028 10.6489
      vertex 1.5 -21 20
      vertex 1.5 -23.4259 10.3285
    endloop
  endfacet
  facet normal -1 0 0
    outer loop
      vertex 1.5 -23.6289 10.9534
      vertex 1.5 -21 20
      vertex 1.5 -23.5028 10.6489
    endloop
  endfacet
  facet normal -1 0 0
    outer loop
      vertex 1.5 -23.8011 11.2343
      vertex 1.5 -21 20
      vertex 1.5 -23.6289 10.9534
    endloop
  endfacet
  facet normal -1 0 0
    outer loop
      vertex 1.5 -24.0151 11.4849
      vertex 1.5 -21 20
      vertex 1.5 -23.8011 11.2343
    endloop
  endfacet
  facet normal -1 0 0
    outer loop
      vertex 1.5 -24.2657 11.6989
      vertex 1.5 -21 20
      vertex 1.5 -24.0151 11.4849
    endloop
  endfacet
  facet normal -1 0 0
    outer loop
      vertex 1.5 -24.5466 11.8711
      vertex 1.5 -21 20
      vertex 1.5 -24.2657 11.6989
    endloop
  endfacet
  facet normal -1 0 0
    outer loop
      vertex 1.5 -24.8511 11.9972
      vertex 1.5 -21 20
      vertex 1.5 -24.5466 11.8711
    endloop
  endfacet
  facet normal -1 0 0
    outer loop
      vertex 1.5 -25.1715 12.0741
      vertex 1.5 -21 20
      vertex 1.5 -24.8511 11.9972
    endloop
  endfacet
  facet normal -1 0 0
    outer loop
      vertex 1.5 -25.5 12.1
      vertex 1.5 -21 20
      vertex 1.5 -25.1715 12.0741
    endloop
  endfacet
  facet normal -1 0 0
    outer loop
      vertex 1.5 -30 20
      vertex 1.5 -25.5 12.1
      vertex 1.5 -25.8285 12.0741
    endloop
  endfacet
  facet normal -1 0 0
    outer loop
      vertex 1.5 -30 20
      vertex 1.5 -25.8285 12.0741
      vertex 1.5 -26.1489 11.9972
    endloop
  endfacet
  facet normal -1 0 0
    outer loop
      vertex 1.5 -30 20
      vertex 1.5 -26.1489 11.9972
      vertex 1.5 -26.4534 11.8711
    endloop
  endfacet
  facet normal -1 0 0
    outer loop
      vertex 1.5 -30 20
      vertex 1.5 -26.4534 11.8711
      vertex 1.5 -26.7343 11.6989
    endloop
  endfacet
  facet normal -1 0 0
    outer loop
      vertex 1.5 -30 20
      vertex 1.5 -26.7343 11.6989
      vertex 1.5 -26.9849 11.4849
    endloop
  endfacet
  facet normal -1 0 0
    outer loop
      vertex 1.5 -30 20
      vertex 1.5 -26.9849 11.4849
      vertex 1.5 -27.1989 11.2343
    endloop
  endfacet
  facet normal -1 0 0
    outer loop
      vertex 1.5 -30 20
      vertex 1.5 -27.6 10
      vertex 1.5 -30 0
    endloop
  endfacet
  facet normal -1 0 0
    outer loop
      vertex 1.5 -25.5 12.1
      vertex 1.5 -30 20
      vertex 1.5 -21 20
    endloop
  endfacet
  facet normal -1 0 0
    outer loop
      vertex 1.5 -27.3711 10.9534
      vertex 1.5 -30 20
      vertex 1.5 -27.1989 11.2343
    endloop
  endfacet
  facet normal -1 0 0
    outer loop
      vertex 1.5 -27.4972 10.6489
      vertex 1.5 -30 20
      vertex 1.5 -27.3711 10.9534
    endloop
  endfacet
  facet normal -1 0 0
    outer loop
      vertex 1.5 -27.5741 10.3285
      vertex 1.5 -30 20
      vertex 1.5 -27.4972 10.6489
    endloop
  endfacet
  facet normal -1 0 0
    outer loop
      vertex 1.5 -27.6 10
      vertex 1.5 -30 20
      vertex 1.5 -27.5741 10.3285
    endloop
  endfacet
  facet normal -1 0 0
    outer loop
      vertex 1.5 30 0
      vertex 1.5 27.6 10
      vertex 1.5 30 20
    endloop
  endfacet
  facet normal -1 0 0
    outer loop
      vertex 1.5 30 0
      vertex 1.5 27.5741 9.67149
      vertex 1.5 27.6 10
    endloop
  endfacet
  facet normal -1 0 0
    outer loop
      vertex 1.5 30 0
      vertex 1.5 27.4972 9.35106
      vertex 1.5 27.5741 9.67149
    endloop
  endfacet
  facet normal -1 0 0
    outer loop
      vertex 1.5 30 0
      vertex 1.5 27.3711 9.04662
      vertex 1.5 27.4972 9.35106
    endloop
  endfacet
  facet normal -1 0 0
    outer loop
      vertex 1.5 30 0
      vertex 1.5 27.1989 8.76565
      vertex 1.5 27.3711 9.04662
    endloop
  endfacet
  facet normal -1 0 0
    outer loop
      vertex 1.5 30 0
      vertex 1.5 26.9849 8.51508
      vertex 1.5 27.1989 8.76565
    endloop
  endfacet
  facet normal -1 0 0
    outer loop
      vertex 1.5 30 0
      vertex 1.5 26.7343 8.30106
      vertex 1.5 26.9849 8.51508
    endloop
  endfacet
  facet normal -1 0 0
    outer loop
      vertex 1.5 30 0
      vertex 1.5 26.4534 8.12889
      vertex 1.5 26.7343 8.30106
    endloop
  endfacet
  facet normal -1 0 0
    outer loop
      vertex 1.5 30 0
      vertex 1.5 26.1489 8.00278
      vertex 1.5 26.4534 8.12889
    endloop
  endfacet
  facet normal -1 0 0
    outer loop
      vertex 1.5 30 0
      vertex 1.5 25.8285 7.92585
      vertex 1.5 26.1489 8.00278
    endloop
  endfacet
  facet normal -1 0 0
    outer loop
      vertex 1.5 30 0
      vertex 1.5 25.5 7.9
      vertex 1.5 25.8285 7.92585
    endloop
  endfacet
  facet normal -1 0 0
    outer loop
      vertex 1.5 21 0
      vertex 1.5 25.5 7.9
      vertex 1.5 30 0
    endloop
  endfacet
  facet normal -1 -0 0
    outer loop
      vertex 1.5 25.5 7.9
      vertex 1.5 21 0
      vertex 1.5 25.1715 7.92585
    endloop
  endfacet
  facet normal -1 -0 0
    outer loop
      vertex 1.5 25.1715 7.92585
      vertex 1.5 21 0
      vertex 1.5 24.8511 8.00278
    endloop
  endfacet
  facet normal -1 -0 0
    outer loop
      vertex 1.5 24.8511 8.00278
      vertex 1.5 21 0
      vertex 1.5 24.5466 8.12889
    endloop
  endfacet
  facet normal -1 -0 0
    outer loop
      vertex 1.5 24.5466 8.12889
      vertex 1.5 21 0
      vertex 1.5 24.2657 8.30106
    endloop
  endfacet
  facet normal -1 -0 0
    outer loop
      vertex 1.5 24.2657 8.30106
      vertex 1.5 21 0
      vertex 1.5 24.0151 8.51508
    endloop
  endfacet
  facet normal -1 -0 0
    outer loop
      vertex 1.5 23.4259 9.67149
      vertex 1.5 21 0
      vertex 1.5 23.4 10
    endloop
  endfacet
  facet normal -1 -0 0
    outer loop
      vertex 1.5 23.5028 9.35106
      vertex 1.5 21 0
      vertex 1.5 23.4259 9.67149
    endloop
  endfacet
  facet normal -1 -0 0
    outer loop
      vertex 1.5 23.6289 9.04662
      vertex 1.5 21 0
      vertex 1.5 23.5028 9.35106
    endloop
  endfacet
  facet normal -1 -0 0
    outer loop
      vertex 1.5 23.8011 8.76565
      vertex 1.5 21 0
      vertex 1.5 23.6289 9.04662
    endloop
  endfacet
  facet normal -1 -0 0
    outer loop
      vertex 1.5 24.0151 8.51508
      vertex 1.5 21 0
      vertex 1.5 23.8011 8.76565
    endloop
  endfacet
  facet normal -1 0 0
    outer loop
      vertex 1.5 27.5741 10.3285
      vertex 1.5 30 20
      vertex 1.5 27.6 10
    endloop
  endfacet
  facet normal -1 0 0
    outer loop
      vertex 1.5 27.4972 10.6489
      vertex 1.5 30 20
      vertex 1.5 27.5741 10.3285
    endloop
  endfacet
  facet normal -1 0 0
    outer loop
      vertex 1.5 27.3711 10.9534
      vertex 1.5 30 20
      vertex 1.5 27.4972 10.6489
    endloop
  endfacet
  facet normal -1 0 0
    outer loop
      vertex 1.5 27.1989 11.2343
      vertex 1.5 30 20
      vertex 1.5 27.3711 10.9534
    endloop
  endfacet
  facet normal -1 0 0
    outer loop
      vertex 1.5 26.9849 11.4849
      vertex 1.5 30 20
      vertex 1.5 27.1989 11.2343
    endloop
  endfacet
  facet normal -1 0 0
    outer loop
      vertex 1.5 26.7343 11.6989
      vertex 1.5 30 20
      vertex 1.5 26.9849 11.4849
    endloop
  endfacet
  facet normal -1 0 0
    outer loop
      vertex 1.5 26.4534 11.8711
      vertex 1.5 30 20
      vertex 1.5 26.7343 11.6989
    endloop
  endfacet
  facet normal -1 0 0
    outer loop
      vertex 1.5 26.1489 11.9972
      vertex 1.5 30 20
      vertex 1.5 26.4534 11.8711
    endloop
  endfacet
  facet normal -1 0 0
    outer loop
      vertex 1.5 25.8285 12.0741
      vertex 1.5 30 20
      vertex 1.5 26.1489 11.9972
    endloop
  endfacet
  facet normal -1 0 0
    outer loop
      vertex 1.5 25.5 12.1
      vertex 1.5 30 20
      vertex 1.5 25.8285 12.0741
    endloop
  endfacet
  facet normal -1 0 0
    outer loop
      vertex 1.5 21 20
      vertex 1.5 25.5 12.1
      vertex 1.5 25.1715 12.0741
    endloop
  endfacet
  facet normal -1 0 0
    outer loop
      vertex 1.5 21 20
      vertex 1.5 25.1715 12.0741
      vertex 1.5 24.8511 11.9972
    endloop
  endfacet
  facet normal -1 0 0
    outer loop
      vertex 1.5 21 20
      vertex 1.5 24.8511 11.9972
      vertex 1.5 24.5466 11.8711
    endloop
  endfacet
  facet normal -1 0 0
    outer loop
      vertex 1.5 21 20
      vertex 1.5 24.5466 11.8711
      vertex 1.5 24.2657 11.6989
    endloop
  endfacet
  facet normal -1 0 0
    outer loop
      vertex 1.5 21 20
      vertex 1.5 24.2657 11.6989
      vertex 1.5 24.0151 11.4849
    endloop
  endfacet
  facet normal -1 0 0
    outer loop
      vertex 1.5 21 20
      vertex 1.5 24.0151 11.4849
      vertex 1.5 23.8011 11.2343
    endloop
  endfacet
  facet normal -1 0 0
    outer loop
      vertex 1.5 21 20
      vertex 1.5 23.4 10
      vertex 1.5 21 0
    endloop
  endfacet
  facet normal -1 0 0
    outer loop
      vertex 1.5 25.5 12.1
      vertex 1.5 21 20
      vertex 1.5 30 20
    endloop
  endfacet
  facet normal -1 0 0
    outer loop
      vertex 1.5 23.6289 10.9534
      vertex 1.5 21 20
      vertex 1.5 23.8011 11.2343
    endloop
  endfacet
  facet normal -1 0 0
    outer loop
      vertex 1.5 23.5028 10.6489
      vertex 1.5 21 20
      vertex 1.5 23.6289 10.9534
    endloop
  endfacet
  facet normal -1 0 0
    outer loop
      vertex 1.5 23.4259 10.3285
      vertex 1.5 21 20
      vertex 1.5 23.5028 10.6489
    endloop
  endfacet
  facet normal -1 0 0
    outer loop
      vertex 1.5 23.4 10
      vertex 1.5 21 20
      vertex 1.5 23.4259 10.3285
    endloop
  endfacet
  facet normal -1 0 0
    outer loop
      vertex 1.5 15.8819 0
      vertex 1.5 21 20
      vertex 1.5 21 0
    endloop
  endfacet
  facet normal -1 -0 0
    outer loop
      vertex 1.5 21 20
      vertex 1.5 15.8819 0
      vertex 1.5 15.8819 20
    endloop
  endfacet
  facet normal -1 0 0
    outer loop
      vertex 1.5 -21 0
      vertex 1.5 -15.8819 20
      vertex 1.5 -15.8819 0
    endloop
  endfacet
  facet normal -1 -0 0
    outer loop
      vertex 1.5 -15.8819 20
      vertex 1.5 -21 0
      vertex 1.5 -21 20
    endloop
  endfacet
  facet normal 1 0 0
    outer loop
      vertex 6.5 -19.9678 20
      vertex 6.5 -21.473 12.325
      vertex 6.5 -19.9678 0
    endloop
  endfacet
  facet normal 1 0 0
    outer loop
      vertex 6.5 -19.9678 20
      vertex 6.5 -25.5 14.65
      vertex 6.5 -21.473 12.325
    endloop
  endfacet
  facet normal 1 -0 0
    outer loop
      vertex 6.5 -30 20
      vertex 6.5 -25.5 14.65
      vertex 6.5 -19.9678 20
    endloop
  endfacet
  facet normal 1 0 0
    outer loop
      vertex 6.5 -29.527 12.325
      vertex 6.5 -30 20
      vertex 6.5 -29.527 7.675
    endloop
  endfacet
  facet normal 1 0 0
    outer loop
      vertex 6.5 -25.5 14.65
      vertex 6.5 -30 20
      vertex 6.5 -29.527 12.325
    endloop
  endfacet
  facet normal 1 -0 0
    outer loop
      vertex 6.5 -21.473 7.675
      vertex 6.5 -19.9678 0
      vertex 6.5 -21.473 12.325
    endloop
  endfacet
  facet normal 1 -0 0
    outer loop
      vertex 6.5 -25.5 5.35
      vertex 6.5 -19.9678 0
      vertex 6.5 -21.473 7.675
    endloop
  endfacet
  facet normal 1 0 0
    outer loop
      vertex 6.5 -30 0
      vertex 6.5 -25.5 5.35
      vertex 6.5 -29.527 7.675
    endloop
  endfacet
  facet normal 1 0 0
    outer loop
      vertex 6.5 -25.5 5.35
      vertex 6.5 -30 0
      vertex 6.5 -19.9678 0
    endloop
  endfacet
  facet normal 1 0 0
    outer loop
      vertex 6.5 -30 0
      vertex 6.5 -29.527 7.675
      vertex 6.5 -30 20
    endloop
  endfacet
  facet normal 1 0 0
    outer loop
      vertex 6.5 30 20
      vertex 6.5 29.527 12.325
      vertex 6.5 30 0
    endloop
  endfacet
  facet normal 1 0 0
    outer loop
      vertex 6.5 30 20
      vertex 6.5 25.5 14.65
      vertex 6.5 29.527 12.325
    endloop
  endfacet
  facet normal 1 -0 0
    outer loop
      vertex 6.5 19.9678 20
      vertex 6.5 25.5 14.65
      vertex 6.5 30 20
    endloop
  endfacet
  facet normal 1 0 0
    outer loop
      vertex 6.5 21.473 12.325
      vertex 6.5 19.9678 20
      vertex 6.5 21.473 7.675
    endloop
  endfacet
  facet normal 1 0 0
    outer loop
      vertex 6.5 25.5 14.65
      vertex 6.5 19.9678 20
      vertex 6.5 21.473 12.325
    endloop
  endfacet
  facet normal 1 -0 0
    outer loop
      vertex 6.5 29.527 7.675
      vertex 6.5 30 0
      vertex 6.5 29.527 12.325
    endloop
  endfacet
  facet normal 1 -0 0
    outer loop
      vertex 6.5 25.5 5.35
      vertex 6.5 30 0
      vertex 6.5 29.527 7.675
    endloop
  endfacet
  facet normal 1 0 0
    outer loop
      vertex 6.5 19.9678 0
      vertex 6.5 25.5 5.35
      vertex 6.5 21.473 7.675
    endloop
  endfacet
  facet normal 1 0 0
    outer loop
      vertex 6.5 25.5 5.35
      vertex 6.5 19.9678 0
      vertex 6.5 30 0
    endloop
  endfacet
  facet normal 1 0 0
    outer loop
      vertex 6.5 19.9678 0
      vertex 6.5 21.473 7.675
      vertex 6.5 19.9678 20
    endloop
  endfacet
  facet normal 0 1 -0
    outer loop
      vertex 6.5 30 0
      vertex 1.5 30 20
      vertex 6.5 30 20
    endloop
  endfacet
  facet normal 0 1 0
    outer loop
      vertex 1.5 30 20
      vertex 6.5 30 0
      vertex 1.5 30 0
    endloop
  endfacet
  facet normal 0 -1 0
    outer loop
      vertex 1.5 -30 0
      vertex 6.5 -30 20
      vertex 1.5 -30 20
    endloop
  endfacet
  facet normal 0 -1 -0
    outer loop
      vertex 6.5 -30 20
      vertex 1.5 -30 0
      vertex 6.5 -30 0
    endloop
  endfacet
  facet normal -0.649448 -0.760406 0
    outer loop
      vertex 9.40456 12.9443 0
      vertex 11.3137 11.3137 20
      vertex 9.40456 12.9443 20
    endloop
  endfacet
  facet normal -0.649448 -0.760406 -0
    outer loop
      vertex 11.3137 11.3137 20
      vertex 9.40456 12.9443 0
      vertex 11.3137 11.3137 0
    endloop
  endfacet
  facet normal -0.92388 -0.382684 0
    outer loop
      vertex 15.2169 4.94427 0
      vertex 14.2561 7.26385 20
      vertex 14.2561 7.26385 0
    endloop
  endfacet
  facet normal -0.92388 -0.382684 0
    outer loop
      vertex 14.2561 7.26385 20
      vertex 15.2169 4.94427 0
      vertex 15.2169 4.94427 20
    endloop
  endfacet
  facet normal -0.85264 -0.522498 0
    outer loop
      vertex 14.2561 7.26385 0
      vertex 12.9443 9.40456 20
      vertex 12.9443 9.40456 0
    endloop
  endfacet
  facet normal -0.85264 -0.522498 0
    outer loop
      vertex 12.9443 9.40456 20
      vertex 14.2561 7.26385 0
      vertex 14.2561 7.26385 20
    endloop
  endfacet
  facet normal -0.760406 -0.649448 0
    outer loop
      vertex 12.9443 9.40456 0
      vertex 11.3137 11.3137 20
      vertex 11.3137 11.3137 0
    endloop
  endfacet
  facet normal -0.760406 -0.649448 0
    outer loop
      vertex 11.3137 11.3137 20
      vertex 12.9443 9.40456 0
      vertex 12.9443 9.40456 20
    endloop
  endfacet
  facet normal -0.382684 -0.92388 0
    outer loop
      vertex 4.94427 15.2169 0
      vertex 7.26385 14.2561 20
      vertex 4.94427 15.2169 20
    endloop
  endfacet
  facet normal -0.382684 -0.92388 -0
    outer loop
      vertex 7.26385 14.2561 20
      vertex 4.94427 15.2169 0
      vertex 7.26385 14.2561 0
    endloop
  endfacet
  facet normal -0.0784598 -0.996917 0
    outer loop
      vertex 1.5 15.8819 0
      vertex 2.50295 15.803 20
      vertex 1.5 15.8819 20
    endloop
  endfacet
  facet normal -0.0784598 -0.996917 -0
    outer loop
      vertex 2.50295 15.803 20
      vertex 1.5 15.8819 0
      vertex 2.50295 15.803 0
    endloop
  endfacet
  facet normal -0.996917 -0.0784594 0
    outer loop
      vertex 16 0 0
      vertex 15.803 2.50295 20
      vertex 15.803 2.50295 0
    endloop
  endfacet
  facet normal -0.996917 -0.0784594 0
    outer loop
      vertex 15.803 2.50295 20
      vertex 16 0 0
      vertex 16 0 20
    endloop
  endfacet
  facet normal -0.0784598 0.996917 0
    outer loop
      vertex 2.50295 -15.803 0
      vertex 1.5 -15.8819 20
      vertex 2.50295 -15.803 20
    endloop
  endfacet
  facet normal -0.0784598 0.996917 0
    outer loop
      vertex 1.5 -15.8819 20
      vertex 2.50295 -15.803 0
      vertex 1.5 -15.8819 0
    endloop
  endfacet
  facet normal -0.233445 0.97237 0
    outer loop
      vertex 4.94427 -15.2169 0
      vertex 2.50295 -15.803 20
      vertex 4.94427 -15.2169 20
    endloop
  endfacet
  facet normal -0.233445 0.97237 0
    outer loop
      vertex 2.50295 -15.803 20
      vertex 4.94427 -15.2169 0
      vertex 2.50295 -15.803 0
    endloop
  endfacet
  facet normal -0.760406 0.649448 0
    outer loop
      vertex 11.3137 -11.3137 0
      vertex 12.9443 -9.40456 20
      vertex 12.9443 -9.40456 0
    endloop
  endfacet
  facet normal -0.760406 0.649448 0
    outer loop
      vertex 12.9443 -9.40456 20
      vertex 11.3137 -11.3137 0
      vertex 11.3137 -11.3137 20
    endloop
  endfacet
  facet normal -0.97237 -0.233445 0
    outer loop
      vertex 15.803 2.50295 0
      vertex 15.2169 4.94427 20
      vertex 15.2169 4.94427 0
    endloop
  endfacet
  facet normal -0.97237 -0.233445 0
    outer loop
      vertex 15.2169 4.94427 20
      vertex 15.803 2.50295 0
      vertex 15.803 2.50295 20
    endloop
  endfacet
  facet normal -0.522498 -0.85264 0
    outer loop
      vertex 7.26385 14.2561 0
      vertex 9.40456 12.9443 20
      vertex 7.26385 14.2561 20
    endloop
  endfacet
  facet normal -0.522498 -0.85264 -0
    outer loop
      vertex 9.40456 12.9443 20
      vertex 7.26385 14.2561 0
      vertex 9.40456 12.9443 0
    endloop
  endfacet
  facet normal -0.233445 -0.97237 0
    outer loop
      vertex 2.50295 15.803 0
      vertex 4.94427 15.2169 20
      vertex 2.50295 15.803 20
    endloop
  endfacet
  facet normal -0.233445 -0.97237 -0
    outer loop
      vertex 4.94427 15.2169 20
      vertex 2.50295 15.803 0
      vertex 4.94427 15.2169 0
    endloop
  endfacet
  facet normal -0.97237 0.233445 0
    outer loop
      vertex 15.2169 -4.94427 0
      vertex 15.803 -2.50295 20
      vertex 15.803 -2.50295 0
    endloop
  endfacet
  facet normal -0.97237 0.233445 0
    outer loop
      vertex 15.803 -2.50295 20
      vertex 15.2169 -4.94427 0
      vertex 15.2169 -4.94427 20
    endloop
  endfacet
  facet normal -0.649448 0.760406 0
    outer loop
      vertex 11.3137 -11.3137 0
      vertex 9.40456 -12.9443 20
      vertex 11.3137 -11.3137 20
    endloop
  endfacet
  facet normal -0.649448 0.760406 0
    outer loop
      vertex 9.40456 -12.9443 20
      vertex 11.3137 -11.3137 0
      vertex 9.40456 -12.9443 0
    endloop
  endfacet
  facet normal -0.382684 0.92388 0
    outer loop
      vertex 7.26385 -14.2561 0
      vertex 4.94427 -15.2169 20
      vertex 7.26385 -14.2561 20
    endloop
  endfacet
  facet normal -0.382684 0.92388 0
    outer loop
      vertex 4.94427 -15.2169 20
      vertex 7.26385 -14.2561 0
      vertex 4.94427 -15.2169 0
    endloop
  endfacet
  facet normal -0.85264 0.522498 0
    outer loop
      vertex 12.9443 -9.40456 0
      vertex 14.2561 -7.26385 20
      vertex 14.2561 -7.26385 0
    endloop
  endfacet
  facet normal -0.85264 0.522498 0
    outer loop
      vertex 14.2561 -7.26385 20
      vertex 12.9443 -9.40456 0
      vertex 12.9443 -9.40456 20
    endloop
  endfacet
  facet normal -0.996917 0.0784594 0
    outer loop
      vertex 15.803 -2.50295 0
      vertex 16 0 20
      vertex 16 0 0
    endloop
  endfacet
  facet normal -0.996917 0.0784594 0
    outer loop
      vertex 16 0 20
      vertex 15.803 -2.50295 0
      vertex 15.803 -2.50295 20
    endloop
  endfacet
  facet normal -0.522498 0.85264 0
    outer loop
      vertex 9.40456 -12.9443 0
      vertex 7.26385 -14.2561 20
      vertex 9.40456 -12.9443 20
    endloop
  endfacet
  facet normal -0.522498 0.85264 0
    outer loop
      vertex 7.26385 -14.2561 20
      vertex 9.40456 -12.9443 0
      vertex 7.26385 -14.2561 0
    endloop
  endfacet
  facet normal -0.92388 0.382684 0
    outer loop
      vertex 14.2561 -7.26385 0
      vertex 15.2169 -4.94427 20
      vertex 15.2169 -4.94427 0
    endloop
  endfacet
  facet normal -0.92388 0.382684 0
    outer loop
      vertex 15.2169 -4.94427 20
      vertex 14.2561 -7.26385 0
      vertex 14.2561 -7.26385 20
    endloop
  endfacet
  facet normal 0 0.852642 0.522495
    outer loop
      vertex 3.5 23.8011 8.76565
      vertex 1.5 23.6289 9.04662
      vertex 3.5 23.6289 9.04662
    endloop
  endfacet
  facet normal 0 0.852642 0.522495
    outer loop
      vertex 1.5 23.6289 9.04662
      vertex 3.5 23.8011 8.76565
      vertex 1.5 23.8011 8.76565
    endloop
  endfacet
  facet normal 0 -0.996918 0.0784523
    outer loop
      vertex 1.5 27.5741 9.67149
      vertex 3.5 27.6 10
      vertex 1.5 27.6 10
    endloop
  endfacet
  facet normal 0 -0.996918 0.0784523
    outer loop
      vertex 3.5 27.6 10
      vertex 1.5 27.5741 9.67149
      vertex 3.5 27.5741 9.67149
    endloop
  endfacet
  facet normal -0 0.649448 0.760406
    outer loop
      vertex 1.5 24.2657 8.30106
      vertex 3.5 24.0151 8.51508
      vertex 3.5 24.2657 8.30106
    endloop
  endfacet
  facet normal 0 0.649448 0.760406
    outer loop
      vertex 3.5 24.0151 8.51508
      vertex 1.5 24.2657 8.30106
      vertex 1.5 24.0151 8.51508
    endloop
  endfacet
  facet normal 0 -0.97237 -0.233447
    outer loop
      vertex 1.5 27.5741 10.3285
      vertex 3.5 27.4972 10.6489
      vertex 1.5 27.4972 10.6489
    endloop
  endfacet
  facet normal 0 -0.97237 -0.233447
    outer loop
      vertex 3.5 27.4972 10.6489
      vertex 1.5 27.5741 10.3285
      vertex 3.5 27.5741 10.3285
    endloop
  endfacet
  facet normal 0 0.996917 0.078458
    outer loop
      vertex 3.5 23.4259 9.67149
      vertex 1.5 23.4 10
      vertex 3.5 23.4 10
    endloop
  endfacet
  facet normal 0 0.996917 0.078458
    outer loop
      vertex 1.5 23.4 10
      vertex 3.5 23.4259 9.67149
      vertex 1.5 23.4259 9.67149
    endloop
  endfacet
  facet normal -0 0.0784576 0.996917
    outer loop
      vertex 1.5 25.5 7.9
      vertex 3.5 25.1715 7.92585
      vertex 3.5 25.5 7.9
    endloop
  endfacet
  facet normal 0 0.0784576 0.996917
    outer loop
      vertex 3.5 25.1715 7.92585
      vertex 1.5 25.5 7.9
      vertex 1.5 25.1715 7.92585
    endloop
  endfacet
  facet normal 0 0.852642 -0.522495
    outer loop
      vertex 3.5 23.6289 10.9534
      vertex 1.5 23.8011 11.2343
      vertex 3.5 23.8011 11.2343
    endloop
  endfacet
  facet normal 0 0.852642 -0.522495
    outer loop
      vertex 1.5 23.8011 11.2343
      vertex 3.5 23.6289 10.9534
      vertex 1.5 23.6289 10.9534
    endloop
  endfacet
  facet normal 0 0.522499 -0.85264
    outer loop
      vertex 1.5 24.2657 11.6989
      vertex 3.5 24.5466 11.8711
      vertex 3.5 24.2657 11.6989
    endloop
  endfacet
  facet normal 0 0.522499 -0.85264
    outer loop
      vertex 3.5 24.5466 11.8711
      vertex 1.5 24.2657 11.6989
      vertex 1.5 24.5466 11.8711
    endloop
  endfacet
  facet normal 0 -0.233447 -0.97237
    outer loop
      vertex 1.5 25.8285 12.0741
      vertex 3.5 26.1489 11.9972
      vertex 3.5 25.8285 12.0741
    endloop
  endfacet
  facet normal -0 -0.233447 -0.97237
    outer loop
      vertex 3.5 26.1489 11.9972
      vertex 1.5 25.8285 12.0741
      vertex 1.5 26.1489 11.9972
    endloop
  endfacet
  facet normal 0 -0.233447 0.97237
    outer loop
      vertex 1.5 26.1489 8.00278
      vertex 3.5 25.8285 7.92585
      vertex 3.5 26.1489 8.00278
    endloop
  endfacet
  facet normal 0 -0.233447 0.97237
    outer loop
      vertex 3.5 25.8285 7.92585
      vertex 1.5 26.1489 8.00278
      vertex 1.5 25.8285 7.92585
    endloop
  endfacet
  facet normal 0 -0.852642 0.522495
    outer loop
      vertex 1.5 27.1989 8.76565
      vertex 3.5 27.3711 9.04662
      vertex 1.5 27.3711 9.04662
    endloop
  endfacet
  facet normal 0 -0.852642 0.522495
    outer loop
      vertex 3.5 27.3711 9.04662
      vertex 1.5 27.1989 8.76565
      vertex 3.5 27.1989 8.76565
    endloop
  endfacet
  facet normal 0 -0.649448 0.760406
    outer loop
      vertex 1.5 26.9849 8.51508
      vertex 3.5 26.7343 8.30106
      vertex 3.5 26.9849 8.51508
    endloop
  endfacet
  facet normal 0 -0.649448 0.760406
    outer loop
      vertex 3.5 26.7343 8.30106
      vertex 1.5 26.9849 8.51508
      vertex 1.5 26.7343 8.30106
    endloop
  endfacet
  facet normal 0 -0.078458 0.996917
    outer loop
      vertex 1.5 25.8285 7.92585
      vertex 3.5 25.5 7.9
      vertex 3.5 25.8285 7.92585
    endloop
  endfacet
  facet normal 0 -0.078458 0.996917
    outer loop
      vertex 3.5 25.5 7.9
      vertex 1.5 25.8285 7.92585
      vertex 1.5 25.5 7.9
    endloop
  endfacet
  facet normal -0 0.522499 0.85264
    outer loop
      vertex 1.5 24.5466 8.12889
      vertex 3.5 24.2657 8.30106
      vertex 3.5 24.5466 8.12889
    endloop
  endfacet
  facet normal 0 0.522499 0.85264
    outer loop
      vertex 3.5 24.2657 8.30106
      vertex 1.5 24.5466 8.12889
      vertex 1.5 24.2657 8.30106
    endloop
  endfacet
  facet normal -0 0.233447 0.97237
    outer loop
      vertex 1.5 25.1715 7.92585
      vertex 3.5 24.8511 8.00278
      vertex 3.5 25.1715 7.92585
    endloop
  endfacet
  facet normal 0 0.233447 0.97237
    outer loop
      vertex 3.5 24.8511 8.00278
      vertex 1.5 25.1715 7.92585
      vertex 1.5 24.8511 8.00278
    endloop
  endfacet
  facet normal 0 0.97237 0.233447
    outer loop
      vertex 3.5 23.5028 9.35106
      vertex 1.5 23.4259 9.67149
      vertex 3.5 23.4259 9.67149
    endloop
  endfacet
  facet normal 0 0.97237 0.233447
    outer loop
      vertex 1.5 23.4259 9.67149
      vertex 3.5 23.5028 9.35106
      vertex 1.5 23.5028 9.35106
    endloop
  endfacet
  facet normal 0 0.649448 -0.760406
    outer loop
      vertex 1.5 24.0151 11.4849
      vertex 3.5 24.2657 11.6989
      vertex 3.5 24.0151 11.4849
    endloop
  endfacet
  facet normal 0 0.649448 -0.760406
    outer loop
      vertex 3.5 24.2657 11.6989
      vertex 1.5 24.0151 11.4849
      vertex 1.5 24.2657 11.6989
    endloop
  endfacet
  facet normal 0 0.233447 -0.97237
    outer loop
      vertex 1.5 24.8511 11.9972
      vertex 3.5 25.1715 12.0741
      vertex 3.5 24.8511 11.9972
    endloop
  endfacet
  facet normal 0 0.233447 -0.97237
    outer loop
      vertex 3.5 25.1715 12.0741
      vertex 1.5 24.8511 11.9972
      vertex 1.5 25.1715 12.0741
    endloop
  endfacet
  facet normal 0 0.760405 -0.649449
    outer loop
      vertex 3.5 23.8011 11.2343
      vertex 1.5 24.0151 11.4849
      vertex 3.5 24.0151 11.4849
    endloop
  endfacet
  facet normal 0 0.760405 -0.649449
    outer loop
      vertex 1.5 24.0151 11.4849
      vertex 3.5 23.8011 11.2343
      vertex 1.5 23.8011 11.2343
    endloop
  endfacet
  facet normal 0 0.0784576 -0.996917
    outer loop
      vertex 1.5 25.1715 12.0741
      vertex 3.5 25.5 12.1
      vertex 3.5 25.1715 12.0741
    endloop
  endfacet
  facet normal 0 0.0784576 -0.996917
    outer loop
      vertex 3.5 25.5 12.1
      vertex 1.5 25.1715 12.0741
      vertex 1.5 25.5 12.1
    endloop
  endfacet
  facet normal 0 -0.522499 -0.85264
    outer loop
      vertex 1.5 26.4534 11.8711
      vertex 3.5 26.7343 11.6989
      vertex 3.5 26.4534 11.8711
    endloop
  endfacet
  facet normal -0 -0.522499 -0.85264
    outer loop
      vertex 3.5 26.7343 11.6989
      vertex 1.5 26.4534 11.8711
      vertex 1.5 26.7343 11.6989
    endloop
  endfacet
  facet normal 0 -0.382683 0.92388
    outer loop
      vertex 1.5 26.4534 8.12889
      vertex 3.5 26.1489 8.00278
      vertex 3.5 26.4534 8.12889
    endloop
  endfacet
  facet normal 0 -0.382683 0.92388
    outer loop
      vertex 3.5 26.1489 8.00278
      vertex 1.5 26.4534 8.12889
      vertex 1.5 26.1489 8.00278
    endloop
  endfacet
  facet normal 0 -0.996918 -0.0784523
    outer loop
      vertex 1.5 27.6 10
      vertex 3.5 27.5741 10.3285
      vertex 1.5 27.5741 10.3285
    endloop
  endfacet
  facet normal 0 -0.996918 -0.0784523
    outer loop
      vertex 3.5 27.5741 10.3285
      vertex 1.5 27.6 10
      vertex 3.5 27.6 10
    endloop
  endfacet
  facet normal 0 0.760405 0.649449
    outer loop
      vertex 3.5 24.0151 8.51508
      vertex 1.5 23.8011 8.76565
      vertex 3.5 23.8011 8.76565
    endloop
  endfacet
  facet normal 0 0.760405 0.649449
    outer loop
      vertex 1.5 23.8011 8.76565
      vertex 3.5 24.0151 8.51508
      vertex 1.5 24.0151 8.51508
    endloop
  endfacet
  facet normal 0 0.923878 -0.382687
    outer loop
      vertex 3.5 23.5028 10.6489
      vertex 1.5 23.6289 10.9534
      vertex 3.5 23.6289 10.9534
    endloop
  endfacet
  facet normal 0 0.923878 -0.382687
    outer loop
      vertex 1.5 23.6289 10.9534
      vertex 3.5 23.5028 10.6489
      vertex 1.5 23.5028 10.6489
    endloop
  endfacet
  facet normal -0 0.382685 0.923879
    outer loop
      vertex 1.5 24.8511 8.00278
      vertex 3.5 24.5466 8.12889
      vertex 3.5 24.8511 8.00278
    endloop
  endfacet
  facet normal 0 0.382685 0.923879
    outer loop
      vertex 3.5 24.5466 8.12889
      vertex 1.5 24.8511 8.00278
      vertex 1.5 24.5466 8.12889
    endloop
  endfacet
  facet normal 0 0.996917 -0.078458
    outer loop
      vertex 3.5 23.4 10
      vertex 1.5 23.4259 10.3285
      vertex 3.5 23.4259 10.3285
    endloop
  endfacet
  facet normal 0 0.996917 -0.078458
    outer loop
      vertex 1.5 23.4259 10.3285
      vertex 3.5 23.4 10
      vertex 1.5 23.4 10
    endloop
  endfacet
  facet normal 0 0.97237 -0.233447
    outer loop
      vertex 3.5 23.4259 10.3285
      vertex 1.5 23.5028 10.6489
      vertex 3.5 23.5028 10.6489
    endloop
  endfacet
  facet normal 0 0.97237 -0.233447
    outer loop
      vertex 1.5 23.5028 10.6489
      vertex 3.5 23.4259 10.3285
      vertex 1.5 23.4259 10.3285
    endloop
  endfacet
  facet normal 0 0.382685 -0.923879
    outer loop
      vertex 1.5 24.5466 11.8711
      vertex 3.5 24.8511 11.9972
      vertex 3.5 24.5466 11.8711
    endloop
  endfacet
  facet normal 0 0.382685 -0.923879
    outer loop
      vertex 3.5 24.8511 11.9972
      vertex 1.5 24.5466 11.8711
      vertex 1.5 24.8511 11.9972
    endloop
  endfacet
  facet normal 0 -0.078458 -0.996917
    outer loop
      vertex 1.5 25.5 12.1
      vertex 3.5 25.8285 12.0741
      vertex 3.5 25.5 12.1
    endloop
  endfacet
  facet normal -0 -0.078458 -0.996917
    outer loop
      vertex 3.5 25.8285 12.0741
      vertex 1.5 25.5 12.1
      vertex 1.5 25.8285 12.0741
    endloop
  endfacet
  facet normal 0 -0.382683 -0.92388
    outer loop
      vertex 1.5 26.1489 11.9972
      vertex 3.5 26.4534 11.8711
      vertex 3.5 26.1489 11.9972
    endloop
  endfacet
  facet normal -0 -0.382683 -0.92388
    outer loop
      vertex 3.5 26.4534 11.8711
      vertex 1.5 26.1489 11.9972
      vertex 1.5 26.4534 11.8711
    endloop
  endfacet
  facet normal 0 -0.97237 0.233447
    outer loop
      vertex 1.5 27.4972 9.35106
      vertex 3.5 27.5741 9.67149
      vertex 1.5 27.5741 9.67149
    endloop
  endfacet
  facet normal 0 -0.97237 0.233447
    outer loop
      vertex 3.5 27.5741 9.67149
      vertex 1.5 27.4972 9.35106
      vertex 3.5 27.4972 9.35106
    endloop
  endfacet
  facet normal 0 -0.760405 0.649449
    outer loop
      vertex 1.5 26.9849 8.51508
      vertex 3.5 27.1989 8.76565
      vertex 1.5 27.1989 8.76565
    endloop
  endfacet
  facet normal 0 -0.760405 0.649449
    outer loop
      vertex 3.5 27.1989 8.76565
      vertex 1.5 26.9849 8.51508
      vertex 3.5 26.9849 8.51508
    endloop
  endfacet
  facet normal 0 0.923878 0.382687
    outer loop
      vertex 3.5 23.6289 9.04662
      vertex 1.5 23.5028 9.35106
      vertex 3.5 23.5028 9.35106
    endloop
  endfacet
  facet normal 0 0.923878 0.382687
    outer loop
      vertex 1.5 23.5028 9.35106
      vertex 3.5 23.6289 9.04662
      vertex 1.5 23.6289 9.04662
    endloop
  endfacet
  facet normal 0 -0.852642 -0.522495
    outer loop
      vertex 1.5 27.3711 10.9534
      vertex 3.5 27.1989 11.2343
      vertex 1.5 27.1989 11.2343
    endloop
  endfacet
  facet normal 0 -0.852642 -0.522495
    outer loop
      vertex 3.5 27.1989 11.2343
      vertex 1.5 27.3711 10.9534
      vertex 3.5 27.3711 10.9534
    endloop
  endfacet
  facet normal 0 -0.649448 -0.760406
    outer loop
      vertex 1.5 26.7343 11.6989
      vertex 3.5 26.9849 11.4849
      vertex 3.5 26.7343 11.6989
    endloop
  endfacet
  facet normal -0 -0.649448 -0.760406
    outer loop
      vertex 3.5 26.9849 11.4849
      vertex 1.5 26.7343 11.6989
      vertex 1.5 26.9849 11.4849
    endloop
  endfacet
  facet normal 0 -0.760405 -0.649449
    outer loop
      vertex 1.5 27.1989 11.2343
      vertex 3.5 26.9849 11.4849
      vertex 1.5 26.9849 11.4849
    endloop
  endfacet
  facet normal 0 -0.760405 -0.649449
    outer loop
      vertex 3.5 26.9849 11.4849
      vertex 1.5 27.1989 11.2343
      vertex 3.5 27.1989 11.2343
    endloop
  endfacet
  facet normal 0 -0.923878 0.382687
    outer loop
      vertex 1.5 27.3711 9.04662
      vertex 3.5 27.4972 9.35106
      vertex 1.5 27.4972 9.35106
    endloop
  endfacet
  facet normal 0 -0.923878 0.382687
    outer loop
      vertex 3.5 27.4972 9.35106
      vertex 1.5 27.3711 9.04662
      vertex 3.5 27.3711 9.04662
    endloop
  endfacet
  facet normal 0 -0.522499 0.85264
    outer loop
      vertex 1.5 26.7343 8.30106
      vertex 3.5 26.4534 8.12889
      vertex 3.5 26.7343 8.30106
    endloop
  endfacet
  facet normal 0 -0.522499 0.85264
    outer loop
      vertex 3.5 26.4534 8.12889
      vertex 1.5 26.7343 8.30106
      vertex 1.5 26.4534 8.12889
    endloop
  endfacet
  facet normal 0 -0.923878 -0.382687
    outer loop
      vertex 1.5 27.4972 10.6489
      vertex 3.5 27.3711 10.9534
      vertex 1.5 27.3711 10.9534
    endloop
  endfacet
  facet normal 0 -0.923878 -0.382687
    outer loop
      vertex 3.5 27.3711 10.9534
      vertex 1.5 27.4972 10.6489
      vertex 3.5 27.4972 10.6489
    endloop
  endfacet
  facet normal 0 1 -0
    outer loop
      vertex 6.5 21.473 7.675
      vertex 3.5 21.473 12.325
      vertex 6.5 21.473 12.325
    endloop
  endfacet
  facet normal 0 1 0
    outer loop
      vertex 3.5 21.473 12.325
      vertex 6.5 21.473 7.675
      vertex 3.5 21.473 7.675
    endloop
  endfacet
  facet normal 0 -0.5 -0.866025
    outer loop
      vertex 3.5 25.5 14.65
      vertex 6.5 29.527 12.325
      vertex 6.5 25.5 14.65
    endloop
  endfacet
  facet normal -0 -0.5 -0.866025
    outer loop
      vertex 6.5 29.527 12.325
      vertex 3.5 25.5 14.65
      vertex 3.5 29.527 12.325
    endloop
  endfacet
  facet normal 0 -0.5 0.866025
    outer loop
      vertex 3.5 29.527 7.675
      vertex 6.5 25.5 5.35
      vertex 6.5 29.527 7.675
    endloop
  endfacet
  facet normal 0 -0.5 0.866025
    outer loop
      vertex 6.5 25.5 5.35
      vertex 3.5 29.527 7.675
      vertex 3.5 25.5 5.35
    endloop
  endfacet
  facet normal 0 0.5 -0.866025
    outer loop
      vertex 3.5 21.473 12.325
      vertex 6.5 25.5 14.65
      vertex 6.5 21.473 12.325
    endloop
  endfacet
  facet normal 0 0.5 -0.866025
    outer loop
      vertex 6.5 25.5 14.65
      vertex 3.5 21.473 12.325
      vertex 3.5 25.5 14.65
    endloop
  endfacet
  facet normal 1 0 0
    outer loop
      vertex 3.5 29.527 12.325
      vertex 3.5 25.5 14.65
      vertex 3.5 21.473 12.325
    endloop
  endfacet
  facet normal 1 -1.1841e-007 2.05091e-007
    outer loop
      vertex 3.5 25.5 5.35
      vertex 3.5 29.527 7.675
      vertex 3.5 29.527 12.325
    endloop
  endfacet
  facet normal 1 1.12995e-007 8.89215e-009
    outer loop
      vertex 3.5 29.527 12.325
      vertex 3.5 27.5741 10.3285
      vertex 3.5 27.6 10
    endloop
  endfacet
  facet normal 1 9.80264e-008 2.35342e-008
    outer loop
      vertex 3.5 29.527 12.325
      vertex 3.5 27.4972 10.6489
      vertex 3.5 27.5741 10.3285
    endloop
  endfacet
  facet normal 1 8.75234e-008 3.62538e-008
    outer loop
      vertex 3.5 29.527 12.325
      vertex 3.5 27.3711 10.9534
      vertex 3.5 27.4972 10.6489
    endloop
  endfacet
  facet normal 1 7.95676e-008 4.87587e-008
    outer loop
      vertex 3.5 29.527 12.325
      vertex 3.5 27.1989 11.2343
      vertex 3.5 27.3711 10.9534
    endloop
  endfacet
  facet normal 1 -2.45221e-007 7.42046e-007
    outer loop
      vertex 3.5 29.527 12.325
      vertex 3.5 26.9849 11.4849
      vertex 3.5 27.1989 11.2343
    endloop
  endfacet
  facet normal 1 0 0
    outer loop
      vertex 3.5 29.527 12.325
      vertex 3.5 26.7343 11.6989
      vertex 3.5 26.9849 11.4849
    endloop
  endfacet
  facet normal 1 0 0
    outer loop
      vertex 3.5 29.527 12.325
      vertex 3.5 26.4534 11.8711
      vertex 3.5 26.7343 11.6989
    endloop
  endfacet
  facet normal 1 0 0
    outer loop
      vertex 3.5 29.527 12.325
      vertex 3.5 26.1489 11.9972
      vertex 3.5 26.4534 11.8711
    endloop
  endfacet
  facet normal 1 0 0
    outer loop
      vertex 3.5 29.527 12.325
      vertex 3.5 25.8285 12.0741
      vertex 3.5 26.1489 11.9972
    endloop
  endfacet
  facet normal 1 0 0
    outer loop
      vertex 3.5 29.527 12.325
      vertex 3.5 25.5 12.1
      vertex 3.5 25.8285 12.0741
    endloop
  endfacet
  facet normal 1 -1.12995e-007 8.89275e-009
    outer loop
      vertex 3.5 23.4259 10.3285
      vertex 3.5 21.473 12.325
      vertex 3.5 23.4 10
    endloop
  endfacet
  facet normal 1 -9.80263e-008 2.35342e-008
    outer loop
      vertex 3.5 23.5028 10.6489
      vertex 3.5 21.473 12.325
      vertex 3.5 23.4259 10.3285
    endloop
  endfacet
  facet normal 1 -8.75234e-008 3.62537e-008
    outer loop
      vertex 3.5 23.6289 10.9534
      vertex 3.5 21.473 12.325
      vertex 3.5 23.5028 10.6489
    endloop
  endfacet
  facet normal 1 -7.95676e-008 4.87586e-008
    outer loop
      vertex 3.5 23.8011 11.2343
      vertex 3.5 21.473 12.325
      vertex 3.5 23.6289 10.9534
    endloop
  endfacet
  facet normal 1 2.45221e-007 7.42046e-007
    outer loop
      vertex 3.5 24.0151 11.4849
      vertex 3.5 21.473 12.325
      vertex 3.5 23.8011 11.2343
    endloop
  endfacet
  facet normal 1 0 0
    outer loop
      vertex 3.5 24.2657 11.6989
      vertex 3.5 21.473 12.325
      vertex 3.5 24.0151 11.4849
    endloop
  endfacet
  facet normal 1 0 0
    outer loop
      vertex 3.5 24.5466 11.8711
      vertex 3.5 21.473 12.325
      vertex 3.5 24.2657 11.6989
    endloop
  endfacet
  facet normal 1 0 0
    outer loop
      vertex 3.5 24.8511 11.9972
      vertex 3.5 21.473 12.325
      vertex 3.5 24.5466 11.8711
    endloop
  endfacet
  facet normal 1 0 0
    outer loop
      vertex 3.5 25.1715 12.0741
      vertex 3.5 21.473 12.325
      vertex 3.5 24.8511 11.9972
    endloop
  endfacet
  facet normal 1 0 0
    outer loop
      vertex 3.5 25.5 12.1
      vertex 3.5 21.473 12.325
      vertex 3.5 25.1715 12.0741
    endloop
  endfacet
  facet normal 1 -0 0
    outer loop
      vertex 3.5 21.473 12.325
      vertex 3.5 25.5 12.1
      vertex 3.5 29.527 12.325
    endloop
  endfacet
  facet normal 1 -8.30798e-007 7.91132e-007
    outer loop
      vertex 3.5 27.5741 9.67149
      vertex 3.5 29.527 12.325
      vertex 3.5 27.6 10
    endloop
  endfacet
  facet normal 1 3.62389e-007 -8.70023e-008
    outer loop
      vertex 3.5 27.4972 9.35106
      vertex 3.5 29.527 12.325
      vertex 3.5 27.5741 9.67149
    endloop
  endfacet
  facet normal 1 5.97584e-007 -2.4753e-007
    outer loop
      vertex 3.5 27.3711 9.04662
      vertex 3.5 29.527 12.325
      vertex 3.5 27.4972 9.35106
    endloop
  endfacet
  facet normal 1 -1.20976e-006 7.41333e-007
    outer loop
      vertex 3.5 25.5 5.35
      vertex 3.5 27.3711 9.04662
      vertex 3.5 27.1989 8.76565
    endloop
  endfacet
  facet normal 1 1.08662e-007 7.39913e-008
    outer loop
      vertex 3.5 27.3711 9.04662
      vertex 3.5 25.5 5.35
      vertex 3.5 29.527 12.325
    endloop
  endfacet
  facet normal 1 -3.9139e-007 3.3428e-007
    outer loop
      vertex 3.5 26.9849 8.51508
      vertex 3.5 25.5 5.35
      vertex 3.5 27.1989 8.76565
    endloop
  endfacet
  facet normal 1 -2.14704e-007 2.51386e-007
    outer loop
      vertex 3.5 26.7343 8.30106
      vertex 3.5 25.5 5.35
      vertex 3.5 26.9849 8.51508
    endloop
  endfacet
  facet normal 1 -1.33145e-007 2.17272e-007
    outer loop
      vertex 3.5 26.4534 8.12889
      vertex 3.5 25.5 5.35
      vertex 3.5 26.7343 8.30106
    endloop
  endfacet
  facet normal 1 -8.28497e-008 2.00017e-007
    outer loop
      vertex 3.5 26.1489 8.00278
      vertex 3.5 25.5 5.35
      vertex 3.5 26.4534 8.12889
    endloop
  endfacet
  facet normal 1 7.44653e-007 -2.41045e-009
    outer loop
      vertex 3.5 25.8285 7.92585
      vertex 3.5 25.5 5.35
      vertex 3.5 26.1489 8.00278
    endloop
  endfacet
  facet normal 1 -7.35831e-009 9.34975e-008
    outer loop
      vertex 3.5 25.5 7.9
      vertex 3.5 25.5 5.35
      vertex 3.5 25.8285 7.92585
    endloop
  endfacet
  facet normal 1 7.35827e-009 9.34975e-008
    outer loop
      vertex 3.5 25.1715 7.92585
      vertex 3.5 25.5 5.35
      vertex 3.5 25.5 7.9
    endloop
  endfacet
  facet normal 1 -7.44653e-007 -2.41102e-009
    outer loop
      vertex 3.5 24.8511 8.00278
      vertex 3.5 25.5 5.35
      vertex 3.5 25.1715 7.92585
    endloop
  endfacet
  facet normal 1 8.28503e-008 2.00017e-007
    outer loop
      vertex 3.5 24.5466 8.12889
      vertex 3.5 25.5 5.35
      vertex 3.5 24.8511 8.00278
    endloop
  endfacet
  facet normal 1 1.33145e-007 2.17272e-007
    outer loop
      vertex 3.5 24.2657 8.30106
      vertex 3.5 25.5 5.35
      vertex 3.5 24.5466 8.12889
    endloop
  endfacet
  facet normal 1 2.14704e-007 2.51386e-007
    outer loop
      vertex 3.5 24.0151 8.51508
      vertex 3.5 25.5 5.35
      vertex 3.5 24.2657 8.30106
    endloop
  endfacet
  facet normal 1 3.9139e-007 3.3428e-007
    outer loop
      vertex 3.5 23.8011 8.76565
      vertex 3.5 25.5 5.35
      vertex 3.5 24.0151 8.51508
    endloop
  endfacet
  facet normal 1 1.20976e-006 7.41333e-007
    outer loop
      vertex 3.5 23.6289 9.04662
      vertex 3.5 25.5 5.35
      vertex 3.5 23.8011 8.76565
    endloop
  endfacet
  facet normal 1 -1.08662e-007 7.39915e-008
    outer loop
      vertex 3.5 23.6289 9.04662
      vertex 3.5 21.473 12.325
      vertex 3.5 25.5 5.35
    endloop
  endfacet
  facet normal 1 -5.97583e-007 -2.47529e-007
    outer loop
      vertex 3.5 23.5028 9.35106
      vertex 3.5 21.473 12.325
      vertex 3.5 23.6289 9.04662
    endloop
  endfacet
  facet normal 1 -3.62388e-007 -8.70022e-008
    outer loop
      vertex 3.5 23.4259 9.67149
      vertex 3.5 21.473 12.325
      vertex 3.5 23.5028 9.35106
    endloop
  endfacet
  facet normal 1 8.30804e-007 7.91137e-007
    outer loop
      vertex 3.5 21.473 12.325
      vertex 3.5 23.4259 9.67149
      vertex 3.5 23.4 10
    endloop
  endfacet
  facet normal 1 1.18409e-007 2.05091e-007
    outer loop
      vertex 3.5 21.473 7.675
      vertex 3.5 25.5 5.35
      vertex 3.5 21.473 12.325
    endloop
  endfacet
  facet normal 0 -1 0
    outer loop
      vertex 3.5 29.527 7.675
      vertex 6.5 29.527 12.325
      vertex 3.5 29.527 12.325
    endloop
  endfacet
  facet normal 0 -1 -0
    outer loop
      vertex 6.5 29.527 12.325
      vertex 3.5 29.527 7.675
      vertex 6.5 29.527 7.675
    endloop
  endfacet
  facet normal -0 0.5 0.866025
    outer loop
      vertex 3.5 25.5 5.35
      vertex 6.5 21.473 7.675
      vertex 6.5 25.5 5.35
    endloop
  endfacet
  facet normal 0 0.5 0.866025
    outer loop
      vertex 6.5 21.473 7.675
      vertex 3.5 25.5 5.35
      vertex 3.5 21.473 7.675
    endloop
  endfacet
  facet normal 0 0.760405 -0.649449
    outer loop
      vertex 3.5 -27.1989 11.2343
      vertex 1.5 -26.9849 11.4849
      vertex 3.5 -26.9849 11.4849
    endloop
  endfacet
  facet normal 0 0.760405 -0.649449
    outer loop
      vertex 1.5 -26.9849 11.4849
      vertex 3.5 -27.1989 11.2343
      vertex 1.5 -27.1989 11.2343
    endloop
  endfacet
  facet normal 0 -0.996917 0.078458
    outer loop
      vertex 1.5 -23.4259 9.67149
      vertex 3.5 -23.4 10
      vertex 1.5 -23.4 10
    endloop
  endfacet
  facet normal 0 -0.996917 0.078458
    outer loop
      vertex 3.5 -23.4 10
      vertex 1.5 -23.4259 9.67149
      vertex 3.5 -23.4259 9.67149
    endloop
  endfacet
  facet normal 0 -0.0784576 0.996917
    outer loop
      vertex 1.5 -25.1715 7.92585
      vertex 3.5 -25.5 7.9
      vertex 3.5 -25.1715 7.92585
    endloop
  endfacet
  facet normal 0 -0.0784576 0.996917
    outer loop
      vertex 3.5 -25.5 7.9
      vertex 1.5 -25.1715 7.92585
      vertex 1.5 -25.5 7.9
    endloop
  endfacet
  facet normal 0 -0.97237 -0.233447
    outer loop
      vertex 1.5 -23.4259 10.3285
      vertex 3.5 -23.5028 10.6489
      vertex 1.5 -23.5028 10.6489
    endloop
  endfacet
  facet normal 0 -0.97237 -0.233447
    outer loop
      vertex 3.5 -23.5028 10.6489
      vertex 1.5 -23.4259 10.3285
      vertex 3.5 -23.4259 10.3285
    endloop
  endfacet
  facet normal 0 -0.233447 -0.97237
    outer loop
      vertex 1.5 -25.1715 12.0741
      vertex 3.5 -24.8511 11.9972
      vertex 3.5 -25.1715 12.0741
    endloop
  endfacet
  facet normal -0 -0.233447 -0.97237
    outer loop
      vertex 3.5 -24.8511 11.9972
      vertex 1.5 -25.1715 12.0741
      vertex 1.5 -24.8511 11.9972
    endloop
  endfacet
  facet normal -0 0.522499 0.85264
    outer loop
      vertex 1.5 -26.4534 8.12889
      vertex 3.5 -26.7343 8.30106
      vertex 3.5 -26.4534 8.12889
    endloop
  endfacet
  facet normal 0 0.522499 0.85264
    outer loop
      vertex 3.5 -26.7343 8.30106
      vertex 1.5 -26.4534 8.12889
      vertex 1.5 -26.7343 8.30106
    endloop
  endfacet
  facet normal 0 -0.382685 -0.923879
    outer loop
      vertex 1.5 -24.8511 11.9972
      vertex 3.5 -24.5466 11.8711
      vertex 3.5 -24.8511 11.9972
    endloop
  endfacet
  facet normal -0 -0.382685 -0.923879
    outer loop
      vertex 3.5 -24.5466 11.8711
      vertex 1.5 -24.8511 11.9972
      vertex 1.5 -24.5466 11.8711
    endloop
  endfacet
  facet normal 0 -0.233447 0.97237
    outer loop
      vertex 1.5 -24.8511 8.00278
      vertex 3.5 -25.1715 7.92585
      vertex 3.5 -24.8511 8.00278
    endloop
  endfacet
  facet normal 0 -0.233447 0.97237
    outer loop
      vertex 3.5 -25.1715 7.92585
      vertex 1.5 -24.8511 8.00278
      vertex 1.5 -25.1715 7.92585
    endloop
  endfacet
  facet normal 0 -0.852642 0.522495
    outer loop
      vertex 1.5 -23.8011 8.76565
      vertex 3.5 -23.6289 9.04662
      vertex 1.5 -23.6289 9.04662
    endloop
  endfacet
  facet normal 0 -0.852642 0.522495
    outer loop
      vertex 3.5 -23.6289 9.04662
      vertex 1.5 -23.8011 8.76565
      vertex 3.5 -23.8011 8.76565
    endloop
  endfacet
  facet normal 0 -0.649448 0.760406
    outer loop
      vertex 1.5 -24.0151 8.51508
      vertex 3.5 -24.2657 8.30106
      vertex 3.5 -24.0151 8.51508
    endloop
  endfacet
  facet normal 0 -0.649448 0.760406
    outer loop
      vertex 3.5 -24.2657 8.30106
      vertex 1.5 -24.0151 8.51508
      vertex 1.5 -24.2657 8.30106
    endloop
  endfacet
  facet normal 0 -0.0784576 -0.996917
    outer loop
      vertex 1.5 -25.5 12.1
      vertex 3.5 -25.1715 12.0741
      vertex 3.5 -25.5 12.1
    endloop
  endfacet
  facet normal -0 -0.0784576 -0.996917
    outer loop
      vertex 3.5 -25.1715 12.0741
      vertex 1.5 -25.5 12.1
      vertex 1.5 -25.1715 12.0741
    endloop
  endfacet
  facet normal 0 -0.522499 -0.85264
    outer loop
      vertex 1.5 -24.5466 11.8711
      vertex 3.5 -24.2657 11.6989
      vertex 3.5 -24.5466 11.8711
    endloop
  endfacet
  facet normal -0 -0.522499 -0.85264
    outer loop
      vertex 3.5 -24.2657 11.6989
      vertex 1.5 -24.5466 11.8711
      vertex 1.5 -24.2657 11.6989
    endloop
  endfacet
  facet normal 0 -0.382685 0.923879
    outer loop
      vertex 1.5 -24.5466 8.12889
      vertex 3.5 -24.8511 8.00278
      vertex 3.5 -24.5466 8.12889
    endloop
  endfacet
  facet normal 0 -0.382685 0.923879
    outer loop
      vertex 3.5 -24.8511 8.00278
      vertex 1.5 -24.5466 8.12889
      vertex 1.5 -24.8511 8.00278
    endloop
  endfacet
  facet normal 0 -0.996917 -0.078458
    outer loop
      vertex 1.5 -23.4 10
      vertex 3.5 -23.4259 10.3285
      vertex 1.5 -23.4259 10.3285
    endloop
  endfacet
  facet normal 0 -0.996917 -0.078458
    outer loop
      vertex 3.5 -23.4259 10.3285
      vertex 1.5 -23.4 10
      vertex 3.5 -23.4 10
    endloop
  endfacet
  facet normal -0 0.233447 0.97237
    outer loop
      vertex 1.5 -25.8285 7.92585
      vertex 3.5 -26.1489 8.00278
      vertex 3.5 -25.8285 7.92585
    endloop
  endfacet
  facet normal 0 0.233447 0.97237
    outer loop
      vertex 3.5 -26.1489 8.00278
      vertex 1.5 -25.8285 7.92585
      vertex 1.5 -26.1489 8.00278
    endloop
  endfacet
  facet normal -0 0.078458 0.996917
    outer loop
      vertex 1.5 -25.5 7.9
      vertex 3.5 -25.8285 7.92585
      vertex 3.5 -25.5 7.9
    endloop
  endfacet
  facet normal 0 0.078458 0.996917
    outer loop
      vertex 3.5 -25.8285 7.92585
      vertex 1.5 -25.5 7.9
      vertex 1.5 -25.8285 7.92585
    endloop
  endfacet
  facet normal 0 0.078458 -0.996917
    outer loop
      vertex 1.5 -25.8285 12.0741
      vertex 3.5 -25.5 12.1
      vertex 3.5 -25.8285 12.0741
    endloop
  endfacet
  facet normal 0 0.078458 -0.996917
    outer loop
      vertex 3.5 -25.5 12.1
      vertex 1.5 -25.8285 12.0741
      vertex 1.5 -25.5 12.1
    endloop
  endfacet
  facet normal 0 0.97237 0.233447
    outer loop
      vertex 3.5 -27.4972 9.35106
      vertex 1.5 -27.5741 9.67149
      vertex 3.5 -27.5741 9.67149
    endloop
  endfacet
  facet normal 0 0.97237 0.233447
    outer loop
      vertex 1.5 -27.5741 9.67149
      vertex 3.5 -27.4972 9.35106
      vertex 1.5 -27.4972 9.35106
    endloop
  endfacet
  facet normal 0 0.852642 0.522495
    outer loop
      vertex 3.5 -27.1989 8.76565
      vertex 1.5 -27.3711 9.04662
      vertex 3.5 -27.3711 9.04662
    endloop
  endfacet
  facet normal 0 0.852642 0.522495
    outer loop
      vertex 1.5 -27.3711 9.04662
      vertex 3.5 -27.1989 8.76565
      vertex 1.5 -27.1989 8.76565
    endloop
  endfacet
  facet normal 0 -0.97237 0.233447
    outer loop
      vertex 1.5 -23.5028 9.35106
      vertex 3.5 -23.4259 9.67149
      vertex 1.5 -23.4259 9.67149
    endloop
  endfacet
  facet normal 0 -0.97237 0.233447
    outer loop
      vertex 3.5 -23.4259 9.67149
      vertex 1.5 -23.5028 9.35106
      vertex 3.5 -23.5028 9.35106
    endloop
  endfacet
  facet normal 0 -0.760405 0.649449
    outer loop
      vertex 1.5 -24.0151 8.51508
      vertex 3.5 -23.8011 8.76565
      vertex 1.5 -23.8011 8.76565
    endloop
  endfacet
  facet normal 0 -0.760405 0.649449
    outer loop
      vertex 3.5 -23.8011 8.76565
      vertex 1.5 -24.0151 8.51508
      vertex 3.5 -24.0151 8.51508
    endloop
  endfacet
  facet normal -0 0.382683 0.92388
    outer loop
      vertex 1.5 -26.1489 8.00278
      vertex 3.5 -26.4534 8.12889
      vertex 3.5 -26.1489 8.00278
    endloop
  endfacet
  facet normal 0 0.382683 0.92388
    outer loop
      vertex 3.5 -26.4534 8.12889
      vertex 1.5 -26.1489 8.00278
      vertex 1.5 -26.4534 8.12889
    endloop
  endfacet
  facet normal 0 0.996918 0.0784523
    outer loop
      vertex 3.5 -27.5741 9.67149
      vertex 1.5 -27.6 10
      vertex 3.5 -27.6 10
    endloop
  endfacet
  facet normal 0 0.996918 0.0784523
    outer loop
      vertex 1.5 -27.6 10
      vertex 3.5 -27.5741 9.67149
      vertex 1.5 -27.5741 9.67149
    endloop
  endfacet
  facet normal -0 0.649448 0.760406
    outer loop
      vertex 1.5 -26.7343 8.30106
      vertex 3.5 -26.9849 8.51508
      vertex 3.5 -26.7343 8.30106
    endloop
  endfacet
  facet normal 0 0.649448 0.760406
    outer loop
      vertex 3.5 -26.9849 8.51508
      vertex 1.5 -26.7343 8.30106
      vertex 1.5 -26.9849 8.51508
    endloop
  endfacet
  facet normal 0 0.760405 0.649449
    outer loop
      vertex 3.5 -26.9849 8.51508
      vertex 1.5 -27.1989 8.76565
      vertex 3.5 -27.1989 8.76565
    endloop
  endfacet
  facet normal 0 0.760405 0.649449
    outer loop
      vertex 1.5 -27.1989 8.76565
      vertex 3.5 -26.9849 8.51508
      vertex 1.5 -26.9849 8.51508
    endloop
  endfacet
  facet normal 0 0.522499 -0.85264
    outer loop
      vertex 1.5 -26.7343 11.6989
      vertex 3.5 -26.4534 11.8711
      vertex 3.5 -26.7343 11.6989
    endloop
  endfacet
  facet normal 0 0.522499 -0.85264
    outer loop
      vertex 3.5 -26.4534 11.8711
      vertex 1.5 -26.7343 11.6989
      vertex 1.5 -26.4534 11.8711
    endloop
  endfacet
  facet normal 0 0.382683 -0.92388
    outer loop
      vertex 1.5 -26.4534 11.8711
      vertex 3.5 -26.1489 11.9972
      vertex 3.5 -26.4534 11.8711
    endloop
  endfacet
  facet normal 0 0.382683 -0.92388
    outer loop
      vertex 3.5 -26.1489 11.9972
      vertex 1.5 -26.4534 11.8711
      vertex 1.5 -26.1489 11.9972
    endloop
  endfacet
  facet normal 0 0.923878 0.382687
    outer loop
      vertex 3.5 -27.3711 9.04662
      vertex 1.5 -27.4972 9.35106
      vertex 3.5 -27.4972 9.35106
    endloop
  endfacet
  facet normal 0 0.923878 0.382687
    outer loop
      vertex 1.5 -27.4972 9.35106
      vertex 3.5 -27.3711 9.04662
      vertex 1.5 -27.3711 9.04662
    endloop
  endfacet
  facet normal 0 -0.852642 -0.522495
    outer loop
      vertex 1.5 -23.6289 10.9534
      vertex 3.5 -23.8011 11.2343
      vertex 1.5 -23.8011 11.2343
    endloop
  endfacet
  facet normal 0 -0.852642 -0.522495
    outer loop
      vertex 3.5 -23.8011 11.2343
      vertex 1.5 -23.6289 10.9534
      vertex 3.5 -23.6289 10.9534
    endloop
  endfacet
  facet normal 0 -0.649448 -0.760406
    outer loop
      vertex 1.5 -24.2657 11.6989
      vertex 3.5 -24.0151 11.4849
      vertex 3.5 -24.2657 11.6989
    endloop
  endfacet
  facet normal -0 -0.649448 -0.760406
    outer loop
      vertex 3.5 -24.0151 11.4849
      vertex 1.5 -24.2657 11.6989
      vertex 1.5 -24.0151 11.4849
    endloop
  endfacet
  facet normal 0 -0.760405 -0.649449
    outer loop
      vertex 1.5 -23.8011 11.2343
      vertex 3.5 -24.0151 11.4849
      vertex 1.5 -24.0151 11.4849
    endloop
  endfacet
  facet normal 0 -0.760405 -0.649449
    outer loop
      vertex 3.5 -24.0151 11.4849
      vertex 1.5 -23.8011 11.2343
      vertex 3.5 -23.8011 11.2343
    endloop
  endfacet
  facet normal 0 -0.923878 0.382687
    outer loop
      vertex 1.5 -23.6289 9.04662
      vertex 3.5 -23.5028 9.35106
      vertex 1.5 -23.5028 9.35106
    endloop
  endfacet
  facet normal 0 -0.923878 0.382687
    outer loop
      vertex 3.5 -23.5028 9.35106
      vertex 1.5 -23.6289 9.04662
      vertex 3.5 -23.6289 9.04662
    endloop
  endfacet
  facet normal 0 -0.522499 0.85264
    outer loop
      vertex 1.5 -24.2657 8.30106
      vertex 3.5 -24.5466 8.12889
      vertex 3.5 -24.2657 8.30106
    endloop
  endfacet
  facet normal 0 -0.522499 0.85264
    outer loop
      vertex 3.5 -24.5466 8.12889
      vertex 1.5 -24.2657 8.30106
      vertex 1.5 -24.5466 8.12889
    endloop
  endfacet
  facet normal 0 0.852642 -0.522495
    outer loop
      vertex 3.5 -27.3711 10.9534
      vertex 1.5 -27.1989 11.2343
      vertex 3.5 -27.1989 11.2343
    endloop
  endfacet
  facet normal 0 0.852642 -0.522495
    outer loop
      vertex 1.5 -27.1989 11.2343
      vertex 3.5 -27.3711 10.9534
      vertex 1.5 -27.3711 10.9534
    endloop
  endfacet
  facet normal 0 0.996918 -0.0784523
    outer loop
      vertex 3.5 -27.6 10
      vertex 1.5 -27.5741 10.3285
      vertex 3.5 -27.5741 10.3285
    endloop
  endfacet
  facet normal 0 0.996918 -0.0784523
    outer loop
      vertex 1.5 -27.5741 10.3285
      vertex 3.5 -27.6 10
      vertex 1.5 -27.6 10
    endloop
  endfacet
  facet normal 0 0.97237 -0.233447
    outer loop
      vertex 3.5 -27.5741 10.3285
      vertex 1.5 -27.4972 10.6489
      vertex 3.5 -27.4972 10.6489
    endloop
  endfacet
  facet normal 0 0.97237 -0.233447
    outer loop
      vertex 1.5 -27.4972 10.6489
      vertex 3.5 -27.5741 10.3285
      vertex 1.5 -27.5741 10.3285
    endloop
  endfacet
  facet normal 0 0.649448 -0.760406
    outer loop
      vertex 1.5 -26.9849 11.4849
      vertex 3.5 -26.7343 11.6989
      vertex 3.5 -26.9849 11.4849
    endloop
  endfacet
  facet normal 0 0.649448 -0.760406
    outer loop
      vertex 3.5 -26.7343 11.6989
      vertex 1.5 -26.9849 11.4849
      vertex 1.5 -26.7343 11.6989
    endloop
  endfacet
  facet normal 0 0.233447 -0.97237
    outer loop
      vertex 1.5 -26.1489 11.9972
      vertex 3.5 -25.8285 12.0741
      vertex 3.5 -26.1489 11.9972
    endloop
  endfacet
  facet normal 0 0.233447 -0.97237
    outer loop
      vertex 3.5 -25.8285 12.0741
      vertex 1.5 -26.1489 11.9972
      vertex 1.5 -25.8285 12.0741
    endloop
  endfacet
  facet normal 0 -0.923878 -0.382687
    outer loop
      vertex 1.5 -23.5028 10.6489
      vertex 3.5 -23.6289 10.9534
      vertex 1.5 -23.6289 10.9534
    endloop
  endfacet
  facet normal 0 -0.923878 -0.382687
    outer loop
      vertex 3.5 -23.6289 10.9534
      vertex 1.5 -23.5028 10.6489
      vertex 3.5 -23.5028 10.6489
    endloop
  endfacet
  facet normal 0 0.923878 -0.382687
    outer loop
      vertex 3.5 -27.4972 10.6489
      vertex 1.5 -27.3711 10.9534
      vertex 3.5 -27.3711 10.9534
    endloop
  endfacet
  facet normal 0 0.923878 -0.382687
    outer loop
      vertex 1.5 -27.3711 10.9534
      vertex 3.5 -27.4972 10.6489
      vertex 1.5 -27.4972 10.6489
    endloop
  endfacet
  facet normal 0 -0.5 0.866025
    outer loop
      vertex 3.5 -21.473 7.675
      vertex 6.5 -25.5 5.35
      vertex 6.5 -21.473 7.675
    endloop
  endfacet
  facet normal 0 -0.5 0.866025
    outer loop
      vertex 6.5 -25.5 5.35
      vertex 3.5 -21.473 7.675
      vertex 3.5 -25.5 5.35
    endloop
  endfacet
  facet normal 0 -0.5 -0.866025
    outer loop
      vertex 3.5 -25.5 14.65
      vertex 6.5 -21.473 12.325
      vertex 6.5 -25.5 14.65
    endloop
  endfacet
  facet normal -0 -0.5 -0.866025
    outer loop
      vertex 6.5 -21.473 12.325
      vertex 3.5 -25.5 14.65
      vertex 3.5 -21.473 12.325
    endloop
  endfacet
  facet normal 0 -1 0
    outer loop
      vertex 3.5 -21.473 7.675
      vertex 6.5 -21.473 12.325
      vertex 3.5 -21.473 12.325
    endloop
  endfacet
  facet normal 0 -1 -0
    outer loop
      vertex 6.5 -21.473 12.325
      vertex 3.5 -21.473 7.675
      vertex 6.5 -21.473 7.675
    endloop
  endfacet
  facet normal 1 1.12995e-007 8.89275e-009
    outer loop
      vertex 3.5 -21.473 12.325
      vertex 3.5 -23.4259 10.3285
      vertex 3.5 -23.4 10
    endloop
  endfacet
  facet normal 1 9.80263e-008 2.35342e-008
    outer loop
      vertex 3.5 -21.473 12.325
      vertex 3.5 -23.5028 10.6489
      vertex 3.5 -23.4259 10.3285
    endloop
  endfacet
  facet normal 1 8.75234e-008 3.62537e-008
    outer loop
      vertex 3.5 -21.473 12.325
      vertex 3.5 -23.6289 10.9534
      vertex 3.5 -23.5028 10.6489
    endloop
  endfacet
  facet normal 1 7.95676e-008 4.87586e-008
    outer loop
      vertex 3.5 -21.473 12.325
      vertex 3.5 -23.8011 11.2343
      vertex 3.5 -23.6289 10.9534
    endloop
  endfacet
  facet normal 1 -2.45221e-007 7.42046e-007
    outer loop
      vertex 3.5 -21.473 12.325
      vertex 3.5 -24.0151 11.4849
      vertex 3.5 -23.8011 11.2343
    endloop
  endfacet
  facet normal 1 0 0
    outer loop
      vertex 3.5 -21.473 12.325
      vertex 3.5 -24.2657 11.6989
      vertex 3.5 -24.0151 11.4849
    endloop
  endfacet
  facet normal 1 0 0
    outer loop
      vertex 3.5 -21.473 12.325
      vertex 3.5 -24.5466 11.8711
      vertex 3.5 -24.2657 11.6989
    endloop
  endfacet
  facet normal 1 0 0
    outer loop
      vertex 3.5 -21.473 12.325
      vertex 3.5 -24.8511 11.9972
      vertex 3.5 -24.5466 11.8711
    endloop
  endfacet
  facet normal 1 0 0
    outer loop
      vertex 3.5 -21.473 12.325
      vertex 3.5 -25.1715 12.0741
      vertex 3.5 -24.8511 11.9972
    endloop
  endfacet
  facet normal 1 0 0
    outer loop
      vertex 3.5 -21.473 12.325
      vertex 3.5 -25.5 12.1
      vertex 3.5 -25.1715 12.0741
    endloop
  endfacet
  facet normal 1 -1.12995e-007 8.89215e-009
    outer loop
      vertex 3.5 -27.5741 10.3285
      vertex 3.5 -29.527 12.325
      vertex 3.5 -27.6 10
    endloop
  endfacet
  facet normal 1 -9.80264e-008 2.35342e-008
    outer loop
      vertex 3.5 -27.4972 10.6489
      vertex 3.5 -29.527 12.325
      vertex 3.5 -27.5741 10.3285
    endloop
  endfacet
  facet normal 1 -8.75234e-008 3.62538e-008
    outer loop
      vertex 3.5 -27.3711 10.9534
      vertex 3.5 -29.527 12.325
      vertex 3.5 -27.4972 10.6489
    endloop
  endfacet
  facet normal 1 -7.95676e-008 4.87587e-008
    outer loop
      vertex 3.5 -27.1989 11.2343
      vertex 3.5 -29.527 12.325
      vertex 3.5 -27.3711 10.9534
    endloop
  endfacet
  facet normal 1 2.45221e-007 7.42046e-007
    outer loop
      vertex 3.5 -26.9849 11.4849
      vertex 3.5 -29.527 12.325
      vertex 3.5 -27.1989 11.2343
    endloop
  endfacet
  facet normal 1 0 0
    outer loop
      vertex 3.5 -26.7343 11.6989
      vertex 3.5 -29.527 12.325
      vertex 3.5 -26.9849 11.4849
    endloop
  endfacet
  facet normal 1 0 0
    outer loop
      vertex 3.5 -26.4534 11.8711
      vertex 3.5 -29.527 12.325
      vertex 3.5 -26.7343 11.6989
    endloop
  endfacet
  facet normal 1 0 0
    outer loop
      vertex 3.5 -26.1489 11.9972
      vertex 3.5 -29.527 12.325
      vertex 3.5 -26.4534 11.8711
    endloop
  endfacet
  facet normal 1 0 0
    outer loop
      vertex 3.5 -25.8285 12.0741
      vertex 3.5 -29.527 12.325
      vertex 3.5 -26.1489 11.9972
    endloop
  endfacet
  facet normal 1 0 0
    outer loop
      vertex 3.5 -25.5 12.1
      vertex 3.5 -29.527 12.325
      vertex 3.5 -25.8285 12.0741
    endloop
  endfacet
  facet normal 1 -0 0
    outer loop
      vertex 3.5 -29.527 12.325
      vertex 3.5 -25.5 12.1
      vertex 3.5 -21.473 12.325
    endloop
  endfacet
  facet normal 1 -8.30804e-007 7.91137e-007
    outer loop
      vertex 3.5 -23.4259 9.67149
      vertex 3.5 -21.473 12.325
      vertex 3.5 -23.4 10
    endloop
  endfacet
  facet normal 1 3.62388e-007 -8.70022e-008
    outer loop
      vertex 3.5 -23.5028 9.35106
      vertex 3.5 -21.473 12.325
      vertex 3.5 -23.4259 9.67149
    endloop
  endfacet
  facet normal 1 5.97583e-007 -2.47529e-007
    outer loop
      vertex 3.5 -23.6289 9.04662
      vertex 3.5 -21.473 12.325
      vertex 3.5 -23.5028 9.35106
    endloop
  endfacet
  facet normal 1 -1.20976e-006 7.41333e-007
    outer loop
      vertex 3.5 -25.5 5.35
      vertex 3.5 -23.6289 9.04662
      vertex 3.5 -23.8011 8.76565
    endloop
  endfacet
  facet normal 1 1.08662e-007 7.39915e-008
    outer loop
      vertex 3.5 -23.6289 9.04662
      vertex 3.5 -25.5 5.35
      vertex 3.5 -21.473 12.325
    endloop
  endfacet
  facet normal 1 -3.9139e-007 3.3428e-007
    outer loop
      vertex 3.5 -24.0151 8.51508
      vertex 3.5 -25.5 5.35
      vertex 3.5 -23.8011 8.76565
    endloop
  endfacet
  facet normal 1 -2.14704e-007 2.51386e-007
    outer loop
      vertex 3.5 -24.2657 8.30106
      vertex 3.5 -25.5 5.35
      vertex 3.5 -24.0151 8.51508
    endloop
  endfacet
  facet normal 1 -1.33145e-007 2.17272e-007
    outer loop
      vertex 3.5 -24.5466 8.12889
      vertex 3.5 -25.5 5.35
      vertex 3.5 -24.2657 8.30106
    endloop
  endfacet
  facet normal 1 -8.28503e-008 2.00017e-007
    outer loop
      vertex 3.5 -24.8511 8.00278
      vertex 3.5 -25.5 5.35
      vertex 3.5 -24.5466 8.12889
    endloop
  endfacet
  facet normal 1 7.44653e-007 -2.41102e-009
    outer loop
      vertex 3.5 -25.1715 7.92585
      vertex 3.5 -25.5 5.35
      vertex 3.5 -24.8511 8.00278
    endloop
  endfacet
  facet normal 1 -7.35827e-009 9.34975e-008
    outer loop
      vertex 3.5 -25.5 7.9
      vertex 3.5 -25.5 5.35
      vertex 3.5 -25.1715 7.92585
    endloop
  endfacet
  facet normal 1 7.35831e-009 9.34975e-008
    outer loop
      vertex 3.5 -25.8285 7.92585
      vertex 3.5 -25.5 5.35
      vertex 3.5 -25.5 7.9
    endloop
  endfacet
  facet normal 1 -7.44653e-007 -2.41045e-009
    outer loop
      vertex 3.5 -26.1489 8.00278
      vertex 3.5 -25.5 5.35
      vertex 3.5 -25.8285 7.92585
    endloop
  endfacet
  facet normal 1 8.28497e-008 2.00017e-007
    outer loop
      vertex 3.5 -26.4534 8.12889
      vertex 3.5 -25.5 5.35
      vertex 3.5 -26.1489 8.00278
    endloop
  endfacet
  facet normal 1 1.33145e-007 2.17272e-007
    outer loop
      vertex 3.5 -26.7343 8.30106
      vertex 3.5 -25.5 5.35
      vertex 3.5 -26.4534 8.12889
    endloop
  endfacet
  facet normal 1 2.14704e-007 2.51386e-007
    outer loop
      vertex 3.5 -26.9849 8.51508
      vertex 3.5 -25.5 5.35
      vertex 3.5 -26.7343 8.30106
    endloop
  endfacet
  facet normal 1 3.9139e-007 3.3428e-007
    outer loop
      vertex 3.5 -27.1989 8.76565
      vertex 3.5 -25.5 5.35
      vertex 3.5 -26.9849 8.51508
    endloop
  endfacet
  facet normal 1 1.20976e-006 7.41333e-007
    outer loop
      vertex 3.5 -27.3711 9.04662
      vertex 3.5 -25.5 5.35
      vertex 3.5 -27.1989 8.76565
    endloop
  endfacet
  facet normal 1 -1.08662e-007 7.39913e-008
    outer loop
      vertex 3.5 -27.3711 9.04662
      vertex 3.5 -29.527 12.325
      vertex 3.5 -25.5 5.35
    endloop
  endfacet
  facet normal 1 -5.97584e-007 -2.4753e-007
    outer loop
      vertex 3.5 -27.4972 9.35106
      vertex 3.5 -29.527 12.325
      vertex 3.5 -27.3711 9.04662
    endloop
  endfacet
  facet normal 1 -3.62389e-007 -8.70023e-008
    outer loop
      vertex 3.5 -27.5741 9.67149
      vertex 3.5 -29.527 12.325
      vertex 3.5 -27.4972 9.35106
    endloop
  endfacet
  facet normal 1 8.30798e-007 7.91132e-007
    outer loop
      vertex 3.5 -29.527 12.325
      vertex 3.5 -27.5741 9.67149
      vertex 3.5 -27.6 10
    endloop
  endfacet
  facet normal -0 0.5 0.866025
    outer loop
      vertex 3.5 -25.5 5.35
      vertex 6.5 -29.527 7.675
      vertex 6.5 -25.5 5.35
    endloop
  endfacet
  facet normal 0 0.5 0.866025
    outer loop
      vertex 6.5 -29.527 7.675
      vertex 3.5 -25.5 5.35
      vertex 3.5 -29.527 7.675
    endloop
  endfacet
  facet normal 1 1.1841e-007 2.05091e-007
    outer loop
      vertex 3.5 -29.527 7.675
      vertex 3.5 -25.5 5.35
      vertex 3.5 -29.527 12.325
    endloop
  endfacet
  facet normal 1 -1.18409e-007 2.05091e-007
    outer loop
      vertex 3.5 -25.5 5.35
      vertex 3.5 -21.473 7.675
      vertex 3.5 -21.473 12.325
    endloop
  endfacet
  facet normal 1 0 0
    outer loop
      vertex 3.5 -21.473 12.325
      vertex 3.5 -25.5 14.65
      vertex 3.5 -29.527 12.325
    endloop
  endfacet
  facet normal 0 1 -0
    outer loop
      vertex 6.5 -29.527 7.675
      vertex 3.5 -29.527 12.325
      vertex 6.5 -29.527 12.325
    endloop
  endfacet
  facet normal 0 1 0
    outer loop
      vertex 3.5 -29.527 12.325
      vertex 6.5 -29.527 7.675
      vertex 3.5 -29.527 7.675
    endloop
  endfacet
  facet normal 0 0.5 -0.866025
    outer loop
      vertex 3.5 -29.527 12.325
      vertex 6.5 -25.5 14.65
      vertex 6.5 -29.527 12.325
    endloop
  endfacet
  facet normal 0 0.5 -0.866025
    outer loop
      vertex 6.5 -25.5 14.65
      vertex 3.5 -29.527 12.325
      vertex 3.5 -25.5 14.65
    endloop
  endfacet
endsolid OpenSCAD_Model
