999
dxfrw 0.5.0
0
SECTION
2
HEADER
9
$ACADVER
1
AC1021
9
$HANDSEED
5
20000
9
$DWGCODEPAGE
3
ANSI_1250
9
$INSBASE
10
0
20
0
30
0
9
$EXTMIN
10
1e+020
20
1e+020
30
1e+020
9
$EXTMAX
10
-1e+020
20
-1e+020
30
-1e+020
9
$LIMMIN
10
0
20
0
9
$LIMMAX
10
420
20
297
9
$ORTHOMODE
70
0
9
$LTSCALE
40
1
9
$TEXTSTYLE
7
STANDARD
9
$DIMASZ
40
2.5
9
$DIMEXO
40
0.625
9
$DIMEXE
40
1.25
9
$DIMTXT
40
5
9
$DIMTSZ
40
0
9
$DIMAUNIT
70
0
9
$DIMADEC
70
2
9
$DIMSTYLE
2
STANDARD
9
$DIMGAP
40
0.625
9
$DIMTIH
70
0
9
$LUNITS
70
2
9
$LUPREC
70
4
9
$AUNITS
70
0
9
$AUPREC
70
2
9
$SPLINESEGS
70
8
9
$GRIDMODE
70
1
9
$SNAPSTYLE
70
0
9
$GRIDUNIT
10
0
20
0
9
$PINSBASE
10
0
20
0
30
0
9
$PLIMMIN
10
0
20
0
9
$PLIMMAX
10
210
20
297
9
$INSUNITS
70
4
9
$PSVPSCALE
40
0
0
ENDSEC
0
SECTION
2
CLASSES
0
ENDSEC
0
SECTION
2
TABLES
0
TABLE
2
VPORT
5
8
330
0
100
AcDbSymbolTable
70
1
0
VPORT
5
31
330
2
100
AcDbSymbolTableRecord
100
AcDbViewportTableRecord
2
*ACTIVE
70
0
10
0
20
0
11
1
21
1
12
0.651828
22
-0.16
13
0
23
0
14
10
24
10
15
10
25
10
16
0
26
0
36
1
17
0
27
0
37
0
40
5.13732
41
2.4426877
42
50
43
0
44
0
50
0
51
0
71
0
72
100
73
1
74
3
75
0
76
0
77
0
78
0
281
0
65
1
110
0
120
0
130
0
111
1
121
0
131
0
112
0
122
1
132
0
79
0
146
0
348
10020
60
3
61
5
292
1
282
1
141
0
142
0
63
250
421
3358443
0
ENDTAB
0
TABLE
2
LTYPE
5
5
330
0
100
AcDbSymbolTable
70
4
0
LTYPE
5
14
330
5
100
AcDbSymbolTableRecord
100
AcDbLinetypeTableRecord
2
ByBlock
70
0
3

72
65
73
0
40
0
0
LTYPE
5
15
330
5
100
AcDbSymbolTableRecord
100
AcDbLinetypeTableRecord
2
ByLayer
70
0
3

72
65
73
0
40
0
0
LTYPE
5
16
330
5
100
AcDbSymbolTableRecord
100
AcDbLinetypeTableRecord
2
Continuous
70
0
3
Solid line
72
65
73
0
40
0
0
LTYPE
5
32
330
5
100
AcDbSymbolTableRecord
100
AcDbLinetypeTableRecord
2
DOT
70
0
3
Dot . . . . . . . . . . . . . . . . . . . . . .
72
65
73
2
40
6.35
49
0
74
0
49
-6.35
74
0
0
LTYPE
5
33
330
5
100
AcDbSymbolTableRecord
100
AcDbLinetypeTableRecord
2
DOT2
70
0
3
Dot (.5x) .....................................
72
65
73
2
40
3.175
49
0
74
0
49
-3.175
74
0
0
LTYPE
5
34
330
5
100
AcDbSymbolTableRecord
100
AcDbLinetypeTableRecord
2
DOTX2
70
0
3
Dot (2x) .  .  .  .  .  .  .  .  .  .  .  .  .
72
65
73
2
40
12.7
49
0
74
0
49
-12.7
74
0
0
LTYPE
5
35
330
5
100
AcDbSymbolTableRecord
100
AcDbLinetypeTableRecord
2
DASHED
70
0
3
Dot . . . . . . . . . . . . . . . . . . . . . .
72
65
73
2
40
19.05
49
12.7
74
0
49
-6.35
74
0
0
LTYPE
5
36
330
5
100
AcDbSymbolTableRecord
100
AcDbLinetypeTableRecord
2
DASHED2
70
0
3
Dashed (.5x) _ _ _ _ _ _ _ _ _ _ _ _ _ _ _ _ _
72
65
73
2
40
9.525
49
6.35
74
0
49
-3.175
74
0
0
LTYPE
5
37
330
5
100
AcDbSymbolTableRecord
100
AcDbLinetypeTableRecord
2
DASHEDX2
70
0
3
Dashed (2x) ____  ____  ____  ____  ____  ___
72
65
73
2
40
38.1
49
25.4
74
0
49
-12.7
74
0
0
LTYPE
5
38
330
5
100
AcDbSymbolTableRecord
100
AcDbLinetypeTableRecord
2
DASHDOT
70
0
3
Dash dot __ . __ . __ . __ . __ . __ . __ . __
72
65
73
4
40
25.4
49
12.7
74
0
49
-6.35
74
0
49
0
74
0
49
-6.35
74
0
0
LTYPE
5
39
330
5
100
AcDbSymbolTableRecord
100
AcDbLinetypeTableRecord
2
DASHDOT2
70
0
3
Dash dot (.5x) _._._._._._._._._._._._._._._.
72
65
73
4
40
12.7
49
6.35
74
0
49
-3.175
74
0
49
0
74
0
49
-3.175
74
0
0
LTYPE
5
3A
330
5
100
AcDbSymbolTableRecord
100
AcDbLinetypeTableRecord
2
DASHDOTX2
70
0
3
Dash dot (2x) ____  .  ____  .  ____  .  ___
72
65
73
4
40
50.8
49
25.4
74
0
49
-12.7
74
0
49
0
74
0
49
-12.7
74
0
0
LTYPE
5
3B
330
5
100
AcDbSymbolTableRecord
100
AcDbLinetypeTableRecord
2
DIVIDE
70
0
3
Divide ____ . . ____ . . ____ . . ____ . . ____
72
65
73
6
40
31.75
49
12.7
74
0
49
-6.35
74
0
49
0
74
0
49
-6.35
74
0
49
0
74
0
49
-6.35
74
0
0
LTYPE
5
3C
330
5
100
AcDbSymbolTableRecord
100
AcDbLinetypeTableRecord
2
DIVIDE2
70
0
3
Divide (.5x) __..__..__..__..__..__..__..__.._
72
65
73
6
40
15.875
49
6.35
74
0
49
-3.175
74
0
49
0
74
0
49
-3.175
74
0
49
0
74
0
49
-3.175
74
0
0
LTYPE
5
3D
330
5
100
AcDbSymbolTableRecord
100
AcDbLinetypeTableRecord
2
DIVIDEX2
70
0
3
Divide (2x) ________  .  .  ________  .  .  _
72
65
73
6
40
63.5
49
25.4
74
0
49
-12.7
74
0
49
0
74
0
49
-12.7
74
0
49
0
74
0
49
-12.7
74
0
0
LTYPE
5
3E
330
5
100
AcDbSymbolTableRecord
100
AcDbLinetypeTableRecord
2
BORDER
70
0
3
Border __ __ . __ __ . __ __ . __ __ . __ __ .
72
65
73
6
40
44.45
49
12.7
74
0
49
-6.35
74
0
49
12.7
74
0
49
-6.35
74
0
49
0
74
0
49
-6.35
74
0
0
LTYPE
5
3F
330
5
100
AcDbSymbolTableRecord
100
AcDbLinetypeTableRecord
2
BORDER2
70
0
3
Border (.5x) __.__.__.__.__.__.__.__.__.__.__.
72
65
73
6
40
22.225
49
6.35
74
0
49
-3.175
74
0
49
6.35
74
0
49
-3.175
74
0
49
0
74
0
49
-3.175
74
0
0
LTYPE
5
40
330
5
100
AcDbSymbolTableRecord
100
AcDbLinetypeTableRecord
2
BORDERX2
70
0
3
Border (2x) ____  ____  .  ____  ____  .  ___
72
65
73
6
40
88.9
49
25.4
74
0
49
-12.7
74
0
49
25.4
74
0
49
-12.7
74
0
49
0
74
0
49
-12.7
74
0
0
LTYPE
5
41
330
5
100
AcDbSymbolTableRecord
100
AcDbLinetypeTableRecord
2
CENTER
70
0
3
Center ____ _ ____ _ ____ _ ____ _ ____ _ ____
72
65
73
4
40
50.8
49
31.75
74
0
49
-6.35
74
0
49
6.35
74
0
49
-6.35
74
0
0
LTYPE
5
42
330
5
100
AcDbSymbolTableRecord
100
AcDbLinetypeTableRecord
2
CENTER2
70
0
3
Center (.5x) ___ _ ___ _ ___ _ ___ _ ___ _ ___
72
65
73
4
40
28.575
49
19.05
74
0
49
-3.175
74
0
49
3.175
74
0
49
-3.175
74
0
0
LTYPE
5
43
330
5
100
AcDbSymbolTableRecord
100
AcDbLinetypeTableRecord
2
CENTERX2
70
0
3
Center (2x) ________  __  ________  __  _____
72
65
73
4
40
101.6
49
63.5
74
0
49
-12.7
74
0
49
12.7
74
0
49
-12.7
74
0
0
ENDTAB
0
TABLE
2
LAYER
5
2
330
0
100
AcDbSymbolTable
70
1
0
LAYER
5
10
330
2
100
AcDbSymbolTableRecord
100
AcDbLayerTableRecord
2
0
70
0
62
7
6
DASHDOT2
370
0
390
F
0
LAYER
5
44
330
2
100
AcDbSymbolTableRecord
100
AcDbLayerTableRecord
2
plna
70
0
62
7
6
CONTINUOUS
370
35
390
F
0
LAYER
5
45
330
2
100
AcDbSymbolTableRecord
100
AcDbLayerTableRecord
2
koty
70
0
62
7
6
CONTINUOUS
370
0
390
F
0
ENDTAB
0
TABLE
2
STYLE
5
3
330
0
100
AcDbSymbolTable
70
3
0
STYLE
5
46
330
2
100
AcDbSymbolTableRecord
100
AcDbTextStyleTableRecord
2
Standard
70
0
40
0
41
1
50
0
71
0
42
1
3
txt
4

1071

0
ENDTAB
0
TABLE
2
VIEW
5
6
330
0
100
AcDbSymbolTable
70
0
0
ENDTAB
0
TABLE
2
UCS
5
7
330
0
100
AcDbSymbolTable
70
0
0
ENDTAB
0
TABLE
2
APPID
5
9
330
0
100
AcDbSymbolTable
70
1
0
APPID
5
12
330
9
100
AcDbSymbolTableRecord
100
AcDbRegAppTableRecord
2
ACAD
70
0
0
ENDTAB
0
TABLE
2
DIMSTYLE
5
A
330
0
100
AcDbSymbolTable
70
1
100
AcDbDimStyleTable
71
1
0
DIMSTYLE
105
47
330
A
100
AcDbSymbolTableRecord
100
AcDbDimStyleTableRecord
2
Standard
70
0
40
1
41
2.5
42
0.625
43
0.38
44
1.25
45
0
46
0
47
0
48
0
140
5
141
0.09
142
0
143
25.4
144
1
145
0
146
1
147
0.625
148
0
71
0
72
0
73
0
74
1
75
0
76
0
77
0
78
0
79
0
170
0
171
2
172
0
173
0
174
0
175
0
176
0
177
0
178
0
179
0
271
4
272
4
273
2
274
2
275
0
276
0
277
2
278
46
279
0
280
0
281
0
282
0
283
1
284
0
285
0
286
0
288
0
289
3
340
Standard
341

371
-2
372
-2
0
DIMSTYLE
105
48
330
A
100
AcDbSymbolTableRecord
100
AcDbDimStyleTableRecord
2
Standard
70
0
40
1
41
0.18
42
0.0625
43
0.38
44
0.18
45
0
46
0
47
0
48
0
140
0.18
141
0.09
142
0
143
25.4
144
1
145
0
146
1
147
0.09
148
0
71
0
72
0
73
0
74
1
75
0
76
0
77
0
78
0
79
0
170
0
171
2
172
0
173
0
174
0
175
0
176
0
177
0
178
0
179
0
271
4
272
4
273
2
274
2
275
0
276
0
277
2
278
46
279
0
280
0
281
0
282
0
283
1
284
0
285
0
286
0
288
0
289
3
340
Standard
341

371
-2
372
-2
0
ENDTAB
0
TABLE
2
BLOCK_RECORD
5
1
330
0
100
AcDbSymbolTable
70
2
0
BLOCK_RECORD
5
1F
330
1
100
AcDbSymbolTableRecord
100
AcDbBlockTableRecord
2
*Model_Space
70
0
280
1
281
0
0
BLOCK_RECORD
5
1E
330
1
100
AcDbSymbolTableRecord
100
AcDbBlockTableRecord
2
*Paper_Space
70
0
280
1
281
0
0
ENDTAB
0
ENDSEC
0
SECTION
2
BLOCKS
0
BLOCK
5
20
330
1F
100
AcDbEntity
8
0
100
AcDbBlockBegin
2
*Model_Space
70
0
10
0
20
0
30
0
3
*Model_Space
1

0
ENDBLK
5
21
330
1F
100
AcDbEntity
8
0
100
AcDbBlockEnd
0
BLOCK
5
1C
330
1B
100
AcDbEntity
8
0
100
AcDbBlockBegin
2
*Paper_Space
70
0
10
0
20
0
30
0
3
*Paper_Space
1

0
ENDBLK
5
1D
330
1F
100
AcDbEntity
8
0
100
AcDbBlockEnd
0
ENDSEC
0
SECTION
2
ENTITIES
0
LINE
5
49
100
AcDbEntity
8
0
6
ByLayer
62
256
370
-1
100
AcDbLine
10
-127.5
20
0
11
127.5
21
0
0
LINE
5
4A
100
AcDbEntity
8
0
6
ByLayer
62
256
370
-1
100
AcDbLine
10
0
20
85
11
0
21
-85
0
CIRCLE
5
4B
100
AcDbEntity
8
plna
6
ByLayer
62
256
370
-1
100
AcDbCircle
10
0
20
0
40
1.6
0
CIRCLE
5
4C
100
AcDbEntity
8
plna
6
ByLayer
62
256
370
-1
100
AcDbCircle
10
0
20
10.16
40
1.6
0
CIRCLE
5
4D
100
AcDbEntity
8
plna
6
ByLayer
62
256
370
-1
100
AcDbCircle
10
0
20
20.32
40
1.6
0
CIRCLE
5
4E
100
AcDbEntity
8
plna
6
ByLayer
62
256
370
-1
100
AcDbCircle
10
0
20
30.48
40
1.6
0
CIRCLE
5
4F
100
AcDbEntity
8
plna
6
ByLayer
62
256
370
-1
100
AcDbCircle
10
0
20
40.64
40
1.6
0
CIRCLE
5
50
100
AcDbEntity
8
plna
6
ByLayer
62
256
370
-1
100
AcDbCircle
10
0
20
50.8
40
1.6
0
CIRCLE
5
51
100
AcDbEntity
8
plna
6
ByLayer
62
256
370
-1
100
AcDbCircle
10
0
20
60.96
40
1.6
0
CIRCLE
5
52
100
AcDbEntity
8
plna
6
ByLayer
62
256
370
-1
100
AcDbCircle
10
0
20
71.12
40
1.6
0
CIRCLE
5
53
100
AcDbEntity
8
plna
6
ByLayer
62
256
370
-1
100
AcDbCircle
10
0
20
-10.16
40
1.6
0
CIRCLE
5
54
100
AcDbEntity
8
plna
6
ByLayer
62
256
370
-1
100
AcDbCircle
10
0
20
-20.32
40
1.6
0
CIRCLE
5
55
100
AcDbEntity
8
plna
6
ByLayer
62
256
370
-1
100
AcDbCircle
10
0
20
-30.48
40
1.6
0
CIRCLE
5
56
100
AcDbEntity
8
plna
6
ByLayer
62
256
370
-1
100
AcDbCircle
10
0
20
-40.64
40
1.6
0
CIRCLE
5
57
100
AcDbEntity
8
plna
6
ByLayer
62
256
370
-1
100
AcDbCircle
10
0
20
-50.8
40
1.6
0
CIRCLE
5
58
100
AcDbEntity
8
plna
6
ByLayer
62
256
370
-1
100
AcDbCircle
10
0
20
-60.96
40
1.6
0
CIRCLE
5
59
100
AcDbEntity
8
plna
6
ByLayer
62
256
370
-1
100
AcDbCircle
10
0
20
-71.12
40
1.6
0
CIRCLE
5
5A
100
AcDbEntity
8
plna
6
ByLayer
62
256
370
-1
100
AcDbCircle
10
10.16
20
0
40
1.6
0
CIRCLE
5
5B
100
AcDbEntity
8
plna
6
ByLayer
62
256
370
-1
100
AcDbCircle
10
10.16
20
10.16
40
1.6
0
CIRCLE
5
5C
100
AcDbEntity
8
plna
6
ByLayer
62
256
370
-1
100
AcDbCircle
10
10.16
20
20.32
40
1.6
0
CIRCLE
5
5D
100
AcDbEntity
8
plna
6
ByLayer
62
256
370
-1
100
AcDbCircle
10
10.16
20
30.48
40
1.6
0
CIRCLE
5
5E
100
AcDbEntity
8
plna
6
ByLayer
62
256
370
-1
100
AcDbCircle
10
10.16
20
40.64
40
1.6
0
CIRCLE
5
5F
100
AcDbEntity
8
plna
6
ByLayer
62
256
370
-1
100
AcDbCircle
10
10.16
20
50.8
40
1.6
0
CIRCLE
5
60
100
AcDbEntity
8
plna
6
ByLayer
62
256
370
-1
100
AcDbCircle
10
10.16
20
60.96
40
1.6
0
CIRCLE
5
61
100
AcDbEntity
8
plna
6
ByLayer
62
256
370
-1
100
AcDbCircle
10
10.16
20
71.12
40
1.6
0
CIRCLE
5
62
100
AcDbEntity
8
plna
6
ByLayer
62
256
370
-1
100
AcDbCircle
10
10.16
20
-10.16
40
1.6
0
CIRCLE
5
63
100
AcDbEntity
8
plna
6
ByLayer
62
256
370
-1
100
AcDbCircle
10
10.16
20
-20.32
40
1.6
0
CIRCLE
5
64
100
AcDbEntity
8
plna
6
ByLayer
62
256
370
-1
100
AcDbCircle
10
10.16
20
-30.48
40
1.6
0
CIRCLE
5
65
100
AcDbEntity
8
plna
6
ByLayer
62
256
370
-1
100
AcDbCircle
10
10.16
20
-40.64
40
1.6
0
CIRCLE
5
66
100
AcDbEntity
8
plna
6
ByLayer
62
256
370
-1
100
AcDbCircle
10
10.16
20
-50.8
40
1.6
0
CIRCLE
5
67
100
AcDbEntity
8
plna
6
ByLayer
62
256
370
-1
100
AcDbCircle
10
10.16
20
-60.96
40
1.6
0
CIRCLE
5
68
100
AcDbEntity
8
plna
6
ByLayer
62
256
370
-1
100
AcDbCircle
10
10.16
20
-71.12
40
1.6
0
CIRCLE
5
69
100
AcDbEntity
8
plna
6
ByLayer
62
256
370
-1
100
AcDbCircle
10
20.32
20
0
40
1.6
0
CIRCLE
5
6A
100
AcDbEntity
8
plna
6
ByLayer
62
256
370
-1
100
AcDbCircle
10
20.32
20
10.16
40
1.6
0
CIRCLE
5
6B
100
AcDbEntity
8
plna
6
ByLayer
62
256
370
-1
100
AcDbCircle
10
20.32
20
20.32
40
1.6
0
CIRCLE
5
6C
100
AcDbEntity
8
plna
6
ByLayer
62
256
370
-1
100
AcDbCircle
10
20.32
20
30.48
40
1.6
0
CIRCLE
5
6D
100
AcDbEntity
8
plna
6
ByLayer
62
256
370
-1
100
AcDbCircle
10
20.32
20
40.64
40
1.6
0
CIRCLE
5
6E
100
AcDbEntity
8
plna
6
ByLayer
62
256
370
-1
100
AcDbCircle
10
20.32
20
50.8
40
1.6
0
CIRCLE
5
6F
100
AcDbEntity
8
plna
6
ByLayer
62
256
370
-1
100
AcDbCircle
10
20.32
20
60.96
40
1.6
0
CIRCLE
5
70
100
AcDbEntity
8
plna
6
ByLayer
62
256
370
-1
100
AcDbCircle
10
20.32
20
71.12
40
1.6
0
CIRCLE
5
71
100
AcDbEntity
8
plna
6
ByLayer
62
256
370
-1
100
AcDbCircle
10
20.32
20
-10.16
40
1.6
0
CIRCLE
5
72
100
AcDbEntity
8
plna
6
ByLayer
62
256
370
-1
100
AcDbCircle
10
20.32
20
-20.32
40
1.6
0
CIRCLE
5
73
100
AcDbEntity
8
plna
6
ByLayer
62
256
370
-1
100
AcDbCircle
10
20.32
20
-30.48
40
1.6
0
CIRCLE
5
74
100
AcDbEntity
8
plna
6
ByLayer
62
256
370
-1
100
AcDbCircle
10
20.32
20
-40.64
40
1.6
0
CIRCLE
5
75
100
AcDbEntity
8
plna
6
ByLayer
62
256
370
-1
100
AcDbCircle
10
20.32
20
-50.8
40
1.6
0
CIRCLE
5
76
100
AcDbEntity
8
plna
6
ByLayer
62
256
370
-1
100
AcDbCircle
10
20.32
20
-60.96
40
1.6
0
CIRCLE
5
77
100
AcDbEntity
8
plna
6
ByLayer
62
256
370
-1
100
AcDbCircle
10
20.32
20
-71.12
40
1.6
0
CIRCLE
5
78
100
AcDbEntity
8
plna
6
ByLayer
62
256
370
-1
100
AcDbCircle
10
30.48
20
0
40
1.6
0
CIRCLE
5
79
100
AcDbEntity
8
plna
6
ByLayer
62
256
370
-1
100
AcDbCircle
10
30.48
20
10.16
40
1.6
0
CIRCLE
5
7A
100
AcDbEntity
8
plna
6
ByLayer
62
256
370
-1
100
AcDbCircle
10
30.48
20
20.32
40
1.6
0
CIRCLE
5
7B
100
AcDbEntity
8
plna
6
ByLayer
62
256
370
-1
100
AcDbCircle
10
30.48
20
30.48
40
1.6
0
CIRCLE
5
7C
100
AcDbEntity
8
plna
6
ByLayer
62
256
370
-1
100
AcDbCircle
10
30.48
20
40.64
40
1.6
0
CIRCLE
5
7D
100
AcDbEntity
8
plna
6
ByLayer
62
256
370
-1
100
AcDbCircle
10
30.48
20
50.8
40
1.6
0
CIRCLE
5
7E
100
AcDbEntity
8
plna
6
ByLayer
62
256
370
-1
100
AcDbCircle
10
30.48
20
60.96
40
1.6
0
CIRCLE
5
7F
100
AcDbEntity
8
plna
6
ByLayer
62
256
370
-1
100
AcDbCircle
10
30.48
20
71.12
40
1.6
0
CIRCLE
5
80
100
AcDbEntity
8
plna
6
ByLayer
62
256
370
-1
100
AcDbCircle
10
30.48
20
-10.16
40
1.6
0
CIRCLE
5
81
100
AcDbEntity
8
plna
6
ByLayer
62
256
370
-1
100
AcDbCircle
10
30.48
20
-20.32
40
1.6
0
CIRCLE
5
82
100
AcDbEntity
8
plna
6
ByLayer
62
256
370
-1
100
AcDbCircle
10
30.48
20
-30.48
40
1.6
0
CIRCLE
5
83
100
AcDbEntity
8
plna
6
ByLayer
62
256
370
-1
100
AcDbCircle
10
30.48
20
-40.64
40
1.6
0
CIRCLE
5
84
100
AcDbEntity
8
plna
6
ByLayer
62
256
370
-1
100
AcDbCircle
10
30.48
20
-50.8
40
1.6
0
CIRCLE
5
85
100
AcDbEntity
8
plna
6
ByLayer
62
256
370
-1
100
AcDbCircle
10
30.48
20
-60.96
40
1.6
0
CIRCLE
5
86
100
AcDbEntity
8
plna
6
ByLayer
62
256
370
-1
100
AcDbCircle
10
30.48
20
-71.12
40
1.6
0
CIRCLE
5
87
100
AcDbEntity
8
plna
6
ByLayer
62
256
370
-1
100
AcDbCircle
10
40.64
20
0
40
1.6
0
CIRCLE
5
88
100
AcDbEntity
8
plna
6
ByLayer
62
256
370
-1
100
AcDbCircle
10
40.64
20
10.16
40
1.6
0
CIRCLE
5
89
100
AcDbEntity
8
plna
6
ByLayer
62
256
370
-1
100
AcDbCircle
10
40.64
20
20.32
40
1.6
0
CIRCLE
5
8A
100
AcDbEntity
8
plna
6
ByLayer
62
256
370
-1
100
AcDbCircle
10
40.64
20
30.48
40
1.6
0
CIRCLE
5
8B
100
AcDbEntity
8
plna
6
ByLayer
62
256
370
-1
100
AcDbCircle
10
40.64
20
40.64
40
1.6
0
CIRCLE
5
8C
100
AcDbEntity
8
plna
6
ByLayer
62
256
370
-1
100
AcDbCircle
10
40.64
20
50.8
40
1.6
0
CIRCLE
5
8D
100
AcDbEntity
8
plna
6
ByLayer
62
256
370
-1
100
AcDbCircle
10
40.64
20
60.96
40
1.6
0
CIRCLE
5
8E
100
AcDbEntity
8
plna
6
ByLayer
62
256
370
-1
100
AcDbCircle
10
40.64
20
71.12
40
1.6
0
CIRCLE
5
8F
100
AcDbEntity
8
plna
6
ByLayer
62
256
370
-1
100
AcDbCircle
10
40.64
20
-10.16
40
1.6
0
CIRCLE
5
90
100
AcDbEntity
8
plna
6
ByLayer
62
256
370
-1
100
AcDbCircle
10
40.64
20
-20.32
40
1.6
0
CIRCLE
5
91
100
AcDbEntity
8
plna
6
ByLayer
62
256
370
-1
100
AcDbCircle
10
40.64
20
-30.48
40
1.6
0
CIRCLE
5
92
100
AcDbEntity
8
plna
6
ByLayer
62
256
370
-1
100
AcDbCircle
10
40.64
20
-40.64
40
1.6
0
CIRCLE
5
93
100
AcDbEntity
8
plna
6
ByLayer
62
256
370
-1
100
AcDbCircle
10
40.64
20
-50.8
40
1.6
0
CIRCLE
5
94
100
AcDbEntity
8
plna
6
ByLayer
62
256
370
-1
100
AcDbCircle
10
40.64
20
-60.96
40
1.6
0
CIRCLE
5
95
100
AcDbEntity
8
plna
6
ByLayer
62
256
370
-1
100
AcDbCircle
10
40.64
20
-71.12
40
1.6
0
CIRCLE
5
96
100
AcDbEntity
8
plna
6
ByLayer
62
256
370
-1
100
AcDbCircle
10
50.8
20
0
40
1.6
0
CIRCLE
5
97
100
AcDbEntity
8
plna
6
ByLayer
62
256
370
-1
100
AcDbCircle
10
50.8
20
10.16
40
1.6
0
CIRCLE
5
98
100
AcDbEntity
8
plna
6
ByLayer
62
256
370
-1
100
AcDbCircle
10
50.8
20
20.32
40
1.6
0
CIRCLE
5
99
100
AcDbEntity
8
plna
6
ByLayer
62
256
370
-1
100
AcDbCircle
10
50.8
20
30.48
40
1.6
0
CIRCLE
5
9A
100
AcDbEntity
8
plna
6
ByLayer
62
256
370
-1
100
AcDbCircle
10
50.8
20
40.64
40
1.6
0
CIRCLE
5
9B
100
AcDbEntity
8
plna
6
ByLayer
62
256
370
-1
100
AcDbCircle
10
50.8
20
50.8
40
1.6
0
CIRCLE
5
9C
100
AcDbEntity
8
plna
6
ByLayer
62
256
370
-1
100
AcDbCircle
10
50.8
20
60.96
40
1.6
0
CIRCLE
5
9D
100
AcDbEntity
8
plna
6
ByLayer
62
256
370
-1
100
AcDbCircle
10
50.8
20
71.12
40
1.6
0
CIRCLE
5
9E
100
AcDbEntity
8
plna
6
ByLayer
62
256
370
-1
100
AcDbCircle
10
50.8
20
-10.16
40
1.6
0
CIRCLE
5
9F
100
AcDbEntity
8
plna
6
ByLayer
62
256
370
-1
100
AcDbCircle
10
50.8
20
-20.32
40
1.6
0
CIRCLE
5
A0
100
AcDbEntity
8
plna
6
ByLayer
62
256
370
-1
100
AcDbCircle
10
50.8
20
-30.48
40
1.6
0
CIRCLE
5
A1
100
AcDbEntity
8
plna
6
ByLayer
62
256
370
-1
100
AcDbCircle
10
50.8
20
-40.64
40
1.6
0
CIRCLE
5
A2
100
AcDbEntity
8
plna
6
ByLayer
62
256
370
-1
100
AcDbCircle
10
50.8
20
-50.8
40
1.6
0
CIRCLE
5
A3
100
AcDbEntity
8
plna
6
ByLayer
62
256
370
-1
100
AcDbCircle
10
50.8
20
-60.96
40
1.6
0
CIRCLE
5
A4
100
AcDbEntity
8
plna
6
ByLayer
62
256
370
-1
100
AcDbCircle
10
50.8
20
-71.12
40
1.6
0
CIRCLE
5
A5
100
AcDbEntity
8
plna
6
ByLayer
62
256
370
-1
100
AcDbCircle
10
60.96
20
0
40
1.6
0
CIRCLE
5
A6
100
AcDbEntity
8
plna
6
ByLayer
62
256
370
-1
100
AcDbCircle
10
60.96
20
10.16
40
1.6
0
CIRCLE
5
A7
100
AcDbEntity
8
plna
6
ByLayer
62
256
370
-1
100
AcDbCircle
10
60.96
20
20.32
40
1.6
0
CIRCLE
5
A8
100
AcDbEntity
8
plna
6
ByLayer
62
256
370
-1
100
AcDbCircle
10
60.96
20
30.48
40
1.6
0
CIRCLE
5
A9
100
AcDbEntity
8
plna
6
ByLayer
62
256
370
-1
100
AcDbCircle
10
60.96
20
40.64
40
1.6
0
CIRCLE
5
AA
100
AcDbEntity
8
plna
6
ByLayer
62
256
370
-1
100
AcDbCircle
10
60.96
20
50.8
40
1.6
0
CIRCLE
5
AB
100
AcDbEntity
8
plna
6
ByLayer
62
256
370
-1
100
AcDbCircle
10
60.96
20
60.96
40
1.6
0
CIRCLE
5
AC
100
AcDbEntity
8
plna
6
ByLayer
62
256
370
-1
100
AcDbCircle
10
60.96
20
71.12
40
1.6
0
CIRCLE
5
AD
100
AcDbEntity
8
plna
6
ByLayer
62
256
370
-1
100
AcDbCircle
10
60.96
20
-10.16
40
1.6
0
CIRCLE
5
AE
100
AcDbEntity
8
plna
6
ByLayer
62
256
370
-1
100
AcDbCircle
10
60.96
20
-20.32
40
1.6
0
CIRCLE
5
AF
100
AcDbEntity
8
plna
6
ByLayer
62
256
370
-1
100
AcDbCircle
10
60.96
20
-30.48
40
1.6
0
CIRCLE
5
B0
100
AcDbEntity
8
plna
6
ByLayer
62
256
370
-1
100
AcDbCircle
10
60.96
20
-40.64
40
1.6
0
CIRCLE
5
B1
100
AcDbEntity
8
plna
6
ByLayer
62
256
370
-1
100
AcDbCircle
10
60.96
20
-50.8
40
1.6
0
CIRCLE
5
B2
100
AcDbEntity
8
plna
6
ByLayer
62
256
370
-1
100
AcDbCircle
10
60.96
20
-60.96
40
1.6
0
CIRCLE
5
B3
100
AcDbEntity
8
plna
6
ByLayer
62
256
370
-1
100
AcDbCircle
10
60.96
20
-71.12
40
1.6
0
CIRCLE
5
B4
100
AcDbEntity
8
plna
6
ByLayer
62
256
370
-1
100
AcDbCircle
10
71.12
20
0
40
1.6
0
CIRCLE
5
B5
100
AcDbEntity
8
plna
6
ByLayer
62
256
370
-1
100
AcDbCircle
10
71.12
20
10.16
40
1.6
0
CIRCLE
5
B6
100
AcDbEntity
8
plna
6
ByLayer
62
256
370
-1
100
AcDbCircle
10
71.12
20
20.32
40
1.6
0
CIRCLE
5
B7
100
AcDbEntity
8
plna
6
ByLayer
62
256
370
-1
100
AcDbCircle
10
71.12
20
30.48
40
1.6
0
CIRCLE
5
B8
100
AcDbEntity
8
plna
6
ByLayer
62
256
370
-1
100
AcDbCircle
10
71.12
20
40.64
40
1.6
0
CIRCLE
5
B9
100
AcDbEntity
8
plna
6
ByLayer
62
256
370
-1
100
AcDbCircle
10
71.12
20
50.8
40
1.6
0
CIRCLE
5
BA
100
AcDbEntity
8
plna
6
ByLayer
62
256
370
-1
100
AcDbCircle
10
71.12
20
60.96
40
1.6
0
CIRCLE
5
BB
100
AcDbEntity
8
plna
6
ByLayer
62
256
370
-1
100
AcDbCircle
10
71.12
20
71.12
40
1.6
0
CIRCLE
5
BC
100
AcDbEntity
8
plna
6
ByLayer
62
256
370
-1
100
AcDbCircle
10
71.12
20
-10.16
40
1.6
0
CIRCLE
5
BD
100
AcDbEntity
8
plna
6
ByLayer
62
256
370
-1
100
AcDbCircle
10
71.12
20
-20.32
40
1.6
0
CIRCLE
5
BE
100
AcDbEntity
8
plna
6
ByLayer
62
256
370
-1
100
AcDbCircle
10
71.12
20
-30.48
40
1.6
0
CIRCLE
5
BF
100
AcDbEntity
8
plna
6
ByLayer
62
256
370
-1
100
AcDbCircle
10
71.12
20
-40.64
40
1.6
0
CIRCLE
5
C0
100
AcDbEntity
8
plna
6
ByLayer
62
256
370
-1
100
AcDbCircle
10
71.12
20
-50.8
40
1.6
0
CIRCLE
5
C1
100
AcDbEntity
8
plna
6
ByLayer
62
256
370
-1
100
AcDbCircle
10
71.12
20
-60.96
40
1.6
0
CIRCLE
5
C2
100
AcDbEntity
8
plna
6
ByLayer
62
256
370
-1
100
AcDbCircle
10
71.12
20
-71.12
40
1.6
0
CIRCLE
5
C3
100
AcDbEntity
8
plna
6
ByLayer
62
256
370
-1
100
AcDbCircle
10
81.28
20
0
40
1.6
0
CIRCLE
5
C4
100
AcDbEntity
8
plna
6
ByLayer
62
256
370
-1
100
AcDbCircle
10
81.28
20
10.16
40
1.6
0
CIRCLE
5
C5
100
AcDbEntity
8
plna
6
ByLayer
62
256
370
-1
100
AcDbCircle
10
81.28
20
20.32
40
1.6
0
CIRCLE
5
C6
100
AcDbEntity
8
plna
6
ByLayer
62
256
370
-1
100
AcDbCircle
10
81.28
20
30.48
40
1.6
0
CIRCLE
5
C7
100
AcDbEntity
8
plna
6
ByLayer
62
256
370
-1
100
AcDbCircle
10
81.28
20
40.64
40
1.6
0
CIRCLE
5
C8
100
AcDbEntity
8
plna
6
ByLayer
62
256
370
-1
100
AcDbCircle
10
81.28
20
50.8
40
1.6
0
CIRCLE
5
C9
100
AcDbEntity
8
plna
6
ByLayer
62
256
370
-1
100
AcDbCircle
10
81.28
20
60.96
40
1.6
0
CIRCLE
5
CA
100
AcDbEntity
8
plna
6
ByLayer
62
256
370
-1
100
AcDbCircle
10
81.28
20
71.12
40
1.6
0
CIRCLE
5
CB
100
AcDbEntity
8
plna
6
ByLayer
62
256
370
-1
100
AcDbCircle
10
81.28
20
-10.16
40
1.6
0
CIRCLE
5
CC
100
AcDbEntity
8
plna
6
ByLayer
62
256
370
-1
100
AcDbCircle
10
81.28
20
-20.32
40
1.6
0
CIRCLE
5
CD
100
AcDbEntity
8
plna
6
ByLayer
62
256
370
-1
100
AcDbCircle
10
81.28
20
-30.48
40
1.6
0
CIRCLE
5
CE
100
AcDbEntity
8
plna
6
ByLayer
62
256
370
-1
100
AcDbCircle
10
81.28
20
-40.64
40
1.6
0
CIRCLE
5
CF
100
AcDbEntity
8
plna
6
ByLayer
62
256
370
-1
100
AcDbCircle
10
81.28
20
-50.8
40
1.6
0
CIRCLE
5
D0
100
AcDbEntity
8
plna
6
ByLayer
62
256
370
-1
100
AcDbCircle
10
81.28
20
-60.96
40
1.6
0
CIRCLE
5
D1
100
AcDbEntity
8
plna
6
ByLayer
62
256
370
-1
100
AcDbCircle
10
81.28
20
-71.12
40
1.6
0
CIRCLE
5
D2
100
AcDbEntity
8
plna
6
ByLayer
62
256
370
-1
100
AcDbCircle
10
91.44
20
0
40
1.6
0
CIRCLE
5
D3
100
AcDbEntity
8
plna
6
ByLayer
62
256
370
-1
100
AcDbCircle
10
91.44
20
10.16
40
1.6
0
CIRCLE
5
D4
100
AcDbEntity
8
plna
6
ByLayer
62
256
370
-1
100
AcDbCircle
10
91.44
20
20.32
40
1.6
0
CIRCLE
5
D5
100
AcDbEntity
8
plna
6
ByLayer
62
256
370
-1
100
AcDbCircle
10
91.44
20
30.48
40
1.6
0
CIRCLE
5
D6
100
AcDbEntity
8
plna
6
ByLayer
62
256
370
-1
100
AcDbCircle
10
91.44
20
40.64
40
1.6
0
CIRCLE
5
D7
100
AcDbEntity
8
plna
6
ByLayer
62
256
370
-1
100
AcDbCircle
10
91.44
20
50.8
40
1.6
0
CIRCLE
5
D8
100
AcDbEntity
8
plna
6
ByLayer
62
256
370
-1
100
AcDbCircle
10
91.44
20
60.96
40
1.6
0
CIRCLE
5
D9
100
AcDbEntity
8
plna
6
ByLayer
62
256
370
-1
100
AcDbCircle
10
91.44
20
71.12
40
1.6
0
CIRCLE
5
DA
100
AcDbEntity
8
plna
6
ByLayer
62
256
370
-1
100
AcDbCircle
10
91.44
20
-10.16
40
1.6
0
CIRCLE
5
DB
100
AcDbEntity
8
plna
6
ByLayer
62
256
370
-1
100
AcDbCircle
10
91.44
20
-20.32
40
1.6
0
CIRCLE
5
DC
100
AcDbEntity
8
plna
6
ByLayer
62
256
370
-1
100
AcDbCircle
10
91.44
20
-30.48
40
1.6
0
CIRCLE
5
DD
100
AcDbEntity
8
plna
6
ByLayer
62
256
370
-1
100
AcDbCircle
10
91.44
20
-40.64
40
1.6
0
CIRCLE
5
DE
100
AcDbEntity
8
plna
6
ByLayer
62
256
370
-1
100
AcDbCircle
10
91.44
20
-50.8
40
1.6
0
CIRCLE
5
DF
100
AcDbEntity
8
plna
6
ByLayer
62
256
370
-1
100
AcDbCircle
10
91.44
20
-60.96
40
1.6
0
CIRCLE
5
E0
100
AcDbEntity
8
plna
6
ByLayer
62
256
370
-1
100
AcDbCircle
10
91.44
20
-71.12
40
1.6
0
CIRCLE
5
E1
100
AcDbEntity
8
plna
6
ByLayer
62
256
370
-1
100
AcDbCircle
10
101.6
20
0
40
1.6
0
CIRCLE
5
E2
100
AcDbEntity
8
plna
6
ByLayer
62
256
370
-1
100
AcDbCircle
10
101.6
20
10.16
40
1.6
0
CIRCLE
5
E3
100
AcDbEntity
8
plna
6
ByLayer
62
256
370
-1
100
AcDbCircle
10
101.6
20
20.32
40
1.6
0
CIRCLE
5
E4
100
AcDbEntity
8
plna
6
ByLayer
62
256
370
-1
100
AcDbCircle
10
101.6
20
30.48
40
1.6
0
CIRCLE
5
E5
100
AcDbEntity
8
plna
6
ByLayer
62
256
370
-1
100
AcDbCircle
10
101.6
20
40.64
40
1.6
0
CIRCLE
5
E6
100
AcDbEntity
8
plna
6
ByLayer
62
256
370
-1
100
AcDbCircle
10
101.6
20
50.8
40
1.6
0
CIRCLE
5
E7
100
AcDbEntity
8
plna
6
ByLayer
62
256
370
-1
100
AcDbCircle
10
101.6
20
60.96
40
1.6
0
CIRCLE
5
E8
100
AcDbEntity
8
plna
6
ByLayer
62
256
370
-1
100
AcDbCircle
10
101.6
20
71.12
40
1.6
0
CIRCLE
5
E9
100
AcDbEntity
8
plna
6
ByLayer
62
256
370
-1
100
AcDbCircle
10
101.6
20
-10.16
40
1.6
0
CIRCLE
5
EA
100
AcDbEntity
8
plna
6
ByLayer
62
256
370
-1
100
AcDbCircle
10
101.6
20
-20.32
40
1.6
0
CIRCLE
5
EB
100
AcDbEntity
8
plna
6
ByLayer
62
256
370
-1
100
AcDbCircle
10
101.6
20
-30.48
40
1.6
0
CIRCLE
5
EC
100
AcDbEntity
8
plna
6
ByLayer
62
256
370
-1
100
AcDbCircle
10
101.6
20
-40.64
40
1.6
0
CIRCLE
5
ED
100
AcDbEntity
8
plna
6
ByLayer
62
256
370
-1
100
AcDbCircle
10
101.6
20
-50.8
40
1.6
0
CIRCLE
5
EE
100
AcDbEntity
8
plna
6
ByLayer
62
256
370
-1
100
AcDbCircle
10
101.6
20
-60.96
40
1.6
0
CIRCLE
5
EF
100
AcDbEntity
8
plna
6
ByLayer
62
256
370
-1
100
AcDbCircle
10
101.6
20
-71.12
40
1.6
0
CIRCLE
5
F0
100
AcDbEntity
8
plna
6
ByLayer
62
256
370
-1
100
AcDbCircle
10
-10.16
20
0
40
1.6
0
CIRCLE
5
F1
100
AcDbEntity
8
plna
6
ByLayer
62
256
370
-1
100
AcDbCircle
10
-10.16
20
10.16
40
1.6
0
CIRCLE
5
F2
100
AcDbEntity
8
plna
6
ByLayer
62
256
370
-1
100
AcDbCircle
10
-10.16
20
20.32
40
1.6
0
CIRCLE
5
F3
100
AcDbEntity
8
plna
6
ByLayer
62
256
370
-1
100
AcDbCircle
10
-10.16
20
30.48
40
1.6
0
CIRCLE
5
F4
100
AcDbEntity
8
plna
6
ByLayer
62
256
370
-1
100
AcDbCircle
10
-10.16
20
40.64
40
1.6
0
CIRCLE
5
F5
100
AcDbEntity
8
plna
6
ByLayer
62
256
370
-1
100
AcDbCircle
10
-10.16
20
50.8
40
1.6
0
CIRCLE
5
F6
100
AcDbEntity
8
plna
6
ByLayer
62
256
370
-1
100
AcDbCircle
10
-10.16
20
60.96
40
1.6
0
CIRCLE
5
F7
100
AcDbEntity
8
plna
6
ByLayer
62
256
370
-1
100
AcDbCircle
10
-10.16
20
71.12
40
1.6
0
CIRCLE
5
F8
100
AcDbEntity
8
plna
6
ByLayer
62
256
370
-1
100
AcDbCircle
10
-10.16
20
-10.16
40
1.6
0
CIRCLE
5
F9
100
AcDbEntity
8
plna
6
ByLayer
62
256
370
-1
100
AcDbCircle
10
-10.16
20
-20.32
40
1.6
0
CIRCLE
5
FA
100
AcDbEntity
8
plna
6
ByLayer
62
256
370
-1
100
AcDbCircle
10
-10.16
20
-30.48
40
1.6
0
CIRCLE
5
FB
100
AcDbEntity
8
plna
6
ByLayer
62
256
370
-1
100
AcDbCircle
10
-10.16
20
-40.64
40
1.6
0
CIRCLE
5
FC
100
AcDbEntity
8
plna
6
ByLayer
62
256
370
-1
100
AcDbCircle
10
-10.16
20
-50.8
40
1.6
0
CIRCLE
5
FD
100
AcDbEntity
8
plna
6
ByLayer
62
256
370
-1
100
AcDbCircle
10
-10.16
20
-60.96
40
1.6
0
CIRCLE
5
FE
100
AcDbEntity
8
plna
6
ByLayer
62
256
370
-1
100
AcDbCircle
10
-10.16
20
-71.12
40
1.6
0
CIRCLE
5
FF
100
AcDbEntity
8
plna
6
ByLayer
62
256
370
-1
100
AcDbCircle
10
-20.32
20
0
40
1.6
0
CIRCLE
5
100
100
AcDbEntity
8
plna
6
ByLayer
62
256
370
-1
100
AcDbCircle
10
-20.32
20
10.16
40
1.6
0
CIRCLE
5
101
100
AcDbEntity
8
plna
6
ByLayer
62
256
370
-1
100
AcDbCircle
10
-20.32
20
20.32
40
1.6
0
CIRCLE
5
102
100
AcDbEntity
8
plna
6
ByLayer
62
256
370
-1
100
AcDbCircle
10
-20.32
20
30.48
40
1.6
0
CIRCLE
5
103
100
AcDbEntity
8
plna
6
ByLayer
62
256
370
-1
100
AcDbCircle
10
-20.32
20
40.64
40
1.6
0
CIRCLE
5
104
100
AcDbEntity
8
plna
6
ByLayer
62
256
370
-1
100
AcDbCircle
10
-20.32
20
50.8
40
1.6
0
CIRCLE
5
105
100
AcDbEntity
8
plna
6
ByLayer
62
256
370
-1
100
AcDbCircle
10
-20.32
20
60.96
40
1.6
0
CIRCLE
5
106
100
AcDbEntity
8
plna
6
ByLayer
62
256
370
-1
100
AcDbCircle
10
-20.32
20
71.12
40
1.6
0
CIRCLE
5
107
100
AcDbEntity
8
plna
6
ByLayer
62
256
370
-1
100
AcDbCircle
10
-20.32
20
-10.16
40
1.6
0
CIRCLE
5
108
100
AcDbEntity
8
plna
6
ByLayer
62
256
370
-1
100
AcDbCircle
10
-20.32
20
-20.32
40
1.6
0
CIRCLE
5
109
100
AcDbEntity
8
plna
6
ByLayer
62
256
370
-1
100
AcDbCircle
10
-20.32
20
-30.48
40
1.6
0
CIRCLE
5
10A
100
AcDbEntity
8
plna
6
ByLayer
62
256
370
-1
100
AcDbCircle
10
-20.32
20
-40.64
40
1.6
0
CIRCLE
5
10B
100
AcDbEntity
8
plna
6
ByLayer
62
256
370
-1
100
AcDbCircle
10
-20.32
20
-50.8
40
1.6
0
CIRCLE
5
10C
100
AcDbEntity
8
plna
6
ByLayer
62
256
370
-1
100
AcDbCircle
10
-20.32
20
-60.96
40
1.6
0
CIRCLE
5
10D
100
AcDbEntity
8
plna
6
ByLayer
62
256
370
-1
100
AcDbCircle
10
-20.32
20
-71.12
40
1.6
0
CIRCLE
5
10E
100
AcDbEntity
8
plna
6
ByLayer
62
256
370
-1
100
AcDbCircle
10
-30.48
20
0
40
1.6
0
CIRCLE
5
10F
100
AcDbEntity
8
plna
6
ByLayer
62
256
370
-1
100
AcDbCircle
10
-30.48
20
10.16
40
1.6
0
CIRCLE
5
110
100
AcDbEntity
8
plna
6
ByLayer
62
256
370
-1
100
AcDbCircle
10
-30.48
20
20.32
40
1.6
0
CIRCLE
5
111
100
AcDbEntity
8
plna
6
ByLayer
62
256
370
-1
100
AcDbCircle
10
-30.48
20
30.48
40
1.6
0
CIRCLE
5
112
100
AcDbEntity
8
plna
6
ByLayer
62
256
370
-1
100
AcDbCircle
10
-30.48
20
40.64
40
1.6
0
CIRCLE
5
113
100
AcDbEntity
8
plna
6
ByLayer
62
256
370
-1
100
AcDbCircle
10
-30.48
20
50.8
40
1.6
0
CIRCLE
5
114
100
AcDbEntity
8
plna
6
ByLayer
62
256
370
-1
100
AcDbCircle
10
-30.48
20
60.96
40
1.6
0
CIRCLE
5
115
100
AcDbEntity
8
plna
6
ByLayer
62
256
370
-1
100
AcDbCircle
10
-30.48
20
71.12
40
1.6
0
CIRCLE
5
116
100
AcDbEntity
8
plna
6
ByLayer
62
256
370
-1
100
AcDbCircle
10
-30.48
20
-10.16
40
1.6
0
CIRCLE
5
117
100
AcDbEntity
8
plna
6
ByLayer
62
256
370
-1
100
AcDbCircle
10
-30.48
20
-20.32
40
1.6
0
CIRCLE
5
118
100
AcDbEntity
8
plna
6
ByLayer
62
256
370
-1
100
AcDbCircle
10
-30.48
20
-30.48
40
1.6
0
CIRCLE
5
119
100
AcDbEntity
8
plna
6
ByLayer
62
256
370
-1
100
AcDbCircle
10
-30.48
20
-40.64
40
1.6
0
CIRCLE
5
11A
100
AcDbEntity
8
plna
6
ByLayer
62
256
370
-1
100
AcDbCircle
10
-30.48
20
-50.8
40
1.6
0
CIRCLE
5
11B
100
AcDbEntity
8
plna
6
ByLayer
62
256
370
-1
100
AcDbCircle
10
-30.48
20
-60.96
40
1.6
0
CIRCLE
5
11C
100
AcDbEntity
8
plna
6
ByLayer
62
256
370
-1
100
AcDbCircle
10
-30.48
20
-71.12
40
1.6
0
CIRCLE
5
11D
100
AcDbEntity
8
plna
6
ByLayer
62
256
370
-1
100
AcDbCircle
10
-40.64
20
0
40
1.6
0
CIRCLE
5
11E
100
AcDbEntity
8
plna
6
ByLayer
62
256
370
-1
100
AcDbCircle
10
-40.64
20
10.16
40
1.6
0
CIRCLE
5
11F
100
AcDbEntity
8
plna
6
ByLayer
62
256
370
-1
100
AcDbCircle
10
-40.64
20
20.32
40
1.6
0
CIRCLE
5
120
100
AcDbEntity
8
plna
6
ByLayer
62
256
370
-1
100
AcDbCircle
10
-40.64
20
30.48
40
1.6
0
CIRCLE
5
121
100
AcDbEntity
8
plna
6
ByLayer
62
256
370
-1
100
AcDbCircle
10
-40.64
20
40.64
40
1.6
0
CIRCLE
5
122
100
AcDbEntity
8
plna
6
ByLayer
62
256
370
-1
100
AcDbCircle
10
-40.64
20
50.8
40
1.6
0
CIRCLE
5
123
100
AcDbEntity
8
plna
6
ByLayer
62
256
370
-1
100
AcDbCircle
10
-40.64
20
60.96
40
1.6
0
CIRCLE
5
124
100
AcDbEntity
8
plna
6
ByLayer
62
256
370
-1
100
AcDbCircle
10
-40.64
20
71.12
40
1.6
0
CIRCLE
5
125
100
AcDbEntity
8
plna
6
ByLayer
62
256
370
-1
100
AcDbCircle
10
-40.64
20
-10.16
40
1.6
0
CIRCLE
5
126
100
AcDbEntity
8
plna
6
ByLayer
62
256
370
-1
100
AcDbCircle
10
-40.64
20
-20.32
40
1.6
0
CIRCLE
5
127
100
AcDbEntity
8
plna
6
ByLayer
62
256
370
-1
100
AcDbCircle
10
-40.64
20
-30.48
40
1.6
0
CIRCLE
5
128
100
AcDbEntity
8
plna
6
ByLayer
62
256
370
-1
100
AcDbCircle
10
-40.64
20
-40.64
40
1.6
0
CIRCLE
5
129
100
AcDbEntity
8
plna
6
ByLayer
62
256
370
-1
100
AcDbCircle
10
-40.64
20
-50.8
40
1.6
0
CIRCLE
5
12A
100
AcDbEntity
8
plna
6
ByLayer
62
256
370
-1
100
AcDbCircle
10
-40.64
20
-60.96
40
1.6
0
CIRCLE
5
12B
100
AcDbEntity
8
plna
6
ByLayer
62
256
370
-1
100
AcDbCircle
10
-40.64
20
-71.12
40
1.6
0
CIRCLE
5
12C
100
AcDbEntity
8
plna
6
ByLayer
62
256
370
-1
100
AcDbCircle
10
-50.8
20
0
40
1.6
0
CIRCLE
5
12D
100
AcDbEntity
8
plna
6
ByLayer
62
256
370
-1
100
AcDbCircle
10
-50.8
20
10.16
40
1.6
0
CIRCLE
5
12E
100
AcDbEntity
8
plna
6
ByLayer
62
256
370
-1
100
AcDbCircle
10
-50.8
20
20.32
40
1.6
0
CIRCLE
5
12F
100
AcDbEntity
8
plna
6
ByLayer
62
256
370
-1
100
AcDbCircle
10
-50.8
20
30.48
40
1.6
0
CIRCLE
5
130
100
AcDbEntity
8
plna
6
ByLayer
62
256
370
-1
100
AcDbCircle
10
-50.8
20
40.64
40
1.6
0
CIRCLE
5
131
100
AcDbEntity
8
plna
6
ByLayer
62
256
370
-1
100
AcDbCircle
10
-50.8
20
50.8
40
1.6
0
CIRCLE
5
132
100
AcDbEntity
8
plna
6
ByLayer
62
256
370
-1
100
AcDbCircle
10
-50.8
20
60.96
40
1.6
0
CIRCLE
5
133
100
AcDbEntity
8
plna
6
ByLayer
62
256
370
-1
100
AcDbCircle
10
-50.8
20
71.12
40
1.6
0
CIRCLE
5
134
100
AcDbEntity
8
plna
6
ByLayer
62
256
370
-1
100
AcDbCircle
10
-50.8
20
-10.16
40
1.6
0
CIRCLE
5
135
100
AcDbEntity
8
plna
6
ByLayer
62
256
370
-1
100
AcDbCircle
10
-50.8
20
-20.32
40
1.6
0
CIRCLE
5
136
100
AcDbEntity
8
plna
6
ByLayer
62
256
370
-1
100
AcDbCircle
10
-50.8
20
-30.48
40
1.6
0
CIRCLE
5
137
100
AcDbEntity
8
plna
6
ByLayer
62
256
370
-1
100
AcDbCircle
10
-50.8
20
-40.64
40
1.6
0
CIRCLE
5
138
100
AcDbEntity
8
plna
6
ByLayer
62
256
370
-1
100
AcDbCircle
10
-50.8
20
-50.8
40
1.6
0
CIRCLE
5
139
100
AcDbEntity
8
plna
6
ByLayer
62
256
370
-1
100
AcDbCircle
10
-50.8
20
-60.96
40
1.6
0
CIRCLE
5
13A
100
AcDbEntity
8
plna
6
ByLayer
62
256
370
-1
100
AcDbCircle
10
-50.8
20
-71.12
40
1.6
0
CIRCLE
5
13B
100
AcDbEntity
8
plna
6
ByLayer
62
256
370
-1
100
AcDbCircle
10
-60.96
20
0
40
1.6
0
CIRCLE
5
13C
100
AcDbEntity
8
plna
6
ByLayer
62
256
370
-1
100
AcDbCircle
10
-60.96
20
10.16
40
1.6
0
CIRCLE
5
13D
100
AcDbEntity
8
plna
6
ByLayer
62
256
370
-1
100
AcDbCircle
10
-60.96
20
20.32
40
1.6
0
CIRCLE
5
13E
100
AcDbEntity
8
plna
6
ByLayer
62
256
370
-1
100
AcDbCircle
10
-60.96
20
30.48
40
1.6
0
CIRCLE
5
13F
100
AcDbEntity
8
plna
6
ByLayer
62
256
370
-1
100
AcDbCircle
10
-60.96
20
40.64
40
1.6
0
CIRCLE
5
140
100
AcDbEntity
8
plna
6
ByLayer
62
256
370
-1
100
AcDbCircle
10
-60.96
20
50.8
40
1.6
0
CIRCLE
5
141
100
AcDbEntity
8
plna
6
ByLayer
62
256
370
-1
100
AcDbCircle
10
-60.96
20
60.96
40
1.6
0
CIRCLE
5
142
100
AcDbEntity
8
plna
6
ByLayer
62
256
370
-1
100
AcDbCircle
10
-60.96
20
71.12
40
1.6
0
CIRCLE
5
143
100
AcDbEntity
8
plna
6
ByLayer
62
256
370
-1
100
AcDbCircle
10
-60.96
20
-10.16
40
1.6
0
CIRCLE
5
144
100
AcDbEntity
8
plna
6
ByLayer
62
256
370
-1
100
AcDbCircle
10
-60.96
20
-20.32
40
1.6
0
CIRCLE
5
145
100
AcDbEntity
8
plna
6
ByLayer
62
256
370
-1
100
AcDbCircle
10
-60.96
20
-30.48
40
1.6
0
CIRCLE
5
146
100
AcDbEntity
8
plna
6
ByLayer
62
256
370
-1
100
AcDbCircle
10
-60.96
20
-40.64
40
1.6
0
CIRCLE
5
147
100
AcDbEntity
8
plna
6
ByLayer
62
256
370
-1
100
AcDbCircle
10
-60.96
20
-50.8
40
1.6
0
CIRCLE
5
148
100
AcDbEntity
8
plna
6
ByLayer
62
256
370
-1
100
AcDbCircle
10
-60.96
20
-60.96
40
1.6
0
CIRCLE
5
149
100
AcDbEntity
8
plna
6
ByLayer
62
256
370
-1
100
AcDbCircle
10
-60.96
20
-71.12
40
1.6
0
CIRCLE
5
14A
100
AcDbEntity
8
plna
6
ByLayer
62
256
370
-1
100
AcDbCircle
10
-71.12
20
0
40
1.6
0
CIRCLE
5
14B
100
AcDbEntity
8
plna
6
ByLayer
62
256
370
-1
100
AcDbCircle
10
-71.12
20
10.16
40
1.6
0
CIRCLE
5
14C
100
AcDbEntity
8
plna
6
ByLayer
62
256
370
-1
100
AcDbCircle
10
-71.12
20
20.32
40
1.6
0
CIRCLE
5
14D
100
AcDbEntity
8
plna
6
ByLayer
62
256
370
-1
100
AcDbCircle
10
-71.12
20
30.48
40
1.6
0
CIRCLE
5
14E
100
AcDbEntity
8
plna
6
ByLayer
62
256
370
-1
100
AcDbCircle
10
-71.12
20
40.64
40
1.6
0
CIRCLE
5
14F
100
AcDbEntity
8
plna
6
ByLayer
62
256
370
-1
100
AcDbCircle
10
-71.12
20
50.8
40
1.6
0
CIRCLE
5
150
100
AcDbEntity
8
plna
6
ByLayer
62
256
370
-1
100
AcDbCircle
10
-71.12
20
60.96
40
1.6
0
CIRCLE
5
151
100
AcDbEntity
8
plna
6
ByLayer
62
256
370
-1
100
AcDbCircle
10
-71.12
20
71.12
40
1.6
0
CIRCLE
5
152
100
AcDbEntity
8
plna
6
ByLayer
62
256
370
-1
100
AcDbCircle
10
-71.12
20
-10.16
40
1.6
0
CIRCLE
5
153
100
AcDbEntity
8
plna
6
ByLayer
62
256
370
-1
100
AcDbCircle
10
-71.12
20
-20.32
40
1.6
0
CIRCLE
5
154
100
AcDbEntity
8
plna
6
ByLayer
62
256
370
-1
100
AcDbCircle
10
-71.12
20
-30.48
40
1.6
0
CIRCLE
5
155
100
AcDbEntity
8
plna
6
ByLayer
62
256
370
-1
100
AcDbCircle
10
-71.12
20
-40.64
40
1.6
0
CIRCLE
5
156
100
AcDbEntity
8
plna
6
ByLayer
62
256
370
-1
100
AcDbCircle
10
-71.12
20
-50.8
40
1.6
0
CIRCLE
5
157
100
AcDbEntity
8
plna
6
ByLayer
62
256
370
-1
100
AcDbCircle
10
-71.12
20
-60.96
40
1.6
0
CIRCLE
5
158
100
AcDbEntity
8
plna
6
ByLayer
62
256
370
-1
100
AcDbCircle
10
-71.12
20
-71.12
40
1.6
0
CIRCLE
5
159
100
AcDbEntity
8
plna
6
ByLayer
62
256
370
-1
100
AcDbCircle
10
-81.28
20
0
40
1.6
0
CIRCLE
5
15A
100
AcDbEntity
8
plna
6
ByLayer
62
256
370
-1
100
AcDbCircle
10
-81.28
20
10.16
40
1.6
0
CIRCLE
5
15B
100
AcDbEntity
8
plna
6
ByLayer
62
256
370
-1
100
AcDbCircle
10
-81.28
20
20.32
40
1.6
0
CIRCLE
5
15C
100
AcDbEntity
8
plna
6
ByLayer
62
256
370
-1
100
AcDbCircle
10
-81.28
20
30.48
40
1.6
0
CIRCLE
5
15D
100
AcDbEntity
8
plna
6
ByLayer
62
256
370
-1
100
AcDbCircle
10
-81.28
20
40.64
40
1.6
0
CIRCLE
5
15E
100
AcDbEntity
8
plna
6
ByLayer
62
256
370
-1
100
AcDbCircle
10
-81.28
20
50.8
40
1.6
0
CIRCLE
5
15F
100
AcDbEntity
8
plna
6
ByLayer
62
256
370
-1
100
AcDbCircle
10
-81.28
20
60.96
40
1.6
0
CIRCLE
5
160
100
AcDbEntity
8
plna
6
ByLayer
62
256
370
-1
100
AcDbCircle
10
-81.28
20
71.12
40
1.6
0
CIRCLE
5
161
100
AcDbEntity
8
plna
6
ByLayer
62
256
370
-1
100
AcDbCircle
10
-81.28
20
-10.16
40
1.6
0
CIRCLE
5
162
100
AcDbEntity
8
plna
6
ByLayer
62
256
370
-1
100
AcDbCircle
10
-81.28
20
-20.32
40
1.6
0
CIRCLE
5
163
100
AcDbEntity
8
plna
6
ByLayer
62
256
370
-1
100
AcDbCircle
10
-81.28
20
-30.48
40
1.6
0
CIRCLE
5
164
100
AcDbEntity
8
plna
6
ByLayer
62
256
370
-1
100
AcDbCircle
10
-81.28
20
-40.64
40
1.6
0
CIRCLE
5
165
100
AcDbEntity
8
plna
6
ByLayer
62
256
370
-1
100
AcDbCircle
10
-81.28
20
-50.8
40
1.6
0
CIRCLE
5
166
100
AcDbEntity
8
plna
6
ByLayer
62
256
370
-1
100
AcDbCircle
10
-81.28
20
-60.96
40
1.6
0
CIRCLE
5
167
100
AcDbEntity
8
plna
6
ByLayer
62
256
370
-1
100
AcDbCircle
10
-81.28
20
-71.12
40
1.6
0
CIRCLE
5
168
100
AcDbEntity
8
plna
6
ByLayer
62
256
370
-1
100
AcDbCircle
10
-91.44
20
0
40
1.6
0
CIRCLE
5
169
100
AcDbEntity
8
plna
6
ByLayer
62
256
370
-1
100
AcDbCircle
10
-91.44
20
10.16
40
1.6
0
CIRCLE
5
16A
100
AcDbEntity
8
plna
6
ByLayer
62
256
370
-1
100
AcDbCircle
10
-91.44
20
20.32
40
1.6
0
CIRCLE
5
16B
100
AcDbEntity
8
plna
6
ByLayer
62
256
370
-1
100
AcDbCircle
10
-91.44
20
30.48
40
1.6
0
CIRCLE
5
16C
100
AcDbEntity
8
plna
6
ByLayer
62
256
370
-1
100
AcDbCircle
10
-91.44
20
40.64
40
1.6
0
CIRCLE
5
16D
100
AcDbEntity
8
plna
6
ByLayer
62
256
370
-1
100
AcDbCircle
10
-91.44
20
50.8
40
1.6
0
CIRCLE
5
16E
100
AcDbEntity
8
plna
6
ByLayer
62
256
370
-1
100
AcDbCircle
10
-91.44
20
60.96
40
1.6
0
CIRCLE
5
16F
100
AcDbEntity
8
plna
6
ByLayer
62
256
370
-1
100
AcDbCircle
10
-91.44
20
71.12
40
1.6
0
CIRCLE
5
170
100
AcDbEntity
8
plna
6
ByLayer
62
256
370
-1
100
AcDbCircle
10
-91.44
20
-10.16
40
1.6
0
CIRCLE
5
171
100
AcDbEntity
8
plna
6
ByLayer
62
256
370
-1
100
AcDbCircle
10
-91.44
20
-20.32
40
1.6
0
CIRCLE
5
172
100
AcDbEntity
8
plna
6
ByLayer
62
256
370
-1
100
AcDbCircle
10
-91.44
20
-30.48
40
1.6
0
CIRCLE
5
173
100
AcDbEntity
8
plna
6
ByLayer
62
256
370
-1
100
AcDbCircle
10
-91.44
20
-40.64
40
1.6
0
CIRCLE
5
174
100
AcDbEntity
8
plna
6
ByLayer
62
256
370
-1
100
AcDbCircle
10
-91.44
20
-50.8
40
1.6
0
CIRCLE
5
175
100
AcDbEntity
8
plna
6
ByLayer
62
256
370
-1
100
AcDbCircle
10
-91.44
20
-60.96
40
1.6
0
CIRCLE
5
176
100
AcDbEntity
8
plna
6
ByLayer
62
256
370
-1
100
AcDbCircle
10
-91.44
20
-71.12
40
1.6
0
CIRCLE
5
177
100
AcDbEntity
8
plna
6
ByLayer
62
256
370
-1
100
AcDbCircle
10
-101.6
20
0
40
1.6
0
CIRCLE
5
178
100
AcDbEntity
8
plna
6
ByLayer
62
256
370
-1
100
AcDbCircle
10
-101.6
20
10.16
40
1.6
0
CIRCLE
5
179
100
AcDbEntity
8
plna
6
ByLayer
62
256
370
-1
100
AcDbCircle
10
-101.6
20
20.32
40
1.6
0
CIRCLE
5
17A
100
AcDbEntity
8
plna
6
ByLayer
62
256
370
-1
100
AcDbCircle
10
-101.6
20
30.48
40
1.6
0
CIRCLE
5
17B
100
AcDbEntity
8
plna
6
ByLayer
62
256
370
-1
100
AcDbCircle
10
-101.6
20
40.64
40
1.6
0
CIRCLE
5
17C
100
AcDbEntity
8
plna
6
ByLayer
62
256
370
-1
100
AcDbCircle
10
-101.6
20
50.8
40
1.6
0
CIRCLE
5
17D
100
AcDbEntity
8
plna
6
ByLayer
62
256
370
-1
100
AcDbCircle
10
-101.6
20
60.96
40
1.6
0
CIRCLE
5
17E
100
AcDbEntity
8
plna
6
ByLayer
62
256
370
-1
100
AcDbCircle
10
-101.6
20
71.12
40
1.6
0
CIRCLE
5
17F
100
AcDbEntity
8
plna
6
ByLayer
62
256
370
-1
100
AcDbCircle
10
-101.6
20
-10.16
40
1.6
0
CIRCLE
5
180
100
AcDbEntity
8
plna
6
ByLayer
62
256
370
-1
100
AcDbCircle
10
-101.6
20
-20.32
40
1.6
0
CIRCLE
5
181
100
AcDbEntity
8
plna
6
ByLayer
62
256
370
-1
100
AcDbCircle
10
-101.6
20
-30.48
40
1.6
0
CIRCLE
5
182
100
AcDbEntity
8
plna
6
ByLayer
62
256
370
-1
100
AcDbCircle
10
-101.6
20
-40.64
40
1.6
0
CIRCLE
5
183
100
AcDbEntity
8
plna
6
ByLayer
62
256
370
-1
100
AcDbCircle
10
-101.6
20
-50.8
40
1.6
0
CIRCLE
5
184
100
AcDbEntity
8
plna
6
ByLayer
62
256
370
-1
100
AcDbCircle
10
-101.6
20
-60.96
40
1.6
0
CIRCLE
5
185
100
AcDbEntity
8
plna
6
ByLayer
62
256
370
-1
100
AcDbCircle
10
-101.6
20
-71.12
40
1.6
0
CIRCLE
5
186
100
AcDbEntity
8
plna
6
ByLayer
62
256
370
-1
100
AcDbCircle
10
112.5
20
37.5
40
1.6
0
CIRCLE
5
187
100
AcDbEntity
8
plna
6
ByLayer
62
256
370
-1
100
AcDbCircle
10
112.5
20
-37.5
40
1.6
0
CIRCLE
5
188
100
AcDbEntity
8
plna
6
ByLayer
62
256
370
-1
100
AcDbCircle
10
-112.5
20
37.5
40
1.6
0
CIRCLE
5
189
100
AcDbEntity
8
plna
6
ByLayer
62
256
370
-1
100
AcDbCircle
10
-112.5
20
-37.5
40
1.6
0
DIMENSION
5
18A
100
AcDbEntity
8
koty
6
ByLayer
62
256
370
-1
100
AcDbDimension
10
129.6
20
37.5
30
0
11
126.475
21
18.75
31
0
70
32
71
5
3
Standard
53
0
210
0
220
0
230
1
100
AcDbAlignedDimension
13
117.5
23
0
33
0
14
112.5
24
37.5
34
0
100
AcDbRotatedDimension
50
90
0
LEADER
5
18B
100
AcDbEntity
8
koty
6
ByLayer
62
256
370
-1
100
AcDbLeader
3
Standard
71
1
72
0
73
3
74
0
75
0
40
1
41
10
76
3
76
3
10
112.88576
20
-35.71712
30
0
10
115.17952
20
-31.86688
30
0
10
136.72448
20
-31.86688
30
0
0
DIMENSION
5
18C
100
AcDbEntity
8
koty
6
ByLayer
62
256
370
-1
100
AcDbDimension
10
10.16
20
85.625
30
0
11
5.08
21
88.75
31
0
70
32
71
5
3
Standard
53
0
210
0
220
0
230
1
100
AcDbAlignedDimension
13
0
23
71.12
33
0
14
10.16
24
71.12
34
0
100
AcDbRotatedDimension
0
DIMENSION
5
18D
100
AcDbEntity
8
koty
6
ByLayer
62
256
370
-1
100
AcDbDimension
10
129.6
20
60.96
30
0
11
126.475
21
66.04
31
0
70
32
71
5
3
Standard
53
0
210
0
220
0
230
1
100
AcDbAlignedDimension
13
101.6
23
71.12
33
0
14
101.6
24
60.96
34
0
100
AcDbRotatedDimension
50
90
0
DIMENSION
5
18E
100
AcDbEntity
8
koty
6
ByLayer
62
256
370
-1
100
AcDbDimension
10
112.5
20
-83.5
30
0
11
56.25
21
-80.375
31
0
70
32
71
5
3
Standard
53
0
210
0
220
0
230
1
100
AcDbAlignedDimension
13
0
23
-75
33
0
14
112.5
24
-37.5
34
0
100
AcDbRotatedDimension
0
DIMENSION
5
18F
100
AcDbEntity
8
koty
6
ByLayer
62
256
370
-1
100
AcDbDimension
10
117.5
20
-92.578125
30
0
11
1.91344742785e-016
21
-89.453125
31
0
70
32
71
5
3
Standard
53
0
210
0
220
0
230
1
100
AcDbAlignedDimension
13
-117.5
23
-75
33
0
14
117.5
24
-75
34
0
100
AcDbRotatedDimension
0
DIMENSION
5
190
100
AcDbEntity
8
koty
6
ByLayer
62
256
370
-1
100
AcDbDimension
10
-132.5
20
-75
30
0
11
-135.625
21
3.82689485569e-016
31
0
70
32
71
5
3
Standard
53
0
210
0
220
0
230
1
100
AcDbAlignedDimension
13
-117.5
23
75
33
0
14
-117.5
24
-75
34
0
100
AcDbRotatedDimension
50
90
0
CIRCLE
5
191
100
AcDbEntity
8
plna
6
ByLayer
62
256
370
-1
100
AcDbCircle
10
-112.5
20
0
40
1.6
0
CIRCLE
5
192
100
AcDbEntity
8
plna
6
ByLayer
62
256
370
-1
100
AcDbCircle
10
112.5
20
0
40
1.6
0
ARC
5
193
100
AcDbEntity
8
plna
6
ByLayer
62
256
370
-1
100
AcDbCircle
10
-115.5
20
73
40
2
100
AcDbArc
50
90
51
180
0
LINE
5
194
100
AcDbEntity
8
plna
6
ByLayer
62
256
370
-1
100
AcDbLine
10
-115.5
20
75
11
115.5
21
75
0
ARC
5
195
100
AcDbEntity
8
plna
6
ByLayer
62
256
370
-1
100
AcDbCircle
10
115.5
20
73
40
2
100
AcDbArc
50
0
51
90
0
LINE
5
196
100
AcDbEntity
8
plna
6
ByLayer
62
256
370
-1
100
AcDbLine
10
117.5
20
73
11
117.5
21
-73
0
ARC
5
197
100
AcDbEntity
8
plna
6
ByLayer
62
256
370
-1
100
AcDbCircle
10
115.5
20
-73
40
2
100
AcDbArc
50
270
51
0
0
LINE
5
198
100
AcDbEntity
8
plna
6
ByLayer
62
256
370
-1
100
AcDbLine
10
115.5
20
-75
11
-115.5
21
-75
0
LINE
5
199
100
AcDbEntity
8
plna
6
ByLayer
62
256
370
-1
100
AcDbLine
10
-117.5
20
-73
11
-117.5
21
73
0
ARC
5
19A
100
AcDbEntity
8
plna
6
ByLayer
62
256
370
-1
100
AcDbCircle
10
-115.5
20
-73
40
2
100
AcDbArc
50
180
51
270
0
DIMENSION
5
19B
100
AcDbEntity
8
koty
6
ByLayer
62
256
370
-1
100
AcDbDimension
10
-115.5
20
73
30
0
11
-116.853752552
21
79.2783395038
31
0
70
36
71
5
3
Standard
53
0
210
0
220
0
230
1
100
AcDbRadialDimension
15
-116.819551014
25
74.5029255205
35
0
40
0
0
MTEXT
5
19C
100
AcDbEntity
8
koty
6
ByLayer
62
256
370
-1
100
AcDbMText
10
120.8
20
-24
30
0
40
5
41
28.6111111111
71
1
72
1
1
2x3x3,2\P
7
standard
210
0
220
0
230
1
50
0
73
2
44
1
0
MTEXT
5
19D
100
AcDbEntity
8
koty
6
ByLayer
62
256
370
-1
100
AcDbMText
10
7.26473180259
20
123.532893483
30
0
40
10
41
100.555555556
71
2
72
1
1
UNIBOX01 - MD\PMERITKO: 1:2
7
standard
210
0
220
0
230
1
50
0
73
2
44
1
0
LEADER
5
19E
100
AcDbEntity
8
koty
6
ByLayer
62
256
370
-1
100
AcDbLeader
3
Standard
71
1
72
0
73
3
74
0
75
0
40
1
41
10
76
3
76
3
10
101.512711002
20
73.0227675869
30
0
10
112.300165304
20
89.7571518256
30
0
10
143.417821946
20
89.7571518256
30
0
0
MTEXT
5
19F
100
AcDbEntity
8
koty
6
ByLayer
62
256
370
-1
100
AcDbMText
10
130.694157897
20
96.9487880274
30
0
40
5
41
34.1666666667
71
2
72
1
1
21x15x3,2
7

210
0
220
0
230
1
50
0
73
2
44
1
0
ENDSEC
0
SECTION
2
OBJECTS
0
DICTIONARY
5
C
330
0
100
AcDbDictionary
281
1
3
ACAD_GROUP
350
D
0
DICTIONARY
5
D
330
C
100
AcDbDictionary
281
1
0
ENDSEC
0
EOF
