*
*
G04 PADS 9.2 Build Number: 414666 generated Gerber (RS-274-X) file*
G04 PC Version=2.1*
*
%IN "IUC01.pcb"*%
*
%MOIN*%
*
%FSLAX35Y35*%
*
*
*
*
G04 PC Standard Apertures*
*
*
G04 Thermal Relief Aperture macro.*
%AMTER*
1,1,$1,0,0*
1,0,$1-$2,0,0*
21,0,$3,$4,0,0,45*
21,0,$3,$4,0,0,135*
%
*
*
G04 Annular Aperture macro.*
%AMANN*
1,1,$1,0,0*
1,0,$2,0,0*
%
*
*
G04 Odd Aperture macro.*
%AMODD*
1,1,$1,0,0*
1,0,$1-0.005,0,0*
%
*
*
G04 PC Custom Aperture Macros*
*
*
*
*
*
*
G04 PC Aperture Table*
*
%ADD024C,0.001*%
%ADD026C,0.00787*%
%ADD027C,0.00787*%
%ADD029C,0.005*%
%ADD036C,0.008*%
*
*
*
*
G04 PC Circuitry*
G04 Layer Name IUC01.pcb - circuitry*
%LPD*%
*
*
G04 PC Custom Flashes*
G04 Layer Name IUC01.pcb - flashes*
%LPD*%
*
*
G04 PC Circuitry*
G04 Layer Name IUC01.pcb - circuitry*
%LPD*%
*
G54D24*
G54D26*
G01X181623Y185542D02*
X178623D01*
X178060Y185678*
X177873Y185815*
X177685Y186087*
Y186360*
X177873Y186633*
X178060Y186769*
X178623Y186906*
X178998*
X181623Y184042D02*
Y182542D01*
X180123Y183360*
Y182951*
X179935Y182678*
X179748Y182542*
X179185Y182406*
X178810*
X178248Y182542*
X177873Y182815*
X177685Y183224*
Y183633*
X177873Y184042*
X178060Y184178*
X178435Y184315*
G54D27*
X187528Y200685D02*
Y161315D01*
X128472*
Y200685*
X187528*
G54D29*
X172005Y141994D02*
Y138994D01*
X171868Y138431*
X171732Y138244*
X171459Y138056*
X171186*
X170914Y138244*
X170777Y138431*
X170641Y138994*
Y139369*
X173232Y141244D02*
X173505Y141431D01*
X173914Y141994*
Y138056*
X213406Y164591D02*
X216406D01*
X216969Y164455*
X217156Y164318*
X217344Y164045*
Y163773*
X217156Y163500*
X216969Y163364*
X216406Y163227*
X216031*
X214344Y165955D02*
X214156D01*
X213781Y166091*
X213594Y166227*
X213406Y166500*
Y167045*
X213594Y167318*
X213781Y167455*
X214156Y167591*
X214531*
X214906Y167455*
X215469Y167182*
X217344Y165818*
Y167727*
X137432Y222594D02*
Y218656D01*
Y222594D02*
X138523Y218656D01*
X139614Y222594D02*
X138523Y218656D01*
X139614Y222594D02*
Y218656D01*
X140841Y221844D02*
X141114Y222031D01*
X141523Y222594*
Y218656*
X136818Y142594D02*
Y138656D01*
Y142594D02*
X137909Y138656D01*
X139000Y142594D02*
X137909Y138656D01*
X139000Y142594D02*
Y138656D01*
X140364Y141656D02*
Y141844D01*
X140500Y142219*
X140636Y142406*
X140909Y142594*
X141455*
X141727Y142406*
X141864Y142219*
X142000Y141844*
Y141469*
X141864Y141094*
X141591Y140531*
X140227Y138656*
X142136*
X216818Y142594D02*
Y138656D01*
Y142594D02*
X217909Y138656D01*
X219000Y142594D02*
X217909Y138656D01*
X219000Y142594D02*
Y138656D01*
X220500Y142594D02*
X222000D01*
X221182Y141094*
X221591*
X221864Y140906*
X222000Y140719*
X222136Y140156*
Y139781*
X222000Y139219*
X221727Y138844*
X221318Y138656*
X220909*
X220500Y138844*
X220364Y139031*
X220227Y139406*
X216750Y222594D02*
Y218656D01*
Y222594D02*
X217841Y218656D01*
X218932Y222594D02*
X217841Y218656D01*
X218932Y222594D02*
Y218656D01*
X221523Y222594D02*
X220159Y219969D01*
X222205*
X221523Y222594D02*
Y218656D01*
X213406Y174523D02*
X216406D01*
X216969Y174386*
X217156Y174250*
X217344Y173977*
Y173705*
X217156Y173432*
X216969Y173295*
X216406Y173159*
X216031*
X213406Y177114D02*
X216031Y175750D01*
Y177795*
X213406Y177114D02*
X217344D01*
G54D36*
X157800Y149400D02*
X187800D01*
Y129400*
X157800*
Y149400*
X206000Y161000D02*
Y171000D01*
X226000*
Y161000*
X206000*
Y171000D02*
Y181000D01*
X226000*
Y171000*
X206000*
X191200Y178650D02*
Y174900D01*
X191382Y174150*
X191745Y173650*
X192291Y173400*
X192655*
X193200Y173650*
X193564Y174150*
X193745Y174900*
Y178650*
X196291Y176900D02*
X195927Y176650D01*
X195564Y176150*
X195382Y175400*
Y174900*
X195564Y174150*
X195927Y173650*
X196291Y173400*
X196836*
X197200Y173650*
X197564Y174150*
X197745Y174900*
Y175400*
X197564Y176150*
X197200Y176650*
X196836Y176900*
X196291*
X199382D02*
Y174400D01*
X199564Y173650*
X199927Y173400*
X200473*
X200836Y173650*
X201382Y174400*
Y176900D02*
Y173400D01*
X203564Y178650D02*
Y174400D01*
X203745Y173650*
X204109Y173400*
X204473*
X203018Y176900D02*
X204291D01*
X193600Y168250D02*
Y163000D01*
X196145Y166500D02*
X195782Y166250D01*
X195418Y165750*
X195236Y165000*
Y164500*
X195418Y163750*
X195782Y163250*
X196145Y163000*
X196691*
X197055Y163250*
X197418Y163750*
X197600Y164500*
Y165000*
X197418Y165750*
X197055Y166250*
X196691Y166500*
X196145*
X199236D02*
Y164000D01*
X199418Y163250*
X199782Y163000*
X200327*
X200691Y163250*
X201236Y164000*
Y166500D02*
Y163000D01*
X203418Y168250D02*
Y164000D01*
X203600Y163250*
X203964Y163000*
X204327*
X202873Y166500D02*
X204145D01*
X191950Y128400D02*
X197200D01*
X191950D02*
Y130036D01*
X192200Y130582*
X192450Y130764*
X192950Y130945*
X193700*
X194200Y130764*
X194450Y130582*
X194700Y130036*
Y128400*
X191950Y133673D02*
X192200Y133309D01*
X192700Y132945*
X193200Y132764*
X193950Y132582*
X195200*
X195950Y132764*
X196450Y132945*
X196950Y133309*
X197200Y133673*
Y134400*
X196950Y134764*
X196450Y135127*
X195950Y135309*
X195200Y135491*
X193950*
X193200Y135309*
X192700Y135127*
X192200Y134764*
X191950Y134400*
Y133673*
Y137127D02*
X197200Y138036D01*
X191950Y138945D02*
X197200Y138036D01*
X191950Y138945D02*
X197200Y139855D01*
X191950Y140764D02*
X197200Y139855D01*
X191950Y142400D02*
X197200D01*
X191950D02*
Y144764D01*
X194450Y142400D02*
Y143855D01*
X197200Y142400D02*
Y144764D01*
X191950Y146400D02*
X197200D01*
X191950D02*
Y148036D01*
X192200Y148582*
X192450Y148764*
X192950Y148945*
X193450*
X193950Y148764*
X194200Y148582*
X194450Y148036*
Y146400*
Y147673D02*
X197200Y148945D01*
X149400Y208650D02*
Y203400D01*
X151582*
X154127Y206900D02*
X153764Y206650D01*
X153400Y206150*
X153218Y205400*
Y204900*
X153400Y204150*
X153764Y203650*
X154127Y203400*
X154673*
X155036Y203650*
X155400Y204150*
X155582Y204900*
Y205400*
X155400Y206150*
X155036Y206650*
X154673Y206900*
X154127*
X159400D02*
Y203400D01*
Y206150D02*
X159036Y206650D01*
X158673Y206900*
X158127*
X157764Y206650*
X157400Y206150*
X157218Y205400*
Y204900*
X157400Y204150*
X157764Y203650*
X158127Y203400*
X158673*
X159036Y203650*
X159400Y204150*
X163218Y208650D02*
Y203400D01*
Y206150D02*
X162855Y206650D01*
X162491Y206900*
X161945*
X161582Y206650*
X161218Y206150*
X161036Y205400*
Y204900*
X161218Y204150*
X161582Y203650*
X161945Y203400*
X162491*
X162855Y203650*
X163218Y204150*
X148745Y157900D02*
X148382Y158400D01*
X147836Y158650*
X147109*
X146564Y158400*
X146200Y157900*
Y157400*
X146382Y156900*
X146564Y156650*
X146927Y156400*
X148018Y155900*
X148382Y155650*
X148564Y155400*
X148745Y154900*
Y154150*
X148382Y153650*
X147836Y153400*
X147109*
X146564Y153650*
X146200Y154150*
X151291Y156900D02*
X150927Y156650D01*
X150564Y156150*
X150382Y155400*
Y154900*
X150564Y154150*
X150927Y153650*
X151291Y153400*
X151836*
X152200Y153650*
X152564Y154150*
X152745Y154900*
Y155400*
X152564Y156150*
X152200Y156650*
X151836Y156900*
X151291*
X154382D02*
Y154400D01*
X154564Y153650*
X154927Y153400*
X155473*
X155836Y153650*
X156382Y154400*
Y156900D02*
Y153400D01*
X158018Y156900D02*
Y153400D01*
Y155400D02*
X158200Y156150D01*
X158564Y156650*
X158927Y156900*
X159473*
X163291Y156150D02*
X162927Y156650D01*
X162564Y156900*
X162018*
X161655Y156650*
X161291Y156150*
X161109Y155400*
Y154900*
X161291Y154150*
X161655Y153650*
X162018Y153400*
X162564*
X162927Y153650*
X163291Y154150*
X164927Y155400D02*
X167109D01*
Y155900*
X166927Y156400*
X166745Y156650*
X166382Y156900*
X165836*
X165473Y156650*
X165109Y156150*
X164927Y155400*
Y154900*
X165109Y154150*
X165473Y153650*
X165836Y153400*
X166382*
X166745Y153650*
X167109Y154150*
X199900Y132636D02*
X204400D01*
X202150Y131000D02*
Y134273D01*
X199150Y138273D02*
Y136455D01*
X201400Y136273*
X201150Y136455*
X200900Y137000*
Y137545*
X201150Y138091*
X201650Y138455*
X202400Y138636*
X202900Y138455*
X203650Y138273*
X204150Y137909*
X204400Y137364*
Y136818*
X204150Y136273*
X203900Y136091*
X203400Y135909*
X199150Y140273D02*
X204400Y141727D01*
X199150Y143182D02*
X204400Y141727D01*
X0Y0D02*
M02*
