%
T1C.035F197S55
X014Y016
X013Y016
X014Y017
X013Y017
X014Y018
X013Y018
X01215Y01974
X01385Y01974
X01385Y02226
X01215Y02226
X012375Y024079
X014375Y025079
X012375Y026079
X018Y0295
X019Y0295
X019Y0285
X018Y0285
X01935Y01476
X01765Y01476
X01765Y01224
X01935Y01224
X02065Y01224
X02065Y01476
X02Y0255
X021Y0255
X022Y0255
X021Y0265
X02Y0265
X022Y0265
X02Y0285
X022Y0285
X02Y0295
X022Y0295
X023Y0295
X024Y0295
X023Y0285
X024Y0285
X02365Y01476
X02235Y01476
X02365Y01224
X02235Y01224
X02535Y01224
X02665Y01224
X02535Y01476
X02665Y01476
X026Y0255
X025Y0255
X026Y0265
X025Y0265
X025Y0285
X025Y0295
X02835Y01476
X02835Y01224
T2C.037F197S55
X018125Y017625
X019375Y017625
X019375Y02125
X019375Y022375
X018125Y023875
X024875Y022375
T3C.08F074S55
X015913Y014189
X015913Y026
X030087Y026
X030087Y014189
T4C.12598F035S794
X013Y013
X013Y029
X033Y029
X033Y013
M30
