*
*
G04 PADS Layout (Build Number 2006.45.1) generated Gerber (RS-274-X) file*
G04 PC Version=2.1*
*
%IN "ATMEGATQ4401A_.pcb"*%
*
%MOIN*%
*
%FSLAX35Y35*%
*
*
*
*
G04 PC Standard Apertures*
*
*
G04 Thermal Relief Aperture macro.*
%AMTER*
1,1,$1,0,0*
1,0,$1-$2,0,0*
21,0,$3,$4,0,0,45*
21,0,$3,$4,0,0,135*
%
*
*
G04 Annular Aperture macro.*
%AMANN*
1,1,$1,0,0*
1,0,$2,0,0*
%
*
*
G04 Odd Aperture macro.*
%AMODD*
1,1,$1,0,0*
1,0,$1-0.005,0,0*
%
*
*
G04 PC Custom Aperture Macros*
*
*
*
*
*
*
G04 PC Aperture Table*
*
%ADD024C,0.001*%
%ADD025C,0.01*%
%ADD036C,0.008*%
*
*
*
*
G04 PC Copper Outlines (0)*
G04 Layer Name ATMEGATQ4401A_.pcb - dark (0)*
%LPD*%
*
*
G04 PC Area=Custom_Thermal*
*
G04 PC Custom Flashes*
G04 Layer Name ATMEGATQ4401A_.pcb - flashes*
%LPD*%
*
*
G04 PC Circuitry*
G04 Layer Name ATMEGATQ4401A_.pcb - circuitry*
%LPD*%
*
G54D24*
G01X111000Y111000D02*
X111003D01*
X349000D02*
X349003D01*
X349000D02*
X349003D01*
X349000Y309000D02*
X349003D01*
G54D25*
X111000Y111000D02*
Y309000D01*
X349000*
Y111000*
X111000*
Y106000D02*
Y95000D01*
X349000Y106000D02*
Y95000D01*
X354000Y111000D02*
X365000D01*
X354000Y309000D02*
X365000D01*
G54D36*
X111000Y100000D02*
X214455D01*
X111000D02*
X121000Y102500D01*
Y97500*
X111000Y100000*
X349000D02*
X245545D01*
X349000D02*
X339000Y97500D01*
Y102500*
X349000Y100000*
X217636Y101000D02*
Y101250D01*
X217818Y101750*
X218000Y102000*
X218364Y102250*
X219091*
X219455Y102000*
X219636Y101750*
X219818Y101250*
Y100750*
X219636Y100250*
X219273Y99500*
X217455Y97000*
X220000*
X222000Y102250D02*
X224000D01*
X222909Y100250*
X223455*
X223818Y100000*
X224000Y99750*
X224182Y99000*
Y98500*
X224000Y97750*
X223636Y97250*
X223091Y97000*
X222545*
X222000Y97250*
X221818Y97500*
X221636Y98000*
X226727Y102250D02*
X226182Y102000D01*
X226000Y101500*
Y101000*
X226182Y100500*
X226545Y100250*
X227273Y100000*
X227818Y99750*
X228182Y99250*
X228364Y98750*
Y98000*
X228182Y97500*
X228000Y97250*
X227455Y97000*
X226727*
X226182Y97250*
X226000Y97500*
X225818Y98000*
Y98750*
X226000Y99250*
X226364Y99750*
X226909Y100000*
X227636Y100250*
X228000Y100500*
X228182Y101000*
Y101500*
X228000Y102000*
X227455Y102250*
X226727*
X231091D02*
X230545Y102000D01*
X230182Y101250*
X230000Y100000*
Y99250*
X230182Y98000*
X230545Y97250*
X231091Y97000*
X231455*
X232000Y97250*
X232364Y98000*
X232545Y99250*
Y100000*
X232364Y101250*
X232000Y102000*
X231455Y102250*
X231091*
X234182Y100500D02*
Y97000D01*
Y99500D02*
X234727Y100250D01*
X235091Y100500*
X235636*
X236000Y100250*
X236182Y99500*
Y97000*
Y99500D02*
X236727Y100250D01*
X237091Y100500*
X237636*
X238000Y100250*
X238182Y99500*
Y97000*
X239818Y102250D02*
X240000Y102000D01*
X240182Y102250*
X240000Y102500*
X239818Y102250*
X240000Y100500D02*
Y97000D01*
X241818Y102250D02*
Y97000D01*
X360000Y111000D02*
Y195364D01*
Y111000D02*
X357500Y121000D01*
X362500*
X360000Y111000*
Y309000D02*
Y224636D01*
Y309000D02*
X362500Y299000D01*
X357500*
X360000Y309000*
X358750Y198364D02*
X358500Y198727D01*
X357750Y199273*
X363000*
X359500Y203273D02*
X360250Y203091D01*
X360750Y202727*
X361000Y202182*
Y202000*
X360750Y201455*
X360250Y201091*
X359500Y200909*
X359250*
X358500Y201091*
X358000Y201455*
X357750Y202000*
Y202182*
X358000Y202727*
X358500Y203091*
X359500Y203273*
X360750*
X362000Y203091*
X362750Y202727*
X363000Y202182*
Y201818*
X362750Y201273*
X362250Y201091*
X357750Y205818D02*
X358000Y205273D01*
X358500Y205091*
X359000*
X359500Y205273*
X359750Y205636*
X360000Y206364*
X360250Y206909*
X360750Y207273*
X361250Y207455*
X362000*
X362500Y207273*
X362750Y207091*
X363000Y206545*
Y205818*
X362750Y205273*
X362500Y205091*
X362000Y204909*
X361250*
X360750Y205091*
X360250Y205455*
X360000Y206000*
X359750Y206727*
X359500Y207091*
X359000Y207273*
X358500*
X358000Y207091*
X357750Y206545*
Y205818*
Y210182D02*
X358000Y209636D01*
X358750Y209273*
X360000Y209091*
X360750*
X362000Y209273*
X362750Y209636*
X363000Y210182*
Y210545*
X362750Y211091*
X362000Y211455*
X360750Y211636*
X360000*
X358750Y211455*
X358000Y211091*
X357750Y210545*
Y210182*
X359500Y213273D02*
X363000D01*
X360500D02*
X359750Y213818D01*
X359500Y214182*
Y214727*
X359750Y215091*
X360500Y215273*
X363000*
X360500D02*
X359750Y215818D01*
X359500Y216182*
Y216727*
X359750Y217091*
X360500Y217273*
X363000*
X357750Y218909D02*
X358000Y219091D01*
X357750Y219273*
X357500Y219091*
X357750Y218909*
X359500Y219091D02*
X363000D01*
X357750Y220909D02*
X363000D01*
X0Y0D02*
M02*
