%
M48
M72
T01C0.0350
T02C0.0360
T03C0.0512
T04C0.0630
T05C0.1260
%
T01
X2180Y4680
X2180Y5680
X3180Y5680
X3180Y6680
X2180Y6680
X2180Y7680
X3180Y7680
X3180Y8680
X2180Y8680
T02
X3180Y4680
T03
X5680Y4680
X7680Y4680
X9680Y4680
X11680Y4680
X11680Y2711
X9680Y2711
X7680Y2711
X5680Y2711
T04
X5680Y11680
X7680Y11680
X9680Y11680
X11680Y11680
T05
X2680Y2680
X2680Y10680
X14680Y10680
X14680Y6680
X14680Y2680
M30
