M48
;DRILL file {KiCad no-vcs-found-ad9916e~61~ubuntu16.04.1} date Fri Dec  1 11:57:09 2017
;FORMAT={-:-/ absolute / metric / decimal}
FMAT,2
METRIC,TZ
T1C0.400
T2C0.800
T3C0.889
T4C3.000
%
G90
G05
M71
T1
X135.382Y-109.22
X137.414Y-131.064
T2
X142.593Y-119.634
X147.475Y-119.634
T3
X146.812Y-126.492
X146.812Y-129.032
X140.716Y-100.33
X140.716Y-102.87
X143.256Y-100.33
X143.256Y-102.87
X145.796Y-100.33
X145.796Y-102.87
X152.908Y-109.22
X152.908Y-111.76
X152.908Y-114.3
X139.192Y-126.492
X139.192Y-129.032
X130.81Y-109.22
X130.81Y-111.76
X130.81Y-114.3
X130.81Y-116.84
X130.81Y-119.38
X133.35Y-109.22
X133.35Y-111.76
X133.35Y-114.3
X133.35Y-116.84
X133.35Y-119.38
X141.732Y-126.492
X141.732Y-129.032
X144.272Y-126.492
X144.272Y-129.032
T4
X132.08Y-132.08
X152.4Y-132.08
X132.08Y-101.6
X152.4Y-101.6
T0
M30
