M48
;DRILL file {KiCad no-vcs-found-ad9916e~61~ubuntu16.04.1} date Thu Nov 30 19:23:22 2017
;FORMAT={-:-/ absolute / metric / decimal}
FMAT,2
METRIC,TZ
T1C0.400
T2C0.800
T3C0.889
T4C3.000
%
G90
G05
M71
T1
X135.382Y-109.22
X138.684Y-133.096
T2
X142.593Y-119.634
X147.475Y-119.634
T3
X147.574Y-127.508
X147.574Y-130.048
X140.716Y-100.33
X140.716Y-102.87
X143.256Y-100.33
X143.256Y-102.87
X145.796Y-100.33
X145.796Y-102.87
X152.908Y-109.22
X152.908Y-111.76
X152.908Y-114.3
X139.954Y-127.508
X139.954Y-130.048
X130.81Y-109.22
X130.81Y-111.76
X130.81Y-114.3
X130.81Y-116.84
X130.81Y-119.38
X133.35Y-109.22
X133.35Y-111.76
X133.35Y-114.3
X133.35Y-116.84
X133.35Y-119.38
X142.494Y-127.508
X142.494Y-130.048
X145.034Y-127.508
X145.034Y-130.048
T4
X132.08Y-132.08
X152.4Y-132.08
X132.08Y-101.6
X152.4Y-101.6
T0
M30
