M48
;DRILL file {KiCad (2018-02-10 revision a04965c36)-makepkg} date 07/08/18 19:26:08
;FORMAT={3:3/ absolute / metric / suppress leading zeros}
FMAT,2
METRIC,TZ
T1C0.400
T2C0.889
T3C3.000
%
G90
G05
M71
T1
X3302Y17399
X4572Y17526
X4826Y16129
X6731Y28448
X8128Y28448
X9271Y32385
X9779Y22860
X10795Y32385
X11176Y22860
X14351Y16383
X15621Y16383
T2
X14986Y11938
X17526Y14478
X17526Y11938
X14986Y26924
X14986Y14478
X14986Y29464
X1905Y25400
X1905Y22860
X4445Y25400
X4445Y22860
X14986Y24384
X17526Y29464
X17526Y26924
X17526Y24384
T3
X15240Y5080
X5080Y35560
X15240Y35560
X5080Y5080
T0
M30
