M48
;DRILL file {KiCad 4.0.1-stable} date 8. 8. 2016 15:41:06
;FORMAT={3:3/ absolute / metric / suppress leading zeros}
FMAT,2
METRIC,TZ
T1C0.400
T2C0.889
T3C3.000
%
G90
G05
M71
T1
X5588Y28448
X5588Y23876
X5588Y19304
X5588Y14732
X8636Y12192
X8636Y8636
X12192Y6096
X13716Y28448
X13716Y23876
X13716Y19304
X13716Y14732
X13716Y5588
X14732Y34544
X16766Y8636
X19812Y34544
X20828Y14732
X21844Y28448
X21844Y23876
X21844Y19304
X24384Y34544
X26416Y7804
X28448Y14732
X28956Y8636
X29972Y34544
X29972Y28448
X29972Y23876
X29972Y18796
X29972Y12700
X30988Y10160
X35560Y23368
X35560Y14732
X36068Y11176
X36576Y26416
X37084Y16764
T2
X21336Y5842
X21336Y3302
X23876Y5842
X23876Y3302
X26416Y5842
X26416Y3302
X28956Y5842
X28956Y3302
T3
X5080Y35560
X5080Y5080
X35560Y35560
X35560Y5080
T0
M30
