M48
;DRILL file {KiCad 4.0.1-stable} date 6. 6. 2016 12:29:07
;FORMAT={3:3/ absolute / metric / suppress leading zeros}
FMAT,2
METRIC,TZ
T1C0.800
T2C0.889
T3C0.900
T4C3.000
%
G90
G05
M71
T1
X24638Y55118
X34392Y59131
X35458Y25603
X35458Y25603
X43231Y25857
X43282Y25857
X44450Y104140
X44450Y38100
X46990Y104140
X46990Y38100
T2
X12497Y6147
X12497Y3607
X15037Y6147
X15037Y3607
X17577Y6147
X17577Y3607
X20117Y6147
X20117Y3607
X25298Y87325
X25298Y84785
X25298Y82245
X25298Y79705
X25298Y77165
X25298Y74625
X25298Y72085
X25298Y69545
X25908Y100127
X25908Y97587
X25908Y95047
X25908Y92507
X28448Y100127
X28448Y97587
X28448Y95047
X28448Y92507
X28499Y6147
X28499Y3607
X31039Y6147
X31039Y3607
X33579Y6147
X33579Y3607
X36068Y6147
X36068Y3607
X36119Y69698
X36170Y86157
X36982Y46228
X36982Y43688
X38608Y6147
X38608Y3607
X38659Y69698
X38710Y86157
X39522Y46228
X39522Y43688
X41199Y69698
X41250Y86157
X42062Y46228
X42062Y43688
X43739Y69698
X43790Y86157
X44602Y46228
X44602Y43688
X46279Y69698
X46330Y86157
X48666Y46228
X48666Y43688
X48819Y69698
X48870Y86157
X51359Y69698
X51410Y86157
X53899Y69698
X53950Y86157
T3
X35458Y125777
X35458Y17577
X40538Y125777
X40538Y17577
X45618Y125777
X45618Y17577
X50698Y125777
X50698Y17577
X55778Y125777
X55778Y17577
T4
X5080Y137160
X5080Y5080
X27527Y106704
X27527Y45744
X58007Y106704
X58007Y45744
X86360Y137160
X86360Y5080
T0
M30
