%
T1C.035F197S55
X0136Y0167
X0146Y0167
X0136Y0177
X0146Y0177
X0146Y0187
X0136Y0187
X0146Y0197
X0136Y0197
X0136Y0215
X0146Y0215
X0136Y0225
X0146Y0225
X0136Y0235
X0146Y0235
X0185Y0259
X0195Y0259
X0205Y0259
X0185Y0249
X0205Y0249
X0195Y0249
X0215Y0249
X0215Y0259
T2C.03543F197S55
X01825Y0177
X01925Y0177
X02025Y0177
X01975Y0187
X01875Y0187
X02075Y0187
X02175Y0187
X02125Y0177
T3C.03937F197S55
X01739Y013602
X01839Y013602
X02161Y013602
X02261Y013602
T4C.06299F089S55
X016949Y016401
X023051Y016401
T5C.12598F035S794
X01775Y0152
X02225Y0152
T6C.12598F035S794
X014Y014
X014Y026
X026Y026
X026Y014
M30
