*
*
G04 PADS Layout (Build Number 2006.45.1) generated Gerber (RS-274-X) file*
G04 PC Version=2.1*
*
%IN "MMA6260+11173.pcb"*%
*
%MOIN*%
*
%FSLAX35Y35*%
*
*
*
*
G04 PC Standard Apertures*
*
*
G04 Thermal Relief Aperture macro.*
%AMTER*
1,1,$1,0,0*
1,0,$1-$2,0,0*
21,0,$3,$4,0,0,45*
21,0,$3,$4,0,0,135*
%
*
*
G04 Annular Aperture macro.*
%AMANN*
1,1,$1,0,0*
1,0,$2,0,0*
%
*
*
G04 Odd Aperture macro.*
%AMODD*
1,1,$1,0,0*
1,0,$1-0.005,0,0*
%
*
*
G04 PC Custom Aperture Macros*
*
*
*
*
*
*
G04 PC Aperture Table*
*
%ADD024C,0.001*%
%ADD025C,0.01*%
*
*
*
*
G04 PC Copper Outlines (0)*
G04 Layer Name MMA6260+11173.pcb - dark (0)*
%LPD*%
*
*
G04 PC Area=Custom_Thermal*
*
G04 PC Custom Flashes*
G04 Layer Name MMA6260+11173.pcb - flashes*
%LPD*%
*
*
G04 PC Circuitry*
G04 Layer Name MMA6260+11173.pcb - circuitry*
%LPD*%
*
G54D24*
G01X212000Y188000D02*
X212003D01*
X109000D02*
X109003D01*
X212000Y105000D02*
X212003D01*
X212000Y188000D02*
X212003D01*
G54D25*
X109000Y105000D02*
Y188000D01*
X212000*
Y105000*
X109000*
X212000Y203000D02*
X178159D01*
X212000D02*
X202000Y200500D01*
Y205500*
X212000Y203000*
X109000D02*
X142841D01*
X109000D02*
X119000Y205500D01*
Y200500*
X109000Y203000*
X212000Y193000D02*
Y208000D01*
X109000Y193000D02*
Y208000D01*
X145841Y204562D02*
X146295Y204875D01*
X146977Y205812*
X146977D02*
Y199250D01*
X150386Y205812D02*
X149705Y205500D01*
X149250Y204562*
X149250D02*
X149023Y203000D01*
Y202062*
X149023D02*
X149250Y200500D01*
X149705Y199562*
X149705D02*
X150386Y199250D01*
X150841*
X151523Y199562*
X151523D02*
X151977Y200500D01*
X152205Y202062*
X152205D02*
Y203000D01*
X151977Y204562*
X151977D02*
X151523Y205500D01*
X150841Y205812*
X150841D02*
X150386D01*
X154705D02*
X157205D01*
X157205D02*
X155841Y203312D01*
X155841D02*
X156523D01*
X156523D02*
X156977Y203000D01*
X157205Y202687*
X157205D02*
X157432Y201750D01*
Y201125*
X157205Y200187*
X157205D02*
X156750Y199562D01*
X156750D02*
X156068Y199250D01*
X155386*
X154705Y199562*
X154705D02*
X154477Y199875D01*
X154250Y200500*
X160841Y205812D02*
X160159Y205500D01*
X159705Y204562*
X159705D02*
X159477Y203000D01*
Y202062*
X159477D02*
X159705Y200500D01*
X160159Y199562*
X160159D02*
X160841Y199250D01*
X161295*
X161977Y199562*
X161977D02*
X162432Y200500D01*
X162659Y202062*
X162659D02*
Y203000D01*
X162432Y204562*
X162432D02*
X161977Y205500D01*
X161295Y205812*
X161295D02*
X160841D01*
X164705Y203625D02*
Y199250D01*
Y202375D02*
X165386Y203312D01*
X165386D02*
X165841Y203625D01*
X166523*
X166977Y203312*
X166977D02*
X167205Y202375D01*
Y199250*
Y202375D02*
X167886Y203312D01*
X167886D02*
X168341Y203625D01*
X169023*
X169477Y203312*
X169477D02*
X169705Y202375D01*
Y199250*
X171750Y205812D02*
X171977Y205500D01*
X172205Y205812*
X172205D02*
X171977Y206125D01*
X171750Y205812*
X171977Y203625D02*
Y199250D01*
X174250Y205812D02*
Y199250D01*
X237000Y105000D02*
Y139750D01*
Y105000D02*
X234500Y115000D01*
X239500*
X237000Y105000*
Y188000D02*
Y153250D01*
Y188000D02*
X239500Y178000D01*
X234500*
X237000Y188000*
X217000Y105000D02*
X242000D01*
X217000Y188000D02*
X242000D01*
X225068Y149312D02*
X224386Y149000D01*
X224159Y148375*
Y147750*
X224386Y147125*
X224841Y146812*
X224841D02*
X225750Y146500D01*
X226432Y146187*
X226432D02*
X226886Y145562D01*
X226886D02*
X227114Y144937D01*
X227114D02*
Y144000D01*
X226886Y143375*
X226659Y143062*
X226659D02*
X225977Y142750D01*
X225068*
X224386Y143062*
X224386D02*
X224159Y143375D01*
X223932Y144000*
Y144937*
X223932D02*
X224159Y145562D01*
X224159D02*
X224614Y146187D01*
X224614D02*
X225295Y146500D01*
X226205Y146812*
X226205D02*
X226659Y147125D01*
X226886Y147750*
Y148375*
X226659Y149000*
X225977Y149312*
X225977D02*
X225068D01*
X229614D02*
X232114D01*
X232114D02*
X230750Y146812D01*
X230750D02*
X231432D01*
X231432D02*
X231886Y146500D01*
X232114Y146187*
X232114D02*
X232341Y145250D01*
Y144625*
X232114Y143687*
X232114D02*
X231659Y143062D01*
X231659D02*
X230977Y142750D01*
X230295*
X229614Y143062*
X229614D02*
X229386Y143375D01*
X229159Y144000*
X235750Y149312D02*
X235068Y149000D01*
X234614Y148062*
X234614D02*
X234386Y146500D01*
Y145562*
X234386D02*
X234614Y144000D01*
X235068Y143062*
X235068D02*
X235750Y142750D01*
X236205*
X236886Y143062*
X236886D02*
X237341Y144000D01*
X237568Y145562*
X237568D02*
Y146500D01*
X237341Y148062*
X237341D02*
X236886Y149000D01*
X236205Y149312*
X236205D02*
X235750D01*
X239614Y147125D02*
Y142750D01*
Y145875D02*
X240295Y146812D01*
X240295D02*
X240750Y147125D01*
X241432*
X241886Y146812*
X241886D02*
X242114Y145875D01*
Y142750*
Y145875D02*
X242795Y146812D01*
X242795D02*
X243250Y147125D01*
X243932*
X244386Y146812*
X244386D02*
X244614Y145875D01*
Y142750*
X246659Y149312D02*
X246886Y149000D01*
X247114Y149312*
X247114D02*
X246886Y149625D01*
X246659Y149312*
X246886Y147125D02*
Y142750D01*
X249159Y149312D02*
Y142750D01*
X0Y0D02*
M02*
