*
*
G04 PADS Layout (Build Number 2007.42.1) generated Gerber (RS-274-X) file*
G04 PC Version=2.1*
*
%IN "ADCMONOSPI.pcb"*%
*
%MOIN*%
*
%FSLAX35Y35*%
*
*
*
*
G04 PC Standard Apertures*
*
*
G04 Thermal Relief Aperture macro.*
%AMTER*
1,1,$1,0,0*
1,0,$1-$2,0,0*
21,0,$3,$4,0,0,45*
21,0,$3,$4,0,0,135*
%
*
*
G04 Annular Aperture macro.*
%AMANN*
1,1,$1,0,0*
1,0,$2,0,0*
%
*
*
G04 Odd Aperture macro.*
%AMODD*
1,1,$1,0,0*
1,0,$1-0.005,0,0*
%
*
*
G04 PC Custom Aperture Macros*
*
*
*
*
*
*
G04 PC Aperture Table*
*
%ADD025C,0.01*%
%ADD029C,0.005*%
%ADD036C,0.008*%
*
*
*
*
G04 PC Copper Outlines (0)*
G04 Layer Name ADCMONOSPI.pcb - dark (0)*
%LPD*%
*
*
G04 PC Area=Custom_Thermal*
*
G04 PC Custom Flashes*
G04 Layer Name ADCMONOSPI.pcb - flashes*
%LPD*%
*
*
G04 PC Circuitry*
G04 Layer Name ADCMONOSPI.pcb - circuitry*
%LPD*%
*
G54D25*
G01X185500Y198250D02*
X186955Y193000D01*
X188409Y198250D02*
X186955Y193000D01*
X190045Y196500D02*
Y193000D01*
Y195000D02*
X190227Y195750D01*
X190591Y196250*
X190955Y196500*
X191500*
X193136Y195000D02*
X195318D01*
Y195500*
X195136Y196000*
X194955Y196250*
X194591Y196500*
X194045*
X193682Y196250*
X193318Y195750*
X193136Y195000*
Y194500*
X193318Y193750*
X193682Y193250*
X194045Y193000*
X194591*
X194955Y193250*
X195318Y193750*
X198409Y198250D02*
X198045D01*
X197682Y198000*
X197500Y197250*
Y193000*
X196955Y196500D02*
X198227D01*
X187000Y188250D02*
Y183000D01*
X188636Y188250D02*
Y183000D01*
Y188250D02*
X191182Y183000D01*
Y188250D02*
Y183000D01*
X194455Y187500D02*
Y183000D01*
X192818Y185250D02*
X196091D01*
X187500Y177750D02*
Y172500D01*
X189136Y177750D02*
Y172500D01*
Y177750D02*
X191682Y172500D01*
Y177750D02*
Y172500D01*
X193318Y174750D02*
X196591D01*
X188727Y166000D02*
X188545Y166500D01*
X188182Y167000*
X187818Y167250*
X187091*
X186727Y167000*
X186364Y166500*
X186182Y166000*
X186000Y165250*
Y164000*
X186182Y163250*
X186364Y162750*
X186727Y162250*
X187091Y162000*
X187818*
X188182Y162250*
X188545Y162750*
X188727Y163250*
Y164000*
X187818D02*
X188727D01*
X190364Y167250D02*
Y162000D01*
Y167250D02*
X192909Y162000D01*
Y167250D02*
Y162000D01*
X194545Y167250D02*
Y162000D01*
Y167250D02*
X195818D01*
X196364Y167000*
X196727Y166500*
X196909Y166000*
X197091Y165250*
Y164000*
X196909Y163250*
X196727Y162750*
X196364Y162250*
X195818Y162000*
X194545*
X155500Y197250D02*
X156955Y192000D01*
X158409Y197250D02*
X156955Y192000D01*
X162227Y194750D02*
X161864Y195250D01*
X161500Y195500*
X160955*
X160591Y195250*
X160227Y194750*
X160045Y194000*
Y193500*
X160227Y192750*
X160591Y192250*
X160955Y192000*
X161500*
X161864Y192250*
X162227Y192750*
X166045Y194750D02*
X165682Y195250D01*
X165318Y195500*
X164773*
X164409Y195250*
X164045Y194750*
X163864Y194000*
Y193500*
X164045Y192750*
X164409Y192250*
X164773Y192000*
X165318*
X165682Y192250*
X166045Y192750*
X158545Y186500D02*
X158182Y187000D01*
X157636Y187250*
X156909*
X156364Y187000*
X156000Y186500*
Y186000*
X156182Y185500*
X156364Y185250*
X156727Y185000*
X157818Y184500*
X158182Y184250*
X158364Y184000*
X158545Y183500*
Y182750*
X158182Y182250*
X157636Y182000*
X156909*
X156364Y182250*
X156000Y182750*
X162909Y186000D02*
X162727Y186500D01*
X162364Y187000*
X162000Y187250*
X161273*
X160909Y187000*
X160545Y186500*
X160364Y186000*
X160182Y185250*
Y184000*
X160364Y183250*
X160545Y182750*
X160909Y182250*
X161273Y182000*
X162000*
X162364Y182250*
X162727Y182750*
X162909Y183250*
X164545Y187250D02*
Y182000D01*
X167091Y187250D02*
X164545Y183750D01*
X165455Y185000D02*
X167091Y182000D01*
X158545Y177000D02*
X158182Y177500D01*
X157636Y177750*
X156909*
X156364Y177500*
X156000Y177000*
Y176500*
X156182Y176000*
X156364Y175750*
X156727Y175500*
X157818Y175000*
X158182Y174750*
X158364Y174500*
X158545Y174000*
Y173250*
X158182Y172750*
X157636Y172500*
X156909*
X156364Y172750*
X156000Y173250*
X160182Y177750D02*
Y172500D01*
Y177750D02*
X161455D01*
X162000Y177500*
X162364Y177000*
X162545Y176500*
X162727Y175750*
Y174500*
X162545Y173750*
X162364Y173250*
X162000Y172750*
X161455Y172500*
X160182*
X165455Y177750D02*
X165091Y177500D01*
X164727Y177000*
X164545Y176500*
X164364Y175750*
Y174500*
X164545Y173750*
X164727Y173250*
X165091Y172750*
X165455Y172500*
X166182*
X166545Y172750*
X166909Y173250*
X167091Y173750*
X167273Y174500*
Y175750*
X167091Y176500*
X166909Y177000*
X166545Y177500*
X166182Y177750*
X165455*
X158727Y167000D02*
X158545Y167500D01*
X158182Y168000*
X157818Y168250*
X157091*
X156727Y168000*
X156364Y167500*
X156182Y167000*
X156000Y166250*
Y165000*
X156182Y164250*
X156364Y163750*
X156727Y163250*
X157091Y163000*
X157818*
X158182Y163250*
X158545Y163750*
X158727Y164250*
X161455Y168250D02*
X161091Y168000D01*
X160727Y167500*
X160545Y167000*
X160364Y166250*
Y165000*
X160545Y164250*
X160727Y163750*
X161091Y163250*
X161455Y163000*
X162182*
X162545Y163250*
X162909Y163750*
X163091Y164250*
X163273Y165000*
Y166250*
X163091Y167000*
X162909Y167500*
X162545Y168000*
X162182Y168250*
X161455*
X164909D02*
Y163000D01*
Y168250D02*
X167455Y163000D01*
Y168250D02*
Y163000D01*
X169091Y168250D02*
X170545Y163000D01*
X172000Y168250D02*
X170545Y163000D01*
X155955Y227750D02*
X154500Y222500D01*
X155955Y227750D02*
X157409Y222500D01*
X155045Y224250D02*
X156864D01*
X159045Y227750D02*
Y222500D01*
Y227750D02*
X160318D01*
X160864Y227500*
X161227Y227000*
X161409Y226500*
X161591Y225750*
Y224500*
X161409Y223750*
X161227Y223250*
X160864Y222750*
X160318Y222500*
X159045*
X165955Y226500D02*
X165773Y227000D01*
X165409Y227500*
X165045Y227750*
X164318*
X163955Y227500*
X163591Y227000*
X163409Y226500*
X163227Y225750*
Y224500*
X163409Y223750*
X163591Y223250*
X163955Y222750*
X164318Y222500*
X165045*
X165409Y222750*
X165773Y223250*
X165955Y223750*
X167591Y226000D02*
Y222500D01*
Y225000D02*
X168136Y225750D01*
X168500Y226000*
X169045*
X169409Y225750*
X169591Y225000*
Y222500*
Y225000D02*
X170136Y225750D01*
X170500Y226000*
X171045*
X171409Y225750*
X171591Y225000*
Y222500*
X174136Y226000D02*
X173773Y225750D01*
X173409Y225250*
X173227Y224500*
Y224000*
X173409Y223250*
X173773Y222750*
X174136Y222500*
X174682*
X175045Y222750*
X175409Y223250*
X175591Y224000*
Y224500*
X175409Y225250*
X175045Y225750*
X174682Y226000*
X174136*
X177227D02*
Y222500D01*
Y225000D02*
X177773Y225750D01*
X178136Y226000*
X178682*
X179045Y225750*
X179227Y225000*
Y222500*
X181773Y226000D02*
X181409Y225750D01*
X181045Y225250*
X180864Y224500*
Y224000*
X181045Y223250*
X181409Y222750*
X181773Y222500*
X182318*
X182682Y222750*
X183045Y223250*
X183227Y224000*
Y224500*
X183045Y225250*
X182682Y225750*
X182318Y226000*
X181773*
X187409Y227000D02*
X187045Y227500D01*
X186500Y227750*
X185773*
X185227Y227500*
X184864Y227000*
Y226500*
X185045Y226000*
X185227Y225750*
X185591Y225500*
X186682Y225000*
X187045Y224750*
X187227Y224500*
X187409Y224000*
Y223250*
X187045Y222750*
X186500Y222500*
X185773*
X185227Y222750*
X184864Y223250*
X189045Y227750D02*
Y222500D01*
Y227750D02*
X190682D01*
X191227Y227500*
X191409Y227250*
X191591Y226750*
Y226000*
X191409Y225500*
X191227Y225250*
X190682Y225000*
X189045*
X193227Y227750D02*
Y222500D01*
X195955Y227750D02*
X195409Y227500D01*
X195045Y226750*
X194864Y225500*
Y224750*
X195045Y223500*
X195409Y222750*
X195955Y222500*
X196318*
X196864Y222750*
X197227Y223500*
X197409Y224750*
Y225500*
X197227Y226750*
X196864Y227500*
X196318Y227750*
X195955*
X199045Y226750D02*
X199409Y227000D01*
X199955Y227750*
Y222500*
X203045Y227750D02*
X201591Y222500D01*
X203045Y227750D02*
X204500Y222500D01*
X202136Y224250D02*
X203955D01*
X153250Y127500D02*
X158500D01*
X153250Y130045D02*
X156750Y127500D01*
X155500Y128409D02*
X158500Y130045D01*
X153250Y133136D02*
X158500Y131682D01*
X153250Y133136D02*
X158500Y134591D01*
X156750Y132227D02*
Y134045D01*
X153250Y136227D02*
X158500D01*
X153250Y138773D02*
X156750Y136227D01*
X155500Y137136D02*
X158500Y138773D01*
X153250Y140409D02*
X158500D01*
Y142591*
X153250Y144227D02*
X158500D01*
X153250Y145864D02*
X158500D01*
X153250Y148409D02*
X156750Y145864D01*
X155500Y146773D02*
X158500Y148409D01*
X161500Y217500D02*
X162227Y214000D01*
X162955Y217500D02*
X162227Y214000D01*
X162955Y217500D02*
X163682Y214000D01*
X164409Y217500D02*
X163682Y214000D01*
X166045Y217500D02*
X166773Y214000D01*
X167500Y217500D02*
X166773Y214000D01*
X167500Y217500D02*
X168227Y214000D01*
X168955Y217500D02*
X168227Y214000D01*
X170591Y217500D02*
X171318Y214000D01*
X172045Y217500D02*
X171318Y214000D01*
X172045Y217500D02*
X172773Y214000D01*
X173500Y217500D02*
X172773Y214000D01*
X175318Y214500D02*
X175136Y214250D01*
X175318Y214000*
X175500Y214250*
X175318Y214500*
X177136Y217500D02*
Y214000D01*
Y216500D02*
X177682Y217250D01*
X178045Y217500*
X178591*
X178955Y217250*
X179136Y216500*
Y214000*
Y216500D02*
X179682Y217250D01*
X180045Y217500*
X180591*
X180955Y217250*
X181136Y216500*
Y214000*
X182773Y219250D02*
Y214000D01*
X186591Y217500D02*
Y214000D01*
Y216750D02*
X186227Y217250D01*
X185864Y217500*
X185318*
X184955Y217250*
X184591Y216750*
X184409Y216000*
Y215500*
X184591Y214750*
X184955Y214250*
X185318Y214000*
X185864*
X186227Y214250*
X186591Y214750*
X188227Y219250D02*
Y214000D01*
Y216750D02*
X188591Y217250D01*
X188955Y217500*
X189500*
X189864Y217250*
X190227Y216750*
X190409Y216000*
Y215500*
X190227Y214750*
X189864Y214250*
X189500Y214000*
X188955*
X188591Y214250*
X188227Y214750*
X192227Y214500D02*
X192045Y214250D01*
X192227Y214000*
X192409Y214250*
X192227Y214500*
X196227Y216750D02*
X195864Y217250D01*
X195500Y217500*
X194955*
X194591Y217250*
X194227Y216750*
X194045Y216000*
Y215500*
X194227Y214750*
X194591Y214250*
X194955Y214000*
X195500*
X195864Y214250*
X196227Y214750*
X199864Y217500D02*
X197864Y214000D01*
Y217500D02*
X199864D01*
X197864Y214000D02*
X199864D01*
X177500Y154750D02*
Y149500D01*
Y154750D02*
X179136D01*
X179682Y154500*
X179864Y154250*
X180045Y153750*
Y153000*
X179864Y152500*
X179682Y152250*
X179136Y152000*
X177500*
X182773Y154750D02*
X182409Y154500D01*
X182045Y154000*
X181864Y153500*
X181682Y152750*
Y151500*
X181864Y150750*
X182045Y150250*
X182409Y149750*
X182773Y149500*
X183500*
X183864Y149750*
X184227Y150250*
X184409Y150750*
X184591Y151500*
Y152750*
X184409Y153500*
X184227Y154000*
X183864Y154500*
X183500Y154750*
X182773*
X186227D02*
X187136Y149500D01*
X188045Y154750D02*
X187136Y149500D01*
X188045Y154750D02*
X188955Y149500D01*
X189864Y154750D02*
X188955Y149500D01*
X191500Y154750D02*
Y149500D01*
Y154750D02*
X193864D01*
X191500Y152250D02*
X192955D01*
X191500Y149500D02*
X193864D01*
X195500Y154750D02*
Y149500D01*
Y154750D02*
X197136D01*
X197682Y154500*
X197864Y154250*
X198045Y153750*
Y153250*
X197864Y152750*
X197682Y152500*
X197136Y152250*
X195500*
X196773D02*
X198045Y149500D01*
X225250Y177000D02*
X230500Y178455D01*
X225250Y179909D02*
X230500Y178455D01*
X227750Y183727D02*
X227250Y183364D01*
X227000Y183000*
Y182455*
X227250Y182091*
X227750Y181727*
X228500Y181545*
X229000*
X229750Y181727*
X230250Y182091*
X230500Y182455*
Y183000*
X230250Y183364*
X229750Y183727*
X227750Y187545D02*
X227250Y187182D01*
X227000Y186818*
Y186273*
X227250Y185909*
X227750Y185545*
X228500Y185364*
X229000*
X229750Y185545*
X230250Y185909*
X230500Y186273*
Y186818*
X230250Y187182*
X229750Y187545*
X163500Y140182D02*
X163250D01*
X162750Y140364*
X162500Y140545*
X162250Y140909*
Y141636*
X162500Y142000*
X162750Y142182*
X163250Y142364*
X163750*
X164250Y142182*
X165000Y141818*
X167500Y140000*
Y142545*
X162250Y145273D02*
X162500Y144727D01*
X163250Y144364*
X164500Y144182*
X165250*
X166500Y144364*
X167250Y144727*
X167500Y145273*
Y145636*
X167250Y146182*
X166500Y146545*
X165250Y146727*
X164500*
X163250Y146545*
X162500Y146182*
X162250Y145636*
Y145273*
Y149455D02*
X162500Y148909D01*
X163250Y148545*
X164500Y148364*
X165250*
X166500Y148545*
X167250Y148909*
X167500Y149455*
Y149818*
X167250Y150364*
X166500Y150727*
X165250Y150909*
X164500*
X163250Y150727*
X162500Y150364*
X162250Y149818*
Y149455*
Y153455D02*
X162500Y152909D01*
X163000Y152727*
X163500*
X164000Y152909*
X164250Y153273*
X164500Y154000*
X164750Y154545*
X165250Y154909*
X165750Y155091*
X166500*
X167000Y154909*
X167250Y154727*
X167500Y154182*
Y153455*
X167250Y152909*
X167000Y152727*
X166500Y152545*
X165750*
X165250Y152727*
X164750Y153091*
X164500Y153636*
X164250Y154364*
X164000Y154727*
X163500Y154909*
X163000*
X162500Y154727*
X162250Y154182*
Y153455*
G54D29*
X139406Y178591D02*
X142406D01*
X142969Y178455*
X143156Y178318*
X143344Y178045*
Y177773*
X143156Y177500*
X142969Y177364*
X142406Y177227*
X142031*
X140344Y179955D02*
X140156D01*
X139781Y180091*
X139594Y180227*
X139406Y180500*
Y181045*
X139594Y181318*
X139781Y181455*
X140156Y181591*
X140531*
X140906Y181455*
X141469Y181182*
X143344Y179818*
Y181727*
X186591Y139594D02*
Y136594D01*
X186455Y136031*
X186318Y135844*
X186045Y135656*
X185773*
X185500Y135844*
X185364Y136031*
X185227Y136594*
Y136969*
X188091Y139594D02*
X189591D01*
X188773Y138094*
X189182*
X189455Y137906*
X189591Y137719*
X189727Y137156*
Y136781*
X189591Y136219*
X189318Y135844*
X188909Y135656*
X188500*
X188091Y135844*
X187955Y136031*
X187818Y136406*
X217432Y222594D02*
Y218656D01*
Y222594D02*
X218523Y218656D01*
X219614Y222594D02*
X218523Y218656D01*
X219614Y222594D02*
Y218656D01*
X220841Y221844D02*
X221114Y222031D01*
X221523Y222594*
Y218656*
X216818Y142594D02*
Y138656D01*
Y142594D02*
X217909Y138656D01*
X219000Y142594D02*
X217909Y138656D01*
X219000Y142594D02*
Y138656D01*
X220364Y141656D02*
Y141844D01*
X220500Y142219*
X220636Y142406*
X220909Y142594*
X221455*
X221727Y142406*
X221864Y142219*
X222000Y141844*
Y141469*
X221864Y141094*
X221591Y140531*
X220227Y138656*
X222136*
X136818Y222594D02*
Y218656D01*
Y222594D02*
X137909Y218656D01*
X139000Y222594D02*
X137909Y218656D01*
X139000Y222594D02*
Y218656D01*
X140500Y222594D02*
X142000D01*
X141182Y221094*
X141591*
X141864Y220906*
X142000Y220719*
X142136Y220156*
Y219781*
X142000Y219219*
X141727Y218844*
X141318Y218656*
X140909*
X140500Y218844*
X140364Y219031*
X140227Y219406*
X136750Y142594D02*
Y138656D01*
Y142594D02*
X137841Y138656D01*
X138932Y142594D02*
X137841Y138656D01*
X138932Y142594D02*
Y138656D01*
X141523Y142594D02*
X140159Y139969D01*
X142205*
X141523Y142594D02*
Y138656D01*
X208406Y173523D02*
X211406D01*
X211969Y173386*
X212156Y173250*
X212344Y172977*
Y172705*
X212156Y172432*
X211969Y172295*
X211406Y172159*
X211031*
X208406Y176114D02*
X211031Y174750D01*
Y176795*
X208406Y176114D02*
X212344D01*
X209773Y196961D02*
Y194211D01*
X209636Y193695*
X209500Y193523*
X209227Y193352*
X208955*
X208682Y193523*
X208545Y193695*
X208409Y194211*
Y194555*
X212773Y196961D02*
X211409D01*
X211273Y195414*
X211409Y195586*
X211818Y195758*
X212227*
X212636Y195586*
X212909Y195242*
X213045Y194727*
X212909Y194383*
X212773Y193867*
X212500Y193523*
X212091Y193352*
X211682*
X211273Y193523*
X211136Y193695*
X211000Y194039*
G54D36*
X132000Y160000D02*
Y200000D01*
X152000*
Y160000*
X132000*
X173000Y147000D02*
X203000D01*
Y127000*
X173000*
Y147000*
X201000Y160000D02*
Y190000D01*
X221000*
Y160000*
X201000*
X231000Y190000D02*
X201000D01*
Y200000*
X231000*
Y190000*
X0Y0D02*
M02*
