solid OpenSCAD_Model
  facet normal 0.975917 0.218144 0
    outer loop
      vertex 17.3865 3.31665 3
      vertex 17.1439 4.40181 0
      vertex 17.1439 4.40181 3
    endloop
  endfacet
  facet normal 0.975917 0.218144 0
    outer loop
      vertex 17.1439 4.40181 0
      vertex 17.3865 3.31665 3
      vertex 17.3865 3.31665 0
    endloop
  endfacet
  facet normal 0.999507 0.0314112 0
    outer loop
      vertex 17.7 0 3
      vertex 17.6651 1.11139 0
      vertex 17.6651 1.11139 3
    endloop
  endfacet
  facet normal 0.999507 0.0314112 0
    outer loop
      vertex 17.6651 1.11139 0
      vertex 17.7 0 3
      vertex 17.7 0 0
    endloop
  endfacet
  facet normal 0.707107 0.707107 0
    outer loop
      vertex 12.9027 12.1165 3
      vertex 12.1165 12.9027 0
      vertex 12.1165 12.9027 3
    endloop
  endfacet
  facet normal 0.707107 0.707107 0
    outer loop
      vertex 12.1165 12.9027 0
      vertex 12.9027 12.1165 3
      vertex 12.9027 12.1165 0
    endloop
  endfacet
  facet normal -0.82708 -0.562084 0
    outer loop
      vertex -14.3196 -10.4038 0
      vertex -14.9446 -9.48413 3
      vertex -14.9446 -9.48413 0
    endloop
  endfacet
  facet normal -0.82708 -0.562084 0
    outer loop
      vertex -14.9446 -9.48413 3
      vertex -14.3196 -10.4038 0
      vertex -14.3196 -10.4038 3
    endloop
  endfacet
  facet normal 0.960294 0.27899 0
    outer loop
      vertex 17.1439 4.40181 3
      vertex 16.8337 5.4696 0
      vertex 16.8337 5.4696 3
    endloop
  endfacet
  facet normal 0.960294 0.27899 0
    outer loop
      vertex 16.8337 5.4696 0
      vertex 17.1439 4.40181 3
      vertex 17.1439 4.40181 0
    endloop
  endfacet
  facet normal -0.860742 0.509041 0
    outer loop
      vertex -15.5106 8.52704 0
      vertex -14.9446 9.48413 3
      vertex -14.9446 9.48413 0
    endloop
  endfacet
  facet normal -0.860742 0.509041 0
    outer loop
      vertex -14.9446 9.48413 3
      vertex -15.5106 8.52704 0
      vertex -15.5106 8.52704 3
    endloop
  endfacet
  facet normal 0.860742 -0.509041 0
    outer loop
      vertex 14.9446 -9.48413 3
      vertex 15.5106 -8.52704 0
      vertex 15.5106 -8.52704 3
    endloop
  endfacet
  facet normal 0.860742 -0.509041 0
    outer loop
      vertex 15.5106 -8.52704 0
      vertex 14.9446 -9.48413 3
      vertex 14.9446 -9.48413 0
    endloop
  endfacet
  facet normal 0.218144 -0.975917 0
    outer loop
      vertex 3.31665 -17.3865 0
      vertex 4.40181 -17.1439 3
      vertex 3.31665 -17.3865 3
    endloop
  endfacet
  facet normal 0.218144 -0.975917 0
    outer loop
      vertex 4.40181 -17.1439 3
      vertex 3.31665 -17.3865 0
      vertex 4.40181 -17.1439 0
    endloop
  endfacet
  facet normal 0.661311 -0.750112 0
    outer loop
      vertex 11.2824 -13.6381 0
      vertex 12.1165 -12.9027 3
      vertex 11.2824 -13.6381 3
    endloop
  endfacet
  facet normal 0.661311 -0.750112 0
    outer loop
      vertex 12.1165 -12.9027 3
      vertex 11.2824 -13.6381 0
      vertex 12.1165 -12.9027 0
    endloop
  endfacet
  facet normal 0.960294 -0.27899 0
    outer loop
      vertex 16.8337 -5.4696 3
      vertex 17.1439 -4.40181 0
      vertex 17.1439 -4.40181 3
    endloop
  endfacet
  facet normal 0.960294 -0.27899 0
    outer loop
      vertex 17.1439 -4.40181 0
      vertex 16.8337 -5.4696 3
      vertex 16.8337 -5.4696 0
    endloop
  endfacet
  facet normal -0.338739 -0.94088 0
    outer loop
      vertex -6.5158 -16.457 0
      vertex -5.4696 -16.8337 3
      vertex -6.5158 -16.457 3
    endloop
  endfacet
  facet normal -0.338739 -0.94088 -0
    outer loop
      vertex -5.4696 -16.8337 3
      vertex -6.5158 -16.457 0
      vertex -5.4696 -16.8337 0
    endloop
  endfacet
  facet normal -0.509041 -0.860742 0
    outer loop
      vertex -9.48413 -14.9446 0
      vertex -8.52704 -15.5106 3
      vertex -9.48413 -14.9446 3
    endloop
  endfacet
  facet normal -0.509041 -0.860742 -0
    outer loop
      vertex -8.52704 -15.5106 3
      vertex -9.48413 -14.9446 0
      vertex -8.52704 -15.5106 0
    endloop
  endfacet
  facet normal 0.917755 0.397148 0
    outer loop
      vertex 16.457 6.5158 3
      vertex 16.0154 7.53629 0
      vertex 16.0154 7.53629 3
    endloop
  endfacet
  facet normal 0.917755 0.397148 0
    outer loop
      vertex 16.0154 7.53629 0
      vertex 16.457 6.5158 3
      vertex 16.457 6.5158 0
    endloop
  endfacet
  facet normal 0.860742 0.509041 0
    outer loop
      vertex 15.5106 8.52704 3
      vertex 14.9446 9.48413 0
      vertex 14.9446 9.48413 3
    endloop
  endfacet
  facet normal 0.860742 0.509041 0
    outer loop
      vertex 14.9446 9.48413 0
      vertex 15.5106 8.52704 3
      vertex 15.5106 8.52704 0
    endloop
  endfacet
  facet normal 0.750112 0.661311 0
    outer loop
      vertex 13.6381 11.2824 3
      vertex 12.9027 12.1165 0
      vertex 12.9027 12.1165 3
    endloop
  endfacet
  facet normal 0.750112 0.661311 0
    outer loop
      vertex 12.9027 12.1165 0
      vertex 13.6381 11.2824 3
      vertex 13.6381 11.2824 0
    endloop
  endfacet
  facet normal 0.82708 0.562084 0
    outer loop
      vertex 14.9446 9.48413 3
      vertex 14.3196 10.4038 0
      vertex 14.3196 10.4038 3
    endloop
  endfacet
  facet normal 0.82708 0.562084 0
    outer loop
      vertex 14.3196 10.4038 0
      vertex 14.9446 9.48413 3
      vertex 14.9446 9.48413 0
    endloop
  endfacet
  facet normal 0.612907 0.790155 -0
    outer loop
      vertex 11.2824 13.6381 0
      vertex 10.4038 14.3196 3
      vertex 11.2824 13.6381 3
    endloop
  endfacet
  facet normal 0.612907 0.790155 0
    outer loop
      vertex 10.4038 14.3196 3
      vertex 11.2824 13.6381 0
      vertex 10.4038 14.3196 0
    endloop
  endfacet
  facet normal 0.562084 0.82708 -0
    outer loop
      vertex 10.4038 14.3196 0
      vertex 9.48413 14.9446 3
      vertex 10.4038 14.3196 3
    endloop
  endfacet
  facet normal 0.562084 0.82708 0
    outer loop
      vertex 9.48413 14.9446 3
      vertex 10.4038 14.3196 0
      vertex 9.48413 14.9446 0
    endloop
  endfacet
  facet normal -0.975917 0.218144 0
    outer loop
      vertex -17.3865 3.31665 0
      vertex -17.1439 4.40181 3
      vertex -17.1439 4.40181 0
    endloop
  endfacet
  facet normal -0.975917 0.218144 0
    outer loop
      vertex -17.1439 4.40181 3
      vertex -17.3865 3.31665 0
      vertex -17.3865 3.31665 3
    endloop
  endfacet
  facet normal -0.509041 0.860742 0
    outer loop
      vertex -8.52704 15.5106 0
      vertex -9.48413 14.9446 3
      vertex -8.52704 15.5106 3
    endloop
  endfacet
  facet normal -0.509041 0.860742 0
    outer loop
      vertex -9.48413 14.9446 3
      vertex -8.52704 15.5106 0
      vertex -9.48413 14.9446 0
    endloop
  endfacet
  facet normal 0.156433 -0.987689 0
    outer loop
      vertex 2.2184 -17.5604 0
      vertex 3.31665 -17.3865 3
      vertex 2.2184 -17.5604 3
    endloop
  endfacet
  facet normal 0.156433 -0.987689 0
    outer loop
      vertex 3.31665 -17.3865 3
      vertex 2.2184 -17.5604 0
      vertex 3.31665 -17.3865 0
    endloop
  endfacet
  facet normal 0.45399 -0.891007 0
    outer loop
      vertex 7.53629 -16.0154 0
      vertex 8.52704 -15.5106 3
      vertex 7.53629 -16.0154 3
    endloop
  endfacet
  facet normal 0.45399 -0.891007 0
    outer loop
      vertex 8.52704 -15.5106 3
      vertex 7.53629 -16.0154 0
      vertex 8.52704 -15.5106 0
    endloop
  endfacet
  facet normal 0.82708 -0.562084 0
    outer loop
      vertex 14.3196 -10.4038 3
      vertex 14.9446 -9.48413 0
      vertex 14.9446 -9.48413 3
    endloop
  endfacet
  facet normal 0.82708 -0.562084 0
    outer loop
      vertex 14.9446 -9.48413 0
      vertex 14.3196 -10.4038 3
      vertex 14.3196 -10.4038 0
    endloop
  endfacet
  facet normal -0.156433 -0.987689 0
    outer loop
      vertex -3.31665 -17.3865 0
      vertex -2.2184 -17.5604 3
      vertex -3.31665 -17.3865 3
    endloop
  endfacet
  facet normal -0.156433 -0.987689 -0
    outer loop
      vertex -2.2184 -17.5604 3
      vertex -3.31665 -17.3865 0
      vertex -2.2184 -17.5604 0
    endloop
  endfacet
  facet normal -0.09411 -0.995562 0
    outer loop
      vertex -2.2184 -17.5604 0
      vertex -1.11139 -17.6651 3
      vertex -2.2184 -17.5604 3
    endloop
  endfacet
  facet normal -0.09411 -0.995562 -0
    outer loop
      vertex -1.11139 -17.6651 3
      vertex -2.2184 -17.5604 0
      vertex -1.11139 -17.6651 0
    endloop
  endfacet
  facet normal -0.562084 -0.82708 0
    outer loop
      vertex -10.4038 -14.3196 0
      vertex -9.48413 -14.9446 3
      vertex -10.4038 -14.3196 3
    endloop
  endfacet
  facet normal -0.562084 -0.82708 -0
    outer loop
      vertex -9.48413 -14.9446 3
      vertex -10.4038 -14.3196 0
      vertex -9.48413 -14.9446 0
    endloop
  endfacet
  facet normal -0.790155 -0.612907 0
    outer loop
      vertex -13.6381 -11.2824 0
      vertex -14.3196 -10.4038 3
      vertex -14.3196 -10.4038 0
    endloop
  endfacet
  facet normal -0.790155 -0.612907 0
    outer loop
      vertex -14.3196 -10.4038 3
      vertex -13.6381 -11.2824 0
      vertex -13.6381 -11.2824 3
    endloop
  endfacet
  facet normal -0.917755 -0.397148 0
    outer loop
      vertex -16.0154 -7.53629 0
      vertex -16.457 -6.5158 3
      vertex -16.457 -6.5158 0
    endloop
  endfacet
  facet normal -0.917755 -0.397148 0
    outer loop
      vertex -16.457 -6.5158 3
      vertex -16.0154 -7.53629 0
      vertex -16.0154 -7.53629 3
    endloop
  endfacet
  facet normal -0.975917 -0.218144 0
    outer loop
      vertex -17.1439 -4.40181 0
      vertex -17.3865 -3.31665 3
      vertex -17.3865 -3.31665 0
    endloop
  endfacet
  facet normal -0.975917 -0.218144 0
    outer loop
      vertex -17.3865 -3.31665 3
      vertex -17.1439 -4.40181 0
      vertex -17.1439 -4.40181 3
    endloop
  endfacet
  facet normal 0.995562 0.09411 0
    outer loop
      vertex 17.6651 1.11139 3
      vertex 17.5604 2.2184 0
      vertex 17.5604 2.2184 3
    endloop
  endfacet
  facet normal 0.995562 0.09411 0
    outer loop
      vertex 17.5604 2.2184 0
      vertex 17.6651 1.11139 3
      vertex 17.6651 1.11139 0
    endloop
  endfacet
  facet normal 0.987689 0.156433 0
    outer loop
      vertex 17.5604 2.2184 3
      vertex 17.3865 3.31665 0
      vertex 17.3865 3.31665 3
    endloop
  endfacet
  facet normal 0.987689 0.156433 0
    outer loop
      vertex 17.3865 3.31665 0
      vertex 17.5604 2.2184 3
      vertex 17.5604 2.2184 0
    endloop
  endfacet
  facet normal 0.94088 0.338739 0
    outer loop
      vertex 16.8337 5.4696 3
      vertex 16.457 6.5158 0
      vertex 16.457 6.5158 3
    endloop
  endfacet
  facet normal 0.94088 0.338739 0
    outer loop
      vertex 16.457 6.5158 0
      vertex 16.8337 5.4696 3
      vertex 16.8337 5.4696 0
    endloop
  endfacet
  facet normal 0.790155 0.612907 0
    outer loop
      vertex 14.3196 10.4038 3
      vertex 13.6381 11.2824 0
      vertex 13.6381 11.2824 3
    endloop
  endfacet
  facet normal 0.790155 0.612907 0
    outer loop
      vertex 13.6381 11.2824 0
      vertex 14.3196 10.4038 3
      vertex 14.3196 10.4038 0
    endloop
  endfacet
  facet normal 0.891007 0.45399 0
    outer loop
      vertex 16.0154 7.53629 3
      vertex 15.5106 8.52704 0
      vertex 15.5106 8.52704 3
    endloop
  endfacet
  facet normal 0.891007 0.45399 0
    outer loop
      vertex 15.5106 8.52704 0
      vertex 16.0154 7.53629 3
      vertex 16.0154 7.53629 0
    endloop
  endfacet
  facet normal 0.33874 0.94088 -0
    outer loop
      vertex 6.5158 16.457 0
      vertex 6.15 16.5887 3
      vertex 6.5158 16.457 3
    endloop
  endfacet
  facet normal 0.33874 0.94088 0
    outer loop
      vertex 6.15 16.5887 3
      vertex 6.5158 16.457 0
      vertex 6.15 16.5887 0
    endloop
  endfacet
  facet normal 0.397148 0.917755 -0
    outer loop
      vertex 7.53629 16.0154 0
      vertex 6.5158 16.457 3
      vertex 7.53629 16.0154 3
    endloop
  endfacet
  facet normal 0.397148 0.917755 0
    outer loop
      vertex 6.5158 16.457 3
      vertex 7.53629 16.0154 0
      vertex 6.5158 16.457 0
    endloop
  endfacet
  facet normal 0.509041 0.860742 -0
    outer loop
      vertex 9.48413 14.9446 0
      vertex 8.52704 15.5106 3
      vertex 9.48413 14.9446 3
    endloop
  endfacet
  facet normal 0.509041 0.860742 0
    outer loop
      vertex 8.52704 15.5106 3
      vertex 9.48413 14.9446 0
      vertex 8.52704 15.5106 0
    endloop
  endfacet
  facet normal 0.661311 0.750112 -0
    outer loop
      vertex 12.1165 12.9027 0
      vertex 11.2824 13.6381 3
      vertex 12.1165 12.9027 3
    endloop
  endfacet
  facet normal 0.661311 0.750112 0
    outer loop
      vertex 11.2824 13.6381 3
      vertex 12.1165 12.9027 0
      vertex 11.2824 13.6381 0
    endloop
  endfacet
  facet normal -0.999507 0.0314112 0
    outer loop
      vertex -17.7 0 0
      vertex -17.6651 1.11139 3
      vertex -17.6651 1.11139 0
    endloop
  endfacet
  facet normal -0.999507 0.0314112 0
    outer loop
      vertex -17.6651 1.11139 3
      vertex -17.7 0 0
      vertex -17.7 0 3
    endloop
  endfacet
  facet normal -0.707107 0.707107 0
    outer loop
      vertex -12.9027 12.1165 0
      vertex -12.1165 12.9027 3
      vertex -12.1165 12.9027 0
    endloop
  endfacet
  facet normal -0.707107 0.707107 0
    outer loop
      vertex -12.1165 12.9027 3
      vertex -12.9027 12.1165 0
      vertex -12.9027 12.1165 3
    endloop
  endfacet
  facet normal -0.917755 0.397148 0
    outer loop
      vertex -16.457 6.5158 0
      vertex -16.0154 7.53629 3
      vertex -16.0154 7.53629 0
    endloop
  endfacet
  facet normal -0.917755 0.397148 0
    outer loop
      vertex -16.0154 7.53629 3
      vertex -16.457 6.5158 0
      vertex -16.457 6.5158 3
    endloop
  endfacet
  facet normal -0.891007 0.45399 0
    outer loop
      vertex -16.0154 7.53629 0
      vertex -15.5106 8.52704 3
      vertex -15.5106 8.52704 0
    endloop
  endfacet
  facet normal -0.891007 0.45399 0
    outer loop
      vertex -15.5106 8.52704 3
      vertex -16.0154 7.53629 0
      vertex -16.0154 7.53629 3
    endloop
  endfacet
  facet normal -0.94088 0.338739 0
    outer loop
      vertex -16.8337 5.4696 0
      vertex -16.457 6.5158 3
      vertex -16.457 6.5158 0
    endloop
  endfacet
  facet normal -0.94088 0.338739 0
    outer loop
      vertex -16.457 6.5158 3
      vertex -16.8337 5.4696 0
      vertex -16.8337 5.4696 3
    endloop
  endfacet
  facet normal -0.987689 0.156433 0
    outer loop
      vertex -17.5604 2.2184 0
      vertex -17.3865 3.31665 3
      vertex -17.3865 3.31665 0
    endloop
  endfacet
  facet normal -0.987689 0.156433 0
    outer loop
      vertex -17.3865 3.31665 3
      vertex -17.5604 2.2184 0
      vertex -17.5604 2.2184 3
    endloop
  endfacet
  facet normal -0.960294 0.27899 0
    outer loop
      vertex -17.1439 4.40181 0
      vertex -16.8337 5.4696 3
      vertex -16.8337 5.4696 0
    endloop
  endfacet
  facet normal -0.960294 0.27899 0
    outer loop
      vertex -16.8337 5.4696 3
      vertex -17.1439 4.40181 0
      vertex -17.1439 4.40181 3
    endloop
  endfacet
  facet normal -0.661311 0.750112 0
    outer loop
      vertex -11.2824 13.6381 0
      vertex -12.1165 12.9027 3
      vertex -11.2824 13.6381 3
    endloop
  endfacet
  facet normal -0.661311 0.750112 0
    outer loop
      vertex -12.1165 12.9027 3
      vertex -11.2824 13.6381 0
      vertex -12.1165 12.9027 0
    endloop
  endfacet
  facet normal -0.397148 0.917755 0
    outer loop
      vertex -6.5158 16.457 0
      vertex -7.53629 16.0154 3
      vertex -6.5158 16.457 3
    endloop
  endfacet
  facet normal -0.397148 0.917755 0
    outer loop
      vertex -7.53629 16.0154 3
      vertex -6.5158 16.457 0
      vertex -7.53629 16.0154 0
    endloop
  endfacet
  facet normal -0.562084 0.82708 0
    outer loop
      vertex -9.48413 14.9446 0
      vertex -10.4038 14.3196 3
      vertex -9.48413 14.9446 3
    endloop
  endfacet
  facet normal -0.562084 0.82708 0
    outer loop
      vertex -10.4038 14.3196 3
      vertex -9.48413 14.9446 0
      vertex -10.4038 14.3196 0
    endloop
  endfacet
  facet normal -0.45399 0.891007 0
    outer loop
      vertex -7.53629 16.0154 0
      vertex -8.52704 15.5106 3
      vertex -7.53629 16.0154 3
    endloop
  endfacet
  facet normal -0.45399 0.891007 0
    outer loop
      vertex -8.52704 15.5106 3
      vertex -7.53629 16.0154 0
      vertex -8.52704 15.5106 0
    endloop
  endfacet
  facet normal -0.33874 0.94088 0
    outer loop
      vertex -6.15 16.5887 0
      vertex -6.5158 16.457 3
      vertex -6.15 16.5887 3
    endloop
  endfacet
  facet normal -0.33874 0.94088 0
    outer loop
      vertex -6.5158 16.457 3
      vertex -6.15 16.5887 0
      vertex -6.5158 16.457 0
    endloop
  endfacet
  facet normal 0.995562 -0.09411 0
    outer loop
      vertex 17.5604 -2.2184 3
      vertex 17.6651 -1.11139 0
      vertex 17.6651 -1.11139 3
    endloop
  endfacet
  facet normal 0.995562 -0.09411 0
    outer loop
      vertex 17.6651 -1.11139 0
      vertex 17.5604 -2.2184 3
      vertex 17.5604 -2.2184 0
    endloop
  endfacet
  facet normal 0.0314112 -0.999507 0
    outer loop
      vertex 0 -17.7 0
      vertex 1.11139 -17.6651 3
      vertex 0 -17.7 3
    endloop
  endfacet
  facet normal 0.0314112 -0.999507 0
    outer loop
      vertex 1.11139 -17.6651 3
      vertex 0 -17.7 0
      vertex 1.11139 -17.6651 0
    endloop
  endfacet
  facet normal 0.09411 -0.995562 0
    outer loop
      vertex 1.11139 -17.6651 0
      vertex 2.2184 -17.5604 3
      vertex 1.11139 -17.6651 3
    endloop
  endfacet
  facet normal 0.09411 -0.995562 0
    outer loop
      vertex 2.2184 -17.5604 3
      vertex 1.11139 -17.6651 0
      vertex 2.2184 -17.5604 0
    endloop
  endfacet
  facet normal 0.27899 -0.960294 0
    outer loop
      vertex 4.40181 -17.1439 0
      vertex 5.4696 -16.8337 3
      vertex 4.40181 -17.1439 3
    endloop
  endfacet
  facet normal 0.27899 -0.960294 0
    outer loop
      vertex 5.4696 -16.8337 3
      vertex 4.40181 -17.1439 0
      vertex 5.4696 -16.8337 0
    endloop
  endfacet
  facet normal 0.338739 -0.94088 0
    outer loop
      vertex 5.4696 -16.8337 0
      vertex 6.5158 -16.457 3
      vertex 5.4696 -16.8337 3
    endloop
  endfacet
  facet normal 0.338739 -0.94088 0
    outer loop
      vertex 6.5158 -16.457 3
      vertex 5.4696 -16.8337 0
      vertex 6.5158 -16.457 0
    endloop
  endfacet
  facet normal 0.707107 -0.707107 0
    outer loop
      vertex 12.1165 -12.9027 3
      vertex 12.9027 -12.1165 0
      vertex 12.9027 -12.1165 3
    endloop
  endfacet
  facet normal 0.707107 -0.707107 0
    outer loop
      vertex 12.9027 -12.1165 0
      vertex 12.1165 -12.9027 3
      vertex 12.1165 -12.9027 0
    endloop
  endfacet
  facet normal 0.562084 -0.82708 0
    outer loop
      vertex 9.48413 -14.9446 0
      vertex 10.4038 -14.3196 3
      vertex 9.48413 -14.9446 3
    endloop
  endfacet
  facet normal 0.562084 -0.82708 0
    outer loop
      vertex 10.4038 -14.3196 3
      vertex 9.48413 -14.9446 0
      vertex 10.4038 -14.3196 0
    endloop
  endfacet
  facet normal 0.509041 -0.860742 0
    outer loop
      vertex 8.52704 -15.5106 0
      vertex 9.48413 -14.9446 3
      vertex 8.52704 -15.5106 3
    endloop
  endfacet
  facet normal 0.509041 -0.860742 0
    outer loop
      vertex 9.48413 -14.9446 3
      vertex 8.52704 -15.5106 0
      vertex 9.48413 -14.9446 0
    endloop
  endfacet
  facet normal 0.397148 -0.917755 0
    outer loop
      vertex 6.5158 -16.457 0
      vertex 7.53629 -16.0154 3
      vertex 6.5158 -16.457 3
    endloop
  endfacet
  facet normal 0.397148 -0.917755 0
    outer loop
      vertex 7.53629 -16.0154 3
      vertex 6.5158 -16.457 0
      vertex 7.53629 -16.0154 0
    endloop
  endfacet
  facet normal 0.750112 -0.661311 0
    outer loop
      vertex 12.9027 -12.1165 3
      vertex 13.6381 -11.2824 0
      vertex 13.6381 -11.2824 3
    endloop
  endfacet
  facet normal 0.750112 -0.661311 0
    outer loop
      vertex 13.6381 -11.2824 0
      vertex 12.9027 -12.1165 3
      vertex 12.9027 -12.1165 0
    endloop
  endfacet
  facet normal 0.790155 -0.612907 0
    outer loop
      vertex 13.6381 -11.2824 3
      vertex 14.3196 -10.4038 0
      vertex 14.3196 -10.4038 3
    endloop
  endfacet
  facet normal 0.790155 -0.612907 0
    outer loop
      vertex 14.3196 -10.4038 0
      vertex 13.6381 -11.2824 3
      vertex 13.6381 -11.2824 0
    endloop
  endfacet
  facet normal 0.917755 -0.397148 0
    outer loop
      vertex 16.0154 -7.53629 3
      vertex 16.457 -6.5158 0
      vertex 16.457 -6.5158 3
    endloop
  endfacet
  facet normal 0.917755 -0.397148 0
    outer loop
      vertex 16.457 -6.5158 0
      vertex 16.0154 -7.53629 3
      vertex 16.0154 -7.53629 0
    endloop
  endfacet
  facet normal 0.94088 -0.338739 0
    outer loop
      vertex 16.457 -6.5158 3
      vertex 16.8337 -5.4696 0
      vertex 16.8337 -5.4696 3
    endloop
  endfacet
  facet normal 0.94088 -0.338739 0
    outer loop
      vertex 16.8337 -5.4696 0
      vertex 16.457 -6.5158 3
      vertex 16.457 -6.5158 0
    endloop
  endfacet
  facet normal 0.975917 -0.218144 0
    outer loop
      vertex 17.1439 -4.40181 3
      vertex 17.3865 -3.31665 0
      vertex 17.3865 -3.31665 3
    endloop
  endfacet
  facet normal 0.975917 -0.218144 0
    outer loop
      vertex 17.3865 -3.31665 0
      vertex 17.1439 -4.40181 3
      vertex 17.1439 -4.40181 0
    endloop
  endfacet
  facet normal 0.999507 -0.0314112 0
    outer loop
      vertex 17.6651 -1.11139 3
      vertex 17.7 0 0
      vertex 17.7 0 3
    endloop
  endfacet
  facet normal 0.999507 -0.0314112 0
    outer loop
      vertex 17.7 0 0
      vertex 17.6651 -1.11139 3
      vertex 17.6651 -1.11139 0
    endloop
  endfacet
  facet normal -0.0314112 -0.999507 0
    outer loop
      vertex -1.11139 -17.6651 0
      vertex 0 -17.7 3
      vertex -1.11139 -17.6651 3
    endloop
  endfacet
  facet normal -0.0314112 -0.999507 -0
    outer loop
      vertex 0 -17.7 3
      vertex -1.11139 -17.6651 0
      vertex 0 -17.7 0
    endloop
  endfacet
  facet normal -0.707107 -0.707107 0
    outer loop
      vertex -12.1165 -12.9027 0
      vertex -12.9027 -12.1165 3
      vertex -12.9027 -12.1165 0
    endloop
  endfacet
  facet normal -0.707107 -0.707107 0
    outer loop
      vertex -12.9027 -12.1165 3
      vertex -12.1165 -12.9027 0
      vertex -12.1165 -12.9027 3
    endloop
  endfacet
  facet normal -0.397148 -0.917755 0
    outer loop
      vertex -7.53629 -16.0154 0
      vertex -6.5158 -16.457 3
      vertex -7.53629 -16.0154 3
    endloop
  endfacet
  facet normal -0.397148 -0.917755 -0
    outer loop
      vertex -6.5158 -16.457 3
      vertex -7.53629 -16.0154 0
      vertex -6.5158 -16.457 0
    endloop
  endfacet
  facet normal -0.218144 -0.975917 0
    outer loop
      vertex -4.40181 -17.1439 0
      vertex -3.31665 -17.3865 3
      vertex -4.40181 -17.1439 3
    endloop
  endfacet
  facet normal -0.218144 -0.975917 -0
    outer loop
      vertex -3.31665 -17.3865 3
      vertex -4.40181 -17.1439 0
      vertex -3.31665 -17.3865 0
    endloop
  endfacet
  facet normal -0.45399 -0.891007 0
    outer loop
      vertex -8.52704 -15.5106 0
      vertex -7.53629 -16.0154 3
      vertex -8.52704 -15.5106 3
    endloop
  endfacet
  facet normal -0.45399 -0.891007 -0
    outer loop
      vertex -7.53629 -16.0154 3
      vertex -8.52704 -15.5106 0
      vertex -7.53629 -16.0154 0
    endloop
  endfacet
  facet normal -0.661311 -0.750112 0
    outer loop
      vertex -12.1165 -12.9027 0
      vertex -11.2824 -13.6381 3
      vertex -12.1165 -12.9027 3
    endloop
  endfacet
  facet normal -0.661311 -0.750112 -0
    outer loop
      vertex -11.2824 -13.6381 3
      vertex -12.1165 -12.9027 0
      vertex -11.2824 -13.6381 0
    endloop
  endfacet
  facet normal -0.612907 -0.790155 0
    outer loop
      vertex -11.2824 -13.6381 0
      vertex -10.4038 -14.3196 3
      vertex -11.2824 -13.6381 3
    endloop
  endfacet
  facet normal -0.612907 -0.790155 -0
    outer loop
      vertex -10.4038 -14.3196 3
      vertex -11.2824 -13.6381 0
      vertex -10.4038 -14.3196 0
    endloop
  endfacet
  facet normal -0.750112 -0.661311 0
    outer loop
      vertex -12.9027 -12.1165 0
      vertex -13.6381 -11.2824 3
      vertex -13.6381 -11.2824 0
    endloop
  endfacet
  facet normal -0.750112 -0.661311 0
    outer loop
      vertex -13.6381 -11.2824 3
      vertex -12.9027 -12.1165 0
      vertex -12.9027 -12.1165 3
    endloop
  endfacet
  facet normal -0.860742 -0.509041 0
    outer loop
      vertex -14.9446 -9.48413 0
      vertex -15.5106 -8.52704 3
      vertex -15.5106 -8.52704 0
    endloop
  endfacet
  facet normal -0.860742 -0.509041 0
    outer loop
      vertex -15.5106 -8.52704 3
      vertex -14.9446 -9.48413 0
      vertex -14.9446 -9.48413 3
    endloop
  endfacet
  facet normal -0.987689 -0.156433 0
    outer loop
      vertex -17.3865 -3.31665 0
      vertex -17.5604 -2.2184 3
      vertex -17.5604 -2.2184 0
    endloop
  endfacet
  facet normal -0.987689 -0.156433 0
    outer loop
      vertex -17.5604 -2.2184 3
      vertex -17.3865 -3.31665 0
      vertex -17.3865 -3.31665 3
    endloop
  endfacet
  facet normal -0.999507 -0.0314112 0
    outer loop
      vertex -17.6651 -1.11139 0
      vertex -17.7 0 3
      vertex -17.7 0 0
    endloop
  endfacet
  facet normal -0.999507 -0.0314112 0
    outer loop
      vertex -17.7 0 3
      vertex -17.6651 -1.11139 0
      vertex -17.6651 -1.11139 3
    endloop
  endfacet
  facet normal 0 0 -1
    outer loop
      vertex 6.15 -9.5 0
      vertex 17.7 0 0
      vertex 17.6651 -1.11139 0
    endloop
  endfacet
  facet normal 0 0 -1
    outer loop
      vertex 6.15 -9.5 0
      vertex 17.6651 -1.11139 0
      vertex 17.5604 -2.2184 0
    endloop
  endfacet
  facet normal -0 0 -1
    outer loop
      vertex 17.7 0 0
      vertex 6.15 -9.5 0
      vertex 17.6651 1.11139 0
    endloop
  endfacet
  facet normal 0 0 -1
    outer loop
      vertex 6.15 -9.5 0
      vertex 17.5604 -2.2184 0
      vertex 17.3865 -3.31665 0
    endloop
  endfacet
  facet normal -0 0 -1
    outer loop
      vertex 17.6651 1.11139 0
      vertex 6.15 -9.5 0
      vertex 17.5604 2.2184 0
    endloop
  endfacet
  facet normal 0 0 -1
    outer loop
      vertex 6.15 -9.5 0
      vertex 17.3865 -3.31665 0
      vertex 17.1439 -4.40181 0
    endloop
  endfacet
  facet normal -0 0 -1
    outer loop
      vertex 17.5604 2.2184 0
      vertex 6.15 -9.5 0
      vertex 17.3865 3.31665 0
    endloop
  endfacet
  facet normal 0 0 -1
    outer loop
      vertex 6.15 -9.5 0
      vertex 17.1439 -4.40181 0
      vertex 16.8337 -5.4696 0
    endloop
  endfacet
  facet normal -0 0 -1
    outer loop
      vertex 17.3865 3.31665 0
      vertex 6.15 -9.5 0
      vertex 17.1439 4.40181 0
    endloop
  endfacet
  facet normal 0 0 -1
    outer loop
      vertex 6.15 -9.5 0
      vertex 16.8337 -5.4696 0
      vertex 16.457 -6.5158 0
    endloop
  endfacet
  facet normal -0 0 -1
    outer loop
      vertex 17.1439 4.40181 0
      vertex 6.15 -9.5 0
      vertex 16.8337 5.4696 0
    endloop
  endfacet
  facet normal 0 0 -1
    outer loop
      vertex 6.15 -9.5 0
      vertex 16.457 -6.5158 0
      vertex 16.0154 -7.53629 0
    endloop
  endfacet
  facet normal -0 0 -1
    outer loop
      vertex 16.8337 5.4696 0
      vertex 6.15 -9.5 0
      vertex 16.457 6.5158 0
    endloop
  endfacet
  facet normal 0 0 -1
    outer loop
      vertex 6.15 -9.5 0
      vertex 16.0154 -7.53629 0
      vertex 15.5106 -8.52704 0
    endloop
  endfacet
  facet normal -0 0 -1
    outer loop
      vertex 16.457 6.5158 0
      vertex 6.15 -9.5 0
      vertex 16.0154 7.53629 0
    endloop
  endfacet
  facet normal 0 0 -1
    outer loop
      vertex 6.15 -9.5 0
      vertex 15.5106 -8.52704 0
      vertex 14.9446 -9.48413 0
    endloop
  endfacet
  facet normal -0 0 -1
    outer loop
      vertex 16.0154 7.53629 0
      vertex 6.15 -9.5 0
      vertex 15.5106 8.52704 0
    endloop
  endfacet
  facet normal 0 0 -1
    outer loop
      vertex 6.15 -9.5 0
      vertex 14.9446 -9.48413 0
      vertex 14.3196 -10.4038 0
    endloop
  endfacet
  facet normal -0 0 -1
    outer loop
      vertex 15.5106 8.52704 0
      vertex 6.15 -9.5 0
      vertex 14.9446 9.48413 0
    endloop
  endfacet
  facet normal 0 0 -1
    outer loop
      vertex 6.15 -9.5 0
      vertex 14.3196 -10.4038 0
      vertex 13.6381 -11.2824 0
    endloop
  endfacet
  facet normal -0 0 -1
    outer loop
      vertex 14.9446 9.48413 0
      vertex 6.15 -9.5 0
      vertex 14.3196 10.4038 0
    endloop
  endfacet
  facet normal 0 0 -1
    outer loop
      vertex 6.15 -9.5 0
      vertex 13.6381 -11.2824 0
      vertex 12.9027 -12.1165 0
    endloop
  endfacet
  facet normal -0 0 -1
    outer loop
      vertex 14.3196 10.4038 0
      vertex 6.15 -9.5 0
      vertex 13.6381 11.2824 0
    endloop
  endfacet
  facet normal 0 0 -1
    outer loop
      vertex 6.15 -9.5 0
      vertex 12.9027 -12.1165 0
      vertex 12.1165 -12.9027 0
    endloop
  endfacet
  facet normal -0 0 -1
    outer loop
      vertex 13.6381 11.2824 0
      vertex 6.15 -9.5 0
      vertex 12.9027 12.1165 0
    endloop
  endfacet
  facet normal 0 0 -1
    outer loop
      vertex 6.15 -9.5 0
      vertex 12.1165 -12.9027 0
      vertex 11.2824 -13.6381 0
    endloop
  endfacet
  facet normal -0 0 -1
    outer loop
      vertex 12.9027 12.1165 0
      vertex 6.15 -9.5 0
      vertex 12.1165 12.9027 0
    endloop
  endfacet
  facet normal 0 0 -1
    outer loop
      vertex 6.15 -9.5 0
      vertex 11.2824 -13.6381 0
      vertex 10.4038 -14.3196 0
    endloop
  endfacet
  facet normal -0 0 -1
    outer loop
      vertex 12.1165 12.9027 0
      vertex 6.15 -9.5 0
      vertex 11.2824 13.6381 0
    endloop
  endfacet
  facet normal 0 0 -1
    outer loop
      vertex 6.15 -9.5 0
      vertex 10.4038 -14.3196 0
      vertex 9.48413 -14.9446 0
    endloop
  endfacet
  facet normal -0 0 -1
    outer loop
      vertex 11.2824 13.6381 0
      vertex 6.15 -9.5 0
      vertex 10.4038 14.3196 0
    endloop
  endfacet
  facet normal 0 0 -1
    outer loop
      vertex 6.15 -9.5 0
      vertex 9.48413 -14.9446 0
      vertex 8.52704 -15.5106 0
    endloop
  endfacet
  facet normal -0 0 -1
    outer loop
      vertex 10.4038 14.3196 0
      vertex 6.15 -9.5 0
      vertex 9.48413 14.9446 0
    endloop
  endfacet
  facet normal 0 0 -1
    outer loop
      vertex 6.15 -9.5 0
      vertex 8.52704 -15.5106 0
      vertex 7.53629 -16.0154 0
    endloop
  endfacet
  facet normal -0 0 -1
    outer loop
      vertex 9.48413 14.9446 0
      vertex 6.15 -9.5 0
      vertex 8.52704 15.5106 0
    endloop
  endfacet
  facet normal 0 0 -1
    outer loop
      vertex 6.15 -9.5 0
      vertex 7.53629 -16.0154 0
      vertex 6.5158 -16.457 0
    endloop
  endfacet
  facet normal -0 0 -1
    outer loop
      vertex 8.52704 15.5106 0
      vertex 6.15 -9.5 0
      vertex 7.53629 16.0154 0
    endloop
  endfacet
  facet normal -0 0 -1
    outer loop
      vertex 7.53629 16.0154 0
      vertex 6.15 -9.5 0
      vertex 6.5158 16.457 0
    endloop
  endfacet
  facet normal 0 0 -1
    outer loop
      vertex 5.4696 -16.8337 0
      vertex 6.15 -9.5 0
      vertex 6.5158 -16.457 0
    endloop
  endfacet
  facet normal 0 0 -1
    outer loop
      vertex 4.40181 -17.1439 0
      vertex 6.15 -9.5 0
      vertex 5.4696 -16.8337 0
    endloop
  endfacet
  facet normal 0 0 -1
    outer loop
      vertex 3.31665 -17.3865 0
      vertex 6.15 -9.5 0
      vertex 4.40181 -17.1439 0
    endloop
  endfacet
  facet normal 0 0 -1
    outer loop
      vertex 2.2184 -17.5604 0
      vertex 6.15 -9.5 0
      vertex 3.31665 -17.3865 0
    endloop
  endfacet
  facet normal 0 0 -1
    outer loop
      vertex 1.11139 -17.6651 0
      vertex 6.15 -9.5 0
      vertex 2.2184 -17.5604 0
    endloop
  endfacet
  facet normal 0 0 -1
    outer loop
      vertex 0 -17.7 0
      vertex 6.15 -9.5 0
      vertex 1.11139 -17.6651 0
    endloop
  endfacet
  facet normal 0 0 -1
    outer loop
      vertex -6.15 -9.5 0
      vertex 0 -17.7 0
      vertex -1.11139 -17.6651 0
    endloop
  endfacet
  facet normal 0 0 -1
    outer loop
      vertex -6.15 -9.5 0
      vertex -1.11139 -17.6651 0
      vertex -2.2184 -17.5604 0
    endloop
  endfacet
  facet normal 0 0 -1
    outer loop
      vertex -6.15 -9.5 0
      vertex -2.2184 -17.5604 0
      vertex -3.31665 -17.3865 0
    endloop
  endfacet
  facet normal 0 0 -1
    outer loop
      vertex -6.15 -9.5 0
      vertex -3.31665 -17.3865 0
      vertex -4.40181 -17.1439 0
    endloop
  endfacet
  facet normal 0 0 -1
    outer loop
      vertex -6.15 -9.5 0
      vertex -4.40181 -17.1439 0
      vertex -5.4696 -16.8337 0
    endloop
  endfacet
  facet normal 0 0 -1
    outer loop
      vertex 0 -17.7 0
      vertex -6.15 -9.5 0
      vertex 6.15 -9.5 0
    endloop
  endfacet
  facet normal 0 0 -1
    outer loop
      vertex -6.5158 -16.457 0
      vertex -6.15 -9.5 0
      vertex -5.4696 -16.8337 0
    endloop
  endfacet
  facet normal 0 0 -1
    outer loop
      vertex -7.53629 -16.0154 0
      vertex -6.15 -9.5 0
      vertex -6.5158 -16.457 0
    endloop
  endfacet
  facet normal 0 0 -1
    outer loop
      vertex -8.52704 -15.5106 0
      vertex -6.15 -9.5 0
      vertex -7.53629 -16.0154 0
    endloop
  endfacet
  facet normal 0 0 -1
    outer loop
      vertex -6.15 -9.5 0
      vertex -7.53629 16.0154 0
      vertex -6.15 16.5887 0
    endloop
  endfacet
  facet normal 0 0 -1
    outer loop
      vertex -6.15 16.5887 0
      vertex -7.53629 16.0154 0
      vertex -6.5158 16.457 0
    endloop
  endfacet
  facet normal 0 0 -1
    outer loop
      vertex -9.48413 -14.9446 0
      vertex -6.15 -9.5 0
      vertex -8.52704 -15.5106 0
    endloop
  endfacet
  facet normal 0 0 -1
    outer loop
      vertex -6.15 -9.5 0
      vertex -8.52704 15.5106 0
      vertex -7.53629 16.0154 0
    endloop
  endfacet
  facet normal 0 0 -1
    outer loop
      vertex -10.4038 -14.3196 0
      vertex -6.15 -9.5 0
      vertex -9.48413 -14.9446 0
    endloop
  endfacet
  facet normal 0 0 -1
    outer loop
      vertex -6.15 -9.5 0
      vertex -9.48413 14.9446 0
      vertex -8.52704 15.5106 0
    endloop
  endfacet
  facet normal 0 0 -1
    outer loop
      vertex -11.2824 -13.6381 0
      vertex -6.15 -9.5 0
      vertex -10.4038 -14.3196 0
    endloop
  endfacet
  facet normal 0 0 -1
    outer loop
      vertex -6.15 -9.5 0
      vertex -10.4038 14.3196 0
      vertex -9.48413 14.9446 0
    endloop
  endfacet
  facet normal 0 0 -1
    outer loop
      vertex -12.1165 -12.9027 0
      vertex -6.15 -9.5 0
      vertex -11.2824 -13.6381 0
    endloop
  endfacet
  facet normal 0 0 -1
    outer loop
      vertex -6.15 -9.5 0
      vertex -11.2824 13.6381 0
      vertex -10.4038 14.3196 0
    endloop
  endfacet
  facet normal 0 0 -1
    outer loop
      vertex -12.9027 -12.1165 0
      vertex -6.15 -9.5 0
      vertex -12.1165 -12.9027 0
    endloop
  endfacet
  facet normal 0 0 -1
    outer loop
      vertex -6.15 -9.5 0
      vertex -12.1165 12.9027 0
      vertex -11.2824 13.6381 0
    endloop
  endfacet
  facet normal 0 0 -1
    outer loop
      vertex -13.6381 -11.2824 0
      vertex -6.15 -9.5 0
      vertex -12.9027 -12.1165 0
    endloop
  endfacet
  facet normal 0 0 -1
    outer loop
      vertex -6.15 -9.5 0
      vertex -12.9027 12.1165 0
      vertex -12.1165 12.9027 0
    endloop
  endfacet
  facet normal 0 0 -1
    outer loop
      vertex -14.3196 -10.4038 0
      vertex -6.15 -9.5 0
      vertex -13.6381 -11.2824 0
    endloop
  endfacet
  facet normal 0 0 -1
    outer loop
      vertex -6.15 -9.5 0
      vertex -13.6381 11.2824 0
      vertex -12.9027 12.1165 0
    endloop
  endfacet
  facet normal 0 0 -1
    outer loop
      vertex -14.9446 -9.48413 0
      vertex -6.15 -9.5 0
      vertex -14.3196 -10.4038 0
    endloop
  endfacet
  facet normal 0 0 -1
    outer loop
      vertex -6.15 -9.5 0
      vertex -14.3196 10.4038 0
      vertex -13.6381 11.2824 0
    endloop
  endfacet
  facet normal 0 0 -1
    outer loop
      vertex -15.5106 -8.52704 0
      vertex -6.15 -9.5 0
      vertex -14.9446 -9.48413 0
    endloop
  endfacet
  facet normal 0 0 -1
    outer loop
      vertex -6.15 -9.5 0
      vertex -14.9446 9.48413 0
      vertex -14.3196 10.4038 0
    endloop
  endfacet
  facet normal 0 0 -1
    outer loop
      vertex -16.0154 -7.53629 0
      vertex -6.15 -9.5 0
      vertex -15.5106 -8.52704 0
    endloop
  endfacet
  facet normal 0 0 -1
    outer loop
      vertex -6.15 -9.5 0
      vertex -15.5106 8.52704 0
      vertex -14.9446 9.48413 0
    endloop
  endfacet
  facet normal 0 0 -1
    outer loop
      vertex -16.457 -6.5158 0
      vertex -6.15 -9.5 0
      vertex -16.0154 -7.53629 0
    endloop
  endfacet
  facet normal 0 0 -1
    outer loop
      vertex -6.15 -9.5 0
      vertex -16.0154 7.53629 0
      vertex -15.5106 8.52704 0
    endloop
  endfacet
  facet normal 0 0 -1
    outer loop
      vertex -16.8337 -5.4696 0
      vertex -6.15 -9.5 0
      vertex -16.457 -6.5158 0
    endloop
  endfacet
  facet normal 0 0 -1
    outer loop
      vertex -6.15 -9.5 0
      vertex -16.457 6.5158 0
      vertex -16.0154 7.53629 0
    endloop
  endfacet
  facet normal 0 0 -1
    outer loop
      vertex -17.1439 -4.40181 0
      vertex -6.15 -9.5 0
      vertex -16.8337 -5.4696 0
    endloop
  endfacet
  facet normal 0 0 -1
    outer loop
      vertex -6.15 -9.5 0
      vertex -16.8337 5.4696 0
      vertex -16.457 6.5158 0
    endloop
  endfacet
  facet normal 0 0 -1
    outer loop
      vertex -17.3865 -3.31665 0
      vertex -6.15 -9.5 0
      vertex -17.1439 -4.40181 0
    endloop
  endfacet
  facet normal 0 0 -1
    outer loop
      vertex -6.15 -9.5 0
      vertex -17.1439 4.40181 0
      vertex -16.8337 5.4696 0
    endloop
  endfacet
  facet normal 0 0 -1
    outer loop
      vertex -17.5604 -2.2184 0
      vertex -6.15 -9.5 0
      vertex -17.3865 -3.31665 0
    endloop
  endfacet
  facet normal 0 0 -1
    outer loop
      vertex -6.15 -9.5 0
      vertex -17.3865 3.31665 0
      vertex -17.1439 4.40181 0
    endloop
  endfacet
  facet normal 0 0 -1
    outer loop
      vertex -17.6651 -1.11139 0
      vertex -6.15 -9.5 0
      vertex -17.5604 -2.2184 0
    endloop
  endfacet
  facet normal 0 0 -1
    outer loop
      vertex -6.15 -9.5 0
      vertex -17.5604 2.2184 0
      vertex -17.3865 3.31665 0
    endloop
  endfacet
  facet normal 0 0 -1
    outer loop
      vertex -17.7 0 0
      vertex -6.15 -9.5 0
      vertex -17.6651 -1.11139 0
    endloop
  endfacet
  facet normal 0 0 -1
    outer loop
      vertex -6.15 -9.5 0
      vertex -17.6651 1.11139 0
      vertex -17.5604 2.2184 0
    endloop
  endfacet
  facet normal 0 0 -1
    outer loop
      vertex -6.15 -9.5 0
      vertex -17.7 0 0
      vertex -17.6651 1.11139 0
    endloop
  endfacet
  facet normal -0 0 -1
    outer loop
      vertex 6.5158 16.457 0
      vertex 6.15 -9.5 0
      vertex 6.15 16.5887 0
    endloop
  endfacet
  facet normal -0.960294 -0.27899 0
    outer loop
      vertex -16.8337 -5.4696 0
      vertex -17.1439 -4.40181 3
      vertex -17.1439 -4.40181 0
    endloop
  endfacet
  facet normal -0.960294 -0.27899 0
    outer loop
      vertex -17.1439 -4.40181 3
      vertex -16.8337 -5.4696 0
      vertex -16.8337 -5.4696 3
    endloop
  endfacet
  facet normal -0.94088 -0.338739 0
    outer loop
      vertex -16.457 -6.5158 0
      vertex -16.8337 -5.4696 3
      vertex -16.8337 -5.4696 0
    endloop
  endfacet
  facet normal -0.94088 -0.338739 0
    outer loop
      vertex -16.8337 -5.4696 3
      vertex -16.457 -6.5158 0
      vertex -16.457 -6.5158 3
    endloop
  endfacet
  facet normal 0.45399 0.891007 -0
    outer loop
      vertex 8.52704 15.5106 0
      vertex 7.53629 16.0154 3
      vertex 8.52704 15.5106 3
    endloop
  endfacet
  facet normal 0.45399 0.891007 0
    outer loop
      vertex 7.53629 16.0154 3
      vertex 8.52704 15.5106 0
      vertex 7.53629 16.0154 0
    endloop
  endfacet
  facet normal -0.82708 0.562084 0
    outer loop
      vertex -14.9446 9.48413 0
      vertex -14.3196 10.4038 3
      vertex -14.3196 10.4038 0
    endloop
  endfacet
  facet normal -0.82708 0.562084 0
    outer loop
      vertex -14.3196 10.4038 3
      vertex -14.9446 9.48413 0
      vertex -14.9446 9.48413 3
    endloop
  endfacet
  facet normal -0.790155 0.612907 0
    outer loop
      vertex -14.3196 10.4038 0
      vertex -13.6381 11.2824 3
      vertex -13.6381 11.2824 0
    endloop
  endfacet
  facet normal -0.790155 0.612907 0
    outer loop
      vertex -13.6381 11.2824 3
      vertex -14.3196 10.4038 0
      vertex -14.3196 10.4038 3
    endloop
  endfacet
  facet normal 0 0 1
    outer loop
      vertex -6.15 16.5887 3
      vertex -6.5158 16.457 3
      vertex -6.15 -9.5 3
    endloop
  endfacet
  facet normal 0 0 1
    outer loop
      vertex 6.15 -9.5 3
      vertex 17.7 0 3
      vertex 17.6651 1.11139 3
    endloop
  endfacet
  facet normal 0 0 1
    outer loop
      vertex 6.15 -9.5 3
      vertex 17.6651 1.11139 3
      vertex 17.5604 2.2184 3
    endloop
  endfacet
  facet normal 0 0 1
    outer loop
      vertex 17.7 0 3
      vertex 6.15 -9.5 3
      vertex 17.6651 -1.11139 3
    endloop
  endfacet
  facet normal 0 0 1
    outer loop
      vertex 6.15 -9.5 3
      vertex 17.5604 2.2184 3
      vertex 17.3865 3.31665 3
    endloop
  endfacet
  facet normal 0 0 1
    outer loop
      vertex 17.6651 -1.11139 3
      vertex 6.15 -9.5 3
      vertex 17.5604 -2.2184 3
    endloop
  endfacet
  facet normal 0 0 1
    outer loop
      vertex 6.15 -9.5 3
      vertex 17.3865 3.31665 3
      vertex 17.1439 4.40181 3
    endloop
  endfacet
  facet normal 0 0 1
    outer loop
      vertex 17.5604 -2.2184 3
      vertex 6.15 -9.5 3
      vertex 17.3865 -3.31665 3
    endloop
  endfacet
  facet normal 0 0 1
    outer loop
      vertex 6.15 -9.5 3
      vertex 17.1439 4.40181 3
      vertex 16.8337 5.4696 3
    endloop
  endfacet
  facet normal 0 0 1
    outer loop
      vertex 17.3865 -3.31665 3
      vertex 6.15 -9.5 3
      vertex 17.1439 -4.40181 3
    endloop
  endfacet
  facet normal 0 0 1
    outer loop
      vertex 6.15 -9.5 3
      vertex 16.8337 5.4696 3
      vertex 16.457 6.5158 3
    endloop
  endfacet
  facet normal 0 0 1
    outer loop
      vertex 17.1439 -4.40181 3
      vertex 6.15 -9.5 3
      vertex 16.8337 -5.4696 3
    endloop
  endfacet
  facet normal 0 0 1
    outer loop
      vertex 6.15 -9.5 3
      vertex 16.457 6.5158 3
      vertex 16.0154 7.53629 3
    endloop
  endfacet
  facet normal 0 0 1
    outer loop
      vertex 16.8337 -5.4696 3
      vertex 6.15 -9.5 3
      vertex 16.457 -6.5158 3
    endloop
  endfacet
  facet normal 0 0 1
    outer loop
      vertex 6.15 -9.5 3
      vertex 16.0154 7.53629 3
      vertex 15.5106 8.52704 3
    endloop
  endfacet
  facet normal 0 0 1
    outer loop
      vertex 16.457 -6.5158 3
      vertex 6.15 -9.5 3
      vertex 16.0154 -7.53629 3
    endloop
  endfacet
  facet normal 0 0 1
    outer loop
      vertex 6.15 -9.5 3
      vertex 15.5106 8.52704 3
      vertex 14.9446 9.48413 3
    endloop
  endfacet
  facet normal 0 0 1
    outer loop
      vertex 16.0154 -7.53629 3
      vertex 6.15 -9.5 3
      vertex 15.5106 -8.52704 3
    endloop
  endfacet
  facet normal 0 0 1
    outer loop
      vertex 6.15 -9.5 3
      vertex 14.9446 9.48413 3
      vertex 14.3196 10.4038 3
    endloop
  endfacet
  facet normal 0 0 1
    outer loop
      vertex 15.5106 -8.52704 3
      vertex 6.15 -9.5 3
      vertex 14.9446 -9.48413 3
    endloop
  endfacet
  facet normal 0 0 1
    outer loop
      vertex 6.15 -9.5 3
      vertex 14.3196 10.4038 3
      vertex 13.6381 11.2824 3
    endloop
  endfacet
  facet normal 0 0 1
    outer loop
      vertex 14.9446 -9.48413 3
      vertex 6.15 -9.5 3
      vertex 14.3196 -10.4038 3
    endloop
  endfacet
  facet normal 0 0 1
    outer loop
      vertex 6.15 -9.5 3
      vertex 13.6381 11.2824 3
      vertex 12.9027 12.1165 3
    endloop
  endfacet
  facet normal 0 0 1
    outer loop
      vertex 14.3196 -10.4038 3
      vertex 6.15 -9.5 3
      vertex 13.6381 -11.2824 3
    endloop
  endfacet
  facet normal 0 0 1
    outer loop
      vertex 6.15 -9.5 3
      vertex 12.9027 12.1165 3
      vertex 12.1165 12.9027 3
    endloop
  endfacet
  facet normal 0 0 1
    outer loop
      vertex 13.6381 -11.2824 3
      vertex 6.15 -9.5 3
      vertex 12.9027 -12.1165 3
    endloop
  endfacet
  facet normal 0 0 1
    outer loop
      vertex 6.15 -9.5 3
      vertex 12.1165 12.9027 3
      vertex 11.2824 13.6381 3
    endloop
  endfacet
  facet normal 0 0 1
    outer loop
      vertex 12.9027 -12.1165 3
      vertex 6.15 -9.5 3
      vertex 12.1165 -12.9027 3
    endloop
  endfacet
  facet normal 0 0 1
    outer loop
      vertex 6.15 -9.5 3
      vertex 11.2824 13.6381 3
      vertex 10.4038 14.3196 3
    endloop
  endfacet
  facet normal 0 0 1
    outer loop
      vertex 12.1165 -12.9027 3
      vertex 6.15 -9.5 3
      vertex 11.2824 -13.6381 3
    endloop
  endfacet
  facet normal 0 0 1
    outer loop
      vertex 6.15 -9.5 3
      vertex 10.4038 14.3196 3
      vertex 9.48413 14.9446 3
    endloop
  endfacet
  facet normal 0 0 1
    outer loop
      vertex 11.2824 -13.6381 3
      vertex 6.15 -9.5 3
      vertex 10.4038 -14.3196 3
    endloop
  endfacet
  facet normal 0 0 1
    outer loop
      vertex 6.15 -9.5 3
      vertex 9.48413 14.9446 3
      vertex 8.52704 15.5106 3
    endloop
  endfacet
  facet normal 0 0 1
    outer loop
      vertex 10.4038 -14.3196 3
      vertex 6.15 -9.5 3
      vertex 9.48413 -14.9446 3
    endloop
  endfacet
  facet normal 0 0 1
    outer loop
      vertex 6.15 -9.5 3
      vertex 8.52704 15.5106 3
      vertex 7.53629 16.0154 3
    endloop
  endfacet
  facet normal 0 0 1
    outer loop
      vertex 9.48413 -14.9446 3
      vertex 6.15 -9.5 3
      vertex 8.52704 -15.5106 3
    endloop
  endfacet
  facet normal 0 0 1
    outer loop
      vertex 6.15 -9.5 3
      vertex 7.53629 16.0154 3
      vertex 6.5158 16.457 3
    endloop
  endfacet
  facet normal 0 0 1
    outer loop
      vertex 8.52704 -15.5106 3
      vertex 6.15 -9.5 3
      vertex 7.53629 -16.0154 3
    endloop
  endfacet
  facet normal 0 0 1
    outer loop
      vertex 6.15 -9.5 3
      vertex 6.5158 16.457 3
      vertex 6.15 16.5887 3
    endloop
  endfacet
  facet normal 0 0 1
    outer loop
      vertex 7.53629 -16.0154 3
      vertex 6.15 -9.5 3
      vertex 6.5158 -16.457 3
    endloop
  endfacet
  facet normal 0 0 1
    outer loop
      vertex 6.15 -9.5 3
      vertex 5.4696 -16.8337 3
      vertex 6.5158 -16.457 3
    endloop
  endfacet
  facet normal 0 0 1
    outer loop
      vertex 6.15 -9.5 3
      vertex 4.40181 -17.1439 3
      vertex 5.4696 -16.8337 3
    endloop
  endfacet
  facet normal 0 0 1
    outer loop
      vertex 6.15 -9.5 3
      vertex 3.31665 -17.3865 3
      vertex 4.40181 -17.1439 3
    endloop
  endfacet
  facet normal 0 0 1
    outer loop
      vertex 6.15 -9.5 3
      vertex 2.2184 -17.5604 3
      vertex 3.31665 -17.3865 3
    endloop
  endfacet
  facet normal 0 0 1
    outer loop
      vertex 6.15 -9.5 3
      vertex 1.11139 -17.6651 3
      vertex 2.2184 -17.5604 3
    endloop
  endfacet
  facet normal 0 0 1
    outer loop
      vertex 6.15 -9.5 3
      vertex 0 -17.7 3
      vertex 1.11139 -17.6651 3
    endloop
  endfacet
  facet normal -0 0 1
    outer loop
      vertex -6.15 -9.5 3
      vertex 0 -17.7 3
      vertex 6.15 -9.5 3
    endloop
  endfacet
  facet normal 0 0 1
    outer loop
      vertex 0 -17.7 3
      vertex -6.15 -9.5 3
      vertex -1.11139 -17.6651 3
    endloop
  endfacet
  facet normal 0 0 1
    outer loop
      vertex -1.11139 -17.6651 3
      vertex -6.15 -9.5 3
      vertex -2.2184 -17.5604 3
    endloop
  endfacet
  facet normal 0 0 1
    outer loop
      vertex -2.2184 -17.5604 3
      vertex -6.15 -9.5 3
      vertex -3.31665 -17.3865 3
    endloop
  endfacet
  facet normal 0 0 1
    outer loop
      vertex -3.31665 -17.3865 3
      vertex -6.15 -9.5 3
      vertex -4.40181 -17.1439 3
    endloop
  endfacet
  facet normal 0 0 1
    outer loop
      vertex -4.40181 -17.1439 3
      vertex -6.15 -9.5 3
      vertex -5.4696 -16.8337 3
    endloop
  endfacet
  facet normal 0 0 1
    outer loop
      vertex -6.15 -9.5 3
      vertex -6.5158 -16.457 3
      vertex -5.4696 -16.8337 3
    endloop
  endfacet
  facet normal -0 0 1
    outer loop
      vertex -7.53629 16.0154 3
      vertex -6.15 -9.5 3
      vertex -6.5158 16.457 3
    endloop
  endfacet
  facet normal -0 0 1
    outer loop
      vertex -8.52704 15.5106 3
      vertex -6.15 -9.5 3
      vertex -7.53629 16.0154 3
    endloop
  endfacet
  facet normal 0 0 1
    outer loop
      vertex -6.15 -9.5 3
      vertex -7.53629 -16.0154 3
      vertex -6.5158 -16.457 3
    endloop
  endfacet
  facet normal -0 0 1
    outer loop
      vertex -9.48413 14.9446 3
      vertex -6.15 -9.5 3
      vertex -8.52704 15.5106 3
    endloop
  endfacet
  facet normal 0 0 1
    outer loop
      vertex -6.15 -9.5 3
      vertex -8.52704 -15.5106 3
      vertex -7.53629 -16.0154 3
    endloop
  endfacet
  facet normal -0 0 1
    outer loop
      vertex -10.4038 14.3196 3
      vertex -6.15 -9.5 3
      vertex -9.48413 14.9446 3
    endloop
  endfacet
  facet normal 0 0 1
    outer loop
      vertex -6.15 -9.5 3
      vertex -9.48413 -14.9446 3
      vertex -8.52704 -15.5106 3
    endloop
  endfacet
  facet normal -0 0 1
    outer loop
      vertex -11.2824 13.6381 3
      vertex -6.15 -9.5 3
      vertex -10.4038 14.3196 3
    endloop
  endfacet
  facet normal 0 0 1
    outer loop
      vertex -6.15 -9.5 3
      vertex -10.4038 -14.3196 3
      vertex -9.48413 -14.9446 3
    endloop
  endfacet
  facet normal -0 0 1
    outer loop
      vertex -12.1165 12.9027 3
      vertex -6.15 -9.5 3
      vertex -11.2824 13.6381 3
    endloop
  endfacet
  facet normal 0 0 1
    outer loop
      vertex -6.15 -9.5 3
      vertex -11.2824 -13.6381 3
      vertex -10.4038 -14.3196 3
    endloop
  endfacet
  facet normal -0 0 1
    outer loop
      vertex -12.9027 12.1165 3
      vertex -6.15 -9.5 3
      vertex -12.1165 12.9027 3
    endloop
  endfacet
  facet normal 0 0 1
    outer loop
      vertex -6.15 -9.5 3
      vertex -12.1165 -12.9027 3
      vertex -11.2824 -13.6381 3
    endloop
  endfacet
  facet normal -0 0 1
    outer loop
      vertex -13.6381 11.2824 3
      vertex -6.15 -9.5 3
      vertex -12.9027 12.1165 3
    endloop
  endfacet
  facet normal 0 0 1
    outer loop
      vertex -6.15 -9.5 3
      vertex -12.9027 -12.1165 3
      vertex -12.1165 -12.9027 3
    endloop
  endfacet
  facet normal -0 0 1
    outer loop
      vertex -14.3196 10.4038 3
      vertex -6.15 -9.5 3
      vertex -13.6381 11.2824 3
    endloop
  endfacet
  facet normal 0 0 1
    outer loop
      vertex -6.15 -9.5 3
      vertex -13.6381 -11.2824 3
      vertex -12.9027 -12.1165 3
    endloop
  endfacet
  facet normal -0 0 1
    outer loop
      vertex -14.9446 9.48413 3
      vertex -6.15 -9.5 3
      vertex -14.3196 10.4038 3
    endloop
  endfacet
  facet normal 0 0 1
    outer loop
      vertex -6.15 -9.5 3
      vertex -14.3196 -10.4038 3
      vertex -13.6381 -11.2824 3
    endloop
  endfacet
  facet normal -0 0 1
    outer loop
      vertex -15.5106 8.52704 3
      vertex -6.15 -9.5 3
      vertex -14.9446 9.48413 3
    endloop
  endfacet
  facet normal 0 0 1
    outer loop
      vertex -6.15 -9.5 3
      vertex -14.9446 -9.48413 3
      vertex -14.3196 -10.4038 3
    endloop
  endfacet
  facet normal -0 0 1
    outer loop
      vertex -16.0154 7.53629 3
      vertex -6.15 -9.5 3
      vertex -15.5106 8.52704 3
    endloop
  endfacet
  facet normal 0 0 1
    outer loop
      vertex -6.15 -9.5 3
      vertex -15.5106 -8.52704 3
      vertex -14.9446 -9.48413 3
    endloop
  endfacet
  facet normal -0 0 1
    outer loop
      vertex -16.457 6.5158 3
      vertex -6.15 -9.5 3
      vertex -16.0154 7.53629 3
    endloop
  endfacet
  facet normal 0 0 1
    outer loop
      vertex -6.15 -9.5 3
      vertex -16.0154 -7.53629 3
      vertex -15.5106 -8.52704 3
    endloop
  endfacet
  facet normal -0 0 1
    outer loop
      vertex -16.8337 5.4696 3
      vertex -6.15 -9.5 3
      vertex -16.457 6.5158 3
    endloop
  endfacet
  facet normal 0 0 1
    outer loop
      vertex -6.15 -9.5 3
      vertex -16.457 -6.5158 3
      vertex -16.0154 -7.53629 3
    endloop
  endfacet
  facet normal -0 0 1
    outer loop
      vertex -17.1439 4.40181 3
      vertex -6.15 -9.5 3
      vertex -16.8337 5.4696 3
    endloop
  endfacet
  facet normal 0 0 1
    outer loop
      vertex -6.15 -9.5 3
      vertex -16.8337 -5.4696 3
      vertex -16.457 -6.5158 3
    endloop
  endfacet
  facet normal -0 0 1
    outer loop
      vertex -17.3865 3.31665 3
      vertex -6.15 -9.5 3
      vertex -17.1439 4.40181 3
    endloop
  endfacet
  facet normal 0 0 1
    outer loop
      vertex -6.15 -9.5 3
      vertex -17.1439 -4.40181 3
      vertex -16.8337 -5.4696 3
    endloop
  endfacet
  facet normal -0 0 1
    outer loop
      vertex -17.5604 2.2184 3
      vertex -6.15 -9.5 3
      vertex -17.3865 3.31665 3
    endloop
  endfacet
  facet normal 0 0 1
    outer loop
      vertex -6.15 -9.5 3
      vertex -17.3865 -3.31665 3
      vertex -17.1439 -4.40181 3
    endloop
  endfacet
  facet normal -0 0 1
    outer loop
      vertex -17.6651 1.11139 3
      vertex -6.15 -9.5 3
      vertex -17.5604 2.2184 3
    endloop
  endfacet
  facet normal 0 0 1
    outer loop
      vertex -6.15 -9.5 3
      vertex -17.5604 -2.2184 3
      vertex -17.3865 -3.31665 3
    endloop
  endfacet
  facet normal -0 0 1
    outer loop
      vertex -17.7 0 3
      vertex -6.15 -9.5 3
      vertex -17.6651 1.11139 3
    endloop
  endfacet
  facet normal 0 0 1
    outer loop
      vertex -6.15 -9.5 3
      vertex -17.6651 -1.11139 3
      vertex -17.5604 -2.2184 3
    endloop
  endfacet
  facet normal 0 0 1
    outer loop
      vertex -6.15 -9.5 3
      vertex -17.7 0 3
      vertex -17.6651 -1.11139 3
    endloop
  endfacet
  facet normal -0.995562 0.09411 0
    outer loop
      vertex -17.6651 1.11139 0
      vertex -17.5604 2.2184 3
      vertex -17.5604 2.2184 0
    endloop
  endfacet
  facet normal -0.995562 0.09411 0
    outer loop
      vertex -17.5604 2.2184 3
      vertex -17.6651 1.11139 0
      vertex -17.6651 1.11139 3
    endloop
  endfacet
  facet normal -0.612907 0.790155 0
    outer loop
      vertex -10.4038 14.3196 0
      vertex -11.2824 13.6381 3
      vertex -10.4038 14.3196 3
    endloop
  endfacet
  facet normal -0.612907 0.790155 0
    outer loop
      vertex -11.2824 13.6381 3
      vertex -10.4038 14.3196 0
      vertex -11.2824 13.6381 0
    endloop
  endfacet
  facet normal 0.612907 -0.790155 0
    outer loop
      vertex 10.4038 -14.3196 0
      vertex 11.2824 -13.6381 3
      vertex 10.4038 -14.3196 3
    endloop
  endfacet
  facet normal 0.612907 -0.790155 0
    outer loop
      vertex 11.2824 -13.6381 3
      vertex 10.4038 -14.3196 0
      vertex 11.2824 -13.6381 0
    endloop
  endfacet
  facet normal 0.891007 -0.45399 0
    outer loop
      vertex 15.5106 -8.52704 3
      vertex 16.0154 -7.53629 0
      vertex 16.0154 -7.53629 3
    endloop
  endfacet
  facet normal 0.891007 -0.45399 0
    outer loop
      vertex 16.0154 -7.53629 0
      vertex 15.5106 -8.52704 3
      vertex 15.5106 -8.52704 0
    endloop
  endfacet
  facet normal -0.27899 -0.960294 0
    outer loop
      vertex -5.4696 -16.8337 0
      vertex -4.40181 -17.1439 3
      vertex -5.4696 -16.8337 3
    endloop
  endfacet
  facet normal -0.27899 -0.960294 -0
    outer loop
      vertex -4.40181 -17.1439 3
      vertex -5.4696 -16.8337 0
      vertex -4.40181 -17.1439 0
    endloop
  endfacet
  facet normal -0.891007 -0.45399 0
    outer loop
      vertex -15.5106 -8.52704 0
      vertex -16.0154 -7.53629 3
      vertex -16.0154 -7.53629 0
    endloop
  endfacet
  facet normal -0.891007 -0.45399 0
    outer loop
      vertex -16.0154 -7.53629 3
      vertex -15.5106 -8.52704 0
      vertex -15.5106 -8.52704 3
    endloop
  endfacet
  facet normal -0.995562 -0.09411 0
    outer loop
      vertex -17.5604 -2.2184 0
      vertex -17.6651 -1.11139 3
      vertex -17.6651 -1.11139 0
    endloop
  endfacet
  facet normal -0.995562 -0.09411 0
    outer loop
      vertex -17.6651 -1.11139 3
      vertex -17.5604 -2.2184 0
      vertex -17.5604 -2.2184 3
    endloop
  endfacet
  facet normal -0.750112 0.661311 0
    outer loop
      vertex -13.6381 11.2824 0
      vertex -12.9027 12.1165 3
      vertex -12.9027 12.1165 0
    endloop
  endfacet
  facet normal -0.750112 0.661311 0
    outer loop
      vertex -12.9027 12.1165 3
      vertex -13.6381 11.2824 0
      vertex -13.6381 11.2824 3
    endloop
  endfacet
  facet normal 0.987689 -0.156433 0
    outer loop
      vertex 17.3865 -3.31665 3
      vertex 17.5604 -2.2184 0
      vertex 17.5604 -2.2184 3
    endloop
  endfacet
  facet normal 0.987689 -0.156433 0
    outer loop
      vertex 17.5604 -2.2184 0
      vertex 17.3865 -3.31665 3
      vertex 17.3865 -3.31665 0
    endloop
  endfacet
  facet normal 1 -0 0
    outer loop
      vertex -6.15 -9.5 3
      vertex -6.15 16.5887 0
      vertex -6.15 16.5887 3
    endloop
  endfacet
  facet normal 1 0 0
    outer loop
      vertex -6.15 16.5887 0
      vertex -6.15 -9.5 3
      vertex -6.15 -9.5 0
    endloop
  endfacet
  facet normal -1 0 0
    outer loop
      vertex 6.15 -9.5 0
      vertex 6.15 16.5887 3
      vertex 6.15 16.5887 0
    endloop
  endfacet
  facet normal -1 -0 0
    outer loop
      vertex 6.15 16.5887 3
      vertex 6.15 -9.5 0
      vertex 6.15 -9.5 3
    endloop
  endfacet
  facet normal 0 1 -0
    outer loop
      vertex 6.15 -9.5 0
      vertex -6.15 -9.5 3
      vertex 6.15 -9.5 3
    endloop
  endfacet
  facet normal 0 1 0
    outer loop
      vertex -6.15 -9.5 3
      vertex 6.15 -9.5 0
      vertex -6.15 -9.5 0
    endloop
  endfacet
endsolid OpenSCAD_Model
