solid model
  facet normal -0.0313866 -0.999507 -0
    outer loop
      vertex -1.11139 -17.6651 0
      vertex 0 -17.7 0
      vertex 0 -17.7 3
    endloop
  endfacet
  facet normal -0.0313866 -0.999507 0
    outer loop
      vertex -1.11139 -17.6651 0
      vertex 0 -17.7 3
      vertex -1.11139 -17.6651 3
    endloop
  endfacet
  facet normal 0 0 -1
    outer loop
      vertex -10.4038 -14.3196 0
      vertex -6.15 -9.5 0
      vertex -9.48413 -14.9446 0
    endloop
  endfacet
  facet normal -0.562079 -0.827084 -0
    outer loop
      vertex -10.4038 -14.3196 0
      vertex -9.48413 -14.9446 0
      vertex -9.48413 -14.9446 3
    endloop
  endfacet
  facet normal -0.562079 -0.827084 0
    outer loop
      vertex -10.4038 -14.3196 0
      vertex -9.48413 -14.9446 3
      vertex -10.4038 -14.3196 3
    endloop
  endfacet
  facet normal 0 0 1
    outer loop
      vertex -10.4038 -14.3196 3
      vertex -9.48413 -14.9446 3
      vertex -6.15 -9.5 3
    endloop
  endfacet
  facet normal -0.562079 0.827084 0
    outer loop
      vertex -10.4038 14.3196 0
      vertex -10.4038 14.3196 3
      vertex -9.48413 14.9446 0
    endloop
  endfacet
  facet normal 0 0 -1
    outer loop
      vertex -10.4038 14.3196 0
      vertex -9.48413 14.9446 0
      vertex -6.15 -9.5 0
    endloop
  endfacet
  facet normal -0 0 1
    outer loop
      vertex -10.4038 14.3196 3
      vertex -6.15 -9.5 3
      vertex -9.48413 14.9446 3
    endloop
  endfacet
  facet normal -0.562079 0.827084 0
    outer loop
      vertex -10.4038 14.3196 3
      vertex -9.48413 14.9446 3
      vertex -9.48413 14.9446 0
    endloop
  endfacet
  facet normal -0.6129 -0.79016 -0
    outer loop
      vertex -11.2824 -13.6381 0
      vertex -10.4038 -14.3196 0
      vertex -10.4038 -14.3196 3
    endloop
  endfacet
  facet normal -0.6129 -0.79016 0
    outer loop
      vertex -11.2824 -13.6381 0
      vertex -10.4038 -14.3196 3
      vertex -11.2824 -13.6381 3
    endloop
  endfacet
  facet normal 0 0 -1
    outer loop
      vertex -11.2824 -13.6381 0
      vertex -6.15 -9.5 0
      vertex -10.4038 -14.3196 0
    endloop
  endfacet
  facet normal 0 0 1
    outer loop
      vertex -11.2824 -13.6381 3
      vertex -10.4038 -14.3196 3
      vertex -6.15 -9.5 3
    endloop
  endfacet
  facet normal 0 0 -1
    outer loop
      vertex -11.2824 13.6381 0
      vertex -10.4038 14.3196 0
      vertex -6.15 -9.5 0
    endloop
  endfacet
  facet normal -0.6129 0.79016 0
    outer loop
      vertex -11.2824 13.6381 0
      vertex -11.2824 13.6381 3
      vertex -10.4038 14.3196 0
    endloop
  endfacet
  facet normal -0.6129 0.79016 0
    outer loop
      vertex -11.2824 13.6381 3
      vertex -10.4038 14.3196 3
      vertex -10.4038 14.3196 0
    endloop
  endfacet
  facet normal -0 0 1
    outer loop
      vertex -11.2824 13.6381 3
      vertex -6.15 -9.5 3
      vertex -10.4038 14.3196 3
    endloop
  endfacet
  facet normal -0.661333 -0.750092 -0
    outer loop
      vertex -12.1165 -12.9027 0
      vertex -11.2824 -13.6381 0
      vertex -11.2824 -13.6381 3
    endloop
  endfacet
  facet normal -0.661333 -0.750092 0
    outer loop
      vertex -12.1165 -12.9027 0
      vertex -11.2824 -13.6381 3
      vertex -12.1165 -12.9027 3
    endloop
  endfacet
  facet normal 0 0 -1
    outer loop
      vertex -12.1165 -12.9027 0
      vertex -6.15 -9.5 0
      vertex -11.2824 -13.6381 0
    endloop
  endfacet
  facet normal 0 0 1
    outer loop
      vertex -12.1165 -12.9027 3
      vertex -11.2824 -13.6381 3
      vertex -6.15 -9.5 3
    endloop
  endfacet
  facet normal 0 0 -1
    outer loop
      vertex -12.1165 12.9027 0
      vertex -11.2824 13.6381 0
      vertex -6.15 -9.5 0
    endloop
  endfacet
  facet normal -0.661333 0.750092 0
    outer loop
      vertex -12.1165 12.9027 0
      vertex -12.1165 12.9027 3
      vertex -11.2824 13.6381 0
    endloop
  endfacet
  facet normal -0.661333 0.750092 0
    outer loop
      vertex -12.1165 12.9027 3
      vertex -11.2824 13.6381 3
      vertex -11.2824 13.6381 0
    endloop
  endfacet
  facet normal -0 0 1
    outer loop
      vertex -12.1165 12.9027 3
      vertex -6.15 -9.5 3
      vertex -11.2824 13.6381 3
    endloop
  endfacet
  facet normal -0.707107 -0.707107 0
    outer loop
      vertex -12.9027 -12.1165 0
      vertex -12.1165 -12.9027 0
      vertex -12.9027 -12.1165 3
    endloop
  endfacet
  facet normal 0 0 -1
    outer loop
      vertex -12.9027 -12.1165 0
      vertex -6.15 -9.5 0
      vertex -12.1165 -12.9027 0
    endloop
  endfacet
  facet normal -0.707107 -0.707107 0
    outer loop
      vertex -12.9027 -12.1165 3
      vertex -12.1165 -12.9027 0
      vertex -12.1165 -12.9027 3
    endloop
  endfacet
  facet normal 0 0 1
    outer loop
      vertex -12.9027 -12.1165 3
      vertex -12.1165 -12.9027 3
      vertex -6.15 -9.5 3
    endloop
  endfacet
  facet normal 0 0 -1
    outer loop
      vertex -12.9027 12.1165 0
      vertex -12.1165 12.9027 0
      vertex -6.15 -9.5 0
    endloop
  endfacet
  facet normal -0.707107 0.707107 0
    outer loop
      vertex -12.9027 12.1165 0
      vertex -12.1165 12.9027 3
      vertex -12.1165 12.9027 0
    endloop
  endfacet
  facet normal -0.707107 0.707107 0
    outer loop
      vertex -12.9027 12.1165 0
      vertex -12.9027 12.1165 3
      vertex -12.1165 12.9027 3
    endloop
  endfacet
  facet normal -0 0 1
    outer loop
      vertex -12.9027 12.1165 3
      vertex -6.15 -9.5 3
      vertex -12.1165 12.9027 3
    endloop
  endfacet
  facet normal -0.750092 -0.661333 0
    outer loop
      vertex -13.6381 -11.2824 0
      vertex -12.9027 -12.1165 0
      vertex -13.6381 -11.2824 3
    endloop
  endfacet
  facet normal 0 0 -1
    outer loop
      vertex -13.6381 -11.2824 0
      vertex -6.15 -9.5 0
      vertex -12.9027 -12.1165 0
    endloop
  endfacet
  facet normal -0.750092 -0.661333 0
    outer loop
      vertex -13.6381 -11.2824 3
      vertex -12.9027 -12.1165 0
      vertex -12.9027 -12.1165 3
    endloop
  endfacet
  facet normal 0 0 1
    outer loop
      vertex -13.6381 -11.2824 3
      vertex -12.9027 -12.1165 3
      vertex -6.15 -9.5 3
    endloop
  endfacet
  facet normal 0 0 -1
    outer loop
      vertex -13.6381 11.2824 0
      vertex -12.9027 12.1165 0
      vertex -6.15 -9.5 0
    endloop
  endfacet
  facet normal -0.750092 0.661333 0
    outer loop
      vertex -13.6381 11.2824 0
      vertex -12.9027 12.1165 3
      vertex -12.9027 12.1165 0
    endloop
  endfacet
  facet normal -0.750092 0.661333 0
    outer loop
      vertex -13.6381 11.2824 0
      vertex -13.6381 11.2824 3
      vertex -12.9027 12.1165 3
    endloop
  endfacet
  facet normal -0 0 1
    outer loop
      vertex -13.6381 11.2824 3
      vertex -6.15 -9.5 3
      vertex -12.9027 12.1165 3
    endloop
  endfacet
  facet normal -0.79016 -0.6129 0
    outer loop
      vertex -14.3196 -10.4038 0
      vertex -13.6381 -11.2824 0
      vertex -14.3196 -10.4038 3
    endloop
  endfacet
  facet normal 0 0 -1
    outer loop
      vertex -14.3196 -10.4038 0
      vertex -6.15 -9.5 0
      vertex -13.6381 -11.2824 0
    endloop
  endfacet
  facet normal -0.79016 -0.6129 0
    outer loop
      vertex -14.3196 -10.4038 3
      vertex -13.6381 -11.2824 0
      vertex -13.6381 -11.2824 3
    endloop
  endfacet
  facet normal 0 0 1
    outer loop
      vertex -14.3196 -10.4038 3
      vertex -13.6381 -11.2824 3
      vertex -6.15 -9.5 3
    endloop
  endfacet
  facet normal 0 0 -1
    outer loop
      vertex -14.3196 10.4038 0
      vertex -13.6381 11.2824 0
      vertex -6.15 -9.5 0
    endloop
  endfacet
  facet normal -0.79016 0.6129 0
    outer loop
      vertex -14.3196 10.4038 0
      vertex -13.6381 11.2824 3
      vertex -13.6381 11.2824 0
    endloop
  endfacet
  facet normal -0.79016 0.6129 0
    outer loop
      vertex -14.3196 10.4038 0
      vertex -14.3196 10.4038 3
      vertex -13.6381 11.2824 3
    endloop
  endfacet
  facet normal -0 0 1
    outer loop
      vertex -14.3196 10.4038 3
      vertex -6.15 -9.5 3
      vertex -13.6381 11.2824 3
    endloop
  endfacet
  facet normal -0.827084 -0.562079 0
    outer loop
      vertex -14.9446 -9.48413 0
      vertex -14.3196 -10.4038 0
      vertex -14.9446 -9.48413 3
    endloop
  endfacet
  facet normal 0 0 -1
    outer loop
      vertex -14.9446 -9.48413 0
      vertex -6.15 -9.5 0
      vertex -14.3196 -10.4038 0
    endloop
  endfacet
  facet normal -0.827084 -0.562079 0
    outer loop
      vertex -14.9446 -9.48413 3
      vertex -14.3196 -10.4038 0
      vertex -14.3196 -10.4038 3
    endloop
  endfacet
  facet normal 0 0 1
    outer loop
      vertex -14.9446 -9.48413 3
      vertex -14.3196 -10.4038 3
      vertex -6.15 -9.5 3
    endloop
  endfacet
  facet normal 0 0 -1
    outer loop
      vertex -14.9446 9.48413 0
      vertex -14.3196 10.4038 0
      vertex -6.15 -9.5 0
    endloop
  endfacet
  facet normal -0.827084 0.562079 0
    outer loop
      vertex -14.9446 9.48413 0
      vertex -14.3196 10.4038 3
      vertex -14.3196 10.4038 0
    endloop
  endfacet
  facet normal -0.827084 0.562079 0
    outer loop
      vertex -14.9446 9.48413 0
      vertex -14.9446 9.48413 3
      vertex -14.3196 10.4038 3
    endloop
  endfacet
  facet normal -0 0 1
    outer loop
      vertex -14.9446 9.48413 3
      vertex -6.15 -9.5 3
      vertex -14.3196 10.4038 3
    endloop
  endfacet
  facet normal -0.86075 -0.509027 0
    outer loop
      vertex -15.5106 -8.52704 0
      vertex -14.9446 -9.48413 0
      vertex -15.5106 -8.52704 3
    endloop
  endfacet
  facet normal 0 0 -1
    outer loop
      vertex -15.5106 -8.52704 0
      vertex -6.15 -9.5 0
      vertex -14.9446 -9.48413 0
    endloop
  endfacet
  facet normal -0.86075 -0.509027 0
    outer loop
      vertex -15.5106 -8.52704 3
      vertex -14.9446 -9.48413 0
      vertex -14.9446 -9.48413 3
    endloop
  endfacet
  facet normal 0 0 1
    outer loop
      vertex -15.5106 -8.52704 3
      vertex -14.9446 -9.48413 3
      vertex -6.15 -9.5 3
    endloop
  endfacet
  facet normal 0 0 -1
    outer loop
      vertex -15.5106 8.52704 0
      vertex -14.9446 9.48413 0
      vertex -6.15 -9.5 0
    endloop
  endfacet
  facet normal -0.86075 0.509027 0
    outer loop
      vertex -15.5106 8.52704 0
      vertex -14.9446 9.48413 3
      vertex -14.9446 9.48413 0
    endloop
  endfacet
  facet normal -0.86075 0.509027 0
    outer loop
      vertex -15.5106 8.52704 0
      vertex -15.5106 8.52704 3
      vertex -14.9446 9.48413 3
    endloop
  endfacet
  facet normal -0 0 1
    outer loop
      vertex -15.5106 8.52704 3
      vertex -6.15 -9.5 3
      vertex -14.9446 9.48413 3
    endloop
  endfacet
  facet normal -0.891011 -0.453982 0
    outer loop
      vertex -16.0154 -7.53629 0
      vertex -15.5106 -8.52704 0
      vertex -16.0154 -7.53629 3
    endloop
  endfacet
  facet normal 0 0 -1
    outer loop
      vertex -16.0154 -7.53629 0
      vertex -6.15 -9.5 0
      vertex -15.5106 -8.52704 0
    endloop
  endfacet
  facet normal -0.891011 -0.453982 0
    outer loop
      vertex -16.0154 -7.53629 3
      vertex -15.5106 -8.52704 0
      vertex -15.5106 -8.52704 3
    endloop
  endfacet
  facet normal 0 0 1
    outer loop
      vertex -16.0154 -7.53629 3
      vertex -15.5106 -8.52704 3
      vertex -6.15 -9.5 3
    endloop
  endfacet
  facet normal 0 0 -1
    outer loop
      vertex -16.0154 7.53629 0
      vertex -15.5106 8.52704 0
      vertex -6.15 -9.5 0
    endloop
  endfacet
  facet normal -0.891011 0.453982 0
    outer loop
      vertex -16.0154 7.53629 0
      vertex -15.5106 8.52704 3
      vertex -15.5106 8.52704 0
    endloop
  endfacet
  facet normal -0.891011 0.453982 0
    outer loop
      vertex -16.0154 7.53629 0
      vertex -16.0154 7.53629 3
      vertex -15.5106 8.52704 3
    endloop
  endfacet
  facet normal -0 0 1
    outer loop
      vertex -16.0154 7.53629 3
      vertex -6.15 -9.5 3
      vertex -15.5106 8.52704 3
    endloop
  endfacet
  facet normal -0.917756 -0.397144 0
    outer loop
      vertex -16.457 -6.5158 0
      vertex -16.0154 -7.53629 0
      vertex -16.457 -6.5158 3
    endloop
  endfacet
  facet normal 0 0 -1
    outer loop
      vertex -16.457 -6.5158 0
      vertex -6.15 -9.5 0
      vertex -16.0154 -7.53629 0
    endloop
  endfacet
  facet normal -0.917756 -0.397144 0
    outer loop
      vertex -16.457 -6.5158 3
      vertex -16.0154 -7.53629 0
      vertex -16.0154 -7.53629 3
    endloop
  endfacet
  facet normal 0 0 1
    outer loop
      vertex -16.457 -6.5158 3
      vertex -16.0154 -7.53629 3
      vertex -6.15 -9.5 3
    endloop
  endfacet
  facet normal 0 0 -1
    outer loop
      vertex -16.457 6.5158 0
      vertex -16.0154 7.53629 0
      vertex -6.15 -9.5 0
    endloop
  endfacet
  facet normal -0.917756 0.397144 0
    outer loop
      vertex -16.457 6.5158 0
      vertex -16.0154 7.53629 3
      vertex -16.0154 7.53629 0
    endloop
  endfacet
  facet normal -0.917756 0.397144 0
    outer loop
      vertex -16.457 6.5158 0
      vertex -16.457 6.5158 3
      vertex -16.0154 7.53629 3
    endloop
  endfacet
  facet normal -0 0 1
    outer loop
      vertex -16.457 6.5158 3
      vertex -6.15 -9.5 3
      vertex -16.0154 7.53629 3
    endloop
  endfacet
  facet normal -0.940868 -0.338774 0
    outer loop
      vertex -16.8337 -5.4696 0
      vertex -16.457 -6.5158 0
      vertex -16.8337 -5.4696 3
    endloop
  endfacet
  facet normal 0 0 -1
    outer loop
      vertex -16.8337 -5.4696 0
      vertex -6.15 -9.5 0
      vertex -16.457 -6.5158 0
    endloop
  endfacet
  facet normal -0.940868 -0.338774 0
    outer loop
      vertex -16.8337 -5.4696 3
      vertex -16.457 -6.5158 0
      vertex -16.457 -6.5158 3
    endloop
  endfacet
  facet normal 0 0 1
    outer loop
      vertex -16.8337 -5.4696 3
      vertex -16.457 -6.5158 3
      vertex -6.15 -9.5 3
    endloop
  endfacet
  facet normal 0 0 -1
    outer loop
      vertex -16.8337 5.4696 0
      vertex -16.457 6.5158 0
      vertex -6.15 -9.5 0
    endloop
  endfacet
  facet normal -0.940868 0.338774 0
    outer loop
      vertex -16.8337 5.4696 0
      vertex -16.457 6.5158 3
      vertex -16.457 6.5158 0
    endloop
  endfacet
  facet normal -0.940868 0.338774 0
    outer loop
      vertex -16.8337 5.4696 0
      vertex -16.8337 5.4696 3
      vertex -16.457 6.5158 3
    endloop
  endfacet
  facet normal -0 0 1
    outer loop
      vertex -16.8337 5.4696 3
      vertex -6.15 -9.5 3
      vertex -16.457 6.5158 3
    endloop
  endfacet
  facet normal -0.960299 -0.278973 0
    outer loop
      vertex -17.1439 -4.40181 0
      vertex -16.8337 -5.4696 0
      vertex -17.1439 -4.40181 3
    endloop
  endfacet
  facet normal 0 0 -1
    outer loop
      vertex -17.1439 -4.40181 0
      vertex -6.15 -9.5 0
      vertex -16.8337 -5.4696 0
    endloop
  endfacet
  facet normal -0.960299 -0.278973 0
    outer loop
      vertex -17.1439 -4.40181 3
      vertex -16.8337 -5.4696 0
      vertex -16.8337 -5.4696 3
    endloop
  endfacet
  facet normal 0 0 1
    outer loop
      vertex -17.1439 -4.40181 3
      vertex -16.8337 -5.4696 3
      vertex -6.15 -9.5 3
    endloop
  endfacet
  facet normal 0 0 -1
    outer loop
      vertex -17.1439 4.40181 0
      vertex -16.8337 5.4696 0
      vertex -6.15 -9.5 0
    endloop
  endfacet
  facet normal -0.960299 0.278973 0
    outer loop
      vertex -17.1439 4.40181 0
      vertex -16.8337 5.4696 3
      vertex -16.8337 5.4696 0
    endloop
  endfacet
  facet normal -0.960299 0.278973 0
    outer loop
      vertex -17.1439 4.40181 0
      vertex -17.1439 4.40181 3
      vertex -16.8337 5.4696 3
    endloop
  endfacet
  facet normal -0 0 1
    outer loop
      vertex -17.1439 4.40181 3
      vertex -6.15 -9.5 3
      vertex -16.8337 5.4696 3
    endloop
  endfacet
  facet normal -0.975909 -0.218176 0
    outer loop
      vertex -17.3865 -3.31665 0
      vertex -17.1439 -4.40181 0
      vertex -17.3865 -3.31665 3
    endloop
  endfacet
  facet normal 0 0 -1
    outer loop
      vertex -17.3865 -3.31665 0
      vertex -6.15 -9.5 0
      vertex -17.1439 -4.40181 0
    endloop
  endfacet
  facet normal -0.975909 -0.218176 0
    outer loop
      vertex -17.3865 -3.31665 3
      vertex -17.1439 -4.40181 0
      vertex -17.1439 -4.40181 3
    endloop
  endfacet
  facet normal 0 0 1
    outer loop
      vertex -17.3865 -3.31665 3
      vertex -17.1439 -4.40181 3
      vertex -6.15 -9.5 3
    endloop
  endfacet
  facet normal 0 0 -1
    outer loop
      vertex -17.3865 3.31665 0
      vertex -17.1439 4.40181 0
      vertex -6.15 -9.5 0
    endloop
  endfacet
  facet normal -0.975909 0.218176 0
    outer loop
      vertex -17.3865 3.31665 0
      vertex -17.1439 4.40181 3
      vertex -17.1439 4.40181 0
    endloop
  endfacet
  facet normal -0.975909 0.218176 0
    outer loop
      vertex -17.3865 3.31665 0
      vertex -17.3865 3.31665 3
      vertex -17.1439 4.40181 3
    endloop
  endfacet
  facet normal -0 0 1
    outer loop
      vertex -17.3865 3.31665 3
      vertex -6.15 -9.5 3
      vertex -17.1439 4.40181 3
    endloop
  endfacet
  facet normal -0.987695 -0.156394 0
    outer loop
      vertex -17.5604 -2.2184 0
      vertex -17.3865 -3.31665 0
      vertex -17.5604 -2.2184 3
    endloop
  endfacet
  facet normal 0 0 -1
    outer loop
      vertex -17.5604 -2.2184 0
      vertex -6.15 -9.5 0
      vertex -17.3865 -3.31665 0
    endloop
  endfacet
  facet normal -0.987695 -0.156394 0
    outer loop
      vertex -17.5604 -2.2184 3
      vertex -17.3865 -3.31665 0
      vertex -17.3865 -3.31665 3
    endloop
  endfacet
  facet normal 0 0 1
    outer loop
      vertex -17.5604 -2.2184 3
      vertex -17.3865 -3.31665 3
      vertex -6.15 -9.5 3
    endloop
  endfacet
  facet normal 0 0 -1
    outer loop
      vertex -17.5604 2.2184 0
      vertex -17.3865 3.31665 0
      vertex -6.15 -9.5 0
    endloop
  endfacet
  facet normal -0.987695 0.156394 0
    outer loop
      vertex -17.5604 2.2184 0
      vertex -17.3865 3.31665 3
      vertex -17.3865 3.31665 0
    endloop
  endfacet
  facet normal -0.987695 0.156394 0
    outer loop
      vertex -17.5604 2.2184 0
      vertex -17.5604 2.2184 3
      vertex -17.3865 3.31665 3
    endloop
  endfacet
  facet normal -0 0 1
    outer loop
      vertex -17.5604 2.2184 3
      vertex -6.15 -9.5 3
      vertex -17.3865 3.31665 3
    endloop
  endfacet
  facet normal -0.995557 -0.0941589 0
    outer loop
      vertex -17.6651 -1.11139 0
      vertex -17.5604 -2.2184 0
      vertex -17.6651 -1.11139 3
    endloop
  endfacet
  facet normal 0 0 -1
    outer loop
      vertex -17.6651 -1.11139 0
      vertex -6.15 -9.5 0
      vertex -17.5604 -2.2184 0
    endloop
  endfacet
  facet normal -0.995557 -0.0941589 0
    outer loop
      vertex -17.6651 -1.11139 3
      vertex -17.5604 -2.2184 0
      vertex -17.5604 -2.2184 3
    endloop
  endfacet
  facet normal 0 0 1
    outer loop
      vertex -17.6651 -1.11139 3
      vertex -17.5604 -2.2184 3
      vertex -6.15 -9.5 3
    endloop
  endfacet
  facet normal 0 0 -1
    outer loop
      vertex -17.6651 1.11139 0
      vertex -17.5604 2.2184 0
      vertex -6.15 -9.5 0
    endloop
  endfacet
  facet normal -0.995557 0.0941589 0
    outer loop
      vertex -17.6651 1.11139 0
      vertex -17.5604 2.2184 3
      vertex -17.5604 2.2184 0
    endloop
  endfacet
  facet normal -0.995557 0.0941589 0
    outer loop
      vertex -17.6651 1.11139 0
      vertex -17.6651 1.11139 3
      vertex -17.5604 2.2184 3
    endloop
  endfacet
  facet normal -0 0 1
    outer loop
      vertex -17.6651 1.11139 3
      vertex -6.15 -9.5 3
      vertex -17.5604 2.2184 3
    endloop
  endfacet
  facet normal -0.999507 -0.0313866 0
    outer loop
      vertex -17.7 0 0
      vertex -17.6651 -1.11139 0
      vertex -17.7 0 3
    endloop
  endfacet
  facet normal 0 0 -1
    outer loop
      vertex -17.7 0 0
      vertex -17.6651 1.11139 0
      vertex -6.15 -9.5 0
    endloop
  endfacet
  facet normal -0.999507 0.0313866 0
    outer loop
      vertex -17.7 0 0
      vertex -17.6651 1.11139 3
      vertex -17.6651 1.11139 0
    endloop
  endfacet
  facet normal -0.999507 0.0313866 0
    outer loop
      vertex -17.7 0 0
      vertex -17.7 0 3
      vertex -17.6651 1.11139 3
    endloop
  endfacet
  facet normal 0 0 -1
    outer loop
      vertex -17.7 0 0
      vertex -6.15 -9.5 0
      vertex -17.6651 -1.11139 0
    endloop
  endfacet
  facet normal -0.999507 -0.0313866 0
    outer loop
      vertex -17.7 0 3
      vertex -17.6651 -1.11139 0
      vertex -17.6651 -1.11139 3
    endloop
  endfacet
  facet normal 0 0 1
    outer loop
      vertex -17.7 0 3
      vertex -17.6651 -1.11139 3
      vertex -6.15 -9.5 3
    endloop
  endfacet
  facet normal -0 0 1
    outer loop
      vertex -17.7 0 3
      vertex -6.15 -9.5 3
      vertex -17.6651 1.11139 3
    endloop
  endfacet
  facet normal -0.0941589 -0.995557 -0
    outer loop
      vertex -2.2184 -17.5604 0
      vertex -1.11139 -17.6651 0
      vertex -1.11139 -17.6651 3
    endloop
  endfacet
  facet normal -0.0941589 -0.995557 0
    outer loop
      vertex -2.2184 -17.5604 0
      vertex -1.11139 -17.6651 3
      vertex -2.2184 -17.5604 3
    endloop
  endfacet
  facet normal -0.156394 -0.987695 -0
    outer loop
      vertex -3.31665 -17.3865 0
      vertex -2.2184 -17.5604 0
      vertex -2.2184 -17.5604 3
    endloop
  endfacet
  facet normal -0.156394 -0.987695 0
    outer loop
      vertex -3.31665 -17.3865 0
      vertex -2.2184 -17.5604 3
      vertex -3.31665 -17.3865 3
    endloop
  endfacet
  facet normal -0.218176 -0.975909 -0
    outer loop
      vertex -4.40181 -17.1439 0
      vertex -3.31665 -17.3865 0
      vertex -3.31665 -17.3865 3
    endloop
  endfacet
  facet normal -0.218176 -0.975909 0
    outer loop
      vertex -4.40181 -17.1439 0
      vertex -3.31665 -17.3865 3
      vertex -4.40181 -17.1439 3
    endloop
  endfacet
  facet normal -0.278973 -0.960299 -0
    outer loop
      vertex -5.4696 -16.8337 0
      vertex -4.40181 -17.1439 0
      vertex -4.40181 -17.1439 3
    endloop
  endfacet
  facet normal -0.278973 -0.960299 0
    outer loop
      vertex -5.4696 -16.8337 0
      vertex -4.40181 -17.1439 3
      vertex -5.4696 -16.8337 3
    endloop
  endfacet
  facet normal 0 0 -1
    outer loop
      vertex -6.15 -9.5 0
      vertex -1.11139 -17.6651 0
      vertex -2.2184 -17.5604 0
    endloop
  endfacet
  facet normal 0 0 -1
    outer loop
      vertex -6.15 -9.5 0
      vertex -2.2184 -17.5604 0
      vertex -3.31665 -17.3865 0
    endloop
  endfacet
  facet normal 0 0 -1
    outer loop
      vertex -6.15 -9.5 0
      vertex -3.31665 -17.3865 0
      vertex -4.40181 -17.1439 0
    endloop
  endfacet
  facet normal 0 0 -1
    outer loop
      vertex -6.15 -9.5 0
      vertex -4.40181 -17.1439 0
      vertex -5.4696 -16.8337 0
    endloop
  endfacet
  facet normal 0 1 0
    outer loop
      vertex -6.15 -9.5 0
      vertex -6.15 -9.5 3
      vertex 6.15 -9.5 0
    endloop
  endfacet
  facet normal 1 0 0
    outer loop
      vertex -6.15 -9.5 0
      vertex -6.15 16.5887 0
      vertex -6.15 -9.5 3
    endloop
  endfacet
  facet normal 0 0 -1
    outer loop
      vertex -6.15 -9.5 0
      vertex 0 -17.7 0
      vertex -1.11139 -17.6651 0
    endloop
  endfacet
  facet normal 0 0 -1
    outer loop
      vertex -6.15 -9.5 0
      vertex 6.15 -9.5 0
      vertex 0 -17.7 0
    endloop
  endfacet
  facet normal 0 0 1
    outer loop
      vertex -6.15 -9.5 3
      vertex -1.11139 -17.6651 3
      vertex 0 -17.7 3
    endloop
  endfacet
  facet normal 0 0 1
    outer loop
      vertex -6.15 -9.5 3
      vertex -2.2184 -17.5604 3
      vertex -1.11139 -17.6651 3
    endloop
  endfacet
  facet normal 0 0 1
    outer loop
      vertex -6.15 -9.5 3
      vertex -3.31665 -17.3865 3
      vertex -2.2184 -17.5604 3
    endloop
  endfacet
  facet normal 0 0 1
    outer loop
      vertex -6.15 -9.5 3
      vertex -4.40181 -17.1439 3
      vertex -3.31665 -17.3865 3
    endloop
  endfacet
  facet normal 0 0 1
    outer loop
      vertex -6.15 -9.5 3
      vertex -5.4696 -16.8337 3
      vertex -4.40181 -17.1439 3
    endloop
  endfacet
  facet normal 1 -0 0
    outer loop
      vertex -6.15 -9.5 3
      vertex -6.15 16.5887 0
      vertex -6.15 16.5887 3
    endloop
  endfacet
  facet normal -0 0 1
    outer loop
      vertex -6.15 -9.5 3
      vertex 0 -17.7 3
      vertex 6.15 -9.5 3
    endloop
  endfacet
  facet normal 0 1 -0
    outer loop
      vertex -6.15 -9.5 3
      vertex 6.15 -9.5 3
      vertex 6.15 -9.5 0
    endloop
  endfacet
  facet normal -0.338774 -0.940868 -0
    outer loop
      vertex -6.5158 -16.457 0
      vertex -5.4696 -16.8337 0
      vertex -5.4696 -16.8337 3
    endloop
  endfacet
  facet normal -0.338774 -0.940868 0
    outer loop
      vertex -6.5158 -16.457 0
      vertex -5.4696 -16.8337 3
      vertex -6.5158 -16.457 3
    endloop
  endfacet
  facet normal 0 0 -1
    outer loop
      vertex -6.5158 -16.457 0
      vertex -6.15 -9.5 0
      vertex -5.4696 -16.8337 0
    endloop
  endfacet
  facet normal 0 0 1
    outer loop
      vertex -6.5158 -16.457 3
      vertex -5.4696 -16.8337 3
      vertex -6.15 -9.5 3
    endloop
  endfacet
  facet normal -0.338747 0.940878 0
    outer loop
      vertex -6.5158 16.457 0
      vertex -6.5158 16.457 3
      vertex -6.15 16.5887 0
    endloop
  endfacet
  facet normal 0 0 1
    outer loop
      vertex -6.5158 16.457 3
      vertex -6.15 -9.5 3
      vertex -6.15 16.5887 3
    endloop
  endfacet
  facet normal -0.338747 0.940878 0
    outer loop
      vertex -6.5158 16.457 3
      vertex -6.15 16.5887 3
      vertex -6.15 16.5887 0
    endloop
  endfacet
  facet normal 0 0 -1
    outer loop
      vertex -7.53629 -16.0154 0
      vertex -6.15 -9.5 0
      vertex -6.5158 -16.457 0
    endloop
  endfacet
  facet normal -0.397144 -0.917756 -0
    outer loop
      vertex -7.53629 -16.0154 0
      vertex -6.5158 -16.457 0
      vertex -6.5158 -16.457 3
    endloop
  endfacet
  facet normal -0.397144 -0.917756 0
    outer loop
      vertex -7.53629 -16.0154 0
      vertex -6.5158 -16.457 3
      vertex -7.53629 -16.0154 3
    endloop
  endfacet
  facet normal 0 0 1
    outer loop
      vertex -7.53629 -16.0154 3
      vertex -6.5158 -16.457 3
      vertex -6.15 -9.5 3
    endloop
  endfacet
  facet normal 0 0 -1
    outer loop
      vertex -7.53629 16.0154 0
      vertex -6.15 16.5887 0
      vertex -6.15 -9.5 0
    endloop
  endfacet
  facet normal 0 0 -1
    outer loop
      vertex -7.53629 16.0154 0
      vertex -6.5158 16.457 0
      vertex -6.15 16.5887 0
    endloop
  endfacet
  facet normal -0.397144 0.917756 0
    outer loop
      vertex -7.53629 16.0154 0
      vertex -7.53629 16.0154 3
      vertex -6.5158 16.457 0
    endloop
  endfacet
  facet normal -0 0 1
    outer loop
      vertex -7.53629 16.0154 3
      vertex -6.15 -9.5 3
      vertex -6.5158 16.457 3
    endloop
  endfacet
  facet normal -0.397144 0.917756 0
    outer loop
      vertex -7.53629 16.0154 3
      vertex -6.5158 16.457 3
      vertex -6.5158 16.457 0
    endloop
  endfacet
  facet normal 0 0 -1
    outer loop
      vertex -8.52704 -15.5106 0
      vertex -6.15 -9.5 0
      vertex -7.53629 -16.0154 0
    endloop
  endfacet
  facet normal -0.453982 -0.891011 -0
    outer loop
      vertex -8.52704 -15.5106 0
      vertex -7.53629 -16.0154 0
      vertex -7.53629 -16.0154 3
    endloop
  endfacet
  facet normal -0.453982 -0.891011 0
    outer loop
      vertex -8.52704 -15.5106 0
      vertex -7.53629 -16.0154 3
      vertex -8.52704 -15.5106 3
    endloop
  endfacet
  facet normal 0 0 1
    outer loop
      vertex -8.52704 -15.5106 3
      vertex -7.53629 -16.0154 3
      vertex -6.15 -9.5 3
    endloop
  endfacet
  facet normal 0 0 -1
    outer loop
      vertex -8.52704 15.5106 0
      vertex -7.53629 16.0154 0
      vertex -6.15 -9.5 0
    endloop
  endfacet
  facet normal -0.453982 0.891011 0
    outer loop
      vertex -8.52704 15.5106 0
      vertex -8.52704 15.5106 3
      vertex -7.53629 16.0154 0
    endloop
  endfacet
  facet normal -0 0 1
    outer loop
      vertex -8.52704 15.5106 3
      vertex -6.15 -9.5 3
      vertex -7.53629 16.0154 3
    endloop
  endfacet
  facet normal -0.453982 0.891011 0
    outer loop
      vertex -8.52704 15.5106 3
      vertex -7.53629 16.0154 3
      vertex -7.53629 16.0154 0
    endloop
  endfacet
  facet normal 0 0 -1
    outer loop
      vertex -9.48413 -14.9446 0
      vertex -6.15 -9.5 0
      vertex -8.52704 -15.5106 0
    endloop
  endfacet
  facet normal -0.509027 -0.86075 -0
    outer loop
      vertex -9.48413 -14.9446 0
      vertex -8.52704 -15.5106 0
      vertex -8.52704 -15.5106 3
    endloop
  endfacet
  facet normal -0.509027 -0.86075 0
    outer loop
      vertex -9.48413 -14.9446 0
      vertex -8.52704 -15.5106 3
      vertex -9.48413 -14.9446 3
    endloop
  endfacet
  facet normal 0 0 1
    outer loop
      vertex -9.48413 -14.9446 3
      vertex -8.52704 -15.5106 3
      vertex -6.15 -9.5 3
    endloop
  endfacet
  facet normal 0 0 -1
    outer loop
      vertex -9.48413 14.9446 0
      vertex -8.52704 15.5106 0
      vertex -6.15 -9.5 0
    endloop
  endfacet
  facet normal -0.509027 0.86075 0
    outer loop
      vertex -9.48413 14.9446 0
      vertex -9.48413 14.9446 3
      vertex -8.52704 15.5106 0
    endloop
  endfacet
  facet normal -0 0 1
    outer loop
      vertex -9.48413 14.9446 3
      vertex -6.15 -9.5 3
      vertex -8.52704 15.5106 3
    endloop
  endfacet
  facet normal -0.509027 0.86075 0
    outer loop
      vertex -9.48413 14.9446 3
      vertex -8.52704 15.5106 3
      vertex -8.52704 15.5106 0
    endloop
  endfacet
  facet normal 0.0313866 -0.999507 0
    outer loop
      vertex 0 -17.7 0
      vertex 1.11139 -17.6651 0
      vertex 1.11139 -17.6651 3
    endloop
  endfacet
  facet normal 0.0313866 -0.999507 0
    outer loop
      vertex 0 -17.7 0
      vertex 1.11139 -17.6651 3
      vertex 0 -17.7 3
    endloop
  endfacet
  facet normal 0 0 -1
    outer loop
      vertex 0 -17.7 0
      vertex 6.15 -9.5 0
      vertex 1.11139 -17.6651 0
    endloop
  endfacet
  facet normal 0 0 1
    outer loop
      vertex 0 -17.7 3
      vertex 1.11139 -17.6651 3
      vertex 6.15 -9.5 3
    endloop
  endfacet
  facet normal 0.0941589 -0.995557 0
    outer loop
      vertex 1.11139 -17.6651 0
      vertex 2.2184 -17.5604 0
      vertex 2.2184 -17.5604 3
    endloop
  endfacet
  facet normal 0.0941589 -0.995557 0
    outer loop
      vertex 1.11139 -17.6651 0
      vertex 2.2184 -17.5604 3
      vertex 1.11139 -17.6651 3
    endloop
  endfacet
  facet normal 0 0 -1
    outer loop
      vertex 1.11139 -17.6651 0
      vertex 6.15 -9.5 0
      vertex 2.2184 -17.5604 0
    endloop
  endfacet
  facet normal 0 0 1
    outer loop
      vertex 1.11139 -17.6651 3
      vertex 2.2184 -17.5604 3
      vertex 6.15 -9.5 3
    endloop
  endfacet
  facet normal 0.6129 -0.79016 0
    outer loop
      vertex 10.4038 -14.3196 0
      vertex 11.2824 -13.6381 0
      vertex 11.2824 -13.6381 3
    endloop
  endfacet
  facet normal 0.6129 -0.79016 0
    outer loop
      vertex 10.4038 -14.3196 0
      vertex 11.2824 -13.6381 3
      vertex 10.4038 -14.3196 3
    endloop
  endfacet
  facet normal 0.6129 0.79016 0
    outer loop
      vertex 10.4038 14.3196 0
      vertex 10.4038 14.3196 3
      vertex 11.2824 13.6381 0
    endloop
  endfacet
  facet normal 0.6129 0.79016 -0
    outer loop
      vertex 10.4038 14.3196 3
      vertex 11.2824 13.6381 3
      vertex 11.2824 13.6381 0
    endloop
  endfacet
  facet normal 0.661333 -0.750092 0
    outer loop
      vertex 11.2824 -13.6381 0
      vertex 12.1165 -12.9027 0
      vertex 12.1165 -12.9027 3
    endloop
  endfacet
  facet normal 0.661333 -0.750092 0
    outer loop
      vertex 11.2824 -13.6381 0
      vertex 12.1165 -12.9027 3
      vertex 11.2824 -13.6381 3
    endloop
  endfacet
  facet normal 0.661333 0.750092 0
    outer loop
      vertex 11.2824 13.6381 0
      vertex 11.2824 13.6381 3
      vertex 12.1165 12.9027 0
    endloop
  endfacet
  facet normal 0.661333 0.750092 -0
    outer loop
      vertex 11.2824 13.6381 3
      vertex 12.1165 12.9027 3
      vertex 12.1165 12.9027 0
    endloop
  endfacet
  facet normal 0.707107 -0.707107 0
    outer loop
      vertex 12.1165 -12.9027 0
      vertex 12.9027 -12.1165 0
      vertex 12.1165 -12.9027 3
    endloop
  endfacet
  facet normal 0.707107 -0.707107 0
    outer loop
      vertex 12.1165 -12.9027 3
      vertex 12.9027 -12.1165 0
      vertex 12.9027 -12.1165 3
    endloop
  endfacet
  facet normal 0.707107 0.707107 0
    outer loop
      vertex 12.1165 12.9027 0
      vertex 12.1165 12.9027 3
      vertex 12.9027 12.1165 3
    endloop
  endfacet
  facet normal 0.707107 0.707107 0
    outer loop
      vertex 12.1165 12.9027 0
      vertex 12.9027 12.1165 3
      vertex 12.9027 12.1165 0
    endloop
  endfacet
  facet normal 0.750092 -0.661333 0
    outer loop
      vertex 12.9027 -12.1165 0
      vertex 13.6381 -11.2824 0
      vertex 12.9027 -12.1165 3
    endloop
  endfacet
  facet normal 0.750092 -0.661333 0
    outer loop
      vertex 12.9027 -12.1165 3
      vertex 13.6381 -11.2824 0
      vertex 13.6381 -11.2824 3
    endloop
  endfacet
  facet normal 0.750092 0.661333 0
    outer loop
      vertex 12.9027 12.1165 0
      vertex 12.9027 12.1165 3
      vertex 13.6381 11.2824 3
    endloop
  endfacet
  facet normal 0.750092 0.661333 0
    outer loop
      vertex 12.9027 12.1165 0
      vertex 13.6381 11.2824 3
      vertex 13.6381 11.2824 0
    endloop
  endfacet
  facet normal 0.79016 -0.6129 0
    outer loop
      vertex 13.6381 -11.2824 0
      vertex 14.3196 -10.4038 0
      vertex 13.6381 -11.2824 3
    endloop
  endfacet
  facet normal 0.79016 -0.6129 0
    outer loop
      vertex 13.6381 -11.2824 3
      vertex 14.3196 -10.4038 0
      vertex 14.3196 -10.4038 3
    endloop
  endfacet
  facet normal 0.79016 0.6129 0
    outer loop
      vertex 13.6381 11.2824 0
      vertex 13.6381 11.2824 3
      vertex 14.3196 10.4038 3
    endloop
  endfacet
  facet normal 0.79016 0.6129 0
    outer loop
      vertex 13.6381 11.2824 0
      vertex 14.3196 10.4038 3
      vertex 14.3196 10.4038 0
    endloop
  endfacet
  facet normal 0.827084 -0.562079 0
    outer loop
      vertex 14.3196 -10.4038 0
      vertex 14.9446 -9.48413 0
      vertex 14.3196 -10.4038 3
    endloop
  endfacet
  facet normal 0.827084 -0.562079 0
    outer loop
      vertex 14.3196 -10.4038 3
      vertex 14.9446 -9.48413 0
      vertex 14.9446 -9.48413 3
    endloop
  endfacet
  facet normal 0.827084 0.562079 0
    outer loop
      vertex 14.3196 10.4038 0
      vertex 14.3196 10.4038 3
      vertex 14.9446 9.48413 3
    endloop
  endfacet
  facet normal 0.827084 0.562079 0
    outer loop
      vertex 14.3196 10.4038 0
      vertex 14.9446 9.48413 3
      vertex 14.9446 9.48413 0
    endloop
  endfacet
  facet normal 0.86075 -0.509027 0
    outer loop
      vertex 14.9446 -9.48413 0
      vertex 15.5106 -8.52704 0
      vertex 14.9446 -9.48413 3
    endloop
  endfacet
  facet normal 0.86075 -0.509027 0
    outer loop
      vertex 14.9446 -9.48413 3
      vertex 15.5106 -8.52704 0
      vertex 15.5106 -8.52704 3
    endloop
  endfacet
  facet normal 0.86075 0.509027 0
    outer loop
      vertex 14.9446 9.48413 0
      vertex 14.9446 9.48413 3
      vertex 15.5106 8.52704 3
    endloop
  endfacet
  facet normal 0.86075 0.509027 0
    outer loop
      vertex 14.9446 9.48413 0
      vertex 15.5106 8.52704 3
      vertex 15.5106 8.52704 0
    endloop
  endfacet
  facet normal 0.891011 -0.453982 0
    outer loop
      vertex 15.5106 -8.52704 0
      vertex 16.0154 -7.53629 0
      vertex 15.5106 -8.52704 3
    endloop
  endfacet
  facet normal 0.891011 -0.453982 0
    outer loop
      vertex 15.5106 -8.52704 3
      vertex 16.0154 -7.53629 0
      vertex 16.0154 -7.53629 3
    endloop
  endfacet
  facet normal 0.891011 0.453982 0
    outer loop
      vertex 15.5106 8.52704 0
      vertex 15.5106 8.52704 3
      vertex 16.0154 7.53629 3
    endloop
  endfacet
  facet normal 0.891011 0.453982 0
    outer loop
      vertex 15.5106 8.52704 0
      vertex 16.0154 7.53629 3
      vertex 16.0154 7.53629 0
    endloop
  endfacet
  facet normal 0.917756 -0.397144 0
    outer loop
      vertex 16.0154 -7.53629 0
      vertex 16.457 -6.5158 0
      vertex 16.0154 -7.53629 3
    endloop
  endfacet
  facet normal 0.917756 -0.397144 0
    outer loop
      vertex 16.0154 -7.53629 3
      vertex 16.457 -6.5158 0
      vertex 16.457 -6.5158 3
    endloop
  endfacet
  facet normal 0.917756 0.397144 0
    outer loop
      vertex 16.0154 7.53629 0
      vertex 16.0154 7.53629 3
      vertex 16.457 6.5158 3
    endloop
  endfacet
  facet normal 0.917756 0.397144 0
    outer loop
      vertex 16.0154 7.53629 0
      vertex 16.457 6.5158 3
      vertex 16.457 6.5158 0
    endloop
  endfacet
  facet normal 0.940868 -0.338774 0
    outer loop
      vertex 16.457 -6.5158 0
      vertex 16.8337 -5.4696 0
      vertex 16.457 -6.5158 3
    endloop
  endfacet
  facet normal 0.940868 -0.338774 0
    outer loop
      vertex 16.457 -6.5158 3
      vertex 16.8337 -5.4696 0
      vertex 16.8337 -5.4696 3
    endloop
  endfacet
  facet normal 0.940868 0.338774 0
    outer loop
      vertex 16.457 6.5158 0
      vertex 16.457 6.5158 3
      vertex 16.8337 5.4696 3
    endloop
  endfacet
  facet normal 0.940868 0.338774 0
    outer loop
      vertex 16.457 6.5158 0
      vertex 16.8337 5.4696 3
      vertex 16.8337 5.4696 0
    endloop
  endfacet
  facet normal 0.960299 -0.278973 0
    outer loop
      vertex 16.8337 -5.4696 0
      vertex 17.1439 -4.40181 0
      vertex 16.8337 -5.4696 3
    endloop
  endfacet
  facet normal 0.960299 -0.278973 0
    outer loop
      vertex 16.8337 -5.4696 3
      vertex 17.1439 -4.40181 0
      vertex 17.1439 -4.40181 3
    endloop
  endfacet
  facet normal 0.960299 0.278973 0
    outer loop
      vertex 16.8337 5.4696 0
      vertex 16.8337 5.4696 3
      vertex 17.1439 4.40181 3
    endloop
  endfacet
  facet normal 0.960299 0.278973 0
    outer loop
      vertex 16.8337 5.4696 0
      vertex 17.1439 4.40181 3
      vertex 17.1439 4.40181 0
    endloop
  endfacet
  facet normal 0.975909 -0.218176 0
    outer loop
      vertex 17.1439 -4.40181 0
      vertex 17.3865 -3.31665 0
      vertex 17.1439 -4.40181 3
    endloop
  endfacet
  facet normal 0.975909 -0.218176 0
    outer loop
      vertex 17.1439 -4.40181 3
      vertex 17.3865 -3.31665 0
      vertex 17.3865 -3.31665 3
    endloop
  endfacet
  facet normal 0.975909 0.218176 0
    outer loop
      vertex 17.1439 4.40181 0
      vertex 17.1439 4.40181 3
      vertex 17.3865 3.31665 3
    endloop
  endfacet
  facet normal 0.975909 0.218176 0
    outer loop
      vertex 17.1439 4.40181 0
      vertex 17.3865 3.31665 3
      vertex 17.3865 3.31665 0
    endloop
  endfacet
  facet normal 0.987695 -0.156394 0
    outer loop
      vertex 17.3865 -3.31665 0
      vertex 17.5604 -2.2184 0
      vertex 17.3865 -3.31665 3
    endloop
  endfacet
  facet normal 0.987695 -0.156394 0
    outer loop
      vertex 17.3865 -3.31665 3
      vertex 17.5604 -2.2184 0
      vertex 17.5604 -2.2184 3
    endloop
  endfacet
  facet normal 0.987695 0.156394 0
    outer loop
      vertex 17.3865 3.31665 0
      vertex 17.3865 3.31665 3
      vertex 17.5604 2.2184 3
    endloop
  endfacet
  facet normal 0.987695 0.156394 0
    outer loop
      vertex 17.3865 3.31665 0
      vertex 17.5604 2.2184 3
      vertex 17.5604 2.2184 0
    endloop
  endfacet
  facet normal 0.995557 -0.0941589 0
    outer loop
      vertex 17.5604 -2.2184 0
      vertex 17.6651 -1.11139 0
      vertex 17.5604 -2.2184 3
    endloop
  endfacet
  facet normal 0.995557 -0.0941589 0
    outer loop
      vertex 17.5604 -2.2184 3
      vertex 17.6651 -1.11139 0
      vertex 17.6651 -1.11139 3
    endloop
  endfacet
  facet normal 0.995557 0.0941589 0
    outer loop
      vertex 17.5604 2.2184 0
      vertex 17.5604 2.2184 3
      vertex 17.6651 1.11139 3
    endloop
  endfacet
  facet normal 0.995557 0.0941589 0
    outer loop
      vertex 17.5604 2.2184 0
      vertex 17.6651 1.11139 3
      vertex 17.6651 1.11139 0
    endloop
  endfacet
  facet normal 0.999507 -0.0313866 0
    outer loop
      vertex 17.6651 -1.11139 0
      vertex 17.7 0 0
      vertex 17.6651 -1.11139 3
    endloop
  endfacet
  facet normal 0.999507 -0.0313866 0
    outer loop
      vertex 17.6651 -1.11139 3
      vertex 17.7 0 0
      vertex 17.7 0 3
    endloop
  endfacet
  facet normal 0.999507 0.0313866 0
    outer loop
      vertex 17.6651 1.11139 0
      vertex 17.6651 1.11139 3
      vertex 17.7 0 3
    endloop
  endfacet
  facet normal 0.999507 0.0313866 0
    outer loop
      vertex 17.6651 1.11139 0
      vertex 17.7 0 3
      vertex 17.7 0 0
    endloop
  endfacet
  facet normal 0.156394 -0.987695 0
    outer loop
      vertex 2.2184 -17.5604 0
      vertex 3.31665 -17.3865 0
      vertex 3.31665 -17.3865 3
    endloop
  endfacet
  facet normal 0.156394 -0.987695 0
    outer loop
      vertex 2.2184 -17.5604 0
      vertex 3.31665 -17.3865 3
      vertex 2.2184 -17.5604 3
    endloop
  endfacet
  facet normal 0 0 -1
    outer loop
      vertex 2.2184 -17.5604 0
      vertex 6.15 -9.5 0
      vertex 3.31665 -17.3865 0
    endloop
  endfacet
  facet normal 0 0 1
    outer loop
      vertex 2.2184 -17.5604 3
      vertex 3.31665 -17.3865 3
      vertex 6.15 -9.5 3
    endloop
  endfacet
  facet normal 0.218176 -0.975909 0
    outer loop
      vertex 3.31665 -17.3865 0
      vertex 4.40181 -17.1439 0
      vertex 4.40181 -17.1439 3
    endloop
  endfacet
  facet normal 0.218176 -0.975909 0
    outer loop
      vertex 3.31665 -17.3865 0
      vertex 4.40181 -17.1439 3
      vertex 3.31665 -17.3865 3
    endloop
  endfacet
  facet normal 0 0 -1
    outer loop
      vertex 3.31665 -17.3865 0
      vertex 6.15 -9.5 0
      vertex 4.40181 -17.1439 0
    endloop
  endfacet
  facet normal 0 0 1
    outer loop
      vertex 3.31665 -17.3865 3
      vertex 4.40181 -17.1439 3
      vertex 6.15 -9.5 3
    endloop
  endfacet
  facet normal 0.278973 -0.960299 0
    outer loop
      vertex 4.40181 -17.1439 0
      vertex 5.4696 -16.8337 0
      vertex 5.4696 -16.8337 3
    endloop
  endfacet
  facet normal 0.278973 -0.960299 0
    outer loop
      vertex 4.40181 -17.1439 0
      vertex 5.4696 -16.8337 3
      vertex 4.40181 -17.1439 3
    endloop
  endfacet
  facet normal 0 0 -1
    outer loop
      vertex 4.40181 -17.1439 0
      vertex 6.15 -9.5 0
      vertex 5.4696 -16.8337 0
    endloop
  endfacet
  facet normal 0 0 1
    outer loop
      vertex 4.40181 -17.1439 3
      vertex 5.4696 -16.8337 3
      vertex 6.15 -9.5 3
    endloop
  endfacet
  facet normal 0 0 -1
    outer loop
      vertex 5.4696 -16.8337 0
      vertex 6.15 -9.5 0
      vertex 6.5158 -16.457 0
    endloop
  endfacet
  facet normal 0.338774 -0.940868 0
    outer loop
      vertex 5.4696 -16.8337 0
      vertex 6.5158 -16.457 0
      vertex 6.5158 -16.457 3
    endloop
  endfacet
  facet normal 0.338774 -0.940868 0
    outer loop
      vertex 5.4696 -16.8337 0
      vertex 6.5158 -16.457 3
      vertex 5.4696 -16.8337 3
    endloop
  endfacet
  facet normal 0 0 1
    outer loop
      vertex 5.4696 -16.8337 3
      vertex 6.5158 -16.457 3
      vertex 6.15 -9.5 3
    endloop
  endfacet
  facet normal 0 0 -1
    outer loop
      vertex 6.15 -9.5 0
      vertex 10.4038 -14.3196 0
      vertex 9.48413 -14.9446 0
    endloop
  endfacet
  facet normal -0 0 -1
    outer loop
      vertex 6.15 -9.5 0
      vertex 10.4038 14.3196 0
      vertex 11.2824 13.6381 0
    endloop
  endfacet
  facet normal 0 0 -1
    outer loop
      vertex 6.15 -9.5 0
      vertex 11.2824 -13.6381 0
      vertex 10.4038 -14.3196 0
    endloop
  endfacet
  facet normal -0 0 -1
    outer loop
      vertex 6.15 -9.5 0
      vertex 11.2824 13.6381 0
      vertex 12.1165 12.9027 0
    endloop
  endfacet
  facet normal 0 0 -1
    outer loop
      vertex 6.15 -9.5 0
      vertex 12.1165 -12.9027 0
      vertex 11.2824 -13.6381 0
    endloop
  endfacet
  facet normal -0 0 -1
    outer loop
      vertex 6.15 -9.5 0
      vertex 12.1165 12.9027 0
      vertex 12.9027 12.1165 0
    endloop
  endfacet
  facet normal 0 0 -1
    outer loop
      vertex 6.15 -9.5 0
      vertex 12.9027 -12.1165 0
      vertex 12.1165 -12.9027 0
    endloop
  endfacet
  facet normal -0 0 -1
    outer loop
      vertex 6.15 -9.5 0
      vertex 12.9027 12.1165 0
      vertex 13.6381 11.2824 0
    endloop
  endfacet
  facet normal 0 0 -1
    outer loop
      vertex 6.15 -9.5 0
      vertex 13.6381 -11.2824 0
      vertex 12.9027 -12.1165 0
    endloop
  endfacet
  facet normal -0 0 -1
    outer loop
      vertex 6.15 -9.5 0
      vertex 13.6381 11.2824 0
      vertex 14.3196 10.4038 0
    endloop
  endfacet
  facet normal 0 0 -1
    outer loop
      vertex 6.15 -9.5 0
      vertex 14.3196 -10.4038 0
      vertex 13.6381 -11.2824 0
    endloop
  endfacet
  facet normal -0 0 -1
    outer loop
      vertex 6.15 -9.5 0
      vertex 14.3196 10.4038 0
      vertex 14.9446 9.48413 0
    endloop
  endfacet
  facet normal 0 0 -1
    outer loop
      vertex 6.15 -9.5 0
      vertex 14.9446 -9.48413 0
      vertex 14.3196 -10.4038 0
    endloop
  endfacet
  facet normal -0 0 -1
    outer loop
      vertex 6.15 -9.5 0
      vertex 14.9446 9.48413 0
      vertex 15.5106 8.52704 0
    endloop
  endfacet
  facet normal 0 0 -1
    outer loop
      vertex 6.15 -9.5 0
      vertex 15.5106 -8.52704 0
      vertex 14.9446 -9.48413 0
    endloop
  endfacet
  facet normal -0 0 -1
    outer loop
      vertex 6.15 -9.5 0
      vertex 15.5106 8.52704 0
      vertex 16.0154 7.53629 0
    endloop
  endfacet
  facet normal 0 0 -1
    outer loop
      vertex 6.15 -9.5 0
      vertex 16.0154 -7.53629 0
      vertex 15.5106 -8.52704 0
    endloop
  endfacet
  facet normal -0 0 -1
    outer loop
      vertex 6.15 -9.5 0
      vertex 16.0154 7.53629 0
      vertex 16.457 6.5158 0
    endloop
  endfacet
  facet normal 0 0 -1
    outer loop
      vertex 6.15 -9.5 0
      vertex 16.457 -6.5158 0
      vertex 16.0154 -7.53629 0
    endloop
  endfacet
  facet normal -0 0 -1
    outer loop
      vertex 6.15 -9.5 0
      vertex 16.457 6.5158 0
      vertex 16.8337 5.4696 0
    endloop
  endfacet
  facet normal 0 0 -1
    outer loop
      vertex 6.15 -9.5 0
      vertex 16.8337 -5.4696 0
      vertex 16.457 -6.5158 0
    endloop
  endfacet
  facet normal -0 0 -1
    outer loop
      vertex 6.15 -9.5 0
      vertex 16.8337 5.4696 0
      vertex 17.1439 4.40181 0
    endloop
  endfacet
  facet normal 0 0 -1
    outer loop
      vertex 6.15 -9.5 0
      vertex 17.1439 -4.40181 0
      vertex 16.8337 -5.4696 0
    endloop
  endfacet
  facet normal -0 0 -1
    outer loop
      vertex 6.15 -9.5 0
      vertex 17.1439 4.40181 0
      vertex 17.3865 3.31665 0
    endloop
  endfacet
  facet normal 0 0 -1
    outer loop
      vertex 6.15 -9.5 0
      vertex 17.3865 -3.31665 0
      vertex 17.1439 -4.40181 0
    endloop
  endfacet
  facet normal -0 0 -1
    outer loop
      vertex 6.15 -9.5 0
      vertex 17.3865 3.31665 0
      vertex 17.5604 2.2184 0
    endloop
  endfacet
  facet normal 0 0 -1
    outer loop
      vertex 6.15 -9.5 0
      vertex 17.5604 -2.2184 0
      vertex 17.3865 -3.31665 0
    endloop
  endfacet
  facet normal -0 0 -1
    outer loop
      vertex 6.15 -9.5 0
      vertex 17.5604 2.2184 0
      vertex 17.6651 1.11139 0
    endloop
  endfacet
  facet normal 0 0 -1
    outer loop
      vertex 6.15 -9.5 0
      vertex 17.6651 -1.11139 0
      vertex 17.5604 -2.2184 0
    endloop
  endfacet
  facet normal -0 0 -1
    outer loop
      vertex 6.15 -9.5 0
      vertex 17.6651 1.11139 0
      vertex 17.7 0 0
    endloop
  endfacet
  facet normal 0 0 -1
    outer loop
      vertex 6.15 -9.5 0
      vertex 17.7 0 0
      vertex 17.6651 -1.11139 0
    endloop
  endfacet
  facet normal -1 -0 0
    outer loop
      vertex 6.15 -9.5 0
      vertex 6.15 -9.5 3
      vertex 6.15 16.5887 3
    endloop
  endfacet
  facet normal -0 0 -1
    outer loop
      vertex 6.15 -9.5 0
      vertex 6.15 16.5887 0
      vertex 6.5158 16.457 0
    endloop
  endfacet
  facet normal -1 0 0
    outer loop
      vertex 6.15 -9.5 0
      vertex 6.15 16.5887 3
      vertex 6.15 16.5887 0
    endloop
  endfacet
  facet normal -0 0 -1
    outer loop
      vertex 6.15 -9.5 0
      vertex 6.5158 16.457 0
      vertex 7.53629 16.0154 0
    endloop
  endfacet
  facet normal 0 0 -1
    outer loop
      vertex 6.15 -9.5 0
      vertex 7.53629 -16.0154 0
      vertex 6.5158 -16.457 0
    endloop
  endfacet
  facet normal -0 0 -1
    outer loop
      vertex 6.15 -9.5 0
      vertex 7.53629 16.0154 0
      vertex 8.52704 15.5106 0
    endloop
  endfacet
  facet normal 0 0 -1
    outer loop
      vertex 6.15 -9.5 0
      vertex 8.52704 -15.5106 0
      vertex 7.53629 -16.0154 0
    endloop
  endfacet
  facet normal -0 0 -1
    outer loop
      vertex 6.15 -9.5 0
      vertex 8.52704 15.5106 0
      vertex 9.48413 14.9446 0
    endloop
  endfacet
  facet normal 0 0 -1
    outer loop
      vertex 6.15 -9.5 0
      vertex 9.48413 -14.9446 0
      vertex 8.52704 -15.5106 0
    endloop
  endfacet
  facet normal -0 0 -1
    outer loop
      vertex 6.15 -9.5 0
      vertex 9.48413 14.9446 0
      vertex 10.4038 14.3196 0
    endloop
  endfacet
  facet normal 0 0 1
    outer loop
      vertex 6.15 -9.5 3
      vertex 10.4038 -14.3196 3
      vertex 11.2824 -13.6381 3
    endloop
  endfacet
  facet normal 0 0 1
    outer loop
      vertex 6.15 -9.5 3
      vertex 10.4038 14.3196 3
      vertex 9.48413 14.9446 3
    endloop
  endfacet
  facet normal 0 0 1
    outer loop
      vertex 6.15 -9.5 3
      vertex 11.2824 -13.6381 3
      vertex 12.1165 -12.9027 3
    endloop
  endfacet
  facet normal 0 0 1
    outer loop
      vertex 6.15 -9.5 3
      vertex 11.2824 13.6381 3
      vertex 10.4038 14.3196 3
    endloop
  endfacet
  facet normal 0 0 1
    outer loop
      vertex 6.15 -9.5 3
      vertex 12.1165 -12.9027 3
      vertex 12.9027 -12.1165 3
    endloop
  endfacet
  facet normal 0 0 1
    outer loop
      vertex 6.15 -9.5 3
      vertex 12.1165 12.9027 3
      vertex 11.2824 13.6381 3
    endloop
  endfacet
  facet normal 0 0 1
    outer loop
      vertex 6.15 -9.5 3
      vertex 12.9027 -12.1165 3
      vertex 13.6381 -11.2824 3
    endloop
  endfacet
  facet normal 0 0 1
    outer loop
      vertex 6.15 -9.5 3
      vertex 12.9027 12.1165 3
      vertex 12.1165 12.9027 3
    endloop
  endfacet
  facet normal 0 0 1
    outer loop
      vertex 6.15 -9.5 3
      vertex 13.6381 -11.2824 3
      vertex 14.3196 -10.4038 3
    endloop
  endfacet
  facet normal 0 0 1
    outer loop
      vertex 6.15 -9.5 3
      vertex 13.6381 11.2824 3
      vertex 12.9027 12.1165 3
    endloop
  endfacet
  facet normal 0 0 1
    outer loop
      vertex 6.15 -9.5 3
      vertex 14.3196 -10.4038 3
      vertex 14.9446 -9.48413 3
    endloop
  endfacet
  facet normal 0 0 1
    outer loop
      vertex 6.15 -9.5 3
      vertex 14.3196 10.4038 3
      vertex 13.6381 11.2824 3
    endloop
  endfacet
  facet normal 0 0 1
    outer loop
      vertex 6.15 -9.5 3
      vertex 14.9446 -9.48413 3
      vertex 15.5106 -8.52704 3
    endloop
  endfacet
  facet normal 0 0 1
    outer loop
      vertex 6.15 -9.5 3
      vertex 14.9446 9.48413 3
      vertex 14.3196 10.4038 3
    endloop
  endfacet
  facet normal 0 0 1
    outer loop
      vertex 6.15 -9.5 3
      vertex 15.5106 -8.52704 3
      vertex 16.0154 -7.53629 3
    endloop
  endfacet
  facet normal 0 0 1
    outer loop
      vertex 6.15 -9.5 3
      vertex 15.5106 8.52704 3
      vertex 14.9446 9.48413 3
    endloop
  endfacet
  facet normal 0 0 1
    outer loop
      vertex 6.15 -9.5 3
      vertex 16.0154 -7.53629 3
      vertex 16.457 -6.5158 3
    endloop
  endfacet
  facet normal 0 0 1
    outer loop
      vertex 6.15 -9.5 3
      vertex 16.0154 7.53629 3
      vertex 15.5106 8.52704 3
    endloop
  endfacet
  facet normal 0 0 1
    outer loop
      vertex 6.15 -9.5 3
      vertex 16.457 -6.5158 3
      vertex 16.8337 -5.4696 3
    endloop
  endfacet
  facet normal 0 0 1
    outer loop
      vertex 6.15 -9.5 3
      vertex 16.457 6.5158 3
      vertex 16.0154 7.53629 3
    endloop
  endfacet
  facet normal 0 0 1
    outer loop
      vertex 6.15 -9.5 3
      vertex 16.8337 -5.4696 3
      vertex 17.1439 -4.40181 3
    endloop
  endfacet
  facet normal 0 0 1
    outer loop
      vertex 6.15 -9.5 3
      vertex 16.8337 5.4696 3
      vertex 16.457 6.5158 3
    endloop
  endfacet
  facet normal 0 0 1
    outer loop
      vertex 6.15 -9.5 3
      vertex 17.1439 -4.40181 3
      vertex 17.3865 -3.31665 3
    endloop
  endfacet
  facet normal 0 0 1
    outer loop
      vertex 6.15 -9.5 3
      vertex 17.1439 4.40181 3
      vertex 16.8337 5.4696 3
    endloop
  endfacet
  facet normal 0 0 1
    outer loop
      vertex 6.15 -9.5 3
      vertex 17.3865 -3.31665 3
      vertex 17.5604 -2.2184 3
    endloop
  endfacet
  facet normal 0 0 1
    outer loop
      vertex 6.15 -9.5 3
      vertex 17.3865 3.31665 3
      vertex 17.1439 4.40181 3
    endloop
  endfacet
  facet normal 0 0 1
    outer loop
      vertex 6.15 -9.5 3
      vertex 17.5604 -2.2184 3
      vertex 17.6651 -1.11139 3
    endloop
  endfacet
  facet normal 0 0 1
    outer loop
      vertex 6.15 -9.5 3
      vertex 17.5604 2.2184 3
      vertex 17.3865 3.31665 3
    endloop
  endfacet
  facet normal 0 0 1
    outer loop
      vertex 6.15 -9.5 3
      vertex 17.6651 -1.11139 3
      vertex 17.7 0 3
    endloop
  endfacet
  facet normal 0 0 1
    outer loop
      vertex 6.15 -9.5 3
      vertex 17.6651 1.11139 3
      vertex 17.5604 2.2184 3
    endloop
  endfacet
  facet normal 0 0 1
    outer loop
      vertex 6.15 -9.5 3
      vertex 17.7 0 3
      vertex 17.6651 1.11139 3
    endloop
  endfacet
  facet normal 0 0 1
    outer loop
      vertex 6.15 -9.5 3
      vertex 6.5158 -16.457 3
      vertex 7.53629 -16.0154 3
    endloop
  endfacet
  facet normal 0 0 1
    outer loop
      vertex 6.15 -9.5 3
      vertex 6.5158 16.457 3
      vertex 6.15 16.5887 3
    endloop
  endfacet
  facet normal 0 0 1
    outer loop
      vertex 6.15 -9.5 3
      vertex 7.53629 -16.0154 3
      vertex 8.52704 -15.5106 3
    endloop
  endfacet
  facet normal 0 0 1
    outer loop
      vertex 6.15 -9.5 3
      vertex 7.53629 16.0154 3
      vertex 6.5158 16.457 3
    endloop
  endfacet
  facet normal 0 0 1
    outer loop
      vertex 6.15 -9.5 3
      vertex 8.52704 -15.5106 3
      vertex 9.48413 -14.9446 3
    endloop
  endfacet
  facet normal 0 0 1
    outer loop
      vertex 6.15 -9.5 3
      vertex 8.52704 15.5106 3
      vertex 7.53629 16.0154 3
    endloop
  endfacet
  facet normal 0 0 1
    outer loop
      vertex 6.15 -9.5 3
      vertex 9.48413 -14.9446 3
      vertex 10.4038 -14.3196 3
    endloop
  endfacet
  facet normal 0 0 1
    outer loop
      vertex 6.15 -9.5 3
      vertex 9.48413 14.9446 3
      vertex 8.52704 15.5106 3
    endloop
  endfacet
  facet normal 0.338747 0.940878 0
    outer loop
      vertex 6.15 16.5887 0
      vertex 6.15 16.5887 3
      vertex 6.5158 16.457 0
    endloop
  endfacet
  facet normal 0.338747 0.940878 -0
    outer loop
      vertex 6.15 16.5887 3
      vertex 6.5158 16.457 3
      vertex 6.5158 16.457 0
    endloop
  endfacet
  facet normal 0.397144 -0.917756 0
    outer loop
      vertex 6.5158 -16.457 0
      vertex 7.53629 -16.0154 0
      vertex 7.53629 -16.0154 3
    endloop
  endfacet
  facet normal 0.397144 -0.917756 0
    outer loop
      vertex 6.5158 -16.457 0
      vertex 7.53629 -16.0154 3
      vertex 6.5158 -16.457 3
    endloop
  endfacet
  facet normal 0.397144 0.917756 0
    outer loop
      vertex 6.5158 16.457 0
      vertex 6.5158 16.457 3
      vertex 7.53629 16.0154 0
    endloop
  endfacet
  facet normal 0.397144 0.917756 -0
    outer loop
      vertex 6.5158 16.457 3
      vertex 7.53629 16.0154 3
      vertex 7.53629 16.0154 0
    endloop
  endfacet
  facet normal 0.453982 -0.891011 0
    outer loop
      vertex 7.53629 -16.0154 0
      vertex 8.52704 -15.5106 0
      vertex 8.52704 -15.5106 3
    endloop
  endfacet
  facet normal 0.453982 -0.891011 0
    outer loop
      vertex 7.53629 -16.0154 0
      vertex 8.52704 -15.5106 3
      vertex 7.53629 -16.0154 3
    endloop
  endfacet
  facet normal 0.453982 0.891011 0
    outer loop
      vertex 7.53629 16.0154 0
      vertex 7.53629 16.0154 3
      vertex 8.52704 15.5106 0
    endloop
  endfacet
  facet normal 0.453982 0.891011 -0
    outer loop
      vertex 7.53629 16.0154 3
      vertex 8.52704 15.5106 3
      vertex 8.52704 15.5106 0
    endloop
  endfacet
  facet normal 0.509027 -0.86075 0
    outer loop
      vertex 8.52704 -15.5106 0
      vertex 9.48413 -14.9446 0
      vertex 9.48413 -14.9446 3
    endloop
  endfacet
  facet normal 0.509027 -0.86075 0
    outer loop
      vertex 8.52704 -15.5106 0
      vertex 9.48413 -14.9446 3
      vertex 8.52704 -15.5106 3
    endloop
  endfacet
  facet normal 0.509027 0.86075 0
    outer loop
      vertex 8.52704 15.5106 0
      vertex 8.52704 15.5106 3
      vertex 9.48413 14.9446 0
    endloop
  endfacet
  facet normal 0.509027 0.86075 -0
    outer loop
      vertex 8.52704 15.5106 3
      vertex 9.48413 14.9446 3
      vertex 9.48413 14.9446 0
    endloop
  endfacet
  facet normal 0.562079 -0.827084 0
    outer loop
      vertex 9.48413 -14.9446 0
      vertex 10.4038 -14.3196 0
      vertex 10.4038 -14.3196 3
    endloop
  endfacet
  facet normal 0.562079 -0.827084 0
    outer loop
      vertex 9.48413 -14.9446 0
      vertex 10.4038 -14.3196 3
      vertex 9.48413 -14.9446 3
    endloop
  endfacet
  facet normal 0.562079 0.827084 0
    outer loop
      vertex 9.48413 14.9446 0
      vertex 9.48413 14.9446 3
      vertex 10.4038 14.3196 0
    endloop
  endfacet
  facet normal 0.562079 0.827084 -0
    outer loop
      vertex 9.48413 14.9446 3
      vertex 10.4038 14.3196 3
      vertex 10.4038 14.3196 0
    endloop
  endfacet
endsolid model
