%
T1C.035F197S55
X0115Y0195
X0125Y0195
X0115Y0205
X0125Y0205
X0115Y0215
X0125Y0215
X0115Y0225
X0125Y0225
X0115Y0235
X0125Y0235
X0115Y0245
X0125Y0245
X0115Y0255
X0125Y0255
X0115Y0265
X0125Y0265
X0115Y0275
X0125Y0275
X0115Y0285
X0125Y0285
X0154Y035994
X0154Y035006
X0154Y032894
X0154Y031906
X0154Y029894
X0154Y028906
X0154Y026894
X0154Y025906
X0154Y022494
X0154Y021506
X0154Y019494
X0154Y018506
X0154Y016494
X0154Y015506
X0154Y013494
X0154Y012506
T2C.04F139S55
X018Y01259
X017Y01259
X018Y01559
X017Y01559
X018Y01859
X017Y01859
X018Y02159
X017Y02159
X018Y02609
X017Y02609
X018Y02909
X017Y02909
X018Y03209
X017Y03209
X018Y03509
X017Y03509
X021Y03509
X023Y03509
X021Y03209
X023Y03209
X023Y02909
X021Y02909
X023Y02609
X021Y02609
X021Y02159
X023Y02159
X021Y01859
X023Y01859
X023Y01559
X021Y01559
X023Y01259
X021Y01259
X027Y016
X027Y018
X027Y02
X027Y0219
X027Y0239
X027Y0259
X027Y0278
X027Y0298
X027Y0318
T3C.12598F035S794
X012Y012
X012Y036
X028Y036
X028Y012
M30
