%
T1C.03F197S55
X0145Y012506
X0145Y013494
X0145Y015506
X0145Y016494
X0145Y018506
X0145Y019494
X0145Y021506
X0145Y022494
X0145Y025906
X0145Y026894
X0145Y028906
X0145Y029894
X0145Y031906
X0145Y032894
X0145Y035006
X0145Y035994
T2C.035F197S55
X011Y0215
X011Y0205
X011Y0195
X012Y0205
X012Y0215
X012Y0195
X012Y0235
X012Y0225
X012Y0255
X012Y0245
X012Y0265
X011Y0225
X011Y0245
X011Y0235
X011Y0265
X011Y0255
X011Y0275
X011Y0285
X012Y0275
X012Y0285
T3C.04F139S55
X01641Y01259
X01641Y01559
X01741Y01259
X01741Y01559
X02041Y01559
X02041Y01259
X02241Y01259
X02241Y01559
X02241Y01859
X02241Y02159
X02041Y01859
X02041Y02159
X01741Y01859
X01741Y02159
X01641Y01859
X01641Y02159
X01641Y02609
X01741Y02609
X02041Y02609
X02241Y02609
X02241Y02909
X02041Y02909
X01741Y02909
X01641Y02909
X01641Y03209
X01641Y03509
X01741Y03209
X01741Y03509
X02041Y03509
X02041Y03209
X02241Y03209
X02241Y03509
T4C.05118F107S55
X025916Y016031
X025916Y018
X027884Y018
X027884Y016031
X027884Y021931
X027884Y019969
X027884Y0239
X025916Y019969
X025916Y0239
X025916Y021931
X025916Y025869
X025916Y027831
X027884Y027831
X027884Y025869
X027884Y031769
X027884Y0298
X025916Y031769
X025916Y0298
T5C.07F081S55
X01529Y013
X01529Y016
X01529Y019
X01529Y022
X01529Y0264
X01529Y0294
X01529Y0324
X01529Y0355
T6C.12598F035S794
X012Y012
X028Y012
X028Y036
X012Y036
M30
