G04 #@! TF.FileFunction,Copper,L1,Top,Signal*
%FSLAX46Y46*%
G04 Gerber Fmt 4.6, Leading zero omitted, Abs format (unit mm)*
G04 Created by KiCad (PCBNEW (2015-05-13 BZR 5653)-product) date 10. 9. 2015 8:10:11*
%MOMM*%
G01*
G04 APERTURE LIST*
%ADD10C,0.300000*%
%ADD11R,1.524000X1.524000*%
%ADD12C,6.000000*%
%ADD13R,3.810000X3.810000*%
%ADD14C,0.889000*%
%ADD15C,0.500000*%
%ADD16C,0.400000*%
%ADD17C,0.254000*%
G04 APERTURE END LIST*
D10*
D11*
X3810000Y15494000D03*
X6350000Y15494000D03*
X3810000Y12954000D03*
X6350000Y12954000D03*
X3810000Y10414000D03*
X6350000Y10414000D03*
X22606000Y21082000D03*
X20066000Y21082000D03*
X26416000Y26924000D03*
X23876000Y26924000D03*
X26416000Y29464000D03*
X23876000Y29464000D03*
X20320000Y36766500D03*
X20320000Y34226500D03*
X17780000Y36766500D03*
X17780000Y34226500D03*
X15240000Y36766500D03*
X15240000Y34226500D03*
X12700000Y36766500D03*
X12700000Y34226500D03*
X10160000Y36766500D03*
X10160000Y34226500D03*
D12*
X5080000Y35560000D03*
X25400000Y5080000D03*
X25400000Y35560000D03*
X5080000Y5080000D03*
D13*
X18288000Y5414000D03*
X18288000Y10414000D03*
X13208000Y5414000D03*
X13208000Y10414000D03*
D11*
X3873500Y24765000D03*
X3873500Y27305000D03*
X3873500Y29845000D03*
X21336000Y26924000D03*
X21336000Y29464000D03*
D14*
X7757524Y31309999D03*
X15748000Y23177500D03*
X17653000Y27686000D03*
X20402158Y24041436D03*
D15*
X26416000Y30726000D02*
X26416000Y29464000D01*
X26416000Y30726000D02*
X26027000Y31115000D01*
X17089500Y31115000D02*
X16409241Y31795259D01*
X26027000Y31115000D02*
X17089500Y31115000D01*
X15240000Y32964500D02*
X16409241Y31795259D01*
X15240000Y34226500D02*
X15240000Y32964500D01*
X15240000Y32964500D02*
X13585499Y31309999D01*
X12558207Y31309999D02*
X7757524Y31309999D01*
X13585499Y31309999D02*
X12558207Y31309999D01*
D10*
X15748000Y23177500D02*
X19032500Y23177500D01*
X19032500Y23177500D02*
X20066000Y22144000D01*
X20066000Y22144000D02*
X20066000Y21082000D01*
X23876000Y26924000D02*
X23876000Y27986000D01*
X23876000Y27986000D02*
X23825999Y28036001D01*
X23825999Y28036001D02*
X18003001Y28036001D01*
X18003001Y28036001D02*
X17653000Y27686000D01*
D16*
X3873500Y27305000D02*
X5035500Y27305000D01*
X5035500Y27305000D02*
X5816501Y26523999D01*
X5816501Y26523999D02*
X8495526Y26523999D01*
X8495526Y26523999D02*
X17919595Y26523999D01*
X17919595Y26523999D02*
X20402158Y24041436D01*
D17*
G36*
X29541000Y939000D02*
X27825440Y939000D01*
X27825440Y26162000D01*
X27825440Y27686000D01*
X27778463Y27928123D01*
X27638673Y28140927D01*
X27560458Y28193723D01*
X27632927Y28241327D01*
X27775377Y28452360D01*
X27825440Y28702000D01*
X27825440Y30226000D01*
X27778463Y30468123D01*
X27638673Y30680927D01*
X27427640Y30823377D01*
X27275564Y30853875D01*
X27233633Y31064675D01*
X27041790Y31351790D01*
X27041786Y31351793D01*
X26652790Y31740790D01*
X26365675Y31932633D01*
X26309484Y31943811D01*
X26027000Y32000001D01*
X26026994Y32000000D01*
X17456079Y32000000D01*
X17035031Y32421049D01*
X17035027Y32421052D01*
X16454105Y33001974D01*
X16456927Y33003827D01*
X16509722Y33082042D01*
X16557327Y33009573D01*
X16768360Y32867123D01*
X17018000Y32817060D01*
X18542000Y32817060D01*
X18784123Y32864037D01*
X18996927Y33003827D01*
X19139377Y33214860D01*
X19189440Y33464500D01*
X19189440Y34988500D01*
X19142463Y35230623D01*
X19002673Y35443427D01*
X18924458Y35496223D01*
X18996927Y35543827D01*
X19139377Y35754860D01*
X19189440Y36004500D01*
X19189440Y37528500D01*
X19142463Y37770623D01*
X19002673Y37983427D01*
X18791640Y38125877D01*
X18542000Y38175940D01*
X17018000Y38175940D01*
X16775877Y38128963D01*
X16563073Y37989173D01*
X16510277Y37910959D01*
X16462673Y37983427D01*
X16251640Y38125877D01*
X16002000Y38175940D01*
X14478000Y38175940D01*
X14235877Y38128963D01*
X14023073Y37989173D01*
X13970277Y37910959D01*
X13922673Y37983427D01*
X13711640Y38125877D01*
X13462000Y38175940D01*
X11938000Y38175940D01*
X11695877Y38128963D01*
X11483073Y37989173D01*
X11340623Y37778140D01*
X11290560Y37528500D01*
X11290560Y36004500D01*
X11337537Y35762377D01*
X11477327Y35549573D01*
X11555541Y35496778D01*
X11483073Y35449173D01*
X11340623Y35238140D01*
X11290560Y34988500D01*
X11290560Y33464500D01*
X11337537Y33222377D01*
X11477327Y33009573D01*
X11688360Y32867123D01*
X11938000Y32817060D01*
X13462000Y32817060D01*
X13704123Y32864037D01*
X13916927Y33003827D01*
X13969722Y33082042D01*
X14017327Y33009573D01*
X14026978Y33003059D01*
X13218919Y32194999D01*
X12558207Y32194999D01*
X8399380Y32194999D01*
X8369810Y32224621D01*
X7973192Y32389312D01*
X7543740Y32389686D01*
X7146835Y32225688D01*
X6842902Y31922285D01*
X6678211Y31525667D01*
X6677837Y31096215D01*
X6841835Y30699310D01*
X7145238Y30395377D01*
X7541856Y30230686D01*
X7971308Y30230312D01*
X8368213Y30394310D01*
X8398955Y30424999D01*
X12558207Y30424999D01*
X13585493Y30424999D01*
X13585499Y30424998D01*
X13585499Y30424999D01*
X13867983Y30481189D01*
X13924173Y30492366D01*
X13924174Y30492366D01*
X14211289Y30684209D01*
X15239999Y31712921D01*
X15783448Y31169473D01*
X15783451Y31169469D01*
X16463707Y30489214D01*
X16463710Y30489210D01*
X16463711Y30489210D01*
X16655554Y30361025D01*
X16750825Y30297367D01*
X16750826Y30297366D01*
X17089500Y30229999D01*
X17089500Y30230000D01*
X17089505Y30230000D01*
X22467362Y30230000D01*
X22466560Y30226000D01*
X22466560Y28821001D01*
X18003001Y28821001D01*
X17723675Y28765440D01*
X17723674Y28765440D01*
X17439216Y28765687D01*
X17042311Y28601689D01*
X16738378Y28298286D01*
X16573687Y27901668D01*
X16573313Y27472216D01*
X16620093Y27358999D01*
X8495526Y27358999D01*
X6162368Y27358999D01*
X5625934Y27895434D01*
X5355041Y28076439D01*
X5278140Y28091736D01*
X5235963Y28309123D01*
X5096173Y28521927D01*
X5017958Y28574723D01*
X5090427Y28622327D01*
X5232877Y28833360D01*
X5282940Y29083000D01*
X5282940Y30607000D01*
X5235963Y30849123D01*
X5096173Y31061927D01*
X4885140Y31204377D01*
X4635500Y31254440D01*
X3111500Y31254440D01*
X2869377Y31207463D01*
X2656573Y31067673D01*
X2514123Y30856640D01*
X2464060Y30607000D01*
X2464060Y29083000D01*
X2511037Y28840877D01*
X2650827Y28628073D01*
X2729041Y28575278D01*
X2656573Y28527673D01*
X2514123Y28316640D01*
X2464060Y28067000D01*
X2464060Y26543000D01*
X2511037Y26300877D01*
X2650827Y26088073D01*
X2729041Y26035278D01*
X2656573Y25987673D01*
X2514123Y25776640D01*
X2464060Y25527000D01*
X2464060Y24003000D01*
X2511037Y23760877D01*
X2650827Y23548073D01*
X2861860Y23405623D01*
X3111500Y23355560D01*
X4635500Y23355560D01*
X4877623Y23402537D01*
X5090427Y23542327D01*
X5232877Y23753360D01*
X5282940Y24003000D01*
X5282940Y25527000D01*
X5235963Y25769123D01*
X5096173Y25981927D01*
X5017958Y26034723D01*
X5082507Y26077125D01*
X5226067Y25933565D01*
X5496960Y25752560D01*
X5496961Y25752560D01*
X5816501Y25688999D01*
X8495526Y25688999D01*
X17573727Y25688999D01*
X19322568Y23940158D01*
X19322538Y23904808D01*
X19032500Y23962500D01*
X16489681Y23962500D01*
X16360286Y24092122D01*
X15963668Y24256813D01*
X15534216Y24257187D01*
X15137311Y24093189D01*
X14833378Y23789786D01*
X14668687Y23393168D01*
X14668313Y22963716D01*
X14832311Y22566811D01*
X15135714Y22262878D01*
X15532332Y22098187D01*
X15961784Y22097813D01*
X16358689Y22261811D01*
X16489606Y22392500D01*
X18707342Y22392500D01*
X18827350Y22272492D01*
X18706623Y22093640D01*
X18656560Y21844000D01*
X18656560Y20320000D01*
X18703537Y20077877D01*
X18843327Y19865073D01*
X19054360Y19722623D01*
X19304000Y19672560D01*
X20828000Y19672560D01*
X21070123Y19719537D01*
X21282927Y19859327D01*
X21425377Y20070360D01*
X21475440Y20320000D01*
X21475440Y21844000D01*
X21428463Y22086123D01*
X21288673Y22298927D01*
X21077640Y22441377D01*
X20828000Y22491440D01*
X20759818Y22491440D01*
X20621079Y22699079D01*
X20358184Y22961974D01*
X20615942Y22961749D01*
X21012847Y23125747D01*
X21316780Y23429150D01*
X21481471Y23825768D01*
X21481845Y24255220D01*
X21317847Y24652125D01*
X21014444Y24956058D01*
X20617826Y25120749D01*
X20503613Y25120849D01*
X18559177Y27065285D01*
X18567622Y27073714D01*
X18641238Y27251001D01*
X22466560Y27251001D01*
X22466560Y26162000D01*
X22513537Y25919877D01*
X22653327Y25707073D01*
X22864360Y25564623D01*
X23114000Y25514560D01*
X24638000Y25514560D01*
X24880123Y25561537D01*
X25092927Y25701327D01*
X25145722Y25779542D01*
X25193327Y25707073D01*
X25404360Y25564623D01*
X25654000Y25514560D01*
X27178000Y25514560D01*
X27420123Y25561537D01*
X27632927Y25701327D01*
X27775377Y25912360D01*
X27825440Y26162000D01*
X27825440Y939000D01*
X20840440Y939000D01*
X20840440Y3509000D01*
X20840440Y7319000D01*
X20793463Y7561123D01*
X20653673Y7773927D01*
X20444818Y7914907D01*
X20647927Y8048327D01*
X20790377Y8259360D01*
X20840440Y8509000D01*
X20840440Y12319000D01*
X20793463Y12561123D01*
X20653673Y12773927D01*
X20442640Y12916377D01*
X20193000Y12966440D01*
X16383000Y12966440D01*
X16140877Y12919463D01*
X15928073Y12779673D01*
X15785623Y12568640D01*
X15748205Y12382058D01*
X15713463Y12561123D01*
X15573673Y12773927D01*
X15362640Y12916377D01*
X15113000Y12966440D01*
X11303000Y12966440D01*
X11060877Y12919463D01*
X10848073Y12779673D01*
X10705623Y12568640D01*
X10655560Y12319000D01*
X10655560Y8509000D01*
X10702537Y8266877D01*
X10842327Y8054073D01*
X11051181Y7913094D01*
X10848073Y7779673D01*
X10705623Y7568640D01*
X10655560Y7319000D01*
X10655560Y3509000D01*
X10702537Y3266877D01*
X10842327Y3054073D01*
X11053360Y2911623D01*
X11303000Y2861560D01*
X15113000Y2861560D01*
X15355123Y2908537D01*
X15567927Y3048327D01*
X15710377Y3259360D01*
X15747794Y3445943D01*
X15782537Y3266877D01*
X15922327Y3054073D01*
X16133360Y2911623D01*
X16383000Y2861560D01*
X20193000Y2861560D01*
X20435123Y2908537D01*
X20647927Y3048327D01*
X20790377Y3259360D01*
X20840440Y3509000D01*
X20840440Y939000D01*
X7759440Y939000D01*
X7759440Y12192000D01*
X7759440Y13716000D01*
X7712463Y13958123D01*
X7572673Y14170927D01*
X7361640Y14313377D01*
X7112000Y14363440D01*
X5588000Y14363440D01*
X5345877Y14316463D01*
X5133073Y14176673D01*
X5080277Y14098459D01*
X5032673Y14170927D01*
X4821640Y14313377D01*
X4572000Y14363440D01*
X3048000Y14363440D01*
X2805877Y14316463D01*
X2593073Y14176673D01*
X2450623Y13965640D01*
X2400560Y13716000D01*
X2400560Y12192000D01*
X2447537Y11949877D01*
X2587327Y11737073D01*
X2798360Y11594623D01*
X3048000Y11544560D01*
X4572000Y11544560D01*
X4814123Y11591537D01*
X5026927Y11731327D01*
X5079722Y11809542D01*
X5127327Y11737073D01*
X5338360Y11594623D01*
X5588000Y11544560D01*
X7112000Y11544560D01*
X7354123Y11591537D01*
X7566927Y11731327D01*
X7709377Y11942360D01*
X7759440Y12192000D01*
X7759440Y939000D01*
X939000Y939000D01*
X939000Y39701000D01*
X29541000Y39701000D01*
X29541000Y939000D01*
X29541000Y939000D01*
G37*
X29541000Y939000D02*
X27825440Y939000D01*
X27825440Y26162000D01*
X27825440Y27686000D01*
X27778463Y27928123D01*
X27638673Y28140927D01*
X27560458Y28193723D01*
X27632927Y28241327D01*
X27775377Y28452360D01*
X27825440Y28702000D01*
X27825440Y30226000D01*
X27778463Y30468123D01*
X27638673Y30680927D01*
X27427640Y30823377D01*
X27275564Y30853875D01*
X27233633Y31064675D01*
X27041790Y31351790D01*
X27041786Y31351793D01*
X26652790Y31740790D01*
X26365675Y31932633D01*
X26309484Y31943811D01*
X26027000Y32000001D01*
X26026994Y32000000D01*
X17456079Y32000000D01*
X17035031Y32421049D01*
X17035027Y32421052D01*
X16454105Y33001974D01*
X16456927Y33003827D01*
X16509722Y33082042D01*
X16557327Y33009573D01*
X16768360Y32867123D01*
X17018000Y32817060D01*
X18542000Y32817060D01*
X18784123Y32864037D01*
X18996927Y33003827D01*
X19139377Y33214860D01*
X19189440Y33464500D01*
X19189440Y34988500D01*
X19142463Y35230623D01*
X19002673Y35443427D01*
X18924458Y35496223D01*
X18996927Y35543827D01*
X19139377Y35754860D01*
X19189440Y36004500D01*
X19189440Y37528500D01*
X19142463Y37770623D01*
X19002673Y37983427D01*
X18791640Y38125877D01*
X18542000Y38175940D01*
X17018000Y38175940D01*
X16775877Y38128963D01*
X16563073Y37989173D01*
X16510277Y37910959D01*
X16462673Y37983427D01*
X16251640Y38125877D01*
X16002000Y38175940D01*
X14478000Y38175940D01*
X14235877Y38128963D01*
X14023073Y37989173D01*
X13970277Y37910959D01*
X13922673Y37983427D01*
X13711640Y38125877D01*
X13462000Y38175940D01*
X11938000Y38175940D01*
X11695877Y38128963D01*
X11483073Y37989173D01*
X11340623Y37778140D01*
X11290560Y37528500D01*
X11290560Y36004500D01*
X11337537Y35762377D01*
X11477327Y35549573D01*
X11555541Y35496778D01*
X11483073Y35449173D01*
X11340623Y35238140D01*
X11290560Y34988500D01*
X11290560Y33464500D01*
X11337537Y33222377D01*
X11477327Y33009573D01*
X11688360Y32867123D01*
X11938000Y32817060D01*
X13462000Y32817060D01*
X13704123Y32864037D01*
X13916927Y33003827D01*
X13969722Y33082042D01*
X14017327Y33009573D01*
X14026978Y33003059D01*
X13218919Y32194999D01*
X12558207Y32194999D01*
X8399380Y32194999D01*
X8369810Y32224621D01*
X7973192Y32389312D01*
X7543740Y32389686D01*
X7146835Y32225688D01*
X6842902Y31922285D01*
X6678211Y31525667D01*
X6677837Y31096215D01*
X6841835Y30699310D01*
X7145238Y30395377D01*
X7541856Y30230686D01*
X7971308Y30230312D01*
X8368213Y30394310D01*
X8398955Y30424999D01*
X12558207Y30424999D01*
X13585493Y30424999D01*
X13585499Y30424998D01*
X13585499Y30424999D01*
X13867983Y30481189D01*
X13924173Y30492366D01*
X13924174Y30492366D01*
X14211289Y30684209D01*
X15239999Y31712921D01*
X15783448Y31169473D01*
X15783451Y31169469D01*
X16463707Y30489214D01*
X16463710Y30489210D01*
X16463711Y30489210D01*
X16655554Y30361025D01*
X16750825Y30297367D01*
X16750826Y30297366D01*
X17089500Y30229999D01*
X17089500Y30230000D01*
X17089505Y30230000D01*
X22467362Y30230000D01*
X22466560Y30226000D01*
X22466560Y28821001D01*
X18003001Y28821001D01*
X17723675Y28765440D01*
X17723674Y28765440D01*
X17439216Y28765687D01*
X17042311Y28601689D01*
X16738378Y28298286D01*
X16573687Y27901668D01*
X16573313Y27472216D01*
X16620093Y27358999D01*
X8495526Y27358999D01*
X6162368Y27358999D01*
X5625934Y27895434D01*
X5355041Y28076439D01*
X5278140Y28091736D01*
X5235963Y28309123D01*
X5096173Y28521927D01*
X5017958Y28574723D01*
X5090427Y28622327D01*
X5232877Y28833360D01*
X5282940Y29083000D01*
X5282940Y30607000D01*
X5235963Y30849123D01*
X5096173Y31061927D01*
X4885140Y31204377D01*
X4635500Y31254440D01*
X3111500Y31254440D01*
X2869377Y31207463D01*
X2656573Y31067673D01*
X2514123Y30856640D01*
X2464060Y30607000D01*
X2464060Y29083000D01*
X2511037Y28840877D01*
X2650827Y28628073D01*
X2729041Y28575278D01*
X2656573Y28527673D01*
X2514123Y28316640D01*
X2464060Y28067000D01*
X2464060Y26543000D01*
X2511037Y26300877D01*
X2650827Y26088073D01*
X2729041Y26035278D01*
X2656573Y25987673D01*
X2514123Y25776640D01*
X2464060Y25527000D01*
X2464060Y24003000D01*
X2511037Y23760877D01*
X2650827Y23548073D01*
X2861860Y23405623D01*
X3111500Y23355560D01*
X4635500Y23355560D01*
X4877623Y23402537D01*
X5090427Y23542327D01*
X5232877Y23753360D01*
X5282940Y24003000D01*
X5282940Y25527000D01*
X5235963Y25769123D01*
X5096173Y25981927D01*
X5017958Y26034723D01*
X5082507Y26077125D01*
X5226067Y25933565D01*
X5496960Y25752560D01*
X5496961Y25752560D01*
X5816501Y25688999D01*
X8495526Y25688999D01*
X17573727Y25688999D01*
X19322568Y23940158D01*
X19322538Y23904808D01*
X19032500Y23962500D01*
X16489681Y23962500D01*
X16360286Y24092122D01*
X15963668Y24256813D01*
X15534216Y24257187D01*
X15137311Y24093189D01*
X14833378Y23789786D01*
X14668687Y23393168D01*
X14668313Y22963716D01*
X14832311Y22566811D01*
X15135714Y22262878D01*
X15532332Y22098187D01*
X15961784Y22097813D01*
X16358689Y22261811D01*
X16489606Y22392500D01*
X18707342Y22392500D01*
X18827350Y22272492D01*
X18706623Y22093640D01*
X18656560Y21844000D01*
X18656560Y20320000D01*
X18703537Y20077877D01*
X18843327Y19865073D01*
X19054360Y19722623D01*
X19304000Y19672560D01*
X20828000Y19672560D01*
X21070123Y19719537D01*
X21282927Y19859327D01*
X21425377Y20070360D01*
X21475440Y20320000D01*
X21475440Y21844000D01*
X21428463Y22086123D01*
X21288673Y22298927D01*
X21077640Y22441377D01*
X20828000Y22491440D01*
X20759818Y22491440D01*
X20621079Y22699079D01*
X20358184Y22961974D01*
X20615942Y22961749D01*
X21012847Y23125747D01*
X21316780Y23429150D01*
X21481471Y23825768D01*
X21481845Y24255220D01*
X21317847Y24652125D01*
X21014444Y24956058D01*
X20617826Y25120749D01*
X20503613Y25120849D01*
X18559177Y27065285D01*
X18567622Y27073714D01*
X18641238Y27251001D01*
X22466560Y27251001D01*
X22466560Y26162000D01*
X22513537Y25919877D01*
X22653327Y25707073D01*
X22864360Y25564623D01*
X23114000Y25514560D01*
X24638000Y25514560D01*
X24880123Y25561537D01*
X25092927Y25701327D01*
X25145722Y25779542D01*
X25193327Y25707073D01*
X25404360Y25564623D01*
X25654000Y25514560D01*
X27178000Y25514560D01*
X27420123Y25561537D01*
X27632927Y25701327D01*
X27775377Y25912360D01*
X27825440Y26162000D01*
X27825440Y939000D01*
X20840440Y939000D01*
X20840440Y3509000D01*
X20840440Y7319000D01*
X20793463Y7561123D01*
X20653673Y7773927D01*
X20444818Y7914907D01*
X20647927Y8048327D01*
X20790377Y8259360D01*
X20840440Y8509000D01*
X20840440Y12319000D01*
X20793463Y12561123D01*
X20653673Y12773927D01*
X20442640Y12916377D01*
X20193000Y12966440D01*
X16383000Y12966440D01*
X16140877Y12919463D01*
X15928073Y12779673D01*
X15785623Y12568640D01*
X15748205Y12382058D01*
X15713463Y12561123D01*
X15573673Y12773927D01*
X15362640Y12916377D01*
X15113000Y12966440D01*
X11303000Y12966440D01*
X11060877Y12919463D01*
X10848073Y12779673D01*
X10705623Y12568640D01*
X10655560Y12319000D01*
X10655560Y8509000D01*
X10702537Y8266877D01*
X10842327Y8054073D01*
X11051181Y7913094D01*
X10848073Y7779673D01*
X10705623Y7568640D01*
X10655560Y7319000D01*
X10655560Y3509000D01*
X10702537Y3266877D01*
X10842327Y3054073D01*
X11053360Y2911623D01*
X11303000Y2861560D01*
X15113000Y2861560D01*
X15355123Y2908537D01*
X15567927Y3048327D01*
X15710377Y3259360D01*
X15747794Y3445943D01*
X15782537Y3266877D01*
X15922327Y3054073D01*
X16133360Y2911623D01*
X16383000Y2861560D01*
X20193000Y2861560D01*
X20435123Y2908537D01*
X20647927Y3048327D01*
X20790377Y3259360D01*
X20840440Y3509000D01*
X20840440Y939000D01*
X7759440Y939000D01*
X7759440Y12192000D01*
X7759440Y13716000D01*
X7712463Y13958123D01*
X7572673Y14170927D01*
X7361640Y14313377D01*
X7112000Y14363440D01*
X5588000Y14363440D01*
X5345877Y14316463D01*
X5133073Y14176673D01*
X5080277Y14098459D01*
X5032673Y14170927D01*
X4821640Y14313377D01*
X4572000Y14363440D01*
X3048000Y14363440D01*
X2805877Y14316463D01*
X2593073Y14176673D01*
X2450623Y13965640D01*
X2400560Y13716000D01*
X2400560Y12192000D01*
X2447537Y11949877D01*
X2587327Y11737073D01*
X2798360Y11594623D01*
X3048000Y11544560D01*
X4572000Y11544560D01*
X4814123Y11591537D01*
X5026927Y11731327D01*
X5079722Y11809542D01*
X5127327Y11737073D01*
X5338360Y11594623D01*
X5588000Y11544560D01*
X7112000Y11544560D01*
X7354123Y11591537D01*
X7566927Y11731327D01*
X7709377Y11942360D01*
X7759440Y12192000D01*
X7759440Y939000D01*
X939000Y939000D01*
X939000Y39701000D01*
X29541000Y39701000D01*
X29541000Y939000D01*
M02*
