G75*
G70*
%OFA0B0*%
%FSLAX24Y24*%
%IPPOS*%
%LPD*%
%AMOC8*
5,1,8,0,0,1.08239X$1,22.5*
%
%ADD10C,0.2620*%
%ADD11R,0.0730X0.0730*%
%ADD12R,0.0397X0.0397*%
D10*
X002086Y002086D03*
X006086Y002086D03*
X006086Y022086D03*
X002086Y022086D03*
D11*
X005586Y020086D03*
X005586Y019086D03*
X005586Y018086D03*
X005586Y017086D03*
X005586Y016086D03*
X005586Y015086D03*
X005586Y014086D03*
X005586Y013086D03*
X005586Y012086D03*
X005586Y011086D03*
X005586Y010086D03*
X005586Y009086D03*
X005586Y008086D03*
X005586Y007086D03*
X005586Y006086D03*
X005586Y005086D03*
X005586Y004086D03*
X006586Y004086D03*
X006586Y005086D03*
X006586Y006086D03*
X006586Y007086D03*
X006586Y008086D03*
X006586Y009086D03*
X006586Y010086D03*
X006586Y011086D03*
X006586Y012086D03*
X006586Y013086D03*
X006586Y014086D03*
X006586Y015086D03*
X006586Y016086D03*
X006586Y017086D03*
X006586Y018086D03*
X006586Y019086D03*
X006586Y020086D03*
D12*
X000586Y003586D03*
X000586Y004086D03*
X000586Y004586D03*
X000586Y005086D03*
X000586Y005586D03*
X000586Y006086D03*
X000586Y006586D03*
X000586Y007086D03*
X000586Y007586D03*
X000586Y008086D03*
X000586Y008586D03*
X000586Y009086D03*
X000586Y009586D03*
X000586Y010086D03*
X000586Y010586D03*
X000586Y011086D03*
X000586Y011586D03*
X000586Y012086D03*
X000586Y012586D03*
X000586Y013086D03*
X000586Y013586D03*
X000586Y014086D03*
X000586Y014586D03*
X000586Y015086D03*
X000586Y015586D03*
X000586Y016086D03*
X000586Y016586D03*
X000586Y017086D03*
X000586Y017586D03*
X000586Y018086D03*
X000586Y018586D03*
X000586Y019086D03*
X000586Y019586D03*
X000586Y020086D03*
X000586Y020586D03*
X001086Y020586D03*
X001086Y020086D03*
X001086Y019586D03*
X001086Y019086D03*
X001086Y018586D03*
X001086Y018086D03*
X001086Y017586D03*
X001086Y017086D03*
X001086Y016586D03*
X001086Y016086D03*
X001086Y015586D03*
X001086Y015086D03*
X001086Y014586D03*
X001086Y014086D03*
X001086Y013586D03*
X001086Y013086D03*
X001086Y012586D03*
X001086Y012086D03*
X001086Y011586D03*
X001086Y011086D03*
X001086Y010586D03*
X001086Y010086D03*
X001086Y009586D03*
X001086Y009086D03*
X001086Y008586D03*
X001086Y008086D03*
X001086Y007586D03*
X001086Y007086D03*
X001086Y006586D03*
X001086Y006086D03*
X001086Y005586D03*
X001086Y005086D03*
X001086Y004586D03*
X001086Y004086D03*
X001086Y003586D03*
X001586Y003586D03*
X001586Y004086D03*
X001586Y004586D03*
X001586Y005086D03*
X001586Y005586D03*
X001586Y006086D03*
X001586Y006586D03*
X001586Y007086D03*
X001586Y007586D03*
X001586Y008086D03*
X001586Y008586D03*
X001586Y009086D03*
X001586Y009586D03*
X001586Y010086D03*
X001586Y010586D03*
X001586Y011086D03*
X001586Y011586D03*
X001586Y012086D03*
X001586Y012586D03*
X001586Y013086D03*
X001586Y013586D03*
X001586Y014086D03*
X001586Y014586D03*
X001586Y015086D03*
X001586Y015586D03*
X001586Y016086D03*
X001586Y016586D03*
X001586Y017086D03*
X001586Y017586D03*
X001586Y018086D03*
X001586Y018586D03*
X001586Y019086D03*
X001586Y019586D03*
X001586Y020086D03*
X001586Y020586D03*
X002086Y020086D03*
X002086Y019586D03*
X002086Y019086D03*
X002086Y018586D03*
X002086Y018086D03*
X002086Y017586D03*
X002086Y017086D03*
X002086Y016586D03*
X002086Y016086D03*
X002086Y015586D03*
X002086Y015086D03*
X002086Y014586D03*
X002086Y014086D03*
X002086Y013586D03*
X002086Y013086D03*
X002086Y012586D03*
X002086Y012086D03*
X002086Y011586D03*
X002086Y011086D03*
X002086Y010586D03*
X002086Y010086D03*
X002086Y009586D03*
X002086Y009086D03*
X002086Y008586D03*
X002086Y008086D03*
X002086Y007586D03*
X002086Y007086D03*
X002086Y006586D03*
X002086Y006086D03*
X002086Y005586D03*
X002086Y005086D03*
X002086Y004586D03*
X002086Y004086D03*
X002586Y004086D03*
X002586Y003586D03*
X003086Y003586D03*
X003086Y004086D03*
X003086Y004586D03*
X003086Y005086D03*
X003086Y005586D03*
X003086Y006086D03*
X003086Y006586D03*
X003086Y007086D03*
X003086Y007586D03*
X003086Y008086D03*
X003086Y008586D03*
X003086Y009086D03*
X003086Y009586D03*
X003086Y010086D03*
X003086Y010586D03*
X003086Y011086D03*
X003086Y011586D03*
X003086Y012086D03*
X003086Y012586D03*
X003086Y013086D03*
X003086Y013586D03*
X003086Y014086D03*
X003086Y014586D03*
X003086Y015086D03*
X003086Y015586D03*
X003086Y016086D03*
X003086Y016586D03*
X003086Y017086D03*
X003086Y017586D03*
X003086Y018086D03*
X003086Y018586D03*
X003086Y019086D03*
X003086Y019586D03*
X003086Y020086D03*
X003086Y020586D03*
X002586Y020586D03*
X002586Y020086D03*
X002586Y019586D03*
X002586Y019086D03*
X002586Y018586D03*
X002586Y018086D03*
X002586Y017586D03*
X002586Y017086D03*
X002586Y016586D03*
X002586Y016086D03*
X002586Y015586D03*
X002586Y015086D03*
X002586Y014586D03*
X002586Y014086D03*
X002586Y013586D03*
X002586Y013086D03*
X002586Y012586D03*
X002586Y012086D03*
X002586Y011586D03*
X002586Y011086D03*
X002586Y010586D03*
X002586Y010086D03*
X002586Y009586D03*
X002586Y009086D03*
X002586Y008586D03*
X002586Y008086D03*
X002586Y007586D03*
X002586Y007086D03*
X002586Y006586D03*
X002586Y006086D03*
X002586Y005586D03*
X002586Y005086D03*
X002586Y004586D03*
X003586Y004586D03*
X003586Y004086D03*
X003586Y003586D03*
X004086Y003586D03*
X004086Y004086D03*
X004086Y004586D03*
X004086Y005086D03*
X004086Y005586D03*
X004086Y006086D03*
X004086Y006586D03*
X004086Y007086D03*
X004086Y007586D03*
X004086Y008086D03*
X004086Y008586D03*
X004086Y009086D03*
X004086Y009586D03*
X004086Y010086D03*
X004086Y010586D03*
X004086Y011086D03*
X004086Y011586D03*
X004086Y012086D03*
X004086Y012586D03*
X004086Y013086D03*
X004086Y013586D03*
X004086Y014086D03*
X004086Y014586D03*
X004086Y015086D03*
X004086Y015586D03*
X004086Y016086D03*
X004086Y016586D03*
X004086Y017086D03*
X004086Y017586D03*
X004086Y018086D03*
X004086Y018586D03*
X004086Y019086D03*
X004086Y019586D03*
X004086Y020086D03*
X004086Y020586D03*
X003586Y020586D03*
X003586Y020086D03*
X003586Y019586D03*
X003586Y019086D03*
X003586Y018586D03*
X003586Y018086D03*
X003586Y017586D03*
X003586Y017086D03*
X003586Y016586D03*
X003586Y016086D03*
X003586Y015586D03*
X003586Y015086D03*
X003586Y014586D03*
X003586Y014086D03*
X003586Y013586D03*
X003586Y013086D03*
X003586Y012586D03*
X003586Y012086D03*
X003586Y011586D03*
X003586Y011086D03*
X003586Y010586D03*
X003586Y010086D03*
X003586Y009586D03*
X003586Y009086D03*
X003586Y008586D03*
X003586Y008086D03*
X003586Y007586D03*
X003586Y007086D03*
X003586Y006586D03*
X003586Y006086D03*
X003586Y005586D03*
X003586Y005086D03*
X004586Y005086D03*
X004586Y004586D03*
X004586Y004086D03*
X004586Y003586D03*
X005086Y004086D03*
X005086Y005086D03*
X004586Y005586D03*
X004586Y006086D03*
X004586Y006586D03*
X004586Y007086D03*
X004586Y007586D03*
X004586Y008086D03*
X004586Y008586D03*
X004586Y009086D03*
X004586Y009586D03*
X004586Y010086D03*
X004586Y010586D03*
X004586Y011086D03*
X004586Y011586D03*
X004586Y012086D03*
X004586Y012586D03*
X004586Y013086D03*
X004586Y013586D03*
X004586Y014086D03*
X004586Y014586D03*
X004586Y015086D03*
X004586Y015586D03*
X004586Y016086D03*
X004586Y016586D03*
X004586Y017086D03*
X004586Y017586D03*
X004586Y018086D03*
X004586Y018586D03*
X004586Y019086D03*
X004586Y019586D03*
X004586Y020086D03*
X004586Y020586D03*
X005086Y020086D03*
X005086Y019086D03*
X005086Y018086D03*
X005086Y017086D03*
X005086Y016086D03*
X005086Y015086D03*
X005086Y014086D03*
X005086Y013086D03*
X005086Y012086D03*
X005086Y011086D03*
X005086Y010086D03*
X005086Y009086D03*
X005086Y008086D03*
X005086Y007086D03*
X005086Y006086D03*
X007086Y006086D03*
X007086Y007086D03*
X007586Y007086D03*
X007586Y006586D03*
X007586Y006086D03*
X007586Y005586D03*
X007586Y005086D03*
X007586Y004586D03*
X007586Y004086D03*
X007586Y003586D03*
X007086Y004086D03*
X007086Y005086D03*
X007586Y007586D03*
X007586Y008086D03*
X007586Y008586D03*
X007586Y009086D03*
X007586Y009586D03*
X007586Y010086D03*
X007586Y010586D03*
X007586Y011086D03*
X007586Y011586D03*
X007586Y012086D03*
X007586Y012586D03*
X007586Y013086D03*
X007586Y013586D03*
X007586Y014086D03*
X007586Y014586D03*
X007586Y015086D03*
X007586Y015586D03*
X007586Y016086D03*
X007586Y016586D03*
X007586Y017086D03*
X007586Y017586D03*
X007586Y018086D03*
X007586Y018586D03*
X007586Y019086D03*
X007586Y019586D03*
X007586Y020086D03*
X007586Y020586D03*
X007086Y020086D03*
X007086Y019086D03*
X007086Y018086D03*
X007086Y017086D03*
X007086Y016086D03*
X007086Y015086D03*
X007086Y014086D03*
X007086Y013086D03*
X007086Y012086D03*
X007086Y011086D03*
X007086Y010086D03*
X007086Y009086D03*
X007086Y008086D03*
M02*
