G04 #@! TF.FileFunction,Soldermask,Bot*
%FSLAX46Y46*%
G04 Gerber Fmt 4.6, Leading zero omitted, Abs format (unit mm)*
G04 Created by KiCad (PCBNEW 0.201503110816+5502~22~ubuntu14.10.1-product) date St 11. březen 2015, 19:54:32 CET*
%MOMM*%
G01*
G04 APERTURE LIST*
%ADD10C,0.100000*%
%ADD11R,1.651000X1.651000*%
%ADD12C,6.000000*%
%ADD13R,3.000000X5.500000*%
%ADD14R,3.810000X3.810000*%
%ADD15R,2.499360X2.550160*%
%ADD16R,1.397000X0.889000*%
%ADD17R,0.889000X1.397000*%
%ADD18R,2.700020X2.550160*%
%ADD19R,1.800860X2.499360*%
%ADD20R,2.499360X1.800860*%
%ADD21O,1.473200X0.609600*%
%ADD22R,0.450000X1.450000*%
%ADD23R,0.700000X1.300000*%
G04 APERTURE END LIST*
D10*
D11*
X15875000Y34417000D03*
X15875000Y36957000D03*
X10795000Y34417000D03*
X13335000Y34417000D03*
X18415000Y34417000D03*
X18415000Y36957000D03*
X13335000Y36957000D03*
X10795000Y36957000D03*
X22288500Y6032500D03*
X22288500Y8572500D03*
X19748500Y6032500D03*
X19748500Y8572500D03*
X17208500Y6032500D03*
X17208500Y8572500D03*
X24765000Y37457000D03*
X24765000Y34917000D03*
X29845000Y37457000D03*
X27305000Y37457000D03*
X22225000Y37457000D03*
X22225000Y34917000D03*
X27305000Y34917000D03*
X29845000Y34917000D03*
D12*
X35560000Y5080000D03*
X5080000Y35560000D03*
X5080000Y5080000D03*
X35560000Y35560000D03*
D13*
X25988000Y16121000D03*
X35988000Y16121000D03*
D14*
X35226000Y29591000D03*
X30226000Y29591000D03*
X35226000Y24574500D03*
X30226000Y24574500D03*
X5350500Y28003500D03*
X10350500Y28003500D03*
X5350500Y22987000D03*
X10350500Y22987000D03*
D15*
X13970000Y18399760D03*
X13970000Y13350240D03*
D16*
X12700000Y10604500D03*
X12700000Y8699500D03*
D17*
X5397500Y17272000D03*
X7302500Y17272000D03*
X26733500Y6545200D03*
X24828500Y6545200D03*
D16*
X10985500Y6604000D03*
X10985500Y4699000D03*
D18*
X25654000Y30988000D03*
X25654000Y24638000D03*
X20701000Y31115000D03*
X20701000Y24765000D03*
D19*
X15621000Y26957020D03*
X15621000Y30954980D03*
D20*
X17813020Y20701000D03*
X21810980Y20701000D03*
D21*
X17272000Y13843000D03*
X17272000Y15113000D03*
X17272000Y16383000D03*
X17272000Y17653000D03*
X22860000Y17653000D03*
X22860000Y16383000D03*
X22860000Y15113000D03*
X22860000Y13843000D03*
D17*
X5397500Y19431000D03*
X7302500Y19431000D03*
D16*
X19685000Y3873500D03*
X19685000Y1968500D03*
X17145000Y3873500D03*
X17145000Y1968500D03*
X22352000Y3873500D03*
X22352000Y1968500D03*
D22*
X10373000Y10627000D03*
X9723000Y10627000D03*
X9073000Y10627000D03*
X8423000Y10627000D03*
X8423000Y15027000D03*
X9073000Y15027000D03*
X9723000Y15027000D03*
X10373000Y15027000D03*
D23*
X26680200Y8153400D03*
X24780200Y8153400D03*
M02*
