*
*
G04 PowerPCB (Build Number 500.281.2.20) generated Gerber (RS-274-X) file*
G04 PC Version=2.1*
*
%IN "Untitled"*%
*
%MOIN*%
*
%FSLAX35Y35*%
*
*
*
*
G04 PC Standard Apertures*
*
*
G04 Thermal Relief Aperture macro.*
%AMTER*
1,1,$1,0,0*
1,0,$1-$2,0,0*
21,0,$3,$4,0,0,45*
21,0,$3,$4,0,0,135*
%
*
*
G04 Annular Aperture macro.*
%AMANN*
1,1,$1,0,0*
1,0,$2,0,0*
%
*
*
G04 Odd Aperture macro.*
%AMODD*
1,1,$1,0,0*
1,0,$1-0.005,0,0*
%
*
*
G04 PC Custom Aperture Macros*
*
*
*
*
*
*
G04 PC Aperture Table*
*
%ADD010R,0.039X0.039*%
%ADD011C,0.06*%
%ADD012R,0.07X0.07*%
%ADD013C,0.23622*%
%ADD014C,0.05*%
%ADD017C,0.02*%
%ADD018C,0.015*%
%ADD019C,0.03*%
%ADD023C,0.007*%
%ADD025C,0.01*%
%ADD035C,0.065*%
%ADD036C,0.008*%
%ADD042C,0.045*%
%ADD043R,0.055X0.055*%
%ADD044C,0.035*%
%ADD045R,0.065X0.065*%
%ADD049C,0.025*%
*
*
*
*
G04 PC Custom Flashes*
G04 Layer Name Untitled - flashes*
%LPD*%
*
*
G04 PC Circuitry*
G04 Layer Name Untitled - circuitry*
%LPD*%
*
G54D10*
G01X00187150Y00234200D02*
X00188850D01*
X00187150Y00241800D02*
X00188850D01*
X00199150Y00146200D02*
X00200850D01*
X00199150Y00153800D02*
X00200850D01*
X00189150Y00146200D02*
X00190850D01*
X00189150Y00153800D02*
X00190850D01*
X00296200Y00253350D02*
Y00251650D01*
X00303800Y00253350D02*
Y00251650D01*
X00300850Y00313800D02*
X00299150D01*
X00300850Y00306200D02*
X00299150D01*
X00218700Y00193350D02*
Y00191650D01*
X00226300Y00193350D02*
Y00191650D01*
X00236650Y00153700D02*
X00238350D01*
X00236650Y00161300D02*
X00238350D01*
X00294150Y00178700D02*
X00295850D01*
X00294150Y00186300D02*
X00295850D01*
X00304150Y00178700D02*
X00305850D01*
X00304150Y00186300D02*
X00305850D01*
X00209150Y00146200D02*
X00210850D01*
X00209150Y00153800D02*
X00210850D01*
X00226300Y00317900D02*
Y00319100D01*
X00218700Y00317900D02*
Y00319100D01*
X00226300Y00309400D02*
Y00310600D01*
X00218700Y00309400D02*
Y00310600D01*
X00134400Y00206200D02*
X00135600D01*
X00134400Y00213800D02*
X00135600D01*
X00144400Y00206200D02*
X00145600D01*
X00144400Y00213800D02*
X00145600D01*
X00179400Y00146200D02*
X00180600D01*
X00179400Y00153800D02*
X00180600D01*
X00169400Y00146200D02*
X00170600D01*
X00169400Y00153800D02*
X00170600D01*
X00159400Y00146200D02*
X00160600D01*
X00159400Y00153800D02*
X00160600D01*
G54D11*
X00202500Y00340000D03*
X00237500D03*
X00225000Y00145141D03*
Y00164858D03*
X00287000Y00155000D03*
G54D12*
X00265000Y00315000D03*
X00275000D03*
X00265000Y00225000D03*
X00275000D03*
X00265000Y00215000D03*
X00275000D03*
X00265000Y00205000D03*
X00275000D03*
X00265000Y00195000D03*
X00275000D03*
X00265000Y00185000D03*
X00275000D03*
X00165000D03*
X00175000D03*
X00165000Y00195000D03*
X00175000D03*
X00165000Y00205000D03*
X00175000D03*
X00165000Y00215000D03*
X00175000D03*
X00165000Y00225000D03*
X00175000D03*
X00265000Y00305000D03*
X00275000D03*
X00165000Y00235000D03*
X00175000D03*
X00165000Y00245000D03*
X00175000D03*
X00165000Y00255000D03*
X00175000D03*
X00165000Y00265000D03*
X00175000D03*
X00165000Y00275000D03*
X00175000D03*
X00165000Y00285000D03*
X00175000D03*
X00165000Y00295000D03*
X00175000D03*
X00165000Y00305000D03*
X00175000D03*
X00165000Y00315000D03*
X00175000D03*
X00265000Y00295000D03*
X00275000D03*
X00295000Y00275000D03*
X00305000D03*
X00295000Y00265000D03*
X00305000D03*
X00295000Y00285000D03*
X00305000D03*
X00295000Y00295000D03*
X00305000D03*
X00295000Y00215000D03*
X00305000D03*
X00295000Y00205000D03*
X00305000D03*
X00135000Y00195000D03*
Y00185000D03*
X00145000Y00195000D03*
Y00185000D03*
X00140000Y00235000D03*
Y00225000D03*
X00210000Y00135000D03*
X00265000Y00285000D03*
X00275000D03*
X00210000Y00165000D03*
X00200000Y00135000D03*
Y00165000D03*
X00190000Y00135000D03*
Y00165000D03*
X00180000Y00135000D03*
Y00165000D03*
X00170000Y00135000D03*
Y00165000D03*
X00160000Y00135000D03*
X00265000Y00275000D03*
X00275000D03*
X00160000Y00165000D03*
X00165000Y00350000D03*
X00175000D03*
X00185000D03*
X00165000Y00340000D03*
X00175000D03*
X00185000D03*
X00265000Y00265000D03*
X00275000D03*
X00265000Y00255000D03*
X00275000D03*
X00265000Y00245000D03*
X00275000D03*
X00265000Y00235000D03*
X00275000D03*
G54D13*
X00140000Y00140000D03*
X00300000D03*
X00140000Y00340000D03*
X00300000D03*
G54D14*
X00135000Y00167500D03*
X00300000Y00235000D03*
G54D17*
X00156800Y00128200D02*
Y00128300D01*
X00154200Y00130900*
Y00165800*
X00135000Y00185000*
X00156800Y00128200D02*
X00227300D01*
X00227500Y00128400*
X00228400*
X00250000Y00150000*
Y00170000*
X00265000Y00185000*
X00145000Y00195000D02*
Y00206200D01*
X00135000Y00195000D02*
Y00206200D01*
X00175000Y00195000D02*
X00190900Y00210900D01*
Y00220400*
X00198000Y00227500*
X00200500*
X00175000Y00185000D02*
X00200500Y00210500D01*
Y00222500*
X00225000Y00164858D02*
Y00177500D01*
X00226300Y00178800*
Y00192500*
X00225000Y00145141D02*
Y00153700D01*
X00230000Y00158700*
Y00158799*
X00230000D02*
X00232500Y00161300D01*
X00237500*
Y00191100*
X00233100Y00195500*
X00233000*
X00231000Y00197500*
Y00236500*
X00237000Y00242500*
X00239500*
X00226300Y00192500D02*
Y00236800D01*
X00237000Y00247500*
X00239500*
X00303400Y00195000D02*
Y00198900D01*
X00303900Y00199400*
X00304500*
X00305000Y00199900*
Y00205000*
X00265000Y00185000D02*
X00245400Y00204600D01*
Y00219100*
X00242000Y00222500*
X00239500*
X00265000Y00195000D02*
X00248900Y00211100D01*
Y00220600*
X00242000Y00227500*
X00239500*
X00305000Y00186300D02*
Y00189900D01*
X00304400Y00190500*
X00304000*
X00303400Y00191100*
Y00195000*
X00295000Y00186300D02*
Y00189900D01*
X00295600Y00190500*
X00296000*
X00296600Y00191100*
Y00195000*
X00140000Y00225000D02*
Y00213800D01*
X00145000*
X00140000Y00262500D02*
Y00262400D01*
X00158300Y00280700*
Y00303399*
X00158300D02*
X00159900Y00305000D01*
X00165000*
X00135000Y00213800D02*
X00140000D01*
Y00272500D02*
X00140700D01*
X00150800Y00282600*
Y00300800*
X00165000Y00315000*
X00175000Y00255000D02*
X00184800D01*
X00187300Y00257500*
X00200500*
X00175000Y00245000D02*
X00182500D01*
X00190000Y00252500*
X00200500*
X00175000Y00235000D02*
X00181499D01*
X00181499D02*
X00182000Y00235500D01*
Y00236650*
X00187150Y00241800*
X00188000*
X00175000Y00225000D02*
X00180800Y00230800D01*
X00183750*
X00187150Y00234200*
X00188000*
X00175000Y00215000D02*
X00185400Y00225400D01*
X00186800*
X00193700Y00232300*
Y00233200*
X00198000Y00237500*
X00200500*
X00175000Y00205000D02*
X00187600Y00217600D01*
Y00221700*
X00198400Y00232500*
X00200500*
Y00277500D02*
X00198000D01*
X00192900Y00282600*
X00192000*
X00179600Y00295000*
X00175000*
X00200500Y00272500D02*
X00196400D01*
X00189800Y00279100*
X00187600*
X00181700Y00285000*
X00175000*
X00200500Y00267500D02*
X00191600D01*
X00184100Y00275000*
X00175000*
X00200500Y00262500D02*
X00188800D01*
X00186300Y00265000*
X00175000*
X00200500Y00247500D02*
X00205999D01*
X00205999D02*
X00222500Y00264000D01*
Y00305000*
X00200500Y00242500D02*
X00215000D01*
X00225000Y00252500*
X00239500*
Y00262500D02*
X00250500D01*
X00253000Y00265000*
X00265000*
X00239500Y00267500D02*
X00250100D01*
X00257600Y00275000*
X00265000*
X00239500Y00272500D02*
X00246400D01*
X00252600Y00278700*
X00254900*
X00261200Y00285000*
X00265000*
X00239500Y00277500D02*
X00244000D01*
X00252000Y00285500*
X00255500*
X00265000Y00295000*
X00188000Y00241800D02*
X00188850D01*
X00194550Y00247500*
X00200500*
X00188000Y00234200D02*
X00188850D01*
X00193350Y00238700*
X00194200*
X00198000Y00242500*
X00200500*
X00265000Y00235000D02*
X00261300D01*
X00255500Y00240800*
X00253800*
X00247100Y00247500*
X00239500*
X00265000Y00245000D02*
X00256700D01*
X00249200Y00252500*
X00239500*
X00265000Y00255000D02*
X00253600D01*
X00251100Y00257500*
X00239500*
X00265000Y00205000D02*
X00252400Y00217600D01*
Y00222100*
X00242000Y00232500*
X00239500*
X00265000Y00215000D02*
X00253700Y00226300D01*
X00253600Y00226500*
X00242600Y00237500*
X00239500*
X00265000Y00225000D02*
X00256300Y00233700D01*
X00254700*
X00245900Y00242500*
X00239500*
X00303800Y00252500D02*
Y00257800D01*
X00305000Y00259000*
Y00265000*
X00140000Y00312500D02*
X00148700D01*
X00156700Y00320500*
X00175000*
X00200500Y00287500D02*
Y00299100D01*
X00198700Y00300900*
X00198600*
X00184500Y00315000*
X00175000*
X00200500Y00282500D02*
X00198000D01*
X00194400Y00286100*
X00194600*
X00175700Y00305000*
X00175000*
X00239500Y00282500D02*
X00242000D01*
X00251600Y00292100*
X00251500*
X00264400Y00305000*
X00265000*
X00239500Y00287500D02*
Y00309700D01*
X00239200Y00310000*
X00267800Y00332700D02*
X00253500Y00318400D01*
X00238700*
X00232750Y00324350*
X00218350*
X00239200Y00310000D02*
X00253400D01*
X00258400Y00315000*
X00265000*
X00218700Y00310000D02*
X00202500D01*
X00192000Y00320500*
X00175000*
X00239200Y00310000D02*
X00226300D01*
Y00318500*
X00288900Y00305300D02*
Y00317000D01*
X00273200Y00332700*
X00267800*
X00305000Y00295000D02*
Y00302500D01*
X00304550*
X00300850Y00306200*
X00300000*
X00275000Y00315000D02*
Y00323400D01*
X00271000Y00327400*
G54D18*
X00222500Y00305000D02*
Y00314100D01*
X00218700Y00317900*
Y00318500*
X00249934Y00331465D02*
X00251701Y00329698D01*
X00249934Y00323334D02*
X00251701Y00325101D01*
X00258065Y00331465D02*
X00256298Y00329698D01*
X00310119Y00350119D02*
X00308351Y00348351D01*
X00289880Y00350119D02*
X00291648Y00348351D01*
X00289880Y00329880D02*
X00291648Y00331648D01*
X00310119Y00329880D02*
X00308351Y00331648D01*
X00150119Y00150119D02*
X00148351Y00148351D01*
X00129880Y00150119D02*
X00131648Y00148351D01*
X00129880Y00129880D02*
X00131648Y00131648D01*
X00150119Y00129880D02*
X00148351Y00131648D01*
X00283110Y00158889D02*
X00284878Y00157121D01*
X00283110Y00151110D02*
X00284878Y00152878D01*
X00290889Y00158889D02*
X00289121Y00157121D01*
X00303005Y00160505D02*
X00301237Y00158737D01*
X00296994Y00160505D02*
X00298762Y00158737D01*
X00296994Y00154494D02*
X00298762Y00156262D01*
X00303005Y00154494D02*
X00301237Y00156262D01*
X00310119Y00150119D02*
X00308351Y00148351D01*
X00289880Y00129880D02*
X00291648Y00131648D01*
X00310119Y00129880D02*
X00308351Y00131648D01*
X00134982Y00307517D02*
X00137701Y00304798D01*
X00145017Y00307517D02*
X00142298Y00304798D01*
X00145017Y00297482D02*
X00142298Y00300201D01*
X00134982Y00297482D02*
X00137701Y00300201D01*
X00150119Y00350119D02*
X00148351Y00348351D01*
X00129880Y00350119D02*
X00131648Y00348351D01*
X00129880Y00329880D02*
X00131648Y00331648D01*
X00150119Y00329880D02*
X00148351Y00331648D01*
X00159732Y00334732D02*
X00162525Y00337525D01*
X00159732Y00345267D02*
X00162525Y00342474D01*
X00170267Y00355267D02*
X00167474Y00352474D01*
X00159732Y00344732D02*
X00162525Y00347525D01*
X00159732Y00355267D02*
X00162525Y00352474D01*
X00190267Y00345267D02*
X00187474Y00342474D01*
X00190267Y00334732D02*
X00187474Y00337525D01*
X00190267Y00355267D02*
X00187474Y00352474D01*
X00190267Y00344732D02*
X00187474Y00347525D01*
X00179732Y00355267D02*
X00182525Y00352474D01*
X00310267Y00290267D02*
X00307474Y00287474D01*
X00310267Y00279732D02*
X00307474Y00282525D01*
X00280267Y00250267D02*
X00277474Y00247474D01*
X00280267Y00239732D02*
X00277474Y00242525D01*
X00241389Y00343889D02*
X00239621Y00342121D01*
X00233610Y00343889D02*
X00235378Y00342121D01*
X00233610Y00336110D02*
X00235378Y00337878D01*
X00241389Y00336110D02*
X00239621Y00337878D01*
G54D19*
X00160000Y00153800D02*
Y00165000D01*
X00170000Y00153800D02*
Y00165000D01*
X00160000Y00135000D02*
Y00146200D01*
X00170000Y00135000D02*
Y00146200D01*
X00180000Y00153800D02*
Y00165000D01*
Y00135000D02*
Y00146200D01*
X00190000Y00135000D02*
Y00146200D01*
X00200000Y00135000D02*
Y00146200D01*
X00210000Y00135000D02*
Y00146200D01*
Y00153800D02*
Y00165000D01*
X00190000Y00153800D02*
Y00165000D01*
X00200000Y00153800D02*
Y00165000D01*
X00218350Y00324350D02*
X00217700Y00325000D01*
X00218700Y00318500D02*
Y00324000D01*
X00218350Y00324350*
G54D23*
X00110000Y00110000D02*
Y00110500D01*
Y00110000D02*
X00110500D01*
X00110000D02*
Y00109500D01*
Y00110000D02*
X00109500D01*
X00111500D02*
X00116500D01*
X00110000Y00108500D02*
Y00105100D01*
Y00111500D02*
Y00116000D01*
X00104000Y00110000D02*
X00108500D01*
X00113000D02*
G75*
G03X00113000I-00003000D01*
G01X00112000D02*
G03X00112000I-00002000D01*
G01X00330000D02*
Y00110500D01*
Y00110000D02*
X00330500D01*
X00330000D02*
Y00109500D01*
Y00110000D02*
X00329500D01*
X00331500D02*
X00336500D01*
X00330000Y00108500D02*
Y00105100D01*
Y00111500D02*
Y00116000D01*
X00324000Y00110000D02*
X00328500D01*
X00333000D02*
G03X00333000I-00003000D01*
G01X00332000D02*
G03X00332000I-00002000D01*
G01X00330000Y00370000D02*
Y00370500D01*
Y00370000D02*
X00330500D01*
X00330000D02*
Y00369500D01*
Y00370000D02*
X00329500D01*
X00331500D02*
X00336500D01*
X00330000Y00368500D02*
Y00365100D01*
Y00371500D02*
Y00376000D01*
X00324000Y00370000D02*
X00328500D01*
X00333000D02*
G03X00333000I-00003000D01*
G01X00332000D02*
G03X00332000I-00002000D01*
G54D25*
G01X00296600Y00195000D02*
X00300000Y00198400D01*
Y00210000*
X00305000Y00215000*
Y00275000D02*
X00300000Y00280000D01*
Y00299200*
X00297600Y00301600*
X00292600*
X00288900Y00305300*
X00311130Y00234999D02*
G03X00311130I-00011130D01*
G01X00314311Y00340000D02*
G03X00314311I-00014311D01*
G01X00243000D02*
G03X00243000I-00005500D01*
G01X00154311D02*
G03X00154311I-00014311D01*
G01X00317500Y00123000D02*
Y00357000D01*
G03X00317000Y00357500I-00000500J00000000*
G01X00275438*
X00275438D02*
G03X00275083Y00356648I00000000J-00000500D01*
G01X00266916Y00356647D02*
G03X00275083I00004084J-00004047D01*
G01X00266916Y00356648D02*
G03X00266561Y00357500I-00000354J00000352D01*
G01X00258438*
X00258438D02*
G03X00258083Y00356648I00000000J-00000500D01*
G01X00249916Y00356647D02*
G03X00258083I00004084J-00004047D01*
G01X00249916Y00356648D02*
G03X00249561Y00357500I-00000354J00000352D01*
G01X00123000*
G03X00122500Y00357000I00000000J-00000500*
G01Y00123000*
G03X00123000Y00122500I00000500J00000000*
G01X00317000*
G03X00317500Y00123000I00000000J00000500*
G01X00258999Y00184156D02*
Y00185843D01*
X00258999D02*
G03X00258853Y00186196I-00000499J00000000D01*
G01X00258853D02*
X00242925Y00202125D01*
X00241899Y00204600D02*
G03X00242925Y00202125I00003501J00000000D01*
G01X00241899Y00204600D02*
Y00217443D01*
X00241899D02*
G03X00241753Y00217796I-00000499J00000000D01*
G01X00241753D02*
X00240946Y00218603D01*
X00240946D02*
G03X00240593Y00218749I-00000352J-00000353D01*
G01X00240593D02*
X00237000D01*
X00235235Y00219191D02*
G03X00237000Y00218749I00001765J00003309D01*
G01X00235235Y00219191D02*
G03X00234500Y00218749I-00000234J-00000441D01*
G01X00234500D02*
Y00199156D01*
X00234500D02*
G03X00234646Y00198803I00000500J00000000D01*
G01X00234995Y00198454*
G03X00235067Y00198394I00000353J00000353*
G01X00235574Y00197974D02*
G03X00235067Y00198394I-00002474J-00002474D01*
G01X00235574Y00197974D02*
X00239974Y00193574D01*
X00241000Y00191100D02*
G03X00239974Y00193574I-00003500J00000000D01*
G01X00241000Y00191100D02*
Y00165999D01*
X00241000D02*
G03X00241300Y00165541I00000500J00000000D01*
G01X00242800Y00163250D02*
G03X00241300Y00165541I-00002500J00000000D01*
G01X00242800Y00163250D02*
Y00159350D01*
X00242268Y00157808D02*
G03X00242800Y00159350I-00001968J00001542D01*
G01X00242268Y00157808D02*
G03Y00157191I00000393J-00000308D01*
G01X00242800Y00155650D02*
G03X00242268Y00157191I-00002500J00000000D01*
G01X00242800Y00155650D02*
Y00151750D01*
X00240300Y00149249D02*
G03X00242800Y00151750I00000000J00002501D01*
G01X00240300Y00149249D02*
X00234700D01*
X00232199Y00151750D02*
G03X00234700Y00149249I00002501J00000000D01*
G01X00232199Y00151750D02*
Y00154743D01*
X00232199D02*
G03X00231346Y00155096I-00000499J00000000D01*
G01X00231346D02*
X00228646Y00152396D01*
X00228646D02*
G03X00228500Y00152043I00000354J-00000352D01*
G01Y00149613*
X00228500D02*
G03X00228666Y00149241I00000500J00000000D01*
G01X00221333D02*
G03X00228666I00003667J-00004099D01*
G01X00221333D02*
G03X00221499Y00149613I-00000333J00000372D01*
G01X00221499D02*
Y00153700D01*
X00222525Y00156174D02*
G03X00221499Y00153700I00002475J-00002474D01*
G01X00222525Y00156174D02*
X00224874Y00158523D01*
X00224874D02*
G03X00224560Y00159375I-00000353J00000354D01*
G01X00221333Y00168957D02*
G03X00224560Y00159375I00003667J-00004098D01*
G01X00221333Y00168957D02*
G03X00221499Y00169330I-00000333J00000373D01*
G01X00221499D02*
Y00177500D01*
X00222525Y00179974D02*
G03X00221499Y00177500I00002475J-00002474D01*
G01X00222525Y00179974D02*
X00222653Y00180103D01*
X00222653D02*
G03X00222799Y00180456I-00000353J00000353D01*
G01X00222799D02*
Y00187194D01*
X00222799D02*
G03X00222024Y00187612I-00000499J00000000D01*
G01X00220650Y00187199D02*
G03X00222024Y00187612I00000000J00002501D01*
G01X00220650Y00187199D02*
X00216750D01*
X00214249Y00189700D02*
G03X00216750Y00187199I00002501J00000000D01*
G01X00214249Y00189700D02*
Y00195300D01*
X00216750Y00197800D02*
G03X00214249Y00195300I00000000J-00002500D01*
G01X00216750Y00197800D02*
X00220650D01*
X00222024Y00197387D02*
G03X00220650Y00197800I-00001374J-00002087D01*
G01X00222024Y00197387D02*
G03X00222799Y00197805I00000275J00000418D01*
G01X00222799D02*
Y00236800D01*
X00223825Y00239274D02*
G03X00222799Y00236800I00002475J-00002474D01*
G01X00223825Y00239274D02*
X00233509Y00248959D01*
X00233509D02*
G03X00233608Y00249099I-00000352J00000353D01*
G01X00233967Y00249705D02*
G03X00233608Y00249099I00003033J-00002205D01*
G01X00233967Y00249705D02*
G03Y00250294I-00000403J00000295D01*
G01Y00254705D02*
G03Y00250294I00003033J-00002205D01*
G01Y00254705D02*
G03Y00255294I-00000403J00000295D01*
G01Y00259705D02*
G03Y00255294I00003033J-00002205D01*
G01Y00259705D02*
G03Y00260294I-00000403J00000295D01*
G01Y00264705D02*
G03Y00260294I00003033J-00002205D01*
G01Y00264705D02*
G03Y00265294I-00000403J00000295D01*
G01Y00269705D02*
G03Y00265294I00003033J-00002205D01*
G01Y00269705D02*
G03Y00270294I-00000403J00000295D01*
G01Y00274705D02*
G03Y00270294I00003033J-00002205D01*
G01Y00274705D02*
G03Y00275294I-00000403J00000295D01*
G01Y00279705D02*
G03Y00275294I00003033J-00002205D01*
G01Y00279705D02*
G03Y00280294I-00000403J00000295D01*
G01Y00284705D02*
G03Y00280294I00003033J-00002205D01*
G01Y00284705D02*
G03Y00285294I-00000403J00000295D01*
G01X00235676Y00291008D02*
G03X00233967Y00285294I00001324J-00003508D01*
G01X00235676Y00291008D02*
G03X00235999Y00291476I-00000176J00000468D01*
G01X00235999D02*
Y00305999D01*
X00235999D02*
G03X00235499Y00306499I-00000499J00000000D01*
G01X00235499D02*
X00230876D01*
X00230876D02*
G03X00230438Y00306241I00000000J-00000499D01*
G01X00228250Y00304949D02*
G03X00230438Y00306241I00000000J00002501D01*
G01X00228250Y00304949D02*
X00226500D01*
X00226500D02*
G03X00226000Y00304449I00000000J-00000499D01*
G01X00226000D02*
Y00264000D01*
X00224974Y00261525D02*
G03X00226000Y00264000I-00002474J00002475D01*
G01X00224974Y00261525D02*
X00208474Y00245025D01*
X00206954Y00244132D02*
G03X00208474Y00245025I-00000954J00003368D01*
G01X00206954Y00244132D02*
G03X00206609Y00243516I00000137J-00000480D01*
G01X00206032Y00240294D02*
G03X00206609Y00243516I-00003032J00002206D01*
G01X00206032Y00240294D02*
G03Y00239705I00000404J-00000294D01*
G01Y00235294D02*
G03Y00239705I-00003032J00002206D01*
G01Y00235294D02*
G03Y00234705I00000404J-00000294D01*
G01Y00230294D02*
G03Y00234705I-00003032J00002206D01*
G01Y00230294D02*
G03Y00229705I00000404J-00000294D01*
G01Y00225294D02*
G03Y00229705I-00003032J00002206D01*
G01Y00225294D02*
G03Y00224705I00000404J-00000294D01*
G01X00204323Y00218991D02*
G03X00206032Y00224705I-00001323J00003509D01*
G01X00204323Y00218991D02*
G03X00204000Y00218523I00000177J-00000467D01*
G01Y00210500*
X00202974Y00208025D02*
G03X00204000Y00210500I-00002474J00002475D01*
G01X00202974Y00208025D02*
X00181146Y00186196D01*
X00181146D02*
G03X00181000Y00185843I00000354J-00000352D01*
G01Y00181500*
X00180982Y00181208D02*
G03X00181000Y00181500I-00002482J00000292D01*
G01X00180982Y00181208D02*
G03X00181479Y00180650I00000497J-00000057D01*
G01X00181479D02*
X00215400D01*
X00216900Y00179150D02*
G03X00215400Y00180650I-00001500J00000000D01*
G01X00216900Y00179150D02*
Y00170350D01*
X00216221Y00169094D02*
G03X00216900Y00170350I-00000821J00001256D01*
G01X00216221Y00169094D02*
G03X00215995Y00168646I00000273J-00000417D01*
G01X00216000Y00168500D02*
G03X00215995Y00168646I-00002500J00000000D01*
G01X00216000Y00168500D02*
Y00161500D01*
X00214333Y00159142D02*
G03X00216000Y00161500I-00000833J00002358D01*
G01X00214333Y00159142D02*
G03X00214000Y00158671I00000167J-00000470D01*
G01X00214000D02*
Y00158221D01*
X00214000D02*
G03X00214216Y00157809I00000500J00000000D01*
G01X00215300Y00155750D02*
G03X00214216Y00157809I-00002500J00000000D01*
G01X00215300Y00155750D02*
Y00151850D01*
X00214768Y00150308D02*
G03X00215300Y00151850I-00001968J00001542D01*
G01X00214768Y00150308D02*
G03Y00149691I00000393J-00000308D01*
G01X00215300Y00148150D02*
G03X00214768Y00149691I-00002500J00000000D01*
G01X00215300Y00148150D02*
Y00144250D01*
X00214216Y00142190D02*
G03X00215300Y00144250I-00001416J00002060D01*
G01X00214216Y00142190D02*
G03X00214000Y00141778I00000284J-00000411D01*
G01Y00141328*
G03X00214333Y00140857I00000500J00000000*
G01X00216000Y00138500D02*
G03X00214333Y00140857I-00002500J00000000D01*
G01X00216000Y00138500D02*
Y00132200D01*
G03X00216500Y00131700I00000500J00000000*
G01X00226250*
X00226250D02*
G03X00226407Y00131725I00000000J00000500D01*
G01X00226758Y00131820D02*
G03X00226407Y00131725I00000742J-00003420D01*
G01X00226758Y00131820D02*
G03X00227005Y00131955I-00000105J00000489D01*
G01X00227005D02*
X00246353Y00151303D01*
X00246353D02*
G03X00246499Y00151656I-00000353J00000353D01*
G01X00246499D02*
Y00170000D01*
X00247525Y00172474D02*
G03X00246499Y00170000I00002475J-00002474D01*
G01X00247525Y00172474D02*
X00258853Y00183803D01*
X00258853D02*
G03X00258999Y00184156I-00000353J00000353D01*
G01X00288750Y00148846D02*
G03X00303454Y00153887I00011250J-00008846D01*
G01X00288750Y00148846D02*
G03X00288244Y00149642I-00000392J00000309D01*
G01X00292126Y00153006D02*
G03X00288244Y00149642I-00005126J00001994D01*
G01X00292126Y00153006D02*
G03X00292842Y00152392I00000466J-00000180D01*
G01X00296545Y00153887D02*
G03X00292842Y00152392I00003455J-00013887D01*
G01X00296545Y00153887D02*
G03X00296800Y00154702I-00000120J00000485D01*
G01X00303199D02*
G03X00296800I-00003199J00002798D01*
G01X00303199D02*
G03X00303454Y00153887I00000376J-00000329D01*
G01X00311130Y00234999D02*
G03X00311130I-00011130D01*
G01X00311000Y00298500D02*
Y00291500D01*
X00310665Y00290250D02*
G03X00311000Y00291500I-00002165J00001250D01*
G01X00310665Y00290249D02*
G03Y00289750I00000433J-00000249D01*
G01X00311000Y00288500D02*
G03X00310665Y00289750I-00002500J00000000D01*
G01X00311000Y00288500D02*
Y00281500D01*
X00310665Y00280250D02*
G03X00311000Y00281500I-00002165J00001250D01*
G01X00310665Y00280249D02*
G03Y00279750I00000433J-00000249D01*
G01X00311000Y00278500D02*
G03X00310665Y00279750I-00002500J00000000D01*
G01X00311000Y00278500D02*
Y00271500D01*
X00310665Y00270250D02*
G03X00311000Y00271500I-00002165J00001250D01*
G01X00310665Y00270249D02*
G03Y00269750I00000433J-00000249D01*
G01X00311000Y00268500D02*
G03X00310665Y00269750I-00002500J00000000D01*
G01X00311000Y00268500D02*
Y00261500D01*
X00308894Y00259031D02*
G03X00311000Y00261500I-00000394J00002469D01*
G01X00308894Y00259031D02*
G03X00308476Y00258595I00000079J-00000493D01*
G01X00307926Y00257080D02*
G03X00308476Y00258595I-00002926J00001920D01*
G01X00307926Y00257080D02*
G03X00307912Y00256555I00000418J-00000274D01*
G01X00308250Y00255300D02*
G03X00307912Y00256555I-00002500J00000000D01*
G01X00308250Y00255300D02*
Y00249700D01*
X00305750Y00247199D02*
G03X00308250Y00249700I00000000J00002501D01*
G01X00305750Y00247199D02*
X00301850D01*
X00300308Y00247731D02*
G03X00301850Y00247199I00001542J00001969D01*
G01X00300308Y00247731D02*
G03X00299691I-00000308J-00000392D01*
G01X00298150Y00247199D02*
G03X00299691Y00247731I00000000J00002501D01*
G01X00298150Y00247199D02*
X00294250D01*
X00291749Y00249700D02*
G03X00294250Y00247199I00002501J00000000D01*
G01X00291749Y00249700D02*
Y00255300D01*
X00294250Y00257800D02*
G03X00291749Y00255300I00000000J-00002500D01*
G01X00294250Y00257800D02*
X00298150D01*
X00299524Y00257387D02*
G03X00298150Y00257800I-00001374J-00002087D01*
G01X00299524Y00257387D02*
G03X00300299Y00257804I00000275J00000418D01*
G01X00300427Y00258737D02*
G03X00300299Y00257804I00003373J-00000937D01*
G01X00300427Y00258737D02*
G03X00299705Y00259309I-00000480J00000134D01*
G01X00298500Y00258999D02*
G03X00299705Y00259309I00000000J00002501D01*
G01X00298500Y00258999D02*
X00291500D01*
X00288999Y00261500D02*
G03X00291500Y00258999I00002501J00000000D01*
G01X00288999Y00261500D02*
Y00268500D01*
X00289227Y00269541D02*
G03X00288999Y00268500I00002273J-00001041D01*
G01X00289227Y00269541D02*
G03X00288772Y00270249I-00000454J00000208D01*
G01X00288772D02*
X00281227D01*
X00281227D02*
G03X00280772Y00269541I00000000J-00000499D01*
G01X00281000Y00268500D02*
G03X00280772Y00269541I-00002500J00000000D01*
G01X00281000Y00268500D02*
Y00261500D01*
X00280665Y00260250D02*
G03X00281000Y00261500I-00002165J00001250D01*
G01X00280665Y00260249D02*
G03Y00259750I00000433J-00000249D01*
G01X00281000Y00258500D02*
G03X00280665Y00259750I-00002500J00000000D01*
G01X00281000Y00258500D02*
Y00251500D01*
X00280665Y00250250D02*
G03X00281000Y00251500I-00002165J00001250D01*
G01X00280665Y00250249D02*
G03Y00249750I00000433J-00000249D01*
G01X00281000Y00248500D02*
G03X00280665Y00249750I-00002500J00000000D01*
G01X00281000Y00248500D02*
Y00241500D01*
X00280665Y00240250D02*
G03X00281000Y00241500I-00002165J00001250D01*
G01X00280665Y00240249D02*
G03Y00239750I00000433J-00000249D01*
G01X00281000Y00238500D02*
G03X00280665Y00239750I-00002500J00000000D01*
G01X00281000Y00238500D02*
Y00231500D01*
X00280665Y00230250D02*
G03X00281000Y00231500I-00002165J00001250D01*
G01X00280665Y00230249D02*
G03Y00229750I00000433J-00000249D01*
G01X00281000Y00228500D02*
G03X00280665Y00229750I-00002500J00000000D01*
G01X00281000Y00228500D02*
Y00221500D01*
X00280772Y00220458D02*
G03X00281000Y00221500I-00002272J00001042D01*
G01X00280772Y00220458D02*
G03X00281227Y00219750I00000455J-00000207D01*
G01X00289063*
G03X00289469Y00219958I00000000J00000500*
G01X00291500Y00221000D02*
G03X00289469Y00219958I00000000J-00002500D01*
G01X00291500Y00221000D02*
X00298500D01*
X00299750Y00220665D02*
G03X00298500Y00221000I-00001250J-00002165D01*
G01X00299750Y00220665D02*
G03X00300249I00000250J00000433D01*
G01X00301500Y00221000D02*
G03X00300250Y00220665I00000000J-00002500D01*
G01X00301500Y00221000D02*
X00308500D01*
X00311000Y00218500D02*
G03X00308500Y00221000I-00002500J00000000D01*
G01X00311000Y00218500D02*
Y00211500D01*
X00310665Y00210250D02*
G03X00311000Y00211500I-00002165J00001250D01*
G01X00310665Y00210249D02*
G03Y00209750I00000433J-00000249D01*
G01X00311000Y00208500D02*
G03X00310665Y00209750I-00002500J00000000D01*
G01X00311000Y00208500D02*
Y00201500D01*
X00308709Y00199008D02*
G03X00311000Y00201500I-00000209J00002492D01*
G01X00308709Y00199008D02*
G03X00308282Y00198684I00000041J-00000497D01*
G01X00307703Y00197677D02*
G03X00308282Y00198684I-00002703J00002223D01*
G01X00307703Y00197677D02*
G03X00307643Y00197134I00000386J-00000317D01*
G01X00307584Y00192753D02*
G03X00307643Y00197134I-00004184J00002247D01*
G01X00307584Y00192753D02*
G03X00307647Y00192189I00000441J-00000236D01*
G01X00308347Y00190923D02*
G03X00307647Y00192189I-00003347J-00001023D01*
G01X00308347Y00190923D02*
G03X00308654Y00190599I00000478J00000146D01*
G01X00310300Y00188250D02*
G03X00308654Y00190599I-00002500J00000000D01*
G01X00310300Y00188250D02*
Y00184350D01*
X00309768Y00182808D02*
G03X00310300Y00184350I-00001968J00001542D01*
G01X00309768Y00182808D02*
G03Y00182191I00000393J-00000308D01*
G01X00310300Y00180650D02*
G03X00309768Y00182191I-00002500J00000000D01*
G01X00310300Y00180650D02*
Y00176750D01*
X00307800Y00174249D02*
G03X00310300Y00176750I00000000J00002501D01*
G01X00307800Y00174249D02*
X00302200D01*
X00300366Y00175050D02*
G03X00302200Y00174249I00001834J00001700D01*
G01X00300366Y00175050D02*
G03X00299633I-00000366J-00000339D01*
G01X00297800Y00174249D02*
G03X00299633Y00175050I00000000J00002501D01*
G01X00297800Y00174249D02*
X00292200D01*
X00289699Y00176750D02*
G03X00292200Y00174249I00002501J00000000D01*
G01X00289699Y00176750D02*
Y00180650D01*
X00290231Y00182191D02*
G03X00289699Y00180650I00001969J-00001541D01*
G01X00290231Y00182191D02*
G03Y00182808I-00000392J00000309D01*
G01X00289699Y00184350D02*
G03X00290231Y00182808I00002501J00000000D01*
G01X00289699Y00184350D02*
Y00188250D01*
X00291345Y00190599D02*
G03X00289699Y00188250I00000855J-00002349D01*
G01X00291345Y00190599D02*
G03X00291652Y00190923I-00000170J00000470D01*
G01X00292352Y00192189D02*
G03X00291652Y00190923I00002648J-00002289D01*
G01X00292352Y00192189D02*
G03X00292415Y00192753I-00000377J00000327D01*
G01X00293059Y00198166D02*
G03X00292415Y00192753I00003541J-00003166D01*
G01X00293059Y00198166D02*
G03X00292686Y00198999I-00000372J00000333D01*
G01X00292686D02*
X00291500D01*
X00289469Y00200041D02*
G03X00291500Y00198999I00002031J00001459D01*
G01X00289469Y00200041D02*
G03X00289063Y00200249I-00000405J-00000291D01*
G01X00289063D02*
X00281227D01*
X00281227D02*
G03X00280772Y00199541I00000000J-00000499D01*
G01X00281000Y00198500D02*
G03X00280772Y00199541I-00002500J00000000D01*
G01X00281000Y00198500D02*
Y00191500D01*
X00280665Y00190250D02*
G03X00281000Y00191500I-00002165J00001250D01*
G01X00280665Y00190249D02*
G03Y00189750I00000433J-00000249D01*
G01X00281000Y00188500D02*
G03X00280665Y00189750I-00002500J00000000D01*
G01X00281000Y00188500D02*
Y00181500D01*
X00278500Y00178999D02*
G03X00281000Y00181500I00000000J00002501D01*
G01X00278500Y00178999D02*
X00271500D01*
X00270250Y00179334D02*
G03X00271500Y00178999I00001250J00002166D01*
G01X00270249Y00179334D02*
G03X00269750I-00000249J-00000432D01*
G01X00268500Y00178999D02*
G03X00269750Y00179334I00000000J00002501D01*
G01X00268500Y00178999D02*
X00264156D01*
X00264156D02*
G03X00263803Y00178853I00000000J-00000499D01*
G01X00263803D02*
X00253646Y00168696D01*
X00253646D02*
G03X00253500Y00168343I00000354J-00000352D01*
G01Y00150000*
X00252474Y00147525D02*
G03X00253500Y00150000I-00002474J00002475D01*
G01X00252474Y00147525D02*
X00243953Y00139003D01*
X00243953D02*
G03X00244306Y00138150I00000353J-00000352D01*
G01X00244306D02*
X00282900D01*
X00284400Y00136650D02*
G03X00282900Y00138150I-00001500J00000000D01*
G01X00284400Y00136650D02*
Y00127850D01*
X00282900Y00126349D02*
G03X00284400Y00127850I00000000J00001501D01*
G01X00282900Y00126349D02*
X00241190D01*
X00239690Y00127850D02*
G03X00241190Y00126349I00001500J00000000D01*
G01X00239690Y00127850D02*
Y00133534D01*
X00239690D02*
G03X00238837Y00133887I-00000499J00000000D01*
G01X00238837D02*
X00230874Y00125925D01*
X00228538Y00124902D02*
G03X00230874Y00125925I-00000138J00003498D01*
G01X00228538Y00124902D02*
G03X00228401Y00124877I00000020J-00000498D01*
G01X00227300Y00124699D02*
G03X00228401Y00124877I00000000J00003501D01*
G01X00227300Y00124699D02*
X00156800D01*
X00153905Y00126232D02*
G03X00156800Y00124699I00002895J00001968D01*
G01X00153905Y00126232D02*
G03X00153845Y00126304I-00000412J-00000280D01*
G01X00153845D02*
X00151725Y00128425D01*
X00150919Y00129679D02*
G03X00151725Y00128425I00003281J00001221D01*
G01X00150919Y00129679D02*
G03X00150098Y00129859I-00000467J-00000173D01*
G01X00149855Y00150376D02*
G03X00150098Y00129859I-00009855J-00010376D01*
G01X00149855Y00150376D02*
G03X00150699Y00150739I00000344J00000363D01*
G01X00150699D02*
Y00164143D01*
X00150699D02*
G03X00150553Y00164496I-00000499J00000000D01*
G01X00150553D02*
X00146981Y00168068D01*
X00146981D02*
G03X00146128Y00167705I-00000352J-00000353D01*
G01X00131414Y00178036D02*
G03X00146128Y00167705I00003586J-00010536D01*
G01X00131414Y00178036D02*
G03X00131294Y00179008I-00000160J00000474D01*
G01X00128999Y00181500D02*
G03X00131294Y00179008I00002501J00000000D01*
G01X00128999Y00181500D02*
Y00188500D01*
X00129334Y00189750D02*
G03X00128999Y00188500I00002166J-00001250D01*
G01X00129334Y00189750D02*
G03Y00190249I-00000432J00000250D01*
G01X00128999Y00191500D02*
G03X00129334Y00190250I00002501J00000000D01*
G01X00128999Y00191500D02*
Y00198500D01*
X00131083Y00200965D02*
G03X00128999Y00198500I00000417J-00002465D01*
G01X00131083Y00200965D02*
G03X00131499Y00201458I-00000083J00000493D01*
G01X00131499D02*
Y00201623D01*
X00131499D02*
G03X00131241Y00202061I-00000499J00000000D01*
G01X00129949Y00204250D02*
G03X00131241Y00202061I00002501J00000000D01*
G01X00129949Y00204250D02*
Y00208150D01*
X00130481Y00209691D02*
G03X00129949Y00208150I00001969J-00001541D01*
G01X00130481Y00209691D02*
G03Y00210308I-00000392J00000309D01*
G01X00129949Y00211850D02*
G03X00130481Y00210308I00002501J00000000D01*
G01X00129949Y00211850D02*
Y00215750D01*
X00132450Y00218250D02*
G03X00129949Y00215750I00000000J-00002500D01*
G01X00132450Y00218250D02*
X00135300D01*
X00135300D02*
G03X00135500Y00219208I00000000J00000500D01*
G01X00133999Y00221500D02*
G03X00135500Y00219208I00002501J00000000D01*
G01X00133999Y00221500D02*
Y00228500D01*
X00134334Y00229750D02*
G03X00133999Y00228500I00002166J-00001250D01*
G01X00134334Y00229750D02*
G03Y00230249I-00000432J00000250D01*
G01X00133999Y00231500D02*
G03X00134334Y00230250I00002501J00000000D01*
G01X00133999Y00231500D02*
Y00238500D01*
X00135041Y00240530D02*
G03X00133999Y00238500I00001459J-00002030D01*
G01X00135041Y00240530D02*
G03X00135249Y00240936I-00000291J00000406D01*
G01X00135249D02*
Y00244225D01*
X00135249D02*
G03X00135103Y00244578I-00000499J00000000D01*
G01X00135103D02*
X00130141Y00249541D01*
X00128749Y00252900D02*
G03X00130141Y00249541I00004751J00000000D01*
G01X00128749Y00252900D02*
Y00282099D01*
X00130141Y00285458D02*
G03X00128749Y00282099I00003359J-00003358D01*
G01X00130141Y00285458D02*
X00130541Y00285858D01*
X00133900Y00287250D02*
G03X00130541Y00285858I00000000J-00004750D01*
G01X00133900Y00287250D02*
X00134513D01*
X00134513D02*
G03X00134886Y00287416I00000000J00000500D01*
G01X00136750Y00288250D02*
G03X00134886Y00287416I00000000J-00002500D01*
G01X00136750Y00288250D02*
X00143250D01*
X00145750Y00285750D02*
G03X00143250Y00288250I-00002500J00000000D01*
G01X00145750Y00285750D02*
Y00283706D01*
X00145750D02*
G03X00146603Y00283353I00000500J00000000D01*
G01X00146603D02*
X00147153Y00283903D01*
X00147153D02*
G03X00147299Y00284256I-00000353J00000353D01*
G01X00147299D02*
Y00300800D01*
X00148325Y00303274D02*
G03X00147299Y00300800I00002475J-00002474D01*
G01X00148325Y00303274D02*
X00158853Y00313803D01*
X00158853D02*
G03X00158999Y00314156I-00000353J00000353D01*
G01X00158999D02*
Y00316499D01*
X00158999D02*
G03X00158499Y00316999I-00000499J00000000D01*
G01X00158499D02*
X00158356D01*
X00158356D02*
G03X00158003Y00316853I00000000J-00000499D01*
G01X00158003D02*
X00151174Y00310025D01*
X00148700Y00308999D02*
G03X00151174Y00310025I00000000J00003501D01*
G01X00148700Y00308999D02*
X00146154D01*
X00146154D02*
G03X00145670Y00308624I00000000J-00000499D01*
G01X00145280Y00307791D02*
G03X00145670Y00308624I-00002030J00001459D01*
G01X00145280Y00307791D02*
G03Y00307208I00000406J-00000291D01*
G01X00145750Y00305750D02*
G03X00145280Y00307208I-00002500J00000000D01*
G01X00145750Y00305750D02*
Y00299250D01*
X00143250Y00296749D02*
G03X00145750Y00299250I00000000J00002501D01*
G01X00143250Y00296749D02*
X00136750D01*
X00134249Y00299250D02*
G03X00136750Y00296749I00002501J00000000D01*
G01X00134249Y00299250D02*
Y00305750D01*
X00134719Y00307208D02*
G03X00134249Y00305750I00002031J-00001458D01*
G01X00134719Y00307208D02*
G03Y00307791I-00000405J00000292D01*
G01X00134249Y00309250D02*
G03X00134719Y00307791I00002501J00000000D01*
G01X00134249Y00309250D02*
Y00315750D01*
X00136750Y00318250D02*
G03X00134249Y00315750I00000000J-00002500D01*
G01X00136750Y00318250D02*
X00143250D01*
X00145670Y00316375D02*
G03X00143250Y00318250I-00002420J-00000625D01*
G01X00145670Y00316375D02*
G03X00146154Y00316000I00000484J00000125D01*
G01X00146154D02*
X00147043D01*
G03X00147396Y00316146I00000000J00000500*
G01X00147396D02*
X00154225Y00322974D01*
X00156700Y00324000D02*
G03X00154225Y00322974I00000000J-00003500D01*
G01X00156700Y00324000D02*
X00170173D01*
G03X00170670Y00324555I00000000J00000500*
G01X00170279Y00328075*
X00170249Y00328600D02*
G03X00170279Y00328075I00004751J00000000D01*
G01X00170249Y00328600D02*
Y00333772D01*
X00170249D02*
G03X00169541Y00334227I-00000499J00000000D01*
G01X00168500Y00333999D02*
G03X00169541Y00334227I00000000J00002501D01*
G01X00168500Y00333999D02*
X00161500D01*
X00158999Y00336500D02*
G03X00161500Y00333999I00002501J00000000D01*
G01X00158999Y00336500D02*
Y00343500D01*
X00159334Y00344750D02*
G03X00158999Y00343500I00002166J-00001250D01*
G01X00159334Y00344750D02*
G03Y00345249I-00000432J00000250D01*
G01X00158999Y00346500D02*
G03X00159334Y00345250I00002501J00000000D01*
G01X00158999Y00346500D02*
Y00353500D01*
X00161500Y00356000D02*
G03X00158999Y00353500I00000000J-00002500D01*
G01X00161500Y00356000D02*
X00168500D01*
X00169750Y00355665D02*
G03X00168500Y00356000I-00001250J-00002165D01*
G01X00169750Y00355665D02*
G03X00170249I00000250J00000433D01*
G01X00171500Y00356000D02*
G03X00170250Y00355665I00000000J-00002500D01*
G01X00171500Y00356000D02*
X00178500D01*
X00179750Y00355665D02*
G03X00178500Y00356000I-00001250J-00002165D01*
G01X00179750Y00355665D02*
G03X00180249I00000250J00000433D01*
G01X00181500Y00356000D02*
G03X00180250Y00355665I00000000J-00002500D01*
G01X00181500Y00356000D02*
X00188500D01*
X00191000Y00353500D02*
G03X00188500Y00356000I-00002500J00000000D01*
G01X00191000Y00353500D02*
Y00346500D01*
X00190665Y00345250D02*
G03X00191000Y00346500I-00002165J00001250D01*
G01X00190665Y00345249D02*
G03Y00344750I00000433J-00000249D01*
G01X00191000Y00343500D02*
G03X00190665Y00344750I-00002500J00000000D01*
G01X00191000Y00343500D02*
Y00336500D01*
X00188500Y00333999D02*
G03X00191000Y00336500I00000000J00002501D01*
G01X00188500Y00333999D02*
X00181500D01*
X00180458Y00334227D02*
G03X00181500Y00333999I00001042J00002273D01*
G01X00180458Y00334227D02*
G03X00179750Y00333772I-00000207J-00000454D01*
G01X00179750D02*
Y00330250D01*
G03X00180250Y00329750I00000500J00000000*
G01X00197249*
X00197249D02*
G03X00197749Y00330250I00000000J00000500D01*
G01X00197749D02*
Y00337095D01*
X00197749D02*
G03X00197687Y00337337I-00000499J00000000D01*
G01X00205036Y00344880D02*
G03X00197687Y00337337I-00002536J-00004880D01*
G01X00205036Y00344880D02*
G03X00205764Y00345269I00000231J00000443D01*
G01X00208250Y00347500D02*
G03X00205764Y00345269I00000000J-00002500D01*
G01X00208250Y00347500D02*
X00213750D01*
X00216250Y00345000D02*
G03X00213750Y00347500I-00002500J00000000D01*
G01X00216250Y00345000D02*
Y00335000D01*
X00213750Y00332499D02*
G03X00216250Y00335000I00000000J00002501D01*
G01X00213750Y00332499D02*
X00208250D01*
X00207833Y00332534D02*
G03X00208250Y00332499I00000417J00002466D01*
G01X00207833Y00332534D02*
G03X00207250Y00332041I-00000082J-00000492D01*
G01X00207250D02*
Y00330250D01*
G03X00207750Y00329750I00000500J00000000*
G01X00217700*
X00221357Y00328030D02*
G03X00217700Y00329750I-00003657J-00003030D01*
G01X00221357Y00328030D02*
G03X00221742Y00327850I00000385J00000320D01*
G01X00232750*
X00235224Y00326824D02*
G03X00232750Y00327850I-00002474J-00002474D01*
G01X00235224Y00326824D02*
X00240003Y00322046D01*
G03X00240356Y00321900I00000353J00000354*
G01X00240356D02*
X00250249D01*
X00250249D02*
G03X00250549Y00322800I00000000J00000500D01*
G01X00259157Y00329941D02*
G03X00250549Y00322800I-00005157J-00002541D01*
G01X00259157Y00329941D02*
G03X00259959Y00329809I00000449J00000222D01*
G01X00259959D02*
X00265325Y00335174D01*
X00267800Y00336200D02*
G03X00265325Y00335174I00000000J-00003500D01*
G01X00267800Y00336200D02*
X00273200D01*
X00275674Y00335174D02*
G03X00273200Y00336200I-00002474J-00002474D01*
G01X00275674Y00335174D02*
X00291374Y00319474D01*
X00292400Y00317000D02*
G03X00291374Y00319474I-00003500J00000000D01*
G01X00292400Y00317000D02*
Y00306249D01*
X00292400D02*
G03X00292546Y00305896I00000500J00000000D01*
G01X00293696Y00304746*
G03X00294049Y00304600I00000353J00000354*
G01X00294049D02*
X00294199D01*
X00294199D02*
G03X00294699Y00305100I00000000J00000500D01*
G01X00294699D02*
Y00308150D01*
X00295231Y00309691D02*
G03X00294699Y00308150I00001969J-00001541D01*
G01X00295231Y00309691D02*
G03Y00310308I-00000392J00000309D01*
G01X00294699Y00311850D02*
G03X00295231Y00310308I00002501J00000000D01*
G01X00294699Y00311850D02*
Y00315750D01*
X00297200Y00318250D02*
G03X00294699Y00315750I00000000J-00002500D01*
G01X00297200Y00318250D02*
X00302800D01*
X00305300Y00315750D02*
G03X00302800Y00318250I-00002500J00000000D01*
G01X00305300Y00315750D02*
Y00311850D01*
X00304768Y00310308D02*
G03X00305300Y00311850I-00001968J00001542D01*
G01X00304768Y00310308D02*
G03Y00309691I00000393J-00000308D01*
G01X00305300Y00308150D02*
G03X00304768Y00309691I-00002500J00000000D01*
G01X00305300Y00308150D02*
Y00306906D01*
X00305300D02*
G03X00305446Y00306553I00000500J00000000D01*
G01X00306144Y00305855*
G03X00306310Y00305745I00000353J00000353*
G01X00308500Y00302500D02*
G03X00306310Y00305745I-00003500J00000000D01*
G01X00308500Y00302500D02*
Y00301458D01*
G03X00308916Y00300965I00000500J00000000*
G01X00311000Y00298500D02*
G03X00308916Y00300965I-00002500J00000000D01*
G01X00314311Y00340000D02*
G03X00314311I-00014311D01*
G01X00243000D02*
G03X00243000I-00005500D01*
G01X00229250Y00345000D02*
Y00335000D01*
X00226750Y00332499D02*
G03X00229250Y00335000I00000000J00002501D01*
G01X00226750Y00332499D02*
X00221250D01*
X00218749Y00335000D02*
G03X00221250Y00332499I00002501J00000000D01*
G01X00218749Y00335000D02*
Y00345000D01*
X00221250Y00347500D02*
G03X00218749Y00345000I00000000J-00002500D01*
G01X00221250Y00347500D02*
X00226750D01*
X00229250Y00345000D02*
G03X00226750Y00347500I-00002500J00000000D01*
G01X00154311Y00340000D02*
G03X00154311I-00014311D01*
G01X00241000Y00185498D02*
X00258999D01*
X00241000Y00184598D02*
X00258999D01*
X00241000Y00183698D02*
X00258748D01*
X00241000Y00186398D02*
X00258651D01*
X00241000Y00182798D02*
X00257848D01*
X00241000Y00187298D02*
X00257751D01*
X00241000Y00181898D02*
X00256948D01*
X00241000Y00188198D02*
X00256851D01*
X00241000Y00180998D02*
X00256048D01*
X00241000Y00189098D02*
X00255951D01*
X00241000Y00180098D02*
X00255148D01*
X00241000Y00189998D02*
X00255051D01*
X00241000Y00179198D02*
X00254248D01*
X00241000Y00190898D02*
X00254151D01*
X00241000Y00178298D02*
X00253348D01*
X00240929Y00191798D02*
X00253251D01*
X00241000Y00177398D02*
X00252448D01*
X00240613Y00192698D02*
X00252351D01*
X00241000Y00176498D02*
X00251548D01*
X00239951Y00193598D02*
X00251451D01*
X00241000Y00175598D02*
X00250648D01*
X00239051Y00194498D02*
X00250551D01*
X00241000Y00174698D02*
X00249748D01*
X00238151Y00195398D02*
X00249651D01*
X00241000Y00173798D02*
X00248848D01*
X00237251Y00196298D02*
X00248751D01*
X00241000Y00172898D02*
X00247948D01*
X00236351Y00197198D02*
X00247851D01*
X00241000Y00171998D02*
X00247126D01*
X00235444Y00198098D02*
X00246951D01*
X00241000Y00171098D02*
X00246676D01*
X00241000Y00170198D02*
X00246505D01*
X00241000Y00169298D02*
X00246499D01*
X00241000Y00168398D02*
X00246499D01*
X00241000Y00167498D02*
X00246499D01*
X00241000Y00166598D02*
X00246499D01*
X00241100Y00165698D02*
X00246499D01*
X00242262Y00164798D02*
X00246499D01*
X00242714Y00163898D02*
X00246499D01*
X00242800Y00162998D02*
X00246499D01*
X00242800Y00162098D02*
X00246499D01*
X00242800Y00161198D02*
X00246499D01*
X00242800Y00160298D02*
X00246499D01*
X00242800Y00159398D02*
X00246499D01*
X00242650Y00158498D02*
X00246499D01*
X00242171Y00157598D02*
X00246499D01*
X00242569Y00156698D02*
X00246499D01*
X00242795Y00155798D02*
X00246499D01*
X00242800Y00154898D02*
X00246499D01*
X00242800Y00153998D02*
X00246499D01*
X00242800Y00153098D02*
X00246499D01*
X00242800Y00152198D02*
X00246499D01*
X00242758Y00151298D02*
X00246348D01*
X00234525Y00198998D02*
X00246051D01*
X00242403Y00150398D02*
X00245448D01*
X00234500Y00199898D02*
X00245151D01*
X00241387Y00149498D02*
X00244548D01*
X00234500Y00200798D02*
X00244251D01*
X00229277Y00148598D02*
X00243648D01*
X00234500Y00201698D02*
X00243351D01*
X00229869Y00147698D02*
X00242748D01*
X00234500Y00202598D02*
X00242528D01*
X00234500Y00203498D02*
X00242077D01*
X00234500Y00204398D02*
X00241905D01*
X00234500Y00216998D02*
X00241899D01*
X00234500Y00216098D02*
X00241899D01*
X00234500Y00215198D02*
X00241899D01*
X00234500Y00214298D02*
X00241899D01*
X00234500Y00213398D02*
X00241899D01*
X00234500Y00212498D02*
X00241899D01*
X00234500Y00211598D02*
X00241899D01*
X00234500Y00210698D02*
X00241899D01*
X00234500Y00209798D02*
X00241899D01*
X00234500Y00208898D02*
X00241899D01*
X00234500Y00207998D02*
X00241899D01*
X00234500Y00207098D02*
X00241899D01*
X00234500Y00206198D02*
X00241899D01*
X00234500Y00205298D02*
X00241899D01*
X00230244Y00146798D02*
X00241848D01*
X00234500Y00217898D02*
X00241651D01*
X00230447Y00145898D02*
X00240948D01*
X00230498Y00144998D02*
X00240048D01*
X00230400Y00144098D02*
X00239148D01*
X00230145Y00143198D02*
X00238248D01*
X00229708Y00142298D02*
X00237348D01*
X00229029Y00141398D02*
X00236448D01*
X00234502Y00218798D02*
X00236397D01*
X00229337Y00305198D02*
X00235999D01*
X00226000Y00304298D02*
X00235999D01*
X00226000Y00303398D02*
X00235999D01*
X00226000Y00302498D02*
X00235999D01*
X00226000Y00301598D02*
X00235999D01*
X00226000Y00300698D02*
X00235999D01*
X00226000Y00299798D02*
X00235999D01*
X00226000Y00298898D02*
X00235999D01*
X00226000Y00297998D02*
X00235999D01*
X00226000Y00297098D02*
X00235999D01*
X00226000Y00296198D02*
X00235999D01*
X00226000Y00295298D02*
X00235999D01*
X00226000Y00294398D02*
X00235999D01*
X00226000Y00293498D02*
X00235999D01*
X00226000Y00292598D02*
X00235999D01*
X00226000Y00291698D02*
X00235999D01*
X00230353Y00306098D02*
X00235990D01*
X00227948Y00140498D02*
X00235548D01*
X00226000Y00290798D02*
X00235216D01*
X00215745Y00139598D02*
X00234648D01*
X00226000Y00289898D02*
X00234117D01*
X00226000Y00279998D02*
X00234063D01*
X00226000Y00270098D02*
X00234053D01*
X00223648Y00260198D02*
X00234021D01*
X00218248Y00254798D02*
X00234020D01*
X00213748Y00250298D02*
X00233964D01*
X00226000Y00264698D02*
X00233962D01*
X00226000Y00285398D02*
X00233894D01*
X00226000Y00274598D02*
X00233892D01*
X00226000Y00275498D02*
X00233828D01*
X00226000Y00284498D02*
X00233827D01*
X00226000Y00265598D02*
X00233767D01*
X00212848Y00249398D02*
X00233766D01*
X00215992Y00138698D02*
X00233748D01*
X00219148Y00255698D02*
X00233710D01*
X00222748Y00259298D02*
X00233709D01*
X00226000Y00269198D02*
X00233656D01*
X00228513Y00149498D02*
X00233612D01*
X00226000Y00280898D02*
X00233609D01*
X00226000Y00279098D02*
X00233607D01*
X00226000Y00270998D02*
X00233563D01*
X00226000Y00288998D02*
X00233562D01*
X00224548Y00261098D02*
X00233521D01*
X00217348Y00253898D02*
X00233520D01*
X00214648Y00251198D02*
X00233483D01*
X00225994Y00263798D02*
X00233482D01*
X00226000Y00286298D02*
X00233447D01*
X00226000Y00273698D02*
X00233446D01*
X00226000Y00276398D02*
X00233415D01*
X00226000Y00283598D02*
X00233414D01*
X00226000Y00266498D02*
X00233386D01*
X00220048Y00256598D02*
X00233359D01*
X00221848Y00258398D02*
X00233359D01*
X00226000Y00268298D02*
X00233336D01*
X00226000Y00281798D02*
X00233316D01*
X00226000Y00278198D02*
X00233315D01*
X00226000Y00271898D02*
X00233298D01*
X00226000Y00288098D02*
X00233298D01*
X00225371Y00261998D02*
X00233283D01*
X00216448Y00252998D02*
X00233283D01*
X00215548Y00252098D02*
X00233271D01*
X00225822Y00262898D02*
X00233271D01*
X00226000Y00287198D02*
X00233262D01*
X00226000Y00272798D02*
X00233261D01*
X00226000Y00277298D02*
X00233255D01*
X00226000Y00282698D02*
X00233255D01*
X00226000Y00267398D02*
X00233251D01*
X00220948Y00257498D02*
X00233249D01*
X00211948Y00248498D02*
X00233048D01*
X00216000Y00137798D02*
X00232848D01*
X00228500Y00150398D02*
X00232596D01*
X00228500Y00151298D02*
X00232241D01*
X00230248Y00153998D02*
X00232199D01*
X00229348Y00153098D02*
X00232199D01*
X00228524Y00152198D02*
X00232199D01*
X00231148Y00154898D02*
X00232175D01*
X00211048Y00247598D02*
X00232148D01*
X00216000Y00136898D02*
X00231948D01*
X00210148Y00246698D02*
X00231248D01*
X00216000Y00135998D02*
X00231048D01*
X00209248Y00245798D02*
X00230348D01*
X00216000Y00135098D02*
X00230148D01*
X00208341Y00244898D02*
X00229448D01*
X00216000Y00134198D02*
X00229248D01*
X00206731Y00243998D02*
X00228548D01*
X00216000Y00133298D02*
X00228348D01*
X00206701Y00243098D02*
X00227648D01*
X00216000Y00132398D02*
X00227448D01*
X00206737Y00242198D02*
X00226748D01*
X00206552Y00241298D02*
X00225848D01*
X00206105Y00240398D02*
X00224948D01*
X00214000Y00158498D02*
X00224848D01*
X00214854Y00159398D02*
X00224334D01*
X00206172Y00239498D02*
X00224048D01*
X00214482Y00157598D02*
X00223948D01*
X00206585Y00238598D02*
X00223297D01*
X00215113Y00156698D02*
X00223048D01*
X00206744Y00237698D02*
X00222917D01*
X00206683Y00236798D02*
X00222799D01*
X00206390Y00235898D02*
X00222799D01*
X00205936Y00234998D02*
X00222799D01*
X00206392Y00234098D02*
X00222799D01*
X00206684Y00233198D02*
X00222799D01*
X00206744Y00232298D02*
X00222799D01*
X00206584Y00231398D02*
X00222799D01*
X00206171Y00230498D02*
X00222799D01*
X00206107Y00229598D02*
X00222799D01*
X00206553Y00228698D02*
X00222799D01*
X00206738Y00227798D02*
X00222799D01*
X00206701Y00226898D02*
X00222799D01*
X00206436Y00225998D02*
X00222799D01*
X00205946Y00225098D02*
X00222799D01*
X00206343Y00224198D02*
X00222799D01*
X00206663Y00223298D02*
X00222799D01*
X00206748Y00222398D02*
X00222799D01*
X00206613Y00221498D02*
X00222799D01*
X00206232Y00220598D02*
X00222799D01*
X00205493Y00219698D02*
X00222799D01*
X00204082Y00218798D02*
X00222799D01*
X00204000Y00217898D02*
X00222799D01*
X00204000Y00216998D02*
X00222799D01*
X00204000Y00216098D02*
X00222799D01*
X00204000Y00215198D02*
X00222799D01*
X00204000Y00214298D02*
X00222799D01*
X00204000Y00213398D02*
X00222799D01*
X00204000Y00212498D02*
X00222799D01*
X00204000Y00211598D02*
X00222799D01*
X00204000Y00210698D02*
X00222799D01*
X00203929Y00209798D02*
X00222799D01*
X00203612Y00208898D02*
X00222799D01*
X00202948Y00207998D02*
X00222799D01*
X00202048Y00207098D02*
X00222799D01*
X00201148Y00206198D02*
X00222799D01*
X00200248Y00205298D02*
X00222799D01*
X00199348Y00204398D02*
X00222799D01*
X00198448Y00203498D02*
X00222799D01*
X00197548Y00202598D02*
X00222799D01*
X00196648Y00201698D02*
X00222799D01*
X00195748Y00200798D02*
X00222799D01*
X00194848Y00199898D02*
X00222799D01*
X00193948Y00198998D02*
X00222799D01*
X00193048Y00198098D02*
X00222799D01*
X00181348Y00186398D02*
X00222799D01*
X00181000Y00185498D02*
X00222799D01*
X00181000Y00184598D02*
X00222799D01*
X00181000Y00183698D02*
X00222799D01*
X00181000Y00182798D02*
X00222799D01*
X00181000Y00181898D02*
X00222799D01*
X00181002Y00180998D02*
X00222799D01*
X00221345Y00187298D02*
X00222788D01*
X00216561Y00180098D02*
X00222648D01*
X00215299Y00155798D02*
X00222198D01*
X00215001Y00140498D02*
X00222051D01*
X00216899Y00179198D02*
X00221939D01*
X00215692Y00160298D02*
X00221924D01*
X00215300Y00154898D02*
X00221711D01*
X00216900Y00178298D02*
X00221592D01*
X00215300Y00153998D02*
X00221512D01*
X00216900Y00177398D02*
X00221499D01*
X00216900Y00176498D02*
X00221499D01*
X00216900Y00175598D02*
X00221499D01*
X00216900Y00174698D02*
X00221499D01*
X00216900Y00173798D02*
X00221499D01*
X00216900Y00172898D02*
X00221499D01*
X00216900Y00171998D02*
X00221499D01*
X00216900Y00171098D02*
X00221499D01*
X00216892Y00170198D02*
X00221499D01*
X00215300Y00153098D02*
X00221499D01*
X00215300Y00152198D02*
X00221499D01*
X00215238Y00151298D02*
X00221499D01*
X00214835Y00150398D02*
X00221499D01*
X00216469Y00169298D02*
X00221498D01*
X00214905Y00149498D02*
X00221486D01*
X00214000Y00141398D02*
X00220970D01*
X00215981Y00161198D02*
X00220894D01*
X00216000Y00168398D02*
X00220791D01*
X00215259Y00148598D02*
X00220722D01*
X00214362Y00142298D02*
X00220291D01*
X00216000Y00162098D02*
X00220242D01*
X00216000Y00167498D02*
X00220175D01*
X00215300Y00147698D02*
X00220130D01*
X00215068Y00143198D02*
X00219854D01*
X00216000Y00162998D02*
X00219823D01*
X00216000Y00166598D02*
X00219782D01*
X00215300Y00146798D02*
X00219755D01*
X00215295Y00144098D02*
X00219599D01*
X00216000Y00163898D02*
X00219584D01*
X00216000Y00165698D02*
X00219564D01*
X00215300Y00145898D02*
X00219552D01*
X00215300Y00144998D02*
X00219501D01*
X00216000Y00164798D02*
X00219500D01*
X00182248Y00187298D02*
X00216054D01*
X00192148Y00197198D02*
X00215123D01*
X00183148Y00188198D02*
X00214750D01*
X00191248Y00196298D02*
X00214458D01*
X00184048Y00189098D02*
X00214323D01*
X00190348Y00195398D02*
X00214251D01*
X00189448Y00194498D02*
X00214249D01*
X00188548Y00193598D02*
X00214249D01*
X00187648Y00192698D02*
X00214249D01*
X00186748Y00191798D02*
X00214249D01*
X00185848Y00190898D02*
X00214249D01*
X00184948Y00189998D02*
X00214249D01*
X00275226Y00356498D02*
X00317500D01*
X00275906Y00355598D02*
X00317500D01*
X00276353Y00354698D02*
X00317500D01*
X00303795Y00353798D02*
X00317500D01*
X00306199Y00352898D02*
X00317500D01*
X00307799Y00351998D02*
X00317500D01*
X00309034Y00351098D02*
X00317500D01*
X00310039Y00350198D02*
X00317500D01*
X00310878Y00349298D02*
X00317500D01*
X00311587Y00348398D02*
X00317500D01*
X00312189Y00347498D02*
X00317500D01*
X00312698Y00346598D02*
X00317500D01*
X00313127Y00345698D02*
X00317500D01*
X00313482Y00344798D02*
X00317500D01*
X00313769Y00343898D02*
X00317500D01*
X00313993Y00342998D02*
X00317500D01*
X00314156Y00342098D02*
X00317500D01*
X00314260Y00341198D02*
X00317500D01*
X00314307Y00340298D02*
X00317500D01*
X00314298Y00339398D02*
X00317500D01*
X00314232Y00338498D02*
X00317500D01*
X00314108Y00337598D02*
X00317500D01*
X00313925Y00336698D02*
X00317500D01*
X00313680Y00335798D02*
X00317500D01*
X00313370Y00334898D02*
X00317500D01*
X00312991Y00333998D02*
X00317500D01*
X00312537Y00333098D02*
X00317500D01*
X00311997Y00332198D02*
X00317500D01*
X00311361Y00331298D02*
X00317500D01*
X00310612Y00330398D02*
X00317500D01*
X00309722Y00329498D02*
X00317500D01*
X00308649Y00328598D02*
X00317500D01*
X00307313Y00327698D02*
X00317500D01*
X00305525Y00326798D02*
X00317500D01*
X00302441Y00325898D02*
X00317500D01*
X00285851Y00324998D02*
X00317500D01*
X00286751Y00324098D02*
X00317500D01*
X00287651Y00323198D02*
X00317500D01*
X00288551Y00322298D02*
X00317500D01*
X00289451Y00321398D02*
X00317500D01*
X00290351Y00320498D02*
X00317500D01*
X00291251Y00319598D02*
X00317500D01*
X00291960Y00318698D02*
X00317500D01*
X00304232Y00317798D02*
X00317500D01*
X00305020Y00316898D02*
X00317500D01*
X00305287Y00315998D02*
X00317500D01*
X00305300Y00315098D02*
X00317500D01*
X00305300Y00314198D02*
X00317500D01*
X00305300Y00313298D02*
X00317500D01*
X00305300Y00312398D02*
X00317500D01*
X00305275Y00311498D02*
X00317500D01*
X00304964Y00310598D02*
X00317500D01*
X00304762Y00309698D02*
X00317500D01*
X00305214Y00308798D02*
X00317500D01*
X00305300Y00307898D02*
X00317500D01*
X00305300Y00306998D02*
X00317500D01*
X00305901Y00306098D02*
X00317500D01*
X00307228Y00305198D02*
X00317500D01*
X00308002Y00304298D02*
X00317500D01*
X00308382Y00303398D02*
X00317500D01*
X00308500Y00302498D02*
X00317500D01*
X00308500Y00301598D02*
X00317500D01*
X00309689Y00300698D02*
X00317500D01*
X00310636Y00299798D02*
X00317500D01*
X00310968Y00298898D02*
X00317500D01*
X00311000Y00297998D02*
X00317500D01*
X00311000Y00297098D02*
X00317500D01*
X00311000Y00296198D02*
X00317500D01*
X00311000Y00295298D02*
X00317500D01*
X00311000Y00294398D02*
X00317500D01*
X00311000Y00293498D02*
X00317500D01*
X00311000Y00292598D02*
X00317500D01*
X00311000Y00291698D02*
X00317500D01*
X00310899Y00290798D02*
X00317500D01*
X00310608Y00289898D02*
X00317500D01*
X00310949Y00288998D02*
X00317500D01*
X00311000Y00288098D02*
X00317500D01*
X00311000Y00287198D02*
X00317500D01*
X00311000Y00286298D02*
X00317500D01*
X00311000Y00285398D02*
X00317500D01*
X00311000Y00284498D02*
X00317500D01*
X00311000Y00283598D02*
X00317500D01*
X00311000Y00282698D02*
X00317500D01*
X00311000Y00281798D02*
X00317500D01*
X00310926Y00280898D02*
X00317500D01*
X00310598Y00279998D02*
X00317500D01*
X00310927Y00279098D02*
X00317500D01*
X00311000Y00278198D02*
X00317500D01*
X00311000Y00277298D02*
X00317500D01*
X00311000Y00276398D02*
X00317500D01*
X00311000Y00275498D02*
X00317500D01*
X00311000Y00274598D02*
X00317500D01*
X00311000Y00273698D02*
X00317500D01*
X00311000Y00272798D02*
X00317500D01*
X00311000Y00271898D02*
X00317500D01*
X00310949Y00270998D02*
X00317500D01*
X00310607Y00270098D02*
X00317500D01*
X00310900Y00269198D02*
X00317500D01*
X00311000Y00268298D02*
X00317500D01*
X00311000Y00267398D02*
X00317500D01*
X00311000Y00266498D02*
X00317500D01*
X00311000Y00265598D02*
X00317500D01*
X00311000Y00264698D02*
X00317500D01*
X00311000Y00263798D02*
X00317500D01*
X00311000Y00262898D02*
X00317500D01*
X00311000Y00261998D02*
X00317500D01*
X00310967Y00261098D02*
X00317500D01*
X00310634Y00260198D02*
X00317500D01*
X00309685Y00259298D02*
X00317500D01*
X00308447Y00258398D02*
X00317500D01*
X00308161Y00257498D02*
X00317500D01*
X00307889Y00256598D02*
X00317500D01*
X00308218Y00255698D02*
X00317500D01*
X00308250Y00254798D02*
X00317500D01*
X00308250Y00253898D02*
X00317500D01*
X00308250Y00252998D02*
X00317500D01*
X00308250Y00252098D02*
X00317500D01*
X00308250Y00251198D02*
X00317500D01*
X00308250Y00250298D02*
X00317500D01*
X00308231Y00249398D02*
X00317500D01*
X00307942Y00248498D02*
X00317500D01*
X00307104Y00247598D02*
X00317500D01*
X00281000Y00246698D02*
X00317500D01*
X00302696Y00245798D02*
X00317500D01*
X00305088Y00244898D02*
X00317500D01*
X00306550Y00243998D02*
X00317500D01*
X00307634Y00243098D02*
X00317500D01*
X00308488Y00242198D02*
X00317500D01*
X00309176Y00241298D02*
X00317500D01*
X00309733Y00240398D02*
X00317500D01*
X00310180Y00239498D02*
X00317500D01*
X00310532Y00238598D02*
X00317500D01*
X00310798Y00237698D02*
X00317500D01*
X00310983Y00236798D02*
X00317500D01*
X00311093Y00235898D02*
X00317500D01*
X00311130Y00234998D02*
X00317500D01*
X00311093Y00234098D02*
X00317500D01*
X00310983Y00233198D02*
X00317500D01*
X00310797Y00232298D02*
X00317500D01*
X00310531Y00231398D02*
X00317500D01*
X00310179Y00230498D02*
X00317500D01*
X00309731Y00229598D02*
X00317500D01*
X00309174Y00228698D02*
X00317500D01*
X00308486Y00227798D02*
X00317500D01*
X00307632Y00226898D02*
X00317500D01*
X00306546Y00225998D02*
X00317500D01*
X00305083Y00225098D02*
X00317500D01*
X00302685Y00224198D02*
X00317500D01*
X00281000Y00223298D02*
X00317500D01*
X00281000Y00222398D02*
X00317500D01*
X00281000Y00221498D02*
X00317500D01*
X00309858Y00220598D02*
X00317500D01*
X00310693Y00219698D02*
X00317500D01*
X00310982Y00218798D02*
X00317500D01*
X00311000Y00217898D02*
X00317500D01*
X00311000Y00216998D02*
X00317500D01*
X00311000Y00216098D02*
X00317500D01*
X00311000Y00215198D02*
X00317500D01*
X00311000Y00214298D02*
X00317500D01*
X00311000Y00213398D02*
X00317500D01*
X00311000Y00212498D02*
X00317500D01*
X00311000Y00211598D02*
X00317500D01*
X00310868Y00210698D02*
X00317500D01*
X00310640Y00209798D02*
X00317500D01*
X00310968Y00208898D02*
X00317500D01*
X00311000Y00207998D02*
X00317500D01*
X00311000Y00207098D02*
X00317500D01*
X00311000Y00206198D02*
X00317500D01*
X00311000Y00205298D02*
X00317500D01*
X00311000Y00204398D02*
X00317500D01*
X00311000Y00203498D02*
X00317500D01*
X00311000Y00202598D02*
X00317500D01*
X00311000Y00201698D02*
X00317500D01*
X00310899Y00200798D02*
X00317500D01*
X00310419Y00199898D02*
X00317500D01*
X00308642Y00198998D02*
X00317500D01*
X00308000Y00198098D02*
X00317500D01*
X00307616Y00197198D02*
X00317500D01*
X00307969Y00196298D02*
X00317500D01*
X00308133Y00195398D02*
X00317500D01*
X00308123Y00194498D02*
X00317500D01*
X00307938Y00193598D02*
X00317500D01*
X00307559Y00192698D02*
X00317500D01*
X00307940Y00191798D02*
X00317500D01*
X00308355Y00190898D02*
X00317500D01*
X00309586Y00189998D02*
X00317500D01*
X00310151Y00189098D02*
X00317500D01*
X00310300Y00188198D02*
X00317500D01*
X00310300Y00187298D02*
X00317500D01*
X00310300Y00186398D02*
X00317500D01*
X00310300Y00185498D02*
X00317500D01*
X00310300Y00184598D02*
X00317500D01*
X00310213Y00183698D02*
X00317500D01*
X00309760Y00182798D02*
X00317500D01*
X00309965Y00181898D02*
X00317500D01*
X00310275Y00180998D02*
X00317500D01*
X00310300Y00180098D02*
X00317500D01*
X00310300Y00179198D02*
X00317500D01*
X00310300Y00178298D02*
X00317500D01*
X00310300Y00177398D02*
X00317500D01*
X00310287Y00176498D02*
X00317500D01*
X00310019Y00175598D02*
X00317500D01*
X00309229Y00174698D02*
X00317500D01*
X00258748Y00173798D02*
X00317500D01*
X00257848Y00172898D02*
X00317500D01*
X00256948Y00171998D02*
X00317500D01*
X00256048Y00171098D02*
X00317500D01*
X00255148Y00170198D02*
X00317500D01*
X00254248Y00169298D02*
X00317500D01*
X00253503Y00168398D02*
X00317500D01*
X00253500Y00167498D02*
X00317500D01*
X00253500Y00166598D02*
X00317500D01*
X00253500Y00165698D02*
X00317500D01*
X00253500Y00164798D02*
X00317500D01*
X00253500Y00163898D02*
X00317500D01*
X00253500Y00162998D02*
X00317500D01*
X00253500Y00162098D02*
X00317500D01*
X00302093Y00161198D02*
X00317500D01*
X00303198Y00160298D02*
X00317500D01*
X00303802Y00159398D02*
X00317500D01*
X00304131Y00158498D02*
X00317500D01*
X00304248Y00157598D02*
X00317500D01*
X00304173Y00156698D02*
X00317500D01*
X00303894Y00155798D02*
X00317500D01*
X00303360Y00154898D02*
X00317500D01*
X00303244Y00153998D02*
X00317500D01*
X00305764Y00153098D02*
X00317500D01*
X00307483Y00152198D02*
X00317500D01*
X00308783Y00151298D02*
X00317500D01*
X00309832Y00150398D02*
X00317500D01*
X00310704Y00149498D02*
X00317500D01*
X00311439Y00148598D02*
X00317500D01*
X00312063Y00147698D02*
X00317500D01*
X00312593Y00146798D02*
X00317500D01*
X00313038Y00145898D02*
X00317500D01*
X00313409Y00144998D02*
X00317500D01*
X00313711Y00144098D02*
X00317500D01*
X00313948Y00143198D02*
X00317500D01*
X00314125Y00142298D02*
X00317500D01*
X00314242Y00141398D02*
X00317500D01*
X00314302Y00140498D02*
X00317500D01*
X00314305Y00139598D02*
X00317500D01*
X00314251Y00138698D02*
X00317500D01*
X00314140Y00137798D02*
X00317500D01*
X00313970Y00136898D02*
X00317500D01*
X00313740Y00135998D02*
X00317500D01*
X00313445Y00135098D02*
X00317500D01*
X00313082Y00134198D02*
X00317500D01*
X00312645Y00133298D02*
X00317500D01*
X00312125Y00132398D02*
X00317500D01*
X00311512Y00131498D02*
X00317500D01*
X00310789Y00130598D02*
X00317500D01*
X00309934Y00129698D02*
X00317500D01*
X00308907Y00128798D02*
X00317500D01*
X00307639Y00127898D02*
X00317500D01*
X00305980Y00126998D02*
X00317500D01*
X00303399Y00126098D02*
X00317500D01*
X00229814Y00125198D02*
X00317500D01*
X00122500Y00124298D02*
X00317500D01*
X00122500Y00123398D02*
X00317500D01*
X00275137Y00357398D02*
X00317301D01*
X00299229Y00174698D02*
X00300770D01*
X00299504Y00247598D02*
X00300495D01*
X00281000Y00258398D02*
X00300351D01*
X00299685Y00259298D02*
X00300206D01*
X00299339Y00257498D02*
X00300194D01*
X00299975Y00220598D02*
X00300024D01*
X00253500Y00161198D02*
X00297906D01*
X00284951Y00325898D02*
X00297558D01*
X00281000Y00224198D02*
X00297314D01*
X00281000Y00245798D02*
X00297303D01*
X00288474Y00160298D02*
X00296801D01*
X00292408Y00153998D02*
X00296755D01*
X00292499Y00154898D02*
X00296639D01*
X00231048Y00126098D02*
X00296600D01*
X00276623Y00353798D02*
X00296204D01*
X00290301Y00159398D02*
X00296197D01*
X00292441Y00155798D02*
X00296105D01*
X00291243Y00158498D02*
X00295868D01*
X00292231Y00156698D02*
X00295826D01*
X00292307Y00317798D02*
X00295767D01*
X00291847Y00157598D02*
X00295751D01*
X00292400Y00309698D02*
X00295237D01*
X00292400Y00310598D02*
X00295035D01*
X00292400Y00316898D02*
X00294979D01*
X00281000Y00225098D02*
X00294916D01*
X00281000Y00244898D02*
X00294911D01*
X00292400Y00308798D02*
X00294785D01*
X00292400Y00311498D02*
X00294724D01*
X00292400Y00315998D02*
X00294712D01*
X00292400Y00315098D02*
X00294699D01*
X00292400Y00314198D02*
X00294699D01*
X00292400Y00313298D02*
X00294699D01*
X00292400Y00312398D02*
X00294699D01*
X00292400Y00307898D02*
X00294699D01*
X00292400Y00306998D02*
X00294699D01*
X00292423Y00306098D02*
X00294699D01*
X00293243Y00305198D02*
X00294699D01*
X00284051Y00326798D02*
X00294474D01*
X00292160Y00153098D02*
X00294235D01*
X00284135Y00126998D02*
X00294019D01*
X00276742Y00352898D02*
X00293800D01*
X00281000Y00225998D02*
X00293453D01*
X00281000Y00243998D02*
X00293449D01*
X00281000Y00257498D02*
X00293060D01*
X00281000Y00198098D02*
X00292999D01*
X00281000Y00247598D02*
X00292895D01*
X00280949Y00198998D02*
X00292722D01*
X00283151Y00327698D02*
X00292686D01*
X00281000Y00192698D02*
X00292440D01*
X00281000Y00197198D02*
X00292389D01*
X00281000Y00226898D02*
X00292367D01*
X00281000Y00243098D02*
X00292365D01*
X00284400Y00127898D02*
X00292360D01*
X00276718Y00351998D02*
X00292200D01*
X00281000Y00256598D02*
X00292113D01*
X00281000Y00193598D02*
X00292061D01*
X00281000Y00191798D02*
X00292059D01*
X00281000Y00248498D02*
X00292057D01*
X00281000Y00196298D02*
X00292030D01*
X00281000Y00194498D02*
X00291876D01*
X00281000Y00195398D02*
X00291866D01*
X00281000Y00255698D02*
X00291781D01*
X00280832Y00249398D02*
X00291768D01*
X00281000Y00254798D02*
X00291749D01*
X00281000Y00253898D02*
X00291749D01*
X00281000Y00252998D02*
X00291749D01*
X00281000Y00252098D02*
X00291749D01*
X00280981Y00251198D02*
X00291749D01*
X00280692Y00250298D02*
X00291749D01*
X00280926Y00190898D02*
X00291644D01*
X00281000Y00227798D02*
X00291513D01*
X00281000Y00242198D02*
X00291511D01*
X00282251Y00328598D02*
X00291350D01*
X00284400Y00128798D02*
X00291092D01*
X00276550Y00351098D02*
X00290965D01*
X00280992Y00228698D02*
X00290825D01*
X00280991Y00241298D02*
X00290823D01*
X00259648Y00174698D02*
X00290770D01*
X00280598Y00189998D02*
X00290413D01*
X00280869Y00259298D02*
X00290314D01*
X00281351Y00329498D02*
X00290277D01*
X00280745Y00229598D02*
X00290268D01*
X00280744Y00240398D02*
X00290266D01*
X00281000Y00182798D02*
X00290239D01*
X00280831Y00220598D02*
X00290141D01*
X00284400Y00129698D02*
X00290065D01*
X00281000Y00181898D02*
X00290034D01*
X00260548Y00175598D02*
X00289980D01*
X00276224Y00350198D02*
X00289960D01*
X00280927Y00189098D02*
X00289848D01*
X00280790Y00230498D02*
X00289820D01*
X00280791Y00239498D02*
X00289819D01*
X00281000Y00183698D02*
X00289786D01*
X00280949Y00180998D02*
X00289724D01*
X00261448Y00176498D02*
X00289712D01*
X00281000Y00188198D02*
X00289699D01*
X00281000Y00187298D02*
X00289699D01*
X00281000Y00186398D02*
X00289699D01*
X00281000Y00185498D02*
X00289699D01*
X00281000Y00184598D02*
X00289699D01*
X00280570Y00180098D02*
X00289699D01*
X00279476Y00179198D02*
X00289699D01*
X00263248Y00178298D02*
X00289699D01*
X00262348Y00177398D02*
X00289699D01*
X00280749Y00199898D02*
X00289580D01*
X00280997Y00231398D02*
X00289468D01*
X00280998Y00238598D02*
X00289467D01*
X00280451Y00330398D02*
X00289387D01*
X00280639Y00260198D02*
X00289365D01*
X00284400Y00130598D02*
X00289210D01*
X00281000Y00232298D02*
X00289202D01*
X00281000Y00237698D02*
X00289201D01*
X00280868Y00270098D02*
X00289131D01*
X00275707Y00349298D02*
X00289121D01*
X00280900Y00269198D02*
X00289099D01*
X00280967Y00261098D02*
X00289032D01*
X00281000Y00233198D02*
X00289016D01*
X00281000Y00236798D02*
X00289016D01*
X00281000Y00268298D02*
X00288999D01*
X00281000Y00267398D02*
X00288999D01*
X00281000Y00266498D02*
X00288999D01*
X00281000Y00265598D02*
X00288999D01*
X00281000Y00264698D02*
X00288999D01*
X00281000Y00263798D02*
X00288999D01*
X00281000Y00262898D02*
X00288999D01*
X00281000Y00261998D02*
X00288999D01*
X00281000Y00234098D02*
X00288906D01*
X00281000Y00235898D02*
X00288906D01*
X00281000Y00234998D02*
X00288869D01*
X00253463Y00149498D02*
X00288721D01*
X00279551Y00331298D02*
X00288638D01*
X00253207Y00148598D02*
X00288560D01*
X00284400Y00131498D02*
X00288487D01*
X00274925Y00348398D02*
X00288412D01*
X00278651Y00332198D02*
X00288002D01*
X00252637Y00147698D02*
X00287936D01*
X00284400Y00132398D02*
X00287874D01*
X00273653Y00347498D02*
X00287810D01*
X00277751Y00333098D02*
X00287462D01*
X00251748Y00146798D02*
X00287406D01*
X00284400Y00133298D02*
X00287354D01*
X00228672Y00346598D02*
X00287301D01*
X00276851Y00333998D02*
X00287008D01*
X00250848Y00145898D02*
X00286961D01*
X00284400Y00134198D02*
X00286917D01*
X00229150Y00345698D02*
X00286872D01*
X00275951Y00334898D02*
X00286629D01*
X00249948Y00144998D02*
X00286590D01*
X00284400Y00135098D02*
X00286554D01*
X00240187Y00344798D02*
X00286517D01*
X00274827Y00335798D02*
X00286319D01*
X00249048Y00144098D02*
X00286288D01*
X00284400Y00135998D02*
X00286259D01*
X00241379Y00343898D02*
X00286230D01*
X00241899Y00336698D02*
X00286074D01*
X00248148Y00143198D02*
X00286051D01*
X00284379Y00136898D02*
X00286029D01*
X00242110Y00342998D02*
X00286006D01*
X00242448Y00337598D02*
X00285891D01*
X00247248Y00142298D02*
X00285874D01*
X00283864Y00137798D02*
X00285859D01*
X00242583Y00342098D02*
X00285843D01*
X00242791Y00338498D02*
X00285767D01*
X00246348Y00141398D02*
X00285757D01*
X00243809Y00138698D02*
X00285748D01*
X00242867Y00341198D02*
X00285739D01*
X00242967Y00339398D02*
X00285701D01*
X00245448Y00140498D02*
X00285697D01*
X00244548Y00139598D02*
X00285694D01*
X00242991Y00340298D02*
X00285692D01*
X00253500Y00160298D02*
X00285525D01*
X00253500Y00150398D02*
X00283987D01*
X00253500Y00159398D02*
X00283698D01*
X00253500Y00151298D02*
X00282931D01*
X00253500Y00158498D02*
X00282756D01*
X00253500Y00152198D02*
X00282266D01*
X00253500Y00157598D02*
X00282152D01*
X00253500Y00153098D02*
X00281839D01*
X00253500Y00156698D02*
X00281768D01*
X00253500Y00153998D02*
X00281591D01*
X00253500Y00155798D02*
X00281558D01*
X00253500Y00154898D02*
X00281500D01*
X00269476Y00179198D02*
X00270523D01*
X00256653Y00347498D02*
X00268346D01*
X00257925Y00348398D02*
X00267074D01*
X00258137Y00357398D02*
X00266862D01*
X00258226Y00356498D02*
X00266773D01*
X00258707Y00349298D02*
X00266292D01*
X00241049Y00335798D02*
X00266172D01*
X00258906Y00355598D02*
X00266093D01*
X00259224Y00350198D02*
X00265775D01*
X00259353Y00354698D02*
X00265646D01*
X00259550Y00351098D02*
X00265449D01*
X00259623Y00353798D02*
X00265376D01*
X00259718Y00351998D02*
X00265281D01*
X00259742Y00352898D02*
X00265257D01*
X00239555Y00334898D02*
X00265048D01*
X00229040Y00333998D02*
X00264148D01*
X00254766Y00333098D02*
X00263248D01*
X00257167Y00332198D02*
X00262348D01*
X00258226Y00331298D02*
X00261448D01*
X00258906Y00330398D02*
X00260548D01*
X00228373Y00333098D02*
X00253233D01*
X00226831Y00347498D02*
X00251346D01*
X00207275Y00332198D02*
X00250832D01*
X00239751Y00322298D02*
X00250739D01*
X00191000Y00348398D02*
X00250074D01*
X00238851Y00323198D02*
X00250074D01*
X00122698Y00357398D02*
X00249862D01*
X00122500Y00356498D02*
X00249773D01*
X00207250Y00331298D02*
X00249773D01*
X00191000Y00349298D02*
X00249292D01*
X00237951Y00324098D02*
X00249292D01*
X00189858Y00355598D02*
X00249093D01*
X00207250Y00330398D02*
X00249093D01*
X00191000Y00350198D02*
X00248775D01*
X00237051Y00324998D02*
X00248775D01*
X00190693Y00354698D02*
X00248646D01*
X00219224Y00329498D02*
X00248646D01*
X00191000Y00351098D02*
X00248449D01*
X00236151Y00325898D02*
X00248449D01*
X00190982Y00353798D02*
X00248376D01*
X00220800Y00328598D02*
X00248376D01*
X00191000Y00351998D02*
X00248281D01*
X00235251Y00326798D02*
X00248281D01*
X00191000Y00352898D02*
X00248257D01*
X00233768Y00327698D02*
X00248257D01*
X00231948Y00126998D02*
X00239955D01*
X00238248Y00133298D02*
X00239690D01*
X00237348Y00132398D02*
X00239690D01*
X00236448Y00131498D02*
X00239690D01*
X00235548Y00130598D02*
X00239690D01*
X00234648Y00129698D02*
X00239690D01*
X00233748Y00128798D02*
X00239690D01*
X00232848Y00127898D02*
X00239690D01*
X00229247Y00334898D02*
X00235444D01*
X00229250Y00344798D02*
X00234812D01*
X00229250Y00335798D02*
X00233950D01*
X00229250Y00343898D02*
X00233620D01*
X00229250Y00336698D02*
X00233100D01*
X00229250Y00342998D02*
X00232889D01*
X00229250Y00337598D02*
X00232551D01*
X00229250Y00342098D02*
X00232416D01*
X00229250Y00338498D02*
X00232208D01*
X00229250Y00341198D02*
X00232132D01*
X00229250Y00339398D02*
X00232032D01*
X00229250Y00340298D02*
X00232008D01*
X00213831Y00347498D02*
X00221168D01*
X00215373Y00333098D02*
X00219626D01*
X00215672Y00346598D02*
X00219327D01*
X00216040Y00333998D02*
X00218959D01*
X00216150Y00345698D02*
X00218849D01*
X00216247Y00334898D02*
X00218752D01*
X00216250Y00344798D02*
X00218749D01*
X00216250Y00343898D02*
X00218749D01*
X00216250Y00342998D02*
X00218749D01*
X00216250Y00342098D02*
X00218749D01*
X00216250Y00341198D02*
X00218749D01*
X00216250Y00340298D02*
X00218749D01*
X00216250Y00339398D02*
X00218749D01*
X00216250Y00338498D02*
X00218749D01*
X00216250Y00337598D02*
X00218749D01*
X00216250Y00336698D02*
X00218749D01*
X00216250Y00335798D02*
X00218749D01*
X00191000Y00347498D02*
X00208168D01*
X00191000Y00346598D02*
X00206327D01*
X00190868Y00345698D02*
X00205849D01*
X00190640Y00344798D02*
X00199812D01*
X00190968Y00343898D02*
X00198620D01*
X00191000Y00342998D02*
X00197889D01*
X00191000Y00336698D02*
X00197749D01*
X00190899Y00335798D02*
X00197749D01*
X00190419Y00334898D02*
X00197749D01*
X00179803Y00333998D02*
X00197749D01*
X00179750Y00333098D02*
X00197749D01*
X00179750Y00332198D02*
X00197749D01*
X00179750Y00331298D02*
X00197749D01*
X00179750Y00330398D02*
X00197749D01*
X00191000Y00337598D02*
X00197551D01*
X00191000Y00342098D02*
X00197416D01*
X00191000Y00338498D02*
X00197208D01*
X00191000Y00341198D02*
X00197132D01*
X00191000Y00339398D02*
X00197032D01*
X00191000Y00340298D02*
X00197008D01*
X00179975Y00355598D02*
X00180024D01*
X00122500Y00324998D02*
X00170620D01*
X00142441Y00325898D02*
X00170520D01*
X00122500Y00324098D02*
X00170471D01*
X00145525Y00326798D02*
X00170420D01*
X00147313Y00327698D02*
X00170320D01*
X00152537Y00333098D02*
X00170249D01*
X00151997Y00332198D02*
X00170249D01*
X00151361Y00331298D02*
X00170249D01*
X00150612Y00330398D02*
X00170249D01*
X00149722Y00329498D02*
X00170249D01*
X00148649Y00328598D02*
X00170249D01*
X00152991Y00333998D02*
X00170196D01*
X00169975Y00355598D02*
X00170024D01*
X00122500D02*
X00160141D01*
X00153370Y00334898D02*
X00159580D01*
X00153482Y00344798D02*
X00159359D01*
X00122500Y00354698D02*
X00159306D01*
X00153127Y00345698D02*
X00159131D01*
X00153680Y00335798D02*
X00159100D01*
X00153769Y00343898D02*
X00159031D01*
X00143795Y00353798D02*
X00159017D01*
X00146199Y00352898D02*
X00158999D01*
X00147799Y00351998D02*
X00158999D01*
X00149034Y00351098D02*
X00158999D01*
X00150039Y00350198D02*
X00158999D01*
X00150878Y00349298D02*
X00158999D01*
X00151587Y00348398D02*
X00158999D01*
X00152189Y00347498D02*
X00158999D01*
X00152698Y00346598D02*
X00158999D01*
X00153993Y00342998D02*
X00158999D01*
X00154156Y00342098D02*
X00158999D01*
X00154260Y00341198D02*
X00158999D01*
X00154307Y00340298D02*
X00158999D01*
X00154298Y00339398D02*
X00158999D01*
X00154232Y00338498D02*
X00158999D01*
X00154108Y00337598D02*
X00158999D01*
X00153925Y00336698D02*
X00158999D01*
X00157148Y00315998D02*
X00158999D01*
X00156248Y00315098D02*
X00158999D01*
X00155348Y00314198D02*
X00158999D01*
X00158055Y00316898D02*
X00158801D01*
X00154448Y00313298D02*
X00158348D01*
X00153548Y00312398D02*
X00157448D01*
X00152648Y00311498D02*
X00156548D01*
X00151748Y00310598D02*
X00155648D01*
X00122500Y00125198D02*
X00154999D01*
X00150798Y00309698D02*
X00154748D01*
X00122500Y00323198D02*
X00154471D01*
X00143399Y00126098D02*
X00154000D01*
X00145753Y00308798D02*
X00153848D01*
X00122500Y00322298D02*
X00153548D01*
X00145980Y00126998D02*
X00153151D01*
X00145353Y00307898D02*
X00152948D01*
X00122500Y00321398D02*
X00152648D01*
X00147639Y00127898D02*
X00152251D01*
X00145415Y00306998D02*
X00152048D01*
X00122500Y00320498D02*
X00151748D01*
X00148907Y00128798D02*
X00151400D01*
X00145725Y00306098D02*
X00151148D01*
X00149934Y00129698D02*
X00150912D01*
X00122500Y00319598D02*
X00150848D01*
X00145531Y00163898D02*
X00150699D01*
X00145179Y00162998D02*
X00150699D01*
X00144731Y00162098D02*
X00150699D01*
X00144174Y00161198D02*
X00150699D01*
X00143486Y00160298D02*
X00150699D01*
X00142632Y00159398D02*
X00150699D01*
X00141546Y00158498D02*
X00150699D01*
X00140083Y00157598D02*
X00150699D01*
X00137685Y00156698D02*
X00150699D01*
X00122500Y00155798D02*
X00150699D01*
X00122500Y00154898D02*
X00150699D01*
X00142973Y00153998D02*
X00150699D01*
X00145764Y00153098D02*
X00150699D01*
X00147483Y00152198D02*
X00150699D01*
X00148783Y00151298D02*
X00150699D01*
X00149832Y00150398D02*
X00150566D01*
X00145797Y00164798D02*
X00150251D01*
X00145750Y00305198D02*
X00150248D01*
X00122500Y00318698D02*
X00149948D01*
X00145983Y00165698D02*
X00149351D01*
X00145750Y00304298D02*
X00149348D01*
X00144682Y00317798D02*
X00149048D01*
X00146093Y00166598D02*
X00148451D01*
X00145750Y00303398D02*
X00148448D01*
X00145470Y00316898D02*
X00148148D01*
X00145750Y00302498D02*
X00147739D01*
X00146130Y00167498D02*
X00147551D01*
X00145750Y00301598D02*
X00147392D01*
X00145750Y00300698D02*
X00147299D01*
X00145750Y00299798D02*
X00147299D01*
X00145725Y00298898D02*
X00147299D01*
X00145414Y00297998D02*
X00147299D01*
X00144523Y00297098D02*
X00147299D01*
X00122500Y00296198D02*
X00147299D01*
X00122500Y00295298D02*
X00147299D01*
X00122500Y00294398D02*
X00147299D01*
X00122500Y00293498D02*
X00147299D01*
X00122500Y00292598D02*
X00147299D01*
X00122500Y00291698D02*
X00147299D01*
X00122500Y00290798D02*
X00147299D01*
X00122500Y00289898D02*
X00147299D01*
X00122500Y00288998D02*
X00147299D01*
X00144106Y00288098D02*
X00147299D01*
X00145287Y00287198D02*
X00147299D01*
X00145689Y00286298D02*
X00147299D01*
X00145750Y00285398D02*
X00147299D01*
X00145750Y00284498D02*
X00147299D01*
X00145761Y00283598D02*
X00146848D01*
X00122500Y00325898D02*
X00137558D01*
X00122500Y00153998D02*
X00137026D01*
X00122500Y00126098D02*
X00136600D01*
X00122500Y00353798D02*
X00136204D01*
X00122500Y00288098D02*
X00135893D01*
X00122500Y00218798D02*
X00135798D01*
X00122500Y00297098D02*
X00135476D01*
X00122500Y00317798D02*
X00135317D01*
X00122500Y00243998D02*
X00135249D01*
X00122500Y00243098D02*
X00135249D01*
X00122500Y00242198D02*
X00135249D01*
X00122500Y00241298D02*
X00135249D01*
X00122500Y00240398D02*
X00134873D01*
X00122500Y00244898D02*
X00134783D01*
X00122500Y00219698D02*
X00134766D01*
X00122500Y00307898D02*
X00134646D01*
X00122500Y00297998D02*
X00134585D01*
X00122500Y00306998D02*
X00134584D01*
X00122500Y00316898D02*
X00134529D01*
X00122500Y00326798D02*
X00134474D01*
X00122500Y00308798D02*
X00134291D01*
X00122500Y00298898D02*
X00134274D01*
X00122500Y00306098D02*
X00134274D01*
X00122500Y00315998D02*
X00134262D01*
X00122500Y00229598D02*
X00134254D01*
X00122500Y00315098D02*
X00134249D01*
X00122500Y00314198D02*
X00134249D01*
X00122500Y00313298D02*
X00134249D01*
X00122500Y00312398D02*
X00134249D01*
X00122500Y00311498D02*
X00134249D01*
X00122500Y00310598D02*
X00134249D01*
X00122500Y00309698D02*
X00134249D01*
X00122500Y00305198D02*
X00134249D01*
X00122500Y00304298D02*
X00134249D01*
X00122500Y00303398D02*
X00134249D01*
X00122500Y00302498D02*
X00134249D01*
X00122500Y00301598D02*
X00134249D01*
X00122500Y00300698D02*
X00134249D01*
X00122500Y00299798D02*
X00134249D01*
X00122500Y00153098D02*
X00134235D01*
X00122500Y00230498D02*
X00134209D01*
X00122500Y00239498D02*
X00134208D01*
X00122500Y00220598D02*
X00134168D01*
X00122500Y00126998D02*
X00134019D01*
X00122500Y00228698D02*
X00134007D01*
X00122500Y00231398D02*
X00134002D01*
X00122500Y00238598D02*
X00134001D01*
X00122500Y00237698D02*
X00133999D01*
X00122500Y00236798D02*
X00133999D01*
X00122500Y00235898D02*
X00133999D01*
X00122500Y00234998D02*
X00133999D01*
X00122500Y00234098D02*
X00133999D01*
X00122500Y00233198D02*
X00133999D01*
X00122500Y00232298D02*
X00133999D01*
X00122500Y00227798D02*
X00133999D01*
X00122500Y00226898D02*
X00133999D01*
X00122500Y00225998D02*
X00133999D01*
X00122500Y00225098D02*
X00133999D01*
X00122500Y00224198D02*
X00133999D01*
X00122500Y00223298D02*
X00133999D01*
X00122500Y00222398D02*
X00133999D01*
X00122500Y00221498D02*
X00133999D01*
X00122500Y00245798D02*
X00133883D01*
X00122500Y00352898D02*
X00133800D01*
X00122500Y00287198D02*
X00133203D01*
X00122500Y00246698D02*
X00132983D01*
X00122500Y00327698D02*
X00132686D01*
X00122500Y00152198D02*
X00132516D01*
X00122500Y00127898D02*
X00132360D01*
X00122500Y00156698D02*
X00132314D01*
X00122500Y00351998D02*
X00132200D01*
X00122500Y00247598D02*
X00132083D01*
X00122500Y00178298D02*
X00131706D01*
X00122500Y00201698D02*
X00131494D01*
X00122500Y00328598D02*
X00131350D01*
X00122500Y00151298D02*
X00131216D01*
X00122500Y00248498D02*
X00131183D01*
X00122500Y00217898D02*
X00131172D01*
X00122500Y00128798D02*
X00131092D01*
X00122500Y00286298D02*
X00131048D01*
X00122500Y00351098D02*
X00130965D01*
X00122500Y00202598D02*
X00130572D01*
X00122500Y00209798D02*
X00130545D01*
X00122500Y00179198D02*
X00130523D01*
X00122500Y00200798D02*
X00130517D01*
X00122500Y00216998D02*
X00130284D01*
X00122500Y00249398D02*
X00130283D01*
X00122500Y00329498D02*
X00130277D01*
X00122500Y00210698D02*
X00130230D01*
X00122500Y00150398D02*
X00130167D01*
X00122500Y00285398D02*
X00130082D01*
X00122500Y00129698D02*
X00130065D01*
X00122500Y00203498D02*
X00130065D01*
X00122500Y00208898D02*
X00130064D01*
X00122500Y00216098D02*
X00129974D01*
X00122500Y00211598D02*
X00129962D01*
X00122500Y00350198D02*
X00129960D01*
X00122500Y00215198D02*
X00129949D01*
X00122500Y00214298D02*
X00129949D01*
X00122500Y00213398D02*
X00129949D01*
X00122500Y00212498D02*
X00129949D01*
X00122500Y00207998D02*
X00129949D01*
X00122500Y00207098D02*
X00129949D01*
X00122500Y00206198D02*
X00129949D01*
X00122500Y00205298D02*
X00129949D01*
X00122500Y00204398D02*
X00129949D01*
X00122500Y00157598D02*
X00129916D01*
X00122500Y00177398D02*
X00129911D01*
X00122500Y00250298D02*
X00129525D01*
X00122500Y00180098D02*
X00129429D01*
X00122500Y00199898D02*
X00129427D01*
X00122500Y00189998D02*
X00129401D01*
X00122500Y00284498D02*
X00129400D01*
X00122500Y00330398D02*
X00129387D01*
X00122500Y00149498D02*
X00129295D01*
X00122500Y00130598D02*
X00129210D01*
X00122500Y00349298D02*
X00129121D01*
X00122500Y00190898D02*
X00129073D01*
X00122500Y00189098D02*
X00129072D01*
X00122500Y00251198D02*
X00129065D01*
X00122500Y00180998D02*
X00129050D01*
X00122500Y00198998D02*
X00129050D01*
X00122500Y00198098D02*
X00128999D01*
X00122500Y00197198D02*
X00128999D01*
X00122500Y00196298D02*
X00128999D01*
X00122500Y00195398D02*
X00128999D01*
X00122500Y00194498D02*
X00128999D01*
X00122500Y00193598D02*
X00128999D01*
X00122500Y00192698D02*
X00128999D01*
X00122500Y00191798D02*
X00128999D01*
X00122500Y00188198D02*
X00128999D01*
X00122500Y00187298D02*
X00128999D01*
X00122500Y00186398D02*
X00128999D01*
X00122500Y00185498D02*
X00128999D01*
X00122500Y00184598D02*
X00128999D01*
X00122500Y00183698D02*
X00128999D01*
X00122500Y00182798D02*
X00128999D01*
X00122500Y00181898D02*
X00128999D01*
X00122500Y00283598D02*
X00128992D01*
X00122500Y00252098D02*
X00128818D01*
X00122500Y00282698D02*
X00128787D01*
X00122500Y00281798D02*
X00128749D01*
X00122500Y00280898D02*
X00128749D01*
X00122500Y00279998D02*
X00128749D01*
X00122500Y00279098D02*
X00128749D01*
X00122500Y00278198D02*
X00128749D01*
X00122500Y00277298D02*
X00128749D01*
X00122500Y00276398D02*
X00128749D01*
X00122500Y00275498D02*
X00128749D01*
X00122500Y00274598D02*
X00128749D01*
X00122500Y00273698D02*
X00128749D01*
X00122500Y00272798D02*
X00128749D01*
X00122500Y00271898D02*
X00128749D01*
X00122500Y00270998D02*
X00128749D01*
X00122500Y00270098D02*
X00128749D01*
X00122500Y00269198D02*
X00128749D01*
X00122500Y00268298D02*
X00128749D01*
X00122500Y00267398D02*
X00128749D01*
X00122500Y00266498D02*
X00128749D01*
X00122500Y00265598D02*
X00128749D01*
X00122500Y00264698D02*
X00128749D01*
X00122500Y00263798D02*
X00128749D01*
X00122500Y00262898D02*
X00128749D01*
X00122500Y00261998D02*
X00128749D01*
X00122500Y00261098D02*
X00128749D01*
X00122500Y00260198D02*
X00128749D01*
X00122500Y00259298D02*
X00128749D01*
X00122500Y00258398D02*
X00128749D01*
X00122500Y00257498D02*
X00128749D01*
X00122500Y00256598D02*
X00128749D01*
X00122500Y00255698D02*
X00128749D01*
X00122500Y00254798D02*
X00128749D01*
X00122500Y00253898D02*
X00128749D01*
X00122500Y00252998D02*
X00128749D01*
X00122500Y00331298D02*
X00128638D01*
X00122500Y00148598D02*
X00128560D01*
X00122500Y00131498D02*
X00128487D01*
X00122500Y00158498D02*
X00128453D01*
X00122500Y00176498D02*
X00128449D01*
X00122500Y00348398D02*
X00128412D01*
X00122500Y00332198D02*
X00128002D01*
X00122500Y00147698D02*
X00127936D01*
X00122500Y00132398D02*
X00127874D01*
X00122500Y00347498D02*
X00127810D01*
X00122500Y00333098D02*
X00127462D01*
X00122500Y00146798D02*
X00127406D01*
X00122500Y00159398D02*
X00127367D01*
X00122500Y00175598D02*
X00127365D01*
X00122500Y00133298D02*
X00127354D01*
X00122500Y00346598D02*
X00127301D01*
X00122500Y00333998D02*
X00127008D01*
X00122500Y00145898D02*
X00126961D01*
X00122500Y00134198D02*
X00126917D01*
X00122500Y00345698D02*
X00126872D01*
X00122500Y00334898D02*
X00126629D01*
X00122500Y00144998D02*
X00126590D01*
X00122500Y00135098D02*
X00126554D01*
X00122500Y00344798D02*
X00126517D01*
X00122500Y00160298D02*
X00126513D01*
X00122500Y00174698D02*
X00126511D01*
X00122500Y00335798D02*
X00126319D01*
X00122500Y00144098D02*
X00126288D01*
X00122500Y00135998D02*
X00126259D01*
X00122500Y00343898D02*
X00126230D01*
X00122500Y00336698D02*
X00126074D01*
X00122500Y00143198D02*
X00126051D01*
X00122500Y00136898D02*
X00126029D01*
X00122500Y00342998D02*
X00126006D01*
X00122500Y00337598D02*
X00125891D01*
X00122500Y00142298D02*
X00125874D01*
X00122500Y00137798D02*
X00125859D01*
X00122500Y00342098D02*
X00125843D01*
X00122500Y00161198D02*
X00125825D01*
X00122500Y00173798D02*
X00125823D01*
X00122500Y00338498D02*
X00125767D01*
X00122500Y00141398D02*
X00125757D01*
X00122500Y00138698D02*
X00125748D01*
X00122500Y00341198D02*
X00125739D01*
X00122500Y00339398D02*
X00125701D01*
X00122500Y00140498D02*
X00125697D01*
X00122500Y00139598D02*
X00125694D01*
X00122500Y00340298D02*
X00125692D01*
X00122500Y00162098D02*
X00125268D01*
X00122500Y00172898D02*
X00125266D01*
X00122500Y00162998D02*
X00124820D01*
X00122500Y00171998D02*
X00124819D01*
X00122500Y00163898D02*
X00124468D01*
X00122500Y00171098D02*
X00124467D01*
X00122500Y00164798D02*
X00124202D01*
X00122500Y00170198D02*
X00124201D01*
X00122500Y00165698D02*
X00124016D01*
X00122500Y00169298D02*
X00124016D01*
X00122500Y00166598D02*
X00123906D01*
X00122500Y00168398D02*
X00123906D01*
X00122500Y00167498D02*
X00123869D01*
X00242067Y00149982D02*
X00239728Y00152321D01*
X00242067Y00157417D02*
X00239728Y00155078D01*
X00232932Y00149982D02*
X00235271Y00152321D01*
X00214982Y00187932D02*
X00217321Y00190271D01*
X00222417Y00187932D02*
X00220078Y00190271D01*
X00222417Y00197067D02*
X00220078Y00194728D01*
X00214982Y00197067D02*
X00217321Y00194728D01*
X00205651Y00239848D02*
X00203883Y00241616D01*
X00299567Y00174982D02*
X00297228Y00177321D01*
X00290432Y00182417D02*
X00292771Y00180078D01*
X00290432Y00174982D02*
X00292771Y00177321D01*
X00309567Y00174982D02*
X00307228Y00177321D01*
X00309567Y00182417D02*
X00307228Y00180078D01*
X00300432Y00174982D02*
X00302771Y00177321D01*
X00219482Y00333232D02*
X00222055Y00335805D01*
X00228517Y00333232D02*
X00225944Y00335805D01*
X00228517Y00346767D02*
X00225944Y00344194D01*
X00219482Y00346767D02*
X00222055Y00344194D01*
X00295432Y00317517D02*
X00297771Y00315178D01*
X00295432Y00310082D02*
X00297771Y00312421D01*
X00304567Y00310082D02*
X00302228Y00312421D01*
X00304567Y00317517D02*
X00302228Y00315178D01*
X00292482Y00247932D02*
X00294821Y00250271D01*
X00299917Y00247932D02*
X00297578Y00250271D01*
X00299917Y00257067D02*
X00297578Y00254728D01*
X00292482Y00257067D02*
X00294821Y00254728D01*
G54D35*
X00254000Y00327400D03*
X00271000D03*
Y00352600D03*
X00254000D03*
G54D36*
X00215000Y00177750D02*
Y00172500D01*
Y00177750D02*
X00213363D01*
X00213363D02*
X00212818Y00177500D01*
X00212636Y00177250*
X00212454Y00176750*
X00212454D02*
Y00176000D01*
X00212454D02*
X00212636Y00175500D01*
X00212818Y00175250*
X00213363Y00175000*
X00213363D02*
X00215000D01*
X00210818Y00177750D02*
Y00172500D01*
X00206454Y00176500D02*
X00206636Y00177000D01*
X00206999Y00177500*
X00206999D02*
X00207363Y00177750D01*
X00207363D02*
X00208090D01*
X00208090D02*
X00208454Y00177500D01*
X00208454D02*
X00208818Y00177000D01*
X00208999Y00176500*
X00208999D02*
X00209181Y00175750D01*
X00209181D02*
Y00174500D01*
X00209181D02*
X00208999Y00173750D01*
X00208999D02*
X00208818Y00173250D01*
X00208454Y00172750*
X00208454D02*
X00208090Y00172500D01*
X00208090D02*
X00207363D01*
X00207363D02*
X00206999Y00172750D01*
X00206999D02*
X00206636Y00173250D01*
X00206454Y00173750*
X00204818Y00176750D02*
X00204454Y00177000D01*
X00204454D02*
X00203909Y00177750D01*
Y00172500*
X00200090Y00177000D02*
X00200272Y00177500D01*
X00200272D02*
X00200818Y00177750D01*
X00201181*
X00201181D02*
X00201727Y00177500D01*
X00202090Y00176750*
X00202090D02*
X00202272Y00175500D01*
X00202272D02*
Y00174250D01*
X00202272D02*
X00202090Y00173250D01*
X00202090D02*
X00201727Y00172750D01*
X00201181Y00172500*
X00201181D02*
X00200999D01*
X00200999D02*
X00200454Y00172750D01*
X00200454D02*
X00200090Y00173250D01*
X00200090D02*
X00199909Y00174000D01*
Y00174250*
X00200090Y00175000*
X00200090D02*
X00200454Y00175500D01*
X00200454D02*
X00200999Y00175750D01*
X00200999D02*
X00201181D01*
X00201181D02*
X00201727Y00175500D01*
X00202090Y00175000*
X00202090D02*
X00202272Y00174250D01*
X00198272Y00177750D02*
Y00172500D01*
Y00177750D02*
X00195909D01*
X00198272Y00175250D02*
X00196818D01*
X00193363Y00177750D02*
X00193909Y00177500D01*
X00194090Y00177000*
X00194090D02*
Y00176500D01*
X00194090D02*
X00193909Y00176000D01*
X00193545Y00175750*
X00192818Y00175500*
X00192272Y00175250*
X00192272D02*
X00191909Y00174750D01*
X00191727Y00174250*
Y00173500*
X00191909Y00173000*
X00192090Y00172750*
X00192090D02*
X00192636Y00172500D01*
X00193363*
X00193363D02*
X00193909Y00172750D01*
X00194090Y00173000*
X00194090D02*
X00194272Y00173500D01*
X00194272D02*
Y00174250D01*
X00194272D02*
X00194090Y00174750D01*
X00194090D02*
X00193727Y00175250D01*
X00193181Y00175500*
X00193181D02*
X00192454Y00175750D01*
X00192454D02*
X00192090Y00176000D01*
X00192090D02*
X00191909Y00176500D01*
Y00177000*
X00192090Y00177500*
X00192090D02*
X00192636Y00177750D01*
X00193363*
X00187545D02*
X00189363Y00172500D01*
X00190090Y00177750D02*
X00187545D01*
X00185909Y00176000D02*
X00183909Y00172500D01*
Y00176000D02*
X00185909Y00172500D01*
X00179727Y00177000D02*
X00180090Y00177500D01*
X00180090D02*
X00180636Y00177750D01*
X00181363*
X00181363D02*
X00181909Y00177500D01*
X00182272Y00177000*
X00182272D02*
Y00176500D01*
X00182272D02*
X00182090Y00176000D01*
X00182090D02*
X00181909Y00175750D01*
X00181545Y00175500*
X00180454Y00175000*
X00180454D02*
X00180090Y00174750D01*
X00180090D02*
X00179909Y00174500D01*
X00179727Y00174000*
Y00173250*
X00180090Y00172750*
X00180090D02*
X00180636Y00172500D01*
X00181363*
X00181363D02*
X00181909Y00172750D01*
X00182272Y00173250*
X00176999Y00177750D02*
X00177363Y00177500D01*
X00177363D02*
X00177727Y00177000D01*
X00177909Y00176500*
X00178090Y00175750*
X00178090D02*
Y00174500D01*
X00178090D02*
X00177909Y00173750D01*
X00177727Y00173250*
X00177363Y00172750*
X00177363D02*
X00176999Y00172500D01*
X00176999D02*
X00176272D01*
X00176272D02*
X00175909Y00172750D01*
X00175545Y00173250*
X00175363Y00173750*
X00175363D02*
X00175181Y00174500D01*
X00175181D02*
Y00175750D01*
X00175181D02*
X00175363Y00176500D01*
X00175363D02*
X00175545Y00177000D01*
X00175909Y00177500*
X00176272Y00177750*
X00176272D02*
X00176999D01*
X00173363Y00176500D02*
Y00176750D01*
X00173363D02*
X00173181Y00177250D01*
X00173181D02*
X00172999Y00177500D01*
X00172999D02*
X00172636Y00177750D01*
X00171909*
X00171545Y00177500*
X00171363Y00177250*
X00171363D02*
X00171181Y00176750D01*
X00171181D02*
Y00176250D01*
X00171181D02*
X00171363Y00175750D01*
X00171363D02*
X00171727Y00175000D01*
X00173545Y00172500*
X00170999*
X00168454Y00177750D02*
X00168999Y00177500D01*
X00168999D02*
X00169181Y00177000D01*
X00169181D02*
Y00176500D01*
X00169181D02*
X00168999Y00176000D01*
X00168999D02*
X00168636Y00175750D01*
X00167909Y00175500*
X00167363Y00175250*
X00167363D02*
X00166999Y00174750D01*
X00166999D02*
X00166818Y00174250D01*
Y00173500*
X00166999Y00173000*
X00166999D02*
X00167181Y00172750D01*
X00167181D02*
X00167727Y00172500D01*
X00168454*
X00168454D02*
X00168999Y00172750D01*
X00168999D02*
X00169181Y00173000D01*
X00169181D02*
X00169363Y00173500D01*
X00169363D02*
Y00174250D01*
X00169363D02*
X00169181Y00174750D01*
X00169181D02*
X00168818Y00175250D01*
X00168272Y00175500*
X00168272D02*
X00167545Y00175750D01*
X00167181Y00176000*
X00167181D02*
X00166999Y00176500D01*
X00166999D02*
Y00177000D01*
X00166999D02*
X00167181Y00177500D01*
X00167181D02*
X00167727Y00177750D01*
X00168454*
X00164090D02*
X00164636Y00177500D01*
X00164999Y00176750*
X00164999D02*
X00165181Y00175500D01*
X00165181D02*
Y00174750D01*
X00165181D02*
X00164999Y00173500D01*
X00164999D02*
X00164636Y00172750D01*
X00164090Y00172500*
X00164090D02*
X00163727D01*
X00163181Y00172750*
X00163181D02*
X00162818Y00173500D01*
X00162636Y00174750*
Y00175500*
X00162818Y00176750*
X00163181Y00177500*
X00163181D02*
X00163727Y00177750D01*
X00164090*
X00160999Y00176750D02*
X00160636Y00177000D01*
X00160090Y00177750*
X00160090D02*
Y00172500D01*
X00156999Y00177750D02*
X00158454Y00172500D01*
X00156999Y00177750D02*
X00155545Y00172500D01*
X00157909Y00174250D02*
X00156090D01*
X00281227Y00136250D02*
X00281590Y00135750D01*
X00281590D02*
X00281954Y00135000D01*
X00281954D02*
X00282318Y00134000D01*
X00282500Y00132750*
Y00131750*
X00282318Y00130500*
X00281954Y00129500*
X00281954D02*
X00281590Y00128750D01*
X00281590D02*
X00281227Y00128250D01*
X00277409Y00132750D02*
X00277772Y00133250D01*
X00277772D02*
X00278136Y00133500D01*
X00278681*
X00278681D02*
X00279045Y00133250D01*
X00279409Y00132750*
X00279590Y00132000*
X00279590D02*
Y00131500D01*
X00279590D02*
X00279409Y00130750D01*
X00279045Y00130250*
X00278681Y00130000*
X00278681D02*
X00278136D01*
X00277772Y00130250*
X00277772D02*
X00277409Y00130750D01*
X00275772Y00136250D02*
X00275409Y00135750D01*
X00275045Y00135000*
X00274681Y00134000*
X00274681D02*
X00274499Y00132750D01*
X00274499D02*
Y00131750D01*
X00274499D02*
X00274681Y00130500D01*
X00274681D02*
X00275045Y00129500D01*
X00275409Y00128750*
X00275772Y00128250*
X00272863Y00133500D02*
Y00130000D01*
Y00132500D02*
X00272318Y00133250D01*
X00271954Y00133500*
X00271954D02*
X00271409D01*
X00271045Y00133250*
X00270863Y00132500*
X00270863D02*
Y00130000D01*
Y00132500D02*
X00270318Y00133250D01*
X00269954Y00133500*
X00269954D02*
X00269409D01*
X00269045Y00133250*
X00268863Y00132500*
X00268863D02*
Y00130000D01*
X00267227Y00135250D02*
X00267045Y00135000D01*
X00266863Y00135250*
X00266863D02*
X00267045Y00135500D01*
X00267227Y00135250*
X00267045Y00133500D02*
Y00130000D01*
X00265227Y00135250D02*
Y00130000D01*
Y00132500D02*
X00264681Y00133250D01*
X00264681D02*
X00264318Y00133500D01*
X00263772*
X00263772D02*
X00263409Y00133250D01*
X00263227Y00132500*
Y00130000*
X00260681Y00133500D02*
X00261045Y00133250D01*
X00261409Y00132750*
X00261590Y00132000*
X00261590D02*
Y00131500D01*
X00261590D02*
X00261409Y00130750D01*
X00261045Y00130250*
X00260681Y00130000*
X00260681D02*
X00260136D01*
X00259772Y00130250*
X00259772D02*
X00259409Y00130750D01*
X00259227Y00131500*
Y00132000*
X00259409Y00132750*
X00259772Y00133250*
X00259772D02*
X00260136Y00133500D01*
X00260681*
X00257409Y00134000D02*
Y00134250D01*
X00257227Y00134750*
X00257045Y00135000*
X00256681Y00135250*
X00256681D02*
X00255954D01*
X00255954D02*
X00255590Y00135000D01*
X00255590D02*
X00255409Y00134750D01*
X00255227Y00134250*
Y00133750*
X00255409Y00133250*
X00255772Y00132500*
X00255772D02*
X00257590Y00130000D01*
X00257590D02*
X00255045D01*
X00252318Y00135250D02*
X00252863Y00135000D01*
X00252863D02*
X00253227Y00134250D01*
X00253409Y00133000*
Y00132250*
X00253227Y00131000*
X00252863Y00130250*
X00252863D02*
X00252318Y00130000D01*
X00251954*
X00251954D02*
X00251409Y00130250D01*
X00251045Y00131000*
X00250863Y00132250*
X00250863D02*
Y00133000D01*
X00250863D02*
X00251045Y00134250D01*
X00251409Y00135000*
X00251954Y00135250*
X00251954D02*
X00252318D01*
X00248136D02*
X00248681Y00135000D01*
X00248681D02*
X00249045Y00134250D01*
X00249227Y00133000*
Y00132250*
X00249045Y00131000*
X00248681Y00130250*
X00248681D02*
X00248136Y00130000D01*
X00247772*
X00247772D02*
X00247227Y00130250D01*
X00246863Y00131000*
X00246863D02*
X00246681Y00132250D01*
X00246681D02*
Y00133000D01*
X00246681D02*
X00246863Y00134250D01*
X00246863D02*
X00247227Y00135000D01*
X00247772Y00135250*
X00247772D02*
X00248136D01*
X00243227D02*
X00245045Y00131750D01*
X00242318*
X00243227Y00135250D02*
Y00130000D01*
G54D42*
X00296600Y00195000D03*
X00303400D03*
X00165000D02*
X00175000D01*
Y00185000D02*
X00165000D01*
X00145000*
X00265000D02*
X00275000D01*
X00265000Y00195000D02*
X00275000D01*
X00165000Y00235000D02*
X00140000D01*
Y00246400*
X00133500Y00252900*
Y00282099*
X00133500D02*
X00133900Y00282500D01*
X00140000*
X00165000Y00275000D02*
X00175000D01*
X00165000Y00265000D02*
X00175000D01*
X00165000Y00255000D02*
X00175000D01*
X00165000Y00245000D02*
X00175000D01*
X00165000Y00235000D02*
X00175000D01*
X00165000Y00225000D02*
X00175000D01*
X00165000Y00215000D02*
X00175000D01*
X00165000Y00205000D02*
X00175000D01*
X00265000Y00235000D02*
X00275000D01*
X00265000Y00245000D02*
X00275000D01*
X00265000Y00255000D02*
X00275000D01*
X00265000Y00265000D02*
X00275000D01*
X00295000Y00275000D02*
X00275000D01*
X00265000*
X00295000Y00205000D02*
X00275000D01*
X00295000Y00265000D02*
Y00275000D01*
X00265000Y00205000D02*
X00275000D01*
X00295000Y00215000D02*
X00275000D01*
X00265000*
Y00225000D02*
X00275000D01*
X00175000Y00340000D02*
Y00350000D01*
Y00315000D02*
X00165000D01*
Y00305000D02*
X00175000D01*
X00165000Y00295000D02*
X00175000D01*
X00165000Y00285000D02*
X00175000D01*
X00217700Y00325000D02*
X00202500D01*
Y00340000*
Y00325000D02*
X00175400D01*
X00175000Y00328600*
Y00340000*
X00211000D02*
X00202500D01*
X00295000Y00285000D02*
X00275000D01*
X00265000*
X00295000D02*
Y00295000D01*
X00265000D02*
X00275000D01*
X00265000Y00305000D02*
X00275000D01*
X00265000Y00315000D02*
X00275000D01*
G54D43*
X00211000Y00342250D02*
Y00337750D01*
X00224000Y00342250D02*
Y00337750D01*
G54D44*
X00300000Y00157500D03*
G54D45*
X00140000Y00262500D03*
Y00272500D03*
Y00282500D03*
Y00302500D03*
Y00312500D03*
G54D49*
X00242000Y00287500D02*
X00237000D01*
X00242000Y00282500D02*
X00237000D01*
X00242000Y00277500D02*
X00237000D01*
X00242000Y00272500D02*
X00237000D01*
X00242000Y00267500D02*
X00237000D01*
X00242000Y00262500D02*
X00237000D01*
X00242000Y00257500D02*
X00237000D01*
X00242000Y00252500D02*
X00237000D01*
X00242000Y00247500D02*
X00237000D01*
X00242000Y00242500D02*
X00237000D01*
X00242000Y00237500D02*
X00237000D01*
X00242000Y00232500D02*
X00237000D01*
X00242000Y00227500D02*
X00237000D01*
X00242000Y00222500D02*
X00237000D01*
X00203000D02*
X00198000D01*
X00203000Y00227500D02*
X00198000D01*
X00203000Y00232500D02*
X00198000D01*
X00203000Y00237500D02*
X00198000D01*
X00203000Y00242500D02*
X00198000D01*
X00203000Y00247500D02*
X00198000D01*
X00203000Y00252500D02*
X00198000D01*
X00203000Y00257500D02*
X00198000D01*
X00203000Y00262500D02*
X00198000D01*
X00203000Y00267500D02*
X00198000D01*
X00203000Y00272500D02*
X00198000D01*
X00203000Y00277500D02*
X00198000D01*
X00203000Y00282500D02*
X00198000D01*
X00203000Y00287500D02*
X00198000D01*
G74*
X00000000Y00000000D02*
M02*
