*
*
G04 PADS 9.2 Build Number: 414666 generated Gerber (RS-274-X) file*
G04 PC Version=2.1*
*
%IN "S3AN01A.pcb"*%
*
%MOIN*%
*
%FSLAX35Y35*%
*
*
*
*
G04 PC Standard Apertures*
*
*
G04 Thermal Relief Aperture macro.*
%AMTER*
1,1,$1,0,0*
1,0,$1-$2,0,0*
21,0,$3,$4,0,0,45*
21,0,$3,$4,0,0,135*
%
*
*
G04 Annular Aperture macro.*
%AMANN*
1,1,$1,0,0*
1,0,$2,0,0*
%
*
*
G04 Odd Aperture macro.*
%AMODD*
1,1,$1,0,0*
1,0,$1-0.005,0,0*
%
*
*
G04 PC Custom Aperture Macros*
*
*
*
*
*
*
G04 PC Aperture Table*
*
%ADD011C,0.06*%
%ADD012R,0.07X0.07*%
%ADD024C,0.001*%
%ADD031C,0.07*%
%ADD032R,0.08X0.08*%
%ADD033C,0.24622*%
%ADD041C,0.08*%
%ADD078C,0.113*%
%ADD079C,0.187*%
%ADD080C,0.05331*%
%ADD081C,0.08874*%
%ADD082C,0.13*%
%ADD083C,0.128*%
%ADD084R,0.09X0.09*%
*
*
*
*
G04 PC Circuitry*
G04 Layer Name S3AN01A.pcb - circuitry*
%LPD*%
*
*
G04 PC Custom Flashes*
G04 Layer Name S3AN01A.pcb - flashes*
%LPD*%
*
*
G04 PC Circuitry*
G04 Layer Name S3AN01A.pcb - circuitry*
%LPD*%
*
G54D11*
G01X130000Y540000D03*
X521000Y170000D03*
G54D12*
X405000Y450000D03*
X204000D03*
X122000Y432000D03*
X460000Y182000D03*
G54D24*
G54D31*
X255000Y120000D03*
X265000D03*
X275000D03*
X285000D03*
X295000D03*
X305000D03*
X315000D03*
X325000D03*
X335000D03*
X345000D03*
X355000D03*
X365000D03*
X375000D03*
X385000D03*
X395000D03*
X405000D03*
X415000D03*
X425000D03*
X435000D03*
X445000D03*
X455000D03*
X465000D03*
X245000Y140000D03*
Y130000D03*
X235000Y140000D03*
Y130000D03*
X225000Y140000D03*
Y130000D03*
X215000Y140000D03*
Y130000D03*
X205000Y140000D03*
Y130000D03*
X195000Y140000D03*
Y130000D03*
X185000Y140000D03*
Y130000D03*
X175000Y140000D03*
Y130000D03*
X165000Y140000D03*
Y130000D03*
X155000Y140000D03*
Y130000D03*
X245000Y120000D03*
X235000D03*
X225000D03*
X215000D03*
X205000D03*
X195000D03*
X185000D03*
X175000D03*
X165000D03*
X155000D03*
X351300Y271100D03*
X452600Y244700D03*
Y234700D03*
X442600Y244700D03*
Y234700D03*
X432600Y244700D03*
Y234700D03*
X422600Y244700D03*
Y234700D03*
X412600Y244700D03*
Y234700D03*
X402600Y244700D03*
Y234700D03*
X392600Y244700D03*
Y234700D03*
X382600Y244700D03*
Y234700D03*
X372600Y244700D03*
Y234700D03*
X362600Y244700D03*
Y234700D03*
X352600Y244700D03*
Y234700D03*
X342600Y244700D03*
Y234700D03*
X332600Y244700D03*
Y234700D03*
X322600Y244700D03*
Y234700D03*
X312600Y244700D03*
Y234700D03*
X302600Y244700D03*
Y234700D03*
X292600Y244700D03*
Y234700D03*
X282600Y244700D03*
Y234700D03*
X272600Y244700D03*
Y234700D03*
X262600Y244700D03*
Y234700D03*
X252600Y244700D03*
Y234700D03*
X242600Y244700D03*
Y234700D03*
X465000Y140000D03*
Y130000D03*
X455000Y140000D03*
Y130000D03*
X445000Y140000D03*
Y130000D03*
X435000Y140000D03*
Y130000D03*
X425000Y140000D03*
Y130000D03*
X415000Y140000D03*
Y130000D03*
X405000Y140000D03*
Y130000D03*
X395000Y140000D03*
Y130000D03*
X385000Y140000D03*
Y130000D03*
X375000Y140000D03*
Y130000D03*
X365000Y140000D03*
Y130000D03*
X355000Y140000D03*
Y130000D03*
X345000Y140000D03*
Y130000D03*
X335000Y140000D03*
Y130000D03*
X325000Y140000D03*
Y130000D03*
X315000Y140000D03*
Y130000D03*
X305000Y140000D03*
Y130000D03*
X295000Y140000D03*
Y130000D03*
X285000Y140000D03*
Y130000D03*
X275000Y140000D03*
Y130000D03*
X265000Y140000D03*
Y130000D03*
X255000Y140000D03*
Y130000D03*
X415000Y450000D03*
X425000D03*
X435000D03*
X445000D03*
X455000D03*
Y510000D03*
X445000D03*
X435000D03*
X425000D03*
X415000D03*
X405000D03*
X214000Y450000D03*
X224000D03*
X234000D03*
X244000D03*
X254000D03*
Y510000D03*
X244000D03*
X234000D03*
X224000D03*
X214000D03*
X204000D03*
G54D32*
X531100Y417737D03*
X513500D03*
X535000Y548937D03*
X496000Y417737D03*
X478500D03*
X460800D03*
X443300D03*
X425700D03*
X408000D03*
X451437Y267300D03*
X494000Y581000D03*
X504000D03*
X494000Y571000D03*
X504000D03*
X494000Y561000D03*
X504000D03*
X537000Y161000D03*
Y171000D03*
Y181000D03*
Y191000D03*
Y201000D03*
Y211000D03*
Y221000D03*
Y231000D03*
Y241000D03*
Y251000D03*
X428000Y199000D03*
X438000D03*
X428000Y175000D03*
X438000D03*
X336000D03*
X326000D03*
X336000Y199000D03*
X326000D03*
X270000D03*
X280000D03*
X270000Y175000D03*
X280000D03*
X176000D03*
X166000D03*
X494000Y549000D03*
X504000D03*
X494000Y539000D03*
X504000D03*
X494000Y529000D03*
X504000D03*
X176000Y199000D03*
X166000D03*
X229700Y237400D03*
X219700D03*
X209700D03*
X199700D03*
X189700D03*
X179700D03*
X169700D03*
X159700D03*
X149700D03*
X139700D03*
X391100Y272100D03*
Y262100D03*
X381100Y272100D03*
Y262100D03*
X208000Y350000D03*
Y340000D03*
X198000Y350000D03*
Y340000D03*
X188000Y350000D03*
Y340000D03*
X178000Y350000D03*
Y340000D03*
X168000Y350000D03*
Y340000D03*
X158000Y350000D03*
Y340000D03*
X148000Y350000D03*
Y340000D03*
X138000Y350000D03*
Y340000D03*
X527000Y382800D03*
Y372800D03*
X517000Y382800D03*
Y372800D03*
X507000Y382800D03*
Y372800D03*
X497000Y382800D03*
Y372800D03*
X487000Y382800D03*
Y372800D03*
X477000Y382800D03*
Y372800D03*
X467000Y382800D03*
Y372800D03*
X457000Y382800D03*
Y372800D03*
X136000Y251000D03*
X123000Y173000D03*
X133000D03*
X143000D03*
X153000D03*
X414200Y396500D03*
Y386500D03*
X404200Y396500D03*
Y386500D03*
X394200Y396500D03*
Y386500D03*
X445600Y396000D03*
Y386000D03*
X435600Y396000D03*
Y386000D03*
X425600Y396000D03*
Y386000D03*
X263000Y388000D03*
X253000D03*
X275600Y276200D03*
Y266200D03*
X265600Y276200D03*
Y266200D03*
X255600Y276200D03*
Y266200D03*
X245600Y276200D03*
Y266200D03*
X505000Y145000D03*
Y135000D03*
X495000Y145000D03*
Y135000D03*
X485000Y145000D03*
Y135000D03*
X138000Y371000D03*
X148000D03*
X158000D03*
X168000D03*
X178000D03*
X188000D03*
X198000D03*
X208000D03*
Y401000D03*
X198000D03*
X188000D03*
X178000D03*
X168000D03*
X158000D03*
X148000D03*
X138000D03*
G54D33*
X130000Y570000D03*
X530000D03*
Y130000D03*
X130000D03*
G54D41*
X531100Y407863D03*
X513500D03*
X535000Y539063D03*
X496000Y407863D03*
X478500D03*
X460800D03*
X443300D03*
X425700D03*
X408000D03*
X441563Y267300D03*
X190969Y534000D03*
X199984D03*
X209000D03*
X218016D03*
X227031D03*
X186461Y544000D03*
X195476D03*
X204492D03*
X213508D03*
X222524D03*
X190969Y554000D03*
X199984D03*
X209000D03*
X218016D03*
X227031D03*
X146000Y251000D03*
X166000D03*
X186000D03*
X196000D03*
X216000D03*
X300882Y555189D03*
X311118D03*
X292614D03*
X319386D03*
X292614Y545346D03*
X319386D03*
X367882Y555189D03*
X378118D03*
X359614D03*
X386386D03*
X359614Y545346D03*
X386386D03*
G54D78*
X481900Y578300D03*
X426900D03*
G54D79*
X258213Y544000D03*
X159787D03*
G54D80*
X493269Y345000D03*
X489331Y340000D03*
Y335000D03*
X493269Y330000D03*
X489331Y325000D03*
Y320000D03*
X493269Y315000D03*
X246031Y322600D03*
X249969Y327600D03*
Y332600D03*
X246031Y337600D03*
X249969Y342600D03*
Y347600D03*
X246031Y352600D03*
G54D81*
X491300Y304488D03*
Y355512D03*
X248000Y363112D03*
Y312088D03*
G54D82*
X332575Y567000D03*
X279425D03*
X399575D03*
X346425D03*
G54D83*
X306000Y570150D03*
X373000D03*
G54D84*
X226800Y299300D03*
X209800D03*
Y274100D03*
X226800D03*
X200800Y299300D03*
X183800D03*
Y274100D03*
X200800D03*
X174800Y299300D03*
X157800D03*
Y274100D03*
X174800D03*
X148800Y299300D03*
X131800D03*
Y274100D03*
X148800D03*
X0Y0D02*
M02*
