G04 #@! TF.GenerationSoftware,KiCad,Pcbnew,(6.0.0-rc1-dev-1606-g4cd41e394)*
G04 #@! TF.CreationDate,2019-02-20T17:22:23+01:00
G04 #@! TF.ProjectId,WINDGAUGE03A_PCB01A,57494e44-4741-4554-9745-3033415f5043,rev?*
G04 #@! TF.SameCoordinates,Original*
G04 #@! TF.FileFunction,Copper,L2,Bot*
G04 #@! TF.FilePolarity,Positive*
%FSLAX46Y46*%
G04 Gerber Fmt 4.6, Leading zero omitted, Abs format (unit mm)*
G04 Created by KiCad (PCBNEW (6.0.0-rc1-dev-1606-g4cd41e394)) date 20.02.2019 17:22:23*
%MOMM*%
%LPD*%
G04 APERTURE LIST*
%ADD10C,0.800000*%
%ADD11C,0.200000*%
%ADD12C,0.300000*%
%ADD13C,0.250000*%
%ADD14C,0.500000*%
%ADD15C,0.254000*%
G04 APERTURE END LIST*
D10*
X29306000Y12610000D03*
X30830000Y12610000D03*
X32100000Y12610000D03*
X35148000Y4482000D03*
X35148000Y5752000D03*
X32608000Y4228000D03*
X33116000Y11340000D03*
X34386000Y11340000D03*
X35402000Y11340000D03*
X32587958Y5731958D03*
X18200000Y9954000D03*
X22100000Y700000D03*
X23500000Y700000D03*
X25000000Y700000D03*
X25900000Y5100000D03*
X25200000Y7900000D03*
X24300000Y8175001D03*
X23887348Y9087348D03*
X17200000Y6300000D03*
X15100000Y6200000D03*
X10700000Y8200000D03*
X1400000Y1900000D03*
X2700000Y1900000D03*
X4200000Y1900000D03*
X5600000Y1900000D03*
X1100000Y10700000D03*
X6000225Y12121765D03*
X13275290Y10800000D03*
X16000000Y3983020D03*
X26900000Y1700000D03*
X17800000Y2000000D03*
X11901041Y1998959D03*
X15100000Y2030002D03*
X4300000Y13200000D03*
X15300000Y12100000D03*
X16100000Y900000D03*
X26332500Y11108132D03*
X9500000Y800000D03*
X11300000Y4900000D03*
X9800000Y9400000D03*
X20000000Y8100000D03*
X22040000Y12950010D03*
X9200000Y13324999D03*
X23229554Y6400012D03*
X20800000Y3600000D03*
X29200000Y4500000D03*
X26400000Y6700000D03*
X29200000Y5800000D03*
X25498926Y10298462D03*
X18700000Y12610000D03*
X23626000Y11950000D03*
X2000000Y12000000D03*
X26399997Y8100003D03*
X26300000Y9400000D03*
X7100000Y11999999D03*
X12300000Y10300000D03*
X23400000Y5000000D03*
X12156910Y9143271D03*
X24629565Y6150486D03*
D11*
X29306000Y12610000D02*
X30830000Y12610000D01*
X32608000Y5711916D02*
X32587958Y5731958D01*
D12*
X22100000Y700000D02*
X23500000Y700000D01*
D11*
X25400000Y7700000D02*
X25200000Y7900000D01*
X25900000Y5100000D02*
X25400000Y5600000D01*
X25400000Y5600000D02*
X25400000Y7700000D01*
D13*
X24300000Y8175001D02*
X24300000Y8674696D01*
X24300000Y8674696D02*
X23887348Y9087348D01*
X17200000Y6300000D02*
X15200000Y6300000D01*
X15200000Y6300000D02*
X15100000Y6200000D01*
D12*
X10700000Y8200000D02*
X10700000Y7100000D01*
X10700000Y7100000D02*
X13700000Y4100000D01*
X13700000Y4100000D02*
X16000000Y4100000D01*
X16000000Y4100000D02*
X16100000Y4200000D01*
X13000311Y11074979D02*
X8574979Y11074979D01*
X13275290Y10800000D02*
X13000311Y11074979D01*
X8200000Y10700000D02*
X8200000Y10500000D01*
X8574979Y11074979D02*
X8200000Y10700000D01*
X8200000Y10500000D02*
X7700000Y10000000D01*
X1800000Y10000000D02*
X1100000Y10700000D01*
X7700000Y10000000D02*
X1800000Y10000000D01*
X25500001Y4700001D02*
X25300001Y4700001D01*
X25900000Y5100000D02*
X25500001Y4700001D01*
X20335118Y4233010D02*
X20502108Y4400000D01*
X16625890Y4233010D02*
X20335118Y4233010D01*
X16000000Y3983020D02*
X16375900Y3983020D01*
X16375900Y3983020D02*
X16625890Y4233010D01*
X22889998Y4400000D02*
X23289998Y4000000D01*
X20502108Y4400000D02*
X22889998Y4400000D01*
X24800000Y4000000D02*
X25900000Y5100000D01*
X23289998Y4000000D02*
X24800000Y4000000D01*
D14*
X26900000Y1700000D02*
X18100000Y1700000D01*
X18100000Y1700000D02*
X17800000Y2000000D01*
X15068957Y1998959D02*
X15100000Y2030002D01*
X11901041Y1998959D02*
X15068957Y1998959D01*
D12*
X22608174Y11700000D02*
X23200042Y11108132D01*
X23200042Y11108132D02*
X25766815Y11108132D01*
X15300000Y12100000D02*
X15699999Y11700001D01*
X15699999Y11700001D02*
X22608174Y11700000D01*
X25766815Y11108132D02*
X26332500Y11108132D01*
X14900001Y12499999D02*
X15300000Y12100000D01*
X8914998Y12499999D02*
X14900001Y12499999D01*
X8214997Y13200000D02*
X8914998Y12499999D01*
X4300000Y13200000D02*
X8214997Y13200000D01*
D14*
X26332500Y11108132D02*
X26898185Y11108132D01*
X30050001Y7956316D02*
X30050001Y4091999D01*
X26898185Y11108132D02*
X30050001Y7956316D01*
X28808003Y2850001D02*
X21308003Y2850001D01*
X21308003Y2850001D02*
X21208001Y2749999D01*
X16100000Y1465685D02*
X16100000Y900000D01*
X21208001Y2749999D02*
X20391999Y2749999D01*
X20291997Y2850001D02*
X17391999Y2850001D01*
X16100000Y1558002D02*
X16100000Y1465685D01*
X20391999Y2749999D02*
X20291997Y2850001D01*
X17391999Y2850001D02*
X16100000Y1558002D01*
X30050001Y4091999D02*
X28808003Y2850001D01*
D12*
X9235002Y13360001D02*
X9200000Y13324999D01*
X22040000Y12950010D02*
X21630009Y13360001D01*
X21630009Y13360001D02*
X9235002Y13360001D01*
X9800000Y8834315D02*
X9800000Y9400000D01*
X9800000Y6965685D02*
X9800000Y8834315D01*
X11300000Y5465685D02*
X9800000Y6965685D01*
X11300000Y4900000D02*
X11300000Y5465685D01*
X20000000Y8100000D02*
X21529566Y8100000D01*
X22829555Y6800011D02*
X23229554Y6400012D01*
X21529566Y8100000D02*
X22829555Y6800011D01*
D14*
X9500000Y800000D02*
X11300000Y2600000D01*
X11300000Y2600000D02*
X11300000Y4900000D01*
D12*
X15900000Y2800000D02*
X16700000Y3600000D01*
X20234315Y3600000D02*
X20800000Y3600000D01*
X11500000Y2800000D02*
X15900000Y2800000D01*
X16700000Y3600000D02*
X20234315Y3600000D01*
X11300000Y2600000D02*
X11500000Y2800000D01*
D13*
X26799999Y6300001D02*
X26400000Y6700000D01*
X28600000Y4500000D02*
X26799999Y6300001D01*
X29200000Y4500000D02*
X28600000Y4500000D01*
X26634412Y10383122D02*
X25583586Y10383122D01*
X25583586Y10383122D02*
X25498926Y10298462D01*
X29200000Y7817534D02*
X26634412Y10383122D01*
X29200000Y5800000D02*
X29200000Y7817534D01*
D12*
X18700000Y12610000D02*
X19109990Y12200010D01*
X19109990Y12200010D02*
X22399990Y12200010D01*
X22399990Y12200010D02*
X23375990Y12200010D01*
X23375990Y12200010D02*
X23626000Y11950000D01*
D13*
X25999998Y8500002D02*
X26399997Y8100003D01*
X25100000Y8900001D02*
X25599999Y8900001D01*
X22900000Y10100000D02*
X23900001Y10100000D01*
X22320999Y10679001D02*
X22900000Y10100000D01*
X14847139Y10679001D02*
X22320999Y10679001D01*
X2000000Y12000000D02*
X2000000Y11434315D01*
X23900001Y10100000D02*
X25100000Y8900001D01*
X2000000Y11434315D02*
X2159317Y11274998D01*
X2159317Y11274998D02*
X7774998Y11274998D01*
X7774998Y11274998D02*
X8049989Y11549989D01*
X25599999Y8900001D02*
X25999998Y8500002D01*
X8049989Y11549989D02*
X13976151Y11549989D01*
X13976151Y11549989D02*
X14847139Y10679001D01*
X26300000Y9400000D02*
X25324386Y9400000D01*
X25324386Y9400000D02*
X24124386Y10600000D01*
X24124386Y10600000D02*
X23036410Y10600000D01*
X15012539Y11150011D02*
X14162551Y11999999D01*
X7665685Y11999999D02*
X7100000Y11999999D01*
X14162551Y11999999D02*
X7665685Y11999999D01*
X22486399Y11150011D02*
X15012539Y11150011D01*
X23036410Y10600000D02*
X22486399Y11150011D01*
D11*
X20465698Y5000000D02*
X23400000Y5000000D01*
X20148718Y4683020D02*
X20465698Y5000000D01*
X13951281Y4683020D02*
X20148718Y4683020D01*
X11456909Y7177392D02*
X13951281Y4683020D01*
X12300000Y10300000D02*
X11456909Y9456909D01*
X11456909Y9456909D02*
X11456909Y7177392D01*
X14100000Y5100000D02*
X12156910Y7043090D01*
X12156910Y7043090D02*
X12156910Y9143271D01*
X19600000Y5100000D02*
X14100000Y5100000D01*
X19600000Y5100000D02*
X20000000Y5100000D01*
X20000000Y5100000D02*
X20600002Y5700002D01*
X24229566Y5750487D02*
X24629565Y6150486D01*
X20600002Y5700002D02*
X24179081Y5700002D01*
X24179081Y5700002D02*
X24229566Y5750487D01*
D15*
G36*
X35498001Y502000D02*
G01*
X16828688Y502000D01*
X16832877Y508269D01*
X16895218Y658773D01*
X16927000Y818548D01*
X16927000Y981452D01*
X16895218Y1141227D01*
X16832877Y1291731D01*
X16816164Y1316744D01*
X17083372Y1583951D01*
X17157628Y1472819D01*
X17272819Y1357628D01*
X17408269Y1267123D01*
X17558773Y1204782D01*
X17661056Y1184436D01*
X17722059Y1134372D01*
X17839670Y1071508D01*
X17967285Y1032796D01*
X18066748Y1023000D01*
X18066757Y1023000D01*
X18099999Y1019726D01*
X18133241Y1023000D01*
X26424643Y1023000D01*
X26508269Y967123D01*
X26658773Y904782D01*
X26818548Y873000D01*
X26981452Y873000D01*
X27141227Y904782D01*
X27291731Y967123D01*
X27427181Y1057628D01*
X27542372Y1172819D01*
X27632877Y1308269D01*
X27695218Y1458773D01*
X27727000Y1618548D01*
X27727000Y1781452D01*
X27695218Y1941227D01*
X27632877Y2091731D01*
X27578574Y2173001D01*
X28774758Y2173001D01*
X28808003Y2169727D01*
X28841248Y2173001D01*
X28841255Y2173001D01*
X28940718Y2182797D01*
X29068333Y2221509D01*
X29185944Y2284373D01*
X29289030Y2368974D01*
X29310229Y2394805D01*
X30505197Y3589773D01*
X30531028Y3610972D01*
X30615629Y3714058D01*
X30678493Y3831669D01*
X30717205Y3959284D01*
X30727001Y4058747D01*
X30727001Y4058756D01*
X30730275Y4091998D01*
X30727001Y4125240D01*
X30727001Y7923071D01*
X30730275Y7956316D01*
X30727001Y7989561D01*
X30727001Y7989568D01*
X30717205Y8089031D01*
X30678493Y8216646D01*
X30615629Y8334257D01*
X30606541Y8345331D01*
X30552225Y8411515D01*
X30552219Y8411521D01*
X30531027Y8437343D01*
X30505207Y8458533D01*
X27400411Y11563328D01*
X27379212Y11589159D01*
X27276126Y11673760D01*
X27158515Y11736624D01*
X27030900Y11775336D01*
X26931437Y11785132D01*
X26931430Y11785132D01*
X26898185Y11788406D01*
X26864940Y11785132D01*
X26807857Y11785132D01*
X26724231Y11841009D01*
X26573727Y11903350D01*
X26413952Y11935132D01*
X26251048Y11935132D01*
X26091273Y11903350D01*
X25940769Y11841009D01*
X25805319Y11750504D01*
X25739947Y11685132D01*
X24411426Y11685132D01*
X24421218Y11708773D01*
X24453000Y11868548D01*
X24453000Y12031452D01*
X24421218Y12191227D01*
X24358877Y12341731D01*
X24268372Y12477181D01*
X24153181Y12592372D01*
X24017731Y12682877D01*
X23867227Y12745218D01*
X23707452Y12777000D01*
X23544548Y12777000D01*
X23494457Y12767036D01*
X23489101Y12768661D01*
X23434035Y12774084D01*
X23404326Y12777010D01*
X23404321Y12777010D01*
X23375990Y12779800D01*
X23347659Y12777010D01*
X22848790Y12777010D01*
X22867000Y12868558D01*
X22867000Y13031462D01*
X22835218Y13191237D01*
X22772877Y13341741D01*
X22682372Y13477191D01*
X22661563Y13498000D01*
X35498000Y13498000D01*
X35498001Y502000D01*
X35498001Y502000D01*
G37*
X35498001Y502000D02*
X16828688Y502000D01*
X16832877Y508269D01*
X16895218Y658773D01*
X16927000Y818548D01*
X16927000Y981452D01*
X16895218Y1141227D01*
X16832877Y1291731D01*
X16816164Y1316744D01*
X17083372Y1583951D01*
X17157628Y1472819D01*
X17272819Y1357628D01*
X17408269Y1267123D01*
X17558773Y1204782D01*
X17661056Y1184436D01*
X17722059Y1134372D01*
X17839670Y1071508D01*
X17967285Y1032796D01*
X18066748Y1023000D01*
X18066757Y1023000D01*
X18099999Y1019726D01*
X18133241Y1023000D01*
X26424643Y1023000D01*
X26508269Y967123D01*
X26658773Y904782D01*
X26818548Y873000D01*
X26981452Y873000D01*
X27141227Y904782D01*
X27291731Y967123D01*
X27427181Y1057628D01*
X27542372Y1172819D01*
X27632877Y1308269D01*
X27695218Y1458773D01*
X27727000Y1618548D01*
X27727000Y1781452D01*
X27695218Y1941227D01*
X27632877Y2091731D01*
X27578574Y2173001D01*
X28774758Y2173001D01*
X28808003Y2169727D01*
X28841248Y2173001D01*
X28841255Y2173001D01*
X28940718Y2182797D01*
X29068333Y2221509D01*
X29185944Y2284373D01*
X29289030Y2368974D01*
X29310229Y2394805D01*
X30505197Y3589773D01*
X30531028Y3610972D01*
X30615629Y3714058D01*
X30678493Y3831669D01*
X30717205Y3959284D01*
X30727001Y4058747D01*
X30727001Y4058756D01*
X30730275Y4091998D01*
X30727001Y4125240D01*
X30727001Y7923071D01*
X30730275Y7956316D01*
X30727001Y7989561D01*
X30727001Y7989568D01*
X30717205Y8089031D01*
X30678493Y8216646D01*
X30615629Y8334257D01*
X30606541Y8345331D01*
X30552225Y8411515D01*
X30552219Y8411521D01*
X30531027Y8437343D01*
X30505207Y8458533D01*
X27400411Y11563328D01*
X27379212Y11589159D01*
X27276126Y11673760D01*
X27158515Y11736624D01*
X27030900Y11775336D01*
X26931437Y11785132D01*
X26931430Y11785132D01*
X26898185Y11788406D01*
X26864940Y11785132D01*
X26807857Y11785132D01*
X26724231Y11841009D01*
X26573727Y11903350D01*
X26413952Y11935132D01*
X26251048Y11935132D01*
X26091273Y11903350D01*
X25940769Y11841009D01*
X25805319Y11750504D01*
X25739947Y11685132D01*
X24411426Y11685132D01*
X24421218Y11708773D01*
X24453000Y11868548D01*
X24453000Y12031452D01*
X24421218Y12191227D01*
X24358877Y12341731D01*
X24268372Y12477181D01*
X24153181Y12592372D01*
X24017731Y12682877D01*
X23867227Y12745218D01*
X23707452Y12777000D01*
X23544548Y12777000D01*
X23494457Y12767036D01*
X23489101Y12768661D01*
X23434035Y12774084D01*
X23404326Y12777010D01*
X23404321Y12777010D01*
X23375990Y12779800D01*
X23347659Y12777010D01*
X22848790Y12777010D01*
X22867000Y12868558D01*
X22867000Y13031462D01*
X22835218Y13191237D01*
X22772877Y13341741D01*
X22682372Y13477191D01*
X22661563Y13498000D01*
X35498000Y13498000D01*
X35498001Y502000D01*
G36*
X3504782Y13441227D02*
G01*
X3473000Y13281452D01*
X3473000Y13118548D01*
X3504782Y12958773D01*
X3567123Y12808269D01*
X3657628Y12672819D01*
X3772819Y12557628D01*
X3908269Y12467123D01*
X4058773Y12404782D01*
X4218548Y12373000D01*
X4381452Y12373000D01*
X4541227Y12404782D01*
X4691731Y12467123D01*
X4827181Y12557628D01*
X4892553Y12623000D01*
X6553448Y12623000D01*
X6457628Y12527180D01*
X6367123Y12391730D01*
X6304782Y12241226D01*
X6273000Y12081451D01*
X6273000Y11918547D01*
X6291211Y11826998D01*
X2808789Y11826998D01*
X2827000Y11918548D01*
X2827000Y12081452D01*
X2795218Y12241227D01*
X2732877Y12391731D01*
X2642372Y12527181D01*
X2527181Y12642372D01*
X2391731Y12732877D01*
X2241227Y12795218D01*
X2081452Y12827000D01*
X1918548Y12827000D01*
X1758773Y12795218D01*
X1608269Y12732877D01*
X1472819Y12642372D01*
X1357628Y12527181D01*
X1267123Y12391731D01*
X1204782Y12241227D01*
X1173000Y12081452D01*
X1173000Y11918548D01*
X1204782Y11758773D01*
X1267123Y11608269D01*
X1357628Y11472819D01*
X1450705Y11379742D01*
X1455988Y11326104D01*
X1473881Y11267122D01*
X1487552Y11222053D01*
X1531308Y11140192D01*
X1538810Y11126157D01*
X1607790Y11042104D01*
X1628851Y11024820D01*
X1749820Y10903850D01*
X1767106Y10882787D01*
X1851159Y10813807D01*
X1947054Y10762550D01*
X2051106Y10730986D01*
X2132208Y10722998D01*
X2132218Y10722998D01*
X2159316Y10720329D01*
X2186414Y10722998D01*
X7747892Y10722998D01*
X7774998Y10720328D01*
X7802104Y10722998D01*
X7802107Y10722998D01*
X7883209Y10730986D01*
X7987261Y10762550D01*
X8083156Y10813807D01*
X8167209Y10882787D01*
X8184499Y10903855D01*
X8278633Y10997989D01*
X11856056Y10997989D01*
X11772819Y10942372D01*
X11657628Y10827181D01*
X11567123Y10691731D01*
X11504782Y10541227D01*
X11473000Y10381452D01*
X11473000Y10218548D01*
X11473043Y10218333D01*
X11102575Y9847864D01*
X11082461Y9831357D01*
X11016605Y9751111D01*
X10984213Y9690509D01*
X10967670Y9659558D01*
X10937535Y9560218D01*
X10927360Y9456909D01*
X10929909Y9431028D01*
X10929910Y7203282D01*
X10927360Y7177392D01*
X10937535Y7074083D01*
X10967670Y6974743D01*
X11016605Y6883191D01*
X11016606Y6883190D01*
X11082462Y6802944D01*
X11102571Y6786441D01*
X13560335Y4328675D01*
X13576833Y4308572D01*
X13657079Y4242716D01*
X13748631Y4193781D01*
X13803950Y4177000D01*
X13847971Y4163646D01*
X13951281Y4153471D01*
X13977162Y4156020D01*
X16545251Y4156020D01*
X16536849Y4153471D01*
X16478124Y4135657D01*
X16377885Y4082079D01*
X16290026Y4009974D01*
X16271961Y3987962D01*
X15660999Y3377000D01*
X11977000Y3377000D01*
X11977000Y4424643D01*
X12032877Y4508269D01*
X12095218Y4658773D01*
X12127000Y4818548D01*
X12127000Y4981452D01*
X12095218Y5141227D01*
X12032877Y5291731D01*
X11942372Y5427181D01*
X11877160Y5492393D01*
X11877000Y5494015D01*
X11877000Y5494021D01*
X11868650Y5578797D01*
X11835657Y5687561D01*
X11782079Y5787800D01*
X11709974Y5875659D01*
X11687962Y5893724D01*
X10377000Y7204686D01*
X10377000Y8807447D01*
X10442372Y8872819D01*
X10532877Y9008269D01*
X10595218Y9158773D01*
X10627000Y9318548D01*
X10627000Y9481452D01*
X10595218Y9641227D01*
X10532877Y9791731D01*
X10442372Y9927181D01*
X10327181Y10042372D01*
X10191731Y10132877D01*
X10041227Y10195218D01*
X9881452Y10227000D01*
X9718548Y10227000D01*
X9558773Y10195218D01*
X9408269Y10132877D01*
X9272819Y10042372D01*
X9157628Y9927181D01*
X9067123Y9791731D01*
X9020257Y9678588D01*
X8945309Y9753536D01*
X8818048Y9838569D01*
X8676643Y9897141D01*
X8526528Y9927000D01*
X8373472Y9927000D01*
X8223357Y9897141D01*
X8081952Y9838569D01*
X7954691Y9753536D01*
X7846464Y9645309D01*
X7761431Y9518048D01*
X7702859Y9376643D01*
X7673000Y9226528D01*
X7673000Y9073472D01*
X7702859Y8923357D01*
X7761431Y8781952D01*
X7846464Y8654691D01*
X7954691Y8546464D01*
X8081952Y8461431D01*
X8223357Y8402859D01*
X8373472Y8373000D01*
X8526528Y8373000D01*
X8676643Y8402859D01*
X8818048Y8461431D01*
X8945309Y8546464D01*
X9053536Y8654691D01*
X9138569Y8781952D01*
X9170766Y8859681D01*
X9223000Y8807447D01*
X9223000Y8805980D01*
X9223001Y8805970D01*
X9223000Y6994016D01*
X9220210Y6965685D01*
X9223000Y6937354D01*
X9223000Y6937350D01*
X9225334Y6913657D01*
X9231349Y6852574D01*
X9249803Y6791743D01*
X9264343Y6743810D01*
X9317921Y6643571D01*
X9390026Y6555711D01*
X9412038Y6537646D01*
X10603504Y5346180D01*
X10567123Y5291731D01*
X10504782Y5141227D01*
X10473000Y4981452D01*
X10473000Y4818548D01*
X10504782Y4658773D01*
X10567123Y4508269D01*
X10623001Y4424642D01*
X10623000Y2880422D01*
X9357418Y1614840D01*
X9258773Y1595218D01*
X9108269Y1532877D01*
X8972819Y1442372D01*
X8857628Y1327181D01*
X8767123Y1191731D01*
X8704782Y1041227D01*
X8673000Y881452D01*
X8673000Y718548D01*
X8704782Y558773D01*
X8728298Y502000D01*
X502000Y502000D01*
X502000Y4421236D01*
X546464Y4354691D01*
X654691Y4246464D01*
X781952Y4161431D01*
X923357Y4102859D01*
X1073472Y4073000D01*
X1226528Y4073000D01*
X1376643Y4102859D01*
X1518048Y4161431D01*
X1645309Y4246464D01*
X1753536Y4354691D01*
X1838569Y4481952D01*
X1897141Y4623357D01*
X1927000Y4773472D01*
X1927000Y4926528D01*
X1897141Y5076643D01*
X1838569Y5218048D01*
X1753536Y5345309D01*
X1645309Y5453536D01*
X1518048Y5538569D01*
X1376643Y5597141D01*
X1226528Y5627000D01*
X1073472Y5627000D01*
X923357Y5597141D01*
X781952Y5538569D01*
X654691Y5453536D01*
X546464Y5345309D01*
X502000Y5278764D01*
X502000Y8721236D01*
X546464Y8654691D01*
X654691Y8546464D01*
X781952Y8461431D01*
X923357Y8402859D01*
X1073472Y8373000D01*
X1226528Y8373000D01*
X1376643Y8402859D01*
X1518048Y8461431D01*
X1645309Y8546464D01*
X1753536Y8654691D01*
X1838569Y8781952D01*
X1897141Y8923357D01*
X1927000Y9073472D01*
X1927000Y9226528D01*
X1897141Y9376643D01*
X1838569Y9518048D01*
X1753536Y9645309D01*
X1645309Y9753536D01*
X1518048Y9838569D01*
X1376643Y9897141D01*
X1226528Y9927000D01*
X1073472Y9927000D01*
X923357Y9897141D01*
X781952Y9838569D01*
X654691Y9753536D01*
X546464Y9645309D01*
X502000Y9578764D01*
X502000Y13498000D01*
X3528298Y13498000D01*
X3504782Y13441227D01*
X3504782Y13441227D01*
G37*
X3504782Y13441227D02*
X3473000Y13281452D01*
X3473000Y13118548D01*
X3504782Y12958773D01*
X3567123Y12808269D01*
X3657628Y12672819D01*
X3772819Y12557628D01*
X3908269Y12467123D01*
X4058773Y12404782D01*
X4218548Y12373000D01*
X4381452Y12373000D01*
X4541227Y12404782D01*
X4691731Y12467123D01*
X4827181Y12557628D01*
X4892553Y12623000D01*
X6553448Y12623000D01*
X6457628Y12527180D01*
X6367123Y12391730D01*
X6304782Y12241226D01*
X6273000Y12081451D01*
X6273000Y11918547D01*
X6291211Y11826998D01*
X2808789Y11826998D01*
X2827000Y11918548D01*
X2827000Y12081452D01*
X2795218Y12241227D01*
X2732877Y12391731D01*
X2642372Y12527181D01*
X2527181Y12642372D01*
X2391731Y12732877D01*
X2241227Y12795218D01*
X2081452Y12827000D01*
X1918548Y12827000D01*
X1758773Y12795218D01*
X1608269Y12732877D01*
X1472819Y12642372D01*
X1357628Y12527181D01*
X1267123Y12391731D01*
X1204782Y12241227D01*
X1173000Y12081452D01*
X1173000Y11918548D01*
X1204782Y11758773D01*
X1267123Y11608269D01*
X1357628Y11472819D01*
X1450705Y11379742D01*
X1455988Y11326104D01*
X1473881Y11267122D01*
X1487552Y11222053D01*
X1531308Y11140192D01*
X1538810Y11126157D01*
X1607790Y11042104D01*
X1628851Y11024820D01*
X1749820Y10903850D01*
X1767106Y10882787D01*
X1851159Y10813807D01*
X1947054Y10762550D01*
X2051106Y10730986D01*
X2132208Y10722998D01*
X2132218Y10722998D01*
X2159316Y10720329D01*
X2186414Y10722998D01*
X7747892Y10722998D01*
X7774998Y10720328D01*
X7802104Y10722998D01*
X7802107Y10722998D01*
X7883209Y10730986D01*
X7987261Y10762550D01*
X8083156Y10813807D01*
X8167209Y10882787D01*
X8184499Y10903855D01*
X8278633Y10997989D01*
X11856056Y10997989D01*
X11772819Y10942372D01*
X11657628Y10827181D01*
X11567123Y10691731D01*
X11504782Y10541227D01*
X11473000Y10381452D01*
X11473000Y10218548D01*
X11473043Y10218333D01*
X11102575Y9847864D01*
X11082461Y9831357D01*
X11016605Y9751111D01*
X10984213Y9690509D01*
X10967670Y9659558D01*
X10937535Y9560218D01*
X10927360Y9456909D01*
X10929909Y9431028D01*
X10929910Y7203282D01*
X10927360Y7177392D01*
X10937535Y7074083D01*
X10967670Y6974743D01*
X11016605Y6883191D01*
X11016606Y6883190D01*
X11082462Y6802944D01*
X11102571Y6786441D01*
X13560335Y4328675D01*
X13576833Y4308572D01*
X13657079Y4242716D01*
X13748631Y4193781D01*
X13803950Y4177000D01*
X13847971Y4163646D01*
X13951281Y4153471D01*
X13977162Y4156020D01*
X16545251Y4156020D01*
X16536849Y4153471D01*
X16478124Y4135657D01*
X16377885Y4082079D01*
X16290026Y4009974D01*
X16271961Y3987962D01*
X15660999Y3377000D01*
X11977000Y3377000D01*
X11977000Y4424643D01*
X12032877Y4508269D01*
X12095218Y4658773D01*
X12127000Y4818548D01*
X12127000Y4981452D01*
X12095218Y5141227D01*
X12032877Y5291731D01*
X11942372Y5427181D01*
X11877160Y5492393D01*
X11877000Y5494015D01*
X11877000Y5494021D01*
X11868650Y5578797D01*
X11835657Y5687561D01*
X11782079Y5787800D01*
X11709974Y5875659D01*
X11687962Y5893724D01*
X10377000Y7204686D01*
X10377000Y8807447D01*
X10442372Y8872819D01*
X10532877Y9008269D01*
X10595218Y9158773D01*
X10627000Y9318548D01*
X10627000Y9481452D01*
X10595218Y9641227D01*
X10532877Y9791731D01*
X10442372Y9927181D01*
X10327181Y10042372D01*
X10191731Y10132877D01*
X10041227Y10195218D01*
X9881452Y10227000D01*
X9718548Y10227000D01*
X9558773Y10195218D01*
X9408269Y10132877D01*
X9272819Y10042372D01*
X9157628Y9927181D01*
X9067123Y9791731D01*
X9020257Y9678588D01*
X8945309Y9753536D01*
X8818048Y9838569D01*
X8676643Y9897141D01*
X8526528Y9927000D01*
X8373472Y9927000D01*
X8223357Y9897141D01*
X8081952Y9838569D01*
X7954691Y9753536D01*
X7846464Y9645309D01*
X7761431Y9518048D01*
X7702859Y9376643D01*
X7673000Y9226528D01*
X7673000Y9073472D01*
X7702859Y8923357D01*
X7761431Y8781952D01*
X7846464Y8654691D01*
X7954691Y8546464D01*
X8081952Y8461431D01*
X8223357Y8402859D01*
X8373472Y8373000D01*
X8526528Y8373000D01*
X8676643Y8402859D01*
X8818048Y8461431D01*
X8945309Y8546464D01*
X9053536Y8654691D01*
X9138569Y8781952D01*
X9170766Y8859681D01*
X9223000Y8807447D01*
X9223000Y8805980D01*
X9223001Y8805970D01*
X9223000Y6994016D01*
X9220210Y6965685D01*
X9223000Y6937354D01*
X9223000Y6937350D01*
X9225334Y6913657D01*
X9231349Y6852574D01*
X9249803Y6791743D01*
X9264343Y6743810D01*
X9317921Y6643571D01*
X9390026Y6555711D01*
X9412038Y6537646D01*
X10603504Y5346180D01*
X10567123Y5291731D01*
X10504782Y5141227D01*
X10473000Y4981452D01*
X10473000Y4818548D01*
X10504782Y4658773D01*
X10567123Y4508269D01*
X10623001Y4424642D01*
X10623000Y2880422D01*
X9357418Y1614840D01*
X9258773Y1595218D01*
X9108269Y1532877D01*
X8972819Y1442372D01*
X8857628Y1327181D01*
X8767123Y1191731D01*
X8704782Y1041227D01*
X8673000Y881452D01*
X8673000Y718548D01*
X8704782Y558773D01*
X8728298Y502000D01*
X502000Y502000D01*
X502000Y4421236D01*
X546464Y4354691D01*
X654691Y4246464D01*
X781952Y4161431D01*
X923357Y4102859D01*
X1073472Y4073000D01*
X1226528Y4073000D01*
X1376643Y4102859D01*
X1518048Y4161431D01*
X1645309Y4246464D01*
X1753536Y4354691D01*
X1838569Y4481952D01*
X1897141Y4623357D01*
X1927000Y4773472D01*
X1927000Y4926528D01*
X1897141Y5076643D01*
X1838569Y5218048D01*
X1753536Y5345309D01*
X1645309Y5453536D01*
X1518048Y5538569D01*
X1376643Y5597141D01*
X1226528Y5627000D01*
X1073472Y5627000D01*
X923357Y5597141D01*
X781952Y5538569D01*
X654691Y5453536D01*
X546464Y5345309D01*
X502000Y5278764D01*
X502000Y8721236D01*
X546464Y8654691D01*
X654691Y8546464D01*
X781952Y8461431D01*
X923357Y8402859D01*
X1073472Y8373000D01*
X1226528Y8373000D01*
X1376643Y8402859D01*
X1518048Y8461431D01*
X1645309Y8546464D01*
X1753536Y8654691D01*
X1838569Y8781952D01*
X1897141Y8923357D01*
X1927000Y9073472D01*
X1927000Y9226528D01*
X1897141Y9376643D01*
X1838569Y9518048D01*
X1753536Y9645309D01*
X1645309Y9753536D01*
X1518048Y9838569D01*
X1376643Y9897141D01*
X1226528Y9927000D01*
X1073472Y9927000D01*
X923357Y9897141D01*
X781952Y9838569D01*
X654691Y9753536D01*
X546464Y9645309D01*
X502000Y9578764D01*
X502000Y13498000D01*
X3528298Y13498000D01*
X3504782Y13441227D01*
G36*
X14437646Y10307848D02*
G01*
X14454928Y10286790D01*
X14538981Y10217810D01*
X14634876Y10166553D01*
X14738928Y10134989D01*
X14820030Y10127001D01*
X14820032Y10127001D01*
X14847138Y10124331D01*
X14874244Y10127001D01*
X22092354Y10127001D01*
X22490507Y9728847D01*
X22507789Y9707789D01*
X22591842Y9638809D01*
X22687737Y9587552D01*
X22791789Y9555988D01*
X22872891Y9548000D01*
X22872893Y9548000D01*
X22899999Y9545330D01*
X22927105Y9548000D01*
X23671357Y9548000D01*
X24690504Y8528852D01*
X24707789Y8507790D01*
X24791842Y8438810D01*
X24887737Y8387553D01*
X24991789Y8355989D01*
X25072891Y8348001D01*
X25072894Y8348001D01*
X25100000Y8345331D01*
X25127106Y8348001D01*
X25371355Y8348001D01*
X25572997Y8146358D01*
X25572997Y8018551D01*
X25604779Y7858776D01*
X25667120Y7708272D01*
X25757625Y7572822D01*
X25872816Y7457631D01*
X25959066Y7400000D01*
X25872819Y7342372D01*
X25757628Y7227181D01*
X25667123Y7091731D01*
X25604782Y6941227D01*
X25573000Y6781452D01*
X25573000Y6618548D01*
X25604782Y6458773D01*
X25667123Y6308269D01*
X25757628Y6172819D01*
X25872819Y6057628D01*
X26008269Y5967123D01*
X26158773Y5904782D01*
X26318548Y5873000D01*
X26446356Y5873000D01*
X28190508Y4128846D01*
X28207789Y4107789D01*
X28228845Y4090509D01*
X28228846Y4090508D01*
X28291842Y4038809D01*
X28387737Y3987552D01*
X28491789Y3955988D01*
X28583491Y3946956D01*
X28672819Y3857628D01*
X28783951Y3783371D01*
X28527581Y3527001D01*
X21627000Y3527001D01*
X21627000Y3681452D01*
X21595218Y3841227D01*
X21532877Y3991731D01*
X21442372Y4127181D01*
X21327181Y4242372D01*
X21191731Y4332877D01*
X21041227Y4395218D01*
X20881452Y4427000D01*
X20718548Y4427000D01*
X20617983Y4406996D01*
X20683987Y4473000D01*
X22757507Y4473000D01*
X22757628Y4472819D01*
X22872819Y4357628D01*
X23008269Y4267123D01*
X23158773Y4204782D01*
X23318548Y4173000D01*
X23481452Y4173000D01*
X23641227Y4204782D01*
X23791731Y4267123D01*
X23927181Y4357628D01*
X24042372Y4472819D01*
X24132877Y4608269D01*
X24195218Y4758773D01*
X24227000Y4918548D01*
X24227000Y5081452D01*
X24208716Y5173372D01*
X24282391Y5180628D01*
X24381731Y5210763D01*
X24473283Y5259698D01*
X24551009Y5323486D01*
X24711017Y5323486D01*
X24870792Y5355268D01*
X25021296Y5417609D01*
X25156746Y5508114D01*
X25271937Y5623305D01*
X25362442Y5758755D01*
X25424783Y5909259D01*
X25456565Y6069034D01*
X25456565Y6231938D01*
X25424783Y6391713D01*
X25362442Y6542217D01*
X25271937Y6677667D01*
X25156746Y6792858D01*
X25021296Y6883363D01*
X24870792Y6945704D01*
X24711017Y6977486D01*
X24548113Y6977486D01*
X24388338Y6945704D01*
X24237834Y6883363D01*
X24102384Y6792858D01*
X24003096Y6693570D01*
X23962431Y6791743D01*
X23871926Y6927193D01*
X23756735Y7042384D01*
X23621285Y7132889D01*
X23470781Y7195230D01*
X23311006Y7227012D01*
X23218556Y7227012D01*
X21957605Y8487962D01*
X21939540Y8509974D01*
X21851681Y8582079D01*
X21751442Y8635657D01*
X21687336Y8655103D01*
X21642677Y8668651D01*
X21587611Y8674074D01*
X21557902Y8677000D01*
X21557897Y8677000D01*
X21529566Y8679790D01*
X21501235Y8677000D01*
X20592553Y8677000D01*
X20527181Y8742372D01*
X20391731Y8832877D01*
X20241227Y8895218D01*
X20081452Y8927000D01*
X19918548Y8927000D01*
X19758773Y8895218D01*
X19608269Y8832877D01*
X19472819Y8742372D01*
X19357628Y8627181D01*
X19267123Y8491731D01*
X19204782Y8341227D01*
X19173000Y8181452D01*
X19173000Y8018548D01*
X19204782Y7858773D01*
X19267123Y7708269D01*
X19357628Y7572819D01*
X19472819Y7457628D01*
X19608269Y7367123D01*
X19758773Y7304782D01*
X19918548Y7273000D01*
X20081452Y7273000D01*
X20241227Y7304782D01*
X20391731Y7367123D01*
X20527181Y7457628D01*
X20592553Y7523000D01*
X21290565Y7523000D01*
X22402554Y6411010D01*
X22402554Y6318560D01*
X22420766Y6227002D01*
X20625883Y6227002D01*
X20600002Y6229551D01*
X20574121Y6227002D01*
X20496692Y6219376D01*
X20397352Y6189241D01*
X20305800Y6140306D01*
X20225554Y6074450D01*
X20209051Y6054341D01*
X19781711Y5627000D01*
X14318290Y5627000D01*
X12683910Y7261379D01*
X12683910Y8500778D01*
X12684091Y8500899D01*
X12799282Y8616090D01*
X12889787Y8751540D01*
X12952128Y8902044D01*
X12983910Y9061819D01*
X12983910Y9224723D01*
X12952128Y9384498D01*
X12889787Y9535002D01*
X12813817Y9648699D01*
X12827181Y9657628D01*
X12942372Y9772819D01*
X13032877Y9908269D01*
X13095218Y10058773D01*
X13127000Y10218548D01*
X13127000Y10381452D01*
X13095218Y10541227D01*
X13032877Y10691731D01*
X12942372Y10827181D01*
X12827181Y10942372D01*
X12743944Y10997989D01*
X13747507Y10997989D01*
X14437646Y10307848D01*
X14437646Y10307848D01*
G37*
X14437646Y10307848D02*
X14454928Y10286790D01*
X14538981Y10217810D01*
X14634876Y10166553D01*
X14738928Y10134989D01*
X14820030Y10127001D01*
X14820032Y10127001D01*
X14847138Y10124331D01*
X14874244Y10127001D01*
X22092354Y10127001D01*
X22490507Y9728847D01*
X22507789Y9707789D01*
X22591842Y9638809D01*
X22687737Y9587552D01*
X22791789Y9555988D01*
X22872891Y9548000D01*
X22872893Y9548000D01*
X22899999Y9545330D01*
X22927105Y9548000D01*
X23671357Y9548000D01*
X24690504Y8528852D01*
X24707789Y8507790D01*
X24791842Y8438810D01*
X24887737Y8387553D01*
X24991789Y8355989D01*
X25072891Y8348001D01*
X25072894Y8348001D01*
X25100000Y8345331D01*
X25127106Y8348001D01*
X25371355Y8348001D01*
X25572997Y8146358D01*
X25572997Y8018551D01*
X25604779Y7858776D01*
X25667120Y7708272D01*
X25757625Y7572822D01*
X25872816Y7457631D01*
X25959066Y7400000D01*
X25872819Y7342372D01*
X25757628Y7227181D01*
X25667123Y7091731D01*
X25604782Y6941227D01*
X25573000Y6781452D01*
X25573000Y6618548D01*
X25604782Y6458773D01*
X25667123Y6308269D01*
X25757628Y6172819D01*
X25872819Y6057628D01*
X26008269Y5967123D01*
X26158773Y5904782D01*
X26318548Y5873000D01*
X26446356Y5873000D01*
X28190508Y4128846D01*
X28207789Y4107789D01*
X28228845Y4090509D01*
X28228846Y4090508D01*
X28291842Y4038809D01*
X28387737Y3987552D01*
X28491789Y3955988D01*
X28583491Y3946956D01*
X28672819Y3857628D01*
X28783951Y3783371D01*
X28527581Y3527001D01*
X21627000Y3527001D01*
X21627000Y3681452D01*
X21595218Y3841227D01*
X21532877Y3991731D01*
X21442372Y4127181D01*
X21327181Y4242372D01*
X21191731Y4332877D01*
X21041227Y4395218D01*
X20881452Y4427000D01*
X20718548Y4427000D01*
X20617983Y4406996D01*
X20683987Y4473000D01*
X22757507Y4473000D01*
X22757628Y4472819D01*
X22872819Y4357628D01*
X23008269Y4267123D01*
X23158773Y4204782D01*
X23318548Y4173000D01*
X23481452Y4173000D01*
X23641227Y4204782D01*
X23791731Y4267123D01*
X23927181Y4357628D01*
X24042372Y4472819D01*
X24132877Y4608269D01*
X24195218Y4758773D01*
X24227000Y4918548D01*
X24227000Y5081452D01*
X24208716Y5173372D01*
X24282391Y5180628D01*
X24381731Y5210763D01*
X24473283Y5259698D01*
X24551009Y5323486D01*
X24711017Y5323486D01*
X24870792Y5355268D01*
X25021296Y5417609D01*
X25156746Y5508114D01*
X25271937Y5623305D01*
X25362442Y5758755D01*
X25424783Y5909259D01*
X25456565Y6069034D01*
X25456565Y6231938D01*
X25424783Y6391713D01*
X25362442Y6542217D01*
X25271937Y6677667D01*
X25156746Y6792858D01*
X25021296Y6883363D01*
X24870792Y6945704D01*
X24711017Y6977486D01*
X24548113Y6977486D01*
X24388338Y6945704D01*
X24237834Y6883363D01*
X24102384Y6792858D01*
X24003096Y6693570D01*
X23962431Y6791743D01*
X23871926Y6927193D01*
X23756735Y7042384D01*
X23621285Y7132889D01*
X23470781Y7195230D01*
X23311006Y7227012D01*
X23218556Y7227012D01*
X21957605Y8487962D01*
X21939540Y8509974D01*
X21851681Y8582079D01*
X21751442Y8635657D01*
X21687336Y8655103D01*
X21642677Y8668651D01*
X21587611Y8674074D01*
X21557902Y8677000D01*
X21557897Y8677000D01*
X21529566Y8679790D01*
X21501235Y8677000D01*
X20592553Y8677000D01*
X20527181Y8742372D01*
X20391731Y8832877D01*
X20241227Y8895218D01*
X20081452Y8927000D01*
X19918548Y8927000D01*
X19758773Y8895218D01*
X19608269Y8832877D01*
X19472819Y8742372D01*
X19357628Y8627181D01*
X19267123Y8491731D01*
X19204782Y8341227D01*
X19173000Y8181452D01*
X19173000Y8018548D01*
X19204782Y7858773D01*
X19267123Y7708269D01*
X19357628Y7572819D01*
X19472819Y7457628D01*
X19608269Y7367123D01*
X19758773Y7304782D01*
X19918548Y7273000D01*
X20081452Y7273000D01*
X20241227Y7304782D01*
X20391731Y7367123D01*
X20527181Y7457628D01*
X20592553Y7523000D01*
X21290565Y7523000D01*
X22402554Y6411010D01*
X22402554Y6318560D01*
X22420766Y6227002D01*
X20625883Y6227002D01*
X20600002Y6229551D01*
X20574121Y6227002D01*
X20496692Y6219376D01*
X20397352Y6189241D01*
X20305800Y6140306D01*
X20225554Y6074450D01*
X20209051Y6054341D01*
X19781711Y5627000D01*
X14318290Y5627000D01*
X12683910Y7261379D01*
X12683910Y8500778D01*
X12684091Y8500899D01*
X12799282Y8616090D01*
X12889787Y8751540D01*
X12952128Y8902044D01*
X12983910Y9061819D01*
X12983910Y9224723D01*
X12952128Y9384498D01*
X12889787Y9535002D01*
X12813817Y9648699D01*
X12827181Y9657628D01*
X12942372Y9772819D01*
X13032877Y9908269D01*
X13095218Y10058773D01*
X13127000Y10218548D01*
X13127000Y10381452D01*
X13095218Y10541227D01*
X13032877Y10691731D01*
X12942372Y10827181D01*
X12827181Y10942372D01*
X12743944Y10997989D01*
X13747507Y10997989D01*
X14437646Y10307848D01*
M02*
