G04 #@! TF.FileFunction,Legend,Top*
%FSLAX46Y46*%
G04 Gerber Fmt 4.6, Leading zero omitted, Abs format (unit mm)*
G04 Created by KiCad (PCBNEW 4.0.3-stable) date 09/22/16 08:13:14*
%MOMM*%
%LPD*%
G01*
G04 APERTURE LIST*
%ADD10C,0.500000*%
%ADD11C,0.300000*%
%ADD12C,0.150000*%
%ADD13C,0.050000*%
G04 APERTURE END LIST*
D10*
D11*
X14688286Y15831905D02*
X14750190Y15770000D01*
X14812095Y15584286D01*
X14812095Y15460476D01*
X14750190Y15274762D01*
X14626381Y15150953D01*
X14502571Y15089048D01*
X14254952Y15027143D01*
X14069238Y15027143D01*
X13821619Y15089048D01*
X13697810Y15150953D01*
X13574000Y15274762D01*
X13512095Y15460476D01*
X13512095Y15584286D01*
X13574000Y15770000D01*
X13635905Y15831905D01*
X14812095Y17008095D02*
X14812095Y16389048D01*
X13512095Y16389048D01*
X14812095Y17441429D02*
X13512095Y17441429D01*
X14812095Y18184286D02*
X14069238Y17627143D01*
X13512095Y18184286D02*
X14254952Y17441429D01*
X13574000Y19422381D02*
X13512095Y19298572D01*
X13512095Y19112857D01*
X13574000Y18927143D01*
X13697810Y18803334D01*
X13821619Y18741429D01*
X14069238Y18679524D01*
X14254952Y18679524D01*
X14502571Y18741429D01*
X14626381Y18803334D01*
X14750190Y18927143D01*
X14812095Y19112857D01*
X14812095Y19236667D01*
X14750190Y19422381D01*
X14688286Y19484286D01*
X14254952Y19484286D01*
X14254952Y19236667D01*
X14131143Y20041429D02*
X14131143Y20474762D01*
X14812095Y20660476D02*
X14812095Y20041429D01*
X13512095Y20041429D01*
X13512095Y20660476D01*
X14812095Y21217619D02*
X13512095Y21217619D01*
X14812095Y21960476D01*
X13512095Y21960476D01*
X13512095Y22827143D02*
X13512095Y22950952D01*
X13574000Y23074762D01*
X13635905Y23136667D01*
X13759714Y23198571D01*
X14007333Y23260476D01*
X14316857Y23260476D01*
X14564476Y23198571D01*
X14688286Y23136667D01*
X14750190Y23074762D01*
X14812095Y22950952D01*
X14812095Y22827143D01*
X14750190Y22703333D01*
X14688286Y22641429D01*
X14564476Y22579524D01*
X14316857Y22517619D01*
X14007333Y22517619D01*
X13759714Y22579524D01*
X13635905Y22641429D01*
X13574000Y22703333D01*
X13512095Y22827143D01*
X13635905Y23755714D02*
X13574000Y23817619D01*
X13512095Y23941428D01*
X13512095Y24250952D01*
X13574000Y24374762D01*
X13635905Y24436666D01*
X13759714Y24498571D01*
X13883524Y24498571D01*
X14069238Y24436666D01*
X14812095Y23693809D01*
X14812095Y24498571D01*
X14440667Y24993809D02*
X14440667Y25612857D01*
X14812095Y24870000D02*
X13512095Y25303333D01*
X14812095Y25736666D01*
X9571905Y33331429D02*
X9510000Y33393334D01*
X9448095Y33517143D01*
X9448095Y33826667D01*
X9510000Y33950477D01*
X9571905Y34012381D01*
X9695714Y34074286D01*
X9819524Y34074286D01*
X10005238Y34012381D01*
X10748095Y33269524D01*
X10748095Y34074286D01*
X9448095Y34879048D02*
X9448095Y35002857D01*
X9510000Y35126667D01*
X9571905Y35188572D01*
X9695714Y35250476D01*
X9943333Y35312381D01*
X10252857Y35312381D01*
X10500476Y35250476D01*
X10624286Y35188572D01*
X10686190Y35126667D01*
X10748095Y35002857D01*
X10748095Y34879048D01*
X10686190Y34755238D01*
X10624286Y34693334D01*
X10500476Y34631429D01*
X10252857Y34569524D01*
X9943333Y34569524D01*
X9695714Y34631429D01*
X9571905Y34693334D01*
X9510000Y34755238D01*
X9448095Y34879048D01*
X10748095Y36550476D02*
X10748095Y35807619D01*
X10748095Y36179048D02*
X9448095Y36179048D01*
X9633810Y36055238D01*
X9757619Y35931429D01*
X9819524Y35807619D01*
X9448095Y37664762D02*
X9448095Y37417143D01*
X9510000Y37293333D01*
X9571905Y37231428D01*
X9757619Y37107619D01*
X10005238Y37045714D01*
X10500476Y37045714D01*
X10624286Y37107619D01*
X10686190Y37169524D01*
X10748095Y37293333D01*
X10748095Y37540952D01*
X10686190Y37664762D01*
X10624286Y37726666D01*
X10500476Y37788571D01*
X10190952Y37788571D01*
X10067143Y37726666D01*
X10005238Y37664762D01*
X9943333Y37540952D01*
X9943333Y37293333D01*
X10005238Y37169524D01*
X10067143Y37107619D01*
X10190952Y37045714D01*
X9448095Y2696666D02*
X10376667Y2696666D01*
X10562381Y2634762D01*
X10686190Y2510952D01*
X10748095Y2325238D01*
X10748095Y2201428D01*
X10376667Y3253809D02*
X10376667Y3872857D01*
X10748095Y3130000D02*
X9448095Y3563333D01*
X10748095Y3996666D01*
X10624286Y5172857D02*
X10686190Y5110952D01*
X10748095Y4925238D01*
X10748095Y4801428D01*
X10686190Y4615714D01*
X10562381Y4491905D01*
X10438571Y4430000D01*
X10190952Y4368095D01*
X10005238Y4368095D01*
X9757619Y4430000D01*
X9633810Y4491905D01*
X9510000Y4615714D01*
X9448095Y4801428D01*
X9448095Y4925238D01*
X9510000Y5110952D01*
X9571905Y5172857D01*
X10748095Y5730000D02*
X9448095Y5730000D01*
X10067143Y5730000D02*
X10067143Y6472857D01*
X10748095Y6472857D02*
X9448095Y6472857D01*
X9448095Y7339524D02*
X9448095Y7587143D01*
X9510000Y7710952D01*
X9633810Y7834762D01*
X9881429Y7896667D01*
X10314762Y7896667D01*
X10562381Y7834762D01*
X10686190Y7710952D01*
X10748095Y7587143D01*
X10748095Y7339524D01*
X10686190Y7215714D01*
X10562381Y7091905D01*
X10314762Y7030000D01*
X9881429Y7030000D01*
X9633810Y7091905D01*
X9510000Y7215714D01*
X9448095Y7339524D01*
X12780095Y16574762D02*
X11480095Y16574762D01*
X12408667Y17008095D01*
X11480095Y17441428D01*
X12780095Y17441428D01*
X12780095Y18679523D02*
X12780095Y18060476D01*
X11480095Y18060476D01*
X12408667Y19050952D02*
X12408667Y19670000D01*
X12780095Y18927143D02*
X11480095Y19360476D01*
X12780095Y19793809D01*
X12099143Y20660476D02*
X12161048Y20846190D01*
X12222952Y20908095D01*
X12346762Y20970000D01*
X12532476Y20970000D01*
X12656286Y20908095D01*
X12718190Y20846190D01*
X12780095Y20722381D01*
X12780095Y20227143D01*
X11480095Y20227143D01*
X11480095Y20660476D01*
X11542000Y20784286D01*
X11603905Y20846190D01*
X11727714Y20908095D01*
X11851524Y20908095D01*
X11975333Y20846190D01*
X12037238Y20784286D01*
X12099143Y20660476D01*
X12099143Y20227143D01*
X12656286Y21527143D02*
X12718190Y21589048D01*
X12780095Y21527143D01*
X12718190Y21465238D01*
X12656286Y21527143D01*
X12780095Y21527143D01*
X12656286Y22889048D02*
X12718190Y22827143D01*
X12780095Y22641429D01*
X12780095Y22517619D01*
X12718190Y22331905D01*
X12594381Y22208096D01*
X12470571Y22146191D01*
X12222952Y22084286D01*
X12037238Y22084286D01*
X11789619Y22146191D01*
X11665810Y22208096D01*
X11542000Y22331905D01*
X11480095Y22517619D01*
X11480095Y22641429D01*
X11542000Y22827143D01*
X11603905Y22889048D01*
X11480095Y23322381D02*
X11480095Y24189048D01*
X12780095Y23322381D01*
X12780095Y24189048D01*
X2514476Y32146000D02*
X2390667Y32207905D01*
X2204952Y32207905D01*
X2019238Y32146000D01*
X1895429Y32022190D01*
X1833524Y31898381D01*
X1771619Y31650762D01*
X1771619Y31465048D01*
X1833524Y31217429D01*
X1895429Y31093619D01*
X2019238Y30969810D01*
X2204952Y30907905D01*
X2328762Y30907905D01*
X2514476Y30969810D01*
X2576381Y31031714D01*
X2576381Y31465048D01*
X2328762Y31465048D01*
X3133524Y30907905D02*
X3133524Y32207905D01*
X3876381Y30907905D01*
X3876381Y32207905D01*
X4495429Y30907905D02*
X4495429Y32207905D01*
X4804953Y32207905D01*
X4990667Y32146000D01*
X5114476Y32022190D01*
X5176381Y31898381D01*
X5238286Y31650762D01*
X5238286Y31465048D01*
X5176381Y31217429D01*
X5114476Y31093619D01*
X4990667Y30969810D01*
X4804953Y30907905D01*
X4495429Y30907905D01*
X7669143Y26111905D02*
X7916762Y26111905D01*
X8040571Y26050000D01*
X8164381Y25926190D01*
X8226286Y25678571D01*
X8226286Y25245238D01*
X8164381Y24997619D01*
X8040571Y24873810D01*
X7916762Y24811905D01*
X7669143Y24811905D01*
X7545333Y24873810D01*
X7421524Y24997619D01*
X7359619Y25245238D01*
X7359619Y25678571D01*
X7421524Y25926190D01*
X7545333Y26050000D01*
X7669143Y26111905D01*
X8783429Y26111905D02*
X8783429Y25059524D01*
X8845334Y24935714D01*
X8907238Y24873810D01*
X9031048Y24811905D01*
X9278667Y24811905D01*
X9402476Y24873810D01*
X9464381Y24935714D01*
X9526286Y25059524D01*
X9526286Y26111905D01*
X9959620Y26111905D02*
X10702477Y26111905D01*
X10331048Y24811905D02*
X10331048Y26111905D01*
X8102476Y24018000D02*
X7978667Y24079905D01*
X7792952Y24079905D01*
X7607238Y24018000D01*
X7483429Y23894190D01*
X7421524Y23770381D01*
X7359619Y23522762D01*
X7359619Y23337048D01*
X7421524Y23089429D01*
X7483429Y22965619D01*
X7607238Y22841810D01*
X7792952Y22779905D01*
X7916762Y22779905D01*
X8102476Y22841810D01*
X8164381Y22903714D01*
X8164381Y23337048D01*
X7916762Y23337048D01*
X8721524Y22779905D02*
X8721524Y24079905D01*
X9464381Y22779905D01*
X9464381Y24079905D01*
X10083429Y22779905D02*
X10083429Y24079905D01*
X10392953Y24079905D01*
X10578667Y24018000D01*
X10702476Y23894190D01*
X10764381Y23770381D01*
X10826286Y23522762D01*
X10826286Y23337048D01*
X10764381Y23089429D01*
X10702476Y22965619D01*
X10578667Y22841810D01*
X10392953Y22779905D01*
X10083429Y22779905D01*
X7421524Y21428857D02*
X7854857Y21428857D01*
X8040571Y20747905D02*
X7421524Y20747905D01*
X7421524Y22047905D01*
X8040571Y22047905D01*
X8597714Y20747905D02*
X8597714Y22047905D01*
X9340571Y20747905D01*
X9340571Y22047905D01*
X1569620Y9063905D02*
X1569620Y10363905D01*
X2064858Y10363905D01*
X2188667Y10302000D01*
X2250572Y10240095D01*
X2312477Y10116286D01*
X2312477Y9930571D01*
X2250572Y9806762D01*
X2188667Y9744857D01*
X2064858Y9682952D01*
X1569620Y9682952D01*
X3117239Y10363905D02*
X3364858Y10363905D01*
X3488667Y10302000D01*
X3612477Y10178190D01*
X3674382Y9930571D01*
X3674382Y9497238D01*
X3612477Y9249619D01*
X3488667Y9125810D01*
X3364858Y9063905D01*
X3117239Y9063905D01*
X2993429Y9125810D01*
X2869620Y9249619D01*
X2807715Y9497238D01*
X2807715Y9930571D01*
X2869620Y10178190D01*
X2993429Y10302000D01*
X3117239Y10363905D01*
X4107715Y10363905D02*
X4417239Y9063905D01*
X4664858Y9992476D01*
X4912477Y9063905D01*
X5222001Y10363905D01*
X5717239Y9744857D02*
X6150572Y9744857D01*
X6336286Y9063905D02*
X5717239Y9063905D01*
X5717239Y10363905D01*
X6336286Y10363905D01*
X7636286Y9063905D02*
X7202953Y9682952D01*
X6893429Y9063905D02*
X6893429Y10363905D01*
X7388667Y10363905D01*
X7512476Y10302000D01*
X7574381Y10240095D01*
X7636286Y10116286D01*
X7636286Y9930571D01*
X7574381Y9806762D01*
X7512476Y9744857D01*
X7388667Y9682952D01*
X6893429Y9682952D01*
D12*
X1016000Y18542000D02*
X6096000Y18542000D01*
X6096000Y18542000D02*
X6096000Y10922000D01*
X6096000Y10922000D02*
X1016000Y10922000D01*
X1016000Y10922000D02*
X1016000Y18542000D01*
X1016000Y30226000D02*
X6096000Y30226000D01*
X6096000Y30226000D02*
X6096000Y22606000D01*
X6096000Y22606000D02*
X1016000Y22606000D01*
X1016000Y22606000D02*
X1016000Y30226000D01*
X6758000Y10628000D02*
X6758000Y31028000D01*
X6758000Y31028000D02*
X19658000Y31028000D01*
X19658000Y31028000D02*
X19658000Y10628000D01*
X19658000Y10628000D02*
X6758000Y10628000D01*
X1016000Y20066000D02*
X1016000Y22606000D01*
X1016000Y22606000D02*
X6096000Y22606000D01*
X6096000Y22606000D02*
X6096000Y20066000D01*
X6096000Y20066000D02*
X1016000Y20066000D01*
D13*
X777857Y17045810D02*
X492143Y17045810D01*
X635000Y17045810D02*
X635000Y17545810D01*
X587381Y17474381D01*
X539762Y17426762D01*
X492143Y17402952D01*
X777857Y28729810D02*
X492143Y28729810D01*
X635000Y28729810D02*
X635000Y29229810D01*
X587381Y29158381D01*
X539762Y29110762D01*
X492143Y29086952D01*
D12*
X12398476Y30519619D02*
X13065143Y29519619D01*
X13065143Y30519619D02*
X12398476Y29519619D01*
X13493714Y29519619D02*
X13684190Y29519619D01*
X13779429Y29567238D01*
X13827048Y29614857D01*
X13922286Y29757714D01*
X13969905Y29948190D01*
X13969905Y30329143D01*
X13922286Y30424381D01*
X13874667Y30472000D01*
X13779429Y30519619D01*
X13588952Y30519619D01*
X13493714Y30472000D01*
X13446095Y30424381D01*
X13398476Y30329143D01*
X13398476Y30091048D01*
X13446095Y29995810D01*
X13493714Y29948190D01*
X13588952Y29900571D01*
X13779429Y29900571D01*
X13874667Y29948190D01*
X13922286Y29995810D01*
X13969905Y30091048D01*
X18769081Y11353800D02*
X19007176Y11353800D01*
X18911938Y11115705D02*
X19007176Y11353800D01*
X18911938Y11591896D01*
X19197652Y11210943D02*
X19007176Y11353800D01*
X19197652Y11496658D01*
M02*
