solid OpenSCAD_Model
  facet normal 0.661312 0.750111 -0
    outer loop
      vertex 7.32465 7.79996 0
      vertex 6.82044 8.24449 10
      vertex 7.32465 7.79996 10
    endloop
  endfacet
  facet normal 0.661312 0.750111 0
    outer loop
      vertex 6.82044 8.24449 10
      vertex 7.32465 7.79996 0
      vertex 6.82044 8.24449 0
    endloop
  endfacet
  facet normal 0.612907 0.790155 -0
    outer loop
      vertex 6.82044 8.24449 0
      vertex 6.2893 8.65648 10
      vertex 6.82044 8.24449 10
    endloop
  endfacet
  facet normal 0.612907 0.790155 0
    outer loop
      vertex 6.2893 8.65648 10
      vertex 6.82044 8.24449 0
      vertex 6.2893 8.65648 0
    endloop
  endfacet
  facet normal -0.338737 0.940881 0
    outer loop
      vertex -3.30648 10.1763 0
      vertex -3.93893 9.94861 10
      vertex -3.30648 10.1763 10
    endloop
  endfacet
  facet normal -0.338737 0.940881 0
    outer loop
      vertex -3.93893 9.94861 10
      vertex -3.30648 10.1763 0
      vertex -3.93893 9.94861 0
    endloop
  endfacet
  facet normal -0.917754 0.397148 0
    outer loop
      vertex -9.94861 3.93893 0
      vertex -9.68165 4.55584 10
      vertex -9.68165 4.55584 0
    endloop
  endfacet
  facet normal -0.917754 0.397148 0
    outer loop
      vertex -9.68165 4.55584 10
      vertex -9.94861 3.93893 0
      vertex -9.94861 3.93893 10
    endloop
  endfacet
  facet normal 0.917754 0.397148 0
    outer loop
      vertex 9.94861 3.93893 10
      vertex 9.68165 4.55584 0
      vertex 9.68165 4.55584 10
    endloop
  endfacet
  facet normal 0.917754 0.397148 0
    outer loop
      vertex 9.68165 4.55584 0
      vertex 9.94861 3.93893 10
      vertex 9.94861 3.93893 0
    endloop
  endfacet
  facet normal 0.891007 0.45399 0
    outer loop
      vertex 9.68165 4.55584 10
      vertex 9.37648 5.15476 0
      vertex 9.37648 5.15476 10
    endloop
  endfacet
  facet normal 0.891007 0.45399 0
    outer loop
      vertex 9.37648 5.15476 0
      vertex 9.68165 4.55584 10
      vertex 9.68165 4.55584 0
    endloop
  endfacet
  facet normal 0.397148 0.917754 -0
    outer loop
      vertex 4.55584 9.68165 0
      vertex 3.93893 9.94861 10
      vertex 4.55584 9.68165 10
    endloop
  endfacet
  facet normal 0.397148 0.917754 0
    outer loop
      vertex 3.93893 9.94861 10
      vertex 4.55584 9.68165 0
      vertex 3.93893 9.94861 0
    endloop
  endfacet
  facet normal -0.987688 0.156435 0
    outer loop
      vertex -10.6156 1.34107 0
      vertex -10.5105 2.00498 10
      vertex -10.5105 2.00498 0
    endloop
  endfacet
  facet normal -0.987688 0.156435 0
    outer loop
      vertex -10.5105 2.00498 10
      vertex -10.6156 1.34107 0
      vertex -10.6156 1.34107 10
    endloop
  endfacet
  facet normal -0.707107 0.707107 0
    outer loop
      vertex -7.79996 7.32465 0
      vertex -7.32465 7.79996 10
      vertex -7.32465 7.79996 0
    endloop
  endfacet
  facet normal -0.707107 0.707107 0
    outer loop
      vertex -7.32465 7.79996 10
      vertex -7.79996 7.32465 0
      vertex -7.79996 7.32465 10
    endloop
  endfacet
  facet normal 0.338737 -0.940881 0
    outer loop
      vertex 3.30648 -10.1763 0
      vertex 3.93893 -9.94861 10
      vertex 3.30648 -10.1763 10
    endloop
  endfacet
  facet normal 0.338737 -0.940881 0
    outer loop
      vertex 3.93893 -9.94861 10
      vertex 3.30648 -10.1763 0
      vertex 3.93893 -9.94861 0
    endloop
  endfacet
  facet normal 0.750111 -0.661312 0
    outer loop
      vertex 7.79996 -7.32465 10
      vertex 8.24449 -6.82044 0
      vertex 8.24449 -6.82044 10
    endloop
  endfacet
  facet normal 0.750111 -0.661312 0
    outer loop
      vertex 8.24449 -6.82044 0
      vertex 7.79996 -7.32465 10
      vertex 7.79996 -7.32465 0
    endloop
  endfacet
  facet normal -0.156435 -0.987688 0
    outer loop
      vertex -2.00498 -10.5105 0
      vertex -1.34107 -10.6156 10
      vertex -2.00498 -10.5105 10
    endloop
  endfacet
  facet normal -0.156435 -0.987688 -0
    outer loop
      vertex -1.34107 -10.6156 10
      vertex -2.00498 -10.5105 0
      vertex -1.34107 -10.6156 0
    endloop
  endfacet
  facet normal -0.960294 -0.278991 0
    outer loop
      vertex -10.1763 -3.30648 0
      vertex -10.3638 -2.66098 10
      vertex -10.3638 -2.66098 0
    endloop
  endfacet
  facet normal -0.960294 -0.278991 0
    outer loop
      vertex -10.3638 -2.66098 10
      vertex -10.1763 -3.30648 0
      vertex -10.1763 -3.30648 10
    endloop
  endfacet
  facet normal -0.827081 -0.562083 0
    outer loop
      vertex -8.65648 -6.2893 0
      vertex -9.03431 -5.73335 10
      vertex -9.03431 -5.73335 0
    endloop
  endfacet
  facet normal -0.827081 -0.562083 0
    outer loop
      vertex -9.03431 -5.73335 10
      vertex -8.65648 -6.2893 0
      vertex -8.65648 -6.2893 10
    endloop
  endfacet
  facet normal 0.995562 0.0941075 0
    outer loop
      vertex 10.6789 0.671858 10
      vertex 10.6156 1.34107 0
      vertex 10.6156 1.34107 10
    endloop
  endfacet
  facet normal 0.995562 0.0941075 0
    outer loop
      vertex 10.6156 1.34107 0
      vertex 10.6789 0.671858 10
      vertex 10.6789 0.671858 0
    endloop
  endfacet
  facet normal 0.987688 0.156435 0
    outer loop
      vertex 10.6156 1.34107 10
      vertex 10.5105 2.00498 0
      vertex 10.5105 2.00498 10
    endloop
  endfacet
  facet normal 0.987688 0.156435 0
    outer loop
      vertex 10.5105 2.00498 0
      vertex 10.6156 1.34107 10
      vertex 10.6156 1.34107 0
    endloop
  endfacet
  facet normal 0.790155 0.612907 0
    outer loop
      vertex 8.65648 6.2893 10
      vertex 8.24449 6.82044 0
      vertex 8.24449 6.82044 10
    endloop
  endfacet
  facet normal 0.790155 0.612907 0
    outer loop
      vertex 8.24449 6.82044 0
      vertex 8.65648 6.2893 10
      vertex 8.65648 6.2893 0
    endloop
  endfacet
  facet normal 0.827081 0.562083 0
    outer loop
      vertex 9.03431 5.73335 10
      vertex 8.65648 6.2893 0
      vertex 8.65648 6.2893 10
    endloop
  endfacet
  facet normal 0.827081 0.562083 0
    outer loop
      vertex 8.65648 6.2893 0
      vertex 9.03431 5.73335 10
      vertex 9.03431 5.73335 0
    endloop
  endfacet
  facet normal 0.750111 0.661312 0
    outer loop
      vertex 8.24449 6.82044 10
      vertex 7.79996 7.32465 0
      vertex 7.79996 7.32465 10
    endloop
  endfacet
  facet normal 0.750111 0.661312 0
    outer loop
      vertex 7.79996 7.32465 0
      vertex 8.24449 6.82044 10
      vertex 8.24449 6.82044 0
    endloop
  endfacet
  facet normal 0.562083 0.827081 -0
    outer loop
      vertex 6.2893 8.65648 0
      vertex 5.73335 9.03431 10
      vertex 6.2893 8.65648 10
    endloop
  endfacet
  facet normal 0.562083 0.827081 0
    outer loop
      vertex 5.73335 9.03431 10
      vertex 6.2893 8.65648 0
      vertex 5.73335 9.03431 0
    endloop
  endfacet
  facet normal 0.509042 0.860742 -0
    outer loop
      vertex 5.73335 9.03431 0
      vertex 5.15476 9.37648 10
      vertex 5.73335 9.03431 10
    endloop
  endfacet
  facet normal 0.509042 0.860742 0
    outer loop
      vertex 5.15476 9.37648 10
      vertex 5.73335 9.03431 0
      vertex 5.15476 9.37648 0
    endloop
  endfacet
  facet normal 0.278991 0.960294 -0
    outer loop
      vertex 3.30648 10.1763 0
      vertex 2.66098 10.3638 10
      vertex 3.30648 10.1763 10
    endloop
  endfacet
  facet normal 0.278991 0.960294 0
    outer loop
      vertex 2.66098 10.3638 10
      vertex 3.30648 10.1763 0
      vertex 2.66098 10.3638 0
    endloop
  endfacet
  facet normal 0.218146 0.975916 -0
    outer loop
      vertex 2.66098 10.3638 0
      vertex 2.5 10.3998 10
      vertex 2.66098 10.3638 10
    endloop
  endfacet
  facet normal 0.218146 0.975916 0
    outer loop
      vertex 2.5 10.3998 10
      vertex 2.66098 10.3638 0
      vertex 2.5 10.3998 0
    endloop
  endfacet
  facet normal -0.960294 0.278991 0
    outer loop
      vertex -10.3638 2.66098 0
      vertex -10.1763 3.30648 10
      vertex -10.1763 3.30648 0
    endloop
  endfacet
  facet normal -0.960294 0.278991 0
    outer loop
      vertex -10.1763 3.30648 10
      vertex -10.3638 2.66098 0
      vertex -10.3638 2.66098 10
    endloop
  endfacet
  facet normal -0.975917 0.218144 0
    outer loop
      vertex -10.5105 2.00498 0
      vertex -10.3638 2.66098 10
      vertex -10.3638 2.66098 0
    endloop
  endfacet
  facet normal -0.975917 0.218144 0
    outer loop
      vertex -10.3638 2.66098 10
      vertex -10.5105 2.00498 0
      vertex -10.5105 2.00498 10
    endloop
  endfacet
  facet normal -0.790155 0.612907 0
    outer loop
      vertex -8.65648 6.2893 0
      vertex -8.24449 6.82044 10
      vertex -8.24449 6.82044 0
    endloop
  endfacet
  facet normal -0.790155 0.612907 0
    outer loop
      vertex -8.24449 6.82044 10
      vertex -8.65648 6.2893 0
      vertex -8.65648 6.2893 10
    endloop
  endfacet
  facet normal -0.750111 0.661312 0
    outer loop
      vertex -8.24449 6.82044 0
      vertex -7.79996 7.32465 10
      vertex -7.79996 7.32465 0
    endloop
  endfacet
  facet normal -0.750111 0.661312 0
    outer loop
      vertex -7.79996 7.32465 10
      vertex -8.24449 6.82044 0
      vertex -8.24449 6.82044 10
    endloop
  endfacet
  facet normal -0.218146 0.975916 0
    outer loop
      vertex -2.5 10.3998 0
      vertex -2.66098 10.3638 10
      vertex -2.5 10.3998 10
    endloop
  endfacet
  facet normal -0.218146 0.975916 0
    outer loop
      vertex -2.66098 10.3638 10
      vertex -2.5 10.3998 0
      vertex -2.66098 10.3638 0
    endloop
  endfacet
  facet normal -0.509042 0.860742 0
    outer loop
      vertex -5.15476 9.37648 0
      vertex -5.73335 9.03431 10
      vertex -5.15476 9.37648 10
    endloop
  endfacet
  facet normal -0.509042 0.860742 0
    outer loop
      vertex -5.73335 9.03431 10
      vertex -5.15476 9.37648 0
      vertex -5.73335 9.03431 0
    endloop
  endfacet
  facet normal -0.562083 0.827081 0
    outer loop
      vertex -5.73335 9.03431 0
      vertex -6.2893 8.65648 10
      vertex -5.73335 9.03431 10
    endloop
  endfacet
  facet normal -0.562083 0.827081 0
    outer loop
      vertex -6.2893 8.65648 10
      vertex -5.73335 9.03431 0
      vertex -6.2893 8.65648 0
    endloop
  endfacet
  facet normal -0.397148 0.917754 0
    outer loop
      vertex -3.93893 9.94861 0
      vertex -4.55584 9.68165 10
      vertex -3.93893 9.94861 10
    endloop
  endfacet
  facet normal -0.397148 0.917754 0
    outer loop
      vertex -4.55584 9.68165 10
      vertex -3.93893 9.94861 0
      vertex -4.55584 9.68165 0
    endloop
  endfacet
  facet normal -0.612907 0.790155 0
    outer loop
      vertex -6.2893 8.65648 0
      vertex -6.82044 8.24449 10
      vertex -6.2893 8.65648 10
    endloop
  endfacet
  facet normal -0.612907 0.790155 0
    outer loop
      vertex -6.82044 8.24449 10
      vertex -6.2893 8.65648 0
      vertex -6.82044 8.24449 0
    endloop
  endfacet
  facet normal 0.999507 0.0314113 0
    outer loop
      vertex 10.7 0 10
      vertex 10.6789 0.671858 0
      vertex 10.6789 0.671858 10
    endloop
  endfacet
  facet normal 0.999507 0.0314113 0
    outer loop
      vertex 10.6789 0.671858 0
      vertex 10.7 0 10
      vertex 10.7 0 0
    endloop
  endfacet
  facet normal 0.156435 -0.987688 0
    outer loop
      vertex 1.34107 -10.6156 0
      vertex 2.00498 -10.5105 10
      vertex 1.34107 -10.6156 10
    endloop
  endfacet
  facet normal 0.156435 -0.987688 0
    outer loop
      vertex 2.00498 -10.5105 10
      vertex 1.34107 -10.6156 0
      vertex 2.00498 -10.5105 0
    endloop
  endfacet
  facet normal 0.975917 -0.218144 0
    outer loop
      vertex 10.3638 -2.66098 10
      vertex 10.5105 -2.00498 0
      vertex 10.5105 -2.00498 10
    endloop
  endfacet
  facet normal 0.975917 -0.218144 0
    outer loop
      vertex 10.5105 -2.00498 0
      vertex 10.3638 -2.66098 10
      vertex 10.3638 -2.66098 0
    endloop
  endfacet
  facet normal 0.218144 -0.975917 0
    outer loop
      vertex 2.00498 -10.5105 0
      vertex 2.66098 -10.3638 10
      vertex 2.00498 -10.5105 10
    endloop
  endfacet
  facet normal 0.218144 -0.975917 0
    outer loop
      vertex 2.66098 -10.3638 10
      vertex 2.00498 -10.5105 0
      vertex 2.66098 -10.3638 0
    endloop
  endfacet
  facet normal 0.612907 -0.790155 0
    outer loop
      vertex 6.2893 -8.65648 0
      vertex 6.82044 -8.24449 10
      vertex 6.2893 -8.65648 10
    endloop
  endfacet
  facet normal 0.612907 -0.790155 0
    outer loop
      vertex 6.82044 -8.24449 10
      vertex 6.2893 -8.65648 0
      vertex 6.82044 -8.24449 0
    endloop
  endfacet
  facet normal 0.707107 -0.707107 0
    outer loop
      vertex 7.32465 -7.79996 10
      vertex 7.79996 -7.32465 0
      vertex 7.79996 -7.32465 10
    endloop
  endfacet
  facet normal 0.707107 -0.707107 0
    outer loop
      vertex 7.79996 -7.32465 0
      vertex 7.32465 -7.79996 10
      vertex 7.32465 -7.79996 0
    endloop
  endfacet
  facet normal 0.562083 -0.827081 0
    outer loop
      vertex 5.73335 -9.03431 0
      vertex 6.2893 -8.65648 10
      vertex 5.73335 -9.03431 10
    endloop
  endfacet
  facet normal 0.562083 -0.827081 0
    outer loop
      vertex 6.2893 -8.65648 10
      vertex 5.73335 -9.03431 0
      vertex 6.2893 -8.65648 0
    endloop
  endfacet
  facet normal 0.860742 -0.509042 0
    outer loop
      vertex 9.03431 -5.73335 10
      vertex 9.37648 -5.15476 0
      vertex 9.37648 -5.15476 10
    endloop
  endfacet
  facet normal 0.860742 -0.509042 0
    outer loop
      vertex 9.37648 -5.15476 0
      vertex 9.03431 -5.73335 10
      vertex 9.03431 -5.73335 0
    endloop
  endfacet
  facet normal 0.917754 -0.397148 0
    outer loop
      vertex 9.68165 -4.55584 10
      vertex 9.94861 -3.93893 0
      vertex 9.94861 -3.93893 10
    endloop
  endfacet
  facet normal 0.917754 -0.397148 0
    outer loop
      vertex 9.94861 -3.93893 0
      vertex 9.68165 -4.55584 10
      vertex 9.68165 -4.55584 0
    endloop
  endfacet
  facet normal -0.0314113 -0.999507 0
    outer loop
      vertex -0.671858 -10.6789 0
      vertex 0 -10.7 10
      vertex -0.671858 -10.6789 10
    endloop
  endfacet
  facet normal -0.0314113 -0.999507 -0
    outer loop
      vertex 0 -10.7 10
      vertex -0.671858 -10.6789 0
      vertex 0 -10.7 0
    endloop
  endfacet
  facet normal -0.397148 -0.917754 0
    outer loop
      vertex -4.55584 -9.68165 0
      vertex -3.93893 -9.94861 10
      vertex -4.55584 -9.68165 10
    endloop
  endfacet
  facet normal -0.397148 -0.917754 -0
    outer loop
      vertex -3.93893 -9.94861 10
      vertex -4.55584 -9.68165 0
      vertex -3.93893 -9.94861 0
    endloop
  endfacet
  facet normal -0.612907 -0.790155 0
    outer loop
      vertex -6.82044 -8.24449 0
      vertex -6.2893 -8.65648 10
      vertex -6.82044 -8.24449 10
    endloop
  endfacet
  facet normal -0.612907 -0.790155 -0
    outer loop
      vertex -6.2893 -8.65648 10
      vertex -6.82044 -8.24449 0
      vertex -6.2893 -8.65648 0
    endloop
  endfacet
  facet normal -0.995562 -0.0941075 0
    outer loop
      vertex -10.6156 -1.34107 0
      vertex -10.6789 -0.671858 10
      vertex -10.6789 -0.671858 0
    endloop
  endfacet
  facet normal -0.995562 -0.0941075 0
    outer loop
      vertex -10.6789 -0.671858 10
      vertex -10.6156 -1.34107 0
      vertex -10.6156 -1.34107 10
    endloop
  endfacet
  facet normal -0.975917 -0.218144 0
    outer loop
      vertex -10.3638 -2.66098 0
      vertex -10.5105 -2.00498 10
      vertex -10.5105 -2.00498 0
    endloop
  endfacet
  facet normal -0.975917 -0.218144 0
    outer loop
      vertex -10.5105 -2.00498 10
      vertex -10.3638 -2.66098 0
      vertex -10.3638 -2.66098 10
    endloop
  endfacet
  facet normal -0.987688 -0.156435 0
    outer loop
      vertex -10.5105 -2.00498 0
      vertex -10.6156 -1.34107 10
      vertex -10.6156 -1.34107 0
    endloop
  endfacet
  facet normal -0.987688 -0.156435 0
    outer loop
      vertex -10.6156 -1.34107 10
      vertex -10.5105 -2.00498 0
      vertex -10.5105 -2.00498 10
    endloop
  endfacet
  facet normal -0.891007 -0.45399 0
    outer loop
      vertex -9.37648 -5.15476 0
      vertex -9.68165 -4.55584 10
      vertex -9.68165 -4.55584 0
    endloop
  endfacet
  facet normal -0.891007 -0.45399 0
    outer loop
      vertex -9.68165 -4.55584 10
      vertex -9.37648 -5.15476 0
      vertex -9.37648 -5.15476 10
    endloop
  endfacet
  facet normal 0.975917 0.218144 0
    outer loop
      vertex 10.5105 2.00498 10
      vertex 10.3638 2.66098 0
      vertex 10.3638 2.66098 10
    endloop
  endfacet
  facet normal 0.975917 0.218144 0
    outer loop
      vertex 10.3638 2.66098 0
      vertex 10.5105 2.00498 10
      vertex 10.5105 2.00498 0
    endloop
  endfacet
  facet normal 0.960294 0.278991 0
    outer loop
      vertex 10.3638 2.66098 10
      vertex 10.1763 3.30648 0
      vertex 10.1763 3.30648 10
    endloop
  endfacet
  facet normal 0.960294 0.278991 0
    outer loop
      vertex 10.1763 3.30648 0
      vertex 10.3638 2.66098 10
      vertex 10.3638 2.66098 0
    endloop
  endfacet
  facet normal 0.940881 0.338737 0
    outer loop
      vertex 10.1763 3.30648 10
      vertex 9.94861 3.93893 0
      vertex 9.94861 3.93893 10
    endloop
  endfacet
  facet normal 0.940881 0.338737 0
    outer loop
      vertex 9.94861 3.93893 0
      vertex 10.1763 3.30648 10
      vertex 10.1763 3.30648 0
    endloop
  endfacet
  facet normal 0.707107 0.707107 0
    outer loop
      vertex 7.79996 7.32465 10
      vertex 7.32465 7.79996 0
      vertex 7.32465 7.79996 10
    endloop
  endfacet
  facet normal 0.707107 0.707107 0
    outer loop
      vertex 7.32465 7.79996 0
      vertex 7.79996 7.32465 10
      vertex 7.79996 7.32465 0
    endloop
  endfacet
  facet normal 0.338737 0.940881 -0
    outer loop
      vertex 3.93893 9.94861 0
      vertex 3.30648 10.1763 10
      vertex 3.93893 9.94861 10
    endloop
  endfacet
  facet normal 0.338737 0.940881 0
    outer loop
      vertex 3.30648 10.1763 10
      vertex 3.93893 9.94861 0
      vertex 3.30648 10.1763 0
    endloop
  endfacet
  facet normal -0.999507 0.0314113 0
    outer loop
      vertex -10.7 0 0
      vertex -10.6789 0.671858 10
      vertex -10.6789 0.671858 0
    endloop
  endfacet
  facet normal -0.999507 0.0314113 0
    outer loop
      vertex -10.6789 0.671858 10
      vertex -10.7 0 0
      vertex -10.7 0 10
    endloop
  endfacet
  facet normal -0.940881 0.338737 0
    outer loop
      vertex -10.1763 3.30648 0
      vertex -9.94861 3.93893 10
      vertex -9.94861 3.93893 0
    endloop
  endfacet
  facet normal -0.940881 0.338737 0
    outer loop
      vertex -9.94861 3.93893 10
      vertex -10.1763 3.30648 0
      vertex -10.1763 3.30648 10
    endloop
  endfacet
  facet normal -0.860742 0.509042 0
    outer loop
      vertex -9.37648 5.15476 0
      vertex -9.03431 5.73335 10
      vertex -9.03431 5.73335 0
    endloop
  endfacet
  facet normal -0.860742 0.509042 0
    outer loop
      vertex -9.03431 5.73335 10
      vertex -9.37648 5.15476 0
      vertex -9.37648 5.15476 10
    endloop
  endfacet
  facet normal -0.45399 0.891007 0
    outer loop
      vertex -4.55584 9.68165 0
      vertex -5.15476 9.37648 10
      vertex -4.55584 9.68165 10
    endloop
  endfacet
  facet normal -0.45399 0.891007 0
    outer loop
      vertex -5.15476 9.37648 10
      vertex -4.55584 9.68165 0
      vertex -5.15476 9.37648 0
    endloop
  endfacet
  facet normal -0.661312 0.750111 0
    outer loop
      vertex -6.82044 8.24449 0
      vertex -7.32465 7.79996 10
      vertex -6.82044 8.24449 10
    endloop
  endfacet
  facet normal -0.661312 0.750111 0
    outer loop
      vertex -7.32465 7.79996 10
      vertex -6.82044 8.24449 0
      vertex -7.32465 7.79996 0
    endloop
  endfacet
  facet normal 0.999507 -0.0314113 0
    outer loop
      vertex 10.6789 -0.671858 10
      vertex 10.7 0 0
      vertex 10.7 0 10
    endloop
  endfacet
  facet normal 0.999507 -0.0314113 0
    outer loop
      vertex 10.7 0 0
      vertex 10.6789 -0.671858 10
      vertex 10.6789 -0.671858 0
    endloop
  endfacet
  facet normal 0.995562 -0.0941075 0
    outer loop
      vertex 10.6156 -1.34107 10
      vertex 10.6789 -0.671858 0
      vertex 10.6789 -0.671858 10
    endloop
  endfacet
  facet normal 0.995562 -0.0941075 0
    outer loop
      vertex 10.6789 -0.671858 0
      vertex 10.6156 -1.34107 10
      vertex 10.6156 -1.34107 0
    endloop
  endfacet
  facet normal 0.0314113 -0.999507 0
    outer loop
      vertex 0 -10.7 0
      vertex 0.671858 -10.6789 10
      vertex 0 -10.7 10
    endloop
  endfacet
  facet normal 0.0314113 -0.999507 0
    outer loop
      vertex 0.671858 -10.6789 10
      vertex 0 -10.7 0
      vertex 0.671858 -10.6789 0
    endloop
  endfacet
  facet normal 0.940881 -0.338737 0
    outer loop
      vertex 9.94861 -3.93893 10
      vertex 10.1763 -3.30648 0
      vertex 10.1763 -3.30648 10
    endloop
  endfacet
  facet normal 0.940881 -0.338737 0
    outer loop
      vertex 10.1763 -3.30648 0
      vertex 9.94861 -3.93893 10
      vertex 9.94861 -3.93893 0
    endloop
  endfacet
  facet normal 0.960294 -0.278991 0
    outer loop
      vertex 10.1763 -3.30648 10
      vertex 10.3638 -2.66098 0
      vertex 10.3638 -2.66098 10
    endloop
  endfacet
  facet normal 0.960294 -0.278991 0
    outer loop
      vertex 10.3638 -2.66098 0
      vertex 10.1763 -3.30648 10
      vertex 10.1763 -3.30648 0
    endloop
  endfacet
  facet normal 0.0941075 -0.995562 0
    outer loop
      vertex 0.671858 -10.6789 0
      vertex 1.34107 -10.6156 10
      vertex 0.671858 -10.6789 10
    endloop
  endfacet
  facet normal 0.0941075 -0.995562 0
    outer loop
      vertex 1.34107 -10.6156 10
      vertex 0.671858 -10.6789 0
      vertex 1.34107 -10.6156 0
    endloop
  endfacet
  facet normal 0.278991 -0.960294 0
    outer loop
      vertex 2.66098 -10.3638 0
      vertex 3.30648 -10.1763 10
      vertex 2.66098 -10.3638 10
    endloop
  endfacet
  facet normal 0.278991 -0.960294 0
    outer loop
      vertex 3.30648 -10.1763 10
      vertex 2.66098 -10.3638 0
      vertex 3.30648 -10.1763 0
    endloop
  endfacet
  facet normal 0.661312 -0.750111 0
    outer loop
      vertex 6.82044 -8.24449 0
      vertex 7.32465 -7.79996 10
      vertex 6.82044 -8.24449 10
    endloop
  endfacet
  facet normal 0.661312 -0.750111 0
    outer loop
      vertex 7.32465 -7.79996 10
      vertex 6.82044 -8.24449 0
      vertex 7.32465 -7.79996 0
    endloop
  endfacet
  facet normal 0.397148 -0.917754 0
    outer loop
      vertex 3.93893 -9.94861 0
      vertex 4.55584 -9.68165 10
      vertex 3.93893 -9.94861 10
    endloop
  endfacet
  facet normal 0.397148 -0.917754 0
    outer loop
      vertex 4.55584 -9.68165 10
      vertex 3.93893 -9.94861 0
      vertex 4.55584 -9.68165 0
    endloop
  endfacet
  facet normal 0.509042 -0.860742 0
    outer loop
      vertex 5.15476 -9.37648 0
      vertex 5.73335 -9.03431 10
      vertex 5.15476 -9.37648 10
    endloop
  endfacet
  facet normal 0.509042 -0.860742 0
    outer loop
      vertex 5.73335 -9.03431 10
      vertex 5.15476 -9.37648 0
      vertex 5.73335 -9.03431 0
    endloop
  endfacet
  facet normal 0.45399 -0.891007 0
    outer loop
      vertex 4.55584 -9.68165 0
      vertex 5.15476 -9.37648 10
      vertex 4.55584 -9.68165 10
    endloop
  endfacet
  facet normal 0.45399 -0.891007 0
    outer loop
      vertex 5.15476 -9.37648 10
      vertex 4.55584 -9.68165 0
      vertex 5.15476 -9.37648 0
    endloop
  endfacet
  facet normal 0.891007 -0.45399 0
    outer loop
      vertex 9.37648 -5.15476 10
      vertex 9.68165 -4.55584 0
      vertex 9.68165 -4.55584 10
    endloop
  endfacet
  facet normal 0.891007 -0.45399 0
    outer loop
      vertex 9.68165 -4.55584 0
      vertex 9.37648 -5.15476 10
      vertex 9.37648 -5.15476 0
    endloop
  endfacet
  facet normal 0.827081 -0.562083 0
    outer loop
      vertex 8.65648 -6.2893 10
      vertex 9.03431 -5.73335 0
      vertex 9.03431 -5.73335 10
    endloop
  endfacet
  facet normal 0.827081 -0.562083 0
    outer loop
      vertex 9.03431 -5.73335 0
      vertex 8.65648 -6.2893 10
      vertex 8.65648 -6.2893 0
    endloop
  endfacet
  facet normal 0.790155 -0.612907 0
    outer loop
      vertex 8.24449 -6.82044 10
      vertex 8.65648 -6.2893 0
      vertex 8.65648 -6.2893 10
    endloop
  endfacet
  facet normal 0.790155 -0.612907 0
    outer loop
      vertex 8.65648 -6.2893 0
      vertex 8.24449 -6.82044 10
      vertex 8.24449 -6.82044 0
    endloop
  endfacet
  facet normal -0.218144 -0.975917 0
    outer loop
      vertex -2.66098 -10.3638 0
      vertex -2.00498 -10.5105 10
      vertex -2.66098 -10.3638 10
    endloop
  endfacet
  facet normal -0.218144 -0.975917 -0
    outer loop
      vertex -2.00498 -10.5105 10
      vertex -2.66098 -10.3638 0
      vertex -2.00498 -10.5105 0
    endloop
  endfacet
  facet normal -0.338737 -0.940881 0
    outer loop
      vertex -3.93893 -9.94861 0
      vertex -3.30648 -10.1763 10
      vertex -3.93893 -9.94861 10
    endloop
  endfacet
  facet normal -0.338737 -0.940881 -0
    outer loop
      vertex -3.30648 -10.1763 10
      vertex -3.93893 -9.94861 0
      vertex -3.30648 -10.1763 0
    endloop
  endfacet
  facet normal -0.0941075 -0.995562 0
    outer loop
      vertex -1.34107 -10.6156 0
      vertex -0.671858 -10.6789 10
      vertex -1.34107 -10.6156 10
    endloop
  endfacet
  facet normal -0.0941075 -0.995562 -0
    outer loop
      vertex -0.671858 -10.6789 10
      vertex -1.34107 -10.6156 0
      vertex -0.671858 -10.6789 0
    endloop
  endfacet
  facet normal -0.278991 -0.960294 0
    outer loop
      vertex -3.30648 -10.1763 0
      vertex -2.66098 -10.3638 10
      vertex -3.30648 -10.1763 10
    endloop
  endfacet
  facet normal -0.278991 -0.960294 -0
    outer loop
      vertex -2.66098 -10.3638 10
      vertex -3.30648 -10.1763 0
      vertex -2.66098 -10.3638 0
    endloop
  endfacet
  facet normal -0.509042 -0.860742 0
    outer loop
      vertex -5.73335 -9.03431 0
      vertex -5.15476 -9.37648 10
      vertex -5.73335 -9.03431 10
    endloop
  endfacet
  facet normal -0.509042 -0.860742 -0
    outer loop
      vertex -5.15476 -9.37648 10
      vertex -5.73335 -9.03431 0
      vertex -5.15476 -9.37648 0
    endloop
  endfacet
  facet normal -0.562083 -0.827081 0
    outer loop
      vertex -6.2893 -8.65648 0
      vertex -5.73335 -9.03431 10
      vertex -6.2893 -8.65648 10
    endloop
  endfacet
  facet normal -0.562083 -0.827081 -0
    outer loop
      vertex -5.73335 -9.03431 10
      vertex -6.2893 -8.65648 0
      vertex -5.73335 -9.03431 0
    endloop
  endfacet
  facet normal -0.45399 -0.891007 0
    outer loop
      vertex -5.15476 -9.37648 0
      vertex -4.55584 -9.68165 10
      vertex -5.15476 -9.37648 10
    endloop
  endfacet
  facet normal -0.45399 -0.891007 -0
    outer loop
      vertex -4.55584 -9.68165 10
      vertex -5.15476 -9.37648 0
      vertex -4.55584 -9.68165 0
    endloop
  endfacet
  facet normal -0.707107 -0.707107 0
    outer loop
      vertex -7.32465 -7.79996 0
      vertex -7.79996 -7.32465 10
      vertex -7.79996 -7.32465 0
    endloop
  endfacet
  facet normal -0.707107 -0.707107 0
    outer loop
      vertex -7.79996 -7.32465 10
      vertex -7.32465 -7.79996 0
      vertex -7.32465 -7.79996 10
    endloop
  endfacet
  facet normal -0.940881 -0.338737 0
    outer loop
      vertex -9.94861 -3.93893 0
      vertex -10.1763 -3.30648 10
      vertex -10.1763 -3.30648 0
    endloop
  endfacet
  facet normal -0.940881 -0.338737 0
    outer loop
      vertex -10.1763 -3.30648 10
      vertex -9.94861 -3.93893 0
      vertex -9.94861 -3.93893 10
    endloop
  endfacet
  facet normal -0.999507 -0.0314113 0
    outer loop
      vertex -10.6789 -0.671858 0
      vertex -10.7 0 10
      vertex -10.7 0 0
    endloop
  endfacet
  facet normal -0.999507 -0.0314113 0
    outer loop
      vertex -10.7 0 10
      vertex -10.6789 -0.671858 0
      vertex -10.6789 -0.671858 10
    endloop
  endfacet
  facet normal 0 0 -1
    outer loop
      vertex 2.5 0 0
      vertex 10.7 0 0
      vertex 10.6789 -0.671858 0
    endloop
  endfacet
  facet normal 0 0 -1
    outer loop
      vertex 2.5 0 0
      vertex 10.6789 -0.671858 0
      vertex 10.6156 -1.34107 0
    endloop
  endfacet
  facet normal 0 0 -1
    outer loop
      vertex 10.7 0 0
      vertex 2.5 0 0
      vertex 10.6789 0.671858 0
    endloop
  endfacet
  facet normal 0 0 -1
    outer loop
      vertex 2.5 0 0
      vertex 10.6156 -1.34107 0
      vertex 10.5105 -2.00498 0
    endloop
  endfacet
  facet normal -0 0 -1
    outer loop
      vertex 10.6789 0.671858 0
      vertex 2.5 0 0
      vertex 10.6156 1.34107 0
    endloop
  endfacet
  facet normal 0 0 -1
    outer loop
      vertex 2.5 0 0
      vertex 10.5105 -2.00498 0
      vertex 10.3638 -2.66098 0
    endloop
  endfacet
  facet normal -0 0 -1
    outer loop
      vertex 10.6156 1.34107 0
      vertex 2.5 0 0
      vertex 10.5105 2.00498 0
    endloop
  endfacet
  facet normal 0 0 -1
    outer loop
      vertex 2.5 0 0
      vertex 10.3638 -2.66098 0
      vertex 10.1763 -3.30648 0
    endloop
  endfacet
  facet normal -0 0 -1
    outer loop
      vertex 10.5105 2.00498 0
      vertex 2.5 0 0
      vertex 10.3638 2.66098 0
    endloop
  endfacet
  facet normal 0 0 -1
    outer loop
      vertex 2.5 0 0
      vertex 10.1763 -3.30648 0
      vertex 9.94861 -3.93893 0
    endloop
  endfacet
  facet normal -0 0 -1
    outer loop
      vertex 10.3638 2.66098 0
      vertex 2.5 0 0
      vertex 10.1763 3.30648 0
    endloop
  endfacet
  facet normal 0 0 -1
    outer loop
      vertex 2.5 0 0
      vertex 9.94861 -3.93893 0
      vertex 9.68165 -4.55584 0
    endloop
  endfacet
  facet normal -0 0 -1
    outer loop
      vertex 10.1763 3.30648 0
      vertex 2.5 0 0
      vertex 9.94861 3.93893 0
    endloop
  endfacet
  facet normal 0 0 -1
    outer loop
      vertex 2.5 0 0
      vertex 9.68165 -4.55584 0
      vertex 9.37648 -5.15476 0
    endloop
  endfacet
  facet normal -0 0 -1
    outer loop
      vertex 9.94861 3.93893 0
      vertex 2.5 0 0
      vertex 9.68165 4.55584 0
    endloop
  endfacet
  facet normal 0 0 -1
    outer loop
      vertex 2.5 0 0
      vertex 9.37648 -5.15476 0
      vertex 9.03431 -5.73335 0
    endloop
  endfacet
  facet normal -0 0 -1
    outer loop
      vertex 9.68165 4.55584 0
      vertex 2.5 0 0
      vertex 9.37648 5.15476 0
    endloop
  endfacet
  facet normal 0 0 -1
    outer loop
      vertex 2.5 0 0
      vertex 9.03431 -5.73335 0
      vertex 8.65648 -6.2893 0
    endloop
  endfacet
  facet normal -0 0 -1
    outer loop
      vertex 9.37648 5.15476 0
      vertex 2.5 0 0
      vertex 9.03431 5.73335 0
    endloop
  endfacet
  facet normal 0 0 -1
    outer loop
      vertex 2.5 0 0
      vertex 8.65648 -6.2893 0
      vertex 8.24449 -6.82044 0
    endloop
  endfacet
  facet normal -0 0 -1
    outer loop
      vertex 9.03431 5.73335 0
      vertex 2.5 0 0
      vertex 8.65648 6.2893 0
    endloop
  endfacet
  facet normal 0 0 -1
    outer loop
      vertex 2.5 0 0
      vertex 8.24449 -6.82044 0
      vertex 7.79996 -7.32465 0
    endloop
  endfacet
  facet normal -0 0 -1
    outer loop
      vertex 8.65648 6.2893 0
      vertex 2.5 0 0
      vertex 8.24449 6.82044 0
    endloop
  endfacet
  facet normal 0 0 -1
    outer loop
      vertex 2.5 0 0
      vertex 7.79996 -7.32465 0
      vertex 7.32465 -7.79996 0
    endloop
  endfacet
  facet normal -0 0 -1
    outer loop
      vertex 8.24449 6.82044 0
      vertex 2.5 0 0
      vertex 7.79996 7.32465 0
    endloop
  endfacet
  facet normal 0 0 -1
    outer loop
      vertex 2.5 0 0
      vertex 7.32465 -7.79996 0
      vertex 6.82044 -8.24449 0
    endloop
  endfacet
  facet normal -0 0 -1
    outer loop
      vertex 7.79996 7.32465 0
      vertex 2.5 0 0
      vertex 7.32465 7.79996 0
    endloop
  endfacet
  facet normal 0 0 -1
    outer loop
      vertex 2.5 0 0
      vertex 6.82044 -8.24449 0
      vertex 6.2893 -8.65648 0
    endloop
  endfacet
  facet normal -0 0 -1
    outer loop
      vertex 7.32465 7.79996 0
      vertex 2.5 0 0
      vertex 6.82044 8.24449 0
    endloop
  endfacet
  facet normal 0 0 -1
    outer loop
      vertex 2.5 0 0
      vertex 6.2893 -8.65648 0
      vertex 5.73335 -9.03431 0
    endloop
  endfacet
  facet normal -0 0 -1
    outer loop
      vertex 6.82044 8.24449 0
      vertex 2.5 0 0
      vertex 6.2893 8.65648 0
    endloop
  endfacet
  facet normal 0 0 -1
    outer loop
      vertex 2.5 0 0
      vertex 5.73335 -9.03431 0
      vertex 5.15476 -9.37648 0
    endloop
  endfacet
  facet normal -0 0 -1
    outer loop
      vertex 6.2893 8.65648 0
      vertex 2.5 0 0
      vertex 5.73335 9.03431 0
    endloop
  endfacet
  facet normal 0 0 -1
    outer loop
      vertex 2.5 0 0
      vertex 5.15476 -9.37648 0
      vertex 4.55584 -9.68165 0
    endloop
  endfacet
  facet normal -0 0 -1
    outer loop
      vertex 5.73335 9.03431 0
      vertex 2.5 0 0
      vertex 5.15476 9.37648 0
    endloop
  endfacet
  facet normal 0 0 -1
    outer loop
      vertex 2.5 0 0
      vertex 4.55584 -9.68165 0
      vertex 3.93893 -9.94861 0
    endloop
  endfacet
  facet normal -0 0 -1
    outer loop
      vertex 5.15476 9.37648 0
      vertex 2.5 0 0
      vertex 4.55584 9.68165 0
    endloop
  endfacet
  facet normal 0 0 -1
    outer loop
      vertex 2.5 0 0
      vertex 3.93893 -9.94861 0
      vertex 3.30648 -10.1763 0
    endloop
  endfacet
  facet normal -0 0 -1
    outer loop
      vertex 4.55584 9.68165 0
      vertex 2.5 0 0
      vertex 3.93893 9.94861 0
    endloop
  endfacet
  facet normal 0 0 -1
    outer loop
      vertex 2.5 0 0
      vertex 3.30648 -10.1763 0
      vertex 2.66098 -10.3638 0
    endloop
  endfacet
  facet normal -0 0 -1
    outer loop
      vertex 3.93893 9.94861 0
      vertex 2.5 0 0
      vertex 3.30648 10.1763 0
    endloop
  endfacet
  facet normal -0 0 -1
    outer loop
      vertex 3.30648 10.1763 0
      vertex 2.5 0 0
      vertex 2.66098 10.3638 0
    endloop
  endfacet
  facet normal 0 0 -1
    outer loop
      vertex 2.00498 -10.5105 0
      vertex 2.5 0 0
      vertex 2.66098 -10.3638 0
    endloop
  endfacet
  facet normal 0 0 -1
    outer loop
      vertex 1.34107 -10.6156 0
      vertex 2.5 0 0
      vertex 2.00498 -10.5105 0
    endloop
  endfacet
  facet normal 0 0 -1
    outer loop
      vertex 0.671858 -10.6789 0
      vertex 2.5 0 0
      vertex 1.34107 -10.6156 0
    endloop
  endfacet
  facet normal 0 0 -1
    outer loop
      vertex 0 -10.7 0
      vertex 2.5 0 0
      vertex 0.671858 -10.6789 0
    endloop
  endfacet
  facet normal 0 0 -1
    outer loop
      vertex -2.5 0 0
      vertex 0 -10.7 0
      vertex -0.671858 -10.6789 0
    endloop
  endfacet
  facet normal 0 0 -1
    outer loop
      vertex -2.5 0 0
      vertex -0.671858 -10.6789 0
      vertex -1.34107 -10.6156 0
    endloop
  endfacet
  facet normal 0 0 -1
    outer loop
      vertex -2.5 0 0
      vertex -1.34107 -10.6156 0
      vertex -2.00498 -10.5105 0
    endloop
  endfacet
  facet normal 0 0 -1
    outer loop
      vertex 0 -10.7 0
      vertex -2.5 0 0
      vertex 2.5 0 0
    endloop
  endfacet
  facet normal 0 0 -1
    outer loop
      vertex -2.66098 -10.3638 0
      vertex -2.5 0 0
      vertex -2.00498 -10.5105 0
    endloop
  endfacet
  facet normal 0 0 -1
    outer loop
      vertex -3.30648 -10.1763 0
      vertex -2.5 0 0
      vertex -2.66098 -10.3638 0
    endloop
  endfacet
  facet normal 0 0 -1
    outer loop
      vertex -3.93893 -9.94861 0
      vertex -2.5 0 0
      vertex -3.30648 -10.1763 0
    endloop
  endfacet
  facet normal 0 -0 -1
    outer loop
      vertex -2.66098 10.3638 0
      vertex -2.5 0 0
      vertex -3.30648 10.1763 0
    endloop
  endfacet
  facet normal 0 0 -1
    outer loop
      vertex -2.5 0 0
      vertex -2.66098 10.3638 0
      vertex -2.5 10.3998 0
    endloop
  endfacet
  facet normal 0 0 -1
    outer loop
      vertex -4.55584 -9.68165 0
      vertex -2.5 0 0
      vertex -3.93893 -9.94861 0
    endloop
  endfacet
  facet normal 0 0 -1
    outer loop
      vertex -2.5 0 0
      vertex -3.93893 9.94861 0
      vertex -3.30648 10.1763 0
    endloop
  endfacet
  facet normal 0 0 -1
    outer loop
      vertex -5.15476 -9.37648 0
      vertex -2.5 0 0
      vertex -4.55584 -9.68165 0
    endloop
  endfacet
  facet normal 0 0 -1
    outer loop
      vertex -2.5 0 0
      vertex -4.55584 9.68165 0
      vertex -3.93893 9.94861 0
    endloop
  endfacet
  facet normal 0 0 -1
    outer loop
      vertex -5.73335 -9.03431 0
      vertex -2.5 0 0
      vertex -5.15476 -9.37648 0
    endloop
  endfacet
  facet normal 0 0 -1
    outer loop
      vertex -2.5 0 0
      vertex -5.15476 9.37648 0
      vertex -4.55584 9.68165 0
    endloop
  endfacet
  facet normal 0 0 -1
    outer loop
      vertex -6.2893 -8.65648 0
      vertex -2.5 0 0
      vertex -5.73335 -9.03431 0
    endloop
  endfacet
  facet normal 0 0 -1
    outer loop
      vertex -2.5 0 0
      vertex -5.73335 9.03431 0
      vertex -5.15476 9.37648 0
    endloop
  endfacet
  facet normal 0 0 -1
    outer loop
      vertex -6.82044 -8.24449 0
      vertex -2.5 0 0
      vertex -6.2893 -8.65648 0
    endloop
  endfacet
  facet normal 0 0 -1
    outer loop
      vertex -2.5 0 0
      vertex -6.2893 8.65648 0
      vertex -5.73335 9.03431 0
    endloop
  endfacet
  facet normal 0 0 -1
    outer loop
      vertex -7.32465 -7.79996 0
      vertex -2.5 0 0
      vertex -6.82044 -8.24449 0
    endloop
  endfacet
  facet normal 0 0 -1
    outer loop
      vertex -2.5 0 0
      vertex -6.82044 8.24449 0
      vertex -6.2893 8.65648 0
    endloop
  endfacet
  facet normal 0 0 -1
    outer loop
      vertex -7.79996 -7.32465 0
      vertex -2.5 0 0
      vertex -7.32465 -7.79996 0
    endloop
  endfacet
  facet normal 0 0 -1
    outer loop
      vertex -2.5 0 0
      vertex -7.32465 7.79996 0
      vertex -6.82044 8.24449 0
    endloop
  endfacet
  facet normal 0 0 -1
    outer loop
      vertex -8.24449 -6.82044 0
      vertex -2.5 0 0
      vertex -7.79996 -7.32465 0
    endloop
  endfacet
  facet normal 0 0 -1
    outer loop
      vertex -2.5 0 0
      vertex -7.79996 7.32465 0
      vertex -7.32465 7.79996 0
    endloop
  endfacet
  facet normal 0 0 -1
    outer loop
      vertex -8.65648 -6.2893 0
      vertex -2.5 0 0
      vertex -8.24449 -6.82044 0
    endloop
  endfacet
  facet normal 0 0 -1
    outer loop
      vertex -2.5 0 0
      vertex -8.24449 6.82044 0
      vertex -7.79996 7.32465 0
    endloop
  endfacet
  facet normal 0 0 -1
    outer loop
      vertex -9.03431 -5.73335 0
      vertex -2.5 0 0
      vertex -8.65648 -6.2893 0
    endloop
  endfacet
  facet normal 0 0 -1
    outer loop
      vertex -2.5 0 0
      vertex -8.65648 6.2893 0
      vertex -8.24449 6.82044 0
    endloop
  endfacet
  facet normal 0 0 -1
    outer loop
      vertex -9.37648 -5.15476 0
      vertex -2.5 0 0
      vertex -9.03431 -5.73335 0
    endloop
  endfacet
  facet normal 0 0 -1
    outer loop
      vertex -2.5 0 0
      vertex -9.03431 5.73335 0
      vertex -8.65648 6.2893 0
    endloop
  endfacet
  facet normal 0 0 -1
    outer loop
      vertex -9.68165 -4.55584 0
      vertex -2.5 0 0
      vertex -9.37648 -5.15476 0
    endloop
  endfacet
  facet normal 0 0 -1
    outer loop
      vertex -2.5 0 0
      vertex -9.37648 5.15476 0
      vertex -9.03431 5.73335 0
    endloop
  endfacet
  facet normal 0 0 -1
    outer loop
      vertex -9.94861 -3.93893 0
      vertex -2.5 0 0
      vertex -9.68165 -4.55584 0
    endloop
  endfacet
  facet normal 0 0 -1
    outer loop
      vertex -2.5 0 0
      vertex -9.68165 4.55584 0
      vertex -9.37648 5.15476 0
    endloop
  endfacet
  facet normal 0 0 -1
    outer loop
      vertex -10.1763 -3.30648 0
      vertex -2.5 0 0
      vertex -9.94861 -3.93893 0
    endloop
  endfacet
  facet normal 0 0 -1
    outer loop
      vertex -2.5 0 0
      vertex -9.94861 3.93893 0
      vertex -9.68165 4.55584 0
    endloop
  endfacet
  facet normal 0 0 -1
    outer loop
      vertex -10.3638 -2.66098 0
      vertex -2.5 0 0
      vertex -10.1763 -3.30648 0
    endloop
  endfacet
  facet normal 0 0 -1
    outer loop
      vertex -2.5 0 0
      vertex -10.1763 3.30648 0
      vertex -9.94861 3.93893 0
    endloop
  endfacet
  facet normal 0 0 -1
    outer loop
      vertex -10.5105 -2.00498 0
      vertex -2.5 0 0
      vertex -10.3638 -2.66098 0
    endloop
  endfacet
  facet normal 0 0 -1
    outer loop
      vertex -2.5 0 0
      vertex -10.3638 2.66098 0
      vertex -10.1763 3.30648 0
    endloop
  endfacet
  facet normal 0 0 -1
    outer loop
      vertex -10.6156 -1.34107 0
      vertex -2.5 0 0
      vertex -10.5105 -2.00498 0
    endloop
  endfacet
  facet normal 0 0 -1
    outer loop
      vertex -2.5 0 0
      vertex -10.5105 2.00498 0
      vertex -10.3638 2.66098 0
    endloop
  endfacet
  facet normal 0 0 -1
    outer loop
      vertex -10.6789 -0.671858 0
      vertex -2.5 0 0
      vertex -10.6156 -1.34107 0
    endloop
  endfacet
  facet normal 0 0 -1
    outer loop
      vertex -2.5 0 0
      vertex -10.6156 1.34107 0
      vertex -10.5105 2.00498 0
    endloop
  endfacet
  facet normal 0 0 -1
    outer loop
      vertex -10.7 0 0
      vertex -2.5 0 0
      vertex -10.6789 -0.671858 0
    endloop
  endfacet
  facet normal 0 0 -1
    outer loop
      vertex -2.5 0 0
      vertex -10.6789 0.671858 0
      vertex -10.6156 1.34107 0
    endloop
  endfacet
  facet normal 0 0 -1
    outer loop
      vertex -2.5 0 0
      vertex -10.7 0 0
      vertex -10.6789 0.671858 0
    endloop
  endfacet
  facet normal -0 0 -1
    outer loop
      vertex 2.66098 10.3638 0
      vertex 2.5 0 0
      vertex 2.5 10.3998 0
    endloop
  endfacet
  facet normal -0.860742 -0.509042 0
    outer loop
      vertex -9.03431 -5.73335 0
      vertex -9.37648 -5.15476 10
      vertex -9.37648 -5.15476 0
    endloop
  endfacet
  facet normal -0.860742 -0.509042 0
    outer loop
      vertex -9.37648 -5.15476 10
      vertex -9.03431 -5.73335 0
      vertex -9.03431 -5.73335 10
    endloop
  endfacet
  facet normal -0.917754 -0.397148 0
    outer loop
      vertex -9.68165 -4.55584 0
      vertex -9.94861 -3.93893 10
      vertex -9.94861 -3.93893 0
    endloop
  endfacet
  facet normal -0.917754 -0.397148 0
    outer loop
      vertex -9.94861 -3.93893 10
      vertex -9.68165 -4.55584 0
      vertex -9.68165 -4.55584 10
    endloop
  endfacet
  facet normal -0.750111 -0.661312 0
    outer loop
      vertex -7.79996 -7.32465 0
      vertex -8.24449 -6.82044 10
      vertex -8.24449 -6.82044 0
    endloop
  endfacet
  facet normal -0.750111 -0.661312 0
    outer loop
      vertex -8.24449 -6.82044 10
      vertex -7.79996 -7.32465 0
      vertex -7.79996 -7.32465 10
    endloop
  endfacet
  facet normal -0.790155 -0.612907 0
    outer loop
      vertex -8.24449 -6.82044 0
      vertex -8.65648 -6.2893 10
      vertex -8.65648 -6.2893 0
    endloop
  endfacet
  facet normal -0.790155 -0.612907 0
    outer loop
      vertex -8.65648 -6.2893 10
      vertex -8.24449 -6.82044 0
      vertex -8.24449 -6.82044 10
    endloop
  endfacet
  facet normal 0.860742 0.509042 0
    outer loop
      vertex 9.37648 5.15476 10
      vertex 9.03431 5.73335 0
      vertex 9.03431 5.73335 10
    endloop
  endfacet
  facet normal 0.860742 0.509042 0
    outer loop
      vertex 9.03431 5.73335 0
      vertex 9.37648 5.15476 10
      vertex 9.37648 5.15476 0
    endloop
  endfacet
  facet normal 0.45399 0.891007 -0
    outer loop
      vertex 5.15476 9.37648 0
      vertex 4.55584 9.68165 10
      vertex 5.15476 9.37648 10
    endloop
  endfacet
  facet normal 0.45399 0.891007 0
    outer loop
      vertex 4.55584 9.68165 10
      vertex 5.15476 9.37648 0
      vertex 4.55584 9.68165 0
    endloop
  endfacet
  facet normal 0 0 1
    outer loop
      vertex -2.5 10.3998 10
      vertex -2.66098 10.3638 10
      vertex -2.5 0 10
    endloop
  endfacet
  facet normal 0 0 1
    outer loop
      vertex 2.5 0 10
      vertex 10.7 0 10
      vertex 10.6789 0.671858 10
    endloop
  endfacet
  facet normal 0 0 1
    outer loop
      vertex 2.5 0 10
      vertex 10.6789 0.671858 10
      vertex 10.6156 1.34107 10
    endloop
  endfacet
  facet normal 0 0 1
    outer loop
      vertex 10.7 0 10
      vertex 2.5 0 10
      vertex 10.6789 -0.671858 10
    endloop
  endfacet
  facet normal 0 0 1
    outer loop
      vertex 2.5 0 10
      vertex 10.6156 1.34107 10
      vertex 10.5105 2.00498 10
    endloop
  endfacet
  facet normal 0 0 1
    outer loop
      vertex 10.6789 -0.671858 10
      vertex 2.5 0 10
      vertex 10.6156 -1.34107 10
    endloop
  endfacet
  facet normal 0 0 1
    outer loop
      vertex 2.5 0 10
      vertex 10.5105 2.00498 10
      vertex 10.3638 2.66098 10
    endloop
  endfacet
  facet normal 0 0 1
    outer loop
      vertex 10.6156 -1.34107 10
      vertex 2.5 0 10
      vertex 10.5105 -2.00498 10
    endloop
  endfacet
  facet normal 0 0 1
    outer loop
      vertex 2.5 0 10
      vertex 10.3638 2.66098 10
      vertex 10.1763 3.30648 10
    endloop
  endfacet
  facet normal 0 0 1
    outer loop
      vertex 10.5105 -2.00498 10
      vertex 2.5 0 10
      vertex 10.3638 -2.66098 10
    endloop
  endfacet
  facet normal 0 0 1
    outer loop
      vertex 2.5 0 10
      vertex 10.1763 3.30648 10
      vertex 9.94861 3.93893 10
    endloop
  endfacet
  facet normal 0 0 1
    outer loop
      vertex 10.3638 -2.66098 10
      vertex 2.5 0 10
      vertex 10.1763 -3.30648 10
    endloop
  endfacet
  facet normal 0 0 1
    outer loop
      vertex 2.5 0 10
      vertex 9.94861 3.93893 10
      vertex 9.68165 4.55584 10
    endloop
  endfacet
  facet normal 0 0 1
    outer loop
      vertex 10.1763 -3.30648 10
      vertex 2.5 0 10
      vertex 9.94861 -3.93893 10
    endloop
  endfacet
  facet normal 0 0 1
    outer loop
      vertex 2.5 0 10
      vertex 9.68165 4.55584 10
      vertex 9.37648 5.15476 10
    endloop
  endfacet
  facet normal 0 0 1
    outer loop
      vertex 9.94861 -3.93893 10
      vertex 2.5 0 10
      vertex 9.68165 -4.55584 10
    endloop
  endfacet
  facet normal 0 0 1
    outer loop
      vertex 2.5 0 10
      vertex 9.37648 5.15476 10
      vertex 9.03431 5.73335 10
    endloop
  endfacet
  facet normal 0 0 1
    outer loop
      vertex 9.68165 -4.55584 10
      vertex 2.5 0 10
      vertex 9.37648 -5.15476 10
    endloop
  endfacet
  facet normal 0 0 1
    outer loop
      vertex 2.5 0 10
      vertex 9.03431 5.73335 10
      vertex 8.65648 6.2893 10
    endloop
  endfacet
  facet normal 0 0 1
    outer loop
      vertex 9.37648 -5.15476 10
      vertex 2.5 0 10
      vertex 9.03431 -5.73335 10
    endloop
  endfacet
  facet normal 0 0 1
    outer loop
      vertex 2.5 0 10
      vertex 8.65648 6.2893 10
      vertex 8.24449 6.82044 10
    endloop
  endfacet
  facet normal 0 0 1
    outer loop
      vertex 9.03431 -5.73335 10
      vertex 2.5 0 10
      vertex 8.65648 -6.2893 10
    endloop
  endfacet
  facet normal 0 0 1
    outer loop
      vertex 2.5 0 10
      vertex 8.24449 6.82044 10
      vertex 7.79996 7.32465 10
    endloop
  endfacet
  facet normal 0 0 1
    outer loop
      vertex 8.65648 -6.2893 10
      vertex 2.5 0 10
      vertex 8.24449 -6.82044 10
    endloop
  endfacet
  facet normal 0 0 1
    outer loop
      vertex 2.5 0 10
      vertex 7.79996 7.32465 10
      vertex 7.32465 7.79996 10
    endloop
  endfacet
  facet normal 0 0 1
    outer loop
      vertex 8.24449 -6.82044 10
      vertex 2.5 0 10
      vertex 7.79996 -7.32465 10
    endloop
  endfacet
  facet normal 0 0 1
    outer loop
      vertex 2.5 0 10
      vertex 7.32465 7.79996 10
      vertex 6.82044 8.24449 10
    endloop
  endfacet
  facet normal 0 0 1
    outer loop
      vertex 7.79996 -7.32465 10
      vertex 2.5 0 10
      vertex 7.32465 -7.79996 10
    endloop
  endfacet
  facet normal 0 0 1
    outer loop
      vertex 2.5 0 10
      vertex 6.82044 8.24449 10
      vertex 6.2893 8.65648 10
    endloop
  endfacet
  facet normal 0 0 1
    outer loop
      vertex 7.32465 -7.79996 10
      vertex 2.5 0 10
      vertex 6.82044 -8.24449 10
    endloop
  endfacet
  facet normal 0 0 1
    outer loop
      vertex 2.5 0 10
      vertex 6.2893 8.65648 10
      vertex 5.73335 9.03431 10
    endloop
  endfacet
  facet normal 0 0 1
    outer loop
      vertex 6.82044 -8.24449 10
      vertex 2.5 0 10
      vertex 6.2893 -8.65648 10
    endloop
  endfacet
  facet normal 0 0 1
    outer loop
      vertex 2.5 0 10
      vertex 5.73335 9.03431 10
      vertex 5.15476 9.37648 10
    endloop
  endfacet
  facet normal 0 0 1
    outer loop
      vertex 6.2893 -8.65648 10
      vertex 2.5 0 10
      vertex 5.73335 -9.03431 10
    endloop
  endfacet
  facet normal 0 0 1
    outer loop
      vertex 2.5 0 10
      vertex 5.15476 9.37648 10
      vertex 4.55584 9.68165 10
    endloop
  endfacet
  facet normal 0 0 1
    outer loop
      vertex 5.73335 -9.03431 10
      vertex 2.5 0 10
      vertex 5.15476 -9.37648 10
    endloop
  endfacet
  facet normal 0 0 1
    outer loop
      vertex 2.5 0 10
      vertex 4.55584 9.68165 10
      vertex 3.93893 9.94861 10
    endloop
  endfacet
  facet normal 0 0 1
    outer loop
      vertex 5.15476 -9.37648 10
      vertex 2.5 0 10
      vertex 4.55584 -9.68165 10
    endloop
  endfacet
  facet normal 0 0 1
    outer loop
      vertex 2.5 0 10
      vertex 3.93893 9.94861 10
      vertex 3.30648 10.1763 10
    endloop
  endfacet
  facet normal 0 0 1
    outer loop
      vertex 4.55584 -9.68165 10
      vertex 2.5 0 10
      vertex 3.93893 -9.94861 10
    endloop
  endfacet
  facet normal 0 0 1
    outer loop
      vertex 2.5 0 10
      vertex 3.30648 10.1763 10
      vertex 2.66098 10.3638 10
    endloop
  endfacet
  facet normal 0 0 1
    outer loop
      vertex 3.93893 -9.94861 10
      vertex 2.5 0 10
      vertex 3.30648 -10.1763 10
    endloop
  endfacet
  facet normal 0 0 1
    outer loop
      vertex 2.5 0 10
      vertex 2.66098 10.3638 10
      vertex 2.5 10.3998 10
    endloop
  endfacet
  facet normal 0 0 1
    outer loop
      vertex 3.30648 -10.1763 10
      vertex 2.5 0 10
      vertex 2.66098 -10.3638 10
    endloop
  endfacet
  facet normal 0 0 1
    outer loop
      vertex 2.5 0 10
      vertex 2.00498 -10.5105 10
      vertex 2.66098 -10.3638 10
    endloop
  endfacet
  facet normal 0 0 1
    outer loop
      vertex 2.5 0 10
      vertex 1.34107 -10.6156 10
      vertex 2.00498 -10.5105 10
    endloop
  endfacet
  facet normal 0 0 1
    outer loop
      vertex 2.5 0 10
      vertex 0.671858 -10.6789 10
      vertex 1.34107 -10.6156 10
    endloop
  endfacet
  facet normal 0 0 1
    outer loop
      vertex 2.5 0 10
      vertex 0 -10.7 10
      vertex 0.671858 -10.6789 10
    endloop
  endfacet
  facet normal -0 0 1
    outer loop
      vertex -2.5 0 10
      vertex 0 -10.7 10
      vertex 2.5 0 10
    endloop
  endfacet
  facet normal 0 0 1
    outer loop
      vertex 0 -10.7 10
      vertex -2.5 0 10
      vertex -0.671858 -10.6789 10
    endloop
  endfacet
  facet normal 0 0 1
    outer loop
      vertex -0.671858 -10.6789 10
      vertex -2.5 0 10
      vertex -1.34107 -10.6156 10
    endloop
  endfacet
  facet normal 0 0 1
    outer loop
      vertex -1.34107 -10.6156 10
      vertex -2.5 0 10
      vertex -2.00498 -10.5105 10
    endloop
  endfacet
  facet normal 0 0 1
    outer loop
      vertex -2.5 0 10
      vertex -2.66098 -10.3638 10
      vertex -2.00498 -10.5105 10
    endloop
  endfacet
  facet normal -0 0 1
    outer loop
      vertex -3.30648 10.1763 10
      vertex -2.5 0 10
      vertex -2.66098 10.3638 10
    endloop
  endfacet
  facet normal -0 0 1
    outer loop
      vertex -3.93893 9.94861 10
      vertex -2.5 0 10
      vertex -3.30648 10.1763 10
    endloop
  endfacet
  facet normal 0 0 1
    outer loop
      vertex -2.5 0 10
      vertex -3.30648 -10.1763 10
      vertex -2.66098 -10.3638 10
    endloop
  endfacet
  facet normal -0 0 1
    outer loop
      vertex -4.55584 9.68165 10
      vertex -2.5 0 10
      vertex -3.93893 9.94861 10
    endloop
  endfacet
  facet normal 0 0 1
    outer loop
      vertex -2.5 0 10
      vertex -3.93893 -9.94861 10
      vertex -3.30648 -10.1763 10
    endloop
  endfacet
  facet normal -0 0 1
    outer loop
      vertex -5.15476 9.37648 10
      vertex -2.5 0 10
      vertex -4.55584 9.68165 10
    endloop
  endfacet
  facet normal 0 0 1
    outer loop
      vertex -2.5 0 10
      vertex -4.55584 -9.68165 10
      vertex -3.93893 -9.94861 10
    endloop
  endfacet
  facet normal -0 0 1
    outer loop
      vertex -5.73335 9.03431 10
      vertex -2.5 0 10
      vertex -5.15476 9.37648 10
    endloop
  endfacet
  facet normal 0 0 1
    outer loop
      vertex -2.5 0 10
      vertex -5.15476 -9.37648 10
      vertex -4.55584 -9.68165 10
    endloop
  endfacet
  facet normal -0 0 1
    outer loop
      vertex -6.2893 8.65648 10
      vertex -2.5 0 10
      vertex -5.73335 9.03431 10
    endloop
  endfacet
  facet normal 0 0 1
    outer loop
      vertex -2.5 0 10
      vertex -5.73335 -9.03431 10
      vertex -5.15476 -9.37648 10
    endloop
  endfacet
  facet normal -0 0 1
    outer loop
      vertex -6.82044 8.24449 10
      vertex -2.5 0 10
      vertex -6.2893 8.65648 10
    endloop
  endfacet
  facet normal 0 0 1
    outer loop
      vertex -2.5 0 10
      vertex -6.2893 -8.65648 10
      vertex -5.73335 -9.03431 10
    endloop
  endfacet
  facet normal -0 0 1
    outer loop
      vertex -7.32465 7.79996 10
      vertex -2.5 0 10
      vertex -6.82044 8.24449 10
    endloop
  endfacet
  facet normal 0 0 1
    outer loop
      vertex -2.5 0 10
      vertex -6.82044 -8.24449 10
      vertex -6.2893 -8.65648 10
    endloop
  endfacet
  facet normal -0 0 1
    outer loop
      vertex -7.79996 7.32465 10
      vertex -2.5 0 10
      vertex -7.32465 7.79996 10
    endloop
  endfacet
  facet normal 0 0 1
    outer loop
      vertex -2.5 0 10
      vertex -7.32465 -7.79996 10
      vertex -6.82044 -8.24449 10
    endloop
  endfacet
  facet normal -0 0 1
    outer loop
      vertex -8.24449 6.82044 10
      vertex -2.5 0 10
      vertex -7.79996 7.32465 10
    endloop
  endfacet
  facet normal 0 0 1
    outer loop
      vertex -2.5 0 10
      vertex -7.79996 -7.32465 10
      vertex -7.32465 -7.79996 10
    endloop
  endfacet
  facet normal -0 0 1
    outer loop
      vertex -8.65648 6.2893 10
      vertex -2.5 0 10
      vertex -8.24449 6.82044 10
    endloop
  endfacet
  facet normal 0 0 1
    outer loop
      vertex -2.5 0 10
      vertex -8.24449 -6.82044 10
      vertex -7.79996 -7.32465 10
    endloop
  endfacet
  facet normal -0 0 1
    outer loop
      vertex -9.03431 5.73335 10
      vertex -2.5 0 10
      vertex -8.65648 6.2893 10
    endloop
  endfacet
  facet normal 0 0 1
    outer loop
      vertex -2.5 0 10
      vertex -8.65648 -6.2893 10
      vertex -8.24449 -6.82044 10
    endloop
  endfacet
  facet normal -0 0 1
    outer loop
      vertex -9.37648 5.15476 10
      vertex -2.5 0 10
      vertex -9.03431 5.73335 10
    endloop
  endfacet
  facet normal 0 0 1
    outer loop
      vertex -2.5 0 10
      vertex -9.03431 -5.73335 10
      vertex -8.65648 -6.2893 10
    endloop
  endfacet
  facet normal -0 0 1
    outer loop
      vertex -9.68165 4.55584 10
      vertex -2.5 0 10
      vertex -9.37648 5.15476 10
    endloop
  endfacet
  facet normal 0 0 1
    outer loop
      vertex -2.5 0 10
      vertex -9.37648 -5.15476 10
      vertex -9.03431 -5.73335 10
    endloop
  endfacet
  facet normal -0 0 1
    outer loop
      vertex -9.94861 3.93893 10
      vertex -2.5 0 10
      vertex -9.68165 4.55584 10
    endloop
  endfacet
  facet normal 0 0 1
    outer loop
      vertex -2.5 0 10
      vertex -9.68165 -4.55584 10
      vertex -9.37648 -5.15476 10
    endloop
  endfacet
  facet normal -0 0 1
    outer loop
      vertex -10.1763 3.30648 10
      vertex -2.5 0 10
      vertex -9.94861 3.93893 10
    endloop
  endfacet
  facet normal 0 0 1
    outer loop
      vertex -2.5 0 10
      vertex -9.94861 -3.93893 10
      vertex -9.68165 -4.55584 10
    endloop
  endfacet
  facet normal -0 0 1
    outer loop
      vertex -10.3638 2.66098 10
      vertex -2.5 0 10
      vertex -10.1763 3.30648 10
    endloop
  endfacet
  facet normal 0 0 1
    outer loop
      vertex -2.5 0 10
      vertex -10.1763 -3.30648 10
      vertex -9.94861 -3.93893 10
    endloop
  endfacet
  facet normal -0 0 1
    outer loop
      vertex -10.5105 2.00498 10
      vertex -2.5 0 10
      vertex -10.3638 2.66098 10
    endloop
  endfacet
  facet normal 0 0 1
    outer loop
      vertex -2.5 0 10
      vertex -10.3638 -2.66098 10
      vertex -10.1763 -3.30648 10
    endloop
  endfacet
  facet normal -0 0 1
    outer loop
      vertex -10.6156 1.34107 10
      vertex -2.5 0 10
      vertex -10.5105 2.00498 10
    endloop
  endfacet
  facet normal 0 0 1
    outer loop
      vertex -2.5 0 10
      vertex -10.5105 -2.00498 10
      vertex -10.3638 -2.66098 10
    endloop
  endfacet
  facet normal -0 0 1
    outer loop
      vertex -10.6789 0.671858 10
      vertex -2.5 0 10
      vertex -10.6156 1.34107 10
    endloop
  endfacet
  facet normal 0 0 1
    outer loop
      vertex -2.5 0 10
      vertex -10.6156 -1.34107 10
      vertex -10.5105 -2.00498 10
    endloop
  endfacet
  facet normal 0 0 1
    outer loop
      vertex -10.7 0 10
      vertex -2.5 0 10
      vertex -10.6789 0.671858 10
    endloop
  endfacet
  facet normal 0 0 1
    outer loop
      vertex -2.5 0 10
      vertex -10.6789 -0.671858 10
      vertex -10.6156 -1.34107 10
    endloop
  endfacet
  facet normal 0 0 1
    outer loop
      vertex -2.5 0 10
      vertex -10.7 0 10
      vertex -10.6789 -0.671858 10
    endloop
  endfacet
  facet normal -0.995562 0.0941075 0
    outer loop
      vertex -10.6789 0.671858 0
      vertex -10.6156 1.34107 10
      vertex -10.6156 1.34107 0
    endloop
  endfacet
  facet normal -0.995562 0.0941075 0
    outer loop
      vertex -10.6156 1.34107 10
      vertex -10.6789 0.671858 0
      vertex -10.6789 0.671858 10
    endloop
  endfacet
  facet normal -0.891007 0.45399 0
    outer loop
      vertex -9.68165 4.55584 0
      vertex -9.37648 5.15476 10
      vertex -9.37648 5.15476 0
    endloop
  endfacet
  facet normal -0.891007 0.45399 0
    outer loop
      vertex -9.37648 5.15476 10
      vertex -9.68165 4.55584 0
      vertex -9.68165 4.55584 10
    endloop
  endfacet
  facet normal -0.827081 0.562083 0
    outer loop
      vertex -9.03431 5.73335 0
      vertex -8.65648 6.2893 10
      vertex -8.65648 6.2893 0
    endloop
  endfacet
  facet normal -0.827081 0.562083 0
    outer loop
      vertex -8.65648 6.2893 10
      vertex -9.03431 5.73335 0
      vertex -9.03431 5.73335 10
    endloop
  endfacet
  facet normal -0.278991 0.960294 0
    outer loop
      vertex -2.66098 10.3638 0
      vertex -3.30648 10.1763 10
      vertex -2.66098 10.3638 10
    endloop
  endfacet
  facet normal -0.278991 0.960294 0
    outer loop
      vertex -3.30648 10.1763 10
      vertex -2.66098 10.3638 0
      vertex -3.30648 10.1763 0
    endloop
  endfacet
  facet normal 0.987688 -0.156435 0
    outer loop
      vertex 10.5105 -2.00498 10
      vertex 10.6156 -1.34107 0
      vertex 10.6156 -1.34107 10
    endloop
  endfacet
  facet normal 0.987688 -0.156435 0
    outer loop
      vertex 10.6156 -1.34107 0
      vertex 10.5105 -2.00498 10
      vertex 10.5105 -2.00498 0
    endloop
  endfacet
  facet normal -0.661312 -0.750111 0
    outer loop
      vertex -7.32465 -7.79996 0
      vertex -6.82044 -8.24449 10
      vertex -7.32465 -7.79996 10
    endloop
  endfacet
  facet normal -0.661312 -0.750111 -0
    outer loop
      vertex -6.82044 -8.24449 10
      vertex -7.32465 -7.79996 0
      vertex -6.82044 -8.24449 0
    endloop
  endfacet
  facet normal 1 -0 0
    outer loop
      vertex -2.5 0 10
      vertex -2.5 10.3998 0
      vertex -2.5 10.3998 10
    endloop
  endfacet
  facet normal 1 0 0
    outer loop
      vertex -2.5 10.3998 0
      vertex -2.5 0 10
      vertex -2.5 0 0
    endloop
  endfacet
  facet normal -1 0 0
    outer loop
      vertex 2.5 0 0
      vertex 2.5 10.3998 10
      vertex 2.5 10.3998 0
    endloop
  endfacet
  facet normal -1 -0 0
    outer loop
      vertex 2.5 10.3998 10
      vertex 2.5 0 0
      vertex 2.5 0 10
    endloop
  endfacet
  facet normal 0 1 -0
    outer loop
      vertex 2.5 0 0
      vertex -2.5 0 10
      vertex 2.5 0 10
    endloop
  endfacet
  facet normal 0 1 0
    outer loop
      vertex -2.5 0 10
      vertex 2.5 0 0
      vertex -2.5 0 0
    endloop
  endfacet
endsolid OpenSCAD_Model
