<?xml version="1.0" encoding="UTF-8" standalone="no"?>
<svg
   xmlns:dc="http://purl.org/dc/elements/1.1/"
   xmlns:cc="http://creativecommons.org/ns#"
   xmlns:rdf="http://www.w3.org/1999/02/22-rdf-syntax-ns#"
   xmlns:svg="http://www.w3.org/2000/svg"
   xmlns="http://www.w3.org/2000/svg"
   xmlns:sodipodi="http://sodipodi.sourceforge.net/DTD/sodipodi-0.dtd"
   xmlns:inkscape="http://www.inkscape.org/namespaces/inkscape"
   version="1.1"
   width="3.0632102cm"
   height="4.0284095cm"
   viewBox="0 0 12059.891 15859.895"
   id="svg2"
   inkscape:version="0.91 r13725"
   sodipodi:docname="RTC03A-MLABb.svg">
  <metadata
     id="metadata206">
    <rdf:RDF>
      <cc:Work
         rdf:about="">
        <dc:format>image/svg+xml</dc:format>
        <dc:type
           rdf:resource="http://purl.org/dc/dcmitype/StillImage" />
      </cc:Work>
    </rdf:RDF>
  </metadata>
  <defs
     id="defs204" />
  <sodipodi:namedview
     pagecolor="#ffffff"
     bordercolor="#666666"
     borderopacity="1"
     objecttolerance="10"
     gridtolerance="10"
     guidetolerance="10"
     inkscape:pageopacity="0"
     inkscape:pageshadow="2"
     inkscape:window-width="640"
     inkscape:window-height="480"
     id="namedview202"
     showgrid="false"
     inkscape:zoom="2.3261797"
     inkscape:cx="-3.9869267"
     inkscape:cy="70.979123"
     inkscape:window-x="57"
     inkscape:window-y="24"
     inkscape:window-maximized="0"
     inkscape:current-layer="svg2" />
  <title
     id="title4">SVG Picture created as RTC03A-MLABb.svg date 2017/11/06 10:15:26 </title>
  <desc
     id="desc6">Picture generated by PCBNEW </desc>
  <g
     style="fill:#000000;fill-opacity:1;stroke:#000000;stroke-linecap:round;stroke-linejoin:round;stroke-opacity:1"
     id="g8"
     transform="translate(-104900.07,15829.948)" />
  <g
     style="fill:#000000;fill-opacity:0;stroke:#000000;stroke-width:-0.0003937;stroke-linecap:round;stroke-linejoin:round;stroke-opacity:1"
     id="g10"
     transform="translate(-104900.07,15829.948)" />
  <g
     style="fill:#000000;fill-opacity:0;stroke:#000000;stroke-width:59.05509949;stroke-linecap:round;stroke-linejoin:round;stroke-opacity:1"
     id="g12"
     transform="translate(-104900.07,15829.948)">
    <path
       d="m 116930,0 0,-15800"
       id="path14"
       inkscape:connector-curvature="0" />
    <path
       d="m 104930,0 12000,0"
       id="path16"
       inkscape:connector-curvature="0" />
    <path
       d="m 104930,-15800 0,15800"
       id="path18"
       inkscape:connector-curvature="0" />
    <path
       d="m 116930,-15800 -12000,0"
       id="path20"
       inkscape:connector-curvature="0" />
    <path
       d="m 108530,-12000 0,400"
       id="path22"
       inkscape:connector-curvature="0" />
    <path
       d="m 107930,-12000 600,0"
       id="path24"
       inkscape:connector-curvature="0" />
    <path
       d="m 107930,-11600 0,-400"
       id="path26"
       inkscape:connector-curvature="0" />
    <path
       d="m 107930,-10800 0,-400"
       id="path28"
       inkscape:connector-curvature="0" />
    <path
       d="m 108530,-10800 -600,0"
       id="path30"
       inkscape:connector-curvature="0" />
    <path
       d="m 108530,-11200 0,400"
       id="path32"
       inkscape:connector-curvature="0" />
    <circle
       cx="108530"
       cy="-10750"
       r="50"
       id="circle34" />
    <path
       d="m 109630,-12000 0,400"
       id="path36"
       inkscape:connector-curvature="0" />
    <path
       d="m 109030,-12000 600,0"
       id="path38"
       inkscape:connector-curvature="0" />
    <path
       d="m 109030,-11600 0,-400"
       id="path40"
       inkscape:connector-curvature="0" />
    <path
       d="m 109030,-10800 0,-400"
       id="path42"
       inkscape:connector-curvature="0" />
    <path
       d="m 109630,-10800 -600,0"
       id="path44"
       inkscape:connector-curvature="0" />
    <path
       d="m 109630,-11200 0,400"
       id="path46"
       inkscape:connector-curvature="0" />
    <circle
       cx="109630"
       cy="-10750"
       r="50"
       id="circle48" />
    <path
       d="m 111074,-11587 0,-826"
       id="path50"
       inkscape:connector-curvature="0" />
    <path
       d="m 111468,-12394 -394,394"
       id="path52"
       inkscape:connector-curvature="0" />
    <path
       d="m 111468,-11606 0,-788"
       id="path54"
       inkscape:connector-curvature="0" />
    <path
       d="m 111074,-12020 394,414"
       id="path56"
       inkscape:connector-curvature="0" />
  </g>
  <g
     style="fill:#000000;fill-opacity:0;stroke:#000000;stroke-width:47.24409866;stroke-linecap:round;stroke-linejoin:round;stroke-opacity:1"
     id="g58"
     transform="translate(-104900.07,15829.948)">
    <path
       d="m 108395,-5496 0,393"
       id="path60"
       inkscape:connector-curvature="0" />
    <path
       d="m 109064,-5103 0,-393"
       id="path62"
       inkscape:connector-curvature="0" />
    <path
       d="m 110395,-5496 0,393"
       id="path64"
       inkscape:connector-curvature="0" />
    <path
       d="m 111064,-5103 0,-393"
       id="path66"
       inkscape:connector-curvature="0" />
  </g>
  <g
     style="fill:#000000;fill-opacity:0;stroke:#000000;stroke-width:59.05509949;stroke-linecap:round;stroke-linejoin:round;stroke-opacity:1"
     id="g68"
     transform="translate(-104900.07,15829.948)">
    <path
       d="m 109480,-8100 1500,0"
       id="path70"
       inkscape:connector-curvature="0" />
    <path
       d="m 109480,-10100 1500,0"
       id="path72"
       inkscape:connector-curvature="0" />
    <path
       d="m 109480,-10100 0,2000"
       id="path74"
       inkscape:connector-curvature="0" />
    <path
       d="m 110980,-10100 0,2000"
       id="path76"
       inkscape:connector-curvature="0" />
    <path
       d="m 109680,-10100 0,2000"
       id="path78"
       inkscape:connector-curvature="0" />
    <circle
       cx="109930"
       cy="-9850"
       r="50"
       id="circle80" />
    <path
       d="m 110730,-1700 400,0"
       id="path82"
       inkscape:connector-curvature="0" />
    <path
       d="m 110730,-1100 0,-600"
       id="path84"
       inkscape:connector-curvature="0" />
    <path
       d="m 111130,-1100 -400,0"
       id="path86"
       inkscape:connector-curvature="0" />
    <path
       d="m 111930,-1100 -400,0"
       id="path88"
       inkscape:connector-curvature="0" />
    <path
       d="m 111930,-1700 0,600"
       id="path90"
       inkscape:connector-curvature="0" />
    <path
       d="m 111530,-1700 400,0"
       id="path92"
       inkscape:connector-curvature="0" />
    <circle
       cx="111980"
       cy="-1700"
       r="50"
       id="circle94" />
    <path
       d="m 113230,-10300 0,400"
       id="path96"
       inkscape:connector-curvature="0" />
    <path
       d="m 112630,-10300 600,0"
       id="path98"
       inkscape:connector-curvature="0" />
    <path
       d="m 112630,-9900 0,-400"
       id="path100"
       inkscape:connector-curvature="0" />
    <path
       d="m 112630,-9100 0,-400"
       id="path102"
       inkscape:connector-curvature="0" />
    <path
       d="m 113230,-9100 -600,0"
       id="path104"
       inkscape:connector-curvature="0" />
    <path
       d="m 113230,-9500 0,400"
       id="path106"
       inkscape:connector-curvature="0" />
    <circle
       cx="113230"
       cy="-9050"
       r="50"
       id="circle108" />
    <circle
       cx="112630"
       cy="-8750"
       r="50"
       id="circle110" />
    <path
       d="m 112630,-8300 0,-400"
       id="path112"
       inkscape:connector-curvature="0" />
    <path
       d="m 112630,-8700 600,0"
       id="path114"
       inkscape:connector-curvature="0" />
    <path
       d="m 113230,-8700 0,400"
       id="path116"
       inkscape:connector-curvature="0" />
    <path
       d="m 113230,-7900 0,400"
       id="path118"
       inkscape:connector-curvature="0" />
    <path
       d="m 113230,-7500 -600,0"
       id="path120"
       inkscape:connector-curvature="0" />
    <path
       d="m 112630,-7500 0,-400"
       id="path122"
       inkscape:connector-curvature="0" />
  </g>
  <g
     style="fill:#000000;fill-op00
L109958 -9442
L109958 -9328
L109987 -9271
L110015 -9242
L110072 -9214
L110558 -9214
" />
<path d="M109958 -8614
L109958 -8957
" />
<path d="M109958 -8785
L110558 -8785
L110472 -8842
L110415 -8900
L110387 -8957
" />
</g>
<g style="fill:#000000; fill-opacity:0.0; 
stroke:#000000; stroke-width:43; stroke-opacity:1; 
stroke-linecap:round; stroke-linejoin:round;">
<path d="M111240 -1307
L111334 -1373
" />
<path d="M111240 -1420
L111437 -1420
L111437 -1345
L111428 -1326
L111419 -1317
L111400 -1307
L111372 -1307
L111353 -1317
L111344 -1326
L111334 -1345
L111334 -1420
" />
<path d="M111240 -1120
L111240 -1232
" />
<path d="M111240 -1176
L111437 -1176
L111409 -1195
L111390 -1214
L111381 -1232
" />
<path d="M111204 -1535
L111355 -1535
" />
<path d="M112772 -9610
L112706 -9704
" />
<path d="M112659 -9610
L112659 -9807
L112734 -9807
L112753 -9798
L112762 -9789
L112772 -9770
L112772 -9742
L112762 -9723
L112753 -9714
L112734 -9704
L112659 -9704
" />
<path d="M112847 -9789
L112856 -9798
L112875 -9807
L112922 -9807
L112941 -9798
L112950 -9789
L112959 -9770
L112959 -9751
L112950 -9723
L112837 -9610
L112959 -9610
" />
<path d="M112990 -9867
L112990 -9979
" />
<path d="M112990 -9923
L113187 -9923
L113159 -9942
L113140 -9961
L113131 -9979
" />
<path d="M113187 -9745
L113187 -9726
L113178 -9707
L113169 -9698
L113150 -9689
L113112 -9679
L113065 -9679
L113028 -9689
L113009 -9698
L113000 -9707
L112990 -9726
L112990 -9745
L113000 -9764
L113009 -9773
L113028 -9782
L113065 -9792
L113112 -9792
L113150 -9782
L113169 -9773
L113178 -9764
L113187 -9745
" />
<path d="M112990 -9595
L113187 -9595
" />
<path d="M113065 -9576
L112990 -9520
" />
<path d="M113122 -9520
L113047 -9595
" />
<path d="M113022 -8010
L112956 -8104
" />
<path d="M112909 -8010
L112909 -8207
L112984 -8207
L113003 -8198
L113012 -8189
L113022 -8170
L113022 -8142
L113012 -8123
L113003 -8114
L112984 -8104
L112909 -8104
" />
<path d="M113087 -8207
L113209 -8207
L113144 -8132
L113172 -8132
L113191 -8123
L113200 -8114
L113209 -8095
L113209 -8048
L113200 -8029
L113191 -8020
L113172 -8010
L113115 -8010
L113097 -8020
L113087 -8029
" />
<path d="M112662 -7960
L112550 -7960
" />
<path d="M112606 -7960
L112606 -8157
L112587 -8129
L112568 -8110
L112550 -8101
" />
<path d="M112784 -8157
L112803 -8157
L112822 -8148
L112831 -8139
L112840 -8120
L112850 -8082
L112850 -8035
L112840 -7998
L112831 -7979
L112822 -7970
L112803 -7960
L112784 -7960
L112765 -7970
L112756 -7979
L112747 -7998
L112737 -8035
L112737 -8082
L112747 -8120
L112756 -8139
L112765 -8148
L112784 -8157
" />
<path d="M112934 -7960
L112934 -8157
" />
<path d="M112953 -8035
L113009 -7960
" />
<path d="M113009 -8092
L112934 -8017
" />
</g> 
</svg>
d="m 110742,-12784 10,10 9,19 0,28 -9,18 -19,10 -103,0"
       id="path160"
       inkscape:connector-curvature="0" />
    <path
       d="m 110733,-12540 0,-65"
       id="path162"
       inkscape:connector-curvature="0" />
    <path
       d="m 110630,-12605 197,0 0,93"
       id="path164"
       inkscape:connector-curvature="0" />
  </g>
  <g
     style="fill:#000000;fill-opacity:0;stroke:#000000;stroke-width:120;stroke-linecap:round;stroke-linejoin:round;stroke-opacity:1"
     id="g166"
     transform="translate(-104900.07,15829.948)">
    <path
       d="m 110887,-10728 0,-600 143,0 85,28 57,58 29,57 29,114 0,86 -29,114 -29,57 -57,57 -85,29 -143,0"
       id="path168"
       inkscape:connector-curvature="0" />
    <path
       d="m 111801,-10728 -343,0"
       id="path170"
       inkscape:connector-curvature="0" />
    <path
       d="m 111630,-10728 0,-600 -58,86 -57,57 -57,28"
       id="path172"
       inkscape:connector-curvature="0" />
  </g>
  <g
     style="fill:#000000;fill-opacity:0;stroke:#000000;stroke-width:39;stroke-linecap:round;stroke-linejoin:round;stroke-opacity:1"
     id="g174"
     transform="translate(-104900.07,15829.948)">
    <path
       d="m 110569,-12520 0,-197"
       id="path176"
       inkscape:connector-curvature="0" />
    <path
       d="m 110681,-12520 -84,-113"
       id="path178"
       inkscape:connector-curvature="0" />
    <path
       d="m 110681,-12717 -112,112"
       id="path180"
       inkscape:connector-curvature="0" />
    <path
       d="m 111992,-12577 93,0"
       id="path182"
       inkscape:connector-curvature="0" />
    <path
       d="m 111973,-12520 66,-197 65,197"
       id="path184"
       inkscape:connector-curvature="0" />
  </g>
  <g
     style="fill:#000000;fill-opacity:0;stroke:#000000;stroke-width:59.05509949;stroke-linecap:round;stroke-linejoin:round;stroke-opacity:1"
     id="g186"
     transform="translate(-104900.07,15829.948)">
    <path
       d="m 109179,-5365 -18,-19 -19,-56 0,-38 19,-56 37,-37 38,-19 75,-19 56,0 75,19 37,19 38,37 19,56 0,38 -19,56 -19,19"
       id="path188"
       inkscape:connector-curvature="0" />
    <path
       d="m 109498,-5215 19,19 19,37 0,94 -19,37 -19,19 -37,19 -38,0 -56,-19 -225,-225 0,244"
       id="path190"
       inkscape:connector-curvature="0" />
    <path
       d="m 111179,-5365 -18,-19 -19,-56 0,-38 19,-56 37,-37 38,-19 75,-19 56,0 75,19 37,19 38,37 19,56 0,38 -19,56 -19,19"
       id="path192"
       inkscape:connector-curvature="0" />
    <path
       d="m 111142,-4990 0,-225"
       id="path194"
       inkscape:connector-curvature="0" />
    <path
       d="m 111142,-5103 394,0 -57,-37 -37,-38 -19,-37"
       id="path196"
       inkscape:connector-curvature="0" />
  </g>
</svg>
