<?xml version="1.0" encoding="UTF-8" standalone="no"?>
<svg
   xmlns:dc="http://purl.org/dc/elements/1.1/"
   xmlns:cc="http://creativecommons.org/ns#"
   xmlns:rdf="http://www.w3.org/1999/02/22-rdf-syntax-ns#"
   xmlns:svg="http://www.w3.org/2000/svg"
   xmlns="http://www.w3.org/2000/svg"
   xmlns:sodipodi="http://sodipodi.sourceforge.net/DTD/sodipodi-0.dtd"
   xmlns:inkscape="http://www.inkscape.org/namespaces/inkscape"
   version="1.1"
   width="3.0632102cm"
   height="4.0284095cm"
   viewBox="0 0 12059.891 15859.895"
   id="svg2"
   inkscape:version="0.91 r13725"
   sodipodi:docname="RTC03A-MLABa.svg">
  <metadata
     id="metadata390">
    <rdf:RDF>
      <cc:Work
         rdf:about="">
        <dc:format>image/svg+xml</dc:format>
        <dc:type
           rdf:resource="http://purl.org/dc/dcmitype/StillImage" />
      </cc:Work>
    </rdf:RDF>
  </metadata>
  <defs
     id="defs388" />
  <sodipodi:namedview
     pagecolor="#ffffff"
     bordercolor="#666666"
     borderopacity="1"
     objecttolerance="10"
     gridtolerance="10"
     guidetolerance="10"
     inkscape:pageopacity="0"
     inkscape:pageshadow="2"
     inkscape:window-width="640"
     inkscape:window-height="480"
     id="namedview386"
     showgrid="false"
     inkscape:zoom="0.29077246"
     inkscape:cx="526.45398"
     inkscape:cy="-371.79011"
     inkscape:window-x="57"
     inkscape:window-y="24"
     inkscape:window-maximized="0"
     inkscape:current-layer="svg2" />
  <title
     id="title4">SVG Picture created as RTC03A-MLABa.svg date 2017/11/06 10:15:23 </title>
  <desc
     id="desc6">Picture generated by PCBNEW </desc>
  <g
     style="fill:#000000;fill-opacity:1;stroke:#000000;stroke-linecap:round;stroke-linejoin:round;stroke-opacity:1"
     id="g8"
     transform="translate(29.92775,15829.948)" />
  <g
     style="fill:#000000;fill-opacity:0;stroke:#000000;stroke-width:-0.0003937;stroke-linecap:round;stroke-linejoin:round;stroke-opacity:1"
     id="g10"
     transform="translate(29.92775,15829.948)" />
  <g
     style="fill:#000000;fill-opacity:0;stroke:#000000;stroke-width:118.11000061;stroke-linecap:round;stroke-linejoin:round;stroke-opacity:1"
     id="g12"
     transform="translate(29.92775,15829.948)">
    <path
       d="m 11267,-4747 -282,197"
       id="path14"
       inkscape:connector-curvature="0" />
    <path
       d="m 11267,-4409 -591,0 0,-225 28,-56 28,-28 57,-29 84,0 56,29 28,28 28,56 0,225"
       id="path16"
       inkscape:connector-curvature="0" />
    <path
       d="m 10676,-4915 0,-338"
       id="path18"
       inkscape:connector-curvature="0" />
    <path
       d="m 11267,-5084 -591,0"
       id="path20"
       inkscape:connector-curvature="0" />
    <path
       d="m 11210,-5787 29,28 28,84 0,57 -28,84 -57,56 -56,28 -112,29 -85,0 -112,-29 -57,-28 -56,-56 -28,-84 0,-57 28,-84 28,-28"
       id="path22"
       inkscape:connector-curvature="0" />
    <path
       d="m 10676,-6153 0,-56 28,-56 28,-28 57,-28 112,-28 141,0 112,28 56,28 29,28 28,56 0,56 -28,57 -29,28 -56,28 -112,28 -141,0 -112,-28 -57,-28 -28,-28 -28,-57"
       id="path24"
       inkscape:connector-curvature="0" />
    <path
       d="m 10676,-6546 0,-366 225,197 0,-84 28,-57 28,-28 57,-28 140,0 56,28 29,28 28,57 0,168 -28,57 -29,28"
       id="path26"
       inkscape:connector-curvature="0" />
    <path
       d="m 11098,-7137 0,-281"
       id="path28"
       inkscape:connector-curvature="0" />
    <path
       d="m 11267,-7081 -591,-196 591,-197"
       id="path30"
       inkscape:connector-curvature="0" />
    <path
       d="m 10267,-4298 -591,0 422,-197 -422,-197 591,0"
       id="path32"
       inkscape:connector-curvature="0" />
    <path
       d="m 10267,-5254 0,281 -591,0"
       id="path34"
       inkscape:connector-curvature="0" />
    <path
       d="m 10098,-5423 0,-281"
       id="path36"
       inkscape:connector-curvature="0" />
    <path
       d="m 10267,-5367 -591,-197 591,-196"
       id="path38"
       inkscape:connector-curvature="0" />
    <path
       d="m 9957,-6154 28,-85 29,-28 56,-28 84,0 56,28 29,28 28,57 0,225 -591,0 0,-197 28,-56 28,-29 57,-28 56,0 56,28 28,29 28,56 0,197"
       id="path40"
       inkscape:connector-curvature="0" />
    <path
       d="m 10210,-6548 29,-28 28,28 -28,28 -29,-28 57,0"
       id="path42"
       inkscape:connector-curvature="0" />
    <path
       d="m 10210,-7167 29,29 28,84 0,56 -28,85 -57,56 -56,28 -112,28 -85,0 -112,-28 -57,-28 -56,-56 -28,-85 0,-56 28,-84 28,-29"
       id="path44"
       inkscape:connector-curvature="0" />
    <path
       d="m 9676,-7363 0,-394 591,394 0,-394"
       id="path46"
       inkscape:connector-curvature="0" />
  </g>
  <g
     style="fill:#000000;fill-opacity:0;stroke:#000000;stroke-width:78.74019623;stroke-linecap:round;stroke-linejoin:round;stroke-opacity:1"
     id="g48"
     transform="translate(29.92775,15829.948)">
    <path
       d="m 3759,-7421 19,-57 0,-93 -19,-38 -19,-19 -37,-18 -38,0 -37,18 -19,19 -19,38 -19,75 -18,37 -19,19 -38,19 -37,0 -38,-19 -18,-19 -19,-37 0,-94 19,-56"
       id="path50"
       inkscape:connector-curvature="0" />
    <path
       d="m 3778,-7815 -394,0 0,-94 19,-56 37,-38 38,-18 75,-19 56,0 75,19 37,18 38,38 19,56 0,94"
       id="path52"
       inkscape:connector-curvature="0" />
    <path
       d="m 3665,-8190 0,-188"
       id="path54"
       inkscape:connector-curvature="0" />
    <path
       d="m 3778,-8153 -394,-131 394,-131"
       id="path56"
       inkscape:connector-curvature="0" />
    <path
       d="m 3759,-9431 19,-56 0,-94 -19,-37 -19,-19 -37,-19 -38,0 -37,19 -19,19 -19,37 -19,75 -18,38 -19,18 -38,19 -37,0 -38,-19 -18,-18 -19,-38 0,-94 19,-56"
       id="path58"
       inkscape:connector-curvature="0" />
    <path
       d="m 3740,-10049 19,18 19,57 0,37 -19,56 -38,38 -37,18 -75,19 -56,0 -75,-19 -38,-18 -37,-38 -19,-56 0,-37 19,-57 18,-18"
       id="path60"
       inkscape:connector-curvature="0" />
    <path
       d="m 3778,-10406 0,188 -394,0"
       id="path62"
       inkscape:connector-curvature="0" />
    <path
       d="m 6984,-671 0,-75 19,-38 37,-37 75,-19 131,0 75,19 38,37 19,38 0,75 -19,37 -38,38 -75,18 -131,0 -75,-18 -37,-38 -19,-37"
       id="path64"
       inkscape:connector-curvature="0" />
    <path
       d="m 7359,-990 19,-56 0,-94 -19,-38 -19,-18 -37,-19 -38,0 -37,19 -19,18 -19,38 -19,75 -18,37 -19,19 -38,19 -37,0 -38,-19 -18,-19 -19,-37 0,-94 19,-56"
       id="path66"
       inkscape:connector-curvature="0" />
    <path
       d="m 7340,-1609 19,19 19,56 0,38 -19,56 -38,37 -37,19 -75,19 -56,0 -75,-19 -38,-19 -37,-37 -19,-56 0,-38 19,-56 18,-19"
       id="path68"
       inkscape:connector-curvature="0" />
    <path
       d="m 6984,-1853 0,-75 19,-37 37,-38 75,-18 131,0 75,18 38,38 19,37 0,75 -19,38 -38,37 -75,19 -131,0 -75,-19 -37,-37 -19,-38"
       id="path70"
       inkscape:connector-curvature="0" />
    <path
       d="m 5984,-884 0,-75 19,-37 37,-38 75,-19 131,0 75,19 38,38 19,37 0,75 -19,38 -38,37 -75,19 -131,0 -75,-19 -37,-37 -19,-38"
       id="path72"
       inkscape:connector-curvature="0" />
    <path
       d="m 6359,-1203 19,-56 0,-94 -19,-37 -19,-19 -37,-19 -38,0 -37,19 -19,19 -19,37 -19,75 -18,38 -19,19 -38,18 -37,0 -38,-18 -18,-19 -19,-38 0,-93 19,-57"
       id="path74"
       inkscape:connector-curvature="0" />
    <path
       d="m 6340,-1821 19,18 19,57 0,37 -19,56 -38,38 -37,19 -75,18 -56,0 -75,-18 -38,-19 -37,-38 -19,-56 0,-37 19,-57 18,-18"
       id="path76"
       inkscape:connector-curvature="0" />
    <path
       d="m 6378,-1990 -394,0"
       id="path78"
       inkscape:connector-curvature="0" />
    <path
       d="m 5115,-828 0,-281"
       id="path80"
       inkscape:connector-curvature="0" />
    <path
       d="m 4946,-940 507,112"
       id="path82"
       inkscape:connector-curvature="0" />
    <path
       d="m 5284,-1071 0,281"
       id="path84"
       inkscape:connector-curvature="0" />
    <path
       d="m 5453,-959 -507,-112"
       id="path86"
       inkscape:connector-curvature="0" />
    <path
       d="m 5378,-1240 -394,0"
       id="path88"
       inkscape:connector-curvature="0" />
    <path
       d="m 5378,-1428 -394,0 394,-225 -394,0"
       id="path90"
       inkscape:connector-curvature="0" />
    <path
       d="m 4984,-1784 0,-225"
       id="path92"
       inkscape:connector-curvature="0" />
    <path
       d="m 5378,-1896 -394,0"
       id="path94"
       inkscape:connector-curvature="0" />
    <path
       d="m 10984,-8325 0,-37 19,-38 18,-18 38,-19 75,-19 94,0 75,19 37,19 19,18 19,38 0,37 -19,38 -19,19 -37,18 -75,19 -94,0 -75,-19 -38,-18 -18,-19 -19,-38"
       id="path96"
       inkscape:connector-curvature="0" />
    <path
       d="m 11378,-8587 -263,-206"
       id="path98"
       inkscape:connector-curvature="0" />
    <path
       d="m 11115,-8587 263,-206"
       id="path100"
       inkscape:connector-curvature="0" />
    <path
       d="m 10984,-9131 0,188 187,18 -18,-18 -19,-38 0,-94 19,-37 18,-19 38,-19 94,0 37,19 19,19 19,37 0,94 -19,38 -19,18"
       id="path102"
       inkscape:connector-curvature="0" />
    <path
       d="m 10984,-9393 0,-38 19,-37 18,-19 38,-19 75,-19 94,0 75,19 37,19 19,19 19,37 0,38 -19,37 -19,19 -37,19 -75,18 -94,0 -75,-18 -38,-19 -18,-19 -19,-37"
       id="path104"
       inkscape:connector-curvature="0" />
    <path
       d="m 10984,-10368 0,-38 19,-37 18,-19 38,-19 75,-18 94,0 75,18 37,19 19,19 19,37 0,38 -19,37 -19,19 -37,19 -75,19 -94,0 -75,-19 -38,-19 -18,-19 -19,-37"
       id="path106"
       inkscape:connector-curvature="0" />
    <path
       d="m 11378,-10631 -263,-206"
       id="path108"
       inkscape:connector-curvature="0" />
    <path
       d="m 11115,-10631 263,-206"
       id="path110"
       inkscape:connector-curvature="0" />
    <path
       d="m 10984,-11174 0,187 187,19 -18,-19 -19,-37 0,-94 19,-38 18,-18 38,-19 94,0 37,19 19,18 19,38 0,94 -19,37 -19,19"
       id="path112"
       inkscape:connector-curvature="0" />
    <path
       d="m 11378,-11568 0,225"
       id="path114"
       inkscape:connector-curvature="0" />
    <path
       d="m 11378,-11456 -394,0 56,38 38,37 18,38"
       id="path116"
       inkscape:connector-curvature="0" />
    <path
       d="m 9565,-8747 0,-187"
       id="path118"
       inkscape:connector-curvature="0" />
    <path
       d="m 9678,-8709 -394,-131 394,-131"
       id="path120"
       inkscape:connector-curvature="0" />
    <path
       d="m 9678,-9271 -394,0"
       id="path122"
       inkscape:connector-curvature="0" />
    <path
       d="m 9659,-9271 19,37 0,75 -19,38 -19,18 -37,19 -113,0 -37,-19 -19,-18 -19,-38 0,-75 19,-37"
       id="path124"
       inkscape:connector-curvature="0" />
    <path
       d="m 9678,-9628 -394,0"
       id="path126"
       inkscape:connector-curvature="0" />
    <path
       d="m 9659,-9628 19,38 0,75 -19,37 -19,19 -37,19 -113,0 -37,-19 -19,-19 -19,-37 0,-75 19,-38"
       id="path128"
       inkscape:connector-curvature="0" />
    <path
       d="m 9678,-9815 -263,0"
       id="path130"
       inkscape:connector-curvature="0" />
    <path
       d="m 9490,-9815 -37,-19 -19,-19 -19,-37 0,-38"
       id="path132"
       inkscape:connector-curvature="0" />
    <path
       d="m 9659,-10340 19,-38 0,-75 -19,-37 -38,-19 -18,0 -38,19 -19,37 0,57 -18,37 -38,19 -19,0 -37,-19 -19,-37 0,-57 19,-37"
       id="path134"
       inkscape:connector-curvature="0" />
    <path
       d="m 9659,-10828 19,38 0,75 -19,37 -38,19 -150,0 -37,-19 -19,-37 0,-75 19,-38 37,-18 38,0 37,187"
       id="path136"
       inkscape:connector-curvature="0" />
    <path
       d="m 9678,-11071 -19,37 -38,19 -337,0"
       id="path138"
       inkscape:connector-curvature="0" />
    <path
       d="m 4778,-12990 -394,0 0,-150 19,-38 18,-18 38,-19 56,0 38,19 18,18 19,38 0,150"
       id="path140"
       inkscape:connector-curvature="0" />
    <path
       d="m 4384,-13459 0,-75 19,-37 37,-38 75,-19 131,0 75,19 38,38 19,37 0,75 -19,38 -38,37 -75,19 -131,0 -75,-19 -37,-37 -19,-38"
       id="path142"
       inkscape:connector-curvature="0" />
    <path
       d="m 4384,-13759 394,-94 -282,-75 282,-75 -394,-93"
       id="path144"
       inkscape:connector-curvature="0" />
    <path
       d="m 4571,-14246 0,-132"
       id="path146"
       inkscape:connector-curvature="0" />
    <path
       d="m 4778,-14434 0,188 -394,0 0,-188"
       id="path148"
       inkscape:connector-curvature="0" />
    <path
       d="m 4778,-14828 -188,132"
       id="path150"
       inkscape:connector-curvature="0" />
    <path
       d="m 4778,-14603 -394,0 0,-150 19,-37 18,-19 38,-19 56,0 38,19 18,19 19,37 0,150"
       id="path152"
       inkscape:connector-curvature="0" />
    <path
       d="m 2399,-5803 38,19 56,0 56,-19 38,-37 19,-38 18,-75 0,-56 -18,-75 -19,-37 -38,-38 -56,-19 -37,0 -57,19 -18,19 0,131 75,0"
       id="path154"
       inkscape:connector-curvature="0" />
    <path
       d="m 2212,-6178 0,394 -225,-394 0,394"
       id="path156"
       inkscape:connector-curvature="0" />
    <path
       d="m 1800,-6178 0,394 -94,0 -56,-19 -38,-37 -19,-38 -18,-75 0,-56 18,-75 19,-37 38,-38 56,-19 94,0"
       id="path158"
       inkscape:connector-curvature="0" />
  </g>
  <g
     style="fill:#000000;fill-opacity:0;stroke:#000000;stroke-width:59.05509949;stroke-linecap:round;stroke-linejoin:round;stroke-opacity:1"
     id="g160"
     transform="translate(29.92775,15829.948)">
    <path
       d="M 0,0 0,-15800"
       id="path162"
       inkscape:connector-curvature="0" />
    <path
       d="M 12000,0 0,0"
       id="path164"
       inkscape:connector-curvature="0" />
    <path
       d="M 12000,-15800 12000,0"
       id="path166"
       inkscape:connector-curvature="0" />
    <path
       d="m 0,-15800 12000,0"
       id="path168"
       inkscape:connector-curvature="0" />
  </g>
  <g
     style="fill:#000000;fill-opacity:0;stroke:#000000;stroke-width:78.74019623;stroke-linecap:round;stroke-linejoin:round;stroke-opacity:1"
     id="g170"
     transform="translate(29.92775,15829.948)">
    <path
       d="m 2399,-11603 38,19 56,0 56,-19 38,-37 19,-38 18,-75 0,-56 -18,-75 -19,-37 -38,-38 -56,-19 -37,0 -57,19 -18,19 0,131 75,0"
       id="path172"
       inkscape:connector-curvature="0" />
    <path
       d="m 2212,-11978 0,394 -225,-394 0,394"
       id="path174"
       inkscape:connector-curvature="0" />
    <path
       d="m 1800,-11978 0,394 -94,0 -56,-19 -38,-37 -19,-38 -18,-75 0,-56 18,-75 19,-37 38,-38 56,-19 94,0"
       id="path176"
       inkscape:connector-curvature="0" />
  </g>
  <g
     style="fill:#000000;fill-opacity:0;stroke:#000000;stroke-width:59.05509949;stroke-linecap:round;stroke-linejoin:round;stroke-opacity:1"
     id="g178"
     transform="translate(29.92775,15829.948)">
    <path
       d="m 8460,-5883 -2540,0"
       id="path180"
       inkscape:connector-curvature="0" />
    <path
       d="m 5755,-7702 -193,67"
       id="path182"
       inkscape:connector-curvature="0" />
    <path
       d="m 5920,-7717 -165,15"
       id="path184"
       inkscape:connector-curvature="0" />
    <path
       d="m 8460,-7717 -2540,0"
       id="path186"
       inkscape:connector-curvature="0" />
    <path
       d="m 5731,-5910 174,27"
       id="path188"
       inkscape:connector-curvature="0" />
    <path
       d="m 5562,-5965 169,55"
       id="path190"
       inkscape:connector-curvature="0" />
    <path
       d="m 5409,-6056 153,91"
       id="path192"
       inkscape:connector-curvature="0" />
    <path
       d="m 5271,-6182 138,126"
       id="path194"
       inkscape:connector-curvature="0" />
    <path
       d="m 5129,-6367 142,185"
       id="path196"
       inkscape:connector-curvature="0" />
    <path
       d="m 5054,-6544 75,177"
       id="path198"
       inkscape:connector-curvature="0" />
    <path
       d="m 5019,-6725 35,181"
       id="path200"
       inkscape:connector-curvature="0" />
    <path
       d="m 5027,-6906 -8,181"
       id="path202"
       inkscape:connector-curvature="0" />
    <path
       d="m 5070,-7091 -43,185"
       id="path204"
       inkscape:connector-curvature="0" />
    <path
       d="m 5188,-7308 -118,217"
       id="path206"
       inkscape:connector-curvature="0" />
    <path
       d="m 5287,-7438 -99,130"
       id="path208"
       inkscape:connector-curvature="0" />
    <path
       d="m 5413,-7548 -126,110"
      ="fill:#000000; fill-opacity:1.0; 
stroke:#000000; stroke-width:137.795; stroke-opacity:1; 
stroke-linecap:round; stroke-linejoin:round;">
</g>
<g style="fill:#000000; fill-opacity:1.0; 
stroke:#000000; stroke-width:0; stroke-opacity:1; 
stroke-linecap:round; stroke-linejoin:round;">
<polyline style="fill-rule:evenodd;"
points="6821,-4078
7578,-4078
7578,-3321
6821,-3321
6821,-4078
" /> 
<polyline style="fill-rule:evenodd;"
points="6821,-3078
7578,-3078
7578,-2321
6821,-2321
6821,-3078
" /> 
<polyline style="fill-rule:evenodd;"
points="5821,-4078
6578,-4078
6578,-3321
5821,-3321
5821,-4078
" /> 
<polyline style="fill-rule:evenodd;"
points="5821,-3078
6578,-3078
6578,-2321
5821,-2321
5821,-3078
" /> 
<polyline style="fill-rule:evenodd;"
points="5578,-2321
4821,-2321
4821,-3078
5578,-3078
5578,-2321
" /> 
<polyline style="fill-rule:evenodd;"
points="5578,-3321
4821,-3321
4821,-4078
5578,-4078
5578,-3321
" /> 
<polyline style="fill-rule:evenodd;"
points="2978,-7278
2978,-6521
2221,-6521
2221,-7278
2978,-7278
" /> 
<polyline style="fill-rule:evenodd;"
points="1978,-7278
1978,-6521
1221,-6521
1221,-7278
1978,-7278
" /> 
<polyline style="fill-rule:evenodd;"
points="2978,-8278
2978,-7521
2221,-7521
2221,-8278
2978,-8278
" /> 
<polyline style="fill-rule:evenodd;"
points="1978,-8278
1978,-7521
1221,-7521
1221,-8278
1978,-8278
" /> 
<polyline style="fill-rule:evenodd;"
points="2978,-9278
2978,-8521
2221,-8521
2221,-9278
2978,-9278
" /> 
<polyline style="fill-rule:evenodd;"
points="1978,-9278
1978,-8521
1221,-8521
1221,-9278
1978,-9278
" /> 
<polyline style="fill-rule:evenodd;"
points="2978,-10278
2978,-9521
2221,-9521
2221,-10278
2978,-10278
" /> 
<polyline style="fill-rule:evenodd;"
points="1978,-10278
1978,-9521
1221,-9521
1221,-10278
1978,-10278
" /> 
<polyline style="fill-rule:evenodd;"
points="2978,-11278
2978,-10521
2221,-10521
2221,-11278
2978,-11278
" /> 
<polyline style="fill-rule:evenodd;"
points="1978,-11278
1978,-10521
1221,-10521
1221,-11278
1978,-11278
" /> 
<polyline style="fill-rule:evenodd;"
points="5878,-13021
5121,-13021
5121,-13778
5878,-13778
5878,-13021
" /> 
<polyline style="fill-rule:evenodd;"
points="5878,-14021
5121,-14021
5121,-14778
5878,-14778
5878,-14021
" /> 
<polyline style="fill-rule:evenodd;"
points="6878,-13021
6121,-13021
6121,-13778
6878,-13778
6878,-13021
" /> 
<polyline style="fill-rule:evenodd;"
points="6878,-14021
6121,-14021
6121,-14778
6878,-14778
6878,-14021
" /> 
<polyline style="fill-rule:evenodd;"
points="7878,-13021
7121,-13021
7121,-13778
7878,-13778
7878,-13021
" /> 
<polyline style="fill-rule:evenodd;"
points="7878,-14021
7121,-14021
7121,-14778
7878,-14778
7878,-14021
" /> 
<polyline style="fill-rule:evenodd;"
points="10678,-11278
10678,-10521
9921,-10521
9921,-11278
10678,-11278
" /> 
<polyline style="fill-rule:evenodd;"
points="10678,-10278
10678,-9521
9921,-9521
9921,-10278
10678,-10278
" /> 
<polyline style="fill-rule:evenodd;"
points="10678,-9278
10678,-8521
9921,-8521
9921,-9278
10678,-9278
" /> 
</g> 
</svg>
  <path
       d="m 5901,-7509 2598,0"
       id="path268"
       inkscape:connector-curvature="0" />
    <path
       d="m 5665,-7430 236,-79"
       id="path270"
       inkscape:connector-curvature="0" />
    <path
       d="m 5428,-7272 237,-158"
       id="path272"
       inkscape:connector-curvature="0" />
    <path
       d="m 5271,-6997 157,-275"
       id="path274"
       inkscape:connector-curvature="0" />
    <path
       d="m 5231,-6800 40,-197"
       id="path276"
       inkscape:connector-curvature="0" />
    <path
       d="m 5271,-6564 -40,-236"
       id="path278"
       inkscape:connector-curvature="0" />
    <path
       d="m 5350,-6406 -79,-158"
       id="path280"
       inkscape:connector-curvature="0" />
    <path
       d="m 7700,-4200 0,2000"
       id="path282"
       inkscape:connector-curvature="0" />
    <path
       d="m 7700,-2200 -2000,0"
       id="path284"
       inkscape:connector-curvature="0" />
    <path
       d="m 5700,-2200 0,-2000"
       id="path286"
       inkscape:connector-curvature="0" />
    <path
       d="m 5700,-4200 2000,0"
       id="path288"
       inkscape:connector-curvature="0" />
    <path
       d="m 4700,-2200 0,-2000"
       id="path290"
       inkscape:connector-curvature="0" />
    <path
       d="m 4700,-4200 1000,0"
       id="path292"
       inkscape:connector-curvature="0" />
    <path
       d="m 5700,-4200 0,2000"
       id="path294"
       inkscape:connector-curvature="0" />
    <path
       d="m 5700,-2200 -1000,0"
       id="path296"
       inkscape:connector-curvature="0" />
    <path
       d="m 3100,-6400 -2000,0"
       id="path298"
       inkscape:connector-curvature="0" />
    <path
       d="m 1100,-6400 0,-5000"
       id="path300"
       inkscape:connector-curvature="0" />
    <path
       d="m 1100,-11400 2000,0"
       id="path302"
       inkscape:connector-curvature="0" />
    <path
       d="m 3100,-11400 0,5000"
       id="path304"
       inkscape:connector-curvature="0" />
    <path
       d="m 5000,-12900 0,-2000"
       id="path306"
       inkscape:connector-curvature="0" />
    <path
       d="m 5000,-14900 3000,0"
       id="path308"
       inkscape:connector-curvature="0" />
    <path
       d="m 8000,-14900 0,2000"
       id="path310"
       inkscape:connector-curvature="0" />
    <path
       d="m 8000,-12900 -3000,0"
       id="path312"
       inkscape:connector-curvature="0" />
    <path
       d="m 10800,-8400 -1000,0"
       id="path314"
       inkscape:connector-curvature="0" />
    <path
       d="m 9800,-8400 0,-3000"
       id="path316"
       inkscape:connector-curvature="0" />
    <path
       d="m 9800,-11400 1000,0"
       id="path318"
       inkscape:connector-curvature="0" />
    <path
       d="m 10800,-11400 0,3000"
       id="path320"
       inkscape:connector-curvature="0" />
  </g>
  <g
     style="fill:#000000;fill-opacity:0;stroke:#000000;stroke-width:19.68499947;stroke-linecap:round;stroke-linejoin:round;stroke-opacity:1"
     id="g322"
     transform="translate(29.92775,15829.948)">
    <path
       d="m 7289,-4406 0,113"
       id="path324"
       inkscape:connector-curvature="0" />
    <path
       d="m 7289,-4350 -197,0 28,19 19,19 9,19"
       id="path326"
       inkscape:connector-curvature="0" />
    <path
       d="m 3306,-6810 -113,0"
       id="path328"
       inkscape:connector-curvature="0" />
    <path
       d="m 3250,-6810 0,-197 -19,28 -19,19 -19,9"
       id="path330"
       inkscape:connector-curvature="0" />
    <path
       d="m 5589,-12806 0,113"
       id="path332"
       inkscape:connector-curvature="0" />
    <path
       d="m 5589,-12750 -197,0 28,19 19,19 9,19"
       id="path334"
       inkscape:connector-curvature="0" />
    <path
       d="m 11006,-8810 -113,0"
       id="path336"
       inkscape:connector-curvature="0" />
    <path
       d="m 10950,-8810 0,-197 -19,28 -19,19 -19,9"
       id="path338"
       inkscape:connector-curvature="0" />
  </g>
  <g
     style="fill:#000000;fill-opacity:0;stroke:#000000;stroke-width:59.05509949;stroke-linecap:round;stroke-linejoin:round;stroke-opacity:1"
     id="g340"
     transform="translate(29.92775,15829.948)">
    <path
       d="M 0,0 0,-15800"
       id="path342"
       inkscape:connector-curvature="0" />
    <path
       d="M 12000,0 0,0"
       id="path344"
       inkscape:connector-curvature="0" />
    <path
       d="M 12000,-15800 12000,0"
       id="path346"
       inkscape:connector-curvature="0" />
    <path
       d="m 0,-15800 12000,0"
       id="path348"
       inkscape:connector-curvature="0" />
  </g>
  <g
     style="fill:#000000;fill-opacity:1;stroke:#000000;stroke-width:0;stroke-linecap:round;stroke-linejoin:round;stroke-opacity:1"
     id="g350"
     transform="translate(29.92775,15829.948)">
    <circle
       cx="6239"
       cy="-6800"
       r="374.23999"
       id="circle352" />
  </g>
  <g
     style="fill:#000000;fill-opacity:1;stroke:#000000;stroke-width:137.79499817;stroke-linecap:round;stroke-linejoin:round;stroke-opacity:1"
     id="g354"
     transform="translate(29.92775,15829.948)" />
  <g
     style="fill:#000000;fill-opacity:1;stroke:#000000;stroke-width:0;stroke-linecap:round;stroke-linejoin:round;stroke-opacity:1"
     id="g356"
     transform="translate(29.92775,15829.948)">
    <circle
       cx="8161"
       cy="-6800"
       r="374.23999"
       id="circle358" />
  </g>
  <g
     style="fill:#000000;fill-opacity:1;stroke:#000000;stroke-width:137.79499817;stroke-linecap:round;stroke-linejoin:round;stroke-opacity:1"
     id="g360"
     transform="translate(29.92775,15829.948)" />
  <g
     style="fill:#000000;fill-opacity:1;stroke:#000000;stroke-width:0;stroke-linecap:round;stroke-linejoin:round;stroke-opacity:1"
     id="g362"
     transform="translate(29.92775,15829.948)">
    <circle
       cx="10100"
       cy="-13900"
       r="1259.84"
       id="circle364" />
  </g>
  <g
     style="fill:#000000;fill-opacity:1;stroke:#000000;stroke-width:137.79499817;stroke-linecap:round;stroke-linejoin:round;stroke-opacity:1"
     id="g366"
     transform="translate(29.92775,15829.948)" />
  <g
     style="fill:#000000;fill-opacity:1;stroke:#000000;stroke-width:0;stroke-linecap:round;stroke-linejoin:round;stroke-opacity:1"
     id="g368"
     transform="translate(29.92775,15829.948)">
    <circle
       cx="2100"
       cy="-13900"
       r="1259.84"
       id="circle370" />
  </g>
  <g
     style="fill:#000000;fill-opacity:1;stroke:#000000;stroke-width:137.79499817;stroke-linecap:round;stroke-linejoin:round;stroke-opacity:1"
     id="g372"
     transform="translate(29.92775,15829.948)" />
  <g
     style="fill:#000000;fill-opacity:1;stroke:#000000;stroke-width:0;stroke-linecap:round;stroke-linejoin:round;stroke-opacity:1"
     id="g374"
     transform="translate(29.92775,15829.948)">
    <circle
       cx="10100"
       cy="-1900"
       r="1259.84"
       id="circle376" />
  </g>
  <g
     style="fill:#000000;fill-opacity:1;stroke:#000000;stroke-width:137.79499817;stroke-linecap:round;stroke-linejoin:round;stroke-opacity:1"
     id="g378"
     transform="translate(29.92775,15829.948)" />
  <g
     style="fill:#000000;fill-opacity:1;stroke:#000000;stroke-width:0;stroke-linecap:round;stroke-linejoin:round;stroke-opacity:1"
     id="g380"
     transform="translate(29.92775,15829.948)">
    <circle
       cx="2100"
       cy="-1900"
       r="1259.84"
       id="circle382" />
  </g>
  <g
     id="g384"
     transform="translate(29.92775,15829.948)" />
</svg>
