*
*
G04 PADS Layout (Build Number 2006.45.1) generated Gerber (RS-274-X) file*
G04 PC Version=2.1*
*
%IN "AD1881A01A.pcb"*%
*
%MOIN*%
*
%FSLAX35Y35*%
*
*
*
*
G04 PC Standard Apertures*
*
*
G04 Thermal Relief Aperture macro.*
%AMTER*
1,1,$1,0,0*
1,0,$1-$2,0,0*
21,0,$3,$4,0,0,45*
21,0,$3,$4,0,0,135*
%
*
*
G04 Annular Aperture macro.*
%AMANN*
1,1,$1,0,0*
1,0,$2,0,0*
%
*
*
G04 Odd Aperture macro.*
%AMODD*
1,1,$1,0,0*
1,0,$1-0.005,0,0*
%
*
*
G04 PC Custom Aperture Macros*
*
*
*
*
*
*
G04 PC Aperture Table*
*
%ADD024C,0.001*%
%ADD025C,0.01*%
*
*
*
*
G04 PC Copper Outlines (0)*
G04 Layer Name AD1881A01A.pcb - dark (0)*
%LPD*%
*
*
G04 PC Area=Custom_Thermal*
*
G04 PC Custom Flashes*
G04 Layer Name AD1881A01A.pcb - flashes*
%LPD*%
*
*
G04 PC Circuitry*
G04 Layer Name AD1881A01A.pcb - circuitry*
%LPD*%
*
G54D24*
G01X121000Y319000D02*
X121003D01*
X359000D02*
X359003D01*
X359000Y121000D02*
X359003D01*
X359000Y319000D02*
X359003D01*
G54D25*
X121000D02*
X359000D01*
Y121000*
X121000*
Y319000*
Y344300D02*
X221318D01*
X121000D02*
X131000Y346800D01*
Y341800*
X121000Y344300*
X359000D02*
X258682D01*
X359000D02*
X349000Y341800D01*
Y346800*
X359000Y344300*
X121000Y324000D02*
Y349300D01*
X359000Y324000D02*
Y349300D01*
X224545Y345550D02*
Y345862D01*
X224545D02*
X224773Y346487D01*
X224773D02*
X225000Y346800D01*
X225455Y347112*
X225455D02*
X226364D01*
X226364D02*
X226818Y346800D01*
X227045Y346487*
X227045D02*
X227273Y345862D01*
X227273D02*
Y345237D01*
X227273D02*
X227045Y344612D01*
X227045D02*
X226591Y343675D01*
X224318Y340550*
X227500*
X230000Y347112D02*
X232500D01*
X232500D02*
X231136Y344612D01*
X231136D02*
X231818D01*
X231818D02*
X232273Y344300D01*
X232500Y343987*
X232500D02*
X232727Y343050D01*
Y342425*
X232500Y341487*
X232500D02*
X232045Y340862D01*
X232045D02*
X231364Y340550D01*
X230682*
X230000Y340862*
X230000D02*
X229773Y341175D01*
X229545Y341800*
X235909Y347112D02*
X235227Y346800D01*
X235000Y346175*
Y345550*
X235227Y344925*
X235682Y344612*
X235682D02*
X236591Y344300D01*
X237273Y343987*
X237273D02*
X237727Y343362D01*
X237727D02*
X237955Y342737D01*
X237955D02*
Y341800D01*
X237727Y341175*
X237500Y340862*
X237500D02*
X236818Y340550D01*
X235909*
X235227Y340862*
X235227D02*
X235000Y341175D01*
X234773Y341800*
Y342737*
X234773D02*
X235000Y343362D01*
X235000D02*
X235455Y343987D01*
X235455D02*
X236136Y344300D01*
X237045Y344612*
X237045D02*
X237500Y344925D01*
X237727Y345550*
Y346175*
X237500Y346800*
X236818Y347112*
X236818D02*
X235909D01*
X241364D02*
X240682Y346800D01*
X240227Y345862*
X240227D02*
X240000Y344300D01*
Y343362*
X240000D02*
X240227Y341800D01*
X240682Y340862*
X240682D02*
X241364Y340550D01*
X241818*
X242500Y340862*
X242500D02*
X242955Y341800D01*
X243182Y343362*
X243182D02*
Y344300D01*
X242955Y345862*
X242955D02*
X242500Y346800D01*
X241818Y347112*
X241818D02*
X241364D01*
X245227Y344925D02*
Y340550D01*
Y343675D02*
X245909Y344612D01*
X245909D02*
X246364Y344925D01*
X247045*
X247500Y344612*
X247500D02*
X247727Y343675D01*
Y340550*
Y343675D02*
X248409Y344612D01*
X248409D02*
X248864Y344925D01*
X249545*
X250000Y344612*
X250000D02*
X250227Y343675D01*
Y340550*
X252273Y347112D02*
X252500Y346800D01*
X252727Y347112*
X252727D02*
X252500Y347425D01*
X252273Y347112*
X252500Y344925D02*
Y340550D01*
X254773Y347112D02*
Y340550D01*
X380300Y121000D02*
Y213250D01*
Y121000D02*
X377800Y131000D01*
X382800*
X380300Y121000*
Y319000D02*
Y226750D01*
Y319000D02*
X382800Y309000D01*
X377800*
X380300Y319000*
X364000Y121000D02*
X385300D01*
X364000Y319000D02*
X385300D01*
X365755Y221562D02*
X366209Y221875D01*
X366891Y222812*
X366891D02*
Y216250D01*
X371891Y220625D02*
X371664Y219687D01*
X371664D02*
X371209Y219062D01*
X371209D02*
X370527Y218750D01*
X370300*
X369618Y219062*
X369618D02*
X369164Y219687D01*
X369164D02*
X368936Y220625D01*
Y220937*
X368936D02*
X369164Y221875D01*
X369618Y222500*
X370300Y222812*
X370300D02*
X370527D01*
X370527D02*
X371209Y222500D01*
X371664Y221875*
X371891Y220625*
Y219062*
X371891D02*
X371664Y217500D01*
X371209Y216562*
X371209D02*
X370527Y216250D01*
X370073*
X369391Y216562*
X369391D02*
X369164Y217187D01*
X375073Y222812D02*
X374391Y222500D01*
X374164Y221875*
Y221250*
X374391Y220625*
X374845Y220312*
X374845D02*
X375755Y220000D01*
X376436Y219687*
X376436D02*
X376891Y219062D01*
X376891D02*
X377118Y218437D01*
X377118D02*
Y217500D01*
X376891Y216875*
X376664Y216562*
X376664D02*
X375982Y216250D01*
X375073*
X374391Y216562*
X374391D02*
X374164Y216875D01*
X373936Y217500*
Y218437*
X373936D02*
X374164Y219062D01*
X374164D02*
X374618Y219687D01*
X374618D02*
X375300Y220000D01*
X376209Y220312*
X376209D02*
X376664Y220625D01*
X376891Y221250*
Y221875*
X376664Y222500*
X375982Y222812*
X375982D02*
X375073D01*
X380527D02*
X379845Y222500D01*
X379391Y221562*
X379391D02*
X379164Y220000D01*
Y219062*
X379164D02*
X379391Y217500D01*
X379845Y216562*
X379845D02*
X380527Y216250D01*
X380982*
X381664Y216562*
X381664D02*
X382118Y217500D01*
X382345Y219062*
X382345D02*
Y220000D01*
X382118Y221562*
X382118D02*
X381664Y222500D01*
X380982Y222812*
X380982D02*
X380527D01*
X384391Y220625D02*
Y216250D01*
Y219375D02*
X385073Y220312D01*
X385073D02*
X385527Y220625D01*
X386209*
X386664Y220312*
X386664D02*
X386891Y219375D01*
Y216250*
Y219375D02*
X387573Y220312D01*
X387573D02*
X388027Y220625D01*
X388709*
X389164Y220312*
X389164D02*
X389391Y219375D01*
Y216250*
X391436Y222812D02*
X391664Y222500D01*
X391891Y222812*
X391891D02*
X391664Y223125D01*
X391436Y222812*
X391664Y220625D02*
Y216250D01*
X393936Y222812D02*
Y216250D01*
X0Y0D02*
M02*
