*
*
G04 PADS 9.5 Build Number: 522968 generated Gerber (RS-274-X) file*
G04 PC Version=2.1*
*
%IN "ANT01.pcb"*%
*
%MOIN*%
*
%FSLAX35Y35*%
*
*
*
*
G04 PC Standard Apertures*
*
*
G04 Thermal Relief Aperture macro.*
%AMTER*
1,1,$1,0,0*
1,0,$1-$2,0,0*
21,0,$3,$4,0,0,45*
21,0,$3,$4,0,0,135*
%
*
*
G04 Annular Aperture macro.*
%AMANN*
1,1,$1,0,0*
1,0,$2,0,0*
%
*
*
G04 Odd Aperture macro.*
%AMODD*
1,1,$1,0,0*
1,0,$1-0.005,0,0*
%
*
*
G04 PC Custom Aperture Macros*
*
*
*
*
*
*
G04 PC Aperture Table*
*
%ADD012R,0.07X0.07*%
%ADD013C,0.23622*%
%ADD014C,0.05*%
%ADD017C,0.02*%
%ADD019C,0.03*%
%ADD024C,0.001*%
%ADD025C,0.01*%
%ADD036C,0.008*%
%ADD040R,0.06X0.06*%
%ADD055C,0.006*%
%ADD056R,0.025X0.02*%
%ADD057R,0.02X0.025*%
%ADD058R,0.04331X0.04724*%
%ADD059O,0.03346X0.01181*%
%ADD060O,0.01181X0.03346*%
%ADD061R,0.144X0.144*%
%ADD062R,0.02362X0.04724*%
%ADD063R,0.056X0.039*%
%ADD064C,0.09843*%
%ADD065C,0.10236*%
%ADD066R,0.1X0.055*%
%ADD067R,0.105X0.05*%
%ADD068C,0.019*%
%ADD069C,0.032*%
%ADD070C,0.024*%
*
*
*
*
G04 PC Circuitry*
G04 Layer Name ANT01.pcb - circuitry*
%LPD*%
*
*
G04 PC Custom Flashes*
G04 Layer Name ANT01.pcb - flashes*
%LPD*%
*
*
G04 PC Circuitry*
G04 Layer Name ANT01.pcb - circuitry*
%LPD*%
*
G54D12*
G01X226000Y185000D03*
X216000D03*
X226000Y165000D03*
X216000D03*
X226000Y175000D03*
X216000D03*
X226000Y135000D03*
X216000D03*
X226000Y145000D03*
X216000D03*
X226000Y155000D03*
X216000D03*
X172000Y126000D03*
Y116000D03*
X182000Y126000D03*
Y116000D03*
X192000Y126000D03*
Y116000D03*
G54D13*
X120000Y120000D03*
X240000Y200000D03*
Y120000D03*
X120000Y200000D03*
G54D14*
X246000Y144000D03*
G54D17*
X120300Y160300D02*
X120000Y160000D01*
X146000*
G54D19*
X144000Y135800D02*
X145400Y137200D01*
X158000*
Y129500D02*
Y137200D01*
X164800*
X166000Y136000*
Y137000*
X176000*
X182000Y131000*
Y126000*
Y116000*
G54D24*
G54D25*
X203455Y119250D02*
X202000Y114000D01*
X203455Y119250D02*
X204909Y114000D01*
X202545Y115750D02*
X204364D01*
X206545Y119250D02*
Y114000D01*
Y119250D02*
X209091Y114000D01*
Y119250D02*
Y114000D01*
X212000Y119250D02*
Y114000D01*
X210727Y119250D02*
X213273D01*
X216000D02*
X215455Y119000D01*
X215091Y118250*
X214909Y117000*
Y116250*
X215091Y115000*
X215455Y114250*
X216000Y114000*
X216364*
X216909Y114250*
X217273Y115000*
X217455Y116250*
Y117000*
X217273Y118250*
X216909Y119000*
X216364Y119250*
X216000*
X219091Y118250D02*
X219455Y118500D01*
X220000Y119250*
Y114000*
X223091Y119250D02*
X221636Y114000D01*
X223091Y119250D02*
X224545Y114000D01*
X222182Y115750D02*
X224000D01*
X159200Y170800D02*
Y170400D01*
X159600*
X159200Y170800D02*
Y171000D01*
X159247Y171047*
Y174854*
X152780Y168860D02*
Y167973D01*
X154753Y166000*
X157647*
X159200Y167553*
Y170400*
X157476Y179776D02*
X157321Y179579D01*
X162200Y184500*
X161200Y189100D02*
X161216Y193063D01*
Y194146*
X161200Y189100D02*
X162200Y184500D01*
X161200Y178600*
Y175000*
X161216Y174854*
X159600Y170400D02*
X160784D01*
X163184Y172800*
X157279Y174854D02*
X157300Y175200D01*
Y178800*
X162200Y184500*
X152554Y177610D02*
Y172023D01*
X152780Y171797*
Y168860*
X152554Y179579D02*
X157321D01*
X162200Y184500*
X165200Y190500*
Y194146*
X168300Y190500D02*
X162200Y184500D01*
X167100Y187400*
X171846*
X162200Y184500D02*
X167500Y185400D01*
X171846*
X163184Y174854D02*
Y172800D01*
X171846Y187453D02*
Y187400D01*
Y185484D02*
Y185400D01*
Y179579D02*
X175421D01*
X178000Y177000*
X161500Y164500D02*
X166500D01*
Y165402*
X171800Y191400D02*
X171846Y191390D01*
X165153Y194146D02*
X165200D01*
X169090D02*
Y194000D01*
X175500*
G54D36*
X155310Y174854D02*
Y173772D01*
X155600Y169350*
Y168500*
X156200*
X145784Y176015D02*
Y180015D01*
X142059Y189999D02*
Y194500D01*
Y184999D02*
Y185015D01*
X145784*
Y180015D02*
Y180534D01*
X148384*
X149281Y181431*
X152554*
Y181547*
X145784Y185015D02*
Y184354D01*
X148500Y183500*
X152554*
Y183516*
X145784Y158015D02*
X146000Y158231D01*
Y160000*
X145784Y167015D02*
Y171015D01*
Y162015D02*
X146000Y161800D01*
Y160000*
X162200Y184500D02*
X168200Y190500D01*
Y191300*
X171756*
X171846Y191390*
X178000Y177000D02*
X181254Y176835D01*
X182104*
Y176235*
X179228Y167902D02*
Y163939D01*
X180168Y163000*
X187500*
X183030Y167902D02*
X182772D01*
Y167500*
X187500*
X169090Y174854D02*
X172146D01*
X175188Y171812*
X176499*
X179228Y169083*
Y167902*
X167121Y174854D02*
X167182D01*
Y171581*
X168670Y170092*
Y169456*
X169653Y168473*
Y168446*
X169711Y168388*
Y168353*
X169817Y168247*
Y168169*
X170000Y167986*
Y159697*
X173500Y156197*
Y156000*
X165153Y174854D02*
Y171347D01*
X166500Y170000*
Y165402*
X171846Y189421D02*
X176421D01*
X177500Y190500*
X185000*
X198500Y177000*
Y166000*
X208000Y156500*
Y143000*
X216000Y135000*
X171846Y183516D02*
X176984D01*
X177100Y183400*
X180000*
Y184000*
X171846Y181547D02*
X177634D01*
X179107Y180074*
X182057*
X171846Y177610D02*
X172928D01*
X176539Y174000*
X178370*
X183030Y169341*
Y167902*
X173500Y156000D02*
X173513D01*
Y155987*
Y150985D02*
Y155987D01*
X161216Y195228D02*
X162500Y199500D01*
X140750Y208000D02*
X145250Y204000D01*
X142059Y194500D02*
X145000D01*
X137500Y199500D02*
X141500D01*
X145500Y212000D02*
Y212323D01*
X149671*
Y211473*
X145500Y208000D02*
Y212000D01*
X140500Y208000D02*
Y210960D01*
X144540Y215000*
X186485*
X191500Y209985*
Y209500*
X216000Y185000*
X149671Y206473D02*
X153358D01*
Y206459*
X149671Y206473D02*
Y190658D01*
X150829Y189500*
X152476*
X152554Y189421*
X145500Y204000D02*
X145989D01*
X147500Y201487*
Y190314*
X150314Y187500*
X152507*
X152554Y187453*
Y191390D02*
Y201181D01*
X161100Y209727*
Y210323*
X163677Y212900*
X186323*
X189900Y209323*
Y207600*
X210700Y186800*
Y180300*
X216000Y175000*
X155310Y194146D02*
Y201147D01*
X162700Y208537*
Y209660*
X164340Y211300*
X185660*
X188300Y208660*
Y205700*
X190200Y203800*
Y200300*
X157279Y194146D02*
Y200501D01*
X160777Y204000*
X164500*
X165500Y203000*
X169500*
X159247Y194146D02*
Y200207D01*
X161340Y202300*
X163799*
X165599Y200500*
X174487*
X176619Y202631*
Y203000*
X141500Y194500D02*
X142059D01*
X145000D02*
Y189765D01*
X149281Y185484*
X152554*
X176500Y203576D02*
X180200D01*
X176561Y203000D02*
X176619D01*
X175500Y194000D02*
X178800D01*
X179500Y193300*
Y193000*
X173000Y208000D02*
X176500D01*
X190200Y200300D02*
X190450D01*
X208500Y182250*
Y172500*
X216000Y165000*
X190000Y193000D02*
X190250D01*
X203000Y180250*
Y168000*
X216000Y155000*
X176500Y208000D02*
X180500D01*
X176500Y203000D02*
X176561D01*
X163184Y194146D02*
Y195792D01*
X166011Y198619*
X180897*
X181766Y197750*
X187850*
X190000Y195600*
Y193000*
X167121Y194146D02*
Y195792D01*
X168348Y197019*
X178338*
X178338D02*
X179681Y195675D01*
X186272*
X187500Y194447*
Y190908*
X200750Y177658*
Y167000*
X210450Y157300*
Y150550*
X216000Y145000*
X179500Y193000D02*
X185000D01*
X257030Y144000D02*
G75*
G03X257030I-11030J0D01*
G01Y171500D02*
G03X257030I-11030J0D01*
G01X257600Y102400D02*
Y217600D01*
X102400*
Y102400*
X257600*
X188400Y202587D02*
Y203054D01*
X187027Y204427*
X186500Y205700D02*
G03X187027Y204427I1800J-0D01*
G01X186500Y205700D02*
Y207914D01*
X184914Y209500*
X184208*
X182850Y204763D02*
G03X184208Y209500I-2350J3237D01*
G01X182850Y204763D02*
Y203000D01*
X181450Y201600D02*
G03X182850Y203000I0J1400D01*
G01X181450Y201600D02*
X178950D01*
X178892Y201601D02*
G03X178950Y201600I58J1399D01*
G01X177934Y200419D02*
G03X178892Y201601I-434J1331D01*
G01X177934Y200419D02*
X180897D01*
X182170Y199892D02*
G03X180897Y200419I-1273J-1273D01*
G01X182170Y199892D02*
X182511Y199550D01*
X187550*
Y201300*
X188400Y202587D02*
G03X187550Y201300I550J-1287D01*
G01X161911Y197065D02*
X164200Y199353D01*
X163053Y200500*
X162086*
X161047Y199461*
Y196078*
X161216Y195524D02*
G03X161047Y196078I-1969J-296D01*
G01X161420Y196151D02*
G03X161216Y195524I1764J-923D01*
G01X161911Y197065D02*
G03X161420Y196151I1273J-1273D01*
G01X171369Y205500D02*
G03X171250Y205432I631J-1250D01*
G01X170600Y206750D02*
G03X171369Y205500I1400J0D01*
G01X170600Y206750D02*
Y209250D01*
X170622Y209500D02*
G03X170600Y209250I1378J-250D01*
G01X170622Y209500D02*
X165086D01*
X164500Y208914*
Y208537*
X163973Y207264D02*
G03X164500Y208537I-1273J1273D01*
G01X163973Y207264D02*
X162509Y205800D01*
X164500*
X165773Y205273D02*
G03X164500Y205800I-1273J-1273D01*
G01X165773Y205273D02*
X166246Y204800D01*
X167213*
X168500Y205650D02*
G03X167213Y204800I0J-1400D01*
G01X168500Y205650D02*
X170500D01*
X171250Y205432D02*
G03X170500Y205650I-750J-1182D01*
G01X159827Y211595D02*
X161432Y213200D01*
X151987*
X152071Y212723D02*
G03X151987Y213200I-1400J0D01*
G01X152071Y212723D02*
Y210223D01*
X151301Y208973D02*
G03X152071Y210223I-630J1250D01*
G01X151524Y208833D02*
G03X151301Y208973I-853J-1110D01*
G01X152358Y209109D02*
G03X151524Y208833I0J-1400D01*
G01X152358Y209109D02*
X154358D01*
X155758Y207709D02*
G03X154358Y209109I-1400J0D01*
G01X155758Y207709D02*
Y206930D01*
X159307Y210479*
X159827Y211595D02*
G03X159307Y210479I1273J-1272D01*
G01X257030Y144000D02*
G03X257030I-11030J0D01*
G01Y171500D02*
G03X257030I-11030J0D01*
G01X228173Y120750D02*
Y111750D01*
X225773Y109350D02*
G03X228173Y111750I-0J2400D01*
G01X225773Y109350D02*
X201500D01*
X199100Y111750D02*
G03X201500Y109350I2400J0D01*
G01X199100Y111750D02*
Y120750D01*
X201500Y123150D02*
G03X199100Y120750I0J-2400D01*
G01X201500Y123150D02*
X225773D01*
X228173Y120750D02*
G03X225773Y123150I-2400J0D01*
G01X231900Y188500D02*
Y181500D01*
X231374Y180000D02*
G03X231900Y181500I-1874J1500D01*
G01Y178500D02*
G03X231374Y180000I-2400J0D01*
G01X231900Y178500D02*
Y171500D01*
X231374Y170000D02*
G03X231900Y171500I-1874J1500D01*
G01Y168500D02*
G03X231374Y170000I-2400J0D01*
G01X231900Y168500D02*
Y161500D01*
X231374Y160000D02*
G03X231900Y161500I-1874J1500D01*
G01Y158500D02*
G03X231374Y160000I-2400J0D01*
G01X231900Y158500D02*
Y151500D01*
X231374Y150000D02*
G03X231900Y151500I-1874J1500D01*
G01Y148500D02*
G03X231374Y150000I-2400J0D01*
G01X231900Y148500D02*
Y141500D01*
X231374Y140000D02*
G03X231900Y141500I-1874J1500D01*
G01Y138500D02*
G03X231374Y140000I-2400J0D01*
G01X231900Y138500D02*
Y131500D01*
X229500Y129100D02*
G03X231900Y131500I0J2400D01*
G01X229500Y129100D02*
X222500D01*
X221000Y129626D02*
G03X222500Y129100I1500J1874D01*
G01X219500D02*
G03X221000Y129626I0J2400D01*
G01X219500Y129100D02*
X212500D01*
X210100Y131500D02*
G03X212500Y129100I2400J0D01*
G01X210100Y131500D02*
Y138354D01*
X206727Y141727*
X206200Y143000D02*
G03X206727Y141727I1800J0D01*
G01X206200Y143000D02*
Y155754D01*
X197227Y164727*
X196700Y166000D02*
G03X197227Y164727I1800J0D01*
G01X196700Y166000D02*
Y176254D01*
X184254Y188700*
X178246*
X177694Y188148*
X176421Y187621D02*
G03X177694Y188148I0J1800D01*
G01X176421Y187621D02*
X173778D01*
X172928Y187431D02*
G03X173778Y187621I0J1990D01*
G01X172928Y187431D02*
X170763D01*
Y191412D02*
G03Y187431I0J-1991D01*
G01Y191412D02*
X172450D01*
X171980Y192100D02*
G03X172450Y191412I3520J1900D01*
G01X171980Y192100D02*
X170832D01*
X168106Y191333D02*
G03X170832Y192100I984J1730D01*
G01X165153Y192768D02*
G03X168106Y191333I1968J295D01*
G01X161216Y192767D02*
G03X165153Y192768I1968J296D01*
G01X158263Y191333D02*
G03X161216Y192767I984J1730D01*
G01X156294Y191333D02*
G03X158263I985J1730D01*
G01X155606Y191094D02*
G03X156294Y191333I-296J1969D01*
G01X155367Y190406D02*
G03X155606Y191094I-1730J984D01*
G01X155367Y188437D02*
G03Y190406I-1730J984D01*
G01Y186469D02*
G03Y188437I-1730J984D01*
G01Y184500D02*
G03Y186468I-1730J984D01*
G01Y182532D02*
G03Y184500I-1730J984D01*
G01X153933Y179579D02*
G03X155367Y182531I-296J1968D01*
G01X155606Y177906D02*
G03X153933Y179579I-1969J-296D01*
G01X157279Y176233D02*
G03X155606Y177906I-1969J-296D01*
G01X161216Y176233D02*
G03X157279I-1969J-296D01*
G01X164168Y177667D02*
G03X161216Y176233I-984J-1730D01*
G01X166137Y177667D02*
G03X164169I-984J-1730D01*
G01X168106D02*
G03X166137I-985J-1730D01*
G01X168794Y177906D02*
G03X168106Y177667I296J-1969D01*
G01X169033Y178594D02*
G03X168794Y177906I1730J-984D01*
G01X169033Y180563D02*
G03Y178594I1730J-984D01*
G01Y182531D02*
G03Y180563I1730J-984D01*
G01X170763Y185506D02*
G03X169033Y182532I0J-1990D01*
G01X170763Y185506D02*
X172928D01*
X173778Y185316D02*
G03X172928Y185506I-850J-1800D01*
G01X173778Y185316D02*
X176984D01*
X177377Y185272D02*
G03X176984Y185316I-393J-1756D01*
G01X178750Y186400D02*
G03X177377Y185272I0J-1400D01*
G01X178750Y186400D02*
X181250D01*
X182650Y185000D02*
G03X181250Y186400I-1400J0D01*
G01X182650Y185000D02*
Y183000D01*
X182548Y182474D02*
G03X182650Y183000I-1298J526D01*
G01X182548Y182474D02*
X183307D01*
X184707Y181074D02*
G03X183307Y182474I-1400J0D01*
G01X184707Y181074D02*
Y179074D01*
X184386Y178182D02*
G03X184707Y179074I-1079J892D01*
G01X184754Y177235D02*
G03X184386Y178181I-1400J0D01*
G01X184754Y177235D02*
Y175235D01*
X183354Y173835D02*
G03X184754Y175235I-0J1400D01*
G01X183354Y173835D02*
X181081D01*
X183252Y171664*
X183953*
X185353Y170264D02*
G03X183953Y171664I-1400J-0D01*
G01X185353Y170264D02*
Y169575D01*
X186250Y169900D02*
G03X185353Y169575I0J-1400D01*
G01X186250Y169900D02*
X188750D01*
X190150Y168500D02*
G03X188750Y169900I-1400J0D01*
G01X190150Y168500D02*
Y166500D01*
X189381Y165250D02*
G03X190150Y166500I-631J1250D01*
G01Y164000D02*
G03X189381Y165250I-1400J0D01*
G01X190150Y164000D02*
Y162000D01*
X188750Y160600D02*
G03X190150Y162000I0J1400D01*
G01X188750Y160600D02*
X186250D01*
X185101Y161200D02*
G03X186250Y160600I1149J800D01*
G01X185101Y161200D02*
X180168D01*
X178895Y161727D02*
G03X180168Y161200I1273J1273D01*
G01X178895Y161727D02*
X177956Y162667D01*
X177428Y163939D02*
G03X177956Y162667I1800J0D01*
G01X177428Y163939D02*
Y164284D01*
X176647Y165539D02*
G03X177428Y164284I1400J0D01*
G01X176647Y165539D02*
Y169118D01*
X175753Y170012*
X175188*
X173915Y170539D02*
G03X175188Y170012I1273J1273D01*
G01X173915Y170539D02*
X171400Y173054D01*
X170947*
X169487Y171821D02*
G03X170947Y173054I-397J1951D01*
G01X169487Y171821D02*
X169943Y171365D01*
X170467Y170205D02*
G03X169943Y171365I-1797J-113D01*
G01X170467Y170205D02*
X170926Y169746D01*
X171172Y169439D02*
G03X170926Y169746I-1519J-966D01*
G01X171200Y169398D02*
G03X171172Y169439I-1489J-1010D01*
G01X171375Y169147D02*
G03X171200Y169398I-1558J-900D01*
G01X171800Y167986D02*
G03X171375Y169147I-1800J0D01*
G01X171800Y167986D02*
Y160442D01*
X172480Y159762*
X175665*
X177065Y158362D02*
G03X175665Y159762I-1400J0D01*
G01X177065Y158362D02*
Y153638D01*
X176123Y152315D02*
G03X177065Y153638I-458J1323D01*
G01X176163Y151985D02*
G03X176123Y152315I-1400J-0D01*
G01X176163Y151985D02*
Y149985D01*
X174763Y148585D02*
G03X176163Y149985I-0J1400D01*
G01X174763Y148585D02*
X172263D01*
X170863Y149985D02*
G03X172263Y148585I1400J-0D01*
G01X170863Y149985D02*
Y151985D01*
X170900Y152307D02*
G03X170863Y151985I1363J-322D01*
G01X169935Y153638D02*
G03X170900Y152307I1400J-0D01*
G01X169935Y153638D02*
Y157217D01*
X168727Y158424*
X168200Y159697D02*
G03X168727Y158424I1800J-0D01*
G01X168200Y159697D02*
Y161639D01*
X164335*
X163297Y162099D02*
G03X164335Y161639I1038J940D01*
G01X162500Y161850D02*
G03X163297Y162099I0J1400D01*
G01X162500Y161850D02*
X160500D01*
X159100Y163250D02*
G03X160500Y161850I1400J0D01*
G01X159100Y163250D02*
Y164766D01*
X158991Y164656*
X157647Y164100D02*
G03X158991Y164656I0J1900D01*
G01X157647Y164100D02*
X154753D01*
X153409Y164656D02*
G03X154753Y164100I1344J1344D01*
G01X153409Y164656D02*
X152216Y165850D01*
X152200*
Y154100*
X151800Y153700D02*
G03X152200Y154100I0J400D01*
G01X151800Y153700D02*
X140300D01*
X139900Y154100D02*
G03X140300Y153700I400J0D01*
G01X139900Y154100D02*
Y156700D01*
X126535*
X126258Y163800D02*
G03X126535Y156700I-6258J-3800D01*
G01X126258Y163800D02*
X139900D01*
Y182963*
X139659Y183749D02*
G03X139900Y182963I1400J-0D01*
G01X139659Y183749D02*
Y186249D01*
X139900Y187035D02*
G03X139659Y186249I1159J-786D01*
G01X139900Y187035D02*
Y187963D01*
X139659Y188749D02*
G03X139900Y187963I1400J-0D01*
G01X139659Y188749D02*
Y191249D01*
X139875Y191997D02*
G03X139659Y191249I1184J-748D01*
G01X139100Y193250D02*
G03X139875Y191997I1400J0D01*
G01X139100Y193250D02*
Y195750D01*
X140500Y197150D02*
G03X139100Y195750I0J-1400D01*
G01X140500Y197150D02*
X142500D01*
X143250Y196932D02*
G03X142500Y197150I-750J-1182D01*
G01X144000D02*
G03X143250Y196932I0J-1400D01*
G01X144000Y197150D02*
X145700D01*
Y200988*
X145332Y201600*
X144250*
X142850Y203000D02*
G03X144250Y201600I1400J0D01*
G01X142850Y203000D02*
Y203725D01*
X140741Y205600*
X139250*
X137850Y207000D02*
G03X139250Y205600I1400J0D01*
G01X137850Y207000D02*
Y209000D01*
X138700Y210287D02*
G03X137850Y209000I550J-1287D01*
G01X138700Y210287D02*
Y210960D01*
X139227Y212233D02*
G03X138700Y210960I1273J-1273D01*
G01X139227Y212233D02*
X143267Y216273D01*
X144540Y216800D02*
G03X143267Y216273I0J-1800D01*
G01X144540Y216800D02*
X186485D01*
X187758Y216273D02*
G03X186485Y216800I-1273J-1273D01*
G01X187758Y216273D02*
X192773Y211258D01*
X193278Y210268D02*
G03X192773Y211258I-1778J-283D01*
G01X193278Y210268D02*
X212646Y190900D01*
X219500*
X221000Y190374D02*
G03X219500Y190900I-1500J-1874D01*
G01X222500D02*
G03X221000Y190374I0J-2400D01*
G01X222500Y190900D02*
X229500D01*
X231900Y188500D02*
G03X229500Y190900I-2400J0D01*
G01X187900Y129500D02*
Y122500D01*
X187374Y121000D02*
G03X187900Y122500I-1874J1500D01*
G01Y119500D02*
G03X187374Y121000I-2400J0D01*
G01X187900Y119500D02*
Y112500D01*
X185500Y110100D02*
G03X187900Y112500I0J2400D01*
G01X185500Y110100D02*
X178500D01*
X176100Y112500D02*
G03X178500Y110100I2400J0D01*
G01X176100Y112500D02*
Y119500D01*
X176626Y121000D02*
G03X176100Y119500I1874J-1500D01*
G01Y122500D02*
G03X176626Y121000I2400J0D01*
G01X176100Y122500D02*
Y129500D01*
X177313Y131586D02*
G03X176100Y129500I1187J-2086D01*
G01X177313Y131586D02*
X174799Y134100D01*
X169520*
X164397Y132335D02*
G03X169520Y134100I1603J3665D01*
G01X164400Y132250D02*
G03X164397Y132335I-1400J0D01*
G01X164400Y132250D02*
Y126750D01*
X163000Y125350D02*
G03X164400Y126750I0J1400D01*
G01X163000Y125350D02*
X153000D01*
X151600Y126750D02*
G03X153000Y125350I1400J0D01*
G01X151600Y126750D02*
Y132250D01*
X153000Y133650D02*
G03X151600Y132250I0J-1400D01*
G01X153000Y133650D02*
X155100D01*
Y133854*
X154172Y134300D02*
G03X155100Y133854I1028J950D01*
G01X154172Y134300D02*
X150650D01*
Y133300*
X149250Y131900D02*
G03X150650Y133300I0J1400D01*
G01X149250Y131900D02*
X138750D01*
X137350Y133300D02*
G03X138750Y131900I1400J0D01*
G01X137350Y133300D02*
Y138300D01*
X138750Y139700D02*
G03X137350Y138300I0J-1400D01*
G01X138750Y139700D02*
X143930D01*
X145400Y140100D02*
G03X143930Y139700I0J-2900D01*
G01X145400Y140100D02*
X154172D01*
X155200Y140550D02*
G03X154172Y140100I0J-1400D01*
G01X155200Y140550D02*
X160800D01*
X161828Y140100D02*
G03X160800Y140550I-1028J-950D01*
G01X161828Y140100D02*
X164800D01*
X165619Y139982D02*
G03X164800Y140100I-819J-2782D01*
G01X166889Y139900D02*
G03X165619Y139982I-889J-3900D01*
G01X166889Y139900D02*
X176000D01*
X177148Y139663D02*
G03X176000Y139900I-1148J-2663D01*
G01X176647Y140736D02*
G03X177148Y139663I1400J0D01*
G01X176647Y140736D02*
Y145461D01*
X178047Y146861D02*
G03X176647Y145461I0J-1400D01*
G01X178047Y146861D02*
X180409D01*
X181000Y146730D02*
G03X180409Y146861I-591J-1269D01*
G01X181591D02*
G03X181000Y146730I-0J-1400D01*
G01X181591Y146861D02*
X183953D01*
X185353Y145461D02*
G03X183953Y146861I-1400J-0D01*
G01X185353Y145461D02*
Y140736D01*
X183953Y139336D02*
G03X185353Y140736I-0J1400D01*
G01X183953Y139336D02*
X181591D01*
X181000Y139467D02*
G03X181591Y139336I591J1269D01*
G01X180409D02*
G03X181000Y139467I0J1400D01*
G01X180409Y139336D02*
X178047D01*
X177627Y139401D02*
G03X178047Y139336I420J1335D01*
G01X178051Y139051D02*
G03X177627Y139401I-2051J-2051D01*
G01X178051Y139051D02*
X184051Y133051D01*
X184757Y131900D02*
G03X184051Y133051I-2757J-900D01*
G01X184757Y131900D02*
X185500D01*
X187900Y129500D02*
G03X185500Y131900I-2400J0D01*
G01X151988Y213199D02*
X161431D01*
X152071Y212479D02*
X160711D01*
X152071Y211759D02*
X159991D01*
X152071Y211039D02*
X159449D01*
X152071Y210319D02*
X159146D01*
X151924Y209599D02*
X158426D01*
X155128Y208879D02*
X157706D01*
X155684Y208159D02*
X156986D01*
X155758Y207439D02*
X156266D01*
X151462Y208879D02*
X151589D01*
X162708Y205999D02*
X170819D01*
X163428Y206719D02*
X170600D01*
X164500Y208879D02*
X170600D01*
X164460Y208159D02*
X170600D01*
X164126Y207439D02*
X170600D01*
X165767Y205279D02*
X167550D01*
X161105Y199519D02*
X164034D01*
X161047Y198799D02*
X163645D01*
X161825Y200239D02*
X163314D01*
X161047Y198079D02*
X162925D01*
X161047Y197359D02*
X162205D01*
X161047Y196639D02*
X161596D01*
X161114Y195919D02*
X161317D01*
X182850Y203119D02*
X188336D01*
X182714Y202399D02*
X188082D01*
X182850Y203839D02*
X187616D01*
X181913Y201679D02*
X187602D01*
X178655Y200959D02*
X187550D01*
X181682Y200239D02*
X187550D01*
X182850Y204559D02*
X186908D01*
X183432Y205279D02*
X186550D01*
X184460Y207439D02*
X186500D01*
X184289Y206719D02*
X186500D01*
X183963Y205999D02*
X186500D01*
X184497Y208159D02*
X186255D01*
X184402Y208879D02*
X185535D01*
X102400Y217519D02*
X257600D01*
X186555Y216799D02*
X257600D01*
X187952Y216079D02*
X257600D01*
X188672Y215359D02*
X257600D01*
X189392Y214639D02*
X257600D01*
X190112Y213919D02*
X257600D01*
X190832Y213199D02*
X257600D01*
X191552Y212479D02*
X257600D01*
X192272Y211759D02*
X257600D01*
X192960Y211039D02*
X257600D01*
X193269Y210319D02*
X257600D01*
X193947Y209599D02*
X257600D01*
X194667Y208879D02*
X257600D01*
X195387Y208159D02*
X257600D01*
X196107Y207439D02*
X257600D01*
X196827Y206719D02*
X257600D01*
X197547Y205999D02*
X257600D01*
X198267Y205279D02*
X257600D01*
X198987Y204559D02*
X257600D01*
X199707Y203839D02*
X257600D01*
X200427Y203119D02*
X257600D01*
X201147Y202399D02*
X257600D01*
X201867Y201679D02*
X257600D01*
X202587Y200959D02*
X257600D01*
X203307Y200239D02*
X257600D01*
X204027Y199519D02*
X257600D01*
X204747Y198799D02*
X257600D01*
X205467Y198079D02*
X257600D01*
X206187Y197359D02*
X257600D01*
X206907Y196639D02*
X257600D01*
X207627Y195919D02*
X257600D01*
X208347Y195199D02*
X257600D01*
X209067Y194479D02*
X257600D01*
X209787Y193759D02*
X257600D01*
X210507Y193039D02*
X257600D01*
X211227Y192319D02*
X257600D01*
X211947Y191599D02*
X257600D01*
X229819Y190879D02*
X257600D01*
X231235Y190159D02*
X257600D01*
X231709Y189439D02*
X257600D01*
X231890Y188719D02*
X257600D01*
X231900Y187999D02*
X257600D01*
X231900Y187279D02*
X257600D01*
X231900Y186559D02*
X257600D01*
X231900Y185839D02*
X257600D01*
X231900Y185119D02*
X257600D01*
X231900Y184399D02*
X257600D01*
X231900Y183679D02*
X257600D01*
X231900Y182959D02*
X257600D01*
X248519Y182239D02*
X257600D01*
X250614Y181519D02*
X257600D01*
X251933Y180799D02*
X257600D01*
X252933Y180079D02*
X257600D01*
X253740Y179359D02*
X257600D01*
X254409Y178639D02*
X257600D01*
X254970Y177919D02*
X257600D01*
X255444Y177199D02*
X257600D01*
X255843Y176479D02*
X257600D01*
X256175Y175759D02*
X257600D01*
X256447Y175039D02*
X257600D01*
X256664Y174319D02*
X257600D01*
X256829Y173599D02*
X257600D01*
X256944Y172879D02*
X257600D01*
X257010Y172159D02*
X257600D01*
X257030Y171439D02*
X257600D01*
X257002Y170719D02*
X257600D01*
X256928Y169999D02*
X257600D01*
X256804Y169279D02*
X257600D01*
X256631Y168559D02*
X257600D01*
X256405Y167839D02*
X257600D01*
X256123Y167119D02*
X257600D01*
X255780Y166399D02*
X257600D01*
X255369Y165679D02*
X257600D01*
X254881Y164959D02*
X257600D01*
X254303Y164239D02*
X257600D01*
X253613Y163519D02*
X257600D01*
X252779Y162799D02*
X257600D01*
X251736Y162079D02*
X257600D01*
X250338Y161359D02*
X257600D01*
X247923Y160639D02*
X257600D01*
X231436Y159919D02*
X257600D01*
X231796Y159199D02*
X257600D01*
X231900Y158479D02*
X257600D01*
X231900Y157759D02*
X257600D01*
X231900Y157039D02*
X257600D01*
X231900Y156319D02*
X257600D01*
X231900Y155599D02*
X257600D01*
X247822Y154879D02*
X257600D01*
X250297Y154159D02*
X257600D01*
X251708Y153439D02*
X257600D01*
X252756Y152719D02*
X257600D01*
X253595Y151999D02*
X257600D01*
X254288Y151279D02*
X257600D01*
X254868Y150559D02*
X257600D01*
X255358Y149839D02*
X257600D01*
X255771Y149119D02*
X257600D01*
X256115Y148399D02*
X257600D01*
X256399Y147679D02*
X257600D01*
X256626Y146959D02*
X257600D01*
X256801Y146239D02*
X257600D01*
X256925Y145519D02*
X257600D01*
X257001Y144799D02*
X257600D01*
X257030Y144079D02*
X257600D01*
X257012Y143359D02*
X257600D01*
X256946Y142639D02*
X257600D01*
X256832Y141919D02*
X257600D01*
X256669Y141199D02*
X257600D01*
X256453Y140479D02*
X257600D01*
X256182Y139759D02*
X257600D01*
X255851Y139039D02*
X257600D01*
X255454Y138319D02*
X257600D01*
X254983Y137599D02*
X257600D01*
X254423Y136879D02*
X257600D01*
X253757Y136159D02*
X257600D01*
X252955Y135439D02*
X257600D01*
X251960Y134719D02*
X257600D01*
X250652Y133999D02*
X257600D01*
X248592Y133279D02*
X257600D01*
X231900Y132559D02*
X257600D01*
X231900Y131839D02*
X257600D01*
X231870Y131119D02*
X257600D01*
X231632Y130399D02*
X257600D01*
X231063Y129679D02*
X257600D01*
X187900Y128959D02*
X257600D01*
X187900Y128239D02*
X257600D01*
X187900Y127519D02*
X257600D01*
X187900Y126799D02*
X257600D01*
X187900Y126079D02*
X257600D01*
X187900Y125359D02*
X257600D01*
X187900Y124639D02*
X257600D01*
X187900Y123919D02*
X257600D01*
X187900Y123199D02*
X257600D01*
X227438Y122479D02*
X257600D01*
X227950Y121759D02*
X257600D01*
X228155Y121039D02*
X257600D01*
X228173Y120319D02*
X257600D01*
X228173Y119599D02*
X257600D01*
X228173Y118879D02*
X257600D01*
X228173Y118159D02*
X257600D01*
X228173Y117439D02*
X257600D01*
X228173Y116719D02*
X257600D01*
X228173Y115999D02*
X257600D01*
X228173Y115279D02*
X257600D01*
X228173Y114559D02*
X257600D01*
X228173Y113839D02*
X257600D01*
X228173Y113119D02*
X257600D01*
X228173Y112399D02*
X257600D01*
X228172Y111679D02*
X257600D01*
X228039Y110959D02*
X257600D01*
X227637Y110239D02*
X257600D01*
X226657Y109519D02*
X257600D01*
X102400Y108799D02*
X257600D01*
X102400Y108079D02*
X257600D01*
X102400Y107359D02*
X257600D01*
X102400Y106639D02*
X257600D01*
X102400Y105919D02*
X257600D01*
X102400Y105199D02*
X257600D01*
X102400Y104479D02*
X257600D01*
X102400Y103759D02*
X257600D01*
X102400Y103039D02*
X257600D01*
X231900Y154879D02*
X244178D01*
X231740Y160639D02*
X244077D01*
X231900Y182239D02*
X243481D01*
X231900Y133279D02*
X243408D01*
X231900Y154159D02*
X241703D01*
X231896Y161359D02*
X241662D01*
X231900Y181519D02*
X241386D01*
X231900Y133999D02*
X241348D01*
X231900Y153439D02*
X240292D01*
X231900Y162079D02*
X240264D01*
X231795Y180799D02*
X240067D01*
X231900Y134719D02*
X240040D01*
X231900Y152719D02*
X239244D01*
X231900Y162799D02*
X239221D01*
X231434Y180079D02*
X239067D01*
X231900Y135439D02*
X239045D01*
X231900Y151999D02*
X238405D01*
X231900Y163519D02*
X238387D01*
X231741Y179359D02*
X238260D01*
X231900Y136159D02*
X238243D01*
X231890Y151279D02*
X237712D01*
X231900Y164239D02*
X237697D01*
X231896Y178639D02*
X237591D01*
X231900Y136879D02*
X237577D01*
X231708Y150559D02*
X237132D01*
X231900Y164959D02*
X237119D01*
X231900Y177919D02*
X237030D01*
X231900Y137599D02*
X237017D01*
X231492Y149839D02*
X236642D01*
X231900Y165679D02*
X236631D01*
X231900Y177199D02*
X236556D01*
X231900Y138319D02*
X236546D01*
X231819Y149119D02*
X236229D01*
X231900Y166399D02*
X236220D01*
X231900Y176479D02*
X236157D01*
X231839Y139039D02*
X236149D01*
X231900Y148399D02*
X235885D01*
X231900Y167119D02*
X235877D01*
X231900Y175759D02*
X235825D01*
X231543Y139759D02*
X235818D01*
X231900Y147679D02*
X235601D01*
X231900Y167839D02*
X235595D01*
X231900Y175039D02*
X235553D01*
X231672Y140479D02*
X235547D01*
X231900Y146959D02*
X235374D01*
X231899Y168559D02*
X235369D01*
X231900Y174319D02*
X235336D01*
X231881Y141199D02*
X235331D01*
X231900Y146239D02*
X235199D01*
X231770Y169279D02*
X235196D01*
X231900Y173599D02*
X235171D01*
X231900Y141919D02*
X235168D01*
X231900Y145519D02*
X235075D01*
X231375Y169999D02*
X235072D01*
X231900Y172879D02*
X235056D01*
X231900Y142639D02*
X235054D01*
X231900Y144799D02*
X234999D01*
X231769Y170719D02*
X234998D01*
X231900Y172159D02*
X234990D01*
X231900Y143359D02*
X234988D01*
X231900Y144079D02*
X234970D01*
X231899Y171439D02*
X234970D01*
X219819Y190879D02*
X222181D01*
X187893Y129679D02*
X210937D01*
X187725Y130399D02*
X210368D01*
X187272Y131119D02*
X210130D01*
X178783Y138319D02*
X210100D01*
X179503Y137599D02*
X210100D01*
X180223Y136879D02*
X210100D01*
X180943Y136159D02*
X210100D01*
X181663Y135439D02*
X210100D01*
X182383Y134719D02*
X210100D01*
X183103Y133999D02*
X210100D01*
X183823Y133279D02*
X210100D01*
X184446Y132559D02*
X210100D01*
X186039Y131839D02*
X210100D01*
X178063Y139039D02*
X209416D01*
X184955Y139759D02*
X208696D01*
X185329Y140479D02*
X207976D01*
X185353Y141199D02*
X207256D01*
X185353Y141919D02*
X206561D01*
X185353Y142639D02*
X206237D01*
X177065Y155599D02*
X206200D01*
X177065Y154879D02*
X206200D01*
X177065Y154159D02*
X206200D01*
X177051Y153439D02*
X206200D01*
X176721Y152719D02*
X206200D01*
X176163Y151999D02*
X206200D01*
X176163Y151279D02*
X206200D01*
X176163Y150559D02*
X206200D01*
X176155Y149839D02*
X206200D01*
X175863Y149119D02*
X206200D01*
X102400Y148399D02*
X206200D01*
X102400Y147679D02*
X206200D01*
X102400Y146959D02*
X206200D01*
X185117Y146239D02*
X206200D01*
X185352Y145519D02*
X206200D01*
X185353Y144799D02*
X206200D01*
X185353Y144079D02*
X206200D01*
X185353Y143359D02*
X206200D01*
X177065Y156319D02*
X205636D01*
X177065Y157039D02*
X204916D01*
X177065Y157759D02*
X204196D01*
X177061Y158479D02*
X203476D01*
X176788Y159199D02*
X202756D01*
X172324Y159919D02*
X202036D01*
X189077Y160639D02*
X201316D01*
X102400Y109519D02*
X200616D01*
X189994Y161359D02*
X200596D01*
X190150Y162079D02*
X199876D01*
X187900Y122479D02*
X199835D01*
X186304Y110239D02*
X199636D01*
X187783Y121759D02*
X199322D01*
X187340Y110959D02*
X199234D01*
X190150Y162799D02*
X199156D01*
X187404Y121039D02*
X199117D01*
X187755Y111679D02*
X199101D01*
X187756Y120319D02*
X199100D01*
X187898Y119599D02*
X199100D01*
X187900Y118879D02*
X199100D01*
X187900Y118159D02*
X199100D01*
X187900Y117439D02*
X199100D01*
X187900Y116719D02*
X199100D01*
X187900Y115999D02*
X199100D01*
X187900Y115279D02*
X199100D01*
X187900Y114559D02*
X199100D01*
X187900Y113839D02*
X199100D01*
X187900Y113119D02*
X199100D01*
X187898Y112399D02*
X199100D01*
X190150Y163519D02*
X198436D01*
X190130Y164239D02*
X197716D01*
X189770Y164959D02*
X197032D01*
X189884Y165679D02*
X196729D01*
X184754Y175759D02*
X196700D01*
X184740Y175039D02*
X196700D01*
X184412Y174319D02*
X196700D01*
X181317Y173599D02*
X196700D01*
X182037Y172879D02*
X196700D01*
X182757Y172159D02*
X196700D01*
X184714Y171439D02*
X196700D01*
X185277Y170719D02*
X196700D01*
X185353Y169999D02*
X196700D01*
X189913Y169279D02*
X196700D01*
X190149Y168559D02*
X196700D01*
X190150Y167839D02*
X196700D01*
X190150Y167119D02*
X196700D01*
X190146Y166399D02*
X196700D01*
X184754Y176479D02*
X196476D01*
X184754Y177199D02*
X195756D01*
X184576Y177919D02*
X195036D01*
X184638Y178639D02*
X194316D01*
X184707Y179359D02*
X193596D01*
X184707Y180079D02*
X192876D01*
X184707Y180799D02*
X192156D01*
X184635Y181519D02*
X191436D01*
X184084Y182239D02*
X190716D01*
X182649Y182959D02*
X189996D01*
X182650Y183679D02*
X189276D01*
X182650Y184399D02*
X188556D01*
X182645Y185119D02*
X187836D01*
X182371Y185839D02*
X187116D01*
X155415Y186559D02*
X186396D01*
X171800Y160639D02*
X185923D01*
X155620Y187279D02*
X185676D01*
X177524Y187999D02*
X184956D01*
X171800Y161359D02*
X179429D01*
X171800Y162079D02*
X178543D01*
X171800Y162799D02*
X177836D01*
X102400Y110239D02*
X177696D01*
X155596Y185839D02*
X177629D01*
X171800Y163519D02*
X177478D01*
X171800Y164239D02*
X177428D01*
X164400Y131839D02*
X177060D01*
X176894Y139759D02*
X177045D01*
X102400Y146239D02*
X176883D01*
X171800Y164959D02*
X176773D01*
X164400Y131119D02*
X176728D01*
X161241Y140479D02*
X176671D01*
X102400Y110959D02*
X176660D01*
X102400Y145519D02*
X176648D01*
X171707Y168559D02*
X176647D01*
X171800Y167839D02*
X176647D01*
X171800Y167119D02*
X176647D01*
X171800Y166399D02*
X176647D01*
X171800Y165679D02*
X176647D01*
X102400Y144799D02*
X176647D01*
X102400Y144079D02*
X176647D01*
X102400Y143359D02*
X176647D01*
X102400Y142639D02*
X176647D01*
X102400Y141919D02*
X176647D01*
X102400Y141199D02*
X176647D01*
X102400Y121039D02*
X176596D01*
X171292Y169279D02*
X176487D01*
X168039Y132559D02*
X176340D01*
X164400Y130399D02*
X176275D01*
X102400Y111679D02*
X176245D01*
X102400Y120319D02*
X176244D01*
X102400Y121759D02*
X176217D01*
X164400Y129679D02*
X176107D01*
X102400Y112399D02*
X176102D01*
X102400Y119599D02*
X176102D01*
X102400Y122479D02*
X176100D01*
X164400Y128959D02*
X176100D01*
X164400Y128239D02*
X176100D01*
X164400Y127519D02*
X176100D01*
X164400Y126799D02*
X176100D01*
X164229Y126079D02*
X176100D01*
X163156Y125359D02*
X176100D01*
X102400Y124639D02*
X176100D01*
X102400Y123919D02*
X176100D01*
X102400Y123199D02*
X176100D01*
X102400Y118879D02*
X176100D01*
X102400Y118159D02*
X176100D01*
X102400Y117439D02*
X176100D01*
X102400Y116719D02*
X176100D01*
X102400Y115999D02*
X176100D01*
X102400Y115279D02*
X176100D01*
X102400Y114559D02*
X176100D01*
X102400Y113839D02*
X176100D01*
X102400Y113119D02*
X176100D01*
X170673Y169999D02*
X175767D01*
X168932Y133279D02*
X175620D01*
X169463Y133999D02*
X174900D01*
X170358Y170719D02*
X173736D01*
X169870Y171439D02*
X173016D01*
X170438Y191599D02*
X172301D01*
X170256Y172159D02*
X172296D01*
X170869Y172879D02*
X171576D01*
X102400Y149119D02*
X171163D01*
X102400Y149839D02*
X170871D01*
X102400Y151999D02*
X170863D01*
X102400Y151279D02*
X170863D01*
X102400Y150559D02*
X170863D01*
X120764Y152719D02*
X170279D01*
X123248Y153439D02*
X169949D01*
X152200Y157039D02*
X169935D01*
X152200Y156319D02*
X169935D01*
X152200Y155599D02*
X169935D01*
X152200Y154879D02*
X169935D01*
X152200Y154159D02*
X169935D01*
X155594Y185119D02*
X169583D01*
X155561Y190879D02*
X169407D01*
X152200Y157759D02*
X169393D01*
X155551Y187999D02*
X169371D01*
X155341Y178639D02*
X169008D01*
X155421Y184399D02*
X168979D01*
X155481Y180799D02*
X168919D01*
X155486Y190159D02*
X168914D01*
X155499Y188719D02*
X168901D01*
X155504Y182239D02*
X168896D01*
X155548Y182959D02*
X168852D01*
X154981Y180079D02*
X168836D01*
X167309Y177919D02*
X168796D01*
X154588Y179359D02*
X168785D01*
X155621Y183679D02*
X168779D01*
X155627Y181519D02*
X168773D01*
X155627Y189439D02*
X168773D01*
X152200Y158479D02*
X168675D01*
X152200Y159199D02*
X168270D01*
X152200Y161359D02*
X168200D01*
X152200Y160639D02*
X168200D01*
X152200Y159919D02*
X168200D01*
X165341Y177919D02*
X166933D01*
X164533Y191599D02*
X165773D01*
X165030Y192319D02*
X165275D01*
X163372Y177919D02*
X164965D01*
X163267Y162079D02*
X163316D01*
X159435Y177919D02*
X162996D01*
X160596Y191599D02*
X161836D01*
X160787Y177199D02*
X161645D01*
X161093Y192319D02*
X161338D01*
X161163Y176479D02*
X161269D01*
X152200Y162079D02*
X159733D01*
X152200Y162799D02*
X159175D01*
X158360Y164239D02*
X159100D01*
X152200Y163519D02*
X159100D01*
X155604Y177919D02*
X159059D01*
X156850Y177199D02*
X157708D01*
X157226Y176479D02*
X157332D01*
X102400Y140479D02*
X154759D01*
X150650Y133999D02*
X154572D01*
X152200Y164239D02*
X154040D01*
X152200Y164959D02*
X153107D01*
X102400Y125359D02*
X152844D01*
X152200Y165679D02*
X152387D01*
X150650Y133279D02*
X152050D01*
X102400Y126079D02*
X151771D01*
X150438Y132559D02*
X151634D01*
X102400Y131839D02*
X151600D01*
X102400Y131119D02*
X151600D01*
X102400Y130399D02*
X151600D01*
X102400Y129679D02*
X151600D01*
X102400Y128959D02*
X151600D01*
X102400Y128239D02*
X151600D01*
X102400Y127519D02*
X151600D01*
X102400Y126799D02*
X151600D01*
X102400Y200959D02*
X145700D01*
X102400Y200239D02*
X145700D01*
X102400Y199519D02*
X145700D01*
X102400Y198799D02*
X145700D01*
X102400Y198079D02*
X145700D01*
X102400Y197359D02*
X145700D01*
X102400Y216799D02*
X144471D01*
X102400Y139759D02*
X144035D01*
X102400Y201679D02*
X143787D01*
X102400Y216079D02*
X143073D01*
X102400Y202399D02*
X142986D01*
X102400Y203119D02*
X142850D01*
X102400Y203839D02*
X142722D01*
X102400Y215359D02*
X142353D01*
X102400Y204559D02*
X141912D01*
X102400Y214639D02*
X141633D01*
X102400Y205279D02*
X141102D01*
X102400Y213919D02*
X140913D01*
X102400Y213199D02*
X140193D01*
X102400Y187279D02*
X139900D01*
X102400Y182959D02*
X139900D01*
X102400Y182239D02*
X139900D01*
X102400Y181519D02*
X139900D01*
X102400Y180799D02*
X139900D01*
X102400Y180079D02*
X139900D01*
X102400Y179359D02*
X139900D01*
X102400Y178639D02*
X139900D01*
X102400Y177919D02*
X139900D01*
X102400Y177199D02*
X139900D01*
X102400Y176479D02*
X139900D01*
X102400Y175759D02*
X139900D01*
X102400Y175039D02*
X139900D01*
X102400Y174319D02*
X139900D01*
X102400Y173599D02*
X139900D01*
X102400Y172879D02*
X139900D01*
X102400Y172159D02*
X139900D01*
X102400Y171439D02*
X139900D01*
X102400Y170719D02*
X139900D01*
X102400Y169999D02*
X139900D01*
X102400Y169279D02*
X139900D01*
X102400Y168559D02*
X139900D01*
X102400Y167839D02*
X139900D01*
X121710Y167119D02*
X139900D01*
X123558Y166399D02*
X139900D01*
X124621Y165679D02*
X139900D01*
X125386Y164959D02*
X139900D01*
X125969Y164239D02*
X139900D01*
X126328Y156319D02*
X139900D01*
X125851Y155599D02*
X139900D01*
X125232Y154879D02*
X139900D01*
X124414Y154159D02*
X139900D01*
X102400Y187999D02*
X139876D01*
X102400Y191599D02*
X139703D01*
X102400Y186559D02*
X139693D01*
X102400Y183679D02*
X139660D01*
X102400Y188719D02*
X139659D01*
X102400Y190879D02*
X139659D01*
X102400Y190159D02*
X139659D01*
X102400Y189439D02*
X139659D01*
X102400Y185839D02*
X139659D01*
X102400Y185119D02*
X139659D01*
X102400Y184399D02*
X139659D01*
X102400Y212479D02*
X139473D01*
X102400Y192319D02*
X139455D01*
X102400Y196639D02*
X139418D01*
X102400Y193039D02*
X139116D01*
X102400Y195919D02*
X139110D01*
X102400Y195199D02*
X139100D01*
X102400Y194479D02*
X139100D01*
X102400Y193759D02*
X139100D01*
X102400Y211759D02*
X138887D01*
X102400Y211039D02*
X138702D01*
X102400Y210319D02*
X138700D01*
X102400Y205999D02*
X138272D01*
X102400Y209599D02*
X137984D01*
X102400Y206719D02*
X137879D01*
X102400Y208879D02*
X137850D01*
X102400Y208159D02*
X137850D01*
X102400Y207439D02*
X137850D01*
X102400Y132559D02*
X137562D01*
X102400Y139039D02*
X137561D01*
X102400Y133279D02*
X137350D01*
X102400Y138319D02*
X137350D01*
X102400Y137599D02*
X137350D01*
X102400Y136879D02*
X137350D01*
X102400Y136159D02*
X137350D01*
X102400Y135439D02*
X137350D01*
X102400Y134719D02*
X137350D01*
X102400Y133999D02*
X137350D01*
X102400Y152719D02*
X119236D01*
X102400Y167119D02*
X118290D01*
X102400Y153439D02*
X116752D01*
X102400Y166399D02*
X116442D01*
X102400Y154159D02*
X115586D01*
X102400Y165679D02*
X115379D01*
X102400Y154879D02*
X114768D01*
X102400Y164959D02*
X114614D01*
X102400Y155599D02*
X114149D01*
X102400Y164239D02*
X114031D01*
X102400Y156319D02*
X113672D01*
X102400Y163519D02*
X113580D01*
X102400Y157039D02*
X113304D01*
X102400Y162799D02*
X113235D01*
X102400Y157759D02*
X113030D01*
X102400Y162079D02*
X112980D01*
X102400Y158479D02*
X112839D01*
X102400Y161359D02*
X112806D01*
X102400Y159199D02*
X112723D01*
X102400Y160639D02*
X112707D01*
X102400Y159919D02*
X112679D01*
G54D40*
X246000Y171500D03*
G54D55*
X159200Y170800D02*
X159600Y170400D01*
X159200Y171000D02*
X159000D01*
X159200Y170800*
X156200Y168500D02*
X156300Y167900D01*
X152600Y168500D02*
Y168680D01*
X152780Y168860*
X173513Y155987D02*
X175000Y154500D01*
X175100Y187453D02*
X176000Y186553D01*
Y186500*
X183500Y188000D02*
X184000Y187500D01*
X187098Y167902D02*
X187500Y167500D01*
X173500Y156000D02*
X173513Y155987D01*
X145250Y204000D02*
X145500D01*
Y211000D02*
X146000Y211500D01*
X145500Y212000*
X140500Y208000D02*
X140750D01*
X161216Y194146D02*
Y195228D01*
X180200Y203576D02*
Y204000D01*
X176561Y202689D02*
Y203000D01*
X169500D02*
X173000D01*
X176500D02*
Y203576D01*
X256930Y144000D02*
G03X256930I-10930J0D01*
G01Y171500D02*
G03X256930I-10930J0D01*
G01X257700Y102600D02*
Y217400D01*
G03X257400Y217700I-300J-0*
G01X102600*
G03X102300Y217400I0J-300*
G01Y102600*
G03X102600Y102300I300J0*
G01X257400*
G03X257700Y102600I-0J300*
G01X188500Y202713D02*
Y202972D01*
G03X188412Y203184I-300J-0*
G01X187098Y204498*
X186600Y205700D02*
G03X187098Y204498I1700J-0D01*
G01X186600Y205700D02*
Y207831D01*
G03X186512Y208043I-300J0*
G01X185043Y209512*
G03X184831Y209600I-212J-212*
G01X184494*
G03X184209Y209207I-0J-300*
G01X182868Y204901D02*
G03X184209Y209207I-2368J3099D01*
G01X182868Y204901D02*
G03X182750Y204663I182J-238D01*
G01Y203000*
X181450Y201700D02*
G03X182750Y203000I0J1300D01*
G01X181450Y201700D02*
X179061D01*
G03X178769Y201466I0J-300*
G01X178420Y200831D02*
G03X178769Y201466I-920J919D01*
G01X178420Y200831D02*
G03X178632Y200319I212J-212D01*
G01X180897*
X182099Y199821D02*
G03X180897Y200319I-1202J-1202D01*
G01X182099Y199821D02*
X182382Y199538D01*
G03X182594Y199450I212J212*
G01X187350*
G03X187650Y199750I-0J300*
G01Y201300*
X188341Y202448D02*
G03X187650Y201300I609J-1148D01*
G01X188341Y202448D02*
G03X188500Y202713I-141J265D01*
G01X172045Y191312D02*
G03X172292Y191782I0J300D01*
G01X172122Y192050D02*
G03X172292Y191782I3378J1950D01*
G01X172122Y192050D02*
G03X171863Y192200I-259J-150D01*
G01X170946*
G03X170692Y192059I0J-300*
G01X170506Y191810D02*
G03X170692Y192059I-1416J1253D01*
G01X170506Y191810D02*
G03X170735Y191312I225J-198D01*
G01X170763D02*
G03X170735I0J-1891D01*
G01X170763D02*
X172045D01*
X164129Y199141D02*
G03Y199565I-212J212D01*
G01X163182Y200512*
G03X162970Y200600I-212J-212*
G01X162169*
G03X161957Y200512I-0J-300*
G01X161035Y199591*
G03X160947Y199379I212J-212*
G01Y196290*
G03X161538Y196215I300J0*
G01X161982Y196994D02*
G03X161538Y196215I1202J-1202D01*
G01X161982Y196994D02*
X164129Y199141D01*
X170650Y205541D02*
G03X170931Y206010I34J298D01*
G01X170700Y206750D02*
G03X170931Y206010I1300J0D01*
G01X170700Y206750D02*
Y209250D01*
X170701Y209291D02*
G03X170700Y209250I1299J-41D01*
G01X170701Y209291D02*
G03X170401Y209600I-300J9D01*
G01X165169*
G03X164957Y209512I-0J-300*
G01X164488Y209043*
G03X164400Y208831I212J-212*
G01Y208537*
X163902Y207335D02*
G03X164400Y208537I-1202J1202D01*
G01X163902Y207335D02*
X162780Y206212D01*
G03X162992Y205700I212J-212*
G01X164500*
X165702Y205202D02*
G03X164500Y205700I-1202J-1202D01*
G01X165702Y205202D02*
X166116Y204788D01*
G03X166328Y204700I212J212*
G01X167087*
G03X167352Y204859I-0J300*
G01X168500Y205550D02*
G03X167352Y204859I0J-1300D01*
G01X168500Y205550D02*
X170500D01*
X170650Y205541D02*
G03X170500Y205550I-150J-1291D01*
G01X161161Y212788D02*
G03X160949Y213300I-212J212D01*
G01X152247*
G03X151951Y212948I-0J-300*
G01X151971Y212723D02*
G03X151951Y212948I-1300J0D01*
G01X151971Y212723D02*
Y210223D01*
X151705Y209436D02*
G03X151971Y210223I-1034J787D01*
G01X151705Y209436D02*
G03X152022Y208965I239J-181D01*
G01X152358Y209009D02*
G03X152022Y208965I0J-1300D01*
G01X152358Y209009D02*
X154358D01*
X155658Y207709D02*
G03X154358Y209009I-1300J0D01*
G01X155658Y207709D02*
Y207413D01*
G03X156170Y207201I300J0*
G01X159328Y210358*
G03X159413Y210533I-213J213*
G01X159898Y211525D02*
G03X159413Y210533I1202J-1202D01*
G01X159898Y211525D02*
X161161Y212788D01*
X256930Y144000D02*
G03X256930I-10930J0D01*
G01Y171500D02*
G03X256930I-10930J0D01*
G01X228073Y120750D02*
Y111750D01*
X225773Y109450D02*
G03X228073Y111750I-0J2300D01*
G01X225773Y109450D02*
X201500D01*
X199200Y111750D02*
G03X201500Y109450I2300J0D01*
G01X199200Y111750D02*
Y120750D01*
X201500Y123050D02*
G03X199200Y120750I0J-2300D01*
G01X201500Y123050D02*
X225773D01*
X228073Y120750D02*
G03X225773Y123050I-2300J0D01*
G01X231800Y188500D02*
Y181500D01*
X231379Y180173D02*
G03X231800Y181500I-1879J1327D01*
G01X231379Y180173D02*
G03Y179827I245J-173D01*
G01X231800Y178500D02*
G03X231379Y179827I-2300J0D01*
G01X231800Y178500D02*
Y171500D01*
X231379Y170173D02*
G03X231800Y171500I-1879J1327D01*
G01X231379Y170173D02*
G03Y169827I245J-173D01*
G01X231800Y168500D02*
G03X231379Y169827I-2300J0D01*
G01X231800Y168500D02*
Y161500D01*
X231379Y160173D02*
G03X231800Y161500I-1879J1327D01*
G01X231379Y160173D02*
G03Y159827I245J-173D01*
G01X231800Y158500D02*
G03X231379Y159827I-2300J0D01*
G01X231800Y158500D02*
Y151500D01*
X231379Y150173D02*
G03X231800Y151500I-1879J1327D01*
G01X231379Y150173D02*
G03Y149827I245J-173D01*
G01X231800Y148500D02*
G03X231379Y149827I-2300J0D01*
G01X231800Y148500D02*
Y141500D01*
X231379Y140173D02*
G03X231800Y141500I-1879J1327D01*
G01X231379Y140173D02*
G03Y139827I245J-173D01*
G01X231800Y138500D02*
G03X231379Y139827I-2300J0D01*
G01X231800Y138500D02*
Y131500D01*
X229500Y129200D02*
G03X231800Y131500I0J2300D01*
G01X229500Y129200D02*
X222500D01*
X221173Y129621D02*
G03X222500Y129200I1327J1879D01*
G01X221173Y129621D02*
G03X220827I-173J-245D01*
G01X219500Y129200D02*
G03X220827Y129621I0J2300D01*
G01X219500Y129200D02*
X212500D01*
X210200Y131500D02*
G03X212500Y129200I2300J0D01*
G01X210200Y131500D02*
Y138272D01*
G03X210112Y138484I-300J-0*
G01X206798Y141798*
X206300Y143000D02*
G03X206798Y141798I1700J0D01*
G01X206300Y143000D02*
Y155672D01*
G03X206212Y155884I-300J-0*
G01X197298Y164798*
X196800Y166000D02*
G03X197298Y164798I1700J0D01*
G01X196800Y166000D02*
Y176172D01*
G03X196712Y176384I-300J-0*
G01X184384Y188712*
G03X184172Y188800I-212J-212*
G01X178328*
G03X178116Y188712I0J-300*
G01X177623Y188219*
X176421Y187721D02*
G03X177623Y188219I0J1700D01*
G01X176421Y187721D02*
X173822D01*
G03X173700Y187695I-0J-300*
G01X172928Y187531D02*
G03X173700Y187695I0J1890D01*
G01X172928Y187531D02*
X170763D01*
X169347Y190674D02*
G03X170763Y187531I1416J-1253D01*
G01X169347Y190674D02*
G03X169118Y191173I-225J199D01*
G01X168240Y191374D02*
G03X169118Y191173I850J1689D01*
G01X168240Y191374D02*
G03X167971I-134J-268D01*
G01X165422Y192234D02*
G03X167971Y191374I1699J829D01*
G01X165422Y192234D02*
G03X164883I-269J-132D01*
G01X161485D02*
G03X164883I1699J829D01*
G01X161485D02*
G03X160946I-269J-132D01*
G01X158398Y191374D02*
G03X160946Y192234I849J1689D01*
G01X158398Y191374D02*
G03X158128I-135J-268D01*
G01X156429D02*
G03X158128I850J1689D01*
G01X156429D02*
G03X156160I-135J-268D01*
G01X155713Y191216D02*
G03X156160Y191374I-403J1847D01*
G01X155713Y191216D02*
G03X155484Y190987I64J-293D01*
G01X155326Y190540D02*
G03X155484Y190987I-1689J850D01*
G01X155326Y190540D02*
G03Y190271I268J-134D01*
G01Y188572D02*
G03Y190271I-1689J849D01*
G01Y188572D02*
G03Y188302I268J-135D01*
G01Y186603D02*
G03Y188302I-1689J850D01*
G01Y186603D02*
G03Y186334I268J-135D01*
G01Y184635D02*
G03Y186334I-1689J849D01*
G01Y184635D02*
G03Y184365I268J-135D01*
G01Y182666D02*
G03Y184365I-1689J850D01*
G01Y182666D02*
G03Y182397I268J-134D01*
G01X154466Y179848D02*
G03X155326Y182397I-829J1699D01*
G01X154466Y179848D02*
G03Y179309I132J-269D01*
G01X155484Y178013D02*
G03X154466Y179309I-1847J-403D01*
G01X155484Y178013D02*
G03X155713Y177784I293J64D01*
G01X157009Y176766D02*
G03X155713Y177784I-1699J-829D01*
G01X157009Y176766D02*
G03X157548I270J132D01*
G01X160946D02*
G03X157548I-1699J-829D01*
G01X160946D02*
G03X161485I270J132D01*
G01X164034Y177626D02*
G03X161485Y176766I-850J-1689D01*
G01X164034Y177626D02*
G03X164303I134J268D01*
G01X166002D02*
G03X164303I-849J-1689D01*
G01X166002D02*
G03X166272I135J268D01*
G01X167971D02*
G03X166272I-850J-1689D01*
G01X167971D02*
G03X168240I135J268D01*
G01X168687Y177784D02*
G03X168240Y177626I403J-1847D01*
G01X168687Y177784D02*
G03X168916Y178013I-64J293D01*
G01X169074Y178460D02*
G03X168916Y178013I1689J-850D01*
G01X169074Y178460D02*
G03Y178729I-268J134D01*
G01Y180428D02*
G03Y178729I1689J-849D01*
G01Y180428D02*
G03Y180698I-268J135D01*
G01Y182397D02*
G03Y180698I1689J-850D01*
G01Y182397D02*
G03Y182666I-268J135D01*
G01X170763Y185406D02*
G03X169074Y182666I0J-1890D01*
G01X170763Y185406D02*
X172928D01*
X173700Y185242D02*
G03X172928Y185406I-772J-1726D01*
G01X173700Y185242D02*
G03X173822Y185216I122J274D01*
G01X176984*
X177193Y185203D02*
G03X176984Y185216I-209J-1687D01*
G01X177193Y185203D02*
G03X177515Y185407I37J298D01*
G01X178750Y186300D02*
G03X177515Y185407I0J-1300D01*
G01X178750Y186300D02*
X181250D01*
X182550Y185000D02*
G03X181250Y186300I-1300J0D01*
G01X182550Y185000D02*
Y183000D01*
X182523Y182735D02*
G03X182550Y183000I-1273J265D01*
G01X182523Y182735D02*
G03X182817Y182374I294J-61D01*
G01X183307*
X184607Y181074D02*
G03X183307Y182374I-1300J0D01*
G01X184607Y181074D02*
Y179074D01*
X184389Y178354D02*
G03X184607Y179074I-1082J720D01*
G01X184389Y178354D02*
G03X184398Y178009I250J-166D01*
G01X184654Y177235D02*
G03X184398Y178009I-1300J0D01*
G01X184654Y177235D02*
Y175235D01*
X183354Y173935D02*
G03X184654Y175235I-0J1300D01*
G01X183354Y173935D02*
X181563D01*
G03X181351Y173423I0J-300*
G01X183123Y171652*
G03X183335Y171564I212J212*
G01X183953*
X185253Y170264D02*
G03X183953Y171564I-1300J-0D01*
G01X185253Y170264D02*
Y169940D01*
G03X185684Y169670I300J0*
G01X186250Y169800D02*
G03X185684Y169670I0J-1300D01*
G01X186250Y169800D02*
X188750D01*
X190050Y168500D02*
G03X188750Y169800I-1300J0D01*
G01X190050Y168500D02*
Y166500D01*
X189562Y165484D02*
G03X190050Y166500I-812J1016D01*
G01X189562Y165484D02*
G03Y165016I187J-234D01*
G01X190050Y164000D02*
G03X189562Y165016I-1300J0D01*
G01X190050Y164000D02*
Y162000D01*
X188750Y160700D02*
G03X190050Y162000I0J1300D01*
G01X188750Y160700D02*
X186250D01*
X185235Y161187D02*
G03X186250Y160700I1015J813D01*
G01X185235Y161187D02*
G03X185001Y161300I-234J-187D01*
G01X180168*
X178966Y161798D02*
G03X180168Y161300I1202J1202D01*
G01X178966Y161798D02*
X178026Y162737D01*
X177528Y163939D02*
G03X178026Y162737I1700J0D01*
G01X177528Y163939D02*
Y164165D01*
G03X177382Y164423I-300J-0*
G01X176747Y165539D02*
G03X177382Y164423I1300J0D01*
G01X176747Y165539D02*
Y169035D01*
G03X176659Y169247I-300J0*
G01X175883Y170024*
X175883D02*
G03X175670Y170112I-213J-212D01*
G01X175188*
X173986Y170610D02*
G03X175188Y170112I1202J1202D01*
G01X173986Y170610D02*
X171529Y173066D01*
G03X171317Y173154I-212J-212*
G01X171079*
G03X170807Y172980I0J-300*
G01X169761Y172004D02*
G03X170807Y172980I-671J1768D01*
G01X169761Y172004D02*
G03X169655Y171512I106J-280D01*
G01X169873Y171294*
X170362Y170264D02*
G03X169873Y171294I-1692J-172D01*
G01X170362Y170264D02*
G03X170448Y170082I298J30D01*
G01X170855Y169676*
X171085Y169390D02*
G03X170855Y169676I-1432J-917D01*
G01X171085Y169390D02*
G03X171093Y169377I252J161D01*
G01X171113Y169349D02*
G03X171093Y169377I-1402J-961D01*
G01X171113Y169349D02*
G03X171129Y169328I247J170D01*
G01X171281Y169110D02*
G03X171129Y169328I-1464J-863D01*
G01X171281Y169110D02*
G03X171309Y169071I259J153D01*
G01X171700Y167986D02*
G03X171309Y169071I-1700J0D01*
G01X171700Y167986D02*
Y160525D01*
G03X171788Y160313I300J0*
G01X172351Y159750*
G03X172563Y159662I212J212*
G01X175665*
X176965Y158362D02*
G03X175665Y159662I-1300J0D01*
G01X176965Y158362D02*
Y153638D01*
X176221Y152463D02*
G03X176965Y153638I-556J1175D01*
G01X176221Y152463D02*
G03X176052Y152153I129J-272D01*
G01X176063Y151985D02*
G03X176052Y152153I-1300J-0D01*
G01X176063Y151985D02*
Y149985D01*
X174763Y148685D02*
G03X176063Y149985I-0J1300D01*
G01X174763Y148685D02*
X172263D01*
X170963Y149985D02*
G03X172263Y148685I1300J-0D01*
G01X170963Y149985D02*
Y151985D01*
X170973Y152143D02*
G03X170963Y151985I1290J-158D01*
G01X170973Y152143D02*
G03X170799Y152453I-298J37D01*
G01X170035Y153638D02*
G03X170799Y152453I1300J-0D01*
G01X170035Y153638D02*
Y157134D01*
G03X169947Y157346I-300J-0*
G01X168798Y158495*
X168300Y159697D02*
G03X168798Y158495I1700J-0D01*
G01X168300Y159697D02*
Y161439D01*
G03X168000Y161739I-300J0*
G01X164335*
X163468Y162070D02*
G03X164335Y161739I867J969D01*
G01X163468Y162070D02*
G03X163124Y162110I-200J-224D01*
G01X162500Y161950D02*
G03X163124Y162110I0J1300D01*
G01X162500Y161950D02*
X160500D01*
X159200Y163250D02*
G03X160500Y161950I1300J0D01*
G01X159200Y163250D02*
Y164315D01*
G03X158721Y164555I-300J-0*
G01X157647Y164200D02*
G03X158721Y164555I0J1800D01*
G01X157647Y164200D02*
X154753D01*
X153480Y164727D02*
G03X154753Y164200I1273J1273D01*
G01X153480Y164727D02*
X152612Y165595D01*
G03X152100Y165383I-212J-212*
G01Y154100*
X151800Y153800D02*
G03X152100Y154100I0J300D01*
G01X151800Y153800D02*
X140300D01*
X140000Y154100D02*
G03X140300Y153800I300J0D01*
G01X140000Y154100D02*
Y156500D01*
G03X139700Y156800I-300J-0*
G01X126657*
G03X126392Y156640I0J-300*
G01X126115Y163840D02*
G03X126392Y156640I-6115J-3840D01*
G01X126115Y163840D02*
G03X126369Y163700I254J160D01*
G01X139700*
G03X140000Y164000I-0J300*
G01Y182904*
G03X139955Y183062I-300J-0*
G01X139759Y183749D02*
G03X139955Y183062I1300J-0D01*
G01X139759Y183749D02*
Y186249D01*
X139955Y186936D02*
G03X139759Y186249I1104J-687D01*
G01X139955Y186936D02*
G03X140000Y187094I-255J158D01*
G01Y187904*
G03X139955Y188062I-300J-0*
G01X139759Y188749D02*
G03X139955Y188062I1300J-0D01*
G01X139759Y188749D02*
Y191249D01*
X139879Y191796D02*
G03X139759Y191249I1180J-547D01*
G01X139879Y191796D02*
G03X139775Y192171I-272J126D01*
G01X139200Y193250D02*
G03X139775Y192171I1300J0D01*
G01X139200Y193250D02*
Y195750D01*
X140500Y197050D02*
G03X139200Y195750I0J-1300D01*
G01X140500Y197050D02*
X142500D01*
X143109Y196898D02*
G03X142500Y197050I-609J-1148D01*
G01X143109Y196898D02*
G03X143391I141J265D01*
G01X144000Y197050D02*
G03X143391Y196898I0J-1300D01*
G01X144000Y197050D02*
X145500D01*
G03X145800Y197350I-0J300*
G01Y200932*
G03X145757Y201087I-300J0*
G01X145476Y201555*
G03X145219Y201700I-257J-155*
G01X144250*
X142950Y203000D02*
G03X144250Y201700I1300J0D01*
G01X142950Y203000D02*
Y203635D01*
G03X142849Y203859I-300J0*
G01X140864Y205624*
G03X140665Y205700I-199J-224*
G01X139250*
X137950Y207000D02*
G03X139250Y205700I1300J0D01*
G01X137950Y207000D02*
Y209000D01*
X138641Y210148D02*
G03X137950Y209000I609J-1148D01*
G01X138641Y210148D02*
G03X138800Y210413I-141J265D01*
G01Y210960*
X139298Y212162D02*
G03X138800Y210960I1202J-1202D01*
G01X139298Y212162D02*
X143338Y216202D01*
X144540Y216700D02*
G03X143338Y216202I0J-1700D01*
G01X144540Y216700D02*
X186485D01*
X187687Y216202D02*
G03X186485Y216700I-1202J-1202D01*
G01X187687Y216202D02*
X192702Y211187D01*
X193169Y210308D02*
G03X192702Y211187I-1669J-323D01*
G01X193169Y210308D02*
G03X193252Y210153I295J57D01*
G01X212516Y190888*
G03X212728Y190800I212J212*
G01X219500*
X220827Y190379D02*
G03X219500Y190800I-1327J-1879D01*
G01X220827Y190379D02*
G03X221173I173J245D01*
G01X222500Y190800D02*
G03X221173Y190379I0J-2300D01*
G01X222500Y190800D02*
X229500D01*
X231800Y188500D02*
G03X229500Y190800I-2300J0D01*
G01X187800Y129500D02*
Y122500D01*
X187379Y121173D02*
G03X187800Y122500I-1879J1327D01*
G01X187379Y121173D02*
G03Y120827I245J-173D01*
G01X187800Y119500D02*
G03X187379Y120827I-2300J0D01*
G01X187800Y119500D02*
Y112500D01*
X185500Y110200D02*
G03X187800Y112500I0J2300D01*
G01X185500Y110200D02*
X178500D01*
X176200Y112500D02*
G03X178500Y110200I2300J0D01*
G01X176200Y112500D02*
Y119500D01*
X176621Y120827D02*
G03X176200Y119500I1879J-1327D01*
G01X176621Y120827D02*
G03Y121173I-245J173D01*
G01X176200Y122500D02*
G03X176621Y121173I2300J0D01*
G01X176200Y122500D02*
Y129500D01*
X177169Y131376D02*
G03X176200Y129500I1331J-1876D01*
G01X177169Y131376D02*
G03X177208Y131833I-174J244D01*
G01X174928Y134112*
G03X174716Y134200I-212J-212*
G01X169637*
G03X169378Y134050I0J-300*
G01X164700Y132323D02*
G03X169378Y134050I1300J3677D01*
G01X164700Y132323D02*
G03X164300Y132040I-100J-283D01*
G01Y126750*
X163000Y125450D02*
G03X164300Y126750I0J1300D01*
G01X163000Y125450D02*
X153000D01*
X151700Y126750D02*
G03X153000Y125450I1300J0D01*
G01X151700Y126750D02*
Y132250D01*
X153000Y133550D02*
G03X151700Y132250I0J-1300D01*
G01X153000Y133550D02*
X154425D01*
G03X154571Y134113I0J300*
G01X154296Y134316D02*
G03X154571Y134113I904J934D01*
G01X154296Y134316D02*
G03X154088Y134400I-208J-216D01*
G01X150850*
G03X150550Y134100I0J-300*
G01Y133300*
X149250Y132000D02*
G03X150550Y133300I0J1300D01*
G01X149250Y132000D02*
X138750D01*
X137450Y133300D02*
G03X138750Y132000I1300J0D01*
G01X137450Y133300D02*
Y138300D01*
X138750Y139600D02*
G03X137450Y138300I0J-1300D01*
G01X138750Y139600D02*
X143877D01*
G03X144024Y139639I-0J300*
G01X145400Y140000D02*
G03X144024Y139639I0J-2800D01*
G01X145400Y140000D02*
X154088D01*
G03X154296Y140084I-0J300*
G01X155200Y140450D02*
G03X154296Y140084I0J-1300D01*
G01X155200Y140450D02*
X160800D01*
X161704Y140084D02*
G03X160800Y140450I-904J-934D01*
G01X161704Y140084D02*
G03X161912Y140000I208J216D01*
G01X164800*
X165557Y139896D02*
G03X164800Y140000I-757J-2696D01*
G01X165557Y139896D02*
G03X165664Y139886I82J288D01*
G01X166846Y139807D02*
G03X165664Y139886I-846J-3807D01*
G01X166846Y139807D02*
G03X166911Y139800I65J293D01*
G01X176000*
X176548Y139746D02*
G03X176000Y139800I-548J-2746D01*
G01X176548Y139746D02*
G03X176877Y140171I59J294D01*
G01X176747Y140736D02*
G03X176877Y140171I1300J0D01*
G01X176747Y140736D02*
Y145461D01*
X178047Y146761D02*
G03X176747Y145461I0J-1300D01*
G01X178047Y146761D02*
X180409D01*
X180889Y146669D02*
G03X180409Y146761I-480J-1208D01*
G01X180889Y146669D02*
G03X181111I111J279D01*
G01X181591Y146761D02*
G03X181111Y146669I-0J-1300D01*
G01X181591Y146761D02*
X183953D01*
X185253Y145461D02*
G03X183953Y146761I-1300J-0D01*
G01X185253Y145461D02*
Y140736D01*
X183953Y139436D02*
G03X185253Y140736I-0J1300D01*
G01X183953Y139436D02*
X181591D01*
X181111Y139528D02*
G03X181591Y139436I480J1208D01*
G01X181111Y139528D02*
G03X180889I-111J-279D01*
G01X180409Y139436D02*
G03X180889Y139528I0J1300D01*
G01X180409Y139436D02*
X178248D01*
G03X178036Y138924I-0J-300*
G01X183980Y132980*
X184618Y131994D02*
G03X183980Y132980I-2618J-994D01*
G01X184618Y131994D02*
G03X184898Y131800I280J106D01*
G01X185500*
X187800Y129500D02*
G03X185500Y131800I-2300J0D01*
G01X151971Y211299D02*
X159708D01*
X162866Y206299D02*
X170781D01*
X160947Y196299D02*
X161561D01*
X178719Y201299D02*
X187650D01*
X184009Y206299D02*
X186600D01*
X187582Y216299D02*
X257700D01*
X192591Y211299D02*
X257700D01*
X197106Y206299D02*
X257700D01*
X202106Y201299D02*
X257700D01*
X207106Y196299D02*
X257700D01*
X212106Y191299D02*
X257700D01*
X231800Y186299D02*
X257700D01*
X250843Y181299D02*
X257700D01*
X255820Y176299D02*
X257700D01*
X256928Y171299D02*
X257700D01*
X255613Y166299D02*
X257700D01*
X249925Y161299D02*
X257700D01*
X231800Y156299D02*
X257700D01*
X254136Y151299D02*
X257700D01*
X256686Y146299D02*
X257700D01*
X256591Y141299D02*
X257700D01*
X253756Y136299D02*
X257700D01*
X231791Y131299D02*
X257700D01*
X187800Y126299D02*
X257700D01*
X228006Y121299D02*
X257700D01*
X228073Y116299D02*
X257700D01*
X228028Y111299D02*
X257700D01*
X102300Y106299D02*
X257700D01*
X231791Y161299D02*
X242075D01*
X231791Y181299D02*
X241157D01*
X231800Y136299D02*
X238244D01*
X231791Y151299D02*
X237864D01*
X231800Y166299D02*
X236387D01*
X231800Y176299D02*
X236180D01*
X231791Y141299D02*
X235409D01*
X231800Y146299D02*
X235314D01*
X231791Y171299D02*
X235072D01*
X186933Y131299D02*
X210209D01*
X180661Y136299D02*
X210200D01*
X185253Y141299D02*
X207297D01*
X176063Y151299D02*
X206300D01*
X184947Y146299D02*
X206300D01*
X176965Y156299D02*
X205797D01*
X189845Y161299D02*
X200797D01*
X187461Y121299D02*
X199266D01*
X187461Y111299D02*
X199245D01*
X187800Y116299D02*
X199200D01*
X184740Y171299D02*
X196800D01*
X190034Y166299D02*
X196800D01*
X184654Y176299D02*
X196772D01*
X184588Y181299D02*
X191797D01*
X181309Y186299D02*
X186797D01*
X171700Y161299D02*
X185029D01*
X155343Y186299D02*
X178691D01*
X164300Y131299D02*
X177067D01*
X102300Y146299D02*
X177053D01*
X171700Y166299D02*
X176747D01*
X102300Y141299D02*
X176747D01*
X102300Y121299D02*
X176539D01*
X102300Y111299D02*
X176539D01*
X164219Y126299D02*
X176200D01*
X102300Y116299D02*
X176200D01*
X169868Y171299D02*
X173297D01*
X102300Y151299D02*
X170963D01*
X152100Y156299D02*
X170035D01*
X155511Y181299D02*
X168889D01*
X167801Y191299D02*
X168410D01*
X152100Y161299D02*
X168300D01*
X163864Y191299D02*
X166442D01*
X159927D02*
X162505D01*
X157958D02*
X158568D01*
X155990D02*
X156599D01*
X102300Y126299D02*
X151781D01*
X102300Y131299D02*
X151700D01*
X102300Y201299D02*
X145630D01*
X102300Y216299D02*
X143443D01*
X102300Y181299D02*
X140000D01*
X102300Y176299D02*
X140000D01*
X102300Y171299D02*
X140000D01*
X123532Y166299D02*
X140000D01*
X126201Y156299D02*
X140000D01*
X102300Y191299D02*
X139760D01*
X102300Y186299D02*
X139760D01*
X102300Y196299D02*
X139321D01*
X102300Y211299D02*
X138834D01*
X102300Y206299D02*
X138155D01*
X102300Y136299D02*
X137450D01*
X102300Y166299D02*
X116468D01*
X102300Y156299D02*
X113799D01*
X102300Y161299D02*
X112896D01*
X157300Y208331D02*
Y213300D01*
X152300Y209008D02*
Y213300D01*
X167300Y204789D02*
Y209600D01*
X162300Y197312D02*
Y200600D01*
X172300Y191454D02*
Y191770D01*
X187300Y199450D02*
Y204296D01*
X182300Y199620D02*
Y202016D01*
X257300Y102300D02*
Y217700D01*
X252300Y180432D02*
Y217700D01*
Y152932D02*
Y162568D01*
Y102300D02*
Y135068D01*
X247300Y182353D02*
Y217700D01*
Y154853D02*
Y160647D01*
Y102300D02*
Y133147D01*
X242300Y181785D02*
Y217700D01*
Y154285D02*
Y161215D01*
Y102300D02*
Y133715D01*
X237300Y178117D02*
Y217700D01*
Y150617D02*
Y164883D01*
Y102300D02*
Y137383D01*
X232300Y102300D02*
Y217700D01*
X227300Y190800D02*
Y217700D01*
Y122470D02*
Y129200D01*
Y102300D02*
Y110030D01*
X222300Y190791D02*
Y217700D01*
Y123050D02*
Y129209D01*
Y102300D02*
Y109450D01*
X217300Y190800D02*
Y217700D01*
Y123050D02*
Y129200D01*
Y102300D02*
Y109450D01*
X212300Y191104D02*
Y217700D01*
Y123050D02*
Y129209D01*
Y102300D02*
Y109450D01*
X207300Y196104D02*
Y217700D01*
Y123050D02*
Y141296D01*
Y102300D02*
Y109450D01*
X202300Y201104D02*
Y217700D01*
Y123050D02*
Y159796D01*
Y102300D02*
Y109450D01*
X197300Y206104D02*
Y217700D01*
Y102300D02*
Y164796D01*
X192300Y211589D02*
Y217700D01*
Y102300D02*
Y180796D01*
X187300Y216492D02*
Y217700D01*
Y169800D02*
Y185796D01*
Y130932D02*
Y160700D01*
Y102300D02*
Y111068D01*
X182300Y216700D02*
Y217700D01*
Y185766D02*
Y188800D01*
Y172474D02*
Y173935D01*
Y146761D02*
Y161300D01*
Y134660D02*
Y139436D01*
Y102300D02*
Y110200D01*
X177300Y216700D02*
Y217700D01*
Y185209D02*
Y187966D01*
Y146524D02*
Y164476D01*
Y102300D02*
Y110538D01*
X172300Y216700D02*
Y217700D01*
Y185406D02*
Y187531D01*
Y159801D02*
Y172296D01*
Y139800D02*
Y148685D01*
Y102300D02*
Y134200D01*
X167300Y216700D02*
Y217700D01*
Y177819D02*
Y191181D01*
Y139800D02*
Y161739D01*
Y102300D02*
Y132323D01*
X162300Y216700D02*
Y217700D01*
Y177608D02*
Y191392D01*
Y140000D02*
Y161950D01*
Y102300D02*
Y125450D01*
X157300Y216700D02*
Y217700D01*
Y176599D02*
Y191173D01*
Y140450D02*
Y164200D01*
Y102300D02*
Y125450D01*
X152300Y216700D02*
Y217700D01*
Y140000D02*
Y165666D01*
Y133345D02*
Y134400D01*
Y102300D02*
Y125655D01*
X147300Y216700D02*
Y217700D01*
Y140000D02*
Y153800D01*
Y102300D02*
Y132000D01*
X142300Y215164D02*
Y217700D01*
Y197050D02*
Y204348D01*
Y139600D02*
Y153800D01*
Y102300D02*
Y132000D01*
X137300Y163700D02*
Y217700D01*
Y102300D02*
Y156800D01*
X132300Y163700D02*
Y217700D01*
Y102300D02*
Y156800D01*
X127300Y163700D02*
Y217700D01*
Y102300D02*
Y156800D01*
X122300Y166845D02*
Y217700D01*
Y102300D02*
Y153155D01*
X117300Y166698D02*
Y217700D01*
Y102300D02*
Y153302D01*
X112300Y102300D02*
Y217700D01*
X107300Y102300D02*
Y217700D01*
G54D56*
X168513Y150985D03*
X173513D03*
X192500Y167500D03*
X187500D03*
X192500Y163000D03*
X187500D03*
X187057Y180074D03*
X182057D03*
X185000Y184000D03*
X180000D03*
X187104Y176235D03*
X182104D03*
X140500Y204000D03*
X145500D03*
X185200D03*
X180200D03*
X190000Y193000D03*
X185000D03*
X185200Y200300D03*
X190200D03*
X140500Y208000D03*
X145500D03*
G54D57*
X161500Y159500D03*
Y164500D03*
X179500Y188000D03*
Y193000D03*
X152600Y163500D03*
Y168500D03*
X145000Y199500D03*
Y194500D03*
X141500Y199500D03*
Y194500D03*
X145784Y162015D03*
Y167015D03*
Y158015D03*
Y153015D03*
Y185015D03*
Y180015D03*
X142059Y184999D03*
Y189999D03*
X145784Y176015D03*
Y171015D03*
X156200Y168500D03*
Y163500D03*
X149671Y206473D03*
Y211473D03*
X176500Y203000D03*
Y208000D03*
X169500D03*
Y203000D03*
X153358Y211459D03*
Y206459D03*
X173000Y203000D03*
Y208000D03*
G54D58*
X173500Y156000D03*
Y165402D03*
X166500D03*
X166488Y156000D03*
G54D59*
X171846Y177610D03*
Y179579D03*
Y181547D03*
Y183516D03*
Y185484D03*
Y187453D03*
Y189421D03*
Y191390D03*
X152554D03*
Y189421D03*
Y187453D03*
Y185484D03*
Y183516D03*
Y181547D03*
Y179579D03*
Y177610D03*
G54D60*
X169090Y194146D03*
X167121D03*
X165153D03*
X163184D03*
X161216D03*
X159247D03*
X157279D03*
X155310D03*
Y174854D03*
X157279D03*
X159247D03*
X161216D03*
X163184D03*
X165153D03*
X167121D03*
X169090D03*
G54D61*
X162200Y184500D03*
G54D62*
X182772Y167902D03*
Y143098D03*
X179228Y167902D03*
Y143098D03*
G54D63*
X158000Y144800D03*
Y137200D03*
G54D64*
X120000Y160000D03*
G54D65*
X130000Y150000D03*
X110000D03*
Y170000D03*
X130000D03*
G54D66*
X158000Y129500D03*
Y116500D03*
G54D67*
X144000Y135800D03*
Y116200D03*
G54D68*
X216000Y145000D02*
X226000D01*
X216000Y135000D02*
X226000D01*
X216000Y155000D02*
X226000D01*
X216000Y175000D02*
X226000D01*
X216000Y165000D02*
X226000D01*
X216000Y185000D02*
X226000D01*
G54D69*
X114800Y105200D03*
X106100Y109000D03*
X153800Y106400D03*
X142500Y105500D03*
X131900D03*
X175500Y106200D03*
X182600Y106000D03*
X201700Y105600D03*
X230300Y105500D03*
X209000Y106000D03*
X241600Y105500D03*
X106000Y140000D03*
X120500Y137700D03*
X106100Y130200D03*
X112100Y136400D03*
X133300Y133700D03*
X141500Y146500D03*
X133900Y116800D03*
X175500Y146000D03*
X188500Y137000D03*
X187500Y148000D03*
X197200Y143600D03*
X171000Y143000D03*
X166000Y136000D03*
X208500Y130500D03*
X226000Y126500D03*
X201500Y133500D03*
X201800Y149400D03*
X254800Y112000D03*
X253500Y131000D03*
X110000Y184000D03*
X120000Y181000D03*
X130000Y185500D03*
X137900Y155300D03*
X138100Y178600D03*
X138200Y166000D03*
X156400Y159600D03*
X155000Y153500D03*
X159600Y170400D03*
X198500Y158500D03*
X192000Y176600D03*
X192500Y157500D03*
X172000Y170000D03*
X186500Y172000D03*
X184000Y187500D03*
X176000Y186500D03*
X178000Y177000D03*
X235000Y158500D03*
X254000Y181500D03*
X247000Y157000D03*
X116800Y215300D03*
X108400Y215100D03*
X104500Y191500D03*
X130200Y215400D03*
X134800Y207400D03*
X138100Y190200D03*
X137500Y199500D03*
X138000Y214500D03*
X145500Y212000D03*
X162500Y199500D03*
X185500Y207500D03*
X165500Y208500D03*
X180500Y208000D03*
X175500Y194000D03*
X216100Y209200D03*
X220500Y199500D03*
X225700Y210900D03*
X202300Y212400D03*
X208000Y201000D03*
X254500Y209500D03*
G54D70*
X157476Y179776D03*
Y184500D03*
Y189224D03*
X162200Y179776D03*
Y184500D03*
Y189224D03*
X166924Y179776D03*
Y184500D03*
Y189224D03*
G74*
X0Y0D02*
M02*
