*
*
G04 PADS Layout (Build Number 2007.21.1) generated Gerber (RS-274-X) file*
G04 PC Version=2.1*
*
%IN "USB232R01B.pcb"*%
*
%MOIN*%
*
%FSLAX35Y35*%
*
*
*
*
G04 PC Standard Apertures*
*
*
G04 Thermal Relief Aperture macro.*
%AMTER*
1,1,$1,0,0*
1,0,$1-$2,0,0*
21,0,$3,$4,0,0,45*
21,0,$3,$4,0,0,135*
%
*
*
G04 Annular Aperture macro.*
%AMANN*
1,1,$1,0,0*
1,0,$2,0,0*
%
*
*
G04 Odd Aperture macro.*
%AMODD*
1,1,$1,0,0*
1,0,$1-0.005,0,0*
%
*
*
G04 PC Custom Aperture Macros*
*
*
*
*
*
*
G04 PC Aperture Table*
*
%ADD024C,0.001*%
%ADD025C,0.01*%
%ADD032R,0.08X0.08*%
%ADD035C,0.065*%
%ADD037R,0.045X0.045*%
%ADD051C,0.15*%
%ADD058R,0.061X0.061*%
%ADD059R,0.056X0.056*%
%ADD060R,0.086X0.086*%
%ADD061C,0.071*%
%ADD062R,0.066X0.066*%
%ADD063C,0.24213*%
%ADD064R,0.031X0.031*%
%ADD065C,0.023*%
%ADD066C,0.2*%
*
*
*
*
G04 PC Circuitry*
G04 Layer Name USB232R01B.pcb - circuitry*
%LPD*%
*
*
G04 PC Custom Flashes*
G04 Layer Name USB232R01B.pcb - flashes*
%LPD*%
*
*
G04 PC Circuitry*
G04 Layer Name USB232R01B.pcb - circuitry*
%LPD*%
*
G54D24*
G54D25*
G01X00179400Y00166600D02*
Y00160000D01*
X00181700*
Y00166600*
X00179400*
X00184300D02*
Y00160000D01*
X00186600*
Y00166600*
X00184300*
X00189400D02*
Y00160000D01*
X00191700*
Y00166600*
X00189400*
X00194300D02*
Y00160000D01*
X00196600*
Y00166600*
X00194300*
X00179400Y00188000D02*
Y00181400D01*
X00181700*
Y00188000*
X00179400*
X00189300D02*
Y00181400D01*
X00191600*
Y00188000*
X00189300*
X00184300D02*
Y00181400D01*
X00186600*
Y00188000*
X00184300*
X00179400Y00166299D02*
X00181700D01*
X00179400Y00165399D02*
X00181700D01*
X00179400Y00164499D02*
X00181700D01*
X00179400Y00163599D02*
X00181700D01*
X00179400Y00162699D02*
X00181700D01*
X00179400Y00161799D02*
X00181700D01*
X00179400Y00160899D02*
X00181700D01*
X00184300Y00166299D02*
X00186600D01*
X00184300Y00165399D02*
X00186600D01*
X00184300Y00164499D02*
X00186600D01*
X00184300Y00163599D02*
X00186600D01*
X00184300Y00162699D02*
X00186600D01*
X00184300Y00161799D02*
X00186600D01*
X00184300Y00160899D02*
X00186600D01*
X00189400Y00166299D02*
X00191700D01*
X00189400Y00165399D02*
X00191700D01*
X00189400Y00164499D02*
X00191700D01*
X00189400Y00163599D02*
X00191700D01*
X00189400Y00162699D02*
X00191700D01*
X00189400Y00161799D02*
X00191700D01*
X00189400Y00160899D02*
X00191700D01*
X00194300Y00166299D02*
X00196600D01*
X00194300Y00165399D02*
X00196600D01*
X00194300Y00164499D02*
X00196600D01*
X00194300Y00163599D02*
X00196600D01*
X00194300Y00162699D02*
X00196600D01*
X00194300Y00161799D02*
X00196600D01*
X00194300Y00160899D02*
X00196600D01*
X00179400Y00187699D02*
X00181700D01*
X00179400Y00186799D02*
X00181700D01*
X00179400Y00185899D02*
X00181700D01*
X00179400Y00184999D02*
X00181700D01*
X00179400Y00184099D02*
X00181700D01*
X00179400Y00183199D02*
X00181700D01*
X00179400Y00182299D02*
X00181700D01*
X00189300Y00187699D02*
X00191600D01*
X00189300Y00186799D02*
X00191600D01*
X00189300Y00185899D02*
X00191600D01*
X00189300Y00184999D02*
X00191600D01*
X00189300Y00184099D02*
X00191600D01*
X00189300Y00183199D02*
X00191600D01*
X00189300Y00182299D02*
X00191600D01*
X00184300Y00187699D02*
X00186600D01*
X00184300Y00186799D02*
X00186600D01*
X00184300Y00185899D02*
X00186600D01*
X00184300Y00184999D02*
X00186600D01*
X00184300Y00184099D02*
X00186600D01*
X00184300Y00183199D02*
X00186600D01*
X00184300Y00182299D02*
X00186600D01*
G54D32*
X00188350Y00184700D02*
X00182650D01*
X00193300Y00163300D02*
X00182700D01*
G54D35*
X00210000Y00198000D03*
X00252000D03*
X00264000Y00199000D03*
Y00161000D03*
G54D37*
X00163200Y00155850D02*
Y00154150D01*
X00170800Y00155850D02*
Y00154150D01*
X00244800Y00195150D02*
Y00196850D01*
X00237200Y00195150D02*
Y00196850D01*
X00272800Y00153150D02*
Y00154850D01*
X00265200Y00153150D02*
Y00154850D01*
X00227800Y00194150D02*
Y00195850D01*
X00220200Y00194150D02*
Y00195850D01*
X00204150Y00162200D02*
X00205850D01*
X00204150Y00169800D02*
X00205850D01*
X00184250Y00145500D02*
X00185950D01*
X00184250Y00153100D02*
X00185950D01*
X00167200Y00145600D02*
Y00144400D01*
X00174800Y00145600D02*
Y00144400D01*
X00237200Y00205600D02*
Y00204400D01*
X00244800Y00205600D02*
Y00204400D01*
X00220200Y00204600D02*
Y00203400D01*
X00227800Y00204600D02*
Y00203400D01*
X00205600Y00184800D02*
X00204400D01*
X00205600Y00177200D02*
X00204400D01*
X00284800Y00177400D02*
Y00178600D01*
X00277200Y00177400D02*
Y00178600D01*
X00284800Y00187400D02*
Y00188600D01*
X00277200Y00187400D02*
Y00188600D01*
G54D51*
X00152000Y00194000D03*
Y00146000D03*
G54D58*
X00150500Y00174750D02*
Y00179250D01*
X00137500Y00174750D02*
Y00179250D01*
G54D59*
X00150800Y00160250D02*
Y00165750D01*
X00131200Y00160250D02*
Y00165750D01*
G54D60*
X00294000Y00162063D03*
Y00171937D03*
Y00182063D03*
Y00191937D03*
X00185000Y00215000D03*
Y00205000D03*
X00175000Y00215000D03*
Y00205000D03*
X00165000Y00215000D03*
Y00205000D03*
X00185000Y00135000D03*
Y00125000D03*
X00175000Y00135000D03*
Y00125000D03*
X00165000Y00135000D03*
Y00125000D03*
X00268000Y00215000D03*
X00258000D03*
X00248000D03*
X00200000D03*
X00210000D03*
X00220000D03*
X00214000Y00162500D03*
Y00172500D03*
Y00182500D03*
G54D61*
X00171000Y00165000D03*
Y00175000D03*
X00163000D03*
Y00165000D03*
G54D62*
X00271000Y00178000D03*
Y00188000D03*
X00270000Y00135000D03*
Y00125000D03*
X00260000Y00135000D03*
Y00125000D03*
X00250000Y00135000D03*
Y00125000D03*
X00240000Y00135000D03*
Y00125000D03*
X00230000Y00135000D03*
Y00125000D03*
X00220000Y00135000D03*
Y00125000D03*
X00210000Y00135000D03*
Y00125000D03*
X00200000Y00135000D03*
Y00125000D03*
G54D63*
X00130000Y00130000D03*
X00290000D03*
Y00210000D03*
X00130000D03*
G54D64*
X00195500Y00186950D02*
Y00182450D01*
G54D65*
X00256575Y00153350D02*
Y00158650D01*
X00254025Y00153350D02*
Y00158650D01*
X00251475Y00153350D02*
Y00158650D01*
X00248925Y00153350D02*
Y00158650D01*
X00246375Y00153350D02*
Y00158650D01*
X00243825Y00153350D02*
Y00158650D01*
X00241275Y00153350D02*
Y00158650D01*
X00238725Y00153350D02*
Y00158650D01*
X00236175Y00153350D02*
Y00158650D01*
X00233625Y00153350D02*
Y00158650D01*
X00231075Y00153350D02*
Y00158650D01*
X00228525Y00153350D02*
Y00158650D01*
X00225975Y00153350D02*
Y00158650D01*
X00223425Y00153350D02*
Y00158650D01*
Y00181350D02*
Y00186650D01*
X00225975Y00181350D02*
Y00186650D01*
X00228525Y00181350D02*
Y00186650D01*
X00231075Y00181350D02*
Y00186650D01*
X00233625Y00181350D02*
Y00186650D01*
X00236175Y00181350D02*
Y00186650D01*
X00238725Y00181350D02*
Y00186650D01*
X00241275Y00181350D02*
Y00186650D01*
X00243825Y00181350D02*
Y00186650D01*
X00246375Y00181350D02*
Y00186650D01*
X00248925Y00181350D02*
Y00186650D01*
X00251475Y00181350D02*
Y00186650D01*
X00254025Y00181350D02*
Y00186650D01*
X00256575Y00181350D02*
Y00186650D01*
G54D66*
X00198400Y00149500D03*
X00151000Y00123000D03*
X00000000Y00000000D02*
M02*
