*
*
G04 PADS Layout (Build Number 2006.45.1) generated Gerber (RS-274-X) file*
G04 PC Version=2.1*
*
%IN "ATMEGA801B.pcb"*%
*
%MOIN*%
*
%FSLAX35Y35*%
*
*
*
*
G04 PC Standard Apertures*
*
*
G04 Thermal Relief Aperture macro.*
%AMTER*
1,1,$1,0,0*
1,0,$1-$2,0,0*
21,0,$3,$4,0,0,45*
21,0,$3,$4,0,0,135*
%
*
*
G04 Annular Aperture macro.*
%AMANN*
1,1,$1,0,0*
1,0,$2,0,0*
%
*
*
G04 Odd Aperture macro.*
%AMODD*
1,1,$1,0,0*
1,0,$1-0.005,0,0*
%
*
*
G04 PC Custom Aperture Macros*
*
*
*
*
*
*
G04 PC Aperture Table*
*
%ADD023C,0.007*%
%ADD024C,0.001*%
%ADD025C,0.01*%
%ADD036C,0.008*%
*
*
*
*
G04 PC Copper Outlines (0)*
G04 Layer Name ATMEGA801B.pcb - dark (0)*
%LPD*%
*
*
G04 PC Area=Custom_Thermal*
*
G04 PC Custom Flashes*
G04 Layer Name ATMEGA801B.pcb - flashes*
%LPD*%
*
*
G04 PC Circuitry*
G04 Layer Name ATMEGA801B.pcb - circuitry*
%LPD*%
*
G54D23*
G01X110000Y110000D02*
Y110500D01*
Y110000D02*
X110500D01*
X110000D02*
Y109500D01*
Y110000D02*
X109500D01*
X111500D02*
X116500D01*
X110000Y108500D02*
Y105100D01*
Y111500D02*
Y116000D01*
X104000Y110000D02*
X108500D01*
X113000D02*
G75*
G03X113000I-3000J0D01*
G01X112000D02*
G03X112000I-2000J0D01*
G01X330000D02*
Y110500D01*
Y110000D02*
X330500D01*
X330000D02*
Y109500D01*
Y110000D02*
X329500D01*
X331500D02*
X336500D01*
X330000Y108500D02*
Y105100D01*
Y111500D02*
Y116000D01*
X324000Y110000D02*
X328500D01*
X333000D02*
G03X333000I-3000J0D01*
G01X332000D02*
G03X332000I-2000J0D01*
G01X330000Y330000D02*
Y330500D01*
Y330000D02*
X330500D01*
X330000D02*
Y329500D01*
Y330000D02*
X329500D01*
X331500D02*
X336500D01*
X330000Y328500D02*
Y325100D01*
Y331500D02*
Y336000D01*
X324000Y330000D02*
X328500D01*
X333000D02*
G03X333000I-3000J0D01*
G01X332000D02*
G03X332000I-2000J0D01*
G54D24*
G01X320000Y121000D02*
X320003D01*
X320000Y319000D02*
X320003D01*
X121000Y121000D02*
X121003D01*
X319000D02*
X319003D01*
G54D25*
X121000D02*
X319000D01*
Y319000*
X121000*
Y121000*
G54D36*
X330000D02*
Y205364D01*
Y121000D02*
X327500Y131000D01*
X332500*
X330000Y121000*
Y319000D02*
Y234636D01*
Y319000D02*
X332500Y309000D01*
X327500*
X330000Y319000*
X325000Y121000D02*
X335000D01*
X325000Y319000D02*
X335000D01*
X328750Y208364D02*
X328500Y208727D01*
X327750Y209273*
X333000*
X329500Y213273D02*
X330250Y213091D01*
X330750Y212727*
X331000Y212182*
Y212000*
X330750Y211455*
X330250Y211091*
X329500Y210909*
X329250*
X328500Y211091*
X328000Y211455*
X327750Y212000*
Y212182*
X328000Y212727*
X328500Y213091*
X329500Y213273*
X330750*
X332000Y213091*
X332750Y212727*
X333000Y212182*
Y211818*
X332750Y211273*
X332250Y211091*
X327750Y215818D02*
X328000Y215273D01*
X328500Y215091*
X329000*
X329500Y215273*
X329750Y215636*
X330000Y216364*
X330250Y216909*
X330750Y217273*
X331250Y217455*
X332000*
X332500Y217273*
X332750Y217091*
X333000Y216545*
Y215818*
X332750Y215273*
X332500Y215091*
X332000Y214909*
X331250*
X330750Y215091*
X330250Y215455*
X330000Y216000*
X329750Y216727*
X329500Y217091*
X329000Y217273*
X328500*
X328000Y217091*
X327750Y216545*
Y215818*
Y220182D02*
X328000Y219636D01*
X328750Y219273*
X330000Y219091*
X330750*
X332000Y219273*
X332750Y219636*
X333000Y220182*
Y220545*
X332750Y221091*
X332000Y221455*
X330750Y221636*
X330000*
X328750Y221455*
X328000Y221091*
X327750Y220545*
Y220182*
X329500Y223273D02*
X333000D01*
X330500D02*
X329750Y223818D01*
X329500Y224182*
Y224727*
X329750Y225091*
X330500Y225273*
X333000*
X330500D02*
X329750Y225818D01*
X329500Y226182*
Y226727*
X329750Y227091*
X330500Y227273*
X333000*
X327750Y228909D02*
X328000Y229091D01*
X327750Y229273*
X327500Y229091*
X327750Y228909*
X329500Y229091D02*
X333000D01*
X327750Y230909D02*
X333000D01*
X121000Y110000D02*
X205364D01*
X121000D02*
X131000Y112500D01*
Y107500*
X121000Y110000*
X319000D02*
X234636D01*
X319000D02*
X309000Y107500D01*
Y112500*
X319000Y110000*
X121000Y116000D02*
Y105000D01*
X319000Y116000D02*
Y105000D01*
X208364Y111250D02*
X208727Y111500D01*
X209273Y112250*
Y107000*
X213273Y110500D02*
X213091Y109750D01*
X212727Y109250*
X212182Y109000*
X212000*
X211455Y109250*
X211091Y109750*
X210909Y110500*
Y110750*
X211091Y111500*
X211455Y112000*
X212000Y112250*
X212182*
X212727Y112000*
X213091Y111500*
X213273Y110500*
Y109250*
X213091Y108000*
X212727Y107250*
X212182Y107000*
X211818*
X211273Y107250*
X211091Y107750*
X215818Y112250D02*
X215273Y112000D01*
X215091Y111500*
Y111000*
X215273Y110500*
X215636Y110250*
X216364Y110000*
X216909Y109750*
X217273Y109250*
X217455Y108750*
Y108000*
X217273Y107500*
X217091Y107250*
X216545Y107000*
X215818*
X215273Y107250*
X215091Y107500*
X214909Y108000*
Y108750*
X215091Y109250*
X215455Y109750*
X216000Y110000*
X216727Y110250*
X217091Y110500*
X217273Y111000*
Y111500*
X217091Y112000*
X216545Y112250*
X215818*
X220182D02*
X219636Y112000D01*
X219273Y111250*
X219091Y110000*
Y109250*
X219273Y108000*
X219636Y107250*
X220182Y107000*
X220545*
X221091Y107250*
X221455Y108000*
X221636Y109250*
Y110000*
X221455Y111250*
X221091Y112000*
X220545Y112250*
X220182*
X223273Y110500D02*
Y107000D01*
Y109500D02*
X223818Y110250D01*
X224182Y110500*
X224727*
X225091Y110250*
X225273Y109500*
Y107000*
Y109500D02*
X225818Y110250D01*
X226182Y110500*
X226727*
X227091Y110250*
X227273Y109500*
Y107000*
X228909Y112250D02*
X229091Y112000D01*
X229273Y112250*
X229091Y112500*
X228909Y112250*
X229091Y110500D02*
Y107000D01*
X230909Y112250D02*
Y107000D01*
G74*
X0Y0D02*
M02*
