G04 #@! TF.FileFunction,Soldermask,Bot*
%FSLAX46Y46*%
G04 Gerber Fmt 4.6, Leading zero omitted, Abs format (unit mm)*
G04 Created by KiCad (PCBNEW 0.201503251001+5534~22~ubuntu14.04.1-product) date St 25. březen 2015, 23:39:12 CET*
%MOMM*%
G01*
G04 APERTURE LIST*
%ADD10C,0.100000*%
%ADD11R,1.450000X0.450000*%
%ADD12R,1.397000X0.889000*%
%ADD13R,1.651000X1.651000*%
%ADD14C,6.000000*%
%ADD15R,0.889000X1.397000*%
%ADD16R,4.000000X1.200000*%
%ADD17R,1.950720X2.499360*%
%ADD18R,2.499360X1.800860*%
G04 APERTURE END LIST*
D10*
D11*
X13110000Y17190000D03*
X13110000Y16540000D03*
X13110000Y15890000D03*
X13110000Y15240000D03*
X13110000Y14590000D03*
X13110000Y13940000D03*
X13110000Y13290000D03*
X7210000Y13290000D03*
X7210000Y13940000D03*
X7210000Y14590000D03*
X7210000Y15240000D03*
X7210000Y15890000D03*
X7210000Y16540000D03*
X7210000Y17190000D03*
D12*
X4191000Y14160500D03*
X4191000Y16065500D03*
X2540000Y14160500D03*
X2540000Y16065500D03*
D13*
X11430000Y35814000D03*
X3810000Y38354000D03*
X8890000Y38354000D03*
X3810000Y35814000D03*
X13970000Y38354000D03*
X11430000Y38354000D03*
X6350000Y38354000D03*
X13970000Y35814000D03*
X6350000Y35814000D03*
X8890000Y35814000D03*
X16510000Y35814000D03*
X16510000Y38354000D03*
D14*
X5080000Y5080000D03*
X15240000Y5080000D03*
X15240000Y25400000D03*
X5080000Y25400000D03*
D12*
X3810000Y10795000D03*
X3810000Y12700000D03*
D15*
X10096500Y11303000D03*
X8191500Y11303000D03*
D12*
X12065000Y9461500D03*
X12065000Y11366500D03*
D15*
X10096500Y9271000D03*
X8191500Y9271000D03*
D12*
X10160000Y5524500D03*
X10160000Y7429500D03*
X10160000Y19494500D03*
X10160000Y21399500D03*
X12573000Y19494500D03*
X12573000Y21399500D03*
D16*
X17526000Y11494000D03*
X17526000Y13494000D03*
X17526000Y15494000D03*
X17526000Y17494000D03*
X17526000Y19494000D03*
D17*
X5029200Y32004000D03*
X8128000Y32004000D03*
D18*
X14411960Y32004000D03*
X10414000Y32004000D03*
M02*
