*
*
G04 PowerPCB (Build Number 500.281.2.20) generated Gerber (RS-274-X) file*
G04 PC Version=2.1*
*
%IN "PICPGR.pcb"*%
*
%MOIN*%
*
%FSLAX35Y35*%
*
*
*
*
G04 PC Standard Apertures*
*
*
G04 Thermal Relief Aperture macro.*
%AMTER*
1,1,$1,0,0*
1,0,$1-$2,0,0*
21,0,$3,$4,0,0,45*
21,0,$3,$4,0,0,135*
%
*
*
G04 Annular Aperture macro.*
%AMANN*
1,1,$1,0,0*
1,0,$2,0,0*
%
*
*
G04 Odd Aperture macro.*
%AMODD*
1,1,$1,0,0*
1,0,$1-0.005,0,0*
%
*
*
G04 PC Custom Aperture Macros*
*
*
*
*
*
*
G04 PC Aperture Table*
*
%ADD011C,0.06*%
%ADD012R,0.07X0.07*%
%ADD023C,0.007*%
%ADD031C,0.07*%
%ADD032R,0.08X0.08*%
%ADD033C,0.24622*%
%ADD041C,0.08*%
%ADD047C,0.09*%
%ADD049C,0.15*%
%ADD050C,0.187*%
%ADD051R,0.085X0.085*%
%ADD052C,0.085*%
%ADD053C,0.1*%
%ADD054C,0.18717*%
%ADD059C,0.0848*%
%ADD060C,0.09268*%
*
*
*
*
G04 PC Custom Flashes*
G04 Layer Name PICPGR.pcb - flashes*
%LPD*%
*
*
G04 PC Circuitry*
G04 Layer Name PICPGR.pcb - circuitry*
%LPD*%
*
G54D11*
G01X00137500Y00347500D03*
X00340000Y00257500D03*
G54D12*
X00192500Y00326900D03*
X00227500Y00291000D03*
G54D23*
X00110000Y00110000D02*
Y00110500D01*
Y00110000D02*
X00110500D01*
X00110000D02*
Y00109500D01*
Y00110000D02*
X00109500D01*
X00111500D02*
X00116500D01*
X00110000Y00108500D02*
Y00105100D01*
Y00111500D02*
Y00116000D01*
X00104000Y00110000D02*
X00108500D01*
X00113000D02*
G75*
G03X00113000I-00003000D01*
G01X00112000D02*
G03X00112000I-00002000D01*
G01X00370000D02*
Y00110500D01*
Y00110000D02*
X00370500D01*
X00370000D02*
Y00109500D01*
Y00110000D02*
X00369500D01*
X00371500D02*
X00376500D01*
X00370000Y00108500D02*
Y00105100D01*
Y00111500D02*
Y00116000D01*
X00364000Y00110000D02*
X00368500D01*
X00373000D02*
G03X00373000I-00003000D01*
G01X00372000D02*
G03X00372000I-00002000D01*
G01X00370000Y00410000D02*
Y00410500D01*
Y00410000D02*
X00370500D01*
X00370000D02*
Y00409500D01*
Y00410000D02*
X00369500D01*
X00371500D02*
X00376500D01*
X00370000Y00408500D02*
Y00405100D01*
Y00411500D02*
Y00416000D01*
X00364000Y00410000D02*
X00368500D01*
X00373000D02*
G03X00373000I-00003000D01*
G01X00372000D02*
G03X00372000I-00002000D01*
G54D31*
G01X00192500Y00313100D03*
X00227500Y00299000D03*
G54D32*
X00181000Y00269000D03*
G54D33*
X00220000Y00140000D03*
X00340000D03*
Y00380000D03*
X00220000D03*
G54D41*
X00181000Y00259000D03*
Y00249000D03*
Y00239000D03*
Y00229000D03*
Y00219000D03*
Y00209000D03*
Y00199000D03*
Y00189000D03*
Y00179000D03*
X00211000D03*
Y00189000D03*
Y00199000D03*
Y00209000D03*
Y00219000D03*
Y00229000D03*
Y00239000D03*
Y00249000D03*
Y00259000D03*
Y00269000D03*
G54D47*
X00247500Y00382500D03*
Y00362500D03*
Y00372500D03*
G54D49*
X00175000Y00372400D03*
X00151000D03*
X00167000Y00352400D03*
G54D50*
X00158100Y00327929D03*
Y00144070D03*
G54D51*
X00340000Y00359937D03*
Y00337437D03*
X00250000Y00135000D03*
X00340000Y00160000D03*
Y00220000D03*
G54D52*
Y00350062D03*
Y00327562D03*
X00250000Y00145000D03*
Y00155000D03*
X00340000Y00170000D03*
Y00180000D03*
Y00200000D03*
Y00210000D03*
Y00230000D03*
G54D53*
Y00295000D03*
Y00283200D03*
Y00306800D03*
G54D54*
X00313838Y00371555D03*
G54D59*
X00209141Y00360000D03*
X00228858D03*
X00209141Y00345000D03*
X00228858D03*
X00222141Y00331000D03*
X00241858D03*
X00295000Y00199858D03*
Y00180141D03*
X00195000Y00350000D03*
Y00385000D03*
X00214500Y00319000D03*
X00239500D03*
X00325000Y00172500D03*
Y00207500D03*
X00280000Y00265000D03*
X00260000D03*
X00270000Y00255000D03*
X00315000Y00307500D03*
X00295000D03*
X00305000Y00297500D03*
X00245000Y00265000D03*
X00225000D03*
X00235000Y00255000D03*
X00315000Y00265000D03*
X00295000D03*
X00305000Y00255000D03*
X00270000Y00215000D03*
Y00195000D03*
X00280000Y00205000D03*
X00290000Y00340000D03*
X00325000D03*
X00222500Y00177500D03*
X00257500D03*
X00222500Y00237500D03*
X00257500D03*
X00222500Y00222500D03*
X00257500D03*
X00310000Y00207500D03*
Y00172500D03*
X00185000Y00130000D03*
Y00165000D03*
X00200000Y00130000D03*
Y00165000D03*
X00212500Y00285000D03*
X00177500D03*
X00277500Y00277500D03*
Y00312500D03*
X00262500D03*
Y00277500D03*
X00290000Y00325000D03*
X00325000D03*
X00287500Y00280000D03*
X00322500D03*
X00247500Y00312500D03*
Y00277500D03*
X00222500Y00207500D03*
X00257500D03*
X00287500Y00237500D03*
X00322500D03*
X00222500Y00192500D03*
X00257500D03*
X00275000Y00340000D03*
X00255000D03*
X00265000Y00330000D03*
G54D60*
X00163100Y00171039D03*
Y00181866D03*
Y00192692D03*
Y00203519D03*
Y00214346D03*
Y00225173D03*
Y00236000D03*
Y00246826D03*
Y00257653D03*
Y00268480D03*
Y00279307D03*
Y00290133D03*
Y00300960D03*
X00152509Y00176452D03*
Y00187279D03*
Y00198106D03*
Y00208933D03*
Y00219759D03*
Y00230586D03*
Y00241413D03*
Y00252240D03*
Y00263066D03*
Y00273893D03*
Y00284720D03*
Y00295547D03*
G74*
X00000000Y00000000D02*
M02*
