%
T1C.002F0S0
X0102Y0097
X0342Y0297
X0342Y0097
T2C.035F197S55
X01495Y01745
X01445Y0192
X01445Y0202
X01445Y0212
X01445Y0222
X01895Y0222
X01545Y0212
X01645Y0212
X01995Y0212
X01895Y0212
X01645Y0202
X01545Y0202
X01995Y0202
X01895Y0202
X01895Y0192
X01595Y01745
X0222Y0152
X0212Y0152
X0222Y0162
X0212Y0162
X0222Y0172
X0212Y0172
X02195Y0192
X02195Y0202
X02095Y0202
X02095Y0212
X02195Y0212
X02195Y0222
X02395Y0212
X02295Y0212
X02695Y0212
X02595Y0212
X02595Y0202
X02395Y0202
X02695Y0202
X02295Y0202
X02395Y0192
X0267Y0157
X0267Y0147
X0267Y0137
X0277Y0137
X0277Y0147
X0277Y0157
X02895Y0192
X02795Y0202
X02895Y0202
X02895Y0212
X02795Y0212
T3C.041F139S55
X0192Y01345
X0242Y01345
T4C.12598F035S794
X014Y014
X014Y026
X03Y026
X03Y014
M30
