%
M48
M72
T01C0.0157
T02C0.0197
T03C0.0236
T04C0.0280
T05C0.0350
T06C0.0362
T07C0.0394
T08C0.0906
T09C0.1063
T10C0.1260
%
T01
X10200Y7425
X10250Y7850
X9550Y8775
X7175Y8300
X11625Y7250
T02
X13730Y10250
X15500Y10500
X15950Y10200
X14750Y12200
X13750Y12200
T03
X15250Y13650
X15750Y13550
X15250Y14550
X16650Y15350
X17850Y14350
X18950Y13550
X20150Y12850
X19750Y11050
X19450Y10350
X19350Y9750
X19350Y9050
X21025Y9500
X21050Y8450
X23118Y8283
X24050Y8350
X26300Y9850
X26750Y8650
X26050Y11250
X23750Y12750
X22350Y11450
X23550Y10950
X23050Y10350
X17350Y13050
X16600Y12200
X16650Y10450
X16050Y8250
X14000Y6450
X15150Y4550
X16550Y4450
X17950Y3800
X15250Y2650
X12650Y3650
X12450Y2250
X12550Y1450
X10550Y2850
X6850Y5450
X5450Y3750
X4150Y2450
X9850Y6450
X8850Y8350
X8050Y9050
X8850Y10250
X9350Y10550
X9850Y10750
X9950Y11550
X10550Y12050
X9850Y12750
X11150Y10950
X11550Y10150
X7050Y10950
X5250Y9950
X4650Y9850
X5600Y8300
X2900Y8100
X1550Y9650
X5250Y12750
X6450Y12750
X6450Y13450
X8650Y14450
X10750Y14750
X11250Y14750
X11750Y14750
X11250Y15650
X13150Y14350
X13750Y14350
X12950Y17950
X11150Y17850
X8650Y21350
X19350Y18650
X19950Y19250
X20550Y15850
X18950Y15550
X25250Y17750
X26050Y17750
T04
X4761Y5950
X2839Y5950
T05
X13350Y8200
X14350Y8200
X15350Y8200
X16150Y2800
X17150Y2800
X17150Y1800
X16150Y1800
X18150Y1800
X19150Y1800
X20150Y1800
X20150Y2800
X19150Y2800
X18150Y2800
X21150Y2800
X22150Y2800
X23150Y2800
X23150Y1800
X22150Y1800
X21150Y1800
X24150Y1800
X25150Y1800
X25150Y2800
X24150Y2800
X26150Y2800
X27150Y2800
X28150Y2800
X28150Y1800
X27150Y1800
X26150Y1800
X29227Y5300
X30227Y5300
X30227Y6300
X29227Y6300
X28227Y6300
X29227Y7300
X30227Y7300
X30225Y8300
X29225Y8300
X29225Y9300
X30225Y9300
X30225Y10300
X29225Y10300
X29225Y11300
X30225Y11300
X30225Y12300
X29225Y12300
X29225Y13300
X30225Y13300
X30225Y14300
X29225Y14300
X29225Y15300
X30225Y15300
X30225Y16300
X29225Y16300
X29225Y17300
X30225Y17300
X28250Y22150
X28250Y23150
X27250Y23150
X26250Y23150
X26250Y22150
X27250Y22150
X25250Y22150
X24250Y22150
X23250Y22150
X23250Y23150
X24250Y23150
X25250Y23150
X22250Y23150
X21250Y23150
X20250Y23150
X20250Y22150
X21250Y22150
X22250Y22150
X19250Y22150
X18250Y22150
X18250Y23150
X19250Y23150
X17250Y23150
X16250Y23150
X16250Y22150
X17250Y22150
X11350Y22150
X10350Y22150
X9350Y22150
X9350Y23150
X10350Y23150
X11350Y23150
X7950Y23150
X6950Y23150
X5950Y23150
X5950Y22150
X6950Y22150
X7950Y22150
X31227Y6300
T06
X6500Y17058
X5713Y17058
X5713Y18042
X6500Y18042
T07
X14585Y17939
X14585Y19711
X17065Y19711
X17065Y17939
T08
X4650Y19912
X4650Y15188
T09
X2550Y13800
X18750Y19850
T10
X2550Y2650
X2550Y22650
X30550Y22650
X30550Y2650
M30
