%
T1C.002F0S0
X011Y011
X033Y011
X033Y029
T2C.035F197S55
X01725Y01575
X01725Y01475
X01725Y01375
X01825Y01575
X01825Y01475
X01825Y01375
X02025Y01575
X02025Y01475
X02025Y01375
X02325Y01375
X02325Y01475
X02325Y01575
X02525Y01375
X02525Y01575
X02525Y01475
X02625Y01475
X02625Y01375
X02625Y01575
X031Y01675
X031Y01775
X03Y01675
X03Y01775
X02825Y01625
X02825Y01725
X02825Y01825
X02625Y01675
X02625Y01775
X02525Y01675
X02525Y01775
X02325Y01775
X02325Y01675
X02025Y01675
X02025Y01775
X01825Y01775
X01825Y01675
X01725Y01775
X01725Y01675
X015Y01625
X014Y01625
X013Y01625
X013Y01925
X013Y02075
X014Y01925
X014Y02075
X015Y01925
X015Y02075
X01725Y02075
X01725Y01975
X01725Y01875
X01825Y02075
X01825Y01975
X01825Y01875
X02025Y01875
X02025Y02075
X02025Y01975
X02325Y01975
X02325Y01875
X02325Y02075
X02525Y01875
X02525Y01975
X02525Y02075
X02625Y01875
X02625Y01975
X02625Y02075
X02825Y02025
X03Y01875
X0305Y0205
X031Y01875
X0305Y024
X02825Y02125
X02755Y02525
X02625Y02175
X02525Y02175
X02325Y02175
X02135Y024264
X02025Y02175
X0186Y02432
X01825Y02175
X01725Y02175
X0169Y02432
X015Y02375
X014Y02375
X013Y02375
X0169Y02668
X0186Y02668
X02135Y026236
T3C.12598F035S794
X014Y014
X03Y014
X03Y026
X014Y026
M30
