G04 #@! TF.FileFunction,Copper,L1,Top,Signal*
%FSLAX46Y46*%
G04 Gerber Fmt 4.6, Leading zero omitted, Abs format (unit mm)*
G04 Created by KiCad (PCBNEW (2016-09-17 revision 679eef1)-makepkg) date 01/31/17 07:18:29*
%MOMM*%
%LPD*%
G01*
G04 APERTURE LIST*
%ADD10C,0.500000*%
%ADD11C,2.500000*%
%ADD12C,2.700000*%
%ADD13R,1.524000X1.524000*%
%ADD14C,6.000000*%
%ADD15C,2.300000*%
%ADD16C,1.300000*%
%ADD17C,1.500000*%
%ADD18C,0.800000*%
%ADD19C,0.200000*%
%ADD20C,0.300000*%
%ADD21C,0.254000*%
G04 APERTURE END LIST*
D10*
D11*
X27432000Y34417000D03*
D12*
X29972000Y31877000D03*
X24892000Y31877000D03*
X24892000Y36957000D03*
X29972000Y36957000D03*
D13*
X12954000Y34163000D03*
X12954000Y36703000D03*
X15494000Y34163000D03*
X15494000Y36703000D03*
X18034000Y34163000D03*
X18034000Y36703000D03*
D14*
X45720000Y35560000D03*
X45720000Y5080000D03*
X5080000Y35560000D03*
X5080000Y5080000D03*
D15*
X41401000Y28577000D03*
X41401000Y12317000D03*
D16*
X42291000Y17907000D03*
X42291000Y19937000D03*
X42291000Y21967000D03*
X42291000Y23997000D03*
X40511000Y16887000D03*
X40511000Y18917000D03*
X40511000Y20947000D03*
X40511000Y22977000D03*
D17*
X35691000Y27307000D03*
X35691000Y25017000D03*
X35691000Y15877000D03*
X35691000Y13587000D03*
X14982000Y27561000D03*
X14982000Y25271000D03*
X14982000Y16131000D03*
X14982000Y13841000D03*
D16*
X10162000Y18171000D03*
X10162000Y20201000D03*
X10162000Y22231000D03*
X10162000Y24261000D03*
X8382000Y17151000D03*
X8382000Y19181000D03*
X8382000Y21211000D03*
X8382000Y23241000D03*
D15*
X9272000Y28831000D03*
X9272000Y12571000D03*
X33149000Y9272000D03*
X16889000Y9272000D03*
D16*
X22479000Y8382000D03*
X24509000Y8382000D03*
X26539000Y8382000D03*
X28569000Y8382000D03*
X21459000Y10162000D03*
X23489000Y10162000D03*
X25519000Y10162000D03*
X27549000Y10162000D03*
D17*
X31879000Y14982000D03*
X29589000Y14982000D03*
X20449000Y14982000D03*
X18159000Y14982000D03*
D18*
X28194000Y4826000D03*
X26670000Y4826000D03*
X25146000Y4826000D03*
X23622000Y4826000D03*
X22098000Y4826000D03*
X46228000Y20320000D03*
X46228000Y17272000D03*
X46228000Y18542000D03*
X46228000Y21844000D03*
X46228000Y23368000D03*
X6350000Y18796000D03*
X6350000Y20320000D03*
X6350000Y23622000D03*
X6350000Y21844000D03*
X40640000Y32766000D03*
X39370000Y32766000D03*
X38100000Y32766000D03*
X36830000Y32766000D03*
X40132000Y8890000D03*
X38862000Y8890000D03*
X37592000Y8890000D03*
X36322000Y8890000D03*
X40132000Y9906000D03*
X38862000Y9906000D03*
X37592000Y9906000D03*
X36322000Y9906000D03*
X13716000Y4318000D03*
X13716000Y6350000D03*
X13716000Y7874000D03*
X13716000Y9398000D03*
X2286000Y30226000D03*
X4826000Y30226000D03*
X6604000Y30226000D03*
X26162000Y14986000D03*
X24384000Y14986000D03*
X38100000Y25908000D03*
X39370000Y24892000D03*
X18034000Y26924000D03*
X18034000Y28194000D03*
X18796000Y29210000D03*
X19812000Y29972000D03*
X36194996Y21082000D03*
X31115000Y21336000D03*
X25908000Y23114000D03*
X38100000Y21971000D03*
X33401000Y20193000D03*
X28448000Y22225000D03*
D19*
X25146000Y4826000D02*
X26670000Y4826000D01*
X22098000Y4826000D02*
X23622000Y4826000D01*
X46228000Y21844000D02*
X46228000Y20320000D01*
X46228000Y18542000D02*
X46228000Y17272000D01*
X47244000Y25654000D02*
X46228000Y24638000D01*
X46228000Y24638000D02*
X46228000Y23368000D01*
X47244000Y29464000D02*
X47244000Y25654000D01*
X46228000Y30480000D02*
X47244000Y29464000D01*
X42926000Y30480000D02*
X46228000Y30480000D01*
X40640000Y32766000D02*
X42926000Y30480000D01*
X6350000Y21844000D02*
X6350000Y20320000D01*
X5950001Y24021999D02*
X6350000Y23622000D01*
X2286000Y30226000D02*
X2286000Y27686000D01*
X2286000Y27686000D02*
X5950001Y24021999D01*
X6350000Y23876000D02*
X6350000Y23622000D01*
X6096000Y24130000D02*
X6350000Y23876000D01*
X38100000Y32766000D02*
X39370000Y32766000D01*
X38100000Y25908000D02*
X38100000Y31496000D01*
X38100000Y31496000D02*
X36830000Y32766000D01*
X37592000Y8890000D02*
X38862000Y8890000D01*
X36322000Y9906000D02*
X36322000Y8890000D01*
X37592000Y9906000D02*
X38862000Y9906000D01*
X28644315Y11938000D02*
X34290000Y11938000D01*
X34290000Y11938000D02*
X36322000Y9906000D01*
X26162000Y14986000D02*
X26162000Y14420315D01*
X26162000Y14420315D02*
X28644315Y11938000D01*
X13716000Y7874000D02*
X13716000Y6350000D01*
X16889000Y9272000D02*
X13842000Y9272000D01*
X13842000Y9272000D02*
X13716000Y9398000D01*
X6604000Y30226000D02*
X4826000Y30226000D01*
X24384000Y14986000D02*
X26162000Y14986000D01*
X39370000Y24892000D02*
X39116000Y24892000D01*
X39116000Y24892000D02*
X38100000Y25908000D01*
X18796000Y29210000D02*
X18796000Y28956000D01*
X18796000Y28956000D02*
X18034000Y28194000D01*
X11938000Y29718000D02*
X19558000Y29718000D01*
X19558000Y29718000D02*
X19812000Y29972000D01*
X11051000Y28831000D02*
X11938000Y29718000D01*
X9272000Y28831000D02*
X11051000Y28831000D01*
D10*
X10162000Y24261000D02*
X12446000Y21977000D01*
X12446000Y21977000D02*
X12446000Y13208000D01*
X14160500Y11493500D02*
X17272000Y11493500D01*
X12446000Y13208000D02*
X14160500Y11493500D01*
X23685500Y6540500D02*
X24509000Y7364000D01*
X17272000Y11493500D02*
X22225000Y6540500D01*
X24509000Y7364000D02*
X24509000Y8382000D01*
X22225000Y6540500D02*
X23685500Y6540500D01*
X24892000Y31877000D02*
X24892000Y33786188D01*
X24892000Y33786188D02*
X24892000Y36957000D01*
X29972000Y31877000D02*
X24892000Y31877000D01*
X29972000Y36957000D02*
X29972000Y35047812D01*
X29972000Y35047812D02*
X29972000Y31877000D01*
X24892000Y36957000D02*
X29972000Y36957000D01*
D20*
X36329996Y20947000D02*
X36194996Y21082000D01*
X40511000Y20947000D02*
X36329996Y20947000D01*
X31514999Y20936001D02*
X31115000Y21336000D01*
X33534000Y18917000D02*
X31514999Y20936001D01*
X40511000Y18917000D02*
X33534000Y18917000D01*
X39333762Y17145000D02*
X31877000Y17145000D01*
X26307999Y22714001D02*
X25908000Y23114000D01*
X39591762Y16887000D02*
X39333762Y17145000D01*
X40511000Y16887000D02*
X39591762Y16887000D01*
X31877000Y17145000D02*
X26307999Y22714001D01*
X38100000Y21971000D02*
X42287000Y21971000D01*
X42287000Y21971000D02*
X42291000Y21967000D01*
X33657000Y19937000D02*
X33401000Y20193000D01*
X42291000Y19937000D02*
X33657000Y19937000D01*
X28847999Y21825001D02*
X28448000Y22225000D01*
X32766000Y17907000D02*
X28847999Y21825001D01*
X42291000Y17907000D02*
X32766000Y17907000D01*
D21*
G36*
X43385296Y39060741D02*
X42223340Y37900810D01*
X41593718Y36384513D01*
X41592285Y34742690D01*
X42219259Y33225296D01*
X43379190Y32063340D01*
X44895487Y31433718D01*
X46537310Y31432285D01*
X48054704Y32059259D01*
X49216660Y33219190D01*
X49836000Y34710725D01*
X49836000Y5925662D01*
X49220741Y7414704D01*
X48060810Y8576660D01*
X46544513Y9206282D01*
X44902690Y9207715D01*
X43385296Y8580741D01*
X42223340Y7420810D01*
X41593718Y5904513D01*
X41592285Y4262690D01*
X42219259Y2745296D01*
X43379190Y1583340D01*
X44870725Y964000D01*
X5925662Y964000D01*
X7414704Y1579259D01*
X8576660Y2739190D01*
X9206282Y4255487D01*
X9207715Y5897310D01*
X8580741Y7414704D01*
X7420810Y8576660D01*
X5904513Y9206282D01*
X4262690Y9207715D01*
X2745296Y8580741D01*
X1583340Y7420810D01*
X964000Y5929275D01*
X964000Y13898479D01*
X3556604Y13898479D01*
X3903742Y13058342D01*
X4545961Y12415001D01*
X5385491Y12066397D01*
X6294521Y12065604D01*
X7134658Y12412742D01*
X7487169Y12764638D01*
X7486691Y12217499D01*
X7757868Y11561200D01*
X8259559Y11058633D01*
X8915384Y10786311D01*
X9625501Y10785691D01*
X10281800Y11056868D01*
X10784367Y11558559D01*
X11056689Y12214384D01*
X11057309Y12924501D01*
X10786132Y13580800D01*
X10284441Y14083367D01*
X9628616Y14355689D01*
X8918499Y14356309D01*
X8262200Y14085132D01*
X8126651Y13949820D01*
X8127396Y14803521D01*
X7780258Y15643658D01*
X7138039Y16286999D01*
X6298509Y16635603D01*
X5389479Y16636396D01*
X4549342Y16289258D01*
X3906001Y15647039D01*
X3557397Y14807509D01*
X3556604Y13898479D01*
X964000Y13898479D01*
X964000Y22986519D01*
X7096777Y22986519D01*
X7291995Y22514057D01*
X7579734Y22225814D01*
X7293265Y21939845D01*
X7097223Y21467724D01*
X7096777Y20956519D01*
X7291995Y20484057D01*
X7579734Y20195814D01*
X7293265Y19909845D01*
X7097223Y19437724D01*
X7096777Y18926519D01*
X7291995Y18454057D01*
X7579734Y18165814D01*
X7293265Y17879845D01*
X7097223Y17407724D01*
X7096777Y16896519D01*
X7291995Y16424057D01*
X7653155Y16062265D01*
X8125276Y15866223D01*
X8636481Y15865777D01*
X9108943Y16060995D01*
X9470735Y16422155D01*
X9666777Y16894276D01*
X9666856Y16985224D01*
X9905276Y16886223D01*
X10416481Y16885777D01*
X10888943Y17080995D01*
X11250735Y17442155D01*
X11446777Y17914276D01*
X11447223Y18425481D01*
X11252005Y18897943D01*
X10964266Y19186186D01*
X11250735Y19472155D01*
X11446777Y19944276D01*
X11447223Y20455481D01*
X11252005Y20927943D01*
X10964266Y21216186D01*
X11250735Y21502155D01*
X11373534Y21797887D01*
X11561000Y21610421D01*
X11561000Y13208005D01*
X11560999Y13208000D01*
X11616772Y12927616D01*
X11628367Y12869325D01*
X11764111Y12666169D01*
X11820210Y12582210D01*
X13534708Y10867713D01*
X13534710Y10867710D01*
X13821825Y10675867D01*
X14160500Y10608499D01*
X14160505Y10608500D01*
X16905420Y10608500D01*
X19573227Y7940694D01*
X19125509Y8126603D01*
X18216479Y8127396D01*
X17376342Y7780258D01*
X16733001Y7138039D01*
X16384397Y6298509D01*
X16383604Y5389479D01*
X16730742Y4549342D01*
X17372961Y3906001D01*
X18212491Y3557397D01*
X19121521Y3556604D01*
X19961658Y3903742D01*
X20604999Y4545961D01*
X20953603Y5385491D01*
X20953606Y5389479D01*
X29083604Y5389479D01*
X29430742Y4549342D01*
X30072961Y3906001D01*
X30912491Y3557397D01*
X31821521Y3556604D01*
X32661658Y3903742D01*
X33304999Y4545961D01*
X33653603Y5385491D01*
X33654396Y6294521D01*
X33307258Y7134658D01*
X32955362Y7487169D01*
X33502501Y7486691D01*
X34158800Y7757868D01*
X34661367Y8259559D01*
X34933689Y8915384D01*
X34934309Y9625501D01*
X34663132Y10281800D01*
X34161441Y10784367D01*
X33505616Y11056689D01*
X32795499Y11057309D01*
X32139200Y10786132D01*
X31636633Y10284441D01*
X31364311Y9628616D01*
X31363691Y8918499D01*
X31634868Y8262200D01*
X31770180Y8126651D01*
X30916479Y8127396D01*
X30076342Y7780258D01*
X29433001Y7138039D01*
X29084397Y6298509D01*
X29083604Y5389479D01*
X20953606Y5389479D01*
X20954396Y6294521D01*
X20767797Y6746123D01*
X21599208Y5914713D01*
X21599210Y5914710D01*
X21886325Y5722867D01*
X21942516Y5711690D01*
X22225000Y5655499D01*
X22225005Y5655500D01*
X23685495Y5655500D01*
X23685500Y5655499D01*
X23967984Y5711690D01*
X24024175Y5722867D01*
X24311290Y5914710D01*
X25134787Y6738208D01*
X25134790Y6738210D01*
X25326633Y7025325D01*
X25340846Y7096777D01*
X25394001Y7364000D01*
X25394000Y7364005D01*
X25394000Y7449776D01*
X25524186Y7579734D01*
X25810155Y7293265D01*
X26282276Y7097223D01*
X26793481Y7096777D01*
X27265943Y7291995D01*
X27554186Y7579734D01*
X27840155Y7293265D01*
X28312276Y7097223D01*
X28823481Y7096777D01*
X29295943Y7291995D01*
X29657735Y7653155D01*
X29853777Y8125276D01*
X29854223Y8636481D01*
X29659005Y9108943D01*
X29297845Y9470735D01*
X28825724Y9666777D01*
X28734776Y9666856D01*
X28833777Y9905276D01*
X28834223Y10416481D01*
X28639005Y10888943D01*
X28277845Y11250735D01*
X27805724Y11446777D01*
X27294519Y11447223D01*
X26822057Y11252005D01*
X26533814Y10964266D01*
X26247845Y11250735D01*
X25775724Y11446777D01*
X25264519Y11447223D01*
X24792057Y11252005D01*
X24503814Y10964266D01*
X24217845Y11250735D01*
X23745724Y11446777D01*
X23234519Y11447223D01*
X22762057Y11252005D01*
X22473814Y10964266D01*
X22187845Y11250735D01*
X21715724Y11446777D01*
X21204519Y11447223D01*
X20732057Y11252005D01*
X20370265Y10890845D01*
X20174223Y10418724D01*
X20173777Y9907519D01*
X20218994Y9798085D01*
X18053581Y11963499D01*
X39615691Y11963499D01*
X39886868Y11307200D01*
X40388559Y10804633D01*
X41044384Y10532311D01*
X41754501Y10531691D01*
X42410800Y10802868D01*
X42913367Y11304559D01*
X43185689Y11960384D01*
X43186169Y12510402D01*
X43534961Y12161001D01*
X44374491Y11812397D01*
X45283521Y11811604D01*
X46123658Y12158742D01*
X46766999Y12800961D01*
X47115603Y13640491D01*
X47116396Y14549521D01*
X46769258Y15389658D01*
X46127039Y16032999D01*
X45287509Y16381603D01*
X44378479Y16382396D01*
X43538342Y16035258D01*
X42895001Y15393039D01*
X42546397Y14553509D01*
X42545650Y13696927D01*
X42413441Y13829367D01*
X41757616Y14101689D01*
X41047499Y14102309D01*
X40391200Y13831132D01*
X39888633Y13329441D01*
X39616311Y12673616D01*
X39615691Y11963499D01*
X18053581Y11963499D01*
X17897790Y12119290D01*
X17610675Y12311133D01*
X17551016Y12323000D01*
X17272000Y12378501D01*
X17271995Y12378500D01*
X14527079Y12378500D01*
X14267583Y12637996D01*
X14705298Y12456241D01*
X15256285Y12455760D01*
X15765515Y12666169D01*
X16155461Y13055436D01*
X16366759Y13564298D01*
X16367240Y14115285D01*
X16156831Y14624515D01*
X16073776Y14707715D01*
X16773760Y14707715D01*
X16984169Y14198485D01*
X17373436Y13808539D01*
X17882298Y13597241D01*
X18433285Y13596760D01*
X18942515Y13807169D01*
X19304289Y14168313D01*
X19663436Y13808539D01*
X20172298Y13597241D01*
X20723285Y13596760D01*
X21232515Y13807169D01*
X21622461Y14196436D01*
X21833759Y14705298D01*
X21834240Y15256285D01*
X21623831Y15765515D01*
X21234564Y16155461D01*
X20725702Y16366759D01*
X20174715Y16367240D01*
X19665485Y16156831D01*
X19303711Y15795687D01*
X18944564Y16155461D01*
X18435702Y16366759D01*
X17884715Y16367240D01*
X17375485Y16156831D01*
X16985539Y15767564D01*
X16774241Y15258702D01*
X16773760Y14707715D01*
X16073776Y14707715D01*
X15795687Y14986289D01*
X16155461Y15345436D01*
X16366759Y15854298D01*
X16367240Y16405285D01*
X16156831Y16914515D01*
X15767564Y17304461D01*
X15258702Y17515759D01*
X14707715Y17516240D01*
X14198485Y17305831D01*
X13808539Y16916564D01*
X13597241Y16407702D01*
X13596760Y15856715D01*
X13807169Y15347485D01*
X14168313Y14985711D01*
X13808539Y14626564D01*
X13597241Y14117702D01*
X13596760Y13566715D01*
X13778352Y13127228D01*
X13331000Y13574580D01*
X13331000Y21976995D01*
X13331001Y21977000D01*
X13263633Y22315674D01*
X13263633Y22315675D01*
X13071790Y22602790D01*
X13071787Y22602792D01*
X12765551Y22909029D01*
X24872821Y22909029D01*
X25030058Y22528485D01*
X25320954Y22237081D01*
X25701223Y22079180D01*
X25832777Y22079065D01*
X31321921Y16589921D01*
X31576594Y16419755D01*
X31841642Y16367033D01*
X31604715Y16367240D01*
X31095485Y16156831D01*
X30733711Y15795687D01*
X30374564Y16155461D01*
X29865702Y16366759D01*
X29314715Y16367240D01*
X28805485Y16156831D01*
X28415539Y15767564D01*
X28204241Y15258702D01*
X28203760Y14707715D01*
X28414169Y14198485D01*
X28803436Y13808539D01*
X29312298Y13597241D01*
X29863285Y13596760D01*
X30372515Y13807169D01*
X30734289Y14168313D01*
X31093436Y13808539D01*
X31602298Y13597241D01*
X32153285Y13596760D01*
X32662515Y13807169D01*
X33052461Y14196436D01*
X33263759Y14705298D01*
X33264240Y15256285D01*
X33053831Y15765515D01*
X32664564Y16155461D01*
X32171979Y16360000D01*
X34391903Y16360000D01*
X34306241Y16153702D01*
X34305760Y15602715D01*
X34516169Y15093485D01*
X34877313Y14731711D01*
X34517539Y14372564D01*
X34306241Y13863702D01*
X34305760Y13312715D01*
X34516169Y12803485D01*
X34905436Y12413539D01*
X35414298Y12202241D01*
X35965285Y12201760D01*
X36474515Y12412169D01*
X36864461Y12801436D01*
X37075759Y13310298D01*
X37076240Y13861285D01*
X36865831Y14370515D01*
X36504687Y14732289D01*
X36864461Y15091436D01*
X37075759Y15600298D01*
X37076240Y16151285D01*
X36990001Y16360000D01*
X39008604Y16360000D01*
X39036683Y16331921D01*
X39291355Y16161755D01*
X39451000Y16129999D01*
X39782155Y15798265D01*
X40254276Y15602223D01*
X40765481Y15601777D01*
X41237943Y15796995D01*
X41599735Y16158155D01*
X41795777Y16630276D01*
X41795856Y16721224D01*
X42034276Y16622223D01*
X42545481Y16621777D01*
X43017943Y16816995D01*
X43379735Y17178155D01*
X43575777Y17650276D01*
X43576223Y18161481D01*
X43381005Y18633943D01*
X43093266Y18922186D01*
X43379735Y19208155D01*
X43575777Y19680276D01*
X43576223Y20191481D01*
X43381005Y20663943D01*
X43093266Y20952186D01*
X43379735Y21238155D01*
X43575777Y21710276D01*
X43576223Y22221481D01*
X43381005Y22693943D01*
X43093266Y22982186D01*
X43379735Y23268155D01*
X43575777Y23740276D01*
X43576223Y24251481D01*
X43381005Y24723943D01*
X43019845Y25085735D01*
X42547724Y25281777D01*
X42036519Y25282223D01*
X41564057Y25087005D01*
X41202265Y24725845D01*
X41006223Y24253724D01*
X41006144Y24162776D01*
X40767724Y24261777D01*
X40256519Y24262223D01*
X39784057Y24067005D01*
X39422265Y23705845D01*
X39226223Y23233724D01*
X39225806Y22756000D01*
X38778805Y22756000D01*
X38687046Y22847919D01*
X38306777Y23005820D01*
X37895029Y23006179D01*
X37514485Y22848942D01*
X37223081Y22558046D01*
X37065180Y22177777D01*
X37064821Y21766029D01*
X37078881Y21732000D01*
X37008565Y21732000D01*
X36782042Y21958919D01*
X36401773Y22116820D01*
X35990025Y22117179D01*
X35609481Y21959942D01*
X35318077Y21669046D01*
X35160176Y21288777D01*
X35159817Y20877029D01*
X35223873Y20722000D01*
X34302293Y20722000D01*
X34278942Y20778515D01*
X33988046Y21069919D01*
X33607777Y21227820D01*
X33196029Y21228179D01*
X32815485Y21070942D01*
X32652709Y20908449D01*
X32150066Y21411092D01*
X32150179Y21540971D01*
X31992942Y21921515D01*
X31702046Y22212919D01*
X31321777Y22370820D01*
X30910029Y22371179D01*
X30529485Y22213942D01*
X30238081Y21923046D01*
X30127184Y21655974D01*
X29483066Y22300092D01*
X29483179Y22429971D01*
X29325942Y22810515D01*
X29035046Y23101919D01*
X28654777Y23259820D01*
X28243029Y23260179D01*
X27862485Y23102942D01*
X27571081Y22812046D01*
X27497446Y22634712D01*
X26943066Y23189092D01*
X26943179Y23318971D01*
X26785942Y23699515D01*
X26495046Y23990919D01*
X26114777Y24148820D01*
X25703029Y24149179D01*
X25322485Y23991942D01*
X25031081Y23701046D01*
X24873180Y23320777D01*
X24872821Y22909029D01*
X12765551Y22909029D01*
X11446972Y24227608D01*
X11447223Y24515481D01*
X11252005Y24987943D01*
X10890845Y25349735D01*
X10418724Y25545777D01*
X9907519Y25546223D01*
X9435057Y25351005D01*
X9073265Y24989845D01*
X8877223Y24517724D01*
X8877144Y24426776D01*
X8638724Y24525777D01*
X8127519Y24526223D01*
X7655057Y24331005D01*
X7293265Y23969845D01*
X7097223Y23497724D01*
X7096777Y22986519D01*
X964000Y22986519D01*
X964000Y26598479D01*
X3556604Y26598479D01*
X3903742Y25758342D01*
X4545961Y25115001D01*
X5385491Y24766397D01*
X6294521Y24765604D01*
X7134658Y25112742D01*
X7777999Y25754961D01*
X8126603Y26594491D01*
X8127206Y27286715D01*
X13596760Y27286715D01*
X13807169Y26777485D01*
X14168313Y26415711D01*
X13808539Y26056564D01*
X13597241Y25547702D01*
X13596760Y24996715D01*
X13807169Y24487485D01*
X14196436Y24097539D01*
X14705298Y23886241D01*
X15256285Y23885760D01*
X15765515Y24096169D01*
X16155461Y24485436D01*
X16366759Y24994298D01*
X16367240Y25545285D01*
X16156831Y26054515D01*
X15795687Y26416289D01*
X16155461Y26775436D01*
X16262292Y27032715D01*
X34305760Y27032715D01*
X34516169Y26523485D01*
X34877313Y26161711D01*
X34517539Y25802564D01*
X34306241Y25293702D01*
X34305760Y24742715D01*
X34516169Y24233485D01*
X34905436Y23843539D01*
X35414298Y23632241D01*
X35965285Y23631760D01*
X36474515Y23842169D01*
X36864461Y24231436D01*
X37075759Y24740298D01*
X37076240Y25291285D01*
X36865831Y25800515D01*
X36504687Y26162289D01*
X36864461Y26521436D01*
X37075759Y27030298D01*
X37076240Y27581285D01*
X36865831Y28090515D01*
X36733079Y28223499D01*
X39615691Y28223499D01*
X39886868Y27567200D01*
X40388559Y27064633D01*
X41044384Y26792311D01*
X41754501Y26791691D01*
X42410800Y27062868D01*
X42546349Y27198180D01*
X42545604Y26344479D01*
X42892742Y25504342D01*
X43534961Y24861001D01*
X44374491Y24512397D01*
X45283521Y24511604D01*
X46123658Y24858742D01*
X46766999Y25500961D01*
X47115603Y26340491D01*
X47116396Y27249521D01*
X46769258Y28089658D01*
X46127039Y28732999D01*
X45287509Y29081603D01*
X44378479Y29082396D01*
X43538342Y28735258D01*
X43185831Y28383362D01*
X43186309Y28930501D01*
X42915132Y29586800D01*
X42413441Y30089367D01*
X41757616Y30361689D01*
X41047499Y30362309D01*
X40391200Y30091132D01*
X39888633Y29589441D01*
X39616311Y28933616D01*
X39615691Y28223499D01*
X36733079Y28223499D01*
X36476564Y28480461D01*
X35967702Y28691759D01*
X35416715Y28692240D01*
X34907485Y28481831D01*
X34517539Y28092564D01*
X34306241Y27583702D01*
X34305760Y27032715D01*
X16262292Y27032715D01*
X16366759Y27284298D01*
X16367240Y27835285D01*
X16156831Y28344515D01*
X15767564Y28734461D01*
X15258702Y28945759D01*
X14707715Y28946240D01*
X14198485Y28735831D01*
X13808539Y28346564D01*
X13597241Y27837702D01*
X13596760Y27286715D01*
X8127206Y27286715D01*
X8127396Y27503521D01*
X7780258Y28343658D01*
X7138039Y28986999D01*
X6298509Y29335603D01*
X5389479Y29336396D01*
X4549342Y28989258D01*
X3906001Y28347039D01*
X3557397Y27507509D01*
X3556604Y26598479D01*
X964000Y26598479D01*
X964000Y34714338D01*
X1579259Y33225296D01*
X2739190Y32063340D01*
X4255487Y31433718D01*
X5897310Y31432285D01*
X7414704Y32059259D01*
X8576660Y33219190D01*
X9206282Y34735487D01*
X9207715Y36377310D01*
X8758291Y37465000D01*
X11544560Y37465000D01*
X11544560Y35941000D01*
X11593843Y35693235D01*
X11734191Y35483191D01*
X11809307Y35433000D01*
X11734191Y35382809D01*
X11593843Y35172765D01*
X11544560Y34925000D01*
X11544560Y33401000D01*
X11593843Y33153235D01*
X11734191Y32943191D01*
X11944235Y32802843D01*
X12192000Y32753560D01*
X13716000Y32753560D01*
X13963765Y32802843D01*
X14173809Y32943191D01*
X14224000Y33018307D01*
X14274191Y32943191D01*
X14484235Y32802843D01*
X14732000Y32753560D01*
X16256000Y32753560D01*
X16503765Y32802843D01*
X16713809Y32943191D01*
X16854157Y33153235D01*
X16903440Y33401000D01*
X16903440Y34925000D01*
X16854157Y35172765D01*
X16713809Y35382809D01*
X16638693Y35433000D01*
X16713809Y35483191D01*
X16854157Y35693235D01*
X16903440Y35941000D01*
X16903440Y36563891D01*
X22906657Y36563891D01*
X23208218Y35834057D01*
X23766120Y35275181D01*
X24007000Y35175159D01*
X24007000Y33659098D01*
X23769057Y33560782D01*
X23210181Y33002880D01*
X22907346Y32273573D01*
X22906657Y31483891D01*
X23208218Y30754057D01*
X23766120Y30195181D01*
X24495427Y29892346D01*
X25285109Y29891657D01*
X26014943Y30193218D01*
X26573819Y30751120D01*
X26673841Y30992000D01*
X28189902Y30992000D01*
X28288218Y30754057D01*
X28846120Y30195181D01*
X29575427Y29892346D01*
X30365109Y29891657D01*
X31094943Y30193218D01*
X31653819Y30751120D01*
X31956654Y31480427D01*
X31957343Y32270109D01*
X31655782Y32999943D01*
X31097880Y33558819D01*
X30857000Y33658841D01*
X30857000Y35174902D01*
X31094943Y35273218D01*
X31653819Y35831120D01*
X31956654Y36560427D01*
X31957343Y37350109D01*
X31655782Y38079943D01*
X31097880Y38638819D01*
X30368573Y38941654D01*
X29578891Y38942343D01*
X28849057Y38640782D01*
X28290181Y38082880D01*
X28190159Y37842000D01*
X26674098Y37842000D01*
X26575782Y38079943D01*
X26017880Y38638819D01*
X25288573Y38941654D01*
X24498891Y38942343D01*
X23769057Y38640782D01*
X23210181Y38082880D01*
X22907346Y37353573D01*
X22906657Y36563891D01*
X16903440Y36563891D01*
X16903440Y37465000D01*
X16854157Y37712765D01*
X16713809Y37922809D01*
X16503765Y38063157D01*
X16256000Y38112440D01*
X14732000Y38112440D01*
X14484235Y38063157D01*
X14274191Y37922809D01*
X14224000Y37847693D01*
X14173809Y37922809D01*
X13963765Y38063157D01*
X13716000Y38112440D01*
X12192000Y38112440D01*
X11944235Y38063157D01*
X11734191Y37922809D01*
X11593843Y37712765D01*
X11544560Y37465000D01*
X8758291Y37465000D01*
X8580741Y37894704D01*
X7420810Y39056660D01*
X5929275Y39676000D01*
X44874338Y39676000D01*
X43385296Y39060741D01*
X43385296Y39060741D01*
G37*
X43385296Y39060741D02*
X42223340Y37900810D01*
X41593718Y36384513D01*
X41592285Y34742690D01*
X42219259Y33225296D01*
X43379190Y32063340D01*
X44895487Y31433718D01*
X46537310Y31432285D01*
X48054704Y32059259D01*
X49216660Y33219190D01*
X49836000Y34710725D01*
X49836000Y5925662D01*
X49220741Y7414704D01*
X48060810Y8576660D01*
X46544513Y9206282D01*
X44902690Y9207715D01*
X43385296Y8580741D01*
X42223340Y7420810D01*
X41593718Y5904513D01*
X41592285Y4262690D01*
X42219259Y2745296D01*
X43379190Y1583340D01*
X44870725Y964000D01*
X5925662Y964000D01*
X7414704Y1579259D01*
X8576660Y2739190D01*
X9206282Y4255487D01*
X9207715Y5897310D01*
X8580741Y7414704D01*
X7420810Y8576660D01*
X5904513Y9206282D01*
X4262690Y9207715D01*
X2745296Y8580741D01*
X1583340Y7420810D01*
X964000Y5929275D01*
X964000Y13898479D01*
X3556604Y13898479D01*
X3903742Y13058342D01*
X4545961Y12415001D01*
X5385491Y12066397D01*
X6294521Y12065604D01*
X7134658Y12412742D01*
X7487169Y12764638D01*
X7486691Y12217499D01*
X7757868Y11561200D01*
X8259559Y11058633D01*
X8915384Y10786311D01*
X9625501Y10785691D01*
X10281800Y11056868D01*
X10784367Y11558559D01*
X11056689Y12214384D01*
X11057309Y12924501D01*
X10786132Y13580800D01*
X10284441Y14083367D01*
X9628616Y14355689D01*
X8918499Y14356309D01*
X8262200Y14085132D01*
X8126651Y13949820D01*
X8127396Y14803521D01*
X7780258Y15643658D01*
X7138039Y16286999D01*
X6298509Y16635603D01*
X5389479Y16636396D01*
X4549342Y16289258D01*
X3906001Y15647039D01*
X3557397Y14807509D01*
X3556604Y13898479D01*
X964000Y13898479D01*
X964000Y22986519D01*
X7096777Y22986519D01*
X7291995Y22514057D01*
X7579734Y22225814D01*
X7293265Y21939845D01*
X7097223Y21467724D01*
X7096777Y20956519D01*
X7291995Y20484057D01*
X7579734Y20195814D01*
X7293265Y19909845D01*
X7097223Y19437724D01*
X7096777Y18926519D01*
X7291995Y18454057D01*
X7579734Y18165814D01*
X7293265Y17879845D01*
X7097223Y17407724D01*
X7096777Y16896519D01*
X7291995Y16424057D01*
X7653155Y16062265D01*
X8125276Y15866223D01*
X8636481Y15865777D01*
X9108943Y16060995D01*
X9470735Y16422155D01*
X9666777Y16894276D01*
X9666856Y16985224D01*
X9905276Y16886223D01*
X10416481Y16885777D01*
X10888943Y17080995D01*
X11250735Y17442155D01*
X11446777Y17914276D01*
X11447223Y18425481D01*
X11252005Y18897943D01*
X10964266Y19186186D01*
X11250735Y19472155D01*
X11446777Y19944276D01*
X11447223Y20455481D01*
X11252005Y20927943D01*
X10964266Y21216186D01*
X11250735Y21502155D01*
X11373534Y21797887D01*
X11561000Y21610421D01*
X11561000Y13208005D01*
X11560999Y13208000D01*
X11616772Y12927616D01*
X11628367Y12869325D01*
X11764111Y12666169D01*
X11820210Y12582210D01*
X13534708Y10867713D01*
X13534710Y10867710D01*
X13821825Y10675867D01*
X14160500Y10608499D01*
X14160505Y10608500D01*
X16905420Y10608500D01*
X19573227Y7940694D01*
X19125509Y8126603D01*
X18216479Y8127396D01*
X17376342Y7780258D01*
X16733001Y7138039D01*
X16384397Y6298509D01*
X16383604Y5389479D01*
X16730742Y4549342D01*
X17372961Y3906001D01*
X18212491Y3557397D01*
X19121521Y3556604D01*
X19961658Y3903742D01*
X20604999Y4545961D01*
X20953603Y5385491D01*
X20953606Y5389479D01*
X29083604Y5389479D01*
X29430742Y4549342D01*
X30072961Y3906001D01*
X30912491Y3557397D01*
X31821521Y3556604D01*
X32661658Y3903742D01*
X33304999Y4545961D01*
X33653603Y5385491D01*
X33654396Y6294521D01*
X33307258Y7134658D01*
X32955362Y7487169D01*
X33502501Y7486691D01*
X34158800Y7757868D01*
X34661367Y8259559D01*
X34933689Y8915384D01*
X34934309Y9625501D01*
X34663132Y10281800D01*
X34161441Y10784367D01*
X33505616Y11056689D01*
X32795499Y11057309D01*
X32139200Y10786132D01*
X31636633Y10284441D01*
X31364311Y9628616D01*
X31363691Y8918499D01*
X31634868Y8262200D01*
X31770180Y8126651D01*
X30916479Y8127396D01*
X30076342Y7780258D01*
X29433001Y7138039D01*
X29084397Y6298509D01*
X29083604Y5389479D01*
X20953606Y5389479D01*
X20954396Y6294521D01*
X20767797Y6746123D01*
X21599208Y5914713D01*
X21599210Y5914710D01*
X21886325Y5722867D01*
X21942516Y5711690D01*
X22225000Y5655499D01*
X22225005Y5655500D01*
X23685495Y5655500D01*
X23685500Y5655499D01*
X23967984Y5711690D01*
X24024175Y5722867D01*
X24311290Y5914710D01*
X25134787Y6738208D01*
X25134790Y6738210D01*
X25326633Y7025325D01*
X25340846Y7096777D01*
X25394001Y7364000D01*
X25394000Y7364005D01*
X25394000Y7449776D01*
X25524186Y7579734D01*
X25810155Y7293265D01*
X26282276Y7097223D01*
X26793481Y7096777D01*
X27265943Y7291995D01*
X27554186Y7579734D01*
X27840155Y7293265D01*
X28312276Y7097223D01*
X28823481Y7096777D01*
X29295943Y7291995D01*
X29657735Y7653155D01*
X29853777Y8125276D01*
X29854223Y8636481D01*
X29659005Y9108943D01*
X29297845Y9470735D01*
X28825724Y9666777D01*
X28734776Y9666856D01*
X28833777Y9905276D01*
X28834223Y10416481D01*
X28639005Y10888943D01*
X28277845Y11250735D01*
X27805724Y11446777D01*
X27294519Y11447223D01*
X26822057Y11252005D01*
X26533814Y10964266D01*
X26247845Y11250735D01*
X25775724Y11446777D01*
X25264519Y11447223D01*
X24792057Y11252005D01*
X24503814Y10964266D01*
X24217845Y11250735D01*
X23745724Y11446777D01*
X23234519Y11447223D01*
X22762057Y11252005D01*
X22473814Y10964266D01*
X22187845Y11250735D01*
X21715724Y11446777D01*
X21204519Y11447223D01*
X20732057Y11252005D01*
X20370265Y10890845D01*
X20174223Y10418724D01*
X20173777Y9907519D01*
X20218994Y9798085D01*
X18053581Y11963499D01*
X39615691Y11963499D01*
X39886868Y11307200D01*
X40388559Y10804633D01*
X41044384Y10532311D01*
X41754501Y10531691D01*
X42410800Y10802868D01*
X42913367Y11304559D01*
X43185689Y11960384D01*
X43186169Y12510402D01*
X43534961Y12161001D01*
X44374491Y11812397D01*
X45283521Y11811604D01*
X46123658Y12158742D01*
X46766999Y12800961D01*
X47115603Y13640491D01*
X47116396Y14549521D01*
X46769258Y15389658D01*
X46127039Y16032999D01*
X45287509Y16381603D01*
X44378479Y16382396D01*
X43538342Y16035258D01*
X42895001Y15393039D01*
X42546397Y14553509D01*
X42545650Y13696927D01*
X42413441Y13829367D01*
X41757616Y14101689D01*
X41047499Y14102309D01*
X40391200Y13831132D01*
X39888633Y13329441D01*
X39616311Y12673616D01*
X39615691Y11963499D01*
X18053581Y11963499D01*
X17897790Y12119290D01*
X17610675Y12311133D01*
X17551016Y12323000D01*
X17272000Y12378501D01*
X17271995Y12378500D01*
X14527079Y12378500D01*
X14267583Y12637996D01*
X14705298Y12456241D01*
X15256285Y12455760D01*
X15765515Y12666169D01*
X16155461Y13055436D01*
X16366759Y13564298D01*
X16367240Y14115285D01*
X16156831Y14624515D01*
X16073776Y14707715D01*
X16773760Y14707715D01*
X16984169Y14198485D01*
X17373436Y13808539D01*
X17882298Y13597241D01*
X18433285Y13596760D01*
X18942515Y13807169D01*
X19304289Y14168313D01*
X19663436Y13808539D01*
X20172298Y13597241D01*
X20723285Y13596760D01*
X21232515Y13807169D01*
X21622461Y14196436D01*
X21833759Y14705298D01*
X21834240Y15256285D01*
X21623831Y15765515D01*
X21234564Y16155461D01*
X20725702Y16366759D01*
X20174715Y16367240D01*
X19665485Y16156831D01*
X19303711Y15795687D01*
X18944564Y16155461D01*
X18435702Y16366759D01*
X17884715Y16367240D01*
X17375485Y16156831D01*
X16985539Y15767564D01*
X16774241Y15258702D01*
X16773760Y14707715D01*
X16073776Y14707715D01*
X15795687Y14986289D01*
X16155461Y15345436D01*
X16366759Y15854298D01*
X16367240Y16405285D01*
X16156831Y16914515D01*
X15767564Y17304461D01*
X15258702Y17515759D01*
X14707715Y17516240D01*
X14198485Y17305831D01*
X13808539Y16916564D01*
X13597241Y16407702D01*
X13596760Y15856715D01*
X13807169Y15347485D01*
X14168313Y14985711D01*
X13808539Y14626564D01*
X13597241Y14117702D01*
X13596760Y13566715D01*
X13778352Y13127228D01*
X13331000Y13574580D01*
X13331000Y21976995D01*
X13331001Y21977000D01*
X13263633Y22315674D01*
X13263633Y22315675D01*
X13071790Y22602790D01*
X13071787Y22602792D01*
X12765551Y22909029D01*
X24872821Y22909029D01*
X25030058Y22528485D01*
X25320954Y22237081D01*
X25701223Y22079180D01*
X25832777Y22079065D01*
X31321921Y16589921D01*
X31576594Y16419755D01*
X31841642Y16367033D01*
X31604715Y16367240D01*
X31095485Y16156831D01*
X30733711Y15795687D01*
X30374564Y16155461D01*
X29865702Y16366759D01*
X29314715Y16367240D01*
X28805485Y16156831D01*
X28415539Y15767564D01*
X28204241Y15258702D01*
X28203760Y14707715D01*
X28414169Y14198485D01*
X28803436Y13808539D01*
X29312298Y13597241D01*
X29863285Y13596760D01*
X30372515Y13807169D01*
X30734289Y14168313D01*
X31093436Y13808539D01*
X31602298Y13597241D01*
X32153285Y13596760D01*
X32662515Y13807169D01*
X33052461Y14196436D01*
X33263759Y14705298D01*
X33264240Y15256285D01*
X33053831Y15765515D01*
X32664564Y16155461D01*
X32171979Y16360000D01*
X34391903Y16360000D01*
X34306241Y16153702D01*
X34305760Y15602715D01*
X34516169Y15093485D01*
X34877313Y14731711D01*
X34517539Y14372564D01*
X34306241Y13863702D01*
X34305760Y13312715D01*
X34516169Y12803485D01*
X34905436Y12413539D01*
X35414298Y12202241D01*
X35965285Y12201760D01*
X36474515Y12412169D01*
X36864461Y12801436D01*
X37075759Y13310298D01*
X37076240Y13861285D01*
X36865831Y14370515D01*
X36504687Y14732289D01*
X36864461Y15091436D01*
X37075759Y15600298D01*
X37076240Y16151285D01*
X36990001Y16360000D01*
X39008604Y16360000D01*
X39036683Y16331921D01*
X39291355Y16161755D01*
X39451000Y16129999D01*
X39782155Y15798265D01*
X40254276Y15602223D01*
X40765481Y15601777D01*
X41237943Y15796995D01*
X41599735Y16158155D01*
X41795777Y16630276D01*
X41795856Y16721224D01*
X42034276Y16622223D01*
X42545481Y16621777D01*
X43017943Y16816995D01*
X43379735Y17178155D01*
X43575777Y17650276D01*
X43576223Y18161481D01*
X43381005Y18633943D01*
X43093266Y18922186D01*
X43379735Y19208155D01*
X43575777Y19680276D01*
X43576223Y20191481D01*
X43381005Y20663943D01*
X43093266Y20952186D01*
X43379735Y21238155D01*
X43575777Y21710276D01*
X43576223Y22221481D01*
X43381005Y22693943D01*
X43093266Y22982186D01*
X43379735Y23268155D01*
X43575777Y23740276D01*
X43576223Y24251481D01*
X43381005Y24723943D01*
X43019845Y25085735D01*
X42547724Y25281777D01*
X42036519Y25282223D01*
X41564057Y25087005D01*
X41202265Y24725845D01*
X41006223Y24253724D01*
X41006144Y24162776D01*
X40767724Y24261777D01*
X40256519Y24262223D01*
X39784057Y24067005D01*
X39422265Y23705845D01*
X39226223Y23233724D01*
X39225806Y22756000D01*
X38778805Y22756000D01*
X38687046Y22847919D01*
X38306777Y23005820D01*
X37895029Y23006179D01*
X37514485Y22848942D01*
X37223081Y22558046D01*
X37065180Y22177777D01*
X37064821Y21766029D01*
X37078881Y21732000D01*
X37008565Y21732000D01*
X36782042Y21958919D01*
X36401773Y22116820D01*
X35990025Y22117179D01*
X35609481Y21959942D01*
X35318077Y21669046D01*
X35160176Y21288777D01*
X35159817Y20877029D01*
X35223873Y20722000D01*
X34302293Y20722000D01*
X34278942Y20778515D01*
X33988046Y21069919D01*
X33607777Y21227820D01*
X33196029Y21228179D01*
X32815485Y21070942D01*
X32652709Y20908449D01*
X32150066Y21411092D01*
X32150179Y21540971D01*
X31992942Y21921515D01*
X31702046Y22212919D01*
X31321777Y22370820D01*
X30910029Y22371179D01*
X30529485Y22213942D01*
X30238081Y21923046D01*
X30127184Y21655974D01*
X29483066Y22300092D01*
X29483179Y22429971D01*
X29325942Y22810515D01*
X29035046Y23101919D01*
X28654777Y23259820D01*
X28243029Y23260179D01*
X27862485Y23102942D01*
X27571081Y22812046D01*
X27497446Y22634712D01*
X26943066Y23189092D01*
X26943179Y23318971D01*
X26785942Y23699515D01*
X26495046Y23990919D01*
X26114777Y24148820D01*
X25703029Y24149179D01*
X25322485Y23991942D01*
X25031081Y23701046D01*
X24873180Y23320777D01*
X24872821Y22909029D01*
X12765551Y22909029D01*
X11446972Y24227608D01*
X11447223Y24515481D01*
X11252005Y24987943D01*
X10890845Y25349735D01*
X10418724Y25545777D01*
X9907519Y25546223D01*
X9435057Y25351005D01*
X9073265Y24989845D01*
X8877223Y24517724D01*
X8877144Y24426776D01*
X8638724Y24525777D01*
X8127519Y24526223D01*
X7655057Y24331005D01*
X7293265Y23969845D01*
X7097223Y23497724D01*
X7096777Y22986519D01*
X964000Y22986519D01*
X964000Y26598479D01*
X3556604Y26598479D01*
X3903742Y25758342D01*
X4545961Y25115001D01*
X5385491Y24766397D01*
X6294521Y24765604D01*
X7134658Y25112742D01*
X7777999Y25754961D01*
X8126603Y26594491D01*
X8127206Y27286715D01*
X13596760Y27286715D01*
X13807169Y26777485D01*
X14168313Y26415711D01*
X13808539Y26056564D01*
X13597241Y25547702D01*
X13596760Y24996715D01*
X13807169Y24487485D01*
X14196436Y24097539D01*
X14705298Y23886241D01*
X15256285Y23885760D01*
X15765515Y24096169D01*
X16155461Y24485436D01*
X16366759Y24994298D01*
X16367240Y25545285D01*
X16156831Y26054515D01*
X15795687Y26416289D01*
X16155461Y26775436D01*
X16262292Y27032715D01*
X34305760Y27032715D01*
X34516169Y26523485D01*
X34877313Y26161711D01*
X34517539Y25802564D01*
X34306241Y25293702D01*
X34305760Y24742715D01*
X34516169Y24233485D01*
X34905436Y23843539D01*
X35414298Y23632241D01*
X35965285Y23631760D01*
X36474515Y23842169D01*
X36864461Y24231436D01*
X37075759Y24740298D01*
X37076240Y25291285D01*
X36865831Y25800515D01*
X36504687Y26162289D01*
X36864461Y26521436D01*
X37075759Y27030298D01*
X37076240Y27581285D01*
X36865831Y28090515D01*
X36733079Y28223499D01*
X39615691Y28223499D01*
X39886868Y27567200D01*
X40388559Y27064633D01*
X41044384Y26792311D01*
X41754501Y26791691D01*
X42410800Y27062868D01*
X42546349Y27198180D01*
X42545604Y26344479D01*
X42892742Y25504342D01*
X43534961Y24861001D01*
X44374491Y24512397D01*
X45283521Y24511604D01*
X46123658Y24858742D01*
X46766999Y25500961D01*
X47115603Y26340491D01*
X47116396Y27249521D01*
X46769258Y28089658D01*
X46127039Y28732999D01*
X45287509Y29081603D01*
X44378479Y29082396D01*
X43538342Y28735258D01*
X43185831Y28383362D01*
X43186309Y28930501D01*
X42915132Y29586800D01*
X42413441Y30089367D01*
X41757616Y30361689D01*
X41047499Y30362309D01*
X40391200Y30091132D01*
X39888633Y29589441D01*
X39616311Y28933616D01*
X39615691Y28223499D01*
X36733079Y28223499D01*
X36476564Y28480461D01*
X35967702Y28691759D01*
X35416715Y28692240D01*
X34907485Y28481831D01*
X34517539Y28092564D01*
X34306241Y27583702D01*
X34305760Y27032715D01*
X16262292Y27032715D01*
X16366759Y27284298D01*
X16367240Y27835285D01*
X16156831Y28344515D01*
X15767564Y28734461D01*
X15258702Y28945759D01*
X14707715Y28946240D01*
X14198485Y28735831D01*
X13808539Y28346564D01*
X13597241Y27837702D01*
X13596760Y27286715D01*
X8127206Y27286715D01*
X8127396Y27503521D01*
X7780258Y28343658D01*
X7138039Y28986999D01*
X6298509Y29335603D01*
X5389479Y29336396D01*
X4549342Y28989258D01*
X3906001Y28347039D01*
X3557397Y27507509D01*
X3556604Y26598479D01*
X964000Y26598479D01*
X964000Y34714338D01*
X1579259Y33225296D01*
X2739190Y32063340D01*
X4255487Y31433718D01*
X5897310Y31432285D01*
X7414704Y32059259D01*
X8576660Y33219190D01*
X9206282Y34735487D01*
X9207715Y36377310D01*
X8758291Y37465000D01*
X11544560Y37465000D01*
X11544560Y35941000D01*
X11593843Y35693235D01*
X11734191Y35483191D01*
X11809307Y35433000D01*
X11734191Y35382809D01*
X11593843Y35172765D01*
X11544560Y34925000D01*
X11544560Y33401000D01*
X11593843Y33153235D01*
X11734191Y32943191D01*
X11944235Y32802843D01*
X12192000Y32753560D01*
X13716000Y32753560D01*
X13963765Y32802843D01*
X14173809Y32943191D01*
X14224000Y33018307D01*
X14274191Y32943191D01*
X14484235Y32802843D01*
X14732000Y32753560D01*
X16256000Y32753560D01*
X16503765Y32802843D01*
X16713809Y32943191D01*
X16854157Y33153235D01*
X16903440Y33401000D01*
X16903440Y34925000D01*
X16854157Y35172765D01*
X16713809Y35382809D01*
X16638693Y35433000D01*
X16713809Y35483191D01*
X16854157Y35693235D01*
X16903440Y35941000D01*
X16903440Y36563891D01*
X22906657Y36563891D01*
X23208218Y35834057D01*
X23766120Y35275181D01*
X24007000Y35175159D01*
X24007000Y33659098D01*
X23769057Y33560782D01*
X23210181Y33002880D01*
X22907346Y32273573D01*
X22906657Y31483891D01*
X23208218Y30754057D01*
X23766120Y30195181D01*
X24495427Y29892346D01*
X25285109Y29891657D01*
X26014943Y30193218D01*
X26573819Y30751120D01*
X26673841Y30992000D01*
X28189902Y30992000D01*
X28288218Y30754057D01*
X28846120Y30195181D01*
X29575427Y29892346D01*
X30365109Y29891657D01*
X31094943Y30193218D01*
X31653819Y30751120D01*
X31956654Y31480427D01*
X31957343Y32270109D01*
X31655782Y32999943D01*
X31097880Y33558819D01*
X30857000Y33658841D01*
X30857000Y35174902D01*
X31094943Y35273218D01*
X31653819Y35831120D01*
X31956654Y36560427D01*
X31957343Y37350109D01*
X31655782Y38079943D01*
X31097880Y38638819D01*
X30368573Y38941654D01*
X29578891Y38942343D01*
X28849057Y38640782D01*
X28290181Y38082880D01*
X28190159Y37842000D01*
X26674098Y37842000D01*
X26575782Y38079943D01*
X26017880Y38638819D01*
X25288573Y38941654D01*
X24498891Y38942343D01*
X23769057Y38640782D01*
X23210181Y38082880D01*
X22907346Y37353573D01*
X22906657Y36563891D01*
X16903440Y36563891D01*
X16903440Y37465000D01*
X16854157Y37712765D01*
X16713809Y37922809D01*
X16503765Y38063157D01*
X16256000Y38112440D01*
X14732000Y38112440D01*
X14484235Y38063157D01*
X14274191Y37922809D01*
X14224000Y37847693D01*
X14173809Y37922809D01*
X13963765Y38063157D01*
X13716000Y38112440D01*
X12192000Y38112440D01*
X11944235Y38063157D01*
X11734191Y37922809D01*
X11593843Y37712765D01*
X11544560Y37465000D01*
X8758291Y37465000D01*
X8580741Y37894704D01*
X7420810Y39056660D01*
X5929275Y39676000D01*
X44874338Y39676000D01*
X43385296Y39060741D01*
M02*
