G75*
G70*
%OFA0B0*%
%FSLAX24Y24*%
%IPPOS*%
%LPD*%
%AMOC8*
5,1,8,0,0,1.08239X$1,22.5*
%
%ADD10R,0.1620X0.1620*%
%ADD11C,0.2660*%
%ADD12R,0.0770X0.0770*%
%ADD13C,0.0398*%
%ADD14C,0.0477*%
D10*
X006354Y005307D03*
X006354Y007275D03*
X008354Y007275D03*
X008354Y005307D03*
X012448Y010606D03*
X012448Y012606D03*
X014417Y012606D03*
X014417Y010606D03*
D11*
X014448Y005275D03*
X014448Y017275D03*
X002448Y017275D03*
X002448Y005275D03*
D12*
X009189Y013748D03*
D13*
X009189Y013118D03*
X008795Y013118D03*
X008401Y013118D03*
X008401Y013511D03*
X008007Y013511D03*
X007614Y013511D03*
X007614Y013118D03*
X008007Y013118D03*
X008007Y012724D03*
X008401Y012724D03*
X007220Y013118D03*
X007220Y013511D03*
X007220Y013905D03*
D14*
X003992Y003866D03*
X004582Y003866D03*
X004582Y004456D03*
X003992Y004456D03*
X005173Y003866D03*
X005763Y003866D03*
X006354Y003866D03*
X006944Y003866D03*
X007535Y003866D03*
X008126Y003866D03*
X008716Y003866D03*
X009307Y003866D03*
X009897Y003866D03*
X009897Y004456D03*
X010488Y004456D03*
X010488Y003866D03*
X011078Y004456D03*
X011078Y005244D03*
X011078Y005756D03*
X011078Y006267D03*
X011078Y006819D03*
X010488Y006819D03*
X010488Y007409D03*
X010488Y008000D03*
X011039Y008000D03*
X011078Y008590D03*
X011078Y009181D03*
X010488Y009181D03*
X010488Y008590D03*
X009897Y008590D03*
X009897Y009181D03*
X009897Y009771D03*
X010488Y009771D03*
X011078Y009771D03*
X011669Y009181D03*
X011669Y008590D03*
X012259Y009181D03*
X012850Y009181D03*
X013441Y009181D03*
X014031Y009181D03*
X014543Y009181D03*
X015055Y009181D03*
X015567Y009181D03*
X015803Y013905D03*
X015803Y014496D03*
X015803Y015086D03*
X015803Y015677D03*
X015212Y015677D03*
X014622Y015677D03*
X014031Y015677D03*
X012850Y016267D03*
X012299Y017448D03*
X011669Y017448D03*
X011078Y017448D03*
X010488Y017448D03*
X010488Y018039D03*
X010488Y018630D03*
X011078Y018630D03*
X011078Y018039D03*
X011669Y018039D03*
X011669Y018630D03*
X014031Y013905D03*
X014622Y013905D03*
X015212Y013905D03*
X011078Y011543D03*
X010488Y011543D03*
X009897Y012133D03*
X006944Y009181D03*
X006944Y008590D03*
X007929Y008393D03*
X007929Y008885D03*
X008519Y008885D03*
X008519Y008393D03*
X009110Y008393D03*
X009110Y008885D03*
X009897Y008000D03*
X009897Y008000D03*
X009897Y007409D03*
X009897Y006819D03*
X006059Y009279D03*
X006059Y009870D03*
X005370Y009870D03*
X005370Y009279D03*
X003716Y010992D03*
X005094Y012606D03*
X005173Y013826D03*
X003992Y015086D03*
X003992Y015677D03*
X003992Y016267D03*
X004582Y016267D03*
X005173Y016267D03*
X005173Y017448D03*
X005763Y017448D03*
X006354Y017448D03*
X006354Y018039D03*
X006354Y018630D03*
X005763Y018630D03*
X005763Y018039D03*
X005173Y018039D03*
X005173Y018630D03*
X003401Y015086D03*
X002811Y015086D03*
X002220Y015086D03*
X001630Y015086D03*
X001630Y014496D03*
X001630Y013905D03*
X001630Y013315D03*
X001630Y012724D03*
X001630Y012133D03*
X001630Y011543D03*
X001630Y010952D03*
X001630Y010362D03*
X001630Y009771D03*
X001630Y009181D03*
X001630Y008590D03*
X001630Y008000D03*
X002220Y008000D03*
X002811Y008000D03*
X003401Y008000D03*
X003401Y007409D03*
X003401Y006819D03*
X002811Y007409D03*
X002220Y007409D03*
X001630Y007409D03*
X001039Y007409D03*
X001039Y008000D03*
X001039Y008590D03*
X001039Y009181D03*
X001039Y009771D03*
X001039Y010362D03*
X001039Y010952D03*
X001039Y011543D03*
X001039Y012133D03*
X001039Y012724D03*
X001039Y013315D03*
X001039Y013905D03*
X001039Y014496D03*
X001039Y015086D03*
X004740Y007409D03*
M02*
