*
*
G04 PADS 9.2 Build Number: 414666 generated Gerber (RS-274-X) file*
G04 PC Version=2.1*
*
%IN "CLKHUB.pcb"*%
*
%MOIN*%
*
%FSLAX35Y35*%
*
*
*
*
G04 PC Standard Apertures*
*
*
G04 Thermal Relief Aperture macro.*
%AMTER*
1,1,$1,0,0*
1,0,$1-$2,0,0*
21,0,$3,$4,0,0,45*
21,0,$3,$4,0,0,135*
%
*
*
G04 Annular Aperture macro.*
%AMANN*
1,1,$1,0,0*
1,0,$2,0,0*
%
*
*
G04 Odd Aperture macro.*
%AMODD*
1,1,$1,0,0*
1,0,$1-0.005,0,0*
%
*
*
G04 PC Custom Aperture Macros*
*
*
*
*
*
*
G04 PC Aperture Table*
*
%ADD024C,0.001*%
%ADD025C,0.01*%
%ADD029C,0.005*%
%ADD036C,0.008*%
*
*
*
*
G04 PC Circuitry*
G04 Layer Name CLKHUB.pcb - circuitry*
%LPD*%
*
*
G04 PC Custom Flashes*
G04 Layer Name CLKHUB.pcb - flashes*
%LPD*%
*
*
G04 PC Circuitry*
G04 Layer Name CLKHUB.pcb - circuitry*
%LPD*%
*
G54D24*
G54D25*
G01X221127Y269600D02*
X220945Y270100D01*
X220582Y270600*
X220218Y270850*
X219491*
X219127Y270600*
X218764Y270100*
X218582Y269600*
X218400Y268850*
Y267600*
X218582Y266850*
X218764Y266350*
X219127Y265850*
X219491Y265600*
X220218*
X220582Y265850*
X220945Y266350*
X221127Y266850*
X222764Y270850D02*
Y265600D01*
X224945*
X226582Y270850D02*
Y265600D01*
X229127Y270850D02*
X226582Y267350D01*
X227491Y268600D02*
X229127Y265600D01*
X230764Y270850D02*
Y265600D01*
X233309Y270850D02*
Y265600D01*
X230764Y268350D02*
X233309D01*
X234945Y270850D02*
Y267100D01*
X235127Y266350*
X235491Y265850*
X236036Y265600*
X236400*
X236945Y265850*
X237309Y266350*
X237491Y267100*
Y270850*
X239127D02*
Y265600D01*
Y270850D02*
X240764D01*
X241309Y270600*
X241491Y270350*
X241673Y269850*
Y269350*
X241491Y268850*
X241309Y268600*
X240764Y268350*
X239127D02*
X240764D01*
X241309Y268100*
X241491Y267850*
X241673Y267350*
Y266600*
X241491Y266100*
X241309Y265850*
X240764Y265600*
X239127*
X244400Y270850D02*
X243855Y270600D01*
X243491Y269850*
X243309Y268600*
Y267850*
X243491Y266600*
X243855Y265850*
X244400Y265600*
X244764*
X245309Y265850*
X245673Y266600*
X245855Y267850*
Y268600*
X245673Y269850*
X245309Y270600*
X244764Y270850*
X244400*
X247673Y269600D02*
Y269850D01*
X247855Y270350*
X248036Y270600*
X248400Y270850*
X249127*
X249491Y270600*
X249673Y270350*
X249855Y269850*
Y269350*
X249673Y268850*
X249309Y268100*
X247491Y265600*
X250036*
X253127Y270850D02*
X251673Y265600D01*
X253127Y270850D02*
X254582Y265600D01*
X252218Y267350D02*
X254036D01*
X285327Y308800D02*
X285145Y309300D01*
X284782Y309800*
X284418Y310050*
X283691*
X283327Y309800*
X282964Y309300*
X282782Y308800*
X282600Y308050*
Y306800*
X282782Y306050*
X282964Y305550*
X283327Y305050*
X283691Y304800*
X284418*
X284782Y305050*
X285145Y305550*
X285327Y306050*
X286964Y310050D02*
Y304800D01*
X289145*
X290782Y310050D02*
Y304800D01*
X293327Y310050D02*
X290782Y306550D01*
X291691Y307800D02*
X293327Y304800D01*
X299145Y310050D02*
X299327Y309800D01*
X299509Y310050*
X299327Y310300*
X299145Y310050*
X299327Y308300D02*
Y304800D01*
X301145Y308300D02*
Y304800D01*
Y307300D02*
X301691Y308050D01*
X302055Y308300*
X302600*
X302964Y308050*
X303145Y307300*
Y304800*
X304782Y308300D02*
Y303050D01*
Y307550D02*
X305145Y308050D01*
X305509Y308300*
X306055*
X306418Y308050*
X306782Y307550*
X306964Y306800*
Y306300*
X306782Y305550*
X306418Y305050*
X306055Y304800*
X305509*
X305145Y305050*
X304782Y305550*
X308600Y308300D02*
Y305800D01*
X308782Y305050*
X309145Y304800*
X309691*
X310055Y305050*
X310600Y305800*
Y308300D02*
Y304800D01*
X312782Y310050D02*
Y305800D01*
X312964Y305050*
X313327Y304800*
X313691*
X312236Y308300D02*
X313509D01*
X305727Y277600D02*
X305545Y278100D01*
X305182Y278600*
X304818Y278850*
X304091*
X303727Y278600*
X303364Y278100*
X303182Y277600*
X303000Y276850*
Y275600*
X303182Y274850*
X303364Y274350*
X303727Y273850*
X304091Y273600*
X304818*
X305182Y273850*
X305545Y274350*
X305727Y274850*
X307364Y278850D02*
Y273600D01*
X309545*
X311182Y278850D02*
Y273600D01*
X313727Y278850D02*
X311182Y275350D01*
X312091Y276600D02*
X313727Y273600D01*
X316455Y278850D02*
X315909Y278600D01*
X315545Y277850*
X315364Y276600*
Y275850*
X315545Y274600*
X315909Y273850*
X316455Y273600*
X316818*
X317364Y273850*
X317727Y274600*
X317909Y275850*
Y276600*
X317727Y277850*
X317364Y278600*
X316818Y278850*
X316455*
X284127Y278000D02*
X283945Y278500D01*
X283582Y279000*
X283218Y279250*
X282491*
X282127Y279000*
X281764Y278500*
X281582Y278000*
X281400Y277250*
Y276000*
X281582Y275250*
X281764Y274750*
X282127Y274250*
X282491Y274000*
X283218*
X283582Y274250*
X283945Y274750*
X284127Y275250*
X285764Y279250D02*
Y274000D01*
X287945*
X289582Y279250D02*
Y274000D01*
X292127Y279250D02*
X289582Y275750D01*
X290491Y277000D02*
X292127Y274000D01*
X293764Y278250D02*
X294127Y278500D01*
X294673Y279250*
Y274000*
X315091Y269250D02*
X314545Y269000D01*
X314182Y268250*
X314000Y267000*
Y266250*
X314182Y265000*
X314545Y264250*
X315091Y264000*
X315455*
X316000Y264250*
X316364Y265000*
X316545Y266250*
Y267000*
X316364Y268250*
X316000Y269000*
X315455Y269250*
X315091*
X314600Y253250D02*
X314964Y253500D01*
X315509Y254250*
Y249000*
X345500Y202545D02*
X345000Y202182D01*
X344750Y201636*
Y200909*
X345000Y200364*
X345500Y200000*
X346000*
X346500Y200182*
X346750Y200364*
X347000Y200727*
X347500Y201818*
X347750Y202182*
X348000Y202364*
X348500Y202545*
X349250*
X349750Y202182*
X350000Y201636*
Y200909*
X349750Y200364*
X349250Y200000*
X344750Y204182D02*
X345000Y204364D01*
X344750Y204545*
X344500Y204364*
X344750Y204182*
X346500Y204364D02*
X350000D01*
X346500Y206182D02*
X350000D01*
X347500D02*
X346750Y206727D01*
X346500Y207091*
Y207636*
X346750Y208000*
X347500Y208182*
X350000*
X346500Y212000D02*
X350500D01*
X351250Y211818*
X351500Y211636*
X351750Y211273*
Y210727*
X351500Y210364*
X347250Y212000D02*
X346750Y211636D01*
X346500Y211273*
Y210727*
X346750Y210364*
X347250Y210000*
X348000Y209818*
X348500*
X349250Y210000*
X349750Y210364*
X350000Y210727*
Y211273*
X349750Y211636*
X349250Y212000*
X344750Y213636D02*
X350000D01*
X348000Y215273D02*
Y217455D01*
X347500*
X347000Y217273*
X346750Y217091*
X346500Y216727*
Y216182*
X346750Y215818*
X347250Y215455*
X348000Y215273*
X348500*
X349250Y215455*
X349750Y215818*
X350000Y216182*
Y216727*
X349750Y217091*
X349250Y217455*
X347750Y219091D02*
Y222364D01*
X348000Y224000D02*
Y226182D01*
X347500*
X347000Y226000*
X346750Y225818*
X346500Y225455*
Y224909*
X346750Y224545*
X347250Y224182*
X348000Y224000*
X348500*
X349250Y224182*
X349750Y224545*
X350000Y224909*
Y225455*
X349750Y225818*
X349250Y226182*
X346500Y227818D02*
X350000D01*
X347500D02*
X346750Y228364D01*
X346500Y228727*
Y229273*
X346750Y229636*
X347500Y229818*
X350000*
X344750Y233636D02*
X350000D01*
X347250D02*
X346750Y233273D01*
X346500Y232909*
Y232364*
X346750Y232000*
X347250Y231636*
X348000Y231455*
X348500*
X349250Y231636*
X349750Y232000*
X350000Y232364*
Y232909*
X349750Y233273*
X349250Y233636*
X348000Y235273D02*
Y237455D01*
X347500*
X347000Y237273*
X346750Y237091*
X346500Y236727*
Y236182*
X346750Y235818*
X347250Y235455*
X348000Y235273*
X348500*
X349250Y235455*
X349750Y235818*
X350000Y236182*
Y236727*
X349750Y237091*
X349250Y237455*
X344750Y241273D02*
X350000D01*
X347250D02*
X346750Y240909D01*
X346500Y240545*
Y240000*
X346750Y239636*
X347250Y239273*
X348000Y239091*
X348500*
X349250Y239273*
X349750Y239636*
X350000Y240000*
Y240545*
X349750Y240909*
X349250Y241273*
X276491Y348650D02*
X275945Y348400D01*
X275582Y347650*
X275400Y346400*
Y345650*
X275582Y344400*
X275945Y343650*
X276491Y343400*
X276855*
X277400Y343650*
X277764Y344400*
X277945Y345650*
Y346400*
X277764Y347650*
X277400Y348400*
X276855Y348650*
X276491*
X236600Y348250D02*
X236964Y348500D01*
X237509Y349250*
Y344000*
X221782Y348400D02*
Y348650D01*
X221964Y349150*
X222145Y349400*
X222509Y349650*
X223236*
X223600Y349400*
X223782Y349150*
X223964Y348650*
Y348150*
X223782Y347650*
X223418Y346900*
X221600Y344400*
X224145*
X168150Y320364D02*
Y322364D01*
X170150Y321273*
Y321818*
X170400Y322182*
X170650Y322364*
X171400Y322545*
X171900*
X172650Y322364*
X173150Y322000*
X173400Y321455*
Y320909*
X173150Y320364*
X172900Y320182*
X172400Y320000*
X167750Y282418D02*
X171250Y280600D01*
Y283327*
X167750Y282418D02*
X173000D01*
X167350Y222764D02*
Y220945D01*
X169600Y220764*
X169350Y220945*
X169100Y221491*
Y222036*
X169350Y222582*
X169850Y222945*
X170600Y223127*
X171100Y222945*
X171850Y222764*
X172350Y222400*
X172600Y221855*
Y221309*
X172350Y220764*
X172100Y220582*
X171600Y220400*
X168900Y182182D02*
X168400Y182000D01*
X168150Y181455*
Y181091*
X168400Y180545*
X169150Y180182*
X170400Y180000*
X171650*
X172650Y180182*
X173150Y180545*
X173400Y181091*
Y181273*
X173150Y181818*
X172650Y182182*
X171900Y182364*
X171650*
X170900Y182182*
X170400Y181818*
X170150Y181273*
Y181091*
X170400Y180545*
X170900Y180182*
X171650Y180000*
X224545Y175250D02*
X222727Y170000D01*
X222000Y175250D02*
X224545D01*
X262709Y175850D02*
X262164Y175600D01*
X261982Y175100*
Y174600*
X262164Y174100*
X262527Y173850*
X263255Y173600*
X263800Y173350*
X264164Y172850*
X264345Y172350*
Y171600*
X264164Y171100*
X263982Y170850*
X263436Y170600*
X262709*
X262164Y170850*
X261982Y171100*
X261800Y171600*
Y172350*
X261982Y172850*
X262345Y173350*
X262891Y173600*
X263618Y173850*
X263982Y174100*
X264164Y174600*
Y175100*
X263982Y175600*
X263436Y175850*
X262709*
X304364Y173500D02*
X304182Y172750D01*
X303818Y172250*
X303273Y172000*
X303091*
X302545Y172250*
X302182Y172750*
X302000Y173500*
Y173750*
X302182Y174500*
X302545Y175000*
X303091Y175250*
X303273*
X303818Y175000*
X304182Y174500*
X304364Y173500*
Y172250*
X304182Y171000*
X303818Y170250*
X303273Y170000*
X302909*
X302364Y170250*
X302182Y170750*
X218800Y253450D02*
Y248200D01*
X221345Y253450D02*
X218800Y249950D01*
X219709Y251200D02*
X221345Y248200D01*
X225164Y251700D02*
Y248200D01*
Y250950D02*
X224800Y251450D01*
X224436Y251700*
X223891*
X223527Y251450*
X223164Y250950*
X222982Y250200*
Y249700*
X223164Y248950*
X223527Y248450*
X223891Y248200*
X224436*
X224800Y248450*
X225164Y248950*
X226800Y253450D02*
Y248200D01*
X228618Y251700D02*
X226800Y249200D01*
X227527Y250200D02*
X228800Y248200D01*
X230436Y253450D02*
Y248200D01*
X232073Y253450D02*
X232255Y253200D01*
X232436Y253450*
X232255Y253700*
X232073Y253450*
X232255Y251700D02*
Y248200D01*
X234073Y253450D02*
Y248200D01*
X235891Y251700D02*
X234073Y249200D01*
X234800Y250200D02*
X236073Y248200D01*
X242073Y252200D02*
Y252450D01*
X242255Y252950*
X242436Y253200*
X242800Y253450*
X243527*
X243891Y253200*
X244073Y252950*
X244255Y252450*
Y251950*
X244073Y251450*
X243709Y250700*
X241891Y248200*
X244436*
X247164Y253450D02*
X246618Y253200D01*
X246255Y252450*
X246073Y251200*
Y250450*
X246255Y249200*
X246618Y248450*
X247164Y248200*
X247527*
X248073Y248450*
X248436Y249200*
X248618Y250450*
Y251200*
X248436Y252450*
X248073Y253200*
X247527Y253450*
X247164*
X250255Y252450D02*
X250618Y252700D01*
X251164Y253450*
Y248200*
X252800Y252450D02*
X253164Y252700D01*
X253709Y253450*
Y248200*
X217600Y260900D02*
X218327Y257400D01*
X219055Y260900D02*
X218327Y257400D01*
X219055Y260900D02*
X219782Y257400D01*
X220509Y260900D02*
X219782Y257400D01*
X222145Y260900D02*
X222873Y257400D01*
X223600Y260900D02*
X222873Y257400D01*
X223600Y260900D02*
X224327Y257400D01*
X225055Y260900D02*
X224327Y257400D01*
X226691Y260900D02*
X227418Y257400D01*
X228145Y260900D02*
X227418Y257400D01*
X228145Y260900D02*
X228873Y257400D01*
X229600Y260900D02*
X228873Y257400D01*
X231418Y257900D02*
X231236Y257650D01*
X231418Y257400*
X231600Y257650*
X231418Y257900*
X233236Y260900D02*
Y257400D01*
Y259900D02*
X233782Y260650D01*
X234145Y260900*
X234691*
X235055Y260650*
X235236Y259900*
Y257400*
Y259900D02*
X235782Y260650D01*
X236145Y260900*
X236691*
X237055Y260650*
X237236Y259900*
Y257400*
X238873Y262650D02*
Y257400D01*
X242691Y260900D02*
Y257400D01*
Y260150D02*
X242327Y260650D01*
X241964Y260900*
X241418*
X241055Y260650*
X240691Y260150*
X240509Y259400*
Y258900*
X240691Y258150*
X241055Y257650*
X241418Y257400*
X241964*
X242327Y257650*
X242691Y258150*
X244327Y262650D02*
Y257400D01*
Y260150D02*
X244691Y260650D01*
X245055Y260900*
X245600*
X245964Y260650*
X246327Y260150*
X246509Y259400*
Y258900*
X246327Y258150*
X245964Y257650*
X245600Y257400*
X245055*
X244691Y257650*
X244327Y258150*
X248327Y257900D02*
X248145Y257650D01*
X248327Y257400*
X248509Y257650*
X248327Y257900*
X252327Y260150D02*
X251964Y260650D01*
X251600Y260900*
X251055*
X250691Y260650*
X250327Y260150*
X250145Y259400*
Y258900*
X250327Y258150*
X250691Y257650*
X251055Y257400*
X251600*
X251964Y257650*
X252327Y258150*
X255964Y260900D02*
X253964Y257400D01*
Y260900D02*
X255964D01*
X253964Y257400D02*
X255964D01*
X330800Y356050D02*
Y350800D01*
Y356050D02*
X332436D01*
X332982Y355800*
X333164Y355550*
X333345Y355050*
Y354300*
X333164Y353800*
X332982Y353550*
X332436Y353300*
X330800*
X336073Y356050D02*
X335709Y355800D01*
X335345Y355300*
X335164Y354800*
X334982Y354050*
Y352800*
X335164Y352050*
X335345Y351550*
X335709Y351050*
X336073Y350800*
X336800*
X337164Y351050*
X337527Y351550*
X337709Y352050*
X337891Y352800*
Y354050*
X337709Y354800*
X337527Y355300*
X337164Y355800*
X336800Y356050*
X336073*
X339527D02*
X340436Y350800D01*
X341345Y356050D02*
X340436Y350800D01*
X341345Y356050D02*
X342255Y350800D01*
X343164Y356050D02*
X342255Y350800D01*
X344800Y356050D02*
Y350800D01*
Y356050D02*
X347164D01*
X344800Y353550D02*
X346255D01*
X344800Y350800D02*
X347164D01*
X348800Y356050D02*
Y350800D01*
Y356050D02*
X350436D01*
X350982Y355800*
X351164Y355550*
X351345Y355050*
Y354550*
X351164Y354050*
X350982Y353800*
X350436Y353550*
X348800*
X350073D02*
X351345Y350800D01*
X319950Y316364D02*
Y318364D01*
X321950Y317273*
Y317818*
X322200Y318182*
X322450Y318364*
X323200Y318545*
X323700*
X324450Y318364*
X324950Y318000*
X325200Y317455*
Y316909*
X324950Y316364*
X324700Y316182*
X324200Y316000*
X324950Y320545D02*
X325200Y320364D01*
X324950Y320182*
X324700Y320364*
X324950Y320545*
X325450*
X325950Y320364*
X326200Y320182*
X319950Y322545D02*
Y324545D01*
X321950Y323455*
Y324000*
X322200Y324364*
X322450Y324545*
X323200Y324727*
X323700*
X324450Y324545*
X324950Y324182*
X325200Y323636*
Y323091*
X324950Y322545*
X324700Y322364*
X324200Y322182*
X319950Y326364D02*
X325200Y327818D01*
X319950Y329273D02*
X325200Y327818D01*
X321700Y335091D02*
X325200D01*
X322700D02*
X321950Y335636D01*
X321700Y336000*
Y336545*
X321950Y336909*
X322700Y337091*
X325200*
X322700D02*
X321950Y337636D01*
X321700Y338000*
Y338545*
X321950Y338909*
X322700Y339091*
X325200*
X321700Y342909D02*
X325200D01*
X322450D02*
X321950Y342545D01*
X321700Y342182*
Y341636*
X321950Y341273*
X322450Y340909*
X323200Y340727*
X323700*
X324450Y340909*
X324950Y341273*
X325200Y341636*
Y342182*
X324950Y342545*
X324450Y342909*
X321700Y344545D02*
X325200Y346545D01*
X321700D02*
X325200Y344545D01*
X319950Y348364D02*
X323450D01*
X324700D02*
X324950Y348182D01*
X325200Y348364*
X324950Y348545*
X324700Y348364*
X311200Y210927D02*
X310700Y210745D01*
X310200Y210382*
X309950Y210018*
Y209291*
X310200Y208927*
X310700Y208564*
X311200Y208382*
X311950Y208200*
X313200*
X313950Y208382*
X314450Y208564*
X314950Y208927*
X315200Y209291*
Y210018*
X314950Y210382*
X314450Y210745*
X313950Y210927*
X309950Y212564D02*
X315200D01*
X311700Y215109D02*
X311950Y214745D01*
X312450Y214382*
X313200Y214200*
X313700*
X314450Y214382*
X314950Y214745*
X315200Y215109*
Y215655*
X314950Y216018*
X314450Y216382*
X313700Y216564*
X313200*
X312450Y216382*
X311950Y216018*
X311700Y215655*
Y215109*
X312450Y220382D02*
X311950Y220018D01*
X311700Y219655*
Y219109*
X311950Y218745*
X312450Y218382*
X313200Y218200*
X313700*
X314450Y218382*
X314950Y218745*
X315200Y219109*
Y219655*
X314950Y220018*
X314450Y220382*
X309950Y222018D02*
X315200D01*
X311700Y223836D02*
X314200Y222018D01*
X313200Y222745D02*
X315200Y224018D01*
X309950Y229836D02*
X310200Y230018D01*
X309950Y230200*
X309700Y230018*
X309950Y229836*
X311700Y230018D02*
X315200D01*
X311700Y231836D02*
X315200D01*
X312700D02*
X311950Y232382D01*
X311700Y232745*
Y233291*
X311950Y233655*
X312700Y233836*
X315200*
X311700Y235473D02*
X316950D01*
X312450D02*
X311950Y235836D01*
X311700Y236200*
Y236745*
X311950Y237109*
X312450Y237473*
X313200Y237655*
X313700*
X314450Y237473*
X314950Y237109*
X315200Y236745*
Y236200*
X314950Y235836*
X314450Y235473*
X311700Y239291D02*
X314200D01*
X314950Y239473*
X315200Y239836*
Y240382*
X314950Y240745*
X314200Y241291*
X311700D02*
X315200D01*
X309950Y243473D02*
X314200D01*
X314950Y243655*
X315200Y244018*
Y244382*
X311700Y242927D02*
Y244200D01*
X274600Y361327D02*
X274100Y361145D01*
X273600Y360782*
X273350Y360418*
Y359691*
X273600Y359327*
X274100Y358964*
X274600Y358782*
X275350Y358600*
X276600*
X277350Y358782*
X277850Y358964*
X278350Y359327*
X278600Y359691*
Y360418*
X278350Y360782*
X277850Y361145*
X277350Y361327*
X273350Y362964D02*
X278600D01*
Y365145*
X273350Y366782D02*
X278600D01*
X273350Y369327D02*
X276850Y366782D01*
X275600Y367691D02*
X278600Y369327D01*
X273350Y376236D02*
X273600Y375873D01*
X274100Y375509*
X274600Y375327*
X275350Y375145*
X276600*
X277350Y375327*
X277850Y375509*
X278350Y375873*
X278600Y376236*
Y376964*
X278350Y377327*
X277850Y377691*
X277350Y377873*
X276600Y378055*
X275350*
X274600Y377873*
X274100Y377691*
X273600Y377327*
X273350Y376964*
Y376236*
Y379691D02*
X277100D01*
X277850Y379873*
X278350Y380236*
X278600Y380782*
Y381145*
X278350Y381691*
X277850Y382055*
X277100Y382236*
X273350*
Y385145D02*
X278600D01*
X273350Y383873D02*
Y386418D01*
X233800Y360727D02*
X233300Y360545D01*
X232800Y360182*
X232550Y359818*
Y359091*
X232800Y358727*
X233300Y358364*
X233800Y358182*
X234550Y358000*
X235800*
X236550Y358182*
X237050Y358364*
X237550Y358727*
X237800Y359091*
Y359818*
X237550Y360182*
X237050Y360545*
X236550Y360727*
X232550Y362364D02*
X237800D01*
Y364545*
X232550Y366182D02*
X237800D01*
X232550Y368727D02*
X236050Y366182D01*
X234800Y367091D02*
X237800Y368727D01*
X232550Y375636D02*
X232800Y375273D01*
X233300Y374909*
X233800Y374727*
X234550Y374545*
X235800*
X236550Y374727*
X237050Y374909*
X237550Y375273*
X237800Y375636*
Y376364*
X237550Y376727*
X237050Y377091*
X236550Y377273*
X235800Y377455*
X234550*
X233800Y377273*
X233300Y377091*
X232800Y376727*
X232550Y376364*
Y375636*
Y379091D02*
X236300D01*
X237050Y379273*
X237550Y379636*
X237800Y380182*
Y380545*
X237550Y381091*
X237050Y381455*
X236300Y381636*
X232550*
Y384545D02*
X237800D01*
X232550Y383273D02*
Y385818D01*
X194600Y361327D02*
X194100Y361145D01*
X193600Y360782*
X193350Y360418*
Y359691*
X193600Y359327*
X194100Y358964*
X194600Y358782*
X195350Y358600*
X196600*
X197350Y358782*
X197850Y358964*
X198350Y359327*
X198600Y359691*
Y360418*
X198350Y360782*
X197850Y361145*
X197350Y361327*
X193350Y362964D02*
X198600D01*
Y365145*
X193350Y366782D02*
X198600D01*
X193350Y369327D02*
X196850Y366782D01*
X195600Y367691D02*
X198600Y369327D01*
X193350Y376236D02*
X193600Y375873D01*
X194100Y375509*
X194600Y375327*
X195350Y375145*
X196600*
X197350Y375327*
X197850Y375509*
X198350Y375873*
X198600Y376236*
Y376964*
X198350Y377327*
X197850Y377691*
X197350Y377873*
X196600Y378055*
X195350*
X194600Y377873*
X194100Y377691*
X193600Y377327*
X193350Y376964*
Y376236*
Y379691D02*
X197100D01*
X197850Y379873*
X198350Y380236*
X198600Y380782*
Y381145*
X198350Y381691*
X197850Y382055*
X197100Y382236*
X193350*
Y385145D02*
X198600D01*
X193350Y383873D02*
Y386418D01*
X274000Y154327D02*
X273500Y154145D01*
X273000Y153782*
X272750Y153418*
Y152691*
X273000Y152327*
X273500Y151964*
X274000Y151782*
X274750Y151600*
X276000*
X276750Y151782*
X277250Y151964*
X277750Y152327*
X278000Y152691*
Y153418*
X277750Y153782*
X277250Y154145*
X276750Y154327*
X272750Y155964D02*
X278000D01*
Y158145*
X272750Y159782D02*
X278000D01*
X272750Y162327D02*
X276250Y159782D01*
X275000Y160691D02*
X278000Y162327D01*
X272750Y169236D02*
X273000Y168873D01*
X273500Y168509*
X274000Y168327*
X274750Y168145*
X276000*
X276750Y168327*
X277250Y168509*
X277750Y168873*
X278000Y169236*
Y169964*
X277750Y170327*
X277250Y170691*
X276750Y170873*
X276000Y171055*
X274750*
X274000Y170873*
X273500Y170691*
X273000Y170327*
X272750Y169964*
Y169236*
Y172691D02*
X276500D01*
X277250Y172873*
X277750Y173236*
X278000Y173782*
Y174145*
X277750Y174691*
X277250Y175055*
X276500Y175236*
X272750*
Y178145D02*
X278000D01*
X272750Y176873D02*
Y179418D01*
X234000Y153127D02*
X233500Y152945D01*
X233000Y152582*
X232750Y152218*
Y151491*
X233000Y151127*
X233500Y150764*
X234000Y150582*
X234750Y150400*
X236000*
X236750Y150582*
X237250Y150764*
X237750Y151127*
X238000Y151491*
Y152218*
X237750Y152582*
X237250Y152945*
X236750Y153127*
X232750Y154764D02*
X238000D01*
Y156945*
X232750Y158582D02*
X238000D01*
X232750Y161127D02*
X236250Y158582D01*
X235000Y159491D02*
X238000Y161127D01*
X232750Y168036D02*
X233000Y167673D01*
X233500Y167309*
X234000Y167127*
X234750Y166945*
X236000*
X236750Y167127*
X237250Y167309*
X237750Y167673*
X238000Y168036*
Y168764*
X237750Y169127*
X237250Y169491*
X236750Y169673*
X236000Y169855*
X234750*
X234000Y169673*
X233500Y169491*
X233000Y169127*
X232750Y168764*
Y168036*
Y171491D02*
X236500D01*
X237250Y171673*
X237750Y172036*
X238000Y172582*
Y172945*
X237750Y173491*
X237250Y173855*
X236500Y174036*
X232750*
Y176945D02*
X238000D01*
X232750Y175673D02*
Y178218D01*
X194600Y153527D02*
X194100Y153345D01*
X193600Y152982*
X193350Y152618*
Y151891*
X193600Y151527*
X194100Y151164*
X194600Y150982*
X195350Y150800*
X196600*
X197350Y150982*
X197850Y151164*
X198350Y151527*
X198600Y151891*
Y152618*
X198350Y152982*
X197850Y153345*
X197350Y153527*
X193350Y155164D02*
X198600D01*
Y157345*
X193350Y158982D02*
X198600D01*
X193350Y161527D02*
X196850Y158982D01*
X195600Y159891D02*
X198600Y161527D01*
X193350Y168436D02*
X193600Y168073D01*
X194100Y167709*
X194600Y167527*
X195350Y167345*
X196600*
X197350Y167527*
X197850Y167709*
X198350Y168073*
X198600Y168436*
Y169164*
X198350Y169527*
X197850Y169891*
X197350Y170073*
X196600Y170255*
X195350*
X194600Y170073*
X194100Y169891*
X193600Y169527*
X193350Y169164*
Y168436*
Y171891D02*
X197100D01*
X197850Y172073*
X198350Y172436*
X198600Y172982*
Y173345*
X198350Y173891*
X197850Y174255*
X197100Y174436*
X193350*
Y177345D02*
X198600D01*
X193350Y176073D02*
Y178618D01*
X154727Y254000D02*
X154545Y254500D01*
X154182Y255000*
X153818Y255250*
X153091*
X152727Y255000*
X152364Y254500*
X152182Y254000*
X152000Y253250*
Y252000*
X152182Y251250*
X152364Y250750*
X152727Y250250*
X153091Y250000*
X153818*
X154182Y250250*
X154545Y250750*
X154727Y251250*
X156364Y255250D02*
Y250000D01*
X158545*
X160182Y255250D02*
Y250000D01*
X162727Y255250D02*
X160182Y251750D01*
X161091Y253000D02*
X162727Y250000D01*
X169636Y255250D02*
X169273Y255000D01*
X168909Y254500*
X168727Y254000*
X168545Y253250*
Y252000*
X168727Y251250*
X168909Y250750*
X169273Y250250*
X169636Y250000*
X170364*
X170727Y250250*
X171091Y250750*
X171273Y251250*
X171455Y252000*
Y253250*
X171273Y254000*
X171091Y254500*
X170727Y255000*
X170364Y255250*
X169636*
X173091D02*
Y251500D01*
X173273Y250750*
X173636Y250250*
X174182Y250000*
X174545*
X175091Y250250*
X175455Y250750*
X175636Y251500*
Y255250*
X178545D02*
Y250000D01*
X177273Y255250D02*
X179818D01*
X154727Y212000D02*
X154545Y212500D01*
X154182Y213000*
X153818Y213250*
X153091*
X152727Y213000*
X152364Y212500*
X152182Y212000*
X152000Y211250*
Y210000*
X152182Y209250*
X152364Y208750*
X152727Y208250*
X153091Y208000*
X153818*
X154182Y208250*
X154545Y208750*
X154727Y209250*
X156364Y213250D02*
Y208000D01*
X158545*
X160182Y213250D02*
Y208000D01*
X162727Y213250D02*
X160182Y209750D01*
X161091Y211000D02*
X162727Y208000D01*
X169636Y213250D02*
X169273Y213000D01*
X168909Y212500*
X168727Y212000*
X168545Y211250*
Y210000*
X168727Y209250*
X168909Y208750*
X169273Y208250*
X169636Y208000*
X170364*
X170727Y208250*
X171091Y208750*
X171273Y209250*
X171455Y210000*
Y211250*
X171273Y212000*
X171091Y212500*
X170727Y213000*
X170364Y213250*
X169636*
X173091D02*
Y209500D01*
X173273Y208750*
X173636Y208250*
X174182Y208000*
X174545*
X175091Y208250*
X175455Y208750*
X175636Y209500*
Y213250*
X178545D02*
Y208000D01*
X177273Y213250D02*
X179818D01*
X154727Y310000D02*
X154545Y310500D01*
X154182Y311000*
X153818Y311250*
X153091*
X152727Y311000*
X152364Y310500*
X152182Y310000*
X152000Y309250*
Y308000*
X152182Y307250*
X152364Y306750*
X152727Y306250*
X153091Y306000*
X153818*
X154182Y306250*
X154545Y306750*
X154727Y307250*
X156364Y311250D02*
Y306000D01*
X158545*
X160182Y311250D02*
Y306000D01*
X162727Y311250D02*
X160182Y307750D01*
X161091Y309000D02*
X162727Y306000D01*
X169636Y311250D02*
X169273Y311000D01*
X168909Y310500*
X168727Y310000*
X168545Y309250*
Y308000*
X168727Y307250*
X168909Y306750*
X169273Y306250*
X169636Y306000*
X170364*
X170727Y306250*
X171091Y306750*
X171273Y307250*
X171455Y308000*
Y309250*
X171273Y310000*
X171091Y310500*
X170727Y311000*
X170364Y311250*
X169636*
X173091D02*
Y307500D01*
X173273Y306750*
X173636Y306250*
X174182Y306000*
X174545*
X175091Y306250*
X175455Y306750*
X175636Y307500*
Y311250*
X178545D02*
Y306000D01*
X177273Y311250D02*
X179818D01*
X150727Y352000D02*
X150545Y352500D01*
X150182Y353000*
X149818Y353250*
X149091*
X148727Y353000*
X148364Y352500*
X148182Y352000*
X148000Y351250*
Y350000*
X148182Y349250*
X148364Y348750*
X148727Y348250*
X149091Y348000*
X149818*
X150182Y348250*
X150545Y348750*
X150727Y349250*
X152364Y353250D02*
Y348000D01*
X154545*
X156182Y353250D02*
Y348000D01*
X158727Y353250D02*
X156182Y349750D01*
X157091Y351000D02*
X158727Y348000D01*
X165636Y353250D02*
X165273Y353000D01*
X164909Y352500*
X164727Y352000*
X164545Y351250*
Y350000*
X164727Y349250*
X164909Y348750*
X165273Y348250*
X165636Y348000*
X166364*
X166727Y348250*
X167091Y348750*
X167273Y349250*
X167455Y350000*
Y351250*
X167273Y352000*
X167091Y352500*
X166727Y353000*
X166364Y353250*
X165636*
X169091D02*
Y349500D01*
X169273Y348750*
X169636Y348250*
X170182Y348000*
X170545*
X171091Y348250*
X171455Y348750*
X171636Y349500*
Y353250*
X174545D02*
Y348000D01*
X173273Y353250D02*
X175818D01*
X290800Y298150D02*
X290618Y298650D01*
X290073Y298900*
X289527*
X288982Y298650*
X288800Y298150*
X288982Y297650*
X289345Y297400*
X290255Y297150*
X290618Y296900*
X290800Y296400*
Y296150*
X290618Y295650*
X290073Y295400*
X289527*
X288982Y295650*
X288800Y296150*
X292436Y297400D02*
X294618D01*
Y297900*
X294436Y298400*
X294255Y298650*
X293891Y298900*
X293345*
X292982Y298650*
X292618Y298150*
X292436Y297400*
Y296900*
X292618Y296150*
X292982Y295650*
X293345Y295400*
X293891*
X294255Y295650*
X294618Y296150*
X296255Y300650D02*
Y295400D01*
X297891Y297400D02*
X300073D01*
Y297900*
X299891Y298400*
X299709Y298650*
X299345Y298900*
X298800*
X298436Y298650*
X298073Y298150*
X297891Y297400*
Y296900*
X298073Y296150*
X298436Y295650*
X298800Y295400*
X299345*
X299709Y295650*
X300073Y296150*
X303891Y298150D02*
X303527Y298650D01*
X303164Y298900*
X302618*
X302255Y298650*
X301891Y298150*
X301709Y297400*
Y296900*
X301891Y296150*
X302255Y295650*
X302618Y295400*
X303164*
X303527Y295650*
X303891Y296150*
X306073Y300650D02*
Y296400D01*
X306255Y295650*
X306618Y295400*
X306982*
X305527Y298900D02*
X306800D01*
X300750Y210782D02*
X306000D01*
X303250D02*
X302750Y210418D01*
X302500Y210055*
Y209509*
X302750Y209145*
X303250Y208782*
X304000Y208600*
X304500*
X305250Y208782*
X305750Y209145*
X306000Y209509*
Y210055*
X305750Y210418*
X305250Y210782*
X300750Y212418D02*
X301000Y212600D01*
X300750Y212782*
X300500Y212600*
X300750Y212418*
X302500Y212600D02*
X306000D01*
X300750Y215873D02*
Y215509D01*
X301000Y215145*
X301750Y214964*
X306000*
X302500Y214418D02*
Y215691D01*
X300750Y218964D02*
Y218600D01*
X301000Y218236*
X301750Y218055*
X306000*
X302500Y217509D02*
Y218782D01*
X304000Y220600D02*
Y222782D01*
X303500*
X303000Y222600*
X302750Y222418*
X302500Y222055*
Y221509*
X302750Y221145*
X303250Y220782*
X304000Y220600*
X304500*
X305250Y220782*
X305750Y221145*
X306000Y221509*
Y222055*
X305750Y222418*
X305250Y222782*
X302500Y224418D02*
X306000D01*
X304000D02*
X303250Y224600D01*
X302750Y224964*
X302500Y225327*
Y225873*
X304000Y227509D02*
Y229691D01*
X303500*
X303000Y229509*
X302750Y229327*
X302500Y228964*
Y228418*
X302750Y228055*
X303250Y227691*
X304000Y227509*
X304500*
X305250Y227691*
X305750Y228055*
X306000Y228418*
Y228964*
X305750Y229327*
X305250Y229691*
X302500Y231327D02*
X306000D01*
X303500D02*
X302750Y231873D01*
X302500Y232236*
Y232782*
X302750Y233145*
X303500Y233327*
X306000*
X300750Y235509D02*
X305000D01*
X305750Y235691*
X306000Y236055*
Y236418*
X302500Y234964D02*
Y236236D01*
X300750Y238055D02*
X301000Y238236D01*
X300750Y238418*
X300500Y238236*
X300750Y238055*
X302500Y238236D02*
X306000D01*
X302500Y242236D02*
X306000D01*
X303250D02*
X302750Y241873D01*
X302500Y241509*
Y240964*
X302750Y240600*
X303250Y240236*
X304000Y240055*
X304500*
X305250Y240236*
X305750Y240600*
X306000Y240964*
Y241509*
X305750Y241873*
X305250Y242236*
X300750Y243873D02*
X306000D01*
G54D29*
X320719Y254936D02*
X323219D01*
X323687Y254823*
X323687D02*
X323844Y254709D01*
X324000Y254482*
Y254255*
X323844Y254027*
X323687Y253914*
X323687D02*
X323219Y253800D01*
X322906*
X321344Y255959D02*
X321187Y256186D01*
X321187D02*
X320719Y256527D01*
X324000*
X241719Y160936D02*
X244219D01*
X244687Y160823*
X244687D02*
X244844Y160709D01*
X245000Y160482*
Y160255*
X244844Y160027*
X244687Y159914*
X244687D02*
X244219Y159800D01*
X243906*
X242344Y161959D02*
X242187Y162186D01*
X242187D02*
X241719Y162527D01*
X245000*
X241719Y164232D02*
X241875Y163891D01*
X242344Y163664*
X243125Y163550*
X243594*
X244375Y163664*
X244844Y163891*
X245000Y164232*
Y164459*
X244844Y164800*
X244375Y165027*
X243594Y165141*
X243125*
X242344Y165027*
X241875Y164800*
X241719Y164459*
Y164232*
X281719Y160936D02*
X284219D01*
X284687Y160823*
X284687D02*
X284844Y160709D01*
X285000Y160482*
Y160255*
X284844Y160027*
X284687Y159914*
X284687D02*
X284219Y159800D01*
X283906*
X282344Y161959D02*
X282187Y162186D01*
X282187D02*
X281719Y162527D01*
X285000*
X282344Y163550D02*
X282187Y163777D01*
X282187D02*
X281719Y164118D01*
X285000*
X336132Y329224D02*
X339132D01*
X339695Y329088*
X339882Y328952*
X340070Y328679*
Y328406*
X339882Y328133*
X339695Y327997*
X339132Y327861*
X338757*
X336882Y330452D02*
X336695Y330724D01*
X336132Y331133*
X340070*
X337070Y332497D02*
X336882D01*
X336507Y332633*
X336320Y332770*
X336132Y333043*
Y333588*
X336320Y333861*
X336507Y333997*
X336882Y334133*
X337257*
X337632Y333997*
X338195Y333724*
X340070Y332361*
Y334270*
X301558Y284147D02*
Y287147D01*
X301695Y287710*
X301831Y287897*
X302104Y288085*
X302376*
X302649Y287897*
X302786Y287710*
X302922Y287147*
Y286772*
X300331Y284897D02*
X300058Y284710D01*
X299649Y284147*
Y288085*
X297058Y284147D02*
X298422Y286772D01*
X296376*
X297058Y284147D02*
Y288085D01*
X298281Y359064D02*
X295781D01*
X295313Y359177*
X295313D02*
X295156Y359291D01*
X295000Y359518*
Y359745*
X295156Y359973*
X295313Y360086*
X295313D02*
X295781Y360200D01*
X296094*
X297500Y357927D02*
X297656D01*
X297969Y357814*
X298125Y357700*
X298281Y357473*
Y357018*
X298125Y356791*
X297969Y356677*
X297656Y356564*
X297344*
X297031Y356677*
X296563Y356905*
X296563D02*
X295000Y358041D01*
Y356450*
X258281Y359064D02*
X255781D01*
X255313Y359177*
X255313D02*
X255156Y359291D01*
X255000Y359518*
Y359745*
X255156Y359973*
X255313Y360086*
X255313D02*
X255781Y360200D01*
X256094*
X258281Y357814D02*
Y356564D01*
X257031Y357245*
Y356905*
X256875Y356677*
X256719Y356564*
X256250Y356450*
X255938*
X255938D02*
X255469Y356564D01*
X255156Y356791*
X255000Y357132*
Y357473*
X255156Y357814*
X255313Y357927*
X255313D02*
X255625Y358041D01*
X218281Y359064D02*
X215781D01*
X215313Y359177*
X215313D02*
X215156Y359291D01*
X215000Y359518*
Y359745*
X215156Y359973*
X215313Y360086*
X215313D02*
X215781Y360200D01*
X216094*
X218281Y356905D02*
X216094Y358041D01*
Y356336*
X218281Y356905D02*
X215000D01*
X159036Y343281D02*
Y340781D01*
X158923Y340313*
X158923D02*
X158809Y340156D01*
X158582Y340000*
X158355*
X158127Y340156*
X158014Y340313*
X158014D02*
X157900Y340781D01*
Y341094*
X161536Y343281D02*
X160400D01*
X160286Y341875*
X160400Y342031*
X160741Y342188*
X160741D02*
X161082D01*
X161082D02*
X161423Y342031D01*
X161650Y341719*
X161764Y341250*
X161650Y340938*
X161650D02*
X161536Y340469D01*
X161309Y340156*
X160968Y340000*
X160627*
X160286Y340156*
X160173Y340313*
X160173D02*
X160059Y340625D01*
X159036Y303281D02*
Y300781D01*
X158923Y300313*
X158923D02*
X158809Y300156D01*
X158582Y300000*
X158355*
X158127Y300156*
X158014Y300313*
X158014D02*
X157900Y300781D01*
Y301094*
X161423Y302813D02*
X161309Y303125D01*
X160968Y303281*
X160741*
X160400Y303125*
X160173Y302656*
X160059Y301875*
Y301094*
X160173Y300469*
X160400Y300156*
X160741Y300000*
X160855*
X161195Y300156*
X161423Y300469*
X161536Y300938*
X161536D02*
Y301094D01*
X161423Y301563*
X161423D02*
X161195Y301875D01*
X160855Y302031*
X160741*
X160400Y301875*
X160173Y301563*
X160173D02*
X160059Y301094D01*
X159036Y243281D02*
Y240781D01*
X158923Y240313*
X158923D02*
X158809Y240156D01*
X158582Y240000*
X158355*
X158127Y240156*
X158014Y240313*
X158014D02*
X157900Y240781D01*
Y241094*
X161650Y243281D02*
X160514Y240000D01*
X160059Y243281D02*
X161650D01*
X159036Y203281D02*
Y200781D01*
X158923Y200313*
X158923D02*
X158809Y200156D01*
X158582Y200000*
X158355*
X158127Y200156*
X158014Y200313*
X158014D02*
X157900Y200781D01*
Y201094*
X160627Y203281D02*
X160286Y203125D01*
X160173Y202813*
X160173D02*
Y202500D01*
X160286Y202188*
X160286D02*
X160514Y202031D01*
X160968Y201875*
X161309Y201719*
X161536Y201406*
X161650Y201094*
Y200625*
X161536Y200313*
X161536D02*
X161423Y200156D01*
X161082Y200000*
X160627*
X160286Y200156*
X160173Y200313*
X160173D02*
X160059Y200625D01*
Y201094*
X160173Y201406*
X160400Y201719*
X160741Y201875*
X161195Y202031*
X161423Y202188*
X161423D02*
X161536Y202500D01*
Y202813*
X161536D02*
X161423Y203125D01*
X161082Y203281*
X160627*
X201719Y160936D02*
X204219D01*
X204687Y160823*
X204687D02*
X204844Y160709D01*
X205000Y160482*
Y160255*
X204844Y160027*
X204687Y159914*
X204687D02*
X204219Y159800D01*
X203906*
X202812Y163436D02*
X203281Y163323D01*
X203594Y163095*
X203750Y162755*
Y162641*
X203594Y162300*
X203281Y162073*
X202812Y161959*
X202812D02*
X202656D01*
X202187Y162073*
X202187D02*
X201875Y162300D01*
X201719Y162641*
Y162755*
X201875Y163095*
X202187Y163323*
X202187D02*
X202812Y163436D01*
X202812D02*
X203594D01*
X204375Y163323*
X204844Y163095*
X205000Y162755*
Y162527*
X204844Y162186*
X204531Y162073*
X137432Y382594D02*
Y378656D01*
Y382594D02*
X138523Y378656D01*
X139614Y382594D02*
X138523Y378656D01*
X139614Y382594D02*
Y378656D01*
X140841Y381844D02*
X141114Y382031D01*
X141523Y382594*
Y378656*
X136818Y142594D02*
Y138656D01*
Y142594D02*
X137909Y138656D01*
X139000Y142594D02*
X137909Y138656D01*
X139000Y142594D02*
Y138656D01*
X140364Y141656D02*
Y141844D01*
X140500Y142219*
X140636Y142406*
X140909Y142594*
X141455*
X141727Y142406*
X141864Y142219*
X142000Y141844*
Y141469*
X141864Y141094*
X141591Y140531*
X140227Y138656*
X142136*
X336818Y142594D02*
Y138656D01*
Y142594D02*
X337909Y138656D01*
X339000Y142594D02*
X337909Y138656D01*
X339000Y142594D02*
Y138656D01*
X340500Y142594D02*
X342000D01*
X341182Y141094*
X341591*
X341864Y140906*
X342000Y140719*
X342136Y140156*
Y139781*
X342000Y139219*
X341727Y138844*
X341318Y138656*
X340909*
X340500Y138844*
X340364Y139031*
X340227Y139406*
X336750Y382594D02*
Y378656D01*
Y382594D02*
X337841Y378656D01*
X338932Y382594D02*
X337841Y378656D01*
X338932Y382594D02*
Y378656D01*
X341523Y382594D02*
X340159Y379969D01*
X342205*
X341523Y382594D02*
Y378656D01*
X344255Y258606D02*
X347255D01*
X347817Y258469*
X348005Y258333*
X348192Y258060*
Y257788*
X348005Y257515*
X347817Y257379*
X347255Y257242*
X346880*
X345005Y259833D02*
X344817Y260106D01*
X344255Y260515*
X348192*
X344255Y263515D02*
Y262151D01*
X345942Y262015*
X345755Y262151*
X345567Y262560*
Y262969*
X345755Y263379*
X346130Y263651*
X346692Y263788*
X347067Y263651*
X347630Y263515*
X348005Y263242*
X348192Y262833*
Y262424*
X348005Y262015*
X347817Y261879*
X347442Y261742*
G54D36*
X328726Y316588D02*
Y346588D01*
X348726*
Y316588*
X328726*
X314126Y281741D02*
X284126D01*
Y291741*
X314126*
Y281741*
X341848Y246038D02*
Y276038D01*
X351848*
Y246038*
X341848*
X0Y0D02*
M02*
