*
*
G04 PowerPCB (Build Number 500.281.2.20) generated Gerber (RS-274-X) file*
G04 PC Version=2.1*
*
%IN "Untitled"*%
*
%MOIN*%
*
%FSLAX35Y35*%
*
*
*
*
G04 PC Standard Apertures*
*
*
G04 Thermal Relief Aperture macro.*
%AMTER*
1,1,$1,0,0*
1,0,$1-$2,0,0*
21,0,$3,$4,0,0,45*
21,0,$3,$4,0,0,135*
%
*
*
G04 Annular Aperture macro.*
%AMANN*
1,1,$1,0,0*
1,0,$2,0,0*
%
*
*
G04 Odd Aperture macro.*
%AMODD*
1,1,$1,0,0*
1,0,$1-0.005,0,0*
%
*
*
G04 PC Custom Aperture Macros*
*
*
*
*
*
*
G04 PC Aperture Table*
*
%ADD011C,0.06*%
%ADD022C,0.055*%
%ADD023C,0.007*%
%ADD030R,0.049X0.049*%
%ADD031C,0.07*%
%ADD032R,0.08X0.08*%
%ADD033C,0.24622*%
%ADD035C,0.065*%
%ADD042C,0.045*%
%ADD046C,0.08874*%
%ADD047C,0.09*%
%ADD048C,0.02339*%
*
*
*
*
G04 PC Custom Flashes*
G04 Layer Name Untitled - flashes*
%LPD*%
*
*
G04 PC Circuitry*
G04 Layer Name Untitled - circuitry*
%LPD*%
*
G54D11*
G01X00162500Y00185000D03*
X00482500Y00272500D03*
G54D22*
X00274500Y00218400D03*
Y00211600D03*
G54D23*
X00120000Y00120000D02*
Y00120500D01*
Y00120000D02*
X00120500D01*
X00120000D02*
Y00119500D01*
Y00120000D02*
X00119500D01*
X00121500D02*
X00126500D01*
X00120000Y00118500D02*
Y00115100D01*
Y00121500D02*
Y00126000D01*
X00114000Y00120000D02*
X00118500D01*
X00123000D02*
G75*
G03X00123000I-00003000D01*
G01X00122000D02*
G03X00122000I-00002000D01*
G01X00520000D02*
Y00120500D01*
Y00120000D02*
X00520500D01*
X00520000D02*
Y00119500D01*
Y00120000D02*
X00519500D01*
X00521500D02*
X00526500D01*
X00520000Y00118500D02*
Y00115100D01*
Y00121500D02*
Y00126000D01*
X00514000Y00120000D02*
X00518500D01*
X00523000D02*
G03X00523000I-00003000D01*
G01X00522000D02*
G03X00522000I-00002000D01*
G01X00520000Y00400000D02*
Y00400500D01*
Y00400000D02*
X00520500D01*
X00520000D02*
Y00399500D01*
Y00400000D02*
X00519500D01*
X00521500D02*
X00526500D01*
X00520000Y00398500D02*
Y00395100D01*
Y00401500D02*
Y00406000D01*
X00514000Y00400000D02*
X00518500D01*
X00523000D02*
G03X00523000I-00003000D01*
G01X00522000D02*
G03X00522000I-00002000D01*
G54D30*
G01X00213350Y00278800D02*
X00211650D01*
X00213350Y00271200D02*
X00211650D01*
X00479850Y00213800D02*
X00478150D01*
X00479850Y00206200D02*
X00478150D01*
X00489850Y00213800D02*
X00488150D01*
X00489850Y00206200D02*
X00488150D01*
X00321800Y00236350D02*
Y00234650D01*
X00329400Y00236350D02*
Y00234650D01*
X00368450Y00278100D02*
X00366750D01*
X00368450Y00270500D02*
X00366750D01*
X00311100Y00335550D02*
Y00333850D01*
X00318700Y00335550D02*
Y00333850D01*
X00316800Y00206250D02*
Y00207950D01*
X00309200Y00206250D02*
Y00207950D01*
X00243350Y00278800D02*
X00241650D01*
X00243350Y00271200D02*
X00241650D01*
X00223350Y00278800D02*
X00221650D01*
X00223350Y00271200D02*
X00221650D01*
X00253700Y00220850D02*
Y00219150D01*
X00261300Y00220850D02*
Y00219150D01*
X00469850Y00213800D02*
X00468150D01*
X00469850Y00206200D02*
X00468150D01*
X00465600Y00263800D02*
X00464400D01*
X00465600Y00256200D02*
X00464400D01*
X00160900Y00312100D02*
X00159700D01*
X00160900Y00304500D02*
X00159700D01*
X00469600Y00316800D02*
X00468400D01*
X00469600Y00309200D02*
X00468400D01*
X00479600Y00316800D02*
X00478400D01*
X00479600Y00309200D02*
X00478400D01*
X00489600Y00316800D02*
X00488400D01*
X00489600Y00309200D02*
X00488400D01*
X00253700Y00210850D02*
Y00209150D01*
X00261300Y00210850D02*
Y00209150D01*
G54D31*
X00250858Y00273500D03*
X00231141D03*
X00241000Y00335500D03*
G54D32*
X00445000Y00355000D03*
X00455000D03*
X00445000Y00265000D03*
X00455000D03*
X00170000Y00220000D03*
X00160000D03*
X00150000D03*
X00170000Y00210000D03*
X00160000D03*
X00150000D03*
X00164000Y00245000D03*
Y00255000D03*
Y00265000D03*
Y00285000D03*
Y00295000D03*
X00282500Y00242500D03*
Y00232500D03*
X00272500Y00242500D03*
Y00232500D03*
X00469000Y00230000D03*
Y00190000D03*
X00479000Y00230000D03*
Y00190000D03*
X00445000Y00255000D03*
X00455000D03*
X00489000Y00230000D03*
Y00190000D03*
X00469000Y00333000D03*
Y00293000D03*
X00479000Y00333000D03*
Y00293000D03*
X00489000Y00333000D03*
Y00293000D03*
X00445000Y00245000D03*
X00455000D03*
X00445000Y00235000D03*
X00455000D03*
X00445000Y00225000D03*
X00455000D03*
X00445000Y00215000D03*
X00455000D03*
X00445000Y00205000D03*
X00455000D03*
X00445000Y00195000D03*
X00455000D03*
X00445000Y00185000D03*
X00455000D03*
X00445000Y00175000D03*
X00455000D03*
X00445000Y00345000D03*
X00455000D03*
X00445000Y00165000D03*
X00455000D03*
X00415000Y00155000D03*
Y00165000D03*
X00405000Y00155000D03*
Y00165000D03*
X00395000Y00155000D03*
Y00165000D03*
X00385000Y00155000D03*
Y00165000D03*
X00375000Y00155000D03*
Y00165000D03*
X00365000Y00155000D03*
Y00165000D03*
X00355000Y00155000D03*
Y00165000D03*
X00345000Y00155000D03*
Y00165000D03*
X00335000Y00155000D03*
Y00165000D03*
X00445000Y00335000D03*
X00455000D03*
X00325000Y00155000D03*
Y00165000D03*
X00315000Y00155000D03*
Y00165000D03*
X00305000Y00155000D03*
Y00165000D03*
X00295000Y00155000D03*
Y00165000D03*
X00285000Y00155000D03*
Y00165000D03*
X00275000Y00155000D03*
Y00165000D03*
X00265000Y00155000D03*
Y00165000D03*
X00255000Y00155000D03*
Y00165000D03*
X00245000Y00155000D03*
Y00165000D03*
X00235000Y00155000D03*
Y00165000D03*
X00445000Y00325000D03*
X00455000D03*
X00225000Y00155000D03*
Y00165000D03*
X00185000Y00170000D03*
X00195000D03*
X00185000Y00180000D03*
X00195000D03*
X00185000Y00190000D03*
X00195000D03*
X00185000Y00200000D03*
X00195000D03*
X00185000Y00210000D03*
X00195000D03*
X00185000Y00220000D03*
X00195000D03*
X00185000Y00230000D03*
X00195000D03*
X00185000Y00240000D03*
X00195000D03*
X00185000Y00250000D03*
X00195000D03*
X00445000Y00315000D03*
X00455000D03*
X00185000Y00260000D03*
X00195000D03*
X00185000Y00270000D03*
X00195000D03*
X00185000Y00280000D03*
X00195000D03*
X00185000Y00290000D03*
X00195000D03*
X00185000Y00300000D03*
X00195000D03*
X00185000Y00310000D03*
X00195000D03*
X00185000Y00320000D03*
X00195000D03*
X00185000Y00330000D03*
X00195000D03*
X00185000Y00340000D03*
X00195000D03*
X00185000Y00350000D03*
X00195000D03*
X00445000Y00305000D03*
X00455000D03*
X00185000Y00360000D03*
X00195000D03*
X00225000Y00355000D03*
Y00365000D03*
X00235000Y00355000D03*
Y00365000D03*
X00245000Y00355000D03*
Y00365000D03*
X00255000Y00355000D03*
Y00365000D03*
X00265000Y00355000D03*
Y00365000D03*
X00275000Y00355000D03*
Y00365000D03*
X00285000Y00355000D03*
Y00365000D03*
X00295000Y00355000D03*
Y00365000D03*
X00305000Y00355000D03*
Y00365000D03*
X00445000Y00295000D03*
X00455000D03*
X00315000Y00355000D03*
Y00365000D03*
X00325000Y00355000D03*
Y00365000D03*
X00335000Y00355000D03*
Y00365000D03*
X00345000Y00355000D03*
Y00365000D03*
X00355000Y00355000D03*
Y00365000D03*
X00365000Y00355000D03*
Y00365000D03*
X00375000Y00355000D03*
Y00365000D03*
X00385000Y00355000D03*
Y00365000D03*
X00395000Y00355000D03*
Y00365000D03*
X00405000Y00355000D03*
Y00365000D03*
X00445000Y00285000D03*
X00455000D03*
X00415000Y00355000D03*
Y00365000D03*
X00445000Y00275000D03*
X00455000D03*
G54D33*
X00160000Y00160000D03*
X00480000D03*
Y00360000D03*
X00160000D03*
G54D35*
X00190000Y00160200D03*
X00179700Y00149900D03*
X00174400Y00233800D03*
Y00248783D03*
X00223300Y00262900D03*
Y00252900D03*
G54D42*
X00237000Y00215000D03*
G54D46*
X00151500Y00252500D03*
Y00287500D03*
G54D47*
Y00308200D03*
X00168500D03*
Y00331800D03*
X00151500D03*
G54D48*
X00334547Y00298700D02*
X00339192D01*
X00334547Y00296732D02*
X00339192D01*
X00334547Y00294763D02*
X00339192D01*
X00334547Y00292795D02*
X00339192D01*
X00334547Y00290826D02*
X00339192D01*
X00334547Y00288858D02*
X00339192D01*
X00334547Y00286889D02*
X00339192D01*
X00334547Y00284921D02*
X00339192D01*
X00334547Y00282952D02*
X00339192D01*
X00334547Y00280984D02*
X00339192D01*
X00334547Y00279015D02*
X00339192D01*
X00334547Y00277047D02*
X00339192D01*
X00334547Y00275078D02*
X00339192D01*
X00334547Y00273110D02*
X00339192D01*
X00334547Y00271141D02*
X00339192D01*
X00334547Y00269173D02*
X00339192D01*
X00334547Y00267204D02*
X00339192D01*
X00334547Y00265236D02*
X00339192D01*
X00334547Y00263267D02*
X00339192D01*
X00334547Y00261299D02*
X00339192D01*
X00328700Y00255452D02*
Y00250807D01*
X00326732Y00255452D02*
Y00250807D01*
X00324763Y00255452D02*
Y00250807D01*
X00322795Y00255452D02*
Y00250807D01*
X00320826Y00255452D02*
Y00250807D01*
X00318858Y00255452D02*
Y00250807D01*
X00316889Y00255452D02*
Y00250807D01*
X00314921Y00255452D02*
Y00250807D01*
X00312952Y00255452D02*
Y00250807D01*
X00310984Y00255452D02*
Y00250807D01*
X00309015Y00255452D02*
Y00250807D01*
X00307047Y00255452D02*
Y00250807D01*
X00305078Y00255452D02*
Y00250807D01*
X00303110Y00255452D02*
Y00250807D01*
X00301141Y00255452D02*
Y00250807D01*
X00299173Y00255452D02*
Y00250807D01*
X00297204Y00255452D02*
Y00250807D01*
X00295236Y00255452D02*
Y00250807D01*
X00293267Y00255452D02*
Y00250807D01*
X00291299Y00255452D02*
Y00250807D01*
X00280807Y00261299D02*
X00285452D01*
X00280807Y00263267D02*
X00285452D01*
X00280807Y00265236D02*
X00285452D01*
X00280807Y00267204D02*
X00285452D01*
X00280807Y00269173D02*
X00285452D01*
X00280807Y00271141D02*
X00285452D01*
X00280807Y00273110D02*
X00285452D01*
X00280807Y00275078D02*
X00285452D01*
X00280807Y00277047D02*
X00285452D01*
X00280807Y00279015D02*
X00285452D01*
X00280807Y00280984D02*
X00285452D01*
X00280807Y00282952D02*
X00285452D01*
X00280807Y00284921D02*
X00285452D01*
X00280807Y00286889D02*
X00285452D01*
X00280807Y00288858D02*
X00285452D01*
X00280807Y00290826D02*
X00285452D01*
X00280807Y00292795D02*
X00285452D01*
X00280807Y00294763D02*
X00285452D01*
X00280807Y00296732D02*
X00285452D01*
X00280807Y00298700D02*
X00285452D01*
X00291299Y00309192D02*
Y00304547D01*
X00293267Y00309192D02*
Y00304547D01*
X00295236Y00309192D02*
Y00304547D01*
X00297204Y00309192D02*
Y00304547D01*
X00299173Y00309192D02*
Y00304547D01*
X00301141Y00309192D02*
Y00304547D01*
X00303110Y00309192D02*
Y00304547D01*
X00305078Y00309192D02*
Y00304547D01*
X00307047Y00309192D02*
Y00304547D01*
X00309015Y00309192D02*
Y00304547D01*
X00310984Y00309192D02*
Y00304547D01*
X00312952Y00309192D02*
Y00304547D01*
X00314921Y00309192D02*
Y00304547D01*
X00316889Y00309192D02*
Y00304547D01*
X00318858Y00309192D02*
Y00304547D01*
X00320826Y00309192D02*
Y00304547D01*
X00322795Y00309192D02*
Y00304547D01*
X00324763Y00309192D02*
Y00304547D01*
X00326732Y00309192D02*
Y00304547D01*
X00328700Y00309192D02*
Y00304547D01*
G74*
X00000000Y00000000D02*
M02*
