G04 #@! TF.FileFunction,Soldermask,Bot*
%FSLAX46Y46*%
G04 Gerber Fmt 4.6, Leading zero omitted, Abs format (unit mm)*
G04 Created by KiCad (PCBNEW 4.0.3-stable) date 09/22/16 08:09:05*
%MOMM*%
%LPD*%
G01*
G04 APERTURE LIST*
%ADD10C,0.500000*%
G04 APERTURE END LIST*
D10*
G36*
X27260110Y6753872D02*
X27874848Y6627685D01*
X28453363Y6384500D01*
X28973631Y6033574D01*
X29415824Y5588283D01*
X29763105Y5065582D01*
X30002249Y4485378D01*
X30124004Y3870466D01*
X30124004Y3870449D01*
X30124137Y3869776D01*
X30114128Y3152993D01*
X30113977Y3152330D01*
X30113977Y3152306D01*
X29975099Y2541032D01*
X29719851Y1967739D01*
X29358107Y1454933D01*
X28903653Y1022162D01*
X28373787Y685900D01*
X27788712Y458964D01*
X27170688Y349989D01*
X26543273Y363132D01*
X25930359Y497890D01*
X25355293Y749129D01*
X24839980Y1107282D01*
X24404044Y1558706D01*
X24064093Y2086208D01*
X23833075Y2669693D01*
X23719790Y3286936D01*
X23728551Y3914424D01*
X23859027Y4528266D01*
X24106248Y5105075D01*
X24460795Y5622877D01*
X24909163Y6061952D01*
X25434276Y6405576D01*
X26016132Y6640661D01*
X26632571Y6758254D01*
X27260110Y6753872D01*
X27260110Y6753872D01*
G37*
G36*
X36404110Y6753872D02*
X37018848Y6627685D01*
X37597363Y6384500D01*
X38117631Y6033574D01*
X38559824Y5588283D01*
X38907105Y5065582D01*
X39146249Y4485378D01*
X39268004Y3870466D01*
X39268004Y3870449D01*
X39268137Y3869776D01*
X39258128Y3152993D01*
X39257977Y3152330D01*
X39257977Y3152306D01*
X39119099Y2541032D01*
X38863851Y1967739D01*
X38502107Y1454933D01*
X38047653Y1022162D01*
X37517787Y685900D01*
X36932712Y458964D01*
X36314688Y349989D01*
X35687273Y363132D01*
X35074359Y497890D01*
X34499293Y749129D01*
X33983980Y1107282D01*
X33548044Y1558706D01*
X33208093Y2086208D01*
X32977075Y2669693D01*
X32863790Y3286936D01*
X32872551Y3914424D01*
X33003027Y4528266D01*
X33250248Y5105075D01*
X33604795Y5622877D01*
X34053163Y6061952D01*
X34578276Y6405576D01*
X35160132Y6640661D01*
X35776571Y6758254D01*
X36404110Y6753872D01*
X36404110Y6753872D01*
G37*
G36*
X15910804Y4596971D02*
X16208569Y4535849D01*
X16488786Y4418057D01*
X16740793Y4248077D01*
X16954980Y4032389D01*
X17123193Y3779206D01*
X17239030Y3498165D01*
X17297934Y3200678D01*
X17297934Y3200658D01*
X17298067Y3199985D01*
X17293219Y2852793D01*
X17293067Y2852125D01*
X17293067Y2852107D01*
X17225878Y2556375D01*
X17102241Y2278680D01*
X16927025Y2030296D01*
X16706897Y1820671D01*
X16450240Y1657792D01*
X16166848Y1547871D01*
X15867489Y1495085D01*
X15563585Y1501452D01*
X15266704Y1566726D01*
X14988159Y1688418D01*
X14738550Y1861902D01*
X14527395Y2080559D01*
X14362731Y2336068D01*
X14250829Y2618697D01*
X14195958Y2917671D01*
X14200202Y3221611D01*
X14263402Y3518946D01*
X14383147Y3798332D01*
X14554884Y4049146D01*
X14772059Y4261820D01*
X15026417Y4428267D01*
X15308249Y4542135D01*
X15606839Y4599094D01*
X15910804Y4596971D01*
X15910804Y4596971D01*
G37*
G36*
X20990804Y4596971D02*
X21288569Y4535849D01*
X21568786Y4418057D01*
X21820793Y4248077D01*
X22034980Y4032389D01*
X22203193Y3779206D01*
X22319030Y3498165D01*
X22377934Y3200678D01*
X22377934Y3200658D01*
X22378067Y3199985D01*
X22373219Y2852793D01*
X22373067Y2852125D01*
X22373067Y2852107D01*
X22305878Y2556375D01*
X22182241Y2278680D01*
X22007025Y2030296D01*
X21786897Y1820671D01*
X21530240Y1657792D01*
X21246848Y1547871D01*
X20947489Y1495085D01*
X20643585Y1501452D01*
X20346704Y1566726D01*
X20068159Y1688418D01*
X19818550Y1861902D01*
X19607395Y2080559D01*
X19442731Y2336068D01*
X19330829Y2618697D01*
X19275958Y2917671D01*
X19280202Y3221611D01*
X19343402Y3518946D01*
X19463147Y3798332D01*
X19634884Y4049146D01*
X19852059Y4261820D01*
X20106417Y4428267D01*
X20388249Y4542135D01*
X20686839Y4599094D01*
X20990804Y4596971D01*
X20990804Y4596971D01*
G37*
G36*
X46056110Y8277872D02*
X46670848Y8151685D01*
X47249363Y7908500D01*
X47769631Y7557574D01*
X48211824Y7112283D01*
X48559105Y6589582D01*
X48798249Y6009378D01*
X48920004Y5394466D01*
X48920004Y5394449D01*
X48920137Y5393776D01*
X48910128Y4676993D01*
X48909977Y4676330D01*
X48909977Y4676306D01*
X48771099Y4065032D01*
X48515851Y3491739D01*
X48154107Y2978933D01*
X47699653Y2546162D01*
X47169787Y2209900D01*
X46584712Y1982964D01*
X45966688Y1873989D01*
X45339273Y1887132D01*
X44726359Y2021890D01*
X44151293Y2273129D01*
X43635980Y2631282D01*
X43200044Y3082706D01*
X42860093Y3610208D01*
X42629075Y4193693D01*
X42515790Y4810936D01*
X42524551Y5438424D01*
X42655027Y6052266D01*
X42902248Y6629075D01*
X43256795Y7146877D01*
X43705163Y7585952D01*
X44230276Y7929576D01*
X44812132Y8164661D01*
X45428571Y8282254D01*
X46056110Y8277872D01*
X46056110Y8277872D01*
G37*
G36*
X5416110Y8277872D02*
X6030848Y8151685D01*
X6609363Y7908500D01*
X7129631Y7557574D01*
X7571824Y7112283D01*
X7919105Y6589582D01*
X8158249Y6009378D01*
X8280004Y5394466D01*
X8280004Y5394449D01*
X8280137Y5393776D01*
X8270128Y4676993D01*
X8269977Y4676330D01*
X8269977Y4676306D01*
X8131099Y4065032D01*
X7875851Y3491739D01*
X7514107Y2978933D01*
X7059653Y2546162D01*
X6529787Y2209900D01*
X5944712Y1982964D01*
X5326688Y1873989D01*
X4699273Y1887132D01*
X4086359Y2021890D01*
X3511293Y2273129D01*
X2995980Y2631282D01*
X2560044Y3082706D01*
X2220093Y3610208D01*
X1989075Y4193693D01*
X1875790Y4810936D01*
X1884551Y5438424D01*
X2015027Y6052266D01*
X2262248Y6629075D01*
X2616795Y7146877D01*
X3065163Y7585952D01*
X3590276Y7929576D01*
X4172132Y8164661D01*
X4788571Y8282254D01*
X5416110Y8277872D01*
X5416110Y8277872D01*
G37*
G36*
X18440300Y7037038D02*
X18718857Y6979859D01*
X18980992Y6869668D01*
X19216739Y6710654D01*
X19417112Y6508878D01*
X19574471Y6272032D01*
X19682835Y6009122D01*
X19737930Y5730872D01*
X19737930Y5730848D01*
X19738062Y5730180D01*
X19733527Y5405387D01*
X19733376Y5404724D01*
X19733376Y5404700D01*
X19670532Y5128096D01*
X19554870Y4868316D01*
X19390956Y4635951D01*
X19185033Y4439854D01*
X18944936Y4287484D01*
X18679824Y4184653D01*
X18399780Y4135273D01*
X18115482Y4141229D01*
X17837756Y4202290D01*
X17577179Y4316134D01*
X17343677Y4478422D01*
X17146143Y4682974D01*
X16992102Y4922000D01*
X16887422Y5186392D01*
X16836089Y5466081D01*
X16840059Y5750410D01*
X16899182Y6028558D01*
X17011204Y6289927D01*
X17171859Y6524556D01*
X17375026Y6723512D01*
X17612966Y6879216D01*
X17876620Y6985740D01*
X18155946Y7039024D01*
X18440300Y7037038D01*
X18440300Y7037038D01*
G37*
G36*
X20990804Y9676971D02*
X21288569Y9615849D01*
X21568786Y9498057D01*
X21820793Y9328077D01*
X22034980Y9112389D01*
X22203193Y8859206D01*
X22319030Y8578165D01*
X22377934Y8280678D01*
X22377934Y8280658D01*
X22378067Y8279985D01*
X22373219Y7932793D01*
X22373067Y7932125D01*
X22373067Y7932107D01*
X22305878Y7636375D01*
X22182241Y7358680D01*
X22007025Y7110296D01*
X21786897Y6900671D01*
X21530240Y6737792D01*
X21246848Y6627871D01*
X20947489Y6575085D01*
X20643585Y6581452D01*
X20346704Y6646726D01*
X20068159Y6768418D01*
X19818550Y6941902D01*
X19607395Y7160559D01*
X19442731Y7416068D01*
X19330829Y7698697D01*
X19275958Y7997671D01*
X19280202Y8301611D01*
X19343402Y8598946D01*
X19463147Y8878332D01*
X19634884Y9129146D01*
X19852059Y9341820D01*
X20106417Y9508267D01*
X20388249Y9622135D01*
X20686839Y9679094D01*
X20990804Y9676971D01*
X20990804Y9676971D01*
G37*
G36*
X15910804Y9676971D02*
X16208569Y9615849D01*
X16488786Y9498057D01*
X16740793Y9328077D01*
X16954980Y9112389D01*
X17123193Y8859206D01*
X17239030Y8578165D01*
X17297934Y8280678D01*
X17297934Y8280658D01*
X17298067Y8279985D01*
X17293219Y7932793D01*
X17293067Y7932125D01*
X17293067Y7932107D01*
X17225878Y7636375D01*
X17102241Y7358680D01*
X16927025Y7110296D01*
X16706897Y6900671D01*
X16450240Y6737792D01*
X16166848Y6627871D01*
X15867489Y6575085D01*
X15563585Y6581452D01*
X15266704Y6646726D01*
X14988159Y6768418D01*
X14738550Y6941902D01*
X14527395Y7160559D01*
X14362731Y7416068D01*
X14250829Y7698697D01*
X14195958Y7997671D01*
X14200202Y8301611D01*
X14263402Y8598946D01*
X14383147Y8878332D01*
X14554884Y9129146D01*
X14772059Y9341820D01*
X15026417Y9508267D01*
X15308249Y9622135D01*
X15606839Y9679094D01*
X15910804Y9676971D01*
X15910804Y9676971D01*
G37*
G36*
X46056110Y18945872D02*
X46670848Y18819685D01*
X47249363Y18576500D01*
X47769631Y18225574D01*
X48211824Y17780283D01*
X48559105Y17257582D01*
X48798249Y16677378D01*
X48920004Y16062466D01*
X48920004Y16062449D01*
X48920137Y16061776D01*
X48910128Y15344993D01*
X48909977Y15344330D01*
X48909977Y15344306D01*
X48771099Y14733032D01*
X48515851Y14159739D01*
X48154107Y13646933D01*
X47699653Y13214162D01*
X47169787Y12877900D01*
X46584712Y12650964D01*
X45966688Y12541989D01*
X45339273Y12555132D01*
X44726359Y12689890D01*
X44151293Y12941129D01*
X43635980Y13299282D01*
X43200044Y13750706D01*
X42860093Y14278208D01*
X42629075Y14861693D01*
X42515790Y15478936D01*
X42524551Y16106424D01*
X42655027Y16720266D01*
X42902248Y17297075D01*
X43256795Y17814877D01*
X43705163Y18253952D01*
X44230276Y18597576D01*
X44812132Y18832661D01*
X45428571Y18950254D01*
X46056110Y18945872D01*
X46056110Y18945872D01*
G37*
G36*
X5416110Y18945872D02*
X6030848Y18819685D01*
X6609363Y18576500D01*
X7129631Y18225574D01*
X7571824Y17780283D01*
X7919105Y17257582D01*
X8158249Y16677378D01*
X8280004Y16062466D01*
X8280004Y16062449D01*
X8280137Y16061776D01*
X8270128Y15344993D01*
X8269977Y15344330D01*
X8269977Y15344306D01*
X8131099Y14733032D01*
X7875851Y14159739D01*
X7514107Y13646933D01*
X7059653Y13214162D01*
X6529787Y12877900D01*
X5944712Y12650964D01*
X5326688Y12541989D01*
X4699273Y12555132D01*
X4086359Y12689890D01*
X3511293Y12941129D01*
X2995980Y13299282D01*
X2560044Y13750706D01*
X2220093Y14278208D01*
X1989075Y14861693D01*
X1875790Y15478936D01*
X1884551Y16106424D01*
X2015027Y16720266D01*
X2262248Y17297075D01*
X2616795Y17814877D01*
X3065163Y18253952D01*
X3590276Y18597576D01*
X4172132Y18832661D01*
X4788571Y18950254D01*
X5416110Y18945872D01*
X5416110Y18945872D01*
G37*
G36*
X5416110Y29105872D02*
X6030848Y28979685D01*
X6609363Y28736500D01*
X7129631Y28385574D01*
X7571824Y27940283D01*
X7919105Y27417582D01*
X8158249Y26837378D01*
X8280004Y26222466D01*
X8280004Y26222449D01*
X8280137Y26221776D01*
X8270128Y25504993D01*
X8269977Y25504330D01*
X8269977Y25504306D01*
X8131099Y24893032D01*
X7875851Y24319739D01*
X7514107Y23806933D01*
X7059653Y23374162D01*
X6529787Y23037900D01*
X5944712Y22810964D01*
X5326688Y22701989D01*
X4699273Y22715132D01*
X4086359Y22849890D01*
X3511293Y23101129D01*
X2995980Y23459282D01*
X2560044Y23910706D01*
X2220093Y24438208D01*
X1989075Y25021693D01*
X1875790Y25638936D01*
X1884551Y26266424D01*
X2015027Y26880266D01*
X2262248Y27457075D01*
X2616795Y27974877D01*
X3065163Y28413952D01*
X3590276Y28757576D01*
X4172132Y28992661D01*
X4788571Y29110254D01*
X5416110Y29105872D01*
X5416110Y29105872D01*
G37*
G36*
X46056110Y29105872D02*
X46670848Y28979685D01*
X47249363Y28736500D01*
X47769631Y28385574D01*
X48211824Y27940283D01*
X48559105Y27417582D01*
X48798249Y26837378D01*
X48920004Y26222466D01*
X48920004Y26222449D01*
X48920137Y26221776D01*
X48910128Y25504993D01*
X48909977Y25504330D01*
X48909977Y25504306D01*
X48771099Y24893032D01*
X48515851Y24319739D01*
X48154107Y23806933D01*
X47699653Y23374162D01*
X47169787Y23037900D01*
X46584712Y22810964D01*
X45966688Y22701989D01*
X45339273Y22715132D01*
X44726359Y22849890D01*
X44151293Y23101129D01*
X43635980Y23459282D01*
X43200044Y23910706D01*
X42860093Y24438208D01*
X42629075Y25021693D01*
X42515790Y25638936D01*
X42524551Y26266424D01*
X42655027Y26880266D01*
X42902248Y27457075D01*
X43256795Y27974877D01*
X43705163Y28413952D01*
X44230276Y28757576D01*
X44812132Y28992661D01*
X45428571Y29110254D01*
X46056110Y29105872D01*
X46056110Y29105872D01*
G37*
G36*
X46056110Y38757872D02*
X46670848Y38631685D01*
X47249363Y38388500D01*
X47769631Y38037574D01*
X48211824Y37592283D01*
X48559105Y37069582D01*
X48798249Y36489378D01*
X48920004Y35874466D01*
X48920004Y35874449D01*
X48920137Y35873776D01*
X48910128Y35156993D01*
X48909977Y35156330D01*
X48909977Y35156306D01*
X48771099Y34545032D01*
X48515851Y33971739D01*
X48154107Y33458933D01*
X47699653Y33026162D01*
X47169787Y32689900D01*
X46584712Y32462964D01*
X45966688Y32353989D01*
X45339273Y32367132D01*
X44726359Y32501890D01*
X44151293Y32753129D01*
X43635980Y33111282D01*
X43200044Y33562706D01*
X42860093Y34090208D01*
X42629075Y34673693D01*
X42515790Y35290936D01*
X42524551Y35918424D01*
X42655027Y36532266D01*
X42902248Y37109075D01*
X43256795Y37626877D01*
X43705163Y38065952D01*
X44230276Y38409576D01*
X44812132Y38644661D01*
X45428571Y38762254D01*
X46056110Y38757872D01*
X46056110Y38757872D01*
G37*
G36*
X5416110Y38757872D02*
X6030848Y38631685D01*
X6609363Y38388500D01*
X7129631Y38037574D01*
X7571824Y37592283D01*
X7919105Y37069582D01*
X8158249Y36489378D01*
X8280004Y35874466D01*
X8280004Y35874449D01*
X8280137Y35873776D01*
X8270128Y35156993D01*
X8269977Y35156330D01*
X8269977Y35156306D01*
X8131099Y34545032D01*
X7875851Y33971739D01*
X7514107Y33458933D01*
X7059653Y33026162D01*
X6529787Y32689900D01*
X5944712Y32462964D01*
X5326688Y32353989D01*
X4699273Y32367132D01*
X4086359Y32501890D01*
X3511293Y32753129D01*
X2995980Y33111282D01*
X2560044Y33562706D01*
X2220093Y34090208D01*
X1989075Y34673693D01*
X1875790Y35290936D01*
X1884551Y35918424D01*
X2015027Y36532266D01*
X2262248Y37109075D01*
X2616795Y37626877D01*
X3065163Y38065952D01*
X3590276Y38409576D01*
X4172132Y38644661D01*
X4788571Y38762254D01*
X5416110Y38757872D01*
X5416110Y38757872D01*
G37*
G36*
X23314000Y34344000D02*
X21390000Y34344000D01*
X21390000Y36268000D01*
X23314000Y36268000D01*
X23314000Y34344000D01*
X23314000Y34344000D01*
G37*
G36*
X20774000Y34344000D02*
X18850000Y34344000D01*
X18850000Y36268000D01*
X20774000Y36268000D01*
X20774000Y34344000D01*
X20774000Y34344000D01*
G37*
G36*
X18234000Y34344000D02*
X16310000Y34344000D01*
X16310000Y36268000D01*
X18234000Y36268000D01*
X18234000Y34344000D01*
X18234000Y34344000D01*
G37*
G36*
X23314000Y36884000D02*
X21390000Y36884000D01*
X21390000Y38808000D01*
X23314000Y38808000D01*
X23314000Y36884000D01*
X23314000Y36884000D01*
G37*
G36*
X20774000Y36884000D02*
X18850000Y36884000D01*
X18850000Y38808000D01*
X20774000Y38808000D01*
X20774000Y36884000D01*
X20774000Y36884000D01*
G37*
G36*
X18234000Y36884000D02*
X16310000Y36884000D01*
X16310000Y38808000D01*
X18234000Y38808000D01*
X18234000Y36884000D01*
X18234000Y36884000D01*
G37*
M02*
