*
*
G04 PADS 9.2 Build Number: 414666 generated Gerber (RS-274-X) file*
G04 PC Version=2.1*
*
%IN "AVRUSB01A.pcb"*%
*
%MOIN*%
*
%FSLAX35Y35*%
*
*
*
*
G04 PC Standard Apertures*
*
*
G04 Thermal Relief Aperture macro.*
%AMTER*
1,1,$1,0,0*
1,0,$1-$2,0,0*
21,0,$3,$4,0,0,45*
21,0,$3,$4,0,0,135*
%
*
*
G04 Annular Aperture macro.*
%AMANN*
1,1,$1,0,0*
1,0,$2,0,0*
%
*
*
G04 Odd Aperture macro.*
%AMODD*
1,1,$1,0,0*
1,0,$1-0.005,0,0*
%
*
*
G04 PC Custom Aperture Macros*
*
*
*
*
*
*
G04 PC Aperture Table*
*
%ADD025C,0.01*%
%ADD026C,0.00787*%
%ADD029C,0.005*%
%ADD036C,0.008*%
*
*
*
*
G04 PC Copper Outlines (0)*
G04 Layer Name AVRUSB01A.pcb - dark (0)*
%LPD*%
*
*
G04 PC Area=Custom_Thermal*
*
G04 PC Custom Flashes*
G04 Layer Name AVRUSB01A.pcb - flashes*
%LPD*%
*
*
G04 PC Circuitry*
G04 Layer Name AVRUSB01A.pcb - circuitry*
%LPD*%
*
G54D25*
G01X152818Y214563D02*
X151000Y208000D01*
X152818Y214563D02*
X154636Y208000D01*
X151682Y210188D02*
X153955D01*
X156682Y214563D02*
X158500Y208000D01*
X160318Y214563D02*
X158500Y208000D01*
X162364Y214563D02*
Y208000D01*
Y214563D02*
X164409D01*
X164409D02*
X165091Y214250D01*
X165318Y213938*
X165318D02*
X165545Y213313D01*
X165545D02*
Y212688D01*
X165545D02*
X165318Y212063D01*
X165318D02*
X165091Y211750D01*
X164409Y211438*
X164409D02*
X162364D01*
X163955D02*
X165545Y208000D01*
X167591Y214563D02*
Y209875D01*
X167818Y208938*
X167818D02*
X168273Y208313D01*
X168273D02*
X168955Y208000D01*
X169409*
X170091Y208313*
X170091D02*
X170545Y208938D01*
X170545D02*
X170773Y209875D01*
Y214563*
X176000Y213625D02*
X175545Y214250D01*
X174864Y214563*
X174864D02*
X173955D01*
X173955D02*
X173273Y214250D01*
X172818Y213625*
Y213000*
X173045Y212375*
X173273Y212063*
X173273D02*
X173727Y211750D01*
X175091Y211125*
X175545Y210813*
X175545D02*
X175773Y210500D01*
X176000Y209875*
Y208938*
X176000D02*
X175545Y208313D01*
X175545D02*
X174864Y208000D01*
X173955*
X173273Y208313*
X173273D02*
X172818Y208938D01*
X178045Y214563D02*
Y208000D01*
Y214563D02*
X180091D01*
X180091D02*
X180773Y214250D01*
X181000Y213938*
X181000D02*
X181227Y213313D01*
X181227D02*
Y212688D01*
X181227D02*
X181000Y212063D01*
X181000D02*
X180773Y211750D01*
X180091Y211438*
X178045D02*
X180091D01*
X180091D02*
X180773Y211125D01*
X181000Y210813*
X181000D02*
X181227Y210188D01*
X181227D02*
Y209250D01*
X181000Y208625*
X180773Y208313*
X180773D02*
X180091Y208000D01*
X178045*
X184636Y214563D02*
X183955Y214250D01*
X183500Y213313*
X183500D02*
X183273Y211750D01*
Y210813*
X183273D02*
X183500Y209250D01*
X183955Y208313*
X183955D02*
X184636Y208000D01*
X185091*
X185773Y208313*
X185773D02*
X186227Y209250D01*
X186455Y210813*
X186455D02*
Y211750D01*
X186227Y213313*
X186227D02*
X185773Y214250D01*
X185091Y214563*
X185091D02*
X184636D01*
X188500Y213313D02*
X188955Y213625D01*
X189636Y214563*
X189636D02*
Y208000D01*
X193500Y214563D02*
X191682Y208000D01*
X193500Y214563D02*
X195318Y208000D01*
X192364Y210188D02*
X194636D01*
X146000Y203563D02*
X147136Y197000D01*
X148273Y203563D02*
X147136Y197000D01*
X148273Y203563D02*
X149409Y197000D01*
X150545Y203563D02*
X149409Y197000D01*
X152591Y203563D02*
X153727Y197000D01*
X154864Y203563D02*
X153727Y197000D01*
X154864Y203563D02*
X156000Y197000D01*
X157136Y203563D02*
X156000Y197000D01*
X159182Y203563D02*
X160318Y197000D01*
X161455Y203563D02*
X160318Y197000D01*
X161455Y203563D02*
X162591Y197000D01*
X163727Y203563D02*
X162591Y197000D01*
X166000Y197625D02*
X165773Y197313D01*
X165773D02*
X166000Y197000D01*
X166227Y197313*
X166227D02*
X166000Y197625D01*
X168273Y203563D02*
Y197000D01*
Y203563D02*
X170091Y197000D01*
X171909Y203563D02*
X170091Y197000D01*
X171909Y203563D02*
Y197000D01*
X173955Y203563D02*
Y197000D01*
X176682*
X180545Y203563D02*
X178727Y197000D01*
X180545Y203563D02*
X182364Y197000D01*
X179409Y199188D02*
X181682D01*
X184409Y203563D02*
Y197000D01*
Y203563D02*
X186455D01*
X186455D02*
X187136Y203250D01*
X187364Y202938*
X187364D02*
X187591Y202313D01*
X187591D02*
Y201688D01*
X187591D02*
X187364Y201063D01*
X187364D02*
X187136Y200750D01*
X186455Y200438*
X184409D02*
X186455D01*
X186455D02*
X187136Y200125D01*
X187364Y199813*
X187364D02*
X187591Y199188D01*
X187591D02*
Y198250D01*
X187364Y197625*
X187136Y197313*
X187136D02*
X186455Y197000D01*
X184409*
X189864Y197625D02*
X189636Y197313D01*
X189636D02*
X189864Y197000D01*
X190091Y197313*
X190091D02*
X189864Y197625D01*
X195545Y202000D02*
X195318Y202625D01*
X194864Y203250*
X194409Y203563*
X194409D02*
X193500D01*
X193500D02*
X193045Y203250D01*
X192591Y202625*
X192364Y202000*
X192136Y201063*
X192136D02*
Y199500D01*
X192364Y198563*
X192364D02*
X192591Y197938D01*
X192591D02*
X193045Y197313D01*
X193045D02*
X193500Y197000D01*
X194409*
X194864Y197313*
X194864D02*
X195318Y197938D01*
X195318D02*
X195545Y198563D01*
X200773Y203563D02*
X197591Y197000D01*
Y203563D02*
X200773D01*
X197591Y197000D02*
X200773D01*
G54D26*
X239811Y196843D02*
X216189D01*
X239811Y177157D02*
X216189D01*
Y196843D02*
G75*
G03Y177157I-0J-9843D01*
G01X239811D02*
G03Y196843I0J9843D01*
G54D29*
G01X106205Y191594D02*
Y188594D01*
X106068Y188031*
X105932Y187844*
X105659Y187656*
X105386*
X105114Y187844*
X104977Y188031*
X104841Y188594*
Y188969*
X107432Y190844D02*
X107705Y191031D01*
X108114Y191594*
Y187656*
X298636Y215594D02*
Y212594D01*
X298500Y212031*
X298364Y211844*
X298091Y211656*
X297818*
X297545Y211844*
X297409Y212031*
X297273Y212594*
Y212969*
X299864Y214844D02*
X300136Y215031D01*
X300545Y215594*
Y211656*
X302591Y215594D02*
X302182Y215406D01*
X301909Y214844*
X301773Y213906*
Y213344*
X301909Y212406*
X302182Y211844*
X302591Y211656*
X302864*
X303273Y211844*
X303545Y212406*
X303682Y213344*
Y213906*
X303545Y214844*
X303273Y215406*
X302864Y215594*
X302591*
X192591Y159594D02*
Y156594D01*
X192455Y156031*
X192318Y155844*
X192045Y155656*
X191773*
X191500Y155844*
X191364Y156031*
X191227Y156594*
Y156969*
X193955Y158656D02*
Y158844D01*
X194091Y159219*
X194227Y159406*
X194500Y159594*
X195045*
X195318Y159406*
X195455Y159219*
X195591Y158844*
Y158469*
X195455Y158094*
X195182Y157531*
X193818Y155656*
X195727*
X147591Y112594D02*
Y109594D01*
X147455Y109031*
X147318Y108844*
X147045Y108656*
X146773*
X146500Y108844*
X146364Y109031*
X146227Y109594*
Y109969*
X149091Y112594D02*
X150591D01*
X149773Y111094*
X150182*
X150455Y110906*
X150591Y110719*
X150727Y110156*
Y109781*
X150591Y109219*
X150318Y108844*
X149909Y108656*
X149500*
X149091Y108844*
X148955Y109031*
X148818Y109406*
X222523Y112594D02*
Y109594D01*
X222386Y109031*
X222250Y108844*
X221977Y108656*
X221705*
X221432Y108844*
X221295Y109031*
X221159Y109594*
Y109969*
X225114Y112594D02*
X223750Y109969D01*
X225795*
X225114Y112594D02*
Y108656D01*
X270523Y171594D02*
Y168594D01*
X270386Y168031*
X270250Y167844*
X269977Y167656*
X269705*
X269432Y167844*
X269295Y168031*
X269159Y168594*
Y168969*
X273523Y171594D02*
X272159D01*
X272023Y169906*
X272159Y170094*
X272568Y170281*
X272977*
X273386Y170094*
X273659Y169719*
X273795Y169156*
X273659Y168781*
X273523Y168219*
X273250Y167844*
X272841Y167656*
X272432*
X272023Y167844*
X271886Y168031*
X271750Y168406*
X231659Y112594D02*
Y109594D01*
X231523Y109031*
X231386Y108844*
X231114Y108656*
X230841*
X230568Y108844*
X230432Y109031*
X230295Y109594*
Y109969*
X234523Y112031D02*
X234386Y112406D01*
X233977Y112594*
X233705*
X233295Y112406*
X233023Y111844*
X232886Y110906*
Y109969*
X233023Y109219*
X233295Y108844*
X233705Y108656*
X233841*
X234250Y108844*
X234523Y109219*
X234659Y109781*
Y109969*
X234523Y110531*
X234250Y110906*
X233841Y111094*
X233705*
X233295Y110906*
X233023Y110531*
X232886Y109969*
X282591Y155594D02*
Y152594D01*
X282455Y152031*
X282318Y151844*
X282045Y151656*
X281773*
X281500Y151844*
X281364Y152031*
X281227Y152594*
Y152969*
X285727Y155594D02*
X284364Y151656D01*
X283818Y155594D02*
X285727D01*
X332091Y133094D02*
Y130094D01*
X331955Y129531*
X331818Y129344*
X331545Y129156*
X331273*
X331000Y129344*
X330864Y129531*
X330727Y130094*
Y130469*
X334000Y133094D02*
X333591Y132906D01*
X333455Y132531*
Y132156*
X333591Y131781*
X333864Y131594*
X334409Y131406*
X334818Y131219*
X335091Y130844*
X335227Y130469*
Y129906*
X335091Y129531*
X334955Y129344*
X334545Y129156*
X334000*
X333591Y129344*
X333455Y129531*
X333318Y129906*
Y130469*
X333455Y130844*
X333727Y131219*
X334136Y131406*
X334682Y131594*
X334955Y131781*
X335091Y132156*
Y132531*
X334955Y132906*
X334545Y133094*
X334000*
X252659Y188594D02*
Y185594D01*
X252523Y185031*
X252386Y184844*
X252114Y184656*
X251841*
X251568Y184844*
X251432Y185031*
X251295Y185594*
Y185969*
X255659Y187281D02*
X255523Y186719D01*
X255250Y186344*
X254841Y186156*
X254705*
X254295Y186344*
X254023Y186719*
X253886Y187281*
Y187469*
X254023Y188031*
X254295Y188406*
X254705Y188594*
X254841*
X255250Y188406*
X255523Y188031*
X255659Y187281*
Y186344*
X255523Y185406*
X255250Y184844*
X254841Y184656*
X254568*
X254159Y184844*
X254023Y185219*
X117432Y122594D02*
Y118656D01*
Y122594D02*
X118523Y118656D01*
X119614Y122594D02*
X118523Y118656D01*
X119614Y122594D02*
Y118656D01*
X120841Y121844D02*
X121114Y122031D01*
X121523Y122594*
Y118656*
X316818Y122594D02*
Y118656D01*
Y122594D02*
X317909Y118656D01*
X319000Y122594D02*
X317909Y118656D01*
X319000Y122594D02*
Y118656D01*
X320364Y121656D02*
Y121844D01*
X320500Y122219*
X320636Y122406*
X320909Y122594*
X321455*
X321727Y122406*
X321864Y122219*
X322000Y121844*
Y121469*
X321864Y121094*
X321591Y120531*
X320227Y118656*
X322136*
X316818Y202594D02*
Y198656D01*
Y202594D02*
X317909Y198656D01*
X319000Y202594D02*
X317909Y198656D01*
X319000Y202594D02*
Y198656D01*
X320500Y202594D02*
X322000D01*
X321182Y201094*
X321591*
X321864Y200906*
X322000Y200719*
X322136Y200156*
Y199781*
X322000Y199219*
X321727Y198844*
X321318Y198656*
X320909*
X320500Y198844*
X320364Y199031*
X320227Y199406*
X116750Y202594D02*
Y198656D01*
Y202594D02*
X117841Y198656D01*
X118932Y202594D02*
X117841Y198656D01*
X118932Y202594D02*
Y198656D01*
X121523Y202594D02*
X120159Y199969D01*
X122205*
X121523Y202594D02*
Y198656D01*
X225568Y189594D02*
X227477Y185656D01*
Y189594D02*
X225568Y185656D01*
X228705Y188844D02*
X228977Y189031D01*
X229386Y189594*
Y185656*
G54D36*
X104000Y136000D02*
Y184000D01*
X134000D02*
X101000D01*
Y136000*
X134000*
X150000D02*
X165000D01*
Y184000*
X150000*
X296000Y190000D02*
Y210000D01*
X306000*
Y190000*
X296000*
X169000Y162000D02*
X189000D01*
Y152000*
X169000*
Y162000*
X154000Y126000D02*
X184000D01*
Y106000*
X154000*
Y126000*
X189000D02*
X219000D01*
Y106000*
X189000*
Y126000*
X298000Y171000D02*
X278000D01*
Y181000*
X298000*
Y171000*
X238000Y116000D02*
X268000D01*
Y106000*
X238000*
Y116000*
X289000Y165000D02*
X309000D01*
Y155000*
X289000*
Y165000*
X334000Y185000D02*
Y135000D01*
X314000*
Y185000*
X334000*
X288000Y194000D02*
X258000D01*
Y214000*
X288000*
Y194000*
X250750Y120000D02*
X256000D01*
X250750D02*
Y121636D01*
X251000Y122182*
X251250Y122364*
X251750Y122545*
X252250*
X252750Y122364*
X253000Y122182*
X253250Y121636*
Y120000*
Y121273D02*
X256000Y122545D01*
X250750Y124182D02*
X256000Y126727D01*
X250750D02*
X256000Y124182D01*
X240750Y121273D02*
X246000D01*
X240750Y120000D02*
Y122545D01*
Y124182D02*
X246000Y126727D01*
X240750D02*
X246000Y124182D01*
X262000Y121727D02*
X261500Y121545D01*
X261000Y121182*
X260750Y120818*
Y120091*
X261000Y119727*
X261500Y119364*
X262000Y119182*
X262750Y119000*
X264000*
X264750Y119182*
X265250Y119364*
X265750Y119727*
X266000Y120091*
Y120818*
X265750Y121182*
X265250Y121545*
X264750Y121727*
X264000*
Y120818D02*
Y121727D01*
X260750Y123364D02*
X266000D01*
X260750D02*
X266000Y125909D01*
X260750D02*
X266000D01*
X260750Y127545D02*
X266000D01*
X260750D02*
Y128818D01*
X261000Y129364*
X261500Y129727*
X262000Y129909*
X262750Y130091*
X264000*
X264750Y129909*
X265250Y129727*
X265750Y129364*
X266000Y128818*
Y127545*
X302727Y181000D02*
X302545Y181500D01*
X302182Y182000*
X301818Y182250*
X301091*
X300727Y182000*
X300364Y181500*
X300182Y181000*
X300000Y180250*
Y179000*
X300182Y178250*
X300364Y177750*
X300727Y177250*
X301091Y177000*
X301818*
X302182Y177250*
X302545Y177750*
X302727Y178250*
Y179000*
X301818D02*
X302727D01*
X304364Y182250D02*
Y177000D01*
Y182250D02*
X306909Y177000D01*
Y182250D02*
Y177000D01*
X308545Y182250D02*
Y177000D01*
Y182250D02*
X309818D01*
X310364Y182000*
X310727Y181500*
X310909Y181000*
X311091Y180250*
Y179000*
X310909Y178250*
X310727Y177750*
X310364Y177250*
X309818Y177000*
X308545*
X302727Y141000D02*
X302545Y141500D01*
X302182Y142000*
X301818Y142250*
X301091*
X300727Y142000*
X300364Y141500*
X300182Y141000*
X300000Y140250*
Y139000*
X300182Y138250*
X300364Y137750*
X300727Y137250*
X301091Y137000*
X301818*
X302182Y137250*
X302545Y137750*
X302727Y138250*
Y139000*
X301818D02*
X302727D01*
X304364Y142250D02*
Y137000D01*
Y142250D02*
X306909Y137000D01*
Y142250D02*
Y137000D01*
X308545Y142250D02*
Y137000D01*
Y142250D02*
X309818D01*
X310364Y142000*
X310727Y141500*
X310909Y141000*
X311091Y140250*
Y139000*
X310909Y138250*
X310727Y137750*
X310364Y137250*
X309818Y137000*
X308545*
X302545Y151500D02*
X302182Y152000D01*
X301636Y152250*
X300909*
X300364Y152000*
X300000Y151500*
Y151000*
X300182Y150500*
X300364Y150250*
X300727Y150000*
X301818Y149500*
X302182Y149250*
X302364Y149000*
X302545Y148500*
Y147750*
X302182Y147250*
X301636Y147000*
X300909*
X300364Y147250*
X300000Y147750*
X306909Y151000D02*
X306727Y151500D01*
X306364Y152000*
X306000Y152250*
X305273*
X304909Y152000*
X304545Y151500*
X304364Y151000*
X304182Y150250*
Y149000*
X304364Y148250*
X304545Y147750*
X304909Y147250*
X305273Y147000*
X306000*
X306364Y147250*
X306727Y147750*
X306909Y148250*
X308545Y152250D02*
Y147000D01*
X310727*
X302545Y172500D02*
X302182Y173000D01*
X301636Y173250*
X300909*
X300364Y173000*
X300000Y172500*
Y172000*
X300182Y171500*
X300364Y171250*
X300727Y171000*
X301818Y170500*
X302182Y170250*
X302364Y170000*
X302545Y169500*
Y168750*
X302182Y168250*
X301636Y168000*
X300909*
X300364Y168250*
X300000Y168750*
X304182Y173250D02*
Y168000D01*
Y173250D02*
X305455D01*
X306000Y173000*
X306364Y172500*
X306545Y172000*
X306727Y171250*
Y170000*
X306545Y169250*
X306364Y168750*
X306000Y168250*
X305455Y168000*
X304182*
X309818Y173250D02*
X308364Y168000D01*
X309818Y173250D02*
X311273Y168000D01*
X308909Y169750D02*
X310727D01*
X260000Y163250D02*
Y158000D01*
X261818Y162000D02*
Y162250D01*
X262000Y162750*
X262182Y163000*
X262545Y163250*
X263273*
X263636Y163000*
X263818Y162750*
X264000Y162250*
Y161750*
X263818Y161250*
X263455Y160500*
X261636Y158000*
X264182*
X268545Y162000D02*
X268364Y162500D01*
X268000Y163000*
X267636Y163250*
X266909*
X266545Y163000*
X266182Y162500*
X266000Y162000*
X265818Y161250*
Y160000*
X266000Y159250*
X266182Y158750*
X266545Y158250*
X266909Y158000*
X267636*
X268000Y158250*
X268364Y158750*
X268545Y159250*
X274364Y163250D02*
Y158000D01*
Y163250D02*
X276000D01*
X276545Y163000*
X276727Y162750*
X276909Y162250*
Y161500*
X276727Y161000*
X276545Y160750*
X276000Y160500*
X274364*
X278545Y163250D02*
X279455Y158000D01*
X280364Y163250D02*
X279455Y158000D01*
X280364Y163250D02*
X281273Y158000D01*
X282182Y163250D02*
X281273Y158000D01*
X283818Y163250D02*
Y158000D01*
Y163250D02*
X285455D01*
X286000Y163000*
X286182Y162750*
X286364Y162250*
Y161750*
X286182Y161250*
X286000Y161000*
X285455Y160750*
X283818*
X285091D02*
X286364Y158000D01*
X260455Y190250D02*
X259000Y185000D01*
X260455Y190250D02*
X261909Y185000D01*
X259545Y186750D02*
X261364D01*
X263545Y190250D02*
X265000Y185000D01*
X266455Y190250D02*
X265000Y185000D01*
X268091Y190250D02*
Y185000D01*
Y190250D02*
X269727D01*
X270273Y190000*
X270455Y189750*
X270636Y189250*
Y188750*
X270455Y188250*
X270273Y188000*
X269727Y187750*
X268091*
X269364D02*
X270636Y185000D01*
X276455Y190250D02*
Y185000D01*
X280636Y189500D02*
X280273Y190000D01*
X279727Y190250*
X279000*
X278455Y190000*
X278091Y189500*
Y189000*
X278273Y188500*
X278455Y188250*
X278818Y188000*
X279909Y187500*
X280273Y187250*
X280455Y187000*
X280636Y186500*
Y185750*
X280273Y185250*
X279727Y185000*
X279000*
X278455Y185250*
X278091Y185750*
X282273Y190250D02*
Y185000D01*
Y190250D02*
X283909D01*
X284455Y190000*
X284636Y189750*
X284818Y189250*
Y188500*
X284636Y188000*
X284455Y187750*
X283909Y187500*
X282273*
X167500Y130636D02*
X172000D01*
X169750Y129000D02*
Y132273D01*
X166750Y136273D02*
Y134455D01*
X169000Y134273*
X168750Y134455*
X168500Y135000*
Y135545*
X168750Y136091*
X169250Y136455*
X170000Y136636*
X170500Y136455*
X171250Y136273*
X171750Y135909*
X172000Y135364*
Y134818*
X171750Y134273*
X171500Y134091*
X171000Y133909*
X166750Y138273D02*
X172000Y139727D01*
X166750Y141182D02*
X172000Y139727D01*
X202500Y130636D02*
X207000D01*
X204750Y129000D02*
Y132273D01*
X201750Y134273D02*
Y136273D01*
X203750Y135182*
Y135727*
X204000Y136091*
X204250Y136273*
X205000Y136455*
X205500*
X206250Y136273*
X206750Y135909*
X207000Y135364*
Y134818*
X206750Y134273*
X206500Y134091*
X206000Y133909*
X206500Y138273D02*
X206750Y138091D01*
X207000Y138273*
X206750Y138455*
X206500Y138273*
X201750Y140455D02*
Y142455D01*
X203750Y141364*
Y141909*
X204000Y142273*
X204250Y142455*
X205000Y142636*
X205500*
X206250Y142455*
X206750Y142091*
X207000Y141545*
Y141000*
X206750Y140455*
X206500Y140273*
X206000Y140091*
X201750Y144273D02*
X207000Y145727D01*
X201750Y147182D02*
X207000Y145727D01*
X200750Y152091D02*
X208750Y148818D01*
X202500Y155364D02*
X207000D01*
X204750Y153727D02*
Y157000D01*
X201750Y161000D02*
Y159182D01*
X204000Y159000*
X203750Y159182*
X203500Y159727*
Y160273*
X203750Y160818*
X204250Y161182*
X205000Y161364*
X205500Y161182*
X206250Y161000*
X206750Y160636*
X207000Y160091*
Y159545*
X206750Y159000*
X206500Y158818*
X206000Y158636*
X201750Y163000D02*
X207000Y164455D01*
X201750Y165909D02*
X207000Y164455D01*
X169636Y170500D02*
Y166000D01*
X168000Y168250D02*
X171273D01*
X175273Y171250D02*
X173455D01*
X173273Y169000*
X173455Y169250*
X174000Y169500*
X174545*
X175091Y169250*
X175455Y168750*
X175636Y168000*
X175455Y167500*
X175273Y166750*
X174909Y166250*
X174364Y166000*
X173818*
X173273Y166250*
X173091Y166500*
X172909Y167000*
X177273Y171250D02*
X178727Y166000D01*
X180182Y171250D02*
X178727Y166000D01*
X187091Y171250D02*
X186727Y171000D01*
X186364Y170500*
X186182Y170000*
X186000Y169250*
Y168000*
X186182Y167250*
X186364Y166750*
X186727Y166250*
X187091Y166000*
X187818*
X188182Y166250*
X188545Y166750*
X188727Y167250*
X188909Y168000*
Y169250*
X188727Y170000*
X188545Y170500*
X188182Y171000*
X187818Y171250*
X187091*
X190545D02*
Y166000D01*
Y171250D02*
X193091Y166000D01*
Y171250D02*
Y166000D01*
X289450Y187200D02*
X294700D01*
X290200Y191382D02*
X289700Y191018D01*
X289450Y190473*
Y189745*
X289700Y189200*
X290200Y188836*
X290700*
X291200Y189018*
X291450Y189200*
X291700Y189564*
X292200Y190655*
X292450Y191018*
X292700Y191200*
X293200Y191382*
X293950*
X294450Y191018*
X294700Y190473*
Y189745*
X294450Y189200*
X293950Y188836*
X289450Y193018D02*
X294700D01*
X289450D02*
Y194655D01*
X289700Y195200*
X289950Y195382*
X290450Y195564*
X291200*
X291700Y195382*
X291950Y195200*
X292200Y194655*
Y193018*
X289450Y201382D02*
X294700D01*
X289450D02*
Y203018D01*
X289700Y203564*
X289950Y203745*
X290450Y203927*
X291200*
X291700Y203745*
X291950Y203564*
X292200Y203018*
Y201382*
X289450Y205564D02*
X294700Y206473D01*
X289450Y207382D02*
X294700Y206473D01*
X289450Y207382D02*
X294700Y208291D01*
X289450Y209200D02*
X294700Y208291D01*
X289450Y210836D02*
X294700D01*
X289450D02*
Y212473D01*
X289700Y213018*
X289950Y213200*
X290450Y213382*
X290950*
X291450Y213200*
X291700Y213018*
X291950Y212473*
Y210836*
Y212109D02*
X294700Y213382D01*
X253000Y195250D02*
X253364Y195500D01*
X253909Y196250*
Y191000*
X224750Y131000D02*
X230000D01*
X224750D02*
Y132636D01*
X225000Y133182*
X225250Y133364*
X225750Y133545*
X226500*
X227000Y133364*
X227250Y133182*
X227500Y132636*
Y131000*
X224750Y136273D02*
X225000Y135909D01*
X225500Y135545*
X226000Y135364*
X226750Y135182*
X228000*
X228750Y135364*
X229250Y135545*
X229750Y135909*
X230000Y136273*
Y137000*
X229750Y137364*
X229250Y137727*
X228750Y137909*
X228000Y138091*
X226750*
X226000Y137909*
X225500Y137727*
X225000Y137364*
X224750Y137000*
Y136273*
Y139727D02*
X230000Y140636D01*
X224750Y141545D02*
X230000Y140636D01*
X224750Y141545D02*
X230000Y142455D01*
X224750Y143364D02*
X230000Y142455D01*
X224750Y145000D02*
X230000D01*
X224750D02*
Y147364D01*
X227250Y145000D02*
Y146455D01*
X230000Y145000D02*
Y147364D01*
X224750Y149000D02*
X230000D01*
X224750D02*
Y150636D01*
X225000Y151182*
X225250Y151364*
X225750Y151545*
X226250*
X226750Y151364*
X227000Y151182*
X227250Y150636*
Y149000*
Y150273D02*
X230000Y151545D01*
X288750Y131000D02*
X294000D01*
Y133182*
X288750Y134818D02*
X294000D01*
X288750D02*
Y137182D01*
X291250Y134818D02*
Y136273D01*
X294000Y134818D02*
Y137182D01*
X288750Y138818D02*
X294000D01*
X288750D02*
Y140091D01*
X289000Y140636*
X289500Y141000*
X290000Y141182*
X290750Y141364*
X292000*
X292750Y141182*
X293250Y141000*
X293750Y140636*
X294000Y140091*
Y138818*
X290000Y143182D02*
X289750D01*
X289250Y143364*
X289000Y143545*
X288750Y143909*
Y144636*
X289000Y145000*
X289250Y145182*
X289750Y145364*
X290250*
X290750Y145182*
X291500Y144818*
X294000Y143000*
Y145545*
X276750Y131000D02*
X282000D01*
Y133182*
X276750Y134818D02*
X282000D01*
X276750D02*
Y137182D01*
X279250Y134818D02*
Y136273D01*
X282000Y134818D02*
Y137182D01*
X276750Y138818D02*
X282000D01*
X276750D02*
Y140091D01*
X277000Y140636*
X277500Y141000*
X278000Y141182*
X278750Y141364*
X280000*
X280750Y141182*
X281250Y141000*
X281750Y140636*
X282000Y140091*
Y138818*
X277750Y143000D02*
X277500Y143364D01*
X276750Y143909*
X282000*
X152273Y194250D02*
X151909Y193750D01*
X151545Y193000*
X151182Y192000*
X151000Y190750*
Y189750*
X151182Y188500*
X151545Y187500*
X151909Y186750*
X152273Y186250*
X156091Y190750D02*
X155727Y191250D01*
X155364Y191500*
X154818*
X154455Y191250*
X154091Y190750*
X153909Y190000*
Y189500*
X154091Y188750*
X154455Y188250*
X154818Y188000*
X155364*
X155727Y188250*
X156091Y188750*
X157727Y194250D02*
X158091Y193750D01*
X158455Y193000*
X158818Y192000*
X159000Y190750*
Y189750*
X158818Y188500*
X158455Y187500*
X158091Y186750*
X157727Y186250*
X164818Y191500D02*
Y188000D01*
Y190500D02*
X165364Y191250D01*
X165727Y191500*
X166273*
X166636Y191250*
X166818Y190500*
Y188000*
Y190500D02*
X167364Y191250D01*
X167727Y191500*
X168273*
X168636Y191250*
X168818Y190500*
Y188000*
X170455Y193250D02*
X170636Y193000D01*
X170818Y193250*
X170636Y193500*
X170455Y193250*
X170636Y191500D02*
Y188000D01*
X172455Y193250D02*
Y188000D01*
Y190500D02*
X173000Y191250D01*
X173364Y191500*
X173909*
X174273Y191250*
X174455Y190500*
Y188000*
X177000Y191500D02*
X176636Y191250D01*
X176273Y190750*
X176091Y190000*
Y189500*
X176273Y188750*
X176636Y188250*
X177000Y188000*
X177545*
X177909Y188250*
X178273Y188750*
X178455Y189500*
Y190000*
X178273Y190750*
X177909Y191250*
X177545Y191500*
X177000*
X184455Y192000D02*
Y192250D01*
X184636Y192750*
X184818Y193000*
X185182Y193250*
X185909*
X186273Y193000*
X186455Y192750*
X186636Y192250*
Y191750*
X186455Y191250*
X186091Y190500*
X184273Y188000*
X186818*
X189545Y193250D02*
X189000Y193000D01*
X188636Y192250*
X188455Y191000*
Y190250*
X188636Y189000*
X189000Y188250*
X189545Y188000*
X189909*
X190455Y188250*
X190818Y189000*
X191000Y190250*
Y191000*
X190818Y192250*
X190455Y193000*
X189909Y193250*
X189545*
X192636Y192250D02*
X193000Y192500D01*
X193545Y193250*
Y188000*
X197000Y193250D02*
X195182Y189750D01*
X197909*
X197000Y193250D02*
Y188000D01*
X246000Y178250D02*
Y173000D01*
X250182Y177500D02*
X249818Y178000D01*
X249273Y178250*
X248545*
X248000Y178000*
X247636Y177500*
Y177000*
X247818Y176500*
X248000Y176250*
X248364Y176000*
X249455Y175500*
X249818Y175250*
X250000Y175000*
X250182Y174500*
Y173750*
X249818Y173250*
X249273Y173000*
X248545*
X248000Y173250*
X247636Y173750*
X251818Y178250D02*
Y173000D01*
Y178250D02*
X253455D01*
X254000Y178000*
X254182Y177750*
X254364Y177250*
Y176500*
X254182Y176000*
X254000Y175750*
X253455Y175500*
X251818*
X262727Y177500D02*
X262364Y178000D01*
X261818Y178250*
X261091*
X260545Y178000*
X260182Y177500*
Y177000*
X260364Y176500*
X260545Y176250*
X260909Y176000*
X262000Y175500*
X262364Y175250*
X262545Y175000*
X262727Y174500*
Y173750*
X262364Y173250*
X261818Y173000*
X261091*
X260545Y173250*
X260182Y173750*
X264364Y178250D02*
Y173000D01*
Y178250D02*
X266727D01*
X264364Y175750D02*
X265818D01*
X264364Y173000D02*
X266727D01*
X268364Y178250D02*
Y173000D01*
X270545*
X272182Y178250D02*
Y173000D01*
Y178250D02*
X274545D01*
X272182Y175750D02*
X273636D01*
X176750Y130000D02*
X180500D01*
X181250Y130182*
X181750Y130545*
X182000Y131091*
Y131455*
X181750Y132000*
X181250Y132364*
X180500Y132545*
X176750*
X177500Y136727D02*
X177000Y136364D01*
X176750Y135818*
Y135091*
X177000Y134545*
X177500Y134182*
X178000*
X178500Y134364*
X178750Y134545*
X179000Y134909*
X179500Y136000*
X179750Y136364*
X180000Y136545*
X180500Y136727*
X181250*
X181750Y136364*
X182000Y135818*
Y135091*
X181750Y134545*
X181250Y134182*
X176750Y138364D02*
X182000D01*
X176750D02*
Y140000D01*
X177000Y140545*
X177250Y140727*
X177750Y140909*
X178250*
X178750Y140727*
X179000Y140545*
X179250Y140000*
Y138364D02*
Y140000D01*
X179500Y140545*
X179750Y140727*
X180250Y140909*
X181000*
X181500Y140727*
X181750Y140545*
X182000Y140000*
Y138364*
X210750Y130000D02*
X216000D01*
Y132182*
X210750Y134909D02*
X211000Y134545D01*
X211500Y134182*
X212000Y134000*
X212750Y133818*
X214000*
X214750Y134000*
X215250Y134182*
X215750Y134545*
X216000Y134909*
Y135636*
X215750Y136000*
X215250Y136364*
X214750Y136545*
X214000Y136727*
X212750*
X212000Y136545*
X211500Y136364*
X211000Y136000*
X210750Y135636*
Y134909*
X212000Y141091D02*
X211500Y140909D01*
X211000Y140545*
X210750Y140182*
Y139455*
X211000Y139091*
X211500Y138727*
X212000Y138545*
X212750Y138364*
X214000*
X214750Y138545*
X215250Y138727*
X215750Y139091*
X216000Y139455*
Y140182*
X215750Y140545*
X215250Y140909*
X214750Y141091*
X210750Y144182D02*
X216000Y142727D01*
X210750Y144182D02*
X216000Y145636D01*
X214250Y143273D02*
Y145091D01*
X210750Y147273D02*
X216000D01*
Y149455*
X213032Y212938D02*
X214123Y209000D01*
X215214Y212938D02*
X214123Y209000D01*
X217395Y212938D02*
Y209000D01*
X216441Y212938D02*
X218350D01*
X221623Y212000D02*
X221486Y212375D01*
X221214Y212750*
X220941Y212938*
X220941D02*
X220395D01*
X220395D02*
X220123Y212750D01*
X219850Y212375*
X219714Y212000*
X219577Y211438*
X219577D02*
Y210500D01*
X219714Y209938*
X219714D02*
X219850Y209563D01*
X219850D02*
X220123Y209188D01*
X220123D02*
X220395Y209000D01*
X220941*
X221214Y209188*
X221214D02*
X221486Y209563D01*
X221486D02*
X221623Y209938D01*
X221623D02*
Y210500D01*
X220941D02*
X221623D01*
X212350Y204938D02*
Y201000D01*
Y204938D02*
X213441Y201000D01*
X214532Y204938D02*
X213441Y201000D01*
X214532Y204938D02*
Y201000D01*
X215759Y204938D02*
Y201000D01*
X218895Y204375D02*
X218623Y204750D01*
X218214Y204938*
X218214D02*
X217668D01*
X217668D02*
X217259Y204750D01*
X216986Y204375*
Y204000*
X217123Y203625*
X217259Y203438*
X217259D02*
X217532Y203250D01*
X218350Y202875*
X218623Y202688*
X218623D02*
X218759Y202500D01*
X218895Y202125*
Y201563*
X218895D02*
X218623Y201188D01*
X218623D02*
X218214Y201000D01*
X217668*
X217259Y201188*
X217259D02*
X216986Y201563D01*
X220941Y204938D02*
X220668Y204750D01*
X220395Y204375*
X220259Y204000*
X220123Y203438*
X220123D02*
Y202500D01*
X220259Y201938*
X220259D02*
X220395Y201563D01*
X220395D02*
X220668Y201188D01*
X220668D02*
X220941Y201000D01*
X221486*
X221759Y201188*
X221759D02*
X222032Y201563D01*
X222032D02*
X222168Y201938D01*
X222168D02*
X222305Y202500D01*
Y203438*
X222305D02*
X222168Y204000D01*
X222032Y204375*
X221759Y204750*
X221486Y204938*
X221486D02*
X220941D01*
X230077Y204375D02*
X229805Y204750D01*
X229395Y204938*
X229395D02*
X228850D01*
X228850D02*
X228441Y204750D01*
X228168Y204375*
Y204000*
X228305Y203625*
X228441Y203438*
X228441D02*
X228714Y203250D01*
X229532Y202875*
X229805Y202688*
X229805D02*
X229941Y202500D01*
X230077Y202125*
Y201563*
X230077D02*
X229805Y201188D01*
X229805D02*
X229395Y201000D01*
X228850*
X228441Y201188*
X228441D02*
X228168Y201563D01*
X233350Y204000D02*
X233214Y204375D01*
X232941Y204750*
X232668Y204938*
X232668D02*
X232123D01*
X232123D02*
X231850Y204750D01*
X231577Y204375*
X231441Y204000*
X231305Y203438*
X231305D02*
Y202500D01*
X231441Y201938*
X231441D02*
X231577Y201563D01*
X231577D02*
X231850Y201188D01*
X231850D02*
X232123Y201000D01*
X232668*
X232941Y201188*
X232941D02*
X233214Y201563D01*
X233214D02*
X233350Y201938D01*
X234577Y204938D02*
Y201000D01*
X236486Y204938D02*
X234577Y202313D01*
X235259Y203250D02*
X236486Y201000D01*
X241600Y204938D02*
Y201000D01*
Y204938D02*
X242827D01*
X242827D02*
X243236Y204750D01*
X243373Y204563*
X243373D02*
X243509Y204188D01*
X243509D02*
Y203813D01*
X243509D02*
X243373Y203438D01*
X243373D02*
X243236Y203250D01*
X242827Y203063*
X242827D02*
X241600D01*
X242555D02*
X243509Y201000D01*
X246645Y204375D02*
X246373Y204750D01*
X245964Y204938*
X245964D02*
X245418D01*
X245418D02*
X245009Y204750D01*
X244736Y204375*
Y204000*
X244873Y203625*
X245009Y203438*
X245009D02*
X245282Y203250D01*
X246100Y202875*
X246373Y202688*
X246373D02*
X246509Y202500D01*
X246645Y202125*
Y201563*
X246645D02*
X246373Y201188D01*
X246373D02*
X245964Y201000D01*
X245418*
X245009Y201188*
X245009D02*
X244736Y201563D01*
X248827Y204938D02*
Y201000D01*
X247873Y204938D02*
X249782D01*
X252100Y205688D02*
X251145Y199687D01*
X252918Y205688D02*
X251964Y199687D01*
X251145Y203250D02*
X253055D01*
X251009Y202125D02*
X252918D01*
X227350Y212938D02*
Y209000D01*
Y212938D02*
X228441Y209000D01*
X229532Y212938D02*
X228441Y209000D01*
X229532Y212938D02*
Y209000D01*
X231577Y212938D02*
X231305Y212750D01*
X231032Y212375*
X230895Y212000*
X230759Y211438*
X230759D02*
Y210500D01*
X230895Y209938*
X230895D02*
X231032Y209563D01*
X231032D02*
X231305Y209188D01*
X231305D02*
X231577Y209000D01*
X232123*
X232395Y209188*
X232395D02*
X232668Y209563D01*
X232668D02*
X232805Y209938D01*
X232805D02*
X232941Y210500D01*
Y211438*
X232941D02*
X232805Y212000D01*
X232668Y212375*
X232395Y212750*
X232123Y212938*
X232123D02*
X231577D01*
X236077Y212375D02*
X235805Y212750D01*
X235395Y212938*
X235395D02*
X234850D01*
X234850D02*
X234441Y212750D01*
X234168Y212375*
Y212000*
X234305Y211625*
X234441Y211438*
X234441D02*
X234714Y211250D01*
X235532Y210875*
X235805Y210688*
X235805D02*
X235941Y210500D01*
X236077Y210125*
Y209563*
X236077D02*
X235805Y209188D01*
X235805D02*
X235395Y209000D01*
X234850*
X234441Y209188*
X234441D02*
X234168Y209563D01*
X237305Y212938D02*
Y209000D01*
X245214Y212000D02*
X245077Y212375D01*
X244805Y212750*
X244532Y212938*
X244532D02*
X243986D01*
X243986D02*
X243714Y212750D01*
X243441Y212375*
X243305Y212000*
X243168Y211438*
X243168D02*
Y210500D01*
X243305Y209938*
X243305D02*
X243441Y209563D01*
X243441D02*
X243714Y209188D01*
X243714D02*
X243986Y209000D01*
X244532*
X244805Y209188*
X244805D02*
X245077Y209563D01*
X245077D02*
X245214Y209938D01*
X245214D02*
Y210500D01*
X244532D02*
X245214D01*
X246441Y212938D02*
Y209000D01*
Y212938D02*
X248350Y209000D01*
Y212938D02*
Y209000D01*
X249577Y212938D02*
Y209000D01*
Y212938D02*
X250532D01*
X250532D02*
X250941Y212750D01*
X251214Y212375*
X251350Y212000*
X251486Y211438*
X251486D02*
Y210500D01*
X251350Y209938*
X251350D02*
X251214Y209563D01*
X251214D02*
X250941Y209188D01*
X250941D02*
X250532Y209000D01*
X249577*
X210000Y215000D02*
X225000D01*
Y207000*
X210000*
Y215000*
X225000D02*
X240000D01*
Y207000*
X225000*
Y215000*
X240000D02*
X255000D01*
Y207000*
X240000*
Y215000*
X210000Y207000D02*
X225000D01*
Y199000*
X210000*
Y207000*
X225000D02*
X240000D01*
Y199000*
X225000*
Y207000*
X240000D02*
X255000D01*
Y199000*
X240000*
Y207000*
G74*
X0Y0D02*
M02*
