G04 #@! TF.GenerationSoftware,KiCad,Pcbnew,(5.99.0-311-g81ce588a0)*
G04 #@! TF.CreationDate,2019-11-06T10:45:11+01:00*
G04 #@! TF.ProjectId,PROGLOG01A,50524f47-4c4f-4473-9031-412e6b696361,REV*
G04 #@! TF.SameCoordinates,Original*
G04 #@! TF.FileFunction,Legend,Top*
G04 #@! TF.FilePolarity,Positive*
%FSLAX46Y46*%
G04 Gerber Fmt 4.6, Leading zero omitted, Abs format (unit mm)*
G04 Created by KiCad (PCBNEW (5.99.0-311-g81ce588a0)) date 2019-11-06 10:45:11*
%MOMM*%
%LPD*%
G04 APERTURE LIST*
%ADD10C,0.300000*%
%ADD11C,0.200000*%
%ADD12C,0.120000*%
%ADD13C,0.150000*%
%ADD14C,0.127000*%
%ADD15C,0.050000*%
%ADD16C,0.203200*%
G04 APERTURE END LIST*
D10*
X171916595Y-111294166D02*
X171916595Y-110489404D01*
X172411833Y-110922738D01*
X172411833Y-110737023D01*
X172473738Y-110613214D01*
X172535642Y-110551309D01*
X172659452Y-110489404D01*
X172968976Y-110489404D01*
X173092785Y-110551309D01*
X173154690Y-110613214D01*
X173216595Y-110737023D01*
X173216595Y-111108452D01*
X173154690Y-111232261D01*
X173092785Y-111294166D01*
X171916595Y-110056071D02*
X171916595Y-109189404D01*
X173216595Y-109746547D01*
X173216595Y-108137023D02*
X172535642Y-108137023D01*
X172411833Y-108198928D01*
X172349928Y-108322738D01*
X172349928Y-108570357D01*
X172411833Y-108694166D01*
X173154690Y-108137023D02*
X173216595Y-108260833D01*
X173216595Y-108570357D01*
X173154690Y-108694166D01*
X173030880Y-108756071D01*
X172907071Y-108756071D01*
X172783261Y-108694166D01*
X172721357Y-108570357D01*
X172721357Y-108260833D01*
X172659452Y-108137023D01*
X174009595Y-111294166D02*
X174009595Y-110489404D01*
X174504833Y-110922738D01*
X174504833Y-110737023D01*
X174566738Y-110613214D01*
X174628642Y-110551309D01*
X174752452Y-110489404D01*
X175061976Y-110489404D01*
X175185785Y-110551309D01*
X175247690Y-110613214D01*
X175309595Y-110737023D01*
X175309595Y-111108452D01*
X175247690Y-111232261D01*
X175185785Y-111294166D01*
X174009595Y-109375119D02*
X174009595Y-109622738D01*
X174071500Y-109746547D01*
X174133404Y-109808452D01*
X174319119Y-109932261D01*
X174566738Y-109994166D01*
X175061976Y-109994166D01*
X175185785Y-109932261D01*
X175247690Y-109870357D01*
X175309595Y-109746547D01*
X175309595Y-109498928D01*
X175247690Y-109375119D01*
X175185785Y-109313214D01*
X175061976Y-109251309D01*
X174752452Y-109251309D01*
X174628642Y-109313214D01*
X174566738Y-109375119D01*
X174504833Y-109498928D01*
X174504833Y-109746547D01*
X174566738Y-109870357D01*
X174628642Y-109932261D01*
X174752452Y-109994166D01*
X175309595Y-108694166D02*
X174009595Y-108694166D01*
X174504833Y-108694166D02*
X174442928Y-108570357D01*
X174442928Y-108322738D01*
X174504833Y-108198928D01*
X174566738Y-108137023D01*
X174690547Y-108075119D01*
X175061976Y-108075119D01*
X175185785Y-108137023D01*
X175247690Y-108198928D01*
X175309595Y-108322738D01*
X175309595Y-108570357D01*
X175247690Y-108694166D01*
X176102595Y-111294166D02*
X176102595Y-110489404D01*
X176597833Y-110922738D01*
X176597833Y-110737023D01*
X176659738Y-110613214D01*
X176721642Y-110551309D01*
X176845452Y-110489404D01*
X177154976Y-110489404D01*
X177278785Y-110551309D01*
X177340690Y-110613214D01*
X177402595Y-110737023D01*
X177402595Y-111108452D01*
X177340690Y-111232261D01*
X177278785Y-111294166D01*
X177402595Y-109870357D02*
X177402595Y-109622738D01*
X177340690Y-109498928D01*
X177278785Y-109437023D01*
X177093071Y-109313214D01*
X176845452Y-109251309D01*
X176350214Y-109251309D01*
X176226404Y-109313214D01*
X176164500Y-109375119D01*
X176102595Y-109498928D01*
X176102595Y-109746547D01*
X176164500Y-109870357D01*
X176226404Y-109932261D01*
X176350214Y-109994166D01*
X176659738Y-109994166D01*
X176783547Y-109932261D01*
X176845452Y-109870357D01*
X176907357Y-109746547D01*
X176907357Y-109498928D01*
X176845452Y-109375119D01*
X176783547Y-109313214D01*
X176659738Y-109251309D01*
X177402595Y-108137023D02*
X176721642Y-108137023D01*
X176597833Y-108198928D01*
X176535928Y-108322738D01*
X176535928Y-108570357D01*
X176597833Y-108694166D01*
X177340690Y-108137023D02*
X177402595Y-108260833D01*
X177402595Y-108570357D01*
X177340690Y-108694166D01*
X177216880Y-108756071D01*
X177093071Y-108756071D01*
X176969261Y-108694166D01*
X176907357Y-108570357D01*
X176907357Y-108260833D01*
X176845452Y-108137023D01*
X178195595Y-111294166D02*
X178195595Y-110489404D01*
X178690833Y-110922738D01*
X178690833Y-110737023D01*
X178752738Y-110613214D01*
X178814642Y-110551309D01*
X178938452Y-110489404D01*
X179247976Y-110489404D01*
X179371785Y-110551309D01*
X179433690Y-110613214D01*
X179495595Y-110737023D01*
X179495595Y-111108452D01*
X179433690Y-111232261D01*
X179371785Y-111294166D01*
X178752738Y-109746547D02*
X178690833Y-109870357D01*
X178628928Y-109932261D01*
X178505119Y-109994166D01*
X178443214Y-109994166D01*
X178319404Y-109932261D01*
X178257500Y-109870357D01*
X178195595Y-109746547D01*
X178195595Y-109498928D01*
X178257500Y-109375119D01*
X178319404Y-109313214D01*
X178443214Y-109251309D01*
X178505119Y-109251309D01*
X178628928Y-109313214D01*
X178690833Y-109375119D01*
X178752738Y-109498928D01*
X178752738Y-109746547D01*
X178814642Y-109870357D01*
X178876547Y-109932261D01*
X179000357Y-109994166D01*
X179247976Y-109994166D01*
X179371785Y-109932261D01*
X179433690Y-109870357D01*
X179495595Y-109746547D01*
X179495595Y-109498928D01*
X179433690Y-109375119D01*
X179371785Y-109313214D01*
X179247976Y-109251309D01*
X179000357Y-109251309D01*
X178876547Y-109313214D01*
X178814642Y-109375119D01*
X178752738Y-109498928D01*
X179495595Y-108694166D02*
X178195595Y-108694166D01*
X178690833Y-108694166D02*
X178628928Y-108570357D01*
X178628928Y-108322738D01*
X178690833Y-108198928D01*
X178752738Y-108137023D01*
X178876547Y-108075119D01*
X179247976Y-108075119D01*
X179371785Y-108137023D01*
X179433690Y-108198928D01*
X179495595Y-108322738D01*
X179495595Y-108570357D01*
X179433690Y-108694166D01*
D11*
X166497000Y-119761000D02*
X167005000Y-119761000D01*
X165481000Y-120396000D02*
X165481000Y-120269000D01*
X165481000Y-120777000D02*
X165481000Y-120396000D01*
X165989000Y-120777000D02*
X165481000Y-120777000D01*
X165481000Y-120777000D02*
X165989000Y-120777000D01*
X166497000Y-119761000D02*
X165481000Y-120777000D01*
X172466000Y-118364000D02*
X169926000Y-118364000D01*
X172466000Y-129794000D02*
X172466000Y-118364000D01*
X167386000Y-118364000D02*
X167386000Y-129794000D01*
X169926000Y-118364000D02*
X167386000Y-118364000D01*
X169926000Y-129794000D02*
X169926000Y-118364000D01*
X169926000Y-120015000D02*
X167386000Y-120015000D01*
X169926000Y-121539000D02*
X167386000Y-121539000D01*
X169926000Y-125730000D02*
X167386000Y-125730000D01*
X172466000Y-121666000D02*
X169926000Y-121666000D01*
X172466000Y-124460000D02*
X169926000Y-124460000D01*
X172466000Y-128016000D02*
X169926000Y-128016000D01*
D10*
X165778571Y-131928571D02*
X164278571Y-131928571D01*
X164278571Y-131357142D01*
X164350000Y-131214285D01*
X164421428Y-131142857D01*
X164564285Y-131071428D01*
X164778571Y-131071428D01*
X164921428Y-131142857D01*
X164992857Y-131214285D01*
X165064285Y-131357142D01*
X165064285Y-131928571D01*
X165778571Y-129571428D02*
X165064285Y-130071428D01*
X165778571Y-130428571D02*
X164278571Y-130428571D01*
X164278571Y-129857142D01*
X164350000Y-129714285D01*
X164421428Y-129642857D01*
X164564285Y-129571428D01*
X164778571Y-129571428D01*
X164921428Y-129642857D01*
X164992857Y-129714285D01*
X165064285Y-129857142D01*
X165064285Y-130428571D01*
X164278571Y-128642857D02*
X164278571Y-128357142D01*
X164350000Y-128214285D01*
X164492857Y-128071428D01*
X164778571Y-128000000D01*
X165278571Y-128000000D01*
X165564285Y-128071428D01*
X165707142Y-128214285D01*
X165778571Y-128357142D01*
X165778571Y-128642857D01*
X165707142Y-128785714D01*
X165564285Y-128928571D01*
X165278571Y-129000000D01*
X164778571Y-129000000D01*
X164492857Y-128928571D01*
X164350000Y-128785714D01*
X164278571Y-128642857D01*
X164350000Y-126571428D02*
X164278571Y-126714285D01*
X164278571Y-126928571D01*
X164350000Y-127142857D01*
X164492857Y-127285714D01*
X164635714Y-127357142D01*
X164921428Y-127428571D01*
X165135714Y-127428571D01*
X165421428Y-127357142D01*
X165564285Y-127285714D01*
X165707142Y-127142857D01*
X165778571Y-126928571D01*
X165778571Y-126785714D01*
X165707142Y-126571428D01*
X165635714Y-126500000D01*
X165135714Y-126500000D01*
X165135714Y-126785714D01*
X165778571Y-125000000D02*
X165064285Y-125500000D01*
X165778571Y-125857142D02*
X164278571Y-125857142D01*
X164278571Y-125285714D01*
X164350000Y-125142857D01*
X164421428Y-125071428D01*
X164564285Y-125000000D01*
X164778571Y-125000000D01*
X164921428Y-125071428D01*
X164992857Y-125142857D01*
X165064285Y-125285714D01*
X165064285Y-125857142D01*
X165350000Y-124428571D02*
X165350000Y-123714285D01*
X165778571Y-124571428D02*
X164278571Y-124071428D01*
X165778571Y-123571428D01*
X165778571Y-123071428D02*
X164278571Y-123071428D01*
X165350000Y-122571428D01*
X164278571Y-122071428D01*
X165778571Y-122071428D01*
D11*
X170307000Y-121031000D02*
X170307000Y-118999000D01*
X167767000Y-129413000D02*
X167767000Y-126111000D01*
D10*
X171976190Y-121041571D02*
X172038095Y-120855857D01*
X172038095Y-120546333D01*
X171976190Y-120422523D01*
X171914285Y-120360619D01*
X171790476Y-120298714D01*
X171666666Y-120298714D01*
X171542857Y-120360619D01*
X171480952Y-120422523D01*
X171419047Y-120546333D01*
X171357142Y-120793952D01*
X171295238Y-120917761D01*
X171233333Y-120979666D01*
X171109523Y-121041571D01*
X170985714Y-121041571D01*
X170861904Y-120979666D01*
X170800000Y-120917761D01*
X170738095Y-120793952D01*
X170738095Y-120484428D01*
X170800000Y-120298714D01*
X171976190Y-119803476D02*
X172038095Y-119617761D01*
X172038095Y-119308238D01*
X171976190Y-119184428D01*
X171914285Y-119122523D01*
X171790476Y-119060619D01*
X171666666Y-119060619D01*
X171542857Y-119122523D01*
X171480952Y-119184428D01*
X171419047Y-119308238D01*
X171357142Y-119555857D01*
X171295238Y-119679666D01*
X171233333Y-119741571D01*
X171109523Y-119803476D01*
X170985714Y-119803476D01*
X170861904Y-119741571D01*
X170800000Y-119679666D01*
X170738095Y-119555857D01*
X170738095Y-119246333D01*
X170800000Y-119060619D01*
X170800000Y-128608523D02*
X170738095Y-128732333D01*
X170738095Y-128918047D01*
X170800000Y-129103761D01*
X170923809Y-129227571D01*
X171047619Y-129289476D01*
X171295238Y-129351380D01*
X171480952Y-129351380D01*
X171728571Y-129289476D01*
X171852380Y-129227571D01*
X171976190Y-129103761D01*
X172038095Y-128918047D01*
X172038095Y-128794238D01*
X171976190Y-128608523D01*
X171914285Y-128546619D01*
X171480952Y-128546619D01*
X171480952Y-128794238D01*
X171976190Y-127290380D02*
X172038095Y-127104666D01*
X172038095Y-126795142D01*
X171976190Y-126671333D01*
X171914285Y-126609428D01*
X171790476Y-126547523D01*
X171666666Y-126547523D01*
X171542857Y-126609428D01*
X171480952Y-126671333D01*
X171419047Y-126795142D01*
X171357142Y-127042761D01*
X171295238Y-127166571D01*
X171233333Y-127228476D01*
X171109523Y-127290380D01*
X170985714Y-127290380D01*
X170861904Y-127228476D01*
X170800000Y-127166571D01*
X170738095Y-127042761D01*
X170738095Y-126733238D01*
X170800000Y-126547523D01*
X170738095Y-125742761D02*
X170738095Y-125495142D01*
X170800000Y-125371333D01*
X170923809Y-125247523D01*
X171171428Y-125185619D01*
X171604761Y-125185619D01*
X171852380Y-125247523D01*
X171976190Y-125371333D01*
X172038095Y-125495142D01*
X172038095Y-125742761D01*
X171976190Y-125866571D01*
X171852380Y-125990380D01*
X171604761Y-126052285D01*
X171171428Y-126052285D01*
X170923809Y-125990380D01*
X170800000Y-125866571D01*
X170738095Y-125742761D01*
X168260000Y-118912523D02*
X168198095Y-119036333D01*
X168198095Y-119222047D01*
X168260000Y-119407761D01*
X168383809Y-119531571D01*
X168507619Y-119593476D01*
X168755238Y-119655380D01*
X168940952Y-119655380D01*
X169188571Y-119593476D01*
X169312380Y-119531571D01*
X169436190Y-119407761D01*
X169498095Y-119222047D01*
X169498095Y-119098238D01*
X169436190Y-118912523D01*
X169374285Y-118850619D01*
X168940952Y-118850619D01*
X168940952Y-119098238D01*
X168260000Y-120436523D02*
X168198095Y-120560333D01*
X168198095Y-120746047D01*
X168260000Y-120931761D01*
X168383809Y-121055571D01*
X168507619Y-121117476D01*
X168755238Y-121179380D01*
X168940952Y-121179380D01*
X169188571Y-121117476D01*
X169312380Y-121055571D01*
X169436190Y-120931761D01*
X169498095Y-120746047D01*
X169498095Y-120622238D01*
X169436190Y-120436523D01*
X169374285Y-120374619D01*
X168940952Y-120374619D01*
X168940952Y-120622238D01*
X169498095Y-128546619D02*
X168879047Y-128979952D01*
X169498095Y-129289476D02*
X168198095Y-129289476D01*
X168198095Y-128794238D01*
X168260000Y-128670428D01*
X168321904Y-128608523D01*
X168445714Y-128546619D01*
X168631428Y-128546619D01*
X168755238Y-128608523D01*
X168817142Y-128670428D01*
X168879047Y-128794238D01*
X168879047Y-129289476D01*
X169436190Y-128051380D02*
X169498095Y-127865666D01*
X169498095Y-127556142D01*
X169436190Y-127432333D01*
X169374285Y-127370428D01*
X169250476Y-127308523D01*
X169126666Y-127308523D01*
X169002857Y-127370428D01*
X168940952Y-127432333D01*
X168879047Y-127556142D01*
X168817142Y-127803761D01*
X168755238Y-127927571D01*
X168693333Y-127989476D01*
X168569523Y-128051380D01*
X168445714Y-128051380D01*
X168321904Y-127989476D01*
X168260000Y-127927571D01*
X168198095Y-127803761D01*
X168198095Y-127494238D01*
X168260000Y-127308523D01*
X168198095Y-126937095D02*
X168198095Y-126194238D01*
X169498095Y-126565666D02*
X168198095Y-126565666D01*
X171976190Y-123743952D02*
X172038095Y-123558238D01*
X172038095Y-123248714D01*
X171976190Y-123124904D01*
X171914285Y-123063000D01*
X171790476Y-123001095D01*
X171666666Y-123001095D01*
X171542857Y-123063000D01*
X171480952Y-123124904D01*
X171419047Y-123248714D01*
X171357142Y-123496333D01*
X171295238Y-123620142D01*
X171233333Y-123682047D01*
X171109523Y-123743952D01*
X170985714Y-123743952D01*
X170861904Y-123682047D01*
X170800000Y-123620142D01*
X170738095Y-123496333D01*
X170738095Y-123186809D01*
X170800000Y-123001095D01*
X172038095Y-122443952D02*
X170738095Y-122443952D01*
X169436190Y-125242428D02*
X169498095Y-125056714D01*
X169498095Y-124747190D01*
X169436190Y-124623380D01*
X169374285Y-124561476D01*
X169250476Y-124499571D01*
X169126666Y-124499571D01*
X169002857Y-124561476D01*
X168940952Y-124623380D01*
X168879047Y-124747190D01*
X168817142Y-124994809D01*
X168755238Y-125118619D01*
X168693333Y-125180523D01*
X168569523Y-125242428D01*
X168445714Y-125242428D01*
X168321904Y-125180523D01*
X168260000Y-125118619D01*
X168198095Y-124994809D01*
X168198095Y-124685285D01*
X168260000Y-124499571D01*
X169374285Y-123199571D02*
X169436190Y-123261476D01*
X169498095Y-123447190D01*
X169498095Y-123571000D01*
X169436190Y-123756714D01*
X169312380Y-123880523D01*
X169188571Y-123942428D01*
X168940952Y-124004333D01*
X168755238Y-124004333D01*
X168507619Y-123942428D01*
X168383809Y-123880523D01*
X168260000Y-123756714D01*
X168198095Y-123571000D01*
X168198095Y-123447190D01*
X168260000Y-123261476D01*
X168321904Y-123199571D01*
X169498095Y-122642428D02*
X168198095Y-122642428D01*
X169498095Y-121899571D02*
X168755238Y-122456714D01*
X168198095Y-121899571D02*
X168940952Y-122642428D01*
D11*
X167386000Y-129794000D02*
X172466000Y-129794000D01*
D10*
X184846619Y-124887904D02*
X184908523Y-124826000D01*
X185032333Y-124764095D01*
X185341857Y-124764095D01*
X185465666Y-124826000D01*
X185527571Y-124887904D01*
X185589476Y-125011714D01*
X185589476Y-125135523D01*
X185527571Y-125321238D01*
X184784714Y-126064095D01*
X185589476Y-126064095D01*
X186022809Y-124764095D02*
X186827571Y-124764095D01*
X186394238Y-125259333D01*
X186579952Y-125259333D01*
X186703761Y-125321238D01*
X186765666Y-125383142D01*
X186827571Y-125506952D01*
X186827571Y-125816476D01*
X186765666Y-125940285D01*
X186703761Y-126002190D01*
X186579952Y-126064095D01*
X186208523Y-126064095D01*
X186084714Y-126002190D01*
X186022809Y-125940285D01*
X187384714Y-126064095D02*
X187384714Y-124764095D01*
X187384714Y-125259333D02*
X187508523Y-125197428D01*
X187756142Y-125197428D01*
X187879952Y-125259333D01*
X187941857Y-125321238D01*
X188003761Y-125445047D01*
X188003761Y-125816476D01*
X187941857Y-125940285D01*
X187879952Y-126002190D01*
X187756142Y-126064095D01*
X187508523Y-126064095D01*
X187384714Y-126002190D01*
D11*
X191008000Y-129540000D02*
X191008000Y-128524000D01*
X186690000Y-133858000D02*
X191008000Y-129540000D01*
X185674000Y-133858000D02*
X186690000Y-133858000D01*
X186436000Y-133096000D02*
X190246000Y-129286000D01*
X184150000Y-135382000D02*
X184150000Y-135890000D01*
X185674000Y-133858000D02*
X184150000Y-135382000D01*
X180086000Y-135382000D02*
X180086000Y-135890000D01*
X182372000Y-133096000D02*
X180086000Y-135382000D01*
X182626000Y-133096000D02*
X182372000Y-133096000D01*
X186182000Y-133096000D02*
X186436000Y-133096000D01*
X182626000Y-133096000D02*
X186182000Y-133096000D01*
X190246000Y-129286000D02*
X190246000Y-128524000D01*
D10*
X165778571Y-118490571D02*
X164278571Y-118490571D01*
X165778571Y-117776285D02*
X164278571Y-117776285D01*
X165778571Y-116919142D01*
X164278571Y-116919142D01*
X164278571Y-115204857D02*
X164278571Y-114276285D01*
X164850000Y-114776285D01*
X164850000Y-114562000D01*
X164921428Y-114419142D01*
X164992857Y-114347714D01*
X165135714Y-114276285D01*
X165492857Y-114276285D01*
X165635714Y-114347714D01*
X165707142Y-114419142D01*
X165778571Y-114562000D01*
X165778571Y-114990571D01*
X165707142Y-115133428D01*
X165635714Y-115204857D01*
X164278571Y-113847714D02*
X165778571Y-113347714D01*
X164278571Y-112847714D01*
X164278571Y-112490571D02*
X164278571Y-111562000D01*
X164850000Y-112062000D01*
X164850000Y-111847714D01*
X164921428Y-111704857D01*
X164992857Y-111633428D01*
X165135714Y-111562000D01*
X165492857Y-111562000D01*
X165635714Y-111633428D01*
X165707142Y-111704857D01*
X165778571Y-111847714D01*
X165778571Y-112276285D01*
X165707142Y-112419142D01*
X165635714Y-112490571D01*
X198734071Y-129765357D02*
X197234071Y-129765357D01*
X197234071Y-129193928D01*
X197305500Y-129051071D01*
X197376928Y-128979642D01*
X197519785Y-128908214D01*
X197734071Y-128908214D01*
X197876928Y-128979642D01*
X197948357Y-129051071D01*
X198019785Y-129193928D01*
X198019785Y-129765357D01*
X198734071Y-127408214D02*
X198019785Y-127908214D01*
X198734071Y-128265357D02*
X197234071Y-128265357D01*
X197234071Y-127693928D01*
X197305500Y-127551071D01*
X197376928Y-127479642D01*
X197519785Y-127408214D01*
X197734071Y-127408214D01*
X197876928Y-127479642D01*
X197948357Y-127551071D01*
X198019785Y-127693928D01*
X198019785Y-128265357D01*
X197234071Y-126479642D02*
X197234071Y-126193928D01*
X197305500Y-126051071D01*
X197448357Y-125908214D01*
X197734071Y-125836785D01*
X198234071Y-125836785D01*
X198519785Y-125908214D01*
X198662642Y-126051071D01*
X198734071Y-126193928D01*
X198734071Y-126479642D01*
X198662642Y-126622500D01*
X198519785Y-126765357D01*
X198234071Y-126836785D01*
X197734071Y-126836785D01*
X197448357Y-126765357D01*
X197305500Y-126622500D01*
X197234071Y-126479642D01*
X197305500Y-124408214D02*
X197234071Y-124551071D01*
X197234071Y-124765357D01*
X197305500Y-124979642D01*
X197448357Y-125122500D01*
X197591214Y-125193928D01*
X197876928Y-125265357D01*
X198091214Y-125265357D01*
X198376928Y-125193928D01*
X198519785Y-125122500D01*
X198662642Y-124979642D01*
X198734071Y-124765357D01*
X198734071Y-124622500D01*
X198662642Y-124408214D01*
X198591214Y-124336785D01*
X198091214Y-124336785D01*
X198091214Y-124622500D01*
X198734071Y-122979642D02*
X198734071Y-123693928D01*
X197234071Y-123693928D01*
X197234071Y-122193928D02*
X197234071Y-121908214D01*
X197305500Y-121765357D01*
X197448357Y-121622500D01*
X197734071Y-121551071D01*
X198234071Y-121551071D01*
X198519785Y-121622500D01*
X198662642Y-121765357D01*
X198734071Y-121908214D01*
X198734071Y-122193928D01*
X198662642Y-122336785D01*
X198519785Y-122479642D01*
X198234071Y-122551071D01*
X197734071Y-122551071D01*
X197448357Y-122479642D01*
X197305500Y-122336785D01*
X197234071Y-122193928D01*
X197305500Y-120122500D02*
X197234071Y-120265357D01*
X197234071Y-120479642D01*
X197305500Y-120693928D01*
X197448357Y-120836785D01*
X197591214Y-120908214D01*
X197876928Y-120979642D01*
X198091214Y-120979642D01*
X198376928Y-120908214D01*
X198519785Y-120836785D01*
X198662642Y-120693928D01*
X198734071Y-120479642D01*
X198734071Y-120336785D01*
X198662642Y-120122500D01*
X198591214Y-120051071D01*
X198091214Y-120051071D01*
X198091214Y-120336785D01*
X197234071Y-119122500D02*
X197234071Y-118979642D01*
X197305500Y-118836785D01*
X197376928Y-118765357D01*
X197519785Y-118693928D01*
X197805500Y-118622500D01*
X198162642Y-118622500D01*
X198448357Y-118693928D01*
X198591214Y-118765357D01*
X198662642Y-118836785D01*
X198734071Y-118979642D01*
X198734071Y-119122500D01*
X198662642Y-119265357D01*
X198591214Y-119336785D01*
X198448357Y-119408214D01*
X198162642Y-119479642D01*
X197805500Y-119479642D01*
X197519785Y-119408214D01*
X197376928Y-119336785D01*
X197305500Y-119265357D01*
X197234071Y-119122500D01*
X198734071Y-117193928D02*
X198734071Y-118051071D01*
X198734071Y-117622500D02*
X197234071Y-117622500D01*
X197448357Y-117765357D01*
X197591214Y-117908214D01*
X197662642Y-118051071D01*
X198305500Y-116622500D02*
X198305500Y-115908214D01*
X198734071Y-116765357D02*
X197234071Y-116265357D01*
X198734071Y-115765357D01*
X201149071Y-127193928D02*
X199649071Y-127193928D01*
X200720500Y-126693928D01*
X199649071Y-126193928D01*
X201149071Y-126193928D01*
X201149071Y-124765357D02*
X201149071Y-125479642D01*
X199649071Y-125479642D01*
X200720500Y-124336785D02*
X200720500Y-123622500D01*
X201149071Y-124479642D02*
X199649071Y-123979642D01*
X201149071Y-123479642D01*
X200363357Y-122479642D02*
X200434785Y-122265357D01*
X200506214Y-122193928D01*
X200649071Y-122122500D01*
X200863357Y-122122500D01*
X201006214Y-122193928D01*
X201077642Y-122265357D01*
X201149071Y-122408214D01*
X201149071Y-122979642D01*
X199649071Y-122979642D01*
X199649071Y-122479642D01*
X199720500Y-122336785D01*
X199791928Y-122265357D01*
X199934785Y-122193928D01*
X200077642Y-122193928D01*
X200220500Y-122265357D01*
X200291928Y-122336785D01*
X200363357Y-122479642D01*
X200363357Y-122979642D01*
X201006214Y-121479642D02*
X201077642Y-121408214D01*
X201149071Y-121479642D01*
X201077642Y-121551071D01*
X201006214Y-121479642D01*
X201149071Y-121479642D01*
X201006214Y-119908214D02*
X201077642Y-119979642D01*
X201149071Y-120193928D01*
X201149071Y-120336785D01*
X201077642Y-120551071D01*
X200934785Y-120693928D01*
X200791928Y-120765357D01*
X200506214Y-120836785D01*
X200291928Y-120836785D01*
X200006214Y-120765357D01*
X199863357Y-120693928D01*
X199720500Y-120551071D01*
X199649071Y-120336785D01*
X199649071Y-120193928D01*
X199720500Y-119979642D01*
X199791928Y-119908214D01*
X199649071Y-119408214D02*
X199649071Y-118408214D01*
X201149071Y-119408214D01*
X201149071Y-118408214D01*
X203957071Y-130043714D02*
X205457071Y-130043714D01*
X204028500Y-130043714D02*
X203957071Y-129900857D01*
X203957071Y-129615142D01*
X204028500Y-129472285D01*
X204099928Y-129400857D01*
X204242785Y-129329428D01*
X204671357Y-129329428D01*
X204814214Y-129400857D01*
X204885642Y-129472285D01*
X204957071Y-129615142D01*
X204957071Y-129900857D01*
X204885642Y-130043714D01*
X204957071Y-128472285D02*
X204885642Y-128615142D01*
X204814214Y-128686571D01*
X204671357Y-128758000D01*
X204242785Y-128758000D01*
X204099928Y-128686571D01*
X204028500Y-128615142D01*
X203957071Y-128472285D01*
X203957071Y-128258000D01*
X204028500Y-128115142D01*
X204099928Y-128043714D01*
X204242785Y-127972285D01*
X204671357Y-127972285D01*
X204814214Y-128043714D01*
X204885642Y-128115142D01*
X204957071Y-128258000D01*
X204957071Y-128472285D01*
X203957071Y-127472285D02*
X204957071Y-127115142D01*
X203957071Y-126758000D01*
X204957071Y-126186571D02*
X203957071Y-126186571D01*
X203457071Y-126186571D02*
X203528500Y-126258000D01*
X203599928Y-126186571D01*
X203528500Y-126115142D01*
X203457071Y-126186571D01*
X203599928Y-126186571D01*
X204957071Y-125472285D02*
X203457071Y-125472285D01*
X204385642Y-125329428D02*
X204957071Y-124900857D01*
X203957071Y-124900857D02*
X204528500Y-125472285D01*
X206014928Y-130079428D02*
X205943500Y-130008000D01*
X205872071Y-129865142D01*
X205872071Y-129508000D01*
X205943500Y-129365142D01*
X206014928Y-129293714D01*
X206157785Y-129222285D01*
X206300642Y-129222285D01*
X206514928Y-129293714D01*
X207372071Y-130150857D01*
X207372071Y-129222285D01*
X205872071Y-128293714D02*
X205872071Y-128150857D01*
X205943500Y-128008000D01*
X206014928Y-127936571D01*
X206157785Y-127865142D01*
X206443500Y-127793714D01*
X206800642Y-127793714D01*
X207086357Y-127865142D01*
X207229214Y-127936571D01*
X207300642Y-128008000D01*
X207372071Y-128150857D01*
X207372071Y-128293714D01*
X207300642Y-128436571D01*
X207229214Y-128508000D01*
X207086357Y-128579428D01*
X206800642Y-128650857D01*
X206443500Y-128650857D01*
X206157785Y-128579428D01*
X206014928Y-128508000D01*
X205943500Y-128436571D01*
X205872071Y-128293714D01*
X207372071Y-126365142D02*
X207372071Y-127222285D01*
X207372071Y-126793714D02*
X205872071Y-126793714D01*
X206086357Y-126936571D01*
X206229214Y-127079428D01*
X206300642Y-127222285D01*
X207372071Y-125650857D02*
X207372071Y-125365142D01*
X207300642Y-125222285D01*
X207229214Y-125150857D01*
X207014928Y-125008000D01*
X206729214Y-124936571D01*
X206157785Y-124936571D01*
X206014928Y-125008000D01*
X205943500Y-125079428D01*
X205872071Y-125222285D01*
X205872071Y-125508000D01*
X205943500Y-125650857D01*
X206014928Y-125722285D01*
X206157785Y-125793714D01*
X206514928Y-125793714D01*
X206657785Y-125722285D01*
X206729214Y-125650857D01*
X206800642Y-125508000D01*
X206800642Y-125222285D01*
X206729214Y-125079428D01*
X206657785Y-125008000D01*
X206514928Y-124936571D01*
X190326095Y-127276619D02*
X189707047Y-127709952D01*
X190326095Y-128019476D02*
X189026095Y-128019476D01*
X189026095Y-127524238D01*
X189088000Y-127400428D01*
X189149904Y-127338523D01*
X189273714Y-127276619D01*
X189459428Y-127276619D01*
X189583238Y-127338523D01*
X189645142Y-127400428D01*
X189707047Y-127524238D01*
X189707047Y-128019476D01*
X189088000Y-126038523D02*
X189026095Y-126162333D01*
X189026095Y-126348047D01*
X189088000Y-126533761D01*
X189211809Y-126657571D01*
X189335619Y-126719476D01*
X189583238Y-126781380D01*
X189768952Y-126781380D01*
X190016571Y-126719476D01*
X190140380Y-126657571D01*
X190264190Y-126533761D01*
X190326095Y-126348047D01*
X190326095Y-126224238D01*
X190264190Y-126038523D01*
X190202285Y-125976619D01*
X189768952Y-125976619D01*
X189768952Y-126224238D01*
X189645142Y-124986142D02*
X189707047Y-124800428D01*
X189768952Y-124738523D01*
X189892761Y-124676619D01*
X190078476Y-124676619D01*
X190202285Y-124738523D01*
X190264190Y-124800428D01*
X190326095Y-124924238D01*
X190326095Y-125419476D01*
X189026095Y-125419476D01*
X189026095Y-124986142D01*
X189088000Y-124862333D01*
X189149904Y-124800428D01*
X189273714Y-124738523D01*
X189397523Y-124738523D01*
X189521333Y-124800428D01*
X189583238Y-124862333D01*
X189645142Y-124986142D01*
X189645142Y-125419476D01*
X189149904Y-124181380D02*
X189088000Y-124119476D01*
X189026095Y-123995666D01*
X189026095Y-123686142D01*
X189088000Y-123562333D01*
X189149904Y-123500428D01*
X189273714Y-123438523D01*
X189397523Y-123438523D01*
X189583238Y-123500428D01*
X190326095Y-124243285D01*
X190326095Y-123438523D01*
X192104095Y-127276619D02*
X191485047Y-127709952D01*
X192104095Y-128019476D02*
X190804095Y-128019476D01*
X190804095Y-127524238D01*
X190866000Y-127400428D01*
X190927904Y-127338523D01*
X191051714Y-127276619D01*
X191237428Y-127276619D01*
X191361238Y-127338523D01*
X191423142Y-127400428D01*
X191485047Y-127524238D01*
X191485047Y-128019476D01*
X190866000Y-126038523D02*
X190804095Y-126162333D01*
X190804095Y-126348047D01*
X190866000Y-126533761D01*
X190989809Y-126657571D01*
X191113619Y-126719476D01*
X191361238Y-126781380D01*
X191546952Y-126781380D01*
X191794571Y-126719476D01*
X191918380Y-126657571D01*
X192042190Y-126533761D01*
X192104095Y-126348047D01*
X192104095Y-126224238D01*
X192042190Y-126038523D01*
X191980285Y-125976619D01*
X191546952Y-125976619D01*
X191546952Y-126224238D01*
X191423142Y-124986142D02*
X191485047Y-124800428D01*
X191546952Y-124738523D01*
X191670761Y-124676619D01*
X191856476Y-124676619D01*
X191980285Y-124738523D01*
X192042190Y-124800428D01*
X192104095Y-124924238D01*
X192104095Y-125419476D01*
X190804095Y-125419476D01*
X190804095Y-124986142D01*
X190866000Y-124862333D01*
X190927904Y-124800428D01*
X191051714Y-124738523D01*
X191175523Y-124738523D01*
X191299333Y-124800428D01*
X191361238Y-124862333D01*
X191423142Y-124986142D01*
X191423142Y-125419476D01*
X192104095Y-123438523D02*
X192104095Y-124181380D01*
X192104095Y-123809952D02*
X190804095Y-123809952D01*
X190989809Y-123933761D01*
X191113619Y-124057571D01*
X191175523Y-124181380D01*
X170033428Y-132250571D02*
X169533428Y-131536285D01*
X169176285Y-132250571D02*
X169176285Y-130750571D01*
X169747714Y-130750571D01*
X169890571Y-130822000D01*
X169962000Y-130893428D01*
X170033428Y-131036285D01*
X170033428Y-131250571D01*
X169962000Y-131393428D01*
X169890571Y-131464857D01*
X169747714Y-131536285D01*
X169176285Y-131536285D01*
X170676285Y-131464857D02*
X171176285Y-131464857D01*
X171390571Y-132250571D02*
X170676285Y-132250571D01*
X170676285Y-130750571D01*
X171390571Y-130750571D01*
X171962000Y-132179142D02*
X172176285Y-132250571D01*
X172533428Y-132250571D01*
X172676285Y-132179142D01*
X172747714Y-132107714D01*
X172819142Y-131964857D01*
X172819142Y-131822000D01*
X172747714Y-131679142D01*
X172676285Y-131607714D01*
X172533428Y-131536285D01*
X172247714Y-131464857D01*
X172104857Y-131393428D01*
X172033428Y-131322000D01*
X171962000Y-131179142D01*
X171962000Y-131036285D01*
X172033428Y-130893428D01*
X172104857Y-130822000D01*
X172247714Y-130750571D01*
X172604857Y-130750571D01*
X172819142Y-130822000D01*
X173462000Y-131464857D02*
X173962000Y-131464857D01*
X174176285Y-132250571D02*
X173462000Y-132250571D01*
X173462000Y-130750571D01*
X174176285Y-130750571D01*
X174604857Y-130750571D02*
X175462000Y-130750571D01*
X175033428Y-132250571D02*
X175033428Y-130750571D01*
X178357595Y-123453904D02*
X177057595Y-123453904D01*
X177057595Y-123144380D01*
X177119500Y-122958666D01*
X177243309Y-122834857D01*
X177367119Y-122772952D01*
X177614738Y-122711047D01*
X177800452Y-122711047D01*
X178048071Y-122772952D01*
X178171880Y-122834857D01*
X178295690Y-122958666D01*
X178357595Y-123144380D01*
X178357595Y-123453904D01*
X177676642Y-122153904D02*
X177676642Y-121720571D01*
X178357595Y-121534857D02*
X178357595Y-122153904D01*
X177057595Y-122153904D01*
X177057595Y-121534857D01*
X177057595Y-121163428D02*
X177057595Y-120420571D01*
X178357595Y-120792000D02*
X177057595Y-120792000D01*
X177986166Y-120049142D02*
X177986166Y-119430095D01*
X178357595Y-120172952D02*
X177057595Y-119739619D01*
X178357595Y-119306285D01*
X178233785Y-118130095D02*
X178295690Y-118192000D01*
X178357595Y-118377714D01*
X178357595Y-118501523D01*
X178295690Y-118687238D01*
X178171880Y-118811047D01*
X178048071Y-118872952D01*
X177800452Y-118934857D01*
X177614738Y-118934857D01*
X177367119Y-118872952D01*
X177243309Y-118811047D01*
X177119500Y-118687238D01*
X177057595Y-118501523D01*
X177057595Y-118377714D01*
X177119500Y-118192000D01*
X177181404Y-118130095D01*
X178357595Y-117572952D02*
X177057595Y-117572952D01*
X177676642Y-117572952D02*
X177676642Y-116830095D01*
X178357595Y-116830095D02*
X177057595Y-116830095D01*
X179769642Y-122339619D02*
X179769642Y-122772952D01*
X180450595Y-122772952D02*
X179150595Y-122772952D01*
X179150595Y-122153904D01*
X180450595Y-121039619D02*
X180450595Y-121658666D01*
X179150595Y-121658666D01*
X180079166Y-120668190D02*
X180079166Y-120049142D01*
X180450595Y-120792000D02*
X179150595Y-120358666D01*
X180450595Y-119925333D01*
X180388690Y-119553904D02*
X180450595Y-119368190D01*
X180450595Y-119058666D01*
X180388690Y-118934857D01*
X180326785Y-118872952D01*
X180202976Y-118811047D01*
X180079166Y-118811047D01*
X179955357Y-118872952D01*
X179893452Y-118934857D01*
X179831547Y-119058666D01*
X179769642Y-119306285D01*
X179707738Y-119430095D01*
X179645833Y-119492000D01*
X179522023Y-119553904D01*
X179398214Y-119553904D01*
X179274404Y-119492000D01*
X179212500Y-119430095D01*
X179150595Y-119306285D01*
X179150595Y-118996761D01*
X179212500Y-118811047D01*
X180450595Y-118253904D02*
X179150595Y-118253904D01*
X179769642Y-118253904D02*
X179769642Y-117511047D01*
X180450595Y-117511047D02*
X179150595Y-117511047D01*
X171329000Y-114604095D02*
X171762333Y-115904095D01*
X172195666Y-114604095D01*
X173371857Y-115780285D02*
X173309952Y-115842190D01*
X173124238Y-115904095D01*
X173000428Y-115904095D01*
X172814714Y-115842190D01*
X172690904Y-115718380D01*
X172629000Y-115594571D01*
X172567095Y-115346952D01*
X172567095Y-115161238D01*
X172629000Y-114913619D01*
X172690904Y-114789809D01*
X172814714Y-114666000D01*
X173000428Y-114604095D01*
X173124238Y-114604095D01*
X173309952Y-114666000D01*
X173371857Y-114727904D01*
X174671857Y-115780285D02*
X174609952Y-115842190D01*
X174424238Y-115904095D01*
X174300428Y-115904095D01*
X174114714Y-115842190D01*
X173990904Y-115718380D01*
X173929000Y-115594571D01*
X173867095Y-115346952D01*
X173867095Y-115161238D01*
X173929000Y-114913619D01*
X173990904Y-114789809D01*
X174114714Y-114666000D01*
X174300428Y-114604095D01*
X174424238Y-114604095D01*
X174609952Y-114666000D01*
X174671857Y-114727904D01*
X175229000Y-115904095D02*
X175229000Y-114604095D01*
X176095666Y-114604095D02*
X176343285Y-114604095D01*
X176467095Y-114666000D01*
X176590904Y-114789809D01*
X176652809Y-115037428D01*
X176652809Y-115470761D01*
X176590904Y-115718380D01*
X176467095Y-115842190D01*
X176343285Y-115904095D01*
X176095666Y-115904095D01*
X175971857Y-115842190D01*
X175848047Y-115718380D01*
X175786142Y-115470761D01*
X175786142Y-115037428D01*
X175848047Y-114789809D01*
X175971857Y-114666000D01*
X176095666Y-114604095D01*
X176900428Y-116027904D02*
X177890904Y-116027904D01*
X178138523Y-114727904D02*
X178200428Y-114666000D01*
X178324238Y-114604095D01*
X178633761Y-114604095D01*
X178757571Y-114666000D01*
X178819476Y-114727904D01*
X178881380Y-114851714D01*
X178881380Y-114975523D01*
X178819476Y-115161238D01*
X178076619Y-115904095D01*
X178881380Y-115904095D01*
X171329000Y-112064095D02*
X171762333Y-113364095D01*
X172195666Y-112064095D01*
X173371857Y-113240285D02*
X173309952Y-113302190D01*
X173124238Y-113364095D01*
X173000428Y-113364095D01*
X172814714Y-113302190D01*
X172690904Y-113178380D01*
X172629000Y-113054571D01*
X172567095Y-112806952D01*
X172567095Y-112621238D01*
X172629000Y-112373619D01*
X172690904Y-112249809D01*
X172814714Y-112126000D01*
X173000428Y-112064095D01*
X173124238Y-112064095D01*
X173309952Y-112126000D01*
X173371857Y-112187904D01*
X174671857Y-113240285D02*
X174609952Y-113302190D01*
X174424238Y-113364095D01*
X174300428Y-113364095D01*
X174114714Y-113302190D01*
X173990904Y-113178380D01*
X173929000Y-113054571D01*
X173867095Y-112806952D01*
X173867095Y-112621238D01*
X173929000Y-112373619D01*
X173990904Y-112249809D01*
X174114714Y-112126000D01*
X174300428Y-112064095D01*
X174424238Y-112064095D01*
X174609952Y-112126000D01*
X174671857Y-112187904D01*
X175229000Y-113364095D02*
X175229000Y-112064095D01*
X176095666Y-112064095D02*
X176343285Y-112064095D01*
X176467095Y-112126000D01*
X176590904Y-112249809D01*
X176652809Y-112497428D01*
X176652809Y-112930761D01*
X176590904Y-113178380D01*
X176467095Y-113302190D01*
X176343285Y-113364095D01*
X176095666Y-113364095D01*
X175971857Y-113302190D01*
X175848047Y-113178380D01*
X175786142Y-112930761D01*
X175786142Y-112497428D01*
X175848047Y-112249809D01*
X175971857Y-112126000D01*
X176095666Y-112064095D01*
X176900428Y-113487904D02*
X177890904Y-113487904D01*
X178448047Y-112064095D02*
X178571857Y-112064095D01*
X178695666Y-112126000D01*
X178757571Y-112187904D01*
X178819476Y-112311714D01*
X178881380Y-112559333D01*
X178881380Y-112868857D01*
X178819476Y-113116476D01*
X178757571Y-113240285D01*
X178695666Y-113302190D01*
X178571857Y-113364095D01*
X178448047Y-113364095D01*
X178324238Y-113302190D01*
X178262333Y-113240285D01*
X178200428Y-113116476D01*
X178138523Y-112868857D01*
X178138523Y-112559333D01*
X178200428Y-112311714D01*
X178262333Y-112187904D01*
X178324238Y-112126000D01*
X178448047Y-112064095D01*
X184784714Y-129844095D02*
X185589476Y-129844095D01*
X185156142Y-130339333D01*
X185341857Y-130339333D01*
X185465666Y-130401238D01*
X185527571Y-130463142D01*
X185589476Y-130586952D01*
X185589476Y-130896476D01*
X185527571Y-131020285D01*
X185465666Y-131082190D01*
X185341857Y-131144095D01*
X184970428Y-131144095D01*
X184846619Y-131082190D01*
X184784714Y-131020285D01*
X186827571Y-131144095D02*
X186084714Y-131144095D01*
X186456142Y-131144095D02*
X186456142Y-129844095D01*
X186332333Y-130029809D01*
X186208523Y-130153619D01*
X186084714Y-130215523D01*
X187384714Y-131144095D02*
X187384714Y-129844095D01*
X187384714Y-130339333D02*
X187508523Y-130277428D01*
X187756142Y-130277428D01*
X187879952Y-130339333D01*
X187941857Y-130401238D01*
X188003761Y-130525047D01*
X188003761Y-130896476D01*
X187941857Y-131020285D01*
X187879952Y-131082190D01*
X187756142Y-131144095D01*
X187508523Y-131144095D01*
X187384714Y-131082190D01*
X184846619Y-127427904D02*
X184908523Y-127366000D01*
X185032333Y-127304095D01*
X185341857Y-127304095D01*
X185465666Y-127366000D01*
X185527571Y-127427904D01*
X185589476Y-127551714D01*
X185589476Y-127675523D01*
X185527571Y-127861238D01*
X184784714Y-128604095D01*
X185589476Y-128604095D01*
X186208523Y-128604095D02*
X186456142Y-128604095D01*
X186579952Y-128542190D01*
X186641857Y-128480285D01*
X186765666Y-128294571D01*
X186827571Y-128046952D01*
X186827571Y-127551714D01*
X186765666Y-127427904D01*
X186703761Y-127366000D01*
X186579952Y-127304095D01*
X186332333Y-127304095D01*
X186208523Y-127366000D01*
X186146619Y-127427904D01*
X186084714Y-127551714D01*
X186084714Y-127861238D01*
X186146619Y-127985047D01*
X186208523Y-128046952D01*
X186332333Y-128108857D01*
X186579952Y-128108857D01*
X186703761Y-128046952D01*
X186765666Y-127985047D01*
X186827571Y-127861238D01*
X187384714Y-128604095D02*
X187384714Y-127304095D01*
X187384714Y-127799333D02*
X187508523Y-127737428D01*
X187756142Y-127737428D01*
X187879952Y-127799333D01*
X187941857Y-127861238D01*
X188003761Y-127985047D01*
X188003761Y-128356476D01*
X187941857Y-128480285D01*
X187879952Y-128542190D01*
X187756142Y-128604095D01*
X187508523Y-128604095D01*
X187384714Y-128542190D01*
X210093380Y-129844095D02*
X209845761Y-129844095D01*
X209721952Y-129906000D01*
X209660047Y-129967904D01*
X209536238Y-130153619D01*
X209474333Y-130401238D01*
X209474333Y-130896476D01*
X209536238Y-131020285D01*
X209598142Y-131082190D01*
X209721952Y-131144095D01*
X209969571Y-131144095D01*
X210093380Y-131082190D01*
X210155285Y-131020285D01*
X210217190Y-130896476D01*
X210217190Y-130586952D01*
X210155285Y-130463142D01*
X210093380Y-130401238D01*
X209969571Y-130339333D01*
X209721952Y-130339333D01*
X209598142Y-130401238D01*
X209536238Y-130463142D01*
X209474333Y-130586952D01*
X211331476Y-131144095D02*
X211331476Y-130463142D01*
X211269571Y-130339333D01*
X211145761Y-130277428D01*
X210898142Y-130277428D01*
X210774333Y-130339333D01*
X211331476Y-131082190D02*
X211207666Y-131144095D01*
X210898142Y-131144095D01*
X210774333Y-131082190D01*
X210712428Y-130958380D01*
X210712428Y-130834571D01*
X210774333Y-130710761D01*
X210898142Y-130648857D01*
X211207666Y-130648857D01*
X211331476Y-130586952D01*
X210093380Y-127737428D02*
X210093380Y-128604095D01*
X209783857Y-127242190D02*
X209474333Y-128170761D01*
X210279095Y-128170761D01*
X211331476Y-128604095D02*
X211331476Y-127923142D01*
X211269571Y-127799333D01*
X211145761Y-127737428D01*
X210898142Y-127737428D01*
X210774333Y-127799333D01*
X211331476Y-128542190D02*
X211207666Y-128604095D01*
X210898142Y-128604095D01*
X210774333Y-128542190D01*
X210712428Y-128418380D01*
X210712428Y-128294571D01*
X210774333Y-128170761D01*
X210898142Y-128108857D01*
X211207666Y-128108857D01*
X211331476Y-128046952D01*
X209474333Y-124887904D02*
X209536238Y-124826000D01*
X209660047Y-124764095D01*
X209969571Y-124764095D01*
X210093380Y-124826000D01*
X210155285Y-124887904D01*
X210217190Y-125011714D01*
X210217190Y-125135523D01*
X210155285Y-125321238D01*
X209412428Y-126064095D01*
X210217190Y-126064095D01*
X211331476Y-126064095D02*
X211331476Y-125383142D01*
X211269571Y-125259333D01*
X211145761Y-125197428D01*
X210898142Y-125197428D01*
X210774333Y-125259333D01*
X211331476Y-126002190D02*
X211207666Y-126064095D01*
X210898142Y-126064095D01*
X210774333Y-126002190D01*
X210712428Y-125878380D01*
X210712428Y-125754571D01*
X210774333Y-125630761D01*
X210898142Y-125568857D01*
X211207666Y-125568857D01*
X211331476Y-125506952D01*
X209783857Y-122224095D02*
X209907666Y-122224095D01*
X210031476Y-122286000D01*
X210093380Y-122347904D01*
X210155285Y-122471714D01*
X210217190Y-122719333D01*
X210217190Y-123028857D01*
X210155285Y-123276476D01*
X210093380Y-123400285D01*
X210031476Y-123462190D01*
X209907666Y-123524095D01*
X209783857Y-123524095D01*
X209660047Y-123462190D01*
X209598142Y-123400285D01*
X209536238Y-123276476D01*
X209474333Y-123028857D01*
X209474333Y-122719333D01*
X209536238Y-122471714D01*
X209598142Y-122347904D01*
X209660047Y-122286000D01*
X209783857Y-122224095D01*
X211331476Y-123524095D02*
X211331476Y-122843142D01*
X211269571Y-122719333D01*
X211145761Y-122657428D01*
X210898142Y-122657428D01*
X210774333Y-122719333D01*
X211331476Y-123462190D02*
X211207666Y-123524095D01*
X210898142Y-123524095D01*
X210774333Y-123462190D01*
X210712428Y-123338380D01*
X210712428Y-123214571D01*
X210774333Y-123090761D01*
X210898142Y-123028857D01*
X211207666Y-123028857D01*
X211331476Y-122966952D01*
X210155285Y-119684095D02*
X209536238Y-119684095D01*
X209474333Y-120303142D01*
X209536238Y-120241238D01*
X209660047Y-120179333D01*
X209969571Y-120179333D01*
X210093380Y-120241238D01*
X210155285Y-120303142D01*
X210217190Y-120426952D01*
X210217190Y-120736476D01*
X210155285Y-120860285D01*
X210093380Y-120922190D01*
X209969571Y-120984095D01*
X209660047Y-120984095D01*
X209536238Y-120922190D01*
X209474333Y-120860285D01*
X210774333Y-120984095D02*
X210774333Y-119684095D01*
X210774333Y-120179333D02*
X210898142Y-120117428D01*
X211145761Y-120117428D01*
X211269571Y-120179333D01*
X211331476Y-120241238D01*
X211393380Y-120365047D01*
X211393380Y-120736476D01*
X211331476Y-120860285D01*
X211269571Y-120922190D01*
X211145761Y-120984095D01*
X210898142Y-120984095D01*
X210774333Y-120922190D01*
X206317190Y-117206000D02*
X206193380Y-117144095D01*
X206007666Y-117144095D01*
X205821952Y-117206000D01*
X205698142Y-117329809D01*
X205636238Y-117453619D01*
X205574333Y-117701238D01*
X205574333Y-117886952D01*
X205636238Y-118134571D01*
X205698142Y-118258380D01*
X205821952Y-118382190D01*
X206007666Y-118444095D01*
X206131476Y-118444095D01*
X206317190Y-118382190D01*
X206379095Y-118320285D01*
X206379095Y-117886952D01*
X206131476Y-117886952D01*
X207493380Y-117144095D02*
X207245761Y-117144095D01*
X207121952Y-117206000D01*
X207060047Y-117267904D01*
X206936238Y-117453619D01*
X206874333Y-117701238D01*
X206874333Y-118196476D01*
X206936238Y-118320285D01*
X206998142Y-118382190D01*
X207121952Y-118444095D01*
X207369571Y-118444095D01*
X207493380Y-118382190D01*
X207555285Y-118320285D01*
X207617190Y-118196476D01*
X207617190Y-117886952D01*
X207555285Y-117763142D01*
X207493380Y-117701238D01*
X207369571Y-117639333D01*
X207121952Y-117639333D01*
X206998142Y-117701238D01*
X206936238Y-117763142D01*
X206874333Y-117886952D01*
X209102904Y-117082190D02*
X207988619Y-118753619D01*
X209412428Y-117144095D02*
X210217190Y-117144095D01*
X209783857Y-117639333D01*
X209969571Y-117639333D01*
X210093380Y-117701238D01*
X210155285Y-117763142D01*
X210217190Y-117886952D01*
X210217190Y-118196476D01*
X210155285Y-118320285D01*
X210093380Y-118382190D01*
X209969571Y-118444095D01*
X209598142Y-118444095D01*
X209474333Y-118382190D01*
X209412428Y-118320285D01*
X210774333Y-118444095D02*
X210774333Y-117144095D01*
X210774333Y-117639333D02*
X210898142Y-117577428D01*
X211145761Y-117577428D01*
X211269571Y-117639333D01*
X211331476Y-117701238D01*
X211393380Y-117825047D01*
X211393380Y-118196476D01*
X211331476Y-118320285D01*
X211269571Y-118382190D01*
X211145761Y-118444095D01*
X210898142Y-118444095D01*
X210774333Y-118382190D01*
X208855285Y-115037428D02*
X208855285Y-115904095D01*
X208545761Y-114542190D02*
X208236238Y-115470761D01*
X209041000Y-115470761D01*
X209598142Y-115904095D02*
X209845761Y-115904095D01*
X209969571Y-115842190D01*
X210031476Y-115780285D01*
X210155285Y-115594571D01*
X210217190Y-115346952D01*
X210217190Y-114851714D01*
X210155285Y-114727904D01*
X210093380Y-114666000D01*
X209969571Y-114604095D01*
X209721952Y-114604095D01*
X209598142Y-114666000D01*
X209536238Y-114727904D01*
X209474333Y-114851714D01*
X209474333Y-115161238D01*
X209536238Y-115285047D01*
X209598142Y-115346952D01*
X209721952Y-115408857D01*
X209969571Y-115408857D01*
X210093380Y-115346952D01*
X210155285Y-115285047D01*
X210217190Y-115161238D01*
X211331476Y-115904095D02*
X211331476Y-115223142D01*
X211269571Y-115099333D01*
X211145761Y-115037428D01*
X210898142Y-115037428D01*
X210774333Y-115099333D01*
X211331476Y-115842190D02*
X211207666Y-115904095D01*
X210898142Y-115904095D01*
X210774333Y-115842190D01*
X210712428Y-115718380D01*
X210712428Y-115594571D01*
X210774333Y-115470761D01*
X210898142Y-115408857D01*
X211207666Y-115408857D01*
X211331476Y-115346952D01*
X208917190Y-112064095D02*
X208298142Y-112064095D01*
X208236238Y-112683142D01*
X208298142Y-112621238D01*
X208421952Y-112559333D01*
X208731476Y-112559333D01*
X208855285Y-112621238D01*
X208917190Y-112683142D01*
X208979095Y-112806952D01*
X208979095Y-113116476D01*
X208917190Y-113240285D01*
X208855285Y-113302190D01*
X208731476Y-113364095D01*
X208421952Y-113364095D01*
X208298142Y-113302190D01*
X208236238Y-113240285D01*
X210217190Y-113364095D02*
X209474333Y-113364095D01*
X209845761Y-113364095D02*
X209845761Y-112064095D01*
X209721952Y-112249809D01*
X209598142Y-112373619D01*
X209474333Y-112435523D01*
X211331476Y-113364095D02*
X211331476Y-112683142D01*
X211269571Y-112559333D01*
X211145761Y-112497428D01*
X210898142Y-112497428D01*
X210774333Y-112559333D01*
X211331476Y-113302190D02*
X211207666Y-113364095D01*
X210898142Y-113364095D01*
X210774333Y-113302190D01*
X210712428Y-113178380D01*
X210712428Y-113054571D01*
X210774333Y-112930761D01*
X210898142Y-112868857D01*
X211207666Y-112868857D01*
X211331476Y-112806952D01*
X186411428Y-110676714D02*
X187278095Y-110676714D01*
X185916190Y-110986238D02*
X186844761Y-111295761D01*
X186844761Y-110491000D01*
X187278095Y-109314809D02*
X187278095Y-110057666D01*
X187278095Y-109686238D02*
X185978095Y-109686238D01*
X186163809Y-109810047D01*
X186287619Y-109933857D01*
X186349523Y-110057666D01*
X187278095Y-108200523D02*
X186597142Y-108200523D01*
X186473333Y-108262428D01*
X186411428Y-108386238D01*
X186411428Y-108633857D01*
X186473333Y-108757666D01*
X187216190Y-108200523D02*
X187278095Y-108324333D01*
X187278095Y-108633857D01*
X187216190Y-108757666D01*
X187092380Y-108819571D01*
X186968571Y-108819571D01*
X186844761Y-108757666D01*
X186782857Y-108633857D01*
X186782857Y-108324333D01*
X186720952Y-108200523D01*
X188951428Y-110676714D02*
X189818095Y-110676714D01*
X188456190Y-110986238D02*
X189384761Y-111295761D01*
X189384761Y-110491000D01*
X188641904Y-110057666D02*
X188580000Y-109995761D01*
X188518095Y-109871952D01*
X188518095Y-109562428D01*
X188580000Y-109438619D01*
X188641904Y-109376714D01*
X188765714Y-109314809D01*
X188889523Y-109314809D01*
X189075238Y-109376714D01*
X189818095Y-110119571D01*
X189818095Y-109314809D01*
X189818095Y-108757666D02*
X188518095Y-108757666D01*
X189013333Y-108757666D02*
X188951428Y-108633857D01*
X188951428Y-108386238D01*
X189013333Y-108262428D01*
X189075238Y-108200523D01*
X189199047Y-108138619D01*
X189570476Y-108138619D01*
X189694285Y-108200523D01*
X189756190Y-108262428D01*
X189818095Y-108386238D01*
X189818095Y-108633857D01*
X189756190Y-108757666D01*
X191491428Y-110676714D02*
X192358095Y-110676714D01*
X190996190Y-110986238D02*
X191924761Y-111295761D01*
X191924761Y-110491000D01*
X191058095Y-110119571D02*
X191058095Y-109314809D01*
X191553333Y-109748142D01*
X191553333Y-109562428D01*
X191615238Y-109438619D01*
X191677142Y-109376714D01*
X191800952Y-109314809D01*
X192110476Y-109314809D01*
X192234285Y-109376714D01*
X192296190Y-109438619D01*
X192358095Y-109562428D01*
X192358095Y-109933857D01*
X192296190Y-110057666D01*
X192234285Y-110119571D01*
X192358095Y-108200523D02*
X191677142Y-108200523D01*
X191553333Y-108262428D01*
X191491428Y-108386238D01*
X191491428Y-108633857D01*
X191553333Y-108757666D01*
X192296190Y-108200523D02*
X192358095Y-108324333D01*
X192358095Y-108633857D01*
X192296190Y-108757666D01*
X192172380Y-108819571D01*
X192048571Y-108819571D01*
X191924761Y-108757666D01*
X191862857Y-108633857D01*
X191862857Y-108324333D01*
X191800952Y-108200523D01*
X194031428Y-110676714D02*
X194898095Y-110676714D01*
X193536190Y-110986238D02*
X194464761Y-111295761D01*
X194464761Y-110491000D01*
X194031428Y-109438619D02*
X194898095Y-109438619D01*
X193536190Y-109748142D02*
X194464761Y-110057666D01*
X194464761Y-109252904D01*
X194898095Y-108757666D02*
X193598095Y-108757666D01*
X194093333Y-108757666D02*
X194031428Y-108633857D01*
X194031428Y-108386238D01*
X194093333Y-108262428D01*
X194155238Y-108200523D01*
X194279047Y-108138619D01*
X194650476Y-108138619D01*
X194774285Y-108200523D01*
X194836190Y-108262428D01*
X194898095Y-108386238D01*
X194898095Y-108633857D01*
X194836190Y-108757666D01*
X196200000Y-114452904D02*
X196138095Y-114576714D01*
X196138095Y-114762428D01*
X196200000Y-114948142D01*
X196323809Y-115071952D01*
X196447619Y-115133857D01*
X196695238Y-115195761D01*
X196880952Y-115195761D01*
X197128571Y-115133857D01*
X197252380Y-115071952D01*
X197376190Y-114948142D01*
X197438095Y-114762428D01*
X197438095Y-114638619D01*
X197376190Y-114452904D01*
X197314285Y-114391000D01*
X196880952Y-114391000D01*
X196880952Y-114638619D01*
X196138095Y-113586238D02*
X196138095Y-113462428D01*
X196200000Y-113338619D01*
X196261904Y-113276714D01*
X196385714Y-113214809D01*
X196633333Y-113152904D01*
X196942857Y-113152904D01*
X197190476Y-113214809D01*
X197314285Y-113276714D01*
X197376190Y-113338619D01*
X197438095Y-113462428D01*
X197438095Y-113586238D01*
X197376190Y-113710047D01*
X197314285Y-113771952D01*
X197190476Y-113833857D01*
X196942857Y-113895761D01*
X196633333Y-113895761D01*
X196385714Y-113833857D01*
X196261904Y-113771952D01*
X196200000Y-113710047D01*
X196138095Y-113586238D01*
X196076190Y-111667190D02*
X197747619Y-112781476D01*
X196571428Y-110676714D02*
X197438095Y-110676714D01*
X196076190Y-110986238D02*
X197004761Y-111295761D01*
X197004761Y-110491000D01*
X196138095Y-109438619D02*
X196138095Y-109686238D01*
X196200000Y-109810047D01*
X196261904Y-109871952D01*
X196447619Y-109995761D01*
X196695238Y-110057666D01*
X197190476Y-110057666D01*
X197314285Y-109995761D01*
X197376190Y-109933857D01*
X197438095Y-109810047D01*
X197438095Y-109562428D01*
X197376190Y-109438619D01*
X197314285Y-109376714D01*
X197190476Y-109314809D01*
X196880952Y-109314809D01*
X196757142Y-109376714D01*
X196695238Y-109438619D01*
X196633333Y-109562428D01*
X196633333Y-109810047D01*
X196695238Y-109933857D01*
X196757142Y-109995761D01*
X196880952Y-110057666D01*
X197438095Y-108757666D02*
X196138095Y-108757666D01*
X196633333Y-108757666D02*
X196571428Y-108633857D01*
X196571428Y-108386238D01*
X196633333Y-108262428D01*
X196695238Y-108200523D01*
X196819047Y-108138619D01*
X197190476Y-108138619D01*
X197314285Y-108200523D01*
X197376190Y-108262428D01*
X197438095Y-108386238D01*
X197438095Y-108633857D01*
X197376190Y-108757666D01*
X199111428Y-110676714D02*
X199978095Y-110676714D01*
X198616190Y-110986238D02*
X199544761Y-111295761D01*
X199544761Y-110491000D01*
X199235238Y-109810047D02*
X199173333Y-109933857D01*
X199111428Y-109995761D01*
X198987619Y-110057666D01*
X198925714Y-110057666D01*
X198801904Y-109995761D01*
X198740000Y-109933857D01*
X198678095Y-109810047D01*
X198678095Y-109562428D01*
X198740000Y-109438619D01*
X198801904Y-109376714D01*
X198925714Y-109314809D01*
X198987619Y-109314809D01*
X199111428Y-109376714D01*
X199173333Y-109438619D01*
X199235238Y-109562428D01*
X199235238Y-109810047D01*
X199297142Y-109933857D01*
X199359047Y-109995761D01*
X199482857Y-110057666D01*
X199730476Y-110057666D01*
X199854285Y-109995761D01*
X199916190Y-109933857D01*
X199978095Y-109810047D01*
X199978095Y-109562428D01*
X199916190Y-109438619D01*
X199854285Y-109376714D01*
X199730476Y-109314809D01*
X199482857Y-109314809D01*
X199359047Y-109376714D01*
X199297142Y-109438619D01*
X199235238Y-109562428D01*
X199978095Y-108757666D02*
X198678095Y-108757666D01*
X199173333Y-108757666D02*
X199111428Y-108633857D01*
X199111428Y-108386238D01*
X199173333Y-108262428D01*
X199235238Y-108200523D01*
X199359047Y-108138619D01*
X199730476Y-108138619D01*
X199854285Y-108200523D01*
X199916190Y-108262428D01*
X199978095Y-108386238D01*
X199978095Y-108633857D01*
X199916190Y-108757666D01*
X201280000Y-114452904D02*
X201218095Y-114576714D01*
X201218095Y-114762428D01*
X201280000Y-114948142D01*
X201403809Y-115071952D01*
X201527619Y-115133857D01*
X201775238Y-115195761D01*
X201960952Y-115195761D01*
X202208571Y-115133857D01*
X202332380Y-115071952D01*
X202456190Y-114948142D01*
X202518095Y-114762428D01*
X202518095Y-114638619D01*
X202456190Y-114452904D01*
X202394285Y-114391000D01*
X201960952Y-114391000D01*
X201960952Y-114638619D01*
X202518095Y-113152904D02*
X202518095Y-113895761D01*
X202518095Y-113524333D02*
X201218095Y-113524333D01*
X201403809Y-113648142D01*
X201527619Y-113771952D01*
X201589523Y-113895761D01*
X201156190Y-111667190D02*
X202827619Y-112781476D01*
X201651428Y-110676714D02*
X202518095Y-110676714D01*
X201156190Y-110986238D02*
X202084761Y-111295761D01*
X202084761Y-110491000D01*
X201218095Y-109376714D02*
X201218095Y-109995761D01*
X201837142Y-110057666D01*
X201775238Y-109995761D01*
X201713333Y-109871952D01*
X201713333Y-109562428D01*
X201775238Y-109438619D01*
X201837142Y-109376714D01*
X201960952Y-109314809D01*
X202270476Y-109314809D01*
X202394285Y-109376714D01*
X202456190Y-109438619D01*
X202518095Y-109562428D01*
X202518095Y-109871952D01*
X202456190Y-109995761D01*
X202394285Y-110057666D01*
X202518095Y-108200523D02*
X201837142Y-108200523D01*
X201713333Y-108262428D01*
X201651428Y-108386238D01*
X201651428Y-108633857D01*
X201713333Y-108757666D01*
X202456190Y-108200523D02*
X202518095Y-108324333D01*
X202518095Y-108633857D01*
X202456190Y-108757666D01*
X202332380Y-108819571D01*
X202208571Y-108819571D01*
X202084761Y-108757666D01*
X202022857Y-108633857D01*
X202022857Y-108324333D01*
X201960952Y-108200523D01*
X203758095Y-110614809D02*
X203758095Y-111233857D01*
X204377142Y-111295761D01*
X204315238Y-111233857D01*
X204253333Y-111110047D01*
X204253333Y-110800523D01*
X204315238Y-110676714D01*
X204377142Y-110614809D01*
X204500952Y-110552904D01*
X204810476Y-110552904D01*
X204934285Y-110614809D01*
X204996190Y-110676714D01*
X205058095Y-110800523D01*
X205058095Y-111110047D01*
X204996190Y-111233857D01*
X204934285Y-111295761D01*
X203758095Y-109748142D02*
X203758095Y-109624333D01*
X203820000Y-109500523D01*
X203881904Y-109438619D01*
X204005714Y-109376714D01*
X204253333Y-109314809D01*
X204562857Y-109314809D01*
X204810476Y-109376714D01*
X204934285Y-109438619D01*
X204996190Y-109500523D01*
X205058095Y-109624333D01*
X205058095Y-109748142D01*
X204996190Y-109871952D01*
X204934285Y-109933857D01*
X204810476Y-109995761D01*
X204562857Y-110057666D01*
X204253333Y-110057666D01*
X204005714Y-109995761D01*
X203881904Y-109933857D01*
X203820000Y-109871952D01*
X203758095Y-109748142D01*
X205058095Y-108757666D02*
X203758095Y-108757666D01*
X204253333Y-108757666D02*
X204191428Y-108633857D01*
X204191428Y-108386238D01*
X204253333Y-108262428D01*
X204315238Y-108200523D01*
X204439047Y-108138619D01*
X204810476Y-108138619D01*
X204934285Y-108200523D01*
X204996190Y-108262428D01*
X205058095Y-108386238D01*
X205058095Y-108633857D01*
X204996190Y-108757666D01*
X207598095Y-111976714D02*
X206979047Y-112410047D01*
X207598095Y-112719571D02*
X206298095Y-112719571D01*
X206298095Y-112224333D01*
X206360000Y-112100523D01*
X206421904Y-112038619D01*
X206545714Y-111976714D01*
X206731428Y-111976714D01*
X206855238Y-112038619D01*
X206917142Y-112100523D01*
X206979047Y-112224333D01*
X206979047Y-112719571D01*
X206360000Y-110738619D02*
X206298095Y-110862428D01*
X206298095Y-111048142D01*
X206360000Y-111233857D01*
X206483809Y-111357666D01*
X206607619Y-111419571D01*
X206855238Y-111481476D01*
X207040952Y-111481476D01*
X207288571Y-111419571D01*
X207412380Y-111357666D01*
X207536190Y-111233857D01*
X207598095Y-111048142D01*
X207598095Y-110924333D01*
X207536190Y-110738619D01*
X207474285Y-110676714D01*
X207040952Y-110676714D01*
X207040952Y-110924333D01*
X206917142Y-109686238D02*
X206979047Y-109500523D01*
X207040952Y-109438619D01*
X207164761Y-109376714D01*
X207350476Y-109376714D01*
X207474285Y-109438619D01*
X207536190Y-109500523D01*
X207598095Y-109624333D01*
X207598095Y-110119571D01*
X206298095Y-110119571D01*
X206298095Y-109686238D01*
X206360000Y-109562428D01*
X206421904Y-109500523D01*
X206545714Y-109438619D01*
X206669523Y-109438619D01*
X206793333Y-109500523D01*
X206855238Y-109562428D01*
X206917142Y-109686238D01*
X206917142Y-110119571D01*
X206298095Y-108571952D02*
X206298095Y-108448142D01*
X206360000Y-108324333D01*
X206421904Y-108262428D01*
X206545714Y-108200523D01*
X206793333Y-108138619D01*
X207102857Y-108138619D01*
X207350476Y-108200523D01*
X207474285Y-108262428D01*
X207536190Y-108324333D01*
X207598095Y-108448142D01*
X207598095Y-108571952D01*
X207536190Y-108695761D01*
X207474285Y-108757666D01*
X207350476Y-108819571D01*
X207102857Y-108881476D01*
X206793333Y-108881476D01*
X206545714Y-108819571D01*
X206421904Y-108757666D01*
X206360000Y-108695761D01*
X206298095Y-108571952D01*
X188641904Y-135193380D02*
X188580000Y-135131476D01*
X188518095Y-135007666D01*
X188518095Y-134698142D01*
X188580000Y-134574333D01*
X188641904Y-134512428D01*
X188765714Y-134450523D01*
X188889523Y-134450523D01*
X189075238Y-134512428D01*
X189818095Y-135255285D01*
X189818095Y-134450523D01*
X188951428Y-133336238D02*
X189818095Y-133336238D01*
X188456190Y-133645761D02*
X189384761Y-133955285D01*
X189384761Y-133150523D01*
X189818095Y-132098142D02*
X189137142Y-132098142D01*
X189013333Y-132160047D01*
X188951428Y-132283857D01*
X188951428Y-132531476D01*
X189013333Y-132655285D01*
X189756190Y-132098142D02*
X189818095Y-132221952D01*
X189818095Y-132531476D01*
X189756190Y-132655285D01*
X189632380Y-132717190D01*
X189508571Y-132717190D01*
X189384761Y-132655285D01*
X189322857Y-132531476D01*
X189322857Y-132221952D01*
X189260952Y-132098142D01*
X191181904Y-135193380D02*
X191120000Y-135131476D01*
X191058095Y-135007666D01*
X191058095Y-134698142D01*
X191120000Y-134574333D01*
X191181904Y-134512428D01*
X191305714Y-134450523D01*
X191429523Y-134450523D01*
X191615238Y-134512428D01*
X192358095Y-135255285D01*
X192358095Y-134450523D01*
X191181904Y-133955285D02*
X191120000Y-133893380D01*
X191058095Y-133769571D01*
X191058095Y-133460047D01*
X191120000Y-133336238D01*
X191181904Y-133274333D01*
X191305714Y-133212428D01*
X191429523Y-133212428D01*
X191615238Y-133274333D01*
X192358095Y-134017190D01*
X192358095Y-133212428D01*
X192358095Y-132655285D02*
X191058095Y-132655285D01*
X191553333Y-132655285D02*
X191491428Y-132531476D01*
X191491428Y-132283857D01*
X191553333Y-132160047D01*
X191615238Y-132098142D01*
X191739047Y-132036238D01*
X192110476Y-132036238D01*
X192234285Y-132098142D01*
X192296190Y-132160047D01*
X192358095Y-132283857D01*
X192358095Y-132531476D01*
X192296190Y-132655285D01*
X193721904Y-135193380D02*
X193660000Y-135131476D01*
X193598095Y-135007666D01*
X193598095Y-134698142D01*
X193660000Y-134574333D01*
X193721904Y-134512428D01*
X193845714Y-134450523D01*
X193969523Y-134450523D01*
X194155238Y-134512428D01*
X194898095Y-135255285D01*
X194898095Y-134450523D01*
X193598095Y-133645761D02*
X193598095Y-133521952D01*
X193660000Y-133398142D01*
X193721904Y-133336238D01*
X193845714Y-133274333D01*
X194093333Y-133212428D01*
X194402857Y-133212428D01*
X194650476Y-133274333D01*
X194774285Y-133336238D01*
X194836190Y-133398142D01*
X194898095Y-133521952D01*
X194898095Y-133645761D01*
X194836190Y-133769571D01*
X194774285Y-133831476D01*
X194650476Y-133893380D01*
X194402857Y-133955285D01*
X194093333Y-133955285D01*
X193845714Y-133893380D01*
X193721904Y-133831476D01*
X193660000Y-133769571D01*
X193598095Y-133645761D01*
X194898095Y-132098142D02*
X194217142Y-132098142D01*
X194093333Y-132160047D01*
X194031428Y-132283857D01*
X194031428Y-132531476D01*
X194093333Y-132655285D01*
X194836190Y-132098142D02*
X194898095Y-132221952D01*
X194898095Y-132531476D01*
X194836190Y-132655285D01*
X194712380Y-132717190D01*
X194588571Y-132717190D01*
X194464761Y-132655285D01*
X194402857Y-132531476D01*
X194402857Y-132221952D01*
X194340952Y-132098142D01*
X197438095Y-134450523D02*
X197438095Y-135193380D01*
X197438095Y-134821952D02*
X196138095Y-134821952D01*
X196323809Y-134945761D01*
X196447619Y-135069571D01*
X196509523Y-135193380D01*
X196695238Y-133707666D02*
X196633333Y-133831476D01*
X196571428Y-133893380D01*
X196447619Y-133955285D01*
X196385714Y-133955285D01*
X196261904Y-133893380D01*
X196200000Y-133831476D01*
X196138095Y-133707666D01*
X196138095Y-133460047D01*
X196200000Y-133336238D01*
X196261904Y-133274333D01*
X196385714Y-133212428D01*
X196447619Y-133212428D01*
X196571428Y-133274333D01*
X196633333Y-133336238D01*
X196695238Y-133460047D01*
X196695238Y-133707666D01*
X196757142Y-133831476D01*
X196819047Y-133893380D01*
X196942857Y-133955285D01*
X197190476Y-133955285D01*
X197314285Y-133893380D01*
X197376190Y-133831476D01*
X197438095Y-133707666D01*
X197438095Y-133460047D01*
X197376190Y-133336238D01*
X197314285Y-133274333D01*
X197190476Y-133212428D01*
X196942857Y-133212428D01*
X196819047Y-133274333D01*
X196757142Y-133336238D01*
X196695238Y-133460047D01*
X197438095Y-132098142D02*
X196757142Y-132098142D01*
X196633333Y-132160047D01*
X196571428Y-132283857D01*
X196571428Y-132531476D01*
X196633333Y-132655285D01*
X197376190Y-132098142D02*
X197438095Y-132221952D01*
X197438095Y-132531476D01*
X197376190Y-132655285D01*
X197252380Y-132717190D01*
X197128571Y-132717190D01*
X197004761Y-132655285D01*
X196942857Y-132531476D01*
X196942857Y-132221952D01*
X196880952Y-132098142D01*
X199978095Y-134450523D02*
X199978095Y-135193380D01*
X199978095Y-134821952D02*
X198678095Y-134821952D01*
X198863809Y-134945761D01*
X198987619Y-135069571D01*
X199049523Y-135193380D01*
X198678095Y-133336238D02*
X198678095Y-133583857D01*
X198740000Y-133707666D01*
X198801904Y-133769571D01*
X198987619Y-133893380D01*
X199235238Y-133955285D01*
X199730476Y-133955285D01*
X199854285Y-133893380D01*
X199916190Y-133831476D01*
X199978095Y-133707666D01*
X199978095Y-133460047D01*
X199916190Y-133336238D01*
X199854285Y-133274333D01*
X199730476Y-133212428D01*
X199420952Y-133212428D01*
X199297142Y-133274333D01*
X199235238Y-133336238D01*
X199173333Y-133460047D01*
X199173333Y-133707666D01*
X199235238Y-133831476D01*
X199297142Y-133893380D01*
X199420952Y-133955285D01*
X199978095Y-132098142D02*
X199297142Y-132098142D01*
X199173333Y-132160047D01*
X199111428Y-132283857D01*
X199111428Y-132531476D01*
X199173333Y-132655285D01*
X199916190Y-132098142D02*
X199978095Y-132221952D01*
X199978095Y-132531476D01*
X199916190Y-132655285D01*
X199792380Y-132717190D01*
X199668571Y-132717190D01*
X199544761Y-132655285D01*
X199482857Y-132531476D01*
X199482857Y-132221952D01*
X199420952Y-132098142D01*
X202518095Y-134450523D02*
X202518095Y-135193380D01*
X202518095Y-134821952D02*
X201218095Y-134821952D01*
X201403809Y-134945761D01*
X201527619Y-135069571D01*
X201589523Y-135193380D01*
X201218095Y-134017190D02*
X201218095Y-133212428D01*
X201713333Y-133645761D01*
X201713333Y-133460047D01*
X201775238Y-133336238D01*
X201837142Y-133274333D01*
X201960952Y-133212428D01*
X202270476Y-133212428D01*
X202394285Y-133274333D01*
X202456190Y-133336238D01*
X202518095Y-133460047D01*
X202518095Y-133831476D01*
X202456190Y-133955285D01*
X202394285Y-134017190D01*
X202518095Y-132655285D02*
X201218095Y-132655285D01*
X201713333Y-132655285D02*
X201651428Y-132531476D01*
X201651428Y-132283857D01*
X201713333Y-132160047D01*
X201775238Y-132098142D01*
X201899047Y-132036238D01*
X202270476Y-132036238D01*
X202394285Y-132098142D01*
X202456190Y-132160047D01*
X202518095Y-132283857D01*
X202518095Y-132531476D01*
X202456190Y-132655285D01*
X204315238Y-134945761D02*
X204253333Y-135069571D01*
X204191428Y-135131476D01*
X204067619Y-135193380D01*
X204005714Y-135193380D01*
X203881904Y-135131476D01*
X203820000Y-135069571D01*
X203758095Y-134945761D01*
X203758095Y-134698142D01*
X203820000Y-134574333D01*
X203881904Y-134512428D01*
X204005714Y-134450523D01*
X204067619Y-134450523D01*
X204191428Y-134512428D01*
X204253333Y-134574333D01*
X204315238Y-134698142D01*
X204315238Y-134945761D01*
X204377142Y-135069571D01*
X204439047Y-135131476D01*
X204562857Y-135193380D01*
X204810476Y-135193380D01*
X204934285Y-135131476D01*
X204996190Y-135069571D01*
X205058095Y-134945761D01*
X205058095Y-134698142D01*
X204996190Y-134574333D01*
X204934285Y-134512428D01*
X204810476Y-134450523D01*
X204562857Y-134450523D01*
X204439047Y-134512428D01*
X204377142Y-134574333D01*
X204315238Y-134698142D01*
X205058095Y-133336238D02*
X204377142Y-133336238D01*
X204253333Y-133398142D01*
X204191428Y-133521952D01*
X204191428Y-133769571D01*
X204253333Y-133893380D01*
X204996190Y-133336238D02*
X205058095Y-133460047D01*
X205058095Y-133769571D01*
X204996190Y-133893380D01*
X204872380Y-133955285D01*
X204748571Y-133955285D01*
X204624761Y-133893380D01*
X204562857Y-133769571D01*
X204562857Y-133460047D01*
X204500952Y-133336238D01*
X207598095Y-135069571D02*
X207598095Y-134821952D01*
X207536190Y-134698142D01*
X207474285Y-134636238D01*
X207288571Y-134512428D01*
X207040952Y-134450523D01*
X206545714Y-134450523D01*
X206421904Y-134512428D01*
X206360000Y-134574333D01*
X206298095Y-134698142D01*
X206298095Y-134945761D01*
X206360000Y-135069571D01*
X206421904Y-135131476D01*
X206545714Y-135193380D01*
X206855238Y-135193380D01*
X206979047Y-135131476D01*
X207040952Y-135069571D01*
X207102857Y-134945761D01*
X207102857Y-134698142D01*
X207040952Y-134574333D01*
X206979047Y-134512428D01*
X206855238Y-134450523D01*
X207598095Y-133893380D02*
X206298095Y-133893380D01*
X206793333Y-133893380D02*
X206731428Y-133769571D01*
X206731428Y-133521952D01*
X206793333Y-133398142D01*
X206855238Y-133336238D01*
X206979047Y-133274333D01*
X207350476Y-133274333D01*
X207474285Y-133336238D01*
X207536190Y-133398142D01*
X207598095Y-133521952D01*
X207598095Y-133769571D01*
X207536190Y-133893380D01*
D12*
G04 #@! TO.C,J26*
X184068000Y-102632000D02*
X184068000Y-107632000D01*
X167468000Y-102632000D02*
X184068000Y-102632000D01*
X167468000Y-107632000D02*
X167468000Y-102632000D01*
X184068000Y-107632000D02*
X167468000Y-107632000D01*
D13*
G04 #@! TO.C,J5*
X203200000Y-135636000D02*
X203200000Y-140716000D01*
X203200000Y-140716000D02*
X200660000Y-140716000D01*
X200660000Y-140716000D02*
X200660000Y-135636000D01*
X200660000Y-135636000D02*
X203200000Y-135636000D01*
G04 #@! TO.C,J11*
X187960000Y-135636000D02*
X190500000Y-135636000D01*
X187960000Y-140716000D02*
X187960000Y-135636000D01*
X190500000Y-140716000D02*
X187960000Y-140716000D01*
X190500000Y-135636000D02*
X190500000Y-140716000D01*
G04 #@! TO.C,J9*
X193040000Y-135636000D02*
X193040000Y-140716000D01*
X193040000Y-140716000D02*
X190500000Y-140716000D01*
X190500000Y-140716000D02*
X190500000Y-135636000D01*
X190500000Y-135636000D02*
X193040000Y-135636000D01*
G04 #@! TO.C,J8*
X193040000Y-135636000D02*
X195580000Y-135636000D01*
X193040000Y-140716000D02*
X193040000Y-135636000D01*
X195580000Y-140716000D02*
X193040000Y-140716000D01*
X195580000Y-135636000D02*
X195580000Y-140716000D01*
G04 #@! TO.C,J17*
X193040000Y-102616000D02*
X193040000Y-107696000D01*
X193040000Y-107696000D02*
X190500000Y-107696000D01*
X190500000Y-107696000D02*
X190500000Y-102616000D01*
X190500000Y-102616000D02*
X193040000Y-102616000D01*
G04 #@! TO.C,J27*
X211836000Y-124206000D02*
X211836000Y-121666000D01*
X216916000Y-124206000D02*
X211836000Y-124206000D01*
X216916000Y-121666000D02*
X216916000Y-124206000D01*
X211836000Y-121666000D02*
X216916000Y-121666000D01*
G04 #@! TO.C,J28*
X211836000Y-124206000D02*
X216916000Y-124206000D01*
X216916000Y-124206000D02*
X216916000Y-126746000D01*
X216916000Y-126746000D02*
X211836000Y-126746000D01*
X211836000Y-126746000D02*
X211836000Y-124206000D01*
G04 #@! TO.C,J29*
X211836000Y-119126000D02*
X211836000Y-116586000D01*
X216916000Y-119126000D02*
X211836000Y-119126000D01*
X216916000Y-116586000D02*
X216916000Y-119126000D01*
X211836000Y-116586000D02*
X216916000Y-116586000D01*
G04 #@! TO.C,J7*
X198120000Y-135636000D02*
X198120000Y-140716000D01*
X198120000Y-140716000D02*
X195580000Y-140716000D01*
X195580000Y-140716000D02*
X195580000Y-135636000D01*
X195580000Y-135636000D02*
X198120000Y-135636000D01*
G04 #@! TO.C,J32*
X211836000Y-131826000D02*
X211836000Y-129286000D01*
X216916000Y-131826000D02*
X211836000Y-131826000D01*
X216916000Y-129286000D02*
X216916000Y-131826000D01*
X211836000Y-129286000D02*
X216916000Y-129286000D01*
G04 #@! TO.C,J33*
X205740000Y-135636000D02*
X205740000Y-140716000D01*
X205740000Y-140716000D02*
X203200000Y-140716000D01*
X203200000Y-140716000D02*
X203200000Y-135636000D01*
X203200000Y-135636000D02*
X205740000Y-135636000D01*
G04 #@! TO.C,J34*
X205740000Y-135636000D02*
X208280000Y-135636000D01*
X205740000Y-140716000D02*
X205740000Y-135636000D01*
X208280000Y-140716000D02*
X205740000Y-140716000D01*
X208280000Y-135636000D02*
X208280000Y-140716000D01*
G04 #@! TO.C,J6*
X200660000Y-135636000D02*
X200660000Y-140716000D01*
X200660000Y-140716000D02*
X198120000Y-140716000D01*
X198120000Y-140716000D02*
X198120000Y-135636000D01*
X198120000Y-135636000D02*
X200660000Y-135636000D01*
G04 #@! TO.C,J31*
X211836000Y-121666000D02*
X211836000Y-119126000D01*
X216916000Y-121666000D02*
X211836000Y-121666000D01*
X216916000Y-119126000D02*
X216916000Y-121666000D01*
X211836000Y-119126000D02*
X216916000Y-119126000D01*
G04 #@! TO.C,J2*
X173736000Y-122682000D02*
X173736000Y-117602000D01*
X173736000Y-117602000D02*
X176276000Y-117602000D01*
X176276000Y-117602000D02*
X176276000Y-122682000D01*
X176276000Y-122682000D02*
X173736000Y-122682000D01*
G04 #@! TO.C,J10*
X179324000Y-124206000D02*
X184404000Y-124206000D01*
X184404000Y-124206000D02*
X184404000Y-126746000D01*
X184404000Y-126746000D02*
X179324000Y-126746000D01*
X179324000Y-126746000D02*
X179324000Y-124206000D01*
G04 #@! TO.C,J30*
X211836000Y-126746000D02*
X216916000Y-126746000D01*
X216916000Y-126746000D02*
X216916000Y-129286000D01*
X216916000Y-129286000D02*
X211836000Y-129286000D01*
X211836000Y-129286000D02*
X211836000Y-126746000D01*
G04 #@! TO.C,J25*
X205740000Y-102616000D02*
X208280000Y-102616000D01*
X205740000Y-107696000D02*
X205740000Y-102616000D01*
X208280000Y-107696000D02*
X205740000Y-107696000D01*
X208280000Y-102616000D02*
X208280000Y-107696000D01*
G04 #@! TO.C,J24*
X211836000Y-111506000D02*
X216916000Y-111506000D01*
X216916000Y-111506000D02*
X216916000Y-114046000D01*
X216916000Y-114046000D02*
X211836000Y-114046000D01*
X211836000Y-114046000D02*
X211836000Y-111506000D01*
G04 #@! TO.C,J23*
X203200000Y-102616000D02*
X205740000Y-102616000D01*
X203200000Y-107696000D02*
X203200000Y-102616000D01*
X205740000Y-107696000D02*
X203200000Y-107696000D01*
X205740000Y-102616000D02*
X205740000Y-107696000D01*
G04 #@! TO.C,J22*
X211836000Y-114046000D02*
X216916000Y-114046000D01*
X216916000Y-114046000D02*
X216916000Y-116586000D01*
X216916000Y-116586000D02*
X211836000Y-116586000D01*
X211836000Y-116586000D02*
X211836000Y-114046000D01*
G04 #@! TO.C,J21*
X198120000Y-102616000D02*
X200660000Y-102616000D01*
X198120000Y-107696000D02*
X198120000Y-102616000D01*
X200660000Y-107696000D02*
X198120000Y-107696000D01*
X200660000Y-102616000D02*
X200660000Y-107696000D01*
G04 #@! TO.C,J20*
X198120000Y-102616000D02*
X198120000Y-107696000D01*
X198120000Y-107696000D02*
X195580000Y-107696000D01*
X195580000Y-107696000D02*
X195580000Y-102616000D01*
X195580000Y-102616000D02*
X198120000Y-102616000D01*
G04 #@! TO.C,J19*
X200660000Y-102616000D02*
X203200000Y-102616000D01*
X200660000Y-107696000D02*
X200660000Y-102616000D01*
X203200000Y-107696000D02*
X200660000Y-107696000D01*
X203200000Y-102616000D02*
X203200000Y-107696000D01*
G04 #@! TO.C,J18*
X193040000Y-102616000D02*
X195580000Y-102616000D01*
X193040000Y-107696000D02*
X193040000Y-102616000D01*
X195580000Y-107696000D02*
X193040000Y-107696000D01*
X195580000Y-102616000D02*
X195580000Y-107696000D01*
G04 #@! TO.C,J16*
X187960000Y-102616000D02*
X190500000Y-102616000D01*
X187960000Y-107696000D02*
X187960000Y-102616000D01*
X190500000Y-107696000D02*
X187960000Y-107696000D01*
X190500000Y-102616000D02*
X190500000Y-107696000D01*
G04 #@! TO.C,J15*
X187960000Y-102616000D02*
X187960000Y-107696000D01*
X187960000Y-107696000D02*
X185420000Y-107696000D01*
X185420000Y-107696000D02*
X185420000Y-102616000D01*
X185420000Y-102616000D02*
X187960000Y-102616000D01*
G04 #@! TO.C,J14*
X184404000Y-129286000D02*
X184404000Y-131826000D01*
X179324000Y-129286000D02*
X184404000Y-129286000D01*
X179324000Y-131826000D02*
X179324000Y-129286000D01*
X184404000Y-131826000D02*
X179324000Y-131826000D01*
G04 #@! TO.C,J13*
X179324000Y-126746000D02*
X184404000Y-126746000D01*
X184404000Y-126746000D02*
X184404000Y-129286000D01*
X184404000Y-129286000D02*
X179324000Y-129286000D01*
X179324000Y-129286000D02*
X179324000Y-126746000D01*
G04 #@! TO.C,J3*
X179324000Y-111506000D02*
X184404000Y-111506000D01*
X184404000Y-111506000D02*
X184404000Y-116586000D01*
X184404000Y-116586000D02*
X179324000Y-116586000D01*
X179324000Y-116586000D02*
X179324000Y-111506000D01*
G04 #@! TO.C,J1*
X158496000Y-111252000D02*
X163576000Y-111252000D01*
X163576000Y-111252000D02*
X163576000Y-118872000D01*
X163576000Y-118872000D02*
X158496000Y-118872000D01*
X158496000Y-118872000D02*
X158496000Y-111252000D01*
G04 #@! TO.C,J4*
X158496000Y-121920000D02*
X163576000Y-121920000D01*
X163576000Y-121920000D02*
X163576000Y-132080000D01*
X163576000Y-132080000D02*
X158496000Y-132080000D01*
X158496000Y-132080000D02*
X158496000Y-121920000D01*
D14*
G04 #@! TO.C,SW1*
X174599600Y-136652000D02*
G75*
G03X174599600Y-136652000I-2540000J0D01*
G01*
X168249600Y-132842000D02*
X175869600Y-132842000D01*
X175869600Y-132842000D02*
X175869600Y-140462000D01*
X175869600Y-140462000D02*
X168249600Y-140462000D01*
X168249600Y-132842000D02*
X168249600Y-140462000D01*
G04 #@! TO.C,J3*
D15*
X179085857Y-113002190D02*
X178800142Y-113002190D01*
X178943000Y-113002190D02*
X178943000Y-112502190D01*
X178895380Y-112573619D01*
X178847761Y-112621238D01*
X178800142Y-112645047D01*
G04 #@! TO.C,J1*
X158257857Y-112748190D02*
X157972142Y-112748190D01*
X158115000Y-112748190D02*
X158115000Y-112248190D01*
X158067380Y-112319619D01*
X158019761Y-112367238D01*
X157972142Y-112391047D01*
G04 #@! TO.C,J4*
X158257857Y-123416190D02*
X157972142Y-123416190D01*
X158115000Y-123416190D02*
X158115000Y-122916190D01*
X158067380Y-122987619D01*
X158019761Y-123035238D01*
X157972142Y-123059047D01*
G04 #@! TO.C,SW1*
D16*
X170704933Y-136301238D02*
X170850076Y-136349619D01*
X171091980Y-136349619D01*
X171188742Y-136301238D01*
X171237123Y-136252857D01*
X171285504Y-136156095D01*
X171285504Y-136059333D01*
X171237123Y-135962571D01*
X171188742Y-135914190D01*
X171091980Y-135865809D01*
X170898457Y-135817428D01*
X170801695Y-135769047D01*
X170753314Y-135720666D01*
X170704933Y-135623904D01*
X170704933Y-135527142D01*
X170753314Y-135430380D01*
X170801695Y-135382000D01*
X170898457Y-135333619D01*
X171140361Y-135333619D01*
X171285504Y-135382000D01*
X171624171Y-135333619D02*
X171866076Y-136349619D01*
X172059600Y-135623904D01*
X172253123Y-136349619D01*
X172495028Y-135333619D01*
X173414266Y-136349619D02*
X172833695Y-136349619D01*
X173123980Y-136349619D02*
X173123980Y-135333619D01*
X173027219Y-135478761D01*
X172930457Y-135575523D01*
X172833695Y-135623904D01*
X169014019Y-138028438D02*
X169159161Y-138076819D01*
X169401066Y-138076819D01*
X169497828Y-138028438D01*
X169546209Y-137980057D01*
X169594590Y-137883295D01*
X169594590Y-137786533D01*
X169546209Y-137689771D01*
X169497828Y-137641390D01*
X169401066Y-137593009D01*
X169207542Y-137544628D01*
X169110780Y-137496247D01*
X169062400Y-137447866D01*
X169014019Y-137351104D01*
X169014019Y-137254342D01*
X169062400Y-137157580D01*
X169110780Y-137109200D01*
X169207542Y-137060819D01*
X169449447Y-137060819D01*
X169594590Y-137109200D01*
X169933257Y-137060819D02*
X170175161Y-138076819D01*
X170368685Y-137351104D01*
X170562209Y-138076819D01*
X170804114Y-137060819D01*
X170949257Y-138173580D02*
X171723352Y-138173580D01*
X171965257Y-138076819D02*
X171965257Y-137060819D01*
X172352304Y-137060819D01*
X172449066Y-137109200D01*
X172497447Y-137157580D01*
X172545828Y-137254342D01*
X172545828Y-137399485D01*
X172497447Y-137496247D01*
X172449066Y-137544628D01*
X172352304Y-137593009D01*
X171965257Y-137593009D01*
X173416685Y-137399485D02*
X173416685Y-138076819D01*
X172981257Y-137399485D02*
X172981257Y-137931676D01*
X173029638Y-138028438D01*
X173126400Y-138076819D01*
X173271542Y-138076819D01*
X173368304Y-138028438D01*
X173416685Y-137980057D01*
X173852114Y-138028438D02*
X173948876Y-138076819D01*
X174142400Y-138076819D01*
X174239161Y-138028438D01*
X174287542Y-137931676D01*
X174287542Y-137883295D01*
X174239161Y-137786533D01*
X174142400Y-137738152D01*
X173997257Y-137738152D01*
X173900495Y-137689771D01*
X173852114Y-137593009D01*
X173852114Y-137544628D01*
X173900495Y-137447866D01*
X173997257Y-137399485D01*
X174142400Y-137399485D01*
X174239161Y-137447866D01*
X174722971Y-138076819D02*
X174722971Y-137060819D01*
X175158400Y-138076819D02*
X175158400Y-137544628D01*
X175110019Y-137447866D01*
X175013257Y-137399485D01*
X174868114Y-137399485D01*
X174771352Y-137447866D01*
X174722971Y-137496247D01*
G04 #@! TD*
M02*
