G04 #@! TF.GenerationSoftware,KiCad,Pcbnew,(2017-02-05 revision 431abcf)-makepkg*
G04 #@! TF.CreationDate,2017-03-30T09:03:18+02:00*
G04 #@! TF.ProjectId,UNIPOWER05A,554E49504F5745523035412E6B696361,rev?*
G04 #@! TF.FileFunction,Soldermask,Top*
G04 #@! TF.FilePolarity,Negative*
%FSLAX46Y46*%
G04 Gerber Fmt 4.6, Leading zero omitted, Abs format (unit mm)*
G04 Created by KiCad (PCBNEW (2017-02-05 revision 431abcf)-makepkg) date 03/30/17 09:03:18*
%MOMM*%
%LPD*%
G01*
G04 APERTURE LIST*
%ADD10C,0.300000*%
G04 APERTURE END LIST*
D10*
G36*
X69210000Y1020000D02*
X65410000Y1020000D01*
X65410000Y4820000D01*
X69210000Y4820000D01*
X69210000Y1020000D01*
X69210000Y1020000D01*
G37*
G36*
X5416110Y8277872D02*
X6030848Y8151685D01*
X6609363Y7908500D01*
X7129631Y7557574D01*
X7571824Y7112283D01*
X7919105Y6589582D01*
X8158249Y6009378D01*
X8280004Y5394466D01*
X8280004Y5394449D01*
X8280137Y5393776D01*
X8270128Y4676993D01*
X8269977Y4676330D01*
X8269977Y4676306D01*
X8131099Y4065032D01*
X7875851Y3491739D01*
X7514107Y2978933D01*
X7059653Y2546162D01*
X6529787Y2209900D01*
X5944712Y1982964D01*
X5326688Y1873989D01*
X4699273Y1887132D01*
X4086359Y2021890D01*
X3511293Y2273129D01*
X2995980Y2631282D01*
X2560044Y3082706D01*
X2220093Y3610208D01*
X1989075Y4193693D01*
X1875790Y4810936D01*
X1884551Y5438424D01*
X2015027Y6052266D01*
X2262248Y6629075D01*
X2616795Y7146877D01*
X3065163Y7585952D01*
X3590276Y7929576D01*
X4172132Y8164661D01*
X4788571Y8282254D01*
X5416110Y8277872D01*
X5416110Y8277872D01*
G37*
G36*
X76536110Y8277872D02*
X77150848Y8151685D01*
X77729363Y7908500D01*
X78249631Y7557574D01*
X78691824Y7112283D01*
X79039105Y6589582D01*
X79278249Y6009378D01*
X79400004Y5394466D01*
X79400004Y5394449D01*
X79400137Y5393776D01*
X79390128Y4676993D01*
X79389977Y4676330D01*
X79389977Y4676306D01*
X79251099Y4065032D01*
X78995851Y3491739D01*
X78634107Y2978933D01*
X78179653Y2546162D01*
X77649787Y2209900D01*
X77064712Y1982964D01*
X76446688Y1873989D01*
X75819273Y1887132D01*
X75206359Y2021890D01*
X74631293Y2273129D01*
X74115980Y2631282D01*
X73680044Y3082706D01*
X73340093Y3610208D01*
X73109075Y4193693D01*
X72995790Y4810936D01*
X73004551Y5438424D01*
X73135027Y6052266D01*
X73382248Y6629075D01*
X73736795Y7146877D01*
X74185163Y7585952D01*
X74710276Y7929576D01*
X75292132Y8164661D01*
X75908571Y8282254D01*
X76536110Y8277872D01*
X76536110Y8277872D01*
G37*
G36*
X47317000Y2547000D02*
X43107000Y2547000D01*
X43107000Y6757000D01*
X47317000Y6757000D01*
X47317000Y2547000D01*
X47317000Y2547000D01*
G37*
G36*
X52397000Y10229000D02*
X52398921Y10209491D01*
X52404612Y10190732D01*
X52413853Y10173443D01*
X52426289Y10158289D01*
X52441443Y10145853D01*
X52458732Y10136612D01*
X52477491Y10130921D01*
X52497000Y10129000D01*
X52905000Y10129000D01*
X52905000Y5919000D01*
X52497000Y5919000D01*
X52477491Y5917079D01*
X52458732Y5911388D01*
X52441443Y5902147D01*
X52426289Y5889711D01*
X52413853Y5874557D01*
X52404612Y5857268D01*
X52398921Y5838509D01*
X52397000Y5819000D01*
X52397000Y2547000D01*
X48187000Y2547000D01*
X48187000Y6757000D01*
X48595000Y6757000D01*
X48614509Y6758921D01*
X48633268Y6764612D01*
X48650557Y6773853D01*
X48665711Y6786289D01*
X48678147Y6801443D01*
X48687388Y6818732D01*
X48693079Y6837491D01*
X48695000Y6857000D01*
X48695000Y7447000D01*
X48693079Y7466509D01*
X48687388Y7485268D01*
X48678147Y7502557D01*
X48665711Y7517711D01*
X48650557Y7530147D01*
X48633268Y7539388D01*
X48614509Y7545079D01*
X48595000Y7547000D01*
X48187000Y7547000D01*
X48187000Y11757000D01*
X52397000Y11757000D01*
X52397000Y10229000D01*
X52397000Y10229000D01*
G37*
G36*
X30299000Y2591000D02*
X26089000Y2591000D01*
X26089000Y6321000D01*
X30299000Y6321000D01*
X30299000Y2591000D01*
X30299000Y2591000D01*
G37*
G36*
X25727000Y2591000D02*
X21517000Y2591000D01*
X21517000Y6321000D01*
X25727000Y6321000D01*
X25727000Y2591000D01*
X25727000Y2591000D01*
G37*
G36*
X14805000Y3309000D02*
X10595000Y3309000D01*
X10595000Y7519000D01*
X14805000Y7519000D01*
X14805000Y3309000D01*
X14805000Y3309000D01*
G37*
G36*
X19885000Y3309000D02*
X15675000Y3309000D01*
X15675000Y7519000D01*
X19885000Y7519000D01*
X19885000Y3309000D01*
X19885000Y3309000D01*
G37*
G36*
X35887000Y3309000D02*
X31677000Y3309000D01*
X31677000Y7519000D01*
X35887000Y7519000D01*
X35887000Y3309000D01*
X35887000Y3309000D01*
G37*
G36*
X40967000Y3309000D02*
X36757000Y3309000D01*
X36757000Y7519000D01*
X40967000Y7519000D01*
X40967000Y3309000D01*
X40967000Y3309000D01*
G37*
G36*
X62811000Y3353000D02*
X58601000Y3353000D01*
X58601000Y7083000D01*
X62811000Y7083000D01*
X62811000Y3353000D01*
X62811000Y3353000D01*
G37*
G36*
X69210000Y5720000D02*
X65410000Y5720000D01*
X65410000Y9520000D01*
X69210000Y9520000D01*
X69210000Y5720000D01*
X69210000Y5720000D01*
G37*
G36*
X47317000Y7547000D02*
X43107000Y7547000D01*
X43107000Y11757000D01*
X47317000Y11757000D01*
X47317000Y7547000D01*
X47317000Y7547000D01*
G37*
G36*
X35887000Y8309000D02*
X31677000Y8309000D01*
X31677000Y12519000D01*
X35887000Y12519000D01*
X35887000Y8309000D01*
X35887000Y8309000D01*
G37*
G36*
X19885000Y8309000D02*
X15675000Y8309000D01*
X15675000Y12519000D01*
X19885000Y12519000D01*
X19885000Y8309000D01*
X19885000Y8309000D01*
G37*
G36*
X14805000Y8309000D02*
X10595000Y8309000D01*
X10595000Y12519000D01*
X14805000Y12519000D01*
X14805000Y8309000D01*
X14805000Y8309000D01*
G37*
G36*
X40967000Y8309000D02*
X36757000Y8309000D01*
X36757000Y12519000D01*
X40967000Y12519000D01*
X40967000Y8309000D01*
X40967000Y8309000D01*
G37*
G36*
X30299000Y8411000D02*
X26089000Y8411000D01*
X26089000Y12141000D01*
X30299000Y12141000D01*
X30299000Y8411000D01*
X30299000Y8411000D01*
G37*
G36*
X25727000Y8411000D02*
X21517000Y8411000D01*
X21517000Y12141000D01*
X25727000Y12141000D01*
X25727000Y8411000D01*
X25727000Y8411000D01*
G37*
G36*
X57905000Y9019000D02*
X53695000Y9019000D01*
X53695000Y13229000D01*
X57905000Y13229000D01*
X57905000Y9019000D01*
X57905000Y9019000D01*
G37*
G36*
X62811000Y9173000D02*
X58601000Y9173000D01*
X58601000Y12903000D01*
X62811000Y12903000D01*
X62811000Y9173000D01*
X62811000Y9173000D01*
G37*
G36*
X69210000Y10420000D02*
X65410000Y10420000D01*
X65410000Y14220000D01*
X69210000Y14220000D01*
X69210000Y10420000D01*
X69210000Y10420000D01*
G37*
G36*
X75346804Y14248971D02*
X75644569Y14187849D01*
X75924786Y14070057D01*
X76176793Y13900077D01*
X76390980Y13684389D01*
X76559193Y13431206D01*
X76675030Y13150165D01*
X76733934Y12852678D01*
X76733934Y12852658D01*
X76734067Y12851985D01*
X76729219Y12504793D01*
X76729067Y12504125D01*
X76729067Y12504107D01*
X76661878Y12208375D01*
X76538241Y11930680D01*
X76363025Y11682296D01*
X76142897Y11472671D01*
X75886240Y11309792D01*
X75602848Y11199871D01*
X75303489Y11147085D01*
X74999585Y11153452D01*
X74702704Y11218726D01*
X74424159Y11340418D01*
X74174550Y11513902D01*
X73963395Y11732559D01*
X73798731Y11988068D01*
X73686829Y12270697D01*
X73631958Y12569671D01*
X73636202Y12873611D01*
X73699402Y13170946D01*
X73819147Y13450332D01*
X73990884Y13701146D01*
X74208059Y13913820D01*
X74462417Y14080267D01*
X74744249Y14194135D01*
X75042839Y14251094D01*
X75346804Y14248971D01*
X75346804Y14248971D01*
G37*
G36*
X52905000Y12119000D02*
X48695000Y12119000D01*
X48695000Y16329000D01*
X52905000Y16329000D01*
X52905000Y12119000D01*
X52905000Y12119000D01*
G37*
G36*
X30134804Y18566971D02*
X30432569Y18505849D01*
X30712786Y18388057D01*
X30964793Y18218077D01*
X31178980Y18002389D01*
X31347193Y17749206D01*
X31463030Y17468165D01*
X31521934Y17170678D01*
X31521934Y17170658D01*
X31522067Y17169985D01*
X31517219Y16822793D01*
X31517067Y16822125D01*
X31517067Y16822107D01*
X31449878Y16526375D01*
X31326241Y16248680D01*
X31151025Y16000296D01*
X30930897Y15790671D01*
X30674240Y15627792D01*
X30390848Y15517871D01*
X30091489Y15465085D01*
X29787585Y15471452D01*
X29490704Y15536726D01*
X29212159Y15658418D01*
X28962550Y15831902D01*
X28751395Y16050559D01*
X28586731Y16306068D01*
X28474829Y16588697D01*
X28419958Y16887671D01*
X28424202Y17191611D01*
X28487402Y17488946D01*
X28607147Y17768332D01*
X28778884Y18019146D01*
X28996059Y18231820D01*
X29250417Y18398267D01*
X29532249Y18512135D01*
X29830839Y18569094D01*
X30134804Y18566971D01*
X30134804Y18566971D01*
G37*
G36*
X21752804Y18566971D02*
X22050569Y18505849D01*
X22330786Y18388057D01*
X22582793Y18218077D01*
X22796980Y18002389D01*
X22965193Y17749206D01*
X23081030Y17468165D01*
X23139934Y17170678D01*
X23139934Y17170658D01*
X23140067Y17169985D01*
X23135219Y16822793D01*
X23135067Y16822125D01*
X23135067Y16822107D01*
X23067878Y16526375D01*
X22944241Y16248680D01*
X22769025Y16000296D01*
X22548897Y15790671D01*
X22292240Y15627792D01*
X22008848Y15517871D01*
X21709489Y15465085D01*
X21405585Y15471452D01*
X21108704Y15536726D01*
X20830159Y15658418D01*
X20580550Y15831902D01*
X20369395Y16050559D01*
X20204731Y16306068D01*
X20092829Y16588697D01*
X20037958Y16887671D01*
X20042202Y17191611D01*
X20105402Y17488946D01*
X20225147Y17768332D01*
X20396884Y18019146D01*
X20614059Y18231820D01*
X20868417Y18398267D01*
X21150249Y18512135D01*
X21448839Y18569094D01*
X21752804Y18566971D01*
X21752804Y18566971D01*
G37*
G36*
X56588000Y17580000D02*
X54664000Y17580000D01*
X54664000Y19504000D01*
X56588000Y19504000D01*
X56588000Y17580000D01*
X56588000Y17580000D01*
G37*
G36*
X70812000Y28248000D02*
X68888000Y28248000D01*
X68888000Y30172000D01*
X70812000Y30172000D01*
X70812000Y28248000D01*
X70812000Y28248000D01*
G37*
G36*
X65732000Y28248000D02*
X63808000Y28248000D01*
X63808000Y30172000D01*
X65732000Y30172000D01*
X65732000Y28248000D01*
X65732000Y28248000D01*
G37*
G36*
X63192000Y28248000D02*
X61268000Y28248000D01*
X61268000Y30172000D01*
X63192000Y30172000D01*
X63192000Y28248000D01*
X63192000Y28248000D01*
G37*
G36*
X68272000Y28248000D02*
X66348000Y28248000D01*
X66348000Y30172000D01*
X68272000Y30172000D01*
X68272000Y28248000D01*
X68272000Y28248000D01*
G37*
G36*
X56969000Y28375000D02*
X52759000Y28375000D01*
X52759000Y32585000D01*
X56969000Y32585000D01*
X56969000Y28375000D01*
X56969000Y28375000D01*
G37*
G36*
X42110000Y28375000D02*
X37900000Y28375000D01*
X37900000Y32585000D01*
X42110000Y32585000D01*
X42110000Y28375000D01*
X42110000Y28375000D01*
G37*
G36*
X52016000Y28375000D02*
X47806000Y28375000D01*
X47806000Y32585000D01*
X52016000Y32585000D01*
X52016000Y28375000D01*
X52016000Y28375000D01*
G37*
G36*
X47063000Y28375000D02*
X42853000Y28375000D01*
X42853000Y32585000D01*
X47063000Y32585000D01*
X47063000Y28375000D01*
X47063000Y28375000D01*
G37*
G36*
X68272000Y30788000D02*
X66348000Y30788000D01*
X66348000Y32712000D01*
X68272000Y32712000D01*
X68272000Y30788000D01*
X68272000Y30788000D01*
G37*
G36*
X70812000Y30788000D02*
X68888000Y30788000D01*
X68888000Y32712000D01*
X70812000Y32712000D01*
X70812000Y30788000D01*
X70812000Y30788000D01*
G37*
G36*
X63192000Y30788000D02*
X61268000Y30788000D01*
X61268000Y32712000D01*
X63192000Y32712000D01*
X63192000Y30788000D01*
X63192000Y30788000D01*
G37*
G36*
X65732000Y30788000D02*
X63808000Y30788000D01*
X63808000Y32712000D01*
X65732000Y32712000D01*
X65732000Y30788000D01*
X65732000Y30788000D01*
G37*
G36*
X76536110Y38757872D02*
X77150848Y38631685D01*
X77729363Y38388500D01*
X78249631Y38037574D01*
X78691824Y37592283D01*
X79039105Y37069582D01*
X79278249Y36489378D01*
X79400004Y35874466D01*
X79400004Y35874449D01*
X79400137Y35873776D01*
X79390128Y35156993D01*
X79389977Y35156330D01*
X79389977Y35156306D01*
X79251099Y34545032D01*
X78995851Y33971739D01*
X78634107Y33458933D01*
X78179653Y33026162D01*
X77649787Y32689900D01*
X77064712Y32462964D01*
X76446688Y32353989D01*
X75819273Y32367132D01*
X75206359Y32501890D01*
X74631293Y32753129D01*
X74115980Y33111282D01*
X73680044Y33562706D01*
X73340093Y34090208D01*
X73109075Y34673693D01*
X72995790Y35290936D01*
X73004551Y35918424D01*
X73135027Y36532266D01*
X73382248Y37109075D01*
X73736795Y37626877D01*
X74185163Y38065952D01*
X74710276Y38409576D01*
X75292132Y38644661D01*
X75908571Y38762254D01*
X76536110Y38757872D01*
X76536110Y38757872D01*
G37*
G36*
X5416110Y38757872D02*
X6030848Y38631685D01*
X6609363Y38388500D01*
X7129631Y38037574D01*
X7571824Y37592283D01*
X7919105Y37069582D01*
X8158249Y36489378D01*
X8280004Y35874466D01*
X8280004Y35874449D01*
X8280137Y35873776D01*
X8270128Y35156993D01*
X8269977Y35156330D01*
X8269977Y35156306D01*
X8131099Y34545032D01*
X7875851Y33971739D01*
X7514107Y33458933D01*
X7059653Y33026162D01*
X6529787Y32689900D01*
X5944712Y32462964D01*
X5326688Y32353989D01*
X4699273Y32367132D01*
X4086359Y32501890D01*
X3511293Y32753129D01*
X2995980Y33111282D01*
X2560044Y33562706D01*
X2220093Y34090208D01*
X1989075Y34673693D01*
X1875790Y35290936D01*
X1884551Y35918424D01*
X2015027Y36532266D01*
X2262248Y37109075D01*
X2616795Y37626877D01*
X3065163Y38065952D01*
X3590276Y38409576D01*
X4172132Y38644661D01*
X4788571Y38762254D01*
X5416110Y38757872D01*
X5416110Y38757872D01*
G37*
G36*
X68272000Y33328000D02*
X66348000Y33328000D01*
X66348000Y35252000D01*
X68272000Y35252000D01*
X68272000Y33328000D01*
X68272000Y33328000D01*
G37*
G36*
X70812000Y33328000D02*
X68888000Y33328000D01*
X68888000Y35252000D01*
X70812000Y35252000D01*
X70812000Y33328000D01*
X70812000Y33328000D01*
G37*
G36*
X65732000Y33328000D02*
X63808000Y33328000D01*
X63808000Y35252000D01*
X65732000Y35252000D01*
X65732000Y33328000D01*
X65732000Y33328000D01*
G37*
G36*
X63192000Y33328000D02*
X61268000Y33328000D01*
X61268000Y35252000D01*
X63192000Y35252000D01*
X63192000Y33328000D01*
X63192000Y33328000D01*
G37*
G36*
X56969000Y33375000D02*
X52759000Y33375000D01*
X52759000Y37585000D01*
X56969000Y37585000D01*
X56969000Y33375000D01*
X56969000Y33375000D01*
G37*
G36*
X42110000Y33375000D02*
X37900000Y33375000D01*
X37900000Y37585000D01*
X42110000Y37585000D01*
X42110000Y33375000D01*
X42110000Y33375000D01*
G37*
G36*
X52016000Y33375000D02*
X47806000Y33375000D01*
X47806000Y37585000D01*
X52016000Y37585000D01*
X52016000Y33375000D01*
X52016000Y33375000D01*
G37*
G36*
X47063000Y33375000D02*
X42853000Y33375000D01*
X42853000Y37585000D01*
X47063000Y37585000D01*
X47063000Y33375000D01*
X47063000Y33375000D01*
G37*
G36*
X65732000Y35868000D02*
X63808000Y35868000D01*
X63808000Y37792000D01*
X65732000Y37792000D01*
X65732000Y35868000D01*
X65732000Y35868000D01*
G37*
G36*
X68272000Y35868000D02*
X66348000Y35868000D01*
X66348000Y37792000D01*
X68272000Y37792000D01*
X68272000Y35868000D01*
X68272000Y35868000D01*
G37*
G36*
X70812000Y35868000D02*
X68888000Y35868000D01*
X68888000Y37792000D01*
X70812000Y37792000D01*
X70812000Y35868000D01*
X70812000Y35868000D01*
G37*
G36*
X63192000Y35868000D02*
X61268000Y35868000D01*
X61268000Y37792000D01*
X63192000Y37792000D01*
X63192000Y35868000D01*
X63192000Y35868000D01*
G37*
M02*
