G04 #@! TF.GenerationSoftware,KiCad,Pcbnew,(5.99.0-311-g81ce588a0)*
G04 #@! TF.CreationDate,2019-11-06T10:45:35+01:00*
G04 #@! TF.ProjectId,ISM02A,49534d30-3241-42e6-9b69-6361645f7063,REV*
G04 #@! TF.SameCoordinates,Original*
G04 #@! TF.FileFunction,Soldermask,Top*
G04 #@! TF.FilePolarity,Negative*
%FSLAX46Y46*%
G04 Gerber Fmt 4.6, Leading zero omitted, Abs format (unit mm)*
G04 Created by KiCad (PCBNEW (5.99.0-311-g81ce588a0)) date 2019-11-06 10:45:35*
%MOMM*%
%LPD*%
G04 APERTURE LIST*
%ADD10R,1.924000X1.924000*%
%ADD11C,3.100000*%
%ADD12C,2.900000*%
%ADD13R,1.450000X2.600000*%
%ADD14R,1.400000X1.450000*%
%ADD15C,6.400000*%
G04 APERTURE END LIST*
D10*
G04 #@! TO.C,J1*
X137530000Y-89460000D03*
X140070000Y-89460000D03*
X137530000Y-92000000D03*
X140070000Y-92000000D03*
X137530000Y-94540000D03*
X140070000Y-94540000D03*
G04 #@! TD*
G04 #@! TO.C,J2*
G36*
X163099671Y-83115030D02*
G01*
X163180777Y-83169223D01*
X163234970Y-83250329D01*
X163254000Y-83346000D01*
X163254000Y-84946000D01*
X163234970Y-85041671D01*
X163180777Y-85122777D01*
X163099671Y-85176970D01*
X163004000Y-85196000D01*
X162504000Y-85196000D01*
X162408329Y-85176970D01*
X162327223Y-85122777D01*
X162273030Y-85041671D01*
X162254000Y-84946000D01*
X162254000Y-83346000D01*
X162273030Y-83250329D01*
X162327223Y-83169223D01*
X162408329Y-83115030D01*
X162504000Y-83096000D01*
X163004000Y-83096000D01*
X163099671Y-83115030D01*
G37*
G36*
X161849671Y-83115030D02*
G01*
X161930777Y-83169223D01*
X161984970Y-83250329D01*
X162004000Y-83346000D01*
X162004000Y-84946000D01*
X161984970Y-85041671D01*
X161930777Y-85122777D01*
X161849671Y-85176970D01*
X161754000Y-85196000D01*
X161254000Y-85196000D01*
X161158329Y-85176970D01*
X161077223Y-85122777D01*
X161023030Y-85041671D01*
X161004000Y-84946000D01*
X161004000Y-83346000D01*
X161023030Y-83250329D01*
X161077223Y-83169223D01*
X161158329Y-83115030D01*
X161254000Y-83096000D01*
X161754000Y-83096000D01*
X161849671Y-83115030D01*
G37*
G36*
X160599671Y-83115030D02*
G01*
X160680777Y-83169223D01*
X160734970Y-83250329D01*
X160754000Y-83346000D01*
X160754000Y-84946000D01*
X160734970Y-85041671D01*
X160680777Y-85122777D01*
X160599671Y-85176970D01*
X160504000Y-85196000D01*
X160004000Y-85196000D01*
X159908329Y-85176970D01*
X159827223Y-85122777D01*
X159773030Y-85041671D01*
X159754000Y-84946000D01*
X159754000Y-83346000D01*
X159773030Y-83250329D01*
X159827223Y-83169223D01*
X159908329Y-83115030D01*
X160004000Y-83096000D01*
X160504000Y-83096000D01*
X160599671Y-83115030D01*
G37*
G36*
X159349671Y-83115030D02*
G01*
X159430777Y-83169223D01*
X159484970Y-83250329D01*
X159504000Y-83346000D01*
X159504000Y-84946000D01*
X159484970Y-85041671D01*
X159430777Y-85122777D01*
X159349671Y-85176970D01*
X159254000Y-85196000D01*
X158754000Y-85196000D01*
X158658329Y-85176970D01*
X158577223Y-85122777D01*
X158523030Y-85041671D01*
X158504000Y-84946000D01*
X158504000Y-83346000D01*
X158523030Y-83250329D01*
X158577223Y-83169223D01*
X158658329Y-83115030D01*
X158754000Y-83096000D01*
X159254000Y-83096000D01*
X159349671Y-83115030D01*
G37*
G36*
X158099671Y-83115030D02*
G01*
X158180777Y-83169223D01*
X158234970Y-83250329D01*
X158254000Y-83346000D01*
X158254000Y-84946000D01*
X158234970Y-85041671D01*
X158180777Y-85122777D01*
X158099671Y-85176970D01*
X158004000Y-85196000D01*
X157504000Y-85196000D01*
X157408329Y-85176970D01*
X157327223Y-85122777D01*
X157273030Y-85041671D01*
X157254000Y-84946000D01*
X157254000Y-83346000D01*
X157273030Y-83250329D01*
X157327223Y-83169223D01*
X157408329Y-83115030D01*
X157504000Y-83096000D01*
X158004000Y-83096000D01*
X158099671Y-83115030D01*
G37*
G36*
X156849671Y-83115030D02*
G01*
X156930777Y-83169223D01*
X156984970Y-83250329D01*
X157004000Y-83346000D01*
X157004000Y-84946000D01*
X156984970Y-85041671D01*
X156930777Y-85122777D01*
X156849671Y-85176970D01*
X156754000Y-85196000D01*
X156254000Y-85196000D01*
X156158329Y-85176970D01*
X156077223Y-85122777D01*
X156023030Y-85041671D01*
X156004000Y-84946000D01*
X156004000Y-83346000D01*
X156023030Y-83250329D01*
X156077223Y-83169223D01*
X156158329Y-83115030D01*
X156254000Y-83096000D01*
X156754000Y-83096000D01*
X156849671Y-83115030D01*
G37*
G36*
X155599671Y-83115030D02*
G01*
X155680777Y-83169223D01*
X155734970Y-83250329D01*
X155754000Y-83346000D01*
X155754000Y-84946000D01*
X155734970Y-85041671D01*
X155680777Y-85122777D01*
X155599671Y-85176970D01*
X155504000Y-85196000D01*
X155004000Y-85196000D01*
X154908329Y-85176970D01*
X154827223Y-85122777D01*
X154773030Y-85041671D01*
X154754000Y-84946000D01*
X154754000Y-83346000D01*
X154773030Y-83250329D01*
X154827223Y-83169223D01*
X154908329Y-83115030D01*
X155004000Y-83096000D01*
X155504000Y-83096000D01*
X155599671Y-83115030D01*
G37*
G36*
X165073707Y-79417108D02*
G01*
X165178976Y-79477884D01*
X165257109Y-79571000D01*
X165304000Y-79746000D01*
X165304000Y-82146000D01*
X165282892Y-82265707D01*
X165222116Y-82370976D01*
X165129000Y-82449109D01*
X164954000Y-82496000D01*
X164254000Y-82496000D01*
X164134293Y-82474892D01*
X164029024Y-82414116D01*
X163950891Y-82321000D01*
X163904000Y-82146000D01*
X163904000Y-79746000D01*
X163925108Y-79626293D01*
X163985884Y-79521024D01*
X164079000Y-79442891D01*
X164254000Y-79396000D01*
X164954000Y-79396000D01*
X165073707Y-79417108D01*
G37*
G36*
X153873707Y-79417108D02*
G01*
X153978976Y-79477884D01*
X154057109Y-79571000D01*
X154104000Y-79746000D01*
X154104000Y-82146000D01*
X154082892Y-82265707D01*
X154022116Y-82370976D01*
X153929000Y-82449109D01*
X153754000Y-82496000D01*
X153054000Y-82496000D01*
X152934293Y-82474892D01*
X152829024Y-82414116D01*
X152750891Y-82321000D01*
X152704000Y-82146000D01*
X152704000Y-79746000D01*
X152725108Y-79626293D01*
X152785884Y-79521024D01*
X152879000Y-79442891D01*
X153054000Y-79396000D01*
X153754000Y-79396000D01*
X153873707Y-79417108D01*
G37*
G04 #@! TD*
G04 #@! TO.C,J3*
X156000000Y-88330000D03*
X156000000Y-90870000D03*
G04 #@! TD*
G04 #@! TO.C,J4*
X165100000Y-90870000D03*
X165100000Y-88330000D03*
G04 #@! TD*
G04 #@! TO.C,J5*
X160000000Y-90870000D03*
X160000000Y-88330000D03*
G04 #@! TD*
G04 #@! TO.C,J6*
X162550000Y-88330000D03*
X162550000Y-90870000D03*
G04 #@! TD*
G04 #@! TO.C,J7*
X167650000Y-90870000D03*
X167650000Y-88330000D03*
G04 #@! TD*
G04 #@! TO.C,J8*
X150900000Y-88330000D03*
X150900000Y-90870000D03*
G04 #@! TD*
G04 #@! TO.C,J9*
X148350000Y-90870000D03*
X148350000Y-88330000D03*
G04 #@! TD*
G04 #@! TO.C,J10*
X145800000Y-90870000D03*
X145800000Y-88330000D03*
G04 #@! TD*
G04 #@! TO.C,J11*
X153450000Y-88330000D03*
X153450000Y-90870000D03*
G04 #@! TD*
D11*
G04 #@! TO.C,J12*
X190440000Y-108760000D03*
X185360000Y-108760000D03*
X185360000Y-113840000D03*
X190440000Y-113840000D03*
D12*
X187900000Y-111300000D03*
G04 #@! TD*
D13*
G04 #@! TO.C,J13*
X189475000Y-118475000D03*
D14*
X188000000Y-116950000D03*
D13*
X186525000Y-118475000D03*
G04 #@! TD*
D12*
G04 #@! TO.C,J14*
X187900000Y-98300000D03*
D11*
X190440000Y-100840000D03*
X185360000Y-100840000D03*
X185360000Y-95760000D03*
X190440000Y-95760000D03*
G04 #@! TD*
D13*
G04 #@! TO.C,J15*
X189475000Y-91525000D03*
D14*
X188000000Y-93050000D03*
D13*
X186525000Y-91525000D03*
G04 #@! TD*
D15*
G04 #@! TO.C,M1*
X190500000Y-83820000D03*
G04 #@! TD*
G04 #@! TO.C,M2*
X139700000Y-83820000D03*
G04 #@! TD*
G04 #@! TO.C,M3*
X190500000Y-124460000D03*
G04 #@! TD*
G04 #@! TO.C,M4*
X139700000Y-124460000D03*
G04 #@! TD*
M02*
