*
*
G04 PADS Layout (Build Number 2006.45.1) generated Gerber (RS-274-X) file*
G04 PC Version=2.1*
*
%IN "TXIR01A.pcb"*%
*
%MOIN*%
*
%FSLAX35Y35*%
*
*
*
*
G04 PC Standard Apertures*
*
*
G04 Thermal Relief Aperture macro.*
%AMTER*
1,1,$1,0,0*
1,0,$1-$2,0,0*
21,0,$3,$4,0,0,45*
21,0,$3,$4,0,0,135*
%
*
*
G04 Annular Aperture macro.*
%AMANN*
1,1,$1,0,0*
1,0,$2,0,0*
%
*
*
G04 Odd Aperture macro.*
%AMODD*
1,1,$1,0,0*
1,0,$1-0.005,0,0*
%
*
*
G04 PC Custom Aperture Macros*
*
*
*
*
*
*
G04 PC Aperture Table*
*
%ADD024C,0.001*%
%ADD025C,0.01*%
*
*
*
*
G04 PC Copper Outlines (0)*
G04 Layer Name TXIR01A.pcb - dark (0)*
%LPD*%
*
*
G04 PC Area=Custom_Thermal*
*
G04 PC Custom Flashes*
G04 Layer Name TXIR01A.pcb - flashes*
%LPD*%
*
*
G04 PC Circuitry*
G04 Layer Name TXIR01A.pcb - circuitry*
%LPD*%
*
G54D24*
G01X160000Y200000D02*
X160003D01*
X280000D02*
X280003D01*
X280000Y120000D02*
X280003D01*
X280000Y200000D02*
X280003D01*
G54D25*
X160000D02*
X280000D01*
Y120000*
X160000*
Y200000*
Y216000D02*
X202341D01*
X160000D02*
X170000Y218500D01*
Y213500*
X160000Y216000*
X280000D02*
X237659D01*
X280000D02*
X270000Y213500D01*
Y218500*
X280000Y216000*
X160000Y205000D02*
Y221000D01*
X280000Y205000D02*
Y221000D01*
X205341Y217562D02*
X205795Y217875D01*
X206477Y218812*
X206477D02*
Y212250D01*
X208750Y217250D02*
Y217562D01*
X208750D02*
X208977Y218187D01*
X208977D02*
X209205Y218500D01*
X209659Y218812*
X209659D02*
X210568D01*
X210568D02*
X211023Y218500D01*
X211250Y218187*
X211250D02*
X211477Y217562D01*
X211477D02*
Y216937D01*
X211477D02*
X211250Y216312D01*
X211250D02*
X210795Y215375D01*
X208523Y212250*
X211705*
X215114Y218812D02*
X214432Y218500D01*
X213977Y217562*
X213977D02*
X213750Y216000D01*
Y215062*
X213750D02*
X213977Y213500D01*
X214432Y212562*
X214432D02*
X215114Y212250D01*
X215568*
X216250Y212562*
X216250D02*
X216705Y213500D01*
X216932Y215062*
X216932D02*
Y216000D01*
X216705Y217562*
X216705D02*
X216250Y218500D01*
X215568Y218812*
X215568D02*
X215114D01*
X220341D02*
X219659Y218500D01*
X219205Y217562*
X219205D02*
X218977Y216000D01*
Y215062*
X218977D02*
X219205Y213500D01*
X219659Y212562*
X219659D02*
X220341Y212250D01*
X220795*
X221477Y212562*
X221477D02*
X221932Y213500D01*
X222159Y215062*
X222159D02*
Y216000D01*
X221932Y217562*
X221932D02*
X221477Y218500D01*
X220795Y218812*
X220795D02*
X220341D01*
X224205Y216625D02*
Y212250D01*
Y215375D02*
X224886Y216312D01*
X224886D02*
X225341Y216625D01*
X226023*
X226477Y216312*
X226477D02*
X226705Y215375D01*
Y212250*
Y215375D02*
X227386Y216312D01*
X227386D02*
X227841Y216625D01*
X228523*
X228977Y216312*
X228977D02*
X229205Y215375D01*
Y212250*
X231250Y218812D02*
X231477Y218500D01*
X231705Y218812*
X231705D02*
X231477Y219125D01*
X231250Y218812*
X231477Y216625D02*
Y212250D01*
X233750Y218812D02*
Y212250D01*
X298000Y120000D02*
Y153250D01*
Y120000D02*
X295500Y130000D01*
X300500*
X298000Y120000*
Y200000D02*
Y166750D01*
Y200000D02*
X300500Y190000D01*
X295500*
X298000Y200000*
X285000Y120000D02*
X303000D01*
X285000Y200000D02*
X303000D01*
X286068Y162812D02*
X285386Y162500D01*
X285159Y161875*
Y161250*
X285386Y160625*
X285841Y160312*
X285841D02*
X286750Y160000D01*
X287432Y159687*
X287432D02*
X287886Y159062D01*
X287886D02*
X288114Y158437D01*
X288114D02*
Y157500D01*
X287886Y156875*
X287659Y156562*
X287659D02*
X286977Y156250D01*
X286068*
X285386Y156562*
X285386D02*
X285159Y156875D01*
X284932Y157500*
Y158437*
X284932D02*
X285159Y159062D01*
X285159D02*
X285614Y159687D01*
X285614D02*
X286295Y160000D01*
X287205Y160312*
X287205D02*
X287659Y160625D01*
X287886Y161250*
Y161875*
X287659Y162500*
X286977Y162812*
X286977D02*
X286068D01*
X291523D02*
X290841Y162500D01*
X290386Y161562*
X290386D02*
X290159Y160000D01*
Y159062*
X290159D02*
X290386Y157500D01*
X290841Y156562*
X290841D02*
X291523Y156250D01*
X291977*
X292659Y156562*
X292659D02*
X293114Y157500D01*
X293341Y159062*
X293341D02*
Y160000D01*
X293114Y161562*
X293114D02*
X292659Y162500D01*
X291977Y162812*
X291977D02*
X291523D01*
X296750D02*
X296068Y162500D01*
X295614Y161562*
X295614D02*
X295386Y160000D01*
Y159062*
X295386D02*
X295614Y157500D01*
X296068Y156562*
X296068D02*
X296750Y156250D01*
X297205*
X297886Y156562*
X297886D02*
X298341Y157500D01*
X298568Y159062*
X298568D02*
Y160000D01*
X298341Y161562*
X298341D02*
X297886Y162500D01*
X297205Y162812*
X297205D02*
X296750D01*
X300614Y160625D02*
Y156250D01*
Y159375D02*
X301295Y160312D01*
X301295D02*
X301750Y160625D01*
X302432*
X302886Y160312*
X302886D02*
X303114Y159375D01*
Y156250*
Y159375D02*
X303795Y160312D01*
X303795D02*
X304250Y160625D01*
X304932*
X305386Y160312*
X305386D02*
X305614Y159375D01*
Y156250*
X307659Y162812D02*
X307886Y162500D01*
X308114Y162812*
X308114D02*
X307886Y163125D01*
X307659Y162812*
X307886Y160625D02*
Y156250D01*
X310159Y162812D02*
Y156250D01*
X0Y0D02*
M02*
