G04 #@! TF.GenerationSoftware,KiCad,Pcbnew,(2017-08-08 revision 53204e097)-makepkg*
G04 #@! TF.CreationDate,2017-08-23T13:37:33+02:00*
G04 #@! TF.ProjectId,usbhub01a,7573626875623031612E6B696361645F,rev?*
G04 #@! TF.SameCoordinates,Original*
G04 #@! TF.FileFunction,Copper,L2,Inr,Signal*
G04 #@! TF.FilePolarity,Positive*
%FSLAX46Y46*%
G04 Gerber Fmt 4.6, Leading zero omitted, Abs format (unit mm)*
G04 Created by KiCad (PCBNEW (2017-08-08 revision 53204e097)-makepkg) date 08/23/17 13:37:33*
%MOMM*%
%LPD*%
G01*
G04 APERTURE LIST*
%ADD10R,3.810000X3.810000*%
%ADD11C,1.524000*%
%ADD12C,2.700020*%
%ADD13C,1.350000*%
%ADD14R,1.524000X1.524000*%
%ADD15C,6.000000*%
%ADD16C,1.300000*%
%ADD17C,2.999740*%
%ADD18C,0.600000*%
%ADD19C,0.600000*%
%ADD20C,0.300000*%
%ADD21C,0.254000*%
G04 APERTURE END LIST*
D10*
X173431200Y-134495400D03*
X173431200Y-128295400D03*
X168431200Y-131395400D03*
D11*
X151666000Y-124481000D03*
X149896000Y-124481000D03*
X147396000Y-124481000D03*
X144896000Y-124481000D03*
X143166000Y-124481000D03*
X148646000Y-126481000D03*
X146146000Y-126481000D03*
X146146000Y-128481000D03*
X148646000Y-128481000D03*
D12*
X153416000Y-131191000D03*
X141396720Y-131255500D03*
D13*
X112141000Y-127648000D03*
X112109000Y-97409000D03*
X120891000Y-66005848D03*
X151384000Y-65627000D03*
D14*
X169672000Y-103124000D03*
X167132000Y-103124000D03*
X169672000Y-100584000D03*
X167132000Y-100584000D03*
X169672000Y-98044000D03*
X167132000Y-98044000D03*
X169672000Y-95504000D03*
X167132000Y-95504000D03*
X169672000Y-92964000D03*
X167132000Y-92964000D03*
D15*
X182880000Y-66040000D03*
X182880000Y-137160000D03*
X111760000Y-66040000D03*
X111760000Y-137160000D03*
D16*
X123134000Y-120620000D03*
X123134000Y-118620000D03*
X123134000Y-116620000D03*
X123134000Y-114620000D03*
X123134000Y-112620000D03*
X121634000Y-120120000D03*
D17*
X119634000Y-110050000D03*
X119634000Y-123190000D03*
D16*
X121634000Y-113120000D03*
X121634000Y-115620000D03*
X121634000Y-117620000D03*
X123032400Y-90317800D03*
X123032400Y-88317800D03*
X123032400Y-86317800D03*
X123032400Y-84317800D03*
X123032400Y-82317800D03*
X121532400Y-89817800D03*
D17*
X119532400Y-79747800D03*
X119532400Y-92887800D03*
D16*
X121532400Y-82817800D03*
X121532400Y-85317800D03*
X121532400Y-87317800D03*
X158526000Y-76906000D03*
X160526000Y-76906000D03*
X162526000Y-76906000D03*
X164526000Y-76906000D03*
X166526000Y-76906000D03*
X159026000Y-75406000D03*
D17*
X169096000Y-73406000D03*
X155956000Y-73406000D03*
D16*
X166026000Y-75406000D03*
X163526000Y-75406000D03*
X161526000Y-75406000D03*
X128046000Y-77033000D03*
X130046000Y-77033000D03*
X132046000Y-77033000D03*
X134046000Y-77033000D03*
X136046000Y-77033000D03*
X128546000Y-75533000D03*
D17*
X138616000Y-73533000D03*
X125476000Y-73533000D03*
D16*
X135546000Y-75533000D03*
X133046000Y-75533000D03*
X131046000Y-75533000D03*
D14*
X168046400Y-86156800D03*
X168046400Y-88696800D03*
X165506400Y-86156800D03*
X165506400Y-88696800D03*
X162966400Y-86156800D03*
X162966400Y-88696800D03*
X160426400Y-86156800D03*
X160426400Y-88696800D03*
X157530800Y-102870000D03*
X160070800Y-102870000D03*
X157530800Y-105410000D03*
X160070800Y-105410000D03*
X157530800Y-107950000D03*
X160070800Y-107950000D03*
X157530800Y-110490000D03*
X160070800Y-110490000D03*
X157530800Y-113030000D03*
X160070800Y-113030000D03*
X157530800Y-115570000D03*
X160070800Y-115570000D03*
D18*
X158112257Y-99567219D03*
X144678400Y-105841798D03*
X149377400Y-105867200D03*
X151604303Y-103184046D03*
X142865800Y-97850000D03*
X151790400Y-98350000D03*
X185826400Y-83083400D03*
X161170383Y-126887767D03*
X161158751Y-128772183D03*
X159700279Y-130507993D03*
X161620200Y-130530600D03*
X158343600Y-135356602D03*
X152857200Y-90576400D03*
X131826000Y-99009202D03*
X151892006Y-96570800D03*
X131724400Y-105003600D03*
X142214075Y-80417696D03*
X143289827Y-64368409D03*
X144766291Y-88807594D03*
X139095894Y-112122354D03*
X141393400Y-115450722D03*
X178409600Y-105460800D03*
X159258000Y-117348000D03*
X149352000Y-103632000D03*
X148336000Y-103632000D03*
X147320000Y-103632000D03*
X146304000Y-103632008D03*
X145288000Y-103631976D03*
X145287984Y-102616000D03*
X146304024Y-102616000D03*
X147320000Y-101600006D03*
X146304000Y-101663508D03*
X149352000Y-102616000D03*
X148335976Y-102616000D03*
X147320000Y-102616000D03*
X186041865Y-106148277D03*
X178409600Y-106984802D03*
X165483466Y-99423182D03*
X165481000Y-101803200D03*
X165197090Y-140036784D03*
X178409600Y-106172000D03*
X164506768Y-95321494D03*
X167132000Y-66724000D03*
X166192000Y-66724000D03*
X167132000Y-67564000D03*
X166192000Y-67564000D03*
X135712000Y-67803000D03*
X136652000Y-67803000D03*
X135712000Y-66963000D03*
X136652000Y-66963000D03*
X113793800Y-81661000D03*
X112953800Y-81661000D03*
X112953800Y-82601000D03*
X113793800Y-82601000D03*
X113846935Y-112857607D03*
X113006935Y-112857607D03*
X113846935Y-111917607D03*
X113006935Y-111917607D03*
X181457600Y-121208800D03*
X178282600Y-121208800D03*
X181457600Y-123748800D03*
X175107600Y-123748800D03*
X175107600Y-121208800D03*
X181457600Y-118668800D03*
X181457600Y-116128800D03*
X175107600Y-118668800D03*
X175107600Y-116128800D03*
X178282600Y-123748808D03*
X178282600Y-118668800D03*
X178282600Y-116128800D03*
X177174797Y-83141323D03*
X185420000Y-94996000D03*
X181431500Y-96341500D03*
X179756500Y-96341500D03*
X181431500Y-94666500D03*
X179756500Y-94666500D03*
X141492327Y-108646297D03*
X150692362Y-75186567D03*
X150697931Y-73387792D03*
X150692362Y-71622431D03*
X120188551Y-71773020D03*
X120187716Y-75315538D03*
X120175096Y-73529748D03*
X121310400Y-98467967D03*
X119514925Y-98470707D03*
X117647060Y-98475533D03*
X121377447Y-128637691D03*
X119598920Y-128648635D03*
X117776615Y-128654108D03*
X135735981Y-133241425D03*
X135731625Y-131222624D03*
X135727270Y-129193110D03*
X149352000Y-99631500D03*
X148336000Y-99631500D03*
X147320000Y-99631498D03*
X146304000Y-99631500D03*
X145298321Y-99616649D03*
X146304000Y-100520500D03*
X149352000Y-101663500D03*
X148336000Y-101663500D03*
X145288000Y-101663500D03*
X148336000Y-100520500D03*
X147320000Y-100520504D03*
X149351994Y-100520500D03*
X151384000Y-112014000D03*
X145288000Y-100520506D03*
X176276000Y-91821000D03*
X143052800Y-103124000D03*
X147066000Y-105948011D03*
X150228151Y-105857348D03*
X150571200Y-97155012D03*
X149085132Y-97147483D03*
X145575544Y-97147483D03*
X181927500Y-88455500D03*
X143002000Y-99364800D03*
X161696400Y-98348800D03*
X164678383Y-110506318D03*
X164669506Y-115557613D03*
X182219600Y-106984800D03*
X182219600Y-105460800D03*
X182219600Y-106222800D03*
X169418000Y-68884804D03*
X138938000Y-68884798D03*
X184277000Y-99059992D03*
X164668200Y-105410000D03*
X177800000Y-99060000D03*
X179324000Y-99060000D03*
X181864000Y-99060000D03*
X114935000Y-79311500D03*
X114935000Y-109664500D03*
X178308000Y-74168000D03*
X165023800Y-126873000D03*
X165023796Y-127863600D03*
X165023798Y-128778000D03*
X174599600Y-105460800D03*
X174599600Y-106222800D03*
X174599607Y-106984793D03*
X171450000Y-70612000D03*
X172212000Y-70612006D03*
X170688024Y-70612000D03*
X117348000Y-108965976D03*
X117348006Y-107442000D03*
X117348000Y-108204000D03*
X140208024Y-70866000D03*
X141732000Y-70866006D03*
X140970000Y-70866000D03*
X117094000Y-77978000D03*
X117094006Y-77216000D03*
X117094000Y-78739976D03*
X157751012Y-120891120D03*
X154663957Y-106064270D03*
X154818146Y-103829646D03*
X155068767Y-103069904D03*
X151831200Y-104299568D03*
X159156402Y-83718400D03*
X155171957Y-96266000D03*
X154676010Y-98348800D03*
X154766040Y-99225000D03*
X180902886Y-79701114D03*
X177799996Y-79375000D03*
X153021473Y-106566525D03*
X119189500Y-103251000D03*
X116078000Y-110490000D03*
X161613242Y-120931067D03*
D19*
X158112257Y-99567219D02*
X157654475Y-100025001D01*
X157654475Y-100025001D02*
X154763348Y-100025001D01*
X154763348Y-100025001D02*
X151904302Y-102884047D01*
X151904302Y-102884047D02*
X151604303Y-103184046D01*
X179641500Y-90741500D02*
X154012900Y-90741500D01*
X181927500Y-88455500D02*
X179641500Y-90741500D01*
X154012900Y-90741500D02*
X150571200Y-94183200D01*
X150571200Y-94183200D02*
X150571200Y-97155012D01*
X178308000Y-74168000D02*
X184277000Y-80137000D01*
X184277000Y-80137000D02*
X184277000Y-96875600D01*
X183972192Y-99059992D02*
X184277000Y-99059992D01*
X184277000Y-96875600D02*
X183032400Y-98120200D01*
X183032400Y-98120200D02*
X183972192Y-99059992D01*
X114935000Y-79311500D02*
X114935000Y-73329800D01*
X119380002Y-68884798D02*
X138513736Y-68884798D01*
X114935000Y-73329800D02*
X119380002Y-68884798D01*
X138513736Y-68884798D02*
X138938000Y-68884798D01*
X182219600Y-105460800D02*
X182219600Y-99415600D01*
X182219600Y-99415600D02*
X181864000Y-99060000D01*
X164668200Y-98552000D02*
X164465000Y-98348800D01*
X162120664Y-98348800D02*
X161696400Y-98348800D01*
X164465000Y-98348800D02*
X162120664Y-98348800D01*
X169672000Y-98044000D02*
X169722800Y-98094800D01*
X169722800Y-98094800D02*
X174853600Y-98094800D01*
X174853600Y-98094800D02*
X175818800Y-99060000D01*
X175818800Y-99060000D02*
X177800000Y-99060000D01*
X164668200Y-98552000D02*
X164871400Y-98348800D01*
X166827200Y-98348800D02*
X167132000Y-98044000D01*
X164871400Y-98348800D02*
X166827200Y-98348800D01*
D20*
X164668200Y-105410000D02*
X164668200Y-104985736D01*
X164668200Y-104985736D02*
X164668200Y-98552000D01*
D19*
X182219600Y-106222800D02*
X182219600Y-105460800D01*
X182219600Y-106984800D02*
X182219600Y-106222800D01*
X169842264Y-68884804D02*
X169418000Y-68884804D01*
X173024804Y-68884804D02*
X169842264Y-68884804D01*
X178308000Y-74168000D02*
X173024804Y-68884804D01*
X169417994Y-68884798D02*
X169418000Y-68884804D01*
X138938000Y-68884798D02*
X169417994Y-68884798D01*
X184276992Y-99060000D02*
X184277000Y-99059992D01*
X181864000Y-99060000D02*
X184276992Y-99060000D01*
X114935000Y-79311500D02*
X114935000Y-109240236D01*
X114935000Y-109240236D02*
X114935000Y-109664500D01*
X179324000Y-99060000D02*
X181864000Y-99060000D01*
X177800000Y-99060000D02*
X179324000Y-99060000D01*
X164642800Y-105435400D02*
X164668200Y-105410000D01*
X167132000Y-98044000D02*
X169672000Y-98044000D01*
X174599607Y-106984793D02*
X174599607Y-111302807D01*
X174599607Y-111302807D02*
X171577000Y-114325414D01*
X171577000Y-114325414D02*
X171577000Y-126619000D01*
X171577000Y-126619000D02*
X173228000Y-128270000D01*
X174599600Y-106222800D02*
X174599600Y-106984786D01*
X174599600Y-106984786D02*
X174599607Y-106984793D01*
X174599600Y-105460800D02*
X174599600Y-106222800D01*
D20*
G36*
X150998156Y-91687398D02*
X152915075Y-93603878D01*
X152930745Y-100514102D01*
X151232554Y-102212293D01*
X151232551Y-102212295D01*
X150933994Y-102510853D01*
X150799401Y-102645211D01*
X150654468Y-102994250D01*
X150654138Y-103372184D01*
X150798462Y-103721475D01*
X150970880Y-103894195D01*
X150881365Y-104109772D01*
X150881035Y-104487706D01*
X151025359Y-104836997D01*
X151292365Y-105104470D01*
X151641404Y-105249403D01*
X152019338Y-105249733D01*
X152368629Y-105105409D01*
X152636102Y-104838403D01*
X152781035Y-104489364D01*
X152781365Y-104111430D01*
X152637041Y-103762139D01*
X152503494Y-103628358D01*
X152576054Y-103555798D01*
X152576056Y-103555795D01*
X152936824Y-103195027D01*
X152942315Y-105616455D01*
X152833335Y-105616360D01*
X152484044Y-105760684D01*
X152216571Y-106027690D01*
X152071638Y-106376729D01*
X152071308Y-106754663D01*
X152215632Y-107103954D01*
X152482638Y-107371427D01*
X152831677Y-107516360D01*
X152946624Y-107516460D01*
X152956524Y-111882424D01*
X151049189Y-113790197D01*
X136479044Y-113760502D01*
X135028702Y-112310492D01*
X138145729Y-112310492D01*
X138290053Y-112659783D01*
X138557059Y-112927256D01*
X138906098Y-113072189D01*
X139284032Y-113072519D01*
X139633323Y-112928195D01*
X139900796Y-112661189D01*
X140045729Y-112312150D01*
X140045825Y-112202138D01*
X150433835Y-112202138D01*
X150578159Y-112551429D01*
X150845165Y-112818902D01*
X151194204Y-112963835D01*
X151572138Y-112964165D01*
X151921429Y-112819841D01*
X152188902Y-112552835D01*
X152333835Y-112203796D01*
X152334165Y-111825862D01*
X152189841Y-111476571D01*
X151922835Y-111209098D01*
X151573796Y-111064165D01*
X151195862Y-111063835D01*
X150846571Y-111208159D01*
X150579098Y-111475165D01*
X150434165Y-111824204D01*
X150433835Y-112202138D01*
X140045825Y-112202138D01*
X140046059Y-111934216D01*
X139901735Y-111584925D01*
X139634729Y-111317452D01*
X139285690Y-111172519D01*
X138907756Y-111172189D01*
X138558465Y-111316513D01*
X138290992Y-111583519D01*
X138146059Y-111932558D01*
X138145729Y-112310492D01*
X135028702Y-112310492D01*
X134562125Y-111844022D01*
X134555301Y-108834435D01*
X140542162Y-108834435D01*
X140686486Y-109183726D01*
X140953492Y-109451199D01*
X141302531Y-109596132D01*
X141680465Y-109596462D01*
X142029756Y-109452138D01*
X142297229Y-109185132D01*
X142442162Y-108836093D01*
X142442492Y-108458159D01*
X142298168Y-108108868D01*
X142031162Y-107841395D01*
X141682123Y-107696462D01*
X141304189Y-107696132D01*
X140954898Y-107840456D01*
X140687425Y-108107462D01*
X140542492Y-108456501D01*
X140542162Y-108834435D01*
X134555301Y-108834435D01*
X134548942Y-106029936D01*
X143728235Y-106029936D01*
X143872559Y-106379227D01*
X144139565Y-106646700D01*
X144488604Y-106791633D01*
X144866538Y-106791963D01*
X145215829Y-106647639D01*
X145483302Y-106380633D01*
X145618375Y-106055338D01*
X148427235Y-106055338D01*
X148571559Y-106404629D01*
X148838565Y-106672102D01*
X149187604Y-106817035D01*
X149565538Y-106817365D01*
X149914829Y-106673041D01*
X150182302Y-106406035D01*
X150327235Y-106056996D01*
X150327565Y-105679062D01*
X150183241Y-105329771D01*
X149916235Y-105062298D01*
X149567196Y-104917365D01*
X149189262Y-104917035D01*
X148839971Y-105061359D01*
X148572498Y-105328365D01*
X148427565Y-105677404D01*
X148427235Y-106055338D01*
X145618375Y-106055338D01*
X145628235Y-106031594D01*
X145628565Y-105653660D01*
X145484241Y-105304369D01*
X145217235Y-105036896D01*
X144868196Y-104891963D01*
X144490262Y-104891633D01*
X144140971Y-105035957D01*
X143873498Y-105302963D01*
X143728565Y-105652002D01*
X143728235Y-106029936D01*
X134548942Y-106029936D01*
X134541627Y-102804138D01*
X144337819Y-102804138D01*
X144470133Y-103124363D01*
X144338165Y-103442180D01*
X144337835Y-103820114D01*
X144482159Y-104169405D01*
X144749165Y-104436878D01*
X145098204Y-104581811D01*
X145476138Y-104582141D01*
X145796318Y-104449846D01*
X146114204Y-104581843D01*
X146492138Y-104582173D01*
X146812366Y-104449858D01*
X147130204Y-104581835D01*
X147508138Y-104582165D01*
X147828356Y-104449854D01*
X148146204Y-104581835D01*
X148524138Y-104582165D01*
X148844356Y-104449854D01*
X149162204Y-104581835D01*
X149540138Y-104582165D01*
X149889429Y-104437841D01*
X150156902Y-104170835D01*
X150301835Y-103821796D01*
X150302165Y-103443862D01*
X150169854Y-103123644D01*
X150301835Y-102805796D01*
X150302165Y-102427862D01*
X150183005Y-102139472D01*
X150301835Y-101853296D01*
X150302165Y-101475362D01*
X150157841Y-101126071D01*
X150124001Y-101092172D01*
X150156896Y-101059335D01*
X150301829Y-100710296D01*
X150302159Y-100332362D01*
X150196153Y-100075808D01*
X150301835Y-99821296D01*
X150302165Y-99443362D01*
X150157841Y-99094071D01*
X149890835Y-98826598D01*
X149541796Y-98681665D01*
X149163862Y-98681335D01*
X148843644Y-98813646D01*
X148525796Y-98681665D01*
X148147862Y-98681335D01*
X147827646Y-98813645D01*
X147509796Y-98681663D01*
X147131862Y-98681333D01*
X146811641Y-98813645D01*
X146493796Y-98681665D01*
X146115862Y-98681335D01*
X145818744Y-98804102D01*
X145488117Y-98666814D01*
X145110183Y-98666484D01*
X144760892Y-98810808D01*
X144493419Y-99077814D01*
X144348486Y-99426853D01*
X144348156Y-99804787D01*
X144452094Y-100056337D01*
X144338165Y-100330710D01*
X144337835Y-100708644D01*
X144482159Y-101057935D01*
X144515993Y-101091828D01*
X144483098Y-101124665D01*
X144338165Y-101473704D01*
X144337835Y-101851638D01*
X144456987Y-102140009D01*
X144338149Y-102426204D01*
X144337819Y-102804138D01*
X134541627Y-102804138D01*
X134530819Y-98038138D01*
X141915635Y-98038138D01*
X142059959Y-98387429D01*
X142326965Y-98654902D01*
X142676004Y-98799835D01*
X143053938Y-98800165D01*
X143403229Y-98655841D01*
X143521137Y-98538138D01*
X150840235Y-98538138D01*
X150984559Y-98887429D01*
X151251565Y-99154902D01*
X151600604Y-99299835D01*
X151978538Y-99300165D01*
X152327829Y-99155841D01*
X152595302Y-98888835D01*
X152740235Y-98539796D01*
X152740565Y-98161862D01*
X152596241Y-97812571D01*
X152329235Y-97545098D01*
X152175866Y-97481414D01*
X152429435Y-97376641D01*
X152696908Y-97109635D01*
X152841841Y-96760596D01*
X152842171Y-96382662D01*
X152697847Y-96033371D01*
X152430841Y-95765898D01*
X152081802Y-95620965D01*
X151703868Y-95620635D01*
X151354577Y-95764959D01*
X151087104Y-96031965D01*
X150942171Y-96381004D01*
X150941841Y-96758938D01*
X151086165Y-97108229D01*
X151353171Y-97375702D01*
X151506540Y-97439386D01*
X151252971Y-97544159D01*
X150985498Y-97811165D01*
X150840565Y-98160204D01*
X150840235Y-98538138D01*
X143521137Y-98538138D01*
X143670702Y-98388835D01*
X143815635Y-98039796D01*
X143815965Y-97661862D01*
X143671641Y-97312571D01*
X143404635Y-97045098D01*
X143055596Y-96900165D01*
X142677662Y-96899835D01*
X142328371Y-97044159D01*
X142060898Y-97311165D01*
X141915965Y-97660204D01*
X141915635Y-98038138D01*
X134530819Y-98038138D01*
X134520676Y-93565476D01*
X136428011Y-91657703D01*
X150998156Y-91687398D01*
X150998156Y-91687398D01*
G37*
X150998156Y-91687398D02*
X152915075Y-93603878D01*
X152930745Y-100514102D01*
X151232554Y-102212293D01*
X151232551Y-102212295D01*
X150933994Y-102510853D01*
X150799401Y-102645211D01*
X150654468Y-102994250D01*
X150654138Y-103372184D01*
X150798462Y-103721475D01*
X150970880Y-103894195D01*
X150881365Y-104109772D01*
X150881035Y-104487706D01*
X151025359Y-104836997D01*
X151292365Y-105104470D01*
X151641404Y-105249403D01*
X152019338Y-105249733D01*
X152368629Y-105105409D01*
X152636102Y-104838403D01*
X152781035Y-104489364D01*
X152781365Y-104111430D01*
X152637041Y-103762139D01*
X152503494Y-103628358D01*
X152576054Y-103555798D01*
X152576056Y-103555795D01*
X152936824Y-103195027D01*
X152942315Y-105616455D01*
X152833335Y-105616360D01*
X152484044Y-105760684D01*
X152216571Y-106027690D01*
X152071638Y-106376729D01*
X152071308Y-106754663D01*
X152215632Y-107103954D01*
X152482638Y-107371427D01*
X152831677Y-107516360D01*
X152946624Y-107516460D01*
X152956524Y-111882424D01*
X151049189Y-113790197D01*
X136479044Y-113760502D01*
X135028702Y-112310492D01*
X138145729Y-112310492D01*
X138290053Y-112659783D01*
X138557059Y-112927256D01*
X138906098Y-113072189D01*
X139284032Y-113072519D01*
X139633323Y-112928195D01*
X139900796Y-112661189D01*
X140045729Y-112312150D01*
X140045825Y-112202138D01*
X150433835Y-112202138D01*
X150578159Y-112551429D01*
X150845165Y-112818902D01*
X151194204Y-112963835D01*
X151572138Y-112964165D01*
X151921429Y-112819841D01*
X152188902Y-112552835D01*
X152333835Y-112203796D01*
X152334165Y-111825862D01*
X152189841Y-111476571D01*
X151922835Y-111209098D01*
X151573796Y-111064165D01*
X151195862Y-111063835D01*
X150846571Y-111208159D01*
X150579098Y-111475165D01*
X150434165Y-111824204D01*
X150433835Y-112202138D01*
X140045825Y-112202138D01*
X140046059Y-111934216D01*
X139901735Y-111584925D01*
X139634729Y-111317452D01*
X139285690Y-111172519D01*
X138907756Y-111172189D01*
X138558465Y-111316513D01*
X138290992Y-111583519D01*
X138146059Y-111932558D01*
X138145729Y-112310492D01*
X135028702Y-112310492D01*
X134562125Y-111844022D01*
X134555301Y-108834435D01*
X140542162Y-108834435D01*
X140686486Y-109183726D01*
X140953492Y-109451199D01*
X141302531Y-109596132D01*
X141680465Y-109596462D01*
X142029756Y-109452138D01*
X142297229Y-109185132D01*
X142442162Y-108836093D01*
X142442492Y-108458159D01*
X142298168Y-108108868D01*
X142031162Y-107841395D01*
X141682123Y-107696462D01*
X141304189Y-107696132D01*
X140954898Y-107840456D01*
X140687425Y-108107462D01*
X140542492Y-108456501D01*
X140542162Y-108834435D01*
X134555301Y-108834435D01*
X134548942Y-106029936D01*
X143728235Y-106029936D01*
X143872559Y-106379227D01*
X144139565Y-106646700D01*
X144488604Y-106791633D01*
X144866538Y-106791963D01*
X145215829Y-106647639D01*
X145483302Y-106380633D01*
X145618375Y-106055338D01*
X148427235Y-106055338D01*
X148571559Y-106404629D01*
X148838565Y-106672102D01*
X149187604Y-106817035D01*
X149565538Y-106817365D01*
X149914829Y-106673041D01*
X150182302Y-106406035D01*
X150327235Y-106056996D01*
X150327565Y-105679062D01*
X150183241Y-105329771D01*
X149916235Y-105062298D01*
X149567196Y-104917365D01*
X149189262Y-104917035D01*
X148839971Y-105061359D01*
X148572498Y-105328365D01*
X148427565Y-105677404D01*
X148427235Y-106055338D01*
X145618375Y-106055338D01*
X145628235Y-106031594D01*
X145628565Y-105653660D01*
X145484241Y-105304369D01*
X145217235Y-105036896D01*
X144868196Y-104891963D01*
X144490262Y-104891633D01*
X144140971Y-105035957D01*
X143873498Y-105302963D01*
X143728565Y-105652002D01*
X143728235Y-106029936D01*
X134548942Y-106029936D01*
X134541627Y-102804138D01*
X144337819Y-102804138D01*
X144470133Y-103124363D01*
X144338165Y-103442180D01*
X144337835Y-103820114D01*
X144482159Y-104169405D01*
X144749165Y-104436878D01*
X145098204Y-104581811D01*
X145476138Y-104582141D01*
X145796318Y-104449846D01*
X146114204Y-104581843D01*
X146492138Y-104582173D01*
X146812366Y-104449858D01*
X147130204Y-104581835D01*
X147508138Y-104582165D01*
X147828356Y-104449854D01*
X148146204Y-104581835D01*
X148524138Y-104582165D01*
X148844356Y-104449854D01*
X149162204Y-104581835D01*
X149540138Y-104582165D01*
X149889429Y-104437841D01*
X150156902Y-104170835D01*
X150301835Y-103821796D01*
X150302165Y-103443862D01*
X150169854Y-103123644D01*
X150301835Y-102805796D01*
X150302165Y-102427862D01*
X150183005Y-102139472D01*
X150301835Y-101853296D01*
X150302165Y-101475362D01*
X150157841Y-101126071D01*
X150124001Y-101092172D01*
X150156896Y-101059335D01*
X150301829Y-100710296D01*
X150302159Y-100332362D01*
X150196153Y-100075808D01*
X150301835Y-99821296D01*
X150302165Y-99443362D01*
X150157841Y-99094071D01*
X149890835Y-98826598D01*
X149541796Y-98681665D01*
X149163862Y-98681335D01*
X148843644Y-98813646D01*
X148525796Y-98681665D01*
X148147862Y-98681335D01*
X147827646Y-98813645D01*
X147509796Y-98681663D01*
X147131862Y-98681333D01*
X146811641Y-98813645D01*
X146493796Y-98681665D01*
X146115862Y-98681335D01*
X145818744Y-98804102D01*
X145488117Y-98666814D01*
X145110183Y-98666484D01*
X144760892Y-98810808D01*
X144493419Y-99077814D01*
X144348486Y-99426853D01*
X144348156Y-99804787D01*
X144452094Y-100056337D01*
X144338165Y-100330710D01*
X144337835Y-100708644D01*
X144482159Y-101057935D01*
X144515993Y-101091828D01*
X144483098Y-101124665D01*
X144338165Y-101473704D01*
X144337835Y-101851638D01*
X144456987Y-102140009D01*
X144338149Y-102426204D01*
X144337819Y-102804138D01*
X134541627Y-102804138D01*
X134530819Y-98038138D01*
X141915635Y-98038138D01*
X142059959Y-98387429D01*
X142326965Y-98654902D01*
X142676004Y-98799835D01*
X143053938Y-98800165D01*
X143403229Y-98655841D01*
X143521137Y-98538138D01*
X150840235Y-98538138D01*
X150984559Y-98887429D01*
X151251565Y-99154902D01*
X151600604Y-99299835D01*
X151978538Y-99300165D01*
X152327829Y-99155841D01*
X152595302Y-98888835D01*
X152740235Y-98539796D01*
X152740565Y-98161862D01*
X152596241Y-97812571D01*
X152329235Y-97545098D01*
X152175866Y-97481414D01*
X152429435Y-97376641D01*
X152696908Y-97109635D01*
X152841841Y-96760596D01*
X152842171Y-96382662D01*
X152697847Y-96033371D01*
X152430841Y-95765898D01*
X152081802Y-95620965D01*
X151703868Y-95620635D01*
X151354577Y-95764959D01*
X151087104Y-96031965D01*
X150942171Y-96381004D01*
X150941841Y-96758938D01*
X151086165Y-97108229D01*
X151353171Y-97375702D01*
X151506540Y-97439386D01*
X151252971Y-97544159D01*
X150985498Y-97811165D01*
X150840565Y-98160204D01*
X150840235Y-98538138D01*
X143521137Y-98538138D01*
X143670702Y-98388835D01*
X143815635Y-98039796D01*
X143815965Y-97661862D01*
X143671641Y-97312571D01*
X143404635Y-97045098D01*
X143055596Y-96900165D01*
X142677662Y-96899835D01*
X142328371Y-97044159D01*
X142060898Y-97311165D01*
X141915965Y-97660204D01*
X141915635Y-98038138D01*
X134530819Y-98038138D01*
X134520676Y-93565476D01*
X136428011Y-91657703D01*
X150998156Y-91687398D01*
D21*
G36*
X165912191Y-96723809D02*
X166122235Y-96864157D01*
X166370000Y-96913440D01*
X167894000Y-96913440D01*
X168141765Y-96864157D01*
X168351809Y-96723809D01*
X168402000Y-96648693D01*
X168452191Y-96723809D01*
X168662235Y-96864157D01*
X168910000Y-96913440D01*
X170434000Y-96913440D01*
X170681765Y-96864157D01*
X170891809Y-96723809D01*
X170943132Y-96647000D01*
X178871058Y-96647000D01*
X178963383Y-96870443D01*
X179226173Y-97133692D01*
X179569701Y-97276338D01*
X179941667Y-97276662D01*
X180285443Y-97134617D01*
X180548692Y-96871827D01*
X180593935Y-96762870D01*
X180638383Y-96870443D01*
X180901173Y-97133692D01*
X181244701Y-97276338D01*
X181616667Y-97276662D01*
X181960443Y-97134617D01*
X182223692Y-96871827D01*
X182317049Y-96647000D01*
X182478394Y-96647000D01*
X184404000Y-98572606D01*
X184404000Y-107167394D01*
X182478394Y-109093000D01*
X175534607Y-109093000D01*
X175534607Y-106985609D01*
X175534769Y-106799626D01*
X175534600Y-106799217D01*
X175534600Y-106223616D01*
X175534762Y-106037633D01*
X175534600Y-106037241D01*
X175534600Y-105645967D01*
X177474438Y-105645967D01*
X177544857Y-105816394D01*
X177474762Y-105985201D01*
X177474438Y-106357167D01*
X177565899Y-106578521D01*
X177474762Y-106798003D01*
X177474438Y-107169969D01*
X177616483Y-107513745D01*
X177879273Y-107776994D01*
X178222801Y-107919640D01*
X178594767Y-107919964D01*
X178938543Y-107777919D01*
X179201792Y-107515129D01*
X179344438Y-107171601D01*
X179344762Y-106799635D01*
X179253301Y-106578281D01*
X179344438Y-106358799D01*
X179344762Y-105986833D01*
X179274343Y-105816406D01*
X179344438Y-105647599D01*
X179344762Y-105275633D01*
X179202717Y-104931857D01*
X178939927Y-104668608D01*
X178596399Y-104525962D01*
X178224433Y-104525638D01*
X177880657Y-104667683D01*
X177617408Y-104930473D01*
X177474762Y-105274001D01*
X177474438Y-105645967D01*
X175534600Y-105645967D01*
X175534600Y-105461616D01*
X175534762Y-105275633D01*
X175392717Y-104931857D01*
X175129927Y-104668608D01*
X174786399Y-104525962D01*
X174414433Y-104525638D01*
X174070657Y-104667683D01*
X173807408Y-104930473D01*
X173664762Y-105274001D01*
X173664438Y-105645967D01*
X173664600Y-105646359D01*
X173664600Y-106221984D01*
X173664438Y-106407967D01*
X173664600Y-106408359D01*
X173664600Y-106984786D01*
X173664606Y-106984818D01*
X173664445Y-107169960D01*
X173664607Y-107170352D01*
X173664607Y-109093000D01*
X163088606Y-109093000D01*
X161480240Y-107484634D01*
X161480240Y-107188000D01*
X161430957Y-106940235D01*
X161290609Y-106730191D01*
X161215493Y-106680000D01*
X161290609Y-106629809D01*
X161430957Y-106419765D01*
X161480240Y-106172000D01*
X161480240Y-104648000D01*
X161430957Y-104400235D01*
X161290609Y-104190191D01*
X161215493Y-104140000D01*
X161290609Y-104089809D01*
X161430957Y-103879765D01*
X161480240Y-103632000D01*
X161480240Y-102108000D01*
X161456444Y-101988367D01*
X164545838Y-101988367D01*
X164687883Y-102332143D01*
X164950673Y-102595392D01*
X165294201Y-102738038D01*
X165666167Y-102738362D01*
X165722560Y-102715061D01*
X165722560Y-103886000D01*
X165771843Y-104133765D01*
X165912191Y-104343809D01*
X166122235Y-104484157D01*
X166370000Y-104533440D01*
X167894000Y-104533440D01*
X168141765Y-104484157D01*
X168351809Y-104343809D01*
X168402000Y-104268693D01*
X168452191Y-104343809D01*
X168662235Y-104484157D01*
X168910000Y-104533440D01*
X170434000Y-104533440D01*
X170681765Y-104484157D01*
X170891809Y-104343809D01*
X171032157Y-104133765D01*
X171081440Y-103886000D01*
X171081440Y-102362000D01*
X171032157Y-102114235D01*
X170891809Y-101904191D01*
X170816693Y-101854000D01*
X170891809Y-101803809D01*
X171032157Y-101593765D01*
X171073979Y-101383509D01*
X177897457Y-101383509D01*
X178199018Y-102113343D01*
X178756920Y-102672219D01*
X179486227Y-102975054D01*
X180275909Y-102975743D01*
X181005743Y-102674182D01*
X181564619Y-102116280D01*
X181867454Y-101386973D01*
X181868143Y-100597291D01*
X181566582Y-99867457D01*
X181008680Y-99308581D01*
X180279373Y-99005746D01*
X179489691Y-99005057D01*
X178759857Y-99306618D01*
X178200981Y-99864520D01*
X177898146Y-100593827D01*
X177897457Y-101383509D01*
X171073979Y-101383509D01*
X171081440Y-101346000D01*
X171081440Y-99822000D01*
X171032157Y-99574235D01*
X170891809Y-99364191D01*
X170681765Y-99223843D01*
X170434000Y-99174560D01*
X168910000Y-99174560D01*
X168662235Y-99223843D01*
X168452191Y-99364191D01*
X168402000Y-99439307D01*
X168351809Y-99364191D01*
X168141765Y-99223843D01*
X167894000Y-99174560D01*
X166392409Y-99174560D01*
X166276583Y-98894239D01*
X166013793Y-98630990D01*
X165670265Y-98488344D01*
X165298299Y-98488020D01*
X164954523Y-98630065D01*
X164691274Y-98892855D01*
X164548628Y-99236383D01*
X164548304Y-99608349D01*
X164690349Y-99952125D01*
X164953139Y-100215374D01*
X165296667Y-100358020D01*
X165668633Y-100358344D01*
X165722560Y-100336062D01*
X165722560Y-100891101D01*
X165667799Y-100868362D01*
X165295833Y-100868038D01*
X164952057Y-101010083D01*
X164688808Y-101272873D01*
X164546162Y-101616401D01*
X164545838Y-101988367D01*
X161456444Y-101988367D01*
X161430957Y-101860235D01*
X161290609Y-101650191D01*
X161163000Y-101564925D01*
X161163000Y-98572606D01*
X163088606Y-96647000D01*
X165860868Y-96647000D01*
X165912191Y-96723809D01*
X165912191Y-96723809D01*
G37*
X165912191Y-96723809D02*
X166122235Y-96864157D01*
X166370000Y-96913440D01*
X167894000Y-96913440D01*
X168141765Y-96864157D01*
X168351809Y-96723809D01*
X168402000Y-96648693D01*
X168452191Y-96723809D01*
X168662235Y-96864157D01*
X168910000Y-96913440D01*
X170434000Y-96913440D01*
X170681765Y-96864157D01*
X170891809Y-96723809D01*
X170943132Y-96647000D01*
X178871058Y-96647000D01*
X178963383Y-96870443D01*
X179226173Y-97133692D01*
X179569701Y-97276338D01*
X179941667Y-97276662D01*
X180285443Y-97134617D01*
X180548692Y-96871827D01*
X180593935Y-96762870D01*
X180638383Y-96870443D01*
X180901173Y-97133692D01*
X181244701Y-97276338D01*
X181616667Y-97276662D01*
X181960443Y-97134617D01*
X182223692Y-96871827D01*
X182317049Y-96647000D01*
X182478394Y-96647000D01*
X184404000Y-98572606D01*
X184404000Y-107167394D01*
X182478394Y-109093000D01*
X175534607Y-109093000D01*
X175534607Y-106985609D01*
X175534769Y-106799626D01*
X175534600Y-106799217D01*
X175534600Y-106223616D01*
X175534762Y-106037633D01*
X175534600Y-106037241D01*
X175534600Y-105645967D01*
X177474438Y-105645967D01*
X177544857Y-105816394D01*
X177474762Y-105985201D01*
X177474438Y-106357167D01*
X177565899Y-106578521D01*
X177474762Y-106798003D01*
X177474438Y-107169969D01*
X177616483Y-107513745D01*
X177879273Y-107776994D01*
X178222801Y-107919640D01*
X178594767Y-107919964D01*
X178938543Y-107777919D01*
X179201792Y-107515129D01*
X179344438Y-107171601D01*
X179344762Y-106799635D01*
X179253301Y-106578281D01*
X179344438Y-106358799D01*
X179344762Y-105986833D01*
X179274343Y-105816406D01*
X179344438Y-105647599D01*
X179344762Y-105275633D01*
X179202717Y-104931857D01*
X178939927Y-104668608D01*
X178596399Y-104525962D01*
X178224433Y-104525638D01*
X177880657Y-104667683D01*
X177617408Y-104930473D01*
X177474762Y-105274001D01*
X177474438Y-105645967D01*
X175534600Y-105645967D01*
X175534600Y-105461616D01*
X175534762Y-105275633D01*
X175392717Y-104931857D01*
X175129927Y-104668608D01*
X174786399Y-104525962D01*
X174414433Y-104525638D01*
X174070657Y-104667683D01*
X173807408Y-104930473D01*
X173664762Y-105274001D01*
X173664438Y-105645967D01*
X173664600Y-105646359D01*
X173664600Y-106221984D01*
X173664438Y-106407967D01*
X173664600Y-106408359D01*
X173664600Y-106984786D01*
X173664606Y-106984818D01*
X173664445Y-107169960D01*
X173664607Y-107170352D01*
X173664607Y-109093000D01*
X163088606Y-109093000D01*
X161480240Y-107484634D01*
X161480240Y-107188000D01*
X161430957Y-106940235D01*
X161290609Y-106730191D01*
X161215493Y-106680000D01*
X161290609Y-106629809D01*
X161430957Y-106419765D01*
X161480240Y-106172000D01*
X161480240Y-104648000D01*
X161430957Y-104400235D01*
X161290609Y-104190191D01*
X161215493Y-104140000D01*
X161290609Y-104089809D01*
X161430957Y-103879765D01*
X161480240Y-103632000D01*
X161480240Y-102108000D01*
X161456444Y-101988367D01*
X164545838Y-101988367D01*
X164687883Y-102332143D01*
X164950673Y-102595392D01*
X165294201Y-102738038D01*
X165666167Y-102738362D01*
X165722560Y-102715061D01*
X165722560Y-103886000D01*
X165771843Y-104133765D01*
X165912191Y-104343809D01*
X166122235Y-104484157D01*
X166370000Y-104533440D01*
X167894000Y-104533440D01*
X168141765Y-104484157D01*
X168351809Y-104343809D01*
X168402000Y-104268693D01*
X168452191Y-104343809D01*
X168662235Y-104484157D01*
X168910000Y-104533440D01*
X170434000Y-104533440D01*
X170681765Y-104484157D01*
X170891809Y-104343809D01*
X171032157Y-104133765D01*
X171081440Y-103886000D01*
X171081440Y-102362000D01*
X171032157Y-102114235D01*
X170891809Y-101904191D01*
X170816693Y-101854000D01*
X170891809Y-101803809D01*
X171032157Y-101593765D01*
X171073979Y-101383509D01*
X177897457Y-101383509D01*
X178199018Y-102113343D01*
X178756920Y-102672219D01*
X179486227Y-102975054D01*
X180275909Y-102975743D01*
X181005743Y-102674182D01*
X181564619Y-102116280D01*
X181867454Y-101386973D01*
X181868143Y-100597291D01*
X181566582Y-99867457D01*
X181008680Y-99308581D01*
X180279373Y-99005746D01*
X179489691Y-99005057D01*
X178759857Y-99306618D01*
X178200981Y-99864520D01*
X177898146Y-100593827D01*
X177897457Y-101383509D01*
X171073979Y-101383509D01*
X171081440Y-101346000D01*
X171081440Y-99822000D01*
X171032157Y-99574235D01*
X170891809Y-99364191D01*
X170681765Y-99223843D01*
X170434000Y-99174560D01*
X168910000Y-99174560D01*
X168662235Y-99223843D01*
X168452191Y-99364191D01*
X168402000Y-99439307D01*
X168351809Y-99364191D01*
X168141765Y-99223843D01*
X167894000Y-99174560D01*
X166392409Y-99174560D01*
X166276583Y-98894239D01*
X166013793Y-98630990D01*
X165670265Y-98488344D01*
X165298299Y-98488020D01*
X164954523Y-98630065D01*
X164691274Y-98892855D01*
X164548628Y-99236383D01*
X164548304Y-99608349D01*
X164690349Y-99952125D01*
X164953139Y-100215374D01*
X165296667Y-100358020D01*
X165668633Y-100358344D01*
X165722560Y-100336062D01*
X165722560Y-100891101D01*
X165667799Y-100868362D01*
X165295833Y-100868038D01*
X164952057Y-101010083D01*
X164688808Y-101272873D01*
X164546162Y-101616401D01*
X164545838Y-101988367D01*
X161456444Y-101988367D01*
X161430957Y-101860235D01*
X161290609Y-101650191D01*
X161163000Y-101564925D01*
X161163000Y-98572606D01*
X163088606Y-96647000D01*
X165860868Y-96647000D01*
X165912191Y-96723809D01*
G36*
X139180995Y-70112010D02*
X139181508Y-70111798D01*
X169411200Y-70111798D01*
X169418000Y-70111804D01*
X169418075Y-70111804D01*
X169660995Y-70112016D01*
X169661508Y-70111804D01*
X172516564Y-70111804D01*
X177440380Y-75035620D01*
X177612053Y-75207593D01*
X177612566Y-75207806D01*
X180878853Y-78474093D01*
X180659891Y-78473902D01*
X180208755Y-78660308D01*
X179863293Y-79005167D01*
X179676100Y-79455978D01*
X179675674Y-79944109D01*
X179862080Y-80395245D01*
X180206939Y-80740707D01*
X180657750Y-80927900D01*
X181145881Y-80928326D01*
X181597017Y-80741920D01*
X181942479Y-80397061D01*
X182129672Y-79946250D01*
X182129865Y-79725105D01*
X183050000Y-80645240D01*
X183050000Y-84963000D01*
X169634774Y-84963000D01*
X169476730Y-84726470D01*
X169170097Y-84521585D01*
X168808400Y-84449639D01*
X167284400Y-84449639D01*
X166922703Y-84521585D01*
X166776400Y-84619341D01*
X166630097Y-84521585D01*
X166268400Y-84449639D01*
X164744400Y-84449639D01*
X164382703Y-84521585D01*
X164236400Y-84619341D01*
X164090097Y-84521585D01*
X163728400Y-84449639D01*
X162204400Y-84449639D01*
X161842703Y-84521585D01*
X161696400Y-84619341D01*
X161550097Y-84521585D01*
X161188400Y-84449639D01*
X160160641Y-84449639D01*
X160195995Y-84414347D01*
X160383188Y-83963536D01*
X160383614Y-83475405D01*
X160345978Y-83384318D01*
X175947585Y-83384318D01*
X176133991Y-83835454D01*
X176478850Y-84180916D01*
X176929661Y-84368109D01*
X177417792Y-84368535D01*
X177868928Y-84182129D01*
X178214390Y-83837270D01*
X178401583Y-83386459D01*
X178402009Y-82898328D01*
X178215603Y-82447192D01*
X177870744Y-82101730D01*
X177419933Y-81914537D01*
X176931802Y-81914111D01*
X176480666Y-82100517D01*
X176135204Y-82445376D01*
X175948011Y-82896187D01*
X175947585Y-83384318D01*
X160345978Y-83384318D01*
X160197208Y-83024269D01*
X159852349Y-82678807D01*
X159401538Y-82491614D01*
X158913407Y-82491188D01*
X158462271Y-82677594D01*
X158116809Y-83022453D01*
X157929616Y-83473264D01*
X157929190Y-83961395D01*
X158115596Y-84412531D01*
X158460455Y-84757993D01*
X158863251Y-84925248D01*
X158838026Y-84963000D01*
X153085800Y-84963000D01*
X153037199Y-84972667D01*
X152995997Y-85000197D01*
X152968467Y-85041399D01*
X152958800Y-85090000D01*
X152958800Y-89349489D01*
X152614205Y-89349188D01*
X152163069Y-89535594D01*
X151817607Y-89880453D01*
X151630414Y-90331264D01*
X151629988Y-90819395D01*
X151632900Y-90826442D01*
X151416896Y-90681812D01*
X151062293Y-90610526D01*
X136367885Y-90580578D01*
X136011150Y-90651180D01*
X135710433Y-90852163D01*
X133714972Y-92848082D01*
X133513296Y-93150690D01*
X133443537Y-93505597D01*
X133485267Y-111908407D01*
X133555869Y-112261151D01*
X133756852Y-112561868D01*
X135761383Y-114565939D01*
X136060304Y-114766088D01*
X136414907Y-114837374D01*
X140316207Y-114845325D01*
X140166614Y-115205586D01*
X140166188Y-115693717D01*
X140352594Y-116144853D01*
X140697453Y-116490315D01*
X141148264Y-116677508D01*
X141636395Y-116677934D01*
X142087531Y-116491528D01*
X142432993Y-116146669D01*
X142620186Y-115695858D01*
X142620612Y-115207727D01*
X142472686Y-114849720D01*
X151109315Y-114867322D01*
X151466050Y-114796720D01*
X151766767Y-114595737D01*
X153762228Y-112599818D01*
X153963904Y-112297210D01*
X154033663Y-111942303D01*
X154023137Y-107300335D01*
X154061066Y-107262472D01*
X154103555Y-107160146D01*
X154418821Y-107291056D01*
X154906952Y-107291482D01*
X155358088Y-107105076D01*
X155703550Y-106760217D01*
X155863852Y-106374166D01*
X155895585Y-106533697D01*
X155993341Y-106680000D01*
X155895585Y-106826303D01*
X155823639Y-107188000D01*
X155823639Y-108712000D01*
X155895585Y-109073697D01*
X155993341Y-109220000D01*
X155895585Y-109366303D01*
X155823639Y-109728000D01*
X155823639Y-111252000D01*
X155895585Y-111613697D01*
X155993341Y-111760000D01*
X155895585Y-111906303D01*
X155823639Y-112268000D01*
X155823639Y-113792000D01*
X155895585Y-114153697D01*
X155993341Y-114300000D01*
X155895585Y-114446303D01*
X155823639Y-114808000D01*
X155823639Y-116332000D01*
X155895585Y-116693697D01*
X156100470Y-117000330D01*
X156407103Y-117205215D01*
X156768800Y-117277161D01*
X158031062Y-117277161D01*
X158030788Y-117590995D01*
X158217194Y-118042131D01*
X158562053Y-118387593D01*
X159012864Y-118574786D01*
X159500995Y-118575212D01*
X159952131Y-118388806D01*
X160297593Y-118043947D01*
X160484786Y-117593136D01*
X160485062Y-117277161D01*
X160832800Y-117277161D01*
X161194497Y-117205215D01*
X161501130Y-117000330D01*
X161706015Y-116693697D01*
X161777961Y-116332000D01*
X161777961Y-115800608D01*
X163442294Y-115800608D01*
X163628700Y-116251744D01*
X163973559Y-116597206D01*
X164424370Y-116784399D01*
X164912501Y-116784825D01*
X165363637Y-116598419D01*
X165590657Y-116371795D01*
X173880388Y-116371795D01*
X174066794Y-116822931D01*
X174411653Y-117168393D01*
X174862464Y-117355586D01*
X175350595Y-117356012D01*
X175801731Y-117169606D01*
X176147193Y-116824747D01*
X176334386Y-116373936D01*
X176334387Y-116371795D01*
X177055388Y-116371795D01*
X177241794Y-116822931D01*
X177586653Y-117168393D01*
X178037464Y-117355586D01*
X178525595Y-117356012D01*
X178976731Y-117169606D01*
X179322193Y-116824747D01*
X179509386Y-116373936D01*
X179509387Y-116371795D01*
X180230388Y-116371795D01*
X180416794Y-116822931D01*
X180761653Y-117168393D01*
X181212464Y-117355586D01*
X181700595Y-117356012D01*
X182151731Y-117169606D01*
X182497193Y-116824747D01*
X182684386Y-116373936D01*
X182684812Y-115885805D01*
X182498406Y-115434669D01*
X182153547Y-115089207D01*
X181702736Y-114902014D01*
X181214605Y-114901588D01*
X180763469Y-115087994D01*
X180418007Y-115432853D01*
X180230814Y-115883664D01*
X180230388Y-116371795D01*
X179509387Y-116371795D01*
X179509812Y-115885805D01*
X179323406Y-115434669D01*
X178978547Y-115089207D01*
X178527736Y-114902014D01*
X178039605Y-114901588D01*
X177588469Y-115087994D01*
X177243007Y-115432853D01*
X177055814Y-115883664D01*
X177055388Y-116371795D01*
X176334387Y-116371795D01*
X176334812Y-115885805D01*
X176148406Y-115434669D01*
X175803547Y-115089207D01*
X175352736Y-114902014D01*
X174864605Y-114901588D01*
X174413469Y-115087994D01*
X174068007Y-115432853D01*
X173880814Y-115883664D01*
X173880388Y-116371795D01*
X165590657Y-116371795D01*
X165709099Y-116253560D01*
X165896292Y-115802749D01*
X165896718Y-115314618D01*
X165710312Y-114863482D01*
X165365453Y-114518020D01*
X164914642Y-114330827D01*
X164426511Y-114330401D01*
X163975375Y-114516807D01*
X163629913Y-114861666D01*
X163442720Y-115312477D01*
X163442294Y-115800608D01*
X161777961Y-115800608D01*
X161777961Y-114808000D01*
X161706015Y-114446303D01*
X161608259Y-114300000D01*
X161706015Y-114153697D01*
X161777961Y-113792000D01*
X161777961Y-112268000D01*
X161706015Y-111906303D01*
X161608259Y-111760000D01*
X161706015Y-111613697D01*
X161777961Y-111252000D01*
X161777961Y-109728000D01*
X161706015Y-109366303D01*
X161608259Y-109220000D01*
X161655028Y-109150004D01*
X162380512Y-109875488D01*
X162681252Y-110076436D01*
X163036000Y-110147000D01*
X163499009Y-110147000D01*
X163451597Y-110261182D01*
X163451171Y-110749313D01*
X163637577Y-111200449D01*
X163982436Y-111545911D01*
X164433247Y-111733104D01*
X164921378Y-111733530D01*
X165372514Y-111547124D01*
X165717976Y-111202265D01*
X165905169Y-110751454D01*
X165905595Y-110263323D01*
X165857531Y-110147000D01*
X182531000Y-110147000D01*
X182885748Y-110076436D01*
X183186488Y-109875488D01*
X184150000Y-108911976D01*
X184150000Y-125349000D01*
X153134397Y-125349000D01*
X153354706Y-124818437D01*
X153355292Y-124146511D01*
X153291365Y-123991795D01*
X173880388Y-123991795D01*
X174066794Y-124442931D01*
X174411653Y-124788393D01*
X174862464Y-124975586D01*
X175350595Y-124976012D01*
X175801731Y-124789606D01*
X176147193Y-124444747D01*
X176334386Y-123993936D01*
X176334387Y-123991803D01*
X177055388Y-123991803D01*
X177241794Y-124442939D01*
X177586653Y-124788401D01*
X178037464Y-124975594D01*
X178525595Y-124976020D01*
X178976731Y-124789614D01*
X179322193Y-124444755D01*
X179509386Y-123993944D01*
X179509387Y-123991795D01*
X180230388Y-123991795D01*
X180416794Y-124442931D01*
X180761653Y-124788393D01*
X181212464Y-124975586D01*
X181700595Y-124976012D01*
X182151731Y-124789606D01*
X182497193Y-124444747D01*
X182684386Y-123993936D01*
X182684812Y-123505805D01*
X182498406Y-123054669D01*
X182153547Y-122709207D01*
X181702736Y-122522014D01*
X181214605Y-122521588D01*
X180763469Y-122707994D01*
X180418007Y-123052853D01*
X180230814Y-123503664D01*
X180230388Y-123991795D01*
X179509387Y-123991795D01*
X179509812Y-123505813D01*
X179323406Y-123054677D01*
X178978547Y-122709215D01*
X178527736Y-122522022D01*
X178039605Y-122521596D01*
X177588469Y-122708002D01*
X177243007Y-123052861D01*
X177055814Y-123503672D01*
X177055388Y-123991803D01*
X176334387Y-123991803D01*
X176334812Y-123505805D01*
X176148406Y-123054669D01*
X175803547Y-122709207D01*
X175352736Y-122522014D01*
X174864605Y-122521588D01*
X174413469Y-122707994D01*
X174068007Y-123052853D01*
X173880814Y-123503664D01*
X173880388Y-123991795D01*
X153291365Y-123991795D01*
X153098699Y-123525509D01*
X152623991Y-123049971D01*
X152003437Y-122792294D01*
X151331511Y-122791708D01*
X150780411Y-123019418D01*
X150233437Y-122792294D01*
X149561511Y-122791708D01*
X148940509Y-123048301D01*
X148645903Y-123342393D01*
X148353991Y-123049971D01*
X147733437Y-122792294D01*
X147061511Y-122791708D01*
X146440509Y-123048301D01*
X146145903Y-123342393D01*
X145853991Y-123049971D01*
X145233437Y-122792294D01*
X144561511Y-122791708D01*
X144030461Y-123011134D01*
X143503437Y-122792294D01*
X142831511Y-122791708D01*
X142210509Y-123048301D01*
X141734971Y-123523009D01*
X141477294Y-124143563D01*
X141476708Y-124815489D01*
X141697150Y-125349000D01*
X120763928Y-125349000D01*
X121006915Y-125248600D01*
X121690200Y-124566506D01*
X122060448Y-123674852D01*
X122061290Y-122709384D01*
X121692600Y-121817085D01*
X121572671Y-121696947D01*
X121946308Y-121697273D01*
X121970956Y-121687088D01*
X122239535Y-121956136D01*
X122818939Y-122196725D01*
X123446308Y-122197273D01*
X124026132Y-121957695D01*
X124470136Y-121514465D01*
X124628070Y-121134115D01*
X156523800Y-121134115D01*
X156710206Y-121585251D01*
X157055065Y-121930713D01*
X157505876Y-122117906D01*
X157994007Y-122118332D01*
X158445143Y-121931926D01*
X158790605Y-121587067D01*
X158962099Y-121174062D01*
X160386030Y-121174062D01*
X160572436Y-121625198D01*
X160917295Y-121970660D01*
X161368106Y-122157853D01*
X161856237Y-122158279D01*
X162307373Y-121971873D01*
X162652835Y-121627014D01*
X162725592Y-121451795D01*
X173880388Y-121451795D01*
X174066794Y-121902931D01*
X174411653Y-122248393D01*
X174862464Y-122435586D01*
X175350595Y-122436012D01*
X175801731Y-122249606D01*
X176147193Y-121904747D01*
X176334386Y-121453936D01*
X176334387Y-121451795D01*
X177055388Y-121451795D01*
X177241794Y-121902931D01*
X177586653Y-122248393D01*
X178037464Y-122435586D01*
X178525595Y-122436012D01*
X178976731Y-122249606D01*
X179322193Y-121904747D01*
X179509386Y-121453936D01*
X179509387Y-121451795D01*
X180230388Y-121451795D01*
X180416794Y-121902931D01*
X180761653Y-122248393D01*
X181212464Y-122435586D01*
X181700595Y-122436012D01*
X182151731Y-122249606D01*
X182497193Y-121904747D01*
X182684386Y-121453936D01*
X182684812Y-120965805D01*
X182498406Y-120514669D01*
X182153547Y-120169207D01*
X181702736Y-119982014D01*
X181214605Y-119981588D01*
X180763469Y-120167994D01*
X180418007Y-120512853D01*
X180230814Y-120963664D01*
X180230388Y-121451795D01*
X179509387Y-121451795D01*
X179509812Y-120965805D01*
X179323406Y-120514669D01*
X178978547Y-120169207D01*
X178527736Y-119982014D01*
X178039605Y-119981588D01*
X177588469Y-120167994D01*
X177243007Y-120512853D01*
X177055814Y-120963664D01*
X177055388Y-121451795D01*
X176334387Y-121451795D01*
X176334812Y-120965805D01*
X176148406Y-120514669D01*
X175803547Y-120169207D01*
X175352736Y-119982014D01*
X174864605Y-119981588D01*
X174413469Y-120167994D01*
X174068007Y-120512853D01*
X173880814Y-120963664D01*
X173880388Y-121451795D01*
X162725592Y-121451795D01*
X162840028Y-121176203D01*
X162840454Y-120688072D01*
X162654048Y-120236936D01*
X162309189Y-119891474D01*
X161858378Y-119704281D01*
X161370247Y-119703855D01*
X160919111Y-119890261D01*
X160573649Y-120235120D01*
X160386456Y-120685931D01*
X160386030Y-121174062D01*
X158962099Y-121174062D01*
X158977798Y-121136256D01*
X158978224Y-120648125D01*
X158791818Y-120196989D01*
X158446959Y-119851527D01*
X157996148Y-119664334D01*
X157508017Y-119663908D01*
X157056881Y-119850314D01*
X156711419Y-120195173D01*
X156524226Y-120645984D01*
X156523800Y-121134115D01*
X124628070Y-121134115D01*
X124710725Y-120935061D01*
X124711273Y-120307692D01*
X124471695Y-119727868D01*
X124364216Y-119620201D01*
X124470136Y-119514465D01*
X124710725Y-118935061D01*
X124710745Y-118911795D01*
X173880388Y-118911795D01*
X174066794Y-119362931D01*
X174411653Y-119708393D01*
X174862464Y-119895586D01*
X175350595Y-119896012D01*
X175801731Y-119709606D01*
X176147193Y-119364747D01*
X176334386Y-118913936D01*
X176334387Y-118911795D01*
X177055388Y-118911795D01*
X177241794Y-119362931D01*
X177586653Y-119708393D01*
X178037464Y-119895586D01*
X178525595Y-119896012D01*
X178976731Y-119709606D01*
X179322193Y-119364747D01*
X179509386Y-118913936D01*
X179509387Y-118911795D01*
X180230388Y-118911795D01*
X180416794Y-119362931D01*
X180761653Y-119708393D01*
X181212464Y-119895586D01*
X181700595Y-119896012D01*
X182151731Y-119709606D01*
X182497193Y-119364747D01*
X182684386Y-118913936D01*
X182684812Y-118425805D01*
X182498406Y-117974669D01*
X182153547Y-117629207D01*
X181702736Y-117442014D01*
X181214605Y-117441588D01*
X180763469Y-117627994D01*
X180418007Y-117972853D01*
X180230814Y-118423664D01*
X180230388Y-118911795D01*
X179509387Y-118911795D01*
X179509812Y-118425805D01*
X179323406Y-117974669D01*
X178978547Y-117629207D01*
X178527736Y-117442014D01*
X178039605Y-117441588D01*
X177588469Y-117627994D01*
X177243007Y-117972853D01*
X177055814Y-118423664D01*
X177055388Y-118911795D01*
X176334387Y-118911795D01*
X176334812Y-118425805D01*
X176148406Y-117974669D01*
X175803547Y-117629207D01*
X175352736Y-117442014D01*
X174864605Y-117441588D01*
X174413469Y-117627994D01*
X174068007Y-117972853D01*
X173880814Y-118423664D01*
X173880388Y-118911795D01*
X124710745Y-118911795D01*
X124711273Y-118307692D01*
X124471695Y-117727868D01*
X124364216Y-117620201D01*
X124470136Y-117514465D01*
X124710725Y-116935061D01*
X124711273Y-116307692D01*
X124471695Y-115727868D01*
X124364216Y-115620201D01*
X124470136Y-115514465D01*
X124710725Y-114935061D01*
X124711273Y-114307692D01*
X124471695Y-113727868D01*
X124364216Y-113620201D01*
X124470136Y-113514465D01*
X124710725Y-112935061D01*
X124711273Y-112307692D01*
X124471695Y-111727868D01*
X124028465Y-111283864D01*
X123449061Y-111043275D01*
X122821692Y-111042727D01*
X122241868Y-111282305D01*
X121971224Y-111552478D01*
X121949061Y-111543275D01*
X121573556Y-111542947D01*
X121690200Y-111426506D01*
X122060448Y-110534852D01*
X122061290Y-109569384D01*
X121692600Y-108677085D01*
X121010506Y-107993800D01*
X120118852Y-107623552D01*
X119153384Y-107622710D01*
X118261085Y-107991400D01*
X117577800Y-108673494D01*
X117207552Y-109565148D01*
X117207164Y-110009712D01*
X117118806Y-109795869D01*
X116773947Y-109450407D01*
X116323136Y-109263214D01*
X116162000Y-109263073D01*
X116162000Y-105246595D01*
X130497188Y-105246595D01*
X130683594Y-105697731D01*
X131028453Y-106043193D01*
X131479264Y-106230386D01*
X131967395Y-106230812D01*
X132418531Y-106044406D01*
X132763993Y-105699547D01*
X132951186Y-105248736D01*
X132951612Y-104760605D01*
X132765206Y-104309469D01*
X132420347Y-103964007D01*
X131969536Y-103776814D01*
X131481405Y-103776388D01*
X131030269Y-103962794D01*
X130684807Y-104307653D01*
X130497614Y-104758464D01*
X130497188Y-105246595D01*
X116162000Y-105246595D01*
X116162000Y-103493995D01*
X117962288Y-103493995D01*
X118148694Y-103945131D01*
X118493553Y-104290593D01*
X118944364Y-104477786D01*
X119432495Y-104478212D01*
X119883631Y-104291806D01*
X120229093Y-103946947D01*
X120416286Y-103496136D01*
X120416712Y-103008005D01*
X120230306Y-102556869D01*
X119885447Y-102211407D01*
X119434636Y-102024214D01*
X118946505Y-102023788D01*
X118495369Y-102210194D01*
X118149907Y-102555053D01*
X117962714Y-103005864D01*
X117962288Y-103493995D01*
X116162000Y-103493995D01*
X116162000Y-98718528D01*
X116419848Y-98718528D01*
X116606254Y-99169664D01*
X116951113Y-99515126D01*
X117401924Y-99702319D01*
X117890055Y-99702745D01*
X118341191Y-99516339D01*
X118583521Y-99274432D01*
X118818978Y-99510300D01*
X119269789Y-99697493D01*
X119757920Y-99697919D01*
X120209056Y-99511513D01*
X120414085Y-99306842D01*
X120614453Y-99507560D01*
X121065264Y-99694753D01*
X121553395Y-99695179D01*
X122004531Y-99508773D01*
X122261555Y-99252197D01*
X130598788Y-99252197D01*
X130785194Y-99703333D01*
X131130053Y-100048795D01*
X131580864Y-100235988D01*
X132068995Y-100236414D01*
X132520131Y-100050008D01*
X132865593Y-99705149D01*
X133052786Y-99254338D01*
X133053212Y-98766207D01*
X132866806Y-98315071D01*
X132521947Y-97969609D01*
X132071136Y-97782416D01*
X131583005Y-97781990D01*
X131131869Y-97968396D01*
X130786407Y-98313255D01*
X130599214Y-98764066D01*
X130598788Y-99252197D01*
X122261555Y-99252197D01*
X122349993Y-99163914D01*
X122537186Y-98713103D01*
X122537612Y-98224972D01*
X122351206Y-97773836D01*
X122006347Y-97428374D01*
X121555536Y-97241181D01*
X121067405Y-97240755D01*
X120616269Y-97427161D01*
X120411240Y-97631832D01*
X120210872Y-97431114D01*
X119760061Y-97243921D01*
X119271930Y-97243495D01*
X118820794Y-97429901D01*
X118578464Y-97671808D01*
X118343007Y-97435940D01*
X117892196Y-97248747D01*
X117404065Y-97248321D01*
X116952929Y-97434727D01*
X116607467Y-97779586D01*
X116420274Y-98230397D01*
X116419848Y-98718528D01*
X116162000Y-98718528D01*
X116162000Y-80228416D01*
X117105110Y-80228416D01*
X117473800Y-81120715D01*
X118155894Y-81804000D01*
X119047548Y-82174248D01*
X120013016Y-82175090D01*
X120108028Y-82135832D01*
X119955675Y-82502739D01*
X119955127Y-83130108D01*
X120194705Y-83709932D01*
X120552184Y-84068035D01*
X120196264Y-84423335D01*
X119955675Y-85002739D01*
X119955127Y-85630108D01*
X120194705Y-86209932D01*
X120302184Y-86317599D01*
X120196264Y-86423335D01*
X119955675Y-87002739D01*
X119955127Y-87630108D01*
X120194705Y-88209932D01*
X120552184Y-88568035D01*
X120196264Y-88923335D01*
X119955675Y-89502739D01*
X119955127Y-90130108D01*
X120107474Y-90498815D01*
X120017252Y-90461352D01*
X119051784Y-90460510D01*
X118159485Y-90829200D01*
X117476200Y-91511294D01*
X117105952Y-92402948D01*
X117105110Y-93368416D01*
X117473800Y-94260715D01*
X118155894Y-94944000D01*
X119047548Y-95314248D01*
X120013016Y-95315090D01*
X120905315Y-94946400D01*
X121588600Y-94264306D01*
X121958848Y-93372652D01*
X121959690Y-92407184D01*
X121591000Y-91514885D01*
X121471071Y-91394747D01*
X121844708Y-91395073D01*
X121869356Y-91384888D01*
X122137935Y-91653936D01*
X122717339Y-91894525D01*
X123344708Y-91895073D01*
X123924532Y-91655495D01*
X124368536Y-91212265D01*
X124609125Y-90632861D01*
X124609673Y-90005492D01*
X124370095Y-89425668D01*
X124262616Y-89318001D01*
X124368536Y-89212265D01*
X124435669Y-89050589D01*
X143539079Y-89050589D01*
X143725485Y-89501725D01*
X144070344Y-89847187D01*
X144521155Y-90034380D01*
X145009286Y-90034806D01*
X145460422Y-89848400D01*
X145805884Y-89503541D01*
X145993077Y-89052730D01*
X145993503Y-88564599D01*
X145807097Y-88113463D01*
X145462238Y-87768001D01*
X145011427Y-87580808D01*
X144523296Y-87580382D01*
X144072160Y-87766788D01*
X143726698Y-88111647D01*
X143539505Y-88562458D01*
X143539079Y-89050589D01*
X124435669Y-89050589D01*
X124609125Y-88632861D01*
X124609673Y-88005492D01*
X124370095Y-87425668D01*
X124262616Y-87318001D01*
X124368536Y-87212265D01*
X124609125Y-86632861D01*
X124609673Y-86005492D01*
X124370095Y-85425668D01*
X124262616Y-85318001D01*
X124368536Y-85212265D01*
X124609125Y-84632861D01*
X124609673Y-84005492D01*
X124370095Y-83425668D01*
X124262616Y-83318001D01*
X124368536Y-83212265D01*
X124609125Y-82632861D01*
X124609673Y-82005492D01*
X124370095Y-81425668D01*
X123926865Y-80981664D01*
X123347461Y-80741075D01*
X122720092Y-80740527D01*
X122140268Y-80980105D01*
X121869624Y-81250278D01*
X121847461Y-81241075D01*
X121471956Y-81240747D01*
X121588600Y-81124306D01*
X121781110Y-80660691D01*
X140986863Y-80660691D01*
X141173269Y-81111827D01*
X141518128Y-81457289D01*
X141968939Y-81644482D01*
X142457070Y-81644908D01*
X142908206Y-81458502D01*
X143253668Y-81113643D01*
X143440861Y-80662832D01*
X143441287Y-80174701D01*
X143254881Y-79723565D01*
X143149496Y-79617995D01*
X176572784Y-79617995D01*
X176759190Y-80069131D01*
X177104049Y-80414593D01*
X177554860Y-80601786D01*
X178042991Y-80602212D01*
X178494127Y-80415806D01*
X178839589Y-80070947D01*
X179026782Y-79620136D01*
X179027208Y-79132005D01*
X178840802Y-78680869D01*
X178495943Y-78335407D01*
X178045132Y-78148214D01*
X177557001Y-78147788D01*
X177105865Y-78334194D01*
X176760403Y-78679053D01*
X176573210Y-79129864D01*
X176572784Y-79617995D01*
X143149496Y-79617995D01*
X142910022Y-79378103D01*
X142459211Y-79190910D01*
X141971080Y-79190484D01*
X141519944Y-79376890D01*
X141174482Y-79721749D01*
X140987289Y-80172560D01*
X140986863Y-80660691D01*
X121781110Y-80660691D01*
X121958848Y-80232652D01*
X121959690Y-79267184D01*
X121591000Y-78374885D01*
X120908906Y-77691600D01*
X120017252Y-77321352D01*
X119051784Y-77320510D01*
X118159485Y-77689200D01*
X117476200Y-78371294D01*
X117105952Y-79262948D01*
X117105110Y-80228416D01*
X116162000Y-80228416D01*
X116162000Y-79311500D01*
X116162212Y-79068505D01*
X116162000Y-79067992D01*
X116162000Y-73838040D01*
X116227297Y-73772743D01*
X118947884Y-73772743D01*
X119134290Y-74223879D01*
X119339050Y-74428997D01*
X119148123Y-74619591D01*
X118960930Y-75070402D01*
X118960504Y-75558533D01*
X119146910Y-76009669D01*
X119491769Y-76355131D01*
X119942580Y-76542324D01*
X120430711Y-76542750D01*
X120881847Y-76356344D01*
X121227309Y-76011485D01*
X121414502Y-75560674D01*
X121414928Y-75072543D01*
X121228522Y-74621407D01*
X121023762Y-74416289D01*
X121214689Y-74225695D01*
X121302751Y-74013616D01*
X123048710Y-74013616D01*
X123417400Y-74905915D01*
X124099494Y-75589200D01*
X124991148Y-75959448D01*
X125956616Y-75960290D01*
X126848915Y-75591600D01*
X126969053Y-75471671D01*
X126968727Y-75845308D01*
X126978912Y-75869956D01*
X126709864Y-76138535D01*
X126469275Y-76717939D01*
X126468727Y-77345308D01*
X126708305Y-77925132D01*
X127151535Y-78369136D01*
X127730939Y-78609725D01*
X128358308Y-78610273D01*
X128938132Y-78370695D01*
X129045799Y-78263216D01*
X129151535Y-78369136D01*
X129730939Y-78609725D01*
X130358308Y-78610273D01*
X130938132Y-78370695D01*
X131045799Y-78263216D01*
X131151535Y-78369136D01*
X131730939Y-78609725D01*
X132358308Y-78610273D01*
X132938132Y-78370695D01*
X133045799Y-78263216D01*
X133151535Y-78369136D01*
X133730939Y-78609725D01*
X134358308Y-78610273D01*
X134938132Y-78370695D01*
X135045799Y-78263216D01*
X135151535Y-78369136D01*
X135730939Y-78609725D01*
X136358308Y-78610273D01*
X136938132Y-78370695D01*
X137382136Y-77927465D01*
X137622725Y-77348061D01*
X137623273Y-76720692D01*
X137383695Y-76140868D01*
X137113522Y-75870224D01*
X137122725Y-75848061D01*
X137123053Y-75472556D01*
X137239494Y-75589200D01*
X138131148Y-75959448D01*
X139096616Y-75960290D01*
X139988915Y-75591600D01*
X140672200Y-74909506D01*
X141042448Y-74017852D01*
X141043290Y-73052384D01*
X140674600Y-72160085D01*
X140380455Y-71865426D01*
X149465150Y-71865426D01*
X149651556Y-72316562D01*
X149842582Y-72507922D01*
X149658338Y-72691845D01*
X149471145Y-73142656D01*
X149470719Y-73630787D01*
X149657125Y-74081923D01*
X149859299Y-74284451D01*
X149652769Y-74490620D01*
X149465576Y-74941431D01*
X149465150Y-75429562D01*
X149651556Y-75880698D01*
X149996415Y-76226160D01*
X150447226Y-76413353D01*
X150935357Y-76413779D01*
X151386493Y-76227373D01*
X151731955Y-75882514D01*
X151919148Y-75431703D01*
X151919574Y-74943572D01*
X151733168Y-74492436D01*
X151530994Y-74289908D01*
X151737524Y-74083739D01*
X151819376Y-73886616D01*
X153528710Y-73886616D01*
X153897400Y-74778915D01*
X154579494Y-75462200D01*
X155471148Y-75832448D01*
X156436616Y-75833290D01*
X157328915Y-75464600D01*
X157449053Y-75344671D01*
X157448727Y-75718308D01*
X157458912Y-75742956D01*
X157189864Y-76011535D01*
X156949275Y-76590939D01*
X156948727Y-77218308D01*
X157188305Y-77798132D01*
X157631535Y-78242136D01*
X158210939Y-78482725D01*
X158838308Y-78483273D01*
X159418132Y-78243695D01*
X159525799Y-78136216D01*
X159631535Y-78242136D01*
X160210939Y-78482725D01*
X160838308Y-78483273D01*
X161418132Y-78243695D01*
X161525799Y-78136216D01*
X161631535Y-78242136D01*
X162210939Y-78482725D01*
X162838308Y-78483273D01*
X163418132Y-78243695D01*
X163525799Y-78136216D01*
X163631535Y-78242136D01*
X164210939Y-78482725D01*
X164838308Y-78483273D01*
X165418132Y-78243695D01*
X165525799Y-78136216D01*
X165631535Y-78242136D01*
X166210939Y-78482725D01*
X166838308Y-78483273D01*
X167418132Y-78243695D01*
X167862136Y-77800465D01*
X168102725Y-77221061D01*
X168103273Y-76593692D01*
X167863695Y-76013868D01*
X167593522Y-75743224D01*
X167602725Y-75721061D01*
X167603053Y-75345556D01*
X167719494Y-75462200D01*
X168611148Y-75832448D01*
X169576616Y-75833290D01*
X170468915Y-75464600D01*
X171152200Y-74782506D01*
X171522448Y-73890852D01*
X171523290Y-72925384D01*
X171154600Y-72033085D01*
X170472506Y-71349800D01*
X169580852Y-70979552D01*
X168615384Y-70978710D01*
X167723085Y-71347400D01*
X167039800Y-72029494D01*
X166669552Y-72921148D01*
X166668710Y-73886616D01*
X166707968Y-73981628D01*
X166341061Y-73829275D01*
X165713692Y-73828727D01*
X165133868Y-74068305D01*
X164775765Y-74425784D01*
X164420465Y-74069864D01*
X163841061Y-73829275D01*
X163213692Y-73828727D01*
X162633868Y-74068305D01*
X162526201Y-74175784D01*
X162420465Y-74069864D01*
X161841061Y-73829275D01*
X161213692Y-73828727D01*
X160633868Y-74068305D01*
X160275765Y-74425784D01*
X159920465Y-74069864D01*
X159341061Y-73829275D01*
X158713692Y-73828727D01*
X158344985Y-73981074D01*
X158382448Y-73890852D01*
X158383290Y-72925384D01*
X158014600Y-72033085D01*
X157332506Y-71349800D01*
X156440852Y-70979552D01*
X155475384Y-70978710D01*
X154583085Y-71347400D01*
X153899800Y-72029494D01*
X153529552Y-72921148D01*
X153528710Y-73886616D01*
X151819376Y-73886616D01*
X151924717Y-73632928D01*
X151925143Y-73144797D01*
X151738737Y-72693661D01*
X151547711Y-72502301D01*
X151731955Y-72318378D01*
X151919148Y-71867567D01*
X151919574Y-71379436D01*
X151733168Y-70928300D01*
X151388309Y-70582838D01*
X150937498Y-70395645D01*
X150449367Y-70395219D01*
X149998231Y-70581625D01*
X149652769Y-70926484D01*
X149465576Y-71377295D01*
X149465150Y-71865426D01*
X140380455Y-71865426D01*
X139992506Y-71476800D01*
X139100852Y-71106552D01*
X138135384Y-71105710D01*
X137243085Y-71474400D01*
X136559800Y-72156494D01*
X136189552Y-73048148D01*
X136188710Y-74013616D01*
X136227968Y-74108628D01*
X135861061Y-73956275D01*
X135233692Y-73955727D01*
X134653868Y-74195305D01*
X134295765Y-74552784D01*
X133940465Y-74196864D01*
X133361061Y-73956275D01*
X132733692Y-73955727D01*
X132153868Y-74195305D01*
X132046201Y-74302784D01*
X131940465Y-74196864D01*
X131361061Y-73956275D01*
X130733692Y-73955727D01*
X130153868Y-74195305D01*
X129795765Y-74552784D01*
X129440465Y-74196864D01*
X128861061Y-73956275D01*
X128233692Y-73955727D01*
X127864985Y-74108074D01*
X127902448Y-74017852D01*
X127903290Y-73052384D01*
X127534600Y-72160085D01*
X126852506Y-71476800D01*
X125960852Y-71106552D01*
X124995384Y-71105710D01*
X124103085Y-71474400D01*
X123419800Y-72156494D01*
X123049552Y-73048148D01*
X123048710Y-74013616D01*
X121302751Y-74013616D01*
X121401882Y-73774884D01*
X121402308Y-73286753D01*
X121215902Y-72835617D01*
X121038688Y-72658093D01*
X121228144Y-72468967D01*
X121415337Y-72018156D01*
X121415763Y-71530025D01*
X121229357Y-71078889D01*
X120884498Y-70733427D01*
X120433687Y-70546234D01*
X119945556Y-70545808D01*
X119494420Y-70732214D01*
X119148958Y-71077073D01*
X118961765Y-71527884D01*
X118961339Y-72016015D01*
X119147745Y-72467151D01*
X119324959Y-72644675D01*
X119135503Y-72833801D01*
X118948310Y-73284612D01*
X118947884Y-73772743D01*
X116227297Y-73772743D01*
X119888242Y-70111798D01*
X138938075Y-70111798D01*
X139180995Y-70112010D01*
X139180995Y-70112010D01*
G37*
X139180995Y-70112010D02*
X139181508Y-70111798D01*
X169411200Y-70111798D01*
X169418000Y-70111804D01*
X169418075Y-70111804D01*
X169660995Y-70112016D01*
X169661508Y-70111804D01*
X172516564Y-70111804D01*
X177440380Y-75035620D01*
X177612053Y-75207593D01*
X177612566Y-75207806D01*
X180878853Y-78474093D01*
X180659891Y-78473902D01*
X180208755Y-78660308D01*
X179863293Y-79005167D01*
X179676100Y-79455978D01*
X179675674Y-79944109D01*
X179862080Y-80395245D01*
X180206939Y-80740707D01*
X180657750Y-80927900D01*
X181145881Y-80928326D01*
X181597017Y-80741920D01*
X181942479Y-80397061D01*
X182129672Y-79946250D01*
X182129865Y-79725105D01*
X183050000Y-80645240D01*
X183050000Y-84963000D01*
X169634774Y-84963000D01*
X169476730Y-84726470D01*
X169170097Y-84521585D01*
X168808400Y-84449639D01*
X167284400Y-84449639D01*
X166922703Y-84521585D01*
X166776400Y-84619341D01*
X166630097Y-84521585D01*
X166268400Y-84449639D01*
X164744400Y-84449639D01*
X164382703Y-84521585D01*
X164236400Y-84619341D01*
X164090097Y-84521585D01*
X163728400Y-84449639D01*
X162204400Y-84449639D01*
X161842703Y-84521585D01*
X161696400Y-84619341D01*
X161550097Y-84521585D01*
X161188400Y-84449639D01*
X160160641Y-84449639D01*
X160195995Y-84414347D01*
X160383188Y-83963536D01*
X160383614Y-83475405D01*
X160345978Y-83384318D01*
X175947585Y-83384318D01*
X176133991Y-83835454D01*
X176478850Y-84180916D01*
X176929661Y-84368109D01*
X177417792Y-84368535D01*
X177868928Y-84182129D01*
X178214390Y-83837270D01*
X178401583Y-83386459D01*
X178402009Y-82898328D01*
X178215603Y-82447192D01*
X177870744Y-82101730D01*
X177419933Y-81914537D01*
X176931802Y-81914111D01*
X176480666Y-82100517D01*
X176135204Y-82445376D01*
X175948011Y-82896187D01*
X175947585Y-83384318D01*
X160345978Y-83384318D01*
X160197208Y-83024269D01*
X159852349Y-82678807D01*
X159401538Y-82491614D01*
X158913407Y-82491188D01*
X158462271Y-82677594D01*
X158116809Y-83022453D01*
X157929616Y-83473264D01*
X157929190Y-83961395D01*
X158115596Y-84412531D01*
X158460455Y-84757993D01*
X158863251Y-84925248D01*
X158838026Y-84963000D01*
X153085800Y-84963000D01*
X153037199Y-84972667D01*
X152995997Y-85000197D01*
X152968467Y-85041399D01*
X152958800Y-85090000D01*
X152958800Y-89349489D01*
X152614205Y-89349188D01*
X152163069Y-89535594D01*
X151817607Y-89880453D01*
X151630414Y-90331264D01*
X151629988Y-90819395D01*
X151632900Y-90826442D01*
X151416896Y-90681812D01*
X151062293Y-90610526D01*
X136367885Y-90580578D01*
X136011150Y-90651180D01*
X135710433Y-90852163D01*
X133714972Y-92848082D01*
X133513296Y-93150690D01*
X133443537Y-93505597D01*
X133485267Y-111908407D01*
X133555869Y-112261151D01*
X133756852Y-112561868D01*
X135761383Y-114565939D01*
X136060304Y-114766088D01*
X136414907Y-114837374D01*
X140316207Y-114845325D01*
X140166614Y-115205586D01*
X140166188Y-115693717D01*
X140352594Y-116144853D01*
X140697453Y-116490315D01*
X141148264Y-116677508D01*
X141636395Y-116677934D01*
X142087531Y-116491528D01*
X142432993Y-116146669D01*
X142620186Y-115695858D01*
X142620612Y-115207727D01*
X142472686Y-114849720D01*
X151109315Y-114867322D01*
X151466050Y-114796720D01*
X151766767Y-114595737D01*
X153762228Y-112599818D01*
X153963904Y-112297210D01*
X154033663Y-111942303D01*
X154023137Y-107300335D01*
X154061066Y-107262472D01*
X154103555Y-107160146D01*
X154418821Y-107291056D01*
X154906952Y-107291482D01*
X155358088Y-107105076D01*
X155703550Y-106760217D01*
X155863852Y-106374166D01*
X155895585Y-106533697D01*
X155993341Y-106680000D01*
X155895585Y-106826303D01*
X155823639Y-107188000D01*
X155823639Y-108712000D01*
X155895585Y-109073697D01*
X155993341Y-109220000D01*
X155895585Y-109366303D01*
X155823639Y-109728000D01*
X155823639Y-111252000D01*
X155895585Y-111613697D01*
X155993341Y-111760000D01*
X155895585Y-111906303D01*
X155823639Y-112268000D01*
X155823639Y-113792000D01*
X155895585Y-114153697D01*
X155993341Y-114300000D01*
X155895585Y-114446303D01*
X155823639Y-114808000D01*
X155823639Y-116332000D01*
X155895585Y-116693697D01*
X156100470Y-117000330D01*
X156407103Y-117205215D01*
X156768800Y-117277161D01*
X158031062Y-117277161D01*
X158030788Y-117590995D01*
X158217194Y-118042131D01*
X158562053Y-118387593D01*
X159012864Y-118574786D01*
X159500995Y-118575212D01*
X159952131Y-118388806D01*
X160297593Y-118043947D01*
X160484786Y-117593136D01*
X160485062Y-117277161D01*
X160832800Y-117277161D01*
X161194497Y-117205215D01*
X161501130Y-117000330D01*
X161706015Y-116693697D01*
X161777961Y-116332000D01*
X161777961Y-115800608D01*
X163442294Y-115800608D01*
X163628700Y-116251744D01*
X163973559Y-116597206D01*
X164424370Y-116784399D01*
X164912501Y-116784825D01*
X165363637Y-116598419D01*
X165590657Y-116371795D01*
X173880388Y-116371795D01*
X174066794Y-116822931D01*
X174411653Y-117168393D01*
X174862464Y-117355586D01*
X175350595Y-117356012D01*
X175801731Y-117169606D01*
X176147193Y-116824747D01*
X176334386Y-116373936D01*
X176334387Y-116371795D01*
X177055388Y-116371795D01*
X177241794Y-116822931D01*
X177586653Y-117168393D01*
X178037464Y-117355586D01*
X178525595Y-117356012D01*
X178976731Y-117169606D01*
X179322193Y-116824747D01*
X179509386Y-116373936D01*
X179509387Y-116371795D01*
X180230388Y-116371795D01*
X180416794Y-116822931D01*
X180761653Y-117168393D01*
X181212464Y-117355586D01*
X181700595Y-117356012D01*
X182151731Y-117169606D01*
X182497193Y-116824747D01*
X182684386Y-116373936D01*
X182684812Y-115885805D01*
X182498406Y-115434669D01*
X182153547Y-115089207D01*
X181702736Y-114902014D01*
X181214605Y-114901588D01*
X180763469Y-115087994D01*
X180418007Y-115432853D01*
X180230814Y-115883664D01*
X180230388Y-116371795D01*
X179509387Y-116371795D01*
X179509812Y-115885805D01*
X179323406Y-115434669D01*
X178978547Y-115089207D01*
X178527736Y-114902014D01*
X178039605Y-114901588D01*
X177588469Y-115087994D01*
X177243007Y-115432853D01*
X177055814Y-115883664D01*
X177055388Y-116371795D01*
X176334387Y-116371795D01*
X176334812Y-115885805D01*
X176148406Y-115434669D01*
X175803547Y-115089207D01*
X175352736Y-114902014D01*
X174864605Y-114901588D01*
X174413469Y-115087994D01*
X174068007Y-115432853D01*
X173880814Y-115883664D01*
X173880388Y-116371795D01*
X165590657Y-116371795D01*
X165709099Y-116253560D01*
X165896292Y-115802749D01*
X165896718Y-115314618D01*
X165710312Y-114863482D01*
X165365453Y-114518020D01*
X164914642Y-114330827D01*
X164426511Y-114330401D01*
X163975375Y-114516807D01*
X163629913Y-114861666D01*
X163442720Y-115312477D01*
X163442294Y-115800608D01*
X161777961Y-115800608D01*
X161777961Y-114808000D01*
X161706015Y-114446303D01*
X161608259Y-114300000D01*
X161706015Y-114153697D01*
X161777961Y-113792000D01*
X161777961Y-112268000D01*
X161706015Y-111906303D01*
X161608259Y-111760000D01*
X161706015Y-111613697D01*
X161777961Y-111252000D01*
X161777961Y-109728000D01*
X161706015Y-109366303D01*
X161608259Y-109220000D01*
X161655028Y-109150004D01*
X162380512Y-109875488D01*
X162681252Y-110076436D01*
X163036000Y-110147000D01*
X163499009Y-110147000D01*
X163451597Y-110261182D01*
X163451171Y-110749313D01*
X163637577Y-111200449D01*
X163982436Y-111545911D01*
X164433247Y-111733104D01*
X164921378Y-111733530D01*
X165372514Y-111547124D01*
X165717976Y-111202265D01*
X165905169Y-110751454D01*
X165905595Y-110263323D01*
X165857531Y-110147000D01*
X182531000Y-110147000D01*
X182885748Y-110076436D01*
X183186488Y-109875488D01*
X184150000Y-108911976D01*
X184150000Y-125349000D01*
X153134397Y-125349000D01*
X153354706Y-124818437D01*
X153355292Y-124146511D01*
X153291365Y-123991795D01*
X173880388Y-123991795D01*
X174066794Y-124442931D01*
X174411653Y-124788393D01*
X174862464Y-124975586D01*
X175350595Y-124976012D01*
X175801731Y-124789606D01*
X176147193Y-124444747D01*
X176334386Y-123993936D01*
X176334387Y-123991803D01*
X177055388Y-123991803D01*
X177241794Y-124442939D01*
X177586653Y-124788401D01*
X178037464Y-124975594D01*
X178525595Y-124976020D01*
X178976731Y-124789614D01*
X179322193Y-124444755D01*
X179509386Y-123993944D01*
X179509387Y-123991795D01*
X180230388Y-123991795D01*
X180416794Y-124442931D01*
X180761653Y-124788393D01*
X181212464Y-124975586D01*
X181700595Y-124976012D01*
X182151731Y-124789606D01*
X182497193Y-124444747D01*
X182684386Y-123993936D01*
X182684812Y-123505805D01*
X182498406Y-123054669D01*
X182153547Y-122709207D01*
X181702736Y-122522014D01*
X181214605Y-122521588D01*
X180763469Y-122707994D01*
X180418007Y-123052853D01*
X180230814Y-123503664D01*
X180230388Y-123991795D01*
X179509387Y-123991795D01*
X179509812Y-123505813D01*
X179323406Y-123054677D01*
X178978547Y-122709215D01*
X178527736Y-122522022D01*
X178039605Y-122521596D01*
X177588469Y-122708002D01*
X177243007Y-123052861D01*
X177055814Y-123503672D01*
X177055388Y-123991803D01*
X176334387Y-123991803D01*
X176334812Y-123505805D01*
X176148406Y-123054669D01*
X175803547Y-122709207D01*
X175352736Y-122522014D01*
X174864605Y-122521588D01*
X174413469Y-122707994D01*
X174068007Y-123052853D01*
X173880814Y-123503664D01*
X173880388Y-123991795D01*
X153291365Y-123991795D01*
X153098699Y-123525509D01*
X152623991Y-123049971D01*
X152003437Y-122792294D01*
X151331511Y-122791708D01*
X150780411Y-123019418D01*
X150233437Y-122792294D01*
X149561511Y-122791708D01*
X148940509Y-123048301D01*
X148645903Y-123342393D01*
X148353991Y-123049971D01*
X147733437Y-122792294D01*
X147061511Y-122791708D01*
X146440509Y-123048301D01*
X146145903Y-123342393D01*
X145853991Y-123049971D01*
X145233437Y-122792294D01*
X144561511Y-122791708D01*
X144030461Y-123011134D01*
X143503437Y-122792294D01*
X142831511Y-122791708D01*
X142210509Y-123048301D01*
X141734971Y-123523009D01*
X141477294Y-124143563D01*
X141476708Y-124815489D01*
X141697150Y-125349000D01*
X120763928Y-125349000D01*
X121006915Y-125248600D01*
X121690200Y-124566506D01*
X122060448Y-123674852D01*
X122061290Y-122709384D01*
X121692600Y-121817085D01*
X121572671Y-121696947D01*
X121946308Y-121697273D01*
X121970956Y-121687088D01*
X122239535Y-121956136D01*
X122818939Y-122196725D01*
X123446308Y-122197273D01*
X124026132Y-121957695D01*
X124470136Y-121514465D01*
X124628070Y-121134115D01*
X156523800Y-121134115D01*
X156710206Y-121585251D01*
X157055065Y-121930713D01*
X157505876Y-122117906D01*
X157994007Y-122118332D01*
X158445143Y-121931926D01*
X158790605Y-121587067D01*
X158962099Y-121174062D01*
X160386030Y-121174062D01*
X160572436Y-121625198D01*
X160917295Y-121970660D01*
X161368106Y-122157853D01*
X161856237Y-122158279D01*
X162307373Y-121971873D01*
X162652835Y-121627014D01*
X162725592Y-121451795D01*
X173880388Y-121451795D01*
X174066794Y-121902931D01*
X174411653Y-122248393D01*
X174862464Y-122435586D01*
X175350595Y-122436012D01*
X175801731Y-122249606D01*
X176147193Y-121904747D01*
X176334386Y-121453936D01*
X176334387Y-121451795D01*
X177055388Y-121451795D01*
X177241794Y-121902931D01*
X177586653Y-122248393D01*
X178037464Y-122435586D01*
X178525595Y-122436012D01*
X178976731Y-122249606D01*
X179322193Y-121904747D01*
X179509386Y-121453936D01*
X179509387Y-121451795D01*
X180230388Y-121451795D01*
X180416794Y-121902931D01*
X180761653Y-122248393D01*
X181212464Y-122435586D01*
X181700595Y-122436012D01*
X182151731Y-122249606D01*
X182497193Y-121904747D01*
X182684386Y-121453936D01*
X182684812Y-120965805D01*
X182498406Y-120514669D01*
X182153547Y-120169207D01*
X181702736Y-119982014D01*
X181214605Y-119981588D01*
X180763469Y-120167994D01*
X180418007Y-120512853D01*
X180230814Y-120963664D01*
X180230388Y-121451795D01*
X179509387Y-121451795D01*
X179509812Y-120965805D01*
X179323406Y-120514669D01*
X178978547Y-120169207D01*
X178527736Y-119982014D01*
X178039605Y-119981588D01*
X177588469Y-120167994D01*
X177243007Y-120512853D01*
X177055814Y-120963664D01*
X177055388Y-121451795D01*
X176334387Y-121451795D01*
X176334812Y-120965805D01*
X176148406Y-120514669D01*
X175803547Y-120169207D01*
X175352736Y-119982014D01*
X174864605Y-119981588D01*
X174413469Y-120167994D01*
X174068007Y-120512853D01*
X173880814Y-120963664D01*
X173880388Y-121451795D01*
X162725592Y-121451795D01*
X162840028Y-121176203D01*
X162840454Y-120688072D01*
X162654048Y-120236936D01*
X162309189Y-119891474D01*
X161858378Y-119704281D01*
X161370247Y-119703855D01*
X160919111Y-119890261D01*
X160573649Y-120235120D01*
X160386456Y-120685931D01*
X160386030Y-121174062D01*
X158962099Y-121174062D01*
X158977798Y-121136256D01*
X158978224Y-120648125D01*
X158791818Y-120196989D01*
X158446959Y-119851527D01*
X157996148Y-119664334D01*
X157508017Y-119663908D01*
X157056881Y-119850314D01*
X156711419Y-120195173D01*
X156524226Y-120645984D01*
X156523800Y-121134115D01*
X124628070Y-121134115D01*
X124710725Y-120935061D01*
X124711273Y-120307692D01*
X124471695Y-119727868D01*
X124364216Y-119620201D01*
X124470136Y-119514465D01*
X124710725Y-118935061D01*
X124710745Y-118911795D01*
X173880388Y-118911795D01*
X174066794Y-119362931D01*
X174411653Y-119708393D01*
X174862464Y-119895586D01*
X175350595Y-119896012D01*
X175801731Y-119709606D01*
X176147193Y-119364747D01*
X176334386Y-118913936D01*
X176334387Y-118911795D01*
X177055388Y-118911795D01*
X177241794Y-119362931D01*
X177586653Y-119708393D01*
X178037464Y-119895586D01*
X178525595Y-119896012D01*
X178976731Y-119709606D01*
X179322193Y-119364747D01*
X179509386Y-118913936D01*
X179509387Y-118911795D01*
X180230388Y-118911795D01*
X180416794Y-119362931D01*
X180761653Y-119708393D01*
X181212464Y-119895586D01*
X181700595Y-119896012D01*
X182151731Y-119709606D01*
X182497193Y-119364747D01*
X182684386Y-118913936D01*
X182684812Y-118425805D01*
X182498406Y-117974669D01*
X182153547Y-117629207D01*
X181702736Y-117442014D01*
X181214605Y-117441588D01*
X180763469Y-117627994D01*
X180418007Y-117972853D01*
X180230814Y-118423664D01*
X180230388Y-118911795D01*
X179509387Y-118911795D01*
X179509812Y-118425805D01*
X179323406Y-117974669D01*
X178978547Y-117629207D01*
X178527736Y-117442014D01*
X178039605Y-117441588D01*
X177588469Y-117627994D01*
X177243007Y-117972853D01*
X177055814Y-118423664D01*
X177055388Y-118911795D01*
X176334387Y-118911795D01*
X176334812Y-118425805D01*
X176148406Y-117974669D01*
X175803547Y-117629207D01*
X175352736Y-117442014D01*
X174864605Y-117441588D01*
X174413469Y-117627994D01*
X174068007Y-117972853D01*
X173880814Y-118423664D01*
X173880388Y-118911795D01*
X124710745Y-118911795D01*
X124711273Y-118307692D01*
X124471695Y-117727868D01*
X124364216Y-117620201D01*
X124470136Y-117514465D01*
X124710725Y-116935061D01*
X124711273Y-116307692D01*
X124471695Y-115727868D01*
X124364216Y-115620201D01*
X124470136Y-115514465D01*
X124710725Y-114935061D01*
X124711273Y-114307692D01*
X124471695Y-113727868D01*
X124364216Y-113620201D01*
X124470136Y-113514465D01*
X124710725Y-112935061D01*
X124711273Y-112307692D01*
X124471695Y-111727868D01*
X124028465Y-111283864D01*
X123449061Y-111043275D01*
X122821692Y-111042727D01*
X122241868Y-111282305D01*
X121971224Y-111552478D01*
X121949061Y-111543275D01*
X121573556Y-111542947D01*
X121690200Y-111426506D01*
X122060448Y-110534852D01*
X122061290Y-109569384D01*
X121692600Y-108677085D01*
X121010506Y-107993800D01*
X120118852Y-107623552D01*
X119153384Y-107622710D01*
X118261085Y-107991400D01*
X117577800Y-108673494D01*
X117207552Y-109565148D01*
X117207164Y-110009712D01*
X117118806Y-109795869D01*
X116773947Y-109450407D01*
X116323136Y-109263214D01*
X116162000Y-109263073D01*
X116162000Y-105246595D01*
X130497188Y-105246595D01*
X130683594Y-105697731D01*
X131028453Y-106043193D01*
X131479264Y-106230386D01*
X131967395Y-106230812D01*
X132418531Y-106044406D01*
X132763993Y-105699547D01*
X132951186Y-105248736D01*
X132951612Y-104760605D01*
X132765206Y-104309469D01*
X132420347Y-103964007D01*
X131969536Y-103776814D01*
X131481405Y-103776388D01*
X131030269Y-103962794D01*
X130684807Y-104307653D01*
X130497614Y-104758464D01*
X130497188Y-105246595D01*
X116162000Y-105246595D01*
X116162000Y-103493995D01*
X117962288Y-103493995D01*
X118148694Y-103945131D01*
X118493553Y-104290593D01*
X118944364Y-104477786D01*
X119432495Y-104478212D01*
X119883631Y-104291806D01*
X120229093Y-103946947D01*
X120416286Y-103496136D01*
X120416712Y-103008005D01*
X120230306Y-102556869D01*
X119885447Y-102211407D01*
X119434636Y-102024214D01*
X118946505Y-102023788D01*
X118495369Y-102210194D01*
X118149907Y-102555053D01*
X117962714Y-103005864D01*
X117962288Y-103493995D01*
X116162000Y-103493995D01*
X116162000Y-98718528D01*
X116419848Y-98718528D01*
X116606254Y-99169664D01*
X116951113Y-99515126D01*
X117401924Y-99702319D01*
X117890055Y-99702745D01*
X118341191Y-99516339D01*
X118583521Y-99274432D01*
X118818978Y-99510300D01*
X119269789Y-99697493D01*
X119757920Y-99697919D01*
X120209056Y-99511513D01*
X120414085Y-99306842D01*
X120614453Y-99507560D01*
X121065264Y-99694753D01*
X121553395Y-99695179D01*
X122004531Y-99508773D01*
X122261555Y-99252197D01*
X130598788Y-99252197D01*
X130785194Y-99703333D01*
X131130053Y-100048795D01*
X131580864Y-100235988D01*
X132068995Y-100236414D01*
X132520131Y-100050008D01*
X132865593Y-99705149D01*
X133052786Y-99254338D01*
X133053212Y-98766207D01*
X132866806Y-98315071D01*
X132521947Y-97969609D01*
X132071136Y-97782416D01*
X131583005Y-97781990D01*
X131131869Y-97968396D01*
X130786407Y-98313255D01*
X130599214Y-98764066D01*
X130598788Y-99252197D01*
X122261555Y-99252197D01*
X122349993Y-99163914D01*
X122537186Y-98713103D01*
X122537612Y-98224972D01*
X122351206Y-97773836D01*
X122006347Y-97428374D01*
X121555536Y-97241181D01*
X121067405Y-97240755D01*
X120616269Y-97427161D01*
X120411240Y-97631832D01*
X120210872Y-97431114D01*
X119760061Y-97243921D01*
X119271930Y-97243495D01*
X118820794Y-97429901D01*
X118578464Y-97671808D01*
X118343007Y-97435940D01*
X117892196Y-97248747D01*
X117404065Y-97248321D01*
X116952929Y-97434727D01*
X116607467Y-97779586D01*
X116420274Y-98230397D01*
X116419848Y-98718528D01*
X116162000Y-98718528D01*
X116162000Y-80228416D01*
X117105110Y-80228416D01*
X117473800Y-81120715D01*
X118155894Y-81804000D01*
X119047548Y-82174248D01*
X120013016Y-82175090D01*
X120108028Y-82135832D01*
X119955675Y-82502739D01*
X119955127Y-83130108D01*
X120194705Y-83709932D01*
X120552184Y-84068035D01*
X120196264Y-84423335D01*
X119955675Y-85002739D01*
X119955127Y-85630108D01*
X120194705Y-86209932D01*
X120302184Y-86317599D01*
X120196264Y-86423335D01*
X119955675Y-87002739D01*
X119955127Y-87630108D01*
X120194705Y-88209932D01*
X120552184Y-88568035D01*
X120196264Y-88923335D01*
X119955675Y-89502739D01*
X119955127Y-90130108D01*
X120107474Y-90498815D01*
X120017252Y-90461352D01*
X119051784Y-90460510D01*
X118159485Y-90829200D01*
X117476200Y-91511294D01*
X117105952Y-92402948D01*
X117105110Y-93368416D01*
X117473800Y-94260715D01*
X118155894Y-94944000D01*
X119047548Y-95314248D01*
X120013016Y-95315090D01*
X120905315Y-94946400D01*
X121588600Y-94264306D01*
X121958848Y-93372652D01*
X121959690Y-92407184D01*
X121591000Y-91514885D01*
X121471071Y-91394747D01*
X121844708Y-91395073D01*
X121869356Y-91384888D01*
X122137935Y-91653936D01*
X122717339Y-91894525D01*
X123344708Y-91895073D01*
X123924532Y-91655495D01*
X124368536Y-91212265D01*
X124609125Y-90632861D01*
X124609673Y-90005492D01*
X124370095Y-89425668D01*
X124262616Y-89318001D01*
X124368536Y-89212265D01*
X124435669Y-89050589D01*
X143539079Y-89050589D01*
X143725485Y-89501725D01*
X144070344Y-89847187D01*
X144521155Y-90034380D01*
X145009286Y-90034806D01*
X145460422Y-89848400D01*
X145805884Y-89503541D01*
X145993077Y-89052730D01*
X145993503Y-88564599D01*
X145807097Y-88113463D01*
X145462238Y-87768001D01*
X145011427Y-87580808D01*
X144523296Y-87580382D01*
X144072160Y-87766788D01*
X143726698Y-88111647D01*
X143539505Y-88562458D01*
X143539079Y-89050589D01*
X124435669Y-89050589D01*
X124609125Y-88632861D01*
X124609673Y-88005492D01*
X124370095Y-87425668D01*
X124262616Y-87318001D01*
X124368536Y-87212265D01*
X124609125Y-86632861D01*
X124609673Y-86005492D01*
X124370095Y-85425668D01*
X124262616Y-85318001D01*
X124368536Y-85212265D01*
X124609125Y-84632861D01*
X124609673Y-84005492D01*
X124370095Y-83425668D01*
X124262616Y-83318001D01*
X124368536Y-83212265D01*
X124609125Y-82632861D01*
X124609673Y-82005492D01*
X124370095Y-81425668D01*
X123926865Y-80981664D01*
X123347461Y-80741075D01*
X122720092Y-80740527D01*
X122140268Y-80980105D01*
X121869624Y-81250278D01*
X121847461Y-81241075D01*
X121471956Y-81240747D01*
X121588600Y-81124306D01*
X121781110Y-80660691D01*
X140986863Y-80660691D01*
X141173269Y-81111827D01*
X141518128Y-81457289D01*
X141968939Y-81644482D01*
X142457070Y-81644908D01*
X142908206Y-81458502D01*
X143253668Y-81113643D01*
X143440861Y-80662832D01*
X143441287Y-80174701D01*
X143254881Y-79723565D01*
X143149496Y-79617995D01*
X176572784Y-79617995D01*
X176759190Y-80069131D01*
X177104049Y-80414593D01*
X177554860Y-80601786D01*
X178042991Y-80602212D01*
X178494127Y-80415806D01*
X178839589Y-80070947D01*
X179026782Y-79620136D01*
X179027208Y-79132005D01*
X178840802Y-78680869D01*
X178495943Y-78335407D01*
X178045132Y-78148214D01*
X177557001Y-78147788D01*
X177105865Y-78334194D01*
X176760403Y-78679053D01*
X176573210Y-79129864D01*
X176572784Y-79617995D01*
X143149496Y-79617995D01*
X142910022Y-79378103D01*
X142459211Y-79190910D01*
X141971080Y-79190484D01*
X141519944Y-79376890D01*
X141174482Y-79721749D01*
X140987289Y-80172560D01*
X140986863Y-80660691D01*
X121781110Y-80660691D01*
X121958848Y-80232652D01*
X121959690Y-79267184D01*
X121591000Y-78374885D01*
X120908906Y-77691600D01*
X120017252Y-77321352D01*
X119051784Y-77320510D01*
X118159485Y-77689200D01*
X117476200Y-78371294D01*
X117105952Y-79262948D01*
X117105110Y-80228416D01*
X116162000Y-80228416D01*
X116162000Y-79311500D01*
X116162212Y-79068505D01*
X116162000Y-79067992D01*
X116162000Y-73838040D01*
X116227297Y-73772743D01*
X118947884Y-73772743D01*
X119134290Y-74223879D01*
X119339050Y-74428997D01*
X119148123Y-74619591D01*
X118960930Y-75070402D01*
X118960504Y-75558533D01*
X119146910Y-76009669D01*
X119491769Y-76355131D01*
X119942580Y-76542324D01*
X120430711Y-76542750D01*
X120881847Y-76356344D01*
X121227309Y-76011485D01*
X121414502Y-75560674D01*
X121414928Y-75072543D01*
X121228522Y-74621407D01*
X121023762Y-74416289D01*
X121214689Y-74225695D01*
X121302751Y-74013616D01*
X123048710Y-74013616D01*
X123417400Y-74905915D01*
X124099494Y-75589200D01*
X124991148Y-75959448D01*
X125956616Y-75960290D01*
X126848915Y-75591600D01*
X126969053Y-75471671D01*
X126968727Y-75845308D01*
X126978912Y-75869956D01*
X126709864Y-76138535D01*
X126469275Y-76717939D01*
X126468727Y-77345308D01*
X126708305Y-77925132D01*
X127151535Y-78369136D01*
X127730939Y-78609725D01*
X128358308Y-78610273D01*
X128938132Y-78370695D01*
X129045799Y-78263216D01*
X129151535Y-78369136D01*
X129730939Y-78609725D01*
X130358308Y-78610273D01*
X130938132Y-78370695D01*
X131045799Y-78263216D01*
X131151535Y-78369136D01*
X131730939Y-78609725D01*
X132358308Y-78610273D01*
X132938132Y-78370695D01*
X133045799Y-78263216D01*
X133151535Y-78369136D01*
X133730939Y-78609725D01*
X134358308Y-78610273D01*
X134938132Y-78370695D01*
X135045799Y-78263216D01*
X135151535Y-78369136D01*
X135730939Y-78609725D01*
X136358308Y-78610273D01*
X136938132Y-78370695D01*
X137382136Y-77927465D01*
X137622725Y-77348061D01*
X137623273Y-76720692D01*
X137383695Y-76140868D01*
X137113522Y-75870224D01*
X137122725Y-75848061D01*
X137123053Y-75472556D01*
X137239494Y-75589200D01*
X138131148Y-75959448D01*
X139096616Y-75960290D01*
X139988915Y-75591600D01*
X140672200Y-74909506D01*
X141042448Y-74017852D01*
X141043290Y-73052384D01*
X140674600Y-72160085D01*
X140380455Y-71865426D01*
X149465150Y-71865426D01*
X149651556Y-72316562D01*
X149842582Y-72507922D01*
X149658338Y-72691845D01*
X149471145Y-73142656D01*
X149470719Y-73630787D01*
X149657125Y-74081923D01*
X149859299Y-74284451D01*
X149652769Y-74490620D01*
X149465576Y-74941431D01*
X149465150Y-75429562D01*
X149651556Y-75880698D01*
X149996415Y-76226160D01*
X150447226Y-76413353D01*
X150935357Y-76413779D01*
X151386493Y-76227373D01*
X151731955Y-75882514D01*
X151919148Y-75431703D01*
X151919574Y-74943572D01*
X151733168Y-74492436D01*
X151530994Y-74289908D01*
X151737524Y-74083739D01*
X151819376Y-73886616D01*
X153528710Y-73886616D01*
X153897400Y-74778915D01*
X154579494Y-75462200D01*
X155471148Y-75832448D01*
X156436616Y-75833290D01*
X157328915Y-75464600D01*
X157449053Y-75344671D01*
X157448727Y-75718308D01*
X157458912Y-75742956D01*
X157189864Y-76011535D01*
X156949275Y-76590939D01*
X156948727Y-77218308D01*
X157188305Y-77798132D01*
X157631535Y-78242136D01*
X158210939Y-78482725D01*
X158838308Y-78483273D01*
X159418132Y-78243695D01*
X159525799Y-78136216D01*
X159631535Y-78242136D01*
X160210939Y-78482725D01*
X160838308Y-78483273D01*
X161418132Y-78243695D01*
X161525799Y-78136216D01*
X161631535Y-78242136D01*
X162210939Y-78482725D01*
X162838308Y-78483273D01*
X163418132Y-78243695D01*
X163525799Y-78136216D01*
X163631535Y-78242136D01*
X164210939Y-78482725D01*
X164838308Y-78483273D01*
X165418132Y-78243695D01*
X165525799Y-78136216D01*
X165631535Y-78242136D01*
X166210939Y-78482725D01*
X166838308Y-78483273D01*
X167418132Y-78243695D01*
X167862136Y-77800465D01*
X168102725Y-77221061D01*
X168103273Y-76593692D01*
X167863695Y-76013868D01*
X167593522Y-75743224D01*
X167602725Y-75721061D01*
X167603053Y-75345556D01*
X167719494Y-75462200D01*
X168611148Y-75832448D01*
X169576616Y-75833290D01*
X170468915Y-75464600D01*
X171152200Y-74782506D01*
X171522448Y-73890852D01*
X171523290Y-72925384D01*
X171154600Y-72033085D01*
X170472506Y-71349800D01*
X169580852Y-70979552D01*
X168615384Y-70978710D01*
X167723085Y-71347400D01*
X167039800Y-72029494D01*
X166669552Y-72921148D01*
X166668710Y-73886616D01*
X166707968Y-73981628D01*
X166341061Y-73829275D01*
X165713692Y-73828727D01*
X165133868Y-74068305D01*
X164775765Y-74425784D01*
X164420465Y-74069864D01*
X163841061Y-73829275D01*
X163213692Y-73828727D01*
X162633868Y-74068305D01*
X162526201Y-74175784D01*
X162420465Y-74069864D01*
X161841061Y-73829275D01*
X161213692Y-73828727D01*
X160633868Y-74068305D01*
X160275765Y-74425784D01*
X159920465Y-74069864D01*
X159341061Y-73829275D01*
X158713692Y-73828727D01*
X158344985Y-73981074D01*
X158382448Y-73890852D01*
X158383290Y-72925384D01*
X158014600Y-72033085D01*
X157332506Y-71349800D01*
X156440852Y-70979552D01*
X155475384Y-70978710D01*
X154583085Y-71347400D01*
X153899800Y-72029494D01*
X153529552Y-72921148D01*
X153528710Y-73886616D01*
X151819376Y-73886616D01*
X151924717Y-73632928D01*
X151925143Y-73144797D01*
X151738737Y-72693661D01*
X151547711Y-72502301D01*
X151731955Y-72318378D01*
X151919148Y-71867567D01*
X151919574Y-71379436D01*
X151733168Y-70928300D01*
X151388309Y-70582838D01*
X150937498Y-70395645D01*
X150449367Y-70395219D01*
X149998231Y-70581625D01*
X149652769Y-70926484D01*
X149465576Y-71377295D01*
X149465150Y-71865426D01*
X140380455Y-71865426D01*
X139992506Y-71476800D01*
X139100852Y-71106552D01*
X138135384Y-71105710D01*
X137243085Y-71474400D01*
X136559800Y-72156494D01*
X136189552Y-73048148D01*
X136188710Y-74013616D01*
X136227968Y-74108628D01*
X135861061Y-73956275D01*
X135233692Y-73955727D01*
X134653868Y-74195305D01*
X134295765Y-74552784D01*
X133940465Y-74196864D01*
X133361061Y-73956275D01*
X132733692Y-73955727D01*
X132153868Y-74195305D01*
X132046201Y-74302784D01*
X131940465Y-74196864D01*
X131361061Y-73956275D01*
X130733692Y-73955727D01*
X130153868Y-74195305D01*
X129795765Y-74552784D01*
X129440465Y-74196864D01*
X128861061Y-73956275D01*
X128233692Y-73955727D01*
X127864985Y-74108074D01*
X127902448Y-74017852D01*
X127903290Y-73052384D01*
X127534600Y-72160085D01*
X126852506Y-71476800D01*
X125960852Y-71106552D01*
X124995384Y-71105710D01*
X124103085Y-71474400D01*
X123419800Y-72156494D01*
X123049552Y-73048148D01*
X123048710Y-74013616D01*
X121302751Y-74013616D01*
X121401882Y-73774884D01*
X121402308Y-73286753D01*
X121215902Y-72835617D01*
X121038688Y-72658093D01*
X121228144Y-72468967D01*
X121415337Y-72018156D01*
X121415763Y-71530025D01*
X121229357Y-71078889D01*
X120884498Y-70733427D01*
X120433687Y-70546234D01*
X119945556Y-70545808D01*
X119494420Y-70732214D01*
X119148958Y-71077073D01*
X118961765Y-71527884D01*
X118961339Y-72016015D01*
X119147745Y-72467151D01*
X119324959Y-72644675D01*
X119135503Y-72833801D01*
X118948310Y-73284612D01*
X118947884Y-73772743D01*
X116227297Y-73772743D01*
X119888242Y-70111798D01*
X138938075Y-70111798D01*
X139180995Y-70112010D01*
G36*
X187221000Y-62400606D02*
X187221000Y-140799394D01*
X186519394Y-141501000D01*
X108120606Y-141501000D01*
X107419000Y-140799394D01*
X107419000Y-131609003D01*
X139611401Y-131609003D01*
X139882580Y-132265306D01*
X140384273Y-132767875D01*
X141040102Y-133040199D01*
X141750223Y-133040819D01*
X142406526Y-132769640D01*
X142909095Y-132267947D01*
X143181419Y-131612118D01*
X143181478Y-131544503D01*
X151630681Y-131544503D01*
X151901860Y-132200806D01*
X152403553Y-132703375D01*
X153059382Y-132975699D01*
X153769503Y-132976319D01*
X154425806Y-132705140D01*
X154928375Y-132203447D01*
X155200699Y-131547618D01*
X155201319Y-130837497D01*
X154930140Y-130181194D01*
X154428447Y-129678625D01*
X153772618Y-129406301D01*
X153062497Y-129405681D01*
X152406194Y-129676860D01*
X151903625Y-130178553D01*
X151631301Y-130834382D01*
X151630681Y-131544503D01*
X143181478Y-131544503D01*
X143182039Y-130901997D01*
X142910860Y-130245694D01*
X142409167Y-129743125D01*
X141753338Y-129470801D01*
X141043217Y-129470181D01*
X140386914Y-129741360D01*
X139884345Y-130243053D01*
X139612021Y-130898882D01*
X139611401Y-131609003D01*
X107419000Y-131609003D01*
X107419000Y-127867824D01*
X111030808Y-127867824D01*
X111199439Y-128275943D01*
X111511415Y-128588463D01*
X111919239Y-128757807D01*
X112360824Y-128758192D01*
X112768943Y-128589561D01*
X113081463Y-128277585D01*
X113250807Y-127869761D01*
X113251192Y-127428176D01*
X113082561Y-127020057D01*
X112770585Y-126707537D01*
X112362761Y-126538193D01*
X111921176Y-126537808D01*
X111513057Y-126706439D01*
X111200537Y-127018415D01*
X111031193Y-127426239D01*
X111030808Y-127867824D01*
X107419000Y-127867824D01*
X107419000Y-97628824D01*
X110998808Y-97628824D01*
X111167439Y-98036943D01*
X111479415Y-98349463D01*
X111887239Y-98518807D01*
X112328824Y-98519192D01*
X112736943Y-98350561D01*
X113049463Y-98038585D01*
X113218807Y-97630761D01*
X113219192Y-97189176D01*
X113050561Y-96781057D01*
X112738585Y-96468537D01*
X112330761Y-96299193D01*
X111889176Y-96298808D01*
X111481057Y-96467439D01*
X111168537Y-96779415D01*
X110999193Y-97187239D01*
X110998808Y-97628824D01*
X107419000Y-97628824D01*
X107419000Y-68935600D01*
X114033400Y-68935600D01*
X114033400Y-125476000D01*
X114103964Y-125830748D01*
X114304912Y-126131488D01*
X114605652Y-126332436D01*
X114960400Y-126403000D01*
X144949067Y-126403000D01*
X144948792Y-126718054D01*
X145130641Y-127158160D01*
X145467068Y-127495176D01*
X145906857Y-127677792D01*
X146383054Y-127678208D01*
X146823160Y-127496359D01*
X147160176Y-127159932D01*
X147342792Y-126720143D01*
X147343069Y-126403000D01*
X147449067Y-126403000D01*
X147448792Y-126718054D01*
X147630641Y-127158160D01*
X147953185Y-127481269D01*
X147631824Y-127802068D01*
X147449208Y-128241857D01*
X147448792Y-128718054D01*
X147630641Y-129158160D01*
X147967068Y-129495176D01*
X148406857Y-129677792D01*
X148883054Y-129678208D01*
X149323160Y-129496359D01*
X149660176Y-129159932D01*
X149842792Y-128720143D01*
X149843208Y-128243946D01*
X149661359Y-127803840D01*
X149338815Y-127480731D01*
X149660176Y-127159932D01*
X149842792Y-126720143D01*
X149843069Y-126403000D01*
X163852200Y-126403000D01*
X163852200Y-130200400D01*
X163885312Y-130366867D01*
X163979609Y-130507991D01*
X164120733Y-130602288D01*
X164287200Y-130635400D01*
X166082678Y-130635400D01*
X166082678Y-133300400D01*
X166116439Y-133470129D01*
X166212583Y-133614017D01*
X166356471Y-133710161D01*
X166526200Y-133743922D01*
X170336200Y-133743922D01*
X170505929Y-133710161D01*
X170649817Y-133614017D01*
X170745961Y-133470129D01*
X170779722Y-133300400D01*
X170779722Y-130635400D01*
X171483357Y-130635400D01*
X171526200Y-130643922D01*
X175336200Y-130643922D01*
X175505929Y-130610161D01*
X175649817Y-130514017D01*
X175745961Y-130370129D01*
X175779722Y-130200400D01*
X175779722Y-126403000D01*
X184277000Y-126403000D01*
X184631748Y-126332436D01*
X184932488Y-126131488D01*
X185133436Y-125830748D01*
X185204000Y-125476000D01*
X185204000Y-79735252D01*
X185442189Y-79973894D01*
X185482952Y-80001291D01*
X185531509Y-80011176D01*
X185580152Y-80001726D01*
X185621477Y-79974380D01*
X185649191Y-79933302D01*
X185659076Y-79884745D01*
X185716172Y-67124075D01*
X185706335Y-67074495D01*
X185678660Y-67033390D01*
X185637362Y-67006005D01*
X185588728Y-66996508D01*
X172839765Y-67041182D01*
X172791721Y-67050802D01*
X172750493Y-67078293D01*
X172722924Y-67119469D01*
X172713210Y-67168060D01*
X172722831Y-67216670D01*
X172750322Y-67257898D01*
X173499600Y-68008600D01*
X114960400Y-68008600D01*
X114605652Y-68079164D01*
X114304912Y-68280112D01*
X114103964Y-68580852D01*
X114033400Y-68935600D01*
X107419000Y-68935600D01*
X107419000Y-66225672D01*
X119780808Y-66225672D01*
X119949439Y-66633791D01*
X120261415Y-66946311D01*
X120669239Y-67115655D01*
X121110824Y-67116040D01*
X121518943Y-66947409D01*
X121831463Y-66635433D01*
X122000807Y-66227609D01*
X122001138Y-65846824D01*
X150273808Y-65846824D01*
X150442439Y-66254943D01*
X150754415Y-66567463D01*
X151162239Y-66736807D01*
X151603824Y-66737192D01*
X152011943Y-66568561D01*
X152324463Y-66256585D01*
X152493807Y-65848761D01*
X152494192Y-65407176D01*
X152325561Y-64999057D01*
X152013585Y-64686537D01*
X151605761Y-64517193D01*
X151164176Y-64516808D01*
X150756057Y-64685439D01*
X150443537Y-64997415D01*
X150274193Y-65405239D01*
X150273808Y-65846824D01*
X122001138Y-65846824D01*
X122001192Y-65786024D01*
X121832561Y-65377905D01*
X121520585Y-65065385D01*
X121112761Y-64896041D01*
X120671176Y-64895656D01*
X120263057Y-65064287D01*
X119950537Y-65376263D01*
X119781193Y-65784087D01*
X119780808Y-66225672D01*
X107419000Y-66225672D01*
X107419000Y-62400606D01*
X108120606Y-61699000D01*
X186519394Y-61699000D01*
X187221000Y-62400606D01*
X187221000Y-62400606D01*
G37*
X187221000Y-62400606D02*
X187221000Y-140799394D01*
X186519394Y-141501000D01*
X108120606Y-141501000D01*
X107419000Y-140799394D01*
X107419000Y-131609003D01*
X139611401Y-131609003D01*
X139882580Y-132265306D01*
X140384273Y-132767875D01*
X141040102Y-133040199D01*
X141750223Y-133040819D01*
X142406526Y-132769640D01*
X142909095Y-132267947D01*
X143181419Y-131612118D01*
X143181478Y-131544503D01*
X151630681Y-131544503D01*
X151901860Y-132200806D01*
X152403553Y-132703375D01*
X153059382Y-132975699D01*
X153769503Y-132976319D01*
X154425806Y-132705140D01*
X154928375Y-132203447D01*
X155200699Y-131547618D01*
X155201319Y-130837497D01*
X154930140Y-130181194D01*
X154428447Y-129678625D01*
X153772618Y-129406301D01*
X153062497Y-129405681D01*
X152406194Y-129676860D01*
X151903625Y-130178553D01*
X151631301Y-130834382D01*
X151630681Y-131544503D01*
X143181478Y-131544503D01*
X143182039Y-130901997D01*
X142910860Y-130245694D01*
X142409167Y-129743125D01*
X141753338Y-129470801D01*
X141043217Y-129470181D01*
X140386914Y-129741360D01*
X139884345Y-130243053D01*
X139612021Y-130898882D01*
X139611401Y-131609003D01*
X107419000Y-131609003D01*
X107419000Y-127867824D01*
X111030808Y-127867824D01*
X111199439Y-128275943D01*
X111511415Y-128588463D01*
X111919239Y-128757807D01*
X112360824Y-128758192D01*
X112768943Y-128589561D01*
X113081463Y-128277585D01*
X113250807Y-127869761D01*
X113251192Y-127428176D01*
X113082561Y-127020057D01*
X112770585Y-126707537D01*
X112362761Y-126538193D01*
X111921176Y-126537808D01*
X111513057Y-126706439D01*
X111200537Y-127018415D01*
X111031193Y-127426239D01*
X111030808Y-127867824D01*
X107419000Y-127867824D01*
X107419000Y-97628824D01*
X110998808Y-97628824D01*
X111167439Y-98036943D01*
X111479415Y-98349463D01*
X111887239Y-98518807D01*
X112328824Y-98519192D01*
X112736943Y-98350561D01*
X113049463Y-98038585D01*
X113218807Y-97630761D01*
X113219192Y-97189176D01*
X113050561Y-96781057D01*
X112738585Y-96468537D01*
X112330761Y-96299193D01*
X111889176Y-96298808D01*
X111481057Y-96467439D01*
X111168537Y-96779415D01*
X110999193Y-97187239D01*
X110998808Y-97628824D01*
X107419000Y-97628824D01*
X107419000Y-68935600D01*
X114033400Y-68935600D01*
X114033400Y-125476000D01*
X114103964Y-125830748D01*
X114304912Y-126131488D01*
X114605652Y-126332436D01*
X114960400Y-126403000D01*
X144949067Y-126403000D01*
X144948792Y-126718054D01*
X145130641Y-127158160D01*
X145467068Y-127495176D01*
X145906857Y-127677792D01*
X146383054Y-127678208D01*
X146823160Y-127496359D01*
X147160176Y-127159932D01*
X147342792Y-126720143D01*
X147343069Y-126403000D01*
X147449067Y-126403000D01*
X147448792Y-126718054D01*
X147630641Y-127158160D01*
X147953185Y-127481269D01*
X147631824Y-127802068D01*
X147449208Y-128241857D01*
X147448792Y-128718054D01*
X147630641Y-129158160D01*
X147967068Y-129495176D01*
X148406857Y-129677792D01*
X148883054Y-129678208D01*
X149323160Y-129496359D01*
X149660176Y-129159932D01*
X149842792Y-128720143D01*
X149843208Y-128243946D01*
X149661359Y-127803840D01*
X149338815Y-127480731D01*
X149660176Y-127159932D01*
X149842792Y-126720143D01*
X149843069Y-126403000D01*
X163852200Y-126403000D01*
X163852200Y-130200400D01*
X163885312Y-130366867D01*
X163979609Y-130507991D01*
X164120733Y-130602288D01*
X164287200Y-130635400D01*
X166082678Y-130635400D01*
X166082678Y-133300400D01*
X166116439Y-133470129D01*
X166212583Y-133614017D01*
X166356471Y-133710161D01*
X166526200Y-133743922D01*
X170336200Y-133743922D01*
X170505929Y-133710161D01*
X170649817Y-133614017D01*
X170745961Y-133470129D01*
X170779722Y-133300400D01*
X170779722Y-130635400D01*
X171483357Y-130635400D01*
X171526200Y-130643922D01*
X175336200Y-130643922D01*
X175505929Y-130610161D01*
X175649817Y-130514017D01*
X175745961Y-130370129D01*
X175779722Y-130200400D01*
X175779722Y-126403000D01*
X184277000Y-126403000D01*
X184631748Y-126332436D01*
X184932488Y-126131488D01*
X185133436Y-125830748D01*
X185204000Y-125476000D01*
X185204000Y-79735252D01*
X185442189Y-79973894D01*
X185482952Y-80001291D01*
X185531509Y-80011176D01*
X185580152Y-80001726D01*
X185621477Y-79974380D01*
X185649191Y-79933302D01*
X185659076Y-79884745D01*
X185716172Y-67124075D01*
X185706335Y-67074495D01*
X185678660Y-67033390D01*
X185637362Y-67006005D01*
X185588728Y-66996508D01*
X172839765Y-67041182D01*
X172791721Y-67050802D01*
X172750493Y-67078293D01*
X172722924Y-67119469D01*
X172713210Y-67168060D01*
X172722831Y-67216670D01*
X172750322Y-67257898D01*
X173499600Y-68008600D01*
X114960400Y-68008600D01*
X114605652Y-68079164D01*
X114304912Y-68280112D01*
X114103964Y-68580852D01*
X114033400Y-68935600D01*
X107419000Y-68935600D01*
X107419000Y-66225672D01*
X119780808Y-66225672D01*
X119949439Y-66633791D01*
X120261415Y-66946311D01*
X120669239Y-67115655D01*
X121110824Y-67116040D01*
X121518943Y-66947409D01*
X121831463Y-66635433D01*
X122000807Y-66227609D01*
X122001138Y-65846824D01*
X150273808Y-65846824D01*
X150442439Y-66254943D01*
X150754415Y-66567463D01*
X151162239Y-66736807D01*
X151603824Y-66737192D01*
X152011943Y-66568561D01*
X152324463Y-66256585D01*
X152493807Y-65848761D01*
X152494192Y-65407176D01*
X152325561Y-64999057D01*
X152013585Y-64686537D01*
X151605761Y-64517193D01*
X151164176Y-64516808D01*
X150756057Y-64685439D01*
X150443537Y-64997415D01*
X150274193Y-65405239D01*
X150273808Y-65846824D01*
X122001138Y-65846824D01*
X122001192Y-65786024D01*
X121832561Y-65377905D01*
X121520585Y-65065385D01*
X121112761Y-64896041D01*
X120671176Y-64895656D01*
X120263057Y-65064287D01*
X119950537Y-65376263D01*
X119781193Y-65784087D01*
X119780808Y-66225672D01*
X107419000Y-66225672D01*
X107419000Y-62400606D01*
X108120606Y-61699000D01*
X186519394Y-61699000D01*
X187221000Y-62400606D01*
G36*
X175031400Y-130073400D02*
X171424600Y-130073400D01*
X171424600Y-125501400D01*
X175031400Y-125501400D01*
X175031400Y-130073400D01*
X175031400Y-130073400D01*
G37*
X175031400Y-130073400D02*
X171424600Y-130073400D01*
X171424600Y-125501400D01*
X175031400Y-125501400D01*
X175031400Y-130073400D01*
G36*
X171729400Y-130073400D02*
X170677763Y-130073400D01*
X170677763Y-129490400D01*
X170651763Y-129359689D01*
X170577722Y-129248878D01*
X170466911Y-129174837D01*
X170336200Y-129148837D01*
X166526200Y-129148837D01*
X166395489Y-129174837D01*
X166284678Y-129248878D01*
X166210637Y-129359689D01*
X166184637Y-129490400D01*
X166184637Y-130073400D01*
X164414200Y-130073400D01*
X164414200Y-125526800D01*
X171729400Y-125526800D01*
X171729400Y-130073400D01*
X171729400Y-130073400D01*
G37*
X171729400Y-130073400D02*
X170677763Y-130073400D01*
X170677763Y-129490400D01*
X170651763Y-129359689D01*
X170577722Y-129248878D01*
X170466911Y-129174837D01*
X170336200Y-129148837D01*
X166526200Y-129148837D01*
X166395489Y-129174837D01*
X166284678Y-129248878D01*
X166210637Y-129359689D01*
X166184637Y-129490400D01*
X166184637Y-130073400D01*
X164414200Y-130073400D01*
X164414200Y-125526800D01*
X171729400Y-125526800D01*
X171729400Y-130073400D01*
G36*
X185406443Y-79578528D02*
X173145337Y-67294112D01*
X185461601Y-67250955D01*
X185406443Y-79578528D01*
X185406443Y-79578528D01*
G37*
X185406443Y-79578528D02*
X173145337Y-67294112D01*
X185461601Y-67250955D01*
X185406443Y-79578528D01*
M02*
