M48
;DRILL file {KiCad 0.201601041403+6416~40~ubuntu15.10.1-stable} date Pá 8. leden 2016, 00:52:58 CET
;FORMAT={3:3/ absolute / metric / suppress leading zeros}
FMAT,2
METRIC,TZ
T1C0.400
T2C0.889
T3C1.300
T4C3.000
%
G90
G05
M71
T1
X125730Y-86360
X125730Y-89535
X125730Y-90932
X127000Y-75438
X128270Y-75438
X128380Y-89376
X129540Y-75438
X129540Y-86614
X131236Y-75438
X131660Y-89192
X131660Y-90132
X131826Y-87122
X132500Y-89192
X132500Y-90132
X133561Y-92063
X133604Y-75438
X133858Y-93218
X135382Y-89287
X141224Y-84074
X141732Y-85852
X141732Y-86868
X141732Y-87884
X141732Y-88900
T2
X127000Y-77470
X127000Y-80010
X127000Y-82550
X127000Y-85090
X127000Y-93726
X127000Y-96266
X129540Y-77470
X129540Y-80010
X129540Y-82550
X129540Y-85090
X129540Y-93726
X129540Y-96266
X132080Y-93726
X132080Y-96266
T3
X136906Y-96774
X136906Y-101774
X137668Y-71962
X137668Y-76962
X141986Y-96774
X141986Y-101774
X142748Y-71962
X142748Y-76962
T4
X129540Y-71628
X129540Y-102108
X149840Y-71628
X149840Y-102108
T0
M30
