*
*
G04 PowerPCB (Build Number 500.281.2.20) generated Gerber (RS-274-X) file*
G04 PC Version=2.1*
*
%IN "MPC17529HB01A.pcb"*%
*
%MOIN*%
*
%FSLAX35Y35*%
*
*
*
*
G04 PC Standard Apertures*
*
*
G04 Thermal Relief Aperture macro.*
%AMTER*
1,1,$1,0,0*
1,0,$1-$2,0,0*
21,0,$3,$4,0,0,45*
21,0,$3,$4,0,0,135*
%
*
*
G04 Annular Aperture macro.*
%AMANN*
1,1,$1,0,0*
1,0,$2,0,0*
%
*
*
G04 Odd Aperture macro.*
%AMODD*
1,1,$1,0,0*
1,0,$1-0.005,0,0*
%
*
*
G04 PC Custom Aperture Macros*
*
*
*
*
*
*
G04 PC Aperture Table*
*
%ADD024C,0.001*%
%ADD025C,0.01*%
%ADD029C,0.005*%
%ADD036C,0.008*%
*
*
*
*
G04 PC Custom Flashes*
G04 Layer Name MPC17529HB01A.pcb - flashes*
%LPD*%
*
*
G04 PC Circuitry*
G04 Layer Name MPC17529HB01A.pcb - circuitry*
%LPD*%
*
G54D24*
G01X229000Y111000D02*
X229002D01*
X111000D02*
X111002D01*
X229000D02*
X229002D01*
X229000Y229000D02*
X229002D01*
G54D25*
X229000Y106000D02*
Y95000D01*
X111000Y106000D02*
Y95000D01*
X234000Y111000D02*
X245000D01*
X234000Y229000D02*
X245000D01*
G54D29*
X111000Y111000D02*
X229000D01*
Y229000*
X111000*
Y111000*
G54D36*
X229000Y100000D02*
X183909D01*
X229000D02*
X219000Y97500D01*
Y102500*
X229000Y100000*
X111000D02*
X156090D01*
X111000D02*
X121000Y102500D01*
Y97500*
X111000Y100000*
X159090Y101250D02*
X159454Y101500D01*
X159454D02*
X160000Y102250D01*
Y97000*
X161636Y101250D02*
X162000Y101500D01*
X162545Y102250*
Y97000*
X165090Y102250D02*
X164545Y102000D01*
X164363Y101500*
X164363D02*
Y101000D01*
X164363D02*
X164545Y100500D01*
X164909Y100250*
X165636Y100000*
X166181Y99750*
X166181D02*
X166545Y99250D01*
X166727Y98750*
Y98000*
X166545Y97500*
X166363Y97250*
X166363D02*
X165818Y97000D01*
X165090*
X165090D02*
X164545Y97250D01*
X164363Y97500*
X164363D02*
X164181Y98000D01*
X164181D02*
Y98750D01*
X164181D02*
X164363Y99250D01*
X164363D02*
X164727Y99750D01*
X165272Y100000*
X165272D02*
X166000Y100250D01*
X166363Y100500*
X166363D02*
X166545Y101000D01*
Y101500*
X166363Y102000*
X166363D02*
X165818Y102250D01*
X165090*
X169454D02*
X168909Y102000D01*
X168545Y101250*
X168363Y100000*
X168363D02*
Y99250D01*
X168363D02*
X168545Y98000D01*
X168909Y97250*
X169454Y97000*
X169454D02*
X169818D01*
X170363Y97250*
X170363D02*
X170727Y98000D01*
X170909Y99250*
Y100000*
X170727Y101250*
X170363Y102000*
X170363D02*
X169818Y102250D01*
X169454*
X172545Y100500D02*
Y97000D01*
Y99500D02*
X173090Y100250D01*
X173090D02*
X173454Y100500D01*
X173454D02*
X174000D01*
X174363Y100250*
X174363D02*
X174545Y99500D01*
Y97000*
Y99500D02*
X175090Y100250D01*
X175090D02*
X175454Y100500D01*
X175454D02*
X176000D01*
X176363Y100250*
X176363D02*
X176545Y99500D01*
Y97000*
X178181Y102250D02*
X178363Y102000D01*
X178363D02*
X178545Y102250D01*
X178363Y102500*
X178363D02*
X178181Y102250D01*
X178363Y100500D02*
Y97000D01*
X180181Y102250D02*
Y97000D01*
X240000Y111000D02*
Y156090D01*
Y111000D02*
X237500Y121000D01*
X242500*
X240000Y111000*
Y229000D02*
Y183909D01*
Y229000D02*
X242500Y219000D01*
X237500*
X240000Y229000*
X238750Y159090D02*
X238500Y159454D01*
X238500D02*
X237750Y160000D01*
X243000*
X238750Y161636D02*
X238500Y162000D01*
X237750Y162545*
X243000*
X237750Y165090D02*
X238000Y164545D01*
X238500Y164363*
X238500D02*
X239000D01*
X239000D02*
X239500Y164545D01*
X239750Y164909*
X240000Y165636*
X240250Y166181*
X240250D02*
X240750Y166545D01*
X241250Y166727*
X242000*
X242500Y166545*
X242750Y166363*
X242750D02*
X243000Y165818D01*
Y165090*
X243000D02*
X242750Y164545D01*
X242500Y164363*
X242500D02*
X242000Y164181D01*
X242000D02*
X241250D01*
X241250D02*
X240750Y164363D01*
X240750D02*
X240250Y164727D01*
X240000Y165272*
X240000D02*
X239750Y166000D01*
X239500Y166363*
X239500D02*
X239000Y166545D01*
X238500*
X238000Y166363*
X238000D02*
X237750Y165818D01*
Y165090*
Y169454D02*
X238000Y168909D01*
X238750Y168545*
X240000Y168363*
X240000D02*
X240750D01*
X240750D02*
X242000Y168545D01*
X242750Y168909*
X243000Y169454*
X243000D02*
Y169818D01*
X242750Y170363*
X242750D02*
X242000Y170727D01*
X240750Y170909*
X240000*
X238750Y170727*
X238000Y170363*
X238000D02*
X237750Y169818D01*
Y169454*
X239500Y172545D02*
X243000D01*
X240500D02*
X239750Y173090D01*
X239750D02*
X239500Y173454D01*
X239500D02*
Y174000D01*
X239750Y174363*
X239750D02*
X240500Y174545D01*
X243000*
X240500D02*
X239750Y175090D01*
X239750D02*
X239500Y175454D01*
X239500D02*
Y176000D01*
X239750Y176363*
X239750D02*
X240500Y176545D01*
X243000*
X237750Y178181D02*
X238000Y178363D01*
X238000D02*
X237750Y178545D01*
X237500Y178363*
X237500D02*
X237750Y178181D01*
X239500Y178363D02*
X243000D01*
X237750Y180181D02*
X243000D01*
X0Y0D02*
M02*
