*
*
G04 PowerPCB (Build Number 500.281.2.20) generated Gerber (RS-274-X) file*
G04 PC Version=2.1*
*
%IN "Untitled"*%
*
%MOIN*%
*
%FSLAX35Y35*%
*
*
*
*
G04 PC Standard Apertures*
*
*
G04 Thermal Relief Aperture macro.*
%AMTER*
1,1,$1,0,0*
1,0,$1-$2,0,0*
21,0,$3,$4,0,0,45*
21,0,$3,$4,0,0,135*
%
*
*
G04 Annular Aperture macro.*
%AMANN*
1,1,$1,0,0*
1,0,$2,0,0*
%
*
*
G04 Odd Aperture macro.*
%AMODD*
1,1,$1,0,0*
1,0,$1-0.005,0,0*
%
*
*
G04 PC Custom Aperture Macros*
*
*
*
*
*
*
G04 PC Aperture Table*
*
%ADD012R,0.07X0.07*%
%ADD013C,0.23622*%
%ADD020C,0.012*%
%ADD022C,0.055*%
*
*
*
*
G04 PC Custom Flashes*
G04 Layer Name Untitled - flashes*
%LPD*%
*
*
G04 PC Circuitry*
G04 Layer Name Untitled - circuitry*
%LPD*%
*
G54D12*
G01X140000Y157000D03*
Y147000D03*
X130000Y157000D03*
Y147000D03*
X120000Y157000D03*
Y147000D03*
X260000Y157000D03*
Y147000D03*
X250000Y157000D03*
Y147000D03*
X240000Y157000D03*
Y147000D03*
X159000Y130000D03*
Y140000D03*
X169000Y130000D03*
Y140000D03*
X179000Y130000D03*
Y140000D03*
X163000Y214000D03*
X173000D03*
X163000Y204000D03*
X173000D03*
X163000Y194000D03*
X173000D03*
X202500Y130000D03*
Y140000D03*
X212500Y130000D03*
Y140000D03*
X222500Y130000D03*
Y140000D03*
X207000Y214000D03*
X217000D03*
X207000Y204000D03*
X217000D03*
X207000Y194000D03*
X217000D03*
G54D13*
X130000Y130000D03*
X250000D03*
X130000Y210000D03*
X250000D03*
G54D20*
X138000Y166000D02*
X157000D01*
X181000Y161500D02*
X203500D01*
G54D22*
X157000Y166000D03*
X138000D03*
X181000Y161500D03*
X203500D03*
X0Y0D02*
M02*
