M48
;DRILL file {KiCad 4.0.2+e4-6225~38~ubuntu15.10.1-stable} date Út 31. květen 2016, 18:59:18 CEST
;FORMAT={3:3/ absolute / metric / suppress leading zeros}
FMAT,2
METRIC,TZ
T1C0.400
T2C0.889
T3C3.000
%
G90
G05
M71
T1
X19120Y1680
X20066Y4064
X20130Y2921
X21209Y4064
X21209Y2921
X28092Y7671
X29337Y2667
X31623Y5207
X34022Y5207
X34036Y7493
X34100Y8954
X34100Y3302
X37465Y3556
X38672Y2096
X39307Y1334
T2
X10160Y8382
X10160Y5842
X12700Y8382
X12700Y5842
X15240Y8382
X15240Y5842
X17780Y8382
X17780Y5842
X20320Y8382
X20320Y5842
X38862Y8382
T3
X5080Y5080
X25400Y5080
T0
M30
