%
T1C.035F197S55
X014Y0109
X015Y0109
X014Y0119
X015Y0119
X015Y0129
X014Y0129
X0161Y0147
X0151Y0147
X0158Y021
X0148Y021
X0138Y021
X0188Y021
X0178Y021
X0168Y021
X0181Y018286
X0181Y016314
X0212Y0109
X0212Y0119
X0212Y0129
X0195Y0198
X0198Y021
X022Y0185
X022Y0175
X022Y0165
X022Y0155
X0222Y0129
X0222Y0119
X0222Y0109
T2C.051F107S55
X0114Y0141
X0134Y0141
X0124Y0181
T3C.12598F035S794
X012Y012
X012Y02
X024Y02
X024Y012
M30
