solid OpenSCAD_Model
  facet normal -0 0 1
    outer loop
      vertex -40 0 20
      vertex 40 -7 20
      vertex 40 0 20
    endloop
  endfacet
  facet normal 0 0 1
    outer loop
      vertex 40 -7 20
      vertex -40 0 20
      vertex -40 -7 20
    endloop
  endfacet
  facet normal 0 0 -1
    outer loop
      vertex -40 -7 -18
      vertex 40 0 -18
      vertex 40 -7 -18
    endloop
  endfacet
  facet normal -0 0 -1
    outer loop
      vertex 40 0 -18
      vertex -40 -7 -18
      vertex -40 0 -18
    endloop
  endfacet
  facet normal 0 -1 0
    outer loop
      vertex -40 -7 -18
      vertex 40 -7 20
      vertex -40 -7 20
    endloop
  endfacet
  facet normal 0 -1 -0
    outer loop
      vertex 40 -7 20
      vertex -40 -7 -18
      vertex 40 -7 -18
    endloop
  endfacet
  facet normal 1 -0 0
    outer loop
      vertex 40 -7 20
      vertex 40 0 -18
      vertex 40 0 20
    endloop
  endfacet
  facet normal 1 0 0
    outer loop
      vertex 40 0 -18
      vertex 40 -7 20
      vertex 40 -7 -18
    endloop
  endfacet
  facet normal 0 1 -0
    outer loop
      vertex 40 0 -18
      vertex -40 0 20
      vertex 40 0 20
    endloop
  endfacet
  facet normal 0 1 0
    outer loop
      vertex -40 0 20
      vertex 40 0 -18
      vertex -40 0 -18
    endloop
  endfacet
  facet normal -1 0 0
    outer loop
      vertex -40 -7 -18
      vertex -40 0 20
      vertex -40 0 -18
    endloop
  endfacet
  facet normal -1 -0 0
    outer loop
      vertex -40 0 20
      vertex -40 -7 -18
      vertex -40 -7 20
    endloop
  endfacet
endsolid OpenSCAD_Model
