%
T1C.02913F197S55
X019Y026
X0195Y026
X0205Y026
X021Y026
X0185Y026591
X02Y026591
X0215Y026591
T2C.035F197S55
X016581Y015096
X017581Y015096
X016581Y016096
X017581Y016096
X020773Y020533
X019774Y020533
X020773Y019533
X019774Y019533
X021164Y014606
X021164Y013606
X023164Y013606
X022164Y013606
X022164Y014606
X023164Y014606
X025308Y021471
X026308Y021471
X025308Y022471
X026308Y022471
X025308Y023471
X026308Y023471
T3C.037F197S55
X01852Y02012
X0188Y02088
X0178Y02092
X01976Y02288
T4C.05315F107S55
X022583Y025606
X017531Y026
T5C.12598F035S794
X014Y014
X014Y026
X026Y026
X026Y014
M30
