%
T1C.02913F197S55
X019Y026
X0195Y026
X0205Y026
X021Y026
X0185Y026591
X02Y026591
X0215Y026591
T2C.035F197S55
X016581Y015096
X017581Y015096
X016581Y016096
X017581Y016096
X020773Y020533
X019774Y020533
X020773Y019533
X019774Y019533
X021164Y014606
X021164Y013606
X023164Y013606
X022164Y013606
X022164Y014606
X023164Y014606
X025308Y021471
X025308Y022471
X025308Y023471
X026308Y023471
X026308Y022471
X026308Y021471
T3C.037F197S55
X0186Y01272
X0138Y01988
X0184Y0202
X016Y02068
X0182Y0208
X01756Y0208
X01808Y02156
X0168Y0234
X0176Y0236
X0156Y02388
X017Y02436
X01744Y025
X01684Y0274
X01992Y02736
X02104Y02476
X01936Y02288
X02012Y02288
X01884Y02088
X01888Y01964
X01892Y01724
X01968Y01704
X02124Y01596
X02024Y01584
X022Y01556
X0216Y01648
X02236Y01652
X02176Y01768
X02248Y01772
X0222Y01848
X0232Y01876
X02344Y02204
X023Y02436
X02148Y02524
X02196Y0274
X02392Y02684
X0238Y02568
X02404Y02452
X02464Y01888
X02544Y01808
X0262Y01704
X0274Y01916
T4C.05315F107S55
X022583Y025606
X017531Y026
T5C.12598F035S794
X014Y014
X014Y026
X026Y026
X026Y014
M30
