solid OpenSCAD_Model
  facet normal 0.999507 0.031412 0
    outer loop
      vertex 21.5 0 3
      vertex 21.4576 1.35 0
      vertex 21.4576 1.35 3
    endloop
  endfacet
  facet normal 0.999507 0.031412 0
    outer loop
      vertex 21.4576 1.35 0
      vertex 21.5 0 3
      vertex 21.5 0 0
    endloop
  endfacet
  facet normal -0.999507 0.031412 0
    outer loop
      vertex -21.5 0 0
      vertex -21.4576 1.35 3
      vertex -21.4576 1.35 0
    endloop
  endfacet
  facet normal -0.999507 0.031412 0
    outer loop
      vertex -21.4576 1.35 3
      vertex -21.5 0 0
      vertex -21.5 0 3
    endloop
  endfacet
  facet normal 0.707107 0.707107 0
    outer loop
      vertex 15.6728 14.7178 3
      vertex 14.7178 15.6728 0
      vertex 14.7178 15.6728 3
    endloop
  endfacet
  facet normal 0.707107 0.707107 0
    outer loop
      vertex 14.7178 15.6728 0
      vertex 15.6728 14.7178 3
      vertex 15.6728 14.7178 0
    endloop
  endfacet
  facet normal -0.661312 0.750111 0
    outer loop
      vertex -13.7046 16.566 0
      vertex -14.7178 15.6728 3
      vertex -13.7046 16.566 3
    endloop
  endfacet
  facet normal -0.661312 0.750111 0
    outer loop
      vertex -14.7178 15.6728 3
      vertex -13.7046 16.566 0
      vertex -14.7178 15.6728 0
    endloop
  endfacet
  facet normal -0.975917 -0.218143 0
    outer loop
      vertex -20.8245 -5.34683 0
      vertex -21.1192 -4.0287 3
      vertex -21.1192 -4.0287 0
    endloop
  endfacet
  facet normal -0.975917 -0.218143 0
    outer loop
      vertex -21.1192 -4.0287 3
      vertex -20.8245 -5.34683 0
      vertex -20.8245 -5.34683 3
    endloop
  endfacet
  facet normal 0.917754 0.397148 0
    outer loop
      vertex 19.9902 7.91468 3
      vertex 19.4538 9.15425 0
      vertex 19.4538 9.15425 3
    endloop
  endfacet
  facet normal 0.917754 0.397148 0
    outer loop
      vertex 19.4538 9.15425 0
      vertex 19.9902 7.91468 3
      vertex 19.9902 7.91468 0
    endloop
  endfacet
  facet normal -0.82708 0.562084 0
    outer loop
      vertex -18.153 11.5203 0
      vertex -17.3939 12.6374 3
      vertex -17.3939 12.6374 0
    endloop
  endfacet
  facet normal -0.82708 0.562084 0
    outer loop
      vertex -17.3939 12.6374 3
      vertex -18.153 11.5203 0
      vertex -18.153 11.5203 3
    endloop
  endfacet
  facet normal -0.790156 0.612906 0
    outer loop
      vertex -17.3939 12.6374 0
      vertex -16.566 13.7046 3
      vertex -16.566 13.7046 0
    endloop
  endfacet
  facet normal -0.790156 0.612906 0
    outer loop
      vertex -16.566 13.7046 3
      vertex -17.3939 12.6374 0
      vertex -17.3939 12.6374 3
    endloop
  endfacet
  facet normal 0.860742 -0.509042 0
    outer loop
      vertex 18.153 -11.5203 3
      vertex 18.8406 -10.3577 0
      vertex 18.8406 -10.3577 3
    endloop
  endfacet
  facet normal 0.860742 -0.509042 0
    outer loop
      vertex 18.8406 -10.3577 0
      vertex 18.153 -11.5203 3
      vertex 18.153 -11.5203 0
    endloop
  endfacet
  facet normal 0.218143 -0.975917 0
    outer loop
      vertex 4.0287 -21.1192 0
      vertex 5.34683 -20.8245 3
      vertex 4.0287 -21.1192 3
    endloop
  endfacet
  facet normal 0.218143 -0.975917 0
    outer loop
      vertex 5.34683 -20.8245 3
      vertex 4.0287 -21.1192 0
      vertex 5.34683 -20.8245 0
    endloop
  endfacet
  facet normal 0.707107 -0.707107 0
    outer loop
      vertex 14.7178 -15.6728 3
      vertex 15.6728 -14.7178 0
      vertex 15.6728 -14.7178 3
    endloop
  endfacet
  facet normal 0.707107 -0.707107 0
    outer loop
      vertex 15.6728 -14.7178 0
      vertex 14.7178 -15.6728 3
      vertex 14.7178 -15.6728 0
    endloop
  endfacet
  facet normal 0.790156 -0.612906 0
    outer loop
      vertex 16.566 -13.7046 3
      vertex 17.3939 -12.6374 0
      vertex 17.3939 -12.6374 3
    endloop
  endfacet
  facet normal 0.790156 -0.612906 0
    outer loop
      vertex 17.3939 -12.6374 0
      vertex 16.566 -13.7046 3
      vertex 16.566 -13.7046 0
    endloop
  endfacet
  facet normal -0.338738 -0.940881 0
    outer loop
      vertex -7.91468 -19.9902 0
      vertex -6.64386 -20.4477 3
      vertex -7.91468 -19.9902 3
    endloop
  endfacet
  facet normal -0.338738 -0.940881 -0
    outer loop
      vertex -6.64386 -20.4477 3
      vertex -7.91468 -19.9902 0
      vertex -6.64386 -20.4477 0
    endloop
  endfacet
  facet normal -0.750111 -0.661312 0
    outer loop
      vertex -15.6728 -14.7178 0
      vertex -16.566 -13.7046 3
      vertex -16.566 -13.7046 0
    endloop
  endfacet
  facet normal -0.750111 -0.661312 0
    outer loop
      vertex -16.566 -13.7046 3
      vertex -15.6728 -14.7178 0
      vertex -15.6728 -14.7178 3
    endloop
  endfacet
  facet normal 0.987688 0.156435 0
    outer loop
      vertex 21.3305 2.69466 3
      vertex 21.1192 4.0287 0
      vertex 21.1192 4.0287 3
    endloop
  endfacet
  facet normal 0.987688 0.156435 0
    outer loop
      vertex 21.1192 4.0287 0
      vertex 21.3305 2.69466 3
      vertex 21.3305 2.69466 0
    endloop
  endfacet
  facet normal 0.995562 0.0941076 0
    outer loop
      vertex 21.4576 1.35 3
      vertex 21.3305 2.69466 0
      vertex 21.3305 2.69466 3
    endloop
  endfacet
  facet normal 0.995562 0.0941076 0
    outer loop
      vertex 21.3305 2.69466 0
      vertex 21.4576 1.35 3
      vertex 21.4576 1.35 0
    endloop
  endfacet
  facet normal 0.960294 0.27899 0
    outer loop
      vertex 20.8245 5.34683 3
      vertex 20.4477 6.64386 0
      vertex 20.4477 6.64386 3
    endloop
  endfacet
  facet normal 0.960294 0.27899 0
    outer loop
      vertex 20.4477 6.64386 0
      vertex 20.8245 5.34683 3
      vertex 20.8245 5.34683 0
    endloop
  endfacet
  facet normal 0.790156 0.612906 0
    outer loop
      vertex 17.3939 12.6374 3
      vertex 16.566 13.7046 0
      vertex 16.566 13.7046 3
    endloop
  endfacet
  facet normal 0.790156 0.612906 0
    outer loop
      vertex 16.566 13.7046 0
      vertex 17.3939 12.6374 3
      vertex 17.3939 12.6374 0
    endloop
  endfacet
  facet normal 0.891007 0.45399 0
    outer loop
      vertex 19.4538 9.15425 3
      vertex 18.8406 10.3577 0
      vertex 18.8406 10.3577 3
    endloop
  endfacet
  facet normal 0.891007 0.45399 0
    outer loop
      vertex 18.8406 10.3577 0
      vertex 19.4538 9.15425 3
      vertex 19.4538 9.15425 0
    endloop
  endfacet
  facet normal 0.27899 0.960294 -0
    outer loop
      vertex 6.64386 20.4477 0
      vertex 6.15 20.5912 3
      vertex 6.64386 20.4477 3
    endloop
  endfacet
  facet normal 0.27899 0.960294 0
    outer loop
      vertex 6.15 20.5912 3
      vertex 6.64386 20.4477 0
      vertex 6.15 20.5912 0
    endloop
  endfacet
  facet normal 0.509042 0.860742 -0
    outer loop
      vertex 11.5203 18.153 0
      vertex 10.3577 18.8406 3
      vertex 11.5203 18.153 3
    endloop
  endfacet
  facet normal 0.509042 0.860742 0
    outer loop
      vertex 10.3577 18.8406 3
      vertex 11.5203 18.153 0
      vertex 10.3577 18.8406 0
    endloop
  endfacet
  facet normal 0.661312 0.750111 -0
    outer loop
      vertex 14.7178 15.6728 0
      vertex 13.7046 16.566 3
      vertex 14.7178 15.6728 3
    endloop
  endfacet
  facet normal 0.661312 0.750111 0
    outer loop
      vertex 13.7046 16.566 3
      vertex 14.7178 15.6728 0
      vertex 13.7046 16.566 0
    endloop
  endfacet
  facet normal -0.975917 0.218143 0
    outer loop
      vertex -21.1192 4.0287 0
      vertex -20.8245 5.34683 3
      vertex -20.8245 5.34683 0
    endloop
  endfacet
  facet normal -0.975917 0.218143 0
    outer loop
      vertex -20.8245 5.34683 3
      vertex -21.1192 4.0287 0
      vertex -21.1192 4.0287 3
    endloop
  endfacet
  facet normal -0.750111 0.661312 0
    outer loop
      vertex -16.566 13.7046 0
      vertex -15.6728 14.7178 3
      vertex -15.6728 14.7178 0
    endloop
  endfacet
  facet normal -0.750111 0.661312 0
    outer loop
      vertex -15.6728 14.7178 3
      vertex -16.566 13.7046 0
      vertex -16.566 13.7046 3
    endloop
  endfacet
  facet normal -0.860742 0.509042 0
    outer loop
      vertex -18.8406 10.3577 0
      vertex -18.153 11.5203 3
      vertex -18.153 11.5203 0
    endloop
  endfacet
  facet normal -0.860742 0.509042 0
    outer loop
      vertex -18.153 11.5203 3
      vertex -18.8406 10.3577 0
      vertex -18.8406 10.3577 3
    endloop
  endfacet
  facet normal -0.960294 0.27899 0
    outer loop
      vertex -20.8245 5.34683 0
      vertex -20.4477 6.64386 3
      vertex -20.4477 6.64386 0
    endloop
  endfacet
  facet normal -0.960294 0.27899 0
    outer loop
      vertex -20.4477 6.64386 3
      vertex -20.8245 5.34683 0
      vertex -20.8245 5.34683 3
    endloop
  endfacet
  facet normal -0.987688 0.156435 0
    outer loop
      vertex -21.3305 2.69466 0
      vertex -21.1192 4.0287 3
      vertex -21.1192 4.0287 0
    endloop
  endfacet
  facet normal -0.987688 0.156435 0
    outer loop
      vertex -21.1192 4.0287 3
      vertex -21.3305 2.69466 0
      vertex -21.3305 2.69466 3
    endloop
  endfacet
  facet normal -0.45399 0.891007 0
    outer loop
      vertex -9.15425 19.4538 0
      vertex -10.3577 18.8406 3
      vertex -9.15425 19.4538 3
    endloop
  endfacet
  facet normal -0.45399 0.891007 0
    outer loop
      vertex -10.3577 18.8406 3
      vertex -9.15425 19.4538 0
      vertex -10.3577 18.8406 0
    endloop
  endfacet
  facet normal -0.509042 0.860742 0
    outer loop
      vertex -10.3577 18.8406 0
      vertex -11.5203 18.153 3
      vertex -10.3577 18.8406 3
    endloop
  endfacet
  facet normal -0.509042 0.860742 0
    outer loop
      vertex -11.5203 18.153 3
      vertex -10.3577 18.8406 0
      vertex -11.5203 18.153 0
    endloop
  endfacet
  facet normal 0.338738 -0.940881 0
    outer loop
      vertex 6.64386 -20.4477 0
      vertex 7.91468 -19.9902 3
      vertex 6.64386 -20.4477 3
    endloop
  endfacet
  facet normal 0.338738 -0.940881 0
    outer loop
      vertex 7.91468 -19.9902 3
      vertex 6.64386 -20.4477 0
      vertex 7.91468 -19.9902 0
    endloop
  endfacet
  facet normal 0.612906 -0.790156 0
    outer loop
      vertex 12.6374 -17.3939 0
      vertex 13.7046 -16.566 3
      vertex 12.6374 -17.3939 3
    endloop
  endfacet
  facet normal 0.612906 -0.790156 0
    outer loop
      vertex 13.7046 -16.566 3
      vertex 12.6374 -17.3939 0
      vertex 13.7046 -16.566 0
    endloop
  endfacet
  facet normal 0.509042 -0.860742 0
    outer loop
      vertex 10.3577 -18.8406 0
      vertex 11.5203 -18.153 3
      vertex 10.3577 -18.8406 3
    endloop
  endfacet
  facet normal 0.509042 -0.860742 0
    outer loop
      vertex 11.5203 -18.153 3
      vertex 10.3577 -18.8406 0
      vertex 11.5203 -18.153 0
    endloop
  endfacet
  facet normal 0.750111 -0.661312 0
    outer loop
      vertex 15.6728 -14.7178 3
      vertex 16.566 -13.7046 0
      vertex 16.566 -13.7046 3
    endloop
  endfacet
  facet normal 0.750111 -0.661312 0
    outer loop
      vertex 16.566 -13.7046 0
      vertex 15.6728 -14.7178 3
      vertex 15.6728 -14.7178 0
    endloop
  endfacet
  facet normal 0.917754 -0.397148 0
    outer loop
      vertex 19.4538 -9.15425 3
      vertex 19.9902 -7.91468 0
      vertex 19.9902 -7.91468 3
    endloop
  endfacet
  facet normal 0.917754 -0.397148 0
    outer loop
      vertex 19.9902 -7.91468 0
      vertex 19.4538 -9.15425 3
      vertex 19.4538 -9.15425 0
    endloop
  endfacet
  facet normal -0.397148 -0.917754 0
    outer loop
      vertex -9.15425 -19.4538 0
      vertex -7.91468 -19.9902 3
      vertex -9.15425 -19.4538 3
    endloop
  endfacet
  facet normal -0.397148 -0.917754 -0
    outer loop
      vertex -7.91468 -19.9902 3
      vertex -9.15425 -19.4538 0
      vertex -7.91468 -19.9902 0
    endloop
  endfacet
  facet normal -0.156435 -0.987688 0
    outer loop
      vertex -4.0287 -21.1192 0
      vertex -2.69466 -21.3305 3
      vertex -4.0287 -21.1192 3
    endloop
  endfacet
  facet normal -0.156435 -0.987688 -0
    outer loop
      vertex -2.69466 -21.3305 3
      vertex -4.0287 -21.1192 0
      vertex -2.69466 -21.3305 0
    endloop
  endfacet
  facet normal -0.860742 -0.509042 0
    outer loop
      vertex -18.153 -11.5203 0
      vertex -18.8406 -10.3577 3
      vertex -18.8406 -10.3577 0
    endloop
  endfacet
  facet normal -0.860742 -0.509042 0
    outer loop
      vertex -18.8406 -10.3577 3
      vertex -18.153 -11.5203 0
      vertex -18.153 -11.5203 3
    endloop
  endfacet
  facet normal -0.940881 -0.338738 0
    outer loop
      vertex -19.9902 -7.91468 0
      vertex -20.4477 -6.64386 3
      vertex -20.4477 -6.64386 0
    endloop
  endfacet
  facet normal -0.940881 -0.338738 0
    outer loop
      vertex -20.4477 -6.64386 3
      vertex -19.9902 -7.91468 0
      vertex -19.9902 -7.91468 3
    endloop
  endfacet
  facet normal -0.999507 -0.031412 0
    outer loop
      vertex -21.4576 -1.35 0
      vertex -21.5 0 3
      vertex -21.5 0 0
    endloop
  endfacet
  facet normal -0.999507 -0.031412 0
    outer loop
      vertex -21.5 0 3
      vertex -21.4576 -1.35 0
      vertex -21.4576 -1.35 3
    endloop
  endfacet
  facet normal 0.975917 0.218143 0
    outer loop
      vertex 21.1192 4.0287 3
      vertex 20.8245 5.34683 0
      vertex 20.8245 5.34683 3
    endloop
  endfacet
  facet normal 0.975917 0.218143 0
    outer loop
      vertex 20.8245 5.34683 0
      vertex 21.1192 4.0287 3
      vertex 21.1192 4.0287 0
    endloop
  endfacet
  facet normal 0.940881 0.338738 0
    outer loop
      vertex 20.4477 6.64386 3
      vertex 19.9902 7.91468 0
      vertex 19.9902 7.91468 3
    endloop
  endfacet
  facet normal 0.940881 0.338738 0
    outer loop
      vertex 19.9902 7.91468 0
      vertex 20.4477 6.64386 3
      vertex 20.4477 6.64386 0
    endloop
  endfacet
  facet normal 0.750111 0.661312 0
    outer loop
      vertex 16.566 13.7046 3
      vertex 15.6728 14.7178 0
      vertex 15.6728 14.7178 3
    endloop
  endfacet
  facet normal 0.750111 0.661312 0
    outer loop
      vertex 15.6728 14.7178 0
      vertex 16.566 13.7046 3
      vertex 16.566 13.7046 0
    endloop
  endfacet
  facet normal 0.82708 0.562084 0
    outer loop
      vertex 18.153 11.5203 3
      vertex 17.3939 12.6374 0
      vertex 17.3939 12.6374 3
    endloop
  endfacet
  facet normal 0.82708 0.562084 0
    outer loop
      vertex 17.3939 12.6374 0
      vertex 18.153 11.5203 3
      vertex 18.153 11.5203 0
    endloop
  endfacet
  facet normal 0.338738 0.940881 -0
    outer loop
      vertex 7.91468 19.9902 0
      vertex 6.64386 20.4477 3
      vertex 7.91468 19.9902 3
    endloop
  endfacet
  facet normal 0.338738 0.940881 0
    outer loop
      vertex 6.64386 20.4477 3
      vertex 7.91468 19.9902 0
      vertex 6.64386 20.4477 0
    endloop
  endfacet
  facet normal 0.397148 0.917754 -0
    outer loop
      vertex 9.15425 19.4538 0
      vertex 7.91468 19.9902 3
      vertex 9.15425 19.4538 3
    endloop
  endfacet
  facet normal 0.397148 0.917754 0
    outer loop
      vertex 7.91468 19.9902 3
      vertex 9.15425 19.4538 0
      vertex 7.91468 19.9902 0
    endloop
  endfacet
  facet normal 0.45399 0.891007 -0
    outer loop
      vertex 10.3577 18.8406 0
      vertex 9.15425 19.4538 3
      vertex 10.3577 18.8406 3
    endloop
  endfacet
  facet normal 0.45399 0.891007 0
    outer loop
      vertex 9.15425 19.4538 3
      vertex 10.3577 18.8406 0
      vertex 9.15425 19.4538 0
    endloop
  endfacet
  facet normal 0.562084 0.82708 -0
    outer loop
      vertex 12.6374 17.3939 0
      vertex 11.5203 18.153 3
      vertex 12.6374 17.3939 3
    endloop
  endfacet
  facet normal 0.562084 0.82708 0
    outer loop
      vertex 11.5203 18.153 3
      vertex 12.6374 17.3939 0
      vertex 11.5203 18.153 0
    endloop
  endfacet
  facet normal 0.612906 0.790156 -0
    outer loop
      vertex 13.7046 16.566 0
      vertex 12.6374 17.3939 3
      vertex 13.7046 16.566 3
    endloop
  endfacet
  facet normal 0.612906 0.790156 0
    outer loop
      vertex 12.6374 17.3939 3
      vertex 13.7046 16.566 0
      vertex 12.6374 17.3939 0
    endloop
  endfacet
  facet normal -0.707107 0.707107 0
    outer loop
      vertex -15.6728 14.7178 0
      vertex -14.7178 15.6728 3
      vertex -14.7178 15.6728 0
    endloop
  endfacet
  facet normal -0.707107 0.707107 0
    outer loop
      vertex -14.7178 15.6728 3
      vertex -15.6728 14.7178 0
      vertex -15.6728 14.7178 3
    endloop
  endfacet
  facet normal -0.917754 0.397148 0
    outer loop
      vertex -19.9902 7.91468 0
      vertex -19.4538 9.15425 3
      vertex -19.4538 9.15425 0
    endloop
  endfacet
  facet normal -0.917754 0.397148 0
    outer loop
      vertex -19.4538 9.15425 3
      vertex -19.9902 7.91468 0
      vertex -19.9902 7.91468 3
    endloop
  endfacet
  facet normal -0.940881 0.338738 0
    outer loop
      vertex -20.4477 6.64386 0
      vertex -19.9902 7.91468 3
      vertex -19.9902 7.91468 0
    endloop
  endfacet
  facet normal -0.940881 0.338738 0
    outer loop
      vertex -19.9902 7.91468 3
      vertex -20.4477 6.64386 0
      vertex -20.4477 6.64386 3
    endloop
  endfacet
  facet normal -0.995562 0.0941076 0
    outer loop
      vertex -21.4576 1.35 0
      vertex -21.3305 2.69466 3
      vertex -21.3305 2.69466 0
    endloop
  endfacet
  facet normal -0.995562 0.0941076 0
    outer loop
      vertex -21.3305 2.69466 3
      vertex -21.4576 1.35 0
      vertex -21.4576 1.35 3
    endloop
  endfacet
  facet normal 0 0 1
    outer loop
      vertex -6.15 20.5912 3
      vertex -6.64386 20.4477 3
      vertex -6.15 -9.5 3
    endloop
  endfacet
  facet normal 0 0 1
    outer loop
      vertex 6.15 -9.5 3
      vertex 21.5 0 3
      vertex 21.4576 1.35 3
    endloop
  endfacet
  facet normal 0 0 1
    outer loop
      vertex 6.15 -9.5 3
      vertex 21.4576 1.35 3
      vertex 21.3305 2.69466 3
    endloop
  endfacet
  facet normal 0 0 1
    outer loop
      vertex 21.5 0 3
      vertex 6.15 -9.5 3
      vertex 21.4576 -1.35 3
    endloop
  endfacet
  facet normal 0 0 1
    outer loop
      vertex 6.15 -9.5 3
      vertex 21.3305 2.69466 3
      vertex 21.1192 4.0287 3
    endloop
  endfacet
  facet normal 0 0 1
    outer loop
      vertex 21.4576 -1.35 3
      vertex 6.15 -9.5 3
      vertex 21.3305 -2.69466 3
    endloop
  endfacet
  facet normal 0 0 1
    outer loop
      vertex 6.15 -9.5 3
      vertex 21.1192 4.0287 3
      vertex 20.8245 5.34683 3
    endloop
  endfacet
  facet normal 0 0 1
    outer loop
      vertex 21.3305 -2.69466 3
      vertex 6.15 -9.5 3
      vertex 21.1192 -4.0287 3
    endloop
  endfacet
  facet normal 0 0 1
    outer loop
      vertex 6.15 -9.5 3
      vertex 20.8245 5.34683 3
      vertex 20.4477 6.64386 3
    endloop
  endfacet
  facet normal 0 0 1
    outer loop
      vertex 21.1192 -4.0287 3
      vertex 6.15 -9.5 3
      vertex 20.8245 -5.34683 3
    endloop
  endfacet
  facet normal 0 0 1
    outer loop
      vertex 6.15 -9.5 3
      vertex 20.4477 6.64386 3
      vertex 19.9902 7.91468 3
    endloop
  endfacet
  facet normal 0 0 1
    outer loop
      vertex 20.8245 -5.34683 3
      vertex 6.15 -9.5 3
      vertex 20.4477 -6.64386 3
    endloop
  endfacet
  facet normal 0 0 1
    outer loop
      vertex 6.15 -9.5 3
      vertex 19.9902 7.91468 3
      vertex 19.4538 9.15425 3
    endloop
  endfacet
  facet normal 0 0 1
    outer loop
      vertex 20.4477 -6.64386 3
      vertex 6.15 -9.5 3
      vertex 19.9902 -7.91468 3
    endloop
  endfacet
  facet normal 0 0 1
    outer loop
      vertex 6.15 -9.5 3
      vertex 19.4538 9.15425 3
      vertex 18.8406 10.3577 3
    endloop
  endfacet
  facet normal 0 0 1
    outer loop
      vertex 19.9902 -7.91468 3
      vertex 6.15 -9.5 3
      vertex 19.4538 -9.15425 3
    endloop
  endfacet
  facet normal 0 0 1
    outer loop
      vertex 6.15 -9.5 3
      vertex 18.8406 10.3577 3
      vertex 18.153 11.5203 3
    endloop
  endfacet
  facet normal 0 0 1
    outer loop
      vertex 19.4538 -9.15425 3
      vertex 6.15 -9.5 3
      vertex 18.8406 -10.3577 3
    endloop
  endfacet
  facet normal 0 0 1
    outer loop
      vertex 6.15 -9.5 3
      vertex 18.153 11.5203 3
      vertex 17.3939 12.6374 3
    endloop
  endfacet
  facet normal 0 0 1
    outer loop
      vertex 18.8406 -10.3577 3
      vertex 6.15 -9.5 3
      vertex 18.153 -11.5203 3
    endloop
  endfacet
  facet normal 0 0 1
    outer loop
      vertex 6.15 -9.5 3
      vertex 17.3939 12.6374 3
      vertex 16.566 13.7046 3
    endloop
  endfacet
  facet normal 0 0 1
    outer loop
      vertex 18.153 -11.5203 3
      vertex 6.15 -9.5 3
      vertex 17.3939 -12.6374 3
    endloop
  endfacet
  facet normal 0 0 1
    outer loop
      vertex 6.15 -9.5 3
      vertex 16.566 13.7046 3
      vertex 15.6728 14.7178 3
    endloop
  endfacet
  facet normal 0 0 1
    outer loop
      vertex 17.3939 -12.6374 3
      vertex 6.15 -9.5 3
      vertex 16.566 -13.7046 3
    endloop
  endfacet
  facet normal 0 0 1
    outer loop
      vertex 6.15 -9.5 3
      vertex 15.6728 14.7178 3
      vertex 14.7178 15.6728 3
    endloop
  endfacet
  facet normal 0 0 1
    outer loop
      vertex 16.566 -13.7046 3
      vertex 6.15 -9.5 3
      vertex 15.6728 -14.7178 3
    endloop
  endfacet
  facet normal 0 0 1
    outer loop
      vertex 6.15 -9.5 3
      vertex 14.7178 15.6728 3
      vertex 13.7046 16.566 3
    endloop
  endfacet
  facet normal 0 0 1
    outer loop
      vertex 15.6728 -14.7178 3
      vertex 6.15 -9.5 3
      vertex 14.7178 -15.6728 3
    endloop
  endfacet
  facet normal 0 0 1
    outer loop
      vertex 6.15 -9.5 3
      vertex 13.7046 16.566 3
      vertex 12.6374 17.3939 3
    endloop
  endfacet
  facet normal 0 0 1
    outer loop
      vertex 14.7178 -15.6728 3
      vertex 6.15 -9.5 3
      vertex 13.7046 -16.566 3
    endloop
  endfacet
  facet normal 0 0 1
    outer loop
      vertex 6.15 -9.5 3
      vertex 12.6374 17.3939 3
      vertex 11.5203 18.153 3
    endloop
  endfacet
  facet normal 0 0 1
    outer loop
      vertex 13.7046 -16.566 3
      vertex 6.15 -9.5 3
      vertex 12.6374 -17.3939 3
    endloop
  endfacet
  facet normal 0 0 1
    outer loop
      vertex 6.15 -9.5 3
      vertex 11.5203 18.153 3
      vertex 10.3577 18.8406 3
    endloop
  endfacet
  facet normal 0 0 1
    outer loop
      vertex 12.6374 -17.3939 3
      vertex 6.15 -9.5 3
      vertex 11.5203 -18.153 3
    endloop
  endfacet
  facet normal 0 0 1
    outer loop
      vertex 6.15 -9.5 3
      vertex 10.3577 18.8406 3
      vertex 9.15425 19.4538 3
    endloop
  endfacet
  facet normal 0 0 1
    outer loop
      vertex 11.5203 -18.153 3
      vertex 6.15 -9.5 3
      vertex 10.3577 -18.8406 3
    endloop
  endfacet
  facet normal 0 0 1
    outer loop
      vertex 6.15 -9.5 3
      vertex 9.15425 19.4538 3
      vertex 7.91468 19.9902 3
    endloop
  endfacet
  facet normal 0 0 1
    outer loop
      vertex 10.3577 -18.8406 3
      vertex 6.15 -9.5 3
      vertex 9.15425 -19.4538 3
    endloop
  endfacet
  facet normal 0 0 1
    outer loop
      vertex 6.15 -9.5 3
      vertex 7.91468 19.9902 3
      vertex 6.64386 20.4477 3
    endloop
  endfacet
  facet normal 0 0 1
    outer loop
      vertex 9.15425 -19.4538 3
      vertex 6.15 -9.5 3
      vertex 7.91468 -19.9902 3
    endloop
  endfacet
  facet normal 0 0 1
    outer loop
      vertex 6.15 -9.5 3
      vertex 6.64386 20.4477 3
      vertex 6.15 20.5912 3
    endloop
  endfacet
  facet normal 0 0 1
    outer loop
      vertex 7.91468 -19.9902 3
      vertex 6.15 -9.5 3
      vertex 6.64386 -20.4477 3
    endloop
  endfacet
  facet normal 0 0 1
    outer loop
      vertex 6.15 -9.5 3
      vertex 5.34683 -20.8245 3
      vertex 6.64386 -20.4477 3
    endloop
  endfacet
  facet normal 0 0 1
    outer loop
      vertex 6.15 -9.5 3
      vertex 4.0287 -21.1192 3
      vertex 5.34683 -20.8245 3
    endloop
  endfacet
  facet normal 0 0 1
    outer loop
      vertex 6.15 -9.5 3
      vertex 2.69466 -21.3305 3
      vertex 4.0287 -21.1192 3
    endloop
  endfacet
  facet normal 0 0 1
    outer loop
      vertex 6.15 -9.5 3
      vertex 1.35 -21.4576 3
      vertex 2.69466 -21.3305 3
    endloop
  endfacet
  facet normal 0 0 1
    outer loop
      vertex 6.15 -9.5 3
      vertex 0 -21.5 3
      vertex 1.35 -21.4576 3
    endloop
  endfacet
  facet normal -0 0 1
    outer loop
      vertex -6.15 -9.5 3
      vertex 0 -21.5 3
      vertex 6.15 -9.5 3
    endloop
  endfacet
  facet normal 0 0 1
    outer loop
      vertex 0 -21.5 3
      vertex -6.15 -9.5 3
      vertex -1.35 -21.4576 3
    endloop
  endfacet
  facet normal 0 0 1
    outer loop
      vertex -1.35 -21.4576 3
      vertex -6.15 -9.5 3
      vertex -2.69466 -21.3305 3
    endloop
  endfacet
  facet normal 0 0 1
    outer loop
      vertex -2.69466 -21.3305 3
      vertex -6.15 -9.5 3
      vertex -4.0287 -21.1192 3
    endloop
  endfacet
  facet normal 0 0 1
    outer loop
      vertex -4.0287 -21.1192 3
      vertex -6.15 -9.5 3
      vertex -5.34683 -20.8245 3
    endloop
  endfacet
  facet normal 0 0 1
    outer loop
      vertex -6.15 -9.5 3
      vertex -6.64386 -20.4477 3
      vertex -5.34683 -20.8245 3
    endloop
  endfacet
  facet normal -0 0 1
    outer loop
      vertex -7.91468 19.9902 3
      vertex -6.15 -9.5 3
      vertex -6.64386 20.4477 3
    endloop
  endfacet
  facet normal -0 0 1
    outer loop
      vertex -9.15425 19.4538 3
      vertex -6.15 -9.5 3
      vertex -7.91468 19.9902 3
    endloop
  endfacet
  facet normal 0 0 1
    outer loop
      vertex -6.15 -9.5 3
      vertex -7.91468 -19.9902 3
      vertex -6.64386 -20.4477 3
    endloop
  endfacet
  facet normal -0 0 1
    outer loop
      vertex -10.3577 18.8406 3
      vertex -6.15 -9.5 3
      vertex -9.15425 19.4538 3
    endloop
  endfacet
  facet normal 0 0 1
    outer loop
      vertex -6.15 -9.5 3
      vertex -9.15425 -19.4538 3
      vertex -7.91468 -19.9902 3
    endloop
  endfacet
  facet normal -0 0 1
    outer loop
      vertex -11.5203 18.153 3
      vertex -6.15 -9.5 3
      vertex -10.3577 18.8406 3
    endloop
  endfacet
  facet normal 0 0 1
    outer loop
      vertex -6.15 -9.5 3
      vertex -10.3577 -18.8406 3
      vertex -9.15425 -19.4538 3
    endloop
  endfacet
  facet normal -0 0 1
    outer loop
      vertex -12.6374 17.3939 3
      vertex -6.15 -9.5 3
      vertex -11.5203 18.153 3
    endloop
  endfacet
  facet normal 0 0 1
    outer loop
      vertex -6.15 -9.5 3
      vertex -11.5203 -18.153 3
      vertex -10.3577 -18.8406 3
    endloop
  endfacet
  facet normal -0 0 1
    outer loop
      vertex -13.7046 16.566 3
      vertex -6.15 -9.5 3
      vertex -12.6374 17.3939 3
    endloop
  endfacet
  facet normal 0 0 1
    outer loop
      vertex -6.15 -9.5 3
      vertex -12.6374 -17.3939 3
      vertex -11.5203 -18.153 3
    endloop
  endfacet
  facet normal -0 0 1
    outer loop
      vertex -14.7178 15.6728 3
      vertex -6.15 -9.5 3
      vertex -13.7046 16.566 3
    endloop
  endfacet
  facet normal 0 0 1
    outer loop
      vertex -6.15 -9.5 3
      vertex -13.7046 -16.566 3
      vertex -12.6374 -17.3939 3
    endloop
  endfacet
  facet normal -0 0 1
    outer loop
      vertex -15.6728 14.7178 3
      vertex -6.15 -9.5 3
      vertex -14.7178 15.6728 3
    endloop
  endfacet
  facet normal 0 0 1
    outer loop
      vertex -6.15 -9.5 3
      vertex -14.7178 -15.6728 3
      vertex -13.7046 -16.566 3
    endloop
  endfacet
  facet normal -0 0 1
    outer loop
      vertex -16.566 13.7046 3
      vertex -6.15 -9.5 3
      vertex -15.6728 14.7178 3
    endloop
  endfacet
  facet normal 0 0 1
    outer loop
      vertex -6.15 -9.5 3
      vertex -15.6728 -14.7178 3
      vertex -14.7178 -15.6728 3
    endloop
  endfacet
  facet normal -0 0 1
    outer loop
      vertex -17.3939 12.6374 3
      vertex -6.15 -9.5 3
      vertex -16.566 13.7046 3
    endloop
  endfacet
  facet normal 0 0 1
    outer loop
      vertex -6.15 -9.5 3
      vertex -16.566 -13.7046 3
      vertex -15.6728 -14.7178 3
    endloop
  endfacet
  facet normal -0 0 1
    outer loop
      vertex -18.153 11.5203 3
      vertex -6.15 -9.5 3
      vertex -17.3939 12.6374 3
    endloop
  endfacet
  facet normal 0 0 1
    outer loop
      vertex -6.15 -9.5 3
      vertex -17.3939 -12.6374 3
      vertex -16.566 -13.7046 3
    endloop
  endfacet
  facet normal -0 0 1
    outer loop
      vertex -18.8406 10.3577 3
      vertex -6.15 -9.5 3
      vertex -18.153 11.5203 3
    endloop
  endfacet
  facet normal 0 0 1
    outer loop
      vertex -6.15 -9.5 3
      vertex -18.153 -11.5203 3
      vertex -17.3939 -12.6374 3
    endloop
  endfacet
  facet normal -0 0 1
    outer loop
      vertex -19.4538 9.15425 3
      vertex -6.15 -9.5 3
      vertex -18.8406 10.3577 3
    endloop
  endfacet
  facet normal 0 0 1
    outer loop
      vertex -6.15 -9.5 3
      vertex -18.8406 -10.3577 3
      vertex -18.153 -11.5203 3
    endloop
  endfacet
  facet normal -0 0 1
    outer loop
      vertex -19.9902 7.91468 3
      vertex -6.15 -9.5 3
      vertex -19.4538 9.15425 3
    endloop
  endfacet
  facet normal 0 0 1
    outer loop
      vertex -6.15 -9.5 3
      vertex -19.4538 -9.15425 3
      vertex -18.8406 -10.3577 3
    endloop
  endfacet
  facet normal -0 0 1
    outer loop
      vertex -20.4477 6.64386 3
      vertex -6.15 -9.5 3
      vertex -19.9902 7.91468 3
    endloop
  endfacet
  facet normal 0 0 1
    outer loop
      vertex -6.15 -9.5 3
      vertex -19.9902 -7.91468 3
      vertex -19.4538 -9.15425 3
    endloop
  endfacet
  facet normal -0 0 1
    outer loop
      vertex -20.8245 5.34683 3
      vertex -6.15 -9.5 3
      vertex -20.4477 6.64386 3
    endloop
  endfacet
  facet normal 0 0 1
    outer loop
      vertex -6.15 -9.5 3
      vertex -20.4477 -6.64386 3
      vertex -19.9902 -7.91468 3
    endloop
  endfacet
  facet normal -0 0 1
    outer loop
      vertex -21.1192 4.0287 3
      vertex -6.15 -9.5 3
      vertex -20.8245 5.34683 3
    endloop
  endfacet
  facet normal 0 0 1
    outer loop
      vertex -6.15 -9.5 3
      vertex -20.8245 -5.34683 3
      vertex -20.4477 -6.64386 3
    endloop
  endfacet
  facet normal -0 0 1
    outer loop
      vertex -21.3305 2.69466 3
      vertex -6.15 -9.5 3
      vertex -21.1192 4.0287 3
    endloop
  endfacet
  facet normal 0 0 1
    outer loop
      vertex -6.15 -9.5 3
      vertex -21.1192 -4.0287 3
      vertex -20.8245 -5.34683 3
    endloop
  endfacet
  facet normal -0 0 1
    outer loop
      vertex -21.4576 1.35 3
      vertex -6.15 -9.5 3
      vertex -21.3305 2.69466 3
    endloop
  endfacet
  facet normal 0 0 1
    outer loop
      vertex -6.15 -9.5 3
      vertex -21.3305 -2.69466 3
      vertex -21.1192 -4.0287 3
    endloop
  endfacet
  facet normal -0 0 1
    outer loop
      vertex -21.5 0 3
      vertex -6.15 -9.5 3
      vertex -21.4576 1.35 3
    endloop
  endfacet
  facet normal 0 0 1
    outer loop
      vertex -6.15 -9.5 3
      vertex -21.4576 -1.35 3
      vertex -21.3305 -2.69466 3
    endloop
  endfacet
  facet normal 0 0 1
    outer loop
      vertex -6.15 -9.5 3
      vertex -21.5 0 3
      vertex -21.4576 -1.35 3
    endloop
  endfacet
  facet normal -0.562084 0.82708 0
    outer loop
      vertex -11.5203 18.153 0
      vertex -12.6374 17.3939 3
      vertex -11.5203 18.153 3
    endloop
  endfacet
  facet normal -0.562084 0.82708 0
    outer loop
      vertex -12.6374 17.3939 3
      vertex -11.5203 18.153 0
      vertex -12.6374 17.3939 0
    endloop
  endfacet
  facet normal -0.612906 0.790156 0
    outer loop
      vertex -12.6374 17.3939 0
      vertex -13.7046 16.566 3
      vertex -12.6374 17.3939 3
    endloop
  endfacet
  facet normal -0.612906 0.790156 0
    outer loop
      vertex -13.7046 16.566 3
      vertex -12.6374 17.3939 0
      vertex -13.7046 16.566 0
    endloop
  endfacet
  facet normal -0.338738 0.940881 0
    outer loop
      vertex -6.64386 20.4477 0
      vertex -7.91468 19.9902 3
      vertex -6.64386 20.4477 3
    endloop
  endfacet
  facet normal -0.338738 0.940881 0
    outer loop
      vertex -7.91468 19.9902 3
      vertex -6.64386 20.4477 0
      vertex -7.91468 19.9902 0
    endloop
  endfacet
  facet normal -0.27899 0.960294 0
    outer loop
      vertex -6.15 20.5912 0
      vertex -6.64386 20.4477 3
      vertex -6.15 20.5912 3
    endloop
  endfacet
  facet normal -0.27899 0.960294 0
    outer loop
      vertex -6.64386 20.4477 3
      vertex -6.15 20.5912 0
      vertex -6.64386 20.4477 0
    endloop
  endfacet
  facet normal 0.031412 -0.999507 0
    outer loop
      vertex 0 -21.5 0
      vertex 1.35 -21.4576 3
      vertex 0 -21.5 3
    endloop
  endfacet
  facet normal 0.031412 -0.999507 0
    outer loop
      vertex 1.35 -21.4576 3
      vertex 0 -21.5 0
      vertex 1.35 -21.4576 0
    endloop
  endfacet
  facet normal 0.156435 -0.987688 0
    outer loop
      vertex 2.69466 -21.3305 0
      vertex 4.0287 -21.1192 3
      vertex 2.69466 -21.3305 3
    endloop
  endfacet
  facet normal 0.156435 -0.987688 0
    outer loop
      vertex 4.0287 -21.1192 3
      vertex 2.69466 -21.3305 0
      vertex 4.0287 -21.1192 0
    endloop
  endfacet
  facet normal 0.27899 -0.960294 0
    outer loop
      vertex 5.34683 -20.8245 0
      vertex 6.64386 -20.4477 3
      vertex 5.34683 -20.8245 3
    endloop
  endfacet
  facet normal 0.27899 -0.960294 0
    outer loop
      vertex 6.64386 -20.4477 3
      vertex 5.34683 -20.8245 0
      vertex 6.64386 -20.4477 0
    endloop
  endfacet
  facet normal 0.661312 -0.750111 0
    outer loop
      vertex 13.7046 -16.566 0
      vertex 14.7178 -15.6728 3
      vertex 13.7046 -16.566 3
    endloop
  endfacet
  facet normal 0.661312 -0.750111 0
    outer loop
      vertex 14.7178 -15.6728 3
      vertex 13.7046 -16.566 0
      vertex 14.7178 -15.6728 0
    endloop
  endfacet
  facet normal 0.397148 -0.917754 0
    outer loop
      vertex 7.91468 -19.9902 0
      vertex 9.15425 -19.4538 3
      vertex 7.91468 -19.9902 3
    endloop
  endfacet
  facet normal 0.397148 -0.917754 0
    outer loop
      vertex 9.15425 -19.4538 3
      vertex 7.91468 -19.9902 0
      vertex 9.15425 -19.4538 0
    endloop
  endfacet
  facet normal 0.891007 -0.45399 0
    outer loop
      vertex 18.8406 -10.3577 3
      vertex 19.4538 -9.15425 0
      vertex 19.4538 -9.15425 3
    endloop
  endfacet
  facet normal 0.891007 -0.45399 0
    outer loop
      vertex 19.4538 -9.15425 0
      vertex 18.8406 -10.3577 3
      vertex 18.8406 -10.3577 0
    endloop
  endfacet
  facet normal 0.940881 -0.338738 0
    outer loop
      vertex 19.9902 -7.91468 3
      vertex 20.4477 -6.64386 0
      vertex 20.4477 -6.64386 3
    endloop
  endfacet
  facet normal 0.940881 -0.338738 0
    outer loop
      vertex 20.4477 -6.64386 0
      vertex 19.9902 -7.91468 3
      vertex 19.9902 -7.91468 0
    endloop
  endfacet
  facet normal -0.612906 -0.790156 0
    outer loop
      vertex -13.7046 -16.566 0
      vertex -12.6374 -17.3939 3
      vertex -13.7046 -16.566 3
    endloop
  endfacet
  facet normal -0.612906 -0.790156 -0
    outer loop
      vertex -12.6374 -17.3939 3
      vertex -13.7046 -16.566 0
      vertex -12.6374 -17.3939 0
    endloop
  endfacet
  facet normal -0.707107 -0.707107 0
    outer loop
      vertex -14.7178 -15.6728 0
      vertex -15.6728 -14.7178 3
      vertex -15.6728 -14.7178 0
    endloop
  endfacet
  facet normal -0.707107 -0.707107 0
    outer loop
      vertex -15.6728 -14.7178 3
      vertex -14.7178 -15.6728 0
      vertex -14.7178 -15.6728 3
    endloop
  endfacet
  facet normal -0.661312 -0.750111 0
    outer loop
      vertex -14.7178 -15.6728 0
      vertex -13.7046 -16.566 3
      vertex -14.7178 -15.6728 3
    endloop
  endfacet
  facet normal -0.661312 -0.750111 -0
    outer loop
      vertex -13.7046 -16.566 3
      vertex -14.7178 -15.6728 0
      vertex -13.7046 -16.566 0
    endloop
  endfacet
  facet normal -0.562084 -0.82708 0
    outer loop
      vertex -12.6374 -17.3939 0
      vertex -11.5203 -18.153 3
      vertex -12.6374 -17.3939 3
    endloop
  endfacet
  facet normal -0.562084 -0.82708 -0
    outer loop
      vertex -11.5203 -18.153 3
      vertex -12.6374 -17.3939 0
      vertex -11.5203 -18.153 0
    endloop
  endfacet
  facet normal -0.45399 -0.891007 0
    outer loop
      vertex -10.3577 -18.8406 0
      vertex -9.15425 -19.4538 3
      vertex -10.3577 -18.8406 3
    endloop
  endfacet
  facet normal -0.45399 -0.891007 -0
    outer loop
      vertex -9.15425 -19.4538 3
      vertex -10.3577 -18.8406 0
      vertex -9.15425 -19.4538 0
    endloop
  endfacet
  facet normal -0.218143 -0.975917 0
    outer loop
      vertex -5.34683 -20.8245 0
      vertex -4.0287 -21.1192 3
      vertex -5.34683 -20.8245 3
    endloop
  endfacet
  facet normal -0.218143 -0.975917 -0
    outer loop
      vertex -4.0287 -21.1192 3
      vertex -5.34683 -20.8245 0
      vertex -4.0287 -21.1192 0
    endloop
  endfacet
  facet normal -0.27899 -0.960294 0
    outer loop
      vertex -6.64386 -20.4477 0
      vertex -5.34683 -20.8245 3
      vertex -6.64386 -20.4477 3
    endloop
  endfacet
  facet normal -0.27899 -0.960294 -0
    outer loop
      vertex -5.34683 -20.8245 3
      vertex -6.64386 -20.4477 0
      vertex -5.34683 -20.8245 0
    endloop
  endfacet
  facet normal -0.0941076 -0.995562 0
    outer loop
      vertex -2.69466 -21.3305 0
      vertex -1.35 -21.4576 3
      vertex -2.69466 -21.3305 3
    endloop
  endfacet
  facet normal -0.0941076 -0.995562 -0
    outer loop
      vertex -1.35 -21.4576 3
      vertex -2.69466 -21.3305 0
      vertex -1.35 -21.4576 0
    endloop
  endfacet
  facet normal -0.917754 -0.397148 0
    outer loop
      vertex -19.4538 -9.15425 0
      vertex -19.9902 -7.91468 3
      vertex -19.9902 -7.91468 0
    endloop
  endfacet
  facet normal -0.917754 -0.397148 0
    outer loop
      vertex -19.9902 -7.91468 3
      vertex -19.4538 -9.15425 0
      vertex -19.4538 -9.15425 3
    endloop
  endfacet
  facet normal -0.82708 -0.562084 0
    outer loop
      vertex -17.3939 -12.6374 0
      vertex -18.153 -11.5203 3
      vertex -18.153 -11.5203 0
    endloop
  endfacet
  facet normal -0.82708 -0.562084 0
    outer loop
      vertex -18.153 -11.5203 3
      vertex -17.3939 -12.6374 0
      vertex -17.3939 -12.6374 3
    endloop
  endfacet
  facet normal -0.891007 -0.45399 0
    outer loop
      vertex -18.8406 -10.3577 0
      vertex -19.4538 -9.15425 3
      vertex -19.4538 -9.15425 0
    endloop
  endfacet
  facet normal -0.891007 -0.45399 0
    outer loop
      vertex -19.4538 -9.15425 3
      vertex -18.8406 -10.3577 0
      vertex -18.8406 -10.3577 3
    endloop
  endfacet
  facet normal -0.960294 -0.27899 0
    outer loop
      vertex -20.4477 -6.64386 0
      vertex -20.8245 -5.34683 3
      vertex -20.8245 -5.34683 0
    endloop
  endfacet
  facet normal -0.960294 -0.27899 0
    outer loop
      vertex -20.8245 -5.34683 3
      vertex -20.4477 -6.64386 0
      vertex -20.4477 -6.64386 3
    endloop
  endfacet
  facet normal -0.987688 -0.156435 0
    outer loop
      vertex -21.1192 -4.0287 0
      vertex -21.3305 -2.69466 3
      vertex -21.3305 -2.69466 0
    endloop
  endfacet
  facet normal -0.987688 -0.156435 0
    outer loop
      vertex -21.3305 -2.69466 3
      vertex -21.1192 -4.0287 0
      vertex -21.1192 -4.0287 3
    endloop
  endfacet
  facet normal 0 0 -1
    outer loop
      vertex 6.15 -9.5 0
      vertex 21.5 0 0
      vertex 21.4576 -1.35 0
    endloop
  endfacet
  facet normal 0 0 -1
    outer loop
      vertex 6.15 -9.5 0
      vertex 21.4576 -1.35 0
      vertex 21.3305 -2.69466 0
    endloop
  endfacet
  facet normal -0 0 -1
    outer loop
      vertex 21.5 0 0
      vertex 6.15 -9.5 0
      vertex 21.4576 1.35 0
    endloop
  endfacet
  facet normal 0 0 -1
    outer loop
      vertex 6.15 -9.5 0
      vertex 21.3305 -2.69466 0
      vertex 21.1192 -4.0287 0
    endloop
  endfacet
  facet normal -0 0 -1
    outer loop
      vertex 21.4576 1.35 0
      vertex 6.15 -9.5 0
      vertex 21.3305 2.69466 0
    endloop
  endfacet
  facet normal 0 0 -1
    outer loop
      vertex 6.15 -9.5 0
      vertex 21.1192 -4.0287 0
      vertex 20.8245 -5.34683 0
    endloop
  endfacet
  facet normal -0 0 -1
    outer loop
      vertex 21.3305 2.69466 0
      vertex 6.15 -9.5 0
      vertex 21.1192 4.0287 0
    endloop
  endfacet
  facet normal 0 0 -1
    outer loop
      vertex 6.15 -9.5 0
      vertex 20.8245 -5.34683 0
      vertex 20.4477 -6.64386 0
    endloop
  endfacet
  facet normal -0 0 -1
    outer loop
      vertex 21.1192 4.0287 0
      vertex 6.15 -9.5 0
      vertex 20.8245 5.34683 0
    endloop
  endfacet
  facet normal 0 0 -1
    outer loop
      vertex 6.15 -9.5 0
      vertex 20.4477 -6.64386 0
      vertex 19.9902 -7.91468 0
    endloop
  endfacet
  facet normal -0 0 -1
    outer loop
      vertex 20.8245 5.34683 0
      vertex 6.15 -9.5 0
      vertex 20.4477 6.64386 0
    endloop
  endfacet
  facet normal 0 0 -1
    outer loop
      vertex 6.15 -9.5 0
      vertex 19.9902 -7.91468 0
      vertex 19.4538 -9.15425 0
    endloop
  endfacet
  facet normal -0 0 -1
    outer loop
      vertex 20.4477 6.64386 0
      vertex 6.15 -9.5 0
      vertex 19.9902 7.91468 0
    endloop
  endfacet
  facet normal 0 0 -1
    outer loop
      vertex 6.15 -9.5 0
      vertex 19.4538 -9.15425 0
      vertex 18.8406 -10.3577 0
    endloop
  endfacet
  facet normal -0 0 -1
    outer loop
      vertex 19.9902 7.91468 0
      vertex 6.15 -9.5 0
      vertex 19.4538 9.15425 0
    endloop
  endfacet
  facet normal 0 0 -1
    outer loop
      vertex 6.15 -9.5 0
      vertex 18.8406 -10.3577 0
      vertex 18.153 -11.5203 0
    endloop
  endfacet
  facet normal -0 0 -1
    outer loop
      vertex 19.4538 9.15425 0
      vertex 6.15 -9.5 0
      vertex 18.8406 10.3577 0
    endloop
  endfacet
  facet normal 0 0 -1
    outer loop
      vertex 6.15 -9.5 0
      vertex 18.153 -11.5203 0
      vertex 17.3939 -12.6374 0
    endloop
  endfacet
  facet normal -0 0 -1
    outer loop
      vertex 18.8406 10.3577 0
      vertex 6.15 -9.5 0
      vertex 18.153 11.5203 0
    endloop
  endfacet
  facet normal 0 0 -1
    outer loop
      vertex 6.15 -9.5 0
      vertex 17.3939 -12.6374 0
      vertex 16.566 -13.7046 0
    endloop
  endfacet
  facet normal -0 0 -1
    outer loop
      vertex 18.153 11.5203 0
      vertex 6.15 -9.5 0
      vertex 17.3939 12.6374 0
    endloop
  endfacet
  facet normal 0 0 -1
    outer loop
      vertex 6.15 -9.5 0
      vertex 16.566 -13.7046 0
      vertex 15.6728 -14.7178 0
    endloop
  endfacet
  facet normal -0 0 -1
    outer loop
      vertex 17.3939 12.6374 0
      vertex 6.15 -9.5 0
      vertex 16.566 13.7046 0
    endloop
  endfacet
  facet normal 0 0 -1
    outer loop
      vertex 6.15 -9.5 0
      vertex 15.6728 -14.7178 0
      vertex 14.7178 -15.6728 0
    endloop
  endfacet
  facet normal -0 0 -1
    outer loop
      vertex 16.566 13.7046 0
      vertex 6.15 -9.5 0
      vertex 15.6728 14.7178 0
    endloop
  endfacet
  facet normal 0 0 -1
    outer loop
      vertex 6.15 -9.5 0
      vertex 14.7178 -15.6728 0
      vertex 13.7046 -16.566 0
    endloop
  endfacet
  facet normal -0 0 -1
    outer loop
      vertex 15.6728 14.7178 0
      vertex 6.15 -9.5 0
      vertex 14.7178 15.6728 0
    endloop
  endfacet
  facet normal 0 0 -1
    outer loop
      vertex 6.15 -9.5 0
      vertex 13.7046 -16.566 0
      vertex 12.6374 -17.3939 0
    endloop
  endfacet
  facet normal -0 0 -1
    outer loop
      vertex 14.7178 15.6728 0
      vertex 6.15 -9.5 0
      vertex 13.7046 16.566 0
    endloop
  endfacet
  facet normal 0 0 -1
    outer loop
      vertex 6.15 -9.5 0
      vertex 12.6374 -17.3939 0
      vertex 11.5203 -18.153 0
    endloop
  endfacet
  facet normal -0 0 -1
    outer loop
      vertex 13.7046 16.566 0
      vertex 6.15 -9.5 0
      vertex 12.6374 17.3939 0
    endloop
  endfacet
  facet normal 0 0 -1
    outer loop
      vertex 6.15 -9.5 0
      vertex 11.5203 -18.153 0
      vertex 10.3577 -18.8406 0
    endloop
  endfacet
  facet normal -0 0 -1
    outer loop
      vertex 12.6374 17.3939 0
      vertex 6.15 -9.5 0
      vertex 11.5203 18.153 0
    endloop
  endfacet
  facet normal 0 0 -1
    outer loop
      vertex 6.15 -9.5 0
      vertex 10.3577 -18.8406 0
      vertex 9.15425 -19.4538 0
    endloop
  endfacet
  facet normal -0 0 -1
    outer loop
      vertex 11.5203 18.153 0
      vertex 6.15 -9.5 0
      vertex 10.3577 18.8406 0
    endloop
  endfacet
  facet normal 0 0 -1
    outer loop
      vertex 6.15 -9.5 0
      vertex 9.15425 -19.4538 0
      vertex 7.91468 -19.9902 0
    endloop
  endfacet
  facet normal -0 0 -1
    outer loop
      vertex 10.3577 18.8406 0
      vertex 6.15 -9.5 0
      vertex 9.15425 19.4538 0
    endloop
  endfacet
  facet normal 0 0 -1
    outer loop
      vertex 6.15 -9.5 0
      vertex 7.91468 -19.9902 0
      vertex 6.64386 -20.4477 0
    endloop
  endfacet
  facet normal -0 0 -1
    outer loop
      vertex 9.15425 19.4538 0
      vertex 6.15 -9.5 0
      vertex 7.91468 19.9902 0
    endloop
  endfacet
  facet normal -0 0 -1
    outer loop
      vertex 7.91468 19.9902 0
      vertex 6.15 -9.5 0
      vertex 6.64386 20.4477 0
    endloop
  endfacet
  facet normal 0 0 -1
    outer loop
      vertex 5.34683 -20.8245 0
      vertex 6.15 -9.5 0
      vertex 6.64386 -20.4477 0
    endloop
  endfacet
  facet normal 0 0 -1
    outer loop
      vertex 4.0287 -21.1192 0
      vertex 6.15 -9.5 0
      vertex 5.34683 -20.8245 0
    endloop
  endfacet
  facet normal 0 0 -1
    outer loop
      vertex 2.69466 -21.3305 0
      vertex 6.15 -9.5 0
      vertex 4.0287 -21.1192 0
    endloop
  endfacet
  facet normal 0 0 -1
    outer loop
      vertex 1.35 -21.4576 0
      vertex 6.15 -9.5 0
      vertex 2.69466 -21.3305 0
    endloop
  endfacet
  facet normal 0 0 -1
    outer loop
      vertex 0 -21.5 0
      vertex 6.15 -9.5 0
      vertex 1.35 -21.4576 0
    endloop
  endfacet
  facet normal 0 0 -1
    outer loop
      vertex -6.15 -9.5 0
      vertex 0 -21.5 0
      vertex -1.35 -21.4576 0
    endloop
  endfacet
  facet normal 0 0 -1
    outer loop
      vertex -6.15 -9.5 0
      vertex -1.35 -21.4576 0
      vertex -2.69466 -21.3305 0
    endloop
  endfacet
  facet normal 0 0 -1
    outer loop
      vertex -6.15 -9.5 0
      vertex -2.69466 -21.3305 0
      vertex -4.0287 -21.1192 0
    endloop
  endfacet
  facet normal 0 0 -1
    outer loop
      vertex -6.15 -9.5 0
      vertex -4.0287 -21.1192 0
      vertex -5.34683 -20.8245 0
    endloop
  endfacet
  facet normal 0 0 -1
    outer loop
      vertex 0 -21.5 0
      vertex -6.15 -9.5 0
      vertex 6.15 -9.5 0
    endloop
  endfacet
  facet normal 0 0 -1
    outer loop
      vertex -6.64386 -20.4477 0
      vertex -6.15 -9.5 0
      vertex -5.34683 -20.8245 0
    endloop
  endfacet
  facet normal 0 0 -1
    outer loop
      vertex -7.91468 -19.9902 0
      vertex -6.15 -9.5 0
      vertex -6.64386 -20.4477 0
    endloop
  endfacet
  facet normal 0 0 -1
    outer loop
      vertex -9.15425 -19.4538 0
      vertex -6.15 -9.5 0
      vertex -7.91468 -19.9902 0
    endloop
  endfacet
  facet normal 0 0 -1
    outer loop
      vertex -6.15 -9.5 0
      vertex -7.91468 19.9902 0
      vertex -6.15 20.5912 0
    endloop
  endfacet
  facet normal 0 0 -1
    outer loop
      vertex -6.15 20.5912 0
      vertex -7.91468 19.9902 0
      vertex -6.64386 20.4477 0
    endloop
  endfacet
  facet normal 0 0 -1
    outer loop
      vertex -10.3577 -18.8406 0
      vertex -6.15 -9.5 0
      vertex -9.15425 -19.4538 0
    endloop
  endfacet
  facet normal 0 0 -1
    outer loop
      vertex -6.15 -9.5 0
      vertex -9.15425 19.4538 0
      vertex -7.91468 19.9902 0
    endloop
  endfacet
  facet normal 0 0 -1
    outer loop
      vertex -11.5203 -18.153 0
      vertex -6.15 -9.5 0
      vertex -10.3577 -18.8406 0
    endloop
  endfacet
  facet normal 0 0 -1
    outer loop
      vertex -6.15 -9.5 0
      vertex -10.3577 18.8406 0
      vertex -9.15425 19.4538 0
    endloop
  endfacet
  facet normal 0 0 -1
    outer loop
      vertex -12.6374 -17.3939 0
      vertex -6.15 -9.5 0
      vertex -11.5203 -18.153 0
    endloop
  endfacet
  facet normal 0 0 -1
    outer loop
      vertex -6.15 -9.5 0
      vertex -11.5203 18.153 0
      vertex -10.3577 18.8406 0
    endloop
  endfacet
  facet normal 0 0 -1
    outer loop
      vertex -13.7046 -16.566 0
      vertex -6.15 -9.5 0
      vertex -12.6374 -17.3939 0
    endloop
  endfacet
  facet normal 0 0 -1
    outer loop
      vertex -6.15 -9.5 0
      vertex -12.6374 17.3939 0
      vertex -11.5203 18.153 0
    endloop
  endfacet
  facet normal 0 0 -1
    outer loop
      vertex -14.7178 -15.6728 0
      vertex -6.15 -9.5 0
      vertex -13.7046 -16.566 0
    endloop
  endfacet
  facet normal 0 0 -1
    outer loop
      vertex -6.15 -9.5 0
      vertex -13.7046 16.566 0
      vertex -12.6374 17.3939 0
    endloop
  endfacet
  facet normal 0 0 -1
    outer loop
      vertex -15.6728 -14.7178 0
      vertex -6.15 -9.5 0
      vertex -14.7178 -15.6728 0
    endloop
  endfacet
  facet normal 0 0 -1
    outer loop
      vertex -6.15 -9.5 0
      vertex -14.7178 15.6728 0
      vertex -13.7046 16.566 0
    endloop
  endfacet
  facet normal 0 0 -1
    outer loop
      vertex -16.566 -13.7046 0
      vertex -6.15 -9.5 0
      vertex -15.6728 -14.7178 0
    endloop
  endfacet
  facet normal 0 0 -1
    outer loop
      vertex -6.15 -9.5 0
      vertex -15.6728 14.7178 0
      vertex -14.7178 15.6728 0
    endloop
  endfacet
  facet normal 0 0 -1
    outer loop
      vertex -17.3939 -12.6374 0
      vertex -6.15 -9.5 0
      vertex -16.566 -13.7046 0
    endloop
  endfacet
  facet normal 0 0 -1
    outer loop
      vertex -6.15 -9.5 0
      vertex -16.566 13.7046 0
      vertex -15.6728 14.7178 0
    endloop
  endfacet
  facet normal 0 0 -1
    outer loop
      vertex -18.153 -11.5203 0
      vertex -6.15 -9.5 0
      vertex -17.3939 -12.6374 0
    endloop
  endfacet
  facet normal 0 0 -1
    outer loop
      vertex -6.15 -9.5 0
      vertex -17.3939 12.6374 0
      vertex -16.566 13.7046 0
    endloop
  endfacet
  facet normal 0 0 -1
    outer loop
      vertex -18.8406 -10.3577 0
      vertex -6.15 -9.5 0
      vertex -18.153 -11.5203 0
    endloop
  endfacet
  facet normal 0 0 -1
    outer loop
      vertex -6.15 -9.5 0
      vertex -18.153 11.5203 0
      vertex -17.3939 12.6374 0
    endloop
  endfacet
  facet normal 0 0 -1
    outer loop
      vertex -19.4538 -9.15425 0
      vertex -6.15 -9.5 0
      vertex -18.8406 -10.3577 0
    endloop
  endfacet
  facet normal 0 0 -1
    outer loop
      vertex -6.15 -9.5 0
      vertex -18.8406 10.3577 0
      vertex -18.153 11.5203 0
    endloop
  endfacet
  facet normal 0 0 -1
    outer loop
      vertex -19.9902 -7.91468 0
      vertex -6.15 -9.5 0
      vertex -19.4538 -9.15425 0
    endloop
  endfacet
  facet normal 0 0 -1
    outer loop
      vertex -6.15 -9.5 0
      vertex -19.4538 9.15425 0
      vertex -18.8406 10.3577 0
    endloop
  endfacet
  facet normal 0 0 -1
    outer loop
      vertex -20.4477 -6.64386 0
      vertex -6.15 -9.5 0
      vertex -19.9902 -7.91468 0
    endloop
  endfacet
  facet normal 0 0 -1
    outer loop
      vertex -6.15 -9.5 0
      vertex -19.9902 7.91468 0
      vertex -19.4538 9.15425 0
    endloop
  endfacet
  facet normal 0 0 -1
    outer loop
      vertex -20.8245 -5.34683 0
      vertex -6.15 -9.5 0
      vertex -20.4477 -6.64386 0
    endloop
  endfacet
  facet normal 0 0 -1
    outer loop
      vertex -6.15 -9.5 0
      vertex -20.4477 6.64386 0
      vertex -19.9902 7.91468 0
    endloop
  endfacet
  facet normal 0 0 -1
    outer loop
      vertex -21.1192 -4.0287 0
      vertex -6.15 -9.5 0
      vertex -20.8245 -5.34683 0
    endloop
  endfacet
  facet normal 0 0 -1
    outer loop
      vertex -6.15 -9.5 0
      vertex -20.8245 5.34683 0
      vertex -20.4477 6.64386 0
    endloop
  endfacet
  facet normal 0 0 -1
    outer loop
      vertex -21.3305 -2.69466 0
      vertex -6.15 -9.5 0
      vertex -21.1192 -4.0287 0
    endloop
  endfacet
  facet normal 0 0 -1
    outer loop
      vertex -6.15 -9.5 0
      vertex -21.1192 4.0287 0
      vertex -20.8245 5.34683 0
    endloop
  endfacet
  facet normal 0 0 -1
    outer loop
      vertex -21.4576 -1.35 0
      vertex -6.15 -9.5 0
      vertex -21.3305 -2.69466 0
    endloop
  endfacet
  facet normal 0 0 -1
    outer loop
      vertex -6.15 -9.5 0
      vertex -21.3305 2.69466 0
      vertex -21.1192 4.0287 0
    endloop
  endfacet
  facet normal 0 0 -1
    outer loop
      vertex -21.5 0 0
      vertex -6.15 -9.5 0
      vertex -21.4576 -1.35 0
    endloop
  endfacet
  facet normal 0 0 -1
    outer loop
      vertex -6.15 -9.5 0
      vertex -21.4576 1.35 0
      vertex -21.3305 2.69466 0
    endloop
  endfacet
  facet normal 0 0 -1
    outer loop
      vertex -6.15 -9.5 0
      vertex -21.5 0 0
      vertex -21.4576 1.35 0
    endloop
  endfacet
  facet normal -0 0 -1
    outer loop
      vertex 6.64386 20.4477 0
      vertex 6.15 -9.5 0
      vertex 6.15 20.5912 0
    endloop
  endfacet
  facet normal 0.860742 0.509042 0
    outer loop
      vertex 18.8406 10.3577 3
      vertex 18.153 11.5203 0
      vertex 18.153 11.5203 3
    endloop
  endfacet
  facet normal 0.860742 0.509042 0
    outer loop
      vertex 18.153 11.5203 0
      vertex 18.8406 10.3577 3
      vertex 18.8406 10.3577 0
    endloop
  endfacet
  facet normal -0.891007 0.45399 0
    outer loop
      vertex -19.4538 9.15425 0
      vertex -18.8406 10.3577 3
      vertex -18.8406 10.3577 0
    endloop
  endfacet
  facet normal -0.891007 0.45399 0
    outer loop
      vertex -18.8406 10.3577 3
      vertex -19.4538 9.15425 0
      vertex -19.4538 9.15425 3
    endloop
  endfacet
  facet normal -0.397148 0.917754 0
    outer loop
      vertex -7.91468 19.9902 0
      vertex -9.15425 19.4538 3
      vertex -7.91468 19.9902 3
    endloop
  endfacet
  facet normal -0.397148 0.917754 0
    outer loop
      vertex -9.15425 19.4538 3
      vertex -7.91468 19.9902 0
      vertex -9.15425 19.4538 0
    endloop
  endfacet
  facet normal 0.0941076 -0.995562 0
    outer loop
      vertex 1.35 -21.4576 0
      vertex 2.69466 -21.3305 3
      vertex 1.35 -21.4576 3
    endloop
  endfacet
  facet normal 0.0941076 -0.995562 0
    outer loop
      vertex 2.69466 -21.3305 3
      vertex 1.35 -21.4576 0
      vertex 2.69466 -21.3305 0
    endloop
  endfacet
  facet normal 0.45399 -0.891007 0
    outer loop
      vertex 9.15425 -19.4538 0
      vertex 10.3577 -18.8406 3
      vertex 9.15425 -19.4538 3
    endloop
  endfacet
  facet normal 0.45399 -0.891007 0
    outer loop
      vertex 10.3577 -18.8406 3
      vertex 9.15425 -19.4538 0
      vertex 10.3577 -18.8406 0
    endloop
  endfacet
  facet normal 0.562084 -0.82708 0
    outer loop
      vertex 11.5203 -18.153 0
      vertex 12.6374 -17.3939 3
      vertex 11.5203 -18.153 3
    endloop
  endfacet
  facet normal 0.562084 -0.82708 0
    outer loop
      vertex 12.6374 -17.3939 3
      vertex 11.5203 -18.153 0
      vertex 12.6374 -17.3939 0
    endloop
  endfacet
  facet normal 0.82708 -0.562084 0
    outer loop
      vertex 17.3939 -12.6374 3
      vertex 18.153 -11.5203 0
      vertex 18.153 -11.5203 3
    endloop
  endfacet
  facet normal 0.82708 -0.562084 0
    outer loop
      vertex 18.153 -11.5203 0
      vertex 17.3939 -12.6374 3
      vertex 17.3939 -12.6374 0
    endloop
  endfacet
  facet normal 0.975917 -0.218143 0
    outer loop
      vertex 20.8245 -5.34683 3
      vertex 21.1192 -4.0287 0
      vertex 21.1192 -4.0287 3
    endloop
  endfacet
  facet normal 0.975917 -0.218143 0
    outer loop
      vertex 21.1192 -4.0287 0
      vertex 20.8245 -5.34683 3
      vertex 20.8245 -5.34683 0
    endloop
  endfacet
  facet normal 0.987688 -0.156435 0
    outer loop
      vertex 21.1192 -4.0287 3
      vertex 21.3305 -2.69466 0
      vertex 21.3305 -2.69466 3
    endloop
  endfacet
  facet normal 0.987688 -0.156435 0
    outer loop
      vertex 21.3305 -2.69466 0
      vertex 21.1192 -4.0287 3
      vertex 21.1192 -4.0287 0
    endloop
  endfacet
  facet normal 0.995562 -0.0941076 0
    outer loop
      vertex 21.3305 -2.69466 3
      vertex 21.4576 -1.35 0
      vertex 21.4576 -1.35 3
    endloop
  endfacet
  facet normal 0.995562 -0.0941076 0
    outer loop
      vertex 21.4576 -1.35 0
      vertex 21.3305 -2.69466 3
      vertex 21.3305 -2.69466 0
    endloop
  endfacet
  facet normal -0.509042 -0.860742 0
    outer loop
      vertex -11.5203 -18.153 0
      vertex -10.3577 -18.8406 3
      vertex -11.5203 -18.153 3
    endloop
  endfacet
  facet normal -0.509042 -0.860742 -0
    outer loop
      vertex -10.3577 -18.8406 3
      vertex -11.5203 -18.153 0
      vertex -10.3577 -18.8406 0
    endloop
  endfacet
  facet normal -0.031412 -0.999507 0
    outer loop
      vertex -1.35 -21.4576 0
      vertex 0 -21.5 3
      vertex -1.35 -21.4576 3
    endloop
  endfacet
  facet normal -0.031412 -0.999507 -0
    outer loop
      vertex 0 -21.5 3
      vertex -1.35 -21.4576 0
      vertex 0 -21.5 0
    endloop
  endfacet
  facet normal -0.790156 -0.612906 0
    outer loop
      vertex -16.566 -13.7046 0
      vertex -17.3939 -12.6374 3
      vertex -17.3939 -12.6374 0
    endloop
  endfacet
  facet normal -0.790156 -0.612906 0
    outer loop
      vertex -17.3939 -12.6374 3
      vertex -16.566 -13.7046 0
      vertex -16.566 -13.7046 3
    endloop
  endfacet
  facet normal -0.995562 -0.0941076 0
    outer loop
      vertex -21.3305 -2.69466 0
      vertex -21.4576 -1.35 3
      vertex -21.4576 -1.35 0
    endloop
  endfacet
  facet normal -0.995562 -0.0941076 0
    outer loop
      vertex -21.4576 -1.35 3
      vertex -21.3305 -2.69466 0
      vertex -21.3305 -2.69466 3
    endloop
  endfacet
  facet normal 0.960294 -0.27899 0
    outer loop
      vertex 20.4477 -6.64386 3
      vertex 20.8245 -5.34683 0
      vertex 20.8245 -5.34683 3
    endloop
  endfacet
  facet normal 0.960294 -0.27899 0
    outer loop
      vertex 20.8245 -5.34683 0
      vertex 20.4477 -6.64386 3
      vertex 20.4477 -6.64386 0
    endloop
  endfacet
  facet normal 0.999507 -0.031412 0
    outer loop
      vertex 21.4576 -1.35 3
      vertex 21.5 0 0
      vertex 21.5 0 3
    endloop
  endfacet
  facet normal 0.999507 -0.031412 0
    outer loop
      vertex 21.5 0 0
      vertex 21.4576 -1.35 3
      vertex 21.4576 -1.35 0
    endloop
  endfacet
  facet normal 1 -0 0
    outer loop
      vertex -6.15 -9.5 3
      vertex -6.15 20.5912 0
      vertex -6.15 20.5912 3
    endloop
  endfacet
  facet normal 1 0 0
    outer loop
      vertex -6.15 20.5912 0
      vertex -6.15 -9.5 3
      vertex -6.15 -9.5 0
    endloop
  endfacet
  facet normal -1 0 0
    outer loop
      vertex 6.15 -9.5 0
      vertex 6.15 20.5912 3
      vertex 6.15 20.5912 0
    endloop
  endfacet
  facet normal -1 -0 0
    outer loop
      vertex 6.15 20.5912 3
      vertex 6.15 -9.5 0
      vertex 6.15 -9.5 3
    endloop
  endfacet
  facet normal 0 1 -0
    outer loop
      vertex 6.15 -9.5 0
      vertex -6.15 -9.5 3
      vertex 6.15 -9.5 3
    endloop
  endfacet
  facet normal 0 1 0
    outer loop
      vertex -6.15 -9.5 3
      vertex 6.15 -9.5 0
      vertex -6.15 -9.5 0
    endloop
  endfacet
endsolid OpenSCAD_Model
