G04 #@! TF.GenerationSoftware,KiCad,Pcbnew,(6.0.0-rc1-dev-205-gc0615c5ef)*
G04 #@! TF.CreationDate,2019-04-08T15:00:45+02:00*
G04 #@! TF.ProjectId,STEPUPDC02A,53544550555044433032412E6B696361,rev?*
G04 #@! TF.SameCoordinates,Original*
G04 #@! TF.FileFunction,Copper,L1,Top,Signal*
G04 #@! TF.FilePolarity,Positive*
%FSLAX46Y46*%
G04 Gerber Fmt 4.6, Leading zero omitted, Abs format (unit mm)*
G04 Created by KiCad (PCBNEW (6.0.0-rc1-dev-205-gc0615c5ef)) date 04/08/19 15:00:45*
%MOMM*%
%LPD*%
G01*
G04 APERTURE LIST*
G04 #@! TA.AperFunction,ComponentPad*
%ADD10C,6.000000*%
G04 #@! TD*
G04 #@! TA.AperFunction,ComponentPad*
%ADD11R,1.524000X1.524000*%
G04 #@! TD*
G04 #@! TA.AperFunction,ViaPad*
%ADD12C,0.800000*%
G04 #@! TD*
G04 #@! TA.AperFunction,Conductor*
%ADD13C,0.500000*%
G04 #@! TD*
G04 #@! TA.AperFunction,Conductor*
%ADD14C,0.254000*%
G04 #@! TD*
G04 APERTURE END LIST*
D10*
G04 #@! TO.P,M1,1*
G04 #@! TO.N,N/C*
X15240000Y35560000D03*
G04 #@! TD*
G04 #@! TO.P,M2,1*
G04 #@! TO.N,N/C*
X15240000Y5080000D03*
G04 #@! TD*
G04 #@! TO.P,M3,1*
G04 #@! TO.N,N/C*
X5080000Y5080000D03*
G04 #@! TD*
G04 #@! TO.P,M4,1*
G04 #@! TO.N,N/C*
X5080000Y35560000D03*
G04 #@! TD*
D11*
G04 #@! TO.P,J1,1*
G04 #@! TO.N,GND*
X15748000Y29591000D03*
G04 #@! TO.P,J1,2*
X18288000Y29591000D03*
G04 #@! TO.P,J1,3*
G04 #@! TO.N,/Power*
X15748000Y27051000D03*
G04 #@! TO.P,J1,4*
X18288000Y27051000D03*
G04 #@! TO.P,J1,5*
G04 #@! TO.N,GND*
X15748000Y24511000D03*
G04 #@! TO.P,J1,6*
X18288000Y24511000D03*
G04 #@! TD*
G04 #@! TO.P,J4,1*
G04 #@! TO.N,GND*
X15748000Y17780000D03*
G04 #@! TO.P,J4,2*
X18288000Y17780000D03*
G04 #@! TO.P,J4,3*
G04 #@! TO.N,/PowerOUT*
X15748000Y15240000D03*
G04 #@! TO.P,J4,4*
X18288000Y15240000D03*
G04 #@! TO.P,J4,5*
X15748000Y12700000D03*
G04 #@! TO.P,J4,6*
X18288000Y12700000D03*
G04 #@! TO.P,J4,7*
G04 #@! TO.N,GND*
X15748000Y10160000D03*
G04 #@! TO.P,J4,8*
X18288000Y10160000D03*
G04 #@! TD*
G04 #@! TO.P,J2,1*
G04 #@! TO.N,GND*
X2540000Y22479000D03*
G04 #@! TO.P,J2,2*
G04 #@! TO.N,/ENABLE*
X2540000Y25019000D03*
G04 #@! TD*
D12*
G04 #@! TO.N,GND*
X13970000Y29591000D03*
X12700000Y29591000D03*
X6731000Y20574000D03*
X8001000Y20574000D03*
X9017000Y19685000D03*
X9017000Y18288000D03*
X9271000Y17018000D03*
X11811000Y18034000D03*
X10033000Y18033998D03*
X6350000Y26670000D03*
X4953000Y26670000D03*
X4826000Y28702000D03*
X15621000Y19558000D03*
X18415000Y19558000D03*
X16891000Y19558000D03*
X4826000Y10160000D03*
X4826000Y11303000D03*
X4826000Y12573000D03*
X3937000Y13462000D03*
X2794000Y13462000D03*
X1397000Y13462000D03*
X1397000Y14859000D03*
X15748000Y22733000D03*
X17018000Y22733000D03*
X18415000Y22733000D03*
X4191000Y22479000D03*
G04 #@! TD*
D13*
G04 #@! TO.N,GND*
X13970000Y29591000D02*
X12700000Y29591000D01*
X6731000Y20574000D02*
X8001000Y20574000D01*
X9017000Y19685000D02*
X9017000Y18288000D01*
X9017000Y18288000D02*
X9778998Y18288000D01*
X9778998Y18288000D02*
X10033000Y18033998D01*
X6350000Y26670000D02*
X4953000Y26670000D01*
X15621000Y19558000D02*
X16891000Y19558000D01*
X4826000Y10160000D02*
X4826000Y11303000D01*
X4826000Y12573000D02*
X3937000Y13462000D01*
X2794000Y13462000D02*
X1397000Y13462000D01*
X15748000Y22733000D02*
X17018000Y22733000D01*
G04 #@! TD*
D14*
G04 #@! TO.N,GND*
G36*
X19564000Y756000D02*
X756000Y756000D01*
X756000Y5900911D01*
X953000Y5900911D01*
X953000Y4259089D01*
X1581298Y2742242D01*
X2742242Y1581298D01*
X4259089Y953000D01*
X5900911Y953000D01*
X7417758Y1581298D01*
X8578702Y2742242D01*
X9207000Y4259089D01*
X9207000Y5900911D01*
X11113000Y5900911D01*
X11113000Y4259089D01*
X11741298Y2742242D01*
X12902242Y1581298D01*
X14419089Y953000D01*
X16060911Y953000D01*
X17577758Y1581298D01*
X18738702Y2742242D01*
X19367000Y4259089D01*
X19367000Y5900911D01*
X18738702Y7417758D01*
X17577758Y8578702D01*
X16060911Y9207000D01*
X14419089Y9207000D01*
X12902242Y8578702D01*
X11741298Y7417758D01*
X11113000Y5900911D01*
X9207000Y5900911D01*
X8578702Y7417758D01*
X7417758Y8578702D01*
X5900911Y9207000D01*
X4259089Y9207000D01*
X2742242Y8578702D01*
X1581298Y7417758D01*
X953000Y5900911D01*
X756000Y5900911D01*
X756000Y13462000D01*
X14550635Y13462000D01*
X14550635Y11938000D01*
X14583775Y11771393D01*
X14678150Y11630150D01*
X14819393Y11535775D01*
X14986000Y11502635D01*
X16510000Y11502635D01*
X16676607Y11535775D01*
X16817850Y11630150D01*
X16912225Y11771393D01*
X16945365Y11938000D01*
X16945365Y13462000D01*
X17090635Y13462000D01*
X17090635Y11938000D01*
X17123775Y11771393D01*
X17218150Y11630150D01*
X17359393Y11535775D01*
X17526000Y11502635D01*
X19050000Y11502635D01*
X19216607Y11535775D01*
X19357850Y11630150D01*
X19452225Y11771393D01*
X19485365Y11938000D01*
X19485365Y13462000D01*
X19452225Y13628607D01*
X19357850Y13769850D01*
X19216607Y13864225D01*
X19050000Y13897365D01*
X17526000Y13897365D01*
X17359393Y13864225D01*
X17218150Y13769850D01*
X17123775Y13628607D01*
X17090635Y13462000D01*
X16945365Y13462000D01*
X16912225Y13628607D01*
X16817850Y13769850D01*
X16676607Y13864225D01*
X16510000Y13897365D01*
X14986000Y13897365D01*
X14819393Y13864225D01*
X14678150Y13769850D01*
X14583775Y13628607D01*
X14550635Y13462000D01*
X756000Y13462000D01*
X756000Y16002000D01*
X14550635Y16002000D01*
X14550635Y14478000D01*
X14583775Y14311393D01*
X14678150Y14170150D01*
X14819393Y14075775D01*
X14986000Y14042635D01*
X16510000Y14042635D01*
X16676607Y14075775D01*
X16817850Y14170150D01*
X16912225Y14311393D01*
X16945365Y14478000D01*
X16945365Y16002000D01*
X17090635Y16002000D01*
X17090635Y14478000D01*
X17123775Y14311393D01*
X17218150Y14170150D01*
X17359393Y14075775D01*
X17526000Y14042635D01*
X19050000Y14042635D01*
X19216607Y14075775D01*
X19357850Y14170150D01*
X19452225Y14311393D01*
X19485365Y14478000D01*
X19485365Y16002000D01*
X19452225Y16168607D01*
X19357850Y16309850D01*
X19216607Y16404225D01*
X19050000Y16437365D01*
X17526000Y16437365D01*
X17359393Y16404225D01*
X17218150Y16309850D01*
X17123775Y16168607D01*
X17090635Y16002000D01*
X16945365Y16002000D01*
X16912225Y16168607D01*
X16817850Y16309850D01*
X16676607Y16404225D01*
X16510000Y16437365D01*
X14986000Y16437365D01*
X14819393Y16404225D01*
X14678150Y16309850D01*
X14583775Y16168607D01*
X14550635Y16002000D01*
X756000Y16002000D01*
X756000Y25781000D01*
X1342635Y25781000D01*
X1342635Y24257000D01*
X1375775Y24090393D01*
X1470150Y23949150D01*
X1611393Y23854775D01*
X1778000Y23821635D01*
X3302000Y23821635D01*
X3468607Y23854775D01*
X3609850Y23949150D01*
X3704225Y24090393D01*
X3737365Y24257000D01*
X3737365Y25781000D01*
X3704225Y25947607D01*
X3609850Y26088850D01*
X3468607Y26183225D01*
X3302000Y26216365D01*
X1778000Y26216365D01*
X1611393Y26183225D01*
X1470150Y26088850D01*
X1375775Y25947607D01*
X1342635Y25781000D01*
X756000Y25781000D01*
X756000Y27813000D01*
X14550635Y27813000D01*
X14550635Y26289000D01*
X14583775Y26122393D01*
X14678150Y25981150D01*
X14819393Y25886775D01*
X14986000Y25853635D01*
X16510000Y25853635D01*
X16676607Y25886775D01*
X16817850Y25981150D01*
X16912225Y26122393D01*
X16945365Y26289000D01*
X16945365Y27813000D01*
X17090635Y27813000D01*
X17090635Y26289000D01*
X17123775Y26122393D01*
X17218150Y25981150D01*
X17359393Y25886775D01*
X17526000Y25853635D01*
X19050000Y25853635D01*
X19216607Y25886775D01*
X19357850Y25981150D01*
X19452225Y26122393D01*
X19485365Y26289000D01*
X19485365Y27813000D01*
X19452225Y27979607D01*
X19357850Y28120850D01*
X19216607Y28215225D01*
X19050000Y28248365D01*
X17526000Y28248365D01*
X17359393Y28215225D01*
X17218150Y28120850D01*
X17123775Y27979607D01*
X17090635Y27813000D01*
X16945365Y27813000D01*
X16912225Y27979607D01*
X16817850Y28120850D01*
X16676607Y28215225D01*
X16510000Y28248365D01*
X14986000Y28248365D01*
X14819393Y28215225D01*
X14678150Y28120850D01*
X14583775Y27979607D01*
X14550635Y27813000D01*
X756000Y27813000D01*
X756000Y36380911D01*
X953000Y36380911D01*
X953000Y34739089D01*
X1581298Y33222242D01*
X2742242Y32061298D01*
X4259089Y31433000D01*
X5900911Y31433000D01*
X7417758Y32061298D01*
X8578702Y33222242D01*
X9207000Y34739089D01*
X9207000Y36380911D01*
X11113000Y36380911D01*
X11113000Y34739089D01*
X11741298Y33222242D01*
X12902242Y32061298D01*
X14419089Y31433000D01*
X16060911Y31433000D01*
X17577758Y32061298D01*
X18738702Y33222242D01*
X19367000Y34739089D01*
X19367000Y36380911D01*
X18738702Y37897758D01*
X17577758Y39058702D01*
X16060911Y39687000D01*
X14419089Y39687000D01*
X12902242Y39058702D01*
X11741298Y37897758D01*
X11113000Y36380911D01*
X9207000Y36380911D01*
X8578702Y37897758D01*
X7417758Y39058702D01*
X5900911Y39687000D01*
X4259089Y39687000D01*
X2742242Y39058702D01*
X1581298Y37897758D01*
X953000Y36380911D01*
X756000Y36380911D01*
X756000Y39884000D01*
X19564001Y39884000D01*
X19564000Y756000D01*
X19564000Y756000D01*
G37*
X19564000Y756000D02*
X756000Y756000D01*
X756000Y5900911D01*
X953000Y5900911D01*
X953000Y4259089D01*
X1581298Y2742242D01*
X2742242Y1581298D01*
X4259089Y953000D01*
X5900911Y953000D01*
X7417758Y1581298D01*
X8578702Y2742242D01*
X9207000Y4259089D01*
X9207000Y5900911D01*
X11113000Y5900911D01*
X11113000Y4259089D01*
X11741298Y2742242D01*
X12902242Y1581298D01*
X14419089Y953000D01*
X16060911Y953000D01*
X17577758Y1581298D01*
X18738702Y2742242D01*
X19367000Y4259089D01*
X19367000Y5900911D01*
X18738702Y7417758D01*
X17577758Y8578702D01*
X16060911Y9207000D01*
X14419089Y9207000D01*
X12902242Y8578702D01*
X11741298Y7417758D01*
X11113000Y5900911D01*
X9207000Y5900911D01*
X8578702Y7417758D01*
X7417758Y8578702D01*
X5900911Y9207000D01*
X4259089Y9207000D01*
X2742242Y8578702D01*
X1581298Y7417758D01*
X953000Y5900911D01*
X756000Y5900911D01*
X756000Y13462000D01*
X14550635Y13462000D01*
X14550635Y11938000D01*
X14583775Y11771393D01*
X14678150Y11630150D01*
X14819393Y11535775D01*
X14986000Y11502635D01*
X16510000Y11502635D01*
X16676607Y11535775D01*
X16817850Y11630150D01*
X16912225Y11771393D01*
X16945365Y11938000D01*
X16945365Y13462000D01*
X17090635Y13462000D01*
X17090635Y11938000D01*
X17123775Y11771393D01*
X17218150Y11630150D01*
X17359393Y11535775D01*
X17526000Y11502635D01*
X19050000Y11502635D01*
X19216607Y11535775D01*
X19357850Y11630150D01*
X19452225Y11771393D01*
X19485365Y11938000D01*
X19485365Y13462000D01*
X19452225Y13628607D01*
X19357850Y13769850D01*
X19216607Y13864225D01*
X19050000Y13897365D01*
X17526000Y13897365D01*
X17359393Y13864225D01*
X17218150Y13769850D01*
X17123775Y13628607D01*
X17090635Y13462000D01*
X16945365Y13462000D01*
X16912225Y13628607D01*
X16817850Y13769850D01*
X16676607Y13864225D01*
X16510000Y13897365D01*
X14986000Y13897365D01*
X14819393Y13864225D01*
X14678150Y13769850D01*
X14583775Y13628607D01*
X14550635Y13462000D01*
X756000Y13462000D01*
X756000Y16002000D01*
X14550635Y16002000D01*
X14550635Y14478000D01*
X14583775Y14311393D01*
X14678150Y14170150D01*
X14819393Y14075775D01*
X14986000Y14042635D01*
X16510000Y14042635D01*
X16676607Y14075775D01*
X16817850Y14170150D01*
X16912225Y14311393D01*
X16945365Y14478000D01*
X16945365Y16002000D01*
X17090635Y16002000D01*
X17090635Y14478000D01*
X17123775Y14311393D01*
X17218150Y14170150D01*
X17359393Y14075775D01*
X17526000Y14042635D01*
X19050000Y14042635D01*
X19216607Y14075775D01*
X19357850Y14170150D01*
X19452225Y14311393D01*
X19485365Y14478000D01*
X19485365Y16002000D01*
X19452225Y16168607D01*
X19357850Y16309850D01*
X19216607Y16404225D01*
X19050000Y16437365D01*
X17526000Y16437365D01*
X17359393Y16404225D01*
X17218150Y16309850D01*
X17123775Y16168607D01*
X17090635Y16002000D01*
X16945365Y16002000D01*
X16912225Y16168607D01*
X16817850Y16309850D01*
X16676607Y16404225D01*
X16510000Y16437365D01*
X14986000Y16437365D01*
X14819393Y16404225D01*
X14678150Y16309850D01*
X14583775Y16168607D01*
X14550635Y16002000D01*
X756000Y16002000D01*
X756000Y25781000D01*
X1342635Y25781000D01*
X1342635Y24257000D01*
X1375775Y24090393D01*
X1470150Y23949150D01*
X1611393Y23854775D01*
X1778000Y23821635D01*
X3302000Y23821635D01*
X3468607Y23854775D01*
X3609850Y23949150D01*
X3704225Y24090393D01*
X3737365Y24257000D01*
X3737365Y25781000D01*
X3704225Y25947607D01*
X3609850Y26088850D01*
X3468607Y26183225D01*
X3302000Y26216365D01*
X1778000Y26216365D01*
X1611393Y26183225D01*
X1470150Y26088850D01*
X1375775Y25947607D01*
X1342635Y25781000D01*
X756000Y25781000D01*
X756000Y27813000D01*
X14550635Y27813000D01*
X14550635Y26289000D01*
X14583775Y26122393D01*
X14678150Y25981150D01*
X14819393Y25886775D01*
X14986000Y25853635D01*
X16510000Y25853635D01*
X16676607Y25886775D01*
X16817850Y25981150D01*
X16912225Y26122393D01*
X16945365Y26289000D01*
X16945365Y27813000D01*
X17090635Y27813000D01*
X17090635Y26289000D01*
X17123775Y26122393D01*
X17218150Y25981150D01*
X17359393Y25886775D01*
X17526000Y25853635D01*
X19050000Y25853635D01*
X19216607Y25886775D01*
X19357850Y25981150D01*
X19452225Y26122393D01*
X19485365Y26289000D01*
X19485365Y27813000D01*
X19452225Y27979607D01*
X19357850Y28120850D01*
X19216607Y28215225D01*
X19050000Y28248365D01*
X17526000Y28248365D01*
X17359393Y28215225D01*
X17218150Y28120850D01*
X17123775Y27979607D01*
X17090635Y27813000D01*
X16945365Y27813000D01*
X16912225Y27979607D01*
X16817850Y28120850D01*
X16676607Y28215225D01*
X16510000Y28248365D01*
X14986000Y28248365D01*
X14819393Y28215225D01*
X14678150Y28120850D01*
X14583775Y27979607D01*
X14550635Y27813000D01*
X756000Y27813000D01*
X756000Y36380911D01*
X953000Y36380911D01*
X953000Y34739089D01*
X1581298Y33222242D01*
X2742242Y32061298D01*
X4259089Y31433000D01*
X5900911Y31433000D01*
X7417758Y32061298D01*
X8578702Y33222242D01*
X9207000Y34739089D01*
X9207000Y36380911D01*
X11113000Y36380911D01*
X11113000Y34739089D01*
X11741298Y33222242D01*
X12902242Y32061298D01*
X14419089Y31433000D01*
X16060911Y31433000D01*
X17577758Y32061298D01*
X18738702Y33222242D01*
X19367000Y34739089D01*
X19367000Y36380911D01*
X18738702Y37897758D01*
X17577758Y39058702D01*
X16060911Y39687000D01*
X14419089Y39687000D01*
X12902242Y39058702D01*
X11741298Y37897758D01*
X11113000Y36380911D01*
X9207000Y36380911D01*
X8578702Y37897758D01*
X7417758Y39058702D01*
X5900911Y39687000D01*
X4259089Y39687000D01*
X2742242Y39058702D01*
X1581298Y37897758D01*
X953000Y36380911D01*
X756000Y36380911D01*
X756000Y39884000D01*
X19564001Y39884000D01*
X19564000Y756000D01*
G04 #@! TD*
M02*
