G04 #@! TF.GenerationSoftware,KiCad,Pcbnew,(6.0.0-rc1-dev-205-gc0615c5ef)*
G04 #@! TF.CreationDate,2019-04-08T15:00:45+02:00*
G04 #@! TF.ProjectId,STEPUPDC02A,53544550555044433032412E6B696361,rev?*
G04 #@! TF.SameCoordinates,Original*
G04 #@! TF.FileFunction,Copper,L2,Bot,Signal*
G04 #@! TF.FilePolarity,Positive*
%FSLAX46Y46*%
G04 Gerber Fmt 4.6, Leading zero omitted, Abs format (unit mm)*
G04 Created by KiCad (PCBNEW (6.0.0-rc1-dev-205-gc0615c5ef)) date 04/08/19 15:00:45*
%MOMM*%
%LPD*%
G01*
G04 APERTURE LIST*
G04 #@! TA.AperFunction,SMDPad,CuDef*
%ADD10R,4.000000X1.600000*%
G04 #@! TD*
G04 #@! TA.AperFunction,ComponentPad*
%ADD11C,6.000000*%
G04 #@! TD*
G04 #@! TA.AperFunction,SMDPad,CuDef*
%ADD12R,1.397000X0.889000*%
G04 #@! TD*
G04 #@! TA.AperFunction,SMDPad,CuDef*
%ADD13R,2.550160X2.499360*%
G04 #@! TD*
G04 #@! TA.AperFunction,SMDPad,CuDef*
%ADD14R,0.889000X1.397000*%
G04 #@! TD*
G04 #@! TA.AperFunction,SMDPad,CuDef*
%ADD15R,2.300000X2.500000*%
G04 #@! TD*
G04 #@! TA.AperFunction,SMDPad,CuDef*
%ADD16R,0.650000X1.560000*%
G04 #@! TD*
G04 #@! TA.AperFunction,ComponentPad*
%ADD17R,1.524000X1.524000*%
G04 #@! TD*
G04 #@! TA.AperFunction,SMDPad,CuDef*
%ADD18R,1.700000X1.300000*%
G04 #@! TD*
G04 #@! TA.AperFunction,ViaPad*
%ADD19C,0.800000*%
G04 #@! TD*
G04 #@! TA.AperFunction,Conductor*
%ADD20C,0.500000*%
G04 #@! TD*
G04 #@! TA.AperFunction,Conductor*
%ADD21C,0.250000*%
G04 #@! TD*
G04 #@! TA.AperFunction,Conductor*
%ADD22C,0.254000*%
G04 #@! TD*
G04 APERTURE END LIST*
D10*
G04 #@! TO.P,L1,2*
G04 #@! TO.N,Net-(D1-Pad2)*
X11430000Y23219000D03*
G04 #@! TO.P,L1,1*
G04 #@! TO.N,/Power*
X11430000Y26819000D03*
G04 #@! TD*
D11*
G04 #@! TO.P,M1,1*
G04 #@! TO.N,N/C*
X15240000Y35560000D03*
G04 #@! TD*
G04 #@! TO.P,M2,1*
G04 #@! TO.N,N/C*
X15240000Y5080000D03*
G04 #@! TD*
G04 #@! TO.P,M3,1*
G04 #@! TO.N,N/C*
X5080000Y5080000D03*
G04 #@! TD*
G04 #@! TO.P,M4,1*
G04 #@! TO.N,N/C*
X5080000Y35560000D03*
G04 #@! TD*
D12*
G04 #@! TO.P,C1,1*
G04 #@! TO.N,/PowerOUT*
X3048000Y14986000D03*
G04 #@! TO.P,C1,2*
G04 #@! TO.N,Net-(C1-Pad2)*
X3048000Y16891000D03*
G04 #@! TD*
G04 #@! TO.P,C2,1*
G04 #@! TO.N,/PowerOUT*
X7747000Y14986000D03*
G04 #@! TO.P,C2,2*
G04 #@! TO.N,GND*
X7747000Y16891000D03*
G04 #@! TD*
D13*
G04 #@! TO.P,C5,2*
G04 #@! TO.N,GND*
X6731000Y11684000D03*
G04 #@! TO.P,C5,1*
G04 #@! TO.N,/PowerOUT*
X11780520Y11684000D03*
G04 #@! TD*
D14*
G04 #@! TO.P,C6,2*
G04 #@! TO.N,GND*
X5969000Y28067000D03*
G04 #@! TO.P,C6,1*
G04 #@! TO.N,/Power*
X7874000Y28067000D03*
G04 #@! TD*
D12*
G04 #@! TO.P,R1,2*
G04 #@! TO.N,/ENABLE*
X3429000Y27749500D03*
G04 #@! TO.P,R1,1*
G04 #@! TO.N,/Power*
X3429000Y29654500D03*
G04 #@! TD*
G04 #@! TO.P,R2,1*
G04 #@! TO.N,/PowerOUT*
X5334000Y14986000D03*
G04 #@! TO.P,R2,2*
G04 #@! TO.N,Net-(C1-Pad2)*
X5334000Y16891000D03*
G04 #@! TD*
D14*
G04 #@! TO.P,R4,2*
G04 #@! TO.N,GND*
X7620000Y18923000D03*
G04 #@! TO.P,R4,1*
G04 #@! TO.N,Net-(C1-Pad2)*
X5715000Y18923000D03*
G04 #@! TD*
D15*
G04 #@! TO.P,D1,1*
G04 #@! TO.N,/PowerOUT*
X11430000Y15884000D03*
G04 #@! TO.P,D1,2*
G04 #@! TO.N,Net-(D1-Pad2)*
X11430000Y20184000D03*
G04 #@! TD*
D16*
G04 #@! TO.P,U1,1*
G04 #@! TO.N,Net-(D1-Pad2)*
X7366000Y22352000D03*
G04 #@! TO.P,U1,2*
G04 #@! TO.N,GND*
X6416000Y22352000D03*
G04 #@! TO.P,U1,3*
G04 #@! TO.N,Net-(C1-Pad2)*
X5466000Y22352000D03*
G04 #@! TO.P,U1,4*
G04 #@! TO.N,/ENABLE*
X5466000Y25052000D03*
G04 #@! TO.P,U1,5*
G04 #@! TO.N,/Power*
X7366000Y25052000D03*
G04 #@! TD*
D17*
G04 #@! TO.P,J1,1*
G04 #@! TO.N,GND*
X15748000Y29591000D03*
G04 #@! TO.P,J1,2*
X18288000Y29591000D03*
G04 #@! TO.P,J1,3*
G04 #@! TO.N,/Power*
X15748000Y27051000D03*
G04 #@! TO.P,J1,4*
X18288000Y27051000D03*
G04 #@! TO.P,J1,5*
G04 #@! TO.N,GND*
X15748000Y24511000D03*
G04 #@! TO.P,J1,6*
X18288000Y24511000D03*
G04 #@! TD*
G04 #@! TO.P,J4,1*
G04 #@! TO.N,GND*
X15748000Y17780000D03*
G04 #@! TO.P,J4,2*
X18288000Y17780000D03*
G04 #@! TO.P,J4,3*
G04 #@! TO.N,/PowerOUT*
X15748000Y15240000D03*
G04 #@! TO.P,J4,4*
X18288000Y15240000D03*
G04 #@! TO.P,J4,5*
X15748000Y12700000D03*
G04 #@! TO.P,J4,6*
X18288000Y12700000D03*
G04 #@! TO.P,J4,7*
G04 #@! TO.N,GND*
X15748000Y10160000D03*
G04 #@! TO.P,J4,8*
X18288000Y10160000D03*
G04 #@! TD*
G04 #@! TO.P,J2,1*
G04 #@! TO.N,GND*
X2540000Y22479000D03*
G04 #@! TO.P,J2,2*
G04 #@! TO.N,/ENABLE*
X2540000Y25019000D03*
G04 #@! TD*
D18*
G04 #@! TO.P,D2,1*
G04 #@! TO.N,/Power*
X10160000Y29238000D03*
G04 #@! TO.P,D2,2*
G04 #@! TO.N,GND*
X10160000Y32738000D03*
G04 #@! TD*
D19*
G04 #@! TO.N,GND*
X13970000Y29591000D03*
X12700000Y29591000D03*
X6731000Y20574000D03*
X8001000Y20574000D03*
X9017000Y19685000D03*
X9017000Y18288000D03*
X9271000Y17018000D03*
X11811000Y18034000D03*
X10033000Y18033998D03*
X6350000Y26670000D03*
X4953000Y26670000D03*
X4826000Y28702000D03*
X15621000Y19558000D03*
X18415000Y19558000D03*
X16891000Y19558000D03*
X4826000Y10160000D03*
X4826000Y11303000D03*
X4826000Y12573000D03*
X3937000Y13462000D03*
X2794000Y13462000D03*
X1397000Y13462000D03*
X1397000Y14859000D03*
X15748000Y22733000D03*
X17018000Y22733000D03*
X18415000Y22733000D03*
X4191000Y22479000D03*
G04 #@! TD*
D20*
G04 #@! TO.N,GND*
X15748000Y29591000D02*
X13970000Y29591000D01*
X7620000Y18923000D02*
X7620000Y19685000D01*
X7620000Y19685000D02*
X6731000Y20574000D01*
X8001000Y20574000D02*
X8128000Y20574000D01*
X8128000Y20574000D02*
X9017000Y19685000D01*
X9017000Y18288000D02*
X9017000Y17272000D01*
X9017000Y17272000D02*
X9271000Y17018000D01*
X11811000Y18034000D02*
X10033002Y18034000D01*
X10033002Y18034000D02*
X10033000Y18033998D01*
X5969000Y28067000D02*
X5969000Y27051000D01*
X5969000Y27051000D02*
X6350000Y26670000D01*
X4953000Y26670000D02*
X4953000Y28575000D01*
X4953000Y28575000D02*
X4826000Y28702000D01*
X15748000Y17780000D02*
X15748000Y19431000D01*
X15748000Y19431000D02*
X15621000Y19558000D01*
X18415000Y19558000D02*
X16891000Y19558000D01*
X6731000Y11684000D02*
X6350000Y11684000D01*
X6350000Y11684000D02*
X4826000Y10160000D01*
X4826000Y11303000D02*
X4826000Y12573000D01*
X3937000Y13462000D02*
X2794000Y13462000D01*
X1397000Y13462000D02*
X1397000Y14859000D01*
X15748000Y24511000D02*
X15748000Y22733000D01*
X17018000Y22733000D02*
X18415000Y22733000D01*
X2540000Y22479000D02*
X4191000Y22479000D01*
D21*
X18415000Y19558000D02*
X19304000Y19558000D01*
D20*
G04 #@! TO.N,/ENABLE*
X2573000Y25052000D02*
X2540000Y25019000D01*
X3429000Y27749500D02*
X3429000Y25400000D01*
X3429000Y25400000D02*
X3429000Y25052000D01*
X5466000Y25052000D02*
X3429000Y25052000D01*
X3429000Y25052000D02*
X2573000Y25052000D01*
G04 #@! TO.N,Net-(C1-Pad2)*
X5466000Y19172000D02*
X5715000Y18923000D01*
X5466000Y22352000D02*
X5466000Y19172000D01*
X3048000Y16891000D02*
X5334000Y16891000D01*
X5715000Y17272000D02*
X5334000Y16891000D01*
X5715000Y18923000D02*
X5715000Y17272000D01*
G04 #@! TO.N,/PowerOUT*
X3048000Y14986000D02*
X5334000Y14986000D01*
X5334000Y14986000D02*
X7747000Y14986000D01*
X10532000Y14986000D02*
X11430000Y15884000D01*
X7747000Y14986000D02*
X10532000Y14986000D01*
G04 #@! TO.N,/Power*
X7874000Y28321000D02*
X7874000Y28067000D01*
X6540500Y29654500D02*
X7874000Y28321000D01*
X3429000Y29654500D02*
X6540500Y29654500D01*
X7874000Y28067000D02*
X10033000Y28067000D01*
X10160000Y28089000D02*
X11430000Y26819000D01*
X10160000Y29238000D02*
X10160000Y28089000D01*
G04 #@! TD*
D22*
G04 #@! TO.N,Net-(D1-Pad2)*
G36*
X13335000Y22404606D02*
X12483197Y21552803D01*
X12455667Y21511601D01*
X12446000Y21463000D01*
X12446000Y18796000D01*
X12132425Y18796000D01*
X11975501Y18861000D01*
X11646499Y18861000D01*
X11489575Y18796000D01*
X10354420Y18796000D01*
X10197501Y18860998D01*
X10160000Y18860998D01*
X10160000Y20447000D01*
X10150333Y20495601D01*
X10122803Y20536803D01*
X8979803Y21679803D01*
X8938601Y21707333D01*
X8890000Y21717000D01*
X7239000Y21717000D01*
X7239000Y22987000D01*
X8509000Y22987000D01*
X8557601Y22996667D01*
X8598803Y23024197D01*
X9450606Y23876000D01*
X13335000Y23876000D01*
X13335000Y22404606D01*
X13335000Y22404606D01*
G37*
X13335000Y22404606D02*
X12483197Y21552803D01*
X12455667Y21511601D01*
X12446000Y21463000D01*
X12446000Y18796000D01*
X12132425Y18796000D01*
X11975501Y18861000D01*
X11646499Y18861000D01*
X11489575Y18796000D01*
X10354420Y18796000D01*
X10197501Y18860998D01*
X10160000Y18860998D01*
X10160000Y20447000D01*
X10150333Y20495601D01*
X10122803Y20536803D01*
X8979803Y21679803D01*
X8938601Y21707333D01*
X8890000Y21717000D01*
X7239000Y21717000D01*
X7239000Y22987000D01*
X8509000Y22987000D01*
X8557601Y22996667D01*
X8598803Y23024197D01*
X9450606Y23876000D01*
X13335000Y23876000D01*
X13335000Y22404606D01*
G04 #@! TO.N,/Power*
G36*
X12483197Y27723197D02*
X12524399Y27695667D01*
X12570510Y27686024D01*
X18923000Y27561465D01*
X18923000Y26416000D01*
X14351000Y26416000D01*
X14302399Y26406333D01*
X14261197Y26378803D01*
X13917394Y26035000D01*
X9398000Y26035000D01*
X9349399Y26025333D01*
X9308197Y25997803D01*
X7694394Y24384000D01*
X7112000Y24384000D01*
X7112000Y25728394D01*
X7455803Y26072197D01*
X7483333Y26113399D01*
X7493000Y26162000D01*
X7493000Y28702000D01*
X11504394Y28702000D01*
X12483197Y27723197D01*
X12483197Y27723197D01*
G37*
X12483197Y27723197D02*
X12524399Y27695667D01*
X12570510Y27686024D01*
X18923000Y27561465D01*
X18923000Y26416000D01*
X14351000Y26416000D01*
X14302399Y26406333D01*
X14261197Y26378803D01*
X13917394Y26035000D01*
X9398000Y26035000D01*
X9349399Y26025333D01*
X9308197Y25997803D01*
X7694394Y24384000D01*
X7112000Y24384000D01*
X7112000Y25728394D01*
X7455803Y26072197D01*
X7483333Y26113399D01*
X7493000Y26162000D01*
X7493000Y28702000D01*
X11504394Y28702000D01*
X12483197Y27723197D01*
G04 #@! TO.N,/PowerOUT*
G36*
X13626197Y15912197D02*
X13667399Y15884667D01*
X13716000Y15875000D01*
X18923000Y15875000D01*
X18923000Y12065000D01*
X14986000Y12065000D01*
X14937399Y12055333D01*
X14896197Y12027803D01*
X13282394Y10414000D01*
X10414000Y10414000D01*
X10414000Y17018000D01*
X12520394Y17018000D01*
X13626197Y15912197D01*
X13626197Y15912197D01*
G37*
X13626197Y15912197D02*
X13667399Y15884667D01*
X13716000Y15875000D01*
X18923000Y15875000D01*
X18923000Y12065000D01*
X14986000Y12065000D01*
X14937399Y12055333D01*
X14896197Y12027803D01*
X13282394Y10414000D01*
X10414000Y10414000D01*
X10414000Y17018000D01*
X12520394Y17018000D01*
X13626197Y15912197D01*
G04 #@! TO.N,GND*
G36*
X19564000Y756000D02*
X756000Y756000D01*
X756000Y5900911D01*
X953000Y5900911D01*
X953000Y4259089D01*
X1581298Y2742242D01*
X2742242Y1581298D01*
X4259089Y953000D01*
X5900911Y953000D01*
X7417758Y1581298D01*
X8578702Y2742242D01*
X9207000Y4259089D01*
X9207000Y5900911D01*
X11113000Y5900911D01*
X11113000Y4259089D01*
X11741298Y2742242D01*
X12902242Y1581298D01*
X14419089Y953000D01*
X16060911Y953000D01*
X17577758Y1581298D01*
X18738702Y2742242D01*
X19367000Y4259089D01*
X19367000Y5900911D01*
X18738702Y7417758D01*
X17577758Y8578702D01*
X16060911Y9207000D01*
X14419089Y9207000D01*
X12902242Y8578702D01*
X11741298Y7417758D01*
X11113000Y5900911D01*
X9207000Y5900911D01*
X8578702Y7417758D01*
X7417758Y8578702D01*
X5900911Y9207000D01*
X4259089Y9207000D01*
X2742242Y8578702D01*
X1581298Y7417758D01*
X953000Y5900911D01*
X756000Y5900911D01*
X756000Y15430500D01*
X1914135Y15430500D01*
X1914135Y14541500D01*
X1947275Y14374893D01*
X2041650Y14233650D01*
X2182893Y14139275D01*
X2349500Y14106135D01*
X3746500Y14106135D01*
X3913107Y14139275D01*
X4054350Y14233650D01*
X4104697Y14309000D01*
X4277303Y14309000D01*
X4327650Y14233650D01*
X4468893Y14139275D01*
X4635500Y14106135D01*
X6032500Y14106135D01*
X6199107Y14139275D01*
X6340350Y14233650D01*
X6390697Y14309000D01*
X6690303Y14309000D01*
X6740650Y14233650D01*
X6881893Y14139275D01*
X7048500Y14106135D01*
X8445500Y14106135D01*
X8612107Y14139275D01*
X8753350Y14233650D01*
X8803697Y14309000D01*
X9860000Y14309000D01*
X9860000Y10287000D01*
X9892503Y10123594D01*
X9985065Y9985065D01*
X10123594Y9892503D01*
X10287000Y9860000D01*
X13335000Y9860000D01*
X13498406Y9892503D01*
X13636935Y9985065D01*
X15154505Y11502635D01*
X16510000Y11502635D01*
X16552054Y11511000D01*
X17483946Y11511000D01*
X17526000Y11502635D01*
X19050000Y11502635D01*
X19216607Y11535775D01*
X19357850Y11630150D01*
X19452225Y11771393D01*
X19485365Y11938000D01*
X19485365Y13462000D01*
X19477000Y13504054D01*
X19477000Y14435946D01*
X19485365Y14478000D01*
X19485365Y16002000D01*
X19452225Y16168607D01*
X19357850Y16309850D01*
X19216607Y16404225D01*
X19050000Y16437365D01*
X17526000Y16437365D01*
X17483946Y16429000D01*
X16552054Y16429000D01*
X16510000Y16437365D01*
X14986000Y16437365D01*
X14943946Y16429000D01*
X13892870Y16429000D01*
X12903617Y17418253D01*
X12887850Y17441850D01*
X12746607Y17536225D01*
X12739055Y17537727D01*
X12736406Y17539497D01*
X12573000Y17572000D01*
X10287000Y17572000D01*
X10123594Y17539497D01*
X10120945Y17537727D01*
X10113393Y17536225D01*
X9972150Y17441850D01*
X9877775Y17300607D01*
X9844635Y17134000D01*
X9844635Y15663000D01*
X8803697Y15663000D01*
X8753350Y15738350D01*
X8612107Y15832725D01*
X8445500Y15865865D01*
X7048500Y15865865D01*
X6881893Y15832725D01*
X6740650Y15738350D01*
X6690303Y15663000D01*
X6390697Y15663000D01*
X6340350Y15738350D01*
X6199107Y15832725D01*
X6032500Y15865865D01*
X4635500Y15865865D01*
X4468893Y15832725D01*
X4327650Y15738350D01*
X4277303Y15663000D01*
X4104697Y15663000D01*
X4054350Y15738350D01*
X3913107Y15832725D01*
X3746500Y15865865D01*
X2349500Y15865865D01*
X2182893Y15832725D01*
X2041650Y15738350D01*
X1947275Y15597107D01*
X1914135Y15430500D01*
X756000Y15430500D01*
X756000Y17335500D01*
X1914135Y17335500D01*
X1914135Y16446500D01*
X1947275Y16279893D01*
X2041650Y16138650D01*
X2182893Y16044275D01*
X2349500Y16011135D01*
X3746500Y16011135D01*
X3913107Y16044275D01*
X4054350Y16138650D01*
X4104697Y16214000D01*
X4277303Y16214000D01*
X4327650Y16138650D01*
X4468893Y16044275D01*
X4635500Y16011135D01*
X6032500Y16011135D01*
X6199107Y16044275D01*
X6340350Y16138650D01*
X6434725Y16279893D01*
X6467865Y16446500D01*
X6467865Y17335500D01*
X6434725Y17502107D01*
X6392000Y17566050D01*
X6392000Y17866303D01*
X6467350Y17916650D01*
X6561725Y18057893D01*
X6594865Y18224500D01*
X6594865Y19621500D01*
X6561725Y19788107D01*
X6467350Y19929350D01*
X6326107Y20023725D01*
X6159500Y20056865D01*
X6143000Y20056865D01*
X6143000Y21330226D01*
X6193225Y21405393D01*
X6226365Y21572000D01*
X6226365Y23132000D01*
X6605635Y23132000D01*
X6605635Y21572000D01*
X6638775Y21405393D01*
X6733150Y21264150D01*
X6874393Y21169775D01*
X7041000Y21136635D01*
X7691000Y21136635D01*
X7823547Y21163000D01*
X8713130Y21163000D01*
X9606000Y20270130D01*
X9606000Y18669000D01*
X9638503Y18505594D01*
X9731065Y18367065D01*
X9869594Y18274503D01*
X10033000Y18242000D01*
X12573000Y18242000D01*
X12736406Y18274503D01*
X12874935Y18367065D01*
X12967497Y18505594D01*
X13000000Y18669000D01*
X13000000Y18856754D01*
X13015365Y18934000D01*
X13015365Y21301495D01*
X13763935Y22050065D01*
X13856497Y22188594D01*
X13889000Y22352000D01*
X13889000Y24003000D01*
X13856497Y24166406D01*
X13763935Y24304935D01*
X13743265Y24318747D01*
X13737850Y24326850D01*
X13596607Y24421225D01*
X13430000Y24454365D01*
X9430000Y24454365D01*
X9263393Y24421225D01*
X9122150Y24326850D01*
X9116735Y24318747D01*
X9096065Y24304935D01*
X8332130Y23541000D01*
X7823547Y23541000D01*
X7691000Y23567365D01*
X7041000Y23567365D01*
X6874393Y23534225D01*
X6733150Y23439850D01*
X6638775Y23298607D01*
X6605635Y23132000D01*
X6226365Y23132000D01*
X6193225Y23298607D01*
X6098850Y23439850D01*
X5957607Y23534225D01*
X5791000Y23567365D01*
X5141000Y23567365D01*
X4974393Y23534225D01*
X4833150Y23439850D01*
X4738775Y23298607D01*
X4705635Y23132000D01*
X4705635Y21572000D01*
X4738775Y21405393D01*
X4789000Y21330225D01*
X4789001Y19238681D01*
X4775737Y19172000D01*
X4812004Y18989678D01*
X4828281Y18907848D01*
X4835135Y18897590D01*
X4835135Y18224500D01*
X4868275Y18057893D01*
X4962650Y17916650D01*
X5038001Y17866303D01*
X5038001Y17770865D01*
X4635500Y17770865D01*
X4468893Y17737725D01*
X4327650Y17643350D01*
X4277303Y17568000D01*
X4104697Y17568000D01*
X4054350Y17643350D01*
X3913107Y17737725D01*
X3746500Y17770865D01*
X2349500Y17770865D01*
X2182893Y17737725D01*
X2041650Y17643350D01*
X1947275Y17502107D01*
X1914135Y17335500D01*
X756000Y17335500D01*
X756000Y25781000D01*
X1342635Y25781000D01*
X1342635Y24257000D01*
X1375775Y24090393D01*
X1470150Y23949150D01*
X1611393Y23854775D01*
X1778000Y23821635D01*
X3302000Y23821635D01*
X3468607Y23854775D01*
X3609850Y23949150D01*
X3704225Y24090393D01*
X3737365Y24257000D01*
X3737365Y24375000D01*
X4705635Y24375000D01*
X4705635Y24272000D01*
X4738775Y24105393D01*
X4833150Y23964150D01*
X4974393Y23869775D01*
X5141000Y23836635D01*
X5791000Y23836635D01*
X5957607Y23869775D01*
X6098850Y23964150D01*
X6193225Y24105393D01*
X6226365Y24272000D01*
X6226365Y25832000D01*
X6193225Y25998607D01*
X6098850Y26139850D01*
X5957607Y26234225D01*
X5791000Y26267365D01*
X5141000Y26267365D01*
X4974393Y26234225D01*
X4833150Y26139850D01*
X4738775Y25998607D01*
X4705635Y25832000D01*
X4705635Y25729000D01*
X4106000Y25729000D01*
X4106000Y26869635D01*
X4127500Y26869635D01*
X4294107Y26902775D01*
X4435350Y26997150D01*
X4529725Y27138393D01*
X4562865Y27305000D01*
X4562865Y28194000D01*
X4529725Y28360607D01*
X4435350Y28501850D01*
X4294107Y28596225D01*
X4127500Y28629365D01*
X2730500Y28629365D01*
X2563893Y28596225D01*
X2422650Y28501850D01*
X2328275Y28360607D01*
X2295135Y28194000D01*
X2295135Y27305000D01*
X2328275Y27138393D01*
X2422650Y26997150D01*
X2563893Y26902775D01*
X2730500Y26869635D01*
X2752000Y26869635D01*
X2752001Y26216365D01*
X1778000Y26216365D01*
X1611393Y26183225D01*
X1470150Y26088850D01*
X1375775Y25947607D01*
X1342635Y25781000D01*
X756000Y25781000D01*
X756000Y30099000D01*
X2295135Y30099000D01*
X2295135Y29210000D01*
X2328275Y29043393D01*
X2422650Y28902150D01*
X2563893Y28807775D01*
X2730500Y28774635D01*
X4127500Y28774635D01*
X4294107Y28807775D01*
X4435350Y28902150D01*
X4485697Y28977500D01*
X6260079Y28977500D01*
X6939000Y28298578D01*
X6939000Y26338870D01*
X6753733Y26153603D01*
X6733150Y26139850D01*
X6719397Y26119267D01*
X6683065Y26082935D01*
X6590503Y25944406D01*
X6558000Y25781000D01*
X6558000Y24257000D01*
X6590503Y24093594D01*
X6683065Y23955065D01*
X6821594Y23862503D01*
X6985000Y23830000D01*
X7747000Y23830000D01*
X7910406Y23862503D01*
X8048935Y23955065D01*
X9574870Y25481000D01*
X13970000Y25481000D01*
X14133406Y25513503D01*
X14271935Y25606065D01*
X14527870Y25862000D01*
X14943946Y25862000D01*
X14986000Y25853635D01*
X16510000Y25853635D01*
X16552054Y25862000D01*
X17483946Y25862000D01*
X17526000Y25853635D01*
X19050000Y25853635D01*
X19216607Y25886775D01*
X19357850Y25981150D01*
X19452225Y26122393D01*
X19485365Y26289000D01*
X19485365Y27813000D01*
X19452225Y27979607D01*
X19357850Y28120850D01*
X19216607Y28215225D01*
X19050000Y28248365D01*
X17526000Y28248365D01*
X17359393Y28215225D01*
X17259080Y28148198D01*
X16762344Y28157938D01*
X16676607Y28215225D01*
X16510000Y28248365D01*
X14986000Y28248365D01*
X14819393Y28215225D01*
X14791492Y28196582D01*
X12753324Y28236546D01*
X11858935Y29130935D01*
X11720406Y29223497D01*
X11557000Y29256000D01*
X11445365Y29256000D01*
X11445365Y29888000D01*
X11412225Y30054607D01*
X11317850Y30195850D01*
X11176607Y30290225D01*
X11010000Y30323365D01*
X9310000Y30323365D01*
X9143393Y30290225D01*
X9002150Y30195850D01*
X8907775Y30054607D01*
X8874635Y29888000D01*
X8874635Y29256000D01*
X7896422Y29256000D01*
X7066364Y30086057D01*
X7028590Y30142590D01*
X6804652Y30292220D01*
X6607178Y30331500D01*
X6607176Y30331500D01*
X6540500Y30344763D01*
X6473824Y30331500D01*
X4485697Y30331500D01*
X4435350Y30406850D01*
X4294107Y30501225D01*
X4127500Y30534365D01*
X2730500Y30534365D01*
X2563893Y30501225D01*
X2422650Y30406850D01*
X2328275Y30265607D01*
X2295135Y30099000D01*
X756000Y30099000D01*
X756000Y36380911D01*
X953000Y36380911D01*
X953000Y34739089D01*
X1581298Y33222242D01*
X2742242Y32061298D01*
X4259089Y31433000D01*
X5900911Y31433000D01*
X7417758Y32061298D01*
X8578702Y33222242D01*
X9207000Y34739089D01*
X9207000Y36380911D01*
X11113000Y36380911D01*
X11113000Y34739089D01*
X11741298Y33222242D01*
X12902242Y32061298D01*
X14419089Y31433000D01*
X16060911Y31433000D01*
X17577758Y32061298D01*
X18738702Y33222242D01*
X19367000Y34739089D01*
X19367000Y36380911D01*
X18738702Y37897758D01*
X17577758Y39058702D01*
X16060911Y39687000D01*
X14419089Y39687000D01*
X12902242Y39058702D01*
X11741298Y37897758D01*
X11113000Y36380911D01*
X9207000Y36380911D01*
X8578702Y37897758D01*
X7417758Y39058702D01*
X5900911Y39687000D01*
X4259089Y39687000D01*
X2742242Y39058702D01*
X1581298Y37897758D01*
X953000Y36380911D01*
X756000Y36380911D01*
X756000Y39884000D01*
X19564001Y39884000D01*
X19564000Y756000D01*
X19564000Y756000D01*
G37*
X19564000Y756000D02*
X756000Y756000D01*
X756000Y5900911D01*
X953000Y5900911D01*
X953000Y4259089D01*
X1581298Y2742242D01*
X2742242Y1581298D01*
X4259089Y953000D01*
X5900911Y953000D01*
X7417758Y1581298D01*
X8578702Y2742242D01*
X9207000Y4259089D01*
X9207000Y5900911D01*
X11113000Y5900911D01*
X11113000Y4259089D01*
X11741298Y2742242D01*
X12902242Y1581298D01*
X14419089Y953000D01*
X16060911Y953000D01*
X17577758Y1581298D01*
X18738702Y2742242D01*
X19367000Y4259089D01*
X19367000Y5900911D01*
X18738702Y7417758D01*
X17577758Y8578702D01*
X16060911Y9207000D01*
X14419089Y9207000D01*
X12902242Y8578702D01*
X11741298Y7417758D01*
X11113000Y5900911D01*
X9207000Y5900911D01*
X8578702Y7417758D01*
X7417758Y8578702D01*
X5900911Y9207000D01*
X4259089Y9207000D01*
X2742242Y8578702D01*
X1581298Y7417758D01*
X953000Y5900911D01*
X756000Y5900911D01*
X756000Y15430500D01*
X1914135Y15430500D01*
X1914135Y14541500D01*
X1947275Y14374893D01*
X2041650Y14233650D01*
X2182893Y14139275D01*
X2349500Y14106135D01*
X3746500Y14106135D01*
X3913107Y14139275D01*
X4054350Y14233650D01*
X4104697Y14309000D01*
X4277303Y14309000D01*
X4327650Y14233650D01*
X4468893Y14139275D01*
X4635500Y14106135D01*
X6032500Y14106135D01*
X6199107Y14139275D01*
X6340350Y14233650D01*
X6390697Y14309000D01*
X6690303Y14309000D01*
X6740650Y14233650D01*
X6881893Y14139275D01*
X7048500Y14106135D01*
X8445500Y14106135D01*
X8612107Y14139275D01*
X8753350Y14233650D01*
X8803697Y14309000D01*
X9860000Y14309000D01*
X9860000Y10287000D01*
X9892503Y10123594D01*
X9985065Y9985065D01*
X10123594Y9892503D01*
X10287000Y9860000D01*
X13335000Y9860000D01*
X13498406Y9892503D01*
X13636935Y9985065D01*
X15154505Y11502635D01*
X16510000Y11502635D01*
X16552054Y11511000D01*
X17483946Y11511000D01*
X17526000Y11502635D01*
X19050000Y11502635D01*
X19216607Y11535775D01*
X19357850Y11630150D01*
X19452225Y11771393D01*
X19485365Y11938000D01*
X19485365Y13462000D01*
X19477000Y13504054D01*
X19477000Y14435946D01*
X19485365Y14478000D01*
X19485365Y16002000D01*
X19452225Y16168607D01*
X19357850Y16309850D01*
X19216607Y16404225D01*
X19050000Y16437365D01*
X17526000Y16437365D01*
X17483946Y16429000D01*
X16552054Y16429000D01*
X16510000Y16437365D01*
X14986000Y16437365D01*
X14943946Y16429000D01*
X13892870Y16429000D01*
X12903617Y17418253D01*
X12887850Y17441850D01*
X12746607Y17536225D01*
X12739055Y17537727D01*
X12736406Y17539497D01*
X12573000Y17572000D01*
X10287000Y17572000D01*
X10123594Y17539497D01*
X10120945Y17537727D01*
X10113393Y17536225D01*
X9972150Y17441850D01*
X9877775Y17300607D01*
X9844635Y17134000D01*
X9844635Y15663000D01*
X8803697Y15663000D01*
X8753350Y15738350D01*
X8612107Y15832725D01*
X8445500Y15865865D01*
X7048500Y15865865D01*
X6881893Y15832725D01*
X6740650Y15738350D01*
X6690303Y15663000D01*
X6390697Y15663000D01*
X6340350Y15738350D01*
X6199107Y15832725D01*
X6032500Y15865865D01*
X4635500Y15865865D01*
X4468893Y15832725D01*
X4327650Y15738350D01*
X4277303Y15663000D01*
X4104697Y15663000D01*
X4054350Y15738350D01*
X3913107Y15832725D01*
X3746500Y15865865D01*
X2349500Y15865865D01*
X2182893Y15832725D01*
X2041650Y15738350D01*
X1947275Y15597107D01*
X1914135Y15430500D01*
X756000Y15430500D01*
X756000Y17335500D01*
X1914135Y17335500D01*
X1914135Y16446500D01*
X1947275Y16279893D01*
X2041650Y16138650D01*
X2182893Y16044275D01*
X2349500Y16011135D01*
X3746500Y16011135D01*
X3913107Y16044275D01*
X4054350Y16138650D01*
X4104697Y16214000D01*
X4277303Y16214000D01*
X4327650Y16138650D01*
X4468893Y16044275D01*
X4635500Y16011135D01*
X6032500Y16011135D01*
X6199107Y16044275D01*
X6340350Y16138650D01*
X6434725Y16279893D01*
X6467865Y16446500D01*
X6467865Y17335500D01*
X6434725Y17502107D01*
X6392000Y17566050D01*
X6392000Y17866303D01*
X6467350Y17916650D01*
X6561725Y18057893D01*
X6594865Y18224500D01*
X6594865Y19621500D01*
X6561725Y19788107D01*
X6467350Y19929350D01*
X6326107Y20023725D01*
X6159500Y20056865D01*
X6143000Y20056865D01*
X6143000Y21330226D01*
X6193225Y21405393D01*
X6226365Y21572000D01*
X6226365Y23132000D01*
X6605635Y23132000D01*
X6605635Y21572000D01*
X6638775Y21405393D01*
X6733150Y21264150D01*
X6874393Y21169775D01*
X7041000Y21136635D01*
X7691000Y21136635D01*
X7823547Y21163000D01*
X8713130Y21163000D01*
X9606000Y20270130D01*
X9606000Y18669000D01*
X9638503Y18505594D01*
X9731065Y18367065D01*
X9869594Y18274503D01*
X10033000Y18242000D01*
X12573000Y18242000D01*
X12736406Y18274503D01*
X12874935Y18367065D01*
X12967497Y18505594D01*
X13000000Y18669000D01*
X13000000Y18856754D01*
X13015365Y18934000D01*
X13015365Y21301495D01*
X13763935Y22050065D01*
X13856497Y22188594D01*
X13889000Y22352000D01*
X13889000Y24003000D01*
X13856497Y24166406D01*
X13763935Y24304935D01*
X13743265Y24318747D01*
X13737850Y24326850D01*
X13596607Y24421225D01*
X13430000Y24454365D01*
X9430000Y24454365D01*
X9263393Y24421225D01*
X9122150Y24326850D01*
X9116735Y24318747D01*
X9096065Y24304935D01*
X8332130Y23541000D01*
X7823547Y23541000D01*
X7691000Y23567365D01*
X7041000Y23567365D01*
X6874393Y23534225D01*
X6733150Y23439850D01*
X6638775Y23298607D01*
X6605635Y23132000D01*
X6226365Y23132000D01*
X6193225Y23298607D01*
X6098850Y23439850D01*
X5957607Y23534225D01*
X5791000Y23567365D01*
X5141000Y23567365D01*
X4974393Y23534225D01*
X4833150Y23439850D01*
X4738775Y23298607D01*
X4705635Y23132000D01*
X4705635Y21572000D01*
X4738775Y21405393D01*
X4789000Y21330225D01*
X4789001Y19238681D01*
X4775737Y19172000D01*
X4812004Y18989678D01*
X4828281Y18907848D01*
X4835135Y18897590D01*
X4835135Y18224500D01*
X4868275Y18057893D01*
X4962650Y17916650D01*
X5038001Y17866303D01*
X5038001Y17770865D01*
X4635500Y17770865D01*
X4468893Y17737725D01*
X4327650Y17643350D01*
X4277303Y17568000D01*
X4104697Y17568000D01*
X4054350Y17643350D01*
X3913107Y17737725D01*
X3746500Y17770865D01*
X2349500Y17770865D01*
X2182893Y17737725D01*
X2041650Y17643350D01*
X1947275Y17502107D01*
X1914135Y17335500D01*
X756000Y17335500D01*
X756000Y25781000D01*
X1342635Y25781000D01*
X1342635Y24257000D01*
X1375775Y24090393D01*
X1470150Y23949150D01*
X1611393Y23854775D01*
X1778000Y23821635D01*
X3302000Y23821635D01*
X3468607Y23854775D01*
X3609850Y23949150D01*
X3704225Y24090393D01*
X3737365Y24257000D01*
X3737365Y24375000D01*
X4705635Y24375000D01*
X4705635Y24272000D01*
X4738775Y24105393D01*
X4833150Y23964150D01*
X4974393Y23869775D01*
X5141000Y23836635D01*
X5791000Y23836635D01*
X5957607Y23869775D01*
X6098850Y23964150D01*
X6193225Y24105393D01*
X6226365Y24272000D01*
X6226365Y25832000D01*
X6193225Y25998607D01*
X6098850Y26139850D01*
X5957607Y26234225D01*
X5791000Y26267365D01*
X5141000Y26267365D01*
X4974393Y26234225D01*
X4833150Y26139850D01*
X4738775Y25998607D01*
X4705635Y25832000D01*
X4705635Y25729000D01*
X4106000Y25729000D01*
X4106000Y26869635D01*
X4127500Y26869635D01*
X4294107Y26902775D01*
X4435350Y26997150D01*
X4529725Y27138393D01*
X4562865Y27305000D01*
X4562865Y28194000D01*
X4529725Y28360607D01*
X4435350Y28501850D01*
X4294107Y28596225D01*
X4127500Y28629365D01*
X2730500Y28629365D01*
X2563893Y28596225D01*
X2422650Y28501850D01*
X2328275Y28360607D01*
X2295135Y28194000D01*
X2295135Y27305000D01*
X2328275Y27138393D01*
X2422650Y26997150D01*
X2563893Y26902775D01*
X2730500Y26869635D01*
X2752000Y26869635D01*
X2752001Y26216365D01*
X1778000Y26216365D01*
X1611393Y26183225D01*
X1470150Y26088850D01*
X1375775Y25947607D01*
X1342635Y25781000D01*
X756000Y25781000D01*
X756000Y30099000D01*
X2295135Y30099000D01*
X2295135Y29210000D01*
X2328275Y29043393D01*
X2422650Y28902150D01*
X2563893Y28807775D01*
X2730500Y28774635D01*
X4127500Y28774635D01*
X4294107Y28807775D01*
X4435350Y28902150D01*
X4485697Y28977500D01*
X6260079Y28977500D01*
X6939000Y28298578D01*
X6939000Y26338870D01*
X6753733Y26153603D01*
X6733150Y26139850D01*
X6719397Y26119267D01*
X6683065Y26082935D01*
X6590503Y25944406D01*
X6558000Y25781000D01*
X6558000Y24257000D01*
X6590503Y24093594D01*
X6683065Y23955065D01*
X6821594Y23862503D01*
X6985000Y23830000D01*
X7747000Y23830000D01*
X7910406Y23862503D01*
X8048935Y23955065D01*
X9574870Y25481000D01*
X13970000Y25481000D01*
X14133406Y25513503D01*
X14271935Y25606065D01*
X14527870Y25862000D01*
X14943946Y25862000D01*
X14986000Y25853635D01*
X16510000Y25853635D01*
X16552054Y25862000D01*
X17483946Y25862000D01*
X17526000Y25853635D01*
X19050000Y25853635D01*
X19216607Y25886775D01*
X19357850Y25981150D01*
X19452225Y26122393D01*
X19485365Y26289000D01*
X19485365Y27813000D01*
X19452225Y27979607D01*
X19357850Y28120850D01*
X19216607Y28215225D01*
X19050000Y28248365D01*
X17526000Y28248365D01*
X17359393Y28215225D01*
X17259080Y28148198D01*
X16762344Y28157938D01*
X16676607Y28215225D01*
X16510000Y28248365D01*
X14986000Y28248365D01*
X14819393Y28215225D01*
X14791492Y28196582D01*
X12753324Y28236546D01*
X11858935Y29130935D01*
X11720406Y29223497D01*
X11557000Y29256000D01*
X11445365Y29256000D01*
X11445365Y29888000D01*
X11412225Y30054607D01*
X11317850Y30195850D01*
X11176607Y30290225D01*
X11010000Y30323365D01*
X9310000Y30323365D01*
X9143393Y30290225D01*
X9002150Y30195850D01*
X8907775Y30054607D01*
X8874635Y29888000D01*
X8874635Y29256000D01*
X7896422Y29256000D01*
X7066364Y30086057D01*
X7028590Y30142590D01*
X6804652Y30292220D01*
X6607178Y30331500D01*
X6607176Y30331500D01*
X6540500Y30344763D01*
X6473824Y30331500D01*
X4485697Y30331500D01*
X4435350Y30406850D01*
X4294107Y30501225D01*
X4127500Y30534365D01*
X2730500Y30534365D01*
X2563893Y30501225D01*
X2422650Y30406850D01*
X2328275Y30265607D01*
X2295135Y30099000D01*
X756000Y30099000D01*
X756000Y36380911D01*
X953000Y36380911D01*
X953000Y34739089D01*
X1581298Y33222242D01*
X2742242Y32061298D01*
X4259089Y31433000D01*
X5900911Y31433000D01*
X7417758Y32061298D01*
X8578702Y33222242D01*
X9207000Y34739089D01*
X9207000Y36380911D01*
X11113000Y36380911D01*
X11113000Y34739089D01*
X11741298Y33222242D01*
X12902242Y32061298D01*
X14419089Y31433000D01*
X16060911Y31433000D01*
X17577758Y32061298D01*
X18738702Y33222242D01*
X19367000Y34739089D01*
X19367000Y36380911D01*
X18738702Y37897758D01*
X17577758Y39058702D01*
X16060911Y39687000D01*
X14419089Y39687000D01*
X12902242Y39058702D01*
X11741298Y37897758D01*
X11113000Y36380911D01*
X9207000Y36380911D01*
X8578702Y37897758D01*
X7417758Y39058702D01*
X5900911Y39687000D01*
X4259089Y39687000D01*
X2742242Y39058702D01*
X1581298Y37897758D01*
X953000Y36380911D01*
X756000Y36380911D01*
X756000Y39884000D01*
X19564001Y39884000D01*
X19564000Y756000D01*
G04 #@! TD*
M02*
