%
T1C.02F197S55
X0201Y02
T2C.025F197S55
X0319Y0215
X0327Y0215
X0319Y0225
X0327Y0225
T3C.028F197S55
X01635Y01966
X01635Y02034
T4C.035F197S55
X0125Y015
X0115Y015
X0125Y016
X0115Y016
X0125Y017
X0115Y017
X0125Y018
X0115Y018
X0125Y019
X0115Y019
X0125Y02
X0115Y02
X0125Y021
X0115Y021
X0125Y022
X0115Y022
X0125Y023
X0115Y023
X0125Y024
X0115Y024
X0125Y025
X0115Y025
X0125Y026
X0115Y026
X0125Y027
X0115Y027
X0125Y028
X0115Y028
X0125Y029
X0115Y029
X0125Y03
X0115Y03
X015Y0325
X016Y0325
X014Y0325
X015Y0315
X016Y0315
X014Y0315
X015914Y0231
X01525Y015
X01625Y015
X01525Y014
X01625Y014
X01625Y0125
X01475Y012494
X01475Y011506
X01625Y0115
X01775Y011506
X01775Y012494
X01725Y014
X01825Y014
X01725Y015
X01825Y015
X01895Y01885
X017886Y0231
X017Y0315
X018Y0315
X017Y0325
X018Y0325
X021Y0325
X019Y0325
X02Y0325
X021Y0315
X019Y0315
X02Y0315
X01995Y01885
X01925Y015
X02025Y015
X02125Y015
X02025Y014
X02125Y014
X01925Y014
X0209Y0125
X01925Y0125
X01925Y0115
X0209Y0115
X0229Y0115
X0239Y0115
X0229Y0125
X0239Y0125
X02325Y014
X02225Y014
X02325Y015
X02225Y015
X022Y0315
X023Y0315
X023Y0325
X022Y0325
X026Y0325
X024Y0325
X025Y0325
X026Y0315
X024Y0315
X025Y0315
X02625Y015
X02525Y015
X02425Y015
X02525Y014
X02625Y014
X02425Y014
X0259Y0125
X0249Y0125
X0259Y0115
X0249Y0115
X028097Y011034
X0269Y0115
X0269Y0125
X028097Y012734
X02825Y014
X02725Y014
X02725Y015
X02825Y015
X027Y0315
X028Y0315
X028Y0325
X027Y0325
X031Y0325
X03Y0325
X029Y0325
X03Y0315
X031Y0315
X029Y0315
X03Y02825
X029Y02825
X03Y02725
X029Y02725
X029Y02625
X03Y02625
X029Y02525
X03Y02525
X03Y02425
X029Y02425
X03Y02325
X029Y02325
X03Y02225
X029Y02225
X029Y02125
X03Y02125
X029Y02025
X03Y02025
X029Y01925
X03Y01925
X03Y01825
X029Y01825
X030617Y012734
X030617Y011034
X033Y0115
X032Y0115
X032Y0125
X033Y0125
X033175Y02543
X032175Y02643
X03181Y02644
X032175Y02743
X03181Y02743
X03181Y02842
X032175Y02843
X033175Y02943
X032Y0315
X033Y0315
X033Y0325
X032Y0325
X034Y0325
X034Y0315
X0347Y030394
X0347Y029406
X035815Y028716
X034175Y02843
X03417Y02842
X035815Y027716
X03417Y02743
X034175Y02743
X035815Y026716
X03417Y02644
X034175Y02643
X0355Y0185
X0355Y017
X0355Y016
X0355Y015
X034Y0125
X034Y0115
X0365Y015
X0365Y016
X0365Y017
X0365Y0185
X036815Y026216
X036815Y027216
X036815Y028216
T5C.037F197S55
X01675Y01583
X01675Y0181
X016475Y02752
X016475Y029396
X02531Y02657
X02605Y02163
X02519Y02072
X026059Y018947
X02148Y01759
X02687Y01759
X031Y0182
X031Y02474
T6C.06F089S55
X036105Y025666
T7C.09F066S55
X0338Y0196
X0338Y0244
T8C.12598F035S794
X012Y012
X012Y032
X036Y032
X036Y012
M30
