*
*
G04 PADS9.0.2 Build Number: 372616 generated Gerber (RS-274-X) file*
G04 PC Version=2.1*
*
%IN "STM32F10XRXT.pcb"*%
*
%MOIN*%
*
%FSLAX35Y35*%
*
*
*
*
G04 PC Standard Apertures*
*
*
G04 Thermal Relief Aperture macro.*
%AMTER*
1,1,$1,0,0*
1,0,$1-$2,0,0*
21,0,$3,$4,0,0,45*
21,0,$3,$4,0,0,135*
%
*
*
G04 Annular Aperture macro.*
%AMANN*
1,1,$1,0,0*
1,0,$2,0,0*
%
*
*
G04 Odd Aperture macro.*
%AMODD*
1,1,$1,0,0*
1,0,$1-0.005,0,0*
%
*
*
G04 PC Custom Aperture Macros*
*
*
*
*
*
*
G04 PC Aperture Table*
*
%ADD010R,0.039X0.039*%
%ADD011C,0.06*%
%ADD012R,0.07X0.07*%
%ADD013C,0.23622*%
%ADD017C,0.02*%
%ADD020C,0.012*%
%ADD022C,0.055*%
%ADD024C,0.001*%
%ADD025C,0.01*%
%ADD031C,0.07*%
%ADD035C,0.065*%
%ADD036C,0.008*%
%ADD040R,0.06X0.06*%
%ADD043R,0.055X0.055*%
%ADD044R,0.05X0.05*%
%ADD045R,0.04X0.04*%
%ADD046R,0.065X0.065*%
%ADD047C,0.14*%
%ADD048R,0.056X0.056*%
%ADD049C,0.075*%
%ADD050C,0.01339*%
%ADD051C,0.025*%
*
*
*
*
G04 PC Circuitry*
G04 Layer Name STM32F10XRXT.pcb - circuitry*
%LPD*%
*
*
G04 PC Custom Flashes*
G04 Layer Name STM32F10XRXT.pcb - flashes*
%LPD*%
*
*
G04 PC Circuitry*
G04 Layer Name STM32F10XRXT.pcb - circuitry*
%LPD*%
*
G54D10*
G01X246800Y234150D02*
Y235850D01*
X239200Y234150D02*
Y235850D01*
X201300Y222650D02*
Y224350D01*
X193700Y222650D02*
Y224350D01*
X164150Y223200D02*
X165850D01*
X164150Y230800D02*
X165850D01*
X172150Y223200D02*
X173850D01*
X172150Y230800D02*
X173850D01*
X150700Y204350D02*
Y202650D01*
X158300Y204350D02*
Y202650D01*
X150700Y196350D02*
Y194650D01*
X158300Y196350D02*
Y194650D01*
X335850Y226800D02*
X334150D01*
X335850Y219200D02*
X334150D01*
X134150Y256200D02*
X135850D01*
X134150Y263800D02*
X135850D01*
X333350Y171300D02*
X331650D01*
X333350Y163700D02*
X331650D01*
X279150Y183700D02*
X280850D01*
X279150Y191300D02*
X280850D01*
X325800Y181150D02*
Y182850D01*
X318200Y181150D02*
Y182850D01*
X200300Y214650D02*
Y216350D01*
X192700Y214650D02*
Y216350D01*
X193629Y288584D02*
Y286884D01*
X201229Y288584D02*
Y286884D01*
X236350Y286300D02*
X234650D01*
X236350Y278700D02*
X234650D01*
X355600Y200800D02*
X354400D01*
X355600Y193200D02*
X354400D01*
X189700Y210100D02*
Y208900D01*
X197300Y210100D02*
Y208900D01*
X251800Y226400D02*
Y227600D01*
X244200Y226400D02*
Y227600D01*
X281400Y156200D02*
X282600D01*
X281400Y163800D02*
X282600D01*
X312100Y219300D02*
X310900D01*
X312100Y211700D02*
X310900D01*
X309786Y204345D02*
Y203145D01*
X317386Y204345D02*
Y203145D01*
X317200Y295600D02*
Y294400D01*
X324800Y295600D02*
Y294400D01*
X183900Y116200D02*
X185100D01*
X183900Y123800D02*
X185100D01*
X154400Y116200D02*
X155600D01*
X154400Y123800D02*
X155600D01*
X240740Y305559D02*
Y304359D01*
X248340Y305559D02*
Y304359D01*
X308422Y289381D02*
X309622D01*
X308422Y296981D02*
X309622D01*
X214400Y125200D02*
X215600D01*
X214400Y132800D02*
X215600D01*
X222600D02*
X221400D01*
X222600Y125200D02*
X221400D01*
X251200Y198600D02*
Y197400D01*
X258800Y198600D02*
Y197400D01*
G54D11*
X361045Y256656D03*
G54D12*
X320000Y115000D03*
Y125000D03*
X330000Y115000D03*
Y125000D03*
X340000Y115000D03*
Y125000D03*
X365000Y150000D03*
X355000D03*
X365000Y160000D03*
X355000D03*
X365000Y170000D03*
X355000D03*
X368145Y262156D03*
X358145Y267156D03*
X368145Y272156D03*
X358145Y277156D03*
X368145Y282156D03*
X358145Y287156D03*
X297800Y166350D02*
Y158650D01*
G54D13*
X120000Y120000D03*
X360000Y320000D03*
X120000D03*
X360000Y120000D03*
G54D17*
X229000Y115000D02*
Y125000D01*
X115000Y185100D02*
X141150D01*
X150700Y194650*
Y195500*
X115000Y185100D02*
X112100D01*
X111700Y185500*
X108800*
X120000Y120000D02*
X138567Y138567D01*
Y142925*
X162941Y167300*
X178300*
X199500Y188500*
X150700Y195500D02*
Y203500D01*
X208700Y132903D02*
X207600Y134003D01*
Y154150*
X214800Y161350*
Y175900*
X199500Y188500D02*
X200250D01*
Y200000*
X201000*
X277300Y185550D02*
X264850Y198000D01*
X258800*
X277300Y175841D02*
X274159D01*
X274100Y175900*
X268700*
X277800Y175841D02*
X277300D01*
X282000Y163800D02*
X285365Y167165D01*
X269000Y125000D02*
X271313Y127313D01*
X280941*
X280971Y127342*
X259000Y125000D02*
X269000D01*
X258800Y198000D02*
Y207412D01*
X244200Y222012*
Y227000*
X280000Y191300D02*
X284400D01*
X284775Y191675*
Y192125*
X285150Y192500*
X290000*
X280000Y191300D02*
X268400Y202900D01*
X267041*
X247750Y222191*
Y235000*
X246800*
X280000Y183700D02*
X279150D01*
X277300Y185550*
X134150Y256200D02*
X125000Y260000D01*
X148000Y275000D02*
X156100D01*
X156300Y275200*
X164753*
X146000Y251500D02*
X135000Y256200D01*
X150700Y203500D02*
Y209750D01*
X164150Y223200*
X165000*
X200800Y215500D02*
X200300D01*
X235500Y278700D02*
X245086D01*
X270004Y303618*
X278618*
X290000Y315000*
X173000Y223200D02*
X165000D01*
X201000Y200000D02*
Y207800D01*
X201250Y208050*
Y215500*
X200800*
X375953Y228429D02*
Y298874D01*
X150000Y315000D02*
Y325000D01*
X164753Y293964D02*
X168696Y296096D01*
X193345Y287450D02*
X171813D01*
X170513Y288750*
X161167*
X150000Y299917*
Y315000*
X168696Y296096D02*
Y296158D01*
X193093*
X168696Y296096D02*
X159948Y304844D01*
X160000Y304896*
Y315000*
X235500Y286300D02*
X248584D01*
X268803Y306519*
X271519*
X280000Y315000*
X201229Y287734D02*
Y289421D01*
X194492Y296158*
X193093*
X160000Y315000D02*
Y325000D01*
G54D20*
X147500Y115063D02*
X140499D01*
X135562Y120000*
X120000*
X186963Y104164D02*
X177500Y115063D01*
X166368Y108270D02*
X152063D01*
X147500Y115063*
X166368Y108270D02*
X170931Y115063D01*
X177500*
X192500Y125000D02*
Y115533D01*
X184500*
Y116200*
X162500Y125000D02*
Y115533D01*
X155000*
Y116200*
X239000Y115000D02*
X234000Y120000D01*
Y126293*
X227493Y132800*
X222000*
X209000Y115000D02*
X191500Y132500D01*
X173707*
X167500Y138707*
Y158300*
X162500Y115000D02*
Y115533D01*
X192500Y115000D02*
Y115533D01*
X269000Y108150D02*
X278778D01*
X280971Y110342*
X269000Y108150D02*
X243695D01*
X243251Y108594*
X269000Y110250D02*
X273496D01*
X287771Y124525*
Y157051*
X284822Y160000*
X277882*
X260587Y177295*
Y189465*
X269000Y110250D02*
X263750D01*
X259000Y115000*
X243251Y108594D02*
X223826D01*
X217420Y115000*
X209000*
X243251Y108594D02*
X243450Y108793D01*
Y120550*
X239000Y125000*
X286767Y104164D02*
X306171Y127342D01*
X269000Y115000D02*
X273500D01*
X278500Y120000*
X280275*
X285671Y125395*
Y130834*
X282500Y134005*
Y140000*
X249000Y115000D02*
X254000Y120000D01*
Y126293*
X260207Y132500*
X265000*
X272500Y140000*
X365300Y103990D02*
X312452D01*
X306100Y110342*
X306171*
X365300Y103990D02*
X375830Y114590D01*
Y213080*
X366000Y223000*
X108800Y185500D02*
Y253800D01*
X115000Y260000*
X158599Y195500D02*
X158300D01*
X115000Y190000D02*
X125000D01*
X162000Y227000*
X168350*
X172150Y230800*
X173000*
X115000Y180000D02*
X125000D01*
X141647*
X154500Y192853*
Y198850*
X158300Y202650*
Y203400*
X115000Y170000D02*
X125000D01*
X134247*
X158599Y194351*
Y195500*
X155000Y123800D02*
Y124432D01*
X147500*
Y124937*
X120000Y120000D02*
Y135859D01*
X108800Y147059*
Y185500*
X115000Y160000D02*
X125000D01*
X130952*
X162452Y191500*
X163986*
X171800Y199314*
Y210374*
X186915Y225490*
Y241241*
X188375Y242700*
X192567*
Y242705*
X152500Y140000D02*
Y150000D01*
X158173Y155673*
Y157912*
X164861Y164600*
X179412*
X197812Y183000*
X200293*
X206450Y189157*
Y201859*
X115000Y150000D02*
X125000D01*
X163500Y188500*
X169500*
X158300Y195500D02*
Y196600D01*
X163500*
X191524Y172900D02*
X192324Y173700D01*
X199824Y181200*
X201039*
X208250Y188411*
Y202629*
X167500Y181000D02*
X170723Y184223D01*
X171920*
X175500Y187803*
Y189500*
X185500Y199500*
Y201374*
X189700Y205574*
Y209500*
X222000Y125200D02*
X221400D01*
X217600Y129000*
X212603*
X208700Y132903*
X184500Y123800D02*
Y124432D01*
X177500*
Y124937*
X232500Y140000D02*
Y150000D01*
Y201581*
X232150Y201931*
X229000Y125000D02*
X222000D01*
Y125200*
X209000Y125000D02*
X215000D01*
Y125200*
X162500Y140000D02*
Y150000D01*
Y159693*
X165607Y162800*
X181424*
X191524Y172900*
X182500Y140000D02*
Y150000D01*
Y156745*
X211850Y186095*
Y204249*
X192500Y140000D02*
Y150000D01*
Y163521*
X213650Y184671*
Y205164*
X181500Y188500D02*
X189500D01*
X169500D02*
Y189500D01*
X179500Y199500*
Y200500*
X172500Y140000D02*
Y150000D01*
X210050Y187550*
Y203418*
X208610Y204858*
Y232567*
X163500Y196600D02*
X169000Y202100D01*
Y210155*
X185115Y226270*
Y241986*
X187802Y244673*
X192567*
X212500Y140000D02*
Y150000D01*
Y154600*
X219250Y161350*
Y205673*
X216484Y208438*
Y232567*
X202500Y140000D02*
Y150000D01*
Y170434*
X215450Y183384*
Y206249*
X222500Y140000D02*
Y150000D01*
Y206324*
X218453Y210371*
Y232567*
X215000Y132800D02*
X213177D01*
X212500Y140000*
X215000Y132800D02*
X222000D01*
X319300Y153400D02*
X322200D01*
X319200Y147200D02*
Y153400D01*
X319300*
X319200Y144600D02*
Y147200D01*
X290000Y174200D02*
X288359Y175841D01*
X277800*
X290000Y174200D02*
Y182500D01*
X285365Y167165D02*
X290000Y171800D01*
Y174200*
X318200Y182000D02*
X316500D01*
X310000*
X309500Y182500*
X300000*
X297800Y162500D02*
X322200D01*
X282000Y156200D02*
X278250D01*
X254900Y179550*
Y200497*
X253197Y202200*
X250607*
X230264Y222543*
Y232567*
X272500Y140000D02*
Y150000D01*
X251200Y171300*
Y198000*
X282500Y140000D02*
Y150000D01*
Y156200*
X282000*
X242500Y140000D02*
Y150000D01*
Y196839*
X222390Y216949*
Y232567*
X252500Y140000D02*
Y150000D01*
X244500Y158000*
Y198526*
X224358Y218668*
Y232567*
X262500Y140000D02*
Y150000D01*
X247100Y165400*
Y199614*
X226327Y220387*
Y232567*
X249000Y125000D02*
X241500Y132500D01*
X232023*
X228296Y136227*
X226273*
X222500Y140000*
X290000Y182500D02*
X300000D01*
X297700Y142500D02*
Y151400D01*
X297800Y151500*
Y162500*
X317300Y142500D02*
X319200D01*
Y144600*
X317300Y142500D02*
X315400Y144400D01*
Y146599*
X251200Y198000D02*
Y198600D01*
X228295Y221505*
Y232567*
X290000Y192500D02*
X300000D01*
X347400Y165200D02*
X342700D01*
X340000Y128991D02*
Y136400D01*
X341100Y137500*
X344800*
X355000Y150000D02*
X344800D01*
Y152500*
X344000*
X344800Y150000D02*
X344000D01*
Y152500*
X360000Y196300D02*
Y222000D01*
X356500Y225500*
X360000Y196300D02*
X358400D01*
X358300Y196400*
X355000*
X322200Y171600D02*
Y177550D01*
X325800Y181150*
Y182000*
X360000Y120000D02*
X345000D01*
X340000Y125000*
Y128991*
X338000Y196000D02*
X348900D01*
X349300Y196400*
X355000*
Y185000D02*
Y193200D01*
X365000Y170000D02*
X369500Y174500D01*
Y186800*
X360000Y196300*
X355000Y160000D02*
X349800Y165200D01*
X347400*
X340000Y125000D02*
X344700D01*
X344700*
Y128500*
X344209Y128991*
X340000*
X330000Y125000D02*
Y130800D01*
X325200Y135600*
X320000Y125000D02*
X314300D01*
X311958Y127342*
X306171*
X344800Y137500D02*
Y150000D01*
X342500Y184800D02*
X338581D01*
Y196000*
X338000*
X342500Y165200D02*
X342700D01*
X325800Y182000D02*
Y182850D01*
X316150Y192500*
X300000*
X332500Y163700D02*
Y164249D01*
X342500*
Y165200*
X332500Y171300D02*
Y177550D01*
X339750Y184800*
X342500*
X332500Y171300D02*
X322200D01*
Y171600*
X331000Y152500D02*
X332500D01*
Y163700*
X331000Y152500D02*
X322200D01*
Y153400*
X158300Y203400D02*
Y203500D01*
X146000Y264500D02*
X136500D01*
Y275000*
X155086Y246339D02*
X136251D01*
X133751Y250000*
X125000*
X155086Y246339D02*
X168007Y260421D01*
X192567*
X136500Y275000D02*
X138000D01*
X115000Y200000D02*
X125000D01*
X140500Y215500*
X143642*
X159142Y231000*
X115000Y270000D02*
X125000D01*
X130000Y275000*
X136500*
X115000Y250000D02*
X125000D01*
X115000Y240000D02*
X125000D01*
X133928*
X136928Y243000*
X161675*
X177128Y258453*
X192567*
X115000Y230000D02*
X125000D01*
X130952*
X142152Y241200*
X165091*
X180375Y256484*
X192567*
X115000Y210000D02*
X125000D01*
X152300Y237300*
X168549*
X183796Y252547*
X192567*
X115000Y220000D02*
X125000D01*
X144400Y239400*
X167513*
X182629Y254516*
X192567*
X135000Y263800D02*
Y264500D01*
X136500*
X135000Y263800D02*
X136500D01*
Y264500*
X135000Y256200D02*
X134150D01*
X146000Y251500D02*
X148250D01*
X159140Y262390*
X192567*
X125000Y260000D02*
X115000D01*
X106505Y264450*
Y301843*
X110362Y305700*
X118800*
X120000Y306900*
Y320000*
X200800Y215500D02*
Y223500D01*
X201300*
X231500Y240736D02*
X230100D01*
X230264Y240900*
Y256800*
X231681Y202400D02*
X220421Y213660D01*
Y232567*
X232150Y201931D02*
X231681Y202400D01*
X204673Y257469D02*
Y278433D01*
X230264D02*
Y256800D01*
X217803*
X217134Y257469*
X204673*
X215450Y206249D02*
X214516Y207183D01*
Y232567*
X213650Y205164D02*
X212547Y206267D01*
Y232567*
X211850Y204249D02*
X210579Y205520D01*
Y232567*
X208250Y202629D02*
X206642Y204237D01*
Y232567*
X206450Y201859D02*
X204673Y203636D01*
Y232567*
X178858Y231000D02*
Y240820D01*
X186648Y248610*
X192567*
X200736Y232567D02*
Y253531D01*
X204673Y257469*
X208610Y232567D02*
Y236759D01*
X208651Y237649*
X238433Y240736D02*
X231500D01*
X238433Y256484D02*
X279534D01*
X285550Y262500*
X290000*
X238433Y258453D02*
X254932D01*
X268979Y272500*
X290000*
X238433Y260421D02*
X254235D01*
X276313Y282500*
X290000*
X238433Y262390D02*
X244352D01*
X248600Y266638*
Y267493*
X274007Y292900*
X297209*
X307409Y303100*
X328100*
X340000Y315000*
X238433Y264358D02*
X243775D01*
X246800Y267384*
Y268239*
X273361Y294800*
X295869*
X306469Y305400*
X320400*
X330000Y315000*
X238433Y266327D02*
X243198D01*
X245000Y268129*
Y268984*
X272716Y296700*
X294735*
X305535Y307500*
X312500*
X320000Y315000*
X238433Y268295D02*
Y268300D01*
X242625*
X243200Y268875*
Y269730*
X272070Y298600*
X293600*
X310000Y315000*
X238433Y270264D02*
X240756D01*
X244692Y274200*
X244997*
X271297Y300500*
X285500*
X300000Y315000*
X230264Y278433D02*
X235233D01*
X235500Y278700*
X228295Y278433D02*
Y282626D01*
X228400Y282731*
X231081*
X234650Y286300*
X235500*
X226327Y278433D02*
Y283243D01*
X230927Y287843*
Y288175*
X232203Y289451*
X244451*
X270000Y315000*
X224358Y278433D02*
Y284152D01*
X231457Y291251*
X240830*
X254172Y304593*
Y309172*
X260000Y315000*
X222390Y278433D02*
Y284730D01*
X230711Y293051*
X237032*
X248340Y304359*
Y304959*
X220421Y278433D02*
Y285307D01*
X225292Y290178*
Y300292*
X240000Y315000*
X218453Y278433D02*
Y286045D01*
X223379Y290971*
Y308379*
X230000Y315000*
X216484Y278433D02*
Y287864D01*
X220000Y291380*
Y315000*
X214516Y278433D02*
Y285244D01*
X213695Y286065*
Y305565*
X210000Y309260*
Y315000*
X212547Y278433D02*
Y284667D01*
X211895Y285319*
Y303105*
X200000Y315000*
X210579Y278433D02*
Y284089D01*
X210095Y284573*
Y294905*
X190000Y315000*
X208610Y278433D02*
Y283512D01*
X208295Y283827*
Y290085*
X183380Y315000*
X180000*
X206642Y278433D02*
Y282934D01*
X206495Y283081*
Y288916*
X190957Y304454*
X180546*
X170000Y315000*
X204673Y278433D02*
Y284290D01*
X201229Y287734*
X202705Y278433D02*
Y282626D01*
X202151Y283180*
X197615*
X193345Y287450*
X200736Y278433D02*
X177294D01*
X169477Y286250*
X160131*
X145324Y301057*
Y309676*
X140000Y315000*
X192567Y270264D02*
X181646D01*
X168360Y283550*
X157549*
X146772Y294327*
X130673*
X125000Y300000*
X192567Y268295D02*
X181069D01*
X167614Y281750*
X154067*
X145817Y290000*
X125000*
X192567Y266327D02*
X180491D01*
X166868Y279950*
X153321*
X150201Y283070*
X150154*
X192567Y264358D02*
X155240D01*
X155098Y264500*
X146000*
X197300Y209500D02*
X197100D01*
Y220100*
X196900Y220300*
X193700Y222030*
Y223500*
X189700Y209500D02*
X191050D01*
Y211450*
X191350Y213300*
Y215500*
X192700*
X191500Y200500D02*
X191100D01*
Y201900*
X197700Y208500*
Y209500*
X197300*
X179500Y200500D02*
Y215476D01*
X188723Y224699*
Y239215*
X190244Y240736*
X192567*
X192700Y215500D02*
X191350D01*
Y217700*
X190550Y219500*
Y229649*
X197667Y236766*
Y252547*
X192567*
X173000Y230800D02*
Y231000D01*
X178858*
X193700Y223500D02*
Y224350D01*
X197385Y228035*
X198528*
X200736Y230244*
Y232567*
X201300Y223500D02*
X201830D01*
Y227500*
X202230Y227900*
X202300*
X202705Y228305*
Y232567*
X163500Y203400D02*
X167197Y207097D01*
Y210932*
X183315Y227051*
Y242732*
X187225Y246642*
X192567*
X163500Y203400D02*
X158300D01*
X165000Y230800D02*
X165850D01*
X185629Y250579*
X192567*
X165000Y230800D02*
Y231000D01*
X159142*
X239200Y235000D02*
Y240736D01*
X238433*
X260500Y216300D02*
X260909Y215891D01*
Y217291*
X251800Y226400*
Y227000*
X251900Y207200D02*
X252000Y207300D01*
X234100Y225200*
Y234546*
X231012Y237649*
X208651*
X253100Y265700D02*
X278200Y290800D01*
X298079*
X304260Y296981*
X309022*
X310000Y247400D02*
X320907Y258307D01*
X323261*
X329254Y264300*
X341753*
X317386Y203745D02*
Y204345D01*
X322019Y208978*
Y210019*
X327000Y215000*
X309786Y203745D02*
Y204345D01*
X305882Y208249*
X304251*
X300000Y212500*
X311500Y211700D02*
Y213050D01*
X313450*
X319000Y215000*
X311500Y219300D02*
X310900D01*
X307700Y222500*
X300000*
Y212500D02*
X290000D01*
X283500*
X268900Y227100*
X264285*
X244743Y246642*
X238433*
X300000Y222500D02*
X290000D01*
X277000*
X269900Y229600*
X265294*
X246284Y248610*
X238433*
X300000Y232500D02*
X306448Y238948D01*
X308903*
X329254Y259300*
X351122*
X353991Y262169*
X300000Y232500D02*
X290000D01*
X266700*
X248621Y250579*
X238433*
X300000Y242500D02*
X304600Y247100D01*
Y257547*
X316353Y269300*
X345148*
X353017Y277169*
X300000Y242500D02*
X290000D01*
X268524*
X258477Y252547*
X238433*
X300000Y252500D02*
X290000D01*
X270348*
X268332Y254516*
X238433*
X290000Y262500D02*
X300000D01*
X290000Y272500D02*
X300000D01*
X246800Y235000D02*
Y239000D01*
X243095Y242705*
X238433*
X244200Y227000D02*
X242850D01*
Y228950*
X240550Y232800*
Y235000*
X239200*
X251800Y227000D02*
Y236546D01*
X243672Y244673*
X238433*
X290000Y202500D02*
X276609Y215891D01*
X260909*
X290000Y202500D02*
X300000D01*
X346800Y264300D02*
X346800D01*
Y264400*
X341700*
X346800Y264300D02*
X351122D01*
X353991Y267169*
X338000Y244000D02*
X356500Y225500D01*
X360100Y229100*
X366724*
X375953Y228429*
X341700Y274300D02*
X325800Y290200D01*
X321400*
X317200Y294400*
X341753Y264300D02*
X346800D01*
X355000Y200800D02*
X354400D01*
X345200Y210000*
X345050*
X335850Y219200*
X335000*
X358145Y277156D02*
X353017Y277169D01*
X368145Y272156D02*
X363233Y276869D01*
Y288211*
X366000Y290978*
Y296000*
X358145Y267156D02*
X353991Y267169D01*
X368145Y262156D02*
X353991Y262169D01*
X338000Y244000D02*
X331753Y254300D01*
X327000Y225000D02*
X332800Y225450D01*
X335000*
Y226800*
X366000Y235000D02*
X367074D01*
X373377Y242562*
Y277085*
X368145Y282156*
X335000Y219200D02*
X330000D01*
X329200Y220000*
X324000*
X319000Y225000*
X335000Y226800D02*
Y231400D01*
X338000Y234400*
Y244000*
X120000Y320000D02*
X129500Y333892D01*
X145500*
X140000Y315000D02*
Y325000D01*
X115000Y300000D02*
X125000D01*
X115000Y290000D02*
X125000D01*
X115000Y280000D02*
X125000D01*
X130521*
X133297Y283070*
X150154*
X150000Y325000D02*
X145500Y329500D01*
Y333892*
X200000Y315000D02*
Y325000D01*
X190000Y315000D02*
Y325000D01*
X180000Y315000D02*
Y325000D01*
X230000Y315000D02*
Y325000D01*
X170000Y315000D02*
Y325000D01*
X220000Y315000D02*
Y325000D01*
X210000Y315000D02*
Y325000D01*
X317200Y294400D02*
Y295000D01*
X312772Y296981D02*
Y297194D01*
X314878Y299300*
X331753*
X309022Y296981D02*
X312772D01*
X309022D02*
X312772D01*
X312772*
X309022Y289381D02*
X312181D01*
X317200Y294400*
X248340Y304959D02*
Y308800D01*
X250000Y310460*
Y315000*
X240740Y304959D02*
Y305559D01*
X245000Y309819*
Y326718*
X248032Y329750*
X250000*
Y315000D02*
Y325000D01*
X240000Y315000D02*
Y325000D01*
X290000Y282500D02*
X300000D01*
X280000Y325000D02*
X277640Y329750D01*
X250000*
X280000Y325000D02*
X286076Y334207D01*
X341793*
X280000Y315000D02*
Y325000D01*
X310000Y315000D02*
Y325000D01*
X300000Y315000D02*
Y325000D01*
X270000Y315000D02*
Y325000D01*
X260000Y315000D02*
Y325000D01*
X290000Y315000D02*
Y325000D01*
X360800Y306100D02*
X360000Y306900D01*
Y320000*
X375953Y298874D02*
X372184Y303600D01*
X363300*
X360800Y306100*
X347000Y294063D02*
X339745D01*
X339508Y294300*
X331753*
X347000Y303937D02*
X349650D01*
Y306587*
X360000Y320000*
X331753Y294300D02*
X324800D01*
Y295000*
X341753Y284300D02*
X349122D01*
X351991Y287169*
X360000Y320000D02*
X341793Y334207D01*
X351991Y287169D02*
X358145Y287156D01*
X359111Y304411*
X360800Y306100*
X340000Y315000D02*
Y325000D01*
X330000Y315000D02*
Y325000D01*
X320000Y315000D02*
Y325000D01*
X354000Y296000D02*
Y297700D01*
X350800Y299300*
X331753*
G54D22*
X163500Y196600D03*
Y203400D03*
G54D24*
G54D25*
X309900Y132487D02*
Y149700D01*
X316900*
Y160100*
X325400*
Y165100*
X316500*
Y186800*
X277300*
Y175242*
X292444Y160078*
Y132487*
X309900*
X315400Y147200D02*
X319300D01*
Y155900*
X328600*
Y165400*
X337600*
Y167300*
X347400*
Y160900*
X336500*
Y144600*
X315400*
Y147200*
X200743Y271700D02*
X231500D01*
Y240652*
X200743*
Y271700*
X287642Y164886D02*
X325400D01*
X288541Y163986D02*
X325400D01*
X289440Y163086D02*
X325400D01*
X290339Y162186D02*
X325400D01*
X291237Y161286D02*
X325400D01*
X292136Y160386D02*
X325400D01*
X292444Y159486D02*
X316900D01*
X292444Y158586D02*
X316900D01*
X292444Y157686D02*
X316900D01*
X292444Y156786D02*
X316900D01*
X292444Y155886D02*
X316900D01*
X292444Y154986D02*
X316900D01*
X292444Y154086D02*
X316900D01*
X292444Y153186D02*
X316900D01*
X292444Y152286D02*
X316900D01*
X292444Y151386D02*
X316900D01*
X292444Y150486D02*
X316900D01*
X277300Y186486D02*
X316500D01*
X277300Y185586D02*
X316500D01*
X277300Y184686D02*
X316500D01*
X277300Y183786D02*
X316500D01*
X277300Y182886D02*
X316500D01*
X277300Y181986D02*
X316500D01*
X277300Y181086D02*
X316500D01*
X277300Y180186D02*
X316500D01*
X277300Y179286D02*
X316500D01*
X277300Y178386D02*
X316500D01*
X277300Y177486D02*
X316500D01*
X277300Y176586D02*
X316500D01*
X277300Y175686D02*
X316500D01*
X277755Y174786D02*
X316500D01*
X278654Y173886D02*
X316500D01*
X279553Y172986D02*
X316500D01*
X280452Y172086D02*
X316500D01*
X281350Y171186D02*
X316500D01*
X282249Y170286D02*
X316500D01*
X283148Y169386D02*
X316500D01*
X284047Y168486D02*
X316500D01*
X284946Y167586D02*
X316500D01*
X285845Y166686D02*
X316500D01*
X286743Y165786D02*
X316500D01*
X292444Y149586D02*
X309900D01*
X292444Y148686D02*
X309900D01*
X292444Y147786D02*
X309900D01*
X292444Y146886D02*
X309900D01*
X292444Y145986D02*
X309900D01*
X292444Y145086D02*
X309900D01*
X292444Y144186D02*
X309900D01*
X292444Y143286D02*
X309900D01*
X292444Y142386D02*
X309900D01*
X292444Y141486D02*
X309900D01*
X292444Y140586D02*
X309900D01*
X292444Y139686D02*
X309900D01*
X292444Y138786D02*
X309900D01*
X292444Y137886D02*
X309900D01*
X292444Y136986D02*
X309900D01*
X292444Y136086D02*
X309900D01*
X292444Y135186D02*
X309900D01*
X292444Y134286D02*
X309900D01*
X292444Y133386D02*
X309900D01*
X337600Y167099D02*
X347400D01*
X337600Y166199D02*
X347400D01*
X328600Y165299D02*
X347400D01*
X328600Y164399D02*
X347400D01*
X328600Y163499D02*
X347400D01*
X328600Y162599D02*
X347400D01*
X328600Y161699D02*
X347400D01*
X328600Y160799D02*
X336500D01*
X328600Y159899D02*
X336500D01*
X328600Y158999D02*
X336500D01*
X328600Y158099D02*
X336500D01*
X328600Y157199D02*
X336500D01*
X328600Y156299D02*
X336500D01*
X319300Y155399D02*
X336500D01*
X319300Y154499D02*
X336500D01*
X319300Y153599D02*
X336500D01*
X319300Y152699D02*
X336500D01*
X319300Y151799D02*
X336500D01*
X319300Y150899D02*
X336500D01*
X319300Y149999D02*
X336500D01*
X319300Y149099D02*
X336500D01*
X319300Y148199D02*
X336500D01*
X319300Y147299D02*
X336500D01*
X315400Y146399D02*
X336500D01*
X315400Y145499D02*
X336500D01*
X200743Y271251D02*
X231500D01*
X200743Y270351D02*
X231500D01*
X200743Y269451D02*
X231500D01*
X200743Y268551D02*
X231500D01*
X200743Y267651D02*
X231500D01*
X200743Y266751D02*
X231500D01*
X200743Y265851D02*
X231500D01*
X200743Y264951D02*
X231500D01*
X200743Y264051D02*
X231500D01*
X200743Y263151D02*
X231500D01*
X200743Y262251D02*
X231500D01*
X200743Y261351D02*
X231500D01*
X200743Y260451D02*
X231500D01*
X200743Y259551D02*
X231500D01*
X200743Y258651D02*
X231500D01*
X200743Y257751D02*
X231500D01*
X200743Y256851D02*
X231500D01*
X200743Y255951D02*
X231500D01*
X200743Y255051D02*
X231500D01*
X200743Y254151D02*
X231500D01*
X200743Y253251D02*
X231500D01*
X200743Y252351D02*
X231500D01*
X200743Y251451D02*
X231500D01*
X200743Y250551D02*
X231500D01*
X200743Y249651D02*
X231500D01*
X200743Y248751D02*
X231500D01*
X200743Y247851D02*
X231500D01*
X200743Y246951D02*
X231500D01*
X200743Y246051D02*
X231500D01*
X200743Y245151D02*
X231500D01*
X200743Y244251D02*
X231500D01*
X200743Y243351D02*
X231500D01*
X200743Y242451D02*
X231500D01*
X200743Y241551D02*
X231500D01*
X376500Y218023D02*
Y240086D01*
G75*
G03X375616Y240406I-500J0D01*
G01X371616Y235607*
G03X371500Y235287I384J-320*
G01Y233000*
X369000Y230500D02*
G03X371500Y233000I0J2500D01*
G01X369000Y230500D02*
X363000D01*
X360500Y233000D02*
G03X363000Y230500I2500J0D01*
G01X360500Y233000D02*
Y237000D01*
X363000Y239500D02*
G03X360500Y237000I0J-2500D01*
G01X363000Y239500D02*
X366555D01*
G03X366939Y239680I-0J500*
G01X370161Y243545*
G03X370277Y243866I-384J321*
G01Y255656*
G03X369777Y256156I-500J-0*
G01X367113*
G03X366620Y255737I0J-500*
G01X355569Y258049D02*
G03X366620Y255737I5476J-1393D01*
G01X355569Y258049D02*
G03X354731Y258525I-484J123D01*
G01X353314Y257108*
X351122Y256200D02*
G03X353314Y257108I-0J3100D01*
G01X351122Y256200D02*
X330746D01*
G03X330392Y256054I-0J-500*
G01X311095Y236756*
X308903Y235848D02*
G03X311095Y236756I-0J3100D01*
G01X308903Y235848D02*
X307939D01*
G03X307586Y235702I0J-500*
G01X305805Y233921*
G03X305666Y233482I353J-354*
G01X303450Y227900D02*
G03X305666Y233482I-3450J4600D01*
G01X303450Y227900D02*
G03Y227100I300J-400D01*
G01X304700Y225812D02*
G03X303450Y227100I-4700J-3312D01*
G01X304700Y225812D02*
G03X305109Y225600I409J288D01*
G01X307700*
X309892Y224692D02*
G03X307700Y225600I-2192J-2192D01*
G01X309892Y224692D02*
X310688Y223896D01*
G03X311041Y223750I353J354*
G01X312795*
G03X313292Y224310I0J500*
G01X324666Y224018D02*
G03X313292Y224310I-5666J982D01*
G01X324666Y224018D02*
G03X324805Y223579I492J-85D01*
G01X325138Y223246*
G03X325491Y223100I353J354*
G01X329200*
X330114Y222962D02*
G03X329200Y223100I-914J-2962D01*
G01X330114Y222962D02*
G03X330585Y223058I148J478D01*
G01X332200Y223650D02*
G03X330585Y223058I0J-2500D01*
G01X332200Y223650D02*
X337800D01*
X340300Y221150D02*
G03X337800Y223650I-2500J0D01*
G01X340300Y221150D02*
Y219341D01*
G03X340446Y218988I500J0*
G01X346704Y212730*
G03X346799Y212656I353J354*
G01X347392Y212192D02*
G03X346799Y212656I-2192J-2192D01*
G01X347392Y212192D02*
X354188Y205396D01*
G03X354541Y205250I353J354*
G01X357550*
X360050Y202750D02*
G03X357550Y205250I-2500J0D01*
G01X360050Y202750D02*
Y198850D01*
X359518Y197308D02*
G03X360050Y198850I-1968J1542D01*
G01X359518Y197308D02*
G03Y196692I394J-308D01*
G01X360050Y195150D02*
G03X359518Y196692I-2500J0D01*
G01X360050Y195150D02*
Y191250D01*
X359327Y189491D02*
G03X360050Y191250I-1777J1759D01*
G01X359327Y189491D02*
G03X359308Y188809I355J-351D01*
G01X359600Y188450D02*
G03X359308Y188809I-4600J-3450D01*
G01X359600Y188450D02*
G03X360400I400J300D01*
G01X368850Y180729D02*
G03X360400Y188450I-3850J4271D01*
G01X368850Y180729D02*
G03X368692Y180445I335J-371D01*
G01X367652Y178448D02*
G03X368692Y180445I-2652J2652D01*
G01X367652Y178448D02*
X363952Y174748D01*
X361300Y173650D02*
G03X363952Y174748I0J3750D01*
G01X361300Y173650D02*
X350860D01*
G03X350507Y173504I0J-500*
G01X348019Y171016*
G03X348234Y170182I354J-354*
G01X348567Y170064D02*
G03X348234Y170182I-1167J-2764D01*
G01X348567Y170064D02*
G03X348593Y170054I194J460D01*
G01X349971Y168848D02*
G03X348593Y170054I-2221J-1148D01*
G01X349971Y168848D02*
G03X349984Y168824I444J229D01*
G01X350146Y168508D02*
G03X349984Y168824I-2746J-1208D01*
G01X350146Y168508D02*
G03X350492Y168222I458J201D01*
G01X351992Y167392D02*
G03X350492Y168222I-2192J-2192D01*
G01X351992Y167392D02*
X353238Y166146D01*
G03X353591Y166000I353J354*
G01X358500*
X359750Y165665D02*
G03X358500Y166000I-1250J-2165D01*
G01X359750Y165665D02*
G03X360250I250J433D01*
G01X361500Y166000D02*
G03X360250Y165665I0J-2500D01*
G01X361500Y166000D02*
X368500D01*
X371000Y163500D02*
G03X368500Y166000I-2500J0D01*
G01X371000Y163500D02*
Y156500D01*
X368500Y154000D02*
G03X371000Y156500I0J2500D01*
G01X368500Y154000D02*
X361500D01*
X360250Y154335D02*
G03X361500Y154000I1250J2165D01*
G01X360250Y154335D02*
G03X359750I-250J-433D01*
G01X358500Y154000D02*
G03X359750Y154335I0J2500D01*
G01X358500Y154000D02*
X351500D01*
X349000Y156500D02*
G03X351500Y154000I2500J0D01*
G01X349000Y156500D02*
Y157577D01*
G03X348343Y158052I-500J0*
G01X347400Y157900D02*
G03X348343Y158052I0J3000D01*
G01X347400Y157900D02*
X340000D01*
G03X339500Y157400I0J-500*
G01Y144600*
X336500Y141600D02*
G03X339500Y144600I0J3000D01*
G01X336500Y141600D02*
X330700D01*
G03X330200Y141100I0J-500*
G01Y135191*
G03X330346Y134838I500J0*
G01X332192Y132992*
X333041Y131403D02*
G03X332192Y132992I-3041J-603D01*
G01X333041Y131403D02*
G03X333526Y131000I490J97D01*
G01X336000Y128500D02*
G03X333526Y131000I-2500J0D01*
G01X336000Y128500D02*
Y121500D01*
X335665Y120250D02*
G03X336000Y121500I-2165J1250D01*
G01X335665Y120250D02*
G03Y119750I433J-250D01*
G01X336000Y118500D02*
G03X335665Y119750I-2500J0D01*
G01X336000Y118500D02*
Y111500D01*
X333500Y109000D02*
G03X336000Y111500I0J2500D01*
G01X333500Y109000D02*
X326500D01*
X324000Y111500D02*
G03X326500Y109000I2500J0D01*
G01X324000Y111500D02*
Y118500D01*
X324335Y119750D02*
G03X324000Y118500I2165J-1250D01*
G01X324335Y119750D02*
G03Y120250I-433J250D01*
G01X324000Y121500D02*
G03X324335Y120250I2500J0D01*
G01X324000Y121500D02*
Y128500D01*
X324017Y128792D02*
G03X324000Y128500I2483J-292D01*
G01X324017Y128792D02*
G03X323520Y129350I-497J58D01*
G01X309900*
X309200*
X308256Y129471D02*
G03X309200Y129350I944J3629D01*
G01X308256Y129471D02*
G03X308130Y129487I-126J-484D01*
G01X292444*
X291524Y129631D02*
G03X292444Y129487I920J2856D01*
G01X291524Y129631D02*
G03X290871Y129156I-153J-475D01*
G01Y124525*
X289963Y122333D02*
G03X290871Y124525I-2192J2192D01*
G01X289963Y122333D02*
X283923Y116293D01*
G03X284022Y115508I353J-354*
G01X282285Y104488D02*
G03X284022Y115508I-1314J5854D01*
G01X282285Y104488D02*
G03X282394Y103500I109J-488D01*
G01X304747*
G03X304857Y104488I0J500*
G01X312042Y109105D02*
G03X304857Y104488I-5871J1237D01*
G01X312042Y109105D02*
G03X312177Y108649I489J-103D01*
G01X313590Y107236*
G03X313943Y107090I353J354*
G01X363802*
G03X364157Y107238I-0J500*
G01X372585Y115722*
G03X372730Y116074I-355J352*
G01Y211598*
G03X372585Y211950I-500J0*
G01X366242Y218352*
G03X365887Y218500I-355J-352*
G01X365887D02*
X363000D01*
X360500Y221000D02*
G03X363000Y218500I2500J0D01*
G01X360500Y221000D02*
Y225000D01*
X363000Y227500D02*
G03X360500Y225000I0J-2500D01*
G01X363000Y227500D02*
X369000D01*
X371500Y225000D02*
G03X369000Y227500I-2500J0D01*
G01X371500Y225000D02*
Y222060D01*
G03X371645Y221708I500J-0*
G01X375645Y217671*
G03X376500Y218023I355J352*
G01Y279551D02*
Y336000D01*
G03X376000Y336500I-500J-0*
G01X104000*
G03X103500Y336000I0J-500*
G01Y104000*
G03X104000Y103500I500J0*
G01X279547*
G03X279657Y104488I0J500*
G01X278248Y104996D02*
G03X279657Y104488I2723J5346D01*
G01X278248Y104996D02*
G03X278021Y105050I-227J-446D01*
G01X269000*
X243695*
X242203Y105432D02*
G03X243695Y105050I1492J2718D01*
G01X242203Y105432D02*
G03X241963Y105494I-240J-438D01*
G01X223826*
X221634Y106402D02*
G03X223826Y105494I2192J2192D01*
G01X221634Y106402D02*
X216283Y111754D01*
G03X215929Y111900I-354J-354*
G01X214109*
G03X213700Y111688I0J-500*
G01X203334Y115982D02*
G03X213700Y111688I5666J-982D01*
G01X203334Y115982D02*
G03X203195Y116421I-492J85D01*
G01X197921Y121695*
G03X197162Y121634I-354J-354*
G01X195950Y120400D02*
G03X197162Y121634I-3450J4600D01*
G01X195950Y120400D02*
G03Y119600I300J-400D01*
G01X187879Y111578D02*
G03X195950Y119600I4621J3422D01*
G01X187879Y111578D02*
G03X187406Y111775I-402J-297D01*
G01X187050Y111750D02*
G03X187406Y111775I0J2500D01*
G01X187050Y111750D02*
X181950D01*
X179450Y114250D02*
G03X181950Y111750I2500J0D01*
G01X179450Y114250D02*
Y118150D01*
X179525Y118758D02*
G03X179450Y118150I2425J-608D01*
G01X179525Y118758D02*
G03X178917Y119364I-485J122D01*
G01X173149Y128697D02*
G03X178917Y119364I4351J-3760D01*
G01X173149Y128697D02*
G03X172901Y129506I-378J327D01*
G01X171515Y130308D02*
G03X172901Y129506I2192J2192D01*
G01X171515Y130308D02*
X166526Y135296D01*
G03X165879Y135347I-353J-353*
G01X157900Y136550D02*
G03X165879Y135347I4600J3450D01*
G01X157900Y136550D02*
G03X157100I-400J-300D01*
G01X149050Y144600D02*
G03X157100Y136550I3450J-4600D01*
G01X149050Y144600D02*
G03Y145400I-300J400D01*
G01X153482Y155666D02*
G03X149050Y145400I-982J-5666D01*
G01X153482Y155666D02*
G03X153921Y155805I85J492D01*
G01X154927Y156811*
G03X155073Y157164I-354J353*
G01Y157912*
X155981Y160104D02*
G03X155073Y157912I2192J-2192D01*
G01X155981Y160104D02*
X162669Y166792D01*
X164861Y167700D02*
G03X162669Y166792I0J-3100D01*
G01X164861Y167700D02*
X177921D01*
G03X178274Y167846I-0J500*
G01X189526Y179098*
G03X189173Y179952I-353J354*
G01X173555*
G03X173071Y179576I0J-500*
G01X161929D02*
G03X173071I5571J1424D01*
G01X161929D02*
G03X161445Y179952I-484J-124D01*
G01X159543*
G03X159190Y179806I0J-500*
G01X130805Y151421*
G03X130666Y150982I353J-354*
G01X120400Y146550D02*
G03X130666Y150982I4600J3450D01*
G01X120400Y146550D02*
G03X119600I-400J-300D01*
G01X111550Y154600D02*
G03X119600Y146550I3450J-4600D01*
G01X111550Y154600D02*
G03Y155400I-300J400D01*
G01Y164600D02*
G03Y155400I3450J-4600D01*
G01Y164600D02*
G03Y165400I-300J400D01*
G01Y174600D02*
G03Y165400I3450J-4600D01*
G01Y174600D02*
G03Y175400I-300J400D01*
G01Y184600D02*
G03Y175400I3450J-4600D01*
G01Y184600D02*
G03Y185400I-300J400D01*
G01Y194600D02*
G03Y185400I3450J-4600D01*
G01Y194600D02*
G03Y195400I-300J400D01*
G01Y204600D02*
G03Y195400I3450J-4600D01*
G01Y204600D02*
G03Y205400I-300J400D01*
G01Y214600D02*
G03Y205400I3450J-4600D01*
G01Y214600D02*
G03Y215400I-300J400D01*
G01Y224600D02*
G03Y215400I3450J-4600D01*
G01Y224600D02*
G03Y225400I-300J400D01*
G01Y234600D02*
G03Y225400I3450J-4600D01*
G01Y234600D02*
G03Y235400I-300J400D01*
G01Y244600D02*
G03Y235400I3450J-4600D01*
G01Y244600D02*
G03Y245400I-300J400D01*
G01X119600Y253450D02*
G03X111550Y245400I-4600J-3450D01*
G01X119600Y253450D02*
G03X120400I400J300D01*
G01X127668Y255094D02*
G03X120400Y253450I-2668J-5094D01*
G01X127668Y255094D02*
G03X128400Y255537I232J443D01*
G01Y264463*
G03X127668Y264906I-500J0*
G01X120400Y266550D02*
G03X127668Y264906I4600J3450D01*
G01X120400Y266550D02*
G03X119600I-400J-300D01*
G01X111550Y274600D02*
G03X119600Y266550I3450J-4600D01*
G01X111550Y274600D02*
G03Y275400I-300J400D01*
G01Y284600D02*
G03Y275400I3450J-4600D01*
G01Y284600D02*
G03Y285400I-300J400D01*
G01Y294600D02*
G03Y285400I3450J-4600D01*
G01Y294600D02*
G03Y295400I-300J400D01*
G01X119600Y303450D02*
G03X111550Y295400I-4600J-3450D01*
G01X119600Y303450D02*
G03X120400I400J300D01*
G01X127668Y305094D02*
G03X120400Y303450I-2668J-5094D01*
G01X127668Y305094D02*
G03X128400Y305537I232J443D01*
G01Y309100*
X128900Y309600D02*
G03X128400Y309100I0J-500D01*
G01X128900Y309600D02*
X136120D01*
G03X136431Y310492I0J500*
G01X136550Y319600D02*
G03X136431Y310492I3450J-4600D01*
G01X136550Y319600D02*
G03Y320400I-300J400D01*
G01X143450D02*
G03X136550I-3450J4600D01*
G01X143450D02*
G03Y319600I300J-400D01*
G01X145666Y314018D02*
G03X143450Y319600I-5666J982D01*
G01X145666Y314018D02*
G03X145805Y313579I492J-85D01*
G01X147516Y311868*
X148402Y310041D02*
G03X147516Y311868I-3078J-365D01*
G01X148402Y310041D02*
G03X148899Y309600I497J59D01*
G01X156000*
G03X156500Y310100I-0J500*
G01Y310198*
G03X156320Y310582I-500J-0*
G01Y319418D02*
G03Y310582I3680J-4418D01*
G01Y319418D02*
G03X156500Y319802I-320J384D01*
G01Y320198*
G03X156320Y320582I-500J-0*
G01X164600Y328450D02*
G03X156320Y320582I-4600J-3450D01*
G01X164600Y328450D02*
G03X165400I400J300D01*
G01X174600D02*
G03X165400I-4600J-3450D01*
G01X174600D02*
G03X175400I400J300D01*
G01X184600D02*
G03X175400I-4600J-3450D01*
G01X184600D02*
G03X185400I400J300D01*
G01X194600D02*
G03X185400I-4600J-3450D01*
G01X194600D02*
G03X195400I400J300D01*
G01X204600D02*
G03X195400I-4600J-3450D01*
G01X204600D02*
G03X205400I400J300D01*
G01X214600D02*
G03X205400I-4600J-3450D01*
G01X214600D02*
G03X215400I400J300D01*
G01X224600D02*
G03X215400I-4600J-3450D01*
G01X224600D02*
G03X225400I400J300D01*
G01X234600D02*
G03X225400I-4600J-3450D01*
G01X234600D02*
G03X235400I400J300D01*
G01X244600D02*
G03X235400I-4600J-3450D01*
G01X244600D02*
G03X245400I400J300D01*
G01X254600D02*
G03X245400I-4600J-3450D01*
G01X254600D02*
G03X255400I400J300D01*
G01X264600D02*
G03X255400I-4600J-3450D01*
G01X264600D02*
G03X265400I400J300D01*
G01X273450Y320400D02*
G03X265400Y328450I-3450J4600D01*
G01X273450Y320400D02*
G03Y319600I300J-400D01*
G01X273569Y310492D02*
G03X273450Y319600I-3569J4508D01*
G01X273569Y310492D02*
G03X273880Y309600I311J-392D01*
G01X279443*
G03X279797Y309746I0J500*
G01X284129Y314079*
G03X284274Y314478I-353J354*
G01X286550Y319600D02*
G03X284274Y314478I3450J-4600D01*
G01X286550Y319600D02*
G03Y320400I-300J400D01*
G01X294600Y328450D02*
G03X286550Y320400I-4600J-3450D01*
G01X294600Y328450D02*
G03X295400I400J300D01*
G01X304600D02*
G03X295400I-4600J-3450D01*
G01X304600D02*
G03X305400I400J300D01*
G01X314600D02*
G03X305400I-4600J-3450D01*
G01X314600D02*
G03X315400I400J300D01*
G01X324600D02*
G03X315400I-4600J-3450D01*
G01X324600D02*
G03X325400I400J300D01*
G01X334600D02*
G03X325400I-4600J-3450D01*
G01X334600D02*
G03X335400I400J300D01*
G01X343450Y320400D02*
G03X335400Y328450I-3450J4600D01*
G01X343450Y320400D02*
G03Y319600I300J-400D01*
G01X339018Y309334D02*
G03X343450Y319600I982J5666D01*
G01X339018Y309334D02*
G03X338579Y309195I-85J-492D01*
G01X332638Y303254*
G03X332991Y302400I353J-354*
G01X350800*
X352186Y302073D02*
G03X350800Y302400I-1386J-2773D01*
G01X352186Y302073D02*
X353226Y301553D01*
G03X353450Y301500I224J447*
G01X356000*
X358500Y299000D02*
G03X356000Y301500I-2500J0D01*
G01X358500Y299000D02*
Y293000D01*
X358145Y291716D02*
G03X358500Y293000I-2145J1284D01*
G01X358145Y291716D02*
G03X358332Y291022I429J-257D01*
G01X358590Y290584D02*
G03X358332Y291022I-500J0D01*
G01X358590Y290584D02*
Y283656D01*
G03X359090Y283156I500J0*
G01X359633*
G03X360133Y283656I-0J500*
G01Y288211*
X361041Y290403D02*
G03X360133Y288211I2192J-2192D01*
G01X361041Y290403D02*
X361766Y291128D01*
G03X361844Y291735I-353J354*
G01X361500Y293000D02*
G03X361844Y291735I2500J0D01*
G01X361500Y293000D02*
Y299000D01*
X364000Y301500D02*
G03X361500Y299000I0J-2500D01*
G01X364000Y301500D02*
X368000D01*
X370500Y299000D02*
G03X368000Y301500I-2500J0D01*
G01X370500Y299000D02*
Y293000D01*
X369299Y290864D02*
G03X370500Y293000I-1299J2136D01*
G01X369299Y290864D02*
G03X369065Y290512I260J-427D01*
G01X368369Y288978D02*
G03X369065Y290512I-2369J2000D01*
G01X368369Y288978D02*
G03X368751Y288156I382J-322D01*
G01X371645*
X374145Y285656D02*
G03X371645Y288156I-2500J0D01*
G01X374145Y285656D02*
Y280869D01*
G03X374297Y280510I500J0*
G01X375535Y279311*
X375636Y279208D02*
G03X375535Y279311I-2259J-2123D01*
G01X375636Y279208D02*
G03X376500Y279551I364J343D01*
G01X350692Y188809D02*
G03X350673Y189491I-374J331D01*
G01X349950Y191250D02*
G03X350673Y189491I2500J0D01*
G01X349950Y191250D02*
Y195150D01*
X350482Y196692D02*
G03X349950Y195150I1968J-1542D01*
G01X350482Y196692D02*
G03Y197308I-394J308D01*
G01X349950Y198850D02*
G03X350482Y197308I2500J0D01*
G01X349950Y198850D02*
Y200659D01*
G03X349804Y201012I-500J-0*
G01X343546Y207270*
G03X343451Y207344I-353J-354*
G01X342858Y207808D02*
G03X343451Y207344I2192J2192D01*
G01X342858Y207808D02*
X336062Y214604D01*
G03X335709Y214750I-353J-354*
G01X333205*
G03X332708Y214310I-0J-500*
G01X326018Y209334D02*
G03X332708Y214310I982J5666D01*
G01X326018Y209334D02*
G03X325579Y209195I-85J-492D01*
G01X325233Y208849*
G03X325091Y208562I354J-354*
G01X324211Y206786D02*
G03X325091Y208562I-2192J2192D01*
G01X324211Y206786D02*
X321982Y204557D01*
G03X321836Y204204I354J-353*
G01Y201195*
X319336Y198695D02*
G03X321836Y201195I0J2500D01*
G01X319336Y198695D02*
X315436D01*
X313894Y199227D02*
G03X315436Y198695I1542J1968D01*
G01X313894Y199227D02*
G03X313278I-308J-394D01*
G01X311736Y198695D02*
G03X313278Y199227I0J2500D01*
G01X311736Y198695D02*
X307836D01*
X305830Y199702D02*
G03X307836Y198695I2006J1493D01*
G01X305830Y199702D02*
G03X304995Y199652I-401J-298D01*
G01X295400Y199050D02*
G03X304995Y199652I4600J3450D01*
G01X295400Y199050D02*
G03X294600I-400J-300D01*
G01X286872Y197675D02*
G03X294600Y199050I3128J4825D01*
G01X286872Y197675D02*
G03X286100Y197256I-272J-419D01*
G01Y190300*
G03X286600Y189800I500J0*
G01X316500*
X319375Y187657D02*
G03X316500Y189800I-2875J-857D01*
G01X319375Y187657D02*
G03X319854Y187300I479J143D01*
G01X320150*
X322650Y184800D02*
G03X320150Y187300I-2500J0D01*
G01X322650Y184800D02*
Y179200D01*
X320150Y176700D02*
G03X322650Y179200I0J2500D01*
G01X320150Y176700D02*
X320000D01*
G03X319500Y176200I0J-500*
G01Y168600*
G03X320000Y168100I500J0*
G01X325400*
X326395Y167930D02*
G03X325400Y168100I-995J-2830D01*
G01X326395Y167930D02*
G03X326434Y167918I165J472D01*
G01X326569Y167879D02*
G03X326434Y167918I-769J-2379D01*
G01X326569Y167879D02*
G03X326991Y167932I154J475D01*
G01X328600Y168400D02*
G03X326991Y167932I0J-3000D01*
G01X328600Y168400D02*
X334487D01*
G03X334932Y168671I0J500*
G01X335016Y168824D02*
G03X334932Y168671I2584J-1524D01*
G01X335016Y168824D02*
G03X335029Y168848I-431J253D01*
G01X336407Y170054D02*
G03X335029Y168848I843J-2354D01*
G01X336407Y170054D02*
G03X336433Y170064I-168J470D01*
G01X337600Y170300D02*
G03X336433Y170064I0J-3000D01*
G01X337600Y170300D02*
X338250D01*
G03X338750Y170800I-0J500*
G01X339848Y173452D02*
G03X338750Y170800I2652J-2652D01*
G01X339848Y173452D02*
X340048Y173652D01*
X346448Y180052*
X349100Y181150D02*
G03X346448Y180052I0J-3750D01*
G01X349100Y181150D02*
X349724D01*
G03X350146Y181918I-0J500*
G01X350692Y188809D02*
G03X350146Y181918I4308J-3809D01*
G01X165950Y120400D02*
G03X157900Y128450I-3450J4600D01*
G01X165950Y120400D02*
G03Y119600I300J-400D01*
G01X157900Y111550D02*
G03X165950Y119600I4600J3450D01*
G01X157900Y111550D02*
G03X157500Y111750I-400J-300D01*
G01X152450*
X149950Y114250D02*
G03X152450Y111750I2500J0D01*
G01X149950Y114250D02*
Y118150D01*
X150064Y118896D02*
G03X149950Y118150I2386J-746D01*
G01X150064Y118896D02*
G03X149420Y119517I-477J150D01*
G01X152056Y128445D02*
G03X149420Y119517I-4556J-3508D01*
G01X152056Y128445D02*
G03X152452Y128250I396J305D01*
G01X157500*
G03X157900Y128450I-0J500*
G01X318737Y188799D02*
X350683D01*
X301299Y196899D02*
X350578D01*
X317273Y189699D02*
X350490D01*
X322650Y181599D02*
X350221D01*
X303311Y197799D02*
X350182D01*
X286100Y195999D02*
X350098D01*
X286100Y190599D02*
X350036D01*
X319292Y187899D02*
X350034D01*
X319472Y198699D02*
X349955D01*
X321737Y200499D02*
X349950D01*
X321260Y199599D02*
X349950D01*
X286100Y195099D02*
X349950D01*
X286100Y194199D02*
X349950D01*
X286100Y193299D02*
X349950D01*
X286100Y192399D02*
X349950D01*
X286100Y191499D02*
X349950D01*
X322650Y182499D02*
X349823D01*
X321340Y186999D02*
X349609D01*
X322650Y183399D02*
X349477D01*
X321836Y201399D02*
X349417D01*
X322286Y186099D02*
X349356D01*
X322650Y184299D02*
X349293D01*
X322618Y185199D02*
X349253D01*
X321836Y202299D02*
X348517D01*
X321836Y203199D02*
X347617D01*
X322650Y180699D02*
X347316D01*
X321836Y204099D02*
X346717D01*
X322650Y179799D02*
X346195D01*
X322424Y204999D02*
X345817D01*
X322632Y178899D02*
X345295D01*
X323324Y205899D02*
X344917D01*
X322342Y177999D02*
X344395D01*
X324224Y206799D02*
X344017D01*
X321504Y177099D02*
X343495D01*
X324843Y207699D02*
X342973D01*
X319500Y176199D02*
X342595D01*
X325097Y208599D02*
X342067D01*
X319500Y175299D02*
X341695D01*
X328673Y209499D02*
X341167D01*
X319500Y174399D02*
X340795D01*
X330448Y210399D02*
X340267D01*
X319500Y173499D02*
X339895D01*
X331400Y211299D02*
X339367D01*
X319500Y172599D02*
X339210D01*
X319500Y171699D02*
X338859D01*
X319500Y170799D02*
X338750D01*
X332021Y212199D02*
X338467D01*
X332427Y213099D02*
X337567D01*
X332662Y213999D02*
X336667D01*
X319500Y169899D02*
X336060D01*
X319500Y168999D02*
X335114D01*
X325489Y168099D02*
X327290D01*
X311872Y198699D02*
X315300D01*
X304314D02*
X307700D01*
X304964Y199599D02*
X305912D01*
X291299Y196899D02*
X298701D01*
X293311Y197799D02*
X296689D01*
X294314Y198699D02*
X295686D01*
X286100Y196899D02*
X288701D01*
X103500Y335499D02*
X376500D01*
X103500Y334599D02*
X376500D01*
X103500Y333699D02*
X376500D01*
X103500Y332799D02*
X376500D01*
X103500Y331899D02*
X376500D01*
X103500Y330999D02*
X376500D01*
X342658Y330099D02*
X376500D01*
X343929Y329199D02*
X376500D01*
X344710Y328299D02*
X376500D01*
X345226Y327399D02*
X376500D01*
X345551Y326499D02*
X376500D01*
X345719Y325599D02*
X376500D01*
X345742Y324699D02*
X376500D01*
X345623Y323799D02*
X376500D01*
X345352Y322899D02*
X376500D01*
X344905Y321999D02*
X376500D01*
X344224Y321099D02*
X376500D01*
X343291Y320199D02*
X376500D01*
X343819Y319299D02*
X376500D01*
X344638Y318399D02*
X376500D01*
X345179Y317499D02*
X376500D01*
X345523Y316599D02*
X376500D01*
X345707Y315699D02*
X376500D01*
X345746Y314799D02*
X376500D01*
X345644Y313899D02*
X376500D01*
X345391Y312999D02*
X376500D01*
X344964Y312099D02*
X376500D01*
X344314Y311199D02*
X376500D01*
X343311Y310299D02*
X376500D01*
X341299Y309399D02*
X376500D01*
X337883Y308499D02*
X376500D01*
X336983Y307599D02*
X376500D01*
X336083Y306699D02*
X376500D01*
X335183Y305799D02*
X376500D01*
X334283Y304899D02*
X376500D01*
X333383Y303999D02*
X376500D01*
X332532Y303099D02*
X376500D01*
X351899Y302199D02*
X376500D01*
X368983Y301299D02*
X376500D01*
X370072Y300399D02*
X376500D01*
X370450Y299499D02*
X376500D01*
X370500Y298599D02*
X376500D01*
X370500Y297699D02*
X376500D01*
X370500Y296799D02*
X376500D01*
X370500Y295899D02*
X376500D01*
X370500Y294999D02*
X376500D01*
X370500Y294099D02*
X376500D01*
X370500Y293199D02*
X376500D01*
X370400Y292299D02*
X376500D01*
X369920Y291399D02*
X376500D01*
X369063Y290499D02*
X376500D01*
X368776Y289599D02*
X376500D01*
X368253Y288699D02*
X376500D01*
X372933Y287799D02*
X376500D01*
X373814Y286899D02*
X376500D01*
X374121Y285999D02*
X376500D01*
X374145Y285099D02*
X376500D01*
X374145Y284199D02*
X376500D01*
X374145Y283299D02*
X376500D01*
X374145Y282399D02*
X376500D01*
X374145Y281499D02*
X376500D01*
X374225Y280599D02*
X376500D01*
X375135Y279699D02*
X376500D01*
X103698Y336399D02*
X376302D01*
X356983Y301299D02*
X363017D01*
X358072Y300399D02*
X361928D01*
X358078Y291399D02*
X361906D01*
X358400Y292299D02*
X361600D01*
X358450Y299499D02*
X361550D01*
X358500Y298599D02*
X361500D01*
X358500Y297699D02*
X361500D01*
X358500Y296799D02*
X361500D01*
X358500Y295899D02*
X361500D01*
X358500Y294999D02*
X361500D01*
X358500Y294099D02*
X361500D01*
X358500Y293199D02*
X361500D01*
X358590Y290499D02*
X361137D01*
X358590Y289599D02*
X360461D01*
X358590Y288699D02*
X360172D01*
X358590Y287799D02*
X360133D01*
X358590Y286899D02*
X360133D01*
X358590Y285999D02*
X360133D01*
X358590Y285099D02*
X360133D01*
X358590Y284199D02*
X360133D01*
X358740Y283299D02*
X359983D01*
X332658Y330099D02*
X337342D01*
X333929Y329199D02*
X336071D01*
X334785Y328299D02*
X335215D01*
X322658Y330099D02*
X327342D01*
X323929Y329199D02*
X326071D01*
X324785Y328299D02*
X325215D01*
X312658Y330099D02*
X317342D01*
X313929Y329199D02*
X316071D01*
X314785Y328299D02*
X315215D01*
X302658Y330099D02*
X307342D01*
X303929Y329199D02*
X306071D01*
X304785Y328299D02*
X305215D01*
X292658Y330099D02*
X297342D01*
X293929Y329199D02*
X296071D01*
X294785Y328299D02*
X295215D01*
X272658Y330099D02*
X287342D01*
X273291Y320199D02*
X286709D01*
X273819Y319299D02*
X286181D01*
X273929Y329199D02*
X286071D01*
X274224Y321099D02*
X285776D01*
X274638Y318399D02*
X285362D01*
X274710Y328299D02*
X285290D01*
X274905Y321999D02*
X285095D01*
X275179Y317499D02*
X284821D01*
X275226Y327399D02*
X284774D01*
X275352Y322899D02*
X284648D01*
X275523Y316599D02*
X284477D01*
X275551Y326499D02*
X284449D01*
X275623Y323799D02*
X284377D01*
X275707Y315699D02*
X284293D01*
X275719Y325599D02*
X284281D01*
X275742Y324699D02*
X284258D01*
X275746Y314799D02*
X284254D01*
X275644Y313899D02*
X283949D01*
X275391Y312999D02*
X283049D01*
X274964Y312099D02*
X282149D01*
X274314Y311199D02*
X281249D01*
X273421Y310299D02*
X280349D01*
X103500Y104199D02*
X280006D01*
X262658Y330099D02*
X267342D01*
X263929Y329199D02*
X266071D01*
X264785Y328299D02*
X265215D01*
X252658Y330099D02*
X257342D01*
X253929Y329199D02*
X256071D01*
X254785Y328299D02*
X255215D01*
X242658Y330099D02*
X247342D01*
X243929Y329199D02*
X246071D01*
X244785Y328299D02*
X245215D01*
X103500Y105099D02*
X243147D01*
X232658Y330099D02*
X237342D01*
X233929Y329199D02*
X236071D01*
X234785Y328299D02*
X235215D01*
X222658Y330099D02*
X227342D01*
X223929Y329199D02*
X226071D01*
X224785Y328299D02*
X225215D01*
X103500Y105999D02*
X222131D01*
X103500Y106899D02*
X221138D01*
X103500Y107799D02*
X220238D01*
X103500Y108699D02*
X219338D01*
X210972Y109599D02*
X218438D01*
X212578Y110499D02*
X217538D01*
X212658Y330099D02*
X217342D01*
X213483Y111399D02*
X216638D01*
X213929Y329199D02*
X216071D01*
X214785Y328299D02*
X215215D01*
X202658Y330099D02*
X207342D01*
X194472Y109599D02*
X207028D01*
X203929Y329199D02*
X206071D01*
X196078Y110499D02*
X205422D01*
X204785Y328299D02*
X205215D01*
X196983Y111399D02*
X204517D01*
X197576Y112299D02*
X203924D01*
X197961Y113199D02*
X203539D01*
X198179Y114099D02*
X203321D01*
X198179Y115899D02*
X203321D01*
X198250Y114999D02*
X203250D01*
X197961Y116799D02*
X202817D01*
X197577Y117699D02*
X201917D01*
X196985Y118599D02*
X201017D01*
X196081Y119499D02*
X200117D01*
X195948Y120399D02*
X199217D01*
X196900Y121299D02*
X198317D01*
X192658Y330099D02*
X197342D01*
X193929Y329199D02*
X196071D01*
X194785Y328299D02*
X195215D01*
X164472Y109599D02*
X190528D01*
X173195Y179799D02*
X189533D01*
X172852Y178899D02*
X189327D01*
X166078Y110499D02*
X188922D01*
X172405Y177999D02*
X188427D01*
X166983Y111399D02*
X188017D01*
X171724Y177099D02*
X187527D01*
X182658Y330099D02*
X187342D01*
X170664Y176199D02*
X186627D01*
X183929Y329199D02*
X186071D01*
X168247Y175299D02*
X185727D01*
X184785Y328299D02*
X185215D01*
X153783Y174399D02*
X184827D01*
X152883Y173499D02*
X183927D01*
X151983Y172599D02*
X183027D01*
X151083Y171699D02*
X182127D01*
X150183Y170799D02*
X181227D01*
X167576Y112299D02*
X180387D01*
X149283Y169899D02*
X180327D01*
X167961Y113199D02*
X179682D01*
X166985Y118599D02*
X179491D01*
X168179Y114099D02*
X179455D01*
X167577Y117699D02*
X179450D01*
X167961Y116799D02*
X179450D01*
X168179Y115899D02*
X179450D01*
X168250Y114999D02*
X179450D01*
X148383Y168999D02*
X179427D01*
X147483Y168099D02*
X178527D01*
X172658Y330099D02*
X177342D01*
X173929Y329199D02*
X176071D01*
X166081Y119499D02*
X175633D01*
X174785Y328299D02*
X175215D01*
X165948Y120399D02*
X173969D01*
X166203Y129399D02*
X173102D01*
X166900Y121299D02*
X173047D01*
X167063Y128499D02*
X172986D01*
X167521Y122199D02*
X172444D01*
X167629Y127599D02*
X172403D01*
X167927Y123099D02*
X172052D01*
X167993Y126699D02*
X172026D01*
X168162Y123999D02*
X171827D01*
X168194Y125799D02*
X171815D01*
X168249Y124899D02*
X171750D01*
X164733Y130299D02*
X171524D01*
X103500Y131199D02*
X170624D01*
X103500Y132099D02*
X169724D01*
X103500Y132999D02*
X168824D01*
X103500Y133899D02*
X167924D01*
X162658Y330099D02*
X167342D01*
X164951Y134799D02*
X167024D01*
X154683Y175299D02*
X166753D01*
X163929Y329199D02*
X166071D01*
X164785Y328299D02*
X165215D01*
X155583Y176199D02*
X164336D01*
X156483Y177099D02*
X163276D01*
X146583Y167199D02*
X163171D01*
X157383Y177999D02*
X162595D01*
X145683Y166299D02*
X162176D01*
X158283Y178899D02*
X162148D01*
X159183Y179799D02*
X161805D01*
X144783Y165399D02*
X161276D01*
X103500Y109599D02*
X160528D01*
X143883Y164499D02*
X160376D01*
X149577Y130299D02*
X160267D01*
X154951Y134799D02*
X160049D01*
X142983Y163599D02*
X159476D01*
X103500Y110499D02*
X158922D01*
X151127Y129399D02*
X158797D01*
X156316Y135699D02*
X158684D01*
X142083Y162699D02*
X158576D01*
X103500Y111399D02*
X158017D01*
X152014Y128499D02*
X157937D01*
X157142Y136599D02*
X157858D01*
X141183Y161799D02*
X157676D01*
X142658Y330099D02*
X157342D01*
X140283Y160899D02*
X156776D01*
X143291Y320199D02*
X156500D01*
X148361Y310299D02*
X156490D01*
X143819Y319299D02*
X156181D01*
X143929Y329199D02*
X156071D01*
X139383Y159999D02*
X155881D01*
X144224Y321099D02*
X155776D01*
X148024Y311199D02*
X155686D01*
X144638Y318399D02*
X155362D01*
X138483Y159099D02*
X155309D01*
X144710Y328299D02*
X155290D01*
X144905Y321999D02*
X155095D01*
X137583Y158199D02*
X155087D01*
X136683Y157299D02*
X155073D01*
X147285Y312099D02*
X155036D01*
X145179Y317499D02*
X154821D01*
X145226Y327399D02*
X154774D01*
X145352Y322899D02*
X154648D01*
X146385Y312999D02*
X154609D01*
X135783Y156399D02*
X154515D01*
X145523Y316599D02*
X154477D01*
X145551Y326499D02*
X154449D01*
X145623Y323799D02*
X154377D01*
X145659Y313899D02*
X154356D01*
X145707Y315699D02*
X154293D01*
X145719Y325599D02*
X154281D01*
X145742Y324699D02*
X154258D01*
X145746Y314799D02*
X154254D01*
X103500Y112299D02*
X150887D01*
X134883Y155499D02*
X150819D01*
X103500Y113199D02*
X150182D01*
X103500Y134799D02*
X150049D01*
X103500Y118599D02*
X149991D01*
X103500Y114099D02*
X149955D01*
X103500Y117699D02*
X149950D01*
X103500Y116799D02*
X149950D01*
X103500Y115899D02*
X149950D01*
X103500Y114999D02*
X149950D01*
X149367Y119499D02*
X149798D01*
X127227Y144699D02*
X149149D01*
X133983Y154599D02*
X149048D01*
X128700Y145599D02*
X148800D01*
X103500Y135699D02*
X148684D01*
X103500Y143799D02*
X148183D01*
X133083Y153699D02*
X148097D01*
X129561Y146499D02*
X147939D01*
X103500Y136599D02*
X147864D01*
X103500Y142899D02*
X147534D01*
X132183Y152799D02*
X147477D01*
X130128Y147399D02*
X147372D01*
X103500Y137499D02*
X147323D01*
X103500Y141999D02*
X147109D01*
X131283Y151899D02*
X147073D01*
X130493Y148299D02*
X147007D01*
X103500Y138399D02*
X146977D01*
X103500Y141099D02*
X146856D01*
X130663Y150999D02*
X146837D01*
X130694Y149199D02*
X146806D01*
X103500Y139299D02*
X146793D01*
X103500Y140199D02*
X146753D01*
X130749Y150099D02*
X146751D01*
X103500Y119499D02*
X145633D01*
X103500Y130299D02*
X145423D01*
X103500Y120399D02*
X143969D01*
X103500Y129399D02*
X143873D01*
X103500Y121299D02*
X143047D01*
X103500Y128499D02*
X142986D01*
X103500Y122199D02*
X142444D01*
X103500Y127599D02*
X142403D01*
X103500Y123099D02*
X142052D01*
X103500Y126699D02*
X142026D01*
X103500Y123999D02*
X141827D01*
X103500Y125799D02*
X141815D01*
X103500Y124899D02*
X141750D01*
X103500Y330099D02*
X137342D01*
X103500Y320199D02*
X136709D01*
X103500Y310299D02*
X136579D01*
X103500Y319299D02*
X136181D01*
X103500Y329199D02*
X136071D01*
X103500Y321099D02*
X135776D01*
X103500Y311199D02*
X135686D01*
X103500Y318399D02*
X135362D01*
X103500Y328299D02*
X135290D01*
X103500Y321999D02*
X135095D01*
X103500Y312099D02*
X135036D01*
X103500Y317499D02*
X134821D01*
X103500Y327399D02*
X134774D01*
X103500Y322899D02*
X134648D01*
X103500Y312999D02*
X134609D01*
X103500Y316599D02*
X134477D01*
X103500Y326499D02*
X134449D01*
X103500Y323799D02*
X134377D01*
X103500Y313899D02*
X134356D01*
X103500Y315699D02*
X134293D01*
X103500Y325599D02*
X134281D01*
X103500Y324699D02*
X134258D01*
X103500Y314799D02*
X134254D01*
X103500Y309399D02*
X128499D01*
X103500Y308499D02*
X128400D01*
X103500Y307599D02*
X128400D01*
X103500Y306699D02*
X128400D01*
X103500Y305799D02*
X128400D01*
X126299Y264399D02*
X128400D01*
X103500Y263499D02*
X128400D01*
X103500Y262599D02*
X128400D01*
X103500Y261699D02*
X128400D01*
X103500Y260799D02*
X128400D01*
X103500Y259899D02*
X128400D01*
X103500Y258999D02*
X128400D01*
X103500Y258099D02*
X128400D01*
X103500Y257199D02*
X128400D01*
X103500Y256299D02*
X128400D01*
X126979Y255399D02*
X128381D01*
X116299Y264399D02*
X123701D01*
X116979Y255399D02*
X123021D01*
X117227Y144699D02*
X122773D01*
X118011Y304899D02*
X121989D01*
X118311Y265299D02*
X121689D01*
X118581Y254499D02*
X121419D01*
X118700Y145599D02*
X121300D01*
X119132Y303999D02*
X120868D01*
X119314Y266199D02*
X120686D01*
X119485Y253599D02*
X120515D01*
X119561Y146499D02*
X120439D01*
X103500Y264399D02*
X113701D01*
X103500Y255399D02*
X113021D01*
X103500Y144699D02*
X112773D01*
X103500Y304899D02*
X111989D01*
X103500Y294999D02*
X111750D01*
X103500Y204999D02*
X111750D01*
X103500Y285099D02*
X111740D01*
X103500Y195099D02*
X111740D01*
X103500Y214899D02*
X111740D01*
X103500Y275199D02*
X111709D01*
X103500Y185199D02*
X111709D01*
X103500Y224799D02*
X111708D01*
X103500Y265299D02*
X111689D01*
X103500Y175299D02*
X111651D01*
X103500Y234699D02*
X111649D01*
X103500Y165399D02*
X111552D01*
X103500Y244599D02*
X111548D01*
X103500Y154599D02*
X111548D01*
X103500Y245499D02*
X111422D01*
X103500Y155499D02*
X111422D01*
X103500Y254499D02*
X111419D01*
X103500Y164499D02*
X111419D01*
X103500Y235599D02*
X111300D01*
X103500Y145599D02*
X111300D01*
X103500Y174399D02*
X111297D01*
X103500Y225699D02*
X111184D01*
X103500Y274299D02*
X111181D01*
X103500Y184299D02*
X111181D01*
X103500Y215799D02*
X111074D01*
X103500Y284199D02*
X111071D01*
X103500Y194199D02*
X111071D01*
X103500Y295899D02*
X110970D01*
X103500Y205899D02*
X110970D01*
X103500Y294099D02*
X110967D01*
X103500Y204099D02*
X110967D01*
X103500Y285999D02*
X110871D01*
X103500Y195999D02*
X110871D01*
X103500Y303999D02*
X110868D01*
X103500Y213999D02*
X110868D01*
X103500Y276099D02*
X110776D01*
X103500Y186099D02*
X110776D01*
X103500Y223899D02*
X110774D01*
X103500Y266199D02*
X110686D01*
X103500Y176199D02*
X110686D01*
X103500Y233799D02*
X110683D01*
X103500Y166299D02*
X110600D01*
X103500Y243699D02*
X110597D01*
X103500Y153699D02*
X110597D01*
X103500Y246399D02*
X110517D01*
X103500Y156399D02*
X110517D01*
X103500Y253599D02*
X110515D01*
X103500Y163599D02*
X110515D01*
X103500Y236499D02*
X110439D01*
X103500Y146499D02*
X110439D01*
X103500Y173499D02*
X110437D01*
X103500Y226599D02*
X110364D01*
X103500Y273399D02*
X110362D01*
X103500Y183399D02*
X110362D01*
X103500Y216699D02*
X110292D01*
X103500Y283299D02*
X110290D01*
X103500Y193299D02*
X110290D01*
X103500Y296799D02*
X110224D01*
X103500Y206799D02*
X110224D01*
X103500Y293199D02*
X110222D01*
X103500Y203199D02*
X110222D01*
X103500Y286899D02*
X110158D01*
X103500Y196899D02*
X110158D01*
X103500Y303099D02*
X110156D01*
X103500Y213099D02*
X110156D01*
X103500Y276999D02*
X110095D01*
X103500Y186999D02*
X110095D01*
X103500Y222999D02*
X110094D01*
X103500Y267099D02*
X110036D01*
X103500Y177099D02*
X110036D01*
X103500Y232899D02*
X110034D01*
X103500Y167199D02*
X109979D01*
X103500Y242799D02*
X109977D01*
X103500Y152799D02*
X109977D01*
X103500Y247299D02*
X109924D01*
X103500Y157299D02*
X109924D01*
X103500Y252699D02*
X109923D01*
X103500Y162699D02*
X109923D01*
X103500Y237399D02*
X109872D01*
X103500Y147399D02*
X109872D01*
X103500Y172599D02*
X109871D01*
X103500Y227499D02*
X109823D01*
X103500Y272499D02*
X109821D01*
X103500Y182499D02*
X109821D01*
X103500Y217599D02*
X109775D01*
X103500Y282399D02*
X109774D01*
X103500Y192399D02*
X109774D01*
X103500Y297699D02*
X109731D01*
X103500Y207699D02*
X109731D01*
X103500Y292299D02*
X109729D01*
X103500Y202299D02*
X109729D01*
X103500Y287799D02*
X109688D01*
X103500Y197799D02*
X109688D01*
X103500Y302199D02*
X109687D01*
X103500Y212199D02*
X109687D01*
X103500Y277899D02*
X109648D01*
X103500Y187899D02*
X109648D01*
X103500Y222099D02*
X109647D01*
X103500Y267999D02*
X109609D01*
X103500Y177999D02*
X109609D01*
X103500Y231999D02*
X109609D01*
X103500Y168099D02*
X109573D01*
X103500Y241899D02*
X109573D01*
X103500Y151899D02*
X109573D01*
X103500Y248199D02*
X109539D01*
X103500Y158199D02*
X109539D01*
X103500Y251799D02*
X109539D01*
X103500Y161799D02*
X109539D01*
X103500Y238299D02*
X109507D01*
X103500Y148299D02*
X109507D01*
X103500Y171699D02*
X109507D01*
X103500Y228399D02*
X109477D01*
X103500Y271599D02*
X109477D01*
X103500Y181599D02*
X109477D01*
X103500Y218499D02*
X109449D01*
X103500Y281499D02*
X109449D01*
X103500Y191499D02*
X109449D01*
X103500Y298599D02*
X109423D01*
X103500Y208599D02*
X109423D01*
X103500Y291399D02*
X109423D01*
X103500Y201399D02*
X109423D01*
X103500Y288699D02*
X109399D01*
X103500Y198699D02*
X109399D01*
X103500Y301299D02*
X109399D01*
X103500Y211299D02*
X109399D01*
X103500Y278799D02*
X109377D01*
X103500Y188799D02*
X109377D01*
X103500Y221199D02*
X109376D01*
X103500Y268899D02*
X109356D01*
X103500Y178899D02*
X109356D01*
X103500Y231099D02*
X109356D01*
X103500Y168999D02*
X109338D01*
X103500Y240999D02*
X109337D01*
X103500Y150999D02*
X109337D01*
X103500Y249099D02*
X109321D01*
X103500Y159099D02*
X109321D01*
X103500Y250899D02*
X109321D01*
X103500Y160899D02*
X109321D01*
X103500Y239199D02*
X109306D01*
X103500Y149199D02*
X109306D01*
X103500Y170799D02*
X109306D01*
X103500Y229299D02*
X109293D01*
X103500Y270699D02*
X109293D01*
X103500Y180699D02*
X109293D01*
X103500Y219399D02*
X109282D01*
X103500Y280599D02*
X109281D01*
X103500Y190599D02*
X109281D01*
X103500Y299499D02*
X109272D01*
X103500Y209499D02*
X109272D01*
X103500Y290499D02*
X109272D01*
X103500Y200499D02*
X109272D01*
X103500Y289599D02*
X109264D01*
X103500Y199599D02*
X109264D01*
X103500Y300399D02*
X109264D01*
X103500Y210399D02*
X109264D01*
X103500Y279699D02*
X109258D01*
X103500Y189699D02*
X109258D01*
X103500Y220299D02*
X109258D01*
X103500Y269799D02*
X109254D01*
X103500Y179799D02*
X109254D01*
X103500Y230199D02*
X109253D01*
X103500Y169899D02*
X109251D01*
X103500Y240099D02*
X109251D01*
X103500Y150099D02*
X109251D01*
X103500Y249999D02*
X109250D01*
X103500Y159999D02*
X109250D01*
X374609Y239199D02*
X376500D01*
X373859Y238299D02*
X376500D01*
X373109Y237399D02*
X376500D01*
X372359Y236499D02*
X376500D01*
X371609Y235599D02*
X376500D01*
X371500Y234699D02*
X376500D01*
X371500Y233799D02*
X376500D01*
X371498Y232899D02*
X376500D01*
X371291Y231999D02*
X376500D01*
X370623Y231099D02*
X376500D01*
X321457Y230199D02*
X376500D01*
X322819Y229299D02*
X376500D01*
X323638Y228399D02*
X376500D01*
X369082Y227499D02*
X376500D01*
X370922Y226599D02*
X376500D01*
X371400Y225699D02*
X376500D01*
X371500Y224799D02*
X376500D01*
X371500Y223899D02*
X376500D01*
X371500Y222999D02*
X376500D01*
X371500Y222099D02*
X376500D01*
X372149Y221199D02*
X376500D01*
X373041Y220299D02*
X376500D01*
X373933Y219399D02*
X376500D01*
X374825Y218499D02*
X376500D01*
X375359Y240099D02*
X376500D01*
X375736Y217599D02*
X376264D01*
X348285Y211299D02*
X372730D01*
X349185Y210399D02*
X372730D01*
X350085Y209499D02*
X372730D01*
X350985Y208599D02*
X372730D01*
X351885Y207699D02*
X372730D01*
X352785Y206799D02*
X372730D01*
X353685Y205899D02*
X372730D01*
X358642Y204999D02*
X372730D01*
X359655Y204099D02*
X372730D01*
X360009Y203199D02*
X372730D01*
X360050Y202299D02*
X372730D01*
X360050Y201399D02*
X372730D01*
X360050Y200499D02*
X372730D01*
X360050Y199599D02*
X372730D01*
X360045Y198699D02*
X372730D01*
X359818Y197799D02*
X372730D01*
X359422Y196899D02*
X372730D01*
X359902Y195999D02*
X372730D01*
X360050Y195099D02*
X372730D01*
X360050Y194199D02*
X372730D01*
X360050Y193299D02*
X372730D01*
X360050Y192399D02*
X372730D01*
X360050Y191499D02*
X372730D01*
X366311Y190599D02*
X372730D01*
X368314Y189699D02*
X372730D01*
X369317Y188799D02*
X372730D01*
X369966Y187899D02*
X372730D01*
X370391Y186999D02*
X372730D01*
X370644Y186099D02*
X372730D01*
X370747Y185199D02*
X372730D01*
X370707Y184299D02*
X372730D01*
X370523Y183399D02*
X372730D01*
X370177Y182499D02*
X372730D01*
X369636Y181599D02*
X372730D01*
X368819Y180699D02*
X372730D01*
X368517Y179799D02*
X372730D01*
X368036Y178899D02*
X372730D01*
X367202Y177999D02*
X372730D01*
X366302Y177099D02*
X372730D01*
X365402Y176199D02*
X372730D01*
X364502Y175299D02*
X372730D01*
X363548Y174399D02*
X372730D01*
X350502Y173499D02*
X372730D01*
X349602Y172599D02*
X372730D01*
X348702Y171699D02*
X372730D01*
X347892Y170799D02*
X372730D01*
X348940Y169899D02*
X372730D01*
X349886Y168999D02*
X372730D01*
X350899Y168099D02*
X372730D01*
X352185Y167199D02*
X372730D01*
X353085Y166299D02*
X372730D01*
X370126Y165399D02*
X372730D01*
X370792Y164499D02*
X372730D01*
X370998Y163599D02*
X372730D01*
X371000Y162699D02*
X372730D01*
X371000Y161799D02*
X372730D01*
X371000Y160899D02*
X372730D01*
X371000Y159999D02*
X372730D01*
X371000Y159099D02*
X372730D01*
X371000Y158199D02*
X372730D01*
X371000Y157299D02*
X372730D01*
X370998Y156399D02*
X372730D01*
X370791Y155499D02*
X372730D01*
X370123Y154599D02*
X372730D01*
X339500Y153699D02*
X372730D01*
X339500Y152799D02*
X372730D01*
X339500Y151899D02*
X372730D01*
X339500Y150999D02*
X372730D01*
X339500Y150099D02*
X372730D01*
X339500Y149199D02*
X372730D01*
X339500Y148299D02*
X372730D01*
X339500Y147399D02*
X372730D01*
X339500Y146499D02*
X372730D01*
X339500Y145599D02*
X372730D01*
X339500Y144699D02*
X372730D01*
X339391Y143799D02*
X372730D01*
X338971Y142899D02*
X372730D01*
X337994Y141999D02*
X372730D01*
X330200Y141099D02*
X372730D01*
X330200Y140199D02*
X372730D01*
X330200Y139299D02*
X372730D01*
X330200Y138399D02*
X372730D01*
X330200Y137499D02*
X372730D01*
X330200Y136599D02*
X372730D01*
X330200Y135699D02*
X372730D01*
X330385Y134799D02*
X372730D01*
X331285Y133899D02*
X372730D01*
X332185Y132999D02*
X372730D01*
X332815Y132099D02*
X372730D01*
X333132Y131199D02*
X372730D01*
X335236Y130299D02*
X372730D01*
X335833Y129399D02*
X372730D01*
X336000Y128499D02*
X372730D01*
X336000Y127599D02*
X372730D01*
X336000Y126699D02*
X372730D01*
X336000Y125799D02*
X372730D01*
X336000Y124899D02*
X372730D01*
X336000Y123999D02*
X372730D01*
X336000Y123099D02*
X372730D01*
X336000Y122199D02*
X372730D01*
X335992Y121299D02*
X372730D01*
X335744Y120399D02*
X372730D01*
X335792Y119499D02*
X372730D01*
X335998Y118599D02*
X372730D01*
X336000Y117699D02*
X372730D01*
X336000Y116799D02*
X372730D01*
X336000Y115899D02*
X372698D01*
X347385Y212199D02*
X372339D01*
X336000Y114999D02*
X371866D01*
X346335Y213099D02*
X371447D01*
X336000Y114099D02*
X370972D01*
X345435Y213999D02*
X370555D01*
X366553Y255399D02*
X370277D01*
X366267Y254499D02*
X370277D01*
X365796Y253599D02*
X370277D01*
X365078Y252699D02*
X370277D01*
X363931Y251799D02*
X370277D01*
X325237Y250899D02*
X370277D01*
X324337Y249999D02*
X370277D01*
X323437Y249099D02*
X370277D01*
X322537Y248199D02*
X370277D01*
X321637Y247299D02*
X370277D01*
X320737Y246399D02*
X370277D01*
X319837Y245499D02*
X370277D01*
X318937Y244599D02*
X370277D01*
X318037Y243699D02*
X370248D01*
X336000Y113199D02*
X370078D01*
X344535Y214899D02*
X369664D01*
X317137Y242799D02*
X369539D01*
X336000Y112299D02*
X369184D01*
X316237Y241899D02*
X368788D01*
X343635Y215799D02*
X368772D01*
X335998Y111399D02*
X368290D01*
X315337Y240999D02*
X368038D01*
X342735Y216699D02*
X367880D01*
X335791Y110499D02*
X367396D01*
X314437Y240099D02*
X367288D01*
X341835Y217599D02*
X366988D01*
X335123Y109599D02*
X366502D01*
X340935Y218499D02*
X365922D01*
X312134Y108699D02*
X365608D01*
X313027Y107799D02*
X364714D01*
X359964Y190599D02*
X363689D01*
X324179Y227499D02*
X362918D01*
X313537Y239199D02*
X361810D01*
X359510Y189699D02*
X361686D01*
X305577Y231099D02*
X361377D01*
X340300Y219399D02*
X361080D01*
X324523Y226599D02*
X361078D01*
X312637Y238299D02*
X360864D01*
X305728Y231999D02*
X360709D01*
X359317Y188799D02*
X360683D01*
X340300Y220299D02*
X360600D01*
X324707Y225699D02*
X360600D01*
X311737Y237399D02*
X360532D01*
X305736Y232899D02*
X360502D01*
X310803Y236499D02*
X360500D01*
X307483Y235599D02*
X360500D01*
X306583Y234699D02*
X360500D01*
X305715Y233799D02*
X360500D01*
X324746Y224799D02*
X360500D01*
X324659Y223899D02*
X360500D01*
X339483Y222999D02*
X360500D01*
X340113Y222099D02*
X360500D01*
X340300Y221199D02*
X360500D01*
X326137Y251799D02*
X358159D01*
X327037Y252699D02*
X357012D01*
X327937Y253599D02*
X356294D01*
X328837Y254499D02*
X355823D01*
X354304Y258099D02*
X355579D01*
X329737Y255399D02*
X355537D01*
X353404Y257199D02*
X355421D01*
X351898Y256299D02*
X355406D01*
X339500Y154599D02*
X349877D01*
X339500Y155499D02*
X349209D01*
X339500Y156399D02*
X349002D01*
X339500Y157299D02*
X349000D01*
X329986Y222999D02*
X330497D01*
X312124Y109599D02*
X324877D01*
X288029Y120399D02*
X324256D01*
X312169Y110499D02*
X324209D01*
X287129Y119499D02*
X324208D01*
X288929Y121299D02*
X324008D01*
X312077Y111399D02*
X324002D01*
X286229Y118599D02*
X324002D01*
X290871Y128499D02*
X324000D01*
X290871Y127599D02*
X324000D01*
X290871Y126699D02*
X324000D01*
X290871Y125799D02*
X324000D01*
X290871Y124899D02*
X324000D01*
X290826Y123999D02*
X324000D01*
X290523Y123099D02*
X324000D01*
X289829Y122199D02*
X324000D01*
X285329Y117699D02*
X324000D01*
X284429Y116799D02*
X324000D01*
X308435Y115899D02*
X324000D01*
X309955Y114999D02*
X324000D01*
X310849Y114099D02*
X324000D01*
X311447Y113199D02*
X324000D01*
X311843Y112299D02*
X324000D01*
X305269Y230199D02*
X316543D01*
X304776Y229299D02*
X315181D01*
X304030Y228399D02*
X314362D01*
X303250Y227499D02*
X313821D01*
X304033Y226599D02*
X313477D01*
X304811Y225699D02*
X313293D01*
X309780Y224799D02*
X313254D01*
X310685Y223899D02*
X313151D01*
X290934Y129399D02*
X308598D01*
X281935Y104199D02*
X305206D01*
X283778Y115899D02*
X303906D01*
X283887Y105099D02*
X303254D01*
X284755Y114999D02*
X302387D01*
X285110Y105999D02*
X302031D01*
X285649Y114099D02*
X301492D01*
X285884Y106899D02*
X301257D01*
X286247Y113199D02*
X300894D01*
X286405Y107799D02*
X300736D01*
X286643Y112299D02*
X300499D01*
X286741Y108699D02*
X300400D01*
X286877Y111399D02*
X300264D01*
X286924Y109599D02*
X300217D01*
X286969Y110499D02*
X300173D01*
X193000Y237000D02*
G03X193000I-1000J0D01*
G54D31*
G01X280971Y127342D03*
Y110342D03*
X306171D03*
Y127342D03*
X318100Y284200D03*
Y274300D03*
Y264400D03*
X341700D03*
Y274300D03*
Y284200D03*
G54D35*
X177500Y124937D03*
X147500D03*
X125000Y150000D03*
X115000D03*
X212500D03*
Y140000D03*
X202500Y150000D03*
Y140000D03*
X160000Y315000D03*
Y325000D03*
X192500Y150000D03*
Y140000D03*
X290000Y182500D03*
X300000D03*
X182500Y150000D03*
Y140000D03*
X162500Y150000D03*
Y140000D03*
X290000Y315000D03*
Y325000D03*
X152500Y150000D03*
Y140000D03*
X260000Y315000D03*
Y325000D03*
X270000Y315000D03*
Y325000D03*
X300000Y315000D03*
Y325000D03*
X192500Y125000D03*
Y115000D03*
X162500Y125000D03*
Y115000D03*
X290000Y192500D03*
X300000D03*
X310000Y315000D03*
Y325000D03*
X150000Y315000D03*
Y325000D03*
X320000Y315000D03*
Y325000D03*
X189500Y188500D03*
X199500D03*
X330000Y315000D03*
Y325000D03*
X280000Y315000D03*
Y325000D03*
X125000Y220000D03*
X115000D03*
X125000Y210000D03*
X115000D03*
X125000Y230000D03*
X115000D03*
X125000Y240000D03*
X115000D03*
X172500Y150000D03*
Y140000D03*
X125000Y250000D03*
X115000D03*
X209000Y125000D03*
Y115000D03*
X125000Y270000D03*
X115000D03*
X210000Y315000D03*
Y325000D03*
X125000Y280000D03*
X115000D03*
X220000Y315000D03*
Y325000D03*
X125000Y290000D03*
X115000D03*
X340000Y315000D03*
Y325000D03*
X125000Y300000D03*
X115000D03*
X290000Y282500D03*
X300000D03*
X140000Y315000D03*
Y325000D03*
X290000Y272500D03*
X300000D03*
X170000Y315000D03*
Y325000D03*
X230000Y315000D03*
Y325000D03*
X290000Y262500D03*
X300000D03*
X229000Y125000D03*
X239000Y115000D03*
Y125000D03*
X249000Y115000D03*
Y125000D03*
X259000Y115000D03*
Y125000D03*
X269000Y115000D03*
Y125000D03*
X180000Y315000D03*
Y325000D03*
X262500Y150000D03*
Y140000D03*
X190000Y315000D03*
Y325000D03*
X252500Y150000D03*
Y140000D03*
X200000Y315000D03*
Y325000D03*
X242500Y150000D03*
Y140000D03*
X290000Y252500D03*
X300000D03*
X125000Y160000D03*
X115000D03*
X240000Y315000D03*
Y325000D03*
X290000Y242500D03*
X300000D03*
X290000Y232500D03*
X300000D03*
X290000Y222500D03*
X300000D03*
X290000Y212500D03*
X300000D03*
X290000Y202500D03*
X300000D03*
X355000Y185000D03*
X365000D03*
X282500Y150000D03*
Y140000D03*
X272500Y150000D03*
Y140000D03*
X232500Y150000D03*
Y140000D03*
X319000Y225000D03*
Y215000D03*
X327000D03*
Y225000D03*
X125000Y260000D03*
X115000D03*
X250000Y315000D03*
Y325000D03*
X222500Y150000D03*
Y140000D03*
X201000Y200000D03*
X159142Y231000D03*
X178858D03*
X125000Y170000D03*
X115000D03*
X125000Y180000D03*
X115000D03*
X125000Y190000D03*
X115000D03*
X125000Y200000D03*
X115000D03*
X347000Y294063D03*
X167500Y181000D03*
Y158300D03*
X214800Y175900D03*
X260587Y189465D03*
X268700Y175900D03*
X310000Y182000D03*
X164753Y275200D03*
X260500Y216300D03*
X251900Y207200D03*
X253100Y265700D03*
X310000Y247400D03*
X164753Y293964D03*
G54D36*
X225500Y199455D02*
X225000Y199818D01*
X224750Y200364*
Y201091*
X225000Y201636*
X225500Y202000*
X226000*
X226500Y201818*
X226750Y201636*
X227000Y201273*
X227500Y200182*
X227750Y199818*
X228000Y199636*
X228500Y199455*
X229250*
X229750Y199818*
X230000Y200364*
Y201091*
X229750Y201636*
X229250Y202000*
X224750Y196545D02*
X230000D01*
X224750Y197818D02*
Y195273D01*
Y193636D02*
X230000D01*
X224750D02*
X230000Y192182D01*
X224750Y190727D02*
X230000Y192182D01*
X224750Y190727D02*
X230000D01*
X224750Y188727D02*
Y186727D01*
X226750Y187818*
Y187273*
X227000Y186909*
X227250Y186727*
X228000Y186545*
X228500*
X229250Y186727*
X229750Y187091*
X230000Y187636*
Y188182*
X229750Y188727*
X229500Y188909*
X229000Y189091*
X226000Y184727D02*
X225750D01*
X225250Y184545*
X225000Y184364*
X224750Y184000*
Y183273*
X225000Y182909*
X225250Y182727*
X225750Y182545*
X226250*
X226750Y182727*
X227500Y183091*
X230000Y184909*
Y182364*
X224750Y180727D02*
X230000D01*
X224750D02*
Y178364D01*
X227250Y180727D02*
Y179273D01*
X225750Y176727D02*
X225500Y176364D01*
X224750Y175818*
X230000*
X224750Y173091D02*
X225000Y173636D01*
X225750Y174000*
X227000Y174182*
X227750*
X229000Y174000*
X229750Y173636*
X230000Y173091*
Y172727*
X229750Y172182*
X229000Y171818*
X227750Y171636*
X227000*
X225750Y171818*
X225000Y172182*
X224750Y172727*
Y173091*
X226500Y170000D02*
X230000Y168000D01*
X226500D02*
X230000Y170000D01*
X224750Y166364D02*
X230000D01*
X224750D02*
Y164727D01*
X225000Y164182*
X225250Y164000*
X225750Y163818*
X226250*
X226750Y164000*
X227000Y164182*
X227250Y164727*
Y166364*
Y165091D02*
X230000Y163818D01*
X226500Y162182D02*
X230000Y160182D01*
X226500D02*
X230000Y162182D01*
X224750Y157273D02*
X230000D01*
X224750Y158545D02*
Y156000D01*
X238961Y163209D02*
X235461D01*
X237961D02*
X238711Y163754D01*
X238961Y164118*
Y164664*
X238711Y165027*
X237961Y165209*
X235461*
X237961D02*
X238711Y165754D01*
X238961Y166118*
Y166664*
X238711Y167027*
X237961Y167209*
X235461*
X240711Y168845D02*
X240461Y169027D01*
X240711Y169209*
X240961Y169027*
X240711Y168845*
X238961Y169027D02*
X235461D01*
X240711Y171573D02*
X240461Y171754D01*
X240711Y171936*
X240961Y171754*
X240711Y171573*
X238961Y171754D02*
X234711D01*
X233961Y171573*
X233711Y171209*
Y170845*
X238961Y175754D02*
X235461D01*
X238211D02*
X238711Y175391D01*
X238961Y175027*
Y174482*
X238711Y174118*
X238211Y173754*
X237461Y173573*
X236961*
X236211Y173754*
X235711Y174118*
X235461Y174482*
Y175027*
X235711Y175391*
X236211Y175754*
X239461Y181754D02*
X239711D01*
X240211Y181936*
X240461Y182118*
X240711Y182482*
Y183209*
X240461Y183573*
X240211Y183754*
X239711Y183936*
X239211*
X238711Y183754*
X237961Y183391*
X235461Y181573*
Y184118*
X240711Y186845D02*
X240461Y186300D01*
X239711Y185936*
X238461Y185754*
X237711*
X236461Y185936*
X235711Y186300*
X235461Y186845*
Y187209*
X235711Y187754*
X236461Y188118*
X237711Y188300*
X238461*
X239711Y188118*
X240461Y187754*
X240711Y187209*
Y186845*
X239711Y189936D02*
X239961Y190300D01*
X240711Y190845*
X235461*
X240711Y193573D02*
X240461Y193027D01*
X239711Y192664*
X238461Y192482*
X237711*
X236461Y192664*
X235711Y193027*
X235461Y193573*
Y193936*
X235711Y194482*
X236461Y194845*
X237711Y195027*
X238461*
X239711Y194845*
X240461Y194482*
X240711Y193936*
Y193573*
G54D40*
X321600Y171600D02*
X322800D01*
X321600Y153400D02*
X322800D01*
X321600Y162500D02*
X322800D01*
G54D43*
X148250Y264500D02*
X143750D01*
X148250Y251500D02*
X143750D01*
X331000Y154750D02*
Y150250D01*
X344000Y154750D02*
Y150250D01*
G54D44*
X317300Y139750D02*
Y145250D01*
X297700Y139750D02*
Y145250D01*
X339750Y165200D02*
X345250D01*
X339750Y184800D02*
X345250D01*
X325200Y140250D02*
Y134750D01*
X344800Y140250D02*
Y134750D01*
G54D45*
X179500Y201500D02*
Y199500D01*
X191500Y201500D02*
Y199500D01*
X169500Y189500D02*
Y187500D01*
X181500Y189500D02*
Y187500D01*
X366000Y295000D02*
Y297000D01*
X354000Y295000D02*
Y297000D01*
X367000Y235000D02*
X365000D01*
X367000Y223000D02*
X365000D01*
G54D46*
X177500Y115063D03*
X147500D03*
X229000Y115000D03*
X347000Y303937D03*
G54D47*
X338000Y196000D03*
Y244000D03*
G54D48*
X148000Y272450D02*
Y277550D01*
X138000Y272450D02*
Y277550D01*
G54D49*
X321753Y284300D03*
Y274300D03*
Y264300D03*
X341753D03*
Y274300D03*
Y284300D03*
X331753Y294300D03*
Y254300D03*
G54D50*
X194890Y240736D02*
X190244D01*
X194890Y242705D02*
X190244D01*
X194890Y244673D02*
X190244D01*
X194890Y246642D02*
X190244D01*
X194890Y248610D02*
X190244D01*
X194890Y250579D02*
X190244D01*
X194890Y252547D02*
X190244D01*
X194890Y254516D02*
X190244D01*
X194890Y256484D02*
X190244D01*
X194890Y258453D02*
X190244D01*
X194890Y260421D02*
X190244D01*
X194890Y262390D02*
X190244D01*
X194890Y264358D02*
X190244D01*
X194890Y266327D02*
X190244D01*
X194890Y268295D02*
X190244D01*
X194890Y270264D02*
X190244D01*
X200736Y276110D02*
Y280756D01*
X202705Y276110D02*
Y280756D01*
X204673Y276110D02*
Y280756D01*
X206642Y276110D02*
Y280756D01*
X208610Y276110D02*
Y280756D01*
X210579Y276110D02*
Y280756D01*
X212547Y276110D02*
Y280756D01*
X214516Y276110D02*
Y280756D01*
X216484Y276110D02*
Y280756D01*
X218453Y276110D02*
Y280756D01*
X220421Y276110D02*
Y280756D01*
X222390Y276110D02*
Y280756D01*
X224358Y276110D02*
Y280756D01*
X226327Y276110D02*
Y280756D01*
X228295Y276110D02*
Y280756D01*
X230264Y276110D02*
Y280756D01*
X240756Y270264D02*
X236110D01*
X240756Y268295D02*
X236110D01*
X240756Y266327D02*
X236110D01*
X240756Y264358D02*
X236110D01*
X240756Y262390D02*
X236110D01*
X240756Y260421D02*
X236110D01*
X240756Y258453D02*
X236110D01*
X240756Y256484D02*
X236110D01*
X240756Y254516D02*
X236110D01*
X240756Y252547D02*
X236110D01*
X240756Y250579D02*
X236110D01*
X240756Y248610D02*
X236110D01*
X240756Y246642D02*
X236110D01*
X240756Y244673D02*
X236110D01*
X240756Y242705D02*
X236110D01*
X240756Y240736D02*
X236110D01*
X230264Y230244D02*
Y234890D01*
X228295Y230244D02*
Y234890D01*
X226327Y230244D02*
Y234890D01*
X224358Y230244D02*
Y234890D01*
X222390Y230244D02*
Y234890D01*
X220421Y230244D02*
Y234890D01*
X218453Y230244D02*
Y234890D01*
X216484Y230244D02*
Y234890D01*
X214516Y230244D02*
Y234890D01*
X212547Y230244D02*
Y234890D01*
X210579Y230244D02*
Y234890D01*
X208610Y230244D02*
Y234890D01*
X206642Y230244D02*
Y234890D01*
X204673Y230244D02*
Y234890D01*
X202705Y230244D02*
Y234890D01*
X200736Y230244D02*
Y234890D01*
G54D51*
X186963Y104164D02*
X286767D01*
X323749Y107978D02*
X336346D01*
X340000Y115000*
X323749Y107978D02*
X320000Y115000D01*
X330000D02*
Y125000D01*
X309900Y133100D02*
X309200D01*
Y142400*
X308600Y142500*
X297700*
X342700Y171000D02*
X349100Y177400D01*
X361300*
X365000Y181100*
Y185000*
X342500Y170800D02*
X342700Y170600D01*
Y167300*
X325200Y135600D02*
Y133100D01*
X309900*
X342700Y165200D02*
Y167300D01*
X325200Y135600D02*
Y137500D01*
X342500Y170800D02*
X342700Y171000D01*
X355000Y170000D02*
X365000D01*
X355000Y160000D02*
X365000D01*
X355000Y150000D02*
X365000D01*
X371594Y153511*
Y167148*
X365000Y170000*
G74*
X0Y0D02*
M02*
