*
*
G04 PowerPCB (Build Number 500.281.2.20) generated Gerber (RS-274-X) file*
G04 PC Version=2.1*
*
%IN "UNIUNI01A.pcb"*%
*
%MOIN*%
*
%FSLAX35Y35*%
*
*
*
*
G04 PC Standard Apertures*
*
*
G04 Thermal Relief Aperture macro.*
%AMTER*
1,1,$1,0,0*
1,0,$1-$2,0,0*
21,0,$3,$4,0,0,45*
21,0,$3,$4,0,0,135*
%
*
*
G04 Annular Aperture macro.*
%AMANN*
1,1,$1,0,0*
1,0,$2,0,0*
%
*
*
G04 Odd Aperture macro.*
%AMODD*
1,1,$1,0,0*
1,0,$1-0.005,0,0*
%
*
*
G04 PC Custom Aperture Macros*
*
*
*
*
*
*
G04 PC Aperture Table*
*
%ADD013C,0.23622*%
%ADD014C,0.05*%
%ADD019C,0.03*%
%ADD023C,0.007*%
%ADD025C,0.01*%
%ADD040R,0.06X0.06*%
%ADD043R,0.065X0.065*%
*
*
*
*
G04 PC Custom Flashes*
G04 Layer Name UNIUNI01A.pcb - flashes*
%LPD*%
*
*
G04 PC Circuitry*
G04 Layer Name UNIUNI01A.pcb - circuitry*
%LPD*%
*
G54D13*
G01X00140000Y00140000D03*
X00300000D03*
Y00340000D03*
X00140000D03*
G54D14*
X00215000Y00132500D02*
Y00142500D01*
X00205000Y00132500D02*
Y00142500D01*
X00195000Y00132500D02*
Y00142500D01*
X00185000Y00132500D02*
Y00142500D01*
X00175000Y00132500D02*
Y00142500D01*
X00265000Y00132500D02*
Y00142500D01*
X00255000Y00132500D02*
Y00142500D01*
X00245000Y00132500D02*
Y00142500D01*
X00235000Y00132500D02*
Y00142500D01*
X00225000Y00132500D02*
Y00142500D01*
X00130000Y00165000D02*
X00140000D01*
X00130000Y00175000D02*
X00140000D01*
X00130000Y00185000D02*
X00140000D01*
X00130000Y00195000D02*
X00140000D01*
X00130000Y00205000D02*
X00140000D01*
X00130000Y00215000D02*
X00140000D01*
X00160000Y00142500D02*
X00162500D01*
X00170000Y00150000*
X00270000*
X00277500Y00142500*
X00280000*
X00200000Y00215000D02*
X00190000D01*
X00180000*
X00200000Y00205000D02*
X00190000D01*
X00180000*
X00200000Y00195000D02*
X00190000D01*
X00180000*
X00200000Y00185000D02*
X00190000D01*
X00180000*
X00200000Y00165000D02*
X00190000D01*
X00180000*
X00200000Y00175000D02*
X00190000D01*
X00180000*
X00150000Y00215000D02*
X00160000D01*
X00150000Y00205000D02*
X00160000D01*
X00150000Y00195000D02*
X00160000D01*
X00150000Y00185000D02*
X00160000D01*
X00150000Y00175000D02*
X00160000D01*
X00150000Y00165000D02*
X00160000D01*
X00280000Y00215000D02*
X00290000D01*
X00280000Y00205000D02*
X00290000D01*
X00280000Y00195000D02*
X00290000D01*
X00280000Y00185000D02*
X00290000D01*
X00280000Y00175000D02*
X00290000D01*
X00280000Y00165000D02*
X00290000D01*
X00240000Y00175000D02*
X00250000D01*
X00265000Y00195000D02*
Y00185000D01*
Y00175000*
Y00165000*
Y00215000D02*
Y00205000D01*
X00240000Y00215000D02*
X00250000D01*
X00240000Y00205000D02*
X00250000D01*
X00240000Y00195000D02*
X00250000D01*
X00240000Y00185000D02*
X00250000D01*
X00240000Y00165000D02*
X00250000D01*
X00220000Y00215000D02*
X00230000D01*
X00220000Y00205000D02*
X00230000D01*
X00220000Y00195000D02*
X00230000D01*
X00220000Y00185000D02*
X00230000D01*
X00220000Y00175000D02*
X00230000D01*
X00220000Y00165000D02*
X00230000D01*
X00300000Y00175000D02*
X00310000D01*
X00300000Y00215000D02*
X00310000D01*
X00300000Y00205000D02*
X00310000D01*
X00300000Y00195000D02*
X00310000D01*
X00300000Y00185000D02*
X00310000D01*
X00300000Y00165000D02*
X00310000D01*
X00130000Y00225000D02*
X00140000D01*
X00130000Y00235000D02*
X00140000D01*
X00130000Y00245000D02*
X00140000D01*
X00130000Y00255000D02*
X00140000D01*
X00130000Y00265000D02*
X00140000D01*
X00130000Y00275000D02*
X00140000D01*
X00130000Y00285000D02*
X00140000D01*
X00130000Y00295000D02*
X00140000D01*
X00200000D02*
X00190000D01*
X00180000*
X00200000Y00285000D02*
X00190000D01*
X00180000*
X00200000Y00275000D02*
X00190000D01*
X00180000*
X00200000Y00265000D02*
X00190000D01*
X00180000*
X00200000Y00255000D02*
X00190000D01*
X00180000*
X00200000Y00245000D02*
X00190000D01*
X00180000*
X00200000Y00235000D02*
X00190000D01*
X00180000*
X00200000Y00225000D02*
X00190000D01*
X00180000*
X00150000Y00295000D02*
X00160000D01*
X00150000Y00285000D02*
X00160000D01*
X00150000Y00275000D02*
X00160000D01*
X00150000Y00265000D02*
X00160000D01*
X00150000Y00255000D02*
X00160000D01*
X00150000Y00245000D02*
X00160000D01*
X00150000Y00235000D02*
X00160000D01*
X00150000Y00225000D02*
X00160000D01*
X00280000Y00295000D02*
X00290000D01*
X00280000Y00285000D02*
X00290000D01*
X00280000Y00275000D02*
X00290000D01*
X00280000Y00265000D02*
X00290000D01*
X00280000Y00255000D02*
X00290000D01*
X00280000Y00245000D02*
X00290000D01*
X00280000Y00235000D02*
X00290000D01*
X00280000Y00225000D02*
X00290000D01*
X00265000Y00235000D02*
Y00225000D01*
Y00215000*
Y00275000D02*
Y00265000D01*
Y00255000*
Y00245000*
Y00295000D02*
Y00285000D01*
X00240000Y00295000D02*
X00250000D01*
X00240000Y00285000D02*
X00250000D01*
X00240000Y00275000D02*
X00250000D01*
X00240000Y00265000D02*
X00250000D01*
X00240000Y00255000D02*
X00250000D01*
X00240000Y00245000D02*
X00250000D01*
X00240000Y00235000D02*
X00250000D01*
X00240000Y00225000D02*
X00250000D01*
X00220000Y00295000D02*
X00230000D01*
X00220000Y00285000D02*
X00230000D01*
X00220000Y00275000D02*
X00230000D01*
X00220000Y00265000D02*
X00230000D01*
X00220000Y00255000D02*
X00230000D01*
X00220000Y00245000D02*
X00230000D01*
X00220000Y00235000D02*
X00230000D01*
X00220000Y00225000D02*
X00230000D01*
X00300000Y00295000D02*
X00310000D01*
X00300000Y00285000D02*
X00310000D01*
X00300000Y00275000D02*
X00310000D01*
X00300000Y00265000D02*
X00310000D01*
X00300000Y00255000D02*
X00310000D01*
X00300000Y00245000D02*
X00310000D01*
X00300000Y00235000D02*
X00310000D01*
X00300000Y00225000D02*
X00310000D01*
X00130000Y00315000D02*
X00140000D01*
X00130000Y00305000D02*
X00140000D01*
X00160000Y00337500D02*
X00162500D01*
X00170000Y00330000*
X00270000*
X00277500Y00337500*
X00280000*
X00215000D02*
Y00347500D01*
X00205000Y00337500D02*
Y00347500D01*
X00195000Y00337500D02*
Y00347500D01*
X00185000Y00337500D02*
Y00347500D01*
X00175000Y00337500D02*
Y00347500D01*
X00200000Y00315000D02*
X00190000D01*
X00180000*
X00200000Y00305000D02*
X00190000D01*
X00180000*
X00150000Y00315000D02*
X00160000D01*
X00150000Y00305000D02*
X00160000D01*
X00265000Y00337500D02*
Y00347500D01*
X00255000Y00337500D02*
Y00347500D01*
X00245000Y00337500D02*
Y00347500D01*
X00235000Y00337500D02*
Y00347500D01*
X00225000Y00337500D02*
Y00347500D01*
X00280000Y00315000D02*
X00290000D01*
X00280000Y00305000D02*
X00290000D01*
X00265000Y00315000D02*
Y00305000D01*
Y00295000*
X00240000Y00315000D02*
X00250000D01*
X00240000Y00305000D02*
X00250000D01*
X00220000Y00315000D02*
X00230000D01*
X00220000Y00305000D02*
X00230000D01*
X00300000Y00315000D02*
X00310000D01*
X00300000Y00305000D02*
X00310000D01*
G54D19*
X00123500Y00157400D02*
Y00324200D01*
X00140000Y00340000*
X00123500Y00157400D02*
Y00156500D01*
X00140000Y00140000*
X00300000D02*
X00315800Y00155800D01*
Y00156300*
X00316500Y00157000*
X00300000Y00340000D02*
X00316500Y00324200D01*
Y00157000*
G54D23*
X00110000Y00110000D02*
Y00110500D01*
Y00110000D02*
X00110500D01*
X00110000D02*
Y00109500D01*
Y00110000D02*
X00109500D01*
X00111500D02*
X00116500D01*
X00110000Y00108500D02*
Y00105100D01*
Y00111500D02*
Y00116000D01*
X00104000Y00110000D02*
X00108500D01*
X00113000D02*
G75*
G03X00113000I-00003000D01*
G01X00112000D02*
G03X00112000I-00002000D01*
G01X00330000D02*
Y00110500D01*
Y00110000D02*
X00330500D01*
X00330000D02*
Y00109500D01*
Y00110000D02*
X00329500D01*
X00331500D02*
X00336500D01*
X00330000Y00108500D02*
Y00105100D01*
Y00111500D02*
Y00116000D01*
X00324000Y00110000D02*
X00328500D01*
X00333000D02*
G03X00333000I-00003000D01*
G01X00332000D02*
G03X00332000I-00002000D01*
G01X00330000Y00370000D02*
Y00370500D01*
Y00370000D02*
X00330500D01*
X00330000D02*
Y00369500D01*
Y00370000D02*
X00329500D01*
X00331500D02*
X00336500D01*
X00330000Y00368500D02*
Y00365100D01*
Y00371500D02*
Y00376000D01*
X00324000Y00370000D02*
X00328500D01*
X00333000D02*
G03X00333000I-00003000D01*
G01X00332000D02*
G03X00332000I-00002000D01*
G54D25*
G01X00317500Y00319799D02*
Y00356500D01*
G03X00316500Y00357500I-00001000J00000000*
G01X00123500*
G03X00122500Y00356500I00000000J-00001000*
G01Y00319799*
G03X00124428Y00319427I00001000J00000000*
G01X00126750Y00321000D02*
G03X00124428Y00319427I00000000J-00002500D01*
G01X00126750Y00321000D02*
X00133250D01*
X00134500Y00320665D02*
G03X00133250Y00321000I-00001250J-00002165D01*
G01X00134500Y00320665D02*
G03X00135499I00000500J00000866D01*
G01X00136750Y00321000D02*
G03X00135500Y00320665I00000000J-00002500D01*
G01X00136750Y00321000D02*
X00143250D01*
X00144500Y00320665D02*
G03X00143250Y00321000I-00001250J-00002165D01*
G01X00144500Y00320665D02*
G03X00145499I00000500J00000866D01*
G01X00146750Y00321000D02*
G03X00145500Y00320665I00000000J-00002500D01*
G01X00146750Y00321000D02*
X00153250D01*
X00154500Y00320665D02*
G03X00153250Y00321000I-00001250J-00002165D01*
G01X00154500Y00320665D02*
G03X00155499I00000500J00000866D01*
G01X00156750Y00321000D02*
G03X00155500Y00320665I00000000J-00002500D01*
G01X00156750Y00321000D02*
X00163250D01*
X00165750Y00318500D02*
G03X00163250Y00321000I-00002500J00000000D01*
G01X00165750Y00318500D02*
Y00311500D01*
X00165508Y00310428D02*
G03X00165750Y00311500I-00002258J00001072D01*
G01X00165508Y00310428D02*
G03Y00309571I00000904J-00000428D01*
G01X00165750Y00308500D02*
G03X00165508Y00309571I-00002500J00000000D01*
G01X00165750Y00308500D02*
Y00301500D01*
X00165508Y00300428D02*
G03X00165750Y00301500I-00002258J00001072D01*
G01X00165508Y00300428D02*
G03Y00299571I00000904J-00000428D01*
G01X00165750Y00298500D02*
G03X00165508Y00299571I-00002500J00000000D01*
G01X00165750Y00298500D02*
Y00291500D01*
X00165508Y00290428D02*
G03X00165750Y00291500I-00002258J00001072D01*
G01X00165508Y00290428D02*
G03Y00289571I00000904J-00000428D01*
G01X00165750Y00288500D02*
G03X00165508Y00289571I-00002500J00000000D01*
G01X00165750Y00288500D02*
Y00281500D01*
X00165508Y00280428D02*
G03X00165750Y00281500I-00002258J00001072D01*
G01X00165508Y00280428D02*
G03Y00279571I00000904J-00000428D01*
G01X00165750Y00278500D02*
G03X00165508Y00279571I-00002500J00000000D01*
G01X00165750Y00278500D02*
Y00271500D01*
X00165508Y00270428D02*
G03X00165750Y00271500I-00002258J00001072D01*
G01X00165508Y00270428D02*
G03Y00269571I00000904J-00000428D01*
G01X00165750Y00268500D02*
G03X00165508Y00269571I-00002500J00000000D01*
G01X00165750Y00268500D02*
Y00261500D01*
X00165508Y00260428D02*
G03X00165750Y00261500I-00002258J00001072D01*
G01X00165508Y00260428D02*
G03Y00259571I00000904J-00000428D01*
G01X00165750Y00258500D02*
G03X00165508Y00259571I-00002500J00000000D01*
G01X00165750Y00258500D02*
Y00251500D01*
X00165508Y00250428D02*
G03X00165750Y00251500I-00002258J00001072D01*
G01X00165508Y00250428D02*
G03Y00249571I00000904J-00000428D01*
G01X00165750Y00248500D02*
G03X00165508Y00249571I-00002500J00000000D01*
G01X00165750Y00248500D02*
Y00241500D01*
X00165508Y00240428D02*
G03X00165750Y00241500I-00002258J00001072D01*
G01X00165508Y00240428D02*
G03Y00239571I00000904J-00000428D01*
G01X00165750Y00238500D02*
G03X00165508Y00239571I-00002500J00000000D01*
G01X00165750Y00238500D02*
Y00231500D01*
X00165508Y00230428D02*
G03X00165750Y00231500I-00002258J00001072D01*
G01X00165508Y00230428D02*
G03Y00229571I00000904J-00000428D01*
G01X00165750Y00228500D02*
G03X00165508Y00229571I-00002500J00000000D01*
G01X00165750Y00228500D02*
Y00221500D01*
X00165508Y00220428D02*
G03X00165750Y00221500I-00002258J00001072D01*
G01X00165508Y00220428D02*
G03Y00219571I00000904J-00000428D01*
G01X00165750Y00218500D02*
G03X00165508Y00219571I-00002500J00000000D01*
G01X00165750Y00218500D02*
Y00211500D01*
X00165508Y00210428D02*
G03X00165750Y00211500I-00002258J00001072D01*
G01X00165508Y00210428D02*
G03Y00209571I00000904J-00000428D01*
G01X00165750Y00208500D02*
G03X00165508Y00209571I-00002500J00000000D01*
G01X00165750Y00208500D02*
Y00201500D01*
X00165508Y00200428D02*
G03X00165750Y00201500I-00002258J00001072D01*
G01X00165508Y00200428D02*
G03Y00199571I00000904J-00000428D01*
G01X00165750Y00198500D02*
G03X00165508Y00199571I-00002500J00000000D01*
G01X00165750Y00198500D02*
Y00191500D01*
X00165508Y00190428D02*
G03X00165750Y00191500I-00002258J00001072D01*
G01X00165508Y00190428D02*
G03Y00189571I00000904J-00000428D01*
G01X00165750Y00188500D02*
G03X00165508Y00189571I-00002500J00000000D01*
G01X00165750Y00188500D02*
Y00181500D01*
X00165508Y00180428D02*
G03X00165750Y00181500I-00002258J00001072D01*
G01X00165508Y00180428D02*
G03Y00179571I00000904J-00000428D01*
G01X00165750Y00178500D02*
G03X00165508Y00179571I-00002500J00000000D01*
G01X00165750Y00178500D02*
Y00171500D01*
X00165508Y00170428D02*
G03X00165750Y00171500I-00002258J00001072D01*
G01X00165508Y00170428D02*
G03Y00169571I00000904J-00000428D01*
G01X00165750Y00168500D02*
G03X00165508Y00169571I-00002500J00000000D01*
G01X00165750Y00168500D02*
Y00161500D01*
X00163250Y00158999D02*
G03X00165750Y00161500I00000000J00002501D01*
G01X00163250Y00158999D02*
X00156750D01*
X00155500Y00159334D02*
G03X00156750Y00158999I00001250J00002166D01*
G01X00155499Y00159334D02*
G03X00154500I-00000499J-00000865D01*
G01X00153250Y00158999D02*
G03X00154500Y00159334I00000000J00002501D01*
G01X00153250Y00158999D02*
X00146750D01*
X00145500Y00159334D02*
G03X00146750Y00158999I00001250J00002166D01*
G01X00145499Y00159334D02*
G03X00144500I-00000499J-00000865D01*
G01X00143250Y00158999D02*
G03X00144500Y00159334I00000000J00002501D01*
G01X00143250Y00158999D02*
X00136750D01*
X00135500Y00159334D02*
G03X00136750Y00158999I00001250J00002166D01*
G01X00135499Y00159334D02*
G03X00134500I-00000499J-00000865D01*
G01X00133250Y00158999D02*
G03X00134500Y00159334I00000000J00002501D01*
G01X00133250Y00158999D02*
X00126750D01*
X00124428Y00160572D02*
G03X00126750Y00158999I00002322J00000928D01*
G01X00124428Y00160572D02*
G03X00122500Y00160200I-00000928J-00000371D01*
G01X00122500D02*
Y00123500D01*
G03X00123500Y00122500I00001000J00000000*
G01X00316500*
G03X00317500Y00123500I00000000J00001000*
G01Y00160200*
X00317500D02*
G03X00315571Y00160572I-00001000J00000000D01*
G01X00313250Y00158999D02*
G03X00315571Y00160572I00000000J00002501D01*
G01X00313250Y00158999D02*
X00306750D01*
X00305500Y00159334D02*
G03X00306750Y00158999I00001250J00002166D01*
G01X00305499Y00159334D02*
G03X00304500I-00000499J-00000865D01*
G01X00303250Y00158999D02*
G03X00304500Y00159334I00000000J00002501D01*
G01X00303250Y00158999D02*
X00296750D01*
X00295500Y00159334D02*
G03X00296750Y00158999I00001250J00002166D01*
G01X00295499Y00159334D02*
G03X00294500I-00000499J-00000865D01*
G01X00293250Y00158999D02*
G03X00294500Y00159334I00000000J00002501D01*
G01X00293250Y00158999D02*
X00286750D01*
X00285500Y00159334D02*
G03X00286750Y00158999I00001250J00002166D01*
G01X00285499Y00159334D02*
G03X00284500I-00000499J-00000865D01*
G01X00283250Y00158999D02*
G03X00284500Y00159334I00000000J00002501D01*
G01X00283250Y00158999D02*
X00276750D01*
X00274249Y00161500D02*
G03X00276750Y00158999I00002501J00000000D01*
G01X00274249Y00161500D02*
Y00168500D01*
X00274491Y00169571D02*
G03X00274249Y00168500I00002259J-00001071D01*
G01X00274491Y00169571D02*
G03Y00170428I-00000903J00000429D01*
G01X00274249Y00171500D02*
G03X00274491Y00170428I00002501J00000000D01*
G01X00274249Y00171500D02*
Y00178500D01*
X00274491Y00179571D02*
G03X00274249Y00178500I00002259J-00001071D01*
G01X00274491Y00179571D02*
G03Y00180428I-00000903J00000429D01*
G01X00274249Y00181500D02*
G03X00274491Y00180428I00002501J00000000D01*
G01X00274249Y00181500D02*
Y00188500D01*
X00274491Y00189571D02*
G03X00274249Y00188500I00002259J-00001071D01*
G01X00274491Y00189571D02*
G03Y00190428I-00000903J00000429D01*
G01X00274249Y00191500D02*
G03X00274491Y00190428I00002501J00000000D01*
G01X00274249Y00191500D02*
Y00198500D01*
X00274491Y00199571D02*
G03X00274249Y00198500I00002259J-00001071D01*
G01X00274491Y00199571D02*
G03Y00200428I-00000903J00000429D01*
G01X00274249Y00201500D02*
G03X00274491Y00200428I00002501J00000000D01*
G01X00274249Y00201500D02*
Y00208500D01*
X00274491Y00209571D02*
G03X00274249Y00208500I00002259J-00001071D01*
G01X00274491Y00209571D02*
G03Y00210428I-00000903J00000429D01*
G01X00274249Y00211500D02*
G03X00274491Y00210428I00002501J00000000D01*
G01X00274249Y00211500D02*
Y00218500D01*
X00274491Y00219571D02*
G03X00274249Y00218500I00002259J-00001071D01*
G01X00274491Y00219571D02*
G03Y00220428I-00000903J00000429D01*
G01X00274249Y00221500D02*
G03X00274491Y00220428I00002501J00000000D01*
G01X00274249Y00221500D02*
Y00228500D01*
X00274491Y00229571D02*
G03X00274249Y00228500I00002259J-00001071D01*
G01X00274491Y00229571D02*
G03Y00230428I-00000903J00000429D01*
G01X00274249Y00231500D02*
G03X00274491Y00230428I00002501J00000000D01*
G01X00274249Y00231500D02*
Y00238500D01*
X00274491Y00239571D02*
G03X00274249Y00238500I00002259J-00001071D01*
G01X00274491Y00239571D02*
G03Y00240428I-00000903J00000429D01*
G01X00274249Y00241500D02*
G03X00274491Y00240428I00002501J00000000D01*
G01X00274249Y00241500D02*
Y00248500D01*
X00274491Y00249571D02*
G03X00274249Y00248500I00002259J-00001071D01*
G01X00274491Y00249571D02*
G03Y00250428I-00000903J00000429D01*
G01X00274249Y00251500D02*
G03X00274491Y00250428I00002501J00000000D01*
G01X00274249Y00251500D02*
Y00258500D01*
X00274491Y00259571D02*
G03X00274249Y00258500I00002259J-00001071D01*
G01X00274491Y00259571D02*
G03Y00260428I-00000903J00000429D01*
G01X00274249Y00261500D02*
G03X00274491Y00260428I00002501J00000000D01*
G01X00274249Y00261500D02*
Y00268500D01*
X00274491Y00269571D02*
G03X00274249Y00268500I00002259J-00001071D01*
G01X00274491Y00269571D02*
G03Y00270428I-00000903J00000429D01*
G01X00274249Y00271500D02*
G03X00274491Y00270428I00002501J00000000D01*
G01X00274249Y00271500D02*
Y00278500D01*
X00274491Y00279571D02*
G03X00274249Y00278500I00002259J-00001071D01*
G01X00274491Y00279571D02*
G03Y00280428I-00000903J00000429D01*
G01X00274249Y00281500D02*
G03X00274491Y00280428I00002501J00000000D01*
G01X00274249Y00281500D02*
Y00288500D01*
X00274491Y00289571D02*
G03X00274249Y00288500I00002259J-00001071D01*
G01X00274491Y00289571D02*
G03Y00290428I-00000903J00000429D01*
G01X00274249Y00291500D02*
G03X00274491Y00290428I00002501J00000000D01*
G01X00274249Y00291500D02*
Y00298500D01*
X00274491Y00299571D02*
G03X00274249Y00298500I00002259J-00001071D01*
G01X00274491Y00299571D02*
G03Y00300428I-00000903J00000429D01*
G01X00274249Y00301500D02*
G03X00274491Y00300428I00002501J00000000D01*
G01X00274249Y00301500D02*
Y00308500D01*
X00274491Y00309571D02*
G03X00274249Y00308500I00002259J-00001071D01*
G01X00274491Y00309571D02*
G03Y00310428I-00000903J00000429D01*
G01X00274249Y00311500D02*
G03X00274491Y00310428I00002501J00000000D01*
G01X00274249Y00311500D02*
Y00318500D01*
X00276750Y00321000D02*
G03X00274249Y00318500I00000000J-00002500D01*
G01X00276750Y00321000D02*
X00283250D01*
X00284500Y00320665D02*
G03X00283250Y00321000I-00001250J-00002165D01*
G01X00284500Y00320665D02*
G03X00285499I00000500J00000866D01*
G01X00286750Y00321000D02*
G03X00285500Y00320665I00000000J-00002500D01*
G01X00286750Y00321000D02*
X00293250D01*
X00294500Y00320665D02*
G03X00293250Y00321000I-00001250J-00002165D01*
G01X00294500Y00320665D02*
G03X00295499I00000500J00000866D01*
G01X00296750Y00321000D02*
G03X00295500Y00320665I00000000J-00002500D01*
G01X00296750Y00321000D02*
X00303250D01*
X00304500Y00320665D02*
G03X00303250Y00321000I-00001250J-00002165D01*
G01X00304500Y00320665D02*
G03X00305499I00000500J00000866D01*
G01X00306750Y00321000D02*
G03X00305500Y00320665I00000000J-00002500D01*
G01X00306750Y00321000D02*
X00313250D01*
X00315571Y00319427D02*
G03X00313250Y00321000I-00002321J-00000927D01*
G01X00315571Y00319427D02*
G03X00317500Y00319799I00000929J00000372D01*
G01X00124491Y00169571D02*
G03Y00170428I-00000903J00000429D01*
G01X00124428Y00170572D02*
G03X00124491Y00170428I00002322J00000928D01*
G01X00124428Y00170572D02*
G03X00122500Y00170200I-00000928J-00000371D01*
G01X00122500D02*
Y00169799D01*
G03X00124428Y00169427I00001000J00000000*
G01X00124491Y00169571D02*
G03X00124428Y00169427I00002259J-00001071D01*
G01X00124491Y00179571D02*
G03Y00180428I-00000903J00000429D01*
G01X00124428Y00180572D02*
G03X00124491Y00180428I00002322J00000928D01*
G01X00124428Y00180572D02*
G03X00122500Y00180200I-00000928J-00000371D01*
G01X00122500D02*
Y00179799D01*
G03X00124428Y00179427I00001000J00000000*
G01X00124491Y00179571D02*
G03X00124428Y00179427I00002259J-00001071D01*
G01X00124491Y00189571D02*
G03Y00190428I-00000903J00000429D01*
G01X00124428Y00190572D02*
G03X00124491Y00190428I00002322J00000928D01*
G01X00124428Y00190572D02*
G03X00122500Y00190200I-00000928J-00000371D01*
G01X00122500D02*
Y00189799D01*
G03X00124428Y00189427I00001000J00000000*
G01X00124491Y00189571D02*
G03X00124428Y00189427I00002259J-00001071D01*
G01X00124491Y00199571D02*
G03Y00200428I-00000903J00000429D01*
G01X00124428Y00200572D02*
G03X00124491Y00200428I00002322J00000928D01*
G01X00124428Y00200572D02*
G03X00122500Y00200200I-00000928J-00000371D01*
G01X00122500D02*
Y00199799D01*
G03X00124428Y00199427I00001000J00000000*
G01X00124491Y00199571D02*
G03X00124428Y00199427I00002259J-00001071D01*
G01X00124491Y00209571D02*
G03Y00210428I-00000903J00000429D01*
G01X00124428Y00210572D02*
G03X00124491Y00210428I00002322J00000928D01*
G01X00124428Y00210572D02*
G03X00122500Y00210200I-00000928J-00000371D01*
G01X00122500D02*
Y00209799D01*
G03X00124428Y00209427I00001000J00000000*
G01X00124491Y00209571D02*
G03X00124428Y00209427I00002259J-00001071D01*
G01X00124491Y00219571D02*
G03Y00220428I-00000903J00000429D01*
G01X00124428Y00220572D02*
G03X00124491Y00220428I00002322J00000928D01*
G01X00124428Y00220572D02*
G03X00122500Y00220200I-00000928J-00000371D01*
G01X00122500D02*
Y00219799D01*
G03X00124428Y00219427I00001000J00000000*
G01X00124491Y00219571D02*
G03X00124428Y00219427I00002259J-00001071D01*
G01X00124491Y00229571D02*
G03Y00230428I-00000903J00000429D01*
G01X00124428Y00230572D02*
G03X00124491Y00230428I00002322J00000928D01*
G01X00124428Y00230572D02*
G03X00122500Y00230200I-00000928J-00000371D01*
G01X00122500D02*
Y00229799D01*
G03X00124428Y00229427I00001000J00000000*
G01X00124491Y00229571D02*
G03X00124428Y00229427I00002259J-00001071D01*
G01X00124491Y00239571D02*
G03Y00240428I-00000903J00000429D01*
G01X00124428Y00240572D02*
G03X00124491Y00240428I00002322J00000928D01*
G01X00124428Y00240572D02*
G03X00122500Y00240200I-00000928J-00000371D01*
G01X00122500D02*
Y00239799D01*
G03X00124428Y00239427I00001000J00000000*
G01X00124491Y00239571D02*
G03X00124428Y00239427I00002259J-00001071D01*
G01X00124491Y00249571D02*
G03Y00250428I-00000903J00000429D01*
G01X00124428Y00250572D02*
G03X00124491Y00250428I00002322J00000928D01*
G01X00124428Y00250572D02*
G03X00122500Y00250200I-00000928J-00000371D01*
G01X00122500D02*
Y00249799D01*
G03X00124428Y00249427I00001000J00000000*
G01X00124491Y00249571D02*
G03X00124428Y00249427I00002259J-00001071D01*
G01X00124491Y00259571D02*
G03Y00260428I-00000903J00000429D01*
G01X00124428Y00260572D02*
G03X00124491Y00260428I00002322J00000928D01*
G01X00124428Y00260572D02*
G03X00122500Y00260200I-00000928J-00000371D01*
G01X00122500D02*
Y00259799D01*
G03X00124428Y00259427I00001000J00000000*
G01X00124491Y00259571D02*
G03X00124428Y00259427I00002259J-00001071D01*
G01X00124491Y00269571D02*
G03Y00270428I-00000903J00000429D01*
G01X00124428Y00270572D02*
G03X00124491Y00270428I00002322J00000928D01*
G01X00124428Y00270572D02*
G03X00122500Y00270200I-00000928J-00000371D01*
G01X00122500D02*
Y00269799D01*
G03X00124428Y00269427I00001000J00000000*
G01X00124491Y00269571D02*
G03X00124428Y00269427I00002259J-00001071D01*
G01X00124491Y00279571D02*
G03Y00280428I-00000903J00000429D01*
G01X00124428Y00280572D02*
G03X00124491Y00280428I00002322J00000928D01*
G01X00124428Y00280572D02*
G03X00122500Y00280200I-00000928J-00000371D01*
G01X00122500D02*
Y00279799D01*
G03X00124428Y00279427I00001000J00000000*
G01X00124491Y00279571D02*
G03X00124428Y00279427I00002259J-00001071D01*
G01X00124491Y00289571D02*
G03Y00290428I-00000903J00000429D01*
G01X00124428Y00290572D02*
G03X00124491Y00290428I00002322J00000928D01*
G01X00124428Y00290572D02*
G03X00122500Y00290200I-00000928J-00000371D01*
G01X00122500D02*
Y00289799D01*
G03X00124428Y00289427I00001000J00000000*
G01X00124491Y00289571D02*
G03X00124428Y00289427I00002259J-00001071D01*
G01X00124491Y00299571D02*
G03Y00300428I-00000903J00000429D01*
G01X00124428Y00300572D02*
G03X00124491Y00300428I00002322J00000928D01*
G01X00124428Y00300572D02*
G03X00122500Y00300200I-00000928J-00000371D01*
G01X00122500D02*
Y00299799D01*
G03X00124428Y00299427I00001000J00000000*
G01X00124491Y00299571D02*
G03X00124428Y00299427I00002259J-00001071D01*
G01X00124491Y00309571D02*
G03Y00310428I-00000903J00000429D01*
G01X00124428Y00310572D02*
G03X00124491Y00310428I00002322J00000928D01*
G01X00124428Y00310572D02*
G03X00122500Y00310200I-00000928J-00000371D01*
G01X00122500D02*
Y00309799D01*
G03X00124428Y00309427I00001000J00000000*
G01X00124491Y00309571D02*
G03X00124428Y00309427I00002259J-00001071D01*
G01X00285500Y00145500D02*
Y00139500D01*
X00283000Y00136999D02*
G03X00285500Y00139500I00000000J00002501D01*
G01X00283000Y00136999D02*
X00277000D01*
X00274914Y00138121D02*
G03X00277000Y00136999I00002086J00001379D01*
G01X00274914Y00138121D02*
G03X00274650Y00138391I-00000833J-00000551D01*
G01X00273964Y00138964D02*
G03X00274650Y00138391I00003536J00003536D01*
G01X00273964Y00138964D02*
X00272707Y00140221D01*
X00272707D02*
G03X00271000Y00139514I-00000706J-00000706D01*
G01X00271000D02*
Y00139250D01*
X00270665Y00138000D02*
G03X00271000Y00139250I-00002165J00001250D01*
G01X00270665Y00137999D02*
G03Y00137000I00000866J-00000499D01*
G01X00271000Y00135750D02*
G03X00270665Y00137000I-00002500J00000000D01*
G01X00271000Y00135750D02*
Y00129250D01*
X00268500Y00126749D02*
G03X00271000Y00129250I00000000J00002501D01*
G01X00268500Y00126749D02*
X00261500D01*
X00260428Y00126991D02*
G03X00261500Y00126749I00001072J00002259D01*
G01X00260428Y00126991D02*
G03X00259571I-00000428J-00000903D01*
G01X00258500Y00126749D02*
G03X00259571Y00126991I00000000J00002501D01*
G01X00258500Y00126749D02*
X00251500D01*
X00250428Y00126991D02*
G03X00251500Y00126749I00001072J00002259D01*
G01X00250428Y00126991D02*
G03X00249571I-00000428J-00000903D01*
G01X00248500Y00126749D02*
G03X00249571Y00126991I00000000J00002501D01*
G01X00248500Y00126749D02*
X00241500D01*
X00240428Y00126991D02*
G03X00241500Y00126749I00001072J00002259D01*
G01X00240428Y00126991D02*
G03X00239571I-00000428J-00000903D01*
G01X00238500Y00126749D02*
G03X00239571Y00126991I00000000J00002501D01*
G01X00238500Y00126749D02*
X00231500D01*
X00230428Y00126991D02*
G03X00231500Y00126749I00001072J00002259D01*
G01X00230428Y00126991D02*
G03X00229571I-00000428J-00000903D01*
G01X00228500Y00126749D02*
G03X00229571Y00126991I00000000J00002501D01*
G01X00228500Y00126749D02*
X00221500D01*
X00220428Y00126991D02*
G03X00221500Y00126749I00001072J00002259D01*
G01X00220428Y00126991D02*
G03X00219571I-00000428J-00000903D01*
G01X00218500Y00126749D02*
G03X00219571Y00126991I00000000J00002501D01*
G01X00218500Y00126749D02*
X00211500D01*
X00210428Y00126991D02*
G03X00211500Y00126749I00001072J00002259D01*
G01X00210428Y00126991D02*
G03X00209571I-00000428J-00000903D01*
G01X00208500Y00126749D02*
G03X00209571Y00126991I00000000J00002501D01*
G01X00208500Y00126749D02*
X00201500D01*
X00200428Y00126991D02*
G03X00201500Y00126749I00001072J00002259D01*
G01X00200428Y00126991D02*
G03X00199571I-00000428J-00000903D01*
G01X00198500Y00126749D02*
G03X00199571Y00126991I00000000J00002501D01*
G01X00198500Y00126749D02*
X00191500D01*
X00190428Y00126991D02*
G03X00191500Y00126749I00001072J00002259D01*
G01X00190428Y00126991D02*
G03X00189571I-00000428J-00000903D01*
G01X00188500Y00126749D02*
G03X00189571Y00126991I00000000J00002501D01*
G01X00188500Y00126749D02*
X00181500D01*
X00180428Y00126991D02*
G03X00181500Y00126749I00001072J00002259D01*
G01X00180428Y00126991D02*
G03X00179571I-00000428J-00000903D01*
G01X00178500Y00126749D02*
G03X00179571Y00126991I00000000J00002501D01*
G01X00178500Y00126749D02*
X00171500D01*
X00168999Y00129250D02*
G03X00171500Y00126749I00002501J00000000D01*
G01X00168999Y00129250D02*
Y00135750D01*
X00169334Y00137000D02*
G03X00168999Y00135750I00002166J-00001250D01*
G01X00169334Y00137000D02*
G03Y00137999I-00000865J00000500D01*
G01X00168999Y00139250D02*
G03X00169334Y00138000I00002501J00000000D01*
G01X00168999Y00139250D02*
Y00139514D01*
X00168999D02*
G03X00167292Y00140221I-00000999J00000000D01*
G01X00167292D02*
X00166035Y00138964D01*
X00165349Y00138391D02*
G03X00166035Y00138964I-00002849J00004109D01*
G01X00165349Y00138391D02*
G03X00165085Y00138121I00000570J-00000821D01*
G01X00163000Y00136999D02*
G03X00165085Y00138121I00000000J00002501D01*
G01X00163000Y00136999D02*
X00157000D01*
X00154499Y00139500D02*
G03X00157000Y00136999I00002501J00000000D01*
G01X00154499Y00139500D02*
Y00145500D01*
X00157000Y00148000D02*
G03X00154499Y00145500I00000000J-00002500D01*
G01X00157000Y00148000D02*
X00160514D01*
X00160514D02*
G03X00161221Y00148292I00000000J00001000D01*
G01X00161221D02*
X00166464Y00153535D01*
X00170000Y00155000D02*
G03X00166464Y00153535I00000000J-00005000D01*
G01X00170000Y00155000D02*
X00270000D01*
X00273535Y00153535D02*
G03X00270000Y00155000I-00003535J-00003535D01*
G01X00273535Y00153535D02*
X00278778Y00148292D01*
X00278778D02*
G03X00279485Y00148000I00000707J00000708D01*
G01X00283000*
X00285500Y00145500D02*
G03X00283000Y00148000I-00002500J00000000D01*
G01X00271000Y00318250D02*
Y00311750D01*
X00270665Y00310500D02*
G03X00271000Y00311750I-00002165J00001250D01*
G01X00270665Y00310499D02*
G03Y00309500I00000866J-00000499D01*
G01X00271000Y00308250D02*
G03X00270665Y00309500I-00002500J00000000D01*
G01X00271000Y00308250D02*
Y00301750D01*
X00270665Y00300500D02*
G03X00271000Y00301750I-00002165J00001250D01*
G01X00270665Y00300499D02*
G03Y00299500I00000866J-00000499D01*
G01X00271000Y00298250D02*
G03X00270665Y00299500I-00002500J00000000D01*
G01X00271000Y00298250D02*
Y00291750D01*
X00270665Y00290500D02*
G03X00271000Y00291750I-00002165J00001250D01*
G01X00270665Y00290499D02*
G03Y00289500I00000866J-00000499D01*
G01X00271000Y00288250D02*
G03X00270665Y00289500I-00002500J00000000D01*
G01X00271000Y00288250D02*
Y00281750D01*
X00270665Y00280500D02*
G03X00271000Y00281750I-00002165J00001250D01*
G01X00270665Y00280499D02*
G03Y00279500I00000866J-00000499D01*
G01X00271000Y00278250D02*
G03X00270665Y00279500I-00002500J00000000D01*
G01X00271000Y00278250D02*
Y00271750D01*
X00270665Y00270500D02*
G03X00271000Y00271750I-00002165J00001250D01*
G01X00270665Y00270499D02*
G03Y00269500I00000866J-00000499D01*
G01X00271000Y00268250D02*
G03X00270665Y00269500I-00002500J00000000D01*
G01X00271000Y00268250D02*
Y00261750D01*
X00270665Y00260500D02*
G03X00271000Y00261750I-00002165J00001250D01*
G01X00270665Y00260499D02*
G03Y00259500I00000866J-00000499D01*
G01X00271000Y00258250D02*
G03X00270665Y00259500I-00002500J00000000D01*
G01X00271000Y00258250D02*
Y00251750D01*
X00270665Y00250500D02*
G03X00271000Y00251750I-00002165J00001250D01*
G01X00270665Y00250499D02*
G03Y00249500I00000866J-00000499D01*
G01X00271000Y00248250D02*
G03X00270665Y00249500I-00002500J00000000D01*
G01X00271000Y00248250D02*
Y00241750D01*
X00270665Y00240500D02*
G03X00271000Y00241750I-00002165J00001250D01*
G01X00270665Y00240499D02*
G03Y00239500I00000866J-00000499D01*
G01X00271000Y00238250D02*
G03X00270665Y00239500I-00002500J00000000D01*
G01X00271000Y00238250D02*
Y00231750D01*
X00270665Y00230500D02*
G03X00271000Y00231750I-00002165J00001250D01*
G01X00270665Y00230499D02*
G03Y00229500I00000866J-00000499D01*
G01X00271000Y00228250D02*
G03X00270665Y00229500I-00002500J00000000D01*
G01X00271000Y00228250D02*
Y00221750D01*
X00270665Y00220500D02*
G03X00271000Y00221750I-00002165J00001250D01*
G01X00270665Y00220499D02*
G03Y00219500I00000866J-00000499D01*
G01X00271000Y00218250D02*
G03X00270665Y00219500I-00002500J00000000D01*
G01X00271000Y00218250D02*
Y00211750D01*
X00270665Y00210500D02*
G03X00271000Y00211750I-00002165J00001250D01*
G01X00270665Y00210499D02*
G03Y00209500I00000866J-00000499D01*
G01X00271000Y00208250D02*
G03X00270665Y00209500I-00002500J00000000D01*
G01X00271000Y00208250D02*
Y00201750D01*
X00270665Y00200500D02*
G03X00271000Y00201750I-00002165J00001250D01*
G01X00270665Y00200499D02*
G03Y00199500I00000866J-00000499D01*
G01X00271000Y00198250D02*
G03X00270665Y00199500I-00002500J00000000D01*
G01X00271000Y00198250D02*
Y00191750D01*
X00270665Y00190500D02*
G03X00271000Y00191750I-00002165J00001250D01*
G01X00270665Y00190499D02*
G03Y00189500I00000866J-00000499D01*
G01X00271000Y00188250D02*
G03X00270665Y00189500I-00002500J00000000D01*
G01X00271000Y00188250D02*
Y00181750D01*
X00270665Y00180500D02*
G03X00271000Y00181750I-00002165J00001250D01*
G01X00270665Y00180499D02*
G03Y00179500I00000866J-00000499D01*
G01X00271000Y00178250D02*
G03X00270665Y00179500I-00002500J00000000D01*
G01X00271000Y00178250D02*
Y00171750D01*
X00270665Y00170500D02*
G03X00271000Y00171750I-00002165J00001250D01*
G01X00270665Y00170499D02*
G03Y00169500I00000866J-00000499D01*
G01X00271000Y00168250D02*
G03X00270665Y00169500I-00002500J00000000D01*
G01X00271000Y00168250D02*
Y00161750D01*
X00268500Y00159249D02*
G03X00271000Y00161750I00000000J00002501D01*
G01X00268500Y00159249D02*
X00261500D01*
X00258999Y00161750D02*
G03X00261500Y00159249I00002501J00000000D01*
G01X00258999Y00161750D02*
Y00168250D01*
X00259334Y00169500D02*
G03X00258999Y00168250I00002166J-00001250D01*
G01X00259334Y00169500D02*
G03Y00170499I-00000865J00000500D01*
G01X00258999Y00171750D02*
G03X00259334Y00170500I00002501J00000000D01*
G01X00258999Y00171750D02*
Y00178250D01*
X00259334Y00179500D02*
G03X00258999Y00178250I00002166J-00001250D01*
G01X00259334Y00179500D02*
G03Y00180499I-00000865J00000500D01*
G01X00258999Y00181750D02*
G03X00259334Y00180500I00002501J00000000D01*
G01X00258999Y00181750D02*
Y00188250D01*
X00259334Y00189500D02*
G03X00258999Y00188250I00002166J-00001250D01*
G01X00259334Y00189500D02*
G03Y00190499I-00000865J00000500D01*
G01X00258999Y00191750D02*
G03X00259334Y00190500I00002501J00000000D01*
G01X00258999Y00191750D02*
Y00198250D01*
X00259334Y00199500D02*
G03X00258999Y00198250I00002166J-00001250D01*
G01X00259334Y00199500D02*
G03Y00200499I-00000865J00000500D01*
G01X00258999Y00201750D02*
G03X00259334Y00200500I00002501J00000000D01*
G01X00258999Y00201750D02*
Y00208250D01*
X00259334Y00209500D02*
G03X00258999Y00208250I00002166J-00001250D01*
G01X00259334Y00209500D02*
G03Y00210499I-00000865J00000500D01*
G01X00258999Y00211750D02*
G03X00259334Y00210500I00002501J00000000D01*
G01X00258999Y00211750D02*
Y00218250D01*
X00259334Y00219500D02*
G03X00258999Y00218250I00002166J-00001250D01*
G01X00259334Y00219500D02*
G03Y00220499I-00000865J00000500D01*
G01X00258999Y00221750D02*
G03X00259334Y00220500I00002501J00000000D01*
G01X00258999Y00221750D02*
Y00228250D01*
X00259334Y00229500D02*
G03X00258999Y00228250I00002166J-00001250D01*
G01X00259334Y00229500D02*
G03Y00230499I-00000865J00000500D01*
G01X00258999Y00231750D02*
G03X00259334Y00230500I00002501J00000000D01*
G01X00258999Y00231750D02*
Y00238250D01*
X00259334Y00239500D02*
G03X00258999Y00238250I00002166J-00001250D01*
G01X00259334Y00239500D02*
G03Y00240499I-00000865J00000500D01*
G01X00258999Y00241750D02*
G03X00259334Y00240500I00002501J00000000D01*
G01X00258999Y00241750D02*
Y00248250D01*
X00259334Y00249500D02*
G03X00258999Y00248250I00002166J-00001250D01*
G01X00259334Y00249500D02*
G03Y00250499I-00000865J00000500D01*
G01X00258999Y00251750D02*
G03X00259334Y00250500I00002501J00000000D01*
G01X00258999Y00251750D02*
Y00258250D01*
X00259334Y00259500D02*
G03X00258999Y00258250I00002166J-00001250D01*
G01X00259334Y00259500D02*
G03Y00260499I-00000865J00000500D01*
G01X00258999Y00261750D02*
G03X00259334Y00260500I00002501J00000000D01*
G01X00258999Y00261750D02*
Y00268250D01*
X00259334Y00269500D02*
G03X00258999Y00268250I00002166J-00001250D01*
G01X00259334Y00269500D02*
G03Y00270499I-00000865J00000500D01*
G01X00258999Y00271750D02*
G03X00259334Y00270500I00002501J00000000D01*
G01X00258999Y00271750D02*
Y00278250D01*
X00259334Y00279500D02*
G03X00258999Y00278250I00002166J-00001250D01*
G01X00259334Y00279500D02*
G03Y00280499I-00000865J00000500D01*
G01X00258999Y00281750D02*
G03X00259334Y00280500I00002501J00000000D01*
G01X00258999Y00281750D02*
Y00288250D01*
X00259334Y00289500D02*
G03X00258999Y00288250I00002166J-00001250D01*
G01X00259334Y00289500D02*
G03Y00290499I-00000865J00000500D01*
G01X00258999Y00291750D02*
G03X00259334Y00290500I00002501J00000000D01*
G01X00258999Y00291750D02*
Y00298250D01*
X00259334Y00299500D02*
G03X00258999Y00298250I00002166J-00001250D01*
G01X00259334Y00299500D02*
G03Y00300499I-00000865J00000500D01*
G01X00258999Y00301750D02*
G03X00259334Y00300500I00002501J00000000D01*
G01X00258999Y00301750D02*
Y00308250D01*
X00259334Y00309500D02*
G03X00258999Y00308250I00002166J-00001250D01*
G01X00259334Y00309500D02*
G03Y00310499I-00000865J00000500D01*
G01X00258999Y00311750D02*
G03X00259334Y00310500I00002501J00000000D01*
G01X00258999Y00311750D02*
Y00318250D01*
X00261500Y00320750D02*
G03X00258999Y00318250I00000000J-00002500D01*
G01X00261500Y00320750D02*
X00268500D01*
X00271000Y00318250D02*
G03X00268500Y00320750I-00002500J00000000D01*
G01X00255750Y00318500D02*
Y00311500D01*
X00255508Y00310428D02*
G03X00255750Y00311500I-00002258J00001072D01*
G01X00255508Y00310428D02*
G03Y00309571I00000904J-00000428D01*
G01X00255750Y00308500D02*
G03X00255508Y00309571I-00002500J00000000D01*
G01X00255750Y00308500D02*
Y00301500D01*
X00255508Y00300428D02*
G03X00255750Y00301500I-00002258J00001072D01*
G01X00255508Y00300428D02*
G03Y00299571I00000904J-00000428D01*
G01X00255750Y00298500D02*
G03X00255508Y00299571I-00002500J00000000D01*
G01X00255750Y00298500D02*
Y00291500D01*
X00255508Y00290428D02*
G03X00255750Y00291500I-00002258J00001072D01*
G01X00255508Y00290428D02*
G03Y00289571I00000904J-00000428D01*
G01X00255750Y00288500D02*
G03X00255508Y00289571I-00002500J00000000D01*
G01X00255750Y00288500D02*
Y00281500D01*
X00255508Y00280428D02*
G03X00255750Y00281500I-00002258J00001072D01*
G01X00255508Y00280428D02*
G03Y00279571I00000904J-00000428D01*
G01X00255750Y00278500D02*
G03X00255508Y00279571I-00002500J00000000D01*
G01X00255750Y00278500D02*
Y00271500D01*
X00255508Y00270428D02*
G03X00255750Y00271500I-00002258J00001072D01*
G01X00255508Y00270428D02*
G03Y00269571I00000904J-00000428D01*
G01X00255750Y00268500D02*
G03X00255508Y00269571I-00002500J00000000D01*
G01X00255750Y00268500D02*
Y00261500D01*
X00255508Y00260428D02*
G03X00255750Y00261500I-00002258J00001072D01*
G01X00255508Y00260428D02*
G03Y00259571I00000904J-00000428D01*
G01X00255750Y00258500D02*
G03X00255508Y00259571I-00002500J00000000D01*
G01X00255750Y00258500D02*
Y00251500D01*
X00255508Y00250428D02*
G03X00255750Y00251500I-00002258J00001072D01*
G01X00255508Y00250428D02*
G03Y00249571I00000904J-00000428D01*
G01X00255750Y00248500D02*
G03X00255508Y00249571I-00002500J00000000D01*
G01X00255750Y00248500D02*
Y00241500D01*
X00255508Y00240428D02*
G03X00255750Y00241500I-00002258J00001072D01*
G01X00255508Y00240428D02*
G03Y00239571I00000904J-00000428D01*
G01X00255750Y00238500D02*
G03X00255508Y00239571I-00002500J00000000D01*
G01X00255750Y00238500D02*
Y00231500D01*
X00255508Y00230428D02*
G03X00255750Y00231500I-00002258J00001072D01*
G01X00255508Y00230428D02*
G03Y00229571I00000904J-00000428D01*
G01X00255750Y00228500D02*
G03X00255508Y00229571I-00002500J00000000D01*
G01X00255750Y00228500D02*
Y00221500D01*
X00255508Y00220428D02*
G03X00255750Y00221500I-00002258J00001072D01*
G01X00255508Y00220428D02*
G03Y00219571I00000904J-00000428D01*
G01X00255750Y00218500D02*
G03X00255508Y00219571I-00002500J00000000D01*
G01X00255750Y00218500D02*
Y00211500D01*
X00255508Y00210428D02*
G03X00255750Y00211500I-00002258J00001072D01*
G01X00255508Y00210428D02*
G03Y00209571I00000904J-00000428D01*
G01X00255750Y00208500D02*
G03X00255508Y00209571I-00002500J00000000D01*
G01X00255750Y00208500D02*
Y00201500D01*
X00255508Y00200428D02*
G03X00255750Y00201500I-00002258J00001072D01*
G01X00255508Y00200428D02*
G03Y00199571I00000904J-00000428D01*
G01X00255750Y00198500D02*
G03X00255508Y00199571I-00002500J00000000D01*
G01X00255750Y00198500D02*
Y00191500D01*
X00255508Y00190428D02*
G03X00255750Y00191500I-00002258J00001072D01*
G01X00255508Y00190428D02*
G03Y00189571I00000904J-00000428D01*
G01X00255750Y00188500D02*
G03X00255508Y00189571I-00002500J00000000D01*
G01X00255750Y00188500D02*
Y00181500D01*
X00255508Y00180428D02*
G03X00255750Y00181500I-00002258J00001072D01*
G01X00255508Y00180428D02*
G03Y00179571I00000904J-00000428D01*
G01X00255750Y00178500D02*
G03X00255508Y00179571I-00002500J00000000D01*
G01X00255750Y00178500D02*
Y00171500D01*
X00255508Y00170428D02*
G03X00255750Y00171500I-00002258J00001072D01*
G01X00255508Y00170428D02*
G03Y00169571I00000904J-00000428D01*
G01X00255750Y00168500D02*
G03X00255508Y00169571I-00002500J00000000D01*
G01X00255750Y00168500D02*
Y00161500D01*
X00253250Y00158999D02*
G03X00255750Y00161500I00000000J00002501D01*
G01X00253250Y00158999D02*
X00246750D01*
X00245500Y00159334D02*
G03X00246750Y00158999I00001250J00002166D01*
G01X00245499Y00159334D02*
G03X00244500I-00000499J-00000865D01*
G01X00243250Y00158999D02*
G03X00244500Y00159334I00000000J00002501D01*
G01X00243250Y00158999D02*
X00236750D01*
X00235500Y00159334D02*
G03X00236750Y00158999I00001250J00002166D01*
G01X00235499Y00159334D02*
G03X00234500I-00000499J-00000865D01*
G01X00233250Y00158999D02*
G03X00234500Y00159334I00000000J00002501D01*
G01X00233250Y00158999D02*
X00226750D01*
X00225500Y00159334D02*
G03X00226750Y00158999I00001250J00002166D01*
G01X00225499Y00159334D02*
G03X00224500I-00000499J-00000865D01*
G01X00223250Y00158999D02*
G03X00224500Y00159334I00000000J00002501D01*
G01X00223250Y00158999D02*
X00216750D01*
X00214249Y00161500D02*
G03X00216750Y00158999I00002501J00000000D01*
G01X00214249Y00161500D02*
Y00168500D01*
X00214491Y00169571D02*
G03X00214249Y00168500I00002259J-00001071D01*
G01X00214491Y00169571D02*
G03Y00170428I-00000903J00000429D01*
G01X00214249Y00171500D02*
G03X00214491Y00170428I00002501J00000000D01*
G01X00214249Y00171500D02*
Y00178500D01*
X00214491Y00179571D02*
G03X00214249Y00178500I00002259J-00001071D01*
G01X00214491Y00179571D02*
G03Y00180428I-00000903J00000429D01*
G01X00214249Y00181500D02*
G03X00214491Y00180428I00002501J00000000D01*
G01X00214249Y00181500D02*
Y00188500D01*
X00214491Y00189571D02*
G03X00214249Y00188500I00002259J-00001071D01*
G01X00214491Y00189571D02*
G03Y00190428I-00000903J00000429D01*
G01X00214249Y00191500D02*
G03X00214491Y00190428I00002501J00000000D01*
G01X00214249Y00191500D02*
Y00198500D01*
X00214491Y00199571D02*
G03X00214249Y00198500I00002259J-00001071D01*
G01X00214491Y00199571D02*
G03Y00200428I-00000903J00000429D01*
G01X00214249Y00201500D02*
G03X00214491Y00200428I00002501J00000000D01*
G01X00214249Y00201500D02*
Y00208500D01*
X00214491Y00209571D02*
G03X00214249Y00208500I00002259J-00001071D01*
G01X00214491Y00209571D02*
G03Y00210428I-00000903J00000429D01*
G01X00214249Y00211500D02*
G03X00214491Y00210428I00002501J00000000D01*
G01X00214249Y00211500D02*
Y00218500D01*
X00214491Y00219571D02*
G03X00214249Y00218500I00002259J-00001071D01*
G01X00214491Y00219571D02*
G03Y00220428I-00000903J00000429D01*
G01X00214249Y00221500D02*
G03X00214491Y00220428I00002501J00000000D01*
G01X00214249Y00221500D02*
Y00228500D01*
X00214491Y00229571D02*
G03X00214249Y00228500I00002259J-00001071D01*
G01X00214491Y00229571D02*
G03Y00230428I-00000903J00000429D01*
G01X00214249Y00231500D02*
G03X00214491Y00230428I00002501J00000000D01*
G01X00214249Y00231500D02*
Y00238500D01*
X00214491Y00239571D02*
G03X00214249Y00238500I00002259J-00001071D01*
G01X00214491Y00239571D02*
G03Y00240428I-00000903J00000429D01*
G01X00214249Y00241500D02*
G03X00214491Y00240428I00002501J00000000D01*
G01X00214249Y00241500D02*
Y00248500D01*
X00214491Y00249571D02*
G03X00214249Y00248500I00002259J-00001071D01*
G01X00214491Y00249571D02*
G03Y00250428I-00000903J00000429D01*
G01X00214249Y00251500D02*
G03X00214491Y00250428I00002501J00000000D01*
G01X00214249Y00251500D02*
Y00258500D01*
X00214491Y00259571D02*
G03X00214249Y00258500I00002259J-00001071D01*
G01X00214491Y00259571D02*
G03Y00260428I-00000903J00000429D01*
G01X00214249Y00261500D02*
G03X00214491Y00260428I00002501J00000000D01*
G01X00214249Y00261500D02*
Y00268500D01*
X00214491Y00269571D02*
G03X00214249Y00268500I00002259J-00001071D01*
G01X00214491Y00269571D02*
G03Y00270428I-00000903J00000429D01*
G01X00214249Y00271500D02*
G03X00214491Y00270428I00002501J00000000D01*
G01X00214249Y00271500D02*
Y00278500D01*
X00214491Y00279571D02*
G03X00214249Y00278500I00002259J-00001071D01*
G01X00214491Y00279571D02*
G03Y00280428I-00000903J00000429D01*
G01X00214249Y00281500D02*
G03X00214491Y00280428I00002501J00000000D01*
G01X00214249Y00281500D02*
Y00288500D01*
X00214491Y00289571D02*
G03X00214249Y00288500I00002259J-00001071D01*
G01X00214491Y00289571D02*
G03Y00290428I-00000903J00000429D01*
G01X00214249Y00291500D02*
G03X00214491Y00290428I00002501J00000000D01*
G01X00214249Y00291500D02*
Y00298500D01*
X00214491Y00299571D02*
G03X00214249Y00298500I00002259J-00001071D01*
G01X00214491Y00299571D02*
G03Y00300428I-00000903J00000429D01*
G01X00214249Y00301500D02*
G03X00214491Y00300428I00002501J00000000D01*
G01X00214249Y00301500D02*
Y00308500D01*
X00214491Y00309571D02*
G03X00214249Y00308500I00002259J-00001071D01*
G01X00214491Y00309571D02*
G03Y00310428I-00000903J00000429D01*
G01X00214249Y00311500D02*
G03X00214491Y00310428I00002501J00000000D01*
G01X00214249Y00311500D02*
Y00318500D01*
X00216750Y00321000D02*
G03X00214249Y00318500I00000000J-00002500D01*
G01X00216750Y00321000D02*
X00223250D01*
X00224500Y00320665D02*
G03X00223250Y00321000I-00001250J-00002165D01*
G01X00224500Y00320665D02*
G03X00225499I00000500J00000866D01*
G01X00226750Y00321000D02*
G03X00225500Y00320665I00000000J-00002500D01*
G01X00226750Y00321000D02*
X00233250D01*
X00234500Y00320665D02*
G03X00233250Y00321000I-00001250J-00002165D01*
G01X00234500Y00320665D02*
G03X00235499I00000500J00000866D01*
G01X00236750Y00321000D02*
G03X00235500Y00320665I00000000J-00002500D01*
G01X00236750Y00321000D02*
X00243250D01*
X00244500Y00320665D02*
G03X00243250Y00321000I-00001250J-00002165D01*
G01X00244500Y00320665D02*
G03X00245499I00000500J00000866D01*
G01X00246750Y00321000D02*
G03X00245500Y00320665I00000000J-00002500D01*
G01X00246750Y00321000D02*
X00253250D01*
X00255750Y00318500D02*
G03X00253250Y00321000I-00002500J00000000D01*
G01X00205750Y00318500D02*
Y00311500D01*
X00205508Y00310428D02*
G03X00205750Y00311500I-00002258J00001072D01*
G01X00205508Y00310428D02*
G03Y00309571I00000904J-00000428D01*
G01X00205750Y00308500D02*
G03X00205508Y00309571I-00002500J00000000D01*
G01X00205750Y00308500D02*
Y00301500D01*
X00205508Y00300428D02*
G03X00205750Y00301500I-00002258J00001072D01*
G01X00205508Y00300428D02*
G03Y00299571I00000904J-00000428D01*
G01X00205750Y00298500D02*
G03X00205508Y00299571I-00002500J00000000D01*
G01X00205750Y00298500D02*
Y00291500D01*
X00205508Y00290428D02*
G03X00205750Y00291500I-00002258J00001072D01*
G01X00205508Y00290428D02*
G03Y00289571I00000904J-00000428D01*
G01X00205750Y00288500D02*
G03X00205508Y00289571I-00002500J00000000D01*
G01X00205750Y00288500D02*
Y00281500D01*
X00205508Y00280428D02*
G03X00205750Y00281500I-00002258J00001072D01*
G01X00205508Y00280428D02*
G03Y00279571I00000904J-00000428D01*
G01X00205750Y00278500D02*
G03X00205508Y00279571I-00002500J00000000D01*
G01X00205750Y00278500D02*
Y00271500D01*
X00205508Y00270428D02*
G03X00205750Y00271500I-00002258J00001072D01*
G01X00205508Y00270428D02*
G03Y00269571I00000904J-00000428D01*
G01X00205750Y00268500D02*
G03X00205508Y00269571I-00002500J00000000D01*
G01X00205750Y00268500D02*
Y00261500D01*
X00205508Y00260428D02*
G03X00205750Y00261500I-00002258J00001072D01*
G01X00205508Y00260428D02*
G03Y00259571I00000904J-00000428D01*
G01X00205750Y00258500D02*
G03X00205508Y00259571I-00002500J00000000D01*
G01X00205750Y00258500D02*
Y00251500D01*
X00205508Y00250428D02*
G03X00205750Y00251500I-00002258J00001072D01*
G01X00205508Y00250428D02*
G03Y00249571I00000904J-00000428D01*
G01X00205750Y00248500D02*
G03X00205508Y00249571I-00002500J00000000D01*
G01X00205750Y00248500D02*
Y00241500D01*
X00205508Y00240428D02*
G03X00205750Y00241500I-00002258J00001072D01*
G01X00205508Y00240428D02*
G03Y00239571I00000904J-00000428D01*
G01X00205750Y00238500D02*
G03X00205508Y00239571I-00002500J00000000D01*
G01X00205750Y00238500D02*
Y00231500D01*
X00205508Y00230428D02*
G03X00205750Y00231500I-00002258J00001072D01*
G01X00205508Y00230428D02*
G03Y00229571I00000904J-00000428D01*
G01X00205750Y00228500D02*
G03X00205508Y00229571I-00002500J00000000D01*
G01X00205750Y00228500D02*
Y00221500D01*
X00205508Y00220428D02*
G03X00205750Y00221500I-00002258J00001072D01*
G01X00205508Y00220428D02*
G03Y00219571I00000904J-00000428D01*
G01X00205750Y00218500D02*
G03X00205508Y00219571I-00002500J00000000D01*
G01X00205750Y00218500D02*
Y00211500D01*
X00205508Y00210428D02*
G03X00205750Y00211500I-00002258J00001072D01*
G01X00205508Y00210428D02*
G03Y00209571I00000904J-00000428D01*
G01X00205750Y00208500D02*
G03X00205508Y00209571I-00002500J00000000D01*
G01X00205750Y00208500D02*
Y00201500D01*
X00205508Y00200428D02*
G03X00205750Y00201500I-00002258J00001072D01*
G01X00205508Y00200428D02*
G03Y00199571I00000904J-00000428D01*
G01X00205750Y00198500D02*
G03X00205508Y00199571I-00002500J00000000D01*
G01X00205750Y00198500D02*
Y00191500D01*
X00205508Y00190428D02*
G03X00205750Y00191500I-00002258J00001072D01*
G01X00205508Y00190428D02*
G03Y00189571I00000904J-00000428D01*
G01X00205750Y00188500D02*
G03X00205508Y00189571I-00002500J00000000D01*
G01X00205750Y00188500D02*
Y00181500D01*
X00205508Y00180428D02*
G03X00205750Y00181500I-00002258J00001072D01*
G01X00205508Y00180428D02*
G03Y00179571I00000904J-00000428D01*
G01X00205750Y00178500D02*
G03X00205508Y00179571I-00002500J00000000D01*
G01X00205750Y00178500D02*
Y00171500D01*
X00205508Y00170428D02*
G03X00205750Y00171500I-00002258J00001072D01*
G01X00205508Y00170428D02*
G03Y00169571I00000904J-00000428D01*
G01X00205750Y00168500D02*
G03X00205508Y00169571I-00002500J00000000D01*
G01X00205750Y00168500D02*
Y00161500D01*
X00203250Y00158999D02*
G03X00205750Y00161500I00000000J00002501D01*
G01X00203250Y00158999D02*
X00196750D01*
X00195500Y00159334D02*
G03X00196750Y00158999I00001250J00002166D01*
G01X00195499Y00159334D02*
G03X00194500I-00000499J-00000865D01*
G01X00193250Y00158999D02*
G03X00194500Y00159334I00000000J00002501D01*
G01X00193250Y00158999D02*
X00186750D01*
X00185500Y00159334D02*
G03X00186750Y00158999I00001250J00002166D01*
G01X00185499Y00159334D02*
G03X00184500I-00000499J-00000865D01*
G01X00183250Y00158999D02*
G03X00184500Y00159334I00000000J00002501D01*
G01X00183250Y00158999D02*
X00176750D01*
X00174249Y00161500D02*
G03X00176750Y00158999I00002501J00000000D01*
G01X00174249Y00161500D02*
Y00168500D01*
X00174491Y00169571D02*
G03X00174249Y00168500I00002259J-00001071D01*
G01X00174491Y00169571D02*
G03Y00170428I-00000903J00000429D01*
G01X00174249Y00171500D02*
G03X00174491Y00170428I00002501J00000000D01*
G01X00174249Y00171500D02*
Y00178500D01*
X00174491Y00179571D02*
G03X00174249Y00178500I00002259J-00001071D01*
G01X00174491Y00179571D02*
G03Y00180428I-00000903J00000429D01*
G01X00174249Y00181500D02*
G03X00174491Y00180428I00002501J00000000D01*
G01X00174249Y00181500D02*
Y00188500D01*
X00174491Y00189571D02*
G03X00174249Y00188500I00002259J-00001071D01*
G01X00174491Y00189571D02*
G03Y00190428I-00000903J00000429D01*
G01X00174249Y00191500D02*
G03X00174491Y00190428I00002501J00000000D01*
G01X00174249Y00191500D02*
Y00198500D01*
X00174491Y00199571D02*
G03X00174249Y00198500I00002259J-00001071D01*
G01X00174491Y00199571D02*
G03Y00200428I-00000903J00000429D01*
G01X00174249Y00201500D02*
G03X00174491Y00200428I00002501J00000000D01*
G01X00174249Y00201500D02*
Y00208500D01*
X00174491Y00209571D02*
G03X00174249Y00208500I00002259J-00001071D01*
G01X00174491Y00209571D02*
G03Y00210428I-00000903J00000429D01*
G01X00174249Y00211500D02*
G03X00174491Y00210428I00002501J00000000D01*
G01X00174249Y00211500D02*
Y00218500D01*
X00174491Y00219571D02*
G03X00174249Y00218500I00002259J-00001071D01*
G01X00174491Y00219571D02*
G03Y00220428I-00000903J00000429D01*
G01X00174249Y00221500D02*
G03X00174491Y00220428I00002501J00000000D01*
G01X00174249Y00221500D02*
Y00228500D01*
X00174491Y00229571D02*
G03X00174249Y00228500I00002259J-00001071D01*
G01X00174491Y00229571D02*
G03Y00230428I-00000903J00000429D01*
G01X00174249Y00231500D02*
G03X00174491Y00230428I00002501J00000000D01*
G01X00174249Y00231500D02*
Y00238500D01*
X00174491Y00239571D02*
G03X00174249Y00238500I00002259J-00001071D01*
G01X00174491Y00239571D02*
G03Y00240428I-00000903J00000429D01*
G01X00174249Y00241500D02*
G03X00174491Y00240428I00002501J00000000D01*
G01X00174249Y00241500D02*
Y00248500D01*
X00174491Y00249571D02*
G03X00174249Y00248500I00002259J-00001071D01*
G01X00174491Y00249571D02*
G03Y00250428I-00000903J00000429D01*
G01X00174249Y00251500D02*
G03X00174491Y00250428I00002501J00000000D01*
G01X00174249Y00251500D02*
Y00258500D01*
X00174491Y00259571D02*
G03X00174249Y00258500I00002259J-00001071D01*
G01X00174491Y00259571D02*
G03Y00260428I-00000903J00000429D01*
G01X00174249Y00261500D02*
G03X00174491Y00260428I00002501J00000000D01*
G01X00174249Y00261500D02*
Y00268500D01*
X00174491Y00269571D02*
G03X00174249Y00268500I00002259J-00001071D01*
G01X00174491Y00269571D02*
G03Y00270428I-00000903J00000429D01*
G01X00174249Y00271500D02*
G03X00174491Y00270428I00002501J00000000D01*
G01X00174249Y00271500D02*
Y00278500D01*
X00174491Y00279571D02*
G03X00174249Y00278500I00002259J-00001071D01*
G01X00174491Y00279571D02*
G03Y00280428I-00000903J00000429D01*
G01X00174249Y00281500D02*
G03X00174491Y00280428I00002501J00000000D01*
G01X00174249Y00281500D02*
Y00288500D01*
X00174491Y00289571D02*
G03X00174249Y00288500I00002259J-00001071D01*
G01X00174491Y00289571D02*
G03Y00290428I-00000903J00000429D01*
G01X00174249Y00291500D02*
G03X00174491Y00290428I00002501J00000000D01*
G01X00174249Y00291500D02*
Y00298500D01*
X00174491Y00299571D02*
G03X00174249Y00298500I00002259J-00001071D01*
G01X00174491Y00299571D02*
G03Y00300428I-00000903J00000429D01*
G01X00174249Y00301500D02*
G03X00174491Y00300428I00002501J00000000D01*
G01X00174249Y00301500D02*
Y00308500D01*
X00174491Y00309571D02*
G03X00174249Y00308500I00002259J-00001071D01*
G01X00174491Y00309571D02*
G03Y00310428I-00000903J00000429D01*
G01X00174249Y00311500D02*
G03X00174491Y00310428I00002501J00000000D01*
G01X00174249Y00311500D02*
Y00318500D01*
X00176750Y00321000D02*
G03X00174249Y00318500I00000000J-00002500D01*
G01X00176750Y00321000D02*
X00183250D01*
X00184500Y00320665D02*
G03X00183250Y00321000I-00001250J-00002165D01*
G01X00184500Y00320665D02*
G03X00185499I00000500J00000866D01*
G01X00186750Y00321000D02*
G03X00185500Y00320665I00000000J-00002500D01*
G01X00186750Y00321000D02*
X00193250D01*
X00194500Y00320665D02*
G03X00193250Y00321000I-00001250J-00002165D01*
G01X00194500Y00320665D02*
G03X00195499I00000500J00000866D01*
G01X00196750Y00321000D02*
G03X00195500Y00320665I00000000J-00002500D01*
G01X00196750Y00321000D02*
X00203250D01*
X00205750Y00318500D02*
G03X00203250Y00321000I-00002500J00000000D01*
G01X00285500Y00340500D02*
Y00334500D01*
X00283000Y00331999D02*
G03X00285500Y00334500I00000000J00002501D01*
G01X00283000Y00331999D02*
X00279485D01*
X00279485D02*
G03X00278778Y00331707I00000000J-00000999D01*
G01X00273535Y00326464*
X00270000Y00324999D02*
G03X00273535Y00326464I00000000J00005001D01*
G01X00270000Y00324999D02*
X00170000D01*
X00166464Y00326464D02*
G03X00170000Y00324999I00003536J00003536D01*
G01X00166464Y00326464D02*
X00161221Y00331707D01*
X00161221D02*
G03X00160514Y00331999I-00000706J-00000707D01*
G01X00160514D02*
X00157000D01*
X00154499Y00334500D02*
G03X00157000Y00331999I00002501J00000000D01*
G01X00154499Y00334500D02*
Y00340500D01*
X00157000Y00343000D02*
G03X00154499Y00340500I00000000J-00002500D01*
G01X00157000Y00343000D02*
X00163000D01*
X00165085Y00341878D02*
G03X00163000Y00343000I-00002085J-00001378D01*
G01X00165085Y00341878D02*
G03X00165349Y00341608I00000834J00000552D01*
G01X00166035Y00341035D02*
G03X00165349Y00341608I-00003535J-00003535D01*
G01X00166035Y00341035D02*
X00167292Y00339778D01*
X00167292D02*
G03X00168999Y00340485I00000707J00000707D01*
G01X00168999D02*
Y00340750D01*
X00169334Y00342000D02*
G03X00168999Y00340750I00002166J-00001250D01*
G01X00169334Y00342000D02*
G03Y00342999I-00000865J00000500D01*
G01X00168999Y00344250D02*
G03X00169334Y00343000I00002501J00000000D01*
G01X00168999Y00344250D02*
Y00350750D01*
X00171500Y00353250D02*
G03X00168999Y00350750I00000000J-00002500D01*
G01X00171500Y00353250D02*
X00178500D01*
X00179571Y00353008D02*
G03X00178500Y00353250I-00001071J-00002258D01*
G01X00179571Y00353008D02*
G03X00180428I00000429J00000904D01*
G01X00181500Y00353250D02*
G03X00180428Y00353008I00000000J-00002500D01*
G01X00181500Y00353250D02*
X00188500D01*
X00189571Y00353008D02*
G03X00188500Y00353250I-00001071J-00002258D01*
G01X00189571Y00353008D02*
G03X00190428I00000429J00000904D01*
G01X00191500Y00353250D02*
G03X00190428Y00353008I00000000J-00002500D01*
G01X00191500Y00353250D02*
X00198500D01*
X00199571Y00353008D02*
G03X00198500Y00353250I-00001071J-00002258D01*
G01X00199571Y00353008D02*
G03X00200428I00000429J00000904D01*
G01X00201500Y00353250D02*
G03X00200428Y00353008I00000000J-00002500D01*
G01X00201500Y00353250D02*
X00208500D01*
X00209571Y00353008D02*
G03X00208500Y00353250I-00001071J-00002258D01*
G01X00209571Y00353008D02*
G03X00210428I00000429J00000904D01*
G01X00211500Y00353250D02*
G03X00210428Y00353008I00000000J-00002500D01*
G01X00211500Y00353250D02*
X00218500D01*
X00219571Y00353008D02*
G03X00218500Y00353250I-00001071J-00002258D01*
G01X00219571Y00353008D02*
G03X00220428I00000429J00000904D01*
G01X00221500Y00353250D02*
G03X00220428Y00353008I00000000J-00002500D01*
G01X00221500Y00353250D02*
X00228500D01*
X00229571Y00353008D02*
G03X00228500Y00353250I-00001071J-00002258D01*
G01X00229571Y00353008D02*
G03X00230428I00000429J00000904D01*
G01X00231500Y00353250D02*
G03X00230428Y00353008I00000000J-00002500D01*
G01X00231500Y00353250D02*
X00238500D01*
X00239571Y00353008D02*
G03X00238500Y00353250I-00001071J-00002258D01*
G01X00239571Y00353008D02*
G03X00240428I00000429J00000904D01*
G01X00241500Y00353250D02*
G03X00240428Y00353008I00000000J-00002500D01*
G01X00241500Y00353250D02*
X00248500D01*
X00249571Y00353008D02*
G03X00248500Y00353250I-00001071J-00002258D01*
G01X00249571Y00353008D02*
G03X00250428I00000429J00000904D01*
G01X00251500Y00353250D02*
G03X00250428Y00353008I00000000J-00002500D01*
G01X00251500Y00353250D02*
X00258500D01*
X00259571Y00353008D02*
G03X00258500Y00353250I-00001071J-00002258D01*
G01X00259571Y00353008D02*
G03X00260428I00000429J00000904D01*
G01X00261500Y00353250D02*
G03X00260428Y00353008I00000000J-00002500D01*
G01X00261500Y00353250D02*
X00268500D01*
X00271000Y00350750D02*
G03X00268500Y00353250I-00002500J00000000D01*
G01X00271000Y00350750D02*
Y00344250D01*
X00270665Y00343000D02*
G03X00271000Y00344250I-00002165J00001250D01*
G01X00270665Y00342999D02*
G03Y00342000I00000866J-00000499D01*
G01X00271000Y00340750D02*
G03X00270665Y00342000I-00002500J00000000D01*
G01X00271000Y00340750D02*
Y00340485D01*
G03X00272707Y00339778I00001000J00000000*
G01X00273964Y00341035*
X00274650Y00341608D02*
G03X00273964Y00341035I00002850J-00004108D01*
G01X00274650Y00341608D02*
G03X00274914Y00341878I-00000569J00000822D01*
G01X00277000Y00343000D02*
G03X00274914Y00341878I00000000J-00002500D01*
G01X00277000Y00343000D02*
X00283000D01*
X00285500Y00340500D02*
G03X00283000Y00343000I-00002500J00000000D01*
G01X00122505Y00309698D02*
X00124541D01*
X00122582Y00310598D02*
X00124417D01*
X00122500Y00299798D02*
X00124567D01*
X00122632Y00300698D02*
X00124367D01*
X00123064Y00298898D02*
X00123935D01*
X00122500Y00289898D02*
X00124582D01*
X00122698Y00290798D02*
X00124301D01*
X00122900Y00288998D02*
X00124099D01*
X00122500Y00279998D02*
X00124587D01*
X00122783Y00280898D02*
X00124216D01*
X00122786Y00279098D02*
X00124213D01*
X00122500Y00270098D02*
X00124582D01*
X00122700Y00269198D02*
X00124299D01*
X00122897Y00270998D02*
X00124102D01*
X00122500Y00260198D02*
X00124567D01*
X00122634Y00259298D02*
X00124365D01*
X00123059Y00261098D02*
X00123940D01*
X00122504Y00250298D02*
X00124542D01*
X00122583Y00249398D02*
X00124416D01*
X00123433Y00251198D02*
X00123566D01*
X00122519Y00240398D02*
X00124504D01*
X00122546Y00239498D02*
X00124458D01*
X00122520Y00229598D02*
X00124503D01*
X00122545Y00230498D02*
X00124459D01*
X00122505Y00219698D02*
X00124541D01*
X00122582Y00220598D02*
X00124417D01*
X00122500Y00209798D02*
X00124567D01*
X00122632Y00210698D02*
X00124367D01*
X00123064Y00208898D02*
X00123935D01*
X00122500Y00199898D02*
X00124582D01*
X00122698Y00200798D02*
X00124301D01*
X00122900Y00198998D02*
X00124099D01*
X00122500Y00189998D02*
X00124587D01*
X00122783Y00190898D02*
X00124216D01*
X00122786Y00189098D02*
X00124213D01*
X00122500Y00180098D02*
X00124582D01*
X00122700Y00179198D02*
X00124299D01*
X00122897Y00180998D02*
X00124102D01*
X00122500Y00170198D02*
X00124567D01*
X00122634Y00169298D02*
X00124365D01*
X00123059Y00171098D02*
X00123940D01*
X00122500Y00356498D02*
X00317500D01*
X00122500Y00355598D02*
X00317500D01*
X00122500Y00354698D02*
X00317500D01*
X00122500Y00353798D02*
X00317500D01*
X00269777Y00352898D02*
X00317500D01*
X00270665Y00351998D02*
X00317500D01*
X00270975Y00351098D02*
X00317500D01*
X00271000Y00350198D02*
X00317500D01*
X00271000Y00349298D02*
X00317500D01*
X00271000Y00348398D02*
X00317500D01*
X00271000Y00347498D02*
X00317500D01*
X00271000Y00346598D02*
X00317500D01*
X00271000Y00345698D02*
X00317500D01*
X00271000Y00344798D02*
X00317500D01*
X00270975Y00343898D02*
X00317500D01*
X00283081Y00342998D02*
X00317500D01*
X00284922Y00342098D02*
X00317500D01*
X00285400Y00341198D02*
X00317500D01*
X00285500Y00340298D02*
X00317500D01*
X00285500Y00339398D02*
X00317500D01*
X00285500Y00338498D02*
X00317500D01*
X00285500Y00337598D02*
X00317500D01*
X00285500Y00336698D02*
X00317500D01*
X00285500Y00335798D02*
X00317500D01*
X00285500Y00334898D02*
X00317500D01*
X00285449Y00333998D02*
X00317500D01*
X00285070Y00333098D02*
X00317500D01*
X00283976Y00332198D02*
X00317500D01*
X00278369Y00331298D02*
X00317500D01*
X00277469Y00330398D02*
X00317500D01*
X00276569Y00329498D02*
X00317500D01*
X00275669Y00328598D02*
X00317500D01*
X00274769Y00327698D02*
X00317500D01*
X00273869Y00326798D02*
X00317500D01*
X00272859Y00325898D02*
X00317500D01*
X00122500Y00324998D02*
X00317500D01*
X00122500Y00324098D02*
X00317500D01*
X00122500Y00323198D02*
X00317500D01*
X00122500Y00322298D02*
X00317500D01*
X00122500Y00321398D02*
X00317500D01*
X00314751Y00320498D02*
X00317500D01*
X00314604Y00159398D02*
X00317500D01*
X00122500Y00158498D02*
X00317500D01*
X00122500Y00157598D02*
X00317500D01*
X00122500Y00156698D02*
X00317500D01*
X00122500Y00155798D02*
X00317500D01*
X00271001Y00154898D02*
X00317500D01*
X00273001Y00153998D02*
X00317500D01*
X00273972Y00153098D02*
X00317500D01*
X00274872Y00152198D02*
X00317500D01*
X00275772Y00151298D02*
X00317500D01*
X00276672Y00150398D02*
X00317500D01*
X00277572Y00149498D02*
X00317500D01*
X00278472Y00148598D02*
X00317500D01*
X00284189Y00147698D02*
X00317500D01*
X00285136Y00146798D02*
X00317500D01*
X00285468Y00145898D02*
X00317500D01*
X00285500Y00144998D02*
X00317500D01*
X00285500Y00144098D02*
X00317500D01*
X00285500Y00143198D02*
X00317500D01*
X00285500Y00142298D02*
X00317500D01*
X00285500Y00141398D02*
X00317500D01*
X00285500Y00140498D02*
X00317500D01*
X00285500Y00139598D02*
X00317500D01*
X00285368Y00138698D02*
X00317500D01*
X00284831Y00137798D02*
X00317500D01*
X00270720Y00136898D02*
X00317500D01*
X00270987Y00135998D02*
X00317500D01*
X00271000Y00135098D02*
X00317500D01*
X00271000Y00134198D02*
X00317500D01*
X00271000Y00133298D02*
X00317500D01*
X00271000Y00132398D02*
X00317500D01*
X00271000Y00131498D02*
X00317500D01*
X00271000Y00130598D02*
X00317500D01*
X00271000Y00129698D02*
X00317500D01*
X00270958Y00128798D02*
X00317500D01*
X00270603Y00127898D02*
X00317500D01*
X00269587Y00126998D02*
X00317500D01*
X00122500Y00126098D02*
X00317500D01*
X00122500Y00125198D02*
X00317500D01*
X00122500Y00124298D02*
X00317500D01*
X00315442Y00160298D02*
X00317495D01*
X00122505Y00123398D02*
X00317494D01*
X00315495Y00319598D02*
X00317479D01*
X00123061Y00357398D02*
X00316938D01*
X00316433Y00161198D02*
X00316566D01*
X00304631Y00159398D02*
X00305368D01*
X00294631D02*
X00295368D01*
X00284631D02*
X00285368D01*
X00270664Y00342998D02*
X00276918D01*
X00269349Y00159398D02*
X00275395D01*
X00269592Y00320498D02*
X00275248D01*
X00270576Y00137798D02*
X00275168D01*
X00270615Y00342098D02*
X00275077D01*
X00270531Y00279998D02*
X00274587D01*
X00270531Y00189998D02*
X00274587D01*
X00270535Y00270098D02*
X00274582D01*
X00270535Y00180098D02*
X00274582D01*
X00270536Y00289898D02*
X00274582D01*
X00270536Y00199898D02*
X00274582D01*
X00270551Y00260198D02*
X00274567D01*
X00270551Y00170198D02*
X00274567D01*
X00270551Y00299798D02*
X00274567D01*
X00270551Y00209798D02*
X00274567D01*
X00270535Y00160298D02*
X00274557D01*
X00270576Y00250298D02*
X00274542D01*
X00270577Y00309698D02*
X00274541D01*
X00270577Y00219698D02*
X00274541D01*
X00270614Y00240398D02*
X00274504D01*
X00270605Y00319598D02*
X00274504D01*
X00270615Y00229598D02*
X00274503D01*
X00270664Y00230498D02*
X00274459D01*
X00270665Y00239498D02*
X00274458D01*
X00270719Y00310598D02*
X00274418D01*
X00270719Y00220598D02*
X00274418D01*
X00270720Y00249398D02*
X00274417D01*
X00270768Y00300698D02*
X00274381D01*
X00270768Y00210698D02*
X00274381D01*
X00270769Y00259298D02*
X00274380D01*
X00270769Y00169298D02*
X00274380D01*
X00270811Y00290798D02*
X00274350D01*
X00270811Y00200798D02*
X00274350D01*
X00270813Y00269198D02*
X00274349D01*
X00270813Y00179198D02*
X00274349D01*
X00270850Y00280898D02*
X00274323D01*
X00270850Y00190898D02*
X00274323D01*
X00270851Y00279098D02*
X00274322D01*
X00270851Y00189098D02*
X00274322D01*
X00270884Y00270998D02*
X00274300D01*
X00270884Y00180998D02*
X00274300D01*
X00270885Y00288998D02*
X00274300D01*
X00270885Y00198998D02*
X00274300D01*
X00270913Y00261098D02*
X00274282D01*
X00270913Y00171098D02*
X00274282D01*
X00270914Y00298898D02*
X00274281D01*
X00270914Y00208898D02*
X00274281D01*
X00270938Y00251198D02*
X00274268D01*
X00270938Y00161198D02*
X00274268D01*
X00270939Y00308798D02*
X00274267D01*
X00270939Y00218798D02*
X00274267D01*
X00270958Y00241298D02*
X00274258D01*
X00270959Y00318698D02*
X00274257D01*
X00270959Y00228698D02*
X00274257D01*
X00270975Y00231398D02*
X00274252D01*
X00270975Y00238598D02*
X00274251D01*
X00270938Y00138698D02*
X00274251D01*
X00271000Y00317798D02*
X00274249D01*
X00271000Y00316898D02*
X00274249D01*
X00271000Y00315998D02*
X00274249D01*
X00271000Y00315098D02*
X00274249D01*
X00271000Y00314198D02*
X00274249D01*
X00271000Y00313298D02*
X00274249D01*
X00271000Y00312398D02*
X00274249D01*
X00270987Y00311498D02*
X00274249D01*
X00271000Y00307898D02*
X00274249D01*
X00271000Y00306998D02*
X00274249D01*
X00271000Y00306098D02*
X00274249D01*
X00271000Y00305198D02*
X00274249D01*
X00271000Y00304298D02*
X00274249D01*
X00271000Y00303398D02*
X00274249D01*
X00271000Y00302498D02*
X00274249D01*
X00270995Y00301598D02*
X00274249D01*
X00271000Y00297998D02*
X00274249D01*
X00271000Y00297098D02*
X00274249D01*
X00271000Y00296198D02*
X00274249D01*
X00271000Y00295298D02*
X00274249D01*
X00271000Y00294398D02*
X00274249D01*
X00271000Y00293498D02*
X00274249D01*
X00271000Y00292598D02*
X00274249D01*
X00270999Y00291698D02*
X00274249D01*
X00271000Y00288098D02*
X00274249D01*
X00271000Y00287198D02*
X00274249D01*
X00271000Y00286298D02*
X00274249D01*
X00271000Y00285398D02*
X00274249D01*
X00271000Y00284498D02*
X00274249D01*
X00271000Y00283598D02*
X00274249D01*
X00271000Y00282698D02*
X00274249D01*
X00271000Y00281798D02*
X00274249D01*
X00271000Y00278198D02*
X00274249D01*
X00271000Y00277298D02*
X00274249D01*
X00271000Y00276398D02*
X00274249D01*
X00271000Y00275498D02*
X00274249D01*
X00271000Y00274598D02*
X00274249D01*
X00271000Y00273698D02*
X00274249D01*
X00271000Y00272798D02*
X00274249D01*
X00271000Y00271898D02*
X00274249D01*
X00270999Y00268298D02*
X00274249D01*
X00271000Y00267398D02*
X00274249D01*
X00271000Y00266498D02*
X00274249D01*
X00271000Y00265598D02*
X00274249D01*
X00271000Y00264698D02*
X00274249D01*
X00271000Y00263798D02*
X00274249D01*
X00271000Y00262898D02*
X00274249D01*
X00271000Y00261998D02*
X00274249D01*
X00270995Y00258398D02*
X00274249D01*
X00271000Y00257498D02*
X00274249D01*
X00271000Y00256598D02*
X00274249D01*
X00271000Y00255698D02*
X00274249D01*
X00271000Y00254798D02*
X00274249D01*
X00271000Y00253898D02*
X00274249D01*
X00271000Y00252998D02*
X00274249D01*
X00271000Y00252098D02*
X00274249D01*
X00270987Y00248498D02*
X00274249D01*
X00271000Y00247598D02*
X00274249D01*
X00271000Y00246698D02*
X00274249D01*
X00271000Y00245798D02*
X00274249D01*
X00271000Y00244898D02*
X00274249D01*
X00271000Y00243998D02*
X00274249D01*
X00271000Y00243098D02*
X00274249D01*
X00271000Y00242198D02*
X00274249D01*
X00271000Y00237698D02*
X00274249D01*
X00271000Y00236798D02*
X00274249D01*
X00271000Y00235898D02*
X00274249D01*
X00271000Y00234998D02*
X00274249D01*
X00271000Y00234098D02*
X00274249D01*
X00271000Y00233198D02*
X00274249D01*
X00271000Y00232298D02*
X00274249D01*
X00271000Y00227798D02*
X00274249D01*
X00271000Y00226898D02*
X00274249D01*
X00271000Y00225998D02*
X00274249D01*
X00271000Y00225098D02*
X00274249D01*
X00271000Y00224198D02*
X00274249D01*
X00271000Y00223298D02*
X00274249D01*
X00271000Y00222398D02*
X00274249D01*
X00270987Y00221498D02*
X00274249D01*
X00271000Y00217898D02*
X00274249D01*
X00271000Y00216998D02*
X00274249D01*
X00271000Y00216098D02*
X00274249D01*
X00271000Y00215198D02*
X00274249D01*
X00271000Y00214298D02*
X00274249D01*
X00271000Y00213398D02*
X00274249D01*
X00271000Y00212498D02*
X00274249D01*
X00270995Y00211598D02*
X00274249D01*
X00271000Y00207998D02*
X00274249D01*
X00271000Y00207098D02*
X00274249D01*
X00271000Y00206198D02*
X00274249D01*
X00271000Y00205298D02*
X00274249D01*
X00271000Y00204398D02*
X00274249D01*
X00271000Y00203498D02*
X00274249D01*
X00271000Y00202598D02*
X00274249D01*
X00270999Y00201698D02*
X00274249D01*
X00271000Y00198098D02*
X00274249D01*
X00271000Y00197198D02*
X00274249D01*
X00271000Y00196298D02*
X00274249D01*
X00271000Y00195398D02*
X00274249D01*
X00271000Y00194498D02*
X00274249D01*
X00271000Y00193598D02*
X00274249D01*
X00271000Y00192698D02*
X00274249D01*
X00271000Y00191798D02*
X00274249D01*
X00271000Y00188198D02*
X00274249D01*
X00271000Y00187298D02*
X00274249D01*
X00271000Y00186398D02*
X00274249D01*
X00271000Y00185498D02*
X00274249D01*
X00271000Y00184598D02*
X00274249D01*
X00271000Y00183698D02*
X00274249D01*
X00271000Y00182798D02*
X00274249D01*
X00271000Y00181898D02*
X00274249D01*
X00270999Y00178298D02*
X00274249D01*
X00271000Y00177398D02*
X00274249D01*
X00271000Y00176498D02*
X00274249D01*
X00271000Y00175598D02*
X00274249D01*
X00271000Y00174698D02*
X00274249D01*
X00271000Y00173798D02*
X00274249D01*
X00271000Y00172898D02*
X00274249D01*
X00271000Y00171998D02*
X00274249D01*
X00270995Y00168398D02*
X00274249D01*
X00271000Y00167498D02*
X00274249D01*
X00271000Y00166598D02*
X00274249D01*
X00271000Y00165698D02*
X00274249D01*
X00271000Y00164798D02*
X00274249D01*
X00271000Y00163898D02*
X00274249D01*
X00271000Y00162998D02*
X00274249D01*
X00271000Y00162098D02*
X00274249D01*
X00270959Y00341198D02*
X00274135D01*
X00271003Y00139598D02*
X00273330D01*
X00271017Y00340298D02*
X00273227D01*
X00271821Y00140498D02*
X00272178D01*
X00254604Y00159398D02*
X00260650D01*
X00259587Y00126998D02*
X00260412D01*
X00254751Y00320498D02*
X00260407D01*
X00255412Y00279998D02*
X00259468D01*
X00255412Y00189998D02*
X00259468D01*
X00255442Y00160298D02*
X00259464D01*
X00255417Y00270098D02*
X00259464D01*
X00255417Y00180098D02*
X00259464D01*
X00255417Y00289898D02*
X00259463D01*
X00255417Y00199898D02*
X00259463D01*
X00255432Y00260198D02*
X00259448D01*
X00255432Y00170198D02*
X00259448D01*
X00255432Y00299798D02*
X00259448D01*
X00255432Y00209798D02*
X00259448D01*
X00255457Y00250298D02*
X00259423D01*
X00255458Y00309698D02*
X00259422D01*
X00255458Y00219698D02*
X00259422D01*
X00255495Y00319598D02*
X00259394D01*
X00255495Y00240398D02*
X00259385D01*
X00255496Y00229598D02*
X00259384D01*
X00255540Y00230498D02*
X00259335D01*
X00255541Y00239498D02*
X00259334D01*
X00255581Y00310598D02*
X00259280D01*
X00255581Y00220598D02*
X00259280D01*
X00255582Y00249398D02*
X00259279D01*
X00255618Y00300698D02*
X00259231D01*
X00255618Y00210698D02*
X00259231D01*
X00255619Y00259298D02*
X00259230D01*
X00255619Y00169298D02*
X00259230D01*
X00255649Y00290798D02*
X00259188D01*
X00255649Y00200798D02*
X00259188D01*
X00255650Y00269198D02*
X00259186D01*
X00255650Y00179198D02*
X00259186D01*
X00255676Y00280898D02*
X00259149D01*
X00255676Y00190898D02*
X00259149D01*
X00255677Y00279098D02*
X00259148D01*
X00255677Y00189098D02*
X00259148D01*
X00255699Y00270998D02*
X00259115D01*
X00255699Y00180998D02*
X00259115D01*
X00255699Y00288998D02*
X00259114D01*
X00255699Y00198998D02*
X00259114D01*
X00255717Y00261098D02*
X00259086D01*
X00255717Y00171098D02*
X00259086D01*
X00255718Y00298898D02*
X00259085D01*
X00255718Y00208898D02*
X00259085D01*
X00255731Y00251198D02*
X00259061D01*
X00255731Y00161198D02*
X00259061D01*
X00255732Y00308798D02*
X00259060D01*
X00255732Y00218798D02*
X00259060D01*
X00255741Y00241298D02*
X00259041D01*
X00255742Y00318698D02*
X00259040D01*
X00255742Y00228698D02*
X00259040D01*
X00255747Y00231398D02*
X00259024D01*
X00255748Y00238598D02*
X00259024D01*
X00255750Y00311498D02*
X00259012D01*
X00255750Y00221498D02*
X00259012D01*
X00255750Y00248498D02*
X00259012D01*
X00255750Y00301598D02*
X00259004D01*
X00255750Y00211598D02*
X00259004D01*
X00255750Y00258398D02*
X00259004D01*
X00255750Y00168398D02*
X00259004D01*
X00255750Y00291698D02*
X00259000D01*
X00255750Y00201698D02*
X00259000D01*
X00255750Y00268298D02*
X00259000D01*
X00255750Y00178298D02*
X00259000D01*
X00255750Y00317798D02*
X00258999D01*
X00255750Y00316898D02*
X00258999D01*
X00255750Y00315998D02*
X00258999D01*
X00255750Y00315098D02*
X00258999D01*
X00255750Y00314198D02*
X00258999D01*
X00255750Y00313298D02*
X00258999D01*
X00255750Y00312398D02*
X00258999D01*
X00255750Y00307898D02*
X00258999D01*
X00255750Y00306998D02*
X00258999D01*
X00255750Y00306098D02*
X00258999D01*
X00255750Y00305198D02*
X00258999D01*
X00255750Y00304298D02*
X00258999D01*
X00255750Y00303398D02*
X00258999D01*
X00255750Y00302498D02*
X00258999D01*
X00255750Y00297998D02*
X00258999D01*
X00255750Y00297098D02*
X00258999D01*
X00255750Y00296198D02*
X00258999D01*
X00255750Y00295298D02*
X00258999D01*
X00255750Y00294398D02*
X00258999D01*
X00255750Y00293498D02*
X00258999D01*
X00255750Y00292598D02*
X00258999D01*
X00255750Y00288098D02*
X00258999D01*
X00255750Y00287198D02*
X00258999D01*
X00255750Y00286298D02*
X00258999D01*
X00255750Y00285398D02*
X00258999D01*
X00255750Y00284498D02*
X00258999D01*
X00255750Y00283598D02*
X00258999D01*
X00255750Y00282698D02*
X00258999D01*
X00255750Y00281798D02*
X00258999D01*
X00255750Y00278198D02*
X00258999D01*
X00255750Y00277298D02*
X00258999D01*
X00255750Y00276398D02*
X00258999D01*
X00255750Y00275498D02*
X00258999D01*
X00255750Y00274598D02*
X00258999D01*
X00255750Y00273698D02*
X00258999D01*
X00255750Y00272798D02*
X00258999D01*
X00255750Y00271898D02*
X00258999D01*
X00255750Y00267398D02*
X00258999D01*
X00255750Y00266498D02*
X00258999D01*
X00255750Y00265598D02*
X00258999D01*
X00255750Y00264698D02*
X00258999D01*
X00255750Y00263798D02*
X00258999D01*
X00255750Y00262898D02*
X00258999D01*
X00255750Y00261998D02*
X00258999D01*
X00255750Y00257498D02*
X00258999D01*
X00255750Y00256598D02*
X00258999D01*
X00255750Y00255698D02*
X00258999D01*
X00255750Y00254798D02*
X00258999D01*
X00255750Y00253898D02*
X00258999D01*
X00255750Y00252998D02*
X00258999D01*
X00255750Y00252098D02*
X00258999D01*
X00255750Y00247598D02*
X00258999D01*
X00255750Y00246698D02*
X00258999D01*
X00255750Y00245798D02*
X00258999D01*
X00255750Y00244898D02*
X00258999D01*
X00255750Y00243998D02*
X00258999D01*
X00255750Y00243098D02*
X00258999D01*
X00255750Y00242198D02*
X00258999D01*
X00255750Y00237698D02*
X00258999D01*
X00255750Y00236798D02*
X00258999D01*
X00255750Y00235898D02*
X00258999D01*
X00255750Y00234998D02*
X00258999D01*
X00255750Y00234098D02*
X00258999D01*
X00255750Y00233198D02*
X00258999D01*
X00255750Y00232298D02*
X00258999D01*
X00255750Y00227798D02*
X00258999D01*
X00255750Y00226898D02*
X00258999D01*
X00255750Y00225998D02*
X00258999D01*
X00255750Y00225098D02*
X00258999D01*
X00255750Y00224198D02*
X00258999D01*
X00255750Y00223298D02*
X00258999D01*
X00255750Y00222398D02*
X00258999D01*
X00255750Y00217898D02*
X00258999D01*
X00255750Y00216998D02*
X00258999D01*
X00255750Y00216098D02*
X00258999D01*
X00255750Y00215198D02*
X00258999D01*
X00255750Y00214298D02*
X00258999D01*
X00255750Y00213398D02*
X00258999D01*
X00255750Y00212498D02*
X00258999D01*
X00255750Y00207998D02*
X00258999D01*
X00255750Y00207098D02*
X00258999D01*
X00255750Y00206198D02*
X00258999D01*
X00255750Y00205298D02*
X00258999D01*
X00255750Y00204398D02*
X00258999D01*
X00255750Y00203498D02*
X00258999D01*
X00255750Y00202598D02*
X00258999D01*
X00255750Y00198098D02*
X00258999D01*
X00255750Y00197198D02*
X00258999D01*
X00255750Y00196298D02*
X00258999D01*
X00255750Y00195398D02*
X00258999D01*
X00255750Y00194498D02*
X00258999D01*
X00255750Y00193598D02*
X00258999D01*
X00255750Y00192698D02*
X00258999D01*
X00255750Y00191798D02*
X00258999D01*
X00255750Y00188198D02*
X00258999D01*
X00255750Y00187298D02*
X00258999D01*
X00255750Y00186398D02*
X00258999D01*
X00255750Y00185498D02*
X00258999D01*
X00255750Y00184598D02*
X00258999D01*
X00255750Y00183698D02*
X00258999D01*
X00255750Y00182798D02*
X00258999D01*
X00255750Y00181898D02*
X00258999D01*
X00255750Y00177398D02*
X00258999D01*
X00255750Y00176498D02*
X00258999D01*
X00255750Y00175598D02*
X00258999D01*
X00255750Y00174698D02*
X00258999D01*
X00255750Y00173798D02*
X00258999D01*
X00255750Y00172898D02*
X00258999D01*
X00255750Y00171998D02*
X00258999D01*
X00255750Y00167498D02*
X00258999D01*
X00255750Y00166598D02*
X00258999D01*
X00255750Y00165698D02*
X00258999D01*
X00255750Y00164798D02*
X00258999D01*
X00255750Y00163898D02*
X00258999D01*
X00255750Y00162998D02*
X00258999D01*
X00255750Y00162098D02*
X00258999D01*
X00249587Y00126998D02*
X00250412D01*
X00244631Y00159398D02*
X00245368D01*
X00239587Y00126998D02*
X00240412D01*
X00234631Y00159398D02*
X00235368D01*
X00229587Y00126998D02*
X00230412D01*
X00224631Y00159398D02*
X00225368D01*
X00219587Y00126998D02*
X00220412D01*
X00204604Y00159398D02*
X00215395D01*
X00204751Y00320498D02*
X00215248D01*
X00205412Y00279998D02*
X00214587D01*
X00205412Y00189998D02*
X00214587D01*
X00205417Y00270098D02*
X00214582D01*
X00205417Y00180098D02*
X00214582D01*
X00205417Y00289898D02*
X00214582D01*
X00205417Y00199898D02*
X00214582D01*
X00205432Y00260198D02*
X00214567D01*
X00205432Y00170198D02*
X00214567D01*
X00205432Y00299798D02*
X00214567D01*
X00205432Y00209798D02*
X00214567D01*
X00205442Y00160298D02*
X00214557D01*
X00205457Y00250298D02*
X00214542D01*
X00205458Y00309698D02*
X00214541D01*
X00205458Y00219698D02*
X00214541D01*
X00205495Y00240398D02*
X00214504D01*
X00205495Y00319598D02*
X00214504D01*
X00205496Y00229598D02*
X00214503D01*
X00205540Y00230498D02*
X00214459D01*
X00205541Y00239498D02*
X00214458D01*
X00205581Y00310598D02*
X00214418D01*
X00205581Y00220598D02*
X00214418D01*
X00205582Y00249398D02*
X00214417D01*
X00205618Y00300698D02*
X00214381D01*
X00205618Y00210698D02*
X00214381D01*
X00205619Y00259298D02*
X00214380D01*
X00205619Y00169298D02*
X00214380D01*
X00205649Y00290798D02*
X00214350D01*
X00205649Y00200798D02*
X00214350D01*
X00205650Y00269198D02*
X00214349D01*
X00205650Y00179198D02*
X00214349D01*
X00205676Y00280898D02*
X00214323D01*
X00205676Y00190898D02*
X00214323D01*
X00205677Y00279098D02*
X00214322D01*
X00205677Y00189098D02*
X00214322D01*
X00205699Y00270998D02*
X00214300D01*
X00205699Y00180998D02*
X00214300D01*
X00205699Y00288998D02*
X00214300D01*
X00205699Y00198998D02*
X00214300D01*
X00205717Y00261098D02*
X00214282D01*
X00205717Y00171098D02*
X00214282D01*
X00205718Y00298898D02*
X00214281D01*
X00205718Y00208898D02*
X00214281D01*
X00205731Y00251198D02*
X00214268D01*
X00205731Y00161198D02*
X00214268D01*
X00205732Y00308798D02*
X00214267D01*
X00205732Y00218798D02*
X00214267D01*
X00205741Y00241298D02*
X00214258D01*
X00205742Y00318698D02*
X00214257D01*
X00205742Y00228698D02*
X00214257D01*
X00205747Y00231398D02*
X00214252D01*
X00205748Y00238598D02*
X00214251D01*
X00205750Y00317798D02*
X00214249D01*
X00205750Y00316898D02*
X00214249D01*
X00205750Y00315998D02*
X00214249D01*
X00205750Y00315098D02*
X00214249D01*
X00205750Y00314198D02*
X00214249D01*
X00205750Y00313298D02*
X00214249D01*
X00205750Y00312398D02*
X00214249D01*
X00205750Y00311498D02*
X00214249D01*
X00205750Y00307898D02*
X00214249D01*
X00205750Y00306998D02*
X00214249D01*
X00205750Y00306098D02*
X00214249D01*
X00205750Y00305198D02*
X00214249D01*
X00205750Y00304298D02*
X00214249D01*
X00205750Y00303398D02*
X00214249D01*
X00205750Y00302498D02*
X00214249D01*
X00205750Y00301598D02*
X00214249D01*
X00205750Y00297998D02*
X00214249D01*
X00205750Y00297098D02*
X00214249D01*
X00205750Y00296198D02*
X00214249D01*
X00205750Y00295298D02*
X00214249D01*
X00205750Y00294398D02*
X00214249D01*
X00205750Y00293498D02*
X00214249D01*
X00205750Y00292598D02*
X00214249D01*
X00205750Y00291698D02*
X00214249D01*
X00205750Y00288098D02*
X00214249D01*
X00205750Y00287198D02*
X00214249D01*
X00205750Y00286298D02*
X00214249D01*
X00205750Y00285398D02*
X00214249D01*
X00205750Y00284498D02*
X00214249D01*
X00205750Y00283598D02*
X00214249D01*
X00205750Y00282698D02*
X00214249D01*
X00205750Y00281798D02*
X00214249D01*
X00205750Y00278198D02*
X00214249D01*
X00205750Y00277298D02*
X00214249D01*
X00205750Y00276398D02*
X00214249D01*
X00205750Y00275498D02*
X00214249D01*
X00205750Y00274598D02*
X00214249D01*
X00205750Y00273698D02*
X00214249D01*
X00205750Y00272798D02*
X00214249D01*
X00205750Y00271898D02*
X00214249D01*
X00205750Y00268298D02*
X00214249D01*
X00205750Y00267398D02*
X00214249D01*
X00205750Y00266498D02*
X00214249D01*
X00205750Y00265598D02*
X00214249D01*
X00205750Y00264698D02*
X00214249D01*
X00205750Y00263798D02*
X00214249D01*
X00205750Y00262898D02*
X00214249D01*
X00205750Y00261998D02*
X00214249D01*
X00205750Y00258398D02*
X00214249D01*
X00205750Y00257498D02*
X00214249D01*
X00205750Y00256598D02*
X00214249D01*
X00205750Y00255698D02*
X00214249D01*
X00205750Y00254798D02*
X00214249D01*
X00205750Y00253898D02*
X00214249D01*
X00205750Y00252998D02*
X00214249D01*
X00205750Y00252098D02*
X00214249D01*
X00205750Y00248498D02*
X00214249D01*
X00205750Y00247598D02*
X00214249D01*
X00205750Y00246698D02*
X00214249D01*
X00205750Y00245798D02*
X00214249D01*
X00205750Y00244898D02*
X00214249D01*
X00205750Y00243998D02*
X00214249D01*
X00205750Y00243098D02*
X00214249D01*
X00205750Y00242198D02*
X00214249D01*
X00205750Y00237698D02*
X00214249D01*
X00205750Y00236798D02*
X00214249D01*
X00205750Y00235898D02*
X00214249D01*
X00205750Y00234998D02*
X00214249D01*
X00205750Y00234098D02*
X00214249D01*
X00205750Y00233198D02*
X00214249D01*
X00205750Y00232298D02*
X00214249D01*
X00205750Y00227798D02*
X00214249D01*
X00205750Y00226898D02*
X00214249D01*
X00205750Y00225998D02*
X00214249D01*
X00205750Y00225098D02*
X00214249D01*
X00205750Y00224198D02*
X00214249D01*
X00205750Y00223298D02*
X00214249D01*
X00205750Y00222398D02*
X00214249D01*
X00205750Y00221498D02*
X00214249D01*
X00205750Y00217898D02*
X00214249D01*
X00205750Y00216998D02*
X00214249D01*
X00205750Y00216098D02*
X00214249D01*
X00205750Y00215198D02*
X00214249D01*
X00205750Y00214298D02*
X00214249D01*
X00205750Y00213398D02*
X00214249D01*
X00205750Y00212498D02*
X00214249D01*
X00205750Y00211598D02*
X00214249D01*
X00205750Y00207998D02*
X00214249D01*
X00205750Y00207098D02*
X00214249D01*
X00205750Y00206198D02*
X00214249D01*
X00205750Y00205298D02*
X00214249D01*
X00205750Y00204398D02*
X00214249D01*
X00205750Y00203498D02*
X00214249D01*
X00205750Y00202598D02*
X00214249D01*
X00205750Y00201698D02*
X00214249D01*
X00205750Y00198098D02*
X00214249D01*
X00205750Y00197198D02*
X00214249D01*
X00205750Y00196298D02*
X00214249D01*
X00205750Y00195398D02*
X00214249D01*
X00205750Y00194498D02*
X00214249D01*
X00205750Y00193598D02*
X00214249D01*
X00205750Y00192698D02*
X00214249D01*
X00205750Y00191798D02*
X00214249D01*
X00205750Y00188198D02*
X00214249D01*
X00205750Y00187298D02*
X00214249D01*
X00205750Y00186398D02*
X00214249D01*
X00205750Y00185498D02*
X00214249D01*
X00205750Y00184598D02*
X00214249D01*
X00205750Y00183698D02*
X00214249D01*
X00205750Y00182798D02*
X00214249D01*
X00205750Y00181898D02*
X00214249D01*
X00205750Y00178298D02*
X00214249D01*
X00205750Y00177398D02*
X00214249D01*
X00205750Y00176498D02*
X00214249D01*
X00205750Y00175598D02*
X00214249D01*
X00205750Y00174698D02*
X00214249D01*
X00205750Y00173798D02*
X00214249D01*
X00205750Y00172898D02*
X00214249D01*
X00205750Y00171998D02*
X00214249D01*
X00205750Y00168398D02*
X00214249D01*
X00205750Y00167498D02*
X00214249D01*
X00205750Y00166598D02*
X00214249D01*
X00205750Y00165698D02*
X00214249D01*
X00205750Y00164798D02*
X00214249D01*
X00205750Y00163898D02*
X00214249D01*
X00205750Y00162998D02*
X00214249D01*
X00205750Y00162098D02*
X00214249D01*
X00209587Y00126998D02*
X00210412D01*
X00199587D02*
X00200412D01*
X00194631Y00159398D02*
X00195368D01*
X00189587Y00126998D02*
X00190412D01*
X00184631Y00159398D02*
X00185368D01*
X00179587Y00126998D02*
X00180412D01*
X00164604Y00159398D02*
X00175395D01*
X00164751Y00320498D02*
X00175248D01*
X00165412Y00279998D02*
X00174587D01*
X00165412Y00189998D02*
X00174587D01*
X00165417Y00270098D02*
X00174582D01*
X00165417Y00180098D02*
X00174582D01*
X00165417Y00289898D02*
X00174582D01*
X00165417Y00199898D02*
X00174582D01*
X00165432Y00260198D02*
X00174567D01*
X00165432Y00170198D02*
X00174567D01*
X00165432Y00299798D02*
X00174567D01*
X00165432Y00209798D02*
X00174567D01*
X00165442Y00160298D02*
X00174557D01*
X00165457Y00250298D02*
X00174542D01*
X00165458Y00309698D02*
X00174541D01*
X00165458Y00219698D02*
X00174541D01*
X00165495Y00240398D02*
X00174504D01*
X00165495Y00319598D02*
X00174504D01*
X00165496Y00229598D02*
X00174503D01*
X00165540Y00230498D02*
X00174459D01*
X00165541Y00239498D02*
X00174458D01*
X00165581Y00310598D02*
X00174418D01*
X00165581Y00220598D02*
X00174418D01*
X00165582Y00249398D02*
X00174417D01*
X00165618Y00300698D02*
X00174381D01*
X00165618Y00210698D02*
X00174381D01*
X00165619Y00259298D02*
X00174380D01*
X00165619Y00169298D02*
X00174380D01*
X00165649Y00290798D02*
X00174350D01*
X00165649Y00200798D02*
X00174350D01*
X00165650Y00269198D02*
X00174349D01*
X00165650Y00179198D02*
X00174349D01*
X00165676Y00280898D02*
X00174323D01*
X00165676Y00190898D02*
X00174323D01*
X00165677Y00279098D02*
X00174322D01*
X00165677Y00189098D02*
X00174322D01*
X00165699Y00270998D02*
X00174300D01*
X00165699Y00180998D02*
X00174300D01*
X00165699Y00288998D02*
X00174300D01*
X00165699Y00198998D02*
X00174300D01*
X00165717Y00261098D02*
X00174282D01*
X00165717Y00171098D02*
X00174282D01*
X00165718Y00298898D02*
X00174281D01*
X00165718Y00208898D02*
X00174281D01*
X00165731Y00251198D02*
X00174268D01*
X00165731Y00161198D02*
X00174268D01*
X00165732Y00308798D02*
X00174267D01*
X00165732Y00218798D02*
X00174267D01*
X00165741Y00241298D02*
X00174258D01*
X00165742Y00318698D02*
X00174257D01*
X00165742Y00228698D02*
X00174257D01*
X00165747Y00231398D02*
X00174252D01*
X00165748Y00238598D02*
X00174251D01*
X00165750Y00317798D02*
X00174249D01*
X00165750Y00316898D02*
X00174249D01*
X00165750Y00315998D02*
X00174249D01*
X00165750Y00315098D02*
X00174249D01*
X00165750Y00314198D02*
X00174249D01*
X00165750Y00313298D02*
X00174249D01*
X00165750Y00312398D02*
X00174249D01*
X00165750Y00311498D02*
X00174249D01*
X00165750Y00307898D02*
X00174249D01*
X00165750Y00306998D02*
X00174249D01*
X00165750Y00306098D02*
X00174249D01*
X00165750Y00305198D02*
X00174249D01*
X00165750Y00304298D02*
X00174249D01*
X00165750Y00303398D02*
X00174249D01*
X00165750Y00302498D02*
X00174249D01*
X00165750Y00301598D02*
X00174249D01*
X00165750Y00297998D02*
X00174249D01*
X00165750Y00297098D02*
X00174249D01*
X00165750Y00296198D02*
X00174249D01*
X00165750Y00295298D02*
X00174249D01*
X00165750Y00294398D02*
X00174249D01*
X00165750Y00293498D02*
X00174249D01*
X00165750Y00292598D02*
X00174249D01*
X00165750Y00291698D02*
X00174249D01*
X00165750Y00288098D02*
X00174249D01*
X00165750Y00287198D02*
X00174249D01*
X00165750Y00286298D02*
X00174249D01*
X00165750Y00285398D02*
X00174249D01*
X00165750Y00284498D02*
X00174249D01*
X00165750Y00283598D02*
X00174249D01*
X00165750Y00282698D02*
X00174249D01*
X00165750Y00281798D02*
X00174249D01*
X00165750Y00278198D02*
X00174249D01*
X00165750Y00277298D02*
X00174249D01*
X00165750Y00276398D02*
X00174249D01*
X00165750Y00275498D02*
X00174249D01*
X00165750Y00274598D02*
X00174249D01*
X00165750Y00273698D02*
X00174249D01*
X00165750Y00272798D02*
X00174249D01*
X00165750Y00271898D02*
X00174249D01*
X00165750Y00268298D02*
X00174249D01*
X00165750Y00267398D02*
X00174249D01*
X00165750Y00266498D02*
X00174249D01*
X00165750Y00265598D02*
X00174249D01*
X00165750Y00264698D02*
X00174249D01*
X00165750Y00263798D02*
X00174249D01*
X00165750Y00262898D02*
X00174249D01*
X00165750Y00261998D02*
X00174249D01*
X00165750Y00258398D02*
X00174249D01*
X00165750Y00257498D02*
X00174249D01*
X00165750Y00256598D02*
X00174249D01*
X00165750Y00255698D02*
X00174249D01*
X00165750Y00254798D02*
X00174249D01*
X00165750Y00253898D02*
X00174249D01*
X00165750Y00252998D02*
X00174249D01*
X00165750Y00252098D02*
X00174249D01*
X00165750Y00248498D02*
X00174249D01*
X00165750Y00247598D02*
X00174249D01*
X00165750Y00246698D02*
X00174249D01*
X00165750Y00245798D02*
X00174249D01*
X00165750Y00244898D02*
X00174249D01*
X00165750Y00243998D02*
X00174249D01*
X00165750Y00243098D02*
X00174249D01*
X00165750Y00242198D02*
X00174249D01*
X00165750Y00237698D02*
X00174249D01*
X00165750Y00236798D02*
X00174249D01*
X00165750Y00235898D02*
X00174249D01*
X00165750Y00234998D02*
X00174249D01*
X00165750Y00234098D02*
X00174249D01*
X00165750Y00233198D02*
X00174249D01*
X00165750Y00232298D02*
X00174249D01*
X00165750Y00227798D02*
X00174249D01*
X00165750Y00226898D02*
X00174249D01*
X00165750Y00225998D02*
X00174249D01*
X00165750Y00225098D02*
X00174249D01*
X00165750Y00224198D02*
X00174249D01*
X00165750Y00223298D02*
X00174249D01*
X00165750Y00222398D02*
X00174249D01*
X00165750Y00221498D02*
X00174249D01*
X00165750Y00217898D02*
X00174249D01*
X00165750Y00216998D02*
X00174249D01*
X00165750Y00216098D02*
X00174249D01*
X00165750Y00215198D02*
X00174249D01*
X00165750Y00214298D02*
X00174249D01*
X00165750Y00213398D02*
X00174249D01*
X00165750Y00212498D02*
X00174249D01*
X00165750Y00211598D02*
X00174249D01*
X00165750Y00207998D02*
X00174249D01*
X00165750Y00207098D02*
X00174249D01*
X00165750Y00206198D02*
X00174249D01*
X00165750Y00205298D02*
X00174249D01*
X00165750Y00204398D02*
X00174249D01*
X00165750Y00203498D02*
X00174249D01*
X00165750Y00202598D02*
X00174249D01*
X00165750Y00201698D02*
X00174249D01*
X00165750Y00198098D02*
X00174249D01*
X00165750Y00197198D02*
X00174249D01*
X00165750Y00196298D02*
X00174249D01*
X00165750Y00195398D02*
X00174249D01*
X00165750Y00194498D02*
X00174249D01*
X00165750Y00193598D02*
X00174249D01*
X00165750Y00192698D02*
X00174249D01*
X00165750Y00191798D02*
X00174249D01*
X00165750Y00188198D02*
X00174249D01*
X00165750Y00187298D02*
X00174249D01*
X00165750Y00186398D02*
X00174249D01*
X00165750Y00185498D02*
X00174249D01*
X00165750Y00184598D02*
X00174249D01*
X00165750Y00183698D02*
X00174249D01*
X00165750Y00182798D02*
X00174249D01*
X00165750Y00181898D02*
X00174249D01*
X00165750Y00178298D02*
X00174249D01*
X00165750Y00177398D02*
X00174249D01*
X00165750Y00176498D02*
X00174249D01*
X00165750Y00175598D02*
X00174249D01*
X00165750Y00174698D02*
X00174249D01*
X00165750Y00173798D02*
X00174249D01*
X00165750Y00172898D02*
X00174249D01*
X00165750Y00171998D02*
X00174249D01*
X00165750Y00168398D02*
X00174249D01*
X00165750Y00167498D02*
X00174249D01*
X00165750Y00166598D02*
X00174249D01*
X00165750Y00165698D02*
X00174249D01*
X00165750Y00164798D02*
X00174249D01*
X00165750Y00163898D02*
X00174249D01*
X00165750Y00162998D02*
X00174249D01*
X00165750Y00162098D02*
X00174249D01*
X00122500Y00126998D02*
X00170412D01*
X00122500Y00352898D02*
X00170222D01*
X00164831Y00137798D02*
X00169423D01*
X00122500Y00127898D02*
X00169396D01*
X00164922Y00342098D02*
X00169384D01*
X00163081Y00342998D02*
X00169335D01*
X00122500Y00351998D02*
X00169334D01*
X00122500Y00136898D02*
X00169279D01*
X00165748Y00138698D02*
X00169061D01*
X00122500Y00128798D02*
X00169041D01*
X00165864Y00341198D02*
X00169040D01*
X00122500Y00343898D02*
X00169024D01*
X00122500Y00351098D02*
X00169024D01*
X00122500Y00135998D02*
X00169012D01*
X00122500Y00350198D02*
X00168999D01*
X00122500Y00349298D02*
X00168999D01*
X00122500Y00348398D02*
X00168999D01*
X00122500Y00347498D02*
X00168999D01*
X00122500Y00346598D02*
X00168999D01*
X00122500Y00345698D02*
X00168999D01*
X00122500Y00344798D02*
X00168999D01*
X00122500Y00135098D02*
X00168999D01*
X00122500Y00134198D02*
X00168999D01*
X00122500Y00133298D02*
X00168999D01*
X00122500Y00132398D02*
X00168999D01*
X00122500Y00131498D02*
X00168999D01*
X00122500Y00130598D02*
X00168999D01*
X00122500Y00129698D02*
X00168999D01*
X00122500Y00154898D02*
X00168998D01*
X00166669Y00139598D02*
X00168996D01*
X00166772Y00340298D02*
X00168982D01*
X00167821Y00140498D02*
X00168178D01*
X00122500Y00325898D02*
X00167140D01*
X00122500Y00153998D02*
X00166998D01*
X00122500Y00326798D02*
X00166130D01*
X00122500Y00153098D02*
X00166027D01*
X00122500Y00327698D02*
X00165230D01*
X00122500Y00152198D02*
X00165127D01*
X00122500Y00328598D02*
X00164330D01*
X00122500Y00151298D02*
X00164227D01*
X00122500Y00329498D02*
X00163430D01*
X00122500Y00150398D02*
X00163327D01*
X00122500Y00330398D02*
X00162530D01*
X00122500Y00149498D02*
X00162427D01*
X00122500Y00331298D02*
X00161630D01*
X00122500Y00148598D02*
X00161527D01*
X00122500Y00342998D02*
X00156918D01*
X00122500Y00332198D02*
X00156023D01*
X00122500Y00147698D02*
X00155810D01*
X00154631Y00159398D02*
X00155368D01*
X00122500Y00137798D02*
X00155168D01*
X00122500Y00342098D02*
X00155077D01*
X00122500Y00333098D02*
X00154929D01*
X00122500Y00146798D02*
X00154863D01*
X00122500Y00138698D02*
X00154631D01*
X00122500Y00341198D02*
X00154599D01*
X00122500Y00333998D02*
X00154550D01*
X00122500Y00145898D02*
X00154531D01*
X00122500Y00340298D02*
X00154499D01*
X00122500Y00339398D02*
X00154499D01*
X00122500Y00338498D02*
X00154499D01*
X00122500Y00337598D02*
X00154499D01*
X00122500Y00336698D02*
X00154499D01*
X00122500Y00335798D02*
X00154499D01*
X00122500Y00334898D02*
X00154499D01*
X00122500Y00144998D02*
X00154499D01*
X00122500Y00144098D02*
X00154499D01*
X00122500Y00143198D02*
X00154499D01*
X00122500Y00142298D02*
X00154499D01*
X00122500Y00141398D02*
X00154499D01*
X00122500Y00140498D02*
X00154499D01*
X00122500Y00139598D02*
X00154499D01*
X00144631Y00159398D02*
X00145368D01*
X00134631D02*
X00135368D01*
X00122500D02*
X00125395D01*
X00122500Y00320498D02*
X00125248D01*
X00122504Y00160298D02*
X00124557D01*
X00122520Y00319598D02*
X00124504D01*
X00123433Y00161198D02*
X00123566D01*
G54D40*
X00280000Y00347500D03*
Y00337500D03*
Y00327500D03*
X00160000Y00347500D03*
Y00337500D03*
Y00327500D03*
X00280000Y00152500D03*
Y00142500D03*
Y00132500D03*
X00160000Y00152500D03*
Y00142500D03*
Y00132500D03*
G54D43*
X00130000Y00314750D02*
Y00315250D01*
X00140000Y00314750D02*
Y00315250D01*
X00130000Y00304750D02*
Y00305250D01*
X00140000Y00304750D02*
Y00305250D01*
X00130000Y00294750D02*
Y00295250D01*
X00140000Y00294750D02*
Y00295250D01*
X00130000Y00284750D02*
Y00285250D01*
X00140000Y00284750D02*
Y00285250D01*
X00130000Y00274750D02*
Y00275250D01*
X00140000Y00274750D02*
Y00275250D01*
X00130000Y00264750D02*
Y00265250D01*
X00140000Y00264750D02*
Y00265250D01*
X00130000Y00254750D02*
Y00255250D01*
X00140000Y00254750D02*
Y00255250D01*
X00130000Y00244750D02*
Y00245250D01*
X00140000Y00244750D02*
Y00245250D01*
X00130000Y00234750D02*
Y00235250D01*
X00140000Y00234750D02*
Y00235250D01*
X00130000Y00224750D02*
Y00225250D01*
X00140000Y00224750D02*
Y00225250D01*
X00130000Y00214750D02*
Y00215250D01*
X00140000Y00214750D02*
Y00215250D01*
X00130000Y00204750D02*
Y00205250D01*
X00140000Y00204750D02*
Y00205250D01*
X00130000Y00194750D02*
Y00195250D01*
X00140000Y00194750D02*
Y00195250D01*
X00130000Y00184750D02*
Y00185250D01*
X00140000Y00184750D02*
Y00185250D01*
X00130000Y00174750D02*
Y00175250D01*
X00140000Y00174750D02*
Y00175250D01*
X00130000Y00164750D02*
Y00165250D01*
X00140000Y00164750D02*
Y00165250D01*
X00150000Y00164750D02*
Y00165250D01*
X00160000Y00164750D02*
Y00165250D01*
X00180000Y00174750D02*
Y00175250D01*
X00190000Y00174750D02*
Y00175250D01*
X00200000Y00174750D02*
Y00175250D01*
X00180000Y00164750D02*
Y00165250D01*
X00190000Y00164750D02*
Y00165250D01*
X00200000Y00164750D02*
Y00165250D01*
X00150000Y00174750D02*
Y00175250D01*
X00160000Y00174750D02*
Y00175250D01*
X00150000Y00184750D02*
Y00185250D01*
X00160000Y00184750D02*
Y00185250D01*
X00150000Y00194750D02*
Y00195250D01*
X00160000Y00194750D02*
Y00195250D01*
X00150000Y00204750D02*
Y00205250D01*
X00160000Y00204750D02*
Y00205250D01*
X00150000Y00214750D02*
Y00215250D01*
X00160000Y00214750D02*
Y00215250D01*
X00150000Y00224750D02*
Y00225250D01*
X00160000Y00224750D02*
Y00225250D01*
X00150000Y00234750D02*
Y00235250D01*
X00160000Y00234750D02*
Y00235250D01*
X00150000Y00244750D02*
Y00245250D01*
X00160000Y00244750D02*
Y00245250D01*
X00150000Y00254750D02*
Y00255250D01*
X00160000Y00254750D02*
Y00255250D01*
X00150000Y00264750D02*
Y00265250D01*
X00160000Y00264750D02*
Y00265250D01*
X00150000Y00274750D02*
Y00275250D01*
X00160000Y00274750D02*
Y00275250D01*
X00150000Y00284750D02*
Y00285250D01*
X00160000Y00284750D02*
Y00285250D01*
X00150000Y00294750D02*
Y00295250D01*
X00160000Y00294750D02*
Y00295250D01*
X00150000Y00304750D02*
Y00305250D01*
X00160000Y00304750D02*
Y00305250D01*
X00150000Y00314750D02*
Y00315250D01*
X00160000Y00314750D02*
Y00315250D01*
X00180000Y00184750D02*
Y00185250D01*
X00190000Y00184750D02*
Y00185250D01*
X00200000Y00184750D02*
Y00185250D01*
X00180000Y00194750D02*
Y00195250D01*
X00190000Y00194750D02*
Y00195250D01*
X00200000Y00194750D02*
Y00195250D01*
X00180000Y00204750D02*
Y00205250D01*
X00190000Y00204750D02*
Y00205250D01*
X00200000Y00204750D02*
Y00205250D01*
X00180000Y00214750D02*
Y00215250D01*
X00190000Y00214750D02*
Y00215250D01*
X00200000Y00214750D02*
Y00215250D01*
X00180000Y00224750D02*
Y00225250D01*
X00190000Y00224750D02*
Y00225250D01*
X00200000Y00224750D02*
Y00225250D01*
X00180000Y00234750D02*
Y00235250D01*
X00190000Y00234750D02*
Y00235250D01*
X00200000Y00234750D02*
Y00235250D01*
X00180000Y00244750D02*
Y00245250D01*
X00190000Y00244750D02*
Y00245250D01*
X00200000Y00244750D02*
Y00245250D01*
X00180000Y00254750D02*
Y00255250D01*
X00190000Y00254750D02*
Y00255250D01*
X00200000Y00254750D02*
Y00255250D01*
X00180000Y00264750D02*
Y00265250D01*
X00190000Y00264750D02*
Y00265250D01*
X00200000Y00264750D02*
Y00265250D01*
X00180000Y00274750D02*
Y00275250D01*
X00190000Y00274750D02*
Y00275250D01*
X00200000Y00274750D02*
Y00275250D01*
X00180000Y00284750D02*
Y00285250D01*
X00190000Y00284750D02*
Y00285250D01*
X00200000Y00284750D02*
Y00285250D01*
X00180000Y00294750D02*
Y00295250D01*
X00190000Y00294750D02*
Y00295250D01*
X00200000Y00294750D02*
Y00295250D01*
X00180000Y00304750D02*
Y00305250D01*
X00190000Y00304750D02*
Y00305250D01*
X00200000Y00304750D02*
Y00305250D01*
X00180000Y00314750D02*
Y00315250D01*
X00190000Y00314750D02*
Y00315250D01*
X00200000Y00314750D02*
Y00315250D01*
X00220000Y00164750D02*
Y00165250D01*
X00230000Y00164750D02*
Y00165250D01*
X00220000Y00174750D02*
Y00175250D01*
X00230000Y00174750D02*
Y00175250D01*
X00220000Y00184750D02*
Y00185250D01*
X00230000Y00184750D02*
Y00185250D01*
X00220000Y00194750D02*
Y00195250D01*
X00230000Y00194750D02*
Y00195250D01*
X00220000Y00204750D02*
Y00205250D01*
X00230000Y00204750D02*
Y00205250D01*
X00220000Y00214750D02*
Y00215250D01*
X00230000Y00214750D02*
Y00215250D01*
X00220000Y00224750D02*
Y00225250D01*
X00230000Y00224750D02*
Y00225250D01*
X00220000Y00234750D02*
Y00235250D01*
X00230000Y00234750D02*
Y00235250D01*
X00220000Y00244750D02*
Y00245250D01*
X00230000Y00244750D02*
Y00245250D01*
X00220000Y00254750D02*
Y00255250D01*
X00230000Y00254750D02*
Y00255250D01*
X00220000Y00264750D02*
Y00265250D01*
X00230000Y00264750D02*
Y00265250D01*
X00220000Y00274750D02*
Y00275250D01*
X00230000Y00274750D02*
Y00275250D01*
X00220000Y00284750D02*
Y00285250D01*
X00230000Y00284750D02*
Y00285250D01*
X00220000Y00294750D02*
Y00295250D01*
X00230000Y00294750D02*
Y00295250D01*
X00220000Y00304750D02*
Y00305250D01*
X00230000Y00304750D02*
Y00305250D01*
X00220000Y00314750D02*
Y00315250D01*
X00230000Y00314750D02*
Y00315250D01*
X00240000Y00164750D02*
Y00165250D01*
X00250000Y00164750D02*
Y00165250D01*
X00240000Y00174750D02*
Y00175250D01*
X00250000Y00174750D02*
Y00175250D01*
X00240000Y00184750D02*
Y00185250D01*
X00250000Y00184750D02*
Y00185250D01*
X00240000Y00194750D02*
Y00195250D01*
X00250000Y00194750D02*
Y00195250D01*
X00240000Y00204750D02*
Y00205250D01*
X00250000Y00204750D02*
Y00205250D01*
X00240000Y00214750D02*
Y00215250D01*
X00250000Y00214750D02*
Y00215250D01*
X00240000Y00224750D02*
Y00225250D01*
X00250000Y00224750D02*
Y00225250D01*
X00240000Y00234750D02*
Y00235250D01*
X00250000Y00234750D02*
Y00235250D01*
X00240000Y00244750D02*
Y00245250D01*
X00250000Y00244750D02*
Y00245250D01*
X00240000Y00254750D02*
Y00255250D01*
X00250000Y00254750D02*
Y00255250D01*
X00240000Y00264750D02*
Y00265250D01*
X00250000Y00264750D02*
Y00265250D01*
X00240000Y00274750D02*
Y00275250D01*
X00250000Y00274750D02*
Y00275250D01*
X00240000Y00284750D02*
Y00285250D01*
X00250000Y00284750D02*
Y00285250D01*
X00240000Y00294750D02*
Y00295250D01*
X00250000Y00294750D02*
Y00295250D01*
X00240000Y00304750D02*
Y00305250D01*
X00250000Y00304750D02*
Y00305250D01*
X00240000Y00314750D02*
Y00315250D01*
X00250000Y00314750D02*
Y00315250D01*
X00280000Y00164750D02*
Y00165250D01*
X00290000Y00164750D02*
Y00165250D01*
X00280000Y00174750D02*
Y00175250D01*
X00290000Y00174750D02*
Y00175250D01*
X00280000Y00184750D02*
Y00185250D01*
X00290000Y00184750D02*
Y00185250D01*
X00280000Y00194750D02*
Y00195250D01*
X00290000Y00194750D02*
Y00195250D01*
X00280000Y00204750D02*
Y00205250D01*
X00290000Y00204750D02*
Y00205250D01*
X00280000Y00214750D02*
Y00215250D01*
X00290000Y00214750D02*
Y00215250D01*
X00280000Y00224750D02*
Y00225250D01*
X00290000Y00224750D02*
Y00225250D01*
X00280000Y00234750D02*
Y00235250D01*
X00290000Y00234750D02*
Y00235250D01*
X00280000Y00244750D02*
Y00245250D01*
X00290000Y00244750D02*
Y00245250D01*
X00280000Y00254750D02*
Y00255250D01*
X00290000Y00254750D02*
Y00255250D01*
X00280000Y00264750D02*
Y00265250D01*
X00290000Y00264750D02*
Y00265250D01*
X00280000Y00274750D02*
Y00275250D01*
X00290000Y00274750D02*
Y00275250D01*
X00280000Y00284750D02*
Y00285250D01*
X00290000Y00284750D02*
Y00285250D01*
X00280000Y00294750D02*
Y00295250D01*
X00290000Y00294750D02*
Y00295250D01*
X00280000Y00304750D02*
Y00305250D01*
X00290000Y00304750D02*
Y00305250D01*
X00280000Y00314750D02*
Y00315250D01*
X00290000Y00314750D02*
Y00315250D01*
X00300000Y00164750D02*
Y00165250D01*
X00310000Y00164750D02*
Y00165250D01*
X00300000Y00174750D02*
Y00175250D01*
X00310000Y00174750D02*
Y00175250D01*
X00300000Y00184750D02*
Y00185250D01*
X00310000Y00184750D02*
Y00185250D01*
X00300000Y00194750D02*
Y00195250D01*
X00310000Y00194750D02*
Y00195250D01*
X00300000Y00204750D02*
Y00205250D01*
X00310000Y00204750D02*
Y00205250D01*
X00300000Y00214750D02*
Y00215250D01*
X00310000Y00214750D02*
Y00215250D01*
X00300000Y00224750D02*
Y00225250D01*
X00310000Y00224750D02*
Y00225250D01*
X00300000Y00234750D02*
Y00235250D01*
X00310000Y00234750D02*
Y00235250D01*
X00300000Y00244750D02*
Y00245250D01*
X00310000Y00244750D02*
Y00245250D01*
X00300000Y00254750D02*
Y00255250D01*
X00310000Y00254750D02*
Y00255250D01*
X00300000Y00264750D02*
Y00265250D01*
X00310000Y00264750D02*
Y00265250D01*
X00300000Y00274750D02*
Y00275250D01*
X00310000Y00274750D02*
Y00275250D01*
X00300000Y00284750D02*
Y00285250D01*
X00310000Y00284750D02*
Y00285250D01*
X00300000Y00294750D02*
Y00295250D01*
X00310000Y00294750D02*
Y00295250D01*
X00300000Y00304750D02*
Y00305250D01*
X00310000Y00304750D02*
Y00305250D01*
X00300000Y00314750D02*
Y00315250D01*
X00310000Y00314750D02*
Y00315250D01*
X00265250Y00285000D02*
X00264750D01*
X00265250Y00295000D02*
X00264750D01*
X00265250Y00305000D02*
X00264750D01*
X00265250Y00315000D02*
X00264750D01*
X00265250Y00245000D02*
X00264750D01*
X00265250Y00255000D02*
X00264750D01*
X00265250Y00265000D02*
X00264750D01*
X00265250Y00275000D02*
X00264750D01*
X00265250Y00205000D02*
X00264750D01*
X00265250Y00215000D02*
X00264750D01*
X00265250Y00225000D02*
X00264750D01*
X00265250Y00235000D02*
X00264750D01*
X00265250Y00165000D02*
X00264750D01*
X00265250Y00175000D02*
X00264750D01*
X00265250Y00185000D02*
X00264750D01*
X00265250Y00195000D02*
X00264750D01*
X00175250Y00337500D02*
X00174750D01*
X00175250Y00347500D02*
X00174750D01*
X00185250Y00337500D02*
X00184750D01*
X00185250Y00347500D02*
X00184750D01*
X00195250Y00337500D02*
X00194750D01*
X00195250Y00347500D02*
X00194750D01*
X00205250Y00337500D02*
X00204750D01*
X00205250Y00347500D02*
X00204750D01*
X00215250Y00337500D02*
X00214750D01*
X00215250Y00347500D02*
X00214750D01*
X00225250Y00337500D02*
X00224750D01*
X00225250Y00347500D02*
X00224750D01*
X00235250Y00337500D02*
X00234750D01*
X00235250Y00347500D02*
X00234750D01*
X00245250Y00337500D02*
X00244750D01*
X00245250Y00347500D02*
X00244750D01*
X00255250Y00337500D02*
X00254750D01*
X00255250Y00347500D02*
X00254750D01*
X00265250Y00337500D02*
X00264750D01*
X00265250Y00347500D02*
X00264750D01*
X00175250Y00132500D02*
X00174750D01*
X00175250Y00142500D02*
X00174750D01*
X00185250Y00132500D02*
X00184750D01*
X00185250Y00142500D02*
X00184750D01*
X00195250Y00132500D02*
X00194750D01*
X00195250Y00142500D02*
X00194750D01*
X00205250Y00132500D02*
X00204750D01*
X00205250Y00142500D02*
X00204750D01*
X00215250Y00132500D02*
X00214750D01*
X00215250Y00142500D02*
X00214750D01*
X00225250Y00132500D02*
X00224750D01*
X00225250Y00142500D02*
X00224750D01*
X00235250Y00132500D02*
X00234750D01*
X00235250Y00142500D02*
X00234750D01*
X00245250Y00132500D02*
X00244750D01*
X00245250Y00142500D02*
X00244750D01*
X00255250Y00132500D02*
X00254750D01*
X00255250Y00142500D02*
X00254750D01*
X00265250Y00132500D02*
X00264750D01*
X00265250Y00142500D02*
X00264750D01*
G74*
X00000000Y00000000D02*
M02*
