G04 #@! TF.FileFunction,Copper,L1,Top,Signal*
%FSLAX46Y46*%
G04 Gerber Fmt 4.6, Leading zero omitted, Abs format (unit mm)*
G04 Created by KiCad (PCBNEW 0.201502191246+5431~21~ubuntu14.04.1-product) date Pá 20. únor 2015, 00:49:54 CET*
%MOMM*%
G01*
G04 APERTURE LIST*
%ADD10C,0.100000*%
%ADD11R,1.651000X1.651000*%
%ADD12C,6.000000*%
%ADD13C,0.889000*%
%ADD14C,0.800000*%
%ADD15C,0.500000*%
%ADD16C,0.400000*%
%ADD17C,0.254000*%
%ADD18C,0.600000*%
%ADD19C,0.300000*%
%ADD20C,0.200000*%
G04 APERTURE END LIST*
D10*
D11*
X3683000Y13208000D03*
X6223000Y13208000D03*
X3683000Y18288000D03*
X3683000Y15748000D03*
X3683000Y10668000D03*
X6223000Y10668000D03*
X6223000Y15748000D03*
X6223000Y18288000D03*
X3683000Y24511000D03*
X6223000Y24511000D03*
X3683000Y29591000D03*
X3683000Y27051000D03*
X3683000Y21971000D03*
X6223000Y21971000D03*
X6223000Y27051000D03*
X6223000Y29591000D03*
X59944000Y6477000D03*
X57404000Y6477000D03*
X54864000Y6477000D03*
X54864000Y3937000D03*
X57404000Y3937000D03*
X59944000Y3937000D03*
X55626000Y34163000D03*
X55626000Y36703000D03*
X50546000Y34163000D03*
X53086000Y34163000D03*
X58166000Y34163000D03*
X58166000Y36703000D03*
X53086000Y36703000D03*
X50546000Y36703000D03*
X64770000Y20828000D03*
X67310000Y28448000D03*
X67310000Y23368000D03*
X64770000Y28448000D03*
X67310000Y18288000D03*
X67310000Y20828000D03*
X67310000Y25908000D03*
X64770000Y18288000D03*
X64770000Y25908000D03*
X64770000Y23368000D03*
D12*
X66040000Y35560000D03*
X66040000Y5080000D03*
X5080000Y5080000D03*
X5080000Y35560000D03*
D11*
X60706000Y34163000D03*
X60706000Y36703000D03*
D13*
X29210000Y14859000D03*
X25781000Y17907000D03*
X25273000Y23876000D03*
X35687000Y5842000D03*
X30734000Y1778000D03*
X38227000Y3810000D03*
X36083240Y3429000D03*
X12446000Y19431000D03*
X17018000Y15367000D03*
X18034000Y5461000D03*
X12319000Y4445000D03*
X12319000Y9144000D03*
X20955000Y38100000D03*
X17526000Y35560000D03*
X12446000Y31115000D03*
X13716000Y25527000D03*
X11176000Y24130000D03*
X9525000Y19304000D03*
X24892000Y25654000D03*
X26289000Y30480000D03*
X26035000Y9017000D03*
X32766000Y11938000D03*
X37973000Y11938000D03*
X24130000Y14351000D03*
X20828000Y14605000D03*
X20320000Y12192000D03*
X16256000Y12700000D03*
X10160000Y15240000D03*
X31140400Y3911600D03*
X33426400Y5359400D03*
X32969200Y2565400D03*
X38227000Y2108200D03*
X38023800Y5842000D03*
X42773600Y11328400D03*
X41402000Y9652000D03*
X43180000Y8382000D03*
X48798480Y26626820D03*
X45653960Y28554680D03*
X32011620Y17416780D03*
X31244540Y23876000D03*
X30827980Y21894800D03*
X31724600Y25986740D03*
X41066720Y15298420D03*
X39913560Y17261840D03*
X36621720Y13738860D03*
X36649660Y15615920D03*
X35783520Y17462500D03*
X42291000Y35052000D03*
X35572700Y27101800D03*
X39880540Y26857960D03*
X43878500Y27139900D03*
X25003760Y4061460D03*
X50419000Y26543000D03*
X48006000Y24638000D03*
X46355000Y27305000D03*
X46609000Y25400000D03*
X49784000Y19558000D03*
X49657000Y25146000D03*
X46736000Y31877000D03*
X42418000Y31623000D03*
X45212000Y34036000D03*
X30317440Y18938240D03*
X47188120Y5171440D03*
X42202100Y5295900D03*
X37421994Y38227000D03*
X59309000Y22098000D03*
X56134000Y26788509D03*
X57404000Y26797000D03*
X46609000Y11430000D03*
X49276000Y15875000D03*
X50927000Y15875000D03*
X53848000Y23368000D03*
X52197000Y23368000D03*
X52197000Y24892000D03*
X52197000Y26670000D03*
X53467000Y25781000D03*
X55245000Y24765000D03*
X57658000Y22860000D03*
X58547000Y19304000D03*
X62484000Y13716000D03*
X66167000Y13716000D03*
X66294000Y10795000D03*
X68707000Y11684000D03*
X54737000Y31623000D03*
X61081920Y30406340D03*
X60639960Y18516600D03*
X60657740Y23210520D03*
X53718460Y16344900D03*
X22606000Y34798000D03*
X22606000Y27178000D03*
X22606000Y13081000D03*
X22606000Y5334000D03*
D14*
X29654499Y14414501D02*
X29210000Y14859000D01*
X32766000Y11938000D02*
X32131000Y11938000D01*
X32131000Y11938000D02*
X29654499Y14414501D01*
D15*
X25781000Y18535617D02*
X25781000Y17907000D01*
X25273000Y23876000D02*
X25781000Y23368000D01*
D14*
X25781000Y17278383D02*
X25781000Y17907000D01*
X24130000Y14351000D02*
X25781000Y16002000D01*
X25781000Y16002000D02*
X25781000Y17278383D01*
D15*
X25781000Y23368000D02*
X25781000Y18535617D01*
X32969200Y2565400D02*
X31521400Y2565400D01*
X31521400Y2565400D02*
X30734000Y1778000D01*
X38227000Y3810000D02*
X38227000Y5638800D01*
X38227000Y5638800D02*
X38023800Y5842000D01*
X17018000Y15367000D02*
X12954000Y19431000D01*
X12954000Y19431000D02*
X12446000Y19431000D01*
X12319000Y4445000D02*
X17018000Y4445000D01*
X17018000Y4445000D02*
X18034000Y5461000D01*
X16256000Y12700000D02*
X12700000Y9144000D01*
X12700000Y9144000D02*
X12319000Y9144000D01*
X17526000Y35560000D02*
X18415000Y35560000D01*
X18415000Y35560000D02*
X20955000Y38100000D01*
X13716000Y25527000D02*
X12446000Y26797000D01*
X12446000Y26797000D02*
X12446000Y31115000D01*
X9525000Y19304000D02*
X11176000Y20955000D01*
X11176000Y20955000D02*
X11176000Y24130000D01*
X24892000Y26282617D02*
X24892000Y25654000D01*
X24892000Y29083000D02*
X24892000Y26282617D01*
X26289000Y30480000D02*
X24892000Y29083000D01*
X24130000Y14351000D02*
X24130000Y10922000D01*
X24130000Y10922000D02*
X26035000Y9017000D01*
D14*
X36621720Y13738860D02*
X36621720Y13289280D01*
X36621720Y13289280D02*
X37973000Y11938000D01*
X20320000Y12192000D02*
X20320000Y14097000D01*
X20320000Y14097000D02*
X20828000Y14605000D01*
X10160000Y15240000D02*
X13716000Y15240000D01*
X13716000Y15240000D02*
X16256000Y12700000D01*
D15*
X32969200Y2565400D02*
X32969200Y4902200D01*
X32969200Y4902200D02*
X33426400Y5359400D01*
X38023800Y5842000D02*
X38023800Y2311400D01*
X38023800Y2311400D02*
X38227000Y2108200D01*
X41402000Y9652000D02*
X41402000Y9956800D01*
X41402000Y9956800D02*
X42773600Y11328400D01*
X43180000Y8382000D02*
X42672000Y8382000D01*
X42672000Y8382000D02*
X41402000Y9652000D01*
D16*
X31724600Y25986740D02*
X31724600Y22791420D01*
X31724600Y22791420D02*
X30827980Y21894800D01*
X39913560Y17261840D02*
X39913560Y16451580D01*
X39913560Y16451580D02*
X41066720Y15298420D01*
X36649660Y15615920D02*
X36649660Y13766800D01*
X36649660Y13766800D02*
X36621720Y13738860D01*
D17*
X43596560Y26857960D02*
X43878500Y27139900D01*
X39880540Y26857960D02*
X43596560Y26857960D01*
D16*
X30615923Y23876000D02*
X31244540Y23876000D01*
X26846563Y23876000D02*
X30615923Y23876000D01*
X25011380Y25711183D02*
X26846563Y23876000D01*
X25011380Y26339800D02*
X25011380Y25711183D01*
D17*
X48798480Y26626820D02*
X48006000Y25834340D01*
X48006000Y25834340D02*
X48006000Y25266617D01*
X48006000Y25266617D02*
X48006000Y24638000D01*
X46355000Y27305000D02*
X46355000Y25654000D01*
X46355000Y25654000D02*
X46609000Y25400000D01*
D18*
X49784000Y19558000D02*
X49784000Y25019000D01*
D17*
X49062640Y25146000D02*
X49657000Y25146000D01*
D18*
X49784000Y25019000D02*
X49657000Y25146000D01*
D17*
X45653960Y28554680D02*
X49062640Y25146000D01*
D15*
X46736000Y31877000D02*
X42672000Y31877000D01*
X42672000Y31877000D02*
X42418000Y31623000D01*
X44767501Y34480499D02*
X45212000Y34036000D01*
X42291000Y35052000D02*
X44196000Y35052000D01*
X44196000Y35052000D02*
X44767501Y34480499D01*
D14*
X30317440Y18938240D02*
X37421994Y26042794D01*
X37421994Y26042794D02*
X37421994Y38227000D01*
X42202100Y5295900D02*
X30317440Y17180560D01*
X30317440Y17180560D02*
X30317440Y18938240D01*
X47188120Y5171440D02*
X42326560Y5171440D01*
X42326560Y5171440D02*
X42202100Y5295900D01*
D18*
X58864501Y21653501D02*
X59309000Y22098000D01*
X58547000Y19304000D02*
X58547000Y21336000D01*
X58547000Y21336000D02*
X58864501Y21653501D01*
D19*
X57395509Y26788509D02*
X57404000Y26797000D01*
X56134000Y26788509D02*
X57395509Y26788509D01*
D18*
X46609000Y13208000D02*
X49276000Y15875000D01*
X46609000Y11430000D02*
X46609000Y13208000D01*
X51371499Y16319499D02*
X51371499Y20637499D01*
X50927000Y15875000D02*
X51371499Y16319499D01*
X53848000Y23114000D02*
X53848000Y23368000D01*
X51371499Y20637499D02*
X53848000Y23114000D01*
X52197000Y23368000D02*
X52197000Y24892000D01*
X52578000Y26670000D02*
X53467000Y25781000D01*
X52197000Y26670000D02*
X52578000Y26670000D01*
X55753000Y24765000D02*
X57658000Y22860000D01*
X55245000Y24765000D02*
X55753000Y24765000D01*
X62484000Y13716000D02*
X66167000Y13716000D01*
X67818000Y10795000D02*
X68707000Y11684000D01*
X66294000Y10795000D02*
X67818000Y10795000D01*
D19*
X53467000Y30353000D02*
X54737000Y31623000D01*
X53467000Y25781000D02*
X53467000Y30353000D01*
D14*
X60657740Y23210520D02*
X60657740Y29982160D01*
X60657740Y29982160D02*
X61081920Y30406340D01*
X60639960Y18516600D02*
X60639960Y23192740D01*
X60639960Y23192740D02*
X60657740Y23210520D01*
X53718460Y16344900D02*
X58468260Y16344900D01*
X58468260Y16344900D02*
X60639960Y18516600D01*
X22606000Y27178000D02*
X22606000Y34798000D01*
X22606000Y13081000D02*
X22606000Y27178000D01*
X22606000Y5334000D02*
X22606000Y13081000D01*
D20*
G36*
X70364000Y756000D02*
X66054316Y756000D01*
X66054316Y17462500D01*
X66054316Y19113500D01*
X66021025Y19285083D01*
X65921961Y19435890D01*
X65772410Y19536838D01*
X65668065Y19557764D01*
X65767083Y19576975D01*
X65917890Y19676039D01*
X66018838Y19825590D01*
X66054316Y20002500D01*
X66054316Y21653500D01*
X66021025Y21825083D01*
X65921961Y21975890D01*
X65772410Y22076838D01*
X65668065Y22097764D01*
X65767083Y22116975D01*
X65917890Y22216039D01*
X66018838Y22365590D01*
X66054316Y22542500D01*
X66054316Y24193500D01*
X66021025Y24365083D01*
X65921961Y24515890D01*
X65772410Y24616838D01*
X65668065Y24637764D01*
X65767083Y24656975D01*
X65917890Y24756039D01*
X66018838Y24905590D01*
X66054316Y25082500D01*
X66054316Y26733500D01*
X66021025Y26905083D01*
X65921961Y27055890D01*
X65772410Y27156838D01*
X65668065Y27177764D01*
X65767083Y27196975D01*
X65917890Y27296039D01*
X66018838Y27445590D01*
X66054316Y27622500D01*
X66054316Y29273500D01*
X66021025Y29445083D01*
X65921961Y29595890D01*
X65772410Y29696838D01*
X65595500Y29732316D01*
X63944500Y29732316D01*
X63772917Y29699025D01*
X63622110Y29599961D01*
X63521162Y29450410D01*
X63485684Y29273500D01*
X63485684Y27622500D01*
X63518975Y27450917D01*
X63618039Y27300110D01*
X63767590Y27199162D01*
X63871934Y27178237D01*
X63772917Y27159025D01*
X63622110Y27059961D01*
X63521162Y26910410D01*
X63485684Y26733500D01*
X63485684Y25082500D01*
X63518975Y24910917D01*
X63618039Y24760110D01*
X63767590Y24659162D01*
X63871934Y24638237D01*
X63772917Y24619025D01*
X63622110Y24519961D01*
X63521162Y24370410D01*
X63485684Y24193500D01*
X63485684Y22542500D01*
X63518975Y22370917D01*
X63618039Y22220110D01*
X63767590Y22119162D01*
X63871934Y22098237D01*
X63772917Y22079025D01*
X63622110Y21979961D01*
X63521162Y21830410D01*
X63485684Y21653500D01*
X63485684Y20002500D01*
X63518975Y19830917D01*
X63618039Y19680110D01*
X63767590Y19579162D01*
X63871934Y19558237D01*
X63772917Y19539025D01*
X63622110Y19439961D01*
X63521162Y19290410D01*
X63485684Y19113500D01*
X63485684Y17462500D01*
X63518975Y17290917D01*
X63618039Y17140110D01*
X63767590Y17039162D01*
X63944500Y17003684D01*
X65595500Y17003684D01*
X65767083Y17036975D01*
X65917890Y17136039D01*
X66018838Y17285590D01*
X66054316Y17462500D01*
X66054316Y756000D01*
X61990316Y756000D01*
X61990316Y33337500D01*
X61990316Y34988500D01*
X61957025Y35160083D01*
X61857961Y35310890D01*
X61708410Y35411838D01*
X61531500Y35447316D01*
X59880500Y35447316D01*
X59708917Y35414025D01*
X59558110Y35314961D01*
X59457162Y35165410D01*
X59436236Y35061066D01*
X59417025Y35160083D01*
X59317961Y35310890D01*
X59168410Y35411838D01*
X59064065Y35432764D01*
X59163083Y35451975D01*
X59313890Y35551039D01*
X59414838Y35700590D01*
X59450316Y35877500D01*
X59450316Y37528500D01*
X59417025Y37700083D01*
X59317961Y37850890D01*
X59168410Y37951838D01*
X58991500Y37987316D01*
X57340500Y37987316D01*
X57168917Y37954025D01*
X57018110Y37854961D01*
X56917162Y37705410D01*
X56896236Y37601066D01*
X56877025Y37700083D01*
X56777961Y37850890D01*
X56628410Y37951838D01*
X56451500Y37987316D01*
X54800500Y37987316D01*
X54628917Y37954025D01*
X54478110Y37854961D01*
X54377162Y37705410D01*
X54356236Y37601066D01*
X54337025Y37700083D01*
X54237961Y37850890D01*
X54088410Y37951838D01*
X53911500Y37987316D01*
X52260500Y37987316D01*
X52088917Y37954025D01*
X51938110Y37854961D01*
X51837162Y37705410D01*
X51816236Y37601066D01*
X51797025Y37700083D01*
X51697961Y37850890D01*
X51548410Y37951838D01*
X51371500Y37987316D01*
X49720500Y37987316D01*
X49548917Y37954025D01*
X49398110Y37854961D01*
X49297162Y37705410D01*
X49261684Y37528500D01*
X49261684Y35877500D01*
X49294975Y35705917D01*
X49394039Y35555110D01*
X49543590Y35454162D01*
X49647934Y35433237D01*
X49548917Y35414025D01*
X49398110Y35314961D01*
X49297162Y35165410D01*
X49261684Y34988500D01*
X49261684Y33337500D01*
X49294975Y33165917D01*
X49394039Y33015110D01*
X49543590Y32914162D01*
X49720500Y32878684D01*
X51371500Y32878684D01*
X51543083Y32911975D01*
X51693890Y33011039D01*
X51794838Y33160590D01*
X51815763Y33264935D01*
X51834975Y33165917D01*
X51934039Y33015110D01*
X52083590Y32914162D01*
X52260500Y32878684D01*
X53911500Y32878684D01*
X54083083Y32911975D01*
X54233890Y33011039D01*
X54334838Y33160590D01*
X54355763Y33264935D01*
X54374975Y33165917D01*
X54474039Y33015110D01*
X54623590Y32914162D01*
X54800500Y32878684D01*
X56451500Y32878684D01*
X56623083Y32911975D01*
X56773890Y33011039D01*
X56874838Y33160590D01*
X56895763Y33264935D01*
X56914975Y33165917D01*
X57014039Y33015110D01*
X57163590Y32914162D01*
X57340500Y32878684D01*
X58991500Y32878684D01*
X59163083Y32911975D01*
X59313890Y33011039D01*
X59414838Y33160590D01*
X59435763Y33264935D01*
X59454975Y33165917D01*
X59554039Y33015110D01*
X59703590Y32914162D01*
X59880500Y32878684D01*
X61531500Y32878684D01*
X61703083Y32911975D01*
X61853890Y33011039D01*
X61954838Y33160590D01*
X61990316Y33337500D01*
X61990316Y756000D01*
X61976575Y756000D01*
X61976575Y30583486D01*
X61840682Y30912371D01*
X61589275Y31164218D01*
X61260628Y31300684D01*
X60904774Y31300995D01*
X60575889Y31165102D01*
X60324042Y30913695D01*
X60279199Y30805702D01*
X60056699Y30583201D01*
X59872442Y30307441D01*
X59807740Y29982160D01*
X59807740Y23496021D01*
X59763396Y23389228D01*
X59763085Y23033374D01*
X59789960Y22968331D01*
X59789960Y18868682D01*
X58116178Y17194900D01*
X54003960Y17194900D01*
X53897168Y17239244D01*
X53541314Y17239555D01*
X53212429Y17103662D01*
X52960582Y16852255D01*
X52824116Y16523608D01*
X52823805Y16167754D01*
X52959698Y15838869D01*
X53211105Y15587022D01*
X53539752Y15450556D01*
X53895606Y15450245D01*
X54003678Y15494900D01*
X58468260Y15494900D01*
X58793541Y15559602D01*
X59069301Y15743859D01*
X61039121Y17713681D01*
X61145991Y17757838D01*
X61397838Y18009245D01*
X61534304Y18337892D01*
X61534615Y18693746D01*
X61489960Y18801818D01*
X61489960Y22882201D01*
X61552084Y23031812D01*
X61552395Y23387666D01*
X61507740Y23495738D01*
X61507740Y29614436D01*
X61587951Y29647578D01*
X61839798Y29898985D01*
X61976264Y30227632D01*
X61976575Y30583486D01*
X61976575Y756000D01*
X58688316Y756000D01*
X58688316Y3111500D01*
X58688316Y4762500D01*
X58655025Y4934083D01*
X58555961Y5084890D01*
X58406410Y5185838D01*
X58302065Y5206764D01*
X58401083Y5225975D01*
X58551890Y5325039D01*
X58652838Y5474590D01*
X58688316Y5651500D01*
X58688316Y7302500D01*
X58655025Y7474083D01*
X58555961Y7624890D01*
X58406410Y7725838D01*
X58229500Y7761316D01*
X56578500Y7761316D01*
X56406917Y7728025D01*
X56256110Y7628961D01*
X56155162Y7479410D01*
X56119684Y7302500D01*
X56119684Y5651500D01*
X56152975Y5479917D01*
X56252039Y5329110D01*
X56401590Y5228162D01*
X56505934Y5207237D01*
X56406917Y5188025D01*
X56256110Y5088961D01*
X56155162Y4939410D01*
X56119684Y4762500D01*
X56119684Y3111500D01*
X56152975Y2939917D01*
X56252039Y2789110D01*
X56401590Y2688162D01*
X56578500Y2652684D01*
X58229500Y2652684D01*
X58401083Y2685975D01*
X58551890Y2785039D01*
X58652838Y2934590D01*
X58688316Y3111500D01*
X58688316Y756000D01*
X44519000Y756000D01*
X44519000Y4321440D01*
X46902619Y4321440D01*
X47009412Y4277096D01*
X47365266Y4276785D01*
X47694151Y4412678D01*
X47945998Y4664085D01*
X48082464Y4992732D01*
X48082775Y5348586D01*
X47946882Y5677471D01*
X47695475Y5929318D01*
X47366828Y6065784D01*
X47010974Y6066095D01*
X46902901Y6021440D01*
X44519000Y6021440D01*
X44519000Y12894604D01*
X50996000Y19371604D01*
X50996000Y24061000D01*
X51504000Y24061000D01*
X51504000Y25273000D01*
X51504000Y32073000D01*
X49462396Y32073000D01*
X46424000Y35111396D01*
X46424000Y39884000D01*
X70364000Y39884000D01*
X70364000Y756000D01*
X70364000Y756000D01*
G37*
X70364000Y756000D02*
X66054316Y756000D01*
X66054316Y17462500D01*
X66054316Y19113500D01*
X66021025Y19285083D01*
X65921961Y19435890D01*
X65772410Y19536838D01*
X65668065Y19557764D01*
X65767083Y19576975D01*
X65917890Y19676039D01*
X66018838Y19825590D01*
X66054316Y20002500D01*
X66054316Y21653500D01*
X66021025Y21825083D01*
X65921961Y21975890D01*
X65772410Y22076838D01*
X65668065Y22097764D01*
X65767083Y22116975D01*
X65917890Y22216039D01*
X66018838Y22365590D01*
X66054316Y22542500D01*
X66054316Y24193500D01*
X66021025Y24365083D01*
X65921961Y24515890D01*
X65772410Y24616838D01*
X65668065Y24637764D01*
X65767083Y24656975D01*
X65917890Y24756039D01*
X66018838Y24905590D01*
X66054316Y25082500D01*
X66054316Y26733500D01*
X66021025Y26905083D01*
X65921961Y27055890D01*
X65772410Y27156838D01*
X65668065Y27177764D01*
X65767083Y27196975D01*
X65917890Y27296039D01*
X66018838Y27445590D01*
X66054316Y27622500D01*
X66054316Y29273500D01*
X66021025Y29445083D01*
X65921961Y29595890D01*
X65772410Y29696838D01*
X65595500Y29732316D01*
X63944500Y29732316D01*
X63772917Y29699025D01*
X63622110Y29599961D01*
X63521162Y29450410D01*
X63485684Y29273500D01*
X63485684Y27622500D01*
X63518975Y27450917D01*
X63618039Y27300110D01*
X63767590Y27199162D01*
X63871934Y27178237D01*
X63772917Y27159025D01*
X63622110Y27059961D01*
X63521162Y26910410D01*
X63485684Y26733500D01*
X63485684Y25082500D01*
X63518975Y24910917D01*
X63618039Y24760110D01*
X63767590Y24659162D01*
X63871934Y24638237D01*
X63772917Y24619025D01*
X63622110Y24519961D01*
X63521162Y24370410D01*
X63485684Y24193500D01*
X63485684Y22542500D01*
X63518975Y22370917D01*
X63618039Y22220110D01*
X63767590Y22119162D01*
X63871934Y22098237D01*
X63772917Y22079025D01*
X63622110Y21979961D01*
X63521162Y21830410D01*
X63485684Y21653500D01*
X63485684Y20002500D01*
X63518975Y19830917D01*
X63618039Y19680110D01*
X63767590Y19579162D01*
X63871934Y19558237D01*
X63772917Y19539025D01*
X63622110Y19439961D01*
X63521162Y19290410D01*
X63485684Y19113500D01*
X63485684Y17462500D01*
X63518975Y17290917D01*
X63618039Y17140110D01*
X63767590Y17039162D01*
X63944500Y17003684D01*
X65595500Y17003684D01*
X65767083Y17036975D01*
X65917890Y17136039D01*
X66018838Y17285590D01*
X66054316Y17462500D01*
X66054316Y756000D01*
X61990316Y756000D01*
X61990316Y33337500D01*
X61990316Y34988500D01*
X61957025Y35160083D01*
X61857961Y35310890D01*
X61708410Y35411838D01*
X61531500Y35447316D01*
X59880500Y35447316D01*
X59708917Y35414025D01*
X59558110Y35314961D01*
X59457162Y35165410D01*
X59436236Y35061066D01*
X59417025Y35160083D01*
X59317961Y35310890D01*
X59168410Y35411838D01*
X59064065Y35432764D01*
X59163083Y35451975D01*
X59313890Y35551039D01*
X59414838Y35700590D01*
X59450316Y35877500D01*
X59450316Y37528500D01*
X59417025Y37700083D01*
X59317961Y37850890D01*
X59168410Y37951838D01*
X58991500Y37987316D01*
X57340500Y37987316D01*
X57168917Y37954025D01*
X57018110Y37854961D01*
X56917162Y37705410D01*
X56896236Y37601066D01*
X56877025Y37700083D01*
X56777961Y37850890D01*
X56628410Y37951838D01*
X56451500Y37987316D01*
X54800500Y37987316D01*
X54628917Y37954025D01*
X54478110Y37854961D01*
X54377162Y37705410D01*
X54356236Y37601066D01*
X54337025Y37700083D01*
X54237961Y37850890D01*
X54088410Y37951838D01*
X53911500Y37987316D01*
X52260500Y37987316D01*
X52088917Y37954025D01*
X51938110Y37854961D01*
X51837162Y37705410D01*
X51816236Y37601066D01*
X51797025Y37700083D01*
X51697961Y37850890D01*
X51548410Y37951838D01*
X51371500Y37987316D01*
X49720500Y37987316D01*
X49548917Y37954025D01*
X49398110Y37854961D01*
X49297162Y37705410D01*
X49261684Y37528500D01*
X49261684Y35877500D01*
X49294975Y35705917D01*
X49394039Y35555110D01*
X49543590Y35454162D01*
X49647934Y35433237D01*
X49548917Y35414025D01*
X49398110Y35314961D01*
X49297162Y35165410D01*
X49261684Y34988500D01*
X49261684Y33337500D01*
X49294975Y33165917D01*
X49394039Y33015110D01*
X49543590Y32914162D01*
X49720500Y32878684D01*
X51371500Y32878684D01*
X51543083Y32911975D01*
X51693890Y33011039D01*
X51794838Y33160590D01*
X51815763Y33264935D01*
X51834975Y33165917D01*
X51934039Y33015110D01*
X52083590Y32914162D01*
X52260500Y32878684D01*
X53911500Y32878684D01*
X54083083Y32911975D01*
X54233890Y33011039D01*
X54334838Y33160590D01*
X54355763Y33264935D01*
X54374975Y33165917D01*
X54474039Y33015110D01*
X54623590Y32914162D01*
X54800500Y32878684D01*
X56451500Y32878684D01*
X56623083Y32911975D01*
X56773890Y33011039D01*
X56874838Y33160590D01*
X56895763Y33264935D01*
X56914975Y33165917D01*
X57014039Y33015110D01*
X57163590Y32914162D01*
X57340500Y32878684D01*
X58991500Y32878684D01*
X59163083Y32911975D01*
X59313890Y33011039D01*
X59414838Y33160590D01*
X59435763Y33264935D01*
X59454975Y33165917D01*
X59554039Y33015110D01*
X59703590Y32914162D01*
X59880500Y32878684D01*
X61531500Y32878684D01*
X61703083Y32911975D01*
X61853890Y33011039D01*
X61954838Y33160590D01*
X61990316Y33337500D01*
X61990316Y756000D01*
X61976575Y756000D01*
X61976575Y30583486D01*
X61840682Y30912371D01*
X61589275Y31164218D01*
X61260628Y31300684D01*
X60904774Y31300995D01*
X60575889Y31165102D01*
X60324042Y30913695D01*
X60279199Y30805702D01*
X60056699Y30583201D01*
X59872442Y30307441D01*
X59807740Y29982160D01*
X59807740Y23496021D01*
X59763396Y23389228D01*
X59763085Y23033374D01*
X59789960Y22968331D01*
X59789960Y18868682D01*
X58116178Y17194900D01*
X54003960Y17194900D01*
X53897168Y17239244D01*
X53541314Y17239555D01*
X53212429Y17103662D01*
X52960582Y16852255D01*
X52824116Y16523608D01*
X52823805Y16167754D01*
X52959698Y15838869D01*
X53211105Y15587022D01*
X53539752Y15450556D01*
X53895606Y15450245D01*
X54003678Y15494900D01*
X58468260Y15494900D01*
X58793541Y15559602D01*
X59069301Y15743859D01*
X61039121Y17713681D01*
X61145991Y17757838D01*
X61397838Y18009245D01*
X61534304Y18337892D01*
X61534615Y18693746D01*
X61489960Y18801818D01*
X61489960Y22882201D01*
X61552084Y23031812D01*
X61552395Y23387666D01*
X61507740Y23495738D01*
X61507740Y29614436D01*
X61587951Y29647578D01*
X61839798Y29898985D01*
X61976264Y30227632D01*
X61976575Y30583486D01*
X61976575Y756000D01*
X58688316Y756000D01*
X58688316Y3111500D01*
X58688316Y4762500D01*
X58655025Y4934083D01*
X58555961Y5084890D01*
X58406410Y5185838D01*
X58302065Y5206764D01*
X58401083Y5225975D01*
X58551890Y5325039D01*
X58652838Y5474590D01*
X58688316Y5651500D01*
X58688316Y7302500D01*
X58655025Y7474083D01*
X58555961Y7624890D01*
X58406410Y7725838D01*
X58229500Y7761316D01*
X56578500Y7761316D01*
X56406917Y7728025D01*
X56256110Y7628961D01*
X56155162Y7479410D01*
X56119684Y7302500D01*
X56119684Y5651500D01*
X56152975Y5479917D01*
X56252039Y5329110D01*
X56401590Y5228162D01*
X56505934Y5207237D01*
X56406917Y5188025D01*
X56256110Y5088961D01*
X56155162Y4939410D01*
X56119684Y4762500D01*
X56119684Y3111500D01*
X56152975Y2939917D01*
X56252039Y2789110D01*
X56401590Y2688162D01*
X56578500Y2652684D01*
X58229500Y2652684D01*
X58401083Y2685975D01*
X58551890Y2785039D01*
X58652838Y2934590D01*
X58688316Y3111500D01*
X58688316Y756000D01*
X44519000Y756000D01*
X44519000Y4321440D01*
X46902619Y4321440D01*
X47009412Y4277096D01*
X47365266Y4276785D01*
X47694151Y4412678D01*
X47945998Y4664085D01*
X48082464Y4992732D01*
X48082775Y5348586D01*
X47946882Y5677471D01*
X47695475Y5929318D01*
X47366828Y6065784D01*
X47010974Y6066095D01*
X46902901Y6021440D01*
X44519000Y6021440D01*
X44519000Y12894604D01*
X50996000Y19371604D01*
X50996000Y24061000D01*
X51504000Y24061000D01*
X51504000Y25273000D01*
X51504000Y32073000D01*
X49462396Y32073000D01*
X46424000Y35111396D01*
X46424000Y39884000D01*
X70364000Y39884000D01*
X70364000Y756000D01*
G36*
X50954000Y24611000D02*
X50446000Y24611000D01*
X50446000Y19599421D01*
X43969000Y13122421D01*
X43969000Y6021440D01*
X42741736Y6021440D01*
X42709455Y6053778D01*
X42601461Y6098621D01*
X31167440Y17532642D01*
X31167440Y18586159D01*
X38023031Y25441751D01*
X38023035Y25441753D01*
X38023035Y25441754D01*
X38207292Y25717513D01*
X38271994Y26042794D01*
X38271995Y26042794D01*
X38271994Y26042799D01*
X38271994Y37941500D01*
X38316338Y38048292D01*
X38316649Y38404146D01*
X38180756Y38733031D01*
X37929349Y38984878D01*
X37600702Y39121344D01*
X37244848Y39121655D01*
X36915963Y38985762D01*
X36664116Y38734355D01*
X36527650Y38405708D01*
X36527339Y38049854D01*
X36571994Y37941781D01*
X36571994Y26394876D01*
X29918277Y19741160D01*
X29811409Y19697002D01*
X29559562Y19445595D01*
X29423096Y19116948D01*
X29422785Y18761094D01*
X29467440Y18653021D01*
X29467440Y17180560D01*
X29532142Y16855279D01*
X29716399Y16579519D01*
X41399180Y4896738D01*
X41443338Y4789869D01*
X41694745Y4538022D01*
X41904039Y4451116D01*
X42001279Y4386142D01*
X42326560Y4321440D01*
X43969000Y4321440D01*
X43969000Y756000D01*
X23500655Y756000D01*
X23500655Y5511146D01*
X23456000Y5619218D01*
X23456000Y12795500D01*
X23500344Y12902292D01*
X23500655Y13258146D01*
X23456000Y13366218D01*
X23456000Y26892500D01*
X23500344Y26999292D01*
X23500655Y27355146D01*
X23456000Y27463218D01*
X23456000Y34512500D01*
X23500344Y34619292D01*
X23500655Y34975146D01*
X23364762Y35304031D01*
X23113355Y35555878D01*
X22784708Y35692344D01*
X22428854Y35692655D01*
X22099969Y35556762D01*
X21848122Y35305355D01*
X21711656Y34976708D01*
X21711345Y34620854D01*
X21756000Y34512781D01*
X21756000Y27463501D01*
X21711656Y27356708D01*
X21711345Y27000854D01*
X21756000Y26892781D01*
X21756000Y13366501D01*
X21711656Y13259708D01*
X21711345Y12903854D01*
X21756000Y12795781D01*
X21756000Y5619501D01*
X21711656Y5512708D01*
X21711345Y5156854D01*
X21847238Y4827969D01*
X22098645Y4576122D01*
X22427292Y4439656D01*
X22783146Y4439345D01*
X23112031Y4575238D01*
X23363878Y4826645D01*
X23500344Y5155292D01*
X23500655Y5511146D01*
X23500655Y756000D01*
X9180710Y756000D01*
X9180710Y5891963D01*
X9180710Y36371963D01*
X8557838Y37879429D01*
X7405496Y39033784D01*
X5899118Y39659287D01*
X4268037Y39660710D01*
X2760571Y39037838D01*
X1606216Y37885496D01*
X980713Y36379118D01*
X979290Y34748037D01*
X1602162Y33240571D01*
X2754504Y32086216D01*
X4260882Y31460713D01*
X5891963Y31459290D01*
X7399429Y32082162D01*
X8553784Y33234504D01*
X9179287Y34740882D01*
X9180710Y36371963D01*
X9180710Y5891963D01*
X8557838Y7399429D01*
X7507316Y8451786D01*
X7507316Y12382500D01*
X7507316Y14033500D01*
X7474025Y14205083D01*
X7374961Y14355890D01*
X7225410Y14456838D01*
X7121065Y14477764D01*
X7220083Y14496975D01*
X7370890Y14596039D01*
X7471838Y14745590D01*
X7507316Y14922500D01*
X7507316Y16573500D01*
X7507316Y23685500D01*
X7507316Y25336500D01*
X7474025Y25508083D01*
X7374961Y25658890D01*
X7225410Y25759838D01*
X7121065Y25780764D01*
X7220083Y25799975D01*
X7370890Y25899039D01*
X7471838Y26048590D01*
X7507316Y26225500D01*
X7507316Y27876500D01*
X7474025Y28048083D01*
X7374961Y28198890D01*
X7225410Y28299838D01*
X7048500Y28335316D01*
X5397500Y28335316D01*
X5225917Y28302025D01*
X5075110Y28202961D01*
X4974162Y28053410D01*
X4953236Y27949066D01*
X4934025Y28048083D01*
X4834961Y28198890D01*
X4685410Y28299838D01*
X4508500Y28335316D01*
X2857500Y28335316D01*
X2685917Y28302025D01*
X2535110Y28202961D01*
X2434162Y28053410D01*
X2398684Y27876500D01*
X2398684Y26225500D01*
X2431975Y26053917D01*
X2531039Y25903110D01*
X2680590Y25802162D01*
X2784934Y25781237D01*
X2685917Y25762025D01*
X2535110Y25662961D01*
X2434162Y25513410D01*
X2398684Y25336500D01*
X2398684Y23685500D01*
X2431975Y23513917D01*
X2531039Y23363110D01*
X2680590Y23262162D01*
X2857500Y23226684D01*
X4508500Y23226684D01*
X4680083Y23259975D01*
X4830890Y23359039D01*
X4931838Y23508590D01*
X4952763Y23612935D01*
X4971975Y23513917D01*
X5071039Y23363110D01*
X5220590Y23262162D01*
X5397500Y23226684D01*
X7048500Y23226684D01*
X7220083Y23259975D01*
X7370890Y23359039D01*
X7471838Y23508590D01*
X7507316Y23685500D01*
X7507316Y16573500D01*
X7474025Y16745083D01*
X7374961Y16895890D01*
X7225410Y16996838D01*
X7048500Y17032316D01*
X5397500Y17032316D01*
X5225917Y16999025D01*
X5075110Y16899961D01*
X4974162Y16750410D01*
X4953236Y16646066D01*
X4934025Y16745083D01*
X4834961Y16895890D01*
X4685410Y16996838D01*
X4508500Y17032316D01*
X2857500Y17032316D01*
X2685917Y16999025D01*
X2535110Y16899961D01*
X2434162Y16750410D01*
X2398684Y16573500D01*
X2398684Y14922500D01*
X2431975Y14750917D01*
X2531039Y14600110D01*
X2680590Y14499162D01*
X2784934Y14478237D01*
X2685917Y14459025D01*
X2535110Y14359961D01*
X2434162Y14210410D01*
X2398684Y14033500D01*
X2398684Y12382500D01*
X2431975Y12210917D01*
X2531039Y12060110D01*
X2680590Y11959162D01*
X2857500Y11923684D01*
X4508500Y11923684D01*
X4680083Y11956975D01*
X4830890Y12056039D01*
X4931838Y12205590D01*
X4952763Y12309935D01*
X4971975Y12210917D01*
X5071039Y12060110D01*
X5220590Y11959162D01*
X5397500Y11923684D01*
X7048500Y11923684D01*
X7220083Y11956975D01*
X7370890Y12056039D01*
X7471838Y12205590D01*
X7507316Y12382500D01*
X7507316Y8451786D01*
X7405496Y8553784D01*
X5899118Y9179287D01*
X4268037Y9180710D01*
X2760571Y8557838D01*
X1606216Y7405496D01*
X980713Y5899118D01*
X979290Y4268037D01*
X1602162Y2760571D01*
X2754504Y1606216D01*
X4260882Y980713D01*
X5891963Y979290D01*
X7399429Y1602162D01*
X8553784Y2754504D01*
X9179287Y4260882D01*
X9180710Y5891963D01*
X9180710Y756000D01*
X756000Y756000D01*
X756000Y39884000D01*
X45874000Y39884000D01*
X45874000Y34883579D01*
X49234579Y31523000D01*
X50954000Y31523000D01*
X50954000Y25273000D01*
X50954000Y24611000D01*
X50954000Y24611000D01*
G37*
X50954000Y24611000D02*
X50446000Y24611000D01*
X50446000Y19599421D01*
X43969000Y13122421D01*
X43969000Y6021440D01*
X42741736Y6021440D01*
X42709455Y6053778D01*
X42601461Y6098621D01*
X31167440Y17532642D01*
X31167440Y18586159D01*
X38023031Y25441751D01*
X38023035Y25441753D01*
X38023035Y25441754D01*
X38207292Y25717513D01*
X38271994Y26042794D01*
X38271995Y26042794D01*
X38271994Y26042799D01*
X38271994Y37941500D01*
X38316338Y38048292D01*
X38316649Y38404146D01*
X38180756Y38733031D01*
X37929349Y38984878D01*
X37600702Y39121344D01*
X37244848Y39121655D01*
X36915963Y38985762D01*
X36664116Y38734355D01*
X36527650Y38405708D01*
X36527339Y38049854D01*
X36571994Y37941781D01*
X36571994Y26394876D01*
X29918277Y19741160D01*
X29811409Y19697002D01*
X29559562Y19445595D01*
X29423096Y19116948D01*
X29422785Y18761094D01*
X29467440Y18653021D01*
X29467440Y17180560D01*
X29532142Y16855279D01*
X29716399Y16579519D01*
X41399180Y4896738D01*
X41443338Y4789869D01*
X41694745Y4538022D01*
X41904039Y4451116D01*
X42001279Y4386142D01*
X42326560Y4321440D01*
X43969000Y4321440D01*
X43969000Y756000D01*
X23500655Y756000D01*
X23500655Y5511146D01*
X23456000Y5619218D01*
X23456000Y12795500D01*
X23500344Y12902292D01*
X23500655Y13258146D01*
X23456000Y13366218D01*
X23456000Y26892500D01*
X23500344Y26999292D01*
X23500655Y27355146D01*
X23456000Y27463218D01*
X23456000Y34512500D01*
X23500344Y34619292D01*
X23500655Y34975146D01*
X23364762Y35304031D01*
X23113355Y35555878D01*
X22784708Y35692344D01*
X22428854Y35692655D01*
X22099969Y35556762D01*
X21848122Y35305355D01*
X21711656Y34976708D01*
X21711345Y34620854D01*
X21756000Y34512781D01*
X21756000Y27463501D01*
X21711656Y27356708D01*
X21711345Y27000854D01*
X21756000Y26892781D01*
X21756000Y13366501D01*
X21711656Y13259708D01*
X21711345Y12903854D01*
X21756000Y12795781D01*
X21756000Y5619501D01*
X21711656Y5512708D01*
X21711345Y5156854D01*
X21847238Y4827969D01*
X22098645Y4576122D01*
X22427292Y4439656D01*
X22783146Y4439345D01*
X23112031Y4575238D01*
X23363878Y4826645D01*
X23500344Y5155292D01*
X23500655Y5511146D01*
X23500655Y756000D01*
X9180710Y756000D01*
X9180710Y5891963D01*
X9180710Y36371963D01*
X8557838Y37879429D01*
X7405496Y39033784D01*
X5899118Y39659287D01*
X4268037Y39660710D01*
X2760571Y39037838D01*
X1606216Y37885496D01*
X980713Y36379118D01*
X979290Y34748037D01*
X1602162Y33240571D01*
X2754504Y32086216D01*
X4260882Y31460713D01*
X5891963Y31459290D01*
X7399429Y32082162D01*
X8553784Y33234504D01*
X9179287Y34740882D01*
X9180710Y36371963D01*
X9180710Y5891963D01*
X8557838Y7399429D01*
X7507316Y8451786D01*
X7507316Y12382500D01*
X7507316Y14033500D01*
X7474025Y14205083D01*
X7374961Y14355890D01*
X7225410Y14456838D01*
X7121065Y14477764D01*
X7220083Y14496975D01*
X7370890Y14596039D01*
X7471838Y14745590D01*
X7507316Y14922500D01*
X7507316Y16573500D01*
X7507316Y23685500D01*
X7507316Y25336500D01*
X7474025Y25508083D01*
X7374961Y25658890D01*
X7225410Y25759838D01*
X7121065Y25780764D01*
X7220083Y25799975D01*
X7370890Y25899039D01*
X7471838Y26048590D01*
X7507316Y26225500D01*
X7507316Y27876500D01*
X7474025Y28048083D01*
X7374961Y28198890D01*
X7225410Y28299838D01*
X7048500Y28335316D01*
X5397500Y28335316D01*
X5225917Y28302025D01*
X5075110Y28202961D01*
X4974162Y28053410D01*
X4953236Y27949066D01*
X4934025Y28048083D01*
X4834961Y28198890D01*
X4685410Y28299838D01*
X4508500Y28335316D01*
X2857500Y28335316D01*
X2685917Y28302025D01*
X2535110Y28202961D01*
X2434162Y28053410D01*
X2398684Y27876500D01*
X2398684Y26225500D01*
X2431975Y26053917D01*
X2531039Y25903110D01*
X2680590Y25802162D01*
X2784934Y25781237D01*
X2685917Y25762025D01*
X2535110Y25662961D01*
X2434162Y25513410D01*
X2398684Y25336500D01*
X2398684Y23685500D01*
X2431975Y23513917D01*
X2531039Y23363110D01*
X2680590Y23262162D01*
X2857500Y23226684D01*
X4508500Y23226684D01*
X4680083Y23259975D01*
X4830890Y23359039D01*
X4931838Y23508590D01*
X4952763Y23612935D01*
X4971975Y23513917D01*
X5071039Y23363110D01*
X5220590Y23262162D01*
X5397500Y23226684D01*
X7048500Y23226684D01*
X7220083Y23259975D01*
X7370890Y23359039D01*
X7471838Y23508590D01*
X7507316Y23685500D01*
X7507316Y16573500D01*
X7474025Y16745083D01*
X7374961Y16895890D01*
X7225410Y16996838D01*
X7048500Y17032316D01*
X5397500Y17032316D01*
X5225917Y16999025D01*
X5075110Y16899961D01*
X4974162Y16750410D01*
X4953236Y16646066D01*
X4934025Y16745083D01*
X4834961Y16895890D01*
X4685410Y16996838D01*
X4508500Y17032316D01*
X2857500Y17032316D01*
X2685917Y16999025D01*
X2535110Y16899961D01*
X2434162Y16750410D01*
X2398684Y16573500D01*
X2398684Y14922500D01*
X2431975Y14750917D01*
X2531039Y14600110D01*
X2680590Y14499162D01*
X2784934Y14478237D01*
X2685917Y14459025D01*
X2535110Y14359961D01*
X2434162Y14210410D01*
X2398684Y14033500D01*
X2398684Y12382500D01*
X2431975Y12210917D01*
X2531039Y12060110D01*
X2680590Y11959162D01*
X2857500Y11923684D01*
X4508500Y11923684D01*
X4680083Y11956975D01*
X4830890Y12056039D01*
X4931838Y12205590D01*
X4952763Y12309935D01*
X4971975Y12210917D01*
X5071039Y12060110D01*
X5220590Y11959162D01*
X5397500Y11923684D01*
X7048500Y11923684D01*
X7220083Y11956975D01*
X7370890Y12056039D01*
X7471838Y12205590D01*
X7507316Y12382500D01*
X7507316Y8451786D01*
X7405496Y8553784D01*
X5899118Y9179287D01*
X4268037Y9180710D01*
X2760571Y8557838D01*
X1606216Y7405496D01*
X980713Y5899118D01*
X979290Y4268037D01*
X1602162Y2760571D01*
X2754504Y1606216D01*
X4260882Y980713D01*
X5891963Y979290D01*
X7399429Y1602162D01*
X8553784Y2754504D01*
X9179287Y4260882D01*
X9180710Y5891963D01*
X9180710Y756000D01*
X756000Y756000D01*
X756000Y39884000D01*
X45874000Y39884000D01*
X45874000Y34883579D01*
X49234579Y31523000D01*
X50954000Y31523000D01*
X50954000Y25273000D01*
X50954000Y24611000D01*
M02*
