<?xml version="1.0" encoding="UTF-8"?>
<!DOCTYPE svg PUBLIC "-//W3C//DTD SVG 1.1//EN" "http://www.w3.org/Graphics/SVG/1.1/DTD/svg11.dtd">
<!-- Creator: CorelDRAW X5 -->
<svg xmlns="http://www.w3.org/2000/svg" xml:space="preserve" width="210mm" height="297mm" style="shape-rendering:geometricPrecision; text-rendering:geometricPrecision; image-rendering:optimizeQuality; fill-rule:evenodd; clip-rule:evenodd"
viewBox="0 0 21000 29700"
 xmlns:xlink="http://www.w3.org/1999/xlink">
 <defs>
  <style type="text/css">
   <![CDATA[
    .fil0 {fill:black}
   ]]>
  </style>
 </defs>
 <g id="Vrstva_x0020_1">
  <metadata id="CorelCorpID_0Corel-Layer"/>
  <g id="_248307120">
   <g>
    <path class="fil0" d="M7675 12517l52 0 0 26 -26 0 0 26 -26 0 0 -52 -26 0 0 -26 26 0 0 -26 -26 0 0 -26 26 0 0 -26 -26 0 0 -26 26 0 0 26 26 0 0 52 26 0 0 -26 26 0 0 26 52 0 0 -26 26 0 0 -26 -52 0 0 26 -26 0 0 -52 52 0 0 -129 26 0 0 26 26 0 0 -26 -26 0 0 -52 26 0 0 -26 26 0 0 -26 -26 0 0 26 -26 0 0 26 -26 0 0 -52 -26 0 0 52 -52 0 0 -26 26 0 0 -26 -103 0 0 26 26 0 0 26 -26 0 0 52 -78 0 0 26 26 0 0 26 -26 0 0 26 26 0 0 26 -78 0 0 -26 -26 0 0 -26 52 0 0 -52 26 0 0 -26 52 0 0 -26 -103 0 0 -26 -26 0 0 -52 26 0 0 52 103 0 0 -26 26 0 0 -26 129 0 0 -78 -26 0 0 52 -26 0 0 -26 -26 0 0 -26 -26 0 0 26 -52 0 0 -26 26 0 0 -52 26 0 0 26 26 0 0 -26 26 0 0 -26 26 0 0 26 -26 0 0 52 26 0 0 -52 26 0 0 -26 26 0 0 -26 26 0 0 -26 26 0 0 -26 26 0 0 26 -26 0 0 52 -52 0 0 26 -26 0 0 52 26 0 0 52 26 0 0 26 78 0 0 26 26 0 0 26 26 0 0 -26 -26 0 0 -26 52 0 0 26 78 0 0 26 52 0 0 26 -78 0 0 26 -26 0 0 -52 -26 0 0 52 26 0 0 52 52 0 0 -26 -26 0 0 -26 78 0 0 52 -26 0 0 26 -26 0 0 26 26 0 0 26 -78 0 0 -26 26 0 0 -26 -26 0 0 26 -26 0 0 -26 -26 0 0 26 -52 0 0 26 -26 0 0 -78 103 0 0 -26 -26 0 0 -52 -52 0 0 52 -26 0 0 26 -26 0 0 26 -26 0 0 78 26 0 0 26 52 0 0 26 -26 0 0 26 -26 0 0 52 26 0 0 -26 26 0 0 52 26 0 0 26 -26 0 0 -26 -26 0 0 26 -26 0 0 -26 -26 0 0 26 -26 0 0 -26 26 0 0 -52 -26 0 0 52 -52 0 0 -52 -78 0 0 26zm466 0l0 26 -26 0 0 -26 26 0zm-233 -26l0 -52 26 0 0 52 -26 0zm233 -52l0 52 -26 0 0 -26 -52 0 0 -26 26 0 0 -26 26 0 0 26 26 0zm-181 -52l78 0 0 78 -78 0 0 -78zm-259 26l0 -26 26 0 0 26 -26 0zm207 -52l26 0 0 26 -26 0 0 -26zm78 -26l0 26 -26 0 0 -26 26 0zm-259 -129l0 26 -26 0 0 26 26 0 0 78 26 0 0 26 -78 0 0 -129 26 0 0 -26 26 0zm-103 129l26 0 0 26 -26 0 0 -26zm181 -129l0 26 -26 0 0 78 -26 0 0 -78 26 0 0 -26 26 0zm-284 0l0 26 26 0 0 26 -26 0 0 -26 -26 0 0 -26 26 0zm-78 -52l26 0 0 26 -26 0 0 -26zm129 -26l52 0 0 26 -52 0 0 -26zm336 0l0 -26 26 0 0 26 -26 0zm-388 -52l0 26 26 0 0 26 -26 0 0 -26 -52 0 0 -26 52 0zm103 0l0 26 -52 0 0 -26 52 0zm233 -52l0 26 26 0 0 26 -26 0 0 26 -26 0 0 -52 -26 0 0 -52 26 0 0 26 26 0zm-103 -155l0 26 -26 0 0 -26 26 0zm-103 26l0 26 -26 0 0 26 26 0 0 52 -26 0 0 52 -78 0 0 26 -26 0 0 -26 -52 0 0 26 -26 0 0 -26 -26 0 0 52 26 0 0 52 -26 0 0 52 52 0 0 26 -52 0 0 52 26 0 0 -26 26 0 0 26 26 0 0 26 -26 0 0 52 -26 0 0 26 52 0 0 -26 26 0 0 26 103 0 0 78 26 0 0 26 -26 0 0 52 26 0 0 26 -26 0 0 26 26 0 0 -26 26 0 0 26 78 0 0 -26 26 0 0 26 181 0 0 -52 -26 0 0 -52 103 0 0 26 -26 0 0 26 -26 0 0 52 26 0 0 -26 26 0 0 -52 52 0 0 26 -26 0 0 52 26 0 0 -52 26 0 0 52 26 0 0 -52 26 0 0 -26 -26 0 0 -26 26 0 0 -52 -26 0 0 -26 26 0 0 -26 -52 0 0 -78 26 0 0 -78 26 0 0 -52 -52 0 0 -26 -26 0 0 -26 52 0 0 26 26 0 0 -26 -26 0 0 -26 26 0 0 -52 -52 0 0 26 26 0 0 26 -52 0 0 26 -78 0 0 -26 52 0 0 -26 26 0 0 -26 -26 0 0 26 -52 0 0 -26 -26 0 0 26 -52 0 0 -26 -26 0 0 -52 26 0 0 26 26 0 0 -52 -26 0 0 -26 26 0 0 -26 -26 0 0 26 -26 0 0 52 -26 0 0 26 -26 0 0 -52 26 0 0 -52 26 0 0 -52 26 0 0 26 26 0 0 -52 -103 0 0 52 -26 0 0 26 -26 0 0 26 -26 0 0 26 -26 0 0 -26 -103 0 0 -26 52 0 0 -26 26 0 0 26 26 0 0 -26 52 0 0 -26 26 0 0 -26 -52 0 0 26 -26 0 0 -26 -26 0 0 26 -26 0 0 26 -52 0 0 -26 26 0 0 -26 -52 0 0 52 26 0z"/>
    <path class="fil0" d="M7443 11870l129 0 0 129 -129 0 0 -129zm-26 155l181 0 0 -181 -181 0 0 181z"/>
    <path class="fil0" d="M8012 11870l129 0 0 129 -129 0 0 -129zm-26 155l181 0 0 -181 -181 0 0 181z"/>
    <path class="fil0" d="M7443 12439l129 0 0 129 -129 0 0 -129zm-26 155l181 0 0 -181 -181 0 0 181z"/>
    <polygon class="fil0" points="7468,11974 7546,11974 7546,11896 7468,11896 "/>
    <polygon class="fil0" points="8037,11974 8115,11974 8115,11896 8037,11896 "/>
    <polygon class="fil0" points="7468,12543 7546,12543 7546,12465 7468,12465 "/>
    <polygon class="fil0" points="7417,12336 7443,12336 7443,12310 7417,12310 "/>
    <polygon class="fil0" points="7986,12439 8012,12439 8012,12414 7986,12414 "/>
   </g>
  </g>
 </g>
</svg>
