G75*
%MOIN*%
%OFA0B0*%
%FSLAX24Y24*%
%IPPOS*%
%LPD*%
%AMOC8*
5,1,8,0,0,1.08239X$1,22.5*
%
%ADD10R,0.0395X0.0789*%
%ADD11R,0.0300X0.0860*%
%ADD12C,0.0642*%
%ADD13C,0.1580*%
%ADD14R,0.0730X0.0730*%
%ADD15R,0.0828X0.1419*%
%ADD16R,0.0592X0.0671*%
%ADD17R,0.0590X0.0470*%
%ADD18R,0.1080X0.0630*%
%ADD19R,0.0671X0.0493*%
%ADD20C,0.1143*%
%ADD21R,0.0671X0.0592*%
%ADD22C,0.1084*%
%ADD23C,0.0966*%
%ADD24R,0.0631X0.0474*%
%ADD25C,0.2620*%
%ADD26R,0.0470X0.0590*%
%ADD27R,0.0789X0.0749*%
%ADD28R,0.0671X0.0907*%
%ADD29OC8,0.0710*%
%ADD30C,0.0710*%
%ADD31R,0.0789X0.0631*%
D10*
X014546Y004978D03*
X014979Y004978D03*
X015412Y004978D03*
X015845Y004978D03*
X016278Y004978D03*
X016711Y004978D03*
X018207Y004978D03*
X018640Y004978D03*
X019073Y004978D03*
X019506Y004978D03*
X019939Y004978D03*
X020372Y004978D03*
X020805Y004978D03*
X021238Y004978D03*
X021238Y011592D03*
X020805Y011592D03*
X020372Y011592D03*
X019939Y011592D03*
X019506Y011592D03*
X019073Y011592D03*
X018640Y011592D03*
X018207Y011592D03*
X016711Y011592D03*
X016278Y011592D03*
X015845Y011592D03*
X015412Y011592D03*
X014979Y011592D03*
X014546Y011592D03*
D11*
X029983Y009580D03*
X030483Y009580D03*
X030983Y009580D03*
X031483Y009580D03*
X031483Y007640D03*
X030983Y007640D03*
X030483Y007640D03*
X029983Y007640D03*
D12*
X027645Y007793D03*
X026858Y007793D03*
X026858Y008777D03*
X027645Y008777D03*
D13*
X028708Y010647D03*
X028708Y005923D03*
D14*
X025708Y002785D03*
X024708Y002785D03*
X023708Y002785D03*
X022708Y002785D03*
X021708Y002785D03*
X020708Y002785D03*
X019708Y002785D03*
X018708Y002785D03*
X018708Y001785D03*
X019708Y001785D03*
X020708Y001785D03*
X021708Y001785D03*
X022708Y001785D03*
X023708Y001785D03*
X024708Y001785D03*
X025708Y001785D03*
X017333Y001785D03*
X016333Y001785D03*
X016333Y002785D03*
X017333Y002785D03*
X013833Y002785D03*
X013833Y001785D03*
X023708Y007410D03*
X023708Y008410D03*
X026708Y012035D03*
X027708Y012035D03*
X028708Y012035D03*
X028708Y013785D03*
X027708Y013785D03*
X026708Y013785D03*
X026708Y014785D03*
X027708Y014785D03*
X028708Y014785D03*
X025433Y013885D03*
X024433Y013885D03*
X023433Y013885D03*
X022233Y013785D03*
X021233Y013785D03*
X020233Y013785D03*
X020233Y014785D03*
X021233Y014785D03*
X022233Y014785D03*
X018883Y014785D03*
X017883Y014785D03*
X016883Y014785D03*
X016883Y013785D03*
X017883Y013785D03*
X018883Y013785D03*
X015333Y014285D03*
X014333Y014285D03*
X013333Y014285D03*
D15*
X024065Y012360D03*
X025601Y012360D03*
D16*
X025957Y007785D03*
X025209Y007785D03*
X025209Y006910D03*
X025957Y006910D03*
X021707Y003910D03*
X020959Y003910D03*
X016207Y012660D03*
X015459Y012660D03*
D17*
X030958Y011909D03*
X030958Y011161D03*
D18*
X031083Y006685D03*
X031083Y005385D03*
D19*
X028458Y004447D03*
X027033Y004447D03*
X027033Y002873D03*
X028458Y002873D03*
D20*
X028458Y003660D03*
X027033Y003660D03*
D21*
X027208Y005286D03*
X027208Y006034D03*
X026333Y006034D03*
X026333Y005286D03*
X023708Y005411D03*
X023708Y006159D03*
X022458Y004534D03*
X022458Y003786D03*
X012783Y002459D03*
X012783Y001711D03*
D22*
X012208Y009785D03*
X010208Y009785D03*
X010208Y011785D03*
X012208Y011785D03*
D23*
X011208Y010785D03*
D24*
X024525Y006159D03*
X025391Y005785D03*
X024525Y005411D03*
D25*
X010833Y002285D03*
X010833Y014285D03*
X030833Y014285D03*
X030833Y002285D03*
D26*
X018082Y003910D03*
X017334Y003910D03*
X024459Y014785D03*
X025207Y014785D03*
D27*
X025690Y011135D03*
X024076Y011135D03*
D28*
X025189Y009685D03*
X025977Y009685D03*
D29*
X011233Y006085D03*
D30*
X011233Y004685D03*
D31*
X012383Y004754D03*
X012383Y003416D03*
M02*
