G75*
G70*
%OFA0B0*%
%FSLAX24Y24*%
%IPPOS*%
%LPD*%
%AMOC8*
5,1,8,0,0,1.08239X$1,22.5*
%
%ADD10C,0.0000*%
%ADD11C,0.0060*%
%ADD12C,0.0040*%
%ADD13C,0.0050*%
%ADD14C,0.0120*%
%ADD15R,0.0200X0.0200*%
D10*
X000751Y004496D02*
X020672Y004496D01*
X020672Y024417D01*
X000751Y024417D01*
X000751Y004496D01*
D11*
X007836Y020791D02*
X007836Y020577D01*
X007943Y020471D01*
X008370Y020471D01*
X008476Y020577D01*
X008476Y020791D01*
X008370Y020898D01*
X007943Y020898D01*
X007836Y020791D01*
X007836Y021115D02*
X008370Y021115D01*
X008476Y021222D01*
X008476Y021435D01*
X008370Y021542D01*
X007836Y021542D01*
X007836Y021973D02*
X008476Y021973D01*
X007836Y021760D02*
X007836Y022187D01*
X008476Y022831D02*
X008476Y022404D01*
X008049Y022831D01*
X007943Y022831D01*
X007836Y022724D01*
X007836Y022511D01*
X007943Y022404D01*
X008476Y023049D02*
X008049Y023049D01*
X007836Y023262D01*
X008049Y023476D01*
X008476Y023476D01*
X008156Y023476D02*
X008156Y023049D01*
X012954Y020791D02*
X012954Y020577D01*
X013061Y020471D01*
X013488Y020471D01*
X013595Y020577D01*
X013595Y020791D01*
X013488Y020898D01*
X013061Y020898D01*
X012954Y020791D01*
X012954Y021115D02*
X013488Y021115D01*
X013595Y021222D01*
X013595Y021435D01*
X013488Y021542D01*
X012954Y021542D01*
X012954Y021973D02*
X013595Y021973D01*
X012954Y021760D02*
X012954Y022187D01*
X013168Y022404D02*
X012954Y022618D01*
X013595Y022618D01*
X013595Y022831D02*
X013595Y022404D01*
X013595Y023049D02*
X013168Y023049D01*
X012954Y023262D01*
X013168Y023476D01*
X013595Y023476D01*
X013274Y023476D02*
X013274Y023049D01*
X007915Y004964D02*
X007915Y004751D01*
X008021Y004644D01*
X008448Y004644D01*
X008555Y004751D01*
X008555Y004964D01*
X008448Y005071D01*
X008021Y005071D01*
X007915Y004964D01*
X007915Y005288D02*
X008448Y005288D01*
X008555Y005395D01*
X008555Y005609D01*
X008448Y005715D01*
X007915Y005715D01*
X007915Y006146D02*
X008555Y006146D01*
X007915Y005933D02*
X007915Y006360D01*
X008555Y007004D02*
X008555Y006577D01*
X008128Y007004D01*
X008021Y007004D01*
X007915Y006898D01*
X007915Y006684D01*
X008021Y006577D01*
X008555Y007222D02*
X007915Y007222D01*
X007915Y007542D01*
X008021Y007649D01*
X008128Y007649D01*
X008235Y007542D01*
X008342Y007649D01*
X008448Y007649D01*
X008555Y007542D01*
X008555Y007222D01*
X008235Y007222D02*
X008235Y007542D01*
X012875Y004964D02*
X012875Y004751D01*
X012982Y004644D01*
X013409Y004644D01*
X013516Y004751D01*
X013516Y004964D01*
X013409Y005071D01*
X012982Y005071D01*
X012875Y004964D01*
X012875Y005288D02*
X013409Y005288D01*
X013516Y005395D01*
X013516Y005609D01*
X013409Y005715D01*
X012875Y005715D01*
X012875Y006146D02*
X013516Y006146D01*
X012875Y005933D02*
X012875Y006360D01*
X013089Y006577D02*
X012875Y006791D01*
X013516Y006791D01*
X013516Y007004D02*
X013516Y006577D01*
X013516Y007222D02*
X012875Y007222D01*
X012875Y007542D01*
X012982Y007649D01*
X013089Y007649D01*
X013196Y007542D01*
X013302Y007649D01*
X013409Y007649D01*
X013516Y007542D01*
X013516Y007222D01*
X013196Y007222D02*
X013196Y007542D01*
X020287Y008660D02*
X019647Y008660D01*
X019647Y008980D01*
X019754Y009087D01*
X019967Y009087D01*
X020074Y008980D01*
X020074Y008660D01*
X019647Y009624D02*
X019647Y009411D01*
X019754Y009304D01*
X020181Y009304D01*
X020287Y009411D01*
X020287Y009624D01*
X020181Y009731D01*
X019754Y009731D01*
X019647Y009624D01*
X019647Y009949D02*
X020287Y009949D01*
X020074Y010162D01*
X020287Y010376D01*
X019647Y010376D01*
X019647Y011020D02*
X019647Y010593D01*
X020287Y010593D01*
X020287Y011020D01*
X019967Y010807D02*
X019967Y010593D01*
X020287Y011238D02*
X019647Y011238D01*
X019647Y011558D01*
X019754Y011665D01*
X019967Y011665D01*
X020074Y011558D01*
X020074Y011238D01*
X020074Y011451D02*
X020287Y011665D01*
X019675Y017118D02*
X019568Y017011D01*
X019568Y016798D01*
X019675Y016691D01*
X020102Y016691D01*
X020209Y016798D01*
X020209Y017011D01*
X020102Y017118D01*
X019888Y017118D01*
X019888Y016905D01*
X020209Y017336D02*
X019568Y017336D01*
X020209Y017763D01*
X019568Y017763D01*
X019568Y017980D02*
X020209Y017980D01*
X020209Y018300D01*
X020102Y018407D01*
X019675Y018407D01*
X019568Y018300D01*
X019568Y017980D01*
X004284Y005065D02*
X004391Y004959D01*
X004498Y004959D01*
X004605Y005065D01*
X004605Y005599D01*
X004498Y005599D02*
X004712Y005599D01*
X004929Y004959D02*
X004929Y005386D01*
X005143Y005599D01*
X005356Y005386D01*
X005356Y004959D01*
X005356Y005279D02*
X004929Y005279D01*
X006001Y005493D02*
X005894Y005599D01*
X005680Y005599D01*
X005574Y005493D01*
X005574Y005065D01*
X005680Y004959D01*
X005894Y004959D01*
X006001Y005065D01*
X006218Y004959D02*
X006218Y005599D01*
X006218Y005279D02*
X006645Y005279D01*
X006645Y005599D02*
X006645Y004959D01*
X007183Y005599D02*
X006969Y005599D01*
X006863Y005493D01*
X006863Y005065D01*
X006969Y004959D01*
X007183Y004959D01*
X007290Y005065D01*
X007290Y005493D01*
X007183Y005599D01*
X015184Y004801D02*
X014757Y004801D01*
X015184Y005228D01*
X015184Y005335D01*
X015077Y005442D01*
X014864Y005442D01*
X014757Y005335D01*
X015401Y004908D02*
X015401Y005335D01*
X015508Y005442D01*
X015722Y005442D01*
X015829Y005335D01*
X015829Y004908D01*
X015722Y004801D01*
X015508Y004801D01*
X015401Y004908D01*
X015829Y005335D01*
X016046Y005228D02*
X016260Y005442D01*
X016260Y004801D01*
X016473Y004801D02*
X016046Y004801D01*
X017118Y004801D02*
X016691Y004801D01*
X017118Y005228D01*
X017118Y005335D01*
X017011Y005442D01*
X016797Y005442D01*
X016691Y005335D01*
X003961Y009775D02*
X004461Y009775D01*
X004711Y009525D01*
X004961Y009775D01*
X005461Y009775D01*
X005711Y009525D01*
X003961Y009775D02*
X003711Y009525D01*
X005711Y009525D02*
X005961Y009775D01*
X006461Y009775D01*
X006711Y009525D01*
X007461Y009775D02*
X006961Y009775D01*
X006711Y009525D01*
X007461Y009775D02*
X007711Y009525D01*
X007711Y008025D01*
X004711Y008025D02*
X004461Y007775D01*
X005711Y008025D02*
X005461Y007775D01*
X004961Y007775D01*
X004711Y008025D01*
X003711Y009525D02*
X003711Y008025D01*
X003961Y007775D01*
X004461Y007775D01*
X006711Y008025D02*
X006461Y007775D01*
X005961Y007775D01*
X005711Y008025D01*
X006711Y008025D02*
X006961Y007775D01*
X007461Y007775D01*
X007711Y008025D01*
X014217Y016476D02*
X013717Y016476D01*
X013467Y016726D01*
X013467Y017226D02*
X013717Y017476D01*
X013467Y016726D02*
X013217Y016476D01*
X012717Y016476D01*
X012467Y016726D01*
X012467Y017226D02*
X012717Y017476D01*
X013217Y017476D01*
X013467Y017226D01*
X014467Y017226D02*
X014467Y016726D01*
X014217Y016476D01*
X014467Y017226D02*
X014217Y017476D01*
X013717Y017476D01*
X012467Y017226D02*
X012467Y016726D01*
X013337Y015836D02*
X013337Y015336D01*
X013087Y015086D01*
X012587Y015086D02*
X012337Y015336D01*
X013087Y015086D02*
X013337Y014836D01*
X013337Y014336D01*
X013087Y014086D01*
X012587Y014086D02*
X012337Y014336D01*
X012337Y014836D01*
X012587Y015086D01*
X012587Y016086D02*
X013087Y016086D01*
X013337Y015836D01*
X012587Y016086D02*
X012337Y015836D01*
X012337Y015336D01*
X012587Y014086D02*
X013087Y014086D01*
X014028Y020389D02*
X014528Y020389D01*
X014778Y020139D01*
X014778Y019639D02*
X014528Y019389D01*
X014778Y020139D02*
X015028Y020389D01*
X015528Y020389D01*
X015778Y020139D01*
X015778Y019639D02*
X015528Y019389D01*
X015028Y019389D01*
X014778Y019639D01*
X013778Y019639D02*
X013778Y020139D01*
X014028Y020389D01*
X013778Y019639D02*
X014028Y019389D01*
X014528Y019389D01*
X015778Y020139D02*
X016028Y020389D01*
X016528Y020389D01*
X016778Y020139D01*
X016778Y019639D02*
X016528Y019389D01*
X016028Y019389D01*
X015778Y019639D01*
X016778Y019639D02*
X016778Y020139D01*
X017441Y020417D02*
X017941Y020417D01*
X018191Y020167D01*
X018441Y020417D01*
X018941Y020417D01*
X019191Y020167D01*
X017441Y020417D02*
X017191Y020167D01*
X019191Y020167D02*
X019191Y018667D01*
X018191Y018667D02*
X017941Y018417D01*
X019191Y018667D02*
X018941Y018417D01*
X018441Y018417D01*
X018191Y018667D01*
X017191Y020167D02*
X017191Y018667D01*
X017441Y018417D01*
X017941Y018417D01*
X004231Y012950D02*
X004231Y012450D01*
X003981Y012200D01*
X004231Y011950D01*
X004231Y011450D01*
X003981Y011200D01*
X004231Y012950D02*
X003981Y013200D01*
X003981Y011200D02*
X004231Y010950D01*
X004231Y010450D01*
X003981Y010200D01*
X002481Y010200D01*
X002481Y012200D02*
X002231Y012450D01*
X002481Y011200D02*
X002231Y011450D01*
X002231Y011950D01*
X002481Y012200D01*
X003981Y013200D02*
X002481Y013200D01*
X002231Y012950D01*
X002231Y012450D01*
X002481Y010200D02*
X002231Y010450D01*
X002231Y010950D01*
X002481Y011200D01*
X004231Y018175D02*
X004231Y017675D01*
X003981Y017425D01*
X004231Y017175D01*
X004231Y016675D01*
X003981Y016425D01*
X004231Y018175D02*
X003981Y018425D01*
X003981Y016425D02*
X004231Y016175D01*
X004231Y015675D01*
X003981Y015425D01*
X004231Y014675D02*
X004231Y015175D01*
X003981Y015425D01*
X004231Y014675D02*
X003981Y014425D01*
X002481Y014425D01*
X002481Y017425D02*
X002231Y017675D01*
X002481Y016425D02*
X002231Y016675D01*
X002231Y017175D01*
X002481Y017425D01*
X003981Y018425D02*
X002481Y018425D01*
X002231Y018175D01*
X002231Y017675D01*
X002481Y015425D02*
X002231Y015675D01*
X002231Y016175D01*
X002481Y016425D01*
X002481Y015425D02*
X002231Y015175D01*
X002231Y014675D01*
X002481Y014425D01*
X015394Y011047D02*
X015894Y011047D01*
X016144Y010797D01*
X016394Y011047D01*
X016894Y011047D01*
X017144Y010797D01*
X015394Y011047D02*
X015144Y010797D01*
X017144Y010797D02*
X017144Y009297D01*
X016144Y009297D02*
X015894Y009047D01*
X017144Y009297D02*
X016894Y009047D01*
X016394Y009047D01*
X016144Y009297D01*
X015144Y010797D02*
X015144Y009297D01*
X015394Y009047D01*
X015894Y009047D01*
D12*
X003221Y008169D02*
X003144Y008092D01*
X003144Y007939D01*
X003221Y007862D01*
X003528Y007862D01*
X003605Y007939D01*
X003605Y008092D01*
X003528Y008169D01*
X003221Y008629D02*
X003144Y008553D01*
X003144Y008399D01*
X003221Y008323D01*
X003298Y008323D01*
X003374Y008399D01*
X003374Y008553D01*
X003451Y008629D01*
X003528Y008629D01*
X003605Y008553D01*
X003605Y008399D01*
X003528Y008323D01*
X005032Y006752D02*
X004955Y006675D01*
X004955Y006522D01*
X005032Y006445D01*
X005109Y006445D01*
X005185Y006522D01*
X005185Y006675D01*
X005262Y006752D01*
X005339Y006752D01*
X005416Y006675D01*
X005416Y006522D01*
X005339Y006445D01*
X004955Y006905D02*
X005416Y006905D01*
X005416Y007135D01*
X005339Y007212D01*
X005032Y007212D01*
X004955Y007135D01*
X004955Y006905D01*
X005416Y007366D02*
X005416Y007519D01*
X005416Y007442D02*
X004955Y007442D01*
X004955Y007366D02*
X004955Y007519D01*
X005977Y006437D02*
X005900Y006360D01*
X005900Y006207D01*
X005977Y006130D01*
X006054Y006130D01*
X006130Y006207D01*
X006130Y006360D01*
X006207Y006437D01*
X006284Y006437D01*
X006360Y006360D01*
X006360Y006207D01*
X006284Y006130D01*
X005900Y006590D02*
X006360Y006590D01*
X006360Y006820D01*
X006284Y006897D01*
X005977Y006897D01*
X005900Y006820D01*
X005900Y006590D01*
X005900Y007281D02*
X005900Y007127D01*
X005977Y007051D01*
X006284Y007051D01*
X006360Y007127D01*
X006360Y007281D01*
X006284Y007358D01*
X005977Y007358D01*
X005900Y007281D01*
X007079Y006909D02*
X007002Y006832D01*
X007002Y006679D01*
X007079Y006602D01*
X007386Y006602D01*
X007463Y006679D01*
X007463Y006832D01*
X007386Y006909D01*
X007463Y007063D02*
X007002Y007063D01*
X007309Y007063D02*
X007002Y007370D01*
X007233Y007139D02*
X007463Y007370D01*
X004818Y018088D02*
X004741Y018165D01*
X004587Y018165D01*
X004511Y018088D01*
X004511Y018012D01*
X004587Y017935D01*
X004741Y017935D01*
X004818Y017858D01*
X004818Y017781D01*
X004741Y017705D01*
X004587Y017705D01*
X004511Y017781D01*
X005125Y017705D02*
X005125Y018165D01*
X005278Y018165D02*
X004971Y018165D01*
X005431Y017705D02*
X005431Y018165D01*
X005662Y018165D01*
X005738Y018088D01*
X005738Y018012D01*
X005662Y017935D01*
X005738Y017858D01*
X005738Y017781D01*
X005662Y017705D01*
X005431Y017705D01*
X005431Y017935D02*
X005662Y017935D01*
X005892Y018165D02*
X005892Y018088D01*
X006045Y017935D01*
X006199Y018088D01*
X006199Y018165D01*
X006045Y017935D02*
X006045Y017705D01*
X006352Y017705D02*
X006659Y018165D01*
X006813Y017705D02*
X006813Y018165D01*
X007043Y018165D01*
X007120Y018088D01*
X007120Y017935D01*
X007043Y017858D01*
X006813Y017858D01*
X006966Y017858D02*
X007120Y017705D01*
X007580Y018165D02*
X007273Y018165D01*
X007273Y017705D01*
X007580Y017705D01*
X007427Y017935D02*
X007273Y017935D01*
X008040Y018088D02*
X007964Y018165D01*
X007810Y018165D01*
X007733Y018088D01*
X007733Y018012D01*
X007810Y017935D01*
X007964Y017935D01*
X008040Y017858D01*
X008040Y017781D01*
X007964Y017705D01*
X007810Y017705D01*
X007733Y017781D01*
X004818Y017143D02*
X004741Y017220D01*
X004587Y017220D01*
X004511Y017143D01*
X004511Y017067D01*
X004587Y016990D01*
X004741Y016990D01*
X004818Y016913D01*
X004818Y016836D01*
X004741Y016760D01*
X004587Y016760D01*
X004511Y016836D01*
X005125Y016760D02*
X005125Y017220D01*
X005278Y017220D02*
X004971Y017220D01*
X005738Y017143D02*
X005662Y017220D01*
X005508Y017220D01*
X005431Y017143D01*
X005431Y016836D01*
X005508Y016760D01*
X005662Y016760D01*
X005738Y016836D01*
X005892Y016760D02*
X005892Y017220D01*
X005892Y016913D02*
X006199Y017220D01*
X005969Y016990D02*
X006199Y016760D01*
X004511Y015736D02*
X004511Y016197D01*
X004818Y016197D01*
X004664Y015966D02*
X004511Y015966D01*
X004971Y016197D02*
X004971Y015736D01*
X005278Y015736D01*
X005431Y015736D02*
X005431Y016043D01*
X005585Y016197D01*
X005738Y016043D01*
X005738Y015736D01*
X005738Y015966D02*
X005431Y015966D01*
X006199Y016120D02*
X006122Y016197D01*
X005969Y016197D01*
X005892Y016120D01*
X005892Y015813D01*
X005969Y015736D01*
X006122Y015736D01*
X006199Y015813D01*
X006199Y015966D01*
X006045Y015966D01*
X004818Y015096D02*
X004741Y015173D01*
X004587Y015173D01*
X004511Y015096D01*
X004511Y015019D01*
X004587Y014943D01*
X004741Y014943D01*
X004818Y014866D01*
X004818Y014789D01*
X004741Y014713D01*
X004587Y014713D01*
X004511Y014789D01*
X005125Y014713D02*
X005125Y015173D01*
X005278Y015173D02*
X004971Y015173D01*
X005431Y014713D02*
X005431Y015173D01*
X005662Y015173D01*
X005738Y015096D01*
X005738Y015019D01*
X005662Y014943D01*
X005738Y014866D01*
X005738Y014789D01*
X005662Y014713D01*
X005431Y014713D01*
X005431Y014943D02*
X005662Y014943D01*
X005892Y015173D02*
X005892Y015096D01*
X006045Y014943D01*
X006199Y015096D01*
X006199Y015173D01*
X006045Y014943D02*
X006045Y014713D01*
X006352Y014713D02*
X006659Y015173D01*
X006813Y014713D02*
X006813Y015173D01*
X007043Y015173D01*
X007120Y015096D01*
X007120Y014943D01*
X007043Y014866D01*
X006813Y014866D01*
X006966Y014866D02*
X007120Y014713D01*
X007580Y015173D02*
X007273Y015173D01*
X007273Y014713D01*
X007580Y014713D01*
X007427Y014943D02*
X007273Y014943D01*
X008040Y015096D02*
X007964Y015173D01*
X007810Y015173D01*
X007733Y015096D01*
X007733Y015019D01*
X007810Y014943D01*
X007964Y014943D01*
X008040Y014866D01*
X008040Y014789D01*
X007964Y014713D01*
X007810Y014713D01*
X007733Y014789D01*
X015455Y006275D02*
X015455Y006121D01*
X015532Y006045D01*
X015839Y006045D01*
X015916Y006121D01*
X015916Y006275D01*
X015839Y006352D01*
X015532Y006352D01*
X015455Y006275D01*
X015532Y006812D02*
X015455Y006735D01*
X015455Y006582D01*
X015532Y006505D01*
X015609Y006505D01*
X015685Y006582D01*
X015685Y006735D01*
X015762Y006812D01*
X015839Y006812D01*
X015916Y006735D01*
X015916Y006582D01*
X015839Y006505D01*
X015532Y007272D02*
X015455Y007196D01*
X015455Y007042D01*
X015532Y006965D01*
X015839Y006965D01*
X015916Y007042D01*
X015916Y007196D01*
X015839Y007272D01*
X015455Y007656D02*
X015455Y007503D01*
X015532Y007426D01*
X015839Y007426D01*
X015916Y007503D01*
X015916Y007656D01*
X015839Y007733D01*
X015532Y007733D01*
X015455Y007656D01*
X015455Y007886D02*
X015839Y007886D01*
X015916Y007963D01*
X015916Y008116D01*
X015839Y008193D01*
X015455Y008193D01*
X015455Y008500D02*
X015916Y008500D01*
X015455Y008347D02*
X015455Y008654D01*
X016479Y006731D02*
X016479Y006578D01*
X016556Y006501D01*
X016862Y006501D01*
X016939Y006578D01*
X016939Y006731D01*
X016862Y006808D01*
X016556Y006808D01*
X016479Y006731D01*
X016556Y007268D02*
X016479Y007192D01*
X016479Y007038D01*
X016556Y006961D01*
X016632Y006961D01*
X016709Y007038D01*
X016709Y007192D01*
X016786Y007268D01*
X016862Y007268D01*
X016939Y007192D01*
X016939Y007038D01*
X016862Y006961D01*
X016556Y007729D02*
X016479Y007652D01*
X016479Y007499D01*
X016556Y007422D01*
X016862Y007422D01*
X016939Y007499D01*
X016939Y007652D01*
X016862Y007729D01*
X016939Y007882D02*
X016939Y008036D01*
X016939Y007959D02*
X016479Y007959D01*
X016479Y007882D02*
X016479Y008036D01*
X016939Y008189D02*
X016479Y008189D01*
X016939Y008496D01*
X016479Y008496D01*
X014303Y020827D02*
X014149Y020827D01*
X014226Y020827D02*
X014226Y021287D01*
X014149Y021287D02*
X014303Y021287D01*
X014456Y020827D02*
X014456Y021287D01*
X014763Y020827D01*
X014763Y021287D01*
X014916Y021134D02*
X015070Y021287D01*
X015070Y020827D01*
X015223Y020827D02*
X014916Y020827D01*
X015488Y020669D02*
X015641Y020669D01*
X015564Y020669D02*
X015564Y021130D01*
X015488Y021130D02*
X015641Y021130D01*
X015795Y020669D02*
X015795Y021130D01*
X016102Y020669D01*
X016102Y021130D01*
X016562Y020669D02*
X016255Y020669D01*
X016562Y020976D01*
X016562Y021053D01*
X016485Y021130D01*
X016332Y021130D01*
X016255Y021053D01*
X014409Y021457D02*
X014409Y021764D01*
X014563Y021917D01*
X014716Y021764D01*
X014716Y021457D01*
X014716Y021687D02*
X014409Y021687D01*
X014870Y021917D02*
X014870Y021457D01*
X015100Y021457D01*
X015177Y021533D01*
X015177Y021840D01*
X015100Y021917D01*
X014870Y021917D01*
X015637Y021840D02*
X015560Y021917D01*
X015407Y021917D01*
X015330Y021840D01*
X015330Y021533D01*
X015407Y021457D01*
X015560Y021457D01*
X015637Y021533D01*
X015791Y021457D02*
X015944Y021457D01*
X015867Y021457D02*
X015867Y021917D01*
X015791Y021917D02*
X015944Y021917D01*
X016098Y021457D02*
X016098Y021917D01*
X016404Y021457D01*
X016404Y021917D01*
X017535Y020512D02*
X017688Y020512D01*
X017612Y020512D02*
X017612Y020972D01*
X017688Y020972D02*
X017535Y020972D01*
X017842Y020512D02*
X017842Y020972D01*
X018149Y020512D01*
X018149Y020972D01*
X018609Y020512D02*
X018302Y020512D01*
X018609Y020819D01*
X018609Y020895D01*
X018532Y020972D01*
X018379Y020972D01*
X018302Y020895D01*
D13*
X001287Y020840D02*
X001287Y020229D01*
X001287Y020535D02*
X001694Y020535D01*
X001694Y020840D02*
X001694Y020229D01*
X001895Y020229D02*
X001895Y020840D01*
X002200Y020840D01*
X002302Y020738D01*
X002302Y020636D01*
X002200Y020535D01*
X002302Y020433D01*
X002302Y020331D01*
X002200Y020229D01*
X001895Y020229D01*
X001895Y020535D02*
X002200Y020535D01*
X002910Y020738D02*
X002808Y020840D01*
X002605Y020840D01*
X002503Y020738D01*
X002503Y020636D01*
X002605Y020535D01*
X002808Y020535D01*
X002910Y020433D01*
X002910Y020331D01*
X002808Y020229D01*
X002605Y020229D01*
X002503Y020331D01*
X003314Y020229D02*
X003314Y020840D01*
X003111Y020840D02*
X003518Y020840D01*
X004125Y020840D02*
X003718Y020840D01*
X003718Y020229D01*
X004125Y020229D01*
X003922Y020535D02*
X003718Y020535D01*
X004326Y020229D02*
X004326Y020840D01*
X004631Y020840D01*
X004733Y020738D01*
X004733Y020535D01*
X004631Y020433D01*
X004326Y020433D01*
X004934Y020331D02*
X004934Y020738D01*
X005035Y020840D01*
X005239Y020840D01*
X005341Y020738D01*
X005341Y020331D01*
X005239Y020229D01*
X005035Y020229D01*
X004934Y020331D01*
X005341Y020738D01*
X005541Y020636D02*
X005745Y020840D01*
X005745Y020229D01*
X005948Y020229D02*
X005541Y020229D01*
X006149Y020229D02*
X006149Y020636D01*
X006353Y020840D01*
X006556Y020636D01*
X006556Y020229D01*
X006556Y020535D02*
X006149Y020535D01*
X001917Y019284D02*
X001917Y019895D01*
X002121Y019691D01*
X002324Y019895D01*
X002324Y019284D01*
X002525Y019895D02*
X002525Y019284D01*
X002932Y019284D01*
X003133Y019284D02*
X003133Y019691D01*
X003336Y019895D01*
X003540Y019691D01*
X003540Y019284D01*
X003540Y019590D02*
X003133Y019590D01*
X003740Y019284D02*
X003740Y019895D01*
X004046Y019895D01*
X004147Y019793D01*
X004147Y019691D01*
X004046Y019590D01*
X004147Y019488D01*
X004147Y019386D01*
X004046Y019284D01*
X003740Y019284D01*
X003740Y019590D02*
X004046Y019590D01*
X004348Y019284D02*
X004348Y019386D01*
X004450Y019386D01*
X004450Y019284D01*
X004348Y019284D01*
X005059Y019793D02*
X004957Y019895D01*
X004754Y019895D01*
X004652Y019793D01*
X004652Y019386D01*
X004754Y019284D01*
X004957Y019284D01*
X005059Y019386D01*
X005260Y019895D02*
X005667Y019895D01*
X005667Y019793D01*
X005260Y019386D01*
X005260Y019284D01*
X005667Y019284D01*
X012695Y010425D02*
X012695Y008063D01*
X010727Y008063D02*
X010727Y010425D01*
X010924Y011409D02*
X012499Y011409D01*
X012499Y010425D01*
X012499Y010031D01*
X012302Y010031D01*
X011121Y010031D01*
X010924Y010031D01*
X010924Y010425D01*
X010924Y011409D01*
X012302Y011212D02*
X012302Y010228D01*
X011121Y010228D01*
X011121Y011212D01*
X012302Y011212D01*
X012499Y010425D02*
X012695Y010425D01*
X010924Y010425D02*
X010727Y010425D01*
X012302Y010031D02*
X012302Y008850D01*
X011121Y008850D01*
X011121Y010031D01*
X012695Y008063D02*
X012105Y008063D01*
X011317Y008063D01*
X010727Y008063D01*
X012499Y007866D02*
X012499Y004716D01*
X010924Y004716D01*
X010924Y007866D01*
X011317Y007866D01*
X012105Y007866D01*
X012499Y007866D01*
X012695Y008063D02*
X012695Y004519D01*
X010727Y004519D01*
X010727Y008063D01*
X012105Y008063D02*
X012105Y007866D01*
X011317Y007866D02*
X011317Y008063D01*
X010695Y008063D02*
X010695Y010425D01*
X008727Y010425D02*
X008727Y008063D01*
X008924Y011409D02*
X010499Y011409D01*
X010499Y010425D01*
X010499Y010031D01*
X010302Y010031D01*
X009121Y010031D01*
X008924Y010031D01*
X008924Y010425D01*
X008924Y011409D01*
X010302Y011212D02*
X010302Y010228D01*
X009121Y010228D01*
X009121Y011212D01*
X010302Y011212D01*
X010499Y010425D02*
X010695Y010425D01*
X008924Y010425D02*
X008727Y010425D01*
X010302Y010031D02*
X010302Y008850D01*
X009121Y008850D01*
X009121Y010031D01*
X010695Y008063D02*
X010105Y008063D01*
X009317Y008063D01*
X008727Y008063D01*
X010499Y007866D02*
X010499Y004716D01*
X008924Y004716D01*
X008924Y007866D01*
X009317Y007866D01*
X010105Y007866D01*
X010499Y007866D01*
X010695Y008063D02*
X010695Y004519D01*
X008727Y004519D01*
X008727Y008063D01*
X010105Y008063D02*
X010105Y007866D01*
X009317Y007866D02*
X009317Y008063D01*
X010727Y018488D02*
X010727Y020850D01*
X012695Y020850D02*
X012695Y018488D01*
X012499Y017504D02*
X010924Y017504D01*
X010924Y018488D01*
X010924Y018881D01*
X011121Y018881D01*
X012302Y018881D01*
X012499Y018881D01*
X012499Y018488D01*
X012499Y017504D01*
X011121Y017700D02*
X011121Y018685D01*
X012302Y018685D01*
X012302Y017700D01*
X011121Y017700D01*
X010924Y018488D02*
X010727Y018488D01*
X012499Y018488D02*
X012695Y018488D01*
X011121Y018881D02*
X011121Y020063D01*
X012302Y020063D01*
X012302Y018881D01*
X010727Y020850D02*
X011317Y020850D01*
X012105Y020850D01*
X012695Y020850D01*
X010924Y021047D02*
X010924Y024196D01*
X012499Y024196D01*
X012499Y021047D01*
X012105Y021047D01*
X011317Y021047D01*
X010924Y021047D01*
X010727Y020850D02*
X010727Y024393D01*
X012695Y024393D01*
X012695Y020850D01*
X011317Y020850D02*
X011317Y021047D01*
X012105Y021047D02*
X012105Y020850D01*
X008727Y020850D02*
X008727Y018488D01*
X010695Y018488D02*
X010695Y020850D01*
X010499Y017504D02*
X008924Y017504D01*
X008924Y018488D01*
X008924Y018881D01*
X009121Y018881D01*
X010302Y018881D01*
X010499Y018881D01*
X010499Y018488D01*
X010499Y017504D01*
X009121Y017700D02*
X009121Y018685D01*
X010302Y018685D01*
X010302Y017700D01*
X009121Y017700D01*
X008924Y018488D02*
X008727Y018488D01*
X010499Y018488D02*
X010695Y018488D01*
X009121Y018881D02*
X009121Y020063D01*
X010302Y020063D01*
X010302Y018881D01*
X008727Y020850D02*
X009317Y020850D01*
X010105Y020850D01*
X010695Y020850D01*
X008924Y021047D02*
X008924Y024196D01*
X010499Y024196D01*
X010499Y021047D01*
X010105Y021047D01*
X009317Y021047D01*
X008924Y021047D01*
X008727Y020850D02*
X008727Y024393D01*
X010695Y024393D01*
X010695Y020850D01*
X009317Y020850D02*
X009317Y021047D01*
X010105Y021047D02*
X010105Y020850D01*
X014743Y016441D02*
X017105Y016441D01*
X017105Y014472D02*
X014743Y014472D01*
X013758Y014669D02*
X013758Y016244D01*
X014743Y016244D01*
X015136Y016244D01*
X015136Y016047D01*
X015136Y014866D01*
X015136Y014669D01*
X014743Y014669D01*
X013758Y014669D01*
X013955Y016047D02*
X014939Y016047D01*
X014939Y014866D01*
X013955Y014866D01*
X013955Y016047D01*
X014743Y016244D02*
X014743Y016441D01*
X014743Y014669D02*
X014743Y014472D01*
X015136Y016047D02*
X016317Y016047D01*
X016317Y014866D01*
X015136Y014866D01*
X017105Y016441D02*
X017105Y015850D01*
X017105Y015063D01*
X017105Y014472D01*
X017302Y016244D02*
X020451Y016244D01*
X020451Y014669D01*
X017302Y014669D01*
X017302Y015063D01*
X017302Y015850D01*
X017302Y016244D01*
X017105Y016441D02*
X020648Y016441D01*
X020648Y014472D01*
X017105Y014472D01*
X017105Y015850D02*
X017302Y015850D01*
X017302Y015063D02*
X017105Y015063D01*
X017105Y014441D02*
X014743Y014441D01*
X014743Y012472D02*
X017105Y012472D01*
X013758Y012669D02*
X013758Y014244D01*
X014743Y014244D01*
X015136Y014244D01*
X015136Y014047D01*
X015136Y012866D01*
X015136Y012669D01*
X014743Y012669D01*
X013758Y012669D01*
X013955Y014047D02*
X014939Y014047D01*
X014939Y012866D01*
X013955Y012866D01*
X013955Y014047D01*
X014743Y014244D02*
X014743Y014441D01*
X014743Y012669D02*
X014743Y012472D01*
X015136Y014047D02*
X016317Y014047D01*
X016317Y012866D01*
X015136Y012866D01*
X017105Y014441D02*
X017105Y013850D01*
X017105Y013063D01*
X017105Y012472D01*
X017302Y014244D02*
X020451Y014244D01*
X020451Y012669D01*
X017302Y012669D01*
X017302Y013063D01*
X017302Y013850D01*
X017302Y014244D01*
X017105Y014441D02*
X020648Y014441D01*
X020648Y012472D01*
X017105Y012472D01*
X017105Y013850D02*
X017302Y013850D01*
X017302Y013063D02*
X017105Y013063D01*
X004036Y007450D02*
X004186Y007601D01*
X004186Y007150D01*
X004036Y007150D02*
X004336Y007150D01*
X007236Y010326D02*
X007311Y010401D01*
X007461Y010401D01*
X007536Y010326D01*
X007536Y010250D01*
X007461Y010175D01*
X007536Y010100D01*
X007536Y010025D01*
X007461Y009950D01*
X007311Y009950D01*
X007236Y010025D01*
X007236Y010100D01*
X007311Y010175D01*
X007236Y010250D01*
X007236Y010326D01*
X007311Y010175D02*
X007461Y010175D01*
X006162Y010326D02*
X006087Y010401D01*
X005937Y010401D01*
X005862Y010326D01*
X005862Y010250D01*
X005937Y010175D01*
X006087Y010175D01*
X006162Y010100D01*
X006162Y010025D01*
X006087Y009950D01*
X005937Y009950D01*
X005862Y010025D01*
X006323Y010401D02*
X006323Y010100D01*
X006473Y009950D01*
X006623Y010100D01*
X006623Y010401D01*
X006783Y010326D02*
X006858Y010401D01*
X007008Y010401D01*
X007083Y010326D01*
X007083Y010250D01*
X007008Y010175D01*
X006933Y010175D01*
X007008Y010175D02*
X007083Y010100D01*
X007083Y010025D01*
X007008Y009950D01*
X006858Y009950D01*
X006783Y010025D01*
X014532Y017051D02*
X014682Y017201D01*
X014682Y016751D01*
X014532Y016751D02*
X014832Y016751D01*
X013884Y018037D02*
X013809Y018112D01*
X013658Y018112D01*
X013583Y018037D01*
X013583Y017962D01*
X013658Y017887D01*
X013809Y017887D01*
X013884Y017812D01*
X013884Y017737D01*
X013809Y017662D01*
X013658Y017662D01*
X013583Y017737D01*
X014044Y018112D02*
X014044Y017812D01*
X014194Y017662D01*
X014344Y017812D01*
X014344Y018112D01*
X014504Y018112D02*
X014804Y018112D01*
X014804Y018037D01*
X014504Y017737D01*
X014504Y017662D01*
X012762Y016151D02*
X012612Y016301D01*
X013062Y016301D01*
X013062Y016151D02*
X013062Y016451D01*
X011933Y014715D02*
X011858Y014640D01*
X011858Y014490D01*
X011933Y014415D01*
X012008Y014415D01*
X012083Y014490D01*
X012083Y014640D01*
X012158Y014715D01*
X012234Y014715D01*
X012309Y014640D01*
X012309Y014490D01*
X012234Y014415D01*
X011858Y014875D02*
X012158Y014875D01*
X012309Y015026D01*
X012158Y015176D01*
X011858Y015176D01*
X012008Y015336D02*
X011858Y015486D01*
X012309Y015486D01*
X012309Y015336D02*
X012309Y015636D01*
X013303Y019965D02*
X013453Y020115D01*
X013453Y019664D01*
X013303Y019664D02*
X013603Y019664D01*
X015993Y019207D02*
X015918Y019282D01*
X015768Y019282D01*
X015693Y019207D01*
X015693Y019132D01*
X015768Y019057D01*
X015918Y019057D01*
X015993Y018982D01*
X015993Y018907D01*
X015918Y018832D01*
X015768Y018832D01*
X015693Y018907D01*
X016153Y019282D02*
X016153Y018982D01*
X016303Y018832D01*
X016454Y018982D01*
X016454Y019282D01*
X016914Y019282D02*
X016764Y019207D01*
X016614Y019057D01*
X016614Y018907D01*
X016689Y018832D01*
X016839Y018832D01*
X016914Y018907D01*
X016914Y018982D01*
X016839Y019057D01*
X016614Y019057D01*
X017466Y018092D02*
X017617Y018242D01*
X017617Y017792D01*
X017767Y017792D02*
X017466Y017792D01*
X019542Y019692D02*
X019542Y020142D01*
X019316Y019917D01*
X019617Y019917D01*
X019791Y019372D02*
X019716Y019297D01*
X019716Y019147D01*
X019791Y019072D01*
X019866Y019072D01*
X019941Y019147D01*
X019941Y019297D01*
X020016Y019372D01*
X020091Y019372D01*
X020166Y019297D01*
X020166Y019147D01*
X020091Y019072D01*
X019716Y019532D02*
X020016Y019532D01*
X020166Y019682D01*
X020016Y019832D01*
X019716Y019832D01*
X019791Y019993D02*
X019716Y020068D01*
X019716Y020218D01*
X019791Y020293D01*
X019866Y020293D01*
X019941Y020218D01*
X020016Y020293D01*
X020091Y020293D01*
X020166Y020218D01*
X020166Y020068D01*
X020091Y019993D01*
X020016Y019993D01*
X019941Y020068D01*
X019866Y019993D01*
X019791Y019993D01*
X019941Y020068D02*
X019941Y020218D01*
X004481Y012144D02*
X004405Y012069D01*
X004405Y011919D01*
X004481Y011844D01*
X004556Y011844D01*
X004631Y011919D01*
X004631Y012069D01*
X004706Y012144D01*
X004781Y012144D01*
X004856Y012069D01*
X004856Y011919D01*
X004781Y011844D01*
X004405Y012305D02*
X004706Y012305D01*
X004856Y012455D01*
X004706Y012605D01*
X004405Y012605D01*
X004405Y013065D02*
X004405Y012765D01*
X004631Y012765D01*
X004556Y012915D01*
X004556Y012990D01*
X004631Y013065D01*
X004781Y013065D01*
X004856Y012990D01*
X004856Y012840D01*
X004781Y012765D01*
X002895Y018920D02*
X002820Y018995D01*
X002670Y018995D01*
X002594Y018920D01*
X002594Y018845D01*
X002670Y018770D01*
X002820Y018770D01*
X002895Y018695D01*
X002895Y018620D01*
X002820Y018545D01*
X002670Y018545D01*
X002594Y018620D01*
X003055Y018995D02*
X003055Y018695D01*
X003205Y018545D01*
X003355Y018695D01*
X003355Y018995D01*
X003815Y018545D02*
X003515Y018545D01*
X003815Y018845D01*
X003815Y018920D01*
X003740Y018995D01*
X003590Y018995D01*
X003515Y018920D01*
X015470Y011597D02*
X015394Y011672D01*
X015244Y011672D01*
X015169Y011597D01*
X015169Y011522D01*
X015244Y011447D01*
X015394Y011447D01*
X015470Y011372D01*
X015470Y011297D01*
X015394Y011222D01*
X015244Y011222D01*
X015169Y011297D01*
X015630Y011672D02*
X015630Y011372D01*
X015780Y011222D01*
X015930Y011372D01*
X015930Y011672D01*
X016315Y011222D02*
X016315Y011672D01*
X016090Y011447D01*
X016390Y011447D01*
D14*
X016538Y020519D02*
X015042Y020519D01*
X015436Y020677D02*
X014097Y020677D01*
D15*
X005211Y008275D03*
X004211Y008275D03*
X006211Y008275D03*
X007211Y008275D03*
X004211Y009275D03*
X005211Y009275D03*
X006211Y009275D03*
X007211Y009275D03*
X012967Y016976D03*
X013967Y016976D03*
X012837Y014586D03*
X012837Y015586D03*
X015278Y019889D03*
X014278Y019889D03*
X016278Y019889D03*
X018691Y018917D03*
X017691Y018917D03*
X017691Y019917D03*
X018691Y019917D03*
X002731Y011700D03*
X002731Y012700D03*
X002731Y010700D03*
X003731Y012700D03*
X003731Y011700D03*
X003731Y010700D03*
X002731Y016925D03*
X002731Y017925D03*
X002731Y015925D03*
X002731Y014925D03*
X003731Y017925D03*
X003731Y016925D03*
X003731Y015925D03*
X003731Y014925D03*
X016644Y009547D03*
X015644Y009547D03*
X015644Y010547D03*
X016644Y010547D03*
M02*
