M48
;DRILL file {KiCad no-vcs-found-ad9916e~61~ubuntu16.04.1} date Thu Nov 30 13:13:32 2017
;FORMAT={-:-/ absolute / metric / decimal}
FMAT,2
METRIC,TZ
T1C0.400
T2C0.889
T3C1.000
T4C1.300
T5C3.000
%
G90
G05
M71
T1
X1.27Y29.21
X1.524Y18.542
X1.778Y21.082
X1.778Y15.494
X1.778Y13.716
X2.794Y10.16
X3.302Y21.082
X3.683Y22.352
X4.064Y10.16
X4.572Y21.082
X5.334Y10.16
X5.842Y21.082
X6.223Y22.352
X6.604Y10.16
X7.112Y21.082
X7.366Y31.242
X7.62Y10.16
X7.874Y29.718
X7.874Y28.702
X8.468Y31.67
X8.636Y10.16
X8.89Y33.02
X12.192Y33.528
X13.97Y22.352
X14.224Y21.082
X14.224Y19.939
X15.399Y18.967
X15.399Y18.117
X15.494Y15.494
X15.811Y22.162
X16.224Y18.967
X16.224Y18.117
X16.256Y14.732
X16.54Y33.799
X16.637Y10.414
X16.749Y32.004
X17.018Y12.954
X17.049Y18.967
X17.049Y18.117
X17.78Y30.226
X17.874Y18.967
X17.874Y18.117
X18.542Y29.21
X18.542Y27.686
X18.542Y26.162
X18.542Y24.638
X19.304Y19.05
X19.342Y12.23
X19.558Y25.654
X19.812Y27.178
X20.066Y18.288
X20.32Y19.304
X21.082Y26.416
X21.336Y20.066
X21.336Y13.97
X22.352Y13.97
X22.352Y12.954
X22.606Y20.066
X23.114Y12.192
X23.368Y13.97
X23.876Y24.13
X23.876Y20.066
X23.876Y18.542
X23.876Y17.272
X23.876Y16.002
X24.13Y14.732
X24.13Y11.176
X24.638Y13.716
X24.638Y12.7
X25.4Y11.176
X25.908Y32.004
X25.908Y30.48
X25.908Y12.446
X26.67Y29.21
X26.924Y13.716
X28.448Y13.716
X29.718Y13.716
X30.226Y20.32
X30.48Y28.702
X30.734Y13.716
X31.242Y19.05
X31.242Y17.272
X31.242Y16.002
X31.242Y14.986
X31.75Y27.686
X32.512Y26.67
X33.02Y25.4
X33.528Y22.86
X33.782Y24.384
X33.782Y21.59
X34.798Y20.574
X35.052Y24.892
X36.322Y24.892
X36.322Y20.574
X37.338Y24.13
X37.592Y22.606
X37.592Y21.336
T2
X21.336Y7.112
X21.336Y4.572
X27.94Y11.684
X27.94Y9.144
X27.94Y6.604
X30.48Y11.684
X30.48Y9.144
X30.48Y6.604
X3.683Y29.21
X3.683Y26.67
X3.683Y24.13
X6.223Y29.21
X6.223Y26.67
X6.223Y24.13
X11.176Y7.112
X11.176Y4.572
X13.716Y7.112
X13.716Y4.572
X16.256Y7.112
X16.256Y4.572
X18.796Y4.572
X18.796Y7.112
T3
X13.398Y31.178
X20.898Y31.178
X28.194Y22.669
X35.694Y22.669
T4
X5.16Y13.081
X10.16Y13.081
X5.16Y18.034
X10.16Y18.034
T5
X5.08Y35.56
X5.08Y5.08
X35.56Y5.08
X35.56Y35.56
T0
M30
