%
T1C.035F197S55
X0131Y0172
X0141Y0172
X0185Y0162
X0185Y0172
X0195Y0162
X0195Y0172
X01995Y01395
X01995Y01295
X0205Y0162
X0205Y0172
X0215Y0162
X0215Y0172
X0187Y0191
X0177Y0191
X0167Y0191
X0141Y0182
X0141Y0192
X0131Y0182
X0131Y0192
X01625Y0222
X01625Y0206
X01975Y0222
X01975Y0206
T2C.12598F035S794
X014Y014
X022Y014
X022Y022
X014Y022
M30
