G04 #@! TF.FileFunction,Soldermask,Bot*
%FSLAX46Y46*%
G04 Gerber Fmt 4.6, Leading zero omitted, Abs format (unit mm)*
G04 Created by KiCad (PCBNEW (2015-05-13 BZR 5653)-product) date 7. 1. 2016 11:06:17*
%MOMM*%
G01*
G04 APERTURE LIST*
%ADD10C,0.300000*%
%ADD11R,1.397000X0.889000*%
%ADD12R,2.550160X2.700020*%
%ADD13R,1.699260X1.300480*%
%ADD14R,2.499360X1.800860*%
%ADD15R,1.524000X1.524000*%
%ADD16R,3.810000X3.810000*%
%ADD17C,6.000000*%
%ADD18R,0.889000X1.397000*%
%ADD19C,0.500000*%
G04 APERTURE END LIST*
D10*
D11*
X14224000Y25082500D03*
X14224000Y26987500D03*
D12*
X9525000Y28448000D03*
X3175000Y28448000D03*
D13*
X19304000Y37310060D03*
X19304000Y33809940D03*
D14*
X7586980Y12192000D03*
X3589020Y12192000D03*
D15*
X10922000Y34290000D03*
X10922000Y36830000D03*
X13462000Y34290000D03*
X13462000Y36830000D03*
X16002000Y34290000D03*
X16002000Y36830000D03*
X12700000Y3810000D03*
X12700000Y6350000D03*
X17780000Y3810000D03*
X17780000Y6350000D03*
X15240000Y3810000D03*
X15240000Y6350000D03*
X20320000Y3810000D03*
X20320000Y6350000D03*
X10160000Y6350000D03*
X10160000Y3810000D03*
D16*
X25066000Y27432000D03*
X20066000Y27432000D03*
X25066000Y22352000D03*
X20066000Y22352000D03*
X25066000Y17272000D03*
X20066000Y17272000D03*
X25066000Y12192000D03*
X20066000Y12192000D03*
X3048000Y16844000D03*
X3048000Y21844000D03*
X8128000Y16844000D03*
X8128000Y21844000D03*
D17*
X5080000Y35560000D03*
X25400000Y5080000D03*
X5080000Y5080000D03*
X25400000Y35560000D03*
D18*
X16827500Y31496000D03*
X18732500Y31496000D03*
D11*
X10287000Y8191500D03*
X10287000Y10096500D03*
D10*
G36*
X14924000Y20694000D02*
X15424000Y20694000D01*
X15424000Y20414000D01*
X14924000Y20414000D01*
X14924000Y20694000D01*
X14924000Y20694000D01*
G37*
G36*
X14924000Y20194000D02*
X15424000Y20194000D01*
X15424000Y19914000D01*
X14924000Y19914000D01*
X14924000Y20194000D01*
X14924000Y20194000D01*
G37*
G36*
X14924000Y19694000D02*
X15424000Y19694000D01*
X15424000Y19414000D01*
X14924000Y19414000D01*
X14924000Y19694000D01*
X14924000Y19694000D01*
G37*
G36*
X14924000Y19194000D02*
X15424000Y19194000D01*
X15424000Y18914000D01*
X14924000Y18914000D01*
X14924000Y19194000D01*
X14924000Y19194000D01*
G37*
G36*
X14924000Y18694000D02*
X15424000Y18694000D01*
X15424000Y18414000D01*
X14924000Y18414000D01*
X14924000Y18694000D01*
X14924000Y18694000D01*
G37*
G36*
X14924000Y18194000D02*
X15424000Y18194000D01*
X15424000Y17914000D01*
X14924000Y17914000D01*
X14924000Y18194000D01*
X14924000Y18194000D01*
G37*
G36*
X13024000Y18194000D02*
X13524000Y18194000D01*
X13524000Y17914000D01*
X13024000Y17914000D01*
X13024000Y18194000D01*
X13024000Y18194000D01*
G37*
G36*
X13024000Y18694000D02*
X13524000Y18694000D01*
X13524000Y18414000D01*
X13024000Y18414000D01*
X13024000Y18694000D01*
X13024000Y18694000D01*
G37*
G36*
X13024000Y19194000D02*
X13524000Y19194000D01*
X13524000Y18914000D01*
X13024000Y18914000D01*
X13024000Y19194000D01*
X13024000Y19194000D01*
G37*
G36*
X13024000Y19694000D02*
X13524000Y19694000D01*
X13524000Y19414000D01*
X13024000Y19414000D01*
X13024000Y19694000D01*
X13024000Y19694000D01*
G37*
G36*
X13024000Y20194000D02*
X13524000Y20194000D01*
X13524000Y19914000D01*
X13024000Y19914000D01*
X13024000Y20194000D01*
X13024000Y20194000D01*
G37*
G36*
X13024000Y20694000D02*
X13524000Y20694000D01*
X13524000Y20414000D01*
X13024000Y20414000D01*
X13024000Y20694000D01*
X13024000Y20694000D01*
G37*
G36*
X13774000Y20304000D02*
X14674000Y20304000D01*
X14674000Y18304000D01*
X13774000Y18304000D01*
X13774000Y20304000D01*
X13774000Y20304000D01*
G37*
G36*
X14349000Y18304000D02*
X14599000Y18304000D01*
X14599000Y17604000D01*
X14349000Y17604000D01*
X14349000Y18304000D01*
X14349000Y18304000D01*
G37*
G36*
X13849000Y18304000D02*
X14099000Y18304000D01*
X14099000Y17604000D01*
X13849000Y17604000D01*
X13849000Y18304000D01*
X13849000Y18304000D01*
G37*
G36*
X13849000Y21004000D02*
X14099000Y21004000D01*
X14099000Y20304000D01*
X13849000Y20304000D01*
X13849000Y21004000D01*
X13849000Y21004000D01*
G37*
G36*
X14349000Y21004000D02*
X14599000Y21004000D01*
X14599000Y20304000D01*
X14349000Y20304000D01*
X14349000Y21004000D01*
X14349000Y21004000D01*
G37*
D19*
X14224000Y18604000D03*
X14224000Y20004000D03*
X14224000Y19304000D03*
D15*
X13462000Y31750000D03*
D11*
X11811000Y21399500D03*
X11811000Y23304500D03*
M02*
