G04 #@! TF.GenerationSoftware,KiCad,Pcbnew,(5.1.0-rc1-3-g6bb8fde48)*
G04 #@! TF.CreationDate,2019-08-06T08:57:09+02:00
G04 #@! TF.ProjectId,PCRD06A,50435244-3036-4412-9e6b-696361645f70,REV*
G04 #@! TF.SameCoordinates,Original*
G04 #@! TF.FileFunction,Copper,L2,Bot*
G04 #@! TF.FilePolarity,Positive*
%FSLAX46Y46*%
G04 Gerber Fmt 4.6, Leading zero omitted, Abs format (unit mm)*
G04 Created by KiCad (PCBNEW (5.1.0-rc1-3-g6bb8fde48)) date 2019-08-06 08:57:09*
%MOMM*%
%LPD*%
G04 APERTURE LIST*
%ADD10C,0.300000*%
%ADD11R,1.524000X1.524000*%
%ADD12C,6.000000*%
%ADD13R,0.889000X1.397000*%
%ADD14R,1.560000X0.650000*%
%ADD15R,0.650000X2.000000*%
%ADD16R,2.550160X2.499360*%
%ADD17R,1.800000X2.500000*%
%ADD18R,1.397000X0.889000*%
%ADD19R,1.300000X1.500000*%
%ADD20R,0.700000X3.000000*%
%ADD21R,1.000000X1.000000*%
%ADD22R,2.300000X1.000000*%
%ADD23R,3.800000X1.000000*%
%ADD24R,1.000000X2.300000*%
%ADD25R,1.000000X3.800000*%
%ADD26C,0.800000*%
%ADD27C,0.400000*%
%ADD28C,0.250000*%
%ADD29C,0.800000*%
%ADD30C,0.254000*%
G04 APERTURE END LIST*
D10*
X4742571Y19561428D02*
X3242571Y19561428D01*
X4314000Y19061428D01*
X3242571Y18561428D01*
X4742571Y18561428D01*
X4742571Y17132857D02*
X4742571Y17847142D01*
X3242571Y17847142D01*
X4314000Y16704285D02*
X4314000Y15990000D01*
X4742571Y16847142D02*
X3242571Y16347142D01*
X4742571Y15847142D01*
X3956857Y14847142D02*
X4028285Y14632857D01*
X4099714Y14561428D01*
X4242571Y14490000D01*
X4456857Y14490000D01*
X4599714Y14561428D01*
X4671142Y14632857D01*
X4742571Y14775714D01*
X4742571Y15347142D01*
X3242571Y15347142D01*
X3242571Y14847142D01*
X3314000Y14704285D01*
X3385428Y14632857D01*
X3528285Y14561428D01*
X3671142Y14561428D01*
X3814000Y14632857D01*
X3885428Y14704285D01*
X3956857Y14847142D01*
X3956857Y15347142D01*
X4599714Y13847142D02*
X4671142Y13775714D01*
X4742571Y13847142D01*
X4671142Y13918571D01*
X4599714Y13847142D01*
X4742571Y13847142D01*
X4599714Y12275714D02*
X4671142Y12347142D01*
X4742571Y12561428D01*
X4742571Y12704285D01*
X4671142Y12918571D01*
X4528285Y13061428D01*
X4385428Y13132857D01*
X4099714Y13204285D01*
X3885428Y13204285D01*
X3599714Y13132857D01*
X3456857Y13061428D01*
X3314000Y12918571D01*
X3242571Y12704285D01*
X3242571Y12561428D01*
X3314000Y12347142D01*
X3385428Y12275714D01*
X3242571Y11775714D02*
X3242571Y10775714D01*
X4742571Y11775714D01*
X4742571Y10775714D01*
D11*
X21336000Y24130000D03*
X21336000Y21590000D03*
X12700000Y31242000D03*
X12700000Y33782000D03*
X15240000Y31242000D03*
X15240000Y33782000D03*
X17780000Y31242000D03*
X17780000Y33782000D03*
D12*
X5080000Y35560000D03*
X45720000Y5080000D03*
X45720000Y35560000D03*
X5080000Y5080000D03*
D13*
X14732000Y21844000D03*
X16637000Y21844000D03*
D14*
X18970000Y26990000D03*
X18970000Y27940000D03*
X18970000Y28890000D03*
X21670000Y28890000D03*
X21670000Y26990000D03*
D15*
X26284000Y30108000D03*
X25334000Y30108000D03*
X24384000Y30108000D03*
X24384000Y33528000D03*
X26284000Y33528000D03*
D16*
X16794480Y8128000D03*
X21844000Y8128000D03*
D13*
X31877000Y15240000D03*
X29972000Y15240000D03*
X29972000Y30988000D03*
X28067000Y30988000D03*
X25273000Y22352000D03*
X23368000Y22352000D03*
X15875000Y12192000D03*
X17780000Y12192000D03*
X28067000Y33528000D03*
X29972000Y33528000D03*
X23368000Y24384000D03*
X25273000Y24384000D03*
X17653000Y14732000D03*
X15748000Y14732000D03*
X26924000Y27432000D03*
X25019000Y27432000D03*
D17*
X26416000Y12160000D03*
X26416000Y8160000D03*
D11*
X37846000Y8636000D03*
X35306000Y8636000D03*
X37846000Y11176000D03*
X35306000Y11176000D03*
X37846000Y13716000D03*
X35306000Y13716000D03*
X35306000Y32004000D03*
X37846000Y32004000D03*
X18796000Y24130000D03*
X18796000Y21590000D03*
X35306000Y26924000D03*
X37846000Y26924000D03*
X37846000Y29464000D03*
X35306000Y29464000D03*
D18*
X32004000Y29972000D03*
X32004000Y31877000D03*
X29464000Y28829000D03*
X29464000Y26924000D03*
X25908000Y18288000D03*
X25908000Y20193000D03*
D13*
X19812000Y12192000D03*
X21717000Y12192000D03*
X16637000Y24384000D03*
X14732000Y24384000D03*
X20955000Y17780000D03*
X22860000Y17780000D03*
D14*
X14398000Y17338000D03*
X14398000Y18288000D03*
X14398000Y19238000D03*
X17098000Y19238000D03*
X17098000Y17338000D03*
D19*
X29812000Y11176000D03*
D20*
X31162000Y11176000D03*
D19*
X32512000Y11176000D03*
D21*
X9500000Y4928000D03*
X41300000Y4928000D03*
X41300000Y36728000D03*
X9500000Y36728000D03*
D22*
X11150000Y4928000D03*
X11150000Y36728000D03*
D23*
X16400000Y4928000D03*
X16400000Y36728000D03*
X22400000Y4928000D03*
X22400000Y36728000D03*
X28400000Y4928000D03*
X28400000Y36728000D03*
X34400000Y4928000D03*
X34400000Y36728000D03*
D22*
X39650000Y4928000D03*
X39650000Y36728000D03*
D24*
X9500000Y6578000D03*
X41300000Y6578000D03*
D25*
X9500000Y11828000D03*
X41300000Y11828000D03*
X9500000Y17828000D03*
X41300000Y17828000D03*
X9500000Y23828000D03*
X41300000Y23828000D03*
X9500000Y29828000D03*
X41300000Y29828000D03*
D24*
X9500000Y35078000D03*
X41300000Y35078000D03*
D26*
X26416000Y16764000D03*
X20828000Y34036000D03*
X20828000Y32512000D03*
X20828000Y30988000D03*
X22352000Y34036000D03*
X22860000Y30988000D03*
X23368000Y28448000D03*
X23368000Y29972000D03*
X23368000Y27432000D03*
X17272000Y27940000D03*
X15748000Y27940000D03*
X13716000Y25908000D03*
X14732000Y26924000D03*
X13208000Y21844000D03*
X13208000Y20828000D03*
X13208000Y24384000D03*
X27940000Y25908000D03*
X28448000Y23368000D03*
X28448000Y21844000D03*
X24892000Y16256000D03*
X27432000Y15240000D03*
X28448000Y15240000D03*
X19812000Y19304000D03*
X11176000Y15748000D03*
X28448000Y24892000D03*
X27432000Y28956000D03*
X13716000Y15240000D03*
X13716000Y14224000D03*
X13716000Y13208000D03*
X13716000Y12192000D03*
X13716000Y10668000D03*
X15240000Y10668000D03*
X13208000Y23368000D03*
X19304000Y14732000D03*
X21336000Y14732000D03*
X18796000Y19304000D03*
X28448000Y7112000D03*
X28448000Y8636000D03*
X28448000Y10160000D03*
X27940000Y16764000D03*
X32004000Y17272000D03*
X34544000Y16764000D03*
X35560000Y16764000D03*
X38100000Y16764000D03*
X36576000Y16764000D03*
X30988000Y34036000D03*
X30988000Y33020000D03*
X20828000Y19304000D03*
X21844000Y19304000D03*
X22860000Y19304000D03*
X16256000Y25908000D03*
X28448000Y20320000D03*
X26416000Y21844000D03*
X26416000Y22860000D03*
X26416000Y24384000D03*
X19304000Y16256000D03*
X20828000Y16256000D03*
X22352000Y16256000D03*
X23876000Y16256000D03*
X12192000Y15240000D03*
X12192000Y14224000D03*
X31496000Y18796000D03*
X31496000Y19812000D03*
X31496000Y20828000D03*
X31496000Y21844000D03*
X31496000Y22860000D03*
X31496000Y23876000D03*
X31496000Y24892000D03*
X22860000Y14732000D03*
X13208000Y28956000D03*
X12192000Y27940000D03*
X11176000Y26924000D03*
D27*
X25334000Y29022000D02*
X26924000Y27432000D01*
X25334000Y30108000D02*
X25334000Y29022000D01*
D28*
X26416000Y24949685D02*
X26416000Y24384000D01*
X24957186Y26408499D02*
X26416000Y24949685D01*
X24391501Y26408499D02*
X24957186Y26408499D01*
X23368000Y27432000D02*
X24391501Y26408499D01*
D29*
X27400000Y11176000D02*
X26416000Y12160000D01*
X29812000Y11176000D02*
X27400000Y11176000D01*
X21717000Y8255000D02*
X21844000Y8128000D01*
X21717000Y12192000D02*
X21717000Y8255000D01*
X22384000Y8128000D02*
X26416000Y12160000D01*
X21844000Y8128000D02*
X22384000Y8128000D01*
X29972000Y11336000D02*
X29812000Y11176000D01*
X29972000Y15240000D02*
X29972000Y11336000D01*
X29972000Y26416000D02*
X29464000Y26924000D01*
X25908000Y18288000D02*
X29972000Y18288000D01*
X29972000Y15240000D02*
X29972000Y18288000D01*
X29972000Y18288000D02*
X29972000Y26416000D01*
D27*
X26284000Y33528000D02*
X28067000Y33528000D01*
X28067000Y33528000D02*
X28067000Y30988000D01*
X28067000Y30226000D02*
X29464000Y28829000D01*
X28067000Y30988000D02*
X28067000Y30226000D01*
X22125000Y26990000D02*
X23632499Y25482501D01*
X21670000Y26990000D02*
X22125000Y26990000D01*
X24428499Y25482501D02*
X23632499Y25482501D01*
X25273000Y24638000D02*
X24428499Y25482501D01*
X25273000Y24384000D02*
X25273000Y24638000D01*
D29*
X25273000Y24384000D02*
X25273000Y22352000D01*
X25273000Y20828000D02*
X25908000Y20193000D01*
X25273000Y22352000D02*
X25273000Y20828000D01*
D27*
X17098000Y15287000D02*
X17653000Y14732000D01*
X17098000Y17338000D02*
X17098000Y15287000D01*
X17653000Y12319000D02*
X17780000Y12192000D01*
X17653000Y14732000D02*
X17653000Y12319000D01*
X19812000Y12192000D02*
X17780000Y12192000D01*
X24384000Y28067000D02*
X25019000Y27432000D01*
X24384000Y30108000D02*
X24384000Y28067000D01*
X25019000Y27432000D02*
X25019000Y27178000D01*
X22860000Y18034000D02*
X22860000Y17780000D01*
X25019000Y27178000D02*
X27432000Y24765000D01*
X27432000Y24765000D02*
X27432000Y19853998D01*
X27432000Y19853998D02*
X26926501Y19348499D01*
X26926501Y19348499D02*
X24174499Y19348499D01*
X24174499Y19348499D02*
X22860000Y18034000D01*
X16637000Y24384000D02*
X16637000Y21844000D01*
X17098000Y21383000D02*
X16637000Y21844000D01*
X17098000Y19238000D02*
X17098000Y21383000D01*
X18542000Y24384000D02*
X18796000Y24130000D01*
X16637000Y24384000D02*
X18542000Y24384000D01*
X18542000Y21844000D02*
X18796000Y21590000D01*
X16637000Y21844000D02*
X18542000Y21844000D01*
X37846000Y29464000D02*
X35306000Y29464000D01*
X32512000Y29464000D02*
X32004000Y29972000D01*
X35306000Y29464000D02*
X32512000Y29464000D01*
X18459500Y18288000D02*
X17780000Y18288000D01*
X14398000Y18288000D02*
X17780000Y18288000D01*
X20447000Y18288000D02*
X20955000Y17780000D01*
X17780000Y18288000D02*
X20447000Y18288000D01*
D29*
X37846000Y11176000D02*
X35306000Y11176000D01*
X35306000Y11176000D02*
X32512000Y11176000D01*
D27*
X24384000Y32853000D02*
X24384000Y33528000D01*
X25784000Y32128000D02*
X25109000Y32128000D01*
X26284000Y31628000D02*
X25784000Y32128000D01*
X26284000Y30108000D02*
X26284000Y31628000D01*
X22813500Y32682500D02*
X24554500Y32682500D01*
X21670000Y31539000D02*
X22813500Y32682500D01*
X21670000Y28890000D02*
X21670000Y31539000D01*
X25109000Y32128000D02*
X24554500Y32682500D01*
X24554500Y32682500D02*
X24384000Y32853000D01*
X32004000Y34544000D02*
X32004000Y31877000D01*
X30720001Y35827999D02*
X32004000Y34544000D01*
X25159999Y35827999D02*
X30720001Y35827999D01*
X24384000Y35052000D02*
X25159999Y35827999D01*
X24384000Y33528000D02*
X24384000Y35052000D01*
D28*
X14732000Y25850998D02*
X14732000Y24384000D01*
X14760501Y25879499D02*
X14732000Y25850998D01*
D27*
X15982002Y26990000D02*
X17206000Y26990000D01*
X18970000Y26990000D02*
X17206000Y26990000D01*
X14732000Y25739998D02*
X15070001Y26077999D01*
X14732000Y24384000D02*
X14732000Y25739998D01*
X14871501Y25879499D02*
X15070001Y26077999D01*
X15070001Y26077999D02*
X15982002Y26990000D01*
X14732000Y24384000D02*
X14732000Y21844000D01*
X13218000Y17338000D02*
X12192000Y18364000D01*
X14398000Y17338000D02*
X13218000Y17338000D01*
X12192000Y18364000D02*
X12192000Y25908000D01*
X15240000Y28956000D02*
X15240000Y31242000D01*
X12192000Y25908000D02*
X15240000Y28956000D01*
X15306000Y28890000D02*
X15240000Y28956000D01*
X18970000Y28890000D02*
X15306000Y28890000D01*
X15240000Y33782000D02*
X15240000Y31242000D01*
D30*
G36*
X50011000Y789000D02*
G01*
X789000Y789000D01*
X789000Y9377680D01*
X20131816Y9377680D01*
X20131816Y6878320D01*
X20140215Y6793045D01*
X20165089Y6711048D01*
X20205481Y6635478D01*
X20259841Y6569241D01*
X20326078Y6514881D01*
X20401648Y6474489D01*
X20483645Y6449615D01*
X20568920Y6441216D01*
X23119080Y6441216D01*
X23204355Y6449615D01*
X23286352Y6474489D01*
X23361922Y6514881D01*
X23428159Y6569241D01*
X23482519Y6635478D01*
X23522911Y6711048D01*
X23547785Y6793045D01*
X23556184Y6878320D01*
X23556184Y8119317D01*
X25909764Y10472896D01*
X26944084Y10472896D01*
X27078913Y10400828D01*
X27236311Y10353082D01*
X27399999Y10336960D01*
X27441018Y10341000D01*
X28733268Y10341000D01*
X28733295Y10340725D01*
X28758169Y10258728D01*
X28798561Y10183158D01*
X28852921Y10116921D01*
X28919158Y10062561D01*
X28994728Y10022169D01*
X29076725Y9997295D01*
X29162000Y9988896D01*
X30462000Y9988896D01*
X30547275Y9997295D01*
X30629272Y10022169D01*
X30704842Y10062561D01*
X30771079Y10116921D01*
X30825439Y10183158D01*
X30865831Y10258728D01*
X30890705Y10340725D01*
X30899104Y10426000D01*
X30899104Y11926000D01*
X31424896Y11926000D01*
X31424896Y10426000D01*
X31433295Y10340725D01*
X31458169Y10258728D01*
X31498561Y10183158D01*
X31552921Y10116921D01*
X31619158Y10062561D01*
X31694728Y10022169D01*
X31776725Y9997295D01*
X31862000Y9988896D01*
X33162000Y9988896D01*
X33247275Y9997295D01*
X33329272Y10022169D01*
X33404842Y10062561D01*
X33471079Y10116921D01*
X33525439Y10183158D01*
X33565831Y10258728D01*
X33590705Y10340725D01*
X33590732Y10341000D01*
X34114086Y10341000D01*
X34115295Y10328725D01*
X34140169Y10246728D01*
X34180561Y10171158D01*
X34234921Y10104921D01*
X34301158Y10050561D01*
X34376728Y10010169D01*
X34458725Y9985295D01*
X34544000Y9976896D01*
X36068000Y9976896D01*
X36153275Y9985295D01*
X36235272Y10010169D01*
X36310842Y10050561D01*
X36377079Y10104921D01*
X36431439Y10171158D01*
X36471831Y10246728D01*
X36496705Y10328725D01*
X36497914Y10341000D01*
X36654086Y10341000D01*
X36655295Y10328725D01*
X36680169Y10246728D01*
X36720561Y10171158D01*
X36774921Y10104921D01*
X36841158Y10050561D01*
X36916728Y10010169D01*
X36998725Y9985295D01*
X37084000Y9976896D01*
X38608000Y9976896D01*
X38693275Y9985295D01*
X38775272Y10010169D01*
X38850842Y10050561D01*
X38917079Y10104921D01*
X38971439Y10171158D01*
X39011831Y10246728D01*
X39036705Y10328725D01*
X39045104Y10414000D01*
X39045104Y11938000D01*
X39036705Y12023275D01*
X39011831Y12105272D01*
X38971439Y12180842D01*
X38917079Y12247079D01*
X38850842Y12301439D01*
X38775272Y12341831D01*
X38693275Y12366705D01*
X38608000Y12375104D01*
X37084000Y12375104D01*
X36998725Y12366705D01*
X36916728Y12341831D01*
X36841158Y12301439D01*
X36774921Y12247079D01*
X36720561Y12180842D01*
X36680169Y12105272D01*
X36655295Y12023275D01*
X36654086Y12011000D01*
X36497914Y12011000D01*
X36496705Y12023275D01*
X36471831Y12105272D01*
X36431439Y12180842D01*
X36377079Y12247079D01*
X36310842Y12301439D01*
X36235272Y12341831D01*
X36153275Y12366705D01*
X36068000Y12375104D01*
X34544000Y12375104D01*
X34458725Y12366705D01*
X34376728Y12341831D01*
X34301158Y12301439D01*
X34234921Y12247079D01*
X34180561Y12180842D01*
X34140169Y12105272D01*
X34115295Y12023275D01*
X34114086Y12011000D01*
X33590732Y12011000D01*
X33590705Y12011275D01*
X33565831Y12093272D01*
X33525439Y12168842D01*
X33471079Y12235079D01*
X33404842Y12289439D01*
X33329272Y12329831D01*
X33247275Y12354705D01*
X33162000Y12363104D01*
X31862000Y12363104D01*
X31776725Y12354705D01*
X31694728Y12329831D01*
X31619158Y12289439D01*
X31552921Y12235079D01*
X31498561Y12168842D01*
X31458169Y12093272D01*
X31433295Y12011275D01*
X31424896Y11926000D01*
X30899104Y11926000D01*
X30890705Y12011275D01*
X30865831Y12093272D01*
X30825439Y12168842D01*
X30807000Y12191310D01*
X30807000Y14349287D01*
X30820331Y14374228D01*
X30845205Y14456225D01*
X30853604Y14541500D01*
X30853604Y15938500D01*
X30845205Y16023775D01*
X30820331Y16105772D01*
X30807000Y16130713D01*
X30807000Y18246982D01*
X30811040Y18288000D01*
X30807000Y18329019D01*
X30807000Y26374993D01*
X30811039Y26416001D01*
X30807000Y26457009D01*
X30807000Y26457019D01*
X30794918Y26579689D01*
X30747172Y26737087D01*
X30669636Y26882146D01*
X30599604Y26967480D01*
X30599604Y27368500D01*
X30591205Y27453775D01*
X30566331Y27535772D01*
X30525939Y27611342D01*
X30471579Y27677579D01*
X30405342Y27731939D01*
X30329772Y27772331D01*
X30247775Y27797205D01*
X30162500Y27805604D01*
X28765500Y27805604D01*
X28680225Y27797205D01*
X28598228Y27772331D01*
X28522658Y27731939D01*
X28456421Y27677579D01*
X28402061Y27611342D01*
X28361669Y27535772D01*
X28336795Y27453775D01*
X28328396Y27368500D01*
X28328396Y26479500D01*
X28336795Y26394225D01*
X28361669Y26312228D01*
X28402061Y26236658D01*
X28456421Y26170421D01*
X28522658Y26116061D01*
X28598228Y26075669D01*
X28680225Y26050795D01*
X28765500Y26042396D01*
X29137001Y26042396D01*
X29137000Y19123000D01*
X27599027Y19123000D01*
X27858960Y19382932D01*
X27883185Y19402813D01*
X27903065Y19427037D01*
X27903069Y19427041D01*
X27962538Y19499504D01*
X28021502Y19609818D01*
X28057812Y19729516D01*
X28067000Y19822806D01*
X28067000Y19822809D01*
X28070072Y19853998D01*
X28067000Y19885187D01*
X28067000Y24733820D01*
X28070071Y24765001D01*
X28067000Y24796182D01*
X28067000Y24796192D01*
X28057812Y24889482D01*
X28021502Y25009180D01*
X27962538Y25119493D01*
X27962537Y25119495D01*
X27903068Y25191957D01*
X27883185Y25216185D01*
X27858956Y25236069D01*
X25900604Y27194420D01*
X25900604Y28130500D01*
X25892205Y28215775D01*
X25867331Y28297772D01*
X25826939Y28373342D01*
X25772579Y28439579D01*
X25706342Y28493939D01*
X25630772Y28534331D01*
X25548775Y28559205D01*
X25463500Y28567604D01*
X25019000Y28567604D01*
X25019000Y28800043D01*
X25072439Y28865158D01*
X25112831Y28940728D01*
X25137705Y29022725D01*
X25146104Y29108000D01*
X25146104Y31108000D01*
X25137705Y31193275D01*
X25112831Y31275272D01*
X25072439Y31350842D01*
X25018079Y31417079D01*
X24951842Y31471439D01*
X24876272Y31511831D01*
X24794275Y31536705D01*
X24709000Y31545104D01*
X24059000Y31545104D01*
X23973725Y31536705D01*
X23891728Y31511831D01*
X23816158Y31471439D01*
X23749921Y31417079D01*
X23695561Y31350842D01*
X23655169Y31275272D01*
X23630295Y31193275D01*
X23621896Y31108000D01*
X23621896Y29108000D01*
X23630295Y29022725D01*
X23655169Y28940728D01*
X23695561Y28865158D01*
X23749001Y28800042D01*
X23749001Y28098191D01*
X23745929Y28067000D01*
X23758189Y27942519D01*
X23794498Y27822821D01*
X23850083Y27718831D01*
X23853464Y27712506D01*
X23932816Y27615815D01*
X23957045Y27595931D01*
X24137396Y27415579D01*
X24137396Y26733500D01*
X24145795Y26648225D01*
X24170669Y26566228D01*
X24211061Y26490658D01*
X24265421Y26424421D01*
X24331658Y26370061D01*
X24407228Y26329669D01*
X24489225Y26304795D01*
X24574500Y26296396D01*
X25002580Y26296396D01*
X25786131Y25512844D01*
X25717500Y25519604D01*
X25289421Y25519604D01*
X24899573Y25909451D01*
X24879684Y25933686D01*
X24782993Y26013038D01*
X24672679Y26072003D01*
X24552981Y26108313D01*
X24459691Y26117501D01*
X24459680Y26117501D01*
X24428499Y26120572D01*
X24397318Y26117501D01*
X23895525Y26117501D01*
X22887104Y27125920D01*
X22887104Y27315000D01*
X22878705Y27400275D01*
X22853831Y27482272D01*
X22813439Y27557842D01*
X22759079Y27624079D01*
X22692842Y27678439D01*
X22617272Y27718831D01*
X22535275Y27743705D01*
X22450000Y27752104D01*
X20890000Y27752104D01*
X20804725Y27743705D01*
X20722728Y27718831D01*
X20647158Y27678439D01*
X20580921Y27624079D01*
X20526561Y27557842D01*
X20486169Y27482272D01*
X20461295Y27400275D01*
X20452896Y27315000D01*
X20452896Y26665000D01*
X20461295Y26579725D01*
X20486169Y26497728D01*
X20526561Y26422158D01*
X20580921Y26355921D01*
X20647158Y26301561D01*
X20722728Y26261169D01*
X20804725Y26236295D01*
X20890000Y26227896D01*
X21989080Y26227896D01*
X23161433Y25055541D01*
X23181314Y25031316D01*
X23205538Y25011436D01*
X23205542Y25011432D01*
X23278005Y24951963D01*
X23388319Y24892999D01*
X23508017Y24856689D01*
X23601307Y24847501D01*
X23601310Y24847501D01*
X23632499Y24844429D01*
X23663688Y24847501D01*
X24165475Y24847501D01*
X24391396Y24621579D01*
X24391396Y23685500D01*
X24399795Y23600225D01*
X24424669Y23518228D01*
X24438000Y23493286D01*
X24438001Y23242714D01*
X24424669Y23217772D01*
X24399795Y23135775D01*
X24391396Y23050500D01*
X24391396Y21653500D01*
X24399795Y21568225D01*
X24424669Y21486228D01*
X24438001Y21461286D01*
X24438001Y20869028D01*
X24433960Y20828000D01*
X24450082Y20664312D01*
X24497828Y20506914D01*
X24575364Y20361855D01*
X24598907Y20333168D01*
X24679710Y20234709D01*
X24711573Y20208559D01*
X24772396Y20147737D01*
X24772396Y19983499D01*
X24205679Y19983499D01*
X24174498Y19986570D01*
X24143317Y19983499D01*
X24143307Y19983499D01*
X24050017Y19974311D01*
X23930319Y19938001D01*
X23858430Y19899575D01*
X23820004Y19879036D01*
X23789496Y19853998D01*
X23723314Y19799684D01*
X23703430Y19775455D01*
X22843580Y18915604D01*
X22415500Y18915604D01*
X22330225Y18907205D01*
X22248228Y18882331D01*
X22172658Y18841939D01*
X22106421Y18787579D01*
X22052061Y18721342D01*
X22011669Y18645772D01*
X21986795Y18563775D01*
X21978396Y18478500D01*
X21978396Y17081500D01*
X21986795Y16996225D01*
X22011669Y16914228D01*
X22052061Y16838658D01*
X22106421Y16772421D01*
X22172658Y16718061D01*
X22248228Y16677669D01*
X22330225Y16652795D01*
X22415500Y16644396D01*
X23304500Y16644396D01*
X23389775Y16652795D01*
X23471772Y16677669D01*
X23547342Y16718061D01*
X23613579Y16772421D01*
X23667939Y16838658D01*
X23708331Y16914228D01*
X23733205Y16996225D01*
X23741604Y17081500D01*
X23741604Y18017580D01*
X24437524Y18713499D01*
X24772396Y18713499D01*
X24772396Y17843500D01*
X24780795Y17758225D01*
X24805669Y17676228D01*
X24846061Y17600658D01*
X24900421Y17534421D01*
X24966658Y17480061D01*
X25042228Y17439669D01*
X25124225Y17414795D01*
X25209500Y17406396D01*
X26606500Y17406396D01*
X26691775Y17414795D01*
X26773772Y17439669D01*
X26798713Y17453000D01*
X29137001Y17453000D01*
X29137000Y16130714D01*
X29123669Y16105772D01*
X29098795Y16023775D01*
X29090396Y15938500D01*
X29090396Y14541500D01*
X29098795Y14456225D01*
X29123669Y14374228D01*
X29137000Y14349286D01*
X29137001Y12360642D01*
X29076725Y12354705D01*
X28994728Y12329831D01*
X28919158Y12289439D01*
X28852921Y12235079D01*
X28798561Y12168842D01*
X28758169Y12093272D01*
X28733295Y12011275D01*
X28733268Y12011000D01*
X27753104Y12011000D01*
X27753104Y13410000D01*
X27744705Y13495275D01*
X27719831Y13577272D01*
X27679439Y13652842D01*
X27625079Y13719079D01*
X27558842Y13773439D01*
X27483272Y13813831D01*
X27401275Y13838705D01*
X27316000Y13847104D01*
X25516000Y13847104D01*
X25430725Y13838705D01*
X25348728Y13813831D01*
X25273158Y13773439D01*
X25206921Y13719079D01*
X25152561Y13652842D01*
X25112169Y13577272D01*
X25087295Y13495275D01*
X25078896Y13410000D01*
X25078896Y12003764D01*
X22889917Y9814784D01*
X22552000Y9814784D01*
X22552000Y11301287D01*
X22565331Y11326228D01*
X22590205Y11408225D01*
X22598604Y11493500D01*
X22598604Y12890500D01*
X22590205Y12975775D01*
X22565331Y13057772D01*
X22524939Y13133342D01*
X22470579Y13199579D01*
X22404342Y13253939D01*
X22328772Y13294331D01*
X22246775Y13319205D01*
X22161500Y13327604D01*
X21272500Y13327604D01*
X21187225Y13319205D01*
X21105228Y13294331D01*
X21029658Y13253939D01*
X20963421Y13199579D01*
X20909061Y13133342D01*
X20868669Y13057772D01*
X20843795Y12975775D01*
X20835396Y12890500D01*
X20835396Y11493500D01*
X20843795Y11408225D01*
X20868669Y11326228D01*
X20882000Y11301286D01*
X20882001Y9814784D01*
X20568920Y9814784D01*
X20483645Y9806385D01*
X20401648Y9781511D01*
X20326078Y9741119D01*
X20259841Y9686759D01*
X20205481Y9620522D01*
X20165089Y9544952D01*
X20140215Y9462955D01*
X20131816Y9377680D01*
X789000Y9377680D01*
X789000Y20503572D01*
X2474000Y20503572D01*
X2474000Y9976429D01*
X5894000Y9976429D01*
X5894000Y20503572D01*
X2474000Y20503572D01*
X789000Y20503572D01*
X789000Y25908000D01*
X11553929Y25908000D01*
X11557001Y25876809D01*
X11557000Y18395181D01*
X11553929Y18364000D01*
X11557000Y18332819D01*
X11557000Y18332809D01*
X11566188Y18239519D01*
X11602498Y18119821D01*
X11661463Y18009507D01*
X11740815Y17912815D01*
X11765050Y17892926D01*
X12746930Y16911045D01*
X12766815Y16886815D01*
X12863506Y16807463D01*
X12973820Y16748498D01*
X13093518Y16712188D01*
X13186808Y16703000D01*
X13186818Y16703000D01*
X13217999Y16699929D01*
X13249180Y16703000D01*
X13310043Y16703000D01*
X13375158Y16649561D01*
X13450728Y16609169D01*
X13532725Y16584295D01*
X13618000Y16575896D01*
X15178000Y16575896D01*
X15263275Y16584295D01*
X15345272Y16609169D01*
X15420842Y16649561D01*
X15487079Y16703921D01*
X15541439Y16770158D01*
X15581831Y16845728D01*
X15606705Y16927725D01*
X15615104Y17013000D01*
X15615104Y17653000D01*
X15880896Y17653000D01*
X15880896Y17013000D01*
X15889295Y16927725D01*
X15914169Y16845728D01*
X15954561Y16770158D01*
X16008921Y16703921D01*
X16075158Y16649561D01*
X16150728Y16609169D01*
X16232725Y16584295D01*
X16318000Y16575896D01*
X16463000Y16575896D01*
X16463001Y15318191D01*
X16459929Y15287000D01*
X16472189Y15162519D01*
X16508498Y15042821D01*
X16567463Y14932507D01*
X16567464Y14932506D01*
X16646816Y14835815D01*
X16671045Y14815931D01*
X16771396Y14715580D01*
X16771396Y14033500D01*
X16779795Y13948225D01*
X16804669Y13866228D01*
X16845061Y13790658D01*
X16899421Y13724421D01*
X16965658Y13670061D01*
X17018000Y13642084D01*
X17018001Y13189319D01*
X16972061Y13133342D01*
X16931669Y13057772D01*
X16906795Y12975775D01*
X16898396Y12890500D01*
X16898396Y11493500D01*
X16906795Y11408225D01*
X16931669Y11326228D01*
X16972061Y11250658D01*
X17026421Y11184421D01*
X17092658Y11130061D01*
X17168228Y11089669D01*
X17250225Y11064795D01*
X17335500Y11056396D01*
X18224500Y11056396D01*
X18309775Y11064795D01*
X18391772Y11089669D01*
X18467342Y11130061D01*
X18533579Y11184421D01*
X18587939Y11250658D01*
X18628331Y11326228D01*
X18653205Y11408225D01*
X18661604Y11493500D01*
X18661604Y11557000D01*
X18930396Y11557000D01*
X18930396Y11493500D01*
X18938795Y11408225D01*
X18963669Y11326228D01*
X19004061Y11250658D01*
X19058421Y11184421D01*
X19124658Y11130061D01*
X19200228Y11089669D01*
X19282225Y11064795D01*
X19367500Y11056396D01*
X20256500Y11056396D01*
X20341775Y11064795D01*
X20423772Y11089669D01*
X20499342Y11130061D01*
X20565579Y11184421D01*
X20619939Y11250658D01*
X20660331Y11326228D01*
X20685205Y11408225D01*
X20693604Y11493500D01*
X20693604Y12890500D01*
X20685205Y12975775D01*
X20660331Y13057772D01*
X20619939Y13133342D01*
X20565579Y13199579D01*
X20499342Y13253939D01*
X20423772Y13294331D01*
X20341775Y13319205D01*
X20256500Y13327604D01*
X19367500Y13327604D01*
X19282225Y13319205D01*
X19200228Y13294331D01*
X19124658Y13253939D01*
X19058421Y13199579D01*
X19004061Y13133342D01*
X18963669Y13057772D01*
X18938795Y12975775D01*
X18930396Y12890500D01*
X18930396Y12827000D01*
X18661604Y12827000D01*
X18661604Y12890500D01*
X18653205Y12975775D01*
X18628331Y13057772D01*
X18587939Y13133342D01*
X18533579Y13199579D01*
X18467342Y13253939D01*
X18391772Y13294331D01*
X18309775Y13319205D01*
X18288000Y13321350D01*
X18288000Y13642084D01*
X18340342Y13670061D01*
X18406579Y13724421D01*
X18460939Y13790658D01*
X18501331Y13866228D01*
X18526205Y13948225D01*
X18534604Y14033500D01*
X18534604Y15430500D01*
X18526205Y15515775D01*
X18501331Y15597772D01*
X18460939Y15673342D01*
X18406579Y15739579D01*
X18340342Y15793939D01*
X18264772Y15834331D01*
X18182775Y15859205D01*
X18097500Y15867604D01*
X17733000Y15867604D01*
X17733000Y16575896D01*
X17878000Y16575896D01*
X17963275Y16584295D01*
X18045272Y16609169D01*
X18120842Y16649561D01*
X18187079Y16703921D01*
X18241439Y16770158D01*
X18281831Y16845728D01*
X18306705Y16927725D01*
X18315104Y17013000D01*
X18315104Y17653000D01*
X20073396Y17653000D01*
X20073396Y17081500D01*
X20081795Y16996225D01*
X20106669Y16914228D01*
X20147061Y16838658D01*
X20201421Y16772421D01*
X20267658Y16718061D01*
X20343228Y16677669D01*
X20425225Y16652795D01*
X20510500Y16644396D01*
X21399500Y16644396D01*
X21484775Y16652795D01*
X21566772Y16677669D01*
X21642342Y16718061D01*
X21708579Y16772421D01*
X21762939Y16838658D01*
X21803331Y16914228D01*
X21828205Y16996225D01*
X21836604Y17081500D01*
X21836604Y18478500D01*
X21828205Y18563775D01*
X21803331Y18645772D01*
X21762939Y18721342D01*
X21708579Y18787579D01*
X21642342Y18841939D01*
X21566772Y18882331D01*
X21484775Y18907205D01*
X21399500Y18915604D01*
X20553287Y18915604D01*
X20478192Y18923000D01*
X20478181Y18923000D01*
X20447000Y18926071D01*
X20415819Y18923000D01*
X18315104Y18923000D01*
X18315104Y19563000D01*
X18306705Y19648275D01*
X18281831Y19730272D01*
X18241439Y19805842D01*
X18187079Y19872079D01*
X18120842Y19926439D01*
X18045272Y19966831D01*
X17963275Y19991705D01*
X17878000Y20000104D01*
X17733000Y20000104D01*
X17733000Y20512291D01*
X17791158Y20464561D01*
X17866728Y20424169D01*
X17948725Y20399295D01*
X18034000Y20390896D01*
X19558000Y20390896D01*
X19643275Y20399295D01*
X19725272Y20424169D01*
X19800842Y20464561D01*
X19867079Y20518921D01*
X19921439Y20585158D01*
X19961831Y20660728D01*
X19986705Y20742725D01*
X19995104Y20828000D01*
X19995104Y22352000D01*
X19986705Y22437275D01*
X19961831Y22519272D01*
X19921439Y22594842D01*
X19867079Y22661079D01*
X19800842Y22715439D01*
X19725272Y22755831D01*
X19643275Y22780705D01*
X19558000Y22789104D01*
X18034000Y22789104D01*
X17948725Y22780705D01*
X17866728Y22755831D01*
X17791158Y22715439D01*
X17724921Y22661079D01*
X17670561Y22594842D01*
X17630169Y22519272D01*
X17617952Y22479000D01*
X17518604Y22479000D01*
X17518604Y22542500D01*
X17510205Y22627775D01*
X17485331Y22709772D01*
X17444939Y22785342D01*
X17390579Y22851579D01*
X17324342Y22905939D01*
X17272000Y22933916D01*
X17272000Y23294084D01*
X17324342Y23322061D01*
X17390579Y23376421D01*
X17444939Y23442658D01*
X17485331Y23518228D01*
X17510205Y23600225D01*
X17518604Y23685500D01*
X17518604Y23749000D01*
X17596896Y23749000D01*
X17596896Y23368000D01*
X17605295Y23282725D01*
X17630169Y23200728D01*
X17670561Y23125158D01*
X17724921Y23058921D01*
X17791158Y23004561D01*
X17866728Y22964169D01*
X17948725Y22939295D01*
X18034000Y22930896D01*
X19558000Y22930896D01*
X19643275Y22939295D01*
X19725272Y22964169D01*
X19800842Y23004561D01*
X19867079Y23058921D01*
X19921439Y23125158D01*
X19961831Y23200728D01*
X19986705Y23282725D01*
X19995104Y23368000D01*
X19995104Y24892000D01*
X19986705Y24977275D01*
X19961831Y25059272D01*
X19921439Y25134842D01*
X19867079Y25201079D01*
X19800842Y25255439D01*
X19725272Y25295831D01*
X19643275Y25320705D01*
X19558000Y25329104D01*
X18034000Y25329104D01*
X17948725Y25320705D01*
X17866728Y25295831D01*
X17791158Y25255439D01*
X17724921Y25201079D01*
X17670561Y25134842D01*
X17630169Y25059272D01*
X17617952Y25019000D01*
X17518604Y25019000D01*
X17518604Y25082500D01*
X17510205Y25167775D01*
X17485331Y25249772D01*
X17444939Y25325342D01*
X17390579Y25391579D01*
X17324342Y25445939D01*
X17248772Y25486331D01*
X17166775Y25511205D01*
X17081500Y25519604D01*
X16192500Y25519604D01*
X16107225Y25511205D01*
X16025228Y25486331D01*
X15949658Y25445939D01*
X15883421Y25391579D01*
X15829061Y25325342D01*
X15788669Y25249772D01*
X15763795Y25167775D01*
X15755396Y25082500D01*
X15755396Y23685500D01*
X15763795Y23600225D01*
X15788669Y23518228D01*
X15829061Y23442658D01*
X15883421Y23376421D01*
X15949658Y23322061D01*
X16002000Y23294084D01*
X16002001Y22933916D01*
X15949658Y22905939D01*
X15883421Y22851579D01*
X15829061Y22785342D01*
X15788669Y22709772D01*
X15763795Y22627775D01*
X15755396Y22542500D01*
X15755396Y21145500D01*
X15763795Y21060225D01*
X15788669Y20978228D01*
X15829061Y20902658D01*
X15883421Y20836421D01*
X15949658Y20782061D01*
X16025228Y20741669D01*
X16107225Y20716795D01*
X16192500Y20708396D01*
X16463001Y20708396D01*
X16463000Y20000104D01*
X16318000Y20000104D01*
X16232725Y19991705D01*
X16150728Y19966831D01*
X16075158Y19926439D01*
X16008921Y19872079D01*
X15954561Y19805842D01*
X15914169Y19730272D01*
X15889295Y19648275D01*
X15880896Y19563000D01*
X15880896Y18923000D01*
X15485957Y18923000D01*
X15420842Y18976439D01*
X15345272Y19016831D01*
X15263275Y19041705D01*
X15178000Y19050104D01*
X13618000Y19050104D01*
X13532725Y19041705D01*
X13450728Y19016831D01*
X13375158Y18976439D01*
X13308921Y18922079D01*
X13254561Y18855842D01*
X13214169Y18780272D01*
X13189295Y18698275D01*
X13180896Y18613000D01*
X13180896Y18273129D01*
X12827000Y18627024D01*
X12827000Y25082500D01*
X13850396Y25082500D01*
X13850396Y23685500D01*
X13858795Y23600225D01*
X13883669Y23518228D01*
X13924061Y23442658D01*
X13978421Y23376421D01*
X14044658Y23322061D01*
X14097000Y23294084D01*
X14097001Y22933916D01*
X14044658Y22905939D01*
X13978421Y22851579D01*
X13924061Y22785342D01*
X13883669Y22709772D01*
X13858795Y22627775D01*
X13850396Y22542500D01*
X13850396Y21145500D01*
X13858795Y21060225D01*
X13883669Y20978228D01*
X13924061Y20902658D01*
X13978421Y20836421D01*
X14044658Y20782061D01*
X14120228Y20741669D01*
X14202225Y20716795D01*
X14287500Y20708396D01*
X15176500Y20708396D01*
X15261775Y20716795D01*
X15343772Y20741669D01*
X15419342Y20782061D01*
X15485579Y20836421D01*
X15539939Y20902658D01*
X15580331Y20978228D01*
X15605205Y21060225D01*
X15613604Y21145500D01*
X15613604Y22542500D01*
X15605205Y22627775D01*
X15580331Y22709772D01*
X15539939Y22785342D01*
X15485579Y22851579D01*
X15419342Y22905939D01*
X15367000Y22933916D01*
X15367000Y23294084D01*
X15419342Y23322061D01*
X15485579Y23376421D01*
X15539939Y23442658D01*
X15580331Y23518228D01*
X15605205Y23600225D01*
X15613604Y23685500D01*
X15613604Y25082500D01*
X15605205Y25167775D01*
X15580331Y25249772D01*
X15539939Y25325342D01*
X15485579Y25391579D01*
X15419342Y25445939D01*
X15367000Y25473916D01*
X15367000Y25476973D01*
X15541070Y25651043D01*
X15541074Y25651048D01*
X16245027Y26355000D01*
X17882043Y26355000D01*
X17947158Y26301561D01*
X18022728Y26261169D01*
X18104725Y26236295D01*
X18190000Y26227896D01*
X19750000Y26227896D01*
X19835275Y26236295D01*
X19917272Y26261169D01*
X19992842Y26301561D01*
X20059079Y26355921D01*
X20113439Y26422158D01*
X20153831Y26497728D01*
X20178705Y26579725D01*
X20187104Y26665000D01*
X20187104Y27315000D01*
X20178705Y27400275D01*
X20153831Y27482272D01*
X20113439Y27557842D01*
X20059079Y27624079D01*
X19992842Y27678439D01*
X19917272Y27718831D01*
X19835275Y27743705D01*
X19750000Y27752104D01*
X18190000Y27752104D01*
X18104725Y27743705D01*
X18022728Y27718831D01*
X17947158Y27678439D01*
X17882043Y27625000D01*
X16013182Y27625000D01*
X15982001Y27628071D01*
X15950820Y27625000D01*
X15950810Y27625000D01*
X15857520Y27615812D01*
X15737822Y27579502D01*
X15627508Y27520537D01*
X15530817Y27441185D01*
X15510932Y27416955D01*
X14643050Y26549072D01*
X14643045Y26549068D01*
X14411486Y26317508D01*
X14383972Y26294928D01*
X14355472Y26266428D01*
X14334105Y26248893D01*
X14298972Y26206083D01*
X14280816Y26191183D01*
X14260932Y26166954D01*
X14201463Y26094491D01*
X14142498Y25984177D01*
X14106189Y25864479D01*
X14093929Y25739998D01*
X14097001Y25708807D01*
X14097001Y25473916D01*
X14044658Y25445939D01*
X13978421Y25391579D01*
X13924061Y25325342D01*
X13883669Y25249772D01*
X13858795Y25167775D01*
X13850396Y25082500D01*
X12827000Y25082500D01*
X12827000Y25644976D01*
X15437025Y28255000D01*
X17882043Y28255000D01*
X17947158Y28201561D01*
X18022728Y28161169D01*
X18104725Y28136295D01*
X18190000Y28127896D01*
X19750000Y28127896D01*
X19835275Y28136295D01*
X19917272Y28161169D01*
X19992842Y28201561D01*
X20059079Y28255921D01*
X20113439Y28322158D01*
X20153831Y28397728D01*
X20178705Y28479725D01*
X20187104Y28565000D01*
X20187104Y29215000D01*
X20452896Y29215000D01*
X20452896Y28565000D01*
X20461295Y28479725D01*
X20486169Y28397728D01*
X20526561Y28322158D01*
X20580921Y28255921D01*
X20647158Y28201561D01*
X20722728Y28161169D01*
X20804725Y28136295D01*
X20890000Y28127896D01*
X22450000Y28127896D01*
X22535275Y28136295D01*
X22617272Y28161169D01*
X22692842Y28201561D01*
X22759079Y28255921D01*
X22813439Y28322158D01*
X22853831Y28397728D01*
X22878705Y28479725D01*
X22887104Y28565000D01*
X22887104Y29215000D01*
X22878705Y29300275D01*
X22853831Y29382272D01*
X22813439Y29457842D01*
X22759079Y29524079D01*
X22692842Y29578439D01*
X22617272Y29618831D01*
X22535275Y29643705D01*
X22450000Y29652104D01*
X22305000Y29652104D01*
X22305000Y31275976D01*
X23076525Y32047500D01*
X24291475Y32047500D01*
X24637934Y31701040D01*
X24657815Y31676815D01*
X24682039Y31656935D01*
X24682042Y31656932D01*
X24754505Y31597463D01*
X24791850Y31577502D01*
X24864820Y31538498D01*
X24984518Y31502188D01*
X25077808Y31493000D01*
X25077818Y31493000D01*
X25108999Y31489929D01*
X25140180Y31493000D01*
X25520975Y31493000D01*
X25626020Y31387955D01*
X25595561Y31350842D01*
X25555169Y31275272D01*
X25530295Y31193275D01*
X25521896Y31108000D01*
X25521896Y29108000D01*
X25530295Y29022725D01*
X25555169Y28940728D01*
X25595561Y28865158D01*
X25649921Y28798921D01*
X25716158Y28744561D01*
X25791728Y28704169D01*
X25873725Y28679295D01*
X25959000Y28670896D01*
X26609000Y28670896D01*
X26694275Y28679295D01*
X26776272Y28704169D01*
X26851842Y28744561D01*
X26918079Y28798921D01*
X26972439Y28865158D01*
X27012831Y28940728D01*
X27037705Y29022725D01*
X27046104Y29108000D01*
X27046104Y31108000D01*
X27037705Y31193275D01*
X27012831Y31275272D01*
X26972439Y31350842D01*
X26919000Y31415957D01*
X26919000Y31596811D01*
X26922072Y31628000D01*
X26919000Y31659192D01*
X26909812Y31752482D01*
X26873502Y31872180D01*
X26842948Y31929342D01*
X26814538Y31982494D01*
X26755069Y32054957D01*
X26755065Y32054961D01*
X26735185Y32079185D01*
X26710960Y32099066D01*
X26706901Y32103125D01*
X26776272Y32124169D01*
X26851842Y32164561D01*
X26918079Y32218921D01*
X26972439Y32285158D01*
X27012831Y32360728D01*
X27037705Y32442725D01*
X27046104Y32528000D01*
X27046104Y32893000D01*
X27185396Y32893000D01*
X27185396Y32829500D01*
X27193795Y32744225D01*
X27218669Y32662228D01*
X27259061Y32586658D01*
X27313421Y32520421D01*
X27379658Y32466061D01*
X27432000Y32438084D01*
X27432001Y32077916D01*
X27379658Y32049939D01*
X27313421Y31995579D01*
X27259061Y31929342D01*
X27218669Y31853772D01*
X27193795Y31771775D01*
X27185396Y31686500D01*
X27185396Y30289500D01*
X27193795Y30204225D01*
X27218669Y30122228D01*
X27259061Y30046658D01*
X27313421Y29980421D01*
X27379658Y29926061D01*
X27455228Y29885669D01*
X27537225Y29860795D01*
X27545960Y29859935D01*
X27567612Y29833552D01*
X27615816Y29774815D01*
X27640046Y29754930D01*
X28328396Y29066579D01*
X28328396Y28384500D01*
X28336795Y28299225D01*
X28361669Y28217228D01*
X28402061Y28141658D01*
X28456421Y28075421D01*
X28522658Y28021061D01*
X28598228Y27980669D01*
X28680225Y27955795D01*
X28765500Y27947396D01*
X30162500Y27947396D01*
X30247775Y27955795D01*
X30329772Y27980669D01*
X30405342Y28021061D01*
X30471579Y28075421D01*
X30525939Y28141658D01*
X30566331Y28217228D01*
X30591205Y28299225D01*
X30599604Y28384500D01*
X30599604Y29273500D01*
X30591205Y29358775D01*
X30566331Y29440772D01*
X30525939Y29516342D01*
X30471579Y29582579D01*
X30405342Y29636939D01*
X30329772Y29677331D01*
X30247775Y29702205D01*
X30162500Y29710604D01*
X29480421Y29710604D01*
X28944383Y30246642D01*
X28948604Y30289500D01*
X28948604Y30416500D01*
X30868396Y30416500D01*
X30868396Y29527500D01*
X30876795Y29442225D01*
X30901669Y29360228D01*
X30942061Y29284658D01*
X30996421Y29218421D01*
X31062658Y29164061D01*
X31138228Y29123669D01*
X31220225Y29098795D01*
X31305500Y29090396D01*
X31987578Y29090396D01*
X32040934Y29037040D01*
X32060815Y29012815D01*
X32085039Y28992935D01*
X32085042Y28992932D01*
X32157505Y28933463D01*
X32173696Y28924809D01*
X32267820Y28874498D01*
X32387518Y28838188D01*
X32480808Y28829000D01*
X32480818Y28829000D01*
X32511999Y28825929D01*
X32543180Y28829000D01*
X34106896Y28829000D01*
X34106896Y28702000D01*
X34115295Y28616725D01*
X34140169Y28534728D01*
X34180561Y28459158D01*
X34234921Y28392921D01*
X34301158Y28338561D01*
X34376728Y28298169D01*
X34458725Y28273295D01*
X34544000Y28264896D01*
X36068000Y28264896D01*
X36153275Y28273295D01*
X36235272Y28298169D01*
X36310842Y28338561D01*
X36377079Y28392921D01*
X36431439Y28459158D01*
X36471831Y28534728D01*
X36496705Y28616725D01*
X36505104Y28702000D01*
X36505104Y28829000D01*
X36646896Y28829000D01*
X36646896Y28702000D01*
X36655295Y28616725D01*
X36680169Y28534728D01*
X36720561Y28459158D01*
X36774921Y28392921D01*
X36841158Y28338561D01*
X36916728Y28298169D01*
X36998725Y28273295D01*
X37084000Y28264896D01*
X38608000Y28264896D01*
X38693275Y28273295D01*
X38775272Y28298169D01*
X38850842Y28338561D01*
X38917079Y28392921D01*
X38971439Y28459158D01*
X39011831Y28534728D01*
X39036705Y28616725D01*
X39045104Y28702000D01*
X39045104Y30226000D01*
X39036705Y30311275D01*
X39011831Y30393272D01*
X38971439Y30468842D01*
X38917079Y30535079D01*
X38850842Y30589439D01*
X38775272Y30629831D01*
X38693275Y30654705D01*
X38608000Y30663104D01*
X37084000Y30663104D01*
X36998725Y30654705D01*
X36916728Y30629831D01*
X36841158Y30589439D01*
X36774921Y30535079D01*
X36720561Y30468842D01*
X36680169Y30393272D01*
X36655295Y30311275D01*
X36646896Y30226000D01*
X36646896Y30099000D01*
X36505104Y30099000D01*
X36505104Y30226000D01*
X36496705Y30311275D01*
X36471831Y30393272D01*
X36431439Y30468842D01*
X36377079Y30535079D01*
X36310842Y30589439D01*
X36235272Y30629831D01*
X36153275Y30654705D01*
X36068000Y30663104D01*
X34544000Y30663104D01*
X34458725Y30654705D01*
X34376728Y30629831D01*
X34301158Y30589439D01*
X34234921Y30535079D01*
X34180561Y30468842D01*
X34140169Y30393272D01*
X34115295Y30311275D01*
X34106896Y30226000D01*
X34106896Y30099000D01*
X33139604Y30099000D01*
X33139604Y30416500D01*
X33131205Y30501775D01*
X33106331Y30583772D01*
X33065939Y30659342D01*
X33011579Y30725579D01*
X32945342Y30779939D01*
X32869772Y30820331D01*
X32787775Y30845205D01*
X32702500Y30853604D01*
X31305500Y30853604D01*
X31220225Y30845205D01*
X31138228Y30820331D01*
X31062658Y30779939D01*
X30996421Y30725579D01*
X30942061Y30659342D01*
X30901669Y30583772D01*
X30876795Y30501775D01*
X30868396Y30416500D01*
X28948604Y30416500D01*
X28948604Y31686500D01*
X28940205Y31771775D01*
X28915331Y31853772D01*
X28874939Y31929342D01*
X28820579Y31995579D01*
X28754342Y32049939D01*
X28702000Y32077916D01*
X28702000Y32438084D01*
X28754342Y32466061D01*
X28820579Y32520421D01*
X28874939Y32586658D01*
X28915331Y32662228D01*
X28940205Y32744225D01*
X28948604Y32829500D01*
X28948604Y34226500D01*
X28940205Y34311775D01*
X28915331Y34393772D01*
X28874939Y34469342D01*
X28820579Y34535579D01*
X28754342Y34589939D01*
X28678772Y34630331D01*
X28596775Y34655205D01*
X28511500Y34663604D01*
X27622500Y34663604D01*
X27537225Y34655205D01*
X27455228Y34630331D01*
X27379658Y34589939D01*
X27313421Y34535579D01*
X27259061Y34469342D01*
X27218669Y34393772D01*
X27193795Y34311775D01*
X27185396Y34226500D01*
X27185396Y34163000D01*
X27046104Y34163000D01*
X27046104Y34528000D01*
X27037705Y34613275D01*
X27012831Y34695272D01*
X26972439Y34770842D01*
X26918079Y34837079D01*
X26851842Y34891439D01*
X26776272Y34931831D01*
X26694275Y34956705D01*
X26609000Y34965104D01*
X25959000Y34965104D01*
X25873725Y34956705D01*
X25791728Y34931831D01*
X25716158Y34891439D01*
X25649921Y34837079D01*
X25595561Y34770842D01*
X25555169Y34695272D01*
X25530295Y34613275D01*
X25521896Y34528000D01*
X25521896Y32763000D01*
X25372025Y32763000D01*
X25146104Y32988921D01*
X25146104Y34528000D01*
X25137705Y34613275D01*
X25112831Y34695272D01*
X25072439Y34770842D01*
X25040177Y34810153D01*
X25423024Y35192999D01*
X30456977Y35192999D01*
X31369000Y34280974D01*
X31369001Y32758604D01*
X31305500Y32758604D01*
X31220225Y32750205D01*
X31138228Y32725331D01*
X31062658Y32684939D01*
X30996421Y32630579D01*
X30942061Y32564342D01*
X30901669Y32488772D01*
X30876795Y32406775D01*
X30868396Y32321500D01*
X30868396Y31432500D01*
X30876795Y31347225D01*
X30901669Y31265228D01*
X30942061Y31189658D01*
X30996421Y31123421D01*
X31062658Y31069061D01*
X31138228Y31028669D01*
X31220225Y31003795D01*
X31305500Y30995396D01*
X32702500Y30995396D01*
X32787775Y31003795D01*
X32869772Y31028669D01*
X32945342Y31069061D01*
X33011579Y31123421D01*
X33065939Y31189658D01*
X33106331Y31265228D01*
X33131205Y31347225D01*
X33139604Y31432500D01*
X33139604Y32321500D01*
X33131205Y32406775D01*
X33106331Y32488772D01*
X33065939Y32564342D01*
X33011579Y32630579D01*
X32945342Y32684939D01*
X32869772Y32725331D01*
X32787775Y32750205D01*
X32702500Y32758604D01*
X32639000Y32758604D01*
X32639000Y34512811D01*
X32642072Y34544000D01*
X32639000Y34575192D01*
X32629812Y34668482D01*
X32593502Y34788180D01*
X32534538Y34898494D01*
X32475069Y34970957D01*
X32475065Y34970961D01*
X32455185Y34995185D01*
X32430961Y35015064D01*
X31191075Y36254949D01*
X31171186Y36279184D01*
X31074495Y36358536D01*
X30964181Y36417501D01*
X30844483Y36453811D01*
X30751193Y36462999D01*
X30751182Y36462999D01*
X30720001Y36466070D01*
X30688820Y36462999D01*
X25191179Y36462999D01*
X25159998Y36466070D01*
X25128817Y36462999D01*
X25128807Y36462999D01*
X25035517Y36453811D01*
X24915819Y36417501D01*
X24843930Y36379075D01*
X24805504Y36358536D01*
X24754372Y36316573D01*
X24708814Y36279184D01*
X24688929Y36254954D01*
X23957046Y35523070D01*
X23932816Y35503185D01*
X23912932Y35478956D01*
X23853463Y35406493D01*
X23794498Y35296179D01*
X23777001Y35238497D01*
X23763200Y35192999D01*
X23758189Y35176481D01*
X23745929Y35052000D01*
X23749001Y35020809D01*
X23749001Y34835958D01*
X23695561Y34770842D01*
X23655169Y34695272D01*
X23630295Y34613275D01*
X23621896Y34528000D01*
X23621896Y33317500D01*
X22844680Y33317500D01*
X22813499Y33320571D01*
X22782318Y33317500D01*
X22782308Y33317500D01*
X22689018Y33308312D01*
X22569320Y33272002D01*
X22459006Y33213037D01*
X22362315Y33133685D01*
X22342432Y33109457D01*
X21243046Y32010070D01*
X21218816Y31990185D01*
X21198932Y31965956D01*
X21139463Y31893493D01*
X21080498Y31783179D01*
X21055583Y31701044D01*
X21044189Y31663482D01*
X21035721Y31577502D01*
X21031929Y31539000D01*
X21035001Y31507809D01*
X21035000Y29652104D01*
X20890000Y29652104D01*
X20804725Y29643705D01*
X20722728Y29618831D01*
X20647158Y29578439D01*
X20580921Y29524079D01*
X20526561Y29457842D01*
X20486169Y29382272D01*
X20461295Y29300275D01*
X20452896Y29215000D01*
X20187104Y29215000D01*
X20178705Y29300275D01*
X20153831Y29382272D01*
X20113439Y29457842D01*
X20059079Y29524079D01*
X19992842Y29578439D01*
X19917272Y29618831D01*
X19835275Y29643705D01*
X19750000Y29652104D01*
X18190000Y29652104D01*
X18104725Y29643705D01*
X18022728Y29618831D01*
X17947158Y29578439D01*
X17882043Y29525000D01*
X15875000Y29525000D01*
X15875000Y30042896D01*
X16002000Y30042896D01*
X16087275Y30051295D01*
X16169272Y30076169D01*
X16244842Y30116561D01*
X16311079Y30170921D01*
X16365439Y30237158D01*
X16405831Y30312728D01*
X16430705Y30394725D01*
X16439104Y30480000D01*
X16439104Y32004000D01*
X16430705Y32089275D01*
X16405831Y32171272D01*
X16365439Y32246842D01*
X16311079Y32313079D01*
X16244842Y32367439D01*
X16169272Y32407831D01*
X16087275Y32432705D01*
X16002000Y32441104D01*
X15875000Y32441104D01*
X15875000Y32582896D01*
X16002000Y32582896D01*
X16087275Y32591295D01*
X16169272Y32616169D01*
X16244842Y32656561D01*
X16311079Y32710921D01*
X16365439Y32777158D01*
X16405831Y32852728D01*
X16430705Y32934725D01*
X16439104Y33020000D01*
X16439104Y34544000D01*
X16430705Y34629275D01*
X16405831Y34711272D01*
X16365439Y34786842D01*
X16311079Y34853079D01*
X16244842Y34907439D01*
X16169272Y34947831D01*
X16087275Y34972705D01*
X16002000Y34981104D01*
X14478000Y34981104D01*
X14392725Y34972705D01*
X14310728Y34947831D01*
X14235158Y34907439D01*
X14168921Y34853079D01*
X14114561Y34786842D01*
X14074169Y34711272D01*
X14049295Y34629275D01*
X14040896Y34544000D01*
X14040896Y33020000D01*
X14049295Y32934725D01*
X14074169Y32852728D01*
X14114561Y32777158D01*
X14168921Y32710921D01*
X14235158Y32656561D01*
X14310728Y32616169D01*
X14392725Y32591295D01*
X14478000Y32582896D01*
X14605000Y32582896D01*
X14605001Y32441104D01*
X14478000Y32441104D01*
X14392725Y32432705D01*
X14310728Y32407831D01*
X14235158Y32367439D01*
X14168921Y32313079D01*
X14114561Y32246842D01*
X14074169Y32171272D01*
X14049295Y32089275D01*
X14040896Y32004000D01*
X14040896Y30480000D01*
X14049295Y30394725D01*
X14074169Y30312728D01*
X14114561Y30237158D01*
X14168921Y30170921D01*
X14235158Y30116561D01*
X14310728Y30076169D01*
X14392725Y30051295D01*
X14478000Y30042896D01*
X14605000Y30042896D01*
X14605000Y29219025D01*
X11765046Y26379070D01*
X11740816Y26359185D01*
X11720932Y26334956D01*
X11661463Y26262493D01*
X11602498Y26152179D01*
X11584999Y26094491D01*
X11569197Y26042396D01*
X11566189Y26032481D01*
X11553929Y25908000D01*
X789000Y25908000D01*
X789000Y39851000D01*
X50011001Y39851000D01*
X50011000Y789000D01*
X50011000Y789000D01*
G37*
X50011000Y789000D02*
X789000Y789000D01*
X789000Y9377680D01*
X20131816Y9377680D01*
X20131816Y6878320D01*
X20140215Y6793045D01*
X20165089Y6711048D01*
X20205481Y6635478D01*
X20259841Y6569241D01*
X20326078Y6514881D01*
X20401648Y6474489D01*
X20483645Y6449615D01*
X20568920Y6441216D01*
X23119080Y6441216D01*
X23204355Y6449615D01*
X23286352Y6474489D01*
X23361922Y6514881D01*
X23428159Y6569241D01*
X23482519Y6635478D01*
X23522911Y6711048D01*
X23547785Y6793045D01*
X23556184Y6878320D01*
X23556184Y8119317D01*
X25909764Y10472896D01*
X26944084Y10472896D01*
X27078913Y10400828D01*
X27236311Y10353082D01*
X27399999Y10336960D01*
X27441018Y10341000D01*
X28733268Y10341000D01*
X28733295Y10340725D01*
X28758169Y10258728D01*
X28798561Y10183158D01*
X28852921Y10116921D01*
X28919158Y10062561D01*
X28994728Y10022169D01*
X29076725Y9997295D01*
X29162000Y9988896D01*
X30462000Y9988896D01*
X30547275Y9997295D01*
X30629272Y10022169D01*
X30704842Y10062561D01*
X30771079Y10116921D01*
X30825439Y10183158D01*
X30865831Y10258728D01*
X30890705Y10340725D01*
X30899104Y10426000D01*
X30899104Y11926000D01*
X31424896Y11926000D01*
X31424896Y10426000D01*
X31433295Y10340725D01*
X31458169Y10258728D01*
X31498561Y10183158D01*
X31552921Y10116921D01*
X31619158Y10062561D01*
X31694728Y10022169D01*
X31776725Y9997295D01*
X31862000Y9988896D01*
X33162000Y9988896D01*
X33247275Y9997295D01*
X33329272Y10022169D01*
X33404842Y10062561D01*
X33471079Y10116921D01*
X33525439Y10183158D01*
X33565831Y10258728D01*
X33590705Y10340725D01*
X33590732Y10341000D01*
X34114086Y10341000D01*
X34115295Y10328725D01*
X34140169Y10246728D01*
X34180561Y10171158D01*
X34234921Y10104921D01*
X34301158Y10050561D01*
X34376728Y10010169D01*
X34458725Y9985295D01*
X34544000Y9976896D01*
X36068000Y9976896D01*
X36153275Y9985295D01*
X36235272Y10010169D01*
X36310842Y10050561D01*
X36377079Y10104921D01*
X36431439Y10171158D01*
X36471831Y10246728D01*
X36496705Y10328725D01*
X36497914Y10341000D01*
X36654086Y10341000D01*
X36655295Y10328725D01*
X36680169Y10246728D01*
X36720561Y10171158D01*
X36774921Y10104921D01*
X36841158Y10050561D01*
X36916728Y10010169D01*
X36998725Y9985295D01*
X37084000Y9976896D01*
X38608000Y9976896D01*
X38693275Y9985295D01*
X38775272Y10010169D01*
X38850842Y10050561D01*
X38917079Y10104921D01*
X38971439Y10171158D01*
X39011831Y10246728D01*
X39036705Y10328725D01*
X39045104Y10414000D01*
X39045104Y11938000D01*
X39036705Y12023275D01*
X39011831Y12105272D01*
X38971439Y12180842D01*
X38917079Y12247079D01*
X38850842Y12301439D01*
X38775272Y12341831D01*
X38693275Y12366705D01*
X38608000Y12375104D01*
X37084000Y12375104D01*
X36998725Y12366705D01*
X36916728Y12341831D01*
X36841158Y12301439D01*
X36774921Y12247079D01*
X36720561Y12180842D01*
X36680169Y12105272D01*
X36655295Y12023275D01*
X36654086Y12011000D01*
X36497914Y12011000D01*
X36496705Y12023275D01*
X36471831Y12105272D01*
X36431439Y12180842D01*
X36377079Y12247079D01*
X36310842Y12301439D01*
X36235272Y12341831D01*
X36153275Y12366705D01*
X36068000Y12375104D01*
X34544000Y12375104D01*
X34458725Y12366705D01*
X34376728Y12341831D01*
X34301158Y12301439D01*
X34234921Y12247079D01*
X34180561Y12180842D01*
X34140169Y12105272D01*
X34115295Y12023275D01*
X34114086Y12011000D01*
X33590732Y12011000D01*
X33590705Y12011275D01*
X33565831Y12093272D01*
X33525439Y12168842D01*
X33471079Y12235079D01*
X33404842Y12289439D01*
X33329272Y12329831D01*
X33247275Y12354705D01*
X33162000Y12363104D01*
X31862000Y12363104D01*
X31776725Y12354705D01*
X31694728Y12329831D01*
X31619158Y12289439D01*
X31552921Y12235079D01*
X31498561Y12168842D01*
X31458169Y12093272D01*
X31433295Y12011275D01*
X31424896Y11926000D01*
X30899104Y11926000D01*
X30890705Y12011275D01*
X30865831Y12093272D01*
X30825439Y12168842D01*
X30807000Y12191310D01*
X30807000Y14349287D01*
X30820331Y14374228D01*
X30845205Y14456225D01*
X30853604Y14541500D01*
X30853604Y15938500D01*
X30845205Y16023775D01*
X30820331Y16105772D01*
X30807000Y16130713D01*
X30807000Y18246982D01*
X30811040Y18288000D01*
X30807000Y18329019D01*
X30807000Y26374993D01*
X30811039Y26416001D01*
X30807000Y26457009D01*
X30807000Y26457019D01*
X30794918Y26579689D01*
X30747172Y26737087D01*
X30669636Y26882146D01*
X30599604Y26967480D01*
X30599604Y27368500D01*
X30591205Y27453775D01*
X30566331Y27535772D01*
X30525939Y27611342D01*
X30471579Y27677579D01*
X30405342Y27731939D01*
X30329772Y27772331D01*
X30247775Y27797205D01*
X30162500Y27805604D01*
X28765500Y27805604D01*
X28680225Y27797205D01*
X28598228Y27772331D01*
X28522658Y27731939D01*
X28456421Y27677579D01*
X28402061Y27611342D01*
X28361669Y27535772D01*
X28336795Y27453775D01*
X28328396Y27368500D01*
X28328396Y26479500D01*
X28336795Y26394225D01*
X28361669Y26312228D01*
X28402061Y26236658D01*
X28456421Y26170421D01*
X28522658Y26116061D01*
X28598228Y26075669D01*
X28680225Y26050795D01*
X28765500Y26042396D01*
X29137001Y26042396D01*
X29137000Y19123000D01*
X27599027Y19123000D01*
X27858960Y19382932D01*
X27883185Y19402813D01*
X27903065Y19427037D01*
X27903069Y19427041D01*
X27962538Y19499504D01*
X28021502Y19609818D01*
X28057812Y19729516D01*
X28067000Y19822806D01*
X28067000Y19822809D01*
X28070072Y19853998D01*
X28067000Y19885187D01*
X28067000Y24733820D01*
X28070071Y24765001D01*
X28067000Y24796182D01*
X28067000Y24796192D01*
X28057812Y24889482D01*
X28021502Y25009180D01*
X27962538Y25119493D01*
X27962537Y25119495D01*
X27903068Y25191957D01*
X27883185Y25216185D01*
X27858956Y25236069D01*
X25900604Y27194420D01*
X25900604Y28130500D01*
X25892205Y28215775D01*
X25867331Y28297772D01*
X25826939Y28373342D01*
X25772579Y28439579D01*
X25706342Y28493939D01*
X25630772Y28534331D01*
X25548775Y28559205D01*
X25463500Y28567604D01*
X25019000Y28567604D01*
X25019000Y28800043D01*
X25072439Y28865158D01*
X25112831Y28940728D01*
X25137705Y29022725D01*
X25146104Y29108000D01*
X25146104Y31108000D01*
X25137705Y31193275D01*
X25112831Y31275272D01*
X25072439Y31350842D01*
X25018079Y31417079D01*
X24951842Y31471439D01*
X24876272Y31511831D01*
X24794275Y31536705D01*
X24709000Y31545104D01*
X24059000Y31545104D01*
X23973725Y31536705D01*
X23891728Y31511831D01*
X23816158Y31471439D01*
X23749921Y31417079D01*
X23695561Y31350842D01*
X23655169Y31275272D01*
X23630295Y31193275D01*
X23621896Y31108000D01*
X23621896Y29108000D01*
X23630295Y29022725D01*
X23655169Y28940728D01*
X23695561Y28865158D01*
X23749001Y28800042D01*
X23749001Y28098191D01*
X23745929Y28067000D01*
X23758189Y27942519D01*
X23794498Y27822821D01*
X23850083Y27718831D01*
X23853464Y27712506D01*
X23932816Y27615815D01*
X23957045Y27595931D01*
X24137396Y27415579D01*
X24137396Y26733500D01*
X24145795Y26648225D01*
X24170669Y26566228D01*
X24211061Y26490658D01*
X24265421Y26424421D01*
X24331658Y26370061D01*
X24407228Y26329669D01*
X24489225Y26304795D01*
X24574500Y26296396D01*
X25002580Y26296396D01*
X25786131Y25512844D01*
X25717500Y25519604D01*
X25289421Y25519604D01*
X24899573Y25909451D01*
X24879684Y25933686D01*
X24782993Y26013038D01*
X24672679Y26072003D01*
X24552981Y26108313D01*
X24459691Y26117501D01*
X24459680Y26117501D01*
X24428499Y26120572D01*
X24397318Y26117501D01*
X23895525Y26117501D01*
X22887104Y27125920D01*
X22887104Y27315000D01*
X22878705Y27400275D01*
X22853831Y27482272D01*
X22813439Y27557842D01*
X22759079Y27624079D01*
X22692842Y27678439D01*
X22617272Y27718831D01*
X22535275Y27743705D01*
X22450000Y27752104D01*
X20890000Y27752104D01*
X20804725Y27743705D01*
X20722728Y27718831D01*
X20647158Y27678439D01*
X20580921Y27624079D01*
X20526561Y27557842D01*
X20486169Y27482272D01*
X20461295Y27400275D01*
X20452896Y27315000D01*
X20452896Y26665000D01*
X20461295Y26579725D01*
X20486169Y26497728D01*
X20526561Y26422158D01*
X20580921Y26355921D01*
X20647158Y26301561D01*
X20722728Y26261169D01*
X20804725Y26236295D01*
X20890000Y26227896D01*
X21989080Y26227896D01*
X23161433Y25055541D01*
X23181314Y25031316D01*
X23205538Y25011436D01*
X23205542Y25011432D01*
X23278005Y24951963D01*
X23388319Y24892999D01*
X23508017Y24856689D01*
X23601307Y24847501D01*
X23601310Y24847501D01*
X23632499Y24844429D01*
X23663688Y24847501D01*
X24165475Y24847501D01*
X24391396Y24621579D01*
X24391396Y23685500D01*
X24399795Y23600225D01*
X24424669Y23518228D01*
X24438000Y23493286D01*
X24438001Y23242714D01*
X24424669Y23217772D01*
X24399795Y23135775D01*
X24391396Y23050500D01*
X24391396Y21653500D01*
X24399795Y21568225D01*
X24424669Y21486228D01*
X24438001Y21461286D01*
X24438001Y20869028D01*
X24433960Y20828000D01*
X24450082Y20664312D01*
X24497828Y20506914D01*
X24575364Y20361855D01*
X24598907Y20333168D01*
X24679710Y20234709D01*
X24711573Y20208559D01*
X24772396Y20147737D01*
X24772396Y19983499D01*
X24205679Y19983499D01*
X24174498Y19986570D01*
X24143317Y19983499D01*
X24143307Y19983499D01*
X24050017Y19974311D01*
X23930319Y19938001D01*
X23858430Y19899575D01*
X23820004Y19879036D01*
X23789496Y19853998D01*
X23723314Y19799684D01*
X23703430Y19775455D01*
X22843580Y18915604D01*
X22415500Y18915604D01*
X22330225Y18907205D01*
X22248228Y18882331D01*
X22172658Y18841939D01*
X22106421Y18787579D01*
X22052061Y18721342D01*
X22011669Y18645772D01*
X21986795Y18563775D01*
X21978396Y18478500D01*
X21978396Y17081500D01*
X21986795Y16996225D01*
X22011669Y16914228D01*
X22052061Y16838658D01*
X22106421Y16772421D01*
X22172658Y16718061D01*
X22248228Y16677669D01*
X22330225Y16652795D01*
X22415500Y16644396D01*
X23304500Y16644396D01*
X23389775Y16652795D01*
X23471772Y16677669D01*
X23547342Y16718061D01*
X23613579Y16772421D01*
X23667939Y16838658D01*
X23708331Y16914228D01*
X23733205Y16996225D01*
X23741604Y17081500D01*
X23741604Y18017580D01*
X24437524Y18713499D01*
X24772396Y18713499D01*
X24772396Y17843500D01*
X24780795Y17758225D01*
X24805669Y17676228D01*
X24846061Y17600658D01*
X24900421Y17534421D01*
X24966658Y17480061D01*
X25042228Y17439669D01*
X25124225Y17414795D01*
X25209500Y17406396D01*
X26606500Y17406396D01*
X26691775Y17414795D01*
X26773772Y17439669D01*
X26798713Y17453000D01*
X29137001Y17453000D01*
X29137000Y16130714D01*
X29123669Y16105772D01*
X29098795Y16023775D01*
X29090396Y15938500D01*
X29090396Y14541500D01*
X29098795Y14456225D01*
X29123669Y14374228D01*
X29137000Y14349286D01*
X29137001Y12360642D01*
X29076725Y12354705D01*
X28994728Y12329831D01*
X28919158Y12289439D01*
X28852921Y12235079D01*
X28798561Y12168842D01*
X28758169Y12093272D01*
X28733295Y12011275D01*
X28733268Y12011000D01*
X27753104Y12011000D01*
X27753104Y13410000D01*
X27744705Y13495275D01*
X27719831Y13577272D01*
X27679439Y13652842D01*
X27625079Y13719079D01*
X27558842Y13773439D01*
X27483272Y13813831D01*
X27401275Y13838705D01*
X27316000Y13847104D01*
X25516000Y13847104D01*
X25430725Y13838705D01*
X25348728Y13813831D01*
X25273158Y13773439D01*
X25206921Y13719079D01*
X25152561Y13652842D01*
X25112169Y13577272D01*
X25087295Y13495275D01*
X25078896Y13410000D01*
X25078896Y12003764D01*
X22889917Y9814784D01*
X22552000Y9814784D01*
X22552000Y11301287D01*
X22565331Y11326228D01*
X22590205Y11408225D01*
X22598604Y11493500D01*
X22598604Y12890500D01*
X22590205Y12975775D01*
X22565331Y13057772D01*
X22524939Y13133342D01*
X22470579Y13199579D01*
X22404342Y13253939D01*
X22328772Y13294331D01*
X22246775Y13319205D01*
X22161500Y13327604D01*
X21272500Y13327604D01*
X21187225Y13319205D01*
X21105228Y13294331D01*
X21029658Y13253939D01*
X20963421Y13199579D01*
X20909061Y13133342D01*
X20868669Y13057772D01*
X20843795Y12975775D01*
X20835396Y12890500D01*
X20835396Y11493500D01*
X20843795Y11408225D01*
X20868669Y11326228D01*
X20882000Y11301286D01*
X20882001Y9814784D01*
X20568920Y9814784D01*
X20483645Y9806385D01*
X20401648Y9781511D01*
X20326078Y9741119D01*
X20259841Y9686759D01*
X20205481Y9620522D01*
X20165089Y9544952D01*
X20140215Y9462955D01*
X20131816Y9377680D01*
X789000Y9377680D01*
X789000Y20503572D01*
X2474000Y20503572D01*
X2474000Y9976429D01*
X5894000Y9976429D01*
X5894000Y20503572D01*
X2474000Y20503572D01*
X789000Y20503572D01*
X789000Y25908000D01*
X11553929Y25908000D01*
X11557001Y25876809D01*
X11557000Y18395181D01*
X11553929Y18364000D01*
X11557000Y18332819D01*
X11557000Y18332809D01*
X11566188Y18239519D01*
X11602498Y18119821D01*
X11661463Y18009507D01*
X11740815Y17912815D01*
X11765050Y17892926D01*
X12746930Y16911045D01*
X12766815Y16886815D01*
X12863506Y16807463D01*
X12973820Y16748498D01*
X13093518Y16712188D01*
X13186808Y16703000D01*
X13186818Y16703000D01*
X13217999Y16699929D01*
X13249180Y16703000D01*
X13310043Y16703000D01*
X13375158Y16649561D01*
X13450728Y16609169D01*
X13532725Y16584295D01*
X13618000Y16575896D01*
X15178000Y16575896D01*
X15263275Y16584295D01*
X15345272Y16609169D01*
X15420842Y16649561D01*
X15487079Y16703921D01*
X15541439Y16770158D01*
X15581831Y16845728D01*
X15606705Y16927725D01*
X15615104Y17013000D01*
X15615104Y17653000D01*
X15880896Y17653000D01*
X15880896Y17013000D01*
X15889295Y16927725D01*
X15914169Y16845728D01*
X15954561Y16770158D01*
X16008921Y16703921D01*
X16075158Y16649561D01*
X16150728Y16609169D01*
X16232725Y16584295D01*
X16318000Y16575896D01*
X16463000Y16575896D01*
X16463001Y15318191D01*
X16459929Y15287000D01*
X16472189Y15162519D01*
X16508498Y15042821D01*
X16567463Y14932507D01*
X16567464Y14932506D01*
X16646816Y14835815D01*
X16671045Y14815931D01*
X16771396Y14715580D01*
X16771396Y14033500D01*
X16779795Y13948225D01*
X16804669Y13866228D01*
X16845061Y13790658D01*
X16899421Y13724421D01*
X16965658Y13670061D01*
X17018000Y13642084D01*
X17018001Y13189319D01*
X16972061Y13133342D01*
X16931669Y13057772D01*
X16906795Y12975775D01*
X16898396Y12890500D01*
X16898396Y11493500D01*
X16906795Y11408225D01*
X16931669Y11326228D01*
X16972061Y11250658D01*
X17026421Y11184421D01*
X17092658Y11130061D01*
X17168228Y11089669D01*
X17250225Y11064795D01*
X17335500Y11056396D01*
X18224500Y11056396D01*
X18309775Y11064795D01*
X18391772Y11089669D01*
X18467342Y11130061D01*
X18533579Y11184421D01*
X18587939Y11250658D01*
X18628331Y11326228D01*
X18653205Y11408225D01*
X18661604Y11493500D01*
X18661604Y11557000D01*
X18930396Y11557000D01*
X18930396Y11493500D01*
X18938795Y11408225D01*
X18963669Y11326228D01*
X19004061Y11250658D01*
X19058421Y11184421D01*
X19124658Y11130061D01*
X19200228Y11089669D01*
X19282225Y11064795D01*
X19367500Y11056396D01*
X20256500Y11056396D01*
X20341775Y11064795D01*
X20423772Y11089669D01*
X20499342Y11130061D01*
X20565579Y11184421D01*
X20619939Y11250658D01*
X20660331Y11326228D01*
X20685205Y11408225D01*
X20693604Y11493500D01*
X20693604Y12890500D01*
X20685205Y12975775D01*
X20660331Y13057772D01*
X20619939Y13133342D01*
X20565579Y13199579D01*
X20499342Y13253939D01*
X20423772Y13294331D01*
X20341775Y13319205D01*
X20256500Y13327604D01*
X19367500Y13327604D01*
X19282225Y13319205D01*
X19200228Y13294331D01*
X19124658Y13253939D01*
X19058421Y13199579D01*
X19004061Y13133342D01*
X18963669Y13057772D01*
X18938795Y12975775D01*
X18930396Y12890500D01*
X18930396Y12827000D01*
X18661604Y12827000D01*
X18661604Y12890500D01*
X18653205Y12975775D01*
X18628331Y13057772D01*
X18587939Y13133342D01*
X18533579Y13199579D01*
X18467342Y13253939D01*
X18391772Y13294331D01*
X18309775Y13319205D01*
X18288000Y13321350D01*
X18288000Y13642084D01*
X18340342Y13670061D01*
X18406579Y13724421D01*
X18460939Y13790658D01*
X18501331Y13866228D01*
X18526205Y13948225D01*
X18534604Y14033500D01*
X18534604Y15430500D01*
X18526205Y15515775D01*
X18501331Y15597772D01*
X18460939Y15673342D01*
X18406579Y15739579D01*
X18340342Y15793939D01*
X18264772Y15834331D01*
X18182775Y15859205D01*
X18097500Y15867604D01*
X17733000Y15867604D01*
X17733000Y16575896D01*
X17878000Y16575896D01*
X17963275Y16584295D01*
X18045272Y16609169D01*
X18120842Y16649561D01*
X18187079Y16703921D01*
X18241439Y16770158D01*
X18281831Y16845728D01*
X18306705Y16927725D01*
X18315104Y17013000D01*
X18315104Y17653000D01*
X20073396Y17653000D01*
X20073396Y17081500D01*
X20081795Y16996225D01*
X20106669Y16914228D01*
X20147061Y16838658D01*
X20201421Y16772421D01*
X20267658Y16718061D01*
X20343228Y16677669D01*
X20425225Y16652795D01*
X20510500Y16644396D01*
X21399500Y16644396D01*
X21484775Y16652795D01*
X21566772Y16677669D01*
X21642342Y16718061D01*
X21708579Y16772421D01*
X21762939Y16838658D01*
X21803331Y16914228D01*
X21828205Y16996225D01*
X21836604Y17081500D01*
X21836604Y18478500D01*
X21828205Y18563775D01*
X21803331Y18645772D01*
X21762939Y18721342D01*
X21708579Y18787579D01*
X21642342Y18841939D01*
X21566772Y18882331D01*
X21484775Y18907205D01*
X21399500Y18915604D01*
X20553287Y18915604D01*
X20478192Y18923000D01*
X20478181Y18923000D01*
X20447000Y18926071D01*
X20415819Y18923000D01*
X18315104Y18923000D01*
X18315104Y19563000D01*
X18306705Y19648275D01*
X18281831Y19730272D01*
X18241439Y19805842D01*
X18187079Y19872079D01*
X18120842Y19926439D01*
X18045272Y19966831D01*
X17963275Y19991705D01*
X17878000Y20000104D01*
X17733000Y20000104D01*
X17733000Y20512291D01*
X17791158Y20464561D01*
X17866728Y20424169D01*
X17948725Y20399295D01*
X18034000Y20390896D01*
X19558000Y20390896D01*
X19643275Y20399295D01*
X19725272Y20424169D01*
X19800842Y20464561D01*
X19867079Y20518921D01*
X19921439Y20585158D01*
X19961831Y20660728D01*
X19986705Y20742725D01*
X19995104Y20828000D01*
X19995104Y22352000D01*
X19986705Y22437275D01*
X19961831Y22519272D01*
X19921439Y22594842D01*
X19867079Y22661079D01*
X19800842Y22715439D01*
X19725272Y22755831D01*
X19643275Y22780705D01*
X19558000Y22789104D01*
X18034000Y22789104D01*
X17948725Y22780705D01*
X17866728Y22755831D01*
X17791158Y22715439D01*
X17724921Y22661079D01*
X17670561Y22594842D01*
X17630169Y22519272D01*
X17617952Y22479000D01*
X17518604Y22479000D01*
X17518604Y22542500D01*
X17510205Y22627775D01*
X17485331Y22709772D01*
X17444939Y22785342D01*
X17390579Y22851579D01*
X17324342Y22905939D01*
X17272000Y22933916D01*
X17272000Y23294084D01*
X17324342Y23322061D01*
X17390579Y23376421D01*
X17444939Y23442658D01*
X17485331Y23518228D01*
X17510205Y23600225D01*
X17518604Y23685500D01*
X17518604Y23749000D01*
X17596896Y23749000D01*
X17596896Y23368000D01*
X17605295Y23282725D01*
X17630169Y23200728D01*
X17670561Y23125158D01*
X17724921Y23058921D01*
X17791158Y23004561D01*
X17866728Y22964169D01*
X17948725Y22939295D01*
X18034000Y22930896D01*
X19558000Y22930896D01*
X19643275Y22939295D01*
X19725272Y22964169D01*
X19800842Y23004561D01*
X19867079Y23058921D01*
X19921439Y23125158D01*
X19961831Y23200728D01*
X19986705Y23282725D01*
X19995104Y23368000D01*
X19995104Y24892000D01*
X19986705Y24977275D01*
X19961831Y25059272D01*
X19921439Y25134842D01*
X19867079Y25201079D01*
X19800842Y25255439D01*
X19725272Y25295831D01*
X19643275Y25320705D01*
X19558000Y25329104D01*
X18034000Y25329104D01*
X17948725Y25320705D01*
X17866728Y25295831D01*
X17791158Y25255439D01*
X17724921Y25201079D01*
X17670561Y25134842D01*
X17630169Y25059272D01*
X17617952Y25019000D01*
X17518604Y25019000D01*
X17518604Y25082500D01*
X17510205Y25167775D01*
X17485331Y25249772D01*
X17444939Y25325342D01*
X17390579Y25391579D01*
X17324342Y25445939D01*
X17248772Y25486331D01*
X17166775Y25511205D01*
X17081500Y25519604D01*
X16192500Y25519604D01*
X16107225Y25511205D01*
X16025228Y25486331D01*
X15949658Y25445939D01*
X15883421Y25391579D01*
X15829061Y25325342D01*
X15788669Y25249772D01*
X15763795Y25167775D01*
X15755396Y25082500D01*
X15755396Y23685500D01*
X15763795Y23600225D01*
X15788669Y23518228D01*
X15829061Y23442658D01*
X15883421Y23376421D01*
X15949658Y23322061D01*
X16002000Y23294084D01*
X16002001Y22933916D01*
X15949658Y22905939D01*
X15883421Y22851579D01*
X15829061Y22785342D01*
X15788669Y22709772D01*
X15763795Y22627775D01*
X15755396Y22542500D01*
X15755396Y21145500D01*
X15763795Y21060225D01*
X15788669Y20978228D01*
X15829061Y20902658D01*
X15883421Y20836421D01*
X15949658Y20782061D01*
X16025228Y20741669D01*
X16107225Y20716795D01*
X16192500Y20708396D01*
X16463001Y20708396D01*
X16463000Y20000104D01*
X16318000Y20000104D01*
X16232725Y19991705D01*
X16150728Y19966831D01*
X16075158Y19926439D01*
X16008921Y19872079D01*
X15954561Y19805842D01*
X15914169Y19730272D01*
X15889295Y19648275D01*
X15880896Y19563000D01*
X15880896Y18923000D01*
X15485957Y18923000D01*
X15420842Y18976439D01*
X15345272Y19016831D01*
X15263275Y19041705D01*
X15178000Y19050104D01*
X13618000Y19050104D01*
X13532725Y19041705D01*
X13450728Y19016831D01*
X13375158Y18976439D01*
X13308921Y18922079D01*
X13254561Y18855842D01*
X13214169Y18780272D01*
X13189295Y18698275D01*
X13180896Y18613000D01*
X13180896Y18273129D01*
X12827000Y18627024D01*
X12827000Y25082500D01*
X13850396Y25082500D01*
X13850396Y23685500D01*
X13858795Y23600225D01*
X13883669Y23518228D01*
X13924061Y23442658D01*
X13978421Y23376421D01*
X14044658Y23322061D01*
X14097000Y23294084D01*
X14097001Y22933916D01*
X14044658Y22905939D01*
X13978421Y22851579D01*
X13924061Y22785342D01*
X13883669Y22709772D01*
X13858795Y22627775D01*
X13850396Y22542500D01*
X13850396Y21145500D01*
X13858795Y21060225D01*
X13883669Y20978228D01*
X13924061Y20902658D01*
X13978421Y20836421D01*
X14044658Y20782061D01*
X14120228Y20741669D01*
X14202225Y20716795D01*
X14287500Y20708396D01*
X15176500Y20708396D01*
X15261775Y20716795D01*
X15343772Y20741669D01*
X15419342Y20782061D01*
X15485579Y20836421D01*
X15539939Y20902658D01*
X15580331Y20978228D01*
X15605205Y21060225D01*
X15613604Y21145500D01*
X15613604Y22542500D01*
X15605205Y22627775D01*
X15580331Y22709772D01*
X15539939Y22785342D01*
X15485579Y22851579D01*
X15419342Y22905939D01*
X15367000Y22933916D01*
X15367000Y23294084D01*
X15419342Y23322061D01*
X15485579Y23376421D01*
X15539939Y23442658D01*
X15580331Y23518228D01*
X15605205Y23600225D01*
X15613604Y23685500D01*
X15613604Y25082500D01*
X15605205Y25167775D01*
X15580331Y25249772D01*
X15539939Y25325342D01*
X15485579Y25391579D01*
X15419342Y25445939D01*
X15367000Y25473916D01*
X15367000Y25476973D01*
X15541070Y25651043D01*
X15541074Y25651048D01*
X16245027Y26355000D01*
X17882043Y26355000D01*
X17947158Y26301561D01*
X18022728Y26261169D01*
X18104725Y26236295D01*
X18190000Y26227896D01*
X19750000Y26227896D01*
X19835275Y26236295D01*
X19917272Y26261169D01*
X19992842Y26301561D01*
X20059079Y26355921D01*
X20113439Y26422158D01*
X20153831Y26497728D01*
X20178705Y26579725D01*
X20187104Y26665000D01*
X20187104Y27315000D01*
X20178705Y27400275D01*
X20153831Y27482272D01*
X20113439Y27557842D01*
X20059079Y27624079D01*
X19992842Y27678439D01*
X19917272Y27718831D01*
X19835275Y27743705D01*
X19750000Y27752104D01*
X18190000Y27752104D01*
X18104725Y27743705D01*
X18022728Y27718831D01*
X17947158Y27678439D01*
X17882043Y27625000D01*
X16013182Y27625000D01*
X15982001Y27628071D01*
X15950820Y27625000D01*
X15950810Y27625000D01*
X15857520Y27615812D01*
X15737822Y27579502D01*
X15627508Y27520537D01*
X15530817Y27441185D01*
X15510932Y27416955D01*
X14643050Y26549072D01*
X14643045Y26549068D01*
X14411486Y26317508D01*
X14383972Y26294928D01*
X14355472Y26266428D01*
X14334105Y26248893D01*
X14298972Y26206083D01*
X14280816Y26191183D01*
X14260932Y26166954D01*
X14201463Y26094491D01*
X14142498Y25984177D01*
X14106189Y25864479D01*
X14093929Y25739998D01*
X14097001Y25708807D01*
X14097001Y25473916D01*
X14044658Y25445939D01*
X13978421Y25391579D01*
X13924061Y25325342D01*
X13883669Y25249772D01*
X13858795Y25167775D01*
X13850396Y25082500D01*
X12827000Y25082500D01*
X12827000Y25644976D01*
X15437025Y28255000D01*
X17882043Y28255000D01*
X17947158Y28201561D01*
X18022728Y28161169D01*
X18104725Y28136295D01*
X18190000Y28127896D01*
X19750000Y28127896D01*
X19835275Y28136295D01*
X19917272Y28161169D01*
X19992842Y28201561D01*
X20059079Y28255921D01*
X20113439Y28322158D01*
X20153831Y28397728D01*
X20178705Y28479725D01*
X20187104Y28565000D01*
X20187104Y29215000D01*
X20452896Y29215000D01*
X20452896Y28565000D01*
X20461295Y28479725D01*
X20486169Y28397728D01*
X20526561Y28322158D01*
X20580921Y28255921D01*
X20647158Y28201561D01*
X20722728Y28161169D01*
X20804725Y28136295D01*
X20890000Y28127896D01*
X22450000Y28127896D01*
X22535275Y28136295D01*
X22617272Y28161169D01*
X22692842Y28201561D01*
X22759079Y28255921D01*
X22813439Y28322158D01*
X22853831Y28397728D01*
X22878705Y28479725D01*
X22887104Y28565000D01*
X22887104Y29215000D01*
X22878705Y29300275D01*
X22853831Y29382272D01*
X22813439Y29457842D01*
X22759079Y29524079D01*
X22692842Y29578439D01*
X22617272Y29618831D01*
X22535275Y29643705D01*
X22450000Y29652104D01*
X22305000Y29652104D01*
X22305000Y31275976D01*
X23076525Y32047500D01*
X24291475Y32047500D01*
X24637934Y31701040D01*
X24657815Y31676815D01*
X24682039Y31656935D01*
X24682042Y31656932D01*
X24754505Y31597463D01*
X24791850Y31577502D01*
X24864820Y31538498D01*
X24984518Y31502188D01*
X25077808Y31493000D01*
X25077818Y31493000D01*
X25108999Y31489929D01*
X25140180Y31493000D01*
X25520975Y31493000D01*
X25626020Y31387955D01*
X25595561Y31350842D01*
X25555169Y31275272D01*
X25530295Y31193275D01*
X25521896Y31108000D01*
X25521896Y29108000D01*
X25530295Y29022725D01*
X25555169Y28940728D01*
X25595561Y28865158D01*
X25649921Y28798921D01*
X25716158Y28744561D01*
X25791728Y28704169D01*
X25873725Y28679295D01*
X25959000Y28670896D01*
X26609000Y28670896D01*
X26694275Y28679295D01*
X26776272Y28704169D01*
X26851842Y28744561D01*
X26918079Y28798921D01*
X26972439Y28865158D01*
X27012831Y28940728D01*
X27037705Y29022725D01*
X27046104Y29108000D01*
X27046104Y31108000D01*
X27037705Y31193275D01*
X27012831Y31275272D01*
X26972439Y31350842D01*
X26919000Y31415957D01*
X26919000Y31596811D01*
X26922072Y31628000D01*
X26919000Y31659192D01*
X26909812Y31752482D01*
X26873502Y31872180D01*
X26842948Y31929342D01*
X26814538Y31982494D01*
X26755069Y32054957D01*
X26755065Y32054961D01*
X26735185Y32079185D01*
X26710960Y32099066D01*
X26706901Y32103125D01*
X26776272Y32124169D01*
X26851842Y32164561D01*
X26918079Y32218921D01*
X26972439Y32285158D01*
X27012831Y32360728D01*
X27037705Y32442725D01*
X27046104Y32528000D01*
X27046104Y32893000D01*
X27185396Y32893000D01*
X27185396Y32829500D01*
X27193795Y32744225D01*
X27218669Y32662228D01*
X27259061Y32586658D01*
X27313421Y32520421D01*
X27379658Y32466061D01*
X27432000Y32438084D01*
X27432001Y32077916D01*
X27379658Y32049939D01*
X27313421Y31995579D01*
X27259061Y31929342D01*
X27218669Y31853772D01*
X27193795Y31771775D01*
X27185396Y31686500D01*
X27185396Y30289500D01*
X27193795Y30204225D01*
X27218669Y30122228D01*
X27259061Y30046658D01*
X27313421Y29980421D01*
X27379658Y29926061D01*
X27455228Y29885669D01*
X27537225Y29860795D01*
X27545960Y29859935D01*
X27567612Y29833552D01*
X27615816Y29774815D01*
X27640046Y29754930D01*
X28328396Y29066579D01*
X28328396Y28384500D01*
X28336795Y28299225D01*
X28361669Y28217228D01*
X28402061Y28141658D01*
X28456421Y28075421D01*
X28522658Y28021061D01*
X28598228Y27980669D01*
X28680225Y27955795D01*
X28765500Y27947396D01*
X30162500Y27947396D01*
X30247775Y27955795D01*
X30329772Y27980669D01*
X30405342Y28021061D01*
X30471579Y28075421D01*
X30525939Y28141658D01*
X30566331Y28217228D01*
X30591205Y28299225D01*
X30599604Y28384500D01*
X30599604Y29273500D01*
X30591205Y29358775D01*
X30566331Y29440772D01*
X30525939Y29516342D01*
X30471579Y29582579D01*
X30405342Y29636939D01*
X30329772Y29677331D01*
X30247775Y29702205D01*
X30162500Y29710604D01*
X29480421Y29710604D01*
X28944383Y30246642D01*
X28948604Y30289500D01*
X28948604Y30416500D01*
X30868396Y30416500D01*
X30868396Y29527500D01*
X30876795Y29442225D01*
X30901669Y29360228D01*
X30942061Y29284658D01*
X30996421Y29218421D01*
X31062658Y29164061D01*
X31138228Y29123669D01*
X31220225Y29098795D01*
X31305500Y29090396D01*
X31987578Y29090396D01*
X32040934Y29037040D01*
X32060815Y29012815D01*
X32085039Y28992935D01*
X32085042Y28992932D01*
X32157505Y28933463D01*
X32173696Y28924809D01*
X32267820Y28874498D01*
X32387518Y28838188D01*
X32480808Y28829000D01*
X32480818Y28829000D01*
X32511999Y28825929D01*
X32543180Y28829000D01*
X34106896Y28829000D01*
X34106896Y28702000D01*
X34115295Y28616725D01*
X34140169Y28534728D01*
X34180561Y28459158D01*
X34234921Y28392921D01*
X34301158Y28338561D01*
X34376728Y28298169D01*
X34458725Y28273295D01*
X34544000Y28264896D01*
X36068000Y28264896D01*
X36153275Y28273295D01*
X36235272Y28298169D01*
X36310842Y28338561D01*
X36377079Y28392921D01*
X36431439Y28459158D01*
X36471831Y28534728D01*
X36496705Y28616725D01*
X36505104Y28702000D01*
X36505104Y28829000D01*
X36646896Y28829000D01*
X36646896Y28702000D01*
X36655295Y28616725D01*
X36680169Y28534728D01*
X36720561Y28459158D01*
X36774921Y28392921D01*
X36841158Y28338561D01*
X36916728Y28298169D01*
X36998725Y28273295D01*
X37084000Y28264896D01*
X38608000Y28264896D01*
X38693275Y28273295D01*
X38775272Y28298169D01*
X38850842Y28338561D01*
X38917079Y28392921D01*
X38971439Y28459158D01*
X39011831Y28534728D01*
X39036705Y28616725D01*
X39045104Y28702000D01*
X39045104Y30226000D01*
X39036705Y30311275D01*
X39011831Y30393272D01*
X38971439Y30468842D01*
X38917079Y30535079D01*
X38850842Y30589439D01*
X38775272Y30629831D01*
X38693275Y30654705D01*
X38608000Y30663104D01*
X37084000Y30663104D01*
X36998725Y30654705D01*
X36916728Y30629831D01*
X36841158Y30589439D01*
X36774921Y30535079D01*
X36720561Y30468842D01*
X36680169Y30393272D01*
X36655295Y30311275D01*
X36646896Y30226000D01*
X36646896Y30099000D01*
X36505104Y30099000D01*
X36505104Y30226000D01*
X36496705Y30311275D01*
X36471831Y30393272D01*
X36431439Y30468842D01*
X36377079Y30535079D01*
X36310842Y30589439D01*
X36235272Y30629831D01*
X36153275Y30654705D01*
X36068000Y30663104D01*
X34544000Y30663104D01*
X34458725Y30654705D01*
X34376728Y30629831D01*
X34301158Y30589439D01*
X34234921Y30535079D01*
X34180561Y30468842D01*
X34140169Y30393272D01*
X34115295Y30311275D01*
X34106896Y30226000D01*
X34106896Y30099000D01*
X33139604Y30099000D01*
X33139604Y30416500D01*
X33131205Y30501775D01*
X33106331Y30583772D01*
X33065939Y30659342D01*
X33011579Y30725579D01*
X32945342Y30779939D01*
X32869772Y30820331D01*
X32787775Y30845205D01*
X32702500Y30853604D01*
X31305500Y30853604D01*
X31220225Y30845205D01*
X31138228Y30820331D01*
X31062658Y30779939D01*
X30996421Y30725579D01*
X30942061Y30659342D01*
X30901669Y30583772D01*
X30876795Y30501775D01*
X30868396Y30416500D01*
X28948604Y30416500D01*
X28948604Y31686500D01*
X28940205Y31771775D01*
X28915331Y31853772D01*
X28874939Y31929342D01*
X28820579Y31995579D01*
X28754342Y32049939D01*
X28702000Y32077916D01*
X28702000Y32438084D01*
X28754342Y32466061D01*
X28820579Y32520421D01*
X28874939Y32586658D01*
X28915331Y32662228D01*
X28940205Y32744225D01*
X28948604Y32829500D01*
X28948604Y34226500D01*
X28940205Y34311775D01*
X28915331Y34393772D01*
X28874939Y34469342D01*
X28820579Y34535579D01*
X28754342Y34589939D01*
X28678772Y34630331D01*
X28596775Y34655205D01*
X28511500Y34663604D01*
X27622500Y34663604D01*
X27537225Y34655205D01*
X27455228Y34630331D01*
X27379658Y34589939D01*
X27313421Y34535579D01*
X27259061Y34469342D01*
X27218669Y34393772D01*
X27193795Y34311775D01*
X27185396Y34226500D01*
X27185396Y34163000D01*
X27046104Y34163000D01*
X27046104Y34528000D01*
X27037705Y34613275D01*
X27012831Y34695272D01*
X26972439Y34770842D01*
X26918079Y34837079D01*
X26851842Y34891439D01*
X26776272Y34931831D01*
X26694275Y34956705D01*
X26609000Y34965104D01*
X25959000Y34965104D01*
X25873725Y34956705D01*
X25791728Y34931831D01*
X25716158Y34891439D01*
X25649921Y34837079D01*
X25595561Y34770842D01*
X25555169Y34695272D01*
X25530295Y34613275D01*
X25521896Y34528000D01*
X25521896Y32763000D01*
X25372025Y32763000D01*
X25146104Y32988921D01*
X25146104Y34528000D01*
X25137705Y34613275D01*
X25112831Y34695272D01*
X25072439Y34770842D01*
X25040177Y34810153D01*
X25423024Y35192999D01*
X30456977Y35192999D01*
X31369000Y34280974D01*
X31369001Y32758604D01*
X31305500Y32758604D01*
X31220225Y32750205D01*
X31138228Y32725331D01*
X31062658Y32684939D01*
X30996421Y32630579D01*
X30942061Y32564342D01*
X30901669Y32488772D01*
X30876795Y32406775D01*
X30868396Y32321500D01*
X30868396Y31432500D01*
X30876795Y31347225D01*
X30901669Y31265228D01*
X30942061Y31189658D01*
X30996421Y31123421D01*
X31062658Y31069061D01*
X31138228Y31028669D01*
X31220225Y31003795D01*
X31305500Y30995396D01*
X32702500Y30995396D01*
X32787775Y31003795D01*
X32869772Y31028669D01*
X32945342Y31069061D01*
X33011579Y31123421D01*
X33065939Y31189658D01*
X33106331Y31265228D01*
X33131205Y31347225D01*
X33139604Y31432500D01*
X33139604Y32321500D01*
X33131205Y32406775D01*
X33106331Y32488772D01*
X33065939Y32564342D01*
X33011579Y32630579D01*
X32945342Y32684939D01*
X32869772Y32725331D01*
X32787775Y32750205D01*
X32702500Y32758604D01*
X32639000Y32758604D01*
X32639000Y34512811D01*
X32642072Y34544000D01*
X32639000Y34575192D01*
X32629812Y34668482D01*
X32593502Y34788180D01*
X32534538Y34898494D01*
X32475069Y34970957D01*
X32475065Y34970961D01*
X32455185Y34995185D01*
X32430961Y35015064D01*
X31191075Y36254949D01*
X31171186Y36279184D01*
X31074495Y36358536D01*
X30964181Y36417501D01*
X30844483Y36453811D01*
X30751193Y36462999D01*
X30751182Y36462999D01*
X30720001Y36466070D01*
X30688820Y36462999D01*
X25191179Y36462999D01*
X25159998Y36466070D01*
X25128817Y36462999D01*
X25128807Y36462999D01*
X25035517Y36453811D01*
X24915819Y36417501D01*
X24843930Y36379075D01*
X24805504Y36358536D01*
X24754372Y36316573D01*
X24708814Y36279184D01*
X24688929Y36254954D01*
X23957046Y35523070D01*
X23932816Y35503185D01*
X23912932Y35478956D01*
X23853463Y35406493D01*
X23794498Y35296179D01*
X23777001Y35238497D01*
X23763200Y35192999D01*
X23758189Y35176481D01*
X23745929Y35052000D01*
X23749001Y35020809D01*
X23749001Y34835958D01*
X23695561Y34770842D01*
X23655169Y34695272D01*
X23630295Y34613275D01*
X23621896Y34528000D01*
X23621896Y33317500D01*
X22844680Y33317500D01*
X22813499Y33320571D01*
X22782318Y33317500D01*
X22782308Y33317500D01*
X22689018Y33308312D01*
X22569320Y33272002D01*
X22459006Y33213037D01*
X22362315Y33133685D01*
X22342432Y33109457D01*
X21243046Y32010070D01*
X21218816Y31990185D01*
X21198932Y31965956D01*
X21139463Y31893493D01*
X21080498Y31783179D01*
X21055583Y31701044D01*
X21044189Y31663482D01*
X21035721Y31577502D01*
X21031929Y31539000D01*
X21035001Y31507809D01*
X21035000Y29652104D01*
X20890000Y29652104D01*
X20804725Y29643705D01*
X20722728Y29618831D01*
X20647158Y29578439D01*
X20580921Y29524079D01*
X20526561Y29457842D01*
X20486169Y29382272D01*
X20461295Y29300275D01*
X20452896Y29215000D01*
X20187104Y29215000D01*
X20178705Y29300275D01*
X20153831Y29382272D01*
X20113439Y29457842D01*
X20059079Y29524079D01*
X19992842Y29578439D01*
X19917272Y29618831D01*
X19835275Y29643705D01*
X19750000Y29652104D01*
X18190000Y29652104D01*
X18104725Y29643705D01*
X18022728Y29618831D01*
X17947158Y29578439D01*
X17882043Y29525000D01*
X15875000Y29525000D01*
X15875000Y30042896D01*
X16002000Y30042896D01*
X16087275Y30051295D01*
X16169272Y30076169D01*
X16244842Y30116561D01*
X16311079Y30170921D01*
X16365439Y30237158D01*
X16405831Y30312728D01*
X16430705Y30394725D01*
X16439104Y30480000D01*
X16439104Y32004000D01*
X16430705Y32089275D01*
X16405831Y32171272D01*
X16365439Y32246842D01*
X16311079Y32313079D01*
X16244842Y32367439D01*
X16169272Y32407831D01*
X16087275Y32432705D01*
X16002000Y32441104D01*
X15875000Y32441104D01*
X15875000Y32582896D01*
X16002000Y32582896D01*
X16087275Y32591295D01*
X16169272Y32616169D01*
X16244842Y32656561D01*
X16311079Y32710921D01*
X16365439Y32777158D01*
X16405831Y32852728D01*
X16430705Y32934725D01*
X16439104Y33020000D01*
X16439104Y34544000D01*
X16430705Y34629275D01*
X16405831Y34711272D01*
X16365439Y34786842D01*
X16311079Y34853079D01*
X16244842Y34907439D01*
X16169272Y34947831D01*
X16087275Y34972705D01*
X16002000Y34981104D01*
X14478000Y34981104D01*
X14392725Y34972705D01*
X14310728Y34947831D01*
X14235158Y34907439D01*
X14168921Y34853079D01*
X14114561Y34786842D01*
X14074169Y34711272D01*
X14049295Y34629275D01*
X14040896Y34544000D01*
X14040896Y33020000D01*
X14049295Y32934725D01*
X14074169Y32852728D01*
X14114561Y32777158D01*
X14168921Y32710921D01*
X14235158Y32656561D01*
X14310728Y32616169D01*
X14392725Y32591295D01*
X14478000Y32582896D01*
X14605000Y32582896D01*
X14605001Y32441104D01*
X14478000Y32441104D01*
X14392725Y32432705D01*
X14310728Y32407831D01*
X14235158Y32367439D01*
X14168921Y32313079D01*
X14114561Y32246842D01*
X14074169Y32171272D01*
X14049295Y32089275D01*
X14040896Y32004000D01*
X14040896Y30480000D01*
X14049295Y30394725D01*
X14074169Y30312728D01*
X14114561Y30237158D01*
X14168921Y30170921D01*
X14235158Y30116561D01*
X14310728Y30076169D01*
X14392725Y30051295D01*
X14478000Y30042896D01*
X14605000Y30042896D01*
X14605000Y29219025D01*
X11765046Y26379070D01*
X11740816Y26359185D01*
X11720932Y26334956D01*
X11661463Y26262493D01*
X11602498Y26152179D01*
X11584999Y26094491D01*
X11569197Y26042396D01*
X11566189Y26032481D01*
X11553929Y25908000D01*
X789000Y25908000D01*
X789000Y39851000D01*
X50011001Y39851000D01*
X50011000Y789000D01*
G36*
X26797000Y24501975D02*
G01*
X26797001Y21028915D01*
X26773772Y21041331D01*
X26691775Y21066205D01*
X26606500Y21074604D01*
X26207264Y21074604D01*
X26108000Y21173868D01*
X26108000Y21461287D01*
X26121331Y21486228D01*
X26146205Y21568225D01*
X26154604Y21653500D01*
X26154604Y23050500D01*
X26146205Y23135775D01*
X26121331Y23217772D01*
X26108000Y23242713D01*
X26108000Y23493287D01*
X26121331Y23518228D01*
X26146205Y23600225D01*
X26154604Y23685500D01*
X26154604Y25082500D01*
X26147844Y25151131D01*
X26797000Y24501975D01*
X26797000Y24501975D01*
G37*
X26797000Y24501975D02*
X26797001Y21028915D01*
X26773772Y21041331D01*
X26691775Y21066205D01*
X26606500Y21074604D01*
X26207264Y21074604D01*
X26108000Y21173868D01*
X26108000Y21461287D01*
X26121331Y21486228D01*
X26146205Y21568225D01*
X26154604Y21653500D01*
X26154604Y23050500D01*
X26146205Y23135775D01*
X26121331Y23217772D01*
X26108000Y23242713D01*
X26108000Y23493287D01*
X26121331Y23518228D01*
X26146205Y23600225D01*
X26154604Y23685500D01*
X26154604Y25082500D01*
X26147844Y25151131D01*
X26797000Y24501975D01*
M02*
