G75*
%MOIN*%
%OFA0B0*%
%FSLAX24Y24*%
%IPPOS*%
%LPD*%
%AMOC8*
5,1,8,0,0,1.08239X$1,22.5*
%
%ADD10C,0.0562*%
%ADD11C,0.1500*%
%ADD12R,0.0650X0.0650*%
%ADD13C,0.1004*%
%ADD14C,0.0886*%
%ADD15C,0.2540*%
%ADD16OC8,0.0630*%
%ADD17C,0.0630*%
%ADD18C,0.0120*%
%ADD19C,0.0317*%
%ADD20C,0.0240*%
%ADD21C,0.0396*%
D10*
X018030Y007513D03*
X018817Y007513D03*
X018817Y008497D03*
X018030Y008497D03*
D11*
X019880Y010367D03*
X019880Y005643D03*
D12*
X016880Y002505D03*
X015880Y002505D03*
X014880Y002505D03*
X013880Y002505D03*
X012880Y002505D03*
X011880Y002505D03*
X010880Y002505D03*
X009880Y002505D03*
X009880Y001505D03*
X010880Y001505D03*
X011880Y001505D03*
X012880Y001505D03*
X013880Y001505D03*
X014880Y001505D03*
X015880Y001505D03*
X016880Y001505D03*
X014880Y007130D03*
X014880Y008130D03*
X017880Y011755D03*
X018880Y011755D03*
X019880Y011755D03*
X019880Y013505D03*
X018880Y013505D03*
X017880Y013505D03*
X016605Y013605D03*
X015605Y013605D03*
X014605Y013605D03*
X013405Y013505D03*
X012405Y013505D03*
X011405Y013505D03*
X011405Y014505D03*
X012405Y014505D03*
X013405Y014505D03*
X010055Y014505D03*
X009055Y014505D03*
X008055Y014505D03*
X008055Y013505D03*
X009055Y013505D03*
X010055Y013505D03*
X006505Y014005D03*
X005505Y014005D03*
X004505Y014005D03*
X017880Y014505D03*
X018880Y014505D03*
X019880Y014505D03*
X008505Y002505D03*
X007505Y002505D03*
X007505Y001505D03*
X008505Y001505D03*
X005005Y001505D03*
X005005Y002505D03*
D13*
X003380Y009505D03*
X001380Y009505D03*
X001380Y011505D03*
X003380Y011505D03*
D14*
X002380Y010505D03*
D15*
X002005Y014005D03*
X002005Y002005D03*
X022005Y002005D03*
X022005Y014005D03*
D16*
X002405Y005805D03*
D17*
X002405Y004405D03*
D18*
X000365Y000365D02*
X000365Y015645D01*
X023645Y015645D01*
X023645Y000365D01*
X000365Y000365D01*
X000365Y000479D02*
X023645Y000479D01*
X023645Y000598D02*
X000365Y000598D01*
X000365Y000716D02*
X001673Y000716D01*
X001681Y000713D02*
X001810Y000688D01*
X001940Y000675D01*
X001945Y000675D01*
X001945Y001945D01*
X002065Y001945D01*
X002065Y002065D01*
X003335Y002065D01*
X003335Y002070D01*
X003322Y002200D01*
X003297Y002329D01*
X003259Y002454D01*
X003209Y002574D01*
X003147Y002690D01*
X003075Y002798D01*
X002992Y002899D01*
X002899Y002992D01*
X002798Y003075D01*
X002690Y003147D01*
X002574Y003209D01*
X002454Y003259D01*
X002329Y003297D01*
X002200Y003322D01*
X002070Y003335D01*
X002065Y003335D01*
X002065Y002065D01*
X001945Y002065D01*
X001945Y003335D01*
X001940Y003335D01*
X001810Y003322D01*
X001681Y003297D01*
X001556Y003259D01*
X001436Y003209D01*
X001320Y003147D01*
X001212Y003075D01*
X001111Y002992D01*
X001018Y002899D01*
X000935Y002798D01*
X000863Y002690D01*
X000801Y002574D01*
X000751Y002454D01*
X000713Y002329D01*
X000688Y002200D01*
X000675Y002070D01*
X000675Y002065D01*
X001945Y002065D01*
X001945Y001945D01*
X000675Y001945D01*
X000675Y001940D01*
X000688Y001810D01*
X000713Y001681D01*
X000751Y001556D01*
X000801Y001436D01*
X000863Y001320D01*
X000935Y001212D01*
X001018Y001111D01*
X001111Y001018D01*
X001212Y000935D01*
X001320Y000863D01*
X001436Y000801D01*
X001556Y000751D01*
X001681Y000713D01*
X001373Y000835D02*
X000365Y000835D01*
X000365Y000953D02*
X001190Y000953D01*
X001058Y001072D02*
X000365Y001072D01*
X000365Y001190D02*
X000953Y001190D01*
X000871Y001309D02*
X000365Y001309D01*
X000365Y001427D02*
X000806Y001427D01*
X000756Y001546D02*
X000365Y001546D01*
X000365Y001664D02*
X000719Y001664D01*
X000693Y001783D02*
X000365Y001783D01*
X000365Y001901D02*
X000679Y001901D01*
X000365Y002020D02*
X001945Y002020D01*
X001945Y002138D02*
X002065Y002138D01*
X002065Y002020D02*
X009700Y002020D01*
X009700Y002060D02*
X009700Y001950D01*
X009505Y001950D01*
X009435Y001880D01*
X009435Y001130D01*
X009505Y001060D01*
X010255Y001060D01*
X010325Y001130D01*
X010325Y001880D01*
X010255Y001950D01*
X010060Y001950D01*
X010060Y002060D01*
X010255Y002060D01*
X010325Y002130D01*
X010325Y002875D01*
X010435Y002875D01*
X010435Y002130D01*
X010505Y002060D01*
X011255Y002060D01*
X011325Y002130D01*
X011325Y002875D01*
X011435Y002875D01*
X011435Y002130D01*
X011505Y002060D01*
X012255Y002060D01*
X012325Y002130D01*
X012325Y002880D01*
X012255Y002950D01*
X011668Y002950D01*
X011713Y002969D01*
X011791Y003047D01*
X011834Y003150D01*
X011834Y003260D01*
X011791Y003363D01*
X011713Y003441D01*
X011610Y003484D01*
X011500Y003484D01*
X011397Y003441D01*
X011319Y003363D01*
X011276Y003260D01*
X011276Y003235D01*
X009930Y003235D01*
X009825Y003130D01*
X009700Y003005D01*
X009700Y002950D01*
X009505Y002950D01*
X009435Y002880D01*
X009435Y002130D01*
X009505Y002060D01*
X009700Y002060D01*
X009435Y002138D02*
X008873Y002138D01*
X008881Y002146D02*
X008890Y002168D01*
X008890Y002477D01*
X008533Y002477D01*
X008533Y002533D01*
X008890Y002533D01*
X008890Y002842D01*
X008881Y002864D01*
X008864Y002881D01*
X008842Y002890D01*
X008533Y002890D01*
X008533Y002533D01*
X008477Y002533D01*
X008477Y002890D01*
X008168Y002890D01*
X008146Y002881D01*
X008129Y002864D01*
X008120Y002842D01*
X008120Y002533D01*
X008477Y002533D01*
X008477Y002477D01*
X008533Y002477D01*
X008533Y002120D01*
X008842Y002120D01*
X008864Y002129D01*
X008881Y002146D01*
X008890Y002257D02*
X009435Y002257D01*
X009435Y002375D02*
X008890Y002375D01*
X008533Y002375D02*
X008477Y002375D01*
X008477Y002477D02*
X008477Y002120D01*
X008168Y002120D01*
X008146Y002129D01*
X008129Y002146D01*
X008120Y002168D01*
X008120Y002477D01*
X008477Y002477D01*
X008477Y002494D02*
X007950Y002494D01*
X007950Y002612D02*
X008120Y002612D01*
X008120Y002731D02*
X007950Y002731D01*
X007950Y002849D02*
X008123Y002849D01*
X007950Y002880D02*
X007880Y002950D01*
X007130Y002950D01*
X007060Y002880D01*
X007060Y002130D01*
X007130Y002060D01*
X007880Y002060D01*
X007950Y002130D01*
X007950Y002880D01*
X008477Y002849D02*
X008533Y002849D01*
X008533Y002731D02*
X008477Y002731D01*
X008477Y002612D02*
X008533Y002612D01*
X008533Y002494D02*
X009435Y002494D01*
X009435Y002612D02*
X008890Y002612D01*
X008890Y002731D02*
X009435Y002731D01*
X009435Y002849D02*
X008887Y002849D01*
X008533Y002257D02*
X008477Y002257D01*
X008477Y002138D02*
X008533Y002138D01*
X008533Y001890D02*
X008842Y001890D01*
X008864Y001881D01*
X008881Y001864D01*
X008890Y001842D01*
X008890Y001533D01*
X008533Y001533D01*
X008533Y001477D01*
X008890Y001477D01*
X008890Y001168D01*
X008881Y001146D01*
X008864Y001129D01*
X008842Y001120D01*
X008533Y001120D01*
X008533Y001477D01*
X008477Y001477D01*
X008477Y001120D01*
X008168Y001120D01*
X008146Y001129D01*
X008129Y001146D01*
X008120Y001168D01*
X008120Y001477D01*
X008477Y001477D01*
X008477Y001533D01*
X008477Y001890D01*
X008168Y001890D01*
X008146Y001881D01*
X008129Y001864D01*
X008120Y001842D01*
X008120Y001533D01*
X008477Y001533D01*
X008533Y001533D01*
X008533Y001890D01*
X008533Y001783D02*
X008477Y001783D01*
X008477Y001664D02*
X008533Y001664D01*
X008533Y001546D02*
X008477Y001546D01*
X008477Y001427D02*
X008533Y001427D01*
X008533Y001309D02*
X008477Y001309D01*
X008477Y001190D02*
X008533Y001190D01*
X008890Y001190D02*
X009435Y001190D01*
X009435Y001309D02*
X008890Y001309D01*
X008890Y001427D02*
X009435Y001427D01*
X009435Y001546D02*
X008890Y001546D01*
X008890Y001664D02*
X009435Y001664D01*
X009435Y001783D02*
X008890Y001783D01*
X009456Y001901D02*
X007929Y001901D01*
X007950Y001880D02*
X007880Y001950D01*
X007130Y001950D01*
X007060Y001880D01*
X007060Y001130D01*
X007130Y001060D01*
X007880Y001060D01*
X007950Y001130D01*
X007950Y001880D01*
X007950Y001783D02*
X008120Y001783D01*
X008120Y001664D02*
X007950Y001664D01*
X007950Y001546D02*
X008120Y001546D01*
X008120Y001427D02*
X007950Y001427D01*
X007950Y001309D02*
X008120Y001309D01*
X008120Y001190D02*
X007950Y001190D01*
X007891Y001072D02*
X009494Y001072D01*
X009880Y001505D02*
X009880Y002505D01*
X009880Y002930D01*
X010005Y003055D01*
X011405Y003055D01*
X011555Y003205D01*
X011834Y003205D02*
X017421Y003205D01*
X017414Y003223D02*
X017534Y002932D01*
X017757Y002709D01*
X018048Y002589D01*
X018362Y002589D01*
X018653Y002709D01*
X018876Y002932D01*
X018917Y003032D01*
X018959Y002932D01*
X019182Y002709D01*
X019473Y002589D01*
X019787Y002589D01*
X020078Y002709D01*
X020301Y002932D01*
X020421Y003223D01*
X020421Y003537D01*
X020301Y003828D01*
X020078Y004051D01*
X019787Y004171D01*
X019473Y004171D01*
X019182Y004051D01*
X018959Y003828D01*
X018917Y003728D01*
X018876Y003828D01*
X018653Y004051D01*
X018362Y004171D01*
X018048Y004171D01*
X017757Y004051D01*
X017534Y003828D01*
X017414Y003537D01*
X017414Y003223D01*
X017414Y003323D02*
X011808Y003323D01*
X011712Y003442D02*
X017414Y003442D01*
X017423Y003560D02*
X000365Y003560D01*
X000365Y003442D02*
X011398Y003442D01*
X011302Y003323D02*
X002192Y003323D01*
X002065Y003323D02*
X001945Y003323D01*
X001945Y003205D02*
X002065Y003205D01*
X002065Y003086D02*
X001945Y003086D01*
X001945Y002968D02*
X002065Y002968D01*
X002065Y002849D02*
X001945Y002849D01*
X001945Y002731D02*
X002065Y002731D01*
X002065Y002612D02*
X001945Y002612D01*
X001945Y002494D02*
X002065Y002494D01*
X002065Y002375D02*
X001945Y002375D01*
X001945Y002257D02*
X002065Y002257D01*
X002065Y001945D02*
X003335Y001945D01*
X003335Y001940D01*
X003322Y001810D01*
X003297Y001681D01*
X003259Y001556D01*
X003209Y001436D01*
X003147Y001320D01*
X003075Y001212D01*
X002992Y001111D01*
X002899Y001018D01*
X002798Y000935D01*
X002690Y000863D01*
X002574Y000801D01*
X002454Y000751D01*
X002329Y000713D01*
X002200Y000688D01*
X002070Y000675D01*
X002065Y000675D01*
X002065Y001945D01*
X002065Y001901D02*
X001945Y001901D01*
X001945Y001783D02*
X002065Y001783D01*
X002065Y001664D02*
X001945Y001664D01*
X001945Y001546D02*
X002065Y001546D01*
X002065Y001427D02*
X001945Y001427D01*
X001945Y001309D02*
X002065Y001309D01*
X002065Y001190D02*
X001945Y001190D01*
X001945Y001072D02*
X002065Y001072D01*
X002065Y000953D02*
X001945Y000953D01*
X001945Y000835D02*
X002065Y000835D01*
X002065Y000716D02*
X001945Y000716D01*
X002337Y000716D02*
X006889Y000716D01*
X006905Y000700D02*
X014705Y000700D01*
X014955Y000950D01*
X015060Y001055D01*
X015060Y001060D01*
X015255Y001060D01*
X015325Y001130D01*
X015325Y001880D01*
X015255Y001950D01*
X015060Y001950D01*
X015060Y002060D01*
X015255Y002060D01*
X015325Y002130D01*
X015325Y002880D01*
X015255Y002950D01*
X014505Y002950D01*
X014435Y002880D01*
X014435Y002130D01*
X014505Y002060D01*
X014700Y002060D01*
X014700Y001950D01*
X014505Y001950D01*
X014435Y001880D01*
X014435Y001130D01*
X014505Y001060D01*
X014555Y001060D01*
X007055Y001060D01*
X006909Y001206D01*
X006909Y001285D01*
X006866Y001388D01*
X006788Y001466D01*
X006685Y001509D01*
X006575Y001509D01*
X006472Y001466D01*
X006394Y001388D01*
X006351Y001285D01*
X006351Y001175D01*
X006394Y001072D01*
X006472Y000994D01*
X006575Y000951D01*
X006654Y000951D01*
X006800Y000805D01*
X006905Y000700D01*
X006771Y000835D02*
X002637Y000835D01*
X002820Y000953D02*
X006570Y000953D01*
X006394Y001072D02*
X002952Y001072D01*
X003057Y001190D02*
X004620Y001190D01*
X004620Y001168D02*
X004629Y001146D01*
X004646Y001129D01*
X004668Y001120D01*
X004977Y001120D01*
X004977Y001477D01*
X005033Y001477D01*
X005033Y001533D01*
X005390Y001533D01*
X005390Y001842D01*
X005381Y001864D01*
X005364Y001881D01*
X005342Y001890D01*
X005033Y001890D01*
X005033Y001533D01*
X004977Y001533D01*
X004977Y001890D01*
X004668Y001890D01*
X004646Y001881D01*
X004629Y001864D01*
X004620Y001842D01*
X004620Y001533D01*
X004977Y001533D01*
X004977Y001477D01*
X004620Y001477D01*
X004620Y001168D01*
X004620Y001309D02*
X003139Y001309D01*
X003204Y001427D02*
X004620Y001427D01*
X004620Y001546D02*
X003254Y001546D01*
X003291Y001664D02*
X004620Y001664D01*
X004620Y001783D02*
X003317Y001783D01*
X003331Y001901D02*
X007081Y001901D01*
X007060Y001783D02*
X005390Y001783D01*
X005390Y001664D02*
X007060Y001664D01*
X007060Y001546D02*
X005390Y001546D01*
X005390Y001477D02*
X005033Y001477D01*
X005033Y001120D01*
X005342Y001120D01*
X005364Y001129D01*
X005381Y001146D01*
X005390Y001168D01*
X005390Y001477D01*
X005390Y001427D02*
X006433Y001427D01*
X006361Y001309D02*
X005390Y001309D01*
X005390Y001190D02*
X006351Y001190D01*
X006630Y001230D02*
X006980Y000880D01*
X014630Y000880D01*
X014880Y001130D01*
X014880Y001505D01*
X014880Y002505D01*
X015325Y002494D02*
X015435Y002494D01*
X015435Y002612D02*
X015325Y002612D01*
X015325Y002731D02*
X015435Y002731D01*
X015435Y002849D02*
X015325Y002849D01*
X015435Y002880D02*
X015505Y002950D01*
X016255Y002950D01*
X016325Y002880D01*
X016325Y002130D01*
X016255Y002060D01*
X015505Y002060D01*
X015435Y002130D01*
X015435Y002880D01*
X015435Y002375D02*
X015325Y002375D01*
X015325Y002257D02*
X015435Y002257D01*
X015435Y002138D02*
X015325Y002138D01*
X015505Y001950D02*
X015435Y001880D01*
X015435Y001130D01*
X015505Y001060D01*
X016255Y001060D01*
X016325Y001130D01*
X016325Y001880D01*
X016255Y001950D01*
X015505Y001950D01*
X015456Y001901D02*
X015304Y001901D01*
X015325Y001783D02*
X015435Y001783D01*
X015435Y001664D02*
X015325Y001664D01*
X015325Y001546D02*
X015435Y001546D01*
X015435Y001427D02*
X015325Y001427D01*
X015325Y001309D02*
X015435Y001309D01*
X015435Y001190D02*
X015325Y001190D01*
X015266Y001072D02*
X015494Y001072D01*
X014958Y000953D02*
X021190Y000953D01*
X021212Y000935D02*
X021320Y000863D01*
X021436Y000801D01*
X021556Y000751D01*
X021681Y000713D01*
X021810Y000688D01*
X021940Y000675D01*
X021945Y000675D01*
X021945Y001945D01*
X022065Y001945D01*
X022065Y002065D01*
X023335Y002065D01*
X023335Y002070D01*
X023322Y002200D01*
X023297Y002329D01*
X023259Y002454D01*
X023209Y002574D01*
X023147Y002690D01*
X023075Y002798D01*
X022992Y002899D01*
X022899Y002992D01*
X022798Y003075D01*
X022690Y003147D01*
X022574Y003209D01*
X022454Y003259D01*
X022329Y003297D01*
X022200Y003322D01*
X022070Y003335D01*
X022065Y003335D01*
X022065Y002065D01*
X021945Y002065D01*
X021945Y003335D01*
X021940Y003335D01*
X021810Y003322D01*
X021681Y003297D01*
X021556Y003259D01*
X021436Y003209D01*
X021320Y003147D01*
X021212Y003075D01*
X021111Y002992D01*
X021018Y002899D01*
X020935Y002798D01*
X020863Y002690D01*
X020801Y002574D01*
X020751Y002454D01*
X020713Y002329D01*
X020688Y002200D01*
X020675Y002070D01*
X020675Y002065D01*
X021945Y002065D01*
X021945Y001945D01*
X020675Y001945D01*
X020675Y001940D01*
X020688Y001810D01*
X020713Y001681D01*
X020751Y001556D01*
X020801Y001436D01*
X020863Y001320D01*
X020935Y001212D01*
X021018Y001111D01*
X021111Y001018D01*
X021212Y000935D01*
X021373Y000835D02*
X014839Y000835D01*
X014721Y000716D02*
X021673Y000716D01*
X021945Y000716D02*
X022065Y000716D01*
X022065Y000675D02*
X022070Y000675D01*
X022200Y000688D01*
X022329Y000713D01*
X022454Y000751D01*
X022574Y000801D01*
X022690Y000863D01*
X022798Y000935D01*
X022899Y001018D01*
X022992Y001111D01*
X023075Y001212D01*
X023147Y001320D01*
X023209Y001436D01*
X023259Y001556D01*
X023297Y001681D01*
X023322Y001810D01*
X023335Y001940D01*
X023335Y001945D01*
X022065Y001945D01*
X022065Y000675D01*
X022065Y000835D02*
X021945Y000835D01*
X021945Y000953D02*
X022065Y000953D01*
X022065Y001072D02*
X021945Y001072D01*
X021945Y001190D02*
X022065Y001190D01*
X022065Y001309D02*
X021945Y001309D01*
X021945Y001427D02*
X022065Y001427D01*
X022065Y001546D02*
X021945Y001546D01*
X021945Y001664D02*
X022065Y001664D01*
X022065Y001783D02*
X021945Y001783D01*
X021945Y001901D02*
X022065Y001901D01*
X022065Y002020D02*
X023645Y002020D01*
X023645Y002138D02*
X023328Y002138D01*
X023311Y002257D02*
X023645Y002257D01*
X023645Y002375D02*
X023283Y002375D01*
X023242Y002494D02*
X023645Y002494D01*
X023645Y002612D02*
X023189Y002612D01*
X023120Y002731D02*
X023645Y002731D01*
X023645Y002849D02*
X023033Y002849D01*
X022923Y002968D02*
X023645Y002968D01*
X023645Y003086D02*
X022781Y003086D01*
X022582Y003205D02*
X023645Y003205D01*
X023645Y003323D02*
X022192Y003323D01*
X022065Y003323D02*
X021945Y003323D01*
X021945Y003205D02*
X022065Y003205D01*
X022065Y003086D02*
X021945Y003086D01*
X021945Y002968D02*
X022065Y002968D01*
X022065Y002849D02*
X021945Y002849D01*
X021945Y002731D02*
X022065Y002731D01*
X022065Y002612D02*
X021945Y002612D01*
X021945Y002494D02*
X022065Y002494D01*
X022065Y002375D02*
X021945Y002375D01*
X021945Y002257D02*
X022065Y002257D01*
X022065Y002138D02*
X021945Y002138D01*
X021945Y002020D02*
X015060Y002020D01*
X014700Y002020D02*
X010060Y002020D01*
X010304Y001901D02*
X010456Y001901D01*
X010435Y001880D02*
X010435Y001130D01*
X010505Y001060D01*
X011255Y001060D01*
X011325Y001130D01*
X011325Y001880D01*
X011255Y001950D01*
X010505Y001950D01*
X010435Y001880D01*
X010435Y001783D02*
X010325Y001783D01*
X010325Y001664D02*
X010435Y001664D01*
X010435Y001546D02*
X010325Y001546D01*
X010325Y001427D02*
X010435Y001427D01*
X010435Y001309D02*
X010325Y001309D01*
X010325Y001190D02*
X010435Y001190D01*
X010494Y001072D02*
X010266Y001072D01*
X011266Y001072D02*
X011494Y001072D01*
X011505Y001060D02*
X012255Y001060D01*
X012325Y001130D01*
X012325Y001880D01*
X012255Y001950D01*
X011505Y001950D01*
X011435Y001880D01*
X011435Y001130D01*
X011505Y001060D01*
X011435Y001190D02*
X011325Y001190D01*
X011325Y001309D02*
X011435Y001309D01*
X011435Y001427D02*
X011325Y001427D01*
X011325Y001546D02*
X011435Y001546D01*
X011435Y001664D02*
X011325Y001664D01*
X011325Y001783D02*
X011435Y001783D01*
X011456Y001901D02*
X011304Y001901D01*
X011325Y002138D02*
X011435Y002138D01*
X011435Y002257D02*
X011325Y002257D01*
X011325Y002375D02*
X011435Y002375D01*
X011435Y002494D02*
X011325Y002494D01*
X011325Y002612D02*
X011435Y002612D01*
X011435Y002731D02*
X011325Y002731D01*
X011325Y002849D02*
X011435Y002849D01*
X011710Y002968D02*
X017519Y002968D01*
X017470Y003086D02*
X011807Y003086D01*
X012325Y002849D02*
X012435Y002849D01*
X012435Y002880D02*
X012435Y002130D01*
X012505Y002060D01*
X013255Y002060D01*
X013325Y002130D01*
X013325Y002880D01*
X013255Y002950D01*
X012505Y002950D01*
X012435Y002880D01*
X012435Y002731D02*
X012325Y002731D01*
X012325Y002612D02*
X012435Y002612D01*
X012435Y002494D02*
X012325Y002494D01*
X012325Y002375D02*
X012435Y002375D01*
X012435Y002257D02*
X012325Y002257D01*
X012325Y002138D02*
X012435Y002138D01*
X012505Y001950D02*
X012435Y001880D01*
X012435Y001130D01*
X012505Y001060D01*
X013255Y001060D01*
X013325Y001130D01*
X013325Y001880D01*
X013255Y001950D01*
X012505Y001950D01*
X012456Y001901D02*
X012304Y001901D01*
X012325Y001783D02*
X012435Y001783D01*
X012435Y001664D02*
X012325Y001664D01*
X012325Y001546D02*
X012435Y001546D01*
X012435Y001427D02*
X012325Y001427D01*
X012325Y001309D02*
X012435Y001309D01*
X012435Y001190D02*
X012325Y001190D01*
X012266Y001072D02*
X012494Y001072D01*
X013266Y001072D02*
X013494Y001072D01*
X013505Y001060D02*
X014255Y001060D01*
X014325Y001130D01*
X014325Y001880D01*
X014255Y001950D01*
X013505Y001950D01*
X013435Y001880D01*
X013435Y001130D01*
X013505Y001060D01*
X013435Y001190D02*
X013325Y001190D01*
X013325Y001309D02*
X013435Y001309D01*
X013435Y001427D02*
X013325Y001427D01*
X013325Y001546D02*
X013435Y001546D01*
X013435Y001664D02*
X013325Y001664D01*
X013325Y001783D02*
X013435Y001783D01*
X013456Y001901D02*
X013304Y001901D01*
X013505Y002060D02*
X014255Y002060D01*
X014325Y002130D01*
X014325Y002880D01*
X014255Y002950D01*
X013505Y002950D01*
X013435Y002880D01*
X013435Y002130D01*
X013505Y002060D01*
X013435Y002138D02*
X013325Y002138D01*
X013325Y002257D02*
X013435Y002257D01*
X013435Y002375D02*
X013325Y002375D01*
X013325Y002494D02*
X013435Y002494D01*
X013435Y002612D02*
X013325Y002612D01*
X013325Y002731D02*
X013435Y002731D01*
X013435Y002849D02*
X013325Y002849D01*
X014325Y002849D02*
X014435Y002849D01*
X014435Y002731D02*
X014325Y002731D01*
X014325Y002612D02*
X014435Y002612D01*
X014435Y002494D02*
X014325Y002494D01*
X014325Y002375D02*
X014435Y002375D01*
X014435Y002257D02*
X014325Y002257D01*
X014325Y002138D02*
X014435Y002138D01*
X014456Y001901D02*
X014304Y001901D01*
X014325Y001783D02*
X014435Y001783D01*
X014435Y001664D02*
X014325Y001664D01*
X014325Y001546D02*
X014435Y001546D01*
X014435Y001427D02*
X014325Y001427D01*
X014325Y001309D02*
X014435Y001309D01*
X014435Y001190D02*
X014325Y001190D01*
X014266Y001072D02*
X014494Y001072D01*
X014555Y001060D02*
X014555Y001060D01*
X016266Y001072D02*
X021058Y001072D01*
X020953Y001190D02*
X017265Y001190D01*
X017265Y001168D02*
X017265Y001477D01*
X016908Y001477D01*
X016908Y001533D01*
X017265Y001533D01*
X017265Y001842D01*
X017256Y001864D01*
X017239Y001881D01*
X017217Y001890D01*
X016908Y001890D01*
X016908Y001533D01*
X016852Y001533D01*
X016852Y001890D01*
X016543Y001890D01*
X016521Y001881D01*
X016504Y001864D01*
X016495Y001842D01*
X016495Y001533D01*
X016852Y001533D01*
X016852Y001477D01*
X016908Y001477D01*
X016908Y001120D01*
X017217Y001120D01*
X017239Y001129D01*
X017256Y001146D01*
X017265Y001168D01*
X017265Y001309D02*
X020871Y001309D01*
X020806Y001427D02*
X017265Y001427D01*
X017265Y001546D02*
X020756Y001546D01*
X020719Y001664D02*
X017265Y001664D01*
X017265Y001783D02*
X020693Y001783D01*
X020679Y001901D02*
X016304Y001901D01*
X016325Y001783D02*
X016495Y001783D01*
X016495Y001664D02*
X016325Y001664D01*
X016325Y001546D02*
X016495Y001546D01*
X016495Y001477D02*
X016495Y001168D01*
X016504Y001146D01*
X016521Y001129D01*
X016543Y001120D01*
X016852Y001120D01*
X016852Y001477D01*
X016495Y001477D01*
X016495Y001427D02*
X016325Y001427D01*
X016325Y001309D02*
X016495Y001309D01*
X016495Y001190D02*
X016325Y001190D01*
X016852Y001190D02*
X016908Y001190D01*
X016908Y001309D02*
X016852Y001309D01*
X016852Y001427D02*
X016908Y001427D01*
X016908Y001546D02*
X016852Y001546D01*
X016852Y001664D02*
X016908Y001664D01*
X016908Y001783D02*
X016852Y001783D01*
X016852Y002120D02*
X016543Y002120D01*
X016521Y002129D01*
X016504Y002146D01*
X016495Y002168D01*
X016495Y002477D01*
X016852Y002477D01*
X016908Y002477D01*
X016908Y002533D01*
X017265Y002533D01*
X017265Y002842D01*
X017256Y002864D01*
X017239Y002881D01*
X017217Y002890D01*
X016908Y002890D01*
X016908Y002533D01*
X016852Y002533D01*
X016852Y002890D01*
X016543Y002890D01*
X016521Y002881D01*
X016504Y002864D01*
X016495Y002842D01*
X016495Y002533D01*
X016852Y002533D01*
X016852Y002477D01*
X016852Y002120D01*
X016852Y002138D02*
X016908Y002138D01*
X016908Y002120D02*
X017217Y002120D01*
X017239Y002129D01*
X017256Y002146D01*
X017265Y002168D01*
X017265Y002477D01*
X016908Y002477D01*
X016908Y002120D01*
X016908Y002257D02*
X016852Y002257D01*
X016852Y002375D02*
X016908Y002375D01*
X016908Y002494D02*
X020768Y002494D01*
X020727Y002375D02*
X017265Y002375D01*
X017265Y002257D02*
X020699Y002257D01*
X020682Y002138D02*
X017248Y002138D01*
X016852Y002494D02*
X016325Y002494D01*
X016325Y002612D02*
X016495Y002612D01*
X016495Y002731D02*
X016325Y002731D01*
X016325Y002849D02*
X016498Y002849D01*
X016852Y002849D02*
X016908Y002849D01*
X016908Y002731D02*
X016852Y002731D01*
X016852Y002612D02*
X016908Y002612D01*
X017265Y002612D02*
X017991Y002612D01*
X017735Y002731D02*
X017265Y002731D01*
X017262Y002849D02*
X017617Y002849D01*
X018419Y002612D02*
X019416Y002612D01*
X019160Y002731D02*
X018675Y002731D01*
X018793Y002849D02*
X019042Y002849D01*
X018944Y002968D02*
X018891Y002968D01*
X019844Y002612D02*
X020821Y002612D01*
X020890Y002731D02*
X020100Y002731D01*
X020218Y002849D02*
X020977Y002849D01*
X021087Y002968D02*
X020316Y002968D01*
X020365Y003086D02*
X021229Y003086D01*
X021428Y003205D02*
X020414Y003205D01*
X020421Y003323D02*
X021818Y003323D01*
X020421Y003442D02*
X023645Y003442D01*
X023645Y003560D02*
X020412Y003560D01*
X020363Y003679D02*
X023645Y003679D01*
X023645Y003797D02*
X020314Y003797D01*
X020214Y003916D02*
X023645Y003916D01*
X023645Y004034D02*
X020095Y004034D01*
X019833Y004153D02*
X023645Y004153D01*
X023645Y004271D02*
X014435Y004271D01*
X014435Y004219D02*
X014435Y008666D01*
X014491Y008722D01*
X014534Y008825D01*
X014534Y008935D01*
X014491Y009038D01*
X014413Y009116D01*
X014310Y009159D01*
X014200Y009159D01*
X014097Y009116D01*
X014019Y009038D01*
X013976Y008935D01*
X013976Y008825D01*
X014019Y008722D01*
X014075Y008666D01*
X014075Y004219D01*
X014019Y004163D01*
X013976Y004060D01*
X013976Y003950D01*
X014019Y003847D01*
X014097Y003769D01*
X014200Y003726D01*
X014310Y003726D01*
X014413Y003769D01*
X014491Y003847D01*
X014534Y003950D01*
X014534Y004060D01*
X014491Y004163D01*
X014435Y004219D01*
X014496Y004153D02*
X018002Y004153D01*
X017740Y004034D02*
X014534Y004034D01*
X014520Y003916D02*
X017621Y003916D01*
X017521Y003797D02*
X014441Y003797D01*
X014255Y004005D02*
X014255Y008880D01*
X014513Y008774D02*
X017739Y008774D01*
X017690Y008724D02*
X017629Y008577D01*
X017629Y008417D01*
X017690Y008270D01*
X017802Y008157D01*
X017950Y008096D01*
X018109Y008096D01*
X018257Y008157D01*
X018370Y008270D01*
X018431Y008417D01*
X018431Y008577D01*
X018370Y008724D01*
X018270Y008824D01*
X018270Y011325D01*
X018325Y011380D01*
X018325Y012130D01*
X018255Y012200D01*
X017505Y012200D01*
X017435Y012130D01*
X017435Y011380D01*
X017505Y011310D01*
X017790Y011310D01*
X017790Y008824D01*
X017690Y008724D01*
X017661Y008656D02*
X014435Y008656D01*
X014505Y008575D02*
X014435Y008505D01*
X014435Y007755D01*
X014505Y007685D01*
X015255Y007685D01*
X015325Y007755D01*
X015325Y008505D01*
X015255Y008575D01*
X014505Y008575D01*
X014467Y008537D02*
X014435Y008537D01*
X014435Y008419D02*
X014435Y008419D01*
X014435Y008300D02*
X014435Y008300D01*
X014435Y008182D02*
X014435Y008182D01*
X014435Y008063D02*
X014435Y008063D01*
X014435Y007945D02*
X014435Y007945D01*
X014435Y007826D02*
X014435Y007826D01*
X014435Y007708D02*
X014483Y007708D01*
X014435Y007589D02*
X017629Y007589D01*
X017629Y007593D02*
X017629Y007433D01*
X017690Y007286D01*
X017802Y007173D01*
X017950Y007112D01*
X018109Y007112D01*
X018257Y007173D01*
X018370Y007286D01*
X018423Y007415D01*
X018477Y007286D01*
X018590Y007173D01*
X018737Y007112D01*
X018897Y007112D01*
X019044Y007173D01*
X019157Y007286D01*
X019218Y007433D01*
X019218Y007593D01*
X019157Y007740D01*
X019044Y007853D01*
X018897Y007914D01*
X018737Y007914D01*
X018590Y007853D01*
X018477Y007740D01*
X018423Y007611D01*
X018370Y007740D01*
X018257Y007853D01*
X018109Y007914D01*
X017950Y007914D01*
X017802Y007853D01*
X017690Y007740D01*
X017629Y007593D01*
X017629Y007471D02*
X015325Y007471D01*
X015325Y007505D02*
X015255Y007575D01*
X014505Y007575D01*
X014435Y007505D01*
X014435Y006755D01*
X014505Y006685D01*
X015255Y006685D01*
X015325Y006755D01*
X015325Y007505D01*
X015325Y007352D02*
X017662Y007352D01*
X017742Y007234D02*
X015325Y007234D01*
X015325Y007115D02*
X017942Y007115D01*
X018117Y007115D02*
X018729Y007115D01*
X018905Y007115D02*
X023645Y007115D01*
X023645Y006997D02*
X015325Y006997D01*
X015325Y006878D02*
X023645Y006878D01*
X023645Y006760D02*
X015325Y006760D01*
X014435Y006760D02*
X014435Y006760D01*
X014435Y006878D02*
X014435Y006878D01*
X014435Y006997D02*
X014435Y006997D01*
X014435Y007115D02*
X014435Y007115D01*
X014435Y007234D02*
X014435Y007234D01*
X014435Y007352D02*
X014435Y007352D01*
X014435Y007471D02*
X014435Y007471D01*
X014075Y007471D02*
X000365Y007471D01*
X000365Y007589D02*
X014075Y007589D01*
X014075Y007708D02*
X000365Y007708D01*
X000365Y007826D02*
X014075Y007826D01*
X014075Y007945D02*
X000365Y007945D01*
X000365Y008063D02*
X014075Y008063D01*
X014075Y008182D02*
X000365Y008182D01*
X000365Y008300D02*
X014075Y008300D01*
X014075Y008419D02*
X000365Y008419D01*
X000365Y008537D02*
X014075Y008537D01*
X014075Y008656D02*
X000365Y008656D01*
X000365Y008774D02*
X013997Y008774D01*
X013976Y008893D02*
X000365Y008893D01*
X000365Y009011D02*
X001112Y009011D01*
X001085Y009024D02*
X001164Y008984D01*
X001248Y008957D01*
X001320Y008946D01*
X001320Y009445D01*
X000821Y009445D01*
X000832Y009373D01*
X000859Y009289D01*
X000899Y009210D01*
X000951Y009139D01*
X001014Y009076D01*
X001085Y009024D01*
X000961Y009130D02*
X000365Y009130D01*
X000365Y009248D02*
X000880Y009248D01*
X000834Y009367D02*
X000365Y009367D01*
X000365Y009485D02*
X001320Y009485D01*
X001320Y009445D02*
X001320Y009565D01*
X001320Y010064D01*
X001248Y010053D01*
X001164Y010026D01*
X001085Y009986D01*
X001014Y009934D01*
X000951Y009871D01*
X000899Y009800D01*
X000859Y009721D01*
X000832Y009637D01*
X000821Y009565D01*
X001320Y009565D01*
X001440Y009565D01*
X001440Y010064D01*
X001512Y010053D01*
X001596Y010026D01*
X001675Y009986D01*
X001746Y009934D01*
X001809Y009871D01*
X001861Y009800D01*
X001901Y009721D01*
X001928Y009637D01*
X001939Y009565D01*
X001440Y009565D01*
X001440Y009445D01*
X001939Y009445D01*
X001928Y009373D01*
X001901Y009289D01*
X001861Y009210D01*
X001809Y009139D01*
X001746Y009076D01*
X001675Y009024D01*
X001596Y008984D01*
X001512Y008957D01*
X001440Y008946D01*
X001440Y009445D01*
X001320Y009445D01*
X001320Y009367D02*
X001440Y009367D01*
X001440Y009485D02*
X003320Y009485D01*
X003320Y009445D02*
X003320Y009565D01*
X003320Y010064D01*
X003248Y010053D01*
X003164Y010026D01*
X003085Y009986D01*
X003014Y009934D01*
X002951Y009871D01*
X002899Y009800D01*
X002859Y009721D01*
X002832Y009637D01*
X002821Y009565D01*
X003320Y009565D01*
X003440Y009565D01*
X003440Y010064D01*
X003512Y010053D01*
X003596Y010026D01*
X003675Y009986D01*
X003746Y009934D01*
X003809Y009871D01*
X003861Y009800D01*
X003901Y009721D01*
X003928Y009637D01*
X003939Y009565D01*
X003440Y009565D01*
X003440Y009445D01*
X003939Y009445D01*
X003928Y009373D01*
X003901Y009289D01*
X003861Y009210D01*
X003809Y009139D01*
X003746Y009076D01*
X003675Y009024D01*
X003596Y008984D01*
X003512Y008957D01*
X003440Y008946D01*
X003440Y009445D01*
X003320Y009445D01*
X002821Y009445D01*
X002832Y009373D01*
X002859Y009289D01*
X002899Y009210D01*
X002951Y009139D01*
X003014Y009076D01*
X003085Y009024D01*
X003164Y008984D01*
X003248Y008957D01*
X003320Y008946D01*
X003320Y009445D01*
X003320Y009367D02*
X003440Y009367D01*
X003440Y009485D02*
X017790Y009485D01*
X017790Y009367D02*
X003926Y009367D01*
X003880Y009248D02*
X017790Y009248D01*
X017790Y009130D02*
X014381Y009130D01*
X014502Y009011D02*
X017790Y009011D01*
X017790Y008893D02*
X014534Y008893D01*
X014129Y009130D02*
X003799Y009130D01*
X003648Y009011D02*
X014008Y009011D01*
X015293Y008537D02*
X017629Y008537D01*
X017629Y008419D02*
X015325Y008419D01*
X015325Y008300D02*
X017677Y008300D01*
X017778Y008182D02*
X015325Y008182D01*
X015325Y008063D02*
X023645Y008063D01*
X023645Y007945D02*
X015325Y007945D01*
X015325Y007826D02*
X017776Y007826D01*
X017676Y007708D02*
X015277Y007708D01*
X014075Y007352D02*
X000365Y007352D01*
X000365Y007234D02*
X014075Y007234D01*
X014075Y007115D02*
X000365Y007115D01*
X000365Y006997D02*
X014075Y006997D01*
X014075Y006878D02*
X000365Y006878D01*
X000365Y006760D02*
X014075Y006760D01*
X014075Y006641D02*
X000365Y006641D01*
X000365Y006523D02*
X014075Y006523D01*
X014075Y006404D02*
X000365Y006404D01*
X000365Y006286D02*
X014075Y006286D01*
X014075Y006167D02*
X002573Y006167D01*
X002560Y006180D02*
X002425Y006180D01*
X002425Y005825D01*
X002385Y005825D01*
X002385Y006180D01*
X002250Y006180D01*
X002030Y005960D01*
X002030Y005825D01*
X002385Y005825D01*
X002385Y005785D01*
X002030Y005785D01*
X002030Y005650D01*
X002250Y005430D01*
X002385Y005430D01*
X002385Y005785D01*
X002425Y005785D01*
X002425Y005825D01*
X002780Y005825D01*
X002780Y005960D01*
X002560Y006180D01*
X002425Y006167D02*
X002385Y006167D01*
X002385Y006049D02*
X002425Y006049D01*
X002425Y005930D02*
X002385Y005930D01*
X002385Y005812D02*
X000365Y005812D01*
X000365Y005930D02*
X002030Y005930D01*
X002118Y006049D02*
X000365Y006049D01*
X000365Y006167D02*
X002237Y006167D01*
X002425Y005812D02*
X014075Y005812D01*
X014075Y005930D02*
X002780Y005930D01*
X002780Y005785D02*
X002425Y005785D01*
X002425Y005430D01*
X002560Y005430D01*
X002780Y005650D01*
X002780Y005785D01*
X002780Y005693D02*
X014075Y005693D01*
X014075Y005575D02*
X002705Y005575D01*
X002586Y005456D02*
X014075Y005456D01*
X014075Y005338D02*
X000365Y005338D01*
X000365Y005456D02*
X002224Y005456D01*
X002385Y005456D02*
X002425Y005456D01*
X002425Y005575D02*
X002385Y005575D01*
X002385Y005693D02*
X002425Y005693D01*
X002105Y005575D02*
X000365Y005575D01*
X000365Y005693D02*
X002030Y005693D01*
X002692Y006049D02*
X014075Y006049D01*
X014435Y006049D02*
X019179Y006049D01*
X019205Y006094D02*
X019152Y006002D01*
X019111Y005904D01*
X019084Y005801D01*
X019071Y005703D01*
X019820Y005703D01*
X019820Y006452D01*
X019722Y006439D01*
X019619Y006411D01*
X019521Y006371D01*
X019429Y006318D01*
X019345Y006253D01*
X019270Y006178D01*
X019205Y006094D01*
X019261Y006167D02*
X014435Y006167D01*
X014435Y006286D02*
X019387Y006286D01*
X019601Y006404D02*
X014435Y006404D01*
X014435Y006523D02*
X023645Y006523D01*
X023645Y006641D02*
X014435Y006641D01*
X014435Y005930D02*
X019122Y005930D01*
X019087Y005812D02*
X014435Y005812D01*
X014435Y005693D02*
X019820Y005693D01*
X019820Y005703D02*
X019820Y005583D01*
X019071Y005583D01*
X019084Y005484D01*
X019111Y005382D01*
X019152Y005284D01*
X019205Y005192D01*
X019270Y005108D01*
X019345Y005032D01*
X019429Y004968D01*
X019521Y004915D01*
X019619Y004874D01*
X019722Y004847D01*
X019820Y004834D01*
X019820Y005583D01*
X019940Y005583D01*
X019940Y005703D01*
X019820Y005703D01*
X019820Y005812D02*
X019940Y005812D01*
X019940Y005703D02*
X019940Y006452D01*
X020038Y006439D01*
X020141Y006411D01*
X020239Y006371D01*
X020331Y006318D01*
X020415Y006253D01*
X020490Y006178D01*
X020555Y006094D01*
X020608Y006002D01*
X020649Y005904D01*
X020676Y005801D01*
X020689Y005703D01*
X019940Y005703D01*
X019940Y005693D02*
X023645Y005693D01*
X023645Y005575D02*
X020688Y005575D01*
X020689Y005583D02*
X019940Y005583D01*
X019940Y004834D01*
X020038Y004847D01*
X020141Y004874D01*
X020239Y004915D01*
X020331Y004968D01*
X020415Y005032D01*
X020490Y005108D01*
X020555Y005192D01*
X020608Y005284D01*
X020649Y005382D01*
X020676Y005484D01*
X020689Y005583D01*
X020669Y005456D02*
X023645Y005456D01*
X023645Y005338D02*
X020630Y005338D01*
X020571Y005219D02*
X023645Y005219D01*
X023645Y005101D02*
X020483Y005101D01*
X020349Y004982D02*
X023645Y004982D01*
X023645Y004864D02*
X020101Y004864D01*
X019940Y004864D02*
X019820Y004864D01*
X019820Y004982D02*
X019940Y004982D01*
X019940Y005101D02*
X019820Y005101D01*
X019820Y005219D02*
X019940Y005219D01*
X019940Y005338D02*
X019820Y005338D01*
X019820Y005456D02*
X019940Y005456D01*
X019940Y005575D02*
X019820Y005575D01*
X019820Y005930D02*
X019940Y005930D01*
X019940Y006049D02*
X019820Y006049D01*
X019820Y006167D02*
X019940Y006167D01*
X019940Y006286D02*
X019820Y006286D01*
X019820Y006404D02*
X019940Y006404D01*
X020159Y006404D02*
X023645Y006404D01*
X023645Y006286D02*
X020373Y006286D01*
X020499Y006167D02*
X023645Y006167D01*
X023645Y006049D02*
X020581Y006049D01*
X020638Y005930D02*
X023645Y005930D01*
X023645Y005812D02*
X020673Y005812D01*
X019411Y004982D02*
X014435Y004982D01*
X014435Y004864D02*
X019659Y004864D01*
X019277Y005101D02*
X014435Y005101D01*
X014435Y005219D02*
X019189Y005219D01*
X019130Y005338D02*
X014435Y005338D01*
X014435Y005456D02*
X019091Y005456D01*
X019072Y005575D02*
X014435Y005575D01*
X014075Y005219D02*
X000365Y005219D01*
X000365Y005101D02*
X014075Y005101D01*
X014075Y004982D02*
X000365Y004982D01*
X000365Y004864D02*
X014075Y004864D01*
X014075Y004745D02*
X002680Y004745D01*
X002651Y004774D02*
X002492Y004840D01*
X002318Y004840D01*
X002159Y004774D01*
X002036Y004651D01*
X001970Y004492D01*
X001970Y004318D01*
X002036Y004159D01*
X002159Y004036D01*
X002318Y003970D01*
X002492Y003970D01*
X002651Y004036D01*
X002774Y004159D01*
X002840Y004318D01*
X002840Y004492D01*
X002774Y004651D01*
X002651Y004774D01*
X002784Y004627D02*
X014075Y004627D01*
X014075Y004508D02*
X002833Y004508D01*
X002840Y004390D02*
X014075Y004390D01*
X014075Y004271D02*
X002820Y004271D01*
X002768Y004153D02*
X014014Y004153D01*
X013976Y004034D02*
X002646Y004034D01*
X002164Y004034D02*
X000365Y004034D01*
X000365Y003916D02*
X013990Y003916D01*
X014069Y003797D02*
X000365Y003797D01*
X000365Y003679D02*
X017472Y003679D01*
X018408Y004153D02*
X019427Y004153D01*
X019165Y004034D02*
X018670Y004034D01*
X018789Y003916D02*
X019046Y003916D01*
X018946Y003797D02*
X018889Y003797D01*
X016495Y002375D02*
X016325Y002375D01*
X016325Y002257D02*
X016495Y002257D01*
X016512Y002138D02*
X016325Y002138D01*
X014435Y004390D02*
X023645Y004390D01*
X023645Y004508D02*
X014435Y004508D01*
X014435Y004627D02*
X023645Y004627D01*
X023645Y004745D02*
X014435Y004745D01*
X010435Y002849D02*
X010325Y002849D01*
X010325Y002731D02*
X010435Y002731D01*
X010435Y002612D02*
X010325Y002612D01*
X010325Y002494D02*
X010435Y002494D01*
X010435Y002375D02*
X010325Y002375D01*
X010325Y002257D02*
X010435Y002257D01*
X010435Y002138D02*
X010325Y002138D01*
X009700Y002968D02*
X002923Y002968D01*
X003033Y002849D02*
X004560Y002849D01*
X004560Y002880D02*
X004560Y002130D01*
X004630Y002060D01*
X005380Y002060D01*
X005450Y002130D01*
X005450Y002880D01*
X005380Y002950D01*
X004630Y002950D01*
X004560Y002880D01*
X004560Y002731D02*
X003120Y002731D01*
X003189Y002612D02*
X004560Y002612D01*
X004560Y002494D02*
X003242Y002494D01*
X003283Y002375D02*
X004560Y002375D01*
X004560Y002257D02*
X003311Y002257D01*
X003328Y002138D02*
X004560Y002138D01*
X004977Y001783D02*
X005033Y001783D01*
X005033Y001664D02*
X004977Y001664D01*
X004977Y001546D02*
X005033Y001546D01*
X005033Y001427D02*
X004977Y001427D01*
X004977Y001309D02*
X005033Y001309D01*
X005033Y001190D02*
X004977Y001190D01*
X005450Y002138D02*
X007060Y002138D01*
X007060Y002257D02*
X005450Y002257D01*
X005450Y002375D02*
X007060Y002375D01*
X007060Y002494D02*
X005450Y002494D01*
X005450Y002612D02*
X007060Y002612D01*
X007060Y002731D02*
X005450Y002731D01*
X005450Y002849D02*
X007060Y002849D01*
X007950Y002375D02*
X008120Y002375D01*
X008120Y002257D02*
X007950Y002257D01*
X007950Y002138D02*
X008137Y002138D01*
X007060Y001427D02*
X006827Y001427D01*
X006899Y001309D02*
X007060Y001309D01*
X007060Y001190D02*
X006925Y001190D01*
X007043Y001072D02*
X007119Y001072D01*
X009781Y003086D02*
X002781Y003086D01*
X002582Y003205D02*
X009900Y003205D01*
X002042Y004153D02*
X000365Y004153D01*
X000365Y004271D02*
X001990Y004271D01*
X001970Y004390D02*
X000365Y004390D01*
X000365Y004508D02*
X001977Y004508D01*
X002026Y004627D02*
X000365Y004627D01*
X000365Y004745D02*
X002130Y004745D01*
X001818Y003323D02*
X000365Y003323D01*
X000365Y003205D02*
X001428Y003205D01*
X001229Y003086D02*
X000365Y003086D01*
X000365Y002968D02*
X001087Y002968D01*
X000977Y002849D02*
X000365Y002849D01*
X000365Y002731D02*
X000890Y002731D01*
X000821Y002612D02*
X000365Y002612D01*
X000365Y002494D02*
X000768Y002494D01*
X000727Y002375D02*
X000365Y002375D01*
X000365Y002257D02*
X000699Y002257D01*
X000682Y002138D02*
X000365Y002138D01*
X001320Y009011D02*
X001440Y009011D01*
X001440Y009130D02*
X001320Y009130D01*
X001320Y009248D02*
X001440Y009248D01*
X001648Y009011D02*
X003112Y009011D01*
X002961Y009130D02*
X001799Y009130D01*
X001880Y009248D02*
X002880Y009248D01*
X002834Y009367D02*
X001926Y009367D01*
X001933Y009604D02*
X002827Y009604D01*
X002860Y009722D02*
X001900Y009722D01*
X001831Y009841D02*
X002929Y009841D01*
X003049Y009959D02*
X002533Y009959D01*
X002492Y009942D02*
X002699Y010028D01*
X002857Y010186D01*
X002943Y010393D01*
X002943Y010617D01*
X002857Y010824D01*
X002699Y010982D01*
X002492Y011068D01*
X002268Y011068D01*
X002061Y010982D01*
X001903Y010824D01*
X001817Y010617D01*
X001817Y010393D01*
X001903Y010186D01*
X002061Y010028D01*
X002268Y009942D01*
X002492Y009942D01*
X002227Y009959D02*
X001711Y009959D01*
X001899Y010196D02*
X000365Y010196D01*
X000365Y010078D02*
X002011Y010078D01*
X001850Y010315D02*
X000365Y010315D01*
X000365Y010433D02*
X001817Y010433D01*
X001817Y010552D02*
X000365Y010552D01*
X000365Y010670D02*
X001839Y010670D01*
X001888Y010789D02*
X000365Y010789D01*
X000365Y010907D02*
X001986Y010907D01*
X002166Y011026D02*
X001676Y011026D01*
X001675Y011024D02*
X001746Y011076D01*
X001809Y011139D01*
X001861Y011210D01*
X001901Y011289D01*
X001928Y011373D01*
X001939Y011445D01*
X001440Y011445D01*
X001440Y011565D01*
X001320Y011565D01*
X001320Y012064D01*
X001248Y012053D01*
X001164Y012026D01*
X001085Y011986D01*
X001014Y011934D01*
X000951Y011871D01*
X000899Y011800D01*
X000859Y011721D01*
X000832Y011637D01*
X000821Y011565D01*
X001320Y011565D01*
X001320Y011445D01*
X000821Y011445D01*
X000832Y011373D01*
X000859Y011289D01*
X000899Y011210D01*
X000951Y011139D01*
X001014Y011076D01*
X001085Y011024D01*
X001164Y010984D01*
X001248Y010957D01*
X001320Y010946D01*
X001320Y011445D01*
X001440Y011445D01*
X001440Y010946D01*
X001512Y010957D01*
X001596Y010984D01*
X001675Y011024D01*
X001812Y011144D02*
X002948Y011144D01*
X002951Y011139D02*
X003014Y011076D01*
X003085Y011024D01*
X003164Y010984D01*
X003248Y010957D01*
X003320Y010946D01*
X003320Y011445D01*
X002821Y011445D01*
X002832Y011373D01*
X002859Y011289D01*
X002899Y011210D01*
X002951Y011139D01*
X002873Y011263D02*
X001887Y011263D01*
X001929Y011381D02*
X002831Y011381D01*
X002821Y011565D02*
X003320Y011565D01*
X003320Y012064D01*
X003248Y012053D01*
X003164Y012026D01*
X003085Y011986D01*
X003014Y011934D01*
X002951Y011871D01*
X002899Y011800D01*
X002859Y011721D01*
X002832Y011637D01*
X002821Y011565D01*
X002829Y011618D02*
X001931Y011618D01*
X001928Y011637D02*
X001901Y011721D01*
X001861Y011800D01*
X001809Y011871D01*
X001746Y011934D01*
X001675Y011986D01*
X001596Y012026D01*
X001512Y012053D01*
X001440Y012064D01*
X001440Y011565D01*
X001939Y011565D01*
X001928Y011637D01*
X001893Y011737D02*
X002867Y011737D01*
X002940Y011855D02*
X001820Y011855D01*
X001691Y011974D02*
X003069Y011974D01*
X003320Y011974D02*
X003440Y011974D01*
X003440Y012064D02*
X003440Y011565D01*
X003320Y011565D01*
X003320Y011445D01*
X003440Y011445D01*
X003440Y011565D01*
X003939Y011565D01*
X003928Y011637D01*
X003901Y011721D01*
X003861Y011800D01*
X003809Y011871D01*
X003746Y011934D01*
X003675Y011986D01*
X003596Y012026D01*
X003512Y012053D01*
X003440Y012064D01*
X003440Y011855D02*
X003320Y011855D01*
X003320Y011737D02*
X003440Y011737D01*
X003440Y011618D02*
X003320Y011618D01*
X003320Y011500D02*
X001440Y011500D01*
X001440Y011618D02*
X001320Y011618D01*
X001320Y011500D02*
X000365Y011500D01*
X000365Y011618D02*
X000829Y011618D01*
X000867Y011737D02*
X000365Y011737D01*
X000365Y011855D02*
X000940Y011855D01*
X001069Y011974D02*
X000365Y011974D01*
X000365Y012092D02*
X015757Y012092D01*
X015737Y012142D02*
X015785Y012025D01*
X015875Y011935D01*
X015992Y011887D01*
X016118Y011887D01*
X016235Y011935D01*
X016325Y012025D01*
X016373Y012142D01*
X016373Y012268D01*
X016325Y012385D01*
X016235Y012475D01*
X016118Y012523D01*
X016076Y012523D01*
X015841Y012758D01*
X015753Y012795D01*
X012854Y012795D01*
X012645Y013004D01*
X012645Y013060D01*
X012780Y013060D01*
X012850Y013130D01*
X012850Y013880D01*
X012780Y013950D01*
X012645Y013950D01*
X012645Y014060D01*
X012780Y014060D01*
X012850Y014130D01*
X012850Y014880D01*
X012780Y014950D01*
X012030Y014950D01*
X011960Y014880D01*
X011960Y014130D01*
X012030Y014060D01*
X012165Y014060D01*
X012165Y013950D01*
X012030Y013950D01*
X011960Y013880D01*
X011960Y013130D01*
X012030Y013060D01*
X012165Y013060D01*
X012165Y012857D01*
X012202Y012769D01*
X012269Y012702D01*
X012552Y012419D01*
X012619Y012352D01*
X012707Y012315D01*
X015606Y012315D01*
X015737Y012184D01*
X015737Y012142D01*
X015710Y012211D02*
X000365Y012211D01*
X000365Y012329D02*
X012673Y012329D01*
X012552Y012419D02*
X012552Y012419D01*
X012523Y012448D02*
X000365Y012448D01*
X000365Y012566D02*
X012405Y012566D01*
X012286Y012685D02*
X002167Y012685D01*
X002200Y012688D02*
X002329Y012713D01*
X002454Y012751D01*
X002574Y012801D01*
X002690Y012863D01*
X002798Y012935D01*
X002899Y013018D01*
X002992Y013111D01*
X003075Y013212D01*
X003147Y013320D01*
X003209Y013436D01*
X003259Y013556D01*
X003297Y013681D01*
X003322Y013810D01*
X003335Y013940D01*
X003335Y013945D01*
X002065Y013945D01*
X002065Y014065D01*
X003335Y014065D01*
X003335Y014070D01*
X003322Y014200D01*
X003297Y014329D01*
X003259Y014454D01*
X003209Y014574D01*
X003147Y014690D01*
X003075Y014798D01*
X002992Y014899D01*
X002899Y014992D01*
X002798Y015075D01*
X002690Y015147D01*
X002574Y015209D01*
X002454Y015259D01*
X002329Y015297D01*
X002200Y015322D01*
X002070Y015335D01*
X002065Y015335D01*
X002065Y014065D01*
X001945Y014065D01*
X001945Y015335D01*
X001940Y015335D01*
X001810Y015322D01*
X001681Y015297D01*
X001556Y015259D01*
X001436Y015209D01*
X001320Y015147D01*
X001212Y015075D01*
X001111Y014992D01*
X001018Y014899D01*
X000935Y014798D01*
X000863Y014690D01*
X000801Y014574D01*
X000751Y014454D01*
X000713Y014329D01*
X000688Y014200D01*
X000675Y014070D01*
X000675Y014065D01*
X001945Y014065D01*
X001945Y013945D01*
X002065Y013945D01*
X002065Y012675D01*
X002070Y012675D01*
X002200Y012688D01*
X002065Y012685D02*
X001945Y012685D01*
X001945Y012675D02*
X001945Y013945D01*
X000675Y013945D01*
X000675Y013940D01*
X000688Y013810D01*
X000713Y013681D01*
X000751Y013556D01*
X000801Y013436D01*
X000863Y013320D01*
X000935Y013212D01*
X001018Y013111D01*
X001111Y013018D01*
X001212Y012935D01*
X001320Y012863D01*
X001436Y012801D01*
X001556Y012751D01*
X001681Y012713D01*
X001810Y012688D01*
X001940Y012675D01*
X001945Y012675D01*
X001843Y012685D02*
X000365Y012685D01*
X000365Y012803D02*
X001432Y012803D01*
X001233Y012922D02*
X000365Y012922D01*
X000365Y013040D02*
X001089Y013040D01*
X000979Y013159D02*
X000365Y013159D01*
X000365Y013277D02*
X000892Y013277D01*
X000823Y013396D02*
X000365Y013396D01*
X000365Y013514D02*
X000769Y013514D01*
X000728Y013633D02*
X000365Y013633D01*
X000365Y013751D02*
X000699Y013751D01*
X000682Y013870D02*
X000365Y013870D01*
X000365Y013988D02*
X001945Y013988D01*
X001945Y013870D02*
X002065Y013870D01*
X002065Y013988D02*
X004477Y013988D01*
X004477Y013977D02*
X004120Y013977D01*
X004120Y013668D01*
X004129Y013646D01*
X004146Y013629D01*
X004168Y013620D01*
X004477Y013620D01*
X004477Y013977D01*
X004533Y013977D01*
X004533Y014033D01*
X004477Y014033D01*
X004477Y014390D01*
X004168Y014390D01*
X004146Y014381D01*
X004129Y014364D01*
X004120Y014342D01*
X004120Y014033D01*
X004477Y014033D01*
X004477Y013977D01*
X004533Y013977D02*
X004533Y013620D01*
X004842Y013620D01*
X004864Y013629D01*
X004881Y013646D01*
X004890Y013668D01*
X004890Y013977D01*
X004533Y013977D01*
X004533Y013988D02*
X005060Y013988D01*
X005060Y013870D02*
X004890Y013870D01*
X004890Y013751D02*
X005060Y013751D01*
X005060Y013633D02*
X004867Y013633D01*
X005060Y013630D02*
X005130Y013560D01*
X005880Y013560D01*
X005950Y013630D01*
X005950Y014380D01*
X005880Y014450D01*
X005130Y014450D01*
X005060Y014380D01*
X005060Y013630D01*
X004890Y014033D02*
X004890Y014342D01*
X004881Y014364D01*
X004864Y014381D01*
X004842Y014390D01*
X004533Y014390D01*
X004533Y014033D01*
X004890Y014033D01*
X004890Y014107D02*
X005060Y014107D01*
X005060Y014225D02*
X004890Y014225D01*
X004889Y014344D02*
X005060Y014344D01*
X004533Y014344D02*
X004477Y014344D01*
X004477Y014225D02*
X004533Y014225D01*
X004533Y014107D02*
X004477Y014107D01*
X004120Y014107D02*
X003331Y014107D01*
X003317Y014225D02*
X004120Y014225D01*
X004121Y014344D02*
X003292Y014344D01*
X003255Y014462D02*
X007670Y014462D01*
X007670Y014477D02*
X007670Y014168D01*
X007679Y014146D01*
X007696Y014129D01*
X007718Y014120D01*
X008027Y014120D01*
X008027Y014477D01*
X007670Y014477D01*
X007670Y014533D02*
X008027Y014533D01*
X008027Y014890D01*
X007718Y014890D01*
X007696Y014881D01*
X007679Y014864D01*
X007670Y014842D01*
X007670Y014533D01*
X007670Y014581D02*
X003205Y014581D01*
X003141Y014699D02*
X007670Y014699D01*
X007670Y014818D02*
X003059Y014818D01*
X002955Y014936D02*
X008666Y014936D01*
X008680Y014950D02*
X008610Y014880D01*
X008610Y014130D01*
X008680Y014060D01*
X009430Y014060D01*
X009500Y014130D01*
X009500Y014880D01*
X009430Y014950D01*
X008680Y014950D01*
X008610Y014818D02*
X008440Y014818D01*
X008440Y014842D02*
X008431Y014864D01*
X008414Y014881D01*
X008392Y014890D01*
X008083Y014890D01*
X008083Y014533D01*
X008027Y014533D01*
X008027Y014477D01*
X008083Y014477D01*
X008083Y014533D01*
X008440Y014533D01*
X008440Y014842D01*
X008440Y014699D02*
X008610Y014699D01*
X008610Y014581D02*
X008440Y014581D01*
X008440Y014477D02*
X008083Y014477D01*
X008083Y014120D01*
X008392Y014120D01*
X008414Y014129D01*
X008431Y014146D01*
X008440Y014168D01*
X008440Y014477D01*
X008440Y014462D02*
X008610Y014462D01*
X008610Y014344D02*
X008440Y014344D01*
X008440Y014225D02*
X008610Y014225D01*
X008634Y014107D02*
X006950Y014107D01*
X006950Y014225D02*
X007670Y014225D01*
X007670Y014344D02*
X006950Y014344D01*
X006950Y014380D02*
X006880Y014450D01*
X006130Y014450D01*
X006060Y014380D01*
X006060Y013630D01*
X006130Y013560D01*
X006880Y013560D01*
X006950Y013630D01*
X006950Y014380D01*
X006950Y013988D02*
X012165Y013988D01*
X011984Y014107D02*
X009476Y014107D01*
X009500Y014225D02*
X009670Y014225D01*
X009670Y014168D02*
X009679Y014146D01*
X009696Y014129D01*
X009718Y014120D01*
X010027Y014120D01*
X010027Y014477D01*
X009670Y014477D01*
X009670Y014168D01*
X009670Y014344D02*
X009500Y014344D01*
X009500Y014462D02*
X009670Y014462D01*
X009670Y014533D02*
X010027Y014533D01*
X010027Y014890D01*
X009718Y014890D01*
X009696Y014881D01*
X009679Y014864D01*
X009670Y014842D01*
X009670Y014533D01*
X009670Y014581D02*
X009500Y014581D01*
X009500Y014699D02*
X009670Y014699D01*
X009670Y014818D02*
X009500Y014818D01*
X009444Y014936D02*
X012016Y014936D01*
X011960Y014818D02*
X011790Y014818D01*
X011790Y014842D02*
X011781Y014864D01*
X011764Y014881D01*
X011742Y014890D01*
X011433Y014890D01*
X011433Y014533D01*
X011790Y014533D01*
X011790Y014842D01*
X011790Y014699D02*
X011960Y014699D01*
X011960Y014581D02*
X011790Y014581D01*
X011790Y014477D02*
X011433Y014477D01*
X011433Y014533D01*
X011377Y014533D01*
X011377Y014890D01*
X011068Y014890D01*
X011046Y014881D01*
X011029Y014864D01*
X011020Y014842D01*
X011020Y014533D01*
X011377Y014533D01*
X011377Y014477D01*
X011433Y014477D01*
X011433Y014120D01*
X011742Y014120D01*
X011764Y014129D01*
X011781Y014146D01*
X011790Y014168D01*
X011790Y014477D01*
X011790Y014462D02*
X011960Y014462D01*
X011960Y014344D02*
X011790Y014344D01*
X011790Y014225D02*
X011960Y014225D01*
X011960Y013870D02*
X011775Y013870D01*
X011781Y013864D02*
X011764Y013881D01*
X011742Y013890D01*
X011433Y013890D01*
X011433Y013533D01*
X011790Y013533D01*
X011790Y013842D01*
X011781Y013864D01*
X011790Y013751D02*
X011960Y013751D01*
X011960Y013633D02*
X011790Y013633D01*
X011790Y013477D02*
X011433Y013477D01*
X011433Y013533D01*
X011377Y013533D01*
X011377Y013890D01*
X011068Y013890D01*
X011046Y013881D01*
X011029Y013864D01*
X011020Y013842D01*
X011020Y013533D01*
X011377Y013533D01*
X011377Y013477D01*
X011433Y013477D01*
X011433Y013120D01*
X011742Y013120D01*
X011764Y013129D01*
X011781Y013146D01*
X011790Y013168D01*
X011790Y013477D01*
X011790Y013396D02*
X011960Y013396D01*
X011960Y013514D02*
X011433Y013514D01*
X011377Y013514D02*
X010083Y013514D01*
X010083Y013533D02*
X010440Y013533D01*
X010440Y013842D01*
X010431Y013864D01*
X010414Y013881D01*
X010392Y013890D01*
X010083Y013890D01*
X010083Y013533D01*
X010027Y013533D01*
X010027Y013890D01*
X009718Y013890D01*
X009696Y013881D01*
X009679Y013864D01*
X009670Y013842D01*
X009670Y013533D01*
X010027Y013533D01*
X010027Y013477D01*
X009670Y013477D01*
X009670Y013168D01*
X009679Y013146D01*
X009696Y013129D01*
X009718Y013120D01*
X010027Y013120D01*
X010027Y013477D01*
X010083Y013477D01*
X010083Y013533D01*
X010083Y013477D02*
X010440Y013477D01*
X010440Y013168D01*
X010431Y013146D01*
X010414Y013129D01*
X010392Y013120D01*
X010083Y013120D01*
X010083Y013477D01*
X010027Y013514D02*
X009500Y013514D01*
X009500Y013396D02*
X009670Y013396D01*
X009670Y013277D02*
X009500Y013277D01*
X009500Y013159D02*
X009674Y013159D01*
X009500Y013130D02*
X009500Y013880D01*
X009430Y013950D01*
X008680Y013950D01*
X008610Y013880D01*
X008610Y013130D01*
X008680Y013060D01*
X009430Y013060D01*
X009500Y013130D01*
X010027Y013159D02*
X010083Y013159D01*
X010083Y013277D02*
X010027Y013277D01*
X010027Y013396D02*
X010083Y013396D01*
X010083Y013633D02*
X010027Y013633D01*
X010027Y013751D02*
X010083Y013751D01*
X010083Y013870D02*
X010027Y013870D01*
X009685Y013870D02*
X009500Y013870D01*
X009500Y013751D02*
X009670Y013751D01*
X009670Y013633D02*
X009500Y013633D01*
X010083Y014120D02*
X010392Y014120D01*
X010414Y014129D01*
X010431Y014146D01*
X010440Y014168D01*
X010440Y014477D01*
X010083Y014477D01*
X010083Y014533D01*
X010027Y014533D01*
X010027Y014477D01*
X010083Y014477D01*
X010083Y014120D01*
X010083Y014225D02*
X010027Y014225D01*
X010027Y014344D02*
X010083Y014344D01*
X010083Y014462D02*
X010027Y014462D01*
X010083Y014533D02*
X010440Y014533D01*
X010440Y014842D01*
X010431Y014864D01*
X010414Y014881D01*
X010392Y014890D01*
X010083Y014890D01*
X010083Y014533D01*
X010083Y014581D02*
X010027Y014581D01*
X010027Y014699D02*
X010083Y014699D01*
X010083Y014818D02*
X010027Y014818D01*
X010440Y014818D02*
X011020Y014818D01*
X011020Y014699D02*
X010440Y014699D01*
X010440Y014581D02*
X011020Y014581D01*
X011020Y014477D02*
X011020Y014168D01*
X011029Y014146D01*
X011046Y014129D01*
X011068Y014120D01*
X011377Y014120D01*
X011377Y014477D01*
X011020Y014477D01*
X011020Y014462D02*
X010440Y014462D01*
X010440Y014344D02*
X011020Y014344D01*
X011020Y014225D02*
X010440Y014225D01*
X010425Y013870D02*
X011035Y013870D01*
X011020Y013751D02*
X010440Y013751D01*
X010440Y013633D02*
X011020Y013633D01*
X011020Y013477D02*
X011020Y013168D01*
X011029Y013146D01*
X011046Y013129D01*
X011068Y013120D01*
X011377Y013120D01*
X011377Y013477D01*
X011020Y013477D01*
X011020Y013396D02*
X010440Y013396D01*
X010440Y013277D02*
X011020Y013277D01*
X011024Y013159D02*
X010436Y013159D01*
X011377Y013159D02*
X011433Y013159D01*
X011433Y013277D02*
X011377Y013277D01*
X011377Y013396D02*
X011433Y013396D01*
X011786Y013159D02*
X011960Y013159D01*
X011960Y013277D02*
X011790Y013277D01*
X012165Y013040D02*
X002921Y013040D01*
X003031Y013159D02*
X007674Y013159D01*
X007670Y013168D02*
X007679Y013146D01*
X007696Y013129D01*
X007718Y013120D01*
X008027Y013120D01*
X008027Y013477D01*
X007670Y013477D01*
X007670Y013168D01*
X007670Y013277D02*
X003118Y013277D01*
X003187Y013396D02*
X007670Y013396D01*
X007670Y013533D02*
X008027Y013533D01*
X008027Y013890D01*
X007718Y013890D01*
X007696Y013881D01*
X007679Y013864D01*
X007670Y013842D01*
X007670Y013533D01*
X007670Y013633D02*
X006950Y013633D01*
X006950Y013751D02*
X007670Y013751D01*
X007685Y013870D02*
X006950Y013870D01*
X006060Y013870D02*
X005950Y013870D01*
X005950Y013988D02*
X006060Y013988D01*
X006060Y014107D02*
X005950Y014107D01*
X005950Y014225D02*
X006060Y014225D01*
X006060Y014344D02*
X005950Y014344D01*
X005950Y013751D02*
X006060Y013751D01*
X006060Y013633D02*
X005950Y013633D01*
X004533Y013633D02*
X004477Y013633D01*
X004477Y013751D02*
X004533Y013751D01*
X004533Y013870D02*
X004477Y013870D01*
X004120Y013870D02*
X003328Y013870D01*
X003311Y013751D02*
X004120Y013751D01*
X004143Y013633D02*
X003282Y013633D01*
X003241Y013514D02*
X008027Y013514D01*
X008027Y013533D02*
X008027Y013477D01*
X008083Y013477D01*
X008083Y013533D01*
X008027Y013533D01*
X008083Y013533D02*
X008083Y013890D01*
X008392Y013890D01*
X008414Y013881D01*
X008431Y013864D01*
X008440Y013842D01*
X008440Y013533D01*
X008083Y013533D01*
X008083Y013514D02*
X008610Y013514D01*
X008610Y013396D02*
X008440Y013396D01*
X008440Y013477D02*
X008440Y013168D01*
X008431Y013146D01*
X008414Y013129D01*
X008392Y013120D01*
X008083Y013120D01*
X008083Y013477D01*
X008440Y013477D01*
X008440Y013633D02*
X008610Y013633D01*
X008610Y013751D02*
X008440Y013751D01*
X008425Y013870D02*
X008610Y013870D01*
X008083Y013870D02*
X008027Y013870D01*
X008027Y013751D02*
X008083Y013751D01*
X008083Y013633D02*
X008027Y013633D01*
X008027Y013396D02*
X008083Y013396D01*
X008083Y013277D02*
X008027Y013277D01*
X008027Y013159D02*
X008083Y013159D01*
X008436Y013159D02*
X008610Y013159D01*
X008610Y013277D02*
X008440Y013277D01*
X008083Y014225D02*
X008027Y014225D01*
X008027Y014344D02*
X008083Y014344D01*
X008083Y014462D02*
X008027Y014462D01*
X008027Y014581D02*
X008083Y014581D01*
X008083Y014699D02*
X008027Y014699D01*
X008027Y014818D02*
X008083Y014818D01*
X011377Y014818D02*
X011433Y014818D01*
X011433Y014699D02*
X011377Y014699D01*
X011377Y014581D02*
X011433Y014581D01*
X011433Y014462D02*
X011377Y014462D01*
X011377Y014344D02*
X011433Y014344D01*
X011433Y014225D02*
X011377Y014225D01*
X011377Y013870D02*
X011433Y013870D01*
X011433Y013751D02*
X011377Y013751D01*
X011377Y013633D02*
X011433Y013633D01*
X012165Y012922D02*
X002777Y012922D01*
X002578Y012803D02*
X012187Y012803D01*
X012269Y012702D02*
X012269Y012702D01*
X012645Y013040D02*
X021089Y013040D01*
X021111Y013018D02*
X021212Y012935D01*
X021320Y012863D01*
X021436Y012801D01*
X021556Y012751D01*
X021681Y012713D01*
X021810Y012688D01*
X021940Y012675D01*
X021945Y012675D01*
X021945Y013945D01*
X022065Y013945D01*
X022065Y014065D01*
X023335Y014065D01*
X023335Y014070D01*
X023322Y014200D01*
X023297Y014329D01*
X023259Y014454D01*
X023209Y014574D01*
X023147Y014690D01*
X023075Y014798D01*
X022992Y014899D01*
X022899Y014992D01*
X022798Y015075D01*
X022690Y015147D01*
X022574Y015209D01*
X022454Y015259D01*
X022329Y015297D01*
X022200Y015322D01*
X022070Y015335D01*
X022065Y015335D01*
X022065Y014065D01*
X021945Y014065D01*
X021945Y015335D01*
X021940Y015335D01*
X021810Y015322D01*
X021681Y015297D01*
X021556Y015259D01*
X021436Y015209D01*
X021320Y015147D01*
X021212Y015075D01*
X021111Y014992D01*
X021018Y014899D01*
X020935Y014798D01*
X020863Y014690D01*
X020801Y014574D01*
X020751Y014454D01*
X020713Y014329D01*
X020688Y014200D01*
X020675Y014070D01*
X020675Y014065D01*
X021945Y014065D01*
X021945Y013945D01*
X020675Y013945D01*
X020675Y013940D01*
X020688Y013810D01*
X020713Y013681D01*
X020751Y013556D01*
X020801Y013436D01*
X020863Y013320D01*
X020935Y013212D01*
X021018Y013111D01*
X021111Y013018D01*
X021233Y012922D02*
X012728Y012922D01*
X012846Y012803D02*
X021432Y012803D01*
X021843Y012685D02*
X015915Y012685D01*
X016033Y012566D02*
X023645Y012566D01*
X023645Y012448D02*
X016262Y012448D01*
X016348Y012329D02*
X023645Y012329D01*
X023645Y012211D02*
X016373Y012211D01*
X016353Y012092D02*
X017435Y012092D01*
X017435Y011974D02*
X016273Y011974D01*
X015837Y011974D02*
X003691Y011974D01*
X003820Y011855D02*
X017435Y011855D01*
X017435Y011737D02*
X003893Y011737D01*
X003931Y011618D02*
X017435Y011618D01*
X017435Y011500D02*
X003440Y011500D01*
X003440Y011445D02*
X003939Y011445D01*
X003928Y011373D01*
X003901Y011289D01*
X003861Y011210D01*
X003809Y011139D01*
X003746Y011076D01*
X003675Y011024D01*
X003596Y010984D01*
X003512Y010957D01*
X003440Y010946D01*
X003440Y011445D01*
X003440Y011381D02*
X003320Y011381D01*
X003320Y011263D02*
X003440Y011263D01*
X003440Y011144D02*
X003320Y011144D01*
X003320Y011026D02*
X003440Y011026D01*
X003676Y011026D02*
X017790Y011026D01*
X017790Y011144D02*
X003812Y011144D01*
X003887Y011263D02*
X017790Y011263D01*
X017435Y011381D02*
X003929Y011381D01*
X003084Y011026D02*
X002594Y011026D01*
X002774Y010907D02*
X017790Y010907D01*
X017790Y010789D02*
X002872Y010789D01*
X002921Y010670D02*
X017790Y010670D01*
X017790Y010552D02*
X002943Y010552D01*
X002943Y010433D02*
X017790Y010433D01*
X017790Y010315D02*
X002910Y010315D01*
X002861Y010196D02*
X017790Y010196D01*
X017790Y010078D02*
X002749Y010078D01*
X003320Y009959D02*
X003440Y009959D01*
X003440Y009841D02*
X003320Y009841D01*
X003320Y009722D02*
X003440Y009722D01*
X003440Y009604D02*
X003320Y009604D01*
X003320Y009248D02*
X003440Y009248D01*
X003440Y009130D02*
X003320Y009130D01*
X003320Y009011D02*
X003440Y009011D01*
X003933Y009604D02*
X017790Y009604D01*
X017790Y009722D02*
X003900Y009722D01*
X003831Y009841D02*
X017790Y009841D01*
X017790Y009959D02*
X003711Y009959D01*
X001440Y009959D02*
X001320Y009959D01*
X001320Y009841D02*
X001440Y009841D01*
X001440Y009722D02*
X001320Y009722D01*
X001320Y009604D02*
X001440Y009604D01*
X000929Y009841D02*
X000365Y009841D01*
X000365Y009959D02*
X001049Y009959D01*
X000860Y009722D02*
X000365Y009722D01*
X000365Y009604D02*
X000827Y009604D01*
X001084Y011026D02*
X000365Y011026D01*
X000365Y011144D02*
X000948Y011144D01*
X000873Y011263D02*
X000365Y011263D01*
X000365Y011381D02*
X000831Y011381D01*
X001320Y011381D02*
X001440Y011381D01*
X001440Y011263D02*
X001320Y011263D01*
X001320Y011144D02*
X001440Y011144D01*
X001440Y011026D02*
X001320Y011026D01*
X001320Y011737D02*
X001440Y011737D01*
X001440Y011855D02*
X001320Y011855D01*
X001320Y011974D02*
X001440Y011974D01*
X001945Y012803D02*
X002065Y012803D01*
X002065Y012922D02*
X001945Y012922D01*
X001945Y013040D02*
X002065Y013040D01*
X002065Y013159D02*
X001945Y013159D01*
X001945Y013277D02*
X002065Y013277D01*
X002065Y013396D02*
X001945Y013396D01*
X001945Y013514D02*
X002065Y013514D01*
X002065Y013633D02*
X001945Y013633D01*
X001945Y013751D02*
X002065Y013751D01*
X002065Y014107D02*
X001945Y014107D01*
X001945Y014225D02*
X002065Y014225D01*
X002065Y014344D02*
X001945Y014344D01*
X001945Y014462D02*
X002065Y014462D01*
X002065Y014581D02*
X001945Y014581D01*
X001945Y014699D02*
X002065Y014699D01*
X002065Y014818D02*
X001945Y014818D01*
X001945Y014936D02*
X002065Y014936D01*
X002065Y015055D02*
X001945Y015055D01*
X001945Y015173D02*
X002065Y015173D01*
X002065Y015292D02*
X001945Y015292D01*
X002346Y015292D02*
X021664Y015292D01*
X021945Y015292D02*
X022065Y015292D01*
X022065Y015173D02*
X021945Y015173D01*
X021945Y015055D02*
X022065Y015055D01*
X022065Y014936D02*
X021945Y014936D01*
X021945Y014818D02*
X022065Y014818D01*
X022065Y014699D02*
X021945Y014699D01*
X021945Y014581D02*
X022065Y014581D01*
X022065Y014462D02*
X021945Y014462D01*
X021945Y014344D02*
X022065Y014344D01*
X022065Y014225D02*
X021945Y014225D01*
X021945Y014107D02*
X022065Y014107D01*
X022065Y013988D02*
X023645Y013988D01*
X023645Y013870D02*
X023328Y013870D01*
X023322Y013810D02*
X023335Y013940D01*
X023335Y013945D01*
X022065Y013945D01*
X022065Y012675D01*
X022070Y012675D01*
X022200Y012688D01*
X022329Y012713D01*
X022454Y012751D01*
X022574Y012801D01*
X022690Y012863D01*
X022798Y012935D01*
X022899Y013018D01*
X022992Y013111D01*
X023075Y013212D01*
X023147Y013320D01*
X023209Y013436D01*
X023259Y013556D01*
X023297Y013681D01*
X023322Y013810D01*
X023311Y013751D02*
X023645Y013751D01*
X023645Y013633D02*
X023282Y013633D01*
X023241Y013514D02*
X023645Y013514D01*
X023645Y013396D02*
X023187Y013396D01*
X023118Y013277D02*
X023645Y013277D01*
X023645Y013159D02*
X023031Y013159D01*
X022921Y013040D02*
X023645Y013040D01*
X023645Y012922D02*
X022777Y012922D01*
X022578Y012803D02*
X023645Y012803D01*
X023645Y012685D02*
X022167Y012685D01*
X022065Y012685D02*
X021945Y012685D01*
X021945Y012803D02*
X022065Y012803D01*
X022065Y012922D02*
X021945Y012922D01*
X021945Y013040D02*
X022065Y013040D01*
X022065Y013159D02*
X021945Y013159D01*
X021945Y013277D02*
X022065Y013277D01*
X022065Y013396D02*
X021945Y013396D01*
X021945Y013514D02*
X022065Y013514D01*
X022065Y013633D02*
X021945Y013633D01*
X021945Y013751D02*
X022065Y013751D01*
X022065Y013870D02*
X021945Y013870D01*
X021945Y013988D02*
X016947Y013988D01*
X016942Y013990D02*
X016633Y013990D01*
X016633Y013633D01*
X016577Y013633D01*
X016577Y013990D01*
X016268Y013990D01*
X016246Y013981D01*
X016229Y013964D01*
X016220Y013942D01*
X016220Y013633D01*
X016050Y013633D01*
X016050Y013751D02*
X016220Y013751D01*
X016220Y013633D02*
X016577Y013633D01*
X016633Y013633D01*
X016990Y013633D01*
X017495Y013633D01*
X017495Y013533D02*
X017852Y013533D01*
X017852Y013890D01*
X017543Y013890D01*
X017521Y013881D01*
X017504Y013864D01*
X017495Y013842D01*
X017495Y013533D01*
X017495Y013477D02*
X017495Y013168D01*
X017504Y013146D01*
X017521Y013129D01*
X017543Y013120D01*
X017852Y013120D01*
X017852Y013477D01*
X017495Y013477D01*
X017495Y013396D02*
X016990Y013396D01*
X016990Y013514D02*
X017852Y013514D01*
X017852Y013533D02*
X017852Y013477D01*
X017908Y013477D01*
X017908Y013533D01*
X017852Y013533D01*
X017908Y013533D02*
X017908Y013890D01*
X018217Y013890D01*
X018239Y013881D01*
X018256Y013864D01*
X018265Y013842D01*
X018265Y013533D01*
X017908Y013533D01*
X017908Y013514D02*
X018435Y013514D01*
X018435Y013396D02*
X018265Y013396D01*
X018265Y013477D02*
X017908Y013477D01*
X017908Y013120D01*
X018217Y013120D01*
X018239Y013129D01*
X018256Y013146D01*
X018265Y013168D01*
X018265Y013477D01*
X018265Y013633D02*
X018435Y013633D01*
X018435Y013751D02*
X018265Y013751D01*
X018250Y013870D02*
X018435Y013870D01*
X018435Y013880D02*
X018505Y013950D01*
X019255Y013950D01*
X019325Y013880D01*
X019325Y013130D01*
X019255Y013060D01*
X018505Y013060D01*
X018435Y013130D01*
X018435Y013880D01*
X018505Y014060D02*
X019255Y014060D01*
X019325Y014130D01*
X019325Y014880D01*
X019255Y014950D01*
X018505Y014950D01*
X018435Y014880D01*
X018435Y014130D01*
X018505Y014060D01*
X018459Y014107D02*
X012826Y014107D01*
X012850Y014225D02*
X013020Y014225D01*
X013020Y014168D02*
X013029Y014146D01*
X013046Y014129D01*
X013068Y014120D01*
X013377Y014120D01*
X013377Y014477D01*
X013433Y014477D01*
X013433Y014533D01*
X013790Y014533D01*
X013790Y014842D01*
X013781Y014864D01*
X013764Y014881D01*
X013742Y014890D01*
X013433Y014890D01*
X013433Y014533D01*
X013377Y014533D01*
X013377Y014890D01*
X013068Y014890D01*
X013046Y014881D01*
X013029Y014864D01*
X013020Y014842D01*
X013020Y014533D01*
X013377Y014533D01*
X013377Y014477D01*
X013020Y014477D01*
X013020Y014168D01*
X013020Y014344D02*
X012850Y014344D01*
X012850Y014462D02*
X013020Y014462D01*
X013020Y014581D02*
X012850Y014581D01*
X012850Y014699D02*
X013020Y014699D01*
X013020Y014818D02*
X012850Y014818D01*
X012794Y014936D02*
X018491Y014936D01*
X018435Y014818D02*
X018265Y014818D01*
X018265Y014842D02*
X018256Y014864D01*
X018239Y014881D01*
X018217Y014890D01*
X017908Y014890D01*
X017908Y014533D01*
X017852Y014533D01*
X017852Y014890D01*
X017543Y014890D01*
X017521Y014881D01*
X017504Y014864D01*
X017495Y014842D01*
X017495Y014533D01*
X017852Y014533D01*
X017852Y014477D01*
X017495Y014477D01*
X017495Y014168D01*
X017504Y014146D01*
X017521Y014129D01*
X017543Y014120D01*
X017852Y014120D01*
X017852Y014477D01*
X017908Y014477D01*
X017908Y014533D01*
X018265Y014533D01*
X018265Y014842D01*
X018265Y014699D02*
X018435Y014699D01*
X018435Y014581D02*
X018265Y014581D01*
X018265Y014477D02*
X017908Y014477D01*
X017908Y014120D01*
X018217Y014120D01*
X018239Y014129D01*
X018256Y014146D01*
X018265Y014168D01*
X018265Y014477D01*
X018265Y014462D02*
X018435Y014462D01*
X018435Y014344D02*
X018265Y014344D01*
X018265Y014225D02*
X018435Y014225D01*
X017908Y014225D02*
X017852Y014225D01*
X017852Y014344D02*
X017908Y014344D01*
X017908Y014462D02*
X017852Y014462D01*
X017852Y014581D02*
X017908Y014581D01*
X017908Y014699D02*
X017852Y014699D01*
X017852Y014818D02*
X017908Y014818D01*
X017495Y014818D02*
X013790Y014818D01*
X013790Y014699D02*
X017495Y014699D01*
X017495Y014581D02*
X013790Y014581D01*
X013790Y014477D02*
X013433Y014477D01*
X013433Y014120D01*
X013742Y014120D01*
X013764Y014129D01*
X013781Y014146D01*
X013790Y014168D01*
X013790Y014477D01*
X013790Y014462D02*
X017495Y014462D01*
X017495Y014344D02*
X013790Y014344D01*
X013790Y014225D02*
X017495Y014225D01*
X017510Y013870D02*
X016990Y013870D01*
X016990Y013942D02*
X016990Y013633D01*
X016990Y013577D02*
X016633Y013577D01*
X016633Y013633D01*
X016633Y013577D02*
X016577Y013577D01*
X016577Y013220D01*
X016268Y013220D01*
X016246Y013229D01*
X016229Y013246D01*
X016220Y013268D01*
X016220Y013577D01*
X016577Y013577D01*
X016577Y013633D01*
X016633Y013577D02*
X016633Y013220D01*
X016942Y013220D01*
X016964Y013229D01*
X016981Y013246D01*
X016990Y013268D01*
X016990Y013577D01*
X016990Y013751D02*
X017495Y013751D01*
X017852Y013751D02*
X017908Y013751D01*
X017908Y013633D02*
X017852Y013633D01*
X017852Y013870D02*
X017908Y013870D01*
X017908Y013396D02*
X017852Y013396D01*
X017852Y013277D02*
X017908Y013277D01*
X017908Y013159D02*
X017852Y013159D01*
X018261Y013159D02*
X018435Y013159D01*
X018435Y013277D02*
X018265Y013277D01*
X017495Y013277D02*
X016990Y013277D01*
X016633Y013277D02*
X016577Y013277D01*
X016577Y013396D02*
X016633Y013396D01*
X016633Y013514D02*
X016577Y013514D01*
X016577Y013751D02*
X016633Y013751D01*
X016633Y013870D02*
X016577Y013870D01*
X016577Y013988D02*
X016633Y013988D01*
X016942Y013990D02*
X016964Y013981D01*
X016981Y013964D01*
X016990Y013942D01*
X016263Y013988D02*
X016042Y013988D01*
X016050Y013980D02*
X015980Y014050D01*
X015230Y014050D01*
X015160Y013980D01*
X015160Y013230D01*
X015230Y013160D01*
X015980Y013160D01*
X016050Y013230D01*
X016050Y013980D01*
X016050Y013870D02*
X016220Y013870D01*
X016220Y013514D02*
X016050Y013514D01*
X016050Y013396D02*
X016220Y013396D01*
X016220Y013277D02*
X016050Y013277D01*
X015160Y013277D02*
X015050Y013277D01*
X015050Y013230D02*
X015050Y013980D01*
X014980Y014050D01*
X014230Y014050D01*
X014160Y013980D01*
X014160Y013230D01*
X014230Y013160D01*
X014980Y013160D01*
X015050Y013230D01*
X015050Y013396D02*
X015160Y013396D01*
X015160Y013514D02*
X015050Y013514D01*
X015050Y013633D02*
X015160Y013633D01*
X015160Y013751D02*
X015050Y013751D01*
X015050Y013870D02*
X015160Y013870D01*
X015168Y013988D02*
X015042Y013988D01*
X014168Y013988D02*
X012645Y013988D01*
X012850Y013870D02*
X013035Y013870D01*
X013029Y013864D02*
X013020Y013842D01*
X013020Y013533D01*
X013377Y013533D01*
X013377Y013890D01*
X013068Y013890D01*
X013046Y013881D01*
X013029Y013864D01*
X013020Y013751D02*
X012850Y013751D01*
X012850Y013633D02*
X013020Y013633D01*
X013020Y013477D02*
X013020Y013168D01*
X013029Y013146D01*
X013046Y013129D01*
X013068Y013120D01*
X013377Y013120D01*
X013377Y013477D01*
X013433Y013477D01*
X013433Y013533D01*
X013790Y013533D01*
X013790Y013842D01*
X013781Y013864D01*
X013764Y013881D01*
X013742Y013890D01*
X013433Y013890D01*
X013433Y013533D01*
X013377Y013533D01*
X013377Y013477D01*
X013020Y013477D01*
X013020Y013396D02*
X012850Y013396D01*
X012850Y013514D02*
X013377Y013514D01*
X013433Y013514D02*
X014160Y013514D01*
X014160Y013396D02*
X013790Y013396D01*
X013790Y013477D02*
X013790Y013168D01*
X013781Y013146D01*
X013764Y013129D01*
X013742Y013120D01*
X013433Y013120D01*
X013433Y013477D01*
X013790Y013477D01*
X013790Y013633D02*
X014160Y013633D01*
X014160Y013751D02*
X013790Y013751D01*
X013775Y013870D02*
X014160Y013870D01*
X013433Y013870D02*
X013377Y013870D01*
X013377Y013751D02*
X013433Y013751D01*
X013433Y013633D02*
X013377Y013633D01*
X013377Y013396D02*
X013433Y013396D01*
X013433Y013277D02*
X013377Y013277D01*
X013377Y013159D02*
X013433Y013159D01*
X013024Y013159D02*
X012850Y013159D01*
X012850Y013277D02*
X013020Y013277D01*
X013790Y013277D02*
X014160Y013277D01*
X013786Y013159D02*
X017499Y013159D01*
X018505Y012200D02*
X018435Y012130D01*
X018435Y011380D01*
X018505Y011310D01*
X019255Y011310D01*
X019325Y011380D01*
X019325Y012130D01*
X019255Y012200D01*
X018505Y012200D01*
X018435Y012092D02*
X018325Y012092D01*
X018325Y011974D02*
X018435Y011974D01*
X018435Y011855D02*
X018325Y011855D01*
X018325Y011737D02*
X018435Y011737D01*
X018435Y011618D02*
X018325Y011618D01*
X018325Y011500D02*
X018435Y011500D01*
X018435Y011381D02*
X018325Y011381D01*
X018270Y011263D02*
X023645Y011263D01*
X023645Y011381D02*
X020325Y011381D01*
X020325Y011380D02*
X020325Y012130D01*
X020255Y012200D01*
X019505Y012200D01*
X019435Y012130D01*
X019435Y011380D01*
X019505Y011310D01*
X020255Y011310D01*
X020325Y011380D01*
X020325Y011500D02*
X023645Y011500D01*
X023645Y011618D02*
X020325Y011618D01*
X020325Y011737D02*
X023645Y011737D01*
X023645Y011855D02*
X020325Y011855D01*
X020325Y011974D02*
X023645Y011974D01*
X023645Y012092D02*
X020325Y012092D01*
X019435Y012092D02*
X019325Y012092D01*
X019325Y011974D02*
X019435Y011974D01*
X019435Y011855D02*
X019325Y011855D01*
X019325Y011737D02*
X019435Y011737D01*
X019435Y011618D02*
X019325Y011618D01*
X019325Y011500D02*
X019435Y011500D01*
X019435Y011381D02*
X019325Y011381D01*
X019521Y011095D02*
X019429Y011042D01*
X019345Y010978D01*
X019270Y010902D01*
X019205Y010818D01*
X019152Y010726D01*
X019111Y010628D01*
X019084Y010526D01*
X019071Y010427D01*
X019820Y010427D01*
X019820Y010307D01*
X019940Y010307D01*
X019940Y009558D01*
X020038Y009571D01*
X020141Y009599D01*
X020239Y009639D01*
X020331Y009692D01*
X020415Y009757D01*
X020490Y009832D01*
X020555Y009916D01*
X020608Y010008D01*
X020649Y010106D01*
X020676Y010209D01*
X020689Y010307D01*
X019940Y010307D01*
X019940Y010427D01*
X020689Y010427D01*
X020676Y010526D01*
X020649Y010628D01*
X020608Y010726D01*
X020555Y010818D01*
X020490Y010902D01*
X020415Y010978D01*
X020331Y011042D01*
X020239Y011095D01*
X020141Y011136D01*
X020038Y011163D01*
X019940Y011176D01*
X019940Y010427D01*
X019820Y010427D01*
X019820Y011176D01*
X019722Y011163D01*
X019619Y011136D01*
X019521Y011095D01*
X019407Y011026D02*
X018270Y011026D01*
X018270Y011144D02*
X019650Y011144D01*
X019820Y011144D02*
X019940Y011144D01*
X019940Y011026D02*
X019820Y011026D01*
X019820Y010907D02*
X019940Y010907D01*
X019940Y010789D02*
X019820Y010789D01*
X019820Y010670D02*
X019940Y010670D01*
X019940Y010552D02*
X019820Y010552D01*
X019820Y010433D02*
X019940Y010433D01*
X019940Y010315D02*
X023645Y010315D01*
X023645Y010433D02*
X020688Y010433D01*
X020669Y010552D02*
X023645Y010552D01*
X023645Y010670D02*
X020631Y010670D01*
X020572Y010789D02*
X023645Y010789D01*
X023645Y010907D02*
X020486Y010907D01*
X020353Y011026D02*
X023645Y011026D01*
X023645Y011144D02*
X020110Y011144D01*
X019274Y010907D02*
X018270Y010907D01*
X018270Y010789D02*
X019188Y010789D01*
X019129Y010670D02*
X018270Y010670D01*
X018270Y010552D02*
X019091Y010552D01*
X019072Y010433D02*
X018270Y010433D01*
X018270Y010315D02*
X019820Y010315D01*
X019820Y010307D02*
X019071Y010307D01*
X019084Y010209D01*
X019111Y010106D01*
X019152Y010008D01*
X019205Y009916D01*
X019270Y009832D01*
X019345Y009757D01*
X019429Y009692D01*
X019521Y009639D01*
X019619Y009599D01*
X019722Y009571D01*
X019820Y009558D01*
X019820Y010307D01*
X019820Y010196D02*
X019940Y010196D01*
X019940Y010078D02*
X019820Y010078D01*
X019820Y009959D02*
X019940Y009959D01*
X019940Y009841D02*
X019820Y009841D01*
X019820Y009722D02*
X019940Y009722D01*
X019940Y009604D02*
X019820Y009604D01*
X019607Y009604D02*
X018270Y009604D01*
X018270Y009722D02*
X019390Y009722D01*
X019263Y009841D02*
X018270Y009841D01*
X018270Y009959D02*
X019180Y009959D01*
X019123Y010078D02*
X018270Y010078D01*
X018270Y010196D02*
X019087Y010196D01*
X018270Y009485D02*
X023645Y009485D01*
X023645Y009367D02*
X018270Y009367D01*
X018270Y009248D02*
X023645Y009248D01*
X023645Y009130D02*
X018270Y009130D01*
X018270Y009011D02*
X023645Y009011D01*
X023645Y008893D02*
X018270Y008893D01*
X018320Y008774D02*
X018617Y008774D01*
X018600Y008762D02*
X018552Y008715D01*
X018515Y008659D01*
X018489Y008597D01*
X018476Y008531D01*
X018476Y008528D01*
X018786Y008528D01*
X018786Y008467D01*
X018476Y008467D01*
X018476Y008464D01*
X018489Y008398D01*
X018515Y008336D01*
X018552Y008280D01*
X018600Y008232D01*
X018655Y008195D01*
X018718Y008169D01*
X018783Y008156D01*
X018786Y008156D01*
X018786Y008467D01*
X018848Y008467D01*
X018848Y008528D01*
X019158Y008528D01*
X019158Y008531D01*
X019145Y008597D01*
X019119Y008659D01*
X019082Y008715D01*
X019034Y008762D01*
X018979Y008799D01*
X018917Y008825D01*
X018851Y008838D01*
X018848Y008838D01*
X018848Y008528D01*
X018786Y008528D01*
X018786Y008838D01*
X018783Y008838D01*
X018718Y008825D01*
X018655Y008799D01*
X018600Y008762D01*
X018513Y008656D02*
X018398Y008656D01*
X018431Y008537D02*
X018477Y008537D01*
X018485Y008419D02*
X018431Y008419D01*
X018382Y008300D02*
X018538Y008300D01*
X018688Y008182D02*
X018281Y008182D01*
X018284Y007826D02*
X018563Y007826D01*
X018463Y007708D02*
X018383Y007708D01*
X018848Y008156D02*
X018851Y008156D01*
X018917Y008169D01*
X018979Y008195D01*
X019034Y008232D01*
X019082Y008280D01*
X019119Y008336D01*
X019145Y008398D01*
X019158Y008464D01*
X019158Y008467D01*
X018848Y008467D01*
X018848Y008156D01*
X018848Y008182D02*
X018786Y008182D01*
X018786Y008300D02*
X018848Y008300D01*
X018848Y008419D02*
X018786Y008419D01*
X018786Y008537D02*
X018848Y008537D01*
X018848Y008656D02*
X018786Y008656D01*
X018786Y008774D02*
X018848Y008774D01*
X019017Y008774D02*
X023645Y008774D01*
X023645Y008656D02*
X019121Y008656D01*
X019157Y008537D02*
X023645Y008537D01*
X023645Y008419D02*
X019149Y008419D01*
X019096Y008300D02*
X023645Y008300D01*
X023645Y008182D02*
X018946Y008182D01*
X019071Y007826D02*
X023645Y007826D01*
X023645Y007708D02*
X019171Y007708D01*
X019218Y007589D02*
X023645Y007589D01*
X023645Y007471D02*
X019218Y007471D01*
X019185Y007352D02*
X023645Y007352D01*
X023645Y007234D02*
X019105Y007234D01*
X018529Y007234D02*
X018317Y007234D01*
X018397Y007352D02*
X018449Y007352D01*
X020153Y009604D02*
X023645Y009604D01*
X023645Y009722D02*
X020370Y009722D01*
X020497Y009841D02*
X023645Y009841D01*
X023645Y009959D02*
X020580Y009959D01*
X020637Y010078D02*
X023645Y010078D01*
X023645Y010196D02*
X020673Y010196D01*
X020217Y013120D02*
X019908Y013120D01*
X019908Y013477D01*
X019908Y013533D01*
X019852Y013533D01*
X019852Y013890D01*
X019543Y013890D01*
X019521Y013881D01*
X019504Y013864D01*
X019495Y013842D01*
X019495Y013533D01*
X019852Y013533D01*
X019852Y013477D01*
X019495Y013477D01*
X019495Y013168D01*
X019504Y013146D01*
X019521Y013129D01*
X019543Y013120D01*
X019852Y013120D01*
X019852Y013477D01*
X019908Y013477D01*
X020265Y013477D01*
X020265Y013168D01*
X020256Y013146D01*
X020239Y013129D01*
X020217Y013120D01*
X020261Y013159D02*
X020979Y013159D01*
X020892Y013277D02*
X020265Y013277D01*
X020265Y013396D02*
X020823Y013396D01*
X020769Y013514D02*
X019908Y013514D01*
X019908Y013533D02*
X020265Y013533D01*
X020265Y013842D01*
X020256Y013864D01*
X020239Y013881D01*
X020217Y013890D01*
X019908Y013890D01*
X019908Y013533D01*
X019852Y013514D02*
X019325Y013514D01*
X019325Y013396D02*
X019495Y013396D01*
X019495Y013277D02*
X019325Y013277D01*
X019325Y013159D02*
X019499Y013159D01*
X019852Y013159D02*
X019908Y013159D01*
X019908Y013277D02*
X019852Y013277D01*
X019852Y013396D02*
X019908Y013396D01*
X019908Y013633D02*
X019852Y013633D01*
X019852Y013751D02*
X019908Y013751D01*
X019908Y013870D02*
X019852Y013870D01*
X019510Y013870D02*
X019325Y013870D01*
X019325Y013751D02*
X019495Y013751D01*
X019495Y013633D02*
X019325Y013633D01*
X019301Y014107D02*
X020679Y014107D01*
X020693Y014225D02*
X020265Y014225D01*
X020265Y014168D02*
X020265Y014477D01*
X019908Y014477D01*
X019908Y014533D01*
X019852Y014533D01*
X019852Y014890D01*
X019543Y014890D01*
X019521Y014881D01*
X019504Y014864D01*
X019495Y014842D01*
X019495Y014533D01*
X019852Y014533D01*
X019852Y014477D01*
X019495Y014477D01*
X019495Y014168D01*
X019504Y014146D01*
X019521Y014129D01*
X019543Y014120D01*
X019852Y014120D01*
X019852Y014477D01*
X019908Y014477D01*
X019908Y014120D01*
X020217Y014120D01*
X020239Y014129D01*
X020256Y014146D01*
X020265Y014168D01*
X020265Y014344D02*
X020718Y014344D01*
X020755Y014462D02*
X020265Y014462D01*
X020265Y014533D02*
X020265Y014842D01*
X020256Y014864D01*
X020239Y014881D01*
X020217Y014890D01*
X019908Y014890D01*
X019908Y014533D01*
X020265Y014533D01*
X020265Y014581D02*
X020805Y014581D01*
X020869Y014699D02*
X020265Y014699D01*
X020265Y014818D02*
X020951Y014818D01*
X021055Y014936D02*
X019269Y014936D01*
X019325Y014818D02*
X019495Y014818D01*
X019495Y014699D02*
X019325Y014699D01*
X019325Y014581D02*
X019495Y014581D01*
X019495Y014462D02*
X019325Y014462D01*
X019325Y014344D02*
X019495Y014344D01*
X019495Y014225D02*
X019325Y014225D01*
X019852Y014225D02*
X019908Y014225D01*
X019908Y014344D02*
X019852Y014344D01*
X019852Y014462D02*
X019908Y014462D01*
X019908Y014581D02*
X019852Y014581D01*
X019852Y014699D02*
X019908Y014699D01*
X019908Y014818D02*
X019852Y014818D01*
X020250Y013870D02*
X020682Y013870D01*
X020699Y013751D02*
X020265Y013751D01*
X020265Y013633D02*
X020728Y013633D01*
X021187Y015055D02*
X002823Y015055D01*
X002641Y015173D02*
X021369Y015173D01*
X022346Y015292D02*
X023645Y015292D01*
X023645Y015410D02*
X000365Y015410D01*
X000365Y015292D02*
X001664Y015292D01*
X001369Y015173D02*
X000365Y015173D01*
X000365Y015055D02*
X001187Y015055D01*
X001055Y014936D02*
X000365Y014936D01*
X000365Y014818D02*
X000951Y014818D01*
X000869Y014699D02*
X000365Y014699D01*
X000365Y014581D02*
X000805Y014581D01*
X000755Y014462D02*
X000365Y014462D01*
X000365Y014344D02*
X000718Y014344D01*
X000693Y014225D02*
X000365Y014225D01*
X000365Y014107D02*
X000679Y014107D01*
X000365Y015529D02*
X023645Y015529D01*
X023645Y015173D02*
X022641Y015173D01*
X022823Y015055D02*
X023645Y015055D01*
X023645Y014936D02*
X022955Y014936D01*
X023059Y014818D02*
X023645Y014818D01*
X023645Y014699D02*
X023141Y014699D01*
X023205Y014581D02*
X023645Y014581D01*
X023645Y014462D02*
X023255Y014462D01*
X023292Y014344D02*
X023645Y014344D01*
X023645Y014225D02*
X023317Y014225D01*
X023331Y014107D02*
X023645Y014107D01*
X013433Y014225D02*
X013377Y014225D01*
X013377Y014344D02*
X013433Y014344D01*
X013433Y014462D02*
X013377Y014462D01*
X013377Y014581D02*
X013433Y014581D01*
X013433Y014699D02*
X013377Y014699D01*
X013377Y014818D02*
X013433Y014818D01*
X023331Y001901D02*
X023645Y001901D01*
X023645Y001783D02*
X023317Y001783D01*
X023291Y001664D02*
X023645Y001664D01*
X023645Y001546D02*
X023254Y001546D01*
X023204Y001427D02*
X023645Y001427D01*
X023645Y001309D02*
X023139Y001309D01*
X023057Y001190D02*
X023645Y001190D01*
X023645Y001072D02*
X022952Y001072D01*
X022820Y000953D02*
X023645Y000953D01*
X023645Y000835D02*
X022637Y000835D01*
X022337Y000716D02*
X023645Y000716D01*
D19*
X023505Y000755D03*
X023255Y000505D03*
X022880Y000505D03*
X022505Y000505D03*
X022130Y000505D03*
X021755Y000505D03*
X021380Y000505D03*
X021005Y000505D03*
X020630Y000505D03*
X020255Y000505D03*
X019880Y000505D03*
X019505Y000505D03*
X019130Y000505D03*
X018755Y000505D03*
X018380Y000505D03*
X018005Y000505D03*
X017630Y000505D03*
X017255Y000505D03*
X016880Y000505D03*
X016505Y000505D03*
X016130Y000505D03*
X015755Y000505D03*
X015380Y000505D03*
X015005Y000505D03*
X014630Y000505D03*
X014255Y000505D03*
X013880Y000505D03*
X013505Y000505D03*
X013130Y000505D03*
X012755Y000505D03*
X012380Y000505D03*
X012005Y000505D03*
X011630Y000505D03*
X011255Y000505D03*
X010880Y000505D03*
X010505Y000505D03*
X010130Y000505D03*
X009755Y000505D03*
X009380Y000505D03*
X009005Y000505D03*
X008630Y000505D03*
X008255Y000505D03*
X007880Y000505D03*
X007505Y000505D03*
X007130Y000505D03*
X006755Y000505D03*
X006380Y000505D03*
X006005Y000505D03*
X005630Y000505D03*
X005255Y000505D03*
X004880Y000505D03*
X004505Y000505D03*
X004130Y000505D03*
X003755Y000505D03*
X003380Y000505D03*
X003005Y000505D03*
X002630Y000505D03*
X002255Y000505D03*
X001880Y000505D03*
X001505Y000505D03*
X001130Y000505D03*
X000755Y000505D03*
X000505Y000755D03*
X000505Y001130D03*
X000505Y001505D03*
X000505Y001880D03*
X000505Y002255D03*
X000505Y002630D03*
X000505Y003005D03*
X000505Y003380D03*
X000505Y003755D03*
X000505Y004130D03*
X000505Y004505D03*
X000505Y004880D03*
X000505Y005255D03*
X000505Y005630D03*
X000505Y006005D03*
X000505Y006380D03*
X000505Y006755D03*
X000505Y007130D03*
X000505Y007505D03*
X000505Y007880D03*
X000505Y008255D03*
X000630Y008630D03*
X001005Y008630D03*
X001380Y008630D03*
X001755Y008630D03*
X002130Y008630D03*
X002505Y008630D03*
X002880Y008630D03*
X003255Y008630D03*
X003630Y008630D03*
X004005Y008630D03*
X004380Y008505D03*
X004380Y008880D03*
X004380Y009255D03*
X004380Y009630D03*
X004380Y010005D03*
X004755Y010005D03*
X005130Y010005D03*
X005505Y010005D03*
X005880Y010005D03*
X006255Y010005D03*
X006630Y010130D03*
X006630Y010505D03*
X007005Y010505D03*
X007380Y010505D03*
X007755Y010505D03*
X008130Y010505D03*
X008505Y010505D03*
X008880Y010505D03*
X009255Y010505D03*
X009630Y010505D03*
X010005Y010505D03*
X010380Y010505D03*
X010755Y010505D03*
X011130Y010505D03*
X011505Y010505D03*
X011880Y010505D03*
X012255Y010505D03*
X012630Y010505D03*
X013005Y010505D03*
X013005Y010880D03*
X013505Y010880D03*
X013505Y010505D03*
X013505Y010130D03*
X013505Y009755D03*
X013505Y009380D03*
X013505Y009005D03*
X013505Y008630D03*
X013505Y008255D03*
X013505Y007880D03*
X013505Y007505D03*
X013505Y007130D03*
X013505Y006755D03*
X013505Y006380D03*
X013255Y006130D03*
X013005Y005880D03*
X012755Y005630D03*
X012380Y005630D03*
X012005Y005630D03*
X011630Y005630D03*
X011630Y006005D03*
X011630Y006380D03*
X011630Y006755D03*
X011630Y007130D03*
X011630Y007505D03*
X011630Y007880D03*
X011630Y008255D03*
X011630Y008630D03*
X011630Y009005D03*
X012030Y009230D03*
X012230Y009705D03*
X012230Y010130D03*
X013005Y011255D03*
X013505Y011255D03*
X015880Y010180D03*
X016280Y010180D03*
X016730Y010180D03*
X017580Y010280D03*
X017580Y010680D03*
X017580Y011080D03*
X018380Y011130D03*
X018380Y010755D03*
X018380Y010380D03*
X018380Y009255D03*
X018755Y009255D03*
X019630Y008505D03*
X020005Y008755D03*
X020380Y008755D03*
X020680Y008430D03*
X020655Y008005D03*
X020655Y007555D03*
X019630Y007380D03*
X019630Y007755D03*
X019630Y008130D03*
X019630Y007005D03*
X019255Y006755D03*
X018880Y006505D03*
X018580Y006230D03*
X020105Y006880D03*
X020555Y006880D03*
X021030Y006655D03*
X021380Y006380D03*
X021380Y006005D03*
X021380Y005630D03*
X021380Y005255D03*
X021380Y004880D03*
X021130Y004630D03*
X020880Y004380D03*
X020630Y004130D03*
X020230Y004080D03*
X020405Y004555D03*
X020030Y004680D03*
X017505Y002755D03*
X017180Y003180D03*
X016780Y003180D03*
X016430Y003330D03*
X016405Y003755D03*
X016405Y004130D03*
X016405Y004505D03*
X016430Y004930D03*
X015305Y004455D03*
X014255Y004005D03*
X013405Y004880D03*
X012930Y004880D03*
X011230Y005380D03*
X010755Y005380D03*
X010380Y005380D03*
X010005Y005380D03*
X009630Y005380D03*
X009255Y005380D03*
X008880Y005380D03*
X008505Y005380D03*
X008130Y005380D03*
X008005Y005730D03*
X008505Y005905D03*
X008880Y005755D03*
X008005Y006180D03*
X008505Y006280D03*
X008505Y006705D03*
X008505Y007080D03*
X008505Y007455D03*
X008505Y007830D03*
X008505Y008205D03*
X008505Y008580D03*
X008505Y008955D03*
X008205Y009230D03*
X008055Y009705D03*
X008055Y010130D03*
X006630Y009755D03*
X006630Y009380D03*
X006630Y009005D03*
X006630Y008630D03*
X006630Y008255D03*
X006630Y007880D03*
X007080Y008230D03*
X007530Y008230D03*
X008030Y008230D03*
X006630Y007505D03*
X006630Y007130D03*
X006630Y006755D03*
X006630Y006380D03*
X006630Y006005D03*
X007005Y005755D03*
X007005Y005380D03*
X006630Y005380D03*
X006255Y005380D03*
X005880Y005380D03*
X005505Y005380D03*
X005130Y005380D03*
X005130Y005005D03*
X005130Y004630D03*
X005130Y004255D03*
X005505Y004005D03*
X005880Y004005D03*
X006255Y004005D03*
X007505Y003255D03*
X008505Y003055D03*
X009755Y003230D03*
X010355Y003380D03*
X011555Y003205D03*
X008955Y004205D03*
X007155Y006230D03*
X004380Y006255D03*
X004380Y006630D03*
X004380Y007005D03*
X004380Y007380D03*
X004380Y007755D03*
X004380Y008130D03*
X004380Y005880D03*
X004380Y005505D03*
X004380Y005130D03*
X004380Y004755D03*
X004380Y004380D03*
X004755Y004380D03*
X006630Y001230D03*
X013830Y006105D03*
X016505Y008130D03*
X016880Y008130D03*
X017255Y008130D03*
X014255Y008880D03*
X010255Y011955D03*
X009880Y011955D03*
X009505Y011955D03*
X009130Y011955D03*
X008755Y011955D03*
X008380Y011955D03*
X008005Y011955D03*
X007230Y013130D03*
X007230Y013480D03*
X007230Y013830D03*
X007230Y014180D03*
X007230Y014530D03*
X007130Y015505D03*
X006755Y015505D03*
X006380Y015505D03*
X006005Y015505D03*
X005630Y015505D03*
X005255Y015505D03*
X004880Y015505D03*
X004505Y015505D03*
X004130Y015505D03*
X003755Y015505D03*
X003380Y015505D03*
X003005Y015505D03*
X002630Y015505D03*
X002255Y015505D03*
X001880Y015505D03*
X001505Y015505D03*
X001130Y015505D03*
X000755Y015505D03*
X000505Y015005D03*
X000505Y014630D03*
X000505Y014255D03*
X000505Y013880D03*
X000505Y013505D03*
X000505Y013130D03*
X000505Y012755D03*
X000630Y012380D03*
X001005Y012380D03*
X001380Y012380D03*
X001755Y012380D03*
X002130Y012380D03*
X002505Y012380D03*
X002880Y012380D03*
X003255Y012380D03*
X003630Y012380D03*
X004005Y012380D03*
X004180Y011880D03*
X004180Y011405D03*
X004205Y010955D03*
X005105Y010905D03*
X005130Y011255D03*
X005130Y011630D03*
X005280Y012005D03*
X005655Y012005D03*
X006080Y012005D03*
X010255Y012330D03*
X010730Y013180D03*
X010730Y013530D03*
X010730Y013880D03*
X010730Y014230D03*
X010730Y014580D03*
X010880Y015505D03*
X010505Y015505D03*
X007505Y015505D03*
X013880Y015505D03*
X014255Y015505D03*
X014630Y015505D03*
X015005Y015505D03*
X015380Y015505D03*
X015755Y015505D03*
X016130Y015505D03*
X016505Y015505D03*
X017130Y014430D03*
X017130Y013980D03*
X017130Y013580D03*
X017130Y013180D03*
X017480Y012980D03*
X017880Y012980D03*
X020380Y012305D03*
X021380Y011380D03*
X020930Y011205D03*
X020505Y011205D03*
X021005Y010630D03*
X021380Y010630D03*
X021380Y011005D03*
X022730Y010855D03*
X022730Y011255D03*
X022730Y011705D03*
X023505Y011630D03*
X023505Y011255D03*
X023505Y010880D03*
X023505Y010505D03*
X023505Y010130D03*
X023505Y009755D03*
X023505Y009380D03*
X023505Y009005D03*
X023505Y008630D03*
X023505Y008255D03*
X023505Y007880D03*
X023505Y007505D03*
X023505Y007130D03*
X023505Y006755D03*
X023505Y006380D03*
X023505Y006005D03*
X023505Y005630D03*
X023505Y005255D03*
X023505Y004880D03*
X023505Y004505D03*
X023505Y004130D03*
X023505Y003755D03*
X023505Y003380D03*
X023505Y003005D03*
X023505Y002630D03*
X023505Y002255D03*
X023505Y001880D03*
X023505Y001505D03*
X023505Y001130D03*
X017455Y001480D03*
X017455Y001880D03*
X017455Y002255D03*
X023505Y012005D03*
X023505Y012380D03*
X023505Y012755D03*
X023505Y013130D03*
X023505Y013505D03*
X023505Y013880D03*
X023505Y014255D03*
X023505Y014630D03*
X023505Y015005D03*
X023255Y015505D03*
X022880Y015505D03*
X022505Y015505D03*
X022130Y015505D03*
X021755Y015505D03*
X021380Y015505D03*
X014730Y014630D03*
X014380Y014630D03*
X013980Y014580D03*
X014330Y014280D03*
X013980Y014180D03*
X013980Y013830D03*
X013980Y013480D03*
X000630Y012005D03*
X000630Y011630D03*
X000630Y011255D03*
X000630Y010880D03*
X000630Y010505D03*
X000630Y010130D03*
X000630Y009755D03*
X000630Y009380D03*
X000630Y009005D03*
D20*
X012405Y012905D02*
X012755Y012555D01*
X015705Y012555D01*
X016055Y012205D01*
X017855Y011755D02*
X018030Y011580D01*
X018030Y008497D01*
X012405Y012905D02*
X012405Y013505D01*
X012405Y014505D01*
D21*
X016055Y012205D03*
M02*
