*
*
G04 PADS Layout (Build Number 2007.21.1) generated Gerber (RS-274-X) file*
G04 PC Version=2.1*
*
%IN "PIC16F87xTQ4401B_.pcb"*%
*
%MOIN*%
*
%FSLAX35Y35*%
*
*
*
*
G04 PC Standard Apertures*
*
*
G04 Thermal Relief Aperture macro.*
%AMTER*
1,1,$1,0,0*
1,0,$1-$2,0,0*
21,0,$3,$4,0,0,45*
21,0,$3,$4,0,0,135*
%
*
*
G04 Annular Aperture macro.*
%AMANN*
1,1,$1,0,0*
1,0,$2,0,0*
%
*
*
G04 Odd Aperture macro.*
%AMODD*
1,1,$1,0,0*
1,0,$1-0.005,0,0*
%
*
*
G04 PC Custom Aperture Macros*
*
*
*
*
*
*
G04 PC Aperture Table*
*
%ADD010R,0.039X0.039*%
%ADD012R,0.07X0.07*%
%ADD013C,0.23622*%
%ADD014C,0.05*%
%ADD017C,0.02*%
%ADD019C,0.03*%
%ADD020C,0.012*%
%ADD022C,0.055*%
%ADD024C,0.001*%
%ADD025C,0.01*%
%ADD031C,0.07*%
%ADD036C,0.008*%
%ADD040R,0.06X0.06*%
%ADD043C,0.07874*%
%ADD044R,0.065X0.065*%
%ADD045C,0.075*%
%ADD046R,0.055X0.055*%
%ADD047C,0.022*%
%ADD048C,0.018*%
*
*
*
*
G04 PC Circuitry*
G04 Layer Name PIC16F87xTQ4401B_.pcb - circuitry*
%LPD*%
*
*
G04 PC Custom Flashes*
G04 Layer Name PIC16F87xTQ4401B_.pcb - flashes*
%LPD*%
*
*
G04 PC Circuitry*
G04 Layer Name PIC16F87xTQ4401B_.pcb - circuitry*
%LPD*%
*
G54D10*
G01X00229200Y00251350D02*
Y00249650D01*
X00236800Y00251350D02*
Y00249650D01*
X00303800Y00140150D02*
Y00141850D01*
X00296200Y00140150D02*
Y00141850D01*
X00303800Y00130150D02*
Y00131850D01*
X00296200Y00130150D02*
Y00131850D01*
X00303800Y00120150D02*
Y00121850D01*
X00296200Y00120150D02*
Y00121850D01*
X00227200Y00169350D02*
Y00167650D01*
X00234800Y00169350D02*
Y00167650D01*
X00336300Y00161650D02*
Y00163350D01*
X00328700Y00161650D02*
Y00163350D01*
X00336300Y00186650D02*
Y00188350D01*
X00328700Y00186650D02*
Y00188350D01*
X00222800Y00158650D02*
Y00160350D01*
X00215200Y00158650D02*
Y00160350D01*
X00217700Y00149450D02*
Y00151150D01*
X00210100Y00149450D02*
Y00151150D01*
X00130850Y00163800D02*
X00129150D01*
X00130850Y00156200D02*
X00129150D01*
X00140850Y00163800D02*
X00139150D01*
X00140850Y00156200D02*
X00139150D01*
X00312300Y00237400D02*
Y00238600D01*
X00304700Y00237400D02*
Y00238600D01*
X00319400Y00248700D02*
X00320600D01*
X00319400Y00256300D02*
X00320600D01*
X00135800Y00210900D02*
Y00212100D01*
X00128200Y00210900D02*
Y00212100D01*
X00135800Y00220900D02*
Y00222100D01*
X00128200Y00220900D02*
Y00222100D01*
X00136300Y00266900D02*
Y00268100D01*
X00128700Y00266900D02*
Y00268100D01*
X00136300Y00256900D02*
Y00258100D01*
X00128700Y00256900D02*
Y00258100D01*
X00136300Y00246900D02*
Y00248100D01*
X00128700Y00246900D02*
Y00248100D01*
G54D12*
X00292500Y00300000D03*
X00302500D03*
X00292500Y00290000D03*
X00302500D03*
X00292500Y00280000D03*
X00302500D03*
X00310000Y00207500D03*
Y00217500D03*
Y00227500D03*
Y00247500D03*
Y00257500D03*
G54D13*
X00130000Y00130000D03*
X00330000D03*
Y00290000D03*
X00130000D03*
G54D14*
X00157500Y00292500D03*
X00307500Y00270000D02*
X00310900Y00273400D01*
Y00290000*
X00302500*
X00292500*
G54D17*
X00153634Y00127838D02*
Y00128088D01*
X00139323Y00142400*
X00136700*
X00131600Y00147500*
X00184000Y00119500D02*
X00165000D01*
X00163634Y00120866*
Y00127838*
X00184000Y00119500D02*
X00185000Y00120500D01*
Y00125000*
X00139127Y00147500D02*
Y00156200D01*
X00140000*
X00138400Y00147500D02*
X00139127D01*
X00153915Y00143822D02*
X00147746D01*
X00144068Y00147500*
X00139127*
X00163915Y00143822D02*
Y00144072D01*
X00150908Y00157079*
Y00165988*
X00156158Y00171238*
Y00171488*
X00166158*
X00173000*
X00196500Y00195100*
X00211969*
X00156158Y00161488D02*
X00166158D01*
X00171000*
X00201500Y00192000*
X00211969*
X00215200Y00159500D02*
X00215300Y00159600D01*
Y00164442*
X00219858Y00169000*
X00227200Y00168500D02*
Y00169350D01*
X00231900Y00174050*
Y00184469*
X00156158Y00191488D02*
X00166158D01*
X00176984*
X00186796Y00201300*
X00211969*
X00156158Y00191488D02*
X00148010Y00199637D01*
X00139395*
X00156158Y00181488D02*
X00166158D01*
X00176446*
X00193158Y00198200*
X00211969*
X00231900Y00184469D02*
Y00211300D01*
X00218700Y00224500*
X00128200Y00211500D02*
Y00221500D01*
X00129395Y00199637D02*
Y00204737D01*
X00135800Y00211142*
Y00211500*
X00166158Y00211488D02*
X00156158D01*
Y00201488D02*
X00166158D01*
X00176888*
X00179800Y00204400*
X00211969*
Y00213700D02*
X00186897D01*
X00177797Y00222800*
X00174596*
X00166158Y00231238*
Y00231488*
X00211969Y00210600D02*
X00183198D01*
X00178098Y00215700*
X00171696*
X00166158Y00221238*
Y00221488*
X00211969Y00207500D02*
X00178500D01*
X00174512Y00211488*
X00166158*
X00128200Y00221500D02*
Y00222100D01*
X00123500Y00226800*
Y00237500*
X00126500Y00240500*
X00145500*
X00149300Y00244300*
Y00267600*
X00149600Y00267900*
X00172600*
X00135800Y00221500D02*
Y00226261D01*
X00129103Y00232958*
Y00233208*
X00139103D02*
X00147878D01*
X00156158Y00241488*
X00166158Y00231488D02*
X00156158D01*
X00166158Y00221488D02*
X00156158D01*
X00212100Y00231100D02*
X00218700Y00224500D01*
X00234600*
X00235000Y00224900*
Y00230531*
X00218700Y00224500D02*
X00218000D01*
X00215753Y00226747*
X00214253*
X00210000Y00231000*
X00212000*
X00212100Y00231100*
X00210000Y00231000D02*
Y00238000D01*
X00193100Y00254900*
X00192900*
X00169965Y00277835*
Y00296482*
X00162247Y00304200*
X00144200*
X00211969Y00223000D02*
X00199185D01*
X00183000Y00239185*
Y00244396*
X00166158Y00261238*
Y00261488*
X00211969Y00219900D02*
X00197496D01*
X00166158Y00251238*
Y00251488*
X00211969Y00216800D02*
X00190596D01*
X00166158Y00241238*
Y00241488*
X00228800Y00230531D02*
Y00238429D01*
X00206301Y00260928*
Y00285479*
X00225700Y00230531D02*
Y00236956D01*
X00196301Y00266355*
Y00285479*
X00222600Y00230531D02*
Y00235470D01*
X00186301Y00271770*
Y00285479*
X00219500Y00230531D02*
Y00233431D01*
X00176301Y00276631*
Y00285479*
X00247400Y00230531D02*
Y00247132D01*
X00266301Y00266033*
Y00285479*
X00244300Y00230531D02*
Y00251429D01*
X00256301Y00263429*
Y00285479*
X00241200Y00230531D02*
Y00257477D01*
X00246301Y00262578*
Y00285479*
X00235000Y00230531D02*
Y00241972D01*
X00233100Y00243872*
Y00245750*
X00229200Y00249650*
Y00250500*
X00231900Y00230531D02*
Y00239903D01*
X00216301Y00255502*
Y00285479*
X00250000Y00222500D02*
X00256000Y00228500D01*
X00256500*
X00250500Y00230531D02*
Y00242835D01*
X00276301Y00268636*
Y00285479*
X00166158Y00251488D02*
X00156158D01*
X00166158Y00241488D02*
X00156158D01*
X00236800Y00250500D02*
Y00257477D01*
X00237400Y00258077*
Y00265300*
X00312300Y00238600D02*
X00314300Y00240600D01*
X00321500*
X00310000Y00247500D02*
X00304500Y00253000D01*
Y00261828*
X00306172Y00263500*
X00309464*
X00317308Y00271345*
Y00277308*
X00330000Y00290000*
X00166158Y00261488D02*
X00156158D01*
X00175500Y00265000D02*
X00172600Y00267900D01*
X00237400Y00265300D02*
Y00274077D01*
X00236646*
Y00285479*
X00236301*
X00130000Y00290000D02*
X00144200Y00304200D01*
X00186301Y00285479D02*
Y00295479D01*
X00176301Y00285479D02*
Y00295479D01*
X00206301Y00285479D02*
Y00295479D01*
X00196301Y00285479D02*
Y00295479D01*
X00216301Y00285479D02*
Y00295479D01*
X00246301Y00285479D02*
Y00295479D01*
X00236301Y00285479D02*
Y00295479D01*
X00256301Y00285479D02*
Y00295479D01*
X00266301Y00285479D02*
Y00295479D01*
X00276301Y00285479D02*
Y00295479D01*
G54D19*
X00248150Y00194150D02*
X00238150D01*
Y00222450*
X00238200Y00222500*
X00250000*
X00256500Y00228500D02*
Y00241786D01*
X00284714Y00270000*
X00301000*
X00307500*
G54D20*
X00213900Y00143650D02*
Y00159500D01*
X00215200*
G54D22*
X00138400Y00147500D03*
X00131600D03*
X00135000Y00185000D03*
X00175500Y00265000D03*
X00237400Y00265300D03*
G54D24*
G54D25*
X00344750Y00215400D02*
G75*
G03X00344750I-00006250J0D01*
G01X00346500Y00201300D02*
Y00306100D01*
G03X00346100Y00306500I-00000400J-00000000*
G01X00113900*
G03X00113500Y00306100I00000000J-00000400*
G01Y00113900*
G03X00113900Y00113500I00000400J00000000*
G01X00346100*
G03X00346500Y00113900I-00000000J00000400*
G01Y00136518*
G03X00346100Y00136918I-00000400J00000000*
G01X00339850*
X00338350Y00138418D02*
G03X00339850Y00136918I00001500J00000000D01*
G01X00338350Y00138418D02*
Y00199400D01*
X00339850Y00200900D02*
G03X00338350Y00199400I00000000J-00001500D01*
G01X00339850Y00200900D02*
X00346100D01*
G03X00346500Y00201300I-00000000J00000400*
G01X00234539Y00224172D02*
G03X00233951Y00224673I-00000361J00000172D01*
G01X00230505Y00224313D02*
G03X00233951Y00224673I00001395J00003318D01*
G01X00230505Y00224313D02*
G03X00230195I-00000155J-00000369D01*
G01X00227405D02*
G03X00230195I00001395J00003318D01*
G01X00227405D02*
G03X00227095I-00000155J-00000369D01*
G01X00224305D02*
G03X00227095I00001395J00003318D01*
G01X00224305D02*
G03X00223995I-00000155J-00000369D01*
G01X00221205D02*
G03X00223995I00001395J00003318D01*
G01X00221205D02*
G03X00220895I-00000155J-00000369D01*
G01X00218877Y00224086D02*
G03X00220895Y00224313I00000623J00003545D01*
G01X00218877Y00224086D02*
G03X00218414Y00223623I-00000069J-00000394D01*
G01X00218187Y00221605D02*
G03X00218414Y00223623I-00003318J00001395D01*
G01X00218187Y00221605D02*
G03Y00221295I00000369J-00000155D01*
G01Y00218505D02*
G03Y00221295I-00003318J00001395D01*
G01Y00218505D02*
G03Y00218195I00000369J-00000155D01*
G01Y00215405D02*
G03Y00218195I-00003318J00001395D01*
G01Y00215405D02*
G03Y00215095I00000369J-00000155D01*
G01Y00212305D02*
G03Y00215095I-00003318J00001395D01*
G01Y00212305D02*
G03Y00211995I00000369J-00000155D01*
G01Y00209205D02*
G03Y00211995I-00003318J00001395D01*
G01Y00209205D02*
G03Y00208895I00000369J-00000155D01*
G01Y00206105D02*
G03Y00208895I-00003318J00001395D01*
G01Y00206105D02*
G03Y00205795I00000369J-00000155D01*
G01Y00203005D02*
G03Y00205795I-00003318J00001395D01*
G01Y00203005D02*
G03Y00202695I00000369J-00000155D01*
G01Y00199905D02*
G03Y00202695I-00003318J00001395D01*
G01Y00199905D02*
G03Y00199595I00000369J-00000155D01*
G01Y00196805D02*
G03Y00199595I-00003318J00001395D01*
G01Y00196805D02*
G03Y00196495I00000369J-00000155D01*
G01Y00193705D02*
G03Y00196495I-00003318J00001395D01*
G01Y00193705D02*
G03Y00193395I00000369J-00000155D01*
G01X00218414Y00191377D02*
G03X00218187Y00193395I-00003545J00000623D01*
G01X00218414Y00191377D02*
G03X00218877Y00190914I00000394J-00000069D01*
G01X00220895Y00190687D02*
G03X00218877Y00190914I-00001395J-00003318D01*
G01X00220895Y00190687D02*
G03X00221205I00000155J00000369D01*
G01X00223995D02*
G03X00221205I-00001395J-00003318D01*
G01X00223995D02*
G03X00224305I00000155J00000369D01*
G01X00227095D02*
G03X00224305I-00001395J-00003318D01*
G01X00227095D02*
G03X00227405I00000155J00000369D01*
G01X00230960Y00190249D02*
G03X00227405Y00190687I-00002160J-00002880D01*
G01X00230960Y00190249D02*
G03X00231600Y00190569I00000240J00000320D01*
G01Y00191000*
X00232596Y00193404D02*
G03X00231600Y00191000I00002404J-00002404D01*
G01X00232596Y00193404D02*
X00234033Y00194841D01*
G03X00234150Y00195124I-00000283J00000283*
G01Y00222450*
X00234539Y00224172D02*
G03X00234150Y00222450I00003611J-00001722D01*
G01X00215491Y00226546D02*
G03X00215954Y00227009I00000069J00000394D01*
G01X00215900Y00227631D02*
G03X00215954Y00227009I00003600J00000000D01*
G01X00215900Y00227631D02*
Y00231916D01*
G03X00215783Y00232198I-00000400J-00000000*
G01X00181242Y00266740*
G03X00180572Y00266354I-00000283J-00000282*
G01X00173137Y00260312D02*
G03X00180572Y00266354I00002363J00004688D01*
G01X00173137Y00260312D02*
G03X00172674Y00259672I-00000180J-00000357D01*
G01X00185475Y00246871*
X00186500Y00244396D02*
G03X00185475Y00246871I-00003500J00000000D01*
G01X00186500Y00244396D02*
Y00240800D01*
G03X00186617Y00240518I00000400J00000000*
G01X00199781Y00227354*
G03X00200464Y00227637I00000283J00000283*
G01Y00234150*
X00201964Y00235650D02*
G03X00200464Y00234150I-00000000J-00001500D01*
G01X00201964Y00235650D02*
X00204400D01*
X00205900Y00234150D02*
G03X00204400Y00235650I-00001500J00000000D01*
G01X00205900Y00234150D02*
Y00226900D01*
G03X00206300Y00226500I00000400J00000000*
G01X00208180*
G03X00208269Y00226510I-00000000J00000400*
G01X00209069Y00226600D02*
G03X00208269Y00226510I-00000000J-00003600D01*
G01X00209069Y00226600D02*
X00214869D01*
X00215491Y00226546D02*
G03X00214869Y00226600I-00000622J-00003546D01*
G01X00333150Y00190300D02*
Y00184700D01*
X00330650Y00182200D02*
G03X00333150Y00184700I00000000J00002500D01*
G01X00330650Y00182200D02*
X00326750D01*
X00325628Y00182466D02*
G03X00326750Y00182200I00001122J00002234D01*
G01X00325628Y00182466D02*
G03X00325145Y00182369I-00000180J-00000357D01*
G01X00323250Y00181500D02*
G03X00325145Y00182369I00000000J00002500D01*
G01X00323250Y00181500D02*
X00317400D01*
G03X00317000Y00181100I00000000J-00000400*
G01Y00168900*
G03X00317400Y00168500I00000400J00000000*
G01X00323250*
X00325145Y00167631D02*
G03X00323250Y00168500I-00001895J-00001631D01*
G01X00325145Y00167631D02*
G03X00325628Y00167534I00000303J00000260D01*
G01X00326750Y00167800D02*
G03X00325628Y00167534I00000000J-00002500D01*
G01X00326750Y00167800D02*
X00330650D01*
X00333150Y00165300D02*
G03X00330650Y00167800I-00002500J00000000D01*
G01X00333150Y00165300D02*
Y00159700D01*
X00330650Y00157200D02*
G03X00333150Y00159700I00000000J00002500D01*
G01X00330650Y00157200D02*
X00326750D01*
X00326110Y00157283D02*
G03X00326750Y00157200I00000640J00002417D01*
G01X00326110Y00157283D02*
G03X00325628Y00156773I-00000102J-00000386D01*
G01X00325750Y00156000D02*
G03X00325628Y00156773I-00002500J00000000D01*
G01X00325750Y00156000D02*
Y00149000D01*
X00323250Y00146500D02*
G03X00325750Y00149000I00000000J00002500D01*
G01X00323250Y00146500D02*
X00319084D01*
G03X00318820Y00146400I00000000J-00000400*
G01X00317901Y00145592*
G03X00317883Y00145574I00000264J-00000301*
G01X00317004Y00144696*
X00315987Y00143996D02*
G03X00317004Y00144696I-00001387J00003104D01*
G01X00315987Y00143996D02*
G03X00315750Y00143630I00000163J-00000366D01*
G01Y00137500*
X00315390Y00136207D02*
G03X00315750Y00137500I-00002140J00001293D01*
G01X00315390Y00136207D02*
G03Y00135793I00000342J-00000207D01*
G01X00315750Y00134500D02*
G03X00315390Y00135793I-00002500J00000000D01*
G01X00315750Y00134500D02*
Y00127500D01*
X00315390Y00126207D02*
G03X00315750Y00127500I-00002140J00001293D01*
G01X00315390Y00126207D02*
G03Y00125793I00000342J-00000207D01*
G01X00315750Y00124500D02*
G03X00315390Y00125793I-00002500J00000000D01*
G01X00315750Y00124500D02*
Y00117500D01*
X00313250Y00115000D02*
G03X00315750Y00117500I00000000J00002500D01*
G01X00313250Y00115000D02*
X00306750D01*
X00305121Y00115603D02*
G03X00306750Y00115000I00001629J00001897D01*
G01X00305121Y00115603D02*
G03X00304861Y00115700I-00000260J-00000303D01*
G01X00301850*
X00300255Y00116275D02*
G03X00301850Y00115700I00001595J00001925D01*
G01X00300255Y00116275D02*
G03X00299745I-00000255J-00000308D01*
G01X00298150Y00115700D02*
G03X00299745Y00116275I00000000J00002500D01*
G01X00298150Y00115700D02*
X00295139D01*
G03X00294879Y00115603I00000000J-00000400*
G01X00293250Y00115000D02*
G03X00294879Y00115603I00000000J00002500D01*
G01X00293250Y00115000D02*
X00286750D01*
X00284250Y00117500D02*
G03X00286750Y00115000I00002500J00000000D01*
G01X00284250Y00117500D02*
Y00124500D01*
X00284610Y00125793D02*
G03X00284250Y00124500I00002140J-00001293D01*
G01X00284610Y00125793D02*
G03Y00126207I-00000342J00000207D01*
G01X00284250Y00127500D02*
G03X00284610Y00126207I00002500J00000000D01*
G01X00284250Y00127500D02*
Y00134500D01*
X00284610Y00135793D02*
G03X00284250Y00134500I00002140J-00001293D01*
G01X00284610Y00135793D02*
G03Y00136207I-00000342J00000207D01*
G01X00284250Y00137500D02*
G03X00284610Y00136207I00002500J00000000D01*
G01X00284250Y00137500D02*
Y00144500D01*
X00284585Y00145750D02*
G03X00284250Y00144500I00002165J-00001250D01*
G01X00284585Y00145750D02*
G03X00284522Y00146233I-00000346J00000200D01*
G01X00279083Y00151672*
G03X00278400Y00151389I-00000283J-00000283*
G01Y00141134*
G03X00278759Y00140737I00000400J00000000*
G01X00281000Y00138250D02*
G03X00278759Y00140737I-00002500J00000000D01*
G01X00281000Y00138250D02*
Y00131750D01*
X00280494Y00130241D02*
G03X00281000Y00131750I-00001994J00001509D01*
G01X00280494Y00130241D02*
G03Y00129759I00000318J-00000241D01*
G01X00281000Y00128250D02*
G03X00280494Y00129759I-00002500J00000000D01*
G01X00281000Y00128250D02*
Y00121750D01*
X00278500Y00119250D02*
G03X00281000Y00121750I00000000J00002500D01*
G01X00278500Y00119250D02*
X00271500D01*
X00270207Y00119610D02*
G03X00271500Y00119250I00001293J00002140D01*
G01X00270207Y00119610D02*
G03X00269793I-00000207J-00000342D01*
G01X00268500Y00119250D02*
G03X00269793Y00119610I00000000J00002500D01*
G01X00268500Y00119250D02*
X00261500D01*
X00260207Y00119610D02*
G03X00261500Y00119250I00001293J00002140D01*
G01X00260207Y00119610D02*
G03X00259793I-00000207J-00000342D01*
G01X00258500Y00119250D02*
G03X00259793Y00119610I00000000J00002500D01*
G01X00258500Y00119250D02*
X00251500D01*
X00250207Y00119610D02*
G03X00251500Y00119250I00001293J00002140D01*
G01X00250207Y00119610D02*
G03X00249793I-00000207J-00000342D01*
G01X00248500Y00119250D02*
G03X00249793Y00119610I00000000J00002500D01*
G01X00248500Y00119250D02*
X00241500D01*
X00240207Y00119610D02*
G03X00241500Y00119250I00001293J00002140D01*
G01X00240207Y00119610D02*
G03X00239793I-00000207J-00000342D01*
G01X00238500Y00119250D02*
G03X00239793Y00119610I00000000J00002500D01*
G01X00238500Y00119250D02*
X00231500D01*
X00230207Y00119610D02*
G03X00231500Y00119250I00001293J00002140D01*
G01X00230207Y00119610D02*
G03X00229793I-00000207J-00000342D01*
G01X00228500Y00119250D02*
G03X00229793Y00119610I00000000J00002500D01*
G01X00228500Y00119250D02*
X00221500D01*
X00219000Y00121750D02*
G03X00221500Y00119250I00002500J00000000D01*
G01X00219000Y00121750D02*
Y00128250D01*
X00219506Y00129759D02*
G03X00219000Y00128250I00001994J-00001509D01*
G01X00219506Y00129759D02*
G03Y00130241I-00000318J00000241D01*
G01X00219000Y00131750D02*
G03X00219506Y00130241I00002500J00000000D01*
G01X00219000Y00131750D02*
Y00138250D01*
X00221500Y00140750D02*
G03X00219000Y00138250I00000000J-00002500D01*
G01X00221500Y00140750D02*
X00226026D01*
G03X00226309Y00140867I-00000000J00000400*
G01X00227383Y00141941*
G03X00227500Y00142224I-00000283J00000283*
G01Y00153500*
X00228496Y00155904D02*
G03X00227500Y00153500I00002404J-00002404D01*
G01X00228496Y00155904D02*
X00231283Y00158691D01*
G03X00231400Y00158974I-00000283J00000283*
G01Y00163467*
G03X00231255Y00163775I-00000400J-00000000*
G01X00230350Y00165700D02*
G03X00231255Y00163775I00002500J00000000D01*
G01X00230350Y00165700D02*
Y00171300D01*
X00231255Y00173225D02*
G03X00230350Y00171300I00001595J-00001925D01*
G01X00231255Y00173225D02*
G03X00231400Y00173533I-00000255J00000308D01*
G01Y00174768*
G03X00230717Y00175051I-00000400J-00000000*
G01X00225904Y00170237*
G03X00225791Y00169895I00000282J-00000283*
G01X00220023Y00163002D02*
G03X00225791Y00169895I-00000165J00005998D01*
G01X00220023Y00163002D02*
G03X00219636Y00162561I00000011J-00000400D01*
G01X00219650Y00162300D02*
G03X00219636Y00162561I-00002500J00000000D01*
G01X00219650Y00162300D02*
Y00156700D01*
X00217366Y00154209D02*
G03X00219650Y00156700I-00000216J00002491D01*
G01X00217366Y00154209D02*
G03X00217000Y00153811I00000034J-00000398D01*
G01Y00145130*
G03X00217032Y00144974I00000400J-00000000*
G01X00216304Y00141246D02*
G03X00217032Y00144974I-00002404J00002404D01*
G01X00216304Y00141246D02*
X00211117Y00136059D01*
G03X00211000Y00135776I00000283J-00000283*
G01Y00131750*
X00210494Y00130241D02*
G03X00211000Y00131750I-00001994J00001509D01*
G01X00210494Y00130241D02*
G03Y00129759I00000318J-00000241D01*
G01X00211000Y00128250D02*
G03X00210494Y00129759I-00002500J00000000D01*
G01X00211000Y00128250D02*
Y00121750D01*
X00208500Y00119250D02*
G03X00211000Y00121750I00000000J00002500D01*
G01X00208500Y00119250D02*
X00201500D01*
X00200207Y00119610D02*
G03X00201500Y00119250I00001293J00002140D01*
G01X00200207Y00119610D02*
G03X00199793I-00000207J-00000342D01*
G01X00198500Y00119250D02*
G03X00199793Y00119610I00000000J00002500D01*
G01X00198500Y00119250D02*
X00191500D01*
X00190207Y00119610D02*
G03X00191500Y00119250I00001293J00002140D01*
G01X00190207Y00119610D02*
G03X00189793I-00000207J-00000342D01*
G01X00188529Y00119250D02*
G03X00189793Y00119610I-00000029J00002500D01*
G01X00188529Y00119250D02*
G03X00188171Y00119019I00000005J-00000400D01*
G01X00187475Y00118025D02*
G03X00188171Y00119019I-00002475J00002475D01*
G01X00187475Y00118025D02*
X00186475Y00117025D01*
X00184000Y00116000D02*
G03X00186475Y00117025I00000000J00003500D01*
G01X00184000Y00116000D02*
X00165000D01*
X00162525Y00117025D02*
G03X00165000Y00116000I00002475J00002475D01*
G01X00162525Y00117025D02*
X00161159Y00118391D01*
X00160134Y00120866D02*
G03X00161159Y00118391I00003500J00000000D01*
G01X00160134Y00120866D02*
Y00121512D01*
G03X00159824Y00121902I-00000400J-00000000*
G01X00158875Y00122344D02*
G03X00159824Y00121902I00001509J00001994D01*
G01X00158875Y00122344D02*
G03X00158393I-00000241J-00000318D01*
G01X00156884Y00121838D02*
G03X00158393Y00122344I00000000J00002500D01*
G01X00156884Y00121838D02*
X00150384D01*
X00147884Y00124338D02*
G03X00150384Y00121838I00002500J00000000D01*
G01X00147884Y00124338D02*
Y00128723D01*
G03X00147767Y00129006I-00000400J-00000000*
G01X00137990Y00138783*
G03X00137707Y00138900I-00000283J-00000283*
G01X00136700*
X00134225Y00139925D02*
G03X00136700Y00138900I00002475J00002475D01*
G01X00134225Y00139925D02*
X00132016Y00142134D01*
G03X00131724Y00142251I-00000283J-00000282*
G01X00127460Y00150729D02*
G03X00131724Y00142251I00004140J-00003229D01*
G01X00127460Y00150729D02*
G03X00127545Y00150975I-00000315J00000246D01*
G01Y00151351*
X00127545D02*
G03X00127153Y00151750I-00000400J-00000000D01*
G01X00124700Y00154250D02*
G03X00127153Y00151750I00002500J00000000D01*
G01X00124700Y00154250D02*
Y00158150D01*
X00127200Y00160650D02*
G03X00124700Y00158150I00000000J-00002500D01*
G01X00127200Y00160650D02*
X00132800D01*
X00134697Y00159779D02*
G03X00132800Y00160650I-00001897J-00001629D01*
G01X00134697Y00159779D02*
G03X00135303I00000303J00000260D01*
G01X00137200Y00160650D02*
G03X00135303Y00159779I00000000J-00002500D01*
G01X00137200Y00160650D02*
X00142800D01*
X00145300Y00158150D02*
G03X00142800Y00160650I-00002500J00000000D01*
G01X00145300Y00158150D02*
Y00154250D01*
X00143262Y00151793D02*
G03X00145300Y00154250I-00000462J00002457D01*
G01X00143262Y00151793D02*
G03X00143336Y00151000I00000074J-00000393D01*
G01X00144068*
X00146543Y00149975D02*
G03X00144068Y00151000I-00002475J-00002475D01*
G01X00146543Y00149975D02*
X00147930Y00148588D01*
G03X00148551Y00148657I00000283J00000282*
G01X00150665Y00149822D02*
G03X00148551Y00148657I00000000J-00002500D01*
G01X00150665Y00149822D02*
X00152250D01*
G03X00152532Y00150505I-00000000J00000400*
G01X00148433Y00154604*
X00147408Y00157079D02*
G03X00148433Y00154604I00003500J00000000D01*
G01X00147408Y00157079D02*
Y00165988D01*
X00148433Y00168463D02*
G03X00147408Y00165988I00002475J-00002475D01*
G01X00148433Y00168463D02*
X00150291Y00170321D01*
G03X00150408Y00170603I-00000283J00000282*
G01Y00174988*
X00150768Y00176281D02*
G03X00150408Y00174988I00002140J-00001293D01*
G01X00150768Y00176281D02*
G03Y00176695I-00000342J00000207D01*
G01X00150408Y00177988D02*
G03X00150768Y00176695I00002500J00000000D01*
G01X00150408Y00177988D02*
Y00184988D01*
X00150768Y00186281D02*
G03X00150408Y00184988I00002140J-00001293D01*
G01X00150768Y00186281D02*
G03Y00186695I-00000342J00000207D01*
G01X00150408Y00187988D02*
G03X00150768Y00186695I00002500J00000000D01*
G01X00150408Y00187988D02*
Y00192123D01*
G03X00150291Y00192406I-00000400J-00000000*
G01X00146677Y00196020*
G03X00146394Y00196137I-00000283J-00000283*
G01X00145517*
G03X00145121Y00195792I00000000J-00000400*
G01X00142645Y00193637D02*
G03X00145121Y00195792I00000000J00002500D01*
G01X00142645Y00193637D02*
X00136145D01*
X00134636Y00194143D02*
G03X00136145Y00193637I00001509J00001994D01*
G01X00134636Y00194143D02*
G03X00134154I-00000241J-00000318D01*
G01X00132645Y00193637D02*
G03X00134154Y00194143I00000000J00002500D01*
G01X00132645Y00193637D02*
X00126145D01*
X00123645Y00196137D02*
G03X00126145Y00193637I00002500J00000000D01*
G01X00123645Y00196137D02*
Y00203137D01*
X00125767Y00205608D02*
G03X00123645Y00203137I00000378J-00002471D01*
G01X00125767Y00205608D02*
G03X00126085Y00205874I-00000061J00000396D01*
G01X00126114Y00205956D02*
G03X00126085Y00205874I00003281J-00001219D01*
G01X00126114Y00205956D02*
G03X00125810Y00206489I-00000375J00000139D01*
G01X00123750Y00208950D02*
G03X00125810Y00206489I00002500J00000000D01*
G01X00123750Y00208950D02*
Y00214050D01*
X00124569Y00215900D02*
G03X00123750Y00214050I00001681J-00001850D01*
G01X00124569Y00215900D02*
G03X00124700Y00216197I-00000269J00000297D01*
G01Y00216803*
G03X00124569Y00217100I-00000400J00000000*
G01X00123750Y00218950D02*
G03X00124569Y00217100I00002500J00000000D01*
G01X00123750Y00218950D02*
Y00221435D01*
G03X00123633Y00221717I-00000400J-00000000*
G01X00121025Y00224325*
X00120000Y00226800D02*
G03X00121025Y00224325I00003500J00000000D01*
G01X00120000Y00226800D02*
Y00237500D01*
X00121025Y00239975D02*
G03X00120000Y00237500I00002475J-00002475D01*
G01X00121025Y00239975D02*
X00121867Y00240817D01*
G03X00121585Y00241500I-00000282J00000283*
G01X00119250*
X00116750Y00244000D02*
G03X00119250Y00241500I00002500J00000000D01*
G01X00116750Y00244000D02*
Y00251000D01*
X00117110Y00252293D02*
G03X00116750Y00251000I00002140J-00001293D01*
G01X00117110Y00252293D02*
G03Y00252707I-00000342J00000207D01*
G01X00116750Y00254000D02*
G03X00117110Y00252707I00002500J00000000D01*
G01X00116750Y00254000D02*
Y00261000D01*
X00117110Y00262293D02*
G03X00116750Y00261000I00002140J-00001293D01*
G01X00117110Y00262293D02*
G03Y00262707I-00000342J00000207D01*
G01X00116750Y00264000D02*
G03X00117110Y00262707I00002500J00000000D01*
G01X00116750Y00264000D02*
Y00271000D01*
X00119250Y00273500D02*
G03X00116750Y00271000I00000000J-00002500D01*
G01X00119250Y00273500D02*
X00125750D01*
X00127600Y00272681D02*
G03X00125750Y00273500I-00001850J-00001681D01*
G01X00127600Y00272681D02*
G03X00127897Y00272550I00000297J00000269D01*
G01X00130650*
X00132245Y00271975D02*
G03X00130650Y00272550I-00001595J-00001925D01*
G01X00132245Y00271975D02*
G03X00132755I00000255J00000308D01*
G01X00134350Y00272550D02*
G03X00132755Y00271975I00000000J-00002500D01*
G01X00134350Y00272550D02*
X00137103D01*
G03X00137400Y00272681I00000000J00000400*
G01X00139250Y00273500D02*
G03X00137400Y00272681I00000000J-00002500D01*
G01X00139250Y00273500D02*
X00145750D01*
X00148184Y00271571D02*
G03X00145750Y00273500I-00002434J-00000571D01*
G01X00148184Y00271571D02*
G03X00148679Y00271277I00000389J00000091D01*
G01X00149420Y00271395D02*
G03X00148679Y00271277I00000180J-00003495D01*
G01X00149420Y00271395D02*
G03X00149681Y00272080I-00000020J00000400D01*
G01X00148147Y00286033D02*
G03X00149681Y00272080I00009353J-00006033D01*
G01X00148147Y00286033D02*
G03Y00286467I-00000336J00000217D01*
G01X00166853D02*
G03X00148147I-00009353J00006033D01*
G01X00166853D02*
G03Y00286033I00000336J-00000217D01*
G01X00165324Y00272084D02*
G03X00166853Y00286033I-00007824J00007916D01*
G01X00165324Y00272084D02*
G03X00165606Y00271400I00000282J-00000284D01*
G01X00172600*
X00175075Y00270375D02*
G03X00172600Y00271400I-00002475J-00002475D01*
G01X00175075Y00270375D02*
X00175084Y00270366D01*
G03X00175376Y00270249I00000283J00000282*
G01X00176855Y00270072D02*
G03X00175376Y00270249I-00001355J-00005072D01*
G01X00176855Y00270072D02*
G03X00177241Y00270742I00000103J00000387D01*
G01X00173826Y00274156*
X00172801Y00276631D02*
G03X00173826Y00274156I00003500J00000000D01*
G01X00172801Y00276631D02*
Y00279357D01*
G03X00172456Y00279753I-00000400J-00000000*
G01X00170301Y00282229D02*
G03X00172456Y00279753I00002500J00000000D01*
G01X00170301Y00282229D02*
Y00288729D01*
X00170807Y00290238D02*
G03X00170301Y00288729I00001994J-00001509D01*
G01X00170807Y00290238D02*
G03Y00290720I-00000318J00000241D01*
G01X00170301Y00292229D02*
G03X00170807Y00290720I00002500J00000000D01*
G01X00170301Y00292229D02*
Y00298729D01*
X00172801Y00301229D02*
G03X00170301Y00298729I00000000J-00002500D01*
G01X00172801Y00301229D02*
X00179801D01*
X00181094Y00300869D02*
G03X00179801Y00301229I-00001293J-00002140D01*
G01X00181094Y00300869D02*
G03X00181508I00000207J00000342D01*
G01X00182801Y00301229D02*
G03X00181508Y00300869I00000000J-00002500D01*
G01X00182801Y00301229D02*
X00189801D01*
X00191094Y00300869D02*
G03X00189801Y00301229I-00001293J-00002140D01*
G01X00191094Y00300869D02*
G03X00191508I00000207J00000342D01*
G01X00192801Y00301229D02*
G03X00191508Y00300869I00000000J-00002500D01*
G01X00192801Y00301229D02*
X00199801D01*
X00201094Y00300869D02*
G03X00199801Y00301229I-00001293J-00002140D01*
G01X00201094Y00300869D02*
G03X00201508I00000207J00000342D01*
G01X00202801Y00301229D02*
G03X00201508Y00300869I00000000J-00002500D01*
G01X00202801Y00301229D02*
X00209801D01*
X00211094Y00300869D02*
G03X00209801Y00301229I-00001293J-00002140D01*
G01X00211094Y00300869D02*
G03X00211508I00000207J00000342D01*
G01X00212801Y00301229D02*
G03X00211508Y00300869I00000000J-00002500D01*
G01X00212801Y00301229D02*
X00219801D01*
X00222301Y00298729D02*
G03X00219801Y00301229I-00002500J00000000D01*
G01X00222301Y00298729D02*
Y00292229D01*
X00221795Y00290720D02*
G03X00222301Y00292229I-00001994J00001509D01*
G01X00221795Y00290720D02*
G03Y00290238I00000318J-00000241D01*
G01X00222301Y00288729D02*
G03X00221795Y00290238I-00002500J00000000D01*
G01X00222301Y00288729D02*
Y00282229D01*
X00220146Y00279753D02*
G03X00222301Y00282229I-00000345J00002476D01*
G01X00220146Y00279753D02*
G03X00219801Y00279357I00000055J-00000396D01*
G01Y00257117*
G03X00219918Y00256835I00000400J00000000*
G01X00232857Y00243896*
G03X00233525Y00244286I00000283J00000283*
G01X00233400Y00245200D02*
G03X00233525Y00244286I00003400J00000000D01*
G01X00233400Y00245200D02*
Y00245467D01*
G03X00233255Y00245775I-00000400J-00000000*
G01X00232350Y00247700D02*
G03X00233255Y00245775I00002500J00000000D01*
G01X00232350Y00247700D02*
Y00253300D01*
X00233169Y00255150D02*
G03X00232350Y00253300I00001681J-00001850D01*
G01X00233169Y00255150D02*
G03X00233300Y00255447I-00000269J00000297D01*
G01Y00257477*
X00233838Y00259342D02*
G03X00233300Y00257477I00002962J-00001865D01*
G01X00233838Y00259342D02*
G03X00233900Y00259555I-00000338J00000213D01*
G01Y00261212*
G03X00233776Y00261501I-00000400J-00000000*
G01X00232365Y00266786D02*
G03X00233776Y00261501I00005035J-00001486D01*
G01X00232365Y00266786D02*
G03X00232245Y00267200I-00000384J00000113D01*
G01X00231396Y00269077D02*
G03X00232245Y00267200I00002500J00000000D01*
G01X00231396Y00269077D02*
Y00279077D01*
X00231492Y00279765D02*
G03X00231396Y00279077I00002404J-00000688D01*
G01X00231492Y00279765D02*
G03X00231341Y00280199I-00000384J00000110D01*
G01X00230301Y00282229D02*
G03X00231341Y00280199I00002500J00000000D01*
G01X00230301Y00282229D02*
Y00288729D01*
X00230807Y00290238D02*
G03X00230301Y00288729I00001994J-00001509D01*
G01X00230807Y00290238D02*
G03Y00290720I-00000318J00000241D01*
G01X00230301Y00292229D02*
G03X00230807Y00290720I00002500J00000000D01*
G01X00230301Y00292229D02*
Y00298729D01*
X00232801Y00301229D02*
G03X00230301Y00298729I00000000J-00002500D01*
G01X00232801Y00301229D02*
X00239801D01*
X00241094Y00300869D02*
G03X00239801Y00301229I-00001293J-00002140D01*
G01X00241094Y00300869D02*
G03X00241508I00000207J00000342D01*
G01X00242801Y00301229D02*
G03X00241508Y00300869I00000000J-00002500D01*
G01X00242801Y00301229D02*
X00249801D01*
X00251094Y00300869D02*
G03X00249801Y00301229I-00001293J-00002140D01*
G01X00251094Y00300869D02*
G03X00251508I00000207J00000342D01*
G01X00252801Y00301229D02*
G03X00251508Y00300869I00000000J-00002500D01*
G01X00252801Y00301229D02*
X00259801D01*
X00261094Y00300869D02*
G03X00259801Y00301229I-00001293J-00002140D01*
G01X00261094Y00300869D02*
G03X00261508I00000207J00000342D01*
G01X00262801Y00301229D02*
G03X00261508Y00300869I00000000J-00002500D01*
G01X00262801Y00301229D02*
X00269801D01*
X00271094Y00300869D02*
G03X00269801Y00301229I-00001293J-00002140D01*
G01X00271094Y00300869D02*
G03X00271508I00000207J00000342D01*
G01X00272801Y00301229D02*
G03X00271508Y00300869I00000000J-00002500D01*
G01X00272801Y00301229D02*
X00279801D01*
X00282301Y00298729D02*
G03X00279801Y00301229I-00002500J00000000D01*
G01X00282301Y00298729D02*
Y00292229D01*
X00281795Y00290720D02*
G03X00282301Y00292229I-00001994J00001509D01*
G01X00281795Y00290720D02*
G03Y00290238I00000318J-00000241D01*
G01X00282301Y00288729D02*
G03X00281795Y00290238I-00002500J00000000D01*
G01X00282301Y00288729D02*
Y00282229D01*
X00280146Y00279753D02*
G03X00282301Y00282229I-00000345J00002476D01*
G01X00280146Y00279753D02*
G03X00279801Y00279357I00000055J-00000396D01*
G01Y00271710*
G03X00280484Y00271427I00000400J-00000000*
G01X00281886Y00272828*
X00284714Y00274000D02*
G03X00281886Y00272828I00000000J-00004000D01*
G01X00284714Y00274000D02*
X00301000D01*
X00302267*
G03X00302573Y00274143I-00000000J00000400*
G01X00305617Y00276155D02*
G03X00302573Y00274143I00001883J-00006155D01*
G01X00305617Y00276155D02*
G03X00305900Y00276538I-00000117J00000383D01*
G01Y00283600*
G03X00305500Y00284000I-00000400J-00000000*
G01X00299000*
X00297707Y00284360D02*
G03X00299000Y00284000I00001293J00002140D01*
G01X00297707Y00284360D02*
G03X00297293I-00000207J-00000342D01*
G01X00296000Y00284000D02*
G03X00297293Y00284360I00000000J00002500D01*
G01X00296000Y00284000D02*
X00289000D01*
X00286500Y00286500D02*
G03X00289000Y00284000I00002500J00000000D01*
G01X00286500Y00286500D02*
Y00293500D01*
X00289000Y00296000D02*
G03X00286500Y00293500I00000000J-00002500D01*
G01X00289000Y00296000D02*
X00296000D01*
X00297293Y00295640D02*
G03X00296000Y00296000I-00001293J-00002140D01*
G01X00297293Y00295640D02*
G03X00297707I00000207J00000342D01*
G01X00299000Y00296000D02*
G03X00297707Y00295640I00000000J-00002500D01*
G01X00299000Y00296000D02*
X00306000D01*
X00307889Y00295138D02*
G03X00306000Y00296000I-00001889J-00001638D01*
G01X00307889Y00295138D02*
G03X00308191Y00295000I00000302J00000262D01*
G01X00310900*
X00315900Y00290000D02*
G03X00310900Y00295000I-00005000J00000000D01*
G01X00315900Y00290000D02*
Y00273400D01*
X00314436Y00269864D02*
G03X00315900Y00273400I-00003536J00003536D01*
G01X00314436Y00269864D02*
X00314001Y00269430D01*
G03X00313887Y00269197I00000283J-00000283*
G01X00310407Y00264257D02*
G03X00313887Y00269197I-00002907J00005743D01*
G01X00310407Y00264257D02*
G03X00310588Y00263500I00000181J-00000357D01*
G01X00313500*
X00316000Y00261000D02*
G03X00313500Y00263500I-00002500J00000000D01*
G01X00316000Y00261000D02*
Y00260953D01*
G03X00316545Y00260580I00000400J00000000*
G01X00317450Y00260750D02*
G03X00316545Y00260580I00000000J-00002500D01*
G01X00317450Y00260750D02*
X00322550D01*
X00325050Y00258250D02*
G03X00322550Y00260750I-00002500J00000000D01*
G01X00325050Y00258250D02*
Y00254350D01*
X00324475Y00252755D02*
G03X00325050Y00254350I-00001925J00001595D01*
G01X00324475Y00252755D02*
G03Y00252245I00000308J-00000255D01*
G01X00325050Y00250650D02*
G03X00324475Y00252245I-00002500J00000000D01*
G01X00325050Y00250650D02*
Y00246750D01*
X00324969Y00246119D02*
G03X00325050Y00246750I-00002419J00000631D01*
G01X00324969Y00246119D02*
G03X00325124Y00245692I00000387J-00000101D01*
G01X00327652Y00239499D02*
G03X00325124Y00245692I-00006152J00001101D01*
G01X00327652Y00239499D02*
G03X00327763Y00239145I00000394J-00000071D01*
G01X00330404Y00236504*
X00331400Y00234100D02*
G03X00330404Y00236504I-00003400J00000000D01*
G01X00331400Y00234100D02*
Y00210000D01*
X00330404Y00207596D02*
G03X00331400Y00210000I-00002404J00002404D01*
G01X00330404Y00207596D02*
X00318404Y00195596D01*
X00317253Y00194839D02*
G03X00318404Y00195596I-00001253J00003161D01*
G01X00317253Y00194839D02*
G03X00317000Y00194467I00000147J-00000372D01*
G01Y00193900*
G03X00317400Y00193500I00000400J00000000*
G01X00323250*
X00325145Y00192631D02*
G03X00323250Y00193500I-00001895J-00001631D01*
G01X00325145Y00192631D02*
G03X00325628Y00192534I00000303J00000260D01*
G01X00326750Y00192800D02*
G03X00325628Y00192534I00000000J-00002500D01*
G01X00326750Y00192800D02*
X00330650D01*
X00333150Y00190300D02*
G03X00330650Y00192800I-00002500J00000000D01*
G01X00344750Y00215400D02*
G03X00344750I-00006250J0D01*
G01X00205900Y00227599D02*
X00215900D01*
X00205900Y00231199D02*
X00215900D01*
X00205900Y00230299D02*
X00215900D01*
X00205900Y00229399D02*
X00215900D01*
X00205900Y00228499D02*
X00215900D01*
X00205954Y00226699D02*
X00215879D01*
X00205900Y00232099D02*
X00215856D01*
X00205900Y00232999D02*
X00214983D01*
X00205900Y00233899D02*
X00214083D01*
X00205753Y00234799D02*
X00213183D01*
X00191436Y00235699D02*
X00212283D01*
X00190536Y00236599D02*
X00211383D01*
X00189636Y00237499D02*
X00210483D01*
X00188736Y00238399D02*
X00209583D01*
X00187836Y00239299D02*
X00208683D01*
X00186936Y00240199D02*
X00207783D01*
X00186500Y00241099D02*
X00206883D01*
X00186500Y00241999D02*
X00205983D01*
X00186500Y00242899D02*
X00205083D01*
X00186500Y00243799D02*
X00204183D01*
X00186487Y00244699D02*
X00203283D01*
X00186287Y00245599D02*
X00202383D01*
X00185798Y00246499D02*
X00201483D01*
X00192336Y00234799D02*
X00200611D01*
X00184947Y00247399D02*
X00200583D01*
X00193236Y00233899D02*
X00200464D01*
X00194136Y00232999D02*
X00200464D01*
X00195036Y00232099D02*
X00200464D01*
X00195936Y00231199D02*
X00200464D01*
X00196836Y00230299D02*
X00200464D01*
X00197736Y00229399D02*
X00200464D01*
X00198636Y00228499D02*
X00200464D01*
X00199536Y00227599D02*
X00200462D01*
X00184047Y00248299D02*
X00199683D01*
X00183147Y00249199D02*
X00198783D01*
X00182247Y00250099D02*
X00197883D01*
X00181347Y00250999D02*
X00196983D01*
X00180447Y00251899D02*
X00196083D01*
X00179547Y00252799D02*
X00195183D01*
X00178647Y00253699D02*
X00194283D01*
X00177747Y00254599D02*
X00193383D01*
X00176847Y00255499D02*
X00192483D01*
X00175947Y00256399D02*
X00191583D01*
X00175047Y00257299D02*
X00190683D01*
X00174147Y00258199D02*
X00189783D01*
X00173247Y00259099D02*
X00188883D01*
X00177097Y00259999D02*
X00187983D01*
X00178777Y00260899D02*
X00187083D01*
X00179661Y00261799D02*
X00186183D01*
X00180219Y00262699D02*
X00185283D01*
X00180560Y00263599D02*
X00184383D01*
X00180726Y00264499D02*
X00183483D01*
X00180735Y00265399D02*
X00182583D01*
X00180587Y00266299D02*
X00181683D01*
X00172559Y00259999D02*
X00173903D01*
X00218552Y00223999D02*
X00234462D01*
X00218467Y00223099D02*
X00234203D01*
X00218378Y00222199D02*
X00234150D01*
X00218186Y00221299D02*
X00234150D01*
X00218434Y00220399D02*
X00234150D01*
X00218446Y00219499D02*
X00234150D01*
X00218225Y00218599D02*
X00234150D01*
X00218355Y00217699D02*
X00234150D01*
X00218469Y00216799D02*
X00234150D01*
X00218354Y00215899D02*
X00234150D01*
X00218226Y00214999D02*
X00234150D01*
X00218446Y00214099D02*
X00234150D01*
X00218433Y00213199D02*
X00234150D01*
X00218185Y00212299D02*
X00234150D01*
X00218379Y00211399D02*
X00234150D01*
X00218467Y00210499D02*
X00234150D01*
X00218326Y00209599D02*
X00234150D01*
X00218263Y00208699D02*
X00234150D01*
X00218456Y00207799D02*
X00234150D01*
X00218418Y00206899D02*
X00234150D01*
X00218159Y00205999D02*
X00234150D01*
X00218400Y00205099D02*
X00234150D01*
X00218463Y00204199D02*
X00234150D01*
X00218296Y00203299D02*
X00234150D01*
X00218297Y00202399D02*
X00234150D01*
X00218463Y00201499D02*
X00234150D01*
X00218400Y00200599D02*
X00234150D01*
X00218159Y00199699D02*
X00234150D01*
X00218418Y00198799D02*
X00234150D01*
X00218456Y00197899D02*
X00234150D01*
X00218262Y00196999D02*
X00234150D01*
X00218327Y00196099D02*
X00234150D01*
X00218467Y00195199D02*
X00234150D01*
X00218378Y00194299D02*
X00233490D01*
X00218186Y00193399D02*
X00232590D01*
X00218434Y00192499D02*
X00231948D01*
X00218446Y00191599D02*
X00231653D01*
X00230167Y00190699D02*
X00231600D01*
X00227067D02*
X00227433D01*
X00223967D02*
X00224333D01*
X00220867D02*
X00221233D01*
X00113500Y00305899D02*
X00346500D01*
X00113500Y00304999D02*
X00346500D01*
X00113500Y00304099D02*
X00346500D01*
X00160568Y00303199D02*
X00346500D01*
X00162779Y00302299D02*
X00346500D01*
X00164185Y00301399D02*
X00346500D01*
X00281567Y00300499D02*
X00346500D01*
X00282145Y00299599D02*
X00346500D01*
X00282301Y00298699D02*
X00346500D01*
X00282301Y00297799D02*
X00346500D01*
X00282301Y00296899D02*
X00346500D01*
X00306082Y00295999D02*
X00346500D01*
X00307928Y00295099D02*
X00346500D01*
X00313615Y00294199D02*
X00346500D01*
X00314658Y00293299D02*
X00346500D01*
X00315287Y00292399D02*
X00346500D01*
X00315670Y00291499D02*
X00346500D01*
X00315864Y00290599D02*
X00346500D01*
X00315900Y00289699D02*
X00346500D01*
X00315900Y00288799D02*
X00346500D01*
X00315900Y00287899D02*
X00346500D01*
X00315900Y00286999D02*
X00346500D01*
X00315900Y00286099D02*
X00346500D01*
X00315900Y00285199D02*
X00346500D01*
X00315900Y00284299D02*
X00346500D01*
X00315900Y00283399D02*
X00346500D01*
X00315900Y00282499D02*
X00346500D01*
X00315900Y00281599D02*
X00346500D01*
X00315900Y00280699D02*
X00346500D01*
X00315900Y00279799D02*
X00346500D01*
X00315900Y00278899D02*
X00346500D01*
X00315900Y00277999D02*
X00346500D01*
X00315900Y00277099D02*
X00346500D01*
X00315900Y00276199D02*
X00346500D01*
X00315900Y00275299D02*
X00346500D01*
X00315900Y00274399D02*
X00346500D01*
X00315900Y00273499D02*
X00346500D01*
X00315835Y00272599D02*
X00346500D01*
X00315602Y00271699D02*
X00346500D01*
X00315170Y00270799D02*
X00346500D01*
X00314469Y00269899D02*
X00346500D01*
X00313859Y00268999D02*
X00346500D01*
X00313650Y00268099D02*
X00346500D01*
X00313296Y00267199D02*
X00346500D01*
X00312766Y00266299D02*
X00346500D01*
X00312001Y00265399D02*
X00346500D01*
X00310842Y00264499D02*
X00346500D01*
X00310325Y00263599D02*
X00346500D01*
X00315334Y00262699D02*
X00346500D01*
X00315869Y00261799D02*
X00346500D01*
X00316004Y00260899D02*
X00346500D01*
X00324337Y00259999D02*
X00346500D01*
X00324902Y00259099D02*
X00346500D01*
X00325050Y00258199D02*
X00346500D01*
X00325050Y00257299D02*
X00346500D01*
X00325050Y00256399D02*
X00346500D01*
X00325050Y00255499D02*
X00346500D01*
X00325050Y00254599D02*
X00346500D01*
X00324964Y00253699D02*
X00346500D01*
X00324510Y00252799D02*
X00346500D01*
X00324716Y00251899D02*
X00346500D01*
X00325026Y00250999D02*
X00346500D01*
X00325050Y00250099D02*
X00346500D01*
X00325050Y00249199D02*
X00346500D01*
X00325050Y00248299D02*
X00346500D01*
X00325050Y00247399D02*
X00346500D01*
X00325037Y00246499D02*
X00346500D01*
X00325252Y00245599D02*
X00346500D01*
X00326218Y00244699D02*
X00346500D01*
X00326869Y00243799D02*
X00346500D01*
X00327312Y00242899D02*
X00346500D01*
X00327592Y00241999D02*
X00346500D01*
X00327730Y00241099D02*
X00346500D01*
X00327737Y00240199D02*
X00346500D01*
X00327667Y00239299D02*
X00346500D01*
X00328510Y00238399D02*
X00346500D01*
X00329410Y00237499D02*
X00346500D01*
X00330310Y00236599D02*
X00346500D01*
X00331001Y00235699D02*
X00346500D01*
X00331327Y00234799D02*
X00346500D01*
X00331400Y00233899D02*
X00346500D01*
X00331400Y00232999D02*
X00346500D01*
X00331400Y00232099D02*
X00346500D01*
X00331400Y00231199D02*
X00346500D01*
X00331400Y00230299D02*
X00346500D01*
X00331400Y00229399D02*
X00346500D01*
X00331400Y00228499D02*
X00346500D01*
X00331400Y00227599D02*
X00346500D01*
X00331400Y00226699D02*
X00346500D01*
X00331400Y00225799D02*
X00346500D01*
X00331400Y00224899D02*
X00346500D01*
X00331400Y00223999D02*
X00346500D01*
X00331400Y00223099D02*
X00346500D01*
X00331400Y00222199D02*
X00346500D01*
X00340566Y00221299D02*
X00346500D01*
X00342252Y00220399D02*
X00346500D01*
X00343218Y00219499D02*
X00346500D01*
X00343869Y00218599D02*
X00346500D01*
X00344312Y00217699D02*
X00346500D01*
X00344592Y00216799D02*
X00346500D01*
X00344730Y00215899D02*
X00346500D01*
X00344737Y00214999D02*
X00346500D01*
X00344613Y00214099D02*
X00346500D01*
X00344350Y00213199D02*
X00346500D01*
X00343926Y00212299D02*
X00346500D01*
X00343301Y00211399D02*
X00346500D01*
X00342378Y00210499D02*
X00346500D01*
X00340825Y00209599D02*
X00346500D01*
X00331141Y00208699D02*
X00346500D01*
X00330591Y00207799D02*
X00346500D01*
X00329707Y00206899D02*
X00346500D01*
X00328807Y00205999D02*
X00346500D01*
X00327907Y00205099D02*
X00346500D01*
X00327007Y00204199D02*
X00346500D01*
X00326107Y00203299D02*
X00346500D01*
X00325207Y00202399D02*
X00346500D01*
X00324307Y00201499D02*
X00346500D01*
X00315386Y00135799D02*
X00346500D01*
X00315718Y00134899D02*
X00346500D01*
X00315750Y00133999D02*
X00346500D01*
X00315750Y00133099D02*
X00346500D01*
X00315750Y00132199D02*
X00346500D01*
X00315750Y00131299D02*
X00346500D01*
X00315750Y00130399D02*
X00346500D01*
X00315750Y00129499D02*
X00346500D01*
X00315750Y00128599D02*
X00346500D01*
X00315750Y00127699D02*
X00346500D01*
X00315650Y00126799D02*
X00346500D01*
X00315345Y00125899D02*
X00346500D01*
X00315700Y00124999D02*
X00346500D01*
X00315750Y00124099D02*
X00346500D01*
X00315750Y00123199D02*
X00346500D01*
X00315750Y00122299D02*
X00346500D01*
X00315750Y00121399D02*
X00346500D01*
X00315750Y00120499D02*
X00346500D01*
X00315750Y00119599D02*
X00346500D01*
X00315750Y00118699D02*
X00346500D01*
X00315750Y00117799D02*
X00346500D01*
X00315677Y00116899D02*
X00346500D01*
X00315249Y00115999D02*
X00346500D01*
X00313946Y00115099D02*
X00346500D01*
X00113500Y00114199D02*
X00346500D01*
X00315618Y00136699D02*
X00346457D01*
X00323407Y00200599D02*
X00338948D01*
X00315750Y00137599D02*
X00338594D01*
X00322507Y00199699D02*
X00338380D01*
X00321607Y00198799D02*
X00338350D01*
X00320707Y00197899D02*
X00338350D01*
X00319807Y00196999D02*
X00338350D01*
X00318907Y00196099D02*
X00338350D01*
X00317927Y00195199D02*
X00338350D01*
X00317000Y00194299D02*
X00338350D01*
X00323955Y00193399D02*
X00338350D01*
X00331840Y00192499D02*
X00338350D01*
X00332786Y00191599D02*
X00338350D01*
X00333118Y00190699D02*
X00338350D01*
X00333150Y00189799D02*
X00338350D01*
X00333150Y00188899D02*
X00338350D01*
X00333150Y00187999D02*
X00338350D01*
X00333150Y00187099D02*
X00338350D01*
X00333150Y00186199D02*
X00338350D01*
X00333150Y00185299D02*
X00338350D01*
X00333132Y00184399D02*
X00338350D01*
X00332842Y00183499D02*
X00338350D01*
X00332004Y00182599D02*
X00338350D01*
X00324227Y00181699D02*
X00338350D01*
X00317000Y00180799D02*
X00338350D01*
X00317000Y00179899D02*
X00338350D01*
X00317000Y00178999D02*
X00338350D01*
X00317000Y00178099D02*
X00338350D01*
X00317000Y00177199D02*
X00338350D01*
X00317000Y00176299D02*
X00338350D01*
X00317000Y00175399D02*
X00338350D01*
X00317000Y00174499D02*
X00338350D01*
X00317000Y00173599D02*
X00338350D01*
X00317000Y00172699D02*
X00338350D01*
X00317000Y00171799D02*
X00338350D01*
X00317000Y00170899D02*
X00338350D01*
X00317000Y00169999D02*
X00338350D01*
X00317000Y00169099D02*
X00338350D01*
X00324440Y00168199D02*
X00338350D01*
X00332152Y00167299D02*
X00338350D01*
X00332896Y00166399D02*
X00338350D01*
X00333142Y00165499D02*
X00338350D01*
X00333150Y00164599D02*
X00338350D01*
X00333150Y00163699D02*
X00338350D01*
X00333150Y00162799D02*
X00338350D01*
X00333150Y00161899D02*
X00338350D01*
X00333150Y00160999D02*
X00338350D01*
X00333150Y00160099D02*
X00338350D01*
X00333099Y00159199D02*
X00338350D01*
X00332720Y00158299D02*
X00338350D01*
X00331627Y00157399D02*
X00338350D01*
X00325700Y00156499D02*
X00338350D01*
X00325750Y00155599D02*
X00338350D01*
X00325750Y00154699D02*
X00338350D01*
X00325750Y00153799D02*
X00338350D01*
X00325750Y00152899D02*
X00338350D01*
X00325750Y00151999D02*
X00338350D01*
X00325750Y00151099D02*
X00338350D01*
X00325750Y00150199D02*
X00338350D01*
X00325750Y00149299D02*
X00338350D01*
X00325677Y00148399D02*
X00338350D01*
X00325249Y00147499D02*
X00338350D01*
X00323946Y00146599D02*
X00338350D01*
X00318023Y00145699D02*
X00338350D01*
X00317107Y00144799D02*
X00338350D01*
X00315853Y00143899D02*
X00338350D01*
X00315750Y00142999D02*
X00338350D01*
X00315750Y00142099D02*
X00338350D01*
X00315750Y00141199D02*
X00338350D01*
X00315750Y00140299D02*
X00338350D01*
X00315750Y00139399D02*
X00338350D01*
X00315750Y00138499D02*
X00338350D01*
X00331400Y00221299D02*
X00336434D01*
X00331376Y00209599D02*
X00336175D01*
X00331400Y00220399D02*
X00334748D01*
X00331400Y00210499D02*
X00334622D01*
X00331400Y00219499D02*
X00333782D01*
X00331400Y00211399D02*
X00333699D01*
X00331400Y00218599D02*
X00333131D01*
X00331400Y00212299D02*
X00333074D01*
X00331400Y00217699D02*
X00332688D01*
X00331400Y00213199D02*
X00332650D01*
X00331400Y00216799D02*
X00332408D01*
X00331400Y00214099D02*
X00332387D01*
X00331400Y00215899D02*
X00332270D01*
X00331400Y00214999D02*
X00332263D01*
X00325373Y00192499D02*
X00325524D01*
X00293946Y00115099D02*
X00306054D01*
X00282301Y00283399D02*
X00305900D01*
X00282301Y00282499D02*
X00305900D01*
X00282220Y00281599D02*
X00305900D01*
X00281778Y00280699D02*
X00305900D01*
X00280387Y00279799D02*
X00305900D01*
X00279801Y00278899D02*
X00305900D01*
X00279801Y00277999D02*
X00305900D01*
X00279801Y00277099D02*
X00305900D01*
X00279801Y00276199D02*
X00305712D01*
X00279801Y00275299D02*
X00303845D01*
X00279801Y00274399D02*
X00302800D01*
X00299335Y00115999D02*
X00300665D01*
X00296082Y00295999D02*
X00298918D01*
X00297185Y00284299D02*
X00297815D01*
X00282301Y00295999D02*
X00288918D01*
X00282301Y00284299D02*
X00287815D01*
X00282301Y00295099D02*
X00287078D01*
X00282301Y00285199D02*
X00286865D01*
X00282301Y00294199D02*
X00286600D01*
X00282301Y00286099D02*
X00286532D01*
X00282301Y00293299D02*
X00286500D01*
X00282301Y00292399D02*
X00286500D01*
X00282192Y00291499D02*
X00286500D01*
X00281732Y00290599D02*
X00286500D01*
X00282105Y00289699D02*
X00286500D01*
X00282300Y00288799D02*
X00286500D01*
X00282301Y00287899D02*
X00286500D01*
X00282301Y00286999D02*
X00286500D01*
X00113500Y00115099D02*
X00286054D01*
X00113500Y00115999D02*
X00284751D01*
X00281000Y00125899D02*
X00284655D01*
X00281000Y00135799D02*
X00284614D01*
X00278400Y00145699D02*
X00284556D01*
X00281000Y00136699D02*
X00284382D01*
X00281000Y00126799D02*
X00284350D01*
X00186342Y00116899D02*
X00284323D01*
X00281000Y00124999D02*
X00284300D01*
X00281000Y00134899D02*
X00284282D01*
X00278400Y00144799D02*
X00284268D01*
X00278400Y00143899D02*
X00284250D01*
X00278400Y00142999D02*
X00284250D01*
X00278400Y00142099D02*
X00284250D01*
X00278400Y00141199D02*
X00284250D01*
X00279933Y00140299D02*
X00284250D01*
X00280721Y00139399D02*
X00284250D01*
X00280988Y00138499D02*
X00284250D01*
X00281000Y00137599D02*
X00284250D01*
X00281000Y00133999D02*
X00284250D01*
X00281000Y00133099D02*
X00284250D01*
X00281000Y00132199D02*
X00284250D01*
X00280959Y00131299D02*
X00284250D01*
X00280603Y00130399D02*
X00284250D01*
X00280666Y00129499D02*
X00284250D01*
X00280976Y00128599D02*
X00284250D01*
X00281000Y00127699D02*
X00284250D01*
X00281000Y00124099D02*
X00284250D01*
X00281000Y00123199D02*
X00284250D01*
X00281000Y00122299D02*
X00284250D01*
X00280975Y00121399D02*
X00284250D01*
X00280664Y00120499D02*
X00284250D01*
X00279774Y00119599D02*
X00284250D01*
X00188001Y00118699D02*
X00284250D01*
X00187248Y00117799D02*
X00284250D01*
X00278400Y00146599D02*
X00284156D01*
X00278400Y00147499D02*
X00283256D01*
X00279801Y00273499D02*
X00282775D01*
X00278400Y00148399D02*
X00282356D01*
X00279801Y00272599D02*
X00281656D01*
X00278400Y00149299D02*
X00281456D01*
X00279801Y00271699D02*
X00280756D01*
X00278400Y00150199D02*
X00280556D01*
X00278400Y00151099D02*
X00279656D01*
X00269774Y00119599D02*
X00270226D01*
X00259774D02*
X00260226D01*
X00249774D02*
X00250226D01*
X00239774D02*
X00240226D01*
X00219801Y00260899D02*
X00233900D01*
X00219801Y00259999D02*
X00233900D01*
X00219801Y00259099D02*
X00233698D01*
X00219801Y00261799D02*
X00233488D01*
X00232054Y00244699D02*
X00233437D01*
X00231154Y00245599D02*
X00233378D01*
X00219801Y00258199D02*
X00233375D01*
X00219801Y00257299D02*
X00233300D01*
X00220354Y00256399D02*
X00233300D01*
X00221254Y00255499D02*
X00233300D01*
X00233015Y00243799D02*
X00233265D01*
X00219801Y00262699D02*
X00232840D01*
X00222154Y00254599D02*
X00232714D01*
X00230254Y00246499D02*
X00232658D01*
X00219801Y00263599D02*
X00232433D01*
X00223054Y00253699D02*
X00232382D01*
X00229354Y00247399D02*
X00232368D01*
X00223954Y00252799D02*
X00232350D01*
X00224854Y00251899D02*
X00232350D01*
X00225754Y00250999D02*
X00232350D01*
X00226654Y00250099D02*
X00232350D01*
X00227554Y00249199D02*
X00232350D01*
X00228454Y00248299D02*
X00232350D01*
X00219801Y00267199D02*
X00232246D01*
X00219801Y00266299D02*
X00232246D01*
X00219801Y00264499D02*
X00232211D01*
X00219801Y00265399D02*
X00232151D01*
X00219801Y00268099D02*
X00231595D01*
X00220387Y00279799D02*
X00231501D01*
X00230165Y00174499D02*
X00231400D01*
X00229265Y00173599D02*
X00231400D01*
X00219686Y00162799D02*
X00231400D01*
X00219650Y00161899D02*
X00231400D01*
X00219650Y00160999D02*
X00231400D01*
X00219650Y00160099D02*
X00231400D01*
X00219650Y00159199D02*
X00231400D01*
X00219801Y00268999D02*
X00231397D01*
X00219801Y00278899D02*
X00231396D01*
X00219801Y00277999D02*
X00231396D01*
X00219801Y00277099D02*
X00231396D01*
X00219801Y00276199D02*
X00231396D01*
X00219801Y00275299D02*
X00231396D01*
X00219801Y00274399D02*
X00231396D01*
X00219801Y00273499D02*
X00231396D01*
X00219801Y00272599D02*
X00231396D01*
X00219801Y00271699D02*
X00231396D01*
X00219801Y00270799D02*
X00231396D01*
X00219801Y00269899D02*
X00231396D01*
X00222668Y00163699D02*
X00231326D01*
X00221567Y00300499D02*
X00231035D01*
X00219650Y00158299D02*
X00230890D01*
X00221732Y00290599D02*
X00230870D01*
X00221778Y00280699D02*
X00230824D01*
X00228365Y00172699D02*
X00230778D01*
X00223936Y00164599D02*
X00230606D01*
X00222105Y00289699D02*
X00230497D01*
X00222145Y00299599D02*
X00230457D01*
X00222192Y00291499D02*
X00230410D01*
X00227465Y00171799D02*
X00230400D01*
X00222220Y00281599D02*
X00230382D01*
X00224730Y00165499D02*
X00230358D01*
X00226565Y00170899D02*
X00230350D01*
X00225789Y00169999D02*
X00230350D01*
X00225857Y00169099D02*
X00230350D01*
X00225804Y00168199D02*
X00230350D01*
X00225612Y00167299D02*
X00230350D01*
X00225265Y00166399D02*
X00230350D01*
X00222300Y00288799D02*
X00230302D01*
X00222301Y00298699D02*
X00230301D01*
X00222301Y00297799D02*
X00230301D01*
X00222301Y00296899D02*
X00230301D01*
X00222301Y00295999D02*
X00230301D01*
X00222301Y00295099D02*
X00230301D01*
X00222301Y00294199D02*
X00230301D01*
X00222301Y00293299D02*
X00230301D01*
X00222301Y00292399D02*
X00230301D01*
X00222301Y00287899D02*
X00230301D01*
X00222301Y00286999D02*
X00230301D01*
X00222301Y00286099D02*
X00230301D01*
X00222301Y00285199D02*
X00230301D01*
X00222301Y00284299D02*
X00230301D01*
X00222301Y00283399D02*
X00230301D01*
X00222301Y00282499D02*
X00230301D01*
X00229774Y00119599D02*
X00230226D01*
X00219650Y00157399D02*
X00229990D01*
X00219642Y00156499D02*
X00229090D01*
X00219394Y00155599D02*
X00228225D01*
X00218648Y00154699D02*
X00227718D01*
X00217000Y00153799D02*
X00227513D01*
X00217000Y00152899D02*
X00227500D01*
X00217000Y00151999D02*
X00227500D01*
X00217000Y00151099D02*
X00227500D01*
X00217000Y00150199D02*
X00227500D01*
X00217000Y00149299D02*
X00227500D01*
X00217000Y00148399D02*
X00227500D01*
X00217000Y00147499D02*
X00227500D01*
X00217000Y00146599D02*
X00227500D01*
X00217000Y00145699D02*
X00227500D01*
X00217100Y00144799D02*
X00227500D01*
X00217291Y00143899D02*
X00227500D01*
X00217237Y00142999D02*
X00227500D01*
X00216925Y00142099D02*
X00227480D01*
X00216257Y00141199D02*
X00226640D01*
X00209774Y00119599D02*
X00220226D01*
X00215357Y00140299D02*
X00220067D01*
X00210603Y00130399D02*
X00219397D01*
X00210664Y00120499D02*
X00219336D01*
X00210666Y00129499D02*
X00219334D01*
X00214457Y00139399D02*
X00219279D01*
X00210959Y00131299D02*
X00219041D01*
X00210975Y00121399D02*
X00219025D01*
X00210976Y00128599D02*
X00219024D01*
X00213557Y00138499D02*
X00219012D01*
X00212657Y00137599D02*
X00219000D01*
X00211757Y00136699D02*
X00219000D01*
X00211001Y00135799D02*
X00219000D01*
X00211000Y00134899D02*
X00219000D01*
X00211000Y00133999D02*
X00219000D01*
X00211000Y00133099D02*
X00219000D01*
X00211000Y00132199D02*
X00219000D01*
X00211000Y00127699D02*
X00219000D01*
X00211000Y00126799D02*
X00219000D01*
X00211000Y00125899D02*
X00219000D01*
X00211000Y00124999D02*
X00219000D01*
X00211000Y00124099D02*
X00219000D01*
X00211000Y00123199D02*
X00219000D01*
X00211000Y00122299D02*
X00219000D01*
X00199774Y00119599D02*
X00200226D01*
X00189774D02*
X00190226D01*
X00174562Y00270799D02*
X00177183D01*
X00165219Y00271699D02*
X00176283D01*
X00165813Y00272599D02*
X00175383D01*
X00166534Y00273499D02*
X00174484D01*
X00167118Y00274399D02*
X00173605D01*
X00167588Y00275299D02*
X00173064D01*
X00167961Y00276199D02*
X00172828D01*
X00168575Y00278899D02*
X00172801D01*
X00168449Y00277999D02*
X00172801D01*
X00168245Y00277099D02*
X00172801D01*
X00168628Y00279799D02*
X00172215D01*
X00165239Y00300499D02*
X00171035D01*
X00168466Y00290599D02*
X00170870D01*
X00168608Y00280699D02*
X00170824D01*
X00168272Y00289699D02*
X00170497D01*
X00166072Y00299599D02*
X00170457D01*
X00168585Y00291499D02*
X00170410D01*
X00168515Y00281599D02*
X00170382D01*
X00167997Y00288799D02*
X00170302D01*
X00166744Y00298699D02*
X00170301D01*
X00167288Y00297799D02*
X00170301D01*
X00167724Y00296899D02*
X00170301D01*
X00168066Y00295999D02*
X00170301D01*
X00168322Y00295099D02*
X00170301D01*
X00168500Y00294199D02*
X00170301D01*
X00168601Y00293299D02*
X00170301D01*
X00168630Y00292399D02*
X00170301D01*
X00167634Y00287899D02*
X00170301D01*
X00167175Y00286999D02*
X00170301D01*
X00166819Y00286099D02*
X00170301D01*
X00167341Y00285199D02*
X00170301D01*
X00167766Y00284299D02*
X00170301D01*
X00168098Y00283399D02*
X00170301D01*
X00168346Y00282499D02*
X00170301D01*
X00113500Y00116899D02*
X00162658D01*
X00113500Y00117799D02*
X00161752D01*
X00113500Y00118699D02*
X00160886D01*
X00113500Y00119599D02*
X00160371D01*
X00113500Y00120499D02*
X00160153D01*
X00113500Y00121399D02*
X00160134D01*
X00158330Y00122299D02*
X00158938D01*
X00113500Y00303199D02*
X00154432D01*
X00146297Y00150199D02*
X00152649D01*
X00113500Y00302299D02*
X00152221D01*
X00143073Y00151099D02*
X00151939D01*
X00143887Y00151999D02*
X00151039D01*
X00113500Y00301399D02*
X00150815D01*
X00113500Y00176299D02*
X00150778D01*
X00113500Y00186199D02*
X00150721D01*
X00113500Y00187099D02*
X00150572D01*
X00113500Y00177199D02*
X00150536D01*
X00113500Y00175399D02*
X00150442D01*
X00113500Y00185299D02*
X00150427D01*
X00113500Y00191599D02*
X00150408D01*
X00113500Y00190699D02*
X00150408D01*
X00113500Y00189799D02*
X00150408D01*
X00113500Y00188899D02*
X00150408D01*
X00113500Y00187999D02*
X00150408D01*
X00113500Y00184399D02*
X00150408D01*
X00113500Y00183499D02*
X00150408D01*
X00113500Y00182599D02*
X00150408D01*
X00113500Y00181699D02*
X00150408D01*
X00113500Y00180799D02*
X00150408D01*
X00113500Y00179899D02*
X00150408D01*
X00113500Y00178999D02*
X00150408D01*
X00113500Y00178099D02*
X00150408D01*
X00113500Y00174499D02*
X00150408D01*
X00113500Y00173599D02*
X00150408D01*
X00113500Y00172699D02*
X00150408D01*
X00113500Y00171799D02*
X00150408D01*
X00113500Y00170899D02*
X00150408D01*
X00113500Y00192499D02*
X00150198D01*
X00144903Y00152899D02*
X00150139D01*
X00113500Y00169999D02*
X00149969D01*
X00148150Y00271699D02*
X00149788D01*
X00113500Y00300499D02*
X00149761D01*
X00113500Y00193399D02*
X00149298D01*
X00145259Y00153799D02*
X00149239D01*
X00147672Y00272599D02*
X00149187D01*
X00147219Y00149299D02*
X00149134D01*
X00113500Y00169099D02*
X00149069D01*
X00113500Y00122299D02*
X00148938D01*
X00113500Y00299599D02*
X00148928D01*
X00145832Y00273499D02*
X00148466D01*
X00144339Y00194299D02*
X00148398D01*
X00145300Y00154699D02*
X00148342D01*
X00113500Y00298699D02*
X00148256D01*
X00113500Y00168199D02*
X00148195D01*
X00113500Y00286099D02*
X00148181D01*
X00113500Y00123199D02*
X00148159D01*
X00113500Y00124099D02*
X00147895D01*
X00113500Y00128599D02*
X00147884D01*
X00113500Y00127699D02*
X00147884D01*
X00113500Y00126799D02*
X00147884D01*
X00113500Y00125899D02*
X00147884D01*
X00113500Y00124999D02*
X00147884D01*
X00113500Y00274399D02*
X00147882D01*
X00113500Y00286999D02*
X00147825D01*
X00145300Y00155599D02*
X00147736D01*
X00113500Y00297799D02*
X00147712D01*
X00113500Y00167299D02*
X00147663D01*
X00113500Y00285199D02*
X00147659D01*
X00144962Y00195199D02*
X00147498D01*
X00145300Y00156499D02*
X00147456D01*
X00113500Y00166399D02*
X00147432D01*
X00113500Y00275299D02*
X00147412D01*
X00113500Y00165499D02*
X00147408D01*
X00113500Y00164599D02*
X00147408D01*
X00113500Y00163699D02*
X00147408D01*
X00113500Y00162799D02*
X00147408D01*
X00113500Y00161899D02*
X00147408D01*
X00113500Y00160999D02*
X00147408D01*
X00144366Y00160099D02*
X00147408D01*
X00145069Y00159199D02*
X00147408D01*
X00145296Y00158299D02*
X00147408D01*
X00145300Y00157399D02*
X00147408D01*
X00113500Y00287899D02*
X00147366D01*
X00113500Y00296899D02*
X00147276D01*
X00113500Y00129499D02*
X00147274D01*
X00113500Y00284299D02*
X00147234D01*
X00113500Y00276199D02*
X00147039D01*
X00113500Y00288799D02*
X00147003D01*
X00113500Y00295999D02*
X00146934D01*
X00113500Y00283399D02*
X00146902D01*
X00113500Y00277099D02*
X00146755D01*
X00113500Y00289699D02*
X00146728D01*
X00113500Y00295099D02*
X00146678D01*
X00113500Y00282499D02*
X00146654D01*
X00145347Y00196099D02*
X00146565D01*
X00113500Y00277999D02*
X00146551D01*
X00113500Y00290599D02*
X00146534D01*
X00113500Y00294199D02*
X00146500D01*
X00113500Y00281599D02*
X00146485D01*
X00113500Y00278899D02*
X00146425D01*
X00113500Y00291499D02*
X00146415D01*
X00113500Y00293299D02*
X00146399D01*
X00113500Y00280699D02*
X00146392D01*
X00113500Y00130399D02*
X00146374D01*
X00113500Y00279799D02*
X00146372D01*
X00113500Y00292399D02*
X00146370D01*
X00113500Y00131299D02*
X00145474D01*
X00113500Y00132199D02*
X00144574D01*
X00113500Y00133099D02*
X00143674D01*
X00113500Y00133999D02*
X00142774D01*
X00113500Y00134899D02*
X00141874D01*
X00113500Y00135799D02*
X00140974D01*
X00113500Y00136699D02*
X00140074D01*
X00113500Y00137599D02*
X00139174D01*
X00125832Y00273499D02*
X00139168D01*
X00113500Y00138499D02*
X00138274D01*
X00127705Y00272599D02*
X00137295D01*
X00134366Y00160099D02*
X00135634D01*
X00113500Y00139399D02*
X00134899D01*
X00113500Y00140299D02*
X00133852D01*
X00113500Y00141199D02*
X00132952D01*
X00113500Y00142099D02*
X00132052D01*
X00113500Y00142999D02*
X00128898D01*
X00113500Y00143899D02*
X00127780D01*
X00113500Y00151099D02*
X00127545D01*
X00113500Y00144799D02*
X00127098D01*
X00113500Y00150199D02*
X00127097D01*
X00113500Y00145699D02*
X00126669D01*
X00113500Y00149299D02*
X00126668D01*
X00113500Y00146599D02*
X00126428D01*
X00113500Y00148399D02*
X00126427D01*
X00113500Y00147499D02*
X00126350D01*
X00113500Y00205999D02*
X00126127D01*
X00113500Y00151999D02*
X00126113D01*
X00113500Y00160099D02*
X00125634D01*
X00113500Y00152899D02*
X00125097D01*
X00113500Y00159199D02*
X00124931D01*
X00113500Y00206899D02*
X00124821D01*
X00113500Y00153799D02*
X00124741D01*
X00113500Y00158299D02*
X00124704D01*
X00113500Y00216799D02*
X00124700D01*
X00113500Y00157399D02*
X00124700D01*
X00113500Y00156499D02*
X00124700D01*
X00113500Y00155599D02*
X00124700D01*
X00113500Y00154699D02*
X00124700D01*
X00113500Y00205099D02*
X00124595D01*
X00113500Y00215899D02*
X00124567D01*
X00113500Y00194299D02*
X00124451D01*
X00113500Y00217699D02*
X00124086D01*
X00113500Y00207799D02*
X00124031D01*
X00113500Y00214999D02*
X00123937D01*
X00113500Y00204199D02*
X00123882D01*
X00113500Y00195199D02*
X00123828D01*
X00113500Y00218599D02*
X00123775D01*
X00113500Y00208699D02*
X00123763D01*
X00113500Y00214099D02*
X00123750D01*
X00113500Y00221299D02*
X00123750D01*
X00113500Y00220399D02*
X00123750D01*
X00113500Y00219499D02*
X00123750D01*
X00113500Y00213199D02*
X00123750D01*
X00113500Y00212299D02*
X00123750D01*
X00113500Y00211399D02*
X00123750D01*
X00113500Y00210499D02*
X00123750D01*
X00113500Y00209599D02*
X00123750D01*
X00113500Y00203299D02*
X00123650D01*
X00113500Y00196099D02*
X00123645D01*
X00113500Y00202399D02*
X00123645D01*
X00113500Y00201499D02*
X00123645D01*
X00113500Y00200599D02*
X00123645D01*
X00113500Y00199699D02*
X00123645D01*
X00113500Y00198799D02*
X00123645D01*
X00113500Y00197899D02*
X00123645D01*
X00113500Y00196999D02*
X00123645D01*
X00113500Y00222199D02*
X00123152D01*
X00113500Y00223099D02*
X00122252D01*
X00113500Y00241099D02*
X00121985D01*
X00113500Y00223999D02*
X00121352D01*
X00113500Y00240199D02*
X00121249D01*
X00113500Y00224899D02*
X00120561D01*
X00113500Y00239299D02*
X00120498D01*
X00113500Y00225799D02*
X00120146D01*
X00113500Y00238399D02*
X00120117D01*
X00113500Y00226699D02*
X00120001D01*
X00113500Y00237499D02*
X00120000D01*
X00113500Y00236599D02*
X00120000D01*
X00113500Y00235699D02*
X00120000D01*
X00113500Y00234799D02*
X00120000D01*
X00113500Y00233899D02*
X00120000D01*
X00113500Y00232999D02*
X00120000D01*
X00113500Y00232099D02*
X00120000D01*
X00113500Y00231199D02*
X00120000D01*
X00113500Y00230299D02*
X00120000D01*
X00113500Y00229399D02*
X00120000D01*
X00113500Y00228499D02*
X00120000D01*
X00113500Y00227599D02*
X00120000D01*
X00113500Y00273499D02*
X00119168D01*
X00113500Y00241999D02*
X00117752D01*
X00113500Y00272599D02*
X00117328D01*
X00113500Y00262699D02*
X00117115D01*
X00113500Y00252799D02*
X00117058D01*
X00113500Y00242899D02*
X00117006D01*
X00113500Y00251899D02*
X00116917D01*
X00113500Y00261799D02*
X00116881D01*
X00113500Y00271699D02*
X00116850D01*
X00113500Y00263599D02*
X00116782D01*
X00113500Y00253699D02*
X00116768D01*
X00113500Y00243799D02*
X00116758D01*
X00113500Y00270799D02*
X00116750D01*
X00113500Y00269899D02*
X00116750D01*
X00113500Y00268999D02*
X00116750D01*
X00113500Y00268099D02*
X00116750D01*
X00113500Y00267199D02*
X00116750D01*
X00113500Y00266299D02*
X00116750D01*
X00113500Y00265399D02*
X00116750D01*
X00113500Y00264499D02*
X00116750D01*
X00113500Y00260899D02*
X00116750D01*
X00113500Y00259999D02*
X00116750D01*
X00113500Y00259099D02*
X00116750D01*
X00113500Y00258199D02*
X00116750D01*
X00113500Y00257299D02*
X00116750D01*
X00113500Y00256399D02*
X00116750D01*
X00113500Y00255499D02*
X00116750D01*
X00113500Y00254599D02*
X00116750D01*
X00113500Y00250999D02*
X00116750D01*
X00113500Y00250099D02*
X00116750D01*
X00113500Y00249199D02*
X00116750D01*
X00113500Y00248299D02*
X00116750D01*
X00113500Y00247399D02*
X00116750D01*
X00113500Y00246499D02*
X00116750D01*
X00113500Y00245599D02*
X00116750D01*
X00113500Y00244699D02*
X00116750D01*
G54D31*
X00219858Y00169000D03*
X00200142D03*
X00210000Y00231000D03*
G54D36*
X00341250Y00199000D02*
X00346500D01*
X00341250D02*
Y00197364D01*
X00341500Y00196818*
X00341750Y00196636*
X00342250Y00196455*
X00343000*
X00343500Y00196636*
X00343750Y00196818*
X00344000Y00197364*
Y00199000*
X00341250Y00194818D02*
X00346500D01*
X00342500Y00190455D02*
X00342000Y00190636D01*
X00341500Y00191000*
X00341250Y00191364*
Y00192091*
X00341500Y00192455*
X00342000Y00192818*
X00342500Y00193000*
X00343250Y00193182*
X00344500*
X00345250Y00193000*
X00345750Y00192818*
X00346250Y00192455*
X00346500Y00192091*
Y00191364*
X00346250Y00191000*
X00345750Y00190636*
X00345250Y00190455*
X00342250Y00188818D02*
X00342000Y00188455D01*
X00341250Y00187909*
X00346500*
X00342000Y00184091D02*
X00341500Y00184273D01*
X00341250Y00184818*
Y00185182*
X00341500Y00185727*
X00342250Y00186091*
X00343500Y00186273*
X00344750*
X00345750Y00186091*
X00346250Y00185727*
X00346500Y00185182*
Y00185000*
X00346250Y00184455*
X00345750Y00184091*
X00345000Y00183909*
X00344750*
X00344000Y00184091*
X00343500Y00184455*
X00343250Y00185000*
Y00185182*
X00343500Y00185727*
X00344000Y00186091*
X00344750Y00186273*
X00341250Y00182273D02*
X00346500D01*
X00341250D02*
Y00179909D01*
X00343750Y00182273D02*
Y00180818D01*
X00341250Y00177364D02*
X00341500Y00177909D01*
X00342000Y00178091*
X00342500*
X00343000Y00177909*
X00343250Y00177545*
X00343500Y00176818*
X00343750Y00176273*
X00344250Y00175909*
X00344750Y00175727*
X00345500*
X00346000Y00175909*
X00346250Y00176091*
X00346500Y00176636*
Y00177364*
X00346250Y00177909*
X00346000Y00178091*
X00345500Y00178273*
X00344750*
X00344250Y00178091*
X00343750Y00177727*
X00343500Y00177182*
X00343250Y00176455*
X00343000Y00176091*
X00342500Y00175909*
X00342000*
X00341500Y00176091*
X00341250Y00176636*
Y00177364*
Y00171545D02*
X00346500Y00173364D01*
X00341250Y00174091D02*
Y00171545D01*
X00343000Y00169909D02*
X00346500Y00167909D01*
X00343000D02*
X00346500Y00169909D01*
X00341250Y00165000D02*
X00346500D01*
X00341250Y00166273D02*
Y00163727D01*
Y00161000D02*
X00341500Y00161364D01*
X00342000Y00161727*
X00342500Y00161909*
X00343250Y00162091*
X00344500*
X00345250Y00161909*
X00345750Y00161727*
X00346250Y00161364*
X00346500Y00161000*
Y00160273*
X00346250Y00159909*
X00345750Y00159545*
X00345250Y00159364*
X00344500Y00159182*
X00343250*
X00342500Y00159364*
X00342000Y00159545*
X00341500Y00159909*
X00341250Y00160273*
Y00161000*
X00345500Y00160455D02*
X00347000Y00159364D01*
X00341250Y00155727D02*
X00344750Y00157545D01*
Y00154818*
X00341250Y00155727D02*
X00346500D01*
X00341250Y00151364D02*
X00344750Y00153182D01*
Y00150455*
X00341250Y00151364D02*
X00346500D01*
X00341250Y00147727D02*
X00341500Y00148273D01*
X00342250Y00148636*
X00343500Y00148818*
X00344250*
X00345500Y00148636*
X00346250Y00148273*
X00346500Y00147727*
Y00147364*
X00346250Y00146818*
X00345500Y00146455*
X00344250Y00146273*
X00343500*
X00342250Y00146455*
X00341500Y00146818*
X00341250Y00147364*
Y00147727*
X00342250Y00144636D02*
X00342000Y00144273D01*
X00341250Y00143727*
X00346500*
X00341250Y00142091D02*
X00346500D01*
X00341250D02*
Y00140455D01*
X00341500Y00139909*
X00341750Y00139727*
X00342250Y00139545*
X00342750*
X00343250Y00139727*
X00343500Y00139909*
X00343750Y00140455*
Y00142091D02*
Y00140455D01*
X00344000Y00139909*
X00344250Y00139727*
X00344750Y00139545*
X00345500*
X00346000Y00139727*
X00346250Y00139909*
X00346500Y00140455*
Y00142091*
X00204000Y00231750D02*
X00203636Y00232000D01*
X00203091Y00232750*
Y00227500*
G54D40*
X00157500Y00280000D03*
G54D43*
X00307500Y00270000D03*
X00342500D03*
G54D44*
X00176551Y00285479D02*
X00176051D01*
X00176551Y00295479D02*
X00176051D01*
X00266551Y00285479D02*
X00266051D01*
X00266551Y00295479D02*
X00266051D01*
X00276551Y00285479D02*
X00276051D01*
X00276551Y00295479D02*
X00276051D01*
X00285000Y00259750D02*
Y00260250D01*
X00295000Y00259750D02*
Y00260250D01*
X00285000Y00249750D02*
Y00250250D01*
X00295000Y00249750D02*
Y00250250D01*
X00285000Y00239750D02*
Y00240250D01*
X00295000Y00239750D02*
Y00240250D01*
X00285000Y00229750D02*
Y00230250D01*
X00295000Y00229750D02*
Y00230250D01*
X00285000Y00219750D02*
Y00220250D01*
X00295000Y00219750D02*
Y00220250D01*
X00285000Y00209750D02*
Y00210250D01*
X00295000Y00209750D02*
Y00210250D01*
X00285000Y00199750D02*
Y00200250D01*
X00295000Y00199750D02*
Y00200250D01*
X00285000Y00189750D02*
Y00190250D01*
X00295000Y00189750D02*
Y00190250D01*
X00186551Y00285479D02*
X00186051D01*
X00186551Y00295479D02*
X00186051D01*
X00285000Y00179750D02*
Y00180250D01*
X00295000Y00179750D02*
Y00180250D01*
X00285000Y00169750D02*
Y00170250D01*
X00295000Y00169750D02*
Y00170250D01*
X00285000Y00159750D02*
Y00160250D01*
X00295000Y00159750D02*
Y00160250D01*
X00275250Y00125000D02*
X00274750D01*
X00275250Y00135000D02*
X00274750D01*
X00265250Y00125000D02*
X00264750D01*
X00265250Y00135000D02*
X00264750D01*
X00255250Y00125000D02*
X00254750D01*
X00255250Y00135000D02*
X00254750D01*
X00245250Y00125000D02*
X00244750D01*
X00245250Y00135000D02*
X00244750D01*
X00235250Y00125000D02*
X00234750D01*
X00235250Y00135000D02*
X00234750D01*
X00225250Y00125000D02*
X00224750D01*
X00225250Y00135000D02*
X00224750D01*
X00215250Y00125000D02*
X00214750D01*
X00215250Y00135000D02*
X00214750D01*
X00196551Y00285479D02*
X00196051D01*
X00196551Y00295479D02*
X00196051D01*
X00205250Y00125000D02*
X00204750D01*
X00205250Y00135000D02*
X00204750D01*
X00195250Y00125000D02*
X00194750D01*
X00195250Y00135000D02*
X00194750D01*
X00185250Y00125000D02*
X00184750D01*
X00185250Y00135000D02*
X00184750D01*
X00175250Y00125000D02*
X00174750D01*
X00175250Y00135000D02*
X00174750D01*
X00156158Y00161238D02*
Y00161738D01*
X00166158Y00161238D02*
Y00161738D01*
X00156158Y00171238D02*
Y00171738D01*
X00166158Y00171238D02*
Y00171738D01*
X00156158Y00181238D02*
Y00181738D01*
X00166158Y00181238D02*
Y00181738D01*
X00156158Y00191238D02*
Y00191738D01*
X00166158Y00191238D02*
Y00191738D01*
X00156158Y00201238D02*
Y00201738D01*
X00166158Y00201238D02*
Y00201738D01*
X00156158Y00211238D02*
Y00211738D01*
X00166158Y00211238D02*
Y00211738D01*
X00206551Y00285479D02*
X00206051D01*
X00206551Y00295479D02*
X00206051D01*
X00156158Y00221238D02*
Y00221738D01*
X00166158Y00221238D02*
Y00221738D01*
X00156158Y00231238D02*
Y00231738D01*
X00166158Y00231238D02*
Y00231738D01*
X00156158Y00241238D02*
Y00241738D01*
X00166158Y00241238D02*
Y00241738D01*
X00156158Y00251238D02*
Y00251738D01*
X00166158Y00251238D02*
Y00251738D01*
X00156158Y00261238D02*
Y00261738D01*
X00166158Y00261238D02*
Y00261738D01*
X00310000Y00152250D02*
Y00152750D01*
X00320000Y00152250D02*
Y00152750D01*
X00310000Y00162250D02*
Y00162750D01*
X00320000Y00162250D02*
Y00162750D01*
X00310000Y00177250D02*
Y00177750D01*
X00320000Y00177250D02*
Y00177750D01*
X00216551Y00285479D02*
X00216051D01*
X00216551Y00295479D02*
X00216051D01*
X00310000Y00187250D02*
Y00187750D01*
X00320000Y00187250D02*
Y00187750D01*
X00163634Y00128088D02*
Y00127588D01*
X00153634Y00128088D02*
Y00127588D01*
X00163915Y00144072D02*
Y00143572D01*
X00153915Y00144072D02*
Y00143572D01*
X00129395Y00199387D02*
Y00199887D01*
X00139395Y00199387D02*
Y00199887D01*
X00129103Y00232958D02*
Y00233458D01*
X00139103Y00232958D02*
Y00233458D01*
X00310000Y00140750D02*
Y00141250D01*
X00290000Y00140750D02*
Y00141250D01*
X00310000Y00130750D02*
Y00131250D01*
X00290000Y00130750D02*
Y00131250D01*
X00226551Y00285479D02*
X00226051D01*
X00226551Y00295479D02*
X00226051D01*
X00310000Y00120750D02*
Y00121250D01*
X00290000Y00120750D02*
Y00121250D01*
X00142500Y00267250D02*
Y00267750D01*
X00122500Y00267250D02*
Y00267750D01*
X00142500Y00257250D02*
Y00257750D01*
X00122500Y00257250D02*
Y00257750D01*
X00142500Y00247250D02*
Y00247750D01*
X00122500Y00247250D02*
Y00247750D01*
X00236551Y00285479D02*
X00236051D01*
X00236551Y00295479D02*
X00236051D01*
X00246551Y00285479D02*
X00246051D01*
X00246551Y00295479D02*
X00246051D01*
X00256551Y00285479D02*
X00256051D01*
X00256551Y00295479D02*
X00256051D01*
G54D45*
X00338500Y00240600D03*
X00321500D03*
Y00215400D03*
X00338500D03*
G54D46*
X00236646Y00271827D02*
Y00276327D01*
X00223646Y00271827D02*
Y00276327D01*
G54D47*
X00219500Y00227631D02*
Y00233431D01*
X00222600Y00227631D02*
Y00233431D01*
X00225700Y00227631D02*
Y00233431D01*
X00228800Y00227631D02*
Y00233431D01*
X00231900Y00227631D02*
Y00233431D01*
X00235000Y00227631D02*
Y00233431D01*
X00238100Y00227631D02*
Y00233431D01*
X00241200Y00227631D02*
Y00233431D01*
X00244300Y00227631D02*
Y00233431D01*
X00247400Y00227631D02*
Y00233431D01*
X00250500Y00227631D02*
Y00233431D01*
X00260931Y00223000D02*
X00255131D01*
X00260931Y00219900D02*
X00255131D01*
X00260931Y00216800D02*
X00255131D01*
X00260931Y00213700D02*
X00255131D01*
X00260931Y00210600D02*
X00255131D01*
X00260931Y00207500D02*
X00255131D01*
X00260931Y00204400D02*
X00255131D01*
X00260931Y00201300D02*
X00255131D01*
X00260931Y00198200D02*
X00255131D01*
X00260931Y00195100D02*
X00255131D01*
X00260931Y00192000D02*
X00255131D01*
X00250500Y00181569D02*
Y00187369D01*
X00247400Y00181569D02*
Y00187369D01*
X00244300Y00181569D02*
Y00187369D01*
X00241200Y00181569D02*
Y00187369D01*
X00238100Y00181569D02*
Y00187369D01*
X00235000Y00181569D02*
Y00187369D01*
X00231900Y00181569D02*
Y00187369D01*
X00228800Y00181569D02*
Y00187369D01*
X00225700Y00181569D02*
Y00187369D01*
X00222600Y00181569D02*
Y00187369D01*
X00219500Y00181569D02*
Y00187369D01*
X00214869Y00192000D02*
X00209069D01*
X00214869Y00195100D02*
X00209069D01*
X00214869Y00198200D02*
X00209069D01*
X00214869Y00201300D02*
X00209069D01*
X00214869Y00204400D02*
X00209069D01*
X00214869Y00207500D02*
X00209069D01*
X00214869Y00210600D02*
X00209069D01*
X00214869Y00213700D02*
X00209069D01*
X00214869Y00216800D02*
X00209069D01*
X00214869Y00219900D02*
X00209069D01*
X00214869Y00223000D02*
X00209069D01*
G54D48*
X00175000Y00125000D02*
Y00135000D01*
X00185000Y00125000D02*
Y00135000D01*
X00195000Y00125000D02*
Y00135000D01*
X00205000Y00125000D02*
Y00135000D01*
X00225000Y00125000D02*
Y00135000D01*
X00235000Y00125000D02*
Y00135000D01*
X00245000Y00125000D02*
Y00135000D01*
X00255000Y00125000D02*
Y00135000D01*
X00265000Y00125000D02*
Y00135000D01*
X00275000Y00125000D02*
Y00135000D01*
X00296200Y00121000D02*
X00290000D01*
X00296200Y00131000D02*
X00290000D01*
X00310000Y00121000D02*
X00303800D01*
X00310000Y00131000D02*
X00303800D01*
X00131600Y00147500D02*
X00130945D01*
Y00156200*
X00130000*
X00175000Y00135000D02*
Y00157500D01*
X00201500Y00184000*
X00219031*
X00219500Y00184469*
X00185000Y00135000D02*
Y00161500D01*
X00201000Y00177500*
X00220000*
X00222600Y00180100*
Y00184469*
X00195000Y00135000D02*
X00195250D01*
X00203545Y00143295*
X00203945*
X00210100Y00149450*
Y00150300*
X00205000Y00135000D02*
X00205250D01*
X00213900Y00143650*
X00225000Y00135000D02*
X00225250D01*
X00230900Y00140650*
Y00153500*
X00234800Y00157400*
Y00168500*
X00210100Y00150300D02*
Y00159042D01*
Y00169000*
X00208400*
X00235000Y00135000D02*
Y00146745D01*
X00238700Y00150445*
Y00172768*
X00238100Y00173368*
Y00184469*
X00245000Y00135000D02*
Y00171045D01*
X00241200Y00174845*
Y00184469*
X00255000Y00135000D02*
Y00165621D01*
X00244300Y00176321*
Y00184469*
X00265000Y00135000D02*
Y00159939D01*
X00247400Y00177539*
Y00184469*
X00288463Y00147100D02*
X00314600D01*
X00315564Y00148064*
X00317650Y00149900*
X00320000Y00151968*
Y00152500*
X00288463Y00147100D02*
X00261100Y00174463D01*
Y00181200*
X00248150Y00194150*
X00275000Y00135000D02*
Y00154257D01*
X00250500Y00178757*
Y00184469*
X00296200Y00141000D02*
X00290000D01*
X00310000D02*
X00303800D01*
X00310000Y00152500D02*
Y00162500D01*
X00208400Y00169000D02*
X00210500D01*
X00216000Y00174500*
X00221300*
X00225700Y00178900*
Y00184469*
X00200142Y00169000D02*
X00208400D01*
X00219858D02*
X00228800Y00177942D01*
Y00184469*
X00234800Y00168500D02*
Y00175800D01*
X00235000Y00176000*
Y00184469*
X00285000Y00160000D02*
Y00160250D01*
X00267900Y00177350*
Y00185031*
X00260931Y00192000*
X00258031*
X00285000Y00170000D02*
Y00170250D01*
X00271900Y00183350*
Y00186731*
X00263531Y00195100*
X00258031*
X00285000Y00160000D02*
X00295000D01*
X00301250*
X00303750Y00162500*
X00310000*
X00285000Y00170000D02*
X00295000D01*
Y00170250*
X00302250Y00177500*
X00310000*
X00320000Y00162500D02*
X00328700D01*
X00235000Y00184469D02*
Y00191000D01*
X00238150Y00194150*
X00285000Y00180000D02*
Y00180250D01*
X00279370Y00185880*
X00277920*
X00265600Y00198200*
X00258031*
X00285000Y00190000D02*
X00279005D01*
X00267705Y00201300*
X00258031*
X00295000Y00180000D02*
X00285000D01*
X00295000Y00190000D02*
X00285000D01*
X00310000Y00177500D02*
Y00187500D01*
X00328700D02*
X00320000D01*
X00258031Y00207500D02*
X00277750D01*
X00280250Y00210000*
X00285000*
X00258031Y00210600D02*
X00275850D01*
X00285000Y00219750*
Y00220000*
X00258031Y00213700D02*
X00268950D01*
X00285000Y00229750*
Y00230000*
Y00200000D02*
X00273000D01*
X00268600Y00204400*
X00258031*
X00295000Y00200000D02*
X00285000D01*
X00295000Y00210000D02*
X00285000D01*
X00314287Y00198000D02*
X00301318D01*
X00299318Y00200000*
X00295000*
X00314287Y00198000D02*
X00316000D01*
X00328000Y00210000*
Y00234100*
X00321500Y00240600*
X00314287Y00201000D02*
X00304345D01*
X00301245Y00204100*
X00300650*
X00295000Y00209750*
Y00210000*
X00314287Y00201000D02*
X00317000Y00203713D01*
Y00211000*
X00315000Y00213000*
X00314500*
X00310000Y00217500*
Y00207500D02*
X00303750Y00213750D01*
X00301000*
X00295000Y00219750*
Y00220000*
X00238200Y00222500D02*
X00238100Y00227631D01*
Y00230531*
Y00243900*
X00236800Y00245200*
Y00250500*
X00258031Y00216800D02*
X00264391D01*
X00277300Y00229709*
Y00232050*
X00285000Y00239750*
Y00240000*
X00258031Y00219900D02*
X00263531D01*
X00272000Y00228369*
Y00236750*
X00285000Y00249750*
Y00250000*
X00258031Y00223000D02*
X00260931D01*
X00268000Y00230069*
Y00242750*
X00285000Y00259750*
Y00260000*
X00295000Y00220000D02*
X00285000D01*
X00295000Y00230000D02*
X00285000D01*
X00310000Y00227500D02*
Y00227000D01*
X00304700Y00232000*
Y00238000*
X00128700Y00247500D02*
X00122500D01*
X00142500D02*
X00136300D01*
X00304700Y00238000D02*
Y00242581D01*
X00301000Y00246281*
Y00270000*
X00295000Y00240000D02*
X00285000D01*
X00295000Y00250000D02*
X00285000D01*
X00321500Y00240600D02*
Y00248700D01*
X00320000*
X00312300Y00238000D02*
Y00238600D01*
X00128700Y00257500D02*
X00122500D01*
X00128700Y00267500D02*
X00122500D01*
X00142500Y00257500D02*
X00136300D01*
X00142500Y00267500D02*
X00136300D01*
X00295000Y00260000D02*
X00285000D01*
X00320000Y00256300D02*
X00310000D01*
Y00257500*
G74*
X00000000Y00000000D02*
M02*
