M48
;DRILL file {KiCad 5.0.0-rc2-dev-unknown-5f578c8~62~ubuntu16.04.1} date Fri Mar  2 00:33:56 2018
;FORMAT={-:-/ absolute / metric / decimal}
FMAT,2
METRIC,TZ
T1C0.400
T2C0.600
T3C0.889
T4C3.000
%
G90
G05
M71
T1
X151.384Y-99.822
X153.521Y-98.701
X154.94Y-96.266
X155.956Y-105.156
X156.718Y-103.632
X156.972Y-105.664
X158.242Y-105.664
X164.338Y-100.076
T2
X146.558Y-92.964
T3
X154.432Y-89.465
X154.432Y-92.005
X166.624Y-89.408
X166.624Y-91.948
X170.942Y-102.616
X173.482Y-102.616
X162.052Y-89.465
X162.052Y-92.005
X151.892Y-89.465
X151.892Y-92.005
X170.942Y-100.076
X173.482Y-100.076
X153.416Y-112.141
X153.416Y-114.681
X156.972Y-89.465
X156.972Y-92.005
X159.512Y-89.465
X159.512Y-92.005
X159.766Y-112.141
X159.766Y-114.681
X162.306Y-112.141
X162.306Y-114.681
X164.846Y-112.141
X164.846Y-114.681
T4
X172.466Y-92.456
X172.466Y-112.776
X141.986Y-92.456
X141.986Y-112.776
T0
M30
