%TF.GenerationSoftware,KiCad,Pcbnew,5.0.0-rc2-dev-unknown-5f578c8~62~ubuntu16.04.1*%
%TF.CreationDate,2018-03-02T00:33:56+01:00*%
%TF.ProjectId,LIGHTNING01A,4C494748544E494E473031412E6B6963,01A*%
%TF.SameCoordinates,Original*%
%TF.FileFunction,Legend,Top*%
%TF.FilePolarity,Positive*%
%FSLAX46Y46*%
G04 Gerber Fmt 4.6, Leading zero omitted, Abs format (unit mm)*
G04 Created by KiCad (PCBNEW 5.0.0-rc2-dev-unknown-5f578c8~62~ubuntu16.04.1) date Fri Mar  2 00:33:56 2018*
%MOMM*%
%LPD*%
G01*
G04 APERTURE LIST*
%ADD10C,0.200000*%
%ADD11C,0.300000*%
%ADD12C,0.250000*%
%ADD13C,0.350000*%
%ADD14C,0.150000*%
%ADD15C,0.050000*%
G04 APERTURE END LIST*
D10*
X0Y0D02*
X0Y30480000D01*
X40640000Y0D02*
X0Y0D01*
X40640000Y30480000D02*
X40640000Y0D01*
X0Y30480000D02*
X40640000Y30480000D01*
D11*
X7536571Y11386858D02*
X6036571Y11386858D01*
X7108000Y11886858D01*
X6036571Y12386858D01*
X7536571Y12386858D01*
X7536571Y13815429D02*
X7536571Y13101143D01*
X6036571Y13101143D01*
X7108000Y14244000D02*
X7108000Y14958286D01*
X7536571Y14101143D02*
X6036571Y14601143D01*
X7536571Y15101143D01*
X6750857Y16101143D02*
X6822285Y16315429D01*
X6893714Y16386858D01*
X7036571Y16458286D01*
X7250857Y16458286D01*
X7393714Y16386858D01*
X7465142Y16315429D01*
X7536571Y16172572D01*
X7536571Y15601143D01*
X6036571Y15601143D01*
X6036571Y16101143D01*
X6108000Y16244000D01*
X6179428Y16315429D01*
X6322285Y16386858D01*
X6465142Y16386858D01*
X6608000Y16315429D01*
X6679428Y16244000D01*
X6750857Y16101143D01*
X6750857Y15601143D01*
X7393714Y17101143D02*
X7465142Y17172572D01*
X7536571Y17101143D01*
X7465142Y17029715D01*
X7393714Y17101143D01*
X7536571Y17101143D01*
X7465142Y18458286D02*
X7536571Y18315429D01*
X7536571Y18029715D01*
X7465142Y17886858D01*
X7393714Y17815429D01*
X7250857Y17744000D01*
X6822285Y17744000D01*
X6679428Y17815429D01*
X6608000Y17886858D01*
X6536571Y18029715D01*
X6536571Y18315429D01*
X6608000Y18458286D01*
X6536571Y18958286D02*
X6536571Y19744000D01*
X7536571Y18958286D01*
X7536571Y19744000D01*
D12*
X24800000Y21691715D02*
X24742857Y21577429D01*
X24742857Y21406000D01*
X24800000Y21234572D01*
X24914285Y21120286D01*
X25028571Y21063143D01*
X25257142Y21006000D01*
X25428571Y21006000D01*
X25657142Y21063143D01*
X25771428Y21120286D01*
X25885714Y21234572D01*
X25942857Y21406000D01*
X25942857Y21520286D01*
X25885714Y21691715D01*
X25828571Y21748858D01*
X25428571Y21748858D01*
X25428571Y21520286D01*
X25942857Y22263143D02*
X24742857Y22263143D01*
X25942857Y22948858D01*
X24742857Y22948858D01*
X25942857Y23520286D02*
X24742857Y23520286D01*
X24742857Y23806000D01*
X24800000Y23977429D01*
X24914285Y24091715D01*
X25028571Y24148858D01*
X25257142Y24206000D01*
X25428571Y24206000D01*
X25657142Y24148858D01*
X25771428Y24091715D01*
X25885714Y23977429D01*
X25942857Y23806000D01*
X25942857Y23520286D01*
X14640000Y21691715D02*
X14582857Y21577429D01*
X14582857Y21406000D01*
X14640000Y21234572D01*
X14754285Y21120286D01*
X14868571Y21063143D01*
X15097142Y21006000D01*
X15268571Y21006000D01*
X15497142Y21063143D01*
X15611428Y21120286D01*
X15725714Y21234572D01*
X15782857Y21406000D01*
X15782857Y21520286D01*
X15725714Y21691715D01*
X15668571Y21748858D01*
X15268571Y21748858D01*
X15268571Y21520286D01*
X15782857Y22263143D02*
X14582857Y22263143D01*
X15782857Y22948858D01*
X14582857Y22948858D01*
X15782857Y23520286D02*
X14582857Y23520286D01*
X14582857Y23806000D01*
X14640000Y23977429D01*
X14754285Y24091715D01*
X14868571Y24148858D01*
X15097142Y24206000D01*
X15268571Y24206000D01*
X15497142Y24148858D01*
X15611428Y24091715D01*
X15725714Y23977429D01*
X15782857Y23806000D01*
X15782857Y23520286D01*
X12357571Y1152858D02*
X12414714Y1210000D01*
X12471857Y1152858D01*
X12414714Y1095715D01*
X12357571Y1152858D01*
X12471857Y1152858D01*
X11729000Y1152858D02*
X11786142Y1210000D01*
X11843285Y1152858D01*
X11786142Y1095715D01*
X11729000Y1152858D01*
X11843285Y1152858D01*
X11271857Y2867143D02*
X11271857Y2981429D01*
X11329000Y3095715D01*
X11386142Y3152858D01*
X11500428Y3210000D01*
X11729000Y3267143D01*
X12014714Y3267143D01*
X12243285Y3210000D01*
X12357571Y3152858D01*
X12414714Y3095715D01*
X12471857Y2981429D01*
X12471857Y2867143D01*
X12414714Y2752858D01*
X12357571Y2695715D01*
X12243285Y2638572D01*
X12014714Y2581429D01*
X11729000Y2581429D01*
X11500428Y2638572D01*
X11386142Y2695715D01*
X11329000Y2752858D01*
X11271857Y2867143D01*
X12471857Y3667143D02*
X11671857Y4295715D01*
X11671857Y3667143D02*
X12471857Y4295715D01*
X11271857Y4638572D02*
X12471857Y5438572D01*
X11271857Y5438572D02*
X12471857Y4638572D01*
X11271857Y5781429D02*
X12471857Y6581429D01*
X11271857Y6581429D02*
X12471857Y5781429D01*
X14921857Y1152858D02*
X13207571Y1152858D01*
X13321857Y3152858D02*
X13321857Y3267143D01*
X13379000Y3381429D01*
X13436142Y3438572D01*
X13550428Y3495715D01*
X13779000Y3552858D01*
X14064714Y3552858D01*
X14293285Y3495715D01*
X14407571Y3438572D01*
X14464714Y3381429D01*
X14521857Y3267143D01*
X14521857Y3152858D01*
X14464714Y3038572D01*
X14407571Y2981429D01*
X14293285Y2924286D01*
X14064714Y2867143D01*
X13779000Y2867143D01*
X13550428Y2924286D01*
X13436142Y2981429D01*
X13379000Y3038572D01*
X13321857Y3152858D01*
X14521857Y3952858D02*
X13721857Y4581429D01*
X13721857Y3952858D02*
X14521857Y4581429D01*
X13321857Y4924286D02*
X14521857Y5724286D01*
X13321857Y5724286D02*
X14521857Y4924286D01*
X13321857Y6067143D02*
X14521857Y6867143D01*
X13321857Y6867143D02*
X14521857Y6067143D01*
X19662857Y21431429D02*
X20862857Y21831429D01*
X19662857Y22231429D01*
X20805714Y23145715D02*
X20862857Y23031429D01*
X20862857Y22802858D01*
X20805714Y22688572D01*
X20748571Y22631429D01*
X20634285Y22574286D01*
X20291428Y22574286D01*
X20177142Y22631429D01*
X20120000Y22688572D01*
X20062857Y22802858D01*
X20062857Y23031429D01*
X20120000Y23145715D01*
X20805714Y24174286D02*
X20862857Y24060000D01*
X20862857Y23831429D01*
X20805714Y23717143D01*
X20748571Y23660000D01*
X20634285Y23602858D01*
X20291428Y23602858D01*
X20177142Y23660000D01*
X20120000Y23717143D01*
X20062857Y23831429D01*
X20062857Y24060000D01*
X20120000Y24174286D01*
X29759428Y14697143D02*
X29759428Y15897143D01*
X31016571Y14697143D02*
X30616571Y15268572D01*
X30330857Y14697143D02*
X30330857Y15897143D01*
X30788000Y15897143D01*
X30902285Y15840000D01*
X30959428Y15782858D01*
X31016571Y15668572D01*
X31016571Y15497143D01*
X30959428Y15382858D01*
X30902285Y15325715D01*
X30788000Y15268572D01*
X30330857Y15268572D01*
X32330857Y14582858D02*
X32216571Y14640000D01*
X32102285Y14754286D01*
X31930857Y14925715D01*
X31816571Y14982858D01*
X31702285Y14982858D01*
X31759428Y14697143D02*
X31645142Y14754286D01*
X31530857Y14868572D01*
X31473714Y15097143D01*
X31473714Y15497143D01*
X31530857Y15725715D01*
X31645142Y15840000D01*
X31759428Y15897143D01*
X31988000Y15897143D01*
X32102285Y15840000D01*
X32216571Y15725715D01*
X32273714Y15497143D01*
X32273714Y15097143D01*
X32216571Y14868572D01*
X32102285Y14754286D01*
X31988000Y14697143D01*
X31759428Y14697143D01*
X30788000Y17351429D02*
X30730857Y17294286D01*
X30559428Y17237143D01*
X30445142Y17237143D01*
X30273714Y17294286D01*
X30159428Y17408572D01*
X30102285Y17522858D01*
X30045142Y17751429D01*
X30045142Y17922858D01*
X30102285Y18151429D01*
X30159428Y18265715D01*
X30273714Y18380000D01*
X30445142Y18437143D01*
X30559428Y18437143D01*
X30730857Y18380000D01*
X30788000Y18322858D01*
X31245142Y17294286D02*
X31416571Y17237143D01*
X31702285Y17237143D01*
X31816571Y17294286D01*
X31873714Y17351429D01*
X31930857Y17465715D01*
X31930857Y17580000D01*
X31873714Y17694286D01*
X31816571Y17751429D01*
X31702285Y17808572D01*
X31473714Y17865715D01*
X31359428Y17922858D01*
X31302285Y17980000D01*
X31245142Y18094286D01*
X31245142Y18208572D01*
X31302285Y18322858D01*
X31359428Y18380000D01*
X31473714Y18437143D01*
X31759428Y18437143D01*
X31930857Y18380000D01*
X30514857Y20466286D02*
X29314857Y20466286D01*
X30172000Y20866286D01*
X29314857Y21266286D01*
X30514857Y21266286D01*
X30514857Y21837715D02*
X29314857Y21837715D01*
X30457714Y22352000D02*
X30514857Y22523429D01*
X30514857Y22809143D01*
X30457714Y22923429D01*
X30400571Y22980572D01*
X30286285Y23037715D01*
X30172000Y23037715D01*
X30057714Y22980572D01*
X30000571Y22923429D01*
X29943428Y22809143D01*
X29886285Y22580572D01*
X29829142Y22466286D01*
X29772000Y22409143D01*
X29657714Y22352000D01*
X29543428Y22352000D01*
X29429142Y22409143D01*
X29372000Y22466286D01*
X29314857Y22580572D01*
X29314857Y22866286D01*
X29372000Y23037715D01*
X29314857Y23780572D02*
X29314857Y24009143D01*
X29372000Y24123429D01*
X29486285Y24237715D01*
X29714857Y24294858D01*
X30114857Y24294858D01*
X30343428Y24237715D01*
X30457714Y24123429D01*
X30514857Y24009143D01*
X30514857Y23780572D01*
X30457714Y23666286D01*
X30343428Y23552000D01*
X30114857Y23494858D01*
X29714857Y23494858D01*
X29486285Y23552000D01*
X29372000Y23666286D01*
X29314857Y23780572D01*
X23402857Y16037429D02*
X22202857Y16037429D01*
X23060000Y16437429D01*
X22202857Y16837429D01*
X23402857Y16837429D01*
X22202857Y17637429D02*
X22202857Y17866000D01*
X22260000Y17980286D01*
X22374285Y18094572D01*
X22602857Y18151715D01*
X23002857Y18151715D01*
X23231428Y18094572D01*
X23345714Y17980286D01*
X23402857Y17866000D01*
X23402857Y17637429D01*
X23345714Y17523143D01*
X23231428Y17408858D01*
X23002857Y17351715D01*
X22602857Y17351715D01*
X22374285Y17408858D01*
X22260000Y17523143D01*
X22202857Y17637429D01*
X23345714Y18608858D02*
X23402857Y18780286D01*
X23402857Y19066000D01*
X23345714Y19180286D01*
X23288571Y19237429D01*
X23174285Y19294572D01*
X23060000Y19294572D01*
X22945714Y19237429D01*
X22888571Y19180286D01*
X22831428Y19066000D01*
X22774285Y18837429D01*
X22717142Y18723143D01*
X22660000Y18666000D01*
X22545714Y18608858D01*
X22431428Y18608858D01*
X22317142Y18666000D01*
X22260000Y18723143D01*
X22202857Y18837429D01*
X22202857Y19123143D01*
X22260000Y19294572D01*
X23402857Y19808858D02*
X22202857Y19808858D01*
X23345714Y21237429D02*
X23402857Y21408858D01*
X23402857Y21694572D01*
X23345714Y21808858D01*
X23288571Y21866000D01*
X23174285Y21923143D01*
X23060000Y21923143D01*
X22945714Y21866000D01*
X22888571Y21808858D01*
X22831428Y21694572D01*
X22774285Y21466000D01*
X22717142Y21351715D01*
X22660000Y21294572D01*
X22545714Y21237429D01*
X22431428Y21237429D01*
X22317142Y21294572D01*
X22260000Y21351715D01*
X22202857Y21466000D01*
X22202857Y21751715D01*
X22260000Y21923143D01*
X23402857Y22437429D02*
X22202857Y22437429D01*
X22202857Y22723143D01*
X22260000Y22894572D01*
X22374285Y23008858D01*
X22488571Y23066000D01*
X22717142Y23123143D01*
X22888571Y23123143D01*
X23117142Y23066000D01*
X23231428Y23008858D01*
X23345714Y22894572D01*
X23402857Y22723143D01*
X23402857Y22437429D01*
X23060000Y23580286D02*
X23060000Y24151715D01*
X23402857Y23466000D02*
X22202857Y23866000D01*
X23402857Y24266000D01*
X18208571Y17745429D02*
X18265714Y17688286D01*
X18322857Y17516858D01*
X18322857Y17402572D01*
X18265714Y17231143D01*
X18151428Y17116858D01*
X18037142Y17059715D01*
X17808571Y17002572D01*
X17637142Y17002572D01*
X17408571Y17059715D01*
X17294285Y17116858D01*
X17180000Y17231143D01*
X17122857Y17402572D01*
X17122857Y17516858D01*
X17180000Y17688286D01*
X17237142Y17745429D01*
X18322857Y18831143D02*
X18322857Y18259715D01*
X17122857Y18259715D01*
X18322857Y19231143D02*
X17122857Y19231143D01*
X18322857Y19916858D02*
X17637142Y19402572D01*
X17122857Y19916858D02*
X17808571Y19231143D01*
X18265714Y21288286D02*
X18322857Y21459715D01*
X18322857Y21745429D01*
X18265714Y21859715D01*
X18208571Y21916858D01*
X18094285Y21974000D01*
X17980000Y21974000D01*
X17865714Y21916858D01*
X17808571Y21859715D01*
X17751428Y21745429D01*
X17694285Y21516858D01*
X17637142Y21402572D01*
X17580000Y21345429D01*
X17465714Y21288286D01*
X17351428Y21288286D01*
X17237142Y21345429D01*
X17180000Y21402572D01*
X17122857Y21516858D01*
X17122857Y21802572D01*
X17180000Y21974000D01*
X18208571Y23174000D02*
X18265714Y23116858D01*
X18322857Y22945429D01*
X18322857Y22831143D01*
X18265714Y22659715D01*
X18151428Y22545429D01*
X18037142Y22488286D01*
X17808571Y22431143D01*
X17637142Y22431143D01*
X17408571Y22488286D01*
X17294285Y22545429D01*
X17180000Y22659715D01*
X17122857Y22831143D01*
X17122857Y22945429D01*
X17180000Y23116858D01*
X17237142Y23174000D01*
X18322857Y24259715D02*
X18322857Y23688286D01*
X17122857Y23688286D01*
X22513095Y7449429D02*
X22513095Y8949429D01*
X22989285Y8949429D01*
X23108333Y8878000D01*
X23167857Y8806572D01*
X23227380Y8663715D01*
X23227380Y8449429D01*
X23167857Y8306572D01*
X23108333Y8235143D01*
X22989285Y8163715D01*
X22513095Y8163715D01*
X24001190Y8949429D02*
X24239285Y8949429D01*
X24358333Y8878000D01*
X24477380Y8735143D01*
X24536904Y8449429D01*
X24536904Y7949429D01*
X24477380Y7663715D01*
X24358333Y7520858D01*
X24239285Y7449429D01*
X24001190Y7449429D01*
X23882142Y7520858D01*
X23763095Y7663715D01*
X23703571Y7949429D01*
X23703571Y8449429D01*
X23763095Y8735143D01*
X23882142Y8878000D01*
X24001190Y8949429D01*
X24953571Y8949429D02*
X25251190Y7449429D01*
X25489285Y8520858D01*
X25727380Y7449429D01*
X26025000Y8949429D01*
X26501190Y8235143D02*
X26917857Y8235143D01*
X27096428Y7449429D02*
X26501190Y7449429D01*
X26501190Y8949429D01*
X27096428Y8949429D01*
X28346428Y7449429D02*
X27929761Y8163715D01*
X27632142Y7449429D02*
X27632142Y8949429D01*
X28108333Y8949429D01*
X28227380Y8878000D01*
X28286904Y8806572D01*
X28346428Y8663715D01*
X28346428Y8449429D01*
X28286904Y8306572D01*
X28227380Y8235143D01*
X28108333Y8163715D01*
X27632142Y8163715D01*
X16710000Y7756858D02*
X16710000Y8328286D01*
X17052857Y7642572D02*
X15852857Y8042572D01*
X17052857Y8442572D01*
X17052857Y8842572D02*
X15852857Y8842572D01*
X15852857Y9128286D01*
X15910000Y9299715D01*
X16024285Y9414000D01*
X16138571Y9471143D01*
X16367142Y9528286D01*
X16538571Y9528286D01*
X16767142Y9471143D01*
X16881428Y9414000D01*
X16995714Y9299715D01*
X17052857Y9128286D01*
X17052857Y8842572D01*
X17052857Y10042572D02*
X15852857Y10042572D01*
X15852857Y10328286D01*
X15910000Y10499715D01*
X16024285Y10614000D01*
X16138571Y10671143D01*
X16367142Y10728286D01*
X16538571Y10728286D01*
X16767142Y10671143D01*
X16881428Y10614000D01*
X16995714Y10499715D01*
X17052857Y10328286D01*
X17052857Y10042572D01*
X17052857Y11928286D02*
X16481428Y11528286D01*
X17052857Y11242572D02*
X15852857Y11242572D01*
X15852857Y11699715D01*
X15910000Y11814000D01*
X15967142Y11871143D01*
X16081428Y11928286D01*
X16252857Y11928286D01*
X16367142Y11871143D01*
X16424285Y11814000D01*
X16481428Y11699715D01*
X16481428Y11242572D01*
X15852857Y12671143D02*
X15852857Y12785429D01*
X15910000Y12899715D01*
X15967142Y12956858D01*
X16081428Y13014000D01*
X16310000Y13071143D01*
X16595714Y13071143D01*
X16824285Y13014000D01*
X16938571Y12956858D01*
X16995714Y12899715D01*
X17052857Y12785429D01*
X17052857Y12671143D01*
X16995714Y12556858D01*
X16938571Y12499715D01*
X16824285Y12442572D01*
X16595714Y12385429D01*
X16310000Y12385429D01*
X16081428Y12442572D01*
X15967142Y12499715D01*
X15910000Y12556858D01*
X15852857Y12671143D01*
D11*
X13226190Y7852286D02*
X13288095Y8038000D01*
X13288095Y8347524D01*
X13226190Y8471334D01*
X13164285Y8533239D01*
X13040476Y8595143D01*
X12916666Y8595143D01*
X12792857Y8533239D01*
X12730952Y8471334D01*
X12669047Y8347524D01*
X12607142Y8099905D01*
X12545238Y7976096D01*
X12483333Y7914191D01*
X12359523Y7852286D01*
X12235714Y7852286D01*
X12111904Y7914191D01*
X12050000Y7976096D01*
X11988095Y8099905D01*
X11988095Y8409429D01*
X12050000Y8595143D01*
X13288095Y9152286D02*
X11988095Y9152286D01*
X11988095Y9647524D01*
X12050000Y9771334D01*
X12111904Y9833239D01*
X12235714Y9895143D01*
X12421428Y9895143D01*
X12545238Y9833239D01*
X12607142Y9771334D01*
X12669047Y9647524D01*
X12669047Y9152286D01*
X13288095Y10452286D02*
X11988095Y10452286D01*
X11926190Y12990381D02*
X13597619Y11876096D01*
X13288095Y13423715D02*
X11988095Y13423715D01*
X12111904Y13980858D02*
X12050000Y14042762D01*
X11988095Y14166572D01*
X11988095Y14476096D01*
X12050000Y14599905D01*
X12111904Y14661810D01*
X12235714Y14723715D01*
X12359523Y14723715D01*
X12545238Y14661810D01*
X13288095Y13918953D01*
X13288095Y14723715D01*
X13164285Y16023715D02*
X13226190Y15961810D01*
X13288095Y15776096D01*
X13288095Y15652286D01*
X13226190Y15466572D01*
X13102380Y15342762D01*
X12978571Y15280858D01*
X12730952Y15218953D01*
X12545238Y15218953D01*
X12297619Y15280858D01*
X12173809Y15342762D01*
X12050000Y15466572D01*
X11988095Y15652286D01*
X11988095Y15776096D01*
X12050000Y15961810D01*
X12111904Y16023715D01*
D13*
X10375809Y8744000D02*
X10375809Y8029715D01*
X8775809Y8029715D01*
X10375809Y9244000D02*
X8775809Y9244000D01*
X8852000Y10744000D02*
X8775809Y10601143D01*
X8775809Y10386858D01*
X8852000Y10172572D01*
X9004380Y10029715D01*
X9156761Y9958286D01*
X9461523Y9886858D01*
X9690095Y9886858D01*
X9994857Y9958286D01*
X10147238Y10029715D01*
X10299619Y10172572D01*
X10375809Y10386858D01*
X10375809Y10529715D01*
X10299619Y10744000D01*
X10223428Y10815429D01*
X9690095Y10815429D01*
X9690095Y10529715D01*
X10375809Y11458286D02*
X8775809Y11458286D01*
X9537714Y11458286D02*
X9537714Y12315429D01*
X10375809Y12315429D02*
X8775809Y12315429D01*
X8775809Y12815429D02*
X8775809Y13672572D01*
X10375809Y13244000D02*
X8775809Y13244000D01*
X10375809Y14172572D02*
X8775809Y14172572D01*
X10375809Y15029715D01*
X8775809Y15029715D01*
X10375809Y15744000D02*
X8775809Y15744000D01*
X10375809Y16458286D02*
X8775809Y16458286D01*
X10375809Y17315429D01*
X8775809Y17315429D01*
X8852000Y18815429D02*
X8775809Y18672572D01*
X8775809Y18458286D01*
X8852000Y18244000D01*
X9004380Y18101143D01*
X9156761Y18029715D01*
X9461523Y17958286D01*
X9690095Y17958286D01*
X9994857Y18029715D01*
X10147238Y18101143D01*
X10299619Y18244000D01*
X10375809Y18458286D01*
X10375809Y18601143D01*
X10299619Y18815429D01*
X10223428Y18886858D01*
X9690095Y18886858D01*
X9690095Y18601143D01*
X8775809Y19815429D02*
X8775809Y19958286D01*
X8852000Y20101143D01*
X8928190Y20172572D01*
X9080571Y20244000D01*
X9385333Y20315429D01*
X9766285Y20315429D01*
X10071047Y20244000D01*
X10223428Y20172572D01*
X10299619Y20101143D01*
X10375809Y19958286D01*
X10375809Y19815429D01*
X10299619Y19672572D01*
X10223428Y19601143D01*
X10071047Y19529715D01*
X9766285Y19458286D01*
X9385333Y19458286D01*
X9080571Y19529715D01*
X8928190Y19601143D01*
X8852000Y19672572D01*
X8775809Y19815429D01*
X10375809Y21744000D02*
X10375809Y20886858D01*
X10375809Y21315429D02*
X8775809Y21315429D01*
X9004380Y21172572D01*
X9156761Y21029715D01*
X9232952Y20886858D01*
X9918666Y22315429D02*
X9918666Y23029715D01*
X10375809Y22172572D02*
X8775809Y22672572D01*
X10375809Y23172572D01*
D14*
X29210000Y6985000D02*
X29210000Y1905000D01*
X29210000Y1905000D02*
X21590000Y1905000D01*
X21590000Y1905000D02*
X21590000Y6985000D01*
X21590000Y6985000D02*
X29210000Y6985000D01*
X15240000Y6985000D02*
X17780000Y6985000D01*
X15240000Y1905000D02*
X15240000Y6985000D01*
X17780000Y1905000D02*
X15240000Y1905000D01*
X17780000Y6985000D02*
X17780000Y1905000D01*
X32766000Y19050000D02*
X37846000Y19050000D01*
X37846000Y19050000D02*
X37846000Y16510000D01*
X37846000Y16510000D02*
X32766000Y16510000D01*
X32766000Y16510000D02*
X32766000Y19050000D01*
X28448000Y29718000D02*
X30988000Y29718000D01*
X28448000Y24638000D02*
X28448000Y29718000D01*
X30988000Y24638000D02*
X28448000Y24638000D01*
X30988000Y29718000D02*
X30988000Y24638000D01*
X23876000Y29661327D02*
X23876000Y24581327D01*
X23876000Y24581327D02*
X21336000Y24581327D01*
X21336000Y24581327D02*
X21336000Y29661327D01*
X21336000Y29661327D02*
X23876000Y29661327D01*
X16256000Y29661327D02*
X18796000Y29661327D01*
X16256000Y24581327D02*
X16256000Y29661327D01*
X18796000Y24581327D02*
X16256000Y24581327D01*
X18796000Y29661327D02*
X18796000Y24581327D01*
X32766000Y16510000D02*
X37846000Y16510000D01*
X37846000Y16510000D02*
X37846000Y13970000D01*
X37846000Y13970000D02*
X32766000Y13970000D01*
X32766000Y13970000D02*
X32766000Y16510000D01*
X26416000Y24581327D02*
X23876000Y24581327D01*
X26416000Y29661327D02*
X26416000Y24581327D01*
X23876000Y29661327D02*
X26416000Y29661327D01*
X23876000Y24581327D02*
X23876000Y29661327D01*
X13716000Y24581327D02*
X13716000Y29661327D01*
X13716000Y29661327D02*
X16256000Y29661327D01*
X16256000Y29661327D02*
X16256000Y24581327D01*
X16256000Y24581327D02*
X13716000Y24581327D01*
X18796000Y24581327D02*
X18796000Y29661327D01*
X18796000Y29661327D02*
X21336000Y29661327D01*
X21336000Y29661327D02*
X21336000Y24581327D01*
X21336000Y24581327D02*
X18796000Y24581327D01*
D15*
X28166190Y7508858D02*
X28166190Y7223143D01*
X28166190Y7366000D02*
X27666190Y7366000D01*
X27737619Y7318381D01*
X27785238Y7270762D01*
X27809047Y7223143D01*
M02*
