<?xml version="1.0" standalone="no"?>
 <!DOCTYPE svg PUBLIC "-//W3C//DTD SVG 1.1//EN" 
 "http://www.w3.org/Graphics/SVG/1.1/DTD/svg11.dtd"> 
<svg xmlns="http://www.w3.org/2000/svg" version="1.1" 
    width="29.7002cm" height="21.0007cm" viewBox="0 0 116930 82680 ">
<title>SVG Picture created as UNIPOWER04A-NPTH-drl_map.svg date 2017/01/20 13:42:17 </title>
  <desc>Picture generated by PCBNEW </desc>
<g style="fill:#000000; fill-opacity:1;stroke:#000000; stroke-opacity:1;
stroke-linecap:round; stroke-linejoin:round; "
 transform="translate(0 0) scale(1 1)">
</g>
<g style="fill:#000000; fill-opacity:0.0; 
stroke:#000000; stroke-width:-0.000393701; stroke-opacity:1; 
stroke-linecap:round; stroke-linejoin:round;">
</g>
<g style="fill:#000000; fill-opacity:0.0; 
stroke:#000000; stroke-width:59.0551; stroke-opacity:1; 
stroke-linecap:round; stroke-linejoin:round;">
<path d="M31900 -100
L31900 -15900
" />
<path d="M100 -100
L100 -15900
" />
<path d="M100 -15900
L31900 -15900
" />
<path d="M100 -100
L31900 -100
" />
</g>
<g style="fill:#000000; fill-opacity:0.0; 
stroke:#000000; stroke-width:78.7402; stroke-opacity:1; 
stroke-linecap:round; stroke-linejoin:round;">
<path d="M568 -9331
L1631 -8268
" />
<path d="M1631 -9331
L568 -8268
" />
<path d="M4118 -1931
L5181 -868
" />
<path d="M5181 -1931
L4118 -868
" />
<path d="M9368 -1931
L10431 -868
" />
<path d="M10431 -1931
L9368 -868
" />
<path d="M13968 -15331
L15031 -14268
" />
<path d="M15031 -15331
L13968 -14268
" />
<path d="M14568 -1931
L15631 -868
" />
<path d="M15631 -1931
L14568 -868
" />
<path d="M19168 -15331
L20231 -14268
" />
<path d="M20231 -15331
L19168 -14268
" />
<path d="M19768 -1931
L20831 -868
" />
<path d="M20831 -1931
L19768 -868
" />
<path d="M30368 -10331
L31431 -9268
" />
<path d="M31431 -10331
L30368 -9268
" />
<path d="M30368 -6031
L31431 -4968
" />
<path d="M31431 -6031
L30368 -4968
" />
</g>
<g style="fill:#000000; fill-opacity:0.0; 
stroke:#000000; stroke-width:118.11; stroke-opacity:1; 
stroke-linecap:round; stroke-linejoin:round;">
<path d="M1198 1763
L1198 581
L1479 581
L1648 638
L1760 750
L1816 863
L1873 1088
L1873 1256
L1816 1481
L1760 1594
L1648 1706
L1479 1763
L1198 1763
" />
<path d="M2379 1763
L2379 975
" />
<path d="M2379 1200
L2435 1088
L2491 1031
L2604 975
L2716 975
" />
<path d="M3110 1763
L3110 975
" />
<path d="M3110 581
L3054 638
L3110 694
L3166 638
L3110 581
L3110 694
" />
<path d="M3841 1763
L3729 1706
L3672 1594
L3672 581
" />
<path d="M4460 1763
L4347 1706
L4291 1594
L4291 581
" />
<path d="M5810 1763
L5810 581
L6203 1425
L6597 581
L6597 1763
" />
<path d="M7666 1763
L7666 1144
L7609 1031
L7497 975
L7272 975
L7159 1031
" />
<path d="M7666 1706
L7553 1763
L7272 1763
L7159 1706
L7103 1594
L7103 1481
L7159 1369
L7272 1313
L7553 1313
L7666 1256
" />
<path d="M8228 975
L8228 2156
" />
<path d="M8228 1031
L8341 975
L8565 975
L8678 1031
L8734 1088
L8790 1200
L8790 1538
L8734 1650
L8678 1706
L8565 1763
L8341 1763
L8228 1706
" />
<path d="M9297 1650
L9353 1706
L9297 1763
L9240 1706
L9297 1650
L9297 1763
" />
<path d="M9297 1031
L9353 1088
L9297 1144
L9240 1088
L9297 1031
L9297 1144
" />
<path d="M-992 3177
L70 4240
" />
<path d="M70 3177
L-992 4240
" />
<path d="M1141 3174
L1198 3118
L1310 3062
L1591 3062
L1704 3118
L1760 3174
L1816 3287
L1816 3399
L1760 3568
L1085 4243
L1816 4243
" />
<path d="M2323 4130
L2379 4187
L2323 4243
L2266 4187
L2323 4130
L2323 4243
" />
<path d="M2772 3062
L3560 3062
L3054 4243
" />
<path d="M4235 3062
L4347 3062
L4460 3118
L4516 3174
L4572 3287
L4628 3512
L4628 3793
L4572 4018
L4516 4130
L4460 4187
L4347 4243
L4235 4243
L4122 4187
L4066 4130
L4010 4018
L3954 3793
L3954 3512
L4010 3287
L4066 3174
L4122 3118
L4235 3062
" />
<path d="M5135 4243
L5135 3455
" />
<path d="M5135 3568
L5191 3512
L5303 3455
L5472 3455
L5585 3512
L5641 3624
L5641 4243
" />
<path d="M5641 3624
L5697 3512
L5810 3455
L5978 3455
L6091 3512
L6147 3624
L6147 4243
" />
<path d="M6709 4243
L6709 3455
" />
<path d="M6709 3568
L6766 3512
L6878 3455
L7047 3455
L7159 3512
L7216 3624
L7216 4243
" />
<path d="M7216 3624
L7272 3512
L7384 3455
L7553 3455
L7666 3512
L7722 3624
L7722 4243
" />
<path d="M10028 3006
L9015 4524
" />
<path d="M11546 3062
L11659 3062
L11771 3118
L11828 3174
L11884 3287
L11940 3512
L11940 3793
L11884 4018
L11828 4130
L11771 4187
L11659 4243
L11546 4243
L11434 4187
L11378 4130
L11321 4018
L11265 3793
L11265 3512
L11321 3287
L11378 3174
L11434 3118
L11546 3062
" />
<path d="M12446 4130
L12502 4187
L12446 4243
L12390 4187
L12446 4130
L12446 4243
" />
<path d="M13627 4243
L12952 4243
" />
<path d="M13290 4243
L13290 3062
L13177 3230
L13065 3343
L12952 3399
" />
<path d="M14358 3062
L14471 3062
L14583 3118
L14640 3174
L14696 3287
L14752 3512
L14752 3793
L14696 4018
L14640 4130
L14583 4187
L14471 4243
L14358 4243
L14246 4187
L14190 4130
L14134 4018
L14077 3793
L14077 3512
L14134 3287
L14190 3174
L14246 3118
L14358 3062
" />
<path d="M15765 3062
L15540 3062
L15427 3118
L15371 3174
L15258 3343
L15202 3568
L15202 4018
L15258 4130
L15315 4187
L15427 4243
L15652 4243
L15765 4187
L15821 4130
L15877 4018
L15877 3737
L15821 3624
L15765 3568
L15652 3512
L15427 3512
L15315 3568
L15258 3624
L15202 3737
" />
<path d="M16327 3062
L16327 3287
" />
<path d="M16777 3062
L16777 3287
" />
<path d="M18520 4693
L18464 4637
L18352 4468
L18296 4355
L18239 4187
L18183 3905
L18183 3680
L18239 3399
L18296 3230
L18352 3118
L18464 2949
L18520 2893
" />
<path d="M19027 4243
L19252 4243
L19364 4187
L19420 4130
L19533 3962
L19589 3737
L19589 3287
L19533 3174
L19477 3118
L19364 3062
L19139 3062
L19027 3118
L18970 3174
L18914 3287
L18914 3568
L18970 3680
L19027 3737
L19139 3793
L19364 3793
L19477 3737
L19533 3680
L19589 3568
" />
<path d="M20995 4243
L20995 3062
" />
<path d="M21501 4243
L21501 3624
L21445 3512
L21333 3455
L21164 3455
L21051 3512
L20995 3568
" />
<path d="M22233 4243
L22120 4187
L22064 4130
L22008 4018
L22008 3680
L22064 3568
L22120 3512
L22233 3455
L22401 3455
L22514 3512
L22570 3568
L22626 3680
L22626 4018
L22570 4130
L22514 4187
L22401 4243
L22233 4243
" />
<path d="M23301 4243
L23189 4187
L23132 4074
L23132 3062
" />
<path d="M24201 4187
L24089 4243
L23864 4243
L23751 4187
L23695 4074
L23695 3624
L23751 3512
L23864 3455
L24089 3455
L24201 3512
L24257 3624
L24257 3737
L23695 3849
" />
<path d="M24707 4187
L24820 4243
L25045 4243
L25157 4187
L25213 4074
L25213 4018
L25157 3905
L25045 3849
L24876 3849
L24763 3793
L24707 3680
L24707 3624
L24763 3512
L24876 3455
L25045 3455
L25157 3512
" />
<path d="M25607 4693
L25663 4637
L25776 4468
L25832 4355
L25888 4187
L25945 3905
L25945 3680
L25888 3399
L25832 3230
L25776 3118
L25663 2949
L25607 2893
" />
<path d="M27744 4693
L27688 4637
L27576 4468
L27519 4355
L27463 4187
L27407 3905
L27407 3680
L27463 3399
L27519 3230
L27576 3118
L27688 2949
L27744 2893
" />
<path d="M28194 3455
L28194 4243
" />
<path d="M28194 3568
L28251 3512
L28363 3455
L28532 3455
L28644 3512
L28700 3624
L28700 4243
" />
<path d="M29432 4243
L29319 4187
L29263 4130
L29207 4018
L29207 3680
L29263 3568
L29319 3512
L29432 3455
L29600 3455
L29713 3512
L29769 3568
L29825 3680
L29825 4018
L29769 4130
L29713 4187
L29600 4243
L29432 4243
" />
<path d="M30163 3455
L30613 3455
" />
<path d="M30332 3062
L30332 4074
L30388 4187
L30500 4243
L30613 4243
" />
<path d="M31906 3455
L31906 4637
" />
<path d="M31906 3512
L32019 3455
L32244 3455
L32356 3512
L32412 3568
L32469 3680
L32469 4018
L32412 4130
L32356 4187
L32244 4243
L32019 4243
L31906 4187
" />
<path d="M33144 4243
L33031 4187
L32975 4074
L32975 3062
" />
<path d="M34100 4243
L34100 3624
L34044 3512
L33931 3455
L33706 3455
L33594 3512
" />
<path d="M34100 4187
L33987 4243
L33706 4243
L33594 4187
L33537 4074
L33537 3962
L33594 3849
L33706 3793
L33987 3793
L34100 3737
" />
<path d="M34493 3455
L34943 3455
" />
<path d="M34662 3062
L34662 4074
L34718 4187
L34831 4243
L34943 4243
" />
<path d="M35787 4187
L35675 4243
L35450 4243
L35337 4187
L35281 4074
L35281 3624
L35337 3512
L35450 3455
L35675 3455
L35787 3512
L35843 3624
L35843 3737
L35281 3849
" />
<path d="M36856 4243
L36856 3062
" />
<path d="M36856 4187
L36743 4243
L36518 4243
L36406 4187
L36349 4130
L36293 4018
L36293 3680
L36349 3568
L36406 3512
L36518 3455
L36743 3455
L36856 3512
" />
<path d="M37306 4693
L37362 4637
L37474 4468
L37531 4355
L37587 4187
L37643 3905
L37643 3680
L37587 3399
L37531 3230
L37474 3118
L37362 2949
L37306 2893
" />
</g> 
</svg>
