<?xml version="1.0" standalone="no"?>
 <!DOCTYPE svg PUBLIC "-//W3C//DTD SVG 1.1//EN" 
 "http://www.w3.org/Graphics/SVG/1.1/DTD/svg11.dtd"> 
<svg xmlns="http://www.w3.org/2000/svg" version="1.1" 
    width="29.7002cm" height="21.0007cm" viewBox="0 0 116930 82680 ">
<title>SVG Picture created as UNIPOWER04A-B_Mask.svg date 2017/01/20 13:42:17 </title>
  <desc>Picture generated by PCBNEW </desc>
<g style="fill:#000000; fill-opacity:1;stroke:#000000; stroke-opacity:1;
stroke-linecap:round; stroke-linejoin:round; "
 transform="translate(0 0) scale(1 1)">
</g>
<g style="fill:#000000; fill-opacity:0.0; 
stroke:#000000; stroke-width:-0.000393701; stroke-opacity:1; 
stroke-linecap:round; stroke-linejoin:round;">
</g>
<g style="fill:#000000; fill-opacity:0.0; 
stroke:#000000; stroke-width:59.0551; stroke-opacity:1; 
stroke-linecap:round; stroke-linejoin:round;">
<path d="M31900 -100
L31900 -15900
" />
<path d="M100 -100
L100 -15900
" />
<path d="M100 -15900
L31900 -15900
" />
<path d="M100 -100
L31900 -100
" />
</g>
<g style="fill:#000000; fill-opacity:0.0; 
stroke:#000000; stroke-width:0; stroke-opacity:1; 
stroke-linecap:round; stroke-linejoin:round;">
</g>
<g style="fill:#000000; fill-opacity:1.0; 
stroke:#000000; stroke-width:0; stroke-opacity:1; 
stroke-linecap:round; stroke-linejoin:round;">
<polyline style="fill-rule:evenodd;"
points="6397,-12143
4802,-12143
4802,-13738
6397,-13738
6397,-12143
" /> 
<polyline style="fill-rule:evenodd;"
points="6397,-9702
4802,-9702
4802,-11297
6397,-11297
6397,-9702
" /> 
<polyline style="fill-rule:evenodd;"
points="4428,-10923
2834,-10923
2834,-12517
4428,-12517
4428,-10923
" /> 
<circle cx="1100" cy="-8800" r="578.74" /> 
</g>
<g style="fill:#000000; fill-opacity:1.0; 
stroke:#000000; stroke-width:137.795; stroke-opacity:1; 
stroke-linecap:round; stroke-linejoin:round;">
</g>
<g style="fill:#000000; fill-opacity:1.0; 
stroke:#000000; stroke-width:0; stroke-opacity:1; 
stroke-linecap:round; stroke-linejoin:round;">
<polyline style="fill-rule:evenodd;"
points="1442,-9333
757,-9333
757,-9841
1442,-9841
1442,-9333
" /> 
<polyline style="fill-rule:evenodd;"
points="1442,-7758
757,-7758
757,-8266
1442,-8266
1442,-7758
" /> 
<circle cx="4650" cy="-1400" r="578.74" /> 
</g>
<g style="fill:#000000; fill-opacity:1.0; 
stroke:#000000; stroke-width:137.795; stroke-opacity:1; 
stroke-linecap:round; stroke-linejoin:round;">
</g>
<g style="fill:#000000; fill-opacity:1.0; 
stroke:#000000; stroke-width:0; stroke-opacity:1; 
stroke-linecap:round; stroke-linejoin:round;">
<polyline style="fill-rule:evenodd;"
points="4992,-1933
4307,-1933
4307,-2441
4992,-2441
4992,-1933
" /> 
<polyline style="fill-rule:evenodd;"
points="4992,-358
4307,-358
4307,-866
4992,-866
4992,-358
" /> 
<circle cx="15100" cy="-1400" r="578.74" /> 
</g>
<g style="fill:#000000; fill-opacity:1.0; 
stroke:#000000; stroke-width:137.795; stroke-opacity:1; 
stroke-linecap:round; stroke-linejoin:round;">
</g>
<g style="fill:#000000; fill-opacity:1.0; 
stroke:#000000; stroke-width:0; stroke-opacity:1; 
stroke-linecap:round; stroke-linejoin:round;">
<polyline style="fill-rule:evenodd;"
points="15442,-1933
14757,-1933
14757,-2441
15442,-2441
15442,-1933
" /> 
<polyline style="fill-rule:evenodd;"
points="15442,-358
14757,-358
14757,-866
15442,-866
15442,-358
" /> 
<polyline style="fill-rule:evenodd;"
points="11885,-10300
11885,-9299
10806,-9299
10806,-10300
11885,-10300
" /> 
<polyline style="fill-rule:evenodd;"
points="10193,-10300
10193,-9299
9114,-9299
9114,-10300
10193,-10300
" /> 
<polyline style="fill-rule:evenodd;"
points="1600,-6306
599,-6306
599,-7385
1600,-7385
1600,-6306
" /> 
<polyline style="fill-rule:evenodd;"
points="1600,-4614
599,-4614
599,-5693
1600,-5693
1600,-4614
" /> 
<polyline style="fill-rule:evenodd;"
points="8085,-1900
8085,-899
7006,-899
7006,-1900
8085,-1900
" /> 
<polyline style="fill-rule:evenodd;"
points="6393,-1900
6393,-899
5314,-899
5314,-1900
6393,-1900
" /> 
<polyline style="fill-rule:evenodd;"
points="16893,-2000
16893,-999
15814,-999
15814,-2000
16893,-2000
" /> 
<polyline style="fill-rule:evenodd;"
points="18585,-2000
18585,-999
17506,-999
17506,-2000
18585,-2000
" /> 
<polyline style="fill-rule:evenodd;"
points="20042,-13758
19357,-13758
19357,-14266
20042,-14266
20042,-13758
" /> 
<polyline style="fill-rule:evenodd;"
points="20042,-15333
19357,-15333
19357,-15841
20042,-15841
20042,-15333
" /> 
<circle cx="19700" cy="-14800" r="578.74" /> 
</g>
<g style="fill:#000000; fill-opacity:1.0; 
stroke:#000000; stroke-width:137.795; stroke-opacity:1; 
stroke-linecap:round; stroke-linejoin:round;">
</g>
<g style="fill:#000000; fill-opacity:1.0; 
stroke:#000000; stroke-width:0; stroke-opacity:1; 
stroke-linecap:round; stroke-linejoin:round;">
<circle cx="14500" cy="-14800" r="578.74" /> 
</g>
<g style="fill:#000000; fill-opacity:1.0; 
stroke:#000000; stroke-width:137.795; stroke-opacity:1; 
stroke-linecap:round; stroke-linejoin:round;">
</g>
<g style="fill:#000000; fill-opacity:1.0; 
stroke:#000000; stroke-width:0; stroke-opacity:1; 
stroke-linecap:round; stroke-linejoin:round;">
<polyline style="fill-rule:evenodd;"
points="14842,-15333
14157,-15333
14157,-15841
14842,-15841
14842,-15333
" /> 
<polyline style="fill-rule:evenodd;"
points="14842,-13758
14157,-13758
14157,-14266
14842,-14266
14842,-13758
" /> 
<polyline style="fill-rule:evenodd;"
points="31242,-8758
30557,-8758
30557,-9266
31242,-9266
31242,-8758
" /> 
<polyline style="fill-rule:evenodd;"
points="31242,-10333
30557,-10333
30557,-10841
31242,-10841
31242,-10333
" /> 
<circle cx="30900" cy="-9800" r="578.74" /> 
</g>
<g style="fill:#000000; fill-opacity:1.0; 
stroke:#000000; stroke-width:137.795; stroke-opacity:1; 
stroke-linecap:round; stroke-linejoin:round;">
</g>
<g style="fill:#000000; fill-opacity:1.0; 
stroke:#000000; stroke-width:0; stroke-opacity:1; 
stroke-linecap:round; stroke-linejoin:round;">
<circle cx="9900" cy="-1400" r="578.74" /> 
</g>
<g style="fill:#000000; fill-opacity:1.0; 
stroke:#000000; stroke-width:137.795; stroke-opacity:1; 
stroke-linecap:round; stroke-linejoin:round;">
</g>
<g style="fill:#000000; fill-opacity:1.0; 
stroke:#000000; stroke-width:0; stroke-opacity:1; 
stroke-linecap:round; stroke-linejoin:round;">
<polyline style="fill-rule:evenodd;"
points="10242,-1933
9557,-1933
9557,-2441
10242,-2441
10242,-1933
" /> 
<polyline style="fill-rule:evenodd;"
points="10242,-358
9557,-358
9557,-866
10242,-866
10242,-358
" /> 
<polyline style="fill-rule:evenodd;"
points="21593,-15300
21593,-14299
20514,-14299
20514,-15300
21593,-15300
" /> 
<polyline style="fill-rule:evenodd;"
points="23285,-15300
23285,-14299
22206,-14299
22206,-15300
23285,-15300
" /> 
<polyline style="fill-rule:evenodd;"
points="16293,-15300
16293,-14299
15214,-14299
15214,-15300
16293,-15300
" /> 
<polyline style="fill-rule:evenodd;"
points="17985,-15300
17985,-14299
16906,-14299
16906,-15300
17985,-15300
" /> 
<polyline style="fill-rule:evenodd;"
points="26400,-7714
25399,-7714
25399,-8793
26400,-8793
26400,-7714
" /> 
<polyline style="fill-rule:evenodd;"
points="26400,-9406
25399,-9406
25399,-10485
26400,-10485
26400,-9406
" /> 
<polyline style="fill-rule:evenodd;"
points="11693,-1900
11693,-899
10614,-899
10614,-1900
11693,-1900
" /> 
<polyline style="fill-rule:evenodd;"
points="13385,-1900
13385,-899
12306,-899
12306,-1900
13385,-1900
" /> 
<polyline style="fill-rule:evenodd;"
points="20642,-358
19957,-358
19957,-866
20642,-866
20642,-358
" /> 
<polyline style="fill-rule:evenodd;"
points="20642,-1933
19957,-1933
19957,-2441
20642,-2441
20642,-1933
" /> 
<circle cx="20300" cy="-1400" r="578.74" /> 
</g>
<g style="fill:#000000; fill-opacity:1.0; 
stroke:#000000; stroke-width:137.795; stroke-opacity:1; 
stroke-linecap:round; stroke-linejoin:round;">
</g>
<g style="fill:#000000; fill-opacity:1.0; 
stroke:#000000; stroke-width:0; stroke-opacity:1; 
stroke-linecap:round; stroke-linejoin:round;">
<polyline style="fill-rule:evenodd;"
points="31242,-4458
30557,-4458
30557,-4966
31242,-4966
31242,-4458
" /> 
<polyline style="fill-rule:evenodd;"
points="31242,-6033
30557,-6033
30557,-6541
31242,-6541
31242,-6033
" /> 
<circle cx="30900" cy="-5500" r="578.74" /> 
</g>
<g style="fill:#000000; fill-opacity:1.0; 
stroke:#000000; stroke-width:137.795; stroke-opacity:1; 
stroke-linecap:round; stroke-linejoin:round;">
</g>
<g style="fill:#000000; fill-opacity:1.0; 
stroke:#000000; stroke-width:0; stroke-opacity:1; 
stroke-linecap:round; stroke-linejoin:round;">
<polyline style="fill-rule:evenodd;"
points="23885,-2000
23885,-999
22806,-999
22806,-2000
23885,-2000
" /> 
<polyline style="fill-rule:evenodd;"
points="22193,-2000
22193,-999
21114,-999
21114,-2000
22193,-2000
" /> 
<polyline style="fill-rule:evenodd;"
points="27400,-3606
26399,-3606
26399,-4685
27400,-4685
27400,-3606
" /> 
<polyline style="fill-rule:evenodd;"
points="27400,-1914
26399,-1914
26399,-2993
27400,-2993
27400,-1914
" /> 
<polyline style="fill-rule:evenodd;"
points="5626,-8725
6973,-8725
6973,-7843
5626,-7843
5626,-8725
" /> 
<polyline style="fill-rule:evenodd;"
points="5626,-6756
6973,-6756
6973,-5874
5626,-5874
5626,-6756
" /> 
<polyline style="fill-rule:evenodd;"
points="8726,-5706
10073,-5706
10073,-4824
8726,-4824
8726,-5706
" /> 
<polyline style="fill-rule:evenodd;"
points="8726,-7675
10073,-7675
10073,-6793
8726,-6793
8726,-7675
" /> 
<polyline style="fill-rule:evenodd;"
points="17726,-5656
19073,-5656
19073,-4774
17726,-4774
17726,-5656
" /> 
<polyline style="fill-rule:evenodd;"
points="17726,-7625
19073,-7625
19073,-6743
17726,-6743
17726,-7625
" /> 
<polyline style="fill-rule:evenodd;"
points="6802,-12648
8397,-12648
8397,-11242
6802,-11242
6802,-12648
" /> 
<polyline style="fill-rule:evenodd;"
points="6802,-10357
8397,-10357
8397,-8951
6802,-8951
6802,-10357
" /> 
<polyline style="fill-rule:evenodd;"
points="19374,-9026
19374,-10373
20256,-10373
20256,-9026
19374,-9026
" /> 
<polyline style="fill-rule:evenodd;"
points="21343,-9026
21343,-10373
22225,-10373
22225,-9026
21343,-9026
" /> 
<polyline style="fill-rule:evenodd;"
points="16543,-9026
16543,-10373
17425,-10373
17425,-9026
16543,-9026
" /> 
<polyline style="fill-rule:evenodd;"
points="14574,-9026
14574,-10373
15456,-10373
15456,-9026
14574,-9026
" /> 
<polyline style="fill-rule:evenodd;"
points="23374,-10826
23374,-12173
24256,-12173
24256,-10826
23374,-10826
" /> 
<polyline style="fill-rule:evenodd;"
points="25343,-10826
25343,-12173
26225,-12173
26225,-10826
25343,-10826
" /> 
<polyline style="fill-rule:evenodd;"
points="13326,-5656
14673,-5656
14673,-4774
13326,-4774
13326,-5656
" /> 
<polyline style="fill-rule:evenodd;"
points="13326,-7625
14673,-7625
14673,-6743
13326,-6743
13326,-7625
" /> 
<polyline style="fill-rule:evenodd;"
points="22226,-7725
23573,-7725
23573,-6843
22226,-6843
22226,-7725
" /> 
<polyline style="fill-rule:evenodd;"
points="22226,-5756
23573,-5756
23573,-4874
22226,-4874
22226,-5756
" /> 
<polyline style="fill-rule:evenodd;"
points="24126,-6925
25473,-6925
25473,-6043
24126,-6043
24126,-6925
" /> 
<polyline style="fill-rule:evenodd;"
points="24126,-4956
25473,-4956
25473,-4074
24126,-4074
24126,-4956
" /> 
<polyline style="fill-rule:evenodd;"
points="7557,-7171
8242,-7171
8242,-6565
7557,-6565
7557,-7171
" /> 
<polyline style="fill-rule:evenodd;"
points="7262,-7585
8537,-7585
8537,-7214
7262,-7214
7262,-7585
" /> 
<polyline style="fill-rule:evenodd;"
points="7557,-8234
8242,-8234
8242,-7628
7557,-7628
7557,-8234
" /> 
<polyline style="fill-rule:evenodd;"
points="10657,-8134
11342,-8134
11342,-7528
10657,-7528
10657,-8134
" /> 
<polyline style="fill-rule:evenodd;"
points="10362,-7485
11637,-7485
11637,-7114
10362,-7114
10362,-7485
" /> 
<polyline style="fill-rule:evenodd;"
points="10657,-7071
11342,-7071
11342,-6465
10657,-6465
10657,-7071
" /> 
<polyline style="fill-rule:evenodd;"
points="15357,-7071
16042,-7071
16042,-6465
15357,-6465
15357,-7071
" /> 
<polyline style="fill-rule:evenodd;"
points="15062,-7485
16337,-7485
16337,-7114
15062,-7114
15062,-7485
" /> 
<polyline style="fill-rule:evenodd;"
points="15357,-8134
16042,-8134
16042,-7528
15357,-7528
15357,-8134
" /> 
<polyline style="fill-rule:evenodd;"
points="18842,-8365
18157,-8365
18157,-8971
18842,-8971
18842,-8365
" /> 
<polyline style="fill-rule:evenodd;"
points="19137,-9014
17862,-9014
17862,-9385
19137,-9385
19137,-9014
" /> 
<polyline style="fill-rule:evenodd;"
points="18842,-9428
18157,-9428
18157,-10034
18842,-10034
18842,-9428
" /> 
<polyline style="fill-rule:evenodd;"
points="14042,-8365
13357,-8365
13357,-8971
14042,-8971
14042,-8365
" /> 
<polyline style="fill-rule:evenodd;"
points="14337,-9014
13062,-9014
13062,-9385
14337,-9385
14337,-9014
" /> 
<polyline style="fill-rule:evenodd;"
points="14042,-9428
13357,-9428
13357,-10034
14042,-10034
14042,-9428
" /> 
<polyline style="fill-rule:evenodd;"
points="24142,-10028
23457,-10028
23457,-10634
24142,-10634
24142,-10028
" /> 
<polyline style="fill-rule:evenodd;"
points="24437,-9614
23162,-9614
23162,-9985
24437,-9985
24437,-9614
" /> 
<polyline style="fill-rule:evenodd;"
points="24142,-8965
23457,-8965
23457,-9571
24142,-9571
24142,-8965
" /> 
<polyline style="fill-rule:evenodd;"
points="12057,-8134
12742,-8134
12742,-7528
12057,-7528
12057,-8134
" /> 
<polyline style="fill-rule:evenodd;"
points="11762,-7485
13037,-7485
13037,-7114
11762,-7114
11762,-7485
" /> 
<polyline style="fill-rule:evenodd;"
points="12057,-7071
12742,-7071
12742,-6465
12057,-6465
12057,-7071
" /> 
<polyline style="fill-rule:evenodd;"
points="20857,-7171
21542,-7171
21542,-6565
20857,-6565
20857,-7171
" /> 
<polyline style="fill-rule:evenodd;"
points="20562,-7585
21837,-7585
21837,-7214
20562,-7214
20562,-7585
" /> 
<polyline style="fill-rule:evenodd;"
points="20857,-8234
21542,-8234
21542,-7628
20857,-7628
20857,-8234
" /> 
<polyline style="fill-rule:evenodd;"
points="23957,-8834
24642,-8834
24642,-8228
23957,-8228
23957,-8834
" /> 
<polyline style="fill-rule:evenodd;"
points="23662,-8185
24937,-8185
24937,-7814
23662,-7814
23662,-8185
" /> 
<polyline style="fill-rule:evenodd;"
points="23957,-7771
24642,-7771
24642,-7165
23957,-7165
23957,-7771
" /> 
<polyline style="fill-rule:evenodd;"
points="2252,-9852
2252,-10547
2947,-10547
2947,-9852
2252,-9852
" /> 
<polyline style="fill-rule:evenodd;"
points="3452,-5152
3452,-5847
4147,-5847
4147,-5152
3452,-5152
" /> 
<polyline style="fill-rule:evenodd;"
points="2452,-5152
2452,-5847
3147,-5847
3147,-5152
2452,-5152
" /> 
<polyline style="fill-rule:evenodd;"
points="3452,-6152
3452,-6847
4147,-6847
4147,-6152
3452,-6152
" /> 
<polyline style="fill-rule:evenodd;"
points="2452,-6152
2452,-6847
3147,-6847
3147,-6152
2452,-6152
" /> 
<polyline style="fill-rule:evenodd;"
points="3452,-7152
3452,-7847
4147,-7847
4147,-7152
3452,-7152
" /> 
<polyline style="fill-rule:evenodd;"
points="2452,-7152
2452,-7847
3147,-7847
3147,-7152
2452,-7152
" /> 
<polyline style="fill-rule:evenodd;"
points="3452,-8152
3452,-8847
4147,-8847
4147,-8152
3452,-8152
" /> 
<polyline style="fill-rule:evenodd;"
points="2452,-8152
2452,-8847
3147,-8847
3147,-8152
2452,-8152
" /> 
<polyline style="fill-rule:evenodd;"
points="8247,-3752
7552,-3752
7552,-4447
8247,-4447
8247,-3752
" /> 
<polyline style="fill-rule:evenodd;"
points="8247,-2752
7552,-2752
7552,-3447
8247,-3447
8247,-2752
" /> 
<polyline style="fill-rule:evenodd;"
points="7247,-3752
6552,-3752
6552,-4447
7247,-4447
7247,-3752
" /> 
<polyline style="fill-rule:evenodd;"
points="7247,-2752
6552,-2752
6552,-3447
7247,-3447
7247,-2752
" /> 
<polyline style="fill-rule:evenodd;"
points="6247,-3752
5552,-3752
5552,-4447
6247,-4447
6247,-3752
" /> 
<polyline style="fill-rule:evenodd;"
points="6247,-2752
5552,-2752
5552,-3447
6247,-3447
6247,-2752
" /> 
<polyline style="fill-rule:evenodd;"
points="5247,-3752
4552,-3752
4552,-4447
5247,-4447
5247,-3752
" /> 
<polyline style="fill-rule:evenodd;"
points="5247,-2752
4552,-2752
4552,-3447
5247,-3447
5247,-2752
" /> 
<polyline style="fill-rule:evenodd;"
points="15247,-2752
14552,-2752
14552,-3447
15247,-3447
15247,-2752
" /> 
<polyline style="fill-rule:evenodd;"
points="15247,-3752
14552,-3752
14552,-4447
15247,-4447
15247,-3752
" /> 
<polyline style="fill-rule:evenodd;"
points="16247,-2752
15552,-2752
15552,-3447
16247,-3447
16247,-2752
" /> 
<polyline style="fill-rule:evenodd;"
points="16247,-3752
15552,-3752
15552,-4447
16247,-4447
16247,-3752
" /> 
<polyline style="fill-rule:evenodd;"
points="17247,-2752
16552,-2752
16552,-3447
17247,-3447
17247,-2752
" /> 
<polyline style="fill-rule:evenodd;"
points="17247,-3752
16552,-3752
16552,-4447
17247,-4447
17247,-3752
" /> 
<polyline style="fill-rule:evenodd;"
points="18247,-2752
17552,-2752
17552,-3447
18247,-3447
18247,-2752
" /> 
<polyline style="fill-rule:evenodd;"
points="18247,-3752
17552,-3752
17552,-4447
18247,-4447
18247,-3752
" /> 
<polyline style="fill-rule:evenodd;"
points="19247,-11752
18552,-11752
18552,-12447
19247,-12447
19247,-11752
" /> 
<polyline style="fill-rule:evenodd;"
points="19247,-12752
18552,-12752
18552,-13447
19247,-13447
19247,-12752
" /> 
<polyline style="fill-rule:evenodd;"
points="20247,-11752
19552,-11752
19552,-12447
20247,-12447
20247,-11752
" /> 
<polyline style="fill-rule:evenodd;"
points="20247,-12752
19552,-12752
19552,-13447
20247,-13447
20247,-12752
" /> 
<polyline style="fill-rule:evenodd;"
points="21247,-11752
20552,-11752
20552,-12447
21247,-12447
21247,-11752
" /> 
<polyline style="fill-rule:evenodd;"
points="21247,-12752
20552,-12752
20552,-13447
21247,-13447
21247,-12752
" /> 
<polyline style="fill-rule:evenodd;"
points="22247,-11752
21552,-11752
21552,-12447
22247,-12447
22247,-11752
" /> 
<polyline style="fill-rule:evenodd;"
points="22247,-12752
21552,-12752
21552,-13447
22247,-13447
22247,-12752
" /> 
<polyline style="fill-rule:evenodd;"
points="14247,-11752
13552,-11752
13552,-12447
14247,-12447
14247,-11752
" /> 
<polyline style="fill-rule:evenodd;"
points="14247,-12752
13552,-12752
13552,-13447
14247,-13447
14247,-12752
" /> 
<polyline style="fill-rule:evenodd;"
points="15247,-11752
14552,-11752
14552,-12447
15247,-12447
15247,-11752
" /> 
<polyline style="fill-rule:evenodd;"
points="15247,-12752
14552,-12752
14552,-13447
15247,-13447
15247,-12752
" /> 
<polyline style="fill-rule:evenodd;"
points="16247,-11752
15552,-11752
15552,-12447
16247,-12447
16247,-11752
" /> 
<polyline style="fill-rule:evenodd;"
points="16247,-12752
15552,-12752
15552,-13447
16247,-13447
16247,-12752
" /> 
<polyline style="fill-rule:evenodd;"
points="17247,-11752
16552,-11752
16552,-12447
17247,-12447
17247,-11752
" /> 
<polyline style="fill-rule:evenodd;"
points="17247,-12752
16552,-12752
16552,-13447
17247,-13447
17247,-12752
" /> 
<polyline style="fill-rule:evenodd;"
points="29252,-8252
29252,-8947
29947,-8947
29947,-8252
29252,-8252
" /> 
<polyline style="fill-rule:evenodd;"
points="28252,-8252
28252,-8947
28947,-8947
28947,-8252
28252,-8252
" /> 
<polyline style="fill-rule:evenodd;"
points="29252,-9252
29252,-9947
29947,-9947
29947,-9252
29252,-9252
" /> 
<polyline style="fill-rule:evenodd;"
points="28252,-9252
28252,-9947
28947,-9947
28947,-9252
28252,-9252
" /> 
<polyline style="fill-rule:evenodd;"
points="29252,-10252
29252,-10947
29947,-10947
29947,-10252
29252,-10252
" /> 
<polyline style="fill-rule:evenodd;"
points="28252,-10252
28252,-10947
28947,-10947
28947,-10252
28252,-10252
" /> 
<polyline style="fill-rule:evenodd;"
points="29252,-11252
29252,-11947
29947,-11947
29947,-11252
29252,-11252
" /> 
<polyline style="fill-rule:evenodd;"
points="28252,-11252
28252,-11947
28947,-11947
28947,-11252
28252,-11252
" /> 
<polyline style="fill-rule:evenodd;"
points="10247,-2752
9552,-2752
9552,-3447
10247,-3447
10247,-2752
" /> 
<polyline style="fill-rule:evenodd;"
points="10247,-3752
9552,-3752
9552,-4447
10247,-4447
10247,-3752
" /> 
<polyline style="fill-rule:evenodd;"
points="11247,-2752
10552,-2752
10552,-3447
11247,-3447
11247,-2752
" /> 
<polyline style="fill-rule:evenodd;"
points="11247,-3752
10552,-3752
10552,-4447
11247,-4447
11247,-3752
" /> 
<polyline style="fill-rule:evenodd;"
points="12247,-2752
11552,-2752
11552,-3447
12247,-3447
12247,-2752
" /> 
<polyline style="fill-rule:evenodd;"
points="12247,-3752
11552,-3752
11552,-4447
12247,-4447
12247,-3752
" /> 
<polyline style="fill-rule:evenodd;"
points="13247,-2752
12552,-2752
12552,-3447
13247,-3447
13247,-2752
" /> 
<polyline style="fill-rule:evenodd;"
points="13247,-3752
12552,-3752
12552,-4447
13247,-4447
13247,-3752
" /> 
<polyline style="fill-rule:evenodd;"
points="20247,-2752
19552,-2752
19552,-3447
20247,-3447
20247,-2752
" /> 
<polyline style="fill-rule:evenodd;"
points="20247,-3752
19552,-3752
19552,-4447
20247,-4447
20247,-3752
" /> 
<polyline style="fill-rule:evenodd;"
points="21247,-2752
20552,-2752
20552,-3447
21247,-3447
21247,-2752
" /> 
<polyline style="fill-rule:evenodd;"
points="21247,-3752
20552,-3752
20552,-4447
21247,-4447
21247,-3752
" /> 
<polyline style="fill-rule:evenodd;"
points="22247,-2752
21552,-2752
21552,-3447
22247,-3447
22247,-2752
" /> 
<polyline style="fill-rule:evenodd;"
points="22247,-3752
21552,-3752
21552,-4447
22247,-4447
22247,-3752
" /> 
<polyline style="fill-rule:evenodd;"
points="23247,-2752
22552,-2752
22552,-3447
23247,-3447
23247,-2752
" /> 
<polyline style="fill-rule:evenodd;"
points="23247,-3752
22552,-3752
22552,-4447
23247,-4447
23247,-3752
" /> 
<polyline style="fill-rule:evenodd;"
points="29252,-3952
29252,-4647
29947,-4647
29947,-3952
29252,-3952
" /> 
<polyline style="fill-rule:evenodd;"
points="28252,-3952
28252,-4647
28947,-4647
28947,-3952
28252,-3952
" /> 
<polyline style="fill-rule:evenodd;"
points="29252,-4952
29252,-5647
29947,-5647
29947,-4952
29252,-4952
" /> 
<polyline style="fill-rule:evenodd;"
points="28252,-4952
28252,-5647
28947,-5647
28947,-4952
28252,-4952
" /> 
<polyline style="fill-rule:evenodd;"
points="29252,-5952
29252,-6647
29947,-6647
29947,-5952
29252,-5952
" /> 
<polyline style="fill-rule:evenodd;"
points="28252,-5952
28252,-6647
28947,-6647
28947,-5952
28252,-5952
" /> 
<polyline style="fill-rule:evenodd;"
points="29252,-6952
29252,-7647
29947,-7647
29947,-6952
29252,-6952
" /> 
<polyline style="fill-rule:evenodd;"
points="28252,-6952
28252,-7647
28947,-7647
28947,-6952
28252,-6952
" /> 
<circle cx="30000" cy="-14000" r="1228.35" /> 
</g>
<g style="fill:#000000; fill-opacity:1.0; 
stroke:#000000; stroke-width:137.795; stroke-opacity:1; 
stroke-linecap:round; stroke-linejoin:round;">
</g>
<g style="fill:#000000; fill-opacity:1.0; 
stroke:#000000; stroke-width:0; stroke-opacity:1; 
stroke-linecap:round; stroke-linejoin:round;">
<circle cx="30000" cy="-2000" r="1228.35" /> 
</g>
<g style="fill:#000000; fill-opacity:1.0; 
stroke:#000000; stroke-width:137.795; stroke-opacity:1; 
stroke-linecap:round; stroke-linejoin:round;">
</g>
<g style="fill:#000000; fill-opacity:1.0; 
stroke:#000000; stroke-width:0; stroke-opacity:1; 
stroke-linecap:round; stroke-linejoin:round;">
<circle cx="2000" cy="-14000" r="1228.35" /> 
</g>
<g style="fill:#000000; fill-opacity:1.0; 
stroke:#000000; stroke-width:137.795; stroke-opacity:1; 
stroke-linecap:round; stroke-linejoin:round;">
</g>
<g style="fill:#000000; fill-opacity:1.0; 
stroke:#000000; stroke-width:0; stroke-opacity:1; 
stroke-linecap:round; stroke-linejoin:round;">
<circle cx="2000" cy="-2000" r="1228.35" /> 
</g>
<g style="fill:#000000; fill-opacity:1.0; 
stroke:#000000; stroke-width:137.795; stroke-opacity:1; 
stroke-linecap:round; stroke-linejoin:round;">
</g>
<g style="fill:#000000; fill-opacity:1.0; 
stroke:#000000; stroke-width:0; stroke-opacity:1; 
stroke-linecap:round; stroke-linejoin:round;">
<polyline style="fill-rule:evenodd;"
points="1422,-10202
777,-10202
777,-10647
1422,-10647
1422,-10202
" /> 
<polyline style="fill-rule:evenodd;"
points="1422,-10952
777,-10952
777,-11397
1422,-11397
1422,-10952
" /> 
<polyline style="fill-rule:evenodd;"
points="4272,-3402
3627,-3402
3627,-3847
4272,-3847
4272,-3402
" /> 
<polyline style="fill-rule:evenodd;"
points="4272,-2652
3627,-2652
3627,-3097
4272,-3097
4272,-2652
" /> 
<polyline style="fill-rule:evenodd;"
points="13677,-1647
14322,-1647
14322,-1202
13677,-1202
13677,-1647
" /> 
<polyline style="fill-rule:evenodd;"
points="13677,-2397
14322,-2397
14322,-1952
13677,-1952
13677,-2397
" /> 
<polyline style="fill-rule:evenodd;"
points="5322,-7602
4677,-7602
4677,-8047
5322,-8047
5322,-7602
" /> 
<polyline style="fill-rule:evenodd;"
points="5322,-8352
4677,-8352
4677,-8797
5322,-8797
5322,-8352
" /> 
<polyline style="fill-rule:evenodd;"
points="4677,-7097
5322,-7097
5322,-6652
4677,-6652
4677,-7097
" /> 
<polyline style="fill-rule:evenodd;"
points="4677,-6347
5322,-6347
5322,-5902
4677,-5902
4677,-6347
" /> 
<polyline style="fill-rule:evenodd;"
points="5347,-5622
5347,-4977
4902,-4977
4902,-5622
5347,-5622
" /> 
<polyline style="fill-rule:evenodd;"
points="6097,-5622
6097,-4977
5652,-4977
5652,-5622
6097,-5622
" /> 
<polyline style="fill-rule:evenodd;"
points="6402,-4977
6402,-5622
6847,-5622
6847,-4977
6402,-4977
" /> 
<polyline style="fill-rule:evenodd;"
points="7152,-4977
7152,-5622
7597,-5622
7597,-4977
7152,-4977
" /> 
<polyline style="fill-rule:evenodd;"
points="15447,-5622
15447,-4977
15002,-4977
15002,-5622
15447,-5622
" /> 
<polyline style="fill-rule:evenodd;"
points="16197,-5622
16197,-4977
15752,-4977
15752,-5622
16197,-5622
" /> 
<polyline style="fill-rule:evenodd;"
points="17152,-4977
17152,-5622
17597,-5622
17597,-4977
17152,-4977
" /> 
<polyline style="fill-rule:evenodd;"
points="16402,-4977
16402,-5622
16847,-5622
16847,-4977
16402,-4977
" /> 
<polyline style="fill-rule:evenodd;"
points="18177,-14847
18822,-14847
18822,-14402
18177,-14402
18177,-14847
" /> 
<polyline style="fill-rule:evenodd;"
points="18177,-15597
18822,-15597
18822,-15152
18177,-15152
18177,-15597
" /> 
<polyline style="fill-rule:evenodd;"
points="12977,-15597
13622,-15597
13622,-15152
12977,-15152
12977,-15597
" /> 
<polyline style="fill-rule:evenodd;"
points="12977,-14847
13622,-14847
13622,-14402
12977,-14402
12977,-14847
" /> 
<polyline style="fill-rule:evenodd;"
points="31222,-11002
30577,-11002
30577,-11447
31222,-11447
31222,-11002
" /> 
<polyline style="fill-rule:evenodd;"
points="31222,-11752
30577,-11752
30577,-12197
31222,-12197
31222,-11752
" /> 
<polyline style="fill-rule:evenodd;"
points="8377,-1647
9022,-1647
9022,-1202
8377,-1202
8377,-1647
" /> 
<polyline style="fill-rule:evenodd;"
points="8377,-2397
9022,-2397
9022,-1952
8377,-1952
8377,-2397
" /> 
<polyline style="fill-rule:evenodd;"
points="18947,-11322
18947,-10677
18502,-10677
18502,-11322
18947,-11322
" /> 
<polyline style="fill-rule:evenodd;"
points="19697,-11322
19697,-10677
19252,-10677
19252,-11322
19697,-11322
" /> 
<polyline style="fill-rule:evenodd;"
points="20002,-10677
20002,-11322
20447,-11322
20447,-10677
20002,-10677
" /> 
<polyline style="fill-rule:evenodd;"
points="20752,-10677
20752,-11322
21197,-11322
21197,-10677
20752,-10677
" /> 
<polyline style="fill-rule:evenodd;"
points="14797,-11322
14797,-10677
14352,-10677
14352,-11322
14797,-11322
" /> 
<polyline style="fill-rule:evenodd;"
points="14047,-11322
14047,-10677
13602,-10677
13602,-11322
14047,-11322
" /> 
<polyline style="fill-rule:evenodd;"
points="15102,-10677
15102,-11322
15547,-11322
15547,-10677
15102,-10677
" /> 
<polyline style="fill-rule:evenodd;"
points="15852,-10677
15852,-11322
16297,-11322
16297,-10677
15852,-10677
" /> 
<polyline style="fill-rule:evenodd;"
points="27722,-12152
27077,-12152
27077,-12597
27722,-12597
27722,-12152
" /> 
<polyline style="fill-rule:evenodd;"
points="27722,-11402
27077,-11402
27077,-11847
27722,-11847
27722,-11402
" /> 
<polyline style="fill-rule:evenodd;"
points="27077,-10247
27722,-10247
27722,-9802
27077,-9802
27077,-10247
" /> 
<polyline style="fill-rule:evenodd;"
points="27077,-10997
27722,-10997
27722,-10552
27077,-10552
27077,-10997
" /> 
<polyline style="fill-rule:evenodd;"
points="10847,-5622
10847,-4977
10402,-4977
10402,-5622
10847,-5622
" /> 
<polyline style="fill-rule:evenodd;"
points="11597,-5622
11597,-4977
11152,-4977
11152,-5622
11597,-5622
" /> 
<polyline style="fill-rule:evenodd;"
points="12652,-4977
12652,-5622
13097,-5622
13097,-4977
12652,-4977
" /> 
<polyline style="fill-rule:evenodd;"
points="11902,-4977
11902,-5622
12347,-5622
12347,-4977
11902,-4977
" /> 
<polyline style="fill-rule:evenodd;"
points="18877,-2397
19522,-2397
19522,-1952
18877,-1952
18877,-2397
" /> 
<polyline style="fill-rule:evenodd;"
points="18877,-1647
19522,-1647
19522,-1202
18877,-1202
18877,-1647
" /> 
<polyline style="fill-rule:evenodd;"
points="31222,-6702
30577,-6702
30577,-7147
31222,-7147
31222,-6702
" /> 
<polyline style="fill-rule:evenodd;"
points="31222,-7452
30577,-7452
30577,-7897
31222,-7897
31222,-7452
" /> 
<polyline style="fill-rule:evenodd;"
points="19847,-5622
19847,-4977
19402,-4977
19402,-5622
19847,-5622
" /> 
<polyline style="fill-rule:evenodd;"
points="20597,-5622
20597,-4977
20152,-4977
20152,-5622
20597,-5622
" /> 
<polyline style="fill-rule:evenodd;"
points="20802,-4977
20802,-5622
21247,-5622
21247,-4977
20802,-4977
" /> 
<polyline style="fill-rule:evenodd;"
points="21552,-4977
21552,-5622
21997,-5622
21997,-4977
21552,-4977
" /> 
<polyline style="fill-rule:evenodd;"
points="27722,-6702
27077,-6702
27077,-7147
27722,-7147
27722,-6702
" /> 
<polyline style="fill-rule:evenodd;"
points="27722,-7452
27077,-7452
27077,-7897
27722,-7897
27722,-7452
" /> 
<polyline style="fill-rule:evenodd;"
points="27077,-6397
27722,-6397
27722,-5952
27077,-5952
27077,-6397
" /> 
<polyline style="fill-rule:evenodd;"
points="27077,-5647
27722,-5647
27722,-5202
27077,-5202
27077,-5647
" /> 
<polyline style="fill-rule:evenodd;"
points="8802,-13071
8802,-14665
10397,-14665
10397,-13071
8802,-13071
" /> 
<polyline style="fill-rule:evenodd;"
points="8802,-11102
8802,-12697
10397,-12697
10397,-11102
8802,-11102
" /> 
<polyline style="fill-rule:evenodd;"
points="10802,-11102
10802,-12697
12397,-12697
12397,-11102
10802,-11102
" /> 
<polyline style="fill-rule:evenodd;"
points="10802,-13071
10802,-14665
12397,-14665
12397,-13071
10802,-13071
" /> 
</g> 
</svg>
