%FSLAX45Y45*%
G04 Gerber Fmt 4.5, Leading zero omitted, Abs format (unit mm)*
G04 Created by KiCad (PCBNEW no-vcs-found-7571~57~ubuntu16.04.1) date Thu Feb  2 21:17:22 2017*
%MOMM*%
%LPD*%
G01*
G04 APERTURE LIST*
%ADD10C,0.127000*%
%ADD11C,0.150000*%
%ADD12C,0.200000*%
%ADD13C,0.300000*%
G04 APERTURE END LIST*
D10*
D11*
X8102600Y25400D02*
X8102600Y4038600D01*
X25400Y25400D02*
X25400Y4038600D01*
X25400Y4038600D02*
X8102600Y4038600D01*
X25400Y25400D02*
X8102600Y25400D01*
D12*
X144400Y2370200D02*
X414400Y2100200D01*
X414400Y2370200D02*
X144400Y2100200D01*
X1046100Y490600D02*
X1316100Y220600D01*
X1316100Y490600D02*
X1046100Y220600D01*
X2379600Y490600D02*
X2649600Y220600D01*
X2649600Y490600D02*
X2379600Y220600D01*
X3548000Y3894200D02*
X3818000Y3624200D01*
X3818000Y3894200D02*
X3548000Y3624200D01*
X4045840Y503300D02*
X4315840Y233300D01*
X4315840Y503300D02*
X4045840Y233300D01*
X4868800Y3894200D02*
X5138800Y3624200D01*
X5138800Y3894200D02*
X4868800Y3624200D01*
X5356480Y533780D02*
X5626480Y263780D01*
X5626480Y533780D02*
X5356480Y263780D01*
X7713600Y2624200D02*
X7983600Y2354200D01*
X7983600Y2624200D02*
X7713600Y2354200D01*
X7713600Y1532000D02*
X7983600Y1262000D01*
X7983600Y1532000D02*
X7713600Y1262000D01*
D13*
X304328Y-447814D02*
X304328Y-147814D01*
X375757Y-147814D01*
X418614Y-162100D01*
X447186Y-190671D01*
X461471Y-219243D01*
X475757Y-276386D01*
X475757Y-319243D01*
X461471Y-376386D01*
X447186Y-404957D01*
X418614Y-433529D01*
X375757Y-447814D01*
X304328Y-447814D01*
X604328Y-447814D02*
X604328Y-247814D01*
X604328Y-304957D02*
X618614Y-276386D01*
X632900Y-262100D01*
X661471Y-247814D01*
X690043Y-247814D01*
X790043Y-447814D02*
X790043Y-247814D01*
X790043Y-147814D02*
X775757Y-162100D01*
X790043Y-176386D01*
X804328Y-162100D01*
X790043Y-147814D01*
X790043Y-176386D01*
X975757Y-447814D02*
X947186Y-433529D01*
X932900Y-404957D01*
X932900Y-147814D01*
X1132900Y-447814D02*
X1104328Y-433529D01*
X1090043Y-404957D01*
X1090043Y-147814D01*
X1475757Y-447814D02*
X1475757Y-147814D01*
X1575757Y-362100D01*
X1675757Y-147814D01*
X1675757Y-447814D01*
X1947186Y-447814D02*
X1947186Y-290672D01*
X1932900Y-262100D01*
X1904328Y-247814D01*
X1847186Y-247814D01*
X1818614Y-262100D01*
X1947186Y-433529D02*
X1918614Y-447814D01*
X1847186Y-447814D01*
X1818614Y-433529D01*
X1804328Y-404957D01*
X1804328Y-376386D01*
X1818614Y-347814D01*
X1847186Y-333529D01*
X1918614Y-333529D01*
X1947186Y-319243D01*
X2090043Y-247814D02*
X2090043Y-547814D01*
X2090043Y-262100D02*
X2118614Y-247814D01*
X2175757Y-247814D01*
X2204328Y-262100D01*
X2218614Y-276386D01*
X2232900Y-304957D01*
X2232900Y-390671D01*
X2218614Y-419243D01*
X2204328Y-433529D01*
X2175757Y-447814D01*
X2118614Y-447814D01*
X2090043Y-433529D01*
X2361471Y-419243D02*
X2375757Y-433529D01*
X2361471Y-447814D01*
X2347186Y-433529D01*
X2361471Y-419243D01*
X2361471Y-447814D01*
X2361471Y-262100D02*
X2375757Y-276386D01*
X2361471Y-290672D01*
X2347186Y-276386D01*
X2361471Y-262100D01*
X2361471Y-290672D01*
X-252100Y-807100D02*
X17900Y-1077100D01*
X17900Y-807100D02*
X-252100Y-1077100D01*
X290043Y-806386D02*
X304328Y-792100D01*
X332900Y-777814D01*
X404328Y-777814D01*
X432900Y-792100D01*
X447186Y-806386D01*
X461471Y-834957D01*
X461471Y-863529D01*
X447186Y-906386D01*
X275757Y-1077814D01*
X461471Y-1077814D01*
X590043Y-1049243D02*
X604328Y-1063529D01*
X590043Y-1077814D01*
X575757Y-1063529D01*
X590043Y-1049243D01*
X590043Y-1077814D01*
X704328Y-777814D02*
X904328Y-777814D01*
X775757Y-1077814D01*
X1075757Y-777814D02*
X1104328Y-777814D01*
X1132900Y-792100D01*
X1147186Y-806386D01*
X1161471Y-834957D01*
X1175757Y-892100D01*
X1175757Y-963529D01*
X1161471Y-1020671D01*
X1147186Y-1049243D01*
X1132900Y-1063529D01*
X1104328Y-1077814D01*
X1075757Y-1077814D01*
X1047186Y-1063529D01*
X1032900Y-1049243D01*
X1018614Y-1020671D01*
X1004328Y-963529D01*
X1004328Y-892100D01*
X1018614Y-834957D01*
X1032900Y-806386D01*
X1047186Y-792100D01*
X1075757Y-777814D01*
X1304328Y-1077814D02*
X1304328Y-877814D01*
X1304328Y-906386D02*
X1318614Y-892100D01*
X1347186Y-877814D01*
X1390043Y-877814D01*
X1418614Y-892100D01*
X1432900Y-920671D01*
X1432900Y-1077814D01*
X1432900Y-920671D02*
X1447186Y-892100D01*
X1475757Y-877814D01*
X1518614Y-877814D01*
X1547186Y-892100D01*
X1561471Y-920671D01*
X1561471Y-1077814D01*
X1704328Y-1077814D02*
X1704328Y-877814D01*
X1704328Y-906386D02*
X1718614Y-892100D01*
X1747186Y-877814D01*
X1790043Y-877814D01*
X1818614Y-892100D01*
X1832900Y-920671D01*
X1832900Y-1077814D01*
X1832900Y-920671D02*
X1847186Y-892100D01*
X1875757Y-877814D01*
X1918614Y-877814D01*
X1947186Y-892100D01*
X1961471Y-920671D01*
X1961471Y-1077814D01*
X2547186Y-763529D02*
X2290043Y-1149243D01*
X2932900Y-777814D02*
X2961471Y-777814D01*
X2990043Y-792100D01*
X3004328Y-806386D01*
X3018614Y-834957D01*
X3032900Y-892100D01*
X3032900Y-963529D01*
X3018614Y-1020671D01*
X3004328Y-1049243D01*
X2990043Y-1063529D01*
X2961471Y-1077814D01*
X2932900Y-1077814D01*
X2904328Y-1063529D01*
X2890043Y-1049243D01*
X2875757Y-1020671D01*
X2861471Y-963529D01*
X2861471Y-892100D01*
X2875757Y-834957D01*
X2890043Y-806386D01*
X2904328Y-792100D01*
X2932900Y-777814D01*
X3161471Y-1049243D02*
X3175757Y-1063529D01*
X3161471Y-1077814D01*
X3147186Y-1063529D01*
X3161471Y-1049243D01*
X3161471Y-1077814D01*
X3461471Y-1077814D02*
X3290043Y-1077814D01*
X3375757Y-1077814D02*
X3375757Y-777814D01*
X3347186Y-820671D01*
X3318614Y-849243D01*
X3290043Y-863529D01*
X3647186Y-777814D02*
X3675757Y-777814D01*
X3704328Y-792100D01*
X3718614Y-806386D01*
X3732900Y-834957D01*
X3747186Y-892100D01*
X3747186Y-963529D01*
X3732900Y-1020671D01*
X3718614Y-1049243D01*
X3704328Y-1063529D01*
X3675757Y-1077814D01*
X3647186Y-1077814D01*
X3618614Y-1063529D01*
X3604328Y-1049243D01*
X3590043Y-1020671D01*
X3575757Y-963529D01*
X3575757Y-892100D01*
X3590043Y-834957D01*
X3604328Y-806386D01*
X3618614Y-792100D01*
X3647186Y-777814D01*
X4004328Y-777814D02*
X3947186Y-777814D01*
X3918614Y-792100D01*
X3904328Y-806386D01*
X3875757Y-849243D01*
X3861471Y-906386D01*
X3861471Y-1020671D01*
X3875757Y-1049243D01*
X3890043Y-1063529D01*
X3918614Y-1077814D01*
X3975757Y-1077814D01*
X4004328Y-1063529D01*
X4018614Y-1049243D01*
X4032900Y-1020671D01*
X4032900Y-949243D01*
X4018614Y-920671D01*
X4004328Y-906386D01*
X3975757Y-892100D01*
X3918614Y-892100D01*
X3890043Y-906386D01*
X3875757Y-920671D01*
X3861471Y-949243D01*
X4147186Y-777814D02*
X4147186Y-834957D01*
X4261471Y-777814D02*
X4261471Y-834957D01*
X4704328Y-1192100D02*
X4690043Y-1177814D01*
X4661471Y-1134957D01*
X4647186Y-1106386D01*
X4632900Y-1063529D01*
X4618614Y-992100D01*
X4618614Y-934957D01*
X4632900Y-863529D01*
X4647186Y-820671D01*
X4661471Y-792100D01*
X4690043Y-749243D01*
X4704328Y-734957D01*
X4832900Y-1077814D02*
X4890043Y-1077814D01*
X4918614Y-1063529D01*
X4932900Y-1049243D01*
X4961471Y-1006386D01*
X4975757Y-949243D01*
X4975757Y-834957D01*
X4961471Y-806386D01*
X4947186Y-792100D01*
X4918614Y-777814D01*
X4861471Y-777814D01*
X4832900Y-792100D01*
X4818614Y-806386D01*
X4804328Y-834957D01*
X4804328Y-906386D01*
X4818614Y-934957D01*
X4832900Y-949243D01*
X4861471Y-963529D01*
X4918614Y-963529D01*
X4947186Y-949243D01*
X4961471Y-934957D01*
X4975757Y-906386D01*
X5332900Y-1077814D02*
X5332900Y-777814D01*
X5461471Y-1077814D02*
X5461471Y-920671D01*
X5447186Y-892100D01*
X5418614Y-877814D01*
X5375757Y-877814D01*
X5347186Y-892100D01*
X5332900Y-906386D01*
X5647186Y-1077814D02*
X5618614Y-1063529D01*
X5604328Y-1049243D01*
X5590043Y-1020671D01*
X5590043Y-934957D01*
X5604328Y-906386D01*
X5618614Y-892100D01*
X5647186Y-877814D01*
X5690043Y-877814D01*
X5718614Y-892100D01*
X5732900Y-906386D01*
X5747186Y-934957D01*
X5747186Y-1020671D01*
X5732900Y-1049243D01*
X5718614Y-1063529D01*
X5690043Y-1077814D01*
X5647186Y-1077814D01*
X5918614Y-1077814D02*
X5890043Y-1063529D01*
X5875757Y-1034957D01*
X5875757Y-777814D01*
X6147186Y-1063529D02*
X6118614Y-1077814D01*
X6061471Y-1077814D01*
X6032900Y-1063529D01*
X6018614Y-1034957D01*
X6018614Y-920671D01*
X6032900Y-892100D01*
X6061471Y-877814D01*
X6118614Y-877814D01*
X6147186Y-892100D01*
X6161471Y-920671D01*
X6161471Y-949243D01*
X6018614Y-977814D01*
X6275757Y-1063529D02*
X6304328Y-1077814D01*
X6361471Y-1077814D01*
X6390043Y-1063529D01*
X6404328Y-1034957D01*
X6404328Y-1020671D01*
X6390043Y-992100D01*
X6361471Y-977814D01*
X6318614Y-977814D01*
X6290043Y-963529D01*
X6275757Y-934957D01*
X6275757Y-920671D01*
X6290043Y-892100D01*
X6318614Y-877814D01*
X6361471Y-877814D01*
X6390043Y-892100D01*
X6504328Y-1192100D02*
X6518614Y-1177814D01*
X6547186Y-1134957D01*
X6561471Y-1106386D01*
X6575757Y-1063529D01*
X6590043Y-992100D01*
X6590043Y-934957D01*
X6575757Y-863529D01*
X6561471Y-820671D01*
X6547186Y-792100D01*
X6518614Y-749243D01*
X6504328Y-734957D01*
X7047186Y-1192100D02*
X7032900Y-1177814D01*
X7004328Y-1134957D01*
X6990043Y-1106386D01*
X6975757Y-1063529D01*
X6961471Y-992100D01*
X6961471Y-934957D01*
X6975757Y-863529D01*
X6990043Y-820671D01*
X7004328Y-792100D01*
X7032900Y-749243D01*
X7047186Y-734957D01*
X7161471Y-877814D02*
X7161471Y-1077814D01*
X7161471Y-906386D02*
X7175757Y-892100D01*
X7204328Y-877814D01*
X7247186Y-877814D01*
X7275757Y-892100D01*
X7290043Y-920671D01*
X7290043Y-1077814D01*
X7475757Y-1077814D02*
X7447186Y-1063529D01*
X7432900Y-1049243D01*
X7418614Y-1020671D01*
X7418614Y-934957D01*
X7432900Y-906386D01*
X7447186Y-892100D01*
X7475757Y-877814D01*
X7518614Y-877814D01*
X7547186Y-892100D01*
X7561471Y-906386D01*
X7575757Y-934957D01*
X7575757Y-1020671D01*
X7561471Y-1049243D01*
X7547186Y-1063529D01*
X7518614Y-1077814D01*
X7475757Y-1077814D01*
X7661471Y-877814D02*
X7775757Y-877814D01*
X7704328Y-777814D02*
X7704328Y-1034957D01*
X7718614Y-1063529D01*
X7747186Y-1077814D01*
X7775757Y-1077814D01*
X8104328Y-877814D02*
X8104328Y-1177814D01*
X8104328Y-892100D02*
X8132900Y-877814D01*
X8190043Y-877814D01*
X8218614Y-892100D01*
X8232900Y-906386D01*
X8247186Y-934957D01*
X8247186Y-1020671D01*
X8232900Y-1049243D01*
X8218614Y-1063529D01*
X8190043Y-1077814D01*
X8132900Y-1077814D01*
X8104328Y-1063529D01*
X8418614Y-1077814D02*
X8390043Y-1063529D01*
X8375757Y-1034957D01*
X8375757Y-777814D01*
X8661471Y-1077814D02*
X8661471Y-920671D01*
X8647186Y-892100D01*
X8618614Y-877814D01*
X8561471Y-877814D01*
X8532900Y-892100D01*
X8661471Y-1063529D02*
X8632900Y-1077814D01*
X8561471Y-1077814D01*
X8532900Y-1063529D01*
X8518614Y-1034957D01*
X8518614Y-1006386D01*
X8532900Y-977814D01*
X8561471Y-963529D01*
X8632900Y-963529D01*
X8661471Y-949243D01*
X8761471Y-877814D02*
X8875757Y-877814D01*
X8804328Y-777814D02*
X8804328Y-1034957D01*
X8818614Y-1063529D01*
X8847186Y-1077814D01*
X8875757Y-1077814D01*
X9090043Y-1063529D02*
X9061471Y-1077814D01*
X9004328Y-1077814D01*
X8975757Y-1063529D01*
X8961471Y-1034957D01*
X8961471Y-920671D01*
X8975757Y-892100D01*
X9004328Y-877814D01*
X9061471Y-877814D01*
X9090043Y-892100D01*
X9104328Y-920671D01*
X9104328Y-949243D01*
X8961471Y-977814D01*
X9361471Y-1077814D02*
X9361471Y-777814D01*
X9361471Y-1063529D02*
X9332900Y-1077814D01*
X9275757Y-1077814D01*
X9247186Y-1063529D01*
X9232900Y-1049243D01*
X9218614Y-1020671D01*
X9218614Y-934957D01*
X9232900Y-906386D01*
X9247186Y-892100D01*
X9275757Y-877814D01*
X9332900Y-877814D01*
X9361471Y-892100D01*
X9475757Y-1192100D02*
X9490043Y-1177814D01*
X9518614Y-1134957D01*
X9532900Y-1106386D01*
X9547186Y-1063529D01*
X9561471Y-992100D01*
X9561471Y-934957D01*
X9547186Y-863529D01*
X9532900Y-820671D01*
X9518614Y-792100D01*
X9490043Y-749243D01*
X9475757Y-734957D01*
M02*
