<?xml version="1.0" standalone="no"?>
 <!DOCTYPE svg PUBLIC "-//W3C//DTD SVG 1.1//EN" 
 "http://www.w3.org/Graphics/SVG/1.1/DTD/svg11.dtd"> 
<svg xmlns="http://www.w3.org/2000/svg" version="1.1" 
    width="29.7002cm" height="21.0007cm" viewBox="0 0 116930 82680 ">
<title>SVG Picture created as UNIPOWER04A-F_Mask.svg date 2017/01/20 13:42:17 </title>
  <desc>Picture generated by PCBNEW </desc>
<g style="fill:#000000; fill-opacity:1;stroke:#000000; stroke-opacity:1;
stroke-linecap:round; stroke-linejoin:round; "
 transform="translate(0 0) scale(1 1)">
</g>
<g style="fill:#000000; fill-opacity:0.0; 
stroke:#000000; stroke-width:-0.000393701; stroke-opacity:1; 
stroke-linecap:round; stroke-linejoin:round;">
</g>
<g style="fill:#000000; fill-opacity:0.0; 
stroke:#000000; stroke-width:59.0551; stroke-opacity:1; 
stroke-linecap:round; stroke-linejoin:round;">
<path d="M31900 -100
L31900 -15900
" />
<path d="M100 -100
L100 -15900
" />
<path d="M100 -15900
L31900 -15900
" />
<path d="M100 -100
L31900 -100
" />
</g>
<g style="fill:#000000; fill-opacity:0.0; 
stroke:#000000; stroke-width:0; stroke-opacity:1; 
stroke-linecap:round; stroke-linejoin:round;">
</g>
<g style="fill:#000000; fill-opacity:1.0; 
stroke:#000000; stroke-width:0; stroke-opacity:1; 
stroke-linecap:round; stroke-linejoin:round;">
<polyline style="fill-rule:evenodd;"
points="6397,-12143
4802,-12143
4802,-13738
6397,-13738
6397,-12143
" /> 
<polyline style="fill-rule:evenodd;"
points="6397,-9702
4802,-9702
4802,-11297
6397,-11297
6397,-9702
" /> 
<polyline style="fill-rule:evenodd;"
points="4428,-10923
2834,-10923
2834,-12517
4428,-12517
4428,-10923
" /> 
<circle cx="1100" cy="-8800" r="578.74" /> 
</g>
<g style="fill:#000000; fill-opacity:1.0; 
stroke:#000000; stroke-width:137.795; stroke-opacity:1; 
stroke-linecap:round; stroke-linejoin:round;">
</g>
<g style="fill:#000000; fill-opacity:1.0; 
stroke:#000000; stroke-width:0; stroke-opacity:1; 
stroke-linecap:round; stroke-linejoin:round;">
<circle cx="4650" cy="-1400" r="578.74" /> 
</g>
<g style="fill:#000000; fill-opacity:1.0; 
stroke:#000000; stroke-width:137.795; stroke-opacity:1; 
stroke-linecap:round; stroke-linejoin:round;">
</g>
<g style="fill:#000000; fill-opacity:1.0; 
stroke:#000000; stroke-width:0; stroke-opacity:1; 
stroke-linecap:round; stroke-linejoin:round;">
<circle cx="15100" cy="-1400" r="578.74" /> 
</g>
<g style="fill:#000000; fill-opacity:1.0; 
stroke:#000000; stroke-width:137.795; stroke-opacity:1; 
stroke-linecap:round; stroke-linejoin:round;">
</g>
<g style="fill:#000000; fill-opacity:1.0; 
stroke:#000000; stroke-width:0; stroke-opacity:1; 
stroke-linecap:round; stroke-linejoin:round;">
<circle cx="19700" cy="-14800" r="578.74" /> 
</g>
<g style="fill:#000000; fill-opacity:1.0; 
stroke:#000000; stroke-width:137.795; stroke-opacity:1; 
stroke-linecap:round; stroke-linejoin:round;">
</g>
<g style="fill:#000000; fill-opacity:1.0; 
stroke:#000000; stroke-width:0; stroke-opacity:1; 
stroke-linecap:round; stroke-linejoin:round;">
<circle cx="14500" cy="-14800" r="578.74" /> 
</g>
<g style="fill:#000000; fill-opacity:1.0; 
stroke:#000000; stroke-width:137.795; stroke-opacity:1; 
stroke-linecap:round; stroke-linejoin:round;">
</g>
<g style="fill:#000000; fill-opacity:1.0; 
stroke:#000000; stroke-width:0; stroke-opacity:1; 
stroke-linecap:round; stroke-linejoin:round;">
<circle cx="30900" cy="-9800" r="578.74" /> 
</g>
<g style="fill:#000000; fill-opacity:1.0; 
stroke:#000000; stroke-width:137.795; stroke-opacity:1; 
stroke-linecap:round; stroke-linejoin:round;">
</g>
<g style="fill:#000000; fill-opacity:1.0; 
stroke:#000000; stroke-width:0; stroke-opacity:1; 
stroke-linecap:round; stroke-linejoin:round;">
<circle cx="9900" cy="-1400" r="578.74" /> 
</g>
<g style="fill:#000000; fill-opacity:1.0; 
stroke:#000000; stroke-width:137.795; stroke-opacity:1; 
stroke-linecap:round; stroke-linejoin:round;">
</g>
<g style="fill:#000000; fill-opacity:1.0; 
stroke:#000000; stroke-width:0; stroke-opacity:1; 
stroke-linecap:round; stroke-linejoin:round;">
<circle cx="20300" cy="-1400" r="578.74" /> 
</g>
<g style="fill:#000000; fill-opacity:1.0; 
stroke:#000000; stroke-width:137.795; stroke-opacity:1; 
stroke-linecap:round; stroke-linejoin:round;">
</g>
<g style="fill:#000000; fill-opacity:1.0; 
stroke:#000000; stroke-width:0; stroke-opacity:1; 
stroke-linecap:round; stroke-linejoin:round;">
<circle cx="30900" cy="-5500" r="578.74" /> 
</g>
<g style="fill:#000000; fill-opacity:1.0; 
stroke:#000000; stroke-width:137.795; stroke-opacity:1; 
stroke-linecap:round; stroke-linejoin:round;">
</g>
<g style="fill:#000000; fill-opacity:1.0; 
stroke:#000000; stroke-width:0; stroke-opacity:1; 
stroke-linecap:round; stroke-linejoin:round;">
<polyline style="fill-rule:evenodd;"
points="2252,-9852
2252,-10547
2947,-10547
2947,-9852
2252,-9852
" /> 
<polyline style="fill-rule:evenodd;"
points="3452,-5152
3452,-5847
4147,-5847
4147,-5152
3452,-5152
" /> 
<polyline style="fill-rule:evenodd;"
points="2452,-5152
2452,-5847
3147,-5847
3147,-5152
2452,-5152
" /> 
<polyline style="fill-rule:evenodd;"
points="3452,-6152
3452,-6847
4147,-6847
4147,-6152
3452,-6152
" /> 
<polyline style="fill-rule:evenodd;"
points="2452,-6152
2452,-6847
3147,-6847
3147,-6152
2452,-6152
" /> 
<polyline style="fill-rule:evenodd;"
points="3452,-7152
3452,-7847
4147,-7847
4147,-7152
3452,-7152
" /> 
<polyline style="fill-rule:evenodd;"
points="2452,-7152
2452,-7847
3147,-7847
3147,-7152
2452,-7152
" /> 
<polyline style="fill-rule:evenodd;"
points="3452,-8152
3452,-8847
4147,-8847
4147,-8152
3452,-8152
" /> 
<polyline style="fill-rule:evenodd;"
points="2452,-8152
2452,-8847
3147,-8847
3147,-8152
2452,-8152
" /> 
<polyline style="fill-rule:evenodd;"
points="8247,-3752
7552,-3752
7552,-4447
8247,-4447
8247,-3752
" /> 
<polyline style="fill-rule:evenodd;"
points="8247,-2752
7552,-2752
7552,-3447
8247,-3447
8247,-2752
" /> 
<polyline style="fill-rule:evenodd;"
points="7247,-3752
6552,-3752
6552,-4447
7247,-4447
7247,-3752
" /> 
<polyline style="fill-rule:evenodd;"
points="7247,-2752
6552,-2752
6552,-3447
7247,-3447
7247,-2752
" /> 
<polyline style="fill-rule:evenodd;"
points="6247,-3752
5552,-3752
5552,-4447
6247,-4447
6247,-3752
" /> 
<polyline style="fill-rule:evenodd;"
points="6247,-2752
5552,-2752
5552,-3447
6247,-3447
6247,-2752
" /> 
<polyline style="fill-rule:evenodd;"
points="5247,-3752
4552,-3752
4552,-4447
5247,-4447
5247,-3752
" /> 
<polyline style="fill-rule:evenodd;"
points="5247,-2752
4552,-2752
4552,-3447
5247,-3447
5247,-2752
" /> 
<polyline style="fill-rule:evenodd;"
points="15247,-2752
14552,-2752
14552,-3447
15247,-3447
15247,-2752
" /> 
<polyline style="fill-rule:evenodd;"
points="15247,-3752
14552,-3752
14552,-4447
15247,-4447
15247,-3752
" /> 
<polyline style="fill-rule:evenodd;"
points="16247,-2752
15552,-2752
15552,-3447
16247,-3447
16247,-2752
" /> 
<polyline style="fill-rule:evenodd;"
points="16247,-3752
15552,-3752
15552,-4447
16247,-4447
16247,-3752
" /> 
<polyline style="fill-rule:evenodd;"
points="17247,-2752
16552,-2752
16552,-3447
17247,-3447
17247,-2752
" /> 
<polyline style="fill-rule:evenodd;"
points="17247,-3752
16552,-3752
16552,-4447
17247,-4447
17247,-3752
" /> 
<polyline style="fill-rule:evenodd;"
points="18247,-2752
17552,-2752
17552,-3447
18247,-3447
18247,-2752
" /> 
<polyline style="fill-rule:evenodd;"
points="18247,-3752
17552,-3752
17552,-4447
18247,-4447
18247,-3752
" /> 
<polyline style="fill-rule:evenodd;"
points="19247,-11752
18552,-11752
18552,-12447
19247,-12447
19247,-11752
" /> 
<polyline style="fill-rule:evenodd;"
points="19247,-12752
18552,-12752
18552,-13447
19247,-13447
19247,-12752
" /> 
<polyline style="fill-rule:evenodd;"
points="20247,-11752
19552,-11752
19552,-12447
20247,-12447
20247,-11752
" /> 
<polyline style="fill-rule:evenodd;"
points="20247,-12752
19552,-12752
19552,-13447
20247,-13447
20247,-12752
" /> 
<polyline style="fill-rule:evenodd;"
points="21247,-11752
20552,-11752
20552,-12447
21247,-12447
21247,-11752
" /> 
<polyline style="fill-rule:evenodd;"
points="21247,-12752
20552,-12752
20552,-13447
21247,-13447
21247,-12752
" /> 
<polyline style="fill-rule:evenodd;"
points="22247,-11752
21552,-11752
21552,-12447
22247,-12447
22247,-11752
" /> 
<polyline style="fill-rule:evenodd;"
points="22247,-12752
21552,-12752
21552,-13447
22247,-13447
22247,-12752
" /> 
<polyline style="fill-rule:evenodd;"
points="14247,-11752
13552,-11752
13552,-12447
14247,-12447
14247,-11752
" /> 
<polyline style="fill-rule:evenodd;"
points="14247,-12752
13552,-12752
13552,-13447
14247,-13447
14247,-12752
" /> 
<polyline style="fill-rule:evenodd;"
points="15247,-11752
14552,-11752
14552,-12447
15247,-12447
15247,-11752
" /> 
<polyline style="fill-rule:evenodd;"
points="15247,-12752
14552,-12752
14552,-13447
15247,-13447
15247,-12752
" /> 
<polyline style="fill-rule:evenodd;"
points="16247,-11752
15552,-11752
15552,-12447
16247,-12447
16247,-11752
" /> 
<polyline style="fill-rule:evenodd;"
points="16247,-12752
15552,-12752
15552,-13447
16247,-13447
16247,-12752
" /> 
<polyline style="fill-rule:evenodd;"
points="17247,-11752
16552,-11752
16552,-12447
17247,-12447
17247,-11752
" /> 
<polyline style="fill-rule:evenodd;"
points="17247,-12752
16552,-12752
16552,-13447
17247,-13447
17247,-12752
" /> 
<polyline style="fill-rule:evenodd;"
points="29252,-8252
29252,-8947
29947,-8947
29947,-8252
29252,-8252
" /> 
<polyline style="fill-rule:evenodd;"
points="28252,-8252
28252,-8947
28947,-8947
28947,-8252
28252,-8252
" /> 
<polyline style="fill-rule:evenodd;"
points="29252,-9252
29252,-9947
29947,-9947
29947,-9252
29252,-9252
" /> 
<polyline style="fill-rule:evenodd;"
points="28252,-9252
28252,-9947
28947,-9947
28947,-9252
28252,-9252
" /> 
<polyline style="fill-rule:evenodd;"
points="29252,-10252
29252,-10947
29947,-10947
29947,-10252
29252,-10252
" /> 
<polyline style="fill-rule:evenodd;"
points="28252,-10252
28252,-10947
28947,-10947
28947,-10252
28252,-10252
" /> 
<polyline style="fill-rule:evenodd;"
points="29252,-11252
29252,-11947
29947,-11947
29947,-11252
29252,-11252
" /> 
<polyline style="fill-rule:evenodd;"
points="28252,-11252
28252,-11947
28947,-11947
28947,-11252
28252,-11252
" /> 
<polyline style="fill-rule:evenodd;"
points="10247,-2752
9552,-2752
9552,-3447
10247,-3447
10247,-2752
" /> 
<polyline style="fill-rule:evenodd;"
points="10247,-3752
9552,-3752
9552,-4447
10247,-4447
10247,-3752
" /> 
<polyline style="fill-rule:evenodd;"
points="11247,-2752
10552,-2752
10552,-3447
11247,-3447
11247,-2752
" /> 
<polyline style="fill-rule:evenodd;"
points="11247,-3752
10552,-3752
10552,-4447
11247,-4447
11247,-3752
" /> 
<polyline style="fill-rule:evenodd;"
points="12247,-2752
11552,-2752
11552,-3447
12247,-3447
12247,-2752
" /> 
<polyline style="fill-rule:evenodd;"
points="12247,-3752
11552,-3752
11552,-4447
12247,-4447
12247,-3752
" /> 
<polyline style="fill-rule:evenodd;"
points="13247,-2752
12552,-2752
12552,-3447
13247,-3447
13247,-2752
" /> 
<polyline style="fill-rule:evenodd;"
points="13247,-3752
12552,-3752
12552,-4447
13247,-4447
13247,-3752
" /> 
<polyline style="fill-rule:evenodd;"
points="20247,-2752
19552,-2752
19552,-3447
20247,-3447
20247,-2752
" /> 
<polyline style="fill-rule:evenodd;"
points="20247,-3752
19552,-3752
19552,-4447
20247,-4447
20247,-3752
" /> 
<polyline style="fill-rule:evenodd;"
points="21247,-2752
20552,-2752
20552,-3447
21247,-3447
21247,-2752
" /> 
<polyline style="fill-rule:evenodd;"
points="21247,-3752
20552,-3752
20552,-4447
21247,-4447
21247,-3752
" /> 
<polyline style="fill-rule:evenodd;"
points="22247,-2752
21552,-2752
21552,-3447
22247,-3447
22247,-2752
" /> 
<polyline style="fill-rule:evenodd;"
points="22247,-3752
21552,-3752
21552,-4447
22247,-4447
22247,-3752
" /> 
<polyline style="fill-rule:evenodd;"
points="23247,-2752
22552,-2752
22552,-3447
23247,-3447
23247,-2752
" /> 
<polyline style="fill-rule:evenodd;"
points="23247,-3752
22552,-3752
22552,-4447
23247,-4447
23247,-3752
" /> 
<polyline style="fill-rule:evenodd;"
points="29252,-3952
29252,-4647
29947,-4647
29947,-3952
29252,-3952
" /> 
<polyline style="fill-rule:evenodd;"
points="28252,-3952
28252,-4647
28947,-4647
28947,-3952
28252,-3952
" /> 
<polyline style="fill-rule:evenodd;"
points="29252,-4952
29252,-5647
29947,-5647
29947,-4952
29252,-4952
" /> 
<polyline style="fill-rule:evenodd;"
points="28252,-4952
28252,-5647
28947,-5647
28947,-4952
28252,-4952
" /> 
<polyline style="fill-rule:evenodd;"
points="29252,-5952
29252,-6647
29947,-6647
29947,-5952
29252,-5952
" /> 
<polyline style="fill-rule:evenodd;"
points="28252,-5952
28252,-6647
28947,-6647
28947,-5952
28252,-5952
" /> 
<polyline style="fill-rule:evenodd;"
points="29252,-6952
29252,-7647
29947,-7647
29947,-6952
29252,-6952
" /> 
<polyline style="fill-rule:evenodd;"
points="28252,-6952
28252,-7647
28947,-7647
28947,-6952
28252,-6952
" /> 
<circle cx="30000" cy="-14000" r="1228.35" /> 
</g>
<g style="fill:#000000; fill-opacity:1.0; 
stroke:#000000; stroke-width:137.795; stroke-opacity:1; 
stroke-linecap:round; stroke-linejoin:round;">
</g>
<g style="fill:#000000; fill-opacity:1.0; 
stroke:#000000; stroke-width:0; stroke-opacity:1; 
stroke-linecap:round; stroke-linejoin:round;">
<circle cx="30000" cy="-2000" r="1228.35" /> 
</g>
<g style="fill:#000000; fill-opacity:1.0; 
stroke:#000000; stroke-width:137.795; stroke-opacity:1; 
stroke-linecap:round; stroke-linejoin:round;">
</g>
<g style="fill:#000000; fill-opacity:1.0; 
stroke:#000000; stroke-width:0; stroke-opacity:1; 
stroke-linecap:round; stroke-linejoin:round;">
<circle cx="2000" cy="-14000" r="1228.35" /> 
</g>
<g style="fill:#000000; fill-opacity:1.0; 
stroke:#000000; stroke-width:137.795; stroke-opacity:1; 
stroke-linecap:round; stroke-linejoin:round;">
</g>
<g style="fill:#000000; fill-opacity:1.0; 
stroke:#000000; stroke-width:0; stroke-opacity:1; 
stroke-linecap:round; stroke-linejoin:round;">
<circle cx="2000" cy="-2000" r="1228.35" /> 
</g>
<g style="fill:#000000; fill-opacity:1.0; 
stroke:#000000; stroke-width:137.795; stroke-opacity:1; 
stroke-linecap:round; stroke-linejoin:round;">
</g>
<g style="fill:#000000; fill-opacity:1.0; 
stroke:#000000; stroke-width:0; stroke-opacity:1; 
stroke-linecap:round; stroke-linejoin:round;">
<polyline style="fill-rule:evenodd;"
points="8802,-13071
8802,-14665
10397,-14665
10397,-13071
8802,-13071
" /> 
<polyline style="fill-rule:evenodd;"
points="8802,-11102
8802,-12697
10397,-12697
10397,-11102
8802,-11102
" /> 
<polyline style="fill-rule:evenodd;"
points="10802,-11102
10802,-12697
12397,-12697
12397,-11102
10802,-11102
" /> 
<polyline style="fill-rule:evenodd;"
points="10802,-13071
10802,-14665
12397,-14665
12397,-13071
10802,-13071
" /> 
</g> 
</svg>
