<?xml version="1.0" standalone="no"?>
 <!DOCTYPE svg PUBLIC "-//W3C//DTD SVG 1.1//EN" 
 "http://www.w3.org/Graphics/SVG/1.1/DTD/svg11.dtd"> 
<svg xmlns="http://www.w3.org/2000/svg" version="1.1" 
    width="29.7002cm" height="21.0007cm" viewBox="0 0 116930 82680 ">
<title>SVG Picture created as UNIPOWER04A-F_SilkS.svg date 2017/01/20 13:42:17 </title>
  <desc>Picture generated by PCBNEW </desc>
<g style="fill:#000000; fill-opacity:1;stroke:#000000; stroke-opacity:1;
stroke-linecap:round; stroke-linejoin:round; "
 transform="translate(0 0) scale(1 1)">
</g>
<g style="fill:#000000; fill-opacity:0.0; 
stroke:#000000; stroke-width:-0.000393701; stroke-opacity:1; 
stroke-linecap:round; stroke-linejoin:round;">
</g>
<g style="fill:#000000; fill-opacity:0.0; 
stroke:#000000; stroke-width:118.11; stroke-opacity:1; 
stroke-linecap:round; stroke-linejoin:round;">
<path d="M18900 -14123
L18900 -13982
" />
<path d="M18759 -14039
L18900 -13982
L19040 -14039
" />
<path d="M18815 -13870
L18900 -13982
L18984 -13870
" />
<path d="M13800 -14123
L13800 -13982
" />
<path d="M13659 -14039
L13800 -13982
L13940 -14039
" />
<path d="M13715 -13870
L13800 -13982
L13884 -13870
" />
<path d="M4600 -8623
L4600 -8482
" />
<path d="M4459 -8539
L4600 -8482
L4740 -8539
" />
<path d="M4515 -8370
L4600 -8482
L4684 -8370
" />
<path d="M4900 -5023
L4900 -4882
" />
<path d="M4759 -4939
L4900 -4882
L5040 -4939
" />
<path d="M4815 -4770
L4900 -4882
L4984 -4770
" />
<path d="M9900 -5123
L9900 -4982
" />
<path d="M9759 -5039
L9900 -4982
L10040 -5039
" />
<path d="M9815 -4870
L9900 -4982
L9984 -4870
" />
<path d="M14900 -5123
L14900 -4982
" />
<path d="M14759 -5039
L14900 -4982
L15040 -5039
" />
<path d="M14815 -4870
L14900 -4982
L14984 -4870
" />
<path d="M19900 -5023
L19900 -4882
" />
<path d="M19759 -4939
L19900 -4882
L20040 -4939
" />
<path d="M19815 -4770
L19900 -4882
L19984 -4770
" />
<path d="M30400 -7423
L30400 -7282
" />
<path d="M30259 -7339
L30400 -7282
L30540 -7339
" />
<path d="M30315 -7170
L30400 -7282
L30484 -7170
" />
<path d="M30400 -11723
L30400 -11582
" />
<path d="M30259 -11639
L30400 -11582
L30540 -11639
" />
<path d="M30315 -11470
L30400 -11582
L30484 -11470
" />
<path d="M19809 -11323
L19921 -11323
L19978 -11295
L20034 -11239
L20062 -11126
L20062 -10929
L20034 -10817
L19978 -10760
L19921 -10732
L19809 -10732
L19753 -10760
L19696 -10817
L19668 -10929
L19668 -11126
L19696 -11239
L19753 -11295
L19809 -11323
" />
<path d="M20315 -11323
L20315 -10845
L20343 -10789
L20371 -10760
L20428 -10732
L20540 -10732
L20596 -10760
L20624 -10789
L20653 -10845
L20653 -11323
" />
<path d="M20849 -11323
L21187 -11323
" />
<path d="M21018 -10732
L21018 -11323
" />
<path d="M14909 -11323
L15021 -11323
L15078 -11295
L15134 -11239
L15162 -11126
L15162 -10929
L15134 -10817
L15078 -10760
L15021 -10732
L14909 -10732
L14853 -10760
L14796 -10817
L14768 -10929
L14768 -11126
L14796 -11239
L14853 -11295
L14909 -11323
" />
<path d="M15415 -11323
L15415 -10845
L15443 -10789
L15471 -10760
L15528 -10732
L15640 -10732
L15696 -10760
L15724 -10789
L15753 -10845
L15753 -11323
" />
<path d="M15949 -11323
L16287 -11323
" />
<path d="M16118 -10732
L16118 -11323
" />
<path d="M1476 -6509
L1476 -6621
L1504 -6678
L1560 -6734
L1673 -6762
L1870 -6762
L1982 -6734
L2039 -6678
L2067 -6621
L2067 -6509
L2039 -6453
L1982 -6396
L1870 -6368
L1673 -6368
L1560 -6396
L1504 -6453
L1476 -6509
" />
<path d="M1476 -7015
L1954 -7015
L2010 -7043
L2039 -7071
L2067 -7128
L2067 -7240
L2039 -7296
L2010 -7324
L1954 -7353
L1476 -7353
" />
<path d="M1476 -7549
L1476 -7887
" />
<path d="M2067 -7718
L1476 -7718
" />
<path d="M27276 -9509
L27276 -9621
L27304 -9678
L27360 -9734
L27473 -9762
L27670 -9762
L27782 -9734
L27839 -9678
L27867 -9621
L27867 -9509
L27839 -9453
L27782 -9396
L27670 -9368
L27473 -9368
L27360 -9396
L27304 -9453
L27276 -9509
" />
<path d="M27276 -10015
L27754 -10015
L27810 -10043
L27839 -10071
L27867 -10128
L27867 -10240
L27839 -10296
L27810 -10324
L27754 -10353
L27276 -10353
" />
<path d="M27276 -10549
L27276 -10887
" />
<path d="M27867 -10718
L27276 -10718
" />
<path d="M27276 -5209
L27276 -5321
L27304 -5378
L27360 -5434
L27473 -5462
L27670 -5462
L27782 -5434
L27839 -5378
L27867 -5321
L27867 -5209
L27839 -5153
L27782 -5096
L27670 -5068
L27473 -5068
L27360 -5096
L27304 -5153
L27276 -5209
" />
<path d="M27276 -5715
L27754 -5715
L27810 -5743
L27839 -5771
L27867 -5828
L27867 -5940
L27839 -5996
L27810 -6024
L27754 -6053
L27276 -6053
" />
<path d="M27276 -6249
L27276 -6587
" />
<path d="M27867 -6418
L27276 -6418
" />
<path d="M20809 -5423
L20921 -5423
L20978 -5395
L21034 -5339
L21062 -5226
L21062 -5029
L21034 -4917
L20978 -4860
L20921 -4832
L20809 -4832
L20753 -4860
L20696 -4917
L20668 -5029
L20668 -5226
L20696 -5339
L20753 -5395
L20809 -5423
" />
<path d="M21315 -5423
L21315 -4945
L21343 -4889
L21371 -4860
L21428 -4832
L21540 -4832
L21596 -4860
L21624 -4889
L21653 -4945
L21653 -5423
" />
<path d="M21849 -5423
L22187 -5423
" />
<path d="M22018 -4832
L22018 -5423
" />
<path d="M15809 -5423
L15921 -5423
L15978 -5395
L16034 -5339
L16062 -5226
L16062 -5029
L16034 -4917
L15978 -4860
L15921 -4832
L15809 -4832
L15753 -4860
L15696 -4917
L15668 -5029
L15668 -5226
L15696 -5339
L15753 -5395
L15809 -5423
" />
<path d="M16315 -5423
L16315 -4945
L16343 -4889
L16371 -4860
L16428 -4832
L16540 -4832
L16596 -4860
L16624 -4889
L16653 -4945
L16653 -5423
" />
<path d="M16849 -5423
L17187 -5423
" />
<path d="M17018 -4832
L17018 -5423
" />
<path d="M10809 -5423
L10921 -5423
L10978 -5395
L11034 -5339
L11062 -5226
L11062 -5029
L11034 -4917
L10978 -4860
L10921 -4832
L10809 -4832
L10753 -4860
L10696 -4917
L10668 -5029
L10668 -5226
L10696 -5339
L10753 -5395
L10809 -5423
" />
<path d="M11315 -5423
L11315 -4945
L11343 -4889
L11371 -4860
L11428 -4832
L11540 -4832
L11596 -4860
L11624 -4889
L11653 -4945
L11653 -5423
" />
<path d="M11849 -5423
L12187 -5423
" />
<path d="M12018 -4832
L12018 -5423
" />
<path d="M5909 -5423
L6021 -5423
L6078 -5395
L6134 -5339
L6162 -5226
L6162 -5029
L6134 -4917
L6078 -4860
L6021 -4832
L5909 -4832
L5853 -4860
L5796 -4917
L5768 -5029
L5768 -5226
L5796 -5339
L5853 -5395
L5909 -5423
" />
<path d="M6415 -5423
L6415 -4945
L6443 -4889
L6471 -4860
L6528 -4832
L6640 -4832
L6696 -4860
L6724 -4889
L6753 -4945
L6753 -5423
" />
<path d="M6949 -5423
L7287 -5423
" />
<path d="M7118 -4832
L7118 -5423
" />
<path d="M8267 -10561
L7676 -10561
L7676 -10786
L7704 -10842
L7732 -10870
L7789 -10898
L7873 -10898
L7929 -10870
L7957 -10842
L7985 -10786
L7985 -10561
" />
<path d="M7676 -11264
L7676 -11376
L7704 -11432
L7760 -11489
L7873 -11517
L8070 -11517
L8182 -11489
L8239 -11432
L8267 -11376
L8267 -11264
L8239 -11207
L8182 -11151
L8070 -11123
L7873 -11123
L7760 -11151
L7704 -11207
L7676 -11264
" />
<path d="M7676 -11714
L8267 -11854
L7845 -11967
L8267 -12079
L7676 -12220
" />
<path d="M7957 -12445
L7957 -12642
" />
<path d="M8267 -12726
L8267 -12445
L7676 -12445
L7676 -12726
" />
<path d="M8267 -13317
L7985 -13120
" />
<path d="M8267 -12979
L7676 -12979
L7676 -13204
L7704 -13260
L7732 -13288
L7789 -13317
L7873 -13317
L7929 -13288
L7957 -13260
L7985 -13204
L7985 -12979
" />
<path d="M8267 -14020
L7676 -14020
" />
<path d="M8267 -14301
L7676 -14301
L8267 -14638
L7676 -14638
" />
<path d="M16598 -7632
L16598 -8223
L16795 -7801
L16992 -8223
L16992 -7632
" />
<path d="M17554 -7632
L17273 -7632
L17273 -8223
" />
<path d="M17723 -7801
L18004 -7801
" />
<path d="M17667 -7632
L17864 -8223
L18060 -7632
" />
<path d="M18454 -7942
L18539 -7914
L18567 -7885
L18595 -7829
L18595 -7745
L18567 -7689
L18539 -7660
L18482 -7632
L18257 -7632
L18257 -8223
L18454 -8223
L18510 -8195
L18539 -8167
L18567 -8110
L18567 -8054
L18539 -7998
L18510 -7970
L18454 -7942
L18257 -7942
" />
<path d="M18848 -7689
L18876 -7660
L18848 -7632
L18820 -7660
L18848 -7689
L18848 -7632
" />
<path d="M19467 -7689
L19438 -7660
L19354 -7632
L19298 -7632
L19213 -7660
L19157 -7717
L19129 -7773
L19101 -7885
L19101 -7970
L19129 -8082
L19157 -8139
L19213 -8195
L19298 -8223
L19354 -8223
L19438 -8195
L19467 -8167
" />
<path d="M19663 -8223
L20057 -8223
L19663 -7632
L20057 -7632
" />
<path d="M24887 -14167
L24915 -14195
L24971 -14223
L25112 -14223
L25168 -14195
L25196 -14167
L25225 -14110
L25225 -14054
L25196 -13970
L24859 -13632
L25225 -13632
" />
<path d="M25590 -14223
L25646 -14223
L25703 -14195
L25731 -14167
L25759 -14110
L25787 -13998
L25787 -13857
L25759 -13745
L25731 -13689
L25703 -13660
L25646 -13632
L25590 -13632
L25534 -13660
L25506 -13689
L25478 -13745
L25450 -13857
L25450 -13998
L25478 -14110
L25506 -14167
L25534 -14195
L25590 -14223
" />
<path d="M26349 -13632
L26012 -13632
" />
<path d="M26181 -13632
L26181 -14223
L26124 -14139
L26068 -14082
L26012 -14054
" />
<path d="M26546 -14223
L26940 -14223
L26687 -13632
" />
<path d="M24817 -15223
L24817 -14801
L24789 -14717
L24732 -14660
L24648 -14632
L24592 -14632
" />
<path d="M25070 -14801
L25351 -14801
" />
<path d="M25014 -14632
L25211 -15223
L25407 -14632
" />
<path d="M25942 -14689
L25914 -14660
L25829 -14632
L25773 -14632
L25689 -14660
L25632 -14717
L25604 -14773
L25576 -14885
L25576 -14970
L25604 -15082
L25632 -15139
L25689 -15195
L25773 -15223
L25829 -15223
L25914 -15195
L25942 -15167
" />
<path d="M26195 -14632
L26195 -15223
" />
<path d="M26195 -14942
L26532 -14942
" />
<path d="M26532 -14632
L26532 -15223
" />
<path d="M26926 -15223
L27038 -15223
L27095 -15195
L27151 -15139
L27179 -15026
L27179 -14829
L27151 -14717
L27095 -14660
L27038 -14632
L26926 -14632
L26870 -14660
L26813 -14717
L26785 -14829
L26785 -15026
L26813 -15139
L26870 -15195
L26926 -15223
" />
<path d="M15361 -9323
L15361 -8845
L15389 -8789
L15417 -8760
L15473 -8732
L15586 -8732
L15642 -8760
L15670 -8789
L15698 -8845
L15698 -9323
" />
<path d="M15979 -8732
L15979 -9323
L16317 -8732
L16317 -9323
" />
<path d="M16598 -8732
L16598 -9323
" />
<path d="M16879 -8732
L16879 -9323
L17104 -9323
L17161 -9295
L17189 -9267
L17217 -9210
L17217 -9126
L17189 -9070
L17161 -9042
L17104 -9014
L16879 -9014
" />
<path d="M17582 -9323
L17695 -9323
L17751 -9295
L17807 -9239
L17835 -9126
L17835 -8929
L17807 -8817
L17751 -8760
L17695 -8732
L17582 -8732
L17526 -8760
L17470 -8817
L17442 -8929
L17442 -9126
L17470 -9239
L17526 -9295
L17582 -9323
" />
<path d="M18032 -9323
L18173 -8732
L18285 -9154
L18398 -8732
L18539 -9323
" />
<path d="M18764 -9042
L18960 -9042
" />
<path d="M19045 -8732
L18764 -8732
L18764 -9323
L19045 -9323
" />
<path d="M19635 -8732
L19438 -9014
" />
<path d="M19298 -8732
L19298 -9323
L19523 -9323
L19579 -9295
L19607 -9267
L19635 -9210
L19635 -9126
L19607 -9070
L19579 -9042
L19523 -9014
L19298 -9014
" />
<path d="M20001 -9323
L20057 -9323
L20113 -9295
L20141 -9267
L20170 -9210
L20198 -9098
L20198 -8957
L20170 -8845
L20141 -8789
L20113 -8760
L20057 -8732
L20001 -8732
L19945 -8760
L19916 -8789
L19888 -8845
L19860 -8957
L19860 -9098
L19888 -9210
L19916 -9267
L19945 -9295
L20001 -9323
" />
<path d="M20704 -9126
L20704 -8732
" />
<path d="M20563 -9351
L20423 -8929
L20788 -8929
" />
<path d="M20985 -8901
L21266 -8901
" />
<path d="M20929 -8732
L21126 -9323
L21323 -8732
" />
<path d="M11375 -9657
L11824 -9657
" />
<path d="M9375 -9657
L9824 -9657
" />
<path d="M9600 -9432
L9600 -9882
" />
</g>
<g style="fill:#000000; fill-opacity:0.0; 
stroke:#000000; stroke-width:59.0551; stroke-opacity:1; 
stroke-linecap:round; stroke-linejoin:round;">
<path d="M31900 -100
L31900 -15900
" />
<path d="M100 -100
L100 -15900
" />
<path d="M100 -15900
L31900 -15900
" />
<path d="M100 -100
L31900 -100
" />
</g>
<g style="fill:#000000; fill-opacity:0.0; 
stroke:#000000; stroke-width:50; stroke-opacity:1; 
stroke-linecap:round; stroke-linejoin:round;">
<path d="M3828 -15893
L3828 -9594
" />
<path d="M7371 -15893
L3828 -15893
" />
<path d="M7371 -9594
L7371 -15893
" />
<path d="M3828 -9594
L7371 -9594
" />
</g>
<g style="fill:#000000; fill-opacity:0.0; 
stroke:#000000; stroke-width:59.0551; stroke-opacity:1; 
stroke-linecap:round; stroke-linejoin:round;">
<path d="M2100 -10700
L3100 -10700
" />
<path d="M3100 -10700
L3100 -9700
" />
<path d="M3100 -9700
L2100 -9700
" />
<path d="M2100 -9700
L2100 -10700
" />
<path d="M2300 -5000
L2300 -9000
" />
<path d="M4300 -5000
L2300 -5000
" />
<path d="M4300 -9000
L4300 -5000
" />
<path d="M2300 -9000
L4300 -9000
" />
<path d="M8400 -2600
L4400 -2600
" />
<path d="M8400 -4600
L8400 -2600
" />
<path d="M4400 -4600
L8400 -4600
" />
<path d="M4400 -2600
L4400 -4600
" />
<path d="M14400 -2600
L14400 -4600
" />
<path d="M14400 -4600
L18400 -4600
" />
<path d="M18400 -4600
L18400 -2600
" />
<path d="M18400 -2600
L14400 -2600
" />
<path d="M18400 -11600
L18400 -13600
" />
<path d="M18400 -13600
L22400 -13600
" />
<path d="M22400 -13600
L22400 -11600
" />
<path d="M22400 -11600
L18400 -11600
" />
<path d="M13400 -11600
L13400 -13600
" />
<path d="M13400 -13600
L17400 -13600
" />
<path d="M17400 -13600
L17400 -11600
" />
<path d="M17400 -11600
L13400 -11600
" />
<path d="M28100 -8100
L28100 -12100
" />
<path d="M30100 -8100
L28100 -8100
" />
<path d="M30100 -12100
L30100 -8100
" />
<path d="M28100 -12100
L30100 -12100
" />
<path d="M9400 -2600
L9400 -4600
" />
<path d="M9400 -4600
L13400 -4600
" />
<path d="M13400 -4600
L13400 -2600
" />
<path d="M13400 -2600
L9400 -2600
" />
<path d="M19400 -2600
L19400 -4600
" />
<path d="M19400 -4600
L23400 -4600
" />
<path d="M23400 -4600
L23400 -2600
" />
<path d="M23400 -2600
L19400 -2600
" />
<path d="M28100 -3800
L28100 -7800
" />
<path d="M30100 -3800
L28100 -3800
" />
<path d="M30100 -7800
L30100 -3800
" />
<path d="M28100 -7800
L30100 -7800
" />
<path d="M8615 -9931
L8812 -9931
" />
<path d="M10387 -9931
L10584 -9931
" />
<path d="M8615 -12293
L10584 -12293
" />
<path d="M8615 -15837
L10584 -15837
" />
<path d="M9009 -9144
L10190 -9144
" />
<path d="M9009 -10128
L10190 -10128
" />
<path d="M10387 -8947
L8812 -8947
" />
<path d="M10387 -10325
L8812 -10325
" />
<path d="M9009 -11506
L10190 -11506
" />
<path d="M10387 -12490
L8812 -12490
" />
<path d="M8812 -15640
L10387 -15640
" />
<path d="M9206 -12490
L9206 -12293
" />
<path d="M9009 -10128
L9009 -9144
" />
<path d="M8812 -10325
L8812 -8947
" />
<path d="M9993 -12490
L9993 -12293
" />
<path d="M10190 -10128
L10190 -9144
" />
<path d="M10387 -10325
L10387 -8946
" />
<path d="M9009 -11506
L9009 -10325
" />
<path d="M8812 -15640
L8812 -12490
" />
<path d="M8615 -12293
L8615 -9931
" />
<path d="M10190 -11506
L10190 -10325
" />
<path d="M10387 -15640
L10387 -12490
" />
<path d="M10584 -12293
L10584 -9931
" />
<path d="M8615 -12293
L8615 -15837
" />
<path d="M10584 -15837
L10584 -12293
" />
<path d="M12584 -15837
L12584 -12293
" />
<path d="M10615 -12293
L10615 -15837
" />
<path d="M12584 -12293
L12584 -9931
" />
<path d="M12387 -15640
L12387 -12490
" />
<path d="M12190 -11506
L12190 -10325
" />
<path d="M10615 -12293
L10615 -9931
" />
<path d="M10812 -15640
L10812 -12490
" />
<path d="M11009 -11506
L11009 -10325
" />
<path d="M12387 -10325
L12387 -8946
" />
<path d="M12190 -10128
L12190 -9144
" />
<path d="M11993 -12490
L11993 -12293
" />
<path d="M10812 -10325
L10812 -8947
" />
<path d="M11009 -10128
L11009 -9144
" />
<path d="M11206 -12490
L11206 -12293
" />
<path d="M10812 -15640
L12387 -15640
" />
<path d="M12387 -12490
L10812 -12490
" />
<path d="M11009 -11506
L12190 -11506
" />
<path d="M12387 -10325
L10812 -10325
" />
<path d="M12387 -8947
L10812 -8947
" />
<path d="M11009 -10128
L12190 -10128
" />
<path d="M11009 -9144
L12190 -9144
" />
<path d="M10615 -15837
L12584 -15837
" />
<path d="M10615 -12293
L12584 -12293
" />
<path d="M12387 -9931
L12584 -9931
" />
<path d="M10615 -9931
L10812 -9931
" />
</g>
<g style="fill:#000000; fill-opacity:0.0; 
stroke:#000000; stroke-width:80; stroke-opacity:1; 
stroke-linecap:round; stroke-linejoin:round;">
<path d="M3472 -14209
L3491 -14190
L3510 -14133
L3510 -14095
L3491 -14037
L3453 -13999
L3415 -13980
L3339 -13961
L3282 -13961
L3206 -13980
L3168 -13999
L3130 -14037
L3110 -14095
L3110 -14133
L3130 -14190
L3149 -14209
" />
<path d="M3110 -14456
L3110 -14533
L3130 -14571
L3168 -14609
L3244 -14628
L3377 -14628
L3453 -14609
L3491 -14571
L3510 -14533
L3510 -14456
L3491 -14418
L3453 -14380
L3377 -14361
L3244 -14361
L3168 -14380
L3130 -14418
L3110 -14456
" />
<path d="M3510 -14799
L3110 -14799
L3510 -15028
L3110 -15028
" />
<path d="M3510 -15428
L3510 -15199
" />
<path d="M3510 -15314
L3110 -15314
L3168 -15275
L3206 -15237
L3225 -15199
" />
</g>
<g style="fill:#000000; fill-opacity:0.0; 
stroke:#000000; stroke-width:19.685; stroke-opacity:1; 
stroke-linecap:round; stroke-linejoin:round;">
<path d="M2206 -8410
L2093 -8410
" />
<path d="M2150 -8410
L2150 -8607
L2131 -8579
L2112 -8560
L2093 -8551
" />
<path d="M4989 -2506
L4989 -2393
" />
<path d="M4989 -2450
L4792 -2450
L4820 -2431
L4839 -2412
L4848 -2393
" />
<path d="M14989 -2506
L14989 -2393
" />
<path d="M14989 -2450
L14792 -2450
L14820 -2431
L14839 -2412
L14848 -2393
" />
<path d="M18989 -11506
L18989 -11393
" />
<path d="M18989 -11450
L18792 -11450
L18820 -11431
L18839 -11412
L18848 -11393
" />
<path d="M13989 -11506
L13989 -11393
" />
<path d="M13989 -11450
L13792 -11450
L13820 -11431
L13839 -11412
L13848 -11393
" />
<path d="M28006 -11510
L27893 -11510
" />
<path d="M27950 -11510
L27950 -11707
L27931 -11679
L27912 -11660
L27893 -11651
" />
<path d="M9989 -2506
L9989 -2393
" />
<path d="M9989 -2450
L9792 -2450
L9820 -2431
L9839 -2412
L9848 -2393
" />
<path d="M19989 -2506
L19989 -2393
" />
<path d="M19989 -2450
L19792 -2450
L19820 -2431
L19839 -2412
L19848 -2393
" />
<path d="M28006 -7210
L27893 -7210
" />
<path d="M27950 -7210
L27950 -7407
L27931 -7379
L27912 -7360
L27893 -7351
" />
</g>
<g style="fill:#000000; fill-opacity:0.0; 
stroke:#000000; stroke-width:120; stroke-opacity:1; 
stroke-linecap:round; stroke-linejoin:round;">
<path d="M9114 -15528
L9114 -15100
L9085 -15014
L9028 -14957
L8942 -14928
L8885 -14928
" />
<path d="M9714 -14928
L9371 -14928
" />
<path d="M9542 -14928
L9542 -15528
L9485 -15442
L9428 -15385
L9371 -15357
" />
<path d="M9942 -15471
L9971 -15500
L10028 -15528
L10171 -15528
L10228 -15500
L10257 -15471
L10285 -15414
L10285 -15357
L10257 -15271
L9914 -14928
L10285 -14928
" />
<path d="M11114 -15528
L11114 -15100
L11085 -15014
L11028 -14957
L10942 -14928
L10885 -14928
" />
<path d="M11714 -14928
L11371 -14928
" />
<path d="M11542 -14928
L11542 -15528
L11485 -15442
L11428 -15385
L11371 -15357
" />
<path d="M11914 -15528
L12285 -15528
L12085 -15300
L12171 -15300
L12228 -15271
L12257 -15242
L12285 -15185
L12285 -15042
L12257 -14985
L12228 -14957
L12171 -14928
L12000 -14928
L11942 -14957
L11914 -14985
" />
</g> 
</svg>
