<?xml version="1.0" standalone="no"?>
 <!DOCTYPE svg PUBLIC "-//W3C//DTD SVG 1.1//EN" 
 "http://www.w3.org/Graphics/SVG/1.1/DTD/svg11.dtd"> 
<svg xmlns="http://www.w3.org/2000/svg" version="1.1" 
    width="29.7002cm" height="21.0007cm" viewBox="0 0 116930 82680 ">
<title>SVG Picture created as UNIPOWER04A-PTH-drl_map.svg date 2017/01/20 13:42:17 </title>
  <desc>Picture generated by PCBNEW </desc>
<g style="fill:#000000; fill-opacity:1;stroke:#000000; stroke-opacity:1;
stroke-linecap:round; stroke-linejoin:round; "
 transform="translate(0 0) scale(1 1)">
</g>
<g style="fill:#000000; fill-opacity:0.0; 
stroke:#000000; stroke-width:-0.000393701; stroke-opacity:1; 
stroke-linecap:round; stroke-linejoin:round;">
</g>
<g style="fill:#000000; fill-opacity:0.0; 
stroke:#000000; stroke-width:59.0551; stroke-opacity:1; 
stroke-linecap:round; stroke-linejoin:round;">
<path d="M31900 -100
L31900 -15900
" />
<path d="M100 -100
L100 -15900
" />
<path d="M100 -15900
L31900 -15900
" />
<path d="M100 -100
L31900 -100
" />
</g>
<g style="fill:#000000; fill-opacity:0.0; 
stroke:#000000; stroke-width:78.7402; stroke-opacity:1; 
stroke-linecap:round; stroke-linejoin:round;">
<path d="M621 -4278
L778 -4121
" />
<path d="M778 -4278
L621 -4121
" />
<path d="M1121 -4278
L1278 -4121
" />
<path d="M1278 -4278
L1121 -4121
" />
<path d="M1621 -4278
L1778 -4121
" />
<path d="M1778 -4278
L1621 -4121
" />
<path d="M2321 -4778
L2478 -4621
" />
<path d="M2478 -4778
L2321 -4621
" />
<path d="M2321 -4278
L2478 -4121
" />
<path d="M2478 -4278
L2321 -4121
" />
<path d="M2721 -9378
L2878 -9221
" />
<path d="M2878 -9378
L2721 -9221
" />
<path d="M2821 -4778
L2978 -4621
" />
<path d="M2978 -4778
L2821 -4621
" />
<path d="M2821 -4278
L2978 -4121
" />
<path d="M2978 -4278
L2821 -4121
" />
<path d="M3221 -9378
L3378 -9221
" />
<path d="M3378 -9378
L3221 -9221
" />
<path d="M3421 -4778
L3578 -4621
" />
<path d="M3578 -4778
L3421 -4621
" />
<path d="M3421 -4278
L3578 -4121
" />
<path d="M3578 -4278
L3421 -4121
" />
<path d="M3721 -9378
L3878 -9221
" />
<path d="M3878 -9378
L3721 -9221
" />
<path d="M3921 -4778
L4078 -4621
" />
<path d="M4078 -4778
L3921 -4621
" />
<path d="M3921 -4278
L4078 -4121
" />
<path d="M4078 -4278
L3921 -4121
" />
<path d="M4121 -9378
L4278 -9221
" />
<path d="M4278 -9378
L4121 -9221
" />
<path d="M4421 -14178
L4578 -14021
" />
<path d="M4578 -14178
L4421 -14021
" />
<path d="M4421 -13678
L4578 -13521
" />
<path d="M4578 -13678
L4421 -13521
" />
<path d="M4421 -13078
L4578 -12921
" />
<path d="M4578 -13078
L4421 -12921
" />
<path d="M4721 -11878
L4878 -11721
" />
<path d="M4878 -11878
L4721 -11721
" />
<path d="M5021 -14178
L5178 -14021
" />
<path d="M5178 -14178
L5021 -14021
" />
<path d="M5121 -11878
L5278 -11721
" />
<path d="M5278 -11878
L5121 -11721
" />
<path d="M5621 -14178
L5778 -14021
" />
<path d="M5778 -14178
L5621 -14021
" />
<path d="M5721 -11878
L5878 -11721
" />
<path d="M5878 -11878
L5721 -11721
" />
<path d="M6221 -14178
L6378 -14021
" />
<path d="M6378 -14178
L6221 -14021
" />
<path d="M6721 -13978
L6878 -13821
" />
<path d="M6878 -13978
L6721 -13821
" />
<path d="M7021 -2378
L7178 -2221
" />
<path d="M7178 -2378
L7021 -2221
" />
<path d="M7521 -2378
L7678 -2221
" />
<path d="M7678 -2378
L7521 -2221
" />
<path d="M7921 -2378
L8078 -2221
" />
<path d="M8078 -2378
L7921 -2221
" />
<path d="M8621 -4478
L8778 -4321
" />
<path d="M8778 -4478
L8621 -4321
" />
<path d="M8621 -3978
L8778 -3821
" />
<path d="M8778 -3978
L8621 -3821
" />
<path d="M8621 -3478
L8778 -3321
" />
<path d="M8778 -3478
L8621 -3321
" />
<path d="M8621 -2978
L8778 -2821
" />
<path d="M8778 -2978
L8621 -2821
" />
<path d="M9021 -4478
L9178 -4321
" />
<path d="M9178 -4478
L9021 -4321
" />
<path d="M9021 -3978
L9178 -3821
" />
<path d="M9178 -3978
L9021 -3821
" />
<path d="M9021 -3478
L9178 -3321
" />
<path d="M9178 -3478
L9021 -3321
" />
<path d="M9021 -2978
L9178 -2821
" />
<path d="M9178 -2978
L9021 -2821
" />
<path d="M10221 -10878
L10378 -10721
" />
<path d="M10378 -10878
L10221 -10721
" />
<path d="M10721 -10878
L10878 -10721
" />
<path d="M10878 -10878
L10721 -10721
" />
<path d="M11221 -10878
L11378 -10721
" />
<path d="M11378 -10878
L11221 -10721
" />
<path d="M11721 -10878
L11878 -10721
" />
<path d="M11878 -10878
L11721 -10721
" />
<path d="M12221 -10878
L12378 -10721
" />
<path d="M12378 -10878
L12221 -10721
" />
<path d="M12421 -2278
L12578 -2121
" />
<path d="M12578 -2278
L12421 -2121
" />
<path d="M12721 -11978
L12878 -11821
" />
<path d="M12878 -11978
L12721 -11821
" />
<path d="M12721 -11478
L12878 -11321
" />
<path d="M12878 -11478
L12721 -11321
" />
<path d="M12721 -10978
L12878 -10821
" />
<path d="M12878 -10978
L12721 -10821
" />
<path d="M12821 -2278
L12978 -2121
" />
<path d="M12978 -2278
L12821 -2121
" />
<path d="M13021 -14078
L13178 -13921
" />
<path d="M13178 -14078
L13021 -13921
" />
<path d="M13121 -13578
L13278 -13421
" />
<path d="M13278 -13578
L13121 -13421
" />
<path d="M13121 -13078
L13278 -12921
" />
<path d="M13278 -13078
L13121 -12921
" />
<path d="M13121 -12578
L13278 -12421
" />
<path d="M13278 -12578
L13121 -12421
" />
<path d="M13121 -12078
L13278 -11921
" />
<path d="M13278 -12078
L13121 -11921
" />
<path d="M13221 -2278
L13378 -2121
" />
<path d="M13378 -2278
L13221 -2121
" />
<path d="M13521 -14078
L13678 -13921
" />
<path d="M13678 -14078
L13521 -13921
" />
<path d="M13621 -4578
L13778 -4421
" />
<path d="M13778 -4578
L13621 -4421
" />
<path d="M13621 -4178
L13778 -4021
" />
<path d="M13778 -4178
L13621 -4021
" />
<path d="M13621 -3678
L13778 -3521
" />
<path d="M13778 -3678
L13621 -3521
" />
<path d="M13621 -3178
L13778 -3021
" />
<path d="M13778 -3178
L13621 -3021
" />
<path d="M14121 -4578
L14278 -4421
" />
<path d="M14278 -4578
L14121 -4421
" />
<path d="M14121 -4178
L14278 -4021
" />
<path d="M14278 -4178
L14121 -4021
" />
<path d="M14121 -3678
L14278 -3521
" />
<path d="M14278 -3678
L14121 -3521
" />
<path d="M14121 -3178
L14278 -3021
" />
<path d="M14278 -3178
L14121 -3021
" />
<path d="M16621 -15478
L16778 -15321
" />
<path d="M16778 -15478
L16621 -15321
" />
<path d="M16621 -14978
L16778 -14821
" />
<path d="M16778 -14978
L16621 -14821
" />
<path d="M16621 -14478
L16778 -14321
" />
<path d="M16778 -14478
L16621 -14321
" />
<path d="M16621 -14078
L16778 -13921
" />
<path d="M16778 -14078
L16621 -13921
" />
<path d="M17521 -2478
L17678 -2321
" />
<path d="M17678 -2478
L17521 -2321
" />
<path d="M17621 -13878
L17778 -13721
" />
<path d="M17778 -13878
L17621 -13721
" />
<path d="M17621 -13378
L17778 -13221
" />
<path d="M17778 -13378
L17621 -13221
" />
<path d="M17621 -12878
L17778 -12721
" />
<path d="M17778 -12878
L17621 -12721
" />
<path d="M17621 -12378
L17778 -12221
" />
<path d="M17778 -12378
L17621 -12221
" />
<path d="M17621 -11878
L17778 -11721
" />
<path d="M17778 -11878
L17621 -11721
" />
<path d="M18021 -2478
L18178 -2321
" />
<path d="M18178 -2478
L18021 -2321
" />
<path d="M18121 -13878
L18278 -13721
" />
<path d="M18278 -13878
L18121 -13721
" />
<path d="M18121 -13378
L18278 -13221
" />
<path d="M18278 -13378
L18121 -13221
" />
<path d="M18121 -12878
L18278 -12721
" />
<path d="M18278 -12878
L18121 -12721
" />
<path d="M18121 -12378
L18278 -12221
" />
<path d="M18278 -12378
L18121 -12221
" />
<path d="M18121 -11878
L18278 -11721
" />
<path d="M18278 -11878
L18121 -11721
" />
<path d="M18421 -2378
L18578 -2221
" />
<path d="M18578 -2378
L18421 -2221
" />
<path d="M18621 -4478
L18778 -4321
" />
<path d="M18778 -4478
L18621 -4321
" />
<path d="M18621 -3978
L18778 -3821
" />
<path d="M18778 -3978
L18621 -3821
" />
<path d="M18621 -3478
L18778 -3321
" />
<path d="M18778 -3478
L18621 -3321
" />
<path d="M18621 -2978
L18778 -2821
" />
<path d="M18778 -2978
L18621 -2821
" />
<path d="M19121 -4478
L19278 -4321
" />
<path d="M19278 -4478
L19121 -4321
" />
<path d="M19121 -3978
L19278 -3821
" />
<path d="M19278 -3978
L19121 -3821
" />
<path d="M19121 -3478
L19278 -3321
" />
<path d="M19278 -3478
L19121 -3321
" />
<path d="M19121 -2978
L19278 -2821
" />
<path d="M19278 -2978
L19121 -2821
" />
<path d="M21921 -15278
L22078 -15121
" />
<path d="M22078 -15278
L21921 -15121
" />
<path d="M21921 -14878
L22078 -14721
" />
<path d="M22078 -14878
L21921 -14721
" />
<path d="M21921 -14378
L22078 -14221
" />
<path d="M22078 -14378
L21921 -14221
" />
<path d="M22521 -13578
L22678 -13421
" />
<path d="M22678 -13578
L22521 -13421
" />
<path d="M22521 -13078
L22678 -12921
" />
<path d="M22678 -13078
L22521 -12921
" />
<path d="M22521 -12478
L22678 -12321
" />
<path d="M22678 -12478
L22521 -12321
" />
<path d="M22521 -11878
L22678 -11721
" />
<path d="M22678 -11878
L22521 -11721
" />
<path d="M22521 -11378
L22678 -11221
" />
<path d="M22678 -11378
L22521 -11221
" />
<path d="M23021 -13578
L23178 -13421
" />
<path d="M23178 -13578
L23021 -13421
" />
<path d="M23021 -13078
L23178 -12921
" />
<path d="M23178 -13078
L23021 -12921
" />
<path d="M23021 -12478
L23178 -12321
" />
<path d="M23178 -12478
L23021 -12321
" />
<path d="M23021 -11878
L23178 -11721
" />
<path d="M23178 -11878
L23021 -11721
" />
<path d="M23021 -11378
L23178 -11221
" />
<path d="M23178 -11378
L23021 -11221
" />
<path d="M23521 -4678
L23678 -4521
" />
<path d="M23678 -4678
L23521 -4521
" />
<path d="M23521 -4178
L23678 -4021
" />
<path d="M23678 -4178
L23521 -4021
" />
<path d="M23521 -3678
L23678 -3521
" />
<path d="M23678 -3678
L23521 -3521
" />
<path d="M23521 -3178
L23678 -3021
" />
<path d="M23678 -3178
L23521 -3021
" />
<path d="M23521 -2778
L23678 -2621
" />
<path d="M23678 -2778
L23521 -2621
" />
<path d="M24021 -3678
L24178 -3521
" />
<path d="M24178 -3678
L24021 -3521
" />
<path d="M24021 -3178
L24178 -3021
" />
<path d="M24178 -3178
L24021 -3021
" />
<path d="M24021 -2778
L24178 -2621
" />
<path d="M24178 -2778
L24021 -2621
" />
<path d="M24221 -2078
L24378 -1921
" />
<path d="M24378 -2078
L24221 -1921
" />
<path d="M24221 -1578
L24378 -1421
" />
<path d="M24378 -1578
L24221 -1421
" />
<path d="M24221 -1078
L24378 -921
" />
<path d="M24378 -1078
L24221 -921
" />
<path d="M25021 -8578
L25178 -8421
" />
<path d="M25178 -8578
L25021 -8421
" />
<path d="M25121 -9178
L25278 -9021
" />
<path d="M25278 -9178
L25121 -9021
" />
<path d="M25321 -7478
L25478 -7321
" />
<path d="M25478 -7478
L25321 -7321
" />
<path d="M25721 -9178
L25878 -9021
" />
<path d="M25878 -9178
L25721 -9021
" />
<path d="M26021 -7478
L26178 -7321
" />
<path d="M26178 -7478
L26021 -7321
" />
<path d="M26221 -3378
L26378 -3221
" />
<path d="M26378 -3378
L26221 -3221
" />
<path d="M26321 -9178
L26478 -9021
" />
<path d="M26478 -9178
L26321 -9021
" />
<path d="M26621 -8778
L26778 -8621
" />
<path d="M26778 -8778
L26621 -8621
" />
<path d="M26621 -8178
L26778 -8021
" />
<path d="M26778 -8178
L26621 -8021
" />
<path d="M26621 -7578
L26778 -7421
" />
<path d="M26778 -7578
L26621 -7421
" />
<path d="M26621 -3378
L26778 -3221
" />
<path d="M26778 -3378
L26621 -3221
" />
<path d="M27021 -3378
L27178 -3221
" />
<path d="M27178 -3378
L27021 -3221
" />
<path d="M27421 -3378
L27578 -3221
" />
<path d="M27578 -3378
L27421 -3221
" />
<path d="M27621 -2978
L27778 -2821
" />
<path d="M27778 -2978
L27621 -2821
" />
<path d="M27721 -4178
L27878 -4021
" />
<path d="M27878 -4178
L27721 -4021
" />
<path d="M27921 -12978
L28078 -12821
" />
<path d="M28078 -12978
L27921 -12821
" />
<path d="M27921 -12478
L28078 -12321
" />
<path d="M28078 -12478
L27921 -12321
" />
<path d="M27921 -8078
L28078 -7921
" />
<path d="M28078 -8078
L27921 -7921
" />
<path d="M28121 -3578
L28278 -3421
" />
<path d="M28278 -3578
L28121 -3421
" />
<path d="M28421 -12978
L28578 -12821
" />
<path d="M28578 -12978
L28421 -12821
" />
<path d="M28421 -12478
L28578 -12321
" />
<path d="M28578 -12478
L28421 -12321
" />
<path d="M28421 -8078
L28578 -7921
" />
<path d="M28578 -8078
L28421 -7921
" />
<path d="M28621 -3578
L28778 -3421
" />
<path d="M28778 -3578
L28621 -3421
" />
<path d="M28921 -12978
L29078 -12821
" />
<path d="M29078 -12978
L28921 -12821
" />
<path d="M28921 -8078
L29078 -7921
" />
<path d="M29078 -8078
L28921 -7921
" />
<path d="M29021 -12478
L29178 -12321
" />
<path d="M29178 -12478
L29021 -12321
" />
<path d="M29221 -3578
L29378 -3421
" />
<path d="M29378 -3578
L29221 -3421
" />
<path d="M29421 -8078
L29578 -7921
" />
<path d="M29578 -8078
L29421 -7921
" />
<path d="M29621 -12478
L29778 -12321
" />
<path d="M29778 -12478
L29621 -12321
" />
<path d="M29721 -3578
L29878 -3421
" />
<path d="M29878 -3578
L29721 -3421
" />
<path d="M29921 -8078
L30078 -7921
" />
<path d="M30078 -8078
L29921 -7921
" />
<path d="M30221 -12478
L30378 -12321
" />
<path d="M30378 -12478
L30221 -12321
" />
<path d="M30321 -8478
L30478 -8321
" />
<path d="M30478 -8478
L30321 -8321
" />
<path d="M30321 -3678
L30478 -3521
" />
<path d="M30478 -3678
L30321 -3521
" />
<path d="M30821 -8478
L30978 -8321
" />
<path d="M30978 -8478
L30821 -8321
" />
<path d="M31321 -8478
L31478 -8321
" />
<path d="M31478 -8478
L31321 -8321
" />
<circle cx="2600" cy="-10200" r="175" /> 
<circle cx="2800" cy="-8500" r="175" /> 
<circle cx="2800" cy="-7500" r="175" /> 
<circle cx="2800" cy="-6500" r="175" /> 
<circle cx="2800" cy="-5500" r="175" /> 
<circle cx="3800" cy="-8500" r="175" /> 
<circle cx="3800" cy="-7500" r="175" /> 
<circle cx="3800" cy="-6500" r="175" /> 
<circle cx="3800" cy="-5500" r="175" /> 
<circle cx="4900" cy="-4100" r="175" /> 
<circle cx="4900" cy="-3100" r="175" /> 
<circle cx="5900" cy="-4100" r="175" /> 
<circle cx="5900" cy="-3100" r="175" /> 
<circle cx="6900" cy="-4100" r="175" /> 
<circle cx="6900" cy="-3100" r="175" /> 
<circle cx="7900" cy="-4100" r="175" /> 
<circle cx="7900" cy="-3100" r="175" /> 
<circle cx="9900" cy="-4100" r="175" /> 
<circle cx="9900" cy="-3100" r="175" /> 
<circle cx="10900" cy="-4100" r="175" /> 
<circle cx="10900" cy="-3100" r="175" /> 
<circle cx="11900" cy="-4100" r="175" /> 
<circle cx="11900" cy="-3100" r="175" /> 
<circle cx="12900" cy="-4100" r="175" /> 
<circle cx="12900" cy="-3100" r="175" /> 
<circle cx="13900" cy="-13100" r="175" /> 
<circle cx="13900" cy="-12100" r="175" /> 
<circle cx="14900" cy="-13100" r="175" /> 
<circle cx="14900" cy="-12100" r="175" /> 
<circle cx="14900" cy="-4100" r="175" /> 
<circle cx="14900" cy="-3100" r="175" /> 
<circle cx="15900" cy="-13100" r="175" /> 
<circle cx="15900" cy="-12100" r="175" /> 
<circle cx="15900" cy="-4100" r="175" /> 
<circle cx="15900" cy="-3100" r="175" /> 
<circle cx="16900" cy="-13100" r="175" /> 
<circle cx="16900" cy="-12100" r="175" /> 
<circle cx="16900" cy="-4100" r="175" /> 
<circle cx="16900" cy="-3100" r="175" /> 
<circle cx="17900" cy="-4100" r="175" /> 
<circle cx="17900" cy="-3100" r="175" /> 
<circle cx="18900" cy="-13100" r="175" /> 
<circle cx="18900" cy="-12100" r="175" /> 
<circle cx="19900" cy="-13100" r="175" /> 
<circle cx="19900" cy="-12100" r="175" /> 
<circle cx="19900" cy="-4100" r="175" /> 
<circle cx="19900" cy="-3100" r="175" /> 
<circle cx="20900" cy="-13100" r="175" /> 
<circle cx="20900" cy="-12100" r="175" /> 
<circle cx="20900" cy="-4100" r="175" /> 
<circle cx="20900" cy="-3100" r="175" /> 
<circle cx="21900" cy="-13100" r="175" /> 
<circle cx="21900" cy="-12100" r="175" /> 
<circle cx="21900" cy="-4100" r="175" /> 
<circle cx="21900" cy="-3100" r="175" /> 
<circle cx="22900" cy="-4100" r="175" /> 
<circle cx="22900" cy="-3100" r="175" /> 
<circle cx="28600" cy="-11600" r="175" /> 
<circle cx="28600" cy="-10600" r="175" /> 
<circle cx="28600" cy="-9600" r="175" /> 
<circle cx="28600" cy="-8600" r="175" /> 
<circle cx="28600" cy="-7300" r="175" /> 
<circle cx="28600" cy="-6300" r="175" /> 
<circle cx="28600" cy="-5300" r="175" /> 
<circle cx="28600" cy="-4300" r="175" /> 
<circle cx="29600" cy="-11600" r="175" /> 
<circle cx="29600" cy="-10600" r="175" /> 
<circle cx="29600" cy="-9600" r="175" /> 
<circle cx="29600" cy="-8600" r="175" /> 
<circle cx="29600" cy="-7300" r="175" /> 
<circle cx="29600" cy="-6300" r="175" /> 
<circle cx="29600" cy="-5300" r="175" /> 
<circle cx="29600" cy="-4300" r="175" /> 
<path d="M9600 -14124
L9600 -13612
" />
<path d="M9344 -13868
L9855 -13868
" />
<path d="M9600 -12155
L9600 -11644
" />
<path d="M9344 -11900
L9855 -11900
" />
<path d="M11600 -14124
L11600 -13612
" />
<path d="M11344 -13868
L11855 -13868
" />
<path d="M11600 -12155
L11600 -11644
" />
<path d="M11344 -11900
L11855 -11900
" />
<polyline fill="none;"
points="4021,-11330
4021,-12110
3241,-12110
3241,-11330
4021,-11330
" /> 
<polyline fill="none;"
points="5989,-12551
5989,-13330
5210,-13330
5210,-12551
5989,-12551
" /> 
<polyline fill="none;"
points="5989,-10110
5989,-10889
5210,-10889
5210,-10110
5989,-10110
" /> 
<polyline fill="none;"
points="2000,-13409
2590,-14000
2000,-14590
1409,-14000
2000,-13409
" /> 
<polyline fill="none;"
points="2000,-1409
2590,-2000
2000,-2590
1409,-2000
2000,-1409
" /> 
<polyline fill="none;"
points="30000,-13409
30590,-14000
30000,-14590
29409,-14000
30000,-13409
" /> 
<polyline fill="none;"
points="30000,-1409
30590,-2000
30000,-2590
29409,-2000
30000,-1409
" /> 
</g>
<g style="fill:#000000; fill-opacity:0.0; 
stroke:#000000; stroke-width:118.11; stroke-opacity:1; 
stroke-linecap:round; stroke-linejoin:round;">
<path d="M1198 1763
L1198 581
L1479 581
L1648 638
L1760 750
L1816 863
L1873 1088
L1873 1256
L1816 1481
L1760 1594
L1648 1706
L1479 1763
L1198 1763
" />
<path d="M2379 1763
L2379 975
" />
<path d="M2379 1200
L2435 1088
L2491 1031
L2604 975
L2716 975
" />
<path d="M3110 1763
L3110 975
" />
<path d="M3110 581
L3054 638
L3110 694
L3166 638
L3110 581
L3110 694
" />
<path d="M3841 1763
L3729 1706
L3672 1594
L3672 581
" />
<path d="M4460 1763
L4347 1706
L4291 1594
L4291 581
" />
<path d="M5810 1763
L5810 581
L6203 1425
L6597 581
L6597 1763
" />
<path d="M7666 1763
L7666 1144
L7609 1031
L7497 975
L7272 975
L7159 1031
" />
<path d="M7666 1706
L7553 1763
L7272 1763
L7159 1706
L7103 1594
L7103 1481
L7159 1369
L7272 1313
L7553 1313
L7666 1256
" />
<path d="M8228 975
L8228 2156
" />
<path d="M8228 1031
L8341 975
L8565 975
L8678 1031
L8734 1088
L8790 1200
L8790 1538
L8734 1650
L8678 1706
L8565 1763
L8341 1763
L8228 1706
" />
<path d="M9297 1650
L9353 1706
L9297 1763
L9240 1706
L9297 1650
L9297 1763
" />
<path d="M9297 1031
L9353 1088
L9297 1144
L9240 1088
L9297 1031
L9297 1144
" />
<path d="M-87 3630
L70 3787
" />
<path d="M70 3630
L-87 3787
" />
<path d="M1423 3062
L1535 3062
L1648 3118
L1704 3174
L1760 3287
L1816 3512
L1816 3793
L1760 4018
L1704 4130
L1648 4187
L1535 4243
L1423 4243
L1310 4187
L1254 4130
L1198 4018
L1141 3793
L1141 3512
L1198 3287
L1254 3174
L1310 3118
L1423 3062
" />
<path d="M2323 4130
L2379 4187
L2323 4243
L2266 4187
L2323 4130
L2323 4243
" />
<path d="M3391 3455
L3391 4243
" />
<path d="M3110 3006
L2829 3849
L3560 3849
" />
<path d="M4235 3062
L4347 3062
L4460 3118
L4516 3174
L4572 3287
L4628 3512
L4628 3793
L4572 4018
L4516 4130
L4460 4187
L4347 4243
L4235 4243
L4122 4187
L4066 4130
L4010 4018
L3954 3793
L3954 3512
L4010 3287
L4066 3174
L4122 3118
L4235 3062
" />
<path d="M5135 4243
L5135 3455
" />
<path d="M5135 3568
L5191 3512
L5303 3455
L5472 3455
L5585 3512
L5641 3624
L5641 4243
" />
<path d="M5641 3624
L5697 3512
L5810 3455
L5978 3455
L6091 3512
L6147 3624
L6147 4243
" />
<path d="M6709 4243
L6709 3455
" />
<path d="M6709 3568
L6766 3512
L6878 3455
L7047 3455
L7159 3512
L7216 3624
L7216 4243
" />
<path d="M7216 3624
L7272 3512
L7384 3455
L7553 3455
L7666 3512
L7722 3624
L7722 4243
" />
<path d="M10028 3006
L9015 4524
" />
<path d="M11546 3062
L11659 3062
L11771 3118
L11828 3174
L11884 3287
L11940 3512
L11940 3793
L11884 4018
L11828 4130
L11771 4187
L11659 4243
L11546 4243
L11434 4187
L11378 4130
L11321 4018
L11265 3793
L11265 3512
L11321 3287
L11378 3174
L11434 3118
L11546 3062
" />
<path d="M12446 4130
L12502 4187
L12446 4243
L12390 4187
L12446 4130
L12446 4243
" />
<path d="M13234 3062
L13346 3062
L13459 3118
L13515 3174
L13571 3287
L13627 3512
L13627 3793
L13571 4018
L13515 4130
L13459 4187
L13346 4243
L13234 4243
L13121 4187
L13065 4130
L13009 4018
L12952 3793
L12952 3512
L13009 3287
L13065 3174
L13121 3118
L13234 3062
" />
<path d="M14752 4243
L14077 4243
" />
<path d="M14415 4243
L14415 3062
L14302 3230
L14190 3343
L14077 3399
" />
<path d="M15765 3062
L15540 3062
L15427 3118
L15371 3174
L15258 3343
L15202 3568
L15202 4018
L15258 4130
L15315 4187
L15427 4243
L15652 4243
L15765 4187
L15821 4130
L15877 4018
L15877 3737
L15821 3624
L15765 3568
L15652 3512
L15427 3512
L15315 3568
L15258 3624
L15202 3737
" />
<path d="M16327 3062
L16327 3287
" />
<path d="M16777 3062
L16777 3287
" />
<path d="M18520 4693
L18464 4637
L18352 4468
L18296 4355
L18239 4187
L18183 3905
L18183 3680
L18239 3399
L18296 3230
L18352 3118
L18464 2949
L18520 2893
" />
<path d="M19589 4243
L18914 4243
" />
<path d="M19252 4243
L19252 3062
L19139 3230
L19027 3343
L18914 3399
" />
<path d="M20601 3455
L20601 4243
" />
<path d="M20320 3006
L20039 3849
L20770 3849
" />
<path d="M21726 3062
L21501 3062
L21389 3118
L21333 3174
L21220 3343
L21164 3568
L21164 4018
L21220 4130
L21276 4187
L21389 4243
L21614 4243
L21726 4187
L21783 4130
L21839 4018
L21839 3737
L21783 3624
L21726 3568
L21614 3512
L21389 3512
L21276 3568
L21220 3624
L21164 3737
" />
<path d="M23245 4243
L23245 3062
" />
<path d="M23751 4243
L23751 3624
L23695 3512
L23582 3455
L23414 3455
L23301 3512
L23245 3568
" />
<path d="M24482 4243
L24370 4187
L24314 4130
L24257 4018
L24257 3680
L24314 3568
L24370 3512
L24482 3455
L24651 3455
L24763 3512
L24820 3568
L24876 3680
L24876 4018
L24820 4130
L24763 4187
L24651 4243
L24482 4243
" />
<path d="M25551 4243
L25438 4187
L25382 4074
L25382 3062
" />
<path d="M26451 4187
L26338 4243
L26113 4243
L26001 4187
L25945 4074
L25945 3624
L26001 3512
L26113 3455
L26338 3455
L26451 3512
L26507 3624
L26507 3737
L25945 3849
" />
<path d="M26957 4187
L27069 4243
L27294 4243
L27407 4187
L27463 4074
L27463 4018
L27407 3905
L27294 3849
L27126 3849
L27013 3793
L26957 3680
L26957 3624
L27013 3512
L27126 3455
L27294 3455
L27407 3512
" />
<path d="M27857 4693
L27913 4637
L28026 4468
L28082 4355
L28138 4187
L28194 3905
L28194 3680
L28138 3399
L28082 3230
L28026 3118
L27913 2949
L27857 2893
" />
<circle cx="-104.528" cy="5268.11" r="175" /> 
<path d="M1423 4621
L1535 4621
L1648 4677
L1704 4733
L1760 4846
L1816 5071
L1816 5352
L1760 5577
L1704 5689
L1648 5746
L1535 5802
L1423 5802
L1310 5746
L1254 5689
L1198 5577
L1141 5352
L1141 5071
L1198 4846
L1254 4733
L1310 4677
L1423 4621
" />
<path d="M2323 5689
L2379 5746
L2323 5802
L2266 5746
L2323 5689
L2323 5802
" />
<path d="M3054 5127
L2941 5071
L2885 5015
L2829 4902
L2829 4846
L2885 4733
L2941 4677
L3054 4621
L3279 4621
L3391 4677
L3447 4733
L3504 4846
L3504 4902
L3447 5015
L3391 5071
L3279 5127
L3054 5127
L2941 5183
L2885 5239
L2829 5352
L2829 5577
L2885 5689
L2941 5746
L3054 5802
L3279 5802
L3391 5746
L3447 5689
L3504 5577
L3504 5352
L3447 5239
L3391 5183
L3279 5127
" />
<path d="M4066 5802
L4291 5802
L4403 5746
L4460 5689
L4572 5521
L4628 5296
L4628 4846
L4572 4733
L4516 4677
L4403 4621
L4179 4621
L4066 4677
L4010 4733
L3954 4846
L3954 5127
L4010 5239
L4066 5296
L4179 5352
L4403 5352
L4516 5296
L4572 5239
L4628 5127
" />
<path d="M5135 5802
L5135 5015
" />
<path d="M5135 5127
L5191 5071
L5303 5015
L5472 5015
L5585 5071
L5641 5183
L5641 5802
" />
<path d="M5641 5183
L5697 5071
L5810 5015
L5978 5015
L6091 5071
L6147 5183
L6147 5802
" />
<path d="M6709 5802
L6709 5015
" />
<path d="M6709 5127
L6766 5071
L6878 5015
L7047 5015
L7159 5071
L7216 5183
L7216 5802
" />
<path d="M7216 5183
L7272 5071
L7384 5015
L7553 5015
L7666 5071
L7722 5183
L7722 5802
" />
<path d="M10028 4565
L9015 6083
" />
<path d="M11546 4621
L11659 4621
L11771 4677
L11828 4733
L11884 4846
L11940 5071
L11940 5352
L11884 5577
L11828 5689
L11771 5746
L11659 5802
L11546 5802
L11434 5746
L11378 5689
L11321 5577
L11265 5352
L11265 5071
L11321 4846
L11378 4733
L11434 4677
L11546 4621
" />
<path d="M12446 5689
L12502 5746
L12446 5802
L12390 5746
L12446 5689
L12446 5802
" />
<path d="M13234 4621
L13346 4621
L13459 4677
L13515 4733
L13571 4846
L13627 5071
L13627 5352
L13571 5577
L13515 5689
L13459 5746
L13346 5802
L13234 5802
L13121 5746
L13065 5689
L13009 5577
L12952 5352
L12952 5071
L13009 4846
L13065 4733
L13121 4677
L13234 4621
" />
<path d="M14021 4621
L14752 4621
L14358 5071
L14527 5071
L14640 5127
L14696 5183
L14752 5296
L14752 5577
L14696 5689
L14640 5746
L14527 5802
L14190 5802
L14077 5746
L14021 5689
" />
<path d="M15821 4621
L15258 4621
L15202 5183
L15258 5127
L15371 5071
L15652 5071
L15765 5127
L15821 5183
L15877 5296
L15877 5577
L15821 5689
L15765 5746
L15652 5802
L15371 5802
L15258 5746
L15202 5689
" />
<path d="M16327 4621
L16327 4846
" />
<path d="M16777 4621
L16777 4846
" />
<path d="M18520 6252
L18464 6196
L18352 6027
L18296 5914
L18239 5746
L18183 5464
L18183 5239
L18239 4958
L18296 4790
L18352 4677
L18464 4508
L18520 4452
" />
<path d="M18858 4621
L19645 4621
L19139 5802
" />
<path d="M19983 4621
L20714 4621
L20320 5071
L20489 5071
L20601 5127
L20658 5183
L20714 5296
L20714 5577
L20658 5689
L20601 5746
L20489 5802
L20152 5802
L20039 5746
L19983 5689
" />
<path d="M22120 5802
L22120 4621
" />
<path d="M22626 5802
L22626 5183
L22570 5071
L22457 5015
L22289 5015
L22176 5071
L22120 5127
" />
<path d="M23357 5802
L23245 5746
L23189 5689
L23132 5577
L23132 5239
L23189 5127
L23245 5071
L23357 5015
L23526 5015
L23639 5071
L23695 5127
L23751 5239
L23751 5577
L23695 5689
L23639 5746
L23526 5802
L23357 5802
" />
<path d="M24426 5802
L24314 5746
L24257 5633
L24257 4621
" />
<path d="M25326 5746
L25213 5802
L24988 5802
L24876 5746
L24820 5633
L24820 5183
L24876 5071
L24988 5015
L25213 5015
L25326 5071
L25382 5183
L25382 5296
L24820 5408
" />
<path d="M25832 5746
L25945 5802
L26170 5802
L26282 5746
L26338 5633
L26338 5577
L26282 5464
L26170 5408
L26001 5408
L25888 5352
L25832 5239
L25832 5183
L25888 5071
L26001 5015
L26170 5015
L26282 5071
" />
<path d="M26732 6252
L26788 6196
L26901 6027
L26957 5914
L27013 5746
L27069 5464
L27069 5239
L27013 4958
L26957 4790
L26901 4677
L26788 4508
L26732 4452
" />
<path d="M-185 6571
L-185 7083
" />
<path d="M-441 6827
L70 6827
" />
<path d="M1816 7361
L1141 7361
" />
<path d="M1479 7361
L1479 6180
L1366 6349
L1254 6461
L1141 6517
" />
<path d="M2323 7248
L2379 7305
L2323 7361
L2266 7305
L2323 7248
L2323 7361
" />
<path d="M2772 6180
L3504 6180
L3110 6630
L3279 6630
L3391 6686
L3447 6742
L3504 6855
L3504 7136
L3447 7248
L3391 7305
L3279 7361
L2941 7361
L2829 7305
L2772 7248
" />
<path d="M4235 6180
L4347 6180
L4460 6236
L4516 6292
L4572 6405
L4628 6630
L4628 6911
L4572 7136
L4516 7248
L4460 7305
L4347 7361
L4235 7361
L4122 7305
L4066 7248
L4010 7136
L3954 6911
L3954 6630
L4010 6405
L4066 6292
L4122 6236
L4235 6180
" />
<path d="M5135 7361
L5135 6574
" />
<path d="M5135 6686
L5191 6630
L5303 6574
L5472 6574
L5585 6630
L5641 6742
L5641 7361
" />
<path d="M5641 6742
L5697 6630
L5810 6574
L5978 6574
L6091 6630
L6147 6742
L6147 7361
" />
<path d="M6709 7361
L6709 6574
" />
<path d="M6709 6686
L6766 6630
L6878 6574
L7047 6574
L7159 6630
L7216 6742
L7216 7361
" />
<path d="M7216 6742
L7272 6630
L7384 6574
L7553 6574
L7666 6630
L7722 6742
L7722 7361
" />
<path d="M10028 6124
L9015 7642
" />
<path d="M11546 6180
L11659 6180
L11771 6236
L11828 6292
L11884 6405
L11940 6630
L11940 6911
L11884 7136
L11828 7248
L11771 7305
L11659 7361
L11546 7361
L11434 7305
L11378 7248
L11321 7136
L11265 6911
L11265 6630
L11321 6405
L11378 6292
L11434 6236
L11546 6180
" />
<path d="M12446 7248
L12502 7305
L12446 7361
L12390 7305
L12446 7248
L12446 7361
" />
<path d="M13234 6180
L13346 6180
L13459 6236
L13515 6292
L13571 6405
L13627 6630
L13627 6911
L13571 7136
L13515 7248
L13459 7305
L13346 7361
L13234 7361
L13121 7305
L13065 7248
L13009 7136
L12952 6911
L12952 6630
L13009 6405
L13065 6292
L13121 6236
L13234 6180
" />
<path d="M14696 6180
L14134 6180
L14077 6742
L14134 6686
L14246 6630
L14527 6630
L14640 6686
L14696 6742
L14752 6855
L14752 7136
L14696 7248
L14640 7305
L14527 7361
L14246 7361
L14134 7305
L14077 7248
" />
<path d="M15877 7361
L15202 7361
" />
<path d="M15540 7361
L15540 6180
L15427 6349
L15315 6461
L15202 6517
" />
<path d="M16327 6180
L16327 6405
" />
<path d="M16777 6180
L16777 6405
" />
<path d="M18520 7811
L18464 7755
L18352 7586
L18296 7473
L18239 7305
L18183 7024
L18183 6799
L18239 6517
L18296 6349
L18352 6236
L18464 6067
L18520 6011
" />
<path d="M19477 6574
L19477 7361
" />
<path d="M19195 6124
L18914 6967
L19645 6967
" />
<path d="M20995 7361
L20995 6180
" />
<path d="M21501 7361
L21501 6742
L21445 6630
L21333 6574
L21164 6574
L21051 6630
L20995 6686
" />
<path d="M22233 7361
L22120 7305
L22064 7248
L22008 7136
L22008 6799
L22064 6686
L22120 6630
L22233 6574
L22401 6574
L22514 6630
L22570 6686
L22626 6799
L22626 7136
L22570 7248
L22514 7305
L22401 7361
L22233 7361
" />
<path d="M23301 7361
L23189 7305
L23132 7192
L23132 6180
" />
<path d="M24201 7305
L24089 7361
L23864 7361
L23751 7305
L23695 7192
L23695 6742
L23751 6630
L23864 6574
L24089 6574
L24201 6630
L24257 6742
L24257 6855
L23695 6967
" />
<path d="M24707 7305
L24820 7361
L25045 7361
L25157 7305
L25213 7192
L25213 7136
L25157 7024
L25045 6967
L24876 6967
L24763 6911
L24707 6799
L24707 6742
L24763 6630
L24876 6574
L25045 6574
L25157 6630
" />
<path d="M25607 7811
L25663 7755
L25776 7586
L25832 7473
L25888 7305
L25945 7024
L25945 6799
L25888 6517
L25832 6349
L25776 6236
L25663 6067
L25607 6011
" />
<polyline fill="none;"
points="-90,8775
-90,7996
-870,7996
-870,8775
-90,8775
" /> 
<path d="M1141 7851
L1198 7795
L1310 7739
L1591 7739
L1704 7795
L1760 7851
L1816 7964
L1816 8076
L1760 8245
L1085 8920
L1816 8920
" />
<path d="M2323 8808
L2379 8864
L2323 8920
L2266 8864
L2323 8808
L2323 8920
" />
<path d="M3054 8245
L2941 8189
L2885 8133
L2829 8020
L2829 7964
L2885 7851
L2941 7795
L3054 7739
L3279 7739
L3391 7795
L3447 7851
L3504 7964
L3504 8020
L3447 8133
L3391 8189
L3279 8245
L3054 8245
L2941 8301
L2885 8358
L2829 8470
L2829 8695
L2885 8808
L2941 8864
L3054 8920
L3279 8920
L3391 8864
L3447 8808
L3504 8695
L3504 8470
L3447 8358
L3391 8301
L3279 8245
" />
<path d="M4235 7739
L4347 7739
L4460 7795
L4516 7851
L4572 7964
L4628 8189
L4628 8470
L4572 8695
L4516 8808
L4460 8864
L4347 8920
L4235 8920
L4122 8864
L4066 8808
L4010 8695
L3954 8470
L3954 8189
L4010 7964
L4066 7851
L4122 7795
L4235 7739
" />
<path d="M5135 8920
L5135 8133
" />
<path d="M5135 8245
L5191 8189
L5303 8133
L5472 8133
L5585 8189
L5641 8301
L5641 8920
" />
<path d="M5641 8301
L5697 8189
L5810 8133
L5978 8133
L6091 8189
L6147 8301
L6147 8920
" />
<path d="M6709 8920
L6709 8133
" />
<path d="M6709 8245
L6766 8189
L6878 8133
L7047 8133
L7159 8189
L7216 8301
L7216 8920
" />
<path d="M7216 8301
L7272 8189
L7384 8133
L7553 8133
L7666 8189
L7722 8301
L7722 8920
" />
<path d="M10028 7683
L9015 9201
" />
<path d="M11546 7739
L11659 7739
L11771 7795
L11828 7851
L11884 7964
L11940 8189
L11940 8470
L11884 8695
L11828 8808
L11771 8864
L11659 8920
L11546 8920
L11434 8864
L11378 8808
L11321 8695
L11265 8470
L11265 8189
L11321 7964
L11378 7851
L11434 7795
L11546 7739
" />
<path d="M12446 8808
L12502 8864
L12446 8920
L12390 8864
L12446 8808
L12446 8920
" />
<path d="M13627 8920
L12952 8920
" />
<path d="M13290 8920
L13290 7739
L13177 7908
L13065 8020
L12952 8076
" />
<path d="M14752 8920
L14077 8920
" />
<path d="M14415 8920
L14415 7739
L14302 7908
L14190 8020
L14077 8076
" />
<path d="M15483 7739
L15596 7739
L15708 7795
L15765 7851
L15821 7964
L15877 8189
L15877 8470
L15821 8695
L15765 8808
L15708 8864
L15596 8920
L15483 8920
L15371 8864
L15315 8808
L15258 8695
L15202 8470
L15202 8189
L15258 7964
L15315 7851
L15371 7795
L15483 7739
" />
<path d="M16327 7739
L16327 7964
" />
<path d="M16777 7739
L16777 7964
" />
<path d="M18520 9370
L18464 9314
L18352 9145
L18296 9033
L18239 8864
L18183 8583
L18183 8358
L18239 8076
L18296 7908
L18352 7795
L18464 7626
L18520 7570
" />
<path d="M18858 7739
L19589 7739
L19195 8189
L19364 8189
L19477 8245
L19533 8301
L19589 8414
L19589 8695
L19533 8808
L19477 8864
L19364 8920
L19027 8920
L18914 8864
L18858 8808
" />
<path d="M20995 8920
L20995 7739
" />
<path d="M21501 8920
L21501 8301
L21445 8189
L21333 8133
L21164 8133
L21051 8189
L20995 8245
" />
<path d="M22233 8920
L22120 8864
L22064 8808
L22008 8695
L22008 8358
L22064 8245
L22120 8189
L22233 8133
L22401 8133
L22514 8189
L22570 8245
L22626 8358
L22626 8695
L22570 8808
L22514 8864
L22401 8920
L22233 8920
" />
<path d="M23301 8920
L23189 8864
L23132 8751
L23132 7739
" />
<path d="M24201 8864
L24089 8920
L23864 8920
L23751 8864
L23695 8751
L23695 8301
L23751 8189
L23864 8133
L24089 8133
L24201 8189
L24257 8301
L24257 8414
L23695 8526
" />
<path d="M24707 8864
L24820 8920
L25045 8920
L25157 8864
L25213 8751
L25213 8695
L25157 8583
L25045 8526
L24876 8526
L24763 8470
L24707 8358
L24707 8301
L24763 8189
L24876 8133
L25045 8133
L25157 8189
" />
<path d="M25607 9370
L25663 9314
L25776 9145
L25832 9033
L25888 8864
L25945 8583
L25945 8358
L25888 8076
L25832 7908
L25776 7795
L25663 7626
L25607 7570
" />
<polyline fill="none;"
points="-520,10590
70,10000
-520,9409
-1110,10000
-520,10590
" /> 
<path d="M1085 9353
L1816 9353
L1423 9803
L1591 9803
L1704 9859
L1760 9916
L1816 10028
L1816 10309
L1760 10422
L1704 10478
L1591 10534
L1254 10534
L1141 10478
L1085 10422
" />
<path d="M2323 10422
L2379 10478
L2323 10534
L2266 10478
L2323 10422
L2323 10534
" />
<path d="M3110 9353
L3222 9353
L3335 9409
L3391 9466
L3447 9578
L3504 9803
L3504 10084
L3447 10309
L3391 10422
L3335 10478
L3222 10534
L3110 10534
L2997 10478
L2941 10422
L2885 10309
L2829 10084
L2829 9803
L2885 9578
L2941 9466
L2997 9409
L3110 9353
" />
<path d="M4235 9353
L4347 9353
L4460 9409
L4516 9466
L4572 9578
L4628 9803
L4628 10084
L4572 10309
L4516 10422
L4460 10478
L4347 10534
L4235 10534
L4122 10478
L4066 10422
L4010 10309
L3954 10084
L3954 9803
L4010 9578
L4066 9466
L4122 9409
L4235 9353
" />
<path d="M5135 10534
L5135 9747
" />
<path d="M5135 9859
L5191 9803
L5303 9747
L5472 9747
L5585 9803
L5641 9916
L5641 10534
" />
<path d="M5641 9916
L5697 9803
L5810 9747
L5978 9747
L6091 9803
L6147 9916
L6147 10534
" />
<path d="M6709 10534
L6709 9747
" />
<path d="M6709 9859
L6766 9803
L6878 9747
L7047 9747
L7159 9803
L7216 9916
L7216 10534
" />
<path d="M7216 9916
L7272 9803
L7384 9747
L7553 9747
L7666 9803
L7722 9916
L7722 10534
" />
<path d="M10028 9297
L9015 10815
" />
<path d="M11546 9353
L11659 9353
L11771 9409
L11828 9466
L11884 9578
L11940 9803
L11940 10084
L11884 10309
L11828 10422
L11771 10478
L11659 10534
L11546 10534
L11434 10478
L11378 10422
L11321 10309
L11265 10084
L11265 9803
L11321 9578
L11378 9466
L11434 9409
L11546 9353
" />
<path d="M12446 10422
L12502 10478
L12446 10534
L12390 10478
L12446 10422
L12446 10534
" />
<path d="M13627 10534
L12952 10534
" />
<path d="M13290 10534
L13290 9353
L13177 9522
L13065 9634
L12952 9691
" />
<path d="M14752 10534
L14077 10534
" />
<path d="M14415 10534
L14415 9353
L14302 9522
L14190 9634
L14077 9691
" />
<path d="M15427 9859
L15315 9803
L15258 9747
L15202 9634
L15202 9578
L15258 9466
L15315 9409
L15427 9353
L15652 9353
L15765 9409
L15821 9466
L15877 9578
L15877 9634
L15821 9747
L15765 9803
L15652 9859
L15427 9859
L15315 9916
L15258 9972
L15202 10084
L15202 10309
L15258 10422
L15315 10478
L15427 10534
L15652 10534
L15765 10478
L15821 10422
L15877 10309
L15877 10084
L15821 9972
L15765 9916
L15652 9859
" />
<path d="M16327 9353
L16327 9578
" />
<path d="M16777 9353
L16777 9578
" />
<path d="M18520 10984
L18464 10928
L18352 10759
L18296 10647
L18239 10478
L18183 10197
L18183 9972
L18239 9691
L18296 9522
L18352 9409
L18464 9241
L18520 9184
" />
<path d="M19477 9747
L19477 10534
" />
<path d="M19195 9297
L18914 10141
L19645 10141
" />
<path d="M20995 10534
L20995 9353
" />
<path d="M21501 10534
L21501 9916
L21445 9803
L21333 9747
L21164 9747
L21051 9803
L20995 9859
" />
<path d="M22233 10534
L22120 10478
L22064 10422
L22008 10309
L22008 9972
L22064 9859
L22120 9803
L22233 9747
L22401 9747
L22514 9803
L22570 9859
L22626 9972
L22626 10309
L22570 10422
L22514 10478
L22401 10534
L22233 10534
" />
<path d="M23301 10534
L23189 10478
L23132 10365
L23132 9353
" />
<path d="M24201 10478
L24089 10534
L23864 10534
L23751 10478
L23695 10365
L23695 9916
L23751 9803
L23864 9747
L24089 9747
L24201 9803
L24257 9916
L24257 10028
L23695 10141
" />
<path d="M24707 10478
L24820 10534
L25045 10534
L25157 10478
L25213 10365
L25213 10309
L25157 10197
L25045 10141
L24876 10141
L24763 10084
L24707 9972
L24707 9916
L24763 9803
L24876 9747
L25045 9747
L25157 9803
" />
<path d="M25607 10984
L25663 10928
L25776 10759
L25832 10647
L25888 10478
L25945 10197
L25945 9972
L25888 9691
L25832 9522
L25776 9409
L25663 9241
L25607 9184
" />
</g> 
</svg>
