G75*
G70*
%OFA0B0*%
%FSLAX24Y24*%
%IPPOS*%
%LPD*%
%AMOC8*
5,1,8,0,0,1.08239X$1,22.5*
%
%ADD10C,0.2660*%
%ADD11R,0.0711X0.0711*%
%ADD12C,0.1183*%
%ADD13R,0.0632X0.0711*%
%ADD14R,0.0770X0.0770*%
D10*
X007095Y006267D03*
X015095Y006267D03*
X015095Y014279D03*
X007095Y014267D03*
D11*
X007095Y010956D03*
X007095Y009578D03*
X009764Y009578D03*
X009764Y010956D03*
X012429Y010956D03*
X012429Y009578D03*
X015095Y009578D03*
X015095Y010956D03*
D12*
X015095Y010267D03*
X012429Y010267D03*
X009764Y010267D03*
X007095Y010267D03*
D13*
X007114Y012133D03*
X007862Y012133D03*
X008784Y012133D03*
X009532Y012133D03*
X010662Y012133D03*
X011410Y012133D03*
X014327Y012133D03*
X015075Y012133D03*
D14*
X013158Y012759D03*
X013158Y013759D03*
X013158Y014759D03*
X012087Y014759D03*
X011087Y014759D03*
X011087Y013759D03*
X012087Y013759D03*
X010087Y013759D03*
X009087Y013759D03*
X009087Y014759D03*
X010087Y014759D03*
X010587Y006759D03*
X010587Y005759D03*
X011587Y005759D03*
X012587Y005759D03*
X012587Y006759D03*
X011587Y006759D03*
X009587Y006759D03*
X009587Y005759D03*
M02*
