G04 #@! TF.GenerationSoftware,KiCad,Pcbnew,(2017-02-05 revision 431abcf)-makepkg*
G04 #@! TF.CreationDate,2017-03-01T08:27:15+01:00*
G04 #@! TF.ProjectId,SYMPOWER02A,53594D504F5745523032412E6B696361,rev?*
G04 #@! TF.FileFunction,Legend,Top*
G04 #@! TF.FilePolarity,Positive*
%FSLAX46Y46*%
G04 Gerber Fmt 4.6, Leading zero omitted, Abs format (unit mm)*
G04 Created by KiCad (PCBNEW (2017-02-05 revision 431abcf)-makepkg) date 03/01/17 08:27:15*
%MOMM*%
%LPD*%
G01*
G04 APERTURE LIST*
%ADD10C,1.300000*%
%ADD11C,0.300000*%
%ADD12C,0.150000*%
%ADD13C,0.050000*%
G04 APERTURE END LIST*
D10*
D11*
X16635114Y2663742D02*
X16635114Y1692314D01*
X16692257Y1578028D01*
X16749400Y1520885D01*
X16863685Y1463742D01*
X17092257Y1463742D01*
X17206542Y1520885D01*
X17263685Y1578028D01*
X17320828Y1692314D01*
X17320828Y2663742D01*
X17835114Y1520885D02*
X17949400Y1463742D01*
X18177971Y1463742D01*
X18292257Y1520885D01*
X18349400Y1635171D01*
X18349400Y1692314D01*
X18292257Y1806600D01*
X18177971Y1863742D01*
X18006542Y1863742D01*
X17892257Y1920885D01*
X17835114Y2035171D01*
X17835114Y2092314D01*
X17892257Y2206600D01*
X18006542Y2263742D01*
X18177971Y2263742D01*
X18292257Y2206600D01*
X19320828Y1520885D02*
X19206542Y1463742D01*
X18977971Y1463742D01*
X18863685Y1520885D01*
X18806542Y1635171D01*
X18806542Y2092314D01*
X18863685Y2206600D01*
X18977971Y2263742D01*
X19206542Y2263742D01*
X19320828Y2206600D01*
X19377971Y2092314D01*
X19377971Y1978028D01*
X18806542Y1863742D01*
X19720828Y2263742D02*
X20177971Y2263742D01*
X19892257Y2663742D02*
X19892257Y1635171D01*
X19949400Y1520885D01*
X20063685Y1463742D01*
X20177971Y1463742D01*
X15847714Y4232257D02*
X16762000Y4232257D01*
X16304857Y3775114D02*
X16304857Y4689400D01*
X16762000Y3546542D02*
X15847714Y3546542D01*
X17962000Y3546542D02*
X17276285Y3546542D01*
X17619142Y3546542D02*
X17619142Y4746542D01*
X17504857Y4575114D01*
X17390571Y4460828D01*
X17276285Y4403685D01*
X18304857Y4746542D02*
X18704857Y3546542D01*
X19104857Y4746542D01*
X19676285Y4232257D02*
X19562000Y4289400D01*
X19504857Y4346542D01*
X19447714Y4460828D01*
X19447714Y4517971D01*
X19504857Y4632257D01*
X19562000Y4689400D01*
X19676285Y4746542D01*
X19904857Y4746542D01*
X20019142Y4689400D01*
X20076285Y4632257D01*
X20133428Y4517971D01*
X20133428Y4460828D01*
X20076285Y4346542D01*
X20019142Y4289400D01*
X19904857Y4232257D01*
X19676285Y4232257D01*
X19562000Y4175114D01*
X19504857Y4117971D01*
X19447714Y4003685D01*
X19447714Y3775114D01*
X19504857Y3660828D01*
X19562000Y3603685D01*
X19676285Y3546542D01*
X19904857Y3546542D01*
X20019142Y3603685D01*
X20076285Y3660828D01*
X20133428Y3775114D01*
X20133428Y4003685D01*
X20076285Y4117971D01*
X20019142Y4175114D01*
X19904857Y4232257D01*
X2372000Y13357142D02*
X2372000Y12500000D01*
X2314857Y12328571D01*
X2200571Y12214285D01*
X2029142Y12157142D01*
X1914857Y12157142D01*
X2886285Y12500000D02*
X3457714Y12500000D01*
X2772000Y12157142D02*
X3172000Y13357142D01*
X3572000Y12157142D01*
X4657714Y12271428D02*
X4600571Y12214285D01*
X4429142Y12157142D01*
X4314857Y12157142D01*
X4143428Y12214285D01*
X4029142Y12328571D01*
X3972000Y12442857D01*
X3914857Y12671428D01*
X3914857Y12842857D01*
X3972000Y13071428D01*
X4029142Y13185714D01*
X4143428Y13300000D01*
X4314857Y13357142D01*
X4429142Y13357142D01*
X4600571Y13300000D01*
X4657714Y13242857D01*
X5172000Y12157142D02*
X5172000Y13357142D01*
X5172000Y12785714D02*
X5857714Y12785714D01*
X5857714Y12157142D02*
X5857714Y13357142D01*
X6657714Y13357142D02*
X6886285Y13357142D01*
X7000571Y13300000D01*
X7114857Y13185714D01*
X7172000Y12957142D01*
X7172000Y12557142D01*
X7114857Y12328571D01*
X7000571Y12214285D01*
X6886285Y12157142D01*
X6657714Y12157142D01*
X6543428Y12214285D01*
X6429142Y12328571D01*
X6372000Y12557142D01*
X6372000Y12957142D01*
X6429142Y13185714D01*
X6543428Y13300000D01*
X6657714Y13357142D01*
X13392371Y6880142D02*
X13392371Y5908714D01*
X13449514Y5794428D01*
X13506657Y5737285D01*
X13620942Y5680142D01*
X13849514Y5680142D01*
X13963800Y5737285D01*
X14020942Y5794428D01*
X14078085Y5908714D01*
X14078085Y6880142D01*
X14820942Y5680142D02*
X14706657Y5737285D01*
X14649514Y5794428D01*
X14592371Y5908714D01*
X14592371Y6251571D01*
X14649514Y6365857D01*
X14706657Y6423000D01*
X14820942Y6480142D01*
X14992371Y6480142D01*
X15106657Y6423000D01*
X15163800Y6365857D01*
X15220942Y6251571D01*
X15220942Y5908714D01*
X15163800Y5794428D01*
X15106657Y5737285D01*
X14992371Y5680142D01*
X14820942Y5680142D01*
X16249514Y6480142D02*
X16249514Y5680142D01*
X15735228Y6480142D02*
X15735228Y5851571D01*
X15792371Y5737285D01*
X15906657Y5680142D01*
X16078085Y5680142D01*
X16192371Y5737285D01*
X16249514Y5794428D01*
X16649514Y6480142D02*
X17106657Y6480142D01*
X16820942Y6880142D02*
X16820942Y5851571D01*
X16878085Y5737285D01*
X16992371Y5680142D01*
X17106657Y5680142D01*
X10742314Y2098657D02*
X11656600Y2098657D01*
X11199457Y1641514D02*
X11199457Y2555800D01*
X11656600Y1412942D02*
X10742314Y1412942D01*
X12113742Y2612942D02*
X12856600Y2612942D01*
X12456600Y2155800D01*
X12628028Y2155800D01*
X12742314Y2098657D01*
X12799457Y2041514D01*
X12856600Y1927228D01*
X12856600Y1641514D01*
X12799457Y1527228D01*
X12742314Y1470085D01*
X12628028Y1412942D01*
X12285171Y1412942D01*
X12170885Y1470085D01*
X12113742Y1527228D01*
X13199457Y2612942D02*
X13599457Y1412942D01*
X13999457Y2612942D01*
X14285171Y2612942D02*
X15028028Y2612942D01*
X14628028Y2155800D01*
X14799457Y2155800D01*
X14913742Y2098657D01*
X14970885Y2041514D01*
X15028028Y1927228D01*
X15028028Y1641514D01*
X14970885Y1527228D01*
X14913742Y1470085D01*
X14799457Y1412942D01*
X14456600Y1412942D01*
X14342314Y1470085D01*
X14285171Y1527228D01*
X10674542Y4105257D02*
X11588828Y4105257D01*
X11131685Y3648114D02*
X11131685Y4562400D01*
X11588828Y3419542D02*
X10674542Y3419542D01*
X12731685Y4619542D02*
X12160257Y4619542D01*
X12103114Y4048114D01*
X12160257Y4105257D01*
X12274542Y4162400D01*
X12560257Y4162400D01*
X12674542Y4105257D01*
X12731685Y4048114D01*
X12788828Y3933828D01*
X12788828Y3648114D01*
X12731685Y3533828D01*
X12674542Y3476685D01*
X12560257Y3419542D01*
X12274542Y3419542D01*
X12160257Y3476685D01*
X12103114Y3533828D01*
X13131685Y4619542D02*
X13531685Y3419542D01*
X13931685Y4619542D01*
X14782857Y13376285D02*
X15697142Y13376285D01*
X15240000Y12919142D02*
X15240000Y13833428D01*
X17322857Y13376285D02*
X18237142Y13376285D01*
X12242857Y13376285D02*
X13157142Y13376285D01*
X11354285Y32292857D02*
X11411428Y32350000D01*
X11525714Y32407142D01*
X11811428Y32407142D01*
X11925714Y32350000D01*
X11982857Y32292857D01*
X12040000Y32178571D01*
X12040000Y32064285D01*
X11982857Y31892857D01*
X11297142Y31207142D01*
X12040000Y31207142D01*
X12554285Y31321428D02*
X12611428Y31264285D01*
X12554285Y31207142D01*
X12497142Y31264285D01*
X12554285Y31321428D01*
X12554285Y31207142D01*
X13011428Y32407142D02*
X13811428Y32407142D01*
X13297142Y31207142D01*
X14268571Y31664285D02*
X15182857Y31664285D01*
X16325714Y32407142D02*
X15754285Y32407142D01*
X15697142Y31835714D01*
X15754285Y31892857D01*
X15868571Y31950000D01*
X16154285Y31950000D01*
X16268571Y31892857D01*
X16325714Y31835714D01*
X16382857Y31721428D01*
X16382857Y31435714D01*
X16325714Y31321428D01*
X16268571Y31264285D01*
X16154285Y31207142D01*
X15868571Y31207142D01*
X15754285Y31264285D01*
X15697142Y31321428D01*
X16897142Y31321428D02*
X16954285Y31264285D01*
X16897142Y31207142D01*
X16840000Y31264285D01*
X16897142Y31321428D01*
X16897142Y31207142D01*
X18040000Y32407142D02*
X17468571Y32407142D01*
X17411428Y31835714D01*
X17468571Y31892857D01*
X17582857Y31950000D01*
X17868571Y31950000D01*
X17982857Y31892857D01*
X18040000Y31835714D01*
X18097142Y31721428D01*
X18097142Y31435714D01*
X18040000Y31321428D01*
X17982857Y31264285D01*
X17868571Y31207142D01*
X17582857Y31207142D01*
X17468571Y31264285D01*
X17411428Y31321428D01*
X18440000Y32407142D02*
X18840000Y31207142D01*
X19240000Y32407142D01*
X11097142Y38573142D02*
X11097142Y39773142D01*
X11554285Y39773142D01*
X11668571Y39716000D01*
X11725714Y39658857D01*
X11782857Y39544571D01*
X11782857Y39373142D01*
X11725714Y39258857D01*
X11668571Y39201714D01*
X11554285Y39144571D01*
X11097142Y39144571D01*
X12525714Y39773142D02*
X12754285Y39773142D01*
X12868571Y39716000D01*
X12982857Y39601714D01*
X13040000Y39373142D01*
X13040000Y38973142D01*
X12982857Y38744571D01*
X12868571Y38630285D01*
X12754285Y38573142D01*
X12525714Y38573142D01*
X12411428Y38630285D01*
X12297142Y38744571D01*
X12240000Y38973142D01*
X12240000Y39373142D01*
X12297142Y39601714D01*
X12411428Y39716000D01*
X12525714Y39773142D01*
X13440000Y39773142D02*
X13725714Y38573142D01*
X13954285Y39430285D01*
X14182857Y38573142D01*
X14468571Y39773142D01*
X14925714Y39201714D02*
X15325714Y39201714D01*
X15497142Y38573142D02*
X14925714Y38573142D01*
X14925714Y39773142D01*
X15497142Y39773142D01*
X16697142Y38573142D02*
X16297142Y39144571D01*
X16011428Y38573142D02*
X16011428Y39773142D01*
X16468571Y39773142D01*
X16582857Y39716000D01*
X16640000Y39658857D01*
X16697142Y39544571D01*
X16697142Y39373142D01*
X16640000Y39258857D01*
X16582857Y39201714D01*
X16468571Y39144571D01*
X16011428Y39144571D01*
X18125714Y38573142D02*
X18125714Y39773142D01*
X18697142Y38573142D02*
X18697142Y39773142D01*
X19382857Y38573142D01*
X19382857Y39773142D01*
X8680142Y22943428D02*
X8680142Y24443428D01*
X9251571Y24443428D01*
X9394428Y24372000D01*
X9465857Y24300571D01*
X9537285Y24157714D01*
X9537285Y23943428D01*
X9465857Y23800571D01*
X9394428Y23729142D01*
X9251571Y23657714D01*
X8680142Y23657714D01*
X10965857Y24372000D02*
X10823000Y24443428D01*
X10608714Y24443428D01*
X10394428Y24372000D01*
X10251571Y24229142D01*
X10180142Y24086285D01*
X10108714Y23800571D01*
X10108714Y23586285D01*
X10180142Y23300571D01*
X10251571Y23157714D01*
X10394428Y23014857D01*
X10608714Y22943428D01*
X10751571Y22943428D01*
X10965857Y23014857D01*
X11037285Y23086285D01*
X11037285Y23586285D01*
X10751571Y23586285D01*
X8680142Y26269142D02*
X9180142Y26269142D01*
X9394428Y25483428D02*
X8680142Y25483428D01*
X8680142Y26983428D01*
X9394428Y26983428D01*
X10037285Y25483428D02*
X10037285Y26983428D01*
X10894428Y25483428D01*
X10894428Y26983428D01*
X11608714Y26054857D02*
X12751571Y26054857D01*
X12180142Y25483428D02*
X12180142Y26626285D01*
X22319371Y21196800D02*
X21319371Y21196800D01*
X21462228Y21196800D02*
X21390800Y21268228D01*
X21319371Y21411085D01*
X21319371Y21625371D01*
X21390800Y21768228D01*
X21533657Y21839657D01*
X22319371Y21839657D01*
X21533657Y21839657D02*
X21390800Y21911085D01*
X21319371Y22053942D01*
X21319371Y22268228D01*
X21390800Y22411085D01*
X21533657Y22482514D01*
X22319371Y22482514D01*
X22319371Y23411085D02*
X22247942Y23268228D01*
X22105085Y23196800D01*
X20819371Y23196800D01*
X22319371Y24625371D02*
X21533657Y24625371D01*
X21390800Y24553942D01*
X21319371Y24411085D01*
X21319371Y24125371D01*
X21390800Y23982514D01*
X22247942Y24625371D02*
X22319371Y24482514D01*
X22319371Y24125371D01*
X22247942Y23982514D01*
X22105085Y23911085D01*
X21962228Y23911085D01*
X21819371Y23982514D01*
X21747942Y24125371D01*
X21747942Y24482514D01*
X21676514Y24625371D01*
X22319371Y25339657D02*
X20819371Y25339657D01*
X21390800Y25339657D02*
X21319371Y25482514D01*
X21319371Y25768228D01*
X21390800Y25911085D01*
X21462228Y25982514D01*
X21605085Y26053942D01*
X22033657Y26053942D01*
X22176514Y25982514D01*
X22247942Y25911085D01*
X22319371Y25768228D01*
X22319371Y25482514D01*
X22247942Y25339657D01*
X22176514Y26696800D02*
X22247942Y26768228D01*
X22319371Y26696800D01*
X22247942Y26625371D01*
X22176514Y26696800D01*
X22319371Y26696800D01*
X22247942Y28053942D02*
X22319371Y27911085D01*
X22319371Y27625371D01*
X22247942Y27482514D01*
X22176514Y27411085D01*
X22033657Y27339657D01*
X21605085Y27339657D01*
X21462228Y27411085D01*
X21390800Y27482514D01*
X21319371Y27625371D01*
X21319371Y27911085D01*
X21390800Y28053942D01*
X21319371Y28553942D02*
X21319371Y29339657D01*
X22319371Y28553942D01*
X22319371Y29339657D01*
X26622314Y13935857D02*
X26679457Y14107285D01*
X26679457Y14393000D01*
X26622314Y14507285D01*
X26565171Y14564428D01*
X26450885Y14621571D01*
X26336600Y14621571D01*
X26222314Y14564428D01*
X26165171Y14507285D01*
X26108028Y14393000D01*
X26050885Y14164428D01*
X25993742Y14050142D01*
X25936600Y13993000D01*
X25822314Y13935857D01*
X25708028Y13935857D01*
X25593742Y13993000D01*
X25536600Y14050142D01*
X25479457Y14164428D01*
X25479457Y14450142D01*
X25536600Y14621571D01*
X26108028Y15364428D02*
X26679457Y15364428D01*
X25479457Y14964428D02*
X26108028Y15364428D01*
X25479457Y15764428D01*
X26679457Y16164428D02*
X25479457Y16164428D01*
X26336600Y16564428D01*
X25479457Y16964428D01*
X26679457Y16964428D01*
X26679457Y17535857D02*
X25479457Y17535857D01*
X25479457Y17993000D01*
X25536600Y18107285D01*
X25593742Y18164428D01*
X25708028Y18221571D01*
X25879457Y18221571D01*
X25993742Y18164428D01*
X26050885Y18107285D01*
X26108028Y17993000D01*
X26108028Y17535857D01*
X25479457Y18964428D02*
X25479457Y19193000D01*
X25536600Y19307285D01*
X25650885Y19421571D01*
X25879457Y19478714D01*
X26279457Y19478714D01*
X26508028Y19421571D01*
X26622314Y19307285D01*
X26679457Y19193000D01*
X26679457Y18964428D01*
X26622314Y18850142D01*
X26508028Y18735857D01*
X26279457Y18678714D01*
X25879457Y18678714D01*
X25650885Y18735857D01*
X25536600Y18850142D01*
X25479457Y18964428D01*
X25479457Y19878714D02*
X26679457Y20164428D01*
X25822314Y20393000D01*
X26679457Y20621571D01*
X25479457Y20907285D01*
X26050885Y21364428D02*
X26050885Y21764428D01*
X26679457Y21935857D02*
X26679457Y21364428D01*
X25479457Y21364428D01*
X25479457Y21935857D01*
X26679457Y23135857D02*
X26108028Y22735857D01*
X26679457Y22450142D02*
X25479457Y22450142D01*
X25479457Y22907285D01*
X25536600Y23021571D01*
X25593742Y23078714D01*
X25708028Y23135857D01*
X25879457Y23135857D01*
X25993742Y23078714D01*
X26050885Y23021571D01*
X26108028Y22907285D01*
X26108028Y22450142D01*
X25479457Y23878714D02*
X25479457Y23993000D01*
X25536600Y24107285D01*
X25593742Y24164428D01*
X25708028Y24221571D01*
X25936600Y24278714D01*
X26222314Y24278714D01*
X26450885Y24221571D01*
X26565171Y24164428D01*
X26622314Y24107285D01*
X26679457Y23993000D01*
X26679457Y23878714D01*
X26622314Y23764428D01*
X26565171Y23707285D01*
X26450885Y23650142D01*
X26222314Y23593000D01*
X25936600Y23593000D01*
X25708028Y23650142D01*
X25593742Y23707285D01*
X25536600Y23764428D01*
X25479457Y23878714D01*
X25593742Y24735857D02*
X25536600Y24793000D01*
X25479457Y24907285D01*
X25479457Y25193000D01*
X25536600Y25307285D01*
X25593742Y25364428D01*
X25708028Y25421571D01*
X25822314Y25421571D01*
X25993742Y25364428D01*
X26679457Y24678714D01*
X26679457Y25421571D01*
X26336600Y25878714D02*
X26336600Y26450142D01*
X26679457Y25764428D02*
X25479457Y26164428D01*
X26679457Y26564428D01*
X2768857Y11210857D02*
X2826000Y11268000D01*
X2940285Y11325142D01*
X3226000Y11325142D01*
X3340285Y11268000D01*
X3397428Y11210857D01*
X3454571Y11096571D01*
X3454571Y10982285D01*
X3397428Y10810857D01*
X2711714Y10125142D01*
X3454571Y10125142D01*
X4197428Y11325142D02*
X4311714Y11325142D01*
X4426000Y11268000D01*
X4483142Y11210857D01*
X4540285Y11096571D01*
X4597428Y10868000D01*
X4597428Y10582285D01*
X4540285Y10353714D01*
X4483142Y10239428D01*
X4426000Y10182285D01*
X4311714Y10125142D01*
X4197428Y10125142D01*
X4083142Y10182285D01*
X4026000Y10239428D01*
X3968857Y10353714D01*
X3911714Y10582285D01*
X3911714Y10868000D01*
X3968857Y11096571D01*
X4026000Y11210857D01*
X4083142Y11268000D01*
X4197428Y11325142D01*
X5740285Y10125142D02*
X5054571Y10125142D01*
X5397428Y10125142D02*
X5397428Y11325142D01*
X5283142Y11153714D01*
X5168857Y11039428D01*
X5054571Y10982285D01*
X6140285Y11325142D02*
X6940285Y11325142D01*
X6426000Y10125142D01*
X8680142Y28809142D02*
X9180142Y28809142D01*
X9394428Y28023428D02*
X8680142Y28023428D01*
X8680142Y29523428D01*
X9394428Y29523428D01*
X10037285Y28023428D02*
X10037285Y29523428D01*
X10894428Y28023428D01*
X10894428Y29523428D01*
X11608714Y28594857D02*
X12751571Y28594857D01*
D12*
X11430000Y33020000D02*
X11430000Y38100000D01*
X11430000Y38100000D02*
X19050000Y38100000D01*
X19050000Y38100000D02*
X19050000Y33020000D01*
X19050000Y33020000D02*
X11430000Y33020000D01*
X2540000Y27432000D02*
X7620000Y27432000D01*
X7620000Y27432000D02*
X7620000Y24892000D01*
X7620000Y24892000D02*
X2540000Y24892000D01*
X2540000Y24892000D02*
X2540000Y27432000D01*
X2540000Y27432000D02*
X2540000Y29972000D01*
X7620000Y27432000D02*
X2540000Y27432000D01*
X7620000Y29972000D02*
X7620000Y27432000D01*
X2540000Y29972000D02*
X7620000Y29972000D01*
X2540000Y24892000D02*
X7620000Y24892000D01*
X7620000Y24892000D02*
X7620000Y22352000D01*
X7620000Y22352000D02*
X2540000Y22352000D01*
X2540000Y22352000D02*
X2540000Y24892000D01*
X8890000Y7366000D02*
X8890000Y12446000D01*
X8890000Y12446000D02*
X21590000Y12446000D01*
X21590000Y12446000D02*
X21590000Y7366000D01*
X21590000Y7366000D02*
X8890000Y7366000D01*
D13*
X12926190Y32781857D02*
X12926190Y32496142D01*
X12926190Y32639000D02*
X12426190Y32639000D01*
X12497619Y32591380D01*
X12545238Y32543761D01*
X12569047Y32496142D01*
X10386190Y7127857D02*
X10386190Y6842142D01*
X10386190Y6985000D02*
X9886190Y6985000D01*
X9957619Y6937380D01*
X10005238Y6889761D01*
X10029047Y6842142D01*
M02*
