<?xml version="1.0" encoding="UTF-8" standalone="no"?>
<svg
   xmlns:dc="http://purl.org/dc/elements/1.1/"
   xmlns:cc="http://creativecommons.org/ns#"
   xmlns:rdf="http://www.w3.org/1999/02/22-rdf-syntax-ns#"
   xmlns:svg="http://www.w3.org/2000/svg"
   xmlns="http://www.w3.org/2000/svg"
   xmlns:sodipodi="http://sodipodi.sourceforge.net/DTD/sodipodi-0.dtd"
   xmlns:inkscape="http://www.inkscape.org/namespaces/inkscape"
   version="1.1"
   width="29.7002cm"
   height="21.0007cm"
   viewBox="0 0 116930 82680 "
   id="svg2"
   inkscape:version="0.48.4 r9939"
   sodipodi:docname="SMA2SATA.svg">
  <metadata
     id="metadata512">
    <rdf:RDF>
      <cc:Work
         rdf:about="">
        <dc:format>image/svg+xml</dc:format>
        <dc:type
           rdf:resource="http://purl.org/dc/dcmitype/StillImage" />
      </cc:Work>
    </rdf:RDF>
  </metadata>
  <defs
     id="defs510" />
  <sodipodi:namedview
     pagecolor="#ffffff"
     bordercolor="#666666"
     borderopacity="1"
     objecttolerance="10"
     gridtolerance="10"
     guidetolerance="10"
     inkscape:pageopacity="0"
     inkscape:pageshadow="2"
     inkscape:window-width="1440"
     inkscape:window-height="876"
     id="namedview508"
     showgrid="false"
     inkscape:zoom="0.57014208"
     inkscape:cx="508.50997"
     inkscape:cy="644.42228"
     inkscape:window-x="0"
     inkscape:window-y="24"
     inkscape:window-maximized="1"
     inkscape:current-layer="svg2" />
  <title
     id="title4">SVG Picture created as SMA2SATA.svg date 2014/05/10 23:43:02 </title>
  <desc
     id="desc6">Picture generated by Eeschema-SVG </desc>
  <g
     style="fill:#000000; fill-opacity:1;stroke:#000000; stroke-opacity:1; stroke-linecap:round; stroke-linejoin:round; "
     transform="translate(0 0) scale(1 1)"
     id="g8" />
  <g
     style="fill:#000000; fill-opacity:0.0;  stroke:#000000; stroke-width:0; stroke-opacity:1;  stroke-linecap:round; stroke-linejoin:round;"
     id="g10" />
  <g
     style="fill:#840000;fill-opacity:0;stroke:#840000;stroke-width:60;stroke-linecap:round;stroke-linejoin:round;stroke-opacity:1"
     id="g12"
     transform="matrix(3.1371796,0,0,3.0319599,-103730.16,-46461.537)">
    <path
       d="m 52500.9,24500 a 500,500 0 0 0 499.1,-499.1"
       id="path14"
       inkscape:connector-curvature="0" />
    <path
       d="M 53000,23999.1 A 500,500 0 0 0 52500.9,23500"
       id="path16"
       inkscape:connector-curvature="0" />
    <path
       d="m 52500.9,23500 a 500,500 0 0 0 499.1,-499.1"
       id="path18"
       inkscape:connector-curvature="0" />
    <path
       d="M 53000,22999.1 A 500,500 0 0 0 52500.9,22500"
       id="path20"
       inkscape:connector-curvature="0" />
    <path
       d="m 52500.9,22500 a 500,500 0 0 0 499.1,-499.1"
       id="path22"
       inkscape:connector-curvature="0" />
    <path
       d="M 53000,21999.1 A 500,500 0 0 0 52500.9,21500"
       id="path24"
       inkscape:connector-curvature="0" />
    <path
       d="m 52500.9,21500 a 500,500 0 0 0 499.1,-499.1"
       id="path26"
       inkscape:connector-curvature="0" />
    <path
       d="M 53000,20999.1 A 500,500 0 0 0 52500.9,20500"
       id="path28"
       inkscape:connector-curvature="0" />
    <path
       d="m 54000,25999.1 a 500,500 0 0 0 500.9,500.9"
       id="path30"
       inkscape:connector-curvature="0" />
    <path
       d="m 54500.9,25500 a 500,500 0 0 0 -500.9,500.9"
       id="path32"
       inkscape:connector-curvature="0" />
    <path
       d="m 54000,24999.1 a 500,500 0 0 0 500.9,500.9"
       id="path34"
       inkscape:connector-curvature="0" />
    <path
       d="m 54500.9,24500 a 500,500 0 0 0 -500.9,500.9"
       id="path36"
       inkscape:connector-curvature="0" />
    <path
       d="m 54000,23999.1 a 500,500 0 0 0 500.9,500.9"
       id="path38"
       inkscape:connector-curvature="0" />
    <path
       d="m 54500.9,23500 a 500,500 0 0 0 -500.9,500.9"
       id="path40"
       inkscape:connector-curvature="0" />
    <path
       d="m 54000,20999.1 a 500,500 0 0 0 500.9,500.9"
       id="path42"
       inkscape:connector-curvature="0" />
    <path
       d="m 54500.9,20500 a 500,500 0 0 0 -500.9,500.9"
       id="path44"
       inkscape:connector-curvature="0" />
    <path
       d="m 54000,19999.1 a 500,500 0 0 0 500.9,500.9"
       id="path46"
       inkscape:connector-curvature="0" />
    <path
       d="m 54500.9,19500 a 500,500 0 0 0 -500.9,500.9"
       id="path48"
       inkscape:connector-curvature="0" />
    <path
       d="m 54000,18999.1 a 500,500 0 0 0 500.9,500.9"
       id="path50"
       inkscape:connector-curvature="0" />
    <path
       d="m 54500.9,18500 a 500,500 0 0 0 -500.9,500.9"
       id="path52"
       inkscape:connector-curvature="0" />
    <polyline
       fill="none;"
       points="53300,26500 53300,18500 "
       id="polyline54" />
    <polyline
       fill="none;"
       points="53700,18500 53700,26500 "
       id="polyline56" />
    <path
       d="m 52500,20500 -3000,0"
       id="path58"
       inkscape:connector-curvature="0" />
    <path
       d="m 51180,20370 -350,0"
       id="path60"
       inkscape:connector-curvature="0" />
    <path
       d="m 51010,20370 0,-600 -60,90 -60,50 -60,30"
       id="path62"
       inkscape:connector-curvature="0" />
    <path
       d="m 52500,24500 -3000,0"
       id="path64"
       inkscape:connector-curvature="0" />
    <path
       d="m 50830,23830 30,-30 60,-30 140,0 60,30 30,30 30,60 0,50 -30,90 -340,340 370,0"
       id="path66"
       inkscape:connector-curvature="0" />
    <path
       d="m 54500,18500 3000,0"
       id="path68"
       inkscape:connector-curvature="0" />
    <path
       d="m 55810,17770 370,0 -200,230 80,0 60,30 30,30 30,50 0,150 -30,50 -30,30 -60,30 -170,0 -60,-30 -20,-30"
       id="path70"
       inkscape:connector-curvature="0" />
    <path
       d="m 54500,21500 3000,0"
       id="path72"
       inkscape:connector-curvature="0" />
    <path
       d="m 56120,20970 0,400"
       id="path74"
       inkscape:connector-curvature="0" />
    <path
       d="m 55980,20740 -150,430 380,0"
       id="path76"
       inkscape:connector-curvature="0" />
    <path
       d="m 54500,23500 3000,0"
       id="path78"
       inkscape:connector-curvature="0" />
    <path
       d="m 56150,22770 -290,0 -30,290 30,-30 60,-30 140,0 60,30 30,30 30,50 0,150 -30,50 -30,30 -60,30 -140,0 -60,-30 -30,-30"
       id="path80"
       inkscape:connector-curvature="0" />
    <path
       d="m 54500,26500 3000,0"
       id="path82"
       inkscape:connector-curvature="0" />
    <path
       d="m 56120,25770 -110,0 -60,30 -30,30 -60,80 -30,120 0,230 30,50 30,30 60,30 110,0 60,-30 30,-30 30,-50 0,-150 -30,-50 -30,-30 -60,-30 -110,0 -60,30 -30,30 -30,50"
       id="path84"
       inkscape:connector-curvature="0" />
  </g>
  <g
     style="fill:#008484;fill-opacity:0;stroke:#008484;stroke-width:60;stroke-linecap:round;stroke-linejoin:round;stroke-opacity:1"
     id="g86"
     transform="matrix(3.1371796,0,0,3.0319599,-103730.16,-46461.537)">
    <path
       d="m 52970,17090 400,0"
       id="path88"
       inkscape:connector-curvature="0" />
    <path
       d="m 53170,17790 0,-700"
       id="path90"
       inkscape:connector-curvature="0" />
    <path
       d="m 53960,17790 -400,0"
       id="path92"
       inkscape:connector-curvature="0" />
    <path
       d="m 53760,17790 0,-700 -60,100 -70,60 -70,40"
       id="path94"
       inkscape:connector-curvature="0" />
    <path
       d="m 51970,27790 0,-700"
       id="path96"
       inkscape:connector-curvature="0" />
    <path
       d="m 51970,27420 400,0"
       id="path98"
       inkscape:connector-curvature="0" />
    <path
       d="m 52370,27790 0,-700"
       id="path100"
       inkscape:connector-curvature="0" />
    <path
       d="m 53060,27790 -400,0"
       id="path102"
       inkscape:connector-curvature="0" />
    <path
       d="m 52860,27790 0,-700 -60,100 -70,60 -70,40"
       id="path104"
       inkscape:connector-curvature="0" />
    <path
       d="m 53500,27090 70,0 60,30 40,30 30,70 30,130 0,170 -30,130 -30,70 -40,30 -60,40 -70,0 -70,-40 -30,-30 -30,-70 -40,-130 0,-170 40,-130 30,-70 30,-30 70,-30"
       id="path106"
       inkscape:connector-curvature="0" />
    <path
       d="m 54400,27790 -400,0"
       id="path108"
       inkscape:connector-curvature="0" />
    <path
       d="m 54200,27790 0,-700 -60,100 -70,60 -70,40"
       id="path110"
       inkscape:connector-curvature="0" />
    <path
       d="m 54670,27150 40,-30 60,-30 170,0 70,30 30,30 30,70 0,70 -30,100 -400,400 430,0"
       id="path112"
       inkscape:connector-curvature="0" />
  </g>
  <g
     style="fill:#008484; fill-opacity:0.0;  stroke:#008484; stroke-width:0; stroke-opacity:1;  stroke-linecap:round; stroke-linejoin:round;"
     id="g114" />
  <g
     style="fill:#840000;fill-opacity:0;stroke:#840000;stroke-width:80;stroke-linecap:round;stroke-linejoin:round;stroke-opacity:1"
     id="g116"
     transform="matrix(3.1371796,0,0,3.0319599,-103730.16,-46461.537)">
    <circle
       cx="64000"
       cy="23500"
       r="200"
       id="circle118"
       d="m 64200,23500 c 0,110.457 -89.543,200 -200,200 -110.457,0 -200,-89.543 -200,-200 0,-110.457 89.543,-200 200,-200 110.457,0 200,89.543 200,200 z"
       sodipodi:cx="64000"
       sodipodi:cy="23500"
       sodipodi:rx="200"
       sodipodi:ry="200" />
  </g>
  <g
     style="fill:#840000;fill-opacity:0;stroke:#840000;stroke-width:120;stroke-linecap:round;stroke-linejoin:round;stroke-opacity:1"
     id="g120"
     transform="matrix(3.1371796,0,0,3.0319599,-103730.16,-46461.537)">
    <circle
       cx="64000"
       cy="23500"
       r="700"
       id="circle122"
       d="m 64700,23500 c 0,386.599 -313.401,700 -700,700 -386.599,0 -700,-313.401 -700,-700 0,-386.599 313.401,-700 700,-700 386.599,0 700,313.401 700,700 z"
       sodipodi:cx="64000"
       sodipodi:cy="23500"
       sodipodi:rx="700"
       sodipodi:ry="700" />
  </g>
  <g
     style="fill:#840000;fill-opacity:0;stroke:#840000;stroke-width:60;stroke-linecap:round;stroke-linejoin:round;stroke-opacity:1"
     id="g124"
     transform="matrix(3.1371796,0,0,3.0319599,-103730.16,-46461.537)">
    <path
       d="m 63800,23500 -1300,0"
       id="path126"
       inkscape:connector-curvature="0" />
    <path
       d="m 63260,23380 -220,0"
       id="path128"
       inkscape:connector-curvature="0" />
    <path
       d="m 63150,23380 0,-400 -40,60 -40,40 -30,20"
       id="path130"
       inkscape:connector-curvature="0" />
    <path
       d="m 64000,24200 0,1300"
       id="path132"
       inkscape:connector-curvature="0" />
    <path
       d="m 63520,24960 -20,-20 -20,-30 0,-100 20,-40 20,-20 40,-10 40,0 50,10 230,230 0,-240"
       id="path134"
       inkscape:connector-curvature="0" />
  </g>
  <g
     style="fill:#008484;fill-opacity:0;stroke:#008484;stroke-width:60;stroke-linecap:round;stroke-linejoin:round;stroke-opacity:1"
     id="g136"
     transform="matrix(3.1371796,0,0,3.0319599,-103730.16,-46461.537)">
    <path
       d="m 63660,22540 0,-600 230,0 60,30 30,30 30,60 0,80 -30,60 -30,30 -60,30 -230,0"
       id="path138"
       inkscape:connector-curvature="0" />
    <path
       d="m 64580,22540 -350,0"
       id="path140"
       inkscape:connector-curvature="0" />
    <path
       d="m 64410,22540 0,-600 -60,90 -60,50 -60,30"
       id="path142"
       inkscape:connector-curvature="0" />
    <path
       d="m 65630,24510 20,-50 0,-100 -20,-40 -20,-20 -40,-10 -30,0 -40,10 -20,20 -20,40 -20,80 -20,40 -20,10 -30,20 -40,0 -40,-20 -20,-10 -20,-40 0,-100 20,-50"
       id="path144"
       inkscape:connector-curvature="0" />
    <path
       d="m 65650,24110 -400,0 290,-130 -290,-130 400,0"
       id="path146"
       inkscape:connector-curvature="0" />
    <path
       d="m 65540,23670 0,-190"
       id="path148"
       inkscape:connector-curvature="0" />
    <path
       d="m 65650,23710 -400,-130 400,-130"
       id="path150"
       inkscape:connector-curvature="0" />
    <path
       d="m 57260,21260 480,480"
       id="path152"
       inkscape:connector-curvature="0" />
    <path
       d="m 57740,21260 -480,480"
       id="path154"
       inkscape:connector-curvature="0" />
  </g>
  <g
     style="fill:#000084;fill-opacity:0;stroke:#000084;stroke-width:60;stroke-linecap:round;stroke-linejoin:round;stroke-opacity:1"
     id="g156"
     transform="matrix(3.1371796,0,0,3.0319599,-103730.16,-46461.537)">
    <path
       d="m 57260,18260 480,480"
       id="path158"
       inkscape:connector-curvature="0" />
    <path
       d="m 57740,18260 -480,480"
       id="path160"
       inkscape:connector-curvature="0" />
  </g>
  <g
     style="fill:#008400;fill-opacity:0;stroke:#008400;stroke-width:60;stroke-linecap:round;stroke-linejoin:round;stroke-opacity:1"
     id="g162"
     transform="matrix(3.1371796,0,0,3.0319599,-103730.16,-46461.537)">
    <path
       d="m 57500,23500 5000,0"
       id="path164"
       inkscape:connector-curvature="0" />
    <path
       d="m 64000,25500 0,1000"
       id="path166"
       inkscape:connector-curvature="0" />
    <path
       d="m 64000,26500 -6500,0"
       id="path168"
       inkscape:connector-curvature="0" />
  </g>
  <g
     style="fill:#008400; fill-opacity:0.0;  stroke:#008400; stroke-width:0; stroke-opacity:1;  stroke-linecap:round; stroke-linejoin:round;"
     id="g170" />
  <g
     style="fill:#840000;fill-opacity:0;stroke:#840000;stroke-width:80;stroke-linecap:round;stroke-linejoin:round;stroke-opacity:1"
     id="g172"
     transform="matrix(3.1371796,0,0,3.0319599,-103730.16,-46461.537)">
    <circle
       cx="64000"
       cy="36000"
       r="200"
       id="circle174"
       d="m 64200,36000 c 0,110.457 -89.543,200 -200,200 -110.457,0 -200,-89.543 -200,-200 0,-110.457 89.543,-200 200,-200 110.457,0 200,89.543 200,200 z"
       sodipodi:cx="64000"
       sodipodi:cy="36000"
       sodipodi:rx="200"
       sodipodi:ry="200" />
  </g>
  <g
     style="fill:#840000;fill-opacity:0;stroke:#840000;stroke-width:120;stroke-linecap:round;stroke-linejoin:round;stroke-opacity:1"
     id="g176"
     transform="matrix(3.1371796,0,0,3.0319599,-103730.16,-46461.537)">
    <circle
       cx="64000"
       cy="36000"
       r="700"
       id="circle178"
       d="m 64700,36000 c 0,386.599 -313.401,700 -700,700 -386.599,0 -700,-313.401 -700,-700 0,-386.599 313.401,-700 700,-700 386.599,0 700,313.401 700,700 z"
       sodipodi:cx="64000"
       sodipodi:cy="36000"
       sodipodi:rx="700"
       sodipodi:ry="700" />
  </g>
  <g
     style="fill:#840000;fill-opacity:0;stroke:#840000;stroke-width:60;stroke-linecap:round;stroke-linejoin:round;stroke-opacity:1"
     id="g180"
     transform="matrix(3.1371796,0,0,3.0319599,-103730.16,-46461.537)">
    <path
       d="m 63800,36000 -1300,0"
       id="path182"
       inkscape:connector-curvature="0" />
    <path
       d="m 63260,35880 -220,0"
       id="path184"
       inkscape:connector-curvature="0" />
    <path
       d="m 63150,35880 0,-400 -40,60 -40,40 -30,20"
       id="path186"
       inkscape:connector-curvature="0" />
    <path
       d="m 64000,36700 0,1300"
       id="path188"
       inkscape:connector-curvature="0" />
    <path
       d="m 63520,37460 -20,-20 -20,-30 0,-100 20,-40 20,-20 40,-10 40,0 50,10 230,230 0,-240"
       id="path190"
       inkscape:connector-curvature="0" />
  </g>
  <g
     style="fill:#008484;fill-opacity:0;stroke:#008484;stroke-width:60;stroke-linecap:round;stroke-linejoin:round;stroke-opacity:1"
     id="g192"
     transform="matrix(3.1371796,0,0,3.0319599,-103730.16,-46461.537)">
    <path
       d="m 63660,35040 0,-600 230,0 60,30 30,30 30,60 0,80 -30,60 -30,30 -60,30 -230,0"
       id="path194"
       inkscape:connector-curvature="0" />
    <path
       d="m 64230,34500 30,-30 60,-30 140,0 60,30 30,30 30,60 0,50 -30,90 -340,340 370,0"
       id="path196"
       inkscape:connector-curvature="0" />
    <path
       d="m 65630,37010 20,-50 0,-100 -20,-40 -20,-20 -40,-10 -30,0 -40,10 -20,20 -20,40 -20,80 -20,40 -20,10 -30,20 -40,0 -40,-20 -20,-10 -20,-40 0,-100 20,-50"
       id="path198"
       inkscape:connector-curvature="0" />
    <path
       d="m 65650,36610 -400,0 290,-130 -290,-130 400,0"
       id="path200"
       inkscape:connector-curvature="0" />
    <path
       d="m 65540,36170 0,-190"
       id="path202"
       inkscape:connector-curvature="0" />
    <path
       d="m 65650,36210 -400,-130 400,-130"
       id="path204"
       inkscape:connector-curvature="0" />
  </g>
  <g
     style="fill:#008484; fill-opacity:0.0;  stroke:#008484; stroke-width:0; stroke-opacity:1;  stroke-linecap:round; stroke-linejoin:round;"
     id="g206" />
  <g
     style="fill:#840000;fill-opacity:0;stroke:#840000;stroke-width:60;stroke-linecap:round;stroke-linejoin:round;stroke-opacity:1"
     id="g208"
     transform="matrix(3.1371796,0,0,3.0319599,-103730.16,-46461.537)">
    <polyline
       fill="none;"
       points="42000,26000 40000,26000 "
       id="polyline210" />
    <polyline
       fill="none;"
       points="42000,33000 42000,26000 "
       id="polyline212" />
    <polyline
       fill="none;"
       points="40000,26000 40000,33000 "
       id="polyline214" />
    <polyline
       fill="none;"
       points="40000,33000 42000,33000 "
       id="polyline216" />
    <path
       d="m 42000,32500 1000,0"
       id="path218"
       inkscape:connector-curvature="0" />
  </g>
  <g
     style="fill:#008484;fill-opacity:0;stroke:#008484;stroke-width:60;stroke-linecap:round;stroke-linejoin:round;stroke-opacity:1"
     id="g220"
     transform="matrix(3.1371796,0,0,3.0319599,-103730.16,-46461.537)">
    <path
       d="m 41520,32680 -220,0"
       id="path222"
       inkscape:connector-curvature="0" />
    <path
       d="m 41410,32680 0,-400 -40,60 -40,40 -30,20"
       id="path224"
       inkscape:connector-curvature="0" />
  </g>
  <g
     style="fill:#840000;fill-opacity:0;stroke:#840000;stroke-width:60;stroke-linecap:round;stroke-linejoin:round;stroke-opacity:1"
     id="g226"
     transform="matrix(3.1371796,0,0,3.0319599,-103730.16,-46461.537)">
    <path
       d="m 42610,32380 -220,0"
       id="path228"
       inkscape:connector-curvature="0" />
    <path
       d="m 42500,32380 0,-400 -40,60 -40,40 -30,20"
       id="path230"
       inkscape:connector-curvature="0" />
    <path
       d="m 42000,31500 1000,0"
       id="path232"
       inkscape:connector-curvature="0" />
  </g>
  <g
     style="fill:#008484;fill-opacity:0;stroke:#008484;stroke-width:60;stroke-linecap:round;stroke-linejoin:round;stroke-opacity:1"
     id="g234"
     transform="matrix(3.1371796,0,0,3.0319599,-103730.16,-46461.537)">
    <path
       d="m 41300,31320 20,-20 30,-20 100,0 40,20 20,20 10,40 0,40 -10,50 -230,230 240,0"
       id="path236"
       inkscape:connector-curvature="0" />
  </g>
  <g
     style="fill:#840000;fill-opacity:0;stroke:#840000;stroke-width:60;stroke-linecap:round;stroke-linejoin:round;stroke-opacity:1"
     id="g238"
     transform="matrix(3.1371796,0,0,3.0319599,-103730.16,-46461.537)">
    <path
       d="m 42390,31020 20,-20 30,-20 100,0 40,20 20,20 10,40 0,40 -10,50 -230,230 240,0"
       id="path240"
       inkscape:connector-curvature="0" />
    <path
       d="m 42000,30500 1000,0"
       id="path242"
       inkscape:connector-curvature="0" />
  </g>
  <g
     style="fill:#008484;fill-opacity:0;stroke:#008484;stroke-width:60;stroke-linecap:round;stroke-linejoin:round;stroke-opacity:1"
     id="g244"
     transform="matrix(3.1371796,0,0,3.0319599,-103730.16,-46461.537)">
    <path
       d="m 41280,30280 240,0 -130,150 60,0 40,20 20,20 10,40 0,90 -10,40 -20,20 -40,20 -120,0 -30,-20 -20,-20"
       id="path246"
       inkscape:connector-curvature="0" />
  </g>
  <g
     style="fill:#840000;fill-opacity:0;stroke:#840000;stroke-width:60;stroke-linecap:round;stroke-linejoin:round;stroke-opacity:1"
     id="g248"
     transform="matrix(3.1371796,0,0,3.0319599,-103730.16,-46461.537)">
    <path
       d="m 42370,29980 240,0 -130,150 60,0 40,20 20,20 10,40 0,90 -10,40 -20,20 -40,20 -120,0 -30,-20 -20,-20"
       id="path250"
       inkscape:connector-curvature="0" />
    <path
       d="m 42000,29500 1000,0"
       id="path252"
       inkscape:connector-curvature="0" />
  </g>
  <g
     style="fill:#008484;fill-opacity:0;stroke:#008484;stroke-width:60;stroke-linecap:round;stroke-linejoin:round;stroke-opacity:1"
     id="g254"
     transform="matrix(3.1371796,0,0,3.0319599,-103730.16,-46461.537)">
    <path
       d="m 41490,29410 0,270"
       id="path256"
       inkscape:connector-curvature="0" />
    <path
       d="m 41390,29260 -90,290 240,0"
       id="path258"
       inkscape:connector-curvature="0" />
  </g>
  <g
     style="fill:#840000;fill-opacity:0;stroke:#840000;stroke-width:60;stroke-linecap:round;stroke-linejoin:round;stroke-opacity:1"
     id="g260"
     transform="matrix(3.1371796,0,0,3.0319599,-103730.16,-46461.537)">
    <path
       d="m 42580,29110 0,270"
       id="path262"
       inkscape:connector-curvature="0" />
    <path
       d="m 42480,28960 -90,290 240,0"
       id="path264"
       inkscape:connector-curvature="0" />
    <path
       d="m 42000,28500 1000,0"
       id="path266"
       inkscape:connector-curvature="0" />
  </g>
  <g
     style="fill:#008484;fill-opacity:0;stroke:#008484;stroke-width:60;stroke-linecap:round;stroke-linejoin:round;stroke-opacity:1"
     id="g268"
     transform="matrix(3.1371796,0,0,3.0319599,-103730.16,-46461.537)">
    <path
       d="m 41510,28280 -190,0 -20,190 20,-20 30,-20 100,0 40,20 20,20 10,40 0,90 -10,40 -20,20 -40,20 -100,0 -30,-20 -20,-20"
       id="path270"
       inkscape:connector-curvature="0" />
  </g>
  <g
     style="fill:#840000;fill-opacity:0;stroke:#840000;stroke-width:60;stroke-linecap:round;stroke-linejoin:round;stroke-opacity:1"
     id="g272"
     transform="matrix(3.1371796,0,0,3.0319599,-103730.16,-46461.537)">
    <path
       d="m 42600,27980 -190,0 -20,190 20,-20 30,-20 100,0 40,20 20,20 10,40 0,90 -10,40 -20,20 -40,20 -100,0 -30,-20 -20,-20"
       id="path274"
       inkscape:connector-curvature="0" />
    <path
       d="m 42000,27500 1000,0"
       id="path276"
       inkscape:connector-curvature="0" />
  </g>
  <g
     style="fill:#008484;fill-opacity:0;stroke:#008484;stroke-width:60;stroke-linecap:round;stroke-linejoin:round;stroke-opacity:1"
     id="g278"
     transform="matrix(3.1371796,0,0,3.0319599,-103730.16,-46461.537)">
    <path
       d="m 41490,27280 -80,0 -40,20 -20,20 -30,60 -20,70 0,150 20,40 10,20 40,20 80,0 40,-20 20,-20 10,-40 0,-90 -10,-40 -20,-20 -40,-20 -80,0 -40,20 -10,20 -20,40"
       id="path280"
       inkscape:connector-curvature="0" />
  </g>
  <g
     style="fill:#840000;fill-opacity:0;stroke:#840000;stroke-width:60;stroke-linecap:round;stroke-linejoin:round;stroke-opacity:1"
     id="g282"
     transform="matrix(3.1371796,0,0,3.0319599,-103730.16,-46461.537)">
    <path
       d="m 42580,26980 -80,0 -40,20 -20,20 -30,60 -20,70 0,150 20,40 10,20 40,20 80,0 40,-20 20,-20 10,-40 0,-90 -10,-40 -20,-20 -40,-20 -80,0 -40,20 -10,20 -20,40"
       id="path284"
       inkscape:connector-curvature="0" />
    <path
       d="m 42000,26500 1000,0"
       id="path286"
       inkscape:connector-curvature="0" />
  </g>
  <g
     style="fill:#008484;fill-opacity:0;stroke:#008484;stroke-width:60;stroke-linecap:round;stroke-linejoin:round;stroke-opacity:1"
     id="g288"
     transform="matrix(3.1371796,0,0,3.0319599,-103730.16,-46461.537)">
    <path
       d="m 41280,26280 260,0 -170,400"
       id="path290"
       inkscape:connector-curvature="0" />
  </g>
  <g
     style="fill:#840000;fill-opacity:0;stroke:#840000;stroke-width:60;stroke-linecap:round;stroke-linejoin:round;stroke-opacity:1"
     id="g292"
     transform="matrix(3.1371796,0,0,3.0319599,-103730.16,-46461.537)">
    <path
       d="m 42370,25980 260,0 -170,400"
       id="path294"
       inkscape:connector-curvature="0" />
  </g>
  <g
     style="fill:#008484;fill-opacity:0;stroke:#008484;stroke-width:60;stroke-linecap:round;stroke-linejoin:round;stroke-opacity:1"
     id="g296"
     transform="matrix(3.1371796,0,0,3.0319599,-103730.16,-46461.537)">
    <path
       d="m 41400,33540 0,350 -20,70 -50,50 -70,30 -50,0"
       id="path298"
       inkscape:connector-curvature="0" />
    <path
       d="m 41900,34040 -280,0"
       id="path300"
       inkscape:connector-curvature="0" />
    <path
       d="m 41760,34040 0,-500 -50,70 -50,50 -40,20"
       id="path302"
       inkscape:connector-curvature="0" />
    <path
       d="m 34340,25010 70,30 120,0 40,-30 30,-20 20,-50 0,-50 -20,-40 -30,-30 -40,-20 -100,-30 -50,-20 -20,-20 -20,-50 0,-50 20,-50 20,-20 50,-20 120,0 70,20"
       id="path304"
       inkscape:connector-curvature="0" />
    <path
       d="m 34820,24890 230,0"
       id="path306"
       inkscape:connector-curvature="0" />
    <path
       d="m 34770,25040 160,-500 170,500"
       id="path308"
       inkscape:connector-curvature="0" />
    <path
       d="m 35200,24540 280,0"
       id="path310"
       inkscape:connector-curvature="0" />
    <path
       d="m 35340,25040 0,-500"
       id="path312"
       inkscape:connector-curvature="0" />
    <path
       d="m 35630,24890 230,0"
       id="path314"
       inkscape:connector-curvature="0" />
    <path
       d="m 35580,25040 160,-500 170,500"
       id="path316"
       inkscape:connector-curvature="0" />
    <path
       d="m 36030,24540 330,0 -210,500"
       id="path318"
       inkscape:connector-curvature="0" />
    <path
       d="m 36560,24850 380,0"
       id="path320"
       inkscape:connector-curvature="0" />
    <path
       d="m 37390,24540 -90,0 -50,20 -20,20 -50,80 -20,90 0,190 20,50 20,20 50,30 100,0 40,-30 30,-20 20,-50 0,-120 -20,-50 -30,-20 -40,-20 -100,0 -50,20 -20,20 -20,50"
       id="path322"
       inkscape:connector-curvature="0" />
    <path
       d="m 37610,24540 330,0 -210,500"
       id="path324"
       inkscape:connector-curvature="0" />
    <path
       d="m 38350,24700 0,340"
       id="path326"
       inkscape:connector-curvature="0" />
    <path
       d="m 38230,24510 -110,360 300,0"
       id="path328"
       inkscape:connector-curvature="0" />
    <path
       d="m 38640,25040 100,0 50,-30 20,-20 50,-70 20,-100 0,-190 -20,-50 -30,-20 -40,-20 -100,0 -50,20 -20,20 -20,50 0,120 20,50 20,20 50,30 100,0 40,-30 30,-20 20,-50"
       id="path330"
       inkscape:connector-curvature="0" />
    <path
       d="m 39360,25040 -280,0"
       id="path332"
       inkscape:connector-curvature="0" />
    <path
       d="m 39220,25040 0,-500 -50,70 -50,50 -40,20"
       id="path334"
       inkscape:connector-curvature="0" />
    <path
       d="m 39580,24850 380,0"
       id="path336"
       inkscape:connector-curvature="0" />
    <path
       d="m 40460,25040 -280,0"
       id="path338"
       inkscape:connector-curvature="0" />
    <path
       d="m 40320,25040 0,-500 -50,70 -50,50 -40,20"
       id="path340"
       inkscape:connector-curvature="0" />
    <path
       d="m 40770,24540 50,0 50,20 20,20 30,50 20,100 0,120 -20,90 -30,50 -20,20 -50,30 -50,0 -40,-30 -30,-20 -20,-50 -20,-90 0,-120 20,-100 20,-50 30,-20 40,-20"
       id="path342"
       inkscape:connector-curvature="0" />
    <path
       d="m 41110,24540 310,0 -170,190 80,0 40,20 30,20 20,50 0,120 -20,50 -30,20 -40,30 -150,0 -40,-30 -30,-20"
       id="path344"
       inkscape:connector-curvature="0" />
    <path
       d="m 41730,24540 50,0 50,20 20,20 30,50 20,100 0,120 -20,90 -30,50 -20,20 -50,30 -50,0 -40,-30 -30,-20 -20,-50 -20,-90 0,-120 20,-100 20,-50 30,-20 40,-20"
       id="path346"
       inkscape:connector-curvature="0" />
    <path
       d="m 42760,26260 480,480"
       id="path348"
       inkscape:connector-curvature="0" />
    <path
       d="m 43240,26260 -480,480"
       id="path350"
       inkscape:connector-curvature="0" />
  </g>
  <g
     style="fill:#000084;fill-opacity:0;stroke:#000084;stroke-width:60;stroke-linecap:round;stroke-linejoin:round;stroke-opacity:1"
     id="g352"
     transform="matrix(3.1371796,0,0,3.0319599,-103730.16,-46461.537)">
    <path
       d="m 42760,29260 480,480"
       id="path354"
       inkscape:connector-curvature="0" />
    <path
       d="m 43240,29260 -480,480"
       id="path356"
       inkscape:connector-curvature="0" />
    <path
       d="m 42760,32260 480,480"
       id="path358"
       inkscape:connector-curvature="0" />
    <path
       d="m 43240,32260 -480,480"
       id="path360"
       inkscape:connector-curvature="0" />
  </g>
  <g
     style="fill:#008400;fill-opacity:0;stroke:#008400;stroke-width:60;stroke-linecap:round;stroke-linejoin:round;stroke-opacity:1"
     id="g362"
     transform="matrix(3.1371796,0,0,3.0319599,-103730.16,-46461.537)">
    <path
       d="m 43000,27500 1000,0"
       id="path364"
       inkscape:connector-curvature="0" />
    <path
       d="m 44000,27500 0,-7000"
       id="path366"
       inkscape:connector-curvature="0" />
    <path
       d="m 44000,20500 5500,0"
       id="path368"
       inkscape:connector-curvature="0" />
    <path
       d="m 43000,28500 2000,0"
       id="path370"
       inkscape:connector-curvature="0" />
    <path
       d="m 45000,28500 0,-4000"
       id="path372"
       inkscape:connector-curvature="0" />
    <path
       d="m 45000,24500 4500,0"
       id="path374"
       inkscape:connector-curvature="0" />
    <path
       d="m 43000,30500 2000,0"
       id="path376"
       inkscape:connector-curvature="0" />
    <path
       d="m 45000,30500 0,2500"
       id="path378"
       inkscape:connector-curvature="0" />
    <path
       d="m 45000,33000 4500,0"
       id="path380"
       inkscape:connector-curvature="0" />
    <path
       d="m 43000,31500 1000,0"
       id="path382"
       inkscape:connector-curvature="0" />
    <path
       d="m 44000,31500 0,5500"
       id="path384"
       inkscape:connector-curvature="0" />
    <path
       d="m 44000,37000 5500,0"
       id="path386"
       inkscape:connector-curvature="0" />
    <path
       d="m 57500,36000 5000,0"
       id="path388"
       inkscape:connector-curvature="0" />
    <path
       d="m 57500,39000 6500,0"
       id="path390"
       inkscape:connector-curvature="0" />
    <path
       d="m 64000,39000 0,-1000"
       id="path392"
       inkscape:connector-curvature="0" />
  </g>
  <g
     style="fill:#008400; fill-opacity:0.0;  stroke:#008400; stroke-width:0; stroke-opacity:1;  stroke-linecap:round; stroke-linejoin:round;"
     id="g394" />
  <g
     style="fill:#840000;fill-opacity:0;stroke:#840000;stroke-width:60;stroke-linecap:round;stroke-linejoin:round;stroke-opacity:1"
     id="g396"
     transform="matrix(3.1371796,0,0,3.0319599,-103730.16,-46461.537)">
    <path
       d="m 52500.9,37000 a 500,500 0 0 0 499.1,-499.1"
       id="path398"
       inkscape:connector-curvature="0" />
    <path
       d="M 53000,36499.1 A 500,500 0 0 0 52500.9,36000"
       id="path400"
       inkscape:connector-curvature="0" />
    <path
       d="m 52500.9,36000 a 500,500 0 0 0 499.1,-499.1"
       id="path402"
       inkscape:connector-curvature="0" />
    <path
       d="M 53000,35499.1 A 500,500 0 0 0 52500.9,35000"
       id="path404"
       inkscape:connector-curvature="0" />
    <path
       d="m 52500.9,35000 a 500,500 0 0 0 499.1,-499.1"
       id="path406"
       inkscape:connector-curvature="0" />
    <path
       d="M 53000,34499.1 A 500,500 0 0 0 52500.9,34000"
       id="path408"
       inkscape:connector-curvature="0" />
    <path
       d="m 52500.9,34000 a 500,500 0 0 0 499.1,-499.1"
       id="path410"
       inkscape:connector-curvature="0" />
    <path
       d="M 53000,33499.1 A 500,500 0 0 0 52500.9,33000"
       id="path412"
       inkscape:connector-curvature="0" />
    <path
       d="m 54000,38499.1 a 500,500 0 0 0 500.9,500.9"
       id="path414"
       inkscape:connector-curvature="0" />
    <path
       d="m 54500.9,38000 a 500,500 0 0 0 -500.9,500.9"
       id="path416"
       inkscape:connector-curvature="0" />
    <path
       d="m 54000,37499.1 a 500,500 0 0 0 500.9,500.9"
       id="path418"
       inkscape:connector-curvature="0" />
    <path
       d="m 54500.9,37000 a 500,500 0 0 0 -500.9,500.9"
       id="path420"
       inkscape:connector-curvature="0" />
    <path
       d="m 54000,36499.1 a 500,500 0 0 0 500.9,500.9"
       id="path422"
       inkscape:connector-curvature="0" />
    <path
       d="m 54500.9,36000 a 500,500 0 0 0 -500.9,500.9"
       id="path424"
       inkscape:connector-curvature="0" />
    <path
       d="m 54000,33499.1 a 500,500 0 0 0 500.9,500.9"
       id="path426"
       inkscape:connector-curvature="0" />
    <path
       d="m 54500.9,33000 a 500,500 0 0 0 -500.9,500.9"
       id="path428"
       inkscape:connector-curvature="0" />
    <path
       d="m 54000,32499.1 a 500,500 0 0 0 500.9,500.9"
       id="path430"
       inkscape:connector-curvature="0" />
    <path
       d="m 54500.9,32000 a 500,500 0 0 0 -500.9,500.9"
       id="path432"
       inkscape:connector-curvature="0" />
    <path
       d="m 54000,31499.1 a 500,500 0 0 0 500.9,500.9"
       id="path434"
       inkscape:connector-curvature="0" />
    <path
       d="m 54500.9,31000 a 500,500 0 0 0 -500.9,500.9"
       id="path436"
       inkscape:connector-curvature="0" />
    <polyline
       fill="none;"
       points="53300,39000 53300,31000 "
       id="polyline438" />
    <polyline
       fill="none;"
       points="53700,31000 53700,39000 "
       id="polyline440" />
    <path
       d="m 52500,33000 -3000,0"
       id="path442"
       inkscape:connector-curvature="0" />
    <path
       d="m 51180,32870 -350,0"
       id="path444"
       inkscape:connector-curvature="0" />
    <path
       d="m 51010,32870 0,-600 -60,90 -60,50 -60,30"
       id="path446"
       inkscape:connector-curvature="0" />
    <path
       d="m 52500,37000 -3000,0"
       id="path448"
       inkscape:connector-curvature="0" />
    <path
       d="m 50830,36330 30,-30 60,-30 140,0 60,30 30,30 30,60 0,50 -30,90 -340,340 370,0"
       id="path450"
       inkscape:connector-curvature="0" />
    <path
       d="m 54500,31000 3000,0"
       id="path452"
       inkscape:connector-curvature="0" />
    <path
       d="m 55810,30270 370,0 -200,230 80,0 60,30 30,30 30,50 0,150 -30,50 -30,30 -60,30 -170,0 -60,-30 -20,-30"
       id="path454"
       inkscape:connector-curvature="0" />
    <path
       d="m 54500,34000 3000,0"
       id="path456"
       inkscape:connector-curvature="0" />
    <path
       d="m 56120,33470 0,400"
       id="path458"
       inkscape:connector-curvature="0" />
    <path
       d="m 55980,33240 -150,430 380,0"
       id="path460"
       inkscape:connector-curvature="0" />
    <path
       d="m 54500,36000 3000,0"
       id="path462"
       inkscape:connector-curvature="0" />
    <path
       d="m 56150,35270 -290,0 -30,290 30,-30 60,-30 140,0 60,30 30,30 30,50 0,150 -30,50 -30,30 -60,30 -140,0 -60,-30 -30,-30"
       id="path464"
       inkscape:connector-curvature="0" />
    <path
       d="m 54500,39000 3000,0"
       id="path466"
       inkscape:connector-curvature="0" />
    <path
       d="m 56120,38270 -110,0 -60,30 -30,30 -60,80 -30,120 0,230 30,50 30,30 60,30 110,0 60,-30 30,-30 30,-50 0,-150 -30,-50 -30,-30 -60,-30 -110,0 -60,30 -30,30 -30,50"
       id="path468"
       inkscape:connector-curvature="0" />
  </g>
  <g
     style="fill:#008484;fill-opacity:0;stroke:#008484;stroke-width:60;stroke-linecap:round;stroke-linejoin:round;stroke-opacity:1"
     id="g470"
     transform="matrix(3.1371796,0,0,3.0319599,-103730.16,-46461.537)">
    <path
       d="m 52970,29590 400,0"
       id="path472"
       inkscape:connector-curvature="0" />
    <path
       d="m 53170,30290 0,-700"
       id="path474"
       inkscape:connector-curvature="0" />
    <path
       d="m 53960,30290 -400,0"
       id="path476"
       inkscape:connector-curvature="0" />
    <path
       d="m 53760,30290 0,-700 -60,100 -70,60 -70,40"
       id="path478"
       inkscape:connector-curvature="0" />
    <path
       d="m 51970,40290 0,-700"
       id="path480"
       inkscape:connector-curvature="0" />
    <path
       d="m 51970,39920 400,0"
       id="path482"
       inkscape:connector-curvature="0" />
    <path
       d="m 52370,40290 0,-700"
       id="path484"
       inkscape:connector-curvature="0" />
    <path
       d="m 53060,40290 -400,0"
       id="path486"
       inkscape:connector-curvature="0" />
    <path
       d="m 52860,40290 0,-700 -60,100 -70,60 -70,40"
       id="path488"
       inkscape:connector-curvature="0" />
    <path
       d="m 53500,39590 70,0 60,30 40,30 30,70 30,130 0,170 -30,130 -30,70 -40,30 -60,40 -70,0 -70,-40 -30,-30 -30,-70 -40,-130 0,-170 40,-130 30,-70 30,-30 70,-30"
       id="path490"
       inkscape:connector-curvature="0" />
    <path
       d="m 54400,40290 -400,0"
       id="path492"
       inkscape:connector-curvature="0" />
    <path
       d="m 54200,40290 0,-700 -60,100 -70,60 -70,40"
       id="path494"
       inkscape:connector-curvature="0" />
    <path
       d="m 54670,39650 40,-30 60,-30 170,0 70,30 30,30 30,70 0,70 -30,100 -400,400 430,0"
       id="path496"
       inkscape:connector-curvature="0" />
    <path
       d="m 57260,30760 480,480"
       id="path498"
       inkscape:connector-curvature="0" />
    <path
       d="m 57740,30760 -480,480"
       id="path500"
       inkscape:connector-curvature="0" />
  </g>
  <g
     style="fill:#000084;fill-opacity:0;stroke:#000084;stroke-width:60;stroke-linecap:round;stroke-linejoin:round;stroke-opacity:1"
     id="g502"
     transform="matrix(3.1371796,0,0,3.0319599,-103730.16,-46461.537)">
    <path
       d="m 57260,33760 480,480"
       id="path504"
       inkscape:connector-curvature="0" />
    <path
       d="m 57740,33760 -480,480"
       id="path506"
       inkscape:connector-curvature="0" />
  </g>
</svg>
