M48
;DRILL file {KiCad (6.0.0-rc1-dev-205-gc0615c5ef)} date 08/02/18 11:07:58
;FORMAT={-:-/ absolute / inch / decimal}
FMAT,2
INCH,TZ
T1C0.0098
T2C0.0157
T3C0.0315
T4C0.0350
T5C0.0354
T6C0.0630
T7C0.0728
T8C0.1181
T9C0.0433
T10C0.0630
T11C0.1496
%
G90
G05
M72
T1
X2.575Y1.3947
X2.575Y1.3553
T2
X0.075Y1.425
X0.175Y1.425
X0.175Y1.375
X0.175Y1.3
X0.175Y1.225
X0.225Y2.8
X0.225Y2.7
X0.25Y1.425
X0.25Y1.375
X0.25Y1.3
X0.25Y1.225
X0.325Y2.8
X0.325Y2.7
X0.45Y2.8
X0.45Y2.7
X0.625Y0.525
X0.725Y2.25
X0.725Y2.175
X0.725Y2.1
X0.825Y2.25
X0.875Y2.25
X0.95Y2.225
X0.975Y1.3
X0.975Y1.25
X1.Y2.225
X1.025Y1.3
X1.025Y1.25
X1.05Y2.275
X1.075Y1.275
X1.075Y1.225
X1.125Y2.325
X1.15Y3.275
X1.15Y3.175
X1.175Y1.75
X1.2Y3.275
X1.2Y3.175
X1.225Y2.225
X1.225Y2.125
X1.225Y2.05
X1.225Y1.975
X1.25Y3.175
X1.25Y0.15
X1.275Y1.75
X1.3Y3.175
X1.325Y2.275
X1.325Y2.2
X1.325Y2.125
X1.325Y1.975
X1.35Y3.175
X1.35Y2.975
X1.35Y2.775
X1.35Y0.15
X1.375Y1.825
X1.375Y1.775
X1.375Y1.4
X1.375Y1.35
X1.375Y1.25
X1.375Y1.175
X1.375Y1.1
X1.45Y1.825
X1.45Y1.775
X1.45Y0.15
X1.5Y1.825
X1.5Y1.775
X1.525Y3.15
X1.525Y3.1
X1.525Y2.475
X1.525Y2.35
X1.525Y2.3
X1.525Y2.225
X1.525Y2.15
X1.525Y2.075
X1.525Y2.
X1.55Y3.5
X1.55Y3.45
X1.55Y3.4
X1.55Y3.35
X1.55Y0.15
X1.575Y3.15
X1.575Y3.1
X1.575Y1.75
X1.6Y3.5
X1.6Y3.45
X1.6Y3.4
X1.6Y3.35
X1.625Y2.25
X1.625Y2.2
X1.625Y2.15
X1.625Y2.1
X1.625Y2.05
X1.625Y2.
X1.65Y0.15
X1.675Y3.825
X1.675Y3.775
X1.675Y1.375
X1.675Y1.3
X1.675Y1.225
X1.675Y1.175
X1.675Y1.1
X1.725Y3.525
X1.725Y3.4
X1.725Y2.25
X1.725Y2.2
X1.725Y2.125
X1.725Y2.05
X1.725Y2.
X1.75Y3.325
X1.775Y1.75
X1.8Y3.15
X1.825Y2.35
X1.825Y2.3
X1.825Y2.25
X1.825Y2.175
X1.825Y2.1
X1.825Y2.025
X1.825Y1.95
X1.85Y3.3
X1.875Y3.45
X1.925Y3.375
X1.925Y3.325
X1.95Y3.425
X1.975Y2.8935
X1.975Y2.35
X1.975Y2.3
X1.975Y2.225
X1.975Y1.1
X1.975Y1.05
X2.Y3.45
X2.025Y1.1
X2.025Y1.05
X2.05Y2.625
X2.05Y2.55
X2.05Y2.475
X2.0675Y3.375
X2.0675Y3.25
X2.075Y3.5815
X2.075Y1.1
X2.075Y1.05
X2.075Y1.
X2.125Y2.4
X2.125Y1.95
X2.125Y1.85
X2.125Y1.75
X2.125Y1.1
X2.125Y1.05
X2.125Y1.
X2.15Y3.375
X2.15Y3.325
X2.15Y2.3
X2.175Y1.1
X2.175Y1.05
X2.175Y1.
X2.1935Y3.075
X2.225Y3.4
X2.225Y3.125
X2.2559Y2.9059
X2.275Y3.625
X2.275Y3.375
X2.2809Y2.8809
X2.288Y2.3
X2.3065Y2.8
X2.3065Y2.75
X2.325Y3.625
X2.325Y3.575
X2.325Y3.525
X2.325Y3.325
X2.325Y3.075
X2.3293Y1.6043
X2.3435Y2.775
X2.35Y1.775
X2.35Y0.825
X2.35Y0.75
X2.375Y3.125
X2.375Y3.075
X2.3848Y3.2902
X2.4Y2.4
X2.4Y1.775
X2.4179Y2.925
X2.425Y1.625
X2.4494Y3.45
X2.45Y0.9
X2.4945Y1.3945
X2.5Y0.9
X2.5Y0.85
X2.5Y0.8
X2.525Y3.4
X2.525Y3.225
X2.525Y1.55
X2.55Y0.9
X2.55Y0.85
X2.55Y0.8
X2.575Y1.725
X2.5955Y1.9
X2.6Y2.4125
X2.6185Y1.975
X2.625Y3.4
X2.625Y3.05
X2.625Y2.975
X2.625Y2.9
X2.625Y2.7
X2.625Y2.65
X2.675Y3.45
X2.69Y2.05
X2.7Y3.05
X2.75Y3.3375
X2.8Y2.975
X2.8Y2.65
X2.825Y3.625
X2.825Y3.575
X2.825Y3.5315
X2.85Y2.925
X2.9Y3.625
X2.9Y3.275
X2.9Y2.65
X3.Y2.65
X3.1Y2.65
X3.125Y2.925
X3.125Y2.875
X3.125Y2.825
X3.125Y2.775
T3
X2.95Y2.9961
X2.95Y2.8039
T4
X0.8Y3.75
X0.8Y3.65
X2.075Y3.75
X2.075Y3.65
X2.675Y3.75
X2.675Y3.65
X2.9Y1.925
X3.Y1.925
X2.9Y2.375
X3.Y2.375
X0.5Y3.75
X0.5Y3.65
X2.9Y2.025
X3.Y2.025
X2.9Y1.575
X3.Y1.575
X2.9Y1.475
X3.Y1.475
X2.9Y2.275
X3.Y2.275
X2.9Y2.575
X3.Y2.575
X3.Y0.75
X3.Y0.65
X2.9Y1.825
X3.Y1.825
X2.175Y3.75
X2.175Y3.65
X2.9Y2.475
X3.Y2.475
X0.9Y3.75
X0.9Y3.65
X2.9Y1.725
X3.Y1.725
X2.475Y3.75
X2.475Y3.65
X1.775Y3.75
X1.775Y3.65
X1.875Y3.75
X1.875Y3.65
X2.9Y0.55
X2.9Y0.45
X3.Y0.55
X3.Y0.45
X3.1Y0.55
X3.1Y0.45
X2.9Y0.95
X2.9Y0.85
X3.Y0.95
X3.Y0.85
X3.1Y0.95
X3.1Y0.85
X0.6Y3.75
X0.6Y3.65
X2.575Y3.75
X2.575Y3.65
X0.7Y3.75
X0.7Y3.65
X1.575Y3.75
X1.575Y3.65
X1.975Y3.75
X1.975Y3.65
X2.9Y3.2
X3.Y3.2
X0.775Y0.35
X0.775Y0.25
X2.9Y2.125
X3.Y2.125
X2.9Y3.55
X2.9Y3.45
X2.9Y3.35
X3.Y3.55
X3.Y3.45
X3.Y3.35
X2.9Y1.35
X2.9Y1.25
X2.9Y1.15
X3.Y1.35
X3.Y1.25
X3.Y1.15
T5
X0.475Y0.2
X0.575Y0.2
T6
X0.0963Y2.8
X2.7537Y2.8
X0.0963Y1.3
X2.7537Y1.3
T7
X2.215Y0.09
X2.29Y0.4652
X2.475Y0.4652
X2.66Y0.4652
X2.735Y0.09
T8
X3.Y3.7874
X3.Y0.2
X0.2Y0.2
X0.2Y3.8
T9
X1.9028Y0.9112
X1.9028Y1.3612
T10
X1.076Y0.9112
X1.076Y1.3612
T11
X0.7242Y2.8
X2.1258Y2.8
X0.7242Y1.3
X2.1258Y1.3
T0
M30
