M48
;DRILL file {KiCad (2018-02-10 revision a04965c36)-makepkg} date 07/08/18 18:50:39
;FORMAT={3:3/ absolute / metric / suppress leading zeros}
FMAT,2
METRIC,TZ
T1C0.250
T2C0.400
T3C0.800
T4C0.889
T5C0.900
T6C1.600
T7C1.850
T8C3.000
T9C1.100
T10C1.600
T11C3.800
%
G90
G05
M71
T1
X65405Y35425
X65405Y34425
T2
X1905Y36195
X4445Y36195
X4445Y34925
X4445Y33020
X4445Y31115
X5715Y71120
X5715Y68580
X6350Y36195
X6350Y34925
X6350Y33020
X6350Y31115
X8255Y71120
X8255Y68580
X11430Y71120
X11430Y68580
X15875Y13335
X18415Y57150
X18415Y55245
X18415Y53340
X20955Y57150
X22225Y57150
X24130Y56515
X24765Y33020
X24765Y31750
X25400Y56515
X26035Y33020
X26035Y31750
X26670Y57785
X27305Y32385
X27305Y31115
X28575Y59055
X29210Y83185
X29210Y80645
X29845Y44450
X30480Y83185
X30480Y80645
X31115Y56515
X31115Y53975
X31115Y52070
X31115Y50165
X31750Y80645
X31750Y3810
X32385Y44450
X33020Y80645
X33655Y57785
X33655Y55880
X33655Y53975
X33655Y50165
X34290Y80645
X34290Y75565
X34290Y70485
X34290Y3810
X34925Y46355
X34925Y45085
X34925Y35560
X34925Y34290
X34925Y31750
X34925Y29845
X34925Y27940
X36830Y46355
X36830Y45085
X36830Y3810
X38100Y46355
X38100Y45085
X38735Y80010
X38735Y78740
X38735Y62865
X38735Y59690
X38735Y58420
X38735Y56515
X38735Y54610
X38735Y52705
X38735Y50800
X39370Y88900
X39370Y87630
X39370Y86360
X39370Y85090
X39370Y3810
X40005Y80010
X40005Y78740
X40005Y44450
X40640Y88900
X40640Y87630
X40640Y86360
X40640Y85090
X41275Y57150
X41275Y55880
X41275Y54610
X41275Y53340
X41275Y52070
X41275Y50800
X41910Y3810
X42545Y97155
X42545Y95885
X42545Y34925
X42545Y33020
X42545Y31115
X42545Y29845
X42545Y27940
X43815Y89535
X43815Y86360
X43815Y57150
X43815Y55880
X43815Y53975
X43815Y52070
X43815Y50800
X44450Y84455
X45085Y44450
X45720Y80010
X46355Y59690
X46355Y58420
X46355Y57150
X46355Y55245
X46355Y53340
X46355Y51435
X46355Y49530
X46990Y83820
X47625Y87630
X48895Y85725
X48895Y84455
X49530Y86995
X50165Y73495
X50165Y59690
X50165Y58420
X50165Y56515
X50165Y27940
X50165Y26670
X50800Y87630
X51435Y27940
X51435Y26670
X52070Y66675
X52070Y64770
X52070Y62865
X52515Y85725
X52515Y82550
X52705Y90970
X52705Y27940
X52705Y26670
X52705Y25400
X53975Y60960
X53975Y49530
X53975Y46990
X53975Y44450
X53975Y27940
X53975Y26670
X53975Y25400
X54610Y85725
X54610Y84455
X54610Y58420
X55245Y27940
X55245Y26670
X55245Y25400
X55715Y78105
X56515Y86360
X56515Y79375
X57301Y73811
X57785Y92075
X57785Y85725
X57936Y73176
X58115Y58420
X58585Y71120
X58585Y69850
X59055Y92075
X59055Y90805
X59055Y89535
X59055Y84455
X59055Y78105
X59165Y40750
X59525Y70485
X59690Y45085
X59690Y20955
X59690Y19050
X60325Y79375
X60325Y78105
X60573Y83572
X60960Y45085
X61415Y74295
X61595Y41275
X62215Y87630
X62230Y22860
X63361Y35421
X63500Y22860
X63500Y21590
X63500Y20320
X64135Y86360
X64135Y81915
X64135Y39370
X64770Y22860
X64770Y21590
X64770Y20320
X65405Y43815
X65925Y48260
X66510Y50165
X66675Y86360
X66675Y77470
X66675Y75565
X66675Y73660
X66675Y68580
X66675Y67310
X67945Y87630
X68326Y52070
X68580Y77470
X71120Y75565
X71120Y67310
X71755Y92075
X71755Y90805
X71755Y89700
X72390Y74295
X73660Y92075
X73660Y67310
X76200Y67310
X78740Y67310
X79375Y74295
X79375Y73025
X79375Y71755
X79375Y70485
T3
X74930Y76101
X74930Y71219
T4
X62865Y95250
X17780Y92710
X73660Y90170
X73660Y87630
X73660Y85090
X76200Y90170
X76200Y87630
X76200Y85090
X73660Y60325
X76200Y60325
X62865Y92710
X73660Y37465
X73660Y34290
X73660Y31750
X73660Y29210
X76200Y34290
X17780Y95250
X15240Y95250
X76200Y37465
X76200Y31750
X15240Y92710
X47625Y95250
X47625Y92710
X45085Y95250
X73660Y57785
X76200Y57785
X45085Y92710
X50165Y95250
X50165Y92710
X52705Y95250
X52705Y92710
X55245Y95250
X55245Y92710
X12700Y95250
X12700Y92710
X76200Y19050
X76200Y16510
X73660Y51435
X76200Y51435
X73660Y43815
X76200Y43815
X73660Y48895
X76200Y48895
X73660Y46355
X76200Y46355
X73660Y53975
X76200Y53975
X73660Y24130
X73660Y21590
X76200Y24130
X76200Y21590
X78740Y24130
X78740Y21590
X76200Y81280
X19685Y8890
X76200Y29210
X73660Y81280
X20320Y95250
X20320Y92710
X22860Y95250
X22860Y92710
X73660Y65405
X73660Y62865
X76200Y62865
X40005Y92710
X76200Y65405
X19685Y6350
X73660Y13970
X73660Y11430
X73660Y40005
X40005Y95250
X76200Y40005
X67945Y92710
X65405Y95250
X65405Y92710
X67945Y95250
X76200Y13970
X76200Y11430
X78740Y13970
X78740Y11430
T5
X12065Y5080
X14605Y5080
T6
X2445Y33020
X69945Y33020
X2445Y71120
X69945Y71120
T7
X56260Y2286
X58165Y11816
X62865Y11816
X67565Y11816
X69470Y2286
T8
X5080Y5080
X76200Y96200
X5080Y96520
X76200Y5080
T9
X48330Y34575
X48330Y23145
T10
X27330Y23145
X27330Y34575
T11
X18395Y33020
X53995Y33020
X18395Y71120
X53995Y71120
T0
M30
