<?xml version="1.0" encoding="UTF-8" standalone="no"?>
<svg
   xmlns:dc="http://purl.org/dc/elements/1.1/"
   xmlns:cc="http://creativecommons.org/ns#"
   xmlns:rdf="http://www.w3.org/1999/02/22-rdf-syntax-ns#"
   xmlns:svg="http://www.w3.org/2000/svg"
   xmlns="http://www.w3.org/2000/svg"
   xmlns:sodipodi="http://sodipodi.sourceforge.net/DTD/sodipodi-0.dtd"
   xmlns:inkscape="http://www.inkscape.org/namespaces/inkscape"
   version="1.1"
   width="8.0924053cm"
   height="4.0284095cm"
   viewBox="0 0 31859.886 15859.895"
   id="svg2"
   inkscape:version="0.91 r13725"
   sodipodi:docname="UNIPOWER04A-MLABa.svg">
  <metadata
     id="metadata696">
    <rdf:RDF>
      <cc:Work
         rdf:about="">
        <dc:format>image/svg+xml</dc:format>
        <dc:type
           rdf:resource="http://purl.org/dc/dcmitype/StillImage" />
      </cc:Work>
    </rdf:RDF>
  </metadata>
  <defs
     id="defs694" />
  <sodipodi:namedview
     pagecolor="#ffffff"
     bordercolor="#666666"
     borderopacity="1"
     objecttolerance="10"
     gridtolerance="10"
     guidetolerance="10"
     inkscape:pageopacity="0"
     inkscape:pageshadow="2"
     inkscape:window-width="640"
     inkscape:window-height="480"
     id="namedview692"
     showgrid="false"
     inkscape:zoom="0.29077246"
     inkscape:cx="525.55398"
     inkscape:cy="-372.69011"
     inkscape:window-x="2212"
     inkscape:window-y="407"
     inkscape:window-maximized="0"
     inkscape:current-layer="svg2" />
  <title
     id="title4">SVG Picture created as UNIPOWER04A-MLABa.svg date 2017/02/03 14:39:28 </title>
  <desc
     id="desc6">Picture generated by PCBNEW </desc>
  <g
     style="fill:#000000;fill-opacity:1;stroke:#000000;stroke-linecap:round;stroke-linejoin:round;stroke-opacity:1"
     id="g8"
     transform="translate(-70.07225,15929.948)" />
  <g
     style="fill:#000000;fill-opacity:0;stroke:#000000;stroke-width:-0.0003937;stroke-linecap:round;stroke-linejoin:round;stroke-opacity:1"
     id="g10"
     transform="translate(-70.07225,15929.948)" />
  <g
     style="fill:#000000;fill-opacity:0;stroke:#000000;stroke-width:118.11000061;stroke-linecap:round;stroke-linejoin:round;stroke-opacity:1"
     id="g12"
     transform="translate(-70.07225,15929.948)">
    <path
       d="m 18900,-14123 0,141"
       id="path14"
       inkscape:connector-curvature="0" />
    <path
       d="m 18759,-14039 141,57 140,-57"
       id="path16"
       inkscape:connector-curvature="0" />
    <path
       d="m 18815,-13870 85,-112 84,112"
       id="path18"
       inkscape:connector-curvature="0" />
    <path
       d="m 13800,-14123 0,141"
       id="path20"
       inkscape:connector-curvature="0" />
    <path
       d="m 13659,-14039 141,57 140,-57"
       id="path22"
       inkscape:connector-curvature="0" />
    <path
       d="m 13715,-13870 85,-112 84,112"
       id="path24"
       inkscape:connector-curvature="0" />
    <path
       d="m 4600,-8623 0,141"
       id="path26"
       inkscape:connector-curvature="0" />
    <path
       d="m 4459,-8539 141,57 140,-57"
       id="path28"
       inkscape:connector-curvature="0" />
    <path
       d="m 4515,-8370 85,-112 84,112"
       id="path30"
       inkscape:connector-curvature="0" />
    <path
       d="m 4900,-5023 0,141"
       id="path32"
       inkscape:connector-curvature="0" />
    <path
       d="m 4759,-4939 141,57 140,-57"
       id="path34"
       inkscape:connector-curvature="0" />
    <path
       d="m 4815,-4770 85,-112 84,112"
       id="path36"
       inkscape:connector-curvature="0" />
    <path
       d="m 9900,-5123 0,141"
       id="path38"
       inkscape:connector-curvature="0" />
    <path
       d="m 9759,-5039 141,57 140,-57"
       id="path40"
       inkscape:connector-curvature="0" />
    <path
       d="m 9815,-4870 85,-112 84,112"
       id="path42"
       inkscape:connector-curvature="0" />
    <path
       d="m 14900,-5123 0,141"
       id="path44"
       inkscape:connector-curvature="0" />
    <path
       d="m 14759,-5039 141,57 140,-57"
       id="path46"
       inkscape:connector-curvature="0" />
    <path
       d="m 14815,-4870 85,-112 84,112"
       id="path48"
       inkscape:connector-curvature="0" />
    <path
       d="m 19900,-5023 0,141"
       id="path50"
       inkscape:connector-curvature="0" />
    <path
       d="m 19759,-4939 141,57 140,-57"
       id="path52"
       inkscape:connector-curvature="0" />
    <path
       d="m 19815,-4770 85,-112 84,112"
       id="path54"
       inkscape:connector-curvature="0" />
    <path
       d="m 30400,-7423 0,141"
       id="path56"
       inkscape:connector-curvature="0" />
    <path
       d="m 30259,-7339 141,57 140,-57"
       id="path58"
       inkscape:connector-curvature="0" />
    <path
       d="m 30315,-7170 85,-112 84,112"
       id="path60"
       inkscape:connector-curvature="0" />
    <path
       d="m 30400,-11723 0,141"
       id="path62"
       inkscape:connector-curvature="0" />
    <path
       d="m 30259,-11639 141,57 140,-57"
       id="path64"
       inkscape:connector-curvature="0" />
    <path
       d="m 30315,-11470 85,-112 84,112"
       id="path66"
       inkscape:connector-curvature="0" />
    <path
       d="m 19809,-11323 112,0 57,28 56,56 28,113 0,197 -28,112 -56,57 -57,28 -112,0 -56,-28 -57,-57 -28,-112 0,-197 28,-113 57,-56 56,-28"
       id="path68"
       inkscape:connector-curvature="0" />
    <path
       d="m 20315,-11323 0,478 28,56 28,29 57,28 112,0 56,-28 28,-29 29,-56 0,-478"
       id="path70"
       inkscape:connector-curvature="0" />
    <path
       d="m 20849,-11323 338,0"
       id="path72"
       inkscape:connector-curvature="0" />
    <path
       d="m 21018,-10732 0,-591"
       id="path74"
       inkscape:connector-curvature="0" />
    <path
       d="m 14909,-11323 112,0 57,28 56,56 28,113 0,197 -28,112 -56,57 -57,28 -112,0 -56,-28 -57,-57 -28,-112 0,-197 28,-113 57,-56 56,-28"
       id="path76"
       inkscape:connector-curvature="0" />
    <path
       d="m 15415,-11323 0,478 28,56 28,29 57,28 112,0 56,-28 28,-29 29,-56 0,-478"
       id="path78"
       inkscape:connector-curvature="0" />
    <path
       d="m 15949,-11323 338,0"
       id="path80"
       inkscape:connector-curvature="0" />
    <path
       d="m 16118,-10732 0,-591"
       id="path82"
       inkscape:connector-curvature="0" />
    <path
       d="m 1476,-6509 0,-112 28,-57 56,-56 113,-28 197,0 112,28 57,56 28,57 0,112 -28,56 -57,57 -112,28 -197,0 -113,-28 -56,-57 -28,-56"
       id="path84"
       inkscape:connector-curvature="0" />
    <path
       d="m 1476,-7015 478,0 56,-28 29,-28 28,-57 0,-112 -28,-56 -29,-28 -56,-29 -478,0"
       id="path86"
       inkscape:connector-curvature="0" />
    <path
       d="m 1476,-7549 0,-338"
       id="path88"
       inkscape:connector-curvature="0" />
    <path
       d="m 2067,-7718 -591,0"
       id="path90"
       inkscape:connector-curvature="0" />
    <path
       d="m 27276,-9509 0,-112 28,-57 56,-56 113,-28 197,0 112,28 57,56 28,57 0,112 -28,56 -57,57 -112,28 -197,0 -113,-28 -56,-57 -28,-56"
       id="path92"
       inkscape:connector-curvature="0" />
    <path
       d="m 27276,-10015 478,0 56,-28 29,-28 28,-57 0,-112 -28,-56 -29,-28 -56,-29 -478,0"
       id="path94"
       inkscape:connector-curvature="0" />
    <path
       d="m 27276,-10549 0,-338"
       id="path96"
       inkscape:connector-curvature="0" />
    <path
       d="m 27867,-10718 -591,0"
       id="path98"
       inkscape:connector-curvature="0" />
    <path
       d="m 27276,-5209 0,-112 28,-57 56,-56 113,-28 197,0 112,28 57,56 28,57 0,112 -28,56 -57,57 -112,28 -197,0 -113,-28 -56,-57 -28,-56"
       id="path100"
       inkscape:connector-curvature="0" />
    <path
       d="m 27276,-5715 478,0 56,-28 29,-28 28,-57 0,-112 -28,-56 -29,-28 -56,-29 -478,0"
       id="path102"
       inkscape:connector-curvature="0" />
    <path
       d="m 27276,-6249 0,-338"
       id="path104"
       inkscape:connector-curvature="0" />
    <path
       d="m 27867,-6418 -591,0"
       id="path106"
       inkscape:connector-curvature="0" />
    <path
       d="m 20809,-5423 112,0 57,28 56,56 28,113 0,197 -28,112 -56,57 -57,28 -112,0 -56,-28 -57,-57 -28,-112 0,-197 28,-113 57,-56 56,-28"
       id="path108"
       inkscape:connector-curvature="0" />
    <path
       d="m 21315,-5423 0,478 28,56 28,29 57,28 112,0 56,-28 28,-29 29,-56 0,-478"
       id="path110"
       inkscape:connector-curvature="0" />
    <path
       d="m 21849,-5423 338,0"
       id="path112"
       inkscape:connector-curvature="0" />
    <path
       d="m 22018,-4832 0,-591"
       id="path114"
       inkscape:connector-curvature="0" />
    <path
       d="m 15809,-5423 112,0 57,28 56,56 28,113 0,197 -28,112 -56,57 -57,28 -112,0 -56,-28 -57,-57 -28,-112 0,-197 28,-113 57,-56 56,-28"
       id="path116"
       inkscape:connector-curvature="0" />
    <path
       d="m 16315,-5423 0,478 28,56 28,29 57,28 112,0 56,-28 28,-29 29,-56 0,-478"
       id="path118"
       inkscape:connector-curvature="0" />
    <path
       d="m 16849,-5423 338,0"
       id="path120"
       inkscape:connector-curvature="0" />
    <path
       d="m 17018,-4832 0,-591"
       id="path122"
       inkscape:connector-curvature="0" />
    <path
       d="m 10809,-5423 112,0 57,28 56,56 28,113 0,197 -28,112 -56,57 -57,28 -112,0 -56,-28 -57,-57 -28,-112 0,-197 28,-113 57,-56 56,-28"
       id="path124"
       inkscape:connector-curvature="0" />
    <path
       d="m 11315,-5423 0,478 28,56 28,29 57,28 112,0 56,-28 28,-29 29,-56 0,-478"
       id="path126"
       inkscape:connector-curvature="0" />
    <path
       d="m 11849,-5423 338,0"
       id="path128"
       inkscape:connector-curvature="0" />
    <path
       d="m 12018,-4832 0,-591"
       id="path130"
       inkscape:connector-curvature="0" />
    <path
       d="m 5909,-5423 112,0 57,28 56,56 28,113 0,197 -28,112 -56,57 -57,28 -112,0 -56,-28 -57,-57 -28,-112 0,-197 28,-113 57,-56 56,-28"
       id="path132"
       inkscape:connector-curvature="0" />
    <path
       d="m 6415,-5423 0,478 28,56 28,29 57,28 112,0 56,-28 28,-29 29,-56 0,-478"
       id="path134"
       inkscape:connector-curvature="0" />
    <path
       d="m 6949,-5423 338,0"
       id="path136"
       inkscape:connector-curvature="0" />
    <path
       d="m 7118,-4832 0,-591"
       id="path138"
       inkscape:connector-curvature="0" />
    <path
       d="m 8267,-10561 -591,0 0,-225 28,-56 28,-28 57,-28 84,0 56,28 28,28 28,56 0,225"
       id="path140"
       inkscape:connector-curvature="0" />
    <path
       d="m 7676,-11264 0,-112 28,-56 56,-57 113,-28 197,0 112,28 57,57 28,56 0,112 -28,57 -57,56 -112,28 -197,0 -113,-28 -56,-56 -28,-57"
       id="path142"
       inkscape:connector-curvature="0" />
    <path
       d="m 7676,-11714 591,-140 -422,-113 422,-112 -591,-141"
       id="path144"
       inkscape:connector-curvature="0" />
    <path
       d="m 7957,-12445 0,-197"
       id="path146"
       inkscape:connector-curvature="0" />
    <path
       d="m 8267,-12726 0,281 -591,0 0,-281"
       id="path148"
       inkscape:connector-curvature="0" />
    <path
       d="m 8267,-13317 -282,197"
       id="path150"
       inkscape:connector-curvature="0" />
    <path
       d="m 8267,-12979 -591,0 0,-225 28,-56 28,-28 57,-29 84,0 56,29 28,28 28,56 0,225"
       id="path152"
       inkscape:connector-curvature="0" />
    <path
       d="m 8267,-14020 -591,0"
       id="path154"
       inkscape:connector-curvature="0" />
    <path
       d="m 8267,-14301 -591,0 591,-337 -591,0"
       id="path156"
       inkscape:connector-curvature="0" />
    <path
       d="m 16598,-7632 0,-591 197,422 197,-422 0,591"
       id="path158"
       inkscape:connector-curvature="0" />
    <path
       d="m 17554,-7632 -281,0 0,-591"
       id="path160"
       inkscape:connector-curvature="0" />
    <path
       d="m 17723,-7801 281,0"
       id="path162"
       inkscape:connector-curvature="0" />
    <path
       d="m 17667,-7632 197,-591 196,591"
       id="path164"
       inkscape:connector-curvature="0" />
    <path
       d="m 18454,-7942 85,28 28,29 28,56 0,84 -28,56 -28,29 -57,28 -225,0 0,-591 197,0 56,28 29,28 28,57 0,56 -28,56 -29,28 -56,28 -197,0"
       id="path166"
       inkscape:connector-curvature="0" />
    <path
       d="m 18848,-7689 28,29 -28,28 -28,-28 28,-29 0,57"
       id="path168"
       inkscape:connector-curvature="0" />
    <path
       d="m 19467,-7689 -29,29 -84,28 -56,0 -85,-28 -56,-57 -28,-56 -28,-112 0,-85 28,-112 28,-57 56,-56 85,-28 56,0 84,28 29,28"
       id="path170"
       inkscape:connector-curvature="0" />
    <path
       d="m 19663,-8223 394,0 -394,591 394,0"
       id="path172"
       inkscape:connector-curvature="0" />
    <path
       d="m 24887,-14167 28,-28 56,-28 141,0 56,28 28,28 29,57 0,56 -29,84 -337,338 366,0"
       id="path174"
       inkscape:connector-curvature="0" />
    <path
       d="m 25590,-14223 56,0 57,28 28,28 28,57 28,112 0,141 -28,112 -28,56 -28,29 -57,28 -56,0 -56,-28 -28,-29 -28,-56 -28,-112 0,-141 28,-112 28,-57 28,-28 56,-28"
       id="path176"
       inkscape:connector-curvature="0" />
    <path
       d="m 26349,-13632 -337,0"
       id="path178"
       inkscape:connector-curvature="0" />
    <path
       d="m 26181,-13632 0,-591 -57,84 -56,57 -56,28"
       id="path180"
       inkscape:connector-curvature="0" />
    <path
       d="m 26546,-14223 394,0 -253,591"
       id="path182"
       inkscape:connector-curvature="0" />
    <path
       d="m 24817,-15223 0,422 -28,84 -57,57 -84,28 -56,0"
       id="path184"
       inkscape:connector-curvature="0" />
    <path
       d="m 25070,-14801 281,0"
       id="path186"
       inkscape:connector-curvature="0" />
    <path
       d="m 25014,-14632 197,-591 196,591"
       id="path188"
       inkscape:connector-curvature="0" />
    <path
       d="m 25942,-14689 -28,29 -85,28 -56,0 -84,-28 -57,-57 -28,-56 -28,-112 0,-85 28,-112 28,-57 57,-56 84,-28 56,0 85,28 28,28"
       id="path190"
       inkscape:connector-curvature="0" />
    <path
       d="m 26195,-14632 0,-591"
       id="path192"
       inkscape:connector-curvature="0" />
    <path
       d="m 26195,-14942 337,0"
       id="path194"
       inkscape:connector-curvature="0" />
    <path
       d="m 26532,-14632 0,-591"
       id="path196"
       inkscape:connector-curvature="0" />
    <path
       d="m 26926,-15223 112,0 57,28 56,56 28,113 0,197 -28,112 -56,57 -57,28 -112,0 -56,-28 -57,-57 -28,-112 0,-197 28,-113 57,-56 56,-28"
       id="path198"
       inkscape:connector-curvature="0" />
    <path
       d="m 15361,-9323 0,478 28,56 28,29 56,28 113,0 56,-28 28,-29 28,-56 0,-478"
       id="path200"
       inkscape:connector-curvature="0" />
    <path
       d="m 15979,-8732 0,-591 338,591 0,-591"
       id="path202"
       inkscape:connector-curvature="0" />
    <path
       d="m 16598,-8732 0,-591"
       id="path204"
       inkscape:connector-curvature="0" />
    <path
       d="m 16879,-8732 0,-591 225,0 57,28 28,28 28,57 0,84 -28,56 -28,28 -57,28 -225,0"
       id="path206"
       inkscape:connector-curvature="0" />
    <path
       d="m 17582,-9323 113,0 56,28 56,56 28,113 0,197 -28,112 -56,57 -56,28 -113,0 -56,-28 -56,-57 -28,-112 0,-197 28,-113 56,-56 56,-28"
       id="path208"
       inkscape:connector-curvature="0" />
    <path
       d="m 18032,-9323 141,591 112,-422 113,422 141,-591"
       id="path210"
       inkscape:connector-curvature="0" />
    <path
       d="m 18764,-9042 196,0"
       id="path212"
       inkscape:connector-curvature="0" />
    <path
       d="m 19045,-8732 -281,0 0,-591 281,0"
       id="path214"
       inkscape:connector-curvature="0" />
    <path
       d="m 19635,-8732 -197,-282"
       id="path216"
       inkscape:connector-curvature="0" />
    <path
       d="m 19298,-8732 0,-591 225,0 56,28 28,28 28,57 0,84 -28,56 -28,28 -56,28 -225,0"
       id="path218"
       inkscape:connector-curvature="0" />
    <path
       d="m 20001,-9323 56,0 56,28 28,28 29,57 28,112 0,141 -28,112 -29,56 -28,29 -56,28 -56,0 -56,-28 -29,-29 -28,-56 -28,-112 0,-141 28,-112 28,-57 29,-28 56,-28"
       id="path220"
       inkscape:connector-curvature="0" />
    <path
       d="m 20704,-9126 0,394"
       id="path222"
       inkscape:connector-curvature="0" />
    <path
       d="m 20563,-9351 -140,422 365,0"
       id="path224"
       inkscape:connector-curvature="0" />
    <path
       d="m 20985,-8901 281,0"
       id="path226"
       inkscape:connector-curvature="0" />
    <path
       d="m 20929,-8732 197,-591 197,591"
       id="path228"
       inkscape:connector-curvature="0" />
    <path
       d="m 11375,-9657 449,0"
       id="path230"
       inkscape:connector-curvature="0" />
    <path
       d="m 9375,-9657 449,0"
       id="path232"
       inkscape:connector-curvature="0" />
    <path
       d="m 9600,-9432 0,-450"
       id="path234"
       inkscape:connector-curvature="0" />
  </g>
  <g
     style="fill:#000000;fill-opacity:0;stroke:#000000;stroke-width:59.05509949;stroke-linecap:round;stroke-linejoin:round;stroke-opacity:1"
     id="g236"
     transform="translate(-70.07225,15929.948)">
    <path
       d="m 31900,-100 0,-15800"
       id="path238"
       inkscape:connector-curvature="0" />
    <path
       d="m 100,-100 0,-15800"
       id="path240"
       inkscape:connector-curvature="0" />
    <path
       d="m 100,-15900 31800,0"
       id="path242"
       inkscape:connector-curvature="0" />
    <path
       d="m 100,-100 31800,0"
       id="path244"
       inkscape:connector-curvature="0" />
  </g>
  <g
     style="fill:#000000;fill-opacity:0;stroke:#000000;stroke-width:50;stroke-linecap:round;stroke-linejoin:round;stroke-opacity:1"
     id="g246"
     transform="translate(-70.07225,15929.948)">
    <path
       d="m 3828,-15893 0,6299"
       id="path248"
       inkscape:connector-curvature="0" />
    <path
       d="m 7371,-15893 -3543,0"
       id="path250"
       inkscape:connector-curvature="0" />
    <path
       d="m 7371,-9594 0,-6299"
       id="path252"
       inkscape:connector-curvature="0" />
    <path
       d="m 3828,-9594 3543,0"
       id="path254"
       inkscape:connector-curvature="0" />
  </g>
  <g
     style="fill:#000000;fill-opacity:0;stroke:#000000;stroke-width:59.05509949;stroke-linecap:round;stroke-linejoin:round;stroke-opacity:1"
     id="g256"
     transform="translate(-70.07225,15929.948)">
    <path
       d="m 2100,-10700 1000,0"
       id="path258"
       inkscape:connector-curvature="0" />
    <path
       d="m 3100,-10700 0,1000"
       id="path260"
       inkscape:connector-curvature="0" />
    <path
       d="m 3100,-9700 -1000,0"
       id="path262"
       inkscape:connector-curvature="0" />
    <path
       d="m 2100,-9700 0,-1000"
       id="path264"
       inkscape:connector-curvature="0" />
    <path
       d="m 2300,-5000 0,-4000"
       id="path266"
       inkscape:connector-curvature="0" />
    <path
       d="m 4300,-5000 -2000,0"
       id="path268"
       inkscape:connector-curvature="0" />
    <path
       d="m 4300,-9000 0,4000"
       id="path270"
       inkscape:connector-curvature="0" />
    <path
       d="m 2300,-9000 2000,0"
       id="path272"
       inkscape:connector-curvature="0" />
    <path
       d="m 8400,-2600 -4000,0"
       id="path274"
       inkscape:connector-curvature="0" />
    <path
       d="m 8400,-4600 0,2000"
       id="path276"
       inkscape:connector-curvature="0" />
    <path
       d="m 4400,-4600 4000,0"
       id="path278"
       inkscape:connector-curvature="0" />
    <path
       d="m 4400,-2600 0,-2000"
       id="path280"
       inkscape:connector-curvature="0" />
    <path
       d="m 14400,-2600 0,-2000"
       id="path282"
       inkscape:connector-curvature="0" />
    <path
       d="m 14400,-4600 4000,0"
       id="path284"
       inkscape:connector-curvature="0" />
    <path
       d="m 18400,-4600 0,2000"
       id="path286"
       inkscape:connector-curvature="0" />
    <path
       d="m 18400,-2600 -4000,0"
       id="path288"
       inkscape:connector-curvature="0" />
    <path
       d="m 18400,-11600 0,-2000"
       id="path290"
       inkscape:connector-curvature="0" />
    <path
       d="m 18400,-13600 4000,0"
       id="path292"
       inkscape:connector-curvature="0" />
    <path
       d="m 22400,-13600 0,2000"
       id="path294"
       inkscape:connector-curvature="0" />
    <path
       d="m 22400,-11600 -4000,0"
       id="path296"
       inkscape:connector-curvature="0" />
    <path
       d="m 13400,-11600 0,-2000"
       id="path298"
       inkscape:connector-curvature="0" />
    <path
       d="m 13400,-13600 4000,0"
       id="path300"
       inkscape:connector-curvature="0" />
    <path
       d="m 17400,-13600 0,2000"
       id="path302"
       inkscape:connector-curvature="0" />
    <path
       d="m 17400,-11600 -4000,0"
       id="path304"
       inkscape:connector-curvature="0" />
    <path
       d="m 28100,-8100 0,-4000"
       id="path306"
       inkscape:connector-curvature="0" />
    <path
       d="m 30100,-8100 -2000,0"
       id="path308"
       inkscape:connector-curvature="0" />
    <path
       d="m 30100,-12100 0,4000"
       id="path310"
       inkscape:connector-curvature="0" />
    <path
       d="m 28100,-12100 2000,0"
       id="path312"
       inkscape:connector-curvature="0" />
    <path
       d="m 9400,-2600 0,-2000"
       id="path314"
       inkscape:connector-curvature="0" />
    <path
       d="m 9400,-4600 4000,0"
       id="path316"
       inkscape:connector-curvature="0" />
    <path
       d="m 13400,-4600 0,2000"
       id="path318"
       inkscape:connector-curvature="0" />
    <path
       d="m 13400,-2600 -4000,0"
       id="path320"
       inkscape:connector-curvature="0" />
    <path
       d="m 19400,-2600 0,-2000"
       id="path322"
       inkscape:connector-curvature="0" />
    <path
       d="m 19400,-4600 4000,0"
       id="path324"
       inkscape:connector-curvature="0" />
    <path
       d="m 23400,-4600 0,2000"
       id="path326"
       inkscape:connector-curvature="0" />
    <path
       d="m 23400,-2600 -4000,0"
       id="path328"
       inkscape:connector-curvature="0" />
    <path
       d="m 28100,-3800 0,-4000"
       id="path330"
       inkscape:connector-curvature="0" />
    <path
       d="m 30100,-3800 -2000,0"
       id="path332"
       inkscape:connector-curvature="0" />
    <path
       d="m 30100,-7800 0,4000"
       id="path334"
       inkscape:connector-curvature="0" />
    <path
       d="m 28100,-7800 2000,0"
       id="path336"
       inkscape:connector-curvature="0" />
    <path
       d="m 8615,-9931 197,0"
       id="path338"
       inkscape:connector-curvature="0" />
    <path
       d="m 10387,-9931 197,0"
       id="path340"
       inkscape:connector-curvature="0" />
    <path
       d="m 8615,-12293 1969,0"
       id="path342"
       inkscape:connector-curvature="0" />
    <path
       d="m 8615,-15837 1969,0"
       id="path344"
       inkscape:connector-curvature="0" />
    <path
       d="m 9009,-9144 1181,0"
       id="path346"
       inkscape:connector-curvature="0" />
    <path
       d="m 9009,-10128 1181,0"
       id="path348"
       inkscape:connector-curvature="0" />
    <path
       d="m 10387,-8947 -1575,0"
       id="path350"
       inkscape:connector-curvature="0" />
    <path
       d="m 10387,-10325 -1575,0"
       id="path352"
       inkscape:connector-curvature="0" />
    <path
       d="m 9009,-11506 1181,0"
       id="path354"
       inkscape:connector-curvature="0" />
    <path
       d="m 10387,-12490 -1575,0"
       id="path356"
       inkscape:connector-curvature="0" />
    <path
       d="m 8812,-15640 1575,0"
       id="path358"
       inkscape:connector-curvature="0" />
    <path
       d="m 9206,-12490 0,197"
       id="path360"
       inkscape:connector-curvature="0" />
    <path
       d="m 9009,-10128 0,984"
       id="path362"
       inkscape:connector-curvature="0" />
    <path
       d="m 8812,-10325 0,1378"
       id="path364"
       inkscape:connector-curvature="0" />
    <path
       d="m 9993,-12490 0,197"
       id="path366"
       inkscape:connector-curvature="0" />
    <path
       d="m 10190,-10128 0,984"
       id="path368"
       inkscape:connector-curvature="0" />
    <path
       d="m 10387,-10325 0,1379"
       id="path370"
       inkscape:connector-curvature="0" />
    <path
       d="m 9009,-11506 0,1181"
       id="path372"
       inkscape:connector-curvature="0" />
    <path
       d="m 8812,-15640 0,3150"
       id="path374"
       inkscape:connector-curvature="0" />
    <path
       d="m 8615,-12293 0,2362"
       id="path376"
       inkscape:connector-curvature="0" />
    <path
       d="m 10190,-11506 0,1181"
       id="path378"
       inkscape:connector-curvature="0" />
    <path
       d="m 10387,-15640 0,3150"
       id="path380"
       inkscape:connector-curvature="0" />
    <path
       d="m 10584,-12293 0,2362"
       id="path382"
       inkscape:connector-curvature="0" />
    <path
       d="m 8615,-12293 0,-3544"
       id="path384"
       inkscape:connector-curvature="0" />
    <path
       d="m 10584,-15837 0,3544"
       id="path386"
       inkscape:connector-curvature="0" />
    <path
       d="m 12584,-15837 0,3544"
       id="path388"
       inkscape:connector-curvature="0" />
    <path
       d="m 10615,-12293 0,-3544"
       id="path390"
       inkscape:connector-curvature="0" />
    <path
       d="m 12584,-12293 0,2362"
       id="path392"
       inkscape:connector-curvature="0" />
    <path
       d="m 12387,-15640 0,3150"
       id="path394"
       inkscape:connector-curvature="0" />
    <path
       d="m 12190,-11506 0,1181"
       id="path396"
       inkscape:connector-curvature="0" />
    <path
       d="m 10615,-12293 0,2362"
       id="path398"
       inkscape:connector-curvature="0" />
    <path
       d="m 10812,-15640 0,3150"
       id="path400"
       inkscape:connector-curvature="0" />
    <path
       d="m 11009,-11506 0,1181"
       id="path402"
       inkscape:connector-curvature="0" />
    <path
       d="m 12387,-10325 0,1379"
       id="path404"
       inkscape:connector-curvature="0" />
    <path
       d="m 12190,-10128 0,984"
       id="path406"
       inkscape:connector-curvature="0" />
    <path
       d="m 11993,-12490 0,197"
       id="path408"
       inkscape:connector-curvature="0" />
    <path
       d="m 10812,-10325 0,1378"
       id="path410"
       inkscape:connector-curvature="0" />
    <path
       d="m 11009,-10128 0,984"
       id="path412"
       inkscape:connector-curvature="0" />
    <path
       d="m 11206,-12490 0,197"
       id="path414"
       inkscape:connector-curvature="0" />
    <path
       d="m 10812,-15640 1575,0"
       id="path416"
       inkscape:connector-curvature="0" />
    <path
       d="m 12387,-12490 -1575,0"
       id="path418"
       inkscape:connector-curvature="0" />
    <path
       d="m 11009,-11506 1181,0"
       id="path420"
       inkscape:connector-curvature="0" />
    <path
       d="m 12387,-10325 -1575,0"
       id="path422"
       inkscape:connector-curvature="0" />
    <path
       d="m 12387,-8947 -1575,0"
       id="path424"
       inkscape:connector-curvature="0" />
    <path
       d="m 11009,-10128 1181,0"
       id="path426"
       inkscape:connector-curvature="0" />
    <path
       d="m 11009,-9144 1181,0"
       id="path428"
       inkscape:connector-curvature="0" />
    <path
       d="m 10615,-15837 1969,0"
       id="path430"
       inkscape:connector-curvature="0" />
    <path
       d="m 10615,-12293 1969,0"
       id="path432"
       inkscape:connector-curvature="0" />
    <path
       d="m 12387,-9931 197,0"
       id="path434"
       inkscape:connector-curvature="0" />
    <path
       d="m 10615,-9931 197,0"
       id="path436"
       inkscape:connector-curvature="0" />
  </g>
  <g
     style="fill:#000000;fill-opacity:0;stroke:#000000;stroke-width:80;stroke-linecap:round;stroke-linejoin:round;stroke-opacity:1"
     id="g438"
     transform="translate(-70.07225,15929.948)">
    <path
       d="m 3472,-14209 19,19 19,57 0,38 -19,58 -38,38 -38,19 -76,19 -57,0 -76,-19 -38,-19 -38,-38 -20,-58 0,-38 20,-57 19,-19"
       id="path440"
       inkscape:connector-curvature="0" />
    <path
       d="m 3110,-14456 0,-77 20,-38 38,-38 76,-19 133,0 76,19 38,38 19,38 0,77 -19,38 -38,38 -76,19 -133,0 -76,-19 -38,-38 -20,-38"
       id="path442"
       inkscape:connector-curvature="0" />
    <path
       d="m 3510,-14799 -400,0 400,-229 -400,0"
       id="path444"
       inkscape:connector-curvature="0" />
    <path
       l-rule:evenodd;"
points="13247,-2752
12552,-2752
12552,-3447
13247,-3447
13247,-2752
" /> 
<polyline style="fill-rule:evenodd;"
points="13247,-3752
12552,-3752
12552,-4447
13247,-4447
13247,-3752
" /> 
<polyline style="fill-rule:evenodd;"
points="20247,-2752
19552,-2752
19552,-3447
20247,-3447
20247,-2752
" /> 
<polyline style="fill-rule:evenodd;"
points="20247,-3752
19552,-3752
19552,-4447
20247,-4447
20247,-3752
" /> 
<polyline style="fill-rule:evenodd;"
points="21247,-2752
20552,-2752
20552,-3447
21247,-3447
21247,-2752
" /> 
<polyline style="fill-rule:evenodd;"
points="21247,-3752
20552,-3752
20552,-4447
21247,-4447
21247,-3752
" /> 
<polyline style="fill-rule:evenodd;"
points="22247,-2752
21552,-2752
21552,-3447
22247,-3447
22247,-2752
" /> 
<polyline style="fill-rule:evenodd;"
points="22247,-3752
21552,-3752
21552,-4447
22247,-4447
22247,-3752
" /> 
<polyline style="fill-rule:evenodd;"
points="23247,-2752
22552,-2752
22552,-3447
23247,-3447
23247,-2752
" /> 
<polyline style="fill-rule:evenodd;"
points="23247,-3752
22552,-3752
22552,-4447
23247,-4447
23247,-3752
" /> 
<polyline style="fill-rule:evenodd;"
points="29252,-3952
29252,-4647
29947,-4647
29947,-3952
29252,-3952
" /> 
<polyline style="fill-rule:evenodd;"
points="28252,-3952
28252,-4647
28947,-4647
28947,-3952
28252,-3952
" /> 
<polyline style="fill-rule:evenodd;"
points="29252,-4952
29252,-5647
29947,-5647
29947,-4952
29252,-4952
" /> 
<polyline style="fill-rule:evenodd;"
points="28252,-4952
28252,-5647
28947,-5647
28947,-4952
28252,-4952
" /> 
<polyline style="fill-rule:evenodd;"
points="29252,-5952
29252,-6647
29947,-6647
29947,-5952
29252,-5952
" /> 
<polyline style="fill-rule:evenodd;"
points="28252,-5952
28252,-6647
28947,-6647
28947,-5952
28252,-5952
" /> 
<polyline style="fill-rule:evenodd;"
points="29252,-6952
29252,-7647
29947,-7647
29947,-6952
29252,-6952
" /> 
<polyline style="fill-rule:evenodd;"
points="28252,-6952
28252,-7647
28947,-7647
28947,-6952
28252,-6952
" /> 
<circle cx="30000" cy="-14000" r="1228.35" /> 
</g>
<g style="fill:#000000; fill-opacity:1.0; 
stroke:#000000; stroke-width:137.795; stroke-opacity:1; 
stroke-linecap:round; stroke-linejoin:round;">
</g>
<g style="fill:#000000; fill-opacity:1.0; 
stroke:#000000; stroke-width:0; stroke-opacity:1; 
stroke-linecap:round; stroke-linejoin:round;">
<circle cx="30000" cy="-2000" r="1228.35" /> 
</g>
<g style="fill:#000000; fill-opacity:1.0; 
stroke:#000000; stroke-width:137.795; stroke-opacity:1; 
stroke-linecap:round; stroke-linejoin:round;">
</g>
<g style="fill:#000000; fill-opacity:1.0; 
stroke:#000000; stroke-width:0; stroke-opacity:1; 
stroke-linecap:round; stroke-linejoin:round;">
<circle cx="2000" cy="-14000" r="1228.35" /> 
</g>
<g style="fill:#000000; fill-opacity:1.0; 
stroke:#000000; stroke-width:137.795; stroke-opacity:1; 
stroke-linecap:round; stroke-linejoin:round;">
</g>
<g style="fill:#000000; fill-opacity:1.0; 
stroke:#000000; stroke-width:0; stroke-opacity:1; 
stroke-linecap:round; stroke-linejoin:round;">
<circle cx="2000" cy="-2000" r="1228.35" /> 
</g>
<g style="fill:#000000; fill-opacity:1.0; 
stroke:#000000; stroke-width:137.795; stroke-opacity:1; 
stroke-linecap:round; stroke-linejoin:round;">
</g>
<g style="fill:#000000; fill-opacity:1.0; 
stroke:#000000; stroke-width:0; stroke-opacity:1; 
stroke-linecap:round; stroke-linejoin:round;">
<polyline style="fill-rule:evenodd;"
points="8802,-13071
8802,-14665
10397,-14665
10397,-13071
8802,-13071
" /> 
<polyline style="fill-rule:evenodd;"
points="8802,-11102
8802,-12697
10397,-12697
10397,-11102
8802,-11102
" /> 
<polyline style="fill-rule:evenodd;"
points="10802,-11102
10802,-12697
12397,-12697
12397,-11102
10802,-11102
" /> 
<polyline style="fill-rule:evenodd;"
points="10802,-13071
10802,-14665
12397,-14665
12397,-13071
10802,-13071
" /> 
</g> 
</svg>
;stroke-width:59.05509949;stroke-linecap:round;stroke-linejoin:round;stroke-opacity:1"
     id="g506"
     transform="translate(-70.07225,15929.948)">
    <path
       d="m 31900,-100 0,-15800"
       id="path508"
       inkscape:connector-curvature="0" />
    <path
       d="m 100,-100 0,-15800"
       id="path510"
       inkscape:connector-curvature="0" />
    <path
       d="m 100,-15900 31800,0"
       id="path512"
       inkscape:connector-curvature="0" />
    <path
       d="m 100,-100 31800,0"
       id="path514"
       inkscape:connector-curvature="0" />
  </g>
  <g
     style="fill:#000000;fill-opacity:0;stroke:#000000;stroke-width:0;stroke-linecap:round;stroke-linejoin:round;stroke-opacity:1"
     id="g516"
     transform="translate(-70.07225,15929.948)" />
  <g
     style="fill:#000000;fill-opacity:1;stroke:#000000;stroke-width:0;stroke-linecap:round;stroke-linejoin:round;stroke-opacity:1"
     id="g518"
     transform="translate(-70.07225,15929.948)">
    <polyline
       style="fill-rule:evenodd"
       points="6397,-12143 4802,-12143 4802,-13738 6397,-13738 6397,-12143 "
       id="polyline520" />
    <polyline
       style="fill-rule:evenodd"
       points="6397,-9702 4802,-9702 4802,-11297 6397,-11297 6397,-9702 "
       id="polyline522" />
    <polyline
       style="fill-rule:evenodd"
       points="4428,-10923 2834,-10923 2834,-12517 4428,-12517 4428,-10923 "
       id="polyline524" />
    <circle
       cx="1100"
       cy="-8800"
       r="578.73999"
       id="circle526" />
  </g>
  <g
     style="fill:#000000;fill-opacity:1;stroke:#000000;stroke-width:137.79499817;stroke-linecap:round;stroke-linejoin:round;stroke-opacity:1"
     id="g528"
     transform="translate(-70.07225,15929.948)" />
  <g
     style="fill:#000000;fill-opacity:1;stroke:#000000;stroke-width:0;stroke-linecap:round;stroke-linejoin:round;stroke-opacity:1"
     id="g530"
     transform="translate(-70.07225,15929.948)">
    <circle
       cx="4650"
       cy="-1400"
       r="578.73999"
       id="circle532" />
  </g>
  <g
     style="fill:#000000;fill-opacity:1;stroke:#000000;stroke-width:137.79499817;stroke-linecap:round;stroke-linejoin:round;stroke-opacity:1"
     id="g534"
     transform="translate(-70.07225,15929.948)" />
  <g
     style="fill:#000000;fill-opacity:1;stroke:#000000;stroke-width:0;stroke-linecap:round;stroke-linejoin:round;stroke-opacity:1"
     id="g536"
     transform="translate(-70.07225,15929.948)">
    <circle
       cx="16460"
       cy="-1450"
       r="578.73999"
       id="circle538" />
  </g>
  <g
     style="fill:#000000;fill-opacity:1;stroke:#000000;stroke-width:137.79499817;stroke-linecap:round;stroke-linejoin:round;stroke-opacity:1"
     id="g540"
     transform="translate(-70.07225,15929.948)" />
  <g
     style="fill:#000000;fill-opacity:1;stroke:#000000;stroke-width:0;stroke-linecap:round;stroke-linejoin:round;stroke-opacity:1"
     id="g542"
     transform="translate(-70.07225,15929.948)">
    <circle
       cx="19700"
       cy="-14800"
       r="578.73999"
       id="circle544" />
  </g>
  <g
     style="fill:#000000;fill-opacity:1;stroke:#000000;stroke-width:137.79499817;stroke-linecap:round;stroke-linejoin:round;stroke-opacity:1"
     id="g546"
     transform="translate(-70.07225,15929.948)" />
  <g
     style="fill:#000000;fill-opacity:1;stroke:#000000;stroke-width:0;stroke-linecap:round;stroke-linejoin:round;stroke-opacity:1"
     id="g548"
     transform="translate(-70.07225,15929.948)">
    <circle
       cx="14500"
       cy="-14800"
       r="578.73999"
       id="circle550" />
  </g>
  <g
     style="fill:#000000;fill-opacity:1;stroke:#000000;stroke-width:137.79499817;stroke-linecap:round;stroke-linejoin:round;stroke-opacity:1"
     id="g552"
     transform="translate(-70.07225,15929.948)" />
  <g
     style="fill:#000000;fill-opacity:1;stroke:#000000;stroke-width:0;stroke-linecap:round;stroke-linejoin:round;stroke-opacity:1"
     id="g554"
     transform="translate(-70.07225,15929.948)">
    <circle
       cx="30900"
       cy="-9800"
       r="578.73999"
       id="circle556" />
  </g>
  <g
     style="fill:#000000;fill-opacity:1;stroke:#000000;stroke-width:137.79499817;stroke-linecap:round;stroke-linejoin:round;stroke-opacity:1"
     id="g558"
     transform="translate(-70.07225,15929.948)" />
  <g
     style="fill:#000000;fill-opacity:1;stroke:#000000;stroke-width:0;stroke-linecap:round;stroke-linejoin:round;stroke-opacity:1"
     id="g560"
     transform="translate(-70.07225,15929.948)">
    <circle
       cx="9900"
       cy="-1400"
       r="578.73999"
       id="circle562" />
  </g>
  <g
     style="fill:#000000;fill-opacity:1;stroke:#000000;stroke-width:137.79499817;stroke-linecap:round;stroke-linejoin:round;stroke-opacity:1"
     id="g564"
     transform="translate(-70.07225,15929.948)" />
  <g
     style="fill:#000000;fill-opacity:1;stroke:#000000;stroke-width:0;stroke-linecap:round;stroke-linejoin:round;stroke-opacity:1"
     id="g566"
     transform="translate(-70.07225,15929.948)">
    <circle
       cx="21620"
       cy="-1570"
       r="578.73999"
       id="circle568" />
  </g>
  <g
     style="fill:#000000;fill-opacity:1;stroke:#000000;stroke-width:137.79499817;stroke-linecap:round;stroke-linejoin:round;stroke-opacity:1"
     id="g570"
     transform="translate(-70.07225,15929.948)" />
  <g
     style="fill:#000000;fill-opacity:1;stroke:#000000;stroke-width:0;stroke-linecap:round;stroke-linejoin:round;stroke-opacity:1"
     id="g572"
     transform="translate(-70.07225,15929.948)">
    <circle
       cx="30900"
       cy="-5500"
       r="578.73999"
       id="circle574" />
  </g>
  <g
     style="fill:#000000;fill-opacity:1;stroke:#000000;stroke-width:137.79499817;stroke-linecap:round;stroke-linejoin:round;stroke-opacity:1"
     id="g576"
     transform="translate(-70.07225,15929.948)" />
  <g
     style="fill:#000000;fill-opacity:1;stroke:#000000;stroke-width:0;stroke-linecap:round;stroke-linejoin:round;stroke-opacity:1"
     id="g578"
     transform="translate(-70.07225,15929.948)">
    <polyline
       style="fill-rule:evenodd"
       points="2252,-9852 2252,-10547 2947,-10547 2947,-9852 2252,-9852 "
       id="polyline580" />
    <polyline
       style="fill-rule:evenodd"
       points="3452,-5152 3452,-5847 4147,-5847 4147,-5152 3452,-5152 "
       id="polyline582" />
    <polyline
       style="fill-rule:evenodd"
       points="2452,-5152 2452,-5847 3147,-5847 3147,-5152 2452,-5152 "
       id="polyline584" />
    <polyline
       style="fill-rule:evenodd"
       points="3452,-6152 3452,-6847 4147,-6847 4147,-6152 3452,-6152 "
       id="polyline586" />
    <polyline
       style="fill-rule:evenodd"
       points="2452,-6152 2452,-6847 3147,-6847 3147,-6152 2452,-6152 "
       id="polyline588" />
    <polyline
       style="fill-rule:evenodd"
       points="3452,-7152 3452,-7847 4147,-7847 4147,-7152 3452,-7152 "
       id="polyline590" />
    <polyline
       style="fill-rule:evenodd"
       points="2452,-7152 2452,-7847 3147,-7847 3147,-7152 2452,-7152 "
       id="polyline592" />
    <polyline
       style="fill-rule:evenodd"
       points="3452,-8152 3452,-8847 4147,-8847 4147,-8152 3452,-8152 "
       id="polyline594" />
    <polyline
       style="fill-rule:evenodd"
       points="2452,-8152 2452,-8847 3147,-8847 3147,-8152 2452,-8152 "
       id="polyline596" />
    <polyline
       style="fill-rule:evenodd"
       points="8247,-3752 7552,-3752 7552,-4447 8247,-4447 8247,-3752 "
       id="polyline598" />
    <polyline
       style="fill-rule:evenodd"
       points="8247,-2752 7552,-2752 7552,-3447 8247,-3447 8247,-2752 "
       id="polyline600" />
    <polyline
       style="fill-rule:evenodd"
       points="7247,-3752 6552,-3752 6552,-4447 7247,-4447 7247,-3752 "
       id="polyline602" />
    <polyline
       style="fill-rule:evenodd"
       points="7247,-2752 6552,-2752 6552,-3447 7247,-3447 7247,-2752 "
       id="polyline604" />
    <polyline
       style="fill-rule:evenodd"
       points="6247,-3752 5552,-3752 5552,-4447 6247,-4447 6247,-3752 "
       id="polyline606" />
    <polyline
       style="fill-rule:evenodd"
       points="6247,-2752 5552,-2752 5552,-3447 6247,-3447 6247,-2752 "
       id="polyline608" />
    <polyline
       style="fill-rule:evenodd"
       points="5247,-3752 4552,-3752 4552,-4447 5247,-4447 5247,-3752 "
       id="polyline610" />
    <polyline
       style="fill-rule:evenodd"
       points="5247,-2752 4552,-2752 4552,-3447 5247,-3447 5247,-2752 "
       id="polyline612" />
    <polyline
       style="fill-rule:evenodd"
       points="15247,-2752 14552,-2752 14552,-3447 15247,-3447 15247,-2752 "
       id="polyline614" />
    <polyline
       style="fill-rule:evenodd"
       points="15247,-3752 14552,-3752 14552,-4447 15247,-4447 15247,-3752 "
       id="polyline616" />
    <polyline
       style="fill-rule:evenodd"
       points="16247,-2752 15552,-2752 15552,-3447 16247,-3447 16247,-2752 "
       id="polyline618" />
    <polyline
       style="fill-rule:evenodd"
       points="16247,-3752 15552,-3752 15552,-4447 16247,-4447 16247,-3752 "
       id="polyline620" />
    <polyline
       style="fill-rule:evenodd"
       points="17247,-2752 16552,-2752 16552,-3447 17247,-3447 17247,-2752 "
       id="polyline622" />
    <polyline
       style="fill-rule:evenodd"
       points="17247,-3752 16552,-3752 16552,-4447 17247,-4447 17247,-3752 "
       id="polyline624" />
    <polyline
       style="fill-rule:evenodd"
       points="18247,-2752 17552,-2752 17552,-3447 18247,-3447 18247,-2752 "
       id="polyline626" />
    <polyline
       style="fill-rule:evenodd"
       points="18247,-3752 17552,-3752 17552,-4447 18247,-4447 18247,-3752 "
       id="polyline628" />
    <polyline
       style="fill-rule:evenodd"
       points="19247,-11752 18552,-11752 18552,-12447 19247,-12447 19247,-11752 "
       id="polyline630" />
    <polyline
       style="fill-rule:evenodd"
       points="19247,-12752 18552,-12752 18552,-13447 19247,-13447 19247,-12752 "
       id="polyline632" />
    <polyline
       style="fill-rule:evenodd"
       points="20247,-11752 19552,-11752 19552,-12447 20247,-12447 20247,-11752 "
       id="polyline634" />
    <polyline
       style="fill-rule:evenodd"
       points="20247,-12752 19552,-12752 19552,-13447 20247,-13447 20247,-12752 "
       id="polyline636" />
    <polyline
       style="fill-rule:evenodd"
       points="21247,-11752 20552,-11752 20552,-12447 21247,-12447 21247,-11752 "
       id="polyline638" />
    <polyline
       style="fill-rule:evenodd"
       points="21247,-12752 20552,-12752 20552,-13447 21247,-13447 21247,-12752 "
       id="polyline640" />
    <polyline
       style="fill-rule:evenodd"
       points="22247,-11752 21552,-11752 21552,-12447 22247,-12447 22247,-11752 "
       id="polyline642" />
    <polyline
       style="fill-rule:evenodd"
       points="22247,-12752 21552,-12752 21552,-13447 22247,-13447 22247,-12752 "
       id="polyline644" />
    <polyline
       style="fill-rule:evenodd"
       points="14247,-11752 13552,-11752 13552,-12447 14247,-12447 14247,-11752 "
       id="polyline646" />
    <polyline
       style="fill-rule:evenodd"
       points="14247,-12752 13552,-12752 13552,-13447 14247,-13447 14247,-12752 "
       id="polyline648" />
    <polyline
       style="fill-rule:evenodd"
       points="15247,-11752 14552,-11752 14552,-12447 15247,-12447 15247,-11752 "
       id="polyline650" />
    <polyline
       style="fill-rule:evenodd"
       points="15247,-12752 14552,-12752 14552,-13447 15247,-13447 15247,-12752 "
       id="polyline652" />
    <polyline
       style="fill-rule:evenodd"
       points="16247,-11752 15552,-11752 15552,-12447 16247,-12447 16247,-11752 "
       id="polyline654" />
    <polyline
       style="fill-rule:evenodd"
       points="16247,-12752 15552,-12752 15552,-13447 16247,-13447 16247,-12752 "
       id="polyline656" />
    <polyline
       style="fill-rule:evenodd"
       points="17247,-11752 16552,-11752 16552,-12447 17247,-12447 17247,-11752 "
       id="polyline658" />
    <polyline
       style="fill-rule:evenodd"
       points="17247,-12752 16552,-12752 16552,-13447 17247,-13447 17247,-12752 "
       id="polyline660" />
    <polyline
       style="fill-rule:evenodd"
       points="29252,-8252 29252,-8947 29947,-8947 29947,-8252 29252,-8252 "
       id="polyline662" />
    <polyline
       style="fill-rule:evenodd"
       points="28252,-8252 28252,-8947 28947,-8947 28947,-8252 28252,-8252 "
       id="polyline664" />
    <polyline
       style="fill-rule:evenodd"
       points="29252,-9252 29252,-9947 29947,-9947 29947,-9252 29252,-9252 "
       id="polyline666" />
    <polyline
       style="fill-rule:evenodd"
       points="28252,-9252 28252,-9947 28947,-9947 28947,-9252 28252,-9252 "
       id="polyline668" />
    <polyline
       style="fill-rule:evenodd"
       points="29252,-10252 29252,-10947 29947,-10947 29947,-10252 29252,-10252 "
       id="polyline670" />
    <polyline
       style="fill-rule:evenodd"
       points="28252,-10252 28252,-10947 28947,-10947 28947,-10252 28252,-10252 "
       id="polyline672" />
    <polyline
       style="fill-rule:evenodd"
       points="29252,-11252 29252,-11947 29947,-11947 29947,-11252 29252,-11252 "
       id="polyline674" />
    <polyline
       style="fill-rule:evenodd"
       points="28252,-11252 28252,-11947 28947,-11947 28947,-11252 28252,-11252 "
       id="polyline676" />
    <polyline
       style="fill-rule:evenodd"
       points="10247,-2752 9552,-2752 9552,-3447 10247,-3447 10247,-2752 "
       id="polyline678" />
    <polyline
       style="fill-rule:evenodd"
       points="10247,-3752 9552,-3752 9552,-4447 10247,-4447 10247,-3752 "
       id="polyline680" />
    <polyline
       style="fill-rule:evenodd"
       points="11247,-2752 10552,-2752 10552,-3447 11247,-3447 11247,-2752 "
       id="polyline682" />
    <polyline
       style="fill-rule:evenodd"
       points="11247,-3752 10552,-3752 10552,-4447 11247,-4447 11247,-3752 "
       id="polyline684" />
    <polyline
       style="fill-rule:evenodd"
       points="12247,-2752 11552,-2752 11552,-3447 12247,-3447 12247,-2752 "
       id="polyline686" />
    <polyline
       style="fill-rule:evenodd"
       points="12247,-3752 11552,-3752 11552,-4447 12247,-4447 12247,-3752 "
       id="polyline688" />
    <polyline
       id="polyline690" />
  </g>
</svg>
