solid OpenSCAD_Model
  facet normal 0 1 -0
    outer loop
      vertex 108.209 54.989 0
      vertex 1.79094 54.989 1.5
      vertex 108.209 54.989 1.5
    endloop
  endfacet
  facet normal 0 1 0
    outer loop
      vertex 1.79094 54.989 1.5
      vertex 108.209 54.989 0
      vertex 1.79094 54.989 0
    endloop
  endfacet
  facet normal 0.86603 0.499991 0
    outer loop
      vertex 109.827 53.8135 1.5
      vertex 109.618 54.1756 0
      vertex 109.618 54.1756 1.5
    endloop
  endfacet
  facet normal 0.86603 0.499991 0
    outer loop
      vertex 109.618 54.1756 0
      vertex 109.827 53.8135 1.5
      vertex 109.827 53.8135 0
    endloop
  endfacet
  facet normal 0.994523 0.10452 0
    outer loop
      vertex 110 53 1.5
      vertex 109.956 53.4158 0
      vertex 109.956 53.4158 1.5
    endloop
  endfacet
  facet normal 0.994523 0.10452 0
    outer loop
      vertex 109.956 53.4158 0
      vertex 110 53 1.5
      vertex 110 53 0
    endloop
  endfacet
  facet normal 0.20791 0.978148 -0
    outer loop
      vertex 108.618 54.9021 0
      vertex 108.209 54.989 1.5
      vertex 108.618 54.9021 1.5
    endloop
  endfacet
  facet normal 0.20791 0.978148 0
    outer loop
      vertex 108.209 54.989 1.5
      vertex 108.618 54.9021 0
      vertex 108.209 54.989 0
    endloop
  endfacet
  facet normal -0.406746 0.913541 0
    outer loop
      vertex 1.38197 54.9021 0
      vertex 1 54.732 1.5
      vertex 1.38197 54.9021 1.5
    endloop
  endfacet
  facet normal -0.406746 0.913541 0
    outer loop
      vertex 1 54.732 1.5
      vertex 1.38197 54.9021 0
      vertex 1 54.732 0
    endloop
  endfacet
  facet normal -0 0 1
    outer loop
      vertex 4.49443 49.4783 1.5
      vertex 10 35 1.5
      vertex 5.29443 50.0595 1.5
    endloop
  endfacet
  facet normal 0 0 1
    outer loop
      vertex 10 35 1.5
      vertex 5.29443 4.94046 1.5
      vertex 5.6 4 1.5
    endloop
  endfacet
  facet normal -0 0 1
    outer loop
      vertex 3.50557 49.4783 1.5
      vertex 10 35 1.5
      vertex 4.49443 49.4783 1.5
    endloop
  endfacet
  facet normal 0 0 1
    outer loop
      vertex 10 35 1.5
      vertex 4.49443 5.52169 1.5
      vertex 5.29443 4.94046 1.5
    endloop
  endfacet
  facet normal 0 0 1
    outer loop
      vertex 2.70557 50.0595 1.5
      vertex 10 35 1.5
      vertex 3.50557 49.4783 1.5
    endloop
  endfacet
  facet normal 0 0 1
    outer loop
      vertex 10 35 1.5
      vertex 3.50557 5.52169 1.5
      vertex 4.49443 5.52169 1.5
    endloop
  endfacet
  facet normal 0 0 1
    outer loop
      vertex 2.70557 4.94046 1.5
      vertex 10 35 1.5
      vertex 2.70557 50.0595 1.5
    endloop
  endfacet
  facet normal 0 0 1
    outer loop
      vertex 10 35 1.5
      vertex 2.70557 4.94046 1.5
      vertex 3.50557 5.52169 1.5
    endloop
  endfacet
  facet normal 0 0 1
    outer loop
      vertex 0 53 1.5
      vertex 2.70557 50.0595 1.5
      vertex 2.4 51 1.5
    endloop
  endfacet
  facet normal 0 0 1
    outer loop
      vertex 2.70557 50.0595 1.5
      vertex 0 53 1.5
      vertex 2.70557 4.94046 1.5
    endloop
  endfacet
  facet normal -0 0 1
    outer loop
      vertex 107.294 4.94046 1.5
      vertex 110 2 1.5
      vertex 107.294 50.0595 1.5
    endloop
  endfacet
  facet normal 0 0 1
    outer loop
      vertex 110 2 1.5
      vertex 107.294 4.94046 1.5
      vertex 107.6 4 1.5
    endloop
  endfacet
  facet normal -0 0 1
    outer loop
      vertex 106.494 49.4783 1.5
      vertex 107.294 4.94046 1.5
      vertex 107.294 50.0595 1.5
    endloop
  endfacet
  facet normal 0 0 1
    outer loop
      vertex 106.494 49.4783 1.5
      vertex 106.494 5.52169 1.5
      vertex 107.294 4.94046 1.5
    endloop
  endfacet
  facet normal 0 0 1
    outer loop
      vertex 95 24 1.5
      vertex 106.494 49.4783 1.5
      vertex 105.506 49.4783 1.5
    endloop
  endfacet
  facet normal 0 0 1
    outer loop
      vertex 106.494 49.4783 1.5
      vertex 95 24 1.5
      vertex 106.494 5.52169 1.5
    endloop
  endfacet
  facet normal 0 0 1
    outer loop
      vertex 95 24 1.5
      vertex 105.506 49.4783 1.5
      vertex 104.706 50.0595 1.5
    endloop
  endfacet
  facet normal 0 0 1
    outer loop
      vertex 106.494 5.52169 1.5
      vertex 95 24 1.5
      vertex 105.506 5.52169 1.5
    endloop
  endfacet
  facet normal 0 0 1
    outer loop
      vertex 77 24 1.5
      vertex 104.706 50.0595 1.5
      vertex 104.4 51 1.5
    endloop
  endfacet
  facet normal -0 0 1
    outer loop
      vertex 95 10 1.5
      vertex 105.506 5.52169 1.5
      vertex 95 24 1.5
    endloop
  endfacet
  facet normal 0 0 1
    outer loop
      vertex 107.294 51.9405 1.5
      vertex 110 53 1.5
      vertex 109.956 53.4158 1.5
    endloop
  endfacet
  facet normal 0 0 1
    outer loop
      vertex 107.294 50.0595 1.5
      vertex 110 53 1.5
      vertex 107.6 51 1.5
    endloop
  endfacet
  facet normal 0 0 1
    outer loop
      vertex 107.294 51.9405 1.5
      vertex 109.956 53.4158 1.5
      vertex 109.827 53.8135 1.5
    endloop
  endfacet
  facet normal 0 0 1
    outer loop
      vertex 110 53 1.5
      vertex 107.294 50.0595 1.5
      vertex 110 2 1.5
    endloop
  endfacet
  facet normal 0 0 1
    outer loop
      vertex 107.294 51.9405 1.5
      vertex 109.827 53.8135 1.5
      vertex 109.618 54.1756 1.5
    endloop
  endfacet
  facet normal -0 0 1
    outer loop
      vertex 107.294 3.05954 1.5
      vertex 110 2 1.5
      vertex 107.6 4 1.5
    endloop
  endfacet
  facet normal 0 0 1
    outer loop
      vertex 107.294 51.9405 1.5
      vertex 109.618 54.1756 1.5
      vertex 109.338 54.4863 1.5
    endloop
  endfacet
  facet normal 0 0 1
    outer loop
      vertex 110 2 1.5
      vertex 107.294 3.05954 1.5
      vertex 109.956 1.58418 1.5
    endloop
  endfacet
  facet normal 0 0 1
    outer loop
      vertex 107.294 51.9405 1.5
      vertex 109.338 54.4863 1.5
      vertex 109 54.732 1.5
    endloop
  endfacet
  facet normal 0 0 1
    outer loop
      vertex 109.956 1.58418 1.5
      vertex 107.294 3.05954 1.5
      vertex 109.827 1.18653 1.5
    endloop
  endfacet
  facet normal 0 0 1
    outer loop
      vertex 107.294 51.9405 1.5
      vertex 109 54.732 1.5
      vertex 108.618 54.9021 1.5
    endloop
  endfacet
  facet normal 0 0 1
    outer loop
      vertex 109.827 1.18653 1.5
      vertex 107.294 3.05954 1.5
      vertex 109.618 0.82443 1.5
    endloop
  endfacet
  facet normal 0 0 1
    outer loop
      vertex 107.294 51.9405 1.5
      vertex 108.618 54.9021 1.5
      vertex 108.209 54.989 1.5
    endloop
  endfacet
  facet normal 0 0 1
    outer loop
      vertex 109.618 0.82443 1.5
      vertex 107.294 3.05954 1.5
      vertex 109.338 0.513711 1.5
    endloop
  endfacet
  facet normal 0 0 1
    outer loop
      vertex 109.338 0.513711 1.5
      vertex 107.294 3.05954 1.5
      vertex 109 0.26795 1.5
    endloop
  endfacet
  facet normal 0 0 1
    outer loop
      vertex 110 53 1.5
      vertex 107.294 51.9405 1.5
      vertex 107.6 51 1.5
    endloop
  endfacet
  facet normal 0 0 1
    outer loop
      vertex 108.209 54.989 1.5
      vertex 106.494 52.5217 1.5
      vertex 107.294 51.9405 1.5
    endloop
  endfacet
  facet normal 0 0 1
    outer loop
      vertex 108.209 54.989 1.5
      vertex 105.506 52.5217 1.5
      vertex 106.494 52.5217 1.5
    endloop
  endfacet
  facet normal 0 0 1
    outer loop
      vertex 108.209 54.989 1.5
      vertex 104.706 51.9405 1.5
      vertex 105.506 52.5217 1.5
    endloop
  endfacet
  facet normal 0 0 1
    outer loop
      vertex 105.506 5.52169 1.5
      vertex 95 10 1.5
      vertex 104.706 4.94046 1.5
    endloop
  endfacet
  facet normal 0 0 1
    outer loop
      vertex 63 35 1.5
      vertex 104.4 51 1.5
      vertex 104.706 51.9405 1.5
    endloop
  endfacet
  facet normal 0 0 1
    outer loop
      vertex 104.706 50.0595 1.5
      vertex 77 24 1.5
      vertex 95 24 1.5
    endloop
  endfacet
  facet normal 0 0 1
    outer loop
      vertex 63 17 1.5
      vertex 77 24 1.5
      vertex 63 35 1.5
    endloop
  endfacet
  facet normal 0 0 1
    outer loop
      vertex 104.4 51 1.5
      vertex 63 35 1.5
      vertex 77 24 1.5
    endloop
  endfacet
  facet normal 0 0 1
    outer loop
      vertex 108.209 54.989 1.5
      vertex 63 35 1.5
      vertex 104.706 51.9405 1.5
    endloop
  endfacet
  facet normal -0 0 1
    outer loop
      vertex 1.79094 54.989 1.5
      vertex 63 35 1.5
      vertex 108.209 54.989 1.5
    endloop
  endfacet
  facet normal -0 0 1
    outer loop
      vertex 5.29443 50.0595 1.5
      vertex 10 35 1.5
      vertex 5.6 51 1.5
    endloop
  endfacet
  facet normal 0 0 1
    outer loop
      vertex 63 35 1.5
      vertex 5.6 51 1.5
      vertex 10 35 1.5
    endloop
  endfacet
  facet normal 0 0 1
    outer loop
      vertex 63 35 1.5
      vertex 5.29443 51.9405 1.5
      vertex 5.6 51 1.5
    endloop
  endfacet
  facet normal 0 0 1
    outer loop
      vertex 63 35 1.5
      vertex 1.79094 54.989 1.5
      vertex 5.29443 51.9405 1.5
    endloop
  endfacet
  facet normal 0 0 1
    outer loop
      vertex 5.29443 51.9405 1.5
      vertex 1.79094 54.989 1.5
      vertex 4.49443 52.5217 1.5
    endloop
  endfacet
  facet normal 0 0 1
    outer loop
      vertex 2.70557 51.9405 1.5
      vertex 0 53 1.5
      vertex 2.4 51 1.5
    endloop
  endfacet
  facet normal -0 0 1
    outer loop
      vertex 0 53 1.5
      vertex 2.70557 51.9405 1.5
      vertex 1.79094 54.989 1.5
    endloop
  endfacet
  facet normal 0 0 1
    outer loop
      vertex 3.50557 52.5217 1.5
      vertex 1.79094 54.989 1.5
      vertex 2.70557 51.9405 1.5
    endloop
  endfacet
  facet normal 0 0 1
    outer loop
      vertex 4.49443 52.5217 1.5
      vertex 1.79094 54.989 1.5
      vertex 3.50557 52.5217 1.5
    endloop
  endfacet
  facet normal 0 0 1
    outer loop
      vertex 109 0.26795 1.5
      vertex 107.294 3.05954 1.5
      vertex 108.618 0.097887 1.5
    endloop
  endfacet
  facet normal 0 0 1
    outer loop
      vertex 108.618 0.097887 1.5
      vertex 107.294 3.05954 1.5
      vertex 108.209 0.0109568 1.5
    endloop
  endfacet
  facet normal -0 0 1
    outer loop
      vertex 106.494 2.47831 1.5
      vertex 108.209 0.0109568 1.5
      vertex 107.294 3.05954 1.5
    endloop
  endfacet
  facet normal -0 0 1
    outer loop
      vertex 105.506 2.47831 1.5
      vertex 108.209 0.0109568 1.5
      vertex 106.494 2.47831 1.5
    endloop
  endfacet
  facet normal 0 0 1
    outer loop
      vertex 104.706 3.05954 1.5
      vertex 108.209 0.0109568 1.5
      vertex 105.506 2.47831 1.5
    endloop
  endfacet
  facet normal 0 0 1
    outer loop
      vertex 104.706 4.94046 1.5
      vertex 95 10 1.5
      vertex 104.4 4 1.5
    endloop
  endfacet
  facet normal 0 0 1
    outer loop
      vertex 104.4 4 1.5
      vertex 95 10 1.5
      vertex 104.706 3.05954 1.5
    endloop
  endfacet
  facet normal -0 0 1
    outer loop
      vertex 77 10 1.5
      vertex 104.706 3.05954 1.5
      vertex 95 10 1.5
    endloop
  endfacet
  facet normal 0 0 1
    outer loop
      vertex 104.706 3.05954 1.5
      vertex 77 10 1.5
      vertex 108.209 0.0109568 1.5
    endloop
  endfacet
  facet normal 0 0 1
    outer loop
      vertex 77 24 1.5
      vertex 63 17 1.5
      vertex 77 10 1.5
    endloop
  endfacet
  facet normal 0 0 1
    outer loop
      vertex 5.6 4 1.5
      vertex 63 17 1.5
      vertex 10 17 1.5
    endloop
  endfacet
  facet normal 0 0 1
    outer loop
      vertex 5.29443 3.05954 1.5
      vertex 63 17 1.5
      vertex 5.6 4 1.5
    endloop
  endfacet
  facet normal 0 0 1
    outer loop
      vertex 10 35 1.5
      vertex 5.6 4 1.5
      vertex 10 17 1.5
    endloop
  endfacet
  facet normal 0 0 1
    outer loop
      vertex 63 17 1.5
      vertex 5.29443 3.05954 1.5
      vertex 77 10 1.5
    endloop
  endfacet
  facet normal 0 0 1
    outer loop
      vertex 1.79094 0.0109568 1.5
      vertex 77 10 1.5
      vertex 5.29443 3.05954 1.5
    endloop
  endfacet
  facet normal 0 0 1
    outer loop
      vertex 1.79094 0.0109568 1.5
      vertex 5.29443 3.05954 1.5
      vertex 4.49443 2.47831 1.5
    endloop
  endfacet
  facet normal 0 0 1
    outer loop
      vertex 1.79094 0.0109568 1.5
      vertex 4.49443 2.47831 1.5
      vertex 3.50557 2.47831 1.5
    endloop
  endfacet
  facet normal 0 0 1
    outer loop
      vertex 77 10 1.5
      vertex 1.79094 0.0109568 1.5
      vertex 108.209 0.0109568 1.5
    endloop
  endfacet
  facet normal 0 0 1
    outer loop
      vertex 2.70557 3.05954 1.5
      vertex 1.79094 0.0109568 1.5
      vertex 3.50557 2.47831 1.5
    endloop
  endfacet
  facet normal 0 0 1
    outer loop
      vertex 0 2 1.5
      vertex 2.70557 3.05954 1.5
      vertex 2.4 4 1.5
    endloop
  endfacet
  facet normal 0 0 1
    outer loop
      vertex 0 2 1.5
      vertex 2.70557 4.94046 1.5
      vertex 0 53 1.5
    endloop
  endfacet
  facet normal 0 0 1
    outer loop
      vertex 0 53 1.5
      vertex 1.79094 54.989 1.5
      vertex 1.38197 54.9021 1.5
    endloop
  endfacet
  facet normal 0 0 1
    outer loop
      vertex 2.70557 4.94046 1.5
      vertex 0 2 1.5
      vertex 2.4 4 1.5
    endloop
  endfacet
  facet normal 0 0 1
    outer loop
      vertex 0 53 1.5
      vertex 1.38197 54.9021 1.5
      vertex 1 54.732 1.5
    endloop
  endfacet
  facet normal 0 -0 1
    outer loop
      vertex 0.043705 1.58418 1.5
      vertex 2.70557 3.05954 1.5
      vertex 0 2 1.5
    endloop
  endfacet
  facet normal 0 0 1
    outer loop
      vertex 0 53 1.5
      vertex 1 54.732 1.5
      vertex 0.661739 54.4863 1.5
    endloop
  endfacet
  facet normal 0 0 1
    outer loop
      vertex 2.70557 3.05954 1.5
      vertex 1.38197 0.097887 1.5
      vertex 1.79094 0.0109568 1.5
    endloop
  endfacet
  facet normal 0 0 1
    outer loop
      vertex 0 53 1.5
      vertex 0.661739 54.4863 1.5
      vertex 0.381967 54.1756 1.5
    endloop
  endfacet
  facet normal 0 0 1
    outer loop
      vertex 2.70557 3.05954 1.5
      vertex 1 0.26795 1.5
      vertex 1.38197 0.097887 1.5
    endloop
  endfacet
  facet normal 0 0 1
    outer loop
      vertex 0 53 1.5
      vertex 0.381967 54.1756 1.5
      vertex 0.17291 53.8135 1.5
    endloop
  endfacet
  facet normal 0 0 1
    outer loop
      vertex 2.70557 3.05954 1.5
      vertex 0.661739 0.513711 1.5
      vertex 1 0.26795 1.5
    endloop
  endfacet
  facet normal 0 0 1
    outer loop
      vertex 0 53 1.5
      vertex 0.17291 53.8135 1.5
      vertex 0.043705 53.4158 1.5
    endloop
  endfacet
  facet normal 0 0 1
    outer loop
      vertex 2.70557 3.05954 1.5
      vertex 0.381967 0.82443 1.5
      vertex 0.661739 0.513711 1.5
    endloop
  endfacet
  facet normal 0 0 1
    outer loop
      vertex 2.70557 3.05954 1.5
      vertex 0.17291 1.18653 1.5
      vertex 0.381967 0.82443 1.5
    endloop
  endfacet
  facet normal 0 0 1
    outer loop
      vertex 2.70557 3.05954 1.5
      vertex 0.043705 1.58418 1.5
      vertex 0.17291 1.18653 1.5
    endloop
  endfacet
  facet normal 0.207912 -0.978147 0
    outer loop
      vertex 108.209 0.0109568 0
      vertex 108.618 0.097887 1.5
      vertex 108.209 0.0109568 1.5
    endloop
  endfacet
  facet normal 0.207912 -0.978147 0
    outer loop
      vertex 108.618 0.097887 1.5
      vertex 108.209 0.0109568 0
      vertex 108.618 0.097887 0
    endloop
  endfacet
  facet normal 0.951051 0.309034 0
    outer loop
      vertex 109.956 53.4158 1.5
      vertex 109.827 53.8135 0
      vertex 109.827 53.8135 1.5
    endloop
  endfacet
  facet normal 0.951051 0.309034 0
    outer loop
      vertex 109.827 53.8135 0
      vertex 109.956 53.4158 1.5
      vertex 109.956 53.4158 0
    endloop
  endfacet
  facet normal 0.587785 0.809017 -0
    outer loop
      vertex 109.338 54.4863 0
      vertex 109 54.732 1.5
      vertex 109.338 54.4863 1.5
    endloop
  endfacet
  facet normal 0.587785 0.809017 0
    outer loop
      vertex 109 54.732 1.5
      vertex 109.338 54.4863 0
      vertex 109 54.732 0
    endloop
  endfacet
  facet normal 0.743139 0.669138 0
    outer loop
      vertex 109.618 54.1756 1.5
      vertex 109.338 54.4863 0
      vertex 109.338 54.4863 1.5
    endloop
  endfacet
  facet normal 0.743139 0.669138 0
    outer loop
      vertex 109.338 54.4863 0
      vertex 109.618 54.1756 1.5
      vertex 109.618 54.1756 0
    endloop
  endfacet
  facet normal 0.406746 0.913541 -0
    outer loop
      vertex 109 54.732 0
      vertex 108.618 54.9021 1.5
      vertex 109 54.732 1.5
    endloop
  endfacet
  facet normal 0.406746 0.913541 0
    outer loop
      vertex 108.618 54.9021 1.5
      vertex 109 54.732 0
      vertex 108.618 54.9021 0
    endloop
  endfacet
  facet normal -0.207909 0.978148 0
    outer loop
      vertex 1.79094 54.989 0
      vertex 1.38197 54.9021 1.5
      vertex 1.79094 54.989 1.5
    endloop
  endfacet
  facet normal -0.207909 0.978148 0
    outer loop
      vertex 1.38197 54.9021 1.5
      vertex 1.79094 54.989 0
      vertex 1.38197 54.9021 0
    endloop
  endfacet
  facet normal -1 0 0
    outer loop
      vertex 0 2 0
      vertex 0 53 1.5
      vertex 0 53 0
    endloop
  endfacet
  facet normal -1 -0 0
    outer loop
      vertex 0 53 1.5
      vertex 0 2 0
      vertex 0 2 1.5
    endloop
  endfacet
  facet normal 0 -1 0
    outer loop
      vertex 1.79094 0.0109568 0
      vertex 108.209 0.0109568 1.5
      vertex 1.79094 0.0109568 1.5
    endloop
  endfacet
  facet normal 0 -1 -0
    outer loop
      vertex 108.209 0.0109568 1.5
      vertex 1.79094 0.0109568 0
      vertex 108.209 0.0109568 0
    endloop
  endfacet
  facet normal -0.951056 0.309019 0
    outer loop
      vertex 0.043705 53.4158 0
      vertex 0.17291 53.8135 1.5
      vertex 0.17291 53.8135 0
    endloop
  endfacet
  facet normal -0.951056 0.309019 0
    outer loop
      vertex 0.17291 53.8135 1.5
      vertex 0.043705 53.4158 0
      vertex 0.043705 53.4158 1.5
    endloop
  endfacet
  facet normal 0.406739 -0.913545 0
    outer loop
      vertex 108.618 0.097887 0
      vertex 109 0.26795 1.5
      vertex 108.618 0.097887 1.5
    endloop
  endfacet
  facet normal 0.406739 -0.913545 0
    outer loop
      vertex 109 0.26795 1.5
      vertex 108.618 0.097887 0
      vertex 109 0.26795 0
    endloop
  endfacet
  facet normal -0.994522 0.104529 0
    outer loop
      vertex 0 53 0
      vertex 0.043705 53.4158 1.5
      vertex 0.043705 53.4158 0
    endloop
  endfacet
  facet normal -0.994522 0.104529 0
    outer loop
      vertex 0.043705 53.4158 1.5
      vertex 0 53 0
      vertex 0 53 1.5
    endloop
  endfacet
  facet normal 0.86603 -0.499992 0
    outer loop
      vertex 109.618 0.82443 1.5
      vertex 109.827 1.18653 0
      vertex 109.827 1.18653 1.5
    endloop
  endfacet
  facet normal 0.86603 -0.499992 0
    outer loop
      vertex 109.827 1.18653 0
      vertex 109.618 0.82443 1.5
      vertex 109.618 0.82443 0
    endloop
  endfacet
  facet normal 0.994523 -0.10452 0
    outer loop
      vertex 109.956 1.58418 1.5
      vertex 110 2 0
      vertex 110 2 1.5
    endloop
  endfacet
  facet normal 0.994523 -0.10452 0
    outer loop
      vertex 110 2 0
      vertex 109.956 1.58418 1.5
      vertex 109.956 1.58418 0
    endloop
  endfacet
  facet normal 0.951051 -0.309033 0
    outer loop
      vertex 109.827 1.18653 1.5
      vertex 109.956 1.58418 0
      vertex 109.956 1.58418 1.5
    endloop
  endfacet
  facet normal 0.951051 -0.309033 0
    outer loop
      vertex 109.956 1.58418 0
      vertex 109.827 1.18653 1.5
      vertex 109.827 1.18653 0
    endloop
  endfacet
  facet normal 1 -0 0
    outer loop
      vertex 110 2 1.5
      vertex 110 53 0
      vertex 110 53 1.5
    endloop
  endfacet
  facet normal 1 0 0
    outer loop
      vertex 110 53 0
      vertex 110 2 1.5
      vertex 110 2 0
    endloop
  endfacet
  facet normal 0 0 -1
    outer loop
      vertex 3.50557 5.52169 0
      vertex 10 17 0
      vertex 4.49443 5.52169 0
    endloop
  endfacet
  facet normal 0 0 -1
    outer loop
      vertex 10 35 0
      vertex 5.29443 50.0595 0
      vertex 5.6 51 0
    endloop
  endfacet
  facet normal 0 0 -1
    outer loop
      vertex 2.70557 4.94046 0
      vertex 10 17 0
      vertex 3.50557 5.52169 0
    endloop
  endfacet
  facet normal 0 0 -1
    outer loop
      vertex 10 35 0
      vertex 4.49443 49.4783 0
      vertex 5.29443 50.0595 0
    endloop
  endfacet
  facet normal -0 0 -1
    outer loop
      vertex 10 17 0
      vertex 2.70557 4.94046 0
      vertex 10 35 0
    endloop
  endfacet
  facet normal 0 0 -1
    outer loop
      vertex 10 35 0
      vertex 3.50557 49.4783 0
      vertex 4.49443 49.4783 0
    endloop
  endfacet
  facet normal 0 0 -1
    outer loop
      vertex 2.70557 50.0595 0
      vertex 10 35 0
      vertex 2.70557 4.94046 0
    endloop
  endfacet
  facet normal 0 0 -1
    outer loop
      vertex 10 35 0
      vertex 2.70557 50.0595 0
      vertex 3.50557 49.4783 0
    endloop
  endfacet
  facet normal 0 0 -1
    outer loop
      vertex 0 2 0
      vertex 2.70557 4.94046 0
      vertex 2.4 4 0
    endloop
  endfacet
  facet normal -0 0 -1
    outer loop
      vertex 2.70557 4.94046 0
      vertex 0 2 0
      vertex 2.70557 50.0595 0
    endloop
  endfacet
  facet normal 0 0 -1
    outer loop
      vertex 107.294 50.0595 0
      vertex 110 53 0
      vertex 107.294 4.94046 0
    endloop
  endfacet
  facet normal 0 0 -1
    outer loop
      vertex 110 53 0
      vertex 107.294 50.0595 0
      vertex 107.6 51 0
    endloop
  endfacet
  facet normal 0 0 -1
    outer loop
      vertex 106.494 5.52169 0
      vertex 107.294 50.0595 0
      vertex 107.294 4.94046 0
    endloop
  endfacet
  facet normal 0 0 -1
    outer loop
      vertex 106.494 5.52169 0
      vertex 106.494 49.4783 0
      vertex 107.294 50.0595 0
    endloop
  endfacet
  facet normal 0 0 -1
    outer loop
      vertex 95 24 0
      vertex 106.494 5.52169 0
      vertex 105.506 5.52169 0
    endloop
  endfacet
  facet normal 0 0 -1
    outer loop
      vertex 106.494 5.52169 0
      vertex 95 24 0
      vertex 106.494 49.4783 0
    endloop
  endfacet
  facet normal 0 0 -1
    outer loop
      vertex 95 10 0
      vertex 105.506 5.52169 0
      vertex 104.706 4.94046 0
    endloop
  endfacet
  facet normal -0 0 -1
    outer loop
      vertex 106.494 49.4783 0
      vertex 95 24 0
      vertex 105.506 49.4783 0
    endloop
  endfacet
  facet normal 0 0 -1
    outer loop
      vertex 95 10 0
      vertex 104.706 4.94046 0
      vertex 104.4 4 0
    endloop
  endfacet
  facet normal -0 0 -1
    outer loop
      vertex 105.506 49.4783 0
      vertex 95 24 0
      vertex 104.706 50.0595 0
    endloop
  endfacet
  facet normal 0 0 -1
    outer loop
      vertex 107.294 3.05954 0
      vertex 110 2 0
      vertex 109.956 1.58418 0
    endloop
  endfacet
  facet normal 0 0 -1
    outer loop
      vertex 107.294 4.94046 0
      vertex 110 2 0
      vertex 107.6 4 0
    endloop
  endfacet
  facet normal 0 0 -1
    outer loop
      vertex 107.294 3.05954 0
      vertex 109.956 1.58418 0
      vertex 109.827 1.18653 0
    endloop
  endfacet
  facet normal 0 0 -1
    outer loop
      vertex 110 2 0
      vertex 107.294 4.94046 0
      vertex 110 53 0
    endloop
  endfacet
  facet normal 0 0 -1
    outer loop
      vertex 107.294 3.05954 0
      vertex 109.827 1.18653 0
      vertex 109.618 0.82443 0
    endloop
  endfacet
  facet normal 0 0 -1
    outer loop
      vertex 107.294 51.9405 0
      vertex 110 53 0
      vertex 107.6 51 0
    endloop
  endfacet
  facet normal 0 0 -1
    outer loop
      vertex 107.294 3.05954 0
      vertex 109.618 0.82443 0
      vertex 109.338 0.513711 0
    endloop
  endfacet
  facet normal -0 0 -1
    outer loop
      vertex 110 53 0
      vertex 107.294 51.9405 0
      vertex 109.956 53.4158 0
    endloop
  endfacet
  facet normal 0 0 -1
    outer loop
      vertex 107.294 3.05954 0
      vertex 109.338 0.513711 0
      vertex 109 0.26795 0
    endloop
  endfacet
  facet normal -0 0 -1
    outer loop
      vertex 109.956 53.4158 0
      vertex 107.294 51.9405 0
      vertex 109.827 53.8135 0
    endloop
  endfacet
  facet normal 0 0 -1
    outer loop
      vertex 107.294 3.05954 0
      vertex 109 0.26795 0
      vertex 108.618 0.097887 0
    endloop
  endfacet
  facet normal -0 0 -1
    outer loop
      vertex 109.827 53.8135 0
      vertex 107.294 51.9405 0
      vertex 109.618 54.1756 0
    endloop
  endfacet
  facet normal 0 0 -1
    outer loop
      vertex 107.294 3.05954 0
      vertex 108.618 0.097887 0
      vertex 108.209 0.0109568 0
    endloop
  endfacet
  facet normal -0 0 -1
    outer loop
      vertex 109.618 54.1756 0
      vertex 107.294 51.9405 0
      vertex 109.338 54.4863 0
    endloop
  endfacet
  facet normal -0 0 -1
    outer loop
      vertex 109.338 54.4863 0
      vertex 107.294 51.9405 0
      vertex 109 54.732 0
    endloop
  endfacet
  facet normal 0 0 -1
    outer loop
      vertex 110 2 0
      vertex 107.294 3.05954 0
      vertex 107.6 4 0
    endloop
  endfacet
  facet normal 0 0 -1
    outer loop
      vertex 108.209 0.0109568 0
      vertex 106.494 2.47831 0
      vertex 107.294 3.05954 0
    endloop
  endfacet
  facet normal 0 0 -1
    outer loop
      vertex 108.209 0.0109568 0
      vertex 105.506 2.47831 0
      vertex 106.494 2.47831 0
    endloop
  endfacet
  facet normal 0 0 -1
    outer loop
      vertex 108.209 0.0109568 0
      vertex 104.706 3.05954 0
      vertex 105.506 2.47831 0
    endloop
  endfacet
  facet normal 0 0 -1
    outer loop
      vertex 105.506 5.52169 0
      vertex 95 10 0
      vertex 95 24 0
    endloop
  endfacet
  facet normal 0 0 -1
    outer loop
      vertex 104.706 3.05954 0
      vertex 95 10 0
      vertex 104.4 4 0
    endloop
  endfacet
  facet normal 0 0 -1
    outer loop
      vertex 77 10 0
      vertex 104.706 3.05954 0
      vertex 108.209 0.0109568 0
    endloop
  endfacet
  facet normal 0 0 -1
    outer loop
      vertex 104.706 3.05954 0
      vertex 77 10 0
      vertex 95 10 0
    endloop
  endfacet
  facet normal 0 0 -1
    outer loop
      vertex 77 10 0
      vertex 63 17 0
      vertex 77 24 0
    endloop
  endfacet
  facet normal 0 0 -1
    outer loop
      vertex 5.29443 3.05954 0
      vertex 63 17 0
      vertex 77 10 0
    endloop
  endfacet
  facet normal 0 0 -1
    outer loop
      vertex 1.79094 0.0109568 0
      vertex 77 10 0
      vertex 108.209 0.0109568 0
    endloop
  endfacet
  facet normal 0 0 -1
    outer loop
      vertex 5.29443 4.94046 0
      vertex 10 17 0
      vertex 5.6 4 0
    endloop
  endfacet
  facet normal -0 0 -1
    outer loop
      vertex 63 17 0
      vertex 5.6 4 0
      vertex 10 17 0
    endloop
  endfacet
  facet normal 0 0 -1
    outer loop
      vertex 63 17 0
      vertex 5.29443 3.05954 0
      vertex 5.6 4 0
    endloop
  endfacet
  facet normal 0 0 -1
    outer loop
      vertex 77 10 0
      vertex 1.79094 0.0109568 0
      vertex 5.29443 3.05954 0
    endloop
  endfacet
  facet normal 0 0 -1
    outer loop
      vertex 5.29443 3.05954 0
      vertex 1.79094 0.0109568 0
      vertex 4.49443 2.47831 0
    endloop
  endfacet
  facet normal -0 0 -1
    outer loop
      vertex 2.70557 3.05954 0
      vertex 0 2 0
      vertex 2.4 4 0
    endloop
  endfacet
  facet normal 0 0 -1
    outer loop
      vertex 0 2 0
      vertex 2.70557 3.05954 0
      vertex 1.79094 0.0109568 0
    endloop
  endfacet
  facet normal -0 0 -1
    outer loop
      vertex 3.50557 2.47831 0
      vertex 1.79094 0.0109568 0
      vertex 2.70557 3.05954 0
    endloop
  endfacet
  facet normal -0 0 -1
    outer loop
      vertex 4.49443 2.47831 0
      vertex 1.79094 0.0109568 0
      vertex 3.50557 2.47831 0
    endloop
  endfacet
  facet normal -0 0 -1
    outer loop
      vertex 109 54.732 0
      vertex 107.294 51.9405 0
      vertex 108.618 54.9021 0
    endloop
  endfacet
  facet normal -0 0 -1
    outer loop
      vertex 108.618 54.9021 0
      vertex 107.294 51.9405 0
      vertex 108.209 54.989 0
    endloop
  endfacet
  facet normal 0 0 -1
    outer loop
      vertex 106.494 52.5217 0
      vertex 108.209 54.989 0
      vertex 107.294 51.9405 0
    endloop
  endfacet
  facet normal 0 0 -1
    outer loop
      vertex 105.506 52.5217 0
      vertex 108.209 54.989 0
      vertex 106.494 52.5217 0
    endloop
  endfacet
  facet normal 0 0 -1
    outer loop
      vertex 104.706 51.9405 0
      vertex 108.209 54.989 0
      vertex 105.506 52.5217 0
    endloop
  endfacet
  facet normal 0 0 -1
    outer loop
      vertex 77 24 0
      vertex 104.706 50.0595 0
      vertex 95 24 0
    endloop
  endfacet
  facet normal -0 0 -1
    outer loop
      vertex 104.706 50.0595 0
      vertex 77 24 0
      vertex 104.4 51 0
    endloop
  endfacet
  facet normal 0 0 -1
    outer loop
      vertex 63 35 0
      vertex 104.4 51 0
      vertex 77 24 0
    endloop
  endfacet
  facet normal 0 0 -1
    outer loop
      vertex 63 35 0
      vertex 77 24 0
      vertex 63 17 0
    endloop
  endfacet
  facet normal -0 0 -1
    outer loop
      vertex 104.4 51 0
      vertex 63 35 0
      vertex 104.706 51.9405 0
    endloop
  endfacet
  facet normal -0 0 -1
    outer loop
      vertex 104.706 51.9405 0
      vertex 63 35 0
      vertex 108.209 54.989 0
    endloop
  endfacet
  facet normal 0 0 -1
    outer loop
      vertex 5.6 51 0
      vertex 63 35 0
      vertex 10 35 0
    endloop
  endfacet
  facet normal 0 0 -1
    outer loop
      vertex 4.49443 5.52169 0
      vertex 10 17 0
      vertex 5.29443 4.94046 0
    endloop
  endfacet
  facet normal 0 0 -1
    outer loop
      vertex 5.29443 51.9405 0
      vertex 63 35 0
      vertex 5.6 51 0
    endloop
  endfacet
  facet normal 0 0 -1
    outer loop
      vertex 1.79094 54.989 0
      vertex 63 35 0
      vertex 5.29443 51.9405 0
    endloop
  endfacet
  facet normal 0 0 -1
    outer loop
      vertex 1.79094 54.989 0
      vertex 5.29443 51.9405 0
      vertex 4.49443 52.5217 0
    endloop
  endfacet
  facet normal 0 0 -1
    outer loop
      vertex 1.79094 54.989 0
      vertex 4.49443 52.5217 0
      vertex 3.50557 52.5217 0
    endloop
  endfacet
  facet normal 0 0 -1
    outer loop
      vertex 63 35 0
      vertex 1.79094 54.989 0
      vertex 108.209 54.989 0
    endloop
  endfacet
  facet normal 0 0 -1
    outer loop
      vertex 2.70557 51.9405 0
      vertex 1.79094 54.989 0
      vertex 3.50557 52.5217 0
    endloop
  endfacet
  facet normal 0 0 -1
    outer loop
      vertex 0 53 0
      vertex 2.70557 51.9405 0
      vertex 2.4 51 0
    endloop
  endfacet
  facet normal 0 0 -1
    outer loop
      vertex 0 53 0
      vertex 2.70557 50.0595 0
      vertex 0 2 0
    endloop
  endfacet
  facet normal 0 0 -1
    outer loop
      vertex 0 2 0
      vertex 1.79094 0.0109568 0
      vertex 1.38197 0.097887 0
    endloop
  endfacet
  facet normal 0 0 -1
    outer loop
      vertex 2.70557 50.0595 0
      vertex 0 53 0
      vertex 2.4 51 0
    endloop
  endfacet
  facet normal 0 0 -1
    outer loop
      vertex 2.70557 51.9405 0
      vertex 1.38197 54.9021 0
      vertex 1.79094 54.989 0
    endloop
  endfacet
  facet normal 0 0 -1
    outer loop
      vertex 0 2 0
      vertex 1.38197 0.097887 0
      vertex 1 0.26795 0
    endloop
  endfacet
  facet normal 0 0 -1
    outer loop
      vertex 0 2 0
      vertex 1 0.26795 0
      vertex 0.661739 0.513711 0
    endloop
  endfacet
  facet normal 0 -0 -1
    outer loop
      vertex 0.043705 53.4158 0
      vertex 2.70557 51.9405 0
      vertex 0 53 0
    endloop
  endfacet
  facet normal 0 0 -1
    outer loop
      vertex 0 2 0
      vertex 0.661739 0.513711 0
      vertex 0.381967 0.82443 0
    endloop
  endfacet
  facet normal 0 0 -1
    outer loop
      vertex 2.70557 51.9405 0
      vertex 1 54.732 0
      vertex 1.38197 54.9021 0
    endloop
  endfacet
  facet normal 0 0 -1
    outer loop
      vertex 0 2 0
      vertex 0.381967 0.82443 0
      vertex 0.17291 1.18653 0
    endloop
  endfacet
  facet normal 0 0 -1
    outer loop
      vertex 2.70557 51.9405 0
      vertex 0.661739 54.4863 0
      vertex 1 54.732 0
    endloop
  endfacet
  facet normal 0 0 -1
    outer loop
      vertex 0 2 0
      vertex 0.17291 1.18653 0
      vertex 0.043705 1.58418 0
    endloop
  endfacet
  facet normal 0 0 -1
    outer loop
      vertex 2.70557 51.9405 0
      vertex 0.381967 54.1756 0
      vertex 0.661739 54.4863 0
    endloop
  endfacet
  facet normal 0 0 -1
    outer loop
      vertex 2.70557 51.9405 0
      vertex 0.17291 53.8135 0
      vertex 0.381967 54.1756 0
    endloop
  endfacet
  facet normal 0 0 -1
    outer loop
      vertex 2.70557 51.9405 0
      vertex 0.043705 53.4158 0
      vertex 0.17291 53.8135 0
    endloop
  endfacet
  facet normal -0.207911 -0.978148 0
    outer loop
      vertex 1.38197 0.097887 0
      vertex 1.79094 0.0109568 1.5
      vertex 1.38197 0.097887 1.5
    endloop
  endfacet
  facet normal -0.207911 -0.978148 -0
    outer loop
      vertex 1.79094 0.0109568 1.5
      vertex 1.38197 0.097887 0
      vertex 1.79094 0.0109568 0
    endloop
  endfacet
  facet normal 0.743139 -0.669138 0
    outer loop
      vertex 109.338 0.513711 1.5
      vertex 109.618 0.82443 0
      vertex 109.618 0.82443 1.5
    endloop
  endfacet
  facet normal 0.743139 -0.669138 0
    outer loop
      vertex 109.618 0.82443 0
      vertex 109.338 0.513711 1.5
      vertex 109.338 0.513711 0
    endloop
  endfacet
  facet normal 0.58779 -0.809014 0
    outer loop
      vertex 109 0.26795 0
      vertex 109.338 0.513711 1.5
      vertex 109 0.26795 1.5
    endloop
  endfacet
  facet normal 0.58779 -0.809014 0
    outer loop
      vertex 109.338 0.513711 1.5
      vertex 109 0.26795 0
      vertex 109.338 0.513711 0
    endloop
  endfacet
  facet normal -0.866026 -0.499999 0
    outer loop
      vertex 0.381967 0.82443 0
      vertex 0.17291 1.18653 1.5
      vertex 0.17291 1.18653 0
    endloop
  endfacet
  facet normal -0.866026 -0.499999 0
    outer loop
      vertex 0.17291 1.18653 1.5
      vertex 0.381967 0.82443 0
      vertex 0.381967 0.82443 1.5
    endloop
  endfacet
  facet normal -0.951056 -0.309018 0
    outer loop
      vertex 0.17291 1.18653 0
      vertex 0.043705 1.58418 1.5
      vertex 0.043705 1.58418 0
    endloop
  endfacet
  facet normal -0.951056 -0.309018 0
    outer loop
      vertex 0.043705 1.58418 1.5
      vertex 0.17291 1.18653 0
      vertex 0.17291 1.18653 1.5
    endloop
  endfacet
  facet normal -0.994522 -0.104529 0
    outer loop
      vertex 0.043705 1.58418 0
      vertex 0 2 1.5
      vertex 0 2 0
    endloop
  endfacet
  facet normal -0.994522 -0.104529 0
    outer loop
      vertex 0 2 1.5
      vertex 0.043705 1.58418 0
      vertex 0.043705 1.58418 1.5
    endloop
  endfacet
  facet normal -0.406738 -0.913545 0
    outer loop
      vertex 1 0.26795 0
      vertex 1.38197 0.097887 1.5
      vertex 1 0.26795 1.5
    endloop
  endfacet
  facet normal -0.406738 -0.913545 -0
    outer loop
      vertex 1.38197 0.097887 1.5
      vertex 1 0.26795 0
      vertex 1.38197 0.097887 0
    endloop
  endfacet
  facet normal -0.587786 -0.809017 0
    outer loop
      vertex 0.661739 0.513711 0
      vertex 1 0.26795 1.5
      vertex 0.661739 0.513711 1.5
    endloop
  endfacet
  facet normal -0.587786 -0.809017 -0
    outer loop
      vertex 1 0.26795 1.5
      vertex 0.661739 0.513711 0
      vertex 1 0.26795 0
    endloop
  endfacet
  facet normal -0.743144 -0.669131 0
    outer loop
      vertex 0.661739 0.513711 0
      vertex 0.381967 0.82443 1.5
      vertex 0.381967 0.82443 0
    endloop
  endfacet
  facet normal -0.743144 -0.669131 0
    outer loop
      vertex 0.381967 0.82443 1.5
      vertex 0.661739 0.513711 0
      vertex 0.661739 0.513711 1.5
    endloop
  endfacet
  facet normal -0.743144 0.669131 0
    outer loop
      vertex 0.381967 54.1756 0
      vertex 0.661739 54.4863 1.5
      vertex 0.661739 54.4863 0
    endloop
  endfacet
  facet normal -0.743144 0.669131 0
    outer loop
      vertex 0.661739 54.4863 1.5
      vertex 0.381967 54.1756 0
      vertex 0.381967 54.1756 1.5
    endloop
  endfacet
  facet normal -0.58778 0.809021 0
    outer loop
      vertex 1 54.732 0
      vertex 0.661739 54.4863 1.5
      vertex 1 54.732 1.5
    endloop
  endfacet
  facet normal -0.58778 0.809021 0
    outer loop
      vertex 0.661739 54.4863 1.5
      vertex 1 54.732 0
      vertex 0.661739 54.4863 0
    endloop
  endfacet
  facet normal -0.866026 0.499998 0
    outer loop
      vertex 0.17291 53.8135 0
      vertex 0.381967 54.1756 1.5
      vertex 0.381967 54.1756 0
    endloop
  endfacet
  facet normal -0.866026 0.499998 0
    outer loop
      vertex 0.381967 54.1756 1.5
      vertex 0.17291 53.8135 0
      vertex 0.17291 53.8135 1.5
    endloop
  endfacet
  facet normal 1 -0 0
    outer loop
      vertex 10 17 1.5
      vertex 10 35 0
      vertex 10 35 1.5
    endloop
  endfacet
  facet normal 1 0 0
    outer loop
      vertex 10 35 0
      vertex 10 17 1.5
      vertex 10 17 0
    endloop
  endfacet
  facet normal -1 0 0
    outer loop
      vertex 63 17 0
      vertex 63 35 1.5
      vertex 63 35 0
    endloop
  endfacet
  facet normal -1 -0 0
    outer loop
      vertex 63 35 1.5
      vertex 63 17 0
      vertex 63 17 1.5
    endloop
  endfacet
  facet normal 0 -1 0
    outer loop
      vertex 10 35 0
      vertex 63 35 1.5
      vertex 10 35 1.5
    endloop
  endfacet
  facet normal 0 -1 -0
    outer loop
      vertex 63 35 1.5
      vertex 10 35 0
      vertex 63 35 0
    endloop
  endfacet
  facet normal 0 1 -0
    outer loop
      vertex 63 17 0
      vertex 10 17 1.5
      vertex 63 17 1.5
    endloop
  endfacet
  facet normal 0 1 0
    outer loop
      vertex 10 17 1.5
      vertex 63 17 0
      vertex 10 17 0
    endloop
  endfacet
  facet normal 1 -0 0
    outer loop
      vertex 77 10 1.5
      vertex 77 24 0
      vertex 77 24 1.5
    endloop
  endfacet
  facet normal 1 0 0
    outer loop
      vertex 77 24 0
      vertex 77 10 1.5
      vertex 77 10 0
    endloop
  endfacet
  facet normal -1 0 0
    outer loop
      vertex 95 10 0
      vertex 95 24 1.5
      vertex 95 24 0
    endloop
  endfacet
  facet normal -1 -0 0
    outer loop
      vertex 95 24 1.5
      vertex 95 10 0
      vertex 95 10 1.5
    endloop
  endfacet
  facet normal 0 -1 0
    outer loop
      vertex 77 24 0
      vertex 95 24 1.5
      vertex 77 24 1.5
    endloop
  endfacet
  facet normal 0 -1 -0
    outer loop
      vertex 95 24 1.5
      vertex 77 24 0
      vertex 95 24 0
    endloop
  endfacet
  facet normal 0 1 -0
    outer loop
      vertex 95 10 0
      vertex 77 10 1.5
      vertex 95 10 1.5
    endloop
  endfacet
  facet normal 0 1 0
    outer loop
      vertex 77 10 1.5
      vertex 95 10 0
      vertex 77 10 0
    endloop
  endfacet
  facet normal -0.951057 -0.309017 0
    outer loop
      vertex 5.6 4 0
      vertex 5.29443 4.94046 1.5
      vertex 5.29443 4.94046 0
    endloop
  endfacet
  facet normal -0.951057 -0.309017 0
    outer loop
      vertex 5.29443 4.94046 1.5
      vertex 5.6 4 0
      vertex 5.6 4 1.5
    endloop
  endfacet
  facet normal -0.587785 0.809017 0
    outer loop
      vertex 5.29443 3.05954 0
      vertex 4.49443 2.47831 1.5
      vertex 5.29443 3.05954 1.5
    endloop
  endfacet
  facet normal -0.587785 0.809017 0
    outer loop
      vertex 4.49443 2.47831 1.5
      vertex 5.29443 3.05954 0
      vertex 4.49443 2.47831 0
    endloop
  endfacet
  facet normal 0.587785 -0.809017 0
    outer loop
      vertex 2.70557 4.94046 0
      vertex 3.50557 5.52169 1.5
      vertex 2.70557 4.94046 1.5
    endloop
  endfacet
  facet normal 0.587785 -0.809017 0
    outer loop
      vertex 3.50557 5.52169 1.5
      vertex 2.70557 4.94046 0
      vertex 3.50557 5.52169 0
    endloop
  endfacet
  facet normal -0.587785 -0.809017 0
    outer loop
      vertex 4.49443 5.52169 0
      vertex 5.29443 4.94046 1.5
      vertex 4.49443 5.52169 1.5
    endloop
  endfacet
  facet normal -0.587785 -0.809017 -0
    outer loop
      vertex 5.29443 4.94046 1.5
      vertex 4.49443 5.52169 0
      vertex 5.29443 4.94046 0
    endloop
  endfacet
  facet normal 0.951057 -0.309017 0
    outer loop
      vertex 2.4 4 1.5
      vertex 2.70557 4.94046 0
      vertex 2.70557 4.94046 1.5
    endloop
  endfacet
  facet normal 0.951057 -0.309017 0
    outer loop
      vertex 2.70557 4.94046 0
      vertex 2.4 4 1.5
      vertex 2.4 4 0
    endloop
  endfacet
  facet normal -0.951057 0.309016 0
    outer loop
      vertex 5.29443 3.05954 0
      vertex 5.6 4 1.5
      vertex 5.6 4 0
    endloop
  endfacet
  facet normal -0.951057 0.309016 0
    outer loop
      vertex 5.6 4 1.5
      vertex 5.29443 3.05954 0
      vertex 5.29443 3.05954 1.5
    endloop
  endfacet
  facet normal 0 -1 0
    outer loop
      vertex 3.50557 5.52169 0
      vertex 4.49443 5.52169 1.5
      vertex 3.50557 5.52169 1.5
    endloop
  endfacet
  facet normal 0 -1 -0
    outer loop
      vertex 4.49443 5.52169 1.5
      vertex 3.50557 5.52169 0
      vertex 4.49443 5.52169 0
    endloop
  endfacet
  facet normal 0.951057 0.309016 0
    outer loop
      vertex 2.70557 3.05954 1.5
      vertex 2.4 4 0
      vertex 2.4 4 1.5
    endloop
  endfacet
  facet normal 0.951057 0.309016 0
    outer loop
      vertex 2.4 4 0
      vertex 2.70557 3.05954 1.5
      vertex 2.70557 3.05954 0
    endloop
  endfacet
  facet normal 0 1 -0
    outer loop
      vertex 4.49443 2.47831 0
      vertex 3.50557 2.47831 1.5
      vertex 4.49443 2.47831 1.5
    endloop
  endfacet
  facet normal 0 1 0
    outer loop
      vertex 3.50557 2.47831 1.5
      vertex 4.49443 2.47831 0
      vertex 3.50557 2.47831 0
    endloop
  endfacet
  facet normal 0.587785 0.809017 -0
    outer loop
      vertex 3.50557 2.47831 0
      vertex 2.70557 3.05954 1.5
      vertex 3.50557 2.47831 1.5
    endloop
  endfacet
  facet normal 0.587785 0.809017 0
    outer loop
      vertex 2.70557 3.05954 1.5
      vertex 3.50557 2.47831 0
      vertex 2.70557 3.05954 0
    endloop
  endfacet
  facet normal -0.951057 -0.309017 0
    outer loop
      vertex 5.6 51 0
      vertex 5.29443 51.9405 1.5
      vertex 5.29443 51.9405 0
    endloop
  endfacet
  facet normal -0.951057 -0.309017 0
    outer loop
      vertex 5.29443 51.9405 1.5
      vertex 5.6 51 0
      vertex 5.6 51 1.5
    endloop
  endfacet
  facet normal -0.587785 0.809017 0
    outer loop
      vertex 5.29443 50.0595 0
      vertex 4.49443 49.4783 1.5
      vertex 5.29443 50.0595 1.5
    endloop
  endfacet
  facet normal -0.587785 0.809017 0
    outer loop
      vertex 4.49443 49.4783 1.5
      vertex 5.29443 50.0595 0
      vertex 4.49443 49.4783 0
    endloop
  endfacet
  facet normal 0.587785 -0.809017 0
    outer loop
      vertex 2.70557 51.9405 0
      vertex 3.50557 52.5217 1.5
      vertex 2.70557 51.9405 1.5
    endloop
  endfacet
  facet normal 0.587785 -0.809017 0
    outer loop
      vertex 3.50557 52.5217 1.5
      vertex 2.70557 51.9405 0
      vertex 3.50557 52.5217 0
    endloop
  endfacet
  facet normal -0.587785 -0.809017 0
    outer loop
      vertex 4.49443 52.5217 0
      vertex 5.29443 51.9405 1.5
      vertex 4.49443 52.5217 1.5
    endloop
  endfacet
  facet normal -0.587785 -0.809017 -0
    outer loop
      vertex 5.29443 51.9405 1.5
      vertex 4.49443 52.5217 0
      vertex 5.29443 51.9405 0
    endloop
  endfacet
  facet normal 0.951057 -0.309017 0
    outer loop
      vertex 2.4 51 1.5
      vertex 2.70557 51.9405 0
      vertex 2.70557 51.9405 1.5
    endloop
  endfacet
  facet normal 0.951057 -0.309017 0
    outer loop
      vertex 2.70557 51.9405 0
      vertex 2.4 51 1.5
      vertex 2.4 51 0
    endloop
  endfacet
  facet normal 0 -1 0
    outer loop
      vertex 3.50557 52.5217 0
      vertex 4.49443 52.5217 1.5
      vertex 3.50557 52.5217 1.5
    endloop
  endfacet
  facet normal 0 -1 -0
    outer loop
      vertex 4.49443 52.5217 1.5
      vertex 3.50557 52.5217 0
      vertex 4.49443 52.5217 0
    endloop
  endfacet
  facet normal 0.951057 0.309017 0
    outer loop
      vertex 2.70557 50.0595 1.5
      vertex 2.4 51 0
      vertex 2.4 51 1.5
    endloop
  endfacet
  facet normal 0.951057 0.309017 0
    outer loop
      vertex 2.4 51 0
      vertex 2.70557 50.0595 1.5
      vertex 2.70557 50.0595 0
    endloop
  endfacet
  facet normal 0.587785 0.809017 -0
    outer loop
      vertex 3.50557 49.4783 0
      vertex 2.70557 50.0595 1.5
      vertex 3.50557 49.4783 1.5
    endloop
  endfacet
  facet normal 0.587785 0.809017 0
    outer loop
      vertex 2.70557 50.0595 1.5
      vertex 3.50557 49.4783 0
      vertex 2.70557 50.0595 0
    endloop
  endfacet
  facet normal -0.951057 0.309017 0
    outer loop
      vertex 5.29443 50.0595 0
      vertex 5.6 51 1.5
      vertex 5.6 51 0
    endloop
  endfacet
  facet normal -0.951057 0.309017 0
    outer loop
      vertex 5.6 51 1.5
      vertex 5.29443 50.0595 0
      vertex 5.29443 50.0595 1.5
    endloop
  endfacet
  facet normal 0 1 -0
    outer loop
      vertex 4.49443 49.4783 0
      vertex 3.50557 49.4783 1.5
      vertex 4.49443 49.4783 1.5
    endloop
  endfacet
  facet normal 0 1 0
    outer loop
      vertex 3.50557 49.4783 1.5
      vertex 4.49443 49.4783 0
      vertex 3.50557 49.4783 0
    endloop
  endfacet
  facet normal -0.951057 -0.309017 0
    outer loop
      vertex 107.6 4 0
      vertex 107.294 4.94046 1.5
      vertex 107.294 4.94046 0
    endloop
  endfacet
  facet normal -0.951057 -0.309017 0
    outer loop
      vertex 107.294 4.94046 1.5
      vertex 107.6 4 0
      vertex 107.6 4 1.5
    endloop
  endfacet
  facet normal 0.587787 -0.809015 0
    outer loop
      vertex 104.706 4.94046 0
      vertex 105.506 5.52169 1.5
      vertex 104.706 4.94046 1.5
    endloop
  endfacet
  facet normal 0.587787 -0.809015 0
    outer loop
      vertex 105.506 5.52169 1.5
      vertex 104.706 4.94046 0
      vertex 105.506 5.52169 0
    endloop
  endfacet
  facet normal -0.587787 -0.809015 0
    outer loop
      vertex 106.494 5.52169 0
      vertex 107.294 4.94046 1.5
      vertex 106.494 5.52169 1.5
    endloop
  endfacet
  facet normal -0.587787 -0.809015 -0
    outer loop
      vertex 107.294 4.94046 1.5
      vertex 106.494 5.52169 0
      vertex 107.294 4.94046 0
    endloop
  endfacet
  facet normal 0.951057 -0.309017 0
    outer loop
      vertex 104.4 4 1.5
      vertex 104.706 4.94046 0
      vertex 104.706 4.94046 1.5
    endloop
  endfacet
  facet normal 0.951057 -0.309017 0
    outer loop
      vertex 104.706 4.94046 0
      vertex 104.4 4 1.5
      vertex 104.4 4 0
    endloop
  endfacet
  facet normal 0 -1 0
    outer loop
      vertex 105.506 5.52169 0
      vertex 106.494 5.52169 1.5
      vertex 105.506 5.52169 1.5
    endloop
  endfacet
  facet normal 0 -1 -0
    outer loop
      vertex 106.494 5.52169 1.5
      vertex 105.506 5.52169 0
      vertex 106.494 5.52169 0
    endloop
  endfacet
  facet normal 0.951057 0.309016 0
    outer loop
      vertex 104.706 3.05954 1.5
      vertex 104.4 4 0
      vertex 104.4 4 1.5
    endloop
  endfacet
  facet normal 0.951057 0.309016 0
    outer loop
      vertex 104.4 4 0
      vertex 104.706 3.05954 1.5
      vertex 104.706 3.05954 0
    endloop
  endfacet
  facet normal 0.587787 0.809015 -0
    outer loop
      vertex 105.506 2.47831 0
      vertex 104.706 3.05954 1.5
      vertex 105.506 2.47831 1.5
    endloop
  endfacet
  facet normal 0.587787 0.809015 0
    outer loop
      vertex 104.706 3.05954 1.5
      vertex 105.506 2.47831 0
      vertex 104.706 3.05954 0
    endloop
  endfacet
  facet normal -0.587787 0.809015 0
    outer loop
      vertex 107.294 3.05954 0
      vertex 106.494 2.47831 1.5
      vertex 107.294 3.05954 1.5
    endloop
  endfacet
  facet normal -0.587787 0.809015 0
    outer loop
      vertex 106.494 2.47831 1.5
      vertex 107.294 3.05954 0
      vertex 106.494 2.47831 0
    endloop
  endfacet
  facet normal -0.951057 0.309016 0
    outer loop
      vertex 107.294 3.05954 0
      vertex 107.6 4 1.5
      vertex 107.6 4 0
    endloop
  endfacet
  facet normal -0.951057 0.309016 0
    outer loop
      vertex 107.6 4 1.5
      vertex 107.294 3.05954 0
      vertex 107.294 3.05954 1.5
    endloop
  endfacet
  facet normal 0 1 -0
    outer loop
      vertex 106.494 2.47831 0
      vertex 105.506 2.47831 1.5
      vertex 106.494 2.47831 1.5
    endloop
  endfacet
  facet normal 0 1 0
    outer loop
      vertex 105.506 2.47831 1.5
      vertex 106.494 2.47831 0
      vertex 105.506 2.47831 0
    endloop
  endfacet
  facet normal -0.951057 -0.309017 0
    outer loop
      vertex 107.6 51 0
      vertex 107.294 51.9405 1.5
      vertex 107.294 51.9405 0
    endloop
  endfacet
  facet normal -0.951057 -0.309017 0
    outer loop
      vertex 107.294 51.9405 1.5
      vertex 107.6 51 0
      vertex 107.6 51 1.5
    endloop
  endfacet
  facet normal 0.587787 -0.809015 0
    outer loop
      vertex 104.706 51.9405 0
      vertex 105.506 52.5217 1.5
      vertex 104.706 51.9405 1.5
    endloop
  endfacet
  facet normal 0.587787 -0.809015 0
    outer loop
      vertex 105.506 52.5217 1.5
      vertex 104.706 51.9405 0
      vertex 105.506 52.5217 0
    endloop
  endfacet
  facet normal -0.587787 -0.809015 0
    outer loop
      vertex 106.494 52.5217 0
      vertex 107.294 51.9405 1.5
      vertex 106.494 52.5217 1.5
    endloop
  endfacet
  facet normal -0.587787 -0.809015 -0
    outer loop
      vertex 107.294 51.9405 1.5
      vertex 106.494 52.5217 0
      vertex 107.294 51.9405 0
    endloop
  endfacet
  facet normal 0.951057 -0.309017 0
    outer loop
      vertex 104.4 51 1.5
      vertex 104.706 51.9405 0
      vertex 104.706 51.9405 1.5
    endloop
  endfacet
  facet normal 0.951057 -0.309017 0
    outer loop
      vertex 104.706 51.9405 0
      vertex 104.4 51 1.5
      vertex 104.4 51 0
    endloop
  endfacet
  facet normal 0 -1 0
    outer loop
      vertex 105.506 52.5217 0
      vertex 106.494 52.5217 1.5
      vertex 105.506 52.5217 1.5
    endloop
  endfacet
  facet normal 0 -1 -0
    outer loop
      vertex 106.494 52.5217 1.5
      vertex 105.506 52.5217 0
      vertex 106.494 52.5217 0
    endloop
  endfacet
  facet normal 0.951057 0.309017 0
    outer loop
      vertex 104.706 50.0595 1.5
      vertex 104.4 51 0
      vertex 104.4 51 1.5
    endloop
  endfacet
  facet normal 0.951057 0.309017 0
    outer loop
      vertex 104.4 51 0
      vertex 104.706 50.0595 1.5
      vertex 104.706 50.0595 0
    endloop
  endfacet
  facet normal 0.587787 0.809015 -0
    outer loop
      vertex 105.506 49.4783 0
      vertex 104.706 50.0595 1.5
      vertex 105.506 49.4783 1.5
    endloop
  endfacet
  facet normal 0.587787 0.809015 0
    outer loop
      vertex 104.706 50.0595 1.5
      vertex 105.506 49.4783 0
      vertex 104.706 50.0595 0
    endloop
  endfacet
  facet normal -0.587787 0.809015 0
    outer loop
      vertex 107.294 50.0595 0
      vertex 106.494 49.4783 1.5
      vertex 107.294 50.0595 1.5
    endloop
  endfacet
  facet normal -0.587787 0.809015 0
    outer loop
      vertex 106.494 49.4783 1.5
      vertex 107.294 50.0595 0
      vertex 106.494 49.4783 0
    endloop
  endfacet
  facet normal -0.951057 0.309017 0
    outer loop
      vertex 107.294 50.0595 0
      vertex 107.6 51 1.5
      vertex 107.6 51 0
    endloop
  endfacet
  facet normal -0.951057 0.309017 0
    outer loop
      vertex 107.6 51 1.5
      vertex 107.294 50.0595 0
      vertex 107.294 50.0595 1.5
    endloop
  endfacet
  facet normal 0 1 -0
    outer loop
      vertex 106.494 49.4783 0
      vertex 105.506 49.4783 1.5
      vertex 106.494 49.4783 1.5
    endloop
  endfacet
  facet normal 0 1 0
    outer loop
      vertex 105.506 49.4783 1.5
      vertex 106.494 49.4783 0
      vertex 105.506 49.4783 0
    endloop
  endfacet
endsolid OpenSCAD_Model
