%
T1C.035F197S55
X0147Y0172
X0157Y0172
X0147Y018195
X0157Y018195
X0155Y0216
X0145Y0216
X0155Y0226
X0145Y0226
X0155Y0236
X0145Y0236
X0155Y0257
X0145Y0257
X0155Y0267
X0145Y0267
X0155Y0277
X0145Y0277
X0155Y0287
X0145Y0287
X0155Y031865
X0145Y031865
X0155Y032865
X0145Y032865
X0155Y033865
X0145Y033865
X014427Y035982
X014427Y039482
X0233Y042244
X0232Y04095
X0232Y03745
X01972Y027134
X02322Y027134
X0233Y0216
X0253Y0216
X0243Y0216
X025811Y023293
X025811Y026793
X02785Y0268
X02895Y0376
X02545Y0376
X0253Y042244
X0243Y042244
X0302Y042244
X0312Y042244
X0292Y042244
X03135Y0268
X0292Y0216
X0312Y0216
X0302Y0216
X032591Y018773
X032591Y013273
X0358Y0216
X0348Y0216
X0368Y0216
X03705Y0268
X03815Y0378
X03465Y0378
X0368Y042244
X0358Y042244
X0348Y042244
X0407Y042244
X0417Y042244
X0427Y042244
X0408Y04075
X0408Y03725
X043586Y029219
X043586Y028219
X04055Y0268
X042794Y026507
X042794Y023007
X0427Y0216
X0407Y0216
X0417Y0216
X0474Y0179
X0484Y0179
X048566Y028719
X049566Y028719
X0485Y031416
X0495Y031416
X0495Y032416
X0485Y032416
X0495Y033416
X0485Y033416
T2C.04F139S55
X019868Y049038
X019868Y052038
X042686Y05043
X045686Y05043
T3C.05118F107S55
X025434Y051984
X027434Y051984
X027434Y053955
X025434Y053955
X0295Y05297
X031469Y05297
X035799Y05297
X0312Y033586
X034Y033586
X0312Y031614
X034Y031614
X0347Y015186
X0301Y015186
X0301Y013214
X0347Y013214
X037768Y05297
T4C.052F107S55
X01405Y0418
X01955Y0418
T5C.12598F035S794
X014Y014
X014Y054
X05Y054
X05Y014
M30
