G04 #@! TF.GenerationSoftware,KiCad,Pcbnew,(2017-02-05 revision 431abcf)-makepkg*
G04 #@! TF.CreationDate,2017-03-02T10:01:43+01:00*
G04 #@! TF.ProjectId,LINREG01A,4C494E5245473031412E6B696361645F,rev?*
G04 #@! TF.FileFunction,Copper,L1,Top,Signal*
G04 #@! TF.FilePolarity,Positive*
%FSLAX46Y46*%
G04 Gerber Fmt 4.6, Leading zero omitted, Abs format (unit mm)*
G04 Created by KiCad (PCBNEW (2017-02-05 revision 431abcf)-makepkg) date 03/02/17 10:01:43*
%MOMM*%
%LPD*%
G01*
G04 APERTURE LIST*
%ADD10C,0.500000*%
%ADD11C,6.000000*%
%ADD12R,1.524000X1.524000*%
%ADD13C,0.800000*%
%ADD14C,0.700000*%
%ADD15C,0.254000*%
G04 APERTURE END LIST*
D10*
D11*
X5080000Y5080000D03*
X5080000Y35560000D03*
X25400000Y5080000D03*
X25400000Y35560000D03*
D12*
X3556000Y19050000D03*
X6096000Y19050000D03*
X3556000Y16510000D03*
X6096000Y16510000D03*
X3556000Y13970000D03*
X6096000Y13970000D03*
X3556000Y11430000D03*
X6096000Y11430000D03*
X27178000Y11176000D03*
X24638000Y11176000D03*
X27178000Y13716000D03*
X24638000Y13716000D03*
X27178000Y16256000D03*
X24638000Y16256000D03*
X27178000Y18796000D03*
X24638000Y18796000D03*
D13*
X10922000Y10922000D03*
X20574000Y9652000D03*
X20574000Y8636000D03*
X19558000Y8636000D03*
X19558000Y9652000D03*
X18542000Y9652000D03*
X18542000Y8636000D03*
X17526000Y8636000D03*
X17526000Y9652000D03*
X16510000Y9652000D03*
X16510000Y8636000D03*
X15494000Y8636000D03*
X15494000Y9652000D03*
X14478000Y9652000D03*
X14478000Y8636000D03*
X13462000Y8636000D03*
X13462000Y9652000D03*
X12446000Y9652000D03*
X12446000Y8636000D03*
X11430000Y8636000D03*
X11430000Y9652000D03*
X10414000Y9652000D03*
X10414000Y8636000D03*
X10414000Y2540000D03*
X10414000Y3556000D03*
X10414000Y4572000D03*
X10414000Y5588000D03*
X10414000Y6604000D03*
X10414000Y7620000D03*
X11430000Y7620000D03*
X11430000Y6604000D03*
X11430000Y5588000D03*
X11430000Y4572000D03*
X11430000Y3556000D03*
X11430000Y2540000D03*
X12446000Y2540000D03*
X12446000Y3556000D03*
X12446000Y4572000D03*
X12446000Y5588000D03*
X12446000Y6604000D03*
X12446000Y7620000D03*
X13462000Y7620000D03*
X13462000Y6604000D03*
X13462000Y5588000D03*
X13462000Y4572000D03*
X13462000Y3556000D03*
X13462000Y2540000D03*
X14478000Y2540000D03*
X14478000Y3556000D03*
X14478000Y4572000D03*
X14478000Y5588000D03*
X14478000Y6604000D03*
X14478000Y7620000D03*
X15494000Y2540000D03*
X15494000Y3556000D03*
X15494000Y4572000D03*
X15494000Y5588000D03*
X15494000Y6604000D03*
X15494000Y7620000D03*
X16510000Y7620000D03*
X16510000Y6604000D03*
X16510000Y5588000D03*
X16510000Y4572000D03*
X16510000Y3556000D03*
X16510000Y2540000D03*
X17526000Y7620000D03*
X17526000Y6604000D03*
X17526000Y5588000D03*
X17526000Y4572000D03*
X17526000Y3556000D03*
X17526000Y2540000D03*
X18542000Y2540000D03*
X18542000Y3556000D03*
X18542000Y4572000D03*
X18542000Y5588000D03*
X18542000Y6604000D03*
X18542000Y7620000D03*
X19558000Y7620000D03*
X19558000Y6604000D03*
X19558000Y5588000D03*
X19558000Y4572000D03*
X19558000Y3556000D03*
X19558000Y2540000D03*
X20574000Y7620000D03*
X20574000Y6604000D03*
X20574000Y5588000D03*
X20574000Y4572000D03*
X20574000Y3556000D03*
X20574000Y2540000D03*
X20574000Y1524000D03*
X19558000Y1524000D03*
X18542000Y1524000D03*
X17526000Y1524000D03*
X16510000Y1524000D03*
X15494000Y1524000D03*
X14478000Y1524000D03*
X13462000Y1524000D03*
X12446000Y1524000D03*
X11430000Y1524000D03*
X10414000Y1524000D03*
X1778000Y31750000D03*
X3048000Y26416000D03*
X3048000Y24892000D03*
X3048000Y20828000D03*
X8128000Y10414000D03*
X7112000Y9652000D03*
X6096000Y9652000D03*
X4826000Y9652000D03*
X3556000Y9652000D03*
X27178000Y9652000D03*
X25908000Y9652000D03*
X24638000Y9652000D03*
X27940000Y29210000D03*
X27940000Y30226000D03*
X26670000Y30226000D03*
X26670000Y29210000D03*
X28956000Y24384000D03*
X28956000Y22606000D03*
X28956000Y20828000D03*
X27686000Y20828000D03*
X26416000Y20828000D03*
X21844000Y23368000D03*
X21844000Y24130000D03*
X20828000Y24892000D03*
X20828000Y25654000D03*
X20828000Y26416000D03*
X20574000Y27432000D03*
X19812000Y27432000D03*
X19812000Y26416000D03*
X19812000Y25654000D03*
X19812000Y24638000D03*
X19558000Y29464000D03*
X19558000Y30480000D03*
X19558000Y31496000D03*
X18542000Y31496000D03*
X18542000Y30480000D03*
X18542000Y29464000D03*
X17526000Y29464000D03*
X16510000Y29464000D03*
X15494000Y29464000D03*
X15494000Y30480000D03*
X16510000Y30480000D03*
X17526000Y30480000D03*
X17526000Y31496000D03*
X16510000Y31496000D03*
X15494000Y31496000D03*
X14478000Y29464000D03*
X14478000Y30480000D03*
X14478000Y31496000D03*
X13462000Y31496000D03*
X13462000Y30480000D03*
X13462000Y29464000D03*
X12446000Y29464000D03*
X12446000Y30480000D03*
X12446000Y31496000D03*
X11430000Y31496000D03*
X11430000Y30480000D03*
X11430000Y29464000D03*
X10414000Y29464000D03*
X10414000Y30480000D03*
X10414000Y31496000D03*
X10414000Y32512000D03*
X11430000Y32512000D03*
X12446000Y32512000D03*
X13462000Y32512000D03*
X14478000Y32512000D03*
X15494000Y32512000D03*
X16510000Y32512000D03*
X17526000Y32512000D03*
X18542000Y32512000D03*
X19558000Y32512000D03*
X19558000Y33528000D03*
X18542000Y33528000D03*
X17526000Y33528000D03*
X16510000Y33528000D03*
X15494000Y33528000D03*
X14478000Y33528000D03*
X13462000Y33528000D03*
X12446000Y33528000D03*
X11430000Y33528000D03*
X10414000Y33528000D03*
X19558000Y34544000D03*
X18542000Y34544000D03*
X17526000Y34544000D03*
X16510000Y34544000D03*
X15494000Y34544000D03*
X14478000Y34544000D03*
X13462000Y34544000D03*
X12446000Y34544000D03*
X11430000Y34544000D03*
X10414000Y34544000D03*
X19558000Y35560000D03*
X18542000Y35560000D03*
X17526000Y35560000D03*
X16510000Y35560000D03*
X15494000Y35560000D03*
X14478000Y35560000D03*
X13462000Y35560000D03*
X12446000Y35560000D03*
X11430000Y35560000D03*
X10414000Y35560000D03*
X10414000Y36576000D03*
X11430000Y36576000D03*
X12446000Y36576000D03*
X13462000Y36576000D03*
X14478000Y36576000D03*
X15494000Y36576000D03*
X16510000Y36576000D03*
X17526000Y36576000D03*
X18542000Y36576000D03*
X19558000Y36576000D03*
X19558000Y37592000D03*
X18542000Y37592000D03*
X17526000Y37592000D03*
X16510000Y37592000D03*
X15494000Y37592000D03*
X14478000Y37592000D03*
X13462000Y37592000D03*
X12446000Y37592000D03*
X11430000Y37592000D03*
X10414000Y37592000D03*
D10*
X3048000Y24892000D02*
X3048000Y26416000D01*
X3556000Y19050000D02*
X3556000Y20320000D01*
X3556000Y20320000D02*
X3048000Y20828000D01*
X7112000Y9652000D02*
X7366000Y9652000D01*
X7366000Y9652000D02*
X8128000Y10414000D01*
X4826000Y9652000D02*
X6096000Y9652000D01*
X3556000Y11430000D02*
X3556000Y9652000D01*
X24638000Y9652000D02*
X25908000Y9652000D01*
X27940000Y30226000D02*
X27940000Y29210000D01*
X26670000Y29210000D02*
X26670000Y30226000D01*
X28956000Y20828000D02*
X28956000Y22606000D01*
X26416000Y20828000D02*
X27686000Y20828000D01*
D14*
X21844000Y24130000D02*
X21844000Y23368000D01*
X20828000Y25654000D02*
X20828000Y24892000D01*
X20574000Y27432000D02*
X20574000Y26670000D01*
X20574000Y26670000D02*
X20828000Y26416000D01*
X19812000Y26416000D02*
X19812000Y27432000D01*
X19812000Y24638000D02*
X19812000Y25654000D01*
D15*
G36*
X23065296Y39060741D02*
X21903340Y37900810D01*
X21273718Y36384513D01*
X21272285Y34742690D01*
X21899259Y33225296D01*
X23059190Y32063340D01*
X24575487Y31433718D01*
X26217310Y31432285D01*
X27734704Y32059259D01*
X28896660Y33219190D01*
X29516000Y34710725D01*
X29516000Y5925662D01*
X28900741Y7414704D01*
X27740810Y8576660D01*
X26224513Y9206282D01*
X24582690Y9207715D01*
X23065296Y8580741D01*
X21903340Y7420810D01*
X21273718Y5904513D01*
X21272285Y4262690D01*
X21899259Y2745296D01*
X23059190Y1583340D01*
X24550725Y964000D01*
X5925662Y964000D01*
X7414704Y1579259D01*
X8576660Y2739190D01*
X9206282Y4255487D01*
X9207715Y5897310D01*
X8580741Y7414704D01*
X7420810Y8576660D01*
X5904513Y9206282D01*
X4262690Y9207715D01*
X2745296Y8580741D01*
X1583340Y7420810D01*
X964000Y5929275D01*
X964000Y17272000D01*
X2146560Y17272000D01*
X2146560Y15748000D01*
X2195843Y15500235D01*
X2336191Y15290191D01*
X2411307Y15240000D01*
X2336191Y15189809D01*
X2195843Y14979765D01*
X2146560Y14732000D01*
X2146560Y13208000D01*
X2195843Y12960235D01*
X2336191Y12750191D01*
X2546235Y12609843D01*
X2794000Y12560560D01*
X4318000Y12560560D01*
X4565765Y12609843D01*
X4775809Y12750191D01*
X4826000Y12825307D01*
X4876191Y12750191D01*
X5086235Y12609843D01*
X5334000Y12560560D01*
X6858000Y12560560D01*
X7105765Y12609843D01*
X7315809Y12750191D01*
X7456157Y12960235D01*
X7505440Y13208000D01*
X7505440Y14732000D01*
X7456157Y14979765D01*
X7315809Y15189809D01*
X7240693Y15240000D01*
X7315809Y15290191D01*
X7456157Y15500235D01*
X7505440Y15748000D01*
X7505440Y17018000D01*
X23228560Y17018000D01*
X23228560Y15494000D01*
X23277843Y15246235D01*
X23418191Y15036191D01*
X23493307Y14986000D01*
X23418191Y14935809D01*
X23277843Y14725765D01*
X23228560Y14478000D01*
X23228560Y12954000D01*
X23277843Y12706235D01*
X23418191Y12496191D01*
X23628235Y12355843D01*
X23876000Y12306560D01*
X25400000Y12306560D01*
X25647765Y12355843D01*
X25857809Y12496191D01*
X25908000Y12571307D01*
X25958191Y12496191D01*
X26168235Y12355843D01*
X26416000Y12306560D01*
X27940000Y12306560D01*
X28187765Y12355843D01*
X28397809Y12496191D01*
X28538157Y12706235D01*
X28587440Y12954000D01*
X28587440Y14478000D01*
X28538157Y14725765D01*
X28397809Y14935809D01*
X28322693Y14986000D01*
X28397809Y15036191D01*
X28538157Y15246235D01*
X28587440Y15494000D01*
X28587440Y17018000D01*
X28538157Y17265765D01*
X28397809Y17475809D01*
X28187765Y17616157D01*
X27940000Y17665440D01*
X26416000Y17665440D01*
X26168235Y17616157D01*
X25958191Y17475809D01*
X25908000Y17400693D01*
X25857809Y17475809D01*
X25647765Y17616157D01*
X25400000Y17665440D01*
X23876000Y17665440D01*
X23628235Y17616157D01*
X23418191Y17475809D01*
X23277843Y17265765D01*
X23228560Y17018000D01*
X7505440Y17018000D01*
X7505440Y17272000D01*
X7456157Y17519765D01*
X7315809Y17729809D01*
X7105765Y17870157D01*
X6858000Y17919440D01*
X5334000Y17919440D01*
X5086235Y17870157D01*
X4876191Y17729809D01*
X4826000Y17654693D01*
X4775809Y17729809D01*
X4565765Y17870157D01*
X4318000Y17919440D01*
X2794000Y17919440D01*
X2546235Y17870157D01*
X2336191Y17729809D01*
X2195843Y17519765D01*
X2146560Y17272000D01*
X964000Y17272000D01*
X964000Y34714338D01*
X1579259Y33225296D01*
X2739190Y32063340D01*
X4255487Y31433718D01*
X5897310Y31432285D01*
X7414704Y32059259D01*
X8576660Y33219190D01*
X9206282Y34735487D01*
X9207715Y36377310D01*
X8580741Y37894704D01*
X8375803Y38100000D01*
X9271000Y38100000D01*
X9271000Y28956000D01*
X9319336Y28712996D01*
X9456987Y28506987D01*
X9662996Y28369336D01*
X9906000Y28321000D01*
X20066000Y28321000D01*
X20309004Y28369336D01*
X20515013Y28506987D01*
X20652664Y28712996D01*
X20701000Y28956000D01*
X20701000Y38100000D01*
X20652664Y38343004D01*
X20515013Y38549013D01*
X20309004Y38686664D01*
X20066000Y38735000D01*
X9906000Y38735000D01*
X9662996Y38686664D01*
X9456987Y38549013D01*
X9319336Y38343004D01*
X9271000Y38100000D01*
X8375803Y38100000D01*
X7420810Y39056660D01*
X5929275Y39676000D01*
X24554338Y39676000D01*
X23065296Y39060741D01*
X23065296Y39060741D01*
G37*
X23065296Y39060741D02*
X21903340Y37900810D01*
X21273718Y36384513D01*
X21272285Y34742690D01*
X21899259Y33225296D01*
X23059190Y32063340D01*
X24575487Y31433718D01*
X26217310Y31432285D01*
X27734704Y32059259D01*
X28896660Y33219190D01*
X29516000Y34710725D01*
X29516000Y5925662D01*
X28900741Y7414704D01*
X27740810Y8576660D01*
X26224513Y9206282D01*
X24582690Y9207715D01*
X23065296Y8580741D01*
X21903340Y7420810D01*
X21273718Y5904513D01*
X21272285Y4262690D01*
X21899259Y2745296D01*
X23059190Y1583340D01*
X24550725Y964000D01*
X5925662Y964000D01*
X7414704Y1579259D01*
X8576660Y2739190D01*
X9206282Y4255487D01*
X9207715Y5897310D01*
X8580741Y7414704D01*
X7420810Y8576660D01*
X5904513Y9206282D01*
X4262690Y9207715D01*
X2745296Y8580741D01*
X1583340Y7420810D01*
X964000Y5929275D01*
X964000Y17272000D01*
X2146560Y17272000D01*
X2146560Y15748000D01*
X2195843Y15500235D01*
X2336191Y15290191D01*
X2411307Y15240000D01*
X2336191Y15189809D01*
X2195843Y14979765D01*
X2146560Y14732000D01*
X2146560Y13208000D01*
X2195843Y12960235D01*
X2336191Y12750191D01*
X2546235Y12609843D01*
X2794000Y12560560D01*
X4318000Y12560560D01*
X4565765Y12609843D01*
X4775809Y12750191D01*
X4826000Y12825307D01*
X4876191Y12750191D01*
X5086235Y12609843D01*
X5334000Y12560560D01*
X6858000Y12560560D01*
X7105765Y12609843D01*
X7315809Y12750191D01*
X7456157Y12960235D01*
X7505440Y13208000D01*
X7505440Y14732000D01*
X7456157Y14979765D01*
X7315809Y15189809D01*
X7240693Y15240000D01*
X7315809Y15290191D01*
X7456157Y15500235D01*
X7505440Y15748000D01*
X7505440Y17018000D01*
X23228560Y17018000D01*
X23228560Y15494000D01*
X23277843Y15246235D01*
X23418191Y15036191D01*
X23493307Y14986000D01*
X23418191Y14935809D01*
X23277843Y14725765D01*
X23228560Y14478000D01*
X23228560Y12954000D01*
X23277843Y12706235D01*
X23418191Y12496191D01*
X23628235Y12355843D01*
X23876000Y12306560D01*
X25400000Y12306560D01*
X25647765Y12355843D01*
X25857809Y12496191D01*
X25908000Y12571307D01*
X25958191Y12496191D01*
X26168235Y12355843D01*
X26416000Y12306560D01*
X27940000Y12306560D01*
X28187765Y12355843D01*
X28397809Y12496191D01*
X28538157Y12706235D01*
X28587440Y12954000D01*
X28587440Y14478000D01*
X28538157Y14725765D01*
X28397809Y14935809D01*
X28322693Y14986000D01*
X28397809Y15036191D01*
X28538157Y15246235D01*
X28587440Y15494000D01*
X28587440Y17018000D01*
X28538157Y17265765D01*
X28397809Y17475809D01*
X28187765Y17616157D01*
X27940000Y17665440D01*
X26416000Y17665440D01*
X26168235Y17616157D01*
X25958191Y17475809D01*
X25908000Y17400693D01*
X25857809Y17475809D01*
X25647765Y17616157D01*
X25400000Y17665440D01*
X23876000Y17665440D01*
X23628235Y17616157D01*
X23418191Y17475809D01*
X23277843Y17265765D01*
X23228560Y17018000D01*
X7505440Y17018000D01*
X7505440Y17272000D01*
X7456157Y17519765D01*
X7315809Y17729809D01*
X7105765Y17870157D01*
X6858000Y17919440D01*
X5334000Y17919440D01*
X5086235Y17870157D01*
X4876191Y17729809D01*
X4826000Y17654693D01*
X4775809Y17729809D01*
X4565765Y17870157D01*
X4318000Y17919440D01*
X2794000Y17919440D01*
X2546235Y17870157D01*
X2336191Y17729809D01*
X2195843Y17519765D01*
X2146560Y17272000D01*
X964000Y17272000D01*
X964000Y34714338D01*
X1579259Y33225296D01*
X2739190Y32063340D01*
X4255487Y31433718D01*
X5897310Y31432285D01*
X7414704Y32059259D01*
X8576660Y33219190D01*
X9206282Y34735487D01*
X9207715Y36377310D01*
X8580741Y37894704D01*
X8375803Y38100000D01*
X9271000Y38100000D01*
X9271000Y28956000D01*
X9319336Y28712996D01*
X9456987Y28506987D01*
X9662996Y28369336D01*
X9906000Y28321000D01*
X20066000Y28321000D01*
X20309004Y28369336D01*
X20515013Y28506987D01*
X20652664Y28712996D01*
X20701000Y28956000D01*
X20701000Y38100000D01*
X20652664Y38343004D01*
X20515013Y38549013D01*
X20309004Y38686664D01*
X20066000Y38735000D01*
X9906000Y38735000D01*
X9662996Y38686664D01*
X9456987Y38549013D01*
X9319336Y38343004D01*
X9271000Y38100000D01*
X8375803Y38100000D01*
X7420810Y39056660D01*
X5929275Y39676000D01*
X24554338Y39676000D01*
X23065296Y39060741D01*
G36*
X19939000Y29083000D02*
X10033000Y29083000D01*
X10033000Y37973000D01*
X19939000Y37973000D01*
X19939000Y29083000D01*
X19939000Y29083000D01*
G37*
X19939000Y29083000D02*
X10033000Y29083000D01*
X10033000Y37973000D01*
X19939000Y37973000D01*
X19939000Y29083000D01*
M02*
