M48
;DRILL file {KiCad (2016-09-17 revision 679eef1)-makepkg} date 01/31/17 06:59:10
;FORMAT={3:3/ absolute / metric / suppress leading zeros}
FMAT,2
METRIC,TZ
T1C0.889
T2C3.000
%
G90
G05
M71
T1
X3810Y29718
X3810Y27178
X3810Y24638
X3810Y22098
X3810Y18542
X3810Y16002
X3810Y13462
X3810Y10922
X6350Y29718
X6350Y27178
X6350Y24638
X6350Y22098
X6350Y18542
X6350Y16002
X6350Y13462
X6350Y10922
X23876Y31750
X23876Y29210
X23876Y11938
X23876Y9398
X26416Y31750
X26416Y29210
X26416Y11938
X26416Y9398
X35306Y29718
X35306Y27178
X35306Y24638
X35306Y22098
X35306Y18542
X35306Y16002
X35306Y13462
X35306Y10922
X37846Y29718
X37846Y27178
X37846Y24638
X37846Y22098
X37846Y18542
X37846Y16002
X37846Y13462
X37846Y10922
T2
X5080Y35560
X5080Y5080
X35560Y35560
X35560Y5080
T0
M30
