<?xml version="1.0" encoding="UTF-8" standalone="no"?>
<!-- Created with Inkscape (http://www.inkscape.org/) -->

<svg
   xmlns:dc="http://purl.org/dc/elements/1.1/"
   xmlns:cc="http://creativecommons.org/ns#"
   xmlns:rdf="http://www.w3.org/1999/02/22-rdf-syntax-ns#"
   xmlns:svg="http://www.w3.org/2000/svg"
   xmlns="http://www.w3.org/2000/svg"
   xmlns:sodipodi="http://sodipodi.sourceforge.net/DTD/sodipodi-0.dtd"
   xmlns:inkscape="http://www.inkscape.org/namespaces/inkscape"
   width="744.09448819"
   height="1052.3622047"
   id="svg2"
   inkscape:label="Pozadí"
   version="1.1"
   inkscape:version="0.48.2 r9819"
   sodipodi:docname="TTLPECL01A_QRcode.svg">
  <defs
     id="defs3">
    <symbol
       id="*PAPER_SPACE" />
    <symbol
       id="*MODEL_SPACE" />
    <pattern
       id="Hatch"
       x="0"
       y="0"
       patternUnits="userSpaceOnUse"
       width="8"
       height="8">
      <path
         id="path3181"
         d="M8 4 l-4,4"
         stroke-width="0.25"
         stroke="#000000"
         linecap="square" />
      <path
         id="path3183"
         d="M6 2 l-4,4"
         stroke-width="0.25"
         stroke="#000000"
         linecap="square" />
      <path
         id="path3185"
         d="M4 0 l-4,4"
         stroke-width="0.25"
         stroke="#000000"
         linecap="square" />
    </pattern>
    <marker
       orient="auto"
       id="DistanceX"
       style="overflow:visible"
       refX="0.0"
       refY="0.0">
      <path
         id="path3178"
         d="M 3,-3 L -3,3 M 0,-5 L  0,5"
         style="stroke:#000000; stroke-width:0.5" />
    </marker>
    <symbol
       id="*PAPER_SPACE-8" />
    <symbol
       id="*MODEL_SPACE-6" />
    <pattern
       id="Hatch-8"
       x="0"
       y="0"
       patternUnits="userSpaceOnUse"
       width="8"
       height="8">
      <path
         id="path3350"
         d="M8 4 l-4,4"
         stroke-width="0.25"
         stroke="#000000"
         linecap="square" />
      <path
         id="path3352"
         d="M6 2 l-4,4"
         stroke-width="0.25"
         stroke="#000000"
         linecap="square" />
      <path
         id="path3354"
         d="M4 0 l-4,4"
         stroke-width="0.25"
         stroke="#000000"
         linecap="square" />
    </pattern>
    <marker
       orient="auto"
       id="DistanceX-9"
       style="overflow:visible"
       refX="0.0"
       refY="0.0">
      <path
         id="path3347"
         d="M 3,-3 L -3,3 M 0,-5 L  0,5"
         style="stroke:#000000; stroke-width:0.5" />
    </marker>
  </defs>
  <sodipodi:namedview
     id="base"
     pagecolor="#ffffff"
     bordercolor="#666666"
     borderopacity="1.0"
     inkscape:pageopacity="0.0"
     inkscape:pageshadow="2"
     inkscape:zoom="15.839192"
     inkscape:cx="438.23565"
     inkscape:cy="410.04966"
     inkscape:document-units="px"
     inkscape:current-layer="layer1"
     showgrid="false"
     inkscape:window-width="1920"
     inkscape:window-height="1056"
     inkscape:window-x="0"
     inkscape:window-y="24"
     inkscape:window-maximized="1" />
  <metadata
     id="metadata6">
    <rdf:RDF>
      <cc:Work
         rdf:about="">
        <dc:format>image/svg+xml</dc:format>
        <dc:type
           rdf:resource="http://purl.org/dc/dcmitype/StillImage" />
        <dc:title></dc:title>
      </cc:Work>
    </rdf:RDF>
  </metadata>
  <g
     inkscape:label="Vrstva 1"
     inkscape:groupmode="layer"
     id="layer1">
    <path
       style="fill:#000000;fill-opacity:1"
       d="m 427.89752,651.18779 -3.2073,0 0,-3.2073 0,-3.20731 3.2073,0 3.20731,0 0,3.20731 0,3.2073 -3.20731,0 z m 0,-0.91637 2.29094,0 0,-2.29093 0,-2.29094 -2.29094,0 -2.29093,0 0,2.29094 0,2.29093 2.29093,0 z m 0,-0.91638 -1.37455,0 0,-1.37455 0,-1.37456 1.37455,0 1.37456,0 0,1.37456 0,1.37455 -1.37456,0 z m 4.58187,1.83275 -0.45819,0 0,-0.45819 0,-0.45818 0.45819,0 0.45818,0 0,-0.45819 0,-0.45819 -0.45818,0 -0.45819,0 0,-0.91637 0,-0.91637 0.45819,0 0.45818,0 0,-0.45819 0,-0.45818 -0.45818,0 -0.45819,0 0,-1.37456 0,-1.37456 -1.83274,0 -1.83275,0 0,-0.45819 0,-0.45818 -0.45819,0 -0.45818,0 0,0.45818 0,0.45819 -0.91637,0 -0.91638,0 0,-0.45819 0,-0.45818 0.45819,0 0.45819,0 0,-0.91638 0,-0.91637 0.45818,0 0.45819,0 0,0.45819 0,0.45818 0.45818,0 0.45819,0 0,0.45819 0,0.45819 1.37456,0 1.37456,0 0,-0.45819 0,-0.45819 -0.45819,0 -0.45818,0 0,-0.45818 0,-0.45819 0.45818,0 0.45819,0 0,-0.45818 0,-0.45819 -0.45819,0 -0.45818,0 0,-0.45819 0,-0.45818 1.37455,0 1.37456,0 0,-0.91638 0,-0.91637 0.45819,0 0.45819,0 0,-0.45818 0,-0.45819 -0.45819,0 -0.45819,0 0,-0.45819 0,-0.45818 1.83275,0 1.83274,0 0,0.45818 0,0.45819 -0.45818,0 -0.45819,0 0,0.45819 0,0.45818 -0.45819,0 -0.45818,0 0,0.45819 0,0.45818 -0.45819,0 -0.45818,0 0,2.29094 0,2.29093 1.37455,0 1.37456,0 0,-0.45819 0,-0.45819 -0.45818,0 -0.45819,0 0,-1.37455 0,-1.37456 -0.45819,0 -0.45818,0 0,-0.45819 0,-0.45819 0.45818,0 0.45819,0 0,-0.45818 0,-0.45819 0.91637,0 0.91638,0 0,0.45819 0,0.45818 -0.45819,0 -0.45819,0 0,1.37456 0,1.37456 0.45819,0 0.45819,0 0,-1.37456 0,-1.37456 0.45818,0 0.45819,0 0,-0.45818 0,-0.45819 0.45818,0 0.45819,0 0,-0.45818 0,-0.45819 0.45819,0 0.45818,0 0,-0.45819 0,-0.45818 0.45819,0 0.45819,0 0,0.45818 0,0.45819 -0.45819,0 -0.45819,0 0,0.45819 0,0.45818 -0.45818,0 -0.45819,0 0,0.91637 0,0.91638 0.45819,0 0.45818,0 0,0.45818 0,0.45819 0.45819,0 0.45819,0 0,-0.45819 0,-0.45818 0.45818,0 0.45819,0 0,-0.91638 0,-0.91637 0.91637,0 0.91637,0 0,0.91637 0,0.91638 0.45819,0 0.45819,0 0,0.45818 0,0.45819 -1.83275,0 -1.83274,0 0,1.37456 0,1.37456 0.45818,0 0.45819,0 0,0.45818 0,0.45819 0.45818,0 0.45819,0 0,-0.45819 0,-0.45818 -0.45819,0 -0.45818,0 0,-0.45819 0,-0.45819 0.91637,0 0.91637,0 0,-0.45818 0,-0.45819 0.45819,0 0.45819,0 0,0.45819 0,0.45818 0.45818,0 0.45819,0 0,-0.45818 0,-0.45819 0.45818,0 0.45819,0 0,0.45819 0,0.45818 -0.45819,0 -0.45818,0 0,0.45819 0,0.45819 1.37456,0 1.37456,0 0,-0.45819 0,-0.45819 -0.45819,0 -0.45819,0 0,-0.45818 0,-0.45819 0.45819,0 0.45819,0 0,-0.45818 0,-0.45819 0.45818,0 0.45819,0 0,-0.91637 0,-0.91638 -1.37456,0 -1.37456,0 0,0.45819 0,0.45819 0.45819,0 0.45818,0 0,0.45818 0,0.45819 -0.91637,0 -0.91637,0 0,-0.91637 0,-0.91638 -0.45819,0 -0.45818,0 0,-0.91637 0,-0.91637 0.45818,0 0.45819,0 0,0.91637 0,0.91637 0.45818,0 0.45819,0 0,-0.45818 0,-0.45819 1.37456,0 1.37456,0 0,-0.45818 0,-0.45819 0.91637,0 0.91637,0 0,0.91637 0,0.91637 -0.45818,0 -0.45819,0 0,1.37456 0,1.37456 -0.45819,0 -0.45818,0 0,1.37456 0,1.37456 0.91637,0 0.91637,0 0,0.45819 0,0.45818 -0.45818,0 -0.45819,0 0,0.45819 0,0.45818 0.45819,0 0.45818,0 0,0.91638 0,0.91637 -0.45818,0 -0.45819,0 0,0.45819 0,0.45818 0.45819,0 0.45818,0 0,0.45819 0,0.45818 -0.45818,0 -0.45819,0 0,0.91638 0,0.91637 -0.45819,0 -0.45818,0 0,-0.91637 0,-0.91638 0.45818,0 0.45819,0 0,-0.45818 0,-0.45819 -0.45819,0 -0.45818,0 0,0.45819 0,0.45818 -0.45819,0 -0.45818,0 0,-0.45818 0,-0.45819 -0.91638,0 -0.91637,0 0,-0.45818 0,-0.45819 -1.83274,0 -1.83275,0 0,0.91637 0,0.91637 0.45819,0 0.45818,0 0,0.91638 0,0.91637 -3.2073,0 -3.2073,0 0,-0.45819 0,-0.45818 -0.45819,0 -0.45819,0 0,0.45818 0,0.45819 -1.37456,0 -1.37455,0 0,-0.45819 0,-0.45818 -0.45819,0 -0.45819,0 0,0.45818 0,0.45819 -0.45818,0 z m 1.83274,-0.91637 0.45819,0 0,-0.45819 0,-0.45819 0.45818,0 0.45819,0 0,-0.45818 0,-0.45819 -0.91637,0 -0.91637,0 0,-0.45818 0,-0.45819 1.37455,0 1.37456,0 0,0.91637 0,0.91637 0.91638,0 0.91637,0 0,0.45819 0,0.45819 0.45818,0 0.45819,0 0,-0.45819 0,-0.45819 0.45819,0 0.45818,0 0,0.45819 0,0.45819 0.45819,0 0.45819,0 0,-0.45819 0,-0.45819 0.45818,0 0.45819,0 0,0.45819 0,0.45819 0.45818,0 0.45819,0 0,-0.45819 0,-0.45819 -0.45819,0 -0.45818,0 0,-0.91637 0,-0.91637 0.45818,0 0.45819,0 0,-0.91637 0,-0.91638 -0.45819,0 -0.45818,0 0,-0.45818 0,-0.45819 -0.91637,0 -0.91638,0 0,-0.45818 0,-0.45819 -0.45818,0 -0.45819,0 0,-1.37456 0,-1.37456 0.45819,0 0.45818,0 0,-0.45818 0,-0.45819 -0.45818,0 -0.45819,0 0,-0.45819 0,-0.45818 -0.45819,0 -0.45818,0 0,2.29093 0,2.29093 -0.91637,0 -0.91638,0 0,0.91637 0,0.91637 -0.45818,0 -0.45819,0 0,0.45819 0,0.45819 -0.45819,0 -0.45818,0 0,-0.91638 0,-0.91637 0.45818,0 0.45819,0 0,-0.45818 0,-0.45819 -0.45819,0 -0.45818,0 0,0.45819 0,0.45818 -0.45819,0 -0.45818,0 0,-0.45818 0,-0.45819 -0.45819,0 -0.45819,0 0,0.45819 0,0.45818 0.45819,0 0.45819,0 0,0.45819 0,0.45818 -0.45819,0 -0.45819,0 0,0.45819 0,0.45819 0.45819,0 0.45819,0 0,0.45818 0,0.45819 -0.45819,0 -0.45819,0 0,0.45819 0,0.45818 0.45819,0 0.45819,0 0,0.91637 0,0.91638 0.45818,0 z m 4.58186,-0.91638 -0.45818,0 0,-0.91637 0,-0.91637 0.45818,0 0.45819,0 0,0.91637 0,0.91637 -0.45819,0 z m 1.83275,-0.91637 -0.45819,0 0,-0.91637 0,-0.91637 0.45819,0 0.45819,0 0,-0.45819 0,-0.45819 0.45818,0 0.45819,0 0,0.91638 0,0.91637 -0.45819,0 -0.45818,0 0,0.45819 0,0.45818 -0.45819,0 z m -3.2073,-1.83274 -0.91638,0 0,-0.45819 0,-0.45819 0.45819,0 0.45819,0 0,-0.45818 0,-0.45819 0.91637,0 0.91637,0 0,0.45819 0,0.45818 -0.45819,0 -0.45818,0 0,0.45819 0,0.45819 -0.91637,0 z m 12.37102,0.91637 0.45819,0 0,-0.91637 0,-0.91638 -0.45819,0 -0.45818,0 0,-0.45818 0,-0.45819 -0.45819,0 -0.45818,0 0,0.45819 0,0.45818 -0.45819,0 -0.45819,0 0,0.45819 0,0.45819 0.91638,0 0.91637,0 0,0.45818 0,0.45819 0.45818,0 z m -4.58186,-0.91637 1.37456,0 0,-1.37456 0,-1.37456 -1.37456,0 -1.37456,0 0,1.37456 0,1.37456 1.37456,0 z m 0,-0.91638 -0.45818,0 0,-0.45818 0,-0.45819 0.45818,0 0.45819,0 0,0.45819 0,0.45818 -0.45819,0 z m -12.82921,-2.74911 0.45818,0 0,-0.45819 0,-0.45819 -0.45818,0 -0.45819,0 0,0.45819 0,0.45819 0.45819,0 z m 11.91284,0 0.45819,0 0,-0.45819 0,-0.45819 -0.45819,0 -0.45819,0 0,0.45819 0,0.45819 0.45819,0 z m 0.91637,8.24735 -0.45818,0 0,-0.91637 0,-0.91638 0.45818,0 0.45819,0 0,-0.45818 0,-0.45819 0.45818,0 0.45819,0 0,0.91637 0,0.91638 -0.45819,0 -0.45818,0 0,0.45818 0,0.45819 -0.45819,0 z m 2.74912,0 -0.45819,0 0,-0.91637 0,-0.91638 0.45819,0 0.45819,0 0,0.91638 0,0.91637 -0.45819,0 z m -22.90931,-9.16373 -0.45819,0 0,-0.45818 0,-0.45819 0.45819,0 0.45818,0 0,0.45819 0,0.45818 -0.45818,0 z m 3.2073,-0.91637 -0.91637,0 0,-0.45818 0,-0.45819 -0.45819,0 -0.45818,0 0,-0.45819 0,-0.45818 -0.45819,0 -0.45819,0 0,0.45818 0,0.45819 -0.45818,0 -0.45819,0 0,-0.91637 0,-0.91638 0.91637,0 0.91638,0 0,-0.45818 0,-0.45819 -0.91638,0 -0.91637,0 0,-0.91637 0,-0.91637 0.45819,0 0.45818,0 0,0.45818 0,0.45819 0.45819,0 0.45819,0 0,-0.45819 0,-0.45818 -0.45819,0 -0.45819,0 0,-0.91638 0,-0.91637 -0.45818,0 -0.45819,0 0,-0.91637 0,-0.91637 0.45819,0 0.45818,0 0,0.45818 0,0.45819 0.45819,0 0.45819,0 0,0.45819 0,0.45818 0.91637,0 0.91637,0 0,0.45819 0,0.45818 -0.45819,0 -0.45818,0 0,0.91638 0,0.91637 0.45818,0 0.45819,0 0,0.45819 0,0.45818 -0.45819,0 -0.45818,0 0,0.45819 0,0.45818 0.45818,0 0.45819,0 0,0.45819 0,0.45819 0.45819,0 0.45818,0 0,0.91637 0,0.91637 -0.91637,0 z m 1.37456,-1.83274 -0.45819,0 0,-0.45819 0,-0.45819 -0.45818,0 -0.45819,0 0,-0.45818 0,-0.45819 1.83275,0 1.83274,0 0,0.45819 0,0.45818 -0.91637,0 -0.91637,0 0,0.45819 0,0.45819 -0.45819,0 z m 8.24735,-1.83275 -0.45818,0 0,-0.91637 0,-0.91637 0.45818,0 0.45819,0 0,0.91637 0,0.91637 -0.45819,0 z m -7.78916,-0.91637 -1.83275,0 0,-0.91637 0,-0.91638 0.45819,0 0.45818,0 0,-0.45818 0,-0.45819 -0.45818,0 -0.45819,0 0,-0.45818 0,-0.45819 -0.91637,0 -0.91637,0 0,-0.45819 0,-0.45818 0.91637,0 0.91637,0 0,0.45818 0,0.45819 0.45819,0 0.45818,0 0,-0.45819 0,-0.45818 1.37456,0 1.37456,0 0,-0.91638 0,-0.91637 0.45819,0 0.45818,0 0,-0.91637 0,-0.91637 -0.45818,0 -0.45819,0 0,-0.45819 0,-0.45819 0.45819,0 0.45818,0 0,-0.45818 0,-0.45819 -0.45818,0 -0.45819,0 0,-0.91637 0,-0.91637 0.91637,0 0.91638,0 0,0.45818 0,0.45819 -0.45819,0 -0.45819,0 0,0.45819 0,0.45818 0.91638,0 0.91637,0 0,-0.45818 0,-0.45819 0.45818,0 0.45819,0 0,-0.45819 0,-0.45818 0.45819,0 0.45818,0 0,0.45818 0,0.45819 0.45819,0 0.45819,0 0,-0.45819 0,-0.45818 0.91637,0 0.91637,0 0,0.45818 0,0.45819 -0.45819,0 -0.45818,0 0,0.45819 0,0.45818 -0.91637,0 -0.91638,0 0,0.45819 0,0.45818 -0.45818,0 -0.45819,0 0,-0.45818 0,-0.45819 -0.45819,0 -0.45818,0 0,0.45819 0,0.45818 -0.91637,0 -0.91638,0 0,0.45819 0,0.45819 1.83275,0 1.83274,0 0,0.45818 0,0.45819 0.45819,0 0.45819,0 0,-0.45819 0,-0.45818 0.45818,0 0.45819,0 0,-0.45819 0,-0.45819 0.45818,0 0.45819,0 0,-0.45818 0,-0.45819 0.45819,0 0.45818,0 0,0.45819 0,0.45818 0.45819,0 0.45819,0 0,-0.45818 0,-0.45819 -0.45819,0 -0.45819,0 0,-0.91637 0,-0.91637 1.83275,0 1.83274,0 0,0.91637 0,0.91637 -0.45818,0 -0.45819,0 0,-0.45818 0,-0.45819 -0.45819,0 -0.45818,0 0,0.91637 0,0.91637 -0.45819,0 -0.45818,0 0,0.91638 0,0.91637 -0.45819,0 -0.45819,0 0,0.91637 0,0.91637 0.45819,0 0.45819,0 0,-0.45818 0,-0.45819 0.45818,0 0.45819,0 0,-0.91637 0,-0.91637 0.45818,0 0.45819,0 0,-0.45819 0,-0.45819 0.45819,0 0.45818,0 0,0.45819 0,0.45819 -0.45818,0 -0.45819,0 0,0.45818 0,0.45819 0.45819,0 0.45818,0 0,0.91637 0,0.91637 -0.45818,0 -0.45819,0 0,-0.45818 0,-0.45819 -0.45819,0 -0.45818,0 0,0.91637 0,0.91638 0.45818,0 0.45819,0 0,0.45818 0,0.45819 0.91637,0 0.91638,0 0,-0.45819 0,-0.45818 0.45818,0 0.45819,0 0,0.45818 0,0.45819 0.91637,0 0.91637,0 0,-0.45819 0,-0.45818 0.45819,0 0.45819,0 0,0.45818 0,0.45819 -0.45819,0 -0.45819,0 0,0.45819 0,0.45818 -0.91637,0 -0.91637,0 0,0.45819 0,0.45818 1.37456,0 1.37456,0 0,-0.45818 0,-0.45819 0.91637,0 0.91637,0 0,-0.45818 0,-0.45819 -0.45819,0 -0.45818,0 0,-0.45819 0,-0.45818 0.91637,0 0.91637,0 0,0.91637 0,0.91637 -0.45818,0 -0.45819,0 0,0.45819 0,0.45818 0.45819,0 0.45818,0 0,0.45819 0,0.45819 -0.45818,0 -0.45819,0 0,-0.45819 0,-0.45819 -0.91637,0 -0.91637,0 0,0.45819 0,0.45819 0.45818,0 0.45819,0 0,0.45818 0,0.45819 -0.91637,0 -0.91638,0 0,-0.45819 0,-0.45818 -1.37456,0 -1.37455,0 0,-0.45819 0,-0.45819 -0.91638,0 -0.91637,0 0,-0.45818 0,-0.45819 -0.45819,0 -0.45818,0 0,0.45819 0,0.45818 -1.37456,0 -1.37456,0 0,-0.45818 0,-0.45819 -0.45819,0 -0.45818,0 0,-0.91637 0,-0.91637 -0.45819,0 -0.45818,0 0,1.37456 0,1.37455 -2.29094,0 -2.29093,0 0,0.45819 0,0.45819 -0.45818,0 -0.45819,0 0,0.45818 0,0.45819 -1.83274,0 z m 0.91637,-0.91637 0.91637,0 0,-0.45819 0,-0.45819 -0.91637,0 -0.91637,0 0,0.45819 0,0.45819 0.91637,0 z m 0,-1.83275 0.91637,0 0,-0.45818 0,-0.45819 0.91637,0 0.91638,0 0,-0.45819 0,-0.45818 0.45818,0 0.45819,0 0,0.45818 0,0.45819 0.45818,0 0.45819,0 0,0.45819 0,0.45818 0.45819,0 0.45818,0 0,-0.91637 0,-0.91637 0.45819,0 0.45819,0 0,-0.91638 0,-0.91637 0.45818,0 0.45819,0 0,0.91637 0,0.91638 0.45818,0 0.45819,0 0,0.91637 0,0.91637 0.45819,0 0.45818,0 0,-0.45818 0,-0.45819 0.45819,0 0.45819,0 0,-0.45819 0,-0.45818 -0.45819,0 -0.45819,0 0,-0.45819 0,-0.45819 -0.45818,0 -0.45819,0 0,-0.45818 0,-0.45819 -0.45819,0 -0.45818,0 0,-0.45818 0,-0.45819 0.91637,0 0.91637,0 0,-0.91637 0,-0.91638 -0.45818,0 -0.45819,0 0,0.45819 0,0.45819 -0.45819,0 -0.45818,0 0,0.45818 0,0.45819 -0.45819,0 -0.45818,0 0,0.45819 0,0.45818 -0.45819,0 -0.45819,0 0,-0.45818 0,-0.45819 -0.45818,0 -0.45819,0 0,0.45819 0,0.45818 -0.45819,0 -0.45818,0 0,0.45819 0,0.45818 -0.45819,0 -0.45818,0 0,-0.45818 0,-0.45819 -0.45819,0 -0.45819,0 0,0.91637 0,0.91638 -0.45818,0 -0.45819,0 0,0.45818 0,0.45819 -0.91637,0 -0.91637,0 0,0.45819 0,0.45818 0.91637,0 z m 5.04005,-1.83274 -0.45819,0 0,-0.91638 0,-0.91637 0.45819,0 0.45818,0 0,0.91637 0,0.91638 -0.45818,0 z m 0,-5.49824 0.45818,0 0,-0.45818 0,-0.45819 -0.45818,0 -0.45819,0 0,0.45819 0,0.45818 0.45819,0 z m 7.33098,10.0801 -0.45819,0 0,-0.45819 0,-0.45818 -0.45819,0 -0.45818,0 0,-0.45819 0,-0.45819 0.45818,0 0.45819,0 0,0.45819 0,0.45819 0.45819,0 0.45818,0 0,0.45818 0,0.45819 -0.45818,0 z m -15.57834,-5.49824 -3.2073,0 0,-3.2073 0,-3.2073 3.2073,0 3.20731,0 0,3.2073 0,3.2073 -3.20731,0 z m 0,-0.91637 2.29094,0 0,-2.29093 0,-2.29093 -2.29094,0 -2.29093,0 0,2.29093 0,2.29093 2.29093,0 z m 0,-0.91637 -1.37455,0 0,-1.37456 0,-1.37456 1.37455,0 1.37456,0 0,1.37456 0,1.37456 -1.37456,0 z m 20.1602,1.83274 -3.2073,0 0,-3.2073 0,-3.2073 3.2073,0 3.2073,0 0,3.2073 0,3.2073 -3.2073,0 z m 0,-0.91637 2.29093,0 0,-2.29093 0,-2.29093 -2.29093,0 -2.29093,0 0,2.29093 0,2.29093 2.29093,0 z m 0,-0.91637 -1.37456,0 0,-1.37456 0,-1.37456 1.37456,0 1.37456,0 0,1.37456 0,1.37456 -1.37456,0 z"
       id="path3131"
       inkscape:connector-curvature="0" />
  </g>
</svg>
