999
DXF created by Inkscape
  0
SECTION
  2
HEADER
  9
$ACADVER
  1
AC1014
  9
$HANDSEED
  5
FFFF
  9
$MEASUREMENT
 70
     1
  0
ENDSEC
  0
SECTION
  2
TABLES
  0
TABLE
  2
VPORT
  5
8
330
0
100
AcDbSymbolTable
 70
     4
  0
VPORT
  5
2E
330
8
100
AcDbSymbolTableRecord
100
AcDbViewportTableRecord
  2
*ACTIVE
 70
     0
 10
0.0
 20
0.0
 11
1.0
 21
1.0
 12
210.0
 22
148.5
 13
0.0
 23
0.0
 14
10.0
 24
10.0
 15
10.0
 25
10.0
 16
0.0
 26
0.0
 36
1.0
 17
0.0
 27
0.0
 37
0.0
 40
341.0
 41
1.24
 42
50.0
 43
0.0
 44
0.0
 50
0.0
 51
0.0
 71
     0
 72
   100
 73
     1
 74
     3
 75
     0
 76
     0
 77
     0
 78
     0
  0
ENDTAB
  0
TABLE
  2
LTYPE
  5
5
330
0
100
AcDbSymbolTable
 70
     1
  0
LTYPE
  5
14
330
5
100
AcDbSymbolTableRecord
100
AcDbLinetypeTableRecord
  2
BYBLOCK
 70
     0
  3

 72
    65
 73
     0
 40
0.0
  0
LTYPE
  5
15
330
5
100
AcDbSymbolTableRecord
100
AcDbLinetypeTableRecord
  2
BYLAYER
 70
     0
  3

 72
    65
 73
     0
 40
0.0
  0
LTYPE
  5
16
330
5
100
AcDbSymbolTableRecord
100
AcDbLinetypeTableRecord
  2
CONTINUOUS
 70
     0
  3
Solid line
 72
    65
 73
     0
 40
0.0
  0
ENDTAB
  0
TABLE
  2
LAYER
  5
2
100
AcDbSymbolTable
 70
2
  0
LAYER
  5
50
100
AcDbSymbolTableRecord
100
AcDbLayerTableRecord
  2
0
 70
0
  6
CONTINUOUS
  0
LAYER
  5
51
100
AcDbSymbolTableRecord
100
AcDbLayerTableRecord
  2
Vrstva_1
 70
0
  6
CONTINUOUS
  0
ENDTAB
  0
TABLE
  2
STYLE
  5
3
330
0
100
AcDbSymbolTable
 70
     1
  0
STYLE
  5
11
330
3
100
AcDbSymbolTableRecord
100
AcDbTextStyleTableRecord
  2
STANDARD
 70
     0
 40
0.0
 41
1.0
 50
0.0
 71
     0
 42
2.5
  3
txt
  4

  0
ENDTAB
  0
TABLE
  2
VIEW
  5
6
330
0
100
AcDbSymbolTable
 70
     0
  0
ENDTAB
  0
TABLE
  2
UCS
  5
7
330
0
100
AcDbSymbolTable
 70
     0
  0
ENDTAB
  0
TABLE
  2
APPID
  5
9
330
0
100
AcDbSymbolTable
 70
     2
  0
APPID
  5
12
330
9
100
AcDbSymbolTableRecord
100
AcDbRegAppTableRecord
  2
ACAD
 70
     0
  0
ENDTAB
  0
TABLE
  2
DIMSTYLE
  5
A
330
0
100
AcDbSymbolTable
 70
     1
  0
DIMSTYLE
105
27
330
A
100
AcDbSymbolTableRecord
100
AcDbDimStyleTableRecord
  2
ISO-25
 70
     0
  3

  4

  5

  6

  7

 40
1.0
 41
2.5
 42
0.625
 43
3.75
 44
1.25
 45
0.0
 46
0.0
 47
0.0
 48
0.0
140
2.5
141
2.5
142
0.0
143
0.03937007874016
144
1.0
145
0.0
146
1.0
147
0.625
 71
     0
 72
     0
 73
     0
 74
     0
 75
     0
 76
     0
 77
     1
 78
     8
170
     0
171
     3
172
     1
173
     0
174
     0
175
     0
176
     0
177
     0
178
     0
270
     2
271
     2
272
     2
273
     2
274
     3
340
11
275
     0
280
     0
281
     0
282
     0
283
     0
284
     8
285
     0
286
     0
287
     3
288
     0
  0
ENDTAB
  0
TABLE
  2
BLOCK_RECORD
  5
1
330
0
100
AcDbSymbolTable
 70
     1
  0
BLOCK_RECORD
  5
1F
330
1
100
AcDbSymbolTableRecord
100
AcDbBlockTableRecord
  2
*MODEL_SPACE
  0
BLOCK_RECORD
  5
1B
330
1
100
AcDbSymbolTableRecord
100
AcDbBlockTableRecord
  2
*PAPER_SPACE
  0
ENDTAB
  0
ENDSEC
  0
SECTION
  2
BLOCKS
  0
BLOCK
  5
20
330
1F
100
AcDbEntity
  8
0
100
AcDbBlockBegin
  2
*MODEL_SPACE
 70
     0
 10
0.0
 20
0.0
 30
0.0
  3
*MODEL_SPACE
  1

  0
ENDBLK
  5
21
330
1F
100
AcDbEntity
  8
0
100
AcDbBlockEnd
  0
BLOCK
  5
1C
330
1B
100
AcDbEntity
 67
     1
  8
0
100
AcDbBlockBegin
  2
*PAPER_SPACE
  1

  0
ENDBLK
  5
1D
330
1B
100
AcDbEntity
 67
     1
  8
0
100
AcDbBlockEnd
  0
ENDSEC
  0
SECTION
  2
ENTITIES
  0
LWPOLYLINE
  5
100
100
AcDbEntity
  8
Vrstva_1
 62
7
100
AcDbPolyline
 90
10
 70
0
 10
98.434666
 20
124.802137
 30
0.0
 10
82.771332
 20
124.802137
 30
0.0
 10
82.771332
 20
140.465470
 30
0.0
 10
82.771332
 20
156.128803
 30
0.0
 10
98.434666
 20
156.128803
 30
0.0
 10
114.097999
 20
156.128803
 30
0.0
 10
114.097999
 20
140.465470
 30
0.0
 10
114.097999
 20
124.802137
 30
0.0
 10
98.434666
 20
124.802137
 30
0.0
 10
98.434666
 20
124.802137
 30
0.0
  0
LWPOLYLINE
  5
101
100
AcDbEntity
  8
Vrstva_1
 62
7
100
AcDbPolyline
 90
10
 70
0
 10
89.121332
 20
128.188803
 30
0.0
 10
92.084666
 20
128.188803
 30
0.0
 10
92.084666
 20
131.152137
 30
0.0
 10
92.084666
 20
134.115470
 30
0.0
 10
89.121332
 20
134.115470
 30
0.0
 10
86.157999
 20
134.115470
 30
0.0
 10
86.157999
 20
131.152137
 30
0.0
 10
86.157999
 20
128.188803
 30
0.0
 10
89.121332
 20
128.188803
 30
0.0
 10
89.121332
 20
128.188803
 30
0.0
  0
LWPOLYLINE
  5
102
100
AcDbEntity
  8
Vrstva_1
 62
7
100
AcDbPolyline
 90
10
 70
0
 10
89.121332
 20
129.035470
 30
0.0
 10
87.004666
 20
129.035470
 30
0.0
 10
87.004666
 20
131.152137
 30
0.0
 10
87.004666
 20
133.268803
 30
0.0
 10
89.121332
 20
133.268803
 30
0.0
 10
91.237999
 20
133.268803
 30
0.0
 10
91.237999
 20
131.152137
 30
0.0
 10
91.237999
 20
129.035470
 30
0.0
 10
89.121332
 20
129.035470
 30
0.0
 10
89.121332
 20
129.035470
 30
0.0
  0
LWPOLYLINE
  5
103
100
AcDbEntity
  8
Vrstva_1
 62
7
100
AcDbPolyline
 90
10
 70
0
 10
89.121332
 20
129.882137
 30
0.0
 10
90.391332
 20
129.882137
 30
0.0
 10
90.391332
 20
131.152137
 30
0.0
 10
90.391332
 20
132.422137
 30
0.0
 10
89.121332
 20
132.422137
 30
0.0
 10
87.851332
 20
132.422137
 30
0.0
 10
87.851332
 20
131.152137
 30
0.0
 10
87.851332
 20
129.882137
 30
0.0
 10
89.121332
 20
129.882137
 30
0.0
 10
89.121332
 20
129.882137
 30
0.0
  0
LWPOLYLINE
  5
104
100
AcDbEntity
  8
Vrstva_1
 62
7
100
AcDbPolyline
 90
322
 70
0
 10
93.354666
 20
128.188803
 30
0.0
 10
93.777999
 20
128.188803
 30
0.0
 10
93.777999
 20
128.612137
 30
0.0
 10
93.777999
 20
129.035470
 30
0.0
 10
94.201332
 20
129.035470
 30
0.0
 10
94.624666
 20
129.035470
 30
0.0
 10
94.624666
 20
128.612137
 30
0.0
 10
94.624666
 20
128.188803
 30
0.0
 10
95.894666
 20
128.188803
 30
0.0
 10
97.164666
 20
128.188803
 30
0.0
 10
97.164666
 20
128.612137
 30
0.0
 10
97.164666
 20
129.035470
 30
0.0
 10
97.587999
 20
129.035470
 30
0.0
 10
98.011332
 20
129.035470
 30
0.0
 10
98.011332
 20
128.612137
 30
0.0
 10
98.011332
 20
128.188803
 30
0.0
 10
100.974666
 20
128.188803
 30
0.0
 10
103.937999
 20
128.188803
 30
0.0
 10
103.937999
 20
129.035470
 30
0.0
 10
103.937999
 20
129.882137
 30
0.0
 10
103.514666
 20
129.882137
 30
0.0
 10
103.091332
 20
129.882137
 30
0.0
 10
103.091332
 20
130.728803
 30
0.0
 10
103.091332
 20
131.575470
 30
0.0
 10
104.784666
 20
131.575470
 30
0.0
 10
106.477999
 20
131.575470
 30
0.0
 10
106.477999
 20
131.152137
 30
0.0
 10
106.477999
 20
130.728803
 30
0.0
 10
107.324666
 20
130.728803
 30
0.0
 10
108.171332
 20
130.728803
 30
0.0
 10
108.171332
 20
130.305470
 30
0.0
 10
108.171332
 20
129.882137
 30
0.0
 10
108.594666
 20
129.882137
 30
0.0
 10
109.017999
 20
129.882137
 30
0.0
 10
109.017999
 20
130.305470
 30
0.0
 10
109.017999
 20
130.728803
 30
0.0
 10
109.441332
 20
130.728803
 30
0.0
 10
109.864666
 20
130.728803
 30
0.0
 10
109.864666
 20
130.305470
 30
0.0
 10
109.864666
 20
129.882137
 30
0.0
 10
109.441332
 20
129.882137
 30
0.0
 10
109.017999
 20
129.882137
 30
0.0
 10
109.017999
 20
129.035470
 30
0.0
 10
109.017999
 20
128.188803
 30
0.0
 10
109.441332
 20
128.188803
 30
0.0
 10
109.864666
 20
128.188803
 30
0.0
 10
109.864666
 20
129.035470
 30
0.0
 10
109.864666
 20
129.882137
 30
0.0
 10
110.287999
 20
129.882137
 30
0.0
 10
110.711332
 20
129.882137
 30
0.0
 10
110.711332
 20
130.305470
 30
0.0
 10
110.711332
 20
130.728803
 30
0.0
 10
110.287999
 20
130.728803
 30
0.0
 10
109.864666
 20
130.728803
 30
0.0
 10
109.864666
 20
131.152137
 30
0.0
 10
109.864666
 20
131.575470
 30
0.0
 10
110.287999
 20
131.575470
 30
0.0
 10
110.711332
 20
131.575470
 30
0.0
 10
110.711332
 20
132.422137
 30
0.0
 10
110.711332
 20
133.268803
 30
0.0
 10
110.287999
 20
133.268803
 30
0.0
 10
109.864666
 20
133.268803
 30
0.0
 10
109.864666
 20
133.692137
 30
0.0
 10
109.864666
 20
134.115470
 30
0.0
 10
110.287999
 20
134.115470
 30
0.0
 10
110.711332
 20
134.115470
 30
0.0
 10
110.711332
 20
134.538803
 30
0.0
 10
110.711332
 20
134.962137
 30
0.0
 10
109.864666
 20
134.962137
 30
0.0
 10
109.017999
 20
134.962137
 30
0.0
 10
109.017999
 20
136.232137
 30
0.0
 10
109.017999
 20
137.502137
 30
0.0
 10
109.441332
 20
137.502137
 30
0.0
 10
109.864666
 20
137.502137
 30
0.0
 10
109.864666
 20
138.772137
 30
0.0
 10
109.864666
 20
140.042137
 30
0.0
 10
110.287999
 20
140.042137
 30
0.0
 10
110.711332
 20
140.042137
 30
0.0
 10
110.711332
 20
140.888803
 30
0.0
 10
110.711332
 20
141.735470
 30
0.0
 10
109.864666
 20
141.735470
 30
0.0
 10
109.017999
 20
141.735470
 30
0.0
 10
109.017999
 20
141.312137
 30
0.0
 10
109.017999
 20
140.888803
 30
0.0
 10
107.747999
 20
140.888803
 30
0.0
 10
106.477999
 20
140.888803
 30
0.0
 10
106.477999
 20
140.465470
 30
0.0
 10
106.477999
 20
140.042137
 30
0.0
 10
106.054666
 20
140.042137
 30
0.0
 10
105.631332
 20
140.042137
 30
0.0
 10
105.631332
 20
140.888803
 30
0.0
 10
105.631332
 20
141.735470
 30
0.0
 10
105.207999
 20
141.735470
 30
0.0
 10
104.784666
 20
141.735470
 30
0.0
 10
104.784666
 20
140.888803
 30
0.0
 10
104.784666
 20
140.042137
 30
0.0
 10
105.207999
 20
140.042137
 30
0.0
 10
105.631332
 20
140.042137
 30
0.0
 10
105.631332
 20
139.195470
 30
0.0
 10
105.631332
 20
138.348803
 30
0.0
 10
106.477999
 20
138.348803
 30
0.0
 10
107.324666
 20
138.348803
 30
0.0
 10
107.324666
 20
138.772137
 30
0.0
 10
107.324666
 20
139.195470
 30
0.0
 10
106.901332
 20
139.195470
 30
0.0
 10
106.477999
 20
139.195470
 30
0.0
 10
106.477999
 20
139.618803
 30
0.0
 10
106.477999
 20
140.042137
 30
0.0
 10
107.747999
 20
140.042137
 30
0.0
 10
109.017999
 20
140.042137
 30
0.0
 10
109.017999
 20
139.195470
 30
0.0
 10
109.017999
 20
138.348803
 30
0.0
 10
108.594666
 20
138.348803
 30
0.0
 10
108.171332
 20
138.348803
 30
0.0
 10
108.171332
 20
137.925470
 30
0.0
 10
108.171332
 20
137.502137
 30
0.0
 10
107.747999
 20
137.502137
 30
0.0
 10
107.324666
 20
137.502137
 30
0.0
 10
107.324666
 20
137.078803
 30
0.0
 10
107.324666
 20
136.655470
 30
0.0
 10
107.747999
 20
136.655470
 30
0.0
 10
108.171332
 20
136.655470
 30
0.0
 10
108.171332
 20
136.232137
 30
0.0
 10
108.171332
 20
135.808803
 30
0.0
 10
106.901332
 20
135.808803
 30
0.0
 10
105.631332
 20
135.808803
 30
0.0
 10
105.631332
 20
136.232137
 30
0.0
 10
105.631332
 20
136.655470
 30
0.0
 10
106.054666
 20
136.655470
 30
0.0
 10
106.477999
 20
136.655470
 30
0.0
 10
106.477999
 20
137.078803
 30
0.0
 10
106.477999
 20
137.502137
 30
0.0
 10
106.054666
 20
137.502137
 30
0.0
 10
105.631332
 20
137.502137
 30
0.0
 10
105.631332
 20
137.078803
 30
0.0
 10
105.631332
 20
136.655470
 30
0.0
 10
105.207999
 20
136.655470
 30
0.0
 10
104.784666
 20
136.655470
 30
0.0
 10
104.784666
 20
137.078803
 30
0.0
 10
104.784666
 20
137.502137
 30
0.0
 10
104.361332
 20
137.502137
 30
0.0
 10
103.937999
 20
137.502137
 30
0.0
 10
103.937999
 20
137.078803
 30
0.0
 10
103.937999
 20
136.655470
 30
0.0
 10
103.091332
 20
136.655470
 30
0.0
 10
102.244666
 20
136.655470
 30
0.0
 10
102.244666
 20
136.232137
 30
0.0
 10
102.244666
 20
135.808803
 30
0.0
 10
102.667999
 20
135.808803
 30
0.0
 10
103.091332
 20
135.808803
 30
0.0
 10
103.091332
 20
135.385470
 30
0.0
 10
103.091332
 20
134.962137
 30
0.0
 10
102.667999
 20
134.962137
 30
0.0
 10
102.244666
 20
134.962137
 30
0.0
 10
102.244666
 20
135.385470
 30
0.0
 10
102.244666
 20
135.808803
 30
0.0
 10
101.821332
 20
135.808803
 30
0.0
 10
101.397999
 20
135.808803
 30
0.0
 10
101.397999
 20
137.078803
 30
0.0
 10
101.397999
 20
138.348803
 30
0.0
 10
103.091332
 20
138.348803
 30
0.0
 10
104.784666
 20
138.348803
 30
0.0
 10
104.784666
 20
138.772137
 30
0.0
 10
104.784666
 20
139.195470
 30
0.0
 10
104.361332
 20
139.195470
 30
0.0
 10
103.937999
 20
139.195470
 30
0.0
 10
103.937999
 20
140.042137
 30
0.0
 10
103.937999
 20
140.888803
 30
0.0
 10
103.091332
 20
140.888803
 30
0.0
 10
102.244666
 20
140.888803
 30
0.0
 10
102.244666
 20
140.042137
 30
0.0
 10
102.244666
 20
139.195470
 30
0.0
 10
101.821332
 20
139.195470
 30
0.0
 10
101.397999
 20
139.195470
 30
0.0
 10
101.397999
 20
138.772137
 30
0.0
 10
101.397999
 20
138.348803
 30
0.0
 10
100.974666
 20
138.348803
 30
0.0
 10
100.551332
 20
138.348803
 30
0.0
 10
100.551332
 20
138.772137
 30
0.0
 10
100.551332
 20
139.195470
 30
0.0
 10
100.127999
 20
139.195470
 30
0.0
 10
99.704666
 20
139.195470
 30
0.0
 10
99.704666
 20
140.042137
 30
0.0
 10
99.704666
 20
140.888803
 30
0.0
 10
100.127999
 20
140.888803
 30
0.0
 10
100.551332
 20
140.888803
 30
0.0
 10
100.551332
 20
141.312137
 30
0.0
 10
100.551332
 20
141.735470
 30
0.0
 10
100.974666
 20
141.735470
 30
0.0
 10
101.397999
 20
141.735470
 30
0.0
 10
101.397999
 20
142.158803
 30
0.0
 10
101.397999
 20
142.582137
 30
0.0
 10
100.974666
 20
142.582137
 30
0.0
 10
100.551332
 20
142.582137
 30
0.0
 10
100.551332
 20
142.158803
 30
0.0
 10
100.551332
 20
141.735470
 30
0.0
 10
100.127999
 20
141.735470
 30
0.0
 10
99.704666
 20
141.735470
 30
0.0
 10
99.704666
 20
141.312137
 30
0.0
 10
99.704666
 20
140.888803
 30
0.0
 10
99.281332
 20
140.888803
 30
0.0
 10
98.857999
 20
140.888803
 30
0.0
 10
98.857999
 20
140.465470
 30
0.0
 10
98.857999
 20
140.042137
 30
0.0
 10
98.434666
 20
140.042137
 30
0.0
 10
98.011332
 20
140.042137
 30
0.0
 10
98.011332
 20
138.772137
 30
0.0
 10
98.011332
 20
137.502137
 30
0.0
 10
97.587999
 20
137.502137
 30
0.0
 10
97.164666
 20
137.502137
 30
0.0
 10
97.164666
 20
138.772137
 30
0.0
 10
97.164666
 20
140.042137
 30
0.0
 10
97.587999
 20
140.042137
 30
0.0
 10
98.011332
 20
140.042137
 30
0.0
 10
98.011332
 20
140.465470
 30
0.0
 10
98.011332
 20
140.888803
 30
0.0
 10
97.164666
 20
140.888803
 30
0.0
 10
96.317999
 20
140.888803
 30
0.0
 10
96.317999
 20
140.465470
 30
0.0
 10
96.317999
 20
140.042137
 30
0.0
 10
95.894666
 20
140.042137
 30
0.0
 10
95.471332
 20
140.042137
 30
0.0
 10
95.471332
 20
139.618803
 30
0.0
 10
95.471332
 20
139.195470
 30
0.0
 10
95.894666
 20
139.195470
 30
0.0
 10
96.317999
 20
139.195470
 30
0.0
 10
96.317999
 20
137.925470
 30
0.0
 10
96.317999
 20
136.655470
 30
0.0
 10
96.741332
 20
136.655470
 30
0.0
 10
97.164666
 20
136.655470
 30
0.0
 10
97.164666
 20
136.232137
 30
0.0
 10
97.164666
 20
135.808803
 30
0.0
 10
95.894666
 20
135.808803
 30
0.0
 10
94.624666
 20
135.808803
 30
0.0
 10
94.624666
 20
137.925470
 30
0.0
 10
94.624666
 20
140.042137
 30
0.0
 10
95.047999
 20
140.042137
 30
0.0
 10
95.471332
 20
140.042137
 30
0.0
 10
95.471332
 20
140.465470
 30
0.0
 10
95.471332
 20
140.888803
 30
0.0
 10
95.894666
 20
140.888803
 30
0.0
 10
96.317999
 20
140.888803
 30
0.0
 10
96.317999
 20
141.312137
 30
0.0
 10
96.317999
 20
141.735470
 30
0.0
 10
96.741332
 20
141.735470
 30
0.0
 10
97.164666
 20
141.735470
 30
0.0
 10
97.164666
 20
142.158803
 30
0.0
 10
97.164666
 20
142.582137
 30
0.0
 10
95.471332
 20
142.582137
 30
0.0
 10
93.777999
 20
142.582137
 30
0.0
 10
93.777999
 20
142.158803
 30
0.0
 10
93.777999
 20
141.735470
 30
0.0
 10
94.201332
 20
141.735470
 30
0.0
 10
94.624666
 20
141.735470
 30
0.0
 10
94.624666
 20
141.312137
 30
0.0
 10
94.624666
 20
140.888803
 30
0.0
 10
94.201332
 20
140.888803
 30
0.0
 10
93.777999
 20
140.888803
 30
0.0
 10
93.777999
 20
140.042137
 30
0.0
 10
93.777999
 20
139.195470
 30
0.0
 10
92.507999
 20
139.195470
 30
0.0
 10
91.237999
 20
139.195470
 30
0.0
 10
91.237999
 20
138.772137
 30
0.0
 10
91.237999
 20
138.348803
 30
0.0
 10
91.661332
 20
138.348803
 30
0.0
 10
92.084666
 20
138.348803
 30
0.0
 10
92.084666
 20
137.925470
 30
0.0
 10
92.084666
 20
137.502137
 30
0.0
 10
91.661332
 20
137.502137
 30
0.0
 10
91.237999
 20
137.502137
 30
0.0
 10
91.237999
 20
137.078803
 30
0.0
 10
91.237999
 20
136.655470
 30
0.0
 10
91.661332
 20
136.655470
 30
0.0
 10
92.084666
 20
136.655470
 30
0.0
 10
92.084666
 20
136.232137
 30
0.0
 10
92.084666
 20
135.808803
 30
0.0
 10
90.814666
 20
135.808803
 30
0.0
 10
89.544666
 20
135.808803
 30
0.0
 10
89.544666
 20
136.232137
 30
0.0
 10
89.544666
 20
136.655470
 30
0.0
 10
89.121332
 20
136.655470
 30
0.0
 10
88.697999
 20
136.655470
 30
0.0
 10
88.697999
 20
137.078803
 30
0.0
 10
88.697999
 20
137.502137
 30
0.0
 10
88.274666
 20
137.502137
 30
0.0
 10
87.851332
 20
137.502137
 30
0.0
 10
87.851332
 20
136.655470
 30
0.0
 10
87.851332
 20
135.808803
 30
0.0
 10
87.427999
 20
135.808803
 30
0.0
 10
87.004666
 20
135.808803
 30
0.0
 10
87.004666
 20
135.385470
 30
0.0
 10
87.004666
 20
134.962137
 30
0.0
 10
87.851332
 20
134.962137
 30
0.0
 10
88.697999
 20
134.962137
 30
0.0
 10
88.697999
 20
135.385470
 30
0.0
 10
88.697999
 20
135.808803
 30
0.0
 10
89.121332
 20
135.808803
 30
0.0
 10
89.544666
 20
135.808803
 30
0.0
 10
89.544666
 20
135.385470
 30
0.0
 10
89.544666
 20
134.962137
 30
0.0
 10
91.237999
 20
134.962137
 30
0.0
 10
92.931332
 20
134.962137
 30
0.0
 10
92.931332
 20
133.692137
 30
0.0
 10
92.931332
 20
132.422137
 30
0.0
 10
93.354666
 20
132.422137
 30
0.0
 10
93.777999
 20
132.422137
 30
0.0
 10
93.777999
 20
131.998803
 30
0.0
 10
93.777999
 20
131.575470
 30
0.0
 10
93.354666
 20
131.575470
 30
0.0
 10
92.931332
 20
131.575470
 30
0.0
 10
92.931332
 20
130.728803
 30
0.0
 10
92.931332
 20
129.882137
 30
0.0
 10
93.354666
 20
129.882137
 30
0.0
 10
93.777999
 20
129.882137
 30
0.0
 10
93.777999
 20
129.458803
 30
0.0
 10
93.777999
 20
129.035470
 30
0.0
 10
93.354666
 20
129.035470
 30
0.0
 10
92.931332
 20
129.035470
 30
0.0
 10
92.931332
 20
128.612137
 30
0.0
 10
92.931332
 20
128.188803
 30
0.0
 10
93.354666
 20
128.188803
 30
0.0
 10
93.354666
 20
128.188803
 30
0.0
  0
LWPOLYLINE
  5
105
100
AcDbEntity
  8
Vrstva_1
 62
7
100
AcDbPolyline
 90
122
 70
0
 10
95.047999
 20
129.035470
 30
0.0
 10
94.624666
 20
129.035470
 30
0.0
 10
94.624666
 20
129.882137
 30
0.0
 10
94.624666
 20
130.728803
 30
0.0
 10
94.201332
 20
130.728803
 30
0.0
 10
93.777999
 20
130.728803
 30
0.0
 10
93.777999
 20
131.152137
 30
0.0
 10
93.777999
 20
131.575470
 30
0.0
 10
94.201332
 20
131.575470
 30
0.0
 10
94.624666
 20
131.575470
 30
0.0
 10
94.624666
 20
131.998803
 30
0.0
 10
94.624666
 20
132.422137
 30
0.0
 10
94.201332
 20
132.422137
 30
0.0
 10
93.777999
 20
132.422137
 30
0.0
 10
93.777999
 20
132.845470
 30
0.0
 10
93.777999
 20
133.268803
 30
0.0
 10
94.201332
 20
133.268803
 30
0.0
 10
94.624666
 20
133.268803
 30
0.0
 10
94.624666
 20
133.692137
 30
0.0
 10
94.624666
 20
134.115470
 30
0.0
 10
94.201332
 20
134.115470
 30
0.0
 10
93.777999
 20
134.115470
 30
0.0
 10
93.777999
 20
134.538803
 30
0.0
 10
93.777999
 20
134.962137
 30
0.0
 10
94.201332
 20
134.962137
 30
0.0
 10
94.624666
 20
134.962137
 30
0.0
 10
94.624666
 20
134.538803
 30
0.0
 10
94.624666
 20
134.115470
 30
0.0
 10
95.047999
 20
134.115470
 30
0.0
 10
95.471332
 20
134.115470
 30
0.0
 10
95.471332
 20
134.538803
 30
0.0
 10
95.471332
 20
134.962137
 30
0.0
 10
95.894666
 20
134.962137
 30
0.0
 10
96.317999
 20
134.962137
 30
0.0
 10
96.317999
 20
134.538803
 30
0.0
 10
96.317999
 20
134.115470
 30
0.0
 10
95.894666
 20
134.115470
 30
0.0
 10
95.471332
 20
134.115470
 30
0.0
 10
95.471332
 20
133.268803
 30
0.0
 10
95.471332
 20
132.422137
 30
0.0
 10
95.894666
 20
132.422137
 30
0.0
 10
96.317999
 20
132.422137
 30
0.0
 10
96.317999
 20
132.845470
 30
0.0
 10
96.317999
 20
133.268803
 30
0.0
 10
96.741332
 20
133.268803
 30
0.0
 10
97.164666
 20
133.268803
 30
0.0
 10
97.164666
 20
134.115470
 30
0.0
 10
97.164666
 20
134.962137
 30
0.0
 10
98.011332
 20
134.962137
 30
0.0
 10
98.857999
 20
134.962137
 30
0.0
 10
98.857999
 20
137.078803
 30
0.0
 10
98.857999
 20
139.195470
 30
0.0
 10
99.281332
 20
139.195470
 30
0.0
 10
99.704666
 20
139.195470
 30
0.0
 10
99.704666
 20
138.772137
 30
0.0
 10
99.704666
 20
138.348803
 30
0.0
 10
100.127999
 20
138.348803
 30
0.0
 10
100.551332
 20
138.348803
 30
0.0
 10
100.551332
 20
137.925470
 30
0.0
 10
100.551332
 20
137.502137
 30
0.0
 10
100.127999
 20
137.502137
 30
0.0
 10
99.704666
 20
137.502137
 30
0.0
 10
99.704666
 20
136.232137
 30
0.0
 10
99.704666
 20
134.962137
 30
0.0
 10
100.127999
 20
134.962137
 30
0.0
 10
100.551332
 20
134.962137
 30
0.0
 10
100.551332
 20
134.538803
 30
0.0
 10
100.551332
 20
134.115470
 30
0.0
 10
101.397999
 20
134.115470
 30
0.0
 10
102.244666
 20
134.115470
 30
0.0
 10
102.244666
 20
133.692137
 30
0.0
 10
102.244666
 20
133.268803
 30
0.0
 10
102.667999
 20
133.268803
 30
0.0
 10
103.091332
 20
133.268803
 30
0.0
 10
103.091332
 20
132.422137
 30
0.0
 10
103.091332
 20
131.575470
 30
0.0
 10
102.667999
 20
131.575470
 30
0.0
 10
102.244666
 20
131.575470
 30
0.0
 10
102.244666
 20
130.728803
 30
0.0
 10
102.244666
 20
129.882137
 30
0.0
 10
102.667999
 20
129.882137
 30
0.0
 10
103.091332
 20
129.882137
 30
0.0
 10
103.091332
 20
129.458803
 30
0.0
 10
103.091332
 20
129.035470
 30
0.0
 10
102.667999
 20
129.035470
 30
0.0
 10
102.244666
 20
129.035470
 30
0.0
 10
102.244666
 20
129.458803
 30
0.0
 10
102.244666
 20
129.882137
 30
0.0
 10
101.821332
 20
129.882137
 30
0.0
 10
101.397999
 20
129.882137
 30
0.0
 10
101.397999
 20
129.458803
 30
0.0
 10
101.397999
 20
129.035470
 30
0.0
 10
100.974666
 20
129.035470
 30
0.0
 10
100.551332
 20
129.035470
 30
0.0
 10
100.551332
 20
129.458803
 30
0.0
 10
100.551332
 20
129.882137
 30
0.0
 10
100.127999
 20
129.882137
 30
0.0
 10
99.704666
 20
129.882137
 30
0.0
 10
99.704666
 20
129.458803
 30
0.0
 10
99.704666
 20
129.035470
 30
0.0
 10
99.281332
 20
129.035470
 30
0.0
 10
98.857999
 20
129.035470
 30
0.0
 10
98.857999
 20
129.458803
 30
0.0
 10
98.857999
 20
129.882137
 30
0.0
 10
98.011332
 20
129.882137
 30
0.0
 10
97.164666
 20
129.882137
 30
0.0
 10
97.164666
 20
130.728803
 30
0.0
 10
97.164666
 20
131.575470
 30
0.0
 10
95.894666
 20
131.575470
 30
0.0
 10
94.624666
 20
131.575470
 30
0.0
 10
94.624666
 20
131.152137
 30
0.0
 10
94.624666
 20
130.728803
 30
0.0
 10
95.471332
 20
130.728803
 30
0.0
 10
96.317999
 20
130.728803
 30
0.0
 10
96.317999
 20
130.305470
 30
0.0
 10
96.317999
 20
129.882137
 30
0.0
 10
95.894666
 20
129.882137
 30
0.0
 10
95.471332
 20
129.882137
 30
0.0
 10
95.471332
 20
129.458803
 30
0.0
 10
95.471332
 20
129.035470
 30
0.0
 10
95.047999
 20
129.035470
 30
0.0
 10
95.047999
 20
129.035470
 30
0.0
  0
LWPOLYLINE
  5
106
100
AcDbEntity
  8
Vrstva_1
 62
7
100
AcDbPolyline
 90
10
 70
0
 10
99.281332
 20
129.882137
 30
0.0
 10
99.704666
 20
129.882137
 30
0.0
 10
99.704666
 20
130.728803
 30
0.0
 10
99.704666
 20
131.575470
 30
0.0
 10
99.281332
 20
131.575470
 30
0.0
 10
98.857999
 20
131.575470
 30
0.0
 10
98.857999
 20
130.728803
 30
0.0
 10
98.857999
 20
129.882137
 30
0.0
 10
99.281332
 20
129.882137
 30
0.0
 10
99.281332
 20
129.882137
 30
0.0
  0
LWPOLYLINE
  5
107
100
AcDbEntity
  8
Vrstva_1
 62
7
100
AcDbPolyline
 90
18
 70
0
 10
100.974666
 20
130.728803
 30
0.0
 10
101.397999
 20
130.728803
 30
0.0
 10
101.397999
 20
131.152137
 30
0.0
 10
101.397999
 20
131.575470
 30
0.0
 10
101.821332
 20
131.575470
 30
0.0
 10
102.244666
 20
131.575470
 30
0.0
 10
102.244666
 20
132.422137
 30
0.0
 10
102.244666
 20
133.268803
 30
0.0
 10
101.821332
 20
133.268803
 30
0.0
 10
101.397999
 20
133.268803
 30
0.0
 10
101.397999
 20
132.845470
 30
0.0
 10
101.397999
 20
132.422137
 30
0.0
 10
100.974666
 20
132.422137
 30
0.0
 10
100.551332
 20
132.422137
 30
0.0
 10
100.551332
 20
131.575470
 30
0.0
 10
100.551332
 20
130.728803
 30
0.0
 10
100.974666
 20
130.728803
 30
0.0
 10
100.974666
 20
130.728803
 30
0.0
  0
LWPOLYLINE
  5
108
100
AcDbEntity
  8
Vrstva_1
 62
7
100
AcDbPolyline
 90
18
 70
0
 10
98.011332
 20
132.422137
 30
0.0
 10
98.857999
 20
132.422137
 30
0.0
 10
98.857999
 20
132.845470
 30
0.0
 10
98.857999
 20
133.268803
 30
0.0
 10
99.281332
 20
133.268803
 30
0.0
 10
99.704666
 20
133.268803
 30
0.0
 10
99.704666
 20
133.692137
 30
0.0
 10
99.704666
 20
134.115470
 30
0.0
 10
98.857999
 20
134.115470
 30
0.0
 10
98.011332
 20
134.115470
 30
0.0
 10
98.011332
 20
133.692137
 30
0.0
 10
98.011332
 20
133.268803
 30
0.0
 10
97.587999
 20
133.268803
 30
0.0
 10
97.164666
 20
133.268803
 30
0.0
 10
97.164666
 20
132.845470
 30
0.0
 10
97.164666
 20
132.422137
 30
0.0
 10
98.011332
 20
132.422137
 30
0.0
 10
98.011332
 20
132.422137
 30
0.0
  0
LWPOLYLINE
  5
109
100
AcDbEntity
  8
Vrstva_1
 62
7
100
AcDbPolyline
 90
22
 70
0
 10
109.441332
 20
131.575470
 30
0.0
 10
109.017999
 20
131.575470
 30
0.0
 10
109.017999
 20
131.998803
 30
0.0
 10
109.017999
 20
132.422137
 30
0.0
 10
108.171332
 20
132.422137
 30
0.0
 10
107.324666
 20
132.422137
 30
0.0
 10
107.324666
 20
132.845470
 30
0.0
 10
107.324666
 20
133.268803
 30
0.0
 10
107.747999
 20
133.268803
 30
0.0
 10
108.171332
 20
133.268803
 30
0.0
 10
108.171332
 20
133.692137
 30
0.0
 10
108.171332
 20
134.115470
 30
0.0
 10
108.594666
 20
134.115470
 30
0.0
 10
109.017999
 20
134.115470
 30
0.0
 10
109.017999
 20
133.692137
 30
0.0
 10
109.017999
 20
133.268803
 30
0.0
 10
109.441332
 20
133.268803
 30
0.0
 10
109.864666
 20
133.268803
 30
0.0
 10
109.864666
 20
132.422137
 30
0.0
 10
109.864666
 20
131.575470
 30
0.0
 10
109.441332
 20
131.575470
 30
0.0
 10
109.441332
 20
131.575470
 30
0.0
  0
LWPOLYLINE
  5
10a
100
AcDbEntity
  8
Vrstva_1
 62
7
100
AcDbPolyline
 90
10
 70
0
 10
105.207999
 20
132.422137
 30
0.0
 10
103.937999
 20
132.422137
 30
0.0
 10
103.937999
 20
133.692137
 30
0.0
 10
103.937999
 20
134.962137
 30
0.0
 10
105.207999
 20
134.962137
 30
0.0
 10
106.477999
 20
134.962137
 30
0.0
 10
106.477999
 20
133.692137
 30
0.0
 10
106.477999
 20
132.422137
 30
0.0
 10
105.207999
 20
132.422137
 30
0.0
 10
105.207999
 20
132.422137
 30
0.0
  0
LWPOLYLINE
  5
10b
100
AcDbEntity
  8
Vrstva_1
 62
7
100
AcDbPolyline
 90
10
 70
0
 10
105.207999
 20
133.268803
 30
0.0
 10
105.631332
 20
133.268803
 30
0.0
 10
105.631332
 20
133.692137
 30
0.0
 10
105.631332
 20
134.115470
 30
0.0
 10
105.207999
 20
134.115470
 30
0.0
 10
104.784666
 20
134.115470
 30
0.0
 10
104.784666
 20
133.692137
 30
0.0
 10
104.784666
 20
133.268803
 30
0.0
 10
105.207999
 20
133.268803
 30
0.0
 10
105.207999
 20
133.268803
 30
0.0
  0
LWPOLYLINE
  5
10c
100
AcDbEntity
  8
Vrstva_1
 62
7
100
AcDbPolyline
 90
10
 70
0
 10
93.354666
 20
135.808803
 30
0.0
 10
92.931332
 20
135.808803
 30
0.0
 10
92.931332
 20
136.232137
 30
0.0
 10
92.931332
 20
136.655470
 30
0.0
 10
93.354666
 20
136.655470
 30
0.0
 10
93.777999
 20
136.655470
 30
0.0
 10
93.777999
 20
136.232137
 30
0.0
 10
93.777999
 20
135.808803
 30
0.0
 10
93.354666
 20
135.808803
 30
0.0
 10
93.354666
 20
135.808803
 30
0.0
  0
LWPOLYLINE
  5
10d
100
AcDbEntity
  8
Vrstva_1
 62
7
100
AcDbPolyline
 90
10
 70
0
 10
104.361332
 20
135.808803
 30
0.0
 10
103.937999
 20
135.808803
 30
0.0
 10
103.937999
 20
136.232137
 30
0.0
 10
103.937999
 20
136.655470
 30
0.0
 10
104.361332
 20
136.655470
 30
0.0
 10
104.784666
 20
136.655470
 30
0.0
 10
104.784666
 20
136.232137
 30
0.0
 10
104.784666
 20
135.808803
 30
0.0
 10
104.361332
 20
135.808803
 30
0.0
 10
104.361332
 20
135.808803
 30
0.0
  0
LWPOLYLINE
  5
10e
100
AcDbEntity
  8
Vrstva_1
 62
7
100
AcDbPolyline
 90
18
 70
0
 10
105.207999
 20
128.188803
 30
0.0
 10
105.631332
 20
128.188803
 30
0.0
 10
105.631332
 20
128.612137
 30
0.0
 10
105.631332
 20
129.035470
 30
0.0
 10
106.054666
 20
129.035470
 30
0.0
 10
106.477999
 20
129.035470
 30
0.0
 10
106.477999
 20
129.882137
 30
0.0
 10
106.477999
 20
130.728803
 30
0.0
 10
106.054666
 20
130.728803
 30
0.0
 10
105.631332
 20
130.728803
 30
0.0
 10
105.631332
 20
130.305470
 30
0.0
 10
105.631332
 20
129.882137
 30
0.0
 10
105.207999
 20
129.882137
 30
0.0
 10
104.784666
 20
129.882137
 30
0.0
 10
104.784666
 20
129.035470
 30
0.0
 10
104.784666
 20
128.188803
 30
0.0
 10
105.207999
 20
128.188803
 30
0.0
 10
105.207999
 20
128.188803
 30
0.0
  0
LWPOLYLINE
  5
10f
100
AcDbEntity
  8
Vrstva_1
 62
7
100
AcDbPolyline
 90
10
 70
0
 10
107.747999
 20
128.188803
 30
0.0
 10
108.171332
 20
128.188803
 30
0.0
 10
108.171332
 20
129.035470
 30
0.0
 10
108.171332
 20
129.882137
 30
0.0
 10
107.747999
 20
129.882137
 30
0.0
 10
107.324666
 20
129.882137
 30
0.0
 10
107.324666
 20
129.035470
 30
0.0
 10
107.324666
 20
128.188803
 30
0.0
 10
107.747999
 20
128.188803
 30
0.0
 10
107.747999
 20
128.188803
 30
0.0
  0
LWPOLYLINE
  5
110
100
AcDbEntity
  8
Vrstva_1
 62
7
100
AcDbPolyline
 90
10
 70
0
 10
86.581332
 20
136.655470
 30
0.0
 10
87.004666
 20
136.655470
 30
0.0
 10
87.004666
 20
137.078803
 30
0.0
 10
87.004666
 20
137.502137
 30
0.0
 10
86.581332
 20
137.502137
 30
0.0
 10
86.157999
 20
137.502137
 30
0.0
 10
86.157999
 20
137.078803
 30
0.0
 10
86.157999
 20
136.655470
 30
0.0
 10
86.581332
 20
136.655470
 30
0.0
 10
86.581332
 20
136.655470
 30
0.0
  0
LWPOLYLINE
  5
111
100
AcDbEntity
  8
Vrstva_1
 62
7
100
AcDbPolyline
 90
74
 70
0
 10
89.544666
 20
137.502137
 30
0.0
 10
90.391332
 20
137.502137
 30
0.0
 10
90.391332
 20
138.348803
 30
0.0
 10
90.391332
 20
139.195470
 30
0.0
 10
89.967999
 20
139.195470
 30
0.0
 10
89.544666
 20
139.195470
 30
0.0
 10
89.544666
 20
139.618803
 30
0.0
 10
89.544666
 20
140.042137
 30
0.0
 10
89.121332
 20
140.042137
 30
0.0
 10
88.697999
 20
140.042137
 30
0.0
 10
88.697999
 20
140.465470
 30
0.0
 10
88.697999
 20
140.888803
 30
0.0
 10
89.121332
 20
140.888803
 30
0.0
 10
89.544666
 20
140.888803
 30
0.0
 10
89.544666
 20
141.312137
 30
0.0
 10
89.544666
 20
141.735470
 30
0.0
 10
89.121332
 20
141.735470
 30
0.0
 10
88.697999
 20
141.735470
 30
0.0
 10
88.697999
 20
142.582137
 30
0.0
 10
88.697999
 20
143.428803
 30
0.0
 10
89.121332
 20
143.428803
 30
0.0
 10
89.544666
 20
143.428803
 30
0.0
 10
89.544666
 20
143.852137
 30
0.0
 10
89.544666
 20
144.275470
 30
0.0
 10
88.697999
 20
144.275470
 30
0.0
 10
87.851332
 20
144.275470
 30
0.0
 10
87.851332
 20
144.698803
 30
0.0
 10
87.851332
 20
145.122137
 30
0.0
 10
87.427999
 20
145.122137
 30
0.0
 10
87.004666
 20
145.122137
 30
0.0
 10
87.004666
 20
145.545470
 30
0.0
 10
87.004666
 20
145.968803
 30
0.0
 10
86.581332
 20
145.968803
 30
0.0
 10
86.157999
 20
145.968803
 30
0.0
 10
86.157999
 20
145.122137
 30
0.0
 10
86.157999
 20
144.275470
 30
0.0
 10
86.581332
 20
144.275470
 30
0.0
 10
87.004666
 20
144.275470
 30
0.0
 10
87.004666
 20
143.428803
 30
0.0
 10
87.004666
 20
142.582137
 30
0.0
 10
87.427999
 20
142.582137
 30
0.0
 10
87.851332
 20
142.582137
 30
0.0
 10
87.851332
 20
142.158803
 30
0.0
 10
87.851332
 20
141.735470
 30
0.0
 10
87.427999
 20
141.735470
 30
0.0
 10
87.004666
 20
141.735470
 30
0.0
 10
87.004666
 20
142.158803
 30
0.0
 10
87.004666
 20
142.582137
 30
0.0
 10
86.581332
 20
142.582137
 30
0.0
 10
86.157999
 20
142.582137
 30
0.0
 10
86.157999
 20
141.735470
 30
0.0
 10
86.157999
 20
140.888803
 30
0.0
 10
87.004666
 20
140.888803
 30
0.0
 10
87.851332
 20
140.888803
 30
0.0
 10
87.851332
 20
140.465470
 30
0.0
 10
87.851332
 20
140.042137
 30
0.0
 10
87.004666
 20
140.042137
 30
0.0
 10
86.157999
 20
140.042137
 30
0.0
 10
86.157999
 20
139.195470
 30
0.0
 10
86.157999
 20
138.348803
 30
0.0
 10
86.581332
 20
138.348803
 30
0.0
 10
87.004666
 20
138.348803
 30
0.0
 10
87.004666
 20
138.772137
 30
0.0
 10
87.004666
 20
139.195470
 30
0.0
 10
87.427999
 20
139.195470
 30
0.0
 10
87.851332
 20
139.195470
 30
0.0
 10
87.851332
 20
138.772137
 30
0.0
 10
87.851332
 20
138.348803
 30
0.0
 10
88.274666
 20
138.348803
 30
0.0
 10
88.697999
 20
138.348803
 30
0.0
 10
88.697999
 20
137.925470
 30
0.0
 10
88.697999
 20
137.502137
 30
0.0
 10
89.544666
 20
137.502137
 30
0.0
 10
89.544666
 20
137.502137
 30
0.0
  0
LWPOLYLINE
  5
112
100
AcDbEntity
  8
Vrstva_1
 62
7
100
AcDbPolyline
 90
18
 70
0
 10
90.814666
 20
139.195470
 30
0.0
 10
91.237999
 20
139.195470
 30
0.0
 10
91.237999
 20
139.618803
 30
0.0
 10
91.237999
 20
140.042137
 30
0.0
 10
92.084666
 20
140.042137
 30
0.0
 10
92.931332
 20
140.042137
 30
0.0
 10
92.931332
 20
140.465470
 30
0.0
 10
92.931332
 20
140.888803
 30
0.0
 10
91.237999
 20
140.888803
 30
0.0
 10
89.544666
 20
140.888803
 30
0.0
 10
89.544666
 20
140.465470
 30
0.0
 10
89.544666
 20
140.042137
 30
0.0
 10
89.967999
 20
140.042137
 30
0.0
 10
90.391332
 20
140.042137
 30
0.0
 10
90.391332
 20
139.618803
 30
0.0
 10
90.391332
 20
139.195470
 30
0.0
 10
90.814666
 20
139.195470
 30
0.0
 10
90.814666
 20
139.195470
 30
0.0
  0
LWPOLYLINE
  5
113
100
AcDbEntity
  8
Vrstva_1
 62
7
100
AcDbPolyline
 90
10
 70
0
 10
98.434666
 20
140.888803
 30
0.0
 10
98.857999
 20
140.888803
 30
0.0
 10
98.857999
 20
141.735470
 30
0.0
 10
98.857999
 20
142.582137
 30
0.0
 10
98.434666
 20
142.582137
 30
0.0
 10
98.011332
 20
142.582137
 30
0.0
 10
98.011332
 20
141.735470
 30
0.0
 10
98.011332
 20
140.888803
 30
0.0
 10
98.434666
 20
140.888803
 30
0.0
 10
98.434666
 20
140.888803
 30
0.0
  0
LWPOLYLINE
  5
114
100
AcDbEntity
  8
Vrstva_1
 62
7
100
AcDbPolyline
 90
274
 70
0
 10
91.237999
 20
141.735470
 30
0.0
 10
92.931332
 20
141.735470
 30
0.0
 10
92.931332
 20
142.158803
 30
0.0
 10
92.931332
 20
142.582137
 30
0.0
 10
93.354666
 20
142.582137
 30
0.0
 10
93.777999
 20
142.582137
 30
0.0
 10
93.777999
 20
143.005470
 30
0.0
 10
93.777999
 20
143.428803
 30
0.0
 10
95.894666
 20
143.428803
 30
0.0
 10
98.011332
 20
143.428803
 30
0.0
 10
98.011332
 20
144.698803
 30
0.0
 10
98.011332
 20
145.968803
 30
0.0
 10
98.434666
 20
145.968803
 30
0.0
 10
98.857999
 20
145.968803
 30
0.0
 10
98.857999
 20
145.122137
 30
0.0
 10
98.857999
 20
144.275470
 30
0.0
 10
99.281332
 20
144.275470
 30
0.0
 10
99.704666
 20
144.275470
 30
0.0
 10
99.704666
 20
143.852137
 30
0.0
 10
99.704666
 20
143.428803
 30
0.0
 10
100.974666
 20
143.428803
 30
0.0
 10
102.244666
 20
143.428803
 30
0.0
 10
102.244666
 20
143.852137
 30
0.0
 10
102.244666
 20
144.275470
 30
0.0
 10
102.667999
 20
144.275470
 30
0.0
 10
103.091332
 20
144.275470
 30
0.0
 10
103.091332
 20
143.852137
 30
0.0
 10
103.091332
 20
143.428803
 30
0.0
 10
103.937999
 20
143.428803
 30
0.0
 10
104.784666
 20
143.428803
 30
0.0
 10
104.784666
 20
143.005470
 30
0.0
 10
104.784666
 20
142.582137
 30
0.0
 10
106.054666
 20
142.582137
 30
0.0
 10
107.324666
 20
142.582137
 30
0.0
 10
107.324666
 20
142.158803
 30
0.0
 10
107.324666
 20
141.735470
 30
0.0
 10
108.171332
 20
141.735470
 30
0.0
 10
109.017999
 20
141.735470
 30
0.0
 10
109.017999
 20
142.158803
 30
0.0
 10
109.017999
 20
142.582137
 30
0.0
 10
108.594666
 20
142.582137
 30
0.0
 10
108.171332
 20
142.582137
 30
0.0
 10
108.171332
 20
143.005470
 30
0.0
 10
108.171332
 20
143.428803
 30
0.0
 10
109.017999
 20
143.428803
 30
0.0
 10
109.864666
 20
143.428803
 30
0.0
 10
109.864666
 20
143.005470
 30
0.0
 10
109.864666
 20
142.582137
 30
0.0
 10
110.287999
 20
142.582137
 30
0.0
 10
110.711332
 20
142.582137
 30
0.0
 10
110.711332
 20
143.005470
 30
0.0
 10
110.711332
 20
143.428803
 30
0.0
 10
110.287999
 20
143.428803
 30
0.0
 10
109.864666
 20
143.428803
 30
0.0
 10
109.864666
 20
143.852137
 30
0.0
 10
109.864666
 20
144.275470
 30
0.0
 10
110.287999
 20
144.275470
 30
0.0
 10
110.711332
 20
144.275470
 30
0.0
 10
110.711332
 20
145.122137
 30
0.0
 10
110.711332
 20
145.968803
 30
0.0
 10
109.864666
 20
145.968803
 30
0.0
 10
109.017999
 20
145.968803
 30
0.0
 10
109.017999
 20
145.545470
 30
0.0
 10
109.017999
 20
145.122137
 30
0.0
 10
109.441332
 20
145.122137
 30
0.0
 10
109.864666
 20
145.122137
 30
0.0
 10
109.864666
 20
144.698803
 30
0.0
 10
109.864666
 20
144.275470
 30
0.0
 10
109.017999
 20
144.275470
 30
0.0
 10
108.171332
 20
144.275470
 30
0.0
 10
108.171332
 20
143.852137
 30
0.0
 10
108.171332
 20
143.428803
 30
0.0
 10
106.901332
 20
143.428803
 30
0.0
 10
105.631332
 20
143.428803
 30
0.0
 10
105.631332
 20
143.852137
 30
0.0
 10
105.631332
 20
144.275470
 30
0.0
 10
106.477999
 20
144.275470
 30
0.0
 10
107.324666
 20
144.275470
 30
0.0
 10
107.324666
 20
144.698803
 30
0.0
 10
107.324666
 20
145.122137
 30
0.0
 10
107.747999
 20
145.122137
 30
0.0
 10
108.171332
 20
145.122137
 30
0.0
 10
108.171332
 20
145.545470
 30
0.0
 10
108.171332
 20
145.968803
 30
0.0
 10
107.747999
 20
145.968803
 30
0.0
 10
107.324666
 20
145.968803
 30
0.0
 10
107.324666
 20
145.545470
 30
0.0
 10
107.324666
 20
145.122137
 30
0.0
 10
106.477999
 20
145.122137
 30
0.0
 10
105.631332
 20
145.122137
 30
0.0
 10
105.631332
 20
145.545470
 30
0.0
 10
105.631332
 20
145.968803
 30
0.0
 10
105.207999
 20
145.968803
 30
0.0
 10
104.784666
 20
145.968803
 30
0.0
 10
104.784666
 20
145.545470
 30
0.0
 10
104.784666
 20
145.122137
 30
0.0
 10
103.937999
 20
145.122137
 30
0.0
 10
103.091332
 20
145.122137
 30
0.0
 10
103.091332
 20
145.545470
 30
0.0
 10
103.091332
 20
145.968803
 30
0.0
 10
102.667999
 20
145.968803
 30
0.0
 10
102.244666
 20
145.968803
 30
0.0
 10
102.244666
 20
146.815470
 30
0.0
 10
102.244666
 20
147.662137
 30
0.0
 10
102.667999
 20
147.662137
 30
0.0
 10
103.091332
 20
147.662137
 30
0.0
 10
103.091332
 20
147.238803
 30
0.0
 10
103.091332
 20
146.815470
 30
0.0
 10
103.514666
 20
146.815470
 30
0.0
 10
103.937999
 20
146.815470
 30
0.0
 10
103.937999
 20
147.662137
 30
0.0
 10
103.937999
 20
148.508803
 30
0.0
 10
103.514666
 20
148.508803
 30
0.0
 10
103.091332
 20
148.508803
 30
0.0
 10
103.091332
 20
148.932137
 30
0.0
 10
103.091332
 20
149.355470
 30
0.0
 10
103.514666
 20
149.355470
 30
0.0
 10
103.937999
 20
149.355470
 30
0.0
 10
103.937999
 20
149.778803
 30
0.0
 10
103.937999
 20
150.202137
 30
0.0
 10
103.514666
 20
150.202137
 30
0.0
 10
103.091332
 20
150.202137
 30
0.0
 10
103.091332
 20
149.778803
 30
0.0
 10
103.091332
 20
149.355470
 30
0.0
 10
102.667999
 20
149.355470
 30
0.0
 10
102.244666
 20
149.355470
 30
0.0
 10
102.244666
 20
148.508803
 30
0.0
 10
102.244666
 20
147.662137
 30
0.0
 10
101.821332
 20
147.662137
 30
0.0
 10
101.397999
 20
147.662137
 30
0.0
 10
101.397999
 20
147.238803
 30
0.0
 10
101.397999
 20
146.815470
 30
0.0
 10
100.974666
 20
146.815470
 30
0.0
 10
100.551332
 20
146.815470
 30
0.0
 10
100.551332
 20
147.662137
 30
0.0
 10
100.551332
 20
148.508803
 30
0.0
 10
100.974666
 20
148.508803
 30
0.0
 10
101.397999
 20
148.508803
 30
0.0
 10
101.397999
 20
149.355470
 30
0.0
 10
101.397999
 20
150.202137
 30
0.0
 10
101.821332
 20
150.202137
 30
0.0
 10
102.244666
 20
150.202137
 30
0.0
 10
102.244666
 20
151.048803
 30
0.0
 10
102.244666
 20
151.895470
 30
0.0
 10
102.667999
 20
151.895470
 30
0.0
 10
103.091332
 20
151.895470
 30
0.0
 10
103.091332
 20
151.472137
 30
0.0
 10
103.091332
 20
151.048803
 30
0.0
 10
103.514666
 20
151.048803
 30
0.0
 10
103.937999
 20
151.048803
 30
0.0
 10
103.937999
 20
151.895470
 30
0.0
 10
103.937999
 20
152.742137
 30
0.0
 10
102.244666
 20
152.742137
 30
0.0
 10
100.551332
 20
152.742137
 30
0.0
 10
100.551332
 20
151.895470
 30
0.0
 10
100.551332
 20
151.048803
 30
0.0
 10
100.974666
 20
151.048803
 30
0.0
 10
101.397999
 20
151.048803
 30
0.0
 10
101.397999
 20
150.625470
 30
0.0
 10
101.397999
 20
150.202137
 30
0.0
 10
100.974666
 20
150.202137
 30
0.0
 10
100.551332
 20
150.202137
 30
0.0
 10
100.551332
 20
150.625470
 30
0.0
 10
100.551332
 20
151.048803
 30
0.0
 10
100.127999
 20
151.048803
 30
0.0
 10
99.704666
 20
151.048803
 30
0.0
 10
99.704666
 20
150.625470
 30
0.0
 10
99.704666
 20
150.202137
 30
0.0
 10
99.281332
 20
150.202137
 30
0.0
 10
98.857999
 20
150.202137
 30
0.0
 10
98.857999
 20
149.778803
 30
0.0
 10
98.857999
 20
149.355470
 30
0.0
 10
98.434666
 20
149.355470
 30
0.0
 10
98.011332
 20
149.355470
 30
0.0
 10
98.011332
 20
148.932137
 30
0.0
 10
98.011332
 20
148.508803
 30
0.0
 10
97.587999
 20
148.508803
 30
0.0
 10
97.164666
 20
148.508803
 30
0.0
 10
97.164666
 20
148.932137
 30
0.0
 10
97.164666
 20
149.355470
 30
0.0
 10
95.471332
 20
149.355470
 30
0.0
 10
93.777999
 20
149.355470
 30
0.0
 10
93.777999
 20
149.778803
 30
0.0
 10
93.777999
 20
150.202137
 30
0.0
 10
94.624666
 20
150.202137
 30
0.0
 10
95.471332
 20
150.202137
 30
0.0
 10
95.471332
 20
150.625470
 30
0.0
 10
95.471332
 20
151.048803
 30
0.0
 10
95.894666
 20
151.048803
 30
0.0
 10
96.317999
 20
151.048803
 30
0.0
 10
96.317999
 20
150.625470
 30
0.0
 10
96.317999
 20
150.202137
 30
0.0
 10
96.741332
 20
150.202137
 30
0.0
 10
97.164666
 20
150.202137
 30
0.0
 10
97.164666
 20
150.625470
 30
0.0
 10
97.164666
 20
151.048803
 30
0.0
 10
98.011332
 20
151.048803
 30
0.0
 10
98.857999
 20
151.048803
 30
0.0
 10
98.857999
 20
151.472137
 30
0.0
 10
98.857999
 20
151.895470
 30
0.0
 10
99.281332
 20
151.895470
 30
0.0
 10
99.704666
 20
151.895470
 30
0.0
 10
99.704666
 20
152.318803
 30
0.0
 10
99.704666
 20
152.742137
 30
0.0
 10
98.857999
 20
152.742137
 30
0.0
 10
98.011332
 20
152.742137
 30
0.0
 10
98.011332
 20
152.318803
 30
0.0
 10
98.011332
 20
151.895470
 30
0.0
 10
97.587999
 20
151.895470
 30
0.0
 10
97.164666
 20
151.895470
 30
0.0
 10
97.164666
 20
152.318803
 30
0.0
 10
97.164666
 20
152.742137
 30
0.0
 10
96.741332
 20
152.742137
 30
0.0
 10
96.317999
 20
152.742137
 30
0.0
 10
96.317999
 20
152.318803
 30
0.0
 10
96.317999
 20
151.895470
 30
0.0
 10
95.894666
 20
151.895470
 30
0.0
 10
95.471332
 20
151.895470
 30
0.0
 10
95.471332
 20
151.472137
 30
0.0
 10
95.471332
 20
151.048803
 30
0.0
 10
94.624666
 20
151.048803
 30
0.0
 10
93.777999
 20
151.048803
 30
0.0
 10
93.777999
 20
151.472137
 30
0.0
 10
93.777999
 20
151.895470
 30
0.0
 10
94.201332
 20
151.895470
 30
0.0
 10
94.624666
 20
151.895470
 30
0.0
 10
94.624666
 20
152.318803
 30
0.0
 10
94.624666
 20
152.742137
 30
0.0
 10
93.777999
 20
152.742137
 30
0.0
 10
92.931332
 20
152.742137
 30
0.0
 10
92.931332
 20
151.895470
 30
0.0
 10
92.931332
 20
151.048803
 30
0.0
 10
93.354666
 20
151.048803
 30
0.0
 10
93.777999
 20
151.048803
 30
0.0
 10
93.777999
 20
150.625470
 30
0.0
 10
93.777999
 20
150.202137
 30
0.0
 10
93.354666
 20
150.202137
 30
0.0
 10
92.931332
 20
150.202137
 30
0.0
 10
92.931332
 20
149.778803
 30
0.0
 10
92.931332
 20
149.355470
 30
0.0
 10
93.354666
 20
149.355470
 30
0.0
 10
93.777999
 20
149.355470
 30
0.0
 10
93.777999
 20
148.508803
 30
0.0
 10
93.777999
 20
147.662137
 30
0.0
 10
93.354666
 20
147.662137
 30
0.0
 10
92.931332
 20
147.662137
 30
0.0
 10
92.931332
 20
146.815470
 30
0.0
 10
92.931332
 20
145.968803
 30
0.0
 10
91.661332
 20
145.968803
 30
0.0
 10
90.391332
 20
145.968803
 30
0.0
 10
90.391332
 20
145.545470
 30
0.0
 10
90.391332
 20
145.122137
 30
0.0
 10
89.967999
 20
145.122137
 30
0.0
 10
89.544666
 20
145.122137
 30
0.0
 10
89.544666
 20
145.545470
 30
0.0
 10
89.544666
 20
145.968803
 30
0.0
 10
88.697999
 20
145.968803
 30
0.0
 10
87.851332
 20
145.968803
 30
0.0
 10
87.851332
 20
145.545470
 30
0.0
 10
87.851332
 20
145.122137
 30
0.0
 10
88.697999
 20
145.122137
 30
0.0
 10
89.544666
 20
145.122137
 30
0.0
 10
89.544666
 20
144.698803
 30
0.0
 10
89.544666
 20
144.275470
 30
0.0
 10
89.967999
 20
144.275470
 30
0.0
 10
90.391332
 20
144.275470
 30
0.0
 10
90.391332
 20
143.852137
 30
0.0
 10
90.391332
 20
143.428803
 30
0.0
 10
89.967999
 20
143.428803
 30
0.0
 10
89.544666
 20
143.428803
 30
0.0
 10
89.544666
 20
142.582137
 30
0.0
 10
89.544666
 20
141.735470
 30
0.0
 10
91.237999
 20
141.735470
 30
0.0
 10
91.237999
 20
141.735470
 30
0.0
  0
LWPOLYLINE
  5
115
100
AcDbEntity
  8
Vrstva_1
 62
7
100
AcDbPolyline
 90
10
 70
0
 10
92.084666
 20
142.582137
 30
0.0
 10
91.237999
 20
142.582137
 30
0.0
 10
91.237999
 20
143.005470
 30
0.0
 10
91.237999
 20
143.428803
 30
0.0
 10
92.084666
 20
143.428803
 30
0.0
 10
92.931332
 20
143.428803
 30
0.0
 10
92.931332
 20
143.005470
 30
0.0
 10
92.931332
 20
142.582137
 30
0.0
 10
92.084666
 20
142.582137
 30
0.0
 10
92.084666
 20
142.582137
 30
0.0
  0
LWPOLYLINE
  5
116
100
AcDbEntity
  8
Vrstva_1
 62
7
100
AcDbPolyline
 90
98
 70
0
 10
92.084666
 20
144.275470
 30
0.0
 10
91.237999
 20
144.275470
 30
0.0
 10
91.237999
 20
144.698803
 30
0.0
 10
91.237999
 20
145.122137
 30
0.0
 10
92.084666
 20
145.122137
 30
0.0
 10
92.931332
 20
145.122137
 30
0.0
 10
92.931332
 20
145.545470
 30
0.0
 10
92.931332
 20
145.968803
 30
0.0
 10
93.354666
 20
145.968803
 30
0.0
 10
93.777999
 20
145.968803
 30
0.0
 10
93.777999
 20
146.815470
 30
0.0
 10
93.777999
 20
147.662137
 30
0.0
 10
94.201332
 20
147.662137
 30
0.0
 10
94.624666
 20
147.662137
 30
0.0
 10
94.624666
 20
147.238803
 30
0.0
 10
94.624666
 20
146.815470
 30
0.0
 10
95.047999
 20
146.815470
 30
0.0
 10
95.471332
 20
146.815470
 30
0.0
 10
95.471332
 20
147.238803
 30
0.0
 10
95.471332
 20
147.662137
 30
0.0
 10
95.894666
 20
147.662137
 30
0.0
 10
96.317999
 20
147.662137
 30
0.0
 10
96.317999
 20
148.085470
 30
0.0
 10
96.317999
 20
148.508803
 30
0.0
 10
96.741332
 20
148.508803
 30
0.0
 10
97.164666
 20
148.508803
 30
0.0
 10
97.164666
 20
148.085470
 30
0.0
 10
97.164666
 20
147.662137
 30
0.0
 10
97.587999
 20
147.662137
 30
0.0
 10
98.011332
 20
147.662137
 30
0.0
 10
98.011332
 20
148.085470
 30
0.0
 10
98.011332
 20
148.508803
 30
0.0
 10
98.434666
 20
148.508803
 30
0.0
 10
98.857999
 20
148.508803
 30
0.0
 10
98.857999
 20
148.932137
 30
0.0
 10
98.857999
 20
149.355470
 30
0.0
 10
99.281332
 20
149.355470
 30
0.0
 10
99.704666
 20
149.355470
 30
0.0
 10
99.704666
 20
149.778803
 30
0.0
 10
99.704666
 20
150.202137
 30
0.0
 10
100.127999
 20
150.202137
 30
0.0
 10
100.551332
 20
150.202137
 30
0.0
 10
100.551332
 20
149.355470
 30
0.0
 10
100.551332
 20
148.508803
 30
0.0
 10
99.704666
 20
148.508803
 30
0.0
 10
98.857999
 20
148.508803
 30
0.0
 10
98.857999
 20
148.085470
 30
0.0
 10
98.857999
 20
147.662137
 30
0.0
 10
99.281332
 20
147.662137
 30
0.0
 10
99.704666
 20
147.662137
 30
0.0
 10
99.704666
 20
147.238803
 30
0.0
 10
99.704666
 20
146.815470
 30
0.0
 10
100.127999
 20
146.815470
 30
0.0
 10
100.551332
 20
146.815470
 30
0.0
 10
100.551332
 20
146.392137
 30
0.0
 10
100.551332
 20
145.968803
 30
0.0
 10
100.974666
 20
145.968803
 30
0.0
 10
101.397999
 20
145.968803
 30
0.0
 10
101.397999
 20
145.545470
 30
0.0
 10
101.397999
 20
145.122137
 30
0.0
 10
100.974666
 20
145.122137
 30
0.0
 10
100.551332
 20
145.122137
 30
0.0
 10
100.551332
 20
144.698803
 30
0.0
 10
100.551332
 20
144.275470
 30
0.0
 10
100.127999
 20
144.275470
 30
0.0
 10
99.704666
 20
144.275470
 30
0.0
 10
99.704666
 20
145.122137
 30
0.0
 10
99.704666
 20
145.968803
 30
0.0
 10
99.281332
 20
145.968803
 30
0.0
 10
98.857999
 20
145.968803
 30
0.0
 10
98.857999
 20
146.815470
 30
0.0
 10
98.857999
 20
147.662137
 30
0.0
 10
98.434666
 20
147.662137
 30
0.0
 10
98.011332
 20
147.662137
 30
0.0
 10
98.011332
 20
146.815470
 30
0.0
 10
98.011332
 20
145.968803
 30
0.0
 10
97.587999
 20
145.968803
 30
0.0
 10
97.164666
 20
145.968803
 30
0.0
 10
97.164666
 20
145.122137
 30
0.0
 10
97.164666
 20
144.275470
 30
0.0
 10
96.741332
 20
144.275470
 30
0.0
 10
96.317999
 20
144.275470
 30
0.0
 10
96.317999
 20
144.698803
 30
0.0
 10
96.317999
 20
145.122137
 30
0.0
 10
95.894666
 20
145.122137
 30
0.0
 10
95.471332
 20
145.122137
 30
0.0
 10
95.471332
 20
145.545470
 30
0.0
 10
95.471332
 20
145.968803
 30
0.0
 10
95.047999
 20
145.968803
 30
0.0
 10
94.624666
 20
145.968803
 30
0.0
 10
94.624666
 20
145.545470
 30
0.0
 10
94.624666
 20
145.122137
 30
0.0
 10
93.777999
 20
145.122137
 30
0.0
 10
92.931332
 20
145.122137
 30
0.0
 10
92.931332
 20
144.698803
 30
0.0
 10
92.931332
 20
144.275470
 30
0.0
 10
92.084666
 20
144.275470
 30
0.0
 10
92.084666
 20
144.275470
 30
0.0
  0
LWPOLYLINE
  5
117
100
AcDbEntity
  8
Vrstva_1
 62
7
100
AcDbPolyline
 90
10
 70
0
 10
96.741332
 20
145.968803
 30
0.0
 10
97.164666
 20
145.968803
 30
0.0
 10
97.164666
 20
146.815470
 30
0.0
 10
97.164666
 20
147.662137
 30
0.0
 10
96.741332
 20
147.662137
 30
0.0
 10
96.317999
 20
147.662137
 30
0.0
 10
96.317999
 20
146.815470
 30
0.0
 10
96.317999
 20
145.968803
 30
0.0
 10
96.741332
 20
145.968803
 30
0.0
 10
96.741332
 20
145.968803
 30
0.0
  0
LWPOLYLINE
  5
118
100
AcDbEntity
  8
Vrstva_1
 62
7
100
AcDbPolyline
 90
10
 70
0
 10
96.741332
 20
151.048803
 30
0.0
 10
96.317999
 20
151.048803
 30
0.0
 10
96.317999
 20
151.472137
 30
0.0
 10
96.317999
 20
151.895470
 30
0.0
 10
96.741332
 20
151.895470
 30
0.0
 10
97.164666
 20
151.895470
 30
0.0
 10
97.164666
 20
151.472137
 30
0.0
 10
97.164666
 20
151.048803
 30
0.0
 10
96.741332
 20
151.048803
 30
0.0
 10
96.741332
 20
151.048803
 30
0.0
  0
LWPOLYLINE
  5
119
100
AcDbEntity
  8
Vrstva_1
 62
7
100
AcDbPolyline
 90
18
 70
0
 10
103.514666
 20
141.735470
 30
0.0
 10
103.937999
 20
141.735470
 30
0.0
 10
103.937999
 20
142.158803
 30
0.0
 10
103.937999
 20
142.582137
 30
0.0
 10
103.514666
 20
142.582137
 30
0.0
 10
103.091332
 20
142.582137
 30
0.0
 10
103.091332
 20
143.005470
 30
0.0
 10
103.091332
 20
143.428803
 30
0.0
 10
102.667999
 20
143.428803
 30
0.0
 10
102.244666
 20
143.428803
 30
0.0
 10
102.244666
 20
143.005470
 30
0.0
 10
102.244666
 20
142.582137
 30
0.0
 10
102.667999
 20
142.582137
 30
0.0
 10
103.091332
 20
142.582137
 30
0.0
 10
103.091332
 20
142.158803
 30
0.0
 10
103.091332
 20
141.735470
 30
0.0
 10
103.514666
 20
141.735470
 30
0.0
 10
103.514666
 20
141.735470
 30
0.0
  0
LWPOLYLINE
  5
11a
100
AcDbEntity
  8
Vrstva_1
 62
7
100
AcDbPolyline
 90
10
 70
0
 10
89.121332
 20
146.815470
 30
0.0
 10
92.084666
 20
146.815470
 30
0.0
 10
92.084666
 20
149.778803
 30
0.0
 10
92.084666
 20
152.742137
 30
0.0
 10
89.121332
 20
152.742137
 30
0.0
 10
86.157999
 20
152.742137
 30
0.0
 10
86.157999
 20
149.778803
 30
0.0
 10
86.157999
 20
146.815470
 30
0.0
 10
89.121332
 20
146.815470
 30
0.0
 10
89.121332
 20
146.815470
 30
0.0
  0
LWPOLYLINE
  5
11b
100
AcDbEntity
  8
Vrstva_1
 62
7
100
AcDbPolyline
 90
10
 70
0
 10
89.121332
 20
147.662137
 30
0.0
 10
87.004666
 20
147.662137
 30
0.0
 10
87.004666
 20
149.778803
 30
0.0
 10
87.004666
 20
151.895470
 30
0.0
 10
89.121332
 20
151.895470
 30
0.0
 10
91.237999
 20
151.895470
 30
0.0
 10
91.237999
 20
149.778803
 30
0.0
 10
91.237999
 20
147.662137
 30
0.0
 10
89.121332
 20
147.662137
 30
0.0
 10
89.121332
 20
147.662137
 30
0.0
  0
LWPOLYLINE
  5
11c
100
AcDbEntity
  8
Vrstva_1
 62
7
100
AcDbPolyline
 90
10
 70
0
 10
89.121332
 20
148.508803
 30
0.0
 10
90.391332
 20
148.508803
 30
0.0
 10
90.391332
 20
149.778803
 30
0.0
 10
90.391332
 20
151.048803
 30
0.0
 10
89.121332
 20
151.048803
 30
0.0
 10
87.851332
 20
151.048803
 30
0.0
 10
87.851332
 20
149.778803
 30
0.0
 10
87.851332
 20
148.508803
 30
0.0
 10
89.121332
 20
148.508803
 30
0.0
 10
89.121332
 20
148.508803
 30
0.0
  0
LWPOLYLINE
  5
11d
100
AcDbEntity
  8
Vrstva_1
 62
7
100
AcDbPolyline
 90
10
 70
0
 10
107.747999
 20
146.815470
 30
0.0
 10
110.711332
 20
146.815470
 30
0.0
 10
110.711332
 20
149.778803
 30
0.0
 10
110.711332
 20
152.742137
 30
0.0
 10
107.747999
 20
152.742137
 30
0.0
 10
104.784666
 20
152.742137
 30
0.0
 10
104.784666
 20
149.778803
 30
0.0
 10
104.784666
 20
146.815470
 30
0.0
 10
107.747999
 20
146.815470
 30
0.0
 10
107.747999
 20
146.815470
 30
0.0
  0
LWPOLYLINE
  5
11e
100
AcDbEntity
  8
Vrstva_1
 62
7
100
AcDbPolyline
 90
10
 70
0
 10
107.747999
 20
147.662137
 30
0.0
 10
105.631332
 20
147.662137
 30
0.0
 10
105.631332
 20
149.778803
 30
0.0
 10
105.631332
 20
151.895470
 30
0.0
 10
107.747999
 20
151.895470
 30
0.0
 10
109.864666
 20
151.895470
 30
0.0
 10
109.864666
 20
149.778803
 30
0.0
 10
109.864666
 20
147.662137
 30
0.0
 10
107.747999
 20
147.662137
 30
0.0
 10
107.747999
 20
147.662137
 30
0.0
  0
LWPOLYLINE
  5
11f
100
AcDbEntity
  8
Vrstva_1
 62
7
100
AcDbPolyline
 90
10
 70
0
 10
107.747999
 20
148.508803
 30
0.0
 10
109.017999
 20
148.508803
 30
0.0
 10
109.017999
 20
149.778803
 30
0.0
 10
109.017999
 20
151.048803
 30
0.0
 10
107.747999
 20
151.048803
 30
0.0
 10
106.477999
 20
151.048803
 30
0.0
 10
106.477999
 20
149.778803
 30
0.0
 10
106.477999
 20
148.508803
 30
0.0
 10
107.747999
 20
148.508803
 30
0.0
 10
107.747999
 20
148.508803
 30
0.0
  0
LWPOLYLINE
  5
120
100
AcDbEntity
  8
Vrstva_1
 62
7
100
AcDbPolyline
 90
10
 70
0
 10
89.121332
 20
128.188803
 30
0.0
 10
86.157999
 20
128.188803
 30
0.0
 10
86.157999
 20
131.152137
 30
0.0
 10
86.157999
 20
134.115470
 30
0.0
 10
89.121332
 20
134.115470
 30
0.0
 10
92.084666
 20
134.115470
 30
0.0
 10
92.084666
 20
131.152137
 30
0.0
 10
92.084666
 20
128.188803
 30
0.0
 10
89.121332
 20
128.188803
 30
0.0
 10
89.121332
 20
128.188803
 30
0.0
  0
LWPOLYLINE
  5
121
100
AcDbEntity
  8
Vrstva_1
 62
7
100
AcDbPolyline
 90
10
 70
0
 10
89.121332
 20
129.035470
 30
0.0
 10
91.237999
 20
129.035470
 30
0.0
 10
91.237999
 20
131.152137
 30
0.0
 10
91.237999
 20
133.268803
 30
0.0
 10
89.121332
 20
133.268803
 30
0.0
 10
87.004666
 20
133.268803
 30
0.0
 10
87.004666
 20
131.152137
 30
0.0
 10
87.004666
 20
129.035470
 30
0.0
 10
89.121332
 20
129.035470
 30
0.0
 10
89.121332
 20
129.035470
 30
0.0
  0
LWPOLYLINE
  5
122
100
AcDbEntity
  8
Vrstva_1
 62
7
100
AcDbPolyline
 90
10
 70
0
 10
89.121332
 20
129.882137
 30
0.0
 10
87.851332
 20
129.882137
 30
0.0
 10
87.851332
 20
131.152137
 30
0.0
 10
87.851332
 20
132.422137
 30
0.0
 10
89.121332
 20
132.422137
 30
0.0
 10
90.391332
 20
132.422137
 30
0.0
 10
90.391332
 20
131.152137
 30
0.0
 10
90.391332
 20
129.882137
 30
0.0
 10
89.121332
 20
129.882137
 30
0.0
 10
89.121332
 20
129.882137
 30
0.0
  0
LWPOLYLINE
  5
123
100
AcDbEntity
  8
Vrstva_1
 62
7
100
AcDbPolyline
 90
322
 70
0
 10
93.354666
 20
128.188803
 30
0.0
 10
92.931332
 20
128.188803
 30
0.0
 10
92.931332
 20
128.612137
 30
0.0
 10
92.931332
 20
129.035470
 30
0.0
 10
93.354666
 20
129.035470
 30
0.0
 10
93.777999
 20
129.035470
 30
0.0
 10
93.777999
 20
129.458803
 30
0.0
 10
93.777999
 20
129.882137
 30
0.0
 10
93.354666
 20
129.882137
 30
0.0
 10
92.931332
 20
129.882137
 30
0.0
 10
92.931332
 20
130.728803
 30
0.0
 10
92.931332
 20
131.575470
 30
0.0
 10
93.354666
 20
131.575470
 30
0.0
 10
93.777999
 20
131.575470
 30
0.0
 10
93.777999
 20
131.998803
 30
0.0
 10
93.777999
 20
132.422137
 30
0.0
 10
93.354666
 20
132.422137
 30
0.0
 10
92.931332
 20
132.422137
 30
0.0
 10
92.931332
 20
133.692137
 30
0.0
 10
92.931332
 20
134.962137
 30
0.0
 10
91.237999
 20
134.962137
 30
0.0
 10
89.544666
 20
134.962137
 30
0.0
 10
89.544666
 20
135.385470
 30
0.0
 10
89.544666
 20
135.808803
 30
0.0
 10
89.121332
 20
135.808803
 30
0.0
 10
88.697999
 20
135.808803
 30
0.0
 10
88.697999
 20
135.385470
 30
0.0
 10
88.697999
 20
134.962137
 30
0.0
 10
87.851332
 20
134.962137
 30
0.0
 10
87.004666
 20
134.962137
 30
0.0
 10
87.004666
 20
135.385470
 30
0.0
 10
87.004666
 20
135.808803
 30
0.0
 10
87.427999
 20
135.808803
 30
0.0
 10
87.851332
 20
135.808803
 30
0.0
 10
87.851332
 20
136.655470
 30
0.0
 10
87.851332
 20
137.502137
 30
0.0
 10
88.274666
 20
137.502137
 30
0.0
 10
88.697999
 20
137.502137
 30
0.0
 10
88.697999
 20
137.078803
 30
0.0
 10
88.697999
 20
136.655470
 30
0.0
 10
89.121332
 20
136.655470
 30
0.0
 10
89.544666
 20
136.655470
 30
0.0
 10
89.544666
 20
136.232137
 30
0.0
 10
89.544666
 20
135.808803
 30
0.0
 10
90.814666
 20
135.808803
 30
0.0
 10
92.084666
 20
135.808803
 30
0.0
 10
92.084666
 20
136.232137
 30
0.0
 10
92.084666
 20
136.655470
 30
0.0
 10
91.661332
 20
136.655470
 30
0.0
 10
91.237999
 20
136.655470
 30
0.0
 10
91.237999
 20
137.078803
 30
0.0
 10
91.237999
 20
137.502137
 30
0.0
 10
91.661332
 20
137.502137
 30
0.0
 10
92.084666
 20
137.502137
 30
0.0
 10
92.084666
 20
137.925470
 30
0.0
 10
92.084666
 20
138.348803
 30
0.0
 10
91.661332
 20
138.348803
 30
0.0
 10
91.237999
 20
138.348803
 30
0.0
 10
91.237999
 20
138.772137
 30
0.0
 10
91.237999
 20
139.195470
 30
0.0
 10
92.507999
 20
139.195470
 30
0.0
 10
93.777999
 20
139.195470
 30
0.0
 10
93.777999
 20
140.042137
 30
0.0
 10
93.777999
 20
140.888803
 30
0.0
 10
94.201332
 20
140.888803
 30
0.0
 10
94.624666
 20
140.888803
 30
0.0
 10
94.624666
 20
141.312137
 30
0.0
 10
94.624666
 20
141.735470
 30
0.0
 10
94.201332
 20
141.735470
 30
0.0
 10
93.777999
 20
141.735470
 30
0.0
 10
93.777999
 20
142.158803
 30
0.0
 10
93.777999
 20
142.582137
 30
0.0
 10
95.471332
 20
142.582137
 30
0.0
 10
97.164666
 20
142.582137
 30
0.0
 10
97.164666
 20
142.158803
 30
0.0
 10
97.164666
 20
141.735470
 30
0.0
 10
96.741332
 20
141.735470
 30
0.0
 10
96.317999
 20
141.735470
 30
0.0
 10
96.317999
 20
141.312137
 30
0.0
 10
96.317999
 20
140.888803
 30
0.0
 10
95.894666
 20
140.888803
 30
0.0
 10
95.471332
 20
140.888803
 30
0.0
 10
95.471332
 20
140.465470
 30
0.0
 10
95.471332
 20
140.042137
 30
0.0
 10
95.047999
 20
140.042137
 30
0.0
 10
94.624666
 20
140.042137
 30
0.0
 10
94.624666
 20
137.925470
 30
0.0
 10
94.624666
 20
135.808803
 30
0.0
 10
95.894666
 20
135.808803
 30
0.0
 10
97.164666
 20
135.808803
 30
0.0
 10
97.164666
 20
136.232137
 30
0.0
 10
97.164666
 20
136.655470
 30
0.0
 10
96.741332
 20
136.655470
 30
0.0
 10
96.317999
 20
136.655470
 30
0.0
 10
96.317999
 20
137.925470
 30
0.0
 10
96.317999
 20
139.195470
 30
0.0
 10
95.894666
 20
139.195470
 30
0.0
 10
95.471332
 20
139.195470
 30
0.0
 10
95.471332
 20
139.618803
 30
0.0
 10
95.471332
 20
140.042137
 30
0.0
 10
95.894666
 20
140.042137
 30
0.0
 10
96.317999
 20
140.042137
 30
0.0
 10
96.317999
 20
140.465470
 30
0.0
 10
96.317999
 20
140.888803
 30
0.0
 10
97.164666
 20
140.888803
 30
0.0
 10
98.011332
 20
140.888803
 30
0.0
 10
98.011332
 20
140.465470
 30
0.0
 10
98.011332
 20
140.042137
 30
0.0
 10
97.587999
 20
140.042137
 30
0.0
 10
97.164666
 20
140.042137
 30
0.0
 10
97.164666
 20
138.772137
 30
0.0
 10
97.164666
 20
137.502137
 30
0.0
 10
97.587999
 20
137.502137
 30
0.0
 10
98.011332
 20
137.502137
 30
0.0
 10
98.011332
 20
138.772137
 30
0.0
 10
98.011332
 20
140.042137
 30
0.0
 10
98.434666
 20
140.042137
 30
0.0
 10
98.857999
 20
140.042137
 30
0.0
 10
98.857999
 20
140.465470
 30
0.0
 10
98.857999
 20
140.888803
 30
0.0
 10
99.281332
 20
140.888803
 30
0.0
 10
99.704666
 20
140.888803
 30
0.0
 10
99.704666
 20
141.312137
 30
0.0
 10
99.704666
 20
141.735470
 30
0.0
 10
100.127999
 20
141.735470
 30
0.0
 10
100.551332
 20
141.735470
 30
0.0
 10
100.551332
 20
142.158803
 30
0.0
 10
100.551332
 20
142.582137
 30
0.0
 10
100.974666
 20
142.582137
 30
0.0
 10
101.397999
 20
142.582137
 30
0.0
 10
101.397999
 20
142.158803
 30
0.0
 10
101.397999
 20
141.735470
 30
0.0
 10
100.974666
 20
141.735470
 30
0.0
 10
100.551332
 20
141.735470
 30
0.0
 10
100.551332
 20
141.312137
 30
0.0
 10
100.551332
 20
140.888803
 30
0.0
 10
100.127999
 20
140.888803
 30
0.0
 10
99.704666
 20
140.888803
 30
0.0
 10
99.704666
 20
140.042137
 30
0.0
 10
99.704666
 20
139.195470
 30
0.0
 10
100.127999
 20
139.195470
 30
0.0
 10
100.551332
 20
139.195470
 30
0.0
 10
100.551332
 20
138.772137
 30
0.0
 10
100.551332
 20
138.348803
 30
0.0
 10
100.974666
 20
138.348803
 30
0.0
 10
101.397999
 20
138.348803
 30
0.0
 10
101.397999
 20
138.772137
 30
0.0
 10
101.397999
 20
139.195470
 30
0.0
 10
101.821332
 20
139.195470
 30
0.0
 10
102.244666
 20
139.195470
 30
0.0
 10
102.244666
 20
140.042137
 30
0.0
 10
102.244666
 20
140.888803
 30
0.0
 10
103.091332
 20
140.888803
 30
0.0
 10
103.937999
 20
140.888803
 30
0.0
 10
103.937999
 20
140.042137
 30
0.0
 10
103.937999
 20
139.195470
 30
0.0
 10
104.361332
 20
139.195470
 30
0.0
 10
104.784666
 20
139.195470
 30
0.0
 10
104.784666
 20
138.772137
 30
0.0
 10
104.784666
 20
138.348803
 30
0.0
 10
103.091332
 20
138.348803
 30
0.0
 10
101.397999
 20
138.348803
 30
0.0
 10
101.397999
 20
137.078803
 30
0.0
 10
101.397999
 20
135.808803
 30
0.0
 10
101.821332
 20
135.808803
 30
0.0
 10
102.244666
 20
135.808803
 30
0.0
 10
102.244666
 20
135.385470
 30
0.0
 10
102.244666
 20
134.962137
 30
0.0
 10
102.667999
 20
134.962137
 30
0.0
 10
103.091332
 20
134.962137
 30
0.0
 10
103.091332
 20
135.385470
 30
0.0
 10
103.091332
 20
135.808803
 30
0.0
 10
102.667999
 20
135.808803
 30
0.0
 10
102.244666
 20
135.808803
 30
0.0
 10
102.244666
 20
136.232137
 30
0.0
 10
102.244666
 20
136.655470
 30
0.0
 10
103.091332
 20
136.655470
 30
0.0
 10
103.937999
 20
136.655470
 30
0.0
 10
103.937999
 20
137.078803
 30
0.0
 10
103.937999
 20
137.502137
 30
0.0
 10
104.361332
 20
137.502137
 30
0.0
 10
104.784666
 20
137.502137
 30
0.0
 10
104.784666
 20
137.078803
 30
0.0
 10
104.784666
 20
136.655470
 30
0.0
 10
105.207999
 20
136.655470
 30
0.0
 10
105.631332
 20
136.655470
 30
0.0
 10
105.631332
 20
137.078803
 30
0.0
 10
105.631332
 20
137.502137
 30
0.0
 10
106.054666
 20
137.502137
 30
0.0
 10
106.477999
 20
137.502137
 30
0.0
 10
106.477999
 20
137.078803
 30
0.0
 10
106.477999
 20
136.655470
 30
0.0
 10
106.054666
 20
136.655470
 30
0.0
 10
105.631332
 20
136.655470
 30
0.0
 10
105.631332
 20
136.232137
 30
0.0
 10
105.631332
 20
135.808803
 30
0.0
 10
106.901332
 20
135.808803
 30
0.0
 10
108.171332
 20
135.808803
 30
0.0
 10
108.171332
 20
136.232137
 30
0.0
 10
108.171332
 20
136.655470
 30
0.0
 10
107.747999
 20
136.655470
 30
0.0
 10
107.324666
 20
136.655470
 30
0.0
 10
107.324666
 20
137.078803
 30
0.0
 10
107.324666
 20
137.502137
 30
0.0
 10
107.747999
 20
137.502137
 30
0.0
 10
108.171332
 20
137.502137
 30
0.0
 10
108.171332
 20
137.925470
 30
0.0
 10
108.171332
 20
138.348803
 30
0.0
 10
108.594666
 20
138.348803
 30
0.0
 10
109.017999
 20
138.348803
 30
0.0
 10
109.017999
 20
139.195470
 30
0.0
 10
109.017999
 20
140.042137
 30
0.0
 10
107.747999
 20
140.042137
 30
0.0
 10
106.477999
 20
140.042137
 30
0.0
 10
106.477999
 20
139.618803
 30
0.0
 10
106.477999
 20
139.195470
 30
0.0
 10
106.901332
 20
139.195470
 30
0.0
 10
107.324666
 20
139.195470
 30
0.0
 10
107.324666
 20
138.772137
 30
0.0
 10
107.324666
 20
138.348803
 30
0.0
 10
106.477999
 20
138.348803
 30
0.0
 10
105.631332
 20
138.348803
 30
0.0
 10
105.631332
 20
139.195470
 30
0.0
 10
105.631332
 20
140.042137
 30
0.0
 10
105.207999
 20
140.042137
 30
0.0
 10
104.784666
 20
140.042137
 30
0.0
 10
104.784666
 20
140.888803
 30
0.0
 10
104.784666
 20
141.735470
 30
0.0
 10
105.207999
 20
141.735470
 30
0.0
 10
105.631332
 20
141.735470
 30
0.0
 10
105.631332
 20
140.888803
 30
0.0
 10
105.631332
 20
140.042137
 30
0.0
 10
106.054666
 20
140.042137
 30
0.0
 10
106.477999
 20
140.042137
 30
0.0
 10
106.477999
 20
140.465470
 30
0.0
 10
106.477999
 20
140.888803
 30
0.0
 10
107.747999
 20
140.888803
 30
0.0
 10
109.017999
 20
140.888803
 30
0.0
 10
109.017999
 20
141.312137
 30
0.0
 10
109.017999
 20
141.735470
 30
0.0
 10
109.864666
 20
141.735470
 30
0.0
 10
110.711332
 20
141.735470
 30
0.0
 10
110.711332
 20
140.888803
 30
0.0
 10
110.711332
 20
140.042137
 30
0.0
 10
110.287999
 20
140.042137
 30
0.0
 10
109.864666
 20
140.042137
 30
0.0
 10
109.864666
 20
138.772137
 30
0.0
 10
109.864666
 20
137.502137
 30
0.0
 10
109.441332
 20
137.502137
 30
0.0
 10
109.017999
 20
137.502137
 30
0.0
 10
109.017999
 20
136.232137
 30
0.0
 10
109.017999
 20
134.962137
 30
0.0
 10
109.864666
 20
134.962137
 30
0.0
 10
110.711332
 20
134.962137
 30
0.0
 10
110.711332
 20
134.538803
 30
0.0
 10
110.711332
 20
134.115470
 30
0.0
 10
110.287999
 20
134.115470
 30
0.0
 10
109.864666
 20
134.115470
 30
0.0
 10
109.864666
 20
133.692137
 30
0.0
 10
109.864666
 20
133.268803
 30
0.0
 10
110.287999
 20
133.268803
 30
0.0
 10
110.711332
 20
133.268803
 30
0.0
 10
110.711332
 20
132.422137
 30
0.0
 10
110.711332
 20
131.575470
 30
0.0
 10
110.287999
 20
131.575470
 30
0.0
 10
109.864666
 20
131.575470
 30
0.0
 10
109.864666
 20
131.152137
 30
0.0
 10
109.864666
 20
130.728803
 30
0.0
 10
110.287999
 20
130.728803
 30
0.0
 10
110.711332
 20
130.728803
 30
0.0
 10
110.711332
 20
130.305470
 30
0.0
 10
110.711332
 20
129.882137
 30
0.0
 10
110.287999
 20
129.882137
 30
0.0
 10
109.864666
 20
129.882137
 30
0.0
 10
109.864666
 20
129.035470
 30
0.0
 10
109.864666
 20
128.188803
 30
0.0
 10
109.441332
 20
128.188803
 30
0.0
 10
109.017999
 20
128.188803
 30
0.0
 10
109.017999
 20
129.035470
 30
0.0
 10
109.017999
 20
129.882137
 30
0.0
 10
109.441332
 20
129.882137
 30
0.0
 10
109.864666
 20
129.882137
 30
0.0
 10
109.864666
 20
130.305470
 30
0.0
 10
109.864666
 20
130.728803
 30
0.0
 10
109.441332
 20
130.728803
 30
0.0
 10
109.017999
 20
130.728803
 30
0.0
 10
109.017999
 20
130.305470
 30
0.0
 10
109.017999
 20
129.882137
 30
0.0
 10
108.594666
 20
129.882137
 30
0.0
 10
108.171332
 20
129.882137
 30
0.0
 10
108.171332
 20
130.305470
 30
0.0
 10
108.171332
 20
130.728803
 30
0.0
 10
107.324666
 20
130.728803
 30
0.0
 10
106.477999
 20
130.728803
 30
0.0
 10
106.477999
 20
131.152137
 30
0.0
 10
106.477999
 20
131.575470
 30
0.0
 10
104.784666
 20
131.575470
 30
0.0
 10
103.091332
 20
131.575470
 30
0.0
 10
103.091332
 20
130.728803
 30
0.0
 10
103.091332
 20
129.882137
 30
0.0
 10
103.514666
 20
129.882137
 30
0.0
 10
103.937999
 20
129.882137
 30
0.0
 10
103.937999
 20
129.035470
 30
0.0
 10
103.937999
 20
128.188803
 30
0.0
 10
100.974666
 20
128.188803
 30
0.0
 10
98.011332
 20
128.188803
 30
0.0
 10
98.011332
 20
128.612137
 30
0.0
 10
98.011332
 20
129.035470
 30
0.0
 10
97.587999
 20
129.035470
 30
0.0
 10
97.164666
 20
129.035470
 30
0.0
 10
97.164666
 20
128.612137
 30
0.0
 10
97.164666
 20
128.188803
 30
0.0
 10
95.894666
 20
128.188803
 30
0.0
 10
94.624666
 20
128.188803
 30
0.0
 10
94.624666
 20
128.612137
 30
0.0
 10
94.624666
 20
129.035470
 30
0.0
 10
94.201332
 20
129.035470
 30
0.0
 10
93.777999
 20
129.035470
 30
0.0
 10
93.777999
 20
128.612137
 30
0.0
 10
93.777999
 20
128.188803
 30
0.0
 10
93.354666
 20
128.188803
 30
0.0
 10
93.354666
 20
128.188803
 30
0.0
  0
LWPOLYLINE
  5
124
100
AcDbEntity
  8
Vrstva_1
 62
7
100
AcDbPolyline
 90
122
 70
0
 10
95.047999
 20
129.035470
 30
0.0
 10
95.471332
 20
129.035470
 30
0.0
 10
95.471332
 20
129.458803
 30
0.0
 10
95.471332
 20
129.882137
 30
0.0
 10
95.894666
 20
129.882137
 30
0.0
 10
96.317999
 20
129.882137
 30
0.0
 10
96.317999
 20
130.305470
 30
0.0
 10
96.317999
 20
130.728803
 30
0.0
 10
95.471332
 20
130.728803
 30
0.0
 10
94.624666
 20
130.728803
 30
0.0
 10
94.624666
 20
131.152137
 30
0.0
 10
94.624666
 20
131.575470
 30
0.0
 10
95.894666
 20
131.575470
 30
0.0
 10
97.164666
 20
131.575470
 30
0.0
 10
97.164666
 20
130.728803
 30
0.0
 10
97.164666
 20
129.882137
 30
0.0
 10
98.011332
 20
129.882137
 30
0.0
 10
98.857999
 20
129.882137
 30
0.0
 10
98.857999
 20
129.458803
 30
0.0
 10
98.857999
 20
129.035470
 30
0.0
 10
99.281332
 20
129.035470
 30
0.0
 10
99.704666
 20
129.035470
 30
0.0
 10
99.704666
 20
129.458803
 30
0.0
 10
99.704666
 20
129.882137
 30
0.0
 10
100.127999
 20
129.882137
 30
0.0
 10
100.551332
 20
129.882137
 30
0.0
 10
100.551332
 20
129.458803
 30
0.0
 10
100.551332
 20
129.035470
 30
0.0
 10
100.974666
 20
129.035470
 30
0.0
 10
101.397999
 20
129.035470
 30
0.0
 10
101.397999
 20
129.458803
 30
0.0
 10
101.397999
 20
129.882137
 30
0.0
 10
101.821332
 20
129.882137
 30
0.0
 10
102.244666
 20
129.882137
 30
0.0
 10
102.244666
 20
129.458803
 30
0.0
 10
102.244666
 20
129.035470
 30
0.0
 10
102.667999
 20
129.035470
 30
0.0
 10
103.091332
 20
129.035470
 30
0.0
 10
103.091332
 20
129.458803
 30
0.0
 10
103.091332
 20
129.882137
 30
0.0
 10
102.667999
 20
129.882137
 30
0.0
 10
102.244666
 20
129.882137
 30
0.0
 10
102.244666
 20
130.728803
 30
0.0
 10
102.244666
 20
131.575470
 30
0.0
 10
102.667999
 20
131.575470
 30
0.0
 10
103.091332
 20
131.575470
 30
0.0
 10
103.091332
 20
132.422137
 30
0.0
 10
103.091332
 20
133.268803
 30
0.0
 10
102.667999
 20
133.268803
 30
0.0
 10
102.244666
 20
133.268803
 30
0.0
 10
102.244666
 20
133.692137
 30
0.0
 10
102.244666
 20
134.115470
 30
0.0
 10
101.397999
 20
134.115470
 30
0.0
 10
100.551332
 20
134.115470
 30
0.0
 10
100.551332
 20
134.538803
 30
0.0
 10
100.551332
 20
134.962137
 30
0.0
 10
100.127999
 20
134.962137
 30
0.0
 10
99.704666
 20
134.962137
 30
0.0
 10
99.704666
 20
136.232137
 30
0.0
 10
99.704666
 20
137.502137
 30
0.0
 10
100.127999
 20
137.502137
 30
0.0
 10
100.551332
 20
137.502137
 30
0.0
 10
100.551332
 20
137.925470
 30
0.0
 10
100.551332
 20
138.348803
 30
0.0
 10
100.127999
 20
138.348803
 30
0.0
 10
99.704666
 20
138.348803
 30
0.0
 10
99.704666
 20
138.772137
 30
0.0
 10
99.704666
 20
139.195470
 30
0.0
 10
99.281332
 20
139.195470
 30
0.0
 10
98.857999
 20
139.195470
 30
0.0
 10
98.857999
 20
137.078803
 30
0.0
 10
98.857999
 20
134.962137
 30
0.0
 10
98.011332
 20
134.962137
 30
0.0
 10
97.164666
 20
134.962137
 30
0.0
 10
97.164666
 20
134.115470
 30
0.0
 10
97.164666
 20
133.268803
 30
0.0
 10
96.741332
 20
133.268803
 30
0.0
 10
96.317999
 20
133.268803
 30
0.0
 10
96.317999
 20
132.845470
 30
0.0
 10
96.317999
 20
132.422137
 30
0.0
 10
95.894666
 20
132.422137
 30
0.0
 10
95.471332
 20
132.422137
 30
0.0
 10
95.471332
 20
133.268803
 30
0.0
 10
95.471332
 20
134.115470
 30
0.0
 10
95.894666
 20
134.115470
 30
0.0
 10
96.317999
 20
134.115470
 30
0.0
 10
96.317999
 20
134.538803
 30
0.0
 10
96.317999
 20
134.962137
 30
0.0
 10
95.894666
 20
134.962137
 30
0.0
 10
95.471332
 20
134.962137
 30
0.0
 10
95.471332
 20
134.538803
 30
0.0
 10
95.471332
 20
134.115470
 30
0.0
 10
95.047999
 20
134.115470
 30
0.0
 10
94.624666
 20
134.115470
 30
0.0
 10
94.624666
 20
134.538803
 30
0.0
 10
94.624666
 20
134.962137
 30
0.0
 10
94.201332
 20
134.962137
 30
0.0
 10
93.777999
 20
134.962137
 30
0.0
 10
93.777999
 20
134.538803
 30
0.0
 10
93.777999
 20
134.115470
 30
0.0
 10
94.201332
 20
134.115470
 30
0.0
 10
94.624666
 20
134.115470
 30
0.0
 10
94.624666
 20
133.692137
 30
0.0
 10
94.624666
 20
133.268803
 30
0.0
 10
94.201332
 20
133.268803
 30
0.0
 10
93.777999
 20
133.268803
 30
0.0
 10
93.777999
 20
132.845470
 30
0.0
 10
93.777999
 20
132.422137
 30
0.0
 10
94.201332
 20
132.422137
 30
0.0
 10
94.624666
 20
132.422137
 30
0.0
 10
94.624666
 20
131.998803
 30
0.0
 10
94.624666
 20
131.575470
 30
0.0
 10
94.201332
 20
131.575470
 30
0.0
 10
93.777999
 20
131.575470
 30
0.0
 10
93.777999
 20
131.152137
 30
0.0
 10
93.777999
 20
130.728803
 30
0.0
 10
94.201332
 20
130.728803
 30
0.0
 10
94.624666
 20
130.728803
 30
0.0
 10
94.624666
 20
129.882137
 30
0.0
 10
94.624666
 20
129.035470
 30
0.0
 10
95.047999
 20
129.035470
 30
0.0
 10
95.047999
 20
129.035470
 30
0.0
  0
LWPOLYLINE
  5
125
100
AcDbEntity
  8
Vrstva_1
 62
7
100
AcDbPolyline
 90
10
 70
0
 10
99.281332
 20
129.882137
 30
0.0
 10
98.857999
 20
129.882137
 30
0.0
 10
98.857999
 20
130.728803
 30
0.0
 10
98.857999
 20
131.575470
 30
0.0
 10
99.281332
 20
131.575470
 30
0.0
 10
99.704666
 20
131.575470
 30
0.0
 10
99.704666
 20
130.728803
 30
0.0
 10
99.704666
 20
129.882137
 30
0.0
 10
99.281332
 20
129.882137
 30
0.0
 10
99.281332
 20
129.882137
 30
0.0
  0
LWPOLYLINE
  5
126
100
AcDbEntity
  8
Vrstva_1
 62
7
100
AcDbPolyline
 90
18
 70
0
 10
100.974666
 20
130.728803
 30
0.0
 10
100.551332
 20
130.728803
 30
0.0
 10
100.551332
 20
131.575470
 30
0.0
 10
100.551332
 20
132.422137
 30
0.0
 10
100.974666
 20
132.422137
 30
0.0
 10
101.397999
 20
132.422137
 30
0.0
 10
101.397999
 20
132.845470
 30
0.0
 10
101.397999
 20
133.268803
 30
0.0
 10
101.821332
 20
133.268803
 30
0.0
 10
102.244666
 20
133.268803
 30
0.0
 10
102.244666
 20
132.422137
 30
0.0
 10
102.244666
 20
131.575470
 30
0.0
 10
101.821332
 20
131.575470
 30
0.0
 10
101.397999
 20
131.575470
 30
0.0
 10
101.397999
 20
131.152137
 30
0.0
 10
101.397999
 20
130.728803
 30
0.0
 10
100.974666
 20
130.728803
 30
0.0
 10
100.974666
 20
130.728803
 30
0.0
  0
LWPOLYLINE
  5
127
100
AcDbEntity
  8
Vrstva_1
 62
7
100
AcDbPolyline
 90
18
 70
0
 10
98.011332
 20
132.422137
 30
0.0
 10
97.164666
 20
132.422137
 30
0.0
 10
97.164666
 20
132.845470
 30
0.0
 10
97.164666
 20
133.268803
 30
0.0
 10
97.587999
 20
133.268803
 30
0.0
 10
98.011332
 20
133.268803
 30
0.0
 10
98.011332
 20
133.692137
 30
0.0
 10
98.011332
 20
134.115470
 30
0.0
 10
98.857999
 20
134.115470
 30
0.0
 10
99.704666
 20
134.115470
 30
0.0
 10
99.704666
 20
133.692137
 30
0.0
 10
99.704666
 20
133.268803
 30
0.0
 10
99.281332
 20
133.268803
 30
0.0
 10
98.857999
 20
133.268803
 30
0.0
 10
98.857999
 20
132.845470
 30
0.0
 10
98.857999
 20
132.422137
 30
0.0
 10
98.011332
 20
132.422137
 30
0.0
 10
98.011332
 20
132.422137
 30
0.0
  0
LWPOLYLINE
  5
128
100
AcDbEntity
  8
Vrstva_1
 62
7
100
AcDbPolyline
 90
22
 70
0
 10
109.441332
 20
131.575470
 30
0.0
 10
109.864666
 20
131.575470
 30
0.0
 10
109.864666
 20
132.422137
 30
0.0
 10
109.864666
 20
133.268803
 30
0.0
 10
109.441332
 20
133.268803
 30
0.0
 10
109.017999
 20
133.268803
 30
0.0
 10
109.017999
 20
133.692137
 30
0.0
 10
109.017999
 20
134.115470
 30
0.0
 10
108.594666
 20
134.115470
 30
0.0
 10
108.171332
 20
134.115470
 30
0.0
 10
108.171332
 20
133.692137
 30
0.0
 10
108.171332
 20
133.268803
 30
0.0
 10
107.747999
 20
133.268803
 30
0.0
 10
107.324666
 20
133.268803
 30
0.0
 10
107.324666
 20
132.845470
 30
0.0
 10
107.324666
 20
132.422137
 30
0.0
 10
108.171332
 20
132.422137
 30
0.0
 10
109.017999
 20
132.422137
 30
0.0
 10
109.017999
 20
131.998803
 30
0.0
 10
109.017999
 20
131.575470
 30
0.0
 10
109.441332
 20
131.575470
 30
0.0
 10
109.441332
 20
131.575470
 30
0.0
  0
LWPOLYLINE
  5
129
100
AcDbEntity
  8
Vrstva_1
 62
7
100
AcDbPolyline
 90
10
 70
0
 10
105.207999
 20
132.422137
 30
0.0
 10
106.477999
 20
132.422137
 30
0.0
 10
106.477999
 20
133.692137
 30
0.0
 10
106.477999
 20
134.962137
 30
0.0
 10
105.207999
 20
134.962137
 30
0.0
 10
103.937999
 20
134.962137
 30
0.0
 10
103.937999
 20
133.692137
 30
0.0
 10
103.937999
 20
132.422137
 30
0.0
 10
105.207999
 20
132.422137
 30
0.0
 10
105.207999
 20
132.422137
 30
0.0
  0
LWPOLYLINE
  5
12a
100
AcDbEntity
  8
Vrstva_1
 62
7
100
AcDbPolyline
 90
10
 70
0
 10
105.207999
 20
133.268803
 30
0.0
 10
104.784666
 20
133.268803
 30
0.0
 10
104.784666
 20
133.692137
 30
0.0
 10
104.784666
 20
134.115470
 30
0.0
 10
105.207999
 20
134.115470
 30
0.0
 10
105.631332
 20
134.115470
 30
0.0
 10
105.631332
 20
133.692137
 30
0.0
 10
105.631332
 20
133.268803
 30
0.0
 10
105.207999
 20
133.268803
 30
0.0
 10
105.207999
 20
133.268803
 30
0.0
  0
LWPOLYLINE
  5
12b
100
AcDbEntity
  8
Vrstva_1
 62
7
100
AcDbPolyline
 90
10
 70
0
 10
93.354666
 20
135.808803
 30
0.0
 10
93.777999
 20
135.808803
 30
0.0
 10
93.777999
 20
136.232137
 30
0.0
 10
93.777999
 20
136.655470
 30
0.0
 10
93.354666
 20
136.655470
 30
0.0
 10
92.931332
 20
136.655470
 30
0.0
 10
92.931332
 20
136.232137
 30
0.0
 10
92.931332
 20
135.808803
 30
0.0
 10
93.354666
 20
135.808803
 30
0.0
 10
93.354666
 20
135.808803
 30
0.0
  0
LWPOLYLINE
  5
12c
100
AcDbEntity
  8
Vrstva_1
 62
7
100
AcDbPolyline
 90
10
 70
0
 10
104.361332
 20
135.808803
 30
0.0
 10
104.784666
 20
135.808803
 30
0.0
 10
104.784666
 20
136.232137
 30
0.0
 10
104.784666
 20
136.655470
 30
0.0
 10
104.361332
 20
136.655470
 30
0.0
 10
103.937999
 20
136.655470
 30
0.0
 10
103.937999
 20
136.232137
 30
0.0
 10
103.937999
 20
135.808803
 30
0.0
 10
104.361332
 20
135.808803
 30
0.0
 10
104.361332
 20
135.808803
 30
0.0
  0
LWPOLYLINE
  5
12d
100
AcDbEntity
  8
Vrstva_1
 62
7
100
AcDbPolyline
 90
18
 70
0
 10
105.207999
 20
128.188803
 30
0.0
 10
104.784666
 20
128.188803
 30
0.0
 10
104.784666
 20
129.035470
 30
0.0
 10
104.784666
 20
129.882137
 30
0.0
 10
105.207999
 20
129.882137
 30
0.0
 10
105.631332
 20
129.882137
 30
0.0
 10
105.631332
 20
130.305470
 30
0.0
 10
105.631332
 20
130.728803
 30
0.0
 10
106.054666
 20
130.728803
 30
0.0
 10
106.477999
 20
130.728803
 30
0.0
 10
106.477999
 20
129.882137
 30
0.0
 10
106.477999
 20
129.035470
 30
0.0
 10
106.054666
 20
129.035470
 30
0.0
 10
105.631332
 20
129.035470
 30
0.0
 10
105.631332
 20
128.612137
 30
0.0
 10
105.631332
 20
128.188803
 30
0.0
 10
105.207999
 20
128.188803
 30
0.0
 10
105.207999
 20
128.188803
 30
0.0
  0
LWPOLYLINE
  5
12e
100
AcDbEntity
  8
Vrstva_1
 62
7
100
AcDbPolyline
 90
10
 70
0
 10
107.747999
 20
128.188803
 30
0.0
 10
107.324666
 20
128.188803
 30
0.0
 10
107.324666
 20
129.035470
 30
0.0
 10
107.324666
 20
129.882137
 30
0.0
 10
107.747999
 20
129.882137
 30
0.0
 10
108.171332
 20
129.882137
 30
0.0
 10
108.171332
 20
129.035470
 30
0.0
 10
108.171332
 20
128.188803
 30
0.0
 10
107.747999
 20
128.188803
 30
0.0
 10
107.747999
 20
128.188803
 30
0.0
  0
LWPOLYLINE
  5
12f
100
AcDbEntity
  8
Vrstva_1
 62
7
100
AcDbPolyline
 90
10
 70
0
 10
86.581332
 20
136.655470
 30
0.0
 10
86.157999
 20
136.655470
 30
0.0
 10
86.157999
 20
137.078803
 30
0.0
 10
86.157999
 20
137.502137
 30
0.0
 10
86.581332
 20
137.502137
 30
0.0
 10
87.004666
 20
137.502137
 30
0.0
 10
87.004666
 20
137.078803
 30
0.0
 10
87.004666
 20
136.655470
 30
0.0
 10
86.581332
 20
136.655470
 30
0.0
 10
86.581332
 20
136.655470
 30
0.0
  0
LWPOLYLINE
  5
130
100
AcDbEntity
  8
Vrstva_1
 62
7
100
AcDbPolyline
 90
74
 70
0
 10
89.544666
 20
137.502137
 30
0.0
 10
88.697999
 20
137.502137
 30
0.0
 10
88.697999
 20
137.925470
 30
0.0
 10
88.697999
 20
138.348803
 30
0.0
 10
88.274666
 20
138.348803
 30
0.0
 10
87.851332
 20
138.348803
 30
0.0
 10
87.851332
 20
138.772137
 30
0.0
 10
87.851332
 20
139.195470
 30
0.0
 10
87.427999
 20
139.195470
 30
0.0
 10
87.004666
 20
139.195470
 30
0.0
 10
87.004666
 20
138.772137
 30
0.0
 10
87.004666
 20
138.348803
 30
0.0
 10
86.581332
 20
138.348803
 30
0.0
 10
86.157999
 20
138.348803
 30
0.0
 10
86.157999
 20
139.195470
 30
0.0
 10
86.157999
 20
140.042137
 30
0.0
 10
87.004666
 20
140.042137
 30
0.0
 10
87.851332
 20
140.042137
 30
0.0
 10
87.851332
 20
140.465470
 30
0.0
 10
87.851332
 20
140.888803
 30
0.0
 10
87.004666
 20
140.888803
 30
0.0
 10
86.157999
 20
140.888803
 30
0.0
 10
86.157999
 20
141.735470
 30
0.0
 10
86.157999
 20
142.582137
 30
0.0
 10
86.581332
 20
142.582137
 30
0.0
 10
87.004666
 20
142.582137
 30
0.0
 10
87.004666
 20
142.158803
 30
0.0
 10
87.004666
 20
141.735470
 30
0.0
 10
87.427999
 20
141.735470
 30
0.0
 10
87.851332
 20
141.735470
 30
0.0
 10
87.851332
 20
142.158803
 30
0.0
 10
87.851332
 20
142.582137
 30
0.0
 10
87.427999
 20
142.582137
 30
0.0
 10
87.004666
 20
142.582137
 30
0.0
 10
87.004666
 20
143.428803
 30
0.0
 10
87.004666
 20
144.275470
 30
0.0
 10
86.581332
 20
144.275470
 30
0.0
 10
86.157999
 20
144.275470
 30
0.0
 10
86.157999
 20
145.122137
 30
0.0
 10
86.157999
 20
145.968803
 30
0.0
 10
86.581332
 20
145.968803
 30
0.0
 10
87.004666
 20
145.968803
 30
0.0
 10
87.004666
 20
145.545470
 30
0.0
 10
87.004666
 20
145.122137
 30
0.0
 10
87.427999
 20
145.122137
 30
0.0
 10
87.851332
 20
145.122137
 30
0.0
 10
87.851332
 20
144.698803
 30
0.0
 10
87.851332
 20
144.275470
 30
0.0
 10
88.697999
 20
144.275470
 30
0.0
 10
89.544666
 20
144.275470
 30
0.0
 10
89.544666
 20
143.852137
 30
0.0
 10
89.544666
 20
143.428803
 30
0.0
 10
89.121332
 20
143.428803
 30
0.0
 10
88.697999
 20
143.428803
 30
0.0
 10
88.697999
 20
142.582137
 30
0.0
 10
88.697999
 20
141.735470
 30
0.0
 10
89.121332
 20
141.735470
 30
0.0
 10
89.544666
 20
141.735470
 30
0.0
 10
89.544666
 20
141.312137
 30
0.0
 10
89.544666
 20
140.888803
 30
0.0
 10
89.121332
 20
140.888803
 30
0.0
 10
88.697999
 20
140.888803
 30
0.0
 10
88.697999
 20
140.465470
 30
0.0
 10
88.697999
 20
140.042137
 30
0.0
 10
89.121332
 20
140.042137
 30
0.0
 10
89.544666
 20
140.042137
 30
0.0
 10
89.544666
 20
139.618803
 30
0.0
 10
89.544666
 20
139.195470
 30
0.0
 10
89.967999
 20
139.195470
 30
0.0
 10
90.391332
 20
139.195470
 30
0.0
 10
90.391332
 20
138.348803
 30
0.0
 10
90.391332
 20
137.502137
 30
0.0
 10
89.544666
 20
137.502137
 30
0.0
 10
89.544666
 20
137.502137
 30
0.0
  0
LWPOLYLINE
  5
131
100
AcDbEntity
  8
Vrstva_1
 62
7
100
AcDbPolyline
 90
18
 70
0
 10
90.814666
 20
139.195470
 30
0.0
 10
90.391332
 20
139.195470
 30
0.0
 10
90.391332
 20
139.618803
 30
0.0
 10
90.391332
 20
140.042137
 30
0.0
 10
89.967999
 20
140.042137
 30
0.0
 10
89.544666
 20
140.042137
 30
0.0
 10
89.544666
 20
140.465470
 30
0.0
 10
89.544666
 20
140.888803
 30
0.0
 10
91.237999
 20
140.888803
 30
0.0
 10
92.931332
 20
140.888803
 30
0.0
 10
92.931332
 20
140.465470
 30
0.0
 10
92.931332
 20
140.042137
 30
0.0
 10
92.084666
 20
140.042137
 30
0.0
 10
91.237999
 20
140.042137
 30
0.0
 10
91.237999
 20
139.618803
 30
0.0
 10
91.237999
 20
139.195470
 30
0.0
 10
90.814666
 20
139.195470
 30
0.0
 10
90.814666
 20
139.195470
 30
0.0
  0
LWPOLYLINE
  5
132
100
AcDbEntity
  8
Vrstva_1
 62
7
100
AcDbPolyline
 90
10
 70
0
 10
98.434666
 20
140.888803
 30
0.0
 10
98.011332
 20
140.888803
 30
0.0
 10
98.011332
 20
141.735470
 30
0.0
 10
98.011332
 20
142.582137
 30
0.0
 10
98.434666
 20
142.582137
 30
0.0
 10
98.857999
 20
142.582137
 30
0.0
 10
98.857999
 20
141.735470
 30
0.0
 10
98.857999
 20
140.888803
 30
0.0
 10
98.434666
 20
140.888803
 30
0.0
 10
98.434666
 20
140.888803
 30
0.0
  0
LWPOLYLINE
  5
133
100
AcDbEntity
  8
Vrstva_1
 62
7
100
AcDbPolyline
 90
274
 70
0
 10
91.237999
 20
141.735470
 30
0.0
 10
89.544666
 20
141.735470
 30
0.0
 10
89.544666
 20
142.582137
 30
0.0
 10
89.544666
 20
143.428803
 30
0.0
 10
89.967999
 20
143.428803
 30
0.0
 10
90.391332
 20
143.428803
 30
0.0
 10
90.391332
 20
143.852137
 30
0.0
 10
90.391332
 20
144.275470
 30
0.0
 10
89.967999
 20
144.275470
 30
0.0
 10
89.544666
 20
144.275470
 30
0.0
 10
89.544666
 20
144.698803
 30
0.0
 10
89.544666
 20
145.122137
 30
0.0
 10
88.697999
 20
145.122137
 30
0.0
 10
87.851332
 20
145.122137
 30
0.0
 10
87.851332
 20
145.545470
 30
0.0
 10
87.851332
 20
145.968803
 30
0.0
 10
88.697999
 20
145.968803
 30
0.0
 10
89.544666
 20
145.968803
 30
0.0
 10
89.544666
 20
145.545470
 30
0.0
 10
89.544666
 20
145.122137
 30
0.0
 10
89.967999
 20
145.122137
 30
0.0
 10
90.391332
 20
145.122137
 30
0.0
 10
90.391332
 20
145.545470
 30
0.0
 10
90.391332
 20
145.968803
 30
0.0
 10
91.661332
 20
145.968803
 30
0.0
 10
92.931332
 20
145.968803
 30
0.0
 10
92.931332
 20
146.815470
 30
0.0
 10
92.931332
 20
147.662137
 30
0.0
 10
93.354666
 20
147.662137
 30
0.0
 10
93.777999
 20
147.662137
 30
0.0
 10
93.777999
 20
148.508803
 30
0.0
 10
93.777999
 20
149.355470
 30
0.0
 10
93.354666
 20
149.355470
 30
0.0
 10
92.931332
 20
149.355470
 30
0.0
 10
92.931332
 20
149.778803
 30
0.0
 10
92.931332
 20
150.202137
 30
0.0
 10
93.354666
 20
150.202137
 30
0.0
 10
93.777999
 20
150.202137
 30
0.0
 10
93.777999
 20
150.625470
 30
0.0
 10
93.777999
 20
151.048803
 30
0.0
 10
93.354666
 20
151.048803
 30
0.0
 10
92.931332
 20
151.048803
 30
0.0
 10
92.931332
 20
151.895470
 30
0.0
 10
92.931332
 20
152.742137
 30
0.0
 10
93.777999
 20
152.742137
 30
0.0
 10
94.624666
 20
152.742137
 30
0.0
 10
94.624666
 20
152.318803
 30
0.0
 10
94.624666
 20
151.895470
 30
0.0
 10
94.201332
 20
151.895470
 30
0.0
 10
93.777999
 20
151.895470
 30
0.0
 10
93.777999
 20
151.472137
 30
0.0
 10
93.777999
 20
151.048803
 30
0.0
 10
94.624666
 20
151.048803
 30
0.0
 10
95.471332
 20
151.048803
 30
0.0
 10
95.471332
 20
151.472137
 30
0.0
 10
95.471332
 20
151.895470
 30
0.0
 10
95.894666
 20
151.895470
 30
0.0
 10
96.317999
 20
151.895470
 30
0.0
 10
96.317999
 20
152.318803
 30
0.0
 10
96.317999
 20
152.742137
 30
0.0
 10
96.741332
 20
152.742137
 30
0.0
 10
97.164666
 20
152.742137
 30
0.0
 10
97.164666
 20
152.318803
 30
0.0
 10
97.164666
 20
151.895470
 30
0.0
 10
97.587999
 20
151.895470
 30
0.0
 10
98.011332
 20
151.895470
 30
0.0
 10
98.011332
 20
152.318803
 30
0.0
 10
98.011332
 20
152.742137
 30
0.0
 10
98.857999
 20
152.742137
 30
0.0
 10
99.704666
 20
152.742137
 30
0.0
 10
99.704666
 20
152.318803
 30
0.0
 10
99.704666
 20
151.895470
 30
0.0
 10
99.281332
 20
151.895470
 30
0.0
 10
98.857999
 20
151.895470
 30
0.0
 10
98.857999
 20
151.472137
 30
0.0
 10
98.857999
 20
151.048803
 30
0.0
 10
98.011332
 20
151.048803
 30
0.0
 10
97.164666
 20
151.048803
 30
0.0
 10
97.164666
 20
150.625470
 30
0.0
 10
97.164666
 20
150.202137
 30
0.0
 10
96.741332
 20
150.202137
 30
0.0
 10
96.317999
 20
150.202137
 30
0.0
 10
96.317999
 20
150.625470
 30
0.0
 10
96.317999
 20
151.048803
 30
0.0
 10
95.894666
 20
151.048803
 30
0.0
 10
95.471332
 20
151.048803
 30
0.0
 10
95.471332
 20
150.625470
 30
0.0
 10
95.471332
 20
150.202137
 30
0.0
 10
94.624666
 20
150.202137
 30
0.0
 10
93.777999
 20
150.202137
 30
0.0
 10
93.777999
 20
149.778803
 30
0.0
 10
93.777999
 20
149.355470
 30
0.0
 10
95.471332
 20
149.355470
 30
0.0
 10
97.164666
 20
149.355470
 30
0.0
 10
97.164666
 20
148.932137
 30
0.0
 10
97.164666
 20
148.508803
 30
0.0
 10
97.587999
 20
148.508803
 30
0.0
 10
98.011332
 20
148.508803
 30
0.0
 10
98.011332
 20
148.932137
 30
0.0
 10
98.011332
 20
149.355470
 30
0.0
 10
98.434666
 20
149.355470
 30
0.0
 10
98.857999
 20
149.355470
 30
0.0
 10
98.857999
 20
149.778803
 30
0.0
 10
98.857999
 20
150.202137
 30
0.0
 10
99.281332
 20
150.202137
 30
0.0
 10
99.704666
 20
150.202137
 30
0.0
 10
99.704666
 20
150.625470
 30
0.0
 10
99.704666
 20
151.048803
 30
0.0
 10
100.127999
 20
151.048803
 30
0.0
 10
100.551332
 20
151.048803
 30
0.0
 10
100.551332
 20
150.625470
 30
0.0
 10
100.551332
 20
150.202137
 30
0.0
 10
100.974666
 20
150.202137
 30
0.0
 10
101.397999
 20
150.202137
 30
0.0
 10
101.397999
 20
150.625470
 30
0.0
 10
101.397999
 20
151.048803
 30
0.0
 10
100.974666
 20
151.048803
 30
0.0
 10
100.551332
 20
151.048803
 30
0.0
 10
100.551332
 20
151.895470
 30
0.0
 10
100.551332
 20
152.742137
 30
0.0
 10
102.244666
 20
152.742137
 30
0.0
 10
103.937999
 20
152.742137
 30
0.0
 10
103.937999
 20
151.895470
 30
0.0
 10
103.937999
 20
151.048803
 30
0.0
 10
103.514666
 20
151.048803
 30
0.0
 10
103.091332
 20
151.048803
 30
0.0
 10
103.091332
 20
151.472137
 30
0.0
 10
103.091332
 20
151.895470
 30
0.0
 10
102.667999
 20
151.895470
 30
0.0
 10
102.244666
 20
151.895470
 30
0.0
 10
102.244666
 20
151.048803
 30
0.0
 10
102.244666
 20
150.202137
 30
0.0
 10
101.821332
 20
150.202137
 30
0.0
 10
101.397999
 20
150.202137
 30
0.0
 10
101.397999
 20
149.355470
 30
0.0
 10
101.397999
 20
148.508803
 30
0.0
 10
100.974666
 20
148.508803
 30
0.0
 10
100.551332
 20
148.508803
 30
0.0
 10
100.551332
 20
147.662137
 30
0.0
 10
100.551332
 20
146.815470
 30
0.0
 10
100.974666
 20
146.815470
 30
0.0
 10
101.397999
 20
146.815470
 30
0.0
 10
101.397999
 20
147.238803
 30
0.0
 10
101.397999
 20
147.662137
 30
0.0
 10
101.821332
 20
147.662137
 30
0.0
 10
102.244666
 20
147.662137
 30
0.0
 10
102.244666
 20
148.508803
 30
0.0
 10
102.244666
 20
149.355470
 30
0.0
 10
102.667999
 20
149.355470
 30
0.0
 10
103.091332
 20
149.355470
 30
0.0
 10
103.091332
 20
149.778803
 30
0.0
 10
103.091332
 20
150.202137
 30
0.0
 10
103.514666
 20
150.202137
 30
0.0
 10
103.937999
 20
150.202137
 30
0.0
 10
103.937999
 20
149.778803
 30
0.0
 10
103.937999
 20
149.355470
 30
0.0
 10
103.514666
 20
149.355470
 30
0.0
 10
103.091332
 20
149.355470
 30
0.0
 10
103.091332
 20
148.932137
 30
0.0
 10
103.091332
 20
148.508803
 30
0.0
 10
103.514666
 20
148.508803
 30
0.0
 10
103.937999
 20
148.508803
 30
0.0
 10
103.937999
 20
147.662137
 30
0.0
 10
103.937999
 20
146.815470
 30
0.0
 10
103.514666
 20
146.815470
 30
0.0
 10
103.091332
 20
146.815470
 30
0.0
 10
103.091332
 20
147.238803
 30
0.0
 10
103.091332
 20
147.662137
 30
0.0
 10
102.667999
 20
147.662137
 30
0.0
 10
102.244666
 20
147.662137
 30
0.0
 10
102.244666
 20
146.815470
 30
0.0
 10
102.244666
 20
145.968803
 30
0.0
 10
102.667999
 20
145.968803
 30
0.0
 10
103.091332
 20
145.968803
 30
0.0
 10
103.091332
 20
145.545470
 30
0.0
 10
103.091332
 20
145.122137
 30
0.0
 10
103.937999
 20
145.122137
 30
0.0
 10
104.784666
 20
145.122137
 30
0.0
 10
104.784666
 20
145.545470
 30
0.0
 10
104.784666
 20
145.968803
 30
0.0
 10
105.207999
 20
145.968803
 30
0.0
 10
105.631332
 20
145.968803
 30
0.0
 10
105.631332
 20
145.545470
 30
0.0
 10
105.631332
 20
145.122137
 30
0.0
 10
106.477999
 20
145.122137
 30
0.0
 10
107.324666
 20
145.122137
 30
0.0
 10
107.324666
 20
145.545470
 30
0.0
 10
107.324666
 20
145.968803
 30
0.0
 10
107.747999
 20
145.968803
 30
0.0
 10
108.171332
 20
145.968803
 30
0.0
 10
108.171332
 20
145.545470
 30
0.0
 10
108.171332
 20
145.122137
 30
0.0
 10
107.747999
 20
145.122137
 30
0.0
 10
107.324666
 20
145.122137
 30
0.0
 10
107.324666
 20
144.698803
 30
0.0
 10
107.324666
 20
144.275470
 30
0.0
 10
106.477999
 20
144.275470
 30
0.0
 10
105.631332
 20
144.275470
 30
0.0
 10
105.631332
 20
143.852137
 30
0.0
 10
105.631332
 20
143.428803
 30
0.0
 10
106.901332
 20
143.428803
 30
0.0
 10
108.171332
 20
143.428803
 30
0.0
 10
108.171332
 20
143.852137
 30
0.0
 10
108.171332
 20
144.275470
 30
0.0
 10
109.017999
 20
144.275470
 30
0.0
 10
109.864666
 20
144.275470
 30
0.0
 10
109.864666
 20
144.698803
 30
0.0
 10
109.864666
 20
145.122137
 30
0.0
 10
109.441332
 20
145.122137
 30
0.0
 10
109.017999
 20
145.122137
 30
0.0
 10
109.017999
 20
145.545470
 30
0.0
 10
109.017999
 20
145.968803
 30
0.0
 10
109.864666
 20
145.968803
 30
0.0
 10
110.711332
 20
145.968803
 30
0.0
 10
110.711332
 20
145.122137
 30
0.0
 10
110.711332
 20
144.275470
 30
0.0
 10
110.287999
 20
144.275470
 30
0.0
 10
109.864666
 20
144.275470
 30
0.0
 10
109.864666
 20
143.852137
 30
0.0
 10
109.864666
 20
143.428803
 30
0.0
 10
110.287999
 20
143.428803
 30
0.0
 10
110.711332
 20
143.428803
 30
0.0
 10
110.711332
 20
143.005470
 30
0.0
 10
110.711332
 20
142.582137
 30
0.0
 10
110.287999
 20
142.582137
 30
0.0
 10
109.864666
 20
142.582137
 30
0.0
 10
109.864666
 20
143.005470
 30
0.0
 10
109.864666
 20
143.428803
 30
0.0
 10
109.017999
 20
143.428803
 30
0.0
 10
108.171332
 20
143.428803
 30
0.0
 10
108.171332
 20
143.005470
 30
0.0
 10
108.171332
 20
142.582137
 30
0.0
 10
108.594666
 20
142.582137
 30
0.0
 10
109.017999
 20
142.582137
 30
0.0
 10
109.017999
 20
142.158803
 30
0.0
 10
109.017999
 20
141.735470
 30
0.0
 10
108.171332
 20
141.735470
 30
0.0
 10
107.324666
 20
141.735470
 30
0.0
 10
107.324666
 20
142.158803
 30
0.0
 10
107.324666
 20
142.582137
 30
0.0
 10
106.054666
 20
142.582137
 30
0.0
 10
104.784666
 20
142.582137
 30
0.0
 10
104.784666
 20
143.005470
 30
0.0
 10
104.784666
 20
143.428803
 30
0.0
 10
103.937999
 20
143.428803
 30
0.0
 10
103.091332
 20
143.428803
 30
0.0
 10
103.091332
 20
143.852137
 30
0.0
 10
103.091332
 20
144.275470
 30
0.0
 10
102.667999
 20
144.275470
 30
0.0
 10
102.244666
 20
144.275470
 30
0.0
 10
102.244666
 20
143.852137
 30
0.0
 10
102.244666
 20
143.428803
 30
0.0
 10
100.974666
 20
143.428803
 30
0.0
 10
99.704666
 20
143.428803
 30
0.0
 10
99.704666
 20
143.852137
 30
0.0
 10
99.704666
 20
144.275470
 30
0.0
 10
99.281332
 20
144.275470
 30
0.0
 10
98.857999
 20
144.275470
 30
0.0
 10
98.857999
 20
145.122137
 30
0.0
 10
98.857999
 20
145.968803
 30
0.0
 10
98.434666
 20
145.968803
 30
0.0
 10
98.011332
 20
145.968803
 30
0.0
 10
98.011332
 20
144.698803
 30
0.0
 10
98.011332
 20
143.428803
 30
0.0
 10
95.894666
 20
143.428803
 30
0.0
 10
93.777999
 20
143.428803
 30
0.0
 10
93.777999
 20
143.005470
 30
0.0
 10
93.777999
 20
142.582137
 30
0.0
 10
93.354666
 20
142.582137
 30
0.0
 10
92.931332
 20
142.582137
 30
0.0
 10
92.931332
 20
142.158803
 30
0.0
 10
92.931332
 20
141.735470
 30
0.0
 10
91.237999
 20
141.735470
 30
0.0
 10
91.237999
 20
141.735470
 30
0.0
  0
LWPOLYLINE
  5
134
100
AcDbEntity
  8
Vrstva_1
 62
7
100
AcDbPolyline
 90
10
 70
0
 10
92.084666
 20
142.582137
 30
0.0
 10
92.931332
 20
142.582137
 30
0.0
 10
92.931332
 20
143.005470
 30
0.0
 10
92.931332
 20
143.428803
 30
0.0
 10
92.084666
 20
143.428803
 30
0.0
 10
91.237999
 20
143.428803
 30
0.0
 10
91.237999
 20
143.005470
 30
0.0
 10
91.237999
 20
142.582137
 30
0.0
 10
92.084666
 20
142.582137
 30
0.0
 10
92.084666
 20
142.582137
 30
0.0
  0
LWPOLYLINE
  5
135
100
AcDbEntity
  8
Vrstva_1
 62
7
100
AcDbPolyline
 90
98
 70
0
 10
92.084666
 20
144.275470
 30
0.0
 10
92.931332
 20
144.275470
 30
0.0
 10
92.931332
 20
144.698803
 30
0.0
 10
92.931332
 20
145.122137
 30
0.0
 10
93.777999
 20
145.122137
 30
0.0
 10
94.624666
 20
145.122137
 30
0.0
 10
94.624666
 20
145.545470
 30
0.0
 10
94.624666
 20
145.968803
 30
0.0
 10
95.047999
 20
145.968803
 30
0.0
 10
95.471332
 20
145.968803
 30
0.0
 10
95.471332
 20
145.545470
 30
0.0
 10
95.471332
 20
145.122137
 30
0.0
 10
95.894666
 20
145.122137
 30
0.0
 10
96.317999
 20
145.122137
 30
0.0
 10
96.317999
 20
144.698803
 30
0.0
 10
96.317999
 20
144.275470
 30
0.0
 10
96.741332
 20
144.275470
 30
0.0
 10
97.164666
 20
144.275470
 30
0.0
 10
97.164666
 20
145.122137
 30
0.0
 10
97.164666
 20
145.968803
 30
0.0
 10
97.587999
 20
145.968803
 30
0.0
 10
98.011332
 20
145.968803
 30
0.0
 10
98.011332
 20
146.815470
 30
0.0
 10
98.011332
 20
147.662137
 30
0.0
 10
98.434666
 20
147.662137
 30
0.0
 10
98.857999
 20
147.662137
 30
0.0
 10
98.857999
 20
146.815470
 30
0.0
 10
98.857999
 20
145.968803
 30
0.0
 10
99.281332
 20
145.968803
 30
0.0
 10
99.704666
 20
145.968803
 30
0.0
 10
99.704666
 20
145.122137
 30
0.0
 10
99.704666
 20
144.275470
 30
0.0
 10
100.127999
 20
144.275470
 30
0.0
 10
100.551332
 20
144.275470
 30
0.0
 10
100.551332
 20
144.698803
 30
0.0
 10
100.551332
 20
145.122137
 30
0.0
 10
100.974666
 20
145.122137
 30
0.0
 10
101.397999
 20
145.122137
 30
0.0
 10
101.397999
 20
145.545470
 30
0.0
 10
101.397999
 20
145.968803
 30
0.0
 10
100.974666
 20
145.968803
 30
0.0
 10
100.551332
 20
145.968803
 30
0.0
 10
100.551332
 20
146.392137
 30
0.0
 10
100.551332
 20
146.815470
 30
0.0
 10
100.127999
 20
146.815470
 30
0.0
 10
99.704666
 20
146.815470
 30
0.0
 10
99.704666
 20
147.238803
 30
0.0
 10
99.704666
 20
147.662137
 30
0.0
 10
99.281332
 20
147.662137
 30
0.0
 10
98.857999
 20
147.662137
 30
0.0
 10
98.857999
 20
148.085470
 30
0.0
 10
98.857999
 20
148.508803
 30
0.0
 10
99.704666
 20
148.508803
 30
0.0
 10
100.551332
 20
148.508803
 30
0.0
 10
100.551332
 20
149.355470
 30
0.0
 10
100.551332
 20
150.202137
 30
0.0
 10
100.127999
 20
150.202137
 30
0.0
 10
99.704666
 20
150.202137
 30
0.0
 10
99.704666
 20
149.778803
 30
0.0
 10
99.704666
 20
149.355470
 30
0.0
 10
99.281332
 20
149.355470
 30
0.0
 10
98.857999
 20
149.355470
 30
0.0
 10
98.857999
 20
148.932137
 30
0.0
 10
98.857999
 20
148.508803
 30
0.0
 10
98.434666
 20
148.508803
 30
0.0
 10
98.011332
 20
148.508803
 30
0.0
 10
98.011332
 20
148.085470
 30
0.0
 10
98.011332
 20
147.662137
 30
0.0
 10
97.587999
 20
147.662137
 30
0.0
 10
97.164666
 20
147.662137
 30
0.0
 10
97.164666
 20
148.085470
 30
0.0
 10
97.164666
 20
148.508803
 30
0.0
 10
96.741332
 20
148.508803
 30
0.0
 10
96.317999
 20
148.508803
 30
0.0
 10
96.317999
 20
148.085470
 30
0.0
 10
96.317999
 20
147.662137
 30
0.0
 10
95.894666
 20
147.662137
 30
0.0
 10
95.471332
 20
147.662137
 30
0.0
 10
95.471332
 20
147.238803
 30
0.0
 10
95.471332
 20
146.815470
 30
0.0
 10
95.047999
 20
146.815470
 30
0.0
 10
94.624666
 20
146.815470
 30
0.0
 10
94.624666
 20
147.238803
 30
0.0
 10
94.624666
 20
147.662137
 30
0.0
 10
94.201332
 20
147.662137
 30
0.0
 10
93.777999
 20
147.662137
 30
0.0
 10
93.777999
 20
146.815470
 30
0.0
 10
93.777999
 20
145.968803
 30
0.0
 10
93.354666
 20
145.968803
 30
0.0
 10
92.931332
 20
145.968803
 30
0.0
 10
92.931332
 20
145.545470
 30
0.0
 10
92.931332
 20
145.122137
 30
0.0
 10
92.084666
 20
145.122137
 30
0.0
 10
91.237999
 20
145.122137
 30
0.0
 10
91.237999
 20
144.698803
 30
0.0
 10
91.237999
 20
144.275470
 30
0.0
 10
92.084666
 20
144.275470
 30
0.0
 10
92.084666
 20
144.275470
 30
0.0
  0
LWPOLYLINE
  5
136
100
AcDbEntity
  8
Vrstva_1
 62
7
100
AcDbPolyline
 90
10
 70
0
 10
96.741332
 20
145.968803
 30
0.0
 10
96.317999
 20
145.968803
 30
0.0
 10
96.317999
 20
146.815470
 30
0.0
 10
96.317999
 20
147.662137
 30
0.0
 10
96.741332
 20
147.662137
 30
0.0
 10
97.164666
 20
147.662137
 30
0.0
 10
97.164666
 20
146.815470
 30
0.0
 10
97.164666
 20
145.968803
 30
0.0
 10
96.741332
 20
145.968803
 30
0.0
 10
96.741332
 20
145.968803
 30
0.0
  0
LWPOLYLINE
  5
137
100
AcDbEntity
  8
Vrstva_1
 62
7
100
AcDbPolyline
 90
10
 70
0
 10
96.741332
 20
151.048803
 30
0.0
 10
97.164666
 20
151.048803
 30
0.0
 10
97.164666
 20
151.472137
 30
0.0
 10
97.164666
 20
151.895470
 30
0.0
 10
96.741332
 20
151.895470
 30
0.0
 10
96.317999
 20
151.895470
 30
0.0
 10
96.317999
 20
151.472137
 30
0.0
 10
96.317999
 20
151.048803
 30
0.0
 10
96.741332
 20
151.048803
 30
0.0
 10
96.741332
 20
151.048803
 30
0.0
  0
LWPOLYLINE
  5
138
100
AcDbEntity
  8
Vrstva_1
 62
7
100
AcDbPolyline
 90
18
 70
0
 10
103.514666
 20
141.735470
 30
0.0
 10
103.091332
 20
141.735470
 30
0.0
 10
103.091332
 20
142.158803
 30
0.0
 10
103.091332
 20
142.582137
 30
0.0
 10
102.667999
 20
142.582137
 30
0.0
 10
102.244666
 20
142.582137
 30
0.0
 10
102.244666
 20
143.005470
 30
0.0
 10
102.244666
 20
143.428803
 30
0.0
 10
102.667999
 20
143.428803
 30
0.0
 10
103.091332
 20
143.428803
 30
0.0
 10
103.091332
 20
143.005470
 30
0.0
 10
103.091332
 20
142.582137
 30
0.0
 10
103.514666
 20
142.582137
 30
0.0
 10
103.937999
 20
142.582137
 30
0.0
 10
103.937999
 20
142.158803
 30
0.0
 10
103.937999
 20
141.735470
 30
0.0
 10
103.514666
 20
141.735470
 30
0.0
 10
103.514666
 20
141.735470
 30
0.0
  0
LWPOLYLINE
  5
139
100
AcDbEntity
  8
Vrstva_1
 62
7
100
AcDbPolyline
 90
10
 70
0
 10
89.121332
 20
146.815470
 30
0.0
 10
86.157999
 20
146.815470
 30
0.0
 10
86.157999
 20
149.778803
 30
0.0
 10
86.157999
 20
152.742137
 30
0.0
 10
89.121332
 20
152.742137
 30
0.0
 10
92.084666
 20
152.742137
 30
0.0
 10
92.084666
 20
149.778803
 30
0.0
 10
92.084666
 20
146.815470
 30
0.0
 10
89.121332
 20
146.815470
 30
0.0
 10
89.121332
 20
146.815470
 30
0.0
  0
LWPOLYLINE
  5
13a
100
AcDbEntity
  8
Vrstva_1
 62
7
100
AcDbPolyline
 90
10
 70
0
 10
89.121332
 20
147.662137
 30
0.0
 10
91.237999
 20
147.662137
 30
0.0
 10
91.237999
 20
149.778803
 30
0.0
 10
91.237999
 20
151.895470
 30
0.0
 10
89.121332
 20
151.895470
 30
0.0
 10
87.004666
 20
151.895470
 30
0.0
 10
87.004666
 20
149.778803
 30
0.0
 10
87.004666
 20
147.662137
 30
0.0
 10
89.121332
 20
147.662137
 30
0.0
 10
89.121332
 20
147.662137
 30
0.0
  0
LWPOLYLINE
  5
13b
100
AcDbEntity
  8
Vrstva_1
 62
7
100
AcDbPolyline
 90
10
 70
0
 10
89.121332
 20
148.508803
 30
0.0
 10
87.851332
 20
148.508803
 30
0.0
 10
87.851332
 20
149.778803
 30
0.0
 10
87.851332
 20
151.048803
 30
0.0
 10
89.121332
 20
151.048803
 30
0.0
 10
90.391332
 20
151.048803
 30
0.0
 10
90.391332
 20
149.778803
 30
0.0
 10
90.391332
 20
148.508803
 30
0.0
 10
89.121332
 20
148.508803
 30
0.0
 10
89.121332
 20
148.508803
 30
0.0
  0
LWPOLYLINE
  5
13c
100
AcDbEntity
  8
Vrstva_1
 62
7
100
AcDbPolyline
 90
10
 70
0
 10
107.747999
 20
146.815470
 30
0.0
 10
104.784666
 20
146.815470
 30
0.0
 10
104.784666
 20
149.778803
 30
0.0
 10
104.784666
 20
152.742137
 30
0.0
 10
107.747999
 20
152.742137
 30
0.0
 10
110.711332
 20
152.742137
 30
0.0
 10
110.711332
 20
149.778803
 30
0.0
 10
110.711332
 20
146.815470
 30
0.0
 10
107.747999
 20
146.815470
 30
0.0
 10
107.747999
 20
146.815470
 30
0.0
  0
LWPOLYLINE
  5
13d
100
AcDbEntity
  8
Vrstva_1
 62
7
100
AcDbPolyline
 90
10
 70
0
 10
107.747999
 20
147.662137
 30
0.0
 10
109.864666
 20
147.662137
 30
0.0
 10
109.864666
 20
149.778803
 30
0.0
 10
109.864666
 20
151.895470
 30
0.0
 10
107.747999
 20
151.895470
 30
0.0
 10
105.631332
 20
151.895470
 30
0.0
 10
105.631332
 20
149.778803
 30
0.0
 10
105.631332
 20
147.662137
 30
0.0
 10
107.747999
 20
147.662137
 30
0.0
 10
107.747999
 20
147.662137
 30
0.0
  0
LWPOLYLINE
  5
13e
100
AcDbEntity
  8
Vrstva_1
 62
7
100
AcDbPolyline
 90
10
 70
0
 10
107.747999
 20
148.508803
 30
0.0
 10
106.477999
 20
148.508803
 30
0.0
 10
106.477999
 20
149.778803
 30
0.0
 10
106.477999
 20
151.048803
 30
0.0
 10
107.747999
 20
151.048803
 30
0.0
 10
109.017999
 20
151.048803
 30
0.0
 10
109.017999
 20
149.778803
 30
0.0
 10
109.017999
 20
148.508803
 30
0.0
 10
107.747999
 20
148.508803
 30
0.0
 10
107.747999
 20
148.508803
 30
0.0
  0
ENDSEC
  0
SECTION
  2
OBJECTS
  0
DICTIONARY
  5
C
330
0
100
AcDbDictionary
  3
ACAD_GROUP
350
D
  3
ACAD_MLINESTYLE
350
17
  0
DICTIONARY
  5
D
330
C
100
AcDbDictionary
  0
DICTIONARY
  5
1A
330
C
100
AcDbDictionary
  0
DICTIONARY
  5
17
330
C
100
AcDbDictionary
  3
STANDARD
350
18
  0
DICTIONARY
  5
19
330
C
100
AcDbDictionary
  0
ENDSEC
  0
EOF
