0
SECTION
2
HEADER
0
ENDSEC
0
SECTION
2
TABLES
0
ENDSEC
0
SECTION
2
BLOCKS
0
ENDSEC
0
SECTION
2
ENTITIES
0
POLYLINE
8
R2V
62
0
66
1
70
8
0
VERTEX
8
R2V
62
0
70
32
10
5.545455
20
1.181818
30
0
0
VERTEX
8
R2V
62
0
70
32
10
5.363636
20
1.636364
30
0
0
VERTEX
8
R2V
62
0
70
32
10
4.363636
20
1.363636
30
0
0
VERTEX
8
R2V
62
0
70
32
10
4.181818
20
1.181818
30
0
0
VERTEX
8
R2V
62
0
70
32
10
3.818182
20
1.272727
30
0
0
VERTEX
8
R2V
62
0
70
32
10
3.454545
20
1.272727
30
0
0
VERTEX
8
R2V
62
0
70
32
10
3.363636
20
1.181818
30
0
0
SEQEND
0
POLYLINE
8
R2V
62
0
66
1
70
8
0
VERTEX
8
R2V
62
0
70
32
10
5.545455
20
1.181818
30
0
0
VERTEX
8
R2V
62
0
70
32
10
6.636364
20
1.181818
30
0
0
VERTEX
8
R2V
62
0
70
32
10
6.454545
20
1.636364
30
0
0
VERTEX
8
R2V
62
0
70
32
10
6.090909
20
1.454545
30
0
0
VERTEX
8
R2V
62
0
70
32
10
6.090909
20
1.181818
30
0
0
SEQEND
0
POLYLINE
8
R2V
62
0
66
1
70
8
0
VERTEX
8
R2V
62
0
70
32
10
5.545455
20
1.181818
30
0
0
VERTEX
8
R2V
62
0
70
32
10
5.000000
20
1.181818
30
0
0
VERTEX
8
R2V
62
0
70
32
10
5.000000
20
1.454545
30
0
0
SEQEND
0
POLYLINE
8
R2V
62
0
66
1
70
8
0
VERTEX
8
R2V
62
0
70
32
10
3.636364
20
1.363636
30
0
0
VERTEX
8
R2V
62
0
70
32
10
3.727273
20
1.818182
30
0
0
VERTEX
8
R2V
62
0
70
32
10
3.727273
20
2.181818
30
0
0
VERTEX
8
R2V
62
0
70
32
10
3.363636
20
2.000000
30
0
0
VERTEX
8
R2V
62
0
70
32
10
3.363636
20
1.727273
30
0
0
VERTEX
8
R2V
62
0
70
32
10
3.636364
20
1.727273
30
0
0
SEQEND
0
POLYLINE
8
R2V
62
0
66
1
70
8
0
VERTEX
8
R2V
62
0
70
32
10
4.454545
20
1.454545
30
0
0
VERTEX
8
R2V
62
0
70
32
10
4.454545
20
1.909091
30
0
0
VERTEX
8
R2V
62
0
70
32
10
4.363636
20
2.000000
30
0
0
VERTEX
8
R2V
62
0
70
32
10
3.818182
20
2.000000
30
0
0
SEQEND
0
POLYLINE
8
R2V
62
0
66
1
70
8
0
VERTEX
8
R2V
62
0
70
32
10
8.545455
20
1.454545
30
0
0
VERTEX
8
R2V
62
0
70
32
10
8.545455
20
1.181818
30
0
0
SEQEND
0
POLYLINE
8
R2V
62
0
66
1
70
8
0
VERTEX
8
R2V
62
0
70
32
10
8.545455
20
1.454545
30
0
0
VERTEX
8
R2V
62
0
70
32
10
8.181818
20
1.636364
30
0
0
VERTEX
8
R2V
62
0
70
32
10
8.000000
20
1.181818
30
0
0
SEQEND
0
POLYLINE
8
R2V
62
0
66
1
70
8
0
VERTEX
8
R2V
62
0
70
32
10
8.545455
20
1.454545
30
0
0
VERTEX
8
R2V
62
0
70
32
10
8.727273
20
1.818182
30
0
0
VERTEX
8
R2V
62
0
70
32
10
7.727273
20
2.181818
30
0
0
VERTEX
8
R2V
62
0
70
32
10
7.727273
20
3.272727
30
0
0
VERTEX
8
R2V
62
0
70
32
10
6.636364
20
3.363636
30
0
0
VERTEX
8
R2V
62
0
70
32
10
6.818182
20
3.818182
30
0
0
VERTEX
8
R2V
62
0
70
32
10
7.000000
20
3.818182
30
0
0
VERTEX
8
R2V
62
0
70
32
10
7.181818
20
3.363636
30
0
0
SEQEND
0
POLYLINE
8
R2V
62
0
66
1
70
8
0
VERTEX
8
R2V
62
0
70
32
10
5.272727
20
1.636364
30
0
0
VERTEX
8
R2V
62
0
70
32
10
5.272727
20
1.909091
30
0
0
SEQEND
0
POLYLINE
8
R2V
62
0
66
1
70
8
0
VERTEX
8
R2V
62
0
70
32
10
6.363636
20
1.636364
30
0
0
VERTEX
8
R2V
62
0
70
32
10
6.363636
20
2.000000
30
0
0
VERTEX
8
R2V
62
0
70
32
10
6.454545
20
2.090909
30
0
0
VERTEX
8
R2V
62
0
70
32
10
6.545455
20
2.181818
30
0
0
VERTEX
8
R2V
62
0
70
32
10
6.636364
20
2.272727
30
0
0
VERTEX
8
R2V
62
0
70
32
10
7.727273
20
2.272727
30
0
0
SEQEND
0
POLYLINE
8
R2V
62
0
66
1
70
8
0
VERTEX
8
R2V
62
0
70
32
10
8.272727
20
1.636364
30
0
0
VERTEX
8
R2V
62
0
70
32
10
8.272727
20
2.000000
30
0
0
SEQEND
0
POLYLINE
8
R2V
62
0
66
1
70
8
0
VERTEX
8
R2V
62
0
70
32
10
6.363636
20
2.000000
30
0
0
VERTEX
8
R2V
62
0
70
32
10
5.818182
20
2.272727
30
0
0
VERTEX
8
R2V
62
0
70
32
10
5.818182
20
2.000000
30
0
0
SEQEND
0
POLYLINE
8
R2V
62
0
66
1
70
8
0
VERTEX
8
R2V
62
0
70
32
10
8.272727
20
2.000000
30
0
0
VERTEX
8
R2V
62
0
70
32
10
8.181818
20
2.090909
30
0
0
SEQEND
0
POLYLINE
8
R2V
62
0
66
1
70
8
0
VERTEX
8
R2V
62
0
70
32
10
8.545455
20
2.000000
30
0
0
VERTEX
8
R2V
62
0
70
32
10
8.818182
20
2.454545
30
0
0
VERTEX
8
R2V
62
0
70
32
10
8.545455
20
2.727273
30
0
0
VERTEX
8
R2V
62
0
70
32
10
8.545455
20
3.090909
30
0
0
VERTEX
8
R2V
62
0
70
32
10
8.727273
20
3.090909
30
0
0
SEQEND
0
POLYLINE
8
R2V
62
0
66
1
70
8
0
VERTEX
8
R2V
62
0
70
32
10
7.818182
20
2.090909
30
0
0
VERTEX
8
R2V
62
0
70
32
10
7.818182
20
2.181818
30
0
0
VERTEX
8
R2V
62
0
70
32
10
7.727273
20
2.272727
30
0
0
SEQEND
0
POLYLINE
8
R2V
62
0
66
1
70
8
0
VERTEX
8
R2V
62
0
70
32
10
7.818182
20
2.090909
30
0
0
VERTEX
8
R2V
62
0
70
32
10
7.454545
20
1.727273
30
0
0
VERTEX
8
R2V
62
0
70
32
10
7.454545
20
1.454545
30
0
0
VERTEX
8
R2V
62
0
70
32
10
7.181818
20
1.454545
30
0
0
VERTEX
8
R2V
62
0
70
32
10
7.181818
20
1.181818
30
0
0
SEQEND
0
POLYLINE
8
R2V
62
0
66
1
70
8
0
VERTEX
8
R2V
62
0
70
32
10
3.545455
20
2.181818
30
0
0
VERTEX
8
R2V
62
0
70
32
10
3.363636
20
2.454545
30
0
0
VERTEX
8
R2V
62
0
70
32
10
3.363636
20
3.363636
30
0
0
VERTEX
8
R2V
62
0
70
32
10
4.818182
20
3.454545
30
0
0
VERTEX
8
R2V
62
0
70
32
10
4.909091
20
3.818182
30
0
0
VERTEX
8
R2V
62
0
70
32
10
4.909091
20
4.818182
30
0
0
VERTEX
8
R2V
62
0
70
32
10
4.363636
20
5.090909
30
0
0
VERTEX
8
R2V
62
0
70
32
10
4.090909
20
5.454545
30
0
0
VERTEX
8
R2V
62
0
70
32
10
4.363636
20
5.545455
30
0
0
SEQEND
0
POLYLINE
8
R2V
62
0
66
1
70
8
0
VERTEX
8
R2V
62
0
70
32
10
6.090909
20
2.272727
30
0
0
VERTEX
8
R2V
62
0
70
32
10
6.272727
20
2.727273
30
0
0
VERTEX
8
R2V
62
0
70
32
10
6.545455
20
2.909091
30
0
0
VERTEX
8
R2V
62
0
70
32
10
6.636364
20
2.272727
30
0
0
SEQEND
0
POLYLINE
8
R2V
62
0
66
1
70
8
0
VERTEX
8
R2V
62
0
70
32
10
3.363636
20
2.818182
30
0
0
VERTEX
8
R2V
62
0
70
32
10
4.000000
20
3.000000
30
0
0
VERTEX
8
R2V
62
0
70
32
10
4.181818
20
2.545455
30
0
0
SEQEND
0
POLYLINE
8
R2V
62
0
66
1
70
8
0
VERTEX
8
R2V
62
0
70
32
10
4.181818
20
2.818182
30
0
0
VERTEX
8
R2V
62
0
70
32
10
4.454545
20
2.818182
30
0
0
VERTEX
8
R2V
62
0
70
32
10
4.636364
20
2.545455
30
0
0
VERTEX
8
R2V
62
0
70
32
10
5.000000
20
2.545455
30
0
0
VERTEX
8
R2V
62
0
70
32
10
5.000000
20
2.818182
30
0
0
VERTEX
8
R2V
62
0
70
32
10
5.181818
20
2.818182
30
0
0
SEQEND
0
POLYLINE
8
R2V
62
0
66
1
70
8
0
VERTEX
8
R2V
62
0
70
32
10
4.454545
20
2.818182
30
0
0
VERTEX
8
R2V
62
0
70
32
10
4.454545
20
3.363636
30
0
0
SEQEND
0
POLYLINE
8
R2V
62
0
66
1
70
8
0
VERTEX
8
R2V
62
0
70
32
10
4.454545
20
2.818182
30
0
0
VERTEX
8
R2V
62
0
70
32
10
4.454545
20
2.727273
30
0
0
SEQEND
0
POLYLINE
8
R2V
62
0
66
1
70
8
0
VERTEX
8
R2V
62
0
70
32
10
3.909091
20
3.000000
30
0
0
VERTEX
8
R2V
62
0
70
32
10
3.909091
20
3.363636
30
0
0
SEQEND
0
POLYLINE
8
R2V
62
0
66
1
70
8
0
VERTEX
8
R2V
62
0
70
32
10
8.545455
20
3.090909
30
0
0
VERTEX
8
R2V
62
0
70
32
10
8.181818
20
3.090909
30
0
0
VERTEX
8
R2V
62
0
70
32
10
8.090909
20
3.181818
30
0
0
VERTEX
8
R2V
62
0
70
32
10
7.818182
20
3.181818
30
0
0
SEQEND
0
POLYLINE
8
R2V
62
0
66
1
70
8
0
VERTEX
8
R2V
62
0
70
32
10
8.181818
20
3.181818
30
0
0
VERTEX
8
R2V
62
0
70
32
10
8.272727
20
4.181818
30
0
0
VERTEX
8
R2V
62
0
70
32
10
8.545455
20
4.181818
30
0
0
VERTEX
8
R2V
62
0
70
32
10
8.545455
20
5.272727
30
0
0
VERTEX
8
R2V
62
0
70
32
10
8.000000
20
5.545455
30
0
0
VERTEX
8
R2V
62
0
70
32
10
8.181818
20
6.000000
30
0
0
VERTEX
8
R2V
62
0
70
32
10
8.636364
20
6.000000
30
0
0
VERTEX
8
R2V
62
0
70
32
10
8.727273
20
5.818182
30
0
0
SEQEND
0
POLYLINE
8
R2V
62
0
66
1
70
8
0
VERTEX
8
R2V
62
0
70
32
10
6.000000
20
3.272727
30
0
0
VERTEX
8
R2V
62
0
70
32
10
6.000000
20
3.090909
30
0
0
VERTEX
8
R2V
62
0
70
32
10
6.272727
20
3.090909
30
0
0
VERTEX
8
R2V
62
0
70
32
10
6.363636
20
3.000000
30
0
0
VERTEX
8
R2V
62
0
70
32
10
6.545455
20
3.000000
30
0
0
VERTEX
8
R2V
62
0
70
32
10
6.636364
20
3.090909
30
0
0
VERTEX
8
R2V
62
0
70
32
10
6.636364
20
3.363636
30
0
0
SEQEND
0
POLYLINE
8
R2V
62
0
66
1
70
8
0
VERTEX
8
R2V
62
0
70
32
10
6.000000
20
3.272727
30
0
0
VERTEX
8
R2V
62
0
70
32
10
5.727273
20
3.454545
30
0
0
VERTEX
8
R2V
62
0
70
32
10
5.727273
20
3.818182
30
0
0
VERTEX
8
R2V
62
0
70
32
10
6.090909
20
4.454545
30
0
0
VERTEX
8
R2V
62
0
70
32
10
6.818182
20
4.454545
30
0
0
SEQEND
0
POLYLINE
8
R2V
62
0
66
1
70
8
0
VERTEX
8
R2V
62
0
70
32
10
6.000000
20
3.272727
30
0
0
VERTEX
8
R2V
62
0
70
32
10
6.090909
20
3.363636
30
0
0
VERTEX
8
R2V
62
0
70
32
10
6.181818
20
3.454545
30
0
0
VERTEX
8
R2V
62
0
70
32
10
6.272727
20
3.545455
30
0
0
VERTEX
8
R2V
62
0
70
32
10
6.363636
20
3.636364
30
0
0
VERTEX
8
R2V
62
0
70
32
10
6.636364
20
3.636364
30
0
0
SEQEND
0
POLYLINE
8
R2V
62
0
66
1
70
8
0
VERTEX
8
R2V
62
0
70
32
10
3.090909
20
3.363636
30
0
0
VERTEX
8
R2V
62
0
70
32
10
3.181818
20
4.000000
30
0
0
VERTEX
8
R2V
62
0
70
32
10
3.545455
20
4.000000
30
0
0
VERTEX
8
R2V
62
0
70
32
10
3.636364
20
3.363636
30
0
0
SEQEND
0
POLYLINE
8
R2V
62
0
66
1
70
8
0
VERTEX
8
R2V
62
0
70
32
10
3.090909
20
3.363636
30
0
0
VERTEX
8
R2V
62
0
70
32
10
3.363636
20
3.363636
30
0
0
SEQEND
0
POLYLINE
8
R2V
62
0
66
1
70
8
0
VERTEX
8
R2V
62
0
70
32
10
3.090909
20
3.363636
30
0
0
VERTEX
8
R2V
62
0
70
32
10
2.181818
20
3.454545
30
0
0
VERTEX
8
R2V
62
0
70
32
10
1.727273
20
3.636364
30
0
0
VERTEX
8
R2V
62
0
70
32
10
1.909091
20
4.090909
30
0
0
VERTEX
8
R2V
62
0
70
32
10
2.090909
20
4.363636
30
0
0
VERTEX
8
R2V
62
0
70
32
10
1.909091
20
4.636364
30
0
0
VERTEX
8
R2V
62
0
70
32
10
2.181818
20
5.090909
30
0
0
VERTEX
8
R2V
62
0
70
32
10
1.909091
20
5.272727
30
0
0
VERTEX
8
R2V
62
0
70
32
10
1.181818
20
5.272727
30
0
0
VERTEX
8
R2V
62
0
70
32
10
1.363636
20
5.727273
30
0
0
VERTEX
8
R2V
62
0
70
32
10
1.636364
20
5.909091
30
0
0
VERTEX
8
R2V
62
0
70
32
10
1.727273
20
5.272727
30
0
0
SEQEND
0
POLYLINE
8
R2V
62
0
66
1
70
8
0
VERTEX
8
R2V
62
0
70
32
10
1.727273
20
3.636364
30
0
0
VERTEX
8
R2V
62
0
70
32
10
1.727273
20
3.363636
30
0
0
VERTEX
8
R2V
62
0
70
32
10
1.454545
20
3.363636
30
0
0
SEQEND
0
POLYLINE
8
R2V
62
0
66
1
70
8
0
VERTEX
8
R2V
62
0
70
32
10
7.181818
20
3.636364
30
0
0
VERTEX
8
R2V
62
0
70
32
10
7.272727
20
3.727273
30
0
0
VERTEX
8
R2V
62
0
70
32
10
7.363636
20
3.818182
30
0
0
SEQEND
0
POLYLINE
8
R2V
62
0
66
1
70
8
0
VERTEX
8
R2V
62
0
70
32
10
4.818182
20
3.818182
30
0
0
VERTEX
8
R2V
62
0
70
32
10
4.727273
20
3.818182
30
0
0
VERTEX
8
R2V
62
0
70
32
10
4.636364
20
3.909091
30
0
0
VERTEX
8
R2V
62
0
70
32
10
4.454545
20
3.909091
30
0
0
VERTEX
8
R2V
62
0
70
32
10
4.454545
20
5.000000
30
0
0
SEQEND
0
POLYLINE
8
R2V
62
0
66
1
70
8
0
VERTEX
8
R2V
62
0
70
32
10
3.090909
20
3.909091
30
0
0
VERTEX
8
R2V
62
0
70
32
10
2.818182
20
3.909091
30
0
0
SEQEND
0
POLYLINE
8
R2V
62
0
66
1
70
8
0
VERTEX
8
R2V
62
0
70
32
10
8.272727
20
3.909091
30
0
0
VERTEX
8
R2V
62
0
70
32
10
8.000000
20
3.909091
30
0
0
SEQEND
0
POLYLINE
8
R2V
62
0
66
1
70
8
0
VERTEX
8
R2V
62
0
70
32
10
5.818182
20
4.181818
30
0
0
VERTEX
8
R2V
62
0
70
32
10
5.181818
20
4.727273
30
0
0
VERTEX
8
R2V
62
0
70
32
10
5.000000
20
4.727273
30
0
0
SEQEND
0
POLYLINE
8
R2V
62
0
66
1
70
8
0
VERTEX
8
R2V
62
0
70
32
10
2.090909
20
4.363636
30
0
0
VERTEX
8
R2V
62
0
70
32
10
2.636364
20
4.636364
30
0
0
VERTEX
8
R2V
62
0
70
32
10
2.727273
20
4.454545
30
0
0
VERTEX
8
R2V
62
0
70
32
10
3.000000
20
4.454545
30
0
0
VERTEX
8
R2V
62
0
70
32
10
3.363636
20
4.181818
30
0
0
VERTEX
8
R2V
62
0
70
32
10
3.636364
20
4.454545
30
0
0
VERTEX
8
R2V
62
0
70
32
10
3.636364
20
5.000000
30
0
0
VERTEX
8
R2V
62
0
70
32
10
3.909091
20
5.000000
30
0
0
VERTEX
8
R2V
62
0
70
32
10
4.090909
20
4.727273
30
0
0
VERTEX
8
R2V
62
0
70
32
10
4.454545
20
4.727273
30
0
0
SEQEND
0
POLYLINE
8
R2V
62
0
66
1
70
8
0
VERTEX
8
R2V
62
0
70
32
10
2.090909
20
4.363636
30
0
0
VERTEX
8
R2V
62
0
70
32
10
2.000000
20
4.363636
30
0
0
SEQEND
0
POLYLINE
8
R2V
62
0
66
1
70
8
0
VERTEX
8
R2V
62
0
70
32
10
6.454545
20
4.545455
30
0
0
VERTEX
8
R2V
62
0
70
32
10
6.454545
20
4.818182
30
0
0
SEQEND
0
POLYLINE
8
R2V
62
0
66
1
70
8
0
VERTEX
8
R2V
62
0
70
32
10
6.454545
20
4.545455
30
0
0
VERTEX
8
R2V
62
0
70
32
10
6.545455
20
4.454545
30
0
0
SEQEND
0
POLYLINE
8
R2V
62
0
66
1
70
8
0
VERTEX
8
R2V
62
0
70
32
10
1.909091
20
4.636364
30
0
0
VERTEX
8
R2V
62
0
70
32
10
1.727273
20
4.636364
30
0
0
VERTEX
8
R2V
62
0
70
32
10
1.636364
20
4.727273
30
0
0
VERTEX
8
R2V
62
0
70
32
10
1.181818
20
4.727273
30
0
0
VERTEX
8
R2V
62
0
70
32
10
1.181818
20
4.454545
30
0
0
SEQEND
0
POLYLINE
8
R2V
62
0
66
1
70
8
0
VERTEX
8
R2V
62
0
70
32
10
2.545455
20
4.636364
30
0
0
VERTEX
8
R2V
62
0
70
32
10
2.545455
20
5.000000
30
0
0
VERTEX
8
R2V
62
0
70
32
10
3.000000
20
5.000000
30
0
0
SEQEND
0
POLYLINE
8
R2V
62
0
66
1
70
8
0
VERTEX
8
R2V
62
0
70
32
10
1.727273
20
4.727273
30
0
0
VERTEX
8
R2V
62
0
70
32
10
1.727273
20
5.272727
30
0
0
SEQEND
0
POLYLINE
8
R2V
62
0
66
1
70
8
0
VERTEX
8
R2V
62
0
70
32
10
5.000000
20
4.727273
30
0
0
VERTEX
8
R2V
62
0
70
32
10
4.909091
20
4.727273
30
0
0
SEQEND
0
POLYLINE
8
R2V
62
0
66
1
70
8
0
VERTEX
8
R2V
62
0
70
32
10
5.272727
20
4.727273
30
0
0
VERTEX
8
R2V
62
0
70
32
10
5.272727
20
5.000000
30
0
0
VERTEX
8
R2V
62
0
70
32
10
5.363636
20
5.090909
30
0
0
VERTEX
8
R2V
62
0
70
32
10
5.454545
20
5.181818
30
0
0
VERTEX
8
R2V
62
0
70
32
10
5.545455
20
5.272727
30
0
0
VERTEX
8
R2V
62
0
70
32
10
5.636364
20
5.363636
30
0
0
VERTEX
8
R2V
62
0
70
32
10
5.727273
20
5.454545
30
0
0
SEQEND
0
POLYLINE
8
R2V
62
0
66
1
70
8
0
VERTEX
8
R2V
62
0
70
32
10
7.454545
20
4.727273
30
0
0
VERTEX
8
R2V
62
0
70
32
10
7.454545
20
4.454545
30
0
0
VERTEX
8
R2V
62
0
70
32
10
7.636364
20
4.454545
30
0
0
SEQEND
0
POLYLINE
8
R2V
62
0
66
1
70
8
0
VERTEX
8
R2V
62
0
70
32
10
7.454545
20
4.727273
30
0
0
VERTEX
8
R2V
62
0
70
32
10
7.363636
20
4.727273
30
0
0
VERTEX
8
R2V
62
0
70
32
10
7.363636
20
4.818182
30
0
0
VERTEX
8
R2V
62
0
70
32
10
7.272727
20
4.909091
30
0
0
VERTEX
8
R2V
62
0
70
32
10
7.181818
20
4.909091
30
0
0
VERTEX
8
R2V
62
0
70
32
10
7.181818
20
5.181818
30
0
0
SEQEND
0
POLYLINE
8
R2V
62
0
66
1
70
8
0
VERTEX
8
R2V
62
0
70
32
10
7.454545
20
4.727273
30
0
0
VERTEX
8
R2V
62
0
70
32
10
7.545455
20
4.818182
30
0
0
VERTEX
8
R2V
62
0
70
32
10
7.636364
20
4.909091
30
0
0
VERTEX
8
R2V
62
0
70
32
10
7.727273
20
5.000000
30
0
0
VERTEX
8
R2V
62
0
70
32
10
8.545455
20
5.000000
30
0
0
SEQEND
0
POLYLINE
8
R2V
62
0
66
1
70
8
0
VERTEX
8
R2V
62
0
70
32
10
2.181818
20
5.000000
30
0
0
VERTEX
8
R2V
62
0
70
32
10
2.545455
20
5.000000
30
0
0
SEQEND
0
POLYLINE
8
R2V
62
0
66
1
70
8
0
VERTEX
8
R2V
62
0
70
32
10
3.909091
20
5.000000
30
0
0
VERTEX
8
R2V
62
0
70
32
10
3.909091
20
5.454545
30
0
0
VERTEX
8
R2V
62
0
70
32
10
3.545455
20
5.636364
30
0
0
VERTEX
8
R2V
62
0
70
32
10
3.181818
20
5.636364
30
0
0
VERTEX
8
R2V
62
0
70
32
10
2.363636
20
5.636364
30
0
0
VERTEX
8
R2V
62
0
70
32
10
1.909091
20
6.090909
30
0
0
VERTEX
8
R2V
62
0
70
32
10
1.454545
20
6.000000
30
0
0
VERTEX
8
R2V
62
0
70
32
10
1.545455
20
6.454545
30
0
0
VERTEX
8
R2V
62
0
70
32
10
1.909091
20
6.636364
30
0
0
VERTEX
8
R2V
62
0
70
32
10
2.181818
20
6.454545
30
0
0
VERTEX
8
R2V
62
0
70
32
10
2.000000
20
6.090909
30
0
0
SEQEND
0
POLYLINE
8
R2V
62
0
66
1
70
8
0
VERTEX
8
R2V
62
0
70
32
10
3.909091
20
5.000000
30
0
0
VERTEX
8
R2V
62
0
70
32
10
3.909091
20
4.909091
30
0
0
SEQEND
0
POLYLINE
8
R2V
62
0
66
1
70
8
0
VERTEX
8
R2V
62
0
70
32
10
4.727273
20
5.000000
30
0
0
VERTEX
8
R2V
62
0
70
32
10
4.818182
20
5.090909
30
0
0
VERTEX
8
R2V
62
0
70
32
10
4.909091
20
5.181818
30
0
0
VERTEX
8
R2V
62
0
70
32
10
5.090909
20
5.181818
30
0
0
VERTEX
8
R2V
62
0
70
32
10
5.181818
20
5.090909
30
0
0
VERTEX
8
R2V
62
0
70
32
10
5.181818
20
5.000000
30
0
0
VERTEX
8
R2V
62
0
70
32
10
5.272727
20
5.000000
30
0
0
SEQEND
0
POLYLINE
8
R2V
62
0
66
1
70
8
0
VERTEX
8
R2V
62
0
70
32
10
5.000000
20
5.181818
30
0
0
VERTEX
8
R2V
62
0
70
32
10
5.000000
20
5.454545
30
0
0
SEQEND
0
POLYLINE
8
R2V
62
0
66
1
70
8
0
VERTEX
8
R2V
62
0
70
32
10
2.000000
20
5.272727
30
0
0
VERTEX
8
R2V
62
0
70
32
10
2.090909
20
5.363636
30
0
0
VERTEX
8
R2V
62
0
70
32
10
2.181818
20
5.454545
30
0
0
VERTEX
8
R2V
62
0
70
32
10
2.272727
20
5.545455
30
0
0
SEQEND
0
POLYLINE
8
R2V
62
0
66
1
70
8
0
VERTEX
8
R2V
62
0
70
32
10
3.363636
20
5.727273
30
0
0
VERTEX
8
R2V
62
0
70
32
10
3.454545
20
6.181818
30
0
0
VERTEX
8
R2V
62
0
70
32
10
4.090909
20
6.181818
30
0
0
VERTEX
8
R2V
62
0
70
32
10
4.727273
20
6.090909
30
0
0
VERTEX
8
R2V
62
0
70
32
10
4.818182
20
6.727273
30
0
0
VERTEX
8
R2V
62
0
70
32
10
5.181818
20
6.727273
30
0
0
VERTEX
8
R2V
62
0
70
32
10
5.363636
20
6.272727
30
0
0
VERTEX
8
R2V
62
0
70
32
10
5.454545
20
6.090909
30
0
0
VERTEX
8
R2V
62
0
70
32
10
6.090909
20
6.090909
30
0
0
VERTEX
8
R2V
62
0
70
32
10
6.545455
20
5.545455
30
0
0
SEQEND
0
POLYLINE
8
R2V
62
0
66
1
70
8
0
VERTEX
8
R2V
62
0
70
32
10
6.363636
20
5.818182
30
0
0
VERTEX
8
R2V
62
0
70
32
10
6.727273
20
6.181818
30
0
0
VERTEX
8
R2V
62
0
70
32
10
7.090909
20
6.181818
30
0
0
VERTEX
8
R2V
62
0
70
32
10
7.181818
20
5.818182
30
0
0
VERTEX
8
R2V
62
0
70
32
10
8.000000
20
5.818182
30
0
0
SEQEND
0
POLYLINE
8
R2V
62
0
66
1
70
8
0
VERTEX
8
R2V
62
0
70
32
10
2.545455
20
6.090909
30
0
0
VERTEX
8
R2V
62
0
70
32
10
2.545455
20
6.636364
30
0
0
VERTEX
8
R2V
62
0
70
32
10
3.090909
20
6.636364
30
0
0
VERTEX
8
R2V
62
0
70
32
10
3.363636
20
6.363636
30
0
0
SEQEND
0
POLYLINE
8
R2V
62
0
66
1
70
8
0
VERTEX
8
R2V
62
0
70
32
10
2.545455
20
6.090909
30
0
0
VERTEX
8
R2V
62
0
70
32
10
3.363636
20
6.090909
30
0
0
SEQEND
0
POLYLINE
8
R2V
62
0
66
1
70
8
0
VERTEX
8
R2V
62
0
70
32
10
2.545455
20
6.090909
30
0
0
VERTEX
8
R2V
62
0
70
32
10
2.545455
20
5.818182
30
0
0
VERTEX
8
R2V
62
0
70
32
10
2.454545
20
5.727273
30
0
0
VERTEX
8
R2V
62
0
70
32
10
2.454545
20
5.636364
30
0
0
SEQEND
0
POLYLINE
8
R2V
62
0
66
1
70
8
0
VERTEX
8
R2V
62
0
70
32
10
8.545455
20
6.090909
30
0
0
VERTEX
8
R2V
62
0
70
32
10
8.545455
20
6.000000
30
0
0
SEQEND
0
POLYLINE
8
R2V
62
0
66
1
70
8
0
VERTEX
8
R2V
62
0
70
32
10
8.545455
20
6.090909
30
0
0
VERTEX
8
R2V
62
0
70
32
10
8.636364
20
6.181818
30
0
0
VERTEX
8
R2V
62
0
70
32
10
8.727273
20
6.272727
30
0
0
VERTEX
8
R2V
62
0
70
32
10
8.818182
20
6.363636
30
0
0
VERTEX
8
R2V
62
0
70
32
10
8.818182
20
6.545455
30
0
0
VERTEX
8
R2V
62
0
70
32
10
8.727273
20
6.636364
30
0
0
VERTEX
8
R2V
62
0
70
32
10
8.545455
20
6.636364
30
0
0
SEQEND
0
POLYLINE
8
R2V
62
0
66
1
70
8
0
VERTEX
8
R2V
62
0
70
32
10
3.909091
20
6.181818
30
0
0
VERTEX
8
R2V
62
0
70
32
10
3.909091
20
6.545455
30
0
0
SEQEND
0
POLYLINE
8
R2V
62
0
66
1
70
8
0
VERTEX
8
R2V
62
0
70
32
10
6.000000
20
6.181818
30
0
0
VERTEX
8
R2V
62
0
70
32
10
6.272727
20
6.454545
30
0
0
VERTEX
8
R2V
62
0
70
32
10
6.727273
20
6.181818
30
0
0
SEQEND
0
POLYLINE
8
R2V
62
0
66
1
70
8
0
VERTEX
8
R2V
62
0
70
32
10
6.000000
20
6.181818
30
0
0
VERTEX
8
R2V
62
0
70
32
10
6.000000
20
6.090909
30
0
0
SEQEND
0
POLYLINE
8
R2V
62
0
66
1
70
8
0
VERTEX
8
R2V
62
0
70
32
10
7.090909
20
6.181818
30
0
0
VERTEX
8
R2V
62
0
70
32
10
7.090909
20
6.272727
30
0
0
VERTEX
8
R2V
62
0
70
32
10
7.181818
20
6.363636
30
0
0
VERTEX
8
R2V
62
0
70
32
10
7.727273
20
6.363636
30
0
0
VERTEX
8
R2V
62
0
70
32
10
7.818182
20
6.454545
30
0
0
VERTEX
8
R2V
62
0
70
32
10
7.909091
20
6.545455
30
0
0
SEQEND
0
POLYLINE
8
R2V
62
0
66
1
70
8
0
VERTEX
8
R2V
62
0
70
32
10
1.454545
20
6.363636
30
0
0
VERTEX
8
R2V
62
0
70
32
10
1.181818
20
6.363636
30
0
0
VERTEX
8
R2V
62
0
70
32
10
1.181818
20
6.545455
30
0
0
SEQEND
0
POLYLINE
8
R2V
62
0
66
1
70
8
0
VERTEX
8
R2V
62
0
70
32
10
2.181818
20
6.363636
30
0
0
VERTEX
8
R2V
62
0
70
32
10
2.545455
20
6.363636
30
0
0
SEQEND
0
POLYLINE
8
R2V
62
0
66
1
70
8
0
VERTEX
8
R2V
62
0
70
32
10
7.181818
20
6.363636
30
0
0
VERTEX
8
R2V
62
0
70
32
10
7.181818
20
6.545455
30
0
0
SEQEND
0
POLYLINE
8
R2V
62
0
66
1
70
8
0
VERTEX
8
R2V
62
0
70
32
10
6.181818
20
6.454545
30
0
0
VERTEX
8
R2V
62
0
70
32
10
6.181818
20
7.272727
30
0
0
VERTEX
8
R2V
62
0
70
32
10
6.545455
20
7.454545
30
0
0
VERTEX
8
R2V
62
0
70
32
10
6.636364
20
7.181818
30
0
0
SEQEND
0
POLYLINE
8
R2V
62
0
66
1
70
8
0
VERTEX
8
R2V
62
0
70
32
10
6.181818
20
6.454545
30
0
0
VERTEX
8
R2V
62
0
70
32
10
6.272727
20
6.363636
30
0
0
SEQEND
0
POLYLINE
8
R2V
62
0
66
1
70
8
0
VERTEX
8
R2V
62
0
70
32
10
6.181818
20
6.454545
30
0
0
VERTEX
8
R2V
62
0
70
32
10
6.090909
20
6.545455
30
0
0
SEQEND
0
POLYLINE
8
R2V
62
0
66
1
70
8
0
VERTEX
8
R2V
62
0
70
32
10
3.090909
20
6.636364
30
0
0
VERTEX
8
R2V
62
0
70
32
10
3.090909
20
6.545455
30
0
0
SEQEND
0
POLYLINE
8
R2V
62
0
66
1
70
8
0
VERTEX
8
R2V
62
0
70
32
10
3.090909
20
6.636364
30
0
0
VERTEX
8
R2V
62
0
70
32
10
3.363636
20
6.909091
30
0
0
VERTEX
8
R2V
62
0
70
32
10
3.545455
20
7.363636
30
0
0
VERTEX
8
R2V
62
0
70
32
10
3.727273
20
7.545455
30
0
0
VERTEX
8
R2V
62
0
70
32
10
4.090909
20
7.545455
30
0
0
VERTEX
8
R2V
62
0
70
32
10
4.454545
20
7.090909
30
0
0
VERTEX
8
R2V
62
0
70
32
10
4.545455
20
6.818182
30
0
0
VERTEX
8
R2V
62
0
70
32
10
4.727273
20
6.636364
30
0
0
SEQEND
0
POLYLINE
8
R2V
62
0
66
1
70
8
0
VERTEX
8
R2V
62
0
70
32
10
5.000000
20
6.818182
30
0
0
VERTEX
8
R2V
62
0
70
32
10
5.090909
20
7.272727
30
0
0
VERTEX
8
R2V
62
0
70
32
10
5.090909
20
7.636364
30
0
0
VERTEX
8
R2V
62
0
70
32
10
4.636364
20
7.545455
30
0
0
VERTEX
8
R2V
62
0
70
32
10
4.181818
20
7.727273
30
0
0
VERTEX
8
R2V
62
0
70
32
10
4.090909
20
7.545455
30
0
0
SEQEND
0
POLYLINE
8
R2V
62
0
66
1
70
8
0
VERTEX
8
R2V
62
0
70
32
10
6.090909
20
6.909091
30
0
0
VERTEX
8
R2V
62
0
70
32
10
5.727273
20
7.000000
30
0
0
VERTEX
8
R2V
62
0
70
32
10
5.545455
20
7.090909
30
0
0
VERTEX
8
R2V
62
0
70
32
10
5.636364
20
7.545455
30
0
0
VERTEX
8
R2V
62
0
70
32
10
6.090909
20
8.454545
30
0
0
VERTEX
8
R2V
62
0
70
32
10
6.090909
20
8.818182
30
0
0
VERTEX
8
R2V
62
0
70
32
10
6.545455
20
8.818182
30
0
0
VERTEX
8
R2V
62
0
70
32
10
6.636364
20
8.545455
30
0
0
SEQEND
0
POLYLINE
8
R2V
62
0
66
1
70
8
0
VERTEX
8
R2V
62
0
70
32
10
4.454545
20
7.181818
30
0
0
VERTEX
8
R2V
62
0
70
32
10
4.545455
20
7.272727
30
0
0
VERTEX
8
R2V
62
0
70
32
10
4.636364
20
7.363636
30
0
0
VERTEX
8
R2V
62
0
70
32
10
4.818182
20
7.363636
30
0
0
VERTEX
8
R2V
62
0
70
32
10
4.909091
20
7.272727
30
0
0
VERTEX
8
R2V
62
0
70
32
10
4.909091
20
7.181818
30
0
0
VERTEX
8
R2V
62
0
70
32
10
5.000000
20
7.181818
30
0
0
SEQEND
0
POLYLINE
8
R2V
62
0
66
1
70
8
0
VERTEX
8
R2V
62
0
70
32
10
5.181818
20
7.454545
30
0
0
VERTEX
8
R2V
62
0
70
32
10
5.545455
20
7.454545
30
0
0
SEQEND
0
POLYLINE
8
R2V
62
0
66
1
70
8
0
VERTEX
8
R2V
62
0
70
32
10
6.363636
20
7.454545
30
0
0
VERTEX
8
R2V
62
0
70
32
10
6.363636
20
7.727273
30
0
0
VERTEX
8
R2V
62
0
70
32
10
6.454545
20
7.818182
30
0
0
VERTEX
8
R2V
62
0
70
32
10
6.545455
20
7.909091
30
0
0
SEQEND
0
POLYLINE
8
R2V
62
0
66
1
70
8
0
VERTEX
8
R2V
62
0
70
32
10
3.727273
20
7.545455
30
0
0
VERTEX
8
R2V
62
0
70
32
10
3.363636
20
8.000000
30
0
0
VERTEX
8
R2V
62
0
70
32
10
3.545455
20
8.363636
30
0
0
VERTEX
8
R2V
62
0
70
32
10
3.363636
20
8.454545
30
0
0
VERTEX
8
R2V
62
0
70
32
10
3.363636
20
8.818182
30
0
0
VERTEX
8
R2V
62
0
70
32
10
3.545455
20
8.818182
30
0
0
SEQEND
0
POLYLINE
8
R2V
62
0
66
1
70
8
0
VERTEX
8
R2V
62
0
70
32
10
3.727273
20
7.545455
30
0
0
VERTEX
8
R2V
62
0
70
32
10
3.636364
20
7.636364
30
0
0
SEQEND
0
POLYLINE
8
R2V
62
0
66
1
70
8
0
VERTEX
8
R2V
62
0
70
32
10
3.909091
20
7.545455
30
0
0
VERTEX
8
R2V
62
0
70
32
10
3.909091
20
7.181818
30
0
0
SEQEND
0
POLYLINE
8
R2V
62
0
66
1
70
8
0
VERTEX
8
R2V
62
0
70
32
10
4.090909
20
7.545455
30
0
0
VERTEX
8
R2V
62
0
70
32
10
4.090909
20
7.454545
30
0
0
SEQEND
0
POLYLINE
8
R2V
62
0
66
1
70
8
0
VERTEX
8
R2V
62
0
70
32
10
5.000000
20
7.636364
30
0
0
VERTEX
8
R2V
62
0
70
32
10
5.454545
20
8.181818
30
0
0
VERTEX
8
R2V
62
0
70
32
10
5.636364
20
8.181818
30
0
0
VERTEX
8
R2V
62
0
70
32
10
5.818182
20
8.000000
30
0
0
SEQEND
0
POLYLINE
8
R2V
62
0
66
1
70
8
0
VERTEX
8
R2V
62
0
70
32
10
5.545455
20
8.181818
30
0
0
VERTEX
8
R2V
62
0
70
32
10
5.545455
20
8.272727
30
0
0
VERTEX
8
R2V
62
0
70
32
10
5.636364
20
8.363636
30
0
0
VERTEX
8
R2V
62
0
70
32
10
5.727273
20
8.454545
30
0
0
VERTEX
8
R2V
62
0
70
32
10
5.818182
20
8.545455
30
0
0
VERTEX
8
R2V
62
0
70
32
10
5.909091
20
8.636364
30
0
0
VERTEX
8
R2V
62
0
70
32
10
6.000000
20
8.636364
30
0
0
SEQEND
0
POLYLINE
8
R2V
62
0
66
1
70
8
0
VERTEX
8
R2V
62
0
70
32
10
3.545455
20
8.272727
30
0
0
VERTEX
8
R2V
62
0
70
32
10
4.000000
20
8.363636
30
0
0
VERTEX
8
R2V
62
0
70
32
10
4.363636
20
8.363636
30
0
0
VERTEX
8
R2V
62
0
70
32
10
4.454545
20
8.272727
30
0
0
VERTEX
8
R2V
62
0
70
32
10
4.636364
20
8.636364
30
0
0
VERTEX
8
R2V
62
0
70
32
10
4.272727
20
8.636364
30
0
0
VERTEX
8
R2V
62
0
70
32
10
4.181818
20
8.454545
30
0
0
SEQEND
0
POLYLINE
8
R2V
62
0
66
1
70
8
0
VERTEX
8
R2V
62
0
70
32
10
4.636364
20
8.545455
30
0
0
VERTEX
8
R2V
62
0
70
32
10
5.000000
20
8.545455
30
0
0
VERTEX
8
R2V
62
0
70
32
10
5.000000
20
8.818182
30
0
0
VERTEX
8
R2V
62
0
70
32
10
5.181818
20
8.818182
30
0
0
SEQEND
0
POLYLINE
8
R2V
62
0
66
1
70
8
0
VERTEX
8
R2V
62
0
70
32
10
1.181818
20
1.181818
30
0
0
VERTEX
8
R2V
62
0
70
32
10
1.181818
20
2.818182
30
0
0
VERTEX
8
R2V
62
0
70
32
10
2.727273
20
2.818182
30
0
0
VERTEX
8
R2V
62
0
70
32
10
2.818182
20
2.727273
30
0
0
VERTEX
8
R2V
62
0
70
32
10
2.818182
20
1.181818
30
0
0
VERTEX
8
R2V
62
0
70
32
10
1.181818
20
1.181818
30
0
0
SEQEND
0
POLYLINE
8
R2V
62
0
66
1
70
8
0
VERTEX
8
R2V
62
0
70
32
10
1.181818
20
7.181818
30
0
0
VERTEX
8
R2V
62
0
70
32
10
1.181818
20
8.818182
30
0
0
VERTEX
8
R2V
62
0
70
32
10
2.727273
20
8.818182
30
0
0
VERTEX
8
R2V
62
0
70
32
10
2.818182
20
8.727273
30
0
0
VERTEX
8
R2V
62
0
70
32
10
2.818182
20
7.181818
30
0
0
VERTEX
8
R2V
62
0
70
32
10
1.181818
20
7.181818
30
0
0
SEQEND
0
POLYLINE
8
R2V
62
0
66
1
70
8
0
VERTEX
8
R2V
62
0
70
32
10
7.181818
20
7.181818
30
0
0
VERTEX
8
R2V
62
0
70
32
10
7.181818
20
8.818182
30
0
0
VERTEX
8
R2V
62
0
70
32
10
8.727273
20
8.818182
30
0
0
VERTEX
8
R2V
62
0
70
32
10
8.818182
20
8.727273
30
0
0
VERTEX
8
R2V
62
0
70
32
10
8.818182
20
7.181818
30
0
0
VERTEX
8
R2V
62
0
70
32
10
7.181818
20
7.181818
30
0
0
SEQEND
0
ENDSEC
0
EOF
