*
*
G04 PADS 9.2 Build Number: 414666 generated Gerber (RS-274-X) file*
G04 PC Version=2.1*
*
%IN "STM32F10XRXT.pcb"*%
*
%MOIN*%
*
%FSLAX35Y35*%
*
*
*
*
G04 PC Standard Apertures*
*
*
G04 Thermal Relief Aperture macro.*
%AMTER*
1,1,$1,0,0*
1,0,$1-$2,0,0*
21,0,$3,$4,0,0,45*
21,0,$3,$4,0,0,135*
%
*
*
G04 Annular Aperture macro.*
%AMANN*
1,1,$1,0,0*
1,0,$2,0,0*
%
*
*
G04 Odd Aperture macro.*
%AMODD*
1,1,$1,0,0*
1,0,$1-0.005,0,0*
%
*
*
G04 PC Custom Aperture Macros*
*
*
*
*
*
*
G04 PC Aperture Table*
*
%ADD024C,0.001*%
%ADD063R,0.116X0.071*%
%ADD064R,0.055X0.072*%
%ADD065R,0.072X0.055*%
%ADD066R,0.071X0.116*%
%ADD067R,0.066X0.121*%
%ADD068R,0.056X0.076*%
%ADD069R,0.121X0.066*%
%ADD070R,0.081X0.081*%
%ADD071R,0.076X0.056*%
%ADD072R,0.086X0.086*%
%ADD073C,0.081*%
%ADD074C,0.16*%
%ADD076R,0.072X0.123*%
%ADD077R,0.067X0.055*%
%ADD078C,0.25213*%
%ADD079R,0.055X0.067*%
%ADD080C,0.086*%
%ADD081O,0.07575X0.03047*%
%ADD082O,0.03047X0.07575*%
%ADD083C,0.071*%
%ADD084R,0.088X0.076*%
%ADD085R,0.086X0.163*%
%ADD086R,0.056X0.056*%
%ADD087C,0.21*%
%ADD088C,0.073*%
*
*
*
*
G04 PC Circuitry*
G04 Layer Name STM32F10XRXT.pcb - circuitry*
%LPD*%
*
*
G04 PC Custom Flashes*
G04 Layer Name STM32F10XRXT.pcb - flashes*
%LPD*%
*
*
G04 PC Circuitry*
G04 Layer Name STM32F10XRXT.pcb - circuitry*
%LPD*%
*
G54D24*
G54D63*
G01X146000Y264500D03*
Y251500D03*
G54D64*
X246800Y235000D03*
X239200D03*
X201300Y223500D03*
X193700D03*
X150700Y203500D03*
X158300D03*
X150700Y195500D03*
X158300D03*
X330800Y180000D03*
X323200D03*
X200300Y215500D03*
X192700D03*
G54D65*
X165000Y223200D03*
Y230800D03*
X173000Y223200D03*
Y230800D03*
X335000Y226800D03*
Y219200D03*
X135000Y256200D03*
Y263800D03*
X332500Y171300D03*
Y163700D03*
X280000Y183700D03*
Y191300D03*
X195000Y284200D03*
Y291800D03*
X239000Y284800D03*
Y277200D03*
G54D66*
X331000Y152500D03*
X344000D03*
G54D67*
X317300Y142500D03*
X297700D03*
X325200Y137500D03*
X344800D03*
G54D68*
X179500Y200500D03*
X191500D03*
X169500Y188500D03*
X181500D03*
G54D69*
X342500Y165200D03*
Y184800D03*
G54D70*
X187000Y110063D03*
Y119937D03*
X157500Y110063D03*
Y119937D03*
X125000Y150000D03*
X115000D03*
X212500D03*
Y140000D03*
X202500Y150000D03*
Y140000D03*
X160000Y315000D03*
Y325000D03*
X192500Y150000D03*
Y140000D03*
X290000Y182500D03*
X300000D03*
X182500Y150000D03*
Y140000D03*
X162500Y150000D03*
Y140000D03*
X152500Y150000D03*
Y140000D03*
X260000Y315000D03*
Y325000D03*
X270000Y315000D03*
Y325000D03*
X280000Y315000D03*
Y325000D03*
X182500Y130000D03*
X192500D03*
X152500D03*
X162500D03*
X290000Y192500D03*
X300000D03*
X290000Y315000D03*
Y325000D03*
X150000Y315000D03*
Y325000D03*
X300000Y315000D03*
Y325000D03*
X186500Y188500D03*
X196500D03*
X310000Y315000D03*
Y325000D03*
X125000Y220000D03*
X115000D03*
X125000Y210000D03*
X115000D03*
X125000Y230000D03*
X115000D03*
X125000Y240000D03*
X115000D03*
X172500Y150000D03*
Y140000D03*
X125000Y250000D03*
X115000D03*
X202500Y125000D03*
Y115000D03*
X125000Y270000D03*
X115000D03*
X210000Y315000D03*
Y325000D03*
X125000Y280000D03*
X115000D03*
X220000Y315000D03*
Y325000D03*
X125000Y290000D03*
X115000D03*
X320000Y315000D03*
Y325000D03*
X125000Y300000D03*
X115000D03*
X290000Y282500D03*
X300000D03*
X140000Y315000D03*
Y325000D03*
X290000Y272500D03*
X300000D03*
X170000Y315000D03*
Y325000D03*
X230000Y315000D03*
Y325000D03*
X290000Y262500D03*
X300000D03*
X224000Y115000D03*
Y125000D03*
X234000Y115000D03*
Y125000D03*
X244000Y115000D03*
Y125000D03*
X254000Y115000D03*
Y125000D03*
X264000Y115000D03*
Y125000D03*
X180000Y315000D03*
Y325000D03*
X262500Y150000D03*
Y140000D03*
X190000Y315000D03*
Y325000D03*
X252500Y150000D03*
Y140000D03*
X200000Y315000D03*
Y325000D03*
X242500Y150000D03*
Y140000D03*
X290000Y252500D03*
X300000D03*
X125000Y160000D03*
X115000D03*
X240000Y315000D03*
Y325000D03*
X290000Y242500D03*
X300000D03*
X290000Y232500D03*
X300000D03*
X290000Y222500D03*
X300000D03*
X290000Y212500D03*
X300000D03*
X290000Y202500D03*
X300000D03*
X355000Y185000D03*
X365000D03*
X282500Y150000D03*
Y140000D03*
X272500Y150000D03*
Y140000D03*
X232500Y150000D03*
Y140000D03*
X125000Y260000D03*
X115000D03*
X250000Y315000D03*
Y325000D03*
X222500Y150000D03*
Y140000D03*
X125000Y170000D03*
X115000D03*
X125000Y180000D03*
X115000D03*
X125000Y190000D03*
X115000D03*
X125000Y200000D03*
X115000D03*
X366000Y252000D03*
X356000D03*
X330000Y296000D03*
X340000D03*
X318000Y190000D03*
Y180000D03*
X335500Y324937D03*
Y315063D03*
G54D71*
X366000Y226500D03*
Y214500D03*
G54D72*
X320000Y115000D03*
Y125000D03*
X330000Y115000D03*
Y125000D03*
X340000Y115000D03*
Y125000D03*
X365000Y150000D03*
X355000D03*
X365000Y160000D03*
X355000D03*
X365000Y170000D03*
X355000D03*
X367000Y269000D03*
X357000Y274000D03*
X367000Y279000D03*
X357000Y284000D03*
X367000Y289000D03*
X357000Y294000D03*
G54D73*
X319000Y225000D03*
Y215000D03*
X327000D03*
Y225000D03*
X201000Y200000D03*
X159142Y231000D03*
X178858D03*
X138000Y125000D03*
Y141500D03*
X214800Y175900D03*
X260500Y184000D03*
X268700Y175900D03*
X310000Y182000D03*
X160000Y277000D03*
X185000D03*
X253000Y266000D03*
Y206000D03*
X260500Y216300D03*
X310000Y247400D03*
G54D74*
X338000Y196000D03*
Y244000D03*
G54D76*
X148000Y275000D03*
X138000D03*
G54D77*
X355000Y200800D03*
Y193200D03*
X282000Y156200D03*
Y163800D03*
X310000Y290200D03*
Y297800D03*
X177000Y128300D03*
Y120700D03*
X147000Y128800D03*
Y121200D03*
X217000Y131800D03*
Y124200D03*
X332000Y281200D03*
Y288800D03*
Y269700D03*
Y277300D03*
X318000Y195200D03*
Y202800D03*
G54D78*
X120000Y120000D03*
X360000Y320000D03*
X120000D03*
X360000Y120000D03*
G54D79*
X188200Y208000D03*
X195800D03*
X251800Y227000D03*
X244200D03*
X305200Y220000D03*
X312800D03*
X305200Y210000D03*
X312800D03*
X231200Y298000D03*
X238800D03*
X343700Y304500D03*
X351300D03*
X203700Y132500D03*
X211300D03*
X251200Y193000D03*
X258800D03*
G54D80*
X280971Y127342D03*
Y110342D03*
X306171D03*
Y127342D03*
X323500Y259900D03*
X340500D03*
Y285100D03*
X323500D03*
G54D81*
X192567Y240736D03*
Y242705D03*
Y244673D03*
Y246642D03*
Y248610D03*
Y250579D03*
Y252547D03*
Y254516D03*
Y256484D03*
Y258453D03*
Y260421D03*
Y262390D03*
Y264358D03*
Y266327D03*
Y268295D03*
Y270264D03*
X238433D03*
Y268295D03*
Y266327D03*
Y264358D03*
Y262390D03*
Y260421D03*
Y258453D03*
Y256484D03*
Y254516D03*
Y252547D03*
Y250579D03*
Y248610D03*
Y246642D03*
Y244673D03*
Y242705D03*
Y240736D03*
G54D82*
X200736Y278433D03*
X202705D03*
X204673D03*
X206642D03*
X208610D03*
X210579D03*
X212547D03*
X214516D03*
X216484D03*
X218453D03*
X220421D03*
X222390D03*
X224358D03*
X226327D03*
X228295D03*
X230264D03*
Y232567D03*
X228295D03*
X226327D03*
X224358D03*
X222390D03*
X220421D03*
X218453D03*
X216484D03*
X214516D03*
X212547D03*
X210579D03*
X208610D03*
X206642D03*
X204673D03*
X202705D03*
X200736D03*
G54D83*
X163500Y196600D03*
Y203400D03*
G54D84*
X322200Y171600D03*
Y153400D03*
Y162500D03*
G54D85*
X297800D03*
G54D86*
X316500Y277500D03*
Y269500D03*
X308500Y273500D03*
G54D87*
X354500Y236000D03*
X275000Y247000D03*
G54D88*
X359900Y263500D03*
X0Y0D02*
M02*
