G75*
G70*
%OFA0B0*%
%FSLAX24Y24*%
%IPPOS*%
%LPD*%
%AMOC8*
5,1,8,0,0,1.08239X$1,22.5*
%
%ADD10C,0.0040*%
%ADD11C,0.0050*%
%ADD12C,0.0060*%
D10*
X001075Y004757D02*
X001228Y004910D01*
X001228Y004450D01*
X001075Y004450D02*
X001382Y004450D01*
X001075Y008757D02*
X001228Y008910D01*
X001228Y008450D01*
X001075Y008450D02*
X001382Y008450D01*
X011575Y008132D02*
X011728Y008285D01*
X011728Y007825D01*
X011575Y007825D02*
X011882Y007825D01*
X001382Y005450D02*
X001075Y005450D01*
X001382Y005757D01*
X001382Y005834D01*
X001305Y005910D01*
X001152Y005910D01*
X001075Y005834D01*
X005882Y007825D02*
X005575Y007825D01*
X005882Y008132D01*
X005882Y008209D01*
X005805Y008285D01*
X005652Y008285D01*
X005575Y008209D01*
X001075Y006834D02*
X001152Y006910D01*
X001305Y006910D01*
X001382Y006834D01*
X001382Y006757D01*
X001305Y006680D01*
X001228Y006680D01*
X001305Y006680D02*
X001382Y006603D01*
X001382Y006527D01*
X001305Y006450D01*
X001152Y006450D01*
X001075Y006527D01*
X009575Y008209D02*
X009652Y008285D01*
X009805Y008285D01*
X009882Y008209D01*
X009882Y008132D01*
X009805Y008055D01*
X009728Y008055D01*
X009805Y008055D02*
X009882Y007978D01*
X009882Y007902D01*
X009805Y007825D01*
X009652Y007825D01*
X009575Y007902D01*
X001305Y007450D02*
X001305Y007910D01*
X001075Y007680D01*
X001382Y007680D01*
X007805Y007825D02*
X007805Y008285D01*
X007575Y008055D01*
X007882Y008055D01*
X006200Y010910D02*
X006200Y010527D01*
X006277Y010450D01*
X006430Y010450D01*
X006507Y010527D01*
X006507Y010910D01*
X006660Y010450D02*
X006660Y010910D01*
X006967Y010450D01*
X006967Y010910D01*
X007121Y010450D02*
X007274Y010450D01*
X007198Y010450D02*
X007198Y010910D01*
X007274Y010910D02*
X007121Y010910D01*
X007735Y010834D02*
X007658Y010910D01*
X007504Y010910D01*
X007428Y010834D01*
X007428Y010757D01*
X007504Y010680D01*
X007658Y010680D01*
X007735Y010603D01*
X007735Y010527D01*
X007658Y010450D01*
X007504Y010450D01*
X007428Y010527D01*
X008195Y010910D02*
X007888Y010910D01*
X007888Y010450D01*
X008195Y010450D01*
X008042Y010680D02*
X007888Y010680D01*
X008348Y010450D02*
X008348Y010910D01*
X008579Y010910D01*
X008655Y010834D01*
X008655Y010680D01*
X008579Y010603D01*
X008348Y010603D01*
X008502Y010603D02*
X008655Y010450D01*
X008809Y010450D02*
X008962Y010450D01*
X008886Y010450D02*
X008886Y010910D01*
X008962Y010910D02*
X008809Y010910D01*
X009116Y010450D02*
X009116Y010757D01*
X009269Y010910D01*
X009423Y010757D01*
X009423Y010450D01*
X009423Y010680D02*
X009116Y010680D01*
X009576Y010910D02*
X009576Y010450D01*
X009883Y010450D01*
X010037Y010527D02*
X010037Y010834D01*
X010113Y010910D01*
X010267Y010910D01*
X010344Y010834D01*
X010344Y010527D01*
X010267Y010450D01*
X010113Y010450D01*
X010037Y010527D01*
X010344Y010834D01*
X010497Y010757D02*
X010650Y010910D01*
X010650Y010450D01*
X010497Y010450D02*
X010804Y010450D01*
X010957Y010450D02*
X010957Y010757D01*
X011111Y010910D01*
X011264Y010757D01*
X011264Y010450D01*
X011264Y010680D02*
X010957Y010680D01*
X013825Y008450D02*
X013825Y008910D01*
X013978Y008757D01*
X014132Y008910D01*
X014132Y008450D01*
X014285Y008910D02*
X014285Y008450D01*
X014592Y008450D01*
X014746Y008450D02*
X014746Y008757D01*
X014899Y008910D01*
X015053Y008757D01*
X015053Y008450D01*
X015053Y008680D02*
X014746Y008680D01*
X015206Y008450D02*
X015206Y008910D01*
X015436Y008910D01*
X015513Y008834D01*
X015513Y008757D01*
X015436Y008680D01*
X015513Y008603D01*
X015513Y008527D01*
X015436Y008450D01*
X015206Y008450D01*
X015206Y008680D02*
X015436Y008680D01*
X014132Y004450D02*
X013825Y004450D01*
X014132Y004757D01*
X014132Y004834D01*
X014055Y004910D01*
X013902Y004910D01*
X013825Y004834D01*
X014285Y004527D02*
X014285Y004834D01*
X014362Y004910D01*
X014516Y004910D01*
X014592Y004834D01*
X014592Y004527D01*
X014516Y004450D01*
X014362Y004450D01*
X014285Y004527D01*
X014592Y004834D01*
X014746Y004757D02*
X014899Y004910D01*
X014899Y004450D01*
X014746Y004450D02*
X015053Y004450D01*
X015206Y004834D02*
X015283Y004910D01*
X015436Y004910D01*
X015513Y004834D01*
X015513Y004757D01*
X015436Y004680D01*
X015360Y004680D01*
X015436Y004680D02*
X015513Y004603D01*
X015513Y004527D01*
X015436Y004450D01*
X015283Y004450D01*
X015206Y004527D01*
X007450Y009527D02*
X007527Y009450D01*
X007603Y009450D01*
X007680Y009527D01*
X007680Y009910D01*
X007603Y009910D02*
X007757Y009910D01*
X007910Y009450D02*
X007910Y009757D01*
X008064Y009910D01*
X008217Y009757D01*
X008217Y009450D01*
X008217Y009680D02*
X007910Y009680D01*
X008678Y009834D02*
X008601Y009910D01*
X008448Y009910D01*
X008371Y009834D01*
X008371Y009527D01*
X008448Y009450D01*
X008601Y009450D01*
X008678Y009527D01*
X008831Y009450D02*
X008831Y009910D01*
X008831Y009680D02*
X009138Y009680D01*
X009138Y009910D02*
X009138Y009450D01*
X009522Y009910D02*
X009368Y009910D01*
X009292Y009834D01*
X009292Y009527D01*
X009368Y009450D01*
X009522Y009450D01*
X009598Y009527D01*
X009598Y009834D01*
X009522Y009910D01*
D11*
X006664Y006649D02*
X006664Y004286D01*
X004696Y004286D02*
X004696Y006649D01*
X004893Y007633D02*
X006467Y007633D01*
X006467Y006649D01*
X006467Y006255D01*
X006271Y006255D01*
X005089Y006255D01*
X004893Y006255D01*
X004893Y006649D01*
X004893Y007633D01*
X006271Y007436D02*
X006271Y006452D01*
X005089Y006452D01*
X005089Y007436D01*
X006271Y007436D01*
X006467Y006649D02*
X006664Y006649D01*
X004893Y006649D02*
X004696Y006649D01*
X006271Y006255D02*
X006271Y005074D01*
X005089Y005074D01*
X005089Y006255D01*
X006664Y004286D02*
X006074Y004286D01*
X005286Y004286D01*
X004696Y004286D01*
X006467Y004089D02*
X006467Y000940D01*
X004893Y000940D01*
X004893Y004089D01*
X005286Y004089D01*
X006074Y004089D01*
X006467Y004089D01*
X006664Y004286D02*
X006664Y000743D01*
X004696Y000743D01*
X004696Y004286D01*
X006074Y004286D02*
X006074Y004089D01*
X005286Y004089D02*
X005286Y004286D01*
X008664Y004286D02*
X008664Y006649D01*
X006696Y006649D02*
X006696Y004286D01*
X006893Y007633D02*
X008467Y007633D01*
X008467Y006649D01*
X008467Y006255D01*
X008271Y006255D01*
X007089Y006255D01*
X006893Y006255D01*
X006893Y006649D01*
X006893Y007633D01*
X008271Y007436D02*
X008271Y006452D01*
X007089Y006452D01*
X007089Y007436D01*
X008271Y007436D01*
X008467Y006649D02*
X008664Y006649D01*
X006893Y006649D02*
X006696Y006649D01*
X008271Y006255D02*
X008271Y005074D01*
X007089Y005074D01*
X007089Y006255D01*
X008664Y004286D02*
X008074Y004286D01*
X007286Y004286D01*
X006696Y004286D01*
X008467Y004089D02*
X008467Y000940D01*
X006893Y000940D01*
X006893Y004089D01*
X007286Y004089D01*
X008074Y004089D01*
X008467Y004089D01*
X008664Y004286D02*
X008664Y000743D01*
X006696Y000743D01*
X006696Y004286D01*
X008074Y004286D02*
X008074Y004089D01*
X007286Y004089D02*
X007286Y004286D01*
X010664Y004286D02*
X010664Y006649D01*
X008696Y006649D02*
X008696Y004286D01*
X008893Y007633D02*
X010467Y007633D01*
X010467Y006649D01*
X010467Y006255D01*
X010271Y006255D01*
X009089Y006255D01*
X008893Y006255D01*
X008893Y006649D01*
X008893Y007633D01*
X010271Y007436D02*
X010271Y006452D01*
X009089Y006452D01*
X009089Y007436D01*
X010271Y007436D01*
X010467Y006649D02*
X010664Y006649D01*
X008893Y006649D02*
X008696Y006649D01*
X010271Y006255D02*
X010271Y005074D01*
X009089Y005074D01*
X009089Y006255D01*
X010664Y004286D02*
X010074Y004286D01*
X009286Y004286D01*
X008696Y004286D01*
X010467Y004089D02*
X010467Y000940D01*
X008893Y000940D01*
X008893Y004089D01*
X009286Y004089D01*
X010074Y004089D01*
X010467Y004089D01*
X010664Y004286D02*
X010664Y000743D01*
X008696Y000743D01*
X008696Y004286D01*
X010074Y004286D02*
X010074Y004089D01*
X009286Y004089D02*
X009286Y004286D01*
X012664Y004286D02*
X012664Y006649D01*
X010696Y006649D02*
X010696Y004286D01*
X010893Y007633D02*
X012467Y007633D01*
X012467Y006649D01*
X012467Y006255D01*
X012271Y006255D01*
X011089Y006255D01*
X010893Y006255D01*
X010893Y006649D01*
X010893Y007633D01*
X012271Y007436D02*
X012271Y006452D01*
X011089Y006452D01*
X011089Y007436D01*
X012271Y007436D01*
X012467Y006649D02*
X012664Y006649D01*
X010893Y006649D02*
X010696Y006649D01*
X012271Y006255D02*
X012271Y005074D01*
X011089Y005074D01*
X011089Y006255D01*
X012664Y004286D02*
X012074Y004286D01*
X011286Y004286D01*
X010696Y004286D01*
X012467Y004089D02*
X012467Y000940D01*
X010893Y000940D01*
X010893Y004089D01*
X011286Y004089D01*
X012074Y004089D01*
X012467Y004089D01*
X012664Y004286D02*
X012664Y000743D01*
X010696Y000743D01*
X010696Y004286D01*
X012074Y004286D02*
X012074Y004089D01*
X011286Y004089D02*
X011286Y004286D01*
X003630Y004180D02*
X003632Y004193D01*
X003637Y004206D01*
X003646Y004217D01*
X003657Y004224D01*
X003670Y004229D01*
X003683Y004230D01*
X003697Y004227D01*
X003709Y004221D01*
X003719Y004212D01*
X003726Y004200D01*
X003730Y004187D01*
X003730Y004173D01*
X003726Y004160D01*
X003719Y004148D01*
X003709Y004139D01*
X003697Y004133D01*
X003683Y004130D01*
X003670Y004131D01*
X003657Y004136D01*
X003646Y004143D01*
X003637Y004154D01*
X003632Y004167D01*
X003630Y004180D01*
D12*
X001680Y004430D02*
X001680Y004930D01*
X001930Y005180D01*
X001680Y005430D01*
X001680Y005930D01*
X001930Y006180D01*
X001680Y004430D02*
X001930Y004180D01*
X001930Y006180D02*
X001680Y006430D01*
X001680Y006930D01*
X001930Y007180D01*
X001680Y007430D02*
X001680Y007930D01*
X001930Y008180D01*
X001680Y008430D01*
X001680Y008930D01*
X001680Y007430D02*
X001930Y007180D01*
X003430Y005180D02*
X003680Y004930D01*
X003430Y006180D02*
X003680Y005930D01*
X003680Y005430D01*
X003430Y005180D01*
X001930Y004180D02*
X003430Y004180D01*
X003680Y004430D01*
X003680Y004930D01*
X003430Y007180D02*
X003680Y006930D01*
X003680Y006430D01*
X003430Y006180D01*
X003680Y007930D02*
X003430Y008180D01*
X003680Y008930D02*
X003680Y008430D01*
X003430Y008180D01*
X003430Y007180D02*
X003680Y007430D01*
X003680Y007930D01*
X003430Y009180D02*
X001930Y009180D01*
X001680Y008930D01*
X003430Y009180D02*
X003680Y008930D01*
M02*
