%
T1C.002F0S0
X011Y011
X029Y011
X029Y033
T2C.035F197S55
X0185Y013
X0185Y014
X0205Y01675
X0195Y01675
X0185Y018
X0185Y019
X0185Y02
X0185Y021
X0185Y022
X0185Y023
X0185Y024
X0185Y025
X0185Y026
X0205Y02725
X0195Y02725
X0185Y03
X0185Y031
X0215Y031
X0215Y03
X0215Y02725
X02525Y02575
X02525Y02475
X02525Y02375
X02525Y02275
X02525Y02075
X02525Y01975
X02525Y01875
X0215Y01675
X0215Y014
X0215Y013
X02625Y01875
X02625Y01975
X02625Y02075
X02625Y02275
X02625Y02375
X02625Y02475
X02625Y02575
T3C.037F197S55
X016389Y019835
X015271Y020376
X016389Y020917
X015271Y021459
X016389Y022
X015271Y022541
X016389Y023083
X015271Y023624
X016389Y024165
T4C.041F139S55
X023Y01375
X023Y01875
T5C.12F035S794
X01583Y01715
X01583Y02685
T6C.12598F035S794
X014Y014
X014Y03
X026Y03
X026Y014
M30
