G04 #@! TF.FileFunction,Copper,L2,Bot,Signal*
%FSLAX46Y46*%
G04 Gerber Fmt 4.6, Leading zero omitted, Abs format (unit mm)*
G04 Created by KiCad (PCBNEW 4.0.2-4+6225~38~ubuntu15.10.1-stable) date Čt 18. únor 2016, 19:33:56 CET*
%MOMM*%
G01*
G04 APERTURE LIST*
%ADD10C,0.300000*%
%ADD11C,0.150000*%
%ADD12R,4.000000X4.000000*%
%ADD13R,1.397000X0.889000*%
%ADD14R,2.499360X2.550160*%
%ADD15R,0.889000X1.397000*%
%ADD16R,2.499360X1.800860*%
%ADD17R,1.800860X2.499360*%
%ADD18R,1.524000X1.524000*%
%ADD19R,3.810000X3.810000*%
%ADD20R,5.500000X3.000000*%
%ADD21C,6.000000*%
%ADD22R,0.800100X1.000760*%
%ADD23R,3.200000X1.000000*%
%ADD24O,1.473200X0.609600*%
%ADD25R,1.676400X1.676400*%
%ADD26R,1.450000X0.450000*%
%ADD27R,0.850000X0.350000*%
%ADD28R,1.400000X2.000000*%
%ADD29R,2.550160X2.700020*%
%ADD30R,0.850000X0.280000*%
%ADD31R,2.050000X3.050000*%
%ADD32R,0.280000X0.850000*%
%ADD33R,0.280000X1.125000*%
%ADD34R,0.400000X0.450000*%
%ADD35C,0.600000*%
%ADD36R,3.330000X3.810000*%
%ADD37R,1.500000X1.050000*%
%ADD38R,1.200000X2.000000*%
%ADD39O,0.609600X1.473200*%
%ADD40C,0.890000*%
%ADD41C,0.890000*%
%ADD42C,0.500000*%
%ADD43C,0.400000*%
%ADD44C,0.180000*%
%ADD45C,0.600000*%
%ADD46C,0.200000*%
%ADD47C,0.250000*%
%ADD48C,0.254000*%
G04 APERTURE END LIST*
D10*
X76723000Y30563429D02*
X77437286Y30563429D01*
X77437286Y32063429D01*
X76223000Y30563429D02*
X76223000Y32063429D01*
X75223000Y32063429D02*
X74937286Y32063429D01*
X74794428Y31992000D01*
X74651571Y31849143D01*
X74580143Y31563429D01*
X74580143Y31063429D01*
X74651571Y30777714D01*
X74794428Y30634857D01*
X74937286Y30563429D01*
X75223000Y30563429D01*
X75365857Y30634857D01*
X75508714Y30777714D01*
X75580143Y31063429D01*
X75580143Y31563429D01*
X75508714Y31849143D01*
X75365857Y31992000D01*
X75223000Y32063429D01*
X73937285Y30563429D02*
X73937285Y32063429D01*
X73080142Y30563429D01*
X73080142Y32063429D01*
X72437285Y31920571D02*
X72365856Y31992000D01*
X72222999Y32063429D01*
X71865856Y32063429D01*
X71722999Y31992000D01*
X71651570Y31920571D01*
X71580142Y31777714D01*
X71580142Y31634857D01*
X71651570Y31420571D01*
X72508713Y30563429D01*
X71580142Y30563429D01*
X70080142Y30706286D02*
X70151571Y30634857D01*
X70365857Y30563429D01*
X70508714Y30563429D01*
X70722999Y30634857D01*
X70865857Y30777714D01*
X70937285Y30920571D01*
X71008714Y31206286D01*
X71008714Y31420571D01*
X70937285Y31706286D01*
X70865857Y31849143D01*
X70722999Y31992000D01*
X70508714Y32063429D01*
X70365857Y32063429D01*
X70151571Y31992000D01*
X70080142Y31920571D01*
X69437285Y31349143D02*
X68937285Y31349143D01*
X68722999Y30563429D02*
X69437285Y30563429D01*
X69437285Y32063429D01*
X68722999Y32063429D01*
X67365856Y30563429D02*
X68080142Y30563429D01*
X68080142Y32063429D01*
X66151570Y30563429D02*
X66865856Y30563429D01*
X66865856Y32063429D01*
X65365856Y32063429D02*
X65222999Y32063429D01*
X65080142Y31992000D01*
X65008713Y31920571D01*
X64937284Y31777714D01*
X64865856Y31492000D01*
X64865856Y31134857D01*
X64937284Y30849143D01*
X65008713Y30706286D01*
X65080142Y30634857D01*
X65222999Y30563429D01*
X65365856Y30563429D01*
X65508713Y30634857D01*
X65580142Y30706286D01*
X65651570Y30849143D01*
X65722999Y31134857D01*
X65722999Y31492000D01*
X65651570Y31777714D01*
X65580142Y31920571D01*
X65508713Y31992000D01*
X65365856Y32063429D01*
X63437285Y30563429D02*
X64294428Y30563429D01*
X63865856Y30563429D02*
X63865856Y32063429D01*
X64008713Y31849143D01*
X64151571Y31706286D01*
X64294428Y31634857D01*
X62794428Y30563429D02*
X62794428Y32063429D01*
X62437285Y32063429D01*
X62223000Y31992000D01*
X62080142Y31849143D01*
X62008714Y31706286D01*
X61937285Y31420571D01*
X61937285Y31206286D01*
X62008714Y30920571D01*
X62080142Y30777714D01*
X62223000Y30634857D01*
X62437285Y30563429D01*
X62794428Y30563429D01*
X73917428Y33611429D02*
X73917428Y35111429D01*
X73417428Y34040000D01*
X72917428Y35111429D01*
X72917428Y33611429D01*
X71488856Y33611429D02*
X72203142Y33611429D01*
X72203142Y35111429D01*
X71060285Y34040000D02*
X70345999Y34040000D01*
X71203142Y33611429D02*
X70703142Y35111429D01*
X70203142Y33611429D01*
X69203142Y34397143D02*
X68988856Y34325714D01*
X68917428Y34254286D01*
X68845999Y34111429D01*
X68845999Y33897143D01*
X68917428Y33754286D01*
X68988856Y33682857D01*
X69131714Y33611429D01*
X69703142Y33611429D01*
X69703142Y35111429D01*
X69203142Y35111429D01*
X69060285Y35040000D01*
X68988856Y34968571D01*
X68917428Y34825714D01*
X68917428Y34682857D01*
X68988856Y34540000D01*
X69060285Y34468571D01*
X69203142Y34397143D01*
X69703142Y34397143D01*
X68203142Y33754286D02*
X68131714Y33682857D01*
X68203142Y33611429D01*
X68274571Y33682857D01*
X68203142Y33754286D01*
X68203142Y33611429D01*
X66631713Y33754286D02*
X66703142Y33682857D01*
X66917428Y33611429D01*
X67060285Y33611429D01*
X67274570Y33682857D01*
X67417428Y33825714D01*
X67488856Y33968571D01*
X67560285Y34254286D01*
X67560285Y34468571D01*
X67488856Y34754286D01*
X67417428Y34897143D01*
X67274570Y35040000D01*
X67060285Y35111429D01*
X66917428Y35111429D01*
X66703142Y35040000D01*
X66631713Y34968571D01*
X66131713Y35111429D02*
X65131713Y35111429D01*
X66131713Y33611429D01*
X65131713Y33611429D01*
D11*
X41038780Y6659880D02*
X40733980Y6979920D01*
X41023540Y6697980D02*
X41295320Y6972300D01*
X41295320Y6667500D02*
X40726360Y6662420D01*
X43705780Y6659880D02*
X43400980Y6979920D01*
X43690540Y6697980D02*
X43962320Y6972300D01*
X43962320Y6667500D02*
X43393360Y6662420D01*
X46372780Y6659880D02*
X46067980Y6979920D01*
X46357540Y6697980D02*
X46629320Y6972300D01*
X46629320Y6667500D02*
X46060360Y6662420D01*
X49039780Y6659880D02*
X48734980Y6979920D01*
X49024540Y6697980D02*
X49296320Y6972300D01*
X49296320Y6667500D02*
X48727360Y6662420D01*
X51706780Y6659880D02*
X51401980Y6979920D01*
X51691540Y6697980D02*
X51963320Y6972300D01*
X51963320Y6667500D02*
X51394360Y6662420D01*
X54373780Y6659880D02*
X54068980Y6979920D01*
X54358540Y6697980D02*
X54630320Y6972300D01*
X54630320Y6667500D02*
X54061360Y6662420D01*
X57040780Y6659880D02*
X56735980Y6979920D01*
X57025540Y6697980D02*
X57297320Y6972300D01*
X57297320Y6667500D02*
X56728360Y6662420D01*
X59707780Y6659880D02*
X59402980Y6979920D01*
X59692540Y6697980D02*
X59964320Y6972300D01*
X59964320Y6667500D02*
X59395360Y6662420D01*
X23258780Y58094880D02*
X22953980Y58414920D01*
X23243540Y58132980D02*
X23515320Y58407300D01*
X23515320Y58102500D02*
X22946360Y58097420D01*
X28338780Y58094880D02*
X28033980Y58414920D01*
X28323540Y58132980D02*
X28595320Y58407300D01*
X28595320Y58102500D02*
X28026360Y58097420D01*
X33418780Y58094880D02*
X33113980Y58414920D01*
X33403540Y58132980D02*
X33675320Y58407300D01*
X33675320Y58102500D02*
X33106360Y58097420D01*
D12*
X4326500Y40511000D03*
X76826500Y40511000D03*
X4326500Y21211000D03*
X76826500Y21211000D03*
D13*
X8890000Y27876500D03*
X8890000Y25971500D03*
D14*
X17272000Y43718480D03*
X17272000Y48768000D03*
D13*
X20193000Y44132500D03*
X20193000Y42227500D03*
X8890000Y31559500D03*
X8890000Y29654500D03*
D15*
X11493500Y31496000D03*
X13398500Y31496000D03*
D13*
X21717000Y48196500D03*
X21717000Y50101500D03*
X21869400Y44132500D03*
X21869400Y42227500D03*
X15748000Y30035500D03*
X15748000Y31940500D03*
X32766000Y47434500D03*
X32766000Y49339500D03*
X24765000Y23431500D03*
X24765000Y21526500D03*
X50419000Y25463500D03*
X50419000Y23558500D03*
X62992000Y26098500D03*
X62992000Y24193500D03*
X69469000Y18224500D03*
X69469000Y16319500D03*
D15*
X63055500Y22352000D03*
X64960500Y22352000D03*
X63055500Y28448000D03*
X64960500Y28448000D03*
D13*
X53911500Y31305500D03*
X53911500Y33210500D03*
X46863000Y21145500D03*
X46863000Y19240500D03*
D16*
X9718040Y49276000D03*
X13716000Y49276000D03*
D17*
X18542000Y40098980D03*
X18542000Y36101020D03*
D18*
X19558000Y57150000D03*
X19558000Y54610000D03*
X17018000Y57150000D03*
X17018000Y54610000D03*
X14478000Y57150000D03*
X14478000Y54610000D03*
X11938000Y57150000D03*
X11938000Y54610000D03*
X49022000Y54356000D03*
X49022000Y56896000D03*
X38862000Y56896000D03*
X38862000Y54356000D03*
X43942000Y56896000D03*
X43942000Y54356000D03*
X46482000Y54356000D03*
X46482000Y56896000D03*
X41402000Y54356000D03*
X41402000Y56896000D03*
X31750000Y3810000D03*
X31750000Y6350000D03*
X34290000Y3810000D03*
X34290000Y6350000D03*
X36830000Y3810000D03*
X36830000Y6350000D03*
X39370000Y3810000D03*
X39370000Y6350000D03*
D19*
X14939000Y7874000D03*
X19939000Y7874000D03*
X14939000Y2921000D03*
X19939000Y2921000D03*
D18*
X62865000Y52451000D03*
X62865000Y54991000D03*
X65405000Y52451000D03*
X65405000Y54991000D03*
X67945000Y52451000D03*
X67945000Y54991000D03*
X59690000Y56896000D03*
X59690000Y54356000D03*
X57150000Y56896000D03*
X57150000Y54356000D03*
X54610000Y56896000D03*
X54610000Y54356000D03*
X52070000Y56896000D03*
X52070000Y54356000D03*
D20*
X27559000Y38909000D03*
X27559000Y28909000D03*
D21*
X76200000Y5080000D03*
X5080000Y55880000D03*
X5080000Y5080000D03*
X76200000Y55880000D03*
D22*
X18923000Y32214820D03*
X17970500Y30015180D03*
X19875500Y30015180D03*
D13*
X6477000Y32956500D03*
X6477000Y34861500D03*
D15*
X6794500Y28067000D03*
X4889500Y28067000D03*
X6794500Y30353000D03*
X4889500Y30353000D03*
D13*
X46482000Y51498500D03*
X46482000Y49593500D03*
X35052000Y51308000D03*
X35052000Y49403000D03*
X22479000Y51625500D03*
X22479000Y53530500D03*
X27432000Y51498500D03*
X27432000Y53403500D03*
X32385000Y51498500D03*
X32385000Y53403500D03*
D15*
X15811500Y27686000D03*
X17716500Y27686000D03*
D13*
X17081500Y26035000D03*
X17081500Y24130000D03*
X25908000Y48196500D03*
X25908000Y50101500D03*
X23876000Y48196500D03*
X23876000Y50101500D03*
D15*
X32829500Y45593000D03*
X34734500Y45593000D03*
D13*
X30099000Y49339500D03*
X30099000Y47434500D03*
D23*
X36957000Y37517000D03*
X36957000Y31317000D03*
D13*
X65532000Y24193500D03*
X65532000Y26098500D03*
D15*
X69786500Y25908000D03*
X67881500Y25908000D03*
D13*
X71501000Y13398500D03*
X71501000Y15303500D03*
X15240000Y24130000D03*
X15240000Y26035000D03*
X55943500Y33210500D03*
X55943500Y31305500D03*
D15*
X51689000Y29273500D03*
X53594000Y29273500D03*
D13*
X51308000Y35179000D03*
X51308000Y37084000D03*
X51308000Y31877000D03*
X51308000Y33782000D03*
X42545000Y8699500D03*
X42545000Y10604500D03*
X45212000Y8699500D03*
X45212000Y10604500D03*
X47879000Y8699500D03*
X47879000Y10604500D03*
X50546000Y8699500D03*
X50546000Y10604500D03*
X53213000Y8699500D03*
X53213000Y10604500D03*
X55880000Y8699500D03*
X55880000Y10604500D03*
X58547000Y8699500D03*
X58547000Y10604500D03*
D24*
X48895000Y12954000D03*
X48895000Y14224000D03*
X48895000Y15494000D03*
X48895000Y16764000D03*
X54483000Y16764000D03*
X54483000Y15494000D03*
X54483000Y14224000D03*
X54483000Y12954000D03*
X48895000Y18034000D03*
X48895000Y19304000D03*
X48895000Y20574000D03*
X54483000Y18034000D03*
X54483000Y19304000D03*
X54483000Y20574000D03*
D25*
X70333000Y7838000D03*
X70333000Y3338000D03*
X64033000Y7838000D03*
X64033000Y3338000D03*
D26*
X53819000Y22942000D03*
X53819000Y23592000D03*
X53819000Y24242000D03*
X53819000Y24892000D03*
X53819000Y25542000D03*
X53819000Y26192000D03*
X53819000Y26842000D03*
X59719000Y26842000D03*
X59719000Y26192000D03*
X59719000Y25542000D03*
X59719000Y24892000D03*
X59719000Y24242000D03*
X59719000Y23592000D03*
X59719000Y22942000D03*
D27*
X10971000Y28123000D03*
X10971000Y28773000D03*
X10971000Y29423000D03*
X13921000Y29423000D03*
X13921000Y28773000D03*
X13921000Y28123000D03*
X13921000Y27473000D03*
X10971000Y27473000D03*
D28*
X12446000Y28448000D03*
D29*
X35433000Y24384000D03*
X29083000Y24384000D03*
D18*
X70485000Y52451000D03*
X70485000Y54991000D03*
D30*
X25326000Y41938000D03*
D31*
X27051000Y43688000D03*
D30*
X25326000Y42438000D03*
X25326000Y42938000D03*
X25326000Y43438000D03*
X25326000Y43938000D03*
X25326000Y44438000D03*
X25326000Y44938000D03*
X25326000Y45438000D03*
D32*
X26301000Y45913000D03*
X27801000Y45913000D03*
D30*
X28776000Y45438000D03*
X28776000Y44938000D03*
X28776000Y44438000D03*
X28776000Y43938000D03*
X28776000Y43438000D03*
X28776000Y42938000D03*
X28776000Y42438000D03*
X28776000Y41938000D03*
D32*
X27801000Y41463000D03*
X26301000Y41463000D03*
D10*
G36*
X27491000Y41050500D02*
X27211000Y41050500D01*
X27211000Y42175500D01*
X27491000Y42175500D01*
X27491000Y41050500D01*
X27491000Y41050500D01*
G37*
D33*
X26751000Y41613000D03*
X26751000Y45763000D03*
X27351000Y45763000D03*
D34*
X27051000Y41938000D03*
X27051000Y45438000D03*
D35*
X27686000Y42545000D03*
X27686000Y44831000D03*
X26416000Y44831000D03*
X26416000Y42545000D03*
X27051000Y43688000D03*
D13*
X61214000Y8699500D03*
X61214000Y10604500D03*
D36*
X9282000Y36322000D03*
X15102000Y36322000D03*
X36968000Y42164000D03*
X42788000Y42164000D03*
D37*
X42545000Y2445000D03*
X42545000Y6445000D03*
X45212000Y2445000D03*
X45212000Y6445000D03*
X47879000Y2445000D03*
X47879000Y6445000D03*
X50546000Y2445000D03*
X50546000Y6445000D03*
X53213000Y2445000D03*
X53213000Y6445000D03*
X55880000Y2445000D03*
X55880000Y6445000D03*
X58547000Y2445000D03*
X58547000Y6445000D03*
X61214000Y2445000D03*
X61214000Y6445000D03*
X24765000Y53880000D03*
X24765000Y57880000D03*
X29845000Y53880000D03*
X29845000Y57880000D03*
X34925000Y53880000D03*
X34925000Y57880000D03*
D38*
X10668000Y24892000D03*
X13208000Y24892000D03*
D13*
X46990000Y37147500D03*
X46990000Y39052500D03*
D14*
X50609500Y44752260D03*
X50609500Y39702740D03*
D39*
X49212500Y29781500D03*
X47942500Y29781500D03*
X46672500Y29781500D03*
X45402500Y29781500D03*
X45402500Y35369500D03*
X46672500Y35369500D03*
X47942500Y35369500D03*
X49212500Y35369500D03*
D15*
X56134000Y34988500D03*
X54229000Y34988500D03*
X57467500Y36893500D03*
X55562500Y36893500D03*
D22*
X15684500Y19791680D03*
X16637000Y21991320D03*
X14732000Y21991320D03*
D23*
X72517000Y21411000D03*
X72517000Y27611000D03*
D40*
X32639000Y13208000D03*
X10922000Y34290000D03*
X16764000Y28956000D03*
X39624000Y49784000D03*
X38735000Y48895000D03*
X39878000Y50927000D03*
X38608000Y51054000D03*
X38100000Y50292000D03*
X37592000Y49149000D03*
X37465000Y48006000D03*
X36830612Y47116388D03*
X36068612Y46354388D03*
X36957000Y45339000D03*
X37973000Y46355000D03*
X38862000Y47371000D03*
X39751000Y48387000D03*
X40640000Y49403000D03*
X41656000Y50419000D03*
X33908924Y48346468D03*
X55910480Y24241760D03*
X18445480Y41915080D03*
X20259040Y39268400D03*
X22316440Y39248080D03*
X15331440Y39293800D03*
X20891500Y50736500D03*
X52621491Y32575500D03*
X43357800Y15189200D03*
X45161200Y16967200D03*
X27965400Y47091598D03*
X73533000Y28956000D03*
X72263000Y28956000D03*
X71120000Y28956000D03*
X69596000Y28956000D03*
X76708000Y27813000D03*
X76581000Y29083000D03*
X74930000Y29083000D03*
X75438000Y27686000D03*
X12446000Y26924000D03*
X14668500Y15811500D03*
X14732000Y17208500D03*
X13271500Y17589500D03*
X11620500Y17589500D03*
X9779000Y17589500D03*
X8255000Y17589500D03*
X6477000Y17589500D03*
X4635500Y17589500D03*
X2857500Y17335500D03*
X3619500Y16065500D03*
X5016500Y14986000D03*
X7175500Y14478000D03*
X8953500Y14478000D03*
X10604500Y14478000D03*
X12446000Y14541500D03*
X14351000Y14351000D03*
X4127500Y33909000D03*
X4572000Y32575500D03*
X1270000Y36004500D03*
X60198000Y34163000D03*
X51308000Y46926500D03*
X53975000Y49720500D03*
X59372500Y49657000D03*
X57467500Y47815500D03*
X77406500Y44577000D03*
X72009000Y44386500D03*
X66929000Y44450000D03*
X49593500Y50165000D03*
X51371500Y52070000D03*
X49974500Y32575500D03*
X47815500Y33528000D03*
X48958500Y37274500D03*
X54546500Y44577000D03*
X52959000Y44640500D03*
X33528000Y11557000D03*
X41021000Y22161500D03*
X39687500Y20891500D03*
X37846000Y18923000D03*
X35433000Y16637000D03*
X33528000Y15811500D03*
X31115000Y15811500D03*
X29210000Y15748000D03*
X26733500Y15811500D03*
X24701500Y15748000D03*
X24892000Y18732500D03*
X48895000Y33083500D03*
X46736000Y27114500D03*
X44196000Y36258500D03*
X44259500Y32766000D03*
X43688000Y27775180D03*
X8890000Y24637999D03*
X7620000Y24638000D03*
X41402000Y23622000D03*
X39116000Y23368000D03*
X36322000Y21336000D03*
X34544000Y21336000D03*
X32766000Y20320000D03*
X30734000Y20320000D03*
X73152000Y9398000D03*
X73152000Y11430000D03*
X73406000Y13208000D03*
X73406000Y14986000D03*
X76962000Y37338000D03*
X68834000Y37338000D03*
X60198000Y37338000D03*
X60198000Y29972000D03*
X61214000Y28194000D03*
X59944000Y28194000D03*
X69596000Y13208000D03*
X70104000Y11938000D03*
X70104000Y10414000D03*
X64262000Y11938000D03*
X64262000Y13462000D03*
X64262000Y14986000D03*
X64262000Y18288000D03*
X67056000Y19050000D03*
X67564000Y17018000D03*
X13970000Y42672000D03*
X12446000Y43180000D03*
X11049000Y42672000D03*
X9017000Y41910000D03*
X7874000Y46228000D03*
X9398000Y44323000D03*
X29337000Y20319994D03*
X27813002Y20320002D03*
X26162000Y20447000D03*
X17399000Y30586680D03*
X73406000Y16510000D03*
X72136000Y17526000D03*
X71628000Y19050000D03*
X73152000Y18288000D03*
X74930000Y17272000D03*
X76454000Y17272000D03*
X77978000Y17272000D03*
X79502000Y17272000D03*
X71628000Y26289000D03*
X73152000Y26289000D03*
X76200000Y26416000D03*
X77724000Y26416000D03*
X79248000Y26416000D03*
X79248000Y25146000D03*
X77724000Y25146000D03*
X76200000Y25146000D03*
X74676000Y25146000D03*
X73660000Y24765000D03*
X72390000Y24765000D03*
X71247000Y24892000D03*
X69850000Y27432000D03*
X68326000Y27432000D03*
X28829000Y2921000D03*
X27686000Y2921000D03*
X26543000Y2921000D03*
X25400000Y2921000D03*
X24257000Y2921000D03*
X22987000Y2921000D03*
X44196000Y25019000D03*
X43180000Y24003000D03*
X69469000Y14859000D03*
X24910607Y50101500D03*
X46228000Y48260000D03*
X9906000Y57404000D03*
X9906000Y56261000D03*
X9906000Y55118000D03*
X9906000Y53848000D03*
X9906000Y52578000D03*
X11684000Y44450000D03*
X11684000Y45720000D03*
X10414000Y45720000D03*
X10541000Y40386000D03*
X9144000Y40386000D03*
X39370000Y11938000D03*
X39370000Y13716000D03*
X39878000Y15240000D03*
X70358000Y50292000D03*
X71501000Y50292000D03*
X72517000Y50292000D03*
X73787000Y50292000D03*
X15748000Y33147000D03*
X14224000Y33147000D03*
X9652000Y33147000D03*
X42418000Y13208000D03*
X46736000Y17780000D03*
X12192000Y4318000D03*
X12192000Y3048000D03*
X12192000Y1524000D03*
X65913000Y14859000D03*
X61468000Y18542000D03*
X58420000Y21590000D03*
X59690000Y20320000D03*
X66548000Y9144000D03*
X68199000Y9144000D03*
X65532000Y9652000D03*
X64389000Y9652000D03*
X44704000Y46736000D03*
X42926000Y45212000D03*
X44450000Y45212000D03*
X46228000Y46672500D03*
X45529500Y44323000D03*
X30480000Y1524000D03*
X32004000Y1524000D03*
X33528000Y1524000D03*
X35052000Y1524000D03*
X36576000Y1524000D03*
X38100000Y1524000D03*
X54864000Y59182000D03*
X56388000Y59182000D03*
X57912000Y59182000D03*
X59436000Y59182000D03*
X60960000Y59182000D03*
X7620000Y49276000D03*
X7620000Y48006000D03*
X16764000Y45720000D03*
X15494000Y45720000D03*
X14224000Y45720000D03*
X12954000Y45720000D03*
X2540000Y50038000D03*
X4318000Y50038000D03*
X6096000Y50038000D03*
X2540000Y48768000D03*
X2540000Y47498000D03*
X2540000Y46228000D03*
X2540000Y44958000D03*
X2540000Y43688000D03*
X4064000Y43688000D03*
X5588000Y43688000D03*
X7112000Y43688000D03*
X20066000Y53086000D03*
X28448000Y49276000D03*
X26924000Y46990000D03*
X67818000Y48768000D03*
X66294000Y47244000D03*
X65024000Y45974000D03*
X63500000Y44450000D03*
X66294000Y28448000D03*
X68072000Y28956000D03*
X50927000Y21209000D03*
X50165000Y22098000D03*
X40386000Y52451000D03*
X36957000Y31317000D03*
X34536057Y37632179D03*
X52387500Y27178000D03*
X69342000Y19812000D03*
X21183600Y45237400D03*
X22352000Y57912000D03*
X23799800Y38430200D03*
X36576000Y57912000D03*
X33374555Y40240311D03*
X31032131Y45742040D03*
X66548000Y20955000D03*
X57213500Y16764000D03*
X57213500Y9652000D03*
X55880000Y16510000D03*
X55880000Y11811000D03*
X58420000Y15113000D03*
X58420000Y11811000D03*
X52514500Y24193500D03*
X47434500Y14224000D03*
X41427400Y2387600D03*
X53149500Y35052000D03*
X50927000Y26543000D03*
X41148000Y11176000D03*
X51371500Y34480500D03*
X48958500Y28321000D03*
X14834564Y28826891D03*
X13396489Y26304571D03*
X31318200Y41148000D03*
X30988000Y57912000D03*
X34335720Y43845480D03*
X36377519Y49445082D03*
D41*
X51689000Y29273500D02*
X51495534Y29273500D01*
X51495534Y29273500D02*
X49088544Y31680490D01*
X49088544Y31680490D02*
X47480270Y31680490D01*
X47480270Y31680490D02*
X45656990Y33503770D01*
X45656990Y34187230D02*
X45656990Y33503770D01*
X45656990Y34353990D02*
X45656990Y33503770D01*
X46672500Y35369500D02*
X45656990Y34353990D01*
X32639000Y13208000D02*
X35877500Y13208000D01*
X35877500Y13208000D02*
X51689000Y29019500D01*
X51689000Y29019500D02*
X51689000Y29273500D01*
D42*
X46672500Y35369500D02*
X46672500Y36830000D01*
X46672500Y36830000D02*
X46990000Y37147500D01*
D41*
X45656990Y34187230D02*
X45656990Y35115010D01*
X45656990Y35115010D02*
X45402500Y35369500D01*
X45910500Y35369500D02*
X46672500Y35369500D01*
X45402500Y35369500D02*
X45910500Y35369500D01*
X45910500Y35369500D02*
X45910500Y34440740D01*
X45910500Y34440740D02*
X45656990Y34187230D01*
D43*
X9282000Y36322000D02*
X9282000Y35930000D01*
X9282000Y35930000D02*
X10922000Y34290000D01*
X17716500Y27686000D02*
X17716500Y28003500D01*
X17716500Y28003500D02*
X16764000Y28956000D01*
X17716500Y27686000D02*
X17716500Y27800270D01*
X10414000Y35190000D02*
X9282000Y36322000D01*
X5778999Y39179999D02*
X5334000Y38735000D01*
X5836325Y39237325D02*
X5778999Y39179999D01*
X5836325Y39243000D02*
X5836325Y39237325D01*
X6217325Y39243000D02*
X5836325Y39243000D01*
X7048999Y40125001D02*
X7048999Y40074674D01*
X4390000Y40384000D02*
X6790000Y40384000D01*
X6644000Y39243000D02*
X5836325Y39243000D01*
X9565000Y36322000D02*
X6644000Y39243000D01*
X7048999Y40074674D02*
X6217325Y39243000D01*
X6790000Y40384000D02*
X7048999Y40125001D01*
X17589500Y27686000D02*
X17546756Y27686000D01*
X8890000Y27876500D02*
X8890000Y29654500D01*
X6794500Y28067000D02*
X8699500Y28067000D01*
X8699500Y28067000D02*
X8890000Y27876500D01*
X10971000Y28123000D02*
X9136500Y28123000D01*
X9136500Y28123000D02*
X8890000Y27876500D01*
X8763000Y28003500D02*
X8890000Y27876500D01*
D42*
X38735000Y48895000D02*
X39624000Y49784000D01*
X38608000Y51054000D02*
X39751000Y51054000D01*
X39751000Y51054000D02*
X39878000Y50927000D01*
X37592000Y49149000D02*
X37592000Y49784000D01*
X37592000Y49784000D02*
X38100000Y50292000D01*
X36830612Y47116388D02*
X36830612Y47371612D01*
X36830612Y47371612D02*
X37465000Y48006000D01*
X36957000Y45339000D02*
X36957000Y45466000D01*
X36957000Y45466000D02*
X36068612Y46354388D01*
X38862000Y47371000D02*
X38862000Y47244000D01*
X38862000Y47244000D02*
X37973000Y46355000D01*
X40640000Y49403000D02*
X40640000Y49276000D01*
X40640000Y49276000D02*
X39751000Y48387000D01*
X46228000Y48260000D02*
X43815000Y48260000D01*
X43815000Y48260000D02*
X41656000Y50419000D01*
D43*
X33020000Y49339500D02*
X33908924Y48450576D01*
X33908924Y48450576D02*
X33908924Y48346468D01*
X32766000Y49339500D02*
X33020000Y49339500D01*
D44*
X55910480Y24099520D02*
X55910480Y24241760D01*
X58420000Y21590000D02*
X55910480Y24099520D01*
X18000481Y42360079D02*
X18445480Y41915080D01*
X14132560Y46228000D02*
X18000481Y42360079D01*
X7874000Y46228000D02*
X14132560Y46228000D01*
X20279360Y39248080D02*
X20259040Y39268400D01*
X22316440Y39248080D02*
X20279360Y39248080D01*
X15776439Y39738799D02*
X15331440Y39293800D01*
X16136620Y40098980D02*
X15776439Y39738799D01*
X18542000Y40098980D02*
X16136620Y40098980D01*
D10*
X27965400Y47091598D02*
X27965400Y47015400D01*
X27965400Y47015400D02*
X27638001Y46688001D01*
X27638001Y46688001D02*
X27380999Y46688001D01*
X27380999Y46688001D02*
X27310999Y46618001D01*
X27310999Y46618001D02*
X27310999Y45763000D01*
X27310999Y46618001D02*
X27310999Y46418500D01*
X27310999Y46418500D02*
X27310999Y45763000D01*
X26924000Y46360675D02*
X27253174Y46360675D01*
X27253174Y46360675D02*
X27310999Y46418500D01*
X26924000Y46360675D02*
X27114500Y46170175D01*
X27114500Y46170175D02*
X27310999Y45973676D01*
X26751000Y45806675D02*
X27114500Y46170175D01*
X26751000Y45763000D02*
X26751000Y45806675D01*
X26751000Y45763000D02*
X27310999Y45763000D01*
X27310999Y45763000D02*
X27310999Y45910500D01*
X27310999Y45973676D02*
X27310999Y45910500D01*
X27051000Y45438000D02*
X27051000Y45463000D01*
X27051000Y45463000D02*
X27310999Y45722999D01*
X27310999Y45722999D02*
X27310999Y45910500D01*
X26924000Y46990000D02*
X26924000Y46360675D01*
D44*
X20891500Y50736500D02*
X20828000Y50800000D01*
D42*
X24910607Y50101500D02*
X21526500Y50101500D01*
X21526500Y50101500D02*
X20891500Y50736500D01*
X52621491Y32575500D02*
X52641500Y32575500D01*
D43*
X49974500Y32575500D02*
X52621491Y32575500D01*
D44*
X43987125Y15189200D02*
X43357800Y15189200D01*
X44145200Y15189200D02*
X43987125Y15189200D01*
X46736000Y17780000D02*
X44145200Y15189200D01*
X26924000Y46990000D02*
X27863802Y46990000D01*
X27863802Y46990000D02*
X27965400Y47091598D01*
X72263000Y28956000D02*
X73533000Y28956000D01*
X69596000Y28956000D02*
X71120000Y28956000D01*
X76581000Y29083000D02*
X76581000Y27940000D01*
X76581000Y27940000D02*
X76708000Y27813000D01*
X75438000Y27686000D02*
X75438000Y28575000D01*
X75438000Y28575000D02*
X74930000Y29083000D01*
X10668000Y24892000D02*
X10668000Y26072000D01*
X10668000Y26072000D02*
X11520000Y26924000D01*
X11520000Y26924000D02*
X12446000Y26924000D01*
D42*
X13271500Y17589500D02*
X14351000Y17589500D01*
X14351000Y17589500D02*
X14732000Y17208500D01*
X9779000Y17589500D02*
X11620500Y17589500D01*
X6477000Y17589500D02*
X8255000Y17589500D01*
X2857500Y17335500D02*
X4381500Y17335500D01*
X4381500Y17335500D02*
X4635500Y17589500D01*
X5016500Y14986000D02*
X4699000Y14986000D01*
X4699000Y14986000D02*
X3619500Y16065500D01*
X8953500Y14478000D02*
X7175500Y14478000D01*
X12446000Y14541500D02*
X10668000Y14541500D01*
X10668000Y14541500D02*
X10604500Y14478000D01*
X10668000Y4787000D02*
X10668000Y10668000D01*
X10668000Y10668000D02*
X14351000Y14351000D01*
X14939000Y2921000D02*
X12534000Y2921000D01*
X12534000Y2921000D02*
X10668000Y4787000D01*
X14939000Y2921000D02*
X10604500Y2921000D01*
D45*
X1270000Y36004500D02*
X1270000Y35877500D01*
X1270000Y35877500D02*
X4572000Y32575500D01*
X53975000Y49720500D02*
X53975000Y49593500D01*
X53975000Y49593500D02*
X51308000Y46926500D01*
X57467500Y47815500D02*
X57531000Y47815500D01*
X57531000Y47815500D02*
X59372500Y49657000D01*
X72009000Y44386500D02*
X77216000Y44386500D01*
X77216000Y44386500D02*
X77406500Y44577000D01*
X63500000Y44450000D02*
X66929000Y44450000D01*
X52070000Y54356000D02*
X52070000Y52768500D01*
X52070000Y52768500D02*
X51371500Y52070000D01*
D42*
X49403000Y32575500D02*
X49974500Y32575500D01*
D45*
X47815500Y33528000D02*
X49022000Y33528000D01*
X49022000Y33528000D02*
X49974500Y32575500D01*
X46990000Y39052500D02*
X47180500Y39052500D01*
X47180500Y39052500D02*
X48958500Y37274500D01*
X50609500Y44752260D02*
X52847240Y44752260D01*
X52847240Y44752260D02*
X52959000Y44640500D01*
X39687500Y20891500D02*
X39751000Y20891500D01*
X39751000Y20891500D02*
X41021000Y22161500D01*
X35433000Y16637000D02*
X35560000Y16637000D01*
X35560000Y16637000D02*
X37846000Y18923000D01*
X31115000Y15811500D02*
X33528000Y15811500D01*
X26733500Y15811500D02*
X29146500Y15811500D01*
X29146500Y15811500D02*
X29210000Y15748000D01*
X24892000Y18732500D02*
X24892000Y15938500D01*
X24892000Y15938500D02*
X24701500Y15748000D01*
D42*
X48895000Y33083500D02*
X49403000Y32575500D01*
X46672500Y29781500D02*
X46672500Y27178000D01*
X46672500Y27178000D02*
X46736000Y27114500D01*
X44259500Y32766000D02*
X44259500Y36195000D01*
X44259500Y36195000D02*
X44196000Y36258500D01*
D10*
X42926000Y28537180D02*
X43688000Y27775180D01*
D42*
X44196000Y25019000D02*
X44196000Y27267180D01*
X44196000Y27267180D02*
X43688000Y27775180D01*
D44*
X8890000Y25971500D02*
X8890000Y24637999D01*
D43*
X8890000Y25971500D02*
X8890000Y25908000D01*
X8890000Y25908000D02*
X7620000Y24638000D01*
D44*
X36322000Y21336000D02*
X37084000Y21336000D01*
X37084000Y21336000D02*
X39116000Y23368000D01*
X32766000Y20320000D02*
X33528000Y20320000D01*
X33528000Y20320000D02*
X34544000Y21336000D01*
X29337000Y20319994D02*
X30733994Y20319994D01*
X30733994Y20319994D02*
X30734000Y20320000D01*
X73406000Y13208000D02*
X73406000Y11684000D01*
X73406000Y11684000D02*
X73152000Y11430000D01*
X73406000Y16510000D02*
X73406000Y14986000D01*
X60198000Y37338000D02*
X68834000Y37338000D01*
X61214000Y28194000D02*
X61214000Y28956000D01*
X61214000Y28956000D02*
X60198000Y29972000D01*
X59719000Y26842000D02*
X59719000Y27969000D01*
X59719000Y27969000D02*
X59944000Y28194000D01*
X70104000Y10414000D02*
X70104000Y11938000D01*
X64262000Y13462000D02*
X64262000Y11938000D01*
X64262000Y18288000D02*
X64262000Y14986000D01*
X67564000Y17018000D02*
X67564000Y18542000D01*
X67564000Y18542000D02*
X67056000Y19050000D01*
X11049000Y42672000D02*
X13970000Y42672000D01*
X11816675Y43180000D02*
X12446000Y43180000D01*
X11043325Y43180000D02*
X11816675Y43180000D01*
X10662325Y43561000D02*
X11043325Y43180000D01*
X9017000Y43434000D02*
X9017000Y42539325D01*
X9080999Y43497999D02*
X9017000Y43434000D01*
X9017000Y42539325D02*
X9017000Y41910000D01*
X13462000Y46007020D02*
X11590020Y46007020D01*
X11684000Y44450000D02*
X10795000Y43561000D01*
X10795000Y43561000D02*
X10662325Y43561000D01*
X9144000Y43561000D02*
X9080999Y43497999D01*
X11590020Y46007020D02*
X9080999Y43497999D01*
X10662325Y43561000D02*
X9144000Y43561000D01*
X9842999Y43878001D02*
X9398000Y44323000D01*
X16953230Y42037000D02*
X16885325Y42037000D01*
X21653500Y42037000D02*
X16885325Y42037000D01*
X18542000Y40098980D02*
X18542000Y40448230D01*
X22098000Y42481500D02*
X21653500Y42037000D01*
X16885325Y42037000D02*
X11684000Y42037000D01*
X11684000Y42037000D02*
X9842999Y43878001D01*
X18542000Y40448230D02*
X16953230Y42037000D01*
X27813002Y20320002D02*
X29336992Y20320002D01*
X29336992Y20320002D02*
X29337000Y20319994D01*
X26098500Y20447000D02*
X26162000Y20447000D01*
X25019000Y21526500D02*
X26098500Y20447000D01*
X24765000Y21526500D02*
X25019000Y21526500D01*
D41*
X17399000Y30586680D02*
X16299180Y31686500D01*
X17970500Y30015180D02*
X17399000Y30586680D01*
D10*
X71628000Y19050000D02*
X68326000Y22352000D01*
X68326000Y22352000D02*
X64960500Y22352000D01*
X42926000Y30924500D02*
X42926000Y28537180D01*
X44196000Y27267180D02*
X44196000Y26316940D01*
X44196000Y31940500D02*
X43942000Y31940500D01*
X43942000Y31940500D02*
X42926000Y30924500D01*
D43*
X71628000Y19050000D02*
X71628000Y18034000D01*
X71628000Y18034000D02*
X72136000Y17526000D01*
X74930000Y17272000D02*
X74168000Y17272000D01*
X74168000Y17272000D02*
X73152000Y18288000D01*
X77978000Y17272000D02*
X76454000Y17272000D01*
X80010000Y17780000D02*
X79502000Y17272000D01*
X80010000Y24384000D02*
X80010000Y17780000D01*
X79692999Y24701001D02*
X80010000Y24384000D01*
X79248000Y25146000D02*
X79692999Y24701001D01*
X76200000Y26416000D02*
X75438000Y26416000D01*
X75438000Y26416000D02*
X73152000Y26289000D01*
X79248000Y26416000D02*
X77724000Y26416000D01*
X77724000Y25146000D02*
X79248000Y25146000D01*
X74676000Y25146000D02*
X76200000Y25146000D01*
X72390000Y24765000D02*
X72390000Y24511000D01*
X72390000Y24511000D02*
X73660000Y24765000D01*
X69850000Y27432000D02*
X71247000Y24892000D01*
X69786500Y25908000D02*
X69786500Y25971500D01*
X69786500Y25971500D02*
X68326000Y27432000D01*
X26543000Y2921000D02*
X27686000Y2921000D01*
X24257000Y2921000D02*
X25400000Y2921000D01*
X19939000Y2921000D02*
X22987000Y2921000D01*
D44*
X12065000Y1270000D02*
X12065000Y1977388D01*
X12065000Y3556000D02*
X12065000Y3175000D01*
X14939000Y2921000D02*
X12854000Y2921000D01*
X12854000Y2921000D02*
X12065000Y3710000D01*
X12065000Y3710000D02*
X12065000Y4445000D01*
X26751000Y45763000D02*
X26751000Y45738000D01*
X26751000Y45738000D02*
X27051000Y45438000D01*
X28776000Y42938000D02*
X27801000Y42938000D01*
X27801000Y42938000D02*
X27051000Y43688000D01*
X27351000Y45763000D02*
X27351000Y43988000D01*
X27351000Y43988000D02*
X27051000Y43688000D01*
X13398500Y31496000D02*
X15684500Y31496000D01*
X15684500Y31496000D02*
X15875000Y31686500D01*
X13921000Y29423000D02*
X13921000Y30973500D01*
X13921000Y30973500D02*
X13398500Y31496000D01*
X12771000Y28773000D02*
X12446000Y28448000D01*
X69469000Y14859000D02*
X69469000Y16319500D01*
X51054000Y23304500D02*
X51054000Y22987000D01*
X27355999Y41706999D02*
X27355999Y41529000D01*
X27355999Y41859001D02*
X27355999Y41706999D01*
X27051000Y41938000D02*
X27277000Y41938000D01*
X27277000Y41938000D02*
X27355999Y41859001D01*
X27051000Y41938000D02*
X27051000Y43688000D01*
X26751000Y41613000D02*
X26751000Y43388000D01*
X26751000Y43388000D02*
X27051000Y43688000D01*
X27051000Y43688000D02*
X27051000Y43180000D01*
X27051000Y43180000D02*
X27793000Y42438000D01*
X27793000Y42438000D02*
X28101000Y42438000D01*
X28101000Y42438000D02*
X28776000Y42438000D01*
X44196000Y26316940D02*
X44196000Y25019000D01*
X21717000Y50101500D02*
X23876000Y50101500D01*
X23876000Y50101500D02*
X24910607Y50101500D01*
X24910607Y50101500D02*
X25908000Y50101500D01*
X48895000Y20574000D02*
X50292000Y20574000D01*
X42799000Y24384000D02*
X43180000Y24003000D01*
X35433000Y24384000D02*
X42799000Y24384000D01*
X46482000Y48514000D02*
X46228000Y48260000D01*
X46482000Y49593500D02*
X46482000Y48514000D01*
X30099000Y49339500D02*
X32766000Y49339500D01*
X52070000Y55368000D02*
X52070000Y56896000D01*
X52070000Y54356000D02*
X52070000Y55368000D01*
X59690000Y54356000D02*
X59690000Y56896000D01*
X70485000Y55368000D02*
X70485000Y56896000D01*
X70485000Y54356000D02*
X70485000Y55368000D01*
X70485000Y54356000D02*
X70485000Y52705000D01*
X11938000Y57150000D02*
X9906000Y57404000D01*
X9906000Y56261000D02*
X9906000Y55372000D01*
X9906000Y55118000D02*
X9906000Y53848000D01*
X11684000Y45720000D02*
X10414000Y45720000D01*
X10541000Y40386000D02*
X9144000Y40386000D01*
X39370000Y6350000D02*
X39370000Y11938000D01*
X39370000Y13716000D02*
X39878000Y15240000D01*
X70358000Y50292000D02*
X71501000Y50292000D01*
X72517000Y50292000D02*
X73787000Y50292000D01*
X14097000Y31496000D02*
X15748000Y33147000D01*
X13398500Y31496000D02*
X14097000Y31496000D01*
X14224000Y33147000D02*
X9652000Y33147000D01*
X46609000Y19240500D02*
X42418000Y15049500D01*
X46863000Y19240500D02*
X46609000Y19240500D01*
X42418000Y15049500D02*
X42418000Y13208000D01*
X13589000Y2921000D02*
X12192000Y4318000D01*
X14939000Y2921000D02*
X13589000Y2921000D01*
X12192000Y3302000D02*
X12192000Y3048000D01*
X64770000Y14859000D02*
X61468000Y18542000D01*
X65913000Y14859000D02*
X64770000Y14859000D01*
X65913000Y14859000D02*
X66548000Y9144000D01*
X66294000Y9144000D02*
X65532000Y9652000D01*
X66548000Y9144000D02*
X66294000Y9144000D01*
X64389000Y9652000D02*
X63627000Y9652000D01*
X65913000Y16192500D02*
X65913000Y14859000D01*
X78486000Y37084000D02*
X79502000Y36068000D01*
X79502000Y28194000D02*
X77724000Y26416000D01*
X60452000Y37084000D02*
X78486000Y37084000D01*
X60452000Y27980000D02*
X60452000Y37084000D01*
X59719000Y27247000D02*
X60452000Y27980000D01*
X79502000Y36068000D02*
X79502000Y28194000D01*
X59719000Y26842000D02*
X59719000Y27247000D01*
D41*
X16299180Y31686500D02*
X15875000Y31686500D01*
D44*
X44704000Y46736000D02*
X42926000Y45212000D01*
X44450000Y45212000D02*
X46228000Y46672500D01*
X30480000Y1524000D02*
X32004000Y1524000D01*
X33528000Y1524000D02*
X35052000Y1524000D01*
X36576000Y1524000D02*
X38100000Y1524000D01*
X54864000Y59182000D02*
X56388000Y59182000D01*
X57912000Y59182000D02*
X59436000Y59182000D01*
X9718040Y49276000D02*
X7620000Y49276000D01*
X16764000Y45681560D02*
X16764000Y45720000D01*
X17272000Y45173560D02*
X16764000Y45681560D01*
X17272000Y43718480D02*
X17272000Y45173560D01*
X15494000Y45720000D02*
X14224000Y45720000D01*
X2540000Y50038000D02*
X4318000Y50038000D01*
X2540000Y50038000D02*
X2540000Y48768000D01*
X2540000Y47498000D02*
X2540000Y46228000D01*
X2540000Y44958000D02*
X2540000Y43688000D01*
X4064000Y43688000D02*
X5588000Y43688000D01*
X19558000Y53594000D02*
X20066000Y53086000D01*
X19558000Y54610000D02*
X19558000Y53594000D01*
X21717000Y50101500D02*
X21526500Y50101500D01*
X28511500Y49339500D02*
X28448000Y49276000D01*
X30099000Y49339500D02*
X28511500Y49339500D01*
X69342000Y50292000D02*
X67818000Y48768000D01*
X70358000Y50292000D02*
X69342000Y50292000D01*
X66294000Y47244000D02*
X65024000Y45974000D01*
X67564000Y28448000D02*
X68072000Y28956000D01*
X66294000Y28448000D02*
X67564000Y28448000D01*
X51054000Y22987000D02*
X50165000Y22098000D01*
X50292000Y20574000D02*
X50927000Y21209000D01*
D46*
X20510500Y46482000D02*
X20193000Y46164500D01*
X20193000Y46164500D02*
X20193000Y44132500D01*
X21845410Y46482000D02*
X20510500Y46482000D01*
X23241000Y45100823D02*
X23226587Y45100823D01*
X23226587Y45100823D02*
X21845410Y46482000D01*
X25326000Y43938000D02*
X24403823Y43938000D01*
X24403823Y43938000D02*
X23241000Y45100823D01*
D43*
X35052000Y51308000D02*
X32575500Y51308000D01*
X32575500Y51308000D02*
X32385000Y51498500D01*
D47*
X25326000Y42438000D02*
X25326000Y42938000D01*
D48*
X22987000Y51467000D02*
X23489802Y51467000D01*
X14224000Y49877980D02*
X18524220Y49877980D01*
X18524220Y49877980D02*
X18796000Y50149760D01*
X14478000Y54610000D02*
X14478000Y50131980D01*
X14478000Y50131980D02*
X14224000Y49877980D01*
D43*
X32385000Y51498500D02*
X27432000Y51498500D01*
X22606000Y51498500D02*
X22479000Y51625500D01*
X27432000Y51498500D02*
X22606000Y51498500D01*
X22479000Y51625500D02*
X16827500Y51625500D01*
X17399000Y51054000D02*
X17399000Y50276760D01*
X16827500Y51625500D02*
X17399000Y51054000D01*
X10971000Y27473000D02*
X10721000Y27473000D01*
X10721000Y27473000D02*
X10216499Y26968499D01*
X10216499Y26968499D02*
X6051501Y26968499D01*
X6051501Y26968499D02*
X5734001Y27285999D01*
X5734001Y27285999D02*
X5734001Y31369001D01*
X5734001Y31369001D02*
X6477000Y32112000D01*
X6477000Y32112000D02*
X6477000Y32956500D01*
X6477000Y32956500D02*
X7493000Y32956500D01*
X7493000Y32956500D02*
X8890000Y31559500D01*
X10971000Y29423000D02*
X10971000Y30973500D01*
X10971000Y30973500D02*
X11493500Y31496000D01*
D10*
X25326000Y44438000D02*
X24540233Y44438000D01*
X24540233Y44438000D02*
X23820492Y45157741D01*
X23820492Y45157741D02*
X23820492Y46288588D01*
X23820492Y46288588D02*
X21912580Y48196500D01*
X21912580Y48196500D02*
X21717000Y48196500D01*
D43*
X21717000Y48196500D02*
X21971000Y48196500D01*
X21971000Y48196500D02*
X23030999Y49256499D01*
X23030999Y49256499D02*
X26822297Y49256499D01*
X26822297Y49256499D02*
X27813299Y50247501D01*
X36028743Y50247501D02*
X27813299Y50247501D01*
X38232242Y52451000D02*
X36028743Y50247501D01*
X40386000Y52451000D02*
X38232242Y52451000D01*
X15811500Y27686000D02*
X15811500Y26606500D01*
X15811500Y26606500D02*
X15240000Y26035000D01*
D10*
X13921000Y28123000D02*
X14465002Y28123000D01*
X14465002Y28123000D02*
X14902002Y27686000D01*
X14902002Y27686000D02*
X15811500Y27686000D01*
D43*
X15684500Y27686000D02*
X15684500Y29591000D01*
X15684500Y29591000D02*
X15875000Y29781500D01*
X28452001Y45978001D02*
X27891001Y45978001D01*
X27891001Y45978001D02*
X27891001Y45913000D01*
X32512000Y47434500D02*
X31667499Y48279001D01*
X31667499Y48279001D02*
X29080499Y48279001D01*
X29080499Y48279001D02*
X28810401Y48008903D01*
X28810401Y48008903D02*
X28810401Y46336401D01*
X28810401Y46336401D02*
X28452001Y45978001D01*
X32766000Y47434500D02*
X32512000Y47434500D01*
X32766000Y47434500D02*
X32893000Y47434500D01*
X32893000Y47434500D02*
X34734500Y45593000D01*
D10*
X28776000Y43938000D02*
X30559742Y43938000D01*
X30559742Y43938000D02*
X30563742Y43942000D01*
D41*
X42989500Y32956500D02*
X41350000Y31317000D01*
X41350000Y31317000D02*
X36957000Y31317000D01*
X42989500Y37356002D02*
X42989500Y32956500D01*
X54610000Y54356000D02*
X54610000Y52704000D01*
X54610000Y52704000D02*
X47064001Y45158001D01*
X47064001Y45158001D02*
X47064001Y41430503D01*
X47064001Y41430503D02*
X42989500Y37356002D01*
D43*
X36957000Y31317000D02*
X36957000Y30417000D01*
X36957000Y30417000D02*
X35449000Y28909000D01*
X35449000Y28909000D02*
X30709000Y28909000D01*
X30709000Y28909000D02*
X27559000Y28909000D01*
X34533264Y37640203D02*
X34536057Y37632179D01*
X34539929Y37633538D02*
X34537416Y37633538D01*
X34537416Y37633538D02*
X34536057Y37632179D01*
X34533264Y38281710D02*
X34539929Y37633538D01*
X34533264Y37652385D02*
X34533264Y37640203D01*
X34533264Y40322340D02*
X34533264Y38281710D01*
X33771602Y41084002D02*
X34533264Y40322340D01*
X33421740Y41084002D02*
X33771602Y41084002D01*
X30563742Y43942000D02*
X33421740Y41084002D01*
X29845000Y43942000D02*
X30563742Y43942000D01*
D41*
X57150000Y54356000D02*
X57150000Y56896000D01*
X54610000Y54356000D02*
X57150000Y54356000D01*
X54610000Y54356000D02*
X54610000Y56896000D01*
D47*
X28776000Y43938000D02*
X30230000Y43938000D01*
D43*
X65532000Y26098500D02*
X62992000Y26098500D01*
X62992000Y26098500D02*
X62992000Y28384500D01*
X62992000Y28384500D02*
X63055500Y28448000D01*
X59719000Y26192000D02*
X62898500Y26192000D01*
X62898500Y26192000D02*
X62992000Y26098500D01*
X67881500Y25908000D02*
X67881500Y25654000D01*
X67881500Y25654000D02*
X67481499Y25253999D01*
X67481499Y25253999D02*
X64877000Y25253999D01*
X62992000Y24193500D02*
X63816501Y24193500D01*
X63816501Y24193500D02*
X64877000Y25253999D01*
X63055500Y22352000D02*
X63055500Y24130000D01*
X63055500Y24130000D02*
X62992000Y24193500D01*
X59719000Y25542000D02*
X61643500Y25542000D01*
X61643500Y25542000D02*
X62992000Y24193500D01*
X53819000Y26842000D02*
X52723500Y26842000D01*
X52723500Y26842000D02*
X52387500Y27178000D01*
X69469000Y18224500D02*
X69469000Y19685000D01*
X69469000Y19685000D02*
X69342000Y19812000D01*
X71501000Y15303500D02*
X71501000Y16192500D01*
X71501000Y16192500D02*
X69469000Y18224500D01*
X53911500Y31305500D02*
X55943500Y31305500D01*
X55943500Y25891500D02*
X55943500Y29273500D01*
X55943500Y29273500D02*
X55943500Y30461000D01*
X53594000Y29273500D02*
X55943500Y29273500D01*
X53819000Y24892000D02*
X54944000Y24892000D01*
X54944000Y24892000D02*
X55943500Y25891500D01*
X55943500Y30461000D02*
X55943500Y31305500D01*
X22828500Y53880000D02*
X22479000Y53530500D01*
X24765000Y53880000D02*
X22828500Y53880000D01*
D10*
X25326000Y43438000D02*
X24253000Y43438000D01*
X24253000Y43438000D02*
X22453600Y45237400D01*
X22453600Y45237400D02*
X21812925Y45237400D01*
X21812925Y45237400D02*
X21183600Y45237400D01*
D43*
X24765000Y57880000D02*
X22384000Y57880000D01*
X22384000Y57880000D02*
X22352000Y57912000D01*
X24765000Y57880000D02*
X24670000Y57880000D01*
X24765000Y57880000D02*
X24389279Y57880000D01*
X24765000Y57880000D02*
X25915000Y57880000D01*
X25915000Y57880000D02*
X26820001Y58785001D01*
X38862000Y58058000D02*
X38862000Y56896000D01*
X26820001Y58785001D02*
X38134999Y58785001D01*
X38134999Y58785001D02*
X38862000Y58058000D01*
X24733000Y57912000D02*
X24765000Y57880000D01*
X24765000Y57880000D02*
X24295168Y57880000D01*
X27908500Y53880000D02*
X27432000Y53403500D01*
X29845000Y53880000D02*
X27908500Y53880000D01*
X32861500Y53880000D02*
X32385000Y53403500D01*
X34925000Y53880000D02*
X32861500Y53880000D01*
X23799800Y39059525D02*
X23799800Y38430200D01*
X23799800Y41086800D02*
X23799800Y39059525D01*
X24130000Y41417000D02*
X23799800Y41086800D01*
D47*
X25326000Y41938000D02*
X24651000Y41938000D01*
X24651000Y41938000D02*
X24130000Y41417000D01*
D43*
X36544000Y57880000D02*
X36576000Y57912000D01*
X34925000Y57880000D02*
X36544000Y57880000D01*
X42545000Y6445000D02*
X42545000Y8699500D01*
X45212000Y8699500D02*
X45212000Y6445000D01*
X47879000Y6445000D02*
X47879000Y8699500D01*
X50546000Y6445000D02*
X50546000Y8699500D01*
X53213000Y6445000D02*
X53213000Y8699500D01*
X55880000Y6445000D02*
X55880000Y8699500D01*
X58547000Y6445000D02*
X58547000Y8699500D01*
D10*
X33374555Y40240311D02*
X33375600Y40259000D01*
X28776000Y43438000D02*
X29571169Y43438000D01*
X29571169Y43438000D02*
X29617179Y43391990D01*
X29617179Y43391990D02*
X30222876Y43391990D01*
X30222876Y43391990D02*
X33374555Y40240311D01*
D43*
X46482000Y54356000D02*
X46482000Y51498500D01*
X46482000Y54356000D02*
X46482000Y56896000D01*
D47*
X27801000Y41463000D02*
X27801000Y39151000D01*
X27801000Y39151000D02*
X27559000Y38909000D01*
X26301000Y41463000D02*
X26301000Y40167000D01*
X26301000Y40167000D02*
X27559000Y38909000D01*
D45*
X18923000Y29718000D02*
X18923000Y26885498D01*
X18923000Y26885498D02*
X18072502Y26035000D01*
X19875500Y30015180D02*
X19220180Y30015180D01*
X19220180Y30015180D02*
X18923000Y29718000D01*
X17081500Y26035000D02*
X18072502Y26035000D01*
D43*
X20129500Y29761180D02*
X19875500Y30015180D01*
X10971000Y28773000D02*
X10146000Y28773000D01*
X10146000Y28773000D02*
X9988501Y28930499D01*
X9988501Y28930499D02*
X9988501Y30419001D01*
X9988501Y30419001D02*
X9908501Y30499001D01*
X9908501Y30499001D02*
X7785001Y30499001D01*
X7785001Y30499001D02*
X7639000Y30353000D01*
X7639000Y30353000D02*
X6794500Y30353000D01*
D10*
X16937000Y25019000D02*
X14518998Y25019000D01*
X14518998Y25019000D02*
X14191499Y25346499D01*
X17081500Y24874500D02*
X16937000Y25019000D01*
X13921000Y27473000D02*
X13921000Y26998000D01*
X13921000Y26998000D02*
X14191499Y26727501D01*
X14191499Y26727501D02*
X14191499Y25346499D01*
X17081500Y24874500D02*
X17081500Y24130000D01*
D43*
X25326000Y45828000D02*
X25326000Y46770000D01*
X25326000Y46770000D02*
X25908000Y47352000D01*
X25908000Y47352000D02*
X25908000Y48196500D01*
D47*
X25326000Y45438000D02*
X25326000Y45828000D01*
X25326000Y45828000D02*
X25400000Y45902000D01*
D10*
X23876000Y48196500D02*
X23876000Y47452000D01*
X23876000Y47452000D02*
X24320500Y47007500D01*
X24320500Y47007500D02*
X24320500Y45364853D01*
X24747353Y44938000D02*
X25326000Y44938000D01*
X24320500Y45364853D02*
X24747353Y44938000D01*
D47*
X25326000Y44938000D02*
X25320600Y44932600D01*
D10*
X31032131Y45742040D02*
X31032131Y46742669D01*
X31032131Y46742669D02*
X30340300Y47434500D01*
X30340300Y47434500D02*
X30099000Y47434500D01*
X29288265Y45447030D02*
X29583275Y45742040D01*
X29583275Y45742040D02*
X31032131Y45742040D01*
X28776000Y45438000D02*
X29061000Y45438000D01*
X29061000Y45438000D02*
X29070030Y45447030D01*
X29070030Y45447030D02*
X29288265Y45447030D01*
X32829500Y45593000D02*
X31181171Y45593000D01*
X31181171Y45593000D02*
X31032131Y45742040D01*
X30927171Y45847000D02*
X31032131Y45742040D01*
X32575500Y45847000D02*
X32829500Y45593000D01*
D43*
X61341000Y24384000D02*
X61341000Y20588498D01*
X60833000Y24892000D02*
X60877999Y24847001D01*
X59719000Y24892000D02*
X60833000Y24892000D01*
X60877999Y24847001D02*
X61341000Y24384000D01*
X65024999Y19431999D02*
X66548000Y20955000D01*
X62497499Y19431999D02*
X65024999Y19431999D01*
X61341000Y20588498D02*
X62497499Y19431999D01*
X70333000Y7838000D02*
X69094800Y7838000D01*
X69094800Y7838000D02*
X64033000Y7838000D01*
X71501000Y13398500D02*
X71501000Y9006000D01*
X71501000Y9006000D02*
X70333000Y7838000D01*
X42545000Y11449000D02*
X42545000Y10604500D01*
X46590000Y15494000D02*
X42545000Y11449000D01*
X48895000Y15494000D02*
X46590000Y15494000D01*
D10*
X50482500Y16213100D02*
X50482500Y12827000D01*
X50482500Y12827000D02*
X49889510Y12234010D01*
X49889510Y12234010D02*
X47840010Y12234010D01*
X47840010Y12234010D02*
X46210500Y10604500D01*
X46210500Y10604500D02*
X45212000Y10604500D01*
X48895000Y16764000D02*
X49931600Y16764000D01*
X49931600Y16764000D02*
X50482500Y16213100D01*
D43*
X45466000Y10604500D02*
X45212000Y10604500D01*
X51308000Y16891000D02*
X50165000Y18034000D01*
X50165000Y18034000D02*
X48895000Y18034000D01*
X50736500Y11684000D02*
X51308000Y12255500D01*
X51308000Y12255500D02*
X51308000Y16891000D01*
X48114000Y11684000D02*
X50736500Y11684000D01*
X47879000Y10604500D02*
X47879000Y11449000D01*
X47879000Y11449000D02*
X48114000Y11684000D01*
X49326800Y18034000D02*
X48895000Y18034000D01*
X51943000Y11747500D02*
X51943000Y17392600D01*
X51943000Y17392600D02*
X50031600Y19304000D01*
X50546000Y10604500D02*
X50800000Y10604500D01*
X50800000Y10604500D02*
X51943000Y11747500D01*
X49326800Y19304000D02*
X48895000Y19304000D01*
X48895000Y19304000D02*
X50031600Y19304000D01*
X57213500Y16764000D02*
X55943500Y18034000D01*
X55943500Y18034000D02*
X54483000Y18034000D01*
X53213000Y10604500D02*
X53467000Y10604500D01*
X53467000Y10604500D02*
X54419500Y9652000D01*
X54419500Y9652000D02*
X57213500Y9652000D01*
X53213000Y10604500D02*
X53644906Y10604500D01*
X55626000Y16764000D02*
X55880000Y16510000D01*
X54483000Y16764000D02*
X55626000Y16764000D01*
X55880000Y11811000D02*
X55880000Y10604500D01*
X58039000Y15494000D02*
X58420000Y15113000D01*
X54483000Y15494000D02*
X58039000Y15494000D01*
X58420000Y10731500D02*
X58547000Y10604500D01*
X58420000Y11811000D02*
X58420000Y10731500D01*
X53819000Y22942000D02*
X53819000Y21238000D01*
X53819000Y21238000D02*
X54483000Y20574000D01*
X48895000Y12954000D02*
X47625000Y12954000D01*
X47625000Y12954000D02*
X47434500Y13144500D01*
X47434500Y13144500D02*
X47434500Y14224000D01*
X53819000Y24242000D02*
X52563000Y24242000D01*
X52563000Y24242000D02*
X52514500Y24193500D01*
X48895000Y14224000D02*
X47434500Y14224000D01*
X53804000Y24257000D02*
X53819000Y24242000D01*
X49326800Y14224000D02*
X48895000Y14224000D01*
D42*
X15684500Y19791680D02*
X5745820Y19791680D01*
X5745820Y19791680D02*
X4326500Y21211000D01*
D43*
X71374000Y22860000D02*
X72028000Y22860000D01*
X72028000Y22860000D02*
X72136000Y22752000D01*
X72136000Y22752000D02*
X72136000Y21590000D01*
X70040500Y24193500D02*
X71374000Y22860000D01*
X65532000Y24193500D02*
X70040500Y24193500D01*
D41*
X34290000Y6350000D02*
X36830000Y6350000D01*
X36830000Y6350000D02*
X36830000Y3810000D01*
X34290000Y3810000D02*
X34290000Y6350000D01*
D43*
X18923000Y35720020D02*
X18542000Y36101020D01*
X18923000Y32214820D02*
X18923000Y35720020D01*
X56134000Y34988500D02*
X56134000Y35637998D01*
X56134000Y35637998D02*
X56622999Y36126997D01*
X56622999Y36126997D02*
X56622999Y45046999D01*
X62865000Y51289000D02*
X62865000Y52451000D01*
X56622999Y45046999D02*
X62865000Y51289000D01*
X59719000Y22942000D02*
X58255102Y22942000D01*
X58255102Y22942000D02*
X57042001Y24155101D01*
X57042001Y24155101D02*
X57042001Y33826499D01*
X57042001Y33826499D02*
X56134000Y34734500D01*
X56134000Y34734500D02*
X56134000Y34988500D01*
X62865000Y53194000D02*
X62865000Y54356000D01*
X59719000Y23592000D02*
X58536456Y23592000D01*
X58536456Y23592000D02*
X57642011Y24486445D01*
X57642011Y24486445D02*
X57642011Y35620489D01*
X57642011Y35620489D02*
X57467500Y35795000D01*
X57467500Y35795000D02*
X57467500Y36893500D01*
X57467500Y36893500D02*
X57467500Y44513500D01*
X57467500Y44513500D02*
X65405000Y52451000D01*
X65405000Y53194000D02*
X65405000Y54356000D01*
X58734998Y24242000D02*
X58242021Y24734977D01*
X58242021Y24734977D02*
X58242021Y35805019D01*
X58242021Y35805019D02*
X58613999Y36176997D01*
X58613999Y36176997D02*
X58613999Y41957999D01*
X67945000Y52451000D02*
X67945000Y51289000D01*
X67945000Y51289000D02*
X58613999Y41957999D01*
X59719000Y24242000D02*
X58734998Y24242000D01*
X67945000Y53194000D02*
X67945000Y54356000D01*
D45*
X61214000Y6445000D02*
X61214000Y8699500D01*
D43*
X61214000Y11449000D02*
X61214000Y10604500D01*
X58439000Y14224000D02*
X61214000Y11449000D01*
X54483000Y14224000D02*
X58439000Y14224000D01*
D10*
X28776000Y44438000D02*
X29563169Y44438000D01*
X33469434Y42164000D02*
X35003000Y42164000D01*
X29563169Y44438000D02*
X29617179Y44492010D01*
X29617179Y44492010D02*
X31141424Y44492010D01*
X31141424Y44492010D02*
X33469434Y42164000D01*
X35003000Y42164000D02*
X36968000Y42164000D01*
D43*
X36058546Y38608000D02*
X36058546Y38344546D01*
X36886092Y37517000D02*
X36957000Y37517000D01*
X36058546Y38344546D02*
X36886092Y37517000D01*
X36058546Y38415454D02*
X36957000Y37517000D01*
X36058546Y38608000D02*
X36058546Y38415454D01*
D45*
X46863000Y21145500D02*
X46748700Y21145500D01*
X46748700Y21145500D02*
X41148000Y15544800D01*
X41148000Y15544800D02*
X41148000Y11805325D01*
X41148000Y11805325D02*
X41148000Y11176000D01*
X42056725Y2387600D02*
X41427400Y2387600D01*
X42487600Y2387600D02*
X42056725Y2387600D01*
X42545000Y2445000D02*
X42487600Y2387600D01*
X53149500Y35052000D02*
X54165500Y35052000D01*
X54165500Y35052000D02*
X54229000Y34988500D01*
X50419000Y25463500D02*
X50419000Y26035000D01*
X50419000Y26035000D02*
X50927000Y26543000D01*
X46863000Y21145500D02*
X46863000Y21907500D01*
X46863000Y21907500D02*
X50419000Y25463500D01*
D42*
X55562500Y36893500D02*
X54229000Y36893500D01*
X54229000Y36893500D02*
X51498500Y36893500D01*
X54229000Y34988500D02*
X54229000Y36187000D01*
X54229000Y36187000D02*
X54229000Y36893500D01*
X51498500Y36893500D02*
X51308000Y37084000D01*
X49212500Y35369500D02*
X49593500Y35369500D01*
X49593500Y35369500D02*
X51308000Y37084000D01*
D41*
X51308000Y37084000D02*
X51308000Y39004240D01*
X51308000Y39004240D02*
X50609500Y39702740D01*
D42*
X47942500Y35369500D02*
X49212500Y35369500D01*
D43*
X50419000Y25463500D02*
X50673000Y25463500D01*
X50673000Y25463500D02*
X51562000Y24574500D01*
X50800000Y25336500D02*
X51054000Y25336500D01*
X54483000Y12954000D02*
X54051200Y12954000D01*
X54051200Y12954000D02*
X52777010Y14228190D01*
X51054000Y25209500D02*
X52036500Y26192000D01*
X52036500Y26192000D02*
X53819000Y26192000D01*
X51054000Y25209500D02*
X52152500Y25209500D01*
X52485000Y25542000D02*
X53819000Y25542000D01*
D45*
X42545000Y2445000D02*
X45212000Y2445000D01*
X47879000Y2445000D02*
X45212000Y2445000D01*
X47879000Y2445000D02*
X50546000Y2445000D01*
X50546000Y2445000D02*
X53213000Y2445000D01*
X53213000Y2445000D02*
X55880000Y2445000D01*
X58547000Y2445000D02*
X55880000Y2445000D01*
X58547000Y2445000D02*
X61214000Y2445000D01*
D43*
X51562000Y24324945D02*
X51562000Y23207955D01*
X51562000Y24324945D02*
X51562000Y24574500D01*
X51562000Y24574500D02*
X52152500Y25165000D01*
X52152500Y25165000D02*
X52152500Y25209500D01*
X52777010Y19475323D02*
X52777010Y21992945D01*
X51562000Y23207955D02*
X52777010Y21992945D01*
X52777010Y14228190D02*
X52777010Y19475323D01*
X54483000Y19304000D02*
X52948333Y19304000D01*
X52948333Y19304000D02*
X52777010Y19475323D01*
X52152500Y25209500D02*
X52485000Y25542000D01*
X51308000Y33782000D02*
X51308000Y35179000D01*
X51371500Y34480500D02*
X51371500Y33845500D01*
X51371500Y33845500D02*
X51308000Y33782000D01*
X49212500Y29781500D02*
X49212500Y28575000D01*
X49212500Y28575000D02*
X48958500Y28321000D01*
X53819000Y23592000D02*
X54944000Y23592000D01*
X54944000Y23592000D02*
X62580520Y15955480D01*
X62580520Y15955480D02*
X62580520Y6471920D01*
X62580520Y6471920D02*
X64033000Y5019440D01*
X64033000Y5019440D02*
X64033000Y3338000D01*
X69094800Y3338000D02*
X64033000Y3338000D01*
X70333000Y3338000D02*
X69094800Y3338000D01*
X15240000Y24130000D02*
X13970000Y24130000D01*
X13970000Y24130000D02*
X13208000Y24892000D01*
D10*
X13921000Y28773000D02*
X14780673Y28773000D01*
X14780673Y28773000D02*
X14834564Y28826891D01*
D43*
X13208000Y24892000D02*
X13208000Y26116082D01*
X13208000Y26116082D02*
X13396489Y26304571D01*
D42*
X15240000Y24130000D02*
X15240000Y23388320D01*
X15240000Y23388320D02*
X16637000Y21991320D01*
D10*
X30873201Y41592999D02*
X31318200Y41148000D01*
X30528200Y41938000D02*
X30873201Y41592999D01*
X28776000Y41938000D02*
X30528200Y41938000D01*
D43*
X29877000Y57912000D02*
X29845000Y57880000D01*
D42*
X30956000Y57880000D02*
X30988000Y57912000D01*
X29845000Y57880000D02*
X30956000Y57880000D01*
D43*
X41402000Y56896000D02*
X41402000Y54356000D01*
X33706395Y43845480D02*
X34335720Y43845480D01*
X32608520Y43845480D02*
X33706395Y43845480D01*
X31610990Y44843010D02*
X32608520Y43845480D01*
D47*
X31481980Y44972020D02*
X31610990Y44843010D01*
X28776000Y44938000D02*
X29451000Y44938000D01*
X29485020Y44972020D02*
X31481980Y44972020D01*
X29451000Y44938000D02*
X29485020Y44972020D01*
D43*
X35052000Y49403000D02*
X36335437Y49403000D01*
X36335437Y49403000D02*
X36377519Y49445082D01*
D48*
G36*
X26277594Y41050500D02*
X26300395Y40929321D01*
X26372012Y40818026D01*
X26481286Y40743362D01*
X26611000Y40717094D01*
X26891000Y40717094D01*
X27012179Y40739895D01*
X27050382Y40764478D01*
X27081286Y40743362D01*
X27211000Y40717094D01*
X27491000Y40717094D01*
X27612179Y40739895D01*
X27723474Y40811512D01*
X27798138Y40920786D01*
X27824406Y41050500D01*
X27824406Y41829594D01*
X28017594Y41829594D01*
X28017594Y41798000D01*
X28040395Y41676821D01*
X28112012Y41565526D01*
X28221286Y41490862D01*
X28351000Y41464594D01*
X28757932Y41464594D01*
X28776000Y41461000D01*
X30226000Y41461000D01*
X30226000Y37338000D01*
X24765000Y37338000D01*
X24765000Y41412776D01*
X24830995Y41478771D01*
X24901000Y41464594D01*
X25751000Y41464594D01*
X25872179Y41487395D01*
X25983474Y41559012D01*
X26058138Y41668286D01*
X26083906Y41795533D01*
X26107839Y41805964D01*
X26130306Y41829594D01*
X26277594Y41829594D01*
X26277594Y41050500D01*
X26277594Y41050500D01*
G37*
X26277594Y41050500D02*
X26300395Y40929321D01*
X26372012Y40818026D01*
X26481286Y40743362D01*
X26611000Y40717094D01*
X26891000Y40717094D01*
X27012179Y40739895D01*
X27050382Y40764478D01*
X27081286Y40743362D01*
X27211000Y40717094D01*
X27491000Y40717094D01*
X27612179Y40739895D01*
X27723474Y40811512D01*
X27798138Y40920786D01*
X27824406Y41050500D01*
X27824406Y41829594D01*
X28017594Y41829594D01*
X28017594Y41798000D01*
X28040395Y41676821D01*
X28112012Y41565526D01*
X28221286Y41490862D01*
X28351000Y41464594D01*
X28757932Y41464594D01*
X28776000Y41461000D01*
X30226000Y41461000D01*
X30226000Y37338000D01*
X24765000Y37338000D01*
X24765000Y41412776D01*
X24830995Y41478771D01*
X24901000Y41464594D01*
X25751000Y41464594D01*
X25872179Y41487395D01*
X25983474Y41559012D01*
X26058138Y41668286D01*
X26083906Y41795533D01*
X26107839Y41805964D01*
X26130306Y41829594D01*
X26277594Y41829594D01*
X26277594Y41050500D01*
G36*
X44323000Y40205539D02*
X43614462Y39497000D01*
X41910000Y39497000D01*
X41860590Y39486994D01*
X41818965Y39458553D01*
X41791685Y39416159D01*
X41783000Y39370000D01*
X41783000Y33266037D01*
X41409964Y32893000D01*
X23876000Y32893000D01*
X23645205Y32849573D01*
X23433233Y32713173D01*
X23382553Y32639000D01*
X17858490Y32639000D01*
X17004592Y34346796D01*
X16973546Y34386515D01*
X16929493Y34411026D01*
X16891000Y34417000D01*
X13207628Y34417000D01*
X13197842Y37753829D01*
X13203865Y38188636D01*
X22746047Y38173290D01*
X22890472Y37823754D01*
X23191768Y37521932D01*
X23585630Y37358386D01*
X24011000Y37358015D01*
X24011000Y37211000D01*
X24053880Y36983112D01*
X24188562Y36773811D01*
X24394062Y36633399D01*
X24638000Y36584000D01*
X30353000Y36584000D01*
X30580888Y36626880D01*
X30790189Y36761562D01*
X30930601Y36967062D01*
X30980000Y37211000D01*
X30980000Y37889028D01*
X33482953Y37891407D01*
X33464243Y37846349D01*
X33463871Y37419880D01*
X33626729Y37025733D01*
X33663691Y36988707D01*
X33655028Y36578683D01*
X33663988Y36529072D01*
X33691544Y36486856D01*
X33733352Y36458687D01*
X33782000Y36449000D01*
X35077670Y36449000D01*
X35108283Y36428083D01*
X35357000Y36377717D01*
X38557000Y36377717D01*
X38789352Y36421437D01*
X38832186Y36449000D01*
X39116000Y36449000D01*
X39165410Y36459006D01*
X39207035Y36487447D01*
X39234315Y36529841D01*
X39243000Y36576000D01*
X39243000Y40114395D01*
X39272283Y40259000D01*
X39272283Y44069000D01*
X44323000Y44069000D01*
X44323000Y40205539D01*
X44323000Y40205539D01*
G37*
X44323000Y40205539D02*
X43614462Y39497000D01*
X41910000Y39497000D01*
X41860590Y39486994D01*
X41818965Y39458553D01*
X41791685Y39416159D01*
X41783000Y39370000D01*
X41783000Y33266037D01*
X41409964Y32893000D01*
X23876000Y32893000D01*
X23645205Y32849573D01*
X23433233Y32713173D01*
X23382553Y32639000D01*
X17858490Y32639000D01*
X17004592Y34346796D01*
X16973546Y34386515D01*
X16929493Y34411026D01*
X16891000Y34417000D01*
X13207628Y34417000D01*
X13197842Y37753829D01*
X13203865Y38188636D01*
X22746047Y38173290D01*
X22890472Y37823754D01*
X23191768Y37521932D01*
X23585630Y37358386D01*
X24011000Y37358015D01*
X24011000Y37211000D01*
X24053880Y36983112D01*
X24188562Y36773811D01*
X24394062Y36633399D01*
X24638000Y36584000D01*
X30353000Y36584000D01*
X30580888Y36626880D01*
X30790189Y36761562D01*
X30930601Y36967062D01*
X30980000Y37211000D01*
X30980000Y37889028D01*
X33482953Y37891407D01*
X33464243Y37846349D01*
X33463871Y37419880D01*
X33626729Y37025733D01*
X33663691Y36988707D01*
X33655028Y36578683D01*
X33663988Y36529072D01*
X33691544Y36486856D01*
X33733352Y36458687D01*
X33782000Y36449000D01*
X35077670Y36449000D01*
X35108283Y36428083D01*
X35357000Y36377717D01*
X38557000Y36377717D01*
X38789352Y36421437D01*
X38832186Y36449000D01*
X39116000Y36449000D01*
X39165410Y36459006D01*
X39207035Y36487447D01*
X39234315Y36529841D01*
X39243000Y36576000D01*
X39243000Y40114395D01*
X39272283Y40259000D01*
X39272283Y44069000D01*
X44323000Y44069000D01*
X44323000Y40205539D01*
G36*
X6604000Y40640000D02*
X6614006Y40590590D01*
X6641197Y40550197D01*
X9054197Y38137197D01*
X9096211Y38109334D01*
X9144000Y38100000D01*
X10795000Y38100000D01*
X10795000Y34417000D01*
X5421223Y34417000D01*
X4182535Y37637590D01*
X4155459Y37680115D01*
X4113971Y37708756D01*
X4064000Y37719000D01*
X2159000Y37719000D01*
X2159000Y42545000D01*
X6604000Y42545000D01*
X6604000Y40640000D01*
X6604000Y40640000D01*
G37*
X6604000Y40640000D02*
X6614006Y40590590D01*
X6641197Y40550197D01*
X9054197Y38137197D01*
X9096211Y38109334D01*
X9144000Y38100000D01*
X10795000Y38100000D01*
X10795000Y34417000D01*
X5421223Y34417000D01*
X4182535Y37637590D01*
X4155459Y37680115D01*
X4113971Y37708756D01*
X4064000Y37719000D01*
X2159000Y37719000D01*
X2159000Y42545000D01*
X6604000Y42545000D01*
X6604000Y40640000D01*
G36*
X4907001Y27285999D02*
X4969953Y26969520D01*
X5149224Y26701222D01*
X5466724Y26383722D01*
X5735022Y26204451D01*
X6051501Y26141499D01*
X6350000Y26141499D01*
X6350000Y19050000D01*
X2413000Y19050000D01*
X2413000Y31242000D01*
X4907001Y31242000D01*
X4907001Y27285999D01*
X4907001Y27285999D01*
G37*
X4907001Y27285999D02*
X4969953Y26969520D01*
X5149224Y26701222D01*
X5466724Y26383722D01*
X5735022Y26204451D01*
X6051501Y26141499D01*
X6350000Y26141499D01*
X6350000Y19050000D01*
X2413000Y19050000D01*
X2413000Y31242000D01*
X4907001Y31242000D01*
X4907001Y27285999D01*
G36*
X23241000Y32258000D02*
X23241000Y22352000D01*
X23284427Y22121205D01*
X23368000Y21991329D01*
X23368000Y15113000D01*
X23318590Y15102994D01*
X23276965Y15074553D01*
X23249685Y15032159D01*
X23241000Y14986000D01*
X23241000Y10414000D01*
X23251006Y10364590D01*
X23279447Y10322965D01*
X23321841Y10295685D01*
X23368000Y10287000D01*
X37846000Y10287000D01*
X37846000Y2921000D01*
X33401000Y2921000D01*
X33401000Y7239000D01*
X33390994Y7288410D01*
X33363803Y7328803D01*
X32982803Y7709803D01*
X32940789Y7737666D01*
X32893000Y7747000D01*
X32533150Y7747000D01*
X32512000Y7751283D01*
X30988000Y7751283D01*
X30965238Y7747000D01*
X28194000Y7747000D01*
X28144590Y7736994D01*
X28104197Y7709803D01*
X26236394Y5842000D01*
X12954000Y5842000D01*
X12954000Y9906000D01*
X17653000Y9906000D01*
X17702410Y9916006D01*
X17744035Y9944447D01*
X17771315Y9986841D01*
X17780000Y10033000D01*
X17780000Y23046217D01*
X18012352Y23089937D01*
X18225753Y23227257D01*
X18368917Y23436783D01*
X18419283Y23685500D01*
X18419283Y24574500D01*
X18375563Y24806852D01*
X18238243Y25020253D01*
X18147766Y25082074D01*
X18225753Y25132257D01*
X18230677Y25139463D01*
X18427250Y25178564D01*
X18727990Y25379512D01*
X19578488Y26230010D01*
X19779437Y26530751D01*
X19850000Y26885498D01*
X19850000Y28875517D01*
X20275550Y28875517D01*
X20507902Y28919237D01*
X20721303Y29056557D01*
X20864467Y29266083D01*
X20914833Y29514800D01*
X20914833Y29551709D01*
X20956499Y29761180D01*
X20914833Y29970651D01*
X20914833Y30515560D01*
X20871113Y30747912D01*
X20733793Y30961313D01*
X20524267Y31104477D01*
X20275550Y31154843D01*
X19475450Y31154843D01*
X19243098Y31111123D01*
X19029697Y30973803D01*
X18974730Y30893357D01*
X18884120Y30875333D01*
X18828793Y30961313D01*
X18619267Y31104477D01*
X18370550Y31154843D01*
X18346873Y31154843D01*
X18158252Y31343464D01*
X18007032Y31494948D01*
X18006582Y31495135D01*
X17780000Y31721717D01*
X17780000Y32385000D01*
X23266718Y32385000D01*
X23241000Y32258000D01*
X23241000Y32258000D01*
G37*
X23241000Y32258000D02*
X23241000Y22352000D01*
X23284427Y22121205D01*
X23368000Y21991329D01*
X23368000Y15113000D01*
X23318590Y15102994D01*
X23276965Y15074553D01*
X23249685Y15032159D01*
X23241000Y14986000D01*
X23241000Y10414000D01*
X23251006Y10364590D01*
X23279447Y10322965D01*
X23321841Y10295685D01*
X23368000Y10287000D01*
X37846000Y10287000D01*
X37846000Y2921000D01*
X33401000Y2921000D01*
X33401000Y7239000D01*
X33390994Y7288410D01*
X33363803Y7328803D01*
X32982803Y7709803D01*
X32940789Y7737666D01*
X32893000Y7747000D01*
X32533150Y7747000D01*
X32512000Y7751283D01*
X30988000Y7751283D01*
X30965238Y7747000D01*
X28194000Y7747000D01*
X28144590Y7736994D01*
X28104197Y7709803D01*
X26236394Y5842000D01*
X12954000Y5842000D01*
X12954000Y9906000D01*
X17653000Y9906000D01*
X17702410Y9916006D01*
X17744035Y9944447D01*
X17771315Y9986841D01*
X17780000Y10033000D01*
X17780000Y23046217D01*
X18012352Y23089937D01*
X18225753Y23227257D01*
X18368917Y23436783D01*
X18419283Y23685500D01*
X18419283Y24574500D01*
X18375563Y24806852D01*
X18238243Y25020253D01*
X18147766Y25082074D01*
X18225753Y25132257D01*
X18230677Y25139463D01*
X18427250Y25178564D01*
X18727990Y25379512D01*
X19578488Y26230010D01*
X19779437Y26530751D01*
X19850000Y26885498D01*
X19850000Y28875517D01*
X20275550Y28875517D01*
X20507902Y28919237D01*
X20721303Y29056557D01*
X20864467Y29266083D01*
X20914833Y29514800D01*
X20914833Y29551709D01*
X20956499Y29761180D01*
X20914833Y29970651D01*
X20914833Y30515560D01*
X20871113Y30747912D01*
X20733793Y30961313D01*
X20524267Y31104477D01*
X20275550Y31154843D01*
X19475450Y31154843D01*
X19243098Y31111123D01*
X19029697Y30973803D01*
X18974730Y30893357D01*
X18884120Y30875333D01*
X18828793Y30961313D01*
X18619267Y31104477D01*
X18370550Y31154843D01*
X18346873Y31154843D01*
X18158252Y31343464D01*
X18007032Y31494948D01*
X18006582Y31495135D01*
X17780000Y31721717D01*
X17780000Y32385000D01*
X23266718Y32385000D01*
X23241000Y32258000D01*
G36*
X51779468Y26269732D02*
X52173330Y26106186D01*
X52365016Y26106019D01*
X52407021Y26077952D01*
X52723500Y26015000D01*
X52909889Y26015000D01*
X53094000Y25977717D01*
X54483000Y25977717D01*
X54483000Y25756283D01*
X53094000Y25756283D01*
X52861648Y25712563D01*
X52648247Y25575243D01*
X52505083Y25365717D01*
X52484794Y25265527D01*
X52302201Y25265686D01*
X51908054Y25102828D01*
X51696858Y24892000D01*
X50165000Y24892000D01*
X50165000Y25979463D01*
X50474537Y26289000D01*
X51760234Y26289000D01*
X51779468Y26269732D01*
X51779468Y26269732D01*
G37*
X51779468Y26269732D02*
X52173330Y26106186D01*
X52365016Y26106019D01*
X52407021Y26077952D01*
X52723500Y26015000D01*
X52909889Y26015000D01*
X53094000Y25977717D01*
X54483000Y25977717D01*
X54483000Y25756283D01*
X53094000Y25756283D01*
X52861648Y25712563D01*
X52648247Y25575243D01*
X52505083Y25365717D01*
X52484794Y25265527D01*
X52302201Y25265686D01*
X51908054Y25102828D01*
X51696858Y24892000D01*
X50165000Y24892000D01*
X50165000Y25979463D01*
X50474537Y26289000D01*
X51760234Y26289000D01*
X51779468Y26269732D01*
G36*
X78994000Y18923000D02*
X74601606Y18923000D01*
X72860803Y20663803D01*
X72818789Y20691666D01*
X72771000Y20701000D01*
X71075844Y20701000D01*
X70993000Y20783844D01*
X70993000Y23241000D01*
X78994000Y23241000D01*
X78994000Y18923000D01*
X78994000Y18923000D01*
G37*
X78994000Y18923000D02*
X74601606Y18923000D01*
X72860803Y20663803D01*
X72818789Y20691666D01*
X72771000Y20701000D01*
X71075844Y20701000D01*
X70993000Y20783844D01*
X70993000Y23241000D01*
X78994000Y23241000D01*
X78994000Y18923000D01*
G36*
X80349000Y931000D02*
X931000Y931000D01*
X931000Y4262690D01*
X952285Y4262690D01*
X1579259Y2745296D01*
X2739190Y1583340D01*
X4255487Y953718D01*
X5897310Y952285D01*
X7414704Y1579259D01*
X8576660Y2739190D01*
X9206282Y4255487D01*
X9207715Y5897310D01*
X8580741Y7414704D01*
X7420810Y8576660D01*
X5904513Y9206282D01*
X4262690Y9207715D01*
X2745296Y8580741D01*
X1583340Y7420810D01*
X953718Y5904513D01*
X952285Y4262690D01*
X931000Y4262690D01*
X931000Y42672000D01*
X1405000Y42672000D01*
X1405000Y37592000D01*
X1447880Y37364112D01*
X1582562Y37154811D01*
X1788062Y37014399D01*
X2032000Y36965000D01*
X3633377Y36965000D01*
X4748792Y34064920D01*
X4884562Y33852811D01*
X5090062Y33712399D01*
X5215110Y33687076D01*
X5189583Y33649717D01*
X5139217Y33401000D01*
X5139217Y32512000D01*
X5182937Y32279648D01*
X5297327Y32101881D01*
X5191446Y31996000D01*
X2286000Y31996000D01*
X2058112Y31953120D01*
X1848811Y31818438D01*
X1708399Y31612938D01*
X1659000Y31369000D01*
X1659000Y18923000D01*
X1701880Y18695112D01*
X1836562Y18485811D01*
X2042062Y18345399D01*
X2286000Y18296000D01*
X6477000Y18296000D01*
X6704888Y18338880D01*
X6914189Y18473562D01*
X7054601Y18679062D01*
X7102315Y18914680D01*
X14781721Y18914680D01*
X14826207Y18845547D01*
X15035733Y18702383D01*
X15284450Y18652017D01*
X16084550Y18652017D01*
X16316902Y18695737D01*
X16530303Y18833057D01*
X16673467Y19042583D01*
X16723833Y19291300D01*
X16723833Y20292060D01*
X16680113Y20524412D01*
X16542793Y20737813D01*
X16376178Y20851657D01*
X17026000Y20851657D01*
X17026000Y10660000D01*
X12827000Y10660000D01*
X12599112Y10617120D01*
X12389811Y10482438D01*
X12249399Y10276938D01*
X12200000Y10033000D01*
X12200000Y5715000D01*
X12242880Y5487112D01*
X12377562Y5277811D01*
X12583062Y5137399D01*
X12827000Y5088000D01*
X26289000Y5088000D01*
X26524935Y5134084D01*
X26732356Y5271644D01*
X28453712Y6993000D01*
X32633288Y6993000D01*
X32647000Y6979288D01*
X32647000Y2794000D01*
X32689880Y2566112D01*
X32824562Y2356811D01*
X33030062Y2216399D01*
X33274000Y2167000D01*
X37973000Y2167000D01*
X38200888Y2209880D01*
X38410189Y2344562D01*
X38550601Y2550062D01*
X38600000Y2794000D01*
X38600000Y10414000D01*
X38557120Y10641888D01*
X38422438Y10851189D01*
X38216938Y10991601D01*
X37973000Y11041000D01*
X23995000Y11041000D01*
X23995000Y12995701D01*
X31566814Y12995701D01*
X31729672Y12601554D01*
X32030968Y12299732D01*
X32424830Y12136186D01*
X32851299Y12135814D01*
X32851749Y12136000D01*
X35877500Y12136000D01*
X36287737Y12217601D01*
X36635518Y12449982D01*
X45525217Y21339680D01*
X45525217Y21232993D01*
X40492512Y16200288D01*
X40291564Y15899548D01*
X40221000Y15544800D01*
X40221000Y11738920D01*
X40076186Y11390170D01*
X40075814Y10963701D01*
X40238672Y10569554D01*
X40539968Y10267732D01*
X40933830Y10104186D01*
X41217766Y10103938D01*
X41250937Y9927648D01*
X41388257Y9714247D01*
X41478734Y9652426D01*
X41400747Y9602243D01*
X41257583Y9392717D01*
X41207217Y9144000D01*
X41207217Y8255000D01*
X41250937Y8022648D01*
X41388257Y7809247D01*
X41597783Y7666083D01*
X41718000Y7641739D01*
X41718000Y7594794D01*
X41627871Y7577836D01*
X41560944Y7622106D01*
X41292055Y7674292D01*
X41023663Y7619607D01*
X41022501Y7618823D01*
X41018357Y7621740D01*
X40751097Y7681711D01*
X40481230Y7634841D01*
X40249842Y7488265D01*
X40092160Y7264297D01*
X40032189Y6997037D01*
X40059363Y6840575D01*
X40024388Y6656152D01*
X40080221Y6387996D01*
X40234423Y6161619D01*
X40463517Y6011484D01*
X40732628Y5960448D01*
X41000492Y5962840D01*
X41021663Y5958089D01*
X41051646Y5963296D01*
X41155717Y5964226D01*
X41155717Y5920000D01*
X41166551Y5862420D01*
X40869958Y5566343D01*
X40568344Y4839975D01*
X40567657Y4053476D01*
X40868003Y3326582D01*
X40875222Y3319351D01*
X40820954Y3296928D01*
X40519132Y2995632D01*
X40355586Y2601770D01*
X40355214Y2175301D01*
X40518072Y1781154D01*
X40819368Y1479332D01*
X41213230Y1315786D01*
X41623590Y1315428D01*
X41795000Y1280717D01*
X43295000Y1280717D01*
X43527352Y1324437D01*
X43740753Y1461757D01*
X43779182Y1518000D01*
X43975603Y1518000D01*
X44003757Y1474247D01*
X44213283Y1331083D01*
X44462000Y1280717D01*
X45962000Y1280717D01*
X46194352Y1324437D01*
X46407753Y1461757D01*
X46446182Y1518000D01*
X46642603Y1518000D01*
X46670757Y1474247D01*
X46880283Y1331083D01*
X47129000Y1280717D01*
X48629000Y1280717D01*
X48861352Y1324437D01*
X49074753Y1461757D01*
X49113182Y1518000D01*
X49309603Y1518000D01*
X49337757Y1474247D01*
X49547283Y1331083D01*
X49796000Y1280717D01*
X51296000Y1280717D01*
X51528352Y1324437D01*
X51741753Y1461757D01*
X51780182Y1518000D01*
X51976603Y1518000D01*
X52004757Y1474247D01*
X52214283Y1331083D01*
X52463000Y1280717D01*
X53963000Y1280717D01*
X54195352Y1324437D01*
X54408753Y1461757D01*
X54447182Y1518000D01*
X54643603Y1518000D01*
X54671757Y1474247D01*
X54881283Y1331083D01*
X55130000Y1280717D01*
X56630000Y1280717D01*
X56862352Y1324437D01*
X57075753Y1461757D01*
X57114182Y1518000D01*
X57310603Y1518000D01*
X57338757Y1474247D01*
X57548283Y1331083D01*
X57797000Y1280717D01*
X59297000Y1280717D01*
X59529352Y1324437D01*
X59742753Y1461757D01*
X59781182Y1518000D01*
X59977603Y1518000D01*
X60005757Y1474247D01*
X60215283Y1331083D01*
X60464000Y1280717D01*
X61964000Y1280717D01*
X62196352Y1324437D01*
X62409753Y1461757D01*
X62552917Y1671283D01*
X62603283Y1920000D01*
X62603283Y2261160D01*
X62736557Y2054047D01*
X62946083Y1910883D01*
X63194800Y1860517D01*
X64871200Y1860517D01*
X65103552Y1904237D01*
X65316953Y2041557D01*
X65460117Y2251083D01*
X65510483Y2499800D01*
X65510483Y2511000D01*
X68855517Y2511000D01*
X68855517Y2499800D01*
X68899237Y2267448D01*
X69036557Y2054047D01*
X69246083Y1910883D01*
X69494800Y1860517D01*
X71171200Y1860517D01*
X71403552Y1904237D01*
X71616953Y2041557D01*
X71760117Y2251083D01*
X71810483Y2499800D01*
X71810483Y4176200D01*
X71794209Y4262690D01*
X72072285Y4262690D01*
X72699259Y2745296D01*
X73859190Y1583340D01*
X75375487Y953718D01*
X77017310Y952285D01*
X78534704Y1579259D01*
X79696660Y2739190D01*
X80326282Y4255487D01*
X80327715Y5897310D01*
X79700741Y7414704D01*
X78540810Y8576660D01*
X77024513Y9206282D01*
X75382690Y9207715D01*
X73865296Y8580741D01*
X72703340Y7420810D01*
X72073718Y5904513D01*
X72072285Y4262690D01*
X71794209Y4262690D01*
X71766763Y4408552D01*
X71629443Y4621953D01*
X71419917Y4765117D01*
X71171200Y4815483D01*
X69494800Y4815483D01*
X69262448Y4771763D01*
X69049047Y4634443D01*
X68905883Y4424917D01*
X68855517Y4176200D01*
X68855517Y4165000D01*
X65510483Y4165000D01*
X65510483Y4176200D01*
X65466763Y4408552D01*
X65329443Y4621953D01*
X65119917Y4765117D01*
X64871200Y4815483D01*
X64860000Y4815483D01*
X64860000Y5019440D01*
X64797048Y5335919D01*
X64617777Y5604217D01*
X63861477Y6360517D01*
X64871200Y6360517D01*
X65103552Y6404237D01*
X65316953Y6541557D01*
X65460117Y6751083D01*
X65510483Y6999800D01*
X65510483Y7011000D01*
X68855517Y7011000D01*
X68855517Y6999800D01*
X68899237Y6767448D01*
X69036557Y6554047D01*
X69246083Y6410883D01*
X69494800Y6360517D01*
X71171200Y6360517D01*
X71403552Y6404237D01*
X71616953Y6541557D01*
X71760117Y6751083D01*
X71810483Y6999800D01*
X71810483Y8145928D01*
X72085777Y8421222D01*
X72265048Y8689521D01*
X72275831Y8743732D01*
X72328000Y9006000D01*
X72328000Y12338896D01*
X72431852Y12358437D01*
X72645253Y12495757D01*
X72788417Y12705283D01*
X72838783Y12954000D01*
X72838783Y13843000D01*
X72795063Y14075352D01*
X72657743Y14288753D01*
X72567266Y14350574D01*
X72645253Y14400757D01*
X72788417Y14610283D01*
X72838783Y14859000D01*
X72838783Y15748000D01*
X72795063Y15980352D01*
X72657743Y16193753D01*
X72448217Y16336917D01*
X72293022Y16368344D01*
X72265048Y16508979D01*
X72085777Y16777277D01*
X70806783Y18056271D01*
X70806783Y18669000D01*
X70763063Y18901352D01*
X70625743Y19114753D01*
X70416217Y19257917D01*
X70296000Y19282261D01*
X70296000Y19314103D01*
X70413814Y19597830D01*
X70414186Y20024299D01*
X70251328Y20418446D01*
X69950032Y20720268D01*
X69556170Y20883814D01*
X69129701Y20884186D01*
X68735554Y20721328D01*
X68433732Y20420032D01*
X68270186Y20026170D01*
X68269814Y19599701D01*
X68432672Y19205554D01*
X68438059Y19200157D01*
X68324747Y19127243D01*
X68181583Y18917717D01*
X68131217Y18669000D01*
X68131217Y17780000D01*
X68174937Y17547648D01*
X68312257Y17334247D01*
X68521783Y17191083D01*
X68770500Y17140717D01*
X69383229Y17140717D01*
X70340898Y16183048D01*
X70213583Y15996717D01*
X70163217Y15748000D01*
X70163217Y14859000D01*
X70206937Y14626648D01*
X70344257Y14413247D01*
X70434734Y14351426D01*
X70356747Y14301243D01*
X70213583Y14091717D01*
X70163217Y13843000D01*
X70163217Y12954000D01*
X70206937Y12721648D01*
X70344257Y12508247D01*
X70553783Y12365083D01*
X70674000Y12340739D01*
X70674000Y9348555D01*
X70640928Y9315483D01*
X69494800Y9315483D01*
X69262448Y9271763D01*
X69049047Y9134443D01*
X68905883Y8924917D01*
X68855517Y8676200D01*
X68855517Y8665000D01*
X65510483Y8665000D01*
X65510483Y8676200D01*
X65466763Y8908552D01*
X65329443Y9121953D01*
X65119917Y9265117D01*
X64871200Y9315483D01*
X63407520Y9315483D01*
X63407520Y15955480D01*
X63344568Y16271959D01*
X63165297Y16540257D01*
X55528777Y24176777D01*
X55431164Y24242000D01*
X55528777Y24307223D01*
X56215001Y24993446D01*
X56215001Y24155101D01*
X56277953Y23838622D01*
X56457224Y23570324D01*
X57670325Y22357223D01*
X57938623Y22177952D01*
X58255102Y22115000D01*
X58809889Y22115000D01*
X58994000Y22077717D01*
X60444000Y22077717D01*
X60514000Y22090888D01*
X60514000Y20588498D01*
X60576952Y20272019D01*
X60756223Y20003721D01*
X61912722Y18847221D01*
X62181020Y18667951D01*
X62497499Y18604999D01*
X65024999Y18604999D01*
X65341478Y18667951D01*
X65609776Y18847222D01*
X66645469Y19882914D01*
X66760299Y19882814D01*
X67154446Y20045672D01*
X67456268Y20346968D01*
X67619814Y20740830D01*
X67620186Y21167299D01*
X67457328Y21561446D01*
X67156032Y21863268D01*
X66762170Y22026814D01*
X66335701Y22027186D01*
X65941554Y21864328D01*
X65639732Y21563032D01*
X65476186Y21169170D01*
X65476084Y21052639D01*
X64682445Y20258999D01*
X62840054Y20258999D01*
X62168000Y20931052D01*
X62168000Y21197332D01*
X62362283Y21064583D01*
X62611000Y21014217D01*
X63500000Y21014217D01*
X63732352Y21057937D01*
X63945753Y21195257D01*
X64088917Y21404783D01*
X64139283Y21653500D01*
X64139283Y23050500D01*
X64098631Y23266548D01*
X64136253Y23290757D01*
X64263478Y23476956D01*
X64375257Y23303247D01*
X64584783Y23160083D01*
X64833500Y23109717D01*
X66230500Y23109717D01*
X66462852Y23153437D01*
X66676253Y23290757D01*
X66728006Y23366500D01*
X69697946Y23366500D01*
X70239000Y22825446D01*
X70239000Y20574000D01*
X70281880Y20346112D01*
X70416562Y20136811D01*
X70622062Y19996399D01*
X70866000Y19947000D01*
X72511288Y19947000D01*
X74105644Y18352644D01*
X74305062Y18218399D01*
X74549000Y18169000D01*
X79121000Y18169000D01*
X79348888Y18211880D01*
X79558189Y18346562D01*
X79698601Y18552062D01*
X79748000Y18796000D01*
X79748000Y23368000D01*
X79705120Y23595888D01*
X79570438Y23805189D01*
X79364938Y23945601D01*
X79121000Y23995000D01*
X71408554Y23995000D01*
X70625277Y24778277D01*
X70356979Y24957548D01*
X70040500Y25020500D01*
X68927010Y25020500D01*
X68965283Y25209500D01*
X68965283Y26606500D01*
X68921563Y26838852D01*
X68784243Y27052253D01*
X68574717Y27195417D01*
X68326000Y27245783D01*
X67437000Y27245783D01*
X67204648Y27202063D01*
X66991247Y27064743D01*
X66848083Y26855217D01*
X66828879Y26760385D01*
X66826063Y26775352D01*
X66688743Y26988753D01*
X66479217Y27131917D01*
X66230500Y27182283D01*
X64833500Y27182283D01*
X64601148Y27138563D01*
X64387747Y27001243D01*
X64335994Y26925500D01*
X64189445Y26925500D01*
X64148743Y26988753D01*
X63939217Y27131917D01*
X63819000Y27156261D01*
X63819000Y27209694D01*
X63945753Y27291257D01*
X64088917Y27500783D01*
X64139283Y27749500D01*
X64139283Y29146500D01*
X64095563Y29378852D01*
X64072302Y29415000D01*
X78571429Y29415000D01*
X78571429Y33369000D01*
X75051572Y33369000D01*
X75051572Y36417000D01*
X64140429Y36417000D01*
X64140429Y33369000D01*
X60874571Y33369000D01*
X60874571Y29415000D01*
X62035600Y29415000D01*
X62022083Y29395217D01*
X61971717Y29146500D01*
X61971717Y27749500D01*
X62015437Y27517148D01*
X62152757Y27303747D01*
X62165000Y27295382D01*
X62165000Y27158104D01*
X62061148Y27138563D01*
X61875342Y27019000D01*
X60628111Y27019000D01*
X60444000Y27056283D01*
X59069021Y27056283D01*
X59069021Y35462464D01*
X59198776Y35592219D01*
X59378047Y35860518D01*
X59386211Y35901563D01*
X59440999Y36176997D01*
X59440999Y41615445D01*
X60336554Y42511000D01*
X74187217Y42511000D01*
X74187217Y38511000D01*
X74230937Y38278648D01*
X74368257Y38065247D01*
X74577783Y37922083D01*
X74826500Y37871717D01*
X78826500Y37871717D01*
X79058852Y37915437D01*
X79272253Y38052757D01*
X79415417Y38262283D01*
X79465783Y38511000D01*
X79465783Y42511000D01*
X79422063Y42743352D01*
X79284743Y42956753D01*
X79075217Y43099917D01*
X78826500Y43150283D01*
X74826500Y43150283D01*
X74594148Y43106563D01*
X74380747Y42969243D01*
X74237583Y42759717D01*
X74187217Y42511000D01*
X60336554Y42511000D01*
X68529777Y50704223D01*
X68709048Y50972521D01*
X68725080Y51053119D01*
X68939352Y51093437D01*
X69152753Y51230757D01*
X69295917Y51440283D01*
X69346283Y51689000D01*
X69346283Y53213000D01*
X69302563Y53445352D01*
X69165243Y53658753D01*
X69074766Y53720574D01*
X69152753Y53770757D01*
X69295917Y53980283D01*
X69346283Y54229000D01*
X69346283Y55062690D01*
X72072285Y55062690D01*
X72699259Y53545296D01*
X73859190Y52383340D01*
X75375487Y51753718D01*
X77017310Y51752285D01*
X78534704Y52379259D01*
X79696660Y53539190D01*
X80326282Y55055487D01*
X80327715Y56697310D01*
X79700741Y58214704D01*
X78540810Y59376660D01*
X77024513Y60006282D01*
X75382690Y60007715D01*
X73865296Y59380741D01*
X72703340Y58220810D01*
X72073718Y56704513D01*
X72072285Y55062690D01*
X69346283Y55062690D01*
X69346283Y55753000D01*
X69302563Y55985352D01*
X69165243Y56198753D01*
X68955717Y56341917D01*
X68707000Y56392283D01*
X67183000Y56392283D01*
X66950648Y56348563D01*
X66737247Y56211243D01*
X66675426Y56120766D01*
X66625243Y56198753D01*
X66415717Y56341917D01*
X66167000Y56392283D01*
X64643000Y56392283D01*
X64410648Y56348563D01*
X64197247Y56211243D01*
X64135426Y56120766D01*
X64085243Y56198753D01*
X63875717Y56341917D01*
X63627000Y56392283D01*
X62103000Y56392283D01*
X61870648Y56348563D01*
X61657247Y56211243D01*
X61514083Y56001717D01*
X61463717Y55753000D01*
X61463717Y54229000D01*
X61507437Y53996648D01*
X61644757Y53783247D01*
X61735234Y53721426D01*
X61657247Y53671243D01*
X61514083Y53461717D01*
X61463717Y53213000D01*
X61463717Y51689000D01*
X61507437Y51456648D01*
X61644757Y51243247D01*
X61647689Y51241244D01*
X56038222Y45631776D01*
X55858951Y45363478D01*
X55795999Y45046999D01*
X55795999Y38231283D01*
X55118000Y38231283D01*
X54885648Y38187563D01*
X54672247Y38050243D01*
X54529083Y37840717D01*
X54514864Y37770500D01*
X52595855Y37770500D01*
X52464743Y37974253D01*
X52380000Y38032156D01*
X52380000Y38079280D01*
X52448097Y38178943D01*
X52498463Y38427660D01*
X52498463Y40977820D01*
X52454743Y41210172D01*
X52317423Y41423573D01*
X52107897Y41566737D01*
X51859180Y41617103D01*
X49359820Y41617103D01*
X49127468Y41573383D01*
X48914067Y41436063D01*
X48770903Y41226537D01*
X48720537Y40977820D01*
X48720537Y38427660D01*
X48764257Y38195308D01*
X48901577Y37981907D01*
X49111103Y37838743D01*
X49359820Y37788377D01*
X50028208Y37788377D01*
X50020583Y37777217D01*
X49970217Y37528500D01*
X49970217Y36986483D01*
X49631149Y36647415D01*
X49569084Y36688886D01*
X49212500Y36759815D01*
X48855916Y36688886D01*
X48577500Y36502854D01*
X48321845Y36673678D01*
X48327783Y36703000D01*
X48327783Y37592000D01*
X48284063Y37824352D01*
X48146743Y38037753D01*
X47937217Y38180917D01*
X47688500Y38231283D01*
X46291500Y38231283D01*
X46059148Y38187563D01*
X45845747Y38050243D01*
X45702583Y37840717D01*
X45652217Y37592000D01*
X45652217Y36710143D01*
X45402500Y36759815D01*
X45045916Y36688886D01*
X44743618Y36486897D01*
X44541629Y36184599D01*
X44481865Y35884146D01*
X44412101Y35779737D01*
X44330500Y35369500D01*
X44412101Y34959263D01*
X44481865Y34854854D01*
X44541629Y34554401D01*
X44584990Y34489507D01*
X44584990Y33503770D01*
X44666591Y33093533D01*
X44811911Y32876048D01*
X44898972Y32745752D01*
X46722251Y30922472D01*
X47006562Y30732501D01*
X47070033Y30690091D01*
X47135409Y30677087D01*
X47081629Y30596599D01*
X47010700Y30240015D01*
X47010700Y29322985D01*
X47081629Y28966401D01*
X47283618Y28664103D01*
X47585916Y28462114D01*
X47886570Y28402310D01*
X47886314Y28108701D01*
X48049172Y27714554D01*
X48350468Y27412732D01*
X48502900Y27349437D01*
X35433464Y14280000D01*
X32639935Y14280000D01*
X32426701Y14280186D01*
X32032554Y14117328D01*
X31730732Y13816032D01*
X31567186Y13422170D01*
X31566814Y12995701D01*
X23995000Y12995701D01*
X23995000Y14628489D01*
X24072601Y14742062D01*
X24122000Y14986000D01*
X24122000Y21717000D01*
X31496000Y21717000D01*
X31726795Y21760427D01*
X31938767Y21896827D01*
X32080971Y22104949D01*
X32131000Y22352000D01*
X32131000Y26035000D01*
X42164000Y26035000D01*
X42394795Y26078427D01*
X42606767Y26214827D01*
X42748971Y26422949D01*
X42799000Y26670000D01*
X42799000Y31249964D01*
X43747518Y32198481D01*
X43979899Y32546263D01*
X43990501Y32599563D01*
X44061500Y32956500D01*
X44061500Y36911966D01*
X47822020Y40672485D01*
X48054401Y41020267D01*
X48136001Y41430503D01*
X48136001Y44713965D01*
X55368018Y51945981D01*
X55600399Y52293763D01*
X55605363Y52318717D01*
X55682000Y52704000D01*
X55682000Y53048402D01*
X55817753Y53135757D01*
X55879574Y53226234D01*
X55929757Y53148247D01*
X56139283Y53005083D01*
X56388000Y52954717D01*
X57912000Y52954717D01*
X58144352Y52998437D01*
X58357753Y53135757D01*
X58500917Y53345283D01*
X58551283Y53594000D01*
X58551283Y55118000D01*
X58507563Y55350352D01*
X58370243Y55563753D01*
X58279766Y55625574D01*
X58357753Y55675757D01*
X58500917Y55885283D01*
X58551283Y56134000D01*
X58551283Y57658000D01*
X58507563Y57890352D01*
X58370243Y58103753D01*
X58160717Y58246917D01*
X57912000Y58297283D01*
X56388000Y58297283D01*
X56155648Y58253563D01*
X55942247Y58116243D01*
X55880426Y58025766D01*
X55830243Y58103753D01*
X55620717Y58246917D01*
X55372000Y58297283D01*
X53848000Y58297283D01*
X53615648Y58253563D01*
X53402247Y58116243D01*
X53259083Y57906717D01*
X53208717Y57658000D01*
X53208717Y56134000D01*
X53252437Y55901648D01*
X53389757Y55688247D01*
X53480234Y55626426D01*
X53402247Y55576243D01*
X53259083Y55366717D01*
X53208717Y55118000D01*
X53208717Y53594000D01*
X53252437Y53361648D01*
X53389757Y53148247D01*
X53477950Y53087987D01*
X46305983Y45916019D01*
X46073602Y45568238D01*
X45992001Y45158001D01*
X45992001Y41874540D01*
X45092283Y40974822D01*
X45092283Y44069000D01*
X45077000Y44150222D01*
X45077000Y44196000D01*
X45034120Y44423888D01*
X44899438Y44633189D01*
X44693938Y44773601D01*
X44450000Y44823000D01*
X39116000Y44823000D01*
X38888112Y44780120D01*
X38742131Y44686184D01*
X38633000Y44708283D01*
X35780573Y44708283D01*
X35818283Y44894500D01*
X35818283Y46291500D01*
X35774563Y46523852D01*
X35637243Y46737253D01*
X35427717Y46880417D01*
X35179000Y46930783D01*
X34566272Y46930783D01*
X34103783Y47393271D01*
X34103783Y47879000D01*
X34060063Y48111352D01*
X33922743Y48324753D01*
X33713217Y48467917D01*
X33464500Y48518283D01*
X32597771Y48518283D01*
X32252276Y48863778D01*
X31983978Y49043049D01*
X31667499Y49106001D01*
X29080499Y49106001D01*
X28764020Y49043049D01*
X28495722Y48863778D01*
X28225624Y48593680D01*
X28046353Y48325382D01*
X27983401Y48008903D01*
X27983401Y46968697D01*
X27941000Y46977283D01*
X27661000Y46977283D01*
X27428648Y46933563D01*
X27215247Y46796243D01*
X27072083Y46586717D01*
X27021717Y46338000D01*
X27021717Y45488000D01*
X27065437Y45255648D01*
X27202757Y45042247D01*
X27412283Y44899083D01*
X27661000Y44848717D01*
X27711717Y44848717D01*
X27711717Y44798000D01*
X27733175Y44683962D01*
X27711717Y44578000D01*
X27711717Y44298000D01*
X27733175Y44183962D01*
X27711717Y44078000D01*
X27711717Y43798000D01*
X27733175Y43683962D01*
X27711717Y43578000D01*
X27711717Y43298000D01*
X27755437Y43065648D01*
X27892757Y42852247D01*
X27982394Y42791000D01*
X26408000Y42791000D01*
X26408000Y44450000D01*
X26390283Y44544158D01*
X26390283Y44578000D01*
X26368825Y44692038D01*
X26390283Y44798000D01*
X26390283Y45078000D01*
X26368825Y45192038D01*
X26390283Y45298000D01*
X26390283Y45578000D01*
X26346563Y45810352D01*
X26209243Y46023753D01*
X26153000Y46062182D01*
X26153000Y46427446D01*
X26492777Y46767222D01*
X26672048Y47035521D01*
X26690549Y47128532D01*
X26838852Y47156437D01*
X27052253Y47293757D01*
X27195417Y47503283D01*
X27245783Y47752000D01*
X27245783Y48563951D01*
X27407074Y48671722D01*
X28155854Y49420501D01*
X33714217Y49420501D01*
X33714217Y48958500D01*
X33757937Y48726148D01*
X33895257Y48512747D01*
X34104783Y48369583D01*
X34353500Y48319217D01*
X35750500Y48319217D01*
X35982852Y48362937D01*
X36063402Y48414770D01*
X36163349Y48373268D01*
X36589818Y48372896D01*
X36983965Y48535754D01*
X37285787Y48837050D01*
X37449333Y49230912D01*
X37449705Y49657381D01*
X37286847Y50051528D01*
X37144710Y50193914D01*
X38574796Y51624000D01*
X39696842Y51624000D01*
X39777968Y51542732D01*
X40171830Y51379186D01*
X40598299Y51378814D01*
X40992446Y51541672D01*
X41294268Y51842968D01*
X41457814Y52236830D01*
X41458186Y52663299D01*
X41337775Y52954717D01*
X42164000Y52954717D01*
X42396352Y52998437D01*
X42609753Y53135757D01*
X42671574Y53226234D01*
X42721757Y53148247D01*
X42931283Y53005083D01*
X43180000Y52954717D01*
X44704000Y52954717D01*
X44936352Y52998437D01*
X45149753Y53135757D01*
X45211574Y53226234D01*
X45261757Y53148247D01*
X45471283Y53005083D01*
X45655000Y52967880D01*
X45655000Y52558104D01*
X45551148Y52538563D01*
X45337747Y52401243D01*
X45194583Y52191717D01*
X45144217Y51943000D01*
X45144217Y51054000D01*
X45187937Y50821648D01*
X45325257Y50608247D01*
X45534783Y50465083D01*
X45783500Y50414717D01*
X47180500Y50414717D01*
X47412852Y50458437D01*
X47626253Y50595757D01*
X47769417Y50805283D01*
X47819783Y51054000D01*
X47819783Y51943000D01*
X47776063Y52175352D01*
X47638743Y52388753D01*
X47429217Y52531917D01*
X47309000Y52556261D01*
X47309000Y52966948D01*
X47476352Y52998437D01*
X47689753Y53135757D01*
X47751574Y53226234D01*
X47801757Y53148247D01*
X48011283Y53005083D01*
X48260000Y52954717D01*
X49784000Y52954717D01*
X50016352Y52998437D01*
X50229753Y53135757D01*
X50372917Y53345283D01*
X50423283Y53594000D01*
X50423283Y55118000D01*
X50379563Y55350352D01*
X50242243Y55563753D01*
X50151766Y55625574D01*
X50229753Y55675757D01*
X50372917Y55885283D01*
X50423283Y56134000D01*
X50423283Y57658000D01*
X50379563Y57890352D01*
X50242243Y58103753D01*
X50032717Y58246917D01*
X49784000Y58297283D01*
X48260000Y58297283D01*
X48027648Y58253563D01*
X47814247Y58116243D01*
X47752426Y58025766D01*
X47702243Y58103753D01*
X47492717Y58246917D01*
X47244000Y58297283D01*
X45720000Y58297283D01*
X45487648Y58253563D01*
X45274247Y58116243D01*
X45131083Y57906717D01*
X45080717Y57658000D01*
X45080717Y56134000D01*
X45124437Y55901648D01*
X45261757Y55688247D01*
X45352234Y55626426D01*
X45274247Y55576243D01*
X45212426Y55485766D01*
X45162243Y55563753D01*
X44952717Y55706917D01*
X44704000Y55757283D01*
X43180000Y55757283D01*
X42947648Y55713563D01*
X42734247Y55576243D01*
X42672426Y55485766D01*
X42622243Y55563753D01*
X42531766Y55625574D01*
X42609753Y55675757D01*
X42752917Y55885283D01*
X42803283Y56134000D01*
X42803283Y57658000D01*
X42759563Y57890352D01*
X42622243Y58103753D01*
X42412717Y58246917D01*
X42164000Y58297283D01*
X40640000Y58297283D01*
X40407648Y58253563D01*
X40194247Y58116243D01*
X40132426Y58025766D01*
X40082243Y58103753D01*
X39872717Y58246917D01*
X39642134Y58293611D01*
X39626048Y58374479D01*
X39565713Y58464777D01*
X39446778Y58642777D01*
X38719776Y59369778D01*
X38451478Y59549049D01*
X38134999Y59612001D01*
X26820001Y59612001D01*
X26503522Y59549049D01*
X26235224Y59369779D01*
X25820538Y58955093D01*
X25763717Y58993917D01*
X25515000Y59044283D01*
X24015000Y59044283D01*
X23847871Y59012836D01*
X23780944Y59057106D01*
X23512055Y59109292D01*
X23243663Y59054607D01*
X23242501Y59053823D01*
X23238357Y59056740D01*
X22971097Y59116711D01*
X22701230Y59069841D01*
X22565427Y58983815D01*
X22139701Y58984186D01*
X21745554Y58821328D01*
X21443732Y58520032D01*
X21280186Y58126170D01*
X21279814Y57699701D01*
X21442672Y57305554D01*
X21743968Y57003732D01*
X22137830Y56840186D01*
X22564299Y56839814D01*
X22958446Y57002672D01*
X23008862Y57053000D01*
X23141705Y57053000D01*
X23089958Y57001343D01*
X22788344Y56274975D01*
X22787657Y55488476D01*
X23088003Y54761582D01*
X23142490Y54707000D01*
X22828500Y54707000D01*
X22512021Y54644048D01*
X22467474Y54614283D01*
X21780500Y54614283D01*
X21548148Y54570563D01*
X21334747Y54433243D01*
X21191583Y54223717D01*
X21141217Y53975000D01*
X21141217Y53086000D01*
X21184937Y52853648D01*
X21322257Y52640247D01*
X21412734Y52578426D01*
X21334747Y52528243D01*
X21282994Y52452500D01*
X20536607Y52452500D01*
X20436938Y52520601D01*
X20193000Y52570000D01*
X18915000Y52570000D01*
X18915000Y58420000D01*
X18872120Y58647888D01*
X18737438Y58857189D01*
X18531938Y58997601D01*
X18288000Y59047000D01*
X13462000Y59047000D01*
X13234112Y59004120D01*
X13024811Y58869438D01*
X12884399Y58663938D01*
X12835000Y58420000D01*
X12835000Y52443000D01*
X11938000Y52443000D01*
X11710112Y52400120D01*
X11500811Y52265438D01*
X11360399Y52059938D01*
X11311000Y51816000D01*
X11311000Y46736000D01*
X11353880Y46508112D01*
X11488562Y46298811D01*
X11694062Y46158399D01*
X11938000Y46109000D01*
X18296000Y46109000D01*
X18296000Y43053000D01*
X18338880Y42825112D01*
X18473562Y42615811D01*
X18679062Y42475399D01*
X18923000Y42426000D01*
X22092288Y42426000D01*
X22797644Y41720644D01*
X22997062Y41586399D01*
X23138915Y41557673D01*
X23035752Y41403279D01*
X22972800Y41086800D01*
X22972800Y39119358D01*
X22891532Y39038232D01*
X22843855Y38923412D01*
X22825485Y38927163D01*
X13079623Y38942837D01*
X12858840Y38903058D01*
X12647693Y38771289D01*
X12504448Y38567753D01*
X12451675Y38324523D01*
X12443900Y37763245D01*
X12443843Y37752721D01*
X12454003Y34288161D01*
X12496880Y34062112D01*
X12631562Y33852811D01*
X12837062Y33712399D01*
X13081000Y33663000D01*
X16503492Y33663000D01*
X17026000Y32617985D01*
X17026000Y30737315D01*
X16904743Y30925753D01*
X16695217Y31068917D01*
X16446500Y31119283D01*
X15049500Y31119283D01*
X14817148Y31075563D01*
X14603747Y30938243D01*
X14460583Y30728717D01*
X14410217Y30480000D01*
X14410217Y29811461D01*
X14228118Y29736219D01*
X14078922Y29587283D01*
X13496000Y29587283D01*
X13263648Y29543563D01*
X13050247Y29406243D01*
X12907083Y29196717D01*
X12856717Y28948000D01*
X12856717Y28598000D01*
X12885977Y28442494D01*
X12856717Y28298000D01*
X12856717Y27948000D01*
X12885977Y27792494D01*
X12856717Y27648000D01*
X12856717Y27298000D01*
X12866590Y27245528D01*
X12790043Y27213899D01*
X12488221Y26912603D01*
X12324675Y26518741D01*
X12324619Y26454727D01*
X12162247Y26350243D01*
X12019083Y26140717D01*
X11968717Y25892000D01*
X11968717Y23892000D01*
X12012437Y23659648D01*
X12149757Y23446247D01*
X12359283Y23303083D01*
X12608000Y23252717D01*
X13808000Y23252717D01*
X14040352Y23296437D01*
X14044896Y23299361D01*
X14083257Y23239747D01*
X14292783Y23096583D01*
X14426413Y23069522D01*
X14429758Y23052707D01*
X14619867Y22768187D01*
X15597667Y21790388D01*
X15597667Y21490940D01*
X15641387Y21258588D01*
X15778707Y21045187D01*
X15945322Y20931343D01*
X15284450Y20931343D01*
X15052098Y20887623D01*
X14838697Y20750303D01*
X14782926Y20668680D01*
X7104000Y20668680D01*
X7104000Y26141499D01*
X10216499Y26141499D01*
X10532978Y26204451D01*
X10801276Y26383722D01*
X11076271Y26658717D01*
X11396000Y26658717D01*
X11628352Y26702437D01*
X11841753Y26839757D01*
X11984917Y27049283D01*
X12035283Y27298000D01*
X12035283Y27648000D01*
X12006023Y27803506D01*
X12035283Y27948000D01*
X12035283Y28298000D01*
X12006023Y28453506D01*
X12035283Y28598000D01*
X12035283Y28948000D01*
X12006023Y29103506D01*
X12035283Y29248000D01*
X12035283Y29598000D01*
X11991563Y29830352D01*
X11854243Y30043753D01*
X11798000Y30082182D01*
X11798000Y30158217D01*
X11938000Y30158217D01*
X12170352Y30201937D01*
X12383753Y30339257D01*
X12526917Y30548783D01*
X12577283Y30797500D01*
X12577283Y32194500D01*
X12533563Y32426852D01*
X12396243Y32640253D01*
X12186717Y32783417D01*
X11938000Y32833783D01*
X11049000Y32833783D01*
X10816648Y32790063D01*
X10603247Y32652743D01*
X10460083Y32443217D01*
X10409717Y32194500D01*
X10409717Y31581771D01*
X10386223Y31558277D01*
X10227783Y31321155D01*
X10227783Y32004000D01*
X10184063Y32236352D01*
X10046743Y32449753D01*
X9837217Y32592917D01*
X9588500Y32643283D01*
X8975772Y32643283D01*
X8077777Y33541277D01*
X7895606Y33663000D01*
X10033190Y33663000D01*
X10313968Y33381732D01*
X10707830Y33218186D01*
X11134299Y33217814D01*
X11528446Y33380672D01*
X11830268Y33681968D01*
X11993814Y34075830D01*
X11994186Y34502299D01*
X11831328Y34896446D01*
X11586283Y35141919D01*
X11586283Y38227000D01*
X11542563Y38459352D01*
X11405243Y38672753D01*
X11195717Y38815917D01*
X10947000Y38866283D01*
X9391429Y38866283D01*
X7806633Y40451079D01*
X7633776Y40709778D01*
X7374777Y40968777D01*
X7358000Y40979987D01*
X7358000Y42672000D01*
X7315120Y42899888D01*
X7180438Y43109189D01*
X6974938Y43249601D01*
X6731000Y43299000D01*
X2032000Y43299000D01*
X1804112Y43256120D01*
X1594811Y43121438D01*
X1454399Y42915938D01*
X1405000Y42672000D01*
X931000Y42672000D01*
X931000Y55062690D01*
X952285Y55062690D01*
X1579259Y53545296D01*
X2739190Y52383340D01*
X4255487Y51753718D01*
X5897310Y51752285D01*
X7414704Y52379259D01*
X8576660Y53539190D01*
X9206282Y55055487D01*
X9207715Y56697310D01*
X8580741Y58214704D01*
X7420810Y59376660D01*
X5904513Y60006282D01*
X4262690Y60007715D01*
X2745296Y59380741D01*
X1583340Y58220810D01*
X953718Y56704513D01*
X952285Y55062690D01*
X931000Y55062690D01*
X931000Y60029000D01*
X80349000Y60029000D01*
X80349000Y931000D01*
X80349000Y931000D01*
G37*
X80349000Y931000D02*
X931000Y931000D01*
X931000Y4262690D01*
X952285Y4262690D01*
X1579259Y2745296D01*
X2739190Y1583340D01*
X4255487Y953718D01*
X5897310Y952285D01*
X7414704Y1579259D01*
X8576660Y2739190D01*
X9206282Y4255487D01*
X9207715Y5897310D01*
X8580741Y7414704D01*
X7420810Y8576660D01*
X5904513Y9206282D01*
X4262690Y9207715D01*
X2745296Y8580741D01*
X1583340Y7420810D01*
X953718Y5904513D01*
X952285Y4262690D01*
X931000Y4262690D01*
X931000Y42672000D01*
X1405000Y42672000D01*
X1405000Y37592000D01*
X1447880Y37364112D01*
X1582562Y37154811D01*
X1788062Y37014399D01*
X2032000Y36965000D01*
X3633377Y36965000D01*
X4748792Y34064920D01*
X4884562Y33852811D01*
X5090062Y33712399D01*
X5215110Y33687076D01*
X5189583Y33649717D01*
X5139217Y33401000D01*
X5139217Y32512000D01*
X5182937Y32279648D01*
X5297327Y32101881D01*
X5191446Y31996000D01*
X2286000Y31996000D01*
X2058112Y31953120D01*
X1848811Y31818438D01*
X1708399Y31612938D01*
X1659000Y31369000D01*
X1659000Y18923000D01*
X1701880Y18695112D01*
X1836562Y18485811D01*
X2042062Y18345399D01*
X2286000Y18296000D01*
X6477000Y18296000D01*
X6704888Y18338880D01*
X6914189Y18473562D01*
X7054601Y18679062D01*
X7102315Y18914680D01*
X14781721Y18914680D01*
X14826207Y18845547D01*
X15035733Y18702383D01*
X15284450Y18652017D01*
X16084550Y18652017D01*
X16316902Y18695737D01*
X16530303Y18833057D01*
X16673467Y19042583D01*
X16723833Y19291300D01*
X16723833Y20292060D01*
X16680113Y20524412D01*
X16542793Y20737813D01*
X16376178Y20851657D01*
X17026000Y20851657D01*
X17026000Y10660000D01*
X12827000Y10660000D01*
X12599112Y10617120D01*
X12389811Y10482438D01*
X12249399Y10276938D01*
X12200000Y10033000D01*
X12200000Y5715000D01*
X12242880Y5487112D01*
X12377562Y5277811D01*
X12583062Y5137399D01*
X12827000Y5088000D01*
X26289000Y5088000D01*
X26524935Y5134084D01*
X26732356Y5271644D01*
X28453712Y6993000D01*
X32633288Y6993000D01*
X32647000Y6979288D01*
X32647000Y2794000D01*
X32689880Y2566112D01*
X32824562Y2356811D01*
X33030062Y2216399D01*
X33274000Y2167000D01*
X37973000Y2167000D01*
X38200888Y2209880D01*
X38410189Y2344562D01*
X38550601Y2550062D01*
X38600000Y2794000D01*
X38600000Y10414000D01*
X38557120Y10641888D01*
X38422438Y10851189D01*
X38216938Y10991601D01*
X37973000Y11041000D01*
X23995000Y11041000D01*
X23995000Y12995701D01*
X31566814Y12995701D01*
X31729672Y12601554D01*
X32030968Y12299732D01*
X32424830Y12136186D01*
X32851299Y12135814D01*
X32851749Y12136000D01*
X35877500Y12136000D01*
X36287737Y12217601D01*
X36635518Y12449982D01*
X45525217Y21339680D01*
X45525217Y21232993D01*
X40492512Y16200288D01*
X40291564Y15899548D01*
X40221000Y15544800D01*
X40221000Y11738920D01*
X40076186Y11390170D01*
X40075814Y10963701D01*
X40238672Y10569554D01*
X40539968Y10267732D01*
X40933830Y10104186D01*
X41217766Y10103938D01*
X41250937Y9927648D01*
X41388257Y9714247D01*
X41478734Y9652426D01*
X41400747Y9602243D01*
X41257583Y9392717D01*
X41207217Y9144000D01*
X41207217Y8255000D01*
X41250937Y8022648D01*
X41388257Y7809247D01*
X41597783Y7666083D01*
X41718000Y7641739D01*
X41718000Y7594794D01*
X41627871Y7577836D01*
X41560944Y7622106D01*
X41292055Y7674292D01*
X41023663Y7619607D01*
X41022501Y7618823D01*
X41018357Y7621740D01*
X40751097Y7681711D01*
X40481230Y7634841D01*
X40249842Y7488265D01*
X40092160Y7264297D01*
X40032189Y6997037D01*
X40059363Y6840575D01*
X40024388Y6656152D01*
X40080221Y6387996D01*
X40234423Y6161619D01*
X40463517Y6011484D01*
X40732628Y5960448D01*
X41000492Y5962840D01*
X41021663Y5958089D01*
X41051646Y5963296D01*
X41155717Y5964226D01*
X41155717Y5920000D01*
X41166551Y5862420D01*
X40869958Y5566343D01*
X40568344Y4839975D01*
X40567657Y4053476D01*
X40868003Y3326582D01*
X40875222Y3319351D01*
X40820954Y3296928D01*
X40519132Y2995632D01*
X40355586Y2601770D01*
X40355214Y2175301D01*
X40518072Y1781154D01*
X40819368Y1479332D01*
X41213230Y1315786D01*
X41623590Y1315428D01*
X41795000Y1280717D01*
X43295000Y1280717D01*
X43527352Y1324437D01*
X43740753Y1461757D01*
X43779182Y1518000D01*
X43975603Y1518000D01*
X44003757Y1474247D01*
X44213283Y1331083D01*
X44462000Y1280717D01*
X45962000Y1280717D01*
X46194352Y1324437D01*
X46407753Y1461757D01*
X46446182Y1518000D01*
X46642603Y1518000D01*
X46670757Y1474247D01*
X46880283Y1331083D01*
X47129000Y1280717D01*
X48629000Y1280717D01*
X48861352Y1324437D01*
X49074753Y1461757D01*
X49113182Y1518000D01*
X49309603Y1518000D01*
X49337757Y1474247D01*
X49547283Y1331083D01*
X49796000Y1280717D01*
X51296000Y1280717D01*
X51528352Y1324437D01*
X51741753Y1461757D01*
X51780182Y1518000D01*
X51976603Y1518000D01*
X52004757Y1474247D01*
X52214283Y1331083D01*
X52463000Y1280717D01*
X53963000Y1280717D01*
X54195352Y1324437D01*
X54408753Y1461757D01*
X54447182Y1518000D01*
X54643603Y1518000D01*
X54671757Y1474247D01*
X54881283Y1331083D01*
X55130000Y1280717D01*
X56630000Y1280717D01*
X56862352Y1324437D01*
X57075753Y1461757D01*
X57114182Y1518000D01*
X57310603Y1518000D01*
X57338757Y1474247D01*
X57548283Y1331083D01*
X57797000Y1280717D01*
X59297000Y1280717D01*
X59529352Y1324437D01*
X59742753Y1461757D01*
X59781182Y1518000D01*
X59977603Y1518000D01*
X60005757Y1474247D01*
X60215283Y1331083D01*
X60464000Y1280717D01*
X61964000Y1280717D01*
X62196352Y1324437D01*
X62409753Y1461757D01*
X62552917Y1671283D01*
X62603283Y1920000D01*
X62603283Y2261160D01*
X62736557Y2054047D01*
X62946083Y1910883D01*
X63194800Y1860517D01*
X64871200Y1860517D01*
X65103552Y1904237D01*
X65316953Y2041557D01*
X65460117Y2251083D01*
X65510483Y2499800D01*
X65510483Y2511000D01*
X68855517Y2511000D01*
X68855517Y2499800D01*
X68899237Y2267448D01*
X69036557Y2054047D01*
X69246083Y1910883D01*
X69494800Y1860517D01*
X71171200Y1860517D01*
X71403552Y1904237D01*
X71616953Y2041557D01*
X71760117Y2251083D01*
X71810483Y2499800D01*
X71810483Y4176200D01*
X71794209Y4262690D01*
X72072285Y4262690D01*
X72699259Y2745296D01*
X73859190Y1583340D01*
X75375487Y953718D01*
X77017310Y952285D01*
X78534704Y1579259D01*
X79696660Y2739190D01*
X80326282Y4255487D01*
X80327715Y5897310D01*
X79700741Y7414704D01*
X78540810Y8576660D01*
X77024513Y9206282D01*
X75382690Y9207715D01*
X73865296Y8580741D01*
X72703340Y7420810D01*
X72073718Y5904513D01*
X72072285Y4262690D01*
X71794209Y4262690D01*
X71766763Y4408552D01*
X71629443Y4621953D01*
X71419917Y4765117D01*
X71171200Y4815483D01*
X69494800Y4815483D01*
X69262448Y4771763D01*
X69049047Y4634443D01*
X68905883Y4424917D01*
X68855517Y4176200D01*
X68855517Y4165000D01*
X65510483Y4165000D01*
X65510483Y4176200D01*
X65466763Y4408552D01*
X65329443Y4621953D01*
X65119917Y4765117D01*
X64871200Y4815483D01*
X64860000Y4815483D01*
X64860000Y5019440D01*
X64797048Y5335919D01*
X64617777Y5604217D01*
X63861477Y6360517D01*
X64871200Y6360517D01*
X65103552Y6404237D01*
X65316953Y6541557D01*
X65460117Y6751083D01*
X65510483Y6999800D01*
X65510483Y7011000D01*
X68855517Y7011000D01*
X68855517Y6999800D01*
X68899237Y6767448D01*
X69036557Y6554047D01*
X69246083Y6410883D01*
X69494800Y6360517D01*
X71171200Y6360517D01*
X71403552Y6404237D01*
X71616953Y6541557D01*
X71760117Y6751083D01*
X71810483Y6999800D01*
X71810483Y8145928D01*
X72085777Y8421222D01*
X72265048Y8689521D01*
X72275831Y8743732D01*
X72328000Y9006000D01*
X72328000Y12338896D01*
X72431852Y12358437D01*
X72645253Y12495757D01*
X72788417Y12705283D01*
X72838783Y12954000D01*
X72838783Y13843000D01*
X72795063Y14075352D01*
X72657743Y14288753D01*
X72567266Y14350574D01*
X72645253Y14400757D01*
X72788417Y14610283D01*
X72838783Y14859000D01*
X72838783Y15748000D01*
X72795063Y15980352D01*
X72657743Y16193753D01*
X72448217Y16336917D01*
X72293022Y16368344D01*
X72265048Y16508979D01*
X72085777Y16777277D01*
X70806783Y18056271D01*
X70806783Y18669000D01*
X70763063Y18901352D01*
X70625743Y19114753D01*
X70416217Y19257917D01*
X70296000Y19282261D01*
X70296000Y19314103D01*
X70413814Y19597830D01*
X70414186Y20024299D01*
X70251328Y20418446D01*
X69950032Y20720268D01*
X69556170Y20883814D01*
X69129701Y20884186D01*
X68735554Y20721328D01*
X68433732Y20420032D01*
X68270186Y20026170D01*
X68269814Y19599701D01*
X68432672Y19205554D01*
X68438059Y19200157D01*
X68324747Y19127243D01*
X68181583Y18917717D01*
X68131217Y18669000D01*
X68131217Y17780000D01*
X68174937Y17547648D01*
X68312257Y17334247D01*
X68521783Y17191083D01*
X68770500Y17140717D01*
X69383229Y17140717D01*
X70340898Y16183048D01*
X70213583Y15996717D01*
X70163217Y15748000D01*
X70163217Y14859000D01*
X70206937Y14626648D01*
X70344257Y14413247D01*
X70434734Y14351426D01*
X70356747Y14301243D01*
X70213583Y14091717D01*
X70163217Y13843000D01*
X70163217Y12954000D01*
X70206937Y12721648D01*
X70344257Y12508247D01*
X70553783Y12365083D01*
X70674000Y12340739D01*
X70674000Y9348555D01*
X70640928Y9315483D01*
X69494800Y9315483D01*
X69262448Y9271763D01*
X69049047Y9134443D01*
X68905883Y8924917D01*
X68855517Y8676200D01*
X68855517Y8665000D01*
X65510483Y8665000D01*
X65510483Y8676200D01*
X65466763Y8908552D01*
X65329443Y9121953D01*
X65119917Y9265117D01*
X64871200Y9315483D01*
X63407520Y9315483D01*
X63407520Y15955480D01*
X63344568Y16271959D01*
X63165297Y16540257D01*
X55528777Y24176777D01*
X55431164Y24242000D01*
X55528777Y24307223D01*
X56215001Y24993446D01*
X56215001Y24155101D01*
X56277953Y23838622D01*
X56457224Y23570324D01*
X57670325Y22357223D01*
X57938623Y22177952D01*
X58255102Y22115000D01*
X58809889Y22115000D01*
X58994000Y22077717D01*
X60444000Y22077717D01*
X60514000Y22090888D01*
X60514000Y20588498D01*
X60576952Y20272019D01*
X60756223Y20003721D01*
X61912722Y18847221D01*
X62181020Y18667951D01*
X62497499Y18604999D01*
X65024999Y18604999D01*
X65341478Y18667951D01*
X65609776Y18847222D01*
X66645469Y19882914D01*
X66760299Y19882814D01*
X67154446Y20045672D01*
X67456268Y20346968D01*
X67619814Y20740830D01*
X67620186Y21167299D01*
X67457328Y21561446D01*
X67156032Y21863268D01*
X66762170Y22026814D01*
X66335701Y22027186D01*
X65941554Y21864328D01*
X65639732Y21563032D01*
X65476186Y21169170D01*
X65476084Y21052639D01*
X64682445Y20258999D01*
X62840054Y20258999D01*
X62168000Y20931052D01*
X62168000Y21197332D01*
X62362283Y21064583D01*
X62611000Y21014217D01*
X63500000Y21014217D01*
X63732352Y21057937D01*
X63945753Y21195257D01*
X64088917Y21404783D01*
X64139283Y21653500D01*
X64139283Y23050500D01*
X64098631Y23266548D01*
X64136253Y23290757D01*
X64263478Y23476956D01*
X64375257Y23303247D01*
X64584783Y23160083D01*
X64833500Y23109717D01*
X66230500Y23109717D01*
X66462852Y23153437D01*
X66676253Y23290757D01*
X66728006Y23366500D01*
X69697946Y23366500D01*
X70239000Y22825446D01*
X70239000Y20574000D01*
X70281880Y20346112D01*
X70416562Y20136811D01*
X70622062Y19996399D01*
X70866000Y19947000D01*
X72511288Y19947000D01*
X74105644Y18352644D01*
X74305062Y18218399D01*
X74549000Y18169000D01*
X79121000Y18169000D01*
X79348888Y18211880D01*
X79558189Y18346562D01*
X79698601Y18552062D01*
X79748000Y18796000D01*
X79748000Y23368000D01*
X79705120Y23595888D01*
X79570438Y23805189D01*
X79364938Y23945601D01*
X79121000Y23995000D01*
X71408554Y23995000D01*
X70625277Y24778277D01*
X70356979Y24957548D01*
X70040500Y25020500D01*
X68927010Y25020500D01*
X68965283Y25209500D01*
X68965283Y26606500D01*
X68921563Y26838852D01*
X68784243Y27052253D01*
X68574717Y27195417D01*
X68326000Y27245783D01*
X67437000Y27245783D01*
X67204648Y27202063D01*
X66991247Y27064743D01*
X66848083Y26855217D01*
X66828879Y26760385D01*
X66826063Y26775352D01*
X66688743Y26988753D01*
X66479217Y27131917D01*
X66230500Y27182283D01*
X64833500Y27182283D01*
X64601148Y27138563D01*
X64387747Y27001243D01*
X64335994Y26925500D01*
X64189445Y26925500D01*
X64148743Y26988753D01*
X63939217Y27131917D01*
X63819000Y27156261D01*
X63819000Y27209694D01*
X63945753Y27291257D01*
X64088917Y27500783D01*
X64139283Y27749500D01*
X64139283Y29146500D01*
X64095563Y29378852D01*
X64072302Y29415000D01*
X78571429Y29415000D01*
X78571429Y33369000D01*
X75051572Y33369000D01*
X75051572Y36417000D01*
X64140429Y36417000D01*
X64140429Y33369000D01*
X60874571Y33369000D01*
X60874571Y29415000D01*
X62035600Y29415000D01*
X62022083Y29395217D01*
X61971717Y29146500D01*
X61971717Y27749500D01*
X62015437Y27517148D01*
X62152757Y27303747D01*
X62165000Y27295382D01*
X62165000Y27158104D01*
X62061148Y27138563D01*
X61875342Y27019000D01*
X60628111Y27019000D01*
X60444000Y27056283D01*
X59069021Y27056283D01*
X59069021Y35462464D01*
X59198776Y35592219D01*
X59378047Y35860518D01*
X59386211Y35901563D01*
X59440999Y36176997D01*
X59440999Y41615445D01*
X60336554Y42511000D01*
X74187217Y42511000D01*
X74187217Y38511000D01*
X74230937Y38278648D01*
X74368257Y38065247D01*
X74577783Y37922083D01*
X74826500Y37871717D01*
X78826500Y37871717D01*
X79058852Y37915437D01*
X79272253Y38052757D01*
X79415417Y38262283D01*
X79465783Y38511000D01*
X79465783Y42511000D01*
X79422063Y42743352D01*
X79284743Y42956753D01*
X79075217Y43099917D01*
X78826500Y43150283D01*
X74826500Y43150283D01*
X74594148Y43106563D01*
X74380747Y42969243D01*
X74237583Y42759717D01*
X74187217Y42511000D01*
X60336554Y42511000D01*
X68529777Y50704223D01*
X68709048Y50972521D01*
X68725080Y51053119D01*
X68939352Y51093437D01*
X69152753Y51230757D01*
X69295917Y51440283D01*
X69346283Y51689000D01*
X69346283Y53213000D01*
X69302563Y53445352D01*
X69165243Y53658753D01*
X69074766Y53720574D01*
X69152753Y53770757D01*
X69295917Y53980283D01*
X69346283Y54229000D01*
X69346283Y55062690D01*
X72072285Y55062690D01*
X72699259Y53545296D01*
X73859190Y52383340D01*
X75375487Y51753718D01*
X77017310Y51752285D01*
X78534704Y52379259D01*
X79696660Y53539190D01*
X80326282Y55055487D01*
X80327715Y56697310D01*
X79700741Y58214704D01*
X78540810Y59376660D01*
X77024513Y60006282D01*
X75382690Y60007715D01*
X73865296Y59380741D01*
X72703340Y58220810D01*
X72073718Y56704513D01*
X72072285Y55062690D01*
X69346283Y55062690D01*
X69346283Y55753000D01*
X69302563Y55985352D01*
X69165243Y56198753D01*
X68955717Y56341917D01*
X68707000Y56392283D01*
X67183000Y56392283D01*
X66950648Y56348563D01*
X66737247Y56211243D01*
X66675426Y56120766D01*
X66625243Y56198753D01*
X66415717Y56341917D01*
X66167000Y56392283D01*
X64643000Y56392283D01*
X64410648Y56348563D01*
X64197247Y56211243D01*
X64135426Y56120766D01*
X64085243Y56198753D01*
X63875717Y56341917D01*
X63627000Y56392283D01*
X62103000Y56392283D01*
X61870648Y56348563D01*
X61657247Y56211243D01*
X61514083Y56001717D01*
X61463717Y55753000D01*
X61463717Y54229000D01*
X61507437Y53996648D01*
X61644757Y53783247D01*
X61735234Y53721426D01*
X61657247Y53671243D01*
X61514083Y53461717D01*
X61463717Y53213000D01*
X61463717Y51689000D01*
X61507437Y51456648D01*
X61644757Y51243247D01*
X61647689Y51241244D01*
X56038222Y45631776D01*
X55858951Y45363478D01*
X55795999Y45046999D01*
X55795999Y38231283D01*
X55118000Y38231283D01*
X54885648Y38187563D01*
X54672247Y38050243D01*
X54529083Y37840717D01*
X54514864Y37770500D01*
X52595855Y37770500D01*
X52464743Y37974253D01*
X52380000Y38032156D01*
X52380000Y38079280D01*
X52448097Y38178943D01*
X52498463Y38427660D01*
X52498463Y40977820D01*
X52454743Y41210172D01*
X52317423Y41423573D01*
X52107897Y41566737D01*
X51859180Y41617103D01*
X49359820Y41617103D01*
X49127468Y41573383D01*
X48914067Y41436063D01*
X48770903Y41226537D01*
X48720537Y40977820D01*
X48720537Y38427660D01*
X48764257Y38195308D01*
X48901577Y37981907D01*
X49111103Y37838743D01*
X49359820Y37788377D01*
X50028208Y37788377D01*
X50020583Y37777217D01*
X49970217Y37528500D01*
X49970217Y36986483D01*
X49631149Y36647415D01*
X49569084Y36688886D01*
X49212500Y36759815D01*
X48855916Y36688886D01*
X48577500Y36502854D01*
X48321845Y36673678D01*
X48327783Y36703000D01*
X48327783Y37592000D01*
X48284063Y37824352D01*
X48146743Y38037753D01*
X47937217Y38180917D01*
X47688500Y38231283D01*
X46291500Y38231283D01*
X46059148Y38187563D01*
X45845747Y38050243D01*
X45702583Y37840717D01*
X45652217Y37592000D01*
X45652217Y36710143D01*
X45402500Y36759815D01*
X45045916Y36688886D01*
X44743618Y36486897D01*
X44541629Y36184599D01*
X44481865Y35884146D01*
X44412101Y35779737D01*
X44330500Y35369500D01*
X44412101Y34959263D01*
X44481865Y34854854D01*
X44541629Y34554401D01*
X44584990Y34489507D01*
X44584990Y33503770D01*
X44666591Y33093533D01*
X44811911Y32876048D01*
X44898972Y32745752D01*
X46722251Y30922472D01*
X47006562Y30732501D01*
X47070033Y30690091D01*
X47135409Y30677087D01*
X47081629Y30596599D01*
X47010700Y30240015D01*
X47010700Y29322985D01*
X47081629Y28966401D01*
X47283618Y28664103D01*
X47585916Y28462114D01*
X47886570Y28402310D01*
X47886314Y28108701D01*
X48049172Y27714554D01*
X48350468Y27412732D01*
X48502900Y27349437D01*
X35433464Y14280000D01*
X32639935Y14280000D01*
X32426701Y14280186D01*
X32032554Y14117328D01*
X31730732Y13816032D01*
X31567186Y13422170D01*
X31566814Y12995701D01*
X23995000Y12995701D01*
X23995000Y14628489D01*
X24072601Y14742062D01*
X24122000Y14986000D01*
X24122000Y21717000D01*
X31496000Y21717000D01*
X31726795Y21760427D01*
X31938767Y21896827D01*
X32080971Y22104949D01*
X32131000Y22352000D01*
X32131000Y26035000D01*
X42164000Y26035000D01*
X42394795Y26078427D01*
X42606767Y26214827D01*
X42748971Y26422949D01*
X42799000Y26670000D01*
X42799000Y31249964D01*
X43747518Y32198481D01*
X43979899Y32546263D01*
X43990501Y32599563D01*
X44061500Y32956500D01*
X44061500Y36911966D01*
X47822020Y40672485D01*
X48054401Y41020267D01*
X48136001Y41430503D01*
X48136001Y44713965D01*
X55368018Y51945981D01*
X55600399Y52293763D01*
X55605363Y52318717D01*
X55682000Y52704000D01*
X55682000Y53048402D01*
X55817753Y53135757D01*
X55879574Y53226234D01*
X55929757Y53148247D01*
X56139283Y53005083D01*
X56388000Y52954717D01*
X57912000Y52954717D01*
X58144352Y52998437D01*
X58357753Y53135757D01*
X58500917Y53345283D01*
X58551283Y53594000D01*
X58551283Y55118000D01*
X58507563Y55350352D01*
X58370243Y55563753D01*
X58279766Y55625574D01*
X58357753Y55675757D01*
X58500917Y55885283D01*
X58551283Y56134000D01*
X58551283Y57658000D01*
X58507563Y57890352D01*
X58370243Y58103753D01*
X58160717Y58246917D01*
X57912000Y58297283D01*
X56388000Y58297283D01*
X56155648Y58253563D01*
X55942247Y58116243D01*
X55880426Y58025766D01*
X55830243Y58103753D01*
X55620717Y58246917D01*
X55372000Y58297283D01*
X53848000Y58297283D01*
X53615648Y58253563D01*
X53402247Y58116243D01*
X53259083Y57906717D01*
X53208717Y57658000D01*
X53208717Y56134000D01*
X53252437Y55901648D01*
X53389757Y55688247D01*
X53480234Y55626426D01*
X53402247Y55576243D01*
X53259083Y55366717D01*
X53208717Y55118000D01*
X53208717Y53594000D01*
X53252437Y53361648D01*
X53389757Y53148247D01*
X53477950Y53087987D01*
X46305983Y45916019D01*
X46073602Y45568238D01*
X45992001Y45158001D01*
X45992001Y41874540D01*
X45092283Y40974822D01*
X45092283Y44069000D01*
X45077000Y44150222D01*
X45077000Y44196000D01*
X45034120Y44423888D01*
X44899438Y44633189D01*
X44693938Y44773601D01*
X44450000Y44823000D01*
X39116000Y44823000D01*
X38888112Y44780120D01*
X38742131Y44686184D01*
X38633000Y44708283D01*
X35780573Y44708283D01*
X35818283Y44894500D01*
X35818283Y46291500D01*
X35774563Y46523852D01*
X35637243Y46737253D01*
X35427717Y46880417D01*
X35179000Y46930783D01*
X34566272Y46930783D01*
X34103783Y47393271D01*
X34103783Y47879000D01*
X34060063Y48111352D01*
X33922743Y48324753D01*
X33713217Y48467917D01*
X33464500Y48518283D01*
X32597771Y48518283D01*
X32252276Y48863778D01*
X31983978Y49043049D01*
X31667499Y49106001D01*
X29080499Y49106001D01*
X28764020Y49043049D01*
X28495722Y48863778D01*
X28225624Y48593680D01*
X28046353Y48325382D01*
X27983401Y48008903D01*
X27983401Y46968697D01*
X27941000Y46977283D01*
X27661000Y46977283D01*
X27428648Y46933563D01*
X27215247Y46796243D01*
X27072083Y46586717D01*
X27021717Y46338000D01*
X27021717Y45488000D01*
X27065437Y45255648D01*
X27202757Y45042247D01*
X27412283Y44899083D01*
X27661000Y44848717D01*
X27711717Y44848717D01*
X27711717Y44798000D01*
X27733175Y44683962D01*
X27711717Y44578000D01*
X27711717Y44298000D01*
X27733175Y44183962D01*
X27711717Y44078000D01*
X27711717Y43798000D01*
X27733175Y43683962D01*
X27711717Y43578000D01*
X27711717Y43298000D01*
X27755437Y43065648D01*
X27892757Y42852247D01*
X27982394Y42791000D01*
X26408000Y42791000D01*
X26408000Y44450000D01*
X26390283Y44544158D01*
X26390283Y44578000D01*
X26368825Y44692038D01*
X26390283Y44798000D01*
X26390283Y45078000D01*
X26368825Y45192038D01*
X26390283Y45298000D01*
X26390283Y45578000D01*
X26346563Y45810352D01*
X26209243Y46023753D01*
X26153000Y46062182D01*
X26153000Y46427446D01*
X26492777Y46767222D01*
X26672048Y47035521D01*
X26690549Y47128532D01*
X26838852Y47156437D01*
X27052253Y47293757D01*
X27195417Y47503283D01*
X27245783Y47752000D01*
X27245783Y48563951D01*
X27407074Y48671722D01*
X28155854Y49420501D01*
X33714217Y49420501D01*
X33714217Y48958500D01*
X33757937Y48726148D01*
X33895257Y48512747D01*
X34104783Y48369583D01*
X34353500Y48319217D01*
X35750500Y48319217D01*
X35982852Y48362937D01*
X36063402Y48414770D01*
X36163349Y48373268D01*
X36589818Y48372896D01*
X36983965Y48535754D01*
X37285787Y48837050D01*
X37449333Y49230912D01*
X37449705Y49657381D01*
X37286847Y50051528D01*
X37144710Y50193914D01*
X38574796Y51624000D01*
X39696842Y51624000D01*
X39777968Y51542732D01*
X40171830Y51379186D01*
X40598299Y51378814D01*
X40992446Y51541672D01*
X41294268Y51842968D01*
X41457814Y52236830D01*
X41458186Y52663299D01*
X41337775Y52954717D01*
X42164000Y52954717D01*
X42396352Y52998437D01*
X42609753Y53135757D01*
X42671574Y53226234D01*
X42721757Y53148247D01*
X42931283Y53005083D01*
X43180000Y52954717D01*
X44704000Y52954717D01*
X44936352Y52998437D01*
X45149753Y53135757D01*
X45211574Y53226234D01*
X45261757Y53148247D01*
X45471283Y53005083D01*
X45655000Y52967880D01*
X45655000Y52558104D01*
X45551148Y52538563D01*
X45337747Y52401243D01*
X45194583Y52191717D01*
X45144217Y51943000D01*
X45144217Y51054000D01*
X45187937Y50821648D01*
X45325257Y50608247D01*
X45534783Y50465083D01*
X45783500Y50414717D01*
X47180500Y50414717D01*
X47412852Y50458437D01*
X47626253Y50595757D01*
X47769417Y50805283D01*
X47819783Y51054000D01*
X47819783Y51943000D01*
X47776063Y52175352D01*
X47638743Y52388753D01*
X47429217Y52531917D01*
X47309000Y52556261D01*
X47309000Y52966948D01*
X47476352Y52998437D01*
X47689753Y53135757D01*
X47751574Y53226234D01*
X47801757Y53148247D01*
X48011283Y53005083D01*
X48260000Y52954717D01*
X49784000Y52954717D01*
X50016352Y52998437D01*
X50229753Y53135757D01*
X50372917Y53345283D01*
X50423283Y53594000D01*
X50423283Y55118000D01*
X50379563Y55350352D01*
X50242243Y55563753D01*
X50151766Y55625574D01*
X50229753Y55675757D01*
X50372917Y55885283D01*
X50423283Y56134000D01*
X50423283Y57658000D01*
X50379563Y57890352D01*
X50242243Y58103753D01*
X50032717Y58246917D01*
X49784000Y58297283D01*
X48260000Y58297283D01*
X48027648Y58253563D01*
X47814247Y58116243D01*
X47752426Y58025766D01*
X47702243Y58103753D01*
X47492717Y58246917D01*
X47244000Y58297283D01*
X45720000Y58297283D01*
X45487648Y58253563D01*
X45274247Y58116243D01*
X45131083Y57906717D01*
X45080717Y57658000D01*
X45080717Y56134000D01*
X45124437Y55901648D01*
X45261757Y55688247D01*
X45352234Y55626426D01*
X45274247Y55576243D01*
X45212426Y55485766D01*
X45162243Y55563753D01*
X44952717Y55706917D01*
X44704000Y55757283D01*
X43180000Y55757283D01*
X42947648Y55713563D01*
X42734247Y55576243D01*
X42672426Y55485766D01*
X42622243Y55563753D01*
X42531766Y55625574D01*
X42609753Y55675757D01*
X42752917Y55885283D01*
X42803283Y56134000D01*
X42803283Y57658000D01*
X42759563Y57890352D01*
X42622243Y58103753D01*
X42412717Y58246917D01*
X42164000Y58297283D01*
X40640000Y58297283D01*
X40407648Y58253563D01*
X40194247Y58116243D01*
X40132426Y58025766D01*
X40082243Y58103753D01*
X39872717Y58246917D01*
X39642134Y58293611D01*
X39626048Y58374479D01*
X39565713Y58464777D01*
X39446778Y58642777D01*
X38719776Y59369778D01*
X38451478Y59549049D01*
X38134999Y59612001D01*
X26820001Y59612001D01*
X26503522Y59549049D01*
X26235224Y59369779D01*
X25820538Y58955093D01*
X25763717Y58993917D01*
X25515000Y59044283D01*
X24015000Y59044283D01*
X23847871Y59012836D01*
X23780944Y59057106D01*
X23512055Y59109292D01*
X23243663Y59054607D01*
X23242501Y59053823D01*
X23238357Y59056740D01*
X22971097Y59116711D01*
X22701230Y59069841D01*
X22565427Y58983815D01*
X22139701Y58984186D01*
X21745554Y58821328D01*
X21443732Y58520032D01*
X21280186Y58126170D01*
X21279814Y57699701D01*
X21442672Y57305554D01*
X21743968Y57003732D01*
X22137830Y56840186D01*
X22564299Y56839814D01*
X22958446Y57002672D01*
X23008862Y57053000D01*
X23141705Y57053000D01*
X23089958Y57001343D01*
X22788344Y56274975D01*
X22787657Y55488476D01*
X23088003Y54761582D01*
X23142490Y54707000D01*
X22828500Y54707000D01*
X22512021Y54644048D01*
X22467474Y54614283D01*
X21780500Y54614283D01*
X21548148Y54570563D01*
X21334747Y54433243D01*
X21191583Y54223717D01*
X21141217Y53975000D01*
X21141217Y53086000D01*
X21184937Y52853648D01*
X21322257Y52640247D01*
X21412734Y52578426D01*
X21334747Y52528243D01*
X21282994Y52452500D01*
X20536607Y52452500D01*
X20436938Y52520601D01*
X20193000Y52570000D01*
X18915000Y52570000D01*
X18915000Y58420000D01*
X18872120Y58647888D01*
X18737438Y58857189D01*
X18531938Y58997601D01*
X18288000Y59047000D01*
X13462000Y59047000D01*
X13234112Y59004120D01*
X13024811Y58869438D01*
X12884399Y58663938D01*
X12835000Y58420000D01*
X12835000Y52443000D01*
X11938000Y52443000D01*
X11710112Y52400120D01*
X11500811Y52265438D01*
X11360399Y52059938D01*
X11311000Y51816000D01*
X11311000Y46736000D01*
X11353880Y46508112D01*
X11488562Y46298811D01*
X11694062Y46158399D01*
X11938000Y46109000D01*
X18296000Y46109000D01*
X18296000Y43053000D01*
X18338880Y42825112D01*
X18473562Y42615811D01*
X18679062Y42475399D01*
X18923000Y42426000D01*
X22092288Y42426000D01*
X22797644Y41720644D01*
X22997062Y41586399D01*
X23138915Y41557673D01*
X23035752Y41403279D01*
X22972800Y41086800D01*
X22972800Y39119358D01*
X22891532Y39038232D01*
X22843855Y38923412D01*
X22825485Y38927163D01*
X13079623Y38942837D01*
X12858840Y38903058D01*
X12647693Y38771289D01*
X12504448Y38567753D01*
X12451675Y38324523D01*
X12443900Y37763245D01*
X12443843Y37752721D01*
X12454003Y34288161D01*
X12496880Y34062112D01*
X12631562Y33852811D01*
X12837062Y33712399D01*
X13081000Y33663000D01*
X16503492Y33663000D01*
X17026000Y32617985D01*
X17026000Y30737315D01*
X16904743Y30925753D01*
X16695217Y31068917D01*
X16446500Y31119283D01*
X15049500Y31119283D01*
X14817148Y31075563D01*
X14603747Y30938243D01*
X14460583Y30728717D01*
X14410217Y30480000D01*
X14410217Y29811461D01*
X14228118Y29736219D01*
X14078922Y29587283D01*
X13496000Y29587283D01*
X13263648Y29543563D01*
X13050247Y29406243D01*
X12907083Y29196717D01*
X12856717Y28948000D01*
X12856717Y28598000D01*
X12885977Y28442494D01*
X12856717Y28298000D01*
X12856717Y27948000D01*
X12885977Y27792494D01*
X12856717Y27648000D01*
X12856717Y27298000D01*
X12866590Y27245528D01*
X12790043Y27213899D01*
X12488221Y26912603D01*
X12324675Y26518741D01*
X12324619Y26454727D01*
X12162247Y26350243D01*
X12019083Y26140717D01*
X11968717Y25892000D01*
X11968717Y23892000D01*
X12012437Y23659648D01*
X12149757Y23446247D01*
X12359283Y23303083D01*
X12608000Y23252717D01*
X13808000Y23252717D01*
X14040352Y23296437D01*
X14044896Y23299361D01*
X14083257Y23239747D01*
X14292783Y23096583D01*
X14426413Y23069522D01*
X14429758Y23052707D01*
X14619867Y22768187D01*
X15597667Y21790388D01*
X15597667Y21490940D01*
X15641387Y21258588D01*
X15778707Y21045187D01*
X15945322Y20931343D01*
X15284450Y20931343D01*
X15052098Y20887623D01*
X14838697Y20750303D01*
X14782926Y20668680D01*
X7104000Y20668680D01*
X7104000Y26141499D01*
X10216499Y26141499D01*
X10532978Y26204451D01*
X10801276Y26383722D01*
X11076271Y26658717D01*
X11396000Y26658717D01*
X11628352Y26702437D01*
X11841753Y26839757D01*
X11984917Y27049283D01*
X12035283Y27298000D01*
X12035283Y27648000D01*
X12006023Y27803506D01*
X12035283Y27948000D01*
X12035283Y28298000D01*
X12006023Y28453506D01*
X12035283Y28598000D01*
X12035283Y28948000D01*
X12006023Y29103506D01*
X12035283Y29248000D01*
X12035283Y29598000D01*
X11991563Y29830352D01*
X11854243Y30043753D01*
X11798000Y30082182D01*
X11798000Y30158217D01*
X11938000Y30158217D01*
X12170352Y30201937D01*
X12383753Y30339257D01*
X12526917Y30548783D01*
X12577283Y30797500D01*
X12577283Y32194500D01*
X12533563Y32426852D01*
X12396243Y32640253D01*
X12186717Y32783417D01*
X11938000Y32833783D01*
X11049000Y32833783D01*
X10816648Y32790063D01*
X10603247Y32652743D01*
X10460083Y32443217D01*
X10409717Y32194500D01*
X10409717Y31581771D01*
X10386223Y31558277D01*
X10227783Y31321155D01*
X10227783Y32004000D01*
X10184063Y32236352D01*
X10046743Y32449753D01*
X9837217Y32592917D01*
X9588500Y32643283D01*
X8975772Y32643283D01*
X8077777Y33541277D01*
X7895606Y33663000D01*
X10033190Y33663000D01*
X10313968Y33381732D01*
X10707830Y33218186D01*
X11134299Y33217814D01*
X11528446Y33380672D01*
X11830268Y33681968D01*
X11993814Y34075830D01*
X11994186Y34502299D01*
X11831328Y34896446D01*
X11586283Y35141919D01*
X11586283Y38227000D01*
X11542563Y38459352D01*
X11405243Y38672753D01*
X11195717Y38815917D01*
X10947000Y38866283D01*
X9391429Y38866283D01*
X7806633Y40451079D01*
X7633776Y40709778D01*
X7374777Y40968777D01*
X7358000Y40979987D01*
X7358000Y42672000D01*
X7315120Y42899888D01*
X7180438Y43109189D01*
X6974938Y43249601D01*
X6731000Y43299000D01*
X2032000Y43299000D01*
X1804112Y43256120D01*
X1594811Y43121438D01*
X1454399Y42915938D01*
X1405000Y42672000D01*
X931000Y42672000D01*
X931000Y55062690D01*
X952285Y55062690D01*
X1579259Y53545296D01*
X2739190Y52383340D01*
X4255487Y51753718D01*
X5897310Y51752285D01*
X7414704Y52379259D01*
X8576660Y53539190D01*
X9206282Y55055487D01*
X9207715Y56697310D01*
X8580741Y58214704D01*
X7420810Y59376660D01*
X5904513Y60006282D01*
X4262690Y60007715D01*
X2745296Y59380741D01*
X1583340Y58220810D01*
X953718Y56704513D01*
X952285Y55062690D01*
X931000Y55062690D01*
X931000Y60029000D01*
X80349000Y60029000D01*
X80349000Y931000D01*
G36*
X50735000Y23207955D02*
X50797952Y22891476D01*
X50977223Y22623178D01*
X51950010Y21650390D01*
X51950010Y18555144D01*
X50616377Y19888777D01*
X50348079Y20068048D01*
X50031600Y20131000D01*
X49760791Y20131000D01*
X49710099Y20164871D01*
X49353515Y20235800D01*
X48436485Y20235800D01*
X48079901Y20164871D01*
X47777603Y19962882D01*
X47575614Y19660584D01*
X47504685Y19304000D01*
X47575614Y18947416D01*
X47761646Y18669000D01*
X47575614Y18390584D01*
X47504685Y18034000D01*
X47575614Y17677416D01*
X47761646Y17399000D01*
X47575614Y17120584D01*
X47504685Y16764000D01*
X47575614Y16407416D01*
X47633355Y16321000D01*
X46590000Y16321000D01*
X46273521Y16258048D01*
X46005223Y16078777D01*
X42075000Y12148554D01*
X42075000Y15160824D01*
X46975893Y20061717D01*
X47561500Y20061717D01*
X47793852Y20105437D01*
X48007253Y20242757D01*
X48150417Y20452283D01*
X48200783Y20701000D01*
X48200783Y21590000D01*
X48157063Y21822352D01*
X48130347Y21863871D01*
X50404476Y24138000D01*
X50735000Y24138000D01*
X50735000Y23207955D01*
X50735000Y23207955D01*
G37*
X50735000Y23207955D02*
X50797952Y22891476D01*
X50977223Y22623178D01*
X51950010Y21650390D01*
X51950010Y18555144D01*
X50616377Y19888777D01*
X50348079Y20068048D01*
X50031600Y20131000D01*
X49760791Y20131000D01*
X49710099Y20164871D01*
X49353515Y20235800D01*
X48436485Y20235800D01*
X48079901Y20164871D01*
X47777603Y19962882D01*
X47575614Y19660584D01*
X47504685Y19304000D01*
X47575614Y18947416D01*
X47761646Y18669000D01*
X47575614Y18390584D01*
X47504685Y18034000D01*
X47575614Y17677416D01*
X47761646Y17399000D01*
X47575614Y17120584D01*
X47504685Y16764000D01*
X47575614Y16407416D01*
X47633355Y16321000D01*
X46590000Y16321000D01*
X46273521Y16258048D01*
X46005223Y16078777D01*
X42075000Y12148554D01*
X42075000Y15160824D01*
X46975893Y20061717D01*
X47561500Y20061717D01*
X47793852Y20105437D01*
X48007253Y20242757D01*
X48150417Y20452283D01*
X48200783Y20701000D01*
X48200783Y21590000D01*
X48157063Y21822352D01*
X48130347Y21863871D01*
X50404476Y24138000D01*
X50735000Y24138000D01*
X50735000Y23207955D01*
G36*
X50026085Y34483269D02*
X50020583Y34475217D01*
X49970217Y34226500D01*
X49970217Y33337500D01*
X50013937Y33105148D01*
X50151257Y32891747D01*
X50360783Y32748583D01*
X50609500Y32698217D01*
X52006500Y32698217D01*
X52238852Y32741937D01*
X52452253Y32879257D01*
X52595417Y33088783D01*
X52645783Y33337500D01*
X52645783Y34100417D01*
X52935330Y33980186D01*
X53238953Y33979921D01*
X53326257Y33844247D01*
X53535783Y33701083D01*
X53784500Y33650717D01*
X54673500Y33650717D01*
X54905852Y33694437D01*
X55119253Y33831757D01*
X55181074Y33922234D01*
X55231257Y33844247D01*
X55440783Y33701083D01*
X55689500Y33650717D01*
X56048228Y33650717D01*
X56215001Y33483944D01*
X56215001Y32389283D01*
X55245000Y32389283D01*
X55012648Y32345563D01*
X54928365Y32291328D01*
X54858717Y32338917D01*
X54610000Y32389283D01*
X53213000Y32389283D01*
X52980648Y32345563D01*
X52767247Y32208243D01*
X52624083Y31998717D01*
X52573717Y31750000D01*
X52573717Y30861000D01*
X52617437Y30628648D01*
X52732996Y30449064D01*
X52703747Y30430243D01*
X52641926Y30339766D01*
X52591743Y30417753D01*
X52382217Y30560917D01*
X52133500Y30611283D01*
X51673788Y30611283D01*
X49846562Y32438508D01*
X49846561Y32438509D01*
X49498781Y32670889D01*
X49088544Y32752490D01*
X47924307Y32752490D01*
X46798918Y33877878D01*
X46896363Y34023714D01*
X47029084Y34050114D01*
X47307500Y34236146D01*
X47585916Y34050114D01*
X47942500Y33979185D01*
X48299084Y34050114D01*
X48577500Y34236146D01*
X48855916Y34050114D01*
X49212500Y33979185D01*
X49569084Y34050114D01*
X49871382Y34252103D01*
X50025966Y34483454D01*
X50026085Y34483269D01*
X50026085Y34483269D01*
G37*
X50026085Y34483269D02*
X50020583Y34475217D01*
X49970217Y34226500D01*
X49970217Y33337500D01*
X50013937Y33105148D01*
X50151257Y32891747D01*
X50360783Y32748583D01*
X50609500Y32698217D01*
X52006500Y32698217D01*
X52238852Y32741937D01*
X52452253Y32879257D01*
X52595417Y33088783D01*
X52645783Y33337500D01*
X52645783Y34100417D01*
X52935330Y33980186D01*
X53238953Y33979921D01*
X53326257Y33844247D01*
X53535783Y33701083D01*
X53784500Y33650717D01*
X54673500Y33650717D01*
X54905852Y33694437D01*
X55119253Y33831757D01*
X55181074Y33922234D01*
X55231257Y33844247D01*
X55440783Y33701083D01*
X55689500Y33650717D01*
X56048228Y33650717D01*
X56215001Y33483944D01*
X56215001Y32389283D01*
X55245000Y32389283D01*
X55012648Y32345563D01*
X54928365Y32291328D01*
X54858717Y32338917D01*
X54610000Y32389283D01*
X53213000Y32389283D01*
X52980648Y32345563D01*
X52767247Y32208243D01*
X52624083Y31998717D01*
X52573717Y31750000D01*
X52573717Y30861000D01*
X52617437Y30628648D01*
X52732996Y30449064D01*
X52703747Y30430243D01*
X52641926Y30339766D01*
X52591743Y30417753D01*
X52382217Y30560917D01*
X52133500Y30611283D01*
X51673788Y30611283D01*
X49846562Y32438508D01*
X49846561Y32438509D01*
X49498781Y32670889D01*
X49088544Y32752490D01*
X47924307Y32752490D01*
X46798918Y33877878D01*
X46896363Y34023714D01*
X47029084Y34050114D01*
X47307500Y34236146D01*
X47585916Y34050114D01*
X47942500Y33979185D01*
X48299084Y34050114D01*
X48577500Y34236146D01*
X48855916Y34050114D01*
X49212500Y33979185D01*
X49569084Y34050114D01*
X49871382Y34252103D01*
X50025966Y34483454D01*
X50026085Y34483269D01*
G36*
X21322257Y50735247D02*
X21531783Y50592083D01*
X21780500Y50541717D01*
X23177500Y50541717D01*
X23409852Y50585437D01*
X23543597Y50671500D01*
X26234555Y50671500D01*
X26275257Y50608247D01*
X26484783Y50465083D01*
X26733500Y50414717D01*
X26810960Y50414717D01*
X26479743Y50083499D01*
X23030999Y50083499D01*
X22714520Y50020547D01*
X22446222Y49841276D01*
X21885229Y49280283D01*
X21018500Y49280283D01*
X20820000Y49242933D01*
X20820000Y50798500D01*
X21281555Y50798500D01*
X21322257Y50735247D01*
X21322257Y50735247D01*
G37*
X21322257Y50735247D02*
X21531783Y50592083D01*
X21780500Y50541717D01*
X23177500Y50541717D01*
X23409852Y50585437D01*
X23543597Y50671500D01*
X26234555Y50671500D01*
X26275257Y50608247D01*
X26484783Y50465083D01*
X26733500Y50414717D01*
X26810960Y50414717D01*
X26479743Y50083499D01*
X23030999Y50083499D01*
X22714520Y50020547D01*
X22446222Y49841276D01*
X21885229Y49280283D01*
X21018500Y49280283D01*
X20820000Y49242933D01*
X20820000Y50798500D01*
X21281555Y50798500D01*
X21322257Y50735247D01*
G36*
X38481000Y37211000D02*
X35530574Y37211000D01*
X35615869Y37416411D01*
X35616244Y37846062D01*
X35452170Y38243150D01*
X35433000Y38262354D01*
X35433000Y42291000D01*
X38481000Y42291000D01*
X38481000Y37211000D01*
X38481000Y37211000D01*
G37*
X38481000Y37211000D02*
X35530574Y37211000D01*
X35615869Y37416411D01*
X35616244Y37846062D01*
X35452170Y38243150D01*
X35433000Y38262354D01*
X35433000Y42291000D01*
X38481000Y42291000D01*
X38481000Y37211000D01*
G36*
X42037000Y26797000D02*
X31496000Y26797000D01*
X31446590Y26786994D01*
X31404965Y26758553D01*
X31377685Y26716159D01*
X31369000Y26670000D01*
X31369000Y22479000D01*
X25844813Y22479000D01*
X25715390Y22567431D01*
X25463500Y22618440D01*
X24066500Y22618440D01*
X24003000Y22606492D01*
X24003000Y32131000D01*
X42037000Y32131000D01*
X42037000Y26797000D01*
X42037000Y26797000D01*
G37*
X42037000Y26797000D02*
X31496000Y26797000D01*
X31446590Y26786994D01*
X31404965Y26758553D01*
X31377685Y26716159D01*
X31369000Y26670000D01*
X31369000Y22479000D01*
X25844813Y22479000D01*
X25715390Y22567431D01*
X25463500Y22618440D01*
X24066500Y22618440D01*
X24003000Y22606492D01*
X24003000Y32131000D01*
X42037000Y32131000D01*
X42037000Y26797000D01*
G36*
X18161000Y51943000D02*
X18171006Y51893590D01*
X18199447Y51851965D01*
X18241841Y51824685D01*
X18288000Y51816000D01*
X20066000Y51816000D01*
X20066000Y47117000D01*
X20076006Y47067590D01*
X20104447Y47025965D01*
X20146841Y46998685D01*
X20193000Y46990000D01*
X21791394Y46990000D01*
X23343492Y45437902D01*
X23343492Y45157741D01*
X23377174Y44988406D01*
X22790890Y45574690D01*
X22636140Y45678091D01*
X22453600Y45714400D01*
X21798252Y45714400D01*
X21621474Y45891488D01*
X21337834Y46009265D01*
X21030713Y46009533D01*
X20746869Y45892251D01*
X20529512Y45675274D01*
X20411735Y45391634D01*
X20411467Y45084513D01*
X20528749Y44800669D01*
X20745726Y44583312D01*
X21029366Y44465535D01*
X21336487Y44465267D01*
X21620331Y44582549D01*
X21798493Y44760400D01*
X22256020Y44760400D01*
X23915710Y43100710D01*
X24070460Y42997309D01*
X24253000Y42961000D01*
X25326000Y42961000D01*
X25344068Y42964594D01*
X25654000Y42964594D01*
X25654000Y42491000D01*
X24638000Y42491000D01*
X24519149Y42468637D01*
X24409992Y42398396D01*
X24336763Y42291221D01*
X24336718Y42291000D01*
X23293606Y42291000D01*
X22898687Y42685919D01*
X22878505Y42793179D01*
X22806888Y42904474D01*
X22697614Y42979138D01*
X22582069Y43002537D01*
X22441803Y43142803D01*
X22399789Y43170666D01*
X22352000Y43180000D01*
X19050000Y43180000D01*
X19050000Y46736000D01*
X19039994Y46785410D01*
X19011553Y46827035D01*
X18969159Y46854315D01*
X18923000Y46863000D01*
X12065000Y46863000D01*
X12065000Y51689000D01*
X13462000Y51689000D01*
X13511410Y51699006D01*
X13553035Y51727447D01*
X13580315Y51769841D01*
X13589000Y51816000D01*
X13589000Y58293000D01*
X18161000Y58293000D01*
X18161000Y51943000D01*
X18161000Y51943000D01*
G37*
X18161000Y51943000D02*
X18171006Y51893590D01*
X18199447Y51851965D01*
X18241841Y51824685D01*
X18288000Y51816000D01*
X20066000Y51816000D01*
X20066000Y47117000D01*
X20076006Y47067590D01*
X20104447Y47025965D01*
X20146841Y46998685D01*
X20193000Y46990000D01*
X21791394Y46990000D01*
X23343492Y45437902D01*
X23343492Y45157741D01*
X23377174Y44988406D01*
X22790890Y45574690D01*
X22636140Y45678091D01*
X22453600Y45714400D01*
X21798252Y45714400D01*
X21621474Y45891488D01*
X21337834Y46009265D01*
X21030713Y46009533D01*
X20746869Y45892251D01*
X20529512Y45675274D01*
X20411735Y45391634D01*
X20411467Y45084513D01*
X20528749Y44800669D01*
X20745726Y44583312D01*
X21029366Y44465535D01*
X21336487Y44465267D01*
X21620331Y44582549D01*
X21798493Y44760400D01*
X22256020Y44760400D01*
X23915710Y43100710D01*
X24070460Y42997309D01*
X24253000Y42961000D01*
X25326000Y42961000D01*
X25344068Y42964594D01*
X25654000Y42964594D01*
X25654000Y42491000D01*
X24638000Y42491000D01*
X24519149Y42468637D01*
X24409992Y42398396D01*
X24336763Y42291221D01*
X24336718Y42291000D01*
X23293606Y42291000D01*
X22898687Y42685919D01*
X22878505Y42793179D01*
X22806888Y42904474D01*
X22697614Y42979138D01*
X22582069Y43002537D01*
X22441803Y43142803D01*
X22399789Y43170666D01*
X22352000Y43180000D01*
X19050000Y43180000D01*
X19050000Y46736000D01*
X19039994Y46785410D01*
X19011553Y46827035D01*
X18969159Y46854315D01*
X18923000Y46863000D01*
X12065000Y46863000D01*
X12065000Y51689000D01*
X13462000Y51689000D01*
X13511410Y51699006D01*
X13553035Y51727447D01*
X13580315Y51769841D01*
X13589000Y51816000D01*
X13589000Y58293000D01*
X18161000Y58293000D01*
X18161000Y51943000D01*
G36*
X24540233Y43961000D02*
X25326000Y43961000D01*
X25344068Y43964594D01*
X25654000Y43964594D01*
X25654000Y43911406D01*
X25344068Y43911406D01*
X25326000Y43915000D01*
X24450580Y43915000D01*
X24370898Y43994682D01*
X24540233Y43961000D01*
X24540233Y43961000D01*
G37*
X24540233Y43961000D02*
X25326000Y43961000D01*
X25344068Y43964594D01*
X25654000Y43964594D01*
X25654000Y43911406D01*
X25344068Y43911406D01*
X25326000Y43915000D01*
X24450580Y43915000D01*
X24370898Y43994682D01*
X24540233Y43961000D01*
M02*
