solid OpenSCAD_Model
  facet normal 1 -0 0
    outer loop
      vertex 113.36 6.6 1.3
      vertex 113.36 61.8 0
      vertex 113.36 61.8 1.3
    endloop
  endfacet
  facet normal 1 0 0
    outer loop
      vertex 113.36 61.8 0
      vertex 113.36 6.6 1.3
      vertex 113.36 6.6 0
    endloop
  endfacet
  facet normal 0 0 1
    outer loop
      vertex 108.36 66.8 1.3
      vertex 113.36 61.8 1.3
      vertex 113.298 62.5822 1.3
    endloop
  endfacet
  facet normal 0 0 1
    outer loop
      vertex 113.36 61.8 1.3
      vertex 105.16 34.2 1.3
      vertex 113.36 6.6 1.3
    endloop
  endfacet
  facet normal 0 0 1
    outer loop
      vertex 108.36 66.8 1.3
      vertex 113.298 62.5822 1.3
      vertex 113.115 63.3451 1.3
    endloop
  endfacet
  facet normal -0 0 1
    outer loop
      vertex 105.139 33.9341 1.3
      vertex 113.36 6.6 1.3
      vertex 105.16 34.2 1.3
    endloop
  endfacet
  facet normal 0 0 1
    outer loop
      vertex 108.36 66.8 1.3
      vertex 113.115 63.3451 1.3
      vertex 112.815 64.07 1.3
    endloop
  endfacet
  facet normal -0 0 1
    outer loop
      vertex 105.077 33.6747 1.3
      vertex 113.36 6.6 1.3
      vertex 105.139 33.9341 1.3
    endloop
  endfacet
  facet normal 0 0 1
    outer loop
      vertex 108.36 66.8 1.3
      vertex 112.815 64.07 1.3
      vertex 112.405 64.7389 1.3
    endloop
  endfacet
  facet normal -0 0 1
    outer loop
      vertex 104.975 33.4282 1.3
      vertex 113.36 6.6 1.3
      vertex 105.077 33.6747 1.3
    endloop
  endfacet
  facet normal 0 0 1
    outer loop
      vertex 108.36 66.8 1.3
      vertex 112.405 64.7389 1.3
      vertex 111.896 65.3355 1.3
    endloop
  endfacet
  facet normal -0 0 1
    outer loop
      vertex 104.835 33.2008 1.3
      vertex 113.36 6.6 1.3
      vertex 104.975 33.4282 1.3
    endloop
  endfacet
  facet normal 0 0 1
    outer loop
      vertex 108.36 66.8 1.3
      vertex 111.896 65.3355 1.3
      vertex 111.299 65.8451 1.3
    endloop
  endfacet
  facet normal -0 0 1
    outer loop
      vertex 104.662 32.9979 1.3
      vertex 113.36 6.6 1.3
      vertex 104.835 33.2008 1.3
    endloop
  endfacet
  facet normal 0 0 1
    outer loop
      vertex 108.36 66.8 1.3
      vertex 111.299 65.8451 1.3
      vertex 110.63 66.255 1.3
    endloop
  endfacet
  facet normal -0 0 1
    outer loop
      vertex 104.459 32.8247 1.3
      vertex 113.36 6.6 1.3
      vertex 104.662 32.9979 1.3
    endloop
  endfacet
  facet normal 0 0 1
    outer loop
      vertex 108.36 66.8 1.3
      vertex 110.63 66.255 1.3
      vertex 109.905 66.5553 1.3
    endloop
  endfacet
  facet normal -0 0 1
    outer loop
      vertex 104.232 32.6853 1.3
      vertex 113.36 6.6 1.3
      vertex 104.459 32.8247 1.3
    endloop
  endfacet
  facet normal 0 0 1
    outer loop
      vertex 108.36 66.8 1.3
      vertex 109.905 66.5553 1.3
      vertex 109.142 66.7384 1.3
    endloop
  endfacet
  facet normal -0 0 1
    outer loop
      vertex 103.985 32.5832 1.3
      vertex 113.36 6.6 1.3
      vertex 104.232 32.6853 1.3
    endloop
  endfacet
  facet normal 0 0 1
    outer loop
      vertex 113.36 61.8 1.3
      vertex 108.36 66.8 1.3
      vertex 92.8 57.6 1.3
    endloop
  endfacet
  facet normal -0 0 1
    outer loop
      vertex 103.726 32.5209 1.3
      vertex 113.36 6.6 1.3
      vertex 103.985 32.5832 1.3
    endloop
  endfacet
  facet normal -0 0 1
    outer loop
      vertex 92.8 15.6 1.3
      vertex 113.36 6.6 1.3
      vertex 103.726 32.5209 1.3
    endloop
  endfacet
  facet normal 0 0 1
    outer loop
      vertex 113.36 61.8 1.3
      vertex 105.139 34.4659 1.3
      vertex 105.16 34.2 1.3
    endloop
  endfacet
  facet normal 0 0 1
    outer loop
      vertex 113.36 61.8 1.3
      vertex 105.077 34.7253 1.3
      vertex 105.139 34.4659 1.3
    endloop
  endfacet
  facet normal 0 0 1
    outer loop
      vertex 113.36 61.8 1.3
      vertex 104.975 34.9718 1.3
      vertex 105.077 34.7253 1.3
    endloop
  endfacet
  facet normal 0 0 1
    outer loop
      vertex 113.36 61.8 1.3
      vertex 104.835 35.1992 1.3
      vertex 104.975 34.9718 1.3
    endloop
  endfacet
  facet normal 0 0 1
    outer loop
      vertex 113.36 61.8 1.3
      vertex 104.662 35.4021 1.3
      vertex 104.835 35.1992 1.3
    endloop
  endfacet
  facet normal 0 0 1
    outer loop
      vertex 113.36 61.8 1.3
      vertex 104.459 35.5753 1.3
      vertex 104.662 35.4021 1.3
    endloop
  endfacet
  facet normal 0 0 1
    outer loop
      vertex 113.36 61.8 1.3
      vertex 104.232 35.7147 1.3
      vertex 104.459 35.5753 1.3
    endloop
  endfacet
  facet normal 0 0 1
    outer loop
      vertex 113.36 61.8 1.3
      vertex 103.985 35.8168 1.3
      vertex 104.232 35.7147 1.3
    endloop
  endfacet
  facet normal 0 0 1
    outer loop
      vertex 113.36 61.8 1.3
      vertex 103.726 35.8791 1.3
      vertex 103.985 35.8168 1.3
    endloop
  endfacet
  facet normal 0 0 1
    outer loop
      vertex 113.36 61.8 1.3
      vertex 92.8 57.6 1.3
      vertex 103.726 35.8791 1.3
    endloop
  endfacet
  facet normal 0 0 1
    outer loop
      vertex 103.726 35.8791 1.3
      vertex 92.8 57.6 1.3
      vertex 103.46 35.9 1.3
    endloop
  endfacet
  facet normal 0 0 1
    outer loop
      vertex 103.46 35.9 1.3
      vertex 92.8 57.6 1.3
      vertex 103.194 35.8791 1.3
    endloop
  endfacet
  facet normal 0 0 1
    outer loop
      vertex 103.194 35.8791 1.3
      vertex 92.8 57.6 1.3
      vertex 102.935 35.8168 1.3
    endloop
  endfacet
  facet normal 0 0 1
    outer loop
      vertex 102.935 35.8168 1.3
      vertex 92.8 57.6 1.3
      vertex 102.688 35.7147 1.3
    endloop
  endfacet
  facet normal 0 0 1
    outer loop
      vertex 102.688 35.7147 1.3
      vertex 92.8 57.6 1.3
      vertex 102.461 35.5753 1.3
    endloop
  endfacet
  facet normal 0 0 1
    outer loop
      vertex 102.461 35.5753 1.3
      vertex 92.8 57.6 1.3
      vertex 102.258 35.4021 1.3
    endloop
  endfacet
  facet normal 0 0 1
    outer loop
      vertex 102.258 35.4021 1.3
      vertex 92.8 57.6 1.3
      vertex 102.085 35.1992 1.3
    endloop
  endfacet
  facet normal 0 0 1
    outer loop
      vertex 102.085 35.1992 1.3
      vertex 92.8 57.6 1.3
      vertex 101.945 34.9718 1.3
    endloop
  endfacet
  facet normal 0 0 1
    outer loop
      vertex 101.945 34.9718 1.3
      vertex 92.8 57.6 1.3
      vertex 101.843 34.7253 1.3
    endloop
  endfacet
  facet normal 0 0 1
    outer loop
      vertex 101.781 34.4659 1.3
      vertex 92.8 57.6 1.3
      vertex 101.76 34.2 1.3
    endloop
  endfacet
  facet normal 0 0 1
    outer loop
      vertex 101.843 34.7253 1.3
      vertex 92.8 57.6 1.3
      vertex 101.781 34.4659 1.3
    endloop
  endfacet
  facet normal 0 0 1
    outer loop
      vertex 108.36 66.8 1.3
      vertex 62.8 57.6 1.3
      vertex 92.8 57.6 1.3
    endloop
  endfacet
  facet normal 0 0 1
    outer loop
      vertex 62.8 57.6 1.3
      vertex 39.58 29.6 1.3
      vertex 62.8 15.6 1.3
    endloop
  endfacet
  facet normal 0 0 1
    outer loop
      vertex 7.4 66.8 1.3
      vertex 39.58 29.6 1.3
      vertex 62.8 57.6 1.3
    endloop
  endfacet
  facet normal -0 0 1
    outer loop
      vertex 13.1791 33.9341 1.3
      vertex 24.58 29.6 1.3
      vertex 13.2 34.2 1.3
    endloop
  endfacet
  facet normal 0 0 1
    outer loop
      vertex 39.58 29.6 1.3
      vertex 7.4 66.8 1.3
      vertex 24.58 29.6 1.3
    endloop
  endfacet
  facet normal 0 0 1
    outer loop
      vertex 24.58 29.6 1.3
      vertex 13.1791 34.4659 1.3
      vertex 13.2 34.2 1.3
    endloop
  endfacet
  facet normal 0 0 1
    outer loop
      vertex 24.58 29.6 1.3
      vertex 13.1168 34.7253 1.3
      vertex 13.1791 34.4659 1.3
    endloop
  endfacet
  facet normal 0 0 1
    outer loop
      vertex 24.58 29.6 1.3
      vertex 13.0147 34.9718 1.3
      vertex 13.1168 34.7253 1.3
    endloop
  endfacet
  facet normal 0 0 1
    outer loop
      vertex 24.58 29.6 1.3
      vertex 12.8753 35.1992 1.3
      vertex 13.0147 34.9718 1.3
    endloop
  endfacet
  facet normal 0 0 1
    outer loop
      vertex 24.58 29.6 1.3
      vertex 12.7021 35.4021 1.3
      vertex 12.8753 35.1992 1.3
    endloop
  endfacet
  facet normal 0 0 1
    outer loop
      vertex 24.58 29.6 1.3
      vertex 7.4 66.8 1.3
      vertex 12.7021 35.4021 1.3
    endloop
  endfacet
  facet normal 0 0 1
    outer loop
      vertex 12.7021 35.4021 1.3
      vertex 7.4 66.8 1.3
      vertex 12.4992 35.5753 1.3
    endloop
  endfacet
  facet normal 0 0 1
    outer loop
      vertex 12.4992 35.5753 1.3
      vertex 7.4 66.8 1.3
      vertex 12.2718 35.7147 1.3
    endloop
  endfacet
  facet normal 0 0 1
    outer loop
      vertex 12.2718 35.7147 1.3
      vertex 7.4 66.8 1.3
      vertex 12.0253 35.8168 1.3
    endloop
  endfacet
  facet normal -0 0 1
    outer loop
      vertex 2.4 61.8 1.3
      vertex 12.0253 35.8168 1.3
      vertex 7.4 66.8 1.3
    endloop
  endfacet
  facet normal 0 0 1
    outer loop
      vertex 12.0253 35.8168 1.3
      vertex 2.4 61.8 1.3
      vertex 11.7659 35.8791 1.3
    endloop
  endfacet
  facet normal 0 0 1
    outer loop
      vertex 11.7659 35.8791 1.3
      vertex 2.4 61.8 1.3
      vertex 11.5 35.9 1.3
    endloop
  endfacet
  facet normal 0 0 1
    outer loop
      vertex 11.5 35.9 1.3
      vertex 2.4 61.8 1.3
      vertex 11.2341 35.8791 1.3
    endloop
  endfacet
  facet normal 0 0 1
    outer loop
      vertex 9.8832 34.7253 1.3
      vertex 2.4 61.8 1.3
      vertex 9.82093 34.4659 1.3
    endloop
  endfacet
  facet normal 0 0 1
    outer loop
      vertex 9.98529 34.9718 1.3
      vertex 2.4 61.8 1.3
      vertex 9.8832 34.7253 1.3
    endloop
  endfacet
  facet normal 0 0 1
    outer loop
      vertex 10.1247 35.1992 1.3
      vertex 2.4 61.8 1.3
      vertex 9.98529 34.9718 1.3
    endloop
  endfacet
  facet normal 0 0 1
    outer loop
      vertex 10.2979 35.4021 1.3
      vertex 2.4 61.8 1.3
      vertex 10.1247 35.1992 1.3
    endloop
  endfacet
  facet normal 0 0 1
    outer loop
      vertex 10.5008 35.5753 1.3
      vertex 2.4 61.8 1.3
      vertex 10.2979 35.4021 1.3
    endloop
  endfacet
  facet normal 0 0 1
    outer loop
      vertex 10.7282 35.7147 1.3
      vertex 2.4 61.8 1.3
      vertex 10.5008 35.5753 1.3
    endloop
  endfacet
  facet normal 0 0 1
    outer loop
      vertex 10.9747 35.8168 1.3
      vertex 2.4 61.8 1.3
      vertex 10.7282 35.7147 1.3
    endloop
  endfacet
  facet normal 0 0 1
    outer loop
      vertex 11.2341 35.8791 1.3
      vertex 2.4 61.8 1.3
      vertex 10.9747 35.8168 1.3
    endloop
  endfacet
  facet normal -0 0 1
    outer loop
      vertex 7.4 66.8 1.3
      vertex 62.8 57.6 1.3
      vertex 108.36 66.8 1.3
    endloop
  endfacet
  facet normal 0 0 1
    outer loop
      vertex 113.36 6.6 1.3
      vertex 108.36 1.6 1.3
      vertex 113.298 5.81783 1.3
    endloop
  endfacet
  facet normal 0 0 1
    outer loop
      vertex 113.298 5.81783 1.3
      vertex 108.36 1.6 1.3
      vertex 113.115 5.05491 1.3
    endloop
  endfacet
  facet normal 0 0 1
    outer loop
      vertex 113.115 5.05491 1.3
      vertex 108.36 1.6 1.3
      vertex 112.815 4.33005 1.3
    endloop
  endfacet
  facet normal 0 0 1
    outer loop
      vertex 112.815 4.33005 1.3
      vertex 108.36 1.6 1.3
      vertex 112.405 3.66107 1.3
    endloop
  endfacet
  facet normal 0 0 1
    outer loop
      vertex 112.405 3.66107 1.3
      vertex 108.36 1.6 1.3
      vertex 111.896 3.06447 1.3
    endloop
  endfacet
  facet normal 0 0 1
    outer loop
      vertex 111.896 3.06447 1.3
      vertex 108.36 1.6 1.3
      vertex 111.299 2.55491 1.3
    endloop
  endfacet
  facet normal 0 0 1
    outer loop
      vertex 111.299 2.55491 1.3
      vertex 108.36 1.6 1.3
      vertex 110.63 2.14497 1.3
    endloop
  endfacet
  facet normal 0 0 1
    outer loop
      vertex 110.63 2.14497 1.3
      vertex 108.36 1.6 1.3
      vertex 109.905 1.84472 1.3
    endloop
  endfacet
  facet normal 0 -0 1
    outer loop
      vertex 108.36 1.6 1.3
      vertex 113.36 6.6 1.3
      vertex 92.8 15.6 1.3
    endloop
  endfacet
  facet normal 0 0 1
    outer loop
      vertex 92.8 15.6 1.3
      vertex 103.726 32.5209 1.3
      vertex 103.46 32.5 1.3
    endloop
  endfacet
  facet normal 0 0 1
    outer loop
      vertex 92.8 15.6 1.3
      vertex 103.46 32.5 1.3
      vertex 103.194 32.5209 1.3
    endloop
  endfacet
  facet normal 0 0 1
    outer loop
      vertex 92.8 15.6 1.3
      vertex 103.194 32.5209 1.3
      vertex 102.935 32.5832 1.3
    endloop
  endfacet
  facet normal 0 0 1
    outer loop
      vertex 92.8 15.6 1.3
      vertex 102.935 32.5832 1.3
      vertex 102.688 32.6853 1.3
    endloop
  endfacet
  facet normal 0 0 1
    outer loop
      vertex 92.8 15.6 1.3
      vertex 102.688 32.6853 1.3
      vertex 102.461 32.8247 1.3
    endloop
  endfacet
  facet normal 0 0 1
    outer loop
      vertex 92.8 15.6 1.3
      vertex 102.461 32.8247 1.3
      vertex 102.258 32.9979 1.3
    endloop
  endfacet
  facet normal 0 0 1
    outer loop
      vertex 92.8 15.6 1.3
      vertex 102.258 32.9979 1.3
      vertex 102.085 33.2008 1.3
    endloop
  endfacet
  facet normal 0 0 1
    outer loop
      vertex 92.8 15.6 1.3
      vertex 102.085 33.2008 1.3
      vertex 101.945 33.4282 1.3
    endloop
  endfacet
  facet normal 0 0 1
    outer loop
      vertex 92.8 15.6 1.3
      vertex 101.945 33.4282 1.3
      vertex 101.843 33.6747 1.3
    endloop
  endfacet
  facet normal 0 0 1
    outer loop
      vertex 92.8 15.6 1.3
      vertex 101.843 33.6747 1.3
      vertex 101.781 33.9341 1.3
    endloop
  endfacet
  facet normal 0 0 1
    outer loop
      vertex 92.8 15.6 1.3
      vertex 101.76 34.2 1.3
      vertex 92.8 57.6 1.3
    endloop
  endfacet
  facet normal 0 0 1
    outer loop
      vertex 101.76 34.2 1.3
      vertex 92.8 15.6 1.3
      vertex 101.781 33.9341 1.3
    endloop
  endfacet
  facet normal 0 0 1
    outer loop
      vertex 109.905 1.84472 1.3
      vertex 108.36 1.6 1.3
      vertex 109.142 1.66156 1.3
    endloop
  endfacet
  facet normal -0 0 1
    outer loop
      vertex 62.8 15.6 1.3
      vertex 108.36 1.6 1.3
      vertex 92.8 15.6 1.3
    endloop
  endfacet
  facet normal 0 0 1
    outer loop
      vertex 39.58 15.6 1.3
      vertex 62.8 15.6 1.3
      vertex 39.58 29.6 1.3
    endloop
  endfacet
  facet normal 0 0 1
    outer loop
      vertex 7.4 1.6 1.3
      vertex 62.8 15.6 1.3
      vertex 39.58 15.6 1.3
    endloop
  endfacet
  facet normal 0 0 1
    outer loop
      vertex 7.4 1.6 1.3
      vertex 39.58 15.6 1.3
      vertex 24.58 15.6 1.3
    endloop
  endfacet
  facet normal -0 0 1
    outer loop
      vertex 13.1168 33.6747 1.3
      vertex 24.58 29.6 1.3
      vertex 13.1791 33.9341 1.3
    endloop
  endfacet
  facet normal -0 0 1
    outer loop
      vertex 13.0147 33.4282 1.3
      vertex 24.58 29.6 1.3
      vertex 13.1168 33.6747 1.3
    endloop
  endfacet
  facet normal -0 0 1
    outer loop
      vertex 12.8753 33.2008 1.3
      vertex 24.58 29.6 1.3
      vertex 13.0147 33.4282 1.3
    endloop
  endfacet
  facet normal -0 0 1
    outer loop
      vertex 12.7021 32.9979 1.3
      vertex 24.58 29.6 1.3
      vertex 12.8753 33.2008 1.3
    endloop
  endfacet
  facet normal -0 0 1
    outer loop
      vertex 12.4992 32.8247 1.3
      vertex 24.58 29.6 1.3
      vertex 12.7021 32.9979 1.3
    endloop
  endfacet
  facet normal -0 0 1
    outer loop
      vertex 12.2718 32.6853 1.3
      vertex 24.58 29.6 1.3
      vertex 12.4992 32.8247 1.3
    endloop
  endfacet
  facet normal 0 0 1
    outer loop
      vertex 24.58 29.6 1.3
      vertex 12.2718 32.6853 1.3
      vertex 24.58 15.6 1.3
    endloop
  endfacet
  facet normal -0 0 1
    outer loop
      vertex 12.0253 32.5832 1.3
      vertex 24.58 15.6 1.3
      vertex 12.2718 32.6853 1.3
    endloop
  endfacet
  facet normal -0 0 1
    outer loop
      vertex 11.7659 32.5209 1.3
      vertex 24.58 15.6 1.3
      vertex 12.0253 32.5832 1.3
    endloop
  endfacet
  facet normal -0 0 1
    outer loop
      vertex 11.5 32.5 1.3
      vertex 24.58 15.6 1.3
      vertex 11.7659 32.5209 1.3
    endloop
  endfacet
  facet normal 0 0 1
    outer loop
      vertex 2.4 6.6 1.3
      vertex 11.5 32.5 1.3
      vertex 11.2341 32.5209 1.3
    endloop
  endfacet
  facet normal 0 0 1
    outer loop
      vertex 2.4 6.6 1.3
      vertex 11.2341 32.5209 1.3
      vertex 10.9747 32.5832 1.3
    endloop
  endfacet
  facet normal 0 0 1
    outer loop
      vertex 2.4 6.6 1.3
      vertex 10.9747 32.5832 1.3
      vertex 10.7282 32.6853 1.3
    endloop
  endfacet
  facet normal 0 0 1
    outer loop
      vertex 2.4 6.6 1.3
      vertex 10.7282 32.6853 1.3
      vertex 10.5008 32.8247 1.3
    endloop
  endfacet
  facet normal 0 0 1
    outer loop
      vertex 2.4 6.6 1.3
      vertex 10.5008 32.8247 1.3
      vertex 10.2979 32.9979 1.3
    endloop
  endfacet
  facet normal 0 0 1
    outer loop
      vertex 2.4 6.6 1.3
      vertex 10.2979 32.9979 1.3
      vertex 10.1247 33.2008 1.3
    endloop
  endfacet
  facet normal 0 0 1
    outer loop
      vertex 62.8 15.6 1.3
      vertex 7.4 1.6 1.3
      vertex 108.36 1.6 1.3
    endloop
  endfacet
  facet normal 0 0 1
    outer loop
      vertex 11.5 32.5 1.3
      vertex 2.4 6.6 1.3
      vertex 24.58 15.6 1.3
    endloop
  endfacet
  facet normal 0 0 1
    outer loop
      vertex 2.4 6.6 1.3
      vertex 10.1247 33.2008 1.3
      vertex 9.98529 33.4282 1.3
    endloop
  endfacet
  facet normal 0 0 1
    outer loop
      vertex 2.4 6.6 1.3
      vertex 9.98529 33.4282 1.3
      vertex 9.8832 33.6747 1.3
    endloop
  endfacet
  facet normal 0 0 1
    outer loop
      vertex 2.4 6.6 1.3
      vertex 9.8832 33.6747 1.3
      vertex 9.82093 33.9341 1.3
    endloop
  endfacet
  facet normal 0 0 1
    outer loop
      vertex 2.4 6.6 1.3
      vertex 9.82093 33.9341 1.3
      vertex 9.8 34.2 1.3
    endloop
  endfacet
  facet normal 0 0 1
    outer loop
      vertex 9.82093 34.4659 1.3
      vertex 2.4 61.8 1.3
      vertex 9.8 34.2 1.3
    endloop
  endfacet
  facet normal 0 0 1
    outer loop
      vertex 2.4 61.8 1.3
      vertex 7.4 66.8 1.3
      vertex 6.61783 66.7384 1.3
    endloop
  endfacet
  facet normal 0 0 1
    outer loop
      vertex 2.4 6.6 1.3
      vertex 9.8 34.2 1.3
      vertex 2.4 61.8 1.3
    endloop
  endfacet
  facet normal 0 0 1
    outer loop
      vertex 2.4 61.8 1.3
      vertex 6.61783 66.7384 1.3
      vertex 5.85491 66.5553 1.3
    endloop
  endfacet
  facet normal 0 0 1
    outer loop
      vertex 24.58 15.6 1.3
      vertex 2.4 6.6 1.3
      vertex 7.4 1.6 1.3
    endloop
  endfacet
  facet normal 0 0 1
    outer loop
      vertex 2.4 61.8 1.3
      vertex 5.85491 66.5553 1.3
      vertex 5.13005 66.255 1.3
    endloop
  endfacet
  facet normal 0 0 1
    outer loop
      vertex 7.4 1.6 1.3
      vertex 2.4 6.6 1.3
      vertex 6.61783 1.66156 1.3
    endloop
  endfacet
  facet normal 0 0 1
    outer loop
      vertex 2.4 61.8 1.3
      vertex 5.13005 66.255 1.3
      vertex 4.46107 65.8451 1.3
    endloop
  endfacet
  facet normal 0 0 1
    outer loop
      vertex 6.61783 1.66156 1.3
      vertex 2.4 6.6 1.3
      vertex 5.85491 1.84472 1.3
    endloop
  endfacet
  facet normal 0 0 1
    outer loop
      vertex 2.4 61.8 1.3
      vertex 4.46107 65.8451 1.3
      vertex 3.86447 65.3355 1.3
    endloop
  endfacet
  facet normal 0 0 1
    outer loop
      vertex 5.85491 1.84472 1.3
      vertex 2.4 6.6 1.3
      vertex 5.13005 2.14497 1.3
    endloop
  endfacet
  facet normal 0 0 1
    outer loop
      vertex 2.4 61.8 1.3
      vertex 3.86447 65.3355 1.3
      vertex 3.35491 64.7389 1.3
    endloop
  endfacet
  facet normal 0 0 1
    outer loop
      vertex 5.13005 2.14497 1.3
      vertex 2.4 6.6 1.3
      vertex 4.46107 2.55491 1.3
    endloop
  endfacet
  facet normal 0 0 1
    outer loop
      vertex 2.4 61.8 1.3
      vertex 3.35491 64.7389 1.3
      vertex 2.94497 64.07 1.3
    endloop
  endfacet
  facet normal 0 0 1
    outer loop
      vertex 4.46107 2.55491 1.3
      vertex 2.4 6.6 1.3
      vertex 3.86447 3.06447 1.3
    endloop
  endfacet
  facet normal 0 0 1
    outer loop
      vertex 2.4 61.8 1.3
      vertex 2.94497 64.07 1.3
      vertex 2.64472 63.3451 1.3
    endloop
  endfacet
  facet normal 0 0 1
    outer loop
      vertex 3.86447 3.06447 1.3
      vertex 2.4 6.6 1.3
      vertex 3.35491 3.66107 1.3
    endloop
  endfacet
  facet normal 0 0 1
    outer loop
      vertex 2.4 61.8 1.3
      vertex 2.64472 63.3451 1.3
      vertex 2.46156 62.5822 1.3
    endloop
  endfacet
  facet normal 0 0 1
    outer loop
      vertex 3.35491 3.66107 1.3
      vertex 2.4 6.6 1.3
      vertex 2.94497 4.33005 1.3
    endloop
  endfacet
  facet normal 0 0 1
    outer loop
      vertex 2.94497 4.33005 1.3
      vertex 2.4 6.6 1.3
      vertex 2.64472 5.05491 1.3
    endloop
  endfacet
  facet normal 0 0 1
    outer loop
      vertex 2.64472 5.05491 1.3
      vertex 2.4 6.6 1.3
      vertex 2.46156 5.81783 1.3
    endloop
  endfacet
  facet normal -0.760406 -0.649448 0
    outer loop
      vertex 3.86447 3.06447 0
      vertex 3.35491 3.66107 1.3
      vertex 3.35491 3.66107 0
    endloop
  endfacet
  facet normal -0.760406 -0.649448 0
    outer loop
      vertex 3.35491 3.66107 1.3
      vertex 3.86447 3.06447 0
      vertex 3.86447 3.06447 1.3
    endloop
  endfacet
  facet normal 0.760406 -0.649448 0
    outer loop
      vertex 111.896 3.06447 1.3
      vertex 112.405 3.66107 0
      vertex 112.405 3.66107 1.3
    endloop
  endfacet
  facet normal 0.760406 -0.649448 0
    outer loop
      vertex 112.405 3.66107 0
      vertex 111.896 3.06447 1.3
      vertex 111.896 3.06447 0
    endloop
  endfacet
  facet normal 0.649451 -0.760404 0
    outer loop
      vertex 111.299 2.55491 0
      vertex 111.896 3.06447 1.3
      vertex 111.299 2.55491 1.3
    endloop
  endfacet
  facet normal 0.649451 -0.760404 0
    outer loop
      vertex 111.896 3.06447 1.3
      vertex 111.299 2.55491 0
      vertex 111.896 3.06447 0
    endloop
  endfacet
  facet normal 0 -1 0
    outer loop
      vertex 7.4 1.6 0
      vertex 108.36 1.6 1.3
      vertex 7.4 1.6 1.3
    endloop
  endfacet
  facet normal 0 -1 -0
    outer loop
      vertex 108.36 1.6 1.3
      vertex 7.4 1.6 0
      vertex 108.36 1.6 0
    endloop
  endfacet
  facet normal -0.0784596 -0.996917 0
    outer loop
      vertex 6.61783 1.66156 0
      vertex 7.4 1.6 1.3
      vertex 6.61783 1.66156 1.3
    endloop
  endfacet
  facet normal -0.0784596 -0.996917 -0
    outer loop
      vertex 7.4 1.6 1.3
      vertex 6.61783 1.66156 0
      vertex 7.4 1.6 0
    endloop
  endfacet
  facet normal -1 0 0
    outer loop
      vertex 2.4 6.6 0
      vertex 2.4 61.8 1.3
      vertex 2.4 61.8 0
    endloop
  endfacet
  facet normal -1 -0 0
    outer loop
      vertex 2.4 61.8 1.3
      vertex 2.4 6.6 0
      vertex 2.4 6.6 1.3
    endloop
  endfacet
  facet normal 0 1 -0
    outer loop
      vertex 108.36 66.8 0
      vertex 7.4 66.8 1.3
      vertex 108.36 66.8 1.3
    endloop
  endfacet
  facet normal 0 1 0
    outer loop
      vertex 7.4 66.8 1.3
      vertex 108.36 66.8 0
      vertex 7.4 66.8 0
    endloop
  endfacet
  facet normal 0.382683 -0.92388 0
    outer loop
      vertex 109.905 1.84472 0
      vertex 110.63 2.14497 1.3
      vertex 109.905 1.84472 1.3
    endloop
  endfacet
  facet normal 0.382683 -0.92388 0
    outer loop
      vertex 110.63 2.14497 1.3
      vertex 109.905 1.84472 0
      vertex 110.63 2.14497 0
    endloop
  endfacet
  facet normal 0.0784596 -0.996917 0
    outer loop
      vertex 108.36 1.6 0
      vertex 109.142 1.66156 1.3
      vertex 108.36 1.6 1.3
    endloop
  endfacet
  facet normal 0.0784596 -0.996917 0
    outer loop
      vertex 109.142 1.66156 1.3
      vertex 108.36 1.6 0
      vertex 109.142 1.66156 0
    endloop
  endfacet
  facet normal -0.233445 -0.97237 0
    outer loop
      vertex 5.85491 1.84472 0
      vertex 6.61783 1.66156 1.3
      vertex 5.85491 1.84472 1.3
    endloop
  endfacet
  facet normal -0.233445 -0.97237 -0
    outer loop
      vertex 6.61783 1.66156 1.3
      vertex 5.85491 1.84472 0
      vertex 6.61783 1.66156 0
    endloop
  endfacet
  facet normal -0.382684 -0.923879 0
    outer loop
      vertex 5.13005 2.14497 0
      vertex 5.85491 1.84472 1.3
      vertex 5.13005 2.14497 1.3
    endloop
  endfacet
  facet normal -0.382684 -0.923879 -0
    outer loop
      vertex 5.85491 1.84472 1.3
      vertex 5.13005 2.14497 0
      vertex 5.85491 1.84472 0
    endloop
  endfacet
  facet normal -0.649448 -0.760406 0
    outer loop
      vertex 3.86447 3.06447 0
      vertex 4.46107 2.55491 1.3
      vertex 3.86447 3.06447 1.3
    endloop
  endfacet
  facet normal -0.649448 -0.760406 -0
    outer loop
      vertex 4.46107 2.55491 1.3
      vertex 3.86447 3.06447 0
      vertex 4.46107 2.55491 0
    endloop
  endfacet
  facet normal -0.996917 0.0784596 0
    outer loop
      vertex 2.4 61.8 0
      vertex 2.46156 62.5822 1.3
      vertex 2.46156 62.5822 0
    endloop
  endfacet
  facet normal -0.996917 0.0784596 0
    outer loop
      vertex 2.46156 62.5822 1.3
      vertex 2.4 61.8 0
      vertex 2.4 61.8 1.3
    endloop
  endfacet
  facet normal 0.38268 0.923881 -0
    outer loop
      vertex 110.63 66.255 0
      vertex 109.905 66.5553 1.3
      vertex 110.63 66.255 1.3
    endloop
  endfacet
  facet normal 0.38268 0.923881 0
    outer loop
      vertex 109.905 66.5553 1.3
      vertex 110.63 66.255 0
      vertex 109.905 66.5553 0
    endloop
  endfacet
  facet normal -0.382681 0.923881 0
    outer loop
      vertex 5.85491 66.5553 0
      vertex 5.13005 66.255 1.3
      vertex 5.85491 66.5553 1.3
    endloop
  endfacet
  facet normal -0.382681 0.923881 0
    outer loop
      vertex 5.13005 66.255 1.3
      vertex 5.85491 66.5553 0
      vertex 5.13005 66.255 0
    endloop
  endfacet
  facet normal 0.97237 -0.233445 0
    outer loop
      vertex 113.115 5.05491 1.3
      vertex 113.298 5.81783 0
      vertex 113.298 5.81783 1.3
    endloop
  endfacet
  facet normal 0.97237 -0.233445 0
    outer loop
      vertex 113.298 5.81783 0
      vertex 113.115 5.05491 1.3
      vertex 113.115 5.05491 0
    endloop
  endfacet
  facet normal 0.233446 -0.97237 0
    outer loop
      vertex 109.142 1.66156 0
      vertex 109.905 1.84472 1.3
      vertex 109.142 1.66156 1.3
    endloop
  endfacet
  facet normal 0.233446 -0.97237 0
    outer loop
      vertex 109.905 1.84472 1.3
      vertex 109.142 1.66156 0
      vertex 109.905 1.84472 0
    endloop
  endfacet
  facet normal -0.923879 -0.382684 0
    outer loop
      vertex 2.94497 4.33005 0
      vertex 2.64472 5.05491 1.3
      vertex 2.64472 5.05491 0
    endloop
  endfacet
  facet normal -0.923879 -0.382684 0
    outer loop
      vertex 2.64472 5.05491 1.3
      vertex 2.94497 4.33005 0
      vertex 2.94497 4.33005 1.3
    endloop
  endfacet
  facet normal -0.85264 -0.522498 0
    outer loop
      vertex 3.35491 3.66107 0
      vertex 2.94497 4.33005 1.3
      vertex 2.94497 4.33005 0
    endloop
  endfacet
  facet normal -0.85264 -0.522498 0
    outer loop
      vertex 2.94497 4.33005 1.3
      vertex 3.35491 3.66107 0
      vertex 3.35491 3.66107 1.3
    endloop
  endfacet
  facet normal -0.996917 -0.0784596 0
    outer loop
      vertex 2.46156 5.81783 0
      vertex 2.4 6.6 1.3
      vertex 2.4 6.6 0
    endloop
  endfacet
  facet normal -0.996917 -0.0784596 0
    outer loop
      vertex 2.4 6.6 1.3
      vertex 2.46156 5.81783 0
      vertex 2.46156 5.81783 1.3
    endloop
  endfacet
  facet normal 0 0 -1
    outer loop
      vertex 108.36 1.6 0
      vertex 113.36 6.6 0
      vertex 113.298 5.81783 0
    endloop
  endfacet
  facet normal 0 0 -1
    outer loop
      vertex 113.36 6.6 0
      vertex 105.16 34.2 0
      vertex 113.36 61.8 0
    endloop
  endfacet
  facet normal 0 0 -1
    outer loop
      vertex 108.36 1.6 0
      vertex 113.298 5.81783 0
      vertex 113.115 5.05491 0
    endloop
  endfacet
  facet normal 0 0 -1
    outer loop
      vertex 105.139 34.4659 0
      vertex 113.36 61.8 0
      vertex 105.16 34.2 0
    endloop
  endfacet
  facet normal 0 0 -1
    outer loop
      vertex 108.36 1.6 0
      vertex 113.115 5.05491 0
      vertex 112.815 4.33005 0
    endloop
  endfacet
  facet normal 0 0 -1
    outer loop
      vertex 105.077 34.7253 0
      vertex 113.36 61.8 0
      vertex 105.139 34.4659 0
    endloop
  endfacet
  facet normal 0 0 -1
    outer loop
      vertex 108.36 1.6 0
      vertex 112.815 4.33005 0
      vertex 112.405 3.66107 0
    endloop
  endfacet
  facet normal 0 0 -1
    outer loop
      vertex 104.975 34.9718 0
      vertex 113.36 61.8 0
      vertex 105.077 34.7253 0
    endloop
  endfacet
  facet normal 0 0 -1
    outer loop
      vertex 108.36 1.6 0
      vertex 112.405 3.66107 0
      vertex 111.896 3.06447 0
    endloop
  endfacet
  facet normal 0 0 -1
    outer loop
      vertex 104.835 35.1992 0
      vertex 113.36 61.8 0
      vertex 104.975 34.9718 0
    endloop
  endfacet
  facet normal 0 0 -1
    outer loop
      vertex 108.36 1.6 0
      vertex 111.896 3.06447 0
      vertex 111.299 2.55491 0
    endloop
  endfacet
  facet normal 0 0 -1
    outer loop
      vertex 104.662 35.4021 0
      vertex 113.36 61.8 0
      vertex 104.835 35.1992 0
    endloop
  endfacet
  facet normal 0 0 -1
    outer loop
      vertex 108.36 1.6 0
      vertex 111.299 2.55491 0
      vertex 110.63 2.14497 0
    endloop
  endfacet
  facet normal 0 0 -1
    outer loop
      vertex 104.459 35.5753 0
      vertex 113.36 61.8 0
      vertex 104.662 35.4021 0
    endloop
  endfacet
  facet normal 0 0 -1
    outer loop
      vertex 108.36 1.6 0
      vertex 110.63 2.14497 0
      vertex 109.905 1.84472 0
    endloop
  endfacet
  facet normal 0 0 -1
    outer loop
      vertex 104.232 35.7147 0
      vertex 113.36 61.8 0
      vertex 104.459 35.5753 0
    endloop
  endfacet
  facet normal 0 0 -1
    outer loop
      vertex 108.36 1.6 0
      vertex 109.905 1.84472 0
      vertex 109.142 1.66156 0
    endloop
  endfacet
  facet normal 0 0 -1
    outer loop
      vertex 103.985 35.8168 0
      vertex 113.36 61.8 0
      vertex 104.232 35.7147 0
    endloop
  endfacet
  facet normal -0 0 -1
    outer loop
      vertex 113.36 6.6 0
      vertex 108.36 1.6 0
      vertex 92.8 15.6 0
    endloop
  endfacet
  facet normal 0 0 -1
    outer loop
      vertex 103.726 35.8791 0
      vertex 113.36 61.8 0
      vertex 103.985 35.8168 0
    endloop
  endfacet
  facet normal 0 0 -1
    outer loop
      vertex 92.8 57.6 0
      vertex 113.36 61.8 0
      vertex 103.726 35.8791 0
    endloop
  endfacet
  facet normal 0 0 -1
    outer loop
      vertex 113.36 6.6 0
      vertex 105.139 33.9341 0
      vertex 105.16 34.2 0
    endloop
  endfacet
  facet normal 0 0 -1
    outer loop
      vertex 113.36 6.6 0
      vertex 105.077 33.6747 0
      vertex 105.139 33.9341 0
    endloop
  endfacet
  facet normal 0 0 -1
    outer loop
      vertex 113.36 6.6 0
      vertex 104.975 33.4282 0
      vertex 105.077 33.6747 0
    endloop
  endfacet
  facet normal 0 0 -1
    outer loop
      vertex 113.36 6.6 0
      vertex 104.835 33.2008 0
      vertex 104.975 33.4282 0
    endloop
  endfacet
  facet normal 0 0 -1
    outer loop
      vertex 113.36 6.6 0
      vertex 104.662 32.9979 0
      vertex 104.835 33.2008 0
    endloop
  endfacet
  facet normal 0 0 -1
    outer loop
      vertex 113.36 6.6 0
      vertex 104.459 32.8247 0
      vertex 104.662 32.9979 0
    endloop
  endfacet
  facet normal 0 0 -1
    outer loop
      vertex 113.36 6.6 0
      vertex 104.232 32.6853 0
      vertex 104.459 32.8247 0
    endloop
  endfacet
  facet normal 0 0 -1
    outer loop
      vertex 113.36 6.6 0
      vertex 103.985 32.5832 0
      vertex 104.232 32.6853 0
    endloop
  endfacet
  facet normal 0 0 -1
    outer loop
      vertex 113.36 6.6 0
      vertex 92.8 15.6 0
      vertex 103.726 32.5209 0
    endloop
  endfacet
  facet normal 0 0 -1
    outer loop
      vertex 113.36 6.6 0
      vertex 103.726 32.5209 0
      vertex 103.985 32.5832 0
    endloop
  endfacet
  facet normal 0 0 -1
    outer loop
      vertex 103.726 32.5209 0
      vertex 92.8 15.6 0
      vertex 103.46 32.5 0
    endloop
  endfacet
  facet normal -0 0 -1
    outer loop
      vertex 103.46 32.5 0
      vertex 92.8 15.6 0
      vertex 103.194 32.5209 0
    endloop
  endfacet
  facet normal -0 0 -1
    outer loop
      vertex 103.194 32.5209 0
      vertex 92.8 15.6 0
      vertex 102.935 32.5832 0
    endloop
  endfacet
  facet normal -0 0 -1
    outer loop
      vertex 102.935 32.5832 0
      vertex 92.8 15.6 0
      vertex 102.688 32.6853 0
    endloop
  endfacet
  facet normal -0 0 -1
    outer loop
      vertex 102.688 32.6853 0
      vertex 92.8 15.6 0
      vertex 102.461 32.8247 0
    endloop
  endfacet
  facet normal -0 0 -1
    outer loop
      vertex 102.461 32.8247 0
      vertex 92.8 15.6 0
      vertex 102.258 32.9979 0
    endloop
  endfacet
  facet normal -0 0 -1
    outer loop
      vertex 102.258 32.9979 0
      vertex 92.8 15.6 0
      vertex 102.085 33.2008 0
    endloop
  endfacet
  facet normal -0 0 -1
    outer loop
      vertex 102.085 33.2008 0
      vertex 92.8 15.6 0
      vertex 101.945 33.4282 0
    endloop
  endfacet
  facet normal -0 0 -1
    outer loop
      vertex 101.945 33.4282 0
      vertex 92.8 15.6 0
      vertex 101.843 33.6747 0
    endloop
  endfacet
  facet normal -0 0 -1
    outer loop
      vertex 101.781 33.9341 0
      vertex 92.8 15.6 0
      vertex 101.76 34.2 0
    endloop
  endfacet
  facet normal -0 0 -1
    outer loop
      vertex 101.843 33.6747 0
      vertex 92.8 15.6 0
      vertex 101.781 33.9341 0
    endloop
  endfacet
  facet normal 0 0 -1
    outer loop
      vertex 108.36 1.6 0
      vertex 62.8 15.6 0
      vertex 92.8 15.6 0
    endloop
  endfacet
  facet normal 0 0 -1
    outer loop
      vertex 39.58 29.6 0
      vertex 62.8 15.6 0
      vertex 39.58 15.6 0
    endloop
  endfacet
  facet normal 0 0 -1
    outer loop
      vertex 7.4 1.6 0
      vertex 62.8 15.6 0
      vertex 108.36 1.6 0
    endloop
  endfacet
  facet normal -0 0 -1
    outer loop
      vertex 62.8 15.6 0
      vertex 7.4 1.6 0
      vertex 39.58 15.6 0
    endloop
  endfacet
  facet normal 0 0 -1
    outer loop
      vertex 12.2718 32.6853 0
      vertex 24.58 29.6 0
      vertex 24.58 15.6 0
    endloop
  endfacet
  facet normal 0 0 -1
    outer loop
      vertex 24.58 29.6 0
      vertex 13.1791 33.9341 0
      vertex 13.2 34.2 0
    endloop
  endfacet
  facet normal 0 0 -1
    outer loop
      vertex 24.58 29.6 0
      vertex 13.1168 33.6747 0
      vertex 13.1791 33.9341 0
    endloop
  endfacet
  facet normal 0 0 -1
    outer loop
      vertex 24.58 29.6 0
      vertex 13.0147 33.4282 0
      vertex 13.1168 33.6747 0
    endloop
  endfacet
  facet normal 0 0 -1
    outer loop
      vertex 24.58 29.6 0
      vertex 12.8753 33.2008 0
      vertex 13.0147 33.4282 0
    endloop
  endfacet
  facet normal 0 0 -1
    outer loop
      vertex 24.58 29.6 0
      vertex 12.7021 32.9979 0
      vertex 12.8753 33.2008 0
    endloop
  endfacet
  facet normal 0 0 -1
    outer loop
      vertex 24.58 29.6 0
      vertex 12.4992 32.8247 0
      vertex 12.7021 32.9979 0
    endloop
  endfacet
  facet normal 0 0 -1
    outer loop
      vertex 24.58 29.6 0
      vertex 12.2718 32.6853 0
      vertex 12.4992 32.8247 0
    endloop
  endfacet
  facet normal 0 0 -1
    outer loop
      vertex 24.58 15.6 0
      vertex 12.0253 32.5832 0
      vertex 12.2718 32.6853 0
    endloop
  endfacet
  facet normal 0 0 -1
    outer loop
      vertex 24.58 15.6 0
      vertex 11.7659 32.5209 0
      vertex 12.0253 32.5832 0
    endloop
  endfacet
  facet normal 0 0 -1
    outer loop
      vertex 24.58 15.6 0
      vertex 11.5 32.5 0
      vertex 11.7659 32.5209 0
    endloop
  endfacet
  facet normal 0 0 -1
    outer loop
      vertex 2.4 6.6 0
      vertex 11.5 32.5 0
      vertex 24.58 15.6 0
    endloop
  endfacet
  facet normal -0 0 -1
    outer loop
      vertex 11.5 32.5 0
      vertex 2.4 6.6 0
      vertex 11.2341 32.5209 0
    endloop
  endfacet
  facet normal -0 0 -1
    outer loop
      vertex 11.2341 32.5209 0
      vertex 2.4 6.6 0
      vertex 10.9747 32.5832 0
    endloop
  endfacet
  facet normal -0 0 -1
    outer loop
      vertex 10.9747 32.5832 0
      vertex 2.4 6.6 0
      vertex 10.7282 32.6853 0
    endloop
  endfacet
  facet normal -0 0 -1
    outer loop
      vertex 10.7282 32.6853 0
      vertex 2.4 6.6 0
      vertex 10.5008 32.8247 0
    endloop
  endfacet
  facet normal -0 0 -1
    outer loop
      vertex 10.5008 32.8247 0
      vertex 2.4 6.6 0
      vertex 10.2979 32.9979 0
    endloop
  endfacet
  facet normal -0 0 -1
    outer loop
      vertex 9.8832 33.6747 0
      vertex 2.4 6.6 0
      vertex 9.82093 33.9341 0
    endloop
  endfacet
  facet normal -0 0 -1
    outer loop
      vertex 9.98529 33.4282 0
      vertex 2.4 6.6 0
      vertex 9.8832 33.6747 0
    endloop
  endfacet
  facet normal -0 0 -1
    outer loop
      vertex 10.1247 33.2008 0
      vertex 2.4 6.6 0
      vertex 9.98529 33.4282 0
    endloop
  endfacet
  facet normal -0 0 -1
    outer loop
      vertex 10.2979 32.9979 0
      vertex 2.4 6.6 0
      vertex 10.1247 33.2008 0
    endloop
  endfacet
  facet normal 0 0 -1
    outer loop
      vertex 2.4 6.6 0
      vertex 24.58 15.6 0
      vertex 7.4 1.6 0
    endloop
  endfacet
  facet normal -0 0 -1
    outer loop
      vertex 39.58 15.6 0
      vertex 7.4 1.6 0
      vertex 24.58 15.6 0
    endloop
  endfacet
  facet normal 0 -0 -1
    outer loop
      vertex 108.36 66.8 0
      vertex 113.36 61.8 0
      vertex 92.8 57.6 0
    endloop
  endfacet
  facet normal 0 0 -1
    outer loop
      vertex 113.36 61.8 0
      vertex 108.36 66.8 0
      vertex 113.298 62.5822 0
    endloop
  endfacet
  facet normal 0 0 -1
    outer loop
      vertex 113.298 62.5822 0
      vertex 108.36 66.8 0
      vertex 113.115 63.3451 0
    endloop
  endfacet
  facet normal 0 0 -1
    outer loop
      vertex 113.115 63.3451 0
      vertex 108.36 66.8 0
      vertex 112.815 64.07 0
    endloop
  endfacet
  facet normal 0 0 -1
    outer loop
      vertex 112.815 64.07 0
      vertex 108.36 66.8 0
      vertex 112.405 64.7389 0
    endloop
  endfacet
  facet normal 0 0 -1
    outer loop
      vertex 112.405 64.7389 0
      vertex 108.36 66.8 0
      vertex 111.896 65.3355 0
    endloop
  endfacet
  facet normal 0 0 -1
    outer loop
      vertex 111.896 65.3355 0
      vertex 108.36 66.8 0
      vertex 111.299 65.8451 0
    endloop
  endfacet
  facet normal 0 0 -1
    outer loop
      vertex 109.905 66.5553 0
      vertex 108.36 66.8 0
      vertex 109.142 66.7384 0
    endloop
  endfacet
  facet normal 0 0 -1
    outer loop
      vertex 111.299 65.8451 0
      vertex 108.36 66.8 0
      vertex 110.63 66.255 0
    endloop
  endfacet
  facet normal 0 0 -1
    outer loop
      vertex 92.8 57.6 0
      vertex 103.726 35.8791 0
      vertex 103.46 35.9 0
    endloop
  endfacet
  facet normal 0 0 -1
    outer loop
      vertex 92.8 57.6 0
      vertex 103.46 35.9 0
      vertex 103.194 35.8791 0
    endloop
  endfacet
  facet normal 0 0 -1
    outer loop
      vertex 92.8 57.6 0
      vertex 103.194 35.8791 0
      vertex 102.935 35.8168 0
    endloop
  endfacet
  facet normal 0 0 -1
    outer loop
      vertex 92.8 57.6 0
      vertex 102.935 35.8168 0
      vertex 102.688 35.7147 0
    endloop
  endfacet
  facet normal 0 0 -1
    outer loop
      vertex 92.8 57.6 0
      vertex 102.688 35.7147 0
      vertex 102.461 35.5753 0
    endloop
  endfacet
  facet normal 0 0 -1
    outer loop
      vertex 92.8 57.6 0
      vertex 102.461 35.5753 0
      vertex 102.258 35.4021 0
    endloop
  endfacet
  facet normal 0 0 -1
    outer loop
      vertex 92.8 57.6 0
      vertex 102.258 35.4021 0
      vertex 102.085 35.1992 0
    endloop
  endfacet
  facet normal 0 0 -1
    outer loop
      vertex 92.8 57.6 0
      vertex 102.085 35.1992 0
      vertex 101.945 34.9718 0
    endloop
  endfacet
  facet normal 0 0 -1
    outer loop
      vertex 92.8 57.6 0
      vertex 101.945 34.9718 0
      vertex 101.843 34.7253 0
    endloop
  endfacet
  facet normal 0 0 -1
    outer loop
      vertex 92.8 57.6 0
      vertex 101.843 34.7253 0
      vertex 101.781 34.4659 0
    endloop
  endfacet
  facet normal 0 0 -1
    outer loop
      vertex 92.8 15.6 0
      vertex 101.781 34.4659 0
      vertex 101.76 34.2 0
    endloop
  endfacet
  facet normal 0 0 -1
    outer loop
      vertex 92.8 57.6 0
      vertex 101.781 34.4659 0
      vertex 92.8 15.6 0
    endloop
  endfacet
  facet normal 0 0 -1
    outer loop
      vertex 110.63 66.255 0
      vertex 108.36 66.8 0
      vertex 109.905 66.5553 0
    endloop
  endfacet
  facet normal 0 0 -1
    outer loop
      vertex 62.8 57.6 0
      vertex 108.36 66.8 0
      vertex 92.8 57.6 0
    endloop
  endfacet
  facet normal 0 0 -1
    outer loop
      vertex 62.8 15.6 0
      vertex 39.58 29.6 0
      vertex 62.8 57.6 0
    endloop
  endfacet
  facet normal 0 0 -1
    outer loop
      vertex 7.4 66.8 0
      vertex 39.58 29.6 0
      vertex 24.58 29.6 0
    endloop
  endfacet
  facet normal 0 0 -1
    outer loop
      vertex 13.1791 34.4659 0
      vertex 24.58 29.6 0
      vertex 13.2 34.2 0
    endloop
  endfacet
  facet normal 0 0 -1
    outer loop
      vertex 13.1168 34.7253 0
      vertex 24.58 29.6 0
      vertex 13.1791 34.4659 0
    endloop
  endfacet
  facet normal 0 0 -1
    outer loop
      vertex 13.0147 34.9718 0
      vertex 24.58 29.6 0
      vertex 13.1168 34.7253 0
    endloop
  endfacet
  facet normal 0 0 -1
    outer loop
      vertex 12.8753 35.1992 0
      vertex 24.58 29.6 0
      vertex 13.0147 34.9718 0
    endloop
  endfacet
  facet normal 0 0 -1
    outer loop
      vertex 12.7021 35.4021 0
      vertex 24.58 29.6 0
      vertex 12.8753 35.1992 0
    endloop
  endfacet
  facet normal 0 0 -1
    outer loop
      vertex 7.4 66.8 0
      vertex 24.58 29.6 0
      vertex 12.7021 35.4021 0
    endloop
  endfacet
  facet normal 0 0 -1
    outer loop
      vertex 7.4 66.8 0
      vertex 12.7021 35.4021 0
      vertex 12.4992 35.5753 0
    endloop
  endfacet
  facet normal 0 0 -1
    outer loop
      vertex 7.4 66.8 0
      vertex 12.4992 35.5753 0
      vertex 12.2718 35.7147 0
    endloop
  endfacet
  facet normal 0 0 -1
    outer loop
      vertex 7.4 66.8 0
      vertex 12.2718 35.7147 0
      vertex 12.0253 35.8168 0
    endloop
  endfacet
  facet normal 0 0 -1
    outer loop
      vertex 2.4 61.8 0
      vertex 12.0253 35.8168 0
      vertex 11.7659 35.8791 0
    endloop
  endfacet
  facet normal 0 0 -1
    outer loop
      vertex 2.4 61.8 0
      vertex 11.7659 35.8791 0
      vertex 11.5 35.9 0
    endloop
  endfacet
  facet normal 0 0 -1
    outer loop
      vertex 2.4 61.8 0
      vertex 11.5 35.9 0
      vertex 11.2341 35.8791 0
    endloop
  endfacet
  facet normal 0 0 -1
    outer loop
      vertex 2.4 61.8 0
      vertex 11.2341 35.8791 0
      vertex 10.9747 35.8168 0
    endloop
  endfacet
  facet normal 0 0 -1
    outer loop
      vertex 2.4 61.8 0
      vertex 10.9747 35.8168 0
      vertex 10.7282 35.7147 0
    endloop
  endfacet
  facet normal 0 0 -1
    outer loop
      vertex 62.8 57.6 0
      vertex 7.4 66.8 0
      vertex 108.36 66.8 0
    endloop
  endfacet
  facet normal 0 0 -1
    outer loop
      vertex 39.58 29.6 0
      vertex 7.4 66.8 0
      vertex 62.8 57.6 0
    endloop
  endfacet
  facet normal 0 0 -1
    outer loop
      vertex 2.4 61.8 0
      vertex 10.7282 35.7147 0
      vertex 10.5008 35.5753 0
    endloop
  endfacet
  facet normal 0 0 -1
    outer loop
      vertex 2.4 61.8 0
      vertex 10.5008 35.5753 0
      vertex 10.2979 35.4021 0
    endloop
  endfacet
  facet normal 0 0 -1
    outer loop
      vertex 2.4 61.8 0
      vertex 10.2979 35.4021 0
      vertex 10.1247 35.1992 0
    endloop
  endfacet
  facet normal 0 0 -1
    outer loop
      vertex 2.4 61.8 0
      vertex 10.1247 35.1992 0
      vertex 9.98529 34.9718 0
    endloop
  endfacet
  facet normal 0 0 -1
    outer loop
      vertex 2.4 61.8 0
      vertex 9.98529 34.9718 0
      vertex 9.8832 34.7253 0
    endloop
  endfacet
  facet normal 0 0 -1
    outer loop
      vertex 2.4 61.8 0
      vertex 9.8832 34.7253 0
      vertex 9.82093 34.4659 0
    endloop
  endfacet
  facet normal 0 0 -1
    outer loop
      vertex 2.4 61.8 0
      vertex 9.82093 34.4659 0
      vertex 9.8 34.2 0
    endloop
  endfacet
  facet normal -0 0 -1
    outer loop
      vertex 9.82093 33.9341 0
      vertex 2.4 6.6 0
      vertex 9.8 34.2 0
    endloop
  endfacet
  facet normal 0 0 -1
    outer loop
      vertex 2.4 6.6 0
      vertex 7.4 1.6 0
      vertex 6.61783 1.66156 0
    endloop
  endfacet
  facet normal 0 0 -1
    outer loop
      vertex 2.4 61.8 0
      vertex 9.8 34.2 0
      vertex 2.4 6.6 0
    endloop
  endfacet
  facet normal 0 0 -1
    outer loop
      vertex 2.4 6.6 0
      vertex 6.61783 1.66156 0
      vertex 5.85491 1.84472 0
    endloop
  endfacet
  facet normal 0 0 -1
    outer loop
      vertex 12.0253 35.8168 0
      vertex 2.4 61.8 0
      vertex 7.4 66.8 0
    endloop
  endfacet
  facet normal 0 0 -1
    outer loop
      vertex 2.4 6.6 0
      vertex 5.85491 1.84472 0
      vertex 5.13005 2.14497 0
    endloop
  endfacet
  facet normal 0 0 -1
    outer loop
      vertex 7.4 66.8 0
      vertex 2.4 61.8 0
      vertex 6.61783 66.7384 0
    endloop
  endfacet
  facet normal 0 0 -1
    outer loop
      vertex 2.4 6.6 0
      vertex 5.13005 2.14497 0
      vertex 4.46107 2.55491 0
    endloop
  endfacet
  facet normal 0 0 -1
    outer loop
      vertex 6.61783 66.7384 0
      vertex 2.4 61.8 0
      vertex 5.85491 66.5553 0
    endloop
  endfacet
  facet normal 0 0 -1
    outer loop
      vertex 2.4 6.6 0
      vertex 4.46107 2.55491 0
      vertex 3.86447 3.06447 0
    endloop
  endfacet
  facet normal 0 0 -1
    outer loop
      vertex 5.85491 66.5553 0
      vertex 2.4 61.8 0
      vertex 5.13005 66.255 0
    endloop
  endfacet
  facet normal 0 0 -1
    outer loop
      vertex 2.4 6.6 0
      vertex 3.86447 3.06447 0
      vertex 3.35491 3.66107 0
    endloop
  endfacet
  facet normal 0 0 -1
    outer loop
      vertex 5.13005 66.255 0
      vertex 2.4 61.8 0
      vertex 4.46107 65.8451 0
    endloop
  endfacet
  facet normal 0 0 -1
    outer loop
      vertex 2.4 6.6 0
      vertex 3.35491 3.66107 0
      vertex 2.94497 4.33005 0
    endloop
  endfacet
  facet normal 0 0 -1
    outer loop
      vertex 4.46107 65.8451 0
      vertex 2.4 61.8 0
      vertex 3.86447 65.3355 0
    endloop
  endfacet
  facet normal 0 0 -1
    outer loop
      vertex 2.4 6.6 0
      vertex 2.94497 4.33005 0
      vertex 2.64472 5.05491 0
    endloop
  endfacet
  facet normal 0 0 -1
    outer loop
      vertex 3.86447 65.3355 0
      vertex 2.4 61.8 0
      vertex 3.35491 64.7389 0
    endloop
  endfacet
  facet normal 0 0 -1
    outer loop
      vertex 2.4 6.6 0
      vertex 2.64472 5.05491 0
      vertex 2.46156 5.81783 0
    endloop
  endfacet
  facet normal 0 0 -1
    outer loop
      vertex 3.35491 64.7389 0
      vertex 2.4 61.8 0
      vertex 2.94497 64.07 0
    endloop
  endfacet
  facet normal 0 0 -1
    outer loop
      vertex 2.94497 64.07 0
      vertex 2.4 61.8 0
      vertex 2.64472 63.3451 0
    endloop
  endfacet
  facet normal 0 0 -1
    outer loop
      vertex 2.64472 63.3451 0
      vertex 2.4 61.8 0
      vertex 2.46156 62.5822 0
    endloop
  endfacet
  facet normal -0.522498 -0.85264 0
    outer loop
      vertex 4.46107 2.55491 0
      vertex 5.13005 2.14497 1.3
      vertex 4.46107 2.55491 1.3
    endloop
  endfacet
  facet normal -0.522498 -0.85264 -0
    outer loop
      vertex 5.13005 2.14497 1.3
      vertex 4.46107 2.55491 0
      vertex 5.13005 2.14497 0
    endloop
  endfacet
  facet normal -0.522501 0.852639 0
    outer loop
      vertex 5.13005 66.255 0
      vertex 4.46107 65.8451 1.3
      vertex 5.13005 66.255 1.3
    endloop
  endfacet
  facet normal -0.522501 0.852639 0
    outer loop
      vertex 4.46107 65.8451 1.3
      vertex 5.13005 66.255 0
      vertex 4.46107 65.8451 0
    endloop
  endfacet
  facet normal -0.760408 0.649446 0
    outer loop
      vertex 3.35491 64.7389 0
      vertex 3.86447 65.3355 1.3
      vertex 3.86447 65.3355 0
    endloop
  endfacet
  facet normal -0.760408 0.649446 0
    outer loop
      vertex 3.86447 65.3355 1.3
      vertex 3.35491 64.7389 0
      vertex 3.35491 64.7389 1.3
    endloop
  endfacet
  facet normal 0.233446 0.97237 -0
    outer loop
      vertex 109.905 66.5553 0
      vertex 109.142 66.7384 1.3
      vertex 109.905 66.5553 1.3
    endloop
  endfacet
  facet normal 0.233446 0.97237 0
    outer loop
      vertex 109.142 66.7384 1.3
      vertex 109.905 66.5553 0
      vertex 109.142 66.7384 0
    endloop
  endfacet
  facet normal -0.0784633 0.996917 0
    outer loop
      vertex 7.4 66.8 0
      vertex 6.61783 66.7384 1.3
      vertex 7.4 66.8 1.3
    endloop
  endfacet
  facet normal -0.0784633 0.996917 0
    outer loop
      vertex 6.61783 66.7384 1.3
      vertex 7.4 66.8 0
      vertex 6.61783 66.7384 0
    endloop
  endfacet
  facet normal -0.233445 0.97237 0
    outer loop
      vertex 6.61783 66.7384 0
      vertex 5.85491 66.5553 1.3
      vertex 6.61783 66.7384 1.3
    endloop
  endfacet
  facet normal -0.233445 0.97237 0
    outer loop
      vertex 5.85491 66.5553 1.3
      vertex 6.61783 66.7384 0
      vertex 5.85491 66.5553 0
    endloop
  endfacet
  facet normal 0.0784632 0.996917 -0
    outer loop
      vertex 109.142 66.7384 0
      vertex 108.36 66.8 1.3
      vertex 109.142 66.7384 1.3
    endloop
  endfacet
  facet normal 0.0784632 0.996917 0
    outer loop
      vertex 108.36 66.8 1.3
      vertex 109.142 66.7384 0
      vertex 108.36 66.8 0
    endloop
  endfacet
  facet normal 0.760407 0.649447 0
    outer loop
      vertex 112.405 64.7389 1.3
      vertex 111.896 65.3355 0
      vertex 111.896 65.3355 1.3
    endloop
  endfacet
  facet normal 0.760407 0.649447 0
    outer loop
      vertex 111.896 65.3355 0
      vertex 112.405 64.7389 1.3
      vertex 112.405 64.7389 0
    endloop
  endfacet
  facet normal 0.852637 0.522504 0
    outer loop
      vertex 112.815 64.07 1.3
      vertex 112.405 64.7389 0
      vertex 112.405 64.7389 1.3
    endloop
  endfacet
  facet normal 0.852637 0.522504 0
    outer loop
      vertex 112.405 64.7389 0
      vertex 112.815 64.07 1.3
      vertex 112.815 64.07 0
    endloop
  endfacet
  facet normal 0.996917 0.0784632 0
    outer loop
      vertex 113.36 61.8 1.3
      vertex 113.298 62.5822 0
      vertex 113.298 62.5822 1.3
    endloop
  endfacet
  facet normal 0.996917 0.0784632 0
    outer loop
      vertex 113.298 62.5822 0
      vertex 113.36 61.8 1.3
      vertex 113.36 61.8 0
    endloop
  endfacet
  facet normal 0.996917 -0.0784633 0
    outer loop
      vertex 113.298 5.81783 1.3
      vertex 113.36 6.6 0
      vertex 113.36 6.6 1.3
    endloop
  endfacet
  facet normal 0.996917 -0.0784633 0
    outer loop
      vertex 113.36 6.6 0
      vertex 113.298 5.81783 1.3
      vertex 113.298 5.81783 0
    endloop
  endfacet
  facet normal 0.522497 -0.852641 0
    outer loop
      vertex 110.63 2.14497 0
      vertex 111.299 2.55491 1.3
      vertex 110.63 2.14497 1.3
    endloop
  endfacet
  facet normal 0.522497 -0.852641 0
    outer loop
      vertex 111.299 2.55491 1.3
      vertex 110.63 2.14497 0
      vertex 111.299 2.55491 0
    endloop
  endfacet
  facet normal -0.97237 -0.233445 0
    outer loop
      vertex 2.64472 5.05491 0
      vertex 2.46156 5.81783 1.3
      vertex 2.46156 5.81783 0
    endloop
  endfacet
  facet normal -0.97237 -0.233445 0
    outer loop
      vertex 2.46156 5.81783 1.3
      vertex 2.64472 5.05491 0
      vertex 2.64472 5.05491 1.3
    endloop
  endfacet
  facet normal -0.649448 0.760406 0
    outer loop
      vertex 4.46107 65.8451 0
      vertex 3.86447 65.3355 1.3
      vertex 4.46107 65.8451 1.3
    endloop
  endfacet
  facet normal -0.649448 0.760406 0
    outer loop
      vertex 3.86447 65.3355 1.3
      vertex 4.46107 65.8451 0
      vertex 3.86447 65.3355 0
    endloop
  endfacet
  facet normal -0.97237 0.233445 0
    outer loop
      vertex 2.46156 62.5822 0
      vertex 2.64472 63.3451 1.3
      vertex 2.64472 63.3451 0
    endloop
  endfacet
  facet normal -0.97237 0.233445 0
    outer loop
      vertex 2.64472 63.3451 1.3
      vertex 2.46156 62.5822 0
      vertex 2.46156 62.5822 1.3
    endloop
  endfacet
  facet normal -0.92388 0.382683 0
    outer loop
      vertex 2.64472 63.3451 0
      vertex 2.94497 64.07 1.3
      vertex 2.94497 64.07 0
    endloop
  endfacet
  facet normal -0.92388 0.382683 0
    outer loop
      vertex 2.94497 64.07 1.3
      vertex 2.64472 63.3451 0
      vertex 2.64472 63.3451 1.3
    endloop
  endfacet
  facet normal -0.852638 0.522501 0
    outer loop
      vertex 2.94497 64.07 0
      vertex 3.35491 64.7389 1.3
      vertex 3.35491 64.7389 0
    endloop
  endfacet
  facet normal -0.852638 0.522501 0
    outer loop
      vertex 3.35491 64.7389 1.3
      vertex 2.94497 64.07 0
      vertex 2.94497 64.07 1.3
    endloop
  endfacet
  facet normal 0.5225 0.852639 -0
    outer loop
      vertex 111.299 65.8451 0
      vertex 110.63 66.255 1.3
      vertex 111.299 65.8451 1.3
    endloop
  endfacet
  facet normal 0.5225 0.852639 0
    outer loop
      vertex 110.63 66.255 1.3
      vertex 111.299 65.8451 0
      vertex 110.63 66.255 0
    endloop
  endfacet
  facet normal 0.649451 0.760403 -0
    outer loop
      vertex 111.896 65.3355 0
      vertex 111.299 65.8451 1.3
      vertex 111.896 65.3355 1.3
    endloop
  endfacet
  facet normal 0.649451 0.760403 0
    outer loop
      vertex 111.299 65.8451 1.3
      vertex 111.896 65.3355 0
      vertex 111.299 65.8451 0
    endloop
  endfacet
  facet normal 0.97237 0.233445 0
    outer loop
      vertex 113.298 62.5822 1.3
      vertex 113.115 63.3451 0
      vertex 113.115 63.3451 1.3
    endloop
  endfacet
  facet normal 0.97237 0.233445 0
    outer loop
      vertex 113.115 63.3451 0
      vertex 113.298 62.5822 1.3
      vertex 113.298 62.5822 0
    endloop
  endfacet
  facet normal 0.923881 0.38268 0
    outer loop
      vertex 113.115 63.3451 1.3
      vertex 112.815 64.07 0
      vertex 112.815 64.07 1.3
    endloop
  endfacet
  facet normal 0.923881 0.38268 0
    outer loop
      vertex 112.815 64.07 0
      vertex 113.115 63.3451 1.3
      vertex 113.115 63.3451 0
    endloop
  endfacet
  facet normal 0.923881 -0.382681 0
    outer loop
      vertex 112.815 4.33005 1.3
      vertex 113.115 5.05491 0
      vertex 113.115 5.05491 1.3
    endloop
  endfacet
  facet normal 0.923881 -0.382681 0
    outer loop
      vertex 113.115 5.05491 0
      vertex 112.815 4.33005 1.3
      vertex 112.815 4.33005 0
    endloop
  endfacet
  facet normal 0.852639 -0.522501 0
    outer loop
      vertex 112.405 3.66107 1.3
      vertex 112.815 4.33005 0
      vertex 112.815 4.33005 1.3
    endloop
  endfacet
  facet normal 0.852639 -0.522501 0
    outer loop
      vertex 112.815 4.33005 0
      vertex 112.405 3.66107 1.3
      vertex 112.405 3.66107 0
    endloop
  endfacet
  facet normal -0.92388 -0.382682 0
    outer loop
      vertex 13.1168 34.7253 0
      vertex 13.0147 34.9718 1.3
      vertex 13.0147 34.9718 0
    endloop
  endfacet
  facet normal -0.92388 -0.382682 0
    outer loop
      vertex 13.0147 34.9718 1.3
      vertex 13.1168 34.7253 0
      vertex 13.1168 34.7253 1.3
    endloop
  endfacet
  facet normal -0.85264 -0.522499 0
    outer loop
      vertex 13.0147 34.9718 0
      vertex 12.8753 35.1992 1.3
      vertex 12.8753 35.1992 0
    endloop
  endfacet
  facet normal -0.85264 -0.522499 0
    outer loop
      vertex 12.8753 35.1992 1.3
      vertex 13.0147 34.9718 0
      vertex 13.0147 34.9718 1.3
    endloop
  endfacet
  facet normal -0.233448 -0.972369 0
    outer loop
      vertex 11.7659 35.8791 0
      vertex 12.0253 35.8168 1.3
      vertex 11.7659 35.8791 1.3
    endloop
  endfacet
  facet normal -0.233448 -0.972369 -0
    outer loop
      vertex 12.0253 35.8168 1.3
      vertex 11.7659 35.8791 0
      vertex 12.0253 35.8168 0
    endloop
  endfacet
  facet normal -0.382684 -0.923879 0
    outer loop
      vertex 12.0253 35.8168 0
      vertex 12.2718 35.7147 1.3
      vertex 12.0253 35.8168 1.3
    endloop
  endfacet
  facet normal -0.382684 -0.923879 -0
    outer loop
      vertex 12.2718 35.7147 1.3
      vertex 12.0253 35.8168 0
      vertex 12.2718 35.7147 0
    endloop
  endfacet
  facet normal 0.233448 -0.972369 0
    outer loop
      vertex 10.9747 35.8168 0
      vertex 11.2341 35.8791 1.3
      vertex 10.9747 35.8168 1.3
    endloop
  endfacet
  facet normal 0.233448 -0.972369 0
    outer loop
      vertex 11.2341 35.8791 1.3
      vertex 10.9747 35.8168 0
      vertex 11.2341 35.8791 0
    endloop
  endfacet
  facet normal 0.85264 -0.522499 0
    outer loop
      vertex 9.98529 34.9718 1.3
      vertex 10.1247 35.1992 0
      vertex 10.1247 35.1992 1.3
    endloop
  endfacet
  facet normal 0.85264 -0.522499 0
    outer loop
      vertex 10.1247 35.1992 0
      vertex 9.98529 34.9718 1.3
      vertex 9.98529 34.9718 0
    endloop
  endfacet
  facet normal -0.97237 -0.233447 0
    outer loop
      vertex 13.1791 34.4659 0
      vertex 13.1168 34.7253 1.3
      vertex 13.1168 34.7253 0
    endloop
  endfacet
  facet normal -0.97237 -0.233447 0
    outer loop
      vertex 13.1168 34.7253 1.3
      vertex 13.1791 34.4659 0
      vertex 13.1791 34.4659 1.3
    endloop
  endfacet
  facet normal -0.64945 -0.760404 0
    outer loop
      vertex 12.4992 35.5753 0
      vertex 12.7021 35.4021 1.3
      vertex 12.4992 35.5753 1.3
    endloop
  endfacet
  facet normal -0.64945 -0.760404 -0
    outer loop
      vertex 12.7021 35.4021 1.3
      vertex 12.4992 35.5753 0
      vertex 12.7021 35.4021 0
    endloop
  endfacet
  facet normal -0.0784646 -0.996917 0
    outer loop
      vertex 11.5 35.9 0
      vertex 11.7659 35.8791 1.3
      vertex 11.5 35.9 1.3
    endloop
  endfacet
  facet normal -0.0784646 -0.996917 -0
    outer loop
      vertex 11.7659 35.8791 1.3
      vertex 11.5 35.9 0
      vertex 11.7659 35.8791 0
    endloop
  endfacet
  facet normal -0.522498 -0.852641 0
    outer loop
      vertex 12.2718 35.7147 0
      vertex 12.4992 35.5753 1.3
      vertex 12.2718 35.7147 1.3
    endloop
  endfacet
  facet normal -0.522498 -0.852641 -0
    outer loop
      vertex 12.4992 35.5753 1.3
      vertex 12.2718 35.7147 0
      vertex 12.4992 35.5753 0
    endloop
  endfacet
  facet normal 0.97237 -0.233447 0
    outer loop
      vertex 9.82093 34.4659 1.3
      vertex 9.8832 34.7253 0
      vertex 9.8832 34.7253 1.3
    endloop
  endfacet
  facet normal 0.97237 -0.233447 0
    outer loop
      vertex 9.8832 34.7253 0
      vertex 9.82093 34.4659 1.3
      vertex 9.82093 34.4659 0
    endloop
  endfacet
  facet normal 0.760406 -0.649448 0
    outer loop
      vertex 10.1247 35.1992 1.3
      vertex 10.2979 35.4021 0
      vertex 10.2979 35.4021 1.3
    endloop
  endfacet
  facet normal 0.760406 -0.649448 0
    outer loop
      vertex 10.2979 35.4021 0
      vertex 10.1247 35.1992 1.3
      vertex 10.1247 35.1992 0
    endloop
  endfacet
  facet normal 0.0784643 -0.996917 0
    outer loop
      vertex 11.2341 35.8791 0
      vertex 11.5 35.9 1.3
      vertex 11.2341 35.8791 1.3
    endloop
  endfacet
  facet normal 0.0784643 -0.996917 0
    outer loop
      vertex 11.5 35.9 1.3
      vertex 11.2341 35.8791 0
      vertex 11.5 35.9 0
    endloop
  endfacet
  facet normal 0.64945 -0.760404 0
    outer loop
      vertex 10.2979 35.4021 0
      vertex 10.5008 35.5753 1.3
      vertex 10.2979 35.4021 1.3
    endloop
  endfacet
  facet normal 0.64945 -0.760404 0
    outer loop
      vertex 10.5008 35.5753 1.3
      vertex 10.2979 35.4021 0
      vertex 10.5008 35.5753 0
    endloop
  endfacet
  facet normal -0.996917 -0.0784611 0
    outer loop
      vertex 13.2 34.2 0
      vertex 13.1791 34.4659 1.3
      vertex 13.1791 34.4659 0
    endloop
  endfacet
  facet normal -0.996917 -0.0784611 0
    outer loop
      vertex 13.1791 34.4659 1.3
      vertex 13.2 34.2 0
      vertex 13.2 34.2 1.3
    endloop
  endfacet
  facet normal -0.522498 0.852641 0
    outer loop
      vertex 12.4992 32.8247 0
      vertex 12.2718 32.6853 1.3
      vertex 12.4992 32.8247 1.3
    endloop
  endfacet
  facet normal -0.522498 0.852641 0
    outer loop
      vertex 12.2718 32.6853 1.3
      vertex 12.4992 32.8247 0
      vertex 12.2718 32.6853 0
    endloop
  endfacet
  facet normal -0.760406 -0.649448 0
    outer loop
      vertex 12.8753 35.1992 0
      vertex 12.7021 35.4021 1.3
      vertex 12.7021 35.4021 0
    endloop
  endfacet
  facet normal -0.760406 -0.649448 0
    outer loop
      vertex 12.7021 35.4021 1.3
      vertex 12.8753 35.1992 0
      vertex 12.8753 35.1992 1.3
    endloop
  endfacet
  facet normal 0.996917 -0.0784611 0
    outer loop
      vertex 9.8 34.2 1.3
      vertex 9.82093 34.4659 0
      vertex 9.82093 34.4659 1.3
    endloop
  endfacet
  facet normal 0.996917 -0.0784611 0
    outer loop
      vertex 9.82093 34.4659 0
      vertex 9.8 34.2 1.3
      vertex 9.8 34.2 0
    endloop
  endfacet
  facet normal 0.92388 -0.382682 0
    outer loop
      vertex 9.8832 34.7253 1.3
      vertex 9.98529 34.9718 0
      vertex 9.98529 34.9718 1.3
    endloop
  endfacet
  facet normal 0.92388 -0.382682 0
    outer loop
      vertex 9.98529 34.9718 0
      vertex 9.8832 34.7253 1.3
      vertex 9.8832 34.7253 0
    endloop
  endfacet
  facet normal 0.522498 -0.852641 0
    outer loop
      vertex 10.5008 35.5753 0
      vertex 10.7282 35.7147 1.3
      vertex 10.5008 35.5753 1.3
    endloop
  endfacet
  facet normal 0.522498 -0.852641 0
    outer loop
      vertex 10.7282 35.7147 1.3
      vertex 10.5008 35.5753 0
      vertex 10.7282 35.7147 0
    endloop
  endfacet
  facet normal 0.382684 -0.923879 0
    outer loop
      vertex 10.7282 35.7147 0
      vertex 10.9747 35.8168 1.3
      vertex 10.7282 35.7147 1.3
    endloop
  endfacet
  facet normal 0.382684 -0.923879 0
    outer loop
      vertex 10.9747 35.8168 1.3
      vertex 10.7282 35.7147 0
      vertex 10.9747 35.8168 0
    endloop
  endfacet
  facet normal -0.97237 0.233447 0
    outer loop
      vertex 13.1168 33.6747 0
      vertex 13.1791 33.9341 1.3
      vertex 13.1791 33.9341 0
    endloop
  endfacet
  facet normal -0.97237 0.233447 0
    outer loop
      vertex 13.1791 33.9341 1.3
      vertex 13.1168 33.6747 0
      vertex 13.1168 33.6747 1.3
    endloop
  endfacet
  facet normal -0.85264 0.522499 0
    outer loop
      vertex 12.8753 33.2008 0
      vertex 13.0147 33.4282 1.3
      vertex 13.0147 33.4282 0
    endloop
  endfacet
  facet normal -0.85264 0.522499 0
    outer loop
      vertex 13.0147 33.4282 1.3
      vertex 12.8753 33.2008 0
      vertex 12.8753 33.2008 1.3
    endloop
  endfacet
  facet normal 0.996917 0.07846 0
    outer loop
      vertex 9.82093 33.9341 1.3
      vertex 9.8 34.2 0
      vertex 9.8 34.2 1.3
    endloop
  endfacet
  facet normal 0.996917 0.07846 0
    outer loop
      vertex 9.8 34.2 0
      vertex 9.82093 33.9341 1.3
      vertex 9.82093 33.9341 0
    endloop
  endfacet
  facet normal 0.97237 0.233447 0
    outer loop
      vertex 9.8832 33.6747 1.3
      vertex 9.82093 33.9341 0
      vertex 9.82093 33.9341 1.3
    endloop
  endfacet
  facet normal 0.97237 0.233447 0
    outer loop
      vertex 9.82093 33.9341 0
      vertex 9.8832 33.6747 1.3
      vertex 9.8832 33.6747 0
    endloop
  endfacet
  facet normal -0.233448 0.972369 0
    outer loop
      vertex 12.0253 32.5832 0
      vertex 11.7659 32.5209 1.3
      vertex 12.0253 32.5832 1.3
    endloop
  endfacet
  facet normal -0.233448 0.972369 0
    outer loop
      vertex 11.7659 32.5209 1.3
      vertex 12.0253 32.5832 0
      vertex 11.7659 32.5209 0
    endloop
  endfacet
  facet normal -0.382684 0.923879 0
    outer loop
      vertex 12.2718 32.6853 0
      vertex 12.0253 32.5832 1.3
      vertex 12.2718 32.6853 1.3
    endloop
  endfacet
  facet normal -0.382684 0.923879 0
    outer loop
      vertex 12.0253 32.5832 1.3
      vertex 12.2718 32.6853 0
      vertex 12.0253 32.5832 0
    endloop
  endfacet
  facet normal -0.996917 0.07846 0
    outer loop
      vertex 13.1791 33.9341 0
      vertex 13.2 34.2 1.3
      vertex 13.2 34.2 0
    endloop
  endfacet
  facet normal -0.996917 0.07846 0
    outer loop
      vertex 13.2 34.2 1.3
      vertex 13.1791 33.9341 0
      vertex 13.1791 33.9341 1.3
    endloop
  endfacet
  facet normal -0.92388 0.382682 0
    outer loop
      vertex 13.0147 33.4282 0
      vertex 13.1168 33.6747 1.3
      vertex 13.1168 33.6747 0
    endloop
  endfacet
  facet normal -0.92388 0.382682 0
    outer loop
      vertex 13.1168 33.6747 1.3
      vertex 13.0147 33.4282 0
      vertex 13.0147 33.4282 1.3
    endloop
  endfacet
  facet normal 0.233448 0.972369 -0
    outer loop
      vertex 11.2341 32.5209 0
      vertex 10.9747 32.5832 1.3
      vertex 11.2341 32.5209 1.3
    endloop
  endfacet
  facet normal 0.233448 0.972369 0
    outer loop
      vertex 10.9747 32.5832 1.3
      vertex 11.2341 32.5209 0
      vertex 10.9747 32.5832 0
    endloop
  endfacet
  facet normal 0.0784501 0.996918 -0
    outer loop
      vertex 11.5 32.5 0
      vertex 11.2341 32.5209 1.3
      vertex 11.5 32.5 1.3
    endloop
  endfacet
  facet normal 0.0784501 0.996918 0
    outer loop
      vertex 11.2341 32.5209 1.3
      vertex 11.5 32.5 0
      vertex 11.2341 32.5209 0
    endloop
  endfacet
  facet normal 0.760406 0.649448 0
    outer loop
      vertex 10.2979 32.9979 1.3
      vertex 10.1247 33.2008 0
      vertex 10.1247 33.2008 1.3
    endloop
  endfacet
  facet normal 0.760406 0.649448 0
    outer loop
      vertex 10.1247 33.2008 0
      vertex 10.2979 32.9979 1.3
      vertex 10.2979 32.9979 0
    endloop
  endfacet
  facet normal -0.760406 0.649448 0
    outer loop
      vertex 12.7021 32.9979 0
      vertex 12.8753 33.2008 1.3
      vertex 12.8753 33.2008 0
    endloop
  endfacet
  facet normal -0.760406 0.649448 0
    outer loop
      vertex 12.8753 33.2008 1.3
      vertex 12.7021 32.9979 0
      vertex 12.7021 32.9979 1.3
    endloop
  endfacet
  facet normal 0.522498 0.852641 -0
    outer loop
      vertex 10.7282 32.6853 0
      vertex 10.5008 32.8247 1.3
      vertex 10.7282 32.6853 1.3
    endloop
  endfacet
  facet normal 0.522498 0.852641 0
    outer loop
      vertex 10.5008 32.8247 1.3
      vertex 10.7282 32.6853 0
      vertex 10.5008 32.8247 0
    endloop
  endfacet
  facet normal 0.382684 0.923879 -0
    outer loop
      vertex 10.9747 32.5832 0
      vertex 10.7282 32.6853 1.3
      vertex 10.9747 32.5832 1.3
    endloop
  endfacet
  facet normal 0.382684 0.923879 0
    outer loop
      vertex 10.7282 32.6853 1.3
      vertex 10.9747 32.5832 0
      vertex 10.7282 32.6853 0
    endloop
  endfacet
  facet normal -0.0784504 0.996918 0
    outer loop
      vertex 11.7659 32.5209 0
      vertex 11.5 32.5 1.3
      vertex 11.7659 32.5209 1.3
    endloop
  endfacet
  facet normal -0.0784504 0.996918 0
    outer loop
      vertex 11.5 32.5 1.3
      vertex 11.7659 32.5209 0
      vertex 11.5 32.5 0
    endloop
  endfacet
  facet normal 0.92388 0.382682 0
    outer loop
      vertex 9.98529 33.4282 1.3
      vertex 9.8832 33.6747 0
      vertex 9.8832 33.6747 1.3
    endloop
  endfacet
  facet normal 0.92388 0.382682 0
    outer loop
      vertex 9.8832 33.6747 0
      vertex 9.98529 33.4282 1.3
      vertex 9.98529 33.4282 0
    endloop
  endfacet
  facet normal 0.85264 0.522499 0
    outer loop
      vertex 10.1247 33.2008 1.3
      vertex 9.98529 33.4282 0
      vertex 9.98529 33.4282 1.3
    endloop
  endfacet
  facet normal 0.85264 0.522499 0
    outer loop
      vertex 9.98529 33.4282 0
      vertex 10.1247 33.2008 1.3
      vertex 10.1247 33.2008 0
    endloop
  endfacet
  facet normal -0.64945 0.760404 0
    outer loop
      vertex 12.7021 32.9979 0
      vertex 12.4992 32.8247 1.3
      vertex 12.7021 32.9979 1.3
    endloop
  endfacet
  facet normal -0.64945 0.760404 0
    outer loop
      vertex 12.4992 32.8247 1.3
      vertex 12.7021 32.9979 0
      vertex 12.4992 32.8247 0
    endloop
  endfacet
  facet normal 0.64945 0.760404 -0
    outer loop
      vertex 10.5008 32.8247 0
      vertex 10.2979 32.9979 1.3
      vertex 10.5008 32.8247 1.3
    endloop
  endfacet
  facet normal 0.64945 0.760404 0
    outer loop
      vertex 10.2979 32.9979 1.3
      vertex 10.5008 32.8247 0
      vertex 10.2979 32.9979 0
    endloop
  endfacet
  facet normal 0.996918 0.0784493 0
    outer loop
      vertex 101.781 33.9341 1.3
      vertex 101.76 34.2 0
      vertex 101.76 34.2 1.3
    endloop
  endfacet
  facet normal 0.996918 0.0784493 0
    outer loop
      vertex 101.76 34.2 0
      vertex 101.781 33.9341 1.3
      vertex 101.781 33.9341 0
    endloop
  endfacet
  facet normal -0.0784504 0.996918 0
    outer loop
      vertex 103.726 32.5209 0
      vertex 103.46 32.5 1.3
      vertex 103.726 32.5209 1.3
    endloop
  endfacet
  facet normal -0.0784504 0.996918 0
    outer loop
      vertex 103.46 32.5 1.3
      vertex 103.726 32.5209 0
      vertex 103.46 32.5 0
    endloop
  endfacet
  facet normal -0.0784646 -0.996917 0
    outer loop
      vertex 103.46 35.9 0
      vertex 103.726 35.8791 1.3
      vertex 103.46 35.9 1.3
    endloop
  endfacet
  facet normal -0.0784646 -0.996917 -0
    outer loop
      vertex 103.726 35.8791 1.3
      vertex 103.46 35.9 0
      vertex 103.726 35.8791 0
    endloop
  endfacet
  facet normal -0.760404 -0.64945 0
    outer loop
      vertex 104.835 35.1992 0
      vertex 104.662 35.4021 1.3
      vertex 104.662 35.4021 0
    endloop
  endfacet
  facet normal -0.760404 -0.64945 0
    outer loop
      vertex 104.662 35.4021 1.3
      vertex 104.835 35.1992 0
      vertex 104.835 35.1992 1.3
    endloop
  endfacet
  facet normal -0.649457 0.760398 0
    outer loop
      vertex 104.662 32.9979 0
      vertex 104.459 32.8247 1.3
      vertex 104.662 32.9979 1.3
    endloop
  endfacet
  facet normal -0.649457 0.760398 0
    outer loop
      vertex 104.459 32.8247 1.3
      vertex 104.662 32.9979 0
      vertex 104.459 32.8247 0
    endloop
  endfacet
  facet normal 0.649457 -0.760398 0
    outer loop
      vertex 102.258 35.4021 0
      vertex 102.461 35.5753 1.3
      vertex 102.258 35.4021 1.3
    endloop
  endfacet
  facet normal 0.649457 -0.760398 0
    outer loop
      vertex 102.461 35.5753 1.3
      vertex 102.258 35.4021 0
      vertex 102.461 35.5753 0
    endloop
  endfacet
  facet normal -0.923875 -0.382694 0
    outer loop
      vertex 105.077 34.7253 0
      vertex 104.975 34.9718 1.3
      vertex 104.975 34.9718 0
    endloop
  endfacet
  facet normal -0.923875 -0.382694 0
    outer loop
      vertex 104.975 34.9718 1.3
      vertex 105.077 34.7253 0
      vertex 105.077 34.7253 1.3
    endloop
  endfacet
  facet normal 0.972372 0.233437 0
    outer loop
      vertex 101.843 33.6747 1.3
      vertex 101.781 33.9341 0
      vertex 101.781 33.9341 1.3
    endloop
  endfacet
  facet normal 0.972372 0.233437 0
    outer loop
      vertex 101.781 33.9341 0
      vertex 101.843 33.6747 1.3
      vertex 101.843 33.6747 0
    endloop
  endfacet
  facet normal 0.760404 0.64945 0
    outer loop
      vertex 102.258 32.9979 1.3
      vertex 102.085 33.2008 0
      vertex 102.085 33.2008 1.3
    endloop
  endfacet
  facet normal 0.760404 0.64945 0
    outer loop
      vertex 102.085 33.2008 0
      vertex 102.258 32.9979 1.3
      vertex 102.258 32.9979 0
    endloop
  endfacet
  facet normal 0.233447 0.97237 -0
    outer loop
      vertex 103.194 32.5209 0
      vertex 102.935 32.5832 1.3
      vertex 103.194 32.5209 1.3
    endloop
  endfacet
  facet normal 0.233447 0.97237 0
    outer loop
      vertex 102.935 32.5832 1.3
      vertex 103.194 32.5209 0
      vertex 102.935 32.5832 0
    endloop
  endfacet
  facet normal 0.52249 0.852646 -0
    outer loop
      vertex 102.688 32.6853 0
      vertex 102.461 32.8247 1.3
      vertex 102.688 32.6853 1.3
    endloop
  endfacet
  facet normal 0.52249 0.852646 0
    outer loop
      vertex 102.461 32.8247 1.3
      vertex 102.688 32.6853 0
      vertex 102.461 32.8247 0
    endloop
  endfacet
  facet normal -0.852642 0.522496 0
    outer loop
      vertex 104.835 33.2008 0
      vertex 104.975 33.4282 1.3
      vertex 104.975 33.4282 0
    endloop
  endfacet
  facet normal -0.852642 0.522496 0
    outer loop
      vertex 104.975 33.4282 1.3
      vertex 104.835 33.2008 0
      vertex 104.835 33.2008 1.3
    endloop
  endfacet
  facet normal -0.760404 0.64945 0
    outer loop
      vertex 104.662 32.9979 0
      vertex 104.835 33.2008 1.3
      vertex 104.835 33.2008 0
    endloop
  endfacet
  facet normal -0.760404 0.64945 0
    outer loop
      vertex 104.835 33.2008 1.3
      vertex 104.662 32.9979 0
      vertex 104.662 32.9979 1.3
    endloop
  endfacet
  facet normal -0.972372 0.233437 0
    outer loop
      vertex 105.077 33.6747 0
      vertex 105.139 33.9341 1.3
      vertex 105.139 33.9341 0
    endloop
  endfacet
  facet normal -0.972372 0.233437 0
    outer loop
      vertex 105.139 33.9341 1.3
      vertex 105.077 33.6747 0
      vertex 105.077 33.6747 1.3
    endloop
  endfacet
  facet normal -0.52249 0.852646 0
    outer loop
      vertex 104.459 32.8247 0
      vertex 104.232 32.6853 1.3
      vertex 104.459 32.8247 1.3
    endloop
  endfacet
  facet normal -0.52249 0.852646 0
    outer loop
      vertex 104.232 32.6853 1.3
      vertex 104.459 32.8247 0
      vertex 104.232 32.6853 0
    endloop
  endfacet
  facet normal -0.233447 0.97237 0
    outer loop
      vertex 103.985 32.5832 0
      vertex 103.726 32.5209 1.3
      vertex 103.985 32.5832 1.3
    endloop
  endfacet
  facet normal -0.233447 0.97237 0
    outer loop
      vertex 103.726 32.5209 1.3
      vertex 103.985 32.5832 0
      vertex 103.726 32.5209 0
    endloop
  endfacet
  facet normal 0.233447 -0.97237 0
    outer loop
      vertex 102.935 35.8168 0
      vertex 103.194 35.8791 1.3
      vertex 102.935 35.8168 1.3
    endloop
  endfacet
  facet normal 0.233447 -0.97237 0
    outer loop
      vertex 103.194 35.8791 1.3
      vertex 102.935 35.8168 0
      vertex 103.194 35.8791 0
    endloop
  endfacet
  facet normal 0.0784646 -0.996917 0
    outer loop
      vertex 103.194 35.8791 0
      vertex 103.46 35.9 1.3
      vertex 103.194 35.8791 1.3
    endloop
  endfacet
  facet normal 0.0784646 -0.996917 0
    outer loop
      vertex 103.46 35.9 1.3
      vertex 103.194 35.8791 0
      vertex 103.46 35.9 0
    endloop
  endfacet
  facet normal 0.852642 -0.522496 0
    outer loop
      vertex 101.945 34.9718 1.3
      vertex 102.085 35.1992 0
      vertex 102.085 35.1992 1.3
    endloop
  endfacet
  facet normal 0.852642 -0.522496 0
    outer loop
      vertex 102.085 35.1992 0
      vertex 101.945 34.9718 1.3
      vertex 101.945 34.9718 0
    endloop
  endfacet
  facet normal -0.649457 -0.760398 0
    outer loop
      vertex 104.459 35.5753 0
      vertex 104.662 35.4021 1.3
      vertex 104.459 35.5753 1.3
    endloop
  endfacet
  facet normal -0.649457 -0.760398 -0
    outer loop
      vertex 104.662 35.4021 1.3
      vertex 104.459 35.5753 0
      vertex 104.662 35.4021 0
    endloop
  endfacet
  facet normal -0.233447 -0.97237 0
    outer loop
      vertex 103.726 35.8791 0
      vertex 103.985 35.8168 1.3
      vertex 103.726 35.8791 1.3
    endloop
  endfacet
  facet normal -0.233447 -0.97237 -0
    outer loop
      vertex 103.985 35.8168 1.3
      vertex 103.726 35.8791 0
      vertex 103.985 35.8168 0
    endloop
  endfacet
  facet normal -0.852642 -0.522496 0
    outer loop
      vertex 104.975 34.9718 0
      vertex 104.835 35.1992 1.3
      vertex 104.835 35.1992 0
    endloop
  endfacet
  facet normal -0.852642 -0.522496 0
    outer loop
      vertex 104.835 35.1992 1.3
      vertex 104.975 34.9718 0
      vertex 104.975 34.9718 1.3
    endloop
  endfacet
  facet normal -0.972372 -0.233437 0
    outer loop
      vertex 105.139 34.4659 0
      vertex 105.077 34.7253 1.3
      vertex 105.077 34.7253 0
    endloop
  endfacet
  facet normal -0.972372 -0.233437 0
    outer loop
      vertex 105.077 34.7253 1.3
      vertex 105.139 34.4659 0
      vertex 105.139 34.4659 1.3
    endloop
  endfacet
  facet normal 0.923875 0.382694 0
    outer loop
      vertex 101.945 33.4282 1.3
      vertex 101.843 33.6747 0
      vertex 101.843 33.6747 1.3
    endloop
  endfacet
  facet normal 0.923875 0.382694 0
    outer loop
      vertex 101.843 33.6747 0
      vertex 101.945 33.4282 1.3
      vertex 101.945 33.4282 0
    endloop
  endfacet
  facet normal 0.649457 0.760398 -0
    outer loop
      vertex 102.461 32.8247 0
      vertex 102.258 32.9979 1.3
      vertex 102.461 32.8247 1.3
    endloop
  endfacet
  facet normal 0.649457 0.760398 0
    outer loop
      vertex 102.258 32.9979 1.3
      vertex 102.461 32.8247 0
      vertex 102.258 32.9979 0
    endloop
  endfacet
  facet normal 0.0784504 0.996918 -0
    outer loop
      vertex 103.46 32.5 0
      vertex 103.194 32.5209 1.3
      vertex 103.46 32.5 1.3
    endloop
  endfacet
  facet normal 0.0784504 0.996918 0
    outer loop
      vertex 103.194 32.5209 1.3
      vertex 103.46 32.5 0
      vertex 103.194 32.5209 0
    endloop
  endfacet
  facet normal 0.382687 0.923878 -0
    outer loop
      vertex 102.935 32.5832 0
      vertex 102.688 32.6853 1.3
      vertex 102.935 32.5832 1.3
    endloop
  endfacet
  facet normal 0.382687 0.923878 0
    outer loop
      vertex 102.688 32.6853 1.3
      vertex 102.935 32.5832 0
      vertex 102.688 32.6853 0
    endloop
  endfacet
  facet normal -0.996916 0.0784777 0
    outer loop
      vertex 105.139 33.9341 0
      vertex 105.16 34.2 1.3
      vertex 105.16 34.2 0
    endloop
  endfacet
  facet normal -0.996916 0.0784777 0
    outer loop
      vertex 105.16 34.2 1.3
      vertex 105.139 33.9341 0
      vertex 105.139 33.9341 1.3
    endloop
  endfacet
  facet normal -0.382687 0.923878 0
    outer loop
      vertex 104.232 32.6853 0
      vertex 103.985 32.5832 1.3
      vertex 104.232 32.6853 1.3
    endloop
  endfacet
  facet normal -0.382687 0.923878 0
    outer loop
      vertex 103.985 32.5832 1.3
      vertex 104.232 32.6853 0
      vertex 103.985 32.5832 0
    endloop
  endfacet
  facet normal 0.996918 -0.0784504 0
    outer loop
      vertex 101.76 34.2 1.3
      vertex 101.781 34.4659 0
      vertex 101.781 34.4659 1.3
    endloop
  endfacet
  facet normal 0.996918 -0.0784504 0
    outer loop
      vertex 101.781 34.4659 0
      vertex 101.76 34.2 1.3
      vertex 101.76 34.2 0
    endloop
  endfacet
  facet normal 0.382687 -0.923878 0
    outer loop
      vertex 102.688 35.7147 0
      vertex 102.935 35.8168 1.3
      vertex 102.688 35.7147 1.3
    endloop
  endfacet
  facet normal 0.382687 -0.923878 0
    outer loop
      vertex 102.935 35.8168 1.3
      vertex 102.688 35.7147 0
      vertex 102.935 35.8168 0
    endloop
  endfacet
  facet normal 0.52249 -0.852646 0
    outer loop
      vertex 102.461 35.5753 0
      vertex 102.688 35.7147 1.3
      vertex 102.461 35.5753 1.3
    endloop
  endfacet
  facet normal 0.52249 -0.852646 0
    outer loop
      vertex 102.688 35.7147 1.3
      vertex 102.461 35.5753 0
      vertex 102.688 35.7147 0
    endloop
  endfacet
  facet normal 0.923875 -0.382694 0
    outer loop
      vertex 101.843 34.7253 1.3
      vertex 101.945 34.9718 0
      vertex 101.945 34.9718 1.3
    endloop
  endfacet
  facet normal 0.923875 -0.382694 0
    outer loop
      vertex 101.945 34.9718 0
      vertex 101.843 34.7253 1.3
      vertex 101.843 34.7253 0
    endloop
  endfacet
  facet normal 0.760404 -0.64945 0
    outer loop
      vertex 102.085 35.1992 1.3
      vertex 102.258 35.4021 0
      vertex 102.258 35.4021 1.3
    endloop
  endfacet
  facet normal 0.760404 -0.64945 0
    outer loop
      vertex 102.258 35.4021 0
      vertex 102.085 35.1992 1.3
      vertex 102.085 35.1992 0
    endloop
  endfacet
  facet normal -0.52249 -0.852646 0
    outer loop
      vertex 104.232 35.7147 0
      vertex 104.459 35.5753 1.3
      vertex 104.232 35.7147 1.3
    endloop
  endfacet
  facet normal -0.52249 -0.852646 -0
    outer loop
      vertex 104.459 35.5753 1.3
      vertex 104.232 35.7147 0
      vertex 104.459 35.5753 0
    endloop
  endfacet
  facet normal -0.382687 -0.923878 0
    outer loop
      vertex 103.985 35.8168 0
      vertex 104.232 35.7147 1.3
      vertex 103.985 35.8168 1.3
    endloop
  endfacet
  facet normal -0.382687 -0.923878 -0
    outer loop
      vertex 104.232 35.7147 1.3
      vertex 103.985 35.8168 0
      vertex 104.232 35.7147 0
    endloop
  endfacet
  facet normal -0.996916 -0.0784788 0
    outer loop
      vertex 105.16 34.2 0
      vertex 105.139 34.4659 1.3
      vertex 105.139 34.4659 0
    endloop
  endfacet
  facet normal -0.996916 -0.0784788 0
    outer loop
      vertex 105.139 34.4659 1.3
      vertex 105.16 34.2 0
      vertex 105.16 34.2 1.3
    endloop
  endfacet
  facet normal 0.852642 0.522496 0
    outer loop
      vertex 102.085 33.2008 1.3
      vertex 101.945 33.4282 0
      vertex 101.945 33.4282 1.3
    endloop
  endfacet
  facet normal 0.852642 0.522496 0
    outer loop
      vertex 101.945 33.4282 0
      vertex 102.085 33.2008 1.3
      vertex 102.085 33.2008 0
    endloop
  endfacet
  facet normal -0.923875 0.382694 0
    outer loop
      vertex 104.975 33.4282 0
      vertex 105.077 33.6747 1.3
      vertex 105.077 33.6747 0
    endloop
  endfacet
  facet normal -0.923875 0.382694 0
    outer loop
      vertex 105.077 33.6747 1.3
      vertex 104.975 33.4282 0
      vertex 104.975 33.4282 1.3
    endloop
  endfacet
  facet normal 0.972372 -0.233437 0
    outer loop
      vertex 101.781 34.4659 1.3
      vertex 101.843 34.7253 0
      vertex 101.843 34.7253 1.3
    endloop
  endfacet
  facet normal 0.972372 -0.233437 0
    outer loop
      vertex 101.843 34.7253 0
      vertex 101.781 34.4659 1.3
      vertex 101.781 34.4659 0
    endloop
  endfacet
  facet normal 1 -0 0
    outer loop
      vertex 24.58 15.6 1.3
      vertex 24.58 29.6 0
      vertex 24.58 29.6 1.3
    endloop
  endfacet
  facet normal 1 0 0
    outer loop
      vertex 24.58 29.6 0
      vertex 24.58 15.6 1.3
      vertex 24.58 15.6 0
    endloop
  endfacet
  facet normal -1 0 0
    outer loop
      vertex 39.58 15.6 0
      vertex 39.58 29.6 1.3
      vertex 39.58 29.6 0
    endloop
  endfacet
  facet normal -1 -0 0
    outer loop
      vertex 39.58 29.6 1.3
      vertex 39.58 15.6 0
      vertex 39.58 15.6 1.3
    endloop
  endfacet
  facet normal 0 1 -0
    outer loop
      vertex 39.58 15.6 0
      vertex 24.58 15.6 1.3
      vertex 39.58 15.6 1.3
    endloop
  endfacet
  facet normal 0 1 0
    outer loop
      vertex 24.58 15.6 1.3
      vertex 39.58 15.6 0
      vertex 24.58 15.6 0
    endloop
  endfacet
  facet normal 0 -1 0
    outer loop
      vertex 24.58 29.6 0
      vertex 39.58 29.6 1.3
      vertex 24.58 29.6 1.3
    endloop
  endfacet
  facet normal 0 -1 -0
    outer loop
      vertex 39.58 29.6 1.3
      vertex 24.58 29.6 0
      vertex 39.58 29.6 0
    endloop
  endfacet
  facet normal 1 -0 0
    outer loop
      vertex 62.8 15.6 1.3
      vertex 62.8 57.6 0
      vertex 62.8 57.6 1.3
    endloop
  endfacet
  facet normal 1 0 0
    outer loop
      vertex 62.8 57.6 0
      vertex 62.8 15.6 1.3
      vertex 62.8 15.6 0
    endloop
  endfacet
  facet normal -1 0 0
    outer loop
      vertex 92.8 15.6 0
      vertex 92.8 57.6 1.3
      vertex 92.8 57.6 0
    endloop
  endfacet
  facet normal -1 -0 0
    outer loop
      vertex 92.8 57.6 1.3
      vertex 92.8 15.6 0
      vertex 92.8 15.6 1.3
    endloop
  endfacet
  facet normal 0 1 -0
    outer loop
      vertex 92.8 15.6 0
      vertex 62.8 15.6 1.3
      vertex 92.8 15.6 1.3
    endloop
  endfacet
  facet normal 0 1 0
    outer loop
      vertex 62.8 15.6 1.3
      vertex 92.8 15.6 0
      vertex 62.8 15.6 0
    endloop
  endfacet
  facet normal 0 -1 0
    outer loop
      vertex 62.8 57.6 0
      vertex 92.8 57.6 1.3
      vertex 62.8 57.6 1.3
    endloop
  endfacet
  facet normal 0 -1 -0
    outer loop
      vertex 92.8 57.6 1.3
      vertex 62.8 57.6 0
      vertex 92.8 57.6 0
    endloop
  endfacet
endsolid OpenSCAD_Model
