solid OpenSCAD_Model
  facet normal -0.97237 0.233446 0
    outer loop
      vertex 1.86156 62.7822 0
      vertex 2.04472 63.5451 1.3
      vertex 2.04472 63.5451 0
    endloop
  endfacet
  facet normal -0.97237 0.233446 0
    outer loop
      vertex 2.04472 63.5451 1.3
      vertex 1.86156 62.7822 0
      vertex 1.86156 62.7822 1.3
    endloop
  endfacet
  facet normal -0.996917 0.0784596 0
    outer loop
      vertex 1.8 62 0
      vertex 1.86156 62.7822 1.3
      vertex 1.86156 62.7822 0
    endloop
  endfacet
  facet normal -0.996917 0.0784596 0
    outer loop
      vertex 1.86156 62.7822 1.3
      vertex 1.8 62 0
      vertex 1.8 62 1.3
    endloop
  endfacet
  facet normal 0.996918 0.0784535 0
    outer loop
      vertex 113.16 62 1.3
      vertex 113.098 62.7822 0
      vertex 113.098 62.7822 1.3
    endloop
  endfacet
  facet normal 0.996918 0.0784535 0
    outer loop
      vertex 113.098 62.7822 0
      vertex 113.16 62 1.3
      vertex 113.16 62 0
    endloop
  endfacet
  facet normal -0.760406 -0.649448 0
    outer loop
      vertex 3.26447 2.86447 0
      vertex 2.75491 3.46107 1.3
      vertex 2.75491 3.46107 0
    endloop
  endfacet
  facet normal -0.760406 -0.649448 0
    outer loop
      vertex 2.75491 3.46107 1.3
      vertex 3.26447 2.86447 0
      vertex 3.26447 2.86447 1.3
    endloop
  endfacet
  facet normal 0 0 1
    outer loop
      vertex 108.16 67 1.3
      vertex 113.16 62 1.3
      vertex 113.098 62.7822 1.3
    endloop
  endfacet
  facet normal 0 0 1
    outer loop
      vertex 113.16 62 1.3
      vertex 104.76 34.2 1.3
      vertex 113.16 6.4 1.3
    endloop
  endfacet
  facet normal 0 0 1
    outer loop
      vertex 108.16 67 1.3
      vertex 113.098 62.7822 1.3
      vertex 112.915 63.5451 1.3
    endloop
  endfacet
  facet normal -0 0 1
    outer loop
      vertex 104.739 33.9341 1.3
      vertex 113.16 6.4 1.3
      vertex 104.76 34.2 1.3
    endloop
  endfacet
  facet normal 0 0 1
    outer loop
      vertex 108.16 67 1.3
      vertex 112.915 63.5451 1.3
      vertex 112.615 64.27 1.3
    endloop
  endfacet
  facet normal -0 0 1
    outer loop
      vertex 104.677 33.6747 1.3
      vertex 113.16 6.4 1.3
      vertex 104.739 33.9341 1.3
    endloop
  endfacet
  facet normal 0 0 1
    outer loop
      vertex 108.16 67 1.3
      vertex 112.615 64.27 1.3
      vertex 112.205 64.9389 1.3
    endloop
  endfacet
  facet normal -0 0 1
    outer loop
      vertex 104.575 33.4282 1.3
      vertex 113.16 6.4 1.3
      vertex 104.677 33.6747 1.3
    endloop
  endfacet
  facet normal 0 0 1
    outer loop
      vertex 108.16 67 1.3
      vertex 112.205 64.9389 1.3
      vertex 111.696 65.5355 1.3
    endloop
  endfacet
  facet normal -0 0 1
    outer loop
      vertex 104.435 33.2008 1.3
      vertex 113.16 6.4 1.3
      vertex 104.575 33.4282 1.3
    endloop
  endfacet
  facet normal 0 0 1
    outer loop
      vertex 108.16 67 1.3
      vertex 111.696 65.5355 1.3
      vertex 111.099 66.0451 1.3
    endloop
  endfacet
  facet normal -0 0 1
    outer loop
      vertex 104.262 32.9979 1.3
      vertex 113.16 6.4 1.3
      vertex 104.435 33.2008 1.3
    endloop
  endfacet
  facet normal 0 0 1
    outer loop
      vertex 108.16 67 1.3
      vertex 111.099 66.0451 1.3
      vertex 110.43 66.455 1.3
    endloop
  endfacet
  facet normal -0 0 1
    outer loop
      vertex 104.059 32.8247 1.3
      vertex 113.16 6.4 1.3
      vertex 104.262 32.9979 1.3
    endloop
  endfacet
  facet normal 0 0 1
    outer loop
      vertex 108.16 67 1.3
      vertex 110.43 66.455 1.3
      vertex 109.705 66.7553 1.3
    endloop
  endfacet
  facet normal -0 0 1
    outer loop
      vertex 103.832 32.6853 1.3
      vertex 113.16 6.4 1.3
      vertex 104.059 32.8247 1.3
    endloop
  endfacet
  facet normal 0 0 1
    outer loop
      vertex 108.16 67 1.3
      vertex 109.705 66.7553 1.3
      vertex 108.942 66.9384 1.3
    endloop
  endfacet
  facet normal -0 0 1
    outer loop
      vertex 96.61 14.4 1.3
      vertex 113.16 6.4 1.3
      vertex 103.832 32.6853 1.3
    endloop
  endfacet
  facet normal 0 0 1
    outer loop
      vertex 113.16 62 1.3
      vertex 108.16 67 1.3
      vertex 96.61 47.4 1.3
    endloop
  endfacet
  facet normal 0 -0 1
    outer loop
      vertex 108.16 1.4 1.3
      vertex 113.16 6.4 1.3
      vertex 96.61 14.4 1.3
    endloop
  endfacet
  facet normal 0 0 1
    outer loop
      vertex 113.16 6.4 1.3
      vertex 108.16 1.4 1.3
      vertex 113.098 5.61783 1.3
    endloop
  endfacet
  facet normal 0 0 1
    outer loop
      vertex 113.16 62 1.3
      vertex 104.739 34.4659 1.3
      vertex 104.76 34.2 1.3
    endloop
  endfacet
  facet normal 0 0 1
    outer loop
      vertex 113.16 62 1.3
      vertex 104.677 34.7253 1.3
      vertex 104.739 34.4659 1.3
    endloop
  endfacet
  facet normal 0 0 1
    outer loop
      vertex 113.16 62 1.3
      vertex 104.575 34.9718 1.3
      vertex 104.677 34.7253 1.3
    endloop
  endfacet
  facet normal 0 0 1
    outer loop
      vertex 113.16 62 1.3
      vertex 104.435 35.1992 1.3
      vertex 104.575 34.9718 1.3
    endloop
  endfacet
  facet normal 0 0 1
    outer loop
      vertex 113.16 62 1.3
      vertex 104.262 35.4021 1.3
      vertex 104.435 35.1992 1.3
    endloop
  endfacet
  facet normal 0 0 1
    outer loop
      vertex 113.16 62 1.3
      vertex 104.059 35.5753 1.3
      vertex 104.262 35.4021 1.3
    endloop
  endfacet
  facet normal 0 0 1
    outer loop
      vertex 113.16 62 1.3
      vertex 96.61 47.4 1.3
      vertex 103.832 35.7147 1.3
    endloop
  endfacet
  facet normal 0 0 1
    outer loop
      vertex 113.16 62 1.3
      vertex 103.832 35.7147 1.3
      vertex 104.059 35.5753 1.3
    endloop
  endfacet
  facet normal 0 0 1
    outer loop
      vertex 103.832 35.7147 1.3
      vertex 96.61 47.4 1.3
      vertex 103.585 35.8168 1.3
    endloop
  endfacet
  facet normal 0 0 1
    outer loop
      vertex 103.585 35.8168 1.3
      vertex 96.61 47.4 1.3
      vertex 103.326 35.8791 1.3
    endloop
  endfacet
  facet normal 0 0 1
    outer loop
      vertex 103.326 35.8791 1.3
      vertex 96.61 47.4 1.3
      vertex 103.06 35.9 1.3
    endloop
  endfacet
  facet normal 0 0 1
    outer loop
      vertex 103.06 35.9 1.3
      vertex 96.61 47.4 1.3
      vertex 102.794 35.8791 1.3
    endloop
  endfacet
  facet normal 0 0 1
    outer loop
      vertex 102.794 35.8791 1.3
      vertex 96.61 47.4 1.3
      vertex 102.535 35.8168 1.3
    endloop
  endfacet
  facet normal 0 0 1
    outer loop
      vertex 102.535 35.8168 1.3
      vertex 96.61 47.4 1.3
      vertex 102.288 35.7147 1.3
    endloop
  endfacet
  facet normal 0 0 1
    outer loop
      vertex 102.288 35.7147 1.3
      vertex 96.61 47.4 1.3
      vertex 102.061 35.5753 1.3
    endloop
  endfacet
  facet normal 0 0 1
    outer loop
      vertex 102.061 35.5753 1.3
      vertex 96.61 47.4 1.3
      vertex 101.858 35.4021 1.3
    endloop
  endfacet
  facet normal 0 0 1
    outer loop
      vertex 101.858 35.4021 1.3
      vertex 96.61 47.4 1.3
      vertex 101.685 35.1992 1.3
    endloop
  endfacet
  facet normal 0 0 1
    outer loop
      vertex 101.685 35.1992 1.3
      vertex 96.61 47.4 1.3
      vertex 101.545 34.9718 1.3
    endloop
  endfacet
  facet normal 0 0 1
    outer loop
      vertex 101.545 34.9718 1.3
      vertex 96.61 47.4 1.3
      vertex 101.443 34.7253 1.3
    endloop
  endfacet
  facet normal 0 0 1
    outer loop
      vertex 101.381 34.4659 1.3
      vertex 96.61 47.4 1.3
      vertex 101.36 34.2 1.3
    endloop
  endfacet
  facet normal 0 0 1
    outer loop
      vertex 101.443 34.7253 1.3
      vertex 96.61 47.4 1.3
      vertex 101.381 34.4659 1.3
    endloop
  endfacet
  facet normal 0 0 1
    outer loop
      vertex 108.16 67 1.3
      vertex 83.61 47.4 1.3
      vertex 96.61 47.4 1.3
    endloop
  endfacet
  facet normal 0 0 1
    outer loop
      vertex 83.61 47.4 1.3
      vertex 78.11 47.4 1.3
      vertex 83.61 14.4 1.3
    endloop
  endfacet
  facet normal 0 0 1
    outer loop
      vertex 108.16 67 1.3
      vertex 78.11 47.4 1.3
      vertex 83.61 47.4 1.3
    endloop
  endfacet
  facet normal 0 0 1
    outer loop
      vertex 108.16 67 1.3
      vertex 65.11 47.4 1.3
      vertex 78.11 47.4 1.3
    endloop
  endfacet
  facet normal 0 0 1
    outer loop
      vertex 65.11 47.4 1.3
      vertex 39.38 29.4 1.3
      vertex 65.11 14.4 1.3
    endloop
  endfacet
  facet normal 0 0 1
    outer loop
      vertex 6.8 67 1.3
      vertex 39.38 29.4 1.3
      vertex 65.11 47.4 1.3
    endloop
  endfacet
  facet normal -0 0 1
    outer loop
      vertex 6.8 67 1.3
      vertex 65.11 47.4 1.3
      vertex 108.16 67 1.3
    endloop
  endfacet
  facet normal -0 0 1
    outer loop
      vertex 13.1791 33.9341 1.3
      vertex 24.38 29.4 1.3
      vertex 13.2 34.2 1.3
    endloop
  endfacet
  facet normal 0 0 1
    outer loop
      vertex 39.38 29.4 1.3
      vertex 6.8 67 1.3
      vertex 24.38 29.4 1.3
    endloop
  endfacet
  facet normal 0 0 1
    outer loop
      vertex 24.38 29.4 1.3
      vertex 13.1791 34.4659 1.3
      vertex 13.2 34.2 1.3
    endloop
  endfacet
  facet normal 0 0 1
    outer loop
      vertex 24.38 29.4 1.3
      vertex 13.1168 34.7253 1.3
      vertex 13.1791 34.4659 1.3
    endloop
  endfacet
  facet normal 0 0 1
    outer loop
      vertex 24.38 29.4 1.3
      vertex 13.0147 34.9718 1.3
      vertex 13.1168 34.7253 1.3
    endloop
  endfacet
  facet normal -0 -0 1
    outer loop
      vertex 12.7021 35.4021 1.3
      vertex 24.38 29.4 1.3
      vertex 6.8 67 1.3
    endloop
  endfacet
  facet normal 0 0 1
    outer loop
      vertex 24.38 29.4 1.3
      vertex 12.8753 35.1992 1.3
      vertex 13.0147 34.9718 1.3
    endloop
  endfacet
  facet normal 0 0 1
    outer loop
      vertex 24.38 29.4 1.3
      vertex 12.7021 35.4021 1.3
      vertex 12.8753 35.1992 1.3
    endloop
  endfacet
  facet normal 0 0 1
    outer loop
      vertex 12.7021 35.4021 1.3
      vertex 6.8 67 1.3
      vertex 12.4992 35.5753 1.3
    endloop
  endfacet
  facet normal 0 0 1
    outer loop
      vertex 12.4992 35.5753 1.3
      vertex 6.8 67 1.3
      vertex 12.2718 35.7147 1.3
    endloop
  endfacet
  facet normal 0 0 1
    outer loop
      vertex 12.2718 35.7147 1.3
      vertex 6.8 67 1.3
      vertex 12.0253 35.8168 1.3
    endloop
  endfacet
  facet normal -0 0 1
    outer loop
      vertex 1.8 62 1.3
      vertex 12.0253 35.8168 1.3
      vertex 6.8 67 1.3
    endloop
  endfacet
  facet normal 0 0 1
    outer loop
      vertex 12.0253 35.8168 1.3
      vertex 1.8 62 1.3
      vertex 11.7659 35.8791 1.3
    endloop
  endfacet
  facet normal 0 0 1
    outer loop
      vertex 11.7659 35.8791 1.3
      vertex 1.8 62 1.3
      vertex 11.5 35.9 1.3
    endloop
  endfacet
  facet normal 0 0 1
    outer loop
      vertex 9.8832 34.7253 1.3
      vertex 1.8 62 1.3
      vertex 9.82093 34.4659 1.3
    endloop
  endfacet
  facet normal 0 0 1
    outer loop
      vertex 9.98529 34.9718 1.3
      vertex 1.8 62 1.3
      vertex 9.8832 34.7253 1.3
    endloop
  endfacet
  facet normal 0 0 1
    outer loop
      vertex 10.1247 35.1992 1.3
      vertex 1.8 62 1.3
      vertex 9.98529 34.9718 1.3
    endloop
  endfacet
  facet normal 0 0 1
    outer loop
      vertex 10.2979 35.4021 1.3
      vertex 1.8 62 1.3
      vertex 10.1247 35.1992 1.3
    endloop
  endfacet
  facet normal 0 0 1
    outer loop
      vertex 10.5008 35.5753 1.3
      vertex 1.8 62 1.3
      vertex 10.2979 35.4021 1.3
    endloop
  endfacet
  facet normal 0 0 1
    outer loop
      vertex 10.7282 35.7147 1.3
      vertex 1.8 62 1.3
      vertex 10.5008 35.5753 1.3
    endloop
  endfacet
  facet normal 0 0 1
    outer loop
      vertex 10.9747 35.8168 1.3
      vertex 1.8 62 1.3
      vertex 10.7282 35.7147 1.3
    endloop
  endfacet
  facet normal 0 0 1
    outer loop
      vertex 11.2341 35.8791 1.3
      vertex 1.8 62 1.3
      vertex 10.9747 35.8168 1.3
    endloop
  endfacet
  facet normal 0 0 1
    outer loop
      vertex 11.5 35.9 1.3
      vertex 1.8 62 1.3
      vertex 11.2341 35.8791 1.3
    endloop
  endfacet
  facet normal 0 0 1
    outer loop
      vertex 113.098 5.61783 1.3
      vertex 108.16 1.4 1.3
      vertex 112.915 4.85491 1.3
    endloop
  endfacet
  facet normal 0 0 1
    outer loop
      vertex 112.915 4.85491 1.3
      vertex 108.16 1.4 1.3
      vertex 112.615 4.13005 1.3
    endloop
  endfacet
  facet normal 0 0 1
    outer loop
      vertex 112.205 3.46107 1.3
      vertex 108.16 1.4 1.3
      vertex 111.696 2.86447 1.3
    endloop
  endfacet
  facet normal 0 0 1
    outer loop
      vertex 111.696 2.86447 1.3
      vertex 108.16 1.4 1.3
      vertex 111.099 2.35491 1.3
    endloop
  endfacet
  facet normal 0 0 1
    outer loop
      vertex 111.099 2.35491 1.3
      vertex 108.16 1.4 1.3
      vertex 110.43 1.94497 1.3
    endloop
  endfacet
  facet normal 0 0 1
    outer loop
      vertex 110.43 1.94497 1.3
      vertex 108.16 1.4 1.3
      vertex 109.705 1.64472 1.3
    endloop
  endfacet
  facet normal 0 0 1
    outer loop
      vertex 112.615 4.13005 1.3
      vertex 108.16 1.4 1.3
      vertex 112.205 3.46107 1.3
    endloop
  endfacet
  facet normal 0 0 1
    outer loop
      vertex 96.61 14.4 1.3
      vertex 103.832 32.6853 1.3
      vertex 103.585 32.5832 1.3
    endloop
  endfacet
  facet normal 0 0 1
    outer loop
      vertex 96.61 14.4 1.3
      vertex 103.585 32.5832 1.3
      vertex 103.326 32.5209 1.3
    endloop
  endfacet
  facet normal 0 0 1
    outer loop
      vertex 96.61 14.4 1.3
      vertex 103.326 32.5209 1.3
      vertex 103.06 32.5 1.3
    endloop
  endfacet
  facet normal 0 0 1
    outer loop
      vertex 96.61 14.4 1.3
      vertex 103.06 32.5 1.3
      vertex 102.794 32.5209 1.3
    endloop
  endfacet
  facet normal 0 0 1
    outer loop
      vertex 96.61 14.4 1.3
      vertex 102.794 32.5209 1.3
      vertex 102.535 32.5832 1.3
    endloop
  endfacet
  facet normal 0 0 1
    outer loop
      vertex 96.61 14.4 1.3
      vertex 102.535 32.5832 1.3
      vertex 102.288 32.6853 1.3
    endloop
  endfacet
  facet normal 0 0 1
    outer loop
      vertex 96.61 14.4 1.3
      vertex 102.288 32.6853 1.3
      vertex 102.061 32.8247 1.3
    endloop
  endfacet
  facet normal 0 0 1
    outer loop
      vertex 96.61 14.4 1.3
      vertex 102.061 32.8247 1.3
      vertex 101.858 32.9979 1.3
    endloop
  endfacet
  facet normal 0 0 1
    outer loop
      vertex 96.61 14.4 1.3
      vertex 101.858 32.9979 1.3
      vertex 101.685 33.2008 1.3
    endloop
  endfacet
  facet normal 0 0 1
    outer loop
      vertex 96.61 14.4 1.3
      vertex 101.685 33.2008 1.3
      vertex 101.545 33.4282 1.3
    endloop
  endfacet
  facet normal 0 0 1
    outer loop
      vertex 96.61 14.4 1.3
      vertex 101.545 33.4282 1.3
      vertex 101.443 33.6747 1.3
    endloop
  endfacet
  facet normal 0 0 1
    outer loop
      vertex 96.61 14.4 1.3
      vertex 101.443 33.6747 1.3
      vertex 101.381 33.9341 1.3
    endloop
  endfacet
  facet normal 0 0 1
    outer loop
      vertex 96.61 47.4 1.3
      vertex 101.381 33.9341 1.3
      vertex 101.36 34.2 1.3
    endloop
  endfacet
  facet normal 0 0 1
    outer loop
      vertex 96.61 14.4 1.3
      vertex 101.381 33.9341 1.3
      vertex 96.61 47.4 1.3
    endloop
  endfacet
  facet normal 0 0 1
    outer loop
      vertex 109.705 1.64472 1.3
      vertex 108.16 1.4 1.3
      vertex 108.942 1.46156 1.3
    endloop
  endfacet
  facet normal -0 0 1
    outer loop
      vertex 83.61 14.4 1.3
      vertex 108.16 1.4 1.3
      vertex 96.61 14.4 1.3
    endloop
  endfacet
  facet normal 0 0 1
    outer loop
      vertex 78.11 14.4 1.3
      vertex 83.61 14.4 1.3
      vertex 78.11 47.4 1.3
    endloop
  endfacet
  facet normal -0 0 1
    outer loop
      vertex 78.11 14.4 1.3
      vertex 108.16 1.4 1.3
      vertex 83.61 14.4 1.3
    endloop
  endfacet
  facet normal -0 0 1
    outer loop
      vertex 65.11 14.4 1.3
      vertex 108.16 1.4 1.3
      vertex 78.11 14.4 1.3
    endloop
  endfacet
  facet normal -0 0 1
    outer loop
      vertex 39.38 15.4 1.3
      vertex 65.11 14.4 1.3
      vertex 39.38 29.4 1.3
    endloop
  endfacet
  facet normal 0 0 1
    outer loop
      vertex 6.8 1.4 1.3
      vertex 65.11 14.4 1.3
      vertex 39.38 15.4 1.3
    endloop
  endfacet
  facet normal 0 0 1
    outer loop
      vertex 6.8 1.4 1.3
      vertex 39.38 15.4 1.3
      vertex 24.38 15.4 1.3
    endloop
  endfacet
  facet normal -0 0 1
    outer loop
      vertex 13.1168 33.6747 1.3
      vertex 24.38 29.4 1.3
      vertex 13.1791 33.9341 1.3
    endloop
  endfacet
  facet normal -0 0 1
    outer loop
      vertex 13.0147 33.4282 1.3
      vertex 24.38 29.4 1.3
      vertex 13.1168 33.6747 1.3
    endloop
  endfacet
  facet normal -0 0 1
    outer loop
      vertex 12.8753 33.2008 1.3
      vertex 24.38 29.4 1.3
      vertex 13.0147 33.4282 1.3
    endloop
  endfacet
  facet normal -0 0 1
    outer loop
      vertex 12.7021 32.9979 1.3
      vertex 24.38 29.4 1.3
      vertex 12.8753 33.2008 1.3
    endloop
  endfacet
  facet normal -0 0 1
    outer loop
      vertex 12.4992 32.8247 1.3
      vertex 24.38 29.4 1.3
      vertex 12.7021 32.9979 1.3
    endloop
  endfacet
  facet normal -0 0 1
    outer loop
      vertex 12.2718 32.6853 1.3
      vertex 24.38 29.4 1.3
      vertex 12.4992 32.8247 1.3
    endloop
  endfacet
  facet normal -0 0 1
    outer loop
      vertex 12.0253 32.5832 1.3
      vertex 24.38 29.4 1.3
      vertex 12.2718 32.6853 1.3
    endloop
  endfacet
  facet normal 0 0 1
    outer loop
      vertex 24.38 29.4 1.3
      vertex 12.0253 32.5832 1.3
      vertex 24.38 15.4 1.3
    endloop
  endfacet
  facet normal -0 0 1
    outer loop
      vertex 11.7659 32.5209 1.3
      vertex 24.38 15.4 1.3
      vertex 12.0253 32.5832 1.3
    endloop
  endfacet
  facet normal -0 0 1
    outer loop
      vertex 11.5 32.5 1.3
      vertex 24.38 15.4 1.3
      vertex 11.7659 32.5209 1.3
    endloop
  endfacet
  facet normal 0 0 1
    outer loop
      vertex 11.2341 32.5209 1.3
      vertex 24.38 15.4 1.3
      vertex 11.5 32.5 1.3
    endloop
  endfacet
  facet normal 0 0 1
    outer loop
      vertex 1.8 6.4 1.3
      vertex 11.2341 32.5209 1.3
      vertex 10.9747 32.5832 1.3
    endloop
  endfacet
  facet normal 0 0 1
    outer loop
      vertex 1.8 6.4 1.3
      vertex 10.9747 32.5832 1.3
      vertex 10.7282 32.6853 1.3
    endloop
  endfacet
  facet normal 0 0 1
    outer loop
      vertex 1.8 6.4 1.3
      vertex 10.7282 32.6853 1.3
      vertex 10.5008 32.8247 1.3
    endloop
  endfacet
  facet normal 0 0 1
    outer loop
      vertex 1.8 6.4 1.3
      vertex 10.5008 32.8247 1.3
      vertex 10.2979 32.9979 1.3
    endloop
  endfacet
  facet normal 0 0 1
    outer loop
      vertex 1.8 6.4 1.3
      vertex 10.2979 32.9979 1.3
      vertex 10.1247 33.2008 1.3
    endloop
  endfacet
  facet normal 0 0 1
    outer loop
      vertex 9.82093 34.4659 1.3
      vertex 1.8 62 1.3
      vertex 9.8 34.2 1.3
    endloop
  endfacet
  facet normal 0 0 1
    outer loop
      vertex 65.11 14.4 1.3
      vertex 6.8 1.4 1.3
      vertex 108.16 1.4 1.3
    endloop
  endfacet
  facet normal 0 0 1
    outer loop
      vertex 11.2341 32.5209 1.3
      vertex 1.8 6.4 1.3
      vertex 24.38 15.4 1.3
    endloop
  endfacet
  facet normal 0 0 1
    outer loop
      vertex 1.8 6.4 1.3
      vertex 10.1247 33.2008 1.3
      vertex 9.98529 33.4282 1.3
    endloop
  endfacet
  facet normal 0 0 1
    outer loop
      vertex 1.8 6.4 1.3
      vertex 9.98529 33.4282 1.3
      vertex 9.8832 33.6747 1.3
    endloop
  endfacet
  facet normal 0 0 1
    outer loop
      vertex 1.8 6.4 1.3
      vertex 9.8832 33.6747 1.3
      vertex 9.82093 33.9341 1.3
    endloop
  endfacet
  facet normal 0 0 1
    outer loop
      vertex 1.8 6.4 1.3
      vertex 9.8 34.2 1.3
      vertex 1.8 62 1.3
    endloop
  endfacet
  facet normal 0 0 1
    outer loop
      vertex 1.8 62 1.3
      vertex 6.8 67 1.3
      vertex 6.01783 66.9384 1.3
    endloop
  endfacet
  facet normal 0 0 1
    outer loop
      vertex 9.8 34.2 1.3
      vertex 1.8 6.4 1.3
      vertex 9.82093 33.9341 1.3
    endloop
  endfacet
  facet normal 0 0 1
    outer loop
      vertex 1.8 62 1.3
      vertex 6.01783 66.9384 1.3
      vertex 5.25491 66.7553 1.3
    endloop
  endfacet
  facet normal 0 0 1
    outer loop
      vertex 24.38 15.4 1.3
      vertex 1.8 6.4 1.3
      vertex 6.8 1.4 1.3
    endloop
  endfacet
  facet normal 0 0 1
    outer loop
      vertex 1.8 62 1.3
      vertex 5.25491 66.7553 1.3
      vertex 4.53005 66.455 1.3
    endloop
  endfacet
  facet normal 0 0 1
    outer loop
      vertex 6.8 1.4 1.3
      vertex 1.8 6.4 1.3
      vertex 6.01783 1.46156 1.3
    endloop
  endfacet
  facet normal 0 0 1
    outer loop
      vertex 1.8 62 1.3
      vertex 4.53005 66.455 1.3
      vertex 3.86107 66.0451 1.3
    endloop
  endfacet
  facet normal 0 0 1
    outer loop
      vertex 6.01783 1.46156 1.3
      vertex 1.8 6.4 1.3
      vertex 5.25491 1.64472 1.3
    endloop
  endfacet
  facet normal 0 0 1
    outer loop
      vertex 1.8 62 1.3
      vertex 3.86107 66.0451 1.3
      vertex 3.26447 65.5355 1.3
    endloop
  endfacet
  facet normal 0 0 1
    outer loop
      vertex 5.25491 1.64472 1.3
      vertex 1.8 6.4 1.3
      vertex 4.53005 1.94497 1.3
    endloop
  endfacet
  facet normal 0 0 1
    outer loop
      vertex 1.8 62 1.3
      vertex 3.26447 65.5355 1.3
      vertex 2.75491 64.9389 1.3
    endloop
  endfacet
  facet normal 0 0 1
    outer loop
      vertex 4.53005 1.94497 1.3
      vertex 1.8 6.4 1.3
      vertex 3.86107 2.35491 1.3
    endloop
  endfacet
  facet normal 0 0 1
    outer loop
      vertex 1.8 62 1.3
      vertex 2.75491 64.9389 1.3
      vertex 2.34497 64.27 1.3
    endloop
  endfacet
  facet normal 0 0 1
    outer loop
      vertex 3.86107 2.35491 1.3
      vertex 1.8 6.4 1.3
      vertex 3.26447 2.86447 1.3
    endloop
  endfacet
  facet normal 0 0 1
    outer loop
      vertex 1.8 62 1.3
      vertex 2.34497 64.27 1.3
      vertex 2.04472 63.5451 1.3
    endloop
  endfacet
  facet normal 0 0 1
    outer loop
      vertex 3.26447 2.86447 1.3
      vertex 1.8 6.4 1.3
      vertex 2.75491 3.46107 1.3
    endloop
  endfacet
  facet normal 0 0 1
    outer loop
      vertex 1.8 62 1.3
      vertex 2.04472 63.5451 1.3
      vertex 1.86156 62.7822 1.3
    endloop
  endfacet
  facet normal 0 0 1
    outer loop
      vertex 2.75491 3.46107 1.3
      vertex 1.8 6.4 1.3
      vertex 2.34497 4.13005 1.3
    endloop
  endfacet
  facet normal 0 0 1
    outer loop
      vertex 2.34497 4.13005 1.3
      vertex 1.8 6.4 1.3
      vertex 2.04472 4.85491 1.3
    endloop
  endfacet
  facet normal 0 0 1
    outer loop
      vertex 2.04472 4.85491 1.3
      vertex 1.8 6.4 1.3
      vertex 1.86156 5.61783 1.3
    endloop
  endfacet
  facet normal 0.0784596 -0.996917 0
    outer loop
      vertex 108.16 1.4 0
      vertex 108.942 1.46156 1.3
      vertex 108.16 1.4 1.3
    endloop
  endfacet
  facet normal 0.0784596 -0.996917 0
    outer loop
      vertex 108.942 1.46156 1.3
      vertex 108.16 1.4 0
      vertex 108.942 1.46156 0
    endloop
  endfacet
  facet normal 0 -1 0
    outer loop
      vertex 6.8 1.4 0
      vertex 108.16 1.4 1.3
      vertex 6.8 1.4 1.3
    endloop
  endfacet
  facet normal 0 -1 -0
    outer loop
      vertex 108.16 1.4 1.3
      vertex 6.8 1.4 0
      vertex 108.16 1.4 0
    endloop
  endfacet
  facet normal 1 -0 0
    outer loop
      vertex 113.16 6.4 1.3
      vertex 113.16 62 0
      vertex 113.16 62 1.3
    endloop
  endfacet
  facet normal 1 0 0
    outer loop
      vertex 113.16 62 0
      vertex 113.16 6.4 1.3
      vertex 113.16 6.4 0
    endloop
  endfacet
  facet normal 0 1 -0
    outer loop
      vertex 108.16 67 0
      vertex 6.8 67 1.3
      vertex 108.16 67 1.3
    endloop
  endfacet
  facet normal 0 1 0
    outer loop
      vertex 6.8 67 1.3
      vertex 108.16 67 0
      vertex 6.8 67 0
    endloop
  endfacet
  facet normal -0.522501 0.852639 0
    outer loop
      vertex 4.53005 66.455 0
      vertex 3.86107 66.0451 1.3
      vertex 4.53005 66.455 1.3
    endloop
  endfacet
  facet normal -0.522501 0.852639 0
    outer loop
      vertex 3.86107 66.0451 1.3
      vertex 4.53005 66.455 0
      vertex 3.86107 66.0451 0
    endloop
  endfacet
  facet normal -0.649448 -0.760406 0
    outer loop
      vertex 3.26447 2.86447 0
      vertex 3.86107 2.35491 1.3
      vertex 3.26447 2.86447 1.3
    endloop
  endfacet
  facet normal -0.649448 -0.760406 -0
    outer loop
      vertex 3.86107 2.35491 1.3
      vertex 3.26447 2.86447 0
      vertex 3.86107 2.35491 0
    endloop
  endfacet
  facet normal -1 0 0
    outer loop
      vertex 1.8 6.4 0
      vertex 1.8 62 1.3
      vertex 1.8 62 0
    endloop
  endfacet
  facet normal -1 -0 0
    outer loop
      vertex 1.8 62 1.3
      vertex 1.8 6.4 0
      vertex 1.8 6.4 1.3
    endloop
  endfacet
  facet normal -0.852641 0.522497 0
    outer loop
      vertex 2.34497 64.27 0
      vertex 2.75491 64.9389 1.3
      vertex 2.75491 64.9389 0
    endloop
  endfacet
  facet normal -0.852641 0.522497 0
    outer loop
      vertex 2.75491 64.9389 1.3
      vertex 2.34497 64.27 0
      vertex 2.34497 64.27 1.3
    endloop
  endfacet
  facet normal 0.760406 -0.649448 0
    outer loop
      vertex 111.696 2.86447 1.3
      vertex 112.205 3.46107 0
      vertex 112.205 3.46107 1.3
    endloop
  endfacet
  facet normal 0.760406 -0.649448 0
    outer loop
      vertex 112.205 3.46107 0
      vertex 111.696 2.86447 1.3
      vertex 111.696 2.86447 0
    endloop
  endfacet
  facet normal -0.382684 -0.923879 0
    outer loop
      vertex 4.53005 1.94497 0
      vertex 5.25491 1.64472 1.3
      vertex 4.53005 1.94497 1.3
    endloop
  endfacet
  facet normal -0.382684 -0.923879 -0
    outer loop
      vertex 5.25491 1.64472 1.3
      vertex 4.53005 1.94497 0
      vertex 5.25491 1.64472 0
    endloop
  endfacet
  facet normal 0.852644 0.522493 0
    outer loop
      vertex 112.615 64.27 1.3
      vertex 112.205 64.9389 0
      vertex 112.205 64.9389 1.3
    endloop
  endfacet
  facet normal 0.852644 0.522493 0
    outer loop
      vertex 112.205 64.9389 0
      vertex 112.615 64.27 1.3
      vertex 112.615 64.27 0
    endloop
  endfacet
  facet normal 0.382683 0.92388 -0
    outer loop
      vertex 110.43 66.455 0
      vertex 109.705 66.7553 1.3
      vertex 110.43 66.455 1.3
    endloop
  endfacet
  facet normal 0.382683 0.92388 0
    outer loop
      vertex 109.705 66.7553 1.3
      vertex 110.43 66.455 0
      vertex 109.705 66.7553 0
    endloop
  endfacet
  facet normal 0.0784632 0.996917 -0
    outer loop
      vertex 108.942 66.9384 0
      vertex 108.16 67 1.3
      vertex 108.942 66.9384 1.3
    endloop
  endfacet
  facet normal 0.0784632 0.996917 0
    outer loop
      vertex 108.16 67 1.3
      vertex 108.942 66.9384 0
      vertex 108.16 67 0
    endloop
  endfacet
  facet normal -0.0784633 0.996917 0
    outer loop
      vertex 6.8 67 0
      vertex 6.01783 66.9384 1.3
      vertex 6.8 67 1.3
    endloop
  endfacet
  facet normal -0.0784633 0.996917 0
    outer loop
      vertex 6.01783 66.9384 1.3
      vertex 6.8 67 0
      vertex 6.01783 66.9384 0
    endloop
  endfacet
  facet normal -0.996917 -0.0784596 0
    outer loop
      vertex 1.86156 5.61783 0
      vertex 1.8 6.4 1.3
      vertex 1.8 6.4 0
    endloop
  endfacet
  facet normal -0.996917 -0.0784596 0
    outer loop
      vertex 1.8 6.4 1.3
      vertex 1.86156 5.61783 0
      vertex 1.86156 5.61783 1.3
    endloop
  endfacet
  facet normal -0.85264 -0.522498 0
    outer loop
      vertex 2.75491 3.46107 0
      vertex 2.34497 4.13005 1.3
      vertex 2.34497 4.13005 0
    endloop
  endfacet
  facet normal -0.85264 -0.522498 0
    outer loop
      vertex 2.34497 4.13005 1.3
      vertex 2.75491 3.46107 0
      vertex 2.75491 3.46107 1.3
    endloop
  endfacet
  facet normal -0.923879 -0.382684 0
    outer loop
      vertex 2.34497 4.13005 0
      vertex 2.04472 4.85491 1.3
      vertex 2.04472 4.85491 0
    endloop
  endfacet
  facet normal -0.923879 -0.382684 0
    outer loop
      vertex 2.04472 4.85491 1.3
      vertex 2.34497 4.13005 0
      vertex 2.34497 4.13005 1.3
    endloop
  endfacet
  facet normal -0.92388 0.382683 0
    outer loop
      vertex 2.04472 63.5451 0
      vertex 2.34497 64.27 1.3
      vertex 2.34497 64.27 0
    endloop
  endfacet
  facet normal -0.92388 0.382683 0
    outer loop
      vertex 2.34497 64.27 1.3
      vertex 2.04472 63.5451 0
      vertex 2.04472 63.5451 1.3
    endloop
  endfacet
  facet normal 0.996918 -0.0784536 0
    outer loop
      vertex 113.098 5.61783 1.3
      vertex 113.16 6.4 0
      vertex 113.16 6.4 1.3
    endloop
  endfacet
  facet normal 0.996918 -0.0784536 0
    outer loop
      vertex 113.16 6.4 0
      vertex 113.098 5.61783 1.3
      vertex 113.098 5.61783 0
    endloop
  endfacet
  facet normal -0.0784596 -0.996917 0
    outer loop
      vertex 6.01783 1.46156 0
      vertex 6.8 1.4 1.3
      vertex 6.01783 1.46156 1.3
    endloop
  endfacet
  facet normal -0.0784596 -0.996917 -0
    outer loop
      vertex 6.8 1.4 1.3
      vertex 6.01783 1.46156 0
      vertex 6.8 1.4 0
    endloop
  endfacet
  facet normal 0.923877 -0.382689 0
    outer loop
      vertex 112.615 4.13005 1.3
      vertex 112.915 4.85491 0
      vertex 112.915 4.85491 1.3
    endloop
  endfacet
  facet normal 0.923877 -0.382689 0
    outer loop
      vertex 112.915 4.85491 0
      vertex 112.615 4.13005 1.3
      vertex 112.615 4.13005 0
    endloop
  endfacet
  facet normal 0.97237 0.233446 0
    outer loop
      vertex 113.098 62.7822 1.3
      vertex 112.915 63.5451 0
      vertex 112.915 63.5451 1.3
    endloop
  endfacet
  facet normal 0.97237 0.233446 0
    outer loop
      vertex 112.915 63.5451 0
      vertex 113.098 62.7822 1.3
      vertex 113.098 62.7822 0
    endloop
  endfacet
  facet normal 0.5225 0.852639 -0
    outer loop
      vertex 111.099 66.0451 0
      vertex 110.43 66.455 1.3
      vertex 111.099 66.0451 1.3
    endloop
  endfacet
  facet normal 0.5225 0.852639 0
    outer loop
      vertex 110.43 66.455 1.3
      vertex 111.099 66.0451 0
      vertex 110.43 66.455 0
    endloop
  endfacet
  facet normal 0.923878 0.382688 0
    outer loop
      vertex 112.915 63.5451 1.3
      vertex 112.615 64.27 0
      vertex 112.615 64.27 1.3
    endloop
  endfacet
  facet normal 0.923878 0.382688 0
    outer loop
      vertex 112.615 64.27 0
      vertex 112.915 63.5451 1.3
      vertex 112.915 63.5451 0
    endloop
  endfacet
  facet normal 0.760403 0.649451 0
    outer loop
      vertex 112.205 64.9389 1.3
      vertex 111.696 65.5355 0
      vertex 111.696 65.5355 1.3
    endloop
  endfacet
  facet normal 0.760403 0.649451 0
    outer loop
      vertex 111.696 65.5355 0
      vertex 112.205 64.9389 1.3
      vertex 112.205 64.9389 0
    endloop
  endfacet
  facet normal -0.649448 0.760406 0
    outer loop
      vertex 3.86107 66.0451 0
      vertex 3.26447 65.5355 1.3
      vertex 3.86107 66.0451 1.3
    endloop
  endfacet
  facet normal -0.649448 0.760406 0
    outer loop
      vertex 3.26447 65.5355 1.3
      vertex 3.86107 66.0451 0
      vertex 3.26447 65.5355 0
    endloop
  endfacet
  facet normal -0.760404 0.649451 0
    outer loop
      vertex 2.75491 64.9389 0
      vertex 3.26447 65.5355 1.3
      vertex 3.26447 65.5355 0
    endloop
  endfacet
  facet normal -0.760404 0.649451 0
    outer loop
      vertex 3.26447 65.5355 1.3
      vertex 2.75491 64.9389 0
      vertex 2.75491 64.9389 1.3
    endloop
  endfacet
  facet normal 0.233444 0.97237 -0
    outer loop
      vertex 109.705 66.7553 0
      vertex 108.942 66.9384 1.3
      vertex 109.705 66.7553 1.3
    endloop
  endfacet
  facet normal 0.233444 0.97237 0
    outer loop
      vertex 108.942 66.9384 1.3
      vertex 109.705 66.7553 0
      vertex 108.942 66.9384 0
    endloop
  endfacet
  facet normal -0.382681 0.923881 0
    outer loop
      vertex 5.25491 66.7553 0
      vertex 4.53005 66.455 1.3
      vertex 5.25491 66.7553 1.3
    endloop
  endfacet
  facet normal -0.382681 0.923881 0
    outer loop
      vertex 4.53005 66.455 1.3
      vertex 5.25491 66.7553 0
      vertex 4.53005 66.455 0
    endloop
  endfacet
  facet normal -0.233445 0.97237 0
    outer loop
      vertex 6.01783 66.9384 0
      vertex 5.25491 66.7553 1.3
      vertex 6.01783 66.9384 1.3
    endloop
  endfacet
  facet normal -0.233445 0.97237 0
    outer loop
      vertex 5.25491 66.7553 1.3
      vertex 6.01783 66.9384 0
      vertex 5.25491 66.7553 0
    endloop
  endfacet
  facet normal 0 0 -1
    outer loop
      vertex 108.16 1.4 0
      vertex 113.16 6.4 0
      vertex 113.098 5.61783 0
    endloop
  endfacet
  facet normal 0 0 -1
    outer loop
      vertex 113.16 6.4 0
      vertex 104.76 34.2 0
      vertex 113.16 62 0
    endloop
  endfacet
  facet normal 0 0 -1
    outer loop
      vertex 108.16 1.4 0
      vertex 113.098 5.61783 0
      vertex 112.915 4.85491 0
    endloop
  endfacet
  facet normal 0 0 -1
    outer loop
      vertex 104.739 34.4659 0
      vertex 113.16 62 0
      vertex 104.76 34.2 0
    endloop
  endfacet
  facet normal 0 0 -1
    outer loop
      vertex 108.16 1.4 0
      vertex 112.915 4.85491 0
      vertex 112.615 4.13005 0
    endloop
  endfacet
  facet normal 0 0 -1
    outer loop
      vertex 104.677 34.7253 0
      vertex 113.16 62 0
      vertex 104.739 34.4659 0
    endloop
  endfacet
  facet normal 0 0 -1
    outer loop
      vertex 108.16 1.4 0
      vertex 112.615 4.13005 0
      vertex 112.205 3.46107 0
    endloop
  endfacet
  facet normal 0 0 -1
    outer loop
      vertex 104.575 34.9718 0
      vertex 113.16 62 0
      vertex 104.677 34.7253 0
    endloop
  endfacet
  facet normal 0 0 -1
    outer loop
      vertex 108.16 1.4 0
      vertex 112.205 3.46107 0
      vertex 111.696 2.86447 0
    endloop
  endfacet
  facet normal 0 0 -1
    outer loop
      vertex 104.435 35.1992 0
      vertex 113.16 62 0
      vertex 104.575 34.9718 0
    endloop
  endfacet
  facet normal 0 0 -1
    outer loop
      vertex 108.16 1.4 0
      vertex 111.696 2.86447 0
      vertex 111.099 2.35491 0
    endloop
  endfacet
  facet normal 0 0 -1
    outer loop
      vertex 104.262 35.4021 0
      vertex 113.16 62 0
      vertex 104.435 35.1992 0
    endloop
  endfacet
  facet normal 0 0 -1
    outer loop
      vertex 108.16 1.4 0
      vertex 111.099 2.35491 0
      vertex 110.43 1.94497 0
    endloop
  endfacet
  facet normal 0 0 -1
    outer loop
      vertex 104.059 35.5753 0
      vertex 113.16 62 0
      vertex 104.262 35.4021 0
    endloop
  endfacet
  facet normal 0 0 -1
    outer loop
      vertex 108.16 1.4 0
      vertex 110.43 1.94497 0
      vertex 109.705 1.64472 0
    endloop
  endfacet
  facet normal 0 0 -1
    outer loop
      vertex 103.832 35.7147 0
      vertex 113.16 62 0
      vertex 104.059 35.5753 0
    endloop
  endfacet
  facet normal 0 0 -1
    outer loop
      vertex 108.16 1.4 0
      vertex 109.705 1.64472 0
      vertex 108.942 1.46156 0
    endloop
  endfacet
  facet normal 0 0 -1
    outer loop
      vertex 96.61 47.4 0
      vertex 113.16 62 0
      vertex 103.832 35.7147 0
    endloop
  endfacet
  facet normal -0 0 -1
    outer loop
      vertex 113.16 6.4 0
      vertex 108.16 1.4 0
      vertex 96.61 14.4 0
    endloop
  endfacet
  facet normal 0 -0 -1
    outer loop
      vertex 108.16 67 0
      vertex 113.16 62 0
      vertex 96.61 47.4 0
    endloop
  endfacet
  facet normal 0 0 -1
    outer loop
      vertex 113.098 62.7822 0
      vertex 108.16 67 0
      vertex 112.915 63.5451 0
    endloop
  endfacet
  facet normal 0 0 -1
    outer loop
      vertex 113.16 6.4 0
      vertex 104.739 33.9341 0
      vertex 104.76 34.2 0
    endloop
  endfacet
  facet normal 0 0 -1
    outer loop
      vertex 113.16 6.4 0
      vertex 104.677 33.6747 0
      vertex 104.739 33.9341 0
    endloop
  endfacet
  facet normal 0 0 -1
    outer loop
      vertex 113.16 6.4 0
      vertex 104.575 33.4282 0
      vertex 104.677 33.6747 0
    endloop
  endfacet
  facet normal 0 0 -1
    outer loop
      vertex 113.16 6.4 0
      vertex 104.435 33.2008 0
      vertex 104.575 33.4282 0
    endloop
  endfacet
  facet normal 0 0 -1
    outer loop
      vertex 113.16 6.4 0
      vertex 104.262 32.9979 0
      vertex 104.435 33.2008 0
    endloop
  endfacet
  facet normal 0 0 -1
    outer loop
      vertex 113.16 6.4 0
      vertex 104.059 32.8247 0
      vertex 104.262 32.9979 0
    endloop
  endfacet
  facet normal 0 0 -1
    outer loop
      vertex 113.16 6.4 0
      vertex 96.61 14.4 0
      vertex 103.832 32.6853 0
    endloop
  endfacet
  facet normal 0 0 -1
    outer loop
      vertex 113.16 6.4 0
      vertex 103.832 32.6853 0
      vertex 104.059 32.8247 0
    endloop
  endfacet
  facet normal 0 0 -1
    outer loop
      vertex 103.832 32.6853 0
      vertex 96.61 14.4 0
      vertex 103.585 32.5832 0
    endloop
  endfacet
  facet normal 0 0 -1
    outer loop
      vertex 103.585 32.5832 0
      vertex 96.61 14.4 0
      vertex 103.326 32.5209 0
    endloop
  endfacet
  facet normal 0 0 -1
    outer loop
      vertex 103.326 32.5209 0
      vertex 96.61 14.4 0
      vertex 103.06 32.5 0
    endloop
  endfacet
  facet normal -0 0 -1
    outer loop
      vertex 103.06 32.5 0
      vertex 96.61 14.4 0
      vertex 102.794 32.5209 0
    endloop
  endfacet
  facet normal -0 0 -1
    outer loop
      vertex 102.794 32.5209 0
      vertex 96.61 14.4 0
      vertex 102.535 32.5832 0
    endloop
  endfacet
  facet normal -0 0 -1
    outer loop
      vertex 102.535 32.5832 0
      vertex 96.61 14.4 0
      vertex 102.288 32.6853 0
    endloop
  endfacet
  facet normal -0 0 -1
    outer loop
      vertex 102.288 32.6853 0
      vertex 96.61 14.4 0
      vertex 102.061 32.8247 0
    endloop
  endfacet
  facet normal -0 0 -1
    outer loop
      vertex 102.061 32.8247 0
      vertex 96.61 14.4 0
      vertex 101.858 32.9979 0
    endloop
  endfacet
  facet normal -0 0 -1
    outer loop
      vertex 101.858 32.9979 0
      vertex 96.61 14.4 0
      vertex 101.685 33.2008 0
    endloop
  endfacet
  facet normal -0 0 -1
    outer loop
      vertex 101.685 33.2008 0
      vertex 96.61 14.4 0
      vertex 101.545 33.4282 0
    endloop
  endfacet
  facet normal -0 0 -1
    outer loop
      vertex 101.545 33.4282 0
      vertex 96.61 14.4 0
      vertex 101.443 33.6747 0
    endloop
  endfacet
  facet normal 0 0 -1
    outer loop
      vertex 96.61 47.4 0
      vertex 101.381 33.9341 0
      vertex 96.61 14.4 0
    endloop
  endfacet
  facet normal -0 0 -1
    outer loop
      vertex 101.443 33.6747 0
      vertex 96.61 14.4 0
      vertex 101.381 33.9341 0
    endloop
  endfacet
  facet normal 0 0 -1
    outer loop
      vertex 108.16 1.4 0
      vertex 83.61 14.4 0
      vertex 96.61 14.4 0
    endloop
  endfacet
  facet normal 0 0 -1
    outer loop
      vertex 83.61 14.4 0
      vertex 78.11 14.4 0
      vertex 83.61 47.4 0
    endloop
  endfacet
  facet normal 0 0 -1
    outer loop
      vertex 108.16 1.4 0
      vertex 78.11 14.4 0
      vertex 83.61 14.4 0
    endloop
  endfacet
  facet normal 0 0 -1
    outer loop
      vertex 108.16 1.4 0
      vertex 65.11 14.4 0
      vertex 78.11 14.4 0
    endloop
  endfacet
  facet normal 0 0 -1
    outer loop
      vertex 39.38 29.4 0
      vertex 65.11 14.4 0
      vertex 39.38 15.4 0
    endloop
  endfacet
  facet normal 0 0 -1
    outer loop
      vertex 6.8 1.4 0
      vertex 65.11 14.4 0
      vertex 108.16 1.4 0
    endloop
  endfacet
  facet normal -0 0 -1
    outer loop
      vertex 65.11 14.4 0
      vertex 6.8 1.4 0
      vertex 39.38 15.4 0
    endloop
  endfacet
  facet normal 0 0 -1
    outer loop
      vertex 12.0253 32.5832 0
      vertex 24.38 29.4 0
      vertex 24.38 15.4 0
    endloop
  endfacet
  facet normal 0 0 -1
    outer loop
      vertex 24.38 29.4 0
      vertex 13.1791 33.9341 0
      vertex 13.2 34.2 0
    endloop
  endfacet
  facet normal 0 0 -1
    outer loop
      vertex 24.38 29.4 0
      vertex 13.1168 33.6747 0
      vertex 13.1791 33.9341 0
    endloop
  endfacet
  facet normal 0 0 -1
    outer loop
      vertex 24.38 29.4 0
      vertex 13.0147 33.4282 0
      vertex 13.1168 33.6747 0
    endloop
  endfacet
  facet normal 0 0 -1
    outer loop
      vertex 24.38 29.4 0
      vertex 12.8753 33.2008 0
      vertex 13.0147 33.4282 0
    endloop
  endfacet
  facet normal 0 0 -1
    outer loop
      vertex 24.38 29.4 0
      vertex 12.7021 32.9979 0
      vertex 12.8753 33.2008 0
    endloop
  endfacet
  facet normal 0 0 -1
    outer loop
      vertex 24.38 29.4 0
      vertex 12.4992 32.8247 0
      vertex 12.7021 32.9979 0
    endloop
  endfacet
  facet normal 0 0 -1
    outer loop
      vertex 24.38 29.4 0
      vertex 12.2718 32.6853 0
      vertex 12.4992 32.8247 0
    endloop
  endfacet
  facet normal 0 0 -1
    outer loop
      vertex 24.38 29.4 0
      vertex 12.0253 32.5832 0
      vertex 12.2718 32.6853 0
    endloop
  endfacet
  facet normal 0 0 -1
    outer loop
      vertex 24.38 15.4 0
      vertex 11.7659 32.5209 0
      vertex 12.0253 32.5832 0
    endloop
  endfacet
  facet normal 0 0 -1
    outer loop
      vertex 24.38 15.4 0
      vertex 11.5 32.5 0
      vertex 11.7659 32.5209 0
    endloop
  endfacet
  facet normal 0 0 -1
    outer loop
      vertex 24.38 15.4 0
      vertex 11.2341 32.5209 0
      vertex 11.5 32.5 0
    endloop
  endfacet
  facet normal 0 0 -1
    outer loop
      vertex 1.8 6.4 0
      vertex 11.2341 32.5209 0
      vertex 24.38 15.4 0
    endloop
  endfacet
  facet normal -0 0 -1
    outer loop
      vertex 11.2341 32.5209 0
      vertex 1.8 6.4 0
      vertex 10.9747 32.5832 0
    endloop
  endfacet
  facet normal -0 0 -1
    outer loop
      vertex 10.9747 32.5832 0
      vertex 1.8 6.4 0
      vertex 10.7282 32.6853 0
    endloop
  endfacet
  facet normal -0 0 -1
    outer loop
      vertex 10.7282 32.6853 0
      vertex 1.8 6.4 0
      vertex 10.5008 32.8247 0
    endloop
  endfacet
  facet normal -0 0 -1
    outer loop
      vertex 10.5008 32.8247 0
      vertex 1.8 6.4 0
      vertex 10.2979 32.9979 0
    endloop
  endfacet
  facet normal -0 0 -1
    outer loop
      vertex 9.8832 33.6747 0
      vertex 1.8 6.4 0
      vertex 9.82093 33.9341 0
    endloop
  endfacet
  facet normal -0 0 -1
    outer loop
      vertex 9.98529 33.4282 0
      vertex 1.8 6.4 0
      vertex 9.8832 33.6747 0
    endloop
  endfacet
  facet normal -0 0 -1
    outer loop
      vertex 10.1247 33.2008 0
      vertex 1.8 6.4 0
      vertex 9.98529 33.4282 0
    endloop
  endfacet
  facet normal -0 0 -1
    outer loop
      vertex 10.2979 32.9979 0
      vertex 1.8 6.4 0
      vertex 10.1247 33.2008 0
    endloop
  endfacet
  facet normal 0 0 -1
    outer loop
      vertex 1.8 6.4 0
      vertex 24.38 15.4 0
      vertex 6.8 1.4 0
    endloop
  endfacet
  facet normal -0 0 -1
    outer loop
      vertex 39.38 15.4 0
      vertex 6.8 1.4 0
      vertex 24.38 15.4 0
    endloop
  endfacet
  facet normal 0 0 -1
    outer loop
      vertex 112.915 63.5451 0
      vertex 108.16 67 0
      vertex 112.615 64.27 0
    endloop
  endfacet
  facet normal 0 0 -1
    outer loop
      vertex 112.615 64.27 0
      vertex 108.16 67 0
      vertex 112.205 64.9389 0
    endloop
  endfacet
  facet normal 0 0 -1
    outer loop
      vertex 112.205 64.9389 0
      vertex 108.16 67 0
      vertex 111.696 65.5355 0
    endloop
  endfacet
  facet normal 0 0 -1
    outer loop
      vertex 111.696 65.5355 0
      vertex 108.16 67 0
      vertex 111.099 66.0451 0
    endloop
  endfacet
  facet normal 0 0 -1
    outer loop
      vertex 111.099 66.0451 0
      vertex 108.16 67 0
      vertex 110.43 66.455 0
    endloop
  endfacet
  facet normal 0 0 -1
    outer loop
      vertex 110.43 66.455 0
      vertex 108.16 67 0
      vertex 109.705 66.7553 0
    endloop
  endfacet
  facet normal 0 0 -1
    outer loop
      vertex 113.16 62 0
      vertex 108.16 67 0
      vertex 113.098 62.7822 0
    endloop
  endfacet
  facet normal 0 0 -1
    outer loop
      vertex 96.61 47.4 0
      vertex 103.832 35.7147 0
      vertex 103.585 35.8168 0
    endloop
  endfacet
  facet normal 0 0 -1
    outer loop
      vertex 96.61 47.4 0
      vertex 103.585 35.8168 0
      vertex 103.326 35.8791 0
    endloop
  endfacet
  facet normal 0 0 -1
    outer loop
      vertex 96.61 47.4 0
      vertex 103.326 35.8791 0
      vertex 103.06 35.9 0
    endloop
  endfacet
  facet normal 0 0 -1
    outer loop
      vertex 96.61 47.4 0
      vertex 103.06 35.9 0
      vertex 102.794 35.8791 0
    endloop
  endfacet
  facet normal 0 0 -1
    outer loop
      vertex 96.61 47.4 0
      vertex 102.794 35.8791 0
      vertex 102.535 35.8168 0
    endloop
  endfacet
  facet normal 0 0 -1
    outer loop
      vertex 96.61 47.4 0
      vertex 102.535 35.8168 0
      vertex 102.288 35.7147 0
    endloop
  endfacet
  facet normal 0 0 -1
    outer loop
      vertex 96.61 47.4 0
      vertex 102.288 35.7147 0
      vertex 102.061 35.5753 0
    endloop
  endfacet
  facet normal 0 0 -1
    outer loop
      vertex 96.61 47.4 0
      vertex 102.061 35.5753 0
      vertex 101.858 35.4021 0
    endloop
  endfacet
  facet normal 0 0 -1
    outer loop
      vertex 96.61 47.4 0
      vertex 101.858 35.4021 0
      vertex 101.685 35.1992 0
    endloop
  endfacet
  facet normal 0 0 -1
    outer loop
      vertex 96.61 47.4 0
      vertex 101.685 35.1992 0
      vertex 101.545 34.9718 0
    endloop
  endfacet
  facet normal 0 0 -1
    outer loop
      vertex 96.61 47.4 0
      vertex 101.545 34.9718 0
      vertex 101.443 34.7253 0
    endloop
  endfacet
  facet normal 0 0 -1
    outer loop
      vertex 96.61 47.4 0
      vertex 101.443 34.7253 0
      vertex 101.381 34.4659 0
    endloop
  endfacet
  facet normal 0 0 -1
    outer loop
      vertex 101.381 33.9341 0
      vertex 96.61 47.4 0
      vertex 101.36 34.2 0
    endloop
  endfacet
  facet normal 0 0 -1
    outer loop
      vertex 101.36 34.2 0
      vertex 96.61 47.4 0
      vertex 101.381 34.4659 0
    endloop
  endfacet
  facet normal 0 0 -1
    outer loop
      vertex 109.705 66.7553 0
      vertex 108.16 67 0
      vertex 108.942 66.9384 0
    endloop
  endfacet
  facet normal 0 0 -1
    outer loop
      vertex 83.61 47.4 0
      vertex 108.16 67 0
      vertex 96.61 47.4 0
    endloop
  endfacet
  facet normal 0 0 -1
    outer loop
      vertex 78.11 47.4 0
      vertex 83.61 47.4 0
      vertex 78.11 14.4 0
    endloop
  endfacet
  facet normal 0 0 -1
    outer loop
      vertex 78.11 47.4 0
      vertex 108.16 67 0
      vertex 83.61 47.4 0
    endloop
  endfacet
  facet normal 0 0 -1
    outer loop
      vertex 65.11 47.4 0
      vertex 108.16 67 0
      vertex 78.11 47.4 0
    endloop
  endfacet
  facet normal 0 0 -1
    outer loop
      vertex 65.11 14.4 0
      vertex 39.38 29.4 0
      vertex 65.11 47.4 0
    endloop
  endfacet
  facet normal 0 0 -1
    outer loop
      vertex 6.8 67 0
      vertex 39.38 29.4 0
      vertex 24.38 29.4 0
    endloop
  endfacet
  facet normal 0 0 -1
    outer loop
      vertex 39.38 29.4 0
      vertex 6.8 67 0
      vertex 65.11 47.4 0
    endloop
  endfacet
  facet normal 0 0 -1
    outer loop
      vertex 13.1791 34.4659 0
      vertex 24.38 29.4 0
      vertex 13.2 34.2 0
    endloop
  endfacet
  facet normal 0 0 -1
    outer loop
      vertex 13.1168 34.7253 0
      vertex 24.38 29.4 0
      vertex 13.1791 34.4659 0
    endloop
  endfacet
  facet normal 0 0 -1
    outer loop
      vertex 13.0147 34.9718 0
      vertex 24.38 29.4 0
      vertex 13.1168 34.7253 0
    endloop
  endfacet
  facet normal 0 0 -1
    outer loop
      vertex 12.8753 35.1992 0
      vertex 24.38 29.4 0
      vertex 13.0147 34.9718 0
    endloop
  endfacet
  facet normal 0 0 -1
    outer loop
      vertex 12.7021 35.4021 0
      vertex 24.38 29.4 0
      vertex 12.8753 35.1992 0
    endloop
  endfacet
  facet normal 0 0 -1
    outer loop
      vertex 24.38 29.4 0
      vertex 12.7021 35.4021 0
      vertex 6.8 67 0
    endloop
  endfacet
  facet normal 0 0 -1
    outer loop
      vertex 6.8 67 0
      vertex 12.7021 35.4021 0
      vertex 12.4992 35.5753 0
    endloop
  endfacet
  facet normal 0 0 -1
    outer loop
      vertex 6.8 67 0
      vertex 12.4992 35.5753 0
      vertex 12.2718 35.7147 0
    endloop
  endfacet
  facet normal 0 0 -1
    outer loop
      vertex 6.8 67 0
      vertex 12.2718 35.7147 0
      vertex 12.0253 35.8168 0
    endloop
  endfacet
  facet normal 0 0 -1
    outer loop
      vertex 1.8 62 0
      vertex 12.0253 35.8168 0
      vertex 11.7659 35.8791 0
    endloop
  endfacet
  facet normal 0 0 -1
    outer loop
      vertex 1.8 62 0
      vertex 11.7659 35.8791 0
      vertex 11.5 35.9 0
    endloop
  endfacet
  facet normal 0 0 -1
    outer loop
      vertex 1.8 62 0
      vertex 11.5 35.9 0
      vertex 11.2341 35.8791 0
    endloop
  endfacet
  facet normal 0 0 -1
    outer loop
      vertex 1.8 62 0
      vertex 11.2341 35.8791 0
      vertex 10.9747 35.8168 0
    endloop
  endfacet
  facet normal -0 0 -1
    outer loop
      vertex 9.82093 33.9341 0
      vertex 1.8 6.4 0
      vertex 9.8 34.2 0
    endloop
  endfacet
  facet normal 0 0 -1
    outer loop
      vertex 65.11 47.4 0
      vertex 6.8 67 0
      vertex 108.16 67 0
    endloop
  endfacet
  facet normal 0 0 -1
    outer loop
      vertex 1.8 62 0
      vertex 10.9747 35.8168 0
      vertex 10.7282 35.7147 0
    endloop
  endfacet
  facet normal 0 0 -1
    outer loop
      vertex 1.8 62 0
      vertex 10.7282 35.7147 0
      vertex 10.5008 35.5753 0
    endloop
  endfacet
  facet normal 0 0 -1
    outer loop
      vertex 1.8 62 0
      vertex 10.5008 35.5753 0
      vertex 10.2979 35.4021 0
    endloop
  endfacet
  facet normal 0 0 -1
    outer loop
      vertex 1.8 62 0
      vertex 10.2979 35.4021 0
      vertex 10.1247 35.1992 0
    endloop
  endfacet
  facet normal 0 0 -1
    outer loop
      vertex 1.8 62 0
      vertex 10.1247 35.1992 0
      vertex 9.98529 34.9718 0
    endloop
  endfacet
  facet normal 0 0 -1
    outer loop
      vertex 1.8 62 0
      vertex 9.98529 34.9718 0
      vertex 9.8832 34.7253 0
    endloop
  endfacet
  facet normal 0 0 -1
    outer loop
      vertex 1.8 62 0
      vertex 9.8832 34.7253 0
      vertex 9.82093 34.4659 0
    endloop
  endfacet
  facet normal 0 0 -1
    outer loop
      vertex 1.8 62 0
      vertex 9.8 34.2 0
      vertex 1.8 6.4 0
    endloop
  endfacet
  facet normal 0 0 -1
    outer loop
      vertex 1.8 6.4 0
      vertex 6.8 1.4 0
      vertex 6.01783 1.46156 0
    endloop
  endfacet
  facet normal 0 0 -1
    outer loop
      vertex 9.8 34.2 0
      vertex 1.8 62 0
      vertex 9.82093 34.4659 0
    endloop
  endfacet
  facet normal 0 0 -1
    outer loop
      vertex 1.8 6.4 0
      vertex 6.01783 1.46156 0
      vertex 5.25491 1.64472 0
    endloop
  endfacet
  facet normal 0 0 -1
    outer loop
      vertex 12.0253 35.8168 0
      vertex 1.8 62 0
      vertex 6.8 67 0
    endloop
  endfacet
  facet normal 0 0 -1
    outer loop
      vertex 1.8 6.4 0
      vertex 5.25491 1.64472 0
      vertex 4.53005 1.94497 0
    endloop
  endfacet
  facet normal 0 0 -1
    outer loop
      vertex 6.8 67 0
      vertex 1.8 62 0
      vertex 6.01783 66.9384 0
    endloop
  endfacet
  facet normal 0 0 -1
    outer loop
      vertex 1.8 6.4 0
      vertex 4.53005 1.94497 0
      vertex 3.86107 2.35491 0
    endloop
  endfacet
  facet normal 0 0 -1
    outer loop
      vertex 6.01783 66.9384 0
      vertex 1.8 62 0
      vertex 5.25491 66.7553 0
    endloop
  endfacet
  facet normal 0 0 -1
    outer loop
      vertex 1.8 6.4 0
      vertex 3.86107 2.35491 0
      vertex 3.26447 2.86447 0
    endloop
  endfacet
  facet normal 0 0 -1
    outer loop
      vertex 5.25491 66.7553 0
      vertex 1.8 62 0
      vertex 4.53005 66.455 0
    endloop
  endfacet
  facet normal 0 0 -1
    outer loop
      vertex 1.8 6.4 0
      vertex 3.26447 2.86447 0
      vertex 2.75491 3.46107 0
    endloop
  endfacet
  facet normal 0 0 -1
    outer loop
      vertex 4.53005 66.455 0
      vertex 1.8 62 0
      vertex 3.86107 66.0451 0
    endloop
  endfacet
  facet normal 0 0 -1
    outer loop
      vertex 1.8 6.4 0
      vertex 2.75491 3.46107 0
      vertex 2.34497 4.13005 0
    endloop
  endfacet
  facet normal 0 0 -1
    outer loop
      vertex 3.86107 66.0451 0
      vertex 1.8 62 0
      vertex 3.26447 65.5355 0
    endloop
  endfacet
  facet normal 0 0 -1
    outer loop
      vertex 1.8 6.4 0
      vertex 2.34497 4.13005 0
      vertex 2.04472 4.85491 0
    endloop
  endfacet
  facet normal 0 0 -1
    outer loop
      vertex 3.26447 65.5355 0
      vertex 1.8 62 0
      vertex 2.75491 64.9389 0
    endloop
  endfacet
  facet normal 0 0 -1
    outer loop
      vertex 1.8 6.4 0
      vertex 2.04472 4.85491 0
      vertex 1.86156 5.61783 0
    endloop
  endfacet
  facet normal 0 0 -1
    outer loop
      vertex 2.75491 64.9389 0
      vertex 1.8 62 0
      vertex 2.34497 64.27 0
    endloop
  endfacet
  facet normal 0 0 -1
    outer loop
      vertex 2.34497 64.27 0
      vertex 1.8 62 0
      vertex 2.04472 63.5451 0
    endloop
  endfacet
  facet normal 0 0 -1
    outer loop
      vertex 2.04472 63.5451 0
      vertex 1.8 62 0
      vertex 1.86156 62.7822 0
    endloop
  endfacet
  facet normal -0.97237 -0.233445 0
    outer loop
      vertex 2.04472 4.85491 0
      vertex 1.86156 5.61783 1.3
      vertex 1.86156 5.61783 0
    endloop
  endfacet
  facet normal -0.97237 -0.233445 0
    outer loop
      vertex 1.86156 5.61783 1.3
      vertex 2.04472 4.85491 0
      vertex 2.04472 4.85491 1.3
    endloop
  endfacet
  facet normal -0.522498 -0.85264 0
    outer loop
      vertex 3.86107 2.35491 0
      vertex 4.53005 1.94497 1.3
      vertex 3.86107 2.35491 1.3
    endloop
  endfacet
  facet normal -0.522498 -0.85264 -0
    outer loop
      vertex 4.53005 1.94497 1.3
      vertex 3.86107 2.35491 0
      vertex 4.53005 1.94497 0
    endloop
  endfacet
  facet normal -0.233445 -0.97237 0
    outer loop
      vertex 5.25491 1.64472 0
      vertex 6.01783 1.46156 1.3
      vertex 5.25491 1.64472 1.3
    endloop
  endfacet
  facet normal -0.233445 -0.97237 -0
    outer loop
      vertex 6.01783 1.46156 1.3
      vertex 5.25491 1.64472 0
      vertex 6.01783 1.46156 0
    endloop
  endfacet
  facet normal 0.649446 -0.760408 0
    outer loop
      vertex 111.099 2.35491 0
      vertex 111.696 2.86447 1.3
      vertex 111.099 2.35491 1.3
    endloop
  endfacet
  facet normal 0.649446 -0.760408 0
    outer loop
      vertex 111.696 2.86447 1.3
      vertex 111.099 2.35491 0
      vertex 111.696 2.86447 0
    endloop
  endfacet
  facet normal 0.852643 -0.522494 0
    outer loop
      vertex 112.205 3.46107 1.3
      vertex 112.615 4.13005 0
      vertex 112.615 4.13005 1.3
    endloop
  endfacet
  facet normal 0.852643 -0.522494 0
    outer loop
      vertex 112.615 4.13005 0
      vertex 112.205 3.46107 1.3
      vertex 112.205 3.46107 0
    endloop
  endfacet
  facet normal 0.97237 -0.233445 0
    outer loop
      vertex 112.915 4.85491 1.3
      vertex 113.098 5.61783 0
      vertex 113.098 5.61783 1.3
    endloop
  endfacet
  facet normal 0.97237 -0.233445 0
    outer loop
      vertex 113.098 5.61783 0
      vertex 112.915 4.85491 1.3
      vertex 112.915 4.85491 0
    endloop
  endfacet
  facet normal 0.649447 0.760407 -0
    outer loop
      vertex 111.696 65.5355 0
      vertex 111.099 66.0451 1.3
      vertex 111.696 65.5355 1.3
    endloop
  endfacet
  facet normal 0.649447 0.760407 0
    outer loop
      vertex 111.099 66.0451 1.3
      vertex 111.696 65.5355 0
      vertex 111.099 66.0451 0
    endloop
  endfacet
  facet normal 0.233444 -0.97237 0
    outer loop
      vertex 108.942 1.46156 0
      vertex 109.705 1.64472 1.3
      vertex 108.942 1.46156 1.3
    endloop
  endfacet
  facet normal 0.233444 -0.97237 0
    outer loop
      vertex 109.705 1.64472 1.3
      vertex 108.942 1.46156 0
      vertex 109.705 1.64472 0
    endloop
  endfacet
  facet normal 0.522497 -0.852641 0
    outer loop
      vertex 110.43 1.94497 0
      vertex 111.099 2.35491 1.3
      vertex 110.43 1.94497 1.3
    endloop
  endfacet
  facet normal 0.522497 -0.852641 0
    outer loop
      vertex 111.099 2.35491 1.3
      vertex 110.43 1.94497 0
      vertex 111.099 2.35491 0
    endloop
  endfacet
  facet normal 0.382686 -0.923878 0
    outer loop
      vertex 109.705 1.64472 0
      vertex 110.43 1.94497 1.3
      vertex 109.705 1.64472 1.3
    endloop
  endfacet
  facet normal 0.382686 -0.923878 0
    outer loop
      vertex 110.43 1.94497 1.3
      vertex 109.705 1.64472 0
      vertex 110.43 1.94497 0
    endloop
  endfacet
  facet normal -0.92388 -0.382682 0
    outer loop
      vertex 13.1168 34.7253 0
      vertex 13.0147 34.9718 1.3
      vertex 13.0147 34.9718 0
    endloop
  endfacet
  facet normal -0.92388 -0.382682 0
    outer loop
      vertex 13.0147 34.9718 1.3
      vertex 13.1168 34.7253 0
      vertex 13.1168 34.7253 1.3
    endloop
  endfacet
  facet normal -0.85264 -0.522499 0
    outer loop
      vertex 13.0147 34.9718 0
      vertex 12.8753 35.1992 1.3
      vertex 12.8753 35.1992 0
    endloop
  endfacet
  facet normal -0.85264 -0.522499 0
    outer loop
      vertex 12.8753 35.1992 1.3
      vertex 13.0147 34.9718 0
      vertex 13.0147 34.9718 1.3
    endloop
  endfacet
  facet normal -0.382684 -0.923879 0
    outer loop
      vertex 12.0253 35.8168 0
      vertex 12.2718 35.7147 1.3
      vertex 12.0253 35.8168 1.3
    endloop
  endfacet
  facet normal -0.382684 -0.923879 -0
    outer loop
      vertex 12.2718 35.7147 1.3
      vertex 12.0253 35.8168 0
      vertex 12.2718 35.7147 0
    endloop
  endfacet
  facet normal 0.233448 -0.972369 0
    outer loop
      vertex 10.9747 35.8168 0
      vertex 11.2341 35.8791 1.3
      vertex 10.9747 35.8168 1.3
    endloop
  endfacet
  facet normal 0.233448 -0.972369 0
    outer loop
      vertex 11.2341 35.8791 1.3
      vertex 10.9747 35.8168 0
      vertex 11.2341 35.8791 0
    endloop
  endfacet
  facet normal 0.85264 -0.522499 0
    outer loop
      vertex 9.98529 34.9718 1.3
      vertex 10.1247 35.1992 0
      vertex 10.1247 35.1992 1.3
    endloop
  endfacet
  facet normal 0.85264 -0.522499 0
    outer loop
      vertex 10.1247 35.1992 0
      vertex 9.98529 34.9718 1.3
      vertex 9.98529 34.9718 0
    endloop
  endfacet
  facet normal -0.97237 -0.233447 0
    outer loop
      vertex 13.1791 34.4659 0
      vertex 13.1168 34.7253 1.3
      vertex 13.1168 34.7253 0
    endloop
  endfacet
  facet normal -0.97237 -0.233447 0
    outer loop
      vertex 13.1168 34.7253 1.3
      vertex 13.1791 34.4659 0
      vertex 13.1791 34.4659 1.3
    endloop
  endfacet
  facet normal -0.64945 -0.760404 0
    outer loop
      vertex 12.4992 35.5753 0
      vertex 12.7021 35.4021 1.3
      vertex 12.4992 35.5753 1.3
    endloop
  endfacet
  facet normal -0.64945 -0.760404 -0
    outer loop
      vertex 12.7021 35.4021 1.3
      vertex 12.4992 35.5753 0
      vertex 12.7021 35.4021 0
    endloop
  endfacet
  facet normal -0.0784646 -0.996917 0
    outer loop
      vertex 11.5 35.9 0
      vertex 11.7659 35.8791 1.3
      vertex 11.5 35.9 1.3
    endloop
  endfacet
  facet normal -0.0784646 -0.996917 -0
    outer loop
      vertex 11.7659 35.8791 1.3
      vertex 11.5 35.9 0
      vertex 11.7659 35.8791 0
    endloop
  endfacet
  facet normal -0.522498 -0.852641 0
    outer loop
      vertex 12.2718 35.7147 0
      vertex 12.4992 35.5753 1.3
      vertex 12.2718 35.7147 1.3
    endloop
  endfacet
  facet normal -0.522498 -0.852641 -0
    outer loop
      vertex 12.4992 35.5753 1.3
      vertex 12.2718 35.7147 0
      vertex 12.4992 35.5753 0
    endloop
  endfacet
  facet normal 0.760406 -0.649448 0
    outer loop
      vertex 10.1247 35.1992 1.3
      vertex 10.2979 35.4021 0
      vertex 10.2979 35.4021 1.3
    endloop
  endfacet
  facet normal 0.760406 -0.649448 0
    outer loop
      vertex 10.2979 35.4021 0
      vertex 10.1247 35.1992 1.3
      vertex 10.1247 35.1992 0
    endloop
  endfacet
  facet normal 0.0784643 -0.996917 0
    outer loop
      vertex 11.2341 35.8791 0
      vertex 11.5 35.9 1.3
      vertex 11.2341 35.8791 1.3
    endloop
  endfacet
  facet normal 0.0784643 -0.996917 0
    outer loop
      vertex 11.5 35.9 1.3
      vertex 11.2341 35.8791 0
      vertex 11.5 35.9 0
    endloop
  endfacet
  facet normal 0.64945 -0.760404 0
    outer loop
      vertex 10.2979 35.4021 0
      vertex 10.5008 35.5753 1.3
      vertex 10.2979 35.4021 1.3
    endloop
  endfacet
  facet normal 0.64945 -0.760404 0
    outer loop
      vertex 10.5008 35.5753 1.3
      vertex 10.2979 35.4021 0
      vertex 10.5008 35.5753 0
    endloop
  endfacet
  facet normal -0.996917 -0.0784611 0
    outer loop
      vertex 13.2 34.2 0
      vertex 13.1791 34.4659 1.3
      vertex 13.1791 34.4659 0
    endloop
  endfacet
  facet normal -0.996917 -0.0784611 0
    outer loop
      vertex 13.1791 34.4659 1.3
      vertex 13.2 34.2 0
      vertex 13.2 34.2 1.3
    endloop
  endfacet
  facet normal -0.92388 0.382682 0
    outer loop
      vertex 13.0147 33.4282 0
      vertex 13.1168 33.6747 1.3
      vertex 13.1168 33.6747 0
    endloop
  endfacet
  facet normal -0.92388 0.382682 0
    outer loop
      vertex 13.1168 33.6747 1.3
      vertex 13.0147 33.4282 0
      vertex 13.0147 33.4282 1.3
    endloop
  endfacet
  facet normal -0.522498 0.852641 0
    outer loop
      vertex 12.4992 32.8247 0
      vertex 12.2718 32.6853 1.3
      vertex 12.4992 32.8247 1.3
    endloop
  endfacet
  facet normal -0.522498 0.852641 0
    outer loop
      vertex 12.2718 32.6853 1.3
      vertex 12.4992 32.8247 0
      vertex 12.2718 32.6853 0
    endloop
  endfacet
  facet normal -0.760406 -0.649448 0
    outer loop
      vertex 12.8753 35.1992 0
      vertex 12.7021 35.4021 1.3
      vertex 12.7021 35.4021 0
    endloop
  endfacet
  facet normal -0.760406 -0.649448 0
    outer loop
      vertex 12.7021 35.4021 1.3
      vertex 12.8753 35.1992 0
      vertex 12.8753 35.1992 1.3
    endloop
  endfacet
  facet normal -0.233448 -0.972369 0
    outer loop
      vertex 11.7659 35.8791 0
      vertex 12.0253 35.8168 1.3
      vertex 11.7659 35.8791 1.3
    endloop
  endfacet
  facet normal -0.233448 -0.972369 -0
    outer loop
      vertex 12.0253 35.8168 1.3
      vertex 11.7659 35.8791 0
      vertex 12.0253 35.8168 0
    endloop
  endfacet
  facet normal 0.996917 -0.0784611 0
    outer loop
      vertex 9.8 34.2 1.3
      vertex 9.82093 34.4659 0
      vertex 9.82093 34.4659 1.3
    endloop
  endfacet
  facet normal 0.996917 -0.0784611 0
    outer loop
      vertex 9.82093 34.4659 0
      vertex 9.8 34.2 1.3
      vertex 9.8 34.2 0
    endloop
  endfacet
  facet normal 0.92388 -0.382682 0
    outer loop
      vertex 9.8832 34.7253 1.3
      vertex 9.98529 34.9718 0
      vertex 9.98529 34.9718 1.3
    endloop
  endfacet
  facet normal 0.92388 -0.382682 0
    outer loop
      vertex 9.98529 34.9718 0
      vertex 9.8832 34.7253 1.3
      vertex 9.8832 34.7253 0
    endloop
  endfacet
  facet normal 0.522498 -0.852641 0
    outer loop
      vertex 10.5008 35.5753 0
      vertex 10.7282 35.7147 1.3
      vertex 10.5008 35.5753 1.3
    endloop
  endfacet
  facet normal 0.522498 -0.852641 0
    outer loop
      vertex 10.7282 35.7147 1.3
      vertex 10.5008 35.5753 0
      vertex 10.7282 35.7147 0
    endloop
  endfacet
  facet normal 0.382684 -0.923879 0
    outer loop
      vertex 10.7282 35.7147 0
      vertex 10.9747 35.8168 1.3
      vertex 10.7282 35.7147 1.3
    endloop
  endfacet
  facet normal 0.382684 -0.923879 0
    outer loop
      vertex 10.9747 35.8168 1.3
      vertex 10.7282 35.7147 0
      vertex 10.9747 35.8168 0
    endloop
  endfacet
  facet normal -0.97237 0.233447 0
    outer loop
      vertex 13.1168 33.6747 0
      vertex 13.1791 33.9341 1.3
      vertex 13.1791 33.9341 0
    endloop
  endfacet
  facet normal -0.97237 0.233447 0
    outer loop
      vertex 13.1791 33.9341 1.3
      vertex 13.1168 33.6747 0
      vertex 13.1168 33.6747 1.3
    endloop
  endfacet
  facet normal -0.85264 0.522499 0
    outer loop
      vertex 12.8753 33.2008 0
      vertex 13.0147 33.4282 1.3
      vertex 13.0147 33.4282 0
    endloop
  endfacet
  facet normal -0.85264 0.522499 0
    outer loop
      vertex 13.0147 33.4282 1.3
      vertex 12.8753 33.2008 0
      vertex 12.8753 33.2008 1.3
    endloop
  endfacet
  facet normal 0.996917 0.07846 0
    outer loop
      vertex 9.82093 33.9341 1.3
      vertex 9.8 34.2 0
      vertex 9.8 34.2 1.3
    endloop
  endfacet
  facet normal 0.996917 0.07846 0
    outer loop
      vertex 9.8 34.2 0
      vertex 9.82093 33.9341 1.3
      vertex 9.82093 33.9341 0
    endloop
  endfacet
  facet normal 0.97237 0.233447 0
    outer loop
      vertex 9.8832 33.6747 1.3
      vertex 9.82093 33.9341 0
      vertex 9.82093 33.9341 1.3
    endloop
  endfacet
  facet normal 0.97237 0.233447 0
    outer loop
      vertex 9.82093 33.9341 0
      vertex 9.8832 33.6747 1.3
      vertex 9.8832 33.6747 0
    endloop
  endfacet
  facet normal -0.233448 0.972369 0
    outer loop
      vertex 12.0253 32.5832 0
      vertex 11.7659 32.5209 1.3
      vertex 12.0253 32.5832 1.3
    endloop
  endfacet
  facet normal -0.233448 0.972369 0
    outer loop
      vertex 11.7659 32.5209 1.3
      vertex 12.0253 32.5832 0
      vertex 11.7659 32.5209 0
    endloop
  endfacet
  facet normal -0.382684 0.923879 0
    outer loop
      vertex 12.2718 32.6853 0
      vertex 12.0253 32.5832 1.3
      vertex 12.2718 32.6853 1.3
    endloop
  endfacet
  facet normal -0.382684 0.923879 0
    outer loop
      vertex 12.0253 32.5832 1.3
      vertex 12.2718 32.6853 0
      vertex 12.0253 32.5832 0
    endloop
  endfacet
  facet normal 0.97237 -0.233447 0
    outer loop
      vertex 9.82093 34.4659 1.3
      vertex 9.8832 34.7253 0
      vertex 9.8832 34.7253 1.3
    endloop
  endfacet
  facet normal 0.97237 -0.233447 0
    outer loop
      vertex 9.8832 34.7253 0
      vertex 9.82093 34.4659 1.3
      vertex 9.82093 34.4659 0
    endloop
  endfacet
  facet normal -0.996917 0.07846 0
    outer loop
      vertex 13.1791 33.9341 0
      vertex 13.2 34.2 1.3
      vertex 13.2 34.2 0
    endloop
  endfacet
  facet normal -0.996917 0.07846 0
    outer loop
      vertex 13.2 34.2 1.3
      vertex 13.1791 33.9341 0
      vertex 13.1791 33.9341 1.3
    endloop
  endfacet
  facet normal 0.233448 0.972369 -0
    outer loop
      vertex 11.2341 32.5209 0
      vertex 10.9747 32.5832 1.3
      vertex 11.2341 32.5209 1.3
    endloop
  endfacet
  facet normal 0.233448 0.972369 0
    outer loop
      vertex 10.9747 32.5832 1.3
      vertex 11.2341 32.5209 0
      vertex 10.9747 32.5832 0
    endloop
  endfacet
  facet normal 0.0784501 0.996918 -0
    outer loop
      vertex 11.5 32.5 0
      vertex 11.2341 32.5209 1.3
      vertex 11.5 32.5 1.3
    endloop
  endfacet
  facet normal 0.0784501 0.996918 0
    outer loop
      vertex 11.2341 32.5209 1.3
      vertex 11.5 32.5 0
      vertex 11.2341 32.5209 0
    endloop
  endfacet
  facet normal 0.760406 0.649448 0
    outer loop
      vertex 10.2979 32.9979 1.3
      vertex 10.1247 33.2008 0
      vertex 10.1247 33.2008 1.3
    endloop
  endfacet
  facet normal 0.760406 0.649448 0
    outer loop
      vertex 10.1247 33.2008 0
      vertex 10.2979 32.9979 1.3
      vertex 10.2979 32.9979 0
    endloop
  endfacet
  facet normal -0.760406 0.649448 0
    outer loop
      vertex 12.7021 32.9979 0
      vertex 12.8753 33.2008 1.3
      vertex 12.8753 33.2008 0
    endloop
  endfacet
  facet normal -0.760406 0.649448 0
    outer loop
      vertex 12.8753 33.2008 1.3
      vertex 12.7021 32.9979 0
      vertex 12.7021 32.9979 1.3
    endloop
  endfacet
  facet normal 0.522498 0.852641 -0
    outer loop
      vertex 10.7282 32.6853 0
      vertex 10.5008 32.8247 1.3
      vertex 10.7282 32.6853 1.3
    endloop
  endfacet
  facet normal 0.522498 0.852641 0
    outer loop
      vertex 10.5008 32.8247 1.3
      vertex 10.7282 32.6853 0
      vertex 10.5008 32.8247 0
    endloop
  endfacet
  facet normal 0.382684 0.923879 -0
    outer loop
      vertex 10.9747 32.5832 0
      vertex 10.7282 32.6853 1.3
      vertex 10.9747 32.5832 1.3
    endloop
  endfacet
  facet normal 0.382684 0.923879 0
    outer loop
      vertex 10.7282 32.6853 1.3
      vertex 10.9747 32.5832 0
      vertex 10.7282 32.6853 0
    endloop
  endfacet
  facet normal -0.0784504 0.996918 0
    outer loop
      vertex 11.7659 32.5209 0
      vertex 11.5 32.5 1.3
      vertex 11.7659 32.5209 1.3
    endloop
  endfacet
  facet normal -0.0784504 0.996918 0
    outer loop
      vertex 11.5 32.5 1.3
      vertex 11.7659 32.5209 0
      vertex 11.5 32.5 0
    endloop
  endfacet
  facet normal 0.92388 0.382682 0
    outer loop
      vertex 9.98529 33.4282 1.3
      vertex 9.8832 33.6747 0
      vertex 9.8832 33.6747 1.3
    endloop
  endfacet
  facet normal 0.92388 0.382682 0
    outer loop
      vertex 9.8832 33.6747 0
      vertex 9.98529 33.4282 1.3
      vertex 9.98529 33.4282 0
    endloop
  endfacet
  facet normal 0.85264 0.522499 0
    outer loop
      vertex 10.1247 33.2008 1.3
      vertex 9.98529 33.4282 0
      vertex 9.98529 33.4282 1.3
    endloop
  endfacet
  facet normal 0.85264 0.522499 0
    outer loop
      vertex 9.98529 33.4282 0
      vertex 10.1247 33.2008 1.3
      vertex 10.1247 33.2008 0
    endloop
  endfacet
  facet normal -0.64945 0.760404 0
    outer loop
      vertex 12.7021 32.9979 0
      vertex 12.4992 32.8247 1.3
      vertex 12.7021 32.9979 1.3
    endloop
  endfacet
  facet normal -0.64945 0.760404 0
    outer loop
      vertex 12.4992 32.8247 1.3
      vertex 12.7021 32.9979 0
      vertex 12.4992 32.8247 0
    endloop
  endfacet
  facet normal 0.64945 0.760404 -0
    outer loop
      vertex 10.5008 32.8247 0
      vertex 10.2979 32.9979 1.3
      vertex 10.5008 32.8247 1.3
    endloop
  endfacet
  facet normal 0.64945 0.760404 0
    outer loop
      vertex 10.2979 32.9979 1.3
      vertex 10.5008 32.8247 0
      vertex 10.2979 32.9979 0
    endloop
  endfacet
  facet normal 0.52249 0.852646 -0
    outer loop
      vertex 102.288 32.6853 0
      vertex 102.061 32.8247 1.3
      vertex 102.288 32.6853 1.3
    endloop
  endfacet
  facet normal 0.52249 0.852646 0
    outer loop
      vertex 102.061 32.8247 1.3
      vertex 102.288 32.6853 0
      vertex 102.061 32.8247 0
    endloop
  endfacet
  facet normal -0.972372 0.233437 0
    outer loop
      vertex 104.677 33.6747 0
      vertex 104.739 33.9341 1.3
      vertex 104.739 33.9341 0
    endloop
  endfacet
  facet normal -0.972372 0.233437 0
    outer loop
      vertex 104.739 33.9341 1.3
      vertex 104.677 33.6747 0
      vertex 104.677 33.6747 1.3
    endloop
  endfacet
  facet normal 0.649457 -0.760398 0
    outer loop
      vertex 101.858 35.4021 0
      vertex 102.061 35.5753 1.3
      vertex 101.858 35.4021 1.3
    endloop
  endfacet
  facet normal 0.649457 -0.760398 0
    outer loop
      vertex 102.061 35.5753 1.3
      vertex 101.858 35.4021 0
      vertex 102.061 35.5753 0
    endloop
  endfacet
  facet normal 0.923885 -0.38267 0
    outer loop
      vertex 101.443 34.7253 1.3
      vertex 101.545 34.9718 0
      vertex 101.545 34.9718 1.3
    endloop
  endfacet
  facet normal 0.923885 -0.38267 0
    outer loop
      vertex 101.545 34.9718 0
      vertex 101.443 34.7253 1.3
      vertex 101.443 34.7253 0
    endloop
  endfacet
  facet normal -0.972372 -0.233437 0
    outer loop
      vertex 104.739 34.4659 0
      vertex 104.677 34.7253 1.3
      vertex 104.677 34.7253 0
    endloop
  endfacet
  facet normal -0.972372 -0.233437 0
    outer loop
      vertex 104.677 34.7253 1.3
      vertex 104.739 34.4659 0
      vertex 104.739 34.4659 1.3
    endloop
  endfacet
  facet normal -0.382677 -0.923882 0
    outer loop
      vertex 103.585 35.8168 0
      vertex 103.832 35.7147 1.3
      vertex 103.585 35.8168 1.3
    endloop
  endfacet
  facet normal -0.382677 -0.923882 -0
    outer loop
      vertex 103.832 35.7147 1.3
      vertex 103.585 35.8168 0
      vertex 103.832 35.7147 0
    endloop
  endfacet
  facet normal 0.852642 0.522496 0
    outer loop
      vertex 101.685 33.2008 1.3
      vertex 101.545 33.4282 0
      vertex 101.545 33.4282 1.3
    endloop
  endfacet
  facet normal 0.852642 0.522496 0
    outer loop
      vertex 101.545 33.4282 0
      vertex 101.685 33.2008 1.3
      vertex 101.685 33.2008 0
    endloop
  endfacet
  facet normal 0.972365 0.233464 0
    outer loop
      vertex 101.443 33.6747 1.3
      vertex 101.381 33.9341 0
      vertex 101.381 33.9341 1.3
    endloop
  endfacet
  facet normal 0.972365 0.233464 0
    outer loop
      vertex 101.381 33.9341 0
      vertex 101.443 33.6747 1.3
      vertex 101.443 33.6747 0
    endloop
  endfacet
  facet normal 0.760404 0.64945 0
    outer loop
      vertex 101.858 32.9979 1.3
      vertex 101.685 33.2008 0
      vertex 101.685 33.2008 1.3
    endloop
  endfacet
  facet normal 0.760404 0.64945 0
    outer loop
      vertex 101.685 33.2008 0
      vertex 101.858 32.9979 1.3
      vertex 101.858 32.9979 0
    endloop
  endfacet
  facet normal 0.233447 0.97237 -0
    outer loop
      vertex 102.794 32.5209 0
      vertex 102.535 32.5832 1.3
      vertex 102.794 32.5209 1.3
    endloop
  endfacet
  facet normal 0.233447 0.97237 0
    outer loop
      vertex 102.535 32.5832 1.3
      vertex 102.794 32.5209 0
      vertex 102.535 32.5832 0
    endloop
  endfacet
  facet normal 0.0784504 0.996918 -0
    outer loop
      vertex 103.06 32.5 0
      vertex 102.794 32.5209 1.3
      vertex 103.06 32.5 1.3
    endloop
  endfacet
  facet normal 0.0784504 0.996918 0
    outer loop
      vertex 102.794 32.5209 1.3
      vertex 103.06 32.5 0
      vertex 102.794 32.5209 0
    endloop
  endfacet
  facet normal -0.996916 0.0784777 0
    outer loop
      vertex 104.739 33.9341 0
      vertex 104.76 34.2 1.3
      vertex 104.76 34.2 0
    endloop
  endfacet
  facet normal -0.996916 0.0784777 0
    outer loop
      vertex 104.76 34.2 1.3
      vertex 104.739 33.9341 0
      vertex 104.739 33.9341 1.3
    endloop
  endfacet
  facet normal -0.852642 0.522496 0
    outer loop
      vertex 104.435 33.2008 0
      vertex 104.575 33.4282 1.3
      vertex 104.575 33.4282 0
    endloop
  endfacet
  facet normal -0.852642 0.522496 0
    outer loop
      vertex 104.575 33.4282 1.3
      vertex 104.435 33.2008 0
      vertex 104.435 33.2008 1.3
    endloop
  endfacet
  facet normal -0.649443 0.76041 0
    outer loop
      vertex 104.262 32.9979 0
      vertex 104.059 32.8247 1.3
      vertex 104.262 32.9979 1.3
    endloop
  endfacet
  facet normal -0.649443 0.76041 0
    outer loop
      vertex 104.059 32.8247 1.3
      vertex 104.262 32.9979 0
      vertex 104.059 32.8247 0
    endloop
  endfacet
  facet normal -0.382677 0.923882 0
    outer loop
      vertex 103.832 32.6853 0
      vertex 103.585 32.5832 1.3
      vertex 103.832 32.6853 1.3
    endloop
  endfacet
  facet normal -0.382677 0.923882 0
    outer loop
      vertex 103.585 32.5832 1.3
      vertex 103.832 32.6853 0
      vertex 103.585 32.5832 0
    endloop
  endfacet
  facet normal -0.760418 0.649434 0
    outer loop
      vertex 104.262 32.9979 0
      vertex 104.435 33.2008 1.3
      vertex 104.435 33.2008 0
    endloop
  endfacet
  facet normal -0.760418 0.649434 0
    outer loop
      vertex 104.435 33.2008 1.3
      vertex 104.262 32.9979 0
      vertex 104.262 32.9979 1.3
    endloop
  endfacet
  facet normal 0.0784646 -0.996917 0
    outer loop
      vertex 102.794 35.8791 0
      vertex 103.06 35.9 1.3
      vertex 102.794 35.8791 1.3
    endloop
  endfacet
  facet normal 0.0784646 -0.996917 0
    outer loop
      vertex 103.06 35.9 1.3
      vertex 102.794 35.8791 0
      vertex 103.06 35.9 0
    endloop
  endfacet
  facet normal 0.233447 -0.97237 0
    outer loop
      vertex 102.535 35.8168 0
      vertex 102.794 35.8791 1.3
      vertex 102.535 35.8168 1.3
    endloop
  endfacet
  facet normal 0.233447 -0.97237 0
    outer loop
      vertex 102.794 35.8791 1.3
      vertex 102.535 35.8168 0
      vertex 102.794 35.8791 0
    endloop
  endfacet
  facet normal 0.760404 -0.64945 0
    outer loop
      vertex 101.685 35.1992 1.3
      vertex 101.858 35.4021 0
      vertex 101.858 35.4021 1.3
    endloop
  endfacet
  facet normal 0.760404 -0.64945 0
    outer loop
      vertex 101.858 35.4021 0
      vertex 101.685 35.1992 1.3
      vertex 101.685 35.1992 0
    endloop
  endfacet
  facet normal -0.0784646 -0.996917 0
    outer loop
      vertex 103.06 35.9 0
      vertex 103.326 35.8791 1.3
      vertex 103.06 35.9 1.3
    endloop
  endfacet
  facet normal -0.0784646 -0.996917 -0
    outer loop
      vertex 103.326 35.8791 1.3
      vertex 103.06 35.9 0
      vertex 103.326 35.8791 0
    endloop
  endfacet
  facet normal -0.649443 -0.76041 0
    outer loop
      vertex 104.059 35.5753 0
      vertex 104.262 35.4021 1.3
      vertex 104.059 35.5753 1.3
    endloop
  endfacet
  facet normal -0.649443 -0.76041 -0
    outer loop
      vertex 104.262 35.4021 1.3
      vertex 104.059 35.5753 0
      vertex 104.262 35.4021 0
    endloop
  endfacet
  facet normal -0.923875 -0.382694 0
    outer loop
      vertex 104.677 34.7253 0
      vertex 104.575 34.9718 1.3
      vertex 104.575 34.9718 0
    endloop
  endfacet
  facet normal -0.923875 -0.382694 0
    outer loop
      vertex 104.575 34.9718 1.3
      vertex 104.677 34.7253 0
      vertex 104.677 34.7253 1.3
    endloop
  endfacet
  facet normal -0.996916 -0.0784788 0
    outer loop
      vertex 104.76 34.2 0
      vertex 104.739 34.4659 1.3
      vertex 104.739 34.4659 0
    endloop
  endfacet
  facet normal -0.996916 -0.0784788 0
    outer loop
      vertex 104.739 34.4659 1.3
      vertex 104.76 34.2 0
      vertex 104.76 34.2 1.3
    endloop
  endfacet
  facet normal 0.923885 0.38267 0
    outer loop
      vertex 101.545 33.4282 1.3
      vertex 101.443 33.6747 0
      vertex 101.443 33.6747 1.3
    endloop
  endfacet
  facet normal 0.923885 0.38267 0
    outer loop
      vertex 101.443 33.6747 0
      vertex 101.545 33.4282 1.3
      vertex 101.545 33.4282 0
    endloop
  endfacet
  facet normal 0.649457 0.760398 -0
    outer loop
      vertex 102.061 32.8247 0
      vertex 101.858 32.9979 1.3
      vertex 102.061 32.8247 1.3
    endloop
  endfacet
  facet normal 0.649457 0.760398 0
    outer loop
      vertex 101.858 32.9979 1.3
      vertex 102.061 32.8247 0
      vertex 101.858 32.9979 0
    endloop
  endfacet
  facet normal -0.0784504 0.996918 0
    outer loop
      vertex 103.326 32.5209 0
      vertex 103.06 32.5 1.3
      vertex 103.326 32.5209 1.3
    endloop
  endfacet
  facet normal -0.0784504 0.996918 0
    outer loop
      vertex 103.06 32.5 1.3
      vertex 103.326 32.5209 0
      vertex 103.06 32.5 0
    endloop
  endfacet
  facet normal 0.382687 0.923878 -0
    outer loop
      vertex 102.535 32.5832 0
      vertex 102.288 32.6853 1.3
      vertex 102.535 32.5832 1.3
    endloop
  endfacet
  facet normal 0.382687 0.923878 0
    outer loop
      vertex 102.288 32.6853 1.3
      vertex 102.535 32.5832 0
      vertex 102.288 32.6853 0
    endloop
  endfacet
  facet normal -0.923875 0.382694 0
    outer loop
      vertex 104.575 33.4282 0
      vertex 104.677 33.6747 1.3
      vertex 104.677 33.6747 0
    endloop
  endfacet
  facet normal -0.923875 0.382694 0
    outer loop
      vertex 104.677 33.6747 1.3
      vertex 104.575 33.4282 0
      vertex 104.575 33.4282 1.3
    endloop
  endfacet
  facet normal -0.522502 0.852638 0
    outer loop
      vertex 104.059 32.8247 0
      vertex 103.832 32.6853 1.3
      vertex 104.059 32.8247 1.3
    endloop
  endfacet
  facet normal -0.522502 0.852638 0
    outer loop
      vertex 103.832 32.6853 1.3
      vertex 104.059 32.8247 0
      vertex 103.832 32.6853 0
    endloop
  endfacet
  facet normal -0.233447 0.97237 0
    outer loop
      vertex 103.585 32.5832 0
      vertex 103.326 32.5209 1.3
      vertex 103.585 32.5832 1.3
    endloop
  endfacet
  facet normal -0.233447 0.97237 0
    outer loop
      vertex 103.326 32.5209 1.3
      vertex 103.585 32.5832 0
      vertex 103.326 32.5209 0
    endloop
  endfacet
  facet normal 0.996918 0.0784493 0
    outer loop
      vertex 101.381 33.9341 1.3
      vertex 101.36 34.2 0
      vertex 101.36 34.2 1.3
    endloop
  endfacet
  facet normal 0.996918 0.0784493 0
    outer loop
      vertex 101.36 34.2 0
      vertex 101.381 33.9341 1.3
      vertex 101.381 33.9341 0
    endloop
  endfacet
  facet normal 0.996918 -0.0784504 0
    outer loop
      vertex 101.36 34.2 1.3
      vertex 101.381 34.4659 0
      vertex 101.381 34.4659 1.3
    endloop
  endfacet
  facet normal 0.996918 -0.0784504 0
    outer loop
      vertex 101.381 34.4659 0
      vertex 101.36 34.2 1.3
      vertex 101.36 34.2 0
    endloop
  endfacet
  facet normal 0.972365 -0.233464 0
    outer loop
      vertex 101.381 34.4659 1.3
      vertex 101.443 34.7253 0
      vertex 101.443 34.7253 1.3
    endloop
  endfacet
  facet normal 0.972365 -0.233464 0
    outer loop
      vertex 101.443 34.7253 0
      vertex 101.381 34.4659 1.3
      vertex 101.381 34.4659 0
    endloop
  endfacet
  facet normal 0.52249 -0.852646 0
    outer loop
      vertex 102.061 35.5753 0
      vertex 102.288 35.7147 1.3
      vertex 102.061 35.5753 1.3
    endloop
  endfacet
  facet normal 0.52249 -0.852646 0
    outer loop
      vertex 102.288 35.7147 1.3
      vertex 102.061 35.5753 0
      vertex 102.288 35.7147 0
    endloop
  endfacet
  facet normal 0.382687 -0.923878 0
    outer loop
      vertex 102.288 35.7147 0
      vertex 102.535 35.8168 1.3
      vertex 102.288 35.7147 1.3
    endloop
  endfacet
  facet normal 0.382687 -0.923878 0
    outer loop
      vertex 102.535 35.8168 1.3
      vertex 102.288 35.7147 0
      vertex 102.535 35.8168 0
    endloop
  endfacet
  facet normal 0.852642 -0.522496 0
    outer loop
      vertex 101.545 34.9718 1.3
      vertex 101.685 35.1992 0
      vertex 101.685 35.1992 1.3
    endloop
  endfacet
  facet normal 0.852642 -0.522496 0
    outer loop
      vertex 101.685 35.1992 0
      vertex 101.545 34.9718 1.3
      vertex 101.545 34.9718 0
    endloop
  endfacet
  facet normal -0.233447 -0.97237 0
    outer loop
      vertex 103.326 35.8791 0
      vertex 103.585 35.8168 1.3
      vertex 103.326 35.8791 1.3
    endloop
  endfacet
  facet normal -0.233447 -0.97237 -0
    outer loop
      vertex 103.585 35.8168 1.3
      vertex 103.326 35.8791 0
      vertex 103.585 35.8168 0
    endloop
  endfacet
  facet normal -0.522502 -0.852638 0
    outer loop
      vertex 103.832 35.7147 0
      vertex 104.059 35.5753 1.3
      vertex 103.832 35.7147 1.3
    endloop
  endfacet
  facet normal -0.522502 -0.852638 -0
    outer loop
      vertex 104.059 35.5753 1.3
      vertex 103.832 35.7147 0
      vertex 104.059 35.5753 0
    endloop
  endfacet
  facet normal -0.852642 -0.522496 0
    outer loop
      vertex 104.575 34.9718 0
      vertex 104.435 35.1992 1.3
      vertex 104.435 35.1992 0
    endloop
  endfacet
  facet normal -0.852642 -0.522496 0
    outer loop
      vertex 104.435 35.1992 1.3
      vertex 104.575 34.9718 0
      vertex 104.575 34.9718 1.3
    endloop
  endfacet
  facet normal -0.760418 -0.649434 0
    outer loop
      vertex 104.435 35.1992 0
      vertex 104.262 35.4021 1.3
      vertex 104.262 35.4021 0
    endloop
  endfacet
  facet normal -0.760418 -0.649434 0
    outer loop
      vertex 104.262 35.4021 1.3
      vertex 104.435 35.1992 0
      vertex 104.435 35.1992 1.3
    endloop
  endfacet
  facet normal 1 -0 0
    outer loop
      vertex 65.11 14.4 1.3
      vertex 65.11 47.4 0
      vertex 65.11 47.4 1.3
    endloop
  endfacet
  facet normal 1 0 0
    outer loop
      vertex 65.11 47.4 0
      vertex 65.11 14.4 1.3
      vertex 65.11 14.4 0
    endloop
  endfacet
  facet normal -1 0 0
    outer loop
      vertex 78.11 14.4 0
      vertex 78.11 47.4 1.3
      vertex 78.11 47.4 0
    endloop
  endfacet
  facet normal -1 -0 0
    outer loop
      vertex 78.11 47.4 1.3
      vertex 78.11 14.4 0
      vertex 78.11 14.4 1.3
    endloop
  endfacet
  facet normal 0 1 -0
    outer loop
      vertex 78.11 14.4 0
      vertex 65.11 14.4 1.3
      vertex 78.11 14.4 1.3
    endloop
  endfacet
  facet normal 0 1 0
    outer loop
      vertex 65.11 14.4 1.3
      vertex 78.11 14.4 0
      vertex 65.11 14.4 0
    endloop
  endfacet
  facet normal 0 -1 0
    outer loop
      vertex 65.11 47.4 0
      vertex 78.11 47.4 1.3
      vertex 65.11 47.4 1.3
    endloop
  endfacet
  facet normal 0 -1 -0
    outer loop
      vertex 78.11 47.4 1.3
      vertex 65.11 47.4 0
      vertex 78.11 47.4 0
    endloop
  endfacet
  facet normal 1 -0 0
    outer loop
      vertex 83.61 14.4 1.3
      vertex 83.61 47.4 0
      vertex 83.61 47.4 1.3
    endloop
  endfacet
  facet normal 1 0 0
    outer loop
      vertex 83.61 47.4 0
      vertex 83.61 14.4 1.3
      vertex 83.61 14.4 0
    endloop
  endfacet
  facet normal -1 0 0
    outer loop
      vertex 96.61 14.4 0
      vertex 96.61 47.4 1.3
      vertex 96.61 47.4 0
    endloop
  endfacet
  facet normal -1 -0 0
    outer loop
      vertex 96.61 47.4 1.3
      vertex 96.61 14.4 0
      vertex 96.61 14.4 1.3
    endloop
  endfacet
  facet normal 0 -1 0
    outer loop
      vertex 83.61 47.4 0
      vertex 96.61 47.4 1.3
      vertex 83.61 47.4 1.3
    endloop
  endfacet
  facet normal 0 -1 -0
    outer loop
      vertex 96.61 47.4 1.3
      vertex 83.61 47.4 0
      vertex 96.61 47.4 0
    endloop
  endfacet
  facet normal 0 1 -0
    outer loop
      vertex 96.61 14.4 0
      vertex 83.61 14.4 1.3
      vertex 96.61 14.4 1.3
    endloop
  endfacet
  facet normal 0 1 0
    outer loop
      vertex 83.61 14.4 1.3
      vertex 96.61 14.4 0
      vertex 83.61 14.4 0
    endloop
  endfacet
  facet normal 1 -0 0
    outer loop
      vertex 24.38 15.4 1.3
      vertex 24.38 29.4 0
      vertex 24.38 29.4 1.3
    endloop
  endfacet
  facet normal 1 0 0
    outer loop
      vertex 24.38 29.4 0
      vertex 24.38 15.4 1.3
      vertex 24.38 15.4 0
    endloop
  endfacet
  facet normal -1 0 0
    outer loop
      vertex 39.38 15.4 0
      vertex 39.38 29.4 1.3
      vertex 39.38 29.4 0
    endloop
  endfacet
  facet normal -1 -0 0
    outer loop
      vertex 39.38 29.4 1.3
      vertex 39.38 15.4 0
      vertex 39.38 15.4 1.3
    endloop
  endfacet
  facet normal 0 -1 0
    outer loop
      vertex 24.38 29.4 0
      vertex 39.38 29.4 1.3
      vertex 24.38 29.4 1.3
    endloop
  endfacet
  facet normal 0 -1 -0
    outer loop
      vertex 39.38 29.4 1.3
      vertex 24.38 29.4 0
      vertex 39.38 29.4 0
    endloop
  endfacet
  facet normal 0 1 -0
    outer loop
      vertex 39.38 15.4 0
      vertex 24.38 15.4 1.3
      vertex 39.38 15.4 1.3
    endloop
  endfacet
  facet normal 0 1 0
    outer loop
      vertex 24.38 15.4 1.3
      vertex 39.38 15.4 0
      vertex 24.38 15.4 0
    endloop
  endfacet
endsolid OpenSCAD_Model
