*
*
G04 PowerPCB (Build Number 500.281.2.20) generated Gerber (RS-274-X) file*
G04 PC Version=2.1*
*
%IN "HMUSTEK.pcb"*%
*
%MOIN*%
*
%FSLAX26Y26*%
*
*
*
*
G04 PC Standard Apertures*
*
*
G04 Thermal Relief Aperture macro.*
%AMTER*
1,1,$1,0,0*
1,0,$1-$2,0,0*
21,0,$3,$4,0,0,45*
21,0,$3,$4,0,0,135*
%
*
*
G04 Annular Aperture macro.*
%AMANN*
1,1,$1,0,0*
1,0,$2,0,0*
%
*
*
G04 Odd Aperture macro.*
%AMODD*
1,1,$1,0,0*
1,0,$1-0.005,0,0*
%
*
*
G04 PC Custom Aperture Macros*
*
*
*
*
*
*
G04 PC Aperture Table*
*
%ADD023C,0.007*%
%ADD024C,0.001*%
%ADD025C,0.01*%
%ADD029C,0.005*%
*
*
*
*
G04 PC Custom Flashes*
G04 Layer Name HMUSTEK.pcb - flashes*
%LPD*%
*
*
G04 PC Circuitry*
G04 Layer Name HMUSTEK.pcb - circuitry*
%LPD*%
*
G54D23*
G01X3700000Y1100000D02*
Y1105000D01*
Y1100000D02*
X3705000D01*
X3700000D02*
Y1095000D01*
Y1100000D02*
X3695000D01*
X3715000D02*
X3765000D01*
X3700000Y1085000D02*
Y1051000D01*
Y1115000D02*
Y1160000D01*
X3640000Y1100000D02*
X3685000D01*
X3730000D02*
G75*
G03X3730000I-30000D01*
G01X3720000D02*
G03X3720000I-20000D01*
G01X3700000Y2900000D02*
Y2905000D01*
Y2900000D02*
X3705000D01*
X3700000D02*
Y2895000D01*
Y2900000D02*
X3695000D01*
X3715000D02*
X3765000D01*
X3700000Y2885000D02*
Y2851000D01*
Y2915000D02*
Y2960000D01*
X3640000Y2900000D02*
X3685000D01*
X3730000D02*
G03X3730000I-30000D01*
G01X3720000D02*
G03X3720000I-20000D01*
G01X1100000Y1100000D02*
Y1105000D01*
Y1100000D02*
X1105000D01*
X1100000D02*
Y1095000D01*
Y1100000D02*
X1095000D01*
X1115000D02*
X1165000D01*
X1100000Y1085000D02*
Y1051000D01*
Y1115000D02*
Y1160000D01*
X1040000Y1100000D02*
X1085000D01*
X1130000D02*
G03X1130000I-30000D01*
G01X1120000D02*
G03X1120000I-20000D01*
G54D24*
G01X1210000Y2790000D02*
X1210020D01*
X3590000D02*
X3590020D01*
X3590000Y1210000D02*
X3590020D01*
X3590000Y2790000D02*
X3590020D01*
G54D25*
X1210000Y3180000D02*
X2213180D01*
X1210000D02*
X1310000Y3205000D01*
Y3155000*
X1210000Y3180000*
X3590000D02*
X2586810D01*
X3590000D02*
X3490000Y3155000D01*
Y3205000*
X3590000Y3180000*
X4070000Y1210000D02*
Y1932500D01*
Y1210000D02*
X4045000Y1310000D01*
X4095000*
X4070000Y1210000*
Y2790000D02*
Y2067500D01*
Y2790000D02*
X4095000Y2690000D01*
X4045000*
X4070000Y2790000*
G54D29*
X1210000D02*
X3590000D01*
Y1210000*
X1210000*
Y2790000*
Y2840000D02*
Y3230000D01*
X3590000Y2840000D02*
Y3230000D01*
X2245450Y3192500D02*
Y3195620D01*
X2245450D02*
X2247720Y3201870D01*
X2247720D02*
X2250000Y3205000D01*
X2254540Y3208120*
X2254540D02*
X2263630D01*
X2263630D02*
X2268180Y3205000D01*
X2270450Y3201870*
X2270450D02*
X2272720Y3195620D01*
X2272720D02*
Y3189370D01*
X2272720D02*
X2270450Y3183120D01*
X2270450D02*
X2265900Y3173750D01*
X2265900D02*
X2243180Y3142500D01*
X2275000*
X2300000Y3208120D02*
X2325000D01*
X2325000D02*
X2311360Y3183120D01*
X2311360D02*
X2318180D01*
X2318180D02*
X2322720Y3180000D01*
X2322720D02*
X2325000Y3176870D01*
X2325000D02*
X2327270Y3167500D01*
Y3161250*
X2325000Y3151870*
X2325000D02*
X2320450Y3145620D01*
X2320450D02*
X2313630Y3142500D01*
X2313630D02*
X2306810D01*
X2306810D02*
X2300000Y3145620D01*
X2300000D02*
X2297720Y3148750D01*
X2297720D02*
X2295450Y3155000D01*
X2359090Y3208120D02*
X2352270Y3205000D01*
X2350000Y3198750*
Y3192500*
X2352270Y3186250*
X2356810Y3183120*
X2356810D02*
X2365900Y3180000D01*
X2365900D02*
X2372720Y3176870D01*
X2372720D02*
X2377270Y3170620D01*
X2377270D02*
X2379540Y3164370D01*
X2379540D02*
Y3155000D01*
X2379540D02*
X2377270Y3148750D01*
X2375000Y3145620*
X2375000D02*
X2368180Y3142500D01*
X2359090*
X2352270Y3145620*
X2352270D02*
X2350000Y3148750D01*
X2347720Y3155000*
X2347720D02*
Y3164370D01*
X2347720D02*
X2350000Y3170620D01*
X2350000D02*
X2354540Y3176870D01*
X2354540D02*
X2361360Y3180000D01*
X2370450Y3183120*
X2370450D02*
X2375000Y3186250D01*
X2377270Y3192500*
Y3198750*
X2375000Y3205000*
X2368180Y3208120*
X2368180D02*
X2359090D01*
X2413630D02*
X2406810Y3205000D01*
X2406810D02*
X2402270Y3195620D01*
X2402270D02*
X2400000Y3180000D01*
Y3170620*
X2400000D02*
X2402270Y3155000D01*
X2406810Y3145620*
X2406810D02*
X2413630Y3142500D01*
X2413630D02*
X2418180D01*
X2425000Y3145620*
X2425000D02*
X2429540Y3155000D01*
X2429540D02*
X2431810Y3170620D01*
X2431810D02*
Y3180000D01*
X2431810D02*
X2429540Y3195620D01*
X2429540D02*
X2425000Y3205000D01*
X2418180Y3208120*
X2418180D02*
X2413630D01*
X2452270Y3186250D02*
Y3142500D01*
Y3173750D02*
X2459090Y3183120D01*
X2459090D02*
X2463630Y3186250D01*
X2463630D02*
X2470450D01*
X2475000Y3183120*
X2475000D02*
X2477270Y3173750D01*
Y3142500*
Y3173750D02*
X2484090Y3183120D01*
X2484090D02*
X2488630Y3186250D01*
X2488630D02*
X2495450D01*
X2500000Y3183120*
X2500000D02*
X2502270Y3173750D01*
Y3142500*
X2522720Y3208120D02*
X2525000Y3205000D01*
X2527270Y3208120*
X2527270D02*
X2525000Y3211250D01*
X2522720Y3208120*
X2525000Y3186250D02*
Y3142500D01*
X2547720Y3208120D02*
Y3142500D01*
X3640000Y1210000D02*
X4120000D01*
X3640000Y2790000D02*
X4120000D01*
X3922270Y2015620D02*
X3926810Y2018750D01*
X3926810D02*
X3933630Y2028120D01*
X3933630D02*
Y1962500D01*
X3983630Y2028120D02*
X3960900D01*
X3960900D02*
X3958630Y2000000D01*
X3958630D02*
X3960900Y2003120D01*
X3960900D02*
X3967720Y2006250D01*
X3967720D02*
X3974540D01*
X3974540D02*
X3981360Y2003120D01*
X3981360D02*
X3985900Y1996870D01*
X3985900D02*
X3988180Y1987500D01*
X3985900Y1981250*
X3985900D02*
X3983630Y1971870D01*
X3983630D02*
X3979090Y1965620D01*
X3979090D02*
X3972270Y1962500D01*
X3965450*
X3958630Y1965620*
X3958630D02*
X3956360Y1968750D01*
X3954090Y1975000*
X4020000Y2028120D02*
X4013180Y2025000D01*
X4010900Y2018750*
X4010900D02*
Y2012500D01*
X4010900D02*
X4013180Y2006250D01*
X4017720Y2003120*
X4017720D02*
X4026810Y2000000D01*
X4026810D02*
X4033630Y1996870D01*
X4033630D02*
X4038180Y1990620D01*
X4038180D02*
X4040450Y1984370D01*
X4040450D02*
Y1975000D01*
X4038180Y1968750*
X4035900Y1965620*
X4035900D02*
X4029090Y1962500D01*
X4020000*
X4013180Y1965620*
X4013180D02*
X4010900Y1968750D01*
X4010900D02*
X4008630Y1975000D01*
X4008630D02*
Y1984370D01*
X4008630D02*
X4010900Y1990620D01*
X4010900D02*
X4015450Y1996870D01*
X4015450D02*
X4022270Y2000000D01*
X4031360Y2003120*
X4031360D02*
X4035900Y2006250D01*
X4035900D02*
X4038180Y2012500D01*
Y2018750*
X4035900Y2025000*
X4035900D02*
X4029090Y2028120D01*
X4029090D02*
X4020000D01*
X4074540D02*
X4067720Y2025000D01*
X4067720D02*
X4063180Y2015620D01*
X4063180D02*
X4060900Y2000000D01*
X4060900D02*
Y1990620D01*
X4060900D02*
X4063180Y1975000D01*
X4067720Y1965620*
X4067720D02*
X4074540Y1962500D01*
X4074540D02*
X4079090D01*
X4085900Y1965620*
X4085900D02*
X4090450Y1975000D01*
X4092720Y1990620*
X4092720D02*
Y2000000D01*
X4092720D02*
X4090450Y2015620D01*
X4090450D02*
X4085900Y2025000D01*
X4085900D02*
X4079090Y2028120D01*
X4079090D02*
X4074540D01*
X4113180Y2006250D02*
Y1962500D01*
Y1993750D02*
X4120000Y2003120D01*
X4120000D02*
X4124540Y2006250D01*
X4124540D02*
X4131360D01*
X4135900Y2003120*
X4135900D02*
X4138180Y1993750D01*
Y1962500*
Y1993750D02*
X4145000Y2003120D01*
X4145000D02*
X4149540Y2006250D01*
X4149540D02*
X4156360D01*
X4160900Y2003120*
X4160900D02*
X4163180Y1993750D01*
Y1962500*
X4183630Y2028120D02*
X4185900Y2025000D01*
X4185900D02*
X4188180Y2028120D01*
X4188180D02*
X4185900Y2031250D01*
X4185900D02*
X4183630Y2028120D01*
X4185900Y2006250D02*
Y1962500D01*
X4208630Y2028120D02*
Y1962500D01*
G74*
X0Y0D02*
M02*
