G75*
G70*
%OFA0B0*%
%FSLAX24Y24*%
%IPPOS*%
%LPD*%
%AMOC8*
5,1,8,0,0,1.08239X$1,22.5*
%
%ADD10C,0.0030*%
%ADD11C,0.0040*%
%ADD12C,0.0060*%
%ADD13C,0.0050*%
D10*
X002616Y013811D02*
X002554Y013873D01*
X002431Y013873D01*
X002369Y013811D01*
X002369Y013565D01*
X002431Y013503D01*
X002554Y013503D01*
X002616Y013565D01*
X002616Y013688D01*
X002493Y013688D01*
X002738Y013503D02*
X002738Y013873D01*
X002985Y013503D01*
X002985Y013873D01*
X003106Y013873D02*
X003106Y013503D01*
X003291Y013503D01*
X003353Y013565D01*
X003353Y013811D01*
X003291Y013873D01*
X003106Y013873D01*
X002616Y009811D02*
X002554Y009873D01*
X002431Y009873D01*
X002369Y009811D01*
X002369Y009565D01*
X002431Y009503D01*
X002554Y009503D01*
X002616Y009565D01*
X002616Y009688D01*
X002493Y009688D01*
X002738Y009503D02*
X002738Y009873D01*
X002985Y009503D01*
X002985Y009873D01*
X003106Y009873D02*
X003106Y009503D01*
X003291Y009503D01*
X003353Y009565D01*
X003353Y009811D01*
X003291Y009873D01*
X003106Y009873D01*
X002616Y010811D02*
X002554Y010873D01*
X002431Y010873D01*
X002369Y010811D01*
X002369Y010750D01*
X002431Y010688D01*
X002554Y010688D01*
X002616Y010626D01*
X002616Y010565D01*
X002554Y010503D01*
X002431Y010503D01*
X002369Y010565D01*
X002985Y010811D02*
X002923Y010873D01*
X002799Y010873D01*
X002738Y010811D01*
X002738Y010565D01*
X002799Y010503D01*
X002923Y010503D01*
X002985Y010565D01*
X003106Y010873D02*
X003106Y010503D01*
X003353Y010503D01*
X002369Y011873D02*
X002369Y011626D01*
X002493Y011503D01*
X002616Y011626D01*
X002616Y011873D01*
X002985Y011811D02*
X002923Y011873D01*
X002799Y011873D01*
X002738Y011811D01*
X002738Y011565D01*
X002799Y011503D01*
X002923Y011503D01*
X002985Y011565D01*
X003353Y011811D02*
X003291Y011873D01*
X003168Y011873D01*
X003106Y011811D01*
X003106Y011565D01*
X003168Y011503D01*
X003291Y011503D01*
X003353Y011565D01*
X002616Y012811D02*
X002554Y012873D01*
X002431Y012873D01*
X002369Y012811D01*
X002369Y012750D01*
X002431Y012688D01*
X002554Y012688D01*
X002616Y012626D01*
X002616Y012565D01*
X002554Y012503D01*
X002431Y012503D01*
X002369Y012565D01*
X002738Y012873D02*
X002738Y012503D01*
X002923Y012503D01*
X002985Y012565D01*
X002985Y012811D01*
X002923Y012873D01*
X002738Y012873D01*
X003106Y012503D02*
X003106Y012750D01*
X003229Y012873D01*
X003353Y012750D01*
X003353Y012503D01*
X003353Y012688D02*
X003106Y012688D01*
D11*
X003919Y021587D02*
X003842Y021511D01*
X003842Y021357D01*
X003919Y021280D01*
X003996Y021280D01*
X004073Y021357D01*
X004073Y021511D01*
X004149Y021587D01*
X004226Y021587D01*
X004303Y021511D01*
X004303Y021357D01*
X004226Y021280D01*
X004303Y021741D02*
X003842Y021741D01*
X004073Y021741D02*
X004073Y022048D01*
X004303Y022048D02*
X003842Y022048D01*
X003842Y022355D02*
X004303Y022355D01*
X003842Y022508D02*
X003842Y022201D01*
X004303Y022969D02*
X004303Y022662D01*
X003996Y022969D01*
X003919Y022969D01*
X003842Y022892D01*
X003842Y022738D01*
X003919Y022662D01*
X003842Y023429D02*
X003842Y023122D01*
X004073Y023122D01*
X003996Y023275D01*
X003996Y023352D01*
X004073Y023429D01*
X004226Y023429D01*
X004303Y023352D01*
X004303Y023199D01*
X004226Y023122D01*
X003842Y023582D02*
X004149Y023582D01*
X004303Y023736D01*
X004149Y023889D01*
X003842Y023889D01*
X004226Y024043D02*
X003919Y024043D01*
X003842Y024120D01*
X003842Y024273D01*
X003919Y024350D01*
X004226Y024350D01*
X004303Y024273D01*
X004303Y024120D01*
X004226Y024043D01*
X003919Y024350D01*
X003996Y024503D02*
X003842Y024657D01*
X004303Y024657D01*
X004303Y024810D02*
X004303Y024503D01*
X004303Y024964D02*
X003996Y024964D01*
X003842Y025117D01*
X003996Y025271D01*
X004303Y025271D01*
X004073Y025271D02*
X004073Y024964D01*
X003502Y022460D02*
X003041Y022460D01*
X003195Y022613D01*
X003041Y022766D01*
X003502Y022766D01*
X003041Y022920D02*
X003502Y022920D01*
X003502Y023227D01*
X003502Y023380D02*
X003195Y023380D01*
X003041Y023534D01*
X003195Y023687D01*
X003502Y023687D01*
X003271Y023687D02*
X003271Y023380D01*
X003502Y023841D02*
X003041Y023841D01*
X003041Y024071D01*
X003118Y024148D01*
X003195Y024148D01*
X003271Y024071D01*
X003348Y024148D01*
X003425Y024148D01*
X003502Y024071D01*
X003502Y023841D01*
X003271Y023841D02*
X003271Y024071D01*
X005035Y022746D02*
X005035Y022439D01*
X004728Y022746D01*
X004651Y022746D01*
X004575Y022669D01*
X004575Y022516D01*
X004651Y022439D01*
X004958Y022899D02*
X004651Y022899D01*
X004575Y022976D01*
X004575Y023129D01*
X004651Y023206D01*
X004958Y023206D01*
X005035Y023129D01*
X005035Y022976D01*
X004958Y022899D01*
X004651Y023206D01*
X004728Y023360D02*
X004575Y023513D01*
X005035Y023513D01*
X005035Y023360D02*
X005035Y023667D01*
X004651Y023820D02*
X004575Y023897D01*
X004575Y024050D01*
X004651Y024127D01*
X004728Y024127D01*
X004805Y024050D01*
X004805Y023974D01*
X004805Y024050D02*
X004882Y024127D01*
X004958Y024127D01*
X005035Y024050D01*
X005035Y023897D01*
X004958Y023820D01*
X002477Y014783D02*
X002477Y015244D01*
X002630Y015090D01*
X002784Y015244D01*
X002784Y014783D01*
X002937Y014783D02*
X002937Y015090D01*
X003091Y015244D01*
X003244Y015090D01*
X003244Y014783D01*
X003244Y015014D02*
X002937Y015014D01*
X003397Y015244D02*
X003704Y014783D01*
X003397Y014783D02*
X003704Y015244D01*
X004318Y015167D02*
X004395Y015244D01*
X004548Y015244D01*
X004625Y015167D01*
X004625Y015090D01*
X004548Y015014D01*
X004472Y015014D01*
X004548Y015014D02*
X004625Y014937D01*
X004625Y014860D01*
X004548Y014783D01*
X004395Y014783D01*
X004318Y014860D01*
X004779Y014783D02*
X004779Y014860D01*
X004855Y014860D01*
X004855Y014783D01*
X004779Y014783D01*
X005009Y015167D02*
X005086Y015244D01*
X005239Y015244D01*
X005316Y015167D01*
X005316Y015090D01*
X005239Y015014D01*
X005162Y015014D01*
X005239Y015014D02*
X005316Y014937D01*
X005316Y014860D01*
X005239Y014783D01*
X005086Y014783D01*
X005009Y014860D01*
X005469Y015244D02*
X005469Y014937D01*
X005623Y014783D01*
X005776Y014937D01*
X005776Y015244D01*
D12*
X003720Y009429D02*
X003720Y009929D01*
X003970Y010179D01*
X003720Y010429D01*
X003720Y010929D01*
X003970Y011179D01*
X003720Y009429D02*
X003970Y009179D01*
X003970Y011179D02*
X003720Y011429D01*
X003720Y011929D01*
X003970Y012179D01*
X003720Y012429D02*
X003720Y012929D01*
X003970Y013179D01*
X003720Y013429D01*
X003720Y013929D01*
X003720Y012429D02*
X003970Y012179D01*
X005470Y010179D02*
X005720Y009929D01*
X005470Y011179D02*
X005720Y010929D01*
X005720Y010429D01*
X005470Y010179D01*
X003970Y009179D02*
X005470Y009179D01*
X005720Y009429D01*
X005720Y009929D01*
X005470Y012179D02*
X005720Y011929D01*
X005720Y011429D01*
X005470Y011179D01*
X005720Y012929D02*
X005470Y013179D01*
X005720Y013929D02*
X005720Y013429D01*
X005470Y013179D01*
X005470Y012179D02*
X005720Y012429D01*
X005720Y012929D01*
X005470Y014179D02*
X003970Y014179D01*
X003720Y013929D01*
X005470Y014179D02*
X005720Y013929D01*
D13*
X005670Y009179D02*
X005672Y009192D01*
X005677Y009205D01*
X005686Y009216D01*
X005697Y009223D01*
X005710Y009228D01*
X005723Y009229D01*
X005737Y009226D01*
X005749Y009220D01*
X005759Y009211D01*
X005766Y009199D01*
X005770Y009186D01*
X005770Y009172D01*
X005766Y009159D01*
X005759Y009147D01*
X005749Y009138D01*
X005737Y009132D01*
X005723Y009129D01*
X005710Y009130D01*
X005697Y009135D01*
X005686Y009142D01*
X005677Y009153D01*
X005672Y009166D01*
X005670Y009179D01*
M02*
