G04 #@! TF.FileFunction,Soldermask,Bot*
%FSLAX46Y46*%
G04 Gerber Fmt 4.6, Leading zero omitted, Abs format (unit mm)*
G04 Created by KiCad (PCBNEW 4.0.2+e4-6225~38~ubuntu15.10.1-stable) date Út 31. květen 2016, 18:30:28 CEST*
%MOMM*%
G01*
G04 APERTURE LIST*
%ADD10C,0.300000*%
%ADD11C,3.540000*%
%ADD12C,2.540000*%
%ADD13C,1.540000*%
%ADD14C,1.740000*%
%ADD15R,1.764000X1.764000*%
%ADD16R,1.637000X1.129000*%
%ADD17R,1.129000X1.637000*%
%ADD18C,6.240000*%
%ADD19R,3.897600X2.272000*%
%ADD20R,1.256000X2.272000*%
%ADD21R,2.272000X3.897600*%
%ADD22R,2.272000X1.256000*%
%ADD23R,1.740000X0.690000*%
%ADD24R,2.790160X2.739360*%
%ADD25R,0.539720X0.689580*%
%ADD26R,2.541240X2.739360*%
G04 APERTURE END LIST*
D10*
D11*
X13970000Y5842000D03*
X26670000Y5842000D03*
D12*
X28450000Y9272000D03*
X12190000Y9272000D03*
D13*
X17780000Y8382000D03*
X19810000Y8382000D03*
X21840000Y8382000D03*
X23870000Y8382000D03*
X16760000Y10162000D03*
X18790000Y10162000D03*
X20820000Y10162000D03*
X22850000Y10162000D03*
D14*
X27180000Y14982000D03*
X24890000Y14982000D03*
X15750000Y14982000D03*
X13460000Y14982000D03*
D15*
X35560000Y17526000D03*
X38100000Y17526000D03*
X35560000Y14986000D03*
X38100000Y14986000D03*
X35560000Y12446000D03*
X38100000Y12446000D03*
X35560000Y9906000D03*
X38100000Y9906000D03*
D16*
X30861000Y25336500D03*
X30861000Y23431500D03*
X31877000Y35369500D03*
X31877000Y37274500D03*
D17*
X25844500Y34925000D03*
X23939500Y34925000D03*
D16*
X28702000Y41084500D03*
X28702000Y42989500D03*
D17*
X3746500Y24130000D03*
X1841500Y24130000D03*
D15*
X14224000Y18034000D03*
X14224000Y20574000D03*
X16764000Y18034000D03*
X16764000Y20574000D03*
X19304000Y18034000D03*
X19304000Y20574000D03*
X21844000Y18034000D03*
X21844000Y20574000D03*
X24384000Y18034000D03*
X24384000Y20574000D03*
X26924000Y18034000D03*
X26924000Y20574000D03*
X35179000Y40259000D03*
X37719000Y40259000D03*
X35179000Y37719000D03*
X37719000Y37719000D03*
X35179000Y35179000D03*
X37719000Y35179000D03*
X28702000Y38989000D03*
X28702000Y36449000D03*
X14986000Y37084000D03*
X14986000Y39624000D03*
X14986000Y42164000D03*
X20828000Y45593000D03*
X20828000Y48133000D03*
X23368000Y45593000D03*
X23368000Y48133000D03*
X25908000Y45593000D03*
X25908000Y48133000D03*
X3746500Y37909500D03*
X6286500Y37909500D03*
X6223000Y21209000D03*
X3683000Y21209000D03*
X6223000Y13589000D03*
X3683000Y13589000D03*
X6223000Y16129000D03*
X3683000Y16129000D03*
X6223000Y18669000D03*
X3683000Y18669000D03*
X6223000Y11049000D03*
X3683000Y11049000D03*
D18*
X5080000Y45720000D03*
X35560000Y5080000D03*
X5080000Y5080000D03*
X35560000Y45720000D03*
D17*
X24828500Y12573000D03*
X26733500Y12573000D03*
X14668500Y12827000D03*
X12763500Y12827000D03*
D16*
X17957800Y32956500D03*
X17957800Y31051500D03*
X17945100Y29413200D03*
X17945100Y27508200D03*
X17970500Y26098500D03*
X17970500Y24193500D03*
X23266400Y32727900D03*
X23266400Y30822900D03*
X23266400Y29298900D03*
X23266400Y27393900D03*
X23266400Y25565100D03*
X23266400Y23660100D03*
X28702000Y32600900D03*
X28702000Y30695900D03*
X28702000Y29171900D03*
X28702000Y27266900D03*
X28702000Y25438100D03*
X28702000Y23533100D03*
D17*
X9588500Y32956500D03*
X11493500Y32956500D03*
D16*
X9875520Y16987520D03*
X9875520Y18892520D03*
D19*
X35433000Y32385000D03*
D20*
X35433000Y25781000D03*
X33147000Y25781000D03*
X37719000Y25781000D03*
D21*
X19050000Y39751000D03*
D22*
X25654000Y39751000D03*
X25654000Y37465000D03*
X25654000Y42037000D03*
D23*
X3806400Y25919000D03*
X3806400Y26569000D03*
X3806400Y27219000D03*
X3806400Y27869000D03*
X3806400Y28519000D03*
X3806400Y29169000D03*
X3806400Y29819000D03*
X3806400Y30469000D03*
X9706400Y30469000D03*
X9706400Y29819000D03*
X9706400Y29169000D03*
X9706400Y28519000D03*
X9706400Y27869000D03*
X9706400Y27219000D03*
X9706400Y26569000D03*
X9706400Y25919000D03*
D24*
X38084760Y19939000D03*
X33035240Y19939000D03*
D16*
X9652000Y24320500D03*
X9652000Y22415500D03*
D25*
X13327380Y22666960D03*
X12326620Y22666960D03*
X13327380Y24069040D03*
X12827000Y22666960D03*
X12326620Y24069040D03*
X13723620Y30800040D03*
X14724380Y30800040D03*
X13723620Y29397960D03*
X14224000Y30800040D03*
X14724380Y29397960D03*
D15*
X12446000Y37084000D03*
X12446000Y39624000D03*
X12446000Y42164000D03*
X33210500Y23177500D03*
X35750500Y23177500D03*
D16*
X9842500Y15494000D03*
X9842500Y13589000D03*
D15*
X6286500Y35369500D03*
X3746500Y35369500D03*
D17*
X10350500Y9271000D03*
X8445500Y9271000D03*
X8445500Y10985500D03*
X10350500Y10985500D03*
D15*
X6299200Y40436800D03*
X3759200Y40436800D03*
D26*
X31648400Y12075160D03*
X31648400Y16372840D03*
M02*
