%
T1C.02913F197S55
X02341Y028605
X02491Y028605
X02541Y029196
X02591Y029196
X02441Y029196
X02391Y029196
X02641Y028605
T2C.035F197S55
X0181Y0288
X0171Y0288
X0171Y0298
X0181Y0298
X0191Y0298
X0191Y0288
X022501Y025146
X021501Y025146
X023446Y01747
X022446Y01747
X0225Y0155
X0225Y0145
X0225Y0135
X0235Y0135
X0235Y0145
X0235Y0155
X024446Y01747
X023501Y025146
X0309Y0304
X0309Y0294
X0309Y0284
X0309Y0274
X0309Y0264
X0309Y0254
X0309Y0244
X0309Y0234
X0309Y0224
X0309Y0214
X0309Y0204
X0309Y0194
X0309Y0184
X0309Y0174
X0309Y0164
X0309Y0154
X0309Y0144
X0309Y0134
X0319Y0134
X0319Y0144
X0319Y0154
X0319Y0164
X0319Y0174
X0319Y0184
X0319Y0194
X0319Y0204
X0319Y0214
X0319Y0224
X0319Y0234
X0319Y0244
X0319Y0254
X0319Y0264
X0319Y0274
X0319Y0284
X0319Y0294
X0319Y0304
T3C.037F197S55
X0169Y0176
X0164Y0211
X018339Y024652
X0164Y0247
X0171Y0247
X017Y026
X0232Y0266
X0208Y0243
X0213Y0239
X0212Y0229
X0206Y0226
X0206Y0219
X0211Y0207
X0209Y0183
X0249Y0133
X0263Y014
X0251Y0192
X0246Y0196
X0261Y02
X0245Y0215
X026Y0217
X0246Y0233
X0261Y0233
X0261Y0243
X0266Y0272
T4C.05079F107S55
X01448Y018
X01448Y026
T5C.05315F107S55
X027378Y029196
X022327Y029589
T6C.05709F107S55
X01348Y017
X01548Y017
X01548Y019
X01348Y019
X01348Y025
X01548Y025
X01548Y027
X01348Y027
T7C.12598F035S794
X014Y014
X014Y03
X034Y03
X034Y014
M30
