*
*
G04 PADS9.0.2 Build Number: 372616 generated Gerber (RS-274-X) file*
G04 PC Version=2.1*
*
%IN "ADCmonoPPI.pcb"*%
*
%MOIN*%
*
%FSLAX35Y35*%
*
*
*
*
G04 PC Standard Apertures*
*
*
G04 Thermal Relief Aperture macro.*
%AMTER*
1,1,$1,0,0*
1,0,$1-$2,0,0*
21,0,$3,$4,0,0,45*
21,0,$3,$4,0,0,135*
%
*
*
G04 Annular Aperture macro.*
%AMANN*
1,1,$1,0,0*
1,0,$2,0,0*
%
*
*
G04 Odd Aperture macro.*
%AMODD*
1,1,$1,0,0*
1,0,$1-0.005,0,0*
%
*
*
G04 PC Custom Aperture Macros*
*
*
*
*
*
*
G04 PC Aperture Table*
*
%ADD011C,0.06*%
%ADD013C,0.23622*%
%ADD021C,0.009*%
%ADD022C,0.055*%
%ADD024C,0.001*%
%ADD055C,0.04331*%
%ADD056C,0.09843*%
%ADD057C,0.07874*%
*
*
*
*
G04 PC Circuitry*
G04 Layer Name ADCmonoPPI.pcb - circuitry*
%LPD*%
*
*
G04 PC Custom Flashes*
G04 Layer Name ADCmonoPPI.pcb - flashes*
%LPD*%
*
*
G04 PC Circuitry*
G04 Layer Name ADCmonoPPI.pcb - circuitry*
%LPD*%
*
G54D11*
G01X309000Y134000D03*
X319000D03*
X309000Y234000D03*
X319000D03*
X309000Y244000D03*
X319000D03*
X309000Y254000D03*
X319000D03*
X309000Y264000D03*
X319000D03*
X309000Y274000D03*
X319000D03*
X309000Y284000D03*
X319000D03*
X309000Y294000D03*
X319000D03*
X309000Y304000D03*
X319000D03*
X191000Y298000D03*
Y288000D03*
X181000Y298000D03*
Y288000D03*
X171000Y298000D03*
Y288000D03*
X235000Y135000D03*
X225000D03*
X235000Y145000D03*
X225000D03*
X235000Y155000D03*
X225000D03*
X319000Y144000D03*
X309000D03*
X235008Y251459D03*
X225008D03*
X215008D03*
X309000Y154000D03*
X319000D03*
X309000Y164000D03*
X319000D03*
X309000Y174000D03*
X319000D03*
X309000Y184000D03*
X319000D03*
X309000Y194000D03*
X319000D03*
X309000Y204000D03*
X319000D03*
X309000Y224000D03*
X319000D03*
X244463Y174699D03*
X234463D03*
X224463D03*
X309000Y214000D03*
X319000D03*
G54D13*
X140000Y300000D03*
Y140000D03*
X340000D03*
Y300000D03*
G54D21*
X219658Y251459D02*
G75*
G03X219658I-4650J0D01*
G01X150387Y180000D02*
G03X150387I-5587J0D01*
G01Y260000D02*
G03X150387I-5587J0D01*
G01X323650Y134000D02*
G03X323650I-4650J0D01*
G01Y144000D02*
G03X323650I-4650J0D01*
G01Y154000D02*
G03X323650I-4650J0D01*
G01Y164000D02*
G03X323650I-4650J0D01*
G01Y174000D02*
G03X323650I-4650J0D01*
G01Y184000D02*
G03X323650I-4650J0D01*
G01Y194000D02*
G03X323650I-4650J0D01*
G01Y204000D02*
G03X323650I-4650J0D01*
G01Y224000D02*
G03X323650I-4650J0D01*
G01Y234000D02*
G03X323650I-4650J0D01*
G01Y244000D02*
G03X323650I-4650J0D01*
G01Y254000D02*
G03X323650I-4650J0D01*
G01Y264000D02*
G03X323650I-4650J0D01*
G01Y274000D02*
G03X323650I-4650J0D01*
G01Y284000D02*
G03X323650I-4650J0D01*
G01Y294000D02*
G03X323650I-4650J0D01*
G01Y304000D02*
G03X323650I-4650J0D01*
G01X313650Y134000D02*
G03X313650I-4650J0D01*
G01Y144000D02*
G03X313650I-4650J0D01*
G01Y154000D02*
G03X313650I-4650J0D01*
G01Y164000D02*
G03X313650I-4650J0D01*
G01Y174000D02*
G03X313650I-4650J0D01*
G01Y184000D02*
G03X313650I-4650J0D01*
G01Y194000D02*
G03X313650I-4650J0D01*
G01Y204000D02*
G03X313650I-4650J0D01*
G01Y224000D02*
G03X313650I-4650J0D01*
G01Y234000D02*
G03X313650I-4650J0D01*
G01Y244000D02*
G03X313650I-4650J0D01*
G01Y254000D02*
G03X313650I-4650J0D01*
G01Y264000D02*
G03X313650I-4650J0D01*
G01Y274000D02*
G03X313650I-4650J0D01*
G01Y284000D02*
G03X313650I-4650J0D01*
G01Y294000D02*
G03X313650I-4650J0D01*
G01Y304000D02*
G03X313650I-4650J0D01*
G01X239650Y145000D02*
G03X239650I-4650J0D01*
G01X239113Y174699D02*
G03X239113I-4650J0D01*
G01X229650Y145000D02*
G03X229650I-4650J0D01*
G01X229113Y174699D02*
G03X229113I-4650J0D01*
G01X185650Y298000D02*
G03X185650I-4650J0D01*
G01X249550Y213113D02*
Y217814D01*
X224550Y242814*
Y246831*
Y256086D02*
G03Y246831I458J-4627D01*
G01Y256086D02*
Y256819D01*
X197944Y284550*
X184118*
X177882D02*
G03X184118I3118J3450D01*
G01X177882D02*
X122650D01*
Y158450*
X191911*
X249550Y213113*
X357350Y122650D02*
Y317350D01*
X122650*
Y287436*
X176381Y287465*
X185620Y287469D02*
G03X176381Y287465I-4620J531D01*
G01X185620Y287469D02*
X198222Y287476D01*
X227450Y257182*
Y255416*
Y247501D02*
G03Y255416I-2442J3958D01*
G01Y247501D02*
Y243308D01*
X251936Y219574*
X252004Y210899*
X195355Y154250*
X122650*
Y122650*
X357350*
X219658Y251459D02*
G03X219658I-4650J0D01*
G01X150387Y180000D02*
G03X150387I-5587J0D01*
G01Y260000D02*
G03X150387I-5587J0D01*
G01X323650Y134000D02*
G03X323650I-4650J0D01*
G01Y144000D02*
G03X323650I-4650J0D01*
G01Y154000D02*
G03X323650I-4650J0D01*
G01Y164000D02*
G03X323650I-4650J0D01*
G01Y174000D02*
G03X323650I-4650J0D01*
G01Y184000D02*
G03X323650I-4650J0D01*
G01Y194000D02*
G03X323650I-4650J0D01*
G01Y204000D02*
G03X323650I-4650J0D01*
G01Y224000D02*
G03X323650I-4650J0D01*
G01Y234000D02*
G03X323650I-4650J0D01*
G01Y244000D02*
G03X323650I-4650J0D01*
G01Y254000D02*
G03X323650I-4650J0D01*
G01Y264000D02*
G03X323650I-4650J0D01*
G01Y274000D02*
G03X323650I-4650J0D01*
G01Y284000D02*
G03X323650I-4650J0D01*
G01Y294000D02*
G03X323650I-4650J0D01*
G01Y304000D02*
G03X323650I-4650J0D01*
G01X313650Y134000D02*
G03X313650I-4650J0D01*
G01Y144000D02*
G03X313650I-4650J0D01*
G01Y154000D02*
G03X313650I-4650J0D01*
G01Y164000D02*
G03X313650I-4650J0D01*
G01Y174000D02*
G03X313650I-4650J0D01*
G01Y184000D02*
G03X313650I-4650J0D01*
G01Y194000D02*
G03X313650I-4650J0D01*
G01Y204000D02*
G03X313650I-4650J0D01*
G01Y224000D02*
G03X313650I-4650J0D01*
G01Y234000D02*
G03X313650I-4650J0D01*
G01Y244000D02*
G03X313650I-4650J0D01*
G01Y254000D02*
G03X313650I-4650J0D01*
G01Y264000D02*
G03X313650I-4650J0D01*
G01Y274000D02*
G03X313650I-4650J0D01*
G01Y284000D02*
G03X313650I-4650J0D01*
G01Y294000D02*
G03X313650I-4650J0D01*
G01Y304000D02*
G03X313650I-4650J0D01*
G01X239650Y145000D02*
G03X239650I-4650J0D01*
G01X239113Y174699D02*
G03X239113I-4650J0D01*
G01X229650Y145000D02*
G03X229650I-4650J0D01*
G01X229113Y174699D02*
G03X229113I-4650J0D01*
G01X262915Y292349D02*
Y291562D01*
X256600Y288680D02*
G03X262915Y291562I2500J2882D01*
G01X250284D02*
G03X256600Y288680I3816J-0D01*
G01X250284Y291562D02*
Y292349D01*
X256600Y295231D02*
G03X250284Y292349I-2500J-2882D01*
G01X262915D02*
G03X256600Y295231I-3815J0D01*
G01X247915Y292349D02*
Y291562D01*
X241600Y288680D02*
G03X247915Y291562I2500J2882D01*
G01X235284D02*
G03X241600Y288680I3816J-0D01*
G01X235284Y291562D02*
Y292349D01*
X241600Y295231D02*
G03X235284Y292349I-2500J-2882D01*
G01X247915D02*
G03X241600Y295231I-3815J0D01*
G01X185650Y298000D02*
G03X185650I-4650J0D01*
G01X122650Y217449D02*
X249550D01*
X122650Y216449D02*
X249550D01*
X122650Y215449D02*
X249550D01*
X122650Y214449D02*
X249550D01*
X122650Y213449D02*
X249550D01*
X122650Y218449D02*
X248915D01*
X122650Y212449D02*
X248849D01*
X122650Y219449D02*
X247915D01*
X122650Y211449D02*
X247795D01*
X122650Y220449D02*
X246915D01*
X122650Y210449D02*
X246740D01*
X122650Y221449D02*
X245915D01*
X122650Y209449D02*
X245686D01*
X122650Y222449D02*
X244915D01*
X122650Y208449D02*
X244631D01*
X122650Y223449D02*
X243915D01*
X122650Y207449D02*
X243577D01*
X122650Y224449D02*
X242915D01*
X122650Y206449D02*
X242522D01*
X122650Y225449D02*
X241915D01*
X122650Y205449D02*
X241468D01*
X122650Y226449D02*
X240915D01*
X122650Y204449D02*
X240414D01*
X122650Y227449D02*
X239915D01*
X122650Y203449D02*
X239359D01*
X122650Y228449D02*
X238915D01*
X122650Y202449D02*
X238305D01*
X122650Y229449D02*
X237915D01*
X122650Y201449D02*
X237250D01*
X122650Y230449D02*
X236915D01*
X122650Y200449D02*
X236196D01*
X122650Y231449D02*
X235915D01*
X122650Y199449D02*
X235141D01*
X122650Y232449D02*
X234915D01*
X122650Y198449D02*
X234087D01*
X122650Y233449D02*
X233915D01*
X122650Y197449D02*
X233033D01*
X122650Y234449D02*
X232915D01*
X122650Y196449D02*
X231978D01*
X122650Y235449D02*
X231915D01*
X122650Y195449D02*
X230924D01*
X122650Y236449D02*
X230915D01*
X122650Y237449D02*
X229915D01*
X122650Y194449D02*
X229869D01*
X122650Y238449D02*
X228915D01*
X122650Y193449D02*
X228815D01*
X122650Y239449D02*
X227915D01*
X122650Y192449D02*
X227760D01*
X122650Y240449D02*
X226915D01*
X122650Y191449D02*
X226706D01*
X122650Y241449D02*
X225915D01*
X122650Y190449D02*
X225652D01*
X122650Y242449D02*
X224915D01*
X122650Y189449D02*
X224597D01*
X149113Y256449D02*
X224550D01*
X122650Y246449D02*
X224550D01*
X122650Y245449D02*
X224550D01*
X122650Y244449D02*
X224550D01*
X122650Y243449D02*
X224550D01*
X149770Y257449D02*
X223946D01*
X122650Y188449D02*
X223543D01*
X150167Y258449D02*
X222986D01*
X217362Y247449D02*
X222654D01*
X217396Y255449D02*
X222620D01*
X122650Y187449D02*
X222488D01*
X150360Y259449D02*
X222027D01*
X218553Y248449D02*
X221464D01*
X218569Y254449D02*
X221447D01*
X122650Y186449D02*
X221434D01*
X150369Y260449D02*
X221068D01*
X219201Y249449D02*
X220815D01*
X219211Y253449D02*
X220806D01*
X219547Y250449D02*
X220469D01*
X219552Y252449D02*
X220465D01*
X146036Y185449D02*
X220379D01*
X219658Y251449D02*
X220358D01*
X150196Y261449D02*
X220108D01*
X148180Y184449D02*
X219325D01*
X149822Y262449D02*
X219149D01*
X149196Y183449D02*
X218270D01*
X149196Y263449D02*
X218189D01*
X148180Y264449D02*
X217230D01*
X149822Y182449D02*
X217216D01*
X146036Y265449D02*
X216270D01*
X150196Y181449D02*
X216162D01*
X122650Y266449D02*
X215311D01*
X150369Y180449D02*
X215107D01*
X122650Y267449D02*
X214351D01*
X150360Y179449D02*
X214053D01*
X122650Y268449D02*
X213392D01*
X150167Y178449D02*
X212998D01*
X122650Y247449D02*
X212654D01*
X148040Y255449D02*
X212620D01*
X122650Y269449D02*
X212432D01*
X149770Y177449D02*
X211944D01*
X122650Y270449D02*
X211473D01*
X122650Y248449D02*
X211464D01*
X145431Y254449D02*
X211447D01*
X149113Y176449D02*
X210889D01*
X122650Y249449D02*
X210815D01*
X122650Y253449D02*
X210806D01*
X122650Y271449D02*
X210514D01*
X122650Y250449D02*
X210469D01*
X122650Y252449D02*
X210465D01*
X122650Y251449D02*
X210358D01*
X148040Y175449D02*
X209835D01*
X122650Y272449D02*
X209554D01*
X145431Y174449D02*
X208781D01*
X122650Y273449D02*
X208595D01*
X122650Y173449D02*
X207726D01*
X122650Y274449D02*
X207635D01*
X122650Y275449D02*
X206676D01*
X122650Y172449D02*
X206672D01*
X122650Y276449D02*
X205716D01*
X122650Y171449D02*
X205617D01*
X122650Y277449D02*
X204757D01*
X122650Y170449D02*
X204563D01*
X122650Y278449D02*
X203797D01*
X122650Y169449D02*
X203508D01*
X122650Y279449D02*
X202838D01*
X122650Y168449D02*
X202454D01*
X122650Y280449D02*
X201879D01*
X122650Y167449D02*
X201400D01*
X122650Y281449D02*
X200919D01*
X122650Y166449D02*
X200345D01*
X122650Y282449D02*
X199960D01*
X122650Y165449D02*
X199291D01*
X181953Y283449D02*
X199000D01*
X122650Y164449D02*
X198236D01*
X184002Y284449D02*
X198041D01*
X122650Y163449D02*
X197182D01*
X122650Y162449D02*
X196127D01*
X122650Y161449D02*
X195073D01*
X122650Y160449D02*
X194018D01*
X122650Y159449D02*
X192964D01*
X122650Y283449D02*
X180047D01*
X122650Y284449D02*
X177998D01*
X122650Y254449D02*
X144169D01*
X122650Y174449D02*
X144169D01*
X122650Y265449D02*
X143564D01*
X122650Y185449D02*
X143564D01*
X122650Y255449D02*
X141560D01*
X122650Y175449D02*
X141560D01*
X122650Y264449D02*
X141420D01*
X122650Y184449D02*
X141420D01*
X122650Y256449D02*
X140487D01*
X122650Y176449D02*
X140487D01*
X122650Y263449D02*
X140404D01*
X122650Y183449D02*
X140404D01*
X122650Y257449D02*
X139830D01*
X122650Y177449D02*
X139830D01*
X122650Y262449D02*
X139778D01*
X122650Y182449D02*
X139778D01*
X122650Y258449D02*
X139433D01*
X122650Y178449D02*
X139433D01*
X122650Y261449D02*
X139404D01*
X122650Y181449D02*
X139404D01*
X122650Y259449D02*
X139240D01*
X122650Y179449D02*
X139240D01*
X122650Y260449D02*
X139231D01*
X122650Y180449D02*
X139231D01*
X122650Y316449D02*
X357350D01*
X122650Y315449D02*
X357350D01*
X122650Y314449D02*
X357350D01*
X122650Y313449D02*
X357350D01*
X122650Y312449D02*
X357350D01*
X122650Y311449D02*
X357350D01*
X122650Y310449D02*
X357350D01*
X122650Y309449D02*
X357350D01*
X320353Y308449D02*
X357350D01*
X322119Y307449D02*
X357350D01*
X322953Y306449D02*
X357350D01*
X323419Y305449D02*
X357350D01*
X323628Y304449D02*
X357350D01*
X323617Y303449D02*
X357350D01*
X323384Y302449D02*
X357350D01*
X322888Y301449D02*
X357350D01*
X322002Y300449D02*
X357350D01*
X319953Y299449D02*
X357350D01*
X320353Y298449D02*
X357350D01*
X322119Y297449D02*
X357350D01*
X322953Y296449D02*
X357350D01*
X323419Y295449D02*
X357350D01*
X323628Y294449D02*
X357350D01*
X323617Y293449D02*
X357350D01*
X323384Y292449D02*
X357350D01*
X322888Y291449D02*
X357350D01*
X322002Y290449D02*
X357350D01*
X319953Y289449D02*
X357350D01*
X320353Y288449D02*
X357350D01*
X322119Y287449D02*
X357350D01*
X322953Y286449D02*
X357350D01*
X323419Y285449D02*
X357350D01*
X323628Y284449D02*
X357350D01*
X323617Y283449D02*
X357350D01*
X323384Y282449D02*
X357350D01*
X322888Y281449D02*
X357350D01*
X322002Y280449D02*
X357350D01*
X319953Y279449D02*
X357350D01*
X320353Y278449D02*
X357350D01*
X322119Y277449D02*
X357350D01*
X322953Y276449D02*
X357350D01*
X323419Y275449D02*
X357350D01*
X323628Y274449D02*
X357350D01*
X323617Y273449D02*
X357350D01*
X323384Y272449D02*
X357350D01*
X322888Y271449D02*
X357350D01*
X322002Y270449D02*
X357350D01*
X319953Y269449D02*
X357350D01*
X320353Y268449D02*
X357350D01*
X322119Y267449D02*
X357350D01*
X322953Y266449D02*
X357350D01*
X323419Y265449D02*
X357350D01*
X323628Y264449D02*
X357350D01*
X323617Y263449D02*
X357350D01*
X323384Y262449D02*
X357350D01*
X322888Y261449D02*
X357350D01*
X322002Y260449D02*
X357350D01*
X319953Y259449D02*
X357350D01*
X320353Y258449D02*
X357350D01*
X322119Y257449D02*
X357350D01*
X322953Y256449D02*
X357350D01*
X323419Y255449D02*
X357350D01*
X323628Y254449D02*
X357350D01*
X323617Y253449D02*
X357350D01*
X323384Y252449D02*
X357350D01*
X322888Y251449D02*
X357350D01*
X322002Y250449D02*
X357350D01*
X319953Y249449D02*
X357350D01*
X320353Y248449D02*
X357350D01*
X322119Y247449D02*
X357350D01*
X322953Y246449D02*
X357350D01*
X323419Y245449D02*
X357350D01*
X323628Y244449D02*
X357350D01*
X323617Y243449D02*
X357350D01*
X323384Y242449D02*
X357350D01*
X322888Y241449D02*
X357350D01*
X322002Y240449D02*
X357350D01*
X319953Y239449D02*
X357350D01*
X320353Y238449D02*
X357350D01*
X322119Y237449D02*
X357350D01*
X322953Y236449D02*
X357350D01*
X323419Y235449D02*
X357350D01*
X323628Y234449D02*
X357350D01*
X323617Y233449D02*
X357350D01*
X323384Y232449D02*
X357350D01*
X322888Y231449D02*
X357350D01*
X322002Y230449D02*
X357350D01*
X319953Y229449D02*
X357350D01*
X320353Y228449D02*
X357350D01*
X322119Y227449D02*
X357350D01*
X322953Y226449D02*
X357350D01*
X323419Y225449D02*
X357350D01*
X323628Y224449D02*
X357350D01*
X323617Y223449D02*
X357350D01*
X323384Y222449D02*
X357350D01*
X322888Y221449D02*
X357350D01*
X322002Y220449D02*
X357350D01*
X319953Y219449D02*
X357350D01*
X251945Y218449D02*
X357350D01*
X251953Y217449D02*
X357350D01*
X251961Y216449D02*
X357350D01*
X251968Y215449D02*
X357350D01*
X251976Y214449D02*
X357350D01*
X251984Y213449D02*
X357350D01*
X251992Y212449D02*
X357350D01*
X252000Y211449D02*
X357350D01*
X251553Y210449D02*
X357350D01*
X250553Y209449D02*
X357350D01*
X320353Y208449D02*
X357350D01*
X322119Y207449D02*
X357350D01*
X322953Y206449D02*
X357350D01*
X323419Y205449D02*
X357350D01*
X323628Y204449D02*
X357350D01*
X323617Y203449D02*
X357350D01*
X323384Y202449D02*
X357350D01*
X322888Y201449D02*
X357350D01*
X322002Y200449D02*
X357350D01*
X319953Y199449D02*
X357350D01*
X320353Y198449D02*
X357350D01*
X322119Y197449D02*
X357350D01*
X322953Y196449D02*
X357350D01*
X323419Y195449D02*
X357350D01*
X323628Y194449D02*
X357350D01*
X323617Y193449D02*
X357350D01*
X323384Y192449D02*
X357350D01*
X322888Y191449D02*
X357350D01*
X322002Y190449D02*
X357350D01*
X319953Y189449D02*
X357350D01*
X320353Y188449D02*
X357350D01*
X322119Y187449D02*
X357350D01*
X322953Y186449D02*
X357350D01*
X323419Y185449D02*
X357350D01*
X323628Y184449D02*
X357350D01*
X323617Y183449D02*
X357350D01*
X323384Y182449D02*
X357350D01*
X322888Y181449D02*
X357350D01*
X322002Y180449D02*
X357350D01*
X319953Y179449D02*
X357350D01*
X320353Y178449D02*
X357350D01*
X322119Y177449D02*
X357350D01*
X322953Y176449D02*
X357350D01*
X323419Y175449D02*
X357350D01*
X323628Y174449D02*
X357350D01*
X323617Y173449D02*
X357350D01*
X323384Y172449D02*
X357350D01*
X322888Y171449D02*
X357350D01*
X322002Y170449D02*
X357350D01*
X319953Y169449D02*
X357350D01*
X320353Y168449D02*
X357350D01*
X322119Y167449D02*
X357350D01*
X322953Y166449D02*
X357350D01*
X323419Y165449D02*
X357350D01*
X323628Y164449D02*
X357350D01*
X323617Y163449D02*
X357350D01*
X323384Y162449D02*
X357350D01*
X322888Y161449D02*
X357350D01*
X322002Y160449D02*
X357350D01*
X319953Y159449D02*
X357350D01*
X320353Y158449D02*
X357350D01*
X322119Y157449D02*
X357350D01*
X322953Y156449D02*
X357350D01*
X323419Y155449D02*
X357350D01*
X323628Y154449D02*
X357350D01*
X323617Y153449D02*
X357350D01*
X323384Y152449D02*
X357350D01*
X322888Y151449D02*
X357350D01*
X322002Y150449D02*
X357350D01*
X319953Y149449D02*
X357350D01*
X320353Y148449D02*
X357350D01*
X322119Y147449D02*
X357350D01*
X322953Y146449D02*
X357350D01*
X323419Y145449D02*
X357350D01*
X323628Y144449D02*
X357350D01*
X323617Y143449D02*
X357350D01*
X323384Y142449D02*
X357350D01*
X322888Y141449D02*
X357350D01*
X322002Y140449D02*
X357350D01*
X319953Y139449D02*
X357350D01*
X320353Y138449D02*
X357350D01*
X322119Y137449D02*
X357350D01*
X322953Y136449D02*
X357350D01*
X323419Y135449D02*
X357350D01*
X323628Y134449D02*
X357350D01*
X323617Y133449D02*
X357350D01*
X323384Y132449D02*
X357350D01*
X322888Y131449D02*
X357350D01*
X322002Y130449D02*
X357350D01*
X319953Y129449D02*
X357350D01*
X122650Y128449D02*
X357350D01*
X122650Y127449D02*
X357350D01*
X122650Y126449D02*
X357350D01*
X122650Y125449D02*
X357350D01*
X122650Y124449D02*
X357350D01*
X122650Y123449D02*
X357350D01*
X309953Y299449D02*
X318047D01*
X309953Y289449D02*
X318047D01*
X309953Y279449D02*
X318047D01*
X309953Y269449D02*
X318047D01*
X309953Y259449D02*
X318047D01*
X309953Y249449D02*
X318047D01*
X309953Y239449D02*
X318047D01*
X309953Y229449D02*
X318047D01*
X309953Y219449D02*
X318047D01*
X309953Y199449D02*
X318047D01*
X309953Y189449D02*
X318047D01*
X309953Y179449D02*
X318047D01*
X309953Y169449D02*
X318047D01*
X309953Y159449D02*
X318047D01*
X309953Y149449D02*
X318047D01*
X309953Y139449D02*
X318047D01*
X309953Y129449D02*
X318047D01*
X310353Y308449D02*
X317647D01*
X310353Y298449D02*
X317647D01*
X310353Y288449D02*
X317647D01*
X310353Y278449D02*
X317647D01*
X310353Y268449D02*
X317647D01*
X310353Y258449D02*
X317647D01*
X310353Y248449D02*
X317647D01*
X310353Y238449D02*
X317647D01*
X310353Y228449D02*
X317647D01*
X310353Y208449D02*
X317647D01*
X310353Y198449D02*
X317647D01*
X310353Y188449D02*
X317647D01*
X310353Y178449D02*
X317647D01*
X310353Y168449D02*
X317647D01*
X310353Y158449D02*
X317647D01*
X310353Y148449D02*
X317647D01*
X310353Y138449D02*
X317647D01*
X312002Y300449D02*
X315998D01*
X312002Y290449D02*
X315998D01*
X312002Y280449D02*
X315998D01*
X312002Y270449D02*
X315998D01*
X312002Y260449D02*
X315998D01*
X312002Y250449D02*
X315998D01*
X312002Y240449D02*
X315998D01*
X312002Y230449D02*
X315998D01*
X312002Y220449D02*
X315998D01*
X312002Y200449D02*
X315998D01*
X312002Y190449D02*
X315998D01*
X312002Y180449D02*
X315998D01*
X312002Y170449D02*
X315998D01*
X312002Y160449D02*
X315998D01*
X312002Y150449D02*
X315998D01*
X312002Y140449D02*
X315998D01*
X312002Y130449D02*
X315998D01*
X312119Y307449D02*
X315881D01*
X312119Y297449D02*
X315881D01*
X312119Y287449D02*
X315881D01*
X312119Y277449D02*
X315881D01*
X312119Y267449D02*
X315881D01*
X312119Y257449D02*
X315881D01*
X312119Y247449D02*
X315881D01*
X312119Y237449D02*
X315881D01*
X312119Y227449D02*
X315881D01*
X312119Y207449D02*
X315881D01*
X312119Y197449D02*
X315881D01*
X312119Y187449D02*
X315881D01*
X312119Y177449D02*
X315881D01*
X312119Y167449D02*
X315881D01*
X312119Y157449D02*
X315881D01*
X312119Y147449D02*
X315881D01*
X312119Y137449D02*
X315881D01*
X312888Y301449D02*
X315112D01*
X312888Y291449D02*
X315112D01*
X312888Y281449D02*
X315112D01*
X312888Y271449D02*
X315112D01*
X312888Y261449D02*
X315112D01*
X312888Y251449D02*
X315112D01*
X312888Y241449D02*
X315112D01*
X312888Y231449D02*
X315112D01*
X312888Y221449D02*
X315112D01*
X312888Y201449D02*
X315112D01*
X312888Y191449D02*
X315112D01*
X312888Y181449D02*
X315112D01*
X312888Y171449D02*
X315112D01*
X312888Y161449D02*
X315112D01*
X312888Y151449D02*
X315112D01*
X312888Y141449D02*
X315112D01*
X312888Y131449D02*
X315112D01*
X312953Y306449D02*
X315047D01*
X312953Y296449D02*
X315047D01*
X312953Y286449D02*
X315047D01*
X312953Y276449D02*
X315047D01*
X312953Y266449D02*
X315047D01*
X312953Y256449D02*
X315047D01*
X312953Y246449D02*
X315047D01*
X312953Y236449D02*
X315047D01*
X312953Y226449D02*
X315047D01*
X312953Y206449D02*
X315047D01*
X312953Y196449D02*
X315047D01*
X312953Y186449D02*
X315047D01*
X312953Y176449D02*
X315047D01*
X312953Y166449D02*
X315047D01*
X312953Y156449D02*
X315047D01*
X312953Y146449D02*
X315047D01*
X312953Y136449D02*
X315047D01*
X313384Y302449D02*
X314616D01*
X313384Y292449D02*
X314616D01*
X313384Y282449D02*
X314616D01*
X313384Y272449D02*
X314616D01*
X313384Y262449D02*
X314616D01*
X313384Y252449D02*
X314616D01*
X313384Y242449D02*
X314616D01*
X313384Y232449D02*
X314616D01*
X313384Y222449D02*
X314616D01*
X313384Y202449D02*
X314616D01*
X313384Y192449D02*
X314616D01*
X313384Y182449D02*
X314616D01*
X313384Y172449D02*
X314616D01*
X313384Y162449D02*
X314616D01*
X313384Y152449D02*
X314616D01*
X313384Y142449D02*
X314616D01*
X313384Y132449D02*
X314616D01*
X313419Y305449D02*
X314581D01*
X313419Y295449D02*
X314581D01*
X313419Y285449D02*
X314581D01*
X313419Y275449D02*
X314581D01*
X313419Y265449D02*
X314581D01*
X313419Y255449D02*
X314581D01*
X313419Y245449D02*
X314581D01*
X313419Y235449D02*
X314581D01*
X313419Y225449D02*
X314581D01*
X313419Y205449D02*
X314581D01*
X313419Y195449D02*
X314581D01*
X313419Y185449D02*
X314581D01*
X313419Y175449D02*
X314581D01*
X313419Y165449D02*
X314581D01*
X313419Y155449D02*
X314581D01*
X313419Y145449D02*
X314581D01*
X313419Y135449D02*
X314581D01*
X313617Y303449D02*
X314383D01*
X313617Y293449D02*
X314383D01*
X313617Y283449D02*
X314383D01*
X313617Y273449D02*
X314383D01*
X313617Y263449D02*
X314383D01*
X313617Y253449D02*
X314383D01*
X313617Y243449D02*
X314383D01*
X313617Y233449D02*
X314383D01*
X313617Y223449D02*
X314383D01*
X313617Y203449D02*
X314383D01*
X313617Y193449D02*
X314383D01*
X313617Y183449D02*
X314383D01*
X313617Y173449D02*
X314383D01*
X313617Y163449D02*
X314383D01*
X313617Y153449D02*
X314383D01*
X313617Y143449D02*
X314383D01*
X313617Y133449D02*
X314383D01*
X313628Y304449D02*
X314372D01*
X313628Y294449D02*
X314372D01*
X313628Y284449D02*
X314372D01*
X313628Y274449D02*
X314372D01*
X313628Y264449D02*
X314372D01*
X313628Y254449D02*
X314372D01*
X313628Y244449D02*
X314372D01*
X313628Y234449D02*
X314372D01*
X313628Y224449D02*
X314372D01*
X313628Y204449D02*
X314372D01*
X313628Y194449D02*
X314372D01*
X313628Y184449D02*
X314372D01*
X313628Y174449D02*
X314372D01*
X313628Y164449D02*
X314372D01*
X313628Y154449D02*
X314372D01*
X313628Y144449D02*
X314372D01*
X313628Y134449D02*
X314372D01*
X185419Y299449D02*
X308047D01*
X262277Y289449D02*
X308047D01*
X205967Y279449D02*
X308047D01*
X215615Y269449D02*
X308047D01*
X225263Y259449D02*
X308047D01*
X229201Y249449D02*
X308047D01*
X231431Y239449D02*
X308047D01*
X241748Y229449D02*
X308047D01*
X251937Y219449D02*
X308047D01*
X240553Y199449D02*
X308047D01*
X230553Y189449D02*
X308047D01*
X220553Y179449D02*
X308047D01*
X210553Y169449D02*
X308047D01*
X200553Y159449D02*
X308047D01*
X236353Y149449D02*
X308047D01*
X122650Y139449D02*
X308047D01*
X122650Y129449D02*
X308047D01*
X122650Y308449D02*
X307647D01*
X185628Y298449D02*
X307647D01*
X261306Y288449D02*
X307647D01*
X206932Y278449D02*
X307647D01*
X216580Y268449D02*
X307647D01*
X226228Y258449D02*
X307647D01*
X228553Y248449D02*
X307647D01*
X232463Y238449D02*
X307647D01*
X242780Y228449D02*
X307647D01*
X249553Y208449D02*
X307647D01*
X239553Y198449D02*
X307647D01*
X229553Y188449D02*
X307647D01*
X237213Y178449D02*
X307647D01*
X209553Y168449D02*
X307647D01*
X199553Y158449D02*
X307647D01*
X238119Y148449D02*
X307647D01*
X122650Y138449D02*
X307647D01*
X184953Y300449D02*
X305998D01*
X262749Y290449D02*
X305998D01*
X205002Y280449D02*
X305998D01*
X214650Y270449D02*
X305998D01*
X224298Y260449D02*
X305998D01*
X229547Y250449D02*
X305998D01*
X230400Y240449D02*
X305998D01*
X240717Y230449D02*
X305998D01*
X251034Y220449D02*
X305998D01*
X241553Y200449D02*
X305998D01*
X231553Y190449D02*
X305998D01*
X221553Y180449D02*
X305998D01*
X236350Y170449D02*
X305998D01*
X201553Y160449D02*
X305998D01*
X122650Y150449D02*
X305998D01*
X235953Y140449D02*
X305998D01*
X122650Y130449D02*
X305998D01*
X122650Y307449D02*
X305881D01*
X185617Y297449D02*
X305881D01*
X198249Y287449D02*
X305881D01*
X207897Y277449D02*
X305881D01*
X217545Y267449D02*
X305881D01*
X227192Y257449D02*
X305881D01*
X227450Y247449D02*
X305881D01*
X233495Y237449D02*
X305881D01*
X243812Y227449D02*
X305881D01*
X248553Y207449D02*
X305881D01*
X238553Y197449D02*
X305881D01*
X228553Y187449D02*
X305881D01*
X238213Y177449D02*
X305881D01*
X208553Y167449D02*
X305881D01*
X198553Y157449D02*
X305881D01*
X238953Y147449D02*
X305881D01*
X122650Y137449D02*
X305881D01*
X184119Y301449D02*
X305112D01*
X262914Y291449D02*
X305112D01*
X204037Y281449D02*
X305112D01*
X213685Y271449D02*
X305112D01*
X223333Y261449D02*
X305112D01*
X229658Y251449D02*
X305112D01*
X229368Y241449D02*
X305112D01*
X239685Y231449D02*
X305112D01*
X250002Y221449D02*
X305112D01*
X242553Y201449D02*
X305112D01*
X232553Y191449D02*
X305112D01*
X222553Y181449D02*
X305112D01*
X237789Y171449D02*
X305112D01*
X202553Y161449D02*
X305112D01*
X122650Y151449D02*
X305112D01*
X238002Y141449D02*
X305112D01*
X122650Y131449D02*
X305112D01*
X122650Y306449D02*
X305047D01*
X185384Y296449D02*
X305047D01*
X199214Y286449D02*
X305047D01*
X208861Y276449D02*
X305047D01*
X218509Y266449D02*
X305047D01*
X227450Y256449D02*
X305047D01*
X227450Y246449D02*
X305047D01*
X234526Y236449D02*
X305047D01*
X244843Y226449D02*
X305047D01*
X247553Y206449D02*
X305047D01*
X237553Y196449D02*
X305047D01*
X227553Y186449D02*
X305047D01*
X238771Y176449D02*
X305047D01*
X207553Y166449D02*
X305047D01*
X197553Y156449D02*
X305047D01*
X239419Y146449D02*
X305047D01*
X122650Y136449D02*
X305047D01*
X182353Y302449D02*
X304616D01*
X262914Y292449D02*
X304616D01*
X203073Y282449D02*
X304616D01*
X212721Y272449D02*
X304616D01*
X222368Y262449D02*
X304616D01*
X229552Y252449D02*
X304616D01*
X228336Y242449D02*
X304616D01*
X238653Y232449D02*
X304616D01*
X248970Y222449D02*
X304616D01*
X243553Y202449D02*
X304616D01*
X233553Y192449D02*
X304616D01*
X223553Y182449D02*
X304616D01*
X238533Y172449D02*
X304616D01*
X203553Y162449D02*
X304616D01*
X122650Y152449D02*
X304616D01*
X238888Y142449D02*
X304616D01*
X122650Y132449D02*
X304616D01*
X122650Y305449D02*
X304581D01*
X261325Y295449D02*
X304581D01*
X200178Y285449D02*
X304581D01*
X209826Y275449D02*
X304581D01*
X219474Y265449D02*
X304581D01*
X227450Y255449D02*
X304581D01*
X227450Y245449D02*
X304581D01*
X235558Y235449D02*
X304581D01*
X245875Y225449D02*
X304581D01*
X246553Y205449D02*
X304581D01*
X236553Y195449D02*
X304581D01*
X226553Y185449D02*
X304581D01*
X239052Y175449D02*
X304581D01*
X206553Y165449D02*
X304581D01*
X196553Y155449D02*
X304581D01*
X239628Y145449D02*
X304581D01*
X122650Y135449D02*
X304581D01*
X122650Y303449D02*
X304383D01*
X262753Y293449D02*
X304383D01*
X202108Y283449D02*
X304383D01*
X211756Y273449D02*
X304383D01*
X221404Y263449D02*
X304383D01*
X229211Y253449D02*
X304383D01*
X227450Y243449D02*
X304383D01*
X237621Y233449D02*
X304383D01*
X247938Y223449D02*
X304383D01*
X244553Y203449D02*
X304383D01*
X234553Y193449D02*
X304383D01*
X224553Y183449D02*
X304383D01*
X238942Y173449D02*
X304383D01*
X204553Y163449D02*
X304383D01*
X122650Y153449D02*
X304383D01*
X239384Y143449D02*
X304383D01*
X122650Y133449D02*
X304383D01*
X122650Y304449D02*
X304372D01*
X262286Y294449D02*
X304372D01*
X201143Y284449D02*
X304372D01*
X210791Y274449D02*
X304372D01*
X220439Y264449D02*
X304372D01*
X228569Y254449D02*
X304372D01*
X227450Y244449D02*
X304372D01*
X236590Y234449D02*
X304372D01*
X246907Y224449D02*
X304372D01*
X245553Y204449D02*
X304372D01*
X235553Y194449D02*
X304372D01*
X225553Y184449D02*
X304372D01*
X239106Y174449D02*
X304372D01*
X205553Y164449D02*
X304372D01*
X195553Y154449D02*
X304372D01*
X239617Y144449D02*
X304372D01*
X122650Y134449D02*
X304372D01*
X256306Y288449D02*
X256894D01*
X256325Y295449D02*
X256875D01*
X246306Y288449D02*
X251894D01*
X246325Y295449D02*
X251875D01*
X247277Y289449D02*
X250923D01*
X247286Y294449D02*
X250914D01*
X247749Y290449D02*
X250450D01*
X247753Y293449D02*
X250446D01*
X247914Y291449D02*
X250286D01*
X247914Y292449D02*
X250286D01*
X241306Y288449D02*
X241894D01*
X241325Y295449D02*
X241875D01*
X185628Y288449D02*
X236894D01*
X184888Y295449D02*
X236875D01*
X185419Y289449D02*
X235923D01*
X184002Y294449D02*
X235914D01*
X184953Y290449D02*
X235450D01*
X181953Y293449D02*
X235446D01*
X184119Y291449D02*
X235286D01*
X182353Y292449D02*
X235286D01*
X225953Y140449D02*
X234047D01*
X226353Y149449D02*
X233647D01*
X226350Y170449D02*
X232576D01*
X228002Y141449D02*
X231998D01*
X228119Y148449D02*
X231881D01*
X227213Y178449D02*
X231714D01*
X227789Y171449D02*
X231137D01*
X228888Y142449D02*
X231112D01*
X228953Y147449D02*
X231047D01*
X228213Y177449D02*
X230713D01*
X229384Y143449D02*
X230616D01*
X229419Y146449D02*
X230581D01*
X228533Y172449D02*
X230394D01*
X229617Y144449D02*
X230383D01*
X229628Y145449D02*
X230372D01*
X228771Y176449D02*
X230155D01*
X228942Y173449D02*
X229984D01*
X229052Y175449D02*
X229874D01*
X229106Y174449D02*
X229820D01*
X122650Y140449D02*
X224047D01*
X122650Y149449D02*
X223647D01*
X211553Y170449D02*
X222576D01*
X122650Y141449D02*
X221998D01*
X122650Y148449D02*
X221881D01*
X219553Y178449D02*
X221714D01*
X212553Y171449D02*
X221137D01*
X122650Y142449D02*
X221112D01*
X122650Y147449D02*
X221047D01*
X218553Y177449D02*
X220713D01*
X122650Y143449D02*
X220616D01*
X122650Y146449D02*
X220581D01*
X213553Y172449D02*
X220394D01*
X122650Y144449D02*
X220383D01*
X122650Y145449D02*
X220372D01*
X217553Y176449D02*
X220155D01*
X214553Y173449D02*
X219984D01*
X216553Y175449D02*
X219874D01*
X215553Y174449D02*
X219820D01*
X122650Y293449D02*
X180047D01*
X122650Y302449D02*
X179647D01*
X122650Y292449D02*
X179647D01*
X122650Y294449D02*
X177998D01*
X122650Y301449D02*
X177881D01*
X122650Y291449D02*
X177881D01*
X122650Y295449D02*
X177112D01*
X122650Y300449D02*
X177047D01*
X122650Y290449D02*
X177047D01*
X122650Y296449D02*
X176616D01*
X122650Y299449D02*
X176581D01*
X122650Y289449D02*
X176581D01*
X122650Y297449D02*
X176383D01*
X122650Y298449D02*
X176372D01*
X122650Y288449D02*
X176372D01*
X122650Y287449D02*
X146538D01*
X248650Y212260D02*
Y218714D01*
X247650Y211312D02*
Y219714D01*
X246650Y210363D02*
Y220714D01*
X245650Y209415D02*
Y221714D01*
X244650Y208466D02*
Y222714D01*
X243650Y207518D02*
Y223714D01*
X242650Y206570D02*
Y224714D01*
X241650Y205621D02*
Y225714D01*
X240650Y204673D02*
Y226714D01*
X239650Y203725D02*
Y227714D01*
X238650Y202776D02*
Y228714D01*
X237650Y201828D02*
Y229714D01*
X236650Y200879D02*
Y230714D01*
X235650Y199931D02*
Y231714D01*
X234650Y198983D02*
Y232714D01*
X233650Y198034D02*
Y233714D01*
X232650Y197086D02*
Y234714D01*
X231650Y196138D02*
Y235714D01*
X230650Y195189D02*
Y236714D01*
X229650Y194241D02*
Y237714D01*
X228650Y193292D02*
Y238714D01*
X227650Y192344D02*
Y239714D01*
X226650Y191396D02*
Y240714D01*
X225650Y190447D02*
Y241714D01*
X224650Y189499D02*
Y242714D01*
X223650Y255906D02*
Y257757D01*
Y188551D02*
Y247011D01*
X222650Y255466D02*
Y258799D01*
Y187602D02*
Y247451D01*
X221650Y254675D02*
Y259842D01*
Y186654D02*
Y248242D01*
X220650Y253080D02*
Y260884D01*
Y185705D02*
Y249837D01*
X219650Y251735D02*
Y261926D01*
Y184757D02*
Y251183D01*
X218650Y254350D02*
Y262968D01*
Y183809D02*
Y248567D01*
X217650Y255285D02*
Y264011D01*
Y182860D02*
Y247632D01*
X216650Y255809D02*
Y265053D01*
Y181912D02*
Y247108D01*
X215650Y256064D02*
Y266095D01*
Y180964D02*
Y246853D01*
X214650Y256095D02*
Y267137D01*
Y180015D02*
Y246823D01*
X213650Y255906D02*
Y268180D01*
Y179067D02*
Y247011D01*
X212650Y255466D02*
Y269222D01*
Y178118D02*
Y247451D01*
X211650Y254675D02*
Y270264D01*
Y177170D02*
Y248242D01*
X210650Y253080D02*
Y271306D01*
Y176222D02*
Y249837D01*
X209650Y175273D02*
Y272349D01*
X208650Y174325D02*
Y273391D01*
X207650Y173377D02*
Y274433D01*
X206650Y172428D02*
Y275476D01*
X205650Y171480D02*
Y276518D01*
X204650Y170531D02*
Y277560D01*
X203650Y169583D02*
Y278602D01*
X202650Y168635D02*
Y279645D01*
X201650Y167686D02*
Y280687D01*
X200650Y166738D02*
Y281729D01*
X199650Y165789D02*
Y282771D01*
X198650Y164841D02*
Y283814D01*
X197650Y163893D02*
Y284550D01*
X196650Y162944D02*
Y284550D01*
X195650Y161996D02*
Y284550D01*
X194650Y161048D02*
Y284550D01*
X193650Y160099D02*
Y284550D01*
X192650Y159151D02*
Y284550D01*
X191650Y158450D02*
Y284550D01*
X190650Y158450D02*
Y284550D01*
X189650Y158450D02*
Y284550D01*
X188650Y158450D02*
Y284550D01*
X187650Y158450D02*
Y284550D01*
X186650Y158450D02*
Y284550D01*
X185650Y158450D02*
Y284550D01*
X184650Y158450D02*
Y284550D01*
X183650Y158450D02*
Y284179D01*
X182650Y158450D02*
Y283653D01*
X181650Y158450D02*
Y283396D01*
X180650Y158450D02*
Y283363D01*
X179650Y158450D02*
Y283550D01*
X178650Y158450D02*
Y283987D01*
X177650Y158450D02*
Y284550D01*
X176650Y158450D02*
Y284550D01*
X175650Y158450D02*
Y284550D01*
X174650Y158450D02*
Y284550D01*
X173650Y158450D02*
Y284550D01*
X172650Y158450D02*
Y284550D01*
X171650Y158450D02*
Y284550D01*
X170650Y158450D02*
Y284550D01*
X169650Y158450D02*
Y284550D01*
X168650Y158450D02*
Y284550D01*
X167650Y158450D02*
Y284550D01*
X166650Y158450D02*
Y284550D01*
X165650Y158450D02*
Y284550D01*
X164650Y158450D02*
Y284550D01*
X163650Y158450D02*
Y284550D01*
X162650Y158450D02*
Y284550D01*
X161650Y158450D02*
Y284550D01*
X160650Y158450D02*
Y284550D01*
X159650Y158450D02*
Y284550D01*
X158650Y158450D02*
Y284550D01*
X157650Y158450D02*
Y284550D01*
X156650Y158450D02*
Y284550D01*
X155650Y158450D02*
Y284550D01*
X154650Y158450D02*
Y284550D01*
X153650Y158450D02*
Y284550D01*
X152650Y158450D02*
Y284550D01*
X151650Y158450D02*
Y284550D01*
X150650Y158450D02*
Y284550D01*
X149650Y262773D02*
Y284550D01*
Y182773D02*
Y257227D01*
Y158450D02*
Y177227D01*
X148650Y264049D02*
Y284550D01*
Y184049D02*
Y255951D01*
Y158450D02*
Y175951D01*
X147650Y264805D02*
Y284550D01*
Y184805D02*
Y255195D01*
Y158450D02*
Y175195D01*
X146650Y265272D02*
Y284550D01*
Y185272D02*
Y254728D01*
Y158450D02*
Y174728D01*
X145650Y265522D02*
Y284550D01*
Y185522D02*
Y254478D01*
Y158450D02*
Y174478D01*
X144650Y265585D02*
Y284550D01*
Y185585D02*
Y254415D01*
Y158450D02*
Y174415D01*
X143650Y265467D02*
Y284550D01*
Y185467D02*
Y254533D01*
Y158450D02*
Y174533D01*
X142650Y265157D02*
Y284550D01*
Y185157D02*
Y254843D01*
Y158450D02*
Y174843D01*
X141650Y264614D02*
Y284550D01*
Y184614D02*
Y255386D01*
Y158450D02*
Y175386D01*
X140650Y263741D02*
Y284550D01*
Y183741D02*
Y256259D01*
Y158450D02*
Y176259D01*
X139650Y262166D02*
Y284550D01*
Y182166D02*
Y257834D01*
Y158450D02*
Y177834D01*
X138650Y158450D02*
Y284550D01*
X137650Y158450D02*
Y284550D01*
X136650Y158450D02*
Y284550D01*
X135650Y158450D02*
Y284550D01*
X134650Y158450D02*
Y284550D01*
X133650Y158450D02*
Y284550D01*
X132650Y158450D02*
Y284550D01*
X131650Y158450D02*
Y284550D01*
X130650Y158450D02*
Y284550D01*
X129650Y158450D02*
Y284550D01*
X128650Y158450D02*
Y284550D01*
X127650Y158450D02*
Y284550D01*
X126650Y158450D02*
Y284550D01*
X125650Y158450D02*
Y284550D01*
X124650Y158450D02*
Y284550D01*
X123650Y158450D02*
Y284550D01*
X356650Y122650D02*
Y317350D01*
X355650Y122650D02*
Y317350D01*
X354650Y122650D02*
Y317350D01*
X353650Y122650D02*
Y317350D01*
X352650Y122650D02*
Y317350D01*
X351650Y122650D02*
Y317350D01*
X350650Y122650D02*
Y317350D01*
X349650Y122650D02*
Y317350D01*
X348650Y122650D02*
Y317350D01*
X347650Y122650D02*
Y317350D01*
X346650Y122650D02*
Y317350D01*
X345650Y122650D02*
Y317350D01*
X344650Y122650D02*
Y317350D01*
X343650Y122650D02*
Y317350D01*
X342650Y122650D02*
Y317350D01*
X341650Y122650D02*
Y317350D01*
X340650Y122650D02*
Y317350D01*
X339650Y122650D02*
Y317350D01*
X338650Y122650D02*
Y317350D01*
X337650Y122650D02*
Y317350D01*
X336650Y122650D02*
Y317350D01*
X335650Y122650D02*
Y317350D01*
X334650Y122650D02*
Y317350D01*
X333650Y122650D02*
Y317350D01*
X332650Y122650D02*
Y317350D01*
X331650Y122650D02*
Y317350D01*
X330650Y122650D02*
Y317350D01*
X329650Y122650D02*
Y317350D01*
X328650Y122650D02*
Y317350D01*
X327650Y122650D02*
Y317350D01*
X326650Y122650D02*
Y317350D01*
X325650Y122650D02*
Y317350D01*
X324650Y122650D02*
Y317350D01*
X323650Y122650D02*
Y317350D01*
X322650Y306881D02*
Y317350D01*
Y296881D02*
Y301119D01*
Y286881D02*
Y291119D01*
Y276881D02*
Y281119D01*
Y266881D02*
Y271119D01*
Y256881D02*
Y261119D01*
Y246881D02*
Y251119D01*
Y236881D02*
Y241119D01*
Y226881D02*
Y231119D01*
Y206881D02*
Y221119D01*
Y196881D02*
Y201119D01*
Y186881D02*
Y191119D01*
Y176881D02*
Y181119D01*
Y166881D02*
Y171119D01*
Y156881D02*
Y161119D01*
Y146881D02*
Y151119D01*
Y136881D02*
Y141119D01*
Y122650D02*
Y131119D01*
X321650Y307821D02*
Y317350D01*
Y297821D02*
Y300179D01*
Y287821D02*
Y290179D01*
Y277821D02*
Y280179D01*
Y267821D02*
Y270179D01*
Y257821D02*
Y260179D01*
Y247821D02*
Y250179D01*
Y237821D02*
Y240179D01*
Y227821D02*
Y230179D01*
Y207821D02*
Y220179D01*
Y197821D02*
Y200179D01*
Y187821D02*
Y190179D01*
Y177821D02*
Y180179D01*
Y167821D02*
Y170179D01*
Y157821D02*
Y160179D01*
Y147821D02*
Y150179D01*
Y137821D02*
Y140179D01*
Y122650D02*
Y130179D01*
X320650Y308347D02*
Y317350D01*
Y298347D02*
Y299653D01*
Y288347D02*
Y289653D01*
Y278347D02*
Y279653D01*
Y268347D02*
Y269653D01*
Y258347D02*
Y259653D01*
Y248347D02*
Y249653D01*
Y238347D02*
Y239653D01*
Y228347D02*
Y229653D01*
Y208347D02*
Y219653D01*
Y198347D02*
Y199653D01*
Y188347D02*
Y189653D01*
Y178347D02*
Y179653D01*
Y168347D02*
Y169653D01*
Y158347D02*
Y159653D01*
Y148347D02*
Y149653D01*
Y138347D02*
Y139653D01*
Y122650D02*
Y129653D01*
X319650Y308604D02*
Y317350D01*
Y298604D02*
Y299396D01*
Y288604D02*
Y289396D01*
Y278604D02*
Y279396D01*
Y268604D02*
Y269396D01*
Y258604D02*
Y259396D01*
Y248604D02*
Y249396D01*
Y238604D02*
Y239396D01*
Y228604D02*
Y229396D01*
Y208604D02*
Y219396D01*
Y198604D02*
Y199396D01*
Y188604D02*
Y189396D01*
Y178604D02*
Y179396D01*
Y168604D02*
Y169396D01*
Y158604D02*
Y159396D01*
Y148604D02*
Y149396D01*
Y138604D02*
Y139396D01*
Y122650D02*
Y129396D01*
X318650Y308637D02*
Y317350D01*
Y298637D02*
Y299363D01*
Y288637D02*
Y289363D01*
Y278637D02*
Y279363D01*
Y268637D02*
Y269363D01*
Y258637D02*
Y259363D01*
Y248637D02*
Y249363D01*
Y238637D02*
Y239363D01*
Y228637D02*
Y229363D01*
Y208637D02*
Y219363D01*
Y198637D02*
Y199363D01*
Y188637D02*
Y189363D01*
Y178637D02*
Y179363D01*
Y168637D02*
Y169363D01*
Y158637D02*
Y159363D01*
Y148637D02*
Y149363D01*
Y138637D02*
Y139363D01*
Y122650D02*
Y129363D01*
X317650Y308450D02*
Y317350D01*
Y298450D02*
Y299550D01*
Y288450D02*
Y289550D01*
Y278450D02*
Y279550D01*
Y268450D02*
Y269550D01*
Y258450D02*
Y259550D01*
Y248450D02*
Y249550D01*
Y238450D02*
Y239550D01*
Y228450D02*
Y229550D01*
Y208450D02*
Y219550D01*
Y198450D02*
Y199550D01*
Y188450D02*
Y189550D01*
Y178450D02*
Y179550D01*
Y168450D02*
Y169550D01*
Y158450D02*
Y159550D01*
Y148450D02*
Y149550D01*
Y138450D02*
Y139550D01*
Y122650D02*
Y129550D01*
X316650Y308013D02*
Y317350D01*
Y298013D02*
Y299987D01*
Y288013D02*
Y289987D01*
Y278013D02*
Y279987D01*
Y268013D02*
Y269987D01*
Y258013D02*
Y259987D01*
Y248013D02*
Y249987D01*
Y238013D02*
Y239987D01*
Y228013D02*
Y229987D01*
Y208013D02*
Y219987D01*
Y198013D02*
Y199987D01*
Y188013D02*
Y189987D01*
Y178013D02*
Y179987D01*
Y168013D02*
Y169987D01*
Y158013D02*
Y159987D01*
Y148013D02*
Y149987D01*
Y138013D02*
Y139987D01*
Y122650D02*
Y129987D01*
X315650Y307225D02*
Y317350D01*
Y297225D02*
Y300775D01*
Y287225D02*
Y290775D01*
Y277225D02*
Y280775D01*
Y267225D02*
Y270775D01*
Y257225D02*
Y260775D01*
Y247225D02*
Y250775D01*
Y237225D02*
Y240775D01*
Y227225D02*
Y230775D01*
Y207225D02*
Y220775D01*
Y197225D02*
Y200775D01*
Y187225D02*
Y190775D01*
Y177225D02*
Y180775D01*
Y167225D02*
Y170775D01*
Y157225D02*
Y160775D01*
Y147225D02*
Y150775D01*
Y137225D02*
Y140775D01*
Y122650D02*
Y130775D01*
X314650Y305643D02*
Y317350D01*
Y295643D02*
Y302357D01*
Y285643D02*
Y292357D01*
Y275643D02*
Y282357D01*
Y265643D02*
Y272357D01*
Y255643D02*
Y262357D01*
Y245643D02*
Y252357D01*
Y235643D02*
Y242357D01*
Y225643D02*
Y232357D01*
Y205643D02*
Y222357D01*
Y195643D02*
Y202357D01*
Y185643D02*
Y192357D01*
Y175643D02*
Y182357D01*
Y165643D02*
Y172357D01*
Y155643D02*
Y162357D01*
Y145643D02*
Y152357D01*
Y135643D02*
Y142357D01*
Y122650D02*
Y132357D01*
X313650Y122650D02*
Y317350D01*
X312650Y306881D02*
Y317350D01*
Y296881D02*
Y301119D01*
Y286881D02*
Y291119D01*
Y276881D02*
Y281119D01*
Y266881D02*
Y271119D01*
Y256881D02*
Y261119D01*
Y246881D02*
Y251119D01*
Y236881D02*
Y241119D01*
Y226881D02*
Y231119D01*
Y206881D02*
Y221119D01*
Y196881D02*
Y201119D01*
Y186881D02*
Y191119D01*
Y176881D02*
Y181119D01*
Y166881D02*
Y171119D01*
Y156881D02*
Y161119D01*
Y146881D02*
Y151119D01*
Y136881D02*
Y141119D01*
Y122650D02*
Y131119D01*
X311650Y307821D02*
Y317350D01*
Y297821D02*
Y300179D01*
Y287821D02*
Y290179D01*
Y277821D02*
Y280179D01*
Y267821D02*
Y270179D01*
Y257821D02*
Y260179D01*
Y247821D02*
Y250179D01*
Y237821D02*
Y240179D01*
Y227821D02*
Y230179D01*
Y207821D02*
Y220179D01*
Y197821D02*
Y200179D01*
Y187821D02*
Y190179D01*
Y177821D02*
Y180179D01*
Y167821D02*
Y170179D01*
Y157821D02*
Y160179D01*
Y147821D02*
Y150179D01*
Y137821D02*
Y140179D01*
Y122650D02*
Y130179D01*
X310650Y308347D02*
Y317350D01*
Y298347D02*
Y299653D01*
Y288347D02*
Y289653D01*
Y278347D02*
Y279653D01*
Y268347D02*
Y269653D01*
Y258347D02*
Y259653D01*
Y248347D02*
Y249653D01*
Y238347D02*
Y239653D01*
Y228347D02*
Y229653D01*
Y208347D02*
Y219653D01*
Y198347D02*
Y199653D01*
Y188347D02*
Y189653D01*
Y178347D02*
Y179653D01*
Y168347D02*
Y169653D01*
Y158347D02*
Y159653D01*
Y148347D02*
Y149653D01*
Y138347D02*
Y139653D01*
Y122650D02*
Y129653D01*
X309650Y308604D02*
Y317350D01*
Y298604D02*
Y299396D01*
Y288604D02*
Y289396D01*
Y278604D02*
Y279396D01*
Y268604D02*
Y269396D01*
Y258604D02*
Y259396D01*
Y248604D02*
Y249396D01*
Y238604D02*
Y239396D01*
Y228604D02*
Y229396D01*
Y208604D02*
Y219396D01*
Y198604D02*
Y199396D01*
Y188604D02*
Y189396D01*
Y178604D02*
Y179396D01*
Y168604D02*
Y169396D01*
Y158604D02*
Y159396D01*
Y148604D02*
Y149396D01*
Y138604D02*
Y139396D01*
Y122650D02*
Y129396D01*
X308650Y308637D02*
Y317350D01*
Y298637D02*
Y299363D01*
Y288637D02*
Y289363D01*
Y278637D02*
Y279363D01*
Y268637D02*
Y269363D01*
Y258637D02*
Y259363D01*
Y248637D02*
Y249363D01*
Y238637D02*
Y239363D01*
Y228637D02*
Y229363D01*
Y208637D02*
Y219363D01*
Y198637D02*
Y199363D01*
Y188637D02*
Y189363D01*
Y178637D02*
Y179363D01*
Y168637D02*
Y169363D01*
Y158637D02*
Y159363D01*
Y148637D02*
Y149363D01*
Y138637D02*
Y139363D01*
Y122650D02*
Y129363D01*
X307650Y308450D02*
Y317350D01*
Y298450D02*
Y299550D01*
Y288450D02*
Y289550D01*
Y278450D02*
Y279550D01*
Y268450D02*
Y269550D01*
Y258450D02*
Y259550D01*
Y248450D02*
Y249550D01*
Y238450D02*
Y239550D01*
Y228450D02*
Y229550D01*
Y208450D02*
Y219550D01*
Y198450D02*
Y199550D01*
Y188450D02*
Y189550D01*
Y178450D02*
Y179550D01*
Y168450D02*
Y169550D01*
Y158450D02*
Y159550D01*
Y148450D02*
Y149550D01*
Y138450D02*
Y139550D01*
Y122650D02*
Y129550D01*
X306650Y308013D02*
Y317350D01*
Y298013D02*
Y299987D01*
Y288013D02*
Y289987D01*
Y278013D02*
Y279987D01*
Y268013D02*
Y269987D01*
Y258013D02*
Y259987D01*
Y248013D02*
Y249987D01*
Y238013D02*
Y239987D01*
Y228013D02*
Y229987D01*
Y208013D02*
Y219987D01*
Y198013D02*
Y199987D01*
Y188013D02*
Y189987D01*
Y178013D02*
Y179987D01*
Y168013D02*
Y169987D01*
Y158013D02*
Y159987D01*
Y148013D02*
Y149987D01*
Y138013D02*
Y139987D01*
Y122650D02*
Y129987D01*
X305650Y307225D02*
Y317350D01*
Y297225D02*
Y300775D01*
Y287225D02*
Y290775D01*
Y277225D02*
Y280775D01*
Y267225D02*
Y270775D01*
Y257225D02*
Y260775D01*
Y247225D02*
Y250775D01*
Y237225D02*
Y240775D01*
Y227225D02*
Y230775D01*
Y207225D02*
Y220775D01*
Y197225D02*
Y200775D01*
Y187225D02*
Y190775D01*
Y177225D02*
Y180775D01*
Y167225D02*
Y170775D01*
Y157225D02*
Y160775D01*
Y147225D02*
Y150775D01*
Y137225D02*
Y140775D01*
Y122650D02*
Y130775D01*
X304650Y305643D02*
Y317350D01*
Y295643D02*
Y302357D01*
Y285643D02*
Y292357D01*
Y275643D02*
Y282357D01*
Y265643D02*
Y272357D01*
Y255643D02*
Y262357D01*
Y245643D02*
Y252357D01*
Y235643D02*
Y242357D01*
Y225643D02*
Y232357D01*
Y205643D02*
Y222357D01*
Y195643D02*
Y202357D01*
Y185643D02*
Y192357D01*
Y175643D02*
Y182357D01*
Y165643D02*
Y172357D01*
Y155643D02*
Y162357D01*
Y145643D02*
Y152357D01*
Y135643D02*
Y142357D01*
Y122650D02*
Y132357D01*
X303650Y122650D02*
Y317350D01*
X302650Y122650D02*
Y317350D01*
X301650Y122650D02*
Y317350D01*
X300650Y122650D02*
Y317350D01*
X299650Y122650D02*
Y317350D01*
X298650Y122650D02*
Y317350D01*
X297650Y122650D02*
Y317350D01*
X296650Y122650D02*
Y317350D01*
X295650Y122650D02*
Y317350D01*
X294650Y122650D02*
Y317350D01*
X293650Y122650D02*
Y317350D01*
X292650Y122650D02*
Y317350D01*
X291650Y122650D02*
Y317350D01*
X290650Y122650D02*
Y317350D01*
X289650Y122650D02*
Y317350D01*
X288650Y122650D02*
Y317350D01*
X287650Y122650D02*
Y317350D01*
X286650Y122650D02*
Y317350D01*
X285650Y122650D02*
Y317350D01*
X284650Y122650D02*
Y317350D01*
X283650Y122650D02*
Y317350D01*
X282650Y122650D02*
Y317350D01*
X281650Y122650D02*
Y317350D01*
X280650Y122650D02*
Y317350D01*
X279650Y122650D02*
Y317350D01*
X278650Y122650D02*
Y317350D01*
X277650Y122650D02*
Y317350D01*
X276650Y122650D02*
Y317350D01*
X275650Y122650D02*
Y317350D01*
X274650Y122650D02*
Y317350D01*
X273650Y122650D02*
Y317350D01*
X272650Y122650D02*
Y317350D01*
X271650Y122650D02*
Y317350D01*
X270650Y122650D02*
Y317350D01*
X269650Y122650D02*
Y317350D01*
X268650Y122650D02*
Y317350D01*
X267650Y122650D02*
Y317350D01*
X266650Y122650D02*
Y317350D01*
X265650Y122650D02*
Y317350D01*
X264650Y122650D02*
Y317350D01*
X263650Y122650D02*
Y317350D01*
X262650Y293747D02*
Y317350D01*
Y122650D02*
Y290164D01*
X261650Y295187D02*
Y317350D01*
Y122650D02*
Y288724D01*
X260650Y295835D02*
Y317350D01*
Y122650D02*
Y288076D01*
X259650Y296125D02*
Y317350D01*
Y122650D02*
Y287786D01*
X258650Y296138D02*
Y317350D01*
Y122650D02*
Y287773D01*
X257650Y295878D02*
Y317350D01*
Y122650D02*
Y288033D01*
X256650Y295274D02*
Y317350D01*
Y122650D02*
Y288637D01*
X255650Y295835D02*
Y317350D01*
Y122650D02*
Y288076D01*
X254650Y296125D02*
Y317350D01*
Y122650D02*
Y287786D01*
X253650Y296138D02*
Y317350D01*
Y122650D02*
Y287773D01*
X252650Y295878D02*
Y317350D01*
Y122650D02*
Y288033D01*
X251650Y295274D02*
Y317350D01*
Y219851D02*
Y288637D01*
Y122650D02*
Y210545D01*
X250650Y293979D02*
Y317350D01*
Y220820D02*
Y289932D01*
Y122650D02*
Y209545D01*
X249650Y221790D02*
Y317350D01*
Y122650D02*
Y208545D01*
X248650Y222759D02*
Y317350D01*
Y122650D02*
Y207545D01*
X247650Y293747D02*
Y317350D01*
Y223728D02*
Y290164D01*
Y122650D02*
Y206545D01*
X246650Y295187D02*
Y317350D01*
Y224698D02*
Y288724D01*
Y122650D02*
Y205545D01*
X245650Y295835D02*
Y317350D01*
Y225667D02*
Y288076D01*
Y122650D02*
Y204545D01*
X244650Y296125D02*
Y317350D01*
Y226636D02*
Y287786D01*
Y122650D02*
Y203545D01*
X243650Y296138D02*
Y317350D01*
Y227605D02*
Y287773D01*
Y122650D02*
Y202545D01*
X242650Y295878D02*
Y317350D01*
Y228575D02*
Y288033D01*
Y122650D02*
Y201545D01*
X241650Y295274D02*
Y317350D01*
Y229544D02*
Y288637D01*
Y122650D02*
Y200545D01*
X240650Y295835D02*
Y317350D01*
Y230513D02*
Y288076D01*
Y122650D02*
Y199545D01*
X239650Y296125D02*
Y317350D01*
Y231482D02*
Y287786D01*
Y122650D02*
Y198545D01*
X238650Y296138D02*
Y317350D01*
Y232452D02*
Y287773D01*
Y176722D02*
Y197545D01*
Y147881D02*
Y172676D01*
Y122650D02*
Y142119D01*
X237650Y295878D02*
Y317350D01*
Y233421D02*
Y288033D01*
Y178085D02*
Y196545D01*
Y148821D02*
Y171312D01*
Y122650D02*
Y141179D01*
X236650Y295274D02*
Y317350D01*
Y234390D02*
Y288637D01*
Y178802D02*
Y195545D01*
Y149347D02*
Y170595D01*
Y122650D02*
Y140653D01*
X235650Y293979D02*
Y317350D01*
Y235360D02*
Y289932D01*
Y179195D02*
Y194545D01*
Y149604D02*
Y170203D01*
Y122650D02*
Y140396D01*
X234650Y236329D02*
Y317350D01*
Y179345D02*
Y193545D01*
Y149637D02*
Y170052D01*
Y122650D02*
Y140363D01*
X233650Y237298D02*
Y317350D01*
Y179277D02*
Y192545D01*
Y149450D02*
Y170120D01*
Y122650D02*
Y140550D01*
X232650Y238267D02*
Y317350D01*
Y178981D02*
Y191545D01*
Y149013D02*
Y170417D01*
Y122650D02*
Y140987D01*
X231650Y239237D02*
Y317350D01*
Y178401D02*
Y190545D01*
Y148225D02*
Y170996D01*
Y122650D02*
Y141775D01*
X230650Y240206D02*
Y317350D01*
Y177360D02*
Y189545D01*
Y146643D02*
Y172037D01*
Y122650D02*
Y143357D01*
X229650Y251735D02*
Y317350D01*
Y241175D02*
Y251183D01*
Y122650D02*
Y188545D01*
X228650Y254350D02*
Y317350D01*
Y242144D02*
Y248567D01*
Y176722D02*
Y187545D01*
Y147881D02*
Y172676D01*
Y122650D02*
Y142119D01*
X227650Y255285D02*
Y317350D01*
Y243114D02*
Y247632D01*
Y178085D02*
Y186545D01*
Y148821D02*
Y171312D01*
Y122650D02*
Y141179D01*
X226650Y258011D02*
Y317350D01*
Y178802D02*
Y185545D01*
Y149347D02*
Y170595D01*
Y122650D02*
Y140653D01*
X225650Y259047D02*
Y317350D01*
Y179195D02*
Y184545D01*
Y149604D02*
Y170203D01*
Y122650D02*
Y140396D01*
X224650Y260084D02*
Y317350D01*
Y179345D02*
Y183545D01*
Y149637D02*
Y170052D01*
Y122650D02*
Y140363D01*
X223650Y261120D02*
Y317350D01*
Y179277D02*
Y182545D01*
Y149450D02*
Y170120D01*
Y122650D02*
Y140550D01*
X222650Y262157D02*
Y317350D01*
Y178981D02*
Y181545D01*
Y149013D02*
Y170417D01*
Y122650D02*
Y140987D01*
X221650Y263193D02*
Y317350D01*
Y178401D02*
Y180545D01*
Y148225D02*
Y170996D01*
Y122650D02*
Y141775D01*
X220650Y264230D02*
Y317350D01*
Y177360D02*
Y179545D01*
Y146643D02*
Y172037D01*
Y122650D02*
Y143357D01*
X219650Y265266D02*
Y317350D01*
Y122650D02*
Y178545D01*
X218650Y266303D02*
Y317350D01*
Y122650D02*
Y177545D01*
X217650Y267339D02*
Y317350D01*
Y122650D02*
Y176545D01*
X216650Y268376D02*
Y317350D01*
Y122650D02*
Y175545D01*
X215650Y269412D02*
Y317350D01*
Y122650D02*
Y174545D01*
X214650Y270449D02*
Y317350D01*
Y122650D02*
Y173545D01*
X213650Y271485D02*
Y317350D01*
Y122650D02*
Y172545D01*
X212650Y272522D02*
Y317350D01*
Y122650D02*
Y171545D01*
X211650Y273558D02*
Y317350D01*
Y122650D02*
Y170545D01*
X210650Y274595D02*
Y317350D01*
Y122650D02*
Y169545D01*
X209650Y275631D02*
Y317350D01*
Y122650D02*
Y168545D01*
X208650Y276668D02*
Y317350D01*
Y122650D02*
Y167545D01*
X207650Y277704D02*
Y317350D01*
Y122650D02*
Y166545D01*
X206650Y278741D02*
Y317350D01*
Y122650D02*
Y165545D01*
X205650Y279777D02*
Y317350D01*
Y122650D02*
Y164545D01*
X204650Y280814D02*
Y317350D01*
Y122650D02*
Y163545D01*
X203650Y281850D02*
Y317350D01*
Y122650D02*
Y162545D01*
X202650Y282887D02*
Y317350D01*
Y122650D02*
Y161545D01*
X201650Y283923D02*
Y317350D01*
Y122650D02*
Y160545D01*
X200650Y284960D02*
Y317350D01*
Y122650D02*
Y159545D01*
X199650Y285996D02*
Y317350D01*
Y122650D02*
Y158545D01*
X198650Y287033D02*
Y317350D01*
Y122650D02*
Y157545D01*
X197650Y287476D02*
Y317350D01*
Y122650D02*
Y156545D01*
X196650Y287475D02*
Y317350D01*
Y122650D02*
Y155545D01*
X195650Y287475D02*
Y317350D01*
Y122650D02*
Y154545D01*
X194650Y287474D02*
Y317350D01*
Y122650D02*
Y154250D01*
X193650Y287474D02*
Y317350D01*
Y122650D02*
Y154250D01*
X192650Y287473D02*
Y317350D01*
Y122650D02*
Y154250D01*
X191650Y287473D02*
Y317350D01*
Y122650D02*
Y154250D01*
X190650Y287472D02*
Y317350D01*
Y122650D02*
Y154250D01*
X189650Y287472D02*
Y317350D01*
Y122650D02*
Y154250D01*
X188650Y287471D02*
Y317350D01*
Y122650D02*
Y154250D01*
X187650Y287471D02*
Y317350D01*
Y122650D02*
Y154250D01*
X186650Y287470D02*
Y317350D01*
Y122650D02*
Y154250D01*
X185650Y287469D02*
Y317350D01*
Y122650D02*
Y154250D01*
X184650Y300881D02*
Y317350D01*
Y290881D02*
Y295119D01*
Y122650D02*
Y154250D01*
X183650Y301821D02*
Y317350D01*
Y291821D02*
Y294179D01*
Y122650D02*
Y154250D01*
X182650Y302347D02*
Y317350D01*
Y292347D02*
Y293653D01*
Y122650D02*
Y154250D01*
X181650Y302604D02*
Y317350D01*
Y292604D02*
Y293396D01*
Y122650D02*
Y154250D01*
X180650Y302637D02*
Y317350D01*
Y292637D02*
Y293363D01*
Y122650D02*
Y154250D01*
X179650Y302450D02*
Y317350D01*
Y292450D02*
Y293550D01*
Y122650D02*
Y154250D01*
X178650Y302013D02*
Y317350D01*
Y292013D02*
Y293987D01*
Y122650D02*
Y154250D01*
X177650Y301225D02*
Y317350D01*
Y291225D02*
Y294775D01*
Y122650D02*
Y154250D01*
X176650Y299643D02*
Y317350D01*
Y289643D02*
Y296357D01*
Y122650D02*
Y154250D01*
X175650Y287464D02*
Y317350D01*
Y122650D02*
Y154250D01*
X174650Y287464D02*
Y317350D01*
Y122650D02*
Y154250D01*
X173650Y287463D02*
Y317350D01*
Y122650D02*
Y154250D01*
X172650Y287463D02*
Y317350D01*
Y122650D02*
Y154250D01*
X171650Y287462D02*
Y317350D01*
Y122650D02*
Y154250D01*
X170650Y287462D02*
Y317350D01*
Y122650D02*
Y154250D01*
X169650Y287461D02*
Y317350D01*
Y122650D02*
Y154250D01*
X168650Y287460D02*
Y317350D01*
Y122650D02*
Y154250D01*
X167650Y287460D02*
Y317350D01*
Y122650D02*
Y154250D01*
X166650Y287459D02*
Y317350D01*
Y122650D02*
Y154250D01*
X165650Y287459D02*
Y317350D01*
Y122650D02*
Y154250D01*
X164650Y287458D02*
Y317350D01*
Y122650D02*
Y154250D01*
X163650Y287458D02*
Y317350D01*
Y122650D02*
Y154250D01*
X162650Y287457D02*
Y317350D01*
Y122650D02*
Y154250D01*
X161650Y287457D02*
Y317350D01*
Y122650D02*
Y154250D01*
X160650Y287456D02*
Y317350D01*
Y122650D02*
Y154250D01*
X159650Y287456D02*
Y317350D01*
Y122650D02*
Y154250D01*
X158650Y287455D02*
Y317350D01*
Y122650D02*
Y154250D01*
X157650Y287455D02*
Y317350D01*
Y122650D02*
Y154250D01*
X156650Y287454D02*
Y317350D01*
Y122650D02*
Y154250D01*
X155650Y287454D02*
Y317350D01*
Y122650D02*
Y154250D01*
X154650Y287453D02*
Y317350D01*
Y122650D02*
Y154250D01*
X153650Y287452D02*
Y317350D01*
Y122650D02*
Y154250D01*
X152650Y287452D02*
Y317350D01*
Y122650D02*
Y154250D01*
X151650Y287451D02*
Y317350D01*
Y122650D02*
Y154250D01*
X150650Y287451D02*
Y317350D01*
Y122650D02*
Y154250D01*
X149650Y287450D02*
Y317350D01*
Y122650D02*
Y154250D01*
X148650Y287450D02*
Y317350D01*
Y122650D02*
Y154250D01*
X147650Y287449D02*
Y317350D01*
Y122650D02*
Y154250D01*
X146650Y287449D02*
Y317350D01*
Y122650D02*
Y154250D01*
X145650Y287448D02*
Y317350D01*
Y122650D02*
Y154250D01*
X144650Y287448D02*
Y317350D01*
Y122650D02*
Y154250D01*
X143650Y287447D02*
Y317350D01*
Y122650D02*
Y154250D01*
X142650Y287447D02*
Y317350D01*
Y122650D02*
Y154250D01*
X141650Y287446D02*
Y317350D01*
Y122650D02*
Y154250D01*
X140650Y287446D02*
Y317350D01*
Y122650D02*
Y154250D01*
X139650Y287445D02*
Y317350D01*
Y122650D02*
Y154250D01*
X138650Y287444D02*
Y317350D01*
Y122650D02*
Y154250D01*
X137650Y287444D02*
Y317350D01*
Y122650D02*
Y154250D01*
X136650Y287443D02*
Y317350D01*
Y122650D02*
Y154250D01*
X135650Y287443D02*
Y317350D01*
Y122650D02*
Y154250D01*
X134650Y287442D02*
Y317350D01*
Y122650D02*
Y154250D01*
X133650Y287442D02*
Y317350D01*
Y122650D02*
Y154250D01*
X132650Y287441D02*
Y317350D01*
Y122650D02*
Y154250D01*
X131650Y287441D02*
Y317350D01*
Y122650D02*
Y154250D01*
X130650Y287440D02*
Y317350D01*
Y122650D02*
Y154250D01*
X129650Y287440D02*
Y317350D01*
Y122650D02*
Y154250D01*
X128650Y287439D02*
Y317350D01*
Y122650D02*
Y154250D01*
X127650Y287439D02*
Y317350D01*
Y122650D02*
Y154250D01*
X126650Y287438D02*
Y317350D01*
Y122650D02*
Y154250D01*
X125650Y287438D02*
Y317350D01*
Y122650D02*
Y154250D01*
X124650Y287437D02*
Y317350D01*
Y122650D02*
Y154250D01*
X123650Y287437D02*
Y317350D01*
Y122650D02*
Y154250D01*
G54D22*
X169000Y176000D03*
X249000Y133000D03*
X263000Y140000D03*
X164000Y211000D03*
X171000Y247000D03*
X164000D03*
X246000Y233000D03*
X245000Y215000D03*
X212000Y229000D03*
X211000Y207000D03*
X251000Y192000D03*
X246000Y196000D03*
X208000Y243000D03*
X209000Y183000D03*
X206000Y226000D03*
X213000Y239000D03*
X206000Y219000D03*
X183385Y246518D03*
X261000Y200000D03*
X260000Y217000D03*
X261000Y233000D03*
Y243000D03*
X170000Y260000D03*
X232000Y266000D03*
X266000Y272000D03*
G54D24*
G54D55*
X264100Y285656D02*
Y286444D01*
X259100Y291562D02*
Y292349D01*
X254100Y291562D02*
Y292349D01*
X249100Y285656D02*
Y286444D01*
X244100Y291562D02*
Y292349D01*
X239100Y291562D02*
Y292349D01*
X234100Y285656D02*
Y286444D01*
G54D56*
X223273Y295892D03*
X273785Y291955D03*
G54D57*
X144800Y260000D03*
X134800Y250000D03*
X154800D03*
Y270000D03*
X134800D03*
X144800Y180000D03*
X134800Y170000D03*
X154800D03*
Y190000D03*
X134800D03*
G74*
X0Y0D02*
M02*
