G04 #@! TF.FileFunction,Legend,Top*
%FSLAX46Y46*%
G04 Gerber Fmt 4.6, Leading zero omitted, Abs format (unit mm)*
G04 Created by KiCad (PCBNEW 4.0.7+dfsg1-1) date Thu Nov 30 13:37:13 2017*
%MOMM*%
%LPD*%
G01*
G04 APERTURE LIST*
%ADD10C,0.300000*%
%ADD11C,0.150000*%
%ADD12C,0.127000*%
%ADD13C,0.304800*%
%ADD14C,0.203200*%
%ADD15C,0.050000*%
G04 APERTURE END LIST*
D10*
D11*
X151892000Y-81661000D02*
X151892000Y-83947000D01*
X148336000Y-81661000D02*
X148336000Y-83947000D01*
X128778000Y-95377000D02*
X128778000Y-93091000D01*
X125222000Y-95377000D02*
X125222000Y-93091000D01*
X138938000Y-95377000D02*
X138938000Y-93091000D01*
X135382000Y-95377000D02*
X135382000Y-93091000D01*
X145542000Y-95377000D02*
X145542000Y-93091000D01*
X149098000Y-95377000D02*
X149098000Y-93091000D01*
X155702000Y-95377000D02*
X155702000Y-93091000D01*
X159258000Y-95377000D02*
X159258000Y-93091000D01*
X134072000Y-72550000D02*
X134072000Y-81550000D01*
X129072000Y-81550000D02*
X129072000Y-72550000D01*
X134072000Y-81550000D02*
X134072000Y-87550000D01*
X133572000Y-73049900D02*
X133572000Y-81049900D01*
X133072000Y-83550000D02*
X133072000Y-86550000D01*
X129072000Y-81550000D02*
X129072000Y-87550000D01*
X129572000Y-73049900D02*
X129572000Y-81049900D01*
X130072000Y-83550000D02*
X130072000Y-86550000D01*
X133572000Y-86550000D02*
X133572000Y-87550000D01*
X132572000Y-81049900D02*
X132572000Y-81550000D01*
X129572000Y-86550000D02*
X129572000Y-87550000D01*
X130572000Y-81049900D02*
X130572000Y-81550000D01*
X129572000Y-73049900D02*
X133572000Y-73049900D01*
X133572000Y-81049900D02*
X129572000Y-81049900D01*
X130071900Y-83550000D02*
X133072100Y-83550000D01*
X133572000Y-86550000D02*
X129572000Y-86550000D01*
X129071900Y-72550000D02*
X134072100Y-72550000D01*
X129071900Y-81550000D02*
X134072100Y-81550000D01*
X133572000Y-87550000D02*
X134072000Y-87550000D01*
X129072000Y-87550000D02*
X129572000Y-87550000D01*
X165060000Y-104220000D02*
X164560000Y-104220000D01*
X160560000Y-104220000D02*
X160060000Y-104220000D01*
X165060100Y-110220000D02*
X160059900Y-110220000D01*
X165060100Y-119220000D02*
X160059900Y-119220000D01*
X160560000Y-105220000D02*
X164560000Y-105220000D01*
X164060100Y-108220000D02*
X161059900Y-108220000D01*
X160560000Y-110720100D02*
X164560000Y-110720100D01*
X164560000Y-118720100D02*
X160560000Y-118720100D01*
X163560000Y-110720100D02*
X163560000Y-110220000D01*
X164560000Y-105220000D02*
X164560000Y-104220000D01*
X161560000Y-110720100D02*
X161560000Y-110220000D01*
X160560000Y-105220000D02*
X160560000Y-104220000D01*
X164060000Y-108220000D02*
X164060000Y-105220000D01*
X164560000Y-118720100D02*
X164560000Y-110720100D01*
X165060000Y-110220000D02*
X165060000Y-104220000D01*
X161060000Y-108220000D02*
X161060000Y-105220000D01*
X160560000Y-118720100D02*
X160560000Y-110720100D01*
X160060000Y-110220000D02*
X160060000Y-104220000D01*
X165060000Y-110220000D02*
X165060000Y-119220000D01*
X160060000Y-119220000D02*
X160060000Y-110220000D01*
X124500000Y-119220000D02*
X124500000Y-110220000D01*
X129500000Y-110220000D02*
X129500000Y-119220000D01*
X124500000Y-110220000D02*
X124500000Y-104220000D01*
X125000000Y-118720100D02*
X125000000Y-110720100D01*
X125500000Y-108220000D02*
X125500000Y-105220000D01*
X129500000Y-110220000D02*
X129500000Y-104220000D01*
X129000000Y-118720100D02*
X129000000Y-110720100D01*
X128500000Y-108220000D02*
X128500000Y-105220000D01*
X125000000Y-105220000D02*
X125000000Y-104220000D01*
X126000000Y-110720100D02*
X126000000Y-110220000D01*
X129000000Y-105220000D02*
X129000000Y-104220000D01*
X128000000Y-110720100D02*
X128000000Y-110220000D01*
X129000000Y-118720100D02*
X125000000Y-118720100D01*
X125000000Y-110720100D02*
X129000000Y-110720100D01*
X128500100Y-108220000D02*
X125499900Y-108220000D01*
X125000000Y-105220000D02*
X129000000Y-105220000D01*
X129500100Y-119220000D02*
X124499900Y-119220000D01*
X129500100Y-110220000D02*
X124499900Y-110220000D01*
X125000000Y-104220000D02*
X124500000Y-104220000D01*
X129500000Y-104220000D02*
X129000000Y-104220000D01*
X139660000Y-104220000D02*
X139160000Y-104220000D01*
X135160000Y-104220000D02*
X134660000Y-104220000D01*
X139660100Y-110220000D02*
X134659900Y-110220000D01*
X139660100Y-119220000D02*
X134659900Y-119220000D01*
X135160000Y-105220000D02*
X139160000Y-105220000D01*
X138660100Y-108220000D02*
X135659900Y-108220000D01*
X135160000Y-110720100D02*
X139160000Y-110720100D01*
X139160000Y-118720100D02*
X135160000Y-118720100D01*
X138160000Y-110720100D02*
X138160000Y-110220000D01*
X139160000Y-105220000D02*
X139160000Y-104220000D01*
X136160000Y-110720100D02*
X136160000Y-110220000D01*
X135160000Y-105220000D02*
X135160000Y-104220000D01*
X138660000Y-108220000D02*
X138660000Y-105220000D01*
X139160000Y-118720100D02*
X139160000Y-110720100D01*
X139660000Y-110220000D02*
X139660000Y-104220000D01*
X135660000Y-108220000D02*
X135660000Y-105220000D01*
X135160000Y-118720100D02*
X135160000Y-110720100D01*
X134660000Y-110220000D02*
X134660000Y-104220000D01*
X139660000Y-110220000D02*
X139660000Y-119220000D01*
X134660000Y-119220000D02*
X134660000Y-110220000D01*
X144820000Y-119220000D02*
X144820000Y-110220000D01*
X149820000Y-110220000D02*
X149820000Y-119220000D01*
X144820000Y-110220000D02*
X144820000Y-104220000D01*
X145320000Y-118720100D02*
X145320000Y-110720100D01*
X145820000Y-108220000D02*
X145820000Y-105220000D01*
X149820000Y-110220000D02*
X149820000Y-104220000D01*
X149320000Y-118720100D02*
X149320000Y-110720100D01*
X148820000Y-108220000D02*
X148820000Y-105220000D01*
X145320000Y-105220000D02*
X145320000Y-104220000D01*
X146320000Y-110720100D02*
X146320000Y-110220000D01*
X149320000Y-105220000D02*
X149320000Y-104220000D01*
X148320000Y-110720100D02*
X148320000Y-110220000D01*
X149320000Y-118720100D02*
X145320000Y-118720100D01*
X145320000Y-110720100D02*
X149320000Y-110720100D01*
X148820100Y-108220000D02*
X145819900Y-108220000D01*
X145320000Y-105220000D02*
X149320000Y-105220000D01*
X149820100Y-119220000D02*
X144819900Y-119220000D01*
X149820100Y-110220000D02*
X144819900Y-110220000D01*
X145320000Y-104220000D02*
X144820000Y-104220000D01*
X149820000Y-104220000D02*
X149320000Y-104220000D01*
X154980000Y-119220000D02*
X154980000Y-110220000D01*
X159980000Y-110220000D02*
X159980000Y-119220000D01*
X154980000Y-110220000D02*
X154980000Y-104220000D01*
X155480000Y-118720100D02*
X155480000Y-110720100D01*
X155980000Y-108220000D02*
X155980000Y-105220000D01*
X159980000Y-110220000D02*
X159980000Y-104220000D01*
X159480000Y-118720100D02*
X159480000Y-110720100D01*
X158980000Y-108220000D02*
X158980000Y-105220000D01*
X155480000Y-105220000D02*
X155480000Y-104220000D01*
X156480000Y-110720100D02*
X156480000Y-110220000D01*
X159480000Y-105220000D02*
X159480000Y-104220000D01*
X158480000Y-110720100D02*
X158480000Y-110220000D01*
X159480000Y-118720100D02*
X155480000Y-118720100D01*
X155480000Y-110720100D02*
X159480000Y-110720100D01*
X158980100Y-108220000D02*
X155979900Y-108220000D01*
X155480000Y-105220000D02*
X159480000Y-105220000D01*
X159980100Y-119220000D02*
X154979900Y-119220000D01*
X159980100Y-110220000D02*
X154979900Y-110220000D01*
X155480000Y-104220000D02*
X154980000Y-104220000D01*
X159980000Y-104220000D02*
X159480000Y-104220000D01*
X170140000Y-104220000D02*
X169640000Y-104220000D01*
X165640000Y-104220000D02*
X165140000Y-104220000D01*
X170140100Y-110220000D02*
X165139900Y-110220000D01*
X170140100Y-119220000D02*
X165139900Y-119220000D01*
X165640000Y-105220000D02*
X169640000Y-105220000D01*
X169140100Y-108220000D02*
X166139900Y-108220000D01*
X165640000Y-110720100D02*
X169640000Y-110720100D01*
X169640000Y-118720100D02*
X165640000Y-118720100D01*
X168640000Y-110720100D02*
X168640000Y-110220000D01*
X169640000Y-105220000D02*
X169640000Y-104220000D01*
X166640000Y-110720100D02*
X166640000Y-110220000D01*
X165640000Y-105220000D02*
X165640000Y-104220000D01*
X169140000Y-108220000D02*
X169140000Y-105220000D01*
X169640000Y-118720100D02*
X169640000Y-110720100D01*
X170140000Y-110220000D02*
X170140000Y-104220000D01*
X166140000Y-108220000D02*
X166140000Y-105220000D01*
X165640000Y-118720100D02*
X165640000Y-110720100D01*
X165140000Y-110220000D02*
X165140000Y-104220000D01*
X170140000Y-110220000D02*
X170140000Y-119220000D01*
X165140000Y-119220000D02*
X165140000Y-110220000D01*
X154900000Y-104220000D02*
X154400000Y-104220000D01*
X150400000Y-104220000D02*
X149900000Y-104220000D01*
X154900100Y-110220000D02*
X149899900Y-110220000D01*
X154900100Y-119220000D02*
X149899900Y-119220000D01*
X150400000Y-105220000D02*
X154400000Y-105220000D01*
X153900100Y-108220000D02*
X150899900Y-108220000D01*
X150400000Y-110720100D02*
X154400000Y-110720100D01*
X154400000Y-118720100D02*
X150400000Y-118720100D01*
X153400000Y-110720100D02*
X153400000Y-110220000D01*
X154400000Y-105220000D02*
X154400000Y-104220000D01*
X151400000Y-110720100D02*
X151400000Y-110220000D01*
X150400000Y-105220000D02*
X150400000Y-104220000D01*
X153900000Y-108220000D02*
X153900000Y-105220000D01*
X154400000Y-118720100D02*
X154400000Y-110720100D01*
X154900000Y-110220000D02*
X154900000Y-104220000D01*
X150900000Y-108220000D02*
X150900000Y-105220000D01*
X150400000Y-118720100D02*
X150400000Y-110720100D01*
X149900000Y-110220000D02*
X149900000Y-104220000D01*
X154900000Y-110220000D02*
X154900000Y-119220000D01*
X149900000Y-119220000D02*
X149900000Y-110220000D01*
X128992000Y-72550000D02*
X128992000Y-81550000D01*
X123992000Y-81550000D02*
X123992000Y-72550000D01*
X128992000Y-81550000D02*
X128992000Y-87550000D01*
X128492000Y-73049900D02*
X128492000Y-81049900D01*
X127992000Y-83550000D02*
X127992000Y-86550000D01*
X123992000Y-81550000D02*
X123992000Y-87550000D01*
X124492000Y-73049900D02*
X124492000Y-81049900D01*
X124992000Y-83550000D02*
X124992000Y-86550000D01*
X128492000Y-86550000D02*
X128492000Y-87550000D01*
X127492000Y-81049900D02*
X127492000Y-81550000D01*
X124492000Y-86550000D02*
X124492000Y-87550000D01*
X125492000Y-81049900D02*
X125492000Y-81550000D01*
X124492000Y-73049900D02*
X128492000Y-73049900D01*
X128492000Y-81049900D02*
X124492000Y-81049900D01*
X124991900Y-83550000D02*
X127992100Y-83550000D01*
X128492000Y-86550000D02*
X124492000Y-86550000D01*
X123991900Y-72550000D02*
X128992100Y-72550000D01*
X123991900Y-81550000D02*
X128992100Y-81550000D01*
X128492000Y-87550000D02*
X128992000Y-87550000D01*
X123992000Y-87550000D02*
X124492000Y-87550000D01*
X129580000Y-119220000D02*
X129580000Y-110220000D01*
X134580000Y-110220000D02*
X134580000Y-119220000D01*
X129580000Y-110220000D02*
X129580000Y-104220000D01*
X130080000Y-118720100D02*
X130080000Y-110720100D01*
X130580000Y-108220000D02*
X130580000Y-105220000D01*
X134580000Y-110220000D02*
X134580000Y-104220000D01*
X134080000Y-118720100D02*
X134080000Y-110720100D01*
X133580000Y-108220000D02*
X133580000Y-105220000D01*
X130080000Y-105220000D02*
X130080000Y-104220000D01*
X131080000Y-110720100D02*
X131080000Y-110220000D01*
X134080000Y-105220000D02*
X134080000Y-104220000D01*
X133080000Y-110720100D02*
X133080000Y-110220000D01*
X134080000Y-118720100D02*
X130080000Y-118720100D01*
X130080000Y-110720100D02*
X134080000Y-110720100D01*
X133580100Y-108220000D02*
X130579900Y-108220000D01*
X130080000Y-105220000D02*
X134080000Y-105220000D01*
X134580100Y-119220000D02*
X129579900Y-119220000D01*
X134580100Y-110220000D02*
X129579900Y-110220000D01*
X130080000Y-104220000D02*
X129580000Y-104220000D01*
X134580000Y-104220000D02*
X134080000Y-104220000D01*
X144740000Y-104220000D02*
X144240000Y-104220000D01*
X140240000Y-104220000D02*
X139740000Y-104220000D01*
X144740100Y-110220000D02*
X139739900Y-110220000D01*
X144740100Y-119220000D02*
X139739900Y-119220000D01*
X140240000Y-105220000D02*
X144240000Y-105220000D01*
X143740100Y-108220000D02*
X140739900Y-108220000D01*
X140240000Y-110720100D02*
X144240000Y-110720100D01*
X144240000Y-118720100D02*
X140240000Y-118720100D01*
X143240000Y-110720100D02*
X143240000Y-110220000D01*
X144240000Y-105220000D02*
X144240000Y-104220000D01*
X141240000Y-110720100D02*
X141240000Y-110220000D01*
X140240000Y-105220000D02*
X140240000Y-104220000D01*
X143740000Y-108220000D02*
X143740000Y-105220000D01*
X144240000Y-118720100D02*
X144240000Y-110720100D01*
X144740000Y-110220000D02*
X144740000Y-104220000D01*
X140740000Y-108220000D02*
X140740000Y-105220000D01*
X140240000Y-118720100D02*
X140240000Y-110720100D01*
X139740000Y-110220000D02*
X139740000Y-104220000D01*
X144740000Y-110220000D02*
X144740000Y-119220000D01*
X139740000Y-119220000D02*
X139740000Y-110220000D01*
X175220000Y-104220000D02*
X174720000Y-104220000D01*
X170720000Y-104220000D02*
X170220000Y-104220000D01*
X175220100Y-110220000D02*
X170219900Y-110220000D01*
X175220100Y-119220000D02*
X170219900Y-119220000D01*
X170720000Y-105220000D02*
X174720000Y-105220000D01*
X174220100Y-108220000D02*
X171219900Y-108220000D01*
X170720000Y-110720100D02*
X174720000Y-110720100D01*
X174720000Y-118720100D02*
X170720000Y-118720100D01*
X173720000Y-110720100D02*
X173720000Y-110220000D01*
X174720000Y-105220000D02*
X174720000Y-104220000D01*
X171720000Y-110720100D02*
X171720000Y-110220000D01*
X170720000Y-105220000D02*
X170720000Y-104220000D01*
X174220000Y-108220000D02*
X174220000Y-105220000D01*
X174720000Y-118720100D02*
X174720000Y-110720100D01*
X175220000Y-110220000D02*
X175220000Y-104220000D01*
X171220000Y-108220000D02*
X171220000Y-105220000D01*
X170720000Y-118720100D02*
X170720000Y-110720100D01*
X170220000Y-110220000D02*
X170220000Y-104220000D01*
X175220000Y-110220000D02*
X175220000Y-119220000D01*
X170220000Y-119220000D02*
X170220000Y-110220000D01*
D12*
X136470000Y-72660000D02*
X136470000Y-88660000D01*
X145470000Y-72660000D02*
X136470000Y-72660000D01*
X145470000Y-88660000D02*
X145470000Y-72660000D01*
X136470000Y-88660000D02*
X145470000Y-88660000D01*
D11*
X169418000Y-95377000D02*
X169418000Y-93091000D01*
X165862000Y-95377000D02*
X165862000Y-93091000D01*
X152878000Y-84298000D02*
X155478000Y-84298000D01*
X155478000Y-84298000D02*
X155478000Y-86898000D01*
X155478000Y-86898000D02*
X152878000Y-86898000D01*
X152878000Y-86898000D02*
X152878000Y-84298000D01*
X152878000Y-81056000D02*
X152878000Y-78456000D01*
X155478000Y-81056000D02*
X152878000Y-81056000D01*
X155478000Y-78456000D02*
X155478000Y-81056000D01*
X152878000Y-78456000D02*
X155478000Y-78456000D01*
X151862000Y-92486000D02*
X151862000Y-89886000D01*
X154462000Y-92486000D02*
X151862000Y-92486000D01*
X154462000Y-89886000D02*
X154462000Y-92486000D01*
X151862000Y-89886000D02*
X154462000Y-89886000D01*
X141702000Y-89886000D02*
X144302000Y-89886000D01*
X144302000Y-89886000D02*
X144302000Y-92486000D01*
X144302000Y-92486000D02*
X141702000Y-92486000D01*
X141702000Y-92486000D02*
X141702000Y-89886000D01*
X162022000Y-89886000D02*
X164622000Y-89886000D01*
X164622000Y-89886000D02*
X164622000Y-92486000D01*
X164622000Y-92486000D02*
X162022000Y-92486000D01*
X162022000Y-92486000D02*
X162022000Y-89886000D01*
X131542000Y-89886000D02*
X134142000Y-89886000D01*
X134142000Y-89886000D02*
X134142000Y-92486000D01*
X134142000Y-92486000D02*
X131542000Y-92486000D01*
X131542000Y-92486000D02*
X131542000Y-89886000D01*
X121382000Y-89886000D02*
X123982000Y-89886000D01*
X123982000Y-89886000D02*
X123982000Y-92486000D01*
X123982000Y-92486000D02*
X121382000Y-92486000D01*
X121382000Y-92486000D02*
X121382000Y-89886000D01*
X121382000Y-98328000D02*
X121382000Y-95728000D01*
X123982000Y-98328000D02*
X121382000Y-98328000D01*
X123982000Y-95728000D02*
X123982000Y-98328000D01*
X121382000Y-95728000D02*
X123982000Y-95728000D01*
X131542000Y-98328000D02*
X131542000Y-95728000D01*
X134142000Y-98328000D02*
X131542000Y-98328000D01*
X134142000Y-95728000D02*
X134142000Y-98328000D01*
X131542000Y-95728000D02*
X134142000Y-95728000D01*
X141702000Y-98328000D02*
X141702000Y-95728000D01*
X144302000Y-98328000D02*
X141702000Y-98328000D01*
X144302000Y-95728000D02*
X144302000Y-98328000D01*
X141702000Y-95728000D02*
X144302000Y-95728000D01*
X151862000Y-98328000D02*
X151862000Y-95728000D01*
X154462000Y-98328000D02*
X151862000Y-98328000D01*
X154462000Y-95728000D02*
X154462000Y-98328000D01*
X151862000Y-95728000D02*
X154462000Y-95728000D01*
X162022000Y-95728000D02*
X164622000Y-95728000D01*
X164622000Y-95728000D02*
X164622000Y-98328000D01*
X164622000Y-98328000D02*
X162022000Y-98328000D01*
X162022000Y-98328000D02*
X162022000Y-95728000D01*
X163836000Y-78456000D02*
X163836000Y-81056000D01*
X158236000Y-78456000D02*
X163836000Y-78456000D01*
X158236000Y-81056000D02*
X158236000Y-78456000D01*
X163836000Y-81056000D02*
X158236000Y-81056000D01*
X128300000Y-105416000D02*
X125700000Y-105416000D01*
X128300000Y-99816000D02*
X128300000Y-105416000D01*
X125700000Y-99816000D02*
X128300000Y-99816000D01*
X125700000Y-105416000D02*
X125700000Y-99816000D01*
X135860000Y-105416000D02*
X135860000Y-99816000D01*
X135860000Y-99816000D02*
X138460000Y-99816000D01*
X138460000Y-99816000D02*
X138460000Y-105416000D01*
X138460000Y-105416000D02*
X135860000Y-105416000D01*
X148620000Y-105416000D02*
X146020000Y-105416000D01*
X148620000Y-99816000D02*
X148620000Y-105416000D01*
X146020000Y-99816000D02*
X148620000Y-99816000D01*
X146020000Y-105416000D02*
X146020000Y-99816000D01*
X156180000Y-105416000D02*
X156180000Y-99816000D01*
X156180000Y-99816000D02*
X158780000Y-99816000D01*
X158780000Y-99816000D02*
X158780000Y-105416000D01*
X158780000Y-105416000D02*
X156180000Y-105416000D01*
X166340000Y-105416000D02*
X166340000Y-99816000D01*
X166340000Y-99816000D02*
X168940000Y-99816000D01*
X168940000Y-99816000D02*
X168940000Y-105416000D01*
X168940000Y-105416000D02*
X166340000Y-105416000D01*
X179070000Y-86868000D02*
X184150000Y-86868000D01*
X184150000Y-86868000D02*
X184150000Y-89408000D01*
X184150000Y-89408000D02*
X179070000Y-89408000D01*
X179070000Y-89408000D02*
X179070000Y-86868000D01*
X179070000Y-89408000D02*
X184150000Y-89408000D01*
X184150000Y-89408000D02*
X184150000Y-97028000D01*
X184150000Y-97028000D02*
X179070000Y-97028000D01*
X179070000Y-97028000D02*
X179070000Y-89408000D01*
D13*
X153180143Y-83185000D02*
X153180143Y-83693000D01*
X153978429Y-83693000D02*
X152454429Y-83693000D01*
X152454429Y-82967286D01*
X152599571Y-82459285D02*
X152527000Y-82386714D01*
X152454429Y-82241571D01*
X152454429Y-81878714D01*
X152527000Y-81733571D01*
X152599571Y-81661000D01*
X152744714Y-81588428D01*
X152889857Y-81588428D01*
X153107571Y-81661000D01*
X153978429Y-82531857D01*
X153978429Y-81588428D01*
X123736463Y-94607380D02*
X123736463Y-95115380D01*
X124534749Y-95115380D02*
X123010749Y-95115380D01*
X123010749Y-94389666D01*
X123010749Y-93954237D02*
X123010749Y-93010808D01*
X123591320Y-93518808D01*
X123591320Y-93301094D01*
X123663891Y-93155951D01*
X123736463Y-93083380D01*
X123881606Y-93010808D01*
X124244463Y-93010808D01*
X124389606Y-93083380D01*
X124462177Y-93155951D01*
X124534749Y-93301094D01*
X124534749Y-93736522D01*
X124462177Y-93881665D01*
X124389606Y-93954237D01*
X133896463Y-94607380D02*
X133896463Y-95115380D01*
X134694749Y-95115380D02*
X133170749Y-95115380D01*
X133170749Y-94389666D01*
X133678749Y-93155951D02*
X134694749Y-93155951D01*
X133098177Y-93518808D02*
X134186749Y-93881665D01*
X134186749Y-92938237D01*
X144056463Y-94607380D02*
X144056463Y-95115380D01*
X144854749Y-95115380D02*
X143330749Y-95115380D01*
X143330749Y-94389666D01*
X143330749Y-93083380D02*
X143330749Y-93809094D01*
X144056463Y-93881665D01*
X143983891Y-93809094D01*
X143911320Y-93663951D01*
X143911320Y-93301094D01*
X143983891Y-93155951D01*
X144056463Y-93083380D01*
X144201606Y-93010808D01*
X144564463Y-93010808D01*
X144709606Y-93083380D01*
X144782177Y-93155951D01*
X144854749Y-93301094D01*
X144854749Y-93663951D01*
X144782177Y-93809094D01*
X144709606Y-93881665D01*
X154216463Y-94607380D02*
X154216463Y-95115380D01*
X155014749Y-95115380D02*
X153490749Y-95115380D01*
X153490749Y-94389666D01*
X153490749Y-93155951D02*
X153490749Y-93446237D01*
X153563320Y-93591380D01*
X153635891Y-93663951D01*
X153853606Y-93809094D01*
X154143891Y-93881665D01*
X154724463Y-93881665D01*
X154869606Y-93809094D01*
X154942177Y-93736522D01*
X155014749Y-93591380D01*
X155014749Y-93301094D01*
X154942177Y-93155951D01*
X154869606Y-93083380D01*
X154724463Y-93010808D01*
X154361606Y-93010808D01*
X154216463Y-93083380D01*
X154143891Y-93155951D01*
X154071320Y-93301094D01*
X154071320Y-93591380D01*
X154143891Y-93736522D01*
X154216463Y-93809094D01*
X154361606Y-93881665D01*
X130447143Y-74857429D02*
X130447143Y-73333429D01*
X131027715Y-73333429D01*
X131172857Y-73406000D01*
X131245429Y-73478571D01*
X131318000Y-73623714D01*
X131318000Y-73841429D01*
X131245429Y-73986571D01*
X131172857Y-74059143D01*
X131027715Y-74131714D01*
X130447143Y-74131714D01*
X132769429Y-74857429D02*
X131898572Y-74857429D01*
X132334000Y-74857429D02*
X132334000Y-73333429D01*
X132188857Y-73551143D01*
X132043715Y-73696286D01*
X131898572Y-73768857D01*
X161435143Y-118291429D02*
X161435143Y-116767429D01*
X162015715Y-116767429D01*
X162160857Y-116840000D01*
X162233429Y-116912571D01*
X162306000Y-117057714D01*
X162306000Y-117275429D01*
X162233429Y-117420571D01*
X162160857Y-117493143D01*
X162015715Y-117565714D01*
X161435143Y-117565714D01*
X162886572Y-116912571D02*
X162959143Y-116840000D01*
X163104286Y-116767429D01*
X163467143Y-116767429D01*
X163612286Y-116840000D01*
X163684857Y-116912571D01*
X163757429Y-117057714D01*
X163757429Y-117202857D01*
X163684857Y-117420571D01*
X162814000Y-118291429D01*
X163757429Y-118291429D01*
X125149428Y-118291429D02*
X125149428Y-116767429D01*
X125730000Y-116767429D01*
X125875142Y-116840000D01*
X125947714Y-116912571D01*
X126020285Y-117057714D01*
X126020285Y-117275429D01*
X125947714Y-117420571D01*
X125875142Y-117493143D01*
X125730000Y-117565714D01*
X125149428Y-117565714D01*
X127471714Y-118291429D02*
X126600857Y-118291429D01*
X127036285Y-118291429D02*
X127036285Y-116767429D01*
X126891142Y-116985143D01*
X126746000Y-117130286D01*
X126600857Y-117202857D01*
X128850571Y-116767429D02*
X128124857Y-116767429D01*
X128052286Y-117493143D01*
X128124857Y-117420571D01*
X128270000Y-117348000D01*
X128632857Y-117348000D01*
X128778000Y-117420571D01*
X128850571Y-117493143D01*
X128923143Y-117638286D01*
X128923143Y-118001143D01*
X128850571Y-118146286D01*
X128778000Y-118218857D01*
X128632857Y-118291429D01*
X128270000Y-118291429D01*
X128124857Y-118218857D01*
X128052286Y-118146286D01*
X135309428Y-118291429D02*
X135309428Y-116767429D01*
X135890000Y-116767429D01*
X136035142Y-116840000D01*
X136107714Y-116912571D01*
X136180285Y-117057714D01*
X136180285Y-117275429D01*
X136107714Y-117420571D01*
X136035142Y-117493143D01*
X135890000Y-117565714D01*
X135309428Y-117565714D01*
X137631714Y-118291429D02*
X136760857Y-118291429D01*
X137196285Y-118291429D02*
X137196285Y-116767429D01*
X137051142Y-116985143D01*
X136906000Y-117130286D01*
X136760857Y-117202857D01*
X138938000Y-116767429D02*
X138647714Y-116767429D01*
X138502571Y-116840000D01*
X138430000Y-116912571D01*
X138284857Y-117130286D01*
X138212286Y-117420571D01*
X138212286Y-118001143D01*
X138284857Y-118146286D01*
X138357429Y-118218857D01*
X138502571Y-118291429D01*
X138792857Y-118291429D01*
X138938000Y-118218857D01*
X139010571Y-118146286D01*
X139083143Y-118001143D01*
X139083143Y-117638286D01*
X139010571Y-117493143D01*
X138938000Y-117420571D01*
X138792857Y-117348000D01*
X138502571Y-117348000D01*
X138357429Y-117420571D01*
X138284857Y-117493143D01*
X138212286Y-117638286D01*
X145469428Y-118291429D02*
X145469428Y-116767429D01*
X146050000Y-116767429D01*
X146195142Y-116840000D01*
X146267714Y-116912571D01*
X146340285Y-117057714D01*
X146340285Y-117275429D01*
X146267714Y-117420571D01*
X146195142Y-117493143D01*
X146050000Y-117565714D01*
X145469428Y-117565714D01*
X147791714Y-118291429D02*
X146920857Y-118291429D01*
X147356285Y-118291429D02*
X147356285Y-116767429D01*
X147211142Y-116985143D01*
X147066000Y-117130286D01*
X146920857Y-117202857D01*
X148299714Y-116767429D02*
X149315714Y-116767429D01*
X148662571Y-118291429D01*
X155629428Y-118291429D02*
X155629428Y-116767429D01*
X156210000Y-116767429D01*
X156355142Y-116840000D01*
X156427714Y-116912571D01*
X156500285Y-117057714D01*
X156500285Y-117275429D01*
X156427714Y-117420571D01*
X156355142Y-117493143D01*
X156210000Y-117565714D01*
X155629428Y-117565714D01*
X157951714Y-118291429D02*
X157080857Y-118291429D01*
X157516285Y-118291429D02*
X157516285Y-116767429D01*
X157371142Y-116985143D01*
X157226000Y-117130286D01*
X157080857Y-117202857D01*
X158822571Y-117420571D02*
X158677429Y-117348000D01*
X158604857Y-117275429D01*
X158532286Y-117130286D01*
X158532286Y-117057714D01*
X158604857Y-116912571D01*
X158677429Y-116840000D01*
X158822571Y-116767429D01*
X159112857Y-116767429D01*
X159258000Y-116840000D01*
X159330571Y-116912571D01*
X159403143Y-117057714D01*
X159403143Y-117130286D01*
X159330571Y-117275429D01*
X159258000Y-117348000D01*
X159112857Y-117420571D01*
X158822571Y-117420571D01*
X158677429Y-117493143D01*
X158604857Y-117565714D01*
X158532286Y-117710857D01*
X158532286Y-118001143D01*
X158604857Y-118146286D01*
X158677429Y-118218857D01*
X158822571Y-118291429D01*
X159112857Y-118291429D01*
X159258000Y-118218857D01*
X159330571Y-118146286D01*
X159403143Y-118001143D01*
X159403143Y-117710857D01*
X159330571Y-117565714D01*
X159258000Y-117493143D01*
X159112857Y-117420571D01*
X165789428Y-118291429D02*
X165789428Y-116767429D01*
X166370000Y-116767429D01*
X166515142Y-116840000D01*
X166587714Y-116912571D01*
X166660285Y-117057714D01*
X166660285Y-117275429D01*
X166587714Y-117420571D01*
X166515142Y-117493143D01*
X166370000Y-117565714D01*
X165789428Y-117565714D01*
X168111714Y-118291429D02*
X167240857Y-118291429D01*
X167676285Y-118291429D02*
X167676285Y-116767429D01*
X167531142Y-116985143D01*
X167386000Y-117130286D01*
X167240857Y-117202857D01*
X168837429Y-118291429D02*
X169127714Y-118291429D01*
X169272857Y-118218857D01*
X169345429Y-118146286D01*
X169490571Y-117928571D01*
X169563143Y-117638286D01*
X169563143Y-117057714D01*
X169490571Y-116912571D01*
X169418000Y-116840000D01*
X169272857Y-116767429D01*
X168982571Y-116767429D01*
X168837429Y-116840000D01*
X168764857Y-116912571D01*
X168692286Y-117057714D01*
X168692286Y-117420571D01*
X168764857Y-117565714D01*
X168837429Y-117638286D01*
X168982571Y-117710857D01*
X169272857Y-117710857D01*
X169418000Y-117638286D01*
X169490571Y-117565714D01*
X169563143Y-117420571D01*
X150549428Y-118291429D02*
X150549428Y-116767429D01*
X151130000Y-116767429D01*
X151275142Y-116840000D01*
X151347714Y-116912571D01*
X151420285Y-117057714D01*
X151420285Y-117275429D01*
X151347714Y-117420571D01*
X151275142Y-117493143D01*
X151130000Y-117565714D01*
X150549428Y-117565714D01*
X152000857Y-116912571D02*
X152073428Y-116840000D01*
X152218571Y-116767429D01*
X152581428Y-116767429D01*
X152726571Y-116840000D01*
X152799142Y-116912571D01*
X152871714Y-117057714D01*
X152871714Y-117202857D01*
X152799142Y-117420571D01*
X151928285Y-118291429D01*
X152871714Y-118291429D01*
X153815143Y-116767429D02*
X153960286Y-116767429D01*
X154105429Y-116840000D01*
X154178000Y-116912571D01*
X154250571Y-117057714D01*
X154323143Y-117348000D01*
X154323143Y-117710857D01*
X154250571Y-118001143D01*
X154178000Y-118146286D01*
X154105429Y-118218857D01*
X153960286Y-118291429D01*
X153815143Y-118291429D01*
X153670000Y-118218857D01*
X153597429Y-118146286D01*
X153524857Y-118001143D01*
X153452286Y-117710857D01*
X153452286Y-117348000D01*
X153524857Y-117057714D01*
X153597429Y-116912571D01*
X153670000Y-116840000D01*
X153815143Y-116767429D01*
X124641428Y-74857429D02*
X124641428Y-73333429D01*
X125222000Y-73333429D01*
X125367142Y-73406000D01*
X125439714Y-73478571D01*
X125512285Y-73623714D01*
X125512285Y-73841429D01*
X125439714Y-73986571D01*
X125367142Y-74059143D01*
X125222000Y-74131714D01*
X124641428Y-74131714D01*
X126092857Y-73478571D02*
X126165428Y-73406000D01*
X126310571Y-73333429D01*
X126673428Y-73333429D01*
X126818571Y-73406000D01*
X126891142Y-73478571D01*
X126963714Y-73623714D01*
X126963714Y-73768857D01*
X126891142Y-73986571D01*
X126020285Y-74857429D01*
X126963714Y-74857429D01*
X128415143Y-74857429D02*
X127544286Y-74857429D01*
X127979714Y-74857429D02*
X127979714Y-73333429D01*
X127834571Y-73551143D01*
X127689429Y-73696286D01*
X127544286Y-73768857D01*
X130229428Y-118291429D02*
X130229428Y-116767429D01*
X130810000Y-116767429D01*
X130955142Y-116840000D01*
X131027714Y-116912571D01*
X131100285Y-117057714D01*
X131100285Y-117275429D01*
X131027714Y-117420571D01*
X130955142Y-117493143D01*
X130810000Y-117565714D01*
X130229428Y-117565714D01*
X131680857Y-116912571D02*
X131753428Y-116840000D01*
X131898571Y-116767429D01*
X132261428Y-116767429D01*
X132406571Y-116840000D01*
X132479142Y-116912571D01*
X132551714Y-117057714D01*
X132551714Y-117202857D01*
X132479142Y-117420571D01*
X131608285Y-118291429D01*
X132551714Y-118291429D01*
X133132286Y-116912571D02*
X133204857Y-116840000D01*
X133350000Y-116767429D01*
X133712857Y-116767429D01*
X133858000Y-116840000D01*
X133930571Y-116912571D01*
X134003143Y-117057714D01*
X134003143Y-117202857D01*
X133930571Y-117420571D01*
X133059714Y-118291429D01*
X134003143Y-118291429D01*
X140389428Y-118291429D02*
X140389428Y-116767429D01*
X140970000Y-116767429D01*
X141115142Y-116840000D01*
X141187714Y-116912571D01*
X141260285Y-117057714D01*
X141260285Y-117275429D01*
X141187714Y-117420571D01*
X141115142Y-117493143D01*
X140970000Y-117565714D01*
X140389428Y-117565714D01*
X141840857Y-116912571D02*
X141913428Y-116840000D01*
X142058571Y-116767429D01*
X142421428Y-116767429D01*
X142566571Y-116840000D01*
X142639142Y-116912571D01*
X142711714Y-117057714D01*
X142711714Y-117202857D01*
X142639142Y-117420571D01*
X141768285Y-118291429D01*
X142711714Y-118291429D01*
X143219714Y-116767429D02*
X144163143Y-116767429D01*
X143655143Y-117348000D01*
X143872857Y-117348000D01*
X144018000Y-117420571D01*
X144090571Y-117493143D01*
X144163143Y-117638286D01*
X144163143Y-118001143D01*
X144090571Y-118146286D01*
X144018000Y-118218857D01*
X143872857Y-118291429D01*
X143437429Y-118291429D01*
X143292286Y-118218857D01*
X143219714Y-118146286D01*
X170869428Y-118291429D02*
X170869428Y-116767429D01*
X171450000Y-116767429D01*
X171595142Y-116840000D01*
X171667714Y-116912571D01*
X171740285Y-117057714D01*
X171740285Y-117275429D01*
X171667714Y-117420571D01*
X171595142Y-117493143D01*
X171450000Y-117565714D01*
X170869428Y-117565714D01*
X172320857Y-116912571D02*
X172393428Y-116840000D01*
X172538571Y-116767429D01*
X172901428Y-116767429D01*
X173046571Y-116840000D01*
X173119142Y-116912571D01*
X173191714Y-117057714D01*
X173191714Y-117202857D01*
X173119142Y-117420571D01*
X172248285Y-118291429D01*
X173191714Y-118291429D01*
X174498000Y-117275429D02*
X174498000Y-118291429D01*
X174135143Y-116694857D02*
X173772286Y-117783429D01*
X174715714Y-117783429D01*
D14*
X135567057Y-76938414D02*
X135615438Y-76986795D01*
X135663819Y-77131938D01*
X135663819Y-77228700D01*
X135615438Y-77373842D01*
X135518676Y-77470604D01*
X135421914Y-77518985D01*
X135228390Y-77567366D01*
X135083248Y-77567366D01*
X134889724Y-77518985D01*
X134792962Y-77470604D01*
X134696200Y-77373842D01*
X134647819Y-77228700D01*
X134647819Y-77131938D01*
X134696200Y-76986795D01*
X134744581Y-76938414D01*
X134647819Y-76309461D02*
X134647819Y-76115938D01*
X134696200Y-76019176D01*
X134792962Y-75922414D01*
X134986486Y-75874033D01*
X135325152Y-75874033D01*
X135518676Y-75922414D01*
X135615438Y-76019176D01*
X135663819Y-76115938D01*
X135663819Y-76309461D01*
X135615438Y-76406223D01*
X135518676Y-76502985D01*
X135325152Y-76551366D01*
X134986486Y-76551366D01*
X134792962Y-76502985D01*
X134696200Y-76406223D01*
X134647819Y-76309461D01*
X135663819Y-75438604D02*
X134647819Y-75438604D01*
X135663819Y-74858033D01*
X134647819Y-74858033D01*
X135663819Y-73842033D02*
X135663819Y-74422604D01*
X135663819Y-74132318D02*
X134647819Y-74132318D01*
X134792962Y-74229080D01*
X134889724Y-74325842D01*
X134938105Y-74422604D01*
D13*
X164376463Y-94607380D02*
X164376463Y-95115380D01*
X165174749Y-95115380D02*
X163650749Y-95115380D01*
X163650749Y-94389666D01*
X163650749Y-93954237D02*
X163650749Y-92938237D01*
X165174749Y-93591380D01*
X157534429Y-86595857D02*
X156010429Y-86595857D01*
X156010429Y-86015285D01*
X156083000Y-85870143D01*
X156155571Y-85797571D01*
X156300714Y-85725000D01*
X156518429Y-85725000D01*
X156663571Y-85797571D01*
X156736143Y-85870143D01*
X156808714Y-86015285D01*
X156808714Y-86595857D01*
X156010429Y-85217000D02*
X156010429Y-84273571D01*
X156591000Y-84781571D01*
X156591000Y-84563857D01*
X156663571Y-84418714D01*
X156736143Y-84346143D01*
X156881286Y-84273571D01*
X157244143Y-84273571D01*
X157389286Y-84346143D01*
X157461857Y-84418714D01*
X157534429Y-84563857D01*
X157534429Y-84999285D01*
X157461857Y-85144428D01*
X157389286Y-85217000D01*
X157534429Y-80753857D02*
X156010429Y-80753857D01*
X156010429Y-80173285D01*
X156083000Y-80028143D01*
X156155571Y-79955571D01*
X156300714Y-79883000D01*
X156518429Y-79883000D01*
X156663571Y-79955571D01*
X156736143Y-80028143D01*
X156808714Y-80173285D01*
X156808714Y-80753857D01*
X156518429Y-78576714D02*
X157534429Y-78576714D01*
X155937857Y-78939571D02*
X157026429Y-79302428D01*
X157026429Y-78359000D01*
X151222529Y-92221957D02*
X149698529Y-92221957D01*
X149698529Y-91641385D01*
X149771100Y-91496243D01*
X149843671Y-91423671D01*
X149988814Y-91351100D01*
X150206529Y-91351100D01*
X150351671Y-91423671D01*
X150424243Y-91496243D01*
X150496814Y-91641385D01*
X150496814Y-92221957D01*
X149698529Y-89972243D02*
X149698529Y-90697957D01*
X150424243Y-90770528D01*
X150351671Y-90697957D01*
X150279100Y-90552814D01*
X150279100Y-90189957D01*
X150351671Y-90044814D01*
X150424243Y-89972243D01*
X150569386Y-89899671D01*
X150932243Y-89899671D01*
X151077386Y-89972243D01*
X151149957Y-90044814D01*
X151222529Y-90189957D01*
X151222529Y-90552814D01*
X151149957Y-90697957D01*
X151077386Y-90770528D01*
X141062529Y-92221957D02*
X139538529Y-92221957D01*
X139538529Y-91641385D01*
X139611100Y-91496243D01*
X139683671Y-91423671D01*
X139828814Y-91351100D01*
X140046529Y-91351100D01*
X140191671Y-91423671D01*
X140264243Y-91496243D01*
X140336814Y-91641385D01*
X140336814Y-92221957D01*
X139538529Y-90044814D02*
X139538529Y-90335100D01*
X139611100Y-90480243D01*
X139683671Y-90552814D01*
X139901386Y-90697957D01*
X140191671Y-90770528D01*
X140772243Y-90770528D01*
X140917386Y-90697957D01*
X140989957Y-90625385D01*
X141062529Y-90480243D01*
X141062529Y-90189957D01*
X140989957Y-90044814D01*
X140917386Y-89972243D01*
X140772243Y-89899671D01*
X140409386Y-89899671D01*
X140264243Y-89972243D01*
X140191671Y-90044814D01*
X140119100Y-90189957D01*
X140119100Y-90480243D01*
X140191671Y-90625385D01*
X140264243Y-90697957D01*
X140409386Y-90770528D01*
X161382529Y-92221957D02*
X159858529Y-92221957D01*
X159858529Y-91641385D01*
X159931100Y-91496243D01*
X160003671Y-91423671D01*
X160148814Y-91351100D01*
X160366529Y-91351100D01*
X160511671Y-91423671D01*
X160584243Y-91496243D01*
X160656814Y-91641385D01*
X160656814Y-92221957D01*
X159858529Y-90843100D02*
X159858529Y-89827100D01*
X161382529Y-90480243D01*
X130902529Y-92221957D02*
X129378529Y-92221957D01*
X129378529Y-91641385D01*
X129451100Y-91496243D01*
X129523671Y-91423671D01*
X129668814Y-91351100D01*
X129886529Y-91351100D01*
X130031671Y-91423671D01*
X130104243Y-91496243D01*
X130176814Y-91641385D01*
X130176814Y-92221957D01*
X130031671Y-90480243D02*
X129959100Y-90625385D01*
X129886529Y-90697957D01*
X129741386Y-90770528D01*
X129668814Y-90770528D01*
X129523671Y-90697957D01*
X129451100Y-90625385D01*
X129378529Y-90480243D01*
X129378529Y-90189957D01*
X129451100Y-90044814D01*
X129523671Y-89972243D01*
X129668814Y-89899671D01*
X129741386Y-89899671D01*
X129886529Y-89972243D01*
X129959100Y-90044814D01*
X130031671Y-90189957D01*
X130031671Y-90480243D01*
X130104243Y-90625385D01*
X130176814Y-90697957D01*
X130321957Y-90770528D01*
X130612243Y-90770528D01*
X130757386Y-90697957D01*
X130829957Y-90625385D01*
X130902529Y-90480243D01*
X130902529Y-90189957D01*
X130829957Y-90044814D01*
X130757386Y-89972243D01*
X130612243Y-89899671D01*
X130321957Y-89899671D01*
X130176814Y-89972243D01*
X130104243Y-90044814D01*
X130031671Y-90189957D01*
X120742529Y-92221957D02*
X119218529Y-92221957D01*
X119218529Y-91641385D01*
X119291100Y-91496243D01*
X119363671Y-91423671D01*
X119508814Y-91351100D01*
X119726529Y-91351100D01*
X119871671Y-91423671D01*
X119944243Y-91496243D01*
X120016814Y-91641385D01*
X120016814Y-92221957D01*
X120742529Y-90625385D02*
X120742529Y-90335100D01*
X120669957Y-90189957D01*
X120597386Y-90117385D01*
X120379671Y-89972243D01*
X120089386Y-89899671D01*
X119508814Y-89899671D01*
X119363671Y-89972243D01*
X119291100Y-90044814D01*
X119218529Y-90189957D01*
X119218529Y-90480243D01*
X119291100Y-90625385D01*
X119363671Y-90697957D01*
X119508814Y-90770528D01*
X119871671Y-90770528D01*
X120016814Y-90697957D01*
X120089386Y-90625385D01*
X120161957Y-90480243D01*
X120161957Y-90189957D01*
X120089386Y-90044814D01*
X120016814Y-89972243D01*
X119871671Y-89899671D01*
X120742529Y-98789672D02*
X119218529Y-98789672D01*
X119218529Y-98209100D01*
X119291100Y-98063958D01*
X119363671Y-97991386D01*
X119508814Y-97918815D01*
X119726529Y-97918815D01*
X119871671Y-97991386D01*
X119944243Y-98063958D01*
X120016814Y-98209100D01*
X120016814Y-98789672D01*
X120742529Y-96467386D02*
X120742529Y-97338243D01*
X120742529Y-96902815D02*
X119218529Y-96902815D01*
X119436243Y-97047958D01*
X119581386Y-97193100D01*
X119653957Y-97338243D01*
X119218529Y-95523957D02*
X119218529Y-95378814D01*
X119291100Y-95233671D01*
X119363671Y-95161100D01*
X119508814Y-95088529D01*
X119799100Y-95015957D01*
X120161957Y-95015957D01*
X120452243Y-95088529D01*
X120597386Y-95161100D01*
X120669957Y-95233671D01*
X120742529Y-95378814D01*
X120742529Y-95523957D01*
X120669957Y-95669100D01*
X120597386Y-95741671D01*
X120452243Y-95814243D01*
X120161957Y-95886814D01*
X119799100Y-95886814D01*
X119508814Y-95814243D01*
X119363671Y-95741671D01*
X119291100Y-95669100D01*
X119218529Y-95523957D01*
X130902529Y-98789672D02*
X129378529Y-98789672D01*
X129378529Y-98209100D01*
X129451100Y-98063958D01*
X129523671Y-97991386D01*
X129668814Y-97918815D01*
X129886529Y-97918815D01*
X130031671Y-97991386D01*
X130104243Y-98063958D01*
X130176814Y-98209100D01*
X130176814Y-98789672D01*
X130902529Y-96467386D02*
X130902529Y-97338243D01*
X130902529Y-96902815D02*
X129378529Y-96902815D01*
X129596243Y-97047958D01*
X129741386Y-97193100D01*
X129813957Y-97338243D01*
X130902529Y-95015957D02*
X130902529Y-95886814D01*
X130902529Y-95451386D02*
X129378529Y-95451386D01*
X129596243Y-95596529D01*
X129741386Y-95741671D01*
X129813957Y-95886814D01*
X141062529Y-98789672D02*
X139538529Y-98789672D01*
X139538529Y-98209100D01*
X139611100Y-98063958D01*
X139683671Y-97991386D01*
X139828814Y-97918815D01*
X140046529Y-97918815D01*
X140191671Y-97991386D01*
X140264243Y-98063958D01*
X140336814Y-98209100D01*
X140336814Y-98789672D01*
X141062529Y-96467386D02*
X141062529Y-97338243D01*
X141062529Y-96902815D02*
X139538529Y-96902815D01*
X139756243Y-97047958D01*
X139901386Y-97193100D01*
X139973957Y-97338243D01*
X139683671Y-95886814D02*
X139611100Y-95814243D01*
X139538529Y-95669100D01*
X139538529Y-95306243D01*
X139611100Y-95161100D01*
X139683671Y-95088529D01*
X139828814Y-95015957D01*
X139973957Y-95015957D01*
X140191671Y-95088529D01*
X141062529Y-95959386D01*
X141062529Y-95015957D01*
X151222529Y-98789672D02*
X149698529Y-98789672D01*
X149698529Y-98209100D01*
X149771100Y-98063958D01*
X149843671Y-97991386D01*
X149988814Y-97918815D01*
X150206529Y-97918815D01*
X150351671Y-97991386D01*
X150424243Y-98063958D01*
X150496814Y-98209100D01*
X150496814Y-98789672D01*
X151222529Y-96467386D02*
X151222529Y-97338243D01*
X151222529Y-96902815D02*
X149698529Y-96902815D01*
X149916243Y-97047958D01*
X150061386Y-97193100D01*
X150133957Y-97338243D01*
X149698529Y-95959386D02*
X149698529Y-95015957D01*
X150279100Y-95523957D01*
X150279100Y-95306243D01*
X150351671Y-95161100D01*
X150424243Y-95088529D01*
X150569386Y-95015957D01*
X150932243Y-95015957D01*
X151077386Y-95088529D01*
X151149957Y-95161100D01*
X151222529Y-95306243D01*
X151222529Y-95741671D01*
X151149957Y-95886814D01*
X151077386Y-95959386D01*
X161382529Y-98789672D02*
X159858529Y-98789672D01*
X159858529Y-98209100D01*
X159931100Y-98063958D01*
X160003671Y-97991386D01*
X160148814Y-97918815D01*
X160366529Y-97918815D01*
X160511671Y-97991386D01*
X160584243Y-98063958D01*
X160656814Y-98209100D01*
X160656814Y-98789672D01*
X161382529Y-96467386D02*
X161382529Y-97338243D01*
X161382529Y-96902815D02*
X159858529Y-96902815D01*
X160076243Y-97047958D01*
X160221386Y-97193100D01*
X160293957Y-97338243D01*
X160366529Y-95161100D02*
X161382529Y-95161100D01*
X159785957Y-95523957D02*
X160874529Y-95886814D01*
X160874529Y-94943386D01*
X165970857Y-81788000D02*
X166043429Y-81570286D01*
X166043429Y-81207429D01*
X165970857Y-81062286D01*
X165898286Y-80989715D01*
X165753143Y-80917143D01*
X165608000Y-80917143D01*
X165462857Y-80989715D01*
X165390286Y-81062286D01*
X165317714Y-81207429D01*
X165245143Y-81497715D01*
X165172571Y-81642857D01*
X165100000Y-81715429D01*
X164954857Y-81788000D01*
X164809714Y-81788000D01*
X164664571Y-81715429D01*
X164592000Y-81642857D01*
X164519429Y-81497715D01*
X164519429Y-81134857D01*
X164592000Y-80917143D01*
X164519429Y-80409143D02*
X166043429Y-80046286D01*
X164954857Y-79756000D01*
X166043429Y-79465714D01*
X164519429Y-79102857D01*
X166043429Y-77724000D02*
X166043429Y-78594857D01*
X166043429Y-78159429D02*
X164519429Y-78159429D01*
X164737143Y-78304572D01*
X164882286Y-78449714D01*
X164954857Y-78594857D01*
X124968000Y-109074857D02*
X125185714Y-109147429D01*
X125548571Y-109147429D01*
X125693714Y-109074857D01*
X125766285Y-109002286D01*
X125838857Y-108857143D01*
X125838857Y-108712000D01*
X125766285Y-108566857D01*
X125693714Y-108494286D01*
X125548571Y-108421714D01*
X125258285Y-108349143D01*
X125113143Y-108276571D01*
X125040571Y-108204000D01*
X124968000Y-108058857D01*
X124968000Y-107913714D01*
X125040571Y-107768571D01*
X125113143Y-107696000D01*
X125258285Y-107623429D01*
X125621143Y-107623429D01*
X125838857Y-107696000D01*
X126346857Y-107623429D02*
X126709714Y-109147429D01*
X127000000Y-108058857D01*
X127290286Y-109147429D01*
X127653143Y-107623429D01*
X128161143Y-107768571D02*
X128233714Y-107696000D01*
X128378857Y-107623429D01*
X128741714Y-107623429D01*
X128886857Y-107696000D01*
X128959428Y-107768571D01*
X129032000Y-107913714D01*
X129032000Y-108058857D01*
X128959428Y-108276571D01*
X128088571Y-109147429D01*
X129032000Y-109147429D01*
X135128000Y-109074857D02*
X135345714Y-109147429D01*
X135708571Y-109147429D01*
X135853714Y-109074857D01*
X135926285Y-109002286D01*
X135998857Y-108857143D01*
X135998857Y-108712000D01*
X135926285Y-108566857D01*
X135853714Y-108494286D01*
X135708571Y-108421714D01*
X135418285Y-108349143D01*
X135273143Y-108276571D01*
X135200571Y-108204000D01*
X135128000Y-108058857D01*
X135128000Y-107913714D01*
X135200571Y-107768571D01*
X135273143Y-107696000D01*
X135418285Y-107623429D01*
X135781143Y-107623429D01*
X135998857Y-107696000D01*
X136506857Y-107623429D02*
X136869714Y-109147429D01*
X137160000Y-108058857D01*
X137450286Y-109147429D01*
X137813143Y-107623429D01*
X138248571Y-107623429D02*
X139192000Y-107623429D01*
X138684000Y-108204000D01*
X138901714Y-108204000D01*
X139046857Y-108276571D01*
X139119428Y-108349143D01*
X139192000Y-108494286D01*
X139192000Y-108857143D01*
X139119428Y-109002286D01*
X139046857Y-109074857D01*
X138901714Y-109147429D01*
X138466286Y-109147429D01*
X138321143Y-109074857D01*
X138248571Y-109002286D01*
X145288000Y-109074857D02*
X145505714Y-109147429D01*
X145868571Y-109147429D01*
X146013714Y-109074857D01*
X146086285Y-109002286D01*
X146158857Y-108857143D01*
X146158857Y-108712000D01*
X146086285Y-108566857D01*
X146013714Y-108494286D01*
X145868571Y-108421714D01*
X145578285Y-108349143D01*
X145433143Y-108276571D01*
X145360571Y-108204000D01*
X145288000Y-108058857D01*
X145288000Y-107913714D01*
X145360571Y-107768571D01*
X145433143Y-107696000D01*
X145578285Y-107623429D01*
X145941143Y-107623429D01*
X146158857Y-107696000D01*
X146666857Y-107623429D02*
X147029714Y-109147429D01*
X147320000Y-108058857D01*
X147610286Y-109147429D01*
X147973143Y-107623429D01*
X149206857Y-108131429D02*
X149206857Y-109147429D01*
X148844000Y-107550857D02*
X148481143Y-108639429D01*
X149424571Y-108639429D01*
X155448000Y-109074857D02*
X155665714Y-109147429D01*
X156028571Y-109147429D01*
X156173714Y-109074857D01*
X156246285Y-109002286D01*
X156318857Y-108857143D01*
X156318857Y-108712000D01*
X156246285Y-108566857D01*
X156173714Y-108494286D01*
X156028571Y-108421714D01*
X155738285Y-108349143D01*
X155593143Y-108276571D01*
X155520571Y-108204000D01*
X155448000Y-108058857D01*
X155448000Y-107913714D01*
X155520571Y-107768571D01*
X155593143Y-107696000D01*
X155738285Y-107623429D01*
X156101143Y-107623429D01*
X156318857Y-107696000D01*
X156826857Y-107623429D02*
X157189714Y-109147429D01*
X157480000Y-108058857D01*
X157770286Y-109147429D01*
X158133143Y-107623429D01*
X159439428Y-107623429D02*
X158713714Y-107623429D01*
X158641143Y-108349143D01*
X158713714Y-108276571D01*
X158858857Y-108204000D01*
X159221714Y-108204000D01*
X159366857Y-108276571D01*
X159439428Y-108349143D01*
X159512000Y-108494286D01*
X159512000Y-108857143D01*
X159439428Y-109002286D01*
X159366857Y-109074857D01*
X159221714Y-109147429D01*
X158858857Y-109147429D01*
X158713714Y-109074857D01*
X158641143Y-109002286D01*
X165608000Y-109074857D02*
X165825714Y-109147429D01*
X166188571Y-109147429D01*
X166333714Y-109074857D01*
X166406285Y-109002286D01*
X166478857Y-108857143D01*
X166478857Y-108712000D01*
X166406285Y-108566857D01*
X166333714Y-108494286D01*
X166188571Y-108421714D01*
X165898285Y-108349143D01*
X165753143Y-108276571D01*
X165680571Y-108204000D01*
X165608000Y-108058857D01*
X165608000Y-107913714D01*
X165680571Y-107768571D01*
X165753143Y-107696000D01*
X165898285Y-107623429D01*
X166261143Y-107623429D01*
X166478857Y-107696000D01*
X166986857Y-107623429D02*
X167349714Y-109147429D01*
X167640000Y-108058857D01*
X167930286Y-109147429D01*
X168293143Y-107623429D01*
X169526857Y-107623429D02*
X169236571Y-107623429D01*
X169091428Y-107696000D01*
X169018857Y-107768571D01*
X168873714Y-107986286D01*
X168801143Y-108276571D01*
X168801143Y-108857143D01*
X168873714Y-109002286D01*
X168946286Y-109074857D01*
X169091428Y-109147429D01*
X169381714Y-109147429D01*
X169526857Y-109074857D01*
X169599428Y-109002286D01*
X169672000Y-108857143D01*
X169672000Y-108494286D01*
X169599428Y-108349143D01*
X169526857Y-108276571D01*
X169381714Y-108204000D01*
X169091428Y-108204000D01*
X168946286Y-108276571D01*
X168873714Y-108349143D01*
X168801143Y-108494286D01*
D15*
X178831857Y-90904190D02*
X178546143Y-90904190D01*
X178689000Y-90904190D02*
X178689000Y-90404190D01*
X178641381Y-90475619D01*
X178593762Y-90523238D01*
X178546143Y-90547048D01*
M02*
