M48
;DRILL file {KiCad (2017-02-05 revision 431abcf)-makepkg} date 12/01/17 10:04:21
;FORMAT={3:3/ absolute / metric / suppress leading zeros}
FMAT,2
METRIC,TZ
T1C0.400
T2C0.889
T3C1.000
T4C1.300
T5C2.800
T6C3.000
%
G90
G05
M71
T1
X123444Y-78740
X123444Y-80010
X123444Y-81280
X123444Y-83312
X123444Y-84582
X123444Y-85852
X123444Y-87122
X123444Y-88392
X124968Y-85344
X124968Y-87122
X124968Y-88392
X126492Y-85344
X128016Y-85344
X129032Y-88392
X129286Y-85598
X129286Y-101854
X130048Y-106426
X130556Y-101854
X131318Y-100838
X131441Y-106426
X132080Y-104140
X132080Y-105156
X132588Y-106426
X133096Y-100838
X133350Y-101854
X133858Y-106426
X137922Y-77216
X137922Y-78740
X137922Y-80010
X139192Y-77216
X139446Y-82804
X139700Y-101854
X140208Y-106172
X140462Y-77216
X140970Y-82804
X140970Y-101854
X141347Y-106172
X141732Y-77216
X142240Y-104140
X142240Y-105156
X142494Y-106172
X142748Y-82804
X143002Y-77216
X143764Y-101854
X143764Y-106426
X144272Y-77216
X144272Y-78486
X144272Y-79756
X144272Y-81026
X144272Y-82296
X145034Y-101854
X145034Y-106426
X149606Y-101854
X150368Y-106172
X150876Y-101854
X151507Y-106172
X152400Y-103886
X152400Y-104902
X152654Y-106172
X153924Y-101854
X154178Y-106426
X155194Y-101854
X155194Y-106426
X160274Y-101854
X160528Y-106172
X161544Y-101854
X161798Y-106172
X162560Y-104140
X162560Y-105410
X163068Y-106426
X163830Y-101854
X164338Y-106426
X165100Y-101854
X170942Y-105156
X170942Y-106172
X172212Y-105156
X172212Y-106172
X173482Y-105156
X173482Y-106172
X179070Y-86360
X180340Y-86360
X180340Y-97536
X181610Y-86360
X181610Y-97536
X182880Y-86360
X182880Y-97536
T2
X180340Y-88138
X180340Y-90678
X180340Y-93218
X180340Y-95758
X182880Y-88138
X182880Y-90678
X182880Y-93218
X182880Y-95758
T3
X122682Y-91186
X122682Y-97028
X127000Y-101116
X127000Y-104116
X132842Y-91186
X132842Y-97028
X137160Y-101116
X137160Y-104116
X143002Y-91186
X143002Y-97028
X147320Y-101116
X147320Y-104116
X153162Y-91186
X153162Y-97028
X154178Y-79756
X154178Y-85598
X157480Y-101116
X157480Y-104116
X159536Y-79756
X162536Y-79756
X163322Y-91186
X163322Y-97028
X167640Y-101116
X167640Y-104116
T4
X126492Y-77550
X126492Y-82550
X127000Y-109220
X127000Y-114220
X131572Y-77550
X131572Y-82550
X132080Y-109220
X132080Y-114220
X137160Y-109220
X137160Y-114220
X142240Y-109220
X142240Y-114220
X147320Y-109220
X147320Y-114220
X152400Y-109220
X152400Y-114220
X157480Y-109220
X157480Y-114220
X162560Y-109220
X162560Y-114220
X167640Y-109220
X167640Y-114220
X172720Y-109220
X172720Y-114220
T5
X135970Y-83260
X140970Y-80160
X140970Y-86360
T6
X119380Y-77470
X119380Y-118110
X180340Y-77470
X180340Y-118110
T0
M30
