G04 #@! TF.FileFunction,Soldermask,Top*
%FSLAX46Y46*%
G04 Gerber Fmt 4.6, Leading zero omitted, Abs format (unit mm)*
G04 Created by KiCad (PCBNEW 4.0.7+dfsg1-1) date Tue Nov 28 10:55:21 2017*
%MOMM*%
%LPD*%
G01*
G04 APERTURE LIST*
%ADD10C,0.300000*%
%ADD11C,3.100000*%
%ADD12R,4.210000X3.730000*%
%ADD13C,6.400000*%
%ADD14R,4.210000X4.210000*%
%ADD15R,2.400000X2.400000*%
%ADD16R,1.924000X1.924000*%
G04 APERTURE END LIST*
D10*
D11*
X137414000Y-120650000D03*
X147320000Y-120650000D03*
D12*
X150114000Y-85714000D03*
X150114000Y-79894000D03*
X127000000Y-97144000D03*
X127000000Y-91324000D03*
X137160000Y-97144000D03*
X137160000Y-91324000D03*
X147320000Y-91324000D03*
X147320000Y-97144000D03*
X157480000Y-91324000D03*
X157480000Y-97144000D03*
D13*
X119380000Y-77470000D03*
X180340000Y-118110000D03*
X119380000Y-118110000D03*
X180340000Y-77470000D03*
D14*
X131572000Y-82550000D03*
X131572000Y-77550000D03*
X162560000Y-114220000D03*
X162560000Y-109220000D03*
X127000000Y-109220000D03*
X127000000Y-114220000D03*
X137160000Y-114220000D03*
X137160000Y-109220000D03*
X147320000Y-109220000D03*
X147320000Y-114220000D03*
X157480000Y-109220000D03*
X157480000Y-114220000D03*
X167640000Y-114220000D03*
X167640000Y-109220000D03*
X152400000Y-114220000D03*
X152400000Y-109220000D03*
X126492000Y-82550000D03*
X126492000Y-77550000D03*
X132080000Y-109220000D03*
X132080000Y-114220000D03*
X142240000Y-114220000D03*
X142240000Y-109220000D03*
X172720000Y-114220000D03*
X172720000Y-109220000D03*
X140970000Y-80160000D03*
X140970000Y-86360000D03*
X135970000Y-83260000D03*
D11*
X127254000Y-120650000D03*
X157480000Y-120650000D03*
X167640000Y-120650000D03*
X176276000Y-100076000D03*
D12*
X167640000Y-97144000D03*
X167640000Y-91324000D03*
D15*
X154178000Y-85598000D03*
X154178000Y-79756000D03*
X153162000Y-91186000D03*
X143002000Y-91186000D03*
X163322000Y-91186000D03*
X132842000Y-91186000D03*
X122682000Y-91186000D03*
X122682000Y-97028000D03*
X132842000Y-97028000D03*
X143002000Y-97028000D03*
X153162000Y-97028000D03*
X163322000Y-97028000D03*
X153138000Y-74930000D03*
X150138000Y-74930000D03*
X127000000Y-104116000D03*
X127000000Y-101116000D03*
X137160000Y-101116000D03*
X137160000Y-104116000D03*
X147320000Y-104116000D03*
X147320000Y-101116000D03*
X157480000Y-101116000D03*
X157480000Y-104116000D03*
X167640000Y-101116000D03*
X167640000Y-104116000D03*
D16*
X180340000Y-88138000D03*
X182880000Y-88138000D03*
X180340000Y-90678000D03*
X182880000Y-90678000D03*
X180340000Y-93218000D03*
X182880000Y-93218000D03*
X180340000Y-95758000D03*
X182880000Y-95758000D03*
M02*
