G04 #@! TF.GenerationSoftware,KiCad,Pcbnew,(2017-02-05 revision 431abcf)-makepkg*
G04 #@! TF.CreationDate,2017-12-06T06:55:42+01:00*
G04 #@! TF.ProjectId,UNIPOWER08A,554E49504F5745523038412E6B696361,REV*
G04 #@! TF.FileFunction,Soldermask,Bot*
G04 #@! TF.FilePolarity,Negative*
%FSLAX46Y46*%
G04 Gerber Fmt 4.6, Leading zero omitted, Abs format (unit mm)*
G04 Created by KiCad (PCBNEW (2017-02-05 revision 431abcf)-makepkg) date 12/06/17 06:55:42*
%MOMM*%
%LPD*%
G01*
G04 APERTURE LIST*
%ADD10C,0.300000*%
%ADD11R,1.450000X1.900000*%
%ADD12C,3.100000*%
%ADD13R,3.730000X4.210000*%
%ADD14C,6.400000*%
%ADD15R,4.210000X4.210000*%
%ADD16R,1.797000X1.289000*%
%ADD17R,1.289000X1.797000*%
%ADD18R,1.700000X1.900000*%
%ADD19R,1.100000X3.400000*%
%ADD20R,2.899360X2.701240*%
%ADD21R,2.400000X2.400000*%
%ADD22R,1.924000X1.924000*%
G04 APERTURE END LIST*
D10*
D11*
X135414000Y-120650000D03*
X139414000Y-120650000D03*
D12*
X137414000Y-120650000D03*
X147320000Y-120650000D03*
D11*
X149320000Y-120650000D03*
X145320000Y-120650000D03*
D13*
X173090000Y-86106000D03*
X167270000Y-86106000D03*
D14*
X119380000Y-77470000D03*
X180340000Y-118110000D03*
X119380000Y-118110000D03*
X180340000Y-77470000D03*
D15*
X131572000Y-82550000D03*
X131572000Y-77550000D03*
X162560000Y-114220000D03*
X162560000Y-109220000D03*
X127000000Y-109220000D03*
X127000000Y-114220000D03*
X137160000Y-114220000D03*
X137160000Y-109220000D03*
X147320000Y-109220000D03*
X147320000Y-114220000D03*
X157480000Y-109220000D03*
X157480000Y-114220000D03*
X167640000Y-114220000D03*
X167640000Y-109220000D03*
X152400000Y-114220000D03*
X152400000Y-109220000D03*
X126492000Y-82550000D03*
X126492000Y-77550000D03*
X132080000Y-109220000D03*
X132080000Y-114220000D03*
X142240000Y-114220000D03*
X142240000Y-109220000D03*
X172720000Y-114220000D03*
X172720000Y-109220000D03*
D16*
X176530000Y-91503500D03*
X176530000Y-93408500D03*
X176530000Y-87947500D03*
X176530000Y-89852500D03*
D17*
X133286500Y-120650000D03*
X131381500Y-120650000D03*
X141287500Y-120650000D03*
X143192500Y-120650000D03*
X153098500Y-120650000D03*
X151193500Y-120650000D03*
D18*
X171624000Y-91948000D03*
D19*
X172974000Y-91948000D03*
D18*
X174324000Y-91948000D03*
D15*
X140970000Y-80160000D03*
X140970000Y-86360000D03*
X135970000Y-83260000D03*
D11*
X125254000Y-120650000D03*
X129254000Y-120650000D03*
D12*
X127254000Y-120650000D03*
D20*
X140091160Y-104140000D03*
X144388840Y-104140000D03*
D12*
X157480000Y-120650000D03*
D11*
X159480000Y-120650000D03*
X155480000Y-120650000D03*
D20*
X154548840Y-104140000D03*
X150251160Y-104140000D03*
D11*
X165640000Y-120650000D03*
X169640000Y-120650000D03*
D12*
X167640000Y-120650000D03*
D20*
X160411160Y-104140000D03*
X164708840Y-104140000D03*
D12*
X176276000Y-100076000D03*
D11*
X178276000Y-100076000D03*
X174276000Y-100076000D03*
D21*
X154178000Y-85598000D03*
X154178000Y-79756000D03*
X153162000Y-91186000D03*
X143002000Y-91186000D03*
X163322000Y-91186000D03*
X132842000Y-91186000D03*
X122682000Y-91186000D03*
X122682000Y-97028000D03*
X132842000Y-97028000D03*
X143002000Y-97028000D03*
X153162000Y-97028000D03*
X163322000Y-97028000D03*
D17*
X161607500Y-120650000D03*
X163512500Y-120650000D03*
X173926500Y-120650000D03*
X172021500Y-120650000D03*
X180911500Y-100076000D03*
X182816500Y-100076000D03*
D21*
X162536000Y-79756000D03*
X159536000Y-79756000D03*
X127000000Y-104116000D03*
X127000000Y-101116000D03*
X137160000Y-101116000D03*
X137160000Y-104116000D03*
X147320000Y-104116000D03*
X147320000Y-101116000D03*
X157480000Y-101116000D03*
X157480000Y-104116000D03*
X167640000Y-101116000D03*
X167640000Y-104116000D03*
D20*
X131434840Y-87630000D03*
X127137160Y-87630000D03*
X123814840Y-104140000D03*
X119517160Y-104140000D03*
X129931160Y-104140000D03*
X134228840Y-104140000D03*
D22*
X180340000Y-88138000D03*
X182880000Y-88138000D03*
X180340000Y-90678000D03*
X182880000Y-90678000D03*
X180340000Y-93218000D03*
X182880000Y-93218000D03*
X180340000Y-95758000D03*
X182880000Y-95758000D03*
M02*
