*
*
G04 PowerPCB (Build Number 500.281.2.20) generated Gerber (RS-274-X) file*
G04 PC Version=2.1*
*
%IN "v4.pcb"*%
*
%MOIN*%
*
%FSLAX35Y35*%
*
*
*
*
G04 PC Standard Apertures*
*
*
G04 Thermal Relief Aperture macro.*
%AMTER*
1,1,$1,0,0*
1,0,$1-$2,0,0*
21,0,$3,$4,0,0,45*
21,0,$3,$4,0,0,135*
%
*
*
G04 Annular Aperture macro.*
%AMANN*
1,1,$1,0,0*
1,0,$2,0,0*
%
*
*
G04 Odd Aperture macro.*
%AMODD*
1,1,$1,0,0*
1,0,$1-0.005,0,0*
%
*
*
G04 PC Custom Aperture Macros*
*
*
*
*
*
*
G04 PC Aperture Table*
*
%ADD011C,0.06*%
%ADD012R,0.07X0.07*%
%ADD025C,0.01*%
%ADD030R,0.049X0.049*%
%ADD031C,0.07*%
%ADD033C,0.24622*%
%ADD040R,0.06X0.06*%
%ADD043R,0.05X0.05*%
%ADD047R,0.065X0.065*%
%ADD048C,0.035*%
*
*
*
*
G04 PC Custom Flashes*
G04 Layer Name v4.pcb - flashes*
%LPD*%
*
*
G04 PC Circuitry*
G04 Layer Name v4.pcb - circuitry*
%LPD*%
*
G54D11*
G01X00127000Y00193000D03*
X00313000D03*
G54D12*
X00225937Y00185000D03*
X00216062Y00160000D03*
X00225937Y00135000D03*
X00130000Y00150000D03*
Y00140000D03*
X00300000Y00150000D03*
X00310000D03*
X00300000Y00140000D03*
X00310000D03*
X00300000Y00130000D03*
X00310000D03*
G54D25*
X00206900Y00136300D02*
Y00127700D01*
X00201800*
Y00136300*
X00206900*
X00182900Y00136800D02*
Y00128200D01*
X00177800*
Y00136800*
X00182900*
X00201800Y00135798D02*
X00206900D01*
X00201800Y00134898D02*
X00206900D01*
X00201800Y00133998D02*
X00206900D01*
X00201800Y00133098D02*
X00206900D01*
X00201800Y00132198D02*
X00206900D01*
X00201800Y00131298D02*
X00206900D01*
X00201800Y00130398D02*
X00206900D01*
X00201800Y00129498D02*
X00206900D01*
X00201800Y00128598D02*
X00206900D01*
X00177800Y00136298D02*
X00182900D01*
X00177800Y00135398D02*
X00182900D01*
X00177800Y00134498D02*
X00182900D01*
X00177800Y00133598D02*
X00182900D01*
X00177800Y00132698D02*
X00182900D01*
X00177800Y00131798D02*
X00182900D01*
X00177800Y00130898D02*
X00182900D01*
X00177800Y00129998D02*
X00182900D01*
X00177800Y00129098D02*
X00182900D01*
G54D30*
X00141200Y00161150D02*
Y00162850D01*
X00148800Y00161150D02*
Y00162850D01*
X00275200Y00165150D02*
Y00166850D01*
X00282800Y00165150D02*
Y00166850D01*
X00249200Y00151150D02*
Y00152850D01*
X00256800Y00151150D02*
Y00152850D01*
X00155800Y00129850D02*
Y00128150D01*
X00148200Y00129850D02*
Y00128150D01*
X00308800Y00161850D02*
Y00160150D01*
X00301200Y00161850D02*
Y00160150D01*
X00157600Y00185700D02*
X00156400D01*
X00157600Y00193300D02*
X00156400D01*
X00175900Y00154800D02*
X00177100D01*
X00175900Y00147200D02*
X00177100D01*
X00132200Y00128400D02*
Y00129600D01*
X00139800Y00128400D02*
Y00129600D01*
X00279200Y00156400D02*
Y00157600D01*
X00286800Y00156400D02*
Y00157600D01*
X00261600Y00127200D02*
X00260400D01*
X00261600Y00134800D02*
X00260400D01*
X00231800Y00173600D02*
Y00172400D01*
X00224200Y00173600D02*
Y00172400D01*
X00203200Y00152400D02*
Y00153600D01*
X00210800Y00152400D02*
Y00153600D01*
X00269400Y00156800D02*
X00270600D01*
X00269400Y00149200D02*
X00270600D01*
X00249200Y00142400D02*
Y00143600D01*
X00256800Y00142400D02*
Y00143600D01*
X00236300Y00147100D02*
Y00145900D01*
X00228700Y00147100D02*
Y00145900D01*
G54D31*
X00216062Y00185000D03*
X00225937Y00160000D03*
X00216062Y00135000D03*
G54D33*
X00300000Y00180000D03*
X00140000D03*
G54D40*
X00141100Y00138250D02*
Y00140750D01*
X00154900Y00138250D02*
Y00140750D01*
X00166750Y00148100D02*
X00164250D01*
X00166750Y00161900D02*
X00164250D01*
X00154900Y00152750D02*
Y00150250D01*
X00141100Y00152750D02*
Y00150250D01*
X00157100Y00172750D02*
Y00175250D01*
X00170900Y00172750D02*
Y00175250D01*
X00284250Y00146800D02*
X00289750D01*
X00284250Y00127200D02*
X00289750D01*
G54D43*
X00188100Y00137300D02*
X00192100D01*
X00188100Y00126700D02*
X00192100D01*
X00188100Y00132000D02*
X00192100D01*
X00164100Y00137800D02*
X00168100D01*
X00164100Y00127200D02*
X00168100D01*
X00164100Y00132500D02*
X00168100D01*
X00165000Y00186000D03*
X00173000D03*
X00169000Y00194000D03*
G54D47*
X00277250Y00175500D02*
X00272750D01*
X00277250Y00188500D02*
X00272750D01*
X00239000Y00129250D02*
Y00133750D01*
X00252000Y00129250D02*
Y00133750D01*
X00270750Y00140500D02*
X00275250D01*
X00270750Y00127500D02*
X00275250D01*
G54D48*
X00181300Y00192000D02*
X00186300D01*
X00181300Y00187000D02*
X00186300D01*
X00181300Y00182000D02*
X00186300D01*
X00181300Y00177000D02*
X00186300D01*
X00181300Y00172000D02*
X00186300D01*
X00181300Y00167000D02*
X00186300D01*
X00181300Y00162000D02*
X00186300D01*
X00202700D02*
X00207700D01*
X00202700Y00167000D02*
X00207700D01*
X00202700Y00172000D02*
X00207700D01*
X00202700Y00177000D02*
X00207700D01*
X00202700Y00182000D02*
X00207700D01*
X00202700Y00187000D02*
X00207700D01*
X00202700Y00192000D02*
X00207700D01*
X00237800D02*
X00242800D01*
X00237800Y00187000D02*
X00242800D01*
X00237800Y00182000D02*
X00242800D01*
X00237800Y00177000D02*
X00242800D01*
X00237800Y00172000D02*
X00242800D01*
X00237800Y00167000D02*
X00242800D01*
X00237800Y00162000D02*
X00242800D01*
X00259200D02*
X00264200D01*
X00259200Y00167000D02*
X00264200D01*
X00259200Y00172000D02*
X00264200D01*
X00259200Y00177000D02*
X00264200D01*
X00259200Y00182000D02*
X00264200D01*
X00259200Y00187000D02*
X00264200D01*
X00259200Y00192000D02*
X00264200D01*
X00000000Y00000000D02*
M02*
