M48
;DRILL file {KiCad 4.0.2-4+6225~38~ubuntu15.10.1-stable} date Út 16. únor 2016, 19:32:21 CET
;FORMAT={-:-/ absolute / metric / decimal}
FMAT,2
METRIC,TZ
T1C0.500
T2C0.889
T3C2.300
T4C2.800
T5C3.000
%
G90
G05
M71
T1
X36.005Y24.511
T2
X1.968Y10.287
X22.352Y23.876
X22.352Y21.336
X22.352Y16.7
X22.352Y14.16
X24.892Y23.876
X24.892Y21.336
X24.892Y16.7
X24.892Y14.16
X27.432Y23.876
X27.432Y21.336
X27.432Y16.7
X27.432Y14.16
X27.432Y9.715
X27.432Y7.175
X27.432Y4.635
X27.432Y2.095
X29.972Y23.876
X29.972Y21.336
X29.972Y16.7
X29.972Y14.16
X29.972Y9.715
X29.972Y7.175
X29.972Y4.635
X29.972Y2.095
X38.354Y35.052
X38.354Y32.512
X38.354Y29.972
T3
X23.622Y37.72
X23.622Y33.02
X23.622Y28.32
T4
X9.351Y10.212
X14.351Y13.312
X14.351Y7.112
T5
X5.08Y35.56
X5.08Y25.4
X5.08Y15.24
X5.08Y5.08
X35.56Y15.24
X35.56Y5.08
T0
M30
