*
*
G04 PowerPCB (Build Number 500.281.2.20) generated Gerber (RS-274-X) file*
G04 PC Version=2.1*
*
%IN "v4.pcb"*%
*
%MOIN*%
*
%FSLAX35Y35*%
*
*
*
*
G04 PC Standard Apertures*
*
*
G04 Thermal Relief Aperture macro.*
%AMTER*
1,1,$1,0,0*
1,0,$1-$2,0,0*
21,0,$3,$4,0,0,45*
21,0,$3,$4,0,0,135*
%
*
*
G04 Annular Aperture macro.*
%AMANN*
1,1,$1,0,0*
1,0,$2,0,0*
%
*
*
G04 Odd Aperture macro.*
%AMODD*
1,1,$1,0,0*
1,0,$1-0.005,0,0*
%
*
*
G04 PC Custom Aperture Macros*
*
*
*
*
*
*
G04 PC Aperture Table*
*
%ADD024C,0.001*%
%ADD025C,0.01*%
%ADD036C,0.008*%
*
*
*
*
G04 PC Custom Flashes*
G04 Layer Name v4.pcb - flashes*
%LPD*%
*
*
G04 PC Circuitry*
G04 Layer Name v4.pcb - circuitry*
%LPD*%
*
G54D24*
G01X00121000Y00121000D02*
X00121002D01*
X00319000D02*
X00319002D01*
X00319000D02*
X00319002D01*
X00319000Y00199000D02*
X00319002D01*
G54D25*
X00121000D02*
Y00121000D01*
X00319000*
Y00199000*
X00121000*
Y00116000D02*
Y00105000D01*
X00319000Y00116000D02*
Y00105000D01*
X00324000Y00121000D02*
X00335000D01*
X00324000Y00199000D02*
X00335000D01*
G54D36*
X00121000Y00110000D02*
X00205363D01*
X00121000D02*
X00131000Y00112500D01*
Y00107500*
X00121000Y00110000*
X00319000D02*
X00234636D01*
X00319000D02*
X00309000Y00107500D01*
Y00112500*
X00319000Y00110000*
X00208363Y00111250D02*
X00208727Y00111500D01*
X00209272Y00112250*
X00209272D02*
Y00107000D01*
X00213272Y00110500D02*
X00213090Y00109750D01*
X00213090D02*
X00212727Y00109250D01*
X00212181Y00109000*
X00212181D02*
X00212000D01*
X00211454Y00109250*
X00211454D02*
X00211090Y00109750D01*
X00211090D02*
X00210909Y00110500D01*
Y00110750*
X00211090Y00111500*
X00211090D02*
X00211454Y00112000D01*
X00211454D02*
X00212000Y00112250D01*
X00212181*
X00212181D02*
X00212727Y00112000D01*
X00213090Y00111500*
X00213090D02*
X00213272Y00110500D01*
X00213272D02*
Y00109250D01*
X00213272D02*
X00213090Y00108000D01*
X00213090D02*
X00212727Y00107250D01*
X00212181Y00107000*
X00212181D02*
X00211818D01*
X00211272Y00107250*
X00211272D02*
X00211090Y00107750D01*
X00215818Y00112250D02*
X00215272Y00112000D01*
X00215272D02*
X00215090Y00111500D01*
X00215090D02*
Y00111000D01*
X00215090D02*
X00215272Y00110500D01*
X00215272D02*
X00215636Y00110250D01*
X00216363Y00110000*
X00216363D02*
X00216909Y00109750D01*
X00217272Y00109250*
X00217272D02*
X00217454Y00108750D01*
X00217454D02*
Y00108000D01*
X00217454D02*
X00217272Y00107500D01*
X00217272D02*
X00217090Y00107250D01*
X00217090D02*
X00216545Y00107000D01*
X00215818*
X00215272Y00107250*
X00215272D02*
X00215090Y00107500D01*
X00215090D02*
X00214909Y00108000D01*
Y00108750*
X00215090Y00109250*
X00215090D02*
X00215454Y00109750D01*
X00215454D02*
X00216000Y00110000D01*
X00216727Y00110250*
X00217090Y00110500*
X00217090D02*
X00217272Y00111000D01*
X00217272D02*
Y00111500D01*
X00217272D02*
X00217090Y00112000D01*
X00217090D02*
X00216545Y00112250D01*
X00215818*
X00220181D02*
X00219636Y00112000D01*
X00219272Y00111250*
X00219272D02*
X00219090Y00110000D01*
X00219090D02*
Y00109250D01*
X00219090D02*
X00219272Y00108000D01*
X00219272D02*
X00219636Y00107250D01*
X00220181Y00107000*
X00220181D02*
X00220545D01*
X00221090Y00107250*
X00221090D02*
X00221454Y00108000D01*
X00221454D02*
X00221636Y00109250D01*
Y00110000*
X00221454Y00111250*
X00221454D02*
X00221090Y00112000D01*
X00221090D02*
X00220545Y00112250D01*
X00220181*
X00223272Y00110500D02*
Y00107000D01*
Y00109500D02*
X00223818Y00110250D01*
X00224181Y00110500*
X00224181D02*
X00224727D01*
X00225090Y00110250*
X00225090D02*
X00225272Y00109500D01*
X00225272D02*
Y00107000D01*
Y00109500D02*
X00225818Y00110250D01*
X00226181Y00110500*
X00226181D02*
X00226727D01*
X00227090Y00110250*
X00227090D02*
X00227272Y00109500D01*
X00227272D02*
Y00107000D01*
X00228909Y00112250D02*
X00229090Y00112000D01*
X00229090D02*
X00229272Y00112250D01*
X00229272D02*
X00229090Y00112500D01*
X00229090D02*
X00228909Y00112250D01*
X00229090Y00110500D02*
Y00107000D01*
X00230909Y00112250D02*
Y00107000D01*
X00330000Y00121000D02*
Y00146545D01*
Y00121000D02*
X00327500Y00131000D01*
X00332500*
X00330000Y00121000*
Y00199000D02*
Y00173454D01*
Y00199000D02*
X00332500Y00189000D01*
X00327500*
X00330000Y00199000*
X00327750Y00152090D02*
X00333000Y00150272D01*
X00327750Y00149545D02*
Y00152090D01*
Y00154636D02*
X00328000Y00154090D01*
X00328000D02*
X00328500Y00153909D01*
X00329000*
X00329500Y00154090*
X00329500D02*
X00329750Y00154454D01*
X00329750D02*
X00330000Y00155181D01*
X00330000D02*
X00330250Y00155727D01*
X00330750Y00156090*
X00330750D02*
X00331250Y00156272D01*
X00331250D02*
X00332000D01*
X00332000D02*
X00332500Y00156090D01*
X00332500D02*
X00332750Y00155909D01*
X00333000Y00155363*
X00333000D02*
Y00154636D01*
X00332750Y00154090*
X00332750D02*
X00332500Y00153909D01*
X00332000Y00153727*
X00331250*
X00330750Y00153909*
X00330250Y00154272*
X00330250D02*
X00330000Y00154818D01*
X00329750Y00155545*
X00329500Y00155909*
X00329000Y00156090*
X00329000D02*
X00328500D01*
X00328500D02*
X00328000Y00155909D01*
X00327750Y00155363*
X00327750D02*
Y00154636D01*
Y00159000D02*
X00328000Y00158454D01*
X00328000D02*
X00328750Y00158090D01*
X00328750D02*
X00330000Y00157909D01*
X00330750*
X00332000Y00158090*
X00332000D02*
X00332750Y00158454D01*
X00332750D02*
X00333000Y00159000D01*
Y00159363*
X00333000D02*
X00332750Y00159909D01*
X00332000Y00160272*
X00332000D02*
X00330750Y00160454D01*
X00330750D02*
X00330000D01*
X00330000D02*
X00328750Y00160272D01*
X00328750D02*
X00328000Y00159909D01*
X00327750Y00159363*
X00327750D02*
Y00159000D01*
X00329500Y00162090D02*
X00333000D01*
X00330500D02*
X00329750Y00162636D01*
X00329500Y00163000*
Y00163545*
X00329750Y00163909*
X00330500Y00164090*
X00330500D02*
X00333000D01*
X00330500D02*
X00329750Y00164636D01*
X00329500Y00165000*
Y00165545*
X00329750Y00165909*
X00330500Y00166090*
X00330500D02*
X00333000D01*
X00327750Y00167727D02*
X00328000Y00167909D01*
X00327750Y00168090*
X00327750D02*
X00327500Y00167909D01*
X00327750Y00167727*
X00329500Y00167909D02*
X00333000D01*
X00327750Y00169727D02*
X00333000D01*
X00124590Y00221562D02*
Y00215000D01*
X00123000Y00221562D02*
X00126181D01*
X00129818D02*
Y00215000D01*
X00128227Y00221562D02*
X00131409D01*
X00133454D02*
Y00215000D01*
X00133454D02*
X00136181D01*
X00142318Y00221562D02*
Y00215000D01*
X00145045*
X00148454Y00221562D02*
X00147999Y00221250D01*
X00147999D02*
X00147545Y00220625D01*
X00147318Y00220000*
X00147090Y00219062*
X00147090D02*
Y00217500D01*
X00147090D02*
X00147318Y00216562D01*
X00147318D02*
X00147545Y00215937D01*
X00147545D02*
X00147999Y00215312D01*
X00147999D02*
X00148454Y00215000D01*
X00148454D02*
X00149363D01*
X00149363D02*
X00149818Y00215312D01*
X00149818D02*
X00150272Y00215937D01*
X00150272D02*
X00150499Y00216562D01*
X00150499D02*
X00150727Y00217500D01*
Y00219062*
X00150727D02*
X00150499Y00220000D01*
X00150499D02*
X00150272Y00220625D01*
X00150272D02*
X00149818Y00221250D01*
X00149363Y00221562*
X00149363D02*
X00148454D01*
X00156181Y00220000D02*
X00155954Y00220625D01*
X00155954D02*
X00155499Y00221250D01*
X00155499D02*
X00155045Y00221562D01*
X00155045D02*
X00154136D01*
X00154136D02*
X00153681Y00221250D01*
X00153681D02*
X00153227Y00220625D01*
X00152999Y00220000*
X00152999D02*
X00152772Y00219062D01*
X00152772D02*
Y00217500D01*
X00152772D02*
X00152999Y00216562D01*
X00152999D02*
X00153227Y00215937D01*
X00153227D02*
X00153681Y00215312D01*
X00153681D02*
X00154136Y00215000D01*
X00155045*
X00155499Y00215312*
X00155499D02*
X00155954Y00215937D01*
X00155954D02*
X00156181Y00216562D01*
X00156181D02*
Y00217500D01*
X00155045D02*
X00156181D01*
X00158227Y00221562D02*
Y00215000D01*
X00163681Y00220000D02*
X00163454Y00220625D01*
X00163454D02*
X00162999Y00221250D01*
X00162999D02*
X00162545Y00221562D01*
X00162545D02*
X00161636D01*
X00161636D02*
X00161181Y00221250D01*
X00161181D02*
X00160727Y00220625D01*
X00160499Y00220000*
X00160499D02*
X00160272Y00219062D01*
X00160272D02*
Y00217500D01*
X00160272D02*
X00160499Y00216562D01*
X00160499D02*
X00160727Y00215937D01*
X00160727D02*
X00161181Y00215312D01*
X00161181D02*
X00161636Y00215000D01*
X00162545*
X00162999Y00215312*
X00162999D02*
X00163454Y00215937D01*
X00163454D02*
X00163681Y00216562D01*
X00169818Y00221562D02*
Y00215000D01*
Y00221562D02*
X00171863D01*
X00171863D02*
X00172545Y00221250D01*
X00172772Y00220937*
X00172772D02*
X00172999Y00220312D01*
X00172999D02*
Y00219375D01*
X00172999D02*
X00172772Y00218750D01*
X00172772D02*
X00172545Y00218437D01*
X00172545D02*
X00171863Y00218125D01*
X00171863D02*
X00169818D01*
X00175045Y00221562D02*
Y00215000D01*
Y00221562D02*
X00177090D01*
X00177090D02*
X00177772Y00221250D01*
X00177772D02*
X00177999Y00220937D01*
X00177999D02*
X00178227Y00220312D01*
X00178227D02*
Y00219687D01*
X00178227D02*
X00177999Y00219062D01*
X00177999D02*
X00177772Y00218750D01*
X00177772D02*
X00177090Y00218437D01*
X00177090D02*
X00175045D01*
X00176636D02*
X00178227Y00215000D01*
X00181636Y00221562D02*
X00181181Y00221250D01*
X00181181D02*
X00180727Y00220625D01*
X00180499Y00220000*
X00180499D02*
X00180272Y00219062D01*
X00180272D02*
Y00217500D01*
X00180272D02*
X00180499Y00216562D01*
X00180499D02*
X00180727Y00215937D01*
X00180727D02*
X00181181Y00215312D01*
X00181181D02*
X00181636Y00215000D01*
X00182545*
X00182999Y00215312*
X00182999D02*
X00183454Y00215937D01*
X00183454D02*
X00183681Y00216562D01*
X00183681D02*
X00183909Y00217500D01*
Y00219062*
X00183909D02*
X00183681Y00220000D01*
X00183681D02*
X00183454Y00220625D01*
X00183454D02*
X00182999Y00221250D01*
X00182999D02*
X00182545Y00221562D01*
X00182545D02*
X00181636D01*
X00185954D02*
Y00215000D01*
Y00221562D02*
X00187999D01*
X00187999D02*
X00188681Y00221250D01*
X00188681D02*
X00188909Y00220937D01*
X00188909D02*
X00189136Y00220312D01*
X00189136D02*
Y00219687D01*
X00189136D02*
X00188909Y00219062D01*
X00188909D02*
X00188681Y00218750D01*
X00188681D02*
X00187999Y00218437D01*
X00185954D02*
X00187999D01*
X00187999D02*
X00188681Y00218125D01*
X00188681D02*
X00188909Y00217812D01*
X00188909D02*
X00189136Y00217187D01*
X00189136D02*
Y00216250D01*
X00188909Y00215625*
X00188681Y00215312*
X00188681D02*
X00187999Y00215000D01*
X00187999D02*
X00185954D01*
X00191181Y00221562D02*
Y00215000D01*
Y00221562D02*
X00194136D01*
X00191181Y00218437D02*
X00192999D01*
X00191181Y00215000D02*
X00194136D01*
X00201863Y00221562D02*
Y00215000D01*
X00200272Y00221562D02*
X00203454D01*
X00207090D02*
Y00215000D01*
X00205499Y00221562D02*
X00208681D01*
X00210727D02*
Y00215000D01*
X00213454*
X00215499Y00221562D02*
Y00215000D01*
Y00221562D02*
X00217545D01*
X00217545D02*
X00218227Y00221250D01*
X00218454Y00220937*
X00218454D02*
X00218681Y00220312D01*
X00218681D02*
Y00219375D01*
X00218681D02*
X00218454Y00218750D01*
X00218454D02*
X00218227Y00218437D01*
X00218227D02*
X00217545Y00218125D01*
X00215499*
X00220727Y00221562D02*
Y00215000D01*
Y00221562D02*
X00222772D01*
X00222772D02*
X00223454Y00221250D01*
X00223454D02*
X00223681Y00220937D01*
X00223681D02*
X00223909Y00220312D01*
X00223909D02*
Y00219687D01*
X00223909D02*
X00223681Y00219062D01*
X00223681D02*
X00223454Y00218750D01*
X00223454D02*
X00222772Y00218437D01*
X00222772D02*
X00220727D01*
X00222318D02*
X00223909Y00215000D01*
X00227318Y00221562D02*
X00226863Y00221250D01*
X00226863D02*
X00226409Y00220625D01*
X00226181Y00220000*
X00226181D02*
X00225954Y00219062D01*
X00225954D02*
Y00217500D01*
X00225954D02*
X00226181Y00216562D01*
X00226181D02*
X00226409Y00215937D01*
X00226409D02*
X00226863Y00215312D01*
X00226863D02*
X00227318Y00215000D01*
X00228227*
X00228681Y00215312*
X00228681D02*
X00229136Y00215937D01*
X00229136D02*
X00229363Y00216562D01*
X00229363D02*
X00229590Y00217500D01*
X00229590D02*
Y00219062D01*
X00229590D02*
X00229363Y00220000D01*
X00229363D02*
X00229136Y00220625D01*
X00228681Y00221250*
X00228681D02*
X00228227Y00221562D01*
X00228227D02*
X00227318D01*
X00231636D02*
Y00215000D01*
Y00221562D02*
X00233681D01*
X00233681D02*
X00234363Y00221250D01*
X00234363D02*
X00234590Y00220937D01*
X00234590D02*
X00234818Y00220312D01*
X00234818D02*
Y00219687D01*
X00234818D02*
X00234590Y00219062D01*
X00234590D02*
X00234363Y00218750D01*
X00234363D02*
X00233681Y00218437D01*
X00231636D02*
X00233681D01*
X00233681D02*
X00234363Y00218125D01*
X00234363D02*
X00234590Y00217812D01*
X00234590D02*
X00234818Y00217187D01*
X00234818D02*
Y00216250D01*
X00234590Y00215625*
X00234590D02*
X00234363Y00215312D01*
X00234363D02*
X00233681Y00215000D01*
X00233681D02*
X00231636D01*
X00236863Y00221562D02*
Y00215000D01*
Y00221562D02*
X00239818D01*
X00236863Y00218437D02*
X00238681D01*
X00236863Y00215000D02*
X00239818D01*
X00243227Y00221562D02*
X00242545Y00221250D01*
X00242090Y00220312*
X00242090D02*
X00241863Y00218750D01*
X00241863D02*
Y00217812D01*
X00241863D02*
X00242090Y00216250D01*
X00242090D02*
X00242545Y00215312D01*
X00242545D02*
X00243227Y00215000D01*
X00243681*
X00243681D02*
X00244363Y00215312D01*
X00244363D02*
X00244818Y00216250D01*
X00245045Y00217812*
X00245045D02*
Y00218750D01*
X00244818Y00220312*
X00244818D02*
X00244363Y00221250D01*
X00244363D02*
X00243681Y00221562D01*
X00243681D02*
X00243227D01*
X00247318Y00220000D02*
Y00220312D01*
X00247318D02*
X00247545Y00220937D01*
X00247545D02*
X00247772Y00221250D01*
X00247772D02*
X00248227Y00221562D01*
X00248227D02*
X00249136D01*
X00249136D02*
X00249590Y00221250D01*
X00249590D02*
X00249818Y00220937D01*
X00249818D02*
X00250045Y00220312D01*
X00250045D02*
Y00219687D01*
X00250045D02*
X00249818Y00219062D01*
X00249818D02*
X00249363Y00218125D01*
X00249363D02*
X00247090Y00215000D01*
X00247090D02*
X00250272D01*
X00254136Y00221562D02*
X00252318Y00215000D01*
X00254136Y00221562D02*
X00255954Y00215000D01*
X00252999Y00217187D02*
X00255272D01*
X00123000Y00211562D02*
Y00205000D01*
Y00211562D02*
X00125045D01*
X00125045D02*
X00125727Y00211250D01*
X00125954Y00210937*
X00125954D02*
X00126181Y00210312D01*
X00126181D02*
Y00209375D01*
X00126181D02*
X00125954Y00208750D01*
X00125954D02*
X00125727Y00208437D01*
X00125727D02*
X00125045Y00208125D01*
X00123000*
X00131636Y00210000D02*
X00131409Y00210625D01*
X00130954Y00211250*
X00130954D02*
X00130499Y00211562D01*
X00130499D02*
X00129590D01*
X00129590D02*
X00129136Y00211250D01*
X00128681Y00210625*
X00128681D02*
X00128454Y00210000D01*
X00128454D02*
X00128227Y00209062D01*
X00128227D02*
Y00207500D01*
X00128454Y00206562*
X00128454D02*
X00128681Y00205937D01*
X00128681D02*
X00129136Y00205312D01*
X00129136D02*
X00129590Y00205000D01*
X00129590D02*
X00130499D01*
X00130499D02*
X00130954Y00205312D01*
X00130954D02*
X00131409Y00205937D01*
X00131409D02*
X00131636Y00206562D01*
X00133681Y00211562D02*
Y00205000D01*
Y00211562D02*
X00135727D01*
X00135727D02*
X00136409Y00211250D01*
X00136636Y00210937*
X00136636D02*
X00136863Y00210312D01*
X00136863D02*
Y00209687D01*
X00136863D02*
X00136636Y00209062D01*
X00136636D02*
X00136409Y00208750D01*
X00135727Y00208437*
X00133681D02*
X00135727D01*
X00135727D02*
X00136409Y00208125D01*
X00136636Y00207812*
X00136636D02*
X00136863Y00207187D01*
X00136863D02*
Y00206250D01*
X00136863D02*
X00136636Y00205625D01*
X00136409Y00205312*
X00136409D02*
X00135727Y00205000D01*
X00133681*
X00142999Y00211562D02*
Y00205000D01*
Y00211562D02*
X00144590D01*
X00144590D02*
X00145272Y00211250D01*
X00145272D02*
X00145727Y00210625D01*
X00145954Y00210000*
X00145954D02*
X00146181Y00209062D01*
X00146181D02*
Y00207500D01*
X00146181D02*
X00145954Y00206562D01*
X00145954D02*
X00145727Y00205937D01*
X00145727D02*
X00145272Y00205312D01*
X00145272D02*
X00144590Y00205000D01*
X00144590D02*
X00142999D01*
X00148227Y00211562D02*
Y00205000D01*
Y00211562D02*
X00151181D01*
X00148227Y00208437D02*
X00150045D01*
X00148227Y00205000D02*
X00151181D01*
X00156409Y00210625D02*
X00155954Y00211250D01*
X00155954D02*
X00155272Y00211562D01*
X00155272D02*
X00154363D01*
X00154363D02*
X00153681Y00211250D01*
X00153681D02*
X00153227Y00210625D01*
Y00210000*
X00153454Y00209375*
X00153454D02*
X00153681Y00209062D01*
X00153681D02*
X00154136Y00208750D01*
X00155499Y00208125*
X00155499D02*
X00155954Y00207812D01*
X00155954D02*
X00156181Y00207500D01*
X00156181D02*
X00156409Y00206875D01*
Y00205937*
X00156409D02*
X00155954Y00205312D01*
X00155954D02*
X00155272Y00205000D01*
X00155272D02*
X00154363D01*
X00154363D02*
X00153681Y00205312D01*
X00153681D02*
X00153227Y00205937D01*
X00158454Y00211562D02*
Y00205000D01*
X00163909Y00210000D02*
X00163681Y00210625D01*
X00163681D02*
X00163227Y00211250D01*
X00162772Y00211562*
X00162772D02*
X00161863D01*
X00161863D02*
X00161409Y00211250D01*
X00160954Y00210625*
X00160954D02*
X00160727Y00210000D01*
X00160499Y00209062*
X00160499D02*
Y00207500D01*
X00160499D02*
X00160727Y00206562D01*
X00160727D02*
X00160954Y00205937D01*
X00160954D02*
X00161409Y00205312D01*
X00161409D02*
X00161863Y00205000D01*
X00161863D02*
X00162772D01*
X00162772D02*
X00163227Y00205312D01*
X00163227D02*
X00163681Y00205937D01*
X00163681D02*
X00163909Y00206562D01*
X00163909D02*
Y00207500D01*
X00162772D02*
X00163909D01*
X00165954Y00211562D02*
Y00205000D01*
Y00211562D02*
X00169136Y00205000D01*
Y00211562D02*
Y00205000D01*
X00175272Y00211562D02*
Y00205000D01*
Y00211562D02*
X00177090Y00205000D01*
X00178909Y00211562D02*
X00177090Y00205000D01*
X00178909Y00211562D02*
Y00205000D01*
X00180954Y00211562D02*
Y00205000D01*
X00182999Y00211562D02*
Y00205000D01*
X00186181Y00211562D02*
Y00205000D01*
X00182999Y00208437D02*
X00186181D01*
X00189590Y00211562D02*
X00189136Y00211250D01*
X00188681Y00210625*
X00188681D02*
X00188454Y00210000D01*
X00188454D02*
X00188227Y00209062D01*
X00188227D02*
Y00207500D01*
X00188454Y00206562*
X00188454D02*
X00188681Y00205937D01*
X00188681D02*
X00189136Y00205312D01*
X00189136D02*
X00189590Y00205000D01*
X00189590D02*
X00190499D01*
X00190499D02*
X00190954Y00205312D01*
X00190954D02*
X00191409Y00205937D01*
X00191409D02*
X00191636Y00206562D01*
X00191636D02*
X00191863Y00207500D01*
X00191863D02*
Y00209062D01*
X00191863D02*
X00191636Y00210000D01*
X00191409Y00210625*
X00190954Y00211250*
X00190954D02*
X00190499Y00211562D01*
X00190499D02*
X00189590D01*
X00198227Y00210000D02*
Y00210312D01*
X00198227D02*
X00198454Y00210937D01*
X00198454D02*
X00198681Y00211250D01*
X00198681D02*
X00199136Y00211562D01*
X00199136D02*
X00200045D01*
X00200045D02*
X00200499Y00211250D01*
X00200499D02*
X00200727Y00210937D01*
X00200727D02*
X00200954Y00210312D01*
X00200954D02*
Y00209687D01*
X00200954D02*
X00200727Y00209062D01*
X00200727D02*
X00200272Y00208125D01*
X00200272D02*
X00197999Y00205000D01*
X00197999D02*
X00201181D01*
X00204590Y00211562D02*
X00203909Y00211250D01*
X00203454Y00210312*
X00203454D02*
X00203227Y00208750D01*
Y00207812*
X00203227D02*
X00203454Y00206250D01*
X00203454D02*
X00203909Y00205312D01*
X00203909D02*
X00204590Y00205000D01*
X00204590D02*
X00205045D01*
X00205727Y00205312*
X00205727D02*
X00206181Y00206250D01*
X00206181D02*
X00206409Y00207812D01*
X00206409D02*
Y00208750D01*
X00206181Y00210312*
X00206181D02*
X00205727Y00211250D01*
X00205045Y00211562*
X00205045D02*
X00204590D01*
X00209818D02*
X00209136Y00211250D01*
X00208681Y00210312*
X00208681D02*
X00208454Y00208750D01*
X00208454D02*
Y00207812D01*
X00208454D02*
X00208681Y00206250D01*
X00208681D02*
X00209136Y00205312D01*
X00209136D02*
X00209818Y00205000D01*
X00210272*
X00210272D02*
X00210954Y00205312D01*
X00210954D02*
X00211409Y00206250D01*
X00211636Y00207812*
X00211636D02*
Y00208750D01*
X00211409Y00210312*
X00211409D02*
X00210954Y00211250D01*
X00210954D02*
X00210272Y00211562D01*
X00210272D02*
X00209818D01*
X00215954D02*
X00213681Y00207187D01*
X00213681D02*
X00217090D01*
X00215954Y00211562D02*
Y00205000D01*
X00000000Y00000000D02*
M02*
