%
T1C.035F197S55
X0165Y02165
X0155Y02165
X0165Y02265
X0155Y02265
X0165Y02365
X0155Y02365
X026714Y021348
X028714Y021348
X027714Y021348
X0314Y02235
X0304Y02235
X0304Y02335
X0314Y02335
X0314Y02435
X0304Y02435
X0304Y02535
X0314Y02535
T2C.037F197S55
X0127Y0126
X0131Y01525
X014Y01625
X01305Y01695
X01285Y01825
X0137Y0187
X0129Y01985
X0138Y02035
X01495Y0208
X01305Y0212
X01415Y0214
X01405Y02285
X01295Y0233
X01405Y02405
X0128Y0246
X0127Y0272
X0158Y02725
X0168Y02715
X0175Y0266
X0168Y026
X01605Y0257
X01695Y02475
X0152Y0245
X0161Y02445
X01755Y02355
X01745Y0217
X01715Y02045
X016Y0204
X01755Y01955
X0176Y01835
X01565Y01685
X0175Y0164
X0164Y016
X01525Y01545
X01665Y01485
X01585Y0139
X0171Y0138
X01755Y0128
X0156Y01275
X0197Y0128
X01875Y0138
X02015Y0139
X019Y01495
X01775Y01495
X0196Y0158
X0184Y01615
X01835Y0191
X0188Y0198
X0198Y01995
X0182Y02055
X0194Y02065
X0186Y0234
X0191Y02465
X02015Y02485
X0179Y0249
X0193Y0255
X0184Y026
X0201Y0263
X01925Y027
X01825Y0273
X0226Y02715
X02075Y027
X0219Y0264
X02095Y0256
X022Y02555
X0219Y02445
X02105Y02435
X0202Y02375
X0219Y0231
X02035Y02055
X0205Y01975
X02215Y01795
X0209Y01585
X02055Y01475
X0225Y0141
X02135Y014
X02145Y01305
X02275Y01295
X0245Y013
X0237Y0138
X0246Y0149
X0238Y01495
X0246Y0157
X0238Y01575
X0246Y01705
X0242Y0188
X0235Y01885
X025Y02015
X0235Y0207
X0243Y02085
X0227Y0211
X0227Y02195
X02365Y023
X0228Y023
X02355Y0243
X02275Y0243
X02505Y0251
X02275Y02525
X024Y02585
X0231Y026
X02475Y02605
X02395Y02715
X02625Y027
X0276Y0268
X0269Y0255
X0259Y0255
X02755Y02435
X0252Y0243
X02665Y02425
X0262Y0233
X0252Y0233
X02615Y02065
X0273Y01905
X0272Y01805
X0258Y01745
X0273Y0173
X02545Y0157
X02695Y0155
X02545Y0149
X0276Y01455
X02655Y014
X02535Y01385
X0264Y01285
X0277Y01285
X0294Y01285
X02845Y01365
X0298Y0146
X0286Y01495
X03015Y016
X02875Y01615
X02875Y0182
X02785Y0183
X0277Y0199
X0297Y021
X02775Y02235
X02945Y02345
X0296Y02525
X0288Y0255
X02795Y0257
X02935Y02615
X02895Y02705
X03035Y02705
X03215Y027
X03115Y0263
X03235Y0251
X03265Y02415
X0325Y02285
X0323Y02165
X03055Y02125
X03155Y0207
X03075Y02035
X0321Y02
X0305Y0195
X0304Y01845
X03235Y0161
X03115Y0156
X03235Y01495
X03135Y0142
X0303Y01355
X0316Y013
X03465Y0161
X0335Y0163
X0349Y01745
X03385Y0184
X03495Y0187
X03495Y0201
X03375Y0203
X0329Y0205
X03445Y0213
X0334Y02165
X03485Y02255
X0338Y02295
X0337Y024
X035Y02415
X0352Y0271
X0353Y01265
T3C.05079F107S55
X01565Y01825
X03235Y01825
T4C.05709F107S55
X01465Y01725
X01665Y01725
X01665Y01925
X01465Y01925
X03135Y01925
X03135Y01725
X03335Y01725
X03335Y01925
T5C.12598F035S794
X014Y014
X014Y026
X034Y026
X034Y014
M30
