*
*
G04 PADS 9.2 Build Number: 414666 generated Gerber (RS-274-X) file*
G04 PC Version=2.1*
*
%IN "GB01A.pcb"*%
*
%MOIN*%
*
%FSLAX35Y35*%
*
*
*
*
G04 PC Standard Apertures*
*
*
G04 Thermal Relief Aperture macro.*
%AMTER*
1,1,$1,0,0*
1,0,$1-$2,0,0*
21,0,$3,$4,0,0,45*
21,0,$3,$4,0,0,135*
%
*
*
G04 Annular Aperture macro.*
%AMANN*
1,1,$1,0,0*
1,0,$2,0,0*
%
*
*
G04 Odd Aperture macro.*
%AMODD*
1,1,$1,0,0*
1,0,$1-0.005,0,0*
%
*
*
G04 PC Custom Aperture Macros*
*
*
*
*
*
*
G04 PC Aperture Table*
*
%ADD011C,0.06*%
%ADD013C,0.23622*%
%ADD022C,0.055*%
%ADD024C,0.001*%
%ADD025C,0.01*%
%ADD055C,0.07874*%
*
*
*
*
G04 PC Circuitry*
G04 Layer Name GB01A.pcb - circuitry*
%LPD*%
*
*
G04 PC Custom Flashes*
G04 Layer Name GB01A.pcb - flashes*
%LPD*%
*
*
G04 PC Circuitry*
G04 Layer Name GB01A.pcb - circuitry*
%LPD*%
*
G54D11*
G01X304000Y253500D03*
X314000D03*
X304000Y243500D03*
X314000D03*
X304000Y233500D03*
X314000D03*
X304000Y223500D03*
X314000D03*
X165000Y216500D03*
X155000D03*
X165000Y226500D03*
X155000D03*
X165000Y236500D03*
X155000D03*
X287144Y213481D03*
X277144D03*
X267144D03*
G54D13*
X140000Y140000D03*
X340000Y260000D03*
Y140000D03*
X140000Y260000D03*
G54D22*
X127000Y126000D03*
X125500Y192000D03*
X126000Y173000D03*
X190500Y198000D03*
X136000Y191500D03*
X135000Y172500D03*
X183000Y188500D03*
X175500Y195500D03*
X176000Y183500D03*
X156500Y168500D03*
X201500Y139000D03*
X197000Y128000D03*
X187500Y138000D03*
X158500Y139000D03*
X171000Y138000D03*
X175500Y128000D03*
X205500Y147000D03*
X184000Y161500D03*
X190000Y149500D03*
X196000Y158000D03*
X177500Y149500D03*
X175000Y164000D03*
X164000Y160000D03*
X166500Y148500D03*
X156000Y127500D03*
X131000Y152500D03*
X152500Y154500D03*
X140000Y162500D03*
X275000Y146500D03*
X275500Y190500D03*
X272000Y196000D03*
X272500Y182000D03*
X237000Y174000D03*
X251000D03*
X216000Y178500D03*
X226500Y155500D03*
X218000Y192000D03*
X210500Y195000D03*
X223500Y178000D03*
X246000Y170500D03*
X258000Y174500D03*
X273000Y173000D03*
X289500Y182000D03*
X277000Y128500D03*
X287500Y161500D03*
X286000Y149500D03*
X284500Y136500D03*
X269500Y155000D03*
X253500Y138500D03*
X264000Y128500D03*
X265500Y140000D03*
X245000Y130000D03*
X237000Y138000D03*
X227500Y129500D03*
X225000Y141000D03*
X214500Y130500D03*
X279000Y157500D03*
X254500Y149000D03*
Y157000D03*
X246000Y149000D03*
Y157000D03*
X238000Y149500D03*
Y157500D03*
X298000Y154500D03*
X299500Y164500D03*
X316000Y130000D03*
X353000Y126500D03*
X322000Y199000D03*
X352000Y154500D03*
X305000Y195000D03*
X304000Y184500D03*
X344500Y193000D03*
X353500Y191500D03*
X346500Y166000D03*
X294000Y128500D03*
X313500Y142000D03*
X303000Y135500D03*
X354000Y173500D03*
X323500Y149500D03*
Y161000D03*
X335000Y163000D03*
X311500Y156000D03*
X127000Y272000D03*
X128000Y246000D03*
X129500Y233000D03*
X127000Y218500D03*
X126000Y205000D03*
X204000Y228000D03*
X209500Y256000D03*
X207500Y270000D03*
X201000Y263000D03*
X201500Y248500D03*
X187000Y257500D03*
X192500Y270000D03*
X182500Y273000D03*
X168000Y271500D03*
X158000Y272500D03*
X175000Y266000D03*
X179000Y249000D03*
X175500Y235500D03*
X159500Y261000D03*
X167500Y250000D03*
X152000Y245000D03*
X194000Y209000D03*
X182000Y205500D03*
X171500Y204500D03*
X174500Y217000D03*
X160000Y204000D03*
X138000Y205000D03*
X149500Y208000D03*
X138500Y216500D03*
X140500Y240500D03*
Y228500D03*
X202000Y237500D03*
X186000Y234000D03*
X191000Y246500D03*
X275500Y243500D03*
X277500Y223500D03*
X262000Y233000D03*
X266500Y242500D03*
X252000Y243000D03*
Y233000D03*
X289500Y270500D03*
X282500Y256000D03*
X276000Y268000D03*
X269000Y255000D03*
X262500Y270000D03*
X259000Y255000D03*
X247500Y260500D03*
X240000Y258500D03*
X239500Y271500D03*
X227500Y252500D03*
X226000Y271500D03*
X220000Y255500D03*
X219000Y264000D03*
X235000Y207000D03*
X250000Y201500D03*
X261500Y206500D03*
X243000Y208500D03*
X227000Y219500D03*
Y211000D03*
X277000Y201000D03*
X219000Y231000D03*
X227500Y243000D03*
X235500D03*
X236500Y230000D03*
X219000Y244500D03*
X228000Y230000D03*
X250500Y251000D03*
X231000Y260000D03*
X328000Y209000D03*
X352000Y271000D03*
X339500Y204000D03*
X317500Y203500D03*
X296000Y252500D03*
X323500Y251000D03*
X311500Y263000D03*
X303500Y270500D03*
X293500Y261500D03*
X321500Y270000D03*
X294500Y234500D03*
X297000Y220000D03*
X305500Y204000D03*
X327000Y220500D03*
X339500Y216000D03*
X338000Y229500D03*
X325000Y228500D03*
X326500Y241500D03*
X337000Y240000D03*
X350000Y241500D03*
X348500Y225500D03*
Y202500D03*
X353500Y213500D03*
X315000Y210500D03*
G54D24*
G54D25*
X329137Y182500D02*
G75*
G03X329137I-5637J0D01*
G01X318700Y233500D02*
G03X318700I-4700J0D01*
G01Y243500D02*
G03X318700I-4700J0D01*
G01X308700Y233500D02*
G03X308700I-4700J0D01*
G01Y243500D02*
G03X308700I-4700J0D01*
G01X291844Y213481D02*
G03X291844I-4700J0D01*
G01X281844D02*
G03X281844I-4700J0D01*
G01X271844D02*
G03X271844I-4700J0D01*
G01X162137Y182500D02*
G03X162137I-5637J0D01*
G01X169700Y226500D02*
G03X169700I-4700J0D01*
G01X159700D02*
G03X159700I-4700J0D01*
G01X357300Y122700D02*
Y277300D01*
X122700*
Y122700*
X357300*
X329137Y182500D02*
G03X329137I-5637J0D01*
G01X318700Y233500D02*
G03X318700I-4700J0D01*
G01Y243500D02*
G03X318700I-4700J0D01*
G01X308700Y233500D02*
G03X308700I-4700J0D01*
G01Y243500D02*
G03X308700I-4700J0D01*
G01X291844Y213481D02*
G03X291844I-4700J0D01*
G01X281844D02*
G03X281844I-4700J0D01*
G01X271844D02*
G03X271844I-4700J0D01*
G01X162137Y182500D02*
G03X162137I-5637J0D01*
G01X169700Y226500D02*
G03X169700I-4700J0D01*
G01X159700D02*
G03X159700I-4700J0D01*
G54D55*
G01X156500Y182500D03*
X146500Y172500D03*
X166500D03*
Y192500D03*
X146500D03*
X323500Y182500D03*
X313500Y172500D03*
X333500D03*
Y192500D03*
X313500D03*
G74*
X0Y0D02*
M02*
