G75*
G70*
%OFA0B0*%
%FSLAX24Y24*%
%IPPOS*%
%LPD*%
%AMOC8*
5,1,8,0,0,1.08239X$1,22.5*
%
%ADD10C,0.0040*%
%ADD11C,0.0039*%
%ADD12C,0.0060*%
%ADD13C,0.0050*%
D10*
X003055Y005380D02*
X003228Y005380D01*
X003142Y005380D02*
X003142Y005900D01*
X003228Y005900D02*
X003055Y005900D01*
X003399Y005900D02*
X003572Y005727D01*
X003746Y005900D01*
X003746Y005380D01*
X003914Y005467D02*
X004001Y005380D01*
X004175Y005380D01*
X004261Y005467D01*
X004261Y005900D01*
X004430Y005814D02*
X004517Y005900D01*
X004690Y005900D01*
X004777Y005814D01*
X004430Y005467D01*
X004517Y005380D01*
X004690Y005380D01*
X004777Y005467D01*
X004777Y005814D01*
X004946Y005727D02*
X005119Y005900D01*
X005119Y005380D01*
X004946Y005380D02*
X005293Y005380D01*
X005461Y005380D02*
X005461Y005727D01*
X005635Y005900D01*
X005808Y005727D01*
X005808Y005380D01*
X005808Y005640D02*
X005461Y005640D01*
X005212Y006255D02*
X004952Y006255D01*
X004952Y006775D01*
X005212Y006775D01*
X005299Y006689D01*
X005299Y006602D01*
X005212Y006515D01*
X004952Y006515D01*
X004783Y006515D02*
X004436Y006515D01*
X004436Y006602D02*
X004610Y006775D01*
X004783Y006602D01*
X004783Y006255D01*
X004436Y006255D02*
X004436Y006602D01*
X004268Y006255D02*
X003921Y006255D01*
X003921Y006775D01*
X003752Y006775D02*
X003752Y006255D01*
X003914Y005900D02*
X003914Y005467D01*
X004430Y005467D02*
X004430Y005814D01*
X005212Y006255D02*
X005299Y006342D01*
X005299Y006428D01*
X005212Y006515D01*
X003752Y006775D02*
X003578Y006602D01*
X003405Y006775D01*
X003405Y006255D01*
X003399Y005900D02*
X003399Y005380D01*
X005455Y003267D02*
X005542Y003180D01*
X005628Y003180D01*
X005715Y003267D01*
X005715Y003700D01*
X005628Y003700D02*
X005802Y003700D01*
X005971Y003527D02*
X006144Y003700D01*
X006318Y003527D01*
X006318Y003180D01*
X006486Y003267D02*
X006573Y003180D01*
X006747Y003180D01*
X006833Y003267D01*
X007002Y003180D02*
X007002Y003700D01*
X006833Y003614D02*
X006747Y003700D01*
X006573Y003700D01*
X006486Y003614D01*
X006486Y003267D01*
X006318Y003440D02*
X005971Y003440D01*
X005971Y003527D02*
X005971Y003180D01*
X005967Y002875D02*
X005880Y002789D01*
X005967Y002875D02*
X006140Y002875D01*
X006227Y002789D01*
X006227Y002702D01*
X005880Y002355D01*
X006227Y002355D01*
X006396Y002442D02*
X006743Y002789D01*
X006743Y002442D01*
X006656Y002355D01*
X006482Y002355D01*
X006396Y002442D01*
X006396Y002789D01*
X006482Y002875D01*
X006656Y002875D01*
X006743Y002789D01*
X006911Y002702D02*
X007085Y002875D01*
X007085Y002355D01*
X007258Y002355D02*
X006911Y002355D01*
X007427Y002442D02*
X007514Y002355D01*
X007687Y002355D01*
X007774Y002442D01*
X007774Y002528D01*
X007687Y002615D01*
X007600Y002615D01*
X007687Y002615D02*
X007774Y002702D01*
X007774Y002789D01*
X007687Y002875D01*
X007514Y002875D01*
X007427Y002789D01*
X007349Y003180D02*
X007349Y003700D01*
X007518Y003614D02*
X007518Y003267D01*
X007604Y003180D01*
X007778Y003180D01*
X007865Y003267D01*
X007865Y003614D01*
X007778Y003700D01*
X007604Y003700D01*
X007518Y003614D01*
X007349Y003440D02*
X007002Y003440D01*
X007955Y006030D02*
X008108Y006030D01*
X008032Y006030D02*
X008032Y006490D01*
X008108Y006490D02*
X007955Y006490D01*
X008262Y006490D02*
X008569Y006030D01*
X008569Y006490D01*
X008722Y006490D02*
X009029Y006490D01*
X008876Y006490D02*
X008876Y006030D01*
X009183Y006030D02*
X009490Y006030D01*
X009336Y006030D02*
X009336Y006490D01*
X009183Y006337D01*
X009183Y007030D02*
X009490Y007337D01*
X009490Y007414D01*
X009413Y007490D01*
X009259Y007490D01*
X009183Y007414D01*
X009029Y007490D02*
X008722Y007490D01*
X008569Y007490D02*
X008569Y007030D01*
X008262Y007490D01*
X008262Y007030D01*
X008108Y007030D02*
X007955Y007030D01*
X008032Y007030D02*
X008032Y007490D01*
X008108Y007490D02*
X007955Y007490D01*
X008032Y008030D02*
X008185Y008030D01*
X008262Y008107D01*
X008415Y008107D02*
X008492Y008030D01*
X008646Y008030D01*
X008722Y008107D01*
X008722Y008183D01*
X008646Y008260D01*
X008492Y008260D01*
X008415Y008337D01*
X008415Y008414D01*
X008492Y008490D01*
X008646Y008490D01*
X008722Y008414D01*
X008262Y008414D02*
X008185Y008490D01*
X008032Y008490D01*
X007955Y008414D01*
X007955Y008107D01*
X008032Y008030D01*
X008032Y009030D02*
X007955Y009107D01*
X008032Y009030D02*
X008185Y009030D01*
X008262Y009107D01*
X008262Y009183D01*
X008185Y009260D01*
X008032Y009260D01*
X007955Y009337D01*
X007955Y009414D01*
X008032Y009490D01*
X008185Y009490D01*
X008262Y009414D01*
X008415Y009490D02*
X008646Y009490D01*
X008722Y009414D01*
X008722Y009107D01*
X008646Y009030D01*
X008415Y009030D01*
X008415Y009490D01*
X008876Y009337D02*
X008876Y009030D01*
X008876Y009260D02*
X009183Y009260D01*
X009183Y009337D02*
X009183Y009030D01*
X009183Y009337D02*
X009029Y009490D01*
X008876Y009337D01*
X008876Y010030D02*
X009183Y010030D01*
X008876Y010030D02*
X008876Y010490D01*
X008722Y010414D02*
X008646Y010490D01*
X008492Y010490D01*
X008415Y010414D01*
X008415Y010107D01*
X008492Y010030D01*
X008646Y010030D01*
X008722Y010107D01*
X008262Y010107D02*
X008185Y010030D01*
X008032Y010030D01*
X007955Y010107D01*
X008032Y010260D02*
X008185Y010260D01*
X008262Y010183D01*
X008262Y010107D01*
X008032Y010260D02*
X007955Y010337D01*
X007955Y010414D01*
X008032Y010490D01*
X008185Y010490D01*
X008262Y010414D01*
X008433Y011441D02*
X008086Y011961D01*
X007917Y011701D02*
X007570Y011701D01*
X007744Y011874D02*
X007744Y011527D01*
X008086Y011441D02*
X008433Y011961D01*
X009350Y011969D02*
X009697Y011969D01*
X009697Y011882D01*
X009350Y011535D01*
X009350Y011449D01*
X009697Y011449D01*
X009865Y011709D02*
X010212Y011709D01*
X009586Y012976D02*
X009586Y013236D01*
X009760Y013410D01*
X009760Y013497D01*
X009586Y013236D02*
X009413Y013410D01*
X009413Y013497D01*
X009244Y013236D02*
X008897Y013236D01*
X009070Y013063D02*
X009070Y013410D01*
X008740Y013658D02*
X008740Y013965D01*
X008740Y013658D02*
X008586Y013505D01*
X008433Y013658D01*
X008433Y013965D01*
X007819Y013889D02*
X007819Y013812D01*
X007742Y013735D01*
X007819Y013658D01*
X007819Y013582D01*
X007742Y013505D01*
X007589Y013505D01*
X007512Y013582D01*
X007359Y013582D02*
X007359Y013505D01*
X007282Y013505D01*
X007282Y013582D01*
X007359Y013582D01*
X007128Y013582D02*
X007052Y013505D01*
X006898Y013505D01*
X006822Y013582D01*
X006975Y013735D02*
X007052Y013735D01*
X007128Y013658D01*
X007128Y013582D01*
X007052Y013735D02*
X007128Y013812D01*
X007128Y013889D01*
X007052Y013965D01*
X006898Y013965D01*
X006822Y013889D01*
X006208Y013965D02*
X005901Y013505D01*
X005747Y013505D02*
X005747Y013812D01*
X005594Y013965D01*
X005440Y013812D01*
X005440Y013505D01*
X005287Y013505D02*
X005287Y013965D01*
X005133Y013812D01*
X004980Y013965D01*
X004980Y013505D01*
X005440Y013735D02*
X005747Y013735D01*
X005901Y013965D02*
X006208Y013505D01*
X005236Y012590D02*
X005236Y012130D01*
X005083Y012130D02*
X005390Y012130D01*
X005083Y012437D02*
X005236Y012590D01*
X004929Y012590D02*
X004622Y012590D01*
X004469Y012590D02*
X004469Y012130D01*
X004162Y012590D01*
X004162Y012130D01*
X004008Y012130D02*
X003855Y012130D01*
X003932Y012130D02*
X003932Y012590D01*
X004008Y012590D02*
X003855Y012590D01*
X003855Y011590D02*
X004008Y011590D01*
X003932Y011590D02*
X003932Y011130D01*
X004008Y011130D02*
X003855Y011130D01*
X004162Y011130D02*
X004162Y011590D01*
X004469Y011130D01*
X004469Y011590D01*
X004622Y011590D02*
X004929Y011590D01*
X004776Y011590D02*
X004776Y011130D01*
X005083Y011130D02*
X005390Y011437D01*
X005390Y011514D01*
X005313Y011590D01*
X005159Y011590D01*
X005083Y011514D01*
X005083Y011130D02*
X005390Y011130D01*
X004929Y010590D02*
X005083Y010437D01*
X005083Y010130D01*
X005083Y010360D02*
X004776Y010360D01*
X004776Y010437D02*
X004776Y010130D01*
X004622Y010207D02*
X004622Y010514D01*
X004546Y010590D01*
X004315Y010590D01*
X004315Y010130D01*
X004546Y010130D01*
X004622Y010207D01*
X004776Y010437D02*
X004929Y010590D01*
X004162Y010514D02*
X004085Y010590D01*
X003932Y010590D01*
X003855Y010514D01*
X003855Y010437D01*
X003932Y010360D01*
X004085Y010360D01*
X004162Y010283D01*
X004162Y010207D01*
X004085Y010130D01*
X003932Y010130D01*
X003855Y010207D01*
X003932Y009590D02*
X003855Y009514D01*
X003855Y009437D01*
X003932Y009360D01*
X004085Y009360D01*
X004162Y009283D01*
X004162Y009207D01*
X004085Y009130D01*
X003932Y009130D01*
X003855Y009207D01*
X003932Y009590D02*
X004085Y009590D01*
X004162Y009514D01*
X004315Y009514D02*
X004315Y009207D01*
X004392Y009130D01*
X004546Y009130D01*
X004622Y009207D01*
X004776Y009130D02*
X005083Y009130D01*
X004776Y009130D02*
X004776Y009590D01*
X004622Y009514D02*
X004546Y009590D01*
X004392Y009590D01*
X004315Y009514D01*
X004776Y012130D02*
X004776Y012590D01*
X007512Y013889D02*
X007589Y013965D01*
X007742Y013965D01*
X007819Y013889D01*
X007742Y013735D02*
X007666Y013735D01*
X007478Y016280D02*
X007325Y016433D01*
X007402Y016433D02*
X007172Y016433D01*
X007172Y016280D02*
X007172Y016740D01*
X007402Y016740D01*
X007478Y016664D01*
X007478Y016510D01*
X007402Y016433D01*
X007018Y016280D02*
X006711Y016280D01*
X006711Y016740D01*
X007018Y016740D01*
X006865Y016510D02*
X006711Y016510D01*
X006558Y016280D02*
X006558Y016740D01*
X006251Y016740D02*
X006251Y016280D01*
X006404Y016433D01*
X006558Y016280D01*
X006097Y016357D02*
X006021Y016280D01*
X005867Y016280D01*
X005790Y016357D01*
X005790Y016664D01*
X005867Y016740D01*
X006021Y016740D01*
X006097Y016664D01*
X006097Y016357D01*
X005637Y016510D02*
X005560Y016433D01*
X005330Y016433D01*
X005330Y016280D02*
X005330Y016740D01*
X005560Y016740D01*
X005637Y016664D01*
X005637Y016510D01*
X001365Y013712D02*
X001212Y013558D01*
X001212Y013635D02*
X001212Y013405D01*
X001365Y013405D02*
X000905Y013405D01*
X000905Y013635D01*
X000981Y013712D01*
X001135Y013712D01*
X001212Y013635D01*
X001365Y013251D02*
X001365Y012944D01*
X000905Y012944D01*
X000905Y013251D01*
X001135Y013098D02*
X001135Y012944D01*
X000905Y012791D02*
X000905Y012484D01*
X000905Y012637D02*
X001365Y012637D01*
X001365Y012330D02*
X001365Y012024D01*
X000905Y012024D01*
X000905Y012330D01*
X001135Y012177D02*
X001135Y012024D01*
X000905Y011870D02*
X001365Y011870D01*
X001365Y011563D02*
X000905Y011563D01*
X001058Y011717D01*
X000905Y011870D01*
X000981Y011410D02*
X000905Y011333D01*
X000905Y011179D01*
X000981Y011103D01*
X001288Y011103D01*
X001365Y011179D01*
X001365Y011333D01*
X001288Y011410D01*
X000981Y011410D01*
X000981Y010949D02*
X001135Y010949D01*
X001212Y010873D01*
X001212Y010642D01*
X001365Y010642D02*
X000905Y010642D01*
X000905Y010873D01*
X000981Y010949D01*
X001212Y010796D02*
X001365Y010949D01*
X001365Y010489D02*
X001365Y010182D01*
X000905Y010182D01*
X000905Y010489D01*
X001135Y010335D02*
X001135Y010182D01*
X001365Y010028D02*
X001365Y009722D01*
X000905Y009722D01*
X000905Y009568D02*
X000905Y009261D01*
X001365Y009261D01*
X001365Y009568D01*
X001135Y009415D02*
X001135Y009261D01*
X001288Y009108D02*
X001365Y009031D01*
X001365Y008878D01*
X001288Y008801D01*
X000981Y008801D01*
X000905Y008878D01*
X000905Y009031D01*
X000981Y009108D01*
X000981Y008647D02*
X000905Y008571D01*
X000905Y008417D01*
X000981Y008340D01*
X001288Y008340D01*
X001365Y008417D01*
X001365Y008571D01*
X001288Y008647D01*
X001365Y008187D02*
X001058Y008187D01*
X000905Y008033D01*
X001058Y007880D01*
X001365Y007880D01*
X001135Y007880D02*
X001135Y008187D01*
X008262Y006490D02*
X008262Y006030D01*
X008876Y007030D02*
X008876Y007490D01*
X009183Y007030D02*
X009490Y007030D01*
X011805Y006926D02*
X011805Y007156D01*
X011881Y007233D01*
X012035Y007233D01*
X012112Y007156D01*
X012112Y006926D01*
X012265Y006926D02*
X011805Y006926D01*
X011805Y006772D02*
X011881Y006772D01*
X012035Y006619D01*
X012265Y006619D01*
X012035Y006619D02*
X011881Y006465D01*
X011805Y006465D01*
X011881Y006312D02*
X011805Y006235D01*
X011805Y006082D01*
X011881Y006005D01*
X012188Y006005D01*
X012265Y006082D01*
X012265Y006235D01*
X012188Y006312D01*
X012035Y006312D01*
X012035Y006158D01*
X012112Y007079D02*
X012265Y007233D01*
X012188Y007386D02*
X012265Y007463D01*
X012265Y007616D01*
X012188Y007693D01*
X011881Y007693D01*
X011805Y007616D01*
X011805Y007463D01*
X011881Y007386D01*
X012188Y007386D01*
X012188Y007847D02*
X012265Y007923D01*
X012265Y008077D01*
X012188Y008153D01*
X012112Y008153D01*
X012035Y008077D01*
X012035Y007923D01*
X011958Y007847D01*
X011881Y007847D01*
X011805Y007923D01*
X011805Y008077D01*
X011881Y008153D01*
X011881Y008307D02*
X011805Y008384D01*
X011805Y008537D01*
X011881Y008614D01*
X011881Y008767D02*
X011805Y008844D01*
X011805Y008998D01*
X011881Y009074D01*
X012188Y009074D01*
X012265Y008998D01*
X012265Y008844D01*
X012188Y008767D01*
X011881Y008767D01*
X012188Y008614D02*
X012265Y008537D01*
X012265Y008384D01*
X012188Y008307D01*
X011881Y008307D01*
X011805Y009228D02*
X011805Y009458D01*
X011881Y009535D01*
X012035Y009535D01*
X012112Y009458D01*
X012112Y009228D01*
X012265Y009228D02*
X011805Y009228D01*
X011805Y009688D02*
X012265Y009688D01*
X012265Y009995D01*
X012035Y009842D02*
X012035Y009688D01*
X011805Y009688D02*
X011805Y009995D01*
D11*
X009586Y012204D02*
X009586Y012795D01*
X009389Y012598D01*
X009586Y012795D02*
X009782Y012598D01*
X009133Y011724D02*
X008542Y011724D01*
X008739Y011527D01*
X008542Y011724D02*
X008739Y011921D01*
D12*
X009860Y010760D02*
X009610Y010510D01*
X009610Y010010D01*
X009860Y009760D01*
X009610Y009510D01*
X009610Y009010D01*
X009860Y008760D01*
X009610Y008510D01*
X009610Y008010D01*
X009860Y007760D01*
X009610Y007510D01*
X009610Y007010D01*
X009860Y006760D01*
X009610Y006510D01*
X009610Y006010D01*
X009860Y005760D01*
X011360Y005760D01*
X011610Y006010D01*
X011610Y006510D01*
X011360Y006760D01*
X011610Y007010D01*
X011610Y007510D01*
X011360Y007760D01*
X011610Y008010D01*
X011610Y008510D01*
X011360Y008760D01*
X011610Y009010D01*
X011610Y009510D01*
X011360Y009760D01*
X011610Y010010D01*
X011610Y010510D01*
X011360Y010760D01*
X009860Y010760D01*
X007860Y014085D02*
X007360Y014085D01*
X007110Y014335D01*
X006860Y014085D01*
X006360Y014085D01*
X006110Y014335D01*
X005860Y014085D01*
X005360Y014085D01*
X005110Y014335D01*
X005110Y015835D01*
X005360Y016085D01*
X005860Y016085D01*
X006110Y015835D01*
X006360Y016085D01*
X006860Y016085D01*
X007110Y015835D01*
X007360Y016085D01*
X007860Y016085D01*
X008110Y015835D01*
X008110Y014335D01*
X007860Y014085D01*
X003610Y012635D02*
X003610Y012135D01*
X003360Y011885D01*
X003610Y011635D01*
X003610Y011135D01*
X003360Y010885D01*
X003610Y010635D01*
X003610Y010135D01*
X003360Y009885D01*
X003610Y009635D01*
X003610Y009135D01*
X003360Y008885D01*
X001860Y008885D01*
X001610Y009135D01*
X001610Y009635D01*
X001860Y009885D01*
X001610Y010135D01*
X001610Y010635D01*
X001860Y010885D01*
X001610Y011135D01*
X001610Y011635D01*
X001860Y011885D01*
X001610Y012135D01*
X001610Y012635D01*
X001860Y012885D01*
X003360Y012885D01*
X003610Y012635D01*
D13*
X003560Y008885D02*
X003562Y008898D01*
X003567Y008911D01*
X003576Y008922D01*
X003587Y008929D01*
X003600Y008934D01*
X003613Y008935D01*
X003627Y008932D01*
X003639Y008926D01*
X003649Y008917D01*
X003656Y008905D01*
X003660Y008892D01*
X003660Y008878D01*
X003656Y008865D01*
X003649Y008853D01*
X003639Y008844D01*
X003627Y008838D01*
X003613Y008835D01*
X003600Y008836D01*
X003587Y008841D01*
X003576Y008848D01*
X003567Y008859D01*
X003562Y008872D01*
X003560Y008885D01*
X009560Y010760D02*
X009562Y010773D01*
X009567Y010786D01*
X009576Y010797D01*
X009587Y010804D01*
X009600Y010809D01*
X009613Y010810D01*
X009627Y010807D01*
X009639Y010801D01*
X009649Y010792D01*
X009656Y010780D01*
X009660Y010767D01*
X009660Y010753D01*
X009656Y010740D01*
X009649Y010728D01*
X009639Y010719D01*
X009627Y010713D01*
X009613Y010710D01*
X009600Y010711D01*
X009587Y010716D01*
X009576Y010723D01*
X009567Y010734D01*
X009562Y010747D01*
X009560Y010760D01*
M02*
