<?xml version="1.0" standalone="no"?>
 <!DOCTYPE svg PUBLIC "-//W3C//DTD SVG 1.1//EN" 
 "http://www.w3.org/Graphics/SVG/1.1/DTD/svg11.dtd"> 
<svg xmlns="http://www.w3.org/2000/svg" version="1.1" 
    width="5.87756cm" height="4.39928cm" viewBox="0 0 23140 17320 ">
<title>SVG Picture created as I2CIO01A-B_SilkS.svg date 2014/12/17 11:08:45 </title>
  <desc>Picture generated by PCBNEW </desc>
<g style="fill:#000000; fill-opacity:1;stroke:#000000; stroke-opacity:1;
stroke-linecap:round; stroke-linejoin:round; "
 transform="translate(0 0) scale(1 1)">
</g>
<g style="fill:#C2C200; fill-opacity:0.0; 
stroke:#C2C200; stroke-width:39.3701; stroke-opacity:1; 
stroke-linecap:round; stroke-linejoin:round;">
<path d="M4398 16699
L4398 900
" />
<path d="M4398 900
L20196 900
" />
<path d="M20196 16699
L20196 900
" />
<path d="M4398 16699
L20196 16699
" />
</g>
<g style="fill:#840084; fill-opacity:0.0; 
stroke:#840084; stroke-width:43; stroke-opacity:1; 
stroke-linecap:round; stroke-linejoin:round;">
<path d="M7761 11217
L7667 11151
" />
<path d="M7761 11104
L7564 11104
L7564 11179
L7573 11198
L7583 11207
L7601 11217
L7630 11217
L7648 11207
L7658 11198
L7667 11179
L7667 11104
" />
<path d="M7761 11404
L7761 11292
" />
<path d="M7761 11348
L7564 11348
L7592 11329
L7611 11310
L7620 11292
" />
<path d="M8036 11132
L8036 11020
" />
<path d="M8036 11076
L7839 11076
L7867 11057
L7886 11038
L7895 11020
" />
<path d="M7839 11254
L7839 11273
L7848 11292
L7858 11301
L7876 11310
L7914 11320
L7961 11320
L7998 11310
L8017 11301
L8027 11292
L8036 11273
L8036 11254
L8027 11235
L8017 11226
L7998 11217
L7961 11207
L7914 11207
L7876 11217
L7858 11226
L7848 11235
L7839 11254
" />
<path d="M8036 11404
L7839 11404
" />
<path d="M7961 11423
L8036 11479
" />
<path d="M7905 11479
L7980 11404
" />
<path d="M8961 7517
L8867 7451
" />
<path d="M8961 7404
L8764 7404
L8764 7479
L8773 7498
L8783 7507
L8801 7517
L8830 7517
L8848 7507
L8858 7498
L8867 7479
L8867 7404
" />
<path d="M8783 7592
L8773 7601
L8764 7620
L8764 7667
L8773 7686
L8783 7695
L8801 7704
L8820 7704
L8848 7695
L8961 7582
L8961 7704
" />
<path d="M8686 7432
L8686 7320
" />
<path d="M8686 7376
L8489 7376
L8517 7357
L8536 7338
L8545 7320
" />
<path d="M8489 7554
L8489 7573
L8498 7592
L8508 7601
L8526 7610
L8564 7620
L8611 7620
L8648 7610
L8667 7601
L8677 7592
L8686 7573
L8686 7554
L8677 7535
L8667 7526
L8648 7517
L8611 7507
L8564 7507
L8526 7517
L8508 7526
L8498 7535
L8489 7554
" />
<path d="M8686 7704
L8489 7704
" />
<path d="M8611 7723
L8686 7779
" />
<path d="M8555 7779
L8630 7704
" />
<path d="M8011 9767
L7917 9701
" />
<path d="M8011 9654
L7814 9654
L7814 9729
L7823 9748
L7833 9757
L7851 9767
L7880 9767
L7898 9757
L7908 9748
L7917 9729
L7917 9654
" />
<path d="M7814 9832
L7814 9954
L7889 9889
L7889 9917
L7898 9936
L7908 9945
L7927 9954
L7973 9954
L7992 9945
L8002 9936
L8011 9917
L8011 9860
L8002 9842
L7992 9832
" />
<path d="M7736 9682
L7736 9570
" />
<path d="M7736 9626
L7539 9626
L7567 9607
L7586 9588
L7595 9570
" />
<path d="M7539 9804
L7539 9823
L7548 9842
L7558 9851
L7576 9860
L7614 9870
L7661 9870
L7698 9860
L7717 9851
L7727 9842
L7736 9823
L7736 9804
L7727 9785
L7717 9776
L7698 9767
L7661 9757
L7614 9757
L7576 9767
L7558 9776
L7548 9785
L7539 9804
" />
<path d="M7736 9954
L7539 9954
" />
<path d="M7661 9973
L7736 10029
" />
<path d="M7605 10029
L7680 9954
" />
<path d="M9911 7517
L9817 7451
" />
<path d="M9911 7404
L9714 7404
L9714 7479
L9723 7498
L9733 7507
L9751 7517
L9780 7517
L9798 7507
L9808 7498
L9817 7479
L9817 7404
" />
<path d="M9780 7686
L9911 7686
" />
<path d="M9705 7639
L9845 7592
L9845 7714
" />
<path d="M9636 7432
L9636 7320
" />
<path d="M9636 7376
L9439 7376
L9467 7357
L9486 7338
L9495 7320
" />
<path d="M9439 7554
L9439 7573
L9448 7592
L9458 7601
L9476 7610
L9514 7620
L9561 7620
L9598 7610
L9617 7601
L9627 7592
L9636 7573
L9636 7554
L9627 7535
L9617 7526
L9598 7517
L9561 7507
L9514 7507
L9476 7517
L9458 7526
L9448 7535
L9439 7554
" />
<path d="M9636 7704
L9439 7704
" />
<path d="M9561 7723
L9636 7779
" />
<path d="M9505 7779
L9580 7704
" />
<path d="M15761 2267
L15667 2201
" />
<path d="M15761 2154
L15564 2154
L15564 2229
L15573 2248
L15583 2257
L15601 2267
L15630 2267
L15648 2257
L15658 2248
L15667 2229
L15667 2154
" />
<path d="M15564 2445
L15564 2351
L15658 2342
L15648 2351
L15639 2370
L15639 2417
L15648 2436
L15658 2445
L15677 2454
L15723 2454
L15742 2445
L15752 2436
L15761 2417
L15761 2370
L15752 2351
L15742 2342
" />
<path d="M16036 2182
L16036 2070
" />
<path d="M16036 2126
L15839 2126
L15867 2107
L15886 2088
L15895 2070
" />
<path d="M15839 2304
L15839 2323
L15848 2342
L15858 2351
L15876 2360
L15914 2370
L15961 2370
L15998 2360
L16017 2351
L16027 2342
L16036 2323
L16036 2304
L16027 2285
L16017 2276
L15998 2267
L15961 2257
L15914 2257
L15876 2267
L15858 2276
L15848 2285
L15839 2304
" />
<path d="M16036 2454
L15839 2454
" />
<path d="M15961 2473
L16036 2529
" />
<path d="M15905 2529
L15980 2454
" />
<path d="M9011 15317
L8917 15251
" />
<path d="M9011 15204
L8814 15204
L8814 15279
L8823 15298
L8833 15307
L8851 15317
L8880 15317
L8898 15307
L8908 15298
L8917 15279
L8917 15204
" />
<path d="M8814 15486
L8814 15448
L8823 15429
L8833 15420
L8861 15401
L8898 15392
L8973 15392
L8992 15401
L9002 15410
L9011 15429
L9011 15467
L9002 15486
L8992 15495
L8973 15504
L8927 15504
L8908 15495
L8898 15486
L8889 15467
L8889 15429
L8898 15410
L8908 15401
L8927 15392
" />
<path d="M8736 15232
L8736 15120
" />
<path d="M8736 15176
L8539 15176
L8567 15157
L8586 15138
L8595 15120
" />
<path d="M8539 15354
L8539 15373
L8548 15392
L8558 15401
L8576 15410
L8614 15420
L8661 15420
L8698 15410
L8717 15401
L8727 15392
L8736 15373
L8736 15354
L8727 15335
L8717 15326
L8698 15317
L8661 15307
L8614 15307
L8576 15317
L8558 15326
L8548 15335
L8539 15354
" />
<path d="M8736 15504
L8539 15504
" />
<path d="M8661 15523
L8736 15579
" />
<path d="M8605 15579
L8680 15504
" />
<path d="M14761 2267
L14667 2201
" />
<path d="M14761 2154
L14564 2154
L14564 2229
L14573 2248
L14583 2257
L14601 2267
L14630 2267
L14648 2257
L14658 2248
L14667 2229
L14667 2154
" />
<path d="M14564 2332
L14564 2464
L14761 2379
" />
<path d="M15036 2182
L15036 2070
" />
<path d="M15036 2126
L14839 2126
L14867 2107
L14886 2088
L14895 2070
" />
<path d="M14839 2304
L14839 2323
L14848 2342
L14858 2351
L14876 2360
L14914 2370
L14961 2370
L14998 2360
L15017 2351
L15027 2342
L15036 2323
L15036 2304
L15027 2285
L15017 2276
L14998 2267
L14961 2257
L14914 2257
L14876 2267
L14858 2276
L14848 2285
L14839 2304
" />
<path d="M15036 2454
L14839 2454
" />
<path d="M14961 2473
L15036 2529
" />
<path d="M14905 2529
L14980 2454
" />
<path d="M13011 15317
L12917 15251
" />
<path d="M13011 15204
L12814 15204
L12814 15279
L12823 15298
L12833 15307
L12851 15317
L12880 15317
L12898 15307
L12908 15298
L12917 15279
L12917 15204
" />
<path d="M12898 15429
L12889 15410
L12880 15401
L12861 15392
L12851 15392
L12833 15401
L12823 15410
L12814 15429
L12814 15467
L12823 15486
L12833 15495
L12851 15504
L12861 15504
L12880 15495
L12889 15486
L12898 15467
L12898 15429
L12908 15410
L12917 15401
L12936 15392
L12973 15392
L12992 15401
L13002 15410
L13011 15429
L13011 15467
L13002 15486
L12992 15495
L12973 15504
L12936 15504
L12917 15495
L12908 15486
L12898 15467
" />
<path d="M12736 15232
L12736 15120
" />
<path d="M12736 15176
L12539 15176
L12567 15157
L12586 15138
L12595 15120
" />
<path d="M12539 15354
L12539 15373
L12548 15392
L12558 15401
L12576 15410
L12614 15420
L12661 15420
L12698 15410
L12717 15401
L12727 15392
L12736 15373
L12736 15354
L12727 15335
L12717 15326
L12698 15317
L12661 15307
L12614 15307
L12576 15317
L12558 15326
L12548 15335
L12539 15354
" />
<path d="M12736 15504
L12539 15504
" />
<path d="M12661 15523
L12736 15579
" />
<path d="M12605 15579
L12680 15504
" />
<path d="M13761 2267
L13667 2201
" />
<path d="M13761 2154
L13564 2154
L13564 2229
L13573 2248
L13583 2257
L13601 2267
L13630 2267
L13648 2257
L13658 2248
L13667 2229
L13667 2154
" />
<path d="M13761 2360
L13761 2398
L13752 2417
L13742 2426
L13714 2445
L13677 2454
L13601 2454
L13583 2445
L13573 2436
L13564 2417
L13564 2379
L13573 2360
L13583 2351
L13601 2342
L13648 2342
L13667 2351
L13677 2360
L13686 2379
L13686 2417
L13677 2436
L13667 2445
L13648 2454
" />
<path d="M14036 2182
L14036 2070
" />
<path d="M14036 2126
L13839 2126
L13867 2107
L13886 2088
L13895 2070
" />
<path d="M13839 2304
L13839 2323
L13848 2342
L13858 2351
L13876 2360
L13914 2370
L13961 2370
L13998 2360
L14017 2351
L14027 2342
L14036 2323
L14036 2304
L14027 2285
L14017 2276
L13998 2267
L13961 2257
L13914 2257
L13876 2267
L13858 2276
L13848 2285
L13839 2304
" />
<path d="M14036 2454
L13839 2454
" />
<path d="M13961 2473
L14036 2529
" />
<path d="M13905 2529
L13980 2454
" />
<path d="M11011 15223
L10917 15157
" />
<path d="M11011 15110
L10814 15110
L10814 15185
L10823 15204
L10833 15213
L10851 15223
L10880 15223
L10898 15213
L10908 15204
L10917 15185
L10917 15110
" />
<path d="M11011 15410
L11011 15298
" />
<path d="M11011 15354
L10814 15354
L10842 15335
L10861 15317
L10870 15298
" />
<path d="M10814 15532
L10814 15551
L10823 15570
L10833 15579
L10851 15589
L10889 15598
L10936 15598
L10973 15589
L10992 15579
L11002 15570
L11011 15551
L11011 15532
L11002 15514
L10992 15504
L10973 15495
L10936 15486
L10889 15486
L10851 15495
L10833 15504
L10823 15514
L10814 15532
" />
<path d="M10736 15232
L10736 15120
" />
<path d="M10736 15176
L10539 15176
L10567 15157
L10586 15138
L10595 15120
" />
<path d="M10539 15354
L10539 15373
L10548 15392
L10558 15401
L10576 15410
L10614 15420
L10661 15420
L10698 15410
L10717 15401
L10727 15392
L10736 15373
L10736 15354
L10727 15335
L10717 15326
L10698 15317
L10661 15307
L10614 15307
L10576 15317
L10558 15326
L10548 15335
L10539 15354
" />
<path d="M10736 15504
L10539 15504
" />
<path d="M10661 15523
L10736 15579
" />
<path d="M10605 15579
L10680 15504
" />
<path d="M12761 2173
L12667 2107
" />
<path d="M12761 2060
L12564 2060
L12564 2135
L12573 2154
L12583 2163
L12601 2173
L12630 2173
L12648 2163
L12658 2154
L12667 2135
L12667 2060
" />
<path d="M12761 2360
L12761 2248
" />
<path d="M12761 2304
L12564 2304
L12592 2285
L12611 2267
L12620 2248
" />
<path d="M12761 2548
L12761 2436
" />
<path d="M12761 2492
L12564 2492
L12592 2473
L12611 2454
L12620 2436
" />
<path d="M13036 2182
L13036 2070
" />
<path d="M13036 2126
L12839 2126
L12867 2107
L12886 2088
L12895 2070
" />
<path d="M12839 2304
L12839 2323
L12848 2342
L12858 2351
L12876 2360
L12914 2370
L12961 2370
L12998 2360
L13017 2351
L13027 2342
L13036 2323
L13036 2304
L13027 2285
L13017 2276
L12998 2267
L12961 2257
L12914 2257
L12876 2267
L12858 2276
L12848 2285
L12839 2304
" />
<path d="M13036 2454
L12839 2454
" />
<path d="M12961 2473
L13036 2529
" />
<path d="M12905 2529
L12980 2454
" />
<path d="M12011 15223
L11917 15157
" />
<path d="M12011 15110
L11814 15110
L11814 15185
L11823 15204
L11833 15213
L11851 15223
L11880 15223
L11898 15213
L11908 15204
L11917 15185
L11917 15110
" />
<path d="M12011 15410
L12011 15298
" />
<path d="M12011 15354
L11814 15354
L11842 15335
L11861 15317
L11870 15298
" />
<path d="M11833 15486
L11823 15495
L11814 15514
L11814 15561
L11823 15579
L11833 15589
L11851 15598
L11870 15598
L11898 15589
L12011 15476
L12011 15598
" />
<path d="M11736 15232
L11736 15120
" />
<path d="M11736 15176
L11539 15176
L11567 15157
L11586 15138
L11595 15120
" />
<path d="M11539 15354
L11539 15373
L11548 15392
L11558 15401
L11576 15410
L11614 15420
L11661 15420
L11698 15410
L11717 15401
L11727 15392
L11736 15373
L11736 15354
L11727 15335
L11717 15326
L11698 15317
L11661 15307
L11614 15307
L11576 15317
L11558 15326
L11548 15335
L11539 15354
" />
<path d="M11736 15504
L11539 15504
" />
<path d="M11661 15523
L11736 15579
" />
<path d="M11605 15579
L11680 15504
" />
<path d="M11761 2173
L11667 2107
" />
<path d="M11761 2060
L11564 2060
L11564 2135
L11573 2154
L11583 2163
L11601 2173
L11630 2173
L11648 2163
L11658 2154
L11667 2135
L11667 2060
" />
<path d="M11761 2360
L11761 2248
" />
<path d="M11761 2304
L11564 2304
L11592 2285
L11611 2267
L11620 2248
" />
<path d="M11564 2426
L11564 2548
L11639 2482
L11639 2511
L11648 2529
L11658 2539
L11677 2548
L11723 2548
L11742 2539
L11752 2529
L11761 2511
L11761 2454
L11752 2436
L11742 2426
" />
<path d="M12036 2182
L12036 2070
" />
<path d="M12036 2126
L11839 2126
L11867 2107
L11886 2088
L11895 2070
" />
<path d="M11839 2304
L11839 2323
L11848 2342
L11858 2351
L11876 2360
L11914 2370
L11961 2370
L11998 2360
L12017 2351
L12027 2342
L12036 2323
L12036 2304
L12027 2285
L12017 2276
L11998 2267
L11961 2257
L11914 2257
L11876 2267
L11858 2276
L11848 2285
L11839 2304
" />
<path d="M12036 2454
L11839 2454
" />
<path d="M11961 2473
L12036 2529
" />
<path d="M11905 2529
L11980 2454
" />
<path d="M10011 15223
L9917 15157
" />
<path d="M10011 15110
L9814 15110
L9814 15185
L9823 15204
L9833 15213
L9851 15223
L9880 15223
L9898 15213
L9908 15204
L9917 15185
L9917 15110
" />
<path d="M10011 15410
L10011 15298
" />
<path d="M10011 15354
L9814 15354
L9842 15335
L9861 15317
L9870 15298
" />
<path d="M9880 15579
L10011 15579
" />
<path d="M9805 15532
L9945 15486
L9945 15607
" />
<path d="M9736 15232
L9736 15120
" />
<path d="M9736 15176
L9539 15176
L9567 15157
L9586 15138
L9595 15120
" />
<path d="M9539 15354
L9539 15373
L9548 15392
L9558 15401
L9576 15410
L9614 15420
L9661 15420
L9698 15410
L9717 15401
L9727 15392
L9736 15373
L9736 15354
L9727 15335
L9717 15326
L9698 15317
L9661 15307
L9614 15307
L9576 15317
L9558 15326
L9548 15335
L9539 15354
" />
<path d="M9736 15504
L9539 15504
" />
<path d="M9661 15523
L9736 15579
" />
<path d="M9605 15579
L9680 15504
" />
<path d="M9761 2173
L9667 2107
" />
<path d="M9761 2060
L9564 2060
L9564 2135
L9573 2154
L9583 2163
L9601 2173
L9630 2173
L9648 2163
L9658 2154
L9667 2135
L9667 2060
" />
<path d="M9761 2360
L9761 2248
" />
<path d="M9761 2304
L9564 2304
L9592 2285
L9611 2267
L9620 2248
" />
<path d="M9564 2539
L9564 2445
L9658 2436
L9648 2445
L9639 2464
L9639 2511
L9648 2529
L9658 2539
L9677 2548
L9723 2548
L9742 2539
L9752 2529
L9761 2511
L9761 2464
L9752 2445
L9742 2436
" />
<path d="M10036 2182
L10036 2070
" />
<path d="M10036 2126
L9839 2126
L9867 2107
L9886 2088
L9895 2070
" />
<path d="M9839 2304
L9839 2323
L9848 2342
L9858 2351
L9876 2360
L9914 2370
L9961 2370
L9998 2360
L10017 2351
L10027 2342
L10036 2323
L10036 2304
L10027 2285
L10017 2276
L9998 2267
L9961 2257
L9914 2257
L9876 2267
L9858 2276
L9848 2285
L9839 2304
" />
<path d="M10036 2454
L9839 2454
" />
<path d="M9961 2473
L10036 2529
" />
<path d="M9905 2529
L9980 2454
" />
<path d="M10761 2173
L10667 2107
" />
<path d="M10761 2060
L10564 2060
L10564 2135
L10573 2154
L10583 2163
L10601 2173
L10630 2173
L10648 2163
L10658 2154
L10667 2135
L10667 2060
" />
<path d="M10761 2360
L10761 2248
" />
<path d="M10761 2304
L10564 2304
L10592 2285
L10611 2267
L10620 2248
" />
<path d="M10564 2529
L10564 2492
L10573 2473
L10583 2464
L10611 2445
L10648 2436
L10723 2436
L10742 2445
L10752 2454
L10761 2473
L10761 2511
L10752 2529
L10742 2539
L10723 2548
L10677 2548
L10658 2539
L10648 2529
L10639 2511
L10639 2473
L10648 2454
L10658 2445
L10677 2436
" />
<path d="M11036 2182
L11036 2070
" />
<path d="M11036 2126
L10839 2126
L10867 2107
L10886 2088
L10895 2070
" />
<path d="M10839 2304
L10839 2323
L10848 2342
L10858 2351
L10876 2360
L10914 2370
L10961 2370
L10998 2360
L11017 2351
L11027 2342
L11036 2323
L11036 2304
L11027 2285
L11017 2276
L10998 2267
L10961 2257
L10914 2257
L10876 2267
L10858 2276
L10848 2285
L10839 2304
" />
<path d="M11036 2454
L10839 2454
" />
<path d="M10961 2473
L11036 2529
" />
<path d="M10905 2529
L10980 2454
" />
<path d="M14011 15223
L13917 15157
" />
<path d="M14011 15110
L13814 15110
L13814 15185
L13823 15204
L13833 15213
L13851 15223
L13880 15223
L13898 15213
L13908 15204
L13917 15185
L13917 15110
" />
<path d="M14011 15410
L14011 15298
" />
<path d="M14011 15354
L13814 15354
L13842 15335
L13861 15317
L13870 15298
" />
<path d="M13814 15476
L13814 15607
L14011 15523
" />
<path d="M13736 15232
L13736 15120
" />
<path d="M13736 15176
L13539 15176
L13567 15157
L13586 15138
L13595 15120
" />
<path d="M13539 15354
L13539 15373
L13548 15392
L13558 15401
L13576 15410
L13614 15420
L13661 15420
L13698 15410
L13717 15401
L13727 15392
L13736 15373
L13736 15354
L13727 15335
L13717 15326
L13698 15317
L13661 15307
L13614 15307
L13576 15317
L13558 15326
L13548 15335
L13539 15354
" />
<path d="M13736 15504
L13539 15504
" />
<path d="M13661 15523
L13736 15579
" />
<path d="M13605 15579
L13680 15504
" />
<path d="M8761 2173
L8667 2107
" />
<path d="M8761 2060
L8564 2060
L8564 2135
L8573 2154
L8583 2163
L8601 2173
L8630 2173
L8648 2163
L8658 2154
L8667 2135
L8667 2060
" />
<path d="M8761 2360
L8761 2248
" />
<path d="M8761 2304
L8564 2304
L8592 2285
L8611 2267
L8620 2248
" />
<path d="M8648 2473
L8639 2454
L8630 2445
L8611 2436
L8601 2436
L8583 2445
L8573 2454
L8564 2473
L8564 2511
L8573 2529
L8583 2539
L8601 2548
L8611 2548
L8630 2539
L8639 2529
L8648 2511
L8648 2473
L8658 2454
L8667 2445
L8686 2436
L8723 2436
L8742 2445
L8752 2454
L8761 2473
L8761 2511
L8752 2529
L8742 2539
L8723 2548
L8686 2548
L8667 2539
L8658 2529
L8648 2511
" />
<path d="M9036 2182
L9036 2070
" />
<path d="M9036 2126
L8839 2126
L8867 2107
L8886 2088
L8895 2070
" />
<path d="M8839 2304
L8839 2323
L8848 2342
L8858 2351
L8876 2360
L8914 2370
L8961 2370
L8998 2360
L9017 2351
L9027 2342
L9036 2323
L9036 2304
L9027 2285
L9017 2276
L8998 2267
L8961 2257
L8914 2257
L8876 2267
L8858 2276
L8848 2285
L8839 2304
" />
<path d="M9036 2454
L8839 2454
" />
<path d="M8961 2473
L9036 2529
" />
<path d="M8905 2529
L8980 2454
" />
<path d="M15011 15223
L14917 15157
" />
<path d="M15011 15110
L14814 15110
L14814 15185
L14823 15204
L14833 15213
L14851 15223
L14880 15223
L14898 15213
L14908 15204
L14917 15185
L14917 15110
" />
<path d="M15011 15410
L15011 15298
" />
<path d="M15011 15354
L14814 15354
L14842 15335
L14861 15317
L14870 15298
" />
<path d="M15011 15504
L15011 15542
L15002 15561
L14992 15570
L14964 15589
L14927 15598
L14851 15598
L14833 15589
L14823 15579
L14814 15561
L14814 15523
L14823 15504
L14833 15495
L14851 15486
L14898 15486
L14917 15495
L14927 15504
L14936 15523
L14936 15561
L14927 15579
L14917 15589
L14898 15598
" />
<path d="M14736 15232
L14736 15120
" />
<path d="M14736 15176
L14539 15176
L14567 15157
L14586 15138
L14595 15120
" />
<path d="M14539 15354
L14539 15373
L14548 15392
L14558 15401
L14576 15410
L14614 15420
L14661 15420
L14698 15410
L14717 15401
L14727 15392
L14736 15373
L14736 15354
L14727 15335
L14717 15326
L14698 15317
L14661 15307
L14614 15307
L14576 15317
L14558 15326
L14548 15335
L14539 15354
" />
<path d="M14736 15504
L14539 15504
" />
<path d="M14661 15523
L14736 15579
" />
<path d="M14605 15579
L14680 15504
" />
<path d="M16011 15223
L15917 15157
" />
<path d="M16011 15110
L15814 15110
L15814 15185
L15823 15204
L15833 15213
L15851 15223
L15880 15223
L15898 15213
L15908 15204
L15917 15185
L15917 15110
" />
<path d="M15833 15298
L15823 15307
L15814 15326
L15814 15373
L15823 15392
L15833 15401
L15851 15410
L15870 15410
L15898 15401
L16011 15289
L16011 15410
" />
<path d="M15814 15532
L15814 15551
L15823 15570
L15833 15579
L15851 15589
L15889 15598
L15936 15598
L15973 15589
L15992 15579
L16002 15570
L16011 15551
L16011 15532
L16002 15514
L15992 15504
L15973 15495
L15936 15486
L15889 15486
L15851 15495
L15833 15504
L15823 15514
L15814 15532
" />
<path d="M15736 15232
L15736 15120
" />
<path d="M15736 15176
L15539 15176
L15567 15157
L15586 15138
L15595 15120
" />
<path d="M15539 15354
L15539 15373
L15548 15392
L15558 15401
L15576 15410
L15614 15420
L15661 15420
L15698 15410
L15717 15401
L15727 15392
L15736 15373
L15736 15354
L15727 15335
L15717 15326
L15698 15317
L15661 15307
L15614 15307
L15576 15317
L15558 15326
L15548 15335
L15539 15354
" />
<path d="M15736 15504
L15539 15504
" />
<path d="M15661 15523
L15736 15579
" />
<path d="M15605 15579
L15680 15504
" />
</g>
<g style="fill:#840084; fill-opacity:0.0; 
stroke:#840084; stroke-width:39; stroke-opacity:1; 
stroke-linecap:round; stroke-linejoin:round;">
<path d="M12747 8792
L12747 8951
L12738 8970
L12728 8979
L12709 8989
L12672 8989
L12653 8979
L12644 8970
L12634 8951
L12634 8792
" />
<path d="M12437 8989
L12550 8989
" />
<path d="M12494 8989
L12494 8792
L12512 8820
L12531 8839
L12550 8848
" />
<path d="M13296 9442
L13183 9442
" />
<path d="M13239 9639
L13239 9442
" />
<path d="M13005 9620
L13014 9629
L13042 9639
L13061 9639
L13089 9629
L13108 9610
L13117 9592
L13127 9554
L13127 9526
L13117 9489
L13108 9470
L13089 9451
L13061 9442
L13042 9442
L13014 9451
L13005 9460
" />
<path d="M12930 9582
L12836 9582
" />
<path d="M12949 9639
L12883 9442
L12817 9639
" />
<path d="M12667 9442
L12705 9442
L12723 9451
L12733 9460
L12752 9489
L12761 9526
L12761 9601
L12752 9620
L12742 9629
L12723 9639
L12686 9639
L12667 9629
L12658 9620
L12648 9601
L12648 9554
L12658 9535
L12667 9526
L12686 9517
L12723 9517
L12742 9526
L12752 9535
L12761 9554
" />
<path d="M12480 9507
L12480 9639
" />
<path d="M12526 9432
L12573 9573
L12451 9573
" />
<path d="M12273 9639
L12386 9639
" />
<path d="M12329 9639
L12329 9442
L12348 9470
L12367 9489
L12386 9498
" />
<path d="M12104 9442
L12142 9442
L12161 9451
L12170 9460
L12189 9489
L12198 9526
L12198 9601
L12189 9620
L12179 9629
L12161 9639
L12123 9639
L12104 9629
L12095 9620
L12086 9601
L12086 9554
L12095 9535
L12104 9526
L12123 9517
L12161 9517
L12179 9526
L12189 9535
L12198 9554
" />
<path d="M12011 9582
L11917 9582
" />
<path d="M12029 9639
L11964 9442
L11898 9639
" />
</g>
<g style="fill:#840084; fill-opacity:0.0; 
stroke:#840084; stroke-width:43; stroke-opacity:1; 
stroke-linecap:round; stroke-linejoin:round;">
<path d="M16511 8723
L16417 8657
" />
<path d="M16511 8610
L16314 8610
L16314 8685
L16323 8704
L16333 8713
L16351 8723
L16380 8723
L16398 8713
L16408 8704
L16417 8685
L16417 8610
" />
<path d="M16333 8798
L16323 8807
L16314 8826
L16314 8873
L16323 8892
L16333 8901
L16351 8910
L16370 8910
L16398 8901
L16511 8789
L16511 8910
" />
<path d="M16511 9098
L16511 8986
" />
<path d="M16511 9042
L16314 9042
L16342 9023
L16361 9004
L16370 8986
" />
<path d="M16786 8620
L16786 8507
" />
<path d="M16786 8563
L16589 8563
L16617 8545
L16636 8526
L16645 8507
" />
<path d="M16589 8742
L16589 8760
L16598 8779
L16608 8789
L16626 8798
L16664 8807
L16711 8807
L16748 8798
L16767 8789
L16777 8779
L16786 8760
L16786 8742
L16777 8723
L16767 8713
L16748 8704
L16711 8695
L16664 8695
L16626 8704
L16608 8713
L16598 8723
L16589 8742
" />
<path d="M16589 8929
L16589 8948
L16598 8967
L16608 8976
L16626 8986
L16664 8995
L16711 8995
L16748 8986
L16767 8976
L16777 8967
L16786 8948
L16786 8929
L16777 8910
L16767 8901
L16748 8892
L16711 8882
L16664 8882
L16626 8892
L16608 8901
L16598 8910
L16589 8929
" />
<path d="M16786 9192
L16692 9126
" />
<path d="M16786 9079
L16589 9079
L16589 9154
L16598 9173
L16608 9183
L16626 9192
L16655 9192
L16673 9183
L16683 9173
L16692 9154
L16692 9079
" />
<path d="M9011 11123
L8917 11057
" />
<path d="M9011 11010
L8814 11010
L8814 11085
L8823 11104
L8833 11113
L8851 11123
L8880 11123
L8898 11113
L8908 11104
L8917 11085
L8917 11010
" />
<path d="M8833 11198
L8823 11207
L8814 11226
L8814 11273
L8823 11292
L8833 11301
L8851 11310
L8870 11310
L8898 11301
L9011 11189
L9011 11310
" />
<path d="M8833 11386
L8823 11395
L8814 11414
L8814 11461
L8823 11479
L8833 11489
L8851 11498
L8870 11498
L8898 11489
L9011 11376
L9011 11498
" />
<path d="M8539 11142
L8539 11160
L8548 11179
L8558 11189
L8576 11198
L8614 11207
L8661 11207
L8698 11198
L8717 11189
L8727 11179
L8736 11160
L8736 11142
L8727 11123
L8717 11113
L8698 11104
L8661 11095
L8614 11095
L8576 11104
L8558 11113
L8548 11123
L8539 11142
" />
<path d="M8736 11404
L8642 11339
" />
<path d="M8736 11292
L8539 11292
L8539 11367
L8548 11386
L8558 11395
L8576 11404
L8605 11404
L8623 11395
L8633 11386
L8642 11367
L8642 11292
" />
<path d="M15611 9773
L15517 9707
" />
<path d="M15611 9660
L15414 9660
L15414 9735
L15423 9754
L15433 9763
L15451 9773
L15480 9773
L15498 9763
L15508 9754
L15517 9735
L15517 9660
" />
<path d="M15433 9848
L15423 9857
L15414 9876
L15414 9923
L15423 9942
L15433 9951
L15451 9960
L15470 9960
L15498 9951
L15611 9839
L15611 9960
" />
<path d="M15414 10026
L15414 10148
L15489 10082
L15489 10111
L15498 10129
L15508 10139
L15527 10148
L15573 10148
L15592 10139
L15602 10129
L15611 10111
L15611 10054
L15602 10036
L15592 10026
" />
<path d="M15886 9782
L15886 9670
" />
<path d="M15886 9726
L15689 9726
L15717 9707
L15736 9688
L15745 9670
" />
<path d="M15689 9904
L15689 9923
L15698 9942
L15708 9951
L15726 9960
L15764 9970
L15811 9970
L15848 9960
L15867 9951
L15877 9942
L15886 9923
L15886 9904
L15877 9885
L15867 9876
L15848 9867
L15811 9857
L15764 9857
L15726 9867
L15708 9876
L15698 9885
L15689 9904
" />
<path d="M15886 10054
L15689 10054
" />
<path d="M15811 10073
L15886 10129
" />
<path d="M15755 10129
L15830 10054
" />
<path d="M14711 9773
L14617 9707
" />
<path d="M14711 9660
L14514 9660
L14514 9735
L14523 9754
L14533 9763
L14551 9773
L14580 9773
L14598 9763
L14608 9754
L14617 9735
L14617 9660
" />
<path d="M14533 9848
L14523 9857
L14514 9876
L14514 9923
L14523 9942
L14533 9951
L14551 9960
L14570 9960
L14598 9951
L14711 9839
L14711 9960
" />
<path d="M14580 10129
L14711 10129
" />
<path d="M14505 10082
L14645 10036
L14645 10157
" />
<path d="M14986 9782
L14986 9670
" />
<path d="M14986 9726
L14789 9726
L14817 9707
L14836 9688
L14845 9670
" />
<path d="M14789 9904
L14789 9923
L14798 9942
L14808 9951
L14826 9960
L14864 9970
L14911 9970
L14948 9960
L14967 9951
L14977 9942
L14986 9923
L14986 9904
L14977 9885
L14967 9876
L14948 9867
L14911 9857
L14864 9857
L14826 9867
L14808 9876
L14798 9885
L14789 9904
" />
<path d="M14986 10054
L14789 10054
" />
<path d="M14911 10073
L14986 10129
" />
<path d="M14855 10129
L14930 10054
" />
<path d="M14942 8417
L14952 8407
L14961 8379
L14961 8360
L14952 8332
L14933 8313
L14914 8304
L14877 8295
L14848 8295
L14811 8304
L14792 8313
L14773 8332
L14764 8360
L14764 8379
L14773 8407
L14783 8417
" />
<path d="M14961 8604
L14961 8492
" />
<path d="M14961 8548
L14764 8548
L14792 8529
L14811 8510
L14820 8492
" />
<path d="M14686 8238
L14686 8126
" />
<path d="M14686 8182
L14489 8182
L14517 8163
L14536 8145
L14545 8126
" />
<path d="M14489 8360
L14489 8379
L14498 8398
L14508 8407
L14526 8417
L14564 8426
L14611 8426
L14648 8417
L14667 8407
L14677 8398
L14686 8379
L14686 8360
L14677 8342
L14667 8332
L14648 8323
L14611 8313
L14564 8313
L14526 8323
L14508 8332
L14498 8342
L14489 8360
" />
<path d="M14555 8595
L14686 8595
" />
<path d="M14555 8510
L14658 8510
L14677 8520
L14686 8539
L14686 8567
L14677 8586
L14667 8595
" />
<path d="M14583 8754
L14583 8689
" />
<path d="M14686 8689
L14489 8689
L14489 8783
" />
<path d="M15842 8417
L15852 8407
L15861 8379
L15861 8360
L15852 8332
L15833 8313
L15814 8304
L15777 8295
L15748 8295
L15711 8304
L15692 8313
L15673 8332
L15664 8360
L15664 8379
L15673 8407
L15683 8417
" />
<path d="M15683 8492
L15673 8501
L15664 8520
L15664 8567
L15673 8586
L15683 8595
L15701 8604
L15720 8604
L15748 8595
L15861 8482
L15861 8604
" />
<path d="M15586 8145
L15586 8032
" />
<path d="M15586 8088
L15389 8088
L15417 8070
L15436 8051
L15445 8032
" />
<path d="M15389 8267
L15389 8285
L15398 8304
L15408 8313
L15426 8323
L15464 8332
L15511 8332
L15548 8323
L15567 8313
L15577 8304
L15586 8285
L15586 8267
L15577 8248
L15567 8238
L15548 8229
L15511 8220
L15464 8220
L15426 8229
L15408 8238
L15398 8248
L15389 8267
" />
<path d="M15389 8454
L15389 8473
L15398 8492
L15408 8501
L15426 8510
L15464 8520
L15511 8520
L15548 8510
L15567 8501
L15577 8492
L15586 8473
L15586 8454
L15577 8435
L15567 8426
L15548 8417
L15511 8407
L15464 8407
L15426 8417
L15408 8426
L15398 8435
L15389 8454
" />
<path d="M15455 8604
L15586 8604
" />
<path d="M15473 8604
L15464 8614
L15455 8632
L15455 8661
L15464 8679
L15483 8689
L15586 8689
" />
<path d="M15483 8848
L15483 8783
" />
<path d="M15586 8783
L15389 8783
L15389 8876
" />
</g>
<g style="fill:#840084; fill-opacity:0.0; 
stroke:#840084; stroke-width:120; stroke-opacity:1; 
stroke-linecap:round; stroke-linejoin:round;">
<path d="M16540 7771
L16540 7171
L16397 7171
L16311 7200
L16254 7257
L16225 7314
L16197 7428
L16197 7514
L16225 7628
L16254 7685
L16311 7742
L16397 7771
L16540 7771
" />
<path d="M15625 7771
L15968 7771
" />
<path d="M15797 7771
L15797 7171
L15854 7257
L15911 7314
L15968 7342
" />
</g>
<g style="fill:#840084; fill-opacity:0.0; 
stroke:#840084; stroke-width:39; stroke-opacity:1; 
stroke-linecap:round; stroke-linejoin:round;">
<path d="M15435 5922
L15341 5922
" />
<path d="M15453 5979
L15388 5782
L15322 5979
" />
<path d="M16857 5979
L16857 5782
" />
<path d="M16745 5979
L16829 5866
" />
<path d="M16745 5782
L16857 5894
" />
<circle cx="8097.31" cy="10600" r="50" /> 
<path d="M8097 11050
L8097 10650
" />
<path d="M8097 10650
L7497 10650
" />
<path d="M7497 10650
L7497 11050
" />
<path d="M7497 11450
L7497 11850
" />
<path d="M7497 11850
L8097 11850
" />
<path d="M8097 11850
L8097 11450
" />
<circle cx="8447.31" cy="8200" r="50" /> 
<path d="M8447 7750
L8447 8150
" />
<path d="M8447 8150
L9047 8150
" />
<path d="M9047 8150
L9047 7750
" />
<path d="M9047 7350
L9047 6950
" />
<path d="M9047 6950
L8447 6950
" />
<path d="M8447 6950
L8447 7350
" />
<circle cx="7497.31" cy="10450" r="50" /> 
<path d="M7497 10000
L7497 10400
" />
<path d="M7497 10400
L8097 10400
" />
<path d="M8097 10400
L8097 10000
" />
<path d="M8097 9600
L8097 9200
" />
<path d="M8097 9200
L7497 9200
" />
<path d="M7497 9200
L7497 9600
" />
<circle cx="9397.31" cy="8200" r="50" /> 
<path d="M9397 7750
L9397 8150
" />
<path d="M9397 8150
L9997 8150
" />
<path d="M9997 8150
L9997 7750
" />
<path d="M9997 7350
L9997 6950
" />
<path d="M9997 6950
L9397 6950
" />
<path d="M9397 6950
L9397 7350
" />
<circle cx="16097.3" cy="1650" r="50" /> 
<path d="M16097 2100
L16097 1700
" />
<path d="M16097 1700
L15497 1700
" />
<path d="M15497 1700
L15497 2100
" />
<path d="M15497 2500
L15497 2900
" />
<path d="M15497 2900
L16097 2900
" />
<path d="M16097 2900
L16097 2500
" />
<circle cx="8497.31" cy="16000" r="50" /> 
<path d="M8497 15550
L8497 15950
" />
<path d="M8497 15950
L9097 15950
" />
<path d="M9097 15950
L9097 15550
" />
<path d="M9097 15150
L9097 14750
" />
<path d="M9097 14750
L8497 14750
" />
<path d="M8497 14750
L8497 15150
" />
<circle cx="15097.3" cy="1650" r="50" /> 
<path d="M15097 2100
L15097 1700
" />
<path d="M15097 1700
L14497 1700
" />
<path d="M14497 1700
L14497 2100
" />
<path d="M14497 2500
L14497 2900
" />
<path d="M14497 2900
L15097 2900
" />
<path d="M15097 2900
L15097 2500
" />
<circle cx="12497.3" cy="16000" r="50" /> 
<path d="M12497 15550
L12497 15950
" />
<path d="M12497 15950
L13097 15950
" />
<path d="M13097 15950
L13097 15550
" />
<path d="M13097 15150
L13097 14750
" />
<path d="M13097 14750
L12497 14750
" />
<path d="M12497 14750
L12497 15150
" />
<circle cx="14097.3" cy="1650" r="50" /> 
<path d="M14097 2100
L14097 1700
" />
<path d="M14097 1700
L13497 1700
" />
<path d="M13497 1700
L13497 2100
" />
<path d="M13497 2500
L13497 2900
" />
<path d="M13497 2900
L14097 2900
" />
<path d="M14097 2900
L14097 2500
" />
<circle cx="10497.3" cy="16000" r="50" /> 
<path d="M10497 15550
L10497 15950
" />
<path d="M10497 15950
L11097 15950
" />
<path d="M11097 15950
L11097 15550
" />
<path d="M11097 15150
L11097 14750
" />
<path d="M11097 14750
L10497 14750
" />
<path d="M10497 14750
L10497 15150
" />
<circle cx="13097.3" cy="1650" r="50" /> 
<path d="M13097 2100
L13097 1700
" />
<path d="M13097 1700
L12497 1700
" />
<path d="M12497 1700
L12497 2100
" />
<path d="M12497 2500
L12497 2900
" />
<path d="M12497 2900
L13097 2900
" />
<path d="M13097 2900
L13097 2500
" />
<circle cx="11497.3" cy="16000" r="50" /> 
<path d="M11497 15550
L11497 15950
" />
<path d="M11497 15950
L12097 15950
" />
<path d="M12097 15950
L12097 15550
" />
<path d="M12097 15150
L12097 14750
" />
<path d="M12097 14750
L11497 14750
" />
<path d="M11497 14750
L11497 15150
" />
<circle cx="12097.3" cy="1650" r="50" /> 
<path d="M12097 2100
L12097 1700
" />
<path d="M12097 1700
L11497 1700
" />
<path d="M11497 1700
L11497 2100
" />
<path d="M11497 2500
L11497 2900
" />
<path d="M11497 2900
L12097 2900
" />
<path d="M12097 2900
L12097 2500
" />
<circle cx="9497.31" cy="16000" r="50" /> 
<path d="M9497 15550
L9497 15950
" />
<path d="M9497 15950
L10097 15950
" />
<path d="M10097 15950
L10097 15550
" />
<path d="M10097 15150
L10097 14750
" />
<path d="M10097 14750
L9497 14750
" />
<path d="M9497 14750
L9497 15150
" />
<circle cx="10097.3" cy="1650" r="50" /> 
<path d="M10097 2100
L10097 1700
" />
<path d="M10097 1700
L9497 1700
" />
<path d="M9497 1700
L9497 2100
" />
<path d="M9497 2500
L9497 2900
" />
<path d="M9497 2900
L10097 2900
" />
<path d="M10097 2900
L10097 2500
" />
<circle cx="11097.3" cy="1650" r="50" /> 
<path d="M11097 2100
L11097 1700
" />
<path d="M11097 1700
L10497 1700
" />
<path d="M10497 1700
L10497 2100
" />
<path d="M10497 2500
L10497 2900
" />
<path d="M10497 2900
L11097 2900
" />
<path d="M11097 2900
L11097 2500
" />
<circle cx="13497.3" cy="16000" r="50" /> 
<path d="M13497 15550
L13497 15950
" />
<path d="M13497 15950
L14097 15950
" />
<path d="M14097 15950
L14097 15550
" />
<path d="M14097 15150
L14097 14750
" />
<path d="M14097 14750
L13497 14750
" />
<path d="M13497 14750
L13497 15150
" />
<circle cx="9097.31" cy="1650" r="50" /> 
<path d="M9097 2100
L9097 1700
" />
<path d="M9097 1700
L8497 1700
" />
<path d="M8497 1700
L8497 2100
" />
<path d="M8497 2500
L8497 2900
" />
<path d="M8497 2900
L9097 2900
" />
<path d="M9097 2900
L9097 2500
" />
<circle cx="14497.3" cy="16000" r="50" /> 
<path d="M14497 15550
L14497 15950
" />
<path d="M14497 15950
L15097 15950
" />
<path d="M15097 15950
L15097 15550
" />
<path d="M15097 15150
L15097 14750
" />
<path d="M15097 14750
L14497 14750
" />
<path d="M14497 14750
L14497 15150
" />
<circle cx="15497.3" cy="16000" r="50" /> 
<path d="M15497 15550
L15497 15950
" />
<path d="M15497 15950
L16097 15950
" />
<path d="M16097 15950
L16097 15550
" />
<path d="M16097 15150
L16097 14750
" />
<path d="M16097 14750
L15497 14750
" />
<path d="M15497 14750
L15497 15150
" />
</g>
<g style="fill:#840084; fill-opacity:0.0; 
stroke:#840084; stroke-width:59.0551; stroke-opacity:1; 
stroke-linecap:round; stroke-linejoin:round;">
<path d="M10647 9800
L14097 9800
" />
<path d="M10647 8400
L14097 8400
" />
</g>
<g style="fill:#840084; fill-opacity:0.0; 
stroke:#840084; stroke-width:50; stroke-opacity:1; 
stroke-linecap:round; stroke-linejoin:round;">
<path d="M10647 9800
L10647 8400
" />
<path d="M14097 9800
L14097 8400
" />
<circle cx="10947.3" cy="8700" r="111.804" /> 
</g>
<g style="fill:#840084; fill-opacity:0.0; 
stroke:#840084; stroke-width:59.0551; stroke-opacity:1; 
stroke-linecap:round; stroke-linejoin:round;">
<circle cx="16847.3" cy="8200" r="50" /> 
<path d="M16847 8650
L16847 8250
" />
<path d="M16847 8250
L16247 8250
" />
<path d="M16247 8250
L16247 8650
" />
<path d="M16247 9050
L16247 9450
" />
<path d="M16247 9450
L16847 9450
" />
<path d="M16847 9450
L16847 9050
" />
<circle cx="8497.31" cy="11900" r="50" /> 
<path d="M8497 11450
L8497 11850
" />
<path d="M8497 11850
L9097 11850
" />
<path d="M9097 11850
L9097 11450
" />
<path d="M9097 11050
L9097 10650
" />
<path d="M9097 10650
L8497 10650
" />
<path d="M8497 10650
L8497 11050
" />
<circle cx="15947.3" cy="9250" r="50" /> 
<path d="M15947 9700
L15947 9300
" />
<path d="M15947 9300
L15347 9300
" />
<path d="M15347 9300
L15347 9700
" />
<path d="M15347 10100
L15347 10500
" />
<path d="M15347 10500
L15947 10500
" />
<path d="M15947 10500
L15947 10100
" />
<circle cx="15047.3" cy="9250" r="50" /> 
<path d="M15047 9700
L15047 9300
" />
<path d="M15047 9300
L14447 9300
" />
<path d="M14447 9300
L14447 9700
" />
<path d="M14447 10100
L14447 10500
" />
<path d="M14447 10500
L15047 10500
" />
<path d="M15047 10500
L15047 10100
" />
<circle cx="14447.3" cy="9100" r="50" /> 
<path d="M14447 8650
L14447 9050
" />
<path d="M14447 9050
L15047 9050
" />
<path d="M15047 9050
L15047 8650
" />
<path d="M15047 8250
L15047 7850
" />
<path d="M15047 7850
L14447 7850
" />
<path d="M14447 7850
L14447 8250
" />
<circle cx="15347.3" cy="9100" r="50" /> 
<path d="M15347 8650
L15347 9050
" />
<path d="M15347 9050
L15947 9050
" />
<path d="M15947 9050
L15947 8650
" />
<path d="M15947 8250
L15947 7850
" />
<path d="M15947 7850
L15347 7850
" />
<path d="M15347 7850
L15347 8250
" />
<path d="M16353 6480
L15959 6894
" />
<path d="M15959 6894
L15959 6106
" />
<path d="M15959 6106
L16353 6500
" />
<path d="M16353 6913
L16353 6087
" />
</g>
<g style="fill:#840000; fill-opacity:0.0; 
stroke:#840000; stroke-width:39.3701; stroke-opacity:1; 
stroke-linecap:round; stroke-linejoin:round;">
</g>
<g style="fill:#840000; fill-opacity:1.0; 
stroke:#840000; stroke-width:39.3701; stroke-opacity:1; 
stroke-linecap:round; stroke-linejoin:round;">
<polyline style="fill-rule:evenodd;"
points="7102,8605
6491,8605
6491,7994
7102,7994
7102,8605
" /> 
<polyline style="fill-rule:evenodd;"
points="12491,4105
12491,3494
13102,3494
13102,4105
12491,4105
" /> 
<polyline style="fill-rule:evenodd;"
points="12491,5105
12491,4494
13102,4494
13102,5105
12491,5105
" /> 
<polyline style="fill-rule:evenodd;"
points="12102,13494
12102,14105
11491,14105
11491,13494
12102,13494
" /> 
<polyline style="fill-rule:evenodd;"
points="12102,12494
12102,13105
11491,13105
11491,12494
12102,12494
" /> 
</g> 
</svg>
