G04 #@! TF.GenerationSoftware,KiCad,Pcbnew,(2017-02-05 revision 431abcf)-makepkg*
G04 #@! TF.CreationDate,2017-03-21T18:12:11+01:00*
G04 #@! TF.ProjectId,EEPROM02A,454550524F4D3032412E6B696361645F,REV*
G04 #@! TF.FileFunction,Copper,L1,Top,Signal*
G04 #@! TF.FilePolarity,Positive*
%FSLAX46Y46*%
G04 Gerber Fmt 4.6, Leading zero omitted, Abs format (unit mm)*
G04 Created by KiCad (PCBNEW (2017-02-05 revision 431abcf)-makepkg) date 03/21/17 18:12:11*
%MOMM*%
%LPD*%
G01*
G04 APERTURE LIST*
%ADD10C,0.150000*%
%ADD11R,1.524000X1.524000*%
%ADD12C,6.000000*%
%ADD13C,0.800000*%
%ADD14C,0.400000*%
%ADD15C,0.200000*%
%ADD16C,0.800000*%
%ADD17C,0.300000*%
%ADD18C,0.254000*%
G04 APERTURE END LIST*
D10*
D11*
X13208000Y11176000D03*
X15748000Y11176000D03*
X18288000Y11176000D03*
D12*
X15240000Y35560000D03*
X5080000Y35560000D03*
X5080000Y5080000D03*
X15240000Y5080000D03*
D11*
X6223000Y29337000D03*
X3683000Y29337000D03*
X6223000Y26797000D03*
X3683000Y26797000D03*
X3683000Y24257000D03*
X6223000Y24257000D03*
X6223000Y21717000D03*
X3683000Y21717000D03*
X3683000Y19177000D03*
X6223000Y19177000D03*
X6223000Y15748000D03*
X3683000Y15748000D03*
X3683000Y13208000D03*
X6223000Y13208000D03*
X6223000Y10668000D03*
X3683000Y10668000D03*
D13*
X9652000Y13970002D03*
X15240000Y9398000D03*
X13208002Y19304000D03*
X2032000Y19202400D03*
X16560800Y12750800D03*
X17729200Y12700000D03*
X18999200Y12700000D03*
X19253200Y17018000D03*
X19253200Y17932400D03*
X18948400Y18999200D03*
X8331200Y32054800D03*
X11328400Y32004000D03*
X12192000Y8839200D03*
X18440400Y24790400D03*
X17729200Y24079200D03*
X17678400Y25247600D03*
X10617200Y19354800D03*
X8636000Y28194000D03*
X12039600Y17627600D03*
X10223602Y26390600D03*
X14310000Y19151600D03*
X11683994Y21336000D03*
X11023602Y27584400D03*
X15671988Y19389893D03*
X16967199Y16103600D03*
X17124873Y21155390D03*
X16560800Y26009600D03*
X16916398Y14528800D03*
X17830800Y18389600D03*
X18796000Y23622000D03*
X15112992Y16129000D03*
X10972800Y15494000D03*
X12552695Y22090121D03*
X14122400Y28905200D03*
D14*
X12192000Y8839200D02*
X14681200Y8839200D01*
X14681200Y8839200D02*
X15240000Y9398000D01*
D15*
X3683000Y19177000D02*
X2057400Y19177000D01*
X2057400Y19177000D02*
X2032000Y19202400D01*
X18999200Y12700000D02*
X17729200Y12700000D01*
X18948400Y18999200D02*
X18948400Y18237200D01*
X18948400Y18237200D02*
X19253200Y17932400D01*
X11328400Y32004000D02*
X8382000Y32004000D01*
X8382000Y32004000D02*
X8331200Y32054800D01*
D14*
X17678400Y25247600D02*
X17678400Y24130000D01*
X17678400Y24130000D02*
X17729200Y24079200D01*
X3683000Y11938000D02*
X12446000Y11938000D01*
X12446000Y11938000D02*
X13208000Y11176000D01*
D16*
X3683000Y11938000D02*
X3683000Y13208000D01*
X3683000Y10668000D02*
X3683000Y11938000D01*
X8636000Y25298400D02*
X8636000Y28194000D01*
X8636000Y24282400D02*
X8636000Y23215600D01*
X8636000Y23215600D02*
X8636000Y21031200D01*
X6223000Y24257000D02*
X7785000Y24257000D01*
X8636000Y23406000D02*
X8636000Y23215600D01*
X7785000Y24257000D02*
X8636000Y23406000D01*
X8636000Y25298400D02*
X8636000Y24282400D01*
X7785000Y24257000D02*
X8636000Y25108000D01*
X8636000Y25108000D02*
X8636000Y25298400D01*
X7785000Y24257000D02*
X7810400Y24282400D01*
X7810400Y24282400D02*
X8636000Y24282400D01*
X3683000Y24257000D02*
X6223000Y24257000D01*
X8636000Y21031200D02*
X8636000Y18985998D01*
X12039600Y17627600D02*
X9994398Y17627600D01*
X9994398Y17627600D02*
X8636000Y18985998D01*
X5384800Y17526000D02*
X7176002Y17526000D01*
X7176002Y17526000D02*
X8636000Y18985998D01*
X3683000Y15824200D02*
X5384800Y17526000D01*
X3683000Y15748000D02*
X3683000Y15824200D01*
X3683000Y13208000D02*
X3683000Y15748000D01*
D14*
X13758085Y20269200D02*
X11379200Y20269200D01*
X14310000Y19717285D02*
X13758085Y20269200D01*
X10223602Y25824915D02*
X10223602Y26390600D01*
X14310000Y19151600D02*
X14310000Y19717285D01*
X10223602Y21424798D02*
X10223602Y25824915D01*
X11379200Y20269200D02*
X10223602Y21424798D01*
X11023602Y27584400D02*
X11683994Y26924008D01*
X11683994Y21901685D02*
X11683994Y21336000D01*
X11683994Y26924008D02*
X11683994Y21901685D01*
X6223000Y15748000D02*
X7385000Y15748000D01*
X7385000Y15748000D02*
X8350200Y16713200D01*
X8350200Y16713200D02*
X13560980Y16713200D01*
X13560980Y16713200D02*
X15671988Y18824208D01*
X15671988Y18824208D02*
X15671988Y19389893D01*
X7385000Y13208000D02*
X7423003Y13169997D01*
X6223000Y13208000D02*
X7385000Y13208000D01*
X7423003Y13169997D02*
X14033596Y13169997D01*
X14033596Y13169997D02*
X16567200Y15703601D01*
X16567200Y15703601D02*
X16967199Y16103600D01*
X17221200Y21234400D02*
X17018000Y21031200D01*
X16967199Y16669285D02*
X16967199Y16103600D01*
X17018000Y21031200D02*
X17018000Y16720086D01*
X17018000Y16720086D02*
X16967199Y16669285D01*
X17142190Y21155390D02*
X17124873Y21155390D01*
X17221200Y21234400D02*
X17142190Y21155390D01*
X16560800Y26009600D02*
X16560800Y21894800D01*
X16560800Y21894800D02*
X17221200Y21234400D01*
X6223000Y10668000D02*
X7385000Y10668000D01*
X7385000Y10668000D02*
X8413799Y9639201D01*
X8413799Y9639201D02*
X13957201Y9639201D01*
X13957201Y9639201D02*
X14478000Y10160000D01*
X14478000Y12090402D02*
X16916398Y14528800D01*
X14478000Y10160000D02*
X14478000Y12090402D01*
X17316397Y14928799D02*
X16916398Y14528800D01*
X17830800Y18389600D02*
X17830800Y15443202D01*
X17830800Y15443202D02*
X17316397Y14928799D01*
X17932400Y22758400D02*
X18396001Y23222001D01*
X17830800Y18955285D02*
X17932400Y19056885D01*
X17830800Y18389600D02*
X17830800Y18955285D01*
X17932400Y19056885D02*
X17932400Y22758400D01*
X18396001Y23222001D02*
X18796000Y23622000D01*
D17*
X14547307Y16129000D02*
X15112992Y16129000D01*
X15512991Y16528999D02*
X15112992Y16129000D01*
X16459200Y20777200D02*
X16459200Y17475208D01*
X11607800Y16129000D02*
X14547307Y16129000D01*
X16459200Y17475208D02*
X15512991Y16528999D01*
X15544800Y21691600D02*
X16459200Y20777200D01*
X10972800Y15494000D02*
X11607800Y16129000D01*
X15544800Y21691600D02*
X15146279Y22090121D01*
X15544800Y21691600D02*
X16306800Y20929600D01*
X15146279Y22090121D02*
X12552695Y22090121D01*
D14*
X14122400Y28905200D02*
X12552695Y27335495D01*
X12552695Y27335495D02*
X12552695Y22090121D01*
D18*
G36*
X19664000Y656000D02*
X656000Y656000D01*
X656000Y22479000D01*
X2587594Y22479000D01*
X2587594Y20955000D01*
X2612973Y20827411D01*
X2685246Y20719246D01*
X2793411Y20646973D01*
X2921000Y20621594D01*
X4445000Y20621594D01*
X4572589Y20646973D01*
X4680754Y20719246D01*
X4753027Y20827411D01*
X4778406Y20955000D01*
X4778406Y22479000D01*
X5127594Y22479000D01*
X5127594Y20955000D01*
X5152973Y20827411D01*
X5225246Y20719246D01*
X5333411Y20646973D01*
X5461000Y20621594D01*
X6985000Y20621594D01*
X7112589Y20646973D01*
X7220754Y20719246D01*
X7293027Y20827411D01*
X7318406Y20955000D01*
X7318406Y22479000D01*
X7293027Y22606589D01*
X7220754Y22714754D01*
X7112589Y22787027D01*
X6985000Y22812406D01*
X5461000Y22812406D01*
X5333411Y22787027D01*
X5225246Y22714754D01*
X5152973Y22606589D01*
X5127594Y22479000D01*
X4778406Y22479000D01*
X4753027Y22606589D01*
X4680754Y22714754D01*
X4572589Y22787027D01*
X4445000Y22812406D01*
X2921000Y22812406D01*
X2793411Y22787027D01*
X2685246Y22714754D01*
X2612973Y22606589D01*
X2587594Y22479000D01*
X656000Y22479000D01*
X656000Y25019000D01*
X2587594Y25019000D01*
X2587594Y23495000D01*
X2612973Y23367411D01*
X2685246Y23259246D01*
X2793411Y23186973D01*
X2921000Y23161594D01*
X4445000Y23161594D01*
X4572589Y23186973D01*
X4680754Y23259246D01*
X4753027Y23367411D01*
X4778406Y23495000D01*
X4778406Y23530000D01*
X5127594Y23530000D01*
X5127594Y23495000D01*
X5152973Y23367411D01*
X5225246Y23259246D01*
X5333411Y23186973D01*
X5461000Y23161594D01*
X6985000Y23161594D01*
X7112589Y23186973D01*
X7220754Y23259246D01*
X7293027Y23367411D01*
X7318406Y23495000D01*
X7318406Y23530000D01*
X7483866Y23530000D01*
X7909000Y23104867D01*
X7909000Y19287132D01*
X6874868Y18253000D01*
X5384805Y18253000D01*
X5384800Y18253001D01*
X5152748Y18206842D01*
X5106589Y18197660D01*
X4870733Y18040067D01*
X4870731Y18040064D01*
X3674072Y16843406D01*
X2921000Y16843406D01*
X2793411Y16818027D01*
X2685246Y16745754D01*
X2612973Y16637589D01*
X2587594Y16510000D01*
X2587594Y14986000D01*
X2612973Y14858411D01*
X2685246Y14750246D01*
X2793411Y14677973D01*
X2921000Y14652594D01*
X2956000Y14652594D01*
X2956000Y14303406D01*
X2921000Y14303406D01*
X2793411Y14278027D01*
X2685246Y14205754D01*
X2612973Y14097589D01*
X2587594Y13970000D01*
X2587594Y12446000D01*
X2612973Y12318411D01*
X2685246Y12210246D01*
X2793411Y12137973D01*
X2921000Y12112594D01*
X2956000Y12112594D01*
X2956000Y11763406D01*
X2921000Y11763406D01*
X2793411Y11738027D01*
X2685246Y11665754D01*
X2612973Y11557589D01*
X2587594Y11430000D01*
X2587594Y9906000D01*
X2612973Y9778411D01*
X2685246Y9670246D01*
X2793411Y9597973D01*
X2921000Y9572594D01*
X4445000Y9572594D01*
X4572589Y9597973D01*
X4680754Y9670246D01*
X4753027Y9778411D01*
X4778406Y9906000D01*
X4778406Y11411000D01*
X5127594Y11411000D01*
X5127594Y9906000D01*
X5152973Y9778411D01*
X5225246Y9670246D01*
X5333411Y9597973D01*
X5461000Y9572594D01*
X6985000Y9572594D01*
X7112589Y9597973D01*
X7220754Y9670246D01*
X7293027Y9778411D01*
X7318406Y9906000D01*
X7318406Y9989304D01*
X8041153Y9266556D01*
X8155393Y9190223D01*
X8212125Y9152316D01*
X8413799Y9112201D01*
X13957201Y9112201D01*
X14158876Y9152316D01*
X14329846Y9266556D01*
X14850645Y9787355D01*
X14964885Y9958325D01*
X14989205Y10080594D01*
X16510000Y10080594D01*
X16637589Y10105973D01*
X16745754Y10178246D01*
X16818027Y10286411D01*
X16843406Y10414000D01*
X16843406Y11938000D01*
X16818027Y12065589D01*
X16745754Y12173754D01*
X16637589Y12246027D01*
X16510000Y12271406D01*
X15404294Y12271406D01*
X16934672Y13801784D01*
X17060373Y13801674D01*
X17327673Y13912120D01*
X17532359Y14116450D01*
X17643272Y14383556D01*
X17643383Y14510495D01*
X18203445Y15070557D01*
X18317685Y15241528D01*
X18357800Y15443202D01*
X18357800Y17888444D01*
X18446761Y17977250D01*
X18557674Y18244356D01*
X18557926Y18533575D01*
X18447480Y18800875D01*
X18408842Y18839581D01*
X18419285Y18855210D01*
X18459400Y19056885D01*
X18459400Y22540110D01*
X18814274Y22894984D01*
X18939975Y22894874D01*
X19207275Y23005320D01*
X19411961Y23209650D01*
X19522874Y23476756D01*
X19523126Y23765975D01*
X19412680Y24033275D01*
X19208350Y24237961D01*
X18941244Y24348874D01*
X18652025Y24349126D01*
X18384725Y24238680D01*
X18180039Y24034350D01*
X18069126Y23767244D01*
X18069015Y23640305D01*
X17559755Y23131045D01*
X17445515Y22960075D01*
X17445515Y22960074D01*
X17405400Y22758400D01*
X17405400Y21826089D01*
X17353073Y21847817D01*
X17087800Y22113090D01*
X17087800Y25508444D01*
X17176761Y25597250D01*
X17287674Y25864356D01*
X17287926Y26153575D01*
X17177480Y26420875D01*
X16973150Y26625561D01*
X16706044Y26736474D01*
X16416825Y26736726D01*
X16149525Y26626280D01*
X15944839Y26421950D01*
X15833926Y26154844D01*
X15833674Y25865625D01*
X15944120Y25598325D01*
X16033800Y25508489D01*
X16033800Y21894800D01*
X16038175Y21872805D01*
X15483569Y22427411D01*
X15328819Y22530812D01*
X15146279Y22567121D01*
X13103764Y22567121D01*
X13079695Y22591232D01*
X13079695Y27117205D01*
X14140674Y28178184D01*
X14266375Y28178074D01*
X14533675Y28288520D01*
X14738361Y28492850D01*
X14849274Y28759956D01*
X14849526Y29049175D01*
X14739080Y29316475D01*
X14534750Y29521161D01*
X14267644Y29632074D01*
X13978425Y29632326D01*
X13711125Y29521880D01*
X13506439Y29317550D01*
X13395526Y29050444D01*
X13395415Y28923505D01*
X12180050Y27708140D01*
X12065810Y27537170D01*
X12025695Y27335495D01*
X12025695Y27327598D01*
X11750618Y27602674D01*
X11750728Y27728375D01*
X11640282Y27995675D01*
X11435952Y28200361D01*
X11168846Y28311274D01*
X10879627Y28311526D01*
X10612327Y28201080D01*
X10407641Y27996750D01*
X10296728Y27729644D01*
X10296476Y27440425D01*
X10406922Y27173125D01*
X10528766Y27051069D01*
X10368846Y27117474D01*
X10079627Y27117726D01*
X9812327Y27007280D01*
X9607641Y26802950D01*
X9496728Y26535844D01*
X9496476Y26246625D01*
X9606922Y25979325D01*
X9696602Y25889489D01*
X9696602Y21424798D01*
X9736717Y21223123D01*
X9850957Y21052153D01*
X11006554Y19896555D01*
X11120794Y19820222D01*
X11177526Y19782315D01*
X11379200Y19742200D01*
X13539795Y19742200D01*
X13706052Y19575942D01*
X13694039Y19563950D01*
X13583126Y19296844D01*
X13582874Y19007625D01*
X13693320Y18740325D01*
X13897650Y18535639D01*
X14164756Y18424726D01*
X14453975Y18424474D01*
X14578358Y18475868D01*
X13342690Y17240200D01*
X12665921Y17240200D01*
X12766474Y17482356D01*
X12766726Y17771575D01*
X12656280Y18038875D01*
X12451950Y18243561D01*
X12184844Y18354474D01*
X11895625Y18354726D01*
X11895320Y18354600D01*
X10295532Y18354600D01*
X9363000Y19287132D01*
X9363000Y23405995D01*
X9363001Y23406000D01*
X9363000Y23406005D01*
X9363000Y25107995D01*
X9363001Y25108000D01*
X9363000Y25108005D01*
X9363000Y28193366D01*
X9363126Y28337975D01*
X9252680Y28605275D01*
X9048350Y28809961D01*
X8781244Y28920874D01*
X8492025Y28921126D01*
X8224725Y28810680D01*
X8020039Y28606350D01*
X7909126Y28339244D01*
X7908874Y28050025D01*
X7909000Y28049720D01*
X7909000Y25409133D01*
X7483866Y24984000D01*
X7318406Y24984000D01*
X7318406Y25019000D01*
X7293027Y25146589D01*
X7220754Y25254754D01*
X7112589Y25327027D01*
X6985000Y25352406D01*
X5461000Y25352406D01*
X5333411Y25327027D01*
X5225246Y25254754D01*
X5152973Y25146589D01*
X5127594Y25019000D01*
X5127594Y24984000D01*
X4778406Y24984000D01*
X4778406Y25019000D01*
X4753027Y25146589D01*
X4680754Y25254754D01*
X4572589Y25327027D01*
X4445000Y25352406D01*
X2921000Y25352406D01*
X2793411Y25327027D01*
X2685246Y25254754D01*
X2612973Y25146589D01*
X2587594Y25019000D01*
X656000Y25019000D01*
X656000Y27559000D01*
X2587594Y27559000D01*
X2587594Y26035000D01*
X2612973Y25907411D01*
X2685246Y25799246D01*
X2793411Y25726973D01*
X2921000Y25701594D01*
X4445000Y25701594D01*
X4572589Y25726973D01*
X4680754Y25799246D01*
X4753027Y25907411D01*
X4778406Y26035000D01*
X4778406Y27559000D01*
X5127594Y27559000D01*
X5127594Y26035000D01*
X5152973Y25907411D01*
X5225246Y25799246D01*
X5333411Y25726973D01*
X5461000Y25701594D01*
X6985000Y25701594D01*
X7112589Y25726973D01*
X7220754Y25799246D01*
X7293027Y25907411D01*
X7318406Y26035000D01*
X7318406Y27559000D01*
X7293027Y27686589D01*
X7220754Y27794754D01*
X7112589Y27867027D01*
X6985000Y27892406D01*
X5461000Y27892406D01*
X5333411Y27867027D01*
X5225246Y27794754D01*
X5152973Y27686589D01*
X5127594Y27559000D01*
X4778406Y27559000D01*
X4753027Y27686589D01*
X4680754Y27794754D01*
X4572589Y27867027D01*
X4445000Y27892406D01*
X2921000Y27892406D01*
X2793411Y27867027D01*
X2685246Y27794754D01*
X2612973Y27686589D01*
X2587594Y27559000D01*
X656000Y27559000D01*
X656000Y39984000D01*
X19664000Y39984000D01*
X19664000Y656000D01*
X19664000Y656000D01*
G37*
X19664000Y656000D02*
X656000Y656000D01*
X656000Y22479000D01*
X2587594Y22479000D01*
X2587594Y20955000D01*
X2612973Y20827411D01*
X2685246Y20719246D01*
X2793411Y20646973D01*
X2921000Y20621594D01*
X4445000Y20621594D01*
X4572589Y20646973D01*
X4680754Y20719246D01*
X4753027Y20827411D01*
X4778406Y20955000D01*
X4778406Y22479000D01*
X5127594Y22479000D01*
X5127594Y20955000D01*
X5152973Y20827411D01*
X5225246Y20719246D01*
X5333411Y20646973D01*
X5461000Y20621594D01*
X6985000Y20621594D01*
X7112589Y20646973D01*
X7220754Y20719246D01*
X7293027Y20827411D01*
X7318406Y20955000D01*
X7318406Y22479000D01*
X7293027Y22606589D01*
X7220754Y22714754D01*
X7112589Y22787027D01*
X6985000Y22812406D01*
X5461000Y22812406D01*
X5333411Y22787027D01*
X5225246Y22714754D01*
X5152973Y22606589D01*
X5127594Y22479000D01*
X4778406Y22479000D01*
X4753027Y22606589D01*
X4680754Y22714754D01*
X4572589Y22787027D01*
X4445000Y22812406D01*
X2921000Y22812406D01*
X2793411Y22787027D01*
X2685246Y22714754D01*
X2612973Y22606589D01*
X2587594Y22479000D01*
X656000Y22479000D01*
X656000Y25019000D01*
X2587594Y25019000D01*
X2587594Y23495000D01*
X2612973Y23367411D01*
X2685246Y23259246D01*
X2793411Y23186973D01*
X2921000Y23161594D01*
X4445000Y23161594D01*
X4572589Y23186973D01*
X4680754Y23259246D01*
X4753027Y23367411D01*
X4778406Y23495000D01*
X4778406Y23530000D01*
X5127594Y23530000D01*
X5127594Y23495000D01*
X5152973Y23367411D01*
X5225246Y23259246D01*
X5333411Y23186973D01*
X5461000Y23161594D01*
X6985000Y23161594D01*
X7112589Y23186973D01*
X7220754Y23259246D01*
X7293027Y23367411D01*
X7318406Y23495000D01*
X7318406Y23530000D01*
X7483866Y23530000D01*
X7909000Y23104867D01*
X7909000Y19287132D01*
X6874868Y18253000D01*
X5384805Y18253000D01*
X5384800Y18253001D01*
X5152748Y18206842D01*
X5106589Y18197660D01*
X4870733Y18040067D01*
X4870731Y18040064D01*
X3674072Y16843406D01*
X2921000Y16843406D01*
X2793411Y16818027D01*
X2685246Y16745754D01*
X2612973Y16637589D01*
X2587594Y16510000D01*
X2587594Y14986000D01*
X2612973Y14858411D01*
X2685246Y14750246D01*
X2793411Y14677973D01*
X2921000Y14652594D01*
X2956000Y14652594D01*
X2956000Y14303406D01*
X2921000Y14303406D01*
X2793411Y14278027D01*
X2685246Y14205754D01*
X2612973Y14097589D01*
X2587594Y13970000D01*
X2587594Y12446000D01*
X2612973Y12318411D01*
X2685246Y12210246D01*
X2793411Y12137973D01*
X2921000Y12112594D01*
X2956000Y12112594D01*
X2956000Y11763406D01*
X2921000Y11763406D01*
X2793411Y11738027D01*
X2685246Y11665754D01*
X2612973Y11557589D01*
X2587594Y11430000D01*
X2587594Y9906000D01*
X2612973Y9778411D01*
X2685246Y9670246D01*
X2793411Y9597973D01*
X2921000Y9572594D01*
X4445000Y9572594D01*
X4572589Y9597973D01*
X4680754Y9670246D01*
X4753027Y9778411D01*
X4778406Y9906000D01*
X4778406Y11411000D01*
X5127594Y11411000D01*
X5127594Y9906000D01*
X5152973Y9778411D01*
X5225246Y9670246D01*
X5333411Y9597973D01*
X5461000Y9572594D01*
X6985000Y9572594D01*
X7112589Y9597973D01*
X7220754Y9670246D01*
X7293027Y9778411D01*
X7318406Y9906000D01*
X7318406Y9989304D01*
X8041153Y9266556D01*
X8155393Y9190223D01*
X8212125Y9152316D01*
X8413799Y9112201D01*
X13957201Y9112201D01*
X14158876Y9152316D01*
X14329846Y9266556D01*
X14850645Y9787355D01*
X14964885Y9958325D01*
X14989205Y10080594D01*
X16510000Y10080594D01*
X16637589Y10105973D01*
X16745754Y10178246D01*
X16818027Y10286411D01*
X16843406Y10414000D01*
X16843406Y11938000D01*
X16818027Y12065589D01*
X16745754Y12173754D01*
X16637589Y12246027D01*
X16510000Y12271406D01*
X15404294Y12271406D01*
X16934672Y13801784D01*
X17060373Y13801674D01*
X17327673Y13912120D01*
X17532359Y14116450D01*
X17643272Y14383556D01*
X17643383Y14510495D01*
X18203445Y15070557D01*
X18317685Y15241528D01*
X18357800Y15443202D01*
X18357800Y17888444D01*
X18446761Y17977250D01*
X18557674Y18244356D01*
X18557926Y18533575D01*
X18447480Y18800875D01*
X18408842Y18839581D01*
X18419285Y18855210D01*
X18459400Y19056885D01*
X18459400Y22540110D01*
X18814274Y22894984D01*
X18939975Y22894874D01*
X19207275Y23005320D01*
X19411961Y23209650D01*
X19522874Y23476756D01*
X19523126Y23765975D01*
X19412680Y24033275D01*
X19208350Y24237961D01*
X18941244Y24348874D01*
X18652025Y24349126D01*
X18384725Y24238680D01*
X18180039Y24034350D01*
X18069126Y23767244D01*
X18069015Y23640305D01*
X17559755Y23131045D01*
X17445515Y22960075D01*
X17445515Y22960074D01*
X17405400Y22758400D01*
X17405400Y21826089D01*
X17353073Y21847817D01*
X17087800Y22113090D01*
X17087800Y25508444D01*
X17176761Y25597250D01*
X17287674Y25864356D01*
X17287926Y26153575D01*
X17177480Y26420875D01*
X16973150Y26625561D01*
X16706044Y26736474D01*
X16416825Y26736726D01*
X16149525Y26626280D01*
X15944839Y26421950D01*
X15833926Y26154844D01*
X15833674Y25865625D01*
X15944120Y25598325D01*
X16033800Y25508489D01*
X16033800Y21894800D01*
X16038175Y21872805D01*
X15483569Y22427411D01*
X15328819Y22530812D01*
X15146279Y22567121D01*
X13103764Y22567121D01*
X13079695Y22591232D01*
X13079695Y27117205D01*
X14140674Y28178184D01*
X14266375Y28178074D01*
X14533675Y28288520D01*
X14738361Y28492850D01*
X14849274Y28759956D01*
X14849526Y29049175D01*
X14739080Y29316475D01*
X14534750Y29521161D01*
X14267644Y29632074D01*
X13978425Y29632326D01*
X13711125Y29521880D01*
X13506439Y29317550D01*
X13395526Y29050444D01*
X13395415Y28923505D01*
X12180050Y27708140D01*
X12065810Y27537170D01*
X12025695Y27335495D01*
X12025695Y27327598D01*
X11750618Y27602674D01*
X11750728Y27728375D01*
X11640282Y27995675D01*
X11435952Y28200361D01*
X11168846Y28311274D01*
X10879627Y28311526D01*
X10612327Y28201080D01*
X10407641Y27996750D01*
X10296728Y27729644D01*
X10296476Y27440425D01*
X10406922Y27173125D01*
X10528766Y27051069D01*
X10368846Y27117474D01*
X10079627Y27117726D01*
X9812327Y27007280D01*
X9607641Y26802950D01*
X9496728Y26535844D01*
X9496476Y26246625D01*
X9606922Y25979325D01*
X9696602Y25889489D01*
X9696602Y21424798D01*
X9736717Y21223123D01*
X9850957Y21052153D01*
X11006554Y19896555D01*
X11120794Y19820222D01*
X11177526Y19782315D01*
X11379200Y19742200D01*
X13539795Y19742200D01*
X13706052Y19575942D01*
X13694039Y19563950D01*
X13583126Y19296844D01*
X13582874Y19007625D01*
X13693320Y18740325D01*
X13897650Y18535639D01*
X14164756Y18424726D01*
X14453975Y18424474D01*
X14578358Y18475868D01*
X13342690Y17240200D01*
X12665921Y17240200D01*
X12766474Y17482356D01*
X12766726Y17771575D01*
X12656280Y18038875D01*
X12451950Y18243561D01*
X12184844Y18354474D01*
X11895625Y18354726D01*
X11895320Y18354600D01*
X10295532Y18354600D01*
X9363000Y19287132D01*
X9363000Y23405995D01*
X9363001Y23406000D01*
X9363000Y23406005D01*
X9363000Y25107995D01*
X9363001Y25108000D01*
X9363000Y25108005D01*
X9363000Y28193366D01*
X9363126Y28337975D01*
X9252680Y28605275D01*
X9048350Y28809961D01*
X8781244Y28920874D01*
X8492025Y28921126D01*
X8224725Y28810680D01*
X8020039Y28606350D01*
X7909126Y28339244D01*
X7908874Y28050025D01*
X7909000Y28049720D01*
X7909000Y25409133D01*
X7483866Y24984000D01*
X7318406Y24984000D01*
X7318406Y25019000D01*
X7293027Y25146589D01*
X7220754Y25254754D01*
X7112589Y25327027D01*
X6985000Y25352406D01*
X5461000Y25352406D01*
X5333411Y25327027D01*
X5225246Y25254754D01*
X5152973Y25146589D01*
X5127594Y25019000D01*
X5127594Y24984000D01*
X4778406Y24984000D01*
X4778406Y25019000D01*
X4753027Y25146589D01*
X4680754Y25254754D01*
X4572589Y25327027D01*
X4445000Y25352406D01*
X2921000Y25352406D01*
X2793411Y25327027D01*
X2685246Y25254754D01*
X2612973Y25146589D01*
X2587594Y25019000D01*
X656000Y25019000D01*
X656000Y27559000D01*
X2587594Y27559000D01*
X2587594Y26035000D01*
X2612973Y25907411D01*
X2685246Y25799246D01*
X2793411Y25726973D01*
X2921000Y25701594D01*
X4445000Y25701594D01*
X4572589Y25726973D01*
X4680754Y25799246D01*
X4753027Y25907411D01*
X4778406Y26035000D01*
X4778406Y27559000D01*
X5127594Y27559000D01*
X5127594Y26035000D01*
X5152973Y25907411D01*
X5225246Y25799246D01*
X5333411Y25726973D01*
X5461000Y25701594D01*
X6985000Y25701594D01*
X7112589Y25726973D01*
X7220754Y25799246D01*
X7293027Y25907411D01*
X7318406Y26035000D01*
X7318406Y27559000D01*
X7293027Y27686589D01*
X7220754Y27794754D01*
X7112589Y27867027D01*
X6985000Y27892406D01*
X5461000Y27892406D01*
X5333411Y27867027D01*
X5225246Y27794754D01*
X5152973Y27686589D01*
X5127594Y27559000D01*
X4778406Y27559000D01*
X4753027Y27686589D01*
X4680754Y27794754D01*
X4572589Y27867027D01*
X4445000Y27892406D01*
X2921000Y27892406D01*
X2793411Y27867027D01*
X2685246Y27794754D01*
X2612973Y27686589D01*
X2587594Y27559000D01*
X656000Y27559000D01*
X656000Y39984000D01*
X19664000Y39984000D01*
X19664000Y656000D01*
G36*
X16466000Y16798999D02*
X16440199Y16669285D01*
X16440199Y16604756D01*
X16351238Y16515950D01*
X16240325Y16248844D01*
X16240214Y16121905D01*
X13815306Y13696997D01*
X7576057Y13696997D01*
X7385000Y13735000D01*
X7318406Y13735000D01*
X7318406Y13970000D01*
X7293027Y14097589D01*
X7220754Y14205754D01*
X7112589Y14278027D01*
X6985000Y14303406D01*
X5461000Y14303406D01*
X5333411Y14278027D01*
X5225246Y14205754D01*
X5152973Y14097589D01*
X5127594Y13970000D01*
X5127594Y12465000D01*
X4778406Y12465000D01*
X4778406Y13970000D01*
X4753027Y14097589D01*
X4680754Y14205754D01*
X4572589Y14278027D01*
X4445000Y14303406D01*
X4410000Y14303406D01*
X4410000Y14652594D01*
X4445000Y14652594D01*
X4572589Y14677973D01*
X4680754Y14750246D01*
X4753027Y14858411D01*
X4778406Y14986000D01*
X4778406Y15891472D01*
X5127594Y16240661D01*
X5127594Y14986000D01*
X5152973Y14858411D01*
X5225246Y14750246D01*
X5333411Y14677973D01*
X5461000Y14652594D01*
X6985000Y14652594D01*
X7112589Y14677973D01*
X7220754Y14750246D01*
X7293027Y14858411D01*
X7318406Y14986000D01*
X7318406Y15221000D01*
X7385000Y15221000D01*
X7586675Y15261115D01*
X7757645Y15375355D01*
X8568490Y16186200D01*
X10744298Y16186200D01*
X10561525Y16110680D01*
X10356839Y15906350D01*
X10245926Y15639244D01*
X10245674Y15350025D01*
X10356120Y15082725D01*
X10560450Y14878039D01*
X10827556Y14767126D01*
X11116775Y14766874D01*
X11384075Y14877320D01*
X11588761Y15081650D01*
X11699674Y15348756D01*
X11699846Y15546466D01*
X11805380Y15652000D01*
X14561923Y15652000D01*
X14700642Y15513039D01*
X14967748Y15402126D01*
X15256967Y15401874D01*
X15524267Y15512320D01*
X15728953Y15716650D01*
X15839866Y15983756D01*
X15840038Y16181466D01*
X16468093Y16809521D01*
X16466000Y16798999D01*
X16466000Y16798999D01*
G37*
X16466000Y16798999D02*
X16440199Y16669285D01*
X16440199Y16604756D01*
X16351238Y16515950D01*
X16240325Y16248844D01*
X16240214Y16121905D01*
X13815306Y13696997D01*
X7576057Y13696997D01*
X7385000Y13735000D01*
X7318406Y13735000D01*
X7318406Y13970000D01*
X7293027Y14097589D01*
X7220754Y14205754D01*
X7112589Y14278027D01*
X6985000Y14303406D01*
X5461000Y14303406D01*
X5333411Y14278027D01*
X5225246Y14205754D01*
X5152973Y14097589D01*
X5127594Y13970000D01*
X5127594Y12465000D01*
X4778406Y12465000D01*
X4778406Y13970000D01*
X4753027Y14097589D01*
X4680754Y14205754D01*
X4572589Y14278027D01*
X4445000Y14303406D01*
X4410000Y14303406D01*
X4410000Y14652594D01*
X4445000Y14652594D01*
X4572589Y14677973D01*
X4680754Y14750246D01*
X4753027Y14858411D01*
X4778406Y14986000D01*
X4778406Y15891472D01*
X5127594Y16240661D01*
X5127594Y14986000D01*
X5152973Y14858411D01*
X5225246Y14750246D01*
X5333411Y14677973D01*
X5461000Y14652594D01*
X6985000Y14652594D01*
X7112589Y14677973D01*
X7220754Y14750246D01*
X7293027Y14858411D01*
X7318406Y14986000D01*
X7318406Y15221000D01*
X7385000Y15221000D01*
X7586675Y15261115D01*
X7757645Y15375355D01*
X8568490Y16186200D01*
X10744298Y16186200D01*
X10561525Y16110680D01*
X10356839Y15906350D01*
X10245926Y15639244D01*
X10245674Y15350025D01*
X10356120Y15082725D01*
X10560450Y14878039D01*
X10827556Y14767126D01*
X11116775Y14766874D01*
X11384075Y14877320D01*
X11588761Y15081650D01*
X11699674Y15348756D01*
X11699846Y15546466D01*
X11805380Y15652000D01*
X14561923Y15652000D01*
X14700642Y15513039D01*
X14967748Y15402126D01*
X15256967Y15401874D01*
X15524267Y15512320D01*
X15728953Y15716650D01*
X15839866Y15983756D01*
X15840038Y16181466D01*
X16468093Y16809521D01*
X16466000Y16798999D01*
M02*
