*
*
G04 PADS 9.2 Build Number: 414666 generated Gerber (RS-274-X) file*
G04 PC Version=2.1*
*
%IN "OZDUAL02B.pcb"*%
*
%MOIN*%
*
%FSLAX35Y35*%
*
*
*
*
G04 PC Standard Apertures*
*
*
G04 Thermal Relief Aperture macro.*
%AMTER*
1,1,$1,0,0*
1,0,$1-$2,0,0*
21,0,$3,$4,0,0,45*
21,0,$3,$4,0,0,135*
%
*
*
G04 Annular Aperture macro.*
%AMANN*
1,1,$1,0,0*
1,0,$2,0,0*
%
*
*
G04 Odd Aperture macro.*
%AMODD*
1,1,$1,0,0*
1,0,$1-0.005,0,0*
%
*
*
G04 PC Custom Aperture Macros*
*
*
*
*
*
*
G04 PC Aperture Table*
*
%ADD011C,0.06*%
%ADD012R,0.07X0.07*%
%ADD024C,0.001*%
%ADD031C,0.07*%
%ADD032R,0.08X0.08*%
%ADD033C,0.24622*%
%ADD054R,0.11X0.065*%
%ADD055R,0.049X0.066*%
%ADD056R,0.085X0.085*%
%ADD057R,0.061X0.049*%
%ADD058R,0.049X0.061*%
%ADD059O,0.08X0.035*%
%ADD060O,0.035X0.08*%
%ADD062R,0.066X0.049*%
%ADD063R,0.08874X0.09268*%
*
*
*
*
G04 PC Circuitry*
G04 Layer Name OZDUAL02B.pcb - circuitry*
%LPD*%
*
*
G04 PC Custom Flashes*
G04 Layer Name OZDUAL02B.pcb - flashes*
%LPD*%
*
*
G04 PC Circuitry*
G04 Layer Name OZDUAL02B.pcb - circuitry*
%LPD*%
*
G54D11*
G01X223500Y109500D03*
G54D12*
X136500D03*
G54D24*
G54D31*
X182983Y140078D03*
Y130078D03*
X187983Y135078D03*
G54D32*
X175000Y195000D03*
Y205000D03*
X185000Y195000D03*
Y205000D03*
X195000Y195000D03*
Y205000D03*
G54D33*
X240000Y200000D03*
Y120000D03*
X120000D03*
Y200000D03*
G54D54*
X147000Y191500D03*
Y204500D03*
G54D55*
X185800Y186000D03*
X178200D03*
X190800Y154000D03*
X183200D03*
G54D56*
X245000Y140000D03*
X235000D03*
Y170000D03*
X245000D03*
X235000Y160000D03*
X245000D03*
X115000Y140000D03*
X125000D03*
Y170000D03*
X115000D03*
X125000Y160000D03*
X115000D03*
X125000Y180000D03*
X115000D03*
X245000D03*
X235000D03*
X115000Y150000D03*
X125000D03*
X235000D03*
X245000D03*
G54D57*
X148000Y175800D03*
Y168200D03*
X174000Y119200D03*
Y126800D03*
X207000Y168200D03*
Y175800D03*
X214000D03*
Y168200D03*
X162468Y175800D03*
Y168200D03*
X200000Y175800D03*
Y168200D03*
X155234D03*
Y175800D03*
X174000Y147200D03*
Y154800D03*
Y133200D03*
Y140800D03*
G54D58*
X148200Y161000D03*
X155800D03*
X213800Y140000D03*
X206200D03*
X148200Y147000D03*
X155800D03*
X148200Y133000D03*
X155800D03*
X148200Y140000D03*
X155800D03*
X213800Y133000D03*
X206200D03*
X213800Y161000D03*
X206200D03*
X213800Y147000D03*
X206200D03*
X213800Y154000D03*
X206200D03*
X148200D03*
X155800D03*
G54D59*
X192700Y177500D03*
Y172500D03*
Y167500D03*
Y162500D03*
X171300D03*
Y167500D03*
Y172500D03*
Y177500D03*
G54D60*
X182983Y145778D03*
X187983D03*
X192983D03*
X197983D03*
Y124378D03*
X192983D03*
X187983D03*
X182983D03*
G54D62*
X166000Y126200D03*
Y133800D03*
G54D63*
X160427Y185065D03*
Y205143D03*
X0Y0D02*
M02*
