G75*
G70*
%OFA0B0*%
%FSLAX24Y24*%
%IPPOS*%
%LPD*%
%AMOC8*
5,1,8,0,0,1.08239X$1,22.5*
%
%ADD10C,0.0040*%
%ADD11C,0.0079*%
%ADD12C,0.0100*%
%ADD13C,0.0060*%
%ADD14C,0.0050*%
D10*
X004920Y004385D02*
X004997Y004308D01*
X005150Y004308D01*
X005227Y004385D01*
X005227Y004461D01*
X005150Y004538D01*
X004920Y004538D01*
X004920Y004385D01*
X004920Y004538D02*
X005073Y004692D01*
X005227Y004768D01*
X005920Y004768D02*
X006227Y004768D01*
X006227Y004692D01*
X005920Y004385D01*
X005920Y004308D01*
X008108Y005260D02*
X008184Y005183D01*
X008338Y005183D01*
X008414Y005260D01*
X008414Y005567D01*
X008108Y005260D01*
X008108Y005567D01*
X008184Y005643D01*
X008338Y005643D01*
X008414Y005567D01*
X008568Y005490D02*
X008875Y005183D01*
X009028Y005183D02*
X009335Y005183D01*
X009489Y005183D02*
X009489Y005260D01*
X009796Y005567D01*
X009796Y005643D01*
X009489Y005643D01*
X009335Y005643D02*
X009028Y005643D01*
X009028Y005183D01*
X009028Y005413D02*
X009182Y005413D01*
X008875Y005490D02*
X008568Y005183D01*
X008568Y005808D02*
X008875Y006115D01*
X009028Y006038D02*
X009182Y006038D01*
X009028Y005808D02*
X009335Y005808D01*
X009489Y005885D02*
X009565Y005808D01*
X009719Y005808D01*
X009796Y005885D01*
X009796Y006038D01*
X009719Y006115D01*
X009642Y006115D01*
X009489Y006038D01*
X009489Y006268D01*
X009796Y006268D01*
X009719Y006433D02*
X009565Y006433D01*
X009489Y006510D01*
X009335Y006433D02*
X009028Y006433D01*
X009028Y006893D01*
X009335Y006893D01*
X009335Y007058D02*
X009028Y007058D01*
X009028Y007518D01*
X009335Y007518D01*
X009489Y007365D02*
X009642Y007518D01*
X009642Y007058D01*
X009489Y007058D02*
X009796Y007058D01*
X009719Y006893D02*
X009796Y006817D01*
X009796Y006740D01*
X009719Y006663D01*
X009796Y006586D01*
X009796Y006510D01*
X009719Y006433D01*
X009719Y006663D02*
X009642Y006663D01*
X009489Y006817D02*
X009565Y006893D01*
X009719Y006893D01*
X009182Y006663D02*
X009028Y006663D01*
X008875Y006740D02*
X008568Y006433D01*
X008414Y006510D02*
X008338Y006433D01*
X008184Y006433D01*
X008108Y006510D01*
X008414Y006817D01*
X008414Y006510D01*
X008338Y006268D02*
X008184Y006268D01*
X008108Y006192D01*
X008108Y005885D01*
X008414Y006192D01*
X008414Y005885D01*
X008338Y005808D01*
X008184Y005808D01*
X008108Y005885D01*
X008414Y006192D02*
X008338Y006268D01*
X008568Y006115D02*
X008875Y005808D01*
X009028Y005808D02*
X009028Y006268D01*
X009335Y006268D01*
X008875Y006433D02*
X008568Y006740D01*
X008414Y006817D02*
X008338Y006893D01*
X008184Y006893D01*
X008108Y006817D01*
X008108Y006510D01*
X008184Y007058D02*
X008108Y007135D01*
X008414Y007442D01*
X008414Y007135D01*
X008338Y007058D01*
X008184Y007058D01*
X008108Y007135D02*
X008108Y007442D01*
X008184Y007518D01*
X008338Y007518D01*
X008414Y007442D01*
X008568Y007365D02*
X008875Y007058D01*
X009028Y007288D02*
X009182Y007288D01*
X008875Y007365D02*
X008568Y007058D01*
X008733Y007683D02*
X008733Y008143D01*
X008963Y008143D01*
X009039Y008067D01*
X009039Y007913D01*
X008963Y007836D01*
X008733Y007836D01*
X008886Y007836D02*
X009039Y007683D01*
X009171Y008433D02*
X009171Y008740D01*
X009324Y008893D01*
X009478Y008740D01*
X009478Y008433D01*
X009631Y008433D02*
X009861Y008433D01*
X009938Y008510D01*
X009938Y008817D01*
X009861Y008893D01*
X009631Y008893D01*
X009631Y008433D01*
X009478Y008663D02*
X009171Y008663D01*
X008557Y008510D02*
X008480Y008433D01*
X008327Y008433D01*
X008250Y008510D01*
X008250Y008817D01*
X008327Y008893D01*
X008480Y008893D01*
X008557Y008817D01*
X008096Y008817D02*
X008096Y008740D01*
X007789Y008433D01*
X008096Y008433D01*
X008096Y008817D02*
X008020Y008893D01*
X007866Y008893D01*
X007789Y008817D01*
X007636Y008893D02*
X007483Y008893D01*
X007559Y008893D02*
X007559Y008433D01*
X007483Y008433D02*
X007636Y008433D01*
X009857Y009308D02*
X009857Y009538D01*
X009934Y009615D01*
X010087Y009615D01*
X010164Y009538D01*
X010164Y009308D01*
X010318Y009308D02*
X009857Y009308D01*
X009934Y009768D02*
X010241Y009768D01*
X010318Y009845D01*
X010318Y009999D01*
X010241Y010075D01*
X009934Y010075D01*
X009857Y009999D01*
X009857Y009845D01*
X009934Y009768D01*
X009857Y010229D02*
X010318Y010229D01*
X010164Y010382D01*
X010318Y010536D01*
X009857Y010536D01*
X009857Y010689D02*
X010318Y010689D01*
X010318Y010996D01*
X010318Y011150D02*
X009857Y011150D01*
X009857Y011380D01*
X009934Y011456D01*
X010087Y011456D01*
X010164Y011380D01*
X010164Y011150D01*
X010164Y011303D02*
X010318Y011456D01*
X010241Y012070D02*
X010318Y012147D01*
X010318Y012301D01*
X010241Y012377D01*
X010164Y012377D01*
X010087Y012301D01*
X010087Y012147D01*
X010011Y012070D01*
X009934Y012070D01*
X009857Y012147D01*
X009857Y012301D01*
X009934Y012377D01*
X009857Y012531D02*
X010318Y012531D01*
X010318Y012838D01*
X010318Y012991D02*
X010318Y013298D01*
X010318Y013452D02*
X010318Y013758D01*
X010241Y013912D02*
X010318Y013989D01*
X010318Y014142D01*
X010241Y014219D01*
X009934Y014219D02*
X009857Y014142D01*
X009857Y013989D01*
X009934Y013912D01*
X010241Y013912D01*
X010087Y013605D02*
X010087Y013452D01*
X009857Y013452D02*
X009857Y013758D01*
X009857Y013452D02*
X010318Y013452D01*
X010982Y013683D02*
X011136Y013836D01*
X010982Y013990D01*
X011443Y013990D01*
X011443Y014143D02*
X011136Y014143D01*
X010982Y014297D01*
X011136Y014450D01*
X011443Y014450D01*
X011366Y014604D02*
X011443Y014681D01*
X011443Y014834D01*
X011366Y014911D01*
X011289Y014911D01*
X011212Y014834D01*
X011212Y014681D01*
X011136Y014604D01*
X011059Y014604D01*
X010982Y014681D01*
X010982Y014834D01*
X011059Y014911D01*
X010982Y015064D02*
X010982Y015371D01*
X010982Y015218D02*
X011443Y015218D01*
X011443Y015525D02*
X011443Y015831D01*
X011443Y015985D02*
X010982Y015985D01*
X010982Y016215D01*
X011059Y016292D01*
X011212Y016292D01*
X011289Y016215D01*
X011289Y015985D01*
X011289Y016138D02*
X011443Y016292D01*
X011982Y016215D02*
X011982Y016062D01*
X012059Y015985D01*
X012136Y015985D01*
X012212Y016062D01*
X012212Y016215D01*
X012289Y016292D01*
X012366Y016292D01*
X012443Y016215D01*
X012443Y016062D01*
X012366Y015985D01*
X012443Y015831D02*
X012443Y015525D01*
X011982Y015525D01*
X011982Y015831D01*
X012212Y015678D02*
X012212Y015525D01*
X012289Y015371D02*
X011982Y015371D01*
X011982Y015064D02*
X012289Y015064D01*
X012443Y015218D01*
X012289Y015371D01*
X012212Y014911D02*
X012212Y014604D01*
X012136Y014604D02*
X011982Y014757D01*
X012136Y014911D01*
X012443Y014911D01*
X012443Y014604D02*
X012136Y014604D01*
X012443Y014450D02*
X012443Y014143D01*
X011982Y014143D01*
X012059Y013990D02*
X011982Y013913D01*
X011982Y013760D01*
X012059Y013683D01*
X012136Y013683D01*
X012212Y013760D01*
X012212Y013913D01*
X012289Y013990D01*
X012366Y013990D01*
X012443Y013913D01*
X012443Y013760D01*
X012366Y013683D01*
X012858Y013143D02*
X013011Y013143D01*
X012934Y013143D02*
X012934Y012683D01*
X012858Y012683D02*
X013011Y012683D01*
X013164Y012683D02*
X013164Y013143D01*
X013471Y012683D01*
X013471Y013143D01*
X011443Y013683D02*
X010982Y013683D01*
X011212Y014143D02*
X011212Y014450D01*
X010318Y014526D02*
X009857Y014526D01*
X009857Y014679D02*
X009857Y014372D01*
X010982Y015525D02*
X011443Y015525D01*
X011212Y015525D02*
X011212Y015678D01*
X010982Y015831D02*
X010982Y015525D01*
X011982Y016215D02*
X012059Y016292D01*
X011927Y017308D02*
X012234Y017615D01*
X012234Y017692D01*
X012157Y017768D01*
X012004Y017768D01*
X011927Y017692D01*
X011773Y017692D02*
X011466Y017385D01*
X011543Y017308D01*
X011697Y017308D01*
X011773Y017385D01*
X011773Y017692D01*
X011697Y017768D01*
X011543Y017768D01*
X011466Y017692D01*
X011466Y017385D01*
X011313Y017385D02*
X011236Y017308D01*
X011006Y017308D01*
X011006Y017768D01*
X011236Y017768D01*
X011313Y017692D01*
X011313Y017615D01*
X011236Y017538D01*
X011006Y017538D01*
X010853Y017385D02*
X010776Y017308D01*
X010622Y017308D01*
X010546Y017385D01*
X010546Y017768D01*
X010392Y017768D02*
X010392Y017308D01*
X010392Y017538D02*
X010085Y017538D01*
X009932Y017385D02*
X009855Y017308D01*
X009702Y017308D01*
X009625Y017385D01*
X009625Y017692D01*
X009702Y017768D01*
X009855Y017768D01*
X009932Y017692D01*
X010085Y017768D02*
X010085Y017308D01*
X009471Y017308D02*
X009164Y017308D01*
X009471Y017615D01*
X009471Y017692D01*
X009395Y017768D01*
X009241Y017768D01*
X009164Y017692D01*
X009011Y017768D02*
X008858Y017768D01*
X008934Y017768D02*
X008934Y017308D01*
X008858Y017308D02*
X009011Y017308D01*
X008023Y017183D02*
X007716Y017183D01*
X007716Y017643D01*
X007562Y017567D02*
X007486Y017643D01*
X007332Y017643D01*
X007255Y017567D01*
X007255Y017260D01*
X007332Y017183D01*
X007486Y017183D01*
X007562Y017260D01*
X007102Y017260D02*
X007025Y017183D01*
X006872Y017183D01*
X006795Y017260D01*
X006872Y017413D02*
X006795Y017490D01*
X006795Y017567D01*
X006872Y017643D01*
X007025Y017643D01*
X007102Y017567D01*
X007025Y017413D02*
X007102Y017336D01*
X007102Y017260D01*
X007025Y017413D02*
X006872Y017413D01*
X006872Y018183D02*
X007025Y018183D01*
X007102Y018260D01*
X007102Y018413D01*
X006948Y018413D01*
X006795Y018260D02*
X006872Y018183D01*
X006795Y018260D02*
X006795Y018567D01*
X006872Y018643D01*
X007025Y018643D01*
X007102Y018567D01*
X007255Y018643D02*
X007562Y018183D01*
X007562Y018643D01*
X007716Y018643D02*
X007946Y018643D01*
X008023Y018567D01*
X008023Y018260D01*
X007946Y018183D01*
X007716Y018183D01*
X007716Y018643D01*
X007255Y018643D02*
X007255Y018183D01*
X006227Y019058D02*
X005920Y019058D01*
X006073Y019058D02*
X006073Y019518D01*
X005920Y019365D01*
X005227Y019442D02*
X005227Y019135D01*
X005150Y019058D01*
X004997Y019058D01*
X004920Y019135D01*
X005227Y019442D01*
X005150Y019518D01*
X004997Y019518D01*
X004920Y019442D01*
X004920Y019135D01*
X006795Y016643D02*
X006795Y016336D01*
X006948Y016183D01*
X007102Y016336D01*
X007102Y016643D01*
X007255Y016567D02*
X007255Y016260D01*
X007332Y016183D01*
X007486Y016183D01*
X007562Y016260D01*
X007716Y016260D02*
X007793Y016183D01*
X007946Y016183D01*
X008023Y016260D01*
X008023Y016567D02*
X007946Y016643D01*
X007793Y016643D01*
X007716Y016567D01*
X007716Y016260D01*
X007562Y016567D02*
X007486Y016643D01*
X007332Y016643D01*
X007255Y016567D01*
X007255Y015643D02*
X007486Y015643D01*
X007562Y015567D01*
X007562Y015260D01*
X007486Y015183D01*
X007255Y015183D01*
X007255Y015643D01*
X007102Y015567D02*
X007025Y015643D01*
X006872Y015643D01*
X006795Y015567D01*
X006795Y015490D01*
X006872Y015413D01*
X007025Y015413D01*
X007102Y015336D01*
X007102Y015260D01*
X007025Y015183D01*
X006872Y015183D01*
X006795Y015260D01*
X006872Y014643D02*
X006795Y014567D01*
X006795Y014260D01*
X006872Y014183D01*
X007025Y014183D01*
X007102Y014260D01*
X007102Y014413D01*
X006948Y014413D01*
X007102Y014567D02*
X007025Y014643D01*
X006872Y014643D01*
X007255Y014643D02*
X007562Y014183D01*
X007562Y014643D01*
X007716Y014643D02*
X007946Y014643D01*
X008023Y014567D01*
X008023Y014260D01*
X007946Y014183D01*
X007716Y014183D01*
X007716Y014643D01*
X007255Y014643D02*
X007255Y014183D01*
X007006Y013143D02*
X006699Y013143D01*
X006546Y013143D02*
X006239Y013143D01*
X006239Y012683D01*
X006546Y012683D01*
X006392Y012913D02*
X006239Y012913D01*
X006085Y012836D02*
X006085Y012760D01*
X006008Y012683D01*
X005855Y012683D01*
X005778Y012760D01*
X005625Y012683D02*
X005318Y012683D01*
X005318Y013143D01*
X005625Y013143D01*
X005778Y013067D02*
X005778Y012990D01*
X005855Y012913D01*
X006008Y012913D01*
X006085Y012836D01*
X006085Y013067D02*
X006008Y013143D01*
X005855Y013143D01*
X005778Y013067D01*
X005471Y012913D02*
X005318Y012913D01*
X005164Y012913D02*
X005088Y012836D01*
X004858Y012836D01*
X005011Y012836D02*
X005164Y012683D01*
X005164Y012913D02*
X005164Y013067D01*
X005088Y013143D01*
X004858Y013143D01*
X004858Y012683D01*
X004934Y012143D02*
X004858Y012067D01*
X004858Y011990D01*
X004934Y011913D01*
X005088Y011913D01*
X005164Y011836D01*
X005164Y011760D01*
X005088Y011683D01*
X004934Y011683D01*
X004858Y011760D01*
X004934Y012143D02*
X005088Y012143D01*
X005164Y012067D01*
X005318Y012143D02*
X005548Y012143D01*
X005625Y012067D01*
X005625Y011760D01*
X005548Y011683D01*
X005318Y011683D01*
X005318Y012143D01*
X005778Y011990D02*
X005778Y011683D01*
X005778Y011913D02*
X006085Y011913D01*
X006085Y011990D02*
X006085Y011683D01*
X006085Y011990D02*
X005932Y012143D01*
X005778Y011990D01*
X005778Y011143D02*
X005778Y010683D01*
X006085Y010683D01*
X005625Y010760D02*
X005548Y010683D01*
X005395Y010683D01*
X005318Y010760D01*
X005318Y011067D01*
X005395Y011143D01*
X005548Y011143D01*
X005625Y011067D01*
X005164Y011067D02*
X005088Y011143D01*
X004934Y011143D01*
X004858Y011067D01*
X004858Y010990D01*
X004934Y010913D01*
X005088Y010913D01*
X005164Y010836D01*
X005164Y010760D01*
X005088Y010683D01*
X004934Y010683D01*
X004858Y010760D01*
X003006Y009067D02*
X002929Y009143D01*
X002776Y009143D01*
X002699Y009067D01*
X002699Y008760D01*
X002776Y008683D01*
X002929Y008683D01*
X003006Y008760D01*
X003006Y009067D01*
X002546Y009143D02*
X002546Y008683D01*
X002546Y008913D02*
X002239Y008913D01*
X002085Y008760D02*
X002008Y008683D01*
X001855Y008683D01*
X001778Y008760D01*
X001778Y009067D01*
X001855Y009143D01*
X002008Y009143D01*
X002085Y009067D01*
X002239Y009143D02*
X002239Y008683D01*
X002307Y008268D02*
X002307Y007808D01*
X002460Y007808D02*
X002153Y007808D01*
X002000Y007885D02*
X001923Y007808D01*
X001770Y007808D01*
X001693Y007885D01*
X002000Y008192D01*
X002000Y007885D01*
X002153Y008115D02*
X002307Y008268D01*
X002614Y008192D02*
X002690Y008268D01*
X002844Y008268D01*
X002921Y008192D01*
X002921Y008115D01*
X002844Y008038D01*
X002921Y007961D01*
X002921Y007885D01*
X002844Y007808D01*
X002690Y007808D01*
X002614Y007885D01*
X002767Y008038D02*
X002844Y008038D01*
X002000Y008192D02*
X001923Y008268D01*
X001770Y008268D01*
X001693Y008192D01*
X001693Y007885D01*
X001539Y007808D02*
X001233Y007808D01*
X001539Y008115D01*
X001539Y008192D01*
X001463Y008268D01*
X001309Y008268D01*
X001233Y008192D01*
X001318Y008683D02*
X001318Y008990D01*
X001471Y009143D01*
X001625Y008990D01*
X001625Y008683D01*
X001625Y008913D02*
X001318Y008913D01*
X001088Y008760D02*
X001088Y009143D01*
X001164Y009143D02*
X001011Y009143D01*
X001088Y008760D02*
X001011Y008683D01*
X000934Y008683D01*
X000858Y008760D01*
X001732Y009933D02*
X001886Y010086D01*
X001732Y010240D01*
X002193Y010240D01*
X002193Y010393D02*
X001886Y010393D01*
X001732Y010547D01*
X001886Y010700D01*
X002193Y010700D01*
X002116Y010854D02*
X002193Y010931D01*
X002193Y011084D01*
X002116Y011161D01*
X002039Y011161D01*
X001962Y011084D01*
X001962Y010931D01*
X001886Y010854D01*
X001809Y010854D01*
X001732Y010931D01*
X001732Y011084D01*
X001809Y011161D01*
X001732Y011314D02*
X001732Y011621D01*
X001732Y011468D02*
X002193Y011468D01*
X002193Y011775D02*
X001732Y011775D01*
X001732Y012081D01*
X001732Y012235D02*
X001732Y012465D01*
X001809Y012542D01*
X001962Y012542D01*
X002039Y012465D01*
X002039Y012235D01*
X002039Y012388D02*
X002193Y012542D01*
X002193Y012235D02*
X001732Y012235D01*
X002193Y012081D02*
X002193Y011775D01*
X001962Y011775D02*
X001962Y011928D01*
X001962Y010700D02*
X001962Y010393D01*
X002193Y009933D02*
X001732Y009933D01*
X001732Y013156D02*
X001732Y013309D01*
X001732Y013232D02*
X002193Y013232D01*
X002193Y013156D02*
X002193Y013309D01*
X002193Y013463D02*
X001886Y013770D01*
X001809Y013770D01*
X001732Y013693D01*
X001732Y013539D01*
X001809Y013463D01*
X002193Y013463D02*
X002193Y013770D01*
X002116Y013923D02*
X001809Y013923D01*
X001732Y014000D01*
X001732Y014153D01*
X001809Y014230D01*
X002116Y014230D02*
X002193Y014153D01*
X002193Y014000D01*
X002116Y013923D01*
X006853Y013143D02*
X006853Y012683D01*
X007716Y015183D02*
X007716Y015490D01*
X007869Y015643D01*
X008023Y015490D01*
X008023Y015183D01*
X008023Y015413D02*
X007716Y015413D01*
X009857Y012991D02*
X010318Y012991D01*
X010087Y012684D02*
X010087Y012531D01*
X009857Y012531D02*
X009857Y012838D01*
X009857Y010996D02*
X009857Y010689D01*
X010087Y010689D02*
X010087Y010843D01*
X010091Y008893D02*
X010322Y008893D01*
X010398Y008817D01*
X010398Y008510D01*
X010322Y008433D01*
X010091Y008433D01*
X010091Y008893D01*
X010552Y008893D02*
X010552Y008433D01*
X010552Y008586D02*
X010782Y008586D01*
X010859Y008663D01*
X010859Y008817D01*
X010782Y008893D01*
X010552Y008893D01*
X011012Y008893D02*
X011012Y008433D01*
X011319Y008433D01*
X011473Y008510D02*
X011549Y008433D01*
X011703Y008433D01*
X011779Y008510D01*
X011779Y008586D01*
X011703Y008663D01*
X011549Y008663D01*
X011473Y008740D01*
X011473Y008817D01*
X011549Y008893D01*
X011703Y008893D01*
X011779Y008817D01*
X011933Y008817D02*
X011933Y008740D01*
X012010Y008663D01*
X012163Y008663D01*
X012240Y008586D01*
X012240Y008510D01*
X012163Y008433D01*
X012010Y008433D01*
X011933Y008510D01*
X011933Y008817D02*
X012010Y008893D01*
X012163Y008893D01*
X012240Y008817D01*
X011319Y008893D02*
X011012Y008893D01*
X011012Y008663D02*
X011166Y008663D01*
X010859Y008433D02*
X010705Y008586D01*
X010421Y007913D02*
X010114Y007913D01*
X010486Y007518D02*
X010640Y007518D01*
X010716Y007442D01*
X010409Y007135D01*
X010486Y007058D01*
X010640Y007058D01*
X010716Y007135D01*
X010716Y007442D01*
X010870Y007365D02*
X011177Y007058D01*
X011330Y007058D02*
X011637Y007058D01*
X011637Y006893D02*
X011330Y006893D01*
X011330Y006433D01*
X011637Y006433D01*
X011791Y006433D02*
X012098Y006740D01*
X012098Y006817D01*
X012021Y006893D01*
X011867Y006893D01*
X011791Y006817D01*
X011867Y007058D02*
X011791Y007135D01*
X012098Y007442D01*
X012098Y007135D01*
X012021Y007058D01*
X011867Y007058D01*
X011791Y007135D02*
X011791Y007442D01*
X011867Y007518D01*
X012021Y007518D01*
X012098Y007442D01*
X011802Y007683D02*
X011802Y008143D01*
X011648Y007836D02*
X011802Y007683D01*
X011648Y007836D02*
X011495Y007683D01*
X011495Y008143D01*
X011637Y007518D02*
X011330Y007518D01*
X011330Y007058D01*
X011330Y007288D02*
X011484Y007288D01*
X011177Y007365D02*
X010870Y007058D01*
X010640Y006893D02*
X010716Y006817D01*
X010409Y006510D01*
X010486Y006433D01*
X010640Y006433D01*
X010716Y006510D01*
X010716Y006817D01*
X010640Y006893D02*
X010486Y006893D01*
X010409Y006817D01*
X010409Y006510D01*
X010486Y006268D02*
X010640Y006268D01*
X010716Y006192D01*
X010409Y005885D01*
X010486Y005808D01*
X010640Y005808D01*
X010716Y005885D01*
X010716Y006192D01*
X010870Y006115D02*
X011177Y005808D01*
X011330Y005808D02*
X011637Y005808D01*
X011637Y005643D02*
X011330Y005643D01*
X011330Y005183D01*
X011637Y005183D01*
X011791Y005260D02*
X011867Y005183D01*
X012021Y005183D01*
X012098Y005260D01*
X012098Y005336D01*
X012021Y005413D01*
X011791Y005413D01*
X011791Y005260D01*
X011791Y005413D02*
X011944Y005567D01*
X012098Y005643D01*
X012021Y005808D02*
X012021Y006268D01*
X011791Y006038D01*
X012098Y006038D01*
X012098Y006433D02*
X011791Y006433D01*
X011637Y006268D02*
X011330Y006268D01*
X011330Y005808D01*
X011330Y006038D02*
X011484Y006038D01*
X011177Y006115D02*
X010870Y005808D01*
X010640Y005643D02*
X010716Y005567D01*
X010409Y005260D01*
X010486Y005183D01*
X010640Y005183D01*
X010716Y005260D01*
X010716Y005567D01*
X010640Y005643D02*
X010486Y005643D01*
X010409Y005567D01*
X010409Y005260D01*
X010870Y005183D02*
X011177Y005490D01*
X011330Y005413D02*
X011484Y005413D01*
X011177Y005183D02*
X010870Y005490D01*
X010409Y005885D02*
X010409Y006192D01*
X010486Y006268D01*
X010870Y006433D02*
X011177Y006740D01*
X011330Y006663D02*
X011484Y006663D01*
X011177Y006433D02*
X010870Y006740D01*
X010409Y007135D02*
X010409Y007442D01*
X010486Y007518D01*
X013670Y004538D02*
X013900Y004768D01*
X013900Y004308D01*
X013977Y004538D02*
X013670Y004538D01*
X014670Y004538D02*
X014823Y004615D01*
X014900Y004615D01*
X014977Y004538D01*
X014977Y004385D01*
X014900Y004308D01*
X014747Y004308D01*
X014670Y004385D01*
X014670Y004538D02*
X014670Y004768D01*
X014977Y004768D01*
X016420Y007745D02*
X016420Y007976D01*
X016496Y008052D01*
X016650Y008052D01*
X016727Y007976D01*
X016727Y007745D01*
X016880Y007745D02*
X016420Y007745D01*
X016496Y008206D02*
X016803Y008206D01*
X016880Y008283D01*
X016880Y008436D01*
X016803Y008513D01*
X016496Y008513D01*
X016420Y008436D01*
X016420Y008283D01*
X016496Y008206D01*
X016420Y008666D02*
X016880Y008666D01*
X016727Y008820D01*
X016880Y008973D01*
X016420Y008973D01*
X016420Y009127D02*
X016880Y009127D01*
X016880Y009434D01*
X016880Y009587D02*
X016420Y009587D01*
X016420Y009817D01*
X016496Y009894D01*
X016650Y009894D01*
X016727Y009817D01*
X016727Y009587D01*
X016727Y009741D02*
X016880Y009894D01*
X016420Y009434D02*
X016420Y009127D01*
X016650Y009127D02*
X016650Y009280D01*
X017337Y010933D02*
X017337Y011240D01*
X017184Y011086D02*
X017491Y011086D01*
X017809Y011086D02*
X018116Y011086D01*
X017962Y010933D02*
X017962Y011240D01*
X018434Y011086D02*
X018741Y011086D01*
X018587Y010933D02*
X018587Y011240D01*
X019059Y011086D02*
X019366Y011086D01*
X019212Y010933D02*
X019212Y011240D01*
X019212Y011854D02*
X018982Y011854D01*
X018982Y012161D01*
X018971Y012314D02*
X018818Y012468D01*
X018818Y012391D01*
X018741Y012391D01*
X018741Y012468D01*
X018818Y012468D01*
X018741Y012621D02*
X018818Y012698D01*
X018818Y012851D01*
X018741Y012928D01*
X018664Y012928D01*
X018587Y012851D01*
X018587Y012775D01*
X018587Y012851D02*
X018511Y012928D01*
X018434Y012928D01*
X018357Y012851D01*
X018357Y012698D01*
X018434Y012621D01*
X018193Y012698D02*
X018193Y012851D01*
X018116Y012928D01*
X017962Y012928D01*
X017886Y012851D01*
X017886Y012775D01*
X017962Y012621D01*
X017732Y012621D01*
X017732Y012928D01*
X017568Y012851D02*
X017568Y012698D01*
X017491Y012621D01*
X017414Y012621D01*
X017337Y012698D01*
X017337Y012851D01*
X017414Y012928D01*
X017491Y012928D01*
X017568Y012851D01*
X017337Y012851D02*
X017261Y012928D01*
X017184Y012928D01*
X017107Y012851D01*
X017107Y012698D01*
X017184Y012621D01*
X017261Y012621D01*
X017337Y012698D01*
X017491Y012468D02*
X017491Y012391D01*
X017568Y012391D01*
X017568Y012468D01*
X017491Y012468D01*
X017568Y012468D02*
X017721Y012314D01*
X017809Y012161D02*
X017732Y012084D01*
X017732Y011931D01*
X017809Y011854D01*
X017568Y011854D02*
X017568Y012161D01*
X017568Y012007D02*
X017107Y012007D01*
X017261Y011854D01*
X016880Y011970D02*
X016880Y012124D01*
X016803Y012200D01*
X016496Y012200D01*
X016420Y012124D01*
X016420Y011970D01*
X016496Y011893D01*
X016803Y011893D01*
X016880Y011970D01*
X016650Y011740D02*
X016727Y011663D01*
X016727Y011433D01*
X016880Y011433D02*
X016420Y011433D01*
X016420Y011663D01*
X016496Y011740D01*
X016650Y011740D01*
X016420Y012354D02*
X016880Y012354D01*
X016727Y012507D01*
X016880Y012661D01*
X016420Y012661D01*
X016420Y012814D02*
X016880Y012814D01*
X016880Y013121D01*
X016880Y013275D02*
X016420Y013275D01*
X016420Y013505D01*
X016496Y013581D01*
X016650Y013581D01*
X016727Y013505D01*
X016727Y013275D01*
X016727Y013428D02*
X016880Y013581D01*
X017107Y013542D02*
X017414Y013542D01*
X017568Y013695D01*
X017414Y013849D01*
X017107Y013849D01*
X016803Y014195D02*
X016880Y014272D01*
X016880Y014426D01*
X016803Y014502D01*
X016496Y014502D01*
X016420Y014426D01*
X016420Y014272D01*
X016496Y014195D01*
X016803Y014195D01*
X016803Y014656D02*
X016420Y014656D01*
X016420Y014963D02*
X016803Y014963D01*
X016880Y014886D01*
X016880Y014732D01*
X016803Y014656D01*
X016420Y015116D02*
X016420Y015423D01*
X016420Y015270D02*
X016880Y015270D01*
X017732Y013849D02*
X018039Y013849D01*
X018193Y013695D01*
X018039Y013542D01*
X017732Y013542D01*
X018357Y013542D02*
X018664Y013542D01*
X018818Y013695D01*
X018664Y013849D01*
X018357Y013849D01*
X018982Y013081D02*
X019289Y013081D01*
X019443Y012928D01*
X019289Y012775D01*
X018982Y012775D01*
X019212Y012161D02*
X019366Y012161D01*
X019443Y012084D01*
X019443Y011931D01*
X019366Y011854D01*
X019212Y011854D02*
X019136Y012007D01*
X019136Y012084D01*
X019212Y012161D01*
X018818Y012084D02*
X018818Y011931D01*
X018741Y011854D01*
X018587Y012007D02*
X018587Y012084D01*
X018664Y012161D01*
X018741Y012161D01*
X018818Y012084D01*
X018587Y012084D02*
X018511Y012161D01*
X018434Y012161D01*
X018357Y012084D01*
X018357Y011931D01*
X018434Y011854D01*
X018193Y011854D02*
X018193Y012161D01*
X018346Y012314D02*
X018193Y012468D01*
X018193Y012391D01*
X018116Y012391D01*
X018116Y012468D01*
X018193Y012468D01*
X018116Y012621D02*
X018193Y012698D01*
X017886Y012161D02*
X017809Y012161D01*
X017886Y012161D02*
X018193Y011854D01*
X016650Y012814D02*
X016650Y012968D01*
X016420Y013121D02*
X016420Y012814D01*
X014085Y011143D02*
X013778Y011143D01*
X013625Y011143D02*
X013625Y010760D01*
X013548Y010683D01*
X013395Y010683D01*
X013318Y010760D01*
X013318Y011143D01*
X013164Y011067D02*
X013088Y011143D01*
X012934Y011143D01*
X012858Y011067D01*
X012858Y010760D01*
X012934Y010683D01*
X013088Y010683D01*
X013164Y010760D01*
X013164Y011067D01*
X013932Y011143D02*
X013932Y010683D01*
X019232Y009297D02*
X019693Y009297D01*
X019232Y008990D01*
X019693Y008990D01*
X019693Y008836D02*
X019693Y008683D01*
X019693Y008760D02*
X019232Y008760D01*
X019232Y008836D02*
X019232Y008683D01*
X012694Y017308D02*
X012694Y017615D01*
X012541Y017768D01*
X012387Y017615D01*
X012387Y017308D01*
X012234Y017308D02*
X011927Y017308D01*
X012387Y017538D02*
X012694Y017538D01*
X011313Y017461D02*
X011313Y017385D01*
X011313Y017461D02*
X011236Y017538D01*
X010853Y017385D02*
X010853Y017768D01*
X010960Y018058D02*
X010960Y018365D01*
X010807Y018518D01*
X010653Y018365D01*
X010653Y018058D01*
X010500Y018058D02*
X010193Y018058D01*
X010193Y018518D01*
X010039Y018518D02*
X009886Y018365D01*
X009733Y018518D01*
X009733Y018058D01*
X010039Y018058D02*
X010039Y018518D01*
X010653Y018288D02*
X010960Y018288D01*
X011114Y018288D02*
X011344Y018288D01*
X011421Y018211D01*
X011421Y018135D01*
X011344Y018058D01*
X011114Y018058D01*
X011114Y018518D01*
X011344Y018518D01*
X011421Y018442D01*
X011421Y018365D01*
X011344Y018288D01*
X013670Y019058D02*
X013977Y019365D01*
X013977Y019442D01*
X013900Y019518D01*
X013747Y019518D01*
X013670Y019442D01*
X013670Y019058D02*
X013977Y019058D01*
X014670Y019135D02*
X014747Y019058D01*
X014900Y019058D01*
X014977Y019135D01*
X014977Y019211D01*
X014900Y019288D01*
X014823Y019288D01*
X014900Y019288D02*
X014977Y019365D01*
X014977Y019442D01*
X014900Y019518D01*
X014747Y019518D01*
X014670Y019442D01*
D11*
X007088Y013288D02*
X004963Y013288D01*
D12*
X006713Y009663D02*
X006713Y009163D01*
X015463Y005663D02*
X015463Y005163D01*
X015463Y014163D02*
X015463Y014663D01*
X006713Y018163D02*
X006713Y018663D01*
D13*
X006588Y018663D02*
X006338Y018913D01*
X005838Y018913D01*
X005588Y018663D01*
X005588Y018163D01*
X005838Y017913D01*
X005588Y017663D01*
X005588Y017163D01*
X005838Y016913D01*
X005588Y016663D01*
X005588Y016163D01*
X005838Y015913D01*
X005588Y015663D01*
X005588Y015163D01*
X005838Y014913D01*
X005588Y014663D01*
X005588Y014163D01*
X005838Y013913D01*
X006338Y013913D01*
X006588Y014163D01*
X006588Y014663D01*
X006338Y014913D01*
X006588Y015163D01*
X006588Y015663D01*
X006338Y015913D01*
X006588Y016163D01*
X006588Y016663D01*
X006338Y016913D01*
X006588Y017163D01*
X006588Y017663D01*
X006338Y017913D01*
X006588Y018163D01*
X006588Y018663D01*
X005588Y018663D02*
X005588Y018163D01*
X005338Y017913D01*
X005588Y017663D01*
X005588Y017163D01*
X005338Y016913D01*
X005588Y016663D01*
X005588Y016163D01*
X005338Y015913D01*
X005588Y015663D01*
X005588Y015163D01*
X005338Y014913D01*
X005588Y014663D01*
X005588Y014163D01*
X005338Y013913D01*
X004838Y013913D01*
X004588Y014163D01*
X004588Y014663D01*
X004838Y014913D01*
X004588Y015163D01*
X004588Y015663D01*
X004838Y015913D01*
X004588Y016163D01*
X004588Y016663D01*
X004838Y016913D01*
X004588Y017163D01*
X004588Y017663D01*
X004838Y017913D01*
X004588Y018163D01*
X004588Y018663D01*
X004838Y018913D01*
X005338Y018913D01*
X005588Y018663D01*
X004338Y013413D02*
X002838Y013413D01*
X002588Y013163D01*
X002588Y012663D01*
X002838Y012413D01*
X002588Y012163D01*
X002588Y011663D01*
X002838Y011413D01*
X002588Y011163D01*
X002588Y010663D01*
X002838Y010413D01*
X004338Y010413D01*
X004588Y010663D01*
X004588Y011163D01*
X004338Y011413D01*
X004588Y011663D01*
X004588Y012163D01*
X004338Y012413D01*
X004588Y012663D01*
X004588Y013163D01*
X004338Y013413D01*
X004838Y009913D02*
X004588Y009663D01*
X004588Y009163D01*
X004838Y008913D01*
X004588Y008663D01*
X004588Y008163D01*
X004838Y007913D01*
X004588Y007663D01*
X004588Y007163D01*
X004838Y006913D01*
X004588Y006663D01*
X004588Y006163D01*
X004838Y005913D01*
X004588Y005663D01*
X004588Y005163D01*
X004838Y004913D01*
X005338Y004913D01*
X005588Y005163D01*
X005588Y005663D01*
X005838Y005913D01*
X005588Y006163D01*
X005588Y006663D01*
X005838Y006913D01*
X005588Y007163D01*
X005588Y007663D01*
X005838Y007913D01*
X005588Y008163D01*
X005588Y008663D01*
X005838Y008913D01*
X005588Y009163D01*
X005588Y009663D01*
X005838Y009913D01*
X006338Y009913D01*
X006588Y009663D01*
X006588Y009163D01*
X006338Y008913D01*
X006588Y008663D01*
X006588Y008163D01*
X006338Y007913D01*
X006588Y007663D01*
X006588Y007163D01*
X006338Y006913D01*
X006588Y006663D01*
X006588Y006163D01*
X006338Y005913D01*
X006588Y005663D01*
X006588Y005163D01*
X006338Y004913D01*
X005838Y004913D01*
X005588Y005163D01*
X005588Y005663D01*
X005338Y005913D01*
X005588Y006163D01*
X005588Y006663D01*
X005338Y006913D01*
X005588Y007163D01*
X005588Y007663D01*
X005338Y007913D01*
X005588Y008163D01*
X005588Y008663D01*
X005338Y008913D01*
X005588Y009163D01*
X005588Y009663D01*
X005338Y009913D01*
X004838Y009913D01*
X010650Y010663D02*
X010650Y011163D01*
X010900Y011413D01*
X010650Y011663D01*
X010650Y012163D01*
X010900Y012413D01*
X010650Y012663D01*
X010650Y013163D01*
X010900Y013413D01*
X012400Y013413D01*
X012650Y013163D01*
X012650Y012663D01*
X012400Y012413D01*
X012650Y012163D01*
X012650Y011663D01*
X012400Y011413D01*
X012650Y011163D01*
X012650Y010663D01*
X012400Y010413D01*
X010900Y010413D01*
X010650Y010663D01*
X013338Y009663D02*
X013338Y009163D01*
X013588Y008913D01*
X013338Y008663D01*
X013338Y008163D01*
X013588Y007913D01*
X013338Y007663D01*
X013338Y007163D01*
X013588Y006913D01*
X013338Y006663D01*
X013338Y006163D01*
X013588Y005913D01*
X013338Y005663D01*
X013338Y005163D01*
X013588Y004913D01*
X014088Y004913D01*
X014338Y005163D01*
X014588Y004913D01*
X015088Y004913D01*
X015338Y005163D01*
X015338Y005663D01*
X015088Y005913D01*
X015338Y006163D01*
X015338Y006663D01*
X015088Y006913D01*
X015338Y007163D01*
X015338Y007663D01*
X015088Y007913D01*
X015338Y008163D01*
X015338Y008663D01*
X015088Y008913D01*
X015338Y009163D01*
X015338Y009663D01*
X015088Y009913D01*
X014588Y009913D01*
X014338Y009663D01*
X014338Y009163D01*
X014588Y008913D01*
X014338Y008663D01*
X014338Y008163D01*
X014588Y007913D01*
X014338Y007663D01*
X014338Y007163D01*
X014588Y006913D01*
X014338Y006663D01*
X014338Y006163D01*
X014588Y005913D01*
X014338Y005663D01*
X014338Y005163D01*
X014338Y005663D01*
X014088Y005913D01*
X014338Y006163D01*
X014338Y006663D01*
X014088Y006913D01*
X014338Y007163D01*
X014338Y007663D01*
X014088Y007913D01*
X014338Y008163D01*
X014338Y008663D01*
X014088Y008913D01*
X014338Y009163D01*
X014338Y009663D01*
X014088Y009913D01*
X013588Y009913D01*
X013338Y009663D01*
X017088Y009788D02*
X017088Y010288D01*
X017338Y010538D01*
X018838Y010538D01*
X019088Y010288D01*
X019088Y009788D01*
X018838Y009538D01*
X019088Y009288D01*
X019088Y008788D01*
X018838Y008538D01*
X019088Y008288D01*
X019088Y007788D01*
X018838Y007538D01*
X017338Y007538D01*
X017088Y007788D01*
X017088Y008288D01*
X017338Y008538D01*
X017088Y008788D01*
X017088Y009288D01*
X017338Y009538D01*
X017088Y009788D01*
X017338Y013288D02*
X017088Y013538D01*
X017088Y014038D01*
X017338Y014288D01*
X017088Y014538D01*
X017088Y015038D01*
X017338Y015288D01*
X017088Y015538D01*
X017088Y016038D01*
X017338Y016288D01*
X018838Y016288D01*
X019088Y016038D01*
X019088Y015538D01*
X018838Y015288D01*
X019088Y015038D01*
X019088Y014538D01*
X018838Y014288D01*
X019088Y014038D01*
X019088Y013538D01*
X018838Y013288D01*
X017338Y013288D01*
X015338Y014163D02*
X015338Y014663D01*
X015088Y014913D01*
X015338Y015163D01*
X015338Y015663D01*
X015088Y015913D01*
X015338Y016163D01*
X015338Y016663D01*
X015088Y016913D01*
X015338Y017163D01*
X015338Y017663D01*
X015088Y017913D01*
X015338Y018163D01*
X015338Y018663D01*
X015088Y018913D01*
X014588Y018913D01*
X014338Y018663D01*
X014338Y018163D01*
X014588Y017913D01*
X014338Y017663D01*
X014338Y017163D01*
X014588Y016913D01*
X014338Y016663D01*
X014338Y016163D01*
X014588Y015913D01*
X014338Y015663D01*
X014338Y015163D01*
X014588Y014913D01*
X014338Y014663D01*
X014338Y014163D01*
X014588Y013913D01*
X015088Y013913D01*
X015338Y014163D01*
X014338Y014163D02*
X014338Y014663D01*
X014088Y014913D01*
X014338Y015163D01*
X014338Y015663D01*
X014088Y015913D01*
X014338Y016163D01*
X014338Y016663D01*
X014088Y016913D01*
X014338Y017163D01*
X014338Y017663D01*
X014088Y017913D01*
X014338Y018163D01*
X014338Y018663D01*
X014088Y018913D01*
X013588Y018913D01*
X013338Y018663D01*
X013338Y018163D01*
X013588Y017913D01*
X013338Y017663D01*
X013338Y017163D01*
X013588Y016913D01*
X013338Y016663D01*
X013338Y016163D01*
X013588Y015913D01*
X013338Y015663D01*
X013338Y015163D01*
X013588Y014913D01*
X013338Y014663D01*
X013338Y014163D01*
X013588Y013913D01*
X014088Y013913D01*
X014338Y014163D01*
D14*
X014212Y013913D02*
X014214Y013928D01*
X014219Y013942D01*
X014228Y013955D01*
X014239Y013965D01*
X014253Y013972D01*
X014267Y013976D01*
X014283Y013976D01*
X014297Y013972D01*
X014311Y013965D01*
X014322Y013955D01*
X014331Y013942D01*
X014336Y013928D01*
X014338Y013913D01*
X014336Y013898D01*
X014331Y013884D01*
X014322Y013871D01*
X014311Y013861D01*
X014297Y013854D01*
X014283Y013850D01*
X014267Y013850D01*
X014253Y013854D01*
X014239Y013861D01*
X014228Y013871D01*
X014219Y013884D01*
X014214Y013898D01*
X014212Y013913D01*
X015212Y013913D02*
X015214Y013928D01*
X015219Y013942D01*
X015228Y013955D01*
X015239Y013965D01*
X015253Y013972D01*
X015267Y013976D01*
X015283Y013976D01*
X015297Y013972D01*
X015311Y013965D01*
X015322Y013955D01*
X015331Y013942D01*
X015336Y013928D01*
X015338Y013913D01*
X015336Y013898D01*
X015331Y013884D01*
X015322Y013871D01*
X015311Y013861D01*
X015297Y013854D01*
X015283Y013850D01*
X015267Y013850D01*
X015253Y013854D01*
X015239Y013861D01*
X015228Y013871D01*
X015219Y013884D01*
X015214Y013898D01*
X015212Y013913D01*
X005587Y009913D02*
X005589Y009928D01*
X005594Y009942D01*
X005603Y009955D01*
X005614Y009965D01*
X005628Y009972D01*
X005642Y009976D01*
X005658Y009976D01*
X005672Y009972D01*
X005686Y009965D01*
X005697Y009955D01*
X005706Y009942D01*
X005711Y009928D01*
X005713Y009913D01*
X005711Y009898D01*
X005706Y009884D01*
X005697Y009871D01*
X005686Y009861D01*
X005672Y009854D01*
X005658Y009850D01*
X005642Y009850D01*
X005628Y009854D01*
X005614Y009861D01*
X005603Y009871D01*
X005594Y009884D01*
X005589Y009898D01*
X005587Y009913D01*
X004587Y009913D02*
X004589Y009928D01*
X004594Y009942D01*
X004603Y009955D01*
X004614Y009965D01*
X004628Y009972D01*
X004642Y009976D01*
X004658Y009976D01*
X004672Y009972D01*
X004686Y009965D01*
X004697Y009955D01*
X004706Y009942D01*
X004711Y009928D01*
X004713Y009913D01*
X004711Y009898D01*
X004706Y009884D01*
X004697Y009871D01*
X004686Y009861D01*
X004672Y009854D01*
X004658Y009850D01*
X004642Y009850D01*
X004628Y009854D01*
X004614Y009861D01*
X004603Y009871D01*
X004594Y009884D01*
X004589Y009898D01*
X004587Y009913D01*
X014212Y004913D02*
X014214Y004928D01*
X014219Y004942D01*
X014228Y004955D01*
X014239Y004965D01*
X014253Y004972D01*
X014267Y004976D01*
X014283Y004976D01*
X014297Y004972D01*
X014311Y004965D01*
X014322Y004955D01*
X014331Y004942D01*
X014336Y004928D01*
X014338Y004913D01*
X014336Y004898D01*
X014331Y004884D01*
X014322Y004871D01*
X014311Y004861D01*
X014297Y004854D01*
X014283Y004850D01*
X014267Y004850D01*
X014253Y004854D01*
X014239Y004861D01*
X014228Y004871D01*
X014219Y004884D01*
X014214Y004898D01*
X014212Y004913D01*
X015212Y004913D02*
X015214Y004928D01*
X015219Y004942D01*
X015228Y004955D01*
X015239Y004965D01*
X015253Y004972D01*
X015267Y004976D01*
X015283Y004976D01*
X015297Y004972D01*
X015311Y004965D01*
X015322Y004955D01*
X015331Y004942D01*
X015336Y004928D01*
X015338Y004913D01*
X015336Y004898D01*
X015331Y004884D01*
X015322Y004871D01*
X015311Y004861D01*
X015297Y004854D01*
X015283Y004850D01*
X015267Y004850D01*
X015253Y004854D01*
X015239Y004861D01*
X015228Y004871D01*
X015219Y004884D01*
X015214Y004898D01*
X015212Y004913D01*
X005587Y018913D02*
X005589Y018928D01*
X005594Y018942D01*
X005603Y018955D01*
X005614Y018965D01*
X005628Y018972D01*
X005642Y018976D01*
X005658Y018976D01*
X005672Y018972D01*
X005686Y018965D01*
X005697Y018955D01*
X005706Y018942D01*
X005711Y018928D01*
X005713Y018913D01*
X005711Y018898D01*
X005706Y018884D01*
X005697Y018871D01*
X005686Y018861D01*
X005672Y018854D01*
X005658Y018850D01*
X005642Y018850D01*
X005628Y018854D01*
X005614Y018861D01*
X005603Y018871D01*
X005594Y018884D01*
X005589Y018898D01*
X005587Y018913D01*
X004587Y018913D02*
X004589Y018928D01*
X004594Y018942D01*
X004603Y018955D01*
X004614Y018965D01*
X004628Y018972D01*
X004642Y018976D01*
X004658Y018976D01*
X004672Y018972D01*
X004686Y018965D01*
X004697Y018955D01*
X004706Y018942D01*
X004711Y018928D01*
X004713Y018913D01*
X004711Y018898D01*
X004706Y018884D01*
X004697Y018871D01*
X004686Y018861D01*
X004672Y018854D01*
X004658Y018850D01*
X004642Y018850D01*
X004628Y018854D01*
X004614Y018861D01*
X004603Y018871D01*
X004594Y018884D01*
X004589Y018898D01*
X004587Y018913D01*
M02*
