%
M48
M72
T01C0.0157
T02C0.0236
T03C0.0350
T04C0.1260
%
T01
X5838Y5475
X3588Y10163
X6088Y10475
X6088Y12225
X13150Y14413
X13650Y11850
X14775Y11850
X13088Y5413
T02
X5838Y14475
T03
X4088Y5413
X5088Y5413
X5088Y6413
X4088Y6413
X4088Y7413
X5088Y7413
X5088Y8413
X4088Y8413
X4088Y9413
X5088Y9413
X4088Y10913
X3088Y10913
X3088Y11913
X4088Y11913
X4088Y12913
X3088Y12913
X4088Y14413
X5088Y14413
X5088Y15413
X4088Y15413
X4088Y16413
X5088Y16413
X5088Y17413
X4088Y17413
X4088Y18413
X5088Y18413
X11150Y12913
X12150Y12913
X12150Y11913
X11150Y11913
X11150Y10913
X12150Y10913
X13838Y9413
X14838Y9413
X14838Y8413
X13838Y8413
X13838Y7413
X14838Y7413
X14838Y6413
X13838Y6413
X13838Y5413
X14838Y5413
X17588Y8038
X18588Y8038
X18588Y9038
X17588Y9038
X17588Y10038
X18588Y10038
X18588Y13788
X17588Y13788
X17588Y14788
X18588Y14788
X18588Y15788
X17588Y15788
X14838Y15413
X13838Y15413
X13838Y16413
X14838Y16413
X14838Y17413
X13838Y17413
X13838Y18413
X14838Y18413
X14838Y14413
X13838Y14413
T04
X18088Y17913
X18088Y5913
X2088Y5913
X2088Y17913
M30
