*
*
G04 PADS Layout (Build Number 2007.21.1) generated Gerber (RS-274-X) file*
G04 PC Version=2.1*
*
%IN "AVR_ISP_USB_01B_blz.pcb"*%
*
%MOIN*%
*
%FSLAX35Y35*%
*
*
*
*
G04 PC Standard Apertures*
*
*
G04 Thermal Relief Aperture macro.*
%AMTER*
1,1,$1,0,0*
1,0,$1-$2,0,0*
21,0,$3,$4,0,0,45*
21,0,$3,$4,0,0,135*
%
*
*
G04 Annular Aperture macro.*
%AMANN*
1,1,$1,0,0*
1,0,$2,0,0*
%
*
*
G04 Odd Aperture macro.*
%AMODD*
1,1,$1,0,0*
1,0,$1-0.005,0,0*
%
*
*
G04 PC Custom Aperture Macros*
*
*
*
*
*
*
G04 PC Aperture Table*
*
%ADD011C,0.06*%
%ADD012R,0.07X0.07*%
%ADD013C,0.23622*%
%ADD020C,0.012*%
%ADD022C,0.055*%
%ADD024C,0.001*%
%ADD035C,0.065*%
%ADD040R,0.06X0.06*%
%ADD041C,0.08*%
%ADD045C,0.14*%
*
*
*
*
G04 PC Circuitry*
G04 Layer Name AVR_ISP_USB_01B_blz.pcb - circuitry*
%LPD*%
*
*
G04 PC Custom Flashes*
G04 Layer Name AVR_ISP_USB_01B_blz.pcb - flashes*
%LPD*%
*
*
G04 PC Circuitry*
G04 Layer Name AVR_ISP_USB_01B_blz.pcb - circuitry*
%LPD*%
*
G54D11*
G01X00301709Y00126117D03*
X00285472Y00125655D03*
X00254673Y00210960D03*
Y00191244D03*
G54D12*
X00300683Y00195850D03*
X00310683D03*
X00300683Y00205850D03*
X00310683D03*
X00300683Y00215850D03*
X00310683D03*
X00228586Y00214103D03*
Y00204103D03*
Y00194103D03*
X00153179Y00132321D03*
G54D13*
X00130000Y00210000D03*
X00330000D03*
X00130000Y00130000D03*
X00330000D03*
G54D20*
X00216843Y00188045D02*
X00228586D01*
X00237307*
X00189904Y00217389D02*
X00215104D01*
G54D22*
X00216843Y00188045D03*
X00237307D03*
G54D24*
G54D35*
X00170000Y00175000D03*
Y00165000D03*
X00162000D03*
Y00175000D03*
X00215104Y00217389D03*
Y00200389D03*
X00189904D03*
Y00217389D03*
G54D40*
X00301709Y00135991D03*
X00285472Y00135529D03*
X00217441Y00135978D03*
Y00125978D03*
X00227441Y00135978D03*
Y00125978D03*
X00237441Y00135978D03*
Y00125978D03*
X00153179Y00122321D03*
G54D41*
X00334136Y00170000D03*
Y00158200D03*
Y00181800D03*
G54D45*
X00151000Y00146000D03*
Y00194000D03*
X00000000Y00000000D02*
M02*
