solid model
  facet normal -0.0314117 -0.999507 -0
    outer loop
      vertex -1.41279 -22.4556 0
      vertex 0 -22.5 0
      vertex 0 -22.5 3
    endloop
  endfacet
  facet normal -0.0314117 -0.999507 0
    outer loop
      vertex -1.41279 -22.4556 0
      vertex 0 -22.5 3
      vertex -1.41279 -22.4556 3
    endloop
  endfacet
  facet normal 0 0 -1
    outer loop
      vertex -10.8395 -19.7169 0
      vertex -6.15 -9.5 0
      vertex -9.58003 -20.3586 0
    endloop
  endfacet
  facet normal -0.453973 -0.891016 -0
    outer loop
      vertex -10.8395 -19.7169 0
      vertex -9.58003 -20.3586 0
      vertex -9.58003 -20.3586 3
    endloop
  endfacet
  facet normal -0.453973 -0.891016 0
    outer loop
      vertex -10.8395 -19.7169 0
      vertex -9.58003 -20.3586 3
      vertex -10.8395 -19.7169 3
    endloop
  endfacet
  facet normal 0 0 1
    outer loop
      vertex -10.8395 -19.7169 3
      vertex -9.58003 -20.3586 3
      vertex -6.15 -9.5 3
    endloop
  endfacet
  facet normal -0.453973 0.891016 0
    outer loop
      vertex -10.8395 19.7169 0
      vertex -10.8395 19.7169 3
      vertex -9.58003 20.3586 0
    endloop
  endfacet
  facet normal 0 0 -1
    outer loop
      vertex -10.8395 19.7169 0
      vertex -9.58003 20.3586 0
      vertex -6.15 -9.5 0
    endloop
  endfacet
  facet normal -0 0 1
    outer loop
      vertex -10.8395 19.7169 3
      vertex -6.15 -9.5 3
      vertex -9.58003 20.3586 3
    endloop
  endfacet
  facet normal -0.453973 0.891016 0
    outer loop
      vertex -10.8395 19.7169 3
      vertex -9.58003 20.3586 3
      vertex -9.58003 20.3586 0
    endloop
  endfacet
  facet normal -0.509044 -0.860741 -0
    outer loop
      vertex -12.0561 -18.9974 0
      vertex -10.8395 -19.7169 0
      vertex -10.8395 -19.7169 3
    endloop
  endfacet
  facet normal -0.509044 -0.860741 0
    outer loop
      vertex -12.0561 -18.9974 0
      vertex -10.8395 -19.7169 3
      vertex -12.0561 -18.9974 3
    endloop
  endfacet
  facet normal 0 0 -1
    outer loop
      vertex -12.0561 -18.9974 0
      vertex -6.15 -9.5 0
      vertex -10.8395 -19.7169 0
    endloop
  endfacet
  facet normal 0 0 1
    outer loop
      vertex -12.0561 -18.9974 3
      vertex -10.8395 -19.7169 3
      vertex -6.15 -9.5 3
    endloop
  endfacet
  facet normal 0 0 -1
    outer loop
      vertex -12.0561 18.9974 0
      vertex -10.8395 19.7169 0
      vertex -6.15 -9.5 0
    endloop
  endfacet
  facet normal -0.509044 0.860741 0
    outer loop
      vertex -12.0561 18.9974 0
      vertex -12.0561 18.9974 3
      vertex -10.8395 19.7169 0
    endloop
  endfacet
  facet normal -0.509044 0.860741 0
    outer loop
      vertex -12.0561 18.9974 3
      vertex -10.8395 19.7169 3
      vertex -10.8395 19.7169 0
    endloop
  endfacet
  facet normal -0 0 1
    outer loop
      vertex -12.0561 18.9974 3
      vertex -6.15 -9.5 3
      vertex -10.8395 19.7169 3
    endloop
  endfacet
  facet normal -0.562074 -0.827087 -0
    outer loop
      vertex -13.2252 -18.2029 0
      vertex -12.0561 -18.9974 0
      vertex -12.0561 -18.9974 3
    endloop
  endfacet
  facet normal -0.562074 -0.827087 0
    outer loop
      vertex -13.2252 -18.2029 0
      vertex -12.0561 -18.9974 3
      vertex -13.2252 -18.2029 3
    endloop
  endfacet
  facet normal 0 0 -1
    outer loop
      vertex -13.2252 -18.2029 0
      vertex -6.15 -9.5 0
      vertex -12.0561 -18.9974 0
    endloop
  endfacet
  facet normal 0 0 1
    outer loop
      vertex -13.2252 -18.2029 3
      vertex -12.0561 -18.9974 3
      vertex -6.15 -9.5 3
    endloop
  endfacet
  facet normal 0 0 -1
    outer loop
      vertex -13.2252 18.2029 0
      vertex -12.0561 18.9974 0
      vertex -6.15 -9.5 0
    endloop
  endfacet
  facet normal -0.562074 0.827087 0
    outer loop
      vertex -13.2252 18.2029 0
      vertex -13.2252 18.2029 3
      vertex -12.0561 18.9974 0
    endloop
  endfacet
  facet normal -0.562074 0.827087 0
    outer loop
      vertex -13.2252 18.2029 3
      vertex -12.0561 18.9974 3
      vertex -12.0561 18.9974 0
    endloop
  endfacet
  facet normal -0 0 1
    outer loop
      vertex -13.2252 18.2029 3
      vertex -6.15 -9.5 3
      vertex -12.0561 18.9974 3
    endloop
  endfacet
  facet normal -0.612961 -0.790114 -0
    outer loop
      vertex -14.342 -17.3365 0
      vertex -13.2252 -18.2029 0
      vertex -13.2252 -18.2029 3
    endloop
  endfacet
  facet normal -0.612961 -0.790114 0
    outer loop
      vertex -14.342 -17.3365 0
      vertex -13.2252 -18.2029 3
      vertex -14.342 -17.3365 3
    endloop
  endfacet
  facet normal 0 0 -1
    outer loop
      vertex -14.342 -17.3365 0
      vertex -6.15 -9.5 0
      vertex -13.2252 -18.2029 0
    endloop
  endfacet
  facet normal 0 0 1
    outer loop
      vertex -14.342 -17.3365 3
      vertex -13.2252 -18.2029 3
      vertex -6.15 -9.5 3
    endloop
  endfacet
  facet normal 0 0 -1
    outer loop
      vertex -14.342 17.3365 0
      vertex -13.2252 18.2029 0
      vertex -6.15 -9.5 0
    endloop
  endfacet
  facet normal -0.612961 0.790114 0
    outer loop
      vertex -14.342 17.3365 0
      vertex -14.342 17.3365 3
      vertex -13.2252 18.2029 0
    endloop
  endfacet
  facet normal -0.612961 0.790114 0
    outer loop
      vertex -14.342 17.3365 3
      vertex -13.2252 18.2029 3
      vertex -13.2252 18.2029 0
    endloop
  endfacet
  facet normal -0 0 1
    outer loop
      vertex -14.342 17.3365 3
      vertex -6.15 -9.5 3
      vertex -13.2252 18.2029 3
    endloop
  endfacet
  facet normal -0.66128 -0.750139 -0
    outer loop
      vertex -15.4023 -16.4018 0
      vertex -14.342 -17.3365 0
      vertex -14.342 -17.3365 3
    endloop
  endfacet
  facet normal -0.66128 -0.750139 0
    outer loop
      vertex -15.4023 -16.4018 0
      vertex -14.342 -17.3365 3
      vertex -15.4023 -16.4018 3
    endloop
  endfacet
  facet normal 0 0 -1
    outer loop
      vertex -15.4023 -16.4018 0
      vertex -6.15 -9.5 0
      vertex -14.342 -17.3365 0
    endloop
  endfacet
  facet normal 0 0 1
    outer loop
      vertex -15.4023 -16.4018 3
      vertex -14.342 -17.3365 3
      vertex -6.15 -9.5 3
    endloop
  endfacet
  facet normal 0 0 -1
    outer loop
      vertex -15.4023 16.4018 0
      vertex -14.342 17.3365 0
      vertex -6.15 -9.5 0
    endloop
  endfacet
  facet normal -0.66128 0.750139 0
    outer loop
      vertex -15.4023 16.4018 0
      vertex -15.4023 16.4018 3
      vertex -14.342 17.3365 0
    endloop
  endfacet
  facet normal -0.66128 0.750139 0
    outer loop
      vertex -15.4023 16.4018 3
      vertex -14.342 17.3365 3
      vertex -14.342 17.3365 0
    endloop
  endfacet
  facet normal -0 0 1
    outer loop
      vertex -15.4023 16.4018 3
      vertex -6.15 -9.5 3
      vertex -14.342 17.3365 3
    endloop
  endfacet
  facet normal -0.707107 -0.707107 0
    outer loop
      vertex -16.4018 -15.4023 0
      vertex -15.4023 -16.4018 0
      vertex -16.4018 -15.4023 3
    endloop
  endfacet
  facet normal 0 0 -1
    outer loop
      vertex -16.4018 -15.4023 0
      vertex -6.15 -9.5 0
      vertex -15.4023 -16.4018 0
    endloop
  endfacet
  facet normal -0.707107 -0.707107 0
    outer loop
      vertex -16.4018 -15.4023 3
      vertex -15.4023 -16.4018 0
      vertex -15.4023 -16.4018 3
    endloop
  endfacet
  facet normal 0 0 1
    outer loop
      vertex -16.4018 -15.4023 3
      vertex -15.4023 -16.4018 3
      vertex -6.15 -9.5 3
    endloop
  endfacet
  facet normal 0 0 -1
    outer loop
      vertex -16.4018 15.4023 0
      vertex -15.4023 16.4018 0
      vertex -6.15 -9.5 0
    endloop
  endfacet
  facet normal -0.707107 0.707107 0
    outer loop
      vertex -16.4018 15.4023 0
      vertex -15.4023 16.4018 3
      vertex -15.4023 16.4018 0
    endloop
  endfacet
  facet normal -0.707107 0.707107 0
    outer loop
      vertex -16.4018 15.4023 0
      vertex -16.4018 15.4023 3
      vertex -15.4023 16.4018 3
    endloop
  endfacet
  facet normal -0 0 1
    outer loop
      vertex -16.4018 15.4023 3
      vertex -6.15 -9.5 3
      vertex -15.4023 16.4018 3
    endloop
  endfacet
  facet normal -0.750139 -0.66128 0
    outer loop
      vertex -17.3365 -14.342 0
      vertex -16.4018 -15.4023 0
      vertex -17.3365 -14.342 3
    endloop
  endfacet
  facet normal 0 0 -1
    outer loop
      vertex -17.3365 -14.342 0
      vertex -6.15 -9.5 0
      vertex -16.4018 -15.4023 0
    endloop
  endfacet
  facet normal -0.750139 -0.66128 0
    outer loop
      vertex -17.3365 -14.342 3
      vertex -16.4018 -15.4023 0
      vertex -16.4018 -15.4023 3
    endloop
  endfacet
  facet normal 0 0 1
    outer loop
      vertex -17.3365 -14.342 3
      vertex -16.4018 -15.4023 3
      vertex -6.15 -9.5 3
    endloop
  endfacet
  facet normal 0 0 -1
    outer loop
      vertex -17.3365 14.342 0
      vertex -16.4018 15.4023 0
      vertex -6.15 -9.5 0
    endloop
  endfacet
  facet normal -0.750139 0.66128 0
    outer loop
      vertex -17.3365 14.342 0
      vertex -16.4018 15.4023 3
      vertex -16.4018 15.4023 0
    endloop
  endfacet
  facet normal -0.750139 0.66128 0
    outer loop
      vertex -17.3365 14.342 0
      vertex -17.3365 14.342 3
      vertex -16.4018 15.4023 3
    endloop
  endfacet
  facet normal -0 0 1
    outer loop
      vertex -17.3365 14.342 3
      vertex -6.15 -9.5 3
      vertex -16.4018 15.4023 3
    endloop
  endfacet
  facet normal -0.790114 -0.612961 0
    outer loop
      vertex -18.2029 -13.2252 0
      vertex -17.3365 -14.342 0
      vertex -18.2029 -13.2252 3
    endloop
  endfacet
  facet normal 0 0 -1
    outer loop
      vertex -18.2029 -13.2252 0
      vertex -6.15 -9.5 0
      vertex -17.3365 -14.342 0
    endloop
  endfacet
  facet normal -0.790114 -0.612961 0
    outer loop
      vertex -18.2029 -13.2252 3
      vertex -17.3365 -14.342 0
      vertex -17.3365 -14.342 3
    endloop
  endfacet
  facet normal 0 0 1
    outer loop
      vertex -18.2029 -13.2252 3
      vertex -17.3365 -14.342 3
      vertex -6.15 -9.5 3
    endloop
  endfacet
  facet normal 0 0 -1
    outer loop
      vertex -18.2029 13.2252 0
      vertex -17.3365 14.342 0
      vertex -6.15 -9.5 0
    endloop
  endfacet
  facet normal -0.790114 0.612961 0
    outer loop
      vertex -18.2029 13.2252 0
      vertex -17.3365 14.342 3
      vertex -17.3365 14.342 0
    endloop
  endfacet
  facet normal -0.790114 0.612961 0
    outer loop
      vertex -18.2029 13.2252 0
      vertex -18.2029 13.2252 3
      vertex -17.3365 14.342 3
    endloop
  endfacet
  facet normal -0 0 1
    outer loop
      vertex -18.2029 13.2252 3
      vertex -6.15 -9.5 3
      vertex -17.3365 14.342 3
    endloop
  endfacet
  facet normal -0.827087 -0.562074 0
    outer loop
      vertex -18.9974 -12.0561 0
      vertex -18.2029 -13.2252 0
      vertex -18.9974 -12.0561 3
    endloop
  endfacet
  facet normal 0 0 -1
    outer loop
      vertex -18.9974 -12.0561 0
      vertex -6.15 -9.5 0
      vertex -18.2029 -13.2252 0
    endloop
  endfacet
  facet normal -0.827087 -0.562074 0
    outer loop
      vertex -18.9974 -12.0561 3
      vertex -18.2029 -13.2252 0
      vertex -18.2029 -13.2252 3
    endloop
  endfacet
  facet normal 0 0 1
    outer loop
      vertex -18.9974 -12.0561 3
      vertex -18.2029 -13.2252 3
      vertex -6.15 -9.5 3
    endloop
  endfacet
  facet normal 0 0 -1
    outer loop
      vertex -18.9974 12.0561 0
      vertex -18.2029 13.2252 0
      vertex -6.15 -9.5 0
    endloop
  endfacet
  facet normal -0.827087 0.562074 0
    outer loop
      vertex -18.9974 12.0561 0
      vertex -18.2029 13.2252 3
      vertex -18.2029 13.2252 0
    endloop
  endfacet
  facet normal -0.827087 0.562074 0
    outer loop
      vertex -18.9974 12.0561 0
      vertex -18.9974 12.0561 3
      vertex -18.2029 13.2252 3
    endloop
  endfacet
  facet normal -0 0 1
    outer loop
      vertex -18.9974 12.0561 3
      vertex -6.15 -9.5 3
      vertex -18.2029 13.2252 3
    endloop
  endfacet
  facet normal -0.860741 -0.509044 0
    outer loop
      vertex -19.7169 -10.8395 0
      vertex -18.9974 -12.0561 0
      vertex -19.7169 -10.8395 3
    endloop
  endfacet
  facet normal 0 0 -1
    outer loop
      vertex -19.7169 -10.8395 0
      vertex -6.15 -9.5 0
      vertex -18.9974 -12.0561 0
    endloop
  endfacet
  facet normal -0.860741 -0.509044 0
    outer loop
      vertex -19.7169 -10.8395 3
      vertex -18.9974 -12.0561 0
      vertex -18.9974 -12.0561 3
    endloop
  endfacet
  facet normal 0 0 1
    outer loop
      vertex -19.7169 -10.8395 3
      vertex -18.9974 -12.0561 3
      vertex -6.15 -9.5 3
    endloop
  endfacet
  facet normal 0 0 -1
    outer loop
      vertex -19.7169 10.8395 0
      vertex -18.9974 12.0561 0
      vertex -6.15 -9.5 0
    endloop
  endfacet
  facet normal -0.860741 0.509044 0
    outer loop
      vertex -19.7169 10.8395 0
      vertex -18.9974 12.0561 3
      vertex -18.9974 12.0561 0
    endloop
  endfacet
  facet normal -0.860741 0.509044 0
    outer loop
      vertex -19.7169 10.8395 0
      vertex -19.7169 10.8395 3
      vertex -18.9974 12.0561 3
    endloop
  endfacet
  facet normal -0 0 1
    outer loop
      vertex -19.7169 10.8395 3
      vertex -6.15 -9.5 3
      vertex -18.9974 12.0561 3
    endloop
  endfacet
  facet normal -0.0940939 -0.995563 -0
    outer loop
      vertex -2.82 -22.3226 0
      vertex -1.41279 -22.4556 0
      vertex -1.41279 -22.4556 3
    endloop
  endfacet
  facet normal -0.0940939 -0.995563 0
    outer loop
      vertex -2.82 -22.3226 0
      vertex -1.41279 -22.4556 3
      vertex -2.82 -22.3226 3
    endloop
  endfacet
  facet normal -0.891016 -0.453973 0
    outer loop
      vertex -20.3586 -9.58003 0
      vertex -19.7169 -10.8395 0
      vertex -20.3586 -9.58003 3
    endloop
  endfacet
  facet normal 0 0 -1
    outer loop
      vertex -20.3586 -9.58003 0
      vertex -6.15 -9.5 0
      vertex -19.7169 -10.8395 0
    endloop
  endfacet
  facet normal -0.891016 -0.453973 0
    outer loop
      vertex -20.3586 -9.58003 3
      vertex -19.7169 -10.8395 0
      vertex -19.7169 -10.8395 3
    endloop
  endfacet
  facet normal 0 0 1
    outer loop
      vertex -20.3586 -9.58003 3
      vertex -19.7169 -10.8395 3
      vertex -6.15 -9.5 3
    endloop
  endfacet
  facet normal 0 0 -1
    outer loop
      vertex -20.3586 9.58003 0
      vertex -19.7169 10.8395 0
      vertex -6.15 -9.5 0
    endloop
  endfacet
  facet normal -0.891016 0.453973 0
    outer loop
      vertex -20.3586 9.58003 0
      vertex -19.7169 10.8395 3
      vertex -19.7169 10.8395 0
    endloop
  endfacet
  facet normal -0.891016 0.453973 0
    outer loop
      vertex -20.3586 9.58003 0
      vertex -20.3586 9.58003 3
      vertex -19.7169 10.8395 3
    endloop
  endfacet
  facet normal -0 0 1
    outer loop
      vertex -20.3586 9.58003 3
      vertex -6.15 -9.5 3
      vertex -19.7169 10.8395 3
    endloop
  endfacet
  facet normal -0.917745 -0.397171 0
    outer loop
      vertex -20.92 -8.2828 0
      vertex -20.3586 -9.58003 0
      vertex -20.92 -8.2828 3
    endloop
  endfacet
  facet normal 0 0 -1
    outer loop
      vertex -20.92 -8.2828 0
      vertex -6.15 -9.5 0
      vertex -20.3586 -9.58003 0
    endloop
  endfacet
  facet normal -0.917745 -0.397171 0
    outer loop
      vertex -20.92 -8.2828 3
      vertex -20.3586 -9.58003 0
      vertex -20.3586 -9.58003 3
    endloop
  endfacet
  facet normal 0 0 1
    outer loop
      vertex -20.92 -8.2828 3
      vertex -20.3586 -9.58003 3
      vertex -6.15 -9.5 3
    endloop
  endfacet
  facet normal 0 0 -1
    outer loop
      vertex -20.92 8.2828 0
      vertex -20.3586 9.58003 0
      vertex -6.15 -9.5 0
    endloop
  endfacet
  facet normal -0.917745 0.397171 0
    outer loop
      vertex -20.92 8.2828 0
      vertex -20.3586 9.58003 3
      vertex -20.3586 9.58003 0
    endloop
  endfacet
  facet normal -0.917745 0.397171 0
    outer loop
      vertex -20.92 8.2828 0
      vertex -20.92 8.2828 3
      vertex -20.3586 9.58003 3
    endloop
  endfacet
  facet normal -0 0 1
    outer loop
      vertex -20.92 8.2828 3
      vertex -6.15 -9.5 3
      vertex -20.3586 9.58003 3
    endloop
  endfacet
  facet normal -0.940881 -0.338738 0
    outer loop
      vertex -21.3988 -6.95288 0
      vertex -20.92 -8.2828 0
      vertex -21.3988 -6.95288 3
    endloop
  endfacet
  facet normal 0 0 -1
    outer loop
      vertex -21.3988 -6.95288 0
      vertex -6.15 -9.5 0
      vertex -20.92 -8.2828 0
    endloop
  endfacet
  facet normal -0.940881 -0.338738 0
    outer loop
      vertex -21.3988 -6.95288 3
      vertex -20.92 -8.2828 0
      vertex -20.92 -8.2828 3
    endloop
  endfacet
  facet normal 0 0 1
    outer loop
      vertex -21.3988 -6.95288 3
      vertex -20.92 -8.2828 3
      vertex -6.15 -9.5 3
    endloop
  endfacet
  facet normal 0 0 -1
    outer loop
      vertex -21.3988 6.95288 0
      vertex -20.92 8.2828 0
      vertex -6.15 -9.5 0
    endloop
  endfacet
  facet normal -0.940881 0.338738 0
    outer loop
      vertex -21.3988 6.95288 0
      vertex -20.92 8.2828 3
      vertex -20.92 8.2828 0
    endloop
  endfacet
  facet normal -0.940881 0.338738 0
    outer loop
      vertex -21.3988 6.95288 0
      vertex -21.3988 6.95288 3
      vertex -20.92 8.2828 3
    endloop
  endfacet
  facet normal -0 0 1
    outer loop
      vertex -21.3988 6.95288 3
      vertex -6.15 -9.5 3
      vertex -20.92 8.2828 3
    endloop
  endfacet
  facet normal -0.960303 -0.278959 0
    outer loop
      vertex -21.7931 -5.59552 0
      vertex -21.3988 -6.95288 0
      vertex -21.7931 -5.59552 3
    endloop
  endfacet
  facet normal 0 0 -1
    outer loop
      vertex -21.7931 -5.59552 0
      vertex -6.15 -9.5 0
      vertex -21.3988 -6.95288 0
    endloop
  endfacet
  facet normal -0.960303 -0.278959 0
    outer loop
      vertex -21.7931 -5.59552 3
      vertex -21.3988 -6.95288 0
      vertex -21.3988 -6.95288 3
    endloop
  endfacet
  facet normal 0 0 1
    outer loop
      vertex -21.7931 -5.59552 3
      vertex -21.3988 -6.95288 3
      vertex -6.15 -9.5 3
    endloop
  endfacet
  facet normal 0 0 -1
    outer loop
      vertex -21.7931 5.59552 0
      vertex -21.3988 6.95288 0
      vertex -6.15 -9.5 0
    endloop
  endfacet
  facet normal -0.960303 0.278959 0
    outer loop
      vertex -21.7931 5.59552 0
      vertex -21.3988 6.95288 3
      vertex -21.3988 6.95288 0
    endloop
  endfacet
  facet normal -0.960303 0.278959 0
    outer loop
      vertex -21.7931 5.59552 0
      vertex -21.7931 5.59552 3
      vertex -21.3988 6.95288 3
    endloop
  endfacet
  facet normal -0 0 1
    outer loop
      vertex -21.7931 5.59552 3
      vertex -6.15 -9.5 3
      vertex -21.3988 6.95288 3
    endloop
  endfacet
  facet normal -0.975908 -0.218183 0
    outer loop
      vertex -22.1015 -4.21608 0
      vertex -21.7931 -5.59552 0
      vertex -22.1015 -4.21608 3
    endloop
  endfacet
  facet normal 0 0 -1
    outer loop
      vertex -22.1015 -4.21608 0
      vertex -6.15 -9.5 0
      vertex -21.7931 -5.59552 0
    endloop
  endfacet
  facet normal -0.975908 -0.218183 0
    outer loop
      vertex -22.1015 -4.21608 3
      vertex -21.7931 -5.59552 0
      vertex -21.7931 -5.59552 3
    endloop
  endfacet
  facet normal 0 0 1
    outer loop
      vertex -22.1015 -4.21608 3
      vertex -21.7931 -5.59552 3
      vertex -6.15 -9.5 3
    endloop
  endfacet
  facet normal 0 0 -1
    outer loop
      vertex -22.1015 4.21608 0
      vertex -21.7931 5.59552 0
      vertex -6.15 -9.5 0
    endloop
  endfacet
  facet normal -0.975908 0.218183 0
    outer loop
      vertex -22.1015 4.21608 0
      vertex -21.7931 5.59552 3
      vertex -21.7931 5.59552 0
    endloop
  endfacet
  facet normal -0.975908 0.218183 0
    outer loop
      vertex -22.1015 4.21608 0
      vertex -22.1015 4.21608 3
      vertex -21.7931 5.59552 3
    endloop
  endfacet
  facet normal -0 0 1
    outer loop
      vertex -22.1015 4.21608 3
      vertex -6.15 -9.5 3
      vertex -21.7931 5.59552 3
    endloop
  endfacet
  facet normal -0.98769 -0.156422 0
    outer loop
      vertex -22.3226 -2.82 0
      vertex -22.1015 -4.21608 0
      vertex -22.3226 -2.82 3
    endloop
  endfacet
  facet normal 0 0 -1
    outer loop
      vertex -22.3226 -2.82 0
      vertex -6.15 -9.5 0
      vertex -22.1015 -4.21608 0
    endloop
  endfacet
  facet normal -0.98769 -0.156422 0
    outer loop
      vertex -22.3226 -2.82 3
      vertex -22.1015 -4.21608 0
      vertex -22.1015 -4.21608 3
    endloop
  endfacet
  facet normal 0 0 1
    outer loop
      vertex -22.3226 -2.82 3
      vertex -22.1015 -4.21608 3
      vertex -6.15 -9.5 3
    endloop
  endfacet
  facet normal 0 0 -1
    outer loop
      vertex -22.3226 2.82 0
      vertex -22.1015 4.21608 0
      vertex -6.15 -9.5 0
    endloop
  endfacet
  facet normal -0.98769 0.156422 0
    outer loop
      vertex -22.3226 2.82 0
      vertex -22.1015 4.21608 3
      vertex -22.1015 4.21608 0
    endloop
  endfacet
  facet normal -0.98769 0.156422 0
    outer loop
      vertex -22.3226 2.82 0
      vertex -22.3226 2.82 3
      vertex -22.1015 4.21608 3
    endloop
  endfacet
  facet normal -0 0 1
    outer loop
      vertex -22.3226 2.82 3
      vertex -6.15 -9.5 3
      vertex -22.1015 4.21608 3
    endloop
  endfacet
  facet normal -0.995563 -0.0940939 0
    outer loop
      vertex -22.4556 -1.41279 0
      vertex -22.3226 -2.82 0
      vertex -22.4556 -1.41279 3
    endloop
  endfacet
  facet normal 0 0 -1
    outer loop
      vertex -22.4556 -1.41279 0
      vertex -6.15 -9.5 0
      vertex -22.3226 -2.82 0
    endloop
  endfacet
  facet normal -0.995563 -0.0940939 0
    outer loop
      vertex -22.4556 -1.41279 3
      vertex -22.3226 -2.82 0
      vertex -22.3226 -2.82 3
    endloop
  endfacet
  facet normal 0 0 1
    outer loop
      vertex -22.4556 -1.41279 3
      vertex -22.3226 -2.82 3
      vertex -6.15 -9.5 3
    endloop
  endfacet
  facet normal 0 0 -1
    outer loop
      vertex -22.4556 1.41279 0
      vertex -22.3226 2.82 0
      vertex -6.15 -9.5 0
    endloop
  endfacet
  facet normal -0.995563 0.0940939 0
    outer loop
      vertex -22.4556 1.41279 0
      vertex -22.3226 2.82 3
      vertex -22.3226 2.82 0
    endloop
  endfacet
  facet normal -0.995563 0.0940939 0
    outer loop
      vertex -22.4556 1.41279 0
      vertex -22.4556 1.41279 3
      vertex -22.3226 2.82 3
    endloop
  endfacet
  facet normal -0 0 1
    outer loop
      vertex -22.4556 1.41279 3
      vertex -6.15 -9.5 3
      vertex -22.3226 2.82 3
    endloop
  endfacet
  facet normal -0.999507 -0.0314117 0
    outer loop
      vertex -22.5 0 0
      vertex -22.4556 -1.41279 0
      vertex -22.5 0 3
    endloop
  endfacet
  facet normal 0 0 -1
    outer loop
      vertex -22.5 0 0
      vertex -22.4556 1.41279 0
      vertex -6.15 -9.5 0
    endloop
  endfacet
  facet normal -0.999507 0.0314117 0
    outer loop
      vertex -22.5 0 0
      vertex -22.4556 1.41279 3
      vertex -22.4556 1.41279 0
    endloop
  endfacet
  facet normal -0.999507 0.0314117 0
    outer loop
      vertex -22.5 0 0
      vertex -22.5 0 3
      vertex -22.4556 1.41279 3
    endloop
  endfacet
  facet normal 0 0 -1
    outer loop
      vertex -22.5 0 0
      vertex -6.15 -9.5 0
      vertex -22.4556 -1.41279 0
    endloop
  endfacet
  facet normal -0.999507 -0.0314117 0
    outer loop
      vertex -22.5 0 3
      vertex -22.4556 -1.41279 0
      vertex -22.4556 -1.41279 3
    endloop
  endfacet
  facet normal 0 0 1
    outer loop
      vertex -22.5 0 3
      vertex -22.4556 -1.41279 3
      vertex -6.15 -9.5 3
    endloop
  endfacet
  facet normal -0 0 1
    outer loop
      vertex -22.5 0 3
      vertex -6.15 -9.5 3
      vertex -22.4556 1.41279 3
    endloop
  endfacet
  facet normal -0.156422 -0.98769 -0
    outer loop
      vertex -4.21608 -22.1015 0
      vertex -2.82 -22.3226 0
      vertex -2.82 -22.3226 3
    endloop
  endfacet
  facet normal -0.156422 -0.98769 0
    outer loop
      vertex -4.21608 -22.1015 0
      vertex -2.82 -22.3226 3
      vertex -4.21608 -22.1015 3
    endloop
  endfacet
  facet normal -0.218183 -0.975908 -0
    outer loop
      vertex -5.59552 -21.7931 0
      vertex -4.21608 -22.1015 0
      vertex -4.21608 -22.1015 3
    endloop
  endfacet
  facet normal -0.218183 -0.975908 0
    outer loop
      vertex -5.59552 -21.7931 0
      vertex -4.21608 -22.1015 3
      vertex -5.59552 -21.7931 3
    endloop
  endfacet
  facet normal 0 0 -1
    outer loop
      vertex -6.15 -9.5 0
      vertex -1.41279 -22.4556 0
      vertex -2.82 -22.3226 0
    endloop
  endfacet
  facet normal 0 0 -1
    outer loop
      vertex -6.15 -9.5 0
      vertex -2.82 -22.3226 0
      vertex -4.21608 -22.1015 0
    endloop
  endfacet
  facet normal 0 0 -1
    outer loop
      vertex -6.15 -9.5 0
      vertex -4.21608 -22.1015 0
      vertex -5.59552 -21.7931 0
    endloop
  endfacet
  facet normal 0 1 0
    outer loop
      vertex -6.15 -9.5 0
      vertex -6.15 -9.5 3
      vertex 6.15 -9.5 0
    endloop
  endfacet
  facet normal 1 0 0
    outer loop
      vertex -6.15 -9.5 0
      vertex -6.15 21.632 0
      vertex -6.15 -9.5 3
    endloop
  endfacet
  facet normal 0 0 -1
    outer loop
      vertex -6.15 -9.5 0
      vertex 0 -22.5 0
      vertex -1.41279 -22.4556 0
    endloop
  endfacet
  facet normal 0 0 -1
    outer loop
      vertex -6.15 -9.5 0
      vertex 6.15 -9.5 0
      vertex 0 -22.5 0
    endloop
  endfacet
  facet normal 0 0 1
    outer loop
      vertex -6.15 -9.5 3
      vertex -1.41279 -22.4556 3
      vertex 0 -22.5 3
    endloop
  endfacet
  facet normal 0 0 1
    outer loop
      vertex -6.15 -9.5 3
      vertex -2.82 -22.3226 3
      vertex -1.41279 -22.4556 3
    endloop
  endfacet
  facet normal 0 0 1
    outer loop
      vertex -6.15 -9.5 3
      vertex -4.21608 -22.1015 3
      vertex -2.82 -22.3226 3
    endloop
  endfacet
  facet normal 0 0 1
    outer loop
      vertex -6.15 -9.5 3
      vertex -5.59552 -21.7931 3
      vertex -4.21608 -22.1015 3
    endloop
  endfacet
  facet normal 1 -0 0
    outer loop
      vertex -6.15 -9.5 3
      vertex -6.15 21.632 0
      vertex -6.15 21.632 3
    endloop
  endfacet
  facet normal -0 0 1
    outer loop
      vertex -6.15 -9.5 3
      vertex 0 -22.5 3
      vertex 6.15 -9.5 3
    endloop
  endfacet
  facet normal 0 1 -0
    outer loop
      vertex -6.15 -9.5 3
      vertex 6.15 -9.5 3
      vertex 6.15 -9.5 0
    endloop
  endfacet
  facet normal -0.278959 -0.960303 -0
    outer loop
      vertex -6.95288 -21.3988 0
      vertex -5.59552 -21.7931 0
      vertex -5.59552 -21.7931 3
    endloop
  endfacet
  facet normal -0.278959 -0.960303 0
    outer loop
      vertex -6.95288 -21.3988 0
      vertex -5.59552 -21.7931 3
      vertex -6.95288 -21.3988 3
    endloop
  endfacet
  facet normal 0 0 -1
    outer loop
      vertex -6.95288 -21.3988 0
      vertex -6.15 -9.5 0
      vertex -5.59552 -21.7931 0
    endloop
  endfacet
  facet normal 0 0 1
    outer loop
      vertex -6.95288 -21.3988 3
      vertex -5.59552 -21.7931 3
      vertex -6.15 -9.5 3
    endloop
  endfacet
  facet normal -0.278927 0.960312 0
    outer loop
      vertex -6.95288 21.3988 0
      vertex -6.95288 21.3988 3
      vertex -6.15 21.632 0
    endloop
  endfacet
  facet normal 0 0 1
    outer loop
      vertex -6.95288 21.3988 3
      vertex -6.15 -9.5 3
      vertex -6.15 21.632 3
    endloop
  endfacet
  facet normal -0.278927 0.960312 0
    outer loop
      vertex -6.95288 21.3988 3
      vertex -6.15 21.632 3
      vertex -6.15 21.632 0
    endloop
  endfacet
  facet normal 0 0 -1
    outer loop
      vertex -8.2828 -20.92 0
      vertex -6.15 -9.5 0
      vertex -6.95288 -21.3988 0
    endloop
  endfacet
  facet normal -0.338738 -0.940881 -0
    outer loop
      vertex -8.2828 -20.92 0
      vertex -6.95288 -21.3988 0
      vertex -6.95288 -21.3988 3
    endloop
  endfacet
  facet normal -0.338738 -0.940881 0
    outer loop
      vertex -8.2828 -20.92 0
      vertex -6.95288 -21.3988 3
      vertex -8.2828 -20.92 3
    endloop
  endfacet
  facet normal 0 0 1
    outer loop
      vertex -8.2828 -20.92 3
      vertex -6.95288 -21.3988 3
      vertex -6.15 -9.5 3
    endloop
  endfacet
  facet normal 0 0 -1
    outer loop
      vertex -8.2828 20.92 0
      vertex -6.15 21.632 0
      vertex -6.15 -9.5 0
    endloop
  endfacet
  facet normal 0 0 -1
    outer loop
      vertex -8.2828 20.92 0
      vertex -6.95288 21.3988 0
      vertex -6.15 21.632 0
    endloop
  endfacet
  facet normal -0.338738 0.940881 0
    outer loop
      vertex -8.2828 20.92 0
      vertex -8.2828 20.92 3
      vertex -6.95288 21.3988 0
    endloop
  endfacet
  facet normal -0 0 1
    outer loop
      vertex -8.2828 20.92 3
      vertex -6.15 -9.5 3
      vertex -6.95288 21.3988 3
    endloop
  endfacet
  facet normal -0.338738 0.940881 0
    outer loop
      vertex -8.2828 20.92 3
      vertex -6.95288 21.3988 3
      vertex -6.95288 21.3988 0
    endloop
  endfacet
  facet normal 0 0 -1
    outer loop
      vertex -9.58003 -20.3586 0
      vertex -6.15 -9.5 0
      vertex -8.2828 -20.92 0
    endloop
  endfacet
  facet normal -0.397171 -0.917745 -0
    outer loop
      vertex -9.58003 -20.3586 0
      vertex -8.2828 -20.92 0
      vertex -8.2828 -20.92 3
    endloop
  endfacet
  facet normal -0.397171 -0.917745 0
    outer loop
      vertex -9.58003 -20.3586 0
      vertex -8.2828 -20.92 3
      vertex -9.58003 -20.3586 3
    endloop
  endfacet
  facet normal 0 0 1
    outer loop
      vertex -9.58003 -20.3586 3
      vertex -8.2828 -20.92 3
      vertex -6.15 -9.5 3
    endloop
  endfacet
  facet normal 0 0 -1
    outer loop
      vertex -9.58003 20.3586 0
      vertex -8.2828 20.92 0
      vertex -6.15 -9.5 0
    endloop
  endfacet
  facet normal -0.397171 0.917745 0
    outer loop
      vertex -9.58003 20.3586 0
      vertex -9.58003 20.3586 3
      vertex -8.2828 20.92 0
    endloop
  endfacet
  facet normal -0 0 1
    outer loop
      vertex -9.58003 20.3586 3
      vertex -6.15 -9.5 3
      vertex -8.2828 20.92 3
    endloop
  endfacet
  facet normal -0.397171 0.917745 0
    outer loop
      vertex -9.58003 20.3586 3
      vertex -8.2828 20.92 3
      vertex -8.2828 20.92 0
    endloop
  endfacet
  facet normal 0.0314117 -0.999507 0
    outer loop
      vertex 0 -22.5 0
      vertex 1.41279 -22.4556 0
      vertex 1.41279 -22.4556 3
    endloop
  endfacet
  facet normal 0.0314117 -0.999507 0
    outer loop
      vertex 0 -22.5 0
      vertex 1.41279 -22.4556 3
      vertex 0 -22.5 3
    endloop
  endfacet
  facet normal 0 0 -1
    outer loop
      vertex 0 -22.5 0
      vertex 6.15 -9.5 0
      vertex 1.41279 -22.4556 0
    endloop
  endfacet
  facet normal 0 0 1
    outer loop
      vertex 0 -22.5 3
      vertex 1.41279 -22.4556 3
      vertex 6.15 -9.5 3
    endloop
  endfacet
  facet normal 0.0940939 -0.995563 0
    outer loop
      vertex 1.41279 -22.4556 0
      vertex 2.82 -22.3226 0
      vertex 2.82 -22.3226 3
    endloop
  endfacet
  facet normal 0.0940939 -0.995563 0
    outer loop
      vertex 1.41279 -22.4556 0
      vertex 2.82 -22.3226 3
      vertex 1.41279 -22.4556 3
    endloop
  endfacet
  facet normal 0 0 -1
    outer loop
      vertex 1.41279 -22.4556 0
      vertex 6.15 -9.5 0
      vertex 2.82 -22.3226 0
    endloop
  endfacet
  facet normal 0 0 1
    outer loop
      vertex 1.41279 -22.4556 3
      vertex 2.82 -22.3226 3
      vertex 6.15 -9.5 3
    endloop
  endfacet
  facet normal 0.509044 -0.860741 0
    outer loop
      vertex 10.8395 -19.7169 0
      vertex 12.0561 -18.9974 0
      vertex 12.0561 -18.9974 3
    endloop
  endfacet
  facet normal 0.509044 -0.860741 0
    outer loop
      vertex 10.8395 -19.7169 0
      vertex 12.0561 -18.9974 3
      vertex 10.8395 -19.7169 3
    endloop
  endfacet
  facet normal 0.509044 0.860741 0
    outer loop
      vertex 10.8395 19.7169 0
      vertex 10.8395 19.7169 3
      vertex 12.0561 18.9974 0
    endloop
  endfacet
  facet normal 0.509044 0.860741 -0
    outer loop
      vertex 10.8395 19.7169 3
      vertex 12.0561 18.9974 3
      vertex 12.0561 18.9974 0
    endloop
  endfacet
  facet normal 0.562074 -0.827087 0
    outer loop
      vertex 12.0561 -18.9974 0
      vertex 13.2252 -18.2029 0
      vertex 13.2252 -18.2029 3
    endloop
  endfacet
  facet normal 0.562074 -0.827087 0
    outer loop
      vertex 12.0561 -18.9974 0
      vertex 13.2252 -18.2029 3
      vertex 12.0561 -18.9974 3
    endloop
  endfacet
  facet normal 0.562074 0.827087 0
    outer loop
      vertex 12.0561 18.9974 0
      vertex 12.0561 18.9974 3
      vertex 13.2252 18.2029 0
    endloop
  endfacet
  facet normal 0.562074 0.827087 -0
    outer loop
      vertex 12.0561 18.9974 3
      vertex 13.2252 18.2029 3
      vertex 13.2252 18.2029 0
    endloop
  endfacet
  facet normal 0.612961 -0.790114 0
    outer loop
      vertex 13.2252 -18.2029 0
      vertex 14.342 -17.3365 0
      vertex 14.342 -17.3365 3
    endloop
  endfacet
  facet normal 0.612961 -0.790114 0
    outer loop
      vertex 13.2252 -18.2029 0
      vertex 14.342 -17.3365 3
      vertex 13.2252 -18.2029 3
    endloop
  endfacet
  facet normal 0.612961 0.790114 0
    outer loop
      vertex 13.2252 18.2029 0
      vertex 13.2252 18.2029 3
      vertex 14.342 17.3365 0
    endloop
  endfacet
  facet normal 0.612961 0.790114 -0
    outer loop
      vertex 13.2252 18.2029 3
      vertex 14.342 17.3365 3
      vertex 14.342 17.3365 0
    endloop
  endfacet
  facet normal 0.66128 -0.750139 0
    outer loop
      vertex 14.342 -17.3365 0
      vertex 15.4023 -16.4018 0
      vertex 15.4023 -16.4018 3
    endloop
  endfacet
  facet normal 0.66128 -0.750139 0
    outer loop
      vertex 14.342 -17.3365 0
      vertex 15.4023 -16.4018 3
      vertex 14.342 -17.3365 3
    endloop
  endfacet
  facet normal 0.66128 0.750139 0
    outer loop
      vertex 14.342 17.3365 0
      vertex 14.342 17.3365 3
      vertex 15.4023 16.4018 0
    endloop
  endfacet
  facet normal 0.66128 0.750139 -0
    outer loop
      vertex 14.342 17.3365 3
      vertex 15.4023 16.4018 3
      vertex 15.4023 16.4018 0
    endloop
  endfacet
  facet normal 0.707107 -0.707107 0
    outer loop
      vertex 15.4023 -16.4018 0
      vertex 16.4018 -15.4023 0
      vertex 15.4023 -16.4018 3
    endloop
  endfacet
  facet normal 0.707107 -0.707107 0
    outer loop
      vertex 15.4023 -16.4018 3
      vertex 16.4018 -15.4023 0
      vertex 16.4018 -15.4023 3
    endloop
  endfacet
  facet normal 0.707107 0.707107 0
    outer loop
      vertex 15.4023 16.4018 0
      vertex 15.4023 16.4018 3
      vertex 16.4018 15.4023 3
    endloop
  endfacet
  facet normal 0.707107 0.707107 0
    outer loop
      vertex 15.4023 16.4018 0
      vertex 16.4018 15.4023 3
      vertex 16.4018 15.4023 0
    endloop
  endfacet
  facet normal 0.750139 -0.66128 0
    outer loop
      vertex 16.4018 -15.4023 0
      vertex 17.3365 -14.342 0
      vertex 16.4018 -15.4023 3
    endloop
  endfacet
  facet normal 0.750139 -0.66128 0
    outer loop
      vertex 16.4018 -15.4023 3
      vertex 17.3365 -14.342 0
      vertex 17.3365 -14.342 3
    endloop
  endfacet
  facet normal 0.750139 0.66128 0
    outer loop
      vertex 16.4018 15.4023 0
      vertex 16.4018 15.4023 3
      vertex 17.3365 14.342 3
    endloop
  endfacet
  facet normal 0.750139 0.66128 0
    outer loop
      vertex 16.4018 15.4023 0
      vertex 17.3365 14.342 3
      vertex 17.3365 14.342 0
    endloop
  endfacet
  facet normal 0.790114 -0.612961 0
    outer loop
      vertex 17.3365 -14.342 0
      vertex 18.2029 -13.2252 0
      vertex 17.3365 -14.342 3
    endloop
  endfacet
  facet normal 0.790114 -0.612961 0
    outer loop
      vertex 17.3365 -14.342 3
      vertex 18.2029 -13.2252 0
      vertex 18.2029 -13.2252 3
    endloop
  endfacet
  facet normal 0.790114 0.612961 0
    outer loop
      vertex 17.3365 14.342 0
      vertex 17.3365 14.342 3
      vertex 18.2029 13.2252 3
    endloop
  endfacet
  facet normal 0.790114 0.612961 0
    outer loop
      vertex 17.3365 14.342 0
      vertex 18.2029 13.2252 3
      vertex 18.2029 13.2252 0
    endloop
  endfacet
  facet normal 0.827087 -0.562074 0
    outer loop
      vertex 18.2029 -13.2252 0
      vertex 18.9974 -12.0561 0
      vertex 18.2029 -13.2252 3
    endloop
  endfacet
  facet normal 0.827087 -0.562074 0
    outer loop
      vertex 18.2029 -13.2252 3
      vertex 18.9974 -12.0561 0
      vertex 18.9974 -12.0561 3
    endloop
  endfacet
  facet normal 0.827087 0.562074 0
    outer loop
      vertex 18.2029 13.2252 0
      vertex 18.2029 13.2252 3
      vertex 18.9974 12.0561 3
    endloop
  endfacet
  facet normal 0.827087 0.562074 0
    outer loop
      vertex 18.2029 13.2252 0
      vertex 18.9974 12.0561 3
      vertex 18.9974 12.0561 0
    endloop
  endfacet
  facet normal 0.860741 -0.509044 0
    outer loop
      vertex 18.9974 -12.0561 0
      vertex 19.7169 -10.8395 0
      vertex 18.9974 -12.0561 3
    endloop
  endfacet
  facet normal 0.860741 -0.509044 0
    outer loop
      vertex 18.9974 -12.0561 3
      vertex 19.7169 -10.8395 0
      vertex 19.7169 -10.8395 3
    endloop
  endfacet
  facet normal 0.860741 0.509044 0
    outer loop
      vertex 18.9974 12.0561 0
      vertex 18.9974 12.0561 3
      vertex 19.7169 10.8395 3
    endloop
  endfacet
  facet normal 0.860741 0.509044 0
    outer loop
      vertex 18.9974 12.0561 0
      vertex 19.7169 10.8395 3
      vertex 19.7169 10.8395 0
    endloop
  endfacet
  facet normal 0.891016 -0.453973 0
    outer loop
      vertex 19.7169 -10.8395 0
      vertex 20.3586 -9.58003 0
      vertex 19.7169 -10.8395 3
    endloop
  endfacet
  facet normal 0.891016 -0.453973 0
    outer loop
      vertex 19.7169 -10.8395 3
      vertex 20.3586 -9.58003 0
      vertex 20.3586 -9.58003 3
    endloop
  endfacet
  facet normal 0.891016 0.453973 0
    outer loop
      vertex 19.7169 10.8395 0
      vertex 19.7169 10.8395 3
      vertex 20.3586 9.58003 3
    endloop
  endfacet
  facet normal 0.891016 0.453973 0
    outer loop
      vertex 19.7169 10.8395 0
      vertex 20.3586 9.58003 3
      vertex 20.3586 9.58003 0
    endloop
  endfacet
  facet normal 0.156422 -0.98769 0
    outer loop
      vertex 2.82 -22.3226 0
      vertex 4.21608 -22.1015 0
      vertex 4.21608 -22.1015 3
    endloop
  endfacet
  facet normal 0.156422 -0.98769 0
    outer loop
      vertex 2.82 -22.3226 0
      vertex 4.21608 -22.1015 3
      vertex 2.82 -22.3226 3
    endloop
  endfacet
  facet normal 0 0 -1
    outer loop
      vertex 2.82 -22.3226 0
      vertex 6.15 -9.5 0
      vertex 4.21608 -22.1015 0
    endloop
  endfacet
  facet normal 0 0 1
    outer loop
      vertex 2.82 -22.3226 3
      vertex 4.21608 -22.1015 3
      vertex 6.15 -9.5 3
    endloop
  endfacet
  facet normal 0.917745 -0.397171 0
    outer loop
      vertex 20.3586 -9.58003 0
      vertex 20.92 -8.2828 0
      vertex 20.3586 -9.58003 3
    endloop
  endfacet
  facet normal 0.917745 -0.397171 0
    outer loop
      vertex 20.3586 -9.58003 3
      vertex 20.92 -8.2828 0
      vertex 20.92 -8.2828 3
    endloop
  endfacet
  facet normal 0.917745 0.397171 0
    outer loop
      vertex 20.3586 9.58003 0
      vertex 20.3586 9.58003 3
      vertex 20.92 8.2828 3
    endloop
  endfacet
  facet normal 0.917745 0.397171 0
    outer loop
      vertex 20.3586 9.58003 0
      vertex 20.92 8.2828 3
      vertex 20.92 8.2828 0
    endloop
  endfacet
  facet normal 0.940881 -0.338738 0
    outer loop
      vertex 20.92 -8.2828 0
      vertex 21.3988 -6.95288 0
      vertex 20.92 -8.2828 3
    endloop
  endfacet
  facet normal 0.940881 -0.338738 0
    outer loop
      vertex 20.92 -8.2828 3
      vertex 21.3988 -6.95288 0
      vertex 21.3988 -6.95288 3
    endloop
  endfacet
  facet normal 0.940881 0.338738 0
    outer loop
      vertex 20.92 8.2828 0
      vertex 20.92 8.2828 3
      vertex 21.3988 6.95288 3
    endloop
  endfacet
  facet normal 0.940881 0.338738 0
    outer loop
      vertex 20.92 8.2828 0
      vertex 21.3988 6.95288 3
      vertex 21.3988 6.95288 0
    endloop
  endfacet
  facet normal 0.960303 -0.278959 0
    outer loop
      vertex 21.3988 -6.95288 0
      vertex 21.7931 -5.59552 0
      vertex 21.3988 -6.95288 3
    endloop
  endfacet
  facet normal 0.960303 -0.278959 0
    outer loop
      vertex 21.3988 -6.95288 3
      vertex 21.7931 -5.59552 0
      vertex 21.7931 -5.59552 3
    endloop
  endfacet
  facet normal 0.960303 0.278959 0
    outer loop
      vertex 21.3988 6.95288 0
      vertex 21.3988 6.95288 3
      vertex 21.7931 5.59552 3
    endloop
  endfacet
  facet normal 0.960303 0.278959 0
    outer loop
      vertex 21.3988 6.95288 0
      vertex 21.7931 5.59552 3
      vertex 21.7931 5.59552 0
    endloop
  endfacet
  facet normal 0.975908 -0.218183 0
    outer loop
      vertex 21.7931 -5.59552 0
      vertex 22.1015 -4.21608 0
      vertex 21.7931 -5.59552 3
    endloop
  endfacet
  facet normal 0.975908 -0.218183 0
    outer loop
      vertex 21.7931 -5.59552 3
      vertex 22.1015 -4.21608 0
      vertex 22.1015 -4.21608 3
    endloop
  endfacet
  facet normal 0.975908 0.218183 0
    outer loop
      vertex 21.7931 5.59552 0
      vertex 21.7931 5.59552 3
      vertex 22.1015 4.21608 3
    endloop
  endfacet
  facet normal 0.975908 0.218183 0
    outer loop
      vertex 21.7931 5.59552 0
      vertex 22.1015 4.21608 3
      vertex 22.1015 4.21608 0
    endloop
  endfacet
  facet normal 0.98769 -0.156422 0
    outer loop
      vertex 22.1015 -4.21608 0
      vertex 22.3226 -2.82 0
      vertex 22.1015 -4.21608 3
    endloop
  endfacet
  facet normal 0.98769 -0.156422 0
    outer loop
      vertex 22.1015 -4.21608 3
      vertex 22.3226 -2.82 0
      vertex 22.3226 -2.82 3
    endloop
  endfacet
  facet normal 0.98769 0.156422 0
    outer loop
      vertex 22.1015 4.21608 0
      vertex 22.1015 4.21608 3
      vertex 22.3226 2.82 3
    endloop
  endfacet
  facet normal 0.98769 0.156422 0
    outer loop
      vertex 22.1015 4.21608 0
      vertex 22.3226 2.82 3
      vertex 22.3226 2.82 0
    endloop
  endfacet
  facet normal 0.995563 -0.0940939 0
    outer loop
      vertex 22.3226 -2.82 0
      vertex 22.4556 -1.41279 0
      vertex 22.3226 -2.82 3
    endloop
  endfacet
  facet normal 0.995563 -0.0940939 0
    outer loop
      vertex 22.3226 -2.82 3
      vertex 22.4556 -1.41279 0
      vertex 22.4556 -1.41279 3
    endloop
  endfacet
  facet normal 0.995563 0.0940939 0
    outer loop
      vertex 22.3226 2.82 0
      vertex 22.3226 2.82 3
      vertex 22.4556 1.41279 3
    endloop
  endfacet
  facet normal 0.995563 0.0940939 0
    outer loop
      vertex 22.3226 2.82 0
      vertex 22.4556 1.41279 3
      vertex 22.4556 1.41279 0
    endloop
  endfacet
  facet normal 0.999507 -0.0314117 0
    outer loop
      vertex 22.4556 -1.41279 0
      vertex 22.5 0 0
      vertex 22.4556 -1.41279 3
    endloop
  endfacet
  facet normal 0.999507 -0.0314117 0
    outer loop
      vertex 22.4556 -1.41279 3
      vertex 22.5 0 0
      vertex 22.5 0 3
    endloop
  endfacet
  facet normal 0.999507 0.0314117 0
    outer loop
      vertex 22.4556 1.41279 0
      vertex 22.4556 1.41279 3
      vertex 22.5 0 3
    endloop
  endfacet
  facet normal 0.999507 0.0314117 0
    outer loop
      vertex 22.4556 1.41279 0
      vertex 22.5 0 3
      vertex 22.5 0 0
    endloop
  endfacet
  facet normal 0.218183 -0.975908 0
    outer loop
      vertex 4.21608 -22.1015 0
      vertex 5.59552 -21.7931 0
      vertex 5.59552 -21.7931 3
    endloop
  endfacet
  facet normal 0.218183 -0.975908 0
    outer loop
      vertex 4.21608 -22.1015 0
      vertex 5.59552 -21.7931 3
      vertex 4.21608 -22.1015 3
    endloop
  endfacet
  facet normal 0 0 -1
    outer loop
      vertex 4.21608 -22.1015 0
      vertex 6.15 -9.5 0
      vertex 5.59552 -21.7931 0
    endloop
  endfacet
  facet normal 0 0 1
    outer loop
      vertex 4.21608 -22.1015 3
      vertex 5.59552 -21.7931 3
      vertex 6.15 -9.5 3
    endloop
  endfacet
  facet normal 0 0 -1
    outer loop
      vertex 5.59552 -21.7931 0
      vertex 6.15 -9.5 0
      vertex 6.95288 -21.3988 0
    endloop
  endfacet
  facet normal 0.278959 -0.960303 0
    outer loop
      vertex 5.59552 -21.7931 0
      vertex 6.95288 -21.3988 0
      vertex 6.95288 -21.3988 3
    endloop
  endfacet
  facet normal 0.278959 -0.960303 0
    outer loop
      vertex 5.59552 -21.7931 0
      vertex 6.95288 -21.3988 3
      vertex 5.59552 -21.7931 3
    endloop
  endfacet
  facet normal 0 0 1
    outer loop
      vertex 5.59552 -21.7931 3
      vertex 6.95288 -21.3988 3
      vertex 6.15 -9.5 3
    endloop
  endfacet
  facet normal 0 0 -1
    outer loop
      vertex 6.15 -9.5 0
      vertex 10.8395 -19.7169 0
      vertex 9.58003 -20.3586 0
    endloop
  endfacet
  facet normal -0 0 -1
    outer loop
      vertex 6.15 -9.5 0
      vertex 10.8395 19.7169 0
      vertex 12.0561 18.9974 0
    endloop
  endfacet
  facet normal 0 0 -1
    outer loop
      vertex 6.15 -9.5 0
      vertex 12.0561 -18.9974 0
      vertex 10.8395 -19.7169 0
    endloop
  endfacet
  facet normal -0 0 -1
    outer loop
      vertex 6.15 -9.5 0
      vertex 12.0561 18.9974 0
      vertex 13.2252 18.2029 0
    endloop
  endfacet
  facet normal 0 0 -1
    outer loop
      vertex 6.15 -9.5 0
      vertex 13.2252 -18.2029 0
      vertex 12.0561 -18.9974 0
    endloop
  endfacet
  facet normal -0 0 -1
    outer loop
      vertex 6.15 -9.5 0
      vertex 13.2252 18.2029 0
      vertex 14.342 17.3365 0
    endloop
  endfacet
  facet normal 0 0 -1
    outer loop
      vertex 6.15 -9.5 0
      vertex 14.342 -17.3365 0
      vertex 13.2252 -18.2029 0
    endloop
  endfacet
  facet normal -0 0 -1
    outer loop
      vertex 6.15 -9.5 0
      vertex 14.342 17.3365 0
      vertex 15.4023 16.4018 0
    endloop
  endfacet
  facet normal 0 0 -1
    outer loop
      vertex 6.15 -9.5 0
      vertex 15.4023 -16.4018 0
      vertex 14.342 -17.3365 0
    endloop
  endfacet
  facet normal -0 0 -1
    outer loop
      vertex 6.15 -9.5 0
      vertex 15.4023 16.4018 0
      vertex 16.4018 15.4023 0
    endloop
  endfacet
  facet normal 0 0 -1
    outer loop
      vertex 6.15 -9.5 0
      vertex 16.4018 -15.4023 0
      vertex 15.4023 -16.4018 0
    endloop
  endfacet
  facet normal -0 0 -1
    outer loop
      vertex 6.15 -9.5 0
      vertex 16.4018 15.4023 0
      vertex 17.3365 14.342 0
    endloop
  endfacet
  facet normal 0 0 -1
    outer loop
      vertex 6.15 -9.5 0
      vertex 17.3365 -14.342 0
      vertex 16.4018 -15.4023 0
    endloop
  endfacet
  facet normal -0 0 -1
    outer loop
      vertex 6.15 -9.5 0
      vertex 17.3365 14.342 0
      vertex 18.2029 13.2252 0
    endloop
  endfacet
  facet normal 0 0 -1
    outer loop
      vertex 6.15 -9.5 0
      vertex 18.2029 -13.2252 0
      vertex 17.3365 -14.342 0
    endloop
  endfacet
  facet normal -0 0 -1
    outer loop
      vertex 6.15 -9.5 0
      vertex 18.2029 13.2252 0
      vertex 18.9974 12.0561 0
    endloop
  endfacet
  facet normal 0 0 -1
    outer loop
      vertex 6.15 -9.5 0
      vertex 18.9974 -12.0561 0
      vertex 18.2029 -13.2252 0
    endloop
  endfacet
  facet normal -0 0 -1
    outer loop
      vertex 6.15 -9.5 0
      vertex 18.9974 12.0561 0
      vertex 19.7169 10.8395 0
    endloop
  endfacet
  facet normal 0 0 -1
    outer loop
      vertex 6.15 -9.5 0
      vertex 19.7169 -10.8395 0
      vertex 18.9974 -12.0561 0
    endloop
  endfacet
  facet normal -0 0 -1
    outer loop
      vertex 6.15 -9.5 0
      vertex 19.7169 10.8395 0
      vertex 20.3586 9.58003 0
    endloop
  endfacet
  facet normal 0 0 -1
    outer loop
      vertex 6.15 -9.5 0
      vertex 20.3586 -9.58003 0
      vertex 19.7169 -10.8395 0
    endloop
  endfacet
  facet normal -0 0 -1
    outer loop
      vertex 6.15 -9.5 0
      vertex 20.3586 9.58003 0
      vertex 20.92 8.2828 0
    endloop
  endfacet
  facet normal 0 0 -1
    outer loop
      vertex 6.15 -9.5 0
      vertex 20.92 -8.2828 0
      vertex 20.3586 -9.58003 0
    endloop
  endfacet
  facet normal -0 0 -1
    outer loop
      vertex 6.15 -9.5 0
      vertex 20.92 8.2828 0
      vertex 21.3988 6.95288 0
    endloop
  endfacet
  facet normal 0 0 -1
    outer loop
      vertex 6.15 -9.5 0
      vertex 21.3988 -6.95288 0
      vertex 20.92 -8.2828 0
    endloop
  endfacet
  facet normal -0 0 -1
    outer loop
      vertex 6.15 -9.5 0
      vertex 21.3988 6.95288 0
      vertex 21.7931 5.59552 0
    endloop
  endfacet
  facet normal 0 0 -1
    outer loop
      vertex 6.15 -9.5 0
      vertex 21.7931 -5.59552 0
      vertex 21.3988 -6.95288 0
    endloop
  endfacet
  facet normal -0 0 -1
    outer loop
      vertex 6.15 -9.5 0
      vertex 21.7931 5.59552 0
      vertex 22.1015 4.21608 0
    endloop
  endfacet
  facet normal 0 0 -1
    outer loop
      vertex 6.15 -9.5 0
      vertex 22.1015 -4.21608 0
      vertex 21.7931 -5.59552 0
    endloop
  endfacet
  facet normal -0 0 -1
    outer loop
      vertex 6.15 -9.5 0
      vertex 22.1015 4.21608 0
      vertex 22.3226 2.82 0
    endloop
  endfacet
  facet normal 0 0 -1
    outer loop
      vertex 6.15 -9.5 0
      vertex 22.3226 -2.82 0
      vertex 22.1015 -4.21608 0
    endloop
  endfacet
  facet normal -0 0 -1
    outer loop
      vertex 6.15 -9.5 0
      vertex 22.3226 2.82 0
      vertex 22.4556 1.41279 0
    endloop
  endfacet
  facet normal 0 0 -1
    outer loop
      vertex 6.15 -9.5 0
      vertex 22.4556 -1.41279 0
      vertex 22.3226 -2.82 0
    endloop
  endfacet
  facet normal -0 0 -1
    outer loop
      vertex 6.15 -9.5 0
      vertex 22.4556 1.41279 0
      vertex 22.5 0 0
    endloop
  endfacet
  facet normal 0 0 -1
    outer loop
      vertex 6.15 -9.5 0
      vertex 22.5 0 0
      vertex 22.4556 -1.41279 0
    endloop
  endfacet
  facet normal -1 -0 0
    outer loop
      vertex 6.15 -9.5 0
      vertex 6.15 -9.5 3
      vertex 6.15 21.632 3
    endloop
  endfacet
  facet normal -0 0 -1
    outer loop
      vertex 6.15 -9.5 0
      vertex 6.15 21.632 0
      vertex 6.95288 21.3988 0
    endloop
  endfacet
  facet normal -1 0 0
    outer loop
      vertex 6.15 -9.5 0
      vertex 6.15 21.632 3
      vertex 6.15 21.632 0
    endloop
  endfacet
  facet normal -0 0 -1
    outer loop
      vertex 6.15 -9.5 0
      vertex 6.95288 21.3988 0
      vertex 8.2828 20.92 0
    endloop
  endfacet
  facet normal 0 0 -1
    outer loop
      vertex 6.15 -9.5 0
      vertex 8.2828 -20.92 0
      vertex 6.95288 -21.3988 0
    endloop
  endfacet
  facet normal -0 0 -1
    outer loop
      vertex 6.15 -9.5 0
      vertex 8.2828 20.92 0
      vertex 9.58003 20.3586 0
    endloop
  endfacet
  facet normal 0 0 -1
    outer loop
      vertex 6.15 -9.5 0
      vertex 9.58003 -20.3586 0
      vertex 8.2828 -20.92 0
    endloop
  endfacet
  facet normal -0 0 -1
    outer loop
      vertex 6.15 -9.5 0
      vertex 9.58003 20.3586 0
      vertex 10.8395 19.7169 0
    endloop
  endfacet
  facet normal 0 0 1
    outer loop
      vertex 6.15 -9.5 3
      vertex 10.8395 -19.7169 3
      vertex 12.0561 -18.9974 3
    endloop
  endfacet
  facet normal 0 0 1
    outer loop
      vertex 6.15 -9.5 3
      vertex 10.8395 19.7169 3
      vertex 9.58003 20.3586 3
    endloop
  endfacet
  facet normal 0 0 1
    outer loop
      vertex 6.15 -9.5 3
      vertex 12.0561 -18.9974 3
      vertex 13.2252 -18.2029 3
    endloop
  endfacet
  facet normal 0 0 1
    outer loop
      vertex 6.15 -9.5 3
      vertex 12.0561 18.9974 3
      vertex 10.8395 19.7169 3
    endloop
  endfacet
  facet normal 0 0 1
    outer loop
      vertex 6.15 -9.5 3
      vertex 13.2252 -18.2029 3
      vertex 14.342 -17.3365 3
    endloop
  endfacet
  facet normal 0 0 1
    outer loop
      vertex 6.15 -9.5 3
      vertex 13.2252 18.2029 3
      vertex 12.0561 18.9974 3
    endloop
  endfacet
  facet normal 0 0 1
    outer loop
      vertex 6.15 -9.5 3
      vertex 14.342 -17.3365 3
      vertex 15.4023 -16.4018 3
    endloop
  endfacet
  facet normal 0 0 1
    outer loop
      vertex 6.15 -9.5 3
      vertex 14.342 17.3365 3
      vertex 13.2252 18.2029 3
    endloop
  endfacet
  facet normal 0 0 1
    outer loop
      vertex 6.15 -9.5 3
      vertex 15.4023 -16.4018 3
      vertex 16.4018 -15.4023 3
    endloop
  endfacet
  facet normal 0 0 1
    outer loop
      vertex 6.15 -9.5 3
      vertex 15.4023 16.4018 3
      vertex 14.342 17.3365 3
    endloop
  endfacet
  facet normal 0 0 1
    outer loop
      vertex 6.15 -9.5 3
      vertex 16.4018 -15.4023 3
      vertex 17.3365 -14.342 3
    endloop
  endfacet
  facet normal 0 0 1
    outer loop
      vertex 6.15 -9.5 3
      vertex 16.4018 15.4023 3
      vertex 15.4023 16.4018 3
    endloop
  endfacet
  facet normal 0 0 1
    outer loop
      vertex 6.15 -9.5 3
      vertex 17.3365 -14.342 3
      vertex 18.2029 -13.2252 3
    endloop
  endfacet
  facet normal 0 0 1
    outer loop
      vertex 6.15 -9.5 3
      vertex 17.3365 14.342 3
      vertex 16.4018 15.4023 3
    endloop
  endfacet
  facet normal 0 0 1
    outer loop
      vertex 6.15 -9.5 3
      vertex 18.2029 -13.2252 3
      vertex 18.9974 -12.0561 3
    endloop
  endfacet
  facet normal 0 0 1
    outer loop
      vertex 6.15 -9.5 3
      vertex 18.2029 13.2252 3
      vertex 17.3365 14.342 3
    endloop
  endfacet
  facet normal 0 0 1
    outer loop
      vertex 6.15 -9.5 3
      vertex 18.9974 -12.0561 3
      vertex 19.7169 -10.8395 3
    endloop
  endfacet
  facet normal 0 0 1
    outer loop
      vertex 6.15 -9.5 3
      vertex 18.9974 12.0561 3
      vertex 18.2029 13.2252 3
    endloop
  endfacet
  facet normal 0 0 1
    outer loop
      vertex 6.15 -9.5 3
      vertex 19.7169 -10.8395 3
      vertex 20.3586 -9.58003 3
    endloop
  endfacet
  facet normal 0 0 1
    outer loop
      vertex 6.15 -9.5 3
      vertex 19.7169 10.8395 3
      vertex 18.9974 12.0561 3
    endloop
  endfacet
  facet normal 0 0 1
    outer loop
      vertex 6.15 -9.5 3
      vertex 20.3586 -9.58003 3
      vertex 20.92 -8.2828 3
    endloop
  endfacet
  facet normal 0 0 1
    outer loop
      vertex 6.15 -9.5 3
      vertex 20.3586 9.58003 3
      vertex 19.7169 10.8395 3
    endloop
  endfacet
  facet normal 0 0 1
    outer loop
      vertex 6.15 -9.5 3
      vertex 20.92 -8.2828 3
      vertex 21.3988 -6.95288 3
    endloop
  endfacet
  facet normal 0 0 1
    outer loop
      vertex 6.15 -9.5 3
      vertex 20.92 8.2828 3
      vertex 20.3586 9.58003 3
    endloop
  endfacet
  facet normal 0 0 1
    outer loop
      vertex 6.15 -9.5 3
      vertex 21.3988 -6.95288 3
      vertex 21.7931 -5.59552 3
    endloop
  endfacet
  facet normal 0 0 1
    outer loop
      vertex 6.15 -9.5 3
      vertex 21.3988 6.95288 3
      vertex 20.92 8.2828 3
    endloop
  endfacet
  facet normal 0 0 1
    outer loop
      vertex 6.15 -9.5 3
      vertex 21.7931 -5.59552 3
      vertex 22.1015 -4.21608 3
    endloop
  endfacet
  facet normal 0 0 1
    outer loop
      vertex 6.15 -9.5 3
      vertex 21.7931 5.59552 3
      vertex 21.3988 6.95288 3
    endloop
  endfacet
  facet normal 0 0 1
    outer loop
      vertex 6.15 -9.5 3
      vertex 22.1015 -4.21608 3
      vertex 22.3226 -2.82 3
    endloop
  endfacet
  facet normal 0 0 1
    outer loop
      vertex 6.15 -9.5 3
      vertex 22.1015 4.21608 3
      vertex 21.7931 5.59552 3
    endloop
  endfacet
  facet normal 0 0 1
    outer loop
      vertex 6.15 -9.5 3
      vertex 22.3226 -2.82 3
      vertex 22.4556 -1.41279 3
    endloop
  endfacet
  facet normal 0 0 1
    outer loop
      vertex 6.15 -9.5 3
      vertex 22.3226 2.82 3
      vertex 22.1015 4.21608 3
    endloop
  endfacet
  facet normal 0 0 1
    outer loop
      vertex 6.15 -9.5 3
      vertex 22.4556 -1.41279 3
      vertex 22.5 0 3
    endloop
  endfacet
  facet normal 0 0 1
    outer loop
      vertex 6.15 -9.5 3
      vertex 22.4556 1.41279 3
      vertex 22.3226 2.82 3
    endloop
  endfacet
  facet normal 0 0 1
    outer loop
      vertex 6.15 -9.5 3
      vertex 22.5 0 3
      vertex 22.4556 1.41279 3
    endloop
  endfacet
  facet normal 0 0 1
    outer loop
      vertex 6.15 -9.5 3
      vertex 6.95288 -21.3988 3
      vertex 8.2828 -20.92 3
    endloop
  endfacet
  facet normal 0 0 1
    outer loop
      vertex 6.15 -9.5 3
      vertex 6.95288 21.3988 3
      vertex 6.15 21.632 3
    endloop
  endfacet
  facet normal 0 0 1
    outer loop
      vertex 6.15 -9.5 3
      vertex 8.2828 -20.92 3
      vertex 9.58003 -20.3586 3
    endloop
  endfacet
  facet normal 0 0 1
    outer loop
      vertex 6.15 -9.5 3
      vertex 8.2828 20.92 3
      vertex 6.95288 21.3988 3
    endloop
  endfacet
  facet normal 0 0 1
    outer loop
      vertex 6.15 -9.5 3
      vertex 9.58003 -20.3586 3
      vertex 10.8395 -19.7169 3
    endloop
  endfacet
  facet normal 0 0 1
    outer loop
      vertex 6.15 -9.5 3
      vertex 9.58003 20.3586 3
      vertex 8.2828 20.92 3
    endloop
  endfacet
  facet normal 0.278927 0.960312 0
    outer loop
      vertex 6.15 21.632 0
      vertex 6.15 21.632 3
      vertex 6.95288 21.3988 0
    endloop
  endfacet
  facet normal 0.278927 0.960312 -0
    outer loop
      vertex 6.15 21.632 3
      vertex 6.95288 21.3988 3
      vertex 6.95288 21.3988 0
    endloop
  endfacet
  facet normal 0.338738 -0.940881 0
    outer loop
      vertex 6.95288 -21.3988 0
      vertex 8.2828 -20.92 0
      vertex 8.2828 -20.92 3
    endloop
  endfacet
  facet normal 0.338738 -0.940881 0
    outer loop
      vertex 6.95288 -21.3988 0
      vertex 8.2828 -20.92 3
      vertex 6.95288 -21.3988 3
    endloop
  endfacet
  facet normal 0.338738 0.940881 0
    outer loop
      vertex 6.95288 21.3988 0
      vertex 6.95288 21.3988 3
      vertex 8.2828 20.92 0
    endloop
  endfacet
  facet normal 0.338738 0.940881 -0
    outer loop
      vertex 6.95288 21.3988 3
      vertex 8.2828 20.92 3
      vertex 8.2828 20.92 0
    endloop
  endfacet
  facet normal 0.397171 -0.917745 0
    outer loop
      vertex 8.2828 -20.92 0
      vertex 9.58003 -20.3586 0
      vertex 9.58003 -20.3586 3
    endloop
  endfacet
  facet normal 0.397171 -0.917745 0
    outer loop
      vertex 8.2828 -20.92 0
      vertex 9.58003 -20.3586 3
      vertex 8.2828 -20.92 3
    endloop
  endfacet
  facet normal 0.397171 0.917745 0
    outer loop
      vertex 8.2828 20.92 0
      vertex 8.2828 20.92 3
      vertex 9.58003 20.3586 0
    endloop
  endfacet
  facet normal 0.397171 0.917745 -0
    outer loop
      vertex 8.2828 20.92 3
      vertex 9.58003 20.3586 3
      vertex 9.58003 20.3586 0
    endloop
  endfacet
  facet normal 0.453973 -0.891016 0
    outer loop
      vertex 9.58003 -20.3586 0
      vertex 10.8395 -19.7169 0
      vertex 10.8395 -19.7169 3
    endloop
  endfacet
  facet normal 0.453973 -0.891016 0
    outer loop
      vertex 9.58003 -20.3586 0
      vertex 10.8395 -19.7169 3
      vertex 9.58003 -20.3586 3
    endloop
  endfacet
  facet normal 0.453973 0.891016 0
    outer loop
      vertex 9.58003 20.3586 0
      vertex 9.58003 20.3586 3
      vertex 10.8395 19.7169 0
    endloop
  endfacet
  facet normal 0.453973 0.891016 -0
    outer loop
      vertex 9.58003 20.3586 3
      vertex 10.8395 19.7169 3
      vertex 10.8395 19.7169 0
    endloop
  endfacet
endsolid model
