solid model
  facet normal 0 0 -1
    outer loop
      vertex -37.5 -74.7946 0
      vertex -37.5 74.7946 0
      vertex 75 75 0
    endloop
  endfacet
  facet normal 0 0 -1
    outer loop
      vertex -37.5 -74.7946 0
      vertex 75 75 0
      vertex 75 -75 0
    endloop
  endfacet
  facet normal -0 0 1
    outer loop
      vertex -37.5 -74.7946 0.799999
      vertex 75 -75 0.799999
      vertex -37.5 74.7946 0.799999
    endloop
  endfacet
  facet normal 0 0 -1
    outer loop
      vertex -37.5 -75 0
      vertex -37.5 -74.7946 0
      vertex 75 -75 0
    endloop
  endfacet
  facet normal -1 0 0
    outer loop
      vertex -37.5 -75 0
      vertex -37.5 -74.7946 0.799999
      vertex -37.5 -74.7946 0
    endloop
  endfacet
  facet normal -1 -0 0
    outer loop
      vertex -37.5 -75 0
      vertex -37.5 -75 0.799999
      vertex -37.5 -74.7946 0.799999
    endloop
  endfacet
  facet normal 0 -1 -0
    outer loop
      vertex -37.5 -75 0
      vertex 75 -75 0
      vertex 75 -75 0.799999
    endloop
  endfacet
  facet normal 0 -1 0
    outer loop
      vertex -37.5 -75 0
      vertex 75 -75 0.799999
      vertex -37.5 -75 0.799999
    endloop
  endfacet
  facet normal 0 0 1
    outer loop
      vertex -37.5 -75 0.799999
      vertex 75 -75 0.799999
      vertex -37.5 -74.7946 0.799999
    endloop
  endfacet
  facet normal -1 -0 0
    outer loop
      vertex -37.5 74.7946 0
      vertex -37.5 74.7946 0.799999
      vertex -37.5 75 0.799999
    endloop
  endfacet
  facet normal -0 0 -1
    outer loop
      vertex -37.5 74.7946 0
      vertex -37.5 75 0
      vertex 75 75 0
    endloop
  endfacet
  facet normal -1 0 0
    outer loop
      vertex -37.5 74.7946 0
      vertex -37.5 75 0.799999
      vertex -37.5 75 0
    endloop
  endfacet
  facet normal 0 0 1
    outer loop
      vertex -37.5 74.7946 0.799999
      vertex 75 -75 0.799999
      vertex 75 75 0.799999
    endloop
  endfacet
  facet normal 0 0 1
    outer loop
      vertex -37.5 74.7946 0.799999
      vertex 75 75 0.799999
      vertex -37.5 75 0.799999
    endloop
  endfacet
  facet normal 0 1 0
    outer loop
      vertex -37.5 75 0
      vertex -37.5 75 0.799999
      vertex 75 75 0
    endloop
  endfacet
  facet normal 0 1 -0
    outer loop
      vertex -37.5 75 0.799999
      vertex 75 75 0.799999
      vertex 75 75 0
    endloop
  endfacet
  facet normal 0 -1 -0
    outer loop
      vertex -41.4198 -74.7946 0
      vertex -37.5 -74.7946 0
      vertex -37.5 -74.7946 0.799999
    endloop
  endfacet
  facet normal 0 -1 0
    outer loop
      vertex -41.4198 -74.7946 0
      vertex -37.5 -74.7946 0.799999
      vertex -41.4198 -74.7946 0.799999
    endloop
  endfacet
  facet normal 0 1 0
    outer loop
      vertex -41.4198 74.7946 0
      vertex -41.4198 74.7946 0.799999
      vertex -37.5 74.7946 0
    endloop
  endfacet
  facet normal 0 1 -0
    outer loop
      vertex -41.4198 74.7946 0.799999
      vertex -37.5 74.7946 0.799999
      vertex -37.5 74.7946 0
    endloop
  endfacet
  facet normal 0 0 -1
    outer loop
      vertex -49.0881 -73.1646 0
      vertex -37.5 -74.7946 0
      vertex -41.4198 -74.7946 0
    endloop
  endfacet
  facet normal -0.207918 -0.978146 -0
    outer loop
      vertex -49.0881 -73.1646 0
      vertex -41.4198 -74.7946 0
      vertex -41.4198 -74.7946 0.799999
    endloop
  endfacet
  facet normal -0.207918 -0.978146 0
    outer loop
      vertex -49.0881 -73.1646 0
      vertex -41.4198 -74.7946 0.799999
      vertex -49.0881 -73.1646 0.799999
    endloop
  endfacet
  facet normal 0 0 1
    outer loop
      vertex -49.0881 -73.1646 0.799999
      vertex -41.4198 -74.7946 0.799999
      vertex -37.5 -74.7946 0.799999
    endloop
  endfacet
  facet normal -0 0 -1
    outer loop
      vertex -49.0881 73.1646 0
      vertex -41.4198 74.7946 0
      vertex -37.5 74.7946 0
    endloop
  endfacet
  facet normal -0.207918 0.978146 0
    outer loop
      vertex -49.0881 73.1646 0
      vertex -49.0881 73.1646 0.799999
      vertex -41.4198 74.7946 0
    endloop
  endfacet
  facet normal 0 0 1
    outer loop
      vertex -49.0881 73.1646 0.799999
      vertex -37.5 74.7946 0.799999
      vertex -41.4198 74.7946 0.799999
    endloop
  endfacet
  facet normal -0.207918 0.978146 0
    outer loop
      vertex -49.0881 73.1646 0.799999
      vertex -41.4198 74.7946 0.799999
      vertex -41.4198 74.7946 0
    endloop
  endfacet
  facet normal -0.406728 -0.913549 -0
    outer loop
      vertex -56.25 -69.976 0
      vertex -49.0881 -73.1646 0
      vertex -49.0881 -73.1646 0.799999
    endloop
  endfacet
  facet normal -0.406728 -0.913549 0
    outer loop
      vertex -56.25 -69.976 0
      vertex -49.0881 -73.1646 0.799999
      vertex -56.25 -69.976 0.799999
    endloop
  endfacet
  facet normal -0.406728 0.913549 0
    outer loop
      vertex -56.25 69.976 0
      vertex -56.25 69.976 0.799999
      vertex -49.0881 73.1646 0
    endloop
  endfacet
  facet normal -0.406728 0.913549 0
    outer loop
      vertex -56.25 69.976 0.799999
      vertex -49.0881 73.1646 0.799999
      vertex -49.0881 73.1646 0
    endloop
  endfacet
  facet normal -0.587792 -0.809012 -0
    outer loop
      vertex -62.5924 -65.3679 0
      vertex -56.25 -69.976 0
      vertex -56.25 -69.976 0.799999
    endloop
  endfacet
  facet normal -0.587792 -0.809012 0
    outer loop
      vertex -62.5924 -65.3679 0
      vertex -56.25 -69.976 0.799999
      vertex -62.5924 -65.3679 0.799999
    endloop
  endfacet
  facet normal -0.587792 0.809012 0
    outer loop
      vertex -62.5924 65.3679 0
      vertex -62.5924 65.3679 0.799999
      vertex -56.25 69.976 0
    endloop
  endfacet
  facet normal -0.587792 0.809012 0
    outer loop
      vertex -62.5924 65.3679 0.799999
      vertex -56.25 69.976 0.799999
      vertex -56.25 69.976 0
    endloop
  endfacet
  facet normal 0 0 -1
    outer loop
      vertex -67.1 -24.3 0
      vertex -37.5 -74.7946 0
      vertex -49.0881 -73.1646 0
    endloop
  endfacet
  facet normal 0 0 -1
    outer loop
      vertex -67.1 -24.3 0
      vertex -37.5 74.7946 0
      vertex -37.5 -74.7946 0
    endloop
  endfacet
  facet normal 0 0 -1
    outer loop
      vertex -67.1 -24.3 0
      vertex -67.1 24.3 0
      vertex -37.5 74.7946 0
    endloop
  endfacet
  facet normal -0 0 1
    outer loop
      vertex -67.1 -24.3 0.799999
      vertex -37.5 -74.7946 0.799999
      vertex -67.1 24.3 0.799999
    endloop
  endfacet
  facet normal -0 -0 1
    outer loop
      vertex -67.1 -24.3 0.799999
      vertex -49.0881 -73.1646 0.799999
      vertex -37.5 -74.7946 0.799999
    endloop
  endfacet
  facet normal 0 -0 -1
    outer loop
      vertex -67.1 24.3 0
      vertex -49.0881 73.1646 0
      vertex -37.5 74.7946 0
    endloop
  endfacet
  facet normal 0 0 1
    outer loop
      vertex -67.1 24.3 0.799999
      vertex -37.5 -74.7946 0.799999
      vertex -37.5 74.7946 0.799999
    endloop
  endfacet
  facet normal 0 0 1
    outer loop
      vertex -67.1 24.3 0.799999
      vertex -37.5 74.7946 0.799999
      vertex -49.0881 73.1646 0.799999
    endloop
  endfacet
  facet normal -0.743148 -0.669127 0
    outer loop
      vertex -67.8381 -59.5419 0
      vertex -62.5924 -65.3679 0
      vertex -67.8381 -59.5419 0.799999
    endloop
  endfacet
  facet normal -0.743148 -0.669127 0
    outer loop
      vertex -67.8381 -59.5419 0.799999
      vertex -62.5924 -65.3679 0
      vertex -62.5924 -65.3679 0.799999
    endloop
  endfacet
  facet normal -0.743148 0.669127 0
    outer loop
      vertex -67.8381 59.5419 0
      vertex -62.5924 65.3679 0.799999
      vertex -62.5924 65.3679 0
    endloop
  endfacet
  facet normal -0.743148 0.669127 0
    outer loop
      vertex -67.8381 59.5419 0
      vertex -67.8381 59.5419 0.799999
      vertex -62.5924 65.3679 0.799999
    endloop
  endfacet
  facet normal -0.866019 -0.500011 0
    outer loop
      vertex -67.9 -22.9144 0
      vertex -67.1 -24.3 0
      vertex -67.9 -22.9144 0.799999
    endloop
  endfacet
  facet normal 0 0 -1
    outer loop
      vertex -67.9 -22.9144 0
      vertex -67.1 24.3 0
      vertex -67.1 -24.3 0
    endloop
  endfacet
  facet normal 0 0 -1
    outer loop
      vertex -67.9 -22.9144 0
      vertex -67.9 22.9144 0
      vertex -67.1 24.3 0
    endloop
  endfacet
  facet normal -0.866019 -0.500011 0
    outer loop
      vertex -67.9 -22.9144 0.799999
      vertex -67.1 -24.3 0
      vertex -67.1 -24.3 0.799999
    endloop
  endfacet
  facet normal 0 0 1
    outer loop
      vertex -67.9 -22.9144 0.799999
      vertex -67.1 -24.3 0.799999
      vertex -67.9 22.9144 0.799999
    endloop
  endfacet
  facet normal 0 0 -1
    outer loop
      vertex -67.9 -25.6856 0
      vertex -49.0881 -73.1646 0
      vertex -56.25 -69.976 0
    endloop
  endfacet
  facet normal 0 0 -1
    outer loop
      vertex -67.9 -25.6856 0
      vertex -56.25 -69.976 0
      vertex -62.5924 -65.3679 0
    endloop
  endfacet
  facet normal 0 0 -1
    outer loop
      vertex -67.9 -25.6856 0
      vertex -62.5924 -65.3679 0
      vertex -67.8381 -59.5419 0
    endloop
  endfacet
  facet normal 0 0 -1
    outer loop
      vertex -67.9 -25.6856 0
      vertex -67.1 -24.3 0
      vertex -49.0881 -73.1646 0
    endloop
  endfacet
  facet normal -0.866019 0.500011 0
    outer loop
      vertex -67.9 -25.6856 0
      vertex -67.1 -24.3 0.799999
      vertex -67.1 -24.3 0
    endloop
  endfacet
  facet normal -0.866019 0.500011 0
    outer loop
      vertex -67.9 -25.6856 0
      vertex -67.9 -25.6856 0.799999
      vertex -67.1 -24.3 0.799999
    endloop
  endfacet
  facet normal -0 0 1
    outer loop
      vertex -67.9 -25.6856 0.799999
      vertex -49.0881 -73.1646 0.799999
      vertex -67.1 -24.3 0.799999
    endloop
  endfacet
  facet normal 0 0 1
    outer loop
      vertex -67.9 -25.6856 0.799999
      vertex -56.25 -69.976 0.799999
      vertex -49.0881 -73.1646 0.799999
    endloop
  endfacet
  facet normal 0 0 1
    outer loop
      vertex -67.9 -25.6856 0.799999
      vertex -62.5924 -65.3679 0.799999
      vertex -56.25 -69.976 0.799999
    endloop
  endfacet
  facet normal 0 0 1
    outer loop
      vertex -67.9 -25.6856 0.799999
      vertex -67.8381 -59.5419 0.799999
      vertex -62.5924 -65.3679 0.799999
    endloop
  endfacet
  facet normal -0.866019 0.500011 0
    outer loop
      vertex -67.9 22.9144 0
      vertex -67.1 24.3 0.799999
      vertex -67.1 24.3 0
    endloop
  endfacet
  facet normal -0.866019 0.500011 0
    outer loop
      vertex -67.9 22.9144 0
      vertex -67.9 22.9144 0.799999
      vertex -67.1 24.3 0.799999
    endloop
  endfacet
  facet normal -0 0 1
    outer loop
      vertex -67.9 22.9144 0.799999
      vertex -67.1 -24.3 0.799999
      vertex -67.1 24.3 0.799999
    endloop
  endfacet
  facet normal 0 0 -1
    outer loop
      vertex -67.9 25.6856 0
      vertex -49.0881 73.1646 0
      vertex -67.1 24.3 0
    endloop
  endfacet
  facet normal 0 0 -1
    outer loop
      vertex -67.9 25.6856 0
      vertex -56.25 69.976 0
      vertex -49.0881 73.1646 0
    endloop
  endfacet
  facet normal 0 0 -1
    outer loop
      vertex -67.9 25.6856 0
      vertex -62.5924 65.3679 0
      vertex -56.25 69.976 0
    endloop
  endfacet
  facet normal -0.866019 -0.500011 0
    outer loop
      vertex -67.9 25.6856 0
      vertex -67.1 24.3 0
      vertex -67.9 25.6856 0.799999
    endloop
  endfacet
  facet normal 0 0 -1
    outer loop
      vertex -67.9 25.6856 0
      vertex -67.8381 59.5419 0
      vertex -62.5924 65.3679 0
    endloop
  endfacet
  facet normal 0 0 1
    outer loop
      vertex -67.9 25.6856 0.799999
      vertex -49.0881 73.1646 0.799999
      vertex -56.25 69.976 0.799999
    endloop
  endfacet
  facet normal 0 0 1
    outer loop
      vertex -67.9 25.6856 0.799999
      vertex -56.25 69.976 0.799999
      vertex -62.5924 65.3679 0.799999
    endloop
  endfacet
  facet normal 0 0 1
    outer loop
      vertex -67.9 25.6856 0.799999
      vertex -62.5924 65.3679 0.799999
      vertex -67.8381 59.5419 0.799999
    endloop
  endfacet
  facet normal -0.866019 -0.500011 0
    outer loop
      vertex -67.9 25.6856 0.799999
      vertex -67.1 24.3 0
      vertex -67.1 24.3 0.799999
    endloop
  endfacet
  facet normal 0 0 1
    outer loop
      vertex -67.9 25.6856 0.799999
      vertex -67.1 24.3 0.799999
      vertex -49.0881 73.1646 0.799999
    endloop
  endfacet
  facet normal 0 -1 -0
    outer loop
      vertex -69.5 -22.9144 0
      vertex -67.9 -22.9144 0
      vertex -67.9 -22.9144 0.799999
    endloop
  endfacet
  facet normal 0 -1 0
    outer loop
      vertex -69.5 -22.9144 0
      vertex -67.9 -22.9144 0.799999
      vertex -69.5 -22.9144 0.799999
    endloop
  endfacet
  facet normal 0 0 -1
    outer loop
      vertex -69.5 -22.9144 0
      vertex -67.9 22.9144 0
      vertex -67.9 -22.9144 0
    endloop
  endfacet
  facet normal 0 0 -1
    outer loop
      vertex -69.5 -22.9144 0
      vertex -69.5 22.9144 0
      vertex -67.9 22.9144 0
    endloop
  endfacet
  facet normal 0 0 1
    outer loop
      vertex -69.5 -22.9144 0.799999
      vertex -67.9 -22.9144 0.799999
      vertex -69.5 22.9144 0.799999
    endloop
  endfacet
  facet normal 0 1 0
    outer loop
      vertex -69.5 -25.6856 0
      vertex -69.5 -25.6856 0.799999
      vertex -67.9 -25.6856 0
    endloop
  endfacet
  facet normal 0 1 -0
    outer loop
      vertex -69.5 -25.6856 0.799999
      vertex -67.9 -25.6856 0.799999
      vertex -67.9 -25.6856 0
    endloop
  endfacet
  facet normal 0 1 0
    outer loop
      vertex -69.5 22.9144 0
      vertex -69.5 22.9144 0.799999
      vertex -67.9 22.9144 0
    endloop
  endfacet
  facet normal -0 0 1
    outer loop
      vertex -69.5 22.9144 0.799999
      vertex -67.9 -22.9144 0.799999
      vertex -67.9 22.9144 0.799999
    endloop
  endfacet
  facet normal 0 1 -0
    outer loop
      vertex -69.5 22.9144 0.799999
      vertex -67.9 22.9144 0.799999
      vertex -67.9 22.9144 0
    endloop
  endfacet
  facet normal 0 -1 -0
    outer loop
      vertex -69.5 25.6856 0
      vertex -67.9 25.6856 0
      vertex -67.9 25.6856 0.799999
    endloop
  endfacet
  facet normal 0 -1 0
    outer loop
      vertex -69.5 25.6856 0
      vertex -67.9 25.6856 0.799999
      vertex -69.5 25.6856 0.799999
    endloop
  endfacet
  facet normal 0.866019 -0.500011 0
    outer loop
      vertex -70.3 -24.3 0
      vertex -69.5 -22.9144 0
      vertex -70.3 -24.3 0.799999
    endloop
  endfacet
  facet normal 0.866019 0.500011 0
    outer loop
      vertex -70.3 -24.3 0
      vertex -69.5 -25.6856 0.799999
      vertex -69.5 -25.6856 0
    endloop
  endfacet
  facet normal 0 0 -1
    outer loop
      vertex -70.3 -24.3 0
      vertex -69.5 22.9144 0
      vertex -69.5 -22.9144 0
    endloop
  endfacet
  facet normal 0.866019 0.500011 0
    outer loop
      vertex -70.3 -24.3 0
      vertex -70.3 -24.3 0.799999
      vertex -69.5 -25.6856 0.799999
    endloop
  endfacet
  facet normal -0 0 -1
    outer loop
      vertex -70.3 -24.3 0
      vertex -70.3 24.3 0
      vertex -69.5 22.9144 0
    endloop
  endfacet
  facet normal 0.866019 -0.500011 0
    outer loop
      vertex -70.3 -24.3 0.799999
      vertex -69.5 -22.9144 0
      vertex -69.5 -22.9144 0.799999
    endloop
  endfacet
  facet normal 0 0 1
    outer loop
      vertex -70.3 -24.3 0.799999
      vertex -69.5 -22.9144 0.799999
      vertex -70.3 24.3 0.799999
    endloop
  endfacet
  facet normal 0.866019 0.500011 0
    outer loop
      vertex -70.3 24.3 0
      vertex -69.5 22.9144 0.799999
      vertex -69.5 22.9144 0
    endloop
  endfacet
  facet normal 0.866019 -0.500011 0
    outer loop
      vertex -70.3 24.3 0
      vertex -69.5 25.6856 0
      vertex -70.3 24.3 0.799999
    endloop
  endfacet
  facet normal 0.866019 0.500011 0
    outer loop
      vertex -70.3 24.3 0
      vertex -70.3 24.3 0.799999
      vertex -69.5 22.9144 0.799999
    endloop
  endfacet
  facet normal 0 0 1
    outer loop
      vertex -70.3 24.3 0.799999
      vertex -69.5 -22.9144 0.799999
      vertex -69.5 22.9144 0.799999
    endloop
  endfacet
  facet normal 0.866019 -0.500011 0
    outer loop
      vertex -70.3 24.3 0.799999
      vertex -69.5 25.6856 0
      vertex -69.5 25.6856 0.799999
    endloop
  endfacet
  facet normal -0.86602 -0.500009 0
    outer loop
      vertex -71.758 -52.7526 0
      vertex -67.8381 -59.5419 0
      vertex -71.758 -52.7526 0.799999
    endloop
  endfacet
  facet normal 0 0 -1
    outer loop
      vertex -71.758 -52.7526 0
      vertex -67.9 -25.6856 0
      vertex -67.8381 -59.5419 0
    endloop
  endfacet
  facet normal -0.86602 -0.500009 0
    outer loop
      vertex -71.758 -52.7526 0.799999
      vertex -67.8381 -59.5419 0
      vertex -67.8381 -59.5419 0.799999
    endloop
  endfacet
  facet normal 0 0 1
    outer loop
      vertex -71.758 -52.7526 0.799999
      vertex -67.8381 -59.5419 0.799999
      vertex -67.9 -25.6856 0.799999
    endloop
  endfacet
  facet normal 0 0 -1
    outer loop
      vertex -71.758 52.7526 0
      vertex -67.8381 59.5419 0
      vertex -67.9 25.6856 0
    endloop
  endfacet
  facet normal -0.86602 0.500009 0
    outer loop
      vertex -71.758 52.7526 0
      vertex -67.8381 59.5419 0.799999
      vertex -67.8381 59.5419 0
    endloop
  endfacet
  facet normal -0.86602 0.500009 0
    outer loop
      vertex -71.758 52.7526 0
      vertex -71.758 52.7526 0.799999
      vertex -67.8381 59.5419 0.799999
    endloop
  endfacet
  facet normal -0 0 1
    outer loop
      vertex -71.758 52.7526 0.799999
      vertex -67.9 25.6856 0.799999
      vertex -67.8381 59.5419 0.799999
    endloop
  endfacet
  facet normal 0 0 -1
    outer loop
      vertex -74.1805 -45.2967 0
      vertex -67.9 -25.6856 0
      vertex -71.758 -52.7526 0
    endloop
  endfacet
  facet normal -0.951059 -0.309009 0
    outer loop
      vertex -74.1805 -45.2967 0
      vertex -71.758 -52.7526 0
      vertex -74.1805 -45.2967 0.799999
    endloop
  endfacet
  facet normal -0.951059 -0.309009 0
    outer loop
      vertex -74.1805 -45.2967 0.799999
      vertex -71.758 -52.7526 0
      vertex -71.758 -52.7526 0.799999
    endloop
  endfacet
  facet normal 0 0 1
    outer loop
      vertex -74.1805 -45.2967 0.799999
      vertex -71.758 -52.7526 0.799999
      vertex -67.9 -25.6856 0.799999
    endloop
  endfacet
  facet normal 0 0 -1
    outer loop
      vertex -74.1805 45.2967 0
      vertex -71.758 52.7526 0
      vertex -67.9 25.6856 0
    endloop
  endfacet
  facet normal -0.951059 0.309009 0
    outer loop
      vertex -74.1805 45.2967 0
      vertex -71.758 52.7526 0.799999
      vertex -71.758 52.7526 0
    endloop
  endfacet
  facet normal -0.951059 0.309009 0
    outer loop
      vertex -74.1805 45.2967 0
      vertex -74.1805 45.2967 0.799999
      vertex -71.758 52.7526 0.799999
    endloop
  endfacet
  facet normal -0 0 1
    outer loop
      vertex -74.1805 45.2967 0.799999
      vertex -67.9 25.6856 0.799999
      vertex -71.758 52.7526 0.799999
    endloop
  endfacet
  facet normal 0 0 -1
    outer loop
      vertex -75 -37.5 0
      vertex -67.9 -25.6856 0
      vertex -74.1805 -45.2967 0
    endloop
  endfacet
  facet normal -0 0 -1
    outer loop
      vertex -75 -37.5 0
      vertex -69.5 -25.6856 0
      vertex -67.9 -25.6856 0
    endloop
  endfacet
  facet normal -0 0 -1
    outer loop
      vertex -75 -37.5 0
      vertex -70.3 -24.3 0
      vertex -69.5 -25.6856 0
    endloop
  endfacet
  facet normal -0 0 -1
    outer loop
      vertex -75 -37.5 0
      vertex -70.3 24.3 0
      vertex -70.3 -24.3 0
    endloop
  endfacet
  facet normal -0.994521 -0.104533 0
    outer loop
      vertex -75 -37.5 0
      vertex -74.1805 -45.2967 0
      vertex -75 -37.5 0.799999
    endloop
  endfacet
  facet normal -1 -0 0
    outer loop
      vertex -75 -37.5 0
      vertex -75 -37.5 0.799999
      vertex -75 37.5 0.799999
    endloop
  endfacet
  facet normal 0 0 -1
    outer loop
      vertex -75 -37.5 0
      vertex -75 37.5 0
      vertex -70.3 24.3 0
    endloop
  endfacet
  facet normal -1 0 0
    outer loop
      vertex -75 -37.5 0
      vertex -75 37.5 0.799999
      vertex -75 37.5 0
    endloop
  endfacet
  facet normal 0 0 1
    outer loop
      vertex -75 -37.5 0.799999
      vertex -67.9 -25.6856 0.799999
      vertex -69.5 -25.6856 0.799999
    endloop
  endfacet
  facet normal 0 0 1
    outer loop
      vertex -75 -37.5 0.799999
      vertex -69.5 -25.6856 0.799999
      vertex -70.3 -24.3 0.799999
    endloop
  endfacet
  facet normal 0 0 1
    outer loop
      vertex -75 -37.5 0.799999
      vertex -70.3 -24.3 0.799999
      vertex -75 37.5 0.799999
    endloop
  endfacet
  facet normal -0.994521 -0.104533 0
    outer loop
      vertex -75 -37.5 0.799999
      vertex -74.1805 -45.2967 0
      vertex -74.1805 -45.2967 0.799999
    endloop
  endfacet
  facet normal 0 0 1
    outer loop
      vertex -75 -37.5 0.799999
      vertex -74.1805 -45.2967 0.799999
      vertex -67.9 -25.6856 0.799999
    endloop
  endfacet
  facet normal 0 0 -1
    outer loop
      vertex -75 37.5 0
      vertex -67.9 25.6856 0
      vertex -69.5 25.6856 0
    endloop
  endfacet
  facet normal 0 0 -1
    outer loop
      vertex -75 37.5 0
      vertex -69.5 25.6856 0
      vertex -70.3 24.3 0
    endloop
  endfacet
  facet normal 0 0 -1
    outer loop
      vertex -75 37.5 0
      vertex -74.1805 45.2967 0
      vertex -67.9 25.6856 0
    endloop
  endfacet
  facet normal -0.994521 0.104533 0
    outer loop
      vertex -75 37.5 0
      vertex -74.1805 45.2967 0.799999
      vertex -74.1805 45.2967 0
    endloop
  endfacet
  facet normal -0.994521 0.104533 0
    outer loop
      vertex -75 37.5 0
      vertex -75 37.5 0.799999
      vertex -74.1805 45.2967 0.799999
    endloop
  endfacet
  facet normal -0 0 1
    outer loop
      vertex -75 37.5 0.799999
      vertex -67.9 25.6856 0.799999
      vertex -74.1805 45.2967 0.799999
    endloop
  endfacet
  facet normal 0 0 1
    outer loop
      vertex -75 37.5 0.799999
      vertex -69.5 25.6856 0.799999
      vertex -67.9 25.6856 0.799999
    endloop
  endfacet
  facet normal 0 0 1
    outer loop
      vertex -75 37.5 0.799999
      vertex -70.3 -24.3 0.799999
      vertex -70.3 24.3 0.799999
    endloop
  endfacet
  facet normal 0 0 1
    outer loop
      vertex -75 37.5 0.799999
      vertex -70.3 24.3 0.799999
      vertex -69.5 25.6856 0.799999
    endloop
  endfacet
  facet normal 1 0 0
    outer loop
      vertex 75 -75 0
      vertex 75 75 0
      vertex 75 -75 0.799999
    endloop
  endfacet
  facet normal 1 -0 0
    outer loop
      vertex 75 -75 0.799999
      vertex 75 75 0
      vertex 75 75 0.799999
    endloop
  endfacet
endsolid model
