G04 #@! TF.FileFunction,Copper,L2,Bot,Signal*
%FSLAX46Y46*%
G04 Gerber Fmt 4.6, Leading zero omitted, Abs format (unit mm)*
G04 Created by KiCad (PCBNEW 0.201412101631+5319~19~ubuntu14.04.1-product) date Čt 11. prosinec 2014, 12:52:01 CET*
%MOMM*%
G01*
G04 APERTURE LIST*
%ADD10C,0.100000*%
%ADD11R,2.000000X2.000000*%
%ADD12R,1.000000X1.000000*%
%ADD13R,1.651000X1.651000*%
%ADD14R,1.300000X1.300000*%
%ADD15C,6.000000*%
%ADD16C,4.000000*%
%ADD17C,1.000000*%
%ADD18C,0.500000*%
%ADD19C,0.400000*%
%ADD20C,0.300000*%
%ADD21C,0.254000*%
G04 APERTURE END LIST*
D10*
D11*
X145294600Y-58623200D03*
X149294600Y-58623200D03*
X136252200Y-56159400D03*
X140252200Y-56159400D03*
D12*
X151120600Y-50977800D03*
X153120600Y-50977800D03*
X128117600Y-43976800D03*
X128117600Y-41976800D03*
D13*
X155676600Y-46151800D03*
X153136600Y-46151800D03*
X150596600Y-46151800D03*
X150596600Y-48691800D03*
X153136600Y-48691800D03*
X155676600Y-48691800D03*
X137668000Y-41275000D03*
X137668000Y-38735000D03*
X142748000Y-41275000D03*
X142748000Y-38735000D03*
X147828000Y-41275000D03*
X147828000Y-38735000D03*
X132943600Y-44119800D03*
X132943600Y-41579800D03*
X132943600Y-39039800D03*
X130403600Y-39039800D03*
X130403600Y-41579800D03*
X130403600Y-44119800D03*
D14*
X143316600Y-55949800D03*
X143316600Y-53949800D03*
X145316600Y-55949800D03*
X145316600Y-53949800D03*
X147316600Y-55949800D03*
X147316600Y-53949800D03*
X149316600Y-55949800D03*
X149316600Y-53949800D03*
D13*
X140208000Y-41275000D03*
X140208000Y-38735000D03*
X145288000Y-41275000D03*
X145288000Y-38735000D03*
X118084600Y-41325800D03*
X118084600Y-38785800D03*
X120624600Y-41325800D03*
X120624600Y-38785800D03*
D14*
X116816600Y-53949800D03*
X118816600Y-53949800D03*
X116816600Y-55949800D03*
X118816600Y-55949800D03*
D13*
X125704600Y-41325800D03*
X125704600Y-38785800D03*
X123164600Y-41325800D03*
X123164600Y-38785800D03*
D15*
X153136600Y-40109800D03*
X112496600Y-40109800D03*
D16*
X153316600Y-55549800D03*
X112316600Y-55549800D03*
D15*
X132816600Y-50269800D03*
D17*
X153136600Y-48691800D02*
X153136600Y-46151800D01*
X149294600Y-55971800D02*
X149316600Y-55949800D01*
X149294600Y-58623200D02*
X149294600Y-55971800D01*
X151294600Y-58623200D02*
X151777200Y-59105800D01*
X149294600Y-58623200D02*
X151294600Y-58623200D01*
X154620600Y-50977800D02*
X153120600Y-50977800D01*
X156816601Y-53173801D02*
X154620600Y-50977800D01*
X156816601Y-57229801D02*
X156816601Y-53173801D01*
X154940602Y-59105800D02*
X156816601Y-57229801D01*
X151777200Y-59105800D02*
X154940602Y-59105800D01*
X153120600Y-48707800D02*
X153136600Y-48691800D01*
X153120600Y-50977800D02*
X153120600Y-48707800D01*
X140461800Y-55949800D02*
X140252200Y-56159400D01*
X143316600Y-55949800D02*
X140461800Y-55949800D01*
X134769100Y-41579800D02*
X132943600Y-41579800D01*
X132229100Y-41579800D02*
X130403600Y-41579800D01*
X134769100Y-41579800D02*
X132229100Y-41579800D01*
X140252200Y-47062900D02*
X134769100Y-41579800D01*
X140252200Y-56159400D02*
X140252200Y-47062900D01*
X128514600Y-41579800D02*
X128117600Y-41976800D01*
X130403600Y-41579800D02*
X128514600Y-41579800D01*
D18*
X137668000Y-38735000D02*
X137668000Y-41275000D01*
X143316600Y-52799800D02*
X143316600Y-53949800D01*
X143316600Y-48249100D02*
X143316600Y-52799800D01*
X137668000Y-42600500D02*
X143316600Y-48249100D01*
X137668000Y-41275000D02*
X137668000Y-42600500D01*
X142748000Y-38735000D02*
X142748000Y-41275000D01*
X145316600Y-52799800D02*
X145316600Y-53949800D01*
X145316600Y-45169100D02*
X145316600Y-52799800D01*
X142748000Y-42600500D02*
X145316600Y-45169100D01*
X142748000Y-41275000D02*
X142748000Y-42600500D01*
D19*
X147316600Y-53949800D02*
X147316600Y-53793800D01*
D18*
X147828000Y-38735000D02*
X147828000Y-41275000D01*
X147828000Y-53438400D02*
X147316600Y-53949800D01*
X147828000Y-41275000D02*
X147828000Y-53438400D01*
D20*
X147313600Y-55949800D02*
X146366599Y-55002799D01*
X146366599Y-55002799D02*
X146366599Y-52899799D01*
X147316600Y-55949800D02*
X147313600Y-55949800D01*
D18*
X145288000Y-38735000D02*
X145288000Y-41275000D01*
X146366599Y-43679099D02*
X146366599Y-52899799D01*
X145288000Y-42600500D02*
X146366599Y-43679099D01*
X145288000Y-41275000D02*
X145288000Y-42600500D01*
D20*
X145316600Y-55949800D02*
X145316600Y-55839798D01*
X145316600Y-55839798D02*
X144366599Y-54889797D01*
X144366599Y-54889797D02*
X144366599Y-52899799D01*
D18*
X140208000Y-38735000D02*
X140208000Y-41275000D01*
X144366599Y-46759099D02*
X144366599Y-52899799D01*
X140208000Y-42600500D02*
X144366599Y-46759099D01*
X140208000Y-41275000D02*
X140208000Y-42600500D01*
X118084600Y-38785800D02*
X118084600Y-41325800D01*
X118084600Y-52681800D02*
X116816600Y-53949800D01*
X118084600Y-41325800D02*
X118084600Y-52681800D01*
X120624600Y-38785800D02*
X120624600Y-41325800D01*
X120624600Y-53291800D02*
X119966600Y-53949800D01*
X120624600Y-41325800D02*
X120624600Y-53291800D01*
X119966600Y-53949800D02*
X118816600Y-53949800D01*
X125704600Y-38785800D02*
X125704600Y-41325800D01*
X125704600Y-41325800D02*
X125704600Y-51739800D01*
X125704600Y-51739800D02*
X119938800Y-57505600D01*
X116816600Y-57099800D02*
X116816600Y-55949800D01*
X117222400Y-57505600D02*
X116816600Y-57099800D01*
X119938800Y-57505600D02*
X117222400Y-57505600D01*
X123164600Y-38785800D02*
X123164600Y-41325800D01*
X119966600Y-55949800D02*
X118816600Y-55949800D01*
X123164600Y-41325800D02*
X123164600Y-52751800D01*
X123164600Y-52751800D02*
X119966600Y-55949800D01*
D21*
G36*
X157275600Y-60376600D02*
X108357600Y-60376600D01*
X108357600Y-35970800D01*
X157275600Y-35970800D01*
X157275600Y-52027668D01*
X155423166Y-50175234D01*
X155054946Y-49929197D01*
X154620600Y-49842800D01*
X154508270Y-49842800D01*
X154559477Y-49766940D01*
X154609540Y-49517300D01*
X154609540Y-47866300D01*
X154562563Y-47624177D01*
X154428794Y-47420539D01*
X154559477Y-47226940D01*
X154609540Y-46977300D01*
X154609540Y-45326300D01*
X154562563Y-45084177D01*
X154422773Y-44871373D01*
X154211740Y-44728923D01*
X153962100Y-44678860D01*
X152311100Y-44678860D01*
X152068977Y-44725837D01*
X151856173Y-44865627D01*
X151713723Y-45076660D01*
X151663660Y-45326300D01*
X151663660Y-46977300D01*
X151710637Y-47219423D01*
X151844405Y-47423060D01*
X151713723Y-47616660D01*
X151663660Y-47866300D01*
X151663660Y-49517300D01*
X151710637Y-49759423D01*
X151850427Y-49972227D01*
X151985600Y-50063470D01*
X151985600Y-50415767D01*
X151973160Y-50477800D01*
X151973160Y-51477800D01*
X152020137Y-51719923D01*
X152159927Y-51932727D01*
X152370960Y-52075177D01*
X152620600Y-52125240D01*
X153620600Y-52125240D01*
X153684716Y-52112800D01*
X154150468Y-52112800D01*
X155681601Y-53643933D01*
X155681601Y-56759669D01*
X154470470Y-57970800D01*
X152247332Y-57970800D01*
X152097166Y-57820634D01*
X151728946Y-57574597D01*
X151294600Y-57488200D01*
X150915847Y-57488200D01*
X150895063Y-57381077D01*
X150755273Y-57168273D01*
X150544240Y-57025823D01*
X150456758Y-57008279D01*
X150563977Y-56849440D01*
X150614040Y-56599800D01*
X150614040Y-55299800D01*
X150567063Y-55057677D01*
X150427273Y-54844873D01*
X150216240Y-54702423D01*
X149966600Y-54652360D01*
X148666600Y-54652360D01*
X148600944Y-54665098D01*
X148614040Y-54599800D01*
X148614040Y-53824357D01*
X148614040Y-53824356D01*
X148645633Y-53777075D01*
X148645633Y-53777074D01*
X148656810Y-53720884D01*
X148713000Y-53438400D01*
X148713001Y-53438400D01*
X148713000Y-53438394D01*
X148713000Y-42736395D01*
X148895623Y-42700963D01*
X149108427Y-42561173D01*
X149250877Y-42350140D01*
X149300940Y-42100500D01*
X149300940Y-40449500D01*
X149253963Y-40207377D01*
X149120194Y-40003739D01*
X149250877Y-39810140D01*
X149300940Y-39560500D01*
X149300940Y-37909500D01*
X149253963Y-37667377D01*
X149114173Y-37454573D01*
X148903140Y-37312123D01*
X148653500Y-37262060D01*
X147002500Y-37262060D01*
X146760377Y-37309037D01*
X146556739Y-37442805D01*
X146363140Y-37312123D01*
X146113500Y-37262060D01*
X144462500Y-37262060D01*
X144220377Y-37309037D01*
X144016739Y-37442805D01*
X143823140Y-37312123D01*
X143573500Y-37262060D01*
X141922500Y-37262060D01*
X141680377Y-37309037D01*
X141476739Y-37442805D01*
X141283140Y-37312123D01*
X141033500Y-37262060D01*
X139382500Y-37262060D01*
X139140377Y-37309037D01*
X138936739Y-37442805D01*
X138743140Y-37312123D01*
X138493500Y-37262060D01*
X136842500Y-37262060D01*
X136600377Y-37309037D01*
X136387573Y-37448827D01*
X136245123Y-37659860D01*
X136195060Y-37909500D01*
X136195060Y-39560500D01*
X136242037Y-39802623D01*
X136375805Y-40006260D01*
X136245123Y-40199860D01*
X136195060Y-40449500D01*
X136195060Y-41400628D01*
X135571666Y-40777234D01*
X135203446Y-40531197D01*
X134769100Y-40444800D01*
X134325303Y-40444800D01*
X134229773Y-40299373D01*
X134018740Y-40156923D01*
X133769100Y-40106860D01*
X132118100Y-40106860D01*
X131875977Y-40153837D01*
X131672339Y-40287605D01*
X131478740Y-40156923D01*
X131229100Y-40106860D01*
X129578100Y-40106860D01*
X129335977Y-40153837D01*
X129123173Y-40293627D01*
X129021129Y-40444800D01*
X128514600Y-40444800D01*
X128080254Y-40531197D01*
X127712034Y-40777234D01*
X127659908Y-40829360D01*
X127617600Y-40829360D01*
X127375477Y-40876337D01*
X127177540Y-41006360D01*
X127177540Y-40500300D01*
X127130563Y-40258177D01*
X126996794Y-40054539D01*
X127127477Y-39860940D01*
X127177540Y-39611300D01*
X127177540Y-37960300D01*
X127130563Y-37718177D01*
X126990773Y-37505373D01*
X126779740Y-37362923D01*
X126530100Y-37312860D01*
X124879100Y-37312860D01*
X124636977Y-37359837D01*
X124433339Y-37493605D01*
X124239740Y-37362923D01*
X123990100Y-37312860D01*
X122339100Y-37312860D01*
X122096977Y-37359837D01*
X121893339Y-37493605D01*
X121699740Y-37362923D01*
X121450100Y-37312860D01*
X119799100Y-37312860D01*
X119556977Y-37359837D01*
X119353339Y-37493605D01*
X119159740Y-37362923D01*
X118910100Y-37312860D01*
X117259100Y-37312860D01*
X117016977Y-37359837D01*
X116804173Y-37499627D01*
X116661723Y-37710660D01*
X116611660Y-37960300D01*
X116611660Y-39611300D01*
X116658637Y-39853423D01*
X116792405Y-40057060D01*
X116661723Y-40250660D01*
X116611660Y-40500300D01*
X116611660Y-42151300D01*
X116658637Y-42393423D01*
X116798427Y-42606227D01*
X117009460Y-42748677D01*
X117199600Y-42786807D01*
X117199600Y-52315220D01*
X116862460Y-52652360D01*
X116166600Y-52652360D01*
X115924477Y-52699337D01*
X115711673Y-52839127D01*
X115569223Y-53050160D01*
X115519160Y-53299800D01*
X115519160Y-54599800D01*
X115566137Y-54841923D01*
X115636984Y-54949774D01*
X115569223Y-55050160D01*
X115519160Y-55299800D01*
X115519160Y-56599800D01*
X115566137Y-56841923D01*
X115705927Y-57054727D01*
X115916960Y-57197177D01*
X115952381Y-57204280D01*
X115952382Y-57204280D01*
X115987789Y-57382284D01*
X115998967Y-57438475D01*
X116190810Y-57725590D01*
X116596607Y-58131386D01*
X116596610Y-58131390D01*
X116596611Y-58131390D01*
X116883725Y-58323233D01*
X116883726Y-58323233D01*
X116939915Y-58334410D01*
X117222400Y-58390601D01*
X117222400Y-58390600D01*
X117222405Y-58390600D01*
X119938794Y-58390600D01*
X119938800Y-58390601D01*
X119938800Y-58390600D01*
X120221284Y-58334410D01*
X120277474Y-58323233D01*
X120277475Y-58323233D01*
X120564590Y-58131390D01*
X126330386Y-52365592D01*
X126330390Y-52365590D01*
X126330390Y-52365589D01*
X126458575Y-52173746D01*
X126522233Y-52078475D01*
X126522234Y-52078474D01*
X126589600Y-51739800D01*
X126589601Y-51739800D01*
X126589600Y-51739794D01*
X126589600Y-42787195D01*
X126772223Y-42751763D01*
X126985027Y-42611973D01*
X126993850Y-42598901D01*
X127017137Y-42718923D01*
X127156927Y-42931727D01*
X127367960Y-43074177D01*
X127617600Y-43124240D01*
X128617600Y-43124240D01*
X128859723Y-43077263D01*
X129072527Y-42937473D01*
X129122402Y-42863585D01*
X129328460Y-43002677D01*
X129578100Y-43052740D01*
X131229100Y-43052740D01*
X131471223Y-43005763D01*
X131674860Y-42871994D01*
X131868460Y-43002677D01*
X132118100Y-43052740D01*
X133769100Y-43052740D01*
X134011223Y-43005763D01*
X134224027Y-42865973D01*
X134315148Y-42730980D01*
X139117200Y-47533032D01*
X139117200Y-54538152D01*
X139010077Y-54558937D01*
X138797273Y-54698727D01*
X138654823Y-54909760D01*
X138604760Y-55159400D01*
X138604760Y-57159400D01*
X138651737Y-57401523D01*
X138791527Y-57614327D01*
X139002560Y-57756777D01*
X139252200Y-57806840D01*
X141252200Y-57806840D01*
X141494323Y-57759863D01*
X141707127Y-57620073D01*
X141849577Y-57409040D01*
X141899640Y-57159400D01*
X141899640Y-57084800D01*
X142250478Y-57084800D01*
X142416960Y-57197177D01*
X142666600Y-57247240D01*
X143966600Y-57247240D01*
X144208723Y-57200263D01*
X144316574Y-57129415D01*
X144416960Y-57197177D01*
X144666600Y-57247240D01*
X145966600Y-57247240D01*
X146208723Y-57200263D01*
X146316574Y-57129415D01*
X146416960Y-57197177D01*
X146666600Y-57247240D01*
X147782490Y-57247240D01*
X147697223Y-57373560D01*
X147647160Y-57623200D01*
X147647160Y-59623200D01*
X147694137Y-59865323D01*
X147833927Y-60078127D01*
X148044960Y-60220577D01*
X148294600Y-60270640D01*
X150294600Y-60270640D01*
X150536723Y-60223663D01*
X150749527Y-60083873D01*
X150891977Y-59872840D01*
X150899849Y-59833582D01*
X150974633Y-59908366D01*
X150974634Y-59908366D01*
X151342854Y-60154403D01*
X151777200Y-60240800D01*
X154940602Y-60240800D01*
X155374947Y-60154403D01*
X155374948Y-60154403D01*
X155743168Y-59908366D01*
X157275600Y-58375934D01*
X157275600Y-60376600D01*
X157275600Y-60376600D01*
G37*
X157275600Y-60376600D02*
X108357600Y-60376600D01*
X108357600Y-35970800D01*
X157275600Y-35970800D01*
X157275600Y-52027668D01*
X155423166Y-50175234D01*
X155054946Y-49929197D01*
X154620600Y-49842800D01*
X154508270Y-49842800D01*
X154559477Y-49766940D01*
X154609540Y-49517300D01*
X154609540Y-47866300D01*
X154562563Y-47624177D01*
X154428794Y-47420539D01*
X154559477Y-47226940D01*
X154609540Y-46977300D01*
X154609540Y-45326300D01*
X154562563Y-45084177D01*
X154422773Y-44871373D01*
X154211740Y-44728923D01*
X153962100Y-44678860D01*
X152311100Y-44678860D01*
X152068977Y-44725837D01*
X151856173Y-44865627D01*
X151713723Y-45076660D01*
X151663660Y-45326300D01*
X151663660Y-46977300D01*
X151710637Y-47219423D01*
X151844405Y-47423060D01*
X151713723Y-47616660D01*
X151663660Y-47866300D01*
X151663660Y-49517300D01*
X151710637Y-49759423D01*
X151850427Y-49972227D01*
X151985600Y-50063470D01*
X151985600Y-50415767D01*
X151973160Y-50477800D01*
X151973160Y-51477800D01*
X152020137Y-51719923D01*
X152159927Y-51932727D01*
X152370960Y-52075177D01*
X152620600Y-52125240D01*
X153620600Y-52125240D01*
X153684716Y-52112800D01*
X154150468Y-52112800D01*
X155681601Y-53643933D01*
X155681601Y-56759669D01*
X154470470Y-57970800D01*
X152247332Y-57970800D01*
X152097166Y-57820634D01*
X151728946Y-57574597D01*
X151294600Y-57488200D01*
X150915847Y-57488200D01*
X150895063Y-57381077D01*
X150755273Y-57168273D01*
X150544240Y-57025823D01*
X150456758Y-57008279D01*
X150563977Y-56849440D01*
X150614040Y-56599800D01*
X150614040Y-55299800D01*
X150567063Y-55057677D01*
X150427273Y-54844873D01*
X150216240Y-54702423D01*
X149966600Y-54652360D01*
X148666600Y-54652360D01*
X148600944Y-54665098D01*
X148614040Y-54599800D01*
X148614040Y-53824357D01*
X148614040Y-53824356D01*
X148645633Y-53777075D01*
X148645633Y-53777074D01*
X148656810Y-53720884D01*
X148713000Y-53438400D01*
X148713001Y-53438400D01*
X148713000Y-53438394D01*
X148713000Y-42736395D01*
X148895623Y-42700963D01*
X149108427Y-42561173D01*
X149250877Y-42350140D01*
X149300940Y-42100500D01*
X149300940Y-40449500D01*
X149253963Y-40207377D01*
X149120194Y-40003739D01*
X149250877Y-39810140D01*
X149300940Y-39560500D01*
X149300940Y-37909500D01*
X149253963Y-37667377D01*
X149114173Y-37454573D01*
X148903140Y-37312123D01*
X148653500Y-37262060D01*
X147002500Y-37262060D01*
X146760377Y-37309037D01*
X146556739Y-37442805D01*
X146363140Y-37312123D01*
X146113500Y-37262060D01*
X144462500Y-37262060D01*
X144220377Y-37309037D01*
X144016739Y-37442805D01*
X143823140Y-37312123D01*
X143573500Y-37262060D01*
X141922500Y-37262060D01*
X141680377Y-37309037D01*
X141476739Y-37442805D01*
X141283140Y-37312123D01*
X141033500Y-37262060D01*
X139382500Y-37262060D01*
X139140377Y-37309037D01*
X138936739Y-37442805D01*
X138743140Y-37312123D01*
X138493500Y-37262060D01*
X136842500Y-37262060D01*
X136600377Y-37309037D01*
X136387573Y-37448827D01*
X136245123Y-37659860D01*
X136195060Y-37909500D01*
X136195060Y-39560500D01*
X136242037Y-39802623D01*
X136375805Y-40006260D01*
X136245123Y-40199860D01*
X136195060Y-40449500D01*
X136195060Y-41400628D01*
X135571666Y-40777234D01*
X135203446Y-40531197D01*
X134769100Y-40444800D01*
X134325303Y-40444800D01*
X134229773Y-40299373D01*
X134018740Y-40156923D01*
X133769100Y-40106860D01*
X132118100Y-40106860D01*
X131875977Y-40153837D01*
X131672339Y-40287605D01*
X131478740Y-40156923D01*
X131229100Y-40106860D01*
X129578100Y-40106860D01*
X129335977Y-40153837D01*
X129123173Y-40293627D01*
X129021129Y-40444800D01*
X128514600Y-40444800D01*
X128080254Y-40531197D01*
X127712034Y-40777234D01*
X127659908Y-40829360D01*
X127617600Y-40829360D01*
X127375477Y-40876337D01*
X127177540Y-41006360D01*
X127177540Y-40500300D01*
X127130563Y-40258177D01*
X126996794Y-40054539D01*
X127127477Y-39860940D01*
X127177540Y-39611300D01*
X127177540Y-37960300D01*
X127130563Y-37718177D01*
X126990773Y-37505373D01*
X126779740Y-37362923D01*
X126530100Y-37312860D01*
X124879100Y-37312860D01*
X124636977Y-37359837D01*
X124433339Y-37493605D01*
X124239740Y-37362923D01*
X123990100Y-37312860D01*
X122339100Y-37312860D01*
X122096977Y-37359837D01*
X121893339Y-37493605D01*
X121699740Y-37362923D01*
X121450100Y-37312860D01*
X119799100Y-37312860D01*
X119556977Y-37359837D01*
X119353339Y-37493605D01*
X119159740Y-37362923D01*
X118910100Y-37312860D01*
X117259100Y-37312860D01*
X117016977Y-37359837D01*
X116804173Y-37499627D01*
X116661723Y-37710660D01*
X116611660Y-37960300D01*
X116611660Y-39611300D01*
X116658637Y-39853423D01*
X116792405Y-40057060D01*
X116661723Y-40250660D01*
X116611660Y-40500300D01*
X116611660Y-42151300D01*
X116658637Y-42393423D01*
X116798427Y-42606227D01*
X117009460Y-42748677D01*
X117199600Y-42786807D01*
X117199600Y-52315220D01*
X116862460Y-52652360D01*
X116166600Y-52652360D01*
X115924477Y-52699337D01*
X115711673Y-52839127D01*
X115569223Y-53050160D01*
X115519160Y-53299800D01*
X115519160Y-54599800D01*
X115566137Y-54841923D01*
X115636984Y-54949774D01*
X115569223Y-55050160D01*
X115519160Y-55299800D01*
X115519160Y-56599800D01*
X115566137Y-56841923D01*
X115705927Y-57054727D01*
X115916960Y-57197177D01*
X115952381Y-57204280D01*
X115952382Y-57204280D01*
X115987789Y-57382284D01*
X115998967Y-57438475D01*
X116190810Y-57725590D01*
X116596607Y-58131386D01*
X116596610Y-58131390D01*
X116596611Y-58131390D01*
X116883725Y-58323233D01*
X116883726Y-58323233D01*
X116939915Y-58334410D01*
X117222400Y-58390601D01*
X117222400Y-58390600D01*
X117222405Y-58390600D01*
X119938794Y-58390600D01*
X119938800Y-58390601D01*
X119938800Y-58390600D01*
X120221284Y-58334410D01*
X120277474Y-58323233D01*
X120277475Y-58323233D01*
X120564590Y-58131390D01*
X126330386Y-52365592D01*
X126330390Y-52365590D01*
X126330390Y-52365589D01*
X126458575Y-52173746D01*
X126522233Y-52078475D01*
X126522234Y-52078474D01*
X126589600Y-51739800D01*
X126589601Y-51739800D01*
X126589600Y-51739794D01*
X126589600Y-42787195D01*
X126772223Y-42751763D01*
X126985027Y-42611973D01*
X126993850Y-42598901D01*
X127017137Y-42718923D01*
X127156927Y-42931727D01*
X127367960Y-43074177D01*
X127617600Y-43124240D01*
X128617600Y-43124240D01*
X128859723Y-43077263D01*
X129072527Y-42937473D01*
X129122402Y-42863585D01*
X129328460Y-43002677D01*
X129578100Y-43052740D01*
X131229100Y-43052740D01*
X131471223Y-43005763D01*
X131674860Y-42871994D01*
X131868460Y-43002677D01*
X132118100Y-43052740D01*
X133769100Y-43052740D01*
X134011223Y-43005763D01*
X134224027Y-42865973D01*
X134315148Y-42730980D01*
X139117200Y-47533032D01*
X139117200Y-54538152D01*
X139010077Y-54558937D01*
X138797273Y-54698727D01*
X138654823Y-54909760D01*
X138604760Y-55159400D01*
X138604760Y-57159400D01*
X138651737Y-57401523D01*
X138791527Y-57614327D01*
X139002560Y-57756777D01*
X139252200Y-57806840D01*
X141252200Y-57806840D01*
X141494323Y-57759863D01*
X141707127Y-57620073D01*
X141849577Y-57409040D01*
X141899640Y-57159400D01*
X141899640Y-57084800D01*
X142250478Y-57084800D01*
X142416960Y-57197177D01*
X142666600Y-57247240D01*
X143966600Y-57247240D01*
X144208723Y-57200263D01*
X144316574Y-57129415D01*
X144416960Y-57197177D01*
X144666600Y-57247240D01*
X145966600Y-57247240D01*
X146208723Y-57200263D01*
X146316574Y-57129415D01*
X146416960Y-57197177D01*
X146666600Y-57247240D01*
X147782490Y-57247240D01*
X147697223Y-57373560D01*
X147647160Y-57623200D01*
X147647160Y-59623200D01*
X147694137Y-59865323D01*
X147833927Y-60078127D01*
X148044960Y-60220577D01*
X148294600Y-60270640D01*
X150294600Y-60270640D01*
X150536723Y-60223663D01*
X150749527Y-60083873D01*
X150891977Y-59872840D01*
X150899849Y-59833582D01*
X150974633Y-59908366D01*
X150974634Y-59908366D01*
X151342854Y-60154403D01*
X151777200Y-60240800D01*
X154940602Y-60240800D01*
X155374947Y-60154403D01*
X155374948Y-60154403D01*
X155743168Y-59908366D01*
X157275600Y-58375934D01*
X157275600Y-60376600D01*
M02*
