solid OpenSCAD_Model
  facet normal -1 0 0
    outer loop
      vertex 0 0 0
      vertex 0 0 4.39
      vertex 0 83 0
    endloop
  endfacet
  facet normal -1 0 0
    outer loop
      vertex 0 83 0
      vertex 0 0 4.39
      vertex 0 9.1 4.39
    endloop
  endfacet
  facet normal -1 0 0
    outer loop
      vertex 0 83 0
      vertex 0 9.1 4.39
      vertex 0 9.1 12.39
    endloop
  endfacet
  facet normal -1 0 0
    outer loop
      vertex 0 83 0
      vertex 0 9.1 12.39
      vertex 0 83 12.39
    endloop
  endfacet
  facet normal 0 -1 0
    outer loop
      vertex 0 0 4.39
      vertex 0 0 0
      vertex 48 0 0
    endloop
  endfacet
  facet normal 0 -1 0
    outer loop
      vertex 48 0 4.39
      vertex 0 0 4.39
      vertex 48 0 0
    endloop
  endfacet
  facet normal 0 0 -1
    outer loop
      vertex 4.95 82.0115 0
      vertex 0 83 0
      vertex 48 83 0
    endloop
  endfacet
  facet normal 0 0 -1
    outer loop
      vertex 0 0 0
      vertex 0 83 0
      vertex 0.6 3.5 0
    endloop
  endfacet
  facet normal 0 0 -1
    outer loop
      vertex 0 0 0
      vertex 0.6 3.5 0
      vertex 2.05 0.988526 0
    endloop
  endfacet
  facet normal 0 0 -1
    outer loop
      vertex 0 0 0
      vertex 2.05 0.988526 0
      vertex 48 0 0
    endloop
  endfacet
  facet normal 0 0 -1
    outer loop
      vertex 2.05 0.988526 0
      vertex 4.95 0.988526 0
      vertex 48 0 0
    endloop
  endfacet
  facet normal 0 0 -1
    outer loop
      vertex 4.95 6.01147 0
      vertex 0 83 0
      vertex 6.4 3.5 0
    endloop
  endfacet
  facet normal 0 0 -1
    outer loop
      vertex 0.6 79.5 0
      vertex 0 83 0
      vertex 2.05 82.0115 0
    endloop
  endfacet
  facet normal 0 0 -1
    outer loop
      vertex 2.05 6.01147 0
      vertex 0 83 0
      vertex 4.95 6.01147 0
    endloop
  endfacet
  facet normal 0 0 -1
    outer loop
      vertex 0.6 3.5 0
      vertex 0 83 0
      vertex 2.05 6.01147 0
    endloop
  endfacet
  facet normal 0 0 -1
    outer loop
      vertex 6.4 3.5 0
      vertex 0 83 0
      vertex 0.6 79.5 0
    endloop
  endfacet
  facet normal 0 0 -1
    outer loop
      vertex 43.05 6.01147 0
      vertex 2.05 76.9885 0
      vertex 4.95 76.9885 0
    endloop
  endfacet
  facet normal 0 0 -1
    outer loop
      vertex 6.4 3.5 0
      vertex 0.6 79.5 0
      vertex 2.05 76.9885 0
    endloop
  endfacet
  facet normal 0 0 -1
    outer loop
      vertex 43.05 82.0115 0
      vertex 4.95 76.9885 0
      vertex 48 83 0
    endloop
  endfacet
  facet normal 0 0 -1
    outer loop
      vertex 4.95 76.9885 0
      vertex 6.4 79.5 0
      vertex 48 83 0
    endloop
  endfacet
  facet normal 0 0 -1
    outer loop
      vertex 2.05 82.0115 0
      vertex 0 83 0
      vertex 4.95 82.0115 0
    endloop
  endfacet
  facet normal 0 0 -1
    outer loop
      vertex 6.4 79.5 0
      vertex 4.95 82.0115 0
      vertex 48 83 0
    endloop
  endfacet
  facet normal 0 0 -1
    outer loop
      vertex 41.6 79.5 0
      vertex 4.95 76.9885 0
      vertex 43.05 82.0115 0
    endloop
  endfacet
  facet normal 0 0 -1
    outer loop
      vertex 6.4 3.5 0
      vertex 2.05 76.9885 0
      vertex 41.6 3.5 0
    endloop
  endfacet
  facet normal 0 0 -1
    outer loop
      vertex 6.4 3.5 0
      vertex 41.6 3.5 0
      vertex 43.05 0.988526 0
    endloop
  endfacet
  facet normal 0 0 -1
    outer loop
      vertex 6.4 3.5 0
      vertex 43.05 0.988526 0
      vertex 48 0 0
    endloop
  endfacet
  facet normal 0 0 -1
    outer loop
      vertex 43.05 0.988526 0
      vertex 45.95 0.988526 0
      vertex 48 0 0
    endloop
  endfacet
  facet normal 0 0 -1
    outer loop
      vertex 43.05 6.01147 0
      vertex 4.95 76.9885 0
      vertex 45.95 6.01147 0
    endloop
  endfacet
  facet normal 0 0 -1
    outer loop
      vertex 48 0 0
      vertex 47.4 3.5 0
      vertex 48 83 0
    endloop
  endfacet
  facet normal 0 0 -1
    outer loop
      vertex 47.4 3.5 0
      vertex 45.95 6.01147 0
      vertex 48 83 0
    endloop
  endfacet
  facet normal 0 0 -1
    outer loop
      vertex 41.6 3.5 0
      vertex 2.05 76.9885 0
      vertex 43.05 6.01147 0
    endloop
  endfacet
  facet normal 0 0 -1
    outer loop
      vertex 45.95 6.01147 0
      vertex 4.95 76.9885 0
      vertex 41.6 79.5 0
    endloop
  endfacet
  facet normal 0 0 -1
    outer loop
      vertex 45.95 6.01147 0
      vertex 41.6 79.5 0
      vertex 43.05 76.9885 0
    endloop
  endfacet
  facet normal 0 0 -1
    outer loop
      vertex 45.95 6.01147 0
      vertex 43.05 76.9885 0
      vertex 45.95 76.9885 0
    endloop
  endfacet
  facet normal 0 0 -1
    outer loop
      vertex 45.95 6.01147 0
      vertex 45.95 76.9885 0
      vertex 47.4 79.5 0
    endloop
  endfacet
  facet normal 0 0 -1
    outer loop
      vertex 45.95 6.01147 0
      vertex 47.4 79.5 0
      vertex 48 83 0
    endloop
  endfacet
  facet normal 0 0 -1
    outer loop
      vertex 45.95 82.0115 0
      vertex 48 83 0
      vertex 47.4 79.5 0
    endloop
  endfacet
  facet normal 0 0 -1
    outer loop
      vertex 45.95 82.0115 0
      vertex 43.05 82.0115 0
      vertex 48 83 0
    endloop
  endfacet
  facet normal 0 0 -1
    outer loop
      vertex 6.4 3.5 0
      vertex 48 0 0
      vertex 4.95 0.988526 0
    endloop
  endfacet
  facet normal 0 0 -1
    outer loop
      vertex 47.4 3.5 0
      vertex 48 0 0
      vertex 45.95 0.988526 0
    endloop
  endfacet
  facet normal 0 1 0
    outer loop
      vertex 0 83 0
      vertex 0 83 12.39
      vertex 48 83 0
    endloop
  endfacet
  facet normal 0 1 0
    outer loop
      vertex 48 83 0
      vertex 0 83 12.39
      vertex 48 83 12.39
    endloop
  endfacet
  facet normal 0 0 1
    outer loop
      vertex 0 83 12.39
      vertex 0 9.1 12.39
      vertex 1 9.1 12.39
    endloop
  endfacet
  facet normal 0 0 1
    outer loop
      vertex 2.20557 78.5595 12.39
      vertex 0 83 12.39
      vertex 1 45 12.39
    endloop
  endfacet
  facet normal 0 0 1
    outer loop
      vertex 1 45 12.39
      vertex 0 83 12.39
      vertex 1 9.1 12.39
    endloop
  endfacet
  facet normal 0 0 1
    outer loop
      vertex 48 44 12.39
      vertex 47 45 12.39
      vertex 47 44 12.39
    endloop
  endfacet
  facet normal 0 0 1
    outer loop
      vertex 48 83 12.39
      vertex 47 45 12.39
      vertex 48 44 12.39
    endloop
  endfacet
  facet normal 0 0 1
    outer loop
      vertex 3 50 12.39
      vertex 2.20557 78.5595 12.39
      vertex 1 45 12.39
    endloop
  endfacet
  facet normal 0 0 1
    outer loop
      vertex 1.9 79.5 12.39
      vertex 0 83 12.39
      vertex 2.20557 78.5595 12.39
    endloop
  endfacet
  facet normal 0 0 1
    outer loop
      vertex 2.20557 80.4405 12.39
      vertex 0 83 12.39
      vertex 1.9 79.5 12.39
    endloop
  endfacet
  facet normal 0 0 1
    outer loop
      vertex 5.1 79.5 12.39
      vertex 45 77 12.39
      vertex 4.79443 80.4405 12.39
    endloop
  endfacet
  facet normal 0 0 1
    outer loop
      vertex 48 83 12.39
      vertex 0 83 12.39
      vertex 3.00557 81.0217 12.39
    endloop
  endfacet
  facet normal 0 0 1
    outer loop
      vertex 4.79443 78.5595 12.39
      vertex 45 77 12.39
      vertex 5.1 79.5 12.39
    endloop
  endfacet
  facet normal 0 0 1
    outer loop
      vertex 48 83 12.39
      vertex 3.00557 81.0217 12.39
      vertex 3.99443 81.0217 12.39
    endloop
  endfacet
  facet normal 0 0 1
    outer loop
      vertex 48 83 12.39
      vertex 3.99443 81.0217 12.39
      vertex 4.79443 80.4405 12.39
    endloop
  endfacet
  facet normal 0 0 1
    outer loop
      vertex 3 77 12.39
      vertex 4.79443 78.5595 12.39
      vertex 3.99443 77.9783 12.39
    endloop
  endfacet
  facet normal 0 0 1
    outer loop
      vertex 3 77 12.39
      vertex 45 77 12.39
      vertex 4.79443 78.5595 12.39
    endloop
  endfacet
  facet normal 0 0 1
    outer loop
      vertex 3 77 12.39
      vertex 3.99443 77.9783 12.39
      vertex 3.00557 77.9783 12.39
    endloop
  endfacet
  facet normal 0 0 1
    outer loop
      vertex 3 77 12.39
      vertex 3.00557 77.9783 12.39
      vertex 2.20557 78.5595 12.39
    endloop
  endfacet
  facet normal 0 0 1
    outer loop
      vertex 47 45 12.39
      vertex 3 50 12.39
      vertex 1 45 12.39
    endloop
  endfacet
  facet normal 0 0 1
    outer loop
      vertex 3 77 12.39
      vertex 2.20557 78.5595 12.39
      vertex 3 50 12.39
    endloop
  endfacet
  facet normal 0 0 1
    outer loop
      vertex 45.7944 78.5595 12.39
      vertex 45 77 12.39
      vertex 47 45 12.39
    endloop
  endfacet
  facet normal 0 0 1
    outer loop
      vertex 43.2056 78.5595 12.39
      vertex 4.79443 80.4405 12.39
      vertex 45 77 12.39
    endloop
  endfacet
  facet normal 0 0 1
    outer loop
      vertex 45 77 12.39
      vertex 45 50 12.39
      vertex 47 45 12.39
    endloop
  endfacet
  facet normal 0 0 1
    outer loop
      vertex 44.0056 77.9783 12.39
      vertex 43.2056 78.5595 12.39
      vertex 45 77 12.39
    endloop
  endfacet
  facet normal 0 0 1
    outer loop
      vertex 42.9 79.5 12.39
      vertex 4.79443 80.4405 12.39
      vertex 43.2056 78.5595 12.39
    endloop
  endfacet
  facet normal 0 0 1
    outer loop
      vertex 46.1 79.5 12.39
      vertex 45.7944 78.5595 12.39
      vertex 48 83 12.39
    endloop
  endfacet
  facet normal 0 0 1
    outer loop
      vertex 43.2056 80.4405 12.39
      vertex 4.79443 80.4405 12.39
      vertex 42.9 79.5 12.39
    endloop
  endfacet
  facet normal 0 0 1
    outer loop
      vertex 44.0056 81.0217 12.39
      vertex 4.79443 80.4405 12.39
      vertex 43.2056 80.4405 12.39
    endloop
  endfacet
  facet normal 0 0 1
    outer loop
      vertex 48 83 12.39
      vertex 4.79443 80.4405 12.39
      vertex 44.0056 81.0217 12.39
    endloop
  endfacet
  facet normal 0 0 1
    outer loop
      vertex 45.7944 78.5595 12.39
      vertex 44.9944 77.9783 12.39
      vertex 45 77 12.39
    endloop
  endfacet
  facet normal 0 0 1
    outer loop
      vertex 48 83 12.39
      vertex 45.7944 80.4405 12.39
      vertex 46.1 79.5 12.39
    endloop
  endfacet
  facet normal 0 0 1
    outer loop
      vertex 48 83 12.39
      vertex 45.7944 78.5595 12.39
      vertex 47 45 12.39
    endloop
  endfacet
  facet normal 0 0 1
    outer loop
      vertex 44.9944 77.9783 12.39
      vertex 44.0056 77.9783 12.39
      vertex 45 77 12.39
    endloop
  endfacet
  facet normal 0 0 1
    outer loop
      vertex 2.20557 80.4405 12.39
      vertex 3.00557 81.0217 12.39
      vertex 0 83 12.39
    endloop
  endfacet
  facet normal 0 0 1
    outer loop
      vertex 44.0056 81.0217 12.39
      vertex 44.9944 81.0217 12.39
      vertex 48 83 12.39
    endloop
  endfacet
  facet normal 0 0 1
    outer loop
      vertex 44.9944 81.0217 12.39
      vertex 45.7944 80.4405 12.39
      vertex 48 83 12.39
    endloop
  endfacet
  facet normal 0 0 1
    outer loop
      vertex 45 50 12.39
      vertex 3 50 12.39
      vertex 47 45 12.39
    endloop
  endfacet
  facet normal 0 -1 0
    outer loop
      vertex 1 9.1 9.39
      vertex 0 9.1 4.39
      vertex 48 9.1 4.39
    endloop
  endfacet
  facet normal 0 -1 0
    outer loop
      vertex 48 9.1 4.39
      vertex 48 9.1 8.39
      vertex 30 9.1 8.39
    endloop
  endfacet
  facet normal 0 -1 0
    outer loop
      vertex 1 9.1 9.39
      vertex 48 9.1 4.39
      vertex 30 9.1 8.39
    endloop
  endfacet
  facet normal 0 -1 0
    outer loop
      vertex 30 9.1 9.39
      vertex 1 9.1 9.39
      vertex 30 9.1 8.39
    endloop
  endfacet
  facet normal 0 -1 0
    outer loop
      vertex 1 9.1 12.39
      vertex 0 9.1 12.39
      vertex 1 9.1 9.39
    endloop
  endfacet
  facet normal 0 -1 0
    outer loop
      vertex 0 9.1 12.39
      vertex 0 9.1 4.39
      vertex 1 9.1 9.39
    endloop
  endfacet
  facet normal 0 0 1
    outer loop
      vertex 43.05 6.01147 4.39
      vertex 48 9.1 4.39
      vertex 0 9.1 4.39
    endloop
  endfacet
  facet normal 0 0 1
    outer loop
      vertex 4.95 6.01147 4.39
      vertex 48 0 4.39
      vertex 0 9.1 4.39
    endloop
  endfacet
  facet normal 0 0 1
    outer loop
      vertex 0 0 4.39
      vertex 0.6 3.5 4.39
      vertex 0 9.1 4.39
    endloop
  endfacet
  facet normal 0 0 1
    outer loop
      vertex 0.6 3.5 4.39
      vertex 2.05 6.01147 4.39
      vertex 0 9.1 4.39
    endloop
  endfacet
  facet normal 0 0 1
    outer loop
      vertex 2.05 6.01147 4.39
      vertex 4.95 6.01147 4.39
      vertex 0 9.1 4.39
    endloop
  endfacet
  facet normal 0 0 1
    outer loop
      vertex 6.4 3.5 4.39
      vertex 4.95 0.988526 4.39
      vertex 48 0 4.39
    endloop
  endfacet
  facet normal 0 0 1
    outer loop
      vertex 43.05 0.988526 4.39
      vertex 41.6 3.5 4.39
      vertex 0 9.1 4.39
    endloop
  endfacet
  facet normal 0 0 1
    outer loop
      vertex 0 0 4.39
      vertex 48 0 4.39
      vertex 4.95 0.988526 4.39
    endloop
  endfacet
  facet normal 0 0 1
    outer loop
      vertex 0 0 4.39
      vertex 2.05 0.988526 4.39
      vertex 0.6 3.5 4.39
    endloop
  endfacet
  facet normal 0 0 1
    outer loop
      vertex 0 0 4.39
      vertex 4.95 0.988526 4.39
      vertex 2.05 0.988526 4.39
    endloop
  endfacet
  facet normal 0 0 1
    outer loop
      vertex 41.6 3.5 4.39
      vertex 43.05 6.01147 4.39
      vertex 0 9.1 4.39
    endloop
  endfacet
  facet normal 0 0 1
    outer loop
      vertex 47.4 3.5 4.39
      vertex 48 9.1 4.39
      vertex 45.95 6.01147 4.39
    endloop
  endfacet
  facet normal 0 0 1
    outer loop
      vertex 48 0 4.39
      vertex 48 9.1 4.39
      vertex 47.4 3.5 4.39
    endloop
  endfacet
  facet normal 0 0 1
    outer loop
      vertex 43.05 6.01147 4.39
      vertex 45.95 6.01147 4.39
      vertex 48 9.1 4.39
    endloop
  endfacet
  facet normal 0 0 1
    outer loop
      vertex 48 0 4.39
      vertex 43.05 0.988526 4.39
      vertex 0 9.1 4.39
    endloop
  endfacet
  facet normal 0 0 1
    outer loop
      vertex 48 0 4.39
      vertex 45.95 0.988526 4.39
      vertex 43.05 0.988526 4.39
    endloop
  endfacet
  facet normal 0 0 1
    outer loop
      vertex 4.95 6.01147 4.39
      vertex 6.4 3.5 4.39
      vertex 48 0 4.39
    endloop
  endfacet
  facet normal 0 0 1
    outer loop
      vertex 47.4 3.5 4.39
      vertex 45.95 0.988526 4.39
      vertex 48 0 4.39
    endloop
  endfacet
  facet normal 1 0 0
    outer loop
      vertex 48 0 4.39
      vertex 48 0 0
      vertex 48 83 0
    endloop
  endfacet
  facet normal 1 0 0
    outer loop
      vertex 48 37 7.89
      vertex 48 9.1 4.39
      vertex 48 44 7.89
    endloop
  endfacet
  facet normal 1 0 0
    outer loop
      vertex 48 9.1 4.39
      vertex 48 0 4.39
      vertex 48 83 0
    endloop
  endfacet
  facet normal 1 0 0
    outer loop
      vertex 48 83 12.39
      vertex 48 44 7.89
      vertex 48 83 0
    endloop
  endfacet
  facet normal 1 0 0
    outer loop
      vertex 48 9.1 8.39
      vertex 48 9.1 4.39
      vertex 48 37 7.89
    endloop
  endfacet
  facet normal 1 0 0
    outer loop
      vertex 48 9.1 8.39
      vertex 48 37 7.89
      vertex 48 37 8.39
    endloop
  endfacet
  facet normal 1 0 0
    outer loop
      vertex 48 44 7.89
      vertex 48 9.1 4.39
      vertex 48 83 0
    endloop
  endfacet
  facet normal 1 0 0
    outer loop
      vertex 48 44 12.39
      vertex 48 44 7.89
      vertex 48 83 12.39
    endloop
  endfacet
  facet normal 0.866025 -0.5 0
    outer loop
      vertex 2.05 6.01147 0
      vertex 2.05 6.01147 4.39
      vertex 0.6 3.5 4.39
    endloop
  endfacet
  facet normal 0.866025 -0.5 0
    outer loop
      vertex 0.6 3.5 0
      vertex 2.05 6.01147 0
      vertex 0.6 3.5 4.39
    endloop
  endfacet
  facet normal 0.866025 0.5 0
    outer loop
      vertex 0.6 3.5 4.39
      vertex 2.05 0.988526 4.39
      vertex 2.05 0.988526 0
    endloop
  endfacet
  facet normal 0.866025 0.5 0
    outer loop
      vertex 0.6 3.5 0
      vertex 0.6 3.5 4.39
      vertex 2.05 0.988526 0
    endloop
  endfacet
  facet normal 0 -1 0
    outer loop
      vertex 4.95 6.01147 0
      vertex 4.95 6.01147 4.39
      vertex 2.05 6.01147 4.39
    endloop
  endfacet
  facet normal 0 -1 0
    outer loop
      vertex 2.05 6.01147 0
      vertex 4.95 6.01147 0
      vertex 2.05 6.01147 4.39
    endloop
  endfacet
  facet normal -0.866025 -0.5 0
    outer loop
      vertex 6.4 3.5 4.39
      vertex 4.95 6.01147 4.39
      vertex 6.4 3.5 0
    endloop
  endfacet
  facet normal -0.866025 -0.5 0
    outer loop
      vertex 6.4 3.5 0
      vertex 4.95 6.01147 4.39
      vertex 4.95 6.01147 0
    endloop
  endfacet
  facet normal -0.866025 0.5 0
    outer loop
      vertex 6.4 3.5 4.39
      vertex 6.4 3.5 0
      vertex 4.95 0.988526 4.39
    endloop
  endfacet
  facet normal -0.866025 0.5 0
    outer loop
      vertex 4.95 0.988526 4.39
      vertex 6.4 3.5 0
      vertex 4.95 0.988526 0
    endloop
  endfacet
  facet normal 0 1 0
    outer loop
      vertex 4.95 0.988526 4.39
      vertex 4.95 0.988526 0
      vertex 2.05 0.988526 4.39
    endloop
  endfacet
  facet normal 0 1 0
    outer loop
      vertex 2.05 0.988526 4.39
      vertex 4.95 0.988526 0
      vertex 2.05 0.988526 0
    endloop
  endfacet
  facet normal 0.866025 -0.5 0
    outer loop
      vertex 2.05 82.0115 0
      vertex 2.05 82.0115 3.175
      vertex 0.6 79.5 3.175
    endloop
  endfacet
  facet normal 0.866025 -0.5 0
    outer loop
      vertex 0.6 79.5 0
      vertex 2.05 82.0115 0
      vertex 0.6 79.5 3.175
    endloop
  endfacet
  facet normal 0.866025 0.5 0
    outer loop
      vertex 0.6 79.5 3.175
      vertex 2.05 76.9885 3.175
      vertex 2.05 76.9885 0
    endloop
  endfacet
  facet normal 0.866025 0.5 0
    outer loop
      vertex 0.6 79.5 0
      vertex 0.6 79.5 3.175
      vertex 2.05 76.9885 0
    endloop
  endfacet
  facet normal 0 -1 0
    outer loop
      vertex 4.95 82.0115 0
      vertex 4.95 82.0115 3.175
      vertex 2.05 82.0115 3.175
    endloop
  endfacet
  facet normal 0 -1 0
    outer loop
      vertex 2.05 82.0115 0
      vertex 4.95 82.0115 0
      vertex 2.05 82.0115 3.175
    endloop
  endfacet
  facet normal -0.866025 -0.5 0
    outer loop
      vertex 6.4 79.5 3.175
      vertex 4.95 82.0115 3.175
      vertex 6.4 79.5 0
    endloop
  endfacet
  facet normal -0.866025 -0.5 0
    outer loop
      vertex 6.4 79.5 0
      vertex 4.95 82.0115 3.175
      vertex 4.95 82.0115 0
    endloop
  endfacet
  facet normal -0.866025 0.5 0
    outer loop
      vertex 6.4 79.5 3.175
      vertex 6.4 79.5 0
      vertex 4.95 76.9885 3.175
    endloop
  endfacet
  facet normal -0.866025 0.5 0
    outer loop
      vertex 4.95 76.9885 3.175
      vertex 6.4 79.5 0
      vertex 4.95 76.9885 0
    endloop
  endfacet
  facet normal 0 1 0
    outer loop
      vertex 4.95 76.9885 3.175
      vertex 4.95 76.9885 0
      vertex 2.05 76.9885 3.175
    endloop
  endfacet
  facet normal 0 1 0
    outer loop
      vertex 2.05 76.9885 3.175
      vertex 4.95 76.9885 0
      vertex 2.05 76.9885 0
    endloop
  endfacet
  facet normal 0.866025 -0.5 0
    outer loop
      vertex 43.05 6.01147 0
      vertex 43.05 6.01147 4.39
      vertex 41.6 3.5 4.39
    endloop
  endfacet
  facet normal 0.866025 -0.5 0
    outer loop
      vertex 41.6 3.5 0
      vertex 43.05 6.01147 0
      vertex 41.6 3.5 4.39
    endloop
  endfacet
  facet normal 0.866025 0.5 0
    outer loop
      vertex 41.6 3.5 4.39
      vertex 43.05 0.988526 4.39
      vertex 43.05 0.988526 0
    endloop
  endfacet
  facet normal 0.866025 0.5 0
    outer loop
      vertex 41.6 3.5 0
      vertex 41.6 3.5 4.39
      vertex 43.05 0.988526 0
    endloop
  endfacet
  facet normal 0 -1 0
    outer loop
      vertex 45.95 6.01147 0
      vertex 45.95 6.01147 4.39
      vertex 43.05 6.01147 4.39
    endloop
  endfacet
  facet normal 0 -1 0
    outer loop
      vertex 43.05 6.01147 0
      vertex 45.95 6.01147 0
      vertex 43.05 6.01147 4.39
    endloop
  endfacet
  facet normal -0.866025 -0.5 0
    outer loop
      vertex 47.4 3.5 4.39
      vertex 45.95 6.01147 4.39
      vertex 47.4 3.5 0
    endloop
  endfacet
  facet normal -0.866025 -0.5 0
    outer loop
      vertex 47.4 3.5 0
      vertex 45.95 6.01147 4.39
      vertex 45.95 6.01147 0
    endloop
  endfacet
  facet normal -0.866025 0.5 0
    outer loop
      vertex 47.4 3.5 4.39
      vertex 47.4 3.5 0
      vertex 45.95 0.988526 4.39
    endloop
  endfacet
  facet normal -0.866025 0.5 0
    outer loop
      vertex 45.95 0.988526 4.39
      vertex 47.4 3.5 0
      vertex 45.95 0.988526 0
    endloop
  endfacet
  facet normal 0 1 0
    outer loop
      vertex 45.95 0.988526 4.39
      vertex 45.95 0.988526 0
      vertex 43.05 0.988526 4.39
    endloop
  endfacet
  facet normal 0 1 0
    outer loop
      vertex 43.05 0.988526 4.39
      vertex 45.95 0.988526 0
      vertex 43.05 0.988526 0
    endloop
  endfacet
  facet normal 0.866025 -0.5 0
    outer loop
      vertex 43.05 82.0115 0
      vertex 43.05 82.0115 3.175
      vertex 41.6 79.5 3.175
    endloop
  endfacet
  facet normal 0.866025 -0.5 0
    outer loop
      vertex 41.6 79.5 0
      vertex 43.05 82.0115 0
      vertex 41.6 79.5 3.175
    endloop
  endfacet
  facet normal 0.866025 0.5 0
    outer loop
      vertex 41.6 79.5 3.175
      vertex 43.05 76.9885 3.175
      vertex 43.05 76.9885 0
    endloop
  endfacet
  facet normal 0.866025 0.5 0
    outer loop
      vertex 41.6 79.5 0
      vertex 41.6 79.5 3.175
      vertex 43.05 76.9885 0
    endloop
  endfacet
  facet normal 0 -1 0
    outer loop
      vertex 45.95 82.0115 0
      vertex 45.95 82.0115 3.175
      vertex 43.05 82.0115 3.175
    endloop
  endfacet
  facet normal 0 -1 0
    outer loop
      vertex 43.05 82.0115 0
      vertex 45.95 82.0115 0
      vertex 43.05 82.0115 3.175
    endloop
  endfacet
  facet normal -0.866025 -0.5 0
    outer loop
      vertex 47.4 79.5 3.175
      vertex 45.95 82.0115 3.175
      vertex 47.4 79.5 0
    endloop
  endfacet
  facet normal -0.866025 -0.5 0
    outer loop
      vertex 47.4 79.5 0
      vertex 45.95 82.0115 3.175
      vertex 45.95 82.0115 0
    endloop
  endfacet
  facet normal -0.866025 0.5 0
    outer loop
      vertex 47.4 79.5 3.175
      vertex 47.4 79.5 0
      vertex 45.95 76.9885 3.175
    endloop
  endfacet
  facet normal -0.866025 0.5 0
    outer loop
      vertex 45.95 76.9885 3.175
      vertex 47.4 79.5 0
      vertex 45.95 76.9885 0
    endloop
  endfacet
  facet normal 0 1 0
    outer loop
      vertex 45.95 76.9885 3.175
      vertex 45.95 76.9885 0
      vertex 43.05 76.9885 3.175
    endloop
  endfacet
  facet normal 0 1 0
    outer loop
      vertex 43.05 76.9885 3.175
      vertex 45.95 76.9885 0
      vertex 43.05 76.9885 0
    endloop
  endfacet
  facet normal 0 -1 0
    outer loop
      vertex 48 44 7.89
      vertex 48 44 12.39
      vertex 47 44 12.39
    endloop
  endfacet
  facet normal 0 -1 0
    outer loop
      vertex 30 44 9.39
      vertex 48 44 7.89
      vertex 47 44 9.39
    endloop
  endfacet
  facet normal 0 -1 0
    outer loop
      vertex 47 44 9.39
      vertex 48 44 7.89
      vertex 47 44 12.39
    endloop
  endfacet
  facet normal 0 -1 0
    outer loop
      vertex 30 44 7.89
      vertex 48 44 7.89
      vertex 30 44 9.39
    endloop
  endfacet
  facet normal -1 0 0
    outer loop
      vertex 47 45 12.39
      vertex 47 45 9.39
      vertex 47 44 12.39
    endloop
  endfacet
  facet normal -1 0 0
    outer loop
      vertex 47 44 12.39
      vertex 47 45 9.39
      vertex 47 44 9.39
    endloop
  endfacet
  facet normal 0 -1 0
    outer loop
      vertex 47 45 9.39
      vertex 47 45 12.39
      vertex 1 45 12.39
    endloop
  endfacet
  facet normal 0 -1 0
    outer loop
      vertex 1 45 9.39
      vertex 47 45 9.39
      vertex 1 45 12.39
    endloop
  endfacet
  facet normal 1 0 0
    outer loop
      vertex 1 45 9.39
      vertex 1 45 12.39
      vertex 1 9.1 12.39
    endloop
  endfacet
  facet normal 1 0 0
    outer loop
      vertex 1 9.1 9.39
      vertex 1 45 9.39
      vertex 1 9.1 12.39
    endloop
  endfacet
  facet normal 0.951056 0.309017 0
    outer loop
      vertex 1.9 79.5 12.39
      vertex 2.20557 78.5595 12.39
      vertex 2.20557 78.5595 3.175
    endloop
  endfacet
  facet normal 0.951056 0.309017 0
    outer loop
      vertex 1.9 79.5 3.175
      vertex 1.9 79.5 12.39
      vertex 2.20557 78.5595 3.175
    endloop
  endfacet
  facet normal 0.587785 0.809017 0
    outer loop
      vertex 3.00557 77.9783 12.39
      vertex 3.00557 77.9783 3.175
      vertex 2.20557 78.5595 12.39
    endloop
  endfacet
  facet normal 0.587785 0.809017 0
    outer loop
      vertex 2.20557 78.5595 12.39
      vertex 3.00557 77.9783 3.175
      vertex 2.20557 78.5595 3.175
    endloop
  endfacet
  facet normal 0 1 0
    outer loop
      vertex 3.99443 77.9783 12.39
      vertex 3.99443 77.9783 3.175
      vertex 3.00557 77.9783 12.39
    endloop
  endfacet
  facet normal 0 1 0
    outer loop
      vertex 3.00557 77.9783 12.39
      vertex 3.99443 77.9783 3.175
      vertex 3.00557 77.9783 3.175
    endloop
  endfacet
  facet normal -0.587785 0.809017 0
    outer loop
      vertex 4.79443 78.5595 12.39
      vertex 4.79443 78.5595 3.175
      vertex 3.99443 77.9783 12.39
    endloop
  endfacet
  facet normal -0.587785 0.809017 0
    outer loop
      vertex 3.99443 77.9783 12.39
      vertex 4.79443 78.5595 3.175
      vertex 3.99443 77.9783 3.175
    endloop
  endfacet
  facet normal -0.951056 0.309017 0
    outer loop
      vertex 5.1 79.5 12.39
      vertex 5.1 79.5 3.175
      vertex 4.79443 78.5595 12.39
    endloop
  endfacet
  facet normal -0.951056 0.309017 0
    outer loop
      vertex 4.79443 78.5595 12.39
      vertex 5.1 79.5 3.175
      vertex 4.79443 78.5595 3.175
    endloop
  endfacet
  facet normal -0.951056 -0.309017 0
    outer loop
      vertex 5.1 79.5 12.39
      vertex 4.79443 80.4405 12.39
      vertex 5.1 79.5 3.175
    endloop
  endfacet
  facet normal -0.951056 -0.309017 0
    outer loop
      vertex 5.1 79.5 3.175
      vertex 4.79443 80.4405 12.39
      vertex 4.79443 80.4405 3.175
    endloop
  endfacet
  facet normal -0.587785 -0.809017 0
    outer loop
      vertex 4.79443 80.4405 3.175
      vertex 4.79443 80.4405 12.39
      vertex 3.99443 81.0217 12.39
    endloop
  endfacet
  facet normal -0.587785 -0.809017 0
    outer loop
      vertex 3.99443 81.0217 3.175
      vertex 4.79443 80.4405 3.175
      vertex 3.99443 81.0217 12.39
    endloop
  endfacet
  facet normal 0 -1 0
    outer loop
      vertex 3.99443 81.0217 3.175
      vertex 3.99443 81.0217 12.39
      vertex 3.00557 81.0217 12.39
    endloop
  endfacet
  facet normal 0 -1 0
    outer loop
      vertex 3.00557 81.0217 3.175
      vertex 3.99443 81.0217 3.175
      vertex 3.00557 81.0217 12.39
    endloop
  endfacet
  facet normal 0.587785 -0.809017 0
    outer loop
      vertex 3.00557 81.0217 3.175
      vertex 3.00557 81.0217 12.39
      vertex 2.20557 80.4405 12.39
    endloop
  endfacet
  facet normal 0.587785 -0.809017 0
    outer loop
      vertex 2.20557 80.4405 3.175
      vertex 3.00557 81.0217 3.175
      vertex 2.20557 80.4405 12.39
    endloop
  endfacet
  facet normal 0.951056 -0.309017 0
    outer loop
      vertex 2.20557 80.4405 3.175
      vertex 2.20557 80.4405 12.39
      vertex 1.9 79.5 12.39
    endloop
  endfacet
  facet normal 0.951056 -0.309017 0
    outer loop
      vertex 1.9 79.5 3.175
      vertex 2.20557 80.4405 3.175
      vertex 1.9 79.5 12.39
    endloop
  endfacet
  facet normal 1 0 0
    outer loop
      vertex 3 77 9.39
      vertex 3 77 12.39
      vertex 3 50 12.39
    endloop
  endfacet
  facet normal 1 0 0
    outer loop
      vertex 3 50 9.39
      vertex 3 77 9.39
      vertex 3 50 12.39
    endloop
  endfacet
  facet normal 0 1 0
    outer loop
      vertex 45 50 12.39
      vertex 45 50 9.39
      vertex 3 50 12.39
    endloop
  endfacet
  facet normal 0 1 0
    outer loop
      vertex 3 50 12.39
      vertex 45 50 9.39
      vertex 3 50 9.39
    endloop
  endfacet
  facet normal -1 0 0
    outer loop
      vertex 45 77 12.39
      vertex 45 77 9.39
      vertex 45 50 12.39
    endloop
  endfacet
  facet normal -1 0 0
    outer loop
      vertex 45 50 12.39
      vertex 45 77 9.39
      vertex 45 50 9.39
    endloop
  endfacet
  facet normal 0 -1 0
    outer loop
      vertex 45 77 9.39
      vertex 45 77 12.39
      vertex 3 77 12.39
    endloop
  endfacet
  facet normal 0 -1 0
    outer loop
      vertex 3 77 9.39
      vertex 45 77 9.39
      vertex 3 77 12.39
    endloop
  endfacet
  facet normal 0.951056 0.309017 0
    outer loop
      vertex 42.9 79.5 12.39
      vertex 43.2056 78.5595 12.39
      vertex 43.2056 78.5595 3.175
    endloop
  endfacet
  facet normal 0.951056 0.309017 0
    outer loop
      vertex 42.9 79.5 3.175
      vertex 42.9 79.5 12.39
      vertex 43.2056 78.5595 3.175
    endloop
  endfacet
  facet normal 0.587785 0.809017 0
    outer loop
      vertex 44.0056 77.9783 12.39
      vertex 44.0056 77.9783 3.175
      vertex 43.2056 78.5595 12.39
    endloop
  endfacet
  facet normal 0.587785 0.809017 0
    outer loop
      vertex 43.2056 78.5595 12.39
      vertex 44.0056 77.9783 3.175
      vertex 43.2056 78.5595 3.175
    endloop
  endfacet
  facet normal 0 1 0
    outer loop
      vertex 44.9944 77.9783 12.39
      vertex 44.9944 77.9783 3.175
      vertex 44.0056 77.9783 12.39
    endloop
  endfacet
  facet normal 0 1 0
    outer loop
      vertex 44.0056 77.9783 12.39
      vertex 44.9944 77.9783 3.175
      vertex 44.0056 77.9783 3.175
    endloop
  endfacet
  facet normal -0.587785 0.809017 0
    outer loop
      vertex 45.7944 78.5595 12.39
      vertex 45.7944 78.5595 3.175
      vertex 44.9944 77.9783 12.39
    endloop
  endfacet
  facet normal -0.587785 0.809017 0
    outer loop
      vertex 44.9944 77.9783 12.39
      vertex 45.7944 78.5595 3.175
      vertex 44.9944 77.9783 3.175
    endloop
  endfacet
  facet normal -0.951056 0.309017 0
    outer loop
      vertex 46.1 79.5 12.39
      vertex 46.1 79.5 3.175
      vertex 45.7944 78.5595 12.39
    endloop
  endfacet
  facet normal -0.951056 0.309017 0
    outer loop
      vertex 45.7944 78.5595 12.39
      vertex 46.1 79.5 3.175
      vertex 45.7944 78.5595 3.175
    endloop
  endfacet
  facet normal -0.951056 -0.309017 0
    outer loop
      vertex 46.1 79.5 12.39
      vertex 45.7944 80.4405 12.39
      vertex 46.1 79.5 3.175
    endloop
  endfacet
  facet normal -0.951056 -0.309017 0
    outer loop
      vertex 46.1 79.5 3.175
      vertex 45.7944 80.4405 12.39
      vertex 45.7944 80.4405 3.175
    endloop
  endfacet
  facet normal -0.587785 -0.809017 0
    outer loop
      vertex 45.7944 80.4405 3.175
      vertex 45.7944 80.4405 12.39
      vertex 44.9944 81.0217 12.39
    endloop
  endfacet
  facet normal -0.587785 -0.809017 0
    outer loop
      vertex 44.9944 81.0217 3.175
      vertex 45.7944 80.4405 3.175
      vertex 44.9944 81.0217 12.39
    endloop
  endfacet
  facet normal 0 -1 0
    outer loop
      vertex 44.9944 81.0217 3.175
      vertex 44.9944 81.0217 12.39
      vertex 44.0056 81.0217 12.39
    endloop
  endfacet
  facet normal 0 -1 0
    outer loop
      vertex 44.0056 81.0217 3.175
      vertex 44.9944 81.0217 3.175
      vertex 44.0056 81.0217 12.39
    endloop
  endfacet
  facet normal 0.587785 -0.809017 0
    outer loop
      vertex 44.0056 81.0217 3.175
      vertex 44.0056 81.0217 12.39
      vertex 43.2056 80.4405 12.39
    endloop
  endfacet
  facet normal 0.587785 -0.809017 0
    outer loop
      vertex 43.2056 80.4405 3.175
      vertex 44.0056 81.0217 3.175
      vertex 43.2056 80.4405 12.39
    endloop
  endfacet
  facet normal 0.951056 -0.309017 0
    outer loop
      vertex 43.2056 80.4405 3.175
      vertex 43.2056 80.4405 12.39
      vertex 42.9 79.5 12.39
    endloop
  endfacet
  facet normal 0.951056 -0.309017 0
    outer loop
      vertex 42.9 79.5 3.175
      vertex 43.2056 80.4405 3.175
      vertex 42.9 79.5 12.39
    endloop
  endfacet
  facet normal 0 0 1
    outer loop
      vertex 47 45 9.39
      vertex 30 44 9.39
      vertex 47 44 9.39
    endloop
  endfacet
  facet normal 0 0 1
    outer loop
      vertex 1 45 9.39
      vertex 30 44 9.39
      vertex 47 45 9.39
    endloop
  endfacet
  facet normal 0 0 1
    outer loop
      vertex 30 9.1 9.39
      vertex 30 44 9.39
      vertex 1 45 9.39
    endloop
  endfacet
  facet normal 0 0 1
    outer loop
      vertex 1 9.1 9.39
      vertex 30 9.1 9.39
      vertex 1 45 9.39
    endloop
  endfacet
  facet normal 1 0 0
    outer loop
      vertex 30 37 8.39
      vertex 30 37 7.89
      vertex 30 44 7.89
    endloop
  endfacet
  facet normal 1 0 0
    outer loop
      vertex 30 9.1 9.39
      vertex 30 37 8.39
      vertex 30 44 9.39
    endloop
  endfacet
  facet normal 1 0 0
    outer loop
      vertex 30 44 9.39
      vertex 30 37 8.39
      vertex 30 44 7.89
    endloop
  endfacet
  facet normal 1 0 0
    outer loop
      vertex 30 9.1 8.39
      vertex 30 37 8.39
      vertex 30 9.1 9.39
    endloop
  endfacet
  facet normal 0 0 1
    outer loop
      vertex 48 9.1 8.39
      vertex 48 37 8.39
      vertex 30 37 8.39
    endloop
  endfacet
  facet normal 0 0 1
    outer loop
      vertex 30 9.1 8.39
      vertex 48 9.1 8.39
      vertex 30 37 8.39
    endloop
  endfacet
  facet normal 0 1 0
    outer loop
      vertex 48 37 8.39
      vertex 48 37 7.89
      vertex 30 37 8.39
    endloop
  endfacet
  facet normal 0 1 0
    outer loop
      vertex 30 37 8.39
      vertex 48 37 7.89
      vertex 30 37 7.89
    endloop
  endfacet
  facet normal 0 0 1
    outer loop
      vertex 48 37 7.89
      vertex 48 44 7.89
      vertex 30 44 7.89
    endloop
  endfacet
  facet normal 0 0 1
    outer loop
      vertex 30 37 7.89
      vertex 48 37 7.89
      vertex 30 44 7.89
    endloop
  endfacet
  facet normal 0 0 -1
    outer loop
      vertex 3.00557 81.0217 3.175
      vertex 2.05 82.0115 3.175
      vertex 3.99443 81.0217 3.175
    endloop
  endfacet
  facet normal 0 0 -1
    outer loop
      vertex 4.79443 78.5595 3.175
      vertex 6.4 79.5 3.175
      vertex 4.95 76.9885 3.175
    endloop
  endfacet
  facet normal 0 0 -1
    outer loop
      vertex 3.00557 77.9783 3.175
      vertex 4.95 76.9885 3.175
      vertex 2.05 76.9885 3.175
    endloop
  endfacet
  facet normal 0 0 -1
    outer loop
      vertex 1.9 79.5 3.175
      vertex 2.05 76.9885 3.175
      vertex 0.6 79.5 3.175
    endloop
  endfacet
  facet normal 0 0 -1
    outer loop
      vertex 4.79443 78.5595 3.175
      vertex 4.95 76.9885 3.175
      vertex 3.99443 77.9783 3.175
    endloop
  endfacet
  facet normal 0 0 -1
    outer loop
      vertex 3.99443 77.9783 3.175
      vertex 4.95 76.9885 3.175
      vertex 3.00557 77.9783 3.175
    endloop
  endfacet
  facet normal 0 0 -1
    outer loop
      vertex 2.20557 78.5595 3.175
      vertex 3.00557 77.9783 3.175
      vertex 2.05 76.9885 3.175
    endloop
  endfacet
  facet normal 0 0 -1
    outer loop
      vertex 5.1 79.5 3.175
      vertex 6.4 79.5 3.175
      vertex 4.79443 78.5595 3.175
    endloop
  endfacet
  facet normal 0 0 -1
    outer loop
      vertex 4.79443 80.4405 3.175
      vertex 6.4 79.5 3.175
      vertex 5.1 79.5 3.175
    endloop
  endfacet
  facet normal 0 0 -1
    outer loop
      vertex 4.95 82.0115 3.175
      vertex 6.4 79.5 3.175
      vertex 4.79443 80.4405 3.175
    endloop
  endfacet
  facet normal 0 0 -1
    outer loop
      vertex 4.95 82.0115 3.175
      vertex 4.79443 80.4405 3.175
      vertex 3.99443 81.0217 3.175
    endloop
  endfacet
  facet normal 0 0 -1
    outer loop
      vertex 4.95 82.0115 3.175
      vertex 3.99443 81.0217 3.175
      vertex 2.05 82.0115 3.175
    endloop
  endfacet
  facet normal 0 0 -1
    outer loop
      vertex 2.20557 80.4405 3.175
      vertex 2.05 82.0115 3.175
      vertex 3.00557 81.0217 3.175
    endloop
  endfacet
  facet normal 0 0 -1
    outer loop
      vertex 1.9 79.5 3.175
      vertex 2.05 82.0115 3.175
      vertex 2.20557 80.4405 3.175
    endloop
  endfacet
  facet normal 0 0 -1
    outer loop
      vertex 2.05 82.0115 3.175
      vertex 1.9 79.5 3.175
      vertex 0.6 79.5 3.175
    endloop
  endfacet
  facet normal 0 0 -1
    outer loop
      vertex 2.20557 78.5595 3.175
      vertex 2.05 76.9885 3.175
      vertex 1.9 79.5 3.175
    endloop
  endfacet
  facet normal 0 0 -1
    outer loop
      vertex 44.0056 81.0217 3.175
      vertex 43.05 82.0115 3.175
      vertex 44.9944 81.0217 3.175
    endloop
  endfacet
  facet normal 0 0 -1
    outer loop
      vertex 45.7944 78.5595 3.175
      vertex 47.4 79.5 3.175
      vertex 45.95 76.9885 3.175
    endloop
  endfacet
  facet normal 0 0 -1
    outer loop
      vertex 44.0056 77.9783 3.175
      vertex 45.95 76.9885 3.175
      vertex 43.05 76.9885 3.175
    endloop
  endfacet
  facet normal 0 0 -1
    outer loop
      vertex 42.9 79.5 3.175
      vertex 43.05 76.9885 3.175
      vertex 41.6 79.5 3.175
    endloop
  endfacet
  facet normal 0 0 -1
    outer loop
      vertex 45.7944 78.5595 3.175
      vertex 45.95 76.9885 3.175
      vertex 44.9944 77.9783 3.175
    endloop
  endfacet
  facet normal 0 0 -1
    outer loop
      vertex 44.9944 77.9783 3.175
      vertex 45.95 76.9885 3.175
      vertex 44.0056 77.9783 3.175
    endloop
  endfacet
  facet normal 0 0 -1
    outer loop
      vertex 43.2056 78.5595 3.175
      vertex 44.0056 77.9783 3.175
      vertex 43.05 76.9885 3.175
    endloop
  endfacet
  facet normal 0 0 -1
    outer loop
      vertex 46.1 79.5 3.175
      vertex 47.4 79.5 3.175
      vertex 45.7944 78.5595 3.175
    endloop
  endfacet
  facet normal 0 0 -1
    outer loop
      vertex 45.7944 80.4405 3.175
      vertex 47.4 79.5 3.175
      vertex 46.1 79.5 3.175
    endloop
  endfacet
  facet normal 0 0 -1
    outer loop
      vertex 45.95 82.0115 3.175
      vertex 47.4 79.5 3.175
      vertex 45.7944 80.4405 3.175
    endloop
  endfacet
  facet normal 0 0 -1
    outer loop
      vertex 45.95 82.0115 3.175
      vertex 45.7944 80.4405 3.175
      vertex 44.9944 81.0217 3.175
    endloop
  endfacet
  facet normal 0 0 -1
    outer loop
      vertex 45.95 82.0115 3.175
      vertex 44.9944 81.0217 3.175
      vertex 43.05 82.0115 3.175
    endloop
  endfacet
  facet normal 0 0 -1
    outer loop
      vertex 43.2056 80.4405 3.175
      vertex 43.05 82.0115 3.175
      vertex 44.0056 81.0217 3.175
    endloop
  endfacet
  facet normal 0 0 -1
    outer loop
      vertex 42.9 79.5 3.175
      vertex 43.05 82.0115 3.175
      vertex 43.2056 80.4405 3.175
    endloop
  endfacet
  facet normal 0 0 -1
    outer loop
      vertex 43.05 82.0115 3.175
      vertex 42.9 79.5 3.175
      vertex 41.6 79.5 3.175
    endloop
  endfacet
  facet normal 0 0 -1
    outer loop
      vertex 43.2056 78.5595 3.175
      vertex 43.05 76.9885 3.175
      vertex 42.9 79.5 3.175
    endloop
  endfacet
  facet normal 0 0 1
    outer loop
      vertex 45 50 9.39
      vertex 45 77 9.39
      vertex 3 77 9.39
    endloop
  endfacet
  facet normal 0 0 1
    outer loop
      vertex 3 50 9.39
      vertex 45 50 9.39
      vertex 3 77 9.39
    endloop
  endfacet
endsolid OpenSCAD_Model
