G04 #@! TF.FileFunction,Legend,Top*
%FSLAX46Y46*%
G04 Gerber Fmt 4.6, Leading zero omitted, Abs format (unit mm)*
G04 Created by KiCad (PCBNEW 4.0.2+dfsg1-2~bpo8+1-stable) date Mon 03 Apr 2017 09:19:50 AM CEST*
%MOMM*%
G01*
G04 APERTURE LIST*
%ADD10C,0.100000*%
%ADD11C,0.300000*%
%ADD12C,0.150000*%
%ADD13C,0.304800*%
%ADD14C,0.250000*%
%ADD15C,0.200000*%
%ADD16C,0.109220*%
G04 APERTURE END LIST*
D10*
D11*
X127877143Y-105961571D02*
X127877143Y-104461571D01*
X128234286Y-104461571D01*
X128448571Y-104533000D01*
X128591429Y-104675857D01*
X128662857Y-104818714D01*
X128734286Y-105104429D01*
X128734286Y-105318714D01*
X128662857Y-105604429D01*
X128591429Y-105747286D01*
X128448571Y-105890143D01*
X128234286Y-105961571D01*
X127877143Y-105961571D01*
X128734286Y-101246714D02*
X128662857Y-101318143D01*
X128448571Y-101389571D01*
X128305714Y-101389571D01*
X128091429Y-101318143D01*
X127948571Y-101175286D01*
X127877143Y-101032429D01*
X127805714Y-100746714D01*
X127805714Y-100532429D01*
X127877143Y-100246714D01*
X127948571Y-100103857D01*
X128091429Y-99961000D01*
X128305714Y-99889571D01*
X128448571Y-99889571D01*
X128662857Y-99961000D01*
X128734286Y-100032429D01*
X128377143Y-96158857D02*
X128591429Y-96230286D01*
X128662857Y-96301714D01*
X128734286Y-96444571D01*
X128734286Y-96658857D01*
X128662857Y-96801714D01*
X128591429Y-96873143D01*
X128448571Y-96944571D01*
X127877143Y-96944571D01*
X127877143Y-95444571D01*
X128377143Y-95444571D01*
X128520000Y-95516000D01*
X128591429Y-95587429D01*
X128662857Y-95730286D01*
X128662857Y-95873143D01*
X128591429Y-96016000D01*
X128520000Y-96087429D01*
X128377143Y-96158857D01*
X127877143Y-96158857D01*
X127912857Y-92071000D02*
X128627143Y-92071000D01*
X127770000Y-92499571D02*
X128270000Y-90999571D01*
X128770000Y-92499571D01*
X158464286Y-108882571D02*
X157607143Y-108882571D01*
X158035715Y-108882571D02*
X158035715Y-107382571D01*
X157892858Y-107596857D01*
X157750000Y-107739714D01*
X157607143Y-107811143D01*
X159392857Y-107382571D02*
X159535714Y-107382571D01*
X159678571Y-107454000D01*
X159750000Y-107525429D01*
X159821429Y-107668286D01*
X159892857Y-107954000D01*
X159892857Y-108311143D01*
X159821429Y-108596857D01*
X159750000Y-108739714D01*
X159678571Y-108811143D01*
X159535714Y-108882571D01*
X159392857Y-108882571D01*
X159250000Y-108811143D01*
X159178571Y-108739714D01*
X159107143Y-108596857D01*
X159035714Y-108311143D01*
X159035714Y-107954000D01*
X159107143Y-107668286D01*
X159178571Y-107525429D01*
X159250000Y-107454000D01*
X159392857Y-107382571D01*
X155924286Y-108882571D02*
X156210001Y-108882571D01*
X156352858Y-108811143D01*
X156424286Y-108739714D01*
X156567144Y-108525429D01*
X156638572Y-108239714D01*
X156638572Y-107668286D01*
X156567144Y-107525429D01*
X156495715Y-107454000D01*
X156352858Y-107382571D01*
X156067144Y-107382571D01*
X155924286Y-107454000D01*
X155852858Y-107525429D01*
X155781429Y-107668286D01*
X155781429Y-108025429D01*
X155852858Y-108168286D01*
X155924286Y-108239714D01*
X156067144Y-108311143D01*
X156352858Y-108311143D01*
X156495715Y-108239714D01*
X156567144Y-108168286D01*
X156638572Y-108025429D01*
X153527144Y-108025429D02*
X153384286Y-107954000D01*
X153312858Y-107882571D01*
X153241429Y-107739714D01*
X153241429Y-107668286D01*
X153312858Y-107525429D01*
X153384286Y-107454000D01*
X153527144Y-107382571D01*
X153812858Y-107382571D01*
X153955715Y-107454000D01*
X154027144Y-107525429D01*
X154098572Y-107668286D01*
X154098572Y-107739714D01*
X154027144Y-107882571D01*
X153955715Y-107954000D01*
X153812858Y-108025429D01*
X153527144Y-108025429D01*
X153384286Y-108096857D01*
X153312858Y-108168286D01*
X153241429Y-108311143D01*
X153241429Y-108596857D01*
X153312858Y-108739714D01*
X153384286Y-108811143D01*
X153527144Y-108882571D01*
X153812858Y-108882571D01*
X153955715Y-108811143D01*
X154027144Y-108739714D01*
X154098572Y-108596857D01*
X154098572Y-108311143D01*
X154027144Y-108168286D01*
X153955715Y-108096857D01*
X153812858Y-108025429D01*
X150630001Y-107382571D02*
X151630001Y-107382571D01*
X150987144Y-108882571D01*
X148875715Y-107382571D02*
X148590001Y-107382571D01*
X148447144Y-107454000D01*
X148375715Y-107525429D01*
X148232858Y-107739714D01*
X148161429Y-108025429D01*
X148161429Y-108596857D01*
X148232858Y-108739714D01*
X148304286Y-108811143D01*
X148447144Y-108882571D01*
X148732858Y-108882571D01*
X148875715Y-108811143D01*
X148947144Y-108739714D01*
X149018572Y-108596857D01*
X149018572Y-108239714D01*
X148947144Y-108096857D01*
X148875715Y-108025429D01*
X148732858Y-107954000D01*
X148447144Y-107954000D01*
X148304286Y-108025429D01*
X148232858Y-108096857D01*
X148161429Y-108239714D01*
X146407144Y-107382571D02*
X145692858Y-107382571D01*
X145621429Y-108096857D01*
X145692858Y-108025429D01*
X145835715Y-107954000D01*
X146192858Y-107954000D01*
X146335715Y-108025429D01*
X146407144Y-108096857D01*
X146478572Y-108239714D01*
X146478572Y-108596857D01*
X146407144Y-108739714D01*
X146335715Y-108811143D01*
X146192858Y-108882571D01*
X145835715Y-108882571D01*
X145692858Y-108811143D01*
X145621429Y-108739714D01*
X143795715Y-107882571D02*
X143795715Y-108882571D01*
X143438572Y-107311143D02*
X143081429Y-108382571D01*
X144010001Y-108382571D01*
X140470001Y-107382571D02*
X141398572Y-107382571D01*
X140898572Y-107954000D01*
X141112858Y-107954000D01*
X141255715Y-108025429D01*
X141327144Y-108096857D01*
X141398572Y-108239714D01*
X141398572Y-108596857D01*
X141327144Y-108739714D01*
X141255715Y-108811143D01*
X141112858Y-108882571D01*
X140684286Y-108882571D01*
X140541429Y-108811143D01*
X140470001Y-108739714D01*
X138001429Y-107525429D02*
X138072858Y-107454000D01*
X138215715Y-107382571D01*
X138572858Y-107382571D01*
X138715715Y-107454000D01*
X138787144Y-107525429D01*
X138858572Y-107668286D01*
X138858572Y-107811143D01*
X138787144Y-108025429D01*
X137930001Y-108882571D01*
X138858572Y-108882571D01*
X136318572Y-108882571D02*
X135461429Y-108882571D01*
X135890001Y-108882571D02*
X135890001Y-107382571D01*
X135747144Y-107596857D01*
X135604286Y-107739714D01*
X135461429Y-107811143D01*
D12*
X165100000Y-102870000D02*
X160020000Y-102870000D01*
X160020000Y-102870000D02*
X160020000Y-90170000D01*
X160020000Y-90170000D02*
X165100000Y-90170000D01*
X165100000Y-90170000D02*
X165100000Y-102870000D01*
X146685000Y-94615000D02*
G75*
G03X146685000Y-94615000I-127000J0D01*
G01*
X145923000Y-93980000D02*
X145923000Y-99060000D01*
X149225000Y-93980000D02*
X149225000Y-99060000D01*
X145415000Y-93980000D02*
X145415000Y-99060000D01*
X145415000Y-93980000D02*
X149225000Y-93980000D01*
X145415000Y-99060000D02*
X149225000Y-99060000D01*
X158750000Y-109220000D02*
X158750000Y-114300000D01*
X158750000Y-114300000D02*
X156210000Y-114300000D01*
X156210000Y-114300000D02*
X156210000Y-109220000D01*
X156210000Y-109220000D02*
X158750000Y-109220000D01*
X153670000Y-78740000D02*
X153670000Y-83820000D01*
X153670000Y-83820000D02*
X140970000Y-83820000D01*
X140970000Y-83820000D02*
X140970000Y-78740000D01*
X140970000Y-78740000D02*
X153670000Y-78740000D01*
X134620000Y-102870000D02*
X129540000Y-102870000D01*
X129540000Y-102870000D02*
X129540000Y-90170000D01*
X129540000Y-90170000D02*
X134620000Y-90170000D01*
X134620000Y-90170000D02*
X134620000Y-102870000D01*
X140180060Y-80622140D02*
X139829540Y-80622140D01*
X136679940Y-80622140D02*
X137030460Y-80622140D01*
X140180060Y-80172560D02*
X139829540Y-80172560D01*
X140180060Y-84673440D02*
X139829540Y-84673440D01*
X136679940Y-84673440D02*
X137030460Y-84673440D01*
X136679940Y-80172560D02*
X137030460Y-80172560D01*
X140180060Y-84673440D02*
X140180060Y-80172560D01*
X136679940Y-84673440D02*
X136679940Y-80172560D01*
X154459940Y-84350860D02*
X154810460Y-84350860D01*
X157960060Y-84350860D02*
X157609540Y-84350860D01*
X154459940Y-84800440D02*
X154810460Y-84800440D01*
X154459940Y-80299560D02*
X154810460Y-80299560D01*
X157960060Y-80299560D02*
X157609540Y-80299560D01*
X157960060Y-84800440D02*
X157609540Y-84800440D01*
X154459940Y-80299560D02*
X154459940Y-84800440D01*
X157960060Y-80299560D02*
X157960060Y-84800440D01*
X157243780Y-86184740D02*
X157243780Y-89583260D01*
X164543740Y-89583260D02*
X158544260Y-89583260D01*
X164543740Y-86184740D02*
X158544260Y-86184740D01*
X129303780Y-86184740D02*
X129303780Y-89583260D01*
X136603740Y-89583260D02*
X130604260Y-89583260D01*
X136603740Y-86184740D02*
X130604260Y-86184740D01*
X148099780Y-86184740D02*
X148099780Y-89583260D01*
X155399740Y-89583260D02*
X149400260Y-89583260D01*
X155399740Y-86184740D02*
X149400260Y-86184740D01*
X138955780Y-86184740D02*
X138955780Y-89583260D01*
X146255740Y-89583260D02*
X140256260Y-89583260D01*
X146255740Y-86184740D02*
X140256260Y-86184740D01*
X156210000Y-109220000D02*
X156210000Y-114300000D01*
X156210000Y-114300000D02*
X135890000Y-114300000D01*
X135890000Y-114300000D02*
X135890000Y-109220000D01*
X135890000Y-109220000D02*
X156210000Y-109220000D01*
X146431000Y-105156000D02*
X146939000Y-104394000D01*
X146431000Y-106934000D02*
X146431000Y-104330500D01*
X146431000Y-104330500D02*
X147955000Y-104330500D01*
X147955000Y-104330500D02*
X147955000Y-106934000D01*
X147955000Y-106934000D02*
X146431000Y-106934000D01*
X135001000Y-92583000D02*
X135001000Y-93789500D01*
X135001000Y-93789500D02*
X136779000Y-93789500D01*
X136779000Y-93789500D02*
X136779000Y-92519500D01*
X135001000Y-91567000D02*
X135001000Y-90360500D01*
X135001000Y-90360500D02*
X136779000Y-90360500D01*
X136779000Y-90360500D02*
X136779000Y-91567000D01*
X136779000Y-91567000D02*
X136779000Y-91630500D01*
X139319000Y-91567000D02*
X139319000Y-90360500D01*
X139319000Y-90360500D02*
X137541000Y-90360500D01*
X137541000Y-90360500D02*
X137541000Y-91630500D01*
X139319000Y-92583000D02*
X139319000Y-93789500D01*
X139319000Y-93789500D02*
X137541000Y-93789500D01*
X137541000Y-93789500D02*
X137541000Y-92583000D01*
X137541000Y-92583000D02*
X137541000Y-92519500D01*
X141859000Y-91567000D02*
X141859000Y-90360500D01*
X141859000Y-90360500D02*
X140081000Y-90360500D01*
X140081000Y-90360500D02*
X140081000Y-91630500D01*
X141859000Y-92583000D02*
X141859000Y-93789500D01*
X141859000Y-93789500D02*
X140081000Y-93789500D01*
X140081000Y-93789500D02*
X140081000Y-92583000D01*
X140081000Y-92583000D02*
X140081000Y-92519500D01*
X142621000Y-92583000D02*
X142621000Y-93789500D01*
X142621000Y-93789500D02*
X144399000Y-93789500D01*
X144399000Y-93789500D02*
X144399000Y-92519500D01*
X142621000Y-91567000D02*
X142621000Y-90360500D01*
X142621000Y-90360500D02*
X144399000Y-90360500D01*
X144399000Y-90360500D02*
X144399000Y-91567000D01*
X144399000Y-91567000D02*
X144399000Y-91630500D01*
X145161000Y-92583000D02*
X145161000Y-93789500D01*
X145161000Y-93789500D02*
X146939000Y-93789500D01*
X146939000Y-93789500D02*
X146939000Y-92519500D01*
X145161000Y-91567000D02*
X145161000Y-90360500D01*
X145161000Y-90360500D02*
X146939000Y-90360500D01*
X146939000Y-90360500D02*
X146939000Y-91567000D01*
X146939000Y-91567000D02*
X146939000Y-91630500D01*
X147701000Y-92583000D02*
X147701000Y-93789500D01*
X147701000Y-93789500D02*
X149479000Y-93789500D01*
X149479000Y-93789500D02*
X149479000Y-92519500D01*
X147701000Y-91567000D02*
X147701000Y-90360500D01*
X147701000Y-90360500D02*
X149479000Y-90360500D01*
X149479000Y-90360500D02*
X149479000Y-91567000D01*
X149479000Y-91567000D02*
X149479000Y-91630500D01*
X152019000Y-91567000D02*
X152019000Y-90360500D01*
X152019000Y-90360500D02*
X150241000Y-90360500D01*
X150241000Y-90360500D02*
X150241000Y-91630500D01*
X152019000Y-92583000D02*
X152019000Y-93789500D01*
X152019000Y-93789500D02*
X150241000Y-93789500D01*
X150241000Y-93789500D02*
X150241000Y-92583000D01*
X150241000Y-92583000D02*
X150241000Y-92519500D01*
X152781000Y-92583000D02*
X152781000Y-93789500D01*
X152781000Y-93789500D02*
X154559000Y-93789500D01*
X154559000Y-93789500D02*
X154559000Y-92519500D01*
X152781000Y-91567000D02*
X152781000Y-90360500D01*
X152781000Y-90360500D02*
X154559000Y-90360500D01*
X154559000Y-90360500D02*
X154559000Y-91567000D01*
X154559000Y-91567000D02*
X154559000Y-91630500D01*
X157099000Y-91567000D02*
X157099000Y-90360500D01*
X157099000Y-90360500D02*
X155321000Y-90360500D01*
X155321000Y-90360500D02*
X155321000Y-91630500D01*
X157099000Y-92583000D02*
X157099000Y-93789500D01*
X157099000Y-93789500D02*
X155321000Y-93789500D01*
X155321000Y-93789500D02*
X155321000Y-92583000D01*
X155321000Y-92583000D02*
X155321000Y-92519500D01*
X157861000Y-92583000D02*
X157861000Y-93789500D01*
X157861000Y-93789500D02*
X159639000Y-93789500D01*
X159639000Y-93789500D02*
X159639000Y-92519500D01*
X157861000Y-91567000D02*
X157861000Y-90360500D01*
X157861000Y-90360500D02*
X159639000Y-90360500D01*
X159639000Y-90360500D02*
X159639000Y-91567000D01*
X159639000Y-91567000D02*
X159639000Y-91630500D01*
X136779000Y-96012000D02*
X136779000Y-94805500D01*
X136779000Y-94805500D02*
X135001000Y-94805500D01*
X135001000Y-94805500D02*
X135001000Y-96075500D01*
X136779000Y-97028000D02*
X136779000Y-98234500D01*
X136779000Y-98234500D02*
X135001000Y-98234500D01*
X135001000Y-98234500D02*
X135001000Y-97028000D01*
X135001000Y-97028000D02*
X135001000Y-96964500D01*
X139319000Y-96012000D02*
X139319000Y-94805500D01*
X139319000Y-94805500D02*
X137541000Y-94805500D01*
X137541000Y-94805500D02*
X137541000Y-96075500D01*
X139319000Y-97028000D02*
X139319000Y-98234500D01*
X139319000Y-98234500D02*
X137541000Y-98234500D01*
X137541000Y-98234500D02*
X137541000Y-97028000D01*
X137541000Y-97028000D02*
X137541000Y-96964500D01*
X141859000Y-96012000D02*
X141859000Y-94805500D01*
X141859000Y-94805500D02*
X140081000Y-94805500D01*
X140081000Y-94805500D02*
X140081000Y-96075500D01*
X141859000Y-97028000D02*
X141859000Y-98234500D01*
X141859000Y-98234500D02*
X140081000Y-98234500D01*
X140081000Y-98234500D02*
X140081000Y-97028000D01*
X140081000Y-97028000D02*
X140081000Y-96964500D01*
X152781000Y-97028000D02*
X152781000Y-98234500D01*
X152781000Y-98234500D02*
X154559000Y-98234500D01*
X154559000Y-98234500D02*
X154559000Y-96964500D01*
X152781000Y-96012000D02*
X152781000Y-94805500D01*
X152781000Y-94805500D02*
X154559000Y-94805500D01*
X154559000Y-94805500D02*
X154559000Y-96012000D01*
X154559000Y-96012000D02*
X154559000Y-96075500D01*
X157099000Y-96012000D02*
X157099000Y-94805500D01*
X157099000Y-94805500D02*
X155321000Y-94805500D01*
X155321000Y-94805500D02*
X155321000Y-96075500D01*
X157099000Y-97028000D02*
X157099000Y-98234500D01*
X157099000Y-98234500D02*
X155321000Y-98234500D01*
X155321000Y-98234500D02*
X155321000Y-97028000D01*
X155321000Y-97028000D02*
X155321000Y-96964500D01*
X157861000Y-97028000D02*
X157861000Y-98234500D01*
X157861000Y-98234500D02*
X159639000Y-98234500D01*
X159639000Y-98234500D02*
X159639000Y-96964500D01*
X157861000Y-96012000D02*
X157861000Y-94805500D01*
X157861000Y-94805500D02*
X159639000Y-94805500D01*
X159639000Y-94805500D02*
X159639000Y-96012000D01*
X159639000Y-96012000D02*
X159639000Y-96075500D01*
X139319000Y-100457000D02*
X139319000Y-99250500D01*
X139319000Y-99250500D02*
X137541000Y-99250500D01*
X137541000Y-99250500D02*
X137541000Y-100520500D01*
X139319000Y-101473000D02*
X139319000Y-102679500D01*
X139319000Y-102679500D02*
X137541000Y-102679500D01*
X137541000Y-102679500D02*
X137541000Y-101473000D01*
X137541000Y-101473000D02*
X137541000Y-101409500D01*
X136779000Y-100457000D02*
X136779000Y-99250500D01*
X136779000Y-99250500D02*
X135001000Y-99250500D01*
X135001000Y-99250500D02*
X135001000Y-100520500D01*
X136779000Y-101473000D02*
X136779000Y-102679500D01*
X136779000Y-102679500D02*
X135001000Y-102679500D01*
X135001000Y-102679500D02*
X135001000Y-101473000D01*
X135001000Y-101473000D02*
X135001000Y-101409500D01*
X140081000Y-101473000D02*
X140081000Y-102679500D01*
X140081000Y-102679500D02*
X141859000Y-102679500D01*
X141859000Y-102679500D02*
X141859000Y-101409500D01*
X140081000Y-100457000D02*
X140081000Y-99250500D01*
X140081000Y-99250500D02*
X141859000Y-99250500D01*
X141859000Y-99250500D02*
X141859000Y-100457000D01*
X141859000Y-100457000D02*
X141859000Y-100520500D01*
X142621000Y-101473000D02*
X142621000Y-102679500D01*
X142621000Y-102679500D02*
X144399000Y-102679500D01*
X144399000Y-102679500D02*
X144399000Y-101409500D01*
X142621000Y-100457000D02*
X142621000Y-99250500D01*
X142621000Y-99250500D02*
X144399000Y-99250500D01*
X144399000Y-99250500D02*
X144399000Y-100457000D01*
X144399000Y-100457000D02*
X144399000Y-100520500D01*
X145161000Y-101473000D02*
X145161000Y-102679500D01*
X145161000Y-102679500D02*
X146939000Y-102679500D01*
X146939000Y-102679500D02*
X146939000Y-101409500D01*
X145161000Y-100457000D02*
X145161000Y-99250500D01*
X145161000Y-99250500D02*
X146939000Y-99250500D01*
X146939000Y-99250500D02*
X146939000Y-100457000D01*
X146939000Y-100457000D02*
X146939000Y-100520500D01*
X149479000Y-100457000D02*
X149479000Y-99250500D01*
X149479000Y-99250500D02*
X147701000Y-99250500D01*
X147701000Y-99250500D02*
X147701000Y-100520500D01*
X149479000Y-101473000D02*
X149479000Y-102679500D01*
X149479000Y-102679500D02*
X147701000Y-102679500D01*
X147701000Y-102679500D02*
X147701000Y-101473000D01*
X147701000Y-101473000D02*
X147701000Y-101409500D01*
X150241000Y-101473000D02*
X150241000Y-102679500D01*
X150241000Y-102679500D02*
X152019000Y-102679500D01*
X152019000Y-102679500D02*
X152019000Y-101409500D01*
X150241000Y-100457000D02*
X150241000Y-99250500D01*
X150241000Y-99250500D02*
X152019000Y-99250500D01*
X152019000Y-99250500D02*
X152019000Y-100457000D01*
X152019000Y-100457000D02*
X152019000Y-100520500D01*
X159639000Y-100457000D02*
X159639000Y-99250500D01*
X159639000Y-99250500D02*
X157861000Y-99250500D01*
X157861000Y-99250500D02*
X157861000Y-100520500D01*
X159639000Y-101473000D02*
X159639000Y-102679500D01*
X159639000Y-102679500D02*
X157861000Y-102679500D01*
X157861000Y-102679500D02*
X157861000Y-101473000D01*
X157861000Y-101473000D02*
X157861000Y-101409500D01*
X154559000Y-100457000D02*
X154559000Y-99250500D01*
X154559000Y-99250500D02*
X152781000Y-99250500D01*
X152781000Y-99250500D02*
X152781000Y-100520500D01*
X154559000Y-101473000D02*
X154559000Y-102679500D01*
X154559000Y-102679500D02*
X152781000Y-102679500D01*
X152781000Y-102679500D02*
X152781000Y-101473000D01*
X152781000Y-101473000D02*
X152781000Y-101409500D01*
X157099000Y-100457000D02*
X157099000Y-99250500D01*
X157099000Y-99250500D02*
X155321000Y-99250500D01*
X155321000Y-99250500D02*
X155321000Y-100520500D01*
X157099000Y-101473000D02*
X157099000Y-102679500D01*
X157099000Y-102679500D02*
X155321000Y-102679500D01*
X155321000Y-102679500D02*
X155321000Y-101473000D01*
X155321000Y-101473000D02*
X155321000Y-101409500D01*
X135001000Y-105918000D02*
X135001000Y-107124500D01*
X135001000Y-107124500D02*
X136779000Y-107124500D01*
X136779000Y-107124500D02*
X136779000Y-105854500D01*
X135001000Y-104902000D02*
X135001000Y-103695500D01*
X135001000Y-103695500D02*
X136779000Y-103695500D01*
X136779000Y-103695500D02*
X136779000Y-104902000D01*
X136779000Y-104902000D02*
X136779000Y-104965500D01*
X139319000Y-104902000D02*
X139319000Y-103695500D01*
X139319000Y-103695500D02*
X137541000Y-103695500D01*
X137541000Y-103695500D02*
X137541000Y-104965500D01*
X139319000Y-105918000D02*
X139319000Y-107124500D01*
X139319000Y-107124500D02*
X137541000Y-107124500D01*
X137541000Y-107124500D02*
X137541000Y-105918000D01*
X137541000Y-105918000D02*
X137541000Y-105854500D01*
X141859000Y-104902000D02*
X141859000Y-103695500D01*
X141859000Y-103695500D02*
X140081000Y-103695500D01*
X140081000Y-103695500D02*
X140081000Y-104965500D01*
X141859000Y-105918000D02*
X141859000Y-107124500D01*
X141859000Y-107124500D02*
X140081000Y-107124500D01*
X140081000Y-107124500D02*
X140081000Y-105918000D01*
X140081000Y-105918000D02*
X140081000Y-105854500D01*
X142621000Y-105918000D02*
X142621000Y-107124500D01*
X142621000Y-107124500D02*
X144399000Y-107124500D01*
X144399000Y-107124500D02*
X144399000Y-105854500D01*
X142621000Y-104902000D02*
X142621000Y-103695500D01*
X142621000Y-103695500D02*
X144399000Y-103695500D01*
X144399000Y-103695500D02*
X144399000Y-104902000D01*
X144399000Y-104902000D02*
X144399000Y-104965500D01*
X150241000Y-105918000D02*
X150241000Y-107124500D01*
X150241000Y-107124500D02*
X152019000Y-107124500D01*
X152019000Y-107124500D02*
X152019000Y-105854500D01*
X150241000Y-104902000D02*
X150241000Y-103695500D01*
X150241000Y-103695500D02*
X152019000Y-103695500D01*
X152019000Y-103695500D02*
X152019000Y-104902000D01*
X152019000Y-104902000D02*
X152019000Y-104965500D01*
X152781000Y-105918000D02*
X152781000Y-107124500D01*
X152781000Y-107124500D02*
X154559000Y-107124500D01*
X154559000Y-107124500D02*
X154559000Y-105854500D01*
X152781000Y-104902000D02*
X152781000Y-103695500D01*
X152781000Y-103695500D02*
X154559000Y-103695500D01*
X154559000Y-103695500D02*
X154559000Y-104902000D01*
X154559000Y-104902000D02*
X154559000Y-104965500D01*
X155321000Y-105918000D02*
X155321000Y-107124500D01*
X155321000Y-107124500D02*
X157099000Y-107124500D01*
X157099000Y-107124500D02*
X157099000Y-105854500D01*
X155321000Y-104902000D02*
X155321000Y-103695500D01*
X155321000Y-103695500D02*
X157099000Y-103695500D01*
X157099000Y-103695500D02*
X157099000Y-104902000D01*
X157099000Y-104902000D02*
X157099000Y-104965500D01*
X157861000Y-105918000D02*
X157861000Y-107124500D01*
X157861000Y-107124500D02*
X159639000Y-107124500D01*
X159639000Y-107124500D02*
X159639000Y-105854500D01*
X157861000Y-104902000D02*
X157861000Y-103695500D01*
X157861000Y-103695500D02*
X159639000Y-103695500D01*
X159639000Y-103695500D02*
X159639000Y-104902000D01*
X159639000Y-104902000D02*
X159639000Y-104965500D01*
X149733000Y-86169500D02*
X150939500Y-86169500D01*
X150939500Y-86169500D02*
X150939500Y-84391500D01*
X150939500Y-84391500D02*
X149669500Y-84391500D01*
X148717000Y-86169500D02*
X147510500Y-86169500D01*
X147510500Y-86169500D02*
X147510500Y-84391500D01*
X147510500Y-84391500D02*
X148717000Y-84391500D01*
X148717000Y-84391500D02*
X148780500Y-84391500D01*
X145923000Y-86169500D02*
X147129500Y-86169500D01*
X147129500Y-86169500D02*
X147129500Y-84391500D01*
X147129500Y-84391500D02*
X145859500Y-84391500D01*
X144907000Y-86169500D02*
X143700500Y-86169500D01*
X143700500Y-86169500D02*
X143700500Y-84391500D01*
X143700500Y-84391500D02*
X144907000Y-84391500D01*
X144907000Y-84391500D02*
X144970500Y-84391500D01*
D13*
X146485429Y-97681143D02*
X147719143Y-97681143D01*
X147864286Y-97608571D01*
X147936857Y-97536000D01*
X148009429Y-97390857D01*
X148009429Y-97100571D01*
X147936857Y-96955429D01*
X147864286Y-96882857D01*
X147719143Y-96810286D01*
X146485429Y-96810286D01*
X148009429Y-95286286D02*
X148009429Y-96157143D01*
X148009429Y-95721715D02*
X146485429Y-95721715D01*
X146703143Y-95866858D01*
X146848286Y-96012000D01*
X146920857Y-96157143D01*
D14*
X137453810Y-78557381D02*
X137453810Y-77557381D01*
X137691905Y-77557381D01*
X137834763Y-77605000D01*
X137930001Y-77700238D01*
X137977620Y-77795476D01*
X138025239Y-77985952D01*
X138025239Y-78128810D01*
X137977620Y-78319286D01*
X137930001Y-78414524D01*
X137834763Y-78509762D01*
X137691905Y-78557381D01*
X137453810Y-78557381D01*
X138453810Y-78557381D02*
X138453810Y-77890714D01*
X138453810Y-77557381D02*
X138406191Y-77605000D01*
X138453810Y-77652619D01*
X138501429Y-77605000D01*
X138453810Y-77557381D01*
X138453810Y-77652619D01*
X138882381Y-77652619D02*
X138930000Y-77605000D01*
X139025238Y-77557381D01*
X139263334Y-77557381D01*
X139358572Y-77605000D01*
X139406191Y-77652619D01*
X139453810Y-77747857D01*
X139453810Y-77843095D01*
X139406191Y-77985952D01*
X138834762Y-78557381D01*
X139453810Y-78557381D01*
D15*
X140491165Y-79632784D02*
X139691165Y-79632784D01*
X140491165Y-79175641D02*
X140034022Y-79518498D01*
X139691165Y-79175641D02*
X140148308Y-79632784D01*
D14*
X155233810Y-78557381D02*
X155233810Y-77557381D01*
X155471905Y-77557381D01*
X155614763Y-77605000D01*
X155710001Y-77700238D01*
X155757620Y-77795476D01*
X155805239Y-77985952D01*
X155805239Y-78128810D01*
X155757620Y-78319286D01*
X155710001Y-78414524D01*
X155614763Y-78509762D01*
X155471905Y-78557381D01*
X155233810Y-78557381D01*
X156233810Y-78557381D02*
X156233810Y-77890714D01*
X156233810Y-77557381D02*
X156186191Y-77605000D01*
X156233810Y-77652619D01*
X156281429Y-77605000D01*
X156233810Y-77557381D01*
X156233810Y-77652619D01*
X157233810Y-78557381D02*
X156662381Y-78557381D01*
X156948095Y-78557381D02*
X156948095Y-77557381D01*
X156852857Y-77700238D01*
X156757619Y-77795476D01*
X156662381Y-77843095D01*
D15*
X154872645Y-85759264D02*
X154072645Y-85759264D01*
X154872645Y-85302121D02*
X154415502Y-85644978D01*
X154072645Y-85302121D02*
X154529788Y-85759264D01*
X161842414Y-88779243D02*
X161880510Y-88817338D01*
X161918605Y-88931624D01*
X161918605Y-89007814D01*
X161880510Y-89122100D01*
X161804319Y-89198291D01*
X161728129Y-89236386D01*
X161575748Y-89274481D01*
X161461462Y-89274481D01*
X161309081Y-89236386D01*
X161232890Y-89198291D01*
X161156700Y-89122100D01*
X161118605Y-89007814D01*
X161118605Y-88931624D01*
X161156700Y-88817338D01*
X161194795Y-88779243D01*
X161918605Y-88322100D02*
X161880510Y-88398291D01*
X161842414Y-88436386D01*
X161766224Y-88474481D01*
X161537652Y-88474481D01*
X161461462Y-88436386D01*
X161423367Y-88398291D01*
X161385271Y-88322100D01*
X161385271Y-88207814D01*
X161423367Y-88131624D01*
X161461462Y-88093529D01*
X161537652Y-88055433D01*
X161766224Y-88055433D01*
X161842414Y-88093529D01*
X161880510Y-88131624D01*
X161918605Y-88207814D01*
X161918605Y-88322100D01*
X161385271Y-87712576D02*
X161918605Y-87712576D01*
X161461462Y-87712576D02*
X161423367Y-87674481D01*
X161385271Y-87598290D01*
X161385271Y-87484004D01*
X161423367Y-87407814D01*
X161499557Y-87369719D01*
X161918605Y-87369719D01*
X161918605Y-86569718D02*
X161918605Y-87026861D01*
X161918605Y-86798290D02*
X161118605Y-86798290D01*
X161232890Y-86874480D01*
X161309081Y-86950671D01*
X161347176Y-87026861D01*
X156667238Y-89846143D02*
X157276762Y-89846143D01*
X156972000Y-90150905D02*
X156972000Y-89541381D01*
X133902414Y-88779243D02*
X133940510Y-88817338D01*
X133978605Y-88931624D01*
X133978605Y-89007814D01*
X133940510Y-89122100D01*
X133864319Y-89198291D01*
X133788129Y-89236386D01*
X133635748Y-89274481D01*
X133521462Y-89274481D01*
X133369081Y-89236386D01*
X133292890Y-89198291D01*
X133216700Y-89122100D01*
X133178605Y-89007814D01*
X133178605Y-88931624D01*
X133216700Y-88817338D01*
X133254795Y-88779243D01*
X133978605Y-88322100D02*
X133940510Y-88398291D01*
X133902414Y-88436386D01*
X133826224Y-88474481D01*
X133597652Y-88474481D01*
X133521462Y-88436386D01*
X133483367Y-88398291D01*
X133445271Y-88322100D01*
X133445271Y-88207814D01*
X133483367Y-88131624D01*
X133521462Y-88093529D01*
X133597652Y-88055433D01*
X133826224Y-88055433D01*
X133902414Y-88093529D01*
X133940510Y-88131624D01*
X133978605Y-88207814D01*
X133978605Y-88322100D01*
X133445271Y-87712576D02*
X133978605Y-87712576D01*
X133521462Y-87712576D02*
X133483367Y-87674481D01*
X133445271Y-87598290D01*
X133445271Y-87484004D01*
X133483367Y-87407814D01*
X133559557Y-87369719D01*
X133978605Y-87369719D01*
X133254795Y-87026861D02*
X133216700Y-86988766D01*
X133178605Y-86912575D01*
X133178605Y-86722099D01*
X133216700Y-86645909D01*
X133254795Y-86607813D01*
X133330986Y-86569718D01*
X133407176Y-86569718D01*
X133521462Y-86607813D01*
X133978605Y-87064956D01*
X133978605Y-86569718D01*
X128727238Y-89846143D02*
X129336762Y-89846143D01*
X129032000Y-90150905D02*
X129032000Y-89541381D01*
X152698414Y-88779243D02*
X152736510Y-88817338D01*
X152774605Y-88931624D01*
X152774605Y-89007814D01*
X152736510Y-89122100D01*
X152660319Y-89198291D01*
X152584129Y-89236386D01*
X152431748Y-89274481D01*
X152317462Y-89274481D01*
X152165081Y-89236386D01*
X152088890Y-89198291D01*
X152012700Y-89122100D01*
X151974605Y-89007814D01*
X151974605Y-88931624D01*
X152012700Y-88817338D01*
X152050795Y-88779243D01*
X152774605Y-88322100D02*
X152736510Y-88398291D01*
X152698414Y-88436386D01*
X152622224Y-88474481D01*
X152393652Y-88474481D01*
X152317462Y-88436386D01*
X152279367Y-88398291D01*
X152241271Y-88322100D01*
X152241271Y-88207814D01*
X152279367Y-88131624D01*
X152317462Y-88093529D01*
X152393652Y-88055433D01*
X152622224Y-88055433D01*
X152698414Y-88093529D01*
X152736510Y-88131624D01*
X152774605Y-88207814D01*
X152774605Y-88322100D01*
X152241271Y-87712576D02*
X152774605Y-87712576D01*
X152317462Y-87712576D02*
X152279367Y-87674481D01*
X152241271Y-87598290D01*
X152241271Y-87484004D01*
X152279367Y-87407814D01*
X152355557Y-87369719D01*
X152774605Y-87369719D01*
X151974605Y-87064956D02*
X151974605Y-86569718D01*
X152279367Y-86836385D01*
X152279367Y-86722099D01*
X152317462Y-86645909D01*
X152355557Y-86607813D01*
X152431748Y-86569718D01*
X152622224Y-86569718D01*
X152698414Y-86607813D01*
X152736510Y-86645909D01*
X152774605Y-86722099D01*
X152774605Y-86950671D01*
X152736510Y-87026861D01*
X152698414Y-87064956D01*
X147523238Y-89846143D02*
X148132762Y-89846143D01*
X147828000Y-90150905D02*
X147828000Y-89541381D01*
X143554414Y-88779243D02*
X143592510Y-88817338D01*
X143630605Y-88931624D01*
X143630605Y-89007814D01*
X143592510Y-89122100D01*
X143516319Y-89198291D01*
X143440129Y-89236386D01*
X143287748Y-89274481D01*
X143173462Y-89274481D01*
X143021081Y-89236386D01*
X142944890Y-89198291D01*
X142868700Y-89122100D01*
X142830605Y-89007814D01*
X142830605Y-88931624D01*
X142868700Y-88817338D01*
X142906795Y-88779243D01*
X143630605Y-88322100D02*
X143592510Y-88398291D01*
X143554414Y-88436386D01*
X143478224Y-88474481D01*
X143249652Y-88474481D01*
X143173462Y-88436386D01*
X143135367Y-88398291D01*
X143097271Y-88322100D01*
X143097271Y-88207814D01*
X143135367Y-88131624D01*
X143173462Y-88093529D01*
X143249652Y-88055433D01*
X143478224Y-88055433D01*
X143554414Y-88093529D01*
X143592510Y-88131624D01*
X143630605Y-88207814D01*
X143630605Y-88322100D01*
X143097271Y-87712576D02*
X143630605Y-87712576D01*
X143173462Y-87712576D02*
X143135367Y-87674481D01*
X143097271Y-87598290D01*
X143097271Y-87484004D01*
X143135367Y-87407814D01*
X143211557Y-87369719D01*
X143630605Y-87369719D01*
X143097271Y-86645909D02*
X143630605Y-86645909D01*
X142792510Y-86836385D02*
X143363938Y-87026861D01*
X143363938Y-86531623D01*
X138379238Y-89846143D02*
X138988762Y-89846143D01*
X138684000Y-90150905D02*
X138684000Y-89541381D01*
D16*
X149141604Y-85824362D02*
X148974810Y-85586086D01*
X148855672Y-85824362D02*
X148855672Y-85323982D01*
X149046293Y-85323982D01*
X149093948Y-85347810D01*
X149117776Y-85371638D01*
X149141604Y-85419293D01*
X149141604Y-85490776D01*
X149117776Y-85538431D01*
X149093948Y-85562259D01*
X149046293Y-85586086D01*
X148855672Y-85586086D01*
X149618156Y-85824362D02*
X149332224Y-85824362D01*
X149475190Y-85824362D02*
X149475190Y-85323982D01*
X149427535Y-85395465D01*
X149379880Y-85443120D01*
X149332224Y-85466948D01*
X145331604Y-85824362D02*
X145164810Y-85586086D01*
X145045672Y-85824362D02*
X145045672Y-85323982D01*
X145236293Y-85323982D01*
X145283948Y-85347810D01*
X145307776Y-85371638D01*
X145331604Y-85419293D01*
X145331604Y-85490776D01*
X145307776Y-85538431D01*
X145283948Y-85562259D01*
X145236293Y-85586086D01*
X145045672Y-85586086D01*
X145522224Y-85371638D02*
X145546052Y-85347810D01*
X145593707Y-85323982D01*
X145712845Y-85323982D01*
X145760501Y-85347810D01*
X145784328Y-85371638D01*
X145808156Y-85419293D01*
X145808156Y-85466948D01*
X145784328Y-85538431D01*
X145498397Y-85824362D01*
X145808156Y-85824362D01*
M02*
