G04 #@! TF.FileFunction,Soldermask,Top*
%FSLAX46Y46*%
G04 Gerber Fmt 4.6, Leading zero omitted, Abs format (unit mm)*
G04 Created by KiCad (PCBNEW 4.0.2+dfsg1-2~bpo8+1-stable) date Wed 27 Jul 2016 07:30:53 PM CEST*
%MOMM*%
G01*
G04 APERTURE LIST*
%ADD10C,0.100000*%
%ADD11R,1.924000X1.924000*%
%ADD12R,1.797000X1.289000*%
%ADD13O,1.873200X1.009600*%
%ADD14C,6.400000*%
%ADD15R,1.289000X1.797000*%
%ADD16R,2.200860X2.899360*%
%ADD17R,0.900000X1.400760*%
%ADD18R,0.901040X1.400760*%
%ADD19R,2.950160X2.899360*%
G04 APERTURE END LIST*
D10*
D11*
X163830000Y-101600000D03*
X161290000Y-101600000D03*
X163830000Y-99060000D03*
X161290000Y-99060000D03*
X163830000Y-96520000D03*
X161290000Y-96520000D03*
X163830000Y-93980000D03*
X161290000Y-93980000D03*
X163830000Y-91440000D03*
X161290000Y-91440000D03*
D12*
X158750000Y-97472500D03*
X158750000Y-95567500D03*
D13*
X144526000Y-94615000D03*
X144526000Y-95885000D03*
X144526000Y-97155000D03*
X144526000Y-98425000D03*
X150114000Y-98425000D03*
X150114000Y-97155000D03*
X150114000Y-95885000D03*
X150114000Y-94615000D03*
D12*
X138430000Y-100012500D03*
X138430000Y-101917500D03*
X140970000Y-91122500D03*
X140970000Y-93027500D03*
X135890000Y-93027500D03*
X135890000Y-91122500D03*
X135890000Y-95567500D03*
X135890000Y-97472500D03*
X146050000Y-93027500D03*
X146050000Y-91122500D03*
X148590000Y-93027500D03*
X148590000Y-91122500D03*
X143510000Y-101917500D03*
X143510000Y-100012500D03*
X146050000Y-101917500D03*
X146050000Y-100012500D03*
X148590000Y-101917500D03*
X148590000Y-100012500D03*
X151130000Y-91122500D03*
X151130000Y-93027500D03*
X153670000Y-100012500D03*
X153670000Y-101917500D03*
X158750000Y-93027500D03*
X158750000Y-91122500D03*
X153670000Y-97472500D03*
X153670000Y-95567500D03*
D11*
X156210000Y-110490000D03*
X156210000Y-113030000D03*
X152400000Y-80010000D03*
X152400000Y-82550000D03*
X149860000Y-80010000D03*
X149860000Y-82550000D03*
X147320000Y-80010000D03*
X147320000Y-82550000D03*
X144780000Y-80010000D03*
X144780000Y-82550000D03*
X142240000Y-80010000D03*
X142240000Y-82550000D03*
X133350000Y-101600000D03*
X130810000Y-101600000D03*
X133350000Y-99060000D03*
X130810000Y-99060000D03*
X133350000Y-96520000D03*
X130810000Y-96520000D03*
X133350000Y-93980000D03*
X130810000Y-93980000D03*
X133350000Y-91440000D03*
X130810000Y-91440000D03*
X142240000Y-113030000D03*
X142240000Y-110490000D03*
X144780000Y-113030000D03*
X144780000Y-110490000D03*
X147320000Y-113030000D03*
X147320000Y-110490000D03*
X149860000Y-113030000D03*
X149860000Y-110490000D03*
X152400000Y-113030000D03*
X152400000Y-110490000D03*
D14*
X132080000Y-111760000D03*
X132080000Y-81280000D03*
X162560000Y-111760000D03*
X162560000Y-81280000D03*
D12*
X140970000Y-101917500D03*
X140970000Y-100012500D03*
X140970000Y-95567500D03*
X140970000Y-97472500D03*
X135890000Y-106362500D03*
X135890000Y-104457500D03*
X138430000Y-104457500D03*
X138430000Y-106362500D03*
X143510000Y-93027500D03*
X143510000Y-91122500D03*
X140970000Y-104457500D03*
X140970000Y-106362500D03*
X138430000Y-95567500D03*
X138430000Y-97472500D03*
X138430000Y-91122500D03*
X138430000Y-93027500D03*
D15*
X150177500Y-85344000D03*
X148272500Y-85344000D03*
X146367500Y-85344000D03*
X144462500Y-85344000D03*
D12*
X143510000Y-106362500D03*
X143510000Y-104457500D03*
X151130000Y-104457500D03*
X151130000Y-106362500D03*
X156210000Y-106362500D03*
X156210000Y-104457500D03*
X153670000Y-93027500D03*
X153670000Y-91122500D03*
X153670000Y-106362500D03*
X153670000Y-104457500D03*
X151130000Y-101917500D03*
X151130000Y-100012500D03*
X156210000Y-101917500D03*
X156210000Y-100012500D03*
X158750000Y-106362500D03*
X158750000Y-104457500D03*
X156210000Y-95567500D03*
X156210000Y-97472500D03*
X156210000Y-91122500D03*
X156210000Y-93027500D03*
D16*
X138430000Y-84421980D03*
X138430000Y-80424020D03*
X156210000Y-80551020D03*
X156210000Y-84548980D03*
D12*
X135890000Y-100012500D03*
X135890000Y-101917500D03*
X158750000Y-100012500D03*
X158750000Y-101917500D03*
D17*
X146367500Y-104140000D03*
X147320000Y-104140000D03*
D18*
X148272500Y-104140000D03*
D17*
X148272500Y-106680000D03*
X147320000Y-106680000D03*
X146367500Y-106680000D03*
D19*
X164068760Y-87884000D03*
X159019240Y-87884000D03*
X136128760Y-87884000D03*
X131079240Y-87884000D03*
X154924760Y-87884000D03*
X149875240Y-87884000D03*
X145780760Y-87884000D03*
X140731240Y-87884000D03*
M02*
