*
*
G04 PADS 9.2 Build Number: 414666 generated Gerber (RS-274-X) file*
G04 PC Version=2.1*
*
%IN "ANT_NORDIC_UART.pcb"*%
*
%MOIN*%
*
%FSLAX35Y35*%
*
*
*
*
G04 PC Standard Apertures*
*
*
G04 Thermal Relief Aperture macro.*
%AMTER*
1,1,$1,0,0*
1,0,$1-$2,0,0*
21,0,$3,$4,0,0,45*
21,0,$3,$4,0,0,135*
%
*
*
G04 Annular Aperture macro.*
%AMANN*
1,1,$1,0,0*
1,0,$2,0,0*
%
*
*
G04 Odd Aperture macro.*
%AMODD*
1,1,$1,0,0*
1,0,$1-0.005,0,0*
%
*
*
G04 PC Custom Aperture Macros*
*
*
*
*
*
*
G04 PC Aperture Table*
*
%ADD012R,0.07X0.07*%
%ADD013C,0.23622*%
%ADD014C,0.05*%
%ADD017C,0.02*%
%ADD019C,0.03*%
%ADD024C,0.001*%
%ADD025C,0.01*%
%ADD036C,0.008*%
%ADD040R,0.06X0.06*%
%ADD043C,0.006*%
%ADD044R,0.025X0.02*%
%ADD045R,0.02X0.025*%
%ADD046R,0.04331X0.04724*%
%ADD047O,0.03346X0.01181*%
%ADD048O,0.01181X0.03346*%
%ADD049R,0.14567X0.14567*%
%ADD050R,0.02362X0.04724*%
%ADD051R,0.056X0.039*%
%ADD052C,0.09843*%
%ADD053C,0.10236*%
%ADD054R,0.1X0.055*%
%ADD055R,0.105X0.05*%
%ADD056C,0.019*%
%ADD057C,0.018*%
%ADD058C,0.032*%
%ADD059C,0.024*%
*
*
*
*
G04 PC Circuitry*
G04 Layer Name ANT_NORDIC_UART.pcb - circuitry*
%LPD*%
*
*
G04 PC Custom Flashes*
G04 Layer Name ANT_NORDIC_UART.pcb - flashes*
%LPD*%
*
*
G04 PC Circuitry*
G04 Layer Name ANT_NORDIC_UART.pcb - circuitry*
%LPD*%
*
G54D12*
G01X226000Y165000D03*
X216000D03*
X226000Y175000D03*
X216000D03*
X226000Y185000D03*
X216000D03*
X226000Y135000D03*
X216000D03*
X226000Y145000D03*
X216000D03*
X226000Y155000D03*
X216000D03*
X172000Y126000D03*
Y116000D03*
X182000Y126000D03*
Y116000D03*
X192000Y126000D03*
Y116000D03*
G54D13*
X120000Y120000D03*
X240000Y200000D03*
Y120000D03*
X120000Y200000D03*
G54D14*
X246000Y144000D03*
G54D17*
X120000Y160000D02*
X120300Y160300D01*
X143700*
X146300*
G54D19*
X182000Y116000D02*
Y126000D01*
G54D24*
G54D25*
X203818Y120563D02*
X202000Y114000D01*
X203818Y120563D02*
X205636Y114000D01*
X202682Y116188D02*
X204955D01*
X207682Y120563D02*
Y114000D01*
Y120563D02*
X210864Y114000D01*
Y120563D02*
Y114000D01*
X214500Y120563D02*
Y114000D01*
X212909Y120563D02*
X216091D01*
X219500D02*
X218818Y120250D01*
X218364Y119313*
X218364D02*
X218136Y117750D01*
Y116813*
X218136D02*
X218364Y115250D01*
X218818Y114313*
X218818D02*
X219500Y114000D01*
X219955*
X220636Y114313*
X220636D02*
X221091Y115250D01*
X221318Y116813*
X221318D02*
Y117750D01*
X221091Y119313*
X221091D02*
X220636Y120250D01*
X219955Y120563*
X219955D02*
X219500D01*
X223364Y119313D02*
X223818Y119625D01*
X224500Y120563*
X224500D02*
Y114000D01*
X147200Y158100D02*
Y158200D01*
X152780Y168860D02*
X152900Y169400D01*
Y177258*
X147133Y161800D02*
X147200Y162000D01*
Y176100D02*
Y176200D01*
X147257Y185228D02*
X147300Y185400D01*
X147200D02*
Y185500D01*
X147173Y185400*
X161200Y189224D02*
X161216Y194146D01*
X147200Y185400D02*
Y185228D01*
X147300Y185400*
X147128Y185228D02*
X147173Y185400D01*
X159200Y170800D02*
Y171000D01*
X147200Y160300D02*
Y161700D01*
X157279Y174854D02*
X157300Y175200D01*
Y178800*
X162200Y184500*
X152554Y177610D02*
X152900Y177258D01*
X152554Y179579D02*
X157321D01*
X147200Y176000D02*
Y176100D01*
Y185228D02*
Y185000D01*
X147257Y185228*
X147200Y158000D02*
Y158100D01*
Y167000D02*
Y167100D01*
X162200Y184500D02*
X157321Y179579D01*
X157476Y179776*
X161200Y178600D02*
Y175000D01*
X161216Y174854*
X161200Y178600D02*
X161399Y179776D01*
X162200Y184500D02*
X161200Y189100D01*
Y189224*
X152780Y168860D02*
X152700Y168500D01*
X153000*
Y166800*
X153800Y166000*
X158000*
X159200Y167200*
Y170400*
X143700Y160200D02*
X146300D01*
X147200*
X146300D02*
Y160300D01*
X147200Y160200*
Y161700D02*
Y161800D01*
Y158200D02*
X147100Y158100D01*
X147200Y158000*
Y161800D02*
X147100Y161700D01*
X147133Y161800*
X147200Y158200D02*
Y160200D01*
Y160300*
Y161800D02*
Y162000D01*
Y167100D02*
X147100Y167000D01*
X147200*
Y167100D02*
Y171000D01*
Y185500D02*
X147300Y185400D01*
X147067Y185000D02*
X148488Y183579D01*
X152484*
X152554Y183516*
X147200Y185000D02*
X147067D01*
X147200Y185228*
X147067Y185000D02*
X147128Y185228D01*
X147200Y176200D02*
X147100Y176100D01*
X147200Y176000*
Y180000D02*
X147067D01*
X148677Y181610*
X152484*
X152554Y181547*
X147200Y176200D02*
Y180000D01*
X159200Y170400D02*
X159500D01*
X159600*
X159200D02*
Y170800D01*
Y171000D02*
X159247Y174854D01*
X159600Y170400D02*
X160784D01*
X163184Y172800*
X161399Y179776D02*
X162200Y184500D01*
X163184Y174854D02*
Y172800D01*
X171846Y187453D02*
Y187400D01*
Y185484D02*
Y185400D01*
Y179579D02*
X172350Y179610D01*
X174250*
X176000Y177860*
Y177500*
X162200Y184500D02*
X167100Y187400D01*
X171846*
X162200Y184500D02*
X167500Y185400D01*
X171846*
X162200Y184500D02*
X168300Y190500D01*
X169200Y191400*
X162200Y184500*
X165200Y190500*
Y194146*
X165153*
X169090D02*
X171500D01*
X175500Y194000*
X169200Y191400D02*
X171800D01*
X171846Y191390*
G54D36*
X257030Y144000D02*
G75*
G03X257030I-11030J0D01*
G01Y171500D02*
G03X257030I-11030J0D01*
G01X178500Y111800D02*
X185699D01*
X185630Y130812*
X177813Y138600*
X137400*
Y127400*
X164600*
Y130700*
X166422*
X168500Y131900D02*
G03X166422Y130700I0J-2400D01*
G01X168500Y131900D02*
X175500D01*
X177578Y130700D02*
G03X175500Y131900I-2078J-1200D01*
G01X177578Y130700D02*
X178500D01*
Y111800*
X257600Y102400D02*
Y217600D01*
X102400*
Y102400*
X257600*
X188500Y202626D02*
Y206096D01*
X185296Y209300*
X184283*
X182850Y204763D02*
G03X184283Y209300I-2350J3237D01*
G01X182850Y204763D02*
Y203000D01*
X181450Y201600D02*
G03X182850Y203000I0J1400D01*
G01X181450Y201600D02*
X180164D01*
X179200Y201300D02*
G03X180164Y201600I0J1700D01*
G01X179200Y201300D02*
X178826D01*
X177500Y200350D02*
G03X178826Y201300I0J1400D01*
G01X177500Y200350D02*
X176504D01*
X175654Y199500*
X187550*
Y201300*
X188500Y202626D02*
G03X187550Y201300I450J-1326D01*
G01X170883Y191412D02*
X172450D01*
X171913Y192229D02*
G03X172450Y191412I3587J1771D01*
G01X171913Y192229D02*
X171465Y192246D01*
X170905*
X170843Y192119D02*
G03X170905Y192246I-1753J944D01*
G01X170883Y191783D02*
G03X170843Y192119I-1400J0D01*
G01X170883Y191783D02*
Y191412D01*
X162639Y197143D02*
X164296Y198800D01*
X161204*
X160700Y198296*
Y198000*
Y196589*
X161216Y195524D02*
G03X160700Y196589I-1969J-296D01*
G01X162639Y197143D02*
G03X161216Y195524I545J-1915D01*
G01X171369Y205500D02*
G03X171250Y205432I631J-1250D01*
G01X170600Y206750D02*
G03X171369Y205500I1400J0D01*
G01X170600Y206750D02*
Y209250D01*
X170601Y209300D02*
G03X170600Y209250I1399J-50D01*
G01X170601Y209300D02*
X164704D01*
X163700Y208296*
Y206000*
X163202Y204798D02*
G03X163700Y206000I-1202J1202D01*
G01X163202Y204798D02*
X163104Y204700D01*
X167174*
X168500Y205650D02*
G03X167174Y204700I0J-1400D01*
G01X168500Y205650D02*
X170500D01*
X171250Y205432D02*
G03X170500Y205650I-750J-1182D01*
G01X158798Y210202D02*
X161896Y213300D01*
X150283*
X150386Y211050D02*
G03X150283Y213300I-3886J950D01*
G01X150386Y211050D02*
X150600D01*
X152000Y209650D02*
G03X150600Y211050I-1400J0D01*
G01X152000Y209650D02*
Y207150D01*
X151231Y205900D02*
G03X152000Y207150I-631J1250D01*
G01X151385Y205809D02*
G03X151231Y205900I-785J-1159D01*
G01X152300Y206150D02*
G03X151385Y205809I0J-1400D01*
G01X152300Y206150D02*
X154300D01*
X155700Y204750D02*
G03X154300Y206150I-1400J0D01*
G01X155700Y204750D02*
Y204104D01*
X158300Y206704*
Y209000*
X158798Y210202D02*
G03X158300Y209000I1202J-1202D01*
G01X257030Y144000D02*
G03X257030I-11030J0D01*
G01Y171500D02*
G03X257030I-11030J0D01*
G01X228309Y122312D02*
Y111312D01*
X225909Y108912D02*
G03X228309Y111312I0J2400D01*
G01X225909Y108912D02*
X201500D01*
X199100Y111312D02*
G03X201500Y108912I2400J0D01*
G01X199100Y111312D02*
Y122312D01*
X201500Y124713D02*
G03X199100Y122312I0J-2401D01*
G01X201500Y124713D02*
X225909D01*
X228309Y122312D02*
G03X225909Y124713I-2400J0D01*
G01X231900Y188500D02*
Y181500D01*
X231374Y180000D02*
G03X231900Y181500I-1874J1500D01*
G01Y178500D02*
G03X231374Y180000I-2400J0D01*
G01X231900Y178500D02*
Y171500D01*
X231374Y170000D02*
G03X231900Y171500I-1874J1500D01*
G01Y168500D02*
G03X231374Y170000I-2400J0D01*
G01X231900Y168500D02*
Y161500D01*
X231374Y160000D02*
G03X231900Y161500I-1874J1500D01*
G01Y158500D02*
G03X231374Y160000I-2400J0D01*
G01X231900Y158500D02*
Y151500D01*
X231374Y150000D02*
G03X231900Y151500I-1874J1500D01*
G01Y148500D02*
G03X231374Y150000I-2400J0D01*
G01X231900Y148500D02*
Y141500D01*
X231374Y140000D02*
G03X231900Y141500I-1874J1500D01*
G01Y138500D02*
G03X231374Y140000I-2400J0D01*
G01X231900Y138500D02*
Y131500D01*
X229500Y129100D02*
G03X231900Y131500I0J2400D01*
G01X229500Y129100D02*
X222500D01*
X221000Y129626D02*
G03X222500Y129100I1500J1874D01*
G01X219500D02*
G03X221000Y129626I0J2400D01*
G01X219500Y129100D02*
X212500D01*
X210100Y131500D02*
G03X212500Y129100I2400J0D01*
G01X210100Y131500D02*
Y138496D01*
X205982Y142614*
X205484Y143816D02*
G03X205982Y142614I1700J0D01*
G01X205484Y143816D02*
Y155112D01*
X197019Y163577*
X196521Y164779D02*
G03X197019Y163577I1700J0D01*
G01X196521Y164779D02*
Y175969D01*
X184140Y188350*
X178103*
X177972Y188219*
X176770Y187721D02*
G03X177972Y188219I-0J1700D01*
G01X176770Y187721D02*
X173964D01*
X172928Y187431D02*
G03X173964Y187721I0J1990D01*
G01X172928Y187431D02*
X170883D01*
Y185506*
X172928*
X173964Y185216D02*
G03X172928Y185506I-1036J-1700D01*
G01X173964Y185216D02*
X175312D01*
X176500Y185700D02*
G03X175312Y185216I0J-1700D01*
G01X176500Y185700D02*
X177538D01*
X178750Y186400D02*
G03X177538Y185700I0J-1400D01*
G01X178750Y186400D02*
X181250D01*
X182650Y185000D02*
G03X181250Y186400I-1400J0D01*
G01X182650Y185000D02*
Y183000D01*
X182230Y182000D02*
G03X182650Y183000I-980J1000D01*
G01Y181000D02*
G03X182230Y182000I-1400J0D01*
G01X182650Y181000D02*
Y179000D01*
X182230Y178000D02*
G03X182650Y179000I-980J1000D01*
G01Y177000D02*
G03X182230Y178000I-1400J0D01*
G01X182650Y177000D02*
Y175000D01*
X182560Y174506D02*
G03X182650Y175000I-1310J494D01*
G01X182974Y174202D02*
G03X182560Y174506I-1202J-1202D01*
G01X182974Y174202D02*
X183974Y173202D01*
X184472Y172000D02*
G03X183974Y173202I-1700J-0D01*
G01X184472Y172000D02*
Y171564D01*
X185353Y170264D02*
G03X184472Y171564I-1400J-0D01*
G01X185353Y170264D02*
Y169602D01*
X185386*
X186250Y169900D02*
G03X185386Y169602I0J-1400D01*
G01X186250Y169900D02*
X188750D01*
X190150Y168500D02*
G03X188750Y169900I-1400J0D01*
G01X190150Y168500D02*
Y166500D01*
X189381Y165250D02*
G03X190150Y166500I-631J1250D01*
G01Y164000D02*
G03X189381Y165250I-1400J0D01*
G01X190150Y164000D02*
Y162000D01*
X188750Y160600D02*
G03X190150Y162000I0J1400D01*
G01X188750Y160600D02*
X186250D01*
X185038Y161300D02*
G03X186250Y160600I1212J700D01*
G01X185038Y161300D02*
X180228D01*
X179026Y161798D02*
G03X180228Y161300I1202J1202D01*
G01X179026Y161798D02*
X178026Y162798D01*
X177528Y164000D02*
G03X178026Y162798I1700J0D01*
G01X177528Y164000D02*
Y164239D01*
X176647Y165539D02*
G03X177528Y164239I1400J0D01*
G01X176647Y165539D02*
Y169260D01*
X175607Y170300*
X175000*
X173798Y170798D02*
G03X175000Y170300I1202J1202D01*
G01X173798Y170798D02*
X171442Y173154D01*
X170982*
X169123Y171781D02*
G03X170982Y173154I-33J1991D01*
G01X169123Y171781D02*
X171202Y169702D01*
X171700Y168500D02*
G03X171202Y169702I-1700J0D01*
G01X171700Y168500D02*
Y160401D01*
X172339Y159762*
X175665*
X177065Y158362D02*
G03X175665Y159762I-1400J0D01*
G01X177065Y158362D02*
Y153638D01*
X176991Y153188D02*
G03X177065Y153638I-1326J450D01*
G01X177650Y152000D02*
G03X176991Y153188I-1400J0D01*
G01X177650Y152000D02*
Y150000D01*
X176250Y148600D02*
G03X177650Y150000I0J1400D01*
G01X176250Y148600D02*
X173750D01*
X172350Y150000D02*
G03X173750Y148600I1400J0D01*
G01X172350Y150000D02*
Y152000D01*
X172370Y152238D02*
G03X172350Y152000I1380J-238D01*
G01X172370Y152238D02*
X171335D01*
X169935Y153638D02*
G03X171335Y152238I1400J-0D01*
G01X169935Y153638D02*
Y157358D01*
X168798Y158495*
X168300Y159697D02*
G03X168798Y158495I1700J-0D01*
G01X168300Y159697D02*
Y161639D01*
X164335*
X163297Y162099D02*
G03X164335Y161639I1038J940D01*
G01X162500Y161850D02*
G03X163297Y162099I0J1400D01*
G01X162500Y161850D02*
X160500D01*
X159100Y163250D02*
G03X160500Y161850I1400J0D01*
G01X159100Y163250D02*
Y164451D01*
X158000Y164100D02*
G03X159100Y164451I0J1900D01*
G01X158000Y164100D02*
X153800D01*
X152456Y164656D02*
G03X153800Y164100I1344J1344D01*
G01X152456Y164656D02*
X152200Y164913D01*
Y154100*
X151800Y153700D02*
G03X152200Y154100I0J400D01*
G01X151800Y153700D02*
X140300D01*
X139900Y154100D02*
G03X140300Y153700I400J0D01*
G01X139900Y154100D02*
Y156700D01*
X126535*
X126258Y163800D02*
G03X126535Y156700I-6258J-3800D01*
G01X126258Y163800D02*
X139900D01*
Y192400*
X139957Y192606D02*
G03X139900Y192400I343J-206D01*
G01X139800Y193250D02*
G03X139957Y192606I1400J0D01*
G01X139800Y193250D02*
Y195750D01*
X141200Y197150D02*
G03X139800Y195750I0J-1400D01*
G01X141200Y197150D02*
X143200D01*
X143850Y196990D02*
G03X143200Y197150I-650J-1240D01*
G01X144500D02*
G03X143850Y196990I0J-1400D01*
G01X144500Y197150D02*
X146500D01*
X147900Y195750D02*
G03X146500Y197150I-1400J0D01*
G01X147900Y195750D02*
Y195604D01*
X149700Y197404*
Y198000*
Y198396*
X149296Y198800*
X149000*
X147798Y199298D02*
G03X149000Y198800I1202J1202D01*
G01X147798Y199298D02*
X145496Y201600D01*
X144250*
X142850Y203000D02*
G03X144250Y201600I1400J0D01*
G01X142850Y203000D02*
Y203859D01*
X140891Y205600*
X139250*
X137850Y207000D02*
G03X139250Y205600I1400J0D01*
G01X137850Y207000D02*
Y209000D01*
X139178Y210398D02*
G03X137850Y209000I72J-1398D01*
G01X139548Y210952D02*
G03X139178Y210398I1202J-1202D01*
G01X139548Y210952D02*
X144798Y216202D01*
X146000Y216700D02*
G03X144798Y216202I0J-1700D01*
G01X146000Y216700D02*
X186000D01*
X187202Y216202D02*
G03X186000Y216700I-1202J-1202D01*
G01X187202Y216202D02*
X212504Y190900D01*
X219500*
X221000Y190374D02*
G03X219500Y190900I-1500J-1874D01*
G01X222500D02*
G03X221000Y190374I0J-2400D01*
G01X222500Y190900D02*
X229500D01*
X231900Y188500D02*
G03X229500Y190900I-2400J0D01*
G01X185699Y109000D02*
G03X188499Y111810I-0J2800D01*
G01X185699Y109000D02*
X178500D01*
X175700Y111800D02*
G03X178500Y109000I2800J0D01*
G01X175700Y111800D02*
Y127900D01*
X167400*
Y127400*
X164600Y124600D02*
G03X167400Y127400I0J2800D01*
G01X164600Y124600D02*
X137400D01*
X134600Y127400D02*
G03X137400Y124600I2800J0D01*
G01X134600Y127400D02*
Y138600D01*
X137400Y141400D02*
G03X134600Y138600I0J-2800D01*
G01X137400Y141400D02*
X176647D01*
Y145461*
X178047Y146861D02*
G03X176647Y145461I0J-1400D01*
G01X178047Y146861D02*
X180409D01*
X181000Y146730D02*
G03X180409Y146861I-591J-1269D01*
G01X181591D02*
G03X181000Y146730I-0J-1400D01*
G01X181591Y146861D02*
X183953D01*
X185353Y145461D02*
G03X183953Y146861I-1400J-0D01*
G01X185353Y145461D02*
Y140736D01*
X183953Y139336D02*
G03X185353Y140736I-0J1400D01*
G01X183953Y139336D02*
X181591D01*
X181000Y139467D02*
G03X181591Y139336I591J1269D01*
G01X180937Y139440D02*
G03X181000Y139467I-528J1296D01*
G01X180937Y139440D02*
X187606Y132795D01*
X188430Y130822D02*
G03X187606Y132795I-2800J-10D01*
G01X188430Y130822D02*
X188499Y111810D01*
X178500Y112519D02*
X185696D01*
X178500Y113239D02*
X185693D01*
X178500Y113959D02*
X185691D01*
X178500Y114679D02*
X185688D01*
X178500Y115399D02*
X185686D01*
X178500Y116119D02*
X185683D01*
X178500Y116839D02*
X185680D01*
X178500Y117559D02*
X185678D01*
X178500Y118279D02*
X185675D01*
X178500Y118999D02*
X185672D01*
X178500Y119719D02*
X185670D01*
X178500Y120439D02*
X185667D01*
X178500Y121159D02*
X185665D01*
X178500Y121879D02*
X185662D01*
X178500Y122599D02*
X185659D01*
X178500Y123319D02*
X185657D01*
X178500Y124039D02*
X185654D01*
X178500Y124759D02*
X185652D01*
X178500Y125479D02*
X185649D01*
X178500Y126199D02*
X185646D01*
X178500Y126919D02*
X185644D01*
X178500Y127639D02*
X185641D01*
X178500Y128359D02*
X185639D01*
X178500Y129079D02*
X185636D01*
X178500Y129799D02*
X185633D01*
X178500Y130519D02*
X185631D01*
X177154Y131239D02*
X185201D01*
X137400Y131959D02*
X184478D01*
X137400Y132679D02*
X183756D01*
X137400Y133399D02*
X183033D01*
X137400Y134119D02*
X182311D01*
X137400Y134839D02*
X181588D01*
X137400Y135559D02*
X180865D01*
X137400Y136279D02*
X180143D01*
X137400Y136999D02*
X179420D01*
X137400Y137719D02*
X178697D01*
X137400Y138439D02*
X177975D01*
X137400Y131239D02*
X166846D01*
X137400Y130519D02*
X164600D01*
X137400Y129799D02*
X164600D01*
X137400Y129079D02*
X164600D01*
X137400Y128359D02*
X164600D01*
X137400Y127639D02*
X164600D01*
X150316Y213199D02*
X161794D01*
X150471Y212479D02*
X161074D01*
X150493Y211759D02*
X160354D01*
X150778Y211039D02*
X159634D01*
X151830Y210319D02*
X158914D01*
X152000Y209599D02*
X158409D01*
X152000Y208879D02*
X158300D01*
X152000Y208159D02*
X158300D01*
X152000Y207439D02*
X158300D01*
X151932Y206719D02*
X158300D01*
X154933Y205999D02*
X157594D01*
X155596Y205279D02*
X156874D01*
X155700Y204559D02*
X156154D01*
X151397Y205999D02*
X151667D01*
X163700D02*
X170819D01*
X163700Y206719D02*
X170600D01*
X164283Y208879D02*
X170600D01*
X163700Y208159D02*
X170600D01*
X163700Y207439D02*
X170600D01*
X163539Y205279D02*
X167550D01*
X161203Y198799D02*
X164294D01*
X160700Y198079D02*
X163574D01*
X160700Y197359D02*
X162854D01*
X160700Y196639D02*
X161779D01*
X161114Y195919D02*
X161317D01*
X170883Y191599D02*
X172301D01*
X183963Y205999D02*
X188500D01*
X183432Y205279D02*
X188500D01*
X182850Y204559D02*
X188500D01*
X182850Y203839D02*
X188500D01*
X182850Y203119D02*
X188500D01*
X182714Y202399D02*
X188082D01*
X184289Y206719D02*
X187877D01*
X181913Y201679D02*
X187602D01*
X178655Y200959D02*
X187550D01*
X176393Y200239D02*
X187550D01*
X175673Y199519D02*
X187550D01*
X184460Y207439D02*
X187157D01*
X184497Y208159D02*
X186437D01*
X184402Y208879D02*
X185717D01*
X102400Y217519D02*
X257600D01*
X102400Y216799D02*
X257600D01*
X187326Y216079D02*
X257600D01*
X188046Y215359D02*
X257600D01*
X188766Y214639D02*
X257600D01*
X189486Y213919D02*
X257600D01*
X190206Y213199D02*
X257600D01*
X190926Y212479D02*
X257600D01*
X191646Y211759D02*
X257600D01*
X192366Y211039D02*
X257600D01*
X193086Y210319D02*
X257600D01*
X193806Y209599D02*
X257600D01*
X194526Y208879D02*
X257600D01*
X195246Y208159D02*
X257600D01*
X195966Y207439D02*
X257600D01*
X196686Y206719D02*
X257600D01*
X197406Y205999D02*
X257600D01*
X198126Y205279D02*
X257600D01*
X198846Y204559D02*
X257600D01*
X199566Y203839D02*
X257600D01*
X200286Y203119D02*
X257600D01*
X201006Y202399D02*
X257600D01*
X201726Y201679D02*
X257600D01*
X202446Y200959D02*
X257600D01*
X203166Y200239D02*
X257600D01*
X203886Y199519D02*
X257600D01*
X204606Y198799D02*
X257600D01*
X205326Y198079D02*
X257600D01*
X206046Y197359D02*
X257600D01*
X206766Y196639D02*
X257600D01*
X207486Y195919D02*
X257600D01*
X208206Y195199D02*
X257600D01*
X208926Y194479D02*
X257600D01*
X209646Y193759D02*
X257600D01*
X210366Y193039D02*
X257600D01*
X211086Y192319D02*
X257600D01*
X211806Y191599D02*
X257600D01*
X229819Y190879D02*
X257600D01*
X231235Y190159D02*
X257600D01*
X231709Y189439D02*
X257600D01*
X231890Y188719D02*
X257600D01*
X231900Y187999D02*
X257600D01*
X231900Y187279D02*
X257600D01*
X231900Y186559D02*
X257600D01*
X231900Y185839D02*
X257600D01*
X231900Y185119D02*
X257600D01*
X231900Y184399D02*
X257600D01*
X231900Y183679D02*
X257600D01*
X231900Y182959D02*
X257600D01*
X248519Y182239D02*
X257600D01*
X250614Y181519D02*
X257600D01*
X251933Y180799D02*
X257600D01*
X252933Y180079D02*
X257600D01*
X253740Y179359D02*
X257600D01*
X254409Y178639D02*
X257600D01*
X254970Y177919D02*
X257600D01*
X255444Y177199D02*
X257600D01*
X255843Y176479D02*
X257600D01*
X256175Y175759D02*
X257600D01*
X256447Y175039D02*
X257600D01*
X256664Y174319D02*
X257600D01*
X256829Y173599D02*
X257600D01*
X256944Y172879D02*
X257600D01*
X257010Y172159D02*
X257600D01*
X257030Y171439D02*
X257600D01*
X257002Y170719D02*
X257600D01*
X256928Y169999D02*
X257600D01*
X256804Y169279D02*
X257600D01*
X256631Y168559D02*
X257600D01*
X256405Y167839D02*
X257600D01*
X256123Y167119D02*
X257600D01*
X255780Y166399D02*
X257600D01*
X255369Y165679D02*
X257600D01*
X254881Y164959D02*
X257600D01*
X254303Y164239D02*
X257600D01*
X253613Y163519D02*
X257600D01*
X252779Y162799D02*
X257600D01*
X251736Y162079D02*
X257600D01*
X250338Y161359D02*
X257600D01*
X247923Y160639D02*
X257600D01*
X231436Y159919D02*
X257600D01*
X231796Y159199D02*
X257600D01*
X231900Y158479D02*
X257600D01*
X231900Y157759D02*
X257600D01*
X231900Y157039D02*
X257600D01*
X231900Y156319D02*
X257600D01*
X231900Y155599D02*
X257600D01*
X247822Y154879D02*
X257600D01*
X250297Y154159D02*
X257600D01*
X251708Y153439D02*
X257600D01*
X252756Y152719D02*
X257600D01*
X253595Y151999D02*
X257600D01*
X254288Y151279D02*
X257600D01*
X254868Y150559D02*
X257600D01*
X255358Y149839D02*
X257600D01*
X255771Y149119D02*
X257600D01*
X256115Y148399D02*
X257600D01*
X256399Y147679D02*
X257600D01*
X256626Y146959D02*
X257600D01*
X256801Y146239D02*
X257600D01*
X256925Y145519D02*
X257600D01*
X257001Y144799D02*
X257600D01*
X257030Y144079D02*
X257600D01*
X257012Y143359D02*
X257600D01*
X256946Y142639D02*
X257600D01*
X256832Y141919D02*
X257600D01*
X256669Y141199D02*
X257600D01*
X256453Y140479D02*
X257600D01*
X256182Y139759D02*
X257600D01*
X255851Y139039D02*
X257600D01*
X255454Y138319D02*
X257600D01*
X254983Y137599D02*
X257600D01*
X254423Y136879D02*
X257600D01*
X253757Y136159D02*
X257600D01*
X252955Y135439D02*
X257600D01*
X251960Y134719D02*
X257600D01*
X250652Y133999D02*
X257600D01*
X248592Y133279D02*
X257600D01*
X231900Y132559D02*
X257600D01*
X231900Y131839D02*
X257600D01*
X231870Y131119D02*
X257600D01*
X231632Y130399D02*
X257600D01*
X231063Y129679D02*
X257600D01*
X188436Y128959D02*
X257600D01*
X188439Y128239D02*
X257600D01*
X188442Y127519D02*
X257600D01*
X188444Y126799D02*
X257600D01*
X188447Y126079D02*
X257600D01*
X188449Y125359D02*
X257600D01*
X226500Y124639D02*
X257600D01*
X227692Y123919D02*
X257600D01*
X228140Y123199D02*
X257600D01*
X228303Y122479D02*
X257600D01*
X228309Y121759D02*
X257600D01*
X228309Y121039D02*
X257600D01*
X228309Y120319D02*
X257600D01*
X228309Y119599D02*
X257600D01*
X228309Y118879D02*
X257600D01*
X228309Y118159D02*
X257600D01*
X228309Y117439D02*
X257600D01*
X228309Y116719D02*
X257600D01*
X228309Y115999D02*
X257600D01*
X228309Y115279D02*
X257600D01*
X228309Y114559D02*
X257600D01*
X228309Y113839D02*
X257600D01*
X228309Y113119D02*
X257600D01*
X228309Y112399D02*
X257600D01*
X228309Y111679D02*
X257600D01*
X228283Y110959D02*
X257600D01*
X228055Y110239D02*
X257600D01*
X227504Y109519D02*
X257600D01*
X102400Y108799D02*
X257600D01*
X102400Y108079D02*
X257600D01*
X102400Y107359D02*
X257600D01*
X102400Y106639D02*
X257600D01*
X102400Y105919D02*
X257600D01*
X102400Y105199D02*
X257600D01*
X102400Y104479D02*
X257600D01*
X102400Y103759D02*
X257600D01*
X102400Y103039D02*
X257600D01*
X231900Y154879D02*
X244178D01*
X231740Y160639D02*
X244077D01*
X231900Y182239D02*
X243481D01*
X231900Y133279D02*
X243408D01*
X231900Y154159D02*
X241703D01*
X231896Y161359D02*
X241662D01*
X231900Y181519D02*
X241386D01*
X231900Y133999D02*
X241348D01*
X231900Y153439D02*
X240292D01*
X231900Y162079D02*
X240264D01*
X231795Y180799D02*
X240067D01*
X231900Y134719D02*
X240040D01*
X231900Y152719D02*
X239244D01*
X231900Y162799D02*
X239221D01*
X231434Y180079D02*
X239067D01*
X231900Y135439D02*
X239045D01*
X231900Y151999D02*
X238405D01*
X231900Y163519D02*
X238387D01*
X231741Y179359D02*
X238260D01*
X231900Y136159D02*
X238243D01*
X231890Y151279D02*
X237712D01*
X231900Y164239D02*
X237697D01*
X231896Y178639D02*
X237591D01*
X231900Y136879D02*
X237577D01*
X231708Y150559D02*
X237132D01*
X231900Y164959D02*
X237119D01*
X231900Y177919D02*
X237030D01*
X231900Y137599D02*
X237017D01*
X231492Y149839D02*
X236642D01*
X231900Y165679D02*
X236631D01*
X231900Y177199D02*
X236556D01*
X231900Y138319D02*
X236546D01*
X231819Y149119D02*
X236229D01*
X231900Y166399D02*
X236220D01*
X231900Y176479D02*
X236157D01*
X231839Y139039D02*
X236149D01*
X231900Y148399D02*
X235885D01*
X231900Y167119D02*
X235877D01*
X231900Y175759D02*
X235825D01*
X231543Y139759D02*
X235818D01*
X231900Y147679D02*
X235601D01*
X231900Y167839D02*
X235595D01*
X231900Y175039D02*
X235553D01*
X231672Y140479D02*
X235547D01*
X231900Y146959D02*
X235374D01*
X231899Y168559D02*
X235369D01*
X231900Y174319D02*
X235336D01*
X231881Y141199D02*
X235331D01*
X231900Y146239D02*
X235199D01*
X231770Y169279D02*
X235196D01*
X231900Y173599D02*
X235171D01*
X231900Y141919D02*
X235168D01*
X231900Y145519D02*
X235075D01*
X231375Y169999D02*
X235072D01*
X231900Y172879D02*
X235056D01*
X231900Y142639D02*
X235054D01*
X231900Y144799D02*
X234999D01*
X231769Y170719D02*
X234998D01*
X231900Y172159D02*
X234990D01*
X231900Y143359D02*
X234988D01*
X231900Y144079D02*
X234970D01*
X231899Y171439D02*
X234970D01*
X219819Y190879D02*
X222181D01*
X188434Y129679D02*
X210937D01*
X188431Y130399D02*
X210368D01*
X188413Y131119D02*
X210130D01*
X182062Y138319D02*
X210100D01*
X182785Y137599D02*
X210100D01*
X183508Y136879D02*
X210100D01*
X184230Y136159D02*
X210100D01*
X184953Y135439D02*
X210100D01*
X185675Y134719D02*
X210100D01*
X186398Y133999D02*
X210100D01*
X187121Y133279D02*
X210100D01*
X187818Y132559D02*
X210100D01*
X188235Y131839D02*
X210100D01*
X181340Y139039D02*
X209557D01*
X184955Y139759D02*
X208837D01*
X185329Y140479D02*
X208117D01*
X185353Y141199D02*
X207397D01*
X185353Y141919D02*
X206677D01*
X185353Y142639D02*
X205958D01*
X185353Y143359D02*
X205546D01*
X177065Y154879D02*
X205484D01*
X177065Y154159D02*
X205484D01*
X177051Y153439D02*
X205484D01*
X177451Y152719D02*
X205484D01*
X177650Y151999D02*
X205484D01*
X177650Y151279D02*
X205484D01*
X177650Y150559D02*
X205484D01*
X177641Y149839D02*
X205484D01*
X177338Y149119D02*
X205484D01*
X102400Y148399D02*
X205484D01*
X102400Y147679D02*
X205484D01*
X102400Y146959D02*
X205484D01*
X185117Y146239D02*
X205484D01*
X185352Y145519D02*
X205484D01*
X185353Y144799D02*
X205484D01*
X185353Y144079D02*
X205484D01*
X177065Y155599D02*
X204997D01*
X177065Y156319D02*
X204277D01*
X177065Y157039D02*
X203557D01*
X177065Y157759D02*
X202837D01*
X177061Y158479D02*
X202117D01*
X176788Y159199D02*
X201397D01*
X188452Y124639D02*
X200909D01*
X172182Y159919D02*
X200677D01*
X189077Y160639D02*
X199957D01*
X187322Y109519D02*
X199906D01*
X188455Y123919D02*
X199717D01*
X188023Y110239D02*
X199354D01*
X188457Y123199D02*
X199270D01*
X189994Y161359D02*
X199237D01*
X188369Y110959D02*
X199126D01*
X188460Y122479D02*
X199106D01*
X188463Y121759D02*
X199100D01*
X188465Y121039D02*
X199100D01*
X188468Y120319D02*
X199100D01*
X188470Y119599D02*
X199100D01*
X188473Y118879D02*
X199100D01*
X188476Y118159D02*
X199100D01*
X188478Y117439D02*
X199100D01*
X188481Y116719D02*
X199100D01*
X188483Y115999D02*
X199100D01*
X188486Y115279D02*
X199100D01*
X188489Y114559D02*
X199100D01*
X188491Y113839D02*
X199100D01*
X188494Y113119D02*
X199100D01*
X188496Y112399D02*
X199100D01*
X188496Y111679D02*
X199100D01*
X190150Y162079D02*
X198517D01*
X190150Y162799D02*
X197797D01*
X190150Y163519D02*
X197077D01*
X190130Y164239D02*
X196609D01*
X182650Y175759D02*
X196521D01*
X182650Y175039D02*
X196521D01*
X182845Y174319D02*
X196521D01*
X183577Y173599D02*
X196521D01*
X184227Y172879D02*
X196521D01*
X184464Y172159D02*
X196521D01*
X184714Y171439D02*
X196521D01*
X185277Y170719D02*
X196521D01*
X185353Y169999D02*
X196521D01*
X189913Y169279D02*
X196521D01*
X190149Y168559D02*
X196521D01*
X190150Y167839D02*
X196521D01*
X190150Y167119D02*
X196521D01*
X190146Y166399D02*
X196521D01*
X189884Y165679D02*
X196521D01*
X189770Y164959D02*
X196521D01*
X182650Y176479D02*
X196011D01*
X182636Y177199D02*
X195291D01*
X182306Y177919D02*
X194571D01*
X182603Y178639D02*
X193851D01*
X182650Y179359D02*
X193131D01*
X182650Y180079D02*
X192411D01*
X182650Y180799D02*
X191691D01*
X182550Y181519D02*
X190971D01*
X182425Y182239D02*
X190251D01*
X182649Y182959D02*
X189531D01*
X182650Y183679D02*
X188811D01*
X182650Y184399D02*
X188091D01*
X182645Y185119D02*
X187371D01*
X182371Y185839D02*
X186651D01*
X170883Y186559D02*
X185931D01*
X171700Y160639D02*
X185923D01*
X170883Y187279D02*
X185211D01*
X177701Y187999D02*
X184491D01*
X171700Y161359D02*
X179785D01*
X171700Y162079D02*
X178745D01*
X171700Y162799D02*
X178025D01*
X170883Y185839D02*
X177629D01*
X171700Y163519D02*
X177598D01*
X171700Y164239D02*
X177528D01*
X102400Y146239D02*
X176883D01*
X102400Y109519D02*
X176877D01*
X171700Y164959D02*
X176773D01*
X102400Y145519D02*
X176648D01*
X171699Y168559D02*
X176647D01*
X171700Y167839D02*
X176647D01*
X171700Y167119D02*
X176647D01*
X171700Y166399D02*
X176647D01*
X171700Y165679D02*
X176647D01*
X102400Y144799D02*
X176647D01*
X102400Y144079D02*
X176647D01*
X102400Y143359D02*
X176647D01*
X102400Y142639D02*
X176647D01*
X102400Y141919D02*
X176647D01*
X171511Y169279D02*
X176628D01*
X102400Y110239D02*
X176176D01*
X170906Y169999D02*
X175908D01*
X102400Y110959D02*
X175829D01*
X102400Y111679D02*
X175703D01*
X167400Y127519D02*
X175700D01*
X167335Y126799D02*
X175700D01*
X167069Y126079D02*
X175700D01*
X166517Y125359D02*
X175700D01*
X165064Y124639D02*
X175700D01*
X102400Y123919D02*
X175700D01*
X102400Y123199D02*
X175700D01*
X102400Y122479D02*
X175700D01*
X102400Y121759D02*
X175700D01*
X102400Y121039D02*
X175700D01*
X102400Y120319D02*
X175700D01*
X102400Y119599D02*
X175700D01*
X102400Y118879D02*
X175700D01*
X102400Y118159D02*
X175700D01*
X102400Y117439D02*
X175700D01*
X102400Y116719D02*
X175700D01*
X102400Y115999D02*
X175700D01*
X102400Y115279D02*
X175700D01*
X102400Y114559D02*
X175700D01*
X102400Y113839D02*
X175700D01*
X102400Y113119D02*
X175700D01*
X102400Y112399D02*
X175700D01*
X170186Y170719D02*
X173883D01*
X169466Y171439D02*
X173157D01*
X102400Y149119D02*
X172662D01*
X170256Y172159D02*
X172437D01*
X102400Y149839D02*
X172359D01*
X102400Y151999D02*
X172350D01*
X102400Y151279D02*
X172350D01*
X102400Y150559D02*
X172350D01*
X170869Y172879D02*
X171717D01*
X120764Y152719D02*
X170279D01*
X123248Y153439D02*
X169949D01*
X152200Y157039D02*
X169935D01*
X152200Y156319D02*
X169935D01*
X152200Y155599D02*
X169935D01*
X152200Y154879D02*
X169935D01*
X152200Y154159D02*
X169935D01*
X152200Y157759D02*
X169534D01*
X152200Y158479D02*
X168814D01*
X152200Y159199D02*
X168375D01*
X152200Y161359D02*
X168300D01*
X152200Y160639D02*
X168300D01*
X152200Y159919D02*
X168300D01*
X163267Y162079D02*
X163316D01*
X152200D02*
X159733D01*
X152200Y162799D02*
X159175D01*
X158713Y164239D02*
X159100D01*
X152200Y163519D02*
X159100D01*
X152200Y164239D02*
X153087D01*
X102400Y198079D02*
X149700D01*
X102400Y197359D02*
X149654D01*
X102400Y198799D02*
X149297D01*
X147582Y196639D02*
X148934D01*
X147890Y195919D02*
X148214D01*
X102400Y199519D02*
X147577D01*
X102400Y200239D02*
X146857D01*
X102400Y200959D02*
X146137D01*
X102400Y216079D02*
X144674D01*
X102400Y215359D02*
X143954D01*
X102400Y201679D02*
X143787D01*
X102400Y214639D02*
X143234D01*
X102400Y202399D02*
X142986D01*
X102400Y203839D02*
X142850D01*
X102400Y203119D02*
X142850D01*
X102400Y213919D02*
X142514D01*
X102400Y204559D02*
X142063D01*
X102400Y213199D02*
X141794D01*
X102400Y205279D02*
X141253D01*
X102400Y212479D02*
X141074D01*
X102400Y211759D02*
X140354D01*
X102400Y196639D02*
X140118D01*
X102400Y192319D02*
X139900D01*
X102400Y191599D02*
X139900D01*
X102400Y190879D02*
X139900D01*
X102400Y190159D02*
X139900D01*
X102400Y189439D02*
X139900D01*
X102400Y188719D02*
X139900D01*
X102400Y187999D02*
X139900D01*
X102400Y187279D02*
X139900D01*
X102400Y186559D02*
X139900D01*
X102400Y185839D02*
X139900D01*
X102400Y185119D02*
X139900D01*
X102400Y184399D02*
X139900D01*
X102400Y183679D02*
X139900D01*
X102400Y182959D02*
X139900D01*
X102400Y182239D02*
X139900D01*
X102400Y181519D02*
X139900D01*
X102400Y180799D02*
X139900D01*
X102400Y180079D02*
X139900D01*
X102400Y179359D02*
X139900D01*
X102400Y178639D02*
X139900D01*
X102400Y177919D02*
X139900D01*
X102400Y177199D02*
X139900D01*
X102400Y176479D02*
X139900D01*
X102400Y175759D02*
X139900D01*
X102400Y175039D02*
X139900D01*
X102400Y174319D02*
X139900D01*
X102400Y173599D02*
X139900D01*
X102400Y172879D02*
X139900D01*
X102400Y172159D02*
X139900D01*
X102400Y171439D02*
X139900D01*
X102400Y170719D02*
X139900D01*
X102400Y169999D02*
X139900D01*
X102400Y169279D02*
X139900D01*
X102400Y168559D02*
X139900D01*
X102400Y167839D02*
X139900D01*
X121710Y167119D02*
X139900D01*
X123558Y166399D02*
X139900D01*
X124621Y165679D02*
X139900D01*
X125386Y164959D02*
X139900D01*
X125969Y164239D02*
X139900D01*
X126328Y156319D02*
X139900D01*
X125851Y155599D02*
X139900D01*
X125232Y154879D02*
X139900D01*
X124414Y154159D02*
X139900D01*
X102400Y193039D02*
X139816D01*
X102400Y195919D02*
X139810D01*
X102400Y195199D02*
X139800D01*
X102400Y194479D02*
X139800D01*
X102400Y193759D02*
X139800D01*
X102400Y211039D02*
X139634D01*
X102400Y210319D02*
X138780D01*
X102400Y205999D02*
X138272D01*
X102400Y209599D02*
X137984D01*
X102400Y206719D02*
X137879D01*
X102400Y208879D02*
X137850D01*
X102400Y208159D02*
X137850D01*
X102400Y207439D02*
X137850D01*
X102400Y124639D02*
X136936D01*
X102400Y141199D02*
X136357D01*
X102400Y125359D02*
X135483D01*
X102400Y140479D02*
X135324D01*
X102400Y126079D02*
X134931D01*
X102400Y139759D02*
X134851D01*
X102400Y126799D02*
X134665D01*
X102400Y139039D02*
X134635D01*
X102400Y138319D02*
X134600D01*
X102400Y137599D02*
X134600D01*
X102400Y136879D02*
X134600D01*
X102400Y136159D02*
X134600D01*
X102400Y135439D02*
X134600D01*
X102400Y134719D02*
X134600D01*
X102400Y133999D02*
X134600D01*
X102400Y133279D02*
X134600D01*
X102400Y132559D02*
X134600D01*
X102400Y131839D02*
X134600D01*
X102400Y131119D02*
X134600D01*
X102400Y130399D02*
X134600D01*
X102400Y129679D02*
X134600D01*
X102400Y128959D02*
X134600D01*
X102400Y128239D02*
X134600D01*
X102400Y127519D02*
X134600D01*
X102400Y152719D02*
X119236D01*
X102400Y167119D02*
X118290D01*
X102400Y153439D02*
X116752D01*
X102400Y166399D02*
X116442D01*
X102400Y154159D02*
X115586D01*
X102400Y165679D02*
X115379D01*
X102400Y154879D02*
X114768D01*
X102400Y164959D02*
X114614D01*
X102400Y155599D02*
X114149D01*
X102400Y164239D02*
X114031D01*
X102400Y156319D02*
X113672D01*
X102400Y163519D02*
X113580D01*
X102400Y157039D02*
X113304D01*
X102400Y162799D02*
X113235D01*
X102400Y157759D02*
X113030D01*
X102400Y162079D02*
X112980D01*
X102400Y158479D02*
X112839D01*
X102400Y161359D02*
X112806D01*
X102400Y159199D02*
X112723D01*
X102400Y160639D02*
X112707D01*
X102400Y159919D02*
X112679D01*
G54D40*
X246000Y171500D03*
G54D43*
X144000Y135800D02*
X145400Y137200D01*
X158000*
Y129500D02*
Y137200D01*
X164800*
X166000Y136000*
Y137000*
X176000*
X182000Y131000*
Y126000*
X155700Y168500D02*
X156300Y167900D01*
X159200Y170800D02*
X159600Y170400D01*
X156200Y168500D02*
X156300Y167900D01*
X143700Y185500D02*
X146856D01*
X147128Y185228*
X152600Y168500D02*
Y168680D01*
X152780Y168860*
X155200Y169000D02*
Y174900D01*
X155310Y174854*
X156200Y168500D02*
X155200Y169000D01*
X155700Y168500*
X159200Y170800D02*
X159000Y171000D01*
X159200*
X179228Y167902D02*
Y164000D01*
X180228Y163000*
X187500*
X182772Y167902D02*
X187098D01*
X187500Y167500*
X169090Y174854D02*
X172146D01*
X175000Y172000*
X176311*
X179228Y169083*
Y167902*
X167121Y174854D02*
Y171379D01*
X170000Y168500*
Y159697*
X173500Y156197*
Y156000*
X165153Y174854D02*
Y171347D01*
X166500Y170000*
Y165402*
X171846Y189421D02*
X176770D01*
X177399Y190050*
X184844*
X198221Y176673*
Y164779*
X207184Y155816*
Y143816*
X216000Y135000*
X171846Y183516D02*
X176016D01*
X176500Y184000*
X180000*
X171846Y181547D02*
X175500D01*
X176000Y181047*
Y181000*
X177000Y180000*
X180000*
X171846Y177610D02*
X172390D01*
X177000Y173000*
X181772*
X182772Y172000*
Y167902*
X173500Y156000D02*
X175000Y154500D01*
Y151000*
X176000Y186553D02*
Y186500D01*
Y177500D02*
X177500Y176000D01*
X180000*
X161500Y164500D02*
X162402Y165402D01*
X166500*
X205000Y185900D02*
X205750Y185150D01*
Y175250*
X216000Y165000*
X146500Y212000D02*
X149500Y209000D01*
X145500Y194500D02*
X143700D01*
Y190500*
X150000Y191390D02*
Y190800D01*
X151379Y189421*
X152554*
X150000Y191390D02*
Y193700D01*
X152500Y196200*
Y202700*
X153300Y203500*
X148900Y191390D02*
Y190000D01*
X151447Y187453*
X152554*
X148900Y191390D02*
Y194200D01*
X151400Y196700*
Y198000*
X145500Y208000D02*
Y211000D01*
X146500Y212000*
X140500Y208000D02*
X140750D01*
X149600Y203400D02*
X149700Y203500D01*
X153300*
X145500Y204000D02*
X149000Y200500D01*
X150000*
X151400Y199100*
Y198000*
X152554Y191390D02*
Y194554D01*
X154000Y196000*
Y200000*
X160000Y206000*
Y209000*
X164000Y213000*
X186000*
X208000Y191000*
Y190500*
X155310Y194146D02*
Y195226D01*
X156179Y196095*
Y200179*
X162000Y206000*
Y209000*
X164000Y211000*
X186000*
X190200Y206800*
Y200300*
X157279Y194146D02*
Y199279D01*
X161000Y203000*
X169500*
X161216Y194146D02*
Y197716D01*
X161500Y198000*
X143700Y190500D02*
X143800Y190600D01*
X145584*
X150700Y185484*
X152554*
X142200Y194500D02*
X143700D01*
X142200Y199500D02*
X145500D01*
X148000*
X149000Y198500*
Y198000*
X138500Y199500D02*
X142200D01*
X159000Y198000D02*
Y194393D01*
X159247Y194146*
X159000Y198000D02*
Y199000D01*
X160500Y200500*
X174250*
X176500Y202750*
Y203000*
X140750Y208000D02*
X145250Y204000D01*
X145500*
X140750Y208000D02*
Y209750D01*
X146000Y215000*
X186000*
X216000Y185000*
X173000Y208000D02*
X176500D01*
X190200Y200300D02*
X190450D01*
X204850Y185900*
X205000*
X190000Y193000D02*
X190250D01*
X203200Y180050*
Y167800*
X216000Y155000*
X169500Y203000D02*
X173000D01*
X176500Y208000D02*
X180500D01*
X176500Y203000D02*
X179200D01*
X180200Y204000*
X163184Y194146D02*
Y195284D01*
X165700Y197800*
X187700*
X190000Y195500*
Y193000*
X167121Y194146D02*
Y195321D01*
X168500Y196700*
X184700*
X187500Y193900*
Y190900*
X200700Y177700*
Y166000*
X209800Y156900*
Y151200*
X216000Y145000*
X179500Y193000D02*
X185000D01*
X175500Y194000D02*
X178800D01*
X179500Y193300*
Y193000*
X208000Y190500D02*
Y183000D01*
X216000Y175000*
G54D44*
X170000Y151000D03*
X175000D03*
X192500Y167500D03*
X187500D03*
X192500Y163000D03*
X187500D03*
X185000Y180000D03*
X180000D03*
X185000Y184000D03*
X180000D03*
X185000Y176000D03*
X180000D03*
X140500Y204000D03*
X145500D03*
X185200D03*
X180200D03*
X190000Y193000D03*
X185000D03*
X185200Y200300D03*
X190200D03*
X140500Y208000D03*
X145500D03*
G54D45*
X161500Y159500D03*
Y164500D03*
X179500Y188000D03*
Y193000D03*
X152600Y163500D03*
Y168500D03*
X145500Y199500D03*
Y194500D03*
X142200Y199500D03*
Y194500D03*
X147200Y162000D03*
Y167000D03*
Y158000D03*
Y153000D03*
Y185000D03*
Y180000D03*
X143700Y185500D03*
Y190500D03*
X147200Y176000D03*
Y171000D03*
X156200Y168500D03*
Y163500D03*
X149600Y203400D03*
Y208400D03*
X176500Y203000D03*
Y208000D03*
X169500D03*
Y203000D03*
X153300Y208500D03*
Y203500D03*
X173000Y203000D03*
Y208000D03*
G54D46*
X173500Y156000D03*
Y165402D03*
X166500D03*
X166488Y156000D03*
G54D47*
X171846Y177610D03*
Y179579D03*
Y181547D03*
Y183516D03*
Y185484D03*
Y187453D03*
Y189421D03*
Y191390D03*
X152554D03*
Y189421D03*
Y187453D03*
Y185484D03*
Y183516D03*
Y181547D03*
Y179579D03*
Y177610D03*
G54D48*
X169090Y194146D03*
X167121D03*
X165153D03*
X163184D03*
X161216D03*
X159247D03*
X157279D03*
X155310D03*
Y174854D03*
X157279D03*
X159247D03*
X161216D03*
X163184D03*
X165153D03*
X167121D03*
X169090D03*
G54D49*
X162200Y184500D03*
G54D50*
X182772Y167902D03*
Y143098D03*
X179228Y167902D03*
Y143098D03*
G54D51*
X158000Y144800D03*
Y137200D03*
G54D52*
X120000Y160000D03*
G54D53*
X130000Y150000D03*
X110000D03*
Y170000D03*
X130000D03*
G54D54*
X158000Y129500D03*
Y116500D03*
G54D55*
X144000Y135800D03*
Y116200D03*
G54D56*
X216000Y145000D02*
X226000D01*
X216000Y135000D02*
X226000D01*
X216000Y155000D02*
X226000D01*
X216000Y185000D02*
X226000D01*
X216000Y175000D02*
X226000D01*
X216000Y165000D02*
X226000D01*
G54D57*
X143700Y160300D02*
Y160200D01*
G54D58*
X116100Y103500D03*
X106100Y109000D03*
X153800Y106400D03*
X142500Y105500D03*
X131900D03*
X175500Y106200D03*
X182600Y106000D03*
X201700Y105600D03*
X230300Y105500D03*
X209000Y106000D03*
X241600Y105500D03*
X106000Y140000D03*
X120500Y137700D03*
X106100Y130200D03*
X112100Y136400D03*
X133200Y142000D03*
X147100Y149500D03*
X141500Y146500D03*
X133900Y116800D03*
X175500Y146000D03*
X188500Y137000D03*
X187500Y148000D03*
X197200Y143600D03*
X166000Y136000D03*
X171000Y143000D03*
X208500Y130500D03*
X226000Y126500D03*
X201500Y133500D03*
X201800Y149400D03*
X254800Y112000D03*
X253500Y131000D03*
X110000Y184000D03*
X120000Y181000D03*
X130000Y184000D03*
X137900Y155300D03*
X138100Y178600D03*
X138200Y166000D03*
X152900Y159600D03*
X156400D03*
X155000Y153500D03*
X159600Y170400D03*
X192000Y176600D03*
X192500Y157500D03*
X166000Y151000D03*
X172000Y170000D03*
X186500Y172000D03*
X176000Y186500D03*
X184000Y187500D03*
X176000Y177500D03*
X235000Y158500D03*
X254000Y181500D03*
X247000Y157000D03*
X116800Y215300D03*
X108400Y215100D03*
X104500Y191500D03*
X130200Y215400D03*
X134800Y207400D03*
X146500Y212000D03*
X138100Y190200D03*
X138500Y199500D03*
X149000Y198000D03*
X138000Y214500D03*
X157000Y208500D03*
X180500Y208000D03*
X192000Y214500D03*
X199300Y212300D03*
X161500Y198000D03*
X185500Y207500D03*
X175500Y194000D03*
X165500Y208500D03*
X236300Y215700D03*
X220500Y199500D03*
X225700Y210900D03*
X213000Y206000D03*
X208000Y201000D03*
X254500Y209500D03*
G54D59*
X157476Y179776D03*
Y184500D03*
Y189224D03*
X162200Y179776D03*
Y184500D03*
Y189224D03*
X166924Y179776D03*
Y184500D03*
Y189224D03*
G74*
X0Y0D02*
M02*
