M48
; DRILL file {KiCad (5.99.0-494-g9b7d4e274)} date 03.06.2020 14:44:04
; FORMAT={3:3/ absolute / metric / suppress leading zeros}
; #@! TF.CreationDate,2020-06-03T14:44:04+02:00
; #@! TF.GenerationSoftware,Kicad,Pcbnew,(5.99.0-494-g9b7d4e274)
; #@! TF.FileFunction,Plated,1,2,PTH
FMAT,2
METRIC,TZ
T1C0.400
T2C0.800
T3C0.889
T4C0.920
T5C1.200
T6C1.700
T7C2.330
T8C3.000
%
G90
G05
T1
X1524Y31496
X1524Y30480
X1524Y29464
X1524Y28448
X1524Y27432
X1524Y26416
X1524Y25400
X1524Y24384
X1524Y23368
X1524Y22352
X1524Y21336
X1524Y20320
X1524Y19304
X1524Y18288
X1524Y17272
X1524Y16256
X1524Y15240
X1524Y14224
X1524Y13208
X1524Y12192
X1524Y11176
X1524Y10160
X6350Y28702
X7112Y25908
X7112Y24384
X7112Y22860
X7112Y18288
X7112Y16764
X7112Y15240
X7366Y28702
X7747Y11049
X7747Y9906
X8382Y28702
X8636Y22860
X8636Y18288
X8890Y11049
X8890Y9906
X10160Y38608
X10160Y22860
X10160Y18288
X10160Y2032
X11176Y29972
X11176Y20828
X11176Y19304
X11176Y17780
X12192Y23368
X12192Y2032
X13208Y28448
X13208Y24384
X14224Y38608
X14224Y26924
X14224Y25400
X14732Y2032
X15748Y26924
X15748Y25400
X16764Y2032
X17272Y26924
X17272Y25400
X17780Y38608
X17780Y18796
X18288Y23368
X18288Y21336
X18288Y17272
X18288Y11684
X18288Y9144
X18796Y6096
X18796Y4572
X18796Y3048
X18796Y2032
X21336Y38608
X21844Y23368
X21971Y12954
X22246Y15642
X23876Y1524
X24892Y15240
X25400Y38608
X25400Y1524
X26924Y38608
X26924Y1524
X27432Y31496
X27432Y17780
X27940Y8128
X28178Y10398
X28448Y39116
X28448Y1524
X29972Y39116
X30464Y8112
X30480Y1524
X30861Y15240
X32004Y39116
X32004Y23876
X32004Y22352
X32004Y20828
X32004Y19304
X32004Y17780
X32004Y8636
X32004Y1524
X32512Y30480
X33020Y24892
X33528Y29464
X33528Y17272
X33528Y1524
X33655Y30734
X34036Y39116
X34544Y28956
X34544Y24892
X34544Y13208
X35052Y17272
X35052Y1524
X36068Y39116
X36068Y28956
X36068Y24892
X36576Y17272
X36576Y1524
X37592Y24892
X37592Y6604
X37592Y4572
X37592Y3048
X38100Y39116
X38100Y17272
X38100Y1524
X39116Y24892
X39116Y23368
X39116Y21844
X39116Y20320
X39116Y18796
X39624Y39116
X39624Y17272
X39624Y1524
X40640Y24892
X41148Y39116
X41148Y17272
X41148Y1524
X41656Y29972
X42164Y28956
X42164Y24892
X42672Y17272
X42672Y1524
X43180Y39116
X43180Y12700
X43307Y30353
X43688Y24892
X44196Y17272
X44196Y1524
X44450Y12700
X44704Y23876
X45720Y22860
X45720Y17272
X45720Y1524
X46609Y12192
X47244Y22860
X47244Y17272
X47244Y1524
X47752Y28448
X47752Y26416
X48260Y18288
X48260Y11684
X48768Y32004
X48768Y19812
X48768Y1524
X49276Y22860
X49276Y10668
X49784Y21336
X50292Y32004
X50292Y19812
X50292Y11684
X50292Y1524
X50800Y8636
X51816Y18796
X52324Y32004
X52324Y10160
X52324Y8128
X52324Y6604
X52324Y5080
X52324Y3556
X52324Y2032
X53340Y18288
X53340Y16764
X53340Y14732
X53340Y12192
X54356Y10160
X55880Y30988
X55880Y29464
X56388Y10160
X57404Y18796
X57404Y17272
X58420Y10160
X59436Y18288
X59436Y16764
X59436Y15240
X59436Y13208
X59436Y11684
T2
X20376Y18288
X23876Y18288
T3
X35560Y6350
X35560Y3810
X37084Y37084
X37084Y34544
X22098Y27940
X22098Y25400
X26670Y6350
X29210Y6350
X29210Y3810
X44958Y34544
X19558Y27940
X24130Y6350
X24130Y3810
X26670Y3810
X39624Y37084
X39624Y34544
X29464Y37084
X29464Y34544
X24638Y27940
X24638Y25400
X44958Y37084
X47498Y37084
X47498Y34544
X50038Y37084
X50038Y34544
X51054Y16764
X51054Y14224
X47244Y6350
X47244Y3810
X33020Y6350
X33020Y3810
X49784Y6350
X49784Y3810
X34544Y37084
X34544Y34544
X44704Y6350
X44704Y3810
X19558Y25400
X16510Y10160
X32004Y34544
X42164Y6350
X42164Y3810
X11430Y10160
X13970Y10160
X39624Y6350
X39624Y3810
X11430Y7112
X11430Y4572
X13970Y7112
X13970Y4572
X16510Y4572
X27178Y27940
X27178Y25400
X32004Y37084
X16510Y7112
T4
X13494Y21550
X13494Y19050
X15494Y21550
X15494Y19050
T5
X55372Y24384
T6
X52832Y26924
X52832Y21844
X57912Y26924
X57912Y21844
T7
X10784Y26320
X10784Y14280
T8
X5080Y5080
X5080Y35560
X55880Y5080
X55880Y35560
T0
M30
