G75*
G70*
%OFA0B0*%
%FSLAX24Y24*%
%IPPOS*%
%LPD*%
%AMOC8*
5,1,8,0,0,1.08239X$1,22.5*
%
%ADD10R,0.0159X0.0316*%
%ADD11R,0.0316X0.0159*%
%ADD12R,0.0671X0.0592*%
%ADD13R,0.0592X0.0671*%
%ADD14R,0.0730X0.0730*%
%ADD15C,0.2620*%
D10*
X004085Y008599D03*
X004243Y008599D03*
X004400Y008599D03*
X004557Y008599D03*
X004715Y008599D03*
X004715Y009701D03*
X004557Y009701D03*
X004400Y009701D03*
X004243Y009701D03*
X004085Y009701D03*
D11*
X003849Y009465D03*
X003849Y009307D03*
X003849Y009150D03*
X003849Y008993D03*
X003849Y008835D03*
X004951Y008835D03*
X004951Y008993D03*
X004951Y009150D03*
X004951Y009307D03*
X004951Y009465D03*
D12*
X003150Y010276D03*
X003150Y011024D03*
X003650Y007774D03*
X003650Y007026D03*
D13*
X003476Y011900D03*
X004224Y011900D03*
D14*
X001900Y011650D03*
X000900Y011650D03*
X000900Y010650D03*
X001900Y010650D03*
X001900Y009650D03*
X000900Y009650D03*
X000900Y008650D03*
X001900Y008650D03*
X001900Y007650D03*
X000900Y007650D03*
X000900Y012650D03*
X001900Y012650D03*
D15*
X001835Y002150D03*
X001835Y018150D03*
X037835Y018150D03*
X037835Y002150D03*
M02*
