G75*
%MOIN*%
%OFA0B0*%
%FSLAX24Y24*%
%IPPOS*%
%LPD*%
%AMOC8*
5,1,8,0,0,1.08239X$1,22.5*
%
%ADD10R,0.0730X0.0730*%
%ADD11C,0.2620*%
D10*
X005142Y002118D03*
X006142Y002118D03*
X006142Y003118D03*
X005142Y003118D03*
X005142Y004118D03*
X006142Y004118D03*
X006142Y005118D03*
X005142Y005118D03*
X005142Y006118D03*
X006142Y006118D03*
X005642Y007493D03*
X004642Y007493D03*
X004642Y008493D03*
X005642Y008493D03*
X005642Y009493D03*
X004642Y009493D03*
X002642Y009493D03*
X001642Y009493D03*
X001642Y010493D03*
X002642Y010493D03*
X005142Y011118D03*
X006142Y011118D03*
X006142Y012118D03*
X005142Y012118D03*
X005142Y013118D03*
X006142Y013118D03*
X006142Y014118D03*
X005142Y014118D03*
X005142Y015118D03*
X006142Y015118D03*
X011204Y009618D03*
X012204Y009618D03*
X012204Y008618D03*
X011204Y008618D03*
X011204Y007618D03*
X012204Y007618D03*
X013892Y006118D03*
X014892Y006118D03*
X014892Y005118D03*
X013892Y005118D03*
X013892Y004118D03*
X014892Y004118D03*
X014892Y003118D03*
X013892Y003118D03*
X013892Y002118D03*
X014892Y002118D03*
X017642Y004993D03*
X018642Y004993D03*
X018642Y005993D03*
X017642Y005993D03*
X017642Y006993D03*
X018642Y006993D03*
X018642Y010243D03*
X017642Y010243D03*
X017642Y011243D03*
X018642Y011243D03*
X018642Y012243D03*
X017642Y012243D03*
X014892Y012118D03*
X013892Y012118D03*
X013892Y013118D03*
X014892Y013118D03*
X014892Y014118D03*
X013892Y014118D03*
X013892Y015118D03*
X014892Y015118D03*
X014892Y011118D03*
X013892Y011118D03*
D11*
X002142Y002618D03*
X018142Y002618D03*
X018142Y014618D03*
X002142Y014618D03*
M02*
