%
T1C.022F197S55
X01746Y01386
X01678Y01564
X0134Y0166
X0126Y0166
X0136Y0187
X0128Y0189
X01575Y01966
X01336Y02028
X01425Y02038
X01544Y02089
X01302Y02212
X01408Y03131
X0165Y0327
X02244Y02926
X02077Y02899
X02183Y02793
X0217Y0252
X0207Y0251
X0217Y0198
X024Y0136
X0227Y0145
X0251Y0167
X0234Y0171
X0247Y0174
X0252Y0188
X02281Y02007
X0253Y0212
X0263Y0212
X02325Y02202
X027Y0228
X0251Y0231
X02528Y02523
X02735Y02528
X02285Y02748
X0246Y0306
X0307Y0349
X03112Y03274
X03026Y03216
X02903Y03192
X02966Y03074
X02955Y02922
X0322Y028
X02825Y02748
X0312Y0229
X0299Y02202
X0307Y022
X0299Y0211
X03073Y0208
X0321Y0207
X0277Y0195
X0281Y0186
X0319Y0174
X03288Y0159
X0344Y0204
X0335Y0241
X03446Y02567
X0326Y027
X03293Y02967
X03487Y02987
X03658Y03175
X03542Y03448
X0331Y0353
X0399Y0335
T2C.028F197S55
X031346Y025159
X033317Y025159
T3C.0315F197S55
X019381Y026047
X023319Y026047
X019381Y031953
X023319Y031953
T4C.035F197S55
X0173Y01885
X0173Y01985
X0173Y02085
X0173Y02285
X0173Y02535
X0163Y02535
X0153Y02535
X0143Y02535
X0153Y02635
X0163Y02635
X0143Y02635
X0173Y02635
X0174Y0337
X0174Y0347
X0194Y0347
X0184Y0347
X0194Y0337
X0184Y0337
X0183Y02335
X0192Y02285
X0183Y02235
X0183Y02035
X0183Y01935
X01945Y01515
X01945Y01415
X02145Y01415
X02045Y01415
X02045Y01515
X02145Y01515
X0204Y0337
X0219Y0337
X0229Y0337
X0239Y0337
X0249Y0337
X0229Y0347
X0219Y0347
X0239Y0347
X0204Y0347
X0249Y0347
X0263Y0347
X0273Y0347
X0263Y0337
X0273Y0337
X0261Y02685
X0251Y02685
X0271Y0165
X0261Y0165
X0271Y0155
X0261Y0155
X0271Y0145
X0261Y0145
X0271Y0135
X0261Y0135
X03005Y0135
X03005Y0145
X03005Y0155
X03005Y0165
X02965Y0267
X02965Y0277
X0283Y0337
X0293Y0337
X0293Y0347
X0283Y0347
X03065Y0277
X03495Y02695
X03395Y02695
X03065Y0267
X0303Y0188
X0303Y0178
X03105Y0165
X03105Y0155
X03105Y0145
X03105Y0135
X0415Y016
X0425Y016
X0415Y017
X0425Y017
X0415Y018
X0425Y018
X0415Y019
X0425Y019
X0415Y02
X0425Y02
X0415Y021
X0425Y021
X0415Y022
X0425Y022
X0415Y023
X0425Y023
X0415Y024
X0425Y024
X0415Y025
X0425Y025
X0415Y026
X0425Y026
X0415Y027
X0425Y027
X0415Y028
X0425Y028
X0415Y029
X0425Y029
X0415Y03
X0425Y03
X0415Y031
X0425Y031
X0415Y032
X0425Y032
X0377Y03295
X0387Y03295
X0387Y03395
X0377Y03395
T5C.04F139S55
X0202Y01895
X0202Y01995
X0202Y02225
X0202Y02325
T6C.062F089S55
X016Y01845
X016Y02375
T7C.10433F069S658
X02315Y02365
T8C.12598F035S794
X014Y014
X014Y034
X042Y034
X042Y014
T9C.128F035S794
X0148Y01885
X0148Y02335
M30
