*
*
G04 PADS Layout (Build Number 2006.45.1) generated Gerber (RS-274-X) file*
G04 PC Version=2.1*
*
%IN "PIC16F87xTQ4401B.pcb"*%
*
%MOIN*%
*
%FSLAX35Y35*%
*
*
*
*
G04 PC Standard Apertures*
*
*
G04 Thermal Relief Aperture macro.*
%AMTER*
1,1,$1,0,0*
1,0,$1-$2,0,0*
21,0,$3,$4,0,0,45*
21,0,$3,$4,0,0,135*
%
*
*
G04 Annular Aperture macro.*
%AMANN*
1,1,$1,0,0*
1,0,$2,0,0*
%
*
*
G04 Odd Aperture macro.*
%AMODD*
1,1,$1,0,0*
1,0,$1-0.005,0,0*
%
*
*
G04 PC Custom Aperture Macros*
*
*
*
*
*
*
G04 PC Aperture Table*
*
%ADD010R,0.039X0.039*%
%ADD012R,0.07X0.07*%
%ADD013C,0.23622*%
%ADD014C,0.05*%
%ADD017C,0.02*%
%ADD019C,0.03*%
%ADD022C,0.055*%
%ADD025C,0.01*%
%ADD031C,0.07*%
%ADD036C,0.008*%
%ADD040R,0.06X0.06*%
%ADD043R,0.065X0.065*%
%ADD048R,0.055X0.055*%
%ADD049C,0.07874*%
%ADD050C,0.075*%
%ADD051C,0.022*%
%ADD052C,0.018*%
*
*
*
*
G04 PC Copper Outlines (0)*
G04 Layer Name PIC16F87xTQ4401B.pcb - dark (0)*
%LPD*%
*
*
G04 PC Area=ANP000049*
G75*
G36*
G01*
X346500Y201400D02*
Y306000D01*
G03*
X346000Y306500I-500J-0D01*
G01*
X114000D01*
G03*
X113500Y306000I0J-500D01*
G01*
Y274646D01*
G03*
X114375Y274315I500J-0D01*
G02*
X114525Y274475I2625J-2315D01*
G01*
X115525Y275475D01*
G02*
X118000Y276500I2475J-2475D01*
G01*
X122500D01*
X146264D01*
G03*
X146747Y277129I-0J500D01*
G02*
X148114Y285981I10753J2871D01*
G03*
Y286519I-422J269D01*
G02*
X166886I9386J5981D01*
G03*
Y285981I422J-269D01*
G02*
X167549Y275215I-9386J-5981D01*
G03*
X168000Y274500I451J-215D01*
G01*
X170369D01*
G03*
X170729Y274652I0J500D01*
G02*
X172503Y275855I3771J-3652D01*
G03*
X172811Y276357I-190J463D01*
G02*
X172801Y276631I3490J274D01*
G01*
Y279271D01*
G03*
X172384Y279764I-500J0D01*
G02*
X170301Y282229I417J2465D01*
G01*
Y288729D01*
G02*
X170770Y290187I2500J0D01*
G03*
Y290771I-406J292D01*
G02*
X170301Y292229I2031J1458D01*
G01*
Y298729D01*
G02*
X172801Y301229I2500J0D01*
G01*
X179801D01*
G02*
X181051Y300894I-0J-2500D01*
G03*
X181551I250J433D01*
G02*
X182801Y301229I1250J-2165D01*
G01*
X189801D01*
G02*
X191051Y300894I-0J-2500D01*
G03*
X191551I250J433D01*
G02*
X192801Y301229I1250J-2165D01*
G01*
X199801D01*
G02*
X201051Y300894I-0J-2500D01*
G03*
X201551I250J433D01*
G02*
X202801Y301229I1250J-2165D01*
G01*
X209801D01*
G02*
X211051Y300894I-0J-2500D01*
G03*
X211551I250J433D01*
G02*
X212801Y301229I1250J-2165D01*
G01*
X219801D01*
G02*
X222301Y298729I-0J-2500D01*
G01*
Y292229D01*
G02*
X221831Y290771I-2500J0D01*
G03*
Y290187I406J-292D01*
G02*
X222301Y288729I-2030J-1458D01*
G01*
Y282229D01*
G02*
X220217Y279764I-2500J0D01*
G03*
X219801Y279271I84J-493D01*
G01*
Y257241D01*
G03*
X219947Y256888I500J0D01*
G01*
X233746Y243088D01*
G03*
X234600Y243442I354J354D01*
G01*
Y244795D01*
G03*
X234225Y245279I-500J0D01*
G02*
X232350Y247700I625J2421D01*
G01*
Y253300D01*
G02*
X232475Y254081I2500J0D01*
G03*
X232500Y254237I-475J156D01*
G01*
Y255063D01*
G03*
X232292Y255469I-500J0D01*
G02*
X231250Y257500I1458J2031D01*
G01*
Y267500D01*
G02*
X231563Y268712I2500J0D01*
G03*
X231593Y269132I-437J242D01*
G02*
X232666Y274586I4907J1868D01*
G03*
X232801Y274928I-365J342D01*
G01*
Y279271D01*
G03*
X232384Y279764I-500J0D01*
G02*
X230301Y282229I417J2465D01*
G01*
Y288729D01*
G02*
X230770Y290187I2500J0D01*
G03*
Y290771I-406J292D01*
G02*
X230301Y292229I2031J1458D01*
G01*
Y298729D01*
G02*
X232801Y301229I2500J0D01*
G01*
X239801D01*
G02*
X241051Y300894I-0J-2500D01*
G03*
X241551I250J433D01*
G02*
X242801Y301229I1250J-2165D01*
G01*
X249801D01*
G02*
X251051Y300894I-0J-2500D01*
G03*
X251551I250J433D01*
G02*
X252801Y301229I1250J-2165D01*
G01*
X259801D01*
G02*
X261051Y300894I-0J-2500D01*
G03*
X261551I250J433D01*
G02*
X262801Y301229I1250J-2165D01*
G01*
X269801D01*
G02*
X271051Y300894I-0J-2500D01*
G03*
X271551I250J433D01*
G02*
X272801Y301229I1250J-2165D01*
G01*
X279801D01*
G02*
X282301Y298729I-0J-2500D01*
G01*
Y292229D01*
G02*
X281831Y290771I-2500J0D01*
G03*
Y290187I406J-292D01*
G02*
X282301Y288729I-2030J-1458D01*
G01*
Y282229D01*
G02*
X280217Y279764I-2500J0D01*
G03*
X279801Y279271I84J-493D01*
G01*
Y271950D01*
G03*
X280654Y271597I500J0D01*
G01*
X281886Y272828D01*
G02*
X284714Y274000I2828J-2828D01*
G01*
X301000D01*
X302221D01*
G03*
X302601Y274176I-0J500D01*
G02*
X304716Y275804I4899J-4176D01*
G03*
X305000Y276255I-216J451D01*
G01*
Y282172D01*
G03*
X304854Y282525I-500J-0D01*
G01*
X303525Y283854D01*
G03*
X303172Y284000I-353J-354D01*
G01*
X299000D01*
G02*
X297750Y284335I0J2500D01*
G03*
X297250I-250J-433D01*
G02*
X296000Y284000I-1250J2165D01*
G01*
X289000D01*
G02*
X286500Y286500I0J2500D01*
G01*
Y293500D01*
G02*
X289000Y296000I2500J0D01*
G01*
X296000D01*
G02*
X297250Y295665I0J-2500D01*
G03*
X297750I250J433D01*
G02*
X299000Y296000I1250J-2165D01*
G01*
X306000D01*
G02*
X308500Y293500I0J-2500D01*
G01*
Y293228D01*
G03*
X308646Y292874I500J-0D01*
G01*
X313536Y287985D01*
G02*
X315000Y284450I-3536J-3535D01*
G01*
Y270000D01*
G02*
X312113Y265468I-5000J0D01*
G03*
X311977Y265375I211J-453D01*
G02*
X310731Y264432I-4477J4625D01*
G03*
X310982Y263500I251J-432D01*
G01*
X313500D01*
G02*
X315999Y261079I0J-2500D01*
G03*
X316657Y260621I500J16D01*
G02*
X317450Y260750I793J-2371D01*
G01*
X322550D01*
G02*
X325050Y258250I0J-2500D01*
G01*
Y254350D01*
G02*
X324518Y252808I-2500J0D01*
G03*
Y252192I394J-308D01*
G02*
X325050Y250650I-1968J-1542D01*
G01*
Y246750D01*
G02*
X324925Y245969I-2500J0D01*
G03*
X324900Y245813I475J-156D01*
G01*
Y244710D01*
Y244109D01*
G03*
X325111Y243701I500J0D01*
G02*
Y233499I-3611J-5101D01*
G03*
X324900Y233091I289J-408D01*
G01*
Y228986D01*
G03*
X325046Y228632I500J-0D01*
G01*
X329904Y223774D01*
G02*
X330900Y221370I-2404J-2404D01*
G01*
Y211353D01*
G02*
X329904Y208949I-3400J0D01*
G01*
X317551Y196596D01*
G02*
X315147Y195600I-2404J2404D01*
G01*
X302118D01*
G02*
X301131Y195746I-0J3400D01*
G03*
X300529Y195473I-146J-478D01*
G02*
X300415Y195250I-2279J1027D01*
G03*
Y194750I433J-250D01*
G02*
X300750Y193500I-2165J-1250D01*
G01*
Y186500D01*
G02*
X300415Y185250I-2500J0D01*
G03*
Y184750I433J-250D01*
G02*
X300750Y183500I-2165J-1250D01*
G01*
Y181270D01*
G03*
X301378Y180786I500J-0D01*
G02*
X302250Y180900I872J-3286D01*
G01*
X303777D01*
G03*
X304272Y181333I-0J500D01*
G02*
X304585Y182250I2478J-333D01*
G03*
Y182750I-433J250D01*
G02*
X304250Y184000I2165J1250D01*
G01*
Y191000D01*
G02*
X306750Y193500I2500J0D01*
G01*
X313250D01*
G02*
X314708Y193031I0J-2500D01*
G03*
X315292I292J406D01*
G02*
X316750Y193500I1458J-2031D01*
G01*
X323250D01*
G02*
X325102Y192679I0J-2500D01*
G03*
X325686Y192562I371J336D01*
G02*
X326750Y192800I1064J-2262D01*
G01*
X330650D01*
G02*
X333150Y190300I0J-2500D01*
G01*
Y184700D01*
G02*
X330650Y182200I-2500J0D01*
G01*
X326750D01*
G02*
X325686Y182438I0J2500D01*
G03*
X325102Y182321I-213J-453D01*
G02*
X323250Y181500I-1852J1679D01*
G01*
X316750D01*
G02*
X316333Y181535I0J2500D01*
G03*
X315750Y181035I-83J-493D01*
G01*
Y181000D01*
Y174000D01*
G02*
X313250Y171500I-2500J0D01*
G01*
X306750D01*
G02*
X304282Y173602I0J2500D01*
G03*
X303435Y173876I-494J-79D01*
G01*
X300896Y171338D01*
G03*
X300750Y170985I354J-353D01*
G01*
Y166500D01*
G02*
X300517Y165447I-2500J0D01*
G03*
X301324Y164883I454J-211D01*
G01*
X301346Y164904D01*
G02*
X303750Y165900I2404J-2404D01*
G01*
X303777D01*
G03*
X304272Y166333I-0J500D01*
G02*
X306750Y168500I2478J-333D01*
G01*
X313250D01*
G02*
X314708Y168031I0J-2500D01*
G03*
X315292I292J406D01*
G02*
X316750Y168500I1458J-2031D01*
G01*
X323250D01*
G02*
X325102Y167679I0J-2500D01*
G03*
X325686Y167562I371J336D01*
G02*
X326750Y167800I1064J-2262D01*
G01*
X330650D01*
G02*
X333150Y165300I0J-2500D01*
G01*
Y159700D01*
G02*
X330650Y157200I-2500J0D01*
G01*
X326750D01*
G02*
X326252Y157250I0J2500D01*
G03*
X325668Y156633I-100J-490D01*
G02*
X325750Y156000I-2418J-633D01*
G01*
Y149000D01*
G02*
X323250Y146500I-2500J0D01*
G01*
X319122D01*
G03*
X318791Y146375I-0J-500D01*
G01*
X317904Y145594D01*
X317881Y145572D01*
X316904Y144596D01*
G02*
X316026Y143961I-2404J2404D01*
G03*
X315750Y143515I224J-446D01*
G01*
Y137500D01*
G02*
X315415Y136250I-2500J0D01*
G03*
Y135750I433J-250D01*
G02*
X315750Y134500I-2165J-1250D01*
G01*
Y127500D01*
G02*
X315415Y126250I-2500J0D01*
G03*
Y125750I433J-250D01*
G02*
X315750Y124500I-2165J-1250D01*
G01*
Y117500D01*
G02*
X313250Y115000I-2500J0D01*
G01*
X306750D01*
G02*
X305145Y115583I0J2500D01*
G03*
X304824Y115700I-321J-383D01*
G01*
X301850D01*
G02*
X300308Y116232I0J2500D01*
G03*
X299692I-308J-394D01*
G02*
X298150Y115700I-1542J1968D01*
G01*
X295176D01*
G03*
X294855Y115583I0J-500D01*
G02*
X293250Y115000I-1605J1917D01*
G01*
X286750D01*
G02*
X284250Y117500I0J2500D01*
G01*
Y124500D01*
G02*
X284585Y125750I2500J0D01*
G03*
Y126250I-433J250D01*
G02*
X284250Y127500I2165J1250D01*
G01*
Y134500D01*
G02*
X284585Y135750I2500J0D01*
G03*
Y136250I-433J250D01*
G02*
X284250Y137500I2165J1250D01*
G01*
Y144500D01*
G02*
X284554Y145694I2500J0D01*
G03*
X284468Y146287I-440J239D01*
G01*
X279254Y151501D01*
G03*
X278400Y151148I-354J-353D01*
G01*
Y141223D01*
G03*
X278833Y140728I500J0D01*
G02*
X281000Y138250I-333J-2478D01*
G01*
Y131750D01*
G02*
X280531Y130292I-2500J0D01*
G03*
Y129708I406J-292D01*
G02*
X281000Y128250I-2031J-1458D01*
G01*
Y121750D01*
G02*
X278500Y119250I-2500J0D01*
G01*
X271500D01*
G02*
X270250Y119585I0J2500D01*
G03*
X269750I-250J-433D01*
G02*
X268500Y119250I-1250J2165D01*
G01*
X261500D01*
G02*
X260250Y119585I0J2500D01*
G03*
X259750I-250J-433D01*
G02*
X258500Y119250I-1250J2165D01*
G01*
X251500D01*
G02*
X250250Y119585I0J2500D01*
G03*
X249750I-250J-433D01*
G02*
X248500Y119250I-1250J2165D01*
G01*
X241500D01*
G02*
X240250Y119585I0J2500D01*
G03*
X239750I-250J-433D01*
G02*
X238500Y119250I-1250J2165D01*
G01*
X231500D01*
G02*
X230250Y119585I0J2500D01*
G03*
X229750I-250J-433D01*
G02*
X228500Y119250I-1250J2165D01*
G01*
X221500D01*
G02*
X219000Y121750I0J2500D01*
G01*
Y128250D01*
G02*
X219469Y129708I2500J0D01*
G03*
Y130292I-406J292D01*
G02*
X219000Y131750I2031J1458D01*
G01*
Y138250D01*
G02*
X221167Y140728I2500J0D01*
G03*
X221600Y141223I-67J495D01*
G01*
Y151000D01*
G02*
X222596Y153404I3400J0D01*
G01*
X231254Y162062D01*
G03*
X231400Y162415I-354J353D01*
G01*
Y163420D01*
G03*
X231225Y163800I-500J0D01*
G02*
X230350Y165700I1625J1900D01*
G01*
Y171300D01*
G02*
X231392Y173331I2500J0D01*
G03*
X231600Y173737I-292J406D01*
G01*
Y174727D01*
G03*
X230746Y175080I-500J-0D01*
G01*
X225939Y170273D01*
G03*
X225798Y169849I354J-354D01*
G02*
X221052Y163120I-5940J-849D01*
G03*
X220699Y162844I99J-490D01*
G01*
X219698Y160736D01*
G03*
X219650Y160521I452J-215D01*
G01*
Y159500D01*
Y156700D01*
G02*
X217692Y154259I-2500J0D01*
G03*
X217300Y153771I108J-488D01*
G01*
Y153533D01*
Y147067D01*
Y143650D01*
G02*
X216304Y141246I-3400J0D01*
G01*
X211146Y136088D01*
G03*
X211000Y135735I354J-353D01*
G01*
Y131750D01*
G02*
X210531Y130292I-2500J0D01*
G03*
Y129708I406J-292D01*
G02*
X211000Y128250I-2031J-1458D01*
G01*
Y121750D01*
G02*
X208500Y119250I-2500J0D01*
G01*
X201500D01*
G02*
X200250Y119585I0J2500D01*
G03*
X199750I-250J-433D01*
G02*
X198500Y119250I-1250J2165D01*
G01*
X191500D01*
G02*
X190250Y119585I0J2500D01*
G03*
X189750I-250J-433D01*
G02*
X188500Y119250I-1250J2165D01*
G01*
X184157D01*
G03*
X183803Y119104I-0J-500D01*
G01*
X181725Y117025D01*
G02*
X179250Y116000I-2475J2475D01*
G01*
X170922D01*
G02*
X168447Y117025I-0J3500D01*
G01*
X166525Y118947D01*
G02*
X165606Y120567I2475J2475D01*
G03*
X165475Y120799I-485J-122D01*
G01*
X164581Y121692D01*
G03*
X164228Y121838I-353J-354D01*
G01*
X160384D01*
G02*
X158926Y122308I0J2500D01*
G03*
X158343I-292J-406D01*
G02*
X156884Y121838I-1459J2030D01*
G01*
X150384D01*
G02*
X147884Y124338I0J2500D01*
G01*
Y128682D01*
G03*
X147738Y129035I-500J-0D01*
G01*
X137920Y138854D01*
G03*
X137566Y139000I-354J-354D01*
G01*
X136600D01*
G02*
X134125Y140025I0J3500D01*
G01*
X132046Y142104D01*
G03*
X131684Y142251I-354J-353D01*
G02*
X127441Y150705I-84J5249D01*
G03*
X127545Y151010I-396J305D01*
G01*
Y151254D01*
G03*
X127071Y151753I-500J-0D01*
G02*
X124700Y154250I129J2497D01*
G01*
Y158150D01*
G02*
X127200Y160650I2500J0D01*
G01*
X132800D01*
G02*
X134633Y159850I0J-2500D01*
G03*
X135367I367J340D01*
G02*
X137200Y160650I1833J-1700D01*
G01*
X142800D01*
G02*
X145300Y158150I0J-2500D01*
G01*
Y154250D01*
G02*
X143799Y151958I-2500J0D01*
G03*
X143999Y151000I200J-458D01*
G01*
X144068D01*
G02*
X146543Y149975I0J-3500D01*
G01*
X147844Y148675D01*
G03*
X148608Y148744I353J353D01*
G02*
X150665Y149822I2057J-1422D01*
G01*
X152008D01*
G03*
X152361Y150676I-0J500D01*
G01*
X148433Y154604D01*
G02*
X147408Y157079I2475J2475D01*
G01*
Y165988D01*
G02*
X148433Y168463I3500J0D01*
G01*
X150262Y170292D01*
G03*
X150408Y170645I-354J353D01*
G01*
Y174988D01*
G02*
X150743Y176238I2500J0D01*
G03*
Y176738I-433J250D01*
G02*
X150408Y177988I2165J1250D01*
G01*
Y184988D01*
G02*
X150743Y186238I2500J0D01*
G03*
Y186738I-433J250D01*
G02*
X150443Y187572I2165J1250D01*
G03*
X149950Y187988I-493J-84D01*
G01*
X149835D01*
G02*
X147360Y189013I-0J3500D01*
G01*
X146133Y190240D01*
G03*
X145358Y190156I-354J-353D01*
G02*
X143250Y189000I-2108J1344D01*
G01*
X136750D01*
G02*
X135292Y189469I0J2500D01*
G03*
X134708I-292J-406D01*
G02*
X133250Y189000I-1458J2031D01*
G01*
X126750D01*
G02*
X124250Y191500I0J2500D01*
G01*
Y198500D01*
G02*
X126208Y200941I2500J0D01*
G03*
X126600Y201429I-108J488D01*
G01*
Y205100D01*
G02*
X126682Y205841I3400J0D01*
G03*
X126203Y206450I-488J110D01*
G02*
X123750Y208950I47J2500D01*
G01*
Y214050D01*
G02*
X124542Y215875I2500J0D01*
G03*
X124700Y216240I-342J365D01*
G01*
Y216760D01*
G03*
X124542Y217125I-500J-0D01*
G02*
X123750Y218950I1708J1825D01*
G01*
Y221393D01*
G03*
X123604Y221747I-500J0D01*
G01*
X114525Y230825D01*
G02*
X114375Y230985I2475J2475D01*
G03*
X113500Y230654I-375J-331D01*
G01*
Y114000D01*
G03*
X114000Y113500I500J0D01*
G01*
X346000D01*
G03*
X346500Y114000I-0J500D01*
G01*
Y136055D01*
G03*
X346000Y136555I-500J-0D01*
G01*
X339850D01*
G02*
X338350Y138055I0J1500D01*
G01*
Y199400D01*
G02*
X339850Y200900I1500J0D01*
G01*
X346000D01*
G03*
X346500Y201400I-0J500D01*
G37*
G74*
*
*
G04 PC Area=ANP000038*
G75*
G36*
G01*
X215370Y226565D02*
G03*
X215935Y227130I70J495D01*
G02*
X215900Y227631I3565J501D01*
G01*
Y231875D01*
G03*
X215754Y232228I-500J-0D01*
G01*
X208254Y239728D01*
G03*
X207400Y239375I-354J-353D01*
G01*
Y234350D01*
G02*
X205900Y232850I-1500J0D01*
G01*
X205375D01*
G03*
X205022Y231996I0J-500D01*
G01*
X210272Y226746D01*
G03*
X210625Y226600I353J354D01*
G01*
X214869D01*
G02*
X215370Y226565I-0J-3600D01*
G37*
G74*
*
*
G04 PC Area=ANP000006*
G75*
G36*
G01*
X234700Y223827D02*
Y224237D01*
G03*
X233919Y224651I-500J0D01*
G02*
X230539Y224299I-2019J2980D01*
G03*
X230161I-189J-463D01*
G02*
X227439I-1361J3332D01*
G03*
X227061I-189J-463D01*
G02*
X224339I-1361J3332D01*
G03*
X223961I-189J-463D01*
G02*
X221239I-1361J3332D01*
G03*
X220861I-189J-463D01*
G02*
X218998Y224067I-1361J3332D01*
G03*
X218433Y223502I-70J-495D01*
G02*
X218201Y221639I-3564J-502D01*
G03*
Y221261I463J-189D01*
G02*
Y218539I-3332J-1361D01*
G03*
Y218161I463J-189D01*
G02*
Y215439I-3332J-1361D01*
G03*
Y215061I463J-189D01*
G02*
Y212339I-3332J-1361D01*
G03*
Y211961I463J-189D01*
G02*
Y209239I-3332J-1361D01*
G03*
Y208861I463J-189D01*
G02*
Y206139I-3332J-1361D01*
G03*
Y205761I463J-189D01*
G02*
Y203039I-3332J-1361D01*
G03*
Y202661I463J-189D01*
G02*
Y199939I-3332J-1361D01*
G03*
Y199561I463J-189D01*
G02*
X218421Y198786I-3332J-1361D01*
G03*
X218746Y198396I493J81D01*
G02*
X220043Y197575I-1177J-3296D01*
G01*
X220443Y197175D01*
G02*
X221469Y194700I-2474J-2475D01*
G01*
Y191420D01*
G03*
X222046Y190926I500J-0D01*
G02*
X223961Y190701I554J-3557D01*
G03*
X224339I189J463D01*
G02*
X227061I1361J-3332D01*
G03*
X227439I189J463D01*
G02*
X230819Y190349I1361J-3332D01*
G03*
X231600Y190763I281J414D01*
G01*
Y191000D01*
G02*
X232596Y193404I3400J0D01*
G01*
X234004Y194812D01*
G03*
X234150Y195165I-354J353D01*
G01*
Y208150D01*
G02*
X234461Y209697I4000J0D01*
G03*
X234500Y209890I-461J193D01*
G01*
Y222500D01*
G02*
X234678Y223679I4000J0D01*
G03*
X234700Y223827I-478J148D01*
G37*
G74*
*
*
G04 PC Area=ANP000001*
G75*
G36*
G01*
X317476Y243382D02*
G03*
X317203Y244262I-322J383D01*
G02*
X314950Y246750I247J2488D01*
G01*
Y250650D01*
G02*
X314988Y251083I2500J0D01*
G03*
X314329Y251642I-493J87D01*
G02*
X313500Y251500I-829J2358D01*
G01*
X306500D01*
G02*
X305167Y251885I0J2500D01*
G03*
X304400Y251462I-267J-423D01*
G01*
Y247897D01*
G03*
X304546Y247543I500J-0D01*
G01*
X307104Y244986D01*
G02*
X308083Y242922I-2404J-2405D01*
G03*
X308875Y242569I497J51D01*
G02*
X310350Y243050I1475J-2019D01*
G01*
X314250D01*
G02*
X315895Y242433I0J-2500D01*
G03*
X316614Y242498I328J377D01*
G02*
X317476Y243382I4886J-3898D01*
G37*
G74*
*
*
G04 PC Area=ANP000005*
G75*
G36*
G01*
X305192Y263130D02*
G03*
X305115Y264021I-262J427D01*
G01*
X305087Y264032D01*
G03*
X304400Y263569I-187J-463D01*
G01*
Y263538D01*
G03*
X305167Y263115I500J-0D01*
G01*
X305192Y263130D01*
G37*
G74*
*
*
G04 PC Void Outlines (0)*
G04 Layer Name PIC16F87xTQ4401B.pcb - clear (0)*
%LPC*%
*
*
G04 PC Area=ANP000049*
G75*
G36*
G01*
X338500Y207150D02*
G03*
X338500I0J6250D01*
G37*
G74*
*
*
G04 PC Copper Outlines (1)*
G04 Layer Name PIC16F87xTQ4401B.pcb - dark (1)*
%LPD*%
*
*
G04 PC Area=Custom_Thermal*
*
G04 PC Custom Flashes*
G04 Layer Name PIC16F87xTQ4401B.pcb - flashes*
%LPD*%
*
*
G04 PC Circuitry*
G04 Layer Name PIC16F87xTQ4401B.pcb - circuitry*
%LPD*%
*
G54D10*
G01X229200Y251350D02*
Y249650D01*
X236800Y251350D02*
Y249650D01*
X303800Y140150D02*
Y141850D01*
X296200Y140150D02*
Y141850D01*
X303800Y130150D02*
Y131850D01*
X296200Y130150D02*
Y131850D01*
X303800Y120150D02*
Y121850D01*
X296200Y120150D02*
Y121850D01*
X227200Y169350D02*
Y167650D01*
X234800Y169350D02*
Y167650D01*
X336300Y161650D02*
Y163350D01*
X328700Y161650D02*
Y163350D01*
X336300Y186650D02*
Y188350D01*
X328700Y186650D02*
Y188350D01*
X222800Y158650D02*
Y160350D01*
X215200Y158650D02*
Y160350D01*
X217700Y149450D02*
Y151150D01*
X210100Y149450D02*
Y151150D01*
X130850Y163800D02*
X129150D01*
X130850Y156200D02*
X129150D01*
X140850Y163800D02*
X139150D01*
X140850Y156200D02*
X139150D01*
X312300Y237400D02*
Y238600D01*
X304700Y237400D02*
Y238600D01*
X319400Y248700D02*
X320600D01*
X319400Y256300D02*
X320600D01*
X135800Y210900D02*
Y212100D01*
X128200Y210900D02*
Y212100D01*
X135800Y220900D02*
Y222100D01*
X128200Y220900D02*
Y222100D01*
X136300Y266900D02*
Y268100D01*
X128700Y266900D02*
Y268100D01*
X136300Y256900D02*
Y258100D01*
X128700Y256900D02*
Y258100D01*
X136300Y246900D02*
Y248100D01*
X128700Y246900D02*
Y248100D01*
G54D12*
X292500Y300000D03*
X302500D03*
X292500Y290000D03*
X302500D03*
X292500Y280000D03*
X302500D03*
X310000Y207500D03*
Y217500D03*
Y227500D03*
Y247500D03*
Y257500D03*
G54D13*
X130000Y130000D03*
X330000D03*
Y290000D03*
X130000D03*
G54D14*
X157500Y292500D03*
X135000Y185000D03*
X302500Y290000D02*
X303475D01*
Y290975*
X292500Y290000D02*
X302500D01*
X307500Y270000D02*
X310000D01*
Y284450*
X303475Y290975*
G54D17*
X163915Y144072D02*
X150908Y157079D01*
Y165988*
X163915Y144072D02*
X188000Y168157D01*
Y174061*
X201939Y188000*
X215253*
X217969Y190716*
Y194700*
X144068Y147500D02*
X139127D01*
Y156200*
X140000*
X139223Y142500D02*
X136600D01*
X131600Y147500*
X170922Y119500D02*
X179250D01*
X184750Y125000*
X185000*
X170922Y119500D02*
X169000Y121422D01*
Y122223*
X163634Y127588*
Y127838*
X153915Y143822D02*
X147746D01*
X144068Y147500*
X150908Y165988D02*
X156158Y171238D01*
Y171488*
X153634Y127838D02*
Y128088D01*
X139223Y142500*
X163915Y143822D02*
Y144072D01*
X166158Y161488D02*
Y161738D01*
X196420Y192000*
X211969*
X156158Y161488D02*
X166158D01*
X156158Y171488D02*
X166158D01*
Y181488D02*
X178366D01*
X195078Y198200*
X211969*
X156158Y181488D02*
X166158D01*
X138400Y147500D02*
X139127D01*
X227200Y168500D02*
Y169350D01*
X232000Y174150*
Y178500*
X231900*
Y184469*
X157500Y268000D02*
X152500D01*
X147500Y273000*
X122500*
X157500Y268000D02*
X164456D01*
X167456Y271000*
X174500*
X128200Y211500D02*
Y221500D01*
Y222100*
X117000Y233300*
Y272000*
X118000Y273000*
X122500*
X176569Y255500D02*
X171896D01*
X166158Y261238*
Y261488*
X211969Y207500D02*
X183500D01*
X179512Y211488*
X156158Y191488D02*
X149835D01*
X146323Y195000*
X140000Y235000D02*
Y235250D01*
X146238Y241488*
X156158*
X140000Y195000D02*
X146323D01*
X166158Y191488D02*
X182066D01*
X191878Y201300*
X211969*
X156158Y191488D02*
X166158D01*
Y201488D02*
X179488D01*
X182500Y204500*
X194500*
X156158Y201488D02*
X166158D01*
X179512Y211488D02*
X166158D01*
X156158*
X182317Y221488D02*
X166158D01*
X156158*
X180584Y231488D02*
X166158D01*
X156158*
X178851Y241488D02*
X166158D01*
X156158*
X173937Y251488D02*
X166158D01*
X156158*
Y261488D02*
X166158D01*
X231900Y224500D02*
X235000D01*
Y230531*
X231900Y224500D02*
X218000D01*
X216000Y226500*
X214500*
X210000Y231000*
X211969Y223000D02*
X209069D01*
X176569Y255500*
X211969Y219900D02*
X205525D01*
X173937Y251488*
X211969Y216800D02*
X203539D01*
X178851Y241488*
X211969Y213700D02*
X198372D01*
X180584Y231488*
X193305Y210500D02*
X200000D01*
X200100Y210600*
X211969*
X193305Y210500D02*
X182317Y221488D01*
X211969Y204400D02*
X194600D01*
X194500Y204500*
X217969Y194700D02*
X217569Y195100D01*
X211969*
X250000Y222500D02*
X256000Y228500D01*
X256500*
X250500Y230531D02*
Y241263D01*
X276301Y267063*
Y285479*
X247400Y230531D02*
Y244142D01*
X266301Y263042*
Y285479*
X244300Y230531D02*
Y247021D01*
X256301Y259021*
Y285479*
X241200Y230531D02*
Y246200D01*
X241300Y246300*
Y261800*
X246301Y266801*
Y285479*
X235000Y230531D02*
Y241500D01*
X231000Y245500*
Y262250*
X226301Y266950*
Y285479*
X231900Y230531D02*
Y239985D01*
X216301Y255585*
Y285479*
X228800Y230531D02*
Y238512D01*
X206301Y261011*
Y285479*
X225700Y230531D02*
Y237038D01*
X196301Y266438*
Y285479*
X222600Y230531D02*
Y235470D01*
X186301Y271770*
Y285479*
X219500Y230531D02*
Y233431D01*
X176301Y276631*
Y285479*
X236500Y262500D02*
Y271000D01*
X310000Y247500D02*
X304500Y253000D01*
Y262000*
X306000Y263500*
X310000*
X317500Y271000*
Y277500*
X330000Y290000*
X176301Y285479D02*
Y295479D01*
X186301Y285479D02*
Y295479D01*
X236500Y271000D02*
X236301Y271199D01*
Y285479*
X266301D02*
Y295479D01*
X196301Y285479D02*
Y295479D01*
X206301Y285479D02*
Y295479D01*
X216301Y285479D02*
Y295479D01*
X236301Y285479D02*
Y295479D01*
X246301Y285479D02*
Y295479D01*
X256301Y285479D02*
Y295479D01*
X276301Y285479D02*
Y295479D01*
G54D19*
X238150Y194150D02*
Y208150D01*
X238500Y208500*
Y222500*
X250000*
X248150Y194150D02*
X238150D01*
X256500Y228500D02*
Y241786D01*
X284714Y270000*
X301000*
X236800Y250500D02*
X236500Y250800D01*
Y262500*
X301000Y270000D02*
X307500D01*
G54D22*
X138400Y147500D03*
X131600D03*
X174500Y271000D03*
X236500D03*
G54D25*
X344750Y213400D02*
G75*
G03X344750I-6250J0D01*
G01X346500Y201400D02*
Y306000D01*
G03X346000Y306500I-500J-0*
G01X114000*
G03X113500Y306000I0J-500*
G01Y274646*
G03X114375Y274315I500J-0*
G01X114525Y274475D02*
G03X114375Y274315I2475J-2475D01*
G01X114525Y274475D02*
X115525Y275475D01*
X118000Y276500D02*
G03X115525Y275475I0J-3500D01*
G01X118000Y276500D02*
X122500D01*
X146264*
G03X146747Y277129I-0J500*
G01X148114Y285981D02*
G03X146747Y277129I9386J-5981D01*
G01X148114Y285981D02*
G03Y286519I-422J269D01*
G01X166886D02*
G03X148114I-9386J5981D01*
G01X166886D02*
G03Y285981I422J-269D01*
G01X167549Y275215D02*
G03X166886Y285981I-10049J4785D01*
G01X167549Y275215D02*
G03X168000Y274500I451J-215D01*
G01X170369*
G03X170728Y274652I0J500*
G01X172503Y275855D02*
G03X170729Y274652I1997J-4855D01*
G01X172503Y275855D02*
G03X172811Y276357I-190J463D01*
G01X172801Y276631D02*
G03X172811Y276357I3500J-0D01*
G01X172801Y276631D02*
Y279271D01*
G03X172384Y279764I-500J0*
G01X170301Y282229D02*
G03X172384Y279764I2500J0D01*
G01X170301Y282229D02*
Y288729D01*
X170770Y290187D02*
G03X170301Y288729I2031J-1458D01*
G01X170770Y290187D02*
G03Y290771I-406J292D01*
G01X170301Y292229D02*
G03X170770Y290771I2500J0D01*
G01X170301Y292229D02*
Y298729D01*
X172801Y301229D02*
G03X170301Y298729I-0J-2500D01*
G01X172801Y301229D02*
X179801D01*
X181051Y300894D02*
G03X179801Y301229I-1250J-2165D01*
G01X181051Y300894D02*
G03X181551I250J433D01*
G01X182801Y301229D02*
G03X181551Y300894I-0J-2500D01*
G01X182801Y301229D02*
X189801D01*
X191051Y300894D02*
G03X189801Y301229I-1250J-2165D01*
G01X191051Y300894D02*
G03X191551I250J433D01*
G01X192801Y301229D02*
G03X191551Y300894I-0J-2500D01*
G01X192801Y301229D02*
X199801D01*
X201051Y300894D02*
G03X199801Y301229I-1250J-2165D01*
G01X201051Y300894D02*
G03X201551I250J433D01*
G01X202801Y301229D02*
G03X201551Y300894I-0J-2500D01*
G01X202801Y301229D02*
X209801D01*
X211051Y300894D02*
G03X209801Y301229I-1250J-2165D01*
G01X211051Y300894D02*
G03X211551I250J433D01*
G01X212801Y301229D02*
G03X211551Y300894I-0J-2500D01*
G01X212801Y301229D02*
X219801D01*
X222301Y298729D02*
G03X219801Y301229I-2500J0D01*
G01X222301Y298729D02*
Y292229D01*
X221831Y290771D02*
G03X222301Y292229I-2030J1458D01*
G01X221831Y290771D02*
G03Y290187I406J-292D01*
G01X222301Y288729D02*
G03X221831Y290187I-2500J0D01*
G01X222301Y288729D02*
Y282229D01*
X220217Y279764D02*
G03X222301Y282229I-416J2465D01*
G01X220217Y279764D02*
G03X219801Y279271I84J-493D01*
G01Y257241*
G03X219947Y256888I500J0*
G01X233746Y243088*
G03X234600Y243442I354J354*
G01Y244795*
G03X234225Y245279I-500J0*
G01X232350Y247700D02*
G03X234225Y245279I2500J0D01*
G01X232350Y247700D02*
Y253300D01*
X232475Y254081D02*
G03X232350Y253300I2375J-781D01*
G01X232475Y254081D02*
G03X232500Y254237I-475J156D01*
G01Y255063*
G03X232292Y255469I-500J0*
G01X231250Y257500D02*
G03X232292Y255469I2500J0D01*
G01X231250Y257500D02*
Y267500D01*
X231563Y268712D02*
G03X231250Y267500I2187J-1212D01*
G01X231563Y268712D02*
G03X231593Y269132I-437J242D01*
G01X232666Y274586D02*
G03X231593Y269132I3834J-3586D01*
G01X232666Y274586D02*
G03X232801Y274928I-365J342D01*
G01Y279271*
G03X232384Y279764I-500J0*
G01X230301Y282229D02*
G03X232384Y279764I2500J0D01*
G01X230301Y282229D02*
Y288729D01*
X230770Y290187D02*
G03X230301Y288729I2031J-1458D01*
G01X230770Y290187D02*
G03Y290771I-406J292D01*
G01X230301Y292229D02*
G03X230770Y290771I2500J0D01*
G01X230301Y292229D02*
Y298729D01*
X232801Y301229D02*
G03X230301Y298729I-0J-2500D01*
G01X232801Y301229D02*
X239801D01*
X241051Y300894D02*
G03X239801Y301229I-1250J-2165D01*
G01X241051Y300894D02*
G03X241551I250J433D01*
G01X242801Y301229D02*
G03X241551Y300894I-0J-2500D01*
G01X242801Y301229D02*
X249801D01*
X251051Y300894D02*
G03X249801Y301229I-1250J-2165D01*
G01X251051Y300894D02*
G03X251551I250J433D01*
G01X252801Y301229D02*
G03X251551Y300894I-0J-2500D01*
G01X252801Y301229D02*
X259801D01*
X261051Y300894D02*
G03X259801Y301229I-1250J-2165D01*
G01X261051Y300894D02*
G03X261551I250J433D01*
G01X262801Y301229D02*
G03X261551Y300894I-0J-2500D01*
G01X262801Y301229D02*
X269801D01*
X271051Y300894D02*
G03X269801Y301229I-1250J-2165D01*
G01X271051Y300894D02*
G03X271551I250J433D01*
G01X272801Y301229D02*
G03X271551Y300894I-0J-2500D01*
G01X272801Y301229D02*
X279801D01*
X282301Y298729D02*
G03X279801Y301229I-2500J0D01*
G01X282301Y298729D02*
Y292229D01*
X281831Y290771D02*
G03X282301Y292229I-2030J1458D01*
G01X281831Y290771D02*
G03Y290187I406J-292D01*
G01X282301Y288729D02*
G03X281831Y290187I-2500J0D01*
G01X282301Y288729D02*
Y282229D01*
X280217Y279764D02*
G03X282301Y282229I-416J2465D01*
G01X280217Y279764D02*
G03X279801Y279271I84J-493D01*
G01Y271950*
G03X280654Y271597I500J0*
G01X281886Y272828*
X284714Y274000D02*
G03X281886Y272828I0J-4000D01*
G01X284714Y274000D02*
X301000D01*
X302221*
G03X302601Y274176I-0J500*
G01X304716Y275804D02*
G03X302601Y274176I2784J-5804D01*
G01X304716Y275804D02*
G03X305000Y276255I-216J451D01*
G01Y282172*
G03X304854Y282525I-500J-0*
G01X303525Y283854*
G03X303172Y284000I-353J-354*
G01X299000*
X297750Y284335D02*
G03X299000Y284000I1250J2165D01*
G01X297750Y284335D02*
G03X297250I-250J-433D01*
G01X296000Y284000D02*
G03X297250Y284335I0J2500D01*
G01X296000Y284000D02*
X289000D01*
X286500Y286500D02*
G03X289000Y284000I2500J0D01*
G01X286500Y286500D02*
Y293500D01*
X289000Y296000D02*
G03X286500Y293500I0J-2500D01*
G01X289000Y296000D02*
X296000D01*
X297250Y295665D02*
G03X296000Y296000I-1250J-2165D01*
G01X297250Y295665D02*
G03X297750I250J433D01*
G01X299000Y296000D02*
G03X297750Y295665I0J-2500D01*
G01X299000Y296000D02*
X306000D01*
X308500Y293500D02*
G03X306000Y296000I-2500J0D01*
G01X308500Y293500D02*
Y293228D01*
G03X308646Y292874I500J-0*
G01X313536Y287985*
X315000Y284450D02*
G03X313536Y287985I-5000J-0D01*
G01X315000Y284450D02*
Y270000D01*
X312113Y265468D02*
G03X315000Y270000I-2113J4532D01*
G01X312113Y265468D02*
G03X311977Y265375I211J-453D01*
G01X310731Y264432D02*
G03X311977Y265375I-3231J5568D01*
G01X310731Y264432D02*
G03X310982Y263500I251J-432D01*
G01X313500*
X315999Y261079D02*
G03X313500Y263500I-2499J-79D01*
G01X315999Y261079D02*
G03X316657Y260621I500J16D01*
G01X317450Y260750D02*
G03X316657Y260621I0J-2500D01*
G01X317450Y260750D02*
X322550D01*
X325050Y258250D02*
G03X322550Y260750I-2500J0D01*
G01X325050Y258250D02*
Y254350D01*
X324518Y252808D02*
G03X325050Y254350I-1968J1542D01*
G01X324518Y252808D02*
G03Y252192I394J-308D01*
G01X325050Y250650D02*
G03X324518Y252192I-2500J0D01*
G01X325050Y250650D02*
Y246750D01*
X324925Y245969D02*
G03X325050Y246750I-2375J781D01*
G01X324925Y245969D02*
G03X324900Y245813I475J-156D01*
G01Y244710*
Y244109*
G03X325111Y243701I500J0*
G01Y233499D02*
G03Y243701I-3611J5101D01*
G01Y233499D02*
G03X324900Y233091I289J-408D01*
G01Y228986*
G03X325046Y228632I500J-0*
G01X329904Y223774*
X330900Y221370D02*
G03X329904Y223774I-3400J0D01*
G01X330900Y221370D02*
Y211353D01*
X329904Y208949D02*
G03X330900Y211353I-2404J2404D01*
G01X329904Y208949D02*
X317551Y196596D01*
X315147Y195600D02*
G03X317551Y196596I-0J3400D01*
G01X315147Y195600D02*
X302118D01*
X301131Y195746D02*
G03X302118Y195600I987J3254D01*
G01X301131Y195746D02*
G03X300529Y195473I-146J-478D01*
G01X300415Y195250D02*
G03X300529Y195473I-2165J1250D01*
G01X300415Y195250D02*
G03Y194750I433J-250D01*
G01X300750Y193500D02*
G03X300415Y194750I-2500J0D01*
G01X300750Y193500D02*
Y186500D01*
X300415Y185250D02*
G03X300750Y186500I-2165J1250D01*
G01X300415Y185250D02*
G03Y184750I433J-250D01*
G01X300750Y183500D02*
G03X300415Y184750I-2500J0D01*
G01X300750Y183500D02*
Y181270D01*
G03X301378Y180786I500J-0*
G01X302250Y180900D02*
G03X301378Y180786I0J-3400D01*
G01X302250Y180900D02*
X303777D01*
G03X304272Y181333I-0J500*
G01X304585Y182250D02*
G03X304272Y181333I2165J-1250D01*
G01X304585Y182250D02*
G03Y182750I-433J250D01*
G01X304250Y184000D02*
G03X304585Y182750I2500J0D01*
G01X304250Y184000D02*
Y191000D01*
X306750Y193500D02*
G03X304250Y191000I0J-2500D01*
G01X306750Y193500D02*
X313250D01*
X314708Y193031D02*
G03X313250Y193500I-1458J-2031D01*
G01X314708Y193031D02*
G03X315292I292J406D01*
G01X316750Y193500D02*
G03X315292Y193031I0J-2500D01*
G01X316750Y193500D02*
X323250D01*
X325102Y192679D02*
G03X323250Y193500I-1852J-1679D01*
G01X325102Y192679D02*
G03X325686Y192562I371J336D01*
G01X326750Y192800D02*
G03X325686Y192562I0J-2500D01*
G01X326750Y192800D02*
X330650D01*
X333150Y190300D02*
G03X330650Y192800I-2500J0D01*
G01X333150Y190300D02*
Y184700D01*
X330650Y182200D02*
G03X333150Y184700I0J2500D01*
G01X330650Y182200D02*
X326750D01*
X325686Y182438D02*
G03X326750Y182200I1064J2262D01*
G01X325686Y182438D02*
G03X325102Y182321I-213J-453D01*
G01X323250Y181500D02*
G03X325102Y182321I0J2500D01*
G01X323250Y181500D02*
X316750D01*
X316333Y181535D02*
G03X316750Y181500I417J2465D01*
G01X316333Y181535D02*
G03X315750Y181035I-83J-493D01*
G01Y181000D02*
G03Y181035I-2500J0D01*
G01Y181000D02*
Y174000D01*
X313250Y171500D02*
G03X315750Y174000I0J2500D01*
G01X313250Y171500D02*
X306750D01*
X304282Y173602D02*
G03X306750Y171500I2468J398D01*
G01X304282Y173602D02*
G03X303435Y173876I-494J-79D01*
G01X300896Y171338*
G03X300750Y170985I354J-353*
G01Y166500*
X300517Y165447D02*
G03X300750Y166500I-2267J1053D01*
G01X300517Y165447D02*
G03X301324Y164883I454J-211D01*
G01X301346Y164904*
X303750Y165900D02*
G03X301346Y164904I0J-3400D01*
G01X303750Y165900D02*
X303777D01*
G03X304272Y166333I-0J500*
G01X306750Y168500D02*
G03X304272Y166333I0J-2500D01*
G01X306750Y168500D02*
X313250D01*
X314708Y168031D02*
G03X313250Y168500I-1458J-2031D01*
G01X314708Y168031D02*
G03X315292I292J406D01*
G01X316750Y168500D02*
G03X315292Y168031I0J-2500D01*
G01X316750Y168500D02*
X323250D01*
X325102Y167679D02*
G03X323250Y168500I-1852J-1679D01*
G01X325102Y167679D02*
G03X325686Y167562I371J336D01*
G01X326750Y167800D02*
G03X325686Y167562I0J-2500D01*
G01X326750Y167800D02*
X330650D01*
X333150Y165300D02*
G03X330650Y167800I-2500J0D01*
G01X333150Y165300D02*
Y159700D01*
X330650Y157200D02*
G03X333150Y159700I0J2500D01*
G01X330650Y157200D02*
X326750D01*
X326252Y157250D02*
G03X326750Y157200I498J2450D01*
G01X326252Y157250D02*
G03X325668Y156633I-100J-490D01*
G01X325750Y156000D02*
G03X325668Y156633I-2500J0D01*
G01X325750Y156000D02*
Y149000D01*
X323250Y146500D02*
G03X325750Y149000I0J2500D01*
G01X323250Y146500D02*
X319122D01*
G03X318791Y146375I-0J-500*
G01X317904Y145594*
G03X317881Y145572I330J-375*
G01X316904Y144596*
X316026Y143961D02*
G03X316904Y144596I-1526J3039D01*
G01X316026Y143961D02*
G03X315750Y143515I224J-446D01*
G01Y137500*
X315415Y136250D02*
G03X315750Y137500I-2165J1250D01*
G01X315415Y136250D02*
G03Y135750I433J-250D01*
G01X315750Y134500D02*
G03X315415Y135750I-2500J0D01*
G01X315750Y134500D02*
Y127500D01*
X315415Y126250D02*
G03X315750Y127500I-2165J1250D01*
G01X315415Y126250D02*
G03Y125750I433J-250D01*
G01X315750Y124500D02*
G03X315415Y125750I-2500J0D01*
G01X315750Y124500D02*
Y117500D01*
X313250Y115000D02*
G03X315750Y117500I0J2500D01*
G01X313250Y115000D02*
X306750D01*
X305145Y115583D02*
G03X306750Y115000I1605J1917D01*
G01X305145Y115583D02*
G03X304824Y115700I-321J-383D01*
G01X301850*
X300308Y116232D02*
G03X301850Y115700I1542J1968D01*
G01X300308Y116232D02*
G03X299692I-308J-394D01*
G01X298150Y115700D02*
G03X299692Y116232I0J2500D01*
G01X298150Y115700D02*
X295176D01*
G03X294855Y115583I0J-500*
G01X293250Y115000D02*
G03X294855Y115583I0J2500D01*
G01X293250Y115000D02*
X286750D01*
X284250Y117500D02*
G03X286750Y115000I2500J0D01*
G01X284250Y117500D02*
Y124500D01*
X284585Y125750D02*
G03X284250Y124500I2165J-1250D01*
G01X284585Y125750D02*
G03Y126250I-433J250D01*
G01X284250Y127500D02*
G03X284585Y126250I2500J0D01*
G01X284250Y127500D02*
Y134500D01*
X284585Y135750D02*
G03X284250Y134500I2165J-1250D01*
G01X284585Y135750D02*
G03Y136250I-433J250D01*
G01X284250Y137500D02*
G03X284585Y136250I2500J0D01*
G01X284250Y137500D02*
Y144500D01*
X284554Y145694D02*
G03X284250Y144500I2196J-1194D01*
G01X284554Y145694D02*
G03X284468Y146287I-440J239D01*
G01X279254Y151501*
G03X278400Y151148I-354J-353*
G01Y141223*
G03X278833Y140728I500J0*
G01X281000Y138250D02*
G03X278833Y140728I-2500J0D01*
G01X281000Y138250D02*
Y131750D01*
X280531Y130292D02*
G03X281000Y131750I-2031J1458D01*
G01X280531Y130292D02*
G03Y129708I406J-292D01*
G01X281000Y128250D02*
G03X280531Y129708I-2500J0D01*
G01X281000Y128250D02*
Y121750D01*
X278500Y119250D02*
G03X281000Y121750I0J2500D01*
G01X278500Y119250D02*
X271500D01*
X270250Y119585D02*
G03X271500Y119250I1250J2165D01*
G01X270250Y119585D02*
G03X269750I-250J-433D01*
G01X268500Y119250D02*
G03X269750Y119585I0J2500D01*
G01X268500Y119250D02*
X261500D01*
X260250Y119585D02*
G03X261500Y119250I1250J2165D01*
G01X260250Y119585D02*
G03X259750I-250J-433D01*
G01X258500Y119250D02*
G03X259750Y119585I0J2500D01*
G01X258500Y119250D02*
X251500D01*
X250250Y119585D02*
G03X251500Y119250I1250J2165D01*
G01X250250Y119585D02*
G03X249750I-250J-433D01*
G01X248500Y119250D02*
G03X249750Y119585I0J2500D01*
G01X248500Y119250D02*
X241500D01*
X240250Y119585D02*
G03X241500Y119250I1250J2165D01*
G01X240250Y119585D02*
G03X239750I-250J-433D01*
G01X238500Y119250D02*
G03X239750Y119585I0J2500D01*
G01X238500Y119250D02*
X231500D01*
X230250Y119585D02*
G03X231500Y119250I1250J2165D01*
G01X230250Y119585D02*
G03X229750I-250J-433D01*
G01X228500Y119250D02*
G03X229750Y119585I0J2500D01*
G01X228500Y119250D02*
X221500D01*
X219000Y121750D02*
G03X221500Y119250I2500J0D01*
G01X219000Y121750D02*
Y128250D01*
X219469Y129708D02*
G03X219000Y128250I2031J-1458D01*
G01X219469Y129708D02*
G03Y130292I-406J292D01*
G01X219000Y131750D02*
G03X219469Y130292I2500J0D01*
G01X219000Y131750D02*
Y138250D01*
X221167Y140728D02*
G03X219000Y138250I333J-2478D01*
G01X221167Y140728D02*
G03X221600Y141223I-67J495D01*
G01Y151000*
X222596Y153404D02*
G03X221600Y151000I2404J-2404D01*
G01X222596Y153404D02*
X231254Y162062D01*
G03X231400Y162415I-354J353*
G01Y163420*
G03X231225Y163800I-500J0*
G01X230350Y165700D02*
G03X231225Y163800I2500J0D01*
G01X230350Y165700D02*
Y171300D01*
X231392Y173331D02*
G03X230350Y171300I1458J-2031D01*
G01X231392Y173331D02*
G03X231600Y173737I-292J406D01*
G01Y174727*
G03X230746Y175080I-500J-0*
G01X225939Y170273*
G03X225798Y169849I354J-354*
G01X221052Y163120D02*
G03X225798Y169849I-1194J5880D01*
G01X221052Y163120D02*
G03X220699Y162844I99J-490D01*
G01X219698Y160736*
G03X219650Y160521I452J-215*
G01Y159500*
Y156700*
X217692Y154259D02*
G03X219650Y156700I-542J2441D01*
G01X217692Y154259D02*
G03X217300Y153771I108J-488D01*
G01Y153533*
Y147067*
Y143650*
X216304Y141246D02*
G03X217300Y143650I-2404J2404D01*
G01X216304Y141246D02*
X211146Y136088D01*
G03X211000Y135735I354J-353*
G01Y131750*
X210531Y130292D02*
G03X211000Y131750I-2031J1458D01*
G01X210531Y130292D02*
G03Y129708I406J-292D01*
G01X211000Y128250D02*
G03X210531Y129708I-2500J0D01*
G01X211000Y128250D02*
Y121750D01*
X208500Y119250D02*
G03X211000Y121750I0J2500D01*
G01X208500Y119250D02*
X201500D01*
X200250Y119585D02*
G03X201500Y119250I1250J2165D01*
G01X200250Y119585D02*
G03X199750I-250J-433D01*
G01X198500Y119250D02*
G03X199750Y119585I0J2500D01*
G01X198500Y119250D02*
X191500D01*
X190250Y119585D02*
G03X191500Y119250I1250J2165D01*
G01X190250Y119585D02*
G03X189750I-250J-433D01*
G01X188500Y119250D02*
G03X189750Y119585I0J2500D01*
G01X188500Y119250D02*
X184157D01*
G03X183803Y119104I-0J-500*
G01X181725Y117025*
X179250Y116000D02*
G03X181725Y117025I0J3500D01*
G01X179250Y116000D02*
X170922D01*
X168447Y117025D02*
G03X170922Y116000I2475J2475D01*
G01X168447Y117025D02*
X166525Y118947D01*
X165606Y120567D02*
G03X166525Y118947I3394J855D01*
G01X165606Y120567D02*
G03X165475Y120798I-485J-122D01*
G01Y120799D02*
X164581Y121692D01*
G03X164228Y121838I-353J-354*
G01X160384*
X158926Y122308D02*
G03X160384Y121838I1458J2030D01*
G01X158926Y122308D02*
G03X158343I-292J-406D01*
G01X156884Y121838D02*
G03X158343Y122308I0J2500D01*
G01X156884Y121838D02*
X150384D01*
X147884Y124338D02*
G03X150384Y121838I2500J0D01*
G01X147884Y124338D02*
Y128682D01*
G03X147738Y129035I-500J-0*
G01X137920Y138854*
G03X137566Y139000I-354J-354*
G01X136600*
X134125Y140025D02*
G03X136600Y139000I2475J2475D01*
G01X134125Y140025D02*
X132046Y142104D01*
G03X131684Y142251I-354J-353*
G01X127441Y150705D02*
G03X131684Y142251I4159J-3205D01*
G01X127441Y150705D02*
G03X127545Y151010I-396J305D01*
G01Y151254*
G03X127071Y151753I-500J-0*
G01X124700Y154250D02*
G03X127071Y151753I2500J0D01*
G01X124700Y154250D02*
Y158150D01*
X127200Y160650D02*
G03X124700Y158150I0J-2500D01*
G01X127200Y160650D02*
X132800D01*
X134633Y159850D02*
G03X132800Y160650I-1833J-1700D01*
G01X134633Y159850D02*
G03X135367I367J340D01*
G01X137200Y160650D02*
G03X135367Y159850I0J-2500D01*
G01X137200Y160650D02*
X142800D01*
X145300Y158150D02*
G03X142800Y160650I-2500J0D01*
G01X145300Y158150D02*
Y154250D01*
X143799Y151958D02*
G03X145300Y154250I-999J2292D01*
G01X143799Y151958D02*
G03X143999Y151000I200J-458D01*
G01X144068*
X146543Y149975D02*
G03X144068Y151000I-2475J-2475D01*
G01X146543Y149975D02*
X147844Y148675D01*
G03X148608Y148744I353J353*
G01X150665Y149822D02*
G03X148608Y148744I-0J-2500D01*
G01X150665Y149822D02*
X152008D01*
G03X152361Y150676I-0J500*
G01X148433Y154604*
X147408Y157079D02*
G03X148433Y154604I3500J-0D01*
G01X147408Y157079D02*
Y165988D01*
X148433Y168463D02*
G03X147408Y165988I2475J-2475D01*
G01X148433Y168463D02*
X150262Y170292D01*
G03X150408Y170645I-354J353*
G01Y174988*
X150743Y176238D02*
G03X150408Y174988I2165J-1250D01*
G01X150743Y176238D02*
G03Y176738I-433J250D01*
G01X150408Y177988D02*
G03X150743Y176738I2500J0D01*
G01X150408Y177988D02*
Y184988D01*
X150743Y186238D02*
G03X150408Y184988I2165J-1250D01*
G01X150743Y186238D02*
G03Y186738I-433J250D01*
G01X150443Y187572D02*
G03X150743Y186738I2465J416D01*
G01X150443Y187572D02*
G03X149950Y187988I-493J-84D01*
G01X149835*
X147360Y189013D02*
G03X149835Y187988I2475J2475D01*
G01X147360Y189013D02*
X146133Y190240D01*
G03X145358Y190156I-354J-353*
G01X143250Y189000D02*
G03X145358Y190156I0J2500D01*
G01X143250Y189000D02*
X136750D01*
X135292Y189469D02*
G03X136750Y189000I1458J2031D01*
G01X135292Y189469D02*
G03X134708I-292J-406D01*
G01X133250Y189000D02*
G03X134708Y189469I0J2500D01*
G01X133250Y189000D02*
X126750D01*
X124250Y191500D02*
G03X126750Y189000I2500J0D01*
G01X124250Y191500D02*
Y198500D01*
X126208Y200941D02*
G03X124250Y198500I542J-2441D01*
G01X126208Y200941D02*
G03X126600Y201429I-108J488D01*
G01Y205100*
X126682Y205841D02*
G03X126600Y205100I3318J-741D01*
G01X126682Y205841D02*
G03X126203Y206450I-488J110D01*
G01X123750Y208950D02*
G03X126203Y206450I2500J0D01*
G01X123750Y208950D02*
Y214050D01*
X124542Y215875D02*
G03X123750Y214050I1708J-1825D01*
G01X124542Y215875D02*
G03X124700Y216240I-342J365D01*
G01Y216760*
G03X124542Y217125I-500J-0*
G01X123750Y218950D02*
G03X124542Y217125I2500J0D01*
G01X123750Y218950D02*
Y221393D01*
G03X123604Y221747I-500J0*
G01X114525Y230825*
X114375Y230985D02*
G03X114525Y230825I2625J2315D01*
G01X114375Y230985D02*
G03X113500Y230654I-375J-331D01*
G01Y114000*
G03X114000Y113500I500J0*
G01X346000*
G03X346500Y114000I-0J500*
G01Y136055*
G03X346000Y136555I-500J-0*
G01X339850*
X338350Y138055D02*
G03X339850Y136555I1500J-0D01*
G01X338350Y138055D02*
Y199400D01*
X339850Y200900D02*
G03X338350Y199400I0J-1500D01*
G01X339850Y200900D02*
X346000D01*
G03X346500Y201400I-0J500*
G01X215370Y226565D02*
G03X215935Y227130I70J495D01*
G01X215900Y227631D02*
G03X215935Y227130I3600J0D01*
G01X215900Y227631D02*
Y231875D01*
G03X215754Y232228I-500J-0*
G01X208254Y239728*
G03X207400Y239375I-354J-353*
G01Y234350*
X205900Y232850D02*
G03X207400Y234350I0J1500D01*
G01X205900Y232850D02*
X205375D01*
G03X205022Y231996I0J-500*
G01X210272Y226746*
G03X210625Y226600I353J354*
G01X214869*
X215370Y226565D02*
G03X214869Y226600I-501J-3565D01*
G01X234700Y223827D02*
Y224237D01*
G03X233919Y224651I-500J0*
G01X230539Y224299D02*
G03X233919Y224651I1361J3332D01*
G01X230539Y224299D02*
G03X230161I-189J-463D01*
G01X227439D02*
G03X230161I1361J3332D01*
G01X227439D02*
G03X227061I-189J-463D01*
G01X224339D02*
G03X227061I1361J3332D01*
G01X224339D02*
G03X223961I-189J-463D01*
G01X221239D02*
G03X223961I1361J3332D01*
G01X221239D02*
G03X220861I-189J-463D01*
G01X218998Y224067D02*
G03X220861Y224299I502J3564D01*
G01X218998Y224067D02*
G03X218433Y223502I-70J-495D01*
G01X218201Y221639D02*
G03X218433Y223502I-3332J1361D01*
G01X218201Y221639D02*
G03Y221261I463J-189D01*
G01Y218539D02*
G03Y221261I-3332J1361D01*
G01Y218539D02*
G03Y218161I463J-189D01*
G01Y215439D02*
G03Y218161I-3332J1361D01*
G01Y215439D02*
G03Y215061I463J-189D01*
G01Y212339D02*
G03Y215061I-3332J1361D01*
G01Y212339D02*
G03Y211961I463J-189D01*
G01Y209239D02*
G03Y211961I-3332J1361D01*
G01Y209239D02*
G03Y208861I463J-189D01*
G01Y206139D02*
G03Y208861I-3332J1361D01*
G01Y206139D02*
G03Y205761I463J-189D01*
G01Y203039D02*
G03Y205761I-3332J1361D01*
G01Y203039D02*
G03Y202661I463J-189D01*
G01Y199939D02*
G03Y202661I-3332J1361D01*
G01Y199939D02*
G03Y199561I463J-189D01*
G01X218421Y198786D02*
G03X218201Y199561I-3552J-586D01*
G01X218421Y198786D02*
G03X218746Y198396I493J81D01*
G01X220043Y197575D02*
G03X218746Y198396I-2474J-2475D01*
G01X220043Y197575D02*
X220443Y197175D01*
X221469Y194700D02*
G03X220443Y197175I-3500J0D01*
G01X221469Y194700D02*
Y191420D01*
G03X222046Y190926I500J-0*
G01X223961Y190701D02*
G03X222046Y190926I-1361J-3332D01*
G01X223961Y190701D02*
G03X224339I189J463D01*
G01X227061D02*
G03X224339I-1361J-3332D01*
G01X227061D02*
G03X227439I189J463D01*
G01X230819Y190349D02*
G03X227439Y190701I-2019J-2980D01*
G01X230819Y190349D02*
G03X231600Y190763I281J414D01*
G01Y191000*
X232596Y193404D02*
G03X231600Y191000I2404J-2404D01*
G01X232596Y193404D02*
X234004Y194812D01*
G03X234150Y195165I-354J353*
G01Y208150*
X234461Y209697D02*
G03X234150Y208150I3689J-1547D01*
G01X234461Y209697D02*
G03X234500Y209890I-461J193D01*
G01Y222500*
X234678Y223679D02*
G03X234500Y222500I3822J-1179D01*
G01X234678Y223679D02*
G03X234700Y223827I-478J148D01*
G01X305192Y263130D02*
G03X305115Y264021I-262J427D01*
G01X305087Y264032D02*
G03X305115Y264021I2413J5968D01*
G01X305087Y264032D02*
G03X304400Y263569I-187J-463D01*
G01Y263538*
G03X305167Y263115I500J-0*
G01X305192Y263130D02*
G03X305167Y263115I1308J-2130D01*
G01X317476Y243382D02*
G03X317203Y244262I-322J383D01*
G01X314950Y246750D02*
G03X317203Y244262I2500J0D01*
G01X314950Y246750D02*
Y250650D01*
X314988Y251083D02*
G03X314950Y250650I2462J-433D01*
G01X314988Y251083D02*
G03X314329Y251642I-493J87D01*
G01X313500Y251500D02*
G03X314329Y251642I0J2500D01*
G01X313500Y251500D02*
X306500D01*
X305167Y251885D02*
G03X306500Y251500I1333J2115D01*
G01X305167Y251885D02*
G03X304400Y251462I-267J-423D01*
G01Y247897*
G03X304546Y247543I500J-0*
G01X307104Y244986*
X308083Y242922D02*
G03X307104Y244986I-3383J-341D01*
G01X308083Y242922D02*
G03X308875Y242569I497J51D01*
G01X310350Y243050D02*
G03X308875Y242569I0J-2500D01*
G01X310350Y243050D02*
X314250D01*
X315895Y242433D02*
G03X314250Y243050I-1645J-1883D01*
G01X315895Y242433D02*
G03X316614Y242498I328J377D01*
G01X317476Y243382D02*
G03X316614Y242498I4024J-4782D01*
G01X344750Y213400D02*
G03X344750I-6250J0D01*
G54D31*
G01X219858Y169000D03*
X200142D03*
X210000Y231000D03*
G54D36*
X341250Y199000D02*
X346500D01*
X341250D02*
Y197364D01*
X341500Y196818*
X341750Y196636*
X342250Y196455*
X343000*
X343500Y196636*
X343750Y196818*
X344000Y197364*
Y199000*
X341250Y194818D02*
X346500D01*
X342500Y190455D02*
X342000Y190636D01*
X341500Y191000*
X341250Y191364*
Y192091*
X341500Y192455*
X342000Y192818*
X342500Y193000*
X343250Y193182*
X344500*
X345250Y193000*
X345750Y192818*
X346250Y192455*
X346500Y192091*
Y191364*
X346250Y191000*
X345750Y190636*
X345250Y190455*
X342250Y188818D02*
X342000Y188455D01*
X341250Y187909*
X346500*
X342000Y184091D02*
X341500Y184273D01*
X341250Y184818*
Y185182*
X341500Y185727*
X342250Y186091*
X343500Y186273*
X344750*
X345750Y186091*
X346250Y185727*
X346500Y185182*
Y185000*
X346250Y184455*
X345750Y184091*
X345000Y183909*
X344750*
X344000Y184091*
X343500Y184455*
X343250Y185000*
Y185182*
X343500Y185727*
X344000Y186091*
X344750Y186273*
X341250Y182273D02*
X346500D01*
X341250D02*
Y179909D01*
X343750Y182273D02*
Y180818D01*
X341250Y177364D02*
X341500Y177909D01*
X342000Y178091*
X342500*
X343000Y177909*
X343250Y177545*
X343500Y176818*
X343750Y176273*
X344250Y175909*
X344750Y175727*
X345500*
X346000Y175909*
X346250Y176091*
X346500Y176636*
Y177364*
X346250Y177909*
X346000Y178091*
X345500Y178273*
X344750*
X344250Y178091*
X343750Y177727*
X343500Y177182*
X343250Y176455*
X343000Y176091*
X342500Y175909*
X342000*
X341500Y176091*
X341250Y176636*
Y177364*
Y171545D02*
X346500Y173364D01*
X341250Y174091D02*
Y171545D01*
X343000Y169909D02*
X346500Y167909D01*
X343000D02*
X346500Y169909D01*
X341250Y165000D02*
X346500D01*
X341250Y166273D02*
Y163727D01*
Y161000D02*
X341500Y161364D01*
X342000Y161727*
X342500Y161909*
X343250Y162091*
X344500*
X345250Y161909*
X345750Y161727*
X346250Y161364*
X346500Y161000*
Y160273*
X346250Y159909*
X345750Y159545*
X345250Y159364*
X344500Y159182*
X343250*
X342500Y159364*
X342000Y159545*
X341500Y159909*
X341250Y160273*
Y161000*
X345500Y160455D02*
X347000Y159364D01*
X341250Y155727D02*
X344750Y157545D01*
Y154818*
X341250Y155727D02*
X346500D01*
X341250Y151364D02*
X344750Y153182D01*
Y150455*
X341250Y151364D02*
X346500D01*
X341250Y147727D02*
X341500Y148273D01*
X342250Y148636*
X343500Y148818*
X344250*
X345500Y148636*
X346250Y148273*
X346500Y147727*
Y147364*
X346250Y146818*
X345500Y146455*
X344250Y146273*
X343500*
X342250Y146455*
X341500Y146818*
X341250Y147364*
Y147727*
X342250Y144636D02*
X342000Y144273D01*
X341250Y143727*
X346500*
X341250Y140636D02*
X346500Y142091D01*
X341250Y140636D02*
X346500Y139182D01*
X344750Y141545D02*
Y139727D01*
X205500Y240750D02*
X205136Y241000D01*
X204591Y241750*
Y236500*
G54D40*
X157500Y280000D03*
G54D43*
X176551Y285479D02*
X176051D01*
X176551Y295479D02*
X176051D01*
X266551Y285479D02*
X266051D01*
X266551Y295479D02*
X266051D01*
X276551Y285479D02*
X276051D01*
X276551Y295479D02*
X276051D01*
X285000Y259750D02*
Y260250D01*
X295000Y259750D02*
Y260250D01*
X285000Y249750D02*
Y250250D01*
X295000Y249750D02*
Y250250D01*
X285000Y239750D02*
Y240250D01*
X295000Y239750D02*
Y240250D01*
X285000Y229750D02*
Y230250D01*
X295000Y229750D02*
Y230250D01*
X285000Y219750D02*
Y220250D01*
X295000Y219750D02*
Y220250D01*
X285000Y209750D02*
Y210250D01*
X295000Y209750D02*
Y210250D01*
X285000Y199750D02*
Y200250D01*
X295000Y199750D02*
Y200250D01*
X285000Y189750D02*
Y190250D01*
X295000Y189750D02*
Y190250D01*
X186551Y285479D02*
X186051D01*
X186551Y295479D02*
X186051D01*
X285000Y179750D02*
Y180250D01*
X295000Y179750D02*
Y180250D01*
X285000Y169750D02*
Y170250D01*
X295000Y169750D02*
Y170250D01*
X285000Y159750D02*
Y160250D01*
X295000Y159750D02*
Y160250D01*
X275250Y125000D02*
X274750D01*
X275250Y135000D02*
X274750D01*
X265250Y125000D02*
X264750D01*
X265250Y135000D02*
X264750D01*
X255250Y125000D02*
X254750D01*
X255250Y135000D02*
X254750D01*
X245250Y125000D02*
X244750D01*
X245250Y135000D02*
X244750D01*
X235250Y125000D02*
X234750D01*
X235250Y135000D02*
X234750D01*
X225250Y125000D02*
X224750D01*
X225250Y135000D02*
X224750D01*
X215250Y125000D02*
X214750D01*
X215250Y135000D02*
X214750D01*
X196551Y285479D02*
X196051D01*
X196551Y295479D02*
X196051D01*
X205250Y125000D02*
X204750D01*
X205250Y135000D02*
X204750D01*
X195250Y125000D02*
X194750D01*
X195250Y135000D02*
X194750D01*
X185250Y125000D02*
X184750D01*
X185250Y135000D02*
X184750D01*
X175250Y125000D02*
X174750D01*
X175250Y135000D02*
X174750D01*
X156158Y161238D02*
Y161738D01*
X166158Y161238D02*
Y161738D01*
X156158Y171238D02*
Y171738D01*
X166158Y171238D02*
Y171738D01*
X156158Y181238D02*
Y181738D01*
X166158Y181238D02*
Y181738D01*
X156158Y191238D02*
Y191738D01*
X166158Y191238D02*
Y191738D01*
X156158Y201238D02*
Y201738D01*
X166158Y201238D02*
Y201738D01*
X156158Y211238D02*
Y211738D01*
X166158Y211238D02*
Y211738D01*
X206551Y285479D02*
X206051D01*
X206551Y295479D02*
X206051D01*
X156158Y221238D02*
Y221738D01*
X166158Y221238D02*
Y221738D01*
X156158Y231238D02*
Y231738D01*
X166158Y231238D02*
Y231738D01*
X156158Y241238D02*
Y241738D01*
X166158Y241238D02*
Y241738D01*
X156158Y251238D02*
Y251738D01*
X166158Y251238D02*
Y251738D01*
X156158Y261238D02*
Y261738D01*
X166158Y261238D02*
Y261738D01*
X310000Y152250D02*
Y152750D01*
X320000Y152250D02*
Y152750D01*
X310000Y162250D02*
Y162750D01*
X320000Y162250D02*
Y162750D01*
X310000Y177250D02*
Y177750D01*
X320000Y177250D02*
Y177750D01*
X216551Y285479D02*
X216051D01*
X216551Y295479D02*
X216051D01*
X310000Y187250D02*
Y187750D01*
X320000Y187250D02*
Y187750D01*
X163634Y128088D02*
Y127588D01*
X153634Y128088D02*
Y127588D01*
X163915Y144072D02*
Y143572D01*
X153915Y144072D02*
Y143572D01*
X130000Y194750D02*
Y195250D01*
X140000Y194750D02*
Y195250D01*
X130000Y234750D02*
Y235250D01*
X140000Y234750D02*
Y235250D01*
X310000Y140750D02*
Y141250D01*
X290000Y140750D02*
Y141250D01*
X310000Y130750D02*
Y131250D01*
X290000Y130750D02*
Y131250D01*
X226551Y285479D02*
X226051D01*
X226551Y295479D02*
X226051D01*
X310000Y120750D02*
Y121250D01*
X290000Y120750D02*
Y121250D01*
X142500Y267250D02*
Y267750D01*
X122500Y267250D02*
Y267750D01*
X142500Y257250D02*
Y257750D01*
X122500Y257250D02*
Y257750D01*
X142500Y247250D02*
Y247750D01*
X122500Y247250D02*
Y247750D01*
X236551Y285479D02*
X236051D01*
X236551Y295479D02*
X236051D01*
X246551Y285479D02*
X246051D01*
X246551Y295479D02*
X246051D01*
X256551Y285479D02*
X256051D01*
X256551Y295479D02*
X256051D01*
G54D48*
X236500Y260250D02*
Y264750D01*
X223500Y260250D02*
Y264750D01*
G54D49*
X307500Y270000D03*
X342500D03*
G54D50*
X338500Y238600D03*
X321500D03*
Y213400D03*
X338500D03*
G54D51*
X219500Y227631D02*
Y233431D01*
X222600Y227631D02*
Y233431D01*
X225700Y227631D02*
Y233431D01*
X228800Y227631D02*
Y233431D01*
X231900Y227631D02*
Y233431D01*
X235000Y227631D02*
Y233431D01*
X238100Y227631D02*
Y233431D01*
X241200Y227631D02*
Y233431D01*
X244300Y227631D02*
Y233431D01*
X247400Y227631D02*
Y233431D01*
X250500Y227631D02*
Y233431D01*
X260931Y223000D02*
X255131D01*
X260931Y219900D02*
X255131D01*
X260931Y216800D02*
X255131D01*
X260931Y213700D02*
X255131D01*
X260931Y210600D02*
X255131D01*
X260931Y207500D02*
X255131D01*
X260931Y204400D02*
X255131D01*
X260931Y201300D02*
X255131D01*
X260931Y198200D02*
X255131D01*
X260931Y195100D02*
X255131D01*
X260931Y192000D02*
X255131D01*
X250500Y181569D02*
Y187369D01*
X247400Y181569D02*
Y187369D01*
X244300Y181569D02*
Y187369D01*
X241200Y181569D02*
Y187369D01*
X238100Y181569D02*
Y187369D01*
X235000Y181569D02*
Y187369D01*
X231900Y181569D02*
Y187369D01*
X228800Y181569D02*
Y187369D01*
X225700Y181569D02*
Y187369D01*
X222600Y181569D02*
Y187369D01*
X219500Y181569D02*
Y187369D01*
X214869Y192000D02*
X209069D01*
X214869Y195100D02*
X209069D01*
X214869Y198200D02*
X209069D01*
X214869Y201300D02*
X209069D01*
X214869Y204400D02*
X209069D01*
X214869Y207500D02*
X209069D01*
X214869Y210600D02*
X209069D01*
X214869Y213700D02*
X209069D01*
X214869Y216800D02*
X209069D01*
X214869Y219900D02*
X209069D01*
X214869Y223000D02*
X209069D01*
G54D52*
X131600Y147500D02*
X130945D01*
Y156200*
X175000Y135000D02*
X175250D01*
X181000Y140750*
Y149258*
X191000Y159258*
Y172960*
X202509Y184469*
X219500*
X175000Y125000D02*
Y135000D01*
X185000D02*
Y141500D01*
X194000Y150500*
Y172000*
X199500Y177500*
X220000*
X222600Y180000*
Y184469*
X185000Y125000D02*
Y135000D01*
X130000Y156200D02*
X130945D01*
X239000Y172566D02*
X238100Y173466D01*
X238100D02*
Y184469D01*
X200142Y169000D02*
X205642Y174500D01*
X221231*
X225700Y178969*
Y184469*
X219858Y169000D02*
X228800Y177942D01*
Y184469*
X235000D02*
Y191000D01*
X238150Y194150*
X195000Y135000D02*
X195250D01*
X203545Y143295*
X203945*
X210100Y149450*
Y150300*
X195000Y125000D02*
Y135000D01*
X205000D02*
X205250D01*
X213900Y143650*
Y159500*
X215200*
X205000Y125000D02*
Y135000D01*
X225000D02*
Y151000D01*
X234800Y160800*
Y168500*
X225000Y125000D02*
Y135000D01*
X235000D02*
Y157000D01*
X239000Y161000*
Y172566*
X235000Y125000D02*
Y135000D01*
X245000D02*
Y171301D01*
X241200Y175101*
Y184469*
X245000Y125000D02*
Y135000D01*
X255000D02*
Y166036D01*
X244300Y176736*
Y184469*
X255000Y125000D02*
Y135000D01*
X265000D02*
Y160682D01*
X247400Y178282*
Y184469*
X265000Y125000D02*
Y135000D01*
X210100Y150300D02*
Y159042D01*
X200142Y169000*
X215200Y159500D02*
X216250D01*
Y161400*
X219858Y169000*
X234800Y168500D02*
X235000Y168700D01*
Y184469*
X279370Y185880D02*
X278120D01*
X265800Y198200*
X288563Y147000D02*
X314500D01*
X315564Y148064*
X317650Y149900*
X320000Y151968*
Y152500*
X288563Y147000D02*
X258500Y177063D01*
Y183800*
X248150Y194150*
X290000Y121000D02*
X296200D01*
X290000Y131000D02*
X296200D01*
X290000Y141000D02*
X296200D01*
X320000Y187500D02*
X328700D01*
X310000Y177500D02*
Y187500D01*
X320000Y162500D02*
X328700D01*
X310000Y152500D02*
Y162500D01*
X275000Y135000D02*
Y155736D01*
X254000Y176736*
Y178069*
X250500Y181569*
Y184469*
X275000Y125000D02*
Y135000D01*
X295000Y160000D02*
X301250D01*
X303750Y162500*
X310000*
X285000Y160000D02*
Y160250D01*
X268000Y177250*
Y184931*
X260931Y192000*
X285000Y160000D02*
X295000D01*
Y170000D02*
Y170250D01*
X302250Y177500*
X310000*
X285000Y170000D02*
Y170250D01*
X272000Y183250*
Y186631*
X263531Y195100*
X285000Y170000D02*
X295000D01*
X285000Y180000D02*
Y180250D01*
X279370Y185880*
X285000Y180000D02*
X295000D01*
X303800Y121000D02*
X310000D01*
X303800Y131000D02*
X310000D01*
X303800Y141000D02*
X310000D01*
X135800Y221500D02*
Y222100D01*
X130000Y227900*
Y235000*
X136300Y247500D02*
X142500D01*
X136300Y257500D02*
X142500D01*
X136300Y267500D02*
X142500D01*
X122500Y247500D02*
X128700D01*
X122500Y257500D02*
X128700D01*
X122500Y267500D02*
X128700D01*
X130000Y195000D02*
Y205100D01*
X135800Y210900*
Y211500*
X269691Y210500D02*
X275750D01*
X285000Y219750*
Y220000*
X269691Y210500D02*
X269591Y210600D01*
X238500Y222500D02*
X238100Y222900D01*
Y230531*
X258031Y192000D02*
X260931D01*
X258031Y195100D02*
X263531D01*
X258031Y198200D02*
X265800D01*
X258031Y201300D02*
X267805D01*
X258031Y204400D02*
X269541D01*
X269641Y204500*
X272157*
X258031Y207500D02*
X277750D01*
X280250Y210000*
X285000*
X258031Y210600D02*
X269591D01*
X258031Y213700D02*
X268950D01*
X285000Y229750*
Y230000*
X258031Y216800D02*
X264391D01*
X277500Y229909*
Y232250*
X285000Y239750*
Y240000*
X258031Y219900D02*
X263531D01*
X272000Y228369*
Y236750*
X285000Y249750*
Y250000*
X258031Y223000D02*
X260931D01*
X268000Y230069*
Y242750*
X285000Y259750*
Y260000*
X238100Y230531D02*
X238000Y230631D01*
Y249300*
X236800Y250500*
X319114Y256300D02*
X315157D01*
X313957Y257500*
X303750Y213750D02*
X301000D01*
X295000Y219750*
Y220000*
X304445Y202000D02*
X314187D01*
X315500Y203313*
Y212000*
X304445Y202000D02*
X302445Y204000D01*
X300750*
X295000Y209750*
Y210000*
X302118Y199000D02*
X315147D01*
X327500Y211353*
Y221370*
X302118Y199000D02*
X301118Y200000D01*
X285000D02*
X276657D01*
X272157Y204500*
X285000Y190000D02*
X279105D01*
X267805Y201300*
X321500Y244710D02*
Y247200D01*
X320000Y248700*
X319114Y256300D02*
X320000D01*
X327500Y221370D02*
X321500Y227370D01*
Y238600*
X315500Y212000D02*
X310000Y217500D01*
X321500Y238600D02*
Y244710D01*
X304700Y238000D02*
Y242581D01*
X304700D02*
X301000Y246281D01*
X301000D02*
Y270000D01*
X312300Y238000D02*
Y238600D01*
X321500*
X310000Y257500D02*
X313957D01*
X310000Y227500D02*
Y232500D01*
X304700Y237800*
Y238000*
X310000Y207500D02*
X303750Y213750D01*
X285000Y190000D02*
X295000D01*
X301118Y200000D02*
X295000D01*
X285000*
Y210000D02*
X295000D01*
X285000Y220000D02*
X295000D01*
X285000Y230000D02*
X295000D01*
X285000Y240000D02*
X295000D01*
X285000Y250000D02*
X295000D01*
X285000Y260000D02*
X295000D01*
G74*
X0Y0D02*
M02*
